{
    "header": {
        "PPQ": 480,
        "timeSignature": [
            3,
            4
        ],
        "bpm": 168.99980283356336,
        "name": "3. Mazurka"
    },
    "startTime": 0,
    "duration": 157.27829000000057,
    "tracks": [
        {
            "startTime": 0,
            "duration": 0,
            "length": 0,
            "notes": [],
            "controlChanges": {},
            "id": 0,
            "name": "3. Mazurka"
        },
        {
            "startTime": 0.35503,
            "duration": 157.27829000000057,
            "length": 867,
            "notes": [
                {
                    "name": "G4",
                    "midi": 67,
                    "time": 0.35503,
                    "velocity": 0.3700787401574803,
                    "duration": 0.7100600000000001
                },
                {
                    "name": "G4",
                    "midi": 67,
                    "time": 1.42012,
                    "velocity": 0.41732283464566927,
                    "duration": 0.7100600000000001
                },
                {
                    "name": "G4",
                    "midi": 67,
                    "time": 2.4852100000000004,
                    "velocity": 0.4566929133858268,
                    "duration": 0.7100599999999999
                },
                {
                    "name": "G4",
                    "midi": 67,
                    "time": 3.1952700000000003,
                    "velocity": 0.49606299212598426,
                    "duration": 0.7100599999999999
                },
                {
                    "name": "G4",
                    "midi": 67,
                    "time": 3.90533,
                    "velocity": 0.5275590551181102,
                    "duration": 0.6656812499999996
                },
                {
                    "name": "F4",
                    "midi": 65,
                    "time": 4.57101125,
                    "velocity": 0.4645669291338583,
                    "duration": 0.7544387499999994
                },
                {
                    "name": "B4",
                    "midi": 71,
                    "time": 4.57101125,
                    "velocity": 0.5433070866141733,
                    "duration": 0.7544387499999994
                },
                {
                    "name": "E5",
                    "midi": 76,
                    "time": 4.61539,
                    "velocity": 0.6141732283464567,
                    "duration": 0.5325449999999998
                },
                {
                    "name": "D5",
                    "midi": 74,
                    "time": 5.1479349999999995,
                    "velocity": 0.5826771653543307,
                    "duration": 0.13313624999999973
                },
                {
                    "name": "C5",
                    "midi": 72,
                    "time": 5.281071249999999,
                    "velocity": 0.5039370078740157,
                    "duration": 0.04437874999999991
                },
                {
                    "name": "E4",
                    "midi": 64,
                    "time": 5.325449999999999,
                    "velocity": 0.5511811023622047,
                    "duration": 0.17751499999999965
                },
                {
                    "name": "E5",
                    "midi": 76,
                    "time": 5.325449999999999,
                    "velocity": 0.6220472440944882,
                    "duration": 0.17751499999999965
                },
                {
                    "name": "B4",
                    "midi": 71,
                    "time": 5.591722499999999,
                    "velocity": 0.5748031496062992,
                    "duration": 0.06656812499999987
                },
                {
                    "name": "C5",
                    "midi": 72,
                    "time": 5.680479999999998,
                    "velocity": 0.6220472440944882,
                    "duration": 0.17751499999999965
                },
                {
                    "name": "E4",
                    "midi": 64,
                    "time": 5.680479999999998,
                    "velocity": 0.5196850393700787,
                    "duration": 0.17751499999999965
                },
                {
                    "name": "D5",
                    "midi": 74,
                    "time": 5.946752499999998,
                    "velocity": 0.5433070866141733,
                    "duration": 0.06656812499999987
                },
                {
                    "name": "E4",
                    "midi": 64,
                    "time": 6.035509999999998,
                    "velocity": 0.5748031496062992,
                    "duration": 0.31065125000000027
                },
                {
                    "name": "E5",
                    "midi": 76,
                    "time": 6.035509999999998,
                    "velocity": 0.6377952755905512,
                    "duration": 0.31065125000000027
                },
                {
                    "name": "C5",
                    "midi": 72,
                    "time": 6.346161249999998,
                    "velocity": 0.4330708661417323,
                    "duration": 0.22189374999999956
                },
                {
                    "name": "E5",
                    "midi": 76,
                    "time": 6.390539999999998,
                    "velocity": 0.4645669291338583,
                    "duration": 0.17751499999999965
                },
                {
                    "name": "F#5",
                    "midi": 78,
                    "time": 6.656812499999997,
                    "velocity": 0.41732283464566927,
                    "duration": 0.06656812499999987
                },
                {
                    "name": "C5",
                    "midi": 72,
                    "time": 6.745569999999997,
                    "velocity": 0.4094488188976378,
                    "duration": 0.08875749999999982
                },
                {
                    "name": "G5",
                    "midi": 79,
                    "time": 6.745569999999997,
                    "velocity": 0.4645669291338583,
                    "duration": 0.08875749999999982
                },
                {
                    "name": "A5",
                    "midi": 81,
                    "time": 7.100599999999997,
                    "velocity": 0.48031496062992124,
                    "duration": 0.08875749999999982
                },
                {
                    "name": "C5",
                    "midi": 72,
                    "time": 7.100599999999997,
                    "velocity": 0.4330708661417323,
                    "duration": 0.08875749999999982
                },
                {
                    "name": "G5",
                    "midi": 79,
                    "time": 7.411251249999998,
                    "velocity": 0.44881889763779526,
                    "duration": 0.04437874999999991
                },
                {
                    "name": "B5",
                    "midi": 83,
                    "time": 7.4556299999999975,
                    "velocity": 0.5039370078740157,
                    "duration": 0.7100600000000004
                },
                {
                    "name": "B4",
                    "midi": 71,
                    "time": 7.4556299999999975,
                    "velocity": 0.4566929133858268,
                    "duration": 0.7100600000000004
                },
                {
                    "name": "B4",
                    "midi": 71,
                    "time": 8.165689999999998,
                    "velocity": 0.41732283464566927,
                    "duration": 0.3106512499999994
                },
                {
                    "name": "G5",
                    "midi": 79,
                    "time": 8.165689999999998,
                    "velocity": 0.47244094488188976,
                    "duration": 0.3106512499999994
                },
                {
                    "name": "F5",
                    "midi": 77,
                    "time": 8.476341249999997,
                    "velocity": 0.4881889763779528,
                    "duration": 0.04437874999999991
                },
                {
                    "name": "A5",
                    "midi": 81,
                    "time": 8.520719999999997,
                    "velocity": 0.5590551181102362,
                    "duration": 0.17751499999999965
                },
                {
                    "name": "B5",
                    "midi": 83,
                    "time": 8.698234999999997,
                    "velocity": 0.5511811023622047,
                    "duration": 0.17751499999999965
                },
                {
                    "name": "C6",
                    "midi": 84,
                    "time": 8.875749999999996,
                    "velocity": 0.5905511811023622,
                    "duration": 0.11834333333333369
                },
                {
                    "name": "F5",
                    "midi": 77,
                    "time": 8.875749999999996,
                    "velocity": 0.5275590551181102,
                    "duration": 0.7100600000000004
                },
                {
                    "name": "D6",
                    "midi": 86,
                    "time": 8.99409333333333,
                    "velocity": 0.5275590551181102,
                    "duration": 0.11834333333333369
                },
                {
                    "name": "C6",
                    "midi": 84,
                    "time": 9.112436666666664,
                    "velocity": 0.5275590551181102,
                    "duration": 0.11834333333333369
                },
                {
                    "name": "B5",
                    "midi": 83,
                    "time": 9.230779999999998,
                    "velocity": 0.5669291338582677,
                    "duration": 0.17751499999999965
                },
                {
                    "name": "A5",
                    "midi": 81,
                    "time": 9.408294999999997,
                    "velocity": 0.49606299212598426,
                    "duration": 0.17751499999999965
                },
                {
                    "name": "E5",
                    "midi": 76,
                    "time": 9.585809999999997,
                    "velocity": 0.5275590551181102,
                    "duration": 0.26627249999999947
                },
                {
                    "name": "G5",
                    "midi": 79,
                    "time": 9.585809999999997,
                    "velocity": 0.5905511811023622,
                    "duration": 0.26627249999999947
                },
                {
                    "name": "G5",
                    "midi": 79,
                    "time": 9.852082499999996,
                    "velocity": 0.5196850393700787,
                    "duration": 0.06656812499999987
                },
                {
                    "name": "E5",
                    "midi": 76,
                    "time": 9.852082499999996,
                    "velocity": 0.4645669291338583,
                    "duration": 0.06656812499999987
                },
                {
                    "name": "D5",
                    "midi": 74,
                    "time": 9.940839999999996,
                    "velocity": 0.47244094488188976,
                    "duration": 0.3550299999999993
                },
                {
                    "name": "F5",
                    "midi": 77,
                    "time": 9.940839999999996,
                    "velocity": 0.5275590551181102,
                    "duration": 0.3550299999999993
                },
                {
                    "name": "C5",
                    "midi": 72,
                    "time": 10.295869999999995,
                    "velocity": 0.4409448818897638,
                    "duration": 0.3550299999999993
                },
                {
                    "name": "E5",
                    "midi": 76,
                    "time": 10.295869999999995,
                    "velocity": 0.4881889763779528,
                    "duration": 0.3550299999999993
                },
                {
                    "name": "D5",
                    "midi": 74,
                    "time": 10.650899999999995,
                    "velocity": 0.5196850393700787,
                    "duration": 0.26627249999999947
                },
                {
                    "name": "B4",
                    "midi": 71,
                    "time": 10.650899999999995,
                    "velocity": 0.4645669291338583,
                    "duration": 0.26627249999999947
                },
                {
                    "name": "B4",
                    "midi": 71,
                    "time": 10.917172499999994,
                    "velocity": 0.41732283464566927,
                    "duration": 0.06656812499999987
                },
                {
                    "name": "D5",
                    "midi": 74,
                    "time": 10.917172499999994,
                    "velocity": 0.47244094488188976,
                    "duration": 0.06656812499999987
                },
                {
                    "name": "G5",
                    "midi": 79,
                    "time": 11.005929999999994,
                    "velocity": 0.5039370078740157,
                    "duration": 0.7100599999999986
                },
                {
                    "name": "C5",
                    "midi": 72,
                    "time": 11.360959999999993,
                    "velocity": 0.3937007874015748,
                    "duration": 0.3550299999999993
                },
                {
                    "name": "E5",
                    "midi": 76,
                    "time": 11.360959999999993,
                    "velocity": 0.4409448818897638,
                    "duration": 0.3550299999999993
                },
                {
                    "name": "A4",
                    "midi": 69,
                    "time": 11.360959999999993,
                    "velocity": 0.3937007874015748,
                    "duration": 0.3550299999999993
                },
                {
                    "name": "C5",
                    "midi": 72,
                    "time": 11.715989999999993,
                    "velocity": 0.47244094488188976,
                    "duration": 0.26627249999999947
                },
                {
                    "name": "A4",
                    "midi": 69,
                    "time": 11.715989999999993,
                    "velocity": 0.41732283464566927,
                    "duration": 0.26627249999999947
                },
                {
                    "name": "C5",
                    "midi": 72,
                    "time": 11.982262499999992,
                    "velocity": 0.44881889763779526,
                    "duration": 0.06656812499999987
                },
                {
                    "name": "A4",
                    "midi": 69,
                    "time": 11.982262499999992,
                    "velocity": 0.4015748031496063,
                    "duration": 0.06656812499999987
                },
                {
                    "name": "G5",
                    "midi": 79,
                    "time": 12.071019999999992,
                    "velocity": 0.48031496062992124,
                    "duration": 0.7100599999999986
                },
                {
                    "name": "B4",
                    "midi": 71,
                    "time": 12.426049999999991,
                    "velocity": 0.3779527559055118,
                    "duration": 0.3550299999999993
                },
                {
                    "name": "D5",
                    "midi": 74,
                    "time": 12.426049999999991,
                    "velocity": 0.41732283464566927,
                    "duration": 0.3550299999999993
                },
                {
                    "name": "F4",
                    "midi": 65,
                    "time": 13.09173124999999,
                    "velocity": 0.47244094488188976,
                    "duration": 0.7544387500000003
                },
                {
                    "name": "B4",
                    "midi": 71,
                    "time": 13.09173124999999,
                    "velocity": 0.5433070866141733,
                    "duration": 0.7544387500000003
                },
                {
                    "name": "E5",
                    "midi": 76,
                    "time": 13.13610999999999,
                    "velocity": 0.6141732283464567,
                    "duration": 0.5325450000000007
                },
                {
                    "name": "D5",
                    "midi": 74,
                    "time": 13.66865499999999,
                    "velocity": 0.5826771653543307,
                    "duration": 0.13313624999999973
                },
                {
                    "name": "C5",
                    "midi": 72,
                    "time": 13.80179124999999,
                    "velocity": 0.5039370078740157,
                    "duration": 0.04437874999999991
                },
                {
                    "name": "E5",
                    "midi": 76,
                    "time": 13.84616999999999,
                    "velocity": 0.6220472440944882,
                    "duration": 0.17751499999999965
                },
                {
                    "name": "E4",
                    "midi": 64,
                    "time": 13.84616999999999,
                    "velocity": 0.5511811023622047,
                    "duration": 0.17751499999999965
                },
                {
                    "name": "B4",
                    "midi": 71,
                    "time": 14.11244249999999,
                    "velocity": 0.5748031496062992,
                    "duration": 0.06656812499999987
                },
                {
                    "name": "C5",
                    "midi": 72,
                    "time": 14.20119999999999,
                    "velocity": 0.6220472440944882,
                    "duration": 0.17751499999999965
                },
                {
                    "name": "E4",
                    "midi": 64,
                    "time": 14.20119999999999,
                    "velocity": 0.5354330708661418,
                    "duration": 0.17751499999999965
                },
                {
                    "name": "D5",
                    "midi": 74,
                    "time": 14.467472499999989,
                    "velocity": 0.5433070866141733,
                    "duration": 0.06656812499999987
                },
                {
                    "name": "E4",
                    "midi": 64,
                    "time": 14.556229999999989,
                    "velocity": 0.5748031496062992,
                    "duration": 0.3106512499999994
                },
                {
                    "name": "E5",
                    "midi": 76,
                    "time": 14.556229999999989,
                    "velocity": 0.6377952755905512,
                    "duration": 0.3106512499999994
                },
                {
                    "name": "C5",
                    "midi": 72,
                    "time": 14.866881249999988,
                    "velocity": 0.4330708661417323,
                    "duration": 0.22189374999999956
                },
                {
                    "name": "E5",
                    "midi": 76,
                    "time": 14.911259999999988,
                    "velocity": 0.4645669291338583,
                    "duration": 0.17751499999999965
                },
                {
                    "name": "F#5",
                    "midi": 78,
                    "time": 15.177532499999987,
                    "velocity": 0.41732283464566927,
                    "duration": 0.06656812499999987
                },
                {
                    "name": "G5",
                    "midi": 79,
                    "time": 15.266289999999987,
                    "velocity": 0.4645669291338583,
                    "duration": 0.08875749999999982
                },
                {
                    "name": "C5",
                    "midi": 72,
                    "time": 15.266289999999987,
                    "velocity": 0.4094488188976378,
                    "duration": 0.08875749999999982
                },
                {
                    "name": "A5",
                    "midi": 81,
                    "time": 15.621319999999987,
                    "velocity": 0.48031496062992124,
                    "duration": 0.08875749999999982
                },
                {
                    "name": "C5",
                    "midi": 72,
                    "time": 15.621319999999987,
                    "velocity": 0.4330708661417323,
                    "duration": 0.08875749999999982
                },
                {
                    "name": "G5",
                    "midi": 79,
                    "time": 15.931971249999986,
                    "velocity": 0.4645669291338583,
                    "duration": 0.04437874999999991
                },
                {
                    "name": "B4",
                    "midi": 71,
                    "time": 15.976349999999986,
                    "velocity": 0.4566929133858268,
                    "duration": 0.7100599999999986
                },
                {
                    "name": "B5",
                    "midi": 83,
                    "time": 15.976349999999986,
                    "velocity": 0.5039370078740157,
                    "duration": 0.7100599999999986
                },
                {
                    "name": "G5",
                    "midi": 79,
                    "time": 16.686409999999984,
                    "velocity": 0.47244094488188976,
                    "duration": 0.3106512499999994
                },
                {
                    "name": "B4",
                    "midi": 71,
                    "time": 16.686409999999984,
                    "velocity": 0.41732283464566927,
                    "duration": 0.3106512499999994
                },
                {
                    "name": "F5",
                    "midi": 77,
                    "time": 16.997061249999984,
                    "velocity": 0.49606299212598426,
                    "duration": 0.04437874999999991
                },
                {
                    "name": "A5",
                    "midi": 81,
                    "time": 17.041439999999984,
                    "velocity": 0.5511811023622047,
                    "duration": 0.17751499999999965
                },
                {
                    "name": "B5",
                    "midi": 83,
                    "time": 17.218954999999983,
                    "velocity": 0.5275590551181102,
                    "duration": 0.17751499999999965
                },
                {
                    "name": "F5",
                    "midi": 77,
                    "time": 17.396469999999983,
                    "velocity": 0.5275590551181102,
                    "duration": 0.710059999999995
                },
                {
                    "name": "C6",
                    "midi": 84,
                    "time": 17.396469999999983,
                    "velocity": 0.5905511811023622,
                    "duration": 0.11834333333333191
                },
                {
                    "name": "D6",
                    "midi": 86,
                    "time": 17.514813333333315,
                    "velocity": 0.5275590551181102,
                    "duration": 0.11834333333333191
                },
                {
                    "name": "C6",
                    "midi": 84,
                    "time": 17.633156666666647,
                    "velocity": 0.5275590551181102,
                    "duration": 0.11834333333333191
                },
                {
                    "name": "B5",
                    "midi": 83,
                    "time": 17.75149999999998,
                    "velocity": 0.5669291338582677,
                    "duration": 0.17751499999999965
                },
                {
                    "name": "A5",
                    "midi": 81,
                    "time": 17.92901499999998,
                    "velocity": 0.49606299212598426,
                    "duration": 0.17751499999999965
                },
                {
                    "name": "E5",
                    "midi": 76,
                    "time": 18.106529999999978,
                    "velocity": 0.5275590551181102,
                    "duration": 0.26627249999999947
                },
                {
                    "name": "G5",
                    "midi": 79,
                    "time": 18.106529999999978,
                    "velocity": 0.5905511811023622,
                    "duration": 0.26627249999999947
                },
                {
                    "name": "G5",
                    "midi": 79,
                    "time": 18.372802499999977,
                    "velocity": 0.5196850393700787,
                    "duration": 0.06656812499999987
                },
                {
                    "name": "E5",
                    "midi": 76,
                    "time": 18.372802499999977,
                    "velocity": 0.4645669291338583,
                    "duration": 0.06656812499999987
                },
                {
                    "name": "F5",
                    "midi": 77,
                    "time": 18.461559999999977,
                    "velocity": 0.5275590551181102,
                    "duration": 0.3550299999999993
                },
                {
                    "name": "D5",
                    "midi": 74,
                    "time": 18.461559999999977,
                    "velocity": 0.47244094488188976,
                    "duration": 0.3550299999999993
                },
                {
                    "name": "C5",
                    "midi": 72,
                    "time": 18.816589999999977,
                    "velocity": 0.4409448818897638,
                    "duration": 0.3550299999999993
                },
                {
                    "name": "E5",
                    "midi": 76,
                    "time": 18.816589999999977,
                    "velocity": 0.4881889763779528,
                    "duration": 0.3550299999999993
                },
                {
                    "name": "D5",
                    "midi": 74,
                    "time": 19.171619999999976,
                    "velocity": 0.5196850393700787,
                    "duration": 0.26627249999999947
                },
                {
                    "name": "B4",
                    "midi": 71,
                    "time": 19.171619999999976,
                    "velocity": 0.4645669291338583,
                    "duration": 0.26627249999999947
                },
                {
                    "name": "B4",
                    "midi": 71,
                    "time": 19.437892499999975,
                    "velocity": 0.41732283464566927,
                    "duration": 0.06656812499999987
                },
                {
                    "name": "D5",
                    "midi": 74,
                    "time": 19.437892499999975,
                    "velocity": 0.47244094488188976,
                    "duration": 0.06656812499999987
                },
                {
                    "name": "G5",
                    "midi": 79,
                    "time": 19.526649999999975,
                    "velocity": 0.5039370078740157,
                    "duration": 0.7100599999999986
                },
                {
                    "name": "C5",
                    "midi": 72,
                    "time": 19.881679999999974,
                    "velocity": 0.3937007874015748,
                    "duration": 0.3550299999999993
                },
                {
                    "name": "A4",
                    "midi": 69,
                    "time": 19.881679999999974,
                    "velocity": 0.3937007874015748,
                    "duration": 0.3550299999999993
                },
                {
                    "name": "E5",
                    "midi": 76,
                    "time": 19.881679999999974,
                    "velocity": 0.4409448818897638,
                    "duration": 0.3550299999999993
                },
                {
                    "name": "B4",
                    "midi": 71,
                    "time": 20.236709999999974,
                    "velocity": 0.4015748031496063,
                    "duration": 0.7100599999999986
                },
                {
                    "name": "D5",
                    "midi": 74,
                    "time": 20.236709999999974,
                    "velocity": 0.44881889763779526,
                    "duration": 0.3550299999999993
                },
                {
                    "name": "F4",
                    "midi": 65,
                    "time": 20.236709999999974,
                    "velocity": 0.4015748031496063,
                    "duration": 0.7100599999999986
                },
                {
                    "name": "E5",
                    "midi": 76,
                    "time": 20.591739999999973,
                    "velocity": 0.4409448818897638,
                    "duration": 0.17751499999999965
                },
                {
                    "name": "D5",
                    "midi": 74,
                    "time": 20.769254999999973,
                    "velocity": 0.4094488188976378,
                    "duration": 0.17751499999999965
                },
                {
                    "name": "C5",
                    "midi": 72,
                    "time": 20.946769999999972,
                    "velocity": 0.3937007874015748,
                    "duration": 0.3550299999999993
                },
                {
                    "name": "E4",
                    "midi": 64,
                    "time": 20.946769999999972,
                    "velocity": 0.3464566929133858,
                    "duration": 0.3550299999999993
                },
                {
                    "name": "G4",
                    "midi": 67,
                    "time": 21.47931499999997,
                    "velocity": 0.3858267716535433,
                    "duration": 0.17751499999999965
                },
                {
                    "name": "B3",
                    "midi": 59,
                    "time": 21.65682999999997,
                    "velocity": 0.3464566929133858,
                    "duration": 0.3550299999999993
                },
                {
                    "name": "G3",
                    "midi": 55,
                    "time": 21.65682999999997,
                    "velocity": 0.3464566929133858,
                    "duration": 0.3550299999999993
                },
                {
                    "name": "G4",
                    "midi": 67,
                    "time": 21.65682999999997,
                    "velocity": 0.3858267716535433,
                    "duration": 0.17751499999999965
                },
                {
                    "name": "G4",
                    "midi": 67,
                    "time": 22.01185999999997,
                    "velocity": 0.3937007874015748,
                    "duration": 0.3550299999999993
                },
                {
                    "name": "A3",
                    "midi": 57,
                    "time": 22.01185999999997,
                    "velocity": 0.3543307086614173,
                    "duration": 0.3550299999999993
                },
                {
                    "name": "C4",
                    "midi": 60,
                    "time": 22.01185999999997,
                    "velocity": 0.3543307086614173,
                    "duration": 0.3550299999999993
                },
                {
                    "name": "G4",
                    "midi": 67,
                    "time": 22.54440499999997,
                    "velocity": 0.3858267716535433,
                    "duration": 0.17751499999999965
                },
                {
                    "name": "G3",
                    "midi": 55,
                    "time": 22.72191999999997,
                    "velocity": 0.3464566929133858,
                    "duration": 0.3550299999999993
                },
                {
                    "name": "B3",
                    "midi": 59,
                    "time": 22.72191999999997,
                    "velocity": 0.3464566929133858,
                    "duration": 0.3550299999999993
                },
                {
                    "name": "G4",
                    "midi": 67,
                    "time": 22.72191999999997,
                    "velocity": 0.3858267716535433,
                    "duration": 0.17751499999999965
                },
                {
                    "name": "A3",
                    "midi": 57,
                    "time": 23.076949999999968,
                    "velocity": 0.3543307086614173,
                    "duration": 0.3550299999999993
                },
                {
                    "name": "C4",
                    "midi": 60,
                    "time": 23.076949999999968,
                    "velocity": 0.3543307086614173,
                    "duration": 0.3550299999999993
                },
                {
                    "name": "G4",
                    "midi": 67,
                    "time": 23.076949999999968,
                    "velocity": 0.3937007874015748,
                    "duration": 0.3550299999999993
                },
                {
                    "name": "G4",
                    "midi": 67,
                    "time": 23.787009999999967,
                    "velocity": 0.3858267716535433,
                    "duration": 0.3550299999999993
                },
                {
                    "name": "A3",
                    "midi": 57,
                    "time": 23.787009999999967,
                    "velocity": 0.3464566929133858,
                    "duration": 0.17751499999999965
                },
                {
                    "name": "C4",
                    "midi": 60,
                    "time": 23.787009999999967,
                    "velocity": 0.3464566929133858,
                    "duration": 0.17751499999999965
                },
                {
                    "name": "E4",
                    "midi": 64,
                    "time": 23.964524999999966,
                    "velocity": 0.31496062992125984,
                    "duration": 0.17751499999999965
                },
                {
                    "name": "G4",
                    "midi": 67,
                    "time": 24.142039999999966,
                    "velocity": 0.3937007874015748,
                    "duration": 0.3550299999999993
                },
                {
                    "name": "D4",
                    "midi": 62,
                    "time": 24.142039999999966,
                    "velocity": 0.3543307086614173,
                    "duration": 0.17751499999999965
                },
                {
                    "name": "C4",
                    "midi": 60,
                    "time": 24.319554999999966,
                    "velocity": 0.3464566929133858,
                    "duration": 0.17751499999999965
                },
                {
                    "name": "B3",
                    "midi": 59,
                    "time": 24.497069999999965,
                    "velocity": 0.3700787401574803,
                    "duration": 0.17751499999999965
                },
                {
                    "name": "G4",
                    "midi": 67,
                    "time": 24.497069999999965,
                    "velocity": 0.4094488188976378,
                    "duration": 0.3550299999999993
                },
                {
                    "name": "C4",
                    "midi": 60,
                    "time": 24.674584999999965,
                    "velocity": 0.33070866141732286,
                    "duration": 0.17751499999999965
                },
                {
                    "name": "B3",
                    "midi": 59,
                    "time": 24.852099999999965,
                    "velocity": 0.3228346456692913,
                    "duration": 0.17751499999999965
                },
                {
                    "name": "A#3",
                    "midi": 58,
                    "time": 25.029614999999964,
                    "velocity": 0.31496062992125984,
                    "duration": 0.17751499999999965
                },
                {
                    "name": "A3",
                    "midi": 57,
                    "time": 25.207129999999964,
                    "velocity": 0.30708661417322836,
                    "duration": 0.17751499999999965
                },
                {
                    "name": "G#3",
                    "midi": 56,
                    "time": 25.384644999999963,
                    "velocity": 0.30708661417322836,
                    "duration": 0.17751499999999965
                },
                {
                    "name": "G5",
                    "midi": 79,
                    "time": 25.739674999999963,
                    "velocity": 0.3858267716535433,
                    "duration": 0.17751499999999965
                },
                {
                    "name": "B4",
                    "midi": 71,
                    "time": 25.917189999999962,
                    "velocity": 0.3464566929133858,
                    "duration": 0.3550299999999993
                },
                {
                    "name": "G4",
                    "midi": 67,
                    "time": 25.917189999999962,
                    "velocity": 0.3464566929133858,
                    "duration": 0.3550299999999993
                },
                {
                    "name": "G5",
                    "midi": 79,
                    "time": 25.917189999999962,
                    "velocity": 0.3858267716535433,
                    "duration": 0.17751499999999965
                },
                {
                    "name": "A4",
                    "midi": 69,
                    "time": 26.27221999999996,
                    "velocity": 0.3543307086614173,
                    "duration": 0.3550299999999993
                },
                {
                    "name": "G5",
                    "midi": 79,
                    "time": 26.27221999999996,
                    "velocity": 0.3937007874015748,
                    "duration": 0.3550299999999993
                },
                {
                    "name": "C5",
                    "midi": 72,
                    "time": 26.27221999999996,
                    "velocity": 0.3543307086614173,
                    "duration": 0.3550299999999993
                },
                {
                    "name": "G5",
                    "midi": 79,
                    "time": 26.80476499999996,
                    "velocity": 0.3858267716535433,
                    "duration": 0.17751499999999965
                },
                {
                    "name": "G5",
                    "midi": 79,
                    "time": 26.98227999999996,
                    "velocity": 0.3858267716535433,
                    "duration": 0.17751499999999965
                },
                {
                    "name": "G4",
                    "midi": 67,
                    "time": 26.98227999999996,
                    "velocity": 0.3464566929133858,
                    "duration": 0.3550299999999993
                },
                {
                    "name": "B4",
                    "midi": 71,
                    "time": 26.98227999999996,
                    "velocity": 0.3464566929133858,
                    "duration": 0.3550299999999993
                },
                {
                    "name": "A4",
                    "midi": 69,
                    "time": 27.33730999999996,
                    "velocity": 0.3543307086614173,
                    "duration": 0.3550299999999993
                },
                {
                    "name": "C5",
                    "midi": 72,
                    "time": 27.33730999999996,
                    "velocity": 0.3543307086614173,
                    "duration": 0.3550299999999993
                },
                {
                    "name": "G5",
                    "midi": 79,
                    "time": 27.33730999999996,
                    "velocity": 0.3937007874015748,
                    "duration": 0.3550299999999993
                },
                {
                    "name": "A4",
                    "midi": 69,
                    "time": 28.047369999999958,
                    "velocity": 0.3464566929133858,
                    "duration": 0.17751499999999965
                },
                {
                    "name": "C5",
                    "midi": 72,
                    "time": 28.047369999999958,
                    "velocity": 0.3464566929133858,
                    "duration": 0.17751499999999965
                },
                {
                    "name": "G5",
                    "midi": 79,
                    "time": 28.047369999999958,
                    "velocity": 0.3858267716535433,
                    "duration": 0.3550299999999993
                },
                {
                    "name": "E5",
                    "midi": 76,
                    "time": 28.224884999999958,
                    "velocity": 0.31496062992125984,
                    "duration": 0.17751499999999965
                },
                {
                    "name": "D5",
                    "midi": 74,
                    "time": 28.402399999999957,
                    "velocity": 0.3543307086614173,
                    "duration": 0.17751499999999965
                },
                {
                    "name": "G5",
                    "midi": 79,
                    "time": 28.402399999999957,
                    "velocity": 0.3937007874015748,
                    "duration": 0.3550299999999993
                },
                {
                    "name": "C5",
                    "midi": 72,
                    "time": 28.579914999999957,
                    "velocity": 0.3464566929133858,
                    "duration": 0.17751499999999965
                },
                {
                    "name": "G5",
                    "midi": 79,
                    "time": 28.757429999999957,
                    "velocity": 0.4094488188976378,
                    "duration": 0.3550299999999993
                },
                {
                    "name": "B4",
                    "midi": 71,
                    "time": 28.757429999999957,
                    "velocity": 0.3700787401574803,
                    "duration": 0.17751499999999965
                },
                {
                    "name": "C5",
                    "midi": 72,
                    "time": 28.934944999999956,
                    "velocity": 0.33070866141732286,
                    "duration": 0.17751499999999965
                },
                {
                    "name": "B4",
                    "midi": 71,
                    "time": 29.112459999999956,
                    "velocity": 0.3228346456692913,
                    "duration": 0.17751499999999965
                },
                {
                    "name": "A#4",
                    "midi": 70,
                    "time": 29.289974999999956,
                    "velocity": 0.31496062992125984,
                    "duration": 0.17751499999999965
                },
                {
                    "name": "A4",
                    "midi": 69,
                    "time": 29.467489999999955,
                    "velocity": 0.30708661417322836,
                    "duration": 0.17751499999999965
                },
                {
                    "name": "G#4",
                    "midi": 68,
                    "time": 29.645004999999955,
                    "velocity": 0.30708661417322836,
                    "duration": 0.17751499999999965
                },
                {
                    "name": "G4",
                    "midi": 67,
                    "time": 30.000034999999954,
                    "velocity": 0.3858267716535433,
                    "duration": 0.17751499999999965
                },
                {
                    "name": "G3",
                    "midi": 55,
                    "time": 30.177549999999954,
                    "velocity": 0.3464566929133858,
                    "duration": 0.3550299999999993
                },
                {
                    "name": "G4",
                    "midi": 67,
                    "time": 30.177549999999954,
                    "velocity": 0.3858267716535433,
                    "duration": 0.17751499999999965
                },
                {
                    "name": "B3",
                    "midi": 59,
                    "time": 30.177549999999954,
                    "velocity": 0.3464566929133858,
                    "duration": 0.3550299999999993
                },
                {
                    "name": "A3",
                    "midi": 57,
                    "time": 30.532579999999953,
                    "velocity": 0.3543307086614173,
                    "duration": 0.3550299999999993
                },
                {
                    "name": "G4",
                    "midi": 67,
                    "time": 30.532579999999953,
                    "velocity": 0.3937007874015748,
                    "duration": 0.3550299999999993
                },
                {
                    "name": "C4",
                    "midi": 60,
                    "time": 30.532579999999953,
                    "velocity": 0.3543307086614173,
                    "duration": 0.3550299999999993
                },
                {
                    "name": "G4",
                    "midi": 67,
                    "time": 31.065124999999952,
                    "velocity": 0.3858267716535433,
                    "duration": 0.17751499999999965
                },
                {
                    "name": "B3",
                    "midi": 59,
                    "time": 31.242639999999952,
                    "velocity": 0.3464566929133858,
                    "duration": 0.3550299999999993
                },
                {
                    "name": "G3",
                    "midi": 55,
                    "time": 31.242639999999952,
                    "velocity": 0.3464566929133858,
                    "duration": 0.3550299999999993
                },
                {
                    "name": "G4",
                    "midi": 67,
                    "time": 31.242639999999952,
                    "velocity": 0.3858267716535433,
                    "duration": 0.17751499999999965
                },
                {
                    "name": "G4",
                    "midi": 67,
                    "time": 31.59766999999995,
                    "velocity": 0.3937007874015748,
                    "duration": 0.3550299999999993
                },
                {
                    "name": "C4",
                    "midi": 60,
                    "time": 31.59766999999995,
                    "velocity": 0.3543307086614173,
                    "duration": 0.3550299999999993
                },
                {
                    "name": "A3",
                    "midi": 57,
                    "time": 31.59766999999995,
                    "velocity": 0.3543307086614173,
                    "duration": 0.3550299999999993
                },
                {
                    "name": "A3",
                    "midi": 57,
                    "time": 32.30772999999995,
                    "velocity": 0.3464566929133858,
                    "duration": 0.17751499999999965
                },
                {
                    "name": "G4",
                    "midi": 67,
                    "time": 32.30772999999995,
                    "velocity": 0.3858267716535433,
                    "duration": 0.3550299999999993
                },
                {
                    "name": "C4",
                    "midi": 60,
                    "time": 32.30772999999995,
                    "velocity": 0.3464566929133858,
                    "duration": 0.17751499999999965
                },
                {
                    "name": "E4",
                    "midi": 64,
                    "time": 32.48524499999995,
                    "velocity": 0.31496062992125984,
                    "duration": 0.17751499999999965
                },
                {
                    "name": "G4",
                    "midi": 67,
                    "time": 32.66275999999995,
                    "velocity": 0.3937007874015748,
                    "duration": 0.3550299999999993
                },
                {
                    "name": "D4",
                    "midi": 62,
                    "time": 32.66275999999995,
                    "velocity": 0.3543307086614173,
                    "duration": 0.17751499999999965
                },
                {
                    "name": "C4",
                    "midi": 60,
                    "time": 32.84027499999995,
                    "velocity": 0.3464566929133858,
                    "duration": 0.17751499999999965
                },
                {
                    "name": "B3",
                    "midi": 59,
                    "time": 33.01778999999995,
                    "velocity": 0.3700787401574803,
                    "duration": 0.17751499999999965
                },
                {
                    "name": "G4",
                    "midi": 67,
                    "time": 33.01778999999995,
                    "velocity": 0.4094488188976378,
                    "duration": 0.3550299999999993
                },
                {
                    "name": "C4",
                    "midi": 60,
                    "time": 33.19530499999995,
                    "velocity": 0.33070866141732286,
                    "duration": 0.17751499999999965
                },
                {
                    "name": "B3",
                    "midi": 59,
                    "time": 33.37281999999995,
                    "velocity": 0.3228346456692913,
                    "duration": 0.17751499999999965
                },
                {
                    "name": "A#3",
                    "midi": 58,
                    "time": 33.55033499999995,
                    "velocity": 0.31496062992125984,
                    "duration": 0.17751499999999965
                },
                {
                    "name": "A3",
                    "midi": 57,
                    "time": 33.72784999999995,
                    "velocity": 0.30708661417322836,
                    "duration": 0.17751499999999965
                },
                {
                    "name": "G#3",
                    "midi": 56,
                    "time": 33.90536499999995,
                    "velocity": 0.30708661417322836,
                    "duration": 0.17751499999999965
                },
                {
                    "name": "G5",
                    "midi": 79,
                    "time": 34.260394999999946,
                    "velocity": 0.3858267716535433,
                    "duration": 0.17751499999999965
                },
                {
                    "name": "B4",
                    "midi": 71,
                    "time": 34.437909999999945,
                    "velocity": 0.3464566929133858,
                    "duration": 0.3550299999999993
                },
                {
                    "name": "G5",
                    "midi": 79,
                    "time": 34.437909999999945,
                    "velocity": 0.3858267716535433,
                    "duration": 0.17751499999999965
                },
                {
                    "name": "G4",
                    "midi": 67,
                    "time": 34.437909999999945,
                    "velocity": 0.3464566929133858,
                    "duration": 0.3550299999999993
                },
                {
                    "name": "A4",
                    "midi": 69,
                    "time": 34.792939999999945,
                    "velocity": 0.3543307086614173,
                    "duration": 0.3550299999999993
                },
                {
                    "name": "C5",
                    "midi": 72,
                    "time": 34.792939999999945,
                    "velocity": 0.3543307086614173,
                    "duration": 0.3550299999999993
                },
                {
                    "name": "G5",
                    "midi": 79,
                    "time": 34.792939999999945,
                    "velocity": 0.3937007874015748,
                    "duration": 0.3550299999999993
                },
                {
                    "name": "G5",
                    "midi": 79,
                    "time": 35.325484999999944,
                    "velocity": 0.3858267716535433,
                    "duration": 0.17751499999999965
                },
                {
                    "name": "G4",
                    "midi": 67,
                    "time": 35.50299999999994,
                    "velocity": 0.3464566929133858,
                    "duration": 0.3550299999999993
                },
                {
                    "name": "G5",
                    "midi": 79,
                    "time": 35.50299999999994,
                    "velocity": 0.3858267716535433,
                    "duration": 0.17751499999999965
                },
                {
                    "name": "B4",
                    "midi": 71,
                    "time": 35.50299999999994,
                    "velocity": 0.3464566929133858,
                    "duration": 0.3550299999999993
                },
                {
                    "name": "A4",
                    "midi": 69,
                    "time": 35.85802999999994,
                    "velocity": 0.3543307086614173,
                    "duration": 0.3550299999999993
                },
                {
                    "name": "C5",
                    "midi": 72,
                    "time": 35.85802999999994,
                    "velocity": 0.3543307086614173,
                    "duration": 0.3550299999999993
                },
                {
                    "name": "G5",
                    "midi": 79,
                    "time": 35.85802999999994,
                    "velocity": 0.3937007874015748,
                    "duration": 0.3550299999999993
                },
                {
                    "name": "A4",
                    "midi": 69,
                    "time": 36.56808999999994,
                    "velocity": 0.4330708661417323,
                    "duration": 0.17751499999999965
                },
                {
                    "name": "C5",
                    "midi": 72,
                    "time": 36.56808999999994,
                    "velocity": 0.4330708661417323,
                    "duration": 0.17751499999999965
                },
                {
                    "name": "G5",
                    "midi": 79,
                    "time": 36.56808999999994,
                    "velocity": 0.4330708661417323,
                    "duration": 0.7100599999999986
                },
                {
                    "name": "E5",
                    "midi": 76,
                    "time": 36.74560499999994,
                    "velocity": 0.4094488188976378,
                    "duration": 0.17751499999999965
                },
                {
                    "name": "D5",
                    "midi": 74,
                    "time": 36.92311999999994,
                    "velocity": 0.4645669291338583,
                    "duration": 0.17751499999999965
                },
                {
                    "name": "C5",
                    "midi": 72,
                    "time": 37.10063499999994,
                    "velocity": 0.4330708661417323,
                    "duration": 0.17751499999999965
                },
                {
                    "name": "G5",
                    "midi": 79,
                    "time": 37.27814999999994,
                    "velocity": 0.5590551181102362,
                    "duration": 1.0650899999999979
                },
                {
                    "name": "B4",
                    "midi": 71,
                    "time": 37.27814999999994,
                    "velocity": 0.5590551181102362,
                    "duration": 0.17751499999999965
                },
                {
                    "name": "E5",
                    "midi": 76,
                    "time": 37.45566499999994,
                    "velocity": 0.4881889763779528,
                    "duration": 0.17751499999999965
                },
                {
                    "name": "D5",
                    "midi": 74,
                    "time": 37.63317999999994,
                    "velocity": 0.5433070866141733,
                    "duration": 0.17751499999999965
                },
                {
                    "name": "C5",
                    "midi": 72,
                    "time": 37.81069499999994,
                    "velocity": 0.48031496062992124,
                    "duration": 0.17751499999999965
                },
                {
                    "name": "B4",
                    "midi": 71,
                    "time": 37.98820999999994,
                    "velocity": 0.5039370078740157,
                    "duration": 0.5325449999999989
                },
                {
                    "name": "D5",
                    "midi": 74,
                    "time": 38.52075499999994,
                    "velocity": 0.4566929133858268,
                    "duration": 0.17751499999999965
                },
                {
                    "name": "C5",
                    "midi": 72,
                    "time": 38.69826999999994,
                    "velocity": 0.48031496062992124,
                    "duration": 0.17751499999999965
                },
                {
                    "name": "B4",
                    "midi": 71,
                    "time": 38.87578499999994,
                    "velocity": 0.4409448818897638,
                    "duration": 0.17751499999999965
                },
                {
                    "name": "A4",
                    "midi": 69,
                    "time": 39.053299999999936,
                    "velocity": 0.4645669291338583,
                    "duration": 0.5325449999999989
                },
                {
                    "name": "C5",
                    "midi": 72,
                    "time": 39.585844999999935,
                    "velocity": 0.3779527559055118,
                    "duration": 0.17751499999999965
                },
                {
                    "name": "B4",
                    "midi": 71,
                    "time": 39.763359999999935,
                    "velocity": 0.41732283464566927,
                    "duration": 0.17751499999999965
                },
                {
                    "name": "A4",
                    "midi": 69,
                    "time": 39.940874999999934,
                    "velocity": 0.3937007874015748,
                    "duration": 0.17751499999999965
                },
                {
                    "name": "G4",
                    "midi": 67,
                    "time": 40.118389999999934,
                    "velocity": 0.3464566929133858,
                    "duration": 0.3550299999999993
                },
                {
                    "name": "G4",
                    "midi": 67,
                    "time": 40.82844999999993,
                    "velocity": 0.3700787401574803,
                    "duration": 0.7100599999999986
                },
                {
                    "name": "G4",
                    "midi": 67,
                    "time": 41.89353999999993,
                    "velocity": 0.41732283464566927,
                    "duration": 0.7100599999999986
                },
                {
                    "name": "G4",
                    "midi": 67,
                    "time": 42.95862999999993,
                    "velocity": 0.4566929133858268,
                    "duration": 0.7100599999999986
                },
                {
                    "name": "G4",
                    "midi": 67,
                    "time": 43.66868999999993,
                    "velocity": 0.49606299212598426,
                    "duration": 0.7100599999999986
                },
                {
                    "name": "G4",
                    "midi": 67,
                    "time": 44.378749999999926,
                    "velocity": 0.5275590551181102,
                    "duration": 0.6656812499999987
                },
                {
                    "name": "B4",
                    "midi": 71,
                    "time": 45.044431249999924,
                    "velocity": 0.5433070866141733,
                    "duration": 0.7544387499999985
                },
                {
                    "name": "F4",
                    "midi": 65,
                    "time": 45.044431249999924,
                    "velocity": 0.48031496062992124,
                    "duration": 0.7544387499999985
                },
                {
                    "name": "E5",
                    "midi": 76,
                    "time": 45.088809999999924,
                    "velocity": 0.6141732283464567,
                    "duration": 0.5325449999999989
                },
                {
                    "name": "D5",
                    "midi": 74,
                    "time": 45.62135499999992,
                    "velocity": 0.5826771653543307,
                    "duration": 0.13313624999999973
                },
                {
                    "name": "C5",
                    "midi": 72,
                    "time": 45.75449124999992,
                    "velocity": 0.5039370078740157,
                    "duration": 0.04437874999999991
                },
                {
                    "name": "E5",
                    "midi": 76,
                    "time": 45.79886999999992,
                    "velocity": 0.6220472440944882,
                    "duration": 0.17751499999999965
                },
                {
                    "name": "E4",
                    "midi": 64,
                    "time": 45.79886999999992,
                    "velocity": 0.5511811023622047,
                    "duration": 0.17751499999999965
                },
                {
                    "name": "B4",
                    "midi": 71,
                    "time": 46.06514249999992,
                    "velocity": 0.5748031496062992,
                    "duration": 0.06656812500000342
                },
                {
                    "name": "E4",
                    "midi": 64,
                    "time": 46.15389999999993,
                    "velocity": 0.5196850393700787,
                    "duration": 0.17751499999999965
                },
                {
                    "name": "C5",
                    "midi": 72,
                    "time": 46.15389999999993,
                    "velocity": 0.6220472440944882,
                    "duration": 0.17751499999999965
                },
                {
                    "name": "D5",
                    "midi": 74,
                    "time": 46.42017249999993,
                    "velocity": 0.5433070866141733,
                    "duration": 0.06656812500000342
                },
                {
                    "name": "E5",
                    "midi": 76,
                    "time": 46.508929999999935,
                    "velocity": 0.6377952755905512,
                    "duration": 0.3106512499999994
                },
                {
                    "name": "E4",
                    "midi": 64,
                    "time": 46.508929999999935,
                    "velocity": 0.5748031496062992,
                    "duration": 0.3106512499999994
                },
                {
                    "name": "C5",
                    "midi": 72,
                    "time": 46.819581249999935,
                    "velocity": 0.4330708661417323,
                    "duration": 0.22189374999999956
                },
                {
                    "name": "E5",
                    "midi": 76,
                    "time": 46.863959999999935,
                    "velocity": 0.4645669291338583,
                    "duration": 0.17751499999999965
                },
                {
                    "name": "F#5",
                    "midi": 78,
                    "time": 47.130232499999934,
                    "velocity": 0.41732283464566927,
                    "duration": 0.06656812500000342
                },
                {
                    "name": "G5",
                    "midi": 79,
                    "time": 47.21898999999994,
                    "velocity": 0.4645669291338583,
                    "duration": 0.08875749999999982
                },
                {
                    "name": "C5",
                    "midi": 72,
                    "time": 47.21898999999994,
                    "velocity": 0.4094488188976378,
                    "duration": 0.08875749999999982
                },
                {
                    "name": "A5",
                    "midi": 81,
                    "time": 47.57401999999994,
                    "velocity": 0.48031496062992124,
                    "duration": 0.08875749999999982
                },
                {
                    "name": "C5",
                    "midi": 72,
                    "time": 47.57401999999994,
                    "velocity": 0.4330708661417323,
                    "duration": 0.08875749999999982
                },
                {
                    "name": "G5",
                    "midi": 79,
                    "time": 47.88467124999994,
                    "velocity": 0.44881889763779526,
                    "duration": 0.04437874999999991
                },
                {
                    "name": "B4",
                    "midi": 71,
                    "time": 47.92904999999994,
                    "velocity": 0.4566929133858268,
                    "duration": 0.7100599999999986
                },
                {
                    "name": "B5",
                    "midi": 83,
                    "time": 47.92904999999994,
                    "velocity": 0.5039370078740157,
                    "duration": 0.7100599999999986
                },
                {
                    "name": "G5",
                    "midi": 79,
                    "time": 48.63910999999994,
                    "velocity": 0.47244094488188976,
                    "duration": 0.3106512499999994
                },
                {
                    "name": "B4",
                    "midi": 71,
                    "time": 48.63910999999994,
                    "velocity": 0.41732283464566927,
                    "duration": 0.3106512499999994
                },
                {
                    "name": "F5",
                    "midi": 77,
                    "time": 48.94976124999994,
                    "velocity": 0.48031496062992124,
                    "duration": 0.04437874999999991
                },
                {
                    "name": "A5",
                    "midi": 81,
                    "time": 48.99413999999994,
                    "velocity": 0.5748031496062992,
                    "duration": 0.17751499999999965
                },
                {
                    "name": "B5",
                    "midi": 83,
                    "time": 49.17165499999994,
                    "velocity": 0.5511811023622047,
                    "duration": 0.17751499999999965
                },
                {
                    "name": "C6",
                    "midi": 84,
                    "time": 49.34916999999994,
                    "velocity": 0.5905511811023622,
                    "duration": 0.11834333333333547
                },
                {
                    "name": "F5",
                    "midi": 77,
                    "time": 49.34916999999994,
                    "velocity": 0.5275590551181102,
                    "duration": 0.7100600000000057
                },
                {
                    "name": "D6",
                    "midi": 86,
                    "time": 49.46751333333327,
                    "velocity": 0.5275590551181102,
                    "duration": 0.11834333333333547
                },
                {
                    "name": "C6",
                    "midi": 84,
                    "time": 49.58585666666661,
                    "velocity": 0.5275590551181102,
                    "duration": 0.11834333333333547
                },
                {
                    "name": "B5",
                    "midi": 83,
                    "time": 49.70419999999994,
                    "velocity": 0.5669291338582677,
                    "duration": 0.17751499999999965
                },
                {
                    "name": "A5",
                    "midi": 81,
                    "time": 49.88171499999994,
                    "velocity": 0.49606299212598426,
                    "duration": 0.17751499999999965
                },
                {
                    "name": "G5",
                    "midi": 79,
                    "time": 50.05922999999994,
                    "velocity": 0.5905511811023622,
                    "duration": 0.26627249999999947
                },
                {
                    "name": "E5",
                    "midi": 76,
                    "time": 50.05922999999994,
                    "velocity": 0.5275590551181102,
                    "duration": 0.26627249999999947
                },
                {
                    "name": "E5",
                    "midi": 76,
                    "time": 50.32550249999994,
                    "velocity": 0.4645669291338583,
                    "duration": 0.06656812500000342
                },
                {
                    "name": "G5",
                    "midi": 79,
                    "time": 50.32550249999994,
                    "velocity": 0.5196850393700787,
                    "duration": 0.06656812500000342
                },
                {
                    "name": "F5",
                    "midi": 77,
                    "time": 50.41425999999995,
                    "velocity": 0.5275590551181102,
                    "duration": 0.3550299999999993
                },
                {
                    "name": "D5",
                    "midi": 74,
                    "time": 50.41425999999995,
                    "velocity": 0.47244094488188976,
                    "duration": 0.3550299999999993
                },
                {
                    "name": "C5",
                    "midi": 72,
                    "time": 50.76928999999995,
                    "velocity": 0.4409448818897638,
                    "duration": 0.3550299999999993
                },
                {
                    "name": "E5",
                    "midi": 76,
                    "time": 50.76928999999995,
                    "velocity": 0.4881889763779528,
                    "duration": 0.3550299999999993
                },
                {
                    "name": "B4",
                    "midi": 71,
                    "time": 51.12431999999995,
                    "velocity": 0.4645669291338583,
                    "duration": 0.26627249999999947
                },
                {
                    "name": "D5",
                    "midi": 74,
                    "time": 51.12431999999995,
                    "velocity": 0.5196850393700787,
                    "duration": 0.26627249999999947
                },
                {
                    "name": "B4",
                    "midi": 71,
                    "time": 51.39059249999995,
                    "velocity": 0.41732283464566927,
                    "duration": 0.06656812500000342
                },
                {
                    "name": "D5",
                    "midi": 74,
                    "time": 51.39059249999995,
                    "velocity": 0.47244094488188976,
                    "duration": 0.06656812500000342
                },
                {
                    "name": "G5",
                    "midi": 79,
                    "time": 51.479349999999954,
                    "velocity": 0.5039370078740157,
                    "duration": 0.7100599999999986
                },
                {
                    "name": "A4",
                    "midi": 69,
                    "time": 51.83437999999995,
                    "velocity": 0.3937007874015748,
                    "duration": 0.3550299999999993
                },
                {
                    "name": "E5",
                    "midi": 76,
                    "time": 51.83437999999995,
                    "velocity": 0.4409448818897638,
                    "duration": 0.3550299999999993
                },
                {
                    "name": "C5",
                    "midi": 72,
                    "time": 51.83437999999995,
                    "velocity": 0.3937007874015748,
                    "duration": 0.3550299999999993
                },
                {
                    "name": "C5",
                    "midi": 72,
                    "time": 52.18940999999995,
                    "velocity": 0.47244094488188976,
                    "duration": 0.26627249999999947
                },
                {
                    "name": "A4",
                    "midi": 69,
                    "time": 52.18940999999995,
                    "velocity": 0.41732283464566927,
                    "duration": 0.26627249999999947
                },
                {
                    "name": "C5",
                    "midi": 72,
                    "time": 52.45568249999995,
                    "velocity": 0.44881889763779526,
                    "duration": 0.06656812500000342
                },
                {
                    "name": "A4",
                    "midi": 69,
                    "time": 52.45568249999995,
                    "velocity": 0.4015748031496063,
                    "duration": 0.06656812500000342
                },
                {
                    "name": "G5",
                    "midi": 79,
                    "time": 52.54443999999996,
                    "velocity": 0.48031496062992124,
                    "duration": 0.7100599999999986
                },
                {
                    "name": "B4",
                    "midi": 71,
                    "time": 52.89946999999996,
                    "velocity": 0.3779527559055118,
                    "duration": 0.3550299999999993
                },
                {
                    "name": "D5",
                    "midi": 74,
                    "time": 52.89946999999996,
                    "velocity": 0.41732283464566927,
                    "duration": 0.3550299999999993
                },
                {
                    "name": "B4",
                    "midi": 71,
                    "time": 53.56515124999996,
                    "velocity": 0.5433070866141733,
                    "duration": 0.7544387499999985
                },
                {
                    "name": "F4",
                    "midi": 65,
                    "time": 53.56515124999996,
                    "velocity": 0.4881889763779528,
                    "duration": 0.7544387499999985
                },
                {
                    "name": "E5",
                    "midi": 76,
                    "time": 53.60952999999996,
                    "velocity": 0.6141732283464567,
                    "duration": 0.5325449999999989
                },
                {
                    "name": "D5",
                    "midi": 74,
                    "time": 54.142074999999956,
                    "velocity": 0.5826771653543307,
                    "duration": 0.13313624999999973
                },
                {
                    "name": "C5",
                    "midi": 72,
                    "time": 54.275211249999955,
                    "velocity": 0.5039370078740157,
                    "duration": 0.04437874999999991
                },
                {
                    "name": "E5",
                    "midi": 76,
                    "time": 54.319589999999955,
                    "velocity": 0.6220472440944882,
                    "duration": 0.17751499999999965
                },
                {
                    "name": "E4",
                    "midi": 64,
                    "time": 54.319589999999955,
                    "velocity": 0.5511811023622047,
                    "duration": 0.17751499999999965
                },
                {
                    "name": "B4",
                    "midi": 71,
                    "time": 54.585862499999955,
                    "velocity": 0.5748031496062992,
                    "duration": 0.06656812500000342
                },
                {
                    "name": "E4",
                    "midi": 64,
                    "time": 54.67461999999996,
                    "velocity": 0.5275590551181102,
                    "duration": 0.17751499999999965
                },
                {
                    "name": "C5",
                    "midi": 72,
                    "time": 54.67461999999996,
                    "velocity": 0.6220472440944882,
                    "duration": 0.17751499999999965
                },
                {
                    "name": "D5",
                    "midi": 74,
                    "time": 54.94089249999996,
                    "velocity": 0.5433070866141733,
                    "duration": 0.06656812500000342
                },
                {
                    "name": "E5",
                    "midi": 76,
                    "time": 55.02964999999997,
                    "velocity": 0.6377952755905512,
                    "duration": 0.3106512499999994
                },
                {
                    "name": "E4",
                    "midi": 64,
                    "time": 55.02964999999997,
                    "velocity": 0.5748031496062992,
                    "duration": 0.3106512499999994
                },
                {
                    "name": "C5",
                    "midi": 72,
                    "time": 55.34030124999997,
                    "velocity": 0.4094488188976378,
                    "duration": 0.22189374999999956
                },
                {
                    "name": "E5",
                    "midi": 76,
                    "time": 55.38467999999997,
                    "velocity": 0.4645669291338583,
                    "duration": 0.17751499999999965
                },
                {
                    "name": "F#5",
                    "midi": 78,
                    "time": 55.65095249999997,
                    "velocity": 0.41732283464566927,
                    "duration": 0.06656812500000342
                },
                {
                    "name": "G5",
                    "midi": 79,
                    "time": 55.739709999999974,
                    "velocity": 0.4645669291338583,
                    "duration": 0.08875749999999982
                },
                {
                    "name": "C5",
                    "midi": 72,
                    "time": 55.739709999999974,
                    "velocity": 0.4094488188976378,
                    "duration": 0.08875749999999982
                },
                {
                    "name": "C5",
                    "midi": 72,
                    "time": 56.09473999999997,
                    "velocity": 0.4330708661417323,
                    "duration": 0.08875749999999982
                },
                {
                    "name": "A5",
                    "midi": 81,
                    "time": 56.09473999999997,
                    "velocity": 0.48031496062992124,
                    "duration": 0.08875749999999982
                },
                {
                    "name": "G5",
                    "midi": 79,
                    "time": 56.40539124999997,
                    "velocity": 0.4645669291338583,
                    "duration": 0.04437874999999991
                },
                {
                    "name": "B5",
                    "midi": 83,
                    "time": 56.44976999999997,
                    "velocity": 0.5039370078740157,
                    "duration": 0.7100599999999986
                },
                {
                    "name": "B4",
                    "midi": 71,
                    "time": 56.44976999999997,
                    "velocity": 0.4566929133858268,
                    "duration": 0.7100599999999986
                },
                {
                    "name": "B4",
                    "midi": 71,
                    "time": 57.15982999999997,
                    "velocity": 0.41732283464566927,
                    "duration": 0.3106512499999994
                },
                {
                    "name": "G5",
                    "midi": 79,
                    "time": 57.15982999999997,
                    "velocity": 0.47244094488188976,
                    "duration": 0.3106512499999994
                },
                {
                    "name": "F5",
                    "midi": 77,
                    "time": 57.47048124999997,
                    "velocity": 0.5196850393700787,
                    "duration": 0.04437874999999991
                },
                {
                    "name": "A5",
                    "midi": 81,
                    "time": 57.51485999999997,
                    "velocity": 0.5748031496062992,
                    "duration": 0.17751499999999965
                },
                {
                    "name": "B5",
                    "midi": 83,
                    "time": 57.69237499999997,
                    "velocity": 0.5511811023622047,
                    "duration": 0.17751499999999965
                },
                {
                    "name": "C6",
                    "midi": 84,
                    "time": 57.86988999999997,
                    "velocity": 0.5905511811023622,
                    "duration": 0.11834333333333547
                },
                {
                    "name": "F5",
                    "midi": 77,
                    "time": 57.86988999999997,
                    "velocity": 0.5275590551181102,
                    "duration": 0.7100600000000057
                },
                {
                    "name": "D6",
                    "midi": 86,
                    "time": 57.988233333333305,
                    "velocity": 0.5275590551181102,
                    "duration": 0.11834333333333547
                },
                {
                    "name": "C6",
                    "midi": 84,
                    "time": 58.10657666666664,
                    "velocity": 0.5275590551181102,
                    "duration": 0.11834333333333547
                },
                {
                    "name": "B5",
                    "midi": 83,
                    "time": 58.224919999999976,
                    "velocity": 0.5669291338582677,
                    "duration": 0.17751499999999965
                },
                {
                    "name": "A5",
                    "midi": 81,
                    "time": 58.402434999999976,
                    "velocity": 0.49606299212598426,
                    "duration": 0.17751499999999965
                },
                {
                    "name": "E5",
                    "midi": 76,
                    "time": 58.579949999999975,
                    "velocity": 0.5275590551181102,
                    "duration": 0.26627249999999947
                },
                {
                    "name": "G5",
                    "midi": 79,
                    "time": 58.579949999999975,
                    "velocity": 0.5905511811023622,
                    "duration": 0.26627249999999947
                },
                {
                    "name": "G5",
                    "midi": 79,
                    "time": 58.846222499999975,
                    "velocity": 0.5196850393700787,
                    "duration": 0.06656812500000342
                },
                {
                    "name": "E5",
                    "midi": 76,
                    "time": 58.846222499999975,
                    "velocity": 0.4645669291338583,
                    "duration": 0.06656812500000342
                },
                {
                    "name": "F5",
                    "midi": 77,
                    "time": 58.93497999999998,
                    "velocity": 0.5275590551181102,
                    "duration": 0.3550299999999993
                },
                {
                    "name": "D5",
                    "midi": 74,
                    "time": 58.93497999999998,
                    "velocity": 0.47244094488188976,
                    "duration": 0.3550299999999993
                },
                {
                    "name": "E5",
                    "midi": 76,
                    "time": 59.29000999999998,
                    "velocity": 0.4881889763779528,
                    "duration": 0.3550299999999993
                },
                {
                    "name": "C5",
                    "midi": 72,
                    "time": 59.29000999999998,
                    "velocity": 0.4409448818897638,
                    "duration": 0.3550299999999993
                },
                {
                    "name": "B4",
                    "midi": 71,
                    "time": 59.64503999999998,
                    "velocity": 0.4645669291338583,
                    "duration": 0.26627249999999947
                },
                {
                    "name": "D5",
                    "midi": 74,
                    "time": 59.64503999999998,
                    "velocity": 0.5196850393700787,
                    "duration": 0.26627249999999947
                },
                {
                    "name": "D5",
                    "midi": 74,
                    "time": 59.91131249999998,
                    "velocity": 0.47244094488188976,
                    "duration": 0.06656812500000342
                },
                {
                    "name": "B4",
                    "midi": 71,
                    "time": 59.91131249999998,
                    "velocity": 0.41732283464566927,
                    "duration": 0.06656812500000342
                },
                {
                    "name": "G5",
                    "midi": 79,
                    "time": 60.00006999999999,
                    "velocity": 0.5039370078740157,
                    "duration": 0.7100599999999986
                },
                {
                    "name": "E5",
                    "midi": 76,
                    "time": 60.355099999999986,
                    "velocity": 0.4409448818897638,
                    "duration": 0.3550299999999993
                },
                {
                    "name": "A4",
                    "midi": 69,
                    "time": 60.355099999999986,
                    "velocity": 0.3937007874015748,
                    "duration": 0.3550299999999993
                },
                {
                    "name": "C5",
                    "midi": 72,
                    "time": 60.355099999999986,
                    "velocity": 0.3937007874015748,
                    "duration": 0.3550299999999993
                },
                {
                    "name": "F4",
                    "midi": 65,
                    "time": 60.710129999999985,
                    "velocity": 0.4015748031496063,
                    "duration": 0.7100599999999986
                },
                {
                    "name": "D5",
                    "midi": 74,
                    "time": 60.710129999999985,
                    "velocity": 0.44881889763779526,
                    "duration": 0.3550299999999993
                },
                {
                    "name": "B4",
                    "midi": 71,
                    "time": 60.710129999999985,
                    "velocity": 0.4015748031496063,
                    "duration": 0.7100599999999986
                },
                {
                    "name": "E5",
                    "midi": 76,
                    "time": 61.065159999999985,
                    "velocity": 0.44881889763779526,
                    "duration": 0.17751499999999965
                },
                {
                    "name": "D5",
                    "midi": 74,
                    "time": 61.242674999999984,
                    "velocity": 0.4330708661417323,
                    "duration": 0.17751499999999965
                },
                {
                    "name": "E4",
                    "midi": 64,
                    "time": 61.420189999999984,
                    "velocity": 0.3779527559055118,
                    "duration": 0.3550299999999993
                },
                {
                    "name": "C5",
                    "midi": 72,
                    "time": 61.420189999999984,
                    "velocity": 0.41732283464566927,
                    "duration": 0.3550299999999993
                },
                {
                    "name": "D#4",
                    "midi": 63,
                    "time": 62.13024999999998,
                    "velocity": 0.4330708661417323,
                    "duration": 0.7100599999999986
                },
                {
                    "name": "D4",
                    "midi": 62,
                    "time": 62.48527999999998,
                    "velocity": 0.30708661417322836,
                    "duration": 0.3550299999999993
                },
                {
                    "name": "D#4",
                    "midi": 63,
                    "time": 63.19533999999998,
                    "velocity": 0.4330708661417323,
                    "duration": 0.7100599999999986
                },
                {
                    "name": "D4",
                    "midi": 62,
                    "time": 63.55036999999998,
                    "velocity": 0.31496062992125984,
                    "duration": 0.3550299999999993
                },
                {
                    "name": "D#4",
                    "midi": 63,
                    "time": 64.26042999999999,
                    "velocity": 0.4094488188976378,
                    "duration": 0.7100599999999986
                },
                {
                    "name": "D4",
                    "midi": 62,
                    "time": 64.61545999999998,
                    "velocity": 0.31496062992125984,
                    "duration": 0.3550299999999993
                },
                {
                    "name": "F4",
                    "midi": 65,
                    "time": 65.32551999999998,
                    "velocity": 0.4330708661417323,
                    "duration": 0.3550299999999993
                },
                {
                    "name": "D#4",
                    "midi": 63,
                    "time": 65.32551999999998,
                    "velocity": 0.36220472440944884,
                    "duration": 1.0650899999999979
                },
                {
                    "name": "G4",
                    "midi": 67,
                    "time": 65.68054999999998,
                    "velocity": 0.4330708661417323,
                    "duration": 0.17751499999999965
                },
                {
                    "name": "G#4",
                    "midi": 68,
                    "time": 65.85806499999998,
                    "velocity": 0.41732283464566927,
                    "duration": 0.17751499999999965
                },
                {
                    "name": "A#4",
                    "midi": 70,
                    "time": 66.03557999999998,
                    "velocity": 0.44881889763779526,
                    "duration": 0.17751499999999965
                },
                {
                    "name": "C5",
                    "midi": 72,
                    "time": 66.21309499999998,
                    "velocity": 0.44881889763779526,
                    "duration": 0.17751499999999965
                },
                {
                    "name": "A#4",
                    "midi": 70,
                    "time": 66.39060999999998,
                    "velocity": 0.47244094488188976,
                    "duration": 0.3550299999999993
                },
                {
                    "name": "D#4",
                    "midi": 63,
                    "time": 66.39060999999998,
                    "velocity": 0.3937007874015748,
                    "duration": 1.0650899999999979
                },
                {
                    "name": "G#4",
                    "midi": 68,
                    "time": 66.74563999999998,
                    "velocity": 0.47244094488188976,
                    "duration": 0.17751499999999965
                },
                {
                    "name": "G4",
                    "midi": 67,
                    "time": 66.92315499999998,
                    "velocity": 0.4645669291338583,
                    "duration": 0.17751499999999965
                },
                {
                    "name": "F4",
                    "midi": 65,
                    "time": 67.10066999999998,
                    "velocity": 0.4409448818897638,
                    "duration": 0.17751499999999965
                },
                {
                    "name": "G4",
                    "midi": 67,
                    "time": 67.27818499999998,
                    "velocity": 0.44881889763779526,
                    "duration": 0.17751499999999965
                },
                {
                    "name": "G#4",
                    "midi": 68,
                    "time": 67.45569999999998,
                    "velocity": 0.4409448818897638,
                    "duration": 0.3550299999999993
                },
                {
                    "name": "D#4",
                    "midi": 63,
                    "time": 67.45569999999998,
                    "velocity": 0.3700787401574803,
                    "duration": 1.0650899999999979
                },
                {
                    "name": "G4",
                    "midi": 67,
                    "time": 67.81072999999998,
                    "velocity": 0.41732283464566927,
                    "duration": 0.17751499999999965
                },
                {
                    "name": "F4",
                    "midi": 65,
                    "time": 67.98824499999998,
                    "velocity": 0.3937007874015748,
                    "duration": 0.17751499999999965
                },
                {
                    "name": "G4",
                    "midi": 67,
                    "time": 68.16575999999998,
                    "velocity": 0.4330708661417323,
                    "duration": 0.08875749999999982
                },
                {
                    "name": "D#4",
                    "midi": 63,
                    "time": 68.52078999999998,
                    "velocity": 0.3937007874015748,
                    "duration": 0.7100599999999986
                },
                {
                    "name": "F4",
                    "midi": 65,
                    "time": 69.58587999999997,
                    "velocity": 0.4330708661417323,
                    "duration": 0.3550299999999993
                },
                {
                    "name": "D#4",
                    "midi": 63,
                    "time": 69.58587999999997,
                    "velocity": 0.36220472440944884,
                    "duration": 1.0650899999999979
                },
                {
                    "name": "G4",
                    "midi": 67,
                    "time": 69.94090999999997,
                    "velocity": 0.4330708661417323,
                    "duration": 0.17751499999999965
                },
                {
                    "name": "G#4",
                    "midi": 68,
                    "time": 70.11842499999997,
                    "velocity": 0.41732283464566927,
                    "duration": 0.17751499999999965
                },
                {
                    "name": "A#4",
                    "midi": 70,
                    "time": 70.29593999999997,
                    "velocity": 0.44881889763779526,
                    "duration": 0.17751499999999965
                },
                {
                    "name": "C5",
                    "midi": 72,
                    "time": 70.47345499999997,
                    "velocity": 0.44881889763779526,
                    "duration": 0.17751499999999965
                },
                {
                    "name": "A#4",
                    "midi": 70,
                    "time": 70.65096999999997,
                    "velocity": 0.47244094488188976,
                    "duration": 0.26627249999999947
                },
                {
                    "name": "D#4",
                    "midi": 63,
                    "time": 70.65096999999997,
                    "velocity": 0.3937007874015748,
                    "duration": 1.065090000000012
                },
                {
                    "name": "C5",
                    "midi": 72,
                    "time": 70.91724249999997,
                    "velocity": 0.44881889763779526,
                    "duration": 0.04437875000000702
                },
                {
                    "name": "A#4",
                    "midi": 70,
                    "time": 70.96162124999998,
                    "velocity": 0.4094488188976378,
                    "duration": 0.04437875000000702
                },
                {
                    "name": "G#4",
                    "midi": 68,
                    "time": 71.00599999999999,
                    "velocity": 0.47244094488188976,
                    "duration": 0.17751499999999965
                },
                {
                    "name": "G4",
                    "midi": 67,
                    "time": 71.18351499999999,
                    "velocity": 0.4645669291338583,
                    "duration": 0.17751499999999965
                },
                {
                    "name": "F4",
                    "midi": 65,
                    "time": 71.36102999999999,
                    "velocity": 0.4566929133858268,
                    "duration": 0.17751499999999965
                },
                {
                    "name": "G4",
                    "midi": 67,
                    "time": 71.53854499999998,
                    "velocity": 0.44881889763779526,
                    "duration": 0.17751499999999965
                },
                {
                    "name": "G#4",
                    "midi": 68,
                    "time": 71.71605999999998,
                    "velocity": 0.4409448818897638,
                    "duration": 0.26627249999999947
                },
                {
                    "name": "D#4",
                    "midi": 63,
                    "time": 71.71605999999998,
                    "velocity": 0.3700787401574803,
                    "duration": 1.065090000000012
                },
                {
                    "name": "G4",
                    "midi": 67,
                    "time": 71.98233249999998,
                    "velocity": 0.3779527559055118,
                    "duration": 0.04437875000000702
                },
                {
                    "name": "G#4",
                    "midi": 68,
                    "time": 72.02671124999999,
                    "velocity": 0.3543307086614173,
                    "duration": 0.04437875000000702
                },
                {
                    "name": "G4",
                    "midi": 67,
                    "time": 72.07109,
                    "velocity": 0.41732283464566927,
                    "duration": 0.17751499999999965
                },
                {
                    "name": "F4",
                    "midi": 65,
                    "time": 72.248605,
                    "velocity": 0.3937007874015748,
                    "duration": 0.17751499999999965
                },
                {
                    "name": "G4",
                    "midi": 67,
                    "time": 72.42612,
                    "velocity": 0.4330708661417323,
                    "duration": 0.08875749999999982
                },
                {
                    "name": "D#4",
                    "midi": 63,
                    "time": 72.78115,
                    "velocity": 0.3937007874015748,
                    "duration": 0.7100599999999986
                },
                {
                    "name": "F4",
                    "midi": 65,
                    "time": 73.84624,
                    "velocity": 0.5196850393700787,
                    "duration": 0.3550299999999993
                },
                {
                    "name": "D#4",
                    "midi": 63,
                    "time": 73.84624,
                    "velocity": 0.4330708661417323,
                    "duration": 1.0650899999999979
                },
                {
                    "name": "G4",
                    "midi": 67,
                    "time": 74.20127,
                    "velocity": 0.5196850393700787,
                    "duration": 0.17751499999999965
                },
                {
                    "name": "G#4",
                    "midi": 68,
                    "time": 74.378785,
                    "velocity": 0.49606299212598426,
                    "duration": 0.17751499999999965
                },
                {
                    "name": "A#4",
                    "midi": 70,
                    "time": 74.5563,
                    "velocity": 0.5354330708661418,
                    "duration": 0.17751499999999965
                },
                {
                    "name": "C5",
                    "midi": 72,
                    "time": 74.73381499999999,
                    "velocity": 0.5354330708661418,
                    "duration": 0.17751499999999965
                },
                {
                    "name": "A#4",
                    "midi": 70,
                    "time": 74.91132999999999,
                    "velocity": 0.5669291338582677,
                    "duration": 0.3550299999999993
                },
                {
                    "name": "D#4",
                    "midi": 63,
                    "time": 74.91132999999999,
                    "velocity": 0.47244094488188976,
                    "duration": 1.0650899999999979
                },
                {
                    "name": "G#4",
                    "midi": 68,
                    "time": 75.26635999999999,
                    "velocity": 0.5748031496062992,
                    "duration": 0.17751499999999965
                },
                {
                    "name": "G4",
                    "midi": 67,
                    "time": 75.44387499999999,
                    "velocity": 0.5511811023622047,
                    "duration": 0.17751499999999965
                },
                {
                    "name": "F4",
                    "midi": 65,
                    "time": 75.62138999999999,
                    "velocity": 0.5590551181102362,
                    "duration": 0.17751499999999965
                },
                {
                    "name": "G4",
                    "midi": 67,
                    "time": 75.79890499999999,
                    "velocity": 0.5433070866141733,
                    "duration": 0.17751499999999965
                },
                {
                    "name": "G#4",
                    "midi": 68,
                    "time": 75.97641999999999,
                    "velocity": 0.5748031496062992,
                    "duration": 0.26627249999999947
                },
                {
                    "name": "D#4",
                    "midi": 63,
                    "time": 75.97641999999999,
                    "velocity": 0.48031496062992124,
                    "duration": 1.065090000000012
                },
                {
                    "name": "G4",
                    "midi": 67,
                    "time": 76.24269249999999,
                    "velocity": 0.5354330708661418,
                    "duration": 0.04437875000000702
                },
                {
                    "name": "G#4",
                    "midi": 68,
                    "time": 76.28707125,
                    "velocity": 0.5354330708661418,
                    "duration": 0.04437875000000702
                },
                {
                    "name": "G4",
                    "midi": 67,
                    "time": 76.33145,
                    "velocity": 0.6062992125984252,
                    "duration": 0.17751499999999965
                },
                {
                    "name": "F4",
                    "midi": 65,
                    "time": 76.508965,
                    "velocity": 0.5669291338582677,
                    "duration": 0.17751499999999965
                },
                {
                    "name": "G4",
                    "midi": 67,
                    "time": 76.68648,
                    "velocity": 0.6062992125984252,
                    "duration": 0.08875749999999982
                },
                {
                    "name": "D#4",
                    "midi": 63,
                    "time": 77.04151,
                    "velocity": 0.5511811023622047,
                    "duration": 0.7100599999999986
                },
                {
                    "name": "F4",
                    "midi": 65,
                    "time": 78.1066,
                    "velocity": 0.5196850393700787,
                    "duration": 0.3550299999999993
                },
                {
                    "name": "D#4",
                    "midi": 63,
                    "time": 78.1066,
                    "velocity": 0.4330708661417323,
                    "duration": 1.0650899999999979
                },
                {
                    "name": "G4",
                    "midi": 67,
                    "time": 78.46163,
                    "velocity": 0.5196850393700787,
                    "duration": 0.17751499999999965
                },
                {
                    "name": "G#4",
                    "midi": 68,
                    "time": 78.639145,
                    "velocity": 0.49606299212598426,
                    "duration": 0.17751499999999965
                },
                {
                    "name": "A#4",
                    "midi": 70,
                    "time": 78.81666,
                    "velocity": 0.5354330708661418,
                    "duration": 0.17751499999999965
                },
                {
                    "name": "C5",
                    "midi": 72,
                    "time": 78.994175,
                    "velocity": 0.5354330708661418,
                    "duration": 0.17751499999999965
                },
                {
                    "name": "A#4",
                    "midi": 70,
                    "time": 79.17169,
                    "velocity": 0.5669291338582677,
                    "duration": 0.26627249999999947
                },
                {
                    "name": "D#4",
                    "midi": 63,
                    "time": 79.17169,
                    "velocity": 0.47244094488188976,
                    "duration": 1.065090000000012
                },
                {
                    "name": "C5",
                    "midi": 72,
                    "time": 79.4379625,
                    "velocity": 0.48031496062992124,
                    "duration": 0.04437875000000702
                },
                {
                    "name": "A#4",
                    "midi": 70,
                    "time": 79.48234125,
                    "velocity": 0.48031496062992124,
                    "duration": 0.04437875000000702
                },
                {
                    "name": "G#4",
                    "midi": 68,
                    "time": 79.52672000000001,
                    "velocity": 0.5433070866141733,
                    "duration": 0.17751499999999965
                },
                {
                    "name": "G4",
                    "midi": 67,
                    "time": 79.70423500000001,
                    "velocity": 0.47244094488188976,
                    "duration": 0.17751499999999965
                },
                {
                    "name": "F4",
                    "midi": 65,
                    "time": 79.88175000000001,
                    "velocity": 0.4881889763779528,
                    "duration": 0.17751499999999965
                },
                {
                    "name": "G4",
                    "midi": 67,
                    "time": 80.05926500000001,
                    "velocity": 0.44881889763779526,
                    "duration": 0.17751499999999965
                },
                {
                    "name": "G#4",
                    "midi": 68,
                    "time": 80.23678000000001,
                    "velocity": 0.48031496062992124,
                    "duration": 0.26627249999999947
                },
                {
                    "name": "D#4",
                    "midi": 63,
                    "time": 80.23678000000001,
                    "velocity": 0.48031496062992124,
                    "duration": 1.065090000000012
                },
                {
                    "name": "G4",
                    "midi": 67,
                    "time": 80.50305250000001,
                    "velocity": 0.41732283464566927,
                    "duration": 0.04437875000000702
                },
                {
                    "name": "G#4",
                    "midi": 68,
                    "time": 80.54743125000002,
                    "velocity": 0.4330708661417323,
                    "duration": 0.04437875000000702
                },
                {
                    "name": "G4",
                    "midi": 67,
                    "time": 80.59181000000002,
                    "velocity": 0.4881889763779528,
                    "duration": 0.17751499999999965
                },
                {
                    "name": "F4",
                    "midi": 65,
                    "time": 80.76932500000002,
                    "velocity": 0.41732283464566927,
                    "duration": 0.17751499999999965
                },
                {
                    "name": "G4",
                    "midi": 67,
                    "time": 80.94684000000002,
                    "velocity": 0.48031496062992124,
                    "duration": 0.08875749999999982
                },
                {
                    "name": "A#3",
                    "midi": 58,
                    "time": 81.30187000000002,
                    "velocity": 0.36220472440944884,
                    "duration": 0.7100599999999986
                },
                {
                    "name": "D#4",
                    "midi": 63,
                    "time": 81.30187000000002,
                    "velocity": 0.4330708661417323,
                    "duration": 1.0650899999999979
                },
                {
                    "name": "C4",
                    "midi": 60,
                    "time": 82.36696000000002,
                    "velocity": 0.3779527559055118,
                    "duration": 0.7100599999999986
                },
                {
                    "name": "D#4",
                    "midi": 63,
                    "time": 82.36696000000002,
                    "velocity": 0.44881889763779526,
                    "duration": 0.7100599999999986
                },
                {
                    "name": "G4",
                    "midi": 67,
                    "time": 83.07702000000002,
                    "velocity": 0.4015748031496063,
                    "duration": 0.08875749999999982
                },
                {
                    "name": "A#3",
                    "midi": 58,
                    "time": 83.43205000000002,
                    "velocity": 0.33070866141732286,
                    "duration": 0.7100599999999986
                },
                {
                    "name": "D#4",
                    "midi": 63,
                    "time": 83.43205000000002,
                    "velocity": 0.4015748031496063,
                    "duration": 1.0650899999999979
                },
                {
                    "name": "C4",
                    "midi": 60,
                    "time": 84.49714000000002,
                    "velocity": 0.3464566929133858,
                    "duration": 0.7100599999999986
                },
                {
                    "name": "D#4",
                    "midi": 63,
                    "time": 84.49714000000002,
                    "velocity": 0.4094488188976378,
                    "duration": 0.7100599999999986
                },
                {
                    "name": "A#3",
                    "midi": 58,
                    "time": 85.20720000000001,
                    "velocity": 0.31496062992125984,
                    "duration": 0.3550299999999993
                },
                {
                    "name": "G4",
                    "midi": 67,
                    "time": 85.20720000000001,
                    "velocity": 0.3779527559055118,
                    "duration": 0.08875749999999982
                },
                {
                    "name": "D#4",
                    "midi": 63,
                    "time": 85.56223000000001,
                    "velocity": 0.3937007874015748,
                    "duration": 0.7100599999999986
                },
                {
                    "name": "G4",
                    "midi": 67,
                    "time": 86.27229000000001,
                    "velocity": 0.3700787401574803,
                    "duration": 0.08875749999999982
                },
                {
                    "name": "D#4",
                    "midi": 63,
                    "time": 86.62732000000001,
                    "velocity": 0.3858267716535433,
                    "duration": 0.7100599999999986
                },
                {
                    "name": "G4",
                    "midi": 67,
                    "time": 87.33738000000001,
                    "velocity": 0.3543307086614173,
                    "duration": 0.08875749999999982
                },
                {
                    "name": "B3",
                    "midi": 59,
                    "time": 87.69241000000001,
                    "velocity": 0.29133858267716534,
                    "duration": 0.7100599999999986
                },
                {
                    "name": "F4",
                    "midi": 65,
                    "time": 87.69241000000001,
                    "velocity": 0.3543307086614173,
                    "duration": 0.7100599999999986
                },
                {
                    "name": "G4",
                    "midi": 67,
                    "time": 88.40247000000001,
                    "velocity": 0.3464566929133858,
                    "duration": 0.08875749999999982
                },
                {
                    "name": "B3",
                    "midi": 59,
                    "time": 88.75750000000001,
                    "velocity": 0.2677165354330709,
                    "duration": 0.7100599999999986
                },
                {
                    "name": "F4",
                    "midi": 65,
                    "time": 88.75750000000001,
                    "velocity": 0.30708661417322836,
                    "duration": 0.3550299999999993
                },
                {
                    "name": "G4",
                    "midi": 67,
                    "time": 89.11253,
                    "velocity": 0.28346456692913385,
                    "duration": 0.3550299999999993
                },
                {
                    "name": "G4",
                    "midi": 67,
                    "time": 89.82259,
                    "velocity": 0.3700787401574803,
                    "duration": 0.7100599999999986
                },
                {
                    "name": "G4",
                    "midi": 67,
                    "time": 90.88768,
                    "velocity": 0.41732283464566927,
                    "duration": 0.7100599999999986
                },
                {
                    "name": "G4",
                    "midi": 67,
                    "time": 91.95277,
                    "velocity": 0.4566929133858268,
                    "duration": 0.7100599999999986
                },
                {
                    "name": "G4",
                    "midi": 67,
                    "time": 92.66283,
                    "velocity": 0.49606299212598426,
                    "duration": 0.7100599999999986
                },
                {
                    "name": "G4",
                    "midi": 67,
                    "time": 93.37289,
                    "velocity": 0.5275590551181102,
                    "duration": 0.6656812500000058
                },
                {
                    "name": "F4",
                    "midi": 65,
                    "time": 94.03857125,
                    "velocity": 0.48031496062992124,
                    "duration": 0.7544387500000198
                },
                {
                    "name": "B4",
                    "midi": 71,
                    "time": 94.03857125,
                    "velocity": 0.5433070866141733,
                    "duration": 0.7544387500000198
                },
                {
                    "name": "E5",
                    "midi": 76,
                    "time": 94.08295000000001,
                    "velocity": 0.6141732283464567,
                    "duration": 0.5325449999999989
                },
                {
                    "name": "D5",
                    "midi": 74,
                    "time": 94.61549500000001,
                    "velocity": 0.5826771653543307,
                    "duration": 0.13313625000000684
                },
                {
                    "name": "C5",
                    "midi": 72,
                    "time": 94.74863125000002,
                    "velocity": 0.5039370078740157,
                    "duration": 0.04437875000000702
                },
                {
                    "name": "E4",
                    "midi": 64,
                    "time": 94.79301000000002,
                    "velocity": 0.5511811023622047,
                    "duration": 0.17751499999999965
                },
                {
                    "name": "E5",
                    "midi": 76,
                    "time": 94.79301000000002,
                    "velocity": 0.6220472440944882,
                    "duration": 0.17751499999999965
                },
                {
                    "name": "B4",
                    "midi": 71,
                    "time": 95.05928250000002,
                    "velocity": 0.5748031496062992,
                    "duration": 0.06656812500000342
                },
                {
                    "name": "E4",
                    "midi": 64,
                    "time": 95.14804000000002,
                    "velocity": 0.6220472440944882,
                    "duration": 0.17751499999999965
                },
                {
                    "name": "C5",
                    "midi": 72,
                    "time": 95.14804000000002,
                    "velocity": 0.6220472440944882,
                    "duration": 0.17751499999999965
                },
                {
                    "name": "D5",
                    "midi": 74,
                    "time": 95.41431250000002,
                    "velocity": 0.5433070866141733,
                    "duration": 0.06656812500000342
                },
                {
                    "name": "E4",
                    "midi": 64,
                    "time": 95.50307000000002,
                    "velocity": 0.5748031496062992,
                    "duration": 0.3106512500000065
                },
                {
                    "name": "E5",
                    "midi": 76,
                    "time": 95.50307000000002,
                    "velocity": 0.6377952755905512,
                    "duration": 0.3106512500000065
                },
                {
                    "name": "C5",
                    "midi": 72,
                    "time": 95.81372125000003,
                    "velocity": 0.4330708661417323,
                    "duration": 0.22189375000000666
                },
                {
                    "name": "E5",
                    "midi": 76,
                    "time": 95.85810000000004,
                    "velocity": 0.4645669291338583,
                    "duration": 0.17751499999999965
                },
                {
                    "name": "F#5",
                    "midi": 78,
                    "time": 96.12437250000004,
                    "velocity": 0.41732283464566927,
                    "duration": 0.06656812500000342
                },
                {
                    "name": "C5",
                    "midi": 72,
                    "time": 96.21313000000004,
                    "velocity": 0.4094488188976378,
                    "duration": 0.08875749999999982
                },
                {
                    "name": "G5",
                    "midi": 79,
                    "time": 96.21313000000004,
                    "velocity": 0.4645669291338583,
                    "duration": 0.08875749999999982
                },
                {
                    "name": "C5",
                    "midi": 72,
                    "time": 96.56816000000003,
                    "velocity": 0.4330708661417323,
                    "duration": 0.08875749999999982
                },
                {
                    "name": "A5",
                    "midi": 81,
                    "time": 96.56816000000003,
                    "velocity": 0.48031496062992124,
                    "duration": 0.08875749999999982
                },
                {
                    "name": "G5",
                    "midi": 79,
                    "time": 96.87881125000004,
                    "velocity": 0.44881889763779526,
                    "duration": 0.04437875000000702
                },
                {
                    "name": "B4",
                    "midi": 71,
                    "time": 96.92319000000005,
                    "velocity": 0.4566929133858268,
                    "duration": 0.7100599999999986
                },
                {
                    "name": "B5",
                    "midi": 83,
                    "time": 96.92319000000005,
                    "velocity": 0.5039370078740157,
                    "duration": 0.7100599999999986
                },
                {
                    "name": "B4",
                    "midi": 71,
                    "time": 97.63325000000005,
                    "velocity": 0.41732283464566927,
                    "duration": 0.3106512500000065
                },
                {
                    "name": "G5",
                    "midi": 79,
                    "time": 97.63325000000005,
                    "velocity": 0.47244094488188976,
                    "duration": 0.3106512500000065
                },
                {
                    "name": "F5",
                    "midi": 77,
                    "time": 97.94390125000005,
                    "velocity": 0.4881889763779528,
                    "duration": 0.04437875000000702
                },
                {
                    "name": "A5",
                    "midi": 81,
                    "time": 97.98828000000006,
                    "velocity": 0.5669291338582677,
                    "duration": 0.17751499999999965
                },
                {
                    "name": "B5",
                    "midi": 83,
                    "time": 98.16579500000006,
                    "velocity": 0.5511811023622047,
                    "duration": 0.17751499999999965
                },
                {
                    "name": "F5",
                    "midi": 77,
                    "time": 98.34331000000006,
                    "velocity": 0.5275590551181102,
                    "duration": 0.7100599999999844
                },
                {
                    "name": "C6",
                    "midi": 84,
                    "time": 98.34331000000006,
                    "velocity": 0.5905511811023622,
                    "duration": 0.11834333333332836
                },
                {
                    "name": "D6",
                    "midi": 86,
                    "time": 98.46165333333339,
                    "velocity": 0.5275590551181102,
                    "duration": 0.11834333333332836
                },
                {
                    "name": "C6",
                    "midi": 84,
                    "time": 98.57999666666672,
                    "velocity": 0.5275590551181102,
                    "duration": 0.11834333333332836
                },
                {
                    "name": "B5",
                    "midi": 83,
                    "time": 98.69834000000004,
                    "velocity": 0.5669291338582677,
                    "duration": 0.17751499999999965
                },
                {
                    "name": "A5",
                    "midi": 81,
                    "time": 98.87585500000004,
                    "velocity": 0.49606299212598426,
                    "duration": 0.17751499999999965
                },
                {
                    "name": "E5",
                    "midi": 76,
                    "time": 99.05337000000004,
                    "velocity": 0.5275590551181102,
                    "duration": 0.26627249999999947
                },
                {
                    "name": "G5",
                    "midi": 79,
                    "time": 99.05337000000004,
                    "velocity": 0.5905511811023622,
                    "duration": 0.26627249999999947
                },
                {
                    "name": "E5",
                    "midi": 76,
                    "time": 99.31964250000004,
                    "velocity": 0.4645669291338583,
                    "duration": 0.06656812500000342
                },
                {
                    "name": "G5",
                    "midi": 79,
                    "time": 99.31964250000004,
                    "velocity": 0.5196850393700787,
                    "duration": 0.06656812500000342
                },
                {
                    "name": "D5",
                    "midi": 74,
                    "time": 99.40840000000004,
                    "velocity": 0.47244094488188976,
                    "duration": 0.3550299999999993
                },
                {
                    "name": "F5",
                    "midi": 77,
                    "time": 99.40840000000004,
                    "velocity": 0.5275590551181102,
                    "duration": 0.3550299999999993
                },
                {
                    "name": "E5",
                    "midi": 76,
                    "time": 99.76343000000004,
                    "velocity": 0.4881889763779528,
                    "duration": 0.3550299999999993
                },
                {
                    "name": "C5",
                    "midi": 72,
                    "time": 99.76343000000004,
                    "velocity": 0.4409448818897638,
                    "duration": 0.3550299999999993
                },
                {
                    "name": "B4",
                    "midi": 71,
                    "time": 100.11846000000004,
                    "velocity": 0.4645669291338583,
                    "duration": 0.26627249999999947
                },
                {
                    "name": "D5",
                    "midi": 74,
                    "time": 100.11846000000004,
                    "velocity": 0.5196850393700787,
                    "duration": 0.26627249999999947
                },
                {
                    "name": "B4",
                    "midi": 71,
                    "time": 100.38473250000004,
                    "velocity": 0.41732283464566927,
                    "duration": 0.06656812500000342
                },
                {
                    "name": "D5",
                    "midi": 74,
                    "time": 100.38473250000004,
                    "velocity": 0.47244094488188976,
                    "duration": 0.06656812500000342
                },
                {
                    "name": "G5",
                    "midi": 79,
                    "time": 100.47349000000004,
                    "velocity": 0.5039370078740157,
                    "duration": 0.7100599999999986
                },
                {
                    "name": "A4",
                    "midi": 69,
                    "time": 100.82852000000004,
                    "velocity": 0.3937007874015748,
                    "duration": 0.3550299999999993
                },
                {
                    "name": "C5",
                    "midi": 72,
                    "time": 100.82852000000004,
                    "velocity": 0.3937007874015748,
                    "duration": 0.3550299999999993
                },
                {
                    "name": "E5",
                    "midi": 76,
                    "time": 100.82852000000004,
                    "velocity": 0.4409448818897638,
                    "duration": 0.3550299999999993
                },
                {
                    "name": "A4",
                    "midi": 69,
                    "time": 101.18355000000004,
                    "velocity": 0.41732283464566927,
                    "duration": 0.26627249999999947
                },
                {
                    "name": "C5",
                    "midi": 72,
                    "time": 101.18355000000004,
                    "velocity": 0.47244094488188976,
                    "duration": 0.26627249999999947
                },
                {
                    "name": "A4",
                    "midi": 69,
                    "time": 101.44982250000004,
                    "velocity": 0.4015748031496063,
                    "duration": 0.06656812500000342
                },
                {
                    "name": "C5",
                    "midi": 72,
                    "time": 101.44982250000004,
                    "velocity": 0.44881889763779526,
                    "duration": 0.06656812500000342
                },
                {
                    "name": "G5",
                    "midi": 79,
                    "time": 101.53858000000004,
                    "velocity": 0.48031496062992124,
                    "duration": 0.7100599999999986
                },
                {
                    "name": "B4",
                    "midi": 71,
                    "time": 101.89361000000004,
                    "velocity": 0.3779527559055118,
                    "duration": 0.3550299999999993
                },
                {
                    "name": "D5",
                    "midi": 74,
                    "time": 101.89361000000004,
                    "velocity": 0.41732283464566927,
                    "duration": 0.3550299999999993
                },
                {
                    "name": "F4",
                    "midi": 65,
                    "time": 102.55929125000004,
                    "velocity": 0.48031496062992124,
                    "duration": 0.7544387500000198
                },
                {
                    "name": "B4",
                    "midi": 71,
                    "time": 102.55929125000004,
                    "velocity": 0.5433070866141733,
                    "duration": 0.7544387500000198
                },
                {
                    "name": "E5",
                    "midi": 76,
                    "time": 102.60367000000005,
                    "velocity": 0.6141732283464567,
                    "duration": 0.5325449999999989
                },
                {
                    "name": "D5",
                    "midi": 74,
                    "time": 103.13621500000005,
                    "velocity": 0.5826771653543307,
                    "duration": 0.13313625000000684
                },
                {
                    "name": "C5",
                    "midi": 72,
                    "time": 103.26935125000006,
                    "velocity": 0.5039370078740157,
                    "duration": 0.04437875000000702
                },
                {
                    "name": "E4",
                    "midi": 64,
                    "time": 103.31373000000006,
                    "velocity": 0.5511811023622047,
                    "duration": 0.17751499999999965
                },
                {
                    "name": "E5",
                    "midi": 76,
                    "time": 103.31373000000006,
                    "velocity": 0.6220472440944882,
                    "duration": 0.17751499999999965
                },
                {
                    "name": "B4",
                    "midi": 71,
                    "time": 103.58000250000006,
                    "velocity": 0.5748031496062992,
                    "duration": 0.06656812500000342
                },
                {
                    "name": "E4",
                    "midi": 64,
                    "time": 103.66876000000006,
                    "velocity": 0.6220472440944882,
                    "duration": 0.17751499999999965
                },
                {
                    "name": "C5",
                    "midi": 72,
                    "time": 103.66876000000006,
                    "velocity": 0.6220472440944882,
                    "duration": 0.17751499999999965
                },
                {
                    "name": "D5",
                    "midi": 74,
                    "time": 103.93503250000006,
                    "velocity": 0.5433070866141733,
                    "duration": 0.06656812500000342
                },
                {
                    "name": "E4",
                    "midi": 64,
                    "time": 104.02379000000006,
                    "velocity": 0.5748031496062992,
                    "duration": 0.3106512500000065
                },
                {
                    "name": "E5",
                    "midi": 76,
                    "time": 104.02379000000006,
                    "velocity": 0.6377952755905512,
                    "duration": 0.3106512500000065
                },
                {
                    "name": "C5",
                    "midi": 72,
                    "time": 104.33444125000007,
                    "velocity": 0.4094488188976378,
                    "duration": 0.22189375000000666
                },
                {
                    "name": "E5",
                    "midi": 76,
                    "time": 104.37882000000008,
                    "velocity": 0.4645669291338583,
                    "duration": 0.17751499999999965
                },
                {
                    "name": "F#5",
                    "midi": 78,
                    "time": 104.64509250000008,
                    "velocity": 0.41732283464566927,
                    "duration": 0.06656812500000342
                },
                {
                    "name": "C5",
                    "midi": 72,
                    "time": 104.73385000000007,
                    "velocity": 0.4094488188976378,
                    "duration": 0.08875749999999982
                },
                {
                    "name": "G5",
                    "midi": 79,
                    "time": 104.73385000000007,
                    "velocity": 0.4645669291338583,
                    "duration": 0.08875749999999982
                },
                {
                    "name": "C5",
                    "midi": 72,
                    "time": 105.08888000000007,
                    "velocity": 0.4330708661417323,
                    "duration": 0.08875749999999982
                },
                {
                    "name": "A5",
                    "midi": 81,
                    "time": 105.08888000000007,
                    "velocity": 0.48031496062992124,
                    "duration": 0.08875749999999982
                },
                {
                    "name": "G5",
                    "midi": 79,
                    "time": 105.39953125000008,
                    "velocity": 0.4645669291338583,
                    "duration": 0.04437875000000702
                },
                {
                    "name": "B4",
                    "midi": 71,
                    "time": 105.44391000000009,
                    "velocity": 0.4566929133858268,
                    "duration": 0.7100599999999986
                },
                {
                    "name": "B5",
                    "midi": 83,
                    "time": 105.44391000000009,
                    "velocity": 0.5039370078740157,
                    "duration": 0.7100599999999986
                },
                {
                    "name": "B4",
                    "midi": 71,
                    "time": 106.15397000000009,
                    "velocity": 0.41732283464566927,
                    "duration": 0.3106512500000065
                },
                {
                    "name": "G5",
                    "midi": 79,
                    "time": 106.15397000000009,
                    "velocity": 0.47244094488188976,
                    "duration": 0.3106512500000065
                },
                {
                    "name": "F5",
                    "midi": 77,
                    "time": 106.46462125000009,
                    "velocity": 0.5196850393700787,
                    "duration": 0.04437875000000702
                },
                {
                    "name": "A5",
                    "midi": 81,
                    "time": 106.5090000000001,
                    "velocity": 0.5669291338582677,
                    "duration": 0.17751499999999965
                },
                {
                    "name": "B5",
                    "midi": 83,
                    "time": 106.6865150000001,
                    "velocity": 0.5511811023622047,
                    "duration": 0.17751499999999965
                },
                {
                    "name": "F5",
                    "midi": 77,
                    "time": 106.8640300000001,
                    "velocity": 0.5275590551181102,
                    "duration": 0.7100599999999844
                },
                {
                    "name": "C6",
                    "midi": 84,
                    "time": 106.8640300000001,
                    "velocity": 0.5905511811023622,
                    "duration": 0.11834333333332836
                },
                {
                    "name": "D6",
                    "midi": 86,
                    "time": 106.98237333333343,
                    "velocity": 0.5275590551181102,
                    "duration": 0.11834333333332836
                },
                {
                    "name": "C6",
                    "midi": 84,
                    "time": 107.10071666666676,
                    "velocity": 0.5275590551181102,
                    "duration": 0.11834333333332836
                },
                {
                    "name": "B5",
                    "midi": 83,
                    "time": 107.21906000000008,
                    "velocity": 0.5669291338582677,
                    "duration": 0.17751499999999965
                },
                {
                    "name": "A5",
                    "midi": 81,
                    "time": 107.39657500000008,
                    "velocity": 0.49606299212598426,
                    "duration": 0.17751499999999965
                },
                {
                    "name": "E5",
                    "midi": 76,
                    "time": 107.57409000000008,
                    "velocity": 0.5275590551181102,
                    "duration": 0.26627249999999947
                },
                {
                    "name": "G5",
                    "midi": 79,
                    "time": 107.57409000000008,
                    "velocity": 0.5905511811023622,
                    "duration": 0.26627249999999947
                },
                {
                    "name": "E5",
                    "midi": 76,
                    "time": 107.84036250000008,
                    "velocity": 0.4645669291338583,
                    "duration": 0.06656812500000342
                },
                {
                    "name": "G5",
                    "midi": 79,
                    "time": 107.84036250000008,
                    "velocity": 0.5196850393700787,
                    "duration": 0.06656812500000342
                },
                {
                    "name": "D5",
                    "midi": 74,
                    "time": 107.92912000000008,
                    "velocity": 0.47244094488188976,
                    "duration": 0.3550299999999993
                },
                {
                    "name": "F5",
                    "midi": 77,
                    "time": 107.92912000000008,
                    "velocity": 0.5275590551181102,
                    "duration": 0.3550299999999993
                },
                {
                    "name": "E5",
                    "midi": 76,
                    "time": 108.28415000000008,
                    "velocity": 0.4881889763779528,
                    "duration": 0.3550299999999993
                },
                {
                    "name": "C5",
                    "midi": 72,
                    "time": 108.28415000000008,
                    "velocity": 0.4409448818897638,
                    "duration": 0.3550299999999993
                },
                {
                    "name": "B4",
                    "midi": 71,
                    "time": 108.63918000000008,
                    "velocity": 0.4645669291338583,
                    "duration": 0.26627249999999947
                },
                {
                    "name": "D5",
                    "midi": 74,
                    "time": 108.63918000000008,
                    "velocity": 0.5196850393700787,
                    "duration": 0.26627249999999947
                },
                {
                    "name": "B4",
                    "midi": 71,
                    "time": 108.90545250000008,
                    "velocity": 0.41732283464566927,
                    "duration": 0.06656812500000342
                },
                {
                    "name": "D5",
                    "midi": 74,
                    "time": 108.90545250000008,
                    "velocity": 0.47244094488188976,
                    "duration": 0.06656812500000342
                },
                {
                    "name": "G5",
                    "midi": 79,
                    "time": 108.99421000000008,
                    "velocity": 0.5039370078740157,
                    "duration": 0.7100599999999986
                },
                {
                    "name": "A4",
                    "midi": 69,
                    "time": 109.34924000000008,
                    "velocity": 0.3937007874015748,
                    "duration": 0.3550299999999993
                },
                {
                    "name": "C5",
                    "midi": 72,
                    "time": 109.34924000000008,
                    "velocity": 0.3937007874015748,
                    "duration": 0.3550299999999993
                },
                {
                    "name": "E5",
                    "midi": 76,
                    "time": 109.34924000000008,
                    "velocity": 0.4409448818897638,
                    "duration": 0.3550299999999993
                },
                {
                    "name": "D5",
                    "midi": 74,
                    "time": 109.70427000000008,
                    "velocity": 0.44881889763779526,
                    "duration": 0.3550299999999993
                },
                {
                    "name": "F4",
                    "midi": 65,
                    "time": 109.70427000000008,
                    "velocity": 0.4015748031496063,
                    "duration": 0.7100599999999986
                },
                {
                    "name": "B4",
                    "midi": 71,
                    "time": 109.70427000000008,
                    "velocity": 0.4015748031496063,
                    "duration": 0.7100599999999986
                },
                {
                    "name": "E5",
                    "midi": 76,
                    "time": 110.05930000000008,
                    "velocity": 0.41732283464566927,
                    "duration": 0.17751499999999965
                },
                {
                    "name": "D5",
                    "midi": 74,
                    "time": 110.23681500000008,
                    "velocity": 0.4015748031496063,
                    "duration": 0.17751499999999965
                },
                {
                    "name": "C5",
                    "midi": 72,
                    "time": 110.41433000000008,
                    "velocity": 0.3937007874015748,
                    "duration": 0.3550299999999993
                },
                {
                    "name": "E4",
                    "midi": 64,
                    "time": 110.41433000000008,
                    "velocity": 0.3464566929133858,
                    "duration": 0.3550299999999993
                },
                {
                    "name": "G4",
                    "midi": 67,
                    "time": 110.94687500000008,
                    "velocity": 0.3858267716535433,
                    "duration": 0.17751499999999965
                },
                {
                    "name": "G3",
                    "midi": 55,
                    "time": 111.12439000000008,
                    "velocity": 0.3464566929133858,
                    "duration": 0.3550299999999993
                },
                {
                    "name": "B3",
                    "midi": 59,
                    "time": 111.12439000000008,
                    "velocity": 0.3464566929133858,
                    "duration": 0.3550299999999993
                },
                {
                    "name": "G4",
                    "midi": 67,
                    "time": 111.12439000000008,
                    "velocity": 0.3858267716535433,
                    "duration": 0.17751499999999965
                },
                {
                    "name": "A3",
                    "midi": 57,
                    "time": 111.47942000000008,
                    "velocity": 0.3543307086614173,
                    "duration": 0.3550299999999993
                },
                {
                    "name": "C4",
                    "midi": 60,
                    "time": 111.47942000000008,
                    "velocity": 0.3543307086614173,
                    "duration": 0.3550299999999993
                },
                {
                    "name": "G4",
                    "midi": 67,
                    "time": 111.47942000000008,
                    "velocity": 0.3937007874015748,
                    "duration": 0.3550299999999993
                },
                {
                    "name": "G4",
                    "midi": 67,
                    "time": 112.01196500000007,
                    "velocity": 0.3858267716535433,
                    "duration": 0.17751499999999965
                },
                {
                    "name": "G3",
                    "midi": 55,
                    "time": 112.18948000000007,
                    "velocity": 0.3464566929133858,
                    "duration": 0.3550299999999993
                },
                {
                    "name": "B3",
                    "midi": 59,
                    "time": 112.18948000000007,
                    "velocity": 0.3464566929133858,
                    "duration": 0.3550299999999993
                },
                {
                    "name": "G4",
                    "midi": 67,
                    "time": 112.18948000000007,
                    "velocity": 0.3858267716535433,
                    "duration": 0.17751499999999965
                },
                {
                    "name": "G4",
                    "midi": 67,
                    "time": 112.54451000000007,
                    "velocity": 0.3937007874015748,
                    "duration": 0.3550299999999993
                },
                {
                    "name": "A3",
                    "midi": 57,
                    "time": 112.54451000000007,
                    "velocity": 0.3543307086614173,
                    "duration": 0.3550299999999993
                },
                {
                    "name": "C4",
                    "midi": 60,
                    "time": 112.54451000000007,
                    "velocity": 0.3543307086614173,
                    "duration": 0.3550299999999993
                },
                {
                    "name": "A3",
                    "midi": 57,
                    "time": 113.25457000000007,
                    "velocity": 0.3464566929133858,
                    "duration": 0.17751499999999965
                },
                {
                    "name": "C4",
                    "midi": 60,
                    "time": 113.25457000000007,
                    "velocity": 0.3464566929133858,
                    "duration": 0.17751499999999965
                },
                {
                    "name": "G4",
                    "midi": 67,
                    "time": 113.25457000000007,
                    "velocity": 0.3858267716535433,
                    "duration": 0.3550299999999993
                },
                {
                    "name": "E4",
                    "midi": 64,
                    "time": 113.43208500000007,
                    "velocity": 0.31496062992125984,
                    "duration": 0.17751499999999965
                },
                {
                    "name": "D4",
                    "midi": 62,
                    "time": 113.60960000000007,
                    "velocity": 0.3543307086614173,
                    "duration": 0.17751499999999965
                },
                {
                    "name": "G4",
                    "midi": 67,
                    "time": 113.60960000000007,
                    "velocity": 0.3937007874015748,
                    "duration": 0.3550299999999993
                },
                {
                    "name": "C4",
                    "midi": 60,
                    "time": 113.78711500000007,
                    "velocity": 0.3464566929133858,
                    "duration": 0.17751499999999965
                },
                {
                    "name": "B3",
                    "midi": 59,
                    "time": 113.96463000000007,
                    "velocity": 0.3700787401574803,
                    "duration": 0.17751499999999965
                },
                {
                    "name": "G4",
                    "midi": 67,
                    "time": 113.96463000000007,
                    "velocity": 0.4094488188976378,
                    "duration": 0.3550299999999993
                },
                {
                    "name": "C4",
                    "midi": 60,
                    "time": 114.14214500000007,
                    "velocity": 0.33070866141732286,
                    "duration": 0.17751499999999965
                },
                {
                    "name": "B3",
                    "midi": 59,
                    "time": 114.31966000000007,
                    "velocity": 0.3228346456692913,
                    "duration": 0.17751499999999965
                },
                {
                    "name": "A#3",
                    "midi": 58,
                    "time": 114.49717500000007,
                    "velocity": 0.31496062992125984,
                    "duration": 0.17751499999999965
                },
                {
                    "name": "A3",
                    "midi": 57,
                    "time": 114.67469000000007,
                    "velocity": 0.30708661417322836,
                    "duration": 0.17751499999999965
                },
                {
                    "name": "G#3",
                    "midi": 56,
                    "time": 114.85220500000007,
                    "velocity": 0.30708661417322836,
                    "duration": 0.17751499999999965
                },
                {
                    "name": "G5",
                    "midi": 79,
                    "time": 115.20723500000007,
                    "velocity": 0.3858267716535433,
                    "duration": 0.17751499999999965
                },
                {
                    "name": "G4",
                    "midi": 67,
                    "time": 115.38475000000007,
                    "velocity": 0.3464566929133858,
                    "duration": 0.3550299999999993
                },
                {
                    "name": "B4",
                    "midi": 71,
                    "time": 115.38475000000007,
                    "velocity": 0.3464566929133858,
                    "duration": 0.3550299999999993
                },
                {
                    "name": "G5",
                    "midi": 79,
                    "time": 115.38475000000007,
                    "velocity": 0.3858267716535433,
                    "duration": 0.17751499999999965
                },
                {
                    "name": "A4",
                    "midi": 69,
                    "time": 115.73978000000007,
                    "velocity": 0.3543307086614173,
                    "duration": 0.3550299999999993
                },
                {
                    "name": "C5",
                    "midi": 72,
                    "time": 115.73978000000007,
                    "velocity": 0.3543307086614173,
                    "duration": 0.3550299999999993
                },
                {
                    "name": "G5",
                    "midi": 79,
                    "time": 115.73978000000007,
                    "velocity": 0.3937007874015748,
                    "duration": 0.3550299999999993
                },
                {
                    "name": "G5",
                    "midi": 79,
                    "time": 116.27232500000007,
                    "velocity": 0.3858267716535433,
                    "duration": 0.17751499999999965
                },
                {
                    "name": "G4",
                    "midi": 67,
                    "time": 116.44984000000007,
                    "velocity": 0.3464566929133858,
                    "duration": 0.3550299999999993
                },
                {
                    "name": "B4",
                    "midi": 71,
                    "time": 116.44984000000007,
                    "velocity": 0.3464566929133858,
                    "duration": 0.3550299999999993
                },
                {
                    "name": "G5",
                    "midi": 79,
                    "time": 116.44984000000007,
                    "velocity": 0.3858267716535433,
                    "duration": 0.17751499999999965
                },
                {
                    "name": "G5",
                    "midi": 79,
                    "time": 116.80487000000007,
                    "velocity": 0.3937007874015748,
                    "duration": 0.3550299999999993
                },
                {
                    "name": "A4",
                    "midi": 69,
                    "time": 116.80487000000007,
                    "velocity": 0.3543307086614173,
                    "duration": 0.3550299999999993
                },
                {
                    "name": "C5",
                    "midi": 72,
                    "time": 116.80487000000007,
                    "velocity": 0.3543307086614173,
                    "duration": 0.3550299999999993
                },
                {
                    "name": "A4",
                    "midi": 69,
                    "time": 117.51493000000006,
                    "velocity": 0.3464566929133858,
                    "duration": 0.17751499999999965
                },
                {
                    "name": "C5",
                    "midi": 72,
                    "time": 117.51493000000006,
                    "velocity": 0.3464566929133858,
                    "duration": 0.17751499999999965
                },
                {
                    "name": "G5",
                    "midi": 79,
                    "time": 117.51493000000006,
                    "velocity": 0.3858267716535433,
                    "duration": 0.3550299999999993
                },
                {
                    "name": "E5",
                    "midi": 76,
                    "time": 117.69244500000006,
                    "velocity": 0.31496062992125984,
                    "duration": 0.17751499999999965
                },
                {
                    "name": "D5",
                    "midi": 74,
                    "time": 117.86996000000006,
                    "velocity": 0.3543307086614173,
                    "duration": 0.17751499999999965
                },
                {
                    "name": "G5",
                    "midi": 79,
                    "time": 117.86996000000006,
                    "velocity": 0.3937007874015748,
                    "duration": 0.3550299999999993
                },
                {
                    "name": "C5",
                    "midi": 72,
                    "time": 118.04747500000006,
                    "velocity": 0.3464566929133858,
                    "duration": 0.17751499999999965
                },
                {
                    "name": "B4",
                    "midi": 71,
                    "time": 118.22499000000006,
                    "velocity": 0.3700787401574803,
                    "duration": 0.17751499999999965
                },
                {
                    "name": "G5",
                    "midi": 79,
                    "time": 118.22499000000006,
                    "velocity": 0.4094488188976378,
                    "duration": 0.3550299999999993
                },
                {
                    "name": "C5",
                    "midi": 72,
                    "time": 118.40250500000006,
                    "velocity": 0.33070866141732286,
                    "duration": 0.17751499999999965
                },
                {
                    "name": "B4",
                    "midi": 71,
                    "time": 118.58002000000006,
                    "velocity": 0.3228346456692913,
                    "duration": 0.17751499999999965
                },
                {
                    "name": "A#4",
                    "midi": 70,
                    "time": 118.75753500000006,
                    "velocity": 0.31496062992125984,
                    "duration": 0.17751499999999965
                },
                {
                    "name": "A4",
                    "midi": 69,
                    "time": 118.93505000000006,
                    "velocity": 0.30708661417322836,
                    "duration": 0.17751499999999965
                },
                {
                    "name": "G#4",
                    "midi": 68,
                    "time": 119.11256500000006,
                    "velocity": 0.30708661417322836,
                    "duration": 0.17751499999999965
                },
                {
                    "name": "G4",
                    "midi": 67,
                    "time": 119.46759500000006,
                    "velocity": 0.3858267716535433,
                    "duration": 0.17751499999999965
                },
                {
                    "name": "G3",
                    "midi": 55,
                    "time": 119.64511000000006,
                    "velocity": 0.3464566929133858,
                    "duration": 0.3550299999999993
                },
                {
                    "name": "B3",
                    "midi": 59,
                    "time": 119.64511000000006,
                    "velocity": 0.3464566929133858,
                    "duration": 0.3550299999999993
                },
                {
                    "name": "G4",
                    "midi": 67,
                    "time": 119.64511000000006,
                    "velocity": 0.3858267716535433,
                    "duration": 0.17751499999999965
                },
                {
                    "name": "A3",
                    "midi": 57,
                    "time": 120.00014000000006,
                    "velocity": 0.3543307086614173,
                    "duration": 0.3550299999999993
                },
                {
                    "name": "C4",
                    "midi": 60,
                    "time": 120.00014000000006,
                    "velocity": 0.3543307086614173,
                    "duration": 0.3550299999999993
                },
                {
                    "name": "G4",
                    "midi": 67,
                    "time": 120.00014000000006,
                    "velocity": 0.3937007874015748,
                    "duration": 0.3550299999999993
                },
                {
                    "name": "G4",
                    "midi": 67,
                    "time": 120.53268500000006,
                    "velocity": 0.3858267716535433,
                    "duration": 0.17751499999999965
                },
                {
                    "name": "G3",
                    "midi": 55,
                    "time": 120.71020000000006,
                    "velocity": 0.3464566929133858,
                    "duration": 0.3550299999999993
                },
                {
                    "name": "B3",
                    "midi": 59,
                    "time": 120.71020000000006,
                    "velocity": 0.3464566929133858,
                    "duration": 0.3550299999999993
                },
                {
                    "name": "G4",
                    "midi": 67,
                    "time": 120.71020000000006,
                    "velocity": 0.3858267716535433,
                    "duration": 0.17751499999999965
                },
                {
                    "name": "G4",
                    "midi": 67,
                    "time": 121.06523000000006,
                    "velocity": 0.3937007874015748,
                    "duration": 0.3550299999999993
                },
                {
                    "name": "A3",
                    "midi": 57,
                    "time": 121.06523000000006,
                    "velocity": 0.3543307086614173,
                    "duration": 0.3550299999999993
                },
                {
                    "name": "C4",
                    "midi": 60,
                    "time": 121.06523000000006,
                    "velocity": 0.3543307086614173,
                    "duration": 0.3550299999999993
                },
                {
                    "name": "A3",
                    "midi": 57,
                    "time": 121.77529000000006,
                    "velocity": 0.3464566929133858,
                    "duration": 0.17751499999999965
                },
                {
                    "name": "C4",
                    "midi": 60,
                    "time": 121.77529000000006,
                    "velocity": 0.3464566929133858,
                    "duration": 0.17751499999999965
                },
                {
                    "name": "G4",
                    "midi": 67,
                    "time": 121.77529000000006,
                    "velocity": 0.3858267716535433,
                    "duration": 0.3550299999999993
                },
                {
                    "name": "E4",
                    "midi": 64,
                    "time": 121.95280500000005,
                    "velocity": 0.31496062992125984,
                    "duration": 0.17751499999999965
                },
                {
                    "name": "D4",
                    "midi": 62,
                    "time": 122.13032000000005,
                    "velocity": 0.3543307086614173,
                    "duration": 0.17751499999999965
                },
                {
                    "name": "G4",
                    "midi": 67,
                    "time": 122.13032000000005,
                    "velocity": 0.3937007874015748,
                    "duration": 0.3550299999999993
                },
                {
                    "name": "C4",
                    "midi": 60,
                    "time": 122.30783500000005,
                    "velocity": 0.3464566929133858,
                    "duration": 0.17751499999999965
                },
                {
                    "name": "B3",
                    "midi": 59,
                    "time": 122.48535000000005,
                    "velocity": 0.3700787401574803,
                    "duration": 0.17751499999999965
                },
                {
                    "name": "G4",
                    "midi": 67,
                    "time": 122.48535000000005,
                    "velocity": 0.4094488188976378,
                    "duration": 0.3550299999999993
                },
                {
                    "name": "C4",
                    "midi": 60,
                    "time": 122.66286500000005,
                    "velocity": 0.33070866141732286,
                    "duration": 0.17751499999999965
                },
                {
                    "name": "B3",
                    "midi": 59,
                    "time": 122.84038000000005,
                    "velocity": 0.3228346456692913,
                    "duration": 0.17751499999999965
                },
                {
                    "name": "A#3",
                    "midi": 58,
                    "time": 123.01789500000005,
                    "velocity": 0.31496062992125984,
                    "duration": 0.17751499999999965
                },
                {
                    "name": "A3",
                    "midi": 57,
                    "time": 123.19541000000005,
                    "velocity": 0.30708661417322836,
                    "duration": 0.17751499999999965
                },
                {
                    "name": "G#3",
                    "midi": 56,
                    "time": 123.37292500000005,
                    "velocity": 0.30708661417322836,
                    "duration": 0.17751499999999965
                },
                {
                    "name": "G5",
                    "midi": 79,
                    "time": 123.72795500000005,
                    "velocity": 0.3858267716535433,
                    "duration": 0.17751499999999965
                },
                {
                    "name": "G4",
                    "midi": 67,
                    "time": 123.90547000000005,
                    "velocity": 0.3464566929133858,
                    "duration": 0.3550299999999993
                },
                {
                    "name": "B4",
                    "midi": 71,
                    "time": 123.90547000000005,
                    "velocity": 0.3464566929133858,
                    "duration": 0.3550299999999993
                },
                {
                    "name": "G5",
                    "midi": 79,
                    "time": 123.90547000000005,
                    "velocity": 0.3858267716535433,
                    "duration": 0.17751499999999965
                },
                {
                    "name": "A4",
                    "midi": 69,
                    "time": 124.26050000000005,
                    "velocity": 0.3543307086614173,
                    "duration": 0.3550299999999993
                },
                {
                    "name": "C5",
                    "midi": 72,
                    "time": 124.26050000000005,
                    "velocity": 0.3543307086614173,
                    "duration": 0.3550299999999993
                },
                {
                    "name": "G5",
                    "midi": 79,
                    "time": 124.26050000000005,
                    "velocity": 0.3937007874015748,
                    "duration": 0.3550299999999993
                },
                {
                    "name": "G5",
                    "midi": 79,
                    "time": 124.79304500000005,
                    "velocity": 0.3858267716535433,
                    "duration": 0.17751499999999965
                },
                {
                    "name": "G4",
                    "midi": 67,
                    "time": 124.97056000000005,
                    "velocity": 0.3464566929133858,
                    "duration": 0.3550299999999993
                },
                {
                    "name": "B4",
                    "midi": 71,
                    "time": 124.97056000000005,
                    "velocity": 0.3464566929133858,
                    "duration": 0.3550299999999993
                },
                {
                    "name": "G5",
                    "midi": 79,
                    "time": 124.97056000000005,
                    "velocity": 0.3858267716535433,
                    "duration": 0.17751499999999965
                },
                {
                    "name": "G5",
                    "midi": 79,
                    "time": 125.32559000000005,
                    "velocity": 0.3937007874015748,
                    "duration": 0.3550299999999993
                },
                {
                    "name": "A4",
                    "midi": 69,
                    "time": 125.32559000000005,
                    "velocity": 0.3543307086614173,
                    "duration": 0.3550299999999993
                },
                {
                    "name": "C5",
                    "midi": 72,
                    "time": 125.32559000000005,
                    "velocity": 0.3543307086614173,
                    "duration": 0.3550299999999993
                },
                {
                    "name": "A4",
                    "midi": 69,
                    "time": 126.03565000000005,
                    "velocity": 0.4330708661417323,
                    "duration": 0.17751499999999965
                },
                {
                    "name": "C5",
                    "midi": 72,
                    "time": 126.03565000000005,
                    "velocity": 0.4330708661417323,
                    "duration": 0.17751499999999965
                },
                {
                    "name": "G5",
                    "midi": 79,
                    "time": 126.03565000000005,
                    "velocity": 0.4330708661417323,
                    "duration": 0.7100599999999986
                },
                {
                    "name": "E5",
                    "midi": 76,
                    "time": 126.21316500000005,
                    "velocity": 0.4094488188976378,
                    "duration": 0.17751499999999965
                },
                {
                    "name": "D5",
                    "midi": 74,
                    "time": 126.39068000000005,
                    "velocity": 0.4645669291338583,
                    "duration": 0.17751499999999965
                },
                {
                    "name": "C5",
                    "midi": 72,
                    "time": 126.56819500000005,
                    "velocity": 0.4330708661417323,
                    "duration": 0.17751499999999965
                },
                {
                    "name": "B4",
                    "midi": 71,
                    "time": 126.74571000000005,
                    "velocity": 0.5590551181102362,
                    "duration": 0.17751499999999965
                },
                {
                    "name": "G5",
                    "midi": 79,
                    "time": 126.74571000000005,
                    "velocity": 0.5590551181102362,
                    "duration": 1.0650899999999979
                },
                {
                    "name": "E5",
                    "midi": 76,
                    "time": 126.92322500000004,
                    "velocity": 0.4881889763779528,
                    "duration": 0.17751499999999965
                },
                {
                    "name": "D5",
                    "midi": 74,
                    "time": 127.10074000000004,
                    "velocity": 0.5433070866141733,
                    "duration": 0.17751499999999965
                },
                {
                    "name": "C5",
                    "midi": 72,
                    "time": 127.27825500000004,
                    "velocity": 0.48031496062992124,
                    "duration": 0.17751499999999965
                },
                {
                    "name": "B4",
                    "midi": 71,
                    "time": 127.45577000000004,
                    "velocity": 0.5039370078740157,
                    "duration": 0.5325449999999989
                },
                {
                    "name": "D5",
                    "midi": 74,
                    "time": 127.98831500000004,
                    "velocity": 0.4566929133858268,
                    "duration": 0.17751500000001386
                },
                {
                    "name": "C5",
                    "midi": 72,
                    "time": 128.16583000000006,
                    "velocity": 0.48031496062992124,
                    "duration": 0.17751499999999965
                },
                {
                    "name": "B4",
                    "midi": 71,
                    "time": 128.34334500000006,
                    "velocity": 0.4409448818897638,
                    "duration": 0.17751499999999965
                },
                {
                    "name": "A4",
                    "midi": 69,
                    "time": 128.52086000000006,
                    "velocity": 0.4645669291338583,
                    "duration": 0.5325449999999989
                },
                {
                    "name": "C5",
                    "midi": 72,
                    "time": 129.05340500000005,
                    "velocity": 0.3779527559055118,
                    "duration": 0.17751499999999965
                },
                {
                    "name": "B4",
                    "midi": 71,
                    "time": 129.23092000000005,
                    "velocity": 0.41732283464566927,
                    "duration": 0.17751499999999965
                },
                {
                    "name": "A4",
                    "midi": 69,
                    "time": 129.40843500000005,
                    "velocity": 0.3937007874015748,
                    "duration": 0.17751499999999965
                },
                {
                    "name": "G4",
                    "midi": 67,
                    "time": 129.58595000000005,
                    "velocity": 0.3464566929133858,
                    "duration": 0.3550299999999993
                },
                {
                    "name": "G4",
                    "midi": 67,
                    "time": 130.29601000000005,
                    "velocity": 0.3700787401574803,
                    "duration": 0.7100599999999986
                },
                {
                    "name": "G4",
                    "midi": 67,
                    "time": 131.36110000000005,
                    "velocity": 0.41732283464566927,
                    "duration": 0.7100599999999986
                },
                {
                    "name": "G4",
                    "midi": 67,
                    "time": 132.42619000000005,
                    "velocity": 0.4566929133858268,
                    "duration": 0.7100599999999986
                },
                {
                    "name": "G4",
                    "midi": 67,
                    "time": 133.13625000000005,
                    "velocity": 0.49606299212598426,
                    "duration": 0.7100599999999986
                },
                {
                    "name": "G4",
                    "midi": 67,
                    "time": 133.84631000000005,
                    "velocity": 0.5275590551181102,
                    "duration": 0.6656812500000058
                },
                {
                    "name": "F4",
                    "midi": 65,
                    "time": 134.51199125000005,
                    "velocity": 0.47244094488188976,
                    "duration": 0.7544387499999914
                },
                {
                    "name": "B4",
                    "midi": 71,
                    "time": 134.51199125000005,
                    "velocity": 0.5433070866141733,
                    "duration": 0.7544387499999914
                },
                {
                    "name": "E5",
                    "midi": 76,
                    "time": 134.55637000000004,
                    "velocity": 0.6141732283464567,
                    "duration": 0.5325449999999989
                },
                {
                    "name": "D5",
                    "midi": 74,
                    "time": 135.08891500000004,
                    "velocity": 0.5826771653543307,
                    "duration": 0.13313625000000684
                },
                {
                    "name": "C5",
                    "midi": 72,
                    "time": 135.22205125000005,
                    "velocity": 0.5039370078740157,
                    "duration": 0.044378749999992806
                },
                {
                    "name": "E4",
                    "midi": 64,
                    "time": 135.26643000000004,
                    "velocity": 0.5511811023622047,
                    "duration": 0.17751499999999965
                },
                {
                    "name": "E5",
                    "midi": 76,
                    "time": 135.26643000000004,
                    "velocity": 0.6220472440944882,
                    "duration": 0.17751499999999965
                },
                {
                    "name": "B4",
                    "midi": 71,
                    "time": 135.53270250000006,
                    "velocity": 0.5748031496062992,
                    "duration": 0.06656812500000342
                },
                {
                    "name": "E4",
                    "midi": 64,
                    "time": 135.62146000000007,
                    "velocity": 0.6220472440944882,
                    "duration": 0.17751499999999965
                },
                {
                    "name": "C5",
                    "midi": 72,
                    "time": 135.62146000000007,
                    "velocity": 0.6220472440944882,
                    "duration": 0.17751499999999965
                },
                {
                    "name": "D5",
                    "midi": 74,
                    "time": 135.88773250000008,
                    "velocity": 0.5433070866141733,
                    "duration": 0.06656812500000342
                },
                {
                    "name": "E4",
                    "midi": 64,
                    "time": 135.9764900000001,
                    "velocity": 0.5748031496062992,
                    "duration": 0.3106512500000065
                },
                {
                    "name": "E5",
                    "midi": 76,
                    "time": 135.9764900000001,
                    "velocity": 0.6377952755905512,
                    "duration": 0.3106512500000065
                },
                {
                    "name": "C5",
                    "midi": 72,
                    "time": 136.2871412500001,
                    "velocity": 0.4094488188976378,
                    "duration": 0.22189374999999245
                },
                {
                    "name": "E5",
                    "midi": 76,
                    "time": 136.3315200000001,
                    "velocity": 0.4645669291338583,
                    "duration": 0.17751499999999965
                },
                {
                    "name": "F#5",
                    "midi": 78,
                    "time": 136.5977925000001,
                    "velocity": 0.41732283464566927,
                    "duration": 0.06656812500000342
                },
                {
                    "name": "C5",
                    "midi": 72,
                    "time": 136.68655000000012,
                    "velocity": 0.4094488188976378,
                    "duration": 0.08875750000001403
                },
                {
                    "name": "G5",
                    "midi": 79,
                    "time": 136.68655000000012,
                    "velocity": 0.4645669291338583,
                    "duration": 0.08875750000001403
                },
                {
                    "name": "C5",
                    "midi": 72,
                    "time": 137.04158000000015,
                    "velocity": 0.4330708661417323,
                    "duration": 0.08875750000001403
                },
                {
                    "name": "A5",
                    "midi": 81,
                    "time": 137.04158000000015,
                    "velocity": 0.48031496062992124,
                    "duration": 0.08875750000001403
                },
                {
                    "name": "G5",
                    "midi": 79,
                    "time": 137.35223125000016,
                    "velocity": 0.44881889763779526,
                    "duration": 0.044378749999992806
                },
                {
                    "name": "B4",
                    "midi": 71,
                    "time": 137.39661000000015,
                    "velocity": 0.4566929133858268,
                    "duration": 0.7100599999999986
                },
                {
                    "name": "B5",
                    "midi": 83,
                    "time": 137.39661000000015,
                    "velocity": 0.5039370078740157,
                    "duration": 0.7100599999999986
                },
                {
                    "name": "B4",
                    "midi": 71,
                    "time": 138.10667000000015,
                    "velocity": 0.41732283464566927,
                    "duration": 0.3106512500000065
                },
                {
                    "name": "G5",
                    "midi": 79,
                    "time": 138.10667000000015,
                    "velocity": 0.47244094488188976,
                    "duration": 0.3106512500000065
                },
                {
                    "name": "F5",
                    "midi": 77,
                    "time": 138.41732125000016,
                    "velocity": 0.5039370078740157,
                    "duration": 0.044378749999992806
                },
                {
                    "name": "A5",
                    "midi": 81,
                    "time": 138.46170000000015,
                    "velocity": 0.5511811023622047,
                    "duration": 0.17751499999999965
                },
                {
                    "name": "B5",
                    "midi": 83,
                    "time": 138.63921500000015,
                    "velocity": 0.5511811023622047,
                    "duration": 0.17751499999999965
                },
                {
                    "name": "F5",
                    "midi": 77,
                    "time": 138.81673000000015,
                    "velocity": 0.5275590551181102,
                    "duration": 0.710060000000027
                },
                {
                    "name": "C6",
                    "midi": 84,
                    "time": 138.81673000000015,
                    "velocity": 0.5905511811023622,
                    "duration": 0.11834333333334257
                },
                {
                    "name": "D6",
                    "midi": 86,
                    "time": 138.9350733333335,
                    "velocity": 0.5275590551181102,
                    "duration": 0.11834333333334257
                },
                {
                    "name": "C6",
                    "midi": 84,
                    "time": 139.05341666666683,
                    "velocity": 0.5275590551181102,
                    "duration": 0.11834333333334257
                },
                {
                    "name": "B5",
                    "midi": 83,
                    "time": 139.17176000000018,
                    "velocity": 0.5669291338582677,
                    "duration": 0.17751499999999965
                },
                {
                    "name": "A5",
                    "midi": 81,
                    "time": 139.34927500000018,
                    "velocity": 0.49606299212598426,
                    "duration": 0.17751499999999965
                },
                {
                    "name": "E5",
                    "midi": 76,
                    "time": 139.52679000000018,
                    "velocity": 0.5275590551181102,
                    "duration": 0.2662725000000137
                },
                {
                    "name": "G5",
                    "midi": 79,
                    "time": 139.52679000000018,
                    "velocity": 0.5905511811023622,
                    "duration": 0.2662725000000137
                },
                {
                    "name": "E5",
                    "midi": 76,
                    "time": 139.7930625000002,
                    "velocity": 0.4645669291338583,
                    "duration": 0.06656812500000342
                },
                {
                    "name": "G5",
                    "midi": 79,
                    "time": 139.7930625000002,
                    "velocity": 0.5196850393700787,
                    "duration": 0.06656812500000342
                },
                {
                    "name": "D5",
                    "midi": 74,
                    "time": 139.8818200000002,
                    "velocity": 0.47244094488188976,
                    "duration": 0.3550299999999993
                },
                {
                    "name": "F5",
                    "midi": 77,
                    "time": 139.8818200000002,
                    "velocity": 0.5275590551181102,
                    "duration": 0.3550299999999993
                },
                {
                    "name": "E5",
                    "midi": 76,
                    "time": 140.2368500000002,
                    "velocity": 0.4881889763779528,
                    "duration": 0.3550299999999993
                },
                {
                    "name": "C5",
                    "midi": 72,
                    "time": 140.2368500000002,
                    "velocity": 0.4409448818897638,
                    "duration": 0.3550299999999993
                },
                {
                    "name": "B4",
                    "midi": 71,
                    "time": 140.5918800000002,
                    "velocity": 0.4645669291338583,
                    "duration": 0.2662725000000137
                },
                {
                    "name": "D5",
                    "midi": 74,
                    "time": 140.5918800000002,
                    "velocity": 0.5196850393700787,
                    "duration": 0.2662725000000137
                },
                {
                    "name": "B4",
                    "midi": 71,
                    "time": 140.85815250000022,
                    "velocity": 0.41732283464566927,
                    "duration": 0.06656812500000342
                },
                {
                    "name": "D5",
                    "midi": 74,
                    "time": 140.85815250000022,
                    "velocity": 0.47244094488188976,
                    "duration": 0.06656812500000342
                },
                {
                    "name": "G5",
                    "midi": 79,
                    "time": 140.94691000000023,
                    "velocity": 0.5039370078740157,
                    "duration": 0.7100599999999986
                },
                {
                    "name": "A4",
                    "midi": 69,
                    "time": 141.30194000000023,
                    "velocity": 0.3937007874015748,
                    "duration": 0.3550299999999993
                },
                {
                    "name": "C5",
                    "midi": 72,
                    "time": 141.30194000000023,
                    "velocity": 0.3937007874015748,
                    "duration": 0.3550299999999993
                },
                {
                    "name": "E5",
                    "midi": 76,
                    "time": 141.30194000000023,
                    "velocity": 0.4409448818897638,
                    "duration": 0.3550299999999993
                },
                {
                    "name": "A4",
                    "midi": 69,
                    "time": 141.65697000000023,
                    "velocity": 0.41732283464566927,
                    "duration": 0.2662725000000137
                },
                {
                    "name": "C5",
                    "midi": 72,
                    "time": 141.65697000000023,
                    "velocity": 0.47244094488188976,
                    "duration": 0.2662725000000137
                },
                {
                    "name": "A4",
                    "midi": 69,
                    "time": 141.92324250000024,
                    "velocity": 0.4015748031496063,
                    "duration": 0.06656812500000342
                },
                {
                    "name": "C5",
                    "midi": 72,
                    "time": 141.92324250000024,
                    "velocity": 0.44881889763779526,
                    "duration": 0.06656812500000342
                },
                {
                    "name": "G5",
                    "midi": 79,
                    "time": 142.01200000000026,
                    "velocity": 0.48031496062992124,
                    "duration": 0.7100599999999986
                },
                {
                    "name": "B4",
                    "midi": 71,
                    "time": 142.36703000000026,
                    "velocity": 0.3779527559055118,
                    "duration": 0.3550299999999993
                },
                {
                    "name": "D5",
                    "midi": 74,
                    "time": 142.36703000000026,
                    "velocity": 0.41732283464566927,
                    "duration": 0.3550299999999993
                },
                {
                    "name": "F4",
                    "midi": 65,
                    "time": 143.03271125000026,
                    "velocity": 0.48031496062992124,
                    "duration": 0.7544387499999914
                },
                {
                    "name": "B4",
                    "midi": 71,
                    "time": 143.03271125000026,
                    "velocity": 0.5433070866141733,
                    "duration": 0.7544387499999914
                },
                {
                    "name": "E5",
                    "midi": 76,
                    "time": 143.07709000000025,
                    "velocity": 0.6141732283464567,
                    "duration": 0.5325449999999989
                },
                {
                    "name": "D5",
                    "midi": 74,
                    "time": 143.60963500000025,
                    "velocity": 0.5826771653543307,
                    "duration": 0.13313625000000684
                },
                {
                    "name": "C5",
                    "midi": 72,
                    "time": 143.74277125000026,
                    "velocity": 0.5039370078740157,
                    "duration": 0.044378749999992806
                },
                {
                    "name": "E4",
                    "midi": 64,
                    "time": 143.78715000000025,
                    "velocity": 0.5511811023622047,
                    "duration": 0.17751499999999965
                },
                {
                    "name": "E5",
                    "midi": 76,
                    "time": 143.78715000000025,
                    "velocity": 0.6220472440944882,
                    "duration": 0.17751499999999965
                },
                {
                    "name": "B4",
                    "midi": 71,
                    "time": 144.05342250000027,
                    "velocity": 0.5748031496062992,
                    "duration": 0.06656812500000342
                },
                {
                    "name": "E4",
                    "midi": 64,
                    "time": 144.14218000000028,
                    "velocity": 0.6220472440944882,
                    "duration": 0.17751499999999965
                },
                {
                    "name": "C5",
                    "midi": 72,
                    "time": 144.14218000000028,
                    "velocity": 0.6220472440944882,
                    "duration": 0.17751499999999965
                },
                {
                    "name": "D5",
                    "midi": 74,
                    "time": 144.4084525000003,
                    "velocity": 0.5433070866141733,
                    "duration": 0.06656812500000342
                },
                {
                    "name": "E4",
                    "midi": 64,
                    "time": 144.4972100000003,
                    "velocity": 0.5748031496062992,
                    "duration": 0.3106512500000065
                },
                {
                    "name": "E5",
                    "midi": 76,
                    "time": 144.4972100000003,
                    "velocity": 0.6377952755905512,
                    "duration": 0.3106512500000065
                },
                {
                    "name": "C5",
                    "midi": 72,
                    "time": 144.80786125000031,
                    "velocity": 0.4094488188976378,
                    "duration": 0.22189374999999245
                },
                {
                    "name": "E5",
                    "midi": 76,
                    "time": 144.8522400000003,
                    "velocity": 0.4645669291338583,
                    "duration": 0.17751499999999965
                },
                {
                    "name": "F#5",
                    "midi": 78,
                    "time": 145.11851250000032,
                    "velocity": 0.41732283464566927,
                    "duration": 0.06656812500000342
                },
                {
                    "name": "C5",
                    "midi": 72,
                    "time": 145.20727000000034,
                    "velocity": 0.4094488188976378,
                    "duration": 0.08875750000001403
                },
                {
                    "name": "G5",
                    "midi": 79,
                    "time": 145.20727000000034,
                    "velocity": 0.4645669291338583,
                    "duration": 0.08875750000001403
                },
                {
                    "name": "C5",
                    "midi": 72,
                    "time": 145.56230000000036,
                    "velocity": 0.4330708661417323,
                    "duration": 0.08875750000001403
                },
                {
                    "name": "A5",
                    "midi": 81,
                    "time": 145.56230000000036,
                    "velocity": 0.48031496062992124,
                    "duration": 0.08875750000001403
                },
                {
                    "name": "G5",
                    "midi": 79,
                    "time": 145.87295125000037,
                    "velocity": 0.4645669291338583,
                    "duration": 0.044378749999992806
                },
                {
                    "name": "B4",
                    "midi": 71,
                    "time": 145.91733000000036,
                    "velocity": 0.4566929133858268,
                    "duration": 0.7100599999999986
                },
                {
                    "name": "B5",
                    "midi": 83,
                    "time": 145.91733000000036,
                    "velocity": 0.5039370078740157,
                    "duration": 0.7100599999999986
                },
                {
                    "name": "B4",
                    "midi": 71,
                    "time": 146.62739000000036,
                    "velocity": 0.41732283464566927,
                    "duration": 0.3106512500000065
                },
                {
                    "name": "G5",
                    "midi": 79,
                    "time": 146.62739000000036,
                    "velocity": 0.47244094488188976,
                    "duration": 0.3106512500000065
                },
                {
                    "name": "F5",
                    "midi": 77,
                    "time": 146.93804125000037,
                    "velocity": 0.4881889763779528,
                    "duration": 0.044378749999992806
                },
                {
                    "name": "A5",
                    "midi": 81,
                    "time": 146.98242000000036,
                    "velocity": 0.5433070866141733,
                    "duration": 0.17751499999999965
                },
                {
                    "name": "B5",
                    "midi": 83,
                    "time": 147.15993500000036,
                    "velocity": 0.5511811023622047,
                    "duration": 0.17751499999999965
                },
                {
                    "name": "F5",
                    "midi": 77,
                    "time": 147.33745000000036,
                    "velocity": 0.5275590551181102,
                    "duration": 0.710060000000027
                },
                {
                    "name": "C6",
                    "midi": 84,
                    "time": 147.33745000000036,
                    "velocity": 0.5905511811023622,
                    "duration": 0.11834333333334257
                },
                {
                    "name": "D6",
                    "midi": 86,
                    "time": 147.4557933333337,
                    "velocity": 0.5275590551181102,
                    "duration": 0.11834333333334257
                },
                {
                    "name": "C6",
                    "midi": 84,
                    "time": 147.57413666666704,
                    "velocity": 0.5275590551181102,
                    "duration": 0.11834333333334257
                },
                {
                    "name": "B5",
                    "midi": 83,
                    "time": 147.6924800000004,
                    "velocity": 0.5669291338582677,
                    "duration": 0.17751499999999965
                },
                {
                    "name": "A5",
                    "midi": 81,
                    "time": 147.8699950000004,
                    "velocity": 0.49606299212598426,
                    "duration": 0.17751499999999965
                },
                {
                    "name": "E5",
                    "midi": 76,
                    "time": 148.0475100000004,
                    "velocity": 0.5275590551181102,
                    "duration": 0.2662725000000137
                },
                {
                    "name": "G5",
                    "midi": 79,
                    "time": 148.0475100000004,
                    "velocity": 0.5905511811023622,
                    "duration": 0.2662725000000137
                },
                {
                    "name": "E5",
                    "midi": 76,
                    "time": 148.3137825000004,
                    "velocity": 0.4645669291338583,
                    "duration": 0.06656812500000342
                },
                {
                    "name": "G5",
                    "midi": 79,
                    "time": 148.3137825000004,
                    "velocity": 0.5196850393700787,
                    "duration": 0.06656812500000342
                },
                {
                    "name": "D5",
                    "midi": 74,
                    "time": 148.4025400000004,
                    "velocity": 0.47244094488188976,
                    "duration": 0.3550299999999993
                },
                {
                    "name": "F5",
                    "midi": 77,
                    "time": 148.4025400000004,
                    "velocity": 0.5275590551181102,
                    "duration": 0.3550299999999993
                },
                {
                    "name": "E5",
                    "midi": 76,
                    "time": 148.7575700000004,
                    "velocity": 0.4881889763779528,
                    "duration": 0.3550299999999993
                },
                {
                    "name": "C5",
                    "midi": 72,
                    "time": 148.7575700000004,
                    "velocity": 0.4409448818897638,
                    "duration": 0.3550299999999993
                },
                {
                    "name": "B4",
                    "midi": 71,
                    "time": 149.1126000000004,
                    "velocity": 0.4645669291338583,
                    "duration": 0.2662725000000137
                },
                {
                    "name": "D5",
                    "midi": 74,
                    "time": 149.1126000000004,
                    "velocity": 0.5196850393700787,
                    "duration": 0.2662725000000137
                },
                {
                    "name": "B4",
                    "midi": 71,
                    "time": 149.37887250000043,
                    "velocity": 0.41732283464566927,
                    "duration": 0.06656812500000342
                },
                {
                    "name": "D5",
                    "midi": 74,
                    "time": 149.37887250000043,
                    "velocity": 0.47244094488188976,
                    "duration": 0.06656812500000342
                },
                {
                    "name": "G5",
                    "midi": 79,
                    "time": 149.46763000000044,
                    "velocity": 0.5039370078740157,
                    "duration": 0.7100599999999986
                },
                {
                    "name": "A4",
                    "midi": 69,
                    "time": 149.82266000000044,
                    "velocity": 0.3937007874015748,
                    "duration": 0.3550299999999993
                },
                {
                    "name": "C5",
                    "midi": 72,
                    "time": 149.82266000000044,
                    "velocity": 0.3937007874015748,
                    "duration": 0.3550299999999993
                },
                {
                    "name": "E5",
                    "midi": 76,
                    "time": 149.82266000000044,
                    "velocity": 0.4409448818897638,
                    "duration": 0.3550299999999993
                },
                {
                    "name": "D5",
                    "midi": 74,
                    "time": 150.17769000000044,
                    "velocity": 0.44881889763779526,
                    "duration": 0.3550299999999993
                },
                {
                    "name": "F4",
                    "midi": 65,
                    "time": 150.17769000000044,
                    "velocity": 0.4015748031496063,
                    "duration": 0.7100599999999986
                },
                {
                    "name": "B4",
                    "midi": 71,
                    "time": 150.17769000000044,
                    "velocity": 0.4015748031496063,
                    "duration": 0.7100599999999986
                },
                {
                    "name": "E5",
                    "midi": 76,
                    "time": 150.53272000000044,
                    "velocity": 0.41732283464566927,
                    "duration": 0.17751499999999965
                },
                {
                    "name": "D5",
                    "midi": 74,
                    "time": 150.71023500000044,
                    "velocity": 0.4015748031496063,
                    "duration": 0.17751499999999965
                },
                {
                    "name": "C5",
                    "midi": 72,
                    "time": 150.88775000000044,
                    "velocity": 0.3937007874015748,
                    "duration": 0.3550299999999993
                },
                {
                    "name": "E4",
                    "midi": 64,
                    "time": 150.88775000000044,
                    "velocity": 0.3464566929133858,
                    "duration": 0.3550299999999993
                },
                {
                    "name": "A4",
                    "midi": 69,
                    "time": 151.24278000000044,
                    "velocity": 0.3779527559055118,
                    "duration": 0.2662725000000137
                },
                {
                    "name": "C5",
                    "midi": 72,
                    "time": 151.24278000000044,
                    "velocity": 0.3779527559055118,
                    "duration": 0.2662725000000137
                },
                {
                    "name": "E5",
                    "midi": 76,
                    "time": 151.24278000000044,
                    "velocity": 0.44881889763779526,
                    "duration": 0.2662725000000137
                },
                {
                    "name": "A4",
                    "midi": 69,
                    "time": 151.50905250000045,
                    "velocity": 0.33070866141732286,
                    "duration": 0.08875750000001403
                },
                {
                    "name": "C5",
                    "midi": 72,
                    "time": 151.50905250000045,
                    "velocity": 0.33070866141732286,
                    "duration": 0.08875750000001403
                },
                {
                    "name": "E5",
                    "midi": 76,
                    "time": 151.50905250000045,
                    "velocity": 0.4015748031496063,
                    "duration": 0.08875750000001403
                },
                {
                    "name": "G5",
                    "midi": 79,
                    "time": 151.59781000000046,
                    "velocity": 0.4566929133858268,
                    "duration": 0.7100599999999986
                },
                {
                    "name": "B4",
                    "midi": 71,
                    "time": 151.95284000000046,
                    "velocity": 0.31496062992125984,
                    "duration": 0.3550299999999993
                },
                {
                    "name": "D5",
                    "midi": 74,
                    "time": 151.95284000000046,
                    "velocity": 0.3543307086614173,
                    "duration": 0.3550299999999993
                },
                {
                    "name": "A4",
                    "midi": 69,
                    "time": 152.30787000000046,
                    "velocity": 0.3779527559055118,
                    "duration": 0.2662725000000137
                },
                {
                    "name": "C5",
                    "midi": 72,
                    "time": 152.30787000000046,
                    "velocity": 0.3779527559055118,
                    "duration": 0.2662725000000137
                },
                {
                    "name": "E5",
                    "midi": 76,
                    "time": 152.30787000000046,
                    "velocity": 0.44881889763779526,
                    "duration": 0.2662725000000137
                },
                {
                    "name": "A4",
                    "midi": 69,
                    "time": 152.57414250000048,
                    "velocity": 0.33070866141732286,
                    "duration": 0.08875750000001403
                },
                {
                    "name": "C5",
                    "midi": 72,
                    "time": 152.57414250000048,
                    "velocity": 0.33070866141732286,
                    "duration": 0.08875750000001403
                },
                {
                    "name": "E5",
                    "midi": 76,
                    "time": 152.57414250000048,
                    "velocity": 0.4015748031496063,
                    "duration": 0.08875750000001403
                },
                {
                    "name": "G5",
                    "midi": 79,
                    "time": 152.6629000000005,
                    "velocity": 0.4566929133858268,
                    "duration": 0.7100599999999986
                },
                {
                    "name": "B4",
                    "midi": 71,
                    "time": 153.0179300000005,
                    "velocity": 0.31496062992125984,
                    "duration": 0.3550299999999993
                },
                {
                    "name": "D5",
                    "midi": 74,
                    "time": 153.0179300000005,
                    "velocity": 0.3543307086614173,
                    "duration": 0.3550299999999993
                },
                {
                    "name": "D4",
                    "midi": 62,
                    "time": 153.3729600000005,
                    "velocity": 0.3543307086614173,
                    "duration": 0.2662725000000137
                },
                {
                    "name": "F4",
                    "midi": 65,
                    "time": 153.3729600000005,
                    "velocity": 0.3543307086614173,
                    "duration": 0.2662725000000137
                },
                {
                    "name": "A4",
                    "midi": 69,
                    "time": 153.3729600000005,
                    "velocity": 0.41732283464566927,
                    "duration": 0.2662725000000137
                },
                {
                    "name": "D4",
                    "midi": 62,
                    "time": 153.6392325000005,
                    "velocity": 0.31496062992125984,
                    "duration": 0.08875750000001403
                },
                {
                    "name": "F4",
                    "midi": 65,
                    "time": 153.6392325000005,
                    "velocity": 0.31496062992125984,
                    "duration": 0.08875750000001403
                },
                {
                    "name": "A4",
                    "midi": 69,
                    "time": 153.6392325000005,
                    "velocity": 0.3779527559055118,
                    "duration": 0.08875750000001403
                },
                {
                    "name": "C5",
                    "midi": 72,
                    "time": 153.72799000000052,
                    "velocity": 0.4330708661417323,
                    "duration": 0.7100599999999986
                },
                {
                    "name": "E4",
                    "midi": 64,
                    "time": 154.08302000000052,
                    "velocity": 0.2992125984251969,
                    "duration": 0.3550299999999993
                },
                {
                    "name": "G4",
                    "midi": 67,
                    "time": 154.08302000000052,
                    "velocity": 0.3228346456692913,
                    "duration": 0.3550299999999993
                },
                {
                    "name": "D4",
                    "midi": 62,
                    "time": 154.43805000000052,
                    "velocity": 0.3543307086614173,
                    "duration": 0.2662725000000137
                },
                {
                    "name": "F4",
                    "midi": 65,
                    "time": 154.43805000000052,
                    "velocity": 0.3543307086614173,
                    "duration": 0.2662725000000137
                },
                {
                    "name": "A4",
                    "midi": 69,
                    "time": 154.43805000000052,
                    "velocity": 0.41732283464566927,
                    "duration": 0.2662725000000137
                },
                {
                    "name": "D4",
                    "midi": 62,
                    "time": 154.70432250000053,
                    "velocity": 0.31496062992125984,
                    "duration": 0.08875750000001403
                },
                {
                    "name": "F4",
                    "midi": 65,
                    "time": 154.70432250000053,
                    "velocity": 0.31496062992125984,
                    "duration": 0.08875750000001403
                },
                {
                    "name": "A4",
                    "midi": 69,
                    "time": 154.70432250000053,
                    "velocity": 0.3779527559055118,
                    "duration": 0.08875750000001403
                },
                {
                    "name": "C5",
                    "midi": 72,
                    "time": 154.79308000000054,
                    "velocity": 0.4330708661417323,
                    "duration": 0.7100599999999986
                },
                {
                    "name": "E4",
                    "midi": 64,
                    "time": 155.14811000000054,
                    "velocity": 0.2992125984251969,
                    "duration": 0.3550299999999993
                },
                {
                    "name": "G4",
                    "midi": 67,
                    "time": 155.14811000000054,
                    "velocity": 0.3228346456692913,
                    "duration": 0.3550299999999993
                },
                {
                    "name": "F4",
                    "midi": 65,
                    "time": 155.50314000000054,
                    "velocity": 0.3228346456692913,
                    "duration": 0.2662725000000137
                },
                {
                    "name": "A4",
                    "midi": 69,
                    "time": 155.50314000000054,
                    "velocity": 0.3937007874015748,
                    "duration": 0.2662725000000137
                },
                {
                    "name": "D4",
                    "midi": 62,
                    "time": 155.50314000000054,
                    "velocity": 0.3228346456692913,
                    "duration": 0.2662725000000137
                },
                {
                    "name": "F4",
                    "midi": 65,
                    "time": 155.76941250000056,
                    "velocity": 0.2992125984251969,
                    "duration": 0.08875750000001403
                },
                {
                    "name": "A4",
                    "midi": 69,
                    "time": 155.76941250000056,
                    "velocity": 0.3543307086614173,
                    "duration": 0.08875750000001403
                },
                {
                    "name": "D4",
                    "midi": 62,
                    "time": 155.76941250000056,
                    "velocity": 0.2992125984251969,
                    "duration": 0.08875750000001403
                },
                {
                    "name": "C5",
                    "midi": 72,
                    "time": 155.85817000000057,
                    "velocity": 0.4015748031496063,
                    "duration": 0.7100599999999986
                },
                {
                    "name": "E4",
                    "midi": 64,
                    "time": 156.21320000000057,
                    "velocity": 0.28346456692913385,
                    "duration": 0.3550299999999993
                },
                {
                    "name": "G4",
                    "midi": 67,
                    "time": 156.21320000000057,
                    "velocity": 0.30708661417322836,
                    "duration": 0.3550299999999993
                },
                {
                    "name": "C6",
                    "midi": 84,
                    "time": 156.92326000000057,
                    "velocity": 0.6771653543307087,
                    "duration": 0.3550299999999993
                },
                {
                    "name": "E5",
                    "midi": 76,
                    "time": 156.92326000000057,
                    "velocity": 0.6062992125984252,
                    "duration": 0.3550299999999993
                }
            ],
            "controlChanges": {
                "7": [
                    {
                        "number": 7,
                        "time": 0,
                        "value": 0.7874015748031497
                    }
                ],
                "64": [
                    {
                        "number": 64,
                        "time": 0,
                        "value": 0
                    }
                ],
                "91": [
                    {
                        "number": 91,
                        "time": 0,
                        "value": 1
                    }
                ]
            },
            "id": 1,
            "name": "Piano right",
            "instrumentNumber": 0,
            "instrument": "acoustic grand piano",
            "instrumentFamily": "piano",
            "channelNumber": 0,
            "isPercussion": false
        },
        {
            "startTime": 0,
            "duration": 157.27829000000008,
            "length": 361,
            "notes": [
                {
                    "name": "F4",
                    "midi": 65,
                    "time": 0,
                    "velocity": 0.2992125984251969,
                    "duration": 1.06509
                },
                {
                    "name": "F4",
                    "midi": 65,
                    "time": 1.06509,
                    "velocity": 0.3464566929133858,
                    "duration": 1.06509
                },
                {
                    "name": "F4",
                    "midi": 65,
                    "time": 2.13018,
                    "velocity": 0.3779527559055118,
                    "duration": 0.7100599999999999
                },
                {
                    "name": "F4",
                    "midi": 65,
                    "time": 2.84024,
                    "velocity": 0.4015748031496063,
                    "duration": 0.7100599999999999
                },
                {
                    "name": "F4",
                    "midi": 65,
                    "time": 3.5503,
                    "velocity": 0.4330708661417323,
                    "duration": 0.7100600000000004
                },
                {
                    "name": "C2",
                    "midi": 36,
                    "time": 4.26036,
                    "velocity": 0.5748031496062992,
                    "duration": 0.3550300000000002
                },
                {
                    "name": "G2",
                    "midi": 43,
                    "time": 4.26036,
                    "velocity": 0.5748031496062992,
                    "duration": 0.3550300000000002
                },
                {
                    "name": "G4",
                    "midi": 67,
                    "time": 4.6153900000000005,
                    "velocity": 0.49606299212598426,
                    "duration": 0.7100600000000004
                },
                {
                    "name": "C2",
                    "midi": 36,
                    "time": 5.325450000000001,
                    "velocity": 0.5748031496062992,
                    "duration": 0.3550300000000002
                },
                {
                    "name": "G2",
                    "midi": 43,
                    "time": 5.325450000000001,
                    "velocity": 0.5748031496062992,
                    "duration": 0.3550300000000002
                },
                {
                    "name": "G3",
                    "midi": 55,
                    "time": 5.680480000000001,
                    "velocity": 0.47244094488188976,
                    "duration": 0.3550300000000002
                },
                {
                    "name": "C4",
                    "midi": 60,
                    "time": 6.035510000000001,
                    "velocity": 0.5275590551181102,
                    "duration": 0.3550299999999993
                },
                {
                    "name": "D3",
                    "midi": 50,
                    "time": 6.3905400000000006,
                    "velocity": 0.4330708661417323,
                    "duration": 0.3550299999999993
                },
                {
                    "name": "E4",
                    "midi": 64,
                    "time": 6.74557,
                    "velocity": 0.41732283464566927,
                    "duration": 0.08875749999999982
                },
                {
                    "name": "F#4",
                    "midi": 66,
                    "time": 7.1006,
                    "velocity": 0.4409448818897638,
                    "duration": 0.08875749999999982
                },
                {
                    "name": "G4",
                    "midi": 67,
                    "time": 7.455629999999999,
                    "velocity": 0.49606299212598426,
                    "duration": 0.3550300000000002
                },
                {
                    "name": "D4",
                    "midi": 62,
                    "time": 7.8106599999999995,
                    "velocity": 0.4409448818897638,
                    "duration": 0.3550300000000002
                },
                {
                    "name": "G3",
                    "midi": 55,
                    "time": 8.16569,
                    "velocity": 0.44881889763779526,
                    "duration": 0.31065125000000116
                },
                {
                    "name": "C4",
                    "midi": 60,
                    "time": 8.52072,
                    "velocity": 0.4881889763779528,
                    "duration": 0.3550299999999993
                },
                {
                    "name": "F3",
                    "midi": 53,
                    "time": 8.52072,
                    "velocity": 0.4881889763779528,
                    "duration": 0.3550299999999993
                },
                {
                    "name": "A4",
                    "midi": 69,
                    "time": 8.87575,
                    "velocity": 0.5275590551181102,
                    "duration": 0.7100600000000004
                },
                {
                    "name": "D4",
                    "midi": 62,
                    "time": 8.87575,
                    "velocity": 0.47244094488188976,
                    "duration": 0.7100600000000004
                },
                {
                    "name": "G3",
                    "midi": 55,
                    "time": 9.58581,
                    "velocity": 0.4409448818897638,
                    "duration": 0.35503000000000107
                },
                {
                    "name": "G4",
                    "midi": 67,
                    "time": 9.940840000000001,
                    "velocity": 0.4566929133858268,
                    "duration": 0.7100600000000004
                },
                {
                    "name": "G3",
                    "midi": 55,
                    "time": 10.650900000000002,
                    "velocity": 0.3937007874015748,
                    "duration": 0.3550299999999993
                },
                {
                    "name": "G4",
                    "midi": 67,
                    "time": 11.360960000000002,
                    "velocity": 0.44881889763779526,
                    "duration": 0.3550299999999993
                },
                {
                    "name": "G3",
                    "midi": 55,
                    "time": 11.715990000000001,
                    "velocity": 0.4015748031496063,
                    "duration": 0.3550299999999993
                },
                {
                    "name": "G4",
                    "midi": 67,
                    "time": 12.42605,
                    "velocity": 0.4409448818897638,
                    "duration": 0.35503000000000107
                },
                {
                    "name": "G2",
                    "midi": 43,
                    "time": 12.781080000000001,
                    "velocity": 0.5748031496062992,
                    "duration": 0.3550299999999993
                },
                {
                    "name": "C2",
                    "midi": 36,
                    "time": 12.781080000000001,
                    "velocity": 0.5748031496062992,
                    "duration": 0.3550299999999993
                },
                {
                    "name": "G4",
                    "midi": 67,
                    "time": 13.13611,
                    "velocity": 0.49606299212598426,
                    "duration": 0.7100600000000004
                },
                {
                    "name": "C2",
                    "midi": 36,
                    "time": 13.84617,
                    "velocity": 0.5748031496062992,
                    "duration": 0.3550299999999993
                },
                {
                    "name": "G2",
                    "midi": 43,
                    "time": 13.84617,
                    "velocity": 0.5748031496062992,
                    "duration": 0.3550299999999993
                },
                {
                    "name": "G3",
                    "midi": 55,
                    "time": 14.2012,
                    "velocity": 0.44881889763779526,
                    "duration": 0.3550299999999993
                },
                {
                    "name": "C4",
                    "midi": 60,
                    "time": 14.55623,
                    "velocity": 0.5275590551181102,
                    "duration": 0.3550299999999993
                },
                {
                    "name": "D3",
                    "midi": 50,
                    "time": 14.911259999999999,
                    "velocity": 0.4330708661417323,
                    "duration": 0.3550299999999993
                },
                {
                    "name": "E4",
                    "midi": 64,
                    "time": 15.266289999999998,
                    "velocity": 0.41732283464566927,
                    "duration": 0.08875749999999982
                },
                {
                    "name": "F#4",
                    "midi": 66,
                    "time": 15.621319999999997,
                    "velocity": 0.4409448818897638,
                    "duration": 0.08875749999999982
                },
                {
                    "name": "G4",
                    "midi": 67,
                    "time": 15.976349999999996,
                    "velocity": 0.49606299212598426,
                    "duration": 0.3550299999999993
                },
                {
                    "name": "D4",
                    "midi": 62,
                    "time": 16.331379999999996,
                    "velocity": 0.4566929133858268,
                    "duration": 0.3550299999999993
                },
                {
                    "name": "G3",
                    "midi": 55,
                    "time": 16.686409999999995,
                    "velocity": 0.44881889763779526,
                    "duration": 0.3106512499999994
                },
                {
                    "name": "C4",
                    "midi": 60,
                    "time": 17.041439999999994,
                    "velocity": 0.4881889763779528,
                    "duration": 0.3550299999999993
                },
                {
                    "name": "F3",
                    "midi": 53,
                    "time": 17.041439999999994,
                    "velocity": 0.4881889763779528,
                    "duration": 0.3550299999999993
                },
                {
                    "name": "A4",
                    "midi": 69,
                    "time": 17.396469999999994,
                    "velocity": 0.5275590551181102,
                    "duration": 0.7100599999999986
                },
                {
                    "name": "D4",
                    "midi": 62,
                    "time": 17.396469999999994,
                    "velocity": 0.47244094488188976,
                    "duration": 0.7100599999999986
                },
                {
                    "name": "G3",
                    "midi": 55,
                    "time": 18.106529999999992,
                    "velocity": 0.4409448818897638,
                    "duration": 0.3550299999999993
                },
                {
                    "name": "G4",
                    "midi": 67,
                    "time": 18.46155999999999,
                    "velocity": 0.4566929133858268,
                    "duration": 0.7100599999999986
                },
                {
                    "name": "G3",
                    "midi": 55,
                    "time": 19.17161999999999,
                    "velocity": 0.3937007874015748,
                    "duration": 0.3550299999999993
                },
                {
                    "name": "G4",
                    "midi": 67,
                    "time": 19.88167999999999,
                    "velocity": 0.3937007874015748,
                    "duration": 0.3550299999999993
                },
                {
                    "name": "G4",
                    "midi": 67,
                    "time": 20.236709999999988,
                    "velocity": 0.4330708661417323,
                    "duration": 0.7100599999999986
                },
                {
                    "name": "C4",
                    "midi": 60,
                    "time": 20.946769999999987,
                    "velocity": 0.33070866141732286,
                    "duration": 0.3550299999999993
                },
                {
                    "name": "G2",
                    "midi": 43,
                    "time": 21.301799999999986,
                    "velocity": 0.3858267716535433,
                    "duration": 1.0650899999999979
                },
                {
                    "name": "D3",
                    "midi": 50,
                    "time": 21.656829999999985,
                    "velocity": 0.2992125984251969,
                    "duration": 0.3550299999999993
                },
                {
                    "name": "E3",
                    "midi": 52,
                    "time": 22.011859999999984,
                    "velocity": 0.33070866141732286,
                    "duration": 0.3550299999999993
                },
                {
                    "name": "G2",
                    "midi": 43,
                    "time": 22.366889999999984,
                    "velocity": 0.3858267716535433,
                    "duration": 1.0650899999999979
                },
                {
                    "name": "D3",
                    "midi": 50,
                    "time": 22.721919999999983,
                    "velocity": 0.2992125984251969,
                    "duration": 0.3550299999999993
                },
                {
                    "name": "E3",
                    "midi": 52,
                    "time": 23.076949999999982,
                    "velocity": 0.30708661417322836,
                    "duration": 0.3550299999999993
                },
                {
                    "name": "G2",
                    "midi": 43,
                    "time": 23.43197999999998,
                    "velocity": 0.3858267716535433,
                    "duration": 1.0650900000000014
                },
                {
                    "name": "E3",
                    "midi": 52,
                    "time": 23.78700999999998,
                    "velocity": 0.31496062992125984,
                    "duration": 0.3550299999999993
                },
                {
                    "name": "F#3",
                    "midi": 54,
                    "time": 24.14203999999998,
                    "velocity": 0.31496062992125984,
                    "duration": 0.35503000000000284
                },
                {
                    "name": "G2",
                    "midi": 43,
                    "time": 24.497069999999983,
                    "velocity": 0.3858267716535433,
                    "duration": 1.0650899999999979
                },
                {
                    "name": "G3",
                    "midi": 55,
                    "time": 24.852099999999982,
                    "velocity": 0.3464566929133858,
                    "duration": 0.3550299999999993
                },
                {
                    "name": "G3",
                    "midi": 55,
                    "time": 25.56215999999998,
                    "velocity": 0.3858267716535433,
                    "duration": 1.0650899999999979
                },
                {
                    "name": "D4",
                    "midi": 62,
                    "time": 25.91718999999998,
                    "velocity": 0.2992125984251969,
                    "duration": 0.3550299999999993
                },
                {
                    "name": "E4",
                    "midi": 64,
                    "time": 26.27221999999998,
                    "velocity": 0.33070866141732286,
                    "duration": 0.3550299999999993
                },
                {
                    "name": "G3",
                    "midi": 55,
                    "time": 26.62724999999998,
                    "velocity": 0.3858267716535433,
                    "duration": 1.0650899999999979
                },
                {
                    "name": "D4",
                    "midi": 62,
                    "time": 26.982279999999978,
                    "velocity": 0.2992125984251969,
                    "duration": 0.3550299999999993
                },
                {
                    "name": "E4",
                    "midi": 64,
                    "time": 27.337309999999977,
                    "velocity": 0.30708661417322836,
                    "duration": 0.3550299999999993
                },
                {
                    "name": "G3",
                    "midi": 55,
                    "time": 27.692339999999977,
                    "velocity": 0.3858267716535433,
                    "duration": 1.0650900000000014
                },
                {
                    "name": "E4",
                    "midi": 64,
                    "time": 28.047369999999976,
                    "velocity": 0.31496062992125984,
                    "duration": 0.3550299999999993
                },
                {
                    "name": "F#4",
                    "midi": 66,
                    "time": 28.402399999999975,
                    "velocity": 0.31496062992125984,
                    "duration": 0.35503000000000284
                },
                {
                    "name": "G4",
                    "midi": 67,
                    "time": 28.757429999999978,
                    "velocity": 0.3464566929133858,
                    "duration": 0.3550299999999993
                },
                {
                    "name": "G2",
                    "midi": 43,
                    "time": 29.822519999999976,
                    "velocity": 0.3858267716535433,
                    "duration": 1.0650899999999979
                },
                {
                    "name": "D3",
                    "midi": 50,
                    "time": 30.177549999999975,
                    "velocity": 0.2992125984251969,
                    "duration": 0.3550299999999993
                },
                {
                    "name": "E3",
                    "midi": 52,
                    "time": 30.532579999999975,
                    "velocity": 0.33070866141732286,
                    "duration": 0.3550299999999993
                },
                {
                    "name": "G2",
                    "midi": 43,
                    "time": 30.887609999999974,
                    "velocity": 0.3858267716535433,
                    "duration": 1.0650899999999979
                },
                {
                    "name": "D3",
                    "midi": 50,
                    "time": 31.242639999999973,
                    "velocity": 0.2992125984251969,
                    "duration": 0.3550299999999993
                },
                {
                    "name": "E3",
                    "midi": 52,
                    "time": 31.597669999999972,
                    "velocity": 0.30708661417322836,
                    "duration": 0.3550299999999993
                },
                {
                    "name": "G2",
                    "midi": 43,
                    "time": 31.95269999999997,
                    "velocity": 0.3858267716535433,
                    "duration": 1.0650899999999979
                },
                {
                    "name": "E3",
                    "midi": 52,
                    "time": 32.30772999999997,
                    "velocity": 0.31496062992125984,
                    "duration": 0.3550299999999993
                },
                {
                    "name": "F#3",
                    "midi": 54,
                    "time": 32.66275999999997,
                    "velocity": 0.31496062992125984,
                    "duration": 0.3550299999999993
                },
                {
                    "name": "G2",
                    "midi": 43,
                    "time": 33.01778999999997,
                    "velocity": 0.3858267716535433,
                    "duration": 1.0650899999999979
                },
                {
                    "name": "G3",
                    "midi": 55,
                    "time": 33.37281999999997,
                    "velocity": 0.3464566929133858,
                    "duration": 0.3550299999999993
                },
                {
                    "name": "G3",
                    "midi": 55,
                    "time": 34.08287999999997,
                    "velocity": 0.3858267716535433,
                    "duration": 1.0650899999999979
                },
                {
                    "name": "D4",
                    "midi": 62,
                    "time": 34.43790999999997,
                    "velocity": 0.2992125984251969,
                    "duration": 0.3550299999999993
                },
                {
                    "name": "E4",
                    "midi": 64,
                    "time": 34.792939999999966,
                    "velocity": 0.33070866141732286,
                    "duration": 0.3550299999999993
                },
                {
                    "name": "G3",
                    "midi": 55,
                    "time": 35.147969999999965,
                    "velocity": 0.3858267716535433,
                    "duration": 1.0650899999999979
                },
                {
                    "name": "D4",
                    "midi": 62,
                    "time": 35.502999999999965,
                    "velocity": 0.2992125984251969,
                    "duration": 0.3550299999999993
                },
                {
                    "name": "E4",
                    "midi": 64,
                    "time": 35.858029999999964,
                    "velocity": 0.30708661417322836,
                    "duration": 0.3550299999999993
                },
                {
                    "name": "G3",
                    "midi": 55,
                    "time": 36.21305999999996,
                    "velocity": 0.3858267716535433,
                    "duration": 1.065090000000005
                },
                {
                    "name": "E4",
                    "midi": 64,
                    "time": 36.56808999999996,
                    "velocity": 0.4566929133858268,
                    "duration": 0.7100600000000057
                },
                {
                    "name": "F4",
                    "midi": 65,
                    "time": 37.27814999999997,
                    "velocity": 0.44881889763779526,
                    "duration": 3.1952700000000007
                },
                {
                    "name": "F4",
                    "midi": 65,
                    "time": 40.47341999999997,
                    "velocity": 0.2992125984251969,
                    "duration": 1.0650899999999979
                },
                {
                    "name": "F4",
                    "midi": 65,
                    "time": 41.53850999999997,
                    "velocity": 0.3464566929133858,
                    "duration": 1.0650899999999979
                },
                {
                    "name": "F4",
                    "midi": 65,
                    "time": 42.603599999999965,
                    "velocity": 0.3779527559055118,
                    "duration": 0.7100600000000057
                },
                {
                    "name": "F4",
                    "midi": 65,
                    "time": 43.31365999999997,
                    "velocity": 0.4015748031496063,
                    "duration": 0.7100599999999986
                },
                {
                    "name": "F4",
                    "midi": 65,
                    "time": 44.02371999999997,
                    "velocity": 0.4330708661417323,
                    "duration": 0.7100599999999986
                },
                {
                    "name": "C2",
                    "midi": 36,
                    "time": 44.73377999999997,
                    "velocity": 0.5748031496062992,
                    "duration": 0.3550299999999993
                },
                {
                    "name": "G2",
                    "midi": 43,
                    "time": 44.73377999999997,
                    "velocity": 0.5748031496062992,
                    "duration": 0.3550299999999993
                },
                {
                    "name": "G4",
                    "midi": 67,
                    "time": 45.08880999999997,
                    "velocity": 0.49606299212598426,
                    "duration": 0.7100599999999986
                },
                {
                    "name": "C2",
                    "midi": 36,
                    "time": 45.798869999999965,
                    "velocity": 0.5748031496062992,
                    "duration": 0.3550299999999993
                },
                {
                    "name": "G2",
                    "midi": 43,
                    "time": 45.798869999999965,
                    "velocity": 0.5748031496062992,
                    "duration": 0.3550299999999993
                },
                {
                    "name": "G3",
                    "midi": 55,
                    "time": 46.153899999999965,
                    "velocity": 0.4645669291338583,
                    "duration": 0.3550299999999993
                },
                {
                    "name": "C4",
                    "midi": 60,
                    "time": 46.508929999999964,
                    "velocity": 0.5275590551181102,
                    "duration": 0.3550299999999993
                },
                {
                    "name": "D3",
                    "midi": 50,
                    "time": 46.86395999999996,
                    "velocity": 0.4330708661417323,
                    "duration": 0.3550300000000064
                },
                {
                    "name": "E4",
                    "midi": 64,
                    "time": 47.21898999999997,
                    "velocity": 0.41732283464566927,
                    "duration": 0.08875749999999982
                },
                {
                    "name": "F#4",
                    "midi": 66,
                    "time": 47.57401999999997,
                    "velocity": 0.4409448818897638,
                    "duration": 0.08875749999999982
                },
                {
                    "name": "G4",
                    "midi": 67,
                    "time": 47.92904999999997,
                    "velocity": 0.49606299212598426,
                    "duration": 0.3550299999999993
                },
                {
                    "name": "D4",
                    "midi": 62,
                    "time": 48.28407999999997,
                    "velocity": 0.4566929133858268,
                    "duration": 0.3550299999999993
                },
                {
                    "name": "G3",
                    "midi": 55,
                    "time": 48.63910999999997,
                    "velocity": 0.44881889763779526,
                    "duration": 0.3106512499999994
                },
                {
                    "name": "C4",
                    "midi": 60,
                    "time": 48.994139999999966,
                    "velocity": 0.4881889763779528,
                    "duration": 0.3550300000000064
                },
                {
                    "name": "F3",
                    "midi": 53,
                    "time": 48.994139999999966,
                    "velocity": 0.4881889763779528,
                    "duration": 0.3550300000000064
                },
                {
                    "name": "A4",
                    "midi": 69,
                    "time": 49.34916999999997,
                    "velocity": 0.5275590551181102,
                    "duration": 0.7100599999999986
                },
                {
                    "name": "D4",
                    "midi": 62,
                    "time": 49.34916999999997,
                    "velocity": 0.47244094488188976,
                    "duration": 0.7100599999999986
                },
                {
                    "name": "G3",
                    "midi": 55,
                    "time": 50.05922999999997,
                    "velocity": 0.4409448818897638,
                    "duration": 0.3550299999999993
                },
                {
                    "name": "G4",
                    "midi": 67,
                    "time": 50.41425999999997,
                    "velocity": 0.4566929133858268,
                    "duration": 0.7100599999999986
                },
                {
                    "name": "G3",
                    "midi": 55,
                    "time": 51.12431999999997,
                    "velocity": 0.3937007874015748,
                    "duration": 0.3550299999999993
                },
                {
                    "name": "G4",
                    "midi": 67,
                    "time": 51.83437999999997,
                    "velocity": 0.44881889763779526,
                    "duration": 0.3550299999999993
                },
                {
                    "name": "G3",
                    "midi": 55,
                    "time": 52.18940999999997,
                    "velocity": 0.4015748031496063,
                    "duration": 0.3550299999999993
                },
                {
                    "name": "G4",
                    "midi": 67,
                    "time": 52.899469999999965,
                    "velocity": 0.4409448818897638,
                    "duration": 0.3550299999999993
                },
                {
                    "name": "G2",
                    "midi": 43,
                    "time": 53.254499999999965,
                    "velocity": 0.5748031496062992,
                    "duration": 0.3550299999999993
                },
                {
                    "name": "C2",
                    "midi": 36,
                    "time": 53.254499999999965,
                    "velocity": 0.5748031496062992,
                    "duration": 0.3550299999999993
                },
                {
                    "name": "G4",
                    "midi": 67,
                    "time": 53.609529999999964,
                    "velocity": 0.49606299212598426,
                    "duration": 0.7100599999999986
                },
                {
                    "name": "C2",
                    "midi": 36,
                    "time": 54.31958999999996,
                    "velocity": 0.5748031496062992,
                    "duration": 0.3550299999999993
                },
                {
                    "name": "G2",
                    "midi": 43,
                    "time": 54.31958999999996,
                    "velocity": 0.5748031496062992,
                    "duration": 0.3550299999999993
                },
                {
                    "name": "G3",
                    "midi": 55,
                    "time": 54.67461999999996,
                    "velocity": 0.4645669291338583,
                    "duration": 0.3550299999999993
                },
                {
                    "name": "C4",
                    "midi": 60,
                    "time": 55.02964999999996,
                    "velocity": 0.5275590551181102,
                    "duration": 0.3550299999999993
                },
                {
                    "name": "D3",
                    "midi": 50,
                    "time": 55.38467999999996,
                    "velocity": 0.4330708661417323,
                    "duration": 0.3550300000000064
                },
                {
                    "name": "E4",
                    "midi": 64,
                    "time": 55.73970999999997,
                    "velocity": 0.41732283464566927,
                    "duration": 0.08875749999999982
                },
                {
                    "name": "F#4",
                    "midi": 66,
                    "time": 56.094739999999966,
                    "velocity": 0.4409448818897638,
                    "duration": 0.08875749999999982
                },
                {
                    "name": "G4",
                    "midi": 67,
                    "time": 56.449769999999965,
                    "velocity": 0.49606299212598426,
                    "duration": 0.3550299999999993
                },
                {
                    "name": "D4",
                    "midi": 62,
                    "time": 56.804799999999965,
                    "velocity": 0.44881889763779526,
                    "duration": 0.3550299999999993
                },
                {
                    "name": "G3",
                    "midi": 55,
                    "time": 57.159829999999964,
                    "velocity": 0.44881889763779526,
                    "duration": 0.3106512499999994
                },
                {
                    "name": "C4",
                    "midi": 60,
                    "time": 57.51485999999996,
                    "velocity": 0.4881889763779528,
                    "duration": 0.3550300000000064
                },
                {
                    "name": "F3",
                    "midi": 53,
                    "time": 57.51485999999996,
                    "velocity": 0.4881889763779528,
                    "duration": 0.3550300000000064
                },
                {
                    "name": "A4",
                    "midi": 69,
                    "time": 57.86988999999997,
                    "velocity": 0.5275590551181102,
                    "duration": 0.7100599999999986
                },
                {
                    "name": "D4",
                    "midi": 62,
                    "time": 57.86988999999997,
                    "velocity": 0.47244094488188976,
                    "duration": 0.7100599999999986
                },
                {
                    "name": "G3",
                    "midi": 55,
                    "time": 58.57994999999997,
                    "velocity": 0.4409448818897638,
                    "duration": 0.3550299999999993
                },
                {
                    "name": "G4",
                    "midi": 67,
                    "time": 58.93497999999997,
                    "velocity": 0.4566929133858268,
                    "duration": 0.7100599999999986
                },
                {
                    "name": "G3",
                    "midi": 55,
                    "time": 59.645039999999966,
                    "velocity": 0.3937007874015748,
                    "duration": 0.3550299999999993
                },
                {
                    "name": "G4",
                    "midi": 67,
                    "time": 60.355099999999965,
                    "velocity": 0.3937007874015748,
                    "duration": 0.3550299999999993
                },
                {
                    "name": "G4",
                    "midi": 67,
                    "time": 60.710129999999964,
                    "velocity": 0.4330708661417323,
                    "duration": 0.7100599999999986
                },
                {
                    "name": "C4",
                    "midi": 60,
                    "time": 61.42018999999996,
                    "velocity": 0.36220472440944884,
                    "duration": 0.3550299999999993
                },
                {
                    "name": "D#3",
                    "midi": 51,
                    "time": 61.77521999999996,
                    "velocity": 0.36220472440944884,
                    "duration": 1.0650899999999979
                },
                {
                    "name": "D#3",
                    "midi": 51,
                    "time": 62.84030999999996,
                    "velocity": 0.36220472440944884,
                    "duration": 1.065090000000005
                },
                {
                    "name": "D#3",
                    "midi": 51,
                    "time": 63.905399999999965,
                    "velocity": 0.36220472440944884,
                    "duration": 1.065090000000005
                },
                {
                    "name": "D#3",
                    "midi": 51,
                    "time": 64.97048999999997,
                    "velocity": 0.3543307086614173,
                    "duration": 1.0650899999999979
                },
                {
                    "name": "D#4",
                    "midi": 63,
                    "time": 65.32551999999997,
                    "velocity": 0.3858267716535433,
                    "duration": 0.3550299999999993
                },
                {
                    "name": "D4",
                    "midi": 62,
                    "time": 65.68054999999997,
                    "velocity": 0.3543307086614173,
                    "duration": 0.3550299999999993
                },
                {
                    "name": "D#3",
                    "midi": 51,
                    "time": 66.03557999999997,
                    "velocity": 0.3700787401574803,
                    "duration": 1.0650899999999979
                },
                {
                    "name": "C#4",
                    "midi": 61,
                    "time": 66.39060999999997,
                    "velocity": 0.3858267716535433,
                    "duration": 0.3550299999999993
                },
                {
                    "name": "C4",
                    "midi": 60,
                    "time": 66.74563999999997,
                    "velocity": 0.3464566929133858,
                    "duration": 0.3550299999999993
                },
                {
                    "name": "D#3",
                    "midi": 51,
                    "time": 67.10066999999997,
                    "velocity": 0.3543307086614173,
                    "duration": 1.0650899999999979
                },
                {
                    "name": "C4",
                    "midi": 60,
                    "time": 67.45569999999996,
                    "velocity": 0.3858267716535433,
                    "duration": 0.3550299999999993
                },
                {
                    "name": "B3",
                    "midi": 59,
                    "time": 67.81072999999996,
                    "velocity": 0.3543307086614173,
                    "duration": 0.3550299999999993
                },
                {
                    "name": "D#3",
                    "midi": 51,
                    "time": 68.16575999999996,
                    "velocity": 0.3464566929133858,
                    "duration": 1.0650899999999979
                },
                {
                    "name": "A#3",
                    "midi": 58,
                    "time": 68.52078999999996,
                    "velocity": 0.3543307086614173,
                    "duration": 0.3550299999999993
                },
                {
                    "name": "B3",
                    "midi": 59,
                    "time": 68.87581999999996,
                    "velocity": 0.2677165354330709,
                    "duration": 0.3550299999999993
                },
                {
                    "name": "D#3",
                    "midi": 51,
                    "time": 69.23084999999996,
                    "velocity": 0.33070866141732286,
                    "duration": 1.0650899999999979
                },
                {
                    "name": "D#4",
                    "midi": 63,
                    "time": 69.58587999999996,
                    "velocity": 0.3464566929133858,
                    "duration": 0.3550299999999993
                },
                {
                    "name": "D4",
                    "midi": 62,
                    "time": 69.94090999999996,
                    "velocity": 0.30708661417322836,
                    "duration": 0.3550299999999993
                },
                {
                    "name": "D#3",
                    "midi": 51,
                    "time": 70.29593999999996,
                    "velocity": 0.3228346456692913,
                    "duration": 1.0650899999999979
                },
                {
                    "name": "C#4",
                    "midi": 61,
                    "time": 70.65096999999996,
                    "velocity": 0.3464566929133858,
                    "duration": 0.3550299999999993
                },
                {
                    "name": "C4",
                    "midi": 60,
                    "time": 71.00599999999996,
                    "velocity": 0.30708661417322836,
                    "duration": 0.3550299999999993
                },
                {
                    "name": "D#3",
                    "midi": 51,
                    "time": 71.36102999999996,
                    "velocity": 0.30708661417322836,
                    "duration": 1.0650899999999979
                },
                {
                    "name": "C4",
                    "midi": 60,
                    "time": 71.71605999999996,
                    "velocity": 0.3464566929133858,
                    "duration": 0.3550299999999993
                },
                {
                    "name": "B3",
                    "midi": 59,
                    "time": 72.07108999999996,
                    "velocity": 0.30708661417322836,
                    "duration": 0.3550299999999993
                },
                {
                    "name": "D#3",
                    "midi": 51,
                    "time": 72.42611999999995,
                    "velocity": 0.30708661417322836,
                    "duration": 1.0650899999999979
                },
                {
                    "name": "B3",
                    "midi": 59,
                    "time": 72.78114999999995,
                    "velocity": 0.30708661417322836,
                    "duration": 0.3550299999999993
                },
                {
                    "name": "C4",
                    "midi": 60,
                    "time": 73.13617999999995,
                    "velocity": 0.2440944881889764,
                    "duration": 0.3550299999999993
                },
                {
                    "name": "G#2",
                    "midi": 44,
                    "time": 73.49120999999995,
                    "velocity": 0.3779527559055118,
                    "duration": 0.7100599999999986
                },
                {
                    "name": "D#3",
                    "midi": 51,
                    "time": 73.84623999999995,
                    "velocity": 0.4094488188976378,
                    "duration": 0.7100599999999986
                },
                {
                    "name": "G#2",
                    "midi": 44,
                    "time": 74.20126999999995,
                    "velocity": 0.3779527559055118,
                    "duration": 0.3550299999999993
                },
                {
                    "name": "G2",
                    "midi": 43,
                    "time": 74.55629999999995,
                    "velocity": 0.3858267716535433,
                    "duration": 0.7100599999999986
                },
                {
                    "name": "D#3",
                    "midi": 51,
                    "time": 74.91132999999995,
                    "velocity": 0.4094488188976378,
                    "duration": 0.7100599999999986
                },
                {
                    "name": "G2",
                    "midi": 43,
                    "time": 75.26635999999995,
                    "velocity": 0.3858267716535433,
                    "duration": 0.3550299999999993
                },
                {
                    "name": "G#2",
                    "midi": 44,
                    "time": 75.62138999999995,
                    "velocity": 0.4094488188976378,
                    "duration": 0.7100599999999986
                },
                {
                    "name": "D#3",
                    "midi": 51,
                    "time": 75.97641999999995,
                    "velocity": 0.4330708661417323,
                    "duration": 0.7100599999999986
                },
                {
                    "name": "G#2",
                    "midi": 44,
                    "time": 76.33144999999995,
                    "velocity": 0.4094488188976378,
                    "duration": 0.3550299999999993
                },
                {
                    "name": "A#2",
                    "midi": 46,
                    "time": 76.68647999999995,
                    "velocity": 0.41732283464566927,
                    "duration": 0.7100599999999986
                },
                {
                    "name": "D#3",
                    "midi": 51,
                    "time": 77.04150999999995,
                    "velocity": 0.4645669291338583,
                    "duration": 0.7100599999999986
                },
                {
                    "name": "A#2",
                    "midi": 46,
                    "time": 77.39653999999994,
                    "velocity": 0.4094488188976378,
                    "duration": 0.3550299999999993
                },
                {
                    "name": "B2",
                    "midi": 47,
                    "time": 77.75156999999994,
                    "velocity": 0.4094488188976378,
                    "duration": 0.7100599999999986
                },
                {
                    "name": "D#3",
                    "midi": 51,
                    "time": 78.10659999999994,
                    "velocity": 0.4094488188976378,
                    "duration": 0.7100599999999986
                },
                {
                    "name": "B2",
                    "midi": 47,
                    "time": 78.46162999999994,
                    "velocity": 0.3779527559055118,
                    "duration": 0.3550299999999993
                },
                {
                    "name": "A#2",
                    "midi": 46,
                    "time": 78.81665999999994,
                    "velocity": 0.3858267716535433,
                    "duration": 0.7100599999999986
                },
                {
                    "name": "D#3",
                    "midi": 51,
                    "time": 79.17168999999994,
                    "velocity": 0.4094488188976378,
                    "duration": 0.7100599999999986
                },
                {
                    "name": "A#2",
                    "midi": 46,
                    "time": 79.52671999999994,
                    "velocity": 0.3858267716535433,
                    "duration": 0.3550299999999993
                },
                {
                    "name": "A#2",
                    "midi": 46,
                    "time": 79.88174999999994,
                    "velocity": 0.36220472440944884,
                    "duration": 0.7100599999999986
                },
                {
                    "name": "D#3",
                    "midi": 51,
                    "time": 80.23677999999994,
                    "velocity": 0.3700787401574803,
                    "duration": 0.7100599999999986
                },
                {
                    "name": "A#2",
                    "midi": 46,
                    "time": 80.59180999999994,
                    "velocity": 0.3464566929133858,
                    "duration": 0.3550299999999993
                },
                {
                    "name": "D#2",
                    "midi": 39,
                    "time": 80.94683999999994,
                    "velocity": 0.3464566929133858,
                    "duration": 0.7100599999999986
                },
                {
                    "name": "D#3",
                    "midi": 51,
                    "time": 81.30186999999994,
                    "velocity": 0.36220472440944884,
                    "duration": 0.7100599999999986
                },
                {
                    "name": "D#2",
                    "midi": 39,
                    "time": 81.65689999999994,
                    "velocity": 0.30708661417322836,
                    "duration": 0.17751499999999965
                },
                {
                    "name": "G#2",
                    "midi": 44,
                    "time": 82.01192999999994,
                    "velocity": 0.3228346456692913,
                    "duration": 0.7100599999999986
                },
                {
                    "name": "F3",
                    "midi": 53,
                    "time": 82.36695999999993,
                    "velocity": 0.3543307086614173,
                    "duration": 0.7100599999999986
                },
                {
                    "name": "G#2",
                    "midi": 44,
                    "time": 82.72198999999993,
                    "velocity": 0.2992125984251969,
                    "duration": 0.17751499999999965
                },
                {
                    "name": "D#2",
                    "midi": 39,
                    "time": 83.07701999999993,
                    "velocity": 0.31496062992125984,
                    "duration": 0.7100599999999986
                },
                {
                    "name": "D#3",
                    "midi": 51,
                    "time": 83.43204999999993,
                    "velocity": 0.33070866141732286,
                    "duration": 0.7100599999999986
                },
                {
                    "name": "D#2",
                    "midi": 39,
                    "time": 83.78707999999993,
                    "velocity": 0.29133858267716534,
                    "duration": 0.17751499999999965
                },
                {
                    "name": "G#2",
                    "midi": 44,
                    "time": 84.14210999999993,
                    "velocity": 0.30708661417322836,
                    "duration": 0.7100599999999986
                },
                {
                    "name": "F3",
                    "midi": 53,
                    "time": 84.49713999999993,
                    "velocity": 0.3228346456692913,
                    "duration": 0.7100599999999986
                },
                {
                    "name": "G#2",
                    "midi": 44,
                    "time": 84.85216999999993,
                    "velocity": 0.2755905511811024,
                    "duration": 0.17751499999999965
                },
                {
                    "name": "D#3",
                    "midi": 51,
                    "time": 85.20719999999993,
                    "velocity": 0.31496062992125984,
                    "duration": 0.3550299999999993
                },
                {
                    "name": "D#2",
                    "midi": 39,
                    "time": 85.20719999999993,
                    "velocity": 0.2440944881889764,
                    "duration": 0.3550299999999993
                },
                {
                    "name": "D#3",
                    "midi": 51,
                    "time": 85.91725999999993,
                    "velocity": 0.23622047244094488,
                    "duration": 1.0650899999999837
                },
                {
                    "name": "A#3",
                    "midi": 58,
                    "time": 85.91725999999993,
                    "velocity": 0.28346456692913385,
                    "duration": 1.0650899999999837
                },
                {
                    "name": "D#3",
                    "midi": 51,
                    "time": 86.98234999999991,
                    "velocity": 0.23622047244094488,
                    "duration": 1.0650899999999979
                },
                {
                    "name": "A#3",
                    "midi": 58,
                    "time": 86.98234999999991,
                    "velocity": 0.28346456692913385,
                    "duration": 1.0650899999999979
                },
                {
                    "name": "D3",
                    "midi": 50,
                    "time": 88.04743999999991,
                    "velocity": 0.2755905511811024,
                    "duration": 1.4201199999999972
                },
                {
                    "name": "G2",
                    "midi": 43,
                    "time": 89.11252999999991,
                    "velocity": 0.23622047244094488,
                    "duration": 0.3550299999999993
                },
                {
                    "name": "F4",
                    "midi": 65,
                    "time": 89.4675599999999,
                    "velocity": 0.2992125984251969,
                    "duration": 1.0650899999999979
                },
                {
                    "name": "F4",
                    "midi": 65,
                    "time": 90.5326499999999,
                    "velocity": 0.3464566929133858,
                    "duration": 1.0650899999999979
                },
                {
                    "name": "F4",
                    "midi": 65,
                    "time": 91.5977399999999,
                    "velocity": 0.3779527559055118,
                    "duration": 0.7100600000000128
                },
                {
                    "name": "F4",
                    "midi": 65,
                    "time": 92.30779999999992,
                    "velocity": 0.4015748031496063,
                    "duration": 0.7100599999999986
                },
                {
                    "name": "F4",
                    "midi": 65,
                    "time": 93.01785999999991,
                    "velocity": 0.4330708661417323,
                    "duration": 0.7100599999999986
                },
                {
                    "name": "C2",
                    "midi": 36,
                    "time": 93.72791999999991,
                    "velocity": 0.5748031496062992,
                    "duration": 0.3550299999999993
                },
                {
                    "name": "G2",
                    "midi": 43,
                    "time": 93.72791999999991,
                    "velocity": 0.5748031496062992,
                    "duration": 0.3550299999999993
                },
                {
                    "name": "G4",
                    "midi": 67,
                    "time": 94.08294999999991,
                    "velocity": 0.49606299212598426,
                    "duration": 0.7100599999999986
                },
                {
                    "name": "C2",
                    "midi": 36,
                    "time": 94.79300999999991,
                    "velocity": 0.5748031496062992,
                    "duration": 0.3550299999999993
                },
                {
                    "name": "G2",
                    "midi": 43,
                    "time": 94.79300999999991,
                    "velocity": 0.5748031496062992,
                    "duration": 0.3550299999999993
                },
                {
                    "name": "G3",
                    "midi": 55,
                    "time": 95.14803999999991,
                    "velocity": 0.5275590551181102,
                    "duration": 0.3550299999999993
                },
                {
                    "name": "C4",
                    "midi": 60,
                    "time": 95.50306999999991,
                    "velocity": 0.5275590551181102,
                    "duration": 0.3550299999999993
                },
                {
                    "name": "D3",
                    "midi": 50,
                    "time": 95.85809999999991,
                    "velocity": 0.4330708661417323,
                    "duration": 0.3550299999999993
                },
                {
                    "name": "E4",
                    "midi": 64,
                    "time": 96.21312999999991,
                    "velocity": 0.41732283464566927,
                    "duration": 0.08875749999999982
                },
                {
                    "name": "F#4",
                    "midi": 66,
                    "time": 96.5681599999999,
                    "velocity": 0.4409448818897638,
                    "duration": 0.08875749999999982
                },
                {
                    "name": "G4",
                    "midi": 67,
                    "time": 96.92318999999992,
                    "velocity": 0.49606299212598426,
                    "duration": 0.3550299999999993
                },
                {
                    "name": "D4",
                    "midi": 62,
                    "time": 97.27821999999992,
                    "velocity": 0.44881889763779526,
                    "duration": 0.3550299999999993
                },
                {
                    "name": "G3",
                    "midi": 55,
                    "time": 97.63324999999992,
                    "velocity": 0.44881889763779526,
                    "duration": 0.3106512499999923
                },
                {
                    "name": "C4",
                    "midi": 60,
                    "time": 97.98827999999992,
                    "velocity": 0.4881889763779528,
                    "duration": 0.3550299999999993
                },
                {
                    "name": "F3",
                    "midi": 53,
                    "time": 97.98827999999992,
                    "velocity": 0.4881889763779528,
                    "duration": 0.3550299999999993
                },
                {
                    "name": "A4",
                    "midi": 69,
                    "time": 98.34330999999992,
                    "velocity": 0.5275590551181102,
                    "duration": 0.7100599999999986
                },
                {
                    "name": "D4",
                    "midi": 62,
                    "time": 98.34330999999992,
                    "velocity": 0.47244094488188976,
                    "duration": 0.7100599999999986
                },
                {
                    "name": "G3",
                    "midi": 55,
                    "time": 99.05336999999992,
                    "velocity": 0.4409448818897638,
                    "duration": 0.3550299999999993
                },
                {
                    "name": "G4",
                    "midi": 67,
                    "time": 99.40839999999992,
                    "velocity": 0.4566929133858268,
                    "duration": 0.7100600000000128
                },
                {
                    "name": "G3",
                    "midi": 55,
                    "time": 100.11845999999993,
                    "velocity": 0.3937007874015748,
                    "duration": 0.3550300000000135
                },
                {
                    "name": "G4",
                    "midi": 67,
                    "time": 100.82851999999994,
                    "velocity": 0.44881889763779526,
                    "duration": 0.3550299999999993
                },
                {
                    "name": "G3",
                    "midi": 55,
                    "time": 101.18354999999994,
                    "velocity": 0.4015748031496063,
                    "duration": 0.3550299999999993
                },
                {
                    "name": "G4",
                    "midi": 67,
                    "time": 101.89360999999994,
                    "velocity": 0.4409448818897638,
                    "duration": 0.3550299999999993
                },
                {
                    "name": "G2",
                    "midi": 43,
                    "time": 102.24863999999994,
                    "velocity": 0.5748031496062992,
                    "duration": 0.3550299999999993
                },
                {
                    "name": "C2",
                    "midi": 36,
                    "time": 102.24863999999994,
                    "velocity": 0.5748031496062992,
                    "duration": 0.3550299999999993
                },
                {
                    "name": "G4",
                    "midi": 67,
                    "time": 102.60366999999994,
                    "velocity": 0.49606299212598426,
                    "duration": 0.7100599999999986
                },
                {
                    "name": "C2",
                    "midi": 36,
                    "time": 103.31372999999994,
                    "velocity": 0.5748031496062992,
                    "duration": 0.3550299999999993
                },
                {
                    "name": "G2",
                    "midi": 43,
                    "time": 103.31372999999994,
                    "velocity": 0.5748031496062992,
                    "duration": 0.3550299999999993
                },
                {
                    "name": "G3",
                    "midi": 55,
                    "time": 103.66875999999993,
                    "velocity": 0.5275590551181102,
                    "duration": 0.3550299999999993
                },
                {
                    "name": "C4",
                    "midi": 60,
                    "time": 104.02378999999993,
                    "velocity": 0.5275590551181102,
                    "duration": 0.3550299999999993
                },
                {
                    "name": "D3",
                    "midi": 50,
                    "time": 104.37881999999993,
                    "velocity": 0.4330708661417323,
                    "duration": 0.3550299999999993
                },
                {
                    "name": "E4",
                    "midi": 64,
                    "time": 104.73384999999993,
                    "velocity": 0.41732283464566927,
                    "duration": 0.08875749999999982
                },
                {
                    "name": "F#4",
                    "midi": 66,
                    "time": 105.08887999999993,
                    "velocity": 0.4409448818897638,
                    "duration": 0.08875749999999982
                },
                {
                    "name": "G4",
                    "midi": 67,
                    "time": 105.44390999999995,
                    "velocity": 0.49606299212598426,
                    "duration": 0.3550299999999993
                },
                {
                    "name": "D4",
                    "midi": 62,
                    "time": 105.79893999999994,
                    "velocity": 0.4566929133858268,
                    "duration": 0.3550299999999993
                },
                {
                    "name": "G3",
                    "midi": 55,
                    "time": 106.15396999999994,
                    "velocity": 0.44881889763779526,
                    "duration": 0.3106512499999923
                },
                {
                    "name": "C4",
                    "midi": 60,
                    "time": 106.50899999999994,
                    "velocity": 0.4881889763779528,
                    "duration": 0.3550299999999993
                },
                {
                    "name": "F3",
                    "midi": 53,
                    "time": 106.50899999999994,
                    "velocity": 0.4881889763779528,
                    "duration": 0.3550299999999993
                },
                {
                    "name": "A4",
                    "midi": 69,
                    "time": 106.86402999999994,
                    "velocity": 0.5275590551181102,
                    "duration": 0.7100599999999986
                },
                {
                    "name": "D4",
                    "midi": 62,
                    "time": 106.86402999999994,
                    "velocity": 0.47244094488188976,
                    "duration": 0.7100599999999986
                },
                {
                    "name": "G3",
                    "midi": 55,
                    "time": 107.57408999999994,
                    "velocity": 0.4409448818897638,
                    "duration": 0.3550299999999993
                },
                {
                    "name": "G4",
                    "midi": 67,
                    "time": 107.92911999999994,
                    "velocity": 0.4566929133858268,
                    "duration": 0.7100600000000128
                },
                {
                    "name": "G3",
                    "midi": 55,
                    "time": 108.63917999999995,
                    "velocity": 0.3937007874015748,
                    "duration": 0.3550300000000135
                },
                {
                    "name": "G4",
                    "midi": 67,
                    "time": 109.34923999999997,
                    "velocity": 0.3937007874015748,
                    "duration": 0.3550299999999993
                },
                {
                    "name": "G4",
                    "midi": 67,
                    "time": 109.70426999999997,
                    "velocity": 0.4330708661417323,
                    "duration": 0.7100599999999986
                },
                {
                    "name": "C4",
                    "midi": 60,
                    "time": 110.41432999999996,
                    "velocity": 0.33070866141732286,
                    "duration": 0.3550299999999993
                },
                {
                    "name": "G2",
                    "midi": 43,
                    "time": 110.76935999999996,
                    "velocity": 0.3858267716535433,
                    "duration": 1.0650899999999979
                },
                {
                    "name": "D3",
                    "midi": 50,
                    "time": 111.12438999999996,
                    "velocity": 0.2992125984251969,
                    "duration": 0.3550299999999993
                },
                {
                    "name": "E3",
                    "midi": 52,
                    "time": 111.47941999999996,
                    "velocity": 0.33070866141732286,
                    "duration": 0.3550299999999993
                },
                {
                    "name": "G2",
                    "midi": 43,
                    "time": 111.83444999999996,
                    "velocity": 0.3858267716535433,
                    "duration": 1.0650899999999979
                },
                {
                    "name": "D3",
                    "midi": 50,
                    "time": 112.18947999999996,
                    "velocity": 0.2992125984251969,
                    "duration": 0.3550299999999993
                },
                {
                    "name": "E3",
                    "midi": 52,
                    "time": 112.54450999999996,
                    "velocity": 0.30708661417322836,
                    "duration": 0.3550299999999993
                },
                {
                    "name": "G2",
                    "midi": 43,
                    "time": 112.89953999999996,
                    "velocity": 0.3858267716535433,
                    "duration": 1.0650899999999979
                },
                {
                    "name": "E3",
                    "midi": 52,
                    "time": 113.25456999999996,
                    "velocity": 0.31496062992125984,
                    "duration": 0.3550299999999993
                },
                {
                    "name": "F#3",
                    "midi": 54,
                    "time": 113.60959999999996,
                    "velocity": 0.31496062992125984,
                    "duration": 0.3550299999999993
                },
                {
                    "name": "G2",
                    "midi": 43,
                    "time": 113.96462999999996,
                    "velocity": 0.3858267716535433,
                    "duration": 1.0650899999999979
                },
                {
                    "name": "G3",
                    "midi": 55,
                    "time": 114.31965999999996,
                    "velocity": 0.3464566929133858,
                    "duration": 0.3550299999999993
                },
                {
                    "name": "G3",
                    "midi": 55,
                    "time": 115.02971999999995,
                    "velocity": 0.3858267716535433,
                    "duration": 1.0650899999999979
                },
                {
                    "name": "D4",
                    "midi": 62,
                    "time": 115.38474999999995,
                    "velocity": 0.2992125984251969,
                    "duration": 0.3550299999999993
                },
                {
                    "name": "E4",
                    "midi": 64,
                    "time": 115.73977999999995,
                    "velocity": 0.33070866141732286,
                    "duration": 0.3550299999999993
                },
                {
                    "name": "G3",
                    "midi": 55,
                    "time": 116.09480999999995,
                    "velocity": 0.3858267716535433,
                    "duration": 1.0650899999999979
                },
                {
                    "name": "D4",
                    "midi": 62,
                    "time": 116.44983999999995,
                    "velocity": 0.2992125984251969,
                    "duration": 0.3550299999999993
                },
                {
                    "name": "E4",
                    "midi": 64,
                    "time": 116.80486999999995,
                    "velocity": 0.30708661417322836,
                    "duration": 0.3550299999999993
                },
                {
                    "name": "G3",
                    "midi": 55,
                    "time": 117.15989999999995,
                    "velocity": 0.3858267716535433,
                    "duration": 1.0650899999999979
                },
                {
                    "name": "E4",
                    "midi": 64,
                    "time": 117.51492999999995,
                    "velocity": 0.31496062992125984,
                    "duration": 0.3550299999999993
                },
                {
                    "name": "F#4",
                    "midi": 66,
                    "time": 117.86995999999995,
                    "velocity": 0.31496062992125984,
                    "duration": 0.3550299999999993
                },
                {
                    "name": "G4",
                    "midi": 67,
                    "time": 118.22498999999995,
                    "velocity": 0.3464566929133858,
                    "duration": 0.3550299999999993
                },
                {
                    "name": "G2",
                    "midi": 43,
                    "time": 119.29007999999996,
                    "velocity": 0.3858267716535433,
                    "duration": 1.0650899999999979
                },
                {
                    "name": "D3",
                    "midi": 50,
                    "time": 119.64510999999996,
                    "velocity": 0.2992125984251969,
                    "duration": 0.3550299999999993
                },
                {
                    "name": "E3",
                    "midi": 52,
                    "time": 120.00013999999996,
                    "velocity": 0.33070866141732286,
                    "duration": 0.3550299999999993
                },
                {
                    "name": "G2",
                    "midi": 43,
                    "time": 120.35516999999996,
                    "velocity": 0.3858267716535433,
                    "duration": 1.0650899999999979
                },
                {
                    "name": "D3",
                    "midi": 50,
                    "time": 120.71019999999996,
                    "velocity": 0.2992125984251969,
                    "duration": 0.3550299999999993
                },
                {
                    "name": "E3",
                    "midi": 52,
                    "time": 121.06522999999996,
                    "velocity": 0.30708661417322836,
                    "duration": 0.3550299999999993
                },
                {
                    "name": "G2",
                    "midi": 43,
                    "time": 121.42025999999996,
                    "velocity": 0.3858267716535433,
                    "duration": 1.0650899999999979
                },
                {
                    "name": "E3",
                    "midi": 52,
                    "time": 121.77528999999996,
                    "velocity": 0.31496062992125984,
                    "duration": 0.3550299999999993
                },
                {
                    "name": "F#3",
                    "midi": 54,
                    "time": 122.13031999999995,
                    "velocity": 0.31496062992125984,
                    "duration": 0.3550299999999993
                },
                {
                    "name": "G2",
                    "midi": 43,
                    "time": 122.48534999999995,
                    "velocity": 0.3858267716535433,
                    "duration": 1.0650899999999979
                },
                {
                    "name": "G3",
                    "midi": 55,
                    "time": 122.84037999999995,
                    "velocity": 0.3464566929133858,
                    "duration": 0.3550299999999993
                },
                {
                    "name": "G3",
                    "midi": 55,
                    "time": 123.55043999999995,
                    "velocity": 0.3858267716535433,
                    "duration": 1.0650899999999979
                },
                {
                    "name": "D4",
                    "midi": 62,
                    "time": 123.90546999999995,
                    "velocity": 0.2992125984251969,
                    "duration": 0.3550299999999993
                },
                {
                    "name": "E4",
                    "midi": 64,
                    "time": 124.26049999999995,
                    "velocity": 0.33070866141732286,
                    "duration": 0.3550299999999993
                },
                {
                    "name": "G3",
                    "midi": 55,
                    "time": 124.61552999999995,
                    "velocity": 0.3858267716535433,
                    "duration": 1.0650899999999979
                },
                {
                    "name": "D4",
                    "midi": 62,
                    "time": 124.97055999999995,
                    "velocity": 0.2992125984251969,
                    "duration": 0.3550299999999993
                },
                {
                    "name": "E4",
                    "midi": 64,
                    "time": 125.32558999999995,
                    "velocity": 0.30708661417322836,
                    "duration": 0.3550299999999993
                },
                {
                    "name": "G3",
                    "midi": 55,
                    "time": 125.68061999999995,
                    "velocity": 0.3858267716535433,
                    "duration": 1.0650899999999979
                },
                {
                    "name": "E4",
                    "midi": 64,
                    "time": 126.03564999999995,
                    "velocity": 0.4566929133858268,
                    "duration": 0.7100599999999986
                },
                {
                    "name": "F4",
                    "midi": 65,
                    "time": 126.74570999999995,
                    "velocity": 0.44881889763779526,
                    "duration": 3.195270000000022
                },
                {
                    "name": "F4",
                    "midi": 65,
                    "time": 129.94097999999997,
                    "velocity": 0.2992125984251969,
                    "duration": 1.0650900000000263
                },
                {
                    "name": "F4",
                    "midi": 65,
                    "time": 131.00607,
                    "velocity": 0.3464566929133858,
                    "duration": 1.0650899999999979
                },
                {
                    "name": "F4",
                    "midi": 65,
                    "time": 132.07116,
                    "velocity": 0.3779527559055118,
                    "duration": 0.7100599999999986
                },
                {
                    "name": "F4",
                    "midi": 65,
                    "time": 132.78122,
                    "velocity": 0.4015748031496063,
                    "duration": 0.710060000000027
                },
                {
                    "name": "F4",
                    "midi": 65,
                    "time": 133.49128000000002,
                    "velocity": 0.4330708661417323,
                    "duration": 0.710060000000027
                },
                {
                    "name": "C2",
                    "midi": 36,
                    "time": 134.20134000000004,
                    "velocity": 0.5748031496062992,
                    "duration": 0.3550299999999993
                },
                {
                    "name": "G2",
                    "midi": 43,
                    "time": 134.20134000000004,
                    "velocity": 0.5748031496062992,
                    "duration": 0.3550299999999993
                },
                {
                    "name": "G4",
                    "midi": 67,
                    "time": 134.55637000000004,
                    "velocity": 0.49606299212598426,
                    "duration": 0.7100599999999986
                },
                {
                    "name": "C2",
                    "midi": 36,
                    "time": 135.26643000000004,
                    "velocity": 0.5748031496062992,
                    "duration": 0.3550299999999993
                },
                {
                    "name": "G2",
                    "midi": 43,
                    "time": 135.26643000000004,
                    "velocity": 0.5748031496062992,
                    "duration": 0.3550299999999993
                },
                {
                    "name": "G3",
                    "midi": 55,
                    "time": 135.62146000000004,
                    "velocity": 0.5275590551181102,
                    "duration": 0.3550299999999993
                },
                {
                    "name": "C4",
                    "midi": 60,
                    "time": 135.97649000000004,
                    "velocity": 0.5275590551181102,
                    "duration": 0.3550299999999993
                },
                {
                    "name": "D3",
                    "midi": 50,
                    "time": 136.33152000000004,
                    "velocity": 0.4330708661417323,
                    "duration": 0.35502999999997087
                },
                {
                    "name": "E4",
                    "midi": 64,
                    "time": 136.68655,
                    "velocity": 0.41732283464566927,
                    "duration": 0.08875750000001403
                },
                {
                    "name": "F#4",
                    "midi": 66,
                    "time": 137.04158000000004,
                    "velocity": 0.4409448818897638,
                    "duration": 0.08875750000001403
                },
                {
                    "name": "G4",
                    "midi": 67,
                    "time": 137.39661000000007,
                    "velocity": 0.49606299212598426,
                    "duration": 0.3550299999999993
                },
                {
                    "name": "D4",
                    "midi": 62,
                    "time": 137.75164000000007,
                    "velocity": 0.4566929133858268,
                    "duration": 0.3550299999999993
                },
                {
                    "name": "G3",
                    "midi": 55,
                    "time": 138.10667000000007,
                    "velocity": 0.44881889763779526,
                    "duration": 0.3106512500000065
                },
                {
                    "name": "C4",
                    "midi": 60,
                    "time": 138.46170000000006,
                    "velocity": 0.4881889763779528,
                    "duration": 0.3550299999999993
                },
                {
                    "name": "F3",
                    "midi": 53,
                    "time": 138.46170000000006,
                    "velocity": 0.4881889763779528,
                    "duration": 0.3550299999999993
                },
                {
                    "name": "A4",
                    "midi": 69,
                    "time": 138.81673000000006,
                    "velocity": 0.5275590551181102,
                    "duration": 0.7100599999999986
                },
                {
                    "name": "D4",
                    "midi": 62,
                    "time": 138.81673000000006,
                    "velocity": 0.47244094488188976,
                    "duration": 0.7100599999999986
                },
                {
                    "name": "G3",
                    "midi": 55,
                    "time": 139.52679000000006,
                    "velocity": 0.4409448818897638,
                    "duration": 0.3550299999999993
                },
                {
                    "name": "G4",
                    "midi": 67,
                    "time": 139.88182000000006,
                    "velocity": 0.4566929133858268,
                    "duration": 0.7100599999999986
                },
                {
                    "name": "G3",
                    "midi": 55,
                    "time": 140.59188000000006,
                    "velocity": 0.3937007874015748,
                    "duration": 0.3550299999999993
                },
                {
                    "name": "G4",
                    "midi": 67,
                    "time": 141.30194000000006,
                    "velocity": 0.44881889763779526,
                    "duration": 0.3550299999999993
                },
                {
                    "name": "G3",
                    "midi": 55,
                    "time": 141.65697000000006,
                    "velocity": 0.4015748031496063,
                    "duration": 0.3550299999999993
                },
                {
                    "name": "G4",
                    "midi": 67,
                    "time": 142.36703000000006,
                    "velocity": 0.4409448818897638,
                    "duration": 0.3550299999999993
                },
                {
                    "name": "G2",
                    "midi": 43,
                    "time": 142.72206000000006,
                    "velocity": 0.5748031496062992,
                    "duration": 0.3550299999999993
                },
                {
                    "name": "C2",
                    "midi": 36,
                    "time": 142.72206000000006,
                    "velocity": 0.5748031496062992,
                    "duration": 0.3550299999999993
                },
                {
                    "name": "G4",
                    "midi": 67,
                    "time": 143.07709000000006,
                    "velocity": 0.49606299212598426,
                    "duration": 0.7100599999999986
                },
                {
                    "name": "C2",
                    "midi": 36,
                    "time": 143.78715000000005,
                    "velocity": 0.5748031496062992,
                    "duration": 0.3550299999999993
                },
                {
                    "name": "G2",
                    "midi": 43,
                    "time": 143.78715000000005,
                    "velocity": 0.5748031496062992,
                    "duration": 0.3550299999999993
                },
                {
                    "name": "G3",
                    "midi": 55,
                    "time": 144.14218000000005,
                    "velocity": 0.5275590551181102,
                    "duration": 0.3550299999999993
                },
                {
                    "name": "C4",
                    "midi": 60,
                    "time": 144.49721000000005,
                    "velocity": 0.5275590551181102,
                    "duration": 0.3550299999999993
                },
                {
                    "name": "D3",
                    "midi": 50,
                    "time": 144.85224000000005,
                    "velocity": 0.4330708661417323,
                    "duration": 0.35502999999997087
                },
                {
                    "name": "E4",
                    "midi": 64,
                    "time": 145.20727000000002,
                    "velocity": 0.41732283464566927,
                    "duration": 0.08875750000001403
                },
                {
                    "name": "F#4",
                    "midi": 66,
                    "time": 145.56230000000005,
                    "velocity": 0.4409448818897638,
                    "duration": 0.08875750000001403
                },
                {
                    "name": "G4",
                    "midi": 67,
                    "time": 145.91733000000008,
                    "velocity": 0.49606299212598426,
                    "duration": 0.3550299999999993
                },
                {
                    "name": "D4",
                    "midi": 62,
                    "time": 146.27236000000008,
                    "velocity": 0.4566929133858268,
                    "duration": 0.3550299999999993
                },
                {
                    "name": "G3",
                    "midi": 55,
                    "time": 146.62739000000008,
                    "velocity": 0.44881889763779526,
                    "duration": 0.3106512500000065
                },
                {
                    "name": "C4",
                    "midi": 60,
                    "time": 146.98242000000008,
                    "velocity": 0.4881889763779528,
                    "duration": 0.3550299999999993
                },
                {
                    "name": "F3",
                    "midi": 53,
                    "time": 146.98242000000008,
                    "velocity": 0.4881889763779528,
                    "duration": 0.3550299999999993
                },
                {
                    "name": "A4",
                    "midi": 69,
                    "time": 147.33745000000008,
                    "velocity": 0.5275590551181102,
                    "duration": 0.7100599999999986
                },
                {
                    "name": "D4",
                    "midi": 62,
                    "time": 147.33745000000008,
                    "velocity": 0.47244094488188976,
                    "duration": 0.7100599999999986
                },
                {
                    "name": "G3",
                    "midi": 55,
                    "time": 148.04751000000007,
                    "velocity": 0.4409448818897638,
                    "duration": 0.3550299999999993
                },
                {
                    "name": "G4",
                    "midi": 67,
                    "time": 148.40254000000007,
                    "velocity": 0.4566929133858268,
                    "duration": 0.7100599999999986
                },
                {
                    "name": "G3",
                    "midi": 55,
                    "time": 149.11260000000007,
                    "velocity": 0.3937007874015748,
                    "duration": 0.3550299999999993
                },
                {
                    "name": "G4",
                    "midi": 67,
                    "time": 149.82266000000007,
                    "velocity": 0.3937007874015748,
                    "duration": 0.3550299999999993
                },
                {
                    "name": "G4",
                    "midi": 67,
                    "time": 150.17769000000007,
                    "velocity": 0.4330708661417323,
                    "duration": 0.7100599999999986
                },
                {
                    "name": "C4",
                    "midi": 60,
                    "time": 150.88775000000007,
                    "velocity": 0.33070866141732286,
                    "duration": 0.3550299999999993
                },
                {
                    "name": "C4",
                    "midi": 60,
                    "time": 151.95284000000007,
                    "velocity": 0.4015748031496063,
                    "duration": 1.0650899999999979
                },
                {
                    "name": "C4",
                    "midi": 60,
                    "time": 153.01793000000006,
                    "velocity": 0.4015748031496063,
                    "duration": 1.0650900000000263
                },
                {
                    "name": "C4",
                    "midi": 60,
                    "time": 154.0830200000001,
                    "velocity": 0.4015748031496063,
                    "duration": 1.0650899999999979
                },
                {
                    "name": "C4",
                    "midi": 60,
                    "time": 155.1481100000001,
                    "velocity": 0.3779527559055118,
                    "duration": 1.4201199999999972
                },
                {
                    "name": "C2",
                    "midi": 36,
                    "time": 156.56823000000009,
                    "velocity": 0.6377952755905512,
                    "duration": 0.3550299999999993
                },
                {
                    "name": "G4",
                    "midi": 67,
                    "time": 156.92326000000008,
                    "velocity": 0.5905511811023622,
                    "duration": 0.3550299999999993
                },
                {
                    "name": "C4",
                    "midi": 60,
                    "time": 156.92326000000008,
                    "velocity": 0.5354330708661418,
                    "duration": 0.3550299999999993
                }
            ],
            "controlChanges": {
                "7": [
                    {
                        "number": 7,
                        "time": 0,
                        "value": 0.7874015748031497
                    }
                ],
                "64": [
                    {
                        "number": 64,
                        "time": 0.039201229166666664,
                        "value": 1
                    },
                    {
                        "number": 64,
                        "time": 0.9667171041666667,
                        "value": 0
                    },
                    {
                        "number": 64,
                        "time": 1.1042912291666667,
                        "value": 1
                    },
                    {
                        "number": 64,
                        "time": 1.8934933333333335,
                        "value": 0
                    },
                    {
                        "number": 64,
                        "time": 2.1501504375000002,
                        "value": 1
                    },
                    {
                        "number": 64,
                        "time": 2.741867104166667,
                        "value": 0
                    },
                    {
                        "number": 64,
                        "time": 2.879441229166667,
                        "value": 1
                    },
                    {
                        "number": 64,
                        "time": 3.451927104166667,
                        "value": 0
                    },
                    {
                        "number": 64,
                        "time": 3.589501229166667,
                        "value": 1
                    },
                    {
                        "number": 64,
                        "time": 3.9844721041666666,
                        "value": 0
                    },
                    {
                        "number": 64,
                        "time": 4.3335849375,
                        "value": 1
                    },
                    {
                        "number": 64,
                        "time": 5.137579958333334,
                        "value": 0
                    },
                    {
                        "number": 64,
                        "time": 5.372787333333334,
                        "value": 1
                    },
                    {
                        "number": 64,
                        "time": 6.213025000000001,
                        "value": 0
                    },
                    {
                        "number": 64,
                        "time": 6.398676104166667,
                        "value": 1
                    },
                    {
                        "number": 64,
                        "time": 6.7034101875,
                        "value": 0
                    },
                    {
                        "number": 64,
                        "time": 7.419387354166666,
                        "value": 1
                    },
                    {
                        "number": 64,
                        "time": 8.244832104166667,
                        "value": 0
                    },
                    {
                        "number": 64,
                        "time": 8.484477354166668,
                        "value": 1
                    },
                    {
                        "number": 64,
                        "time": 8.849862395833334,
                        "value": 0
                    },
                    {
                        "number": 64,
                        "time": 8.8912825625,
                        "value": 1
                    },
                    {
                        "number": 64,
                        "time": 9.439360125,
                        "value": 0
                    },
                    {
                        "number": 64,
                        "time": 9.596165041666668,
                        "value": 1
                    },
                    {
                        "number": 64,
                        "time": 9.888325145833335,
                        "value": 0
                    },
                    {
                        "number": 64,
                        "time": 9.977082645833335,
                        "value": 1
                    },
                    {
                        "number": 64,
                        "time": 10.687142645833335,
                        "value": 0
                    },
                    {
                        "number": 64,
                        "time": 11.350604958333335,
                        "value": 1
                    },
                    {
                        "number": 64,
                        "time": 11.736700083333334,
                        "value": 0
                    },
                    {
                        "number": 64,
                        "time": 12.4415825625,
                        "value": 1
                    },
                    {
                        "number": 64,
                        "time": 12.750014875000002,
                        "value": 0
                    },
                    {
                        "number": 64,
                        "time": 12.8543049375,
                        "value": 1
                    },
                    {
                        "number": 64,
                        "time": 13.658299958333334,
                        "value": 0
                    },
                    {
                        "number": 64,
                        "time": 13.893507333333334,
                        "value": 1
                    },
                    {
                        "number": 64,
                        "time": 14.733744999999999,
                        "value": 0
                    },
                    {
                        "number": 64,
                        "time": 14.919396104166665,
                        "value": 1
                    },
                    {
                        "number": 64,
                        "time": 15.224130187499998,
                        "value": 0
                    },
                    {
                        "number": 64,
                        "time": 15.940107354166663,
                        "value": 1
                    },
                    {
                        "number": 64,
                        "time": 16.765552104166662,
                        "value": 0
                    },
                    {
                        "number": 64,
                        "time": 17.00519735416666,
                        "value": 1
                    },
                    {
                        "number": 64,
                        "time": 17.370582395833328,
                        "value": 0
                    },
                    {
                        "number": 64,
                        "time": 17.412002562499993,
                        "value": 1
                    },
                    {
                        "number": 64,
                        "time": 17.960080124999994,
                        "value": 0
                    },
                    {
                        "number": 64,
                        "time": 18.11688504166666,
                        "value": 1
                    },
                    {
                        "number": 64,
                        "time": 18.409045145833325,
                        "value": 0
                    },
                    {
                        "number": 64,
                        "time": 18.497802645833325,
                        "value": 1
                    },
                    {
                        "number": 64,
                        "time": 19.207862645833323,
                        "value": 0
                    },
                    {
                        "number": 64,
                        "time": 20.33064502083332,
                        "value": 1
                    },
                    {
                        "number": 64,
                        "time": 20.946769999999987,
                        "value": 0
                    },
                    {
                        "number": 64,
                        "time": 21.301799999999986,
                        "value": 1
                    },
                    {
                        "number": 64,
                        "time": 21.834344999999985,
                        "value": 0
                    },
                    {
                        "number": 64,
                        "time": 22.095439979166652,
                        "value": 1
                    },
                    {
                        "number": 64,
                        "time": 22.262599937499985,
                        "value": 0
                    },
                    {
                        "number": 64,
                        "time": 22.366889999999984,
                        "value": 1
                    },
                    {
                        "number": 64,
                        "time": 22.962304895833316,
                        "value": 0
                    },
                    {
                        "number": 64,
                        "time": 23.12946485416665,
                        "value": 1
                    },
                    {
                        "number": 64,
                        "time": 23.275175083333316,
                        "value": 0
                    },
                    {
                        "number": 64,
                        "time": 23.828430166666646,
                        "value": 1
                    },
                    {
                        "number": 64,
                        "time": 24.278134833333315,
                        "value": 0
                    },
                    {
                        "number": 64,
                        "time": 24.497069999999983,
                        "value": 1
                    },
                    {
                        "number": 64,
                        "time": 24.93641962499998,
                        "value": 0
                    },
                    {
                        "number": 64,
                        "time": 25.65091749999998,
                        "value": 1
                    },
                    {
                        "number": 64,
                        "time": 26.09470499999998,
                        "value": 0
                    },
                    {
                        "number": 64,
                        "time": 26.355799979166648,
                        "value": 1
                    },
                    {
                        "number": 64,
                        "time": 26.52295993749998,
                        "value": 0
                    },
                    {
                        "number": 64,
                        "time": 26.62724999999998,
                        "value": 1
                    },
                    {
                        "number": 64,
                        "time": 27.22266489583331,
                        "value": 0
                    },
                    {
                        "number": 64,
                        "time": 27.389824854166644,
                        "value": 1
                    },
                    {
                        "number": 64,
                        "time": 27.53553508333331,
                        "value": 0
                    },
                    {
                        "number": 64,
                        "time": 28.08879016666664,
                        "value": 1
                    },
                    {
                        "number": 64,
                        "time": 28.53849483333331,
                        "value": 0
                    },
                    {
                        "number": 64,
                        "time": 28.757429999999978,
                        "value": 1
                    },
                    {
                        "number": 64,
                        "time": 29.196779624999976,
                        "value": 0
                    },
                    {
                        "number": 64,
                        "time": 29.822519999999976,
                        "value": 1
                    },
                    {
                        "number": 64,
                        "time": 30.355064999999975,
                        "value": 0
                    },
                    {
                        "number": 64,
                        "time": 30.616159979166643,
                        "value": 1
                    },
                    {
                        "number": 64,
                        "time": 30.783319937499975,
                        "value": 0
                    },
                    {
                        "number": 64,
                        "time": 30.887609999999974,
                        "value": 1
                    },
                    {
                        "number": 64,
                        "time": 31.483024895833307,
                        "value": 0
                    },
                    {
                        "number": 64,
                        "time": 31.65018485416664,
                        "value": 1
                    },
                    {
                        "number": 64,
                        "time": 31.795895083333306,
                        "value": 0
                    },
                    {
                        "number": 64,
                        "time": 32.34915016666664,
                        "value": 1
                    },
                    {
                        "number": 64,
                        "time": 32.7988548333333,
                        "value": 0
                    },
                    {
                        "number": 64,
                        "time": 33.01778999999997,
                        "value": 1
                    },
                    {
                        "number": 64,
                        "time": 33.45713962499997,
                        "value": 0
                    },
                    {
                        "number": 64,
                        "time": 34.17163749999997,
                        "value": 1
                    },
                    {
                        "number": 64,
                        "time": 34.615424999999966,
                        "value": 0
                    },
                    {
                        "number": 64,
                        "time": 34.87651997916663,
                        "value": 1
                    },
                    {
                        "number": 64,
                        "time": 35.04367993749997,
                        "value": 0
                    },
                    {
                        "number": 64,
                        "time": 35.147969999999965,
                        "value": 1
                    },
                    {
                        "number": 64,
                        "time": 35.743384895833294,
                        "value": 0
                    },
                    {
                        "number": 64,
                        "time": 35.91054485416663,
                        "value": 1
                    },
                    {
                        "number": 64,
                        "time": 36.0562550833333,
                        "value": 0
                    },
                    {
                        "number": 64,
                        "time": 36.60951016666663,
                        "value": 1
                    },
                    {
                        "number": 64,
                        "time": 37.0592148333333,
                        "value": 0
                    },
                    {
                        "number": 64,
                        "time": 37.27814999999997,
                        "value": 1
                    },
                    {
                        "number": 64,
                        "time": 37.71749962499997,
                        "value": 0
                    },
                    {
                        "number": 64,
                        "time": 38.57326985416663,
                        "value": 1
                    },
                    {
                        "number": 64,
                        "time": 39.0429449583333,
                        "value": 0
                    },
                    {
                        "number": 64,
                        "time": 39.70049010416663,
                        "value": 1
                    },
                    {
                        "number": 64,
                        "time": 40.0769698333333,
                        "value": 0
                    },
                    {
                        "number": 64,
                        "time": 40.51262122916663,
                        "value": 1
                    },
                    {
                        "number": 64,
                        "time": 41.44013710416663,
                        "value": 0
                    },
                    {
                        "number": 64,
                        "time": 41.57771122916663,
                        "value": 1
                    },
                    {
                        "number": 64,
                        "time": 42.3669133333333,
                        "value": 0
                    },
                    {
                        "number": 64,
                        "time": 42.623570437499964,
                        "value": 1
                    },
                    {
                        "number": 64,
                        "time": 43.215287104166634,
                        "value": 0
                    },
                    {
                        "number": 64,
                        "time": 43.352861229166635,
                        "value": 1
                    },
                    {
                        "number": 64,
                        "time": 43.92534710416663,
                        "value": 0
                    },
                    {
                        "number": 64,
                        "time": 44.06292122916663,
                        "value": 1
                    },
                    {
                        "number": 64,
                        "time": 44.45789210416663,
                        "value": 0
                    },
                    {
                        "number": 64,
                        "time": 44.80700493749997,
                        "value": 1
                    },
                    {
                        "number": 64,
                        "time": 45.6109999583333,
                        "value": 0
                    },
                    {
                        "number": 64,
                        "time": 45.8462073333333,
                        "value": 1
                    },
                    {
                        "number": 64,
                        "time": 46.686444999999964,
                        "value": 0
                    },
                    {
                        "number": 64,
                        "time": 46.87209610416663,
                        "value": 1
                    },
                    {
                        "number": 64,
                        "time": 47.17683018749997,
                        "value": 0
                    },
                    {
                        "number": 64,
                        "time": 47.892807354166635,
                        "value": 1
                    },
                    {
                        "number": 64,
                        "time": 48.71825210416663,
                        "value": 0
                    },
                    {
                        "number": 64,
                        "time": 48.95789735416663,
                        "value": 1
                    },
                    {
                        "number": 64,
                        "time": 49.3232823958333,
                        "value": 0
                    },
                    {
                        "number": 64,
                        "time": 49.36470256249997,
                        "value": 1
                    },
                    {
                        "number": 64,
                        "time": 49.91278012499997,
                        "value": 0
                    },
                    {
                        "number": 64,
                        "time": 50.069585041666635,
                        "value": 1
                    },
                    {
                        "number": 64,
                        "time": 50.361745145833304,
                        "value": 0
                    },
                    {
                        "number": 64,
                        "time": 50.4505026458333,
                        "value": 1
                    },
                    {
                        "number": 64,
                        "time": 51.1605626458333,
                        "value": 0
                    },
                    {
                        "number": 64,
                        "time": 51.824024958333304,
                        "value": 1
                    },
                    {
                        "number": 64,
                        "time": 52.2101200833333,
                        "value": 0
                    },
                    {
                        "number": 64,
                        "time": 52.915002562499964,
                        "value": 1
                    },
                    {
                        "number": 64,
                        "time": 53.22343487499997,
                        "value": 0
                    },
                    {
                        "number": 64,
                        "time": 53.327724937499966,
                        "value": 1
                    },
                    {
                        "number": 64,
                        "time": 54.1317199583333,
                        "value": 0
                    },
                    {
                        "number": 64,
                        "time": 54.366927333333294,
                        "value": 1
                    },
                    {
                        "number": 64,
                        "time": 55.20716499999996,
                        "value": 0
                    },
                    {
                        "number": 64,
                        "time": 55.39281610416663,
                        "value": 1
                    },
                    {
                        "number": 64,
                        "time": 55.697550187499964,
                        "value": 0
                    },
                    {
                        "number": 64,
                        "time": 56.41352735416663,
                        "value": 1
                    },
                    {
                        "number": 64,
                        "time": 57.23897210416663,
                        "value": 0
                    },
                    {
                        "number": 64,
                        "time": 57.47861735416663,
                        "value": 1
                    },
                    {
                        "number": 64,
                        "time": 57.8440023958333,
                        "value": 0
                    },
                    {
                        "number": 64,
                        "time": 57.88542256249997,
                        "value": 1
                    },
                    {
                        "number": 64,
                        "time": 58.433500124999966,
                        "value": 0
                    },
                    {
                        "number": 64,
                        "time": 58.59030504166663,
                        "value": 1
                    },
                    {
                        "number": 64,
                        "time": 58.8824651458333,
                        "value": 0
                    },
                    {
                        "number": 64,
                        "time": 58.9712226458333,
                        "value": 1
                    },
                    {
                        "number": 64,
                        "time": 59.6812826458333,
                        "value": 0
                    },
                    {
                        "number": 64,
                        "time": 60.8040650208333,
                        "value": 1
                    },
                    {
                        "number": 64,
                        "time": 61.42018999999996,
                        "value": 0
                    },
                    {
                        "number": 64,
                        "time": 62.11027956249996,
                        "value": 1
                    },
                    {
                        "number": 64,
                        "time": 62.84030999999996,
                        "value": 0
                    },
                    {
                        "number": 64,
                        "time": 62.978623770833295,
                        "value": 1
                    },
                    {
                        "number": 64,
                        "time": 63.905399999999965,
                        "value": 0
                    },
                    {
                        "number": 64,
                        "time": 64.0237433333333,
                        "value": 1
                    },
                    {
                        "number": 64,
                        "time": 65.00155512499997,
                        "value": 0
                    },
                    {
                        "number": 64,
                        "time": 65.32551999999997,
                        "value": 1
                    },
                    {
                        "number": 64,
                        "time": 66.36989991666664,
                        "value": 0
                    },
                    {
                        "number": 64,
                        "time": 66.47418997916664,
                        "value": 1
                    },
                    {
                        "number": 64,
                        "time": 67.42463487499997,
                        "value": 0
                    },
                    {
                        "number": 64,
                        "time": 67.50821485416662,
                        "value": 1
                    },
                    {
                        "number": 64,
                        "time": 68.16575999999996,
                        "value": 0
                    },
                    {
                        "number": 64,
                        "time": 68.36916260416663,
                        "value": 1
                    },
                    {
                        "number": 64,
                        "time": 69.02744739583329,
                        "value": 0
                    },
                    {
                        "number": 64,
                        "time": 69.40836499999996,
                        "value": 0
                    },
                    {
                        "number": 64,
                        "time": 69.58587999999996,
                        "value": 1
                    },
                    {
                        "number": 64,
                        "time": 70.63025991666663,
                        "value": 0
                    },
                    {
                        "number": 64,
                        "time": 70.73454997916663,
                        "value": 1
                    },
                    {
                        "number": 64,
                        "time": 71.68499487499996,
                        "value": 0
                    },
                    {
                        "number": 64,
                        "time": 71.76857485416662,
                        "value": 1
                    },
                    {
                        "number": 64,
                        "time": 72.42611999999995,
                        "value": 0
                    },
                    {
                        "number": 64,
                        "time": 72.62952260416662,
                        "value": 1
                    },
                    {
                        "number": 64,
                        "time": 73.28780739583328,
                        "value": 0
                    },
                    {
                        "number": 64,
                        "time": 73.66872499999995,
                        "value": 0
                    },
                    {
                        "number": 64,
                        "time": 73.84623999999995,
                        "value": 1
                    },
                    {
                        "number": 64,
                        "time": 74.89061991666662,
                        "value": 0
                    },
                    {
                        "number": 64,
                        "time": 74.99490997916662,
                        "value": 1
                    },
                    {
                        "number": 64,
                        "time": 75.94535487499995,
                        "value": 0
                    },
                    {
                        "number": 64,
                        "time": 76.02893485416661,
                        "value": 1
                    },
                    {
                        "number": 64,
                        "time": 76.68647999999995,
                        "value": 0
                    },
                    {
                        "number": 64,
                        "time": 76.88988260416662,
                        "value": 1
                    },
                    {
                        "number": 64,
                        "time": 77.54816739583327,
                        "value": 0
                    },
                    {
                        "number": 64,
                        "time": 77.92908499999994,
                        "value": 0
                    },
                    {
                        "number": 64,
                        "time": 78.10659999999994,
                        "value": 1
                    },
                    {
                        "number": 64,
                        "time": 79.15097991666661,
                        "value": 0
                    },
                    {
                        "number": 64,
                        "time": 79.25526997916661,
                        "value": 1
                    },
                    {
                        "number": 64,
                        "time": 80.20571487499994,
                        "value": 0
                    },
                    {
                        "number": 64,
                        "time": 80.2892948541666,
                        "value": 1
                    },
                    {
                        "number": 64,
                        "time": 80.94683999999994,
                        "value": 0
                    },
                    {
                        "number": 64,
                        "time": 81.1502426041666,
                        "value": 1
                    },
                    {
                        "number": 64,
                        "time": 81.80852739583327,
                        "value": 0
                    },
                    {
                        "number": 64,
                        "time": 82.04299512499993,
                        "value": 1
                    },
                    {
                        "number": 64,
                        "time": 82.9098600416666,
                        "value": 0
                    },
                    {
                        "number": 64,
                        "time": 83.27524508333326,
                        "value": 1
                    },
                    {
                        "number": 64,
                        "time": 84.05853002083326,
                        "value": 0
                    },
                    {
                        "number": 64,
                        "time": 84.17317512499993,
                        "value": 1
                    },
                    {
                        "number": 64,
                        "time": 84.95646006249993,
                        "value": 0
                    },
                    {
                        "number": 64,
                        "time": 85.40542508333326,
                        "value": 1
                    },
                    {
                        "number": 64,
                        "time": 86.11548508333325,
                        "value": 0
                    },
                    {
                        "number": 64,
                        "time": 86.46016004166658,
                        "value": 1
                    },
                    {
                        "number": 64,
                        "time": 87.20128516666658,
                        "value": 0
                    },
                    {
                        "number": 64,
                        "time": 87.46755766666658,
                        "value": 1
                    },
                    {
                        "number": 64,
                        "time": 88.27229233333324,
                        "value": 0
                    },
                    {
                        "number": 64,
                        "time": 88.55409739583324,
                        "value": 1
                    },
                    {
                        "number": 64,
                        "time": 89.26415739583324,
                        "value": 0
                    },
                    {
                        "number": 64,
                        "time": 89.50676122916657,
                        "value": 1
                    },
                    {
                        "number": 64,
                        "time": 90.43427710416657,
                        "value": 0
                    },
                    {
                        "number": 64,
                        "time": 90.57185122916657,
                        "value": 1
                    },
                    {
                        "number": 64,
                        "time": 91.36105333333323,
                        "value": 0
                    },
                    {
                        "number": 64,
                        "time": 91.61771043749991,
                        "value": 1
                    },
                    {
                        "number": 64,
                        "time": 92.20942710416658,
                        "value": 0
                    },
                    {
                        "number": 64,
                        "time": 92.34700122916658,
                        "value": 1
                    },
                    {
                        "number": 64,
                        "time": 92.91948710416658,
                        "value": 0
                    },
                    {
                        "number": 64,
                        "time": 93.05706122916658,
                        "value": 1
                    },
                    {
                        "number": 64,
                        "time": 93.45203210416658,
                        "value": 0
                    },
                    {
                        "number": 64,
                        "time": 93.80114493749991,
                        "value": 1
                    },
                    {
                        "number": 64,
                        "time": 94.60513995833324,
                        "value": 0
                    },
                    {
                        "number": 64,
                        "time": 94.84034733333324,
                        "value": 1
                    },
                    {
                        "number": 64,
                        "time": 95.68058499999991,
                        "value": 0
                    },
                    {
                        "number": 64,
                        "time": 95.86623610416657,
                        "value": 1
                    },
                    {
                        "number": 64,
                        "time": 96.1709701874999,
                        "value": 0
                    },
                    {
                        "number": 64,
                        "time": 96.88694735416658,
                        "value": 1
                    },
                    {
                        "number": 64,
                        "time": 97.71239210416658,
                        "value": 0
                    },
                    {
                        "number": 64,
                        "time": 97.95203735416658,
                        "value": 1
                    },
                    {
                        "number": 64,
                        "time": 98.31742239583325,
                        "value": 0
                    },
                    {
                        "number": 64,
                        "time": 98.35884256249992,
                        "value": 1
                    },
                    {
                        "number": 64,
                        "time": 98.90692012499991,
                        "value": 0
                    },
                    {
                        "number": 64,
                        "time": 99.06372504166659,
                        "value": 1
                    },
                    {
                        "number": 64,
                        "time": 99.35588514583326,
                        "value": 0
                    },
                    {
                        "number": 64,
                        "time": 99.44464264583326,
                        "value": 1
                    },
                    {
                        "number": 64,
                        "time": 100.15470264583327,
                        "value": 0
                    },
                    {
                        "number": 64,
                        "time": 100.81816495833327,
                        "value": 1
                    },
                    {
                        "number": 64,
                        "time": 101.20426008333327,
                        "value": 0
                    },
                    {
                        "number": 64,
                        "time": 101.90914256249994,
                        "value": 1
                    },
                    {
                        "number": 64,
                        "time": 102.21757487499994,
                        "value": 0
                    },
                    {
                        "number": 64,
                        "time": 102.32186493749994,
                        "value": 1
                    },
                    {
                        "number": 64,
                        "time": 103.12585995833327,
                        "value": 0
                    },
                    {
                        "number": 64,
                        "time": 103.36106733333327,
                        "value": 1
                    },
                    {
                        "number": 64,
                        "time": 104.20130499999993,
                        "value": 0
                    },
                    {
                        "number": 64,
                        "time": 104.3869561041666,
                        "value": 1
                    },
                    {
                        "number": 64,
                        "time": 104.69169018749993,
                        "value": 0
                    },
                    {
                        "number": 64,
                        "time": 105.4076673541666,
                        "value": 1
                    },
                    {
                        "number": 64,
                        "time": 106.23311210416661,
                        "value": 0
                    },
                    {
                        "number": 64,
                        "time": 106.4727573541666,
                        "value": 1
                    },
                    {
                        "number": 64,
                        "time": 106.83814239583327,
                        "value": 0
                    },
                    {
                        "number": 64,
                        "time": 106.87956256249994,
                        "value": 1
                    },
                    {
                        "number": 64,
                        "time": 107.42764012499994,
                        "value": 0
                    },
                    {
                        "number": 64,
                        "time": 107.58444504166661,
                        "value": 1
                    },
                    {
                        "number": 64,
                        "time": 107.87660514583328,
                        "value": 0
                    },
                    {
                        "number": 64,
                        "time": 107.96536264583328,
                        "value": 1
                    },
                    {
                        "number": 64,
                        "time": 108.6754226458333,
                        "value": 0
                    },
                    {
                        "number": 64,
                        "time": 109.7982050208333,
                        "value": 1
                    },
                    {
                        "number": 64,
                        "time": 110.41432999999996,
                        "value": 0
                    },
                    {
                        "number": 64,
                        "time": 110.76935999999996,
                        "value": 1
                    },
                    {
                        "number": 64,
                        "time": 111.30190499999996,
                        "value": 0
                    },
                    {
                        "number": 64,
                        "time": 111.56299997916663,
                        "value": 1
                    },
                    {
                        "number": 64,
                        "time": 111.73015993749996,
                        "value": 0
                    },
                    {
                        "number": 64,
                        "time": 111.83444999999996,
                        "value": 1
                    },
                    {
                        "number": 64,
                        "time": 112.42986489583329,
                        "value": 0
                    },
                    {
                        "number": 64,
                        "time": 112.59702485416662,
                        "value": 1
                    },
                    {
                        "number": 64,
                        "time": 112.74273508333329,
                        "value": 0
                    },
                    {
                        "number": 64,
                        "time": 113.29599016666663,
                        "value": 1
                    },
                    {
                        "number": 64,
                        "time": 113.74569483333329,
                        "value": 0
                    },
                    {
                        "number": 64,
                        "time": 113.96462999999996,
                        "value": 1
                    },
                    {
                        "number": 64,
                        "time": 114.40397962499996,
                        "value": 0
                    },
                    {
                        "number": 64,
                        "time": 115.11847749999995,
                        "value": 1
                    },
                    {
                        "number": 64,
                        "time": 115.56226499999995,
                        "value": 0
                    },
                    {
                        "number": 64,
                        "time": 115.82335997916663,
                        "value": 1
                    },
                    {
                        "number": 64,
                        "time": 115.99051993749995,
                        "value": 0
                    },
                    {
                        "number": 64,
                        "time": 116.09480999999995,
                        "value": 1
                    },
                    {
                        "number": 64,
                        "time": 116.69022489583328,
                        "value": 0
                    },
                    {
                        "number": 64,
                        "time": 116.85738485416661,
                        "value": 1
                    },
                    {
                        "number": 64,
                        "time": 117.00309508333328,
                        "value": 0
                    },
                    {
                        "number": 64,
                        "time": 117.55635016666662,
                        "value": 1
                    },
                    {
                        "number": 64,
                        "time": 118.00605483333328,
                        "value": 0
                    },
                    {
                        "number": 64,
                        "time": 118.22498999999995,
                        "value": 1
                    },
                    {
                        "number": 64,
                        "time": 118.66433962499995,
                        "value": 0
                    },
                    {
                        "number": 64,
                        "time": 119.29007999999996,
                        "value": 1
                    },
                    {
                        "number": 64,
                        "time": 119.82262499999996,
                        "value": 0
                    },
                    {
                        "number": 64,
                        "time": 120.08371997916663,
                        "value": 1
                    },
                    {
                        "number": 64,
                        "time": 120.25087993749996,
                        "value": 0
                    },
                    {
                        "number": 64,
                        "time": 120.35516999999996,
                        "value": 1
                    },
                    {
                        "number": 64,
                        "time": 120.95058489583329,
                        "value": 0
                    },
                    {
                        "number": 64,
                        "time": 121.11774485416662,
                        "value": 1
                    },
                    {
                        "number": 64,
                        "time": 121.26345508333328,
                        "value": 0
                    },
                    {
                        "number": 64,
                        "time": 121.81671016666662,
                        "value": 1
                    },
                    {
                        "number": 64,
                        "time": 122.26641483333329,
                        "value": 0
                    },
                    {
                        "number": 64,
                        "time": 122.48534999999995,
                        "value": 1
                    },
                    {
                        "number": 64,
                        "time": 122.92469962499996,
                        "value": 0
                    },
                    {
                        "number": 64,
                        "time": 123.63919749999995,
                        "value": 1
                    },
                    {
                        "number": 64,
                        "time": 124.08298499999995,
                        "value": 0
                    },
                    {
                        "number": 64,
                        "time": 124.34407997916662,
                        "value": 1
                    },
                    {
                        "number": 64,
                        "time": 124.51123993749995,
                        "value": 0
                    },
                    {
                        "number": 64,
                        "time": 124.61552999999995,
                        "value": 1
                    },
                    {
                        "number": 64,
                        "time": 125.21094489583328,
                        "value": 0
                    },
                    {
                        "number": 64,
                        "time": 125.37810485416661,
                        "value": 1
                    },
                    {
                        "number": 64,
                        "time": 125.52381508333328,
                        "value": 0
                    },
                    {
                        "number": 64,
                        "time": 126.07707016666662,
                        "value": 1
                    },
                    {
                        "number": 64,
                        "time": 126.52677483333328,
                        "value": 0
                    },
                    {
                        "number": 64,
                        "time": 126.74570999999995,
                        "value": 1
                    },
                    {
                        "number": 64,
                        "time": 127.18505962499995,
                        "value": 0
                    },
                    {
                        "number": 64,
                        "time": 127.98831499999996,
                        "value": 1
                    },
                    {
                        "number": 64,
                        "time": 128.50014991666663,
                        "value": 0
                    },
                    {
                        "number": 64,
                        "time": 129.16805010416664,
                        "value": 1
                    },
                    {
                        "number": 64,
                        "time": 129.5334351458333,
                        "value": 0
                    },
                    {
                        "number": 64,
                        "time": 129.98018122916665,
                        "value": 1
                    },
                    {
                        "number": 64,
                        "time": 130.90769710416666,
                        "value": 0
                    },
                    {
                        "number": 64,
                        "time": 131.04527122916667,
                        "value": 1
                    },
                    {
                        "number": 64,
                        "time": 131.83447333333334,
                        "value": 0
                    },
                    {
                        "number": 64,
                        "time": 132.0911304375,
                        "value": 1
                    },
                    {
                        "number": 64,
                        "time": 132.68284710416665,
                        "value": 0
                    },
                    {
                        "number": 64,
                        "time": 132.82042122916667,
                        "value": 1
                    },
                    {
                        "number": 64,
                        "time": 133.39290710416668,
                        "value": 0
                    },
                    {
                        "number": 64,
                        "time": 133.5304812291667,
                        "value": 1
                    },
                    {
                        "number": 64,
                        "time": 133.9254521041667,
                        "value": 0
                    },
                    {
                        "number": 64,
                        "time": 134.27456493750003,
                        "value": 1
                    },
                    {
                        "number": 64,
                        "time": 135.0785599583334,
                        "value": 0
                    },
                    {
                        "number": 64,
                        "time": 135.31376733333337,
                        "value": 1
                    },
                    {
                        "number": 64,
                        "time": 136.15400500000004,
                        "value": 0
                    },
                    {
                        "number": 64,
                        "time": 136.3396561041667,
                        "value": 1
                    },
                    {
                        "number": 64,
                        "time": 136.64439018750002,
                        "value": 0
                    },
                    {
                        "number": 64,
                        "time": 137.36036735416673,
                        "value": 1
                    },
                    {
                        "number": 64,
                        "time": 138.18581210416673,
                        "value": 0
                    },
                    {
                        "number": 64,
                        "time": 138.42545735416672,
                        "value": 1
                    },
                    {
                        "number": 64,
                        "time": 138.7908423958334,
                        "value": 0
                    },
                    {
                        "number": 64,
                        "time": 138.83226256250006,
                        "value": 1
                    },
                    {
                        "number": 64,
                        "time": 139.38034012500006,
                        "value": 0
                    },
                    {
                        "number": 64,
                        "time": 139.53714504166672,
                        "value": 1
                    },
                    {
                        "number": 64,
                        "time": 139.8293051458334,
                        "value": 0
                    },
                    {
                        "number": 64,
                        "time": 139.9180626458334,
                        "value": 1
                    },
                    {
                        "number": 64,
                        "time": 140.6281226458334,
                        "value": 0
                    },
                    {
                        "number": 64,
                        "time": 141.2915849583334,
                        "value": 1
                    },
                    {
                        "number": 64,
                        "time": 141.6776800833334,
                        "value": 0
                    },
                    {
                        "number": 64,
                        "time": 142.38256256250006,
                        "value": 1
                    },
                    {
                        "number": 64,
                        "time": 142.69099487500006,
                        "value": 0
                    },
                    {
                        "number": 64,
                        "time": 142.79528493750004,
                        "value": 1
                    },
                    {
                        "number": 64,
                        "time": 143.5992799583334,
                        "value": 0
                    },
                    {
                        "number": 64,
                        "time": 143.83448733333339,
                        "value": 1
                    },
                    {
                        "number": 64,
                        "time": 144.67472500000005,
                        "value": 0
                    },
                    {
                        "number": 64,
                        "time": 144.8603761041667,
                        "value": 1
                    },
                    {
                        "number": 64,
                        "time": 145.16511018750003,
                        "value": 0
                    },
                    {
                        "number": 64,
                        "time": 145.88108735416674,
                        "value": 1
                    },
                    {
                        "number": 64,
                        "time": 146.70653210416674,
                        "value": 0
                    },
                    {
                        "number": 64,
                        "time": 146.94617735416674,
                        "value": 1
                    },
                    {
                        "number": 64,
                        "time": 147.31156239583342,
                        "value": 0
                    },
                    {
                        "number": 64,
                        "time": 147.35298256250007,
                        "value": 1
                    },
                    {
                        "number": 64,
                        "time": 147.90106012500007,
                        "value": 0
                    },
                    {
                        "number": 64,
                        "time": 148.05786504166673,
                        "value": 1
                    },
                    {
                        "number": 64,
                        "time": 148.3500251458334,
                        "value": 0
                    },
                    {
                        "number": 64,
                        "time": 148.4387826458334,
                        "value": 1
                    },
                    {
                        "number": 64,
                        "time": 149.1488426458334,
                        "value": 0
                    },
                    {
                        "number": 64,
                        "time": 150.2716250208334,
                        "value": 1
                    },
                    {
                        "number": 64,
                        "time": 150.88775000000007,
                        "value": 0
                    },
                    {
                        "number": 64,
                        "time": 151.96837256250006,
                        "value": 1
                    },
                    {
                        "number": 64,
                        "time": 152.9032848958334,
                        "value": 0
                    },
                    {
                        "number": 64,
                        "time": 153.0386400833334,
                        "value": 1
                    },
                    {
                        "number": 64,
                        "time": 153.41438016666675,
                        "value": 0
                    },
                    {
                        "number": 64,
                        "time": 153.45136245833342,
                        "value": 1
                    },
                    {
                        "number": 64,
                        "time": 153.98908497916676,
                        "value": 0
                    },
                    {
                        "number": 64,
                        "time": 154.16659997916676,
                        "value": 1
                    },
                    {
                        "number": 64,
                        "time": 154.4380500000001,
                        "value": 0
                    },
                    {
                        "number": 64,
                        "time": 154.47429264583343,
                        "value": 1
                    },
                    {
                        "number": 64,
                        "time": 155.08524010416676,
                        "value": 0
                    },
                    {
                        "number": 64,
                        "time": 155.20062485416676,
                        "value": 1
                    },
                    {
                        "number": 64,
                        "time": 155.5031400000001,
                        "value": 0
                    },
                    {
                        "number": 64,
                        "time": 155.58154245833342,
                        "value": 1
                    },
                    {
                        "number": 64,
                        "time": 156.15033010416676,
                        "value": 0
                    },
                    {
                        "number": 64,
                        "time": 156.66660289583342,
                        "value": 1
                    },
                    {
                        "number": 64,
                        "time": 157.15994666666674,
                        "value": 0
                    }
                ]
            },
            "id": 2,
            "name": "Piano left",
            "instrumentNumber": 0,
            "instrument": "acoustic grand piano",
            "instrumentFamily": "piano",
            "channelNumber": 0,
            "isPercussion": false
        },
        {
            "startTime": 0,
            "duration": 0,
            "length": 0,
            "notes": [],
            "controlChanges": {},
            "id": 3,
            "name": "Borodin: Petite Suite, Mazurka"
        },
        {
            "startTime": 0,
            "duration": 0,
            "length": 0,
            "notes": [],
            "controlChanges": {},
            "id": 4,
            "name": "Copyright  2000 by Bernd Krger"
        },
        {
            "startTime": 0,
            "duration": 0,
            "length": 0,
            "notes": [],
            "controlChanges": {},
            "id": 5,
            "name": "email: bernd.krueger@piano-midi.de"
        },
        {
            "startTime": 0,
            "duration": 0,
            "length": 0,
            "notes": [],
            "controlChanges": {},
            "id": 6,
            "name": "http://www.piano-midi.de"
        },
        {
            "startTime": 0,
            "duration": 0,
            "length": 0,
            "notes": [],
            "controlChanges": {},
            "id": 7,
            "name": "Edition: 21.8.00"
        },
        {
            "startTime": 0,
            "duration": 0,
            "length": 0,
            "notes": [],
            "controlChanges": {},
            "id": 8
        }
    ]
}