{
    "header": {
        "PPQ": 480,
        "timeSignature": [
            4,
            4
        ],
        "bpm": 190.0002850004275,
        "name": "Chopin Prelude  No. 4, Opus 28"
    },
    "startTime": 0,
    "duration": 32.84205600000002,
    "tracks": [
        {
            "startTime": 0,
            "duration": 0,
            "length": 0,
            "notes": [],
            "controlChanges": {},
            "id": 0,
            "name": "Chopin Prelude  No. 4, Opus 28"
        },
        {
            "startTime": 0.947367,
            "duration": 32.842056,
            "length": 92,
            "notes": [
                {
                    "name": "B3",
                    "midi": 59,
                    "time": 0.947367,
                    "velocity": 0.4330708661417323,
                    "duration": 0.23684175000000007
                },
                {
                    "name": "B4",
                    "midi": 71,
                    "time": 1.18420875,
                    "velocity": 0.4094488188976378,
                    "duration": 0.07894724999999991
                },
                {
                    "name": "B4",
                    "midi": 71,
                    "time": 1.263156,
                    "velocity": 0.4881889763779528,
                    "duration": 0.9473669999999998
                },
                {
                    "name": "C5",
                    "midi": 72,
                    "time": 2.2171019375,
                    "velocity": 0.4566929133858268,
                    "duration": 0.3157890000000001
                },
                {
                    "name": "B4",
                    "midi": 71,
                    "time": 2.5328909375,
                    "velocity": 0.4881889763779528,
                    "duration": 0.9473669999999998
                },
                {
                    "name": "C5",
                    "midi": 72,
                    "time": 3.4802579375,
                    "velocity": 0.4566929133858268,
                    "duration": 0.3157890000000001
                },
                {
                    "name": "B4",
                    "midi": 71,
                    "time": 3.7960469375,
                    "velocity": 0.4881889763779528,
                    "duration": 0.9407880625000002
                },
                {
                    "name": "C5",
                    "midi": 72,
                    "time": 4.736835,
                    "velocity": 0.4645669291338583,
                    "duration": 0.31578899999999965
                },
                {
                    "name": "B4",
                    "midi": 71,
                    "time": 5.052624,
                    "velocity": 0.5039370078740157,
                    "duration": 0.9473669999999998
                },
                {
                    "name": "A#4",
                    "midi": 70,
                    "time": 6.00328046875,
                    "velocity": 0.4566929133858268,
                    "duration": 0.31578899999999965
                },
                {
                    "name": "A4",
                    "midi": 69,
                    "time": 6.3190694687499995,
                    "velocity": 0.4881889763779528,
                    "duration": 0.9473669999999998
                },
                {
                    "name": "B4",
                    "midi": 71,
                    "time": 7.266436468749999,
                    "velocity": 0.49606299212598426,
                    "duration": 0.31578899999999965
                },
                {
                    "name": "A4",
                    "midi": 69,
                    "time": 7.582225468749999,
                    "velocity": 0.5196850393700787,
                    "duration": 0.9473670000000007
                },
                {
                    "name": "B4",
                    "midi": 71,
                    "time": 8.52959246875,
                    "velocity": 0.5275590551181102,
                    "duration": 0.31578900000000054
                },
                {
                    "name": "A4",
                    "midi": 69,
                    "time": 8.84538146875,
                    "velocity": 0.5275590551181102,
                    "duration": 0.9473669999999998
                },
                {
                    "name": "B4",
                    "midi": 71,
                    "time": 9.789459,
                    "velocity": 0.5196850393700787,
                    "duration": 0.23684174999999996
                },
                {
                    "name": "A4",
                    "midi": 69,
                    "time": 10.02630075,
                    "velocity": 0.44881889763779526,
                    "duration": 0.07894725000000058
                },
                {
                    "name": "A4",
                    "midi": 69,
                    "time": 10.111826937500002,
                    "velocity": 0.4881889763779528,
                    "duration": 0.9407880624999994
                },
                {
                    "name": "G#4",
                    "midi": 68,
                    "time": 11.052615000000001,
                    "velocity": 0.4881889763779528,
                    "duration": 0.6315779999999993
                },
                {
                    "name": "A4",
                    "midi": 69,
                    "time": 11.684193,
                    "velocity": 0.5118110236220472,
                    "duration": 0.15789449999999938
                },
                {
                    "name": "B4",
                    "midi": 71,
                    "time": 11.8420875,
                    "velocity": 0.5433070866141733,
                    "duration": 0.15789449999999938
                },
                {
                    "name": "D5",
                    "midi": 74,
                    "time": 11.999982,
                    "velocity": 0.5826771653543307,
                    "duration": 0.15789449999999938
                },
                {
                    "name": "C5",
                    "midi": 72,
                    "time": 12.157876499999999,
                    "velocity": 0.5118110236220472,
                    "duration": 0.15789449999999938
                },
                {
                    "name": "E4",
                    "midi": 64,
                    "time": 12.315770999999998,
                    "velocity": 0.5354330708661418,
                    "duration": 0.15789449999999938
                },
                {
                    "name": "A4",
                    "midi": 69,
                    "time": 12.473665499999997,
                    "velocity": 0.4881889763779528,
                    "duration": 0.15789449999999938
                },
                {
                    "name": "F#4",
                    "midi": 66,
                    "time": 12.631559999999997,
                    "velocity": 0.4881889763779528,
                    "duration": 0.9473669999999998
                },
                {
                    "name": "A4",
                    "midi": 69,
                    "time": 13.578926999999997,
                    "velocity": 0.44881889763779526,
                    "duration": 0.31578900000000054
                },
                {
                    "name": "F#4",
                    "midi": 66,
                    "time": 13.894715999999997,
                    "velocity": 0.4881889763779528,
                    "duration": 0.9078933750000004
                },
                {
                    "name": "B4",
                    "midi": 71,
                    "time": 14.802609374999998,
                    "velocity": 0.4094488188976378,
                    "duration": 0.0394736249999994
                },
                {
                    "name": "A4",
                    "midi": 69,
                    "time": 14.842082999999997,
                    "velocity": 0.4881889763779528,
                    "duration": 0.31578900000000054
                },
                {
                    "name": "G4",
                    "midi": 67,
                    "time": 15.157871999999998,
                    "velocity": 0.4881889763779528,
                    "duration": 0.15789449999999938
                },
                {
                    "name": "F#4",
                    "midi": 66,
                    "time": 15.315766499999997,
                    "velocity": 0.36220472440944884,
                    "duration": 0.15789449999999938
                },
                {
                    "name": "C4",
                    "midi": 60,
                    "time": 15.473660999999996,
                    "velocity": 0.4251968503937008,
                    "duration": 0.15789449999999938
                },
                {
                    "name": "B3",
                    "midi": 59,
                    "time": 15.631555499999996,
                    "velocity": 0.33070866141732286,
                    "duration": 0.15789449999999938
                },
                {
                    "name": "D#4",
                    "midi": 63,
                    "time": 15.789449999999995,
                    "velocity": 0.5039370078740157,
                    "duration": 0.15789449999999938
                },
                {
                    "name": "F#4",
                    "midi": 66,
                    "time": 15.947344499999994,
                    "velocity": 0.4645669291338583,
                    "duration": 0.15789449999999938
                },
                {
                    "name": "D5",
                    "midi": 74,
                    "time": 16.105238999999994,
                    "velocity": 0.5118110236220472,
                    "duration": 0.10526300000000077
                },
                {
                    "name": "C5",
                    "midi": 72,
                    "time": 16.210501999999995,
                    "velocity": 0.4881889763779528,
                    "duration": 0.10526300000000077
                },
                {
                    "name": "B4",
                    "midi": 71,
                    "time": 16.315764999999995,
                    "velocity": 0.44881889763779526,
                    "duration": 0.10526300000000077
                },
                {
                    "name": "B4",
                    "midi": 71,
                    "time": 16.421027999999996,
                    "velocity": 0.4881889763779528,
                    "duration": 0.9473669999999998
                },
                {
                    "name": "C5",
                    "midi": 72,
                    "time": 17.374973937499995,
                    "velocity": 0.5354330708661418,
                    "duration": 0.31578899999999877
                },
                {
                    "name": "B4",
                    "midi": 71,
                    "time": 17.690762937499994,
                    "velocity": 0.5590551181102362,
                    "duration": 0.9473669999999998
                },
                {
                    "name": "C5",
                    "midi": 72,
                    "time": 18.634840468749992,
                    "velocity": 0.5826771653543307,
                    "duration": 0.3157890000000023
                },
                {
                    "name": "B4",
                    "midi": 71,
                    "time": 18.950629468749995,
                    "velocity": 0.5984251968503937,
                    "duration": 0.9440775312499987
                },
                {
                    "name": "C5",
                    "midi": 72,
                    "time": 19.894706999999993,
                    "velocity": 0.6062992125984252,
                    "duration": 0.31578899999999877
                },
                {
                    "name": "B4",
                    "midi": 71,
                    "time": 20.210495999999992,
                    "velocity": 0.6614173228346457,
                    "duration": 0.23684174999999996
                },
                {
                    "name": "A#4",
                    "midi": 70,
                    "time": 20.447337749999992,
                    "velocity": 0.6141732283464567,
                    "duration": 0.0789472499999988
                },
                {
                    "name": "A#4",
                    "midi": 70,
                    "time": 20.52628499999999,
                    "velocity": 0.6692913385826772,
                    "duration": 0.15789450000000116
                },
                {
                    "name": "B4",
                    "midi": 71,
                    "time": 20.684179499999992,
                    "velocity": 0.5511811023622047,
                    "duration": 0.0394736249999994
                },
                {
                    "name": "A#4",
                    "midi": 70,
                    "time": 20.72365312499999,
                    "velocity": 0.5748031496062992,
                    "duration": 0.0394736249999994
                },
                {
                    "name": "A4",
                    "midi": 69,
                    "time": 20.76312674999999,
                    "velocity": 0.5984251968503937,
                    "duration": 0.0394736249999994
                },
                {
                    "name": "A#4",
                    "midi": 70,
                    "time": 20.80260037499999,
                    "velocity": 0.6220472440944882,
                    "duration": 0.0394736249999994
                },
                {
                    "name": "G5",
                    "midi": 79,
                    "time": 20.84207399999999,
                    "velocity": 0.6929133858267716,
                    "duration": 0.31578899999999877
                },
                {
                    "name": "F#5",
                    "midi": 78,
                    "time": 21.15786299999999,
                    "velocity": 0.7165354330708661,
                    "duration": 0.23684174999999996
                },
                {
                    "name": "E5",
                    "midi": 76,
                    "time": 21.39470474999999,
                    "velocity": 0.6062992125984252,
                    "duration": 0.0789472499999988
                },
                {
                    "name": "E5",
                    "midi": 76,
                    "time": 21.473651999999987,
                    "velocity": 0.7007874015748031,
                    "duration": 0.15789450000000116
                },
                {
                    "name": "D#5",
                    "midi": 75,
                    "time": 21.63154649999999,
                    "velocity": 0.6771653543307087,
                    "duration": 0.15789450000000116
                },
                {
                    "name": "C6",
                    "midi": 84,
                    "time": 21.78944099999999,
                    "velocity": 0.7244094488188977,
                    "duration": 0.15789450000000116
                },
                {
                    "name": "D#5",
                    "midi": 75,
                    "time": 21.94733549999999,
                    "velocity": 0.6692913385826772,
                    "duration": 0.15789450000000116
                },
                {
                    "name": "D#5",
                    "midi": 75,
                    "time": 22.10522999999999,
                    "velocity": 0.6929133858267716,
                    "duration": 0.15789450000000116
                },
                {
                    "name": "E5",
                    "midi": 76,
                    "time": 22.263124499999993,
                    "velocity": 0.6456692913385826,
                    "duration": 0.15789450000000116
                },
                {
                    "name": "G5",
                    "midi": 79,
                    "time": 22.421018999999994,
                    "velocity": 0.6692913385826772,
                    "duration": 0.15789450000000116
                },
                {
                    "name": "B4",
                    "midi": 71,
                    "time": 22.578913499999995,
                    "velocity": 0.6062992125984252,
                    "duration": 0.15789450000000116
                },
                {
                    "name": "D5",
                    "midi": 74,
                    "time": 22.736807999999996,
                    "velocity": 0.6299212598425197,
                    "duration": 0.15789450000000116
                },
                {
                    "name": "C5",
                    "midi": 72,
                    "time": 22.894702499999998,
                    "velocity": 0.5433070866141733,
                    "duration": 0.15789450000000116
                },
                {
                    "name": "E5",
                    "midi": 76,
                    "time": 23.052597,
                    "velocity": 0.6062992125984252,
                    "duration": 0.10526300000000077
                },
                {
                    "name": "E4",
                    "midi": 64,
                    "time": 23.15786,
                    "velocity": 0.5275590551181102,
                    "duration": 0.10526300000000077
                },
                {
                    "name": "A4",
                    "midi": 69,
                    "time": 23.263123,
                    "velocity": 0.5275590551181102,
                    "duration": 0.10526300000000077
                },
                {
                    "name": "F#4",
                    "midi": 66,
                    "time": 23.368386,
                    "velocity": 0.5748031496062992,
                    "duration": 0.4736834999999999
                },
                {
                    "name": "A4",
                    "midi": 69,
                    "time": 23.8420695,
                    "velocity": 0.5433070866141733,
                    "duration": 0.15789450000000116
                },
                {
                    "name": "F#4",
                    "midi": 66,
                    "time": 23.999964000000002,
                    "velocity": 0.5039370078740157,
                    "duration": 0.9078933750000004
                },
                {
                    "name": "B4",
                    "midi": 71,
                    "time": 24.907857375000003,
                    "velocity": 0.3700787401574803,
                    "duration": 0.0394736249999994
                },
                {
                    "name": "A4",
                    "midi": 69,
                    "time": 24.947331000000002,
                    "velocity": 0.44881889763779526,
                    "duration": 0.31578899999999877
                },
                {
                    "name": "F#4",
                    "midi": 66,
                    "time": 25.26312,
                    "velocity": 0.44881889763779526,
                    "duration": 1.1842087499999998
                },
                {
                    "name": "E4",
                    "midi": 64,
                    "time": 26.44732875,
                    "velocity": 0.4094488188976378,
                    "duration": 0.0789472499999988
                },
                {
                    "name": "E4",
                    "midi": 64,
                    "time": 26.526276,
                    "velocity": 0.44881889763779526,
                    "duration": 0.9473669999999998
                },
                {
                    "name": "F#4",
                    "midi": 66,
                    "time": 27.473643,
                    "velocity": 0.4094488188976378,
                    "duration": 0.31578899999999877
                },
                {
                    "name": "E4",
                    "midi": 64,
                    "time": 27.789431999999998,
                    "velocity": 0.4094488188976378,
                    "duration": 0.9473669999999998
                },
                {
                    "name": "F#4",
                    "midi": 66,
                    "time": 28.736798999999998,
                    "velocity": 0.3700787401574803,
                    "duration": 0.31578899999999877
                },
                {
                    "name": "E4",
                    "midi": 64,
                    "time": 29.052587999999997,
                    "velocity": 0.3700787401574803,
                    "duration": 0.6315780000000011
                },
                {
                    "name": "E3",
                    "midi": 52,
                    "time": 30.315744,
                    "velocity": 0.2204724409448819,
                    "duration": 0.6315780000000011
                },
                {
                    "name": "E4",
                    "midi": 64,
                    "time": 30.315744,
                    "velocity": 0.25984251968503935,
                    "duration": 0.6315780000000011
                },
                {
                    "name": "F#3",
                    "midi": 54,
                    "time": 30.315744,
                    "velocity": 0.2204724409448819,
                    "duration": 0.6315780000000011
                },
                {
                    "name": "B3",
                    "midi": 59,
                    "time": 30.315744,
                    "velocity": 0.2204724409448819,
                    "duration": 0.6315780000000011
                },
                {
                    "name": "F#3",
                    "midi": 54,
                    "time": 30.947322,
                    "velocity": 0.2204724409448819,
                    "duration": 0.6315780000000011
                },
                {
                    "name": "B3",
                    "midi": 59,
                    "time": 30.947322,
                    "velocity": 0.2204724409448819,
                    "duration": 0.6315780000000011
                },
                {
                    "name": "D#3",
                    "midi": 51,
                    "time": 30.947322,
                    "velocity": 0.2204724409448819,
                    "duration": 0.6315780000000011
                },
                {
                    "name": "D#4",
                    "midi": 63,
                    "time": 30.947322,
                    "velocity": 0.25984251968503935,
                    "duration": 0.6315780000000011
                },
                {
                    "name": "E4",
                    "midi": 64,
                    "time": 31.5789,
                    "velocity": 0.25984251968503935,
                    "duration": 1.2631559999999986
                },
                {
                    "name": "B3",
                    "midi": 59,
                    "time": 31.5789,
                    "velocity": 0.2204724409448819,
                    "duration": 1.2631559999999986
                },
                {
                    "name": "E3",
                    "midi": 52,
                    "time": 31.5789,
                    "velocity": 0.2204724409448819,
                    "duration": 1.2631559999999986
                },
                {
                    "name": "G3",
                    "midi": 55,
                    "time": 31.5789,
                    "velocity": 0.2204724409448819,
                    "duration": 1.2631559999999986
                }
            ],
            "controlChanges": {
                "7": [
                    {
                        "number": 7,
                        "time": 0,
                        "value": 0.7874015748031497
                    }
                ],
                "10": [
                    {
                        "number": 10,
                        "time": 0,
                        "value": 0.5039370078740157
                    }
                ],
                "91": [
                    {
                        "number": 91,
                        "time": 0,
                        "value": 1
                    }
                ]
            },
            "id": 1,
            "name": "Piano right",
            "instrumentNumber": 0,
            "instrument": "acoustic grand piano",
            "instrumentFamily": "piano",
            "channelNumber": 0,
            "isPercussion": false
        },
        {
            "startTime": 1.263156,
            "duration": 32.84205600000002,
            "length": 512,
            "notes": [
                {
                    "name": "G3",
                    "midi": 55,
                    "time": 1.263156,
                    "velocity": 0.16535433070866143,
                    "duration": 0.14210505000000007
                },
                {
                    "name": "B3",
                    "midi": 59,
                    "time": 1.263156,
                    "velocity": 0.1968503937007874,
                    "duration": 0.14210505000000007
                },
                {
                    "name": "E4",
                    "midi": 64,
                    "time": 1.263156,
                    "velocity": 0.2440944881889764,
                    "duration": 0.14210505000000007
                },
                {
                    "name": "G3",
                    "midi": 55,
                    "time": 1.4210505,
                    "velocity": 0.14173228346456693,
                    "duration": 0.14210505000000007
                },
                {
                    "name": "B3",
                    "midi": 59,
                    "time": 1.4210505,
                    "velocity": 0.1732283464566929,
                    "duration": 0.14210505000000007
                },
                {
                    "name": "E4",
                    "midi": 64,
                    "time": 1.4210505,
                    "velocity": 0.2125984251968504,
                    "duration": 0.14210505000000007
                },
                {
                    "name": "G3",
                    "midi": 55,
                    "time": 1.578945,
                    "velocity": 0.14173228346456693,
                    "duration": 0.14210505000000007
                },
                {
                    "name": "B3",
                    "midi": 59,
                    "time": 1.578945,
                    "velocity": 0.1732283464566929,
                    "duration": 0.14210505000000007
                },
                {
                    "name": "E4",
                    "midi": 64,
                    "time": 1.578945,
                    "velocity": 0.2125984251968504,
                    "duration": 0.14210505000000007
                },
                {
                    "name": "G3",
                    "midi": 55,
                    "time": 1.7368395,
                    "velocity": 0.14173228346456693,
                    "duration": 0.14210505000000007
                },
                {
                    "name": "B3",
                    "midi": 59,
                    "time": 1.7368395,
                    "velocity": 0.1732283464566929,
                    "duration": 0.14210505000000007
                },
                {
                    "name": "E4",
                    "midi": 64,
                    "time": 1.7368395,
                    "velocity": 0.2125984251968504,
                    "duration": 0.14210505000000007
                },
                {
                    "name": "G3",
                    "midi": 55,
                    "time": 1.8947340000000001,
                    "velocity": 0.14173228346456693,
                    "duration": 0.14210505000000007
                },
                {
                    "name": "B3",
                    "midi": 59,
                    "time": 1.8947340000000001,
                    "velocity": 0.1732283464566929,
                    "duration": 0.14210505000000007
                },
                {
                    "name": "E4",
                    "midi": 64,
                    "time": 1.8947340000000001,
                    "velocity": 0.2125984251968504,
                    "duration": 0.14210505000000007
                },
                {
                    "name": "G3",
                    "midi": 55,
                    "time": 2.0526285000000004,
                    "velocity": 0.14173228346456693,
                    "duration": 0.14210505000000007
                },
                {
                    "name": "B3",
                    "midi": 59,
                    "time": 2.0526285000000004,
                    "velocity": 0.1732283464566929,
                    "duration": 0.14210505000000007
                },
                {
                    "name": "E4",
                    "midi": 64,
                    "time": 2.0526285000000004,
                    "velocity": 0.2125984251968504,
                    "duration": 0.14210505000000007
                },
                {
                    "name": "G3",
                    "midi": 55,
                    "time": 2.2105230000000007,
                    "velocity": 0.12598425196850394,
                    "duration": 0.14210505000000007
                },
                {
                    "name": "B3",
                    "midi": 59,
                    "time": 2.2105230000000007,
                    "velocity": 0.14960629921259844,
                    "duration": 0.14210505000000007
                },
                {
                    "name": "E4",
                    "midi": 64,
                    "time": 2.2105230000000007,
                    "velocity": 0.1889763779527559,
                    "duration": 0.14210505000000007
                },
                {
                    "name": "G3",
                    "midi": 55,
                    "time": 2.368417500000001,
                    "velocity": 0.12598425196850394,
                    "duration": 0.14210505000000007
                },
                {
                    "name": "B3",
                    "midi": 59,
                    "time": 2.368417500000001,
                    "velocity": 0.14960629921259844,
                    "duration": 0.14210505000000007
                },
                {
                    "name": "E4",
                    "midi": 64,
                    "time": 2.368417500000001,
                    "velocity": 0.1889763779527559,
                    "duration": 0.14210505000000007
                },
                {
                    "name": "F#3",
                    "midi": 54,
                    "time": 2.5263120000000012,
                    "velocity": 0.16535433070866143,
                    "duration": 0.14210505000000007
                },
                {
                    "name": "E4",
                    "midi": 64,
                    "time": 2.5263120000000012,
                    "velocity": 0.2440944881889764,
                    "duration": 0.14210505000000007
                },
                {
                    "name": "A3",
                    "midi": 57,
                    "time": 2.5263120000000012,
                    "velocity": 0.1968503937007874,
                    "duration": 0.14210505000000007
                },
                {
                    "name": "F#3",
                    "midi": 54,
                    "time": 2.6842065000000015,
                    "velocity": 0.14173228346456693,
                    "duration": 0.14210505000000007
                },
                {
                    "name": "A3",
                    "midi": 57,
                    "time": 2.6842065000000015,
                    "velocity": 0.1732283464566929,
                    "duration": 0.14210505000000007
                },
                {
                    "name": "E4",
                    "midi": 64,
                    "time": 2.6842065000000015,
                    "velocity": 0.2125984251968504,
                    "duration": 0.14210505000000007
                },
                {
                    "name": "F#3",
                    "midi": 54,
                    "time": 2.8421010000000018,
                    "velocity": 0.14173228346456693,
                    "duration": 0.14210505000000007
                },
                {
                    "name": "E4",
                    "midi": 64,
                    "time": 2.8421010000000018,
                    "velocity": 0.2125984251968504,
                    "duration": 0.14210505000000007
                },
                {
                    "name": "A3",
                    "midi": 57,
                    "time": 2.8421010000000018,
                    "velocity": 0.1732283464566929,
                    "duration": 0.14210505000000007
                },
                {
                    "name": "A3",
                    "midi": 57,
                    "time": 2.999995500000002,
                    "velocity": 0.1732283464566929,
                    "duration": 0.14210505000000007
                },
                {
                    "name": "F#3",
                    "midi": 54,
                    "time": 2.999995500000002,
                    "velocity": 0.14173228346456693,
                    "duration": 0.14210505000000007
                },
                {
                    "name": "E4",
                    "midi": 64,
                    "time": 2.999995500000002,
                    "velocity": 0.2125984251968504,
                    "duration": 0.14210505000000007
                },
                {
                    "name": "A3",
                    "midi": 57,
                    "time": 3.1578900000000023,
                    "velocity": 0.1732283464566929,
                    "duration": 0.14210505000000007
                },
                {
                    "name": "F#3",
                    "midi": 54,
                    "time": 3.1578900000000023,
                    "velocity": 0.14173228346456693,
                    "duration": 0.14210505000000007
                },
                {
                    "name": "D#4",
                    "midi": 63,
                    "time": 3.1578900000000023,
                    "velocity": 0.2125984251968504,
                    "duration": 0.14210505000000007
                },
                {
                    "name": "D#4",
                    "midi": 63,
                    "time": 3.3157845000000026,
                    "velocity": 0.2125984251968504,
                    "duration": 0.14210505000000007
                },
                {
                    "name": "A3",
                    "midi": 57,
                    "time": 3.3157845000000026,
                    "velocity": 0.1732283464566929,
                    "duration": 0.14210505000000007
                },
                {
                    "name": "F#3",
                    "midi": 54,
                    "time": 3.3157845000000026,
                    "velocity": 0.14173228346456693,
                    "duration": 0.14210505000000007
                },
                {
                    "name": "F#3",
                    "midi": 54,
                    "time": 3.473679000000003,
                    "velocity": 0.12598425196850394,
                    "duration": 0.14210505000000007
                },
                {
                    "name": "A3",
                    "midi": 57,
                    "time": 3.473679000000003,
                    "velocity": 0.14960629921259844,
                    "duration": 0.14210505000000007
                },
                {
                    "name": "D#4",
                    "midi": 63,
                    "time": 3.473679000000003,
                    "velocity": 0.1889763779527559,
                    "duration": 0.14210505000000007
                },
                {
                    "name": "F#3",
                    "midi": 54,
                    "time": 3.631573500000003,
                    "velocity": 0.12598425196850394,
                    "duration": 0.14210505000000007
                },
                {
                    "name": "A3",
                    "midi": 57,
                    "time": 3.631573500000003,
                    "velocity": 0.14960629921259844,
                    "duration": 0.14210505000000007
                },
                {
                    "name": "D#4",
                    "midi": 63,
                    "time": 3.631573500000003,
                    "velocity": 0.1889763779527559,
                    "duration": 0.14210505000000007
                },
                {
                    "name": "F3",
                    "midi": 53,
                    "time": 3.7894680000000034,
                    "velocity": 0.16535433070866143,
                    "duration": 0.14210505000000007
                },
                {
                    "name": "A3",
                    "midi": 57,
                    "time": 3.7894680000000034,
                    "velocity": 0.1968503937007874,
                    "duration": 0.14210505000000007
                },
                {
                    "name": "D#4",
                    "midi": 63,
                    "time": 3.7894680000000034,
                    "velocity": 0.2440944881889764,
                    "duration": 0.14210505000000007
                },
                {
                    "name": "F3",
                    "midi": 53,
                    "time": 3.9473625000000037,
                    "velocity": 0.14173228346456693,
                    "duration": 0.14210505000000007
                },
                {
                    "name": "D#4",
                    "midi": 63,
                    "time": 3.9473625000000037,
                    "velocity": 0.2125984251968504,
                    "duration": 0.14210505000000007
                },
                {
                    "name": "A3",
                    "midi": 57,
                    "time": 3.9473625000000037,
                    "velocity": 0.1732283464566929,
                    "duration": 0.14210505000000007
                },
                {
                    "name": "D#4",
                    "midi": 63,
                    "time": 4.1052570000000035,
                    "velocity": 0.2125984251968504,
                    "duration": 0.14210504999999962
                },
                {
                    "name": "A3",
                    "midi": 57,
                    "time": 4.1052570000000035,
                    "velocity": 0.1732283464566929,
                    "duration": 0.14210504999999962
                },
                {
                    "name": "F3",
                    "midi": 53,
                    "time": 4.1052570000000035,
                    "velocity": 0.14173228346456693,
                    "duration": 0.14210504999999962
                },
                {
                    "name": "F3",
                    "midi": 53,
                    "time": 4.263151500000003,
                    "velocity": 0.14173228346456693,
                    "duration": 0.14210504999999962
                },
                {
                    "name": "A3",
                    "midi": 57,
                    "time": 4.263151500000003,
                    "velocity": 0.1732283464566929,
                    "duration": 0.14210504999999962
                },
                {
                    "name": "D#4",
                    "midi": 63,
                    "time": 4.263151500000003,
                    "velocity": 0.2125984251968504,
                    "duration": 0.14210504999999962
                },
                {
                    "name": "A3",
                    "midi": 57,
                    "time": 4.421046000000002,
                    "velocity": 0.1732283464566929,
                    "duration": 0.14210504999999962
                },
                {
                    "name": "D4",
                    "midi": 62,
                    "time": 4.421046000000002,
                    "velocity": 0.2125984251968504,
                    "duration": 0.14210504999999962
                },
                {
                    "name": "F3",
                    "midi": 53,
                    "time": 4.421046000000002,
                    "velocity": 0.14173228346456693,
                    "duration": 0.14210504999999962
                },
                {
                    "name": "F3",
                    "midi": 53,
                    "time": 4.578940500000002,
                    "velocity": 0.14173228346456693,
                    "duration": 0.14210504999999962
                },
                {
                    "name": "D4",
                    "midi": 62,
                    "time": 4.578940500000002,
                    "velocity": 0.2125984251968504,
                    "duration": 0.14210504999999962
                },
                {
                    "name": "A3",
                    "midi": 57,
                    "time": 4.578940500000002,
                    "velocity": 0.1732283464566929,
                    "duration": 0.14210504999999962
                },
                {
                    "name": "F3",
                    "midi": 53,
                    "time": 4.736835000000001,
                    "velocity": 0.12598425196850394,
                    "duration": 0.14210504999999962
                },
                {
                    "name": "D4",
                    "midi": 62,
                    "time": 4.736835000000001,
                    "velocity": 0.1889763779527559,
                    "duration": 0.14210504999999962
                },
                {
                    "name": "G#3",
                    "midi": 56,
                    "time": 4.736835000000001,
                    "velocity": 0.14960629921259844,
                    "duration": 0.14210504999999962
                },
                {
                    "name": "F3",
                    "midi": 53,
                    "time": 4.8947295,
                    "velocity": 0.12598425196850394,
                    "duration": 0.14210504999999962
                },
                {
                    "name": "G#3",
                    "midi": 56,
                    "time": 4.8947295,
                    "velocity": 0.14960629921259844,
                    "duration": 0.14210504999999962
                },
                {
                    "name": "D4",
                    "midi": 62,
                    "time": 4.8947295,
                    "velocity": 0.1889763779527559,
                    "duration": 0.14210504999999962
                },
                {
                    "name": "E3",
                    "midi": 52,
                    "time": 5.052624,
                    "velocity": 0.16535433070866143,
                    "duration": 0.14210504999999962
                },
                {
                    "name": "G#3",
                    "midi": 56,
                    "time": 5.052624,
                    "velocity": 0.1968503937007874,
                    "duration": 0.14210504999999962
                },
                {
                    "name": "D4",
                    "midi": 62,
                    "time": 5.052624,
                    "velocity": 0.2440944881889764,
                    "duration": 0.14210504999999962
                },
                {
                    "name": "G#3",
                    "midi": 56,
                    "time": 5.210518499999999,
                    "velocity": 0.1732283464566929,
                    "duration": 0.14210504999999962
                },
                {
                    "name": "D4",
                    "midi": 62,
                    "time": 5.210518499999999,
                    "velocity": 0.2125984251968504,
                    "duration": 0.14210504999999962
                },
                {
                    "name": "E3",
                    "midi": 52,
                    "time": 5.210518499999999,
                    "velocity": 0.14173228346456693,
                    "duration": 0.14210504999999962
                },
                {
                    "name": "G#3",
                    "midi": 56,
                    "time": 5.3684129999999985,
                    "velocity": 0.1732283464566929,
                    "duration": 0.14210504999999962
                },
                {
                    "name": "D4",
                    "midi": 62,
                    "time": 5.3684129999999985,
                    "velocity": 0.2125984251968504,
                    "duration": 0.14210504999999962
                },
                {
                    "name": "E3",
                    "midi": 52,
                    "time": 5.3684129999999985,
                    "velocity": 0.14173228346456693,
                    "duration": 0.14210504999999962
                },
                {
                    "name": "D4",
                    "midi": 62,
                    "time": 5.526307499999998,
                    "velocity": 0.2125984251968504,
                    "duration": 0.14210504999999962
                },
                {
                    "name": "G#3",
                    "midi": 56,
                    "time": 5.526307499999998,
                    "velocity": 0.1732283464566929,
                    "duration": 0.14210504999999962
                },
                {
                    "name": "E3",
                    "midi": 52,
                    "time": 5.526307499999998,
                    "velocity": 0.14173228346456693,
                    "duration": 0.14210504999999962
                },
                {
                    "name": "D4",
                    "midi": 62,
                    "time": 5.684201999999997,
                    "velocity": 0.2125984251968504,
                    "duration": 0.1421050500000005
                },
                {
                    "name": "G3",
                    "midi": 55,
                    "time": 5.684201999999997,
                    "velocity": 0.1732283464566929,
                    "duration": 0.1421050500000005
                },
                {
                    "name": "E3",
                    "midi": 52,
                    "time": 5.684201999999997,
                    "velocity": 0.14173228346456693,
                    "duration": 0.1421050500000005
                },
                {
                    "name": "E3",
                    "midi": 52,
                    "time": 5.842096499999998,
                    "velocity": 0.14173228346456693,
                    "duration": 0.14210504999999962
                },
                {
                    "name": "G3",
                    "midi": 55,
                    "time": 5.842096499999998,
                    "velocity": 0.1732283464566929,
                    "duration": 0.14210504999999962
                },
                {
                    "name": "D4",
                    "midi": 62,
                    "time": 5.842096499999998,
                    "velocity": 0.2125984251968504,
                    "duration": 0.14210504999999962
                },
                {
                    "name": "C#4",
                    "midi": 61,
                    "time": 5.999990999999997,
                    "velocity": 0.1889763779527559,
                    "duration": 0.1421050500000005
                },
                {
                    "name": "E3",
                    "midi": 52,
                    "time": 5.999990999999997,
                    "velocity": 0.12598425196850394,
                    "duration": 0.1421050500000005
                },
                {
                    "name": "G3",
                    "midi": 55,
                    "time": 5.999990999999997,
                    "velocity": 0.14960629921259844,
                    "duration": 0.1421050500000005
                },
                {
                    "name": "E3",
                    "midi": 52,
                    "time": 6.157885499999997,
                    "velocity": 0.12598425196850394,
                    "duration": 0.14210504999999962
                },
                {
                    "name": "G3",
                    "midi": 55,
                    "time": 6.157885499999997,
                    "velocity": 0.14960629921259844,
                    "duration": 0.14210504999999962
                },
                {
                    "name": "C#4",
                    "midi": 61,
                    "time": 6.157885499999997,
                    "velocity": 0.1889763779527559,
                    "duration": 0.14210504999999962
                },
                {
                    "name": "E3",
                    "midi": 52,
                    "time": 6.315779999999997,
                    "velocity": 0.16535433070866143,
                    "duration": 0.1421050500000005
                },
                {
                    "name": "C4",
                    "midi": 60,
                    "time": 6.315779999999997,
                    "velocity": 0.2440944881889764,
                    "duration": 0.1421050500000005
                },
                {
                    "name": "G3",
                    "midi": 55,
                    "time": 6.315779999999997,
                    "velocity": 0.1968503937007874,
                    "duration": 0.1421050500000005
                },
                {
                    "name": "G3",
                    "midi": 55,
                    "time": 6.473674499999997,
                    "velocity": 0.1732283464566929,
                    "duration": 0.14210504999999962
                },
                {
                    "name": "E3",
                    "midi": 52,
                    "time": 6.473674499999997,
                    "velocity": 0.14173228346456693,
                    "duration": 0.14210504999999962
                },
                {
                    "name": "C4",
                    "midi": 60,
                    "time": 6.473674499999997,
                    "velocity": 0.2125984251968504,
                    "duration": 0.14210504999999962
                },
                {
                    "name": "G3",
                    "midi": 55,
                    "time": 6.631568999999996,
                    "velocity": 0.18110236220472442,
                    "duration": 0.14210504999999962
                },
                {
                    "name": "E3",
                    "midi": 52,
                    "time": 6.631568999999996,
                    "velocity": 0.14173228346456693,
                    "duration": 0.14210504999999962
                },
                {
                    "name": "C4",
                    "midi": 60,
                    "time": 6.631568999999996,
                    "velocity": 0.2204724409448819,
                    "duration": 0.14210504999999962
                },
                {
                    "name": "G3",
                    "midi": 55,
                    "time": 6.789463499999996,
                    "velocity": 0.18110236220472442,
                    "duration": 0.14210504999999962
                },
                {
                    "name": "C4",
                    "midi": 60,
                    "time": 6.789463499999996,
                    "velocity": 0.2204724409448819,
                    "duration": 0.14210504999999962
                },
                {
                    "name": "E3",
                    "midi": 52,
                    "time": 6.789463499999996,
                    "velocity": 0.14960629921259844,
                    "duration": 0.14210504999999962
                },
                {
                    "name": "C4",
                    "midi": 60,
                    "time": 6.947357999999995,
                    "velocity": 0.2440944881889764,
                    "duration": 0.14210504999999962
                },
                {
                    "name": "E3",
                    "midi": 52,
                    "time": 6.947357999999995,
                    "velocity": 0.15748031496062992,
                    "duration": 0.14210504999999962
                },
                {
                    "name": "F#3",
                    "midi": 54,
                    "time": 6.947357999999995,
                    "velocity": 0.2047244094488189,
                    "duration": 0.14210504999999962
                },
                {
                    "name": "C4",
                    "midi": 60,
                    "time": 7.105252499999994,
                    "velocity": 0.2677165354330709,
                    "duration": 0.14210504999999962
                },
                {
                    "name": "E3",
                    "midi": 52,
                    "time": 7.105252499999994,
                    "velocity": 0.1732283464566929,
                    "duration": 0.14210504999999962
                },
                {
                    "name": "F#3",
                    "midi": 54,
                    "time": 7.105252499999994,
                    "velocity": 0.2047244094488189,
                    "duration": 0.14210504999999962
                },
                {
                    "name": "F#3",
                    "midi": 54,
                    "time": 7.263146999999994,
                    "velocity": 0.18110236220472442,
                    "duration": 0.14210504999999962
                },
                {
                    "name": "E3",
                    "midi": 52,
                    "time": 7.263146999999994,
                    "velocity": 0.14960629921259844,
                    "duration": 0.14210504999999962
                },
                {
                    "name": "C4",
                    "midi": 60,
                    "time": 7.263146999999994,
                    "velocity": 0.2440944881889764,
                    "duration": 0.14210504999999962
                },
                {
                    "name": "E3",
                    "midi": 52,
                    "time": 7.421041499999993,
                    "velocity": 0.14960629921259844,
                    "duration": 0.14210504999999962
                },
                {
                    "name": "F#3",
                    "midi": 54,
                    "time": 7.421041499999993,
                    "velocity": 0.1968503937007874,
                    "duration": 0.14210504999999962
                },
                {
                    "name": "C4",
                    "midi": 60,
                    "time": 7.421041499999993,
                    "velocity": 0.25196850393700787,
                    "duration": 0.14210504999999962
                },
                {
                    "name": "F#3",
                    "midi": 54,
                    "time": 7.578935999999993,
                    "velocity": 0.2677165354330709,
                    "duration": 0.14210504999999962
                },
                {
                    "name": "C4",
                    "midi": 60,
                    "time": 7.578935999999993,
                    "velocity": 0.30708661417322836,
                    "duration": 0.14210504999999962
                },
                {
                    "name": "E3",
                    "midi": 52,
                    "time": 7.578935999999993,
                    "velocity": 0.2125984251968504,
                    "duration": 0.14210504999999962
                },
                {
                    "name": "F#3",
                    "midi": 54,
                    "time": 7.736830499999992,
                    "velocity": 0.2125984251968504,
                    "duration": 0.14210504999999962
                },
                {
                    "name": "C4",
                    "midi": 60,
                    "time": 7.736830499999992,
                    "velocity": 0.2755905511811024,
                    "duration": 0.14210504999999962
                },
                {
                    "name": "E3",
                    "midi": 52,
                    "time": 7.736830499999992,
                    "velocity": 0.18110236220472442,
                    "duration": 0.14210504999999962
                },
                {
                    "name": "F#3",
                    "midi": 54,
                    "time": 7.894724999999991,
                    "velocity": 0.2125984251968504,
                    "duration": 0.1421050500000005
                },
                {
                    "name": "C4",
                    "midi": 60,
                    "time": 7.894724999999991,
                    "velocity": 0.2755905511811024,
                    "duration": 0.1421050500000005
                },
                {
                    "name": "E3",
                    "midi": 52,
                    "time": 7.894724999999991,
                    "velocity": 0.1732283464566929,
                    "duration": 0.1421050500000005
                },
                {
                    "name": "E3",
                    "midi": 52,
                    "time": 8.052619499999992,
                    "velocity": 0.1732283464566929,
                    "duration": 0.14210504999999962
                },
                {
                    "name": "C4",
                    "midi": 60,
                    "time": 8.052619499999992,
                    "velocity": 0.2677165354330709,
                    "duration": 0.14210504999999962
                },
                {
                    "name": "F#3",
                    "midi": 54,
                    "time": 8.052619499999992,
                    "velocity": 0.2047244094488189,
                    "duration": 0.14210504999999962
                },
                {
                    "name": "D#3",
                    "midi": 51,
                    "time": 8.210513999999991,
                    "velocity": 0.2047244094488189,
                    "duration": 0.1421050500000014
                },
                {
                    "name": "C4",
                    "midi": 60,
                    "time": 8.210513999999991,
                    "velocity": 0.25196850393700787,
                    "duration": 0.1421050500000014
                },
                {
                    "name": "F#3",
                    "midi": 54,
                    "time": 8.210513999999991,
                    "velocity": 0.2047244094488189,
                    "duration": 0.1421050500000014
                },
                {
                    "name": "D#3",
                    "midi": 51,
                    "time": 8.368408499999992,
                    "velocity": 0.1968503937007874,
                    "duration": 0.14210504999999962
                },
                {
                    "name": "F#3",
                    "midi": 54,
                    "time": 8.368408499999992,
                    "velocity": 0.1968503937007874,
                    "duration": 0.14210504999999962
                },
                {
                    "name": "C4",
                    "midi": 60,
                    "time": 8.368408499999992,
                    "velocity": 0.25196850393700787,
                    "duration": 0.14210504999999962
                },
                {
                    "name": "D#3",
                    "midi": 51,
                    "time": 8.526302999999992,
                    "velocity": 0.15748031496062992,
                    "duration": 0.14210504999999962
                },
                {
                    "name": "F#3",
                    "midi": 54,
                    "time": 8.526302999999992,
                    "velocity": 0.15748031496062992,
                    "duration": 0.14210504999999962
                },
                {
                    "name": "C4",
                    "midi": 60,
                    "time": 8.526302999999992,
                    "velocity": 0.2125984251968504,
                    "duration": 0.14210504999999962
                },
                {
                    "name": "F#3",
                    "midi": 54,
                    "time": 8.684197499999991,
                    "velocity": 0.15748031496062992,
                    "duration": 0.14210504999999962
                },
                {
                    "name": "C4",
                    "midi": 60,
                    "time": 8.684197499999991,
                    "velocity": 0.2047244094488189,
                    "duration": 0.14210504999999962
                },
                {
                    "name": "D#3",
                    "midi": 51,
                    "time": 8.684197499999991,
                    "velocity": 0.15748031496062992,
                    "duration": 0.14210504999999962
                },
                {
                    "name": "F#3",
                    "midi": 54,
                    "time": 8.84209199999999,
                    "velocity": 0.2283464566929134,
                    "duration": 0.1421050500000014
                },
                {
                    "name": "D3",
                    "midi": 50,
                    "time": 8.84209199999999,
                    "velocity": 0.1968503937007874,
                    "duration": 0.1421050500000014
                },
                {
                    "name": "C4",
                    "midi": 60,
                    "time": 8.84209199999999,
                    "velocity": 0.29133858267716534,
                    "duration": 0.1421050500000014
                },
                {
                    "name": "D3",
                    "midi": 50,
                    "time": 8.999986499999991,
                    "velocity": 0.15748031496062992,
                    "duration": 0.14210504999999962
                },
                {
                    "name": "F#3",
                    "midi": 54,
                    "time": 8.999986499999991,
                    "velocity": 0.2047244094488189,
                    "duration": 0.14210504999999962
                },
                {
                    "name": "C4",
                    "midi": 60,
                    "time": 8.999986499999991,
                    "velocity": 0.25196850393700787,
                    "duration": 0.14210504999999962
                },
                {
                    "name": "F#3",
                    "midi": 54,
                    "time": 9.15788099999999,
                    "velocity": 0.2047244094488189,
                    "duration": 0.14210504999999962
                },
                {
                    "name": "C4",
                    "midi": 60,
                    "time": 9.15788099999999,
                    "velocity": 0.25196850393700787,
                    "duration": 0.14210504999999962
                },
                {
                    "name": "D3",
                    "midi": 50,
                    "time": 9.15788099999999,
                    "velocity": 0.15748031496062992,
                    "duration": 0.14210504999999962
                },
                {
                    "name": "C4",
                    "midi": 60,
                    "time": 9.31577549999999,
                    "velocity": 0.25196850393700787,
                    "duration": 0.14210504999999962
                },
                {
                    "name": "D3",
                    "midi": 50,
                    "time": 9.31577549999999,
                    "velocity": 0.15748031496062992,
                    "duration": 0.14210504999999962
                },
                {
                    "name": "F#3",
                    "midi": 54,
                    "time": 9.31577549999999,
                    "velocity": 0.2047244094488189,
                    "duration": 0.14210504999999962
                },
                {
                    "name": "C4",
                    "midi": 60,
                    "time": 9.47366999999999,
                    "velocity": 0.25196850393700787,
                    "duration": 0.14210504999999962
                },
                {
                    "name": "D3",
                    "midi": 50,
                    "time": 9.47366999999999,
                    "velocity": 0.15748031496062992,
                    "duration": 0.14210504999999962
                },
                {
                    "name": "F#3",
                    "midi": 54,
                    "time": 9.47366999999999,
                    "velocity": 0.2047244094488189,
                    "duration": 0.14210504999999962
                },
                {
                    "name": "D3",
                    "midi": 50,
                    "time": 9.631564499999989,
                    "velocity": 0.15748031496062992,
                    "duration": 0.14210504999999962
                },
                {
                    "name": "F#3",
                    "midi": 54,
                    "time": 9.631564499999989,
                    "velocity": 0.2047244094488189,
                    "duration": 0.14210504999999962
                },
                {
                    "name": "C4",
                    "midi": 60,
                    "time": 9.631564499999989,
                    "velocity": 0.25196850393700787,
                    "duration": 0.14210504999999962
                },
                {
                    "name": "D3",
                    "midi": 50,
                    "time": 9.789458999999988,
                    "velocity": 0.13385826771653545,
                    "duration": 0.14210504999999962
                },
                {
                    "name": "C4",
                    "midi": 60,
                    "time": 9.789458999999988,
                    "velocity": 0.2047244094488189,
                    "duration": 0.14210504999999962
                },
                {
                    "name": "F#3",
                    "midi": 54,
                    "time": 9.789458999999988,
                    "velocity": 0.15748031496062992,
                    "duration": 0.14210504999999962
                },
                {
                    "name": "F#3",
                    "midi": 54,
                    "time": 9.947353499999988,
                    "velocity": 0.15748031496062992,
                    "duration": 0.14210504999999962
                },
                {
                    "name": "D3",
                    "midi": 50,
                    "time": 9.947353499999988,
                    "velocity": 0.13385826771653545,
                    "duration": 0.14210504999999962
                },
                {
                    "name": "C4",
                    "midi": 60,
                    "time": 9.947353499999988,
                    "velocity": 0.2047244094488189,
                    "duration": 0.14210504999999962
                },
                {
                    "name": "F3",
                    "midi": 53,
                    "time": 10.105247999999987,
                    "velocity": 0.1968503937007874,
                    "duration": 0.14210504999999962
                },
                {
                    "name": "D3",
                    "midi": 50,
                    "time": 10.105247999999987,
                    "velocity": 0.16535433070866143,
                    "duration": 0.14210504999999962
                },
                {
                    "name": "C4",
                    "midi": 60,
                    "time": 10.105247999999987,
                    "velocity": 0.2440944881889764,
                    "duration": 0.14210504999999962
                },
                {
                    "name": "C4",
                    "midi": 60,
                    "time": 10.263142499999987,
                    "velocity": 0.2125984251968504,
                    "duration": 0.14210504999999962
                },
                {
                    "name": "F3",
                    "midi": 53,
                    "time": 10.263142499999987,
                    "velocity": 0.1732283464566929,
                    "duration": 0.14210504999999962
                },
                {
                    "name": "D3",
                    "midi": 50,
                    "time": 10.263142499999987,
                    "velocity": 0.14173228346456693,
                    "duration": 0.14210504999999962
                },
                {
                    "name": "D3",
                    "midi": 50,
                    "time": 10.421036999999986,
                    "velocity": 0.14173228346456693,
                    "duration": 0.14210504999999962
                },
                {
                    "name": "F3",
                    "midi": 53,
                    "time": 10.421036999999986,
                    "velocity": 0.1732283464566929,
                    "duration": 0.14210504999999962
                },
                {
                    "name": "C4",
                    "midi": 60,
                    "time": 10.421036999999986,
                    "velocity": 0.2125984251968504,
                    "duration": 0.14210504999999962
                },
                {
                    "name": "D3",
                    "midi": 50,
                    "time": 10.578931499999985,
                    "velocity": 0.14173228346456693,
                    "duration": 0.14210504999999962
                },
                {
                    "name": "C4",
                    "midi": 60,
                    "time": 10.578931499999985,
                    "velocity": 0.2125984251968504,
                    "duration": 0.14210504999999962
                },
                {
                    "name": "F3",
                    "midi": 53,
                    "time": 10.578931499999985,
                    "velocity": 0.1732283464566929,
                    "duration": 0.14210504999999962
                },
                {
                    "name": "D3",
                    "midi": 50,
                    "time": 10.736825999999985,
                    "velocity": 0.14173228346456693,
                    "duration": 0.14210504999999962
                },
                {
                    "name": "F3",
                    "midi": 53,
                    "time": 10.736825999999985,
                    "velocity": 0.1732283464566929,
                    "duration": 0.14210504999999962
                },
                {
                    "name": "B3",
                    "midi": 59,
                    "time": 10.736825999999985,
                    "velocity": 0.2125984251968504,
                    "duration": 0.14210504999999962
                },
                {
                    "name": "D3",
                    "midi": 50,
                    "time": 10.894720499999984,
                    "velocity": 0.14173228346456693,
                    "duration": 0.14210504999999962
                },
                {
                    "name": "F3",
                    "midi": 53,
                    "time": 10.894720499999984,
                    "velocity": 0.1732283464566929,
                    "duration": 0.14210504999999962
                },
                {
                    "name": "B3",
                    "midi": 59,
                    "time": 10.894720499999984,
                    "velocity": 0.2125984251968504,
                    "duration": 0.14210504999999962
                },
                {
                    "name": "F3",
                    "midi": 53,
                    "time": 11.052614999999983,
                    "velocity": 0.14960629921259844,
                    "duration": 0.14210504999999962
                },
                {
                    "name": "B3",
                    "midi": 59,
                    "time": 11.052614999999983,
                    "velocity": 0.1889763779527559,
                    "duration": 0.14210504999999962
                },
                {
                    "name": "D3",
                    "midi": 50,
                    "time": 11.052614999999983,
                    "velocity": 0.12598425196850394,
                    "duration": 0.14210504999999962
                },
                {
                    "name": "F3",
                    "midi": 53,
                    "time": 11.210509499999983,
                    "velocity": 0.14960629921259844,
                    "duration": 0.14210504999999962
                },
                {
                    "name": "B3",
                    "midi": 59,
                    "time": 11.210509499999983,
                    "velocity": 0.1889763779527559,
                    "duration": 0.14210504999999962
                },
                {
                    "name": "D3",
                    "midi": 50,
                    "time": 11.210509499999983,
                    "velocity": 0.12598425196850394,
                    "duration": 0.14210504999999962
                },
                {
                    "name": "E3",
                    "midi": 52,
                    "time": 11.368403999999982,
                    "velocity": 0.2283464566929134,
                    "duration": 0.14210504999999785
                },
                {
                    "name": "B3",
                    "midi": 59,
                    "time": 11.368403999999982,
                    "velocity": 0.2283464566929134,
                    "duration": 0.14210504999999785
                },
                {
                    "name": "C3",
                    "midi": 48,
                    "time": 11.368403999999982,
                    "velocity": 0.1889763779527559,
                    "duration": 0.14210504999999785
                },
                {
                    "name": "C3",
                    "midi": 48,
                    "time": 11.52629849999998,
                    "velocity": 0.18110236220472442,
                    "duration": 0.14210504999999962
                },
                {
                    "name": "B3",
                    "midi": 59,
                    "time": 11.52629849999998,
                    "velocity": 0.2204724409448819,
                    "duration": 0.14210504999999962
                },
                {
                    "name": "E3",
                    "midi": 52,
                    "time": 11.52629849999998,
                    "velocity": 0.2204724409448819,
                    "duration": 0.14210504999999962
                },
                {
                    "name": "C3",
                    "midi": 48,
                    "time": 11.68419299999998,
                    "velocity": 0.2047244094488189,
                    "duration": 0.14210504999999785
                },
                {
                    "name": "A3",
                    "midi": 57,
                    "time": 11.68419299999998,
                    "velocity": 0.25196850393700787,
                    "duration": 0.14210504999999785
                },
                {
                    "name": "E3",
                    "midi": 52,
                    "time": 11.68419299999998,
                    "velocity": 0.25196850393700787,
                    "duration": 0.14210504999999785
                },
                {
                    "name": "A3",
                    "midi": 57,
                    "time": 11.842087499999977,
                    "velocity": 0.2755905511811024,
                    "duration": 0.14210504999999962
                },
                {
                    "name": "C3",
                    "midi": 48,
                    "time": 11.842087499999977,
                    "velocity": 0.2125984251968504,
                    "duration": 0.14210504999999962
                },
                {
                    "name": "E3",
                    "midi": 52,
                    "time": 11.842087499999977,
                    "velocity": 0.2755905511811024,
                    "duration": 0.14210504999999962
                },
                {
                    "name": "C3",
                    "midi": 48,
                    "time": 11.999981999999976,
                    "velocity": 0.2125984251968504,
                    "duration": 0.14210504999999962
                },
                {
                    "name": "E3",
                    "midi": 52,
                    "time": 11.999981999999976,
                    "velocity": 0.2755905511811024,
                    "duration": 0.14210504999999962
                },
                {
                    "name": "A3",
                    "midi": 57,
                    "time": 11.999981999999976,
                    "velocity": 0.2755905511811024,
                    "duration": 0.14210504999999962
                },
                {
                    "name": "C3",
                    "midi": 48,
                    "time": 12.157876499999976,
                    "velocity": 0.2047244094488189,
                    "duration": 0.14210504999999962
                },
                {
                    "name": "A3",
                    "midi": 57,
                    "time": 12.157876499999976,
                    "velocity": 0.25196850393700787,
                    "duration": 0.14210504999999962
                },
                {
                    "name": "E3",
                    "midi": 52,
                    "time": 12.157876499999976,
                    "velocity": 0.25196850393700787,
                    "duration": 0.14210504999999962
                },
                {
                    "name": "E3",
                    "midi": 52,
                    "time": 12.315770999999975,
                    "velocity": 0.2047244094488189,
                    "duration": 0.14210504999999962
                },
                {
                    "name": "C3",
                    "midi": 48,
                    "time": 12.315770999999975,
                    "velocity": 0.15748031496062992,
                    "duration": 0.14210504999999962
                },
                {
                    "name": "A3",
                    "midi": 57,
                    "time": 12.315770999999975,
                    "velocity": 0.2047244094488189,
                    "duration": 0.14210504999999962
                },
                {
                    "name": "E3",
                    "midi": 52,
                    "time": 12.473665499999974,
                    "velocity": 0.1968503937007874,
                    "duration": 0.14210504999999962
                },
                {
                    "name": "C3",
                    "midi": 48,
                    "time": 12.473665499999974,
                    "velocity": 0.15748031496062992,
                    "duration": 0.14210504999999962
                },
                {
                    "name": "A3",
                    "midi": 57,
                    "time": 12.473665499999974,
                    "velocity": 0.1968503937007874,
                    "duration": 0.14210504999999962
                },
                {
                    "name": "E3",
                    "midi": 52,
                    "time": 12.631559999999974,
                    "velocity": 0.2283464566929134,
                    "duration": 0.14210504999999962
                },
                {
                    "name": "A3",
                    "midi": 57,
                    "time": 12.631559999999974,
                    "velocity": 0.2283464566929134,
                    "duration": 0.14210504999999962
                },
                {
                    "name": "B2",
                    "midi": 47,
                    "time": 12.631559999999974,
                    "velocity": 0.1889763779527559,
                    "duration": 0.14210504999999962
                },
                {
                    "name": "A3",
                    "midi": 57,
                    "time": 12.789454499999973,
                    "velocity": 0.2125984251968504,
                    "duration": 0.14210504999999962
                },
                {
                    "name": "B2",
                    "midi": 47,
                    "time": 12.789454499999973,
                    "velocity": 0.1732283464566929,
                    "duration": 0.14210504999999962
                },
                {
                    "name": "E3",
                    "midi": 52,
                    "time": 12.789454499999973,
                    "velocity": 0.2125984251968504,
                    "duration": 0.14210504999999962
                },
                {
                    "name": "A3",
                    "midi": 57,
                    "time": 12.947348999999972,
                    "velocity": 0.2125984251968504,
                    "duration": 0.14210504999999962
                },
                {
                    "name": "B2",
                    "midi": 47,
                    "time": 12.947348999999972,
                    "velocity": 0.1732283464566929,
                    "duration": 0.14210504999999962
                },
                {
                    "name": "D#3",
                    "midi": 51,
                    "time": 12.947348999999972,
                    "velocity": 0.2125984251968504,
                    "duration": 0.14210504999999962
                },
                {
                    "name": "B2",
                    "midi": 47,
                    "time": 13.105243499999972,
                    "velocity": 0.1732283464566929,
                    "duration": 0.14210504999999962
                },
                {
                    "name": "D#3",
                    "midi": 51,
                    "time": 13.105243499999972,
                    "velocity": 0.2125984251968504,
                    "duration": 0.14210504999999962
                },
                {
                    "name": "A3",
                    "midi": 57,
                    "time": 13.105243499999972,
                    "velocity": 0.2125984251968504,
                    "duration": 0.14210504999999962
                },
                {
                    "name": "C3",
                    "midi": 48,
                    "time": 13.263137999999971,
                    "velocity": 0.1732283464566929,
                    "duration": 0.14210504999999962
                },
                {
                    "name": "A3",
                    "midi": 57,
                    "time": 13.263137999999971,
                    "velocity": 0.2125984251968504,
                    "duration": 0.14210504999999962
                },
                {
                    "name": "E3",
                    "midi": 52,
                    "time": 13.263137999999971,
                    "velocity": 0.2125984251968504,
                    "duration": 0.14210504999999962
                },
                {
                    "name": "C3",
                    "midi": 48,
                    "time": 13.42103249999997,
                    "velocity": 0.1732283464566929,
                    "duration": 0.14210504999999962
                },
                {
                    "name": "E3",
                    "midi": 52,
                    "time": 13.42103249999997,
                    "velocity": 0.2125984251968504,
                    "duration": 0.14210504999999962
                },
                {
                    "name": "A3",
                    "midi": 57,
                    "time": 13.42103249999997,
                    "velocity": 0.2125984251968504,
                    "duration": 0.14210504999999962
                },
                {
                    "name": "C3",
                    "midi": 48,
                    "time": 13.57892699999997,
                    "velocity": 0.14960629921259844,
                    "duration": 0.14210504999999962
                },
                {
                    "name": "E3",
                    "midi": 52,
                    "time": 13.57892699999997,
                    "velocity": 0.18110236220472442,
                    "duration": 0.14210504999999962
                },
                {
                    "name": "A3",
                    "midi": 57,
                    "time": 13.57892699999997,
                    "velocity": 0.18110236220472442,
                    "duration": 0.14210504999999962
                },
                {
                    "name": "C3",
                    "midi": 48,
                    "time": 13.73682149999997,
                    "velocity": 0.14960629921259844,
                    "duration": 0.14210504999999962
                },
                {
                    "name": "E3",
                    "midi": 52,
                    "time": 13.73682149999997,
                    "velocity": 0.18110236220472442,
                    "duration": 0.14210504999999962
                },
                {
                    "name": "A3",
                    "midi": 57,
                    "time": 13.73682149999997,
                    "velocity": 0.18110236220472442,
                    "duration": 0.14210504999999962
                },
                {
                    "name": "B2",
                    "midi": 47,
                    "time": 13.894715999999969,
                    "velocity": 0.1889763779527559,
                    "duration": 0.14210504999999962
                },
                {
                    "name": "D#3",
                    "midi": 51,
                    "time": 13.894715999999969,
                    "velocity": 0.2283464566929134,
                    "duration": 0.14210504999999962
                },
                {
                    "name": "A3",
                    "midi": 57,
                    "time": 13.894715999999969,
                    "velocity": 0.2283464566929134,
                    "duration": 0.14210504999999962
                },
                {
                    "name": "B2",
                    "midi": 47,
                    "time": 14.052610499999968,
                    "velocity": 0.1732283464566929,
                    "duration": 0.14210504999999962
                },
                {
                    "name": "D#3",
                    "midi": 51,
                    "time": 14.052610499999968,
                    "velocity": 0.2125984251968504,
                    "duration": 0.14210504999999962
                },
                {
                    "name": "A3",
                    "midi": 57,
                    "time": 14.052610499999968,
                    "velocity": 0.2125984251968504,
                    "duration": 0.14210504999999962
                },
                {
                    "name": "B2",
                    "midi": 47,
                    "time": 14.210504999999968,
                    "velocity": 0.1732283464566929,
                    "duration": 0.14210504999999962
                },
                {
                    "name": "D#3",
                    "midi": 51,
                    "time": 14.210504999999968,
                    "velocity": 0.2125984251968504,
                    "duration": 0.14210504999999962
                },
                {
                    "name": "A3",
                    "midi": 57,
                    "time": 14.210504999999968,
                    "velocity": 0.2125984251968504,
                    "duration": 0.14210504999999962
                },
                {
                    "name": "B2",
                    "midi": 47,
                    "time": 14.368399499999967,
                    "velocity": 0.1732283464566929,
                    "duration": 0.14210504999999962
                },
                {
                    "name": "D#3",
                    "midi": 51,
                    "time": 14.368399499999967,
                    "velocity": 0.2125984251968504,
                    "duration": 0.14210504999999962
                },
                {
                    "name": "A3",
                    "midi": 57,
                    "time": 14.368399499999967,
                    "velocity": 0.2125984251968504,
                    "duration": 0.14210504999999962
                },
                {
                    "name": "C3",
                    "midi": 48,
                    "time": 14.526293999999966,
                    "velocity": 0.1732283464566929,
                    "duration": 0.14210504999999962
                },
                {
                    "name": "E3",
                    "midi": 52,
                    "time": 14.526293999999966,
                    "velocity": 0.2125984251968504,
                    "duration": 0.14210504999999962
                },
                {
                    "name": "A3",
                    "midi": 57,
                    "time": 14.526293999999966,
                    "velocity": 0.2125984251968504,
                    "duration": 0.14210504999999962
                },
                {
                    "name": "C3",
                    "midi": 48,
                    "time": 14.684188499999966,
                    "velocity": 0.1732283464566929,
                    "duration": 0.14210504999999962
                },
                {
                    "name": "E3",
                    "midi": 52,
                    "time": 14.684188499999966,
                    "velocity": 0.2125984251968504,
                    "duration": 0.14210504999999962
                },
                {
                    "name": "A3",
                    "midi": 57,
                    "time": 14.684188499999966,
                    "velocity": 0.2125984251968504,
                    "duration": 0.14210504999999962
                },
                {
                    "name": "C3",
                    "midi": 48,
                    "time": 14.842082999999965,
                    "velocity": 0.14960629921259844,
                    "duration": 0.14210504999999962
                },
                {
                    "name": "E3",
                    "midi": 52,
                    "time": 14.842082999999965,
                    "velocity": 0.18110236220472442,
                    "duration": 0.14210504999999962
                },
                {
                    "name": "A3",
                    "midi": 57,
                    "time": 14.842082999999965,
                    "velocity": 0.18110236220472442,
                    "duration": 0.14210504999999962
                },
                {
                    "name": "C3",
                    "midi": 48,
                    "time": 14.999977499999964,
                    "velocity": 0.14960629921259844,
                    "duration": 0.14210504999999962
                },
                {
                    "name": "E3",
                    "midi": 52,
                    "time": 14.999977499999964,
                    "velocity": 0.18110236220472442,
                    "duration": 0.14210504999999962
                },
                {
                    "name": "A3",
                    "midi": 57,
                    "time": 14.999977499999964,
                    "velocity": 0.18110236220472442,
                    "duration": 0.14210504999999962
                },
                {
                    "name": "B2",
                    "midi": 47,
                    "time": 15.157871999999964,
                    "velocity": 0.1889763779527559,
                    "duration": 0.31578900000000054
                },
                {
                    "name": "D#3",
                    "midi": 51,
                    "time": 15.157871999999964,
                    "velocity": 0.2283464566929134,
                    "duration": 0.31578900000000054
                },
                {
                    "name": "A3",
                    "midi": 57,
                    "time": 15.157871999999964,
                    "velocity": 0.2283464566929134,
                    "duration": 0.31578900000000054
                },
                {
                    "name": "G3",
                    "midi": 55,
                    "time": 16.421027999999964,
                    "velocity": 0.16535433070866143,
                    "duration": 0.1421050500000014
                },
                {
                    "name": "B3",
                    "midi": 59,
                    "time": 16.421027999999964,
                    "velocity": 0.1968503937007874,
                    "duration": 0.1421050500000014
                },
                {
                    "name": "E4",
                    "midi": 64,
                    "time": 16.421027999999964,
                    "velocity": 0.2440944881889764,
                    "duration": 0.1421050500000014
                },
                {
                    "name": "G3",
                    "midi": 55,
                    "time": 16.578922499999965,
                    "velocity": 0.14173228346456693,
                    "duration": 0.1421050500000014
                },
                {
                    "name": "B3",
                    "midi": 59,
                    "time": 16.578922499999965,
                    "velocity": 0.1732283464566929,
                    "duration": 0.1421050500000014
                },
                {
                    "name": "E4",
                    "midi": 64,
                    "time": 16.578922499999965,
                    "velocity": 0.2125984251968504,
                    "duration": 0.1421050500000014
                },
                {
                    "name": "G3",
                    "midi": 55,
                    "time": 16.736816999999967,
                    "velocity": 0.14173228346456693,
                    "duration": 0.1421050500000014
                },
                {
                    "name": "B3",
                    "midi": 59,
                    "time": 16.736816999999967,
                    "velocity": 0.1732283464566929,
                    "duration": 0.1421050500000014
                },
                {
                    "name": "E4",
                    "midi": 64,
                    "time": 16.736816999999967,
                    "velocity": 0.2283464566929134,
                    "duration": 0.1421050500000014
                },
                {
                    "name": "G3",
                    "midi": 55,
                    "time": 16.894711499999968,
                    "velocity": 0.14960629921259844,
                    "duration": 0.1421050500000014
                },
                {
                    "name": "B3",
                    "midi": 59,
                    "time": 16.894711499999968,
                    "velocity": 0.1889763779527559,
                    "duration": 0.1421050500000014
                },
                {
                    "name": "E4",
                    "midi": 64,
                    "time": 16.894711499999968,
                    "velocity": 0.2283464566929134,
                    "duration": 0.1421050500000014
                },
                {
                    "name": "G3",
                    "midi": 55,
                    "time": 17.05260599999997,
                    "velocity": 0.14960629921259844,
                    "duration": 0.1421050500000014
                },
                {
                    "name": "B3",
                    "midi": 59,
                    "time": 17.05260599999997,
                    "velocity": 0.1968503937007874,
                    "duration": 0.1421050500000014
                },
                {
                    "name": "E4",
                    "midi": 64,
                    "time": 17.05260599999997,
                    "velocity": 0.2440944881889764,
                    "duration": 0.1421050500000014
                },
                {
                    "name": "G3",
                    "midi": 55,
                    "time": 17.21050049999997,
                    "velocity": 0.15748031496062992,
                    "duration": 0.1421050500000014
                },
                {
                    "name": "B3",
                    "midi": 59,
                    "time": 17.21050049999997,
                    "velocity": 0.2047244094488189,
                    "duration": 0.1421050500000014
                },
                {
                    "name": "E4",
                    "midi": 64,
                    "time": 17.21050049999997,
                    "velocity": 0.25196850393700787,
                    "duration": 0.1421050500000014
                },
                {
                    "name": "G3",
                    "midi": 55,
                    "time": 17.36839499999997,
                    "velocity": 0.15748031496062992,
                    "duration": 0.1421050500000014
                },
                {
                    "name": "B3",
                    "midi": 59,
                    "time": 17.36839499999997,
                    "velocity": 0.1889763779527559,
                    "duration": 0.1421050500000014
                },
                {
                    "name": "E4",
                    "midi": 64,
                    "time": 17.36839499999997,
                    "velocity": 0.25196850393700787,
                    "duration": 0.1421050500000014
                },
                {
                    "name": "G3",
                    "midi": 55,
                    "time": 17.526289499999972,
                    "velocity": 0.15748031496062992,
                    "duration": 0.1421050500000014
                },
                {
                    "name": "B3",
                    "midi": 59,
                    "time": 17.526289499999972,
                    "velocity": 0.2047244094488189,
                    "duration": 0.1421050500000014
                },
                {
                    "name": "E4",
                    "midi": 64,
                    "time": 17.526289499999972,
                    "velocity": 0.25984251968503935,
                    "duration": 0.1421050500000014
                },
                {
                    "name": "F#3",
                    "midi": 54,
                    "time": 17.684183999999973,
                    "velocity": 0.18110236220472442,
                    "duration": 0.14210504999999785
                },
                {
                    "name": "E4",
                    "midi": 64,
                    "time": 17.684183999999973,
                    "velocity": 0.2755905511811024,
                    "duration": 0.14210504999999785
                },
                {
                    "name": "A3",
                    "midi": 57,
                    "time": 17.684183999999973,
                    "velocity": 0.2204724409448819,
                    "duration": 0.14210504999999785
                },
                {
                    "name": "F#3",
                    "midi": 54,
                    "time": 17.84207849999997,
                    "velocity": 0.15748031496062992,
                    "duration": 0.1421050500000014
                },
                {
                    "name": "A3",
                    "midi": 57,
                    "time": 17.84207849999997,
                    "velocity": 0.1968503937007874,
                    "duration": 0.1421050500000014
                },
                {
                    "name": "E4",
                    "midi": 64,
                    "time": 17.84207849999997,
                    "velocity": 0.25196850393700787,
                    "duration": 0.1421050500000014
                },
                {
                    "name": "F#3",
                    "midi": 54,
                    "time": 17.999972999999972,
                    "velocity": 0.16535433070866143,
                    "duration": 0.1421050500000014
                },
                {
                    "name": "E4",
                    "midi": 64,
                    "time": 17.999972999999972,
                    "velocity": 0.25984251968503935,
                    "duration": 0.1421050500000014
                },
                {
                    "name": "A3",
                    "midi": 57,
                    "time": 17.999972999999972,
                    "velocity": 0.2047244094488189,
                    "duration": 0.1421050500000014
                },
                {
                    "name": "A3",
                    "midi": 57,
                    "time": 18.157867499999973,
                    "velocity": 0.2125984251968504,
                    "duration": 0.1421050500000014
                },
                {
                    "name": "F#3",
                    "midi": 54,
                    "time": 18.157867499999973,
                    "velocity": 0.1732283464566929,
                    "duration": 0.1421050500000014
                },
                {
                    "name": "E4",
                    "midi": 64,
                    "time": 18.157867499999973,
                    "velocity": 0.2755905511811024,
                    "duration": 0.1421050500000014
                },
                {
                    "name": "A3",
                    "midi": 57,
                    "time": 18.315761999999975,
                    "velocity": 0.2204724409448819,
                    "duration": 0.1421050500000014
                },
                {
                    "name": "F3",
                    "midi": 53,
                    "time": 18.315761999999975,
                    "velocity": 0.1732283464566929,
                    "duration": 0.1421050500000014
                },
                {
                    "name": "D#4",
                    "midi": 63,
                    "time": 18.315761999999975,
                    "velocity": 0.2755905511811024,
                    "duration": 0.1421050500000014
                },
                {
                    "name": "D#4",
                    "midi": 63,
                    "time": 18.473656499999976,
                    "velocity": 0.2992125984251969,
                    "duration": 0.1421050500000014
                },
                {
                    "name": "A3",
                    "midi": 57,
                    "time": 18.473656499999976,
                    "velocity": 0.2283464566929134,
                    "duration": 0.1421050500000014
                },
                {
                    "name": "F3",
                    "midi": 53,
                    "time": 18.473656499999976,
                    "velocity": 0.1889763779527559,
                    "duration": 0.1421050500000014
                },
                {
                    "name": "F3",
                    "midi": 53,
                    "time": 18.631550999999977,
                    "velocity": 0.1889763779527559,
                    "duration": 0.14210504999999785
                },
                {
                    "name": "A3",
                    "midi": 57,
                    "time": 18.631550999999977,
                    "velocity": 0.2125984251968504,
                    "duration": 0.14210504999999785
                },
                {
                    "name": "D#4",
                    "midi": 63,
                    "time": 18.631550999999977,
                    "velocity": 0.2992125984251969,
                    "duration": 0.14210504999999785
                },
                {
                    "name": "F3",
                    "midi": 53,
                    "time": 18.789445499999974,
                    "velocity": 0.1968503937007874,
                    "duration": 0.1421050500000014
                },
                {
                    "name": "A3",
                    "midi": 57,
                    "time": 18.789445499999974,
                    "velocity": 0.23622047244094488,
                    "duration": 0.1421050500000014
                },
                {
                    "name": "D#4",
                    "midi": 63,
                    "time": 18.789445499999974,
                    "velocity": 0.2992125984251969,
                    "duration": 0.1421050500000014
                },
                {
                    "name": "F3",
                    "midi": 53,
                    "time": 18.947339999999976,
                    "velocity": 0.23622047244094488,
                    "duration": 0.1421050500000014
                },
                {
                    "name": "G#3",
                    "midi": 56,
                    "time": 18.947339999999976,
                    "velocity": 0.29133858267716534,
                    "duration": 0.1421050500000014
                },
                {
                    "name": "D#4",
                    "midi": 63,
                    "time": 18.947339999999976,
                    "velocity": 0.3543307086614173,
                    "duration": 0.1421050500000014
                },
                {
                    "name": "F3",
                    "midi": 53,
                    "time": 19.105234499999977,
                    "velocity": 0.2047244094488189,
                    "duration": 0.1421050500000014
                },
                {
                    "name": "D#4",
                    "midi": 63,
                    "time": 19.105234499999977,
                    "velocity": 0.31496062992125984,
                    "duration": 0.1421050500000014
                },
                {
                    "name": "G#3",
                    "midi": 56,
                    "time": 19.105234499999977,
                    "velocity": 0.25984251968503935,
                    "duration": 0.1421050500000014
                },
                {
                    "name": "D4",
                    "midi": 62,
                    "time": 19.263128999999978,
                    "velocity": 0.3228346456692913,
                    "duration": 0.1421050500000014
                },
                {
                    "name": "G#3",
                    "midi": 56,
                    "time": 19.263128999999978,
                    "velocity": 0.2677165354330709,
                    "duration": 0.1421050500000014
                },
                {
                    "name": "F3",
                    "midi": 53,
                    "time": 19.263128999999978,
                    "velocity": 0.2125984251968504,
                    "duration": 0.1421050500000014
                },
                {
                    "name": "F3",
                    "midi": 53,
                    "time": 19.42102349999998,
                    "velocity": 0.2125984251968504,
                    "duration": 0.1421050500000014
                },
                {
                    "name": "G#3",
                    "midi": 56,
                    "time": 19.42102349999998,
                    "velocity": 0.28346456692913385,
                    "duration": 0.1421050500000014
                },
                {
                    "name": "D4",
                    "midi": 62,
                    "time": 19.42102349999998,
                    "velocity": 0.3228346456692913,
                    "duration": 0.1421050500000014
                },
                {
                    "name": "G#3",
                    "midi": 56,
                    "time": 19.57891799999998,
                    "velocity": 0.28346456692913385,
                    "duration": 0.1421050500000014
                },
                {
                    "name": "D4",
                    "midi": 62,
                    "time": 19.57891799999998,
                    "velocity": 0.3464566929133858,
                    "duration": 0.1421050500000014
                },
                {
                    "name": "E3",
                    "midi": 52,
                    "time": 19.57891799999998,
                    "velocity": 0.2283464566929134,
                    "duration": 0.1421050500000014
                },
                {
                    "name": "E3",
                    "midi": 52,
                    "time": 19.73681249999998,
                    "velocity": 0.2283464566929134,
                    "duration": 0.1421050500000014
                },
                {
                    "name": "D4",
                    "midi": 62,
                    "time": 19.73681249999998,
                    "velocity": 0.3543307086614173,
                    "duration": 0.1421050500000014
                },
                {
                    "name": "G#3",
                    "midi": 56,
                    "time": 19.73681249999998,
                    "velocity": 0.29133858267716534,
                    "duration": 0.1421050500000014
                },
                {
                    "name": "E3",
                    "midi": 52,
                    "time": 19.894706999999983,
                    "velocity": 0.2125984251968504,
                    "duration": 0.14210504999999785
                },
                {
                    "name": "D4",
                    "midi": 62,
                    "time": 19.894706999999983,
                    "velocity": 0.31496062992125984,
                    "duration": 0.14210504999999785
                },
                {
                    "name": "G#3",
                    "midi": 56,
                    "time": 19.894706999999983,
                    "velocity": 0.2440944881889764,
                    "duration": 0.14210504999999785
                },
                {
                    "name": "E3",
                    "midi": 52,
                    "time": 20.05260149999998,
                    "velocity": 0.2125984251968504,
                    "duration": 0.1421050500000014
                },
                {
                    "name": "G#3",
                    "midi": 56,
                    "time": 20.05260149999998,
                    "velocity": 0.2440944881889764,
                    "duration": 0.1421050500000014
                },
                {
                    "name": "D4",
                    "midi": 62,
                    "time": 20.05260149999998,
                    "velocity": 0.3228346456692913,
                    "duration": 0.1421050500000014
                },
                {
                    "name": "E3",
                    "midi": 52,
                    "time": 20.21049599999998,
                    "velocity": 0.33070866141732286,
                    "duration": 0.14210504999999785
                },
                {
                    "name": "G3",
                    "midi": 55,
                    "time": 20.21049599999998,
                    "velocity": 0.33070866141732286,
                    "duration": 0.14210504999999785
                },
                {
                    "name": "D4",
                    "midi": 62,
                    "time": 20.21049599999998,
                    "velocity": 0.3937007874015748,
                    "duration": 0.14210504999999785
                },
                {
                    "name": "E3",
                    "midi": 52,
                    "time": 20.36839049999998,
                    "velocity": 0.28346456692913385,
                    "duration": 0.1421050500000014
                },
                {
                    "name": "G3",
                    "midi": 55,
                    "time": 20.36839049999998,
                    "velocity": 0.28346456692913385,
                    "duration": 0.1421050500000014
                },
                {
                    "name": "D4",
                    "midi": 62,
                    "time": 20.36839049999998,
                    "velocity": 0.33070866141732286,
                    "duration": 0.1421050500000014
                },
                {
                    "name": "E3",
                    "midi": 52,
                    "time": 20.52628499999998,
                    "velocity": 0.2992125984251969,
                    "duration": 0.14210504999999785
                },
                {
                    "name": "G3",
                    "midi": 55,
                    "time": 20.52628499999998,
                    "velocity": 0.2992125984251969,
                    "duration": 0.14210504999999785
                },
                {
                    "name": "C#4",
                    "midi": 61,
                    "time": 20.52628499999998,
                    "velocity": 0.3543307086614173,
                    "duration": 0.14210504999999785
                },
                {
                    "name": "E3",
                    "midi": 52,
                    "time": 20.684179499999978,
                    "velocity": 0.36220472440944884,
                    "duration": 0.1421050500000014
                },
                {
                    "name": "G3",
                    "midi": 55,
                    "time": 20.684179499999978,
                    "velocity": 0.36220472440944884,
                    "duration": 0.1421050500000014
                },
                {
                    "name": "C#4",
                    "midi": 61,
                    "time": 20.684179499999978,
                    "velocity": 0.4330708661417323,
                    "duration": 0.1421050500000014
                },
                {
                    "name": "C#3",
                    "midi": 49,
                    "time": 20.84207399999998,
                    "velocity": 0.36220472440944884,
                    "duration": 0.1421050500000014
                },
                {
                    "name": "E3",
                    "midi": 52,
                    "time": 20.84207399999998,
                    "velocity": 0.36220472440944884,
                    "duration": 0.1421050500000014
                },
                {
                    "name": "A#3",
                    "midi": 58,
                    "time": 20.84207399999998,
                    "velocity": 0.4409448818897638,
                    "duration": 0.1421050500000014
                },
                {
                    "name": "C#3",
                    "midi": 49,
                    "time": 20.99996849999998,
                    "velocity": 0.33858267716535434,
                    "duration": 0.1421050500000014
                },
                {
                    "name": "E3",
                    "midi": 52,
                    "time": 20.99996849999998,
                    "velocity": 0.33858267716535434,
                    "duration": 0.1421050500000014
                },
                {
                    "name": "A#3",
                    "midi": 58,
                    "time": 20.99996849999998,
                    "velocity": 0.4094488188976378,
                    "duration": 0.1421050500000014
                },
                {
                    "name": "C3",
                    "midi": 48,
                    "time": 21.15786299999998,
                    "velocity": 0.33858267716535434,
                    "duration": 0.14210504999999785
                },
                {
                    "name": "E3",
                    "midi": 52,
                    "time": 21.15786299999998,
                    "velocity": 0.33858267716535434,
                    "duration": 0.14210504999999785
                },
                {
                    "name": "A3",
                    "midi": 57,
                    "time": 21.15786299999998,
                    "velocity": 0.4094488188976378,
                    "duration": 0.14210504999999785
                },
                {
                    "name": "C3",
                    "midi": 48,
                    "time": 21.31575749999998,
                    "velocity": 0.3543307086614173,
                    "duration": 0.1421050500000014
                },
                {
                    "name": "E3",
                    "midi": 52,
                    "time": 21.31575749999998,
                    "velocity": 0.3543307086614173,
                    "duration": 0.1421050500000014
                },
                {
                    "name": "A3",
                    "midi": 57,
                    "time": 21.31575749999998,
                    "velocity": 0.4251968503937008,
                    "duration": 0.1421050500000014
                },
                {
                    "name": "B1",
                    "midi": 35,
                    "time": 21.47365199999998,
                    "velocity": 0.44881889763779526,
                    "duration": 0.1421050500000014
                },
                {
                    "name": "B2",
                    "midi": 47,
                    "time": 21.47365199999998,
                    "velocity": 0.5433070866141733,
                    "duration": 0.1421050500000014
                },
                {
                    "name": "A4",
                    "midi": 69,
                    "time": 21.63154649999998,
                    "velocity": 0.4251968503937008,
                    "duration": 0.1421050500000014
                },
                {
                    "name": "F#4",
                    "midi": 66,
                    "time": 21.63154649999998,
                    "velocity": 0.4251968503937008,
                    "duration": 0.1421050500000014
                },
                {
                    "name": "C4",
                    "midi": 60,
                    "time": 21.63154649999998,
                    "velocity": 0.3543307086614173,
                    "duration": 0.1421050500000014
                },
                {
                    "name": "A3",
                    "midi": 57,
                    "time": 21.63154649999998,
                    "velocity": 0.3543307086614173,
                    "duration": 0.1421050500000014
                },
                {
                    "name": "A3",
                    "midi": 57,
                    "time": 21.789440999999982,
                    "velocity": 0.3543307086614173,
                    "duration": 0.1421050500000014
                },
                {
                    "name": "C4",
                    "midi": 60,
                    "time": 21.789440999999982,
                    "velocity": 0.3543307086614173,
                    "duration": 0.1421050500000014
                },
                {
                    "name": "F#4",
                    "midi": 66,
                    "time": 21.789440999999982,
                    "velocity": 0.4251968503937008,
                    "duration": 0.1421050500000014
                },
                {
                    "name": "A4",
                    "midi": 69,
                    "time": 21.789440999999982,
                    "velocity": 0.4251968503937008,
                    "duration": 0.1421050500000014
                },
                {
                    "name": "A3",
                    "midi": 57,
                    "time": 21.947335499999983,
                    "velocity": 0.3543307086614173,
                    "duration": 0.1421050500000014
                },
                {
                    "name": "C4",
                    "midi": 60,
                    "time": 21.947335499999983,
                    "velocity": 0.3543307086614173,
                    "duration": 0.1421050500000014
                },
                {
                    "name": "F#4",
                    "midi": 66,
                    "time": 21.947335499999983,
                    "velocity": 0.4251968503937008,
                    "duration": 0.1421050500000014
                },
                {
                    "name": "A4",
                    "midi": 69,
                    "time": 21.947335499999983,
                    "velocity": 0.4251968503937008,
                    "duration": 0.1421050500000014
                },
                {
                    "name": "F#4",
                    "midi": 66,
                    "time": 22.105229999999985,
                    "velocity": 0.44881889763779526,
                    "duration": 0.1421050500000014
                },
                {
                    "name": "D#4",
                    "midi": 63,
                    "time": 22.105229999999985,
                    "velocity": 0.44881889763779526,
                    "duration": 0.1421050500000014
                },
                {
                    "name": "B3",
                    "midi": 59,
                    "time": 22.105229999999985,
                    "velocity": 0.3700787401574803,
                    "duration": 0.1421050500000014
                },
                {
                    "name": "G3",
                    "midi": 55,
                    "time": 22.105229999999985,
                    "velocity": 0.3700787401574803,
                    "duration": 0.1421050500000014
                },
                {
                    "name": "E4",
                    "midi": 64,
                    "time": 22.263124499999986,
                    "velocity": 0.3858267716535433,
                    "duration": 0.1421050500000014
                },
                {
                    "name": "B3",
                    "midi": 59,
                    "time": 22.263124499999986,
                    "velocity": 0.3228346456692913,
                    "duration": 0.1421050500000014
                },
                {
                    "name": "G3",
                    "midi": 55,
                    "time": 22.263124499999986,
                    "velocity": 0.3228346456692913,
                    "duration": 0.1421050500000014
                },
                {
                    "name": "G3",
                    "midi": 55,
                    "time": 22.421018999999987,
                    "velocity": 0.3228346456692913,
                    "duration": 0.1421050500000014
                },
                {
                    "name": "B3",
                    "midi": 59,
                    "time": 22.421018999999987,
                    "velocity": 0.3228346456692913,
                    "duration": 0.1421050500000014
                },
                {
                    "name": "E4",
                    "midi": 64,
                    "time": 22.421018999999987,
                    "velocity": 0.3858267716535433,
                    "duration": 0.1421050500000014
                },
                {
                    "name": "G3",
                    "midi": 55,
                    "time": 22.578913499999988,
                    "velocity": 0.3228346456692913,
                    "duration": 0.1421050500000014
                },
                {
                    "name": "B3",
                    "midi": 59,
                    "time": 22.578913499999988,
                    "velocity": 0.3228346456692913,
                    "duration": 0.1421050500000014
                },
                {
                    "name": "E4",
                    "midi": 64,
                    "time": 22.578913499999988,
                    "velocity": 0.3858267716535433,
                    "duration": 0.1421050500000014
                },
                {
                    "name": "E4",
                    "midi": 64,
                    "time": 22.73680799999999,
                    "velocity": 0.41732283464566927,
                    "duration": 0.1421050500000014
                },
                {
                    "name": "C4",
                    "midi": 60,
                    "time": 22.73680799999999,
                    "velocity": 0.3464566929133858,
                    "duration": 0.1421050500000014
                },
                {
                    "name": "A3",
                    "midi": 57,
                    "time": 22.73680799999999,
                    "velocity": 0.3464566929133858,
                    "duration": 0.1421050500000014
                },
                {
                    "name": "A3",
                    "midi": 57,
                    "time": 22.89470249999999,
                    "velocity": 0.2992125984251969,
                    "duration": 0.1421050500000014
                },
                {
                    "name": "C4",
                    "midi": 60,
                    "time": 22.89470249999999,
                    "velocity": 0.2992125984251969,
                    "duration": 0.1421050500000014
                },
                {
                    "name": "E4",
                    "midi": 64,
                    "time": 22.89470249999999,
                    "velocity": 0.36220472440944884,
                    "duration": 0.1421050500000014
                },
                {
                    "name": "A2",
                    "midi": 45,
                    "time": 23.05259699999999,
                    "velocity": 0.3464566929133858,
                    "duration": 0.1421050500000014
                },
                {
                    "name": "C4",
                    "midi": 60,
                    "time": 23.210491499999993,
                    "velocity": 0.3464566929133858,
                    "duration": 0.1421050500000014
                },
                {
                    "name": "F#3",
                    "midi": 54,
                    "time": 23.210491499999993,
                    "velocity": 0.29133858267716534,
                    "duration": 0.1421050500000014
                },
                {
                    "name": "E3",
                    "midi": 52,
                    "time": 23.210491499999993,
                    "velocity": 0.29133858267716534,
                    "duration": 0.1421050500000014
                },
                {
                    "name": "B2",
                    "midi": 47,
                    "time": 23.368385999999994,
                    "velocity": 0.2992125984251969,
                    "duration": 0.1421050500000014
                },
                {
                    "name": "E3",
                    "midi": 52,
                    "time": 23.368385999999994,
                    "velocity": 0.2992125984251969,
                    "duration": 0.1421050500000014
                },
                {
                    "name": "B3",
                    "midi": 59,
                    "time": 23.368385999999994,
                    "velocity": 0.36220472440944884,
                    "duration": 0.1421050500000014
                },
                {
                    "name": "B2",
                    "midi": 47,
                    "time": 23.526280499999995,
                    "velocity": 0.25984251968503935,
                    "duration": 0.1421050500000014
                },
                {
                    "name": "E3",
                    "midi": 52,
                    "time": 23.526280499999995,
                    "velocity": 0.25984251968503935,
                    "duration": 0.1421050500000014
                },
                {
                    "name": "B3",
                    "midi": 59,
                    "time": 23.526280499999995,
                    "velocity": 0.2992125984251969,
                    "duration": 0.1421050500000014
                },
                {
                    "name": "C3",
                    "midi": 48,
                    "time": 23.684174999999996,
                    "velocity": 0.25984251968503935,
                    "duration": 0.1421050500000014
                },
                {
                    "name": "E3",
                    "midi": 52,
                    "time": 23.684174999999996,
                    "velocity": 0.25984251968503935,
                    "duration": 0.1421050500000014
                },
                {
                    "name": "A3",
                    "midi": 57,
                    "time": 23.684174999999996,
                    "velocity": 0.2992125984251969,
                    "duration": 0.1421050500000014
                },
                {
                    "name": "C3",
                    "midi": 48,
                    "time": 23.842069499999997,
                    "velocity": 0.2283464566929134,
                    "duration": 0.1421050500000014
                },
                {
                    "name": "E3",
                    "midi": 52,
                    "time": 23.842069499999997,
                    "velocity": 0.2283464566929134,
                    "duration": 0.1421050500000014
                },
                {
                    "name": "A3",
                    "midi": 57,
                    "time": 23.842069499999997,
                    "velocity": 0.28346456692913385,
                    "duration": 0.1421050500000014
                },
                {
                    "name": "B2",
                    "midi": 47,
                    "time": 23.999964,
                    "velocity": 0.1889763779527559,
                    "duration": 0.14210504999999785
                },
                {
                    "name": "E3",
                    "midi": 52,
                    "time": 23.999964,
                    "velocity": 0.2283464566929134,
                    "duration": 0.14210504999999785
                },
                {
                    "name": "B3",
                    "midi": 59,
                    "time": 23.999964,
                    "velocity": 0.2283464566929134,
                    "duration": 0.14210504999999785
                },
                {
                    "name": "B2",
                    "midi": 47,
                    "time": 24.157858499999996,
                    "velocity": 0.1732283464566929,
                    "duration": 0.1421050500000014
                },
                {
                    "name": "E3",
                    "midi": 52,
                    "time": 24.157858499999996,
                    "velocity": 0.2125984251968504,
                    "duration": 0.1421050500000014
                },
                {
                    "name": "B3",
                    "midi": 59,
                    "time": 24.157858499999996,
                    "velocity": 0.2125984251968504,
                    "duration": 0.1421050500000014
                },
                {
                    "name": "B2",
                    "midi": 47,
                    "time": 24.315752999999997,
                    "velocity": 0.1732283464566929,
                    "duration": 0.14210504999999785
                },
                {
                    "name": "B3",
                    "midi": 59,
                    "time": 24.315752999999997,
                    "velocity": 0.2125984251968504,
                    "duration": 0.14210504999999785
                },
                {
                    "name": "E3",
                    "midi": 52,
                    "time": 24.318384574999996,
                    "velocity": 0.2125984251968504,
                    "duration": 0.14210504999999785
                },
                {
                    "name": "B2",
                    "midi": 47,
                    "time": 24.473647499999995,
                    "velocity": 0.1732283464566929,
                    "duration": 0.1421050500000014
                },
                {
                    "name": "E3",
                    "midi": 52,
                    "time": 24.473647499999995,
                    "velocity": 0.2125984251968504,
                    "duration": 0.1421050500000014
                },
                {
                    "name": "B3",
                    "midi": 59,
                    "time": 24.473647499999995,
                    "velocity": 0.2125984251968504,
                    "duration": 0.1421050500000014
                },
                {
                    "name": "C3",
                    "midi": 48,
                    "time": 24.631541999999996,
                    "velocity": 0.1732283464566929,
                    "duration": 0.14210504999999785
                },
                {
                    "name": "E3",
                    "midi": 52,
                    "time": 24.631541999999996,
                    "velocity": 0.2125984251968504,
                    "duration": 0.14210504999999785
                },
                {
                    "name": "A3",
                    "midi": 57,
                    "time": 24.631541999999996,
                    "velocity": 0.2125984251968504,
                    "duration": 0.14210504999999785
                },
                {
                    "name": "C3",
                    "midi": 48,
                    "time": 24.789436499999994,
                    "velocity": 0.1732283464566929,
                    "duration": 0.1421050500000014
                },
                {
                    "name": "E3",
                    "midi": 52,
                    "time": 24.789436499999994,
                    "velocity": 0.2125984251968504,
                    "duration": 0.1421050500000014
                },
                {
                    "name": "A3",
                    "midi": 57,
                    "time": 24.789436499999994,
                    "velocity": 0.2125984251968504,
                    "duration": 0.1421050500000014
                },
                {
                    "name": "C3",
                    "midi": 48,
                    "time": 24.947330999999995,
                    "velocity": 0.14960629921259844,
                    "duration": 0.1421050500000014
                },
                {
                    "name": "E3",
                    "midi": 52,
                    "time": 24.947330999999995,
                    "velocity": 0.18110236220472442,
                    "duration": 0.1421050500000014
                },
                {
                    "name": "A3",
                    "midi": 57,
                    "time": 24.947330999999995,
                    "velocity": 0.18110236220472442,
                    "duration": 0.1421050500000014
                },
                {
                    "name": "C3",
                    "midi": 48,
                    "time": 25.105225499999996,
                    "velocity": 0.14960629921259844,
                    "duration": 0.1421050500000014
                },
                {
                    "name": "E3",
                    "midi": 52,
                    "time": 25.105225499999996,
                    "velocity": 0.18110236220472442,
                    "duration": 0.1421050500000014
                },
                {
                    "name": "A3",
                    "midi": 57,
                    "time": 25.105225499999996,
                    "velocity": 0.18110236220472442,
                    "duration": 0.1421050500000014
                },
                {
                    "name": "B2",
                    "midi": 47,
                    "time": 25.263119999999997,
                    "velocity": 0.1889763779527559,
                    "duration": 0.1421050500000014
                },
                {
                    "name": "E3",
                    "midi": 52,
                    "time": 25.263119999999997,
                    "velocity": 0.2283464566929134,
                    "duration": 0.1421050500000014
                },
                {
                    "name": "B3",
                    "midi": 59,
                    "time": 25.263119999999997,
                    "velocity": 0.2283464566929134,
                    "duration": 0.1421050500000014
                },
                {
                    "name": "B2",
                    "midi": 47,
                    "time": 25.4210145,
                    "velocity": 0.1732283464566929,
                    "duration": 0.1421050500000014
                },
                {
                    "name": "E3",
                    "midi": 52,
                    "time": 25.4210145,
                    "velocity": 0.2125984251968504,
                    "duration": 0.1421050500000014
                },
                {
                    "name": "B3",
                    "midi": 59,
                    "time": 25.4210145,
                    "velocity": 0.2125984251968504,
                    "duration": 0.1421050500000014
                },
                {
                    "name": "B2",
                    "midi": 47,
                    "time": 25.578909,
                    "velocity": 0.1732283464566929,
                    "duration": 0.14210504999999785
                },
                {
                    "name": "B3",
                    "midi": 59,
                    "time": 25.578909,
                    "velocity": 0.2125984251968504,
                    "duration": 0.14210504999999785
                },
                {
                    "name": "E3",
                    "midi": 52,
                    "time": 25.581540575,
                    "velocity": 0.2125984251968504,
                    "duration": 0.14210504999999785
                },
                {
                    "name": "B2",
                    "midi": 47,
                    "time": 25.736803499999997,
                    "velocity": 0.1732283464566929,
                    "duration": 0.1421050500000014
                },
                {
                    "name": "E3",
                    "midi": 52,
                    "time": 25.736803499999997,
                    "velocity": 0.2125984251968504,
                    "duration": 0.1421050500000014
                },
                {
                    "name": "B3",
                    "midi": 59,
                    "time": 25.736803499999997,
                    "velocity": 0.2125984251968504,
                    "duration": 0.1421050500000014
                },
                {
                    "name": "B2",
                    "midi": 47,
                    "time": 25.894697999999998,
                    "velocity": 0.1732283464566929,
                    "duration": 0.1421050500000014
                },
                {
                    "name": "D#3",
                    "midi": 51,
                    "time": 25.894697999999998,
                    "velocity": 0.2125984251968504,
                    "duration": 0.1421050500000014
                },
                {
                    "name": "B3",
                    "midi": 59,
                    "time": 25.894697999999998,
                    "velocity": 0.2125984251968504,
                    "duration": 0.1421050500000014
                },
                {
                    "name": "B2",
                    "midi": 47,
                    "time": 26.0525925,
                    "velocity": 0.1732283464566929,
                    "duration": 0.1421050500000014
                },
                {
                    "name": "D#3",
                    "midi": 51,
                    "time": 26.0525925,
                    "velocity": 0.2125984251968504,
                    "duration": 0.1421050500000014
                },
                {
                    "name": "B3",
                    "midi": 59,
                    "time": 26.0525925,
                    "velocity": 0.2125984251968504,
                    "duration": 0.1421050500000014
                },
                {
                    "name": "B2",
                    "midi": 47,
                    "time": 26.210487,
                    "velocity": 0.14960629921259844,
                    "duration": 0.1421050500000014
                },
                {
                    "name": "D#3",
                    "midi": 51,
                    "time": 26.210487,
                    "velocity": 0.18110236220472442,
                    "duration": 0.1421050500000014
                },
                {
                    "name": "A3",
                    "midi": 57,
                    "time": 26.210487,
                    "velocity": 0.18110236220472442,
                    "duration": 0.1421050500000014
                },
                {
                    "name": "B2",
                    "midi": 47,
                    "time": 26.3683815,
                    "velocity": 0.14960629921259844,
                    "duration": 0.1421050500000014
                },
                {
                    "name": "D#3",
                    "midi": 51,
                    "time": 26.3683815,
                    "velocity": 0.18110236220472442,
                    "duration": 0.1421050500000014
                },
                {
                    "name": "A3",
                    "midi": 57,
                    "time": 26.3683815,
                    "velocity": 0.18110236220472442,
                    "duration": 0.1421050500000014
                },
                {
                    "name": "C3",
                    "midi": 48,
                    "time": 26.526276000000003,
                    "velocity": 0.25196850393700787,
                    "duration": 0.1421050500000014
                },
                {
                    "name": "G3",
                    "midi": 55,
                    "time": 26.526276000000003,
                    "velocity": 0.25196850393700787,
                    "duration": 0.1421050500000014
                },
                {
                    "name": "C3",
                    "midi": 48,
                    "time": 26.684170500000004,
                    "velocity": 0.2283464566929134,
                    "duration": 0.1421050500000014
                },
                {
                    "name": "G3",
                    "midi": 55,
                    "time": 26.684170500000004,
                    "velocity": 0.2283464566929134,
                    "duration": 0.1421050500000014
                },
                {
                    "name": "C3",
                    "midi": 48,
                    "time": 26.842065000000005,
                    "velocity": 0.2283464566929134,
                    "duration": 0.1421050500000014
                },
                {
                    "name": "G3",
                    "midi": 55,
                    "time": 26.842065000000005,
                    "velocity": 0.2283464566929134,
                    "duration": 0.1421050500000014
                },
                {
                    "name": "C3",
                    "midi": 48,
                    "time": 26.999959500000006,
                    "velocity": 0.2204724409448819,
                    "duration": 0.1421050500000014
                },
                {
                    "name": "G3",
                    "midi": 55,
                    "time": 26.999959500000006,
                    "velocity": 0.2204724409448819,
                    "duration": 0.1421050500000014
                },
                {
                    "name": "C3",
                    "midi": 48,
                    "time": 27.157854000000007,
                    "velocity": 0.2204724409448819,
                    "duration": 0.1421050500000014
                },
                {
                    "name": "A#3",
                    "midi": 58,
                    "time": 27.157854000000007,
                    "velocity": 0.2204724409448819,
                    "duration": 0.1421050500000014
                },
                {
                    "name": "C3",
                    "midi": 48,
                    "time": 27.31574850000001,
                    "velocity": 0.2204724409448819,
                    "duration": 0.1421050500000014
                },
                {
                    "name": "A#3",
                    "midi": 58,
                    "time": 27.31574850000001,
                    "velocity": 0.2204724409448819,
                    "duration": 0.1421050500000014
                },
                {
                    "name": "C3",
                    "midi": 48,
                    "time": 27.47364300000001,
                    "velocity": 0.14960629921259844,
                    "duration": 0.1421050500000014
                },
                {
                    "name": "E3",
                    "midi": 52,
                    "time": 27.47364300000001,
                    "velocity": 0.18110236220472442,
                    "duration": 0.1421050500000014
                },
                {
                    "name": "A3",
                    "midi": 57,
                    "time": 27.47364300000001,
                    "velocity": 0.18110236220472442,
                    "duration": 0.1421050500000014
                },
                {
                    "name": "C3",
                    "midi": 48,
                    "time": 27.63153750000001,
                    "velocity": 0.14960629921259844,
                    "duration": 0.1421050500000014
                },
                {
                    "name": "E3",
                    "midi": 52,
                    "time": 27.63153750000001,
                    "velocity": 0.18110236220472442,
                    "duration": 0.1421050500000014
                },
                {
                    "name": "A3",
                    "midi": 57,
                    "time": 27.63153750000001,
                    "velocity": 0.18110236220472442,
                    "duration": 0.1421050500000014
                },
                {
                    "name": "B2",
                    "midi": 47,
                    "time": 27.789432000000012,
                    "velocity": 0.1889763779527559,
                    "duration": 0.1421050500000014
                },
                {
                    "name": "E3",
                    "midi": 52,
                    "time": 27.789432000000012,
                    "velocity": 0.2283464566929134,
                    "duration": 0.1421050500000014
                },
                {
                    "name": "A3",
                    "midi": 57,
                    "time": 27.789432000000012,
                    "velocity": 0.2283464566929134,
                    "duration": 0.1421050500000014
                },
                {
                    "name": "B2",
                    "midi": 47,
                    "time": 27.947326500000013,
                    "velocity": 0.1732283464566929,
                    "duration": 0.1421050500000014
                },
                {
                    "name": "E3",
                    "midi": 52,
                    "time": 27.947326500000013,
                    "velocity": 0.2125984251968504,
                    "duration": 0.1421050500000014
                },
                {
                    "name": "A3",
                    "midi": 57,
                    "time": 27.947326500000013,
                    "velocity": 0.2125984251968504,
                    "duration": 0.1421050500000014
                },
                {
                    "name": "B2",
                    "midi": 47,
                    "time": 28.105221000000014,
                    "velocity": 0.1732283464566929,
                    "duration": 0.14210504999999785
                },
                {
                    "name": "G#3",
                    "midi": 56,
                    "time": 28.105221000000014,
                    "velocity": 0.2125984251968504,
                    "duration": 0.14210504999999785
                },
                {
                    "name": "E3",
                    "midi": 52,
                    "time": 28.107852575000013,
                    "velocity": 0.2125984251968504,
                    "duration": 0.14210504999999785
                },
                {
                    "name": "B2",
                    "midi": 47,
                    "time": 28.263115500000012,
                    "velocity": 0.1732283464566929,
                    "duration": 0.1421050500000014
                },
                {
                    "name": "E3",
                    "midi": 52,
                    "time": 28.263115500000012,
                    "velocity": 0.2125984251968504,
                    "duration": 0.1421050500000014
                },
                {
                    "name": "G#3",
                    "midi": 56,
                    "time": 28.263115500000012,
                    "velocity": 0.2125984251968504,
                    "duration": 0.1421050500000014
                },
                {
                    "name": "B2",
                    "midi": 47,
                    "time": 28.421010000000013,
                    "velocity": 0.1732283464566929,
                    "duration": 0.1421050500000014
                },
                {
                    "name": "E3",
                    "midi": 52,
                    "time": 28.421010000000013,
                    "velocity": 0.2125984251968504,
                    "duration": 0.1421050500000014
                },
                {
                    "name": "G3",
                    "midi": 55,
                    "time": 28.421010000000013,
                    "velocity": 0.2125984251968504,
                    "duration": 0.1421050500000014
                },
                {
                    "name": "B2",
                    "midi": 47,
                    "time": 28.578904500000014,
                    "velocity": 0.1732283464566929,
                    "duration": 0.1421050500000014
                },
                {
                    "name": "E3",
                    "midi": 52,
                    "time": 28.578904500000014,
                    "velocity": 0.2125984251968504,
                    "duration": 0.1421050500000014
                },
                {
                    "name": "G3",
                    "midi": 55,
                    "time": 28.578904500000014,
                    "velocity": 0.2125984251968504,
                    "duration": 0.1421050500000014
                },
                {
                    "name": "B2",
                    "midi": 47,
                    "time": 28.736799000000016,
                    "velocity": 0.14960629921259844,
                    "duration": 0.1421050500000014
                },
                {
                    "name": "E3",
                    "midi": 52,
                    "time": 28.736799000000016,
                    "velocity": 0.18110236220472442,
                    "duration": 0.1421050500000014
                },
                {
                    "name": "G3",
                    "midi": 55,
                    "time": 28.736799000000016,
                    "velocity": 0.18110236220472442,
                    "duration": 0.1421050500000014
                },
                {
                    "name": "B2",
                    "midi": 47,
                    "time": 28.894693500000017,
                    "velocity": 0.14960629921259844,
                    "duration": 0.1421050500000014
                },
                {
                    "name": "E3",
                    "midi": 52,
                    "time": 28.894693500000017,
                    "velocity": 0.18110236220472442,
                    "duration": 0.1421050500000014
                },
                {
                    "name": "G3",
                    "midi": 55,
                    "time": 28.894693500000017,
                    "velocity": 0.18110236220472442,
                    "duration": 0.1421050500000014
                },
                {
                    "name": "A#2",
                    "midi": 46,
                    "time": 29.052588000000018,
                    "velocity": 0.1889763779527559,
                    "duration": 0.6315780000000011
                },
                {
                    "name": "C3",
                    "midi": 48,
                    "time": 29.052588000000018,
                    "velocity": 0.2283464566929134,
                    "duration": 0.6315780000000011
                },
                {
                    "name": "G3",
                    "midi": 55,
                    "time": 29.052588000000018,
                    "velocity": 0.2283464566929134,
                    "duration": 0.6315780000000011
                },
                {
                    "name": "B1",
                    "midi": 35,
                    "time": 30.31574400000002,
                    "velocity": 0.14960629921259844,
                    "duration": 0.6315780000000011
                },
                {
                    "name": "B2",
                    "midi": 47,
                    "time": 30.31574400000002,
                    "velocity": 0.18110236220472442,
                    "duration": 0.6315780000000011
                },
                {
                    "name": "B1",
                    "midi": 35,
                    "time": 30.94732200000002,
                    "velocity": 0.14960629921259844,
                    "duration": 0.6315779999999975
                },
                {
                    "name": "F#2",
                    "midi": 42,
                    "time": 30.94732200000002,
                    "velocity": 0.18110236220472442,
                    "duration": 0.6315779999999975
                },
                {
                    "name": "B2",
                    "midi": 47,
                    "time": 30.94732200000002,
                    "velocity": 0.18110236220472442,
                    "duration": 0.6315779999999975
                },
                {
                    "name": "E1",
                    "midi": 28,
                    "time": 31.57890000000002,
                    "velocity": 0.14960629921259844,
                    "duration": 1.2631560000000022
                },
                {
                    "name": "E2",
                    "midi": 40,
                    "time": 31.57890000000002,
                    "velocity": 0.18110236220472442,
                    "duration": 1.2631560000000022
                }
            ],
            "controlChanges": {
                "7": [
                    {
                        "number": 7,
                        "time": 0,
                        "value": 0.7874015748031497
                    }
                ],
                "10": [
                    {
                        "number": 10,
                        "time": 0,
                        "value": 0.5039370078740157
                    }
                ],
                "64": [
                    {
                        "number": 64,
                        "time": 0,
                        "value": 0
                    },
                    {
                        "number": 64,
                        "time": 1.263156,
                        "value": 1
                    },
                    {
                        "number": 64,
                        "time": 2.2184177250000006,
                        "value": 0
                    },
                    {
                        "number": 64,
                        "time": 2.2848649937500007,
                        "value": 1
                    },
                    {
                        "number": 64,
                        "time": 2.532233043750001,
                        "value": 0
                    },
                    {
                        "number": 64,
                        "time": 2.5861803312500014,
                        "value": 1
                    },
                    {
                        "number": 64,
                        "time": 3.1690741937500024,
                        "value": 0
                    },
                    {
                        "number": 64,
                        "time": 3.2256530562500023,
                        "value": 1
                    },
                    {
                        "number": 64,
                        "time": 3.484205300000003,
                        "value": 0
                    },
                    {
                        "number": 64,
                        "time": 3.556573612500003,
                        "value": 1
                    },
                    {
                        "number": 64,
                        "time": 3.7960469375000034,
                        "value": 0
                    },
                    {
                        "number": 64,
                        "time": 3.8710468250000036,
                        "value": 1
                    },
                    {
                        "number": 64,
                        "time": 4.429598618750002,
                        "value": 0
                    },
                    {
                        "number": 64,
                        "time": 4.492098525000002,
                        "value": 1
                    },
                    {
                        "number": 64,
                        "time": 4.745387618750001,
                        "value": 0
                    },
                    {
                        "number": 64,
                        "time": 4.796703331250001,
                        "value": 1
                    },
                    {
                        "number": 64,
                        "time": 5.05854504375,
                        "value": 0
                    },
                    {
                        "number": 64,
                        "time": 5.105255499999999,
                        "value": 1
                    },
                    {
                        "number": 64,
                        "time": 5.6914388312499975,
                        "value": 0
                    },
                    {
                        "number": 64,
                        "time": 5.744070331249998,
                        "value": 1
                    },
                    {
                        "number": 64,
                        "time": 6.009201512499997,
                        "value": 0
                    },
                    {
                        "number": 64,
                        "time": 6.067754056249997,
                        "value": 1
                    },
                    {
                        "number": 64,
                        "time": 6.321043149999997,
                        "value": 0
                    },
                    {
                        "number": 64,
                        "time": 6.382227268749997,
                        "value": 1
                    },
                    {
                        "number": 64,
                        "time": 6.955910618749995,
                        "value": 0
                    },
                    {
                        "number": 64,
                        "time": 7.022357887499995,
                        "value": 1
                    },
                    {
                        "number": 64,
                        "time": 7.273015406249994,
                        "value": 0
                    },
                    {
                        "number": 64,
                        "time": 7.3381468874999936,
                        "value": 1
                    },
                    {
                        "number": 64,
                        "time": 7.585514937499992,
                        "value": 0
                    },
                    {
                        "number": 64,
                        "time": 7.653935887499992,
                        "value": 1
                    },
                    {
                        "number": 64,
                        "time": 8.221040299999991,
                        "value": 0
                    },
                    {
                        "number": 64,
                        "time": 8.293408612499992,
                        "value": 1
                    },
                    {
                        "number": 64,
                        "time": 8.534855618749992,
                        "value": 0
                    },
                    {
                        "number": 64,
                        "time": 8.616434443749991,
                        "value": 1
                    },
                    {
                        "number": 64,
                        "time": 8.84867093749999,
                        "value": 0
                    },
                    {
                        "number": 64,
                        "time": 8.907223481249991,
                        "value": 1
                    },
                    {
                        "number": 64,
                        "time": 10.112484831249986,
                        "value": 0
                    },
                    {
                        "number": 64,
                        "time": 10.173011056249987,
                        "value": 1
                    },
                    {
                        "number": 64,
                        "time": 10.744062831249984,
                        "value": 0
                    },
                    {
                        "number": 64,
                        "time": 10.804589056249984,
                        "value": 1
                    },
                    {
                        "number": 64,
                        "time": 11.059851831249983,
                        "value": 0
                    },
                    {
                        "number": 64,
                        "time": 11.128272781249983,
                        "value": 1
                    },
                    {
                        "number": 64,
                        "time": 11.375640831249981,
                        "value": 0
                    },
                    {
                        "number": 64,
                        "time": 11.46116701874998,
                        "value": 1
                    },
                    {
                        "number": 64,
                        "time": 11.693403512499978,
                        "value": 0
                    },
                    {
                        "number": 64,
                        "time": 11.776956018749978,
                        "value": 1
                    },
                    {
                        "number": 64,
                        "time": 12.005903043749976,
                        "value": 0
                    },
                    {
                        "number": 64,
                        "time": 12.092745018749977,
                        "value": 1
                    },
                    {
                        "number": 64,
                        "time": 12.324981512499974,
                        "value": 0
                    },
                    {
                        "number": 64,
                        "time": 12.446033962499975,
                        "value": 1
                    },
                    {
                        "number": 64,
                        "time": 12.640112618749974,
                        "value": 0
                    },
                    {
                        "number": 64,
                        "time": 12.691428331249973,
                        "value": 1
                    },
                    {
                        "number": 64,
                        "time": 12.954585831249972,
                        "value": 0
                    },
                    {
                        "number": 64,
                        "time": 13.007217331249972,
                        "value": 1
                    },
                    {
                        "number": 64,
                        "time": 13.27432219374997,
                        "value": 0
                    },
                    {
                        "number": 64,
                        "time": 13.34603261249997,
                        "value": 1
                    },
                    {
                        "number": 64,
                        "time": 13.903926512499968,
                        "value": 0
                    },
                    {
                        "number": 64,
                        "time": 13.931558049999968,
                        "value": 1
                    },
                    {
                        "number": 64,
                        "time": 14.535504512499966,
                        "value": 0
                    },
                    {
                        "number": 64,
                        "time": 14.598662312499966,
                        "value": 1
                    },
                    {
                        "number": 64,
                        "time": 15.164450937499964,
                        "value": 0
                    },
                    {
                        "number": 64,
                        "time": 16.421027999999964,
                        "value": 1
                    },
                    {
                        "number": 64,
                        "time": 17.375631831249972,
                        "value": 0
                    },
                    {
                        "number": 64,
                        "time": 17.461158018749973,
                        "value": 1
                    },
                    {
                        "number": 64,
                        "time": 17.690762937499972,
                        "value": 0
                    },
                    {
                        "number": 64,
                        "time": 17.74405233124997,
                        "value": 1
                    },
                    {
                        "number": 64,
                        "time": 18.326946193749976,
                        "value": 0
                    },
                    {
                        "number": 64,
                        "time": 18.383525056249976,
                        "value": 1
                    },
                    {
                        "number": 64,
                        "time": 18.642077299999976,
                        "value": 0
                    },
                    {
                        "number": 64,
                        "time": 18.714445612499976,
                        "value": 1
                    },
                    {
                        "number": 64,
                        "time": 18.952603149999977,
                        "value": 0
                    },
                    {
                        "number": 64,
                        "time": 19.022997781249977,
                        "value": 1
                    },
                    {
                        "number": 64,
                        "time": 19.272997406249978,
                        "value": 0
                    },
                    {
                        "number": 64,
                        "time": 19.361155168749978,
                        "value": 1
                    },
                    {
                        "number": 64,
                        "time": 19.58878640624998,
                        "value": 0
                    },
                    {
                        "number": 64,
                        "time": 19.64668105624998,
                        "value": 1
                    },
                    {
                        "number": 64,
                        "time": 19.90523329999998,
                        "value": 0
                    },
                    {
                        "number": 64,
                        "time": 19.99996999999998,
                        "value": 1
                    },
                    {
                        "number": 64,
                        "time": 20.21641704374998,
                        "value": 0
                    },
                    {
                        "number": 64,
                        "time": 20.24404858124998,
                        "value": 1
                    },
                    {
                        "number": 64,
                        "time": 20.53286393749998,
                        "value": 0
                    },
                    {
                        "number": 64,
                        "time": 20.57365334999998,
                        "value": 1
                    },
                    {
                        "number": 64,
                        "time": 20.84733714999998,
                        "value": 0
                    },
                    {
                        "number": 64,
                        "time": 20.88944234999998,
                        "value": 1
                    },
                    {
                        "number": 64,
                        "time": 21.167073512499982,
                        "value": 0
                    },
                    {
                        "number": 64,
                        "time": 21.19536294374998,
                        "value": 1
                    },
                    {
                        "number": 64,
                        "time": 21.48088883124998,
                        "value": 0
                    },
                    {
                        "number": 64,
                        "time": 21.57167816874998,
                        "value": 1
                    },
                    {
                        "number": 64,
                        "time": 22.111151043749985,
                        "value": 0
                    },
                    {
                        "number": 64,
                        "time": 22.165098331249986,
                        "value": 1
                    },
                    {
                        "number": 64,
                        "time": 22.272335012499987,
                        "value": 0
                    },
                    {
                        "number": 64,
                        "time": 22.322992831249987,
                        "value": 1
                    },
                    {
                        "number": 64,
                        "time": 22.428255831249988,
                        "value": 0
                    },
                    {
                        "number": 64,
                        "time": 22.48878205624999,
                        "value": 1
                    },
                    {
                        "number": 64,
                        "time": 22.74272904374999,
                        "value": 0
                    },
                    {
                        "number": 64,
                        "time": 22.79733422499999,
                        "value": 1
                    },
                    {
                        "number": 64,
                        "time": 23.061807512499993,
                        "value": 0
                    },
                    {
                        "number": 64,
                        "time": 23.136149506249993,
                        "value": 1
                    },
                    {
                        "number": 64,
                        "time": 23.377596512499995,
                        "value": 0
                    },
                    {
                        "number": 64,
                        "time": 23.428912224999994,
                        "value": 1
                    },
                    {
                        "number": 64,
                        "time": 23.694043406249996,
                        "value": 0
                    },
                    {
                        "number": 64,
                        "time": 23.740095968749998,
                        "value": 1
                    },
                    {
                        "number": 64,
                        "time": 24.006542937499997,
                        "value": 0
                    },
                    {
                        "number": 64,
                        "time": 24.036806049999996,
                        "value": 1
                    },
                    {
                        "number": 64,
                        "time": 24.641410406249996,
                        "value": 0
                    },
                    {
                        "number": 64,
                        "time": 24.696673481249995,
                        "value": 1
                    },
                    {
                        "number": 64,
                        "time": 25.271672618749996,
                        "value": 0
                    },
                    {
                        "number": 64,
                        "time": 25.351277762499997,
                        "value": 1
                    },
                    {
                        "number": 64,
                        "time": 25.9039085125,
                        "value": 0
                    },
                    {
                        "number": 64,
                        "time": 25.9644347375,
                        "value": 1
                    },
                    {
                        "number": 64,
                        "time": 26.536144406250003,
                        "value": 0
                    },
                    {
                        "number": 64,
                        "time": 26.601933781250004,
                        "value": 1
                    },
                    {
                        "number": 64,
                        "time": 27.165748725000007,
                        "value": 0
                    },
                    {
                        "number": 64,
                        "time": 27.26311700000001,
                        "value": 1
                    },
                    {
                        "number": 64,
                        "time": 27.48285351250001,
                        "value": 0
                    },
                    {
                        "number": 64,
                        "time": 27.54930078125001,
                        "value": 1
                    },
                    {
                        "number": 64,
                        "time": 27.795353043750012,
                        "value": 0
                    },
                    {
                        "number": 64,
                        "time": 27.879563443750012,
                        "value": 1
                    },
                    {
                        "number": 64,
                        "time": 28.110484150000012,
                        "value": 0
                    },
                    {
                        "number": 64,
                        "time": 28.180878781250012,
                        "value": 1
                    },
                    {
                        "number": 64,
                        "time": 28.431536300000012,
                        "value": 0
                    },
                    {
                        "number": 64,
                        "time": 28.519036168750013,
                        "value": 1
                    },
                    {
                        "number": 64,
                        "time": 28.743377937500014,
                        "value": 0
                    },
                    {
                        "number": 64,
                        "time": 28.834825168750015,
                        "value": 1
                    },
                    {
                        "number": 64,
                        "time": 29.05785115000002,
                        "value": 0
                    },
                    {
                        "number": 64,
                        "time": 29.34271914375002,
                        "value": 1
                    },
                    {
                        "number": 64,
                        "time": 29.68548178750002,
                        "value": 0
                    },
                    {
                        "number": 64,
                        "time": 30.50916476250002,
                        "value": 1
                    },
                    {
                        "number": 64,
                        "time": 30.95587461875002,
                        "value": 0
                    },
                    {
                        "number": 64,
                        "time": 31.19271636875002,
                        "value": 1
                    },
                    {
                        "number": 64,
                        "time": 31.58482104375002,
                        "value": 0
                    },
                    {
                        "number": 64,
                        "time": 31.82495226250002,
                        "value": 1
                    },
                    {
                        "number": 64,
                        "time": 33.66639686875002,
                        "value": 0
                    }
                ]
            },
            "id": 2,
            "name": "Piano left",
            "instrumentNumber": 0,
            "instrument": "acoustic grand piano",
            "instrumentFamily": "piano",
            "channelNumber": 0,
            "isPercussion": false
        },
        {
            "startTime": 0,
            "duration": 0,
            "length": 0,
            "notes": [],
            "controlChanges": {},
            "id": 3,
            "name": "Chopin: Prelude No.4 in E Minor, Op. 28"
        },
        {
            "startTime": 0,
            "duration": 0,
            "length": 0,
            "notes": [],
            "controlChanges": {},
            "id": 4,
            "name": "Copyright  2002 by Bernd Krueger"
        },
        {
            "startTime": 0,
            "duration": 0,
            "length": 0,
            "notes": [],
            "controlChanges": {},
            "id": 5,
            "name": "http://www.piano-midi.de"
        },
        {
            "startTime": 0,
            "duration": 0,
            "length": 0,
            "notes": [],
            "controlChanges": {},
            "id": 6,
            "name": "Edition: 2014-02-20"
        },
        {
            "startTime": 0,
            "duration": 0,
            "length": 0,
            "notes": [],
            "controlChanges": {
                "7": [
                    {
                        "number": 7,
                        "time": 0,
                        "value": 1
                    }
                ],
                "10": [
                    {
                        "number": 10,
                        "time": 0,
                        "value": 0.5039370078740157
                    }
                ]
            },
            "id": 7,
            "name": "Spur 7"
        },
        {
            "startTime": 0,
            "duration": 0,
            "length": 0,
            "notes": [],
            "controlChanges": {
                "7": [
                    {
                        "number": 7,
                        "time": 0,
                        "value": 1
                    }
                ],
                "10": [
                    {
                        "number": 10,
                        "time": 0,
                        "value": 0.5039370078740157
                    }
                ]
            },
            "id": 8,
            "name": "Spur 8"
        }
    ]
}