{
    "header": {
        "PPQ": 480,
        "timeSignature": [
            4,
            4
        ],
        "bpm": 82.81996458066182,
        "name": "Chopin Prelude  No. 16, Opus 28"
    },
    "startTime": 0,
    "duration": 131.12780300000185,
    "tracks": [
        {
            "startTime": 0,
            "duration": 0,
            "length": 0,
            "notes": [],
            "controlChanges": {},
            "id": 0,
            "name": "Chopin Prelude  No. 16, Opus 28"
        },
        {
            "startTime": 0.0015092979166666666,
            "duration": 131.12780300000185,
            "length": 720,
            "notes": [
                {
                    "name": "D#4",
                    "midi": 63,
                    "time": 0.0015092979166666666,
                    "velocity": 0.6377952755905512,
                    "duration": 0.48146603541666666
                },
                {
                    "name": "A4",
                    "midi": 69,
                    "time": 0.090557875,
                    "velocity": 0.6377952755905512,
                    "duration": 0.3924174583333333
                },
                {
                    "name": "F#5",
                    "midi": 78,
                    "time": 0.18111575,
                    "velocity": 0.7559055118110236,
                    "duration": 0.33204554166666667
                },
                {
                    "name": "A4",
                    "midi": 69,
                    "time": 0.4829753333333333,
                    "velocity": 0.5354330708661418,
                    "duration": 0.4829753333333333
                },
                {
                    "name": "F5",
                    "midi": 77,
                    "time": 0.4829753333333333,
                    "velocity": 0.6299212598425197,
                    "duration": 0.5131612916666667
                },
                {
                    "name": "D#4",
                    "midi": 63,
                    "time": 0.4829753333333333,
                    "velocity": 0.4881889763779528,
                    "duration": 0.4829753333333333
                },
                {
                    "name": "D#4",
                    "midi": 63,
                    "time": 0.9659506666666666,
                    "velocity": 0.5039370078740157,
                    "duration": 0.4829753333333333
                },
                {
                    "name": "A4",
                    "midi": 69,
                    "time": 0.9659506666666666,
                    "velocity": 0.5275590551181102,
                    "duration": 0.4829753333333333
                },
                {
                    "name": "E5",
                    "midi": 76,
                    "time": 0.9659506666666666,
                    "velocity": 0.6299212598425197,
                    "duration": 0.5131612916666666
                },
                {
                    "name": "A4",
                    "midi": 69,
                    "time": 1.448926,
                    "velocity": 0.5433070866141733,
                    "duration": 0.4829753333333333
                },
                {
                    "name": "D#4",
                    "midi": 63,
                    "time": 1.448926,
                    "velocity": 0.49606299212598426,
                    "duration": 0.4829753333333333
                },
                {
                    "name": "D#5",
                    "midi": 75,
                    "time": 1.448926,
                    "velocity": 0.6377952755905512,
                    "duration": 0.5131612916666666
                },
                {
                    "name": "C#5",
                    "midi": 73,
                    "time": 1.9319013333333332,
                    "velocity": 0.6535433070866141,
                    "duration": 0.5131612916666666
                },
                {
                    "name": "D#4",
                    "midi": 63,
                    "time": 1.9319013333333332,
                    "velocity": 0.4881889763779528,
                    "duration": 0.4829753333333331
                },
                {
                    "name": "A4",
                    "midi": 69,
                    "time": 1.9319013333333332,
                    "velocity": 0.5433070866141733,
                    "duration": 0.4829753333333331
                },
                {
                    "name": "A4",
                    "midi": 69,
                    "time": 2.4148766666666663,
                    "velocity": 0.5118110236220472,
                    "duration": 0.45278937500000005
                },
                {
                    "name": "D#4",
                    "midi": 63,
                    "time": 2.4148766666666663,
                    "velocity": 0.4566929133858268,
                    "duration": 0.45278937500000005
                },
                {
                    "name": "C5",
                    "midi": 72,
                    "time": 2.4148766666666663,
                    "velocity": 0.6141732283464567,
                    "duration": 0.45278937500000005
                },
                {
                    "name": "F5",
                    "midi": 77,
                    "time": 2.897852,
                    "velocity": 0.30708661417322836,
                    "duration": 0.2113017083333335
                },
                {
                    "name": "D#5",
                    "midi": 75,
                    "time": 3.07896775,
                    "velocity": 0.31496062992125984,
                    "duration": 0.2113017083333335
                },
                {
                    "name": "C5",
                    "midi": 72,
                    "time": 3.2600835,
                    "velocity": 0.3228346456692913,
                    "duration": 0.2113017083333335
                },
                {
                    "name": "C#5",
                    "midi": 73,
                    "time": 3.44119925,
                    "velocity": 0.33070866141732286,
                    "duration": 0.2113017083333335
                },
                {
                    "name": "F4",
                    "midi": 65,
                    "time": 3.622315,
                    "velocity": 0.33858267716535434,
                    "duration": 0.2113017083333335
                },
                {
                    "name": "A4",
                    "midi": 69,
                    "time": 3.80343075,
                    "velocity": 0.3543307086614173,
                    "duration": 0.2113017083333335
                },
                {
                    "name": "A#4",
                    "midi": 70,
                    "time": 3.9845465,
                    "velocity": 0.3543307086614173,
                    "duration": 0.2113017083333335
                },
                {
                    "name": "C5",
                    "midi": 72,
                    "time": 4.1656622500000005,
                    "velocity": 0.36220472440944884,
                    "duration": 0.21130170833333306
                },
                {
                    "name": "C#5",
                    "midi": 73,
                    "time": 4.3467780000000005,
                    "velocity": 0.3779527559055118,
                    "duration": 0.21130170833333306
                },
                {
                    "name": "D#5",
                    "midi": 75,
                    "time": 4.5278937500000005,
                    "velocity": 0.3858267716535433,
                    "duration": 0.21130170833333306
                },
                {
                    "name": "F5",
                    "midi": 77,
                    "time": 4.7090095000000005,
                    "velocity": 0.4015748031496063,
                    "duration": 0.21130170833333306
                },
                {
                    "name": "G5",
                    "midi": 79,
                    "time": 4.8901252500000005,
                    "velocity": 0.4015748031496063,
                    "duration": 0.21130170833333306
                },
                {
                    "name": "A5",
                    "midi": 81,
                    "time": 5.0712410000000006,
                    "velocity": 0.4094488188976378,
                    "duration": 0.21130170833333306
                },
                {
                    "name": "A#5",
                    "midi": 82,
                    "time": 5.252356750000001,
                    "velocity": 0.41732283464566927,
                    "duration": 0.21130170833333306
                },
                {
                    "name": "C6",
                    "midi": 84,
                    "time": 5.433472500000001,
                    "velocity": 0.4251968503937008,
                    "duration": 0.21130170833333306
                },
                {
                    "name": "C#6",
                    "midi": 85,
                    "time": 5.614588250000001,
                    "velocity": 0.4409448818897638,
                    "duration": 0.21130170833333306
                },
                {
                    "name": "D#6",
                    "midi": 87,
                    "time": 5.795704000000001,
                    "velocity": 0.4409448818897638,
                    "duration": 0.21130170833333306
                },
                {
                    "name": "F6",
                    "midi": 89,
                    "time": 5.976819750000001,
                    "velocity": 0.44881889763779526,
                    "duration": 0.21130170833333306
                },
                {
                    "name": "G6",
                    "midi": 91,
                    "time": 6.157935500000001,
                    "velocity": 0.4566929133858268,
                    "duration": 0.21130170833333306
                },
                {
                    "name": "A6",
                    "midi": 93,
                    "time": 6.339051250000001,
                    "velocity": 0.4645669291338583,
                    "duration": 0.21130170833333306
                },
                {
                    "name": "A#6",
                    "midi": 94,
                    "time": 6.520167000000001,
                    "velocity": 0.48031496062992124,
                    "duration": 0.21130170833333306
                },
                {
                    "name": "C7",
                    "midi": 96,
                    "time": 6.701282750000001,
                    "velocity": 0.4881889763779528,
                    "duration": 0.21130170833333306
                },
                {
                    "name": "C#7",
                    "midi": 97,
                    "time": 6.882398500000001,
                    "velocity": 0.5039370078740157,
                    "duration": 0.21130170833333306
                },
                {
                    "name": "D#7",
                    "midi": 99,
                    "time": 7.063514250000001,
                    "velocity": 0.5118110236220472,
                    "duration": 0.21130170833333306
                },
                {
                    "name": "E7",
                    "midi": 100,
                    "time": 7.244630000000001,
                    "velocity": 0.5275590551181102,
                    "duration": 0.21130170833333306
                },
                {
                    "name": "F7",
                    "midi": 101,
                    "time": 7.425745750000001,
                    "velocity": 0.5118110236220472,
                    "duration": 0.21130170833333306
                },
                {
                    "name": "D#7",
                    "midi": 99,
                    "time": 7.606861500000001,
                    "velocity": 0.5118110236220472,
                    "duration": 0.21130170833333306
                },
                {
                    "name": "C#7",
                    "midi": 97,
                    "time": 7.787977250000001,
                    "velocity": 0.49606299212598426,
                    "duration": 0.21130170833333306
                },
                {
                    "name": "C7",
                    "midi": 96,
                    "time": 7.969093000000001,
                    "velocity": 0.4881889763779528,
                    "duration": 0.21130170833333395
                },
                {
                    "name": "A#6",
                    "midi": 94,
                    "time": 8.150208750000001,
                    "velocity": 0.48031496062992124,
                    "duration": 0.21130170833333395
                },
                {
                    "name": "A6",
                    "midi": 93,
                    "time": 8.331324500000001,
                    "velocity": 0.47244094488188976,
                    "duration": 0.21130170833333395
                },
                {
                    "name": "A#6",
                    "midi": 94,
                    "time": 8.512440250000001,
                    "velocity": 0.4645669291338583,
                    "duration": 0.18111575000000002
                },
                {
                    "name": "G#6",
                    "midi": 92,
                    "time": 8.693556000000001,
                    "velocity": 0.4566929133858268,
                    "duration": 0.21130170833333395
                },
                {
                    "name": "F#6",
                    "midi": 90,
                    "time": 8.874671750000001,
                    "velocity": 0.44881889763779526,
                    "duration": 0.21130170833333395
                },
                {
                    "name": "F6",
                    "midi": 89,
                    "time": 9.055787500000001,
                    "velocity": 0.4409448818897638,
                    "duration": 0.21130170833333395
                },
                {
                    "name": "E6",
                    "midi": 88,
                    "time": 9.236903250000001,
                    "velocity": 0.4409448818897638,
                    "duration": 0.21130170833333395
                },
                {
                    "name": "F6",
                    "midi": 89,
                    "time": 9.418019000000001,
                    "velocity": 0.4330708661417323,
                    "duration": 0.21130170833333395
                },
                {
                    "name": "D#6",
                    "midi": 87,
                    "time": 9.599134750000001,
                    "velocity": 0.4251968503937008,
                    "duration": 0.21130170833333395
                },
                {
                    "name": "C#6",
                    "midi": 85,
                    "time": 9.780250500000001,
                    "velocity": 0.41732283464566927,
                    "duration": 0.21130170833333395
                },
                {
                    "name": "C6",
                    "midi": 84,
                    "time": 9.961366250000001,
                    "velocity": 0.4094488188976378,
                    "duration": 0.21130170833333395
                },
                {
                    "name": "A#5",
                    "midi": 82,
                    "time": 10.142482000000001,
                    "velocity": 0.4015748031496063,
                    "duration": 0.21130170833333395
                },
                {
                    "name": "A5",
                    "midi": 81,
                    "time": 10.323597750000001,
                    "velocity": 0.3937007874015748,
                    "duration": 0.21130170833333395
                },
                {
                    "name": "A#5",
                    "midi": 82,
                    "time": 10.504713500000001,
                    "velocity": 0.3858267716535433,
                    "duration": 0.21130170833333395
                },
                {
                    "name": "G#5",
                    "midi": 80,
                    "time": 10.685829250000001,
                    "velocity": 0.3858267716535433,
                    "duration": 0.21130170833333395
                },
                {
                    "name": "F#5",
                    "midi": 78,
                    "time": 10.866945000000001,
                    "velocity": 0.3779527559055118,
                    "duration": 0.21130170833333395
                },
                {
                    "name": "F5",
                    "midi": 77,
                    "time": 11.048060750000001,
                    "velocity": 0.3779527559055118,
                    "duration": 0.21130170833333395
                },
                {
                    "name": "D#5",
                    "midi": 75,
                    "time": 11.229176500000001,
                    "velocity": 0.36220472440944884,
                    "duration": 0.21130170833333395
                },
                {
                    "name": "C#5",
                    "midi": 73,
                    "time": 11.410292250000001,
                    "velocity": 0.3543307086614173,
                    "duration": 0.21130170833333395
                },
                {
                    "name": "C5",
                    "midi": 72,
                    "time": 11.591408000000001,
                    "velocity": 0.3543307086614173,
                    "duration": 0.21130170833333395
                },
                {
                    "name": "C#5",
                    "midi": 73,
                    "time": 11.772523750000001,
                    "velocity": 0.3543307086614173,
                    "duration": 0.21130170833333395
                },
                {
                    "name": "D#5",
                    "midi": 75,
                    "time": 11.953639500000001,
                    "velocity": 0.3543307086614173,
                    "duration": 0.21130170833333395
                },
                {
                    "name": "F5",
                    "midi": 77,
                    "time": 12.134755250000001,
                    "velocity": 0.36220472440944884,
                    "duration": 0.21130170833333395
                },
                {
                    "name": "F#5",
                    "midi": 78,
                    "time": 12.315871000000001,
                    "velocity": 0.3700787401574803,
                    "duration": 0.21130170833333395
                },
                {
                    "name": "G#5",
                    "midi": 80,
                    "time": 12.496986750000001,
                    "velocity": 0.3700787401574803,
                    "duration": 0.21130170833333395
                },
                {
                    "name": "A#5",
                    "midi": 82,
                    "time": 12.678102500000001,
                    "velocity": 0.3779527559055118,
                    "duration": 0.21130170833333395
                },
                {
                    "name": "C6",
                    "midi": 84,
                    "time": 12.859218250000001,
                    "velocity": 0.3858267716535433,
                    "duration": 0.21130170833333395
                },
                {
                    "name": "A#5",
                    "midi": 82,
                    "time": 13.040334000000001,
                    "velocity": 0.3779527559055118,
                    "duration": 0.21130170833333395
                },
                {
                    "name": "G#5",
                    "midi": 80,
                    "time": 13.221449750000001,
                    "velocity": 0.3779527559055118,
                    "duration": 0.21130170833333395
                },
                {
                    "name": "F#5",
                    "midi": 78,
                    "time": 13.402565500000001,
                    "velocity": 0.3858267716535433,
                    "duration": 0.21130170833333395
                },
                {
                    "name": "F5",
                    "midi": 77,
                    "time": 13.583681250000001,
                    "velocity": 0.3858267716535433,
                    "duration": 0.21130170833333395
                },
                {
                    "name": "D#5",
                    "midi": 75,
                    "time": 13.764797000000002,
                    "velocity": 0.3937007874015748,
                    "duration": 0.21130170833333395
                },
                {
                    "name": "C#5",
                    "midi": 73,
                    "time": 13.945912750000002,
                    "velocity": 0.4015748031496063,
                    "duration": 0.21130170833333395
                },
                {
                    "name": "C5",
                    "midi": 72,
                    "time": 14.127028500000002,
                    "velocity": 0.4015748031496063,
                    "duration": 0.21130170833333395
                },
                {
                    "name": "D#5",
                    "midi": 75,
                    "time": 14.308144250000002,
                    "velocity": 0.4015748031496063,
                    "duration": 0.21130170833333395
                },
                {
                    "name": "F#5",
                    "midi": 78,
                    "time": 14.489260000000002,
                    "velocity": 0.4015748031496063,
                    "duration": 0.21130170833333395
                },
                {
                    "name": "D5",
                    "midi": 74,
                    "time": 14.670375750000002,
                    "velocity": 0.3779527559055118,
                    "duration": 0.21130170833333395
                },
                {
                    "name": "F5",
                    "midi": 77,
                    "time": 14.851491500000002,
                    "velocity": 0.4015748031496063,
                    "duration": 0.21130170833333395
                },
                {
                    "name": "D#5",
                    "midi": 75,
                    "time": 15.032607250000002,
                    "velocity": 0.3543307086614173,
                    "duration": 0.21130170833333395
                },
                {
                    "name": "C5",
                    "midi": 72,
                    "time": 15.213723000000002,
                    "velocity": 0.3543307086614173,
                    "duration": 0.21130170833333395
                },
                {
                    "name": "F#4",
                    "midi": 66,
                    "time": 15.394838750000002,
                    "velocity": 0.33858267716535434,
                    "duration": 0.21130170833333395
                },
                {
                    "name": "B4",
                    "midi": 71,
                    "time": 15.575954500000002,
                    "velocity": 0.3464566929133858,
                    "duration": 0.21130170833333395
                },
                {
                    "name": "C5",
                    "midi": 72,
                    "time": 15.757070250000002,
                    "velocity": 0.3543307086614173,
                    "duration": 0.21130170833333395
                },
                {
                    "name": "C#5",
                    "midi": 73,
                    "time": 15.938186000000002,
                    "velocity": 0.3543307086614173,
                    "duration": 0.21130170833333395
                },
                {
                    "name": "C5",
                    "midi": 72,
                    "time": 16.11930175,
                    "velocity": 0.36220472440944884,
                    "duration": 0.21130170833333395
                },
                {
                    "name": "D5",
                    "midi": 74,
                    "time": 16.300417500000002,
                    "velocity": 0.3779527559055118,
                    "duration": 0.21130170833333395
                },
                {
                    "name": "D#5",
                    "midi": 75,
                    "time": 16.481533250000002,
                    "velocity": 0.3779527559055118,
                    "duration": 0.21130170833333395
                },
                {
                    "name": "F5",
                    "midi": 77,
                    "time": 16.662649000000002,
                    "velocity": 0.3779527559055118,
                    "duration": 0.21130170833333395
                },
                {
                    "name": "D#5",
                    "midi": 75,
                    "time": 16.843764750000002,
                    "velocity": 0.3937007874015748,
                    "duration": 0.21130170833333395
                },
                {
                    "name": "E5",
                    "midi": 76,
                    "time": 17.024880500000002,
                    "velocity": 0.4015748031496063,
                    "duration": 0.21130170833333395
                },
                {
                    "name": "F5",
                    "midi": 77,
                    "time": 17.205996250000002,
                    "velocity": 0.4015748031496063,
                    "duration": 0.18111575000000002
                },
                {
                    "name": "G#5",
                    "midi": 80,
                    "time": 17.387112000000002,
                    "velocity": 0.4094488188976378,
                    "duration": 0.21130170833333395
                },
                {
                    "name": "F#5",
                    "midi": 78,
                    "time": 17.568227750000002,
                    "velocity": 0.41732283464566927,
                    "duration": 0.21130170833333395
                },
                {
                    "name": "A5",
                    "midi": 81,
                    "time": 17.749343500000002,
                    "velocity": 0.4330708661417323,
                    "duration": 0.21130170833333395
                },
                {
                    "name": "A#5",
                    "midi": 82,
                    "time": 17.930459250000002,
                    "velocity": 0.4409448818897638,
                    "duration": 0.21130170833333395
                },
                {
                    "name": "C#6",
                    "midi": 85,
                    "time": 18.111575000000002,
                    "velocity": 0.4409448818897638,
                    "duration": 0.21130170833333395
                },
                {
                    "name": "C6",
                    "midi": 84,
                    "time": 18.292690750000002,
                    "velocity": 0.4566929133858268,
                    "duration": 0.21130170833333395
                },
                {
                    "name": "C#6",
                    "midi": 85,
                    "time": 18.473806500000002,
                    "velocity": 0.4645669291338583,
                    "duration": 0.21130170833333395
                },
                {
                    "name": "D6",
                    "midi": 86,
                    "time": 18.654922250000002,
                    "velocity": 0.47244094488188976,
                    "duration": 0.21130170833333395
                },
                {
                    "name": "F6",
                    "midi": 89,
                    "time": 18.836038000000002,
                    "velocity": 0.48031496062992124,
                    "duration": 0.21130170833333395
                },
                {
                    "name": "D#6",
                    "midi": 87,
                    "time": 19.017153750000002,
                    "velocity": 0.4881889763779528,
                    "duration": 0.21130170833333395
                },
                {
                    "name": "E6",
                    "midi": 88,
                    "time": 19.198269500000002,
                    "velocity": 0.4881889763779528,
                    "duration": 0.21130170833333395
                },
                {
                    "name": "F6",
                    "midi": 89,
                    "time": 19.379385250000002,
                    "velocity": 0.49606299212598426,
                    "duration": 0.21130170833333395
                },
                {
                    "name": "A6",
                    "midi": 93,
                    "time": 19.560501000000002,
                    "velocity": 0.5039370078740157,
                    "duration": 0.21130170833333395
                },
                {
                    "name": "A#6",
                    "midi": 94,
                    "time": 19.741616750000002,
                    "velocity": 0.5118110236220472,
                    "duration": 0.21130170833333395
                },
                {
                    "name": "G#6",
                    "midi": 92,
                    "time": 19.922732500000002,
                    "velocity": 0.5275590551181102,
                    "duration": 0.21130170833333395
                },
                {
                    "name": "G6",
                    "midi": 91,
                    "time": 20.103848250000002,
                    "velocity": 0.5354330708661418,
                    "duration": 0.21130170833333395
                },
                {
                    "name": "F#6",
                    "midi": 90,
                    "time": 20.284964000000002,
                    "velocity": 0.5275590551181102,
                    "duration": 0.21130170833333395
                },
                {
                    "name": "F7",
                    "midi": 101,
                    "time": 20.466079750000002,
                    "velocity": 0.5196850393700787,
                    "duration": 0.21130170833333395
                },
                {
                    "name": "D#7",
                    "midi": 99,
                    "time": 20.647195500000002,
                    "velocity": 0.5196850393700787,
                    "duration": 0.21130170833333395
                },
                {
                    "name": "D#6",
                    "midi": 87,
                    "time": 20.828311250000002,
                    "velocity": 0.5118110236220472,
                    "duration": 0.21130170833333395
                },
                {
                    "name": "C#7",
                    "midi": 97,
                    "time": 21.009427000000002,
                    "velocity": 0.49606299212598426,
                    "duration": 0.21130170833333395
                },
                {
                    "name": "C7",
                    "midi": 96,
                    "time": 21.190542750000002,
                    "velocity": 0.4881889763779528,
                    "duration": 0.21130170833333395
                },
                {
                    "name": "C6",
                    "midi": 84,
                    "time": 21.371658500000002,
                    "velocity": 0.4881889763779528,
                    "duration": 0.21130170833333395
                },
                {
                    "name": "A#6",
                    "midi": 94,
                    "time": 21.552774250000002,
                    "velocity": 0.48031496062992124,
                    "duration": 0.21130170833333395
                },
                {
                    "name": "A6",
                    "midi": 93,
                    "time": 21.733890000000002,
                    "velocity": 0.47244094488188976,
                    "duration": 0.21130170833333395
                },
                {
                    "name": "A5",
                    "midi": 81,
                    "time": 21.915005750000002,
                    "velocity": 0.4645669291338583,
                    "duration": 0.21130170833333395
                },
                {
                    "name": "G#6",
                    "midi": 92,
                    "time": 22.096121500000002,
                    "velocity": 0.44881889763779526,
                    "duration": 0.21130170833333395
                },
                {
                    "name": "F#6",
                    "midi": 90,
                    "time": 22.277237250000002,
                    "velocity": 0.44881889763779526,
                    "duration": 0.21130170833333395
                },
                {
                    "name": "F#5",
                    "midi": 78,
                    "time": 22.458353000000002,
                    "velocity": 0.4409448818897638,
                    "duration": 0.21130170833333395
                },
                {
                    "name": "F6",
                    "midi": 89,
                    "time": 22.639468750000002,
                    "velocity": 0.4409448818897638,
                    "duration": 0.21130170833333395
                },
                {
                    "name": "D#6",
                    "midi": 87,
                    "time": 22.820584500000002,
                    "velocity": 0.4330708661417323,
                    "duration": 0.21130170833333395
                },
                {
                    "name": "F#5",
                    "midi": 78,
                    "time": 23.001700250000003,
                    "velocity": 0.4251968503937008,
                    "duration": 0.21130170833333395
                },
                {
                    "name": "F5",
                    "midi": 77,
                    "time": 23.182816000000003,
                    "velocity": 0.4251968503937008,
                    "duration": 0.21130170833333395
                },
                {
                    "name": "D#6",
                    "midi": 87,
                    "time": 23.363931750000003,
                    "velocity": 0.4094488188976378,
                    "duration": 0.21130170833333395
                },
                {
                    "name": "C#6",
                    "midi": 85,
                    "time": 23.545047500000003,
                    "velocity": 0.4015748031496063,
                    "duration": 0.21130170833333395
                },
                {
                    "name": "F5",
                    "midi": 77,
                    "time": 23.726163250000003,
                    "velocity": 0.4015748031496063,
                    "duration": 0.21130170833333395
                },
                {
                    "name": "C#6",
                    "midi": 85,
                    "time": 23.907279000000003,
                    "velocity": 0.3937007874015748,
                    "duration": 0.21130170833333395
                },
                {
                    "name": "C6",
                    "midi": 84,
                    "time": 24.088394750000003,
                    "velocity": 0.3937007874015748,
                    "duration": 0.21130170833333395
                },
                {
                    "name": "D#5",
                    "midi": 75,
                    "time": 24.269510500000003,
                    "velocity": 0.3858267716535433,
                    "duration": 0.21130170833333395
                },
                {
                    "name": "C6",
                    "midi": 84,
                    "time": 24.450626250000003,
                    "velocity": 0.3700787401574803,
                    "duration": 0.21130170833333395
                },
                {
                    "name": "C#5",
                    "midi": 73,
                    "time": 24.631742000000003,
                    "velocity": 0.36220472440944884,
                    "duration": 0.21130170833333395
                },
                {
                    "name": "A#5",
                    "midi": 82,
                    "time": 24.812857750000003,
                    "velocity": 0.36220472440944884,
                    "duration": 0.21130170833333395
                },
                {
                    "name": "G#5",
                    "midi": 80,
                    "time": 24.993973500000003,
                    "velocity": 0.3543307086614173,
                    "duration": 0.21130170833333395
                },
                {
                    "name": "C5",
                    "midi": 72,
                    "time": 25.175089250000003,
                    "velocity": 0.3543307086614173,
                    "duration": 0.21130170833333395
                },
                {
                    "name": "G#5",
                    "midi": 80,
                    "time": 25.356205000000003,
                    "velocity": 0.3464566929133858,
                    "duration": 0.21130170833333395
                },
                {
                    "name": "F#5",
                    "midi": 78,
                    "time": 25.537320750000003,
                    "velocity": 0.33070866141732286,
                    "duration": 0.21130170833333395
                },
                {
                    "name": "A#4",
                    "midi": 70,
                    "time": 25.718436500000003,
                    "velocity": 0.33070866141732286,
                    "duration": 0.21130170833333395
                },
                {
                    "name": "F#5",
                    "midi": 78,
                    "time": 25.899552250000003,
                    "velocity": 0.33070866141732286,
                    "duration": 0.18111575000000002
                },
                {
                    "name": "A4",
                    "midi": 69,
                    "time": 26.080668000000003,
                    "velocity": 0.31496062992125984,
                    "duration": 0.21130170833333395
                },
                {
                    "name": "A#4",
                    "midi": 70,
                    "time": 26.261783750000003,
                    "velocity": 0.33070866141732286,
                    "duration": 0.21130170833333395
                },
                {
                    "name": "C5",
                    "midi": 72,
                    "time": 26.442899500000003,
                    "velocity": 0.33070866141732286,
                    "duration": 0.21130170833333395
                },
                {
                    "name": "C#5",
                    "midi": 73,
                    "time": 26.624015250000003,
                    "velocity": 0.3464566929133858,
                    "duration": 0.21130170833333395
                },
                {
                    "name": "D#5",
                    "midi": 75,
                    "time": 26.805131000000003,
                    "velocity": 0.3543307086614173,
                    "duration": 0.21130170833333395
                },
                {
                    "name": "E5",
                    "midi": 76,
                    "time": 26.986246750000003,
                    "velocity": 0.36220472440944884,
                    "duration": 0.21130170833333395
                },
                {
                    "name": "F5",
                    "midi": 77,
                    "time": 27.167362500000003,
                    "velocity": 0.3700787401574803,
                    "duration": 0.21130170833333395
                },
                {
                    "name": "F#5",
                    "midi": 78,
                    "time": 27.348478250000003,
                    "velocity": 0.3779527559055118,
                    "duration": 0.21130170833333395
                },
                {
                    "name": "E5",
                    "midi": 76,
                    "time": 27.529594000000003,
                    "velocity": 0.4015748031496063,
                    "duration": 0.21130170833333395
                },
                {
                    "name": "F5",
                    "midi": 77,
                    "time": 27.710709750000003,
                    "velocity": 0.3858267716535433,
                    "duration": 0.21130170833333395
                },
                {
                    "name": "D5",
                    "midi": 74,
                    "time": 27.891825500000003,
                    "velocity": 0.3700787401574803,
                    "duration": 0.21130170833333395
                },
                {
                    "name": "D#5",
                    "midi": 75,
                    "time": 28.072941250000003,
                    "velocity": 0.36220472440944884,
                    "duration": 0.21130170833333395
                },
                {
                    "name": "C5",
                    "midi": 72,
                    "time": 28.254057000000003,
                    "velocity": 0.3543307086614173,
                    "duration": 0.21130170833333395
                },
                {
                    "name": "C#5",
                    "midi": 73,
                    "time": 28.435172750000003,
                    "velocity": 0.3464566929133858,
                    "duration": 0.21130170833333395
                },
                {
                    "name": "C5",
                    "midi": 72,
                    "time": 28.616288500000003,
                    "velocity": 0.33858267716535434,
                    "duration": 0.21130170833333395
                },
                {
                    "name": "A#4",
                    "midi": 70,
                    "time": 28.797404250000003,
                    "velocity": 0.3228346456692913,
                    "duration": 0.18111575000000002
                },
                {
                    "name": "A4",
                    "midi": 69,
                    "time": 28.978520000000003,
                    "velocity": 0.30708661417322836,
                    "duration": 0.21130170833333395
                },
                {
                    "name": "A#4",
                    "midi": 70,
                    "time": 29.159635750000003,
                    "velocity": 0.3228346456692913,
                    "duration": 0.21130170833333395
                },
                {
                    "name": "C5",
                    "midi": 72,
                    "time": 29.340751500000003,
                    "velocity": 0.33070866141732286,
                    "duration": 0.21130170833333395
                },
                {
                    "name": "C#5",
                    "midi": 73,
                    "time": 29.521867250000003,
                    "velocity": 0.3464566929133858,
                    "duration": 0.21130170833333395
                },
                {
                    "name": "D#5",
                    "midi": 75,
                    "time": 29.702983000000003,
                    "velocity": 0.3543307086614173,
                    "duration": 0.21130170833333395
                },
                {
                    "name": "E5",
                    "midi": 76,
                    "time": 29.884098750000003,
                    "velocity": 0.3700787401574803,
                    "duration": 0.21130170833333395
                },
                {
                    "name": "F5",
                    "midi": 77,
                    "time": 30.065214500000003,
                    "velocity": 0.3858267716535433,
                    "duration": 0.21130170833333395
                },
                {
                    "name": "F#5",
                    "midi": 78,
                    "time": 30.246330250000003,
                    "velocity": 0.3937007874015748,
                    "duration": 0.21130170833333395
                },
                {
                    "name": "E5",
                    "midi": 76,
                    "time": 30.427446000000003,
                    "velocity": 0.4015748031496063,
                    "duration": 0.21130170833333395
                },
                {
                    "name": "F5",
                    "midi": 77,
                    "time": 30.608561750000003,
                    "velocity": 0.3937007874015748,
                    "duration": 0.21130170833333395
                },
                {
                    "name": "D5",
                    "midi": 74,
                    "time": 30.789677500000003,
                    "velocity": 0.3779527559055118,
                    "duration": 0.21130170833333395
                },
                {
                    "name": "D#5",
                    "midi": 75,
                    "time": 30.970793250000003,
                    "velocity": 0.3779527559055118,
                    "duration": 0.21130170833333395
                },
                {
                    "name": "C5",
                    "midi": 72,
                    "time": 31.151909000000003,
                    "velocity": 0.36220472440944884,
                    "duration": 0.21130170833333395
                },
                {
                    "name": "C#5",
                    "midi": 73,
                    "time": 31.333024750000003,
                    "velocity": 0.3543307086614173,
                    "duration": 0.21130170833333395
                },
                {
                    "name": "C5",
                    "midi": 72,
                    "time": 31.514140500000003,
                    "velocity": 0.3543307086614173,
                    "duration": 0.21130170833333395
                },
                {
                    "name": "A#4",
                    "midi": 70,
                    "time": 31.695256250000003,
                    "velocity": 0.33858267716535434,
                    "duration": 0.18111575000000002
                },
                {
                    "name": "B4",
                    "midi": 71,
                    "time": 31.876372000000003,
                    "velocity": 0.3228346456692913,
                    "duration": 0.2113017083333304
                },
                {
                    "name": "C5",
                    "midi": 72,
                    "time": 32.05748775,
                    "velocity": 0.33070866141732286,
                    "duration": 0.2113017083333375
                },
                {
                    "name": "D5",
                    "midi": 74,
                    "time": 32.2386035,
                    "velocity": 0.3464566929133858,
                    "duration": 0.2113017083333375
                },
                {
                    "name": "D#5",
                    "midi": 75,
                    "time": 32.41971925000001,
                    "velocity": 0.3543307086614173,
                    "duration": 0.2113017083333375
                },
                {
                    "name": "E5",
                    "midi": 76,
                    "time": 32.60083500000001,
                    "velocity": 0.3779527559055118,
                    "duration": 0.2113017083333375
                },
                {
                    "name": "F5",
                    "midi": 77,
                    "time": 32.781950750000014,
                    "velocity": 0.3937007874015748,
                    "duration": 0.2113017083333375
                },
                {
                    "name": "G5",
                    "midi": 79,
                    "time": 32.96306650000002,
                    "velocity": 0.4015748031496063,
                    "duration": 0.2113017083333375
                },
                {
                    "name": "G#5",
                    "midi": 80,
                    "time": 33.14418225000002,
                    "velocity": 0.41732283464566927,
                    "duration": 0.2113017083333375
                },
                {
                    "name": "F#5",
                    "midi": 78,
                    "time": 33.325298000000025,
                    "velocity": 0.4251968503937008,
                    "duration": 0.2113017083333375
                },
                {
                    "name": "G5",
                    "midi": 79,
                    "time": 33.50641375000003,
                    "velocity": 0.4094488188976378,
                    "duration": 0.2113017083333375
                },
                {
                    "name": "E5",
                    "midi": 76,
                    "time": 33.68752950000003,
                    "velocity": 0.4015748031496063,
                    "duration": 0.2113017083333375
                },
                {
                    "name": "F5",
                    "midi": 77,
                    "time": 33.868645250000036,
                    "velocity": 0.3779527559055118,
                    "duration": 0.2113017083333375
                },
                {
                    "name": "D5",
                    "midi": 74,
                    "time": 34.04976100000004,
                    "velocity": 0.3779527559055118,
                    "duration": 0.2113017083333375
                },
                {
                    "name": "D#5",
                    "midi": 75,
                    "time": 34.23087675000004,
                    "velocity": 0.3779527559055118,
                    "duration": 0.2113017083333375
                },
                {
                    "name": "D5",
                    "midi": 74,
                    "time": 34.411992500000046,
                    "velocity": 0.36220472440944884,
                    "duration": 0.2113017083333375
                },
                {
                    "name": "C5",
                    "midi": 72,
                    "time": 34.59310825000005,
                    "velocity": 0.3543307086614173,
                    "duration": 0.18111575000000357
                },
                {
                    "name": "B4",
                    "midi": 71,
                    "time": 34.77422400000005,
                    "velocity": 0.33858267716535434,
                    "duration": 0.2113017083333304
                },
                {
                    "name": "C5",
                    "midi": 72,
                    "time": 34.95533975000005,
                    "velocity": 0.3464566929133858,
                    "duration": 0.2113017083333375
                },
                {
                    "name": "D5",
                    "midi": 74,
                    "time": 35.136455500000054,
                    "velocity": 0.3543307086614173,
                    "duration": 0.2113017083333375
                },
                {
                    "name": "D#5",
                    "midi": 75,
                    "time": 35.31757125000006,
                    "velocity": 0.3700787401574803,
                    "duration": 0.2113017083333375
                },
                {
                    "name": "E5",
                    "midi": 76,
                    "time": 35.49868700000006,
                    "velocity": 0.3858267716535433,
                    "duration": 0.2113017083333375
                },
                {
                    "name": "F5",
                    "midi": 77,
                    "time": 35.679802750000064,
                    "velocity": 0.4015748031496063,
                    "duration": 0.2113017083333375
                },
                {
                    "name": "G5",
                    "midi": 79,
                    "time": 35.86091850000007,
                    "velocity": 0.41732283464566927,
                    "duration": 0.2113017083333375
                },
                {
                    "name": "G#5",
                    "midi": 80,
                    "time": 36.04203425000007,
                    "velocity": 0.4251968503937008,
                    "duration": 0.2113017083333375
                },
                {
                    "name": "F#5",
                    "midi": 78,
                    "time": 36.223150000000075,
                    "velocity": 0.44881889763779526,
                    "duration": 0.2113017083333375
                },
                {
                    "name": "G5",
                    "midi": 79,
                    "time": 36.40426575000008,
                    "velocity": 0.4409448818897638,
                    "duration": 0.2113017083333375
                },
                {
                    "name": "E5",
                    "midi": 76,
                    "time": 36.58538150000008,
                    "velocity": 0.4251968503937008,
                    "duration": 0.2113017083333375
                },
                {
                    "name": "F5",
                    "midi": 77,
                    "time": 36.766497250000086,
                    "velocity": 0.4015748031496063,
                    "duration": 0.2113017083333375
                },
                {
                    "name": "D5",
                    "midi": 74,
                    "time": 36.94761300000009,
                    "velocity": 0.4015748031496063,
                    "duration": 0.2113017083333375
                },
                {
                    "name": "D#5",
                    "midi": 75,
                    "time": 37.12872875000009,
                    "velocity": 0.4015748031496063,
                    "duration": 0.2113017083333375
                },
                {
                    "name": "D5",
                    "midi": 74,
                    "time": 37.309844500000096,
                    "velocity": 0.3858267716535433,
                    "duration": 0.2113017083333375
                },
                {
                    "name": "C5",
                    "midi": 72,
                    "time": 37.4909602500001,
                    "velocity": 0.3779527559055118,
                    "duration": 0.18111575000000357
                },
                {
                    "name": "C#5",
                    "midi": 73,
                    "time": 37.672076000000104,
                    "velocity": 0.36220472440944884,
                    "duration": 0.2113017083333304
                },
                {
                    "name": "D#5",
                    "midi": 75,
                    "time": 37.8531917500001,
                    "velocity": 0.3543307086614173,
                    "duration": 0.2113017083333375
                },
                {
                    "name": "F5",
                    "midi": 77,
                    "time": 38.034307500000104,
                    "velocity": 0.3700787401574803,
                    "duration": 0.2113017083333375
                },
                {
                    "name": "F#5",
                    "midi": 78,
                    "time": 38.21542325000011,
                    "velocity": 0.3858267716535433,
                    "duration": 0.2113017083333375
                },
                {
                    "name": "G#5",
                    "midi": 80,
                    "time": 38.39653900000011,
                    "velocity": 0.3937007874015748,
                    "duration": 0.2113017083333375
                },
                {
                    "name": "A#5",
                    "midi": 82,
                    "time": 38.577654750000114,
                    "velocity": 0.4015748031496063,
                    "duration": 0.2113017083333375
                },
                {
                    "name": "B5",
                    "midi": 83,
                    "time": 38.75877050000012,
                    "velocity": 0.41732283464566927,
                    "duration": 0.2113017083333375
                },
                {
                    "name": "C6",
                    "midi": 84,
                    "time": 38.93988625000012,
                    "velocity": 0.4330708661417323,
                    "duration": 0.2113017083333375
                },
                {
                    "name": "C#6",
                    "midi": 85,
                    "time": 39.121002000000125,
                    "velocity": 0.4409448818897638,
                    "duration": 0.2113017083333375
                },
                {
                    "name": "D6",
                    "midi": 86,
                    "time": 39.30211775000013,
                    "velocity": 0.44881889763779526,
                    "duration": 0.2113017083333375
                },
                {
                    "name": "F6",
                    "midi": 89,
                    "time": 39.48323350000013,
                    "velocity": 0.4566929133858268,
                    "duration": 0.2113017083333375
                },
                {
                    "name": "D#6",
                    "midi": 87,
                    "time": 39.664349250000136,
                    "velocity": 0.4409448818897638,
                    "duration": 0.2113017083333375
                },
                {
                    "name": "C6",
                    "midi": 84,
                    "time": 39.84546500000014,
                    "velocity": 0.4409448818897638,
                    "duration": 0.2113017083333375
                },
                {
                    "name": "A5",
                    "midi": 81,
                    "time": 40.02658075000014,
                    "velocity": 0.4251968503937008,
                    "duration": 0.2113017083333375
                },
                {
                    "name": "F#5",
                    "midi": 78,
                    "time": 40.20769650000015,
                    "velocity": 0.41732283464566927,
                    "duration": 0.2113017083333375
                },
                {
                    "name": "D#5",
                    "midi": 75,
                    "time": 40.38881225000015,
                    "velocity": 0.4015748031496063,
                    "duration": 0.18111575000000357
                },
                {
                    "name": "C#5",
                    "midi": 73,
                    "time": 40.569928000000154,
                    "velocity": 0.3779527559055118,
                    "duration": 0.2113017083333304
                },
                {
                    "name": "D#5",
                    "midi": 75,
                    "time": 40.75104375000015,
                    "velocity": 0.4015748031496063,
                    "duration": 0.2113017083333375
                },
                {
                    "name": "F5",
                    "midi": 77,
                    "time": 40.932159500000154,
                    "velocity": 0.4015748031496063,
                    "duration": 0.2113017083333375
                },
                {
                    "name": "F#5",
                    "midi": 78,
                    "time": 41.11327525000016,
                    "velocity": 0.41732283464566927,
                    "duration": 0.2113017083333375
                },
                {
                    "name": "G#5",
                    "midi": 80,
                    "time": 41.29439100000016,
                    "velocity": 0.4330708661417323,
                    "duration": 0.2113017083333375
                },
                {
                    "name": "A#5",
                    "midi": 82,
                    "time": 41.475506750000164,
                    "velocity": 0.4409448818897638,
                    "duration": 0.2113017083333375
                },
                {
                    "name": "B5",
                    "midi": 83,
                    "time": 41.65662250000017,
                    "velocity": 0.4566929133858268,
                    "duration": 0.2113017083333375
                },
                {
                    "name": "C6",
                    "midi": 84,
                    "time": 41.83773825000017,
                    "velocity": 0.4566929133858268,
                    "duration": 0.2113017083333375
                },
                {
                    "name": "C#6",
                    "midi": 85,
                    "time": 42.018854000000175,
                    "velocity": 0.47244094488188976,
                    "duration": 0.2113017083333375
                },
                {
                    "name": "C6",
                    "midi": 84,
                    "time": 42.19996975000018,
                    "velocity": 0.4881889763779528,
                    "duration": 0.2113017083333375
                },
                {
                    "name": "D#6",
                    "midi": 87,
                    "time": 42.38108550000018,
                    "velocity": 0.49606299212598426,
                    "duration": 0.2113017083333375
                },
                {
                    "name": "C#6",
                    "midi": 85,
                    "time": 42.562201250000186,
                    "velocity": 0.47244094488188976,
                    "duration": 0.2113017083333375
                },
                {
                    "name": "A#5",
                    "midi": 82,
                    "time": 42.74331700000019,
                    "velocity": 0.4566929133858268,
                    "duration": 0.2113017083333375
                },
                {
                    "name": "G5",
                    "midi": 79,
                    "time": 42.92443275000019,
                    "velocity": 0.4409448818897638,
                    "duration": 0.2113017083333375
                },
                {
                    "name": "E5",
                    "midi": 76,
                    "time": 43.1055485000002,
                    "velocity": 0.4330708661417323,
                    "duration": 0.2113017083333375
                },
                {
                    "name": "C#5",
                    "midi": 73,
                    "time": 43.2866642500002,
                    "velocity": 0.4094488188976378,
                    "duration": 0.18111575000000357
                },
                {
                    "name": "C5",
                    "midi": 72,
                    "time": 43.467780000000204,
                    "velocity": 0.4409448818897638,
                    "duration": 0.2113017083333304
                },
                {
                    "name": "C#5",
                    "midi": 73,
                    "time": 43.6488957500002,
                    "velocity": 0.4409448818897638,
                    "duration": 0.2113017083333375
                },
                {
                    "name": "D5",
                    "midi": 74,
                    "time": 43.830011500000204,
                    "velocity": 0.44881889763779526,
                    "duration": 0.2113017083333375
                },
                {
                    "name": "D#5",
                    "midi": 75,
                    "time": 44.01112725000021,
                    "velocity": 0.4645669291338583,
                    "duration": 0.2113017083333375
                },
                {
                    "name": "E5",
                    "midi": 76,
                    "time": 44.19224300000021,
                    "velocity": 0.47244094488188976,
                    "duration": 0.2113017083333375
                },
                {
                    "name": "F5",
                    "midi": 77,
                    "time": 44.373358750000214,
                    "velocity": 0.48031496062992124,
                    "duration": 0.2113017083333375
                },
                {
                    "name": "F#5",
                    "midi": 78,
                    "time": 44.55447450000022,
                    "velocity": 0.48031496062992124,
                    "duration": 0.2113017083333375
                },
                {
                    "name": "G5",
                    "midi": 79,
                    "time": 44.73559025000022,
                    "velocity": 0.4881889763779528,
                    "duration": 0.2113017083333375
                },
                {
                    "name": "G#5",
                    "midi": 80,
                    "time": 44.916706000000225,
                    "velocity": 0.4881889763779528,
                    "duration": 0.2113017083333375
                },
                {
                    "name": "A5",
                    "midi": 81,
                    "time": 45.09782175000023,
                    "velocity": 0.4881889763779528,
                    "duration": 0.2113017083333375
                },
                {
                    "name": "C6",
                    "midi": 84,
                    "time": 45.27893750000023,
                    "velocity": 0.48031496062992124,
                    "duration": 0.2113017083333375
                },
                {
                    "name": "A#5",
                    "midi": 82,
                    "time": 45.460053250000236,
                    "velocity": 0.48031496062992124,
                    "duration": 0.2113017083333375
                },
                {
                    "name": "F#5",
                    "midi": 78,
                    "time": 45.64116900000024,
                    "velocity": 0.4645669291338583,
                    "duration": 0.2113017083333375
                },
                {
                    "name": "F5",
                    "midi": 77,
                    "time": 45.82228475000024,
                    "velocity": 0.4566929133858268,
                    "duration": 0.2113017083333375
                },
                {
                    "name": "D#5",
                    "midi": 75,
                    "time": 46.00340050000025,
                    "velocity": 0.44881889763779526,
                    "duration": 0.2113017083333375
                },
                {
                    "name": "C#5",
                    "midi": 73,
                    "time": 46.18451625000025,
                    "velocity": 0.4409448818897638,
                    "duration": 0.18111575000000357
                },
                {
                    "name": "C5",
                    "midi": 72,
                    "time": 46.365632000000254,
                    "velocity": 0.5196850393700787,
                    "duration": 0.2113017083333304
                },
                {
                    "name": "A#4",
                    "midi": 70,
                    "time": 46.54674775000025,
                    "velocity": 0.5118110236220472,
                    "duration": 0.2113017083333375
                },
                {
                    "name": "A4",
                    "midi": 69,
                    "time": 46.727863500000254,
                    "velocity": 0.5118110236220472,
                    "duration": 0.2113017083333375
                },
                {
                    "name": "C5",
                    "midi": 72,
                    "time": 46.90897925000026,
                    "velocity": 0.5118110236220472,
                    "duration": 0.2113017083333375
                },
                {
                    "name": "F#4",
                    "midi": 66,
                    "time": 47.09009500000026,
                    "velocity": 0.5039370078740157,
                    "duration": 0.2113017083333375
                },
                {
                    "name": "F4",
                    "midi": 65,
                    "time": 47.271210750000265,
                    "velocity": 0.5118110236220472,
                    "duration": 0.2113017083333375
                },
                {
                    "name": "E4",
                    "midi": 64,
                    "time": 47.45232650000027,
                    "velocity": 0.5275590551181102,
                    "duration": 0.2113017083333375
                },
                {
                    "name": "F4",
                    "midi": 65,
                    "time": 47.63344225000027,
                    "velocity": 0.5433070866141733,
                    "duration": 0.2113017083333375
                },
                {
                    "name": "F#4",
                    "midi": 66,
                    "time": 47.814558000000275,
                    "velocity": 0.5511811023622047,
                    "duration": 0.2113017083333375
                },
                {
                    "name": "F4",
                    "midi": 65,
                    "time": 47.99567375000028,
                    "velocity": 0.5354330708661418,
                    "duration": 0.2113017083333375
                },
                {
                    "name": "A#4",
                    "midi": 70,
                    "time": 48.17678950000028,
                    "velocity": 0.5669291338582677,
                    "duration": 0.2113017083333375
                },
                {
                    "name": "A4",
                    "midi": 69,
                    "time": 48.357905250000286,
                    "velocity": 0.5590551181102362,
                    "duration": 0.2113017083333375
                },
                {
                    "name": "C#5",
                    "midi": 73,
                    "time": 48.53902100000029,
                    "velocity": 0.5826771653543307,
                    "duration": 0.2113017083333375
                },
                {
                    "name": "C5",
                    "midi": 72,
                    "time": 48.72013675000029,
                    "velocity": 0.5590551181102362,
                    "duration": 0.2113017083333375
                },
                {
                    "name": "G#5",
                    "midi": 80,
                    "time": 48.9012525000003,
                    "velocity": 0.5826771653543307,
                    "duration": 0.2113017083333375
                },
                {
                    "name": "F#5",
                    "midi": 78,
                    "time": 49.0823682500003,
                    "velocity": 0.5905511811023622,
                    "duration": 0.18111575000000357
                },
                {
                    "name": "F5",
                    "midi": 77,
                    "time": 49.263484000000304,
                    "velocity": 0.6062992125984252,
                    "duration": 0.2113017083333304
                },
                {
                    "name": "C5",
                    "midi": 72,
                    "time": 49.4445997500003,
                    "velocity": 0.6062992125984252,
                    "duration": 0.2113017083333375
                },
                {
                    "name": "D#5",
                    "midi": 75,
                    "time": 49.625715500000304,
                    "velocity": 0.6141732283464567,
                    "duration": 0.2113017083333375
                },
                {
                    "name": "C#5",
                    "midi": 73,
                    "time": 49.80683125000031,
                    "velocity": 0.6220472440944882,
                    "duration": 0.2113017083333375
                },
                {
                    "name": "F4",
                    "midi": 65,
                    "time": 49.98794700000031,
                    "velocity": 0.6220472440944882,
                    "duration": 0.2113017083333375
                },
                {
                    "name": "A4",
                    "midi": 69,
                    "time": 50.169062750000315,
                    "velocity": 0.6299212598425197,
                    "duration": 0.2113017083333375
                },
                {
                    "name": "A#4",
                    "midi": 70,
                    "time": 50.35017850000032,
                    "velocity": 0.6377952755905512,
                    "duration": 0.2113017083333375
                },
                {
                    "name": "C5",
                    "midi": 72,
                    "time": 50.53129425000032,
                    "velocity": 0.6377952755905512,
                    "duration": 0.2113017083333375
                },
                {
                    "name": "C#5",
                    "midi": 73,
                    "time": 50.712410000000325,
                    "velocity": 0.6456692913385826,
                    "duration": 0.2113017083333375
                },
                {
                    "name": "D#5",
                    "midi": 75,
                    "time": 50.89352575000033,
                    "velocity": 0.6535433070866141,
                    "duration": 0.2113017083333375
                },
                {
                    "name": "F5",
                    "midi": 77,
                    "time": 51.07464150000033,
                    "velocity": 0.6614173228346457,
                    "duration": 0.2113017083333375
                },
                {
                    "name": "G5",
                    "midi": 79,
                    "time": 51.255757250000336,
                    "velocity": 0.6614173228346457,
                    "duration": 0.2113017083333375
                },
                {
                    "name": "A5",
                    "midi": 81,
                    "time": 51.43687300000034,
                    "velocity": 0.6692913385826772,
                    "duration": 0.2113017083333375
                },
                {
                    "name": "A#5",
                    "midi": 82,
                    "time": 51.61798875000034,
                    "velocity": 0.6771653543307087,
                    "duration": 0.2113017083333375
                },
                {
                    "name": "C6",
                    "midi": 84,
                    "time": 51.79910450000035,
                    "velocity": 0.6771653543307087,
                    "duration": 0.2113017083333375
                },
                {
                    "name": "C#6",
                    "midi": 85,
                    "time": 51.98022025000035,
                    "velocity": 0.6850393700787402,
                    "duration": 0.2113017083333375
                },
                {
                    "name": "D#6",
                    "midi": 87,
                    "time": 52.161336000000354,
                    "velocity": 0.6929133858267716,
                    "duration": 0.2113017083333375
                },
                {
                    "name": "F6",
                    "midi": 89,
                    "time": 52.34245175000036,
                    "velocity": 0.7007874015748031,
                    "duration": 0.2113017083333375
                },
                {
                    "name": "G6",
                    "midi": 91,
                    "time": 52.52356750000036,
                    "velocity": 0.7007874015748031,
                    "duration": 0.2113017083333375
                },
                {
                    "name": "A6",
                    "midi": 93,
                    "time": 52.704683250000365,
                    "velocity": 0.7086614173228346,
                    "duration": 0.2113017083333375
                },
                {
                    "name": "A#6",
                    "midi": 94,
                    "time": 52.88579900000037,
                    "velocity": 0.7165354330708661,
                    "duration": 0.2113017083333375
                },
                {
                    "name": "C7",
                    "midi": 96,
                    "time": 53.06691475000037,
                    "velocity": 0.7165354330708661,
                    "duration": 0.2113017083333375
                },
                {
                    "name": "C#7",
                    "midi": 97,
                    "time": 53.248030500000375,
                    "velocity": 0.7244094488188977,
                    "duration": 0.2113017083333375
                },
                {
                    "name": "D#7",
                    "midi": 99,
                    "time": 53.42914625000038,
                    "velocity": 0.7322834645669292,
                    "duration": 0.2113017083333375
                },
                {
                    "name": "E7",
                    "midi": 100,
                    "time": 53.61026200000038,
                    "velocity": 0.7401574803149606,
                    "duration": 0.2113017083333375
                },
                {
                    "name": "F7",
                    "midi": 101,
                    "time": 53.791377750000386,
                    "velocity": 0.7244094488188977,
                    "duration": 0.2113017083333375
                },
                {
                    "name": "D#7",
                    "midi": 99,
                    "time": 53.97249350000039,
                    "velocity": 0.7244094488188977,
                    "duration": 0.2113017083333375
                },
                {
                    "name": "C#7",
                    "midi": 97,
                    "time": 54.15360925000039,
                    "velocity": 0.7165354330708661,
                    "duration": 0.2113017083333375
                },
                {
                    "name": "C7",
                    "midi": 96,
                    "time": 54.3347250000004,
                    "velocity": 0.7086614173228346,
                    "duration": 0.2113017083333375
                },
                {
                    "name": "A#6",
                    "midi": 94,
                    "time": 54.5158407500004,
                    "velocity": 0.6929133858267716,
                    "duration": 0.2113017083333375
                },
                {
                    "name": "A6",
                    "midi": 93,
                    "time": 54.696956500000404,
                    "velocity": 0.6850393700787402,
                    "duration": 0.2113017083333375
                },
                {
                    "name": "A#6",
                    "midi": 94,
                    "time": 54.87807225000041,
                    "velocity": 0.6771653543307087,
                    "duration": 0.2113017083333375
                },
                {
                    "name": "G#6",
                    "midi": 92,
                    "time": 55.05918800000041,
                    "velocity": 0.6771653543307087,
                    "duration": 0.2113017083333375
                },
                {
                    "name": "F#6",
                    "midi": 90,
                    "time": 55.240303750000415,
                    "velocity": 0.6692913385826772,
                    "duration": 0.2113017083333375
                },
                {
                    "name": "F6",
                    "midi": 89,
                    "time": 55.42141950000042,
                    "velocity": 0.6535433070866141,
                    "duration": 0.2113017083333375
                },
                {
                    "name": "E6",
                    "midi": 88,
                    "time": 55.60253525000042,
                    "velocity": 0.6456692913385826,
                    "duration": 0.2113017083333375
                },
                {
                    "name": "F6",
                    "midi": 89,
                    "time": 55.783651000000425,
                    "velocity": 0.6220472440944882,
                    "duration": 0.2113017083333375
                },
                {
                    "name": "D#6",
                    "midi": 87,
                    "time": 55.96476675000043,
                    "velocity": 0.6062992125984252,
                    "duration": 0.2113017083333375
                },
                {
                    "name": "C#6",
                    "midi": 85,
                    "time": 56.14588250000043,
                    "velocity": 0.5984251968503937,
                    "duration": 0.2113017083333375
                },
                {
                    "name": "C6",
                    "midi": 84,
                    "time": 56.326998250000436,
                    "velocity": 0.5826771653543307,
                    "duration": 0.2113017083333375
                },
                {
                    "name": "A#5",
                    "midi": 82,
                    "time": 56.50811400000044,
                    "velocity": 0.5669291338582677,
                    "duration": 0.2113017083333375
                },
                {
                    "name": "A5",
                    "midi": 81,
                    "time": 56.68922975000044,
                    "velocity": 0.5433070866141733,
                    "duration": 0.2113017083333375
                },
                {
                    "name": "A#5",
                    "midi": 82,
                    "time": 56.87034550000045,
                    "velocity": 0.5354330708661418,
                    "duration": 0.2113017083333375
                },
                {
                    "name": "G#5",
                    "midi": 80,
                    "time": 57.05146125000045,
                    "velocity": 0.5275590551181102,
                    "duration": 0.2113017083333375
                },
                {
                    "name": "F#5",
                    "midi": 78,
                    "time": 57.232577000000454,
                    "velocity": 0.5196850393700787,
                    "duration": 0.2113017083333375
                },
                {
                    "name": "F5",
                    "midi": 77,
                    "time": 57.41369275000046,
                    "velocity": 0.5118110236220472,
                    "duration": 0.2113017083333375
                },
                {
                    "name": "D#5",
                    "midi": 75,
                    "time": 57.59480850000046,
                    "velocity": 0.49606299212598426,
                    "duration": 0.2113017083333375
                },
                {
                    "name": "C#5",
                    "midi": 73,
                    "time": 57.775924250000465,
                    "velocity": 0.48031496062992124,
                    "duration": 0.18111575000000357
                },
                {
                    "name": "C5",
                    "midi": 72,
                    "time": 57.95704000000047,
                    "velocity": 0.48031496062992124,
                    "duration": 0.2113017083333304
                },
                {
                    "name": "C#5",
                    "midi": 73,
                    "time": 58.138155750000465,
                    "velocity": 0.48031496062992124,
                    "duration": 0.2113017083333375
                },
                {
                    "name": "D#5",
                    "midi": 75,
                    "time": 58.31927150000047,
                    "velocity": 0.4881889763779528,
                    "duration": 0.2113017083333375
                },
                {
                    "name": "F5",
                    "midi": 77,
                    "time": 58.50038725000047,
                    "velocity": 0.5039370078740157,
                    "duration": 0.2113017083333375
                },
                {
                    "name": "F#5",
                    "midi": 78,
                    "time": 58.681503000000475,
                    "velocity": 0.5196850393700787,
                    "duration": 0.2113017083333375
                },
                {
                    "name": "G#5",
                    "midi": 80,
                    "time": 58.86261875000048,
                    "velocity": 0.5196850393700787,
                    "duration": 0.2113017083333375
                },
                {
                    "name": "A#5",
                    "midi": 82,
                    "time": 59.04373450000048,
                    "velocity": 0.5354330708661418,
                    "duration": 0.2113017083333375
                },
                {
                    "name": "C6",
                    "midi": 84,
                    "time": 59.224850250000486,
                    "velocity": 0.5511811023622047,
                    "duration": 0.2113017083333375
                },
                {
                    "name": "A#5",
                    "midi": 82,
                    "time": 59.40596600000049,
                    "velocity": 0.5511811023622047,
                    "duration": 0.2113017083333375
                },
                {
                    "name": "G#5",
                    "midi": 80,
                    "time": 59.58708175000049,
                    "velocity": 0.5590551181102362,
                    "duration": 0.2113017083333375
                },
                {
                    "name": "F#5",
                    "midi": 78,
                    "time": 59.7681975000005,
                    "velocity": 0.5748031496062992,
                    "duration": 0.2113017083333375
                },
                {
                    "name": "F5",
                    "midi": 77,
                    "time": 59.9493132500005,
                    "velocity": 0.5905511811023622,
                    "duration": 0.2113017083333375
                },
                {
                    "name": "D#5",
                    "midi": 75,
                    "time": 60.130429000000504,
                    "velocity": 0.5905511811023622,
                    "duration": 0.2113017083333375
                },
                {
                    "name": "C#5",
                    "midi": 73,
                    "time": 60.31154475000051,
                    "velocity": 0.5748031496062992,
                    "duration": 0.2113017083333375
                },
                {
                    "name": "C5",
                    "midi": 72,
                    "time": 60.49266050000051,
                    "velocity": 0.5669291338582677,
                    "duration": 0.2113017083333375
                },
                {
                    "name": "D#5",
                    "midi": 75,
                    "time": 60.673776250000515,
                    "velocity": 0.5748031496062992,
                    "duration": 0.2113017083333375
                },
                {
                    "name": "F#5",
                    "midi": 78,
                    "time": 60.85489200000052,
                    "velocity": 0.6062992125984252,
                    "duration": 0.2113017083333375
                },
                {
                    "name": "D5",
                    "midi": 74,
                    "time": 61.03600775000052,
                    "velocity": 0.5354330708661418,
                    "duration": 0.2113017083333375
                },
                {
                    "name": "E5",
                    "midi": 76,
                    "time": 61.217123500000525,
                    "velocity": 0.5826771653543307,
                    "duration": 0.2113017083333375
                },
                {
                    "name": "D#5",
                    "midi": 75,
                    "time": 61.39823925000053,
                    "velocity": 0.5196850393700787,
                    "duration": 0.2113017083333375
                },
                {
                    "name": "C5",
                    "midi": 72,
                    "time": 61.57935500000053,
                    "velocity": 0.5669291338582677,
                    "duration": 0.2113017083333375
                },
                {
                    "name": "F#4",
                    "midi": 66,
                    "time": 61.760470750000536,
                    "velocity": 0.5354330708661418,
                    "duration": 0.2113017083333375
                },
                {
                    "name": "B4",
                    "midi": 71,
                    "time": 61.94158650000054,
                    "velocity": 0.5433070866141733,
                    "duration": 0.2113017083333375
                },
                {
                    "name": "C5",
                    "midi": 72,
                    "time": 62.12270225000054,
                    "velocity": 0.5511811023622047,
                    "duration": 0.2113017083333375
                },
                {
                    "name": "C#5",
                    "midi": 73,
                    "time": 62.30381800000055,
                    "velocity": 0.5669291338582677,
                    "duration": 0.2113017083333375
                },
                {
                    "name": "C5",
                    "midi": 72,
                    "time": 62.48493375000055,
                    "velocity": 0.5748031496062992,
                    "duration": 0.2113017083333375
                },
                {
                    "name": "D5",
                    "midi": 74,
                    "time": 62.666049500000554,
                    "velocity": 0.5826771653543307,
                    "duration": 0.2113017083333375
                },
                {
                    "name": "D#5",
                    "midi": 75,
                    "time": 62.84716525000056,
                    "velocity": 0.5826771653543307,
                    "duration": 0.2113017083333375
                },
                {
                    "name": "E5",
                    "midi": 76,
                    "time": 63.02828100000056,
                    "velocity": 0.5905511811023622,
                    "duration": 0.2113017083333375
                },
                {
                    "name": "D#5",
                    "midi": 75,
                    "time": 63.209396750000565,
                    "velocity": 0.5984251968503937,
                    "duration": 0.2113017083333375
                },
                {
                    "name": "E5",
                    "midi": 76,
                    "time": 63.39051250000057,
                    "velocity": 0.6141732283464567,
                    "duration": 0.2113017083333375
                },
                {
                    "name": "F5",
                    "midi": 77,
                    "time": 63.57162825000057,
                    "velocity": 0.6220472440944882,
                    "duration": 0.18111575000000357
                },
                {
                    "name": "G#5",
                    "midi": 80,
                    "time": 63.752744000000575,
                    "velocity": 0.6299212598425197,
                    "duration": 0.2113017083333304
                },
                {
                    "name": "F#5",
                    "midi": 78,
                    "time": 63.93385975000057,
                    "velocity": 0.6377952755905512,
                    "duration": 0.2113017083333304
                },
                {
                    "name": "B5",
                    "midi": 83,
                    "time": 64.11497550000057,
                    "velocity": 0.6456692913385826,
                    "duration": 0.2113017083333375
                },
                {
                    "name": "C6",
                    "midi": 84,
                    "time": 64.29609125000057,
                    "velocity": 0.6614173228346457,
                    "duration": 0.2113017083333375
                },
                {
                    "name": "C#6",
                    "midi": 85,
                    "time": 64.47720700000058,
                    "velocity": 0.6692913385826772,
                    "duration": 0.2113017083333375
                },
                {
                    "name": "C6",
                    "midi": 84,
                    "time": 64.65832275000058,
                    "velocity": 0.6771653543307087,
                    "duration": 0.2113017083333375
                },
                {
                    "name": "D6",
                    "midi": 86,
                    "time": 64.83943850000058,
                    "velocity": 0.6850393700787402,
                    "duration": 0.2113017083333375
                },
                {
                    "name": "D#6",
                    "midi": 87,
                    "time": 65.02055425000059,
                    "velocity": 0.6929133858267716,
                    "duration": 0.2113017083333375
                },
                {
                    "name": "E6",
                    "midi": 88,
                    "time": 65.20167000000059,
                    "velocity": 0.7086614173228346,
                    "duration": 0.2113017083333375
                },
                {
                    "name": "D#6",
                    "midi": 87,
                    "time": 65.3827857500006,
                    "velocity": 0.7165354330708661,
                    "duration": 0.2113017083333375
                },
                {
                    "name": "E6",
                    "midi": 88,
                    "time": 65.5639015000006,
                    "velocity": 0.7244094488188977,
                    "duration": 0.2113017083333375
                },
                {
                    "name": "F6",
                    "midi": 89,
                    "time": 65.7450172500006,
                    "velocity": 0.7244094488188977,
                    "duration": 0.2113017083333375
                },
                {
                    "name": "G#6",
                    "midi": 92,
                    "time": 65.9261330000006,
                    "velocity": 0.7322834645669292,
                    "duration": 0.2113017083333375
                },
                {
                    "name": "A#6",
                    "midi": 94,
                    "time": 66.10724875000061,
                    "velocity": 0.7401574803149606,
                    "duration": 0.2113017083333375
                },
                {
                    "name": "G#6",
                    "midi": 92,
                    "time": 66.28836450000061,
                    "velocity": 0.7559055118110236,
                    "duration": 0.2113017083333375
                },
                {
                    "name": "G6",
                    "midi": 91,
                    "time": 66.46948025000061,
                    "velocity": 0.7637795275590551,
                    "duration": 0.2113017083333375
                },
                {
                    "name": "F#6",
                    "midi": 90,
                    "time": 66.65059600000062,
                    "velocity": 0.7480314960629921,
                    "duration": 0.2113017083333375
                },
                {
                    "name": "F7",
                    "midi": 101,
                    "time": 66.83171175000062,
                    "velocity": 0.7480314960629921,
                    "duration": 0.2113017083333375
                },
                {
                    "name": "D#7",
                    "midi": 99,
                    "time": 67.01282750000063,
                    "velocity": 0.7322834645669292,
                    "duration": 0.2113017083333375
                },
                {
                    "name": "F#6",
                    "midi": 90,
                    "time": 67.19394325000063,
                    "velocity": 0.7165354330708661,
                    "duration": 0.2113017083333375
                },
                {
                    "name": "D#7",
                    "midi": 99,
                    "time": 67.37505900000063,
                    "velocity": 0.7007874015748031,
                    "duration": 0.2113017083333375
                },
                {
                    "name": "C#7",
                    "midi": 97,
                    "time": 67.55617475000064,
                    "velocity": 0.6850393700787402,
                    "duration": 0.2113017083333375
                },
                {
                    "name": "F6",
                    "midi": 89,
                    "time": 67.73729050000064,
                    "velocity": 0.6692913385826772,
                    "duration": 0.2113017083333375
                },
                {
                    "name": "C#7",
                    "midi": 97,
                    "time": 67.91840625000064,
                    "velocity": 0.6535433070866141,
                    "duration": 0.2113017083333375
                },
                {
                    "name": "C7",
                    "midi": 96,
                    "time": 68.09952200000065,
                    "velocity": 0.6377952755905512,
                    "duration": 0.2113017083333375
                },
                {
                    "name": "D#6",
                    "midi": 87,
                    "time": 68.28063775000065,
                    "velocity": 0.6299212598425197,
                    "duration": 0.2113017083333375
                },
                {
                    "name": "C7",
                    "midi": 96,
                    "time": 68.46175350000065,
                    "velocity": 0.6141732283464567,
                    "duration": 0.2113017083333375
                },
                {
                    "name": "A#6",
                    "midi": 94,
                    "time": 68.64286925000066,
                    "velocity": 0.5984251968503937,
                    "duration": 0.2113017083333375
                },
                {
                    "name": "C#6",
                    "midi": 85,
                    "time": 68.82398500000066,
                    "velocity": 0.5826771653543307,
                    "duration": 0.2113017083333375
                },
                {
                    "name": "A#6",
                    "midi": 94,
                    "time": 69.00510075000066,
                    "velocity": 0.5748031496062992,
                    "duration": 0.2113017083333375
                },
                {
                    "name": "G#6",
                    "midi": 92,
                    "time": 69.18621650000067,
                    "velocity": 0.5590551181102362,
                    "duration": 0.2113017083333375
                },
                {
                    "name": "C6",
                    "midi": 84,
                    "time": 69.36733225000067,
                    "velocity": 0.5433070866141733,
                    "duration": 0.18111575000000357
                },
                {
                    "name": "G#6",
                    "midi": 92,
                    "time": 69.54844800000068,
                    "velocity": 0.5354330708661418,
                    "duration": 0.2113017083333375
                },
                {
                    "name": "F#6",
                    "midi": 90,
                    "time": 69.72956375000068,
                    "velocity": 0.5275590551181102,
                    "duration": 0.2113017083333375
                },
                {
                    "name": "A#5",
                    "midi": 82,
                    "time": 69.91067950000068,
                    "velocity": 0.5118110236220472,
                    "duration": 0.2113017083333375
                },
                {
                    "name": "F#6",
                    "midi": 90,
                    "time": 70.09179525000069,
                    "velocity": 0.5039370078740157,
                    "duration": 0.2113017083333375
                },
                {
                    "name": "F6",
                    "midi": 89,
                    "time": 70.27291100000069,
                    "velocity": 0.4881889763779528,
                    "duration": 0.2113017083333375
                },
                {
                    "name": "G#5",
                    "midi": 80,
                    "time": 70.4540267500007,
                    "velocity": 0.48031496062992124,
                    "duration": 0.2113017083333375
                },
                {
                    "name": "F6",
                    "midi": 89,
                    "time": 70.6351425000007,
                    "velocity": 0.47244094488188976,
                    "duration": 0.2113017083333375
                },
                {
                    "name": "D#6",
                    "midi": 87,
                    "time": 70.8162582500007,
                    "velocity": 0.4645669291338583,
                    "duration": 0.2113017083333375
                },
                {
                    "name": "F#5",
                    "midi": 78,
                    "time": 70.9973740000007,
                    "velocity": 0.44881889763779526,
                    "duration": 0.2113017083333375
                },
                {
                    "name": "D#6",
                    "midi": 87,
                    "time": 71.17848975000071,
                    "velocity": 0.4409448818897638,
                    "duration": 0.2113017083333375
                },
                {
                    "name": "C#6",
                    "midi": 85,
                    "time": 71.35960550000071,
                    "velocity": 0.4330708661417323,
                    "duration": 0.2113017083333375
                },
                {
                    "name": "F5",
                    "midi": 77,
                    "time": 71.54072125000071,
                    "velocity": 0.4251968503937008,
                    "duration": 0.2113017083333375
                },
                {
                    "name": "A#5",
                    "midi": 82,
                    "time": 71.72183700000072,
                    "velocity": 0.41732283464566927,
                    "duration": 0.2113017083333375
                },
                {
                    "name": "G#5",
                    "midi": 80,
                    "time": 71.90295275000072,
                    "velocity": 0.4015748031496063,
                    "duration": 0.2113017083333375
                },
                {
                    "name": "F5",
                    "midi": 77,
                    "time": 72.08406850000073,
                    "velocity": 0.4015748031496063,
                    "duration": 0.2113017083333375
                },
                {
                    "name": "C#5",
                    "midi": 73,
                    "time": 72.26518425000073,
                    "velocity": 0.3937007874015748,
                    "duration": 0.18111575000000357
                },
                {
                    "name": "C5",
                    "midi": 72,
                    "time": 72.44630000000073,
                    "velocity": 0.3779527559055118,
                    "duration": 0.2113017083333375
                },
                {
                    "name": "C#5",
                    "midi": 73,
                    "time": 72.62741575000074,
                    "velocity": 0.3858267716535433,
                    "duration": 0.2113017083333375
                },
                {
                    "name": "D#5",
                    "midi": 75,
                    "time": 72.80853150000074,
                    "velocity": 0.3937007874015748,
                    "duration": 0.2113017083333375
                },
                {
                    "name": "E5",
                    "midi": 76,
                    "time": 72.98964725000074,
                    "velocity": 0.4015748031496063,
                    "duration": 0.2113017083333375
                },
                {
                    "name": "F5",
                    "midi": 77,
                    "time": 73.17076300000075,
                    "velocity": 0.4094488188976378,
                    "duration": 0.2113017083333375
                },
                {
                    "name": "F#5",
                    "midi": 78,
                    "time": 73.35187875000075,
                    "velocity": 0.41732283464566927,
                    "duration": 0.2113017083333375
                },
                {
                    "name": "G#5",
                    "midi": 80,
                    "time": 73.53299450000075,
                    "velocity": 0.41732283464566927,
                    "duration": 0.2113017083333375
                },
                {
                    "name": "A5",
                    "midi": 81,
                    "time": 73.71411025000076,
                    "velocity": 0.4330708661417323,
                    "duration": 0.2113017083333375
                },
                {
                    "name": "G5",
                    "midi": 79,
                    "time": 73.89522600000076,
                    "velocity": 0.4251968503937008,
                    "duration": 0.2113017083333375
                },
                {
                    "name": "G#5",
                    "midi": 80,
                    "time": 74.07634175000076,
                    "velocity": 0.41732283464566927,
                    "duration": 0.2113017083333375
                },
                {
                    "name": "D#5",
                    "midi": 75,
                    "time": 74.25745750000077,
                    "velocity": 0.41732283464566927,
                    "duration": 0.2113017083333375
                },
                {
                    "name": "E5",
                    "midi": 76,
                    "time": 74.43857325000077,
                    "velocity": 0.4015748031496063,
                    "duration": 0.2113017083333375
                },
                {
                    "name": "G#4",
                    "midi": 68,
                    "time": 74.61968900000078,
                    "velocity": 0.4015748031496063,
                    "duration": 0.2113017083333375
                },
                {
                    "name": "E5",
                    "midi": 76,
                    "time": 74.80080475000078,
                    "velocity": 0.3937007874015748,
                    "duration": 0.2113017083333375
                },
                {
                    "name": "D#5",
                    "midi": 75,
                    "time": 74.98192050000078,
                    "velocity": 0.3779527559055118,
                    "duration": 0.2113017083333375
                },
                {
                    "name": "C#5",
                    "midi": 73,
                    "time": 75.16303625000079,
                    "velocity": 0.3700787401574803,
                    "duration": 0.18111575000000357
                },
                {
                    "name": "C5",
                    "midi": 72,
                    "time": 75.34415200000079,
                    "velocity": 0.3543307086614173,
                    "duration": 0.2113017083333375
                },
                {
                    "name": "C#5",
                    "midi": 73,
                    "time": 75.5252677500008,
                    "velocity": 0.3700787401574803,
                    "duration": 0.2113017083333375
                },
                {
                    "name": "D#5",
                    "midi": 75,
                    "time": 75.7063835000008,
                    "velocity": 0.3779527559055118,
                    "duration": 0.2113017083333375
                },
                {
                    "name": "E5",
                    "midi": 76,
                    "time": 75.8874992500008,
                    "velocity": 0.3937007874015748,
                    "duration": 0.2113017083333375
                },
                {
                    "name": "F5",
                    "midi": 77,
                    "time": 76.0686150000008,
                    "velocity": 0.4015748031496063,
                    "duration": 0.2113017083333375
                },
                {
                    "name": "F#5",
                    "midi": 78,
                    "time": 76.24973075000081,
                    "velocity": 0.4094488188976378,
                    "duration": 0.2113017083333375
                },
                {
                    "name": "G#5",
                    "midi": 80,
                    "time": 76.43084650000081,
                    "velocity": 0.41732283464566927,
                    "duration": 0.2113017083333375
                },
                {
                    "name": "A5",
                    "midi": 81,
                    "time": 76.61196225000081,
                    "velocity": 0.41732283464566927,
                    "duration": 0.2113017083333375
                },
                {
                    "name": "G5",
                    "midi": 79,
                    "time": 76.79307800000082,
                    "velocity": 0.4330708661417323,
                    "duration": 0.2113017083333375
                },
                {
                    "name": "G#5",
                    "midi": 80,
                    "time": 76.97419375000082,
                    "velocity": 0.41732283464566927,
                    "duration": 0.2113017083333375
                },
                {
                    "name": "D#5",
                    "midi": 75,
                    "time": 77.15530950000083,
                    "velocity": 0.41732283464566927,
                    "duration": 0.2113017083333375
                },
                {
                    "name": "E5",
                    "midi": 76,
                    "time": 77.33642525000083,
                    "velocity": 0.4094488188976378,
                    "duration": 0.2113017083333375
                },
                {
                    "name": "G#4",
                    "midi": 68,
                    "time": 77.51754100000083,
                    "velocity": 0.4015748031496063,
                    "duration": 0.2113017083333375
                },
                {
                    "name": "E5",
                    "midi": 76,
                    "time": 77.69865675000084,
                    "velocity": 0.4015748031496063,
                    "duration": 0.2113017083333375
                },
                {
                    "name": "C#5",
                    "midi": 73,
                    "time": 77.87977250000084,
                    "velocity": 0.3937007874015748,
                    "duration": 0.2113017083333375
                },
                {
                    "name": "B4",
                    "midi": 71,
                    "time": 78.06088825000084,
                    "velocity": 0.3779527559055118,
                    "duration": 0.18111575000000357
                },
                {
                    "name": "A#4",
                    "midi": 70,
                    "time": 78.24200400000085,
                    "velocity": 0.3700787401574803,
                    "duration": 0.2113017083333375
                },
                {
                    "name": "B4",
                    "midi": 71,
                    "time": 78.42311975000085,
                    "velocity": 0.3779527559055118,
                    "duration": 0.2113017083333375
                },
                {
                    "name": "C#5",
                    "midi": 73,
                    "time": 78.60423550000085,
                    "velocity": 0.3937007874015748,
                    "duration": 0.2113017083333375
                },
                {
                    "name": "D5",
                    "midi": 74,
                    "time": 78.78535125000086,
                    "velocity": 0.4015748031496063,
                    "duration": 0.2113017083333375
                },
                {
                    "name": "D#5",
                    "midi": 75,
                    "time": 78.96646700000086,
                    "velocity": 0.4015748031496063,
                    "duration": 0.2113017083333375
                },
                {
                    "name": "E5",
                    "midi": 76,
                    "time": 79.14758275000086,
                    "velocity": 0.41732283464566927,
                    "duration": 0.2113017083333375
                },
                {
                    "name": "F#5",
                    "midi": 78,
                    "time": 79.32869850000087,
                    "velocity": 0.41732283464566927,
                    "duration": 0.2113017083333375
                },
                {
                    "name": "G5",
                    "midi": 79,
                    "time": 79.50981425000087,
                    "velocity": 0.4251968503937008,
                    "duration": 0.2113017083333375
                },
                {
                    "name": "F5",
                    "midi": 77,
                    "time": 79.69093000000088,
                    "velocity": 0.4330708661417323,
                    "duration": 0.2113017083333375
                },
                {
                    "name": "F#5",
                    "midi": 78,
                    "time": 79.87204575000088,
                    "velocity": 0.4251968503937008,
                    "duration": 0.2113017083333375
                },
                {
                    "name": "D#5",
                    "midi": 75,
                    "time": 80.05316150000088,
                    "velocity": 0.41732283464566927,
                    "duration": 0.2113017083333375
                },
                {
                    "name": "E5",
                    "midi": 76,
                    "time": 80.23427725000089,
                    "velocity": 0.41732283464566927,
                    "duration": 0.2113017083333375
                },
                {
                    "name": "C#5",
                    "midi": 73,
                    "time": 80.41539300000089,
                    "velocity": 0.4094488188976378,
                    "duration": 0.2113017083333375
                },
                {
                    "name": "D5",
                    "midi": 74,
                    "time": 80.5965087500009,
                    "velocity": 0.4015748031496063,
                    "duration": 0.2113017083333375
                },
                {
                    "name": "B4",
                    "midi": 71,
                    "time": 80.7776245000009,
                    "velocity": 0.3937007874015748,
                    "duration": 0.2113017083333375
                },
                {
                    "name": "A4",
                    "midi": 69,
                    "time": 80.9587402500009,
                    "velocity": 0.3858267716535433,
                    "duration": 0.18111575000000357
                },
                {
                    "name": "G#4",
                    "midi": 68,
                    "time": 81.1398560000009,
                    "velocity": 0.3779527559055118,
                    "duration": 0.2113017083333375
                },
                {
                    "name": "A4",
                    "midi": 69,
                    "time": 81.32097175000091,
                    "velocity": 0.3858267716535433,
                    "duration": 0.2113017083333375
                },
                {
                    "name": "B4",
                    "midi": 71,
                    "time": 81.50208750000091,
                    "velocity": 0.3937007874015748,
                    "duration": 0.2113017083333375
                },
                {
                    "name": "C5",
                    "midi": 72,
                    "time": 81.68320325000091,
                    "velocity": 0.4015748031496063,
                    "duration": 0.2113017083333375
                },
                {
                    "name": "C#5",
                    "midi": 73,
                    "time": 81.86431900000092,
                    "velocity": 0.4094488188976378,
                    "duration": 0.2113017083333375
                },
                {
                    "name": "D5",
                    "midi": 74,
                    "time": 82.04543475000092,
                    "velocity": 0.41732283464566927,
                    "duration": 0.2113017083333375
                },
                {
                    "name": "E5",
                    "midi": 76,
                    "time": 82.22655050000093,
                    "velocity": 0.41732283464566927,
                    "duration": 0.2113017083333375
                },
                {
                    "name": "F5",
                    "midi": 77,
                    "time": 82.40766625000093,
                    "velocity": 0.4330708661417323,
                    "duration": 0.2113017083333375
                },
                {
                    "name": "D#5",
                    "midi": 75,
                    "time": 82.58878200000093,
                    "velocity": 0.4409448818897638,
                    "duration": 0.2113017083333375
                },
                {
                    "name": "E5",
                    "midi": 76,
                    "time": 82.76989775000094,
                    "velocity": 0.41732283464566927,
                    "duration": 0.2113017083333375
                },
                {
                    "name": "C#5",
                    "midi": 73,
                    "time": 82.95101350000094,
                    "velocity": 0.4251968503937008,
                    "duration": 0.2113017083333375
                },
                {
                    "name": "D5",
                    "midi": 74,
                    "time": 83.13212925000094,
                    "velocity": 0.4094488188976378,
                    "duration": 0.2113017083333375
                },
                {
                    "name": "B4",
                    "midi": 71,
                    "time": 83.31324500000095,
                    "velocity": 0.41732283464566927,
                    "duration": 0.2113017083333375
                },
                {
                    "name": "C5",
                    "midi": 72,
                    "time": 83.49436075000095,
                    "velocity": 0.4015748031496063,
                    "duration": 0.2113017083333375
                },
                {
                    "name": "B4",
                    "midi": 71,
                    "time": 83.67547650000095,
                    "velocity": 0.4015748031496063,
                    "duration": 0.2113017083333375
                },
                {
                    "name": "A4",
                    "midi": 69,
                    "time": 83.85659225000096,
                    "velocity": 0.3937007874015748,
                    "duration": 0.18111575000000357
                },
                {
                    "name": "G#4",
                    "midi": 68,
                    "time": 84.03770800000096,
                    "velocity": 0.4645669291338583,
                    "duration": 0.2113017083333375
                },
                {
                    "name": "A4",
                    "midi": 69,
                    "time": 84.21882375000096,
                    "velocity": 0.44881889763779526,
                    "duration": 0.2113017083333375
                },
                {
                    "name": "C#5",
                    "midi": 73,
                    "time": 84.39993950000097,
                    "velocity": 0.49606299212598426,
                    "duration": 0.2113017083333375
                },
                {
                    "name": "C5",
                    "midi": 72,
                    "time": 84.58105525000097,
                    "velocity": 0.4566929133858268,
                    "duration": 0.2113017083333375
                },
                {
                    "name": "A#4",
                    "midi": 70,
                    "time": 84.76217100000098,
                    "velocity": 0.48031496062992124,
                    "duration": 0.2113017083333375
                },
                {
                    "name": "A4",
                    "midi": 69,
                    "time": 84.94328675000098,
                    "velocity": 0.4645669291338583,
                    "duration": 0.2113017083333375
                },
                {
                    "name": "F#5",
                    "midi": 78,
                    "time": 85.12440250000098,
                    "velocity": 0.49606299212598426,
                    "duration": 0.2113017083333375
                },
                {
                    "name": "F5",
                    "midi": 77,
                    "time": 85.30551825000099,
                    "velocity": 0.48031496062992124,
                    "duration": 0.2113017083333375
                },
                {
                    "name": "D#5",
                    "midi": 75,
                    "time": 85.48663400000099,
                    "velocity": 0.48031496062992124,
                    "duration": 0.2113017083333375
                },
                {
                    "name": "C#5",
                    "midi": 73,
                    "time": 85.667749750001,
                    "velocity": 0.49606299212598426,
                    "duration": 0.18111575000000357
                },
                {
                    "name": "C6",
                    "midi": 84,
                    "time": 85.848865500001,
                    "velocity": 0.5354330708661418,
                    "duration": 0.2113017083333375
                },
                {
                    "name": "A#5",
                    "midi": 82,
                    "time": 86.029981250001,
                    "velocity": 0.5196850393700787,
                    "duration": 0.2113017083333375
                },
                {
                    "name": "G#5",
                    "midi": 80,
                    "time": 86.211097000001,
                    "velocity": 0.5118110236220472,
                    "duration": 0.2113017083333375
                },
                {
                    "name": "F#5",
                    "midi": 78,
                    "time": 86.39221275000101,
                    "velocity": 0.5039370078740157,
                    "duration": 0.2113017083333375
                },
                {
                    "name": "F5",
                    "midi": 77,
                    "time": 86.57332850000101,
                    "velocity": 0.49606299212598426,
                    "duration": 0.2113017083333375
                },
                {
                    "name": "D#5",
                    "midi": 75,
                    "time": 86.75444425000101,
                    "velocity": 0.49606299212598426,
                    "duration": 0.2113017083333375
                },
                {
                    "name": "C#5",
                    "midi": 73,
                    "time": 86.93556000000102,
                    "velocity": 0.49606299212598426,
                    "duration": 0.2113017083333375
                },
                {
                    "name": "C5",
                    "midi": 72,
                    "time": 87.11667575000102,
                    "velocity": 0.44881889763779526,
                    "duration": 0.18111575000000357
                },
                {
                    "name": "A#5",
                    "midi": 82,
                    "time": 87.29779150000103,
                    "velocity": 0.48031496062992124,
                    "duration": 0.2113017083333375
                },
                {
                    "name": "G#5",
                    "midi": 80,
                    "time": 87.47890725000103,
                    "velocity": 0.47244094488188976,
                    "duration": 0.2113017083333375
                },
                {
                    "name": "F#5",
                    "midi": 78,
                    "time": 87.66002300000103,
                    "velocity": 0.4645669291338583,
                    "duration": 0.2113017083333375
                },
                {
                    "name": "F5",
                    "midi": 77,
                    "time": 87.84113875000104,
                    "velocity": 0.4566929133858268,
                    "duration": 0.2113017083333375
                },
                {
                    "name": "D#5",
                    "midi": 75,
                    "time": 88.02225450000104,
                    "velocity": 0.44881889763779526,
                    "duration": 0.2113017083333375
                },
                {
                    "name": "C#5",
                    "midi": 73,
                    "time": 88.20337025000104,
                    "velocity": 0.48031496062992124,
                    "duration": 0.2113017083333375
                },
                {
                    "name": "C5",
                    "midi": 72,
                    "time": 88.38448600000105,
                    "velocity": 0.48031496062992124,
                    "duration": 0.2113017083333375
                },
                {
                    "name": "A#4",
                    "midi": 70,
                    "time": 88.56560175000105,
                    "velocity": 0.4566929133858268,
                    "duration": 0.18111575000000357
                },
                {
                    "name": "G#5",
                    "midi": 80,
                    "time": 88.74671750000105,
                    "velocity": 0.4881889763779528,
                    "duration": 0.2113017083333375
                },
                {
                    "name": "F#5",
                    "midi": 78,
                    "time": 88.92783325000106,
                    "velocity": 0.48031496062992124,
                    "duration": 0.2113017083333375
                },
                {
                    "name": "F5",
                    "midi": 77,
                    "time": 89.10894900000106,
                    "velocity": 0.47244094488188976,
                    "duration": 0.2113017083333375
                },
                {
                    "name": "D#5",
                    "midi": 75,
                    "time": 89.29006475000106,
                    "velocity": 0.4645669291338583,
                    "duration": 0.2113017083333375
                },
                {
                    "name": "C#5",
                    "midi": 73,
                    "time": 89.47118050000107,
                    "velocity": 0.4566929133858268,
                    "duration": 0.2113017083333375
                },
                {
                    "name": "C5",
                    "midi": 72,
                    "time": 89.65229625000107,
                    "velocity": 0.44881889763779526,
                    "duration": 0.2113017083333375
                },
                {
                    "name": "A#4",
                    "midi": 70,
                    "time": 89.83341200000108,
                    "velocity": 0.5039370078740157,
                    "duration": 0.2113017083333375
                },
                {
                    "name": "A4",
                    "midi": 69,
                    "time": 90.01452775000108,
                    "velocity": 0.4881889763779528,
                    "duration": 0.2113017083333375
                },
                {
                    "name": "G#4",
                    "midi": 68,
                    "time": 90.19564350000108,
                    "velocity": 0.4645669291338583,
                    "duration": 0.2113017083333375
                },
                {
                    "name": "G4",
                    "midi": 67,
                    "time": 90.37675925000109,
                    "velocity": 0.44881889763779526,
                    "duration": 0.18111575000000357
                },
                {
                    "name": "G#4",
                    "midi": 68,
                    "time": 90.55787500000109,
                    "velocity": 0.5039370078740157,
                    "duration": 0.2113017083333375
                },
                {
                    "name": "G4",
                    "midi": 67,
                    "time": 90.7389907500011,
                    "velocity": 0.48031496062992124,
                    "duration": 0.2113017083333375
                },
                {
                    "name": "F#4",
                    "midi": 66,
                    "time": 90.9201065000011,
                    "velocity": 0.4566929133858268,
                    "duration": 0.2113017083333375
                },
                {
                    "name": "F4",
                    "midi": 65,
                    "time": 91.1012222500011,
                    "velocity": 0.4409448818897638,
                    "duration": 0.18111575000000357
                },
                {
                    "name": "G4",
                    "midi": 67,
                    "time": 91.2823380000011,
                    "velocity": 0.49606299212598426,
                    "duration": 0.2113017083333375
                },
                {
                    "name": "F#4",
                    "midi": 66,
                    "time": 91.46345375000111,
                    "velocity": 0.47244094488188976,
                    "duration": 0.2113017083333375
                },
                {
                    "name": "F4",
                    "midi": 65,
                    "time": 91.64456950000111,
                    "velocity": 0.4566929133858268,
                    "duration": 0.2113017083333375
                },
                {
                    "name": "E4",
                    "midi": 64,
                    "time": 91.82568525000111,
                    "velocity": 0.4330708661417323,
                    "duration": 0.18111575000000357
                },
                {
                    "name": "F#4",
                    "midi": 66,
                    "time": 92.00680100000112,
                    "velocity": 0.49606299212598426,
                    "duration": 0.2113017083333375
                },
                {
                    "name": "F4",
                    "midi": 65,
                    "time": 92.18791675000112,
                    "velocity": 0.47244094488188976,
                    "duration": 0.2113017083333375
                },
                {
                    "name": "E4",
                    "midi": 64,
                    "time": 92.36903250000113,
                    "velocity": 0.44881889763779526,
                    "duration": 0.2113017083333375
                },
                {
                    "name": "D#4",
                    "midi": 63,
                    "time": 92.55014825000113,
                    "velocity": 0.4330708661417323,
                    "duration": 0.18111575000000357
                },
                {
                    "name": "F4",
                    "midi": 65,
                    "time": 92.73126400000113,
                    "velocity": 0.5039370078740157,
                    "duration": 0.2113017083333375
                },
                {
                    "name": "E4",
                    "midi": 64,
                    "time": 92.91237975000114,
                    "velocity": 0.4881889763779528,
                    "duration": 0.2113017083333375
                },
                {
                    "name": "D#4",
                    "midi": 63,
                    "time": 93.09349550000114,
                    "velocity": 0.4566929133858268,
                    "duration": 0.2113017083333375
                },
                {
                    "name": "D4",
                    "midi": 62,
                    "time": 93.27461125000114,
                    "velocity": 0.4409448818897638,
                    "duration": 0.18111575000000357
                },
                {
                    "name": "E4",
                    "midi": 64,
                    "time": 93.45572700000115,
                    "velocity": 0.4881889763779528,
                    "duration": 0.2113017083333375
                },
                {
                    "name": "D#4",
                    "midi": 63,
                    "time": 93.63684275000115,
                    "velocity": 0.4645669291338583,
                    "duration": 0.2113017083333375
                },
                {
                    "name": "D4",
                    "midi": 62,
                    "time": 93.81795850000115,
                    "velocity": 0.4409448818897638,
                    "duration": 0.2113017083333375
                },
                {
                    "name": "C#4",
                    "midi": 61,
                    "time": 93.99907425000116,
                    "velocity": 0.41732283464566927,
                    "duration": 0.18111575000000357
                },
                {
                    "name": "D#4",
                    "midi": 63,
                    "time": 94.18019000000116,
                    "velocity": 0.4645669291338583,
                    "duration": 0.2113017083333375
                },
                {
                    "name": "D4",
                    "midi": 62,
                    "time": 94.36130575000116,
                    "velocity": 0.44881889763779526,
                    "duration": 0.2113017083333375
                },
                {
                    "name": "C#4",
                    "midi": 61,
                    "time": 94.54242150000117,
                    "velocity": 0.4251968503937008,
                    "duration": 0.2113017083333375
                },
                {
                    "name": "C4",
                    "midi": 60,
                    "time": 94.72353725000117,
                    "velocity": 0.4015748031496063,
                    "duration": 0.18111575000000357
                },
                {
                    "name": "D#4",
                    "midi": 63,
                    "time": 94.90465300000118,
                    "velocity": 0.4566929133858268,
                    "duration": 0.2113017083333375
                },
                {
                    "name": "C#4",
                    "midi": 61,
                    "time": 95.08576875000118,
                    "velocity": 0.4330708661417323,
                    "duration": 0.2113017083333375
                },
                {
                    "name": "C4",
                    "midi": 60,
                    "time": 95.26688450000118,
                    "velocity": 0.4094488188976378,
                    "duration": 0.2113017083333375
                },
                {
                    "name": "A#3",
                    "midi": 58,
                    "time": 95.44800025000119,
                    "velocity": 0.3937007874015748,
                    "duration": 0.18111575000000357
                },
                {
                    "name": "A3",
                    "midi": 57,
                    "time": 95.62911600000119,
                    "velocity": 0.31496062992125984,
                    "duration": 0.2113017083333375
                },
                {
                    "name": "A#3",
                    "midi": 58,
                    "time": 95.8102317500012,
                    "velocity": 0.33070866141732286,
                    "duration": 0.2113017083333375
                },
                {
                    "name": "C4",
                    "midi": 60,
                    "time": 95.9913475000012,
                    "velocity": 0.33070866141732286,
                    "duration": 0.2113017083333375
                },
                {
                    "name": "C#4",
                    "midi": 61,
                    "time": 96.1724632500012,
                    "velocity": 0.3464566929133858,
                    "duration": 0.2113017083333375
                },
                {
                    "name": "D#4",
                    "midi": 63,
                    "time": 96.3535790000012,
                    "velocity": 0.3543307086614173,
                    "duration": 0.2113017083333375
                },
                {
                    "name": "E4",
                    "midi": 64,
                    "time": 96.53469475000121,
                    "velocity": 0.36220472440944884,
                    "duration": 0.2113017083333375
                },
                {
                    "name": "F4",
                    "midi": 65,
                    "time": 96.71581050000121,
                    "velocity": 0.3700787401574803,
                    "duration": 0.2113017083333375
                },
                {
                    "name": "F#4",
                    "midi": 66,
                    "time": 96.89692625000121,
                    "velocity": 0.3779527559055118,
                    "duration": 0.2113017083333375
                },
                {
                    "name": "E4",
                    "midi": 64,
                    "time": 97.07804200000122,
                    "velocity": 0.4015748031496063,
                    "duration": 0.2113017083333375
                },
                {
                    "name": "F4",
                    "midi": 65,
                    "time": 97.25915775000122,
                    "velocity": 0.3858267716535433,
                    "duration": 0.2113017083333375
                },
                {
                    "name": "D4",
                    "midi": 62,
                    "time": 97.44027350000123,
                    "velocity": 0.3700787401574803,
                    "duration": 0.2113017083333375
                },
                {
                    "name": "D#4",
                    "midi": 63,
                    "time": 97.62138925000123,
                    "velocity": 0.36220472440944884,
                    "duration": 0.2113017083333375
                },
                {
                    "name": "C4",
                    "midi": 60,
                    "time": 97.80250500000123,
                    "velocity": 0.3543307086614173,
                    "duration": 0.2113017083333375
                },
                {
                    "name": "C#4",
                    "midi": 61,
                    "time": 97.98362075000124,
                    "velocity": 0.3464566929133858,
                    "duration": 0.2113017083333375
                },
                {
                    "name": "C4",
                    "midi": 60,
                    "time": 98.16473650000124,
                    "velocity": 0.33858267716535434,
                    "duration": 0.2113017083333375
                },
                {
                    "name": "A#3",
                    "midi": 58,
                    "time": 98.34585225000124,
                    "velocity": 0.3228346456692913,
                    "duration": 0.18111575000000357
                },
                {
                    "name": "A3",
                    "midi": 57,
                    "time": 98.52696800000125,
                    "velocity": 0.30708661417322836,
                    "duration": 0.2113017083333375
                },
                {
                    "name": "A#3",
                    "midi": 58,
                    "time": 98.70808375000125,
                    "velocity": 0.3228346456692913,
                    "duration": 0.2113017083333375
                },
                {
                    "name": "C4",
                    "midi": 60,
                    "time": 98.88919950000125,
                    "velocity": 0.33070866141732286,
                    "duration": 0.2113017083333375
                },
                {
                    "name": "C#4",
                    "midi": 61,
                    "time": 99.07031525000126,
                    "velocity": 0.3464566929133858,
                    "duration": 0.2113017083333375
                },
                {
                    "name": "D#4",
                    "midi": 63,
                    "time": 99.25143100000126,
                    "velocity": 0.3543307086614173,
                    "duration": 0.2113017083333375
                },
                {
                    "name": "E4",
                    "midi": 64,
                    "time": 99.43254675000126,
                    "velocity": 0.3700787401574803,
                    "duration": 0.2113017083333375
                },
                {
                    "name": "F4",
                    "midi": 65,
                    "time": 99.61366250000127,
                    "velocity": 0.3858267716535433,
                    "duration": 0.2113017083333375
                },
                {
                    "name": "F#4",
                    "midi": 66,
                    "time": 99.79477825000127,
                    "velocity": 0.4015748031496063,
                    "duration": 0.2113017083333375
                },
                {
                    "name": "E4",
                    "midi": 64,
                    "time": 99.97589400000128,
                    "velocity": 0.4015748031496063,
                    "duration": 0.2113017083333375
                },
                {
                    "name": "F4",
                    "midi": 65,
                    "time": 100.15700975000128,
                    "velocity": 0.3937007874015748,
                    "duration": 0.2113017083333375
                },
                {
                    "name": "D4",
                    "midi": 62,
                    "time": 100.33812550000128,
                    "velocity": 0.3779527559055118,
                    "duration": 0.2113017083333375
                },
                {
                    "name": "D#4",
                    "midi": 63,
                    "time": 100.51924125000129,
                    "velocity": 0.3779527559055118,
                    "duration": 0.2113017083333375
                },
                {
                    "name": "C4",
                    "midi": 60,
                    "time": 100.70035700000129,
                    "velocity": 0.36220472440944884,
                    "duration": 0.2113017083333375
                },
                {
                    "name": "C#4",
                    "midi": 61,
                    "time": 100.8814727500013,
                    "velocity": 0.3543307086614173,
                    "duration": 0.2113017083333375
                },
                {
                    "name": "C4",
                    "midi": 60,
                    "time": 101.0625885000013,
                    "velocity": 0.3543307086614173,
                    "duration": 0.2113017083333375
                },
                {
                    "name": "A#3",
                    "midi": 58,
                    "time": 101.2437042500013,
                    "velocity": 0.33858267716535434,
                    "duration": 0.18111575000000357
                },
                {
                    "name": "C4",
                    "midi": 60,
                    "time": 101.4248200000013,
                    "velocity": 0.30708661417322836,
                    "duration": 0.2113017083333375
                },
                {
                    "name": "C#4",
                    "midi": 61,
                    "time": 101.60593575000131,
                    "velocity": 0.3228346456692913,
                    "duration": 0.2113017083333375
                },
                {
                    "name": "D#4",
                    "midi": 63,
                    "time": 101.78705150000131,
                    "velocity": 0.33070866141732286,
                    "duration": 0.2113017083333375
                },
                {
                    "name": "F4",
                    "midi": 65,
                    "time": 101.96816725000131,
                    "velocity": 0.3464566929133858,
                    "duration": 0.2113017083333375
                },
                {
                    "name": "F#4",
                    "midi": 66,
                    "time": 102.14928300000132,
                    "velocity": 0.3543307086614173,
                    "duration": 0.2113017083333375
                },
                {
                    "name": "C5",
                    "midi": 72,
                    "time": 102.33039875000132,
                    "velocity": 0.3700787401574803,
                    "duration": 0.2113017083333375
                },
                {
                    "name": "A#4",
                    "midi": 70,
                    "time": 102.51151450000133,
                    "velocity": 0.3543307086614173,
                    "duration": 0.2113017083333375
                },
                {
                    "name": "C4",
                    "midi": 60,
                    "time": 102.69263025000133,
                    "velocity": 0.3700787401574803,
                    "duration": 0.2113017083333375
                },
                {
                    "name": "A#3",
                    "midi": 58,
                    "time": 102.87374600000133,
                    "velocity": 0.30708661417322836,
                    "duration": 0.2113017083333375
                },
                {
                    "name": "C4",
                    "midi": 60,
                    "time": 103.05486175000134,
                    "velocity": 0.3228346456692913,
                    "duration": 0.2113017083333375
                },
                {
                    "name": "C#4",
                    "midi": 61,
                    "time": 103.23597750000134,
                    "velocity": 0.33858267716535434,
                    "duration": 0.2113017083333375
                },
                {
                    "name": "D#4",
                    "midi": 63,
                    "time": 103.41709325000134,
                    "velocity": 0.3543307086614173,
                    "duration": 0.2113017083333375
                },
                {
                    "name": "F4",
                    "midi": 65,
                    "time": 103.59820900000135,
                    "velocity": 0.3700787401574803,
                    "duration": 0.2113017083333375
                },
                {
                    "name": "C5",
                    "midi": 72,
                    "time": 103.77932475000135,
                    "velocity": 0.3858267716535433,
                    "duration": 0.2113017083333375
                },
                {
                    "name": "A#4",
                    "midi": 70,
                    "time": 103.96044050000135,
                    "velocity": 0.3700787401574803,
                    "duration": 0.2113017083333375
                },
                {
                    "name": "F#4",
                    "midi": 66,
                    "time": 104.14155625000136,
                    "velocity": 0.3779527559055118,
                    "duration": 0.18111575000000357
                },
                {
                    "name": "E4",
                    "midi": 64,
                    "time": 104.32267200000136,
                    "velocity": 0.30708661417322836,
                    "duration": 0.2113017083333375
                },
                {
                    "name": "F4",
                    "midi": 65,
                    "time": 104.50378775000136,
                    "velocity": 0.3228346456692913,
                    "duration": 0.2113017083333375
                },
                {
                    "name": "F#4",
                    "midi": 66,
                    "time": 104.68490350000137,
                    "velocity": 0.33070866141732286,
                    "duration": 0.2113017083333375
                },
                {
                    "name": "F4",
                    "midi": 65,
                    "time": 104.86601925000137,
                    "velocity": 0.3464566929133858,
                    "duration": 0.2113017083333375
                },
                {
                    "name": "A#4",
                    "midi": 70,
                    "time": 105.04713500000138,
                    "velocity": 0.3700787401574803,
                    "duration": 0.2113017083333375
                },
                {
                    "name": "A4",
                    "midi": 69,
                    "time": 105.22825075000138,
                    "velocity": 0.3543307086614173,
                    "duration": 0.2113017083333375
                },
                {
                    "name": "F#5",
                    "midi": 78,
                    "time": 105.40936650000138,
                    "velocity": 0.4251968503937008,
                    "duration": 0.2113017083333375
                },
                {
                    "name": "F5",
                    "midi": 77,
                    "time": 105.59048225000139,
                    "velocity": 0.4094488188976378,
                    "duration": 0.2113017083333375
                },
                {
                    "name": "D#5",
                    "midi": 75,
                    "time": 105.77159800000139,
                    "velocity": 0.4409448818897638,
                    "duration": 0.2113017083333375
                },
                {
                    "name": "C#5",
                    "midi": 73,
                    "time": 105.9527137500014,
                    "velocity": 0.41732283464566927,
                    "duration": 0.2113017083333375
                },
                {
                    "name": "A#4",
                    "midi": 70,
                    "time": 106.1338295000014,
                    "velocity": 0.4015748031496063,
                    "duration": 0.2113017083333375
                },
                {
                    "name": "F4",
                    "midi": 65,
                    "time": 106.3149452500014,
                    "velocity": 0.3700787401574803,
                    "duration": 0.2113017083333375
                },
                {
                    "name": "D#4",
                    "midi": 63,
                    "time": 106.4960610000014,
                    "velocity": 0.3700787401574803,
                    "duration": 0.2113017083333375
                },
                {
                    "name": "C#4",
                    "midi": 61,
                    "time": 106.67717675000141,
                    "velocity": 0.3543307086614173,
                    "duration": 0.2113017083333375
                },
                {
                    "name": "A#3",
                    "midi": 58,
                    "time": 106.85829250000141,
                    "velocity": 0.3464566929133858,
                    "duration": 0.2113017083333375
                },
                {
                    "name": "F3",
                    "midi": 53,
                    "time": 107.03940825000142,
                    "velocity": 0.33070866141732286,
                    "duration": 0.18111575000000357
                },
                {
                    "name": "A3",
                    "midi": 57,
                    "time": 107.22052400000142,
                    "velocity": 0.31496062992125984,
                    "duration": 0.2113017083333375
                },
                {
                    "name": "A#3",
                    "midi": 58,
                    "time": 107.40163975000142,
                    "velocity": 0.33070866141732286,
                    "duration": 0.2113017083333375
                },
                {
                    "name": "C4",
                    "midi": 60,
                    "time": 107.58275550000143,
                    "velocity": 0.33070866141732286,
                    "duration": 0.2113017083333375
                },
                {
                    "name": "C#4",
                    "midi": 61,
                    "time": 107.76387125000143,
                    "velocity": 0.3464566929133858,
                    "duration": 0.2113017083333375
                },
                {
                    "name": "D#4",
                    "midi": 63,
                    "time": 107.94498700000143,
                    "velocity": 0.3543307086614173,
                    "duration": 0.2113017083333375
                },
                {
                    "name": "E4",
                    "midi": 64,
                    "time": 108.12610275000144,
                    "velocity": 0.36220472440944884,
                    "duration": 0.2113017083333375
                },
                {
                    "name": "F4",
                    "midi": 65,
                    "time": 108.30721850000144,
                    "velocity": 0.3700787401574803,
                    "duration": 0.2113017083333375
                },
                {
                    "name": "F#4",
                    "midi": 66,
                    "time": 108.48833425000144,
                    "velocity": 0.3779527559055118,
                    "duration": 0.2113017083333375
                },
                {
                    "name": "E4",
                    "midi": 64,
                    "time": 108.66945000000145,
                    "velocity": 0.4015748031496063,
                    "duration": 0.2113017083333375
                },
                {
                    "name": "F4",
                    "midi": 65,
                    "time": 108.85056575000145,
                    "velocity": 0.3858267716535433,
                    "duration": 0.2113017083333375
                },
                {
                    "name": "D4",
                    "midi": 62,
                    "time": 109.03168150000145,
                    "velocity": 0.3700787401574803,
                    "duration": 0.2113017083333375
                },
                {
                    "name": "D#4",
                    "midi": 63,
                    "time": 109.21279725000146,
                    "velocity": 0.36220472440944884,
                    "duration": 0.2113017083333375
                },
                {
                    "name": "C4",
                    "midi": 60,
                    "time": 109.39391300000146,
                    "velocity": 0.3543307086614173,
                    "duration": 0.2113017083333375
                },
                {
                    "name": "C#4",
                    "midi": 61,
                    "time": 109.57502875000147,
                    "velocity": 0.3464566929133858,
                    "duration": 0.2113017083333375
                },
                {
                    "name": "C4",
                    "midi": 60,
                    "time": 109.75614450000147,
                    "velocity": 0.33858267716535434,
                    "duration": 0.2113017083333375
                },
                {
                    "name": "A#3",
                    "midi": 58,
                    "time": 109.93726025000147,
                    "velocity": 0.3228346456692913,
                    "duration": 0.18111575000000357
                },
                {
                    "name": "A3",
                    "midi": 57,
                    "time": 110.11837600000148,
                    "velocity": 0.3700787401574803,
                    "duration": 0.2113017083333375
                },
                {
                    "name": "A#3",
                    "midi": 58,
                    "time": 110.29949175000148,
                    "velocity": 0.3858267716535433,
                    "duration": 0.2113017083333375
                },
                {
                    "name": "C4",
                    "midi": 60,
                    "time": 110.48060750000148,
                    "velocity": 0.3937007874015748,
                    "duration": 0.2113017083333375
                },
                {
                    "name": "C#4",
                    "midi": 61,
                    "time": 110.66172325000149,
                    "velocity": 0.4094488188976378,
                    "duration": 0.2113017083333375
                },
                {
                    "name": "D#4",
                    "midi": 63,
                    "time": 110.84283900000149,
                    "velocity": 0.4251968503937008,
                    "duration": 0.2113017083333375
                },
                {
                    "name": "E4",
                    "midi": 64,
                    "time": 111.0239547500015,
                    "velocity": 0.4409448818897638,
                    "duration": 0.2113017083333375
                },
                {
                    "name": "F4",
                    "midi": 65,
                    "time": 111.2050705000015,
                    "velocity": 0.4566929133858268,
                    "duration": 0.2113017083333375
                },
                {
                    "name": "F#4",
                    "midi": 66,
                    "time": 111.3861862500015,
                    "velocity": 0.47244094488188976,
                    "duration": 0.2113017083333375
                },
                {
                    "name": "E4",
                    "midi": 64,
                    "time": 111.5673020000015,
                    "velocity": 0.47244094488188976,
                    "duration": 0.2113017083333375
                },
                {
                    "name": "F4",
                    "midi": 65,
                    "time": 111.74841775000151,
                    "velocity": 0.4645669291338583,
                    "duration": 0.2113017083333375
                },
                {
                    "name": "D4",
                    "midi": 62,
                    "time": 111.92953350000151,
                    "velocity": 0.44881889763779526,
                    "duration": 0.2113017083333375
                },
                {
                    "name": "D#4",
                    "midi": 63,
                    "time": 112.11064925000152,
                    "velocity": 0.44881889763779526,
                    "duration": 0.2113017083333375
                },
                {
                    "name": "C4",
                    "midi": 60,
                    "time": 112.29176500000152,
                    "velocity": 0.4330708661417323,
                    "duration": 0.2113017083333375
                },
                {
                    "name": "C#4",
                    "midi": 61,
                    "time": 112.47288075000152,
                    "velocity": 0.41732283464566927,
                    "duration": 0.2113017083333375
                },
                {
                    "name": "C4",
                    "midi": 60,
                    "time": 112.65399650000153,
                    "velocity": 0.41732283464566927,
                    "duration": 0.2113017083333375
                },
                {
                    "name": "A#3",
                    "midi": 58,
                    "time": 112.83511225000153,
                    "velocity": 0.4015748031496063,
                    "duration": 0.18111575000000357
                },
                {
                    "name": "B3",
                    "midi": 59,
                    "time": 113.01622800000153,
                    "velocity": 0.4094488188976378,
                    "duration": 0.2113017083333375
                },
                {
                    "name": "C#4",
                    "midi": 61,
                    "time": 113.19734375000154,
                    "velocity": 0.41732283464566927,
                    "duration": 0.2113017083333375
                },
                {
                    "name": "D#4",
                    "midi": 63,
                    "time": 113.37845950000154,
                    "velocity": 0.4330708661417323,
                    "duration": 0.2113017083333375
                },
                {
                    "name": "E4",
                    "midi": 64,
                    "time": 113.55957525000154,
                    "velocity": 0.4409448818897638,
                    "duration": 0.2113017083333375
                },
                {
                    "name": "F#4",
                    "midi": 66,
                    "time": 113.74069100000155,
                    "velocity": 0.4566929133858268,
                    "duration": 0.2113017083333375
                },
                {
                    "name": "G#4",
                    "midi": 68,
                    "time": 113.92180675000155,
                    "velocity": 0.47244094488188976,
                    "duration": 0.2113017083333375
                },
                {
                    "name": "A#4",
                    "midi": 70,
                    "time": 114.10292250000155,
                    "velocity": 0.4881889763779528,
                    "duration": 0.2113017083333375
                },
                {
                    "name": "B4",
                    "midi": 71,
                    "time": 114.28403825000156,
                    "velocity": 0.49606299212598426,
                    "duration": 0.2113017083333375
                },
                {
                    "name": "C#5",
                    "midi": 73,
                    "time": 114.46515400000156,
                    "velocity": 0.5196850393700787,
                    "duration": 0.2113017083333375
                },
                {
                    "name": "D#5",
                    "midi": 75,
                    "time": 114.64626975000157,
                    "velocity": 0.5354330708661418,
                    "duration": 0.2113017083333375
                },
                {
                    "name": "E5",
                    "midi": 76,
                    "time": 114.82738550000157,
                    "velocity": 0.5511811023622047,
                    "duration": 0.2113017083333375
                },
                {
                    "name": "F#5",
                    "midi": 78,
                    "time": 115.00850125000157,
                    "velocity": 0.5669291338582677,
                    "duration": 0.2113017083333375
                },
                {
                    "name": "G#5",
                    "midi": 80,
                    "time": 115.18961700000158,
                    "velocity": 0.5748031496062992,
                    "duration": 0.2113017083333375
                },
                {
                    "name": "A#5",
                    "midi": 82,
                    "time": 115.37073275000158,
                    "velocity": 0.5984251968503937,
                    "duration": 0.2113017083333375
                },
                {
                    "name": "B5",
                    "midi": 83,
                    "time": 115.55184850000158,
                    "velocity": 0.6062992125984252,
                    "duration": 0.2113017083333375
                },
                {
                    "name": "C#6",
                    "midi": 85,
                    "time": 115.73296425000159,
                    "velocity": 0.6299212598425197,
                    "duration": 0.2113017083333375
                },
                {
                    "name": "E6",
                    "midi": 88,
                    "time": 115.91408000000159,
                    "velocity": 0.6377952755905512,
                    "duration": 0.2113017083333375
                },
                {
                    "name": "D#6",
                    "midi": 87,
                    "time": 116.0951957500016,
                    "velocity": 0.6141732283464567,
                    "duration": 0.2113017083333375
                },
                {
                    "name": "B5",
                    "midi": 83,
                    "time": 116.2763115000016,
                    "velocity": 0.6141732283464567,
                    "duration": 0.2113017083333375
                },
                {
                    "name": "G#5",
                    "midi": 80,
                    "time": 116.4574272500016,
                    "velocity": 0.6062992125984252,
                    "duration": 0.2113017083333375
                },
                {
                    "name": "F#5",
                    "midi": 78,
                    "time": 116.6385430000016,
                    "velocity": 0.5826771653543307,
                    "duration": 0.2113017083333375
                },
                {
                    "name": "D#5",
                    "midi": 75,
                    "time": 116.81965875000161,
                    "velocity": 0.5669291338582677,
                    "duration": 0.2113017083333375
                },
                {
                    "name": "B4",
                    "midi": 71,
                    "time": 117.00077450000161,
                    "velocity": 0.5669291338582677,
                    "duration": 0.2113017083333375
                },
                {
                    "name": "G#4",
                    "midi": 68,
                    "time": 117.18189025000162,
                    "velocity": 0.5511811023622047,
                    "duration": 0.2113017083333375
                },
                {
                    "name": "F#4",
                    "midi": 66,
                    "time": 117.36300600000162,
                    "velocity": 0.5354330708661418,
                    "duration": 0.2113017083333375
                },
                {
                    "name": "D#4",
                    "midi": 63,
                    "time": 117.54412175000162,
                    "velocity": 0.5039370078740157,
                    "duration": 0.2113017083333375
                },
                {
                    "name": "B3",
                    "midi": 59,
                    "time": 117.72523750000163,
                    "velocity": 0.48031496062992124,
                    "duration": 0.2113017083333375
                },
                {
                    "name": "G#3",
                    "midi": 56,
                    "time": 117.90635325000163,
                    "velocity": 0.48031496062992124,
                    "duration": 0.2113017083333375
                },
                {
                    "name": "F#3",
                    "midi": 54,
                    "time": 118.08746900000163,
                    "velocity": 0.4645669291338583,
                    "duration": 0.2113017083333375
                },
                {
                    "name": "D#3",
                    "midi": 51,
                    "time": 118.26858475000164,
                    "velocity": 0.4645669291338583,
                    "duration": 0.2113017083333375
                },
                {
                    "name": "B2",
                    "midi": 47,
                    "time": 118.44970050000164,
                    "velocity": 0.44881889763779526,
                    "duration": 0.2113017083333375
                },
                {
                    "name": "G#2",
                    "midi": 44,
                    "time": 118.63081625000164,
                    "velocity": 0.4409448818897638,
                    "duration": 0.18111575000000357
                },
                {
                    "name": "E2",
                    "midi": 40,
                    "time": 118.81193200000165,
                    "velocity": 0.4881889763779528,
                    "duration": 0.2113017083333375
                },
                {
                    "name": "F2",
                    "midi": 41,
                    "time": 118.99304775000165,
                    "velocity": 0.49606299212598426,
                    "duration": 0.2113017083333375
                },
                {
                    "name": "A#2",
                    "midi": 46,
                    "time": 119.17416350000165,
                    "velocity": 0.5039370078740157,
                    "duration": 0.2113017083333375
                },
                {
                    "name": "A2",
                    "midi": 45,
                    "time": 119.35527925000166,
                    "velocity": 0.5039370078740157,
                    "duration": 0.2113017083333375
                },
                {
                    "name": "F#2",
                    "midi": 42,
                    "time": 119.53639500000166,
                    "velocity": 0.5118110236220472,
                    "duration": 0.2113017083333375
                },
                {
                    "name": "F2",
                    "midi": 41,
                    "time": 119.71751075000167,
                    "velocity": 0.5118110236220472,
                    "duration": 0.2113017083333375
                },
                {
                    "name": "C#3",
                    "midi": 49,
                    "time": 119.89862650000167,
                    "velocity": 0.5118110236220472,
                    "duration": 0.2113017083333375
                },
                {
                    "name": "C3",
                    "midi": 48,
                    "time": 120.07974225000167,
                    "velocity": 0.5118110236220472,
                    "duration": 0.2113017083333375
                },
                {
                    "name": "A#2",
                    "midi": 46,
                    "time": 120.26085800000168,
                    "velocity": 0.5275590551181102,
                    "duration": 0.2113017083333375
                },
                {
                    "name": "A2",
                    "midi": 45,
                    "time": 120.44197375000168,
                    "velocity": 0.5275590551181102,
                    "duration": 0.2113017083333375
                },
                {
                    "name": "F#3",
                    "midi": 54,
                    "time": 120.62308950000168,
                    "velocity": 0.5433070866141733,
                    "duration": 0.2113017083333375
                },
                {
                    "name": "F3",
                    "midi": 53,
                    "time": 120.80420525000169,
                    "velocity": 0.5511811023622047,
                    "duration": 0.2113017083333375
                },
                {
                    "name": "C#3",
                    "midi": 49,
                    "time": 120.98532100000169,
                    "velocity": 0.5511811023622047,
                    "duration": 0.2113017083333375
                },
                {
                    "name": "C3",
                    "midi": 48,
                    "time": 121.1664367500017,
                    "velocity": 0.5511811023622047,
                    "duration": 0.2113017083333375
                },
                {
                    "name": "A#3",
                    "midi": 58,
                    "time": 121.3475525000017,
                    "velocity": 0.5590551181102362,
                    "duration": 0.2113017083333375
                },
                {
                    "name": "A3",
                    "midi": 57,
                    "time": 121.5286682500017,
                    "velocity": 0.5590551181102362,
                    "duration": 0.2113017083333375
                },
                {
                    "name": "F#3",
                    "midi": 54,
                    "time": 121.7097840000017,
                    "velocity": 0.5590551181102362,
                    "duration": 0.2113017083333375
                },
                {
                    "name": "F3",
                    "midi": 53,
                    "time": 121.89089975000171,
                    "velocity": 0.5669291338582677,
                    "duration": 0.2113017083333375
                },
                {
                    "name": "C#4",
                    "midi": 61,
                    "time": 122.07201550000171,
                    "velocity": 0.5669291338582677,
                    "duration": 0.2113017083333375
                },
                {
                    "name": "C4",
                    "midi": 60,
                    "time": 122.25313125000172,
                    "velocity": 0.5669291338582677,
                    "duration": 0.2113017083333375
                },
                {
                    "name": "A#3",
                    "midi": 58,
                    "time": 122.43424700000172,
                    "velocity": 0.5748031496062992,
                    "duration": 0.2113017083333375
                },
                {
                    "name": "A3",
                    "midi": 57,
                    "time": 122.61536275000172,
                    "velocity": 0.5748031496062992,
                    "duration": 0.2113017083333375
                },
                {
                    "name": "F#4",
                    "midi": 66,
                    "time": 122.79647850000173,
                    "velocity": 0.5748031496062992,
                    "duration": 0.2113017083333375
                },
                {
                    "name": "F4",
                    "midi": 65,
                    "time": 122.97759425000173,
                    "velocity": 0.5826771653543307,
                    "duration": 0.2113017083333375
                },
                {
                    "name": "C#4",
                    "midi": 61,
                    "time": 123.15871000000173,
                    "velocity": 0.5826771653543307,
                    "duration": 0.2113017083333375
                },
                {
                    "name": "C4",
                    "midi": 60,
                    "time": 123.33982575000174,
                    "velocity": 0.5905511811023622,
                    "duration": 0.2113017083333375
                },
                {
                    "name": "A#4",
                    "midi": 70,
                    "time": 123.52094150000174,
                    "velocity": 0.5905511811023622,
                    "duration": 0.2113017083333375
                },
                {
                    "name": "A4",
                    "midi": 69,
                    "time": 123.70205725000174,
                    "velocity": 0.5905511811023622,
                    "duration": 0.2113017083333375
                },
                {
                    "name": "F#4",
                    "midi": 66,
                    "time": 123.88317300000175,
                    "velocity": 0.5984251968503937,
                    "duration": 0.2113017083333375
                },
                {
                    "name": "F4",
                    "midi": 65,
                    "time": 124.06428875000175,
                    "velocity": 0.5984251968503937,
                    "duration": 0.2113017083333375
                },
                {
                    "name": "C#5",
                    "midi": 73,
                    "time": 124.24540450000175,
                    "velocity": 0.5984251968503937,
                    "duration": 0.2113017083333375
                },
                {
                    "name": "C5",
                    "midi": 72,
                    "time": 124.42652025000176,
                    "velocity": 0.6062992125984252,
                    "duration": 0.18111575000000357
                },
                {
                    "name": "A#4",
                    "midi": 70,
                    "time": 124.60763600000176,
                    "velocity": 0.6062992125984252,
                    "duration": 0.2113017083333375
                },
                {
                    "name": "A4",
                    "midi": 69,
                    "time": 124.78875175000177,
                    "velocity": 0.6062992125984252,
                    "duration": 0.2113017083333375
                },
                {
                    "name": "F#5",
                    "midi": 78,
                    "time": 124.96986750000177,
                    "velocity": 0.6141732283464567,
                    "duration": 0.2113017083333375
                },
                {
                    "name": "F5",
                    "midi": 77,
                    "time": 125.15098325000177,
                    "velocity": 0.6141732283464567,
                    "duration": 0.2113017083333375
                },
                {
                    "name": "C#5",
                    "midi": 73,
                    "time": 125.33209900000178,
                    "velocity": 0.6220472440944882,
                    "duration": 0.2113017083333375
                },
                {
                    "name": "C5",
                    "midi": 72,
                    "time": 125.51321475000178,
                    "velocity": 0.6220472440944882,
                    "duration": 0.2113017083333375
                },
                {
                    "name": "A#5",
                    "midi": 82,
                    "time": 125.69433050000178,
                    "velocity": 0.6220472440944882,
                    "duration": 0.2113017083333375
                },
                {
                    "name": "A5",
                    "midi": 81,
                    "time": 125.87544625000179,
                    "velocity": 0.6299212598425197,
                    "duration": 0.2113017083333375
                },
                {
                    "name": "F#5",
                    "midi": 78,
                    "time": 126.05656200000179,
                    "velocity": 0.6299212598425197,
                    "duration": 0.2113017083333375
                },
                {
                    "name": "F5",
                    "midi": 77,
                    "time": 126.2376777500018,
                    "velocity": 0.6299212598425197,
                    "duration": 0.2113017083333375
                },
                {
                    "name": "C#6",
                    "midi": 85,
                    "time": 126.4187935000018,
                    "velocity": 0.6377952755905512,
                    "duration": 0.2113017083333375
                },
                {
                    "name": "C6",
                    "midi": 84,
                    "time": 126.5999092500018,
                    "velocity": 0.6377952755905512,
                    "duration": 0.2113017083333375
                },
                {
                    "name": "A#5",
                    "midi": 82,
                    "time": 126.7810250000018,
                    "velocity": 0.6377952755905512,
                    "duration": 0.2113017083333375
                },
                {
                    "name": "A5",
                    "midi": 81,
                    "time": 126.96214075000181,
                    "velocity": 0.6456692913385826,
                    "duration": 0.2113017083333375
                },
                {
                    "name": "F#6",
                    "midi": 90,
                    "time": 127.14325650000181,
                    "velocity": 0.6456692913385826,
                    "duration": 0.2113017083333375
                },
                {
                    "name": "F6",
                    "midi": 89,
                    "time": 127.32437225000182,
                    "velocity": 0.6456692913385826,
                    "duration": 0.2113017083333375
                },
                {
                    "name": "C#6",
                    "midi": 85,
                    "time": 127.50548800000182,
                    "velocity": 0.6535433070866141,
                    "duration": 0.2113017083333375
                },
                {
                    "name": "C6",
                    "midi": 84,
                    "time": 127.68660375000182,
                    "velocity": 0.6535433070866141,
                    "duration": 0.2113017083333375
                },
                {
                    "name": "A#6",
                    "midi": 94,
                    "time": 127.86771950000183,
                    "velocity": 0.6614173228346457,
                    "duration": 0.2113017083333233
                },
                {
                    "name": "A6",
                    "midi": 93,
                    "time": 128.04883525000182,
                    "velocity": 0.6614173228346457,
                    "duration": 0.2113017083333375
                },
                {
                    "name": "F#6",
                    "midi": 90,
                    "time": 128.22995100000182,
                    "velocity": 0.6614173228346457,
                    "duration": 0.2113017083333375
                },
                {
                    "name": "F6",
                    "midi": 89,
                    "time": 128.41106675000182,
                    "velocity": 0.6692913385826772,
                    "duration": 0.2113017083333375
                },
                {
                    "name": "C#7",
                    "midi": 97,
                    "time": 128.59218250000183,
                    "velocity": 0.6692913385826772,
                    "duration": 0.2113017083333375
                },
                {
                    "name": "C7",
                    "midi": 96,
                    "time": 128.77329825000183,
                    "velocity": 0.6692913385826772,
                    "duration": 0.2113017083333375
                },
                {
                    "name": "F7",
                    "midi": 101,
                    "time": 128.95441400000183,
                    "velocity": 0.7322834645669292,
                    "duration": 0.2113017083333375
                },
                {
                    "name": "D#4",
                    "midi": 63,
                    "time": 129.67887700000185,
                    "velocity": 0.6692913385826772,
                    "duration": 0.18111575000000357
                },
                {
                    "name": "A4",
                    "midi": 69,
                    "time": 129.67887700000185,
                    "velocity": 0.6692913385826772,
                    "duration": 0.18111575000000357
                },
                {
                    "name": "F5",
                    "midi": 77,
                    "time": 129.67887700000185,
                    "velocity": 0.7874015748031497,
                    "duration": 0.18111575000000357
                },
                {
                    "name": "A#5",
                    "midi": 82,
                    "time": 130.40334000000186,
                    "velocity": 0.889763779527559,
                    "duration": 0.7244629999999859
                },
                {
                    "name": "A#4",
                    "midi": 70,
                    "time": 130.40334000000186,
                    "velocity": 0.7874015748031497,
                    "duration": 0.7244629999999859
                }
            ],
            "controlChanges": {
                "7": [
                    {
                        "number": 7,
                        "time": 0,
                        "value": 0.7874015748031497
                    }
                ],
                "10": [
                    {
                        "number": 10,
                        "time": 0,
                        "value": 0.5039370078740157
                    }
                ]
            },
            "id": 1,
            "name": "Piano right",
            "instrumentNumber": 0,
            "instrument": "acoustic grand piano",
            "instrumentFamily": "piano",
            "channelNumber": 0,
            "isPercussion": false
        },
        {
            "startTime": 0.18111575,
            "duration": 131.127803,
            "length": 479,
            "notes": [
                {
                    "name": "F1",
                    "midi": 29,
                    "time": 0.18111575,
                    "velocity": 0.5511811023622047,
                    "duration": 0.3018595833333333
                },
                {
                    "name": "F2",
                    "midi": 41,
                    "time": 0.18111575,
                    "velocity": 0.6614173228346457,
                    "duration": 0.3018595833333333
                },
                {
                    "name": "C3",
                    "midi": 48,
                    "time": 0.4829753333333333,
                    "velocity": 0.3700787401574803,
                    "duration": 0.4829753333333333
                },
                {
                    "name": "F3",
                    "midi": 53,
                    "time": 0.4829753333333333,
                    "velocity": 0.41732283464566927,
                    "duration": 0.4829753333333333
                },
                {
                    "name": "C4",
                    "midi": 60,
                    "time": 0.4829753333333333,
                    "velocity": 0.5590551181102362,
                    "duration": 0.4829753333333333
                },
                {
                    "name": "C3",
                    "midi": 48,
                    "time": 0.9659506666666666,
                    "velocity": 0.36220472440944884,
                    "duration": 0.4829753333333333
                },
                {
                    "name": "F3",
                    "midi": 53,
                    "time": 0.9659506666666666,
                    "velocity": 0.4094488188976378,
                    "duration": 0.4829753333333333
                },
                {
                    "name": "C4",
                    "midi": 60,
                    "time": 0.9659506666666666,
                    "velocity": 0.5511811023622047,
                    "duration": 0.4829753333333333
                },
                {
                    "name": "C3",
                    "midi": 48,
                    "time": 1.448926,
                    "velocity": 0.3700787401574803,
                    "duration": 0.4829753333333333
                },
                {
                    "name": "F3",
                    "midi": 53,
                    "time": 1.448926,
                    "velocity": 0.41732283464566927,
                    "duration": 0.4829753333333333
                },
                {
                    "name": "C4",
                    "midi": 60,
                    "time": 1.448926,
                    "velocity": 0.5669291338582677,
                    "duration": 0.4829753333333333
                },
                {
                    "name": "C3",
                    "midi": 48,
                    "time": 1.9319013333333332,
                    "velocity": 0.3779527559055118,
                    "duration": 0.4829753333333331
                },
                {
                    "name": "F3",
                    "midi": 53,
                    "time": 1.9319013333333332,
                    "velocity": 0.4330708661417323,
                    "duration": 0.4829753333333331
                },
                {
                    "name": "C4",
                    "midi": 60,
                    "time": 1.9319013333333332,
                    "velocity": 0.5826771653543307,
                    "duration": 0.4829753333333331
                },
                {
                    "name": "C3",
                    "midi": 48,
                    "time": 2.4148766666666663,
                    "velocity": 0.36220472440944884,
                    "duration": 0.45278937500000005
                },
                {
                    "name": "F3",
                    "midi": 53,
                    "time": 2.4148766666666663,
                    "velocity": 0.4094488188976378,
                    "duration": 0.45278937500000005
                },
                {
                    "name": "C4",
                    "midi": 60,
                    "time": 2.4148766666666663,
                    "velocity": 0.5511811023622047,
                    "duration": 0.45278937500000005
                },
                {
                    "name": "A#2",
                    "midi": 46,
                    "time": 2.897852,
                    "velocity": 0.41732283464566927,
                    "duration": 0.36223150000000004
                },
                {
                    "name": "C#4",
                    "midi": 61,
                    "time": 3.2600835,
                    "velocity": 0.2283464566929134,
                    "duration": 0.18111575000000002
                },
                {
                    "name": "F3",
                    "midi": 53,
                    "time": 3.2600835,
                    "velocity": 0.18110236220472442,
                    "duration": 0.18111575000000002
                },
                {
                    "name": "F2",
                    "midi": 41,
                    "time": 3.9845465,
                    "velocity": 0.31496062992125984,
                    "duration": 0.3622314999999996
                },
                {
                    "name": "A#2",
                    "midi": 46,
                    "time": 4.346778,
                    "velocity": 0.44881889763779526,
                    "duration": 0.36223150000000004
                },
                {
                    "name": "C#4",
                    "midi": 61,
                    "time": 4.7090095,
                    "velocity": 0.2677165354330709,
                    "duration": 0.18111575000000002
                },
                {
                    "name": "F3",
                    "midi": 53,
                    "time": 4.7090095,
                    "velocity": 0.2125984251968504,
                    "duration": 0.18111575000000002
                },
                {
                    "name": "F2",
                    "midi": 41,
                    "time": 5.4334725,
                    "velocity": 0.3700787401574803,
                    "duration": 0.36223150000000004
                },
                {
                    "name": "A#2",
                    "midi": 46,
                    "time": 5.795704,
                    "velocity": 0.5118110236220472,
                    "duration": 0.36223150000000004
                },
                {
                    "name": "C#4",
                    "midi": 61,
                    "time": 6.1579355,
                    "velocity": 0.2755905511811024,
                    "duration": 0.18111575000000002
                },
                {
                    "name": "F3",
                    "midi": 53,
                    "time": 6.1579355,
                    "velocity": 0.2204724409448819,
                    "duration": 0.18111575000000002
                },
                {
                    "name": "F2",
                    "midi": 41,
                    "time": 6.8823985,
                    "velocity": 0.3937007874015748,
                    "duration": 0.36223150000000004
                },
                {
                    "name": "A#2",
                    "midi": 46,
                    "time": 7.24463,
                    "velocity": 0.5354330708661418,
                    "duration": 0.36223150000000004
                },
                {
                    "name": "C#4",
                    "midi": 61,
                    "time": 7.6068615,
                    "velocity": 0.3228346456692913,
                    "duration": 0.18111575000000002
                },
                {
                    "name": "F3",
                    "midi": 53,
                    "time": 7.6068615,
                    "velocity": 0.2677165354330709,
                    "duration": 0.18111575000000002
                },
                {
                    "name": "F2",
                    "midi": 41,
                    "time": 8.3313245,
                    "velocity": 0.36220472440944884,
                    "duration": 0.36223150000000004
                },
                {
                    "name": "A#2",
                    "midi": 46,
                    "time": 8.693556,
                    "velocity": 0.47244094488188976,
                    "duration": 0.36223150000000004
                },
                {
                    "name": "C#4",
                    "midi": 61,
                    "time": 9.0557875,
                    "velocity": 0.2992125984251969,
                    "duration": 0.18111575000000002
                },
                {
                    "name": "F3",
                    "midi": 53,
                    "time": 9.0557875,
                    "velocity": 0.25196850393700787,
                    "duration": 0.18111575000000002
                },
                {
                    "name": "F2",
                    "midi": 41,
                    "time": 9.7802505,
                    "velocity": 0.33070866141732286,
                    "duration": 0.36223150000000004
                },
                {
                    "name": "A#2",
                    "midi": 46,
                    "time": 10.142482,
                    "velocity": 0.4251968503937008,
                    "duration": 0.36223150000000004
                },
                {
                    "name": "C#4",
                    "midi": 61,
                    "time": 10.5047135,
                    "velocity": 0.2677165354330709,
                    "duration": 0.18111575000000002
                },
                {
                    "name": "F3",
                    "midi": 53,
                    "time": 10.5047135,
                    "velocity": 0.2204724409448819,
                    "duration": 0.18111575000000002
                },
                {
                    "name": "F2",
                    "midi": 41,
                    "time": 11.2291765,
                    "velocity": 0.30708661417322836,
                    "duration": 0.36223150000000004
                },
                {
                    "name": "A#2",
                    "midi": 46,
                    "time": 11.591408,
                    "velocity": 0.4015748031496063,
                    "duration": 0.36223150000000004
                },
                {
                    "name": "D#4",
                    "midi": 63,
                    "time": 11.9536395,
                    "velocity": 0.2204724409448819,
                    "duration": 0.18111575000000002
                },
                {
                    "name": "F#3",
                    "midi": 54,
                    "time": 11.9536395,
                    "velocity": 0.1732283464566929,
                    "duration": 0.18111575000000002
                },
                {
                    "name": "D#3",
                    "midi": 51,
                    "time": 11.9536395,
                    "velocity": 0.1732283464566929,
                    "duration": 0.18111575000000002
                },
                {
                    "name": "A#1",
                    "midi": 34,
                    "time": 12.6781025,
                    "velocity": 0.33858267716535434,
                    "duration": 0.36223150000000004
                },
                {
                    "name": "A#2",
                    "midi": 46,
                    "time": 13.040334,
                    "velocity": 0.4645669291338583,
                    "duration": 0.36223150000000004
                },
                {
                    "name": "D#4",
                    "midi": 63,
                    "time": 13.4025655,
                    "velocity": 0.2755905511811024,
                    "duration": 0.18111575000000002
                },
                {
                    "name": "F#3",
                    "midi": 54,
                    "time": 13.4025655,
                    "velocity": 0.2283464566929134,
                    "duration": 0.18111575000000002
                },
                {
                    "name": "D#3",
                    "midi": 51,
                    "time": 13.4025655,
                    "velocity": 0.2283464566929134,
                    "duration": 0.18111575000000002
                },
                {
                    "name": "A#1",
                    "midi": 34,
                    "time": 14.1270285,
                    "velocity": 0.30708661417322836,
                    "duration": 0.36223150000000004
                },
                {
                    "name": "A#2",
                    "midi": 46,
                    "time": 14.48926,
                    "velocity": 0.4409448818897638,
                    "duration": 0.36223150000000004
                },
                {
                    "name": "D#4",
                    "midi": 63,
                    "time": 14.8514915,
                    "velocity": 0.2440944881889764,
                    "duration": 0.18111575000000002
                },
                {
                    "name": "F#3",
                    "midi": 54,
                    "time": 14.8514915,
                    "velocity": 0.2047244094488189,
                    "duration": 0.18111575000000002
                },
                {
                    "name": "D#3",
                    "midi": 51,
                    "time": 14.8514915,
                    "velocity": 0.2047244094488189,
                    "duration": 0.18111575000000002
                },
                {
                    "name": "A#1",
                    "midi": 34,
                    "time": 15.5759545,
                    "velocity": 0.29133858267716534,
                    "duration": 0.36223150000000004
                },
                {
                    "name": "A#2",
                    "midi": 46,
                    "time": 15.938186,
                    "velocity": 0.4015748031496063,
                    "duration": 0.36223149999999826
                },
                {
                    "name": "D#4",
                    "midi": 63,
                    "time": 16.3004175,
                    "velocity": 0.2283464566929134,
                    "duration": 0.18111575000000002
                },
                {
                    "name": "F#3",
                    "midi": 54,
                    "time": 16.3004175,
                    "velocity": 0.1889763779527559,
                    "duration": 0.18111575000000002
                },
                {
                    "name": "D#3",
                    "midi": 51,
                    "time": 16.3004175,
                    "velocity": 0.1889763779527559,
                    "duration": 0.18111575000000002
                },
                {
                    "name": "A#1",
                    "midi": 34,
                    "time": 17.0248805,
                    "velocity": 0.33858267716535434,
                    "duration": 0.36223150000000004
                },
                {
                    "name": "A#2",
                    "midi": 46,
                    "time": 17.387112,
                    "velocity": 0.4645669291338583,
                    "duration": 0.36223150000000004
                },
                {
                    "name": "D#4",
                    "midi": 63,
                    "time": 17.7493435,
                    "velocity": 0.25984251968503935,
                    "duration": 0.18111575000000002
                },
                {
                    "name": "F#3",
                    "midi": 54,
                    "time": 17.7493435,
                    "velocity": 0.2204724409448819,
                    "duration": 0.18111575000000002
                },
                {
                    "name": "D#3",
                    "midi": 51,
                    "time": 17.7493435,
                    "velocity": 0.2204724409448819,
                    "duration": 0.18111575000000002
                },
                {
                    "name": "A#1",
                    "midi": 34,
                    "time": 18.4738065,
                    "velocity": 0.4409448818897638,
                    "duration": 0.36223150000000004
                },
                {
                    "name": "A#2",
                    "midi": 46,
                    "time": 18.836038,
                    "velocity": 0.5354330708661418,
                    "duration": 0.36223150000000004
                },
                {
                    "name": "D#4",
                    "midi": 63,
                    "time": 19.1982695,
                    "velocity": 0.28346456692913385,
                    "duration": 0.18111575000000002
                },
                {
                    "name": "F#3",
                    "midi": 54,
                    "time": 19.1982695,
                    "velocity": 0.2283464566929134,
                    "duration": 0.18111575000000002
                },
                {
                    "name": "D#3",
                    "midi": 51,
                    "time": 19.1982695,
                    "velocity": 0.2283464566929134,
                    "duration": 0.18111575000000002
                },
                {
                    "name": "A#2",
                    "midi": 46,
                    "time": 19.9227325,
                    "velocity": 0.4645669291338583,
                    "duration": 0.36223150000000004
                },
                {
                    "name": "A2",
                    "midi": 45,
                    "time": 20.284964,
                    "velocity": 0.5748031496062992,
                    "duration": 0.36223150000000004
                },
                {
                    "name": "D#4",
                    "midi": 63,
                    "time": 20.6471955,
                    "velocity": 0.33858267716535434,
                    "duration": 0.18111575000000002
                },
                {
                    "name": "F#3",
                    "midi": 54,
                    "time": 20.6471955,
                    "velocity": 0.28346456692913385,
                    "duration": 0.18111575000000002
                },
                {
                    "name": "A1",
                    "midi": 33,
                    "time": 21.371658499999995,
                    "velocity": 0.36220472440944884,
                    "duration": 0.36223150000000004
                },
                {
                    "name": "A2",
                    "midi": 45,
                    "time": 21.733889999999995,
                    "velocity": 0.47244094488188976,
                    "duration": 0.36223150000000004
                },
                {
                    "name": "D#4",
                    "midi": 63,
                    "time": 22.096121499999995,
                    "velocity": 0.29133858267716534,
                    "duration": 0.18111575000000002
                },
                {
                    "name": "F#3",
                    "midi": 54,
                    "time": 22.096121499999995,
                    "velocity": 0.2440944881889764,
                    "duration": 0.18111575000000002
                },
                {
                    "name": "G#2",
                    "midi": 44,
                    "time": 22.820584499999995,
                    "velocity": 0.31496062992125984,
                    "duration": 0.36223150000000004
                },
                {
                    "name": "A#2",
                    "midi": 46,
                    "time": 23.182815999999995,
                    "velocity": 0.4330708661417323,
                    "duration": 0.36223150000000004
                },
                {
                    "name": "C#4",
                    "midi": 61,
                    "time": 23.545047499999995,
                    "velocity": 0.2677165354330709,
                    "duration": 0.18111575000000002
                },
                {
                    "name": "F3",
                    "midi": 53,
                    "time": 23.545047499999995,
                    "velocity": 0.2204724409448819,
                    "duration": 0.18111575000000002
                },
                {
                    "name": "A#2",
                    "midi": 46,
                    "time": 24.269510499999996,
                    "velocity": 0.30708661417322836,
                    "duration": 0.36223150000000004
                },
                {
                    "name": "C#3",
                    "midi": 49,
                    "time": 24.631741999999996,
                    "velocity": 0.3858267716535433,
                    "duration": 0.36223150000000004
                },
                {
                    "name": "F4",
                    "midi": 65,
                    "time": 24.993973499999996,
                    "velocity": 0.2283464566929134,
                    "duration": 0.18111575000000002
                },
                {
                    "name": "A#3",
                    "midi": 58,
                    "time": 24.993973499999996,
                    "velocity": 0.1968503937007874,
                    "duration": 0.18111575000000002
                },
                {
                    "name": "F3",
                    "midi": 53,
                    "time": 24.993973499999996,
                    "velocity": 0.1968503937007874,
                    "duration": 0.18111575000000002
                },
                {
                    "name": "C#3",
                    "midi": 49,
                    "time": 25.718436499999996,
                    "velocity": 0.25984251968503935,
                    "duration": 0.36223150000000004
                },
                {
                    "name": "D#3",
                    "midi": 51,
                    "time": 26.080667999999996,
                    "velocity": 0.3228346456692913,
                    "duration": 0.36223150000000004
                },
                {
                    "name": "F#4",
                    "midi": 66,
                    "time": 26.442899499999996,
                    "velocity": 0.1968503937007874,
                    "duration": 0.18111575000000002
                },
                {
                    "name": "A3",
                    "midi": 57,
                    "time": 26.442899499999996,
                    "velocity": 0.15748031496062992,
                    "duration": 0.18111575000000002
                },
                {
                    "name": "D#3",
                    "midi": 51,
                    "time": 27.167362499999996,
                    "velocity": 0.2755905511811024,
                    "duration": 0.36223150000000004
                },
                {
                    "name": "C#3",
                    "midi": 49,
                    "time": 27.529593999999996,
                    "velocity": 0.3858267716535433,
                    "duration": 0.36223150000000004
                },
                {
                    "name": "F4",
                    "midi": 65,
                    "time": 27.891825499999996,
                    "velocity": 0.2204724409448819,
                    "duration": 0.18111575000000002
                },
                {
                    "name": "A#3",
                    "midi": 58,
                    "time": 27.891825499999996,
                    "velocity": 0.14173228346456693,
                    "duration": 0.18111575000000002
                },
                {
                    "name": "F3",
                    "midi": 53,
                    "time": 27.891825499999996,
                    "velocity": 0.14173228346456693,
                    "duration": 0.18111575000000002
                },
                {
                    "name": "C#3",
                    "midi": 49,
                    "time": 28.616288499999996,
                    "velocity": 0.31496062992125984,
                    "duration": 0.36223150000000004
                },
                {
                    "name": "D#3",
                    "midi": 51,
                    "time": 28.978519999999996,
                    "velocity": 0.3937007874015748,
                    "duration": 0.36223150000000004
                },
                {
                    "name": "F#4",
                    "midi": 66,
                    "time": 29.340751499999996,
                    "velocity": 0.2125984251968504,
                    "duration": 0.18111575000000002
                },
                {
                    "name": "A3",
                    "midi": 57,
                    "time": 29.340751499999996,
                    "velocity": 0.1732283464566929,
                    "duration": 0.18111575000000002
                },
                {
                    "name": "D#3",
                    "midi": 51,
                    "time": 30.065214499999996,
                    "velocity": 0.28346456692913385,
                    "duration": 0.36223150000000004
                },
                {
                    "name": "C#3",
                    "midi": 49,
                    "time": 30.427445999999996,
                    "velocity": 0.4015748031496063,
                    "duration": 0.36223150000000004
                },
                {
                    "name": "F4",
                    "midi": 65,
                    "time": 30.789677499999996,
                    "velocity": 0.2283464566929134,
                    "duration": 0.18111575000000002
                },
                {
                    "name": "A#3",
                    "midi": 58,
                    "time": 30.789677499999996,
                    "velocity": 0.1889763779527559,
                    "duration": 0.18111575000000002
                },
                {
                    "name": "F3",
                    "midi": 53,
                    "time": 30.789677499999996,
                    "velocity": 0.1889763779527559,
                    "duration": 0.18111575000000002
                },
                {
                    "name": "C#3",
                    "midi": 49,
                    "time": 31.514140499999996,
                    "velocity": 0.28346456692913385,
                    "duration": 0.36223150000000004
                },
                {
                    "name": "F3",
                    "midi": 53,
                    "time": 31.876371999999996,
                    "velocity": 0.33070866141732286,
                    "duration": 0.36223150000000004
                },
                {
                    "name": "G#4",
                    "midi": 68,
                    "time": 32.238603499999996,
                    "velocity": 0.2204724409448819,
                    "duration": 0.18111574999999647
                },
                {
                    "name": "B3",
                    "midi": 59,
                    "time": 32.238603499999996,
                    "velocity": 0.18110236220472442,
                    "duration": 0.18111574999999647
                },
                {
                    "name": "F3",
                    "midi": 53,
                    "time": 32.96306649999999,
                    "velocity": 0.30708661417322836,
                    "duration": 0.36223150000000004
                },
                {
                    "name": "D#3",
                    "midi": 51,
                    "time": 33.32529799999999,
                    "velocity": 0.4251968503937008,
                    "duration": 0.36223150000000004
                },
                {
                    "name": "G4",
                    "midi": 67,
                    "time": 33.68752949999999,
                    "velocity": 0.25196850393700787,
                    "duration": 0.18111574999999647
                },
                {
                    "name": "C4",
                    "midi": 60,
                    "time": 33.68752949999999,
                    "velocity": 0.2047244094488189,
                    "duration": 0.18111574999999647
                },
                {
                    "name": "G3",
                    "midi": 55,
                    "time": 33.68752949999999,
                    "velocity": 0.2047244094488189,
                    "duration": 0.18111574999999647
                },
                {
                    "name": "D#3",
                    "midi": 51,
                    "time": 34.41199249999999,
                    "velocity": 0.2755905511811024,
                    "duration": 0.36223150000000004
                },
                {
                    "name": "F3",
                    "midi": 53,
                    "time": 34.77422399999999,
                    "velocity": 0.33070866141732286,
                    "duration": 0.36223150000000004
                },
                {
                    "name": "G#4",
                    "midi": 68,
                    "time": 35.13645549999999,
                    "velocity": 0.2204724409448819,
                    "duration": 0.18111574999999647
                },
                {
                    "name": "B3",
                    "midi": 59,
                    "time": 35.13645549999999,
                    "velocity": 0.18110236220472442,
                    "duration": 0.18111574999999647
                },
                {
                    "name": "F3",
                    "midi": 53,
                    "time": 35.86091849999998,
                    "velocity": 0.2992125984251969,
                    "duration": 0.36223150000000004
                },
                {
                    "name": "D#3",
                    "midi": 51,
                    "time": 36.22314999999998,
                    "velocity": 0.4094488188976378,
                    "duration": 0.36223150000000004
                },
                {
                    "name": "G4",
                    "midi": 67,
                    "time": 36.58538149999998,
                    "velocity": 0.25196850393700787,
                    "duration": 0.18111574999999647
                },
                {
                    "name": "C4",
                    "midi": 60,
                    "time": 36.58538149999998,
                    "velocity": 0.2047244094488189,
                    "duration": 0.18111574999999647
                },
                {
                    "name": "G3",
                    "midi": 55,
                    "time": 36.58538149999998,
                    "velocity": 0.2047244094488189,
                    "duration": 0.18111574999999647
                },
                {
                    "name": "D#3",
                    "midi": 51,
                    "time": 37.30984449999998,
                    "velocity": 0.3543307086614173,
                    "duration": 0.36223150000000004
                },
                {
                    "name": "F3",
                    "midi": 53,
                    "time": 37.67207599999998,
                    "velocity": 0.4330708661417323,
                    "duration": 0.36223150000000004
                },
                {
                    "name": "G#4",
                    "midi": 68,
                    "time": 38.03430749999998,
                    "velocity": 0.2204724409448819,
                    "duration": 0.18111574999999647
                },
                {
                    "name": "C#4",
                    "midi": 61,
                    "time": 38.03430749999998,
                    "velocity": 0.18110236220472442,
                    "duration": 0.18111574999999647
                },
                {
                    "name": "G#3",
                    "midi": 56,
                    "time": 38.03430749999998,
                    "velocity": 0.18110236220472442,
                    "duration": 0.18111574999999647
                },
                {
                    "name": "F3",
                    "midi": 53,
                    "time": 38.758770499999976,
                    "velocity": 0.31496062992125984,
                    "duration": 0.36223150000000004
                },
                {
                    "name": "F#3",
                    "midi": 54,
                    "time": 39.121001999999976,
                    "velocity": 0.4330708661417323,
                    "duration": 0.36223150000000004
                },
                {
                    "name": "A4",
                    "midi": 69,
                    "time": 39.483233499999976,
                    "velocity": 0.2677165354330709,
                    "duration": 0.18111574999999647
                },
                {
                    "name": "C4",
                    "midi": 60,
                    "time": 39.483233499999976,
                    "velocity": 0.2204724409448819,
                    "duration": 0.18111574999999647
                },
                {
                    "name": "A3",
                    "midi": 57,
                    "time": 39.483233499999976,
                    "velocity": 0.2204724409448819,
                    "duration": 0.18111574999999647
                },
                {
                    "name": "F#3",
                    "midi": 54,
                    "time": 40.207696499999976,
                    "velocity": 0.30708661417322836,
                    "duration": 0.36223150000000004
                },
                {
                    "name": "F3",
                    "midi": 53,
                    "time": 40.569927999999976,
                    "velocity": 0.4015748031496063,
                    "duration": 0.36223150000000004
                },
                {
                    "name": "G#4",
                    "midi": 68,
                    "time": 40.932159499999976,
                    "velocity": 0.23622047244094488,
                    "duration": 0.18111574999999647
                },
                {
                    "name": "C#4",
                    "midi": 61,
                    "time": 40.932159499999976,
                    "velocity": 0.2125984251968504,
                    "duration": 0.18111574999999647
                },
                {
                    "name": "G#3",
                    "midi": 56,
                    "time": 40.932159499999976,
                    "velocity": 0.2125984251968504,
                    "duration": 0.18111574999999647
                },
                {
                    "name": "F3",
                    "midi": 53,
                    "time": 41.65662249999997,
                    "velocity": 0.3543307086614173,
                    "duration": 0.36223150000000004
                },
                {
                    "name": "E3",
                    "midi": 52,
                    "time": 42.01885399999997,
                    "velocity": 0.4645669291338583,
                    "duration": 0.36223150000000004
                },
                {
                    "name": "G4",
                    "midi": 67,
                    "time": 42.38108549999997,
                    "velocity": 0.2677165354330709,
                    "duration": 0.18111574999999647
                },
                {
                    "name": "C#4",
                    "midi": 61,
                    "time": 42.38108549999997,
                    "velocity": 0.2283464566929134,
                    "duration": 0.18111574999999647
                },
                {
                    "name": "A#3",
                    "midi": 58,
                    "time": 42.38108549999997,
                    "velocity": 0.2283464566929134,
                    "duration": 0.18111574999999647
                },
                {
                    "name": "E3",
                    "midi": 52,
                    "time": 43.10554849999997,
                    "velocity": 0.3858267716535433,
                    "duration": 0.36223150000000004
                },
                {
                    "name": "D#3",
                    "midi": 51,
                    "time": 43.46777999999997,
                    "velocity": 0.5039370078740157,
                    "duration": 0.36223150000000004
                },
                {
                    "name": "C4",
                    "midi": 60,
                    "time": 43.83001149999997,
                    "velocity": 0.23622047244094488,
                    "duration": 0.18111574999999647
                },
                {
                    "name": "F#4",
                    "midi": 66,
                    "time": 43.83001149999997,
                    "velocity": 0.29133858267716534,
                    "duration": 0.18111574999999647
                },
                {
                    "name": "A3",
                    "midi": 57,
                    "time": 43.83001149999997,
                    "velocity": 0.23622047244094488,
                    "duration": 0.18111574999999647
                },
                {
                    "name": "D#3",
                    "midi": 51,
                    "time": 44.55447449999996,
                    "velocity": 0.4330708661417323,
                    "duration": 0.36223150000000004
                },
                {
                    "name": "C#3",
                    "midi": 49,
                    "time": 44.91670599999996,
                    "velocity": 0.5196850393700787,
                    "duration": 0.36223150000000004
                },
                {
                    "name": "F4",
                    "midi": 65,
                    "time": 45.27893749999996,
                    "velocity": 0.29133858267716534,
                    "duration": 0.18111574999999647
                },
                {
                    "name": "A#3",
                    "midi": 58,
                    "time": 45.27893749999996,
                    "velocity": 0.23622047244094488,
                    "duration": 0.18111574999999647
                },
                {
                    "name": "F3",
                    "midi": 53,
                    "time": 45.27893749999996,
                    "velocity": 0.23622047244094488,
                    "duration": 0.18111574999999647
                },
                {
                    "name": "F2",
                    "midi": 41,
                    "time": 46.365631999999955,
                    "velocity": 0.7165354330708661,
                    "duration": 0.36223150000000004
                },
                {
                    "name": "C3",
                    "midi": 48,
                    "time": 46.95425818749995,
                    "velocity": 0.5354330708661418,
                    "duration": 0.8602998125000028
                },
                {
                    "name": "F3",
                    "midi": 53,
                    "time": 46.999537124999954,
                    "velocity": 0.5354330708661418,
                    "duration": 0.8150208750000019
                },
                {
                    "name": "A3",
                    "midi": 57,
                    "time": 47.044816062499955,
                    "velocity": 0.5354330708661418,
                    "duration": 0.769741937500001
                },
                {
                    "name": "D#4",
                    "midi": 63,
                    "time": 47.090094999999955,
                    "velocity": 0.6377952755905512,
                    "duration": 0.7244630000000001
                },
                {
                    "name": "A#1",
                    "midi": 34,
                    "time": 49.263483999999956,
                    "velocity": 0.6062992125984252,
                    "duration": 0.36223150000000004
                },
                {
                    "name": "A#2",
                    "midi": 46,
                    "time": 49.263483999999956,
                    "velocity": 0.7559055118110236,
                    "duration": 0.36223150000000004
                },
                {
                    "name": "C#3",
                    "midi": 49,
                    "time": 49.625715499999956,
                    "velocity": 0.33858267716535434,
                    "duration": 0.18111574999999647
                },
                {
                    "name": "C#4",
                    "midi": 61,
                    "time": 49.625715499999956,
                    "velocity": 0.4881889763779528,
                    "duration": 0.18111574999999647
                },
                {
                    "name": "F3",
                    "midi": 53,
                    "time": 49.625715499999956,
                    "velocity": 0.4015748031496063,
                    "duration": 0.18111574999999647
                },
                {
                    "name": "F1",
                    "midi": 29,
                    "time": 50.35017849999995,
                    "velocity": 0.47244094488188976,
                    "duration": 0.36223150000000004
                },
                {
                    "name": "F2",
                    "midi": 41,
                    "time": 50.35017849999995,
                    "velocity": 0.6220472440944882,
                    "duration": 0.36223150000000004
                },
                {
                    "name": "A#1",
                    "midi": 34,
                    "time": 50.71240999999995,
                    "velocity": 0.6141732283464567,
                    "duration": 0.36223150000000004
                },
                {
                    "name": "A#2",
                    "midi": 46,
                    "time": 50.71240999999995,
                    "velocity": 0.7716535433070866,
                    "duration": 0.36223150000000004
                },
                {
                    "name": "C#3",
                    "midi": 49,
                    "time": 51.07464149999995,
                    "velocity": 0.33070866141732286,
                    "duration": 0.18111574999999647
                },
                {
                    "name": "C#4",
                    "midi": 61,
                    "time": 51.07464149999995,
                    "velocity": 0.4881889763779528,
                    "duration": 0.18111574999999647
                },
                {
                    "name": "F3",
                    "midi": 53,
                    "time": 51.07464149999995,
                    "velocity": 0.3937007874015748,
                    "duration": 0.18111574999999647
                },
                {
                    "name": "F1",
                    "midi": 29,
                    "time": 51.79910449999994,
                    "velocity": 0.48031496062992124,
                    "duration": 0.36223150000000004
                },
                {
                    "name": "F2",
                    "midi": 41,
                    "time": 51.79910449999994,
                    "velocity": 0.6062992125984252,
                    "duration": 0.36223150000000004
                },
                {
                    "name": "A#1",
                    "midi": 34,
                    "time": 52.16133599999994,
                    "velocity": 0.5748031496062992,
                    "duration": 0.36223150000000004
                },
                {
                    "name": "A#2",
                    "midi": 46,
                    "time": 52.16133599999994,
                    "velocity": 0.7322834645669292,
                    "duration": 0.36223150000000004
                },
                {
                    "name": "C#3",
                    "midi": 49,
                    "time": 52.52356749999994,
                    "velocity": 0.3464566929133858,
                    "duration": 0.18111574999999647
                },
                {
                    "name": "C#4",
                    "midi": 61,
                    "time": 52.52356749999994,
                    "velocity": 0.49606299212598426,
                    "duration": 0.18111574999999647
                },
                {
                    "name": "F3",
                    "midi": 53,
                    "time": 52.52356749999994,
                    "velocity": 0.4094488188976378,
                    "duration": 0.18111574999999647
                },
                {
                    "name": "F1",
                    "midi": 29,
                    "time": 53.24803049999994,
                    "velocity": 0.4881889763779528,
                    "duration": 0.36223150000000004
                },
                {
                    "name": "F2",
                    "midi": 41,
                    "time": 53.24803049999994,
                    "velocity": 0.6220472440944882,
                    "duration": 0.36223150000000004
                },
                {
                    "name": "A#1",
                    "midi": 34,
                    "time": 53.61026199999994,
                    "velocity": 0.6220472440944882,
                    "duration": 0.36223150000000004
                },
                {
                    "name": "A#2",
                    "midi": 46,
                    "time": 53.61026199999994,
                    "velocity": 0.7559055118110236,
                    "duration": 0.36223150000000004
                },
                {
                    "name": "C#3",
                    "midi": 49,
                    "time": 53.97249349999994,
                    "velocity": 0.4015748031496063,
                    "duration": 0.18111574999999647
                },
                {
                    "name": "C#4",
                    "midi": 61,
                    "time": 53.97249349999994,
                    "velocity": 0.5669291338582677,
                    "duration": 0.18111574999999647
                },
                {
                    "name": "F3",
                    "midi": 53,
                    "time": 53.97249349999994,
                    "velocity": 0.47244094488188976,
                    "duration": 0.18111574999999647
                },
                {
                    "name": "F1",
                    "midi": 29,
                    "time": 54.696956499999935,
                    "velocity": 0.4409448818897638,
                    "duration": 0.36223150000000004
                },
                {
                    "name": "F2",
                    "midi": 41,
                    "time": 54.696956499999935,
                    "velocity": 0.5826771653543307,
                    "duration": 0.36223150000000004
                },
                {
                    "name": "A#1",
                    "midi": 34,
                    "time": 55.059187999999935,
                    "velocity": 0.5511811023622047,
                    "duration": 0.36223150000000004
                },
                {
                    "name": "A#2",
                    "midi": 46,
                    "time": 55.059187999999935,
                    "velocity": 0.7244094488188977,
                    "duration": 0.36223150000000004
                },
                {
                    "name": "C#3",
                    "midi": 49,
                    "time": 55.421419499999935,
                    "velocity": 0.3858267716535433,
                    "duration": 0.18111574999999647
                },
                {
                    "name": "C#4",
                    "midi": 61,
                    "time": 55.421419499999935,
                    "velocity": 0.5354330708661418,
                    "duration": 0.18111574999999647
                },
                {
                    "name": "F3",
                    "midi": 53,
                    "time": 55.421419499999935,
                    "velocity": 0.4566929133858268,
                    "duration": 0.18111574999999647
                },
                {
                    "name": "F1",
                    "midi": 29,
                    "time": 56.14588249999993,
                    "velocity": 0.3858267716535433,
                    "duration": 0.36223150000000004
                },
                {
                    "name": "F2",
                    "midi": 41,
                    "time": 56.14588249999993,
                    "velocity": 0.5118110236220472,
                    "duration": 0.36223150000000004
                },
                {
                    "name": "A#1",
                    "midi": 34,
                    "time": 56.50811399999993,
                    "velocity": 0.4881889763779528,
                    "duration": 0.36223150000000004
                },
                {
                    "name": "A#2",
                    "midi": 46,
                    "time": 56.50811399999993,
                    "velocity": 0.6062992125984252,
                    "duration": 0.36223150000000004
                },
                {
                    "name": "C#3",
                    "midi": 49,
                    "time": 56.87034549999993,
                    "velocity": 0.31496062992125984,
                    "duration": 0.18111574999999647
                },
                {
                    "name": "C#4",
                    "midi": 61,
                    "time": 56.87034549999993,
                    "velocity": 0.44881889763779526,
                    "duration": 0.18111574999999647
                },
                {
                    "name": "F3",
                    "midi": 53,
                    "time": 56.87034549999993,
                    "velocity": 0.3779527559055118,
                    "duration": 0.18111574999999647
                },
                {
                    "name": "F1",
                    "midi": 29,
                    "time": 57.59480849999992,
                    "velocity": 0.3543307086614173,
                    "duration": 0.36223150000000004
                },
                {
                    "name": "F2",
                    "midi": 41,
                    "time": 57.59480849999992,
                    "velocity": 0.4645669291338583,
                    "duration": 0.36223150000000004
                },
                {
                    "name": "A#1",
                    "midi": 34,
                    "time": 57.95703999999992,
                    "velocity": 0.4409448818897638,
                    "duration": 0.36223150000000004
                },
                {
                    "name": "A#2",
                    "midi": 46,
                    "time": 57.95703999999992,
                    "velocity": 0.5275590551181102,
                    "duration": 0.36223150000000004
                },
                {
                    "name": "D#4",
                    "midi": 63,
                    "time": 58.31927149999992,
                    "velocity": 0.3700787401574803,
                    "duration": 0.18111574999999647
                },
                {
                    "name": "F#3",
                    "midi": 54,
                    "time": 58.31927149999992,
                    "velocity": 0.30708661417322836,
                    "duration": 0.18111574999999647
                },
                {
                    "name": "D#3",
                    "midi": 51,
                    "time": 58.31927149999992,
                    "velocity": 0.25984251968503935,
                    "duration": 0.18111574999999647
                },
                {
                    "name": "F1",
                    "midi": 29,
                    "time": 59.04373449999992,
                    "velocity": 0.3700787401574803,
                    "duration": 0.36223150000000004
                },
                {
                    "name": "F2",
                    "midi": 41,
                    "time": 59.04373449999992,
                    "velocity": 0.4881889763779528,
                    "duration": 0.36223150000000004
                },
                {
                    "name": "A#1",
                    "midi": 34,
                    "time": 59.40596599999992,
                    "velocity": 0.5039370078740157,
                    "duration": 0.36223150000000004
                },
                {
                    "name": "A#2",
                    "midi": 46,
                    "time": 59.40596599999992,
                    "velocity": 0.5984251968503937,
                    "duration": 0.36223150000000004
                },
                {
                    "name": "D#4",
                    "midi": 63,
                    "time": 59.76819749999992,
                    "velocity": 0.44881889763779526,
                    "duration": 0.18111574999999647
                },
                {
                    "name": "F#3",
                    "midi": 54,
                    "time": 59.76819749999992,
                    "velocity": 0.3700787401574803,
                    "duration": 0.18111574999999647
                },
                {
                    "name": "D#3",
                    "midi": 51,
                    "time": 59.76819749999992,
                    "velocity": 0.30708661417322836,
                    "duration": 0.18111574999999647
                },
                {
                    "name": "F1",
                    "midi": 29,
                    "time": 60.492660499999914,
                    "velocity": 0.4015748031496063,
                    "duration": 0.36223150000000004
                },
                {
                    "name": "F2",
                    "midi": 41,
                    "time": 60.492660499999914,
                    "velocity": 0.5275590551181102,
                    "duration": 0.36223150000000004
                },
                {
                    "name": "A1",
                    "midi": 33,
                    "time": 60.854891999999914,
                    "velocity": 0.5433070866141733,
                    "duration": 0.36223150000000004
                },
                {
                    "name": "A2",
                    "midi": 45,
                    "time": 60.854891999999914,
                    "velocity": 0.7007874015748031,
                    "duration": 0.36223150000000004
                },
                {
                    "name": "D#4",
                    "midi": 63,
                    "time": 61.217123499999914,
                    "velocity": 0.48031496062992124,
                    "duration": 0.18111574999999647
                },
                {
                    "name": "F#3",
                    "midi": 54,
                    "time": 61.217123499999914,
                    "velocity": 0.3937007874015748,
                    "duration": 0.18111574999999647
                },
                {
                    "name": "D#3",
                    "midi": 51,
                    "time": 61.217123499999914,
                    "velocity": 0.33070866141732286,
                    "duration": 0.18111574999999647
                },
                {
                    "name": "D#1",
                    "midi": 27,
                    "time": 61.941586499999914,
                    "velocity": 0.3779527559055118,
                    "duration": 0.36223150000000004
                },
                {
                    "name": "D#2",
                    "midi": 39,
                    "time": 61.941586499999914,
                    "velocity": 0.49606299212598426,
                    "duration": 0.36223150000000004
                },
                {
                    "name": "A1",
                    "midi": 33,
                    "time": 62.303817999999914,
                    "velocity": 0.48031496062992124,
                    "duration": 0.36223150000000004
                },
                {
                    "name": "A2",
                    "midi": 45,
                    "time": 62.303817999999914,
                    "velocity": 0.6377952755905512,
                    "duration": 0.36223150000000004
                },
                {
                    "name": "D#4",
                    "midi": 63,
                    "time": 62.666049499999914,
                    "velocity": 0.44881889763779526,
                    "duration": 0.18111574999999647
                },
                {
                    "name": "F#3",
                    "midi": 54,
                    "time": 62.666049499999914,
                    "velocity": 0.3700787401574803,
                    "duration": 0.18111574999999647
                },
                {
                    "name": "D#3",
                    "midi": 51,
                    "time": 62.666049499999914,
                    "velocity": 0.30708661417322836,
                    "duration": 0.18111574999999647
                },
                {
                    "name": "D#1",
                    "midi": 27,
                    "time": 63.39051249999991,
                    "velocity": 0.5039370078740157,
                    "duration": 0.36223150000000004
                },
                {
                    "name": "D#2",
                    "midi": 39,
                    "time": 63.39051249999991,
                    "velocity": 0.6456692913385826,
                    "duration": 0.36223150000000004
                },
                {
                    "name": "A1",
                    "midi": 33,
                    "time": 63.75274399999991,
                    "velocity": 0.6141732283464567,
                    "duration": 0.36223150000000714
                },
                {
                    "name": "A2",
                    "midi": 45,
                    "time": 63.75274399999991,
                    "velocity": 0.7716535433070866,
                    "duration": 0.36223150000000714
                },
                {
                    "name": "D#4",
                    "midi": 63,
                    "time": 64.11497549999991,
                    "velocity": 0.48031496062992124,
                    "duration": 0.18111575000000357
                },
                {
                    "name": "F#3",
                    "midi": 54,
                    "time": 64.11497549999991,
                    "velocity": 0.3937007874015748,
                    "duration": 0.18111575000000357
                },
                {
                    "name": "D#3",
                    "midi": 51,
                    "time": 64.11497549999991,
                    "velocity": 0.33070866141732286,
                    "duration": 0.18111575000000357
                },
                {
                    "name": "D#1",
                    "midi": 27,
                    "time": 64.83943849999993,
                    "velocity": 0.44881889763779526,
                    "duration": 0.36223149999999293
                },
                {
                    "name": "D#2",
                    "midi": 39,
                    "time": 64.83943849999993,
                    "velocity": 0.6062992125984252,
                    "duration": 0.36223149999999293
                },
                {
                    "name": "A1",
                    "midi": 33,
                    "time": 65.20166999999992,
                    "velocity": 0.5826771653543307,
                    "duration": 0.36223150000000714
                },
                {
                    "name": "A2",
                    "midi": 45,
                    "time": 65.20166999999992,
                    "velocity": 0.7322834645669292,
                    "duration": 0.36223150000000714
                },
                {
                    "name": "D#4",
                    "midi": 63,
                    "time": 65.56390149999993,
                    "velocity": 0.5196850393700787,
                    "duration": 0.18111575000000357
                },
                {
                    "name": "F#3",
                    "midi": 54,
                    "time": 65.56390149999993,
                    "velocity": 0.4330708661417323,
                    "duration": 0.18111575000000357
                },
                {
                    "name": "D#3",
                    "midi": 51,
                    "time": 65.56390149999993,
                    "velocity": 0.36220472440944884,
                    "duration": 0.18111575000000357
                },
                {
                    "name": "D#1",
                    "midi": 27,
                    "time": 66.28836449999994,
                    "velocity": 0.4881889763779528,
                    "duration": 0.36223149999999293
                },
                {
                    "name": "D#2",
                    "midi": 39,
                    "time": 66.28836449999994,
                    "velocity": 0.6456692913385826,
                    "duration": 0.36223149999999293
                },
                {
                    "name": "G#1",
                    "midi": 32,
                    "time": 66.65059599999994,
                    "velocity": 0.5984251968503937,
                    "duration": 0.36223149999999293
                },
                {
                    "name": "G#2",
                    "midi": 44,
                    "time": 66.65059599999994,
                    "velocity": 0.7795275590551181,
                    "duration": 0.36223149999999293
                },
                {
                    "name": "D#3",
                    "midi": 51,
                    "time": 67.01282749999993,
                    "velocity": 0.4015748031496063,
                    "duration": 0.18111575000000357
                },
                {
                    "name": "F#4",
                    "midi": 66,
                    "time": 67.01282749999993,
                    "velocity": 0.5748031496062992,
                    "duration": 0.18111575000000357
                },
                {
                    "name": "C4",
                    "midi": 60,
                    "time": 67.01282749999993,
                    "velocity": 0.48031496062992124,
                    "duration": 0.18111575000000357
                },
                {
                    "name": "D#1",
                    "midi": 27,
                    "time": 67.73729049999993,
                    "velocity": 0.41732283464566927,
                    "duration": 0.36223149999999293
                },
                {
                    "name": "D#2",
                    "midi": 39,
                    "time": 67.73729049999993,
                    "velocity": 0.5433070866141733,
                    "duration": 0.36223149999999293
                },
                {
                    "name": "G#1",
                    "midi": 32,
                    "time": 68.09952199999992,
                    "velocity": 0.49606299212598426,
                    "duration": 0.36223149999999293
                },
                {
                    "name": "G#2",
                    "midi": 44,
                    "time": 68.09952199999992,
                    "velocity": 0.6456692913385826,
                    "duration": 0.36223149999999293
                },
                {
                    "name": "D#3",
                    "midi": 51,
                    "time": 68.46175349999992,
                    "velocity": 0.33858267716535434,
                    "duration": 0.18111575000000357
                },
                {
                    "name": "F#4",
                    "midi": 66,
                    "time": 68.46175349999992,
                    "velocity": 0.48031496062992124,
                    "duration": 0.18111575000000357
                },
                {
                    "name": "C4",
                    "midi": 60,
                    "time": 68.46175349999992,
                    "velocity": 0.4015748031496063,
                    "duration": 0.18111575000000357
                },
                {
                    "name": "G#1",
                    "midi": 32,
                    "time": 69.18621649999992,
                    "velocity": 0.4566929133858268,
                    "duration": 0.36223149999999293
                },
                {
                    "name": "G#2",
                    "midi": 44,
                    "time": 69.54844799999991,
                    "velocity": 0.5748031496062992,
                    "duration": 0.36223149999999293
                },
                {
                    "name": "F3",
                    "midi": 53,
                    "time": 69.9106794999999,
                    "velocity": 0.33858267716535434,
                    "duration": 0.18111575000000357
                },
                {
                    "name": "F4",
                    "midi": 65,
                    "time": 69.9106794999999,
                    "velocity": 0.4094488188976378,
                    "duration": 0.18111575000000357
                },
                {
                    "name": "C#4",
                    "midi": 61,
                    "time": 69.9106794999999,
                    "velocity": 0.33858267716535434,
                    "duration": 0.18111575000000357
                },
                {
                    "name": "G#1",
                    "midi": 32,
                    "time": 70.63514249999992,
                    "velocity": 0.4015748031496063,
                    "duration": 0.36223149999999293
                },
                {
                    "name": "G#2",
                    "midi": 44,
                    "time": 70.99737399999991,
                    "velocity": 0.4566929133858268,
                    "duration": 0.36223149999999293
                },
                {
                    "name": "C#4",
                    "midi": 61,
                    "time": 71.3596054999999,
                    "velocity": 0.3543307086614173,
                    "duration": 0.18111575000000357
                },
                {
                    "name": "F3",
                    "midi": 53,
                    "time": 71.3596054999999,
                    "velocity": 0.2992125984251969,
                    "duration": 0.18111575000000357
                },
                {
                    "name": "G#1",
                    "midi": 32,
                    "time": 72.0840684999999,
                    "velocity": 0.33070866141732286,
                    "duration": 0.36223149999999293
                },
                {
                    "name": "G#2",
                    "midi": 44,
                    "time": 72.4462999999999,
                    "velocity": 0.3858267716535433,
                    "duration": 0.36223149999999293
                },
                {
                    "name": "D#3",
                    "midi": 51,
                    "time": 72.80853149999989,
                    "velocity": 0.23622047244094488,
                    "duration": 0.18111575000000357
                },
                {
                    "name": "C4",
                    "midi": 60,
                    "time": 72.80853149999989,
                    "velocity": 0.29133858267716534,
                    "duration": 0.18111575000000357
                },
                {
                    "name": "F#3",
                    "midi": 54,
                    "time": 72.80853149999989,
                    "velocity": 0.23622047244094488,
                    "duration": 0.18111575000000357
                },
                {
                    "name": "G#1",
                    "midi": 32,
                    "time": 73.53299449999989,
                    "velocity": 0.33070866141732286,
                    "duration": 0.36223149999999293
                },
                {
                    "name": "G#2",
                    "midi": 44,
                    "time": 73.89522599999988,
                    "velocity": 0.4015748031496063,
                    "duration": 0.36223149999999293
                },
                {
                    "name": "C#4",
                    "midi": 61,
                    "time": 74.25745749999987,
                    "velocity": 0.2992125984251969,
                    "duration": 0.18111575000000357
                },
                {
                    "name": "E3",
                    "midi": 52,
                    "time": 74.25745749999987,
                    "velocity": 0.1889763779527559,
                    "duration": 0.18111575000000357
                },
                {
                    "name": "G#1",
                    "midi": 32,
                    "time": 74.98192049999989,
                    "velocity": 0.3543307086614173,
                    "duration": 0.36223149999999293
                },
                {
                    "name": "G#2",
                    "midi": 44,
                    "time": 75.34415199999988,
                    "velocity": 0.3858267716535433,
                    "duration": 0.36223149999999293
                },
                {
                    "name": "D#3",
                    "midi": 51,
                    "time": 75.70638349999987,
                    "velocity": 0.23622047244094488,
                    "duration": 0.18111575000000357
                },
                {
                    "name": "C4",
                    "midi": 60,
                    "time": 75.70638349999987,
                    "velocity": 0.29133858267716534,
                    "duration": 0.18111575000000357
                },
                {
                    "name": "F#3",
                    "midi": 54,
                    "time": 75.70638349999987,
                    "velocity": 0.23622047244094488,
                    "duration": 0.18111575000000357
                },
                {
                    "name": "G#2",
                    "midi": 44,
                    "time": 76.43084649999987,
                    "velocity": 0.33070866141732286,
                    "duration": 0.36223149999999293
                },
                {
                    "name": "C#3",
                    "midi": 49,
                    "time": 76.79307799999987,
                    "velocity": 0.4015748031496063,
                    "duration": 0.36223149999999293
                },
                {
                    "name": "C#4",
                    "midi": 61,
                    "time": 77.15530949999986,
                    "velocity": 0.2992125984251969,
                    "duration": 0.18111575000000357
                },
                {
                    "name": "E3",
                    "midi": 52,
                    "time": 77.15530949999986,
                    "velocity": 0.1889763779527559,
                    "duration": 0.18111575000000357
                },
                {
                    "name": "G2",
                    "midi": 43,
                    "time": 77.87977249999987,
                    "velocity": 0.3543307086614173,
                    "duration": 0.36223149999999293
                },
                {
                    "name": "F#2",
                    "midi": 42,
                    "time": 78.24200399999987,
                    "velocity": 0.3858267716535433,
                    "duration": 0.36223150000000714
                },
                {
                    "name": "F#3",
                    "midi": 54,
                    "time": 78.60423549999987,
                    "velocity": 0.23622047244094488,
                    "duration": 0.18111575000000357
                },
                {
                    "name": "E4",
                    "midi": 64,
                    "time": 78.60423549999987,
                    "velocity": 0.29133858267716534,
                    "duration": 0.18111575000000357
                },
                {
                    "name": "A#3",
                    "midi": 58,
                    "time": 78.60423549999987,
                    "velocity": 0.23622047244094488,
                    "duration": 0.18111575000000357
                },
                {
                    "name": "F#1",
                    "midi": 30,
                    "time": 79.32869849999989,
                    "velocity": 0.33070866141732286,
                    "duration": 0.36223149999999293
                },
                {
                    "name": "F#2",
                    "midi": 42,
                    "time": 79.69092999999988,
                    "velocity": 0.4015748031496063,
                    "duration": 0.36223149999999293
                },
                {
                    "name": "B3",
                    "midi": 59,
                    "time": 80.05316149999987,
                    "velocity": 0.1889763779527559,
                    "duration": 0.18111575000000357
                },
                {
                    "name": "D4",
                    "midi": 62,
                    "time": 80.05316149999987,
                    "velocity": 0.2992125984251969,
                    "duration": 0.18111575000000357
                },
                {
                    "name": "F#3",
                    "midi": 54,
                    "time": 80.05316149999987,
                    "velocity": 0.1889763779527559,
                    "duration": 0.18111575000000357
                },
                {
                    "name": "F2",
                    "midi": 41,
                    "time": 80.77762449999989,
                    "velocity": 0.3543307086614173,
                    "duration": 0.36223149999999293
                },
                {
                    "name": "E2",
                    "midi": 40,
                    "time": 81.13985599999988,
                    "velocity": 0.3858267716535433,
                    "duration": 0.36223149999999293
                },
                {
                    "name": "E3",
                    "midi": 52,
                    "time": 81.50208749999987,
                    "velocity": 0.23622047244094488,
                    "duration": 0.18111575000000357
                },
                {
                    "name": "D4",
                    "midi": 62,
                    "time": 81.50208749999987,
                    "velocity": 0.29133858267716534,
                    "duration": 0.18111575000000357
                },
                {
                    "name": "G#3",
                    "midi": 56,
                    "time": 81.50208749999987,
                    "velocity": 0.23622047244094488,
                    "duration": 0.18111575000000357
                },
                {
                    "name": "E1",
                    "midi": 28,
                    "time": 82.22655049999987,
                    "velocity": 0.33070866141732286,
                    "duration": 0.36223149999999293
                },
                {
                    "name": "E2",
                    "midi": 40,
                    "time": 82.58878199999987,
                    "velocity": 0.4015748031496063,
                    "duration": 0.36223149999999293
                },
                {
                    "name": "A3",
                    "midi": 57,
                    "time": 82.95101349999986,
                    "velocity": 0.1889763779527559,
                    "duration": 0.18111575000000357
                },
                {
                    "name": "C4",
                    "midi": 60,
                    "time": 82.95101349999986,
                    "velocity": 0.2992125984251969,
                    "duration": 0.18111575000000357
                },
                {
                    "name": "E3",
                    "midi": 52,
                    "time": 82.95101349999986,
                    "velocity": 0.1889763779527559,
                    "duration": 0.18111575000000357
                },
                {
                    "name": "E1",
                    "midi": 28,
                    "time": 83.67547649999986,
                    "velocity": 0.2992125984251969,
                    "duration": 0.36223149999999293
                },
                {
                    "name": "E2",
                    "midi": 40,
                    "time": 83.67547649999986,
                    "velocity": 0.3543307086614173,
                    "duration": 0.36223149999999293
                },
                {
                    "name": "F1",
                    "midi": 29,
                    "time": 84.03770799999985,
                    "velocity": 0.3779527559055118,
                    "duration": 0.36223149999999293
                },
                {
                    "name": "F2",
                    "midi": 41,
                    "time": 84.03770799999985,
                    "velocity": 0.44881889763779526,
                    "duration": 0.36223149999999293
                },
                {
                    "name": "C3",
                    "midi": 48,
                    "time": 84.58105524999985,
                    "velocity": 0.3228346456692913,
                    "duration": 0.7244630000000143
                },
                {
                    "name": "F3",
                    "midi": 53,
                    "time": 84.67161312499985,
                    "velocity": 0.3228346456692913,
                    "duration": 0.6339051250000125
                },
                {
                    "name": "D#4",
                    "midi": 63,
                    "time": 84.76217099999985,
                    "velocity": 0.3858267716535433,
                    "duration": 0.5433472500000107
                },
                {
                    "name": "A#2",
                    "midi": 46,
                    "time": 85.30551824999986,
                    "velocity": 0.3464566929133858,
                    "duration": 0.7244630000000143
                },
                {
                    "name": "F3",
                    "midi": 53,
                    "time": 85.39607612499987,
                    "velocity": 0.3464566929133858,
                    "duration": 0.6339051250000125
                },
                {
                    "name": "C#4",
                    "midi": 61,
                    "time": 85.48663399999987,
                    "velocity": 0.4094488188976378,
                    "duration": 0.5433472500000107
                },
                {
                    "name": "D#3",
                    "midi": 51,
                    "time": 86.02998124999988,
                    "velocity": 0.31496062992125984,
                    "duration": 0.7244630000000001
                },
                {
                    "name": "A#3",
                    "midi": 58,
                    "time": 86.12053912499988,
                    "velocity": 0.31496062992125984,
                    "duration": 0.6339051249999983
                },
                {
                    "name": "F#4",
                    "midi": 66,
                    "time": 86.21109699999988,
                    "velocity": 0.3700787401574803,
                    "duration": 0.5433472499999965
                },
                {
                    "name": "G#2",
                    "midi": 44,
                    "time": 86.75444424999988,
                    "velocity": 0.3779527559055118,
                    "duration": 0.7244630000000001
                },
                {
                    "name": "F#3",
                    "midi": 54,
                    "time": 86.84500212499988,
                    "velocity": 0.3779527559055118,
                    "duration": 0.6339051249999983
                },
                {
                    "name": "C4",
                    "midi": 60,
                    "time": 86.93555999999988,
                    "velocity": 0.44881889763779526,
                    "duration": 0.5433472499999965
                },
                {
                    "name": "C#3",
                    "midi": 49,
                    "time": 87.47890724999988,
                    "velocity": 0.3228346456692913,
                    "duration": 0.7244630000000001
                },
                {
                    "name": "G#3",
                    "midi": 56,
                    "time": 87.56946512499988,
                    "velocity": 0.3228346456692913,
                    "duration": 0.6339051249999983
                },
                {
                    "name": "F4",
                    "midi": 65,
                    "time": 87.66002299999988,
                    "velocity": 0.3858267716535433,
                    "duration": 0.5433472499999965
                },
                {
                    "name": "F#2",
                    "midi": 42,
                    "time": 88.20337024999988,
                    "velocity": 0.3464566929133858,
                    "duration": 0.7244630000000001
                },
                {
                    "name": "C#3",
                    "midi": 49,
                    "time": 88.29392812499988,
                    "velocity": 0.3464566929133858,
                    "duration": 0.6339051249999983
                },
                {
                    "name": "A#3",
                    "midi": 58,
                    "time": 88.38448599999988,
                    "velocity": 0.4094488188976378,
                    "duration": 0.5433472499999965
                },
                {
                    "name": "C3",
                    "midi": 48,
                    "time": 88.92783324999988,
                    "velocity": 0.31496062992125984,
                    "duration": 0.7244630000000143
                },
                {
                    "name": "F#3",
                    "midi": 54,
                    "time": 89.01839112499988,
                    "velocity": 0.31496062992125984,
                    "duration": 0.6339051250000125
                },
                {
                    "name": "D#4",
                    "midi": 63,
                    "time": 89.10894899999988,
                    "velocity": 0.3700787401574803,
                    "duration": 0.5433472500000107
                },
                {
                    "name": "A#3",
                    "midi": 58,
                    "time": 89.8334119999999,
                    "velocity": 0.31496062992125984,
                    "duration": 0.7244630000000001
                },
                {
                    "name": "F3",
                    "midi": 53,
                    "time": 89.8334119999999,
                    "velocity": 0.31496062992125984,
                    "duration": 0.7244630000000001
                },
                {
                    "name": "C#3",
                    "midi": 49,
                    "time": 89.8334119999999,
                    "velocity": 0.31496062992125984,
                    "duration": 0.7244630000000001
                },
                {
                    "name": "C#4",
                    "midi": 61,
                    "time": 89.8334119999999,
                    "velocity": 0.3700787401574803,
                    "duration": 0.7244630000000001
                },
                {
                    "name": "D#3",
                    "midi": 51,
                    "time": 90.5578749999999,
                    "velocity": 0.31496062992125984,
                    "duration": 0.7244630000000001
                },
                {
                    "name": "F#3",
                    "midi": 54,
                    "time": 90.5578749999999,
                    "velocity": 0.31496062992125984,
                    "duration": 0.7244630000000001
                },
                {
                    "name": "A#3",
                    "midi": 58,
                    "time": 90.5578749999999,
                    "velocity": 0.31496062992125984,
                    "duration": 0.7244630000000001
                },
                {
                    "name": "C4",
                    "midi": 60,
                    "time": 90.5578749999999,
                    "velocity": 0.3700787401574803,
                    "duration": 0.7244630000000001
                },
                {
                    "name": "F#3",
                    "midi": 54,
                    "time": 92.0068009999999,
                    "velocity": 0.41732283464566927,
                    "duration": 0.18111575000000357
                },
                {
                    "name": "F3",
                    "midi": 53,
                    "time": 92.1879167499999,
                    "velocity": 0.4015748031496063,
                    "duration": 0.18111575000000357
                },
                {
                    "name": "E3",
                    "midi": 52,
                    "time": 92.3690324999999,
                    "velocity": 0.3779527559055118,
                    "duration": 0.18111575000000357
                },
                {
                    "name": "D#3",
                    "midi": 51,
                    "time": 92.5501482499999,
                    "velocity": 0.36220472440944884,
                    "duration": 0.18111575000000357
                },
                {
                    "name": "F3",
                    "midi": 53,
                    "time": 92.73126399999991,
                    "velocity": 0.4251968503937008,
                    "duration": 0.18111575000000357
                },
                {
                    "name": "E3",
                    "midi": 52,
                    "time": 92.91237974999991,
                    "velocity": 0.4094488188976378,
                    "duration": 0.18111575000000357
                },
                {
                    "name": "D#3",
                    "midi": 51,
                    "time": 93.09349549999992,
                    "velocity": 0.3858267716535433,
                    "duration": 0.18111575000000357
                },
                {
                    "name": "D3",
                    "midi": 50,
                    "time": 93.27461124999992,
                    "velocity": 0.3700787401574803,
                    "duration": 0.18111575000000357
                },
                {
                    "name": "E3",
                    "midi": 52,
                    "time": 93.45572699999992,
                    "velocity": 0.4094488188976378,
                    "duration": 0.18111575000000357
                },
                {
                    "name": "D#3",
                    "midi": 51,
                    "time": 93.63684274999993,
                    "velocity": 0.3858267716535433,
                    "duration": 0.18111575000000357
                },
                {
                    "name": "D3",
                    "midi": 50,
                    "time": 93.81795849999993,
                    "velocity": 0.3700787401574803,
                    "duration": 0.18111575000000357
                },
                {
                    "name": "C#3",
                    "midi": 49,
                    "time": 93.99907424999994,
                    "velocity": 0.3543307086614173,
                    "duration": 0.18111575000000357
                },
                {
                    "name": "D#3",
                    "midi": 51,
                    "time": 94.18018999999994,
                    "velocity": 0.3937007874015748,
                    "duration": 0.18111575000000357
                },
                {
                    "name": "D3",
                    "midi": 50,
                    "time": 94.36130574999994,
                    "velocity": 0.3779527559055118,
                    "duration": 0.18111575000000357
                },
                {
                    "name": "C#3",
                    "midi": 49,
                    "time": 94.54242149999995,
                    "velocity": 0.36220472440944884,
                    "duration": 0.18111575000000357
                },
                {
                    "name": "C3",
                    "midi": 48,
                    "time": 94.72353724999995,
                    "velocity": 0.33858267716535434,
                    "duration": 0.18111575000000357
                },
                {
                    "name": "D#3",
                    "midi": 51,
                    "time": 94.90465299999995,
                    "velocity": 0.3858267716535433,
                    "duration": 0.18111575000000357
                },
                {
                    "name": "C#3",
                    "midi": 49,
                    "time": 95.08576874999996,
                    "velocity": 0.36220472440944884,
                    "duration": 0.18111575000000357
                },
                {
                    "name": "C3",
                    "midi": 48,
                    "time": 95.26688449999996,
                    "velocity": 0.3464566929133858,
                    "duration": 0.18111575000000357
                },
                {
                    "name": "A#2",
                    "midi": 46,
                    "time": 95.44800024999996,
                    "velocity": 0.3228346456692913,
                    "duration": 0.18111575000000357
                },
                {
                    "name": "D#2",
                    "midi": 39,
                    "time": 95.62911599999997,
                    "velocity": 0.30708661417322836,
                    "duration": 0.36223149999999293
                },
                {
                    "name": "F#3",
                    "midi": 54,
                    "time": 95.99134749999996,
                    "velocity": 0.2204724409448819,
                    "duration": 0.18111575000000357
                },
                {
                    "name": "A2",
                    "midi": 45,
                    "time": 95.99134749999996,
                    "velocity": 0.18110236220472442,
                    "duration": 0.18111575000000357
                },
                {
                    "name": "D#2",
                    "midi": 39,
                    "time": 96.71581049999996,
                    "velocity": 0.33070866141732286,
                    "duration": 0.36223149999999293
                },
                {
                    "name": "C#2",
                    "midi": 37,
                    "time": 97.07804199999995,
                    "velocity": 0.4251968503937008,
                    "duration": 0.36223149999999293
                },
                {
                    "name": "F3",
                    "midi": 53,
                    "time": 97.44027349999995,
                    "velocity": 0.25196850393700787,
                    "duration": 0.18111575000000357
                },
                {
                    "name": "A#2",
                    "midi": 46,
                    "time": 97.44027349999995,
                    "velocity": 0.16535433070866143,
                    "duration": 0.18111575000000357
                },
                {
                    "name": "C#2",
                    "midi": 37,
                    "time": 98.16473649999995,
                    "velocity": 0.2677165354330709,
                    "duration": 0.36223149999999293
                },
                {
                    "name": "D#2",
                    "midi": 39,
                    "time": 98.52696799999994,
                    "velocity": 0.3228346456692913,
                    "duration": 0.36223149999999293
                },
                {
                    "name": "F#3",
                    "midi": 54,
                    "time": 98.88919949999993,
                    "velocity": 0.2283464566929134,
                    "duration": 0.18111575000000357
                },
                {
                    "name": "A2",
                    "midi": 45,
                    "time": 98.88919949999993,
                    "velocity": 0.1968503937007874,
                    "duration": 0.18111575000000357
                },
                {
                    "name": "D#2",
                    "midi": 39,
                    "time": 99.61366249999993,
                    "velocity": 0.33070866141732286,
                    "duration": 0.36223149999999293
                },
                {
                    "name": "C#2",
                    "midi": 37,
                    "time": 99.97589399999993,
                    "velocity": 0.4409448818897638,
                    "duration": 0.36223149999999293
                },
                {
                    "name": "F3",
                    "midi": 53,
                    "time": 100.33812549999992,
                    "velocity": 0.25984251968503935,
                    "duration": 0.18111575000000357
                },
                {
                    "name": "A#2",
                    "midi": 46,
                    "time": 100.33812549999992,
                    "velocity": 0.2204724409448819,
                    "duration": 0.18111575000000357
                },
                {
                    "name": "C#2",
                    "midi": 37,
                    "time": 101.06258849999992,
                    "velocity": 0.28346456692913385,
                    "duration": 0.36223149999999293
                },
                {
                    "name": "D#2",
                    "midi": 39,
                    "time": 101.42481999999991,
                    "velocity": 0.30708661417322836,
                    "duration": 0.36223149999999293
                },
                {
                    "name": "F#3",
                    "midi": 54,
                    "time": 101.7870514999999,
                    "velocity": 0.2283464566929134,
                    "duration": 0.18111575000000357
                },
                {
                    "name": "A#2",
                    "midi": 46,
                    "time": 101.7870514999999,
                    "velocity": 0.1968503937007874,
                    "duration": 0.18111575000000357
                },
                {
                    "name": "D#2",
                    "midi": 39,
                    "time": 102.5115144999999,
                    "velocity": 0.3228346456692913,
                    "duration": 0.36223149999999293
                },
                {
                    "name": "F2",
                    "midi": 41,
                    "time": 102.8737459999999,
                    "velocity": 0.3858267716535433,
                    "duration": 0.36223149999999293
                },
                {
                    "name": "A#3",
                    "midi": 58,
                    "time": 103.23597749999989,
                    "velocity": 0.23622047244094488,
                    "duration": 0.18111575000000357
                },
                {
                    "name": "C#3",
                    "midi": 49,
                    "time": 103.23597749999989,
                    "velocity": 0.2047244094488189,
                    "duration": 0.18111575000000357
                },
                {
                    "name": "F1",
                    "midi": 29,
                    "time": 103.96044049999989,
                    "velocity": 0.2992125984251969,
                    "duration": 0.36223149999999293
                },
                {
                    "name": "F2",
                    "midi": 41,
                    "time": 104.32267199999988,
                    "velocity": 0.30708661417322836,
                    "duration": 0.36223149999999293
                },
                {
                    "name": "A3",
                    "midi": 57,
                    "time": 104.68490349999988,
                    "velocity": 0.2283464566929134,
                    "duration": 0.18111575000000357
                },
                {
                    "name": "D#3",
                    "midi": 51,
                    "time": 104.68490349999988,
                    "velocity": 0.1968503937007874,
                    "duration": 0.18111575000000357
                },
                {
                    "name": "F2",
                    "midi": 41,
                    "time": 105.40936649999988,
                    "velocity": 0.31496062992125984,
                    "duration": 0.36223149999999293
                },
                {
                    "name": "A#2",
                    "midi": 46,
                    "time": 105.77159799999987,
                    "velocity": 0.44881889763779526,
                    "duration": 0.36223149999999293
                },
                {
                    "name": "C#4",
                    "midi": 61,
                    "time": 106.13382949999986,
                    "velocity": 0.25984251968503935,
                    "duration": 0.18111575000000357
                },
                {
                    "name": "F3",
                    "midi": 53,
                    "time": 106.13382949999986,
                    "velocity": 0.2204724409448819,
                    "duration": 0.18111575000000357
                },
                {
                    "name": "C#2",
                    "midi": 37,
                    "time": 106.85829249999986,
                    "velocity": 0.28346456692913385,
                    "duration": 0.36223149999999293
                },
                {
                    "name": "D#2",
                    "midi": 39,
                    "time": 107.22052399999986,
                    "velocity": 0.33858267716535434,
                    "duration": 0.36223149999999293
                },
                {
                    "name": "F#3",
                    "midi": 54,
                    "time": 107.58275549999985,
                    "velocity": 0.2204724409448819,
                    "duration": 0.18111575000000357
                },
                {
                    "name": "A2",
                    "midi": 45,
                    "time": 107.58275549999985,
                    "velocity": 0.18110236220472442,
                    "duration": 0.18111575000000357
                },
                {
                    "name": "D#2",
                    "midi": 39,
                    "time": 108.30721849999985,
                    "velocity": 0.33070866141732286,
                    "duration": 0.36223149999999293
                },
                {
                    "name": "C#2",
                    "midi": 37,
                    "time": 108.66944999999984,
                    "velocity": 0.4409448818897638,
                    "duration": 0.36223149999999293
                },
                {
                    "name": "F3",
                    "midi": 53,
                    "time": 109.03168149999983,
                    "velocity": 0.25196850393700787,
                    "duration": 0.18111575000000357
                },
                {
                    "name": "A#2",
                    "midi": 46,
                    "time": 109.03168149999983,
                    "velocity": 0.16535433070866143,
                    "duration": 0.18111575000000357
                },
                {
                    "name": "C#2",
                    "midi": 37,
                    "time": 109.75614449999983,
                    "velocity": 0.2677165354330709,
                    "duration": 0.36223149999999293
                },
                {
                    "name": "D#2",
                    "midi": 39,
                    "time": 110.11837599999983,
                    "velocity": 0.3779527559055118,
                    "duration": 0.36223149999999293
                },
                {
                    "name": "F#3",
                    "midi": 54,
                    "time": 110.48060749999982,
                    "velocity": 0.2755905511811024,
                    "duration": 0.18111575000000357
                },
                {
                    "name": "A2",
                    "midi": 45,
                    "time": 110.48060749999982,
                    "velocity": 0.23622047244094488,
                    "duration": 0.18111575000000357
                },
                {
                    "name": "D#2",
                    "midi": 39,
                    "time": 111.20507049999982,
                    "velocity": 0.33858267716535434,
                    "duration": 0.36223149999999293
                },
                {
                    "name": "C#2",
                    "midi": 37,
                    "time": 111.56730199999981,
                    "velocity": 0.49606299212598426,
                    "duration": 0.36223149999999293
                },
                {
                    "name": "F3",
                    "midi": 53,
                    "time": 111.9295334999998,
                    "velocity": 0.30708661417322836,
                    "duration": 0.18111575000000357
                },
                {
                    "name": "A#2",
                    "midi": 46,
                    "time": 111.9295334999998,
                    "velocity": 0.25984251968503935,
                    "duration": 0.18111575000000357
                },
                {
                    "name": "C#2",
                    "midi": 37,
                    "time": 112.6539964999998,
                    "velocity": 0.33858267716535434,
                    "duration": 0.36223149999999293
                },
                {
                    "name": "D#2",
                    "midi": 39,
                    "time": 113.0162279999998,
                    "velocity": 0.3779527559055118,
                    "duration": 0.7244630000000001
                },
                {
                    "name": "B2",
                    "midi": 47,
                    "time": 113.0162279999998,
                    "velocity": 0.3779527559055118,
                    "duration": 0.7244630000000001
                },
                {
                    "name": "F#3",
                    "midi": 54,
                    "time": 113.0162279999998,
                    "velocity": 0.44881889763779526,
                    "duration": 0.7244630000000001
                },
                {
                    "name": "D#3",
                    "midi": 51,
                    "time": 114.46515399999979,
                    "velocity": 0.4094488188976378,
                    "duration": 0.7244630000000001
                },
                {
                    "name": "F#3",
                    "midi": 54,
                    "time": 114.46515399999979,
                    "velocity": 0.4094488188976378,
                    "duration": 0.7244630000000001
                },
                {
                    "name": "B3",
                    "midi": 59,
                    "time": 114.46515399999979,
                    "velocity": 0.4094488188976378,
                    "duration": 0.7244630000000001
                },
                {
                    "name": "F#4",
                    "midi": 66,
                    "time": 114.46515399999979,
                    "velocity": 0.48031496062992124,
                    "duration": 0.7244630000000001
                },
                {
                    "name": "C#3",
                    "midi": 49,
                    "time": 115.18961699999979,
                    "velocity": 0.36220472440944884,
                    "duration": 0.7244630000000001
                },
                {
                    "name": "F#3",
                    "midi": 54,
                    "time": 115.18961699999979,
                    "velocity": 0.36220472440944884,
                    "duration": 0.7244630000000001
                },
                {
                    "name": "A#3",
                    "midi": 58,
                    "time": 115.18961699999979,
                    "velocity": 0.36220472440944884,
                    "duration": 0.7244630000000001
                },
                {
                    "name": "E4",
                    "midi": 64,
                    "time": 115.18961699999979,
                    "velocity": 0.4330708661417323,
                    "duration": 0.7244630000000001
                },
                {
                    "name": "D#4",
                    "midi": 63,
                    "time": 115.91407999999979,
                    "velocity": 0.5118110236220472,
                    "duration": 1.4489260000000002
                },
                {
                    "name": "B2",
                    "midi": 47,
                    "time": 115.91407999999979,
                    "velocity": 0.4330708661417323,
                    "duration": 0.7244630000000001
                },
                {
                    "name": "F#3",
                    "midi": 54,
                    "time": 115.91407999999979,
                    "velocity": 0.4330708661417323,
                    "duration": 0.7244630000000001
                },
                {
                    "name": "E1",
                    "midi": 28,
                    "time": 118.81193199999979,
                    "velocity": 0.4094488188976378,
                    "duration": 0.2113017083333375
                },
                {
                    "name": "F1",
                    "midi": 29,
                    "time": 118.99304774999979,
                    "velocity": 0.4094488188976378,
                    "duration": 0.2113017083333375
                },
                {
                    "name": "A#1",
                    "midi": 34,
                    "time": 119.17416349999979,
                    "velocity": 0.4094488188976378,
                    "duration": 0.2113017083333375
                },
                {
                    "name": "A1",
                    "midi": 33,
                    "time": 119.3552792499998,
                    "velocity": 0.41732283464566927,
                    "duration": 0.2113017083333375
                },
                {
                    "name": "F#1",
                    "midi": 30,
                    "time": 119.5363949999998,
                    "velocity": 0.41732283464566927,
                    "duration": 0.2113017083333375
                },
                {
                    "name": "F1",
                    "midi": 29,
                    "time": 119.7175107499998,
                    "velocity": 0.41732283464566927,
                    "duration": 0.2113017083333375
                },
                {
                    "name": "C#2",
                    "midi": 37,
                    "time": 119.8986264999998,
                    "velocity": 0.4251968503937008,
                    "duration": 0.2113017083333375
                },
                {
                    "name": "C2",
                    "midi": 36,
                    "time": 120.07974224999981,
                    "velocity": 0.4251968503937008,
                    "duration": 0.2113017083333375
                },
                {
                    "name": "A#1",
                    "midi": 34,
                    "time": 120.26085799999981,
                    "velocity": 0.4251968503937008,
                    "duration": 0.2113017083333375
                },
                {
                    "name": "A1",
                    "midi": 33,
                    "time": 120.44197374999982,
                    "velocity": 0.4330708661417323,
                    "duration": 0.2113017083333375
                },
                {
                    "name": "F#2",
                    "midi": 42,
                    "time": 120.62308949999982,
                    "velocity": 0.4330708661417323,
                    "duration": 0.2113017083333375
                },
                {
                    "name": "F2",
                    "midi": 41,
                    "time": 120.80420524999982,
                    "velocity": 0.4409448818897638,
                    "duration": 0.2113017083333375
                },
                {
                    "name": "C#2",
                    "midi": 37,
                    "time": 120.98532099999983,
                    "velocity": 0.4409448818897638,
                    "duration": 0.2113017083333375
                },
                {
                    "name": "C2",
                    "midi": 36,
                    "time": 121.16643674999983,
                    "velocity": 0.4409448818897638,
                    "duration": 0.2113017083333375
                },
                {
                    "name": "A#2",
                    "midi": 46,
                    "time": 121.34755249999984,
                    "velocity": 0.4409448818897638,
                    "duration": 0.2113017083333375
                },
                {
                    "name": "A2",
                    "midi": 45,
                    "time": 121.52866824999984,
                    "velocity": 0.4409448818897638,
                    "duration": 0.2113017083333375
                },
                {
                    "name": "F#2",
                    "midi": 42,
                    "time": 121.70978399999984,
                    "velocity": 0.4409448818897638,
                    "duration": 0.2113017083333375
                },
                {
                    "name": "F2",
                    "midi": 41,
                    "time": 121.89089974999985,
                    "velocity": 0.44881889763779526,
                    "duration": 0.2113017083333375
                },
                {
                    "name": "C#3",
                    "midi": 49,
                    "time": 122.07201549999985,
                    "velocity": 0.44881889763779526,
                    "duration": 0.2113017083333375
                },
                {
                    "name": "C3",
                    "midi": 48,
                    "time": 122.25313124999985,
                    "velocity": 0.44881889763779526,
                    "duration": 0.2113017083333375
                },
                {
                    "name": "A#2",
                    "midi": 46,
                    "time": 122.43424699999986,
                    "velocity": 0.4566929133858268,
                    "duration": 0.2113017083333375
                },
                {
                    "name": "A2",
                    "midi": 45,
                    "time": 122.61536274999986,
                    "velocity": 0.4566929133858268,
                    "duration": 0.2113017083333375
                },
                {
                    "name": "F#3",
                    "midi": 54,
                    "time": 122.79647849999986,
                    "velocity": 0.4566929133858268,
                    "duration": 0.2113017083333375
                },
                {
                    "name": "F3",
                    "midi": 53,
                    "time": 122.97759424999987,
                    "velocity": 0.4645669291338583,
                    "duration": 0.2113017083333375
                },
                {
                    "name": "C#3",
                    "midi": 49,
                    "time": 123.15870999999987,
                    "velocity": 0.4645669291338583,
                    "duration": 0.2113017083333375
                },
                {
                    "name": "C3",
                    "midi": 48,
                    "time": 123.33982574999987,
                    "velocity": 0.47244094488188976,
                    "duration": 0.2113017083333375
                },
                {
                    "name": "A#3",
                    "midi": 58,
                    "time": 123.52094149999988,
                    "velocity": 0.47244094488188976,
                    "duration": 0.2113017083333375
                },
                {
                    "name": "A3",
                    "midi": 57,
                    "time": 123.70205724999988,
                    "velocity": 0.47244094488188976,
                    "duration": 0.2113017083333375
                },
                {
                    "name": "F#3",
                    "midi": 54,
                    "time": 123.88317299999989,
                    "velocity": 0.47244094488188976,
                    "duration": 0.2113017083333375
                },
                {
                    "name": "F3",
                    "midi": 53,
                    "time": 124.06428874999989,
                    "velocity": 0.47244094488188976,
                    "duration": 0.2113017083333375
                },
                {
                    "name": "C#4",
                    "midi": 61,
                    "time": 124.24540449999989,
                    "velocity": 0.47244094488188976,
                    "duration": 0.2113017083333375
                },
                {
                    "name": "C4",
                    "midi": 60,
                    "time": 124.4265202499999,
                    "velocity": 0.48031496062992124,
                    "duration": 0.18111575000000357
                },
                {
                    "name": "A#3",
                    "midi": 58,
                    "time": 124.6076359999999,
                    "velocity": 0.48031496062992124,
                    "duration": 0.2113017083333375
                },
                {
                    "name": "A3",
                    "midi": 57,
                    "time": 124.7887517499999,
                    "velocity": 0.48031496062992124,
                    "duration": 0.2113017083333375
                },
                {
                    "name": "F#4",
                    "midi": 66,
                    "time": 124.9698674999999,
                    "velocity": 0.4881889763779528,
                    "duration": 0.2113017083333375
                },
                {
                    "name": "F4",
                    "midi": 65,
                    "time": 125.15098324999991,
                    "velocity": 0.4881889763779528,
                    "duration": 0.2113017083333375
                },
                {
                    "name": "C#4",
                    "midi": 61,
                    "time": 125.33209899999991,
                    "velocity": 0.49606299212598426,
                    "duration": 0.2113017083333375
                },
                {
                    "name": "C4",
                    "midi": 60,
                    "time": 125.51321474999992,
                    "velocity": 0.49606299212598426,
                    "duration": 0.2113017083333375
                },
                {
                    "name": "A#4",
                    "midi": 70,
                    "time": 125.69433049999992,
                    "velocity": 0.49606299212598426,
                    "duration": 0.2113017083333375
                },
                {
                    "name": "A4",
                    "midi": 69,
                    "time": 125.87544624999992,
                    "velocity": 0.5039370078740157,
                    "duration": 0.2113017083333375
                },
                {
                    "name": "F#4",
                    "midi": 66,
                    "time": 126.05656199999993,
                    "velocity": 0.5039370078740157,
                    "duration": 0.2113017083333375
                },
                {
                    "name": "F4",
                    "midi": 65,
                    "time": 126.23767774999993,
                    "velocity": 0.5039370078740157,
                    "duration": 0.2113017083333375
                },
                {
                    "name": "C#5",
                    "midi": 73,
                    "time": 126.41879349999994,
                    "velocity": 0.5039370078740157,
                    "duration": 0.2113017083333375
                },
                {
                    "name": "C5",
                    "midi": 72,
                    "time": 126.59990924999994,
                    "velocity": 0.5039370078740157,
                    "duration": 0.2113017083333375
                },
                {
                    "name": "A#4",
                    "midi": 70,
                    "time": 126.78102499999994,
                    "velocity": 0.5039370078740157,
                    "duration": 0.2113017083333375
                },
                {
                    "name": "A4",
                    "midi": 69,
                    "time": 126.96214074999995,
                    "velocity": 0.5118110236220472,
                    "duration": 0.2113017083333375
                },
                {
                    "name": "F#5",
                    "midi": 78,
                    "time": 127.14325649999995,
                    "velocity": 0.5118110236220472,
                    "duration": 0.2113017083333375
                },
                {
                    "name": "F5",
                    "midi": 77,
                    "time": 127.32437224999995,
                    "velocity": 0.5118110236220472,
                    "duration": 0.2113017083333375
                },
                {
                    "name": "C#5",
                    "midi": 73,
                    "time": 127.50548799999996,
                    "velocity": 0.5196850393700787,
                    "duration": 0.2113017083333375
                },
                {
                    "name": "C5",
                    "midi": 72,
                    "time": 127.68660374999996,
                    "velocity": 0.5196850393700787,
                    "duration": 0.2113017083333375
                },
                {
                    "name": "A#5",
                    "midi": 82,
                    "time": 127.86771949999996,
                    "velocity": 0.5275590551181102,
                    "duration": 0.2113017083333375
                },
                {
                    "name": "A5",
                    "midi": 81,
                    "time": 128.04883524999997,
                    "velocity": 0.5275590551181102,
                    "duration": 0.2113017083333375
                },
                {
                    "name": "F#5",
                    "midi": 78,
                    "time": 128.22995099999997,
                    "velocity": 0.5275590551181102,
                    "duration": 0.2113017083333375
                },
                {
                    "name": "F5",
                    "midi": 77,
                    "time": 128.41106674999997,
                    "velocity": 0.5354330708661418,
                    "duration": 0.2113017083333375
                },
                {
                    "name": "C#6",
                    "midi": 85,
                    "time": 128.59218249999998,
                    "velocity": 0.5354330708661418,
                    "duration": 0.2113017083333375
                },
                {
                    "name": "C6",
                    "midi": 84,
                    "time": 128.77329824999998,
                    "velocity": 0.5354330708661418,
                    "duration": 0.2113017083333375
                },
                {
                    "name": "F6",
                    "midi": 89,
                    "time": 128.95441399999999,
                    "velocity": 0.5826771653543307,
                    "duration": 0.2113017083333375
                },
                {
                    "name": "F2",
                    "midi": 41,
                    "time": 129.678877,
                    "velocity": 0.5039370078740157,
                    "duration": 0.18111575000000357
                },
                {
                    "name": "F3",
                    "midi": 53,
                    "time": 129.678877,
                    "velocity": 0.5905511811023622,
                    "duration": 0.18111575000000357
                },
                {
                    "name": "A#1",
                    "midi": 34,
                    "time": 130.22222425,
                    "velocity": 0.7165354330708661,
                    "duration": 0.18111575000000357
                },
                {
                    "name": "A#2",
                    "midi": 46,
                    "time": 130.40334000000001,
                    "velocity": 0.5669291338582677,
                    "duration": 0.7244629999999859
                },
                {
                    "name": "F3",
                    "midi": 53,
                    "time": 130.40334000000001,
                    "velocity": 0.5669291338582677,
                    "duration": 0.7244629999999859
                },
                {
                    "name": "C#4",
                    "midi": 61,
                    "time": 130.40334000000001,
                    "velocity": 0.6771653543307087,
                    "duration": 0.7244629999999859
                }
            ],
            "controlChanges": {
                "7": [
                    {
                        "number": 7,
                        "time": 0,
                        "value": 0.7874015748031497
                    }
                ],
                "10": [
                    {
                        "number": 10,
                        "time": 0,
                        "value": 0.5039370078740157
                    }
                ],
                "64": [
                    {
                        "number": 64,
                        "time": 0,
                        "value": 0
                    },
                    {
                        "number": 64,
                        "time": 0,
                        "value": 1
                    },
                    {
                        "number": 64,
                        "time": 2.897852,
                        "value": 0
                    },
                    {
                        "number": 64,
                        "time": 2.99293776875,
                        "value": 1
                    },
                    {
                        "number": 64,
                        "time": 3.44572714375,
                        "value": 0
                    },
                    {
                        "number": 64,
                        "time": 4.4237521937499995,
                        "value": 1
                    },
                    {
                        "number": 64,
                        "time": 4.905218229166667,
                        "value": 0
                    },
                    {
                        "number": 64,
                        "time": 5.8047597875,
                        "value": 1
                    },
                    {
                        "number": 64,
                        "time": 6.3435791437499995,
                        "value": 0
                    },
                    {
                        "number": 64,
                        "time": 7.305001916666667,
                        "value": 1
                    },
                    {
                        "number": 64,
                        "time": 7.8106167187499995,
                        "value": 0
                    },
                    {
                        "number": 64,
                        "time": 8.710158277083332,
                        "value": 1
                    },
                    {
                        "number": 64,
                        "time": 9.256524122916666,
                        "value": 0
                    },
                    {
                        "number": 64,
                        "time": 10.142482,
                        "value": 1
                    },
                    {
                        "number": 64,
                        "time": 10.706959420833332,
                        "value": 0
                    },
                    {
                        "number": 64,
                        "time": 11.591408,
                        "value": 1
                    },
                    {
                        "number": 64,
                        "time": 12.329454681249999,
                        "value": 0
                    },
                    {
                        "number": 64,
                        "time": 13.1037245125,
                        "value": 1
                    },
                    {
                        "number": 64,
                        "time": 13.775362085416667,
                        "value": 0
                    },
                    {
                        "number": 64,
                        "time": 14.4983157875,
                        "value": 1
                    },
                    {
                        "number": 64,
                        "time": 15.231834575,
                        "value": 0
                    },
                    {
                        "number": 64,
                        "time": 15.981955639583333,
                        "value": 1
                    },
                    {
                        "number": 64,
                        "time": 16.674723383333333,
                        "value": 0
                    },
                    {
                        "number": 64,
                        "time": 17.430881639583333,
                        "value": 1
                    },
                    {
                        "number": 64,
                        "time": 18.135723766666665,
                        "value": 0
                    },
                    {
                        "number": 64,
                        "time": 18.87075185208333,
                        "value": 1
                    },
                    {
                        "number": 64,
                        "time": 19.58615906458333,
                        "value": 0
                    },
                    {
                        "number": 64,
                        "time": 20.31062206458333,
                        "value": 1
                    },
                    {
                        "number": 64,
                        "time": 21.029047872916664,
                        "value": 0
                    },
                    {
                        "number": 64,
                        "time": 21.77765963958333,
                        "value": 1
                    },
                    {
                        "number": 64,
                        "time": 22.484011064583328,
                        "value": 0
                    },
                    {
                        "number": 64,
                        "time": 23.25677159791666,
                        "value": 1
                    },
                    {
                        "number": 64,
                        "time": 23.735219037499995,
                        "value": 0
                    },
                    {
                        "number": 64,
                        "time": 24.70569759791666,
                        "value": 1
                    },
                    {
                        "number": 64,
                        "time": 25.19621942083333,
                        "value": 0
                    },
                    {
                        "number": 64,
                        "time": 26.106326064583328,
                        "value": 1
                    },
                    {
                        "number": 64,
                        "time": 26.823242574999995,
                        "value": 0
                    },
                    {
                        "number": 64,
                        "time": 27.55525206458333,
                        "value": 1
                    },
                    {
                        "number": 64,
                        "time": 28.27971506458333,
                        "value": 0
                    },
                    {
                        "number": 64,
                        "time": 29.029836129166664,
                        "value": 1
                    },
                    {
                        "number": 64,
                        "time": 29.718075979166663,
                        "value": 0
                    },
                    {
                        "number": 64,
                        "time": 30.462159852083328,
                        "value": 1
                    },
                    {
                        "number": 64,
                        "time": 31.17303917083333,
                        "value": 0
                    },
                    {
                        "number": 64,
                        "time": 31.90203006458333,
                        "value": 1
                    },
                    {
                        "number": 64,
                        "time": 32.60989078749999,
                        "value": 0
                    },
                    {
                        "number": 64,
                        "time": 33.376614129166654,
                        "value": 1
                    },
                    {
                        "number": 64,
                        "time": 34.07089117083332,
                        "value": 0
                    },
                    {
                        "number": 64,
                        "time": 34.77422399999999,
                        "value": 1
                    },
                    {
                        "number": 64,
                        "time": 35.51528927708332,
                        "value": 0
                    },
                    {
                        "number": 64,
                        "time": 36.17938036041665,
                        "value": 1
                    },
                    {
                        "number": 64,
                        "time": 36.96119668124998,
                        "value": 0
                    },
                    {
                        "number": 64,
                        "time": 37.68867827708332,
                        "value": 1
                    },
                    {
                        "number": 64,
                        "time": 38.419178468749976,
                        "value": 0
                    },
                    {
                        "number": 64,
                        "time": 39.16477163958331,
                        "value": 1
                    },
                    {
                        "number": 64,
                        "time": 39.86659517083331,
                        "value": 0
                    },
                    {
                        "number": 64,
                        "time": 40.60464185208331,
                        "value": 1
                    },
                    {
                        "number": 64,
                        "time": 41.31703046874997,
                        "value": 0
                    },
                    {
                        "number": 64,
                        "time": 42.053567852083305,
                        "value": 1
                    },
                    {
                        "number": 64,
                        "time": 42.7644471708333,
                        "value": 0
                    },
                    {
                        "number": 64,
                        "time": 43.52815191666664,
                        "value": 1
                    },
                    {
                        "number": 64,
                        "time": 44.2088452770833,
                        "value": 0
                    },
                    {
                        "number": 64,
                        "time": 44.925761787499965,
                        "value": 1
                    },
                    {
                        "number": 64,
                        "time": 45.65324338333329,
                        "value": 0
                    },
                    {
                        "number": 64,
                        "time": 46.39129006458329,
                        "value": 1
                    },
                    {
                        "number": 64,
                        "time": 49.263483999999956,
                        "value": 0
                    },
                    {
                        "number": 64,
                        "time": 49.35856976874996,
                        "value": 1
                    },
                    {
                        "number": 64,
                        "time": 50.01209576666662,
                        "value": 0
                    },
                    {
                        "number": 64,
                        "time": 50.789384193749946,
                        "value": 1
                    },
                    {
                        "number": 64,
                        "time": 51.45196597916661,
                        "value": 0
                    },
                    {
                        "number": 64,
                        "time": 52.230763704166606,
                        "value": 1
                    },
                    {
                        "number": 64,
                        "time": 52.90692917083327,
                        "value": 0
                    },
                    {
                        "number": 64,
                        "time": 53.67063391666661,
                        "value": 1
                    },
                    {
                        "number": 64,
                        "time": 55.1376714916666,
                        "value": 1
                    },
                    {
                        "number": 64,
                        "time": 55.800253277083264,
                        "value": 0
                    },
                    {
                        "number": 64,
                        "time": 56.568485916666596,
                        "value": 1
                    },
                    {
                        "number": 64,
                        "time": 57.244651383333256,
                        "value": 0
                    },
                    {
                        "number": 64,
                        "time": 58.04306998124992,
                        "value": 1
                    },
                    {
                        "number": 64,
                        "time": 58.70263317083325,
                        "value": 0
                    },
                    {
                        "number": 64,
                        "time": 59.53425632291659,
                        "value": 1
                    },
                    {
                        "number": 64,
                        "time": 60.154577766666584,
                        "value": 0
                    },
                    {
                        "number": 64,
                        "time": 60.91526391666658,
                        "value": 1
                    },
                    {
                        "number": 64,
                        "time": 61.600485170833245,
                        "value": 0
                    },
                    {
                        "number": 64,
                        "time": 62.39890376874992,
                        "value": 1
                    },
                    {
                        "number": 64,
                        "time": 63.05092046874991,
                        "value": 0
                    },
                    {
                        "number": 64,
                        "time": 63.84782976874991,
                        "value": 1
                    },
                    {
                        "number": 64,
                        "time": 64.50135576666659,
                        "value": 0
                    },
                    {
                        "number": 64,
                        "time": 65.33146962083326,
                        "value": 1
                    },
                    {
                        "number": 64,
                        "time": 65.9502817666666,
                        "value": 0
                    },
                    {
                        "number": 64,
                        "time": 66.7471910666666,
                        "value": 1
                    },
                    {
                        "number": 64,
                        "time": 67.3946798729166,
                        "value": 0
                    },
                    {
                        "number": 64,
                        "time": 68.19611706666659,
                        "value": 1
                    },
                    {
                        "number": 64,
                        "time": 68.84964306458325,
                        "value": 0
                    },
                    {
                        "number": 64,
                        "time": 69.62240359791657,
                        "value": 1
                    },
                    {
                        "number": 64,
                        "time": 70.28951327708324,
                        "value": 0
                    },
                    {
                        "number": 64,
                        "time": 71.07132959791657,
                        "value": 1
                    },
                    {
                        "number": 64,
                        "time": 71.74749506458323,
                        "value": 0
                    },
                    {
                        "number": 64,
                        "time": 72.51874629999989,
                        "value": 1
                    },
                    {
                        "number": 64,
                        "time": 73.19038387291656,
                        "value": 0
                    },
                    {
                        "number": 64,
                        "time": 74.01144193958321,
                        "value": 1
                    },
                    {
                        "number": 64,
                        "time": 74.64232846874988,
                        "value": 0
                    },
                    {
                        "number": 64,
                        "time": 75.43169127916654,
                        "value": 1
                    },
                    {
                        "number": 64,
                        "time": 76.08672657499987,
                        "value": 0
                    },
                    {
                        "number": 64,
                        "time": 76.85797781041653,
                        "value": 1
                    },
                    {
                        "number": 64,
                        "time": 77.54018046874987,
                        "value": 0
                    },
                    {
                        "number": 64,
                        "time": 78.2948294270832,
                        "value": 1
                    },
                    {
                        "number": 64,
                        "time": 78.98910646874988,
                        "value": 0
                    },
                    {
                        "number": 64,
                        "time": 79.78601576874988,
                        "value": 1
                    },
                    {
                        "number": 64,
                        "time": 80.43048597916655,
                        "value": 0
                    },
                    {
                        "number": 64,
                        "time": 81.21833949166654,
                        "value": 1
                    },
                    {
                        "number": 64,
                        "time": 81.88544917083321,
                        "value": 0
                    },
                    {
                        "number": 64,
                        "time": 82.66726549166653,
                        "value": 1
                    },
                    {
                        "number": 64,
                        "time": 83.33135657499986,
                        "value": 0
                    },
                    {
                        "number": 64,
                        "time": 84.10260781041652,
                        "value": 1
                    },
                    {
                        "number": 64,
                        "time": 84.78028257499986,
                        "value": 0
                    },
                    {
                        "number": 64,
                        "time": 84.8421637895832,
                        "value": 1
                    },
                    {
                        "number": 64,
                        "time": 85.51078276666654,
                        "value": 0
                    },
                    {
                        "number": 64,
                        "time": 85.55606170416654,
                        "value": 1
                    },
                    {
                        "number": 64,
                        "time": 86.23222717083321,
                        "value": 0
                    },
                    {
                        "number": 64,
                        "time": 86.33184083333322,
                        "value": 1
                    },
                    {
                        "number": 64,
                        "time": 86.95065297916655,
                        "value": 0
                    },
                    {
                        "number": 64,
                        "time": 87.04724804583321,
                        "value": 1
                    },
                    {
                        "number": 64,
                        "time": 87.67511597916655,
                        "value": 0
                    },
                    {
                        "number": 64,
                        "time": 87.75661806666655,
                        "value": 1
                    },
                    {
                        "number": 64,
                        "time": 88.41316266041655,
                        "value": 0
                    },
                    {
                        "number": 64,
                        "time": 88.48862755624988,
                        "value": 1
                    },
                    {
                        "number": 64,
                        "time": 89.12404197916655,
                        "value": 0
                    },
                    {
                        "number": 64,
                        "time": 89.17837670416655,
                        "value": 1
                    },
                    {
                        "number": 64,
                        "time": 89.85001427708323,
                        "value": 0
                    },
                    {
                        "number": 64,
                        "time": 113.07659991666647,
                        "value": 1
                    },
                    {
                        "number": 64,
                        "time": 113.7542746812498,
                        "value": 0
                    },
                    {
                        "number": 64,
                        "time": 113.87049062083312,
                        "value": 1
                    },
                    {
                        "number": 64,
                        "time": 114.48628417083312,
                        "value": 0
                    },
                    {
                        "number": 64,
                        "time": 114.56023976874978,
                        "value": 1
                    },
                    {
                        "number": 64,
                        "time": 115.20470997916645,
                        "value": 0
                    },
                    {
                        "number": 64,
                        "time": 115.31036083333312,
                        "value": 1
                    },
                    {
                        "number": 64,
                        "time": 115.92766368124978,
                        "value": 0
                    },
                    {
                        "number": 64,
                        "time": 116.06048189791645,
                        "value": 1
                    },
                    {
                        "number": 64,
                        "time": 118.10105268124978,
                        "value": 0
                    },
                    {
                        "number": 64,
                        "time": 129.72264663958333,
                        "value": 1
                    },
                    {
                        "number": 64,
                        "time": 129.98073658333334,
                        "value": 0
                    },
                    {
                        "number": 64,
                        "time": 130.22222425,
                        "value": 1
                    },
                    {
                        "number": 64,
                        "time": 133.50343792083333,
                        "value": 0
                    }
                ],
                "91": [
                    {
                        "number": 91,
                        "time": 0,
                        "value": 1
                    },
                    {
                        "number": 91,
                        "time": 0,
                        "value": 1
                    }
                ]
            },
            "id": 2,
            "name": "Piano left",
            "instrumentNumber": 0,
            "instrument": "acoustic grand piano",
            "instrumentFamily": "piano",
            "channelNumber": 0,
            "isPercussion": false
        },
        {
            "startTime": 0,
            "duration": 0,
            "length": 0,
            "notes": [],
            "controlChanges": {},
            "id": 3,
            "name": "Chopin: Prelude No.16 in Bb Minor Op. 28"
        },
        {
            "startTime": 0,
            "duration": 0,
            "length": 0,
            "notes": [],
            "controlChanges": {},
            "id": 4,
            "name": "Copyright  2002 by Bernd Krueger"
        },
        {
            "startTime": 0,
            "duration": 0,
            "length": 0,
            "notes": [],
            "controlChanges": {},
            "id": 5,
            "name": "http://www.piano-midi.de"
        },
        {
            "startTime": 0,
            "duration": 0,
            "length": 0,
            "notes": [],
            "controlChanges": {},
            "id": 6,
            "name": "Edition: 2014-02-14"
        },
        {
            "startTime": 0,
            "duration": 0,
            "length": 0,
            "notes": [],
            "controlChanges": {
                "7": [
                    {
                        "number": 7,
                        "time": 0,
                        "value": 1
                    }
                ],
                "10": [
                    {
                        "number": 10,
                        "time": 0,
                        "value": 0.5039370078740157
                    }
                ]
            },
            "id": 7,
            "name": "Spur 7"
        },
        {
            "startTime": 0,
            "duration": 0,
            "length": 0,
            "notes": [],
            "controlChanges": {
                "7": [
                    {
                        "number": 7,
                        "time": 0,
                        "value": 1
                    }
                ],
                "10": [
                    {
                        "number": 10,
                        "time": 0,
                        "value": 0.5039370078740157
                    }
                ]
            },
            "id": 8,
            "name": "Spur 8"
        }
    ]
}