{
    "header": {
        "PPQ": 480,
        "timeSignature": [
            4,
            4
        ],
        "bpm": 83.99996640001343,
        "name": "Chopin Etude  No. 1, Opus 25"
    },
    "startTime": 0,
    "duration": 142.8572000000002,
    "tracks": [
        {
            "startTime": 0,
            "duration": 0,
            "length": 0,
            "notes": [],
            "controlChanges": {},
            "id": 0,
            "name": "Chopin Etude  No. 1, Opus 25"
        },
        {
            "startTime": 2.1428580000000004,
            "duration": 142.8572000000002,
            "length": 180,
            "notes": [
                {
                    "name": "D#5",
                    "midi": 75,
                    "time": 2.1428580000000004,
                    "velocity": 0.3858267716535433,
                    "duration": 0.714286
                },
                {
                    "name": "D#5",
                    "midi": 75,
                    "time": 2.8571440000000004,
                    "velocity": 0.31496062992125984,
                    "duration": 0.714286
                },
                {
                    "name": "D#5",
                    "midi": 75,
                    "time": 3.5714300000000003,
                    "velocity": 0.3464566929133858,
                    "duration": 0.7142860000000004
                },
                {
                    "name": "D#5",
                    "midi": 75,
                    "time": 4.285716000000001,
                    "velocity": 0.3858267716535433,
                    "duration": 0.7142860000000004
                },
                {
                    "name": "D#5",
                    "midi": 75,
                    "time": 5.000002000000001,
                    "velocity": 0.4094488188976378,
                    "duration": 0.7142860000000004
                },
                {
                    "name": "F5",
                    "midi": 77,
                    "time": 5.714288000000002,
                    "velocity": 0.4330708661417323,
                    "duration": 0.7142860000000004
                },
                {
                    "name": "D#5",
                    "midi": 75,
                    "time": 6.428574000000002,
                    "velocity": 0.4094488188976378,
                    "duration": 0.7142860000000004
                },
                {
                    "name": "D#5",
                    "midi": 75,
                    "time": 7.142860000000002,
                    "velocity": 0.3937007874015748,
                    "duration": 0.7142860000000004
                },
                {
                    "name": "D#5",
                    "midi": 75,
                    "time": 7.857146000000003,
                    "velocity": 0.4015748031496063,
                    "duration": 0.7142860000000004
                },
                {
                    "name": "D#5",
                    "midi": 75,
                    "time": 8.571432000000003,
                    "velocity": 0.4330708661417323,
                    "duration": 0.7142859999999995
                },
                {
                    "name": "D#5",
                    "midi": 75,
                    "time": 9.285718000000003,
                    "velocity": 0.47244094488188976,
                    "duration": 0.7142859999999995
                },
                {
                    "name": "F5",
                    "midi": 77,
                    "time": 10.000004000000002,
                    "velocity": 0.4881889763779528,
                    "duration": 0.7142859999999995
                },
                {
                    "name": "D#5",
                    "midi": 75,
                    "time": 10.714290000000002,
                    "velocity": 0.48031496062992124,
                    "duration": 0.7142859999999995
                },
                {
                    "name": "A#5",
                    "midi": 82,
                    "time": 11.428576000000001,
                    "velocity": 0.5196850393700787,
                    "duration": 0.7142859999999995
                },
                {
                    "name": "G#5",
                    "midi": 80,
                    "time": 12.142862000000001,
                    "velocity": 0.5039370078740157,
                    "duration": 0.7142859999999995
                },
                {
                    "name": "G#5",
                    "midi": 80,
                    "time": 12.857148,
                    "velocity": 0.5511811023622047,
                    "duration": 0.7142859999999995
                },
                {
                    "name": "G#5",
                    "midi": 80,
                    "time": 13.571434,
                    "velocity": 0.5433070866141733,
                    "duration": 0.7142859999999995
                },
                {
                    "name": "G#5",
                    "midi": 80,
                    "time": 14.28572,
                    "velocity": 0.5748031496062992,
                    "duration": 0.7142859999999995
                },
                {
                    "name": "G#5",
                    "midi": 80,
                    "time": 15.000005999999999,
                    "velocity": 0.5511811023622047,
                    "duration": 0.7142859999999995
                },
                {
                    "name": "G#5",
                    "midi": 80,
                    "time": 15.714291999999999,
                    "velocity": 0.6062992125984252,
                    "duration": 0.7142859999999995
                },
                {
                    "name": "A#5",
                    "midi": 82,
                    "time": 16.428577999999998,
                    "velocity": 0.6062992125984252,
                    "duration": 0.7142860000000013
                },
                {
                    "name": "C6",
                    "midi": 84,
                    "time": 17.142864,
                    "velocity": 0.6299212598425197,
                    "duration": 0.7142860000000013
                },
                {
                    "name": "A#5",
                    "midi": 82,
                    "time": 17.85715,
                    "velocity": 0.6062992125984252,
                    "duration": 0.7142860000000013
                },
                {
                    "name": "G#5",
                    "midi": 80,
                    "time": 18.571436000000002,
                    "velocity": 0.6062992125984252,
                    "duration": 0.7142860000000013
                },
                {
                    "name": "F5",
                    "midi": 77,
                    "time": 19.285722000000003,
                    "velocity": 0.5511811023622047,
                    "duration": 0.7142860000000013
                },
                {
                    "name": "F5",
                    "midi": 77,
                    "time": 20.000008000000005,
                    "velocity": 0.5669291338582677,
                    "duration": 0.7142860000000013
                },
                {
                    "name": "G5",
                    "midi": 79,
                    "time": 20.714294000000006,
                    "velocity": 0.5669291338582677,
                    "duration": 0.7142860000000013
                },
                {
                    "name": "G#5",
                    "midi": 80,
                    "time": 21.428580000000007,
                    "velocity": 0.5905511811023622,
                    "duration": 0.7142860000000013
                },
                {
                    "name": "A#4",
                    "midi": 70,
                    "time": 22.15774695833334,
                    "velocity": 0.5354330708661418,
                    "duration": 0.6994050416666653
                },
                {
                    "name": "A#4",
                    "midi": 70,
                    "time": 22.857152000000006,
                    "velocity": 0.5511811023622047,
                    "duration": 0.7142860000000013
                },
                {
                    "name": "C5",
                    "midi": 72,
                    "time": 23.571438000000008,
                    "velocity": 0.4881889763779528,
                    "duration": 0.7142860000000013
                },
                {
                    "name": "C#5",
                    "midi": 73,
                    "time": 24.28572400000001,
                    "velocity": 0.49606299212598426,
                    "duration": 0.7142860000000013
                },
                {
                    "name": "D#4",
                    "midi": 63,
                    "time": 25.00001000000001,
                    "velocity": 0.4330708661417323,
                    "duration": 0.7142860000000013
                },
                {
                    "name": "D#5",
                    "midi": 75,
                    "time": 25.71429600000001,
                    "velocity": 0.4015748031496063,
                    "duration": 0.7142860000000013
                },
                {
                    "name": "D#5",
                    "midi": 75,
                    "time": 26.428582000000013,
                    "velocity": 0.3464566929133858,
                    "duration": 0.7142860000000013
                },
                {
                    "name": "D#5",
                    "midi": 75,
                    "time": 27.142868000000014,
                    "velocity": 0.3858267716535433,
                    "duration": 0.7142860000000013
                },
                {
                    "name": "D#5",
                    "midi": 75,
                    "time": 27.857154000000016,
                    "velocity": 0.4094488188976378,
                    "duration": 0.7142860000000013
                },
                {
                    "name": "F5",
                    "midi": 77,
                    "time": 28.571440000000017,
                    "velocity": 0.4330708661417323,
                    "duration": 0.7142860000000013
                },
                {
                    "name": "D#5",
                    "midi": 75,
                    "time": 29.285726000000018,
                    "velocity": 0.4094488188976378,
                    "duration": 0.7142860000000013
                },
                {
                    "name": "D#5",
                    "midi": 75,
                    "time": 30.00001200000002,
                    "velocity": 0.3937007874015748,
                    "duration": 0.7142860000000013
                },
                {
                    "name": "D#5",
                    "midi": 75,
                    "time": 30.71429800000002,
                    "velocity": 0.4015748031496063,
                    "duration": 0.7142860000000013
                },
                {
                    "name": "D#5",
                    "midi": 75,
                    "time": 31.428584000000022,
                    "velocity": 0.4645669291338583,
                    "duration": 0.7142860000000013
                },
                {
                    "name": "A#5",
                    "midi": 82,
                    "time": 32.14287000000002,
                    "velocity": 0.5354330708661418,
                    "duration": 0.7142860000000013
                },
                {
                    "name": "C6",
                    "midi": 84,
                    "time": 32.857156000000025,
                    "velocity": 0.5590551181102362,
                    "duration": 0.7142860000000013
                },
                {
                    "name": "G5",
                    "midi": 79,
                    "time": 33.571442000000026,
                    "velocity": 0.5196850393700787,
                    "duration": 0.7142860000000013
                },
                {
                    "name": "A#5",
                    "midi": 82,
                    "time": 34.28572800000003,
                    "velocity": 0.5669291338582677,
                    "duration": 0.7142860000000013
                },
                {
                    "name": "G#5",
                    "midi": 80,
                    "time": 35.00001400000003,
                    "velocity": 0.5590551181102362,
                    "duration": 0.7142860000000013
                },
                {
                    "name": "G#5",
                    "midi": 80,
                    "time": 35.71430000000003,
                    "velocity": 0.6299212598425197,
                    "duration": 0.7142860000000013
                },
                {
                    "name": "G#5",
                    "midi": 80,
                    "time": 36.42858600000003,
                    "velocity": 0.6456692913385826,
                    "duration": 0.7142860000000013
                },
                {
                    "name": "G#5",
                    "midi": 80,
                    "time": 37.14287200000003,
                    "velocity": 0.6299212598425197,
                    "duration": 0.7142860000000013
                },
                {
                    "name": "G#5",
                    "midi": 80,
                    "time": 37.857158000000034,
                    "velocity": 0.6377952755905512,
                    "duration": 0.7142860000000013
                },
                {
                    "name": "G#5",
                    "midi": 80,
                    "time": 38.571444000000035,
                    "velocity": 0.6614173228346457,
                    "duration": 0.7142860000000013
                },
                {
                    "name": "A#5",
                    "midi": 82,
                    "time": 39.28573000000004,
                    "velocity": 0.6614173228346457,
                    "duration": 0.7142860000000013
                },
                {
                    "name": "C6",
                    "midi": 84,
                    "time": 40.00001600000004,
                    "velocity": 0.6929133858267716,
                    "duration": 0.7142860000000013
                },
                {
                    "name": "G5",
                    "midi": 79,
                    "time": 40.71430200000004,
                    "velocity": 0.6456692913385826,
                    "duration": 0.7142860000000013
                },
                {
                    "name": "G5",
                    "midi": 79,
                    "time": 41.42858800000004,
                    "velocity": 0.6299212598425197,
                    "duration": 0.7142860000000013
                },
                {
                    "name": "G5",
                    "midi": 79,
                    "time": 42.14287400000004,
                    "velocity": 0.5590551181102362,
                    "duration": 0.7142860000000013
                },
                {
                    "name": "G5",
                    "midi": 79,
                    "time": 42.85716000000004,
                    "velocity": 0.5039370078740157,
                    "duration": 0.7142860000000013
                },
                {
                    "name": "G5",
                    "midi": 79,
                    "time": 43.571446000000044,
                    "velocity": 0.5196850393700787,
                    "duration": 0.7142860000000013
                },
                {
                    "name": "G5",
                    "midi": 79,
                    "time": 44.285732000000046,
                    "velocity": 0.5354330708661418,
                    "duration": 0.7142860000000013
                },
                {
                    "name": "G5",
                    "midi": 79,
                    "time": 45.00001800000005,
                    "velocity": 0.47244094488188976,
                    "duration": 0.7142860000000013
                },
                {
                    "name": "D5",
                    "midi": 74,
                    "time": 45.71430400000005,
                    "velocity": 0.41732283464566927,
                    "duration": 0.7142860000000013
                },
                {
                    "name": "C5",
                    "midi": 72,
                    "time": 46.42859000000005,
                    "velocity": 0.4094488188976378,
                    "duration": 0.7142860000000013
                },
                {
                    "name": "C5",
                    "midi": 72,
                    "time": 47.14287600000005,
                    "velocity": 0.41732283464566927,
                    "duration": 0.7142860000000013
                },
                {
                    "name": "C5",
                    "midi": 72,
                    "time": 47.85716200000005,
                    "velocity": 0.3700787401574803,
                    "duration": 0.7142860000000013
                },
                {
                    "name": "C5",
                    "midi": 72,
                    "time": 48.57144800000005,
                    "velocity": 0.3858267716535433,
                    "duration": 0.7142860000000013
                },
                {
                    "name": "C5",
                    "midi": 72,
                    "time": 49.285734000000055,
                    "velocity": 0.3464566929133858,
                    "duration": 0.7142860000000013
                },
                {
                    "name": "C#5",
                    "midi": 73,
                    "time": 50.000020000000056,
                    "velocity": 0.4015748031496063,
                    "duration": 0.7142860000000013
                },
                {
                    "name": "C5",
                    "midi": 72,
                    "time": 50.71430600000006,
                    "velocity": 0.3858267716535433,
                    "duration": 0.7142860000000013
                },
                {
                    "name": "C5",
                    "midi": 72,
                    "time": 51.42859200000006,
                    "velocity": 0.4094488188976378,
                    "duration": 0.7142860000000013
                },
                {
                    "name": "D5",
                    "midi": 74,
                    "time": 52.14287800000006,
                    "velocity": 0.4330708661417323,
                    "duration": 0.7142860000000013
                },
                {
                    "name": "E5",
                    "midi": 76,
                    "time": 52.85716400000006,
                    "velocity": 0.4566929133858268,
                    "duration": 0.7142860000000013
                },
                {
                    "name": "F5",
                    "midi": 77,
                    "time": 53.57145000000006,
                    "velocity": 0.47244094488188976,
                    "duration": 0.7142860000000013
                },
                {
                    "name": "D#5",
                    "midi": 75,
                    "time": 54.285736000000064,
                    "velocity": 0.4645669291338583,
                    "duration": 0.7142860000000013
                },
                {
                    "name": "D#5",
                    "midi": 75,
                    "time": 55.000022000000065,
                    "velocity": 0.5275590551181102,
                    "duration": 0.7142860000000013
                },
                {
                    "name": "F5",
                    "midi": 77,
                    "time": 55.71430800000007,
                    "velocity": 0.5511811023622047,
                    "duration": 0.7142860000000013
                },
                {
                    "name": "D#5",
                    "midi": 75,
                    "time": 56.42859400000007,
                    "velocity": 0.5196850393700787,
                    "duration": 0.7142860000000013
                },
                {
                    "name": "D#5",
                    "midi": 75,
                    "time": 57.14288000000007,
                    "velocity": 0.5669291338582677,
                    "duration": 0.7142860000000013
                },
                {
                    "name": "F5",
                    "midi": 77,
                    "time": 57.85716600000007,
                    "velocity": 0.5905511811023622,
                    "duration": 0.7142860000000013
                },
                {
                    "name": "G5",
                    "midi": 79,
                    "time": 58.57145200000007,
                    "velocity": 0.6299212598425197,
                    "duration": 0.7142860000000013
                },
                {
                    "name": "G#5",
                    "midi": 80,
                    "time": 59.28573800000007,
                    "velocity": 0.6456692913385826,
                    "duration": 0.7142860000000013
                },
                {
                    "name": "G5",
                    "midi": 79,
                    "time": 60.000024000000074,
                    "velocity": 0.6299212598425197,
                    "duration": 0.7142860000000013
                },
                {
                    "name": "G5",
                    "midi": 79,
                    "time": 60.714310000000076,
                    "velocity": 0.6377952755905512,
                    "duration": 0.7142860000000013
                },
                {
                    "name": "G#5",
                    "midi": 80,
                    "time": 61.42859600000008,
                    "velocity": 0.6614173228346457,
                    "duration": 0.7142860000000013
                },
                {
                    "name": "F5",
                    "midi": 77,
                    "time": 62.14288200000008,
                    "velocity": 0.5905511811023622,
                    "duration": 0.7142860000000013
                },
                {
                    "name": "E5",
                    "midi": 76,
                    "time": 62.85716800000008,
                    "velocity": 0.5039370078740157,
                    "duration": 0.7142860000000013
                },
                {
                    "name": "D5",
                    "midi": 74,
                    "time": 63.57145400000008,
                    "velocity": 0.4566929133858268,
                    "duration": 0.7142859999999942
                },
                {
                    "name": "F5",
                    "midi": 77,
                    "time": 64.28574000000008,
                    "velocity": 0.48031496062992124,
                    "duration": 0.7142860000000013
                },
                {
                    "name": "E5",
                    "midi": 76,
                    "time": 65.00002600000008,
                    "velocity": 0.44881889763779526,
                    "duration": 0.7142860000000013
                },
                {
                    "name": "E5",
                    "midi": 76,
                    "time": 65.71431200000008,
                    "velocity": 0.5039370078740157,
                    "duration": 0.7142860000000013
                },
                {
                    "name": "D5",
                    "midi": 74,
                    "time": 66.42859800000008,
                    "velocity": 0.4566929133858268,
                    "duration": 0.7142860000000013
                },
                {
                    "name": "F5",
                    "midi": 77,
                    "time": 67.14288400000008,
                    "velocity": 0.48031496062992124,
                    "duration": 0.7142860000000013
                },
                {
                    "name": "E5",
                    "midi": 76,
                    "time": 67.85717000000008,
                    "velocity": 0.44881889763779526,
                    "duration": 0.7142860000000013
                },
                {
                    "name": "E5",
                    "midi": 76,
                    "time": 68.57145600000008,
                    "velocity": 0.5275590551181102,
                    "duration": 0.7142860000000013
                },
                {
                    "name": "D5",
                    "midi": 74,
                    "time": 69.28574200000008,
                    "velocity": 0.4881889763779528,
                    "duration": 0.7142860000000013
                },
                {
                    "name": "F#5",
                    "midi": 78,
                    "time": 70.00002800000009,
                    "velocity": 0.5433070866141733,
                    "duration": 0.7142860000000013
                },
                {
                    "name": "E5",
                    "midi": 76,
                    "time": 70.71431400000009,
                    "velocity": 0.5275590551181102,
                    "duration": 0.7142860000000013
                },
                {
                    "name": "E5",
                    "midi": 76,
                    "time": 71.42860000000009,
                    "velocity": 0.5669291338582677,
                    "duration": 0.7142860000000013
                },
                {
                    "name": "A5",
                    "midi": 81,
                    "time": 72.14288600000009,
                    "velocity": 0.5826771653543307,
                    "duration": 0.7142860000000013
                },
                {
                    "name": "B5",
                    "midi": 83,
                    "time": 72.85717200000009,
                    "velocity": 0.6456692913385826,
                    "duration": 0.7142860000000013
                },
                {
                    "name": "C6",
                    "midi": 84,
                    "time": 73.57145800000009,
                    "velocity": 0.6220472440944882,
                    "duration": 0.7142860000000013
                },
                {
                    "name": "C6",
                    "midi": 84,
                    "time": 74.2857440000001,
                    "velocity": 0.6614173228346457,
                    "duration": 0.7142860000000013
                },
                {
                    "name": "A#5",
                    "midi": 82,
                    "time": 75.0000300000001,
                    "velocity": 0.6456692913385826,
                    "duration": 0.7142860000000013
                },
                {
                    "name": "C#6",
                    "midi": 85,
                    "time": 75.7143160000001,
                    "velocity": 0.6771653543307087,
                    "duration": 0.7142860000000013
                },
                {
                    "name": "F5",
                    "midi": 77,
                    "time": 76.4286020000001,
                    "velocity": 0.6220472440944882,
                    "duration": 0.7142860000000013
                },
                {
                    "name": "A#5",
                    "midi": 82,
                    "time": 77.1428880000001,
                    "velocity": 0.6614173228346457,
                    "duration": 0.7142860000000013
                },
                {
                    "name": "G#5",
                    "midi": 80,
                    "time": 77.8571740000001,
                    "velocity": 0.6377952755905512,
                    "duration": 0.7142860000000013
                },
                {
                    "name": "C6",
                    "midi": 84,
                    "time": 78.5714600000001,
                    "velocity": 0.6456692913385826,
                    "duration": 0.7142860000000013
                },
                {
                    "name": "D#5",
                    "midi": 75,
                    "time": 79.2857460000001,
                    "velocity": 0.6220472440944882,
                    "duration": 0.7142860000000013
                },
                {
                    "name": "D#5",
                    "midi": 75,
                    "time": 80.0000320000001,
                    "velocity": 0.6614173228346457,
                    "duration": 0.7142860000000013
                },
                {
                    "name": "E5",
                    "midi": 76,
                    "time": 80.7143180000001,
                    "velocity": 0.6377952755905512,
                    "duration": 0.7142860000000013
                },
                {
                    "name": "F5",
                    "midi": 77,
                    "time": 81.4286040000001,
                    "velocity": 0.6456692913385826,
                    "duration": 0.7142860000000013
                },
                {
                    "name": "D#5",
                    "midi": 75,
                    "time": 82.14289000000011,
                    "velocity": 0.6220472440944882,
                    "duration": 0.7142860000000013
                },
                {
                    "name": "C#5",
                    "midi": 73,
                    "time": 82.85717600000011,
                    "velocity": 0.6614173228346457,
                    "duration": 0.7142860000000013
                },
                {
                    "name": "C5",
                    "midi": 72,
                    "time": 83.57146200000011,
                    "velocity": 0.6062992125984252,
                    "duration": 0.7142860000000013
                },
                {
                    "name": "C5",
                    "midi": 72,
                    "time": 84.28574800000011,
                    "velocity": 0.5905511811023622,
                    "duration": 0.7142860000000013
                },
                {
                    "name": "C6",
                    "midi": 84,
                    "time": 85.00003400000011,
                    "velocity": 0.6456692913385826,
                    "duration": 0.7142860000000013
                },
                {
                    "name": "C6",
                    "midi": 84,
                    "time": 85.71432000000011,
                    "velocity": 0.6614173228346457,
                    "duration": 0.7142860000000013
                },
                {
                    "name": "A#5",
                    "midi": 82,
                    "time": 86.42860600000012,
                    "velocity": 0.6456692913385826,
                    "duration": 0.7142860000000013
                },
                {
                    "name": "C#6",
                    "midi": 85,
                    "time": 87.14289200000012,
                    "velocity": 0.6771653543307087,
                    "duration": 0.7142860000000013
                },
                {
                    "name": "E5",
                    "midi": 76,
                    "time": 87.85717800000012,
                    "velocity": 0.6220472440944882,
                    "duration": 0.7142860000000013
                },
                {
                    "name": "A#5",
                    "midi": 82,
                    "time": 88.57146400000012,
                    "velocity": 0.5826771653543307,
                    "duration": 0.7142860000000013
                },
                {
                    "name": "G#5",
                    "midi": 80,
                    "time": 89.28575000000012,
                    "velocity": 0.6141732283464567,
                    "duration": 0.7142860000000013
                },
                {
                    "name": "C6",
                    "midi": 84,
                    "time": 90.00003600000012,
                    "velocity": 0.6456692913385826,
                    "duration": 0.7142860000000013
                },
                {
                    "name": "D#5",
                    "midi": 75,
                    "time": 90.71432200000012,
                    "velocity": 0.6220472440944882,
                    "duration": 0.7142860000000013
                },
                {
                    "name": "D#5",
                    "midi": 75,
                    "time": 91.42860800000012,
                    "velocity": 0.5433070866141733,
                    "duration": 0.7142860000000013
                },
                {
                    "name": "F5",
                    "midi": 77,
                    "time": 92.14289400000013,
                    "velocity": 0.5039370078740157,
                    "duration": 0.7142860000000013
                },
                {
                    "name": "F#5",
                    "midi": 78,
                    "time": 92.85718000000013,
                    "velocity": 0.5748031496062992,
                    "duration": 0.7142860000000013
                },
                {
                    "name": "F5",
                    "midi": 77,
                    "time": 93.57146600000013,
                    "velocity": 0.5433070866141733,
                    "duration": 0.7142860000000013
                },
                {
                    "name": "F5",
                    "midi": 77,
                    "time": 94.28575200000013,
                    "velocity": 0.6141732283464567,
                    "duration": 0.7142860000000013
                },
                {
                    "name": "G5",
                    "midi": 79,
                    "time": 95.00003800000013,
                    "velocity": 0.6220472440944882,
                    "duration": 0.7142860000000013
                },
                {
                    "name": "G#5",
                    "midi": 80,
                    "time": 95.71432400000013,
                    "velocity": 0.6456692913385826,
                    "duration": 0.7142860000000013
                },
                {
                    "name": "G5",
                    "midi": 79,
                    "time": 96.42861000000013,
                    "velocity": 0.6141732283464567,
                    "duration": 0.7142860000000013
                },
                {
                    "name": "G5",
                    "midi": 79,
                    "time": 97.14289600000014,
                    "velocity": 0.6692913385826772,
                    "duration": 0.7142860000000013
                },
                {
                    "name": "G#5",
                    "midi": 80,
                    "time": 97.85718200000014,
                    "velocity": 0.7007874015748031,
                    "duration": 0.7142860000000013
                },
                {
                    "name": "A5",
                    "midi": 81,
                    "time": 98.57146800000014,
                    "velocity": 0.7007874015748031,
                    "duration": 0.7142860000000013
                },
                {
                    "name": "F#6",
                    "midi": 90,
                    "time": 99.28575400000014,
                    "velocity": 0.7322834645669292,
                    "duration": 0.7142860000000013
                },
                {
                    "name": "F6",
                    "midi": 89,
                    "time": 100.00004000000014,
                    "velocity": 0.7401574803149606,
                    "duration": 0.7142860000000013
                },
                {
                    "name": "A#5",
                    "midi": 82,
                    "time": 100.71432600000014,
                    "velocity": 0.6614173228346457,
                    "duration": 0.7142860000000013
                },
                {
                    "name": "C#6",
                    "midi": 85,
                    "time": 101.42861200000014,
                    "velocity": 0.6771653543307087,
                    "duration": 0.7142860000000013
                },
                {
                    "name": "G5",
                    "midi": 79,
                    "time": 102.14289800000014,
                    "velocity": 0.6220472440944882,
                    "duration": 0.7142860000000013
                },
                {
                    "name": "G#5",
                    "midi": 80,
                    "time": 102.85718400000015,
                    "velocity": 0.6377952755905512,
                    "duration": 0.7142860000000013
                },
                {
                    "name": "D#5",
                    "midi": 75,
                    "time": 103.57147000000015,
                    "velocity": 0.48031496062992124,
                    "duration": 0.7142860000000013
                },
                {
                    "name": "D#5",
                    "midi": 75,
                    "time": 104.28575600000015,
                    "velocity": 0.5039370078740157,
                    "duration": 0.7142860000000013
                },
                {
                    "name": "D#5",
                    "midi": 75,
                    "time": 105.00004200000015,
                    "velocity": 0.5433070866141733,
                    "duration": 0.7142860000000013
                },
                {
                    "name": "F5",
                    "midi": 77,
                    "time": 105.71432800000015,
                    "velocity": 0.6062992125984252,
                    "duration": 0.7142860000000013
                },
                {
                    "name": "D#5",
                    "midi": 75,
                    "time": 106.42861400000015,
                    "velocity": 0.5354330708661418,
                    "duration": 0.7142860000000013
                },
                {
                    "name": "C6",
                    "midi": 84,
                    "time": 107.14290000000015,
                    "velocity": 0.5748031496062992,
                    "duration": 0.7142860000000013
                },
                {
                    "name": "G5",
                    "midi": 79,
                    "time": 107.85718600000015,
                    "velocity": 0.5433070866141733,
                    "duration": 0.7142860000000013
                },
                {
                    "name": "G#5",
                    "midi": 80,
                    "time": 108.57147200000016,
                    "velocity": 0.5669291338582677,
                    "duration": 0.7142860000000013
                },
                {
                    "name": "D#5",
                    "midi": 75,
                    "time": 109.28575800000016,
                    "velocity": 0.48031496062992124,
                    "duration": 0.7142860000000013
                },
                {
                    "name": "D#5",
                    "midi": 75,
                    "time": 110.00004400000016,
                    "velocity": 0.5039370078740157,
                    "duration": 0.7142860000000013
                },
                {
                    "name": "D#5",
                    "midi": 75,
                    "time": 110.71433000000016,
                    "velocity": 0.5433070866141733,
                    "duration": 0.7142860000000013
                },
                {
                    "name": "F5",
                    "midi": 77,
                    "time": 111.42861600000016,
                    "velocity": 0.5905511811023622,
                    "duration": 0.7142860000000013
                },
                {
                    "name": "D#5",
                    "midi": 75,
                    "time": 112.14290200000016,
                    "velocity": 0.48031496062992124,
                    "duration": 0.7142860000000013
                },
                {
                    "name": "F6",
                    "midi": 89,
                    "time": 112.85718800000016,
                    "velocity": 0.5196850393700787,
                    "duration": 0.7142860000000013
                },
                {
                    "name": "G5",
                    "midi": 79,
                    "time": 113.57147400000017,
                    "velocity": 0.48031496062992124,
                    "duration": 0.7142860000000013
                },
                {
                    "name": "G#5",
                    "midi": 80,
                    "time": 114.28576000000017,
                    "velocity": 0.5039370078740157,
                    "duration": 0.7142860000000013
                },
                {
                    "name": "D#5",
                    "midi": 75,
                    "time": 115.00004600000017,
                    "velocity": 0.4330708661417323,
                    "duration": 0.7142860000000013
                },
                {
                    "name": "F5",
                    "midi": 77,
                    "time": 115.71433200000017,
                    "velocity": 0.4330708661417323,
                    "duration": 0.7142860000000013
                },
                {
                    "name": "D#5",
                    "midi": 75,
                    "time": 116.42861800000017,
                    "velocity": 0.4409448818897638,
                    "duration": 0.7142860000000013
                },
                {
                    "name": "C#5",
                    "midi": 73,
                    "time": 117.14290400000017,
                    "velocity": 0.47244094488188976,
                    "duration": 0.7142860000000013
                },
                {
                    "name": "C5",
                    "midi": 72,
                    "time": 117.85719000000017,
                    "velocity": 0.4015748031496063,
                    "duration": 0.7142860000000013
                },
                {
                    "name": "C#5",
                    "midi": 73,
                    "time": 118.57147600000017,
                    "velocity": 0.44881889763779526,
                    "duration": 0.7142860000000013
                },
                {
                    "name": "C5",
                    "midi": 72,
                    "time": 119.28576200000018,
                    "velocity": 0.4015748031496063,
                    "duration": 0.7142860000000013
                },
                {
                    "name": "A#4",
                    "midi": 70,
                    "time": 120.00004800000018,
                    "velocity": 0.48031496062992124,
                    "duration": 0.7142860000000013
                },
                {
                    "name": "G#4",
                    "midi": 68,
                    "time": 120.71433400000018,
                    "velocity": 0.3858267716535433,
                    "duration": 0.7142860000000013
                },
                {
                    "name": "A#4",
                    "midi": 70,
                    "time": 121.42862000000018,
                    "velocity": 0.4094488188976378,
                    "duration": 0.7142860000000013
                },
                {
                    "name": "G#4",
                    "midi": 68,
                    "time": 122.14290600000018,
                    "velocity": 0.3858267716535433,
                    "duration": 0.7142860000000013
                },
                {
                    "name": "A#4",
                    "midi": 70,
                    "time": 122.85719200000018,
                    "velocity": 0.4330708661417323,
                    "duration": 0.7142860000000013
                },
                {
                    "name": "G#4",
                    "midi": 68,
                    "time": 123.57147800000018,
                    "velocity": 0.31496062992125984,
                    "duration": 0.7142860000000013
                },
                {
                    "name": "A#4",
                    "midi": 70,
                    "time": 124.28576400000019,
                    "velocity": 0.3937007874015748,
                    "duration": 0.7142860000000013
                },
                {
                    "name": "G#4",
                    "midi": 68,
                    "time": 125.00005000000019,
                    "velocity": 0.33070866141732286,
                    "duration": 0.7142860000000013
                },
                {
                    "name": "G#4",
                    "midi": 68,
                    "time": 137.1429120000002,
                    "velocity": 0.30708661417322836,
                    "duration": 0.35714300000000776
                },
                {
                    "name": "G#6",
                    "midi": 92,
                    "time": 137.8571980000002,
                    "velocity": 0.3228346456692913,
                    "duration": 0.35714300000000776
                },
                {
                    "name": "G#5",
                    "midi": 80,
                    "time": 137.8571980000002,
                    "velocity": 0.3228346456692913,
                    "duration": 0.35714300000000776
                },
                {
                    "name": "C5",
                    "midi": 72,
                    "time": 139.2857700000002,
                    "velocity": 0.2047244094488189,
                    "duration": 0.7142859999999871
                },
                {
                    "name": "D#4",
                    "midi": 63,
                    "time": 139.2857700000002,
                    "velocity": 0.2047244094488189,
                    "duration": 0.7142859999999871
                },
                {
                    "name": "C4",
                    "midi": 60,
                    "time": 140.5357705000002,
                    "velocity": 0.25984251968503935,
                    "duration": 2.3214294999999936
                },
                {
                    "name": "G#4",
                    "midi": 68,
                    "time": 140.71434200000022,
                    "velocity": 0.29133858267716534,
                    "duration": 2.1428579999999897
                }
            ],
            "controlChanges": {
                "7": [
                    {
                        "number": 7,
                        "time": 0,
                        "value": 0.7874015748031497
                    }
                ],
                "10": [
                    {
                        "number": 10,
                        "time": 0,
                        "value": 0.5039370078740157
                    }
                ],
                "91": [
                    {
                        "number": 91,
                        "time": 0,
                        "value": 1
                    }
                ]
            },
            "id": 1,
            "name": "Piano right",
            "instrumentNumber": 0,
            "instrument": "acoustic grand piano",
            "instrumentFamily": "piano",
            "channelNumber": 0,
            "isPercussion": false
        },
        {
            "startTime": 2.9761916666666672,
            "duration": 137.14291199999587,
            "length": 956,
            "notes": [
                {
                    "name": "G#4",
                    "midi": 68,
                    "time": 2.9761916666666672,
                    "velocity": 0.1732283464566929,
                    "duration": 0.11904766666666688
                },
                {
                    "name": "C5",
                    "midi": 72,
                    "time": 3.095239333333334,
                    "velocity": 0.1732283464566929,
                    "duration": 0.11904766666666688
                },
                {
                    "name": "D#4",
                    "midi": 63,
                    "time": 3.214287000000001,
                    "velocity": 0.1732283464566929,
                    "duration": 0.11904766666666688
                },
                {
                    "name": "G#4",
                    "midi": 68,
                    "time": 3.333334666666668,
                    "velocity": 0.1732283464566929,
                    "duration": 0.11904766666666688
                },
                {
                    "name": "C5",
                    "midi": 72,
                    "time": 3.4523823333333348,
                    "velocity": 0.18110236220472442,
                    "duration": 0.11904766666666688
                },
                {
                    "name": "G#4",
                    "midi": 68,
                    "time": 3.6904776666666685,
                    "velocity": 0.18110236220472442,
                    "duration": 0.11904766666666688
                },
                {
                    "name": "C5",
                    "midi": 72,
                    "time": 3.8095253333333354,
                    "velocity": 0.1889763779527559,
                    "duration": 0.11904766666666688
                },
                {
                    "name": "D#4",
                    "midi": 63,
                    "time": 3.9285730000000023,
                    "velocity": 0.1889763779527559,
                    "duration": 0.11904766666666644
                },
                {
                    "name": "G#4",
                    "midi": 68,
                    "time": 4.047620666666669,
                    "velocity": 0.1889763779527559,
                    "duration": 0.11904766666666688
                },
                {
                    "name": "C5",
                    "midi": 72,
                    "time": 4.166668333333336,
                    "velocity": 0.1889763779527559,
                    "duration": 0.11904766666666688
                },
                {
                    "name": "G#4",
                    "midi": 68,
                    "time": 4.404763666666669,
                    "velocity": 0.2047244094488189,
                    "duration": 0.11904766666666688
                },
                {
                    "name": "C5",
                    "midi": 72,
                    "time": 4.523811333333336,
                    "velocity": 0.2047244094488189,
                    "duration": 0.11904766666666688
                },
                {
                    "name": "D#4",
                    "midi": 63,
                    "time": 4.642859000000003,
                    "velocity": 0.2047244094488189,
                    "duration": 0.11904766666666688
                },
                {
                    "name": "G#4",
                    "midi": 68,
                    "time": 4.76190666666667,
                    "velocity": 0.2125984251968504,
                    "duration": 0.11904766666666688
                },
                {
                    "name": "C5",
                    "midi": 72,
                    "time": 4.880954333333337,
                    "velocity": 0.2125984251968504,
                    "duration": 0.11904766666666688
                },
                {
                    "name": "G#4",
                    "midi": 68,
                    "time": 5.119049666666671,
                    "velocity": 0.2125984251968504,
                    "duration": 0.11904766666666688
                },
                {
                    "name": "C5",
                    "midi": 72,
                    "time": 5.238097333333338,
                    "velocity": 0.2204724409448819,
                    "duration": 0.11904766666666688
                },
                {
                    "name": "D#4",
                    "midi": 63,
                    "time": 5.3571450000000045,
                    "velocity": 0.2204724409448819,
                    "duration": 0.11904766666666688
                },
                {
                    "name": "G#4",
                    "midi": 68,
                    "time": 5.476192666666671,
                    "velocity": 0.2204724409448819,
                    "duration": 0.11904766666666688
                },
                {
                    "name": "C5",
                    "midi": 72,
                    "time": 5.595240333333338,
                    "velocity": 0.2204724409448819,
                    "duration": 0.11904766666666688
                },
                {
                    "name": "G#4",
                    "midi": 68,
                    "time": 5.833335666666672,
                    "velocity": 0.23622047244094488,
                    "duration": 0.11904766666666688
                },
                {
                    "name": "C5",
                    "midi": 72,
                    "time": 5.952383333333339,
                    "velocity": 0.2283464566929134,
                    "duration": 0.11904766666666688
                },
                {
                    "name": "D#4",
                    "midi": 63,
                    "time": 6.071431000000006,
                    "velocity": 0.2283464566929134,
                    "duration": 0.11904766666666688
                },
                {
                    "name": "G#4",
                    "midi": 68,
                    "time": 6.190478666666673,
                    "velocity": 0.2283464566929134,
                    "duration": 0.11904766666666688
                },
                {
                    "name": "C5",
                    "midi": 72,
                    "time": 6.30952633333334,
                    "velocity": 0.2283464566929134,
                    "duration": 0.11904766666666688
                },
                {
                    "name": "G#4",
                    "midi": 68,
                    "time": 6.547621666666673,
                    "velocity": 0.2283464566929134,
                    "duration": 0.11904766666666688
                },
                {
                    "name": "C5",
                    "midi": 72,
                    "time": 6.66666933333334,
                    "velocity": 0.2283464566929134,
                    "duration": 0.11904766666666688
                },
                {
                    "name": "D#4",
                    "midi": 63,
                    "time": 6.785717000000007,
                    "velocity": 0.2283464566929134,
                    "duration": 0.11904766666666688
                },
                {
                    "name": "G#4",
                    "midi": 68,
                    "time": 6.904764666666674,
                    "velocity": 0.2204724409448819,
                    "duration": 0.11904766666666688
                },
                {
                    "name": "C5",
                    "midi": 72,
                    "time": 7.023812333333341,
                    "velocity": 0.2204724409448819,
                    "duration": 0.11904766666666688
                },
                {
                    "name": "G#4",
                    "midi": 68,
                    "time": 7.261907666666675,
                    "velocity": 0.2125984251968504,
                    "duration": 0.11904766666666688
                },
                {
                    "name": "C5",
                    "midi": 72,
                    "time": 7.3809553333333415,
                    "velocity": 0.2125984251968504,
                    "duration": 0.11904766666666688
                },
                {
                    "name": "D#4",
                    "midi": 63,
                    "time": 7.500003000000008,
                    "velocity": 0.2125984251968504,
                    "duration": 0.11904766666666688
                },
                {
                    "name": "G#4",
                    "midi": 68,
                    "time": 7.619050666666675,
                    "velocity": 0.2125984251968504,
                    "duration": 0.11904766666666688
                },
                {
                    "name": "C5",
                    "midi": 72,
                    "time": 7.738098333333342,
                    "velocity": 0.2125984251968504,
                    "duration": 0.11904766666666688
                },
                {
                    "name": "G#4",
                    "midi": 68,
                    "time": 7.976193666666676,
                    "velocity": 0.2047244094488189,
                    "duration": 0.11904766666666688
                },
                {
                    "name": "C5",
                    "midi": 72,
                    "time": 8.095241333333343,
                    "velocity": 0.2047244094488189,
                    "duration": 0.11904766666666688
                },
                {
                    "name": "D#4",
                    "midi": 63,
                    "time": 8.21428900000001,
                    "velocity": 0.2047244094488189,
                    "duration": 0.11904766666666688
                },
                {
                    "name": "G#4",
                    "midi": 68,
                    "time": 8.333336666666677,
                    "velocity": 0.2047244094488189,
                    "duration": 0.11904766666666688
                },
                {
                    "name": "C5",
                    "midi": 72,
                    "time": 8.452384333333343,
                    "velocity": 0.2047244094488189,
                    "duration": 0.11904766666666688
                },
                {
                    "name": "A#4",
                    "midi": 70,
                    "time": 8.690479666666677,
                    "velocity": 0.2125984251968504,
                    "duration": 0.11904766666666688
                },
                {
                    "name": "C#5",
                    "midi": 73,
                    "time": 8.809527333333344,
                    "velocity": 0.2125984251968504,
                    "duration": 0.11904766666666688
                },
                {
                    "name": "D#4",
                    "midi": 63,
                    "time": 8.928575000000011,
                    "velocity": 0.2204724409448819,
                    "duration": 0.11904766666666688
                },
                {
                    "name": "A#4",
                    "midi": 70,
                    "time": 9.047622666666678,
                    "velocity": 0.2283464566929134,
                    "duration": 0.11904766666666688
                },
                {
                    "name": "C#5",
                    "midi": 73,
                    "time": 9.166670333333345,
                    "velocity": 0.2283464566929134,
                    "duration": 0.11904766666666688
                },
                {
                    "name": "A#4",
                    "midi": 70,
                    "time": 9.404765666666679,
                    "velocity": 0.23622047244094488,
                    "duration": 0.11904766666666688
                },
                {
                    "name": "C#5",
                    "midi": 73,
                    "time": 9.523813333333345,
                    "velocity": 0.23622047244094488,
                    "duration": 0.11904766666666688
                },
                {
                    "name": "D#4",
                    "midi": 63,
                    "time": 9.642861000000012,
                    "velocity": 0.2440944881889764,
                    "duration": 0.11904766666666688
                },
                {
                    "name": "A#4",
                    "midi": 70,
                    "time": 9.76190866666668,
                    "velocity": 0.25984251968503935,
                    "duration": 0.11904766666666688
                },
                {
                    "name": "C#5",
                    "midi": 73,
                    "time": 9.880956333333346,
                    "velocity": 0.25984251968503935,
                    "duration": 0.11904766666666688
                },
                {
                    "name": "A#4",
                    "midi": 70,
                    "time": 10.11905166666668,
                    "velocity": 0.2677165354330709,
                    "duration": 0.11904766666666688
                },
                {
                    "name": "C#5",
                    "midi": 73,
                    "time": 10.238099333333347,
                    "velocity": 0.2755905511811024,
                    "duration": 0.11904766666666688
                },
                {
                    "name": "D#4",
                    "midi": 63,
                    "time": 10.357147000000014,
                    "velocity": 0.28346456692913385,
                    "duration": 0.11904766666666688
                },
                {
                    "name": "A#4",
                    "midi": 70,
                    "time": 10.47619466666668,
                    "velocity": 0.28346456692913385,
                    "duration": 0.11904766666666688
                },
                {
                    "name": "C#5",
                    "midi": 73,
                    "time": 10.595242333333347,
                    "velocity": 0.29133858267716534,
                    "duration": 0.11904766666666688
                },
                {
                    "name": "A#4",
                    "midi": 70,
                    "time": 10.833337666666681,
                    "velocity": 0.29133858267716534,
                    "duration": 0.11904766666666688
                },
                {
                    "name": "C#5",
                    "midi": 73,
                    "time": 10.952385333333348,
                    "velocity": 0.29133858267716534,
                    "duration": 0.11904766666666688
                },
                {
                    "name": "D#4",
                    "midi": 63,
                    "time": 11.071433000000015,
                    "velocity": 0.29133858267716534,
                    "duration": 0.11904766666666688
                },
                {
                    "name": "A#4",
                    "midi": 70,
                    "time": 11.190480666666682,
                    "velocity": 0.28346456692913385,
                    "duration": 0.11904766666666688
                },
                {
                    "name": "C#5",
                    "midi": 73,
                    "time": 11.309528333333349,
                    "velocity": 0.2677165354330709,
                    "duration": 0.11904766666666688
                },
                {
                    "name": "C5",
                    "midi": 72,
                    "time": 11.547623666666682,
                    "velocity": 0.3228346456692913,
                    "duration": 0.11904766666666688
                },
                {
                    "name": "D#5",
                    "midi": 75,
                    "time": 11.66667133333335,
                    "velocity": 0.31496062992125984,
                    "duration": 0.11904766666666688
                },
                {
                    "name": "D#4",
                    "midi": 63,
                    "time": 11.785719000000016,
                    "velocity": 0.31496062992125984,
                    "duration": 0.11904766666666688
                },
                {
                    "name": "C5",
                    "midi": 72,
                    "time": 11.904766666666683,
                    "velocity": 0.30708661417322836,
                    "duration": 0.11904766666666688
                },
                {
                    "name": "D#5",
                    "midi": 75,
                    "time": 12.02381433333335,
                    "velocity": 0.30708661417322836,
                    "duration": 0.11904766666666688
                },
                {
                    "name": "C5",
                    "midi": 72,
                    "time": 12.261909666666684,
                    "velocity": 0.2992125984251969,
                    "duration": 0.11904766666666688
                },
                {
                    "name": "D#5",
                    "midi": 75,
                    "time": 12.38095733333335,
                    "velocity": 0.2992125984251969,
                    "duration": 0.11904766666666688
                },
                {
                    "name": "D#4",
                    "midi": 63,
                    "time": 12.500005000000018,
                    "velocity": 0.29133858267716534,
                    "duration": 0.11904766666666688
                },
                {
                    "name": "C5",
                    "midi": 72,
                    "time": 12.619052666666684,
                    "velocity": 0.29133858267716534,
                    "duration": 0.11904766666666688
                },
                {
                    "name": "D#5",
                    "midi": 75,
                    "time": 12.738100333333351,
                    "velocity": 0.28346456692913385,
                    "duration": 0.11904766666666688
                },
                {
                    "name": "C5",
                    "midi": 72,
                    "time": 12.976195666666685,
                    "velocity": 0.28346456692913385,
                    "duration": 0.11904766666666688
                },
                {
                    "name": "E5",
                    "midi": 76,
                    "time": 13.095243333333352,
                    "velocity": 0.28346456692913385,
                    "duration": 0.11904766666666688
                },
                {
                    "name": "E4",
                    "midi": 64,
                    "time": 13.214291000000019,
                    "velocity": 0.29133858267716534,
                    "duration": 0.11904766666666688
                },
                {
                    "name": "C5",
                    "midi": 72,
                    "time": 13.333338666666686,
                    "velocity": 0.2992125984251969,
                    "duration": 0.11904766666666688
                },
                {
                    "name": "E5",
                    "midi": 76,
                    "time": 13.452386333333353,
                    "velocity": 0.2992125984251969,
                    "duration": 0.11904766666666688
                },
                {
                    "name": "C5",
                    "midi": 72,
                    "time": 13.690481666666686,
                    "velocity": 0.30708661417322836,
                    "duration": 0.11904766666666688
                },
                {
                    "name": "E5",
                    "midi": 76,
                    "time": 13.809529333333353,
                    "velocity": 0.30708661417322836,
                    "duration": 0.11904766666666688
                },
                {
                    "name": "E4",
                    "midi": 64,
                    "time": 13.92857700000002,
                    "velocity": 0.31496062992125984,
                    "duration": 0.11904766666666688
                },
                {
                    "name": "C5",
                    "midi": 72,
                    "time": 14.047624666666687,
                    "velocity": 0.3228346456692913,
                    "duration": 0.11904766666666688
                },
                {
                    "name": "E5",
                    "midi": 76,
                    "time": 14.166672333333354,
                    "velocity": 0.33070866141732286,
                    "duration": 0.11904766666666688
                },
                {
                    "name": "C#5",
                    "midi": 73,
                    "time": 14.404767666666688,
                    "velocity": 0.29133858267716534,
                    "duration": 0.11904766666666688
                },
                {
                    "name": "F5",
                    "midi": 77,
                    "time": 14.523815333333355,
                    "velocity": 0.29133858267716534,
                    "duration": 0.11904766666666688
                },
                {
                    "name": "G#4",
                    "midi": 68,
                    "time": 14.642863000000022,
                    "velocity": 0.29133858267716534,
                    "duration": 0.11904766666666688
                },
                {
                    "name": "C#5",
                    "midi": 73,
                    "time": 14.761910666666688,
                    "velocity": 0.29133858267716534,
                    "duration": 0.11904766666666688
                },
                {
                    "name": "F5",
                    "midi": 77,
                    "time": 14.880958333333355,
                    "velocity": 0.2992125984251969,
                    "duration": 0.11904766666666688
                },
                {
                    "name": "C#5",
                    "midi": 73,
                    "time": 15.119053666666689,
                    "velocity": 0.2992125984251969,
                    "duration": 0.11904766666666688
                },
                {
                    "name": "F5",
                    "midi": 77,
                    "time": 15.238101333333356,
                    "velocity": 0.2992125984251969,
                    "duration": 0.11904766666666688
                },
                {
                    "name": "G#4",
                    "midi": 68,
                    "time": 15.357149000000023,
                    "velocity": 0.30708661417322836,
                    "duration": 0.11904766666666688
                },
                {
                    "name": "C#5",
                    "midi": 73,
                    "time": 15.47619666666669,
                    "velocity": 0.30708661417322836,
                    "duration": 0.11904766666666688
                },
                {
                    "name": "F5",
                    "midi": 77,
                    "time": 15.595244333333357,
                    "velocity": 0.30708661417322836,
                    "duration": 0.11904766666666688
                },
                {
                    "name": "C#5",
                    "midi": 73,
                    "time": 15.83333966666669,
                    "velocity": 0.30708661417322836,
                    "duration": 0.11904766666666688
                },
                {
                    "name": "F5",
                    "midi": 77,
                    "time": 15.952387333333357,
                    "velocity": 0.30708661417322836,
                    "duration": 0.11904766666666511
                },
                {
                    "name": "G#4",
                    "midi": 68,
                    "time": 16.071435000000022,
                    "velocity": 0.30708661417322836,
                    "duration": 0.11904766666666688
                },
                {
                    "name": "C#5",
                    "midi": 73,
                    "time": 16.19048266666669,
                    "velocity": 0.30708661417322836,
                    "duration": 0.11904766666666688
                },
                {
                    "name": "F5",
                    "midi": 77,
                    "time": 16.309530333333356,
                    "velocity": 0.31496062992125984,
                    "duration": 0.11904766666666688
                },
                {
                    "name": "C#5",
                    "midi": 73,
                    "time": 16.54762566666669,
                    "velocity": 0.31496062992125984,
                    "duration": 0.11904766666666688
                },
                {
                    "name": "F5",
                    "midi": 77,
                    "time": 16.666673333333357,
                    "velocity": 0.31496062992125984,
                    "duration": 0.11904766666666688
                },
                {
                    "name": "G4",
                    "midi": 67,
                    "time": 16.785721000000024,
                    "velocity": 0.33070866141732286,
                    "duration": 0.11904766666666688
                },
                {
                    "name": "C#5",
                    "midi": 73,
                    "time": 16.90476866666669,
                    "velocity": 0.33070866141732286,
                    "duration": 0.11904766666666688
                },
                {
                    "name": "F5",
                    "midi": 77,
                    "time": 17.023816333333357,
                    "velocity": 0.33070866141732286,
                    "duration": 0.11904766666666688
                },
                {
                    "name": "C5",
                    "midi": 72,
                    "time": 17.26191166666669,
                    "velocity": 0.31496062992125984,
                    "duration": 0.11904766666666688
                },
                {
                    "name": "F5",
                    "midi": 77,
                    "time": 17.380959333333358,
                    "velocity": 0.31496062992125984,
                    "duration": 0.11904766666666688
                },
                {
                    "name": "G4",
                    "midi": 67,
                    "time": 17.500007000000025,
                    "velocity": 0.30708661417322836,
                    "duration": 0.11904766666666688
                },
                {
                    "name": "C5",
                    "midi": 72,
                    "time": 17.619054666666692,
                    "velocity": 0.30708661417322836,
                    "duration": 0.11904766666666688
                },
                {
                    "name": "F5",
                    "midi": 77,
                    "time": 17.73810233333336,
                    "velocity": 0.30708661417322836,
                    "duration": 0.11904766666666688
                },
                {
                    "name": "C5",
                    "midi": 72,
                    "time": 17.976197666666692,
                    "velocity": 0.2992125984251969,
                    "duration": 0.11904766666666688
                },
                {
                    "name": "E5",
                    "midi": 76,
                    "time": 18.09524533333336,
                    "velocity": 0.2992125984251969,
                    "duration": 0.11904766666666688
                },
                {
                    "name": "G4",
                    "midi": 67,
                    "time": 18.214293000000026,
                    "velocity": 0.2992125984251969,
                    "duration": 0.11904766666666688
                },
                {
                    "name": "C5",
                    "midi": 72,
                    "time": 18.333340666666693,
                    "velocity": 0.29133858267716534,
                    "duration": 0.11904766666666688
                },
                {
                    "name": "E5",
                    "midi": 76,
                    "time": 18.45238833333336,
                    "velocity": 0.29133858267716534,
                    "duration": 0.11904766666666688
                },
                {
                    "name": "C5",
                    "midi": 72,
                    "time": 18.690483666666694,
                    "velocity": 0.28346456692913385,
                    "duration": 0.11904766666666688
                },
                {
                    "name": "F5",
                    "midi": 77,
                    "time": 18.80953133333336,
                    "velocity": 0.2755905511811024,
                    "duration": 0.11904766666666688
                },
                {
                    "name": "G#4",
                    "midi": 68,
                    "time": 18.928579000000028,
                    "velocity": 0.2755905511811024,
                    "duration": 0.11904766666666688
                },
                {
                    "name": "C5",
                    "midi": 72,
                    "time": 19.047626666666694,
                    "velocity": 0.2755905511811024,
                    "duration": 0.11904766666666688
                },
                {
                    "name": "F5",
                    "midi": 77,
                    "time": 19.16667433333336,
                    "velocity": 0.2677165354330709,
                    "duration": 0.11607147499999826
                },
                {
                    "name": "B4",
                    "midi": 71,
                    "time": 19.40476966666669,
                    "velocity": 0.25984251968503935,
                    "duration": 0.11904766666666688
                },
                {
                    "name": "D#5",
                    "midi": 75,
                    "time": 19.52381733333336,
                    "velocity": 0.25984251968503935,
                    "duration": 0.11904766666666688
                },
                {
                    "name": "F4",
                    "midi": 65,
                    "time": 19.642865000000025,
                    "velocity": 0.2440944881889764,
                    "duration": 0.11904766666666688
                },
                {
                    "name": "B4",
                    "midi": 71,
                    "time": 19.761912666666692,
                    "velocity": 0.2440944881889764,
                    "duration": 0.11904766666666688
                },
                {
                    "name": "D#5",
                    "midi": 75,
                    "time": 19.88096033333336,
                    "velocity": 0.2440944881889764,
                    "duration": 0.11904766666666688
                },
                {
                    "name": "A#4",
                    "midi": 70,
                    "time": 20.119055666666693,
                    "velocity": 0.2440944881889764,
                    "duration": 0.11904766666666688
                },
                {
                    "name": "D#5",
                    "midi": 75,
                    "time": 20.23810333333336,
                    "velocity": 0.2440944881889764,
                    "duration": 0.11904766666666688
                },
                {
                    "name": "F4",
                    "midi": 65,
                    "time": 20.357151000000027,
                    "velocity": 0.25984251968503935,
                    "duration": 0.11904766666666688
                },
                {
                    "name": "A#4",
                    "midi": 70,
                    "time": 20.476198666666694,
                    "velocity": 0.25984251968503935,
                    "duration": 0.11904766666666688
                },
                {
                    "name": "D#5",
                    "midi": 75,
                    "time": 20.59524633333336,
                    "velocity": 0.2677165354330709,
                    "duration": 0.11904766666666688
                },
                {
                    "name": "A#4",
                    "midi": 70,
                    "time": 20.833341666666694,
                    "velocity": 0.2755905511811024,
                    "duration": 0.11904766666666688
                },
                {
                    "name": "D#5",
                    "midi": 75,
                    "time": 20.95238933333336,
                    "velocity": 0.2755905511811024,
                    "duration": 0.11904766666666688
                },
                {
                    "name": "F4",
                    "midi": 65,
                    "time": 21.071437000000028,
                    "velocity": 0.28346456692913385,
                    "duration": 0.11904766666666688
                },
                {
                    "name": "A#4",
                    "midi": 70,
                    "time": 21.190484666666695,
                    "velocity": 0.28346456692913385,
                    "duration": 0.11904766666666688
                },
                {
                    "name": "D#5",
                    "midi": 75,
                    "time": 21.30953233333336,
                    "velocity": 0.29133858267716534,
                    "duration": 0.11904766666666688
                },
                {
                    "name": "A#4",
                    "midi": 70,
                    "time": 21.547627666666695,
                    "velocity": 0.2992125984251969,
                    "duration": 0.11904766666666688
                },
                {
                    "name": "D5",
                    "midi": 74,
                    "time": 21.666675333333362,
                    "velocity": 0.2992125984251969,
                    "duration": 0.11904766666666688
                },
                {
                    "name": "F4",
                    "midi": 65,
                    "time": 21.78572300000003,
                    "velocity": 0.29133858267716534,
                    "duration": 0.11904766666666688
                },
                {
                    "name": "G#4",
                    "midi": 68,
                    "time": 21.904770666666696,
                    "velocity": 0.29133858267716534,
                    "duration": 0.11904766666666688
                },
                {
                    "name": "A#4",
                    "midi": 70,
                    "time": 22.023818333333363,
                    "velocity": 0.28346456692913385,
                    "duration": 0.11607147499999826
                },
                {
                    "name": "F4",
                    "midi": 65,
                    "time": 22.261913666666693,
                    "velocity": 0.28346456692913385,
                    "duration": 0.11904766666666688
                },
                {
                    "name": "G#4",
                    "midi": 68,
                    "time": 22.38096133333336,
                    "velocity": 0.2755905511811024,
                    "duration": 0.11904766666666688
                },
                {
                    "name": "A#3",
                    "midi": 58,
                    "time": 22.500009000000027,
                    "velocity": 0.2755905511811024,
                    "duration": 0.11904766666666688
                },
                {
                    "name": "F4",
                    "midi": 65,
                    "time": 22.619056666666694,
                    "velocity": 0.2755905511811024,
                    "duration": 0.11904766666666688
                },
                {
                    "name": "G#4",
                    "midi": 68,
                    "time": 22.73810433333336,
                    "velocity": 0.29133858267716534,
                    "duration": 0.11904766666666688
                },
                {
                    "name": "F4",
                    "midi": 65,
                    "time": 22.976199666666695,
                    "velocity": 0.30708661417322836,
                    "duration": 0.11904766666666688
                },
                {
                    "name": "G#4",
                    "midi": 68,
                    "time": 23.09524733333336,
                    "velocity": 0.30708661417322836,
                    "duration": 0.11904766666666688
                },
                {
                    "name": "A#3",
                    "midi": 58,
                    "time": 23.21429500000003,
                    "velocity": 0.30708661417322836,
                    "duration": 0.11904766666666688
                },
                {
                    "name": "F4",
                    "midi": 65,
                    "time": 23.333342666666695,
                    "velocity": 0.31496062992125984,
                    "duration": 0.11904766666666688
                },
                {
                    "name": "G#4",
                    "midi": 68,
                    "time": 23.452390333333362,
                    "velocity": 0.33070866141732286,
                    "duration": 0.11904766666666688
                },
                {
                    "name": "D#4",
                    "midi": 63,
                    "time": 23.690485666666696,
                    "velocity": 0.2755905511811024,
                    "duration": 0.11904766666666688
                },
                {
                    "name": "G#4",
                    "midi": 68,
                    "time": 23.809533333333363,
                    "velocity": 0.28346456692913385,
                    "duration": 0.11904766666666688
                },
                {
                    "name": "A#3",
                    "midi": 58,
                    "time": 23.92858100000003,
                    "velocity": 0.28346456692913385,
                    "duration": 0.11904766666666688
                },
                {
                    "name": "D#4",
                    "midi": 63,
                    "time": 24.047628666666697,
                    "velocity": 0.29133858267716534,
                    "duration": 0.11904766666666688
                },
                {
                    "name": "G#4",
                    "midi": 68,
                    "time": 24.166676333333363,
                    "velocity": 0.29133858267716534,
                    "duration": 0.11904766666666688
                },
                {
                    "name": "D#4",
                    "midi": 63,
                    "time": 24.404771666666697,
                    "velocity": 0.25984251968503935,
                    "duration": 0.11904766666666688
                },
                {
                    "name": "G4",
                    "midi": 67,
                    "time": 24.523819333333364,
                    "velocity": 0.25196850393700787,
                    "duration": 0.11904766666666688
                },
                {
                    "name": "A#3",
                    "midi": 58,
                    "time": 24.64286700000003,
                    "velocity": 0.25196850393700787,
                    "duration": 0.11904766666666688
                },
                {
                    "name": "C#4",
                    "midi": 61,
                    "time": 24.761914666666698,
                    "velocity": 0.2440944881889764,
                    "duration": 0.11904766666666688
                },
                {
                    "name": "D#4",
                    "midi": 63,
                    "time": 24.880962333333365,
                    "velocity": 0.2283464566929134,
                    "duration": 0.11607147499999826
                },
                {
                    "name": "A#3",
                    "midi": 58,
                    "time": 25.119057666666695,
                    "velocity": 0.2755905511811024,
                    "duration": 0.11904766666666688
                },
                {
                    "name": "C#4",
                    "midi": 61,
                    "time": 25.238105333333362,
                    "velocity": 0.2677165354330709,
                    "duration": 0.11904766666666688
                },
                {
                    "name": "D#3",
                    "midi": 51,
                    "time": 25.35715300000003,
                    "velocity": 0.2440944881889764,
                    "duration": 0.11904766666666688
                },
                {
                    "name": "A#3",
                    "midi": 58,
                    "time": 25.476200666666696,
                    "velocity": 0.23622047244094488,
                    "duration": 0.11904766666666688
                },
                {
                    "name": "C#4",
                    "midi": 61,
                    "time": 25.595248333333362,
                    "velocity": 0.2283464566929134,
                    "duration": 0.11904766666666688
                },
                {
                    "name": "G#4",
                    "midi": 68,
                    "time": 25.833343666666696,
                    "velocity": 0.1732283464566929,
                    "duration": 0.11904766666666688
                },
                {
                    "name": "C5",
                    "midi": 72,
                    "time": 25.952391333333363,
                    "velocity": 0.1732283464566929,
                    "duration": 0.11904766666666688
                },
                {
                    "name": "D#4",
                    "midi": 63,
                    "time": 26.07143900000003,
                    "velocity": 0.1732283464566929,
                    "duration": 0.11904766666666688
                },
                {
                    "name": "G#4",
                    "midi": 68,
                    "time": 26.190486666666697,
                    "velocity": 0.1732283464566929,
                    "duration": 0.11904766666666688
                },
                {
                    "name": "C5",
                    "midi": 72,
                    "time": 26.309534333333364,
                    "velocity": 0.18110236220472442,
                    "duration": 0.11904766666666688
                },
                {
                    "name": "G#4",
                    "midi": 68,
                    "time": 26.547629666666698,
                    "velocity": 0.18110236220472442,
                    "duration": 0.11904766666666688
                },
                {
                    "name": "C5",
                    "midi": 72,
                    "time": 26.666677333333364,
                    "velocity": 0.1889763779527559,
                    "duration": 0.11904766666666688
                },
                {
                    "name": "D#4",
                    "midi": 63,
                    "time": 26.78572500000003,
                    "velocity": 0.1889763779527559,
                    "duration": 0.11904766666666688
                },
                {
                    "name": "G#4",
                    "midi": 68,
                    "time": 26.904772666666698,
                    "velocity": 0.1889763779527559,
                    "duration": 0.11904766666666688
                },
                {
                    "name": "C5",
                    "midi": 72,
                    "time": 27.023820333333365,
                    "velocity": 0.1889763779527559,
                    "duration": 0.11904766666666688
                },
                {
                    "name": "G#4",
                    "midi": 68,
                    "time": 27.2619156666667,
                    "velocity": 0.2047244094488189,
                    "duration": 0.11904766666666688
                },
                {
                    "name": "C5",
                    "midi": 72,
                    "time": 27.380963333333366,
                    "velocity": 0.2047244094488189,
                    "duration": 0.11904766666666688
                },
                {
                    "name": "D#4",
                    "midi": 63,
                    "time": 27.500011000000033,
                    "velocity": 0.2047244094488189,
                    "duration": 0.11904766666666688
                },
                {
                    "name": "G#4",
                    "midi": 68,
                    "time": 27.6190586666667,
                    "velocity": 0.2125984251968504,
                    "duration": 0.11904766666666688
                },
                {
                    "name": "C5",
                    "midi": 72,
                    "time": 27.738106333333366,
                    "velocity": 0.2125984251968504,
                    "duration": 0.11904766666666688
                },
                {
                    "name": "G#4",
                    "midi": 68,
                    "time": 27.9762016666667,
                    "velocity": 0.2125984251968504,
                    "duration": 0.11904766666666688
                },
                {
                    "name": "C5",
                    "midi": 72,
                    "time": 28.095249333333367,
                    "velocity": 0.2204724409448819,
                    "duration": 0.11904766666666688
                },
                {
                    "name": "D#4",
                    "midi": 63,
                    "time": 28.214297000000034,
                    "velocity": 0.2204724409448819,
                    "duration": 0.11904766666666688
                },
                {
                    "name": "G#4",
                    "midi": 68,
                    "time": 28.3333446666667,
                    "velocity": 0.2204724409448819,
                    "duration": 0.11904766666666688
                },
                {
                    "name": "C5",
                    "midi": 72,
                    "time": 28.452392333333368,
                    "velocity": 0.2204724409448819,
                    "duration": 0.11904766666666688
                },
                {
                    "name": "G#4",
                    "midi": 68,
                    "time": 28.6904876666667,
                    "velocity": 0.23622047244094488,
                    "duration": 0.11904766666666688
                },
                {
                    "name": "C5",
                    "midi": 72,
                    "time": 28.80953533333337,
                    "velocity": 0.2283464566929134,
                    "duration": 0.11904766666666688
                },
                {
                    "name": "D#4",
                    "midi": 63,
                    "time": 28.928583000000035,
                    "velocity": 0.2283464566929134,
                    "duration": 0.11904766666666688
                },
                {
                    "name": "G#4",
                    "midi": 68,
                    "time": 29.047630666666702,
                    "velocity": 0.2283464566929134,
                    "duration": 0.11904766666666688
                },
                {
                    "name": "C5",
                    "midi": 72,
                    "time": 29.16667833333337,
                    "velocity": 0.2283464566929134,
                    "duration": 0.11904766666666688
                },
                {
                    "name": "G#4",
                    "midi": 68,
                    "time": 29.404773666666703,
                    "velocity": 0.2283464566929134,
                    "duration": 0.11904766666666688
                },
                {
                    "name": "C5",
                    "midi": 72,
                    "time": 29.52382133333337,
                    "velocity": 0.2283464566929134,
                    "duration": 0.11904766666666688
                },
                {
                    "name": "D#4",
                    "midi": 63,
                    "time": 29.642869000000037,
                    "velocity": 0.2283464566929134,
                    "duration": 0.11904766666666688
                },
                {
                    "name": "G#4",
                    "midi": 68,
                    "time": 29.761916666666703,
                    "velocity": 0.2204724409448819,
                    "duration": 0.11904766666666688
                },
                {
                    "name": "C5",
                    "midi": 72,
                    "time": 29.88096433333337,
                    "velocity": 0.2204724409448819,
                    "duration": 0.11904766666666688
                },
                {
                    "name": "G#4",
                    "midi": 68,
                    "time": 30.119059666666704,
                    "velocity": 0.2125984251968504,
                    "duration": 0.11904766666666688
                },
                {
                    "name": "C5",
                    "midi": 72,
                    "time": 30.23810733333337,
                    "velocity": 0.2125984251968504,
                    "duration": 0.11904766666666688
                },
                {
                    "name": "D#4",
                    "midi": 63,
                    "time": 30.357155000000038,
                    "velocity": 0.2125984251968504,
                    "duration": 0.11904766666666688
                },
                {
                    "name": "G#4",
                    "midi": 68,
                    "time": 30.476202666666705,
                    "velocity": 0.2125984251968504,
                    "duration": 0.11904766666666688
                },
                {
                    "name": "C5",
                    "midi": 72,
                    "time": 30.59525033333337,
                    "velocity": 0.2125984251968504,
                    "duration": 0.11904766666666688
                },
                {
                    "name": "G#4",
                    "midi": 68,
                    "time": 30.833345666666705,
                    "velocity": 0.2047244094488189,
                    "duration": 0.11904766666666688
                },
                {
                    "name": "C5",
                    "midi": 72,
                    "time": 30.952393333333372,
                    "velocity": 0.2047244094488189,
                    "duration": 0.11904766666666688
                },
                {
                    "name": "D#4",
                    "midi": 63,
                    "time": 31.07144100000004,
                    "velocity": 0.2047244094488189,
                    "duration": 0.11904766666666688
                },
                {
                    "name": "G#4",
                    "midi": 68,
                    "time": 31.190488666666706,
                    "velocity": 0.2047244094488189,
                    "duration": 0.11904766666666688
                },
                {
                    "name": "C5",
                    "midi": 72,
                    "time": 31.309536333333373,
                    "velocity": 0.2047244094488189,
                    "duration": 0.11904766666666688
                },
                {
                    "name": "A#4",
                    "midi": 70,
                    "time": 31.547631666666707,
                    "velocity": 0.23622047244094488,
                    "duration": 0.11904766666666688
                },
                {
                    "name": "C#5",
                    "midi": 73,
                    "time": 31.666679333333374,
                    "velocity": 0.2440944881889764,
                    "duration": 0.11904766666666688
                },
                {
                    "name": "D#4",
                    "midi": 63,
                    "time": 31.78572700000004,
                    "velocity": 0.2440944881889764,
                    "duration": 0.11904766666666688
                },
                {
                    "name": "A#4",
                    "midi": 70,
                    "time": 31.904774666666707,
                    "velocity": 0.25984251968503935,
                    "duration": 0.11904766666666333
                },
                {
                    "name": "C#5",
                    "midi": 73,
                    "time": 32.02382233333337,
                    "velocity": 0.2677165354330709,
                    "duration": 0.11904766666666688
                },
                {
                    "name": "A#4",
                    "midi": 70,
                    "time": 32.261917666666704,
                    "velocity": 0.2755905511811024,
                    "duration": 0.11904766666666688
                },
                {
                    "name": "C#5",
                    "midi": 73,
                    "time": 32.38096533333337,
                    "velocity": 0.2755905511811024,
                    "duration": 0.11904766666666688
                },
                {
                    "name": "D#4",
                    "midi": 63,
                    "time": 32.50001300000004,
                    "velocity": 0.28346456692913385,
                    "duration": 0.11904766666666688
                },
                {
                    "name": "A#4",
                    "midi": 70,
                    "time": 32.619060666666705,
                    "velocity": 0.2992125984251969,
                    "duration": 0.11904766666666688
                },
                {
                    "name": "C#5",
                    "midi": 73,
                    "time": 32.73810833333337,
                    "velocity": 0.2992125984251969,
                    "duration": 0.11904766666666688
                },
                {
                    "name": "A#4",
                    "midi": 70,
                    "time": 32.976203666666706,
                    "velocity": 0.30708661417322836,
                    "duration": 0.11904766666666688
                },
                {
                    "name": "C#5",
                    "midi": 73,
                    "time": 33.09525133333337,
                    "velocity": 0.31496062992125984,
                    "duration": 0.11904766666666688
                },
                {
                    "name": "D#4",
                    "midi": 63,
                    "time": 33.21429900000004,
                    "velocity": 0.3228346456692913,
                    "duration": 0.11904766666666688
                },
                {
                    "name": "A#4",
                    "midi": 70,
                    "time": 33.333346666666706,
                    "velocity": 0.3228346456692913,
                    "duration": 0.11904766666666688
                },
                {
                    "name": "C#5",
                    "midi": 73,
                    "time": 33.45239433333337,
                    "velocity": 0.33070866141732286,
                    "duration": 0.11904766666666688
                },
                {
                    "name": "A#4",
                    "midi": 70,
                    "time": 33.69048966666671,
                    "velocity": 0.3228346456692913,
                    "duration": 0.11904766666666688
                },
                {
                    "name": "C#5",
                    "midi": 73,
                    "time": 33.809537333333374,
                    "velocity": 0.31496062992125984,
                    "duration": 0.11904766666666688
                },
                {
                    "name": "D#4",
                    "midi": 63,
                    "time": 33.92858500000004,
                    "velocity": 0.2992125984251969,
                    "duration": 0.11904766666666688
                },
                {
                    "name": "A#4",
                    "midi": 70,
                    "time": 34.04763266666671,
                    "velocity": 0.29133858267716534,
                    "duration": 0.11904766666666688
                },
                {
                    "name": "C#5",
                    "midi": 73,
                    "time": 34.166680333333375,
                    "velocity": 0.28346456692913385,
                    "duration": 0.11904766666666688
                },
                {
                    "name": "C5",
                    "midi": 72,
                    "time": 34.40477566666671,
                    "velocity": 0.3543307086614173,
                    "duration": 0.11904766666666688
                },
                {
                    "name": "D#5",
                    "midi": 75,
                    "time": 34.523823333333375,
                    "velocity": 0.3464566929133858,
                    "duration": 0.11904766666666688
                },
                {
                    "name": "D#4",
                    "midi": 63,
                    "time": 34.64287100000004,
                    "velocity": 0.3464566929133858,
                    "duration": 0.11904766666666688
                },
                {
                    "name": "C5",
                    "midi": 72,
                    "time": 34.76191866666671,
                    "velocity": 0.33070866141732286,
                    "duration": 0.11904766666666688
                },
                {
                    "name": "D#5",
                    "midi": 75,
                    "time": 34.880966333333376,
                    "velocity": 0.33070866141732286,
                    "duration": 0.11904766666666688
                },
                {
                    "name": "C5",
                    "midi": 72,
                    "time": 35.11906166666671,
                    "velocity": 0.3228346456692913,
                    "duration": 0.11904766666666688
                },
                {
                    "name": "D#5",
                    "midi": 75,
                    "time": 35.23810933333338,
                    "velocity": 0.3228346456692913,
                    "duration": 0.11904766666666688
                },
                {
                    "name": "D#4",
                    "midi": 63,
                    "time": 35.35715700000004,
                    "velocity": 0.31496062992125984,
                    "duration": 0.11904766666666688
                },
                {
                    "name": "C5",
                    "midi": 72,
                    "time": 35.47620466666671,
                    "velocity": 0.3228346456692913,
                    "duration": 0.11904766666666688
                },
                {
                    "name": "D#5",
                    "midi": 75,
                    "time": 35.59525233333338,
                    "velocity": 0.30708661417322836,
                    "duration": 0.11904766666666688
                },
                {
                    "name": "C5",
                    "midi": 72,
                    "time": 35.83334766666671,
                    "velocity": 0.2992125984251969,
                    "duration": 0.11904766666666688
                },
                {
                    "name": "E5",
                    "midi": 76,
                    "time": 35.95239533333338,
                    "velocity": 0.30708661417322836,
                    "duration": 0.11904766666666688
                },
                {
                    "name": "E4",
                    "midi": 64,
                    "time": 36.071443000000045,
                    "velocity": 0.31496062992125984,
                    "duration": 0.11904766666666688
                },
                {
                    "name": "C5",
                    "midi": 72,
                    "time": 36.19049066666671,
                    "velocity": 0.3228346456692913,
                    "duration": 0.11904766666666688
                },
                {
                    "name": "E5",
                    "midi": 76,
                    "time": 36.30953833333338,
                    "velocity": 0.33070866141732286,
                    "duration": 0.11904766666666688
                },
                {
                    "name": "C5",
                    "midi": 72,
                    "time": 36.54763366666671,
                    "velocity": 0.3543307086614173,
                    "duration": 0.11904766666666688
                },
                {
                    "name": "E5",
                    "midi": 76,
                    "time": 36.66668133333338,
                    "velocity": 0.36220472440944884,
                    "duration": 0.11904766666666688
                },
                {
                    "name": "E4",
                    "midi": 64,
                    "time": 36.785729000000046,
                    "velocity": 0.3700787401574803,
                    "duration": 0.11904766666666688
                },
                {
                    "name": "C5",
                    "midi": 72,
                    "time": 36.90477666666671,
                    "velocity": 0.3779527559055118,
                    "duration": 0.11904766666666688
                },
                {
                    "name": "E5",
                    "midi": 76,
                    "time": 37.02382433333338,
                    "velocity": 0.3858267716535433,
                    "duration": 0.11904766666666688
                },
                {
                    "name": "C#5",
                    "midi": 73,
                    "time": 37.261919666666714,
                    "velocity": 0.3228346456692913,
                    "duration": 0.11904766666666688
                },
                {
                    "name": "F5",
                    "midi": 77,
                    "time": 37.38096733333338,
                    "velocity": 0.3228346456692913,
                    "duration": 0.11904766666666688
                },
                {
                    "name": "G#4",
                    "midi": 68,
                    "time": 37.50001500000005,
                    "velocity": 0.33070866141732286,
                    "duration": 0.11904766666666688
                },
                {
                    "name": "C#5",
                    "midi": 73,
                    "time": 37.619062666666714,
                    "velocity": 0.33070866141732286,
                    "duration": 0.11904766666666688
                },
                {
                    "name": "F5",
                    "midi": 77,
                    "time": 37.73811033333338,
                    "velocity": 0.33070866141732286,
                    "duration": 0.11904766666666688
                },
                {
                    "name": "C#5",
                    "midi": 73,
                    "time": 37.976205666666715,
                    "velocity": 0.3464566929133858,
                    "duration": 0.11904766666666688
                },
                {
                    "name": "F5",
                    "midi": 77,
                    "time": 38.09525333333338,
                    "velocity": 0.3464566929133858,
                    "duration": 0.11904766666666688
                },
                {
                    "name": "G#4",
                    "midi": 68,
                    "time": 38.21430100000005,
                    "velocity": 0.3543307086614173,
                    "duration": 0.11904766666666688
                },
                {
                    "name": "C#5",
                    "midi": 73,
                    "time": 38.333348666666716,
                    "velocity": 0.3543307086614173,
                    "duration": 0.11904766666666688
                },
                {
                    "name": "F5",
                    "midi": 77,
                    "time": 38.45239633333338,
                    "velocity": 0.3543307086614173,
                    "duration": 0.11904766666666688
                },
                {
                    "name": "C#5",
                    "midi": 73,
                    "time": 38.690491666666716,
                    "velocity": 0.36220472440944884,
                    "duration": 0.11904766666666688
                },
                {
                    "name": "F5",
                    "midi": 77,
                    "time": 38.80953933333338,
                    "velocity": 0.36220472440944884,
                    "duration": 0.11904766666666688
                },
                {
                    "name": "G#4",
                    "midi": 68,
                    "time": 38.92858700000005,
                    "velocity": 0.3700787401574803,
                    "duration": 0.11904766666666688
                },
                {
                    "name": "C#5",
                    "midi": 73,
                    "time": 39.04763466666672,
                    "velocity": 0.3700787401574803,
                    "duration": 0.11904766666666688
                },
                {
                    "name": "F5",
                    "midi": 77,
                    "time": 39.166682333333384,
                    "velocity": 0.3700787401574803,
                    "duration": 0.11904766666666688
                },
                {
                    "name": "C#5",
                    "midi": 73,
                    "time": 39.40477766666672,
                    "velocity": 0.3779527559055118,
                    "duration": 0.11904766666666688
                },
                {
                    "name": "F5",
                    "midi": 77,
                    "time": 39.523825333333384,
                    "velocity": 0.3779527559055118,
                    "duration": 0.11904766666666688
                },
                {
                    "name": "G4",
                    "midi": 67,
                    "time": 39.64287300000005,
                    "velocity": 0.3858267716535433,
                    "duration": 0.11904766666666688
                },
                {
                    "name": "C#5",
                    "midi": 73,
                    "time": 39.76192066666672,
                    "velocity": 0.3858267716535433,
                    "duration": 0.11904766666666688
                },
                {
                    "name": "F5",
                    "midi": 77,
                    "time": 39.880968333333385,
                    "velocity": 0.3858267716535433,
                    "duration": 0.11904766666666688
                },
                {
                    "name": "C5",
                    "midi": 72,
                    "time": 40.11906366666672,
                    "velocity": 0.3464566929133858,
                    "duration": 0.11904766666666688
                },
                {
                    "name": "F5",
                    "midi": 77,
                    "time": 40.238111333333386,
                    "velocity": 0.3464566929133858,
                    "duration": 0.11904766666666688
                },
                {
                    "name": "G4",
                    "midi": 67,
                    "time": 40.35715900000005,
                    "velocity": 0.33070866141732286,
                    "duration": 0.11904766666666688
                },
                {
                    "name": "C5",
                    "midi": 72,
                    "time": 40.47620666666672,
                    "velocity": 0.33070866141732286,
                    "duration": 0.11904766666666688
                },
                {
                    "name": "F5",
                    "midi": 77,
                    "time": 40.595254333333386,
                    "velocity": 0.3228346456692913,
                    "duration": 0.11904766666666688
                },
                {
                    "name": "C5",
                    "midi": 72,
                    "time": 40.83334966666672,
                    "velocity": 0.31496062992125984,
                    "duration": 0.11904766666666688
                },
                {
                    "name": "F5",
                    "midi": 77,
                    "time": 40.95239733333339,
                    "velocity": 0.31496062992125984,
                    "duration": 0.11904766666666688
                },
                {
                    "name": "G4",
                    "midi": 67,
                    "time": 41.071445000000054,
                    "velocity": 0.31496062992125984,
                    "duration": 0.11904766666666688
                },
                {
                    "name": "C5",
                    "midi": 72,
                    "time": 41.19049266666672,
                    "velocity": 0.30708661417322836,
                    "duration": 0.11904766666666688
                },
                {
                    "name": "F5",
                    "midi": 77,
                    "time": 41.30954033333339,
                    "velocity": 0.30708661417322836,
                    "duration": 0.11904766666666688
                },
                {
                    "name": "C5",
                    "midi": 72,
                    "time": 41.54763566666672,
                    "velocity": 0.29133858267716534,
                    "duration": 0.11904766666666688
                },
                {
                    "name": "E5",
                    "midi": 76,
                    "time": 41.66668333333339,
                    "velocity": 0.28346456692913385,
                    "duration": 0.11904766666666688
                },
                {
                    "name": "G4",
                    "midi": 67,
                    "time": 41.785731000000055,
                    "velocity": 0.28346456692913385,
                    "duration": 0.11904766666666688
                },
                {
                    "name": "C5",
                    "midi": 72,
                    "time": 41.90477866666672,
                    "velocity": 0.28346456692913385,
                    "duration": 0.11904766666666688
                },
                {
                    "name": "E5",
                    "midi": 76,
                    "time": 42.02382633333339,
                    "velocity": 0.2677165354330709,
                    "duration": 0.11904766666666688
                },
                {
                    "name": "C5",
                    "midi": 72,
                    "time": 42.26192166666672,
                    "velocity": 0.25984251968503935,
                    "duration": 0.11904766666666688
                },
                {
                    "name": "E5",
                    "midi": 76,
                    "time": 42.38096933333339,
                    "velocity": 0.25984251968503935,
                    "duration": 0.11904766666666688
                },
                {
                    "name": "G4",
                    "midi": 67,
                    "time": 42.50001700000006,
                    "velocity": 0.2440944881889764,
                    "duration": 0.11904766666666688
                },
                {
                    "name": "C5",
                    "midi": 72,
                    "time": 42.61906466666672,
                    "velocity": 0.2440944881889764,
                    "duration": 0.11904766666666688
                },
                {
                    "name": "E5",
                    "midi": 76,
                    "time": 42.73811233333339,
                    "velocity": 0.2440944881889764,
                    "duration": 0.11904766666666688
                },
                {
                    "name": "B4",
                    "midi": 71,
                    "time": 42.976207666666724,
                    "velocity": 0.2204724409448819,
                    "duration": 0.11904766666666688
                },
                {
                    "name": "E5",
                    "midi": 76,
                    "time": 43.09525533333339,
                    "velocity": 0.2204724409448819,
                    "duration": 0.11904766666666688
                },
                {
                    "name": "F4",
                    "midi": 65,
                    "time": 43.21430300000006,
                    "velocity": 0.25984251968503935,
                    "duration": 0.11904766666666688
                },
                {
                    "name": "B4",
                    "midi": 71,
                    "time": 43.333350666666725,
                    "velocity": 0.2283464566929134,
                    "duration": 0.11904766666666688
                },
                {
                    "name": "E5",
                    "midi": 76,
                    "time": 43.45239833333339,
                    "velocity": 0.2283464566929134,
                    "duration": 0.11904766666666688
                },
                {
                    "name": "B4",
                    "midi": 71,
                    "time": 43.690493666666725,
                    "velocity": 0.2204724409448819,
                    "duration": 0.11904766666666688
                },
                {
                    "name": "D5",
                    "midi": 74,
                    "time": 43.80954133333339,
                    "velocity": 0.2204724409448819,
                    "duration": 0.11904766666666688
                },
                {
                    "name": "F4",
                    "midi": 65,
                    "time": 43.92858900000006,
                    "velocity": 0.2204724409448819,
                    "duration": 0.11904766666666688
                },
                {
                    "name": "B4",
                    "midi": 71,
                    "time": 44.047636666666726,
                    "velocity": 0.2204724409448819,
                    "duration": 0.11904766666666688
                },
                {
                    "name": "D5",
                    "midi": 74,
                    "time": 44.16668433333339,
                    "velocity": 0.2204724409448819,
                    "duration": 0.11904766666666688
                },
                {
                    "name": "B4",
                    "midi": 71,
                    "time": 44.40477966666673,
                    "velocity": 0.2283464566929134,
                    "duration": 0.11904766666666688
                },
                {
                    "name": "F5",
                    "midi": 77,
                    "time": 44.523827333333394,
                    "velocity": 0.2283464566929134,
                    "duration": 0.11904766666666688
                },
                {
                    "name": "F4",
                    "midi": 65,
                    "time": 44.64287500000006,
                    "velocity": 0.2283464566929134,
                    "duration": 0.11904766666666688
                },
                {
                    "name": "B4",
                    "midi": 71,
                    "time": 44.76192266666673,
                    "velocity": 0.2283464566929134,
                    "duration": 0.11904766666666688
                },
                {
                    "name": "F5",
                    "midi": 77,
                    "time": 44.880970333333394,
                    "velocity": 0.2204724409448819,
                    "duration": 0.11904766666666688
                },
                {
                    "name": "B4",
                    "midi": 71,
                    "time": 45.11906566666673,
                    "velocity": 0.2204724409448819,
                    "duration": 0.11904766666666688
                },
                {
                    "name": "E5",
                    "midi": 76,
                    "time": 45.238113333333395,
                    "velocity": 0.2204724409448819,
                    "duration": 0.11904766666666688
                },
                {
                    "name": "F4",
                    "midi": 65,
                    "time": 45.35716100000006,
                    "velocity": 0.23622047244094488,
                    "duration": 0.11904766666666688
                },
                {
                    "name": "B4",
                    "midi": 71,
                    "time": 45.47620866666673,
                    "velocity": 0.23622047244094488,
                    "duration": 0.11904766666666688
                },
                {
                    "name": "E5",
                    "midi": 76,
                    "time": 45.595256333333396,
                    "velocity": 0.25984251968503935,
                    "duration": 0.11904766666666688
                },
                {
                    "name": "F4",
                    "midi": 65,
                    "time": 45.83335166666673,
                    "velocity": 0.1968503937007874,
                    "duration": 0.11904766666666688
                },
                {
                    "name": "G4",
                    "midi": 67,
                    "time": 45.952399333333396,
                    "velocity": 0.1968503937007874,
                    "duration": 0.11904766666666688
                },
                {
                    "name": "C4",
                    "midi": 60,
                    "time": 46.07144700000006,
                    "velocity": 0.1968503937007874,
                    "duration": 0.11904766666666688
                },
                {
                    "name": "F4",
                    "midi": 65,
                    "time": 46.19049466666673,
                    "velocity": 0.2047244094488189,
                    "duration": 0.11904766666666688
                },
                {
                    "name": "G4",
                    "midi": 67,
                    "time": 46.3095423333334,
                    "velocity": 0.2125984251968504,
                    "duration": 0.11904766666666688
                },
                {
                    "name": "E4",
                    "midi": 64,
                    "time": 46.54763766666673,
                    "velocity": 0.2047244094488189,
                    "duration": 0.11904766666666688
                },
                {
                    "name": "G4",
                    "midi": 67,
                    "time": 46.6666853333334,
                    "velocity": 0.2047244094488189,
                    "duration": 0.11904766666666688
                },
                {
                    "name": "C4",
                    "midi": 60,
                    "time": 46.785733000000064,
                    "velocity": 0.2047244094488189,
                    "duration": 0.11904766666666688
                },
                {
                    "name": "E4",
                    "midi": 64,
                    "time": 46.90478066666673,
                    "velocity": 0.2047244094488189,
                    "duration": 0.11904766666666688
                },
                {
                    "name": "G4",
                    "midi": 67,
                    "time": 47.0238283333334,
                    "velocity": 0.2047244094488189,
                    "duration": 0.11904766666666688
                },
                {
                    "name": "D4",
                    "midi": 62,
                    "time": 47.26192366666673,
                    "velocity": 0.2047244094488189,
                    "duration": 0.11904766666666688
                },
                {
                    "name": "G4",
                    "midi": 67,
                    "time": 47.3809713333334,
                    "velocity": 0.2047244094488189,
                    "duration": 0.11904766666666688
                },
                {
                    "name": "C4",
                    "midi": 60,
                    "time": 47.500019000000066,
                    "velocity": 0.2047244094488189,
                    "duration": 0.11904766666666688
                },
                {
                    "name": "D4",
                    "midi": 62,
                    "time": 47.61906666666673,
                    "velocity": 0.2047244094488189,
                    "duration": 0.11904766666666688
                },
                {
                    "name": "G4",
                    "midi": 67,
                    "time": 47.7381143333334,
                    "velocity": 0.1968503937007874,
                    "duration": 0.11904766666666688
                },
                {
                    "name": "E4",
                    "midi": 64,
                    "time": 47.97620966666673,
                    "velocity": 0.1968503937007874,
                    "duration": 0.11904766666666688
                },
                {
                    "name": "G4",
                    "midi": 67,
                    "time": 48.0952573333334,
                    "velocity": 0.1968503937007874,
                    "duration": 0.11904766666666688
                },
                {
                    "name": "C4",
                    "midi": 60,
                    "time": 48.21430500000007,
                    "velocity": 0.1889763779527559,
                    "duration": 0.11904766666666688
                },
                {
                    "name": "E4",
                    "midi": 64,
                    "time": 48.333352666666734,
                    "velocity": 0.1732283464566929,
                    "duration": 0.11904766666666688
                },
                {
                    "name": "G4",
                    "midi": 67,
                    "time": 48.4524003333334,
                    "velocity": 0.15748031496062992,
                    "duration": 0.11904766666666688
                },
                {
                    "name": "G4",
                    "midi": 67,
                    "time": 48.690495666666735,
                    "velocity": 0.1732283464566929,
                    "duration": 0.11904766666666688
                },
                {
                    "name": "A#4",
                    "midi": 70,
                    "time": 48.8095433333334,
                    "velocity": 0.1732283464566929,
                    "duration": 0.11904766666666688
                },
                {
                    "name": "C4",
                    "midi": 60,
                    "time": 48.92859100000007,
                    "velocity": 0.1732283464566929,
                    "duration": 0.11904766666666688
                },
                {
                    "name": "G4",
                    "midi": 67,
                    "time": 49.047638666666735,
                    "velocity": 0.1732283464566929,
                    "duration": 0.11904766666666688
                },
                {
                    "name": "A#4",
                    "midi": 70,
                    "time": 49.1666863333334,
                    "velocity": 0.18110236220472442,
                    "duration": 0.11904766666666688
                },
                {
                    "name": "G4",
                    "midi": 67,
                    "time": 49.404781666666736,
                    "velocity": 0.18110236220472442,
                    "duration": 0.11904766666666688
                },
                {
                    "name": "A#4",
                    "midi": 70,
                    "time": 49.5238293333334,
                    "velocity": 0.1889763779527559,
                    "duration": 0.11904766666666688
                },
                {
                    "name": "C4",
                    "midi": 60,
                    "time": 49.64287700000007,
                    "velocity": 0.1889763779527559,
                    "duration": 0.11904766666666688
                },
                {
                    "name": "G4",
                    "midi": 67,
                    "time": 49.76192466666674,
                    "velocity": 0.1889763779527559,
                    "duration": 0.11904766666666688
                },
                {
                    "name": "A#4",
                    "midi": 70,
                    "time": 49.8809723333334,
                    "velocity": 0.1889763779527559,
                    "duration": 0.11904766666666688
                },
                {
                    "name": "G4",
                    "midi": 67,
                    "time": 50.11906766666674,
                    "velocity": 0.2047244094488189,
                    "duration": 0.11904766666666688
                },
                {
                    "name": "A#4",
                    "midi": 70,
                    "time": 50.238115333333404,
                    "velocity": 0.2047244094488189,
                    "duration": 0.11904766666666688
                },
                {
                    "name": "C4",
                    "midi": 60,
                    "time": 50.35716300000007,
                    "velocity": 0.2047244094488189,
                    "duration": 0.11904766666666688
                },
                {
                    "name": "G4",
                    "midi": 67,
                    "time": 50.47621066666674,
                    "velocity": 0.2125984251968504,
                    "duration": 0.11904766666666688
                },
                {
                    "name": "A#4",
                    "midi": 70,
                    "time": 50.595258333333405,
                    "velocity": 0.2125984251968504,
                    "duration": 0.11904766666666688
                },
                {
                    "name": "G4",
                    "midi": 67,
                    "time": 50.83335366666674,
                    "velocity": 0.2125984251968504,
                    "duration": 0.11904766666666688
                },
                {
                    "name": "A#4",
                    "midi": 70,
                    "time": 50.952401333333405,
                    "velocity": 0.2204724409448819,
                    "duration": 0.11904766666666688
                },
                {
                    "name": "C4",
                    "midi": 60,
                    "time": 51.07144900000007,
                    "velocity": 0.2204724409448819,
                    "duration": 0.11904766666666688
                },
                {
                    "name": "G4",
                    "midi": 67,
                    "time": 51.19049666666674,
                    "velocity": 0.2204724409448819,
                    "duration": 0.11904766666666688
                },
                {
                    "name": "A#4",
                    "midi": 70,
                    "time": 51.309544333333406,
                    "velocity": 0.2204724409448819,
                    "duration": 0.11904766666666688
                },
                {
                    "name": "F4",
                    "midi": 65,
                    "time": 51.54763966666674,
                    "velocity": 0.2204724409448819,
                    "duration": 0.11904766666666688
                },
                {
                    "name": "A#4",
                    "midi": 70,
                    "time": 51.66668733333341,
                    "velocity": 0.2204724409448819,
                    "duration": 0.11904766666666688
                },
                {
                    "name": "C4",
                    "midi": 60,
                    "time": 51.785735000000074,
                    "velocity": 0.2283464566929134,
                    "duration": 0.11904766666666688
                },
                {
                    "name": "F4",
                    "midi": 65,
                    "time": 51.90478266666674,
                    "velocity": 0.2283464566929134,
                    "duration": 0.11904766666666688
                },
                {
                    "name": "A#4",
                    "midi": 70,
                    "time": 52.02383033333341,
                    "velocity": 0.2283464566929134,
                    "duration": 0.11904766666666688
                },
                {
                    "name": "F4",
                    "midi": 65,
                    "time": 52.26192566666674,
                    "velocity": 0.23622047244094488,
                    "duration": 0.11904766666666688
                },
                {
                    "name": "G#4",
                    "midi": 68,
                    "time": 52.38097333333341,
                    "velocity": 0.2440944881889764,
                    "duration": 0.11904766666666688
                },
                {
                    "name": "C4",
                    "midi": 60,
                    "time": 52.500021000000075,
                    "velocity": 0.2440944881889764,
                    "duration": 0.11904766666666688
                },
                {
                    "name": "F4",
                    "midi": 65,
                    "time": 52.61906866666674,
                    "velocity": 0.2440944881889764,
                    "duration": 0.11904766666666688
                },
                {
                    "name": "G#4",
                    "midi": 68,
                    "time": 52.73811633333341,
                    "velocity": 0.25984251968503935,
                    "duration": 0.11904766666666688
                },
                {
                    "name": "G4",
                    "midi": 67,
                    "time": 52.97621166666674,
                    "velocity": 0.2677165354330709,
                    "duration": 0.11904766666666688
                },
                {
                    "name": "C5",
                    "midi": 72,
                    "time": 53.09525933333341,
                    "velocity": 0.2677165354330709,
                    "duration": 0.11904766666666688
                },
                {
                    "name": "C4",
                    "midi": 60,
                    "time": 53.214307000000076,
                    "velocity": 0.2677165354330709,
                    "duration": 0.11904766666666688
                },
                {
                    "name": "G4",
                    "midi": 67,
                    "time": 53.33335466666674,
                    "velocity": 0.2755905511811024,
                    "duration": 0.11904766666666688
                },
                {
                    "name": "C5",
                    "midi": 72,
                    "time": 53.45240233333341,
                    "velocity": 0.2755905511811024,
                    "duration": 0.11904766666666688
                },
                {
                    "name": "G#4",
                    "midi": 68,
                    "time": 53.690497666666744,
                    "velocity": 0.28346456692913385,
                    "duration": 0.11904766666666688
                },
                {
                    "name": "C5",
                    "midi": 72,
                    "time": 53.80954533333341,
                    "velocity": 0.28346456692913385,
                    "duration": 0.11904766666666688
                },
                {
                    "name": "C4",
                    "midi": 60,
                    "time": 53.92859300000008,
                    "velocity": 0.29133858267716534,
                    "duration": 0.11904766666666688
                },
                {
                    "name": "G#4",
                    "midi": 68,
                    "time": 54.047640666666744,
                    "velocity": 0.29133858267716534,
                    "duration": 0.11904766666666688
                },
                {
                    "name": "C5",
                    "midi": 72,
                    "time": 54.16668833333341,
                    "velocity": 0.29133858267716534,
                    "duration": 0.11904766666666688
                },
                {
                    "name": "A#4",
                    "midi": 70,
                    "time": 54.404783666666745,
                    "velocity": 0.2755905511811024,
                    "duration": 0.11904766666666688
                },
                {
                    "name": "C#5",
                    "midi": 73,
                    "time": 54.52383133333341,
                    "velocity": 0.2755905511811024,
                    "duration": 0.11904766666666688
                },
                {
                    "name": "D#4",
                    "midi": 63,
                    "time": 54.64287900000008,
                    "velocity": 0.28346456692913385,
                    "duration": 0.11904766666666688
                },
                {
                    "name": "A#4",
                    "midi": 70,
                    "time": 54.761926666666746,
                    "velocity": 0.28346456692913385,
                    "duration": 0.11904766666666688
                },
                {
                    "name": "C#5",
                    "midi": 73,
                    "time": 54.88097433333341,
                    "velocity": 0.29133858267716534,
                    "duration": 0.11904766666666688
                },
                {
                    "name": "A#4",
                    "midi": 70,
                    "time": 55.119069666666746,
                    "velocity": 0.2992125984251969,
                    "duration": 0.11904766666666688
                },
                {
                    "name": "C#5",
                    "midi": 73,
                    "time": 55.23811733333341,
                    "velocity": 0.2992125984251969,
                    "duration": 0.11904766666666688
                },
                {
                    "name": "D#4",
                    "midi": 63,
                    "time": 55.35716500000008,
                    "velocity": 0.2992125984251969,
                    "duration": 0.11904766666666688
                },
                {
                    "name": "A#4",
                    "midi": 70,
                    "time": 55.47621266666675,
                    "velocity": 0.30708661417322836,
                    "duration": 0.11904766666666688
                },
                {
                    "name": "C#5",
                    "midi": 73,
                    "time": 55.595260333333414,
                    "velocity": 0.30708661417322836,
                    "duration": 0.11904766666666688
                },
                {
                    "name": "A#4",
                    "midi": 70,
                    "time": 55.83335566666675,
                    "velocity": 0.31496062992125984,
                    "duration": 0.11904766666666688
                },
                {
                    "name": "C#5",
                    "midi": 73,
                    "time": 55.952403333333415,
                    "velocity": 0.3228346456692913,
                    "duration": 0.11904766666666688
                },
                {
                    "name": "D#4",
                    "midi": 63,
                    "time": 56.07145100000008,
                    "velocity": 0.3228346456692913,
                    "duration": 0.11904766666666688
                },
                {
                    "name": "A#4",
                    "midi": 70,
                    "time": 56.19049866666675,
                    "velocity": 0.33070866141732286,
                    "duration": 0.11904766666666688
                },
                {
                    "name": "C#5",
                    "midi": 73,
                    "time": 56.309546333333415,
                    "velocity": 0.33070866141732286,
                    "duration": 0.11904766666666688
                },
                {
                    "name": "A#4",
                    "midi": 70,
                    "time": 56.54764166666675,
                    "velocity": 0.3464566929133858,
                    "duration": 0.11904766666666688
                },
                {
                    "name": "C#5",
                    "midi": 73,
                    "time": 56.666689333333416,
                    "velocity": 0.33070866141732286,
                    "duration": 0.11904766666666688
                },
                {
                    "name": "D#4",
                    "midi": 63,
                    "time": 56.78573700000008,
                    "velocity": 0.3228346456692913,
                    "duration": 0.11904766666666688
                },
                {
                    "name": "A#4",
                    "midi": 70,
                    "time": 56.90478466666675,
                    "velocity": 0.31496062992125984,
                    "duration": 0.11904766666666688
                },
                {
                    "name": "C#5",
                    "midi": 73,
                    "time": 57.02383233333342,
                    "velocity": 0.30708661417322836,
                    "duration": 0.11904766666666688
                },
                {
                    "name": "G#4",
                    "midi": 68,
                    "time": 57.26192766666675,
                    "velocity": 0.28346456692913385,
                    "duration": 0.11904766666666688
                },
                {
                    "name": "C#5",
                    "midi": 73,
                    "time": 57.38097533333342,
                    "velocity": 0.28346456692913385,
                    "duration": 0.11904766666666688
                },
                {
                    "name": "D#4",
                    "midi": 63,
                    "time": 57.500023000000084,
                    "velocity": 0.29133858267716534,
                    "duration": 0.11904766666666688
                },
                {
                    "name": "G#4",
                    "midi": 68,
                    "time": 57.61907066666675,
                    "velocity": 0.29133858267716534,
                    "duration": 0.11904766666666688
                },
                {
                    "name": "C#5",
                    "midi": 73,
                    "time": 57.73811833333342,
                    "velocity": 0.2992125984251969,
                    "duration": 0.11904766666666688
                },
                {
                    "name": "G#4",
                    "midi": 68,
                    "time": 57.97621366666675,
                    "velocity": 0.30708661417322836,
                    "duration": 0.11904766666666688
                },
                {
                    "name": "C5",
                    "midi": 72,
                    "time": 58.09526133333342,
                    "velocity": 0.30708661417322836,
                    "duration": 0.11904766666666688
                },
                {
                    "name": "D#4",
                    "midi": 63,
                    "time": 58.214309000000085,
                    "velocity": 0.30708661417322836,
                    "duration": 0.11904766666666688
                },
                {
                    "name": "G#4",
                    "midi": 68,
                    "time": 58.33335666666675,
                    "velocity": 0.31496062992125984,
                    "duration": 0.11904766666666688
                },
                {
                    "name": "C5",
                    "midi": 72,
                    "time": 58.45240433333342,
                    "velocity": 0.31496062992125984,
                    "duration": 0.11904766666666688
                },
                {
                    "name": "G#4",
                    "midi": 68,
                    "time": 58.69049966666675,
                    "velocity": 0.3228346456692913,
                    "duration": 0.11904766666666688
                },
                {
                    "name": "C5",
                    "midi": 72,
                    "time": 58.80954733333342,
                    "velocity": 0.33070866141732286,
                    "duration": 0.11904766666666688
                },
                {
                    "name": "D#4",
                    "midi": 63,
                    "time": 58.92859500000009,
                    "velocity": 0.33070866141732286,
                    "duration": 0.11904766666666688
                },
                {
                    "name": "G#4",
                    "midi": 68,
                    "time": 59.04764266666675,
                    "velocity": 0.3464566929133858,
                    "duration": 0.11904766666666688
                },
                {
                    "name": "C5",
                    "midi": 72,
                    "time": 59.16669033333342,
                    "velocity": 0.3464566929133858,
                    "duration": 0.11904766666666688
                },
                {
                    "name": "G#4",
                    "midi": 68,
                    "time": 59.404785666666754,
                    "velocity": 0.3464566929133858,
                    "duration": 0.11904766666666688
                },
                {
                    "name": "C5",
                    "midi": 72,
                    "time": 59.52383333333342,
                    "velocity": 0.3543307086614173,
                    "duration": 0.11904766666666688
                },
                {
                    "name": "D#4",
                    "midi": 63,
                    "time": 59.64288100000009,
                    "velocity": 0.36220472440944884,
                    "duration": 0.11904766666666688
                },
                {
                    "name": "G#4",
                    "midi": 68,
                    "time": 59.761928666666755,
                    "velocity": 0.3700787401574803,
                    "duration": 0.11904766666666688
                },
                {
                    "name": "C5",
                    "midi": 72,
                    "time": 59.88097633333342,
                    "velocity": 0.3779527559055118,
                    "duration": 0.11904766666666688
                },
                {
                    "name": "C5",
                    "midi": 72,
                    "time": 60.119071666666756,
                    "velocity": 0.36220472440944884,
                    "duration": 0.11904766666666688
                },
                {
                    "name": "D#5",
                    "midi": 75,
                    "time": 60.23811933333342,
                    "velocity": 0.3700787401574803,
                    "duration": 0.11904766666666688
                },
                {
                    "name": "G4",
                    "midi": 67,
                    "time": 60.35716700000009,
                    "velocity": 0.3779527559055118,
                    "duration": 0.11904766666666688
                },
                {
                    "name": "C5",
                    "midi": 72,
                    "time": 60.476214666666756,
                    "velocity": 0.3779527559055118,
                    "duration": 0.11904766666666688
                },
                {
                    "name": "D#5",
                    "midi": 75,
                    "time": 60.59526233333342,
                    "velocity": 0.3858267716535433,
                    "duration": 0.11904766666666688
                },
                {
                    "name": "C5",
                    "midi": 72,
                    "time": 60.83335766666676,
                    "velocity": 0.4015748031496063,
                    "duration": 0.11904766666666688
                },
                {
                    "name": "D#5",
                    "midi": 75,
                    "time": 60.952405333333424,
                    "velocity": 0.4015748031496063,
                    "duration": 0.11904766666666688
                },
                {
                    "name": "G4",
                    "midi": 67,
                    "time": 61.07145300000009,
                    "velocity": 0.4094488188976378,
                    "duration": 0.11904766666666688
                },
                {
                    "name": "C5",
                    "midi": 72,
                    "time": 61.19050066666676,
                    "velocity": 0.41732283464566927,
                    "duration": 0.11904766666666688
                },
                {
                    "name": "D#5",
                    "midi": 75,
                    "time": 61.309548333333424,
                    "velocity": 0.41732283464566927,
                    "duration": 0.11904766666666688
                },
                {
                    "name": "C5",
                    "midi": 72,
                    "time": 61.54764366666676,
                    "velocity": 0.3937007874015748,
                    "duration": 0.11904766666666688
                },
                {
                    "name": "D5",
                    "midi": 74,
                    "time": 61.666691333333425,
                    "velocity": 0.3858267716535433,
                    "duration": 0.11904766666666688
                },
                {
                    "name": "F4",
                    "midi": 65,
                    "time": 61.78573900000009,
                    "velocity": 0.3779527559055118,
                    "duration": 0.11904766666666688
                },
                {
                    "name": "C5",
                    "midi": 72,
                    "time": 61.90478666666676,
                    "velocity": 0.3700787401574803,
                    "duration": 0.11904766666666688
                },
                {
                    "name": "D5",
                    "midi": 74,
                    "time": 62.023834333333426,
                    "velocity": 0.36220472440944884,
                    "duration": 0.11904766666666688
                },
                {
                    "name": "B4",
                    "midi": 71,
                    "time": 62.26192966666676,
                    "velocity": 0.3464566929133858,
                    "duration": 0.11904766666666688
                },
                {
                    "name": "D5",
                    "midi": 74,
                    "time": 62.380977333333426,
                    "velocity": 0.33070866141732286,
                    "duration": 0.11904766666666688
                },
                {
                    "name": "F4",
                    "midi": 65,
                    "time": 62.50002500000009,
                    "velocity": 0.3228346456692913,
                    "duration": 0.11904766666666688
                },
                {
                    "name": "B4",
                    "midi": 71,
                    "time": 62.61907266666676,
                    "velocity": 0.31496062992125984,
                    "duration": 0.11904766666666688
                },
                {
                    "name": "D5",
                    "midi": 74,
                    "time": 62.73812033333343,
                    "velocity": 0.30708661417322836,
                    "duration": 0.11904766666666688
                },
                {
                    "name": "G4",
                    "midi": 67,
                    "time": 62.97621566666676,
                    "velocity": 0.2204724409448819,
                    "duration": 0.11904766666666688
                },
                {
                    "name": "C5",
                    "midi": 72,
                    "time": 63.09526333333343,
                    "velocity": 0.2204724409448819,
                    "duration": 0.11904766666666688
                },
                {
                    "name": "E4",
                    "midi": 64,
                    "time": 63.214311000000095,
                    "velocity": 0.2204724409448819,
                    "duration": 0.11904766666666688
                },
                {
                    "name": "G4",
                    "midi": 67,
                    "time": 63.33335866666676,
                    "velocity": 0.2283464566929134,
                    "duration": 0.11904766666666688
                },
                {
                    "name": "C5",
                    "midi": 72,
                    "time": 63.45240633333343,
                    "velocity": 0.2283464566929134,
                    "duration": 0.11904766666666688
                },
                {
                    "name": "G#4",
                    "midi": 68,
                    "time": 63.69050166666676,
                    "velocity": 0.23622047244094488,
                    "duration": 0.11904766666666688
                },
                {
                    "name": "B4",
                    "midi": 71,
                    "time": 63.80954933333343,
                    "velocity": 0.23622047244094488,
                    "duration": 0.11904766666666688
                },
                {
                    "name": "D4",
                    "midi": 62,
                    "time": 63.928597000000096,
                    "velocity": 0.23622047244094488,
                    "duration": 0.11904766666665978
                },
                {
                    "name": "G#4",
                    "midi": 68,
                    "time": 64.04764466666676,
                    "velocity": 0.2440944881889764,
                    "duration": 0.11904766666665978
                },
                {
                    "name": "B4",
                    "midi": 71,
                    "time": 64.16669233333342,
                    "velocity": 0.2440944881889764,
                    "duration": 0.11904766666665978
                },
                {
                    "name": "G#4",
                    "midi": 68,
                    "time": 64.40478766666673,
                    "velocity": 0.25984251968503935,
                    "duration": 0.11904766666665978
                },
                {
                    "name": "B4",
                    "midi": 71,
                    "time": 64.5238353333334,
                    "velocity": 0.2440944881889764,
                    "duration": 0.11904766666665978
                },
                {
                    "name": "F4",
                    "midi": 65,
                    "time": 64.64288300000005,
                    "velocity": 0.2440944881889764,
                    "duration": 0.11904766666665978
                },
                {
                    "name": "G#4",
                    "midi": 68,
                    "time": 64.76193066666671,
                    "velocity": 0.2440944881889764,
                    "duration": 0.11904766666665978
                },
                {
                    "name": "B4",
                    "midi": 71,
                    "time": 64.88097833333337,
                    "velocity": 0.23622047244094488,
                    "duration": 0.11904766666665978
                },
                {
                    "name": "G#4",
                    "midi": 68,
                    "time": 65.1190736666667,
                    "velocity": 0.2283464566929134,
                    "duration": 0.11904766666665978
                },
                {
                    "name": "B4",
                    "midi": 71,
                    "time": 65.23812133333335,
                    "velocity": 0.2283464566929134,
                    "duration": 0.11904766666665978
                },
                {
                    "name": "E4",
                    "midi": 64,
                    "time": 65.35716900000001,
                    "velocity": 0.2283464566929134,
                    "duration": 0.11904766666665978
                },
                {
                    "name": "G#4",
                    "midi": 68,
                    "time": 65.47621666666667,
                    "velocity": 0.2204724409448819,
                    "duration": 0.11904766666665978
                },
                {
                    "name": "B4",
                    "midi": 71,
                    "time": 65.59526433333333,
                    "velocity": 0.2204724409448819,
                    "duration": 0.11904766666665978
                },
                {
                    "name": "G4",
                    "midi": 67,
                    "time": 65.83335966666665,
                    "velocity": 0.2283464566929134,
                    "duration": 0.11904766666665978
                },
                {
                    "name": "C5",
                    "midi": 72,
                    "time": 65.95240733333331,
                    "velocity": 0.23622047244094488,
                    "duration": 0.11904766666665978
                },
                {
                    "name": "E4",
                    "midi": 64,
                    "time": 66.07145499999997,
                    "velocity": 0.2440944881889764,
                    "duration": 0.11904766666665978
                },
                {
                    "name": "G4",
                    "midi": 67,
                    "time": 66.19050266666663,
                    "velocity": 0.2440944881889764,
                    "duration": 0.11904766666665978
                },
                {
                    "name": "C5",
                    "midi": 72,
                    "time": 66.30955033333329,
                    "velocity": 0.25984251968503935,
                    "duration": 0.11904766666665978
                },
                {
                    "name": "G#4",
                    "midi": 68,
                    "time": 66.54764566666661,
                    "velocity": 0.2677165354330709,
                    "duration": 0.11904766666665978
                },
                {
                    "name": "B4",
                    "midi": 71,
                    "time": 66.66669333333327,
                    "velocity": 0.2755905511811024,
                    "duration": 0.11904766666665978
                },
                {
                    "name": "D4",
                    "midi": 62,
                    "time": 66.78574099999993,
                    "velocity": 0.28346456692913385,
                    "duration": 0.11904766666665978
                },
                {
                    "name": "G#4",
                    "midi": 68,
                    "time": 66.90478866666659,
                    "velocity": 0.28346456692913385,
                    "duration": 0.11904766666665978
                },
                {
                    "name": "B4",
                    "midi": 71,
                    "time": 67.02383633333325,
                    "velocity": 0.29133858267716534,
                    "duration": 0.11904766666665978
                },
                {
                    "name": "G#4",
                    "midi": 68,
                    "time": 67.26193166666657,
                    "velocity": 0.29133858267716534,
                    "duration": 0.11904766666665978
                },
                {
                    "name": "B4",
                    "midi": 71,
                    "time": 67.38097933333323,
                    "velocity": 0.28346456692913385,
                    "duration": 0.11904766666665978
                },
                {
                    "name": "F4",
                    "midi": 65,
                    "time": 67.50002699999989,
                    "velocity": 0.28346456692913385,
                    "duration": 0.11904766666665978
                },
                {
                    "name": "G#4",
                    "midi": 68,
                    "time": 67.61907466666655,
                    "velocity": 0.28346456692913385,
                    "duration": 0.11904766666665978
                },
                {
                    "name": "B4",
                    "midi": 71,
                    "time": 67.73812233333321,
                    "velocity": 0.2677165354330709,
                    "duration": 0.11904766666665978
                },
                {
                    "name": "G#4",
                    "midi": 68,
                    "time": 67.97621766666653,
                    "velocity": 0.25984251968503935,
                    "duration": 0.11904766666665978
                },
                {
                    "name": "B4",
                    "midi": 71,
                    "time": 68.09526533333319,
                    "velocity": 0.25984251968503935,
                    "duration": 0.11904766666665978
                },
                {
                    "name": "E4",
                    "midi": 64,
                    "time": 68.21431299999985,
                    "velocity": 0.2440944881889764,
                    "duration": 0.11904766666665978
                },
                {
                    "name": "G#4",
                    "midi": 68,
                    "time": 68.33336066666651,
                    "velocity": 0.2440944881889764,
                    "duration": 0.11904766666665978
                },
                {
                    "name": "B4",
                    "midi": 71,
                    "time": 68.45240833333317,
                    "velocity": 0.2440944881889764,
                    "duration": 0.11904766666665978
                },
                {
                    "name": "A4",
                    "midi": 69,
                    "time": 68.69050366666649,
                    "velocity": 0.2283464566929134,
                    "duration": 0.11904766666665978
                },
                {
                    "name": "C#5",
                    "midi": 73,
                    "time": 68.80955133333315,
                    "velocity": 0.23622047244094488,
                    "duration": 0.11904766666665978
                },
                {
                    "name": "E4",
                    "midi": 64,
                    "time": 68.9285989999998,
                    "velocity": 0.2440944881889764,
                    "duration": 0.11904766666665978
                },
                {
                    "name": "A4",
                    "midi": 69,
                    "time": 69.04764666666647,
                    "velocity": 0.2440944881889764,
                    "duration": 0.11904766666665978
                },
                {
                    "name": "C#5",
                    "midi": 73,
                    "time": 69.16669433333313,
                    "velocity": 0.25984251968503935,
                    "duration": 0.11904766666665978
                },
                {
                    "name": "A4",
                    "midi": 69,
                    "time": 69.40478966666645,
                    "velocity": 0.2677165354330709,
                    "duration": 0.11904766666665978
                },
                {
                    "name": "B4",
                    "midi": 71,
                    "time": 69.5238373333331,
                    "velocity": 0.2755905511811024,
                    "duration": 0.11904766666665978
                },
                {
                    "name": "D4",
                    "midi": 62,
                    "time": 69.64288499999977,
                    "velocity": 0.28346456692913385,
                    "duration": 0.11904766666665978
                },
                {
                    "name": "A4",
                    "midi": 69,
                    "time": 69.76193266666643,
                    "velocity": 0.28346456692913385,
                    "duration": 0.11904766666665978
                },
                {
                    "name": "B4",
                    "midi": 71,
                    "time": 69.88098033333308,
                    "velocity": 0.29133858267716534,
                    "duration": 0.11904766666665978
                },
                {
                    "name": "A4",
                    "midi": 69,
                    "time": 70.1190756666664,
                    "velocity": 0.29133858267716534,
                    "duration": 0.11904766666665978
                },
                {
                    "name": "B4",
                    "midi": 71,
                    "time": 70.23812333333306,
                    "velocity": 0.28346456692913385,
                    "duration": 0.11904766666665978
                },
                {
                    "name": "F#4",
                    "midi": 66,
                    "time": 70.35717099999972,
                    "velocity": 0.28346456692913385,
                    "duration": 0.11904766666665978
                },
                {
                    "name": "A4",
                    "midi": 69,
                    "time": 70.47621866666638,
                    "velocity": 0.28346456692913385,
                    "duration": 0.11904766666665978
                },
                {
                    "name": "B4",
                    "midi": 71,
                    "time": 70.59526633333304,
                    "velocity": 0.2677165354330709,
                    "duration": 0.11904766666665978
                },
                {
                    "name": "G#4",
                    "midi": 68,
                    "time": 70.83336166666636,
                    "velocity": 0.25984251968503935,
                    "duration": 0.11904766666665978
                },
                {
                    "name": "D5",
                    "midi": 74,
                    "time": 70.95240933333302,
                    "velocity": 0.25984251968503935,
                    "duration": 0.11904766666665978
                },
                {
                    "name": "E4",
                    "midi": 64,
                    "time": 71.07145699999968,
                    "velocity": 0.2440944881889764,
                    "duration": 0.11904766666665978
                },
                {
                    "name": "G#4",
                    "midi": 68,
                    "time": 71.19050466666634,
                    "velocity": 0.2440944881889764,
                    "duration": 0.11904766666665978
                },
                {
                    "name": "D5",
                    "midi": 74,
                    "time": 71.309552333333,
                    "velocity": 0.2440944881889764,
                    "duration": 0.11904766666665978
                },
                {
                    "name": "A4",
                    "midi": 69,
                    "time": 71.54764766666632,
                    "velocity": 0.28346456692913385,
                    "duration": 0.11904766666665978
                },
                {
                    "name": "C#5",
                    "midi": 73,
                    "time": 71.66669533333298,
                    "velocity": 0.28346456692913385,
                    "duration": 0.11904766666665978
                },
                {
                    "name": "E4",
                    "midi": 64,
                    "time": 71.78574299999964,
                    "velocity": 0.2992125984251969,
                    "duration": 0.11904766666665978
                },
                {
                    "name": "A4",
                    "midi": 69,
                    "time": 71.9047906666663,
                    "velocity": 0.2992125984251969,
                    "duration": 0.11904766666665978
                },
                {
                    "name": "C#5",
                    "midi": 73,
                    "time": 72.02383833333296,
                    "velocity": 0.30708661417322836,
                    "duration": 0.11904766666665978
                },
                {
                    "name": "C#5",
                    "midi": 73,
                    "time": 72.26193366666628,
                    "velocity": 0.31496062992125984,
                    "duration": 0.11904766666665978
                },
                {
                    "name": "E5",
                    "midi": 76,
                    "time": 72.38098133333294,
                    "velocity": 0.31496062992125984,
                    "duration": 0.11904766666665978
                },
                {
                    "name": "A4",
                    "midi": 69,
                    "time": 72.5000289999996,
                    "velocity": 0.33070866141732286,
                    "duration": 0.11904766666665978
                },
                {
                    "name": "C#5",
                    "midi": 73,
                    "time": 72.61907666666626,
                    "velocity": 0.33070866141732286,
                    "duration": 0.11904766666665978
                },
                {
                    "name": "E5",
                    "midi": 76,
                    "time": 72.73812433333292,
                    "velocity": 0.3464566929133858,
                    "duration": 0.11904766666665978
                },
                {
                    "name": "D#5",
                    "midi": 75,
                    "time": 72.97621966666624,
                    "velocity": 0.3543307086614173,
                    "duration": 0.11904766666665978
                },
                {
                    "name": "F#5",
                    "midi": 78,
                    "time": 73.0952673333329,
                    "velocity": 0.3543307086614173,
                    "duration": 0.11904766666665978
                },
                {
                    "name": "A4",
                    "midi": 69,
                    "time": 73.21431499999956,
                    "velocity": 0.36220472440944884,
                    "duration": 0.11904766666665978
                },
                {
                    "name": "D#5",
                    "midi": 75,
                    "time": 73.33336266666622,
                    "velocity": 0.36220472440944884,
                    "duration": 0.11904766666665978
                },
                {
                    "name": "F#5",
                    "midi": 78,
                    "time": 73.45241033333288,
                    "velocity": 0.3779527559055118,
                    "duration": 0.11904766666665978
                },
                {
                    "name": "D#5",
                    "midi": 75,
                    "time": 73.6905056666662,
                    "velocity": 0.3858267716535433,
                    "duration": 0.11904766666665978
                },
                {
                    "name": "F#5",
                    "midi": 78,
                    "time": 73.80955333333286,
                    "velocity": 0.3858267716535433,
                    "duration": 0.11904766666665978
                },
                {
                    "name": "G#4",
                    "midi": 68,
                    "time": 73.92860099999952,
                    "velocity": 0.3937007874015748,
                    "duration": 0.11904766666665978
                },
                {
                    "name": "D#5",
                    "midi": 75,
                    "time": 74.04764866666618,
                    "velocity": 0.3937007874015748,
                    "duration": 0.11904766666665978
                },
                {
                    "name": "F#5",
                    "midi": 78,
                    "time": 74.16669633333284,
                    "velocity": 0.4094488188976378,
                    "duration": 0.11904766666665978
                },
                {
                    "name": "C#5",
                    "midi": 73,
                    "time": 74.40479166666616,
                    "velocity": 0.4094488188976378,
                    "duration": 0.11904766666665978
                },
                {
                    "name": "F5",
                    "midi": 77,
                    "time": 74.52383933333282,
                    "velocity": 0.41732283464566927,
                    "duration": 0.11904766666665978
                },
                {
                    "name": "F4",
                    "midi": 65,
                    "time": 74.64288699999948,
                    "velocity": 0.41732283464566927,
                    "duration": 0.11904766666665978
                },
                {
                    "name": "C#5",
                    "midi": 73,
                    "time": 74.76193466666614,
                    "velocity": 0.41732283464566927,
                    "duration": 0.11904766666665978
                },
                {
                    "name": "F5",
                    "midi": 77,
                    "time": 74.8809823333328,
                    "velocity": 0.4330708661417323,
                    "duration": 0.11904766666665978
                },
                {
                    "name": "C#5",
                    "midi": 73,
                    "time": 75.11907766666612,
                    "velocity": 0.44881889763779526,
                    "duration": 0.11904766666665978
                },
                {
                    "name": "F5",
                    "midi": 77,
                    "time": 75.23812533333277,
                    "velocity": 0.44881889763779526,
                    "duration": 0.11904766666665978
                },
                {
                    "name": "F4",
                    "midi": 65,
                    "time": 75.35717299999943,
                    "velocity": 0.4566929133858268,
                    "duration": 0.11904766666665978
                },
                {
                    "name": "C#5",
                    "midi": 73,
                    "time": 75.4762206666661,
                    "velocity": 0.4566929133858268,
                    "duration": 0.11904766666665978
                },
                {
                    "name": "F5",
                    "midi": 77,
                    "time": 75.59526833333275,
                    "velocity": 0.4645669291338583,
                    "duration": 0.11904766666665978
                },
                {
                    "name": "A#4",
                    "midi": 70,
                    "time": 75.83336366666607,
                    "velocity": 0.4645669291338583,
                    "duration": 0.11904766666665978
                },
                {
                    "name": "C#5",
                    "midi": 73,
                    "time": 75.95241133333273,
                    "velocity": 0.47244094488188976,
                    "duration": 0.11904766666665978
                },
                {
                    "name": "F4",
                    "midi": 65,
                    "time": 76.0714589999994,
                    "velocity": 0.47244094488188976,
                    "duration": 0.11904766666665978
                },
                {
                    "name": "A#4",
                    "midi": 70,
                    "time": 76.19050666666605,
                    "velocity": 0.4881889763779528,
                    "duration": 0.11904766666665978
                },
                {
                    "name": "C#5",
                    "midi": 73,
                    "time": 76.30955433333271,
                    "velocity": 0.4881889763779528,
                    "duration": 0.11904766666665978
                },
                {
                    "name": "A#4",
                    "midi": 70,
                    "time": 76.54764966666603,
                    "velocity": 0.41732283464566927,
                    "duration": 0.11904766666665978
                },
                {
                    "name": "C#5",
                    "midi": 73,
                    "time": 76.66669733333269,
                    "velocity": 0.41732283464566927,
                    "duration": 0.11904766666665978
                },
                {
                    "name": "F4",
                    "midi": 65,
                    "time": 76.78574499999935,
                    "velocity": 0.41732283464566927,
                    "duration": 0.11904766666665978
                },
                {
                    "name": "A#4",
                    "midi": 70,
                    "time": 76.90479266666601,
                    "velocity": 0.4094488188976378,
                    "duration": 0.11904766666665978
                },
                {
                    "name": "C#5",
                    "midi": 73,
                    "time": 77.02384033333267,
                    "velocity": 0.41732283464566927,
                    "duration": 0.11904766666665978
                },
                {
                    "name": "C5",
                    "midi": 72,
                    "time": 77.26193566666599,
                    "velocity": 0.4094488188976378,
                    "duration": 0.11904766666665978
                },
                {
                    "name": "D#5",
                    "midi": 75,
                    "time": 77.38098333333265,
                    "velocity": 0.41732283464566927,
                    "duration": 0.11904766666665978
                },
                {
                    "name": "D#4",
                    "midi": 63,
                    "time": 77.50003099999931,
                    "velocity": 0.41732283464566927,
                    "duration": 0.11904766666665978
                },
                {
                    "name": "C5",
                    "midi": 72,
                    "time": 77.61907866666597,
                    "velocity": 0.41732283464566927,
                    "duration": 0.11904766666665978
                },
                {
                    "name": "D#5",
                    "midi": 75,
                    "time": 77.73812633333263,
                    "velocity": 0.4330708661417323,
                    "duration": 0.11904766666665978
                },
                {
                    "name": "C5",
                    "midi": 72,
                    "time": 77.97622166666595,
                    "velocity": 0.44881889763779526,
                    "duration": 0.11904766666665978
                },
                {
                    "name": "D#5",
                    "midi": 75,
                    "time": 78.09526933333261,
                    "velocity": 0.44881889763779526,
                    "duration": 0.11904766666665978
                },
                {
                    "name": "D#4",
                    "midi": 63,
                    "time": 78.21431699999927,
                    "velocity": 0.4566929133858268,
                    "duration": 0.11904766666665978
                },
                {
                    "name": "C5",
                    "midi": 72,
                    "time": 78.33336466666593,
                    "velocity": 0.4566929133858268,
                    "duration": 0.11904766666665978
                },
                {
                    "name": "D#5",
                    "midi": 75,
                    "time": 78.45241233333259,
                    "velocity": 0.4645669291338583,
                    "duration": 0.11904766666665978
                },
                {
                    "name": "G#4",
                    "midi": 68,
                    "time": 78.69050766666591,
                    "velocity": 0.4645669291338583,
                    "duration": 0.11904766666665978
                },
                {
                    "name": "C5",
                    "midi": 72,
                    "time": 78.80955533333257,
                    "velocity": 0.47244094488188976,
                    "duration": 0.11904766666665978
                },
                {
                    "name": "D#4",
                    "midi": 63,
                    "time": 78.92860299999923,
                    "velocity": 0.47244094488188976,
                    "duration": 0.11904766666665978
                },
                {
                    "name": "G#4",
                    "midi": 68,
                    "time": 79.04765066666589,
                    "velocity": 0.4881889763779528,
                    "duration": 0.11904766666665978
                },
                {
                    "name": "C5",
                    "midi": 72,
                    "time": 79.16669833333255,
                    "velocity": 0.4881889763779528,
                    "duration": 0.11904766666665978
                },
                {
                    "name": "G#4",
                    "midi": 68,
                    "time": 79.40479366666587,
                    "velocity": 0.44881889763779526,
                    "duration": 0.11904766666665978
                },
                {
                    "name": "C5",
                    "midi": 72,
                    "time": 79.52384133333253,
                    "velocity": 0.44881889763779526,
                    "duration": 0.11904766666665978
                },
                {
                    "name": "D#4",
                    "midi": 63,
                    "time": 79.64288899999919,
                    "velocity": 0.44881889763779526,
                    "duration": 0.11904766666665978
                },
                {
                    "name": "G#4",
                    "midi": 68,
                    "time": 79.76193666666585,
                    "velocity": 0.44881889763779526,
                    "duration": 0.11904766666665978
                },
                {
                    "name": "C5",
                    "midi": 72,
                    "time": 79.8809843333325,
                    "velocity": 0.44881889763779526,
                    "duration": 0.11904766666665978
                },
                {
                    "name": "G4",
                    "midi": 67,
                    "time": 80.11907966666583,
                    "velocity": 0.4094488188976378,
                    "duration": 0.11904766666665978
                },
                {
                    "name": "A#4",
                    "midi": 70,
                    "time": 80.23812733333249,
                    "velocity": 0.41732283464566927,
                    "duration": 0.11904766666665978
                },
                {
                    "name": "C#4",
                    "midi": 61,
                    "time": 80.35717499999915,
                    "velocity": 0.41732283464566927,
                    "duration": 0.11904766666665978
                },
                {
                    "name": "G4",
                    "midi": 67,
                    "time": 80.4762226666658,
                    "velocity": 0.41732283464566927,
                    "duration": 0.11904766666665978
                },
                {
                    "name": "A#4",
                    "midi": 70,
                    "time": 80.59527033333246,
                    "velocity": 0.4330708661417323,
                    "duration": 0.11904766666665978
                },
                {
                    "name": "G4",
                    "midi": 67,
                    "time": 80.83336566666578,
                    "velocity": 0.44881889763779526,
                    "duration": 0.11904766666665978
                },
                {
                    "name": "A#4",
                    "midi": 70,
                    "time": 80.95241333333244,
                    "velocity": 0.44881889763779526,
                    "duration": 0.11904766666665978
                },
                {
                    "name": "C#4",
                    "midi": 61,
                    "time": 81.0714609999991,
                    "velocity": 0.4566929133858268,
                    "duration": 0.11904766666665978
                },
                {
                    "name": "G4",
                    "midi": 67,
                    "time": 81.19050866666576,
                    "velocity": 0.4566929133858268,
                    "duration": 0.11904766666665978
                },
                {
                    "name": "A#4",
                    "midi": 70,
                    "time": 81.30955633333242,
                    "velocity": 0.4645669291338583,
                    "duration": 0.11904766666665978
                },
                {
                    "name": "G4",
                    "midi": 67,
                    "time": 81.54765166666574,
                    "velocity": 0.4645669291338583,
                    "duration": 0.11904766666665978
                },
                {
                    "name": "A#4",
                    "midi": 70,
                    "time": 81.6666993333324,
                    "velocity": 0.47244094488188976,
                    "duration": 0.11904766666665978
                },
                {
                    "name": "C#4",
                    "midi": 61,
                    "time": 81.78574699999906,
                    "velocity": 0.47244094488188976,
                    "duration": 0.11904766666665978
                },
                {
                    "name": "G4",
                    "midi": 67,
                    "time": 81.90479466666572,
                    "velocity": 0.4881889763779528,
                    "duration": 0.11904766666665978
                },
                {
                    "name": "A#4",
                    "midi": 70,
                    "time": 82.02384233333238,
                    "velocity": 0.4881889763779528,
                    "duration": 0.11904766666665978
                },
                {
                    "name": "G4",
                    "midi": 67,
                    "time": 82.2619376666657,
                    "velocity": 0.44881889763779526,
                    "duration": 0.11904766666665978
                },
                {
                    "name": "A#4",
                    "midi": 70,
                    "time": 82.38098533333236,
                    "velocity": 0.44881889763779526,
                    "duration": 0.11904766666665978
                },
                {
                    "name": "C#4",
                    "midi": 61,
                    "time": 82.50003299999902,
                    "velocity": 0.44881889763779526,
                    "duration": 0.11904766666665978
                },
                {
                    "name": "G4",
                    "midi": 67,
                    "time": 82.61908066666568,
                    "velocity": 0.44881889763779526,
                    "duration": 0.11904766666665978
                },
                {
                    "name": "A#4",
                    "midi": 70,
                    "time": 82.73812833333234,
                    "velocity": 0.44881889763779526,
                    "duration": 0.11904766666665978
                },
                {
                    "name": "F4",
                    "midi": 65,
                    "time": 82.97622366666566,
                    "velocity": 0.3937007874015748,
                    "duration": 0.11904766666665978
                },
                {
                    "name": "G#4",
                    "midi": 68,
                    "time": 83.09527133333232,
                    "velocity": 0.3937007874015748,
                    "duration": 0.11904766666665978
                },
                {
                    "name": "C#4",
                    "midi": 61,
                    "time": 83.21431899999898,
                    "velocity": 0.3937007874015748,
                    "duration": 0.11904766666665978
                },
                {
                    "name": "F4",
                    "midi": 65,
                    "time": 83.33336666666564,
                    "velocity": 0.3937007874015748,
                    "duration": 0.11904766666665978
                },
                {
                    "name": "G#4",
                    "midi": 68,
                    "time": 83.4524143333323,
                    "velocity": 0.3937007874015748,
                    "duration": 0.11904766666665978
                },
                {
                    "name": "F4",
                    "midi": 65,
                    "time": 83.69050966666562,
                    "velocity": 0.3858267716535433,
                    "duration": 0.11904766666665978
                },
                {
                    "name": "G#4",
                    "midi": 68,
                    "time": 83.80955733333228,
                    "velocity": 0.3858267716535433,
                    "duration": 0.11904766666665978
                },
                {
                    "name": "C4",
                    "midi": 60,
                    "time": 83.92860499999894,
                    "velocity": 0.3858267716535433,
                    "duration": 0.11904766666665978
                },
                {
                    "name": "F4",
                    "midi": 65,
                    "time": 84.0476526666656,
                    "velocity": 0.3858267716535433,
                    "duration": 0.11904766666665978
                },
                {
                    "name": "G#4",
                    "midi": 68,
                    "time": 84.16670033333226,
                    "velocity": 0.3858267716535433,
                    "duration": 0.11904766666665978
                },
                {
                    "name": "D#4",
                    "midi": 63,
                    "time": 84.40479566666558,
                    "velocity": 0.3779527559055118,
                    "duration": 0.11904766666665978
                },
                {
                    "name": "F4",
                    "midi": 65,
                    "time": 84.52384333333224,
                    "velocity": 0.3779527559055118,
                    "duration": 0.11904766666665978
                },
                {
                    "name": "C4",
                    "midi": 60,
                    "time": 84.6428909999989,
                    "velocity": 0.3779527559055118,
                    "duration": 0.11904766666665978
                },
                {
                    "name": "D#4",
                    "midi": 63,
                    "time": 84.76193866666556,
                    "velocity": 0.3779527559055118,
                    "duration": 0.11904766666665978
                },
                {
                    "name": "F4",
                    "midi": 65,
                    "time": 84.88098633333222,
                    "velocity": 0.3779527559055118,
                    "duration": 0.11904766666665978
                },
                {
                    "name": "D#5",
                    "midi": 75,
                    "time": 85.11908166666554,
                    "velocity": 0.3858267716535433,
                    "duration": 0.11904766666665978
                },
                {
                    "name": "F5",
                    "midi": 77,
                    "time": 85.2381293333322,
                    "velocity": 0.3858267716535433,
                    "duration": 0.11904766666665978
                },
                {
                    "name": "C5",
                    "midi": 72,
                    "time": 85.35717699999886,
                    "velocity": 0.3937007874015748,
                    "duration": 0.11904766666665978
                },
                {
                    "name": "D#5",
                    "midi": 75,
                    "time": 85.47622466666552,
                    "velocity": 0.3937007874015748,
                    "duration": 0.11904766666665978
                },
                {
                    "name": "F5",
                    "midi": 77,
                    "time": 85.59527233333218,
                    "velocity": 0.4094488188976378,
                    "duration": 0.11904766666665978
                },
                {
                    "name": "C#5",
                    "midi": 73,
                    "time": 85.8333676666655,
                    "velocity": 0.4094488188976378,
                    "duration": 0.11904766666665978
                },
                {
                    "name": "F5",
                    "midi": 77,
                    "time": 85.95241533333216,
                    "velocity": 0.41732283464566927,
                    "duration": 0.11904766666665978
                },
                {
                    "name": "F4",
                    "midi": 65,
                    "time": 86.07146299999881,
                    "velocity": 0.41732283464566927,
                    "duration": 0.11904766666665978
                },
                {
                    "name": "C#5",
                    "midi": 73,
                    "time": 86.19051066666547,
                    "velocity": 0.41732283464566927,
                    "duration": 0.11904766666665978
                },
                {
                    "name": "F5",
                    "midi": 77,
                    "time": 86.30955833333213,
                    "velocity": 0.4330708661417323,
                    "duration": 0.11904766666665978
                },
                {
                    "name": "C#5",
                    "midi": 73,
                    "time": 86.54765366666545,
                    "velocity": 0.44881889763779526,
                    "duration": 0.11904766666665978
                },
                {
                    "name": "F5",
                    "midi": 77,
                    "time": 86.66670133333211,
                    "velocity": 0.44881889763779526,
                    "duration": 0.11904766666665978
                },
                {
                    "name": "F4",
                    "midi": 65,
                    "time": 86.78574899999877,
                    "velocity": 0.4566929133858268,
                    "duration": 0.11904766666665978
                },
                {
                    "name": "C#5",
                    "midi": 73,
                    "time": 86.90479666666543,
                    "velocity": 0.4566929133858268,
                    "duration": 0.11904766666665978
                },
                {
                    "name": "F5",
                    "midi": 77,
                    "time": 87.0238443333321,
                    "velocity": 0.4645669291338583,
                    "duration": 0.11904766666665978
                },
                {
                    "name": "A#4",
                    "midi": 70,
                    "time": 87.26193966666541,
                    "velocity": 0.44881889763779526,
                    "duration": 0.11904766666665978
                },
                {
                    "name": "C#5",
                    "midi": 73,
                    "time": 87.38098733333207,
                    "velocity": 0.44881889763779526,
                    "duration": 0.11904766666665978
                },
                {
                    "name": "E4",
                    "midi": 64,
                    "time": 87.50003499999873,
                    "velocity": 0.4330708661417323,
                    "duration": 0.11904766666665978
                },
                {
                    "name": "A#4",
                    "midi": 70,
                    "time": 87.61908266666539,
                    "velocity": 0.4330708661417323,
                    "duration": 0.11904766666665978
                },
                {
                    "name": "C#5",
                    "midi": 73,
                    "time": 87.73813033333205,
                    "velocity": 0.4330708661417323,
                    "duration": 0.11904766666665978
                },
                {
                    "name": "A#4",
                    "midi": 70,
                    "time": 87.97622566666537,
                    "velocity": 0.41732283464566927,
                    "duration": 0.11904766666665978
                },
                {
                    "name": "C#5",
                    "midi": 73,
                    "time": 88.09527333333203,
                    "velocity": 0.41732283464566927,
                    "duration": 0.11904766666665978
                },
                {
                    "name": "E4",
                    "midi": 64,
                    "time": 88.21432099999869,
                    "velocity": 0.41732283464566927,
                    "duration": 0.11904766666665978
                },
                {
                    "name": "A#4",
                    "midi": 70,
                    "time": 88.33336866666535,
                    "velocity": 0.4094488188976378,
                    "duration": 0.11904766666665978
                },
                {
                    "name": "C#5",
                    "midi": 73,
                    "time": 88.45241633333201,
                    "velocity": 0.41732283464566927,
                    "duration": 0.11904766666665978
                },
                {
                    "name": "C5",
                    "midi": 72,
                    "time": 88.69051166666533,
                    "velocity": 0.4094488188976378,
                    "duration": 0.11904766666665978
                },
                {
                    "name": "D#5",
                    "midi": 75,
                    "time": 88.80955933333199,
                    "velocity": 0.41732283464566927,
                    "duration": 0.11904766666665978
                },
                {
                    "name": "D#4",
                    "midi": 63,
                    "time": 88.92860699999865,
                    "velocity": 0.41732283464566927,
                    "duration": 0.11904766666665978
                },
                {
                    "name": "C5",
                    "midi": 72,
                    "time": 89.04765466666531,
                    "velocity": 0.41732283464566927,
                    "duration": 0.11904766666665978
                },
                {
                    "name": "D#5",
                    "midi": 75,
                    "time": 89.16670233333197,
                    "velocity": 0.4330708661417323,
                    "duration": 0.11904766666665978
                },
                {
                    "name": "C5",
                    "midi": 72,
                    "time": 89.40479766666529,
                    "velocity": 0.4094488188976378,
                    "duration": 0.11904766666665978
                },
                {
                    "name": "D#5",
                    "midi": 75,
                    "time": 89.52384533333195,
                    "velocity": 0.4094488188976378,
                    "duration": 0.11904766666665978
                },
                {
                    "name": "D#4",
                    "midi": 63,
                    "time": 89.64289299999861,
                    "velocity": 0.41732283464566927,
                    "duration": 0.11904766666665978
                },
                {
                    "name": "C5",
                    "midi": 72,
                    "time": 89.76194066666527,
                    "velocity": 0.41732283464566927,
                    "duration": 0.11904766666665978
                },
                {
                    "name": "D#5",
                    "midi": 75,
                    "time": 89.88098833333193,
                    "velocity": 0.41732283464566927,
                    "duration": 0.11904766666665978
                },
                {
                    "name": "G#4",
                    "midi": 68,
                    "time": 90.11908366666525,
                    "velocity": 0.4330708661417323,
                    "duration": 0.11904766666665978
                },
                {
                    "name": "C5",
                    "midi": 72,
                    "time": 90.2381313333319,
                    "velocity": 0.4409448818897638,
                    "duration": 0.11904766666665978
                },
                {
                    "name": "D#4",
                    "midi": 63,
                    "time": 90.35717899999857,
                    "velocity": 0.4409448818897638,
                    "duration": 0.11904766666665978
                },
                {
                    "name": "G#4",
                    "midi": 68,
                    "time": 90.47622666666523,
                    "velocity": 0.4409448818897638,
                    "duration": 0.11904766666665978
                },
                {
                    "name": "C5",
                    "midi": 72,
                    "time": 90.59527433333189,
                    "velocity": 0.44881889763779526,
                    "duration": 0.11904766666665978
                },
                {
                    "name": "G#4",
                    "midi": 68,
                    "time": 90.8333696666652,
                    "velocity": 0.4566929133858268,
                    "duration": 0.11904766666665978
                },
                {
                    "name": "C5",
                    "midi": 72,
                    "time": 90.95241733333187,
                    "velocity": 0.44881889763779526,
                    "duration": 0.11904766666665978
                },
                {
                    "name": "D#4",
                    "midi": 63,
                    "time": 91.07146499999853,
                    "velocity": 0.44881889763779526,
                    "duration": 0.11904766666665978
                },
                {
                    "name": "G#4",
                    "midi": 68,
                    "time": 91.19051266666519,
                    "velocity": 0.44881889763779526,
                    "duration": 0.11904766666665978
                },
                {
                    "name": "C5",
                    "midi": 72,
                    "time": 91.30956033333185,
                    "velocity": 0.44881889763779526,
                    "duration": 0.11904766666665978
                },
                {
                    "name": "A4",
                    "midi": 69,
                    "time": 91.54765566666516,
                    "velocity": 0.31496062992125984,
                    "duration": 0.11904766666665978
                },
                {
                    "name": "C5",
                    "midi": 72,
                    "time": 91.66670333333182,
                    "velocity": 0.3228346456692913,
                    "duration": 0.11904766666665978
                },
                {
                    "name": "D#4",
                    "midi": 63,
                    "time": 91.78575099999848,
                    "velocity": 0.3228346456692913,
                    "duration": 0.11904766666665978
                },
                {
                    "name": "A4",
                    "midi": 69,
                    "time": 91.90479866666514,
                    "velocity": 0.33070866141732286,
                    "duration": 0.11904766666665978
                },
                {
                    "name": "C5",
                    "midi": 72,
                    "time": 92.0238463333318,
                    "velocity": 0.33070866141732286,
                    "duration": 0.11904766666665978
                },
                {
                    "name": "A4",
                    "midi": 69,
                    "time": 92.26194166666512,
                    "velocity": 0.3543307086614173,
                    "duration": 0.11904766666665978
                },
                {
                    "name": "C5",
                    "midi": 72,
                    "time": 92.38098933333178,
                    "velocity": 0.3543307086614173,
                    "duration": 0.11904766666665978
                },
                {
                    "name": "D#4",
                    "midi": 63,
                    "time": 92.50003699999844,
                    "velocity": 0.36220472440944884,
                    "duration": 0.11904766666665978
                },
                {
                    "name": "A4",
                    "midi": 69,
                    "time": 92.6190846666651,
                    "velocity": 0.36220472440944884,
                    "duration": 0.11904766666665978
                },
                {
                    "name": "C5",
                    "midi": 72,
                    "time": 92.73813233333176,
                    "velocity": 0.3700787401574803,
                    "duration": 0.11904766666665978
                },
                {
                    "name": "A4",
                    "midi": 69,
                    "time": 92.97622766666508,
                    "velocity": 0.3779527559055118,
                    "duration": 0.11904766666665978
                },
                {
                    "name": "C5",
                    "midi": 72,
                    "time": 93.09527533333174,
                    "velocity": 0.3858267716535433,
                    "duration": 0.11904766666665978
                },
                {
                    "name": "D#4",
                    "midi": 63,
                    "time": 93.2143229999984,
                    "velocity": 0.3858267716535433,
                    "duration": 0.11904766666665978
                },
                {
                    "name": "A4",
                    "midi": 69,
                    "time": 93.33337066666506,
                    "velocity": 0.3937007874015748,
                    "duration": 0.11904766666665978
                },
                {
                    "name": "C5",
                    "midi": 72,
                    "time": 93.45241833333172,
                    "velocity": 0.4015748031496063,
                    "duration": 0.11904766666665978
                },
                {
                    "name": "A4",
                    "midi": 69,
                    "time": 93.69051366666504,
                    "velocity": 0.3779527559055118,
                    "duration": 0.11904766666665978
                },
                {
                    "name": "C5",
                    "midi": 72,
                    "time": 93.8095613333317,
                    "velocity": 0.3700787401574803,
                    "duration": 0.11904766666665978
                },
                {
                    "name": "D#4",
                    "midi": 63,
                    "time": 93.92860899999836,
                    "velocity": 0.3543307086614173,
                    "duration": 0.11904766666665978
                },
                {
                    "name": "A4",
                    "midi": 69,
                    "time": 94.04765666666502,
                    "velocity": 0.3464566929133858,
                    "duration": 0.11904766666665978
                },
                {
                    "name": "C5",
                    "midi": 72,
                    "time": 94.16670433333168,
                    "velocity": 0.3228346456692913,
                    "duration": 0.11904766666665978
                },
                {
                    "name": "A#4",
                    "midi": 70,
                    "time": 94.404799666665,
                    "velocity": 0.3700787401574803,
                    "duration": 0.11904766666665978
                },
                {
                    "name": "C#5",
                    "midi": 73,
                    "time": 94.52384733333166,
                    "velocity": 0.3700787401574803,
                    "duration": 0.11904766666665978
                },
                {
                    "name": "C#4",
                    "midi": 61,
                    "time": 94.64289499999832,
                    "velocity": 0.3779527559055118,
                    "duration": 0.11904766666665978
                },
                {
                    "name": "A#4",
                    "midi": 70,
                    "time": 94.76194266666498,
                    "velocity": 0.3779527559055118,
                    "duration": 0.11904766666665978
                },
                {
                    "name": "C#5",
                    "midi": 73,
                    "time": 94.88099033333164,
                    "velocity": 0.3858267716535433,
                    "duration": 0.11904766666665978
                },
                {
                    "name": "A#4",
                    "midi": 70,
                    "time": 95.11908566666496,
                    "velocity": 0.3937007874015748,
                    "duration": 0.11904766666665978
                },
                {
                    "name": "C#5",
                    "midi": 73,
                    "time": 95.23813333333162,
                    "velocity": 0.4015748031496063,
                    "duration": 0.11904766666665978
                },
                {
                    "name": "F4",
                    "midi": 65,
                    "time": 95.35718099999828,
                    "velocity": 0.4015748031496063,
                    "duration": 0.11904766666665978
                },
                {
                    "name": "A#4",
                    "midi": 70,
                    "time": 95.47622866666494,
                    "velocity": 0.4094488188976378,
                    "duration": 0.11904766666665978
                },
                {
                    "name": "C#5",
                    "midi": 73,
                    "time": 95.5952763333316,
                    "velocity": 0.4094488188976378,
                    "duration": 0.11904766666665978
                },
                {
                    "name": "B4",
                    "midi": 71,
                    "time": 95.83337166666492,
                    "velocity": 0.41732283464566927,
                    "duration": 0.11904766666665978
                },
                {
                    "name": "C#5",
                    "midi": 73,
                    "time": 95.95241933333158,
                    "velocity": 0.4330708661417323,
                    "duration": 0.11904766666665978
                },
                {
                    "name": "F4",
                    "midi": 65,
                    "time": 96.07146699999824,
                    "velocity": 0.4409448818897638,
                    "duration": 0.11904766666665978
                },
                {
                    "name": "B4",
                    "midi": 71,
                    "time": 96.1905146666649,
                    "velocity": 0.4409448818897638,
                    "duration": 0.11904766666665978
                },
                {
                    "name": "C#5",
                    "midi": 73,
                    "time": 96.30956233333156,
                    "velocity": 0.44881889763779526,
                    "duration": 0.11904766666665978
                },
                {
                    "name": "B4",
                    "midi": 71,
                    "time": 96.54765766666488,
                    "velocity": 0.44881889763779526,
                    "duration": 0.11904766666665978
                },
                {
                    "name": "C#5",
                    "midi": 73,
                    "time": 96.66670533333154,
                    "velocity": 0.4330708661417323,
                    "duration": 0.11904766666665978
                },
                {
                    "name": "F4",
                    "midi": 65,
                    "time": 96.7857529999982,
                    "velocity": 0.41732283464566927,
                    "duration": 0.11904766666665978
                },
                {
                    "name": "B4",
                    "midi": 71,
                    "time": 96.90480066666485,
                    "velocity": 0.4094488188976378,
                    "duration": 0.11904766666665978
                },
                {
                    "name": "C#5",
                    "midi": 73,
                    "time": 97.02384833333151,
                    "velocity": 0.4015748031496063,
                    "duration": 0.11904766666665978
                },
                {
                    "name": "C5",
                    "midi": 72,
                    "time": 97.26194366666483,
                    "velocity": 0.4094488188976378,
                    "duration": 0.11904766666665978
                },
                {
                    "name": "D#5",
                    "midi": 75,
                    "time": 97.3809913333315,
                    "velocity": 0.4094488188976378,
                    "duration": 0.11904766666665978
                },
                {
                    "name": "D#4",
                    "midi": 63,
                    "time": 97.50003899999815,
                    "velocity": 0.4094488188976378,
                    "duration": 0.11904766666665978
                },
                {
                    "name": "C5",
                    "midi": 72,
                    "time": 97.61908666666481,
                    "velocity": 0.4094488188976378,
                    "duration": 0.11904766666665978
                },
                {
                    "name": "D#5",
                    "midi": 75,
                    "time": 97.73813433333147,
                    "velocity": 0.41732283464566927,
                    "duration": 0.11904766666665978
                },
                {
                    "name": "C5",
                    "midi": 72,
                    "time": 97.97622966666479,
                    "velocity": 0.4330708661417323,
                    "duration": 0.11904766666665978
                },
                {
                    "name": "D#5",
                    "midi": 75,
                    "time": 98.09527733333145,
                    "velocity": 0.4330708661417323,
                    "duration": 0.11904766666665978
                },
                {
                    "name": "G#4",
                    "midi": 68,
                    "time": 98.21432499999811,
                    "velocity": 0.4409448818897638,
                    "duration": 0.11904766666665978
                },
                {
                    "name": "C5",
                    "midi": 72,
                    "time": 98.33337266666477,
                    "velocity": 0.4409448818897638,
                    "duration": 0.11904766666665978
                },
                {
                    "name": "D#5",
                    "midi": 75,
                    "time": 98.45242033333143,
                    "velocity": 0.4409448818897638,
                    "duration": 0.11904766666665978
                },
                {
                    "name": "C5",
                    "midi": 72,
                    "time": 98.69051566666475,
                    "velocity": 0.4566929133858268,
                    "duration": 0.11904766666665978
                },
                {
                    "name": "D#5",
                    "midi": 75,
                    "time": 98.80956333333141,
                    "velocity": 0.4645669291338583,
                    "duration": 0.11904766666665978
                },
                {
                    "name": "A4",
                    "midi": 69,
                    "time": 98.92861099999807,
                    "velocity": 0.47244094488188976,
                    "duration": 0.11904766666665978
                },
                {
                    "name": "C5",
                    "midi": 72,
                    "time": 99.04765866666473,
                    "velocity": 0.47244094488188976,
                    "duration": 0.11904766666665978
                },
                {
                    "name": "D#5",
                    "midi": 75,
                    "time": 99.16670633333139,
                    "velocity": 0.48031496062992124,
                    "duration": 0.11904766666665978
                },
                {
                    "name": "A5",
                    "midi": 81,
                    "time": 99.40480166666471,
                    "velocity": 0.4566929133858268,
                    "duration": 0.11904766666665978
                },
                {
                    "name": "C6",
                    "midi": 84,
                    "time": 99.52384933333137,
                    "velocity": 0.4645669291338583,
                    "duration": 0.11904766666665978
                },
                {
                    "name": "D#5",
                    "midi": 75,
                    "time": 99.64289699999803,
                    "velocity": 0.4645669291338583,
                    "duration": 0.11904766666665978
                },
                {
                    "name": "A5",
                    "midi": 81,
                    "time": 99.76194466666469,
                    "velocity": 0.4645669291338583,
                    "duration": 0.11904766666665978
                },
                {
                    "name": "C6",
                    "midi": 84,
                    "time": 99.88099233333135,
                    "velocity": 0.47244094488188976,
                    "duration": 0.11904766666665978
                },
                {
                    "name": "F5",
                    "midi": 77,
                    "time": 100.11908766666467,
                    "velocity": 0.4566929133858268,
                    "duration": 0.11904766666665978
                },
                {
                    "name": "G#5",
                    "midi": 80,
                    "time": 100.23813533333133,
                    "velocity": 0.4566929133858268,
                    "duration": 0.11904766666665978
                },
                {
                    "name": "A#4",
                    "midi": 70,
                    "time": 100.35718299999799,
                    "velocity": 0.4566929133858268,
                    "duration": 0.11904766666665978
                },
                {
                    "name": "F5",
                    "midi": 77,
                    "time": 100.47623066666465,
                    "velocity": 0.4566929133858268,
                    "duration": 0.11904766666665978
                },
                {
                    "name": "G#5",
                    "midi": 80,
                    "time": 100.59527833333131,
                    "velocity": 0.4566929133858268,
                    "duration": 0.11904766666665978
                },
                {
                    "name": "F5",
                    "midi": 77,
                    "time": 100.83337366666463,
                    "velocity": 0.4566929133858268,
                    "duration": 0.11904766666665978
                },
                {
                    "name": "G#5",
                    "midi": 80,
                    "time": 100.95242133333129,
                    "velocity": 0.4566929133858268,
                    "duration": 0.11904766666665978
                },
                {
                    "name": "A#4",
                    "midi": 70,
                    "time": 101.07146899999795,
                    "velocity": 0.4566929133858268,
                    "duration": 0.11904766666665978
                },
                {
                    "name": "F5",
                    "midi": 77,
                    "time": 101.1905166666646,
                    "velocity": 0.4566929133858268,
                    "duration": 0.11904766666665978
                },
                {
                    "name": "G#5",
                    "midi": 80,
                    "time": 101.30956433333127,
                    "velocity": 0.4566929133858268,
                    "duration": 0.11904766666665978
                },
                {
                    "name": "E5",
                    "midi": 76,
                    "time": 101.54765966666459,
                    "velocity": 0.47244094488188976,
                    "duration": 0.11904766666665978
                },
                {
                    "name": "G#5",
                    "midi": 80,
                    "time": 101.66670733333125,
                    "velocity": 0.48031496062992124,
                    "duration": 0.11904766666665978
                },
                {
                    "name": "A#4",
                    "midi": 70,
                    "time": 101.7857549999979,
                    "velocity": 0.48031496062992124,
                    "duration": 0.11904766666665978
                },
                {
                    "name": "E5",
                    "midi": 76,
                    "time": 101.90480266666457,
                    "velocity": 0.48031496062992124,
                    "duration": 0.11904766666665978
                },
                {
                    "name": "G#5",
                    "midi": 80,
                    "time": 102.02385033333123,
                    "velocity": 0.48031496062992124,
                    "duration": 0.11904766666665978
                },
                {
                    "name": "C#5",
                    "midi": 73,
                    "time": 102.26194566666454,
                    "velocity": 0.4566929133858268,
                    "duration": 0.11904766666665978
                },
                {
                    "name": "D#5",
                    "midi": 75,
                    "time": 102.3809933333312,
                    "velocity": 0.44881889763779526,
                    "duration": 0.11904766666665978
                },
                {
                    "name": "G4",
                    "midi": 67,
                    "time": 102.50004099999786,
                    "velocity": 0.4409448818897638,
                    "duration": 0.11904766666665978
                },
                {
                    "name": "C#5",
                    "midi": 73,
                    "time": 102.61908866666452,
                    "velocity": 0.4330708661417323,
                    "duration": 0.11904766666665978
                },
                {
                    "name": "D#5",
                    "midi": 75,
                    "time": 102.73813633333118,
                    "velocity": 0.4330708661417323,
                    "duration": 0.11904766666665978
                },
                {
                    "name": "G#4",
                    "midi": 68,
                    "time": 102.9762316666645,
                    "velocity": 0.3464566929133858,
                    "duration": 0.11904766666665978
                },
                {
                    "name": "C5",
                    "midi": 72,
                    "time": 103.09527933333116,
                    "velocity": 0.3228346456692913,
                    "duration": 0.11904766666665978
                },
                {
                    "name": "D#4",
                    "midi": 63,
                    "time": 103.21432699999782,
                    "velocity": 0.30708661417322836,
                    "duration": 0.11904766666665978
                },
                {
                    "name": "G#4",
                    "midi": 68,
                    "time": 103.33337466666448,
                    "velocity": 0.2992125984251969,
                    "duration": 0.11904766666665978
                },
                {
                    "name": "C5",
                    "midi": 72,
                    "time": 103.45242233333114,
                    "velocity": 0.28346456692913385,
                    "duration": 0.11904766666665978
                },
                {
                    "name": "G#4",
                    "midi": 68,
                    "time": 103.69051766666446,
                    "velocity": 0.25984251968503935,
                    "duration": 0.11904766666665978
                },
                {
                    "name": "C5",
                    "midi": 72,
                    "time": 103.80956533333112,
                    "velocity": 0.2677165354330709,
                    "duration": 0.11904766666665978
                },
                {
                    "name": "D#4",
                    "midi": 63,
                    "time": 103.92861299999778,
                    "velocity": 0.2677165354330709,
                    "duration": 0.11904766666665978
                },
                {
                    "name": "G#4",
                    "midi": 68,
                    "time": 104.04766066666444,
                    "velocity": 0.2755905511811024,
                    "duration": 0.11904766666665978
                },
                {
                    "name": "C5",
                    "midi": 72,
                    "time": 104.1667083333311,
                    "velocity": 0.2755905511811024,
                    "duration": 0.11904766666665978
                },
                {
                    "name": "G#4",
                    "midi": 68,
                    "time": 104.40480366666442,
                    "velocity": 0.28346456692913385,
                    "duration": 0.11904766666665978
                },
                {
                    "name": "C5",
                    "midi": 72,
                    "time": 104.52385133333108,
                    "velocity": 0.29133858267716534,
                    "duration": 0.11904766666665978
                },
                {
                    "name": "D#4",
                    "midi": 63,
                    "time": 104.64289899999774,
                    "velocity": 0.29133858267716534,
                    "duration": 0.11904766666665978
                },
                {
                    "name": "G#4",
                    "midi": 68,
                    "time": 104.7619466666644,
                    "velocity": 0.2992125984251969,
                    "duration": 0.11904766666665978
                },
                {
                    "name": "C5",
                    "midi": 72,
                    "time": 104.88099433333106,
                    "velocity": 0.2992125984251969,
                    "duration": 0.11904766666665978
                },
                {
                    "name": "G#4",
                    "midi": 68,
                    "time": 105.11908966666438,
                    "velocity": 0.30708661417322836,
                    "duration": 0.11904766666665978
                },
                {
                    "name": "C5",
                    "midi": 72,
                    "time": 105.23813733333104,
                    "velocity": 0.31496062992125984,
                    "duration": 0.11904766666665978
                },
                {
                    "name": "D#4",
                    "midi": 63,
                    "time": 105.3571849999977,
                    "velocity": 0.31496062992125984,
                    "duration": 0.11904766666665978
                },
                {
                    "name": "G#4",
                    "midi": 68,
                    "time": 105.47623266666436,
                    "velocity": 0.3228346456692913,
                    "duration": 0.11904766666665978
                },
                {
                    "name": "C5",
                    "midi": 72,
                    "time": 105.59528033333102,
                    "velocity": 0.3228346456692913,
                    "duration": 0.11904766666665978
                },
                {
                    "name": "A#4",
                    "midi": 70,
                    "time": 105.83337566666434,
                    "velocity": 0.3700787401574803,
                    "duration": 0.11904766666665978
                },
                {
                    "name": "C#5",
                    "midi": 73,
                    "time": 105.952423333331,
                    "velocity": 0.3228346456692913,
                    "duration": 0.11904766666665978
                },
                {
                    "name": "F4",
                    "midi": 65,
                    "time": 106.07147099999766,
                    "velocity": 0.3228346456692913,
                    "duration": 0.11904766666665978
                },
                {
                    "name": "A#4",
                    "midi": 70,
                    "time": 106.19051866666432,
                    "velocity": 0.33070866141732286,
                    "duration": 0.11904766666665978
                },
                {
                    "name": "C#5",
                    "midi": 73,
                    "time": 106.30956633333098,
                    "velocity": 0.3464566929133858,
                    "duration": 0.11904766666665978
                },
                {
                    "name": "A#4",
                    "midi": 70,
                    "time": 106.5476616666643,
                    "velocity": 0.3464566929133858,
                    "duration": 0.11904766666665978
                },
                {
                    "name": "C#5",
                    "midi": 73,
                    "time": 106.66670933333096,
                    "velocity": 0.3464566929133858,
                    "duration": 0.11904766666665978
                },
                {
                    "name": "D#4",
                    "midi": 63,
                    "time": 106.78575699999762,
                    "velocity": 0.3464566929133858,
                    "duration": 0.11904766666665978
                },
                {
                    "name": "A#4",
                    "midi": 70,
                    "time": 106.90480466666428,
                    "velocity": 0.3464566929133858,
                    "duration": 0.11904766666665978
                },
                {
                    "name": "C#5",
                    "midi": 73,
                    "time": 107.02385233333094,
                    "velocity": 0.3464566929133858,
                    "duration": 0.11904766666665978
                },
                {
                    "name": "A#4",
                    "midi": 70,
                    "time": 107.26194766666426,
                    "velocity": 0.3464566929133858,
                    "duration": 0.11904766666665978
                },
                {
                    "name": "C#5",
                    "midi": 73,
                    "time": 107.38099533333092,
                    "velocity": 0.3464566929133858,
                    "duration": 0.11904766666665978
                },
                {
                    "name": "D#4",
                    "midi": 63,
                    "time": 107.50004299999758,
                    "velocity": 0.3464566929133858,
                    "duration": 0.11904766666665978
                },
                {
                    "name": "A#4",
                    "midi": 70,
                    "time": 107.61909066666423,
                    "velocity": 0.3464566929133858,
                    "duration": 0.11904766666665978
                },
                {
                    "name": "C#5",
                    "midi": 73,
                    "time": 107.7381383333309,
                    "velocity": 0.3464566929133858,
                    "duration": 0.11904766666665978
                },
                {
                    "name": "A#4",
                    "midi": 70,
                    "time": 107.97623366666421,
                    "velocity": 0.33070866141732286,
                    "duration": 0.11904766666665978
                },
                {
                    "name": "C#5",
                    "midi": 73,
                    "time": 108.09528133333087,
                    "velocity": 0.31496062992125984,
                    "duration": 0.11904766666665978
                },
                {
                    "name": "D#4",
                    "midi": 63,
                    "time": 108.21432899999753,
                    "velocity": 0.30708661417322836,
                    "duration": 0.11904766666665978
                },
                {
                    "name": "A#4",
                    "midi": 70,
                    "time": 108.3333766666642,
                    "velocity": 0.2992125984251969,
                    "duration": 0.11904766666665978
                },
                {
                    "name": "C#5",
                    "midi": 73,
                    "time": 108.45242433333085,
                    "velocity": 0.29133858267716534,
                    "duration": 0.11904766666665978
                },
                {
                    "name": "G#4",
                    "midi": 68,
                    "time": 108.69051966666417,
                    "velocity": 0.28346456692913385,
                    "duration": 0.11904766666665978
                },
                {
                    "name": "C5",
                    "midi": 72,
                    "time": 108.80956733333083,
                    "velocity": 0.28346456692913385,
                    "duration": 0.11904766666665978
                },
                {
                    "name": "D#4",
                    "midi": 63,
                    "time": 108.92861499999749,
                    "velocity": 0.28346456692913385,
                    "duration": 0.11904766666665978
                },
                {
                    "name": "G#4",
                    "midi": 68,
                    "time": 109.04766266666415,
                    "velocity": 0.28346456692913385,
                    "duration": 0.11904766666665978
                },
                {
                    "name": "C5",
                    "midi": 72,
                    "time": 109.16671033333081,
                    "velocity": 0.29133858267716534,
                    "duration": 0.11904766666665978
                },
                {
                    "name": "G#4",
                    "midi": 68,
                    "time": 109.40480566666413,
                    "velocity": 0.25984251968503935,
                    "duration": 0.11904766666665978
                },
                {
                    "name": "C5",
                    "midi": 72,
                    "time": 109.52385333333079,
                    "velocity": 0.2677165354330709,
                    "duration": 0.11904766666665978
                },
                {
                    "name": "D#4",
                    "midi": 63,
                    "time": 109.64290099999745,
                    "velocity": 0.2677165354330709,
                    "duration": 0.11904766666665978
                },
                {
                    "name": "G#4",
                    "midi": 68,
                    "time": 109.76194866666411,
                    "velocity": 0.2755905511811024,
                    "duration": 0.11904766666665978
                },
                {
                    "name": "C5",
                    "midi": 72,
                    "time": 109.88099633333077,
                    "velocity": 0.2755905511811024,
                    "duration": 0.11904766666665978
                },
                {
                    "name": "G#4",
                    "midi": 68,
                    "time": 110.11909166666409,
                    "velocity": 0.28346456692913385,
                    "duration": 0.11904766666665978
                },
                {
                    "name": "C5",
                    "midi": 72,
                    "time": 110.23813933333075,
                    "velocity": 0.29133858267716534,
                    "duration": 0.11904766666665978
                },
                {
                    "name": "D#4",
                    "midi": 63,
                    "time": 110.35718699999741,
                    "velocity": 0.29133858267716534,
                    "duration": 0.11904766666665978
                },
                {
                    "name": "G#4",
                    "midi": 68,
                    "time": 110.47623466666407,
                    "velocity": 0.2992125984251969,
                    "duration": 0.11904766666665978
                },
                {
                    "name": "C5",
                    "midi": 72,
                    "time": 110.59528233333073,
                    "velocity": 0.2992125984251969,
                    "duration": 0.11904766666665978
                },
                {
                    "name": "G#4",
                    "midi": 68,
                    "time": 110.83337766666405,
                    "velocity": 0.30708661417322836,
                    "duration": 0.11904766666665978
                },
                {
                    "name": "C5",
                    "midi": 72,
                    "time": 110.95242533333071,
                    "velocity": 0.31496062992125984,
                    "duration": 0.11904766666665978
                },
                {
                    "name": "D#4",
                    "midi": 63,
                    "time": 111.07147299999737,
                    "velocity": 0.31496062992125984,
                    "duration": 0.11904766666665978
                },
                {
                    "name": "G#4",
                    "midi": 68,
                    "time": 111.19052066666403,
                    "velocity": 0.3228346456692913,
                    "duration": 0.11904766666665978
                },
                {
                    "name": "C5",
                    "midi": 72,
                    "time": 111.30956833333069,
                    "velocity": 0.3228346456692913,
                    "duration": 0.11904766666665978
                },
                {
                    "name": "A#4",
                    "midi": 70,
                    "time": 111.54766366666401,
                    "velocity": 0.3464566929133858,
                    "duration": 0.11904766666665978
                },
                {
                    "name": "C#5",
                    "midi": 73,
                    "time": 111.66671133333067,
                    "velocity": 0.33070866141732286,
                    "duration": 0.11904766666665978
                },
                {
                    "name": "D#4",
                    "midi": 63,
                    "time": 111.78575899999733,
                    "velocity": 0.33070866141732286,
                    "duration": 0.11904766666665978
                },
                {
                    "name": "A#4",
                    "midi": 70,
                    "time": 111.90480666666399,
                    "velocity": 0.3228346456692913,
                    "duration": 0.11904766666665978
                },
                {
                    "name": "C#5",
                    "midi": 73,
                    "time": 112.02385433333065,
                    "velocity": 0.31496062992125984,
                    "duration": 0.11904766666665978
                },
                {
                    "name": "A#4",
                    "midi": 70,
                    "time": 112.26194966666397,
                    "velocity": 0.30708661417322836,
                    "duration": 0.11904766666665978
                },
                {
                    "name": "C#5",
                    "midi": 73,
                    "time": 112.38099733333063,
                    "velocity": 0.30708661417322836,
                    "duration": 0.11904766666665978
                },
                {
                    "name": "D#4",
                    "midi": 63,
                    "time": 112.50004499999729,
                    "velocity": 0.2992125984251969,
                    "duration": 0.11904766666665978
                },
                {
                    "name": "A#4",
                    "midi": 70,
                    "time": 112.61909266666395,
                    "velocity": 0.29133858267716534,
                    "duration": 0.11904766666665978
                },
                {
                    "name": "C#5",
                    "midi": 73,
                    "time": 112.7381403333306,
                    "velocity": 0.29133858267716534,
                    "duration": 0.11904766666665978
                },
                {
                    "name": "A#4",
                    "midi": 70,
                    "time": 112.97623566666392,
                    "velocity": 0.2440944881889764,
                    "duration": 0.11904766666665978
                },
                {
                    "name": "C#5",
                    "midi": 73,
                    "time": 113.09528333333058,
                    "velocity": 0.2440944881889764,
                    "duration": 0.11904766666665978
                },
                {
                    "name": "D#4",
                    "midi": 63,
                    "time": 113.21433099999724,
                    "velocity": 0.2440944881889764,
                    "duration": 0.11904766666665978
                },
                {
                    "name": "A#4",
                    "midi": 70,
                    "time": 113.3333786666639,
                    "velocity": 0.2440944881889764,
                    "duration": 0.11904766666665978
                },
                {
                    "name": "C#5",
                    "midi": 73,
                    "time": 113.45242633333056,
                    "velocity": 0.2440944881889764,
                    "duration": 0.11904766666665978
                },
                {
                    "name": "A#4",
                    "midi": 70,
                    "time": 113.69052166666388,
                    "velocity": 0.2677165354330709,
                    "duration": 0.11904766666665978
                },
                {
                    "name": "C#5",
                    "midi": 73,
                    "time": 113.80956933333054,
                    "velocity": 0.2677165354330709,
                    "duration": 0.11904766666665978
                },
                {
                    "name": "D#4",
                    "midi": 63,
                    "time": 113.9286169999972,
                    "velocity": 0.2677165354330709,
                    "duration": 0.11904766666665978
                },
                {
                    "name": "A#4",
                    "midi": 70,
                    "time": 114.04766466666386,
                    "velocity": 0.2677165354330709,
                    "duration": 0.11904766666665978
                },
                {
                    "name": "C#5",
                    "midi": 73,
                    "time": 114.16671233333052,
                    "velocity": 0.2677165354330709,
                    "duration": 0.11904766666665978
                },
                {
                    "name": "G#4",
                    "midi": 68,
                    "time": 114.40480766666384,
                    "velocity": 0.2755905511811024,
                    "duration": 0.11904766666665978
                },
                {
                    "name": "C5",
                    "midi": 72,
                    "time": 114.5238553333305,
                    "velocity": 0.2755905511811024,
                    "duration": 0.11904766666665978
                },
                {
                    "name": "D#4",
                    "midi": 63,
                    "time": 114.64290299999716,
                    "velocity": 0.2755905511811024,
                    "duration": 0.11904766666665978
                },
                {
                    "name": "G#4",
                    "midi": 68,
                    "time": 114.76195066666382,
                    "velocity": 0.2755905511811024,
                    "duration": 0.11904766666665978
                },
                {
                    "name": "C5",
                    "midi": 72,
                    "time": 114.88099833333048,
                    "velocity": 0.2677165354330709,
                    "duration": 0.11904766666665978
                },
                {
                    "name": "G#4",
                    "midi": 68,
                    "time": 115.1190936666638,
                    "velocity": 0.2677165354330709,
                    "duration": 0.11904766666665978
                },
                {
                    "name": "C5",
                    "midi": 72,
                    "time": 115.23814133333046,
                    "velocity": 0.2677165354330709,
                    "duration": 0.11904766666665978
                },
                {
                    "name": "D#4",
                    "midi": 63,
                    "time": 115.35718899999712,
                    "velocity": 0.2677165354330709,
                    "duration": 0.11904766666665978
                },
                {
                    "name": "G#4",
                    "midi": 68,
                    "time": 115.47623666666378,
                    "velocity": 0.25984251968503935,
                    "duration": 0.11904766666665978
                },
                {
                    "name": "C5",
                    "midi": 72,
                    "time": 115.59528433333044,
                    "velocity": 0.25984251968503935,
                    "duration": 0.11904766666665978
                },
                {
                    "name": "G#4",
                    "midi": 68,
                    "time": 115.83337966666376,
                    "velocity": 0.25984251968503935,
                    "duration": 0.11904766666665978
                },
                {
                    "name": "C5",
                    "midi": 72,
                    "time": 115.95242733333042,
                    "velocity": 0.2440944881889764,
                    "duration": 0.11904766666665978
                },
                {
                    "name": "D#4",
                    "midi": 63,
                    "time": 116.07147499999708,
                    "velocity": 0.2440944881889764,
                    "duration": 0.11904766666665978
                },
                {
                    "name": "G#4",
                    "midi": 68,
                    "time": 116.19052266666374,
                    "velocity": 0.2440944881889764,
                    "duration": 0.11904766666665978
                },
                {
                    "name": "C5",
                    "midi": 72,
                    "time": 116.3095703333304,
                    "velocity": 0.2440944881889764,
                    "duration": 0.11904766666665978
                },
                {
                    "name": "G#4",
                    "midi": 68,
                    "time": 116.54766566666372,
                    "velocity": 0.25984251968503935,
                    "duration": 0.11904766666665978
                },
                {
                    "name": "C5",
                    "midi": 72,
                    "time": 116.66671333333038,
                    "velocity": 0.25984251968503935,
                    "duration": 0.11904766666665978
                },
                {
                    "name": "D#4",
                    "midi": 63,
                    "time": 116.78576099999704,
                    "velocity": 0.25984251968503935,
                    "duration": 0.11904766666665978
                },
                {
                    "name": "G#4",
                    "midi": 68,
                    "time": 116.9048086666637,
                    "velocity": 0.25984251968503935,
                    "duration": 0.11904766666665978
                },
                {
                    "name": "C5",
                    "midi": 72,
                    "time": 117.02385633333036,
                    "velocity": 0.25984251968503935,
                    "duration": 0.11904766666665978
                },
                {
                    "name": "D#4",
                    "midi": 63,
                    "time": 117.26195166666368,
                    "velocity": 0.2677165354330709,
                    "duration": 0.11904766666665978
                },
                {
                    "name": "G#4",
                    "midi": 68,
                    "time": 117.38099933333034,
                    "velocity": 0.2677165354330709,
                    "duration": 0.11904766666665978
                },
                {
                    "name": "C#4",
                    "midi": 61,
                    "time": 117.500046999997,
                    "velocity": 0.2677165354330709,
                    "duration": 0.11904766666665978
                },
                {
                    "name": "D#4",
                    "midi": 63,
                    "time": 117.61909466666366,
                    "velocity": 0.2677165354330709,
                    "duration": 0.11904766666665978
                },
                {
                    "name": "G#4",
                    "midi": 68,
                    "time": 117.73814233333032,
                    "velocity": 0.2677165354330709,
                    "duration": 0.11904766666665978
                },
                {
                    "name": "C5",
                    "midi": 72,
                    "time": 117.85718999999698,
                    "velocity": 0.25984251968503935,
                    "duration": 0.11904766666665978
                },
                {
                    "name": "D#4",
                    "midi": 63,
                    "time": 117.97623766666364,
                    "velocity": 0.25984251968503935,
                    "duration": 0.11904766666665978
                },
                {
                    "name": "G#4",
                    "midi": 68,
                    "time": 118.0952853333303,
                    "velocity": 0.25984251968503935,
                    "duration": 0.11904766666665978
                },
                {
                    "name": "C4",
                    "midi": 60,
                    "time": 118.21433299999696,
                    "velocity": 0.25984251968503935,
                    "duration": 0.11904766666665978
                },
                {
                    "name": "D#4",
                    "midi": 63,
                    "time": 118.33338066666361,
                    "velocity": 0.25984251968503935,
                    "duration": 0.11904766666665978
                },
                {
                    "name": "G#4",
                    "midi": 68,
                    "time": 118.45242833333027,
                    "velocity": 0.25984251968503935,
                    "duration": 0.11904766666665978
                },
                {
                    "name": "D#4",
                    "midi": 63,
                    "time": 118.6905236666636,
                    "velocity": 0.2440944881889764,
                    "duration": 0.11904766666665978
                },
                {
                    "name": "G#4",
                    "midi": 68,
                    "time": 118.80957133333025,
                    "velocity": 0.2440944881889764,
                    "duration": 0.11904766666665978
                },
                {
                    "name": "C#4",
                    "midi": 61,
                    "time": 118.92861899999691,
                    "velocity": 0.23622047244094488,
                    "duration": 0.11904766666665978
                },
                {
                    "name": "D#4",
                    "midi": 63,
                    "time": 119.04766666666357,
                    "velocity": 0.23622047244094488,
                    "duration": 0.11904766666665978
                },
                {
                    "name": "G#4",
                    "midi": 68,
                    "time": 119.16671433333023,
                    "velocity": 0.23622047244094488,
                    "duration": 0.11904766666665978
                },
                {
                    "name": "D#4",
                    "midi": 63,
                    "time": 119.40480966666355,
                    "velocity": 0.2283464566929134,
                    "duration": 0.11904766666665978
                },
                {
                    "name": "G#4",
                    "midi": 68,
                    "time": 119.52385733333021,
                    "velocity": 0.2283464566929134,
                    "duration": 0.11904766666665978
                },
                {
                    "name": "C4",
                    "midi": 60,
                    "time": 119.64290499999687,
                    "velocity": 0.2283464566929134,
                    "duration": 0.11904766666665978
                },
                {
                    "name": "D#4",
                    "midi": 63,
                    "time": 119.76195266666353,
                    "velocity": 0.2283464566929134,
                    "duration": 0.11904766666665978
                },
                {
                    "name": "G#4",
                    "midi": 68,
                    "time": 119.88100033333019,
                    "velocity": 0.2283464566929134,
                    "duration": 0.11904766666665978
                },
                {
                    "name": "C4",
                    "midi": 60,
                    "time": 120.11909566666351,
                    "velocity": 0.2283464566929134,
                    "duration": 0.11904766666665978
                },
                {
                    "name": "D#4",
                    "midi": 63,
                    "time": 120.23814333333017,
                    "velocity": 0.2283464566929134,
                    "duration": 0.11904766666665978
                },
                {
                    "name": "A#3",
                    "midi": 58,
                    "time": 120.35719099999683,
                    "velocity": 0.2283464566929134,
                    "duration": 0.11904766666665978
                },
                {
                    "name": "C4",
                    "midi": 60,
                    "time": 120.47623866666349,
                    "velocity": 0.2283464566929134,
                    "duration": 0.11904766666665978
                },
                {
                    "name": "D#4",
                    "midi": 63,
                    "time": 120.59528633333015,
                    "velocity": 0.2283464566929134,
                    "duration": 0.11904766666665978
                },
                {
                    "name": "C4",
                    "midi": 60,
                    "time": 120.83338166666347,
                    "velocity": 0.2283464566929134,
                    "duration": 0.11904766666665978
                },
                {
                    "name": "D#4",
                    "midi": 63,
                    "time": 120.95242933333013,
                    "velocity": 0.2283464566929134,
                    "duration": 0.11904766666665978
                },
                {
                    "name": "G#3",
                    "midi": 56,
                    "time": 121.07147699999679,
                    "velocity": 0.2283464566929134,
                    "duration": 0.11904766666665978
                },
                {
                    "name": "C4",
                    "midi": 60,
                    "time": 121.19052466666345,
                    "velocity": 0.2283464566929134,
                    "duration": 0.11904766666665978
                },
                {
                    "name": "D#4",
                    "midi": 63,
                    "time": 121.30957233333011,
                    "velocity": 0.2283464566929134,
                    "duration": 0.11904766666665978
                },
                {
                    "name": "C4",
                    "midi": 60,
                    "time": 121.54766766666343,
                    "velocity": 0.2204724409448819,
                    "duration": 0.11904766666665978
                },
                {
                    "name": "D#4",
                    "midi": 63,
                    "time": 121.66671533333009,
                    "velocity": 0.2204724409448819,
                    "duration": 0.11904766666665978
                },
                {
                    "name": "A#3",
                    "midi": 58,
                    "time": 121.78576299999675,
                    "velocity": 0.2204724409448819,
                    "duration": 0.11904766666665978
                },
                {
                    "name": "C4",
                    "midi": 60,
                    "time": 121.90481066666341,
                    "velocity": 0.2204724409448819,
                    "duration": 0.11904766666665978
                },
                {
                    "name": "D#4",
                    "midi": 63,
                    "time": 122.02385833333007,
                    "velocity": 0.2204724409448819,
                    "duration": 0.11904766666665978
                },
                {
                    "name": "C4",
                    "midi": 60,
                    "time": 122.26195366666339,
                    "velocity": 0.2204724409448819,
                    "duration": 0.11904766666665978
                },
                {
                    "name": "D#4",
                    "midi": 63,
                    "time": 122.38100133333005,
                    "velocity": 0.2204724409448819,
                    "duration": 0.11904766666665978
                },
                {
                    "name": "G#3",
                    "midi": 56,
                    "time": 122.50004899999671,
                    "velocity": 0.2204724409448819,
                    "duration": 0.11904766666665978
                },
                {
                    "name": "C4",
                    "midi": 60,
                    "time": 122.61909666666337,
                    "velocity": 0.2204724409448819,
                    "duration": 0.11904766666665978
                },
                {
                    "name": "D#4",
                    "midi": 63,
                    "time": 122.73814433333003,
                    "velocity": 0.2125984251968504,
                    "duration": 0.11904766666665978
                },
                {
                    "name": "C4",
                    "midi": 60,
                    "time": 122.97623966666335,
                    "velocity": 0.2283464566929134,
                    "duration": 0.11904766666665978
                },
                {
                    "name": "D#4",
                    "midi": 63,
                    "time": 123.09528733333,
                    "velocity": 0.2283464566929134,
                    "duration": 0.11904766666665978
                },
                {
                    "name": "A#3",
                    "midi": 58,
                    "time": 123.21433499999667,
                    "velocity": 0.2283464566929134,
                    "duration": 0.11904766666665978
                },
                {
                    "name": "C4",
                    "midi": 60,
                    "time": 123.33338266666333,
                    "velocity": 0.2283464566929134,
                    "duration": 0.11904766666665978
                },
                {
                    "name": "D#4",
                    "midi": 63,
                    "time": 123.45243033332999,
                    "velocity": 0.2283464566929134,
                    "duration": 0.11904766666665978
                },
                {
                    "name": "C4",
                    "midi": 60,
                    "time": 123.6905256666633,
                    "velocity": 0.2204724409448819,
                    "duration": 0.11904766666665978
                },
                {
                    "name": "D#4",
                    "midi": 63,
                    "time": 123.80957333332996,
                    "velocity": 0.2204724409448819,
                    "duration": 0.11904766666665978
                },
                {
                    "name": "G#3",
                    "midi": 56,
                    "time": 123.92862099999662,
                    "velocity": 0.2204724409448819,
                    "duration": 0.11904766666665978
                },
                {
                    "name": "C4",
                    "midi": 60,
                    "time": 124.04766866666328,
                    "velocity": 0.2204724409448819,
                    "duration": 0.11904766666665978
                },
                {
                    "name": "D#4",
                    "midi": 63,
                    "time": 124.16671633332994,
                    "velocity": 0.2204724409448819,
                    "duration": 0.11904766666665978
                },
                {
                    "name": "C4",
                    "midi": 60,
                    "time": 124.40481166666326,
                    "velocity": 0.2125984251968504,
                    "duration": 0.11904766666665978
                },
                {
                    "name": "D#4",
                    "midi": 63,
                    "time": 124.52385933332992,
                    "velocity": 0.2125984251968504,
                    "duration": 0.11904766666665978
                },
                {
                    "name": "A#3",
                    "midi": 58,
                    "time": 124.64290699999658,
                    "velocity": 0.2125984251968504,
                    "duration": 0.11904766666665978
                },
                {
                    "name": "C4",
                    "midi": 60,
                    "time": 124.76195466666324,
                    "velocity": 0.2125984251968504,
                    "duration": 0.11904766666665978
                },
                {
                    "name": "D#4",
                    "midi": 63,
                    "time": 124.8810023333299,
                    "velocity": 0.2047244094488189,
                    "duration": 0.11904766666665978
                },
                {
                    "name": "C4",
                    "midi": 60,
                    "time": 125.11909766666322,
                    "velocity": 0.2047244094488189,
                    "duration": 0.11904766666665978
                },
                {
                    "name": "D#4",
                    "midi": 63,
                    "time": 125.23814533332988,
                    "velocity": 0.2047244094488189,
                    "duration": 0.11904766666665978
                },
                {
                    "name": "G#3",
                    "midi": 56,
                    "time": 125.35719299999654,
                    "velocity": 0.2047244094488189,
                    "duration": 0.11904766666665978
                },
                {
                    "name": "C4",
                    "midi": 60,
                    "time": 125.4762406666632,
                    "velocity": 0.2047244094488189,
                    "duration": 0.11904766666665978
                },
                {
                    "name": "D#4",
                    "midi": 63,
                    "time": 125.59528833332986,
                    "velocity": 0.2125984251968504,
                    "duration": 0.11904766666665978
                },
                {
                    "name": "C3",
                    "midi": 48,
                    "time": 125.83338366666318,
                    "velocity": 0.2204724409448819,
                    "duration": 0.11904766666665978
                },
                {
                    "name": "D#3",
                    "midi": 51,
                    "time": 125.95243133332984,
                    "velocity": 0.2204724409448819,
                    "duration": 0.11904766666665978
                },
                {
                    "name": "G#3",
                    "midi": 56,
                    "time": 126.0714789999965,
                    "velocity": 0.2283464566929134,
                    "duration": 0.11904766666665978
                },
                {
                    "name": "C4",
                    "midi": 60,
                    "time": 126.19052666666316,
                    "velocity": 0.23622047244094488,
                    "duration": 0.11904766666665978
                },
                {
                    "name": "D#4",
                    "midi": 63,
                    "time": 126.30957433332982,
                    "velocity": 0.23622047244094488,
                    "duration": 0.11904766666665978
                },
                {
                    "name": "G#4",
                    "midi": 68,
                    "time": 126.42862199999648,
                    "velocity": 0.2440944881889764,
                    "duration": 0.11904766666665978
                },
                {
                    "name": "C5",
                    "midi": 72,
                    "time": 126.54766966666314,
                    "velocity": 0.25984251968503935,
                    "duration": 0.11904766666665978
                },
                {
                    "name": "D#5",
                    "midi": 75,
                    "time": 126.6667173333298,
                    "velocity": 0.25984251968503935,
                    "duration": 0.11904766666665978
                },
                {
                    "name": "G#5",
                    "midi": 80,
                    "time": 126.78576499999646,
                    "velocity": 0.2677165354330709,
                    "duration": 0.11904766666665978
                },
                {
                    "name": "C6",
                    "midi": 84,
                    "time": 126.90481266666312,
                    "velocity": 0.2755905511811024,
                    "duration": 0.11904766666665978
                },
                {
                    "name": "D#6",
                    "midi": 87,
                    "time": 127.02386033332978,
                    "velocity": 0.28346456692913385,
                    "duration": 0.11904766666665978
                },
                {
                    "name": "G#6",
                    "midi": 92,
                    "time": 127.14290799999644,
                    "velocity": 0.3464566929133858,
                    "duration": 0.11904766666665978
                },
                {
                    "name": "D#6",
                    "midi": 87,
                    "time": 127.2619556666631,
                    "velocity": 0.28346456692913385,
                    "duration": 0.11904766666665978
                },
                {
                    "name": "C6",
                    "midi": 84,
                    "time": 127.38100333332976,
                    "velocity": 0.2755905511811024,
                    "duration": 0.11904766666665978
                },
                {
                    "name": "G#5",
                    "midi": 80,
                    "time": 127.50005099999642,
                    "velocity": 0.2677165354330709,
                    "duration": 0.11904766666665978
                },
                {
                    "name": "D#5",
                    "midi": 75,
                    "time": 127.61909866666308,
                    "velocity": 0.25984251968503935,
                    "duration": 0.11904766666665978
                },
                {
                    "name": "C5",
                    "midi": 72,
                    "time": 127.73814633332974,
                    "velocity": 0.2440944881889764,
                    "duration": 0.11904766666665978
                },
                {
                    "name": "G#4",
                    "midi": 68,
                    "time": 127.8571939999964,
                    "velocity": 0.29133858267716534,
                    "duration": 0.11904766666665978
                },
                {
                    "name": "C5",
                    "midi": 72,
                    "time": 127.97624166666306,
                    "velocity": 0.2440944881889764,
                    "duration": 0.11904766666667399
                },
                {
                    "name": "D#5",
                    "midi": 75,
                    "time": 128.09528933332973,
                    "velocity": 0.25984251968503935,
                    "duration": 0.11904766666665978
                },
                {
                    "name": "G#5",
                    "midi": 80,
                    "time": 128.2143369999964,
                    "velocity": 0.2677165354330709,
                    "duration": 0.11904766666665978
                },
                {
                    "name": "C6",
                    "midi": 84,
                    "time": 128.33338466666305,
                    "velocity": 0.2755905511811024,
                    "duration": 0.11904766666665978
                },
                {
                    "name": "D#6",
                    "midi": 87,
                    "time": 128.4524323333297,
                    "velocity": 0.28346456692913385,
                    "duration": 0.11904766666665978
                },
                {
                    "name": "G#6",
                    "midi": 92,
                    "time": 128.57147999999637,
                    "velocity": 0.31496062992125984,
                    "duration": 0.11904766666665978
                },
                {
                    "name": "D#6",
                    "midi": 87,
                    "time": 128.69052766666303,
                    "velocity": 0.2755905511811024,
                    "duration": 0.11904766666665978
                },
                {
                    "name": "C6",
                    "midi": 84,
                    "time": 128.8095753333297,
                    "velocity": 0.2677165354330709,
                    "duration": 0.11904766666665978
                },
                {
                    "name": "G#5",
                    "midi": 80,
                    "time": 128.92862299999635,
                    "velocity": 0.25984251968503935,
                    "duration": 0.11904766666665978
                },
                {
                    "name": "D#5",
                    "midi": 75,
                    "time": 129.047670666663,
                    "velocity": 0.2440944881889764,
                    "duration": 0.11904766666665978
                },
                {
                    "name": "C5",
                    "midi": 72,
                    "time": 129.16671833332967,
                    "velocity": 0.23622047244094488,
                    "duration": 0.11904766666665978
                },
                {
                    "name": "G#4",
                    "midi": 68,
                    "time": 129.28576599999633,
                    "velocity": 0.2677165354330709,
                    "duration": 0.11904766666665978
                },
                {
                    "name": "C5",
                    "midi": 72,
                    "time": 129.404813666663,
                    "velocity": 0.2283464566929134,
                    "duration": 0.11904766666665978
                },
                {
                    "name": "D#5",
                    "midi": 75,
                    "time": 129.52386133332965,
                    "velocity": 0.23622047244094488,
                    "duration": 0.11904766666665978
                },
                {
                    "name": "G#5",
                    "midi": 80,
                    "time": 129.6429089999963,
                    "velocity": 0.2440944881889764,
                    "duration": 0.11904766666665978
                },
                {
                    "name": "C6",
                    "midi": 84,
                    "time": 129.76195666666297,
                    "velocity": 0.25984251968503935,
                    "duration": 0.11904766666665978
                },
                {
                    "name": "D#6",
                    "midi": 87,
                    "time": 129.88100433332963,
                    "velocity": 0.2755905511811024,
                    "duration": 0.11904766666665978
                },
                {
                    "name": "G#6",
                    "midi": 92,
                    "time": 130.0000519999963,
                    "velocity": 0.31496062992125984,
                    "duration": 0.11904766666665978
                },
                {
                    "name": "D#6",
                    "midi": 87,
                    "time": 130.11909966666295,
                    "velocity": 0.2755905511811024,
                    "duration": 0.11904766666665978
                },
                {
                    "name": "C6",
                    "midi": 84,
                    "time": 130.2381473333296,
                    "velocity": 0.2677165354330709,
                    "duration": 0.11904766666665978
                },
                {
                    "name": "G#5",
                    "midi": 80,
                    "time": 130.35719499999627,
                    "velocity": 0.25984251968503935,
                    "duration": 0.11904766666665978
                },
                {
                    "name": "D#5",
                    "midi": 75,
                    "time": 130.47624266666293,
                    "velocity": 0.2440944881889764,
                    "duration": 0.11904766666665978
                },
                {
                    "name": "C5",
                    "midi": 72,
                    "time": 130.5952903333296,
                    "velocity": 0.2440944881889764,
                    "duration": 0.11904766666665978
                },
                {
                    "name": "G#4",
                    "midi": 68,
                    "time": 130.71433799999625,
                    "velocity": 0.2677165354330709,
                    "duration": 0.11904766666665978
                },
                {
                    "name": "C5",
                    "midi": 72,
                    "time": 130.8333856666629,
                    "velocity": 0.2204724409448819,
                    "duration": 0.11904766666665978
                },
                {
                    "name": "D#5",
                    "midi": 75,
                    "time": 130.95243333332957,
                    "velocity": 0.23622047244094488,
                    "duration": 0.11904766666665978
                },
                {
                    "name": "G#5",
                    "midi": 80,
                    "time": 131.07148099999623,
                    "velocity": 0.2440944881889764,
                    "duration": 0.11904766666665978
                },
                {
                    "name": "C6",
                    "midi": 84,
                    "time": 131.19052866666289,
                    "velocity": 0.25984251968503935,
                    "duration": 0.11904766666665978
                },
                {
                    "name": "D#6",
                    "midi": 87,
                    "time": 131.30957633332955,
                    "velocity": 0.2677165354330709,
                    "duration": 0.11904766666665978
                },
                {
                    "name": "G#6",
                    "midi": 92,
                    "time": 131.4286239999962,
                    "velocity": 0.30708661417322836,
                    "duration": 0.11904766666665978
                },
                {
                    "name": "D#6",
                    "midi": 87,
                    "time": 131.54767166666286,
                    "velocity": 0.25984251968503935,
                    "duration": 0.11904766666665978
                },
                {
                    "name": "C6",
                    "midi": 84,
                    "time": 131.66671933332952,
                    "velocity": 0.25984251968503935,
                    "duration": 0.11904766666665978
                },
                {
                    "name": "G#5",
                    "midi": 80,
                    "time": 131.78576699999618,
                    "velocity": 0.25984251968503935,
                    "duration": 0.11904766666665978
                },
                {
                    "name": "D#5",
                    "midi": 75,
                    "time": 131.90481466666284,
                    "velocity": 0.2440944881889764,
                    "duration": 0.11904766666665978
                },
                {
                    "name": "C5",
                    "midi": 72,
                    "time": 132.0238623333295,
                    "velocity": 0.2440944881889764,
                    "duration": 0.11904766666665978
                },
                {
                    "name": "G#4",
                    "midi": 68,
                    "time": 132.14290999999616,
                    "velocity": 0.2440944881889764,
                    "duration": 0.11904766666665978
                },
                {
                    "name": "C5",
                    "midi": 72,
                    "time": 132.26195766666282,
                    "velocity": 0.2677165354330709,
                    "duration": 0.11904766666665978
                },
                {
                    "name": "G#5",
                    "midi": 80,
                    "time": 132.38100533332948,
                    "velocity": 0.2755905511811024,
                    "duration": 0.11904766666665978
                },
                {
                    "name": "C6",
                    "midi": 84,
                    "time": 132.50005299999614,
                    "velocity": 0.2992125984251969,
                    "duration": 0.11904766666665978
                },
                {
                    "name": "G#5",
                    "midi": 80,
                    "time": 132.6191006666628,
                    "velocity": 0.28346456692913385,
                    "duration": 0.11904766666665978
                },
                {
                    "name": "C5",
                    "midi": 72,
                    "time": 132.73814833332946,
                    "velocity": 0.2755905511811024,
                    "duration": 0.11904766666665978
                },
                {
                    "name": "G#4",
                    "midi": 68,
                    "time": 132.85719599999612,
                    "velocity": 0.2755905511811024,
                    "duration": 0.11904766666665978
                },
                {
                    "name": "C5",
                    "midi": 72,
                    "time": 132.97624366666278,
                    "velocity": 0.2677165354330709,
                    "duration": 0.11904766666665978
                },
                {
                    "name": "G#5",
                    "midi": 80,
                    "time": 133.09529133332944,
                    "velocity": 0.29133858267716534,
                    "duration": 0.11904766666665978
                },
                {
                    "name": "C6",
                    "midi": 84,
                    "time": 133.2143389999961,
                    "velocity": 0.30708661417322836,
                    "duration": 0.11904766666665978
                },
                {
                    "name": "G#5",
                    "midi": 80,
                    "time": 133.33338666666276,
                    "velocity": 0.2992125984251969,
                    "duration": 0.11904766666665978
                },
                {
                    "name": "C5",
                    "midi": 72,
                    "time": 133.45243433332942,
                    "velocity": 0.29133858267716534,
                    "duration": 0.11904766666665978
                },
                {
                    "name": "G#4",
                    "midi": 68,
                    "time": 133.57148199999608,
                    "velocity": 0.29133858267716534,
                    "duration": 0.11904766666665978
                },
                {
                    "name": "C5",
                    "midi": 72,
                    "time": 133.69052966666274,
                    "velocity": 0.2992125984251969,
                    "duration": 0.11904766666665978
                },
                {
                    "name": "G#5",
                    "midi": 80,
                    "time": 133.8095773333294,
                    "velocity": 0.3228346456692913,
                    "duration": 0.11904766666665978
                },
                {
                    "name": "C6",
                    "midi": 84,
                    "time": 133.92862499999606,
                    "velocity": 0.33070866141732286,
                    "duration": 0.11904766666665978
                },
                {
                    "name": "G#5",
                    "midi": 80,
                    "time": 134.04767266666272,
                    "velocity": 0.33070866141732286,
                    "duration": 0.11904766666665978
                },
                {
                    "name": "C5",
                    "midi": 72,
                    "time": 134.16672033332938,
                    "velocity": 0.30708661417322836,
                    "duration": 0.11904766666665978
                },
                {
                    "name": "G#4",
                    "midi": 68,
                    "time": 134.28576799999604,
                    "velocity": 0.30708661417322836,
                    "duration": 0.11904766666665978
                },
                {
                    "name": "C5",
                    "midi": 72,
                    "time": 134.4048156666627,
                    "velocity": 0.3228346456692913,
                    "duration": 0.11904766666665978
                },
                {
                    "name": "G#5",
                    "midi": 80,
                    "time": 134.52386333332936,
                    "velocity": 0.33070866141732286,
                    "duration": 0.11904766666665978
                },
                {
                    "name": "C6",
                    "midi": 84,
                    "time": 134.64291099999602,
                    "velocity": 0.3464566929133858,
                    "duration": 0.11904766666665978
                },
                {
                    "name": "G#5",
                    "midi": 80,
                    "time": 134.76195866666268,
                    "velocity": 0.31496062992125984,
                    "duration": 0.11904766666665978
                },
                {
                    "name": "C5",
                    "midi": 72,
                    "time": 134.88100633332934,
                    "velocity": 0.2992125984251969,
                    "duration": 0.11904766666665978
                },
                {
                    "name": "G#4",
                    "midi": 68,
                    "time": 135.000053999996,
                    "velocity": 0.29133858267716534,
                    "duration": 0.11904766666665978
                },
                {
                    "name": "C5",
                    "midi": 72,
                    "time": 135.11910166666266,
                    "velocity": 0.2755905511811024,
                    "duration": 0.11904766666665978
                },
                {
                    "name": "G#5",
                    "midi": 80,
                    "time": 135.23814933332932,
                    "velocity": 0.29133858267716534,
                    "duration": 0.11904766666665978
                },
                {
                    "name": "C6",
                    "midi": 84,
                    "time": 135.35719699999598,
                    "velocity": 0.2992125984251969,
                    "duration": 0.11904766666665978
                },
                {
                    "name": "G#5",
                    "midi": 80,
                    "time": 135.47624466666264,
                    "velocity": 0.2755905511811024,
                    "duration": 0.11904766666665978
                },
                {
                    "name": "C5",
                    "midi": 72,
                    "time": 135.5952923333293,
                    "velocity": 0.2677165354330709,
                    "duration": 0.11904766666665978
                },
                {
                    "name": "G#4",
                    "midi": 68,
                    "time": 135.71433999999596,
                    "velocity": 0.25984251968503935,
                    "duration": 0.11904766666665978
                },
                {
                    "name": "C5",
                    "midi": 72,
                    "time": 135.83338766666262,
                    "velocity": 0.25984251968503935,
                    "duration": 0.11904766666665978
                },
                {
                    "name": "G#5",
                    "midi": 80,
                    "time": 135.95243533332928,
                    "velocity": 0.2677165354330709,
                    "duration": 0.11904766666665978
                },
                {
                    "name": "C6",
                    "midi": 84,
                    "time": 136.07148299999594,
                    "velocity": 0.2677165354330709,
                    "duration": 0.11904766666665978
                },
                {
                    "name": "G#5",
                    "midi": 80,
                    "time": 136.1905306666626,
                    "velocity": 0.25984251968503935,
                    "duration": 0.11904766666665978
                },
                {
                    "name": "C5",
                    "midi": 72,
                    "time": 136.30957833332926,
                    "velocity": 0.2283464566929134,
                    "duration": 0.11904766666665978
                },
                {
                    "name": "G#4",
                    "midi": 68,
                    "time": 136.42862599999592,
                    "velocity": 0.2283464566929134,
                    "duration": 0.11904766666665978
                },
                {
                    "name": "C5",
                    "midi": 72,
                    "time": 136.54767366666258,
                    "velocity": 0.2283464566929134,
                    "duration": 0.11904766666665978
                },
                {
                    "name": "G#5",
                    "midi": 80,
                    "time": 136.66672133332924,
                    "velocity": 0.23622047244094488,
                    "duration": 0.11904766666665978
                },
                {
                    "name": "C6",
                    "midi": 84,
                    "time": 136.7857689999959,
                    "velocity": 0.2440944881889764,
                    "duration": 0.11904766666665978
                },
                {
                    "name": "G#5",
                    "midi": 80,
                    "time": 136.90481666666255,
                    "velocity": 0.23622047244094488,
                    "duration": 0.11904766666665978
                },
                {
                    "name": "C5",
                    "midi": 72,
                    "time": 137.02386433332921,
                    "velocity": 0.2283464566929134,
                    "duration": 0.11904766666665978
                }
            ],
            "controlChanges": {
                "7": [
                    {
                        "number": 7,
                        "time": 0,
                        "value": 0.7874015748031497
                    }
                ],
                "10": [
                    {
                        "number": 10,
                        "time": 0,
                        "value": 0.5039370078740157
                    }
                ],
                "64": [
                    {
                        "number": 64,
                        "time": 0,
                        "value": 0
                    }
                ]
            },
            "id": 2,
            "name": "Piano right 2",
            "instrumentNumber": 0,
            "instrument": "acoustic grand piano",
            "instrumentFamily": "piano",
            "channelNumber": 0,
            "isPercussion": false
        },
        {
            "startTime": 2.8571440000000004,
            "duration": 142.85719999999668,
            "length": 1086,
            "notes": [
                {
                    "name": "G#1",
                    "midi": 32,
                    "time": 2.8571440000000004,
                    "velocity": 0.2755905511811024,
                    "duration": 0.11904766666666688
                },
                {
                    "name": "D#3",
                    "midi": 51,
                    "time": 2.9761916666666672,
                    "velocity": 0.13385826771653545,
                    "duration": 0.11904766666666688
                },
                {
                    "name": "G#3",
                    "midi": 56,
                    "time": 3.095239333333334,
                    "velocity": 0.14173228346456693,
                    "duration": 0.11904766666666688
                },
                {
                    "name": "C4",
                    "midi": 60,
                    "time": 3.214287000000001,
                    "velocity": 0.14173228346456693,
                    "duration": 0.11904766666666688
                },
                {
                    "name": "G#3",
                    "midi": 56,
                    "time": 3.333334666666668,
                    "velocity": 0.14173228346456693,
                    "duration": 0.11904766666666688
                },
                {
                    "name": "D#3",
                    "midi": 51,
                    "time": 3.4523823333333348,
                    "velocity": 0.14173228346456693,
                    "duration": 0.11904766666666688
                },
                {
                    "name": "G#2",
                    "midi": 44,
                    "time": 3.5714300000000017,
                    "velocity": 0.23622047244094488,
                    "duration": 0.11904766666666688
                },
                {
                    "name": "D#3",
                    "midi": 51,
                    "time": 3.6904776666666685,
                    "velocity": 0.14960629921259844,
                    "duration": 0.11904766666666688
                },
                {
                    "name": "G#3",
                    "midi": 56,
                    "time": 3.8095253333333354,
                    "velocity": 0.14960629921259844,
                    "duration": 0.11904766666666688
                },
                {
                    "name": "C4",
                    "midi": 60,
                    "time": 3.9285730000000023,
                    "velocity": 0.14960629921259844,
                    "duration": 0.11904766666666644
                },
                {
                    "name": "G#3",
                    "midi": 56,
                    "time": 4.047620666666669,
                    "velocity": 0.15748031496062992,
                    "duration": 0.11904766666666688
                },
                {
                    "name": "D#3",
                    "midi": 51,
                    "time": 4.166668333333336,
                    "velocity": 0.15748031496062992,
                    "duration": 0.11904766666666688
                },
                {
                    "name": "G#2",
                    "midi": 44,
                    "time": 4.2857160000000025,
                    "velocity": 0.15748031496062992,
                    "duration": 0.11904766666666688
                },
                {
                    "name": "D#3",
                    "midi": 51,
                    "time": 4.404763666666669,
                    "velocity": 0.15748031496062992,
                    "duration": 0.11904766666666688
                },
                {
                    "name": "G#3",
                    "midi": 56,
                    "time": 4.523811333333336,
                    "velocity": 0.15748031496062992,
                    "duration": 0.11904766666666688
                },
                {
                    "name": "C4",
                    "midi": 60,
                    "time": 4.642859000000003,
                    "velocity": 0.15748031496062992,
                    "duration": 0.11904766666666688
                },
                {
                    "name": "G#3",
                    "midi": 56,
                    "time": 4.76190666666667,
                    "velocity": 0.1732283464566929,
                    "duration": 0.11904766666666688
                },
                {
                    "name": "D#3",
                    "midi": 51,
                    "time": 4.880954333333337,
                    "velocity": 0.1732283464566929,
                    "duration": 0.11904766666666688
                },
                {
                    "name": "G#2",
                    "midi": 44,
                    "time": 5.000002000000004,
                    "velocity": 0.18110236220472442,
                    "duration": 0.11904766666666688
                },
                {
                    "name": "D#3",
                    "midi": 51,
                    "time": 5.119049666666671,
                    "velocity": 0.18110236220472442,
                    "duration": 0.11904766666666688
                },
                {
                    "name": "G#3",
                    "midi": 56,
                    "time": 5.238097333333338,
                    "velocity": 0.18110236220472442,
                    "duration": 0.11904766666666688
                },
                {
                    "name": "C4",
                    "midi": 60,
                    "time": 5.3571450000000045,
                    "velocity": 0.1889763779527559,
                    "duration": 0.11904766666666688
                },
                {
                    "name": "G#3",
                    "midi": 56,
                    "time": 5.476192666666671,
                    "velocity": 0.1889763779527559,
                    "duration": 0.11904766666666688
                },
                {
                    "name": "D#3",
                    "midi": 51,
                    "time": 5.595240333333338,
                    "velocity": 0.1889763779527559,
                    "duration": 0.11904766666666688
                },
                {
                    "name": "G#2",
                    "midi": 44,
                    "time": 5.714288000000005,
                    "velocity": 0.2047244094488189,
                    "duration": 0.11904766666666688
                },
                {
                    "name": "D#3",
                    "midi": 51,
                    "time": 5.833335666666672,
                    "velocity": 0.2047244094488189,
                    "duration": 0.11904766666666688
                },
                {
                    "name": "G#3",
                    "midi": 56,
                    "time": 5.952383333333339,
                    "velocity": 0.1968503937007874,
                    "duration": 0.11904766666666688
                },
                {
                    "name": "C4",
                    "midi": 60,
                    "time": 6.071431000000006,
                    "velocity": 0.1968503937007874,
                    "duration": 0.11904766666666688
                },
                {
                    "name": "G#3",
                    "midi": 56,
                    "time": 6.190478666666673,
                    "velocity": 0.1968503937007874,
                    "duration": 0.11904766666666688
                },
                {
                    "name": "D#3",
                    "midi": 51,
                    "time": 6.30952633333334,
                    "velocity": 0.1889763779527559,
                    "duration": 0.11904766666666688
                },
                {
                    "name": "G#2",
                    "midi": 44,
                    "time": 6.4285740000000064,
                    "velocity": 0.1889763779527559,
                    "duration": 0.11904766666666688
                },
                {
                    "name": "D#3",
                    "midi": 51,
                    "time": 6.547621666666673,
                    "velocity": 0.1889763779527559,
                    "duration": 0.11904766666666688
                },
                {
                    "name": "G#3",
                    "midi": 56,
                    "time": 6.66666933333334,
                    "velocity": 0.1889763779527559,
                    "duration": 0.11904766666666688
                },
                {
                    "name": "C4",
                    "midi": 60,
                    "time": 6.785717000000007,
                    "velocity": 0.1889763779527559,
                    "duration": 0.11904766666666688
                },
                {
                    "name": "G#3",
                    "midi": 56,
                    "time": 6.904764666666674,
                    "velocity": 0.18110236220472442,
                    "duration": 0.11904766666666688
                },
                {
                    "name": "D#3",
                    "midi": 51,
                    "time": 7.023812333333341,
                    "velocity": 0.18110236220472442,
                    "duration": 0.11904766666666688
                },
                {
                    "name": "G#2",
                    "midi": 44,
                    "time": 7.142860000000008,
                    "velocity": 0.18110236220472442,
                    "duration": 0.11904766666666688
                },
                {
                    "name": "D#3",
                    "midi": 51,
                    "time": 7.261907666666675,
                    "velocity": 0.18110236220472442,
                    "duration": 0.11904766666666688
                },
                {
                    "name": "G#3",
                    "midi": 56,
                    "time": 7.3809553333333415,
                    "velocity": 0.18110236220472442,
                    "duration": 0.11904766666666688
                },
                {
                    "name": "C4",
                    "midi": 60,
                    "time": 7.500003000000008,
                    "velocity": 0.18110236220472442,
                    "duration": 0.11904766666666688
                },
                {
                    "name": "G#3",
                    "midi": 56,
                    "time": 7.619050666666675,
                    "velocity": 0.18110236220472442,
                    "duration": 0.11904766666666688
                },
                {
                    "name": "D#3",
                    "midi": 51,
                    "time": 7.738098333333342,
                    "velocity": 0.18110236220472442,
                    "duration": 0.11904766666666688
                },
                {
                    "name": "G#2",
                    "midi": 44,
                    "time": 7.857146000000009,
                    "velocity": 0.18110236220472442,
                    "duration": 0.11904766666666688
                },
                {
                    "name": "D#3",
                    "midi": 51,
                    "time": 7.976193666666676,
                    "velocity": 0.18110236220472442,
                    "duration": 0.11904766666666688
                },
                {
                    "name": "G#3",
                    "midi": 56,
                    "time": 8.095241333333343,
                    "velocity": 0.1732283464566929,
                    "duration": 0.11904766666666688
                },
                {
                    "name": "C4",
                    "midi": 60,
                    "time": 8.21428900000001,
                    "velocity": 0.1732283464566929,
                    "duration": 0.11904766666666688
                },
                {
                    "name": "G#3",
                    "midi": 56,
                    "time": 8.333336666666677,
                    "velocity": 0.1732283464566929,
                    "duration": 0.11904766666666688
                },
                {
                    "name": "D#3",
                    "midi": 51,
                    "time": 8.452384333333343,
                    "velocity": 0.1732283464566929,
                    "duration": 0.11904766666666688
                },
                {
                    "name": "G#2",
                    "midi": 44,
                    "time": 8.57143200000001,
                    "velocity": 0.1889763779527559,
                    "duration": 0.11904766666666688
                },
                {
                    "name": "D#3",
                    "midi": 51,
                    "time": 8.690479666666677,
                    "velocity": 0.1889763779527559,
                    "duration": 0.11904766666666688
                },
                {
                    "name": "G3",
                    "midi": 55,
                    "time": 8.809527333333344,
                    "velocity": 0.1889763779527559,
                    "duration": 0.11904766666666688
                },
                {
                    "name": "C#4",
                    "midi": 61,
                    "time": 8.928575000000011,
                    "velocity": 0.1968503937007874,
                    "duration": 0.11904766666666688
                },
                {
                    "name": "G3",
                    "midi": 55,
                    "time": 9.047622666666678,
                    "velocity": 0.1968503937007874,
                    "duration": 0.11904766666666688
                },
                {
                    "name": "D#3",
                    "midi": 51,
                    "time": 9.166670333333345,
                    "velocity": 0.2047244094488189,
                    "duration": 0.11904766666666688
                },
                {
                    "name": "G#2",
                    "midi": 44,
                    "time": 9.285718000000012,
                    "velocity": 0.2047244094488189,
                    "duration": 0.11904766666666688
                },
                {
                    "name": "D#3",
                    "midi": 51,
                    "time": 9.404765666666679,
                    "velocity": 0.2125984251968504,
                    "duration": 0.11904766666666688
                },
                {
                    "name": "G3",
                    "midi": 55,
                    "time": 9.523813333333345,
                    "velocity": 0.2125984251968504,
                    "duration": 0.11904766666666688
                },
                {
                    "name": "C#4",
                    "midi": 61,
                    "time": 9.642861000000012,
                    "velocity": 0.2125984251968504,
                    "duration": 0.11904766666666688
                },
                {
                    "name": "G3",
                    "midi": 55,
                    "time": 9.76190866666668,
                    "velocity": 0.2204724409448819,
                    "duration": 0.11904766666666688
                },
                {
                    "name": "D#3",
                    "midi": 51,
                    "time": 9.880956333333346,
                    "velocity": 0.2204724409448819,
                    "duration": 0.11904766666666688
                },
                {
                    "name": "G#2",
                    "midi": 44,
                    "time": 10.000004000000013,
                    "velocity": 0.2283464566929134,
                    "duration": 0.11904766666666688
                },
                {
                    "name": "D#3",
                    "midi": 51,
                    "time": 10.11905166666668,
                    "velocity": 0.2283464566929134,
                    "duration": 0.11904766666666688
                },
                {
                    "name": "G3",
                    "midi": 55,
                    "time": 10.238099333333347,
                    "velocity": 0.2283464566929134,
                    "duration": 0.11904766666666688
                },
                {
                    "name": "C#4",
                    "midi": 61,
                    "time": 10.357147000000014,
                    "velocity": 0.2283464566929134,
                    "duration": 0.11904766666666688
                },
                {
                    "name": "G3",
                    "midi": 55,
                    "time": 10.47619466666668,
                    "velocity": 0.23622047244094488,
                    "duration": 0.11904766666666688
                },
                {
                    "name": "D#3",
                    "midi": 51,
                    "time": 10.595242333333347,
                    "velocity": 0.23622047244094488,
                    "duration": 0.11904766666666688
                },
                {
                    "name": "G#2",
                    "midi": 44,
                    "time": 10.714290000000014,
                    "velocity": 0.23622047244094488,
                    "duration": 0.11904766666666688
                },
                {
                    "name": "D#3",
                    "midi": 51,
                    "time": 10.833337666666681,
                    "velocity": 0.23622047244094488,
                    "duration": 0.11904766666666688
                },
                {
                    "name": "G3",
                    "midi": 55,
                    "time": 10.952385333333348,
                    "velocity": 0.2283464566929134,
                    "duration": 0.11904766666666688
                },
                {
                    "name": "C#4",
                    "midi": 61,
                    "time": 11.071433000000015,
                    "velocity": 0.2283464566929134,
                    "duration": 0.11904766666666688
                },
                {
                    "name": "G3",
                    "midi": 55,
                    "time": 11.190480666666682,
                    "velocity": 0.2283464566929134,
                    "duration": 0.11904766666666688
                },
                {
                    "name": "D#3",
                    "midi": 51,
                    "time": 11.309528333333349,
                    "velocity": 0.2204724409448819,
                    "duration": 0.11904766666666688
                },
                {
                    "name": "G#2",
                    "midi": 44,
                    "time": 11.428576000000016,
                    "velocity": 0.2283464566929134,
                    "duration": 0.11904766666666688
                },
                {
                    "name": "D#3",
                    "midi": 51,
                    "time": 11.547623666666682,
                    "velocity": 0.2283464566929134,
                    "duration": 0.11904766666666688
                },
                {
                    "name": "G#3",
                    "midi": 56,
                    "time": 11.66667133333335,
                    "velocity": 0.2204724409448819,
                    "duration": 0.11904766666666688
                },
                {
                    "name": "C4",
                    "midi": 60,
                    "time": 11.785719000000016,
                    "velocity": 0.2204724409448819,
                    "duration": 0.11904766666666688
                },
                {
                    "name": "G#3",
                    "midi": 56,
                    "time": 11.904766666666683,
                    "velocity": 0.2204724409448819,
                    "duration": 0.11904766666666688
                },
                {
                    "name": "D#3",
                    "midi": 51,
                    "time": 12.02381433333335,
                    "velocity": 0.2125984251968504,
                    "duration": 0.11904766666666688
                },
                {
                    "name": "G#2",
                    "midi": 44,
                    "time": 12.142862000000017,
                    "velocity": 0.2440944881889764,
                    "duration": 0.11904766666666688
                },
                {
                    "name": "D#3",
                    "midi": 51,
                    "time": 12.261909666666684,
                    "velocity": 0.2440944881889764,
                    "duration": 0.11904766666666688
                },
                {
                    "name": "G#3",
                    "midi": 56,
                    "time": 12.38095733333335,
                    "velocity": 0.23622047244094488,
                    "duration": 0.11904766666666688
                },
                {
                    "name": "C4",
                    "midi": 60,
                    "time": 12.500005000000018,
                    "velocity": 0.23622047244094488,
                    "duration": 0.11904766666666688
                },
                {
                    "name": "G#3",
                    "midi": 56,
                    "time": 12.619052666666684,
                    "velocity": 0.2283464566929134,
                    "duration": 0.11904766666666688
                },
                {
                    "name": "D#3",
                    "midi": 51,
                    "time": 12.738100333333351,
                    "velocity": 0.2283464566929134,
                    "duration": 0.11904766666666688
                },
                {
                    "name": "G#2",
                    "midi": 44,
                    "time": 12.857148000000018,
                    "velocity": 0.2204724409448819,
                    "duration": 0.11904766666666688
                },
                {
                    "name": "E3",
                    "midi": 52,
                    "time": 12.976195666666685,
                    "velocity": 0.2204724409448819,
                    "duration": 0.11904766666666688
                },
                {
                    "name": "G#3",
                    "midi": 56,
                    "time": 13.095243333333352,
                    "velocity": 0.2283464566929134,
                    "duration": 0.11904766666666688
                },
                {
                    "name": "C4",
                    "midi": 60,
                    "time": 13.214291000000019,
                    "velocity": 0.2283464566929134,
                    "duration": 0.11904766666666688
                },
                {
                    "name": "G#3",
                    "midi": 56,
                    "time": 13.333338666666686,
                    "velocity": 0.2283464566929134,
                    "duration": 0.11904766666666688
                },
                {
                    "name": "E3",
                    "midi": 52,
                    "time": 13.452386333333353,
                    "velocity": 0.23622047244094488,
                    "duration": 0.11904766666666688
                },
                {
                    "name": "G#2",
                    "midi": 44,
                    "time": 13.57143400000002,
                    "velocity": 0.2440944881889764,
                    "duration": 0.11904766666666688
                },
                {
                    "name": "E3",
                    "midi": 52,
                    "time": 13.690481666666686,
                    "velocity": 0.2440944881889764,
                    "duration": 0.11904766666666688
                },
                {
                    "name": "G#3",
                    "midi": 56,
                    "time": 13.809529333333353,
                    "velocity": 0.25984251968503935,
                    "duration": 0.11904766666666688
                },
                {
                    "name": "C4",
                    "midi": 60,
                    "time": 13.92857700000002,
                    "velocity": 0.2677165354330709,
                    "duration": 0.11904766666666688
                },
                {
                    "name": "G#3",
                    "midi": 56,
                    "time": 14.047624666666687,
                    "velocity": 0.2677165354330709,
                    "duration": 0.11904766666666688
                },
                {
                    "name": "E3",
                    "midi": 52,
                    "time": 14.166672333333354,
                    "velocity": 0.2755905511811024,
                    "duration": 0.11904766666666688
                },
                {
                    "name": "C#2",
                    "midi": 37,
                    "time": 14.28572000000002,
                    "velocity": 0.3464566929133858,
                    "duration": 0.11904766666666688
                },
                {
                    "name": "G#3",
                    "midi": 56,
                    "time": 14.404767666666688,
                    "velocity": 0.2440944881889764,
                    "duration": 0.11904766666666688
                },
                {
                    "name": "C#4",
                    "midi": 61,
                    "time": 14.523815333333355,
                    "velocity": 0.2440944881889764,
                    "duration": 0.11904766666666688
                },
                {
                    "name": "F4",
                    "midi": 65,
                    "time": 14.642863000000022,
                    "velocity": 0.2440944881889764,
                    "duration": 0.11904766666666688
                },
                {
                    "name": "C#4",
                    "midi": 61,
                    "time": 14.761910666666688,
                    "velocity": 0.25984251968503935,
                    "duration": 0.11904766666666688
                },
                {
                    "name": "G#3",
                    "midi": 56,
                    "time": 14.880958333333355,
                    "velocity": 0.25984251968503935,
                    "duration": 0.11904766666666688
                },
                {
                    "name": "C#3",
                    "midi": 49,
                    "time": 15.000006000000022,
                    "velocity": 0.36220472440944884,
                    "duration": 0.11904766666666688
                },
                {
                    "name": "G#3",
                    "midi": 56,
                    "time": 15.119053666666689,
                    "velocity": 0.2677165354330709,
                    "duration": 0.11904766666666688
                },
                {
                    "name": "C#4",
                    "midi": 61,
                    "time": 15.238101333333356,
                    "velocity": 0.2677165354330709,
                    "duration": 0.11904766666666688
                },
                {
                    "name": "F4",
                    "midi": 65,
                    "time": 15.357149000000023,
                    "velocity": 0.2677165354330709,
                    "duration": 0.11904766666666688
                },
                {
                    "name": "C#4",
                    "midi": 61,
                    "time": 15.47619666666669,
                    "velocity": 0.2677165354330709,
                    "duration": 0.11904766666666688
                },
                {
                    "name": "G#3",
                    "midi": 56,
                    "time": 15.595244333333357,
                    "velocity": 0.2755905511811024,
                    "duration": 0.11904766666666688
                },
                {
                    "name": "C#3",
                    "midi": 49,
                    "time": 15.714292000000023,
                    "velocity": 0.2755905511811024,
                    "duration": 0.11904766666666688
                },
                {
                    "name": "G#3",
                    "midi": 56,
                    "time": 15.83333966666669,
                    "velocity": 0.2755905511811024,
                    "duration": 0.11904766666666688
                },
                {
                    "name": "C#4",
                    "midi": 61,
                    "time": 15.952387333333357,
                    "velocity": 0.28346456692913385,
                    "duration": 0.11904766666666511
                },
                {
                    "name": "F4",
                    "midi": 65,
                    "time": 16.071435000000022,
                    "velocity": 0.28346456692913385,
                    "duration": 0.11904766666666688
                },
                {
                    "name": "C#4",
                    "midi": 61,
                    "time": 16.19048266666669,
                    "velocity": 0.28346456692913385,
                    "duration": 0.11904766666666688
                },
                {
                    "name": "G#3",
                    "midi": 56,
                    "time": 16.309530333333356,
                    "velocity": 0.28346456692913385,
                    "duration": 0.11904766666666688
                },
                {
                    "name": "C#3",
                    "midi": 49,
                    "time": 16.428578000000023,
                    "velocity": 0.3937007874015748,
                    "duration": 0.11904766666667044
                },
                {
                    "name": "G3",
                    "midi": 55,
                    "time": 16.547625666666693,
                    "velocity": 0.29133858267716534,
                    "duration": 0.11904766666666688
                },
                {
                    "name": "C#4",
                    "midi": 61,
                    "time": 16.66667333333336,
                    "velocity": 0.29133858267716534,
                    "duration": 0.11904766666666688
                },
                {
                    "name": "F4",
                    "midi": 65,
                    "time": 16.785721000000027,
                    "velocity": 0.2992125984251969,
                    "duration": 0.11904766666666688
                },
                {
                    "name": "C#4",
                    "midi": 61,
                    "time": 16.904768666666694,
                    "velocity": 0.2992125984251969,
                    "duration": 0.11904766666666688
                },
                {
                    "name": "G3",
                    "midi": 55,
                    "time": 17.02381633333336,
                    "velocity": 0.2992125984251969,
                    "duration": 0.11904766666666688
                },
                {
                    "name": "C3",
                    "midi": 48,
                    "time": 17.142864000000028,
                    "velocity": 0.3937007874015748,
                    "duration": 0.11904766666666333
                },
                {
                    "name": "G3",
                    "midi": 55,
                    "time": 17.26191166666669,
                    "velocity": 0.30708661417322836,
                    "duration": 0.11904766666666688
                },
                {
                    "name": "C4",
                    "midi": 60,
                    "time": 17.380959333333358,
                    "velocity": 0.30708661417322836,
                    "duration": 0.11904766666666688
                },
                {
                    "name": "F4",
                    "midi": 65,
                    "time": 17.500007000000025,
                    "velocity": 0.2992125984251969,
                    "duration": 0.11904766666666688
                },
                {
                    "name": "C4",
                    "midi": 60,
                    "time": 17.619054666666692,
                    "velocity": 0.2992125984251969,
                    "duration": 0.11904766666666688
                },
                {
                    "name": "G3",
                    "midi": 55,
                    "time": 17.73810233333336,
                    "velocity": 0.29133858267716534,
                    "duration": 0.11904766666666688
                },
                {
                    "name": "C3",
                    "midi": 48,
                    "time": 17.857150000000026,
                    "velocity": 0.29133858267716534,
                    "duration": 0.11904766666666688
                },
                {
                    "name": "G3",
                    "midi": 55,
                    "time": 17.976197666666692,
                    "velocity": 0.28346456692913385,
                    "duration": 0.11904766666666688
                },
                {
                    "name": "C4",
                    "midi": 60,
                    "time": 18.09524533333336,
                    "velocity": 0.28346456692913385,
                    "duration": 0.11904766666666688
                },
                {
                    "name": "E4",
                    "midi": 64,
                    "time": 18.214293000000026,
                    "velocity": 0.28346456692913385,
                    "duration": 0.11904766666666688
                },
                {
                    "name": "C4",
                    "midi": 60,
                    "time": 18.333340666666693,
                    "velocity": 0.2755905511811024,
                    "duration": 0.11904766666666688
                },
                {
                    "name": "G3",
                    "midi": 55,
                    "time": 18.45238833333336,
                    "velocity": 0.2755905511811024,
                    "duration": 0.11904766666666688
                },
                {
                    "name": "F3",
                    "midi": 53,
                    "time": 18.571436000000027,
                    "velocity": 0.2677165354330709,
                    "duration": 0.11904766666666688
                },
                {
                    "name": "G#3",
                    "midi": 56,
                    "time": 18.690483666666694,
                    "velocity": 0.2677165354330709,
                    "duration": 0.11904766666666688
                },
                {
                    "name": "C4",
                    "midi": 60,
                    "time": 18.80953133333336,
                    "velocity": 0.25984251968503935,
                    "duration": 0.11904766666666688
                },
                {
                    "name": "F4",
                    "midi": 65,
                    "time": 18.928579000000028,
                    "velocity": 0.25984251968503935,
                    "duration": 0.11904766666666688
                },
                {
                    "name": "C4",
                    "midi": 60,
                    "time": 19.047626666666694,
                    "velocity": 0.2440944881889764,
                    "duration": 0.11904766666666688
                },
                {
                    "name": "G#3",
                    "midi": 56,
                    "time": 19.16667433333336,
                    "velocity": 0.2440944881889764,
                    "duration": 0.11904766666666688
                },
                {
                    "name": "B2",
                    "midi": 47,
                    "time": 19.28572200000003,
                    "velocity": 0.3228346456692913,
                    "duration": 0.11904766666666688
                },
                {
                    "name": "F3",
                    "midi": 53,
                    "time": 19.404769666666695,
                    "velocity": 0.2283464566929134,
                    "duration": 0.11904766666666688
                },
                {
                    "name": "G#3",
                    "midi": 56,
                    "time": 19.523817333333362,
                    "velocity": 0.2283464566929134,
                    "duration": 0.11904766666666688
                },
                {
                    "name": "D#4",
                    "midi": 63,
                    "time": 19.64286500000003,
                    "velocity": 0.2283464566929134,
                    "duration": 0.11904766666666688
                },
                {
                    "name": "G#3",
                    "midi": 56,
                    "time": 19.761912666666696,
                    "velocity": 0.2204724409448819,
                    "duration": 0.11904766666666688
                },
                {
                    "name": "F3",
                    "midi": 53,
                    "time": 19.880960333333363,
                    "velocity": 0.2204724409448819,
                    "duration": 0.11904766666666688
                },
                {
                    "name": "A#2",
                    "midi": 46,
                    "time": 20.00000800000003,
                    "velocity": 0.3700787401574803,
                    "duration": 0.11904766666666688
                },
                {
                    "name": "F3",
                    "midi": 53,
                    "time": 20.119055666666696,
                    "velocity": 0.2204724409448819,
                    "duration": 0.11904766666666688
                },
                {
                    "name": "G#3",
                    "midi": 56,
                    "time": 20.238103333333363,
                    "velocity": 0.2204724409448819,
                    "duration": 0.11904766666666688
                },
                {
                    "name": "D#4",
                    "midi": 63,
                    "time": 20.35715100000003,
                    "velocity": 0.2283464566929134,
                    "duration": 0.11904766666666688
                },
                {
                    "name": "G#3",
                    "midi": 56,
                    "time": 20.476198666666697,
                    "velocity": 0.2283464566929134,
                    "duration": 0.11904766666666688
                },
                {
                    "name": "F3",
                    "midi": 53,
                    "time": 20.595246333333364,
                    "velocity": 0.2283464566929134,
                    "duration": 0.11904766666666688
                },
                {
                    "name": "A#2",
                    "midi": 46,
                    "time": 20.71429400000003,
                    "velocity": 0.2440944881889764,
                    "duration": 0.11904766666666688
                },
                {
                    "name": "F3",
                    "midi": 53,
                    "time": 20.833341666666698,
                    "velocity": 0.2440944881889764,
                    "duration": 0.11904766666666688
                },
                {
                    "name": "G#3",
                    "midi": 56,
                    "time": 20.952389333333365,
                    "velocity": 0.25984251968503935,
                    "duration": 0.11904766666666688
                },
                {
                    "name": "D#4",
                    "midi": 63,
                    "time": 21.07143700000003,
                    "velocity": 0.25984251968503935,
                    "duration": 0.11904766666666688
                },
                {
                    "name": "G#3",
                    "midi": 56,
                    "time": 21.1904846666667,
                    "velocity": 0.2677165354330709,
                    "duration": 0.11904766666666688
                },
                {
                    "name": "F3",
                    "midi": 53,
                    "time": 21.309532333333365,
                    "velocity": 0.2755905511811024,
                    "duration": 0.11904766666666688
                },
                {
                    "name": "A#2",
                    "midi": 46,
                    "time": 21.428580000000032,
                    "velocity": 0.2677165354330709,
                    "duration": 0.11904766666666688
                },
                {
                    "name": "F3",
                    "midi": 53,
                    "time": 21.5476276666667,
                    "velocity": 0.2677165354330709,
                    "duration": 0.11904766666666688
                },
                {
                    "name": "G#3",
                    "midi": 56,
                    "time": 21.666675333333366,
                    "velocity": 0.2677165354330709,
                    "duration": 0.11904766666666688
                },
                {
                    "name": "D4",
                    "midi": 62,
                    "time": 21.785723000000033,
                    "velocity": 0.25984251968503935,
                    "duration": 0.11904766666666688
                },
                {
                    "name": "G#3",
                    "midi": 56,
                    "time": 21.9047706666667,
                    "velocity": 0.25984251968503935,
                    "duration": 0.11904766666666688
                },
                {
                    "name": "F3",
                    "midi": 53,
                    "time": 22.023818333333367,
                    "velocity": 0.25984251968503935,
                    "duration": 0.11904766666666688
                },
                {
                    "name": "A#2",
                    "midi": 46,
                    "time": 22.142866000000033,
                    "velocity": 0.2440944881889764,
                    "duration": 0.11904766666666688
                },
                {
                    "name": "F3",
                    "midi": 53,
                    "time": 22.2619136666667,
                    "velocity": 0.2440944881889764,
                    "duration": 0.11904766666666688
                },
                {
                    "name": "G#3",
                    "midi": 56,
                    "time": 22.380961333333367,
                    "velocity": 0.2440944881889764,
                    "duration": 0.11904766666666688
                },
                {
                    "name": "D4",
                    "midi": 62,
                    "time": 22.500009000000034,
                    "velocity": 0.2283464566929134,
                    "duration": 0.11904766666666688
                },
                {
                    "name": "G#3",
                    "midi": 56,
                    "time": 22.6190566666667,
                    "velocity": 0.2283464566929134,
                    "duration": 0.11904766666666688
                },
                {
                    "name": "F3",
                    "midi": 53,
                    "time": 22.738104333333368,
                    "velocity": 0.2283464566929134,
                    "duration": 0.11904766666666688
                },
                {
                    "name": "D#2",
                    "midi": 39,
                    "time": 22.857152000000035,
                    "velocity": 0.4015748031496063,
                    "duration": 0.11904766666667044
                },
                {
                    "name": "A#2",
                    "midi": 46,
                    "time": 22.976199666666705,
                    "velocity": 0.2283464566929134,
                    "duration": 0.11904766666666688
                },
                {
                    "name": "D#3",
                    "midi": 51,
                    "time": 23.095247333333372,
                    "velocity": 0.2440944881889764,
                    "duration": 0.11904766666666688
                },
                {
                    "name": "C#4",
                    "midi": 61,
                    "time": 23.21429500000004,
                    "velocity": 0.2440944881889764,
                    "duration": 0.11904766666666688
                },
                {
                    "name": "D#3",
                    "midi": 51,
                    "time": 23.333342666666706,
                    "velocity": 0.25984251968503935,
                    "duration": 0.11904766666666688
                },
                {
                    "name": "A#2",
                    "midi": 46,
                    "time": 23.452390333333373,
                    "velocity": 0.25984251968503935,
                    "duration": 0.11904766666666688
                },
                {
                    "name": "D#2",
                    "midi": 39,
                    "time": 23.57143800000004,
                    "velocity": 0.2125984251968504,
                    "duration": 0.11904766666666333
                },
                {
                    "name": "A#2",
                    "midi": 46,
                    "time": 23.690485666666703,
                    "velocity": 0.2125984251968504,
                    "duration": 0.11904766666666688
                },
                {
                    "name": "D#3",
                    "midi": 51,
                    "time": 23.80953333333337,
                    "velocity": 0.2204724409448819,
                    "duration": 0.11904766666666688
                },
                {
                    "name": "G#3",
                    "midi": 56,
                    "time": 23.928581000000037,
                    "velocity": 0.2204724409448819,
                    "duration": 0.11904766666666688
                },
                {
                    "name": "D#3",
                    "midi": 51,
                    "time": 24.047628666666704,
                    "velocity": 0.2204724409448819,
                    "duration": 0.11904766666666688
                },
                {
                    "name": "A#2",
                    "midi": 46,
                    "time": 24.16667633333337,
                    "velocity": 0.2204724409448819,
                    "duration": 0.11904766666666688
                },
                {
                    "name": "D#2",
                    "midi": 39,
                    "time": 24.285724000000037,
                    "velocity": 0.2204724409448819,
                    "duration": 0.11904766666666688
                },
                {
                    "name": "A#2",
                    "midi": 46,
                    "time": 24.404771666666704,
                    "velocity": 0.2125984251968504,
                    "duration": 0.11904766666666688
                },
                {
                    "name": "D#3",
                    "midi": 51,
                    "time": 24.52381933333337,
                    "velocity": 0.2047244094488189,
                    "duration": 0.11904766666666688
                },
                {
                    "name": "G3",
                    "midi": 55,
                    "time": 24.642867000000038,
                    "velocity": 0.2047244094488189,
                    "duration": 0.11904766666666688
                },
                {
                    "name": "D#3",
                    "midi": 51,
                    "time": 24.761914666666705,
                    "velocity": 0.1889763779527559,
                    "duration": 0.11904766666666688
                },
                {
                    "name": "A#2",
                    "midi": 46,
                    "time": 24.880962333333372,
                    "velocity": 0.1889763779527559,
                    "duration": 0.11904766666666688
                },
                {
                    "name": "D#2",
                    "midi": 39,
                    "time": 25.00001000000004,
                    "velocity": 0.2283464566929134,
                    "duration": 0.11904766666666688
                },
                {
                    "name": "A#2",
                    "midi": 46,
                    "time": 25.119057666666706,
                    "velocity": 0.2204724409448819,
                    "duration": 0.11904766666666688
                },
                {
                    "name": "C#3",
                    "midi": 49,
                    "time": 25.238105333333372,
                    "velocity": 0.2125984251968504,
                    "duration": 0.11904766666666688
                },
                {
                    "name": "G3",
                    "midi": 55,
                    "time": 25.35715300000004,
                    "velocity": 0.2125984251968504,
                    "duration": 0.11904766666666688
                },
                {
                    "name": "C#3",
                    "midi": 49,
                    "time": 25.476200666666706,
                    "velocity": 0.2047244094488189,
                    "duration": 0.11904766666666688
                },
                {
                    "name": "A#2",
                    "midi": 46,
                    "time": 25.595248333333373,
                    "velocity": 0.1968503937007874,
                    "duration": 0.11904766666666688
                },
                {
                    "name": "G#1",
                    "midi": 32,
                    "time": 25.71429600000004,
                    "velocity": 0.3228346456692913,
                    "duration": 0.11904766666666688
                },
                {
                    "name": "D#3",
                    "midi": 51,
                    "time": 25.833343666666707,
                    "velocity": 0.13385826771653545,
                    "duration": 0.11904766666666688
                },
                {
                    "name": "G#3",
                    "midi": 56,
                    "time": 25.952391333333374,
                    "velocity": 0.14173228346456693,
                    "duration": 0.11904766666666688
                },
                {
                    "name": "C4",
                    "midi": 60,
                    "time": 26.07143900000004,
                    "velocity": 0.14173228346456693,
                    "duration": 0.11904766666666688
                },
                {
                    "name": "G#3",
                    "midi": 56,
                    "time": 26.190486666666708,
                    "velocity": 0.14173228346456693,
                    "duration": 0.11904766666666688
                },
                {
                    "name": "D#3",
                    "midi": 51,
                    "time": 26.309534333333374,
                    "velocity": 0.14173228346456693,
                    "duration": 0.11904766666666688
                },
                {
                    "name": "G#2",
                    "midi": 44,
                    "time": 26.42858200000004,
                    "velocity": 0.28346456692913385,
                    "duration": 0.11904766666666688
                },
                {
                    "name": "D#3",
                    "midi": 51,
                    "time": 26.547629666666708,
                    "velocity": 0.14960629921259844,
                    "duration": 0.11904766666666688
                },
                {
                    "name": "G#3",
                    "midi": 56,
                    "time": 26.666677333333375,
                    "velocity": 0.14960629921259844,
                    "duration": 0.11904766666666688
                },
                {
                    "name": "C4",
                    "midi": 60,
                    "time": 26.785725000000042,
                    "velocity": 0.14960629921259844,
                    "duration": 0.11904766666666688
                },
                {
                    "name": "G#3",
                    "midi": 56,
                    "time": 26.90477266666671,
                    "velocity": 0.15748031496062992,
                    "duration": 0.11904766666666688
                },
                {
                    "name": "D#3",
                    "midi": 51,
                    "time": 27.023820333333376,
                    "velocity": 0.15748031496062992,
                    "duration": 0.11904766666666688
                },
                {
                    "name": "G#2",
                    "midi": 44,
                    "time": 27.142868000000043,
                    "velocity": 0.15748031496062992,
                    "duration": 0.11904766666666688
                },
                {
                    "name": "D#3",
                    "midi": 51,
                    "time": 27.26191566666671,
                    "velocity": 0.15748031496062992,
                    "duration": 0.11904766666666688
                },
                {
                    "name": "G#3",
                    "midi": 56,
                    "time": 27.380963333333376,
                    "velocity": 0.15748031496062992,
                    "duration": 0.11904766666666688
                },
                {
                    "name": "C4",
                    "midi": 60,
                    "time": 27.500011000000043,
                    "velocity": 0.15748031496062992,
                    "duration": 0.11904766666666688
                },
                {
                    "name": "G#3",
                    "midi": 56,
                    "time": 27.61905866666671,
                    "velocity": 0.1732283464566929,
                    "duration": 0.11904766666666688
                },
                {
                    "name": "D#3",
                    "midi": 51,
                    "time": 27.738106333333377,
                    "velocity": 0.1732283464566929,
                    "duration": 0.11904766666666688
                },
                {
                    "name": "G#2",
                    "midi": 44,
                    "time": 27.857154000000044,
                    "velocity": 0.18110236220472442,
                    "duration": 0.11904766666666688
                },
                {
                    "name": "D#3",
                    "midi": 51,
                    "time": 27.97620166666671,
                    "velocity": 0.18110236220472442,
                    "duration": 0.11904766666666688
                },
                {
                    "name": "G#3",
                    "midi": 56,
                    "time": 28.095249333333378,
                    "velocity": 0.18110236220472442,
                    "duration": 0.11904766666666688
                },
                {
                    "name": "C4",
                    "midi": 60,
                    "time": 28.214297000000045,
                    "velocity": 0.1889763779527559,
                    "duration": 0.11904766666666688
                },
                {
                    "name": "G#3",
                    "midi": 56,
                    "time": 28.33334466666671,
                    "velocity": 0.1889763779527559,
                    "duration": 0.11904766666666688
                },
                {
                    "name": "D#3",
                    "midi": 51,
                    "time": 28.45239233333338,
                    "velocity": 0.1889763779527559,
                    "duration": 0.11904766666666688
                },
                {
                    "name": "G#2",
                    "midi": 44,
                    "time": 28.571440000000045,
                    "velocity": 0.2047244094488189,
                    "duration": 0.11904766666666688
                },
                {
                    "name": "D#3",
                    "midi": 51,
                    "time": 28.690487666666712,
                    "velocity": 0.2047244094488189,
                    "duration": 0.11904766666666688
                },
                {
                    "name": "G#3",
                    "midi": 56,
                    "time": 28.80953533333338,
                    "velocity": 0.1968503937007874,
                    "duration": 0.11904766666666688
                },
                {
                    "name": "C4",
                    "midi": 60,
                    "time": 28.928583000000046,
                    "velocity": 0.1968503937007874,
                    "duration": 0.11904766666666688
                },
                {
                    "name": "G#3",
                    "midi": 56,
                    "time": 29.047630666666713,
                    "velocity": 0.1968503937007874,
                    "duration": 0.11904766666666688
                },
                {
                    "name": "D#3",
                    "midi": 51,
                    "time": 29.16667833333338,
                    "velocity": 0.1889763779527559,
                    "duration": 0.11904766666666688
                },
                {
                    "name": "G#2",
                    "midi": 44,
                    "time": 29.285726000000047,
                    "velocity": 0.1889763779527559,
                    "duration": 0.11904766666666688
                },
                {
                    "name": "D#3",
                    "midi": 51,
                    "time": 29.404773666666713,
                    "velocity": 0.1889763779527559,
                    "duration": 0.11904766666666688
                },
                {
                    "name": "G#3",
                    "midi": 56,
                    "time": 29.52382133333338,
                    "velocity": 0.1889763779527559,
                    "duration": 0.11904766666666688
                },
                {
                    "name": "C4",
                    "midi": 60,
                    "time": 29.642869000000047,
                    "velocity": 0.1889763779527559,
                    "duration": 0.11904766666666688
                },
                {
                    "name": "G#3",
                    "midi": 56,
                    "time": 29.761916666666714,
                    "velocity": 0.18110236220472442,
                    "duration": 0.11904766666666688
                },
                {
                    "name": "D#3",
                    "midi": 51,
                    "time": 29.88096433333338,
                    "velocity": 0.18110236220472442,
                    "duration": 0.11904766666666688
                },
                {
                    "name": "G#2",
                    "midi": 44,
                    "time": 30.000012000000048,
                    "velocity": 0.18110236220472442,
                    "duration": 0.11904766666666688
                },
                {
                    "name": "D#3",
                    "midi": 51,
                    "time": 30.119059666666715,
                    "velocity": 0.18110236220472442,
                    "duration": 0.11904766666666688
                },
                {
                    "name": "G#3",
                    "midi": 56,
                    "time": 30.23810733333338,
                    "velocity": 0.18110236220472442,
                    "duration": 0.11904766666666688
                },
                {
                    "name": "C4",
                    "midi": 60,
                    "time": 30.35715500000005,
                    "velocity": 0.18110236220472442,
                    "duration": 0.11904766666666688
                },
                {
                    "name": "G#3",
                    "midi": 56,
                    "time": 30.476202666666715,
                    "velocity": 0.18110236220472442,
                    "duration": 0.11904766666666688
                },
                {
                    "name": "D#3",
                    "midi": 51,
                    "time": 30.595250333333382,
                    "velocity": 0.18110236220472442,
                    "duration": 0.11904766666666688
                },
                {
                    "name": "G#2",
                    "midi": 44,
                    "time": 30.71429800000005,
                    "velocity": 0.18110236220472442,
                    "duration": 0.11904766666666688
                },
                {
                    "name": "D#3",
                    "midi": 51,
                    "time": 30.833345666666716,
                    "velocity": 0.18110236220472442,
                    "duration": 0.11904766666666688
                },
                {
                    "name": "G#3",
                    "midi": 56,
                    "time": 30.952393333333383,
                    "velocity": 0.1732283464566929,
                    "duration": 0.11904766666666688
                },
                {
                    "name": "C4",
                    "midi": 60,
                    "time": 31.07144100000005,
                    "velocity": 0.1732283464566929,
                    "duration": 0.11904766666666688
                },
                {
                    "name": "G#3",
                    "midi": 56,
                    "time": 31.190488666666717,
                    "velocity": 0.1732283464566929,
                    "duration": 0.11904766666666688
                },
                {
                    "name": "D#3",
                    "midi": 51,
                    "time": 31.309536333333384,
                    "velocity": 0.1732283464566929,
                    "duration": 0.11904766666666688
                },
                {
                    "name": "G#2",
                    "midi": 44,
                    "time": 31.42858400000005,
                    "velocity": 0.1968503937007874,
                    "duration": 0.11904766666666688
                },
                {
                    "name": "D#3",
                    "midi": 51,
                    "time": 31.547631666666717,
                    "velocity": 0.1968503937007874,
                    "duration": 0.11904766666666688
                },
                {
                    "name": "G3",
                    "midi": 55,
                    "time": 31.666679333333384,
                    "velocity": 0.2047244094488189,
                    "duration": 0.11904766666666688
                },
                {
                    "name": "C#4",
                    "midi": 61,
                    "time": 31.78572700000005,
                    "velocity": 0.2047244094488189,
                    "duration": 0.11904766666666688
                },
                {
                    "name": "G3",
                    "midi": 55,
                    "time": 31.904774666666718,
                    "velocity": 0.2125984251968504,
                    "duration": 0.11904766666666688
                },
                {
                    "name": "D#3",
                    "midi": 51,
                    "time": 32.023822333333385,
                    "velocity": 0.2125984251968504,
                    "duration": 0.11904766666666688
                },
                {
                    "name": "G#2",
                    "midi": 44,
                    "time": 32.14287000000005,
                    "velocity": 0.2204724409448819,
                    "duration": 0.11904766666666688
                },
                {
                    "name": "D#3",
                    "midi": 51,
                    "time": 32.26191766666672,
                    "velocity": 0.2204724409448819,
                    "duration": 0.11904766666666688
                },
                {
                    "name": "G3",
                    "midi": 55,
                    "time": 32.380965333333386,
                    "velocity": 0.2283464566929134,
                    "duration": 0.11904766666666688
                },
                {
                    "name": "C#4",
                    "midi": 61,
                    "time": 32.50001300000005,
                    "velocity": 0.2283464566929134,
                    "duration": 0.11904766666666688
                },
                {
                    "name": "G3",
                    "midi": 55,
                    "time": 32.61906066666672,
                    "velocity": 0.23622047244094488,
                    "duration": 0.11904766666666688
                },
                {
                    "name": "D#3",
                    "midi": 51,
                    "time": 32.738108333333386,
                    "velocity": 0.23622047244094488,
                    "duration": 0.11904766666666688
                },
                {
                    "name": "G#2",
                    "midi": 44,
                    "time": 32.85715600000005,
                    "velocity": 0.2440944881889764,
                    "duration": 0.11904766666665978
                },
                {
                    "name": "D#3",
                    "midi": 51,
                    "time": 32.97620366666671,
                    "velocity": 0.2440944881889764,
                    "duration": 0.11904766666666688
                },
                {
                    "name": "G3",
                    "midi": 55,
                    "time": 33.09525133333338,
                    "velocity": 0.2677165354330709,
                    "duration": 0.11904766666666688
                },
                {
                    "name": "C#4",
                    "midi": 61,
                    "time": 33.21429900000005,
                    "velocity": 0.2677165354330709,
                    "duration": 0.11904766666666688
                },
                {
                    "name": "G3",
                    "midi": 55,
                    "time": 33.33334666666671,
                    "velocity": 0.2755905511811024,
                    "duration": 0.11904766666666688
                },
                {
                    "name": "D#3",
                    "midi": 51,
                    "time": 33.45239433333338,
                    "velocity": 0.2755905511811024,
                    "duration": 0.11904766666666688
                },
                {
                    "name": "G#2",
                    "midi": 44,
                    "time": 33.57144200000005,
                    "velocity": 0.2755905511811024,
                    "duration": 0.11904766666666688
                },
                {
                    "name": "D#3",
                    "midi": 51,
                    "time": 33.690489666666714,
                    "velocity": 0.2755905511811024,
                    "duration": 0.11904766666666688
                },
                {
                    "name": "G3",
                    "midi": 55,
                    "time": 33.80953733333338,
                    "velocity": 0.2677165354330709,
                    "duration": 0.11904766666666688
                },
                {
                    "name": "C#4",
                    "midi": 61,
                    "time": 33.92858500000005,
                    "velocity": 0.25984251968503935,
                    "duration": 0.11904766666666688
                },
                {
                    "name": "G3",
                    "midi": 55,
                    "time": 34.047632666666715,
                    "velocity": 0.25984251968503935,
                    "duration": 0.11904766666666688
                },
                {
                    "name": "D#3",
                    "midi": 51,
                    "time": 34.16668033333338,
                    "velocity": 0.2440944881889764,
                    "duration": 0.11904766666666688
                },
                {
                    "name": "G#2",
                    "midi": 44,
                    "time": 34.28572800000005,
                    "velocity": 0.2440944881889764,
                    "duration": 0.11904766666666688
                },
                {
                    "name": "D#3",
                    "midi": 51,
                    "time": 34.404775666666715,
                    "velocity": 0.2440944881889764,
                    "duration": 0.11904766666666688
                },
                {
                    "name": "G#3",
                    "midi": 56,
                    "time": 34.52382333333338,
                    "velocity": 0.23622047244094488,
                    "duration": 0.11904766666666688
                },
                {
                    "name": "C4",
                    "midi": 60,
                    "time": 34.64287100000005,
                    "velocity": 0.23622047244094488,
                    "duration": 0.11904766666666688
                },
                {
                    "name": "G#3",
                    "midi": 56,
                    "time": 34.761918666666716,
                    "velocity": 0.23622047244094488,
                    "duration": 0.11904766666666688
                },
                {
                    "name": "D#3",
                    "midi": 51,
                    "time": 34.88096633333338,
                    "velocity": 0.2283464566929134,
                    "duration": 0.11904766666666688
                },
                {
                    "name": "G#2",
                    "midi": 44,
                    "time": 35.00001400000005,
                    "velocity": 0.2755905511811024,
                    "duration": 0.11904766666666688
                },
                {
                    "name": "D#3",
                    "midi": 51,
                    "time": 35.11906166666672,
                    "velocity": 0.2755905511811024,
                    "duration": 0.11904766666666688
                },
                {
                    "name": "G#3",
                    "midi": 56,
                    "time": 35.238109333333384,
                    "velocity": 0.2677165354330709,
                    "duration": 0.11904766666666688
                },
                {
                    "name": "C4",
                    "midi": 60,
                    "time": 35.35715700000005,
                    "velocity": 0.2677165354330709,
                    "duration": 0.11904766666666688
                },
                {
                    "name": "G#3",
                    "midi": 56,
                    "time": 35.47620466666672,
                    "velocity": 0.25984251968503935,
                    "duration": 0.11904766666666688
                },
                {
                    "name": "D#3",
                    "midi": 51,
                    "time": 35.595252333333384,
                    "velocity": 0.25984251968503935,
                    "duration": 0.11904766666666688
                },
                {
                    "name": "G#2",
                    "midi": 44,
                    "time": 35.71430000000005,
                    "velocity": 0.2440944881889764,
                    "duration": 0.11904766666667399
                },
                {
                    "name": "E3",
                    "midi": 52,
                    "time": 35.833347666666725,
                    "velocity": 0.2440944881889764,
                    "duration": 0.11904766666666688
                },
                {
                    "name": "G#3",
                    "midi": 56,
                    "time": 35.95239533333339,
                    "velocity": 0.25984251968503935,
                    "duration": 0.11904766666666688
                },
                {
                    "name": "C4",
                    "midi": 60,
                    "time": 36.07144300000006,
                    "velocity": 0.25984251968503935,
                    "duration": 0.11904766666666688
                },
                {
                    "name": "G#3",
                    "midi": 56,
                    "time": 36.190490666666726,
                    "velocity": 0.25984251968503935,
                    "duration": 0.11904766666666688
                },
                {
                    "name": "E3",
                    "midi": 52,
                    "time": 36.30953833333339,
                    "velocity": 0.2677165354330709,
                    "duration": 0.11904766666666688
                },
                {
                    "name": "G#2",
                    "midi": 44,
                    "time": 36.42858600000006,
                    "velocity": 0.2755905511811024,
                    "duration": 0.11904766666666688
                },
                {
                    "name": "E3",
                    "midi": 52,
                    "time": 36.54763366666673,
                    "velocity": 0.2755905511811024,
                    "duration": 0.11904766666666688
                },
                {
                    "name": "G#3",
                    "midi": 56,
                    "time": 36.66668133333339,
                    "velocity": 0.29133858267716534,
                    "duration": 0.11904766666666688
                },
                {
                    "name": "C4",
                    "midi": 60,
                    "time": 36.78572900000006,
                    "velocity": 0.2992125984251969,
                    "duration": 0.11904766666666688
                },
                {
                    "name": "G#3",
                    "midi": 56,
                    "time": 36.90477666666673,
                    "velocity": 0.2992125984251969,
                    "duration": 0.11904766666666688
                },
                {
                    "name": "E3",
                    "midi": 52,
                    "time": 37.023824333333394,
                    "velocity": 0.30708661417322836,
                    "duration": 0.11904766666666688
                },
                {
                    "name": "C#2",
                    "midi": 37,
                    "time": 37.14287200000006,
                    "velocity": 0.3779527559055118,
                    "duration": 0.11904766666666688
                },
                {
                    "name": "G#3",
                    "midi": 56,
                    "time": 37.26191966666673,
                    "velocity": 0.2677165354330709,
                    "duration": 0.11904766666666688
                },
                {
                    "name": "C#4",
                    "midi": 61,
                    "time": 37.380967333333395,
                    "velocity": 0.2677165354330709,
                    "duration": 0.11904766666666688
                },
                {
                    "name": "F4",
                    "midi": 65,
                    "time": 37.50001500000006,
                    "velocity": 0.2677165354330709,
                    "duration": 0.11904766666666688
                },
                {
                    "name": "C#4",
                    "midi": 61,
                    "time": 37.61906266666673,
                    "velocity": 0.28346456692913385,
                    "duration": 0.11904766666666688
                },
                {
                    "name": "G#3",
                    "midi": 56,
                    "time": 37.738110333333395,
                    "velocity": 0.28346456692913385,
                    "duration": 0.11904766666666688
                },
                {
                    "name": "C#3",
                    "midi": 49,
                    "time": 37.85715800000006,
                    "velocity": 0.31496062992125984,
                    "duration": 0.11904766666666688
                },
                {
                    "name": "G#3",
                    "midi": 56,
                    "time": 37.97620566666673,
                    "velocity": 0.29133858267716534,
                    "duration": 0.11904766666666688
                },
                {
                    "name": "C#4",
                    "midi": 61,
                    "time": 38.095253333333396,
                    "velocity": 0.29133858267716534,
                    "duration": 0.11904766666666688
                },
                {
                    "name": "F4",
                    "midi": 65,
                    "time": 38.21430100000006,
                    "velocity": 0.29133858267716534,
                    "duration": 0.11904766666666688
                },
                {
                    "name": "C#4",
                    "midi": 61,
                    "time": 38.33334866666673,
                    "velocity": 0.29133858267716534,
                    "duration": 0.11904766666666688
                },
                {
                    "name": "G#3",
                    "midi": 56,
                    "time": 38.4523963333334,
                    "velocity": 0.2992125984251969,
                    "duration": 0.11904766666666688
                },
                {
                    "name": "C#3",
                    "midi": 49,
                    "time": 38.571444000000064,
                    "velocity": 0.2992125984251969,
                    "duration": 0.11904766666666688
                },
                {
                    "name": "G#3",
                    "midi": 56,
                    "time": 38.69049166666673,
                    "velocity": 0.2992125984251969,
                    "duration": 0.11904766666666688
                },
                {
                    "name": "C#4",
                    "midi": 61,
                    "time": 38.8095393333334,
                    "velocity": 0.30708661417322836,
                    "duration": 0.11904766666666688
                },
                {
                    "name": "F4",
                    "midi": 65,
                    "time": 38.928587000000064,
                    "velocity": 0.30708661417322836,
                    "duration": 0.11904766666666688
                },
                {
                    "name": "C#4",
                    "midi": 61,
                    "time": 39.04763466666673,
                    "velocity": 0.30708661417322836,
                    "duration": 0.11904766666666688
                },
                {
                    "name": "G#3",
                    "midi": 56,
                    "time": 39.1666823333334,
                    "velocity": 0.30708661417322836,
                    "duration": 0.11904766666666688
                },
                {
                    "name": "C#3",
                    "midi": 49,
                    "time": 39.285730000000065,
                    "velocity": 0.3228346456692913,
                    "duration": 0.11904766666666688
                },
                {
                    "name": "G3",
                    "midi": 55,
                    "time": 39.40477766666673,
                    "velocity": 0.31496062992125984,
                    "duration": 0.11904766666666688
                },
                {
                    "name": "C#4",
                    "midi": 61,
                    "time": 39.5238253333334,
                    "velocity": 0.31496062992125984,
                    "duration": 0.11904766666666688
                },
                {
                    "name": "F4",
                    "midi": 65,
                    "time": 39.642873000000066,
                    "velocity": 0.3228346456692913,
                    "duration": 0.11904766666666688
                },
                {
                    "name": "C#4",
                    "midi": 61,
                    "time": 39.76192066666673,
                    "velocity": 0.3228346456692913,
                    "duration": 0.11904766666666688
                },
                {
                    "name": "G3",
                    "midi": 55,
                    "time": 39.8809683333334,
                    "velocity": 0.3228346456692913,
                    "duration": 0.11904766666666688
                },
                {
                    "name": "C3",
                    "midi": 48,
                    "time": 40.000016000000066,
                    "velocity": 0.4330708661417323,
                    "duration": 0.11904766666666688
                },
                {
                    "name": "G3",
                    "midi": 55,
                    "time": 40.11906366666673,
                    "velocity": 0.33070866141732286,
                    "duration": 0.11904766666666688
                },
                {
                    "name": "C4",
                    "midi": 60,
                    "time": 40.2381113333334,
                    "velocity": 0.33070866141732286,
                    "duration": 0.11904766666666688
                },
                {
                    "name": "F4",
                    "midi": 65,
                    "time": 40.35715900000007,
                    "velocity": 0.3228346456692913,
                    "duration": 0.11904766666666688
                },
                {
                    "name": "C4",
                    "midi": 60,
                    "time": 40.476206666666734,
                    "velocity": 0.3228346456692913,
                    "duration": 0.11904766666666688
                },
                {
                    "name": "G3",
                    "midi": 55,
                    "time": 40.5952543333334,
                    "velocity": 0.30708661417322836,
                    "duration": 0.11904766666666688
                },
                {
                    "name": "C3",
                    "midi": 48,
                    "time": 40.71430200000007,
                    "velocity": 0.30708661417322836,
                    "duration": 0.11904766666666688
                },
                {
                    "name": "G3",
                    "midi": 55,
                    "time": 40.833349666666734,
                    "velocity": 0.2992125984251969,
                    "duration": 0.11904766666666688
                },
                {
                    "name": "C4",
                    "midi": 60,
                    "time": 40.9523973333334,
                    "velocity": 0.2992125984251969,
                    "duration": 0.11904766666666688
                },
                {
                    "name": "F4",
                    "midi": 65,
                    "time": 41.07144500000007,
                    "velocity": 0.2992125984251969,
                    "duration": 0.11904766666666688
                },
                {
                    "name": "C4",
                    "midi": 60,
                    "time": 41.190492666666735,
                    "velocity": 0.28346456692913385,
                    "duration": 0.11904766666666688
                },
                {
                    "name": "G3",
                    "midi": 55,
                    "time": 41.3095403333334,
                    "velocity": 0.28346456692913385,
                    "duration": 0.11904766666666688
                },
                {
                    "name": "C3",
                    "midi": 48,
                    "time": 41.42858800000007,
                    "velocity": 0.2755905511811024,
                    "duration": 0.11904766666665978
                },
                {
                    "name": "G3",
                    "midi": 55,
                    "time": 41.54763566666673,
                    "velocity": 0.2755905511811024,
                    "duration": 0.11904766666666688
                },
                {
                    "name": "C4",
                    "midi": 60,
                    "time": 41.666683333333395,
                    "velocity": 0.2677165354330709,
                    "duration": 0.11904766666666688
                },
                {
                    "name": "E4",
                    "midi": 64,
                    "time": 41.78573100000006,
                    "velocity": 0.2677165354330709,
                    "duration": 0.11904766666666688
                },
                {
                    "name": "C4",
                    "midi": 60,
                    "time": 41.90477866666673,
                    "velocity": 0.25984251968503935,
                    "duration": 0.11904766666666688
                },
                {
                    "name": "G3",
                    "midi": 55,
                    "time": 42.023826333333396,
                    "velocity": 0.2440944881889764,
                    "duration": 0.11904766666666688
                },
                {
                    "name": "C3",
                    "midi": 48,
                    "time": 42.14287400000006,
                    "velocity": 0.28346456692913385,
                    "duration": 0.11904766666666688
                },
                {
                    "name": "G3",
                    "midi": 55,
                    "time": 42.26192166666673,
                    "velocity": 0.2283464566929134,
                    "duration": 0.11904766666666688
                },
                {
                    "name": "C4",
                    "midi": 60,
                    "time": 42.3809693333334,
                    "velocity": 0.2283464566929134,
                    "duration": 0.11904766666666688
                },
                {
                    "name": "E4",
                    "midi": 64,
                    "time": 42.500017000000064,
                    "velocity": 0.2283464566929134,
                    "duration": 0.11904766666666688
                },
                {
                    "name": "C4",
                    "midi": 60,
                    "time": 42.61906466666673,
                    "velocity": 0.2204724409448819,
                    "duration": 0.11904766666666688
                },
                {
                    "name": "G3",
                    "midi": 55,
                    "time": 42.7381123333334,
                    "velocity": 0.2204724409448819,
                    "duration": 0.11904766666666688
                },
                {
                    "name": "G2",
                    "midi": 43,
                    "time": 42.857160000000064,
                    "velocity": 0.3228346456692913,
                    "duration": 0.11904766666665978
                },
                {
                    "name": "D3",
                    "midi": 50,
                    "time": 42.976207666666724,
                    "velocity": 0.1968503937007874,
                    "duration": 0.11904766666666688
                },
                {
                    "name": "G3",
                    "midi": 55,
                    "time": 43.09525533333339,
                    "velocity": 0.1968503937007874,
                    "duration": 0.11904766666666688
                },
                {
                    "name": "B3",
                    "midi": 59,
                    "time": 43.21430300000006,
                    "velocity": 0.2047244094488189,
                    "duration": 0.11904766666666688
                },
                {
                    "name": "G3",
                    "midi": 55,
                    "time": 43.333350666666725,
                    "velocity": 0.2047244094488189,
                    "duration": 0.11904766666666688
                },
                {
                    "name": "D3",
                    "midi": 50,
                    "time": 43.45239833333339,
                    "velocity": 0.2047244094488189,
                    "duration": 0.11904766666666688
                },
                {
                    "name": "G2",
                    "midi": 43,
                    "time": 43.57144600000006,
                    "velocity": 0.2204724409448819,
                    "duration": 0.11904766666666688
                },
                {
                    "name": "D3",
                    "midi": 50,
                    "time": 43.690493666666725,
                    "velocity": 0.2047244094488189,
                    "duration": 0.11904766666666688
                },
                {
                    "name": "G3",
                    "midi": 55,
                    "time": 43.80954133333339,
                    "velocity": 0.2047244094488189,
                    "duration": 0.11904766666666688
                },
                {
                    "name": "B3",
                    "midi": 59,
                    "time": 43.92858900000006,
                    "velocity": 0.2125984251968504,
                    "duration": 0.11904766666666688
                },
                {
                    "name": "G3",
                    "midi": 55,
                    "time": 44.047636666666726,
                    "velocity": 0.2125984251968504,
                    "duration": 0.11904766666666688
                },
                {
                    "name": "D3",
                    "midi": 50,
                    "time": 44.16668433333339,
                    "velocity": 0.2125984251968504,
                    "duration": 0.11904766666666688
                },
                {
                    "name": "G2",
                    "midi": 43,
                    "time": 44.28573200000006,
                    "velocity": 0.2125984251968504,
                    "duration": 0.11904766666666688
                },
                {
                    "name": "D3",
                    "midi": 50,
                    "time": 44.40477966666673,
                    "velocity": 0.2125984251968504,
                    "duration": 0.11904766666666688
                },
                {
                    "name": "G3",
                    "midi": 55,
                    "time": 44.523827333333394,
                    "velocity": 0.2125984251968504,
                    "duration": 0.11904766666666688
                },
                {
                    "name": "D4",
                    "midi": 62,
                    "time": 44.64287500000006,
                    "velocity": 0.2125984251968504,
                    "duration": 0.11904766666666688
                },
                {
                    "name": "G3",
                    "midi": 55,
                    "time": 44.76192266666673,
                    "velocity": 0.2125984251968504,
                    "duration": 0.11904766666666688
                },
                {
                    "name": "D3",
                    "midi": 50,
                    "time": 44.880970333333394,
                    "velocity": 0.2125984251968504,
                    "duration": 0.11904766666666688
                },
                {
                    "name": "G2",
                    "midi": 43,
                    "time": 45.00001800000006,
                    "velocity": 0.2125984251968504,
                    "duration": 0.11904766666666688
                },
                {
                    "name": "D3",
                    "midi": 50,
                    "time": 45.11906566666673,
                    "velocity": 0.2204724409448819,
                    "duration": 0.11904766666666688
                },
                {
                    "name": "G3",
                    "midi": 55,
                    "time": 45.238113333333395,
                    "velocity": 0.2204724409448819,
                    "duration": 0.11904766666666688
                },
                {
                    "name": "D4",
                    "midi": 62,
                    "time": 45.35716100000006,
                    "velocity": 0.2047244094488189,
                    "duration": 0.11904766666666688
                },
                {
                    "name": "G3",
                    "midi": 55,
                    "time": 45.47620866666673,
                    "velocity": 0.2047244094488189,
                    "duration": 0.11904766666666688
                },
                {
                    "name": "D3",
                    "midi": 50,
                    "time": 45.595256333333396,
                    "velocity": 0.2047244094488189,
                    "duration": 0.11904766666666688
                },
                {
                    "name": "C2",
                    "midi": 36,
                    "time": 45.71430400000006,
                    "velocity": 0.3464566929133858,
                    "duration": 0.11904766666666688
                },
                {
                    "name": "G2",
                    "midi": 43,
                    "time": 45.83335166666673,
                    "velocity": 0.18110236220472442,
                    "duration": 0.11904766666666688
                },
                {
                    "name": "C3",
                    "midi": 48,
                    "time": 45.952399333333396,
                    "velocity": 0.1968503937007874,
                    "duration": 0.11904766666666688
                },
                {
                    "name": "G3",
                    "midi": 55,
                    "time": 46.07144700000006,
                    "velocity": 0.1968503937007874,
                    "duration": 0.11904766666666688
                },
                {
                    "name": "C3",
                    "midi": 48,
                    "time": 46.19049466666673,
                    "velocity": 0.2047244094488189,
                    "duration": 0.11904766666666688
                },
                {
                    "name": "G2",
                    "midi": 43,
                    "time": 46.3095423333334,
                    "velocity": 0.2047244094488189,
                    "duration": 0.11904766666666688
                },
                {
                    "name": "C2",
                    "midi": 36,
                    "time": 46.428590000000064,
                    "velocity": 0.1889763779527559,
                    "duration": 0.11904766666666688
                },
                {
                    "name": "G2",
                    "midi": 43,
                    "time": 46.54763766666673,
                    "velocity": 0.1889763779527559,
                    "duration": 0.11904766666666688
                },
                {
                    "name": "C3",
                    "midi": 48,
                    "time": 46.6666853333334,
                    "velocity": 0.1889763779527559,
                    "duration": 0.11904766666666688
                },
                {
                    "name": "G3",
                    "midi": 55,
                    "time": 46.785733000000064,
                    "velocity": 0.1968503937007874,
                    "duration": 0.11904766666666688
                },
                {
                    "name": "C3",
                    "midi": 48,
                    "time": 46.90478066666673,
                    "velocity": 0.1968503937007874,
                    "duration": 0.11904766666666688
                },
                {
                    "name": "G2",
                    "midi": 43,
                    "time": 47.0238283333334,
                    "velocity": 0.1968503937007874,
                    "duration": 0.11904766666666688
                },
                {
                    "name": "C2",
                    "midi": 36,
                    "time": 47.142876000000065,
                    "velocity": 0.2047244094488189,
                    "duration": 0.11904766666666688
                },
                {
                    "name": "G2",
                    "midi": 43,
                    "time": 47.26192366666673,
                    "velocity": 0.2047244094488189,
                    "duration": 0.11904766666666688
                },
                {
                    "name": "C3",
                    "midi": 48,
                    "time": 47.3809713333334,
                    "velocity": 0.2047244094488189,
                    "duration": 0.11904766666666688
                },
                {
                    "name": "G3",
                    "midi": 55,
                    "time": 47.500019000000066,
                    "velocity": 0.2047244094488189,
                    "duration": 0.11904766666666688
                },
                {
                    "name": "C3",
                    "midi": 48,
                    "time": 47.61906666666673,
                    "velocity": 0.1968503937007874,
                    "duration": 0.11904766666666688
                },
                {
                    "name": "G2",
                    "midi": 43,
                    "time": 47.7381143333334,
                    "velocity": 0.1889763779527559,
                    "duration": 0.11904766666666688
                },
                {
                    "name": "C2",
                    "midi": 36,
                    "time": 47.857162000000066,
                    "velocity": 0.1889763779527559,
                    "duration": 0.11904766666666688
                },
                {
                    "name": "G2",
                    "midi": 43,
                    "time": 47.97620966666673,
                    "velocity": 0.18110236220472442,
                    "duration": 0.11904766666666688
                },
                {
                    "name": "C3",
                    "midi": 48,
                    "time": 48.0952573333334,
                    "velocity": 0.1968503937007874,
                    "duration": 0.11904766666666688
                },
                {
                    "name": "G3",
                    "midi": 55,
                    "time": 48.21430500000007,
                    "velocity": 0.18110236220472442,
                    "duration": 0.17857149999999677
                },
                {
                    "name": "C3",
                    "midi": 48,
                    "time": 48.392876500000064,
                    "velocity": 0.14960629921259844,
                    "duration": 0.17857149999999677
                },
                {
                    "name": "E2",
                    "midi": 40,
                    "time": 48.57144800000006,
                    "velocity": 0.30708661417322836,
                    "duration": 0.17857150000000388
                },
                {
                    "name": "C3",
                    "midi": 48,
                    "time": 48.750019500000064,
                    "velocity": 0.1889763779527559,
                    "duration": 0.17857149999999677
                },
                {
                    "name": "A#3",
                    "midi": 58,
                    "time": 48.92859100000006,
                    "velocity": 0.25984251968503935,
                    "duration": 0.17857149999999677
                },
                {
                    "name": "C3",
                    "midi": 48,
                    "time": 49.10716250000006,
                    "velocity": 0.1889763779527559,
                    "duration": 0.17857149999999677
                },
                {
                    "name": "E2",
                    "midi": 40,
                    "time": 49.285734000000055,
                    "velocity": 0.2047244094488189,
                    "duration": 0.17857149999999677
                },
                {
                    "name": "C3",
                    "midi": 48,
                    "time": 49.46430550000005,
                    "velocity": 0.1889763779527559,
                    "duration": 0.17857149999999677
                },
                {
                    "name": "A#3",
                    "midi": 58,
                    "time": 49.64287700000005,
                    "velocity": 0.25984251968503935,
                    "duration": 0.17857149999999677
                },
                {
                    "name": "C3",
                    "midi": 48,
                    "time": 49.821448500000045,
                    "velocity": 0.1889763779527559,
                    "duration": 0.17857149999999677
                },
                {
                    "name": "E2",
                    "midi": 40,
                    "time": 50.00002000000004,
                    "velocity": 0.2125984251968504,
                    "duration": 0.17857150000000388
                },
                {
                    "name": "C3",
                    "midi": 48,
                    "time": 50.178591500000046,
                    "velocity": 0.1889763779527559,
                    "duration": 0.17857149999999677
                },
                {
                    "name": "A#3",
                    "midi": 58,
                    "time": 50.35716300000004,
                    "velocity": 0.25984251968503935,
                    "duration": 0.17857149999999677
                },
                {
                    "name": "C3",
                    "midi": 48,
                    "time": 50.53573450000004,
                    "velocity": 0.1889763779527559,
                    "duration": 0.17857149999999677
                },
                {
                    "name": "E2",
                    "midi": 40,
                    "time": 50.714306000000036,
                    "velocity": 0.2125984251968504,
                    "duration": 0.17857149999999677
                },
                {
                    "name": "C3",
                    "midi": 48,
                    "time": 50.89287750000003,
                    "velocity": 0.1889763779527559,
                    "duration": 0.17857149999999677
                },
                {
                    "name": "A#3",
                    "midi": 58,
                    "time": 51.07144900000003,
                    "velocity": 0.2755905511811024,
                    "duration": 0.17857149999999677
                },
                {
                    "name": "C3",
                    "midi": 48,
                    "time": 51.250020500000026,
                    "velocity": 0.1889763779527559,
                    "duration": 0.17857149999999677
                },
                {
                    "name": "F2",
                    "midi": 41,
                    "time": 51.42859200000002,
                    "velocity": 0.2677165354330709,
                    "duration": 0.17857150000000388
                },
                {
                    "name": "C3",
                    "midi": 48,
                    "time": 51.60716350000003,
                    "velocity": 0.2125984251968504,
                    "duration": 0.17857149999999677
                },
                {
                    "name": "A#3",
                    "midi": 58,
                    "time": 51.785735000000024,
                    "velocity": 0.28346456692913385,
                    "duration": 0.17857149999999677
                },
                {
                    "name": "C3",
                    "midi": 48,
                    "time": 51.96430650000002,
                    "velocity": 0.2125984251968504,
                    "duration": 0.17857149999999677
                },
                {
                    "name": "F2",
                    "midi": 41,
                    "time": 52.14287800000002,
                    "velocity": 0.23622047244094488,
                    "duration": 0.17857150000000388
                },
                {
                    "name": "C3",
                    "midi": 48,
                    "time": 52.32144950000002,
                    "velocity": 0.2204724409448819,
                    "duration": 0.17857149999999677
                },
                {
                    "name": "G#3",
                    "midi": 56,
                    "time": 52.50002100000002,
                    "velocity": 0.29133858267716534,
                    "duration": 0.17857149999999677
                },
                {
                    "name": "C3",
                    "midi": 48,
                    "time": 52.678592500000015,
                    "velocity": 0.2204724409448819,
                    "duration": 0.17857149999999677
                },
                {
                    "name": "F2",
                    "midi": 41,
                    "time": 52.85716400000001,
                    "velocity": 0.25984251968503935,
                    "duration": 0.17857150000000388
                },
                {
                    "name": "C3",
                    "midi": 48,
                    "time": 53.035735500000015,
                    "velocity": 0.2283464566929134,
                    "duration": 0.17857149999999677
                },
                {
                    "name": "G3",
                    "midi": 55,
                    "time": 53.21430700000001,
                    "velocity": 0.29133858267716534,
                    "duration": 0.17857149999999677
                },
                {
                    "name": "C3",
                    "midi": 48,
                    "time": 53.39287850000001,
                    "velocity": 0.2283464566929134,
                    "duration": 0.17857149999999677
                },
                {
                    "name": "F2",
                    "midi": 41,
                    "time": 53.571450000000006,
                    "velocity": 0.2677165354330709,
                    "duration": 0.17857150000000388
                },
                {
                    "name": "C3",
                    "midi": 48,
                    "time": 53.75002150000001,
                    "velocity": 0.23622047244094488,
                    "duration": 0.17857149999999677
                },
                {
                    "name": "F3",
                    "midi": 53,
                    "time": 53.928593000000006,
                    "velocity": 0.30708661417322836,
                    "duration": 0.17857149999999677
                },
                {
                    "name": "C3",
                    "midi": 48,
                    "time": 54.1071645,
                    "velocity": 0.23622047244094488,
                    "duration": 0.17857149999999677
                },
                {
                    "name": "G2",
                    "midi": 43,
                    "time": 54.285736,
                    "velocity": 0.33070866141732286,
                    "duration": 0.17857150000000388
                },
                {
                    "name": "D#3",
                    "midi": 51,
                    "time": 54.464307500000004,
                    "velocity": 0.23622047244094488,
                    "duration": 0.17857149999999677
                },
                {
                    "name": "C#4",
                    "midi": 61,
                    "time": 54.642879,
                    "velocity": 0.31496062992125984,
                    "duration": 0.17857149999999677
                },
                {
                    "name": "D#3",
                    "midi": 51,
                    "time": 54.8214505,
                    "velocity": 0.23622047244094488,
                    "duration": 0.17857149999999677
                },
                {
                    "name": "G2",
                    "midi": 43,
                    "time": 55.000021999999994,
                    "velocity": 0.2755905511811024,
                    "duration": 0.17857149999999677
                },
                {
                    "name": "D#3",
                    "midi": 51,
                    "time": 55.17859349999999,
                    "velocity": 0.2440944881889764,
                    "duration": 0.17857149999999677
                },
                {
                    "name": "C#4",
                    "midi": 61,
                    "time": 55.35716499999999,
                    "velocity": 0.33070866141732286,
                    "duration": 0.17857149999999677
                },
                {
                    "name": "D#3",
                    "midi": 51,
                    "time": 55.535736499999985,
                    "velocity": 0.25984251968503935,
                    "duration": 0.17857149999999677
                },
                {
                    "name": "G2",
                    "midi": 43,
                    "time": 55.71430799999998,
                    "velocity": 0.2992125984251969,
                    "duration": 0.17857150000000388
                },
                {
                    "name": "D#3",
                    "midi": 51,
                    "time": 55.892879499999985,
                    "velocity": 0.2677165354330709,
                    "duration": 0.17857149999999677
                },
                {
                    "name": "C#4",
                    "midi": 61,
                    "time": 56.07145099999998,
                    "velocity": 0.3464566929133858,
                    "duration": 0.17857149999999677
                },
                {
                    "name": "D#3",
                    "midi": 51,
                    "time": 56.25002249999998,
                    "velocity": 0.2677165354330709,
                    "duration": 0.17857149999999677
                },
                {
                    "name": "G2",
                    "midi": 43,
                    "time": 56.428593999999975,
                    "velocity": 0.2755905511811024,
                    "duration": 0.17857150000000388
                },
                {
                    "name": "D#3",
                    "midi": 51,
                    "time": 56.60716549999998,
                    "velocity": 0.23622047244094488,
                    "duration": 0.17857149999999677
                },
                {
                    "name": "C#4",
                    "midi": 61,
                    "time": 56.785736999999976,
                    "velocity": 0.30708661417322836,
                    "duration": 0.17857149999999677
                },
                {
                    "name": "D#3",
                    "midi": 51,
                    "time": 56.96430849999997,
                    "velocity": 0.23622047244094488,
                    "duration": 0.17857149999999677
                },
                {
                    "name": "G#2",
                    "midi": 44,
                    "time": 57.14287999999997,
                    "velocity": 0.2992125984251969,
                    "duration": 0.17857149999999677
                },
                {
                    "name": "D#3",
                    "midi": 51,
                    "time": 57.32145149999997,
                    "velocity": 0.23622047244094488,
                    "duration": 0.17857149999999677
                },
                {
                    "name": "C#4",
                    "midi": 61,
                    "time": 57.50002299999996,
                    "velocity": 0.31496062992125984,
                    "duration": 0.17857149999999677
                },
                {
                    "name": "D#3",
                    "midi": 51,
                    "time": 57.67859449999996,
                    "velocity": 0.2440944881889764,
                    "duration": 0.17857149999999677
                },
                {
                    "name": "G#2",
                    "midi": 44,
                    "time": 57.85716599999996,
                    "velocity": 0.2755905511811024,
                    "duration": 0.17857150000000388
                },
                {
                    "name": "D#3",
                    "midi": 51,
                    "time": 58.03573749999996,
                    "velocity": 0.2440944881889764,
                    "duration": 0.17857149999999677
                },
                {
                    "name": "C4",
                    "midi": 60,
                    "time": 58.21430899999996,
                    "velocity": 0.31496062992125984,
                    "duration": 0.17857149999999677
                },
                {
                    "name": "D#3",
                    "midi": 51,
                    "time": 58.392880499999954,
                    "velocity": 0.25984251968503935,
                    "duration": 0.17857149999999677
                },
                {
                    "name": "G#2",
                    "midi": 44,
                    "time": 58.57145199999995,
                    "velocity": 0.2992125984251969,
                    "duration": 0.17857149999999677
                },
                {
                    "name": "D#3",
                    "midi": 51,
                    "time": 58.75002349999995,
                    "velocity": 0.2677165354330709,
                    "duration": 0.17857149999999677
                },
                {
                    "name": "A#3",
                    "midi": 58,
                    "time": 58.928594999999945,
                    "velocity": 0.33070866141732286,
                    "duration": 0.17857149999999677
                },
                {
                    "name": "D#3",
                    "midi": 51,
                    "time": 59.10716649999994,
                    "velocity": 0.2755905511811024,
                    "duration": 0.17857149999999677
                },
                {
                    "name": "G#2",
                    "midi": 44,
                    "time": 59.28573799999994,
                    "velocity": 0.31496062992125984,
                    "duration": 0.17857150000000388
                },
                {
                    "name": "D#3",
                    "midi": 51,
                    "time": 59.46430949999994,
                    "velocity": 0.28346456692913385,
                    "duration": 0.17857149999999677
                },
                {
                    "name": "G#3",
                    "midi": 56,
                    "time": 59.64288099999994,
                    "velocity": 0.3543307086614173,
                    "duration": 0.17857149999999677
                },
                {
                    "name": "D#3",
                    "midi": 51,
                    "time": 59.821452499999936,
                    "velocity": 0.29133858267716534,
                    "duration": 0.17857149999999677
                },
                {
                    "name": "D#2",
                    "midi": 39,
                    "time": 60.00002399999993,
                    "velocity": 0.3700787401574803,
                    "duration": 0.17857150000000388
                },
                {
                    "name": "G3",
                    "midi": 55,
                    "time": 60.178595499999936,
                    "velocity": 0.2992125984251969,
                    "duration": 0.17857149999999677
                },
                {
                    "name": "C4",
                    "midi": 60,
                    "time": 60.35716699999993,
                    "velocity": 0.30708661417322836,
                    "duration": 0.17857149999999677
                },
                {
                    "name": "G3",
                    "midi": 55,
                    "time": 60.53573849999993,
                    "velocity": 0.2992125984251969,
                    "duration": 0.17857149999999677
                },
                {
                    "name": "C3",
                    "midi": 48,
                    "time": 60.71430999999993,
                    "velocity": 0.3228346456692913,
                    "duration": 0.17857149999999677
                },
                {
                    "name": "G3",
                    "midi": 55,
                    "time": 60.89288149999992,
                    "velocity": 0.2992125984251969,
                    "duration": 0.17857149999999677
                },
                {
                    "name": "C4",
                    "midi": 60,
                    "time": 61.07145299999992,
                    "velocity": 0.3464566929133858,
                    "duration": 0.17857149999999677
                },
                {
                    "name": "G3",
                    "midi": 55,
                    "time": 61.25002449999992,
                    "velocity": 0.2992125984251969,
                    "duration": 0.17857149999999677
                },
                {
                    "name": "F2",
                    "midi": 41,
                    "time": 61.428595999999914,
                    "velocity": 0.4015748031496063,
                    "duration": 0.17857149999999677
                },
                {
                    "name": "D3",
                    "midi": 50,
                    "time": 61.60716749999991,
                    "velocity": 0.2677165354330709,
                    "duration": 0.17857149999999677
                },
                {
                    "name": "C4",
                    "midi": 60,
                    "time": 61.78573899999991,
                    "velocity": 0.2755905511811024,
                    "duration": 0.17857149999999677
                },
                {
                    "name": "D3",
                    "midi": 50,
                    "time": 61.964310499999904,
                    "velocity": 0.23622047244094488,
                    "duration": 0.17857149999999677
                },
                {
                    "name": "G2",
                    "midi": 43,
                    "time": 62.1428819999999,
                    "velocity": 0.30708661417322836,
                    "duration": 0.17857149999999677
                },
                {
                    "name": "D3",
                    "midi": 50,
                    "time": 62.3214534999999,
                    "velocity": 0.23622047244094488,
                    "duration": 0.17857149999999677
                },
                {
                    "name": "B3",
                    "midi": 59,
                    "time": 62.500024999999894,
                    "velocity": 0.2755905511811024,
                    "duration": 0.11904766666666688
                },
                {
                    "name": "G3",
                    "midi": 55,
                    "time": 62.61907266666656,
                    "velocity": 0.23622047244094488,
                    "duration": 0.11904766666666688
                },
                {
                    "name": "D3",
                    "midi": 50,
                    "time": 62.73812033333323,
                    "velocity": 0.23622047244094488,
                    "duration": 0.11904766666666688
                },
                {
                    "name": "C3",
                    "midi": 48,
                    "time": 62.857167999999895,
                    "velocity": 0.29133858267716534,
                    "duration": 0.11904766666666688
                },
                {
                    "name": "E3",
                    "midi": 52,
                    "time": 62.97621566666656,
                    "velocity": 0.2047244094488189,
                    "duration": 0.11904766666666688
                },
                {
                    "name": "G3",
                    "midi": 55,
                    "time": 63.09526333333323,
                    "velocity": 0.1968503937007874,
                    "duration": 0.11904766666666688
                },
                {
                    "name": "C4",
                    "midi": 60,
                    "time": 63.214310999999896,
                    "velocity": 0.1968503937007874,
                    "duration": 0.11904766666666688
                },
                {
                    "name": "G3",
                    "midi": 55,
                    "time": 63.33335866666656,
                    "velocity": 0.2047244094488189,
                    "duration": 0.11904766666666688
                },
                {
                    "name": "E3",
                    "midi": 52,
                    "time": 63.45240633333323,
                    "velocity": 0.2047244094488189,
                    "duration": 0.11904766666666688
                },
                {
                    "name": "C3",
                    "midi": 48,
                    "time": 63.571453999999896,
                    "velocity": 0.2125984251968504,
                    "duration": 0.11904766666666688
                },
                {
                    "name": "F3",
                    "midi": 53,
                    "time": 63.69050166666656,
                    "velocity": 0.2125984251968504,
                    "duration": 0.11904766666666688
                },
                {
                    "name": "G#3",
                    "midi": 56,
                    "time": 63.80954933333323,
                    "velocity": 0.2204724409448819,
                    "duration": 0.11904766666666688
                },
                {
                    "name": "B3",
                    "midi": 59,
                    "time": 63.9285969999999,
                    "velocity": 0.2204724409448819,
                    "duration": 0.11904766666665978
                },
                {
                    "name": "G#3",
                    "midi": 56,
                    "time": 64.04764466666656,
                    "velocity": 0.2283464566929134,
                    "duration": 0.11904766666665978
                },
                {
                    "name": "F3",
                    "midi": 53,
                    "time": 64.16669233333322,
                    "velocity": 0.2283464566929134,
                    "duration": 0.11904766666665978
                },
                {
                    "name": "C3",
                    "midi": 48,
                    "time": 64.28573999999988,
                    "velocity": 0.2440944881889764,
                    "duration": 0.11904766666665978
                },
                {
                    "name": "F3",
                    "midi": 53,
                    "time": 64.40478766666654,
                    "velocity": 0.2440944881889764,
                    "duration": 0.11904766666665978
                },
                {
                    "name": "G#3",
                    "midi": 56,
                    "time": 64.5238353333332,
                    "velocity": 0.2440944881889764,
                    "duration": 0.11904766666665978
                },
                {
                    "name": "D4",
                    "midi": 62,
                    "time": 64.64288299999986,
                    "velocity": 0.23622047244094488,
                    "duration": 0.11904766666665978
                },
                {
                    "name": "G#3",
                    "midi": 56,
                    "time": 64.76193066666652,
                    "velocity": 0.2283464566929134,
                    "duration": 0.11904766666665978
                },
                {
                    "name": "F3",
                    "midi": 53,
                    "time": 64.88097833333318,
                    "velocity": 0.2283464566929134,
                    "duration": 0.11904766666665978
                },
                {
                    "name": "C3",
                    "midi": 48,
                    "time": 65.00002599999983,
                    "velocity": 0.2125984251968504,
                    "duration": 0.11904766666665978
                },
                {
                    "name": "E3",
                    "midi": 52,
                    "time": 65.1190736666665,
                    "velocity": 0.2047244094488189,
                    "duration": 0.11904766666665978
                },
                {
                    "name": "G#3",
                    "midi": 56,
                    "time": 65.23812133333315,
                    "velocity": 0.2047244094488189,
                    "duration": 0.11904766666665978
                },
                {
                    "name": "D4",
                    "midi": 62,
                    "time": 65.35716899999981,
                    "velocity": 0.1889763779527559,
                    "duration": 0.11904766666665978
                },
                {
                    "name": "G#3",
                    "midi": 56,
                    "time": 65.47621666666647,
                    "velocity": 0.1889763779527559,
                    "duration": 0.11904766666665978
                },
                {
                    "name": "E3",
                    "midi": 52,
                    "time": 65.59526433333313,
                    "velocity": 0.2204724409448819,
                    "duration": 0.11904766666665978
                },
                {
                    "name": "C3",
                    "midi": 48,
                    "time": 65.7143119999998,
                    "velocity": 0.25984251968503935,
                    "duration": 0.11904766666665978
                },
                {
                    "name": "E3",
                    "midi": 52,
                    "time": 65.83335966666645,
                    "velocity": 0.2047244094488189,
                    "duration": 0.11904766666665978
                },
                {
                    "name": "G3",
                    "midi": 55,
                    "time": 65.95240733333311,
                    "velocity": 0.2125984251968504,
                    "duration": 0.11904766666665978
                },
                {
                    "name": "C4",
                    "midi": 60,
                    "time": 66.07145499999977,
                    "velocity": 0.2125984251968504,
                    "duration": 0.11904766666665978
                },
                {
                    "name": "G3",
                    "midi": 55,
                    "time": 66.19050266666643,
                    "velocity": 0.2204724409448819,
                    "duration": 0.11904766666665978
                },
                {
                    "name": "E3",
                    "midi": 52,
                    "time": 66.30955033333309,
                    "velocity": 0.2204724409448819,
                    "duration": 0.11904766666665978
                },
                {
                    "name": "B2",
                    "midi": 47,
                    "time": 66.42859799999975,
                    "velocity": 0.28346456692913385,
                    "duration": 0.11904766666667399
                },
                {
                    "name": "F3",
                    "midi": 53,
                    "time": 66.54764566666643,
                    "velocity": 0.23622047244094488,
                    "duration": 0.11904766666665978
                },
                {
                    "name": "G#3",
                    "midi": 56,
                    "time": 66.66669333333309,
                    "velocity": 0.23622047244094488,
                    "duration": 0.11904766666665978
                },
                {
                    "name": "B3",
                    "midi": 59,
                    "time": 66.78574099999975,
                    "velocity": 0.2440944881889764,
                    "duration": 0.11904766666665978
                },
                {
                    "name": "G#3",
                    "midi": 56,
                    "time": 66.9047886666664,
                    "velocity": 0.2440944881889764,
                    "duration": 0.11904766666665978
                },
                {
                    "name": "F3",
                    "midi": 53,
                    "time": 67.02383633333307,
                    "velocity": 0.25984251968503935,
                    "duration": 0.11904766666665978
                },
                {
                    "name": "B2",
                    "midi": 47,
                    "time": 67.14288399999973,
                    "velocity": 0.2677165354330709,
                    "duration": 0.11904766666665978
                },
                {
                    "name": "F3",
                    "midi": 53,
                    "time": 67.26193166666638,
                    "velocity": 0.2677165354330709,
                    "duration": 0.11904766666665978
                },
                {
                    "name": "G#3",
                    "midi": 56,
                    "time": 67.38097933333304,
                    "velocity": 0.25984251968503935,
                    "duration": 0.11904766666665978
                },
                {
                    "name": "D4",
                    "midi": 62,
                    "time": 67.5000269999997,
                    "velocity": 0.25984251968503935,
                    "duration": 0.11904766666665978
                },
                {
                    "name": "G#3",
                    "midi": 56,
                    "time": 67.61907466666636,
                    "velocity": 0.2440944881889764,
                    "duration": 0.11904766666665978
                },
                {
                    "name": "F3",
                    "midi": 53,
                    "time": 67.73812233333302,
                    "velocity": 0.23622047244094488,
                    "duration": 0.11904766666665978
                },
                {
                    "name": "B2",
                    "midi": 47,
                    "time": 67.85716999999968,
                    "velocity": 0.23622047244094488,
                    "duration": 0.11904766666665978
                },
                {
                    "name": "E3",
                    "midi": 52,
                    "time": 67.97621766666634,
                    "velocity": 0.2283464566929134,
                    "duration": 0.11904766666665978
                },
                {
                    "name": "G#3",
                    "midi": 56,
                    "time": 68.095265333333,
                    "velocity": 0.2204724409448819,
                    "duration": 0.11904766666665978
                },
                {
                    "name": "D4",
                    "midi": 62,
                    "time": 68.21431299999966,
                    "velocity": 0.2204724409448819,
                    "duration": 0.11904766666665978
                },
                {
                    "name": "G#3",
                    "midi": 56,
                    "time": 68.33336066666632,
                    "velocity": 0.2125984251968504,
                    "duration": 0.11904766666665978
                },
                {
                    "name": "E3",
                    "midi": 52,
                    "time": 68.45240833333298,
                    "velocity": 0.2204724409448819,
                    "duration": 0.11904766666665978
                },
                {
                    "name": "A2",
                    "midi": 45,
                    "time": 68.57145599999964,
                    "velocity": 0.2755905511811024,
                    "duration": 0.11904766666665978
                },
                {
                    "name": "E3",
                    "midi": 52,
                    "time": 68.6905036666663,
                    "velocity": 0.2047244094488189,
                    "duration": 0.11904766666665978
                },
                {
                    "name": "A3",
                    "midi": 57,
                    "time": 68.80955133333296,
                    "velocity": 0.2125984251968504,
                    "duration": 0.11904766666665978
                },
                {
                    "name": "C#4",
                    "midi": 61,
                    "time": 68.92859899999962,
                    "velocity": 0.2125984251968504,
                    "duration": 0.11904766666665978
                },
                {
                    "name": "A3",
                    "midi": 57,
                    "time": 69.04764666666628,
                    "velocity": 0.2204724409448819,
                    "duration": 0.11904766666665978
                },
                {
                    "name": "E3",
                    "midi": 52,
                    "time": 69.16669433333294,
                    "velocity": 0.2204724409448819,
                    "duration": 0.11904766666665978
                },
                {
                    "name": "A2",
                    "midi": 45,
                    "time": 69.2857419999996,
                    "velocity": 0.2283464566929134,
                    "duration": 0.11904766666667399
                },
                {
                    "name": "F#3",
                    "midi": 54,
                    "time": 69.40478966666628,
                    "velocity": 0.23622047244094488,
                    "duration": 0.11904766666665978
                },
                {
                    "name": "A3",
                    "midi": 57,
                    "time": 69.52383733333293,
                    "velocity": 0.23622047244094488,
                    "duration": 0.11904766666665978
                },
                {
                    "name": "B3",
                    "midi": 59,
                    "time": 69.6428849999996,
                    "velocity": 0.2440944881889764,
                    "duration": 0.11904766666665978
                },
                {
                    "name": "A3",
                    "midi": 57,
                    "time": 69.76193266666625,
                    "velocity": 0.2440944881889764,
                    "duration": 0.11904766666665978
                },
                {
                    "name": "F#3",
                    "midi": 54,
                    "time": 69.88098033333291,
                    "velocity": 0.25984251968503935,
                    "duration": 0.11904766666665978
                },
                {
                    "name": "A2",
                    "midi": 45,
                    "time": 70.00002799999957,
                    "velocity": 0.2677165354330709,
                    "duration": 0.11904766666665978
                },
                {
                    "name": "F#3",
                    "midi": 54,
                    "time": 70.11907566666623,
                    "velocity": 0.2677165354330709,
                    "duration": 0.11904766666665978
                },
                {
                    "name": "A3",
                    "midi": 57,
                    "time": 70.2381233333329,
                    "velocity": 0.25984251968503935,
                    "duration": 0.11904766666665978
                },
                {
                    "name": "D4",
                    "midi": 62,
                    "time": 70.35717099999955,
                    "velocity": 0.25984251968503935,
                    "duration": 0.11904766666665978
                },
                {
                    "name": "A3",
                    "midi": 57,
                    "time": 70.47621866666621,
                    "velocity": 0.2440944881889764,
                    "duration": 0.11904766666665978
                },
                {
                    "name": "F#3",
                    "midi": 54,
                    "time": 70.59526633333287,
                    "velocity": 0.23622047244094488,
                    "duration": 0.11904766666665978
                },
                {
                    "name": "A2",
                    "midi": 45,
                    "time": 70.71431399999953,
                    "velocity": 0.23622047244094488,
                    "duration": 0.11904766666665978
                },
                {
                    "name": "E3",
                    "midi": 52,
                    "time": 70.83336166666619,
                    "velocity": 0.2283464566929134,
                    "duration": 0.11904766666665978
                },
                {
                    "name": "G#3",
                    "midi": 56,
                    "time": 70.95240933333285,
                    "velocity": 0.2204724409448819,
                    "duration": 0.11904766666665978
                },
                {
                    "name": "D4",
                    "midi": 62,
                    "time": 71.07145699999951,
                    "velocity": 0.2204724409448819,
                    "duration": 0.11904766666665978
                },
                {
                    "name": "G#3",
                    "midi": 56,
                    "time": 71.19050466666617,
                    "velocity": 0.2125984251968504,
                    "duration": 0.11904766666665978
                },
                {
                    "name": "E3",
                    "midi": 52,
                    "time": 71.30955233333283,
                    "velocity": 0.2204724409448819,
                    "duration": 0.11904766666665978
                },
                {
                    "name": "A2",
                    "midi": 45,
                    "time": 71.42859999999949,
                    "velocity": 0.29133858267716534,
                    "duration": 0.11904766666665978
                },
                {
                    "name": "E3",
                    "midi": 52,
                    "time": 71.54764766666615,
                    "velocity": 0.23622047244094488,
                    "duration": 0.11904766666665978
                },
                {
                    "name": "A3",
                    "midi": 57,
                    "time": 71.66669533333281,
                    "velocity": 0.2440944881889764,
                    "duration": 0.11904766666665978
                },
                {
                    "name": "C#4",
                    "midi": 61,
                    "time": 71.78574299999947,
                    "velocity": 0.2440944881889764,
                    "duration": 0.11904766666665978
                },
                {
                    "name": "A3",
                    "midi": 57,
                    "time": 71.90479066666613,
                    "velocity": 0.2677165354330709,
                    "duration": 0.11904766666665978
                },
                {
                    "name": "E3",
                    "midi": 52,
                    "time": 72.02383833333279,
                    "velocity": 0.2677165354330709,
                    "duration": 0.11904766666665978
                },
                {
                    "name": "A2",
                    "midi": 45,
                    "time": 72.14288599999945,
                    "velocity": 0.2755905511811024,
                    "duration": 0.11904766666665978
                },
                {
                    "name": "E3",
                    "midi": 52,
                    "time": 72.26193366666611,
                    "velocity": 0.2755905511811024,
                    "duration": 0.11904766666665978
                },
                {
                    "name": "A3",
                    "midi": 57,
                    "time": 72.38098133333277,
                    "velocity": 0.28346456692913385,
                    "duration": 0.11904766666665978
                },
                {
                    "name": "C#4",
                    "midi": 61,
                    "time": 72.50002899999943,
                    "velocity": 0.28346456692913385,
                    "duration": 0.11904766666665978
                },
                {
                    "name": "A3",
                    "midi": 57,
                    "time": 72.61907666666609,
                    "velocity": 0.2992125984251969,
                    "duration": 0.11904766666665978
                },
                {
                    "name": "E3",
                    "midi": 52,
                    "time": 72.73812433333275,
                    "velocity": 0.2992125984251969,
                    "duration": 0.11904766666665978
                },
                {
                    "name": "A2",
                    "midi": 45,
                    "time": 72.85717199999941,
                    "velocity": 0.30708661417322836,
                    "duration": 0.11904766666667399
                },
                {
                    "name": "D#3",
                    "midi": 51,
                    "time": 72.97621966666608,
                    "velocity": 0.30708661417322836,
                    "duration": 0.11904766666665978
                },
                {
                    "name": "F#3",
                    "midi": 54,
                    "time": 73.09526733333274,
                    "velocity": 0.31496062992125984,
                    "duration": 0.11904766666665978
                },
                {
                    "name": "C4",
                    "midi": 60,
                    "time": 73.2143149999994,
                    "velocity": 0.31496062992125984,
                    "duration": 0.11904766666665978
                },
                {
                    "name": "F#3",
                    "midi": 54,
                    "time": 73.33336266666606,
                    "velocity": 0.33070866141732286,
                    "duration": 0.11904766666665978
                },
                {
                    "name": "D#3",
                    "midi": 51,
                    "time": 73.45241033333272,
                    "velocity": 0.33070866141732286,
                    "duration": 0.11904766666665978
                },
                {
                    "name": "A2",
                    "midi": 45,
                    "time": 73.57145799999938,
                    "velocity": 0.3464566929133858,
                    "duration": 0.11904766666667399
                },
                {
                    "name": "D#3",
                    "midi": 51,
                    "time": 73.69050566666606,
                    "velocity": 0.3464566929133858,
                    "duration": 0.11904766666665978
                },
                {
                    "name": "F#3",
                    "midi": 54,
                    "time": 73.80955333333272,
                    "velocity": 0.3543307086614173,
                    "duration": 0.11904766666665978
                },
                {
                    "name": "C4",
                    "midi": 60,
                    "time": 73.92860099999938,
                    "velocity": 0.3543307086614173,
                    "duration": 0.11904766666665978
                },
                {
                    "name": "F#3",
                    "midi": 54,
                    "time": 74.04764866666603,
                    "velocity": 0.36220472440944884,
                    "duration": 0.11904766666665978
                },
                {
                    "name": "D#3",
                    "midi": 51,
                    "time": 74.1666963333327,
                    "velocity": 0.36220472440944884,
                    "duration": 0.11904766666665978
                },
                {
                    "name": "C#2",
                    "midi": 37,
                    "time": 74.28574399999935,
                    "velocity": 0.4645669291338583,
                    "duration": 0.11904766666665978
                },
                {
                    "name": "G#3",
                    "midi": 56,
                    "time": 74.40479166666601,
                    "velocity": 0.3464566929133858,
                    "duration": 0.11904766666665978
                },
                {
                    "name": "A#3",
                    "midi": 58,
                    "time": 74.52383933333267,
                    "velocity": 0.3543307086614173,
                    "duration": 0.11904766666665978
                },
                {
                    "name": "C#4",
                    "midi": 61,
                    "time": 74.64288699999933,
                    "velocity": 0.3543307086614173,
                    "duration": 0.11904766666665978
                },
                {
                    "name": "A#3",
                    "midi": 58,
                    "time": 74.761934666666,
                    "velocity": 0.3543307086614173,
                    "duration": 0.11904766666665978
                },
                {
                    "name": "G#3",
                    "midi": 56,
                    "time": 74.88098233333265,
                    "velocity": 0.36220472440944884,
                    "duration": 0.11904766666665978
                },
                {
                    "name": "C#3",
                    "midi": 49,
                    "time": 75.00002999999931,
                    "velocity": 0.36220472440944884,
                    "duration": 0.11904766666667399
                },
                {
                    "name": "G#3",
                    "midi": 56,
                    "time": 75.11907766666599,
                    "velocity": 0.3779527559055118,
                    "duration": 0.11904766666665978
                },
                {
                    "name": "A#3",
                    "midi": 58,
                    "time": 75.23812533333265,
                    "velocity": 0.3779527559055118,
                    "duration": 0.11904766666665978
                },
                {
                    "name": "C#4",
                    "midi": 61,
                    "time": 75.3571729999993,
                    "velocity": 0.3858267716535433,
                    "duration": 0.11904766666665978
                },
                {
                    "name": "A#3",
                    "midi": 58,
                    "time": 75.47622066666597,
                    "velocity": 0.3858267716535433,
                    "duration": 0.11904766666665978
                },
                {
                    "name": "G#3",
                    "midi": 56,
                    "time": 75.59526833333263,
                    "velocity": 0.3858267716535433,
                    "duration": 0.11904766666665978
                },
                {
                    "name": "C#2",
                    "midi": 37,
                    "time": 75.71431599999929,
                    "velocity": 0.49606299212598426,
                    "duration": 0.11904766666665978
                },
                {
                    "name": "G#3",
                    "midi": 56,
                    "time": 75.83336366666595,
                    "velocity": 0.3937007874015748,
                    "duration": 0.11904766666665978
                },
                {
                    "name": "A#3",
                    "midi": 58,
                    "time": 75.9524113333326,
                    "velocity": 0.4094488188976378,
                    "duration": 0.11904766666665978
                },
                {
                    "name": "C#4",
                    "midi": 61,
                    "time": 76.07145899999927,
                    "velocity": 0.4094488188976378,
                    "duration": 0.11904766666665978
                },
                {
                    "name": "A#3",
                    "midi": 58,
                    "time": 76.19050666666593,
                    "velocity": 0.4094488188976378,
                    "duration": 0.11904766666665978
                },
                {
                    "name": "G#3",
                    "midi": 56,
                    "time": 76.30955433333258,
                    "velocity": 0.41732283464566927,
                    "duration": 0.11904766666665978
                },
                {
                    "name": "C#3",
                    "midi": 49,
                    "time": 76.42860199999924,
                    "velocity": 0.41732283464566927,
                    "duration": 0.11904766666665978
                },
                {
                    "name": "G#3",
                    "midi": 56,
                    "time": 76.5476496666659,
                    "velocity": 0.3858267716535433,
                    "duration": 0.11904766666665978
                },
                {
                    "name": "A#3",
                    "midi": 58,
                    "time": 76.66669733333256,
                    "velocity": 0.3779527559055118,
                    "duration": 0.11904766666665978
                },
                {
                    "name": "C#4",
                    "midi": 61,
                    "time": 76.78574499999922,
                    "velocity": 0.36220472440944884,
                    "duration": 0.11904766666665978
                },
                {
                    "name": "A#3",
                    "midi": 58,
                    "time": 76.90479266666588,
                    "velocity": 0.36220472440944884,
                    "duration": 0.11904766666665978
                },
                {
                    "name": "G#3",
                    "midi": 56,
                    "time": 77.02384033333254,
                    "velocity": 0.36220472440944884,
                    "duration": 0.11904766666665978
                },
                {
                    "name": "D#2",
                    "midi": 39,
                    "time": 77.1428879999992,
                    "velocity": 0.5275590551181102,
                    "duration": 0.11904766666665978
                },
                {
                    "name": "D#3",
                    "midi": 51,
                    "time": 77.26193566666586,
                    "velocity": 0.3464566929133858,
                    "duration": 0.11904766666665978
                },
                {
                    "name": "G#3",
                    "midi": 56,
                    "time": 77.38098333333252,
                    "velocity": 0.3543307086614173,
                    "duration": 0.11904766666665978
                },
                {
                    "name": "C4",
                    "midi": 60,
                    "time": 77.50003099999918,
                    "velocity": 0.3543307086614173,
                    "duration": 0.11904766666665978
                },
                {
                    "name": "G#3",
                    "midi": 56,
                    "time": 77.61907866666584,
                    "velocity": 0.3543307086614173,
                    "duration": 0.11904766666665978
                },
                {
                    "name": "D#3",
                    "midi": 51,
                    "time": 77.7381263333325,
                    "velocity": 0.36220472440944884,
                    "duration": 0.11904766666665978
                },
                {
                    "name": "C3",
                    "midi": 48,
                    "time": 77.85717399999916,
                    "velocity": 0.36220472440944884,
                    "duration": 0.11904766666665978
                },
                {
                    "name": "D#3",
                    "midi": 51,
                    "time": 77.97622166666582,
                    "velocity": 0.3779527559055118,
                    "duration": 0.11904766666665978
                },
                {
                    "name": "G#3",
                    "midi": 56,
                    "time": 78.09526933333248,
                    "velocity": 0.3779527559055118,
                    "duration": 0.11904766666665978
                },
                {
                    "name": "C4",
                    "midi": 60,
                    "time": 78.21431699999914,
                    "velocity": 0.3858267716535433,
                    "duration": 0.11904766666665978
                },
                {
                    "name": "G#3",
                    "midi": 56,
                    "time": 78.3333646666658,
                    "velocity": 0.3858267716535433,
                    "duration": 0.11904766666665978
                },
                {
                    "name": "D#3",
                    "midi": 51,
                    "time": 78.45241233333246,
                    "velocity": 0.3858267716535433,
                    "duration": 0.11904766666665978
                },
                {
                    "name": "D#2",
                    "midi": 39,
                    "time": 78.57145999999912,
                    "velocity": 0.5354330708661418,
                    "duration": 0.11904766666665978
                },
                {
                    "name": "D#3",
                    "midi": 51,
                    "time": 78.69050766666578,
                    "velocity": 0.3937007874015748,
                    "duration": 0.11904766666665978
                },
                {
                    "name": "G#3",
                    "midi": 56,
                    "time": 78.80955533333244,
                    "velocity": 0.4094488188976378,
                    "duration": 0.11904766666665978
                },
                {
                    "name": "C4",
                    "midi": 60,
                    "time": 78.9286029999991,
                    "velocity": 0.4094488188976378,
                    "duration": 0.11904766666665978
                },
                {
                    "name": "G#3",
                    "midi": 56,
                    "time": 79.04765066666576,
                    "velocity": 0.4094488188976378,
                    "duration": 0.11904766666665978
                },
                {
                    "name": "D#3",
                    "midi": 51,
                    "time": 79.16669833333242,
                    "velocity": 0.41732283464566927,
                    "duration": 0.11904766666665978
                },
                {
                    "name": "C3",
                    "midi": 48,
                    "time": 79.28574599999908,
                    "velocity": 0.41732283464566927,
                    "duration": 0.11904766666665978
                },
                {
                    "name": "D#3",
                    "midi": 51,
                    "time": 79.40479366666574,
                    "velocity": 0.3937007874015748,
                    "duration": 0.11904766666665978
                },
                {
                    "name": "G#3",
                    "midi": 56,
                    "time": 79.5238413333324,
                    "velocity": 0.3858267716535433,
                    "duration": 0.11904766666665978
                },
                {
                    "name": "C4",
                    "midi": 60,
                    "time": 79.64288899999906,
                    "velocity": 0.3858267716535433,
                    "duration": 0.11904766666665978
                },
                {
                    "name": "G#3",
                    "midi": 56,
                    "time": 79.76193666666572,
                    "velocity": 0.3858267716535433,
                    "duration": 0.11904766666665978
                },
                {
                    "name": "D#3",
                    "midi": 51,
                    "time": 79.88098433333238,
                    "velocity": 0.3858267716535433,
                    "duration": 0.11904766666665978
                },
                {
                    "name": "D#2",
                    "midi": 39,
                    "time": 80.00003199999904,
                    "velocity": 0.5275590551181102,
                    "duration": 0.11904766666665978
                },
                {
                    "name": "D#3",
                    "midi": 51,
                    "time": 80.1190796666657,
                    "velocity": 0.3464566929133858,
                    "duration": 0.11904766666665978
                },
                {
                    "name": "G3",
                    "midi": 55,
                    "time": 80.23812733333236,
                    "velocity": 0.3543307086614173,
                    "duration": 0.11904766666665978
                },
                {
                    "name": "D#4",
                    "midi": 63,
                    "time": 80.35717499999902,
                    "velocity": 0.3543307086614173,
                    "duration": 0.11904766666665978
                },
                {
                    "name": "G3",
                    "midi": 55,
                    "time": 80.47622266666568,
                    "velocity": 0.3543307086614173,
                    "duration": 0.11904766666665978
                },
                {
                    "name": "D#3",
                    "midi": 51,
                    "time": 80.59527033333234,
                    "velocity": 0.36220472440944884,
                    "duration": 0.11904766666665978
                },
                {
                    "name": "A#2",
                    "midi": 46,
                    "time": 80.714317999999,
                    "velocity": 0.36220472440944884,
                    "duration": 0.11904766666665978
                },
                {
                    "name": "D#3",
                    "midi": 51,
                    "time": 80.83336566666566,
                    "velocity": 0.3779527559055118,
                    "duration": 0.11904766666665978
                },
                {
                    "name": "G3",
                    "midi": 55,
                    "time": 80.95241333333232,
                    "velocity": 0.3779527559055118,
                    "duration": 0.11904766666665978
                },
                {
                    "name": "D#4",
                    "midi": 63,
                    "time": 81.07146099999898,
                    "velocity": 0.3858267716535433,
                    "duration": 0.11904766666665978
                },
                {
                    "name": "G3",
                    "midi": 55,
                    "time": 81.19050866666564,
                    "velocity": 0.3858267716535433,
                    "duration": 0.11904766666665978
                },
                {
                    "name": "D#3",
                    "midi": 51,
                    "time": 81.3095563333323,
                    "velocity": 0.3858267716535433,
                    "duration": 0.11904766666665978
                },
                {
                    "name": "D#2",
                    "midi": 39,
                    "time": 81.42860399999896,
                    "velocity": 0.5511811023622047,
                    "duration": 0.11904766666665978
                },
                {
                    "name": "D#3",
                    "midi": 51,
                    "time": 81.54765166666562,
                    "velocity": 0.3937007874015748,
                    "duration": 0.11904766666665978
                },
                {
                    "name": "G3",
                    "midi": 55,
                    "time": 81.66669933333228,
                    "velocity": 0.4094488188976378,
                    "duration": 0.11904766666665978
                },
                {
                    "name": "D#4",
                    "midi": 63,
                    "time": 81.78574699999893,
                    "velocity": 0.4094488188976378,
                    "duration": 0.11904766666665978
                },
                {
                    "name": "G3",
                    "midi": 55,
                    "time": 81.9047946666656,
                    "velocity": 0.4094488188976378,
                    "duration": 0.11904766666665978
                },
                {
                    "name": "D#3",
                    "midi": 51,
                    "time": 82.02384233333225,
                    "velocity": 0.41732283464566927,
                    "duration": 0.11904766666665978
                },
                {
                    "name": "A#2",
                    "midi": 46,
                    "time": 82.14288999999891,
                    "velocity": 0.41732283464566927,
                    "duration": 0.11904766666665978
                },
                {
                    "name": "D#3",
                    "midi": 51,
                    "time": 82.26193766666557,
                    "velocity": 0.3937007874015748,
                    "duration": 0.11904766666665978
                },
                {
                    "name": "G3",
                    "midi": 55,
                    "time": 82.38098533333223,
                    "velocity": 0.3858267716535433,
                    "duration": 0.11904766666665978
                },
                {
                    "name": "D#4",
                    "midi": 63,
                    "time": 82.5000329999989,
                    "velocity": 0.3858267716535433,
                    "duration": 0.11904766666665978
                },
                {
                    "name": "G3",
                    "midi": 55,
                    "time": 82.61908066666555,
                    "velocity": 0.3858267716535433,
                    "duration": 0.11904766666665978
                },
                {
                    "name": "D#3",
                    "midi": 51,
                    "time": 82.73812833333221,
                    "velocity": 0.3858267716535433,
                    "duration": 0.11904766666665978
                },
                {
                    "name": "F2",
                    "midi": 41,
                    "time": 82.85717599999887,
                    "velocity": 0.5433070866141733,
                    "duration": 0.17857150000000388
                },
                {
                    "name": "F3",
                    "midi": 53,
                    "time": 83.03574749999888,
                    "velocity": 0.31496062992125984,
                    "duration": 0.17857150000000388
                },
                {
                    "name": "G#3",
                    "midi": 56,
                    "time": 83.21431899999888,
                    "velocity": 0.31496062992125984,
                    "duration": 0.17857150000000388
                },
                {
                    "name": "F3",
                    "midi": 53,
                    "time": 83.39289049999888,
                    "velocity": 0.31496062992125984,
                    "duration": 0.17857150000000388
                },
                {
                    "name": "G#2",
                    "midi": 44,
                    "time": 83.57146199999889,
                    "velocity": 0.31496062992125984,
                    "duration": 0.17857150000000388
                },
                {
                    "name": "F3",
                    "midi": 53,
                    "time": 83.75003349999889,
                    "velocity": 0.31496062992125984,
                    "duration": 0.17857150000000388
                },
                {
                    "name": "G#3",
                    "midi": 56,
                    "time": 83.9286049999989,
                    "velocity": 0.30708661417322836,
                    "duration": 0.11904766666665978
                },
                {
                    "name": "F3",
                    "midi": 53,
                    "time": 84.04765266666556,
                    "velocity": 0.36220472440944884,
                    "duration": 0.11904766666665978
                },
                {
                    "name": "C3",
                    "midi": 48,
                    "time": 84.16670033333222,
                    "velocity": 0.30708661417322836,
                    "duration": 0.11904766666665978
                },
                {
                    "name": "F2",
                    "midi": 41,
                    "time": 84.28574799999888,
                    "velocity": 0.4566929133858268,
                    "duration": 0.17857150000000388
                },
                {
                    "name": "F3",
                    "midi": 53,
                    "time": 84.46431949999888,
                    "velocity": 0.30708661417322836,
                    "duration": 0.17857150000000388
                },
                {
                    "name": "A3",
                    "midi": 57,
                    "time": 84.64289099999888,
                    "velocity": 0.30708661417322836,
                    "duration": 0.17857150000000388
                },
                {
                    "name": "D#3",
                    "midi": 51,
                    "time": 84.82146249999889,
                    "velocity": 0.30708661417322836,
                    "duration": 0.17857150000000388
                },
                {
                    "name": "C3",
                    "midi": 48,
                    "time": 85.00003399999889,
                    "velocity": 0.3464566929133858,
                    "duration": 0.17857150000000388
                },
                {
                    "name": "F3",
                    "midi": 53,
                    "time": 85.1786054999989,
                    "velocity": 0.3464566929133858,
                    "duration": 0.17857150000000388
                },
                {
                    "name": "A3",
                    "midi": 57,
                    "time": 85.3571769999989,
                    "velocity": 0.3543307086614173,
                    "duration": 0.11904766666665978
                },
                {
                    "name": "F3",
                    "midi": 53,
                    "time": 85.47622466666556,
                    "velocity": 0.36220472440944884,
                    "duration": 0.11904766666665978
                },
                {
                    "name": "C3",
                    "midi": 48,
                    "time": 85.59527233333222,
                    "velocity": 0.36220472440944884,
                    "duration": 0.11904766666665978
                },
                {
                    "name": "A#1",
                    "midi": 34,
                    "time": 85.71431999999888,
                    "velocity": 0.5275590551181102,
                    "duration": 0.11904766666665978
                },
                {
                    "name": "F3",
                    "midi": 53,
                    "time": 85.83336766666554,
                    "velocity": 0.3464566929133858,
                    "duration": 0.11904766666665978
                },
                {
                    "name": "A#3",
                    "midi": 58,
                    "time": 85.9524153333322,
                    "velocity": 0.3543307086614173,
                    "duration": 0.11904766666665978
                },
                {
                    "name": "C#4",
                    "midi": 61,
                    "time": 86.07146299999886,
                    "velocity": 0.3543307086614173,
                    "duration": 0.11904766666665978
                },
                {
                    "name": "A#3",
                    "midi": 58,
                    "time": 86.19051066666552,
                    "velocity": 0.3543307086614173,
                    "duration": 0.11904766666665978
                },
                {
                    "name": "F3",
                    "midi": 53,
                    "time": 86.30955833333218,
                    "velocity": 0.36220472440944884,
                    "duration": 0.11904766666665978
                },
                {
                    "name": "A#2",
                    "midi": 46,
                    "time": 86.42860599999884,
                    "velocity": 0.36220472440944884,
                    "duration": 0.11904766666667399
                },
                {
                    "name": "F3",
                    "midi": 53,
                    "time": 86.54765366666551,
                    "velocity": 0.3779527559055118,
                    "duration": 0.11904766666665978
                },
                {
                    "name": "A#3",
                    "midi": 58,
                    "time": 86.66670133333217,
                    "velocity": 0.3779527559055118,
                    "duration": 0.11904766666665978
                },
                {
                    "name": "C#4",
                    "midi": 61,
                    "time": 86.78574899999883,
                    "velocity": 0.3858267716535433,
                    "duration": 0.11904766666665978
                },
                {
                    "name": "A#3",
                    "midi": 58,
                    "time": 86.90479666666549,
                    "velocity": 0.3858267716535433,
                    "duration": 0.11904766666665978
                },
                {
                    "name": "F3",
                    "midi": 53,
                    "time": 87.02384433333215,
                    "velocity": 0.3858267716535433,
                    "duration": 0.11904766666665978
                },
                {
                    "name": "A#1",
                    "midi": 34,
                    "time": 87.14289199999881,
                    "velocity": 0.5590551181102362,
                    "duration": 0.11904766666665978
                },
                {
                    "name": "E3",
                    "midi": 52,
                    "time": 87.26193966666547,
                    "velocity": 0.3779527559055118,
                    "duration": 0.11904766666665978
                },
                {
                    "name": "G#3",
                    "midi": 56,
                    "time": 87.38098733333213,
                    "velocity": 0.3779527559055118,
                    "duration": 0.11904766666665978
                },
                {
                    "name": "C#4",
                    "midi": 61,
                    "time": 87.50003499999879,
                    "velocity": 0.36220472440944884,
                    "duration": 0.11904766666665978
                },
                {
                    "name": "G#3",
                    "midi": 56,
                    "time": 87.61908266666545,
                    "velocity": 0.36220472440944884,
                    "duration": 0.11904766666665978
                },
                {
                    "name": "E3",
                    "midi": 52,
                    "time": 87.73813033333211,
                    "velocity": 0.36220472440944884,
                    "duration": 0.11904766666665978
                },
                {
                    "name": "A#2",
                    "midi": 46,
                    "time": 87.85717799999877,
                    "velocity": 0.3543307086614173,
                    "duration": 0.11904766666665978
                },
                {
                    "name": "E3",
                    "midi": 52,
                    "time": 87.97622566666543,
                    "velocity": 0.3543307086614173,
                    "duration": 0.11904766666665978
                },
                {
                    "name": "G#3",
                    "midi": 56,
                    "time": 88.09527333333209,
                    "velocity": 0.3543307086614173,
                    "duration": 0.11904766666665978
                },
                {
                    "name": "C#4",
                    "midi": 61,
                    "time": 88.21432099999875,
                    "velocity": 0.3464566929133858,
                    "duration": 0.11904766666665978
                },
                {
                    "name": "G#3",
                    "midi": 56,
                    "time": 88.33336866666541,
                    "velocity": 0.3464566929133858,
                    "duration": 0.11904766666665978
                },
                {
                    "name": "E3",
                    "midi": 52,
                    "time": 88.45241633333207,
                    "velocity": 0.3464566929133858,
                    "duration": 0.11904766666665978
                },
                {
                    "name": "D#2",
                    "midi": 39,
                    "time": 88.57146399999873,
                    "velocity": 0.49606299212598426,
                    "duration": 0.11904766666667399
                },
                {
                    "name": "D#3",
                    "midi": 51,
                    "time": 88.6905116666654,
                    "velocity": 0.3464566929133858,
                    "duration": 0.11904766666665978
                },
                {
                    "name": "G#3",
                    "midi": 56,
                    "time": 88.80955933333206,
                    "velocity": 0.3543307086614173,
                    "duration": 0.11904766666665978
                },
                {
                    "name": "C4",
                    "midi": 60,
                    "time": 88.92860699999872,
                    "velocity": 0.3543307086614173,
                    "duration": 0.11904766666665978
                },
                {
                    "name": "G#3",
                    "midi": 56,
                    "time": 89.04765466666538,
                    "velocity": 0.3543307086614173,
                    "duration": 0.11904766666665978
                },
                {
                    "name": "D#3",
                    "midi": 51,
                    "time": 89.16670233333204,
                    "velocity": 0.36220472440944884,
                    "duration": 0.11904766666665978
                },
                {
                    "name": "C3",
                    "midi": 48,
                    "time": 89.2857499999987,
                    "velocity": 0.36220472440944884,
                    "duration": 0.11904766666667399
                },
                {
                    "name": "D#3",
                    "midi": 51,
                    "time": 89.40479766666537,
                    "velocity": 0.3779527559055118,
                    "duration": 0.11904766666665978
                },
                {
                    "name": "G#3",
                    "midi": 56,
                    "time": 89.52384533333203,
                    "velocity": 0.3779527559055118,
                    "duration": 0.11904766666665978
                },
                {
                    "name": "C4",
                    "midi": 60,
                    "time": 89.6428929999987,
                    "velocity": 0.3858267716535433,
                    "duration": 0.11904766666665978
                },
                {
                    "name": "G#3",
                    "midi": 56,
                    "time": 89.76194066666535,
                    "velocity": 0.3858267716535433,
                    "duration": 0.11904766666665978
                },
                {
                    "name": "D#3",
                    "midi": 51,
                    "time": 89.88098833333201,
                    "velocity": 0.3858267716535433,
                    "duration": 0.11904766666665978
                },
                {
                    "name": "D#2",
                    "midi": 39,
                    "time": 90.00003599999867,
                    "velocity": 0.5275590551181102,
                    "duration": 0.11904766666665978
                },
                {
                    "name": "D#3",
                    "midi": 51,
                    "time": 90.11908366666533,
                    "velocity": 0.3937007874015748,
                    "duration": 0.11904766666665978
                },
                {
                    "name": "G#3",
                    "midi": 56,
                    "time": 90.23813133333199,
                    "velocity": 0.4094488188976378,
                    "duration": 0.11904766666665978
                },
                {
                    "name": "C4",
                    "midi": 60,
                    "time": 90.35717899999865,
                    "velocity": 0.4094488188976378,
                    "duration": 0.11904766666665978
                },
                {
                    "name": "G#3",
                    "midi": 56,
                    "time": 90.47622666666531,
                    "velocity": 0.4094488188976378,
                    "duration": 0.11904766666665978
                },
                {
                    "name": "D#3",
                    "midi": 51,
                    "time": 90.59527433333197,
                    "velocity": 0.41732283464566927,
                    "duration": 0.11904766666665978
                },
                {
                    "name": "C3",
                    "midi": 48,
                    "time": 90.71432199999863,
                    "velocity": 0.41732283464566927,
                    "duration": 0.11904766666665978
                },
                {
                    "name": "D#3",
                    "midi": 51,
                    "time": 90.83336966666529,
                    "velocity": 0.3937007874015748,
                    "duration": 0.11904766666665978
                },
                {
                    "name": "G#3",
                    "midi": 56,
                    "time": 90.95241733333195,
                    "velocity": 0.3858267716535433,
                    "duration": 0.11904766666665978
                },
                {
                    "name": "C4",
                    "midi": 60,
                    "time": 91.07146499999861,
                    "velocity": 0.3858267716535433,
                    "duration": 0.11904766666665978
                },
                {
                    "name": "G#3",
                    "midi": 56,
                    "time": 91.19051266666527,
                    "velocity": 0.3858267716535433,
                    "duration": 0.11904766666665978
                },
                {
                    "name": "D#3",
                    "midi": 51,
                    "time": 91.30956033333193,
                    "velocity": 0.3858267716535433,
                    "duration": 0.11904766666665978
                },
                {
                    "name": "D#2",
                    "midi": 39,
                    "time": 91.42860799999859,
                    "velocity": 0.4409448818897638,
                    "duration": 0.17857150000000388
                },
                {
                    "name": "A3",
                    "midi": 57,
                    "time": 91.6071794999986,
                    "velocity": 0.28346456692913385,
                    "duration": 0.17857150000000388
                },
                {
                    "name": "C4",
                    "midi": 60,
                    "time": 91.7857509999986,
                    "velocity": 0.29133858267716534,
                    "duration": 0.17857150000000388
                },
                {
                    "name": "A3",
                    "midi": 57,
                    "time": 91.9643224999986,
                    "velocity": 0.2992125984251969,
                    "duration": 0.17857150000000388
                },
                {
                    "name": "D#3",
                    "midi": 51,
                    "time": 92.1428939999986,
                    "velocity": 0.30708661417322836,
                    "duration": 0.17857150000000388
                },
                {
                    "name": "A3",
                    "midi": 57,
                    "time": 92.32146549999861,
                    "velocity": 0.30708661417322836,
                    "duration": 0.17857150000000388
                },
                {
                    "name": "C4",
                    "midi": 60,
                    "time": 92.50003699999861,
                    "velocity": 0.31496062992125984,
                    "duration": 0.11904766666665978
                },
                {
                    "name": "A3",
                    "midi": 57,
                    "time": 92.61908466666527,
                    "velocity": 0.31496062992125984,
                    "duration": 0.11904766666665978
                },
                {
                    "name": "D#3",
                    "midi": 51,
                    "time": 92.73813233333193,
                    "velocity": 0.3228346456692913,
                    "duration": 0.11904766666665978
                },
                {
                    "name": "D#2",
                    "midi": 39,
                    "time": 92.85717999999859,
                    "velocity": 0.4566929133858268,
                    "duration": 0.17857150000000388
                },
                {
                    "name": "A3",
                    "midi": 57,
                    "time": 93.0357514999986,
                    "velocity": 0.33070866141732286,
                    "duration": 0.17857150000000388
                },
                {
                    "name": "C4",
                    "midi": 60,
                    "time": 93.2143229999986,
                    "velocity": 0.3464566929133858,
                    "duration": 0.17857150000000388
                },
                {
                    "name": "A3",
                    "midi": 57,
                    "time": 93.3928944999986,
                    "velocity": 0.3464566929133858,
                    "duration": 0.17857150000000388
                },
                {
                    "name": "D#3",
                    "midi": 51,
                    "time": 93.57146599999861,
                    "velocity": 0.36220472440944884,
                    "duration": 0.1428572000000088
                },
                {
                    "name": "A3",
                    "midi": 57,
                    "time": 93.75003749999861,
                    "velocity": 0.3543307086614173,
                    "duration": 0.14285719999999458
                },
                {
                    "name": "F4",
                    "midi": 65,
                    "time": 93.9286089999986,
                    "velocity": 0.3464566929133858,
                    "duration": 0.11904766666665978
                },
                {
                    "name": "A3",
                    "midi": 57,
                    "time": 94.04765666666526,
                    "velocity": 0.33070866141732286,
                    "duration": 0.11904766666665978
                },
                {
                    "name": "D#3",
                    "midi": 51,
                    "time": 94.16670433333192,
                    "velocity": 0.3228346456692913,
                    "duration": 0.11904766666665978
                },
                {
                    "name": "D#2",
                    "midi": 39,
                    "time": 94.28575199999858,
                    "velocity": 0.47244094488188976,
                    "duration": 0.17857150000000388
                },
                {
                    "name": "A#3",
                    "midi": 58,
                    "time": 94.46432349999859,
                    "velocity": 0.31496062992125984,
                    "duration": 0.17857150000000388
                },
                {
                    "name": "F4",
                    "midi": 65,
                    "time": 94.64289499999859,
                    "velocity": 0.3228346456692913,
                    "duration": 0.17857150000000388
                },
                {
                    "name": "A#3",
                    "midi": 58,
                    "time": 94.82146649999859,
                    "velocity": 0.33070866141732286,
                    "duration": 0.17857150000000388
                },
                {
                    "name": "D#3",
                    "midi": 51,
                    "time": 95.0000379999986,
                    "velocity": 0.3464566929133858,
                    "duration": 0.17857150000000388
                },
                {
                    "name": "A#3",
                    "midi": 58,
                    "time": 95.1786094999986,
                    "velocity": 0.3543307086614173,
                    "duration": 0.17857150000000388
                },
                {
                    "name": "C#4",
                    "midi": 61,
                    "time": 95.3571809999986,
                    "velocity": 0.3543307086614173,
                    "duration": 0.11904766666665978
                },
                {
                    "name": "A#3",
                    "midi": 58,
                    "time": 95.47622866666526,
                    "velocity": 0.36220472440944884,
                    "duration": 0.11904766666665978
                },
                {
                    "name": "D#3",
                    "midi": 51,
                    "time": 95.59527633333192,
                    "velocity": 0.3700787401574803,
                    "duration": 0.11904766666667399
                },
                {
                    "name": "D#2",
                    "midi": 39,
                    "time": 95.7143239999986,
                    "velocity": 0.5039370078740157,
                    "duration": 0.17857150000000388
                },
                {
                    "name": "B3",
                    "midi": 59,
                    "time": 95.8928954999986,
                    "velocity": 0.3779527559055118,
                    "duration": 0.17857150000000388
                },
                {
                    "name": "D4",
                    "midi": 62,
                    "time": 96.0714669999986,
                    "velocity": 0.3858267716535433,
                    "duration": 0.17857150000000388
                },
                {
                    "name": "B3",
                    "midi": 59,
                    "time": 96.25003849999861,
                    "velocity": 0.3937007874015748,
                    "duration": 0.17857150000000388
                },
                {
                    "name": "D#3",
                    "midi": 51,
                    "time": 96.42860999999861,
                    "velocity": 0.3779527559055118,
                    "duration": 0.17857150000000388
                },
                {
                    "name": "B3",
                    "midi": 59,
                    "time": 96.60718149999862,
                    "velocity": 0.3700787401574803,
                    "duration": 0.17857150000000388
                },
                {
                    "name": "G4",
                    "midi": 67,
                    "time": 96.78575299999862,
                    "velocity": 0.36220472440944884,
                    "duration": 0.11904766666665978
                },
                {
                    "name": "B3",
                    "midi": 59,
                    "time": 96.90480066666528,
                    "velocity": 0.36220472440944884,
                    "duration": 0.11904766666665978
                },
                {
                    "name": "D#3",
                    "midi": 51,
                    "time": 97.02384833333194,
                    "velocity": 0.3543307086614173,
                    "duration": 0.11904766666665978
                },
                {
                    "name": "D#2",
                    "midi": 39,
                    "time": 97.1428959999986,
                    "velocity": 0.5275590551181102,
                    "duration": 0.17857149999998967
                },
                {
                    "name": "C4",
                    "midi": 60,
                    "time": 97.32146749999859,
                    "velocity": 0.3464566929133858,
                    "duration": 0.17857150000000388
                },
                {
                    "name": "G4",
                    "midi": 67,
                    "time": 97.5000389999986,
                    "velocity": 0.3543307086614173,
                    "duration": 0.17857150000000388
                },
                {
                    "name": "C4",
                    "midi": 60,
                    "time": 97.6786104999986,
                    "velocity": 0.3779527559055118,
                    "duration": 0.17857150000000388
                },
                {
                    "name": "D#3",
                    "midi": 51,
                    "time": 97.8571819999986,
                    "velocity": 0.3858267716535433,
                    "duration": 0.17857150000000388
                },
                {
                    "name": "C4",
                    "midi": 60,
                    "time": 98.0357534999986,
                    "velocity": 0.3937007874015748,
                    "duration": 0.17857150000000388
                },
                {
                    "name": "D#4",
                    "midi": 63,
                    "time": 98.21432499999861,
                    "velocity": 0.4015748031496063,
                    "duration": 0.11904766666665978
                },
                {
                    "name": "C4",
                    "midi": 60,
                    "time": 98.33337266666527,
                    "velocity": 0.4015748031496063,
                    "duration": 0.11904766666665978
                },
                {
                    "name": "D#3",
                    "midi": 51,
                    "time": 98.45242033333193,
                    "velocity": 0.4015748031496063,
                    "duration": 0.11904766666665978
                },
                {
                    "name": "D#2",
                    "midi": 39,
                    "time": 98.57146799999859,
                    "velocity": 0.5039370078740157,
                    "duration": 0.17857150000000388
                },
                {
                    "name": "C4",
                    "midi": 60,
                    "time": 98.75003949999859,
                    "velocity": 0.4094488188976378,
                    "duration": 0.17857150000000388
                },
                {
                    "name": "F#4",
                    "midi": 66,
                    "time": 98.9286109999986,
                    "velocity": 0.4094488188976378,
                    "duration": 0.17857150000000388
                },
                {
                    "name": "C4",
                    "midi": 60,
                    "time": 99.1071824999986,
                    "velocity": 0.41732283464566927,
                    "duration": 0.17857150000000388
                },
                {
                    "name": "D#3",
                    "midi": 51,
                    "time": 99.2857539999986,
                    "velocity": 0.36220472440944884,
                    "duration": 0.11904766666665978
                },
                {
                    "name": "C4",
                    "midi": 60,
                    "time": 99.40480166666526,
                    "velocity": 0.36220472440944884,
                    "duration": 0.11904766666665978
                },
                {
                    "name": "D#4",
                    "midi": 63,
                    "time": 99.52384933333192,
                    "velocity": 0.36220472440944884,
                    "duration": 0.11904766666665978
                },
                {
                    "name": "A4",
                    "midi": 69,
                    "time": 99.64289699999858,
                    "velocity": 0.36220472440944884,
                    "duration": 0.11904766666665978
                },
                {
                    "name": "D#4",
                    "midi": 63,
                    "time": 99.76194466666524,
                    "velocity": 0.36220472440944884,
                    "duration": 0.11904766666665978
                },
                {
                    "name": "C4",
                    "midi": 60,
                    "time": 99.8809923333319,
                    "velocity": 0.36220472440944884,
                    "duration": 0.11904766666665978
                },
                {
                    "name": "D#3",
                    "midi": 51,
                    "time": 100.00003999999856,
                    "velocity": 0.5511811023622047,
                    "duration": 0.11904766666665978
                },
                {
                    "name": "A#3",
                    "midi": 58,
                    "time": 100.11908766666522,
                    "velocity": 0.3937007874015748,
                    "duration": 0.11904766666665978
                },
                {
                    "name": "D4",
                    "midi": 62,
                    "time": 100.23813533333188,
                    "velocity": 0.4015748031496063,
                    "duration": 0.11904766666665978
                },
                {
                    "name": "G#4",
                    "midi": 68,
                    "time": 100.35718299999854,
                    "velocity": 0.3937007874015748,
                    "duration": 0.11904766666665978
                },
                {
                    "name": "D4",
                    "midi": 62,
                    "time": 100.4762306666652,
                    "velocity": 0.4015748031496063,
                    "duration": 0.11904766666665978
                },
                {
                    "name": "A#3",
                    "midi": 58,
                    "time": 100.59527833333186,
                    "velocity": 0.4015748031496063,
                    "duration": 0.11904766666665978
                },
                {
                    "name": "D#3",
                    "midi": 51,
                    "time": 100.71432599999852,
                    "velocity": 0.4015748031496063,
                    "duration": 0.11904766666665978
                },
                {
                    "name": "A#3",
                    "midi": 58,
                    "time": 100.83337366666518,
                    "velocity": 0.4015748031496063,
                    "duration": 0.11904766666665978
                },
                {
                    "name": "D4",
                    "midi": 62,
                    "time": 100.95242133333184,
                    "velocity": 0.4094488188976378,
                    "duration": 0.11904766666665978
                },
                {
                    "name": "G#4",
                    "midi": 68,
                    "time": 101.0714689999985,
                    "velocity": 0.4094488188976378,
                    "duration": 0.11904766666665978
                },
                {
                    "name": "D4",
                    "midi": 62,
                    "time": 101.19051666666516,
                    "velocity": 0.4094488188976378,
                    "duration": 0.11904766666665978
                },
                {
                    "name": "A#3",
                    "midi": 58,
                    "time": 101.30956433333182,
                    "velocity": 0.4094488188976378,
                    "duration": 0.11904766666665978
                },
                {
                    "name": "D#3",
                    "midi": 51,
                    "time": 101.42861199999848,
                    "velocity": 0.4094488188976378,
                    "duration": 0.11904766666665978
                },
                {
                    "name": "A#3",
                    "midi": 58,
                    "time": 101.54765966666514,
                    "velocity": 0.4015748031496063,
                    "duration": 0.11904766666665978
                },
                {
                    "name": "C#4",
                    "midi": 61,
                    "time": 101.6667073333318,
                    "velocity": 0.4015748031496063,
                    "duration": 0.11904766666665978
                },
                {
                    "name": "G#4",
                    "midi": 68,
                    "time": 101.78575499999846,
                    "velocity": 0.4015748031496063,
                    "duration": 0.11904766666665978
                },
                {
                    "name": "C#4",
                    "midi": 61,
                    "time": 101.90480266666512,
                    "velocity": 0.4015748031496063,
                    "duration": 0.11904766666665978
                },
                {
                    "name": "A#3",
                    "midi": 58,
                    "time": 102.02385033333178,
                    "velocity": 0.4015748031496063,
                    "duration": 0.11904766666665978
                },
                {
                    "name": "D#3",
                    "midi": 51,
                    "time": 102.14289799999844,
                    "velocity": 0.4015748031496063,
                    "duration": 0.11904766666665978
                },
                {
                    "name": "A#3",
                    "midi": 58,
                    "time": 102.2619456666651,
                    "velocity": 0.3937007874015748,
                    "duration": 0.11904766666665978
                },
                {
                    "name": "C#4",
                    "midi": 61,
                    "time": 102.38099333333176,
                    "velocity": 0.3937007874015748,
                    "duration": 0.11904766666665978
                },
                {
                    "name": "D#4",
                    "midi": 63,
                    "time": 102.50004099999842,
                    "velocity": 0.3858267716535433,
                    "duration": 0.11904766666665978
                },
                {
                    "name": "C#4",
                    "midi": 61,
                    "time": 102.61908866666508,
                    "velocity": 0.3858267716535433,
                    "duration": 0.11904766666665978
                },
                {
                    "name": "A#3",
                    "midi": 58,
                    "time": 102.73813633333174,
                    "velocity": 0.4015748031496063,
                    "duration": 0.11904766666665978
                },
                {
                    "name": "G#2",
                    "midi": 44,
                    "time": 102.8571839999984,
                    "velocity": 0.5354330708661418,
                    "duration": 0.11904766666667399
                },
                {
                    "name": "D#3",
                    "midi": 51,
                    "time": 102.97623166666507,
                    "velocity": 0.31496062992125984,
                    "duration": 0.11904766666665978
                },
                {
                    "name": "G#3",
                    "midi": 56,
                    "time": 103.09527933333173,
                    "velocity": 0.31496062992125984,
                    "duration": 0.11904766666665978
                },
                {
                    "name": "C4",
                    "midi": 60,
                    "time": 103.21432699999839,
                    "velocity": 0.31496062992125984,
                    "duration": 0.11904766666665978
                },
                {
                    "name": "G#3",
                    "midi": 56,
                    "time": 103.33337466666505,
                    "velocity": 0.30708661417322836,
                    "duration": 0.11904766666665978
                },
                {
                    "name": "D#3",
                    "midi": 51,
                    "time": 103.45242233333171,
                    "velocity": 0.30708661417322836,
                    "duration": 0.11904766666665978
                },
                {
                    "name": "G#2",
                    "midi": 44,
                    "time": 103.57146999999837,
                    "velocity": 0.30708661417322836,
                    "duration": 0.11904766666667399
                },
                {
                    "name": "D#3",
                    "midi": 51,
                    "time": 103.69051766666504,
                    "velocity": 0.2283464566929134,
                    "duration": 0.11904766666665978
                },
                {
                    "name": "G#3",
                    "midi": 56,
                    "time": 103.8095653333317,
                    "velocity": 0.2283464566929134,
                    "duration": 0.11904766666665978
                },
                {
                    "name": "C4",
                    "midi": 60,
                    "time": 103.92861299999836,
                    "velocity": 0.2283464566929134,
                    "duration": 0.11904766666665978
                },
                {
                    "name": "G#3",
                    "midi": 56,
                    "time": 104.04766066666502,
                    "velocity": 0.23622047244094488,
                    "duration": 0.11904766666665978
                },
                {
                    "name": "D#3",
                    "midi": 51,
                    "time": 104.16670833333168,
                    "velocity": 0.23622047244094488,
                    "duration": 0.11904766666665978
                },
                {
                    "name": "G#2",
                    "midi": 44,
                    "time": 104.28575599999834,
                    "velocity": 0.2440944881889764,
                    "duration": 0.11904766666665978
                },
                {
                    "name": "D#3",
                    "midi": 51,
                    "time": 104.404803666665,
                    "velocity": 0.2440944881889764,
                    "duration": 0.11904766666665978
                },
                {
                    "name": "G#3",
                    "midi": 56,
                    "time": 104.52385133333166,
                    "velocity": 0.25984251968503935,
                    "duration": 0.11904766666665978
                },
                {
                    "name": "C4",
                    "midi": 60,
                    "time": 104.64289899999832,
                    "velocity": 0.25984251968503935,
                    "duration": 0.11904766666665978
                },
                {
                    "name": "G#3",
                    "midi": 56,
                    "time": 104.76194666666498,
                    "velocity": 0.25984251968503935,
                    "duration": 0.11904766666665978
                },
                {
                    "name": "D#3",
                    "midi": 51,
                    "time": 104.88099433333164,
                    "velocity": 0.2677165354330709,
                    "duration": 0.11904766666665978
                },
                {
                    "name": "G#2",
                    "midi": 44,
                    "time": 105.0000419999983,
                    "velocity": 0.2677165354330709,
                    "duration": 0.11904766666665978
                },
                {
                    "name": "D#3",
                    "midi": 51,
                    "time": 105.11908966666496,
                    "velocity": 0.2755905511811024,
                    "duration": 0.11904766666665978
                },
                {
                    "name": "G#3",
                    "midi": 56,
                    "time": 105.23813733333162,
                    "velocity": 0.2755905511811024,
                    "duration": 0.11904766666665978
                },
                {
                    "name": "C4",
                    "midi": 60,
                    "time": 105.35718499999828,
                    "velocity": 0.2755905511811024,
                    "duration": 0.11904766666665978
                },
                {
                    "name": "G#3",
                    "midi": 56,
                    "time": 105.47623266666494,
                    "velocity": 0.28346456692913385,
                    "duration": 0.11904766666665978
                },
                {
                    "name": "D#3",
                    "midi": 51,
                    "time": 105.5952803333316,
                    "velocity": 0.28346456692913385,
                    "duration": 0.11904766666665978
                },
                {
                    "name": "G#2",
                    "midi": 44,
                    "time": 105.71432799999826,
                    "velocity": 0.30708661417322836,
                    "duration": 0.11904766666665978
                },
                {
                    "name": "D#3",
                    "midi": 51,
                    "time": 105.83337566666492,
                    "velocity": 0.30708661417322836,
                    "duration": 0.11904766666665978
                },
                {
                    "name": "G3",
                    "midi": 55,
                    "time": 105.95242333333158,
                    "velocity": 0.31496062992125984,
                    "duration": 0.11904766666665978
                },
                {
                    "name": "C#4",
                    "midi": 61,
                    "time": 106.07147099999824,
                    "velocity": 0.3228346456692913,
                    "duration": 0.11904766666665978
                },
                {
                    "name": "G3",
                    "midi": 55,
                    "time": 106.1905186666649,
                    "velocity": 0.33070866141732286,
                    "duration": 0.11904766666665978
                },
                {
                    "name": "D#3",
                    "midi": 51,
                    "time": 106.30956633333156,
                    "velocity": 0.33070866141732286,
                    "duration": 0.11904766666665978
                },
                {
                    "name": "G#2",
                    "midi": 44,
                    "time": 106.42861399999822,
                    "velocity": 0.3464566929133858,
                    "duration": 0.11904766666667399
                },
                {
                    "name": "D#3",
                    "midi": 51,
                    "time": 106.5476616666649,
                    "velocity": 0.33070866141732286,
                    "duration": 0.11904766666665978
                },
                {
                    "name": "G3",
                    "midi": 55,
                    "time": 106.66670933333155,
                    "velocity": 0.33070866141732286,
                    "duration": 0.11904766666665978
                },
                {
                    "name": "C#4",
                    "midi": 61,
                    "time": 106.78575699999821,
                    "velocity": 0.31496062992125984,
                    "duration": 0.11904766666665978
                },
                {
                    "name": "G3",
                    "midi": 55,
                    "time": 106.90480466666487,
                    "velocity": 0.31496062992125984,
                    "duration": 0.11904766666665978
                },
                {
                    "name": "D#3",
                    "midi": 51,
                    "time": 107.02385233333153,
                    "velocity": 0.31496062992125984,
                    "duration": 0.11904766666665978
                },
                {
                    "name": "G#2",
                    "midi": 44,
                    "time": 107.14289999999819,
                    "velocity": 0.31496062992125984,
                    "duration": 0.11904766666665978
                },
                {
                    "name": "D#3",
                    "midi": 51,
                    "time": 107.26194766666485,
                    "velocity": 0.31496062992125984,
                    "duration": 0.11904766666665978
                },
                {
                    "name": "G3",
                    "midi": 55,
                    "time": 107.38099533333151,
                    "velocity": 0.31496062992125984,
                    "duration": 0.11904766666665978
                },
                {
                    "name": "C#4",
                    "midi": 61,
                    "time": 107.50004299999817,
                    "velocity": 0.31496062992125984,
                    "duration": 0.11904766666665978
                },
                {
                    "name": "G3",
                    "midi": 55,
                    "time": 107.61909066666483,
                    "velocity": 0.31496062992125984,
                    "duration": 0.11904766666665978
                },
                {
                    "name": "D#3",
                    "midi": 51,
                    "time": 107.73813833333149,
                    "velocity": 0.31496062992125984,
                    "duration": 0.11904766666665978
                },
                {
                    "name": "G#2",
                    "midi": 44,
                    "time": 107.85718599999815,
                    "velocity": 0.31496062992125984,
                    "duration": 0.11904766666665978
                },
                {
                    "name": "D#3",
                    "midi": 51,
                    "time": 107.97623366666481,
                    "velocity": 0.31496062992125984,
                    "duration": 0.11904766666665978
                },
                {
                    "name": "G3",
                    "midi": 55,
                    "time": 108.09528133333147,
                    "velocity": 0.31496062992125984,
                    "duration": 0.11904766666665978
                },
                {
                    "name": "C#4",
                    "midi": 61,
                    "time": 108.21432899999813,
                    "velocity": 0.3228346456692913,
                    "duration": 0.11904766666665978
                },
                {
                    "name": "G3",
                    "midi": 55,
                    "time": 108.33337666666479,
                    "velocity": 0.3228346456692913,
                    "duration": 0.11904766666665978
                },
                {
                    "name": "D#3",
                    "midi": 51,
                    "time": 108.45242433333145,
                    "velocity": 0.3228346456692913,
                    "duration": 0.11904766666665978
                },
                {
                    "name": "G#2",
                    "midi": 44,
                    "time": 108.57147199999811,
                    "velocity": 0.3858267716535433,
                    "duration": 0.11904766666665978
                },
                {
                    "name": "D#3",
                    "midi": 51,
                    "time": 108.69051966666477,
                    "velocity": 0.28346456692913385,
                    "duration": 0.11904766666665978
                },
                {
                    "name": "G#3",
                    "midi": 56,
                    "time": 108.80956733333143,
                    "velocity": 0.28346456692913385,
                    "duration": 0.11904766666665978
                },
                {
                    "name": "C4",
                    "midi": 60,
                    "time": 108.92861499999809,
                    "velocity": 0.28346456692913385,
                    "duration": 0.11904766666665978
                },
                {
                    "name": "G#3",
                    "midi": 56,
                    "time": 109.04766266666475,
                    "velocity": 0.28346456692913385,
                    "duration": 0.11904766666665978
                },
                {
                    "name": "D#3",
                    "midi": 51,
                    "time": 109.16671033333141,
                    "velocity": 0.28346456692913385,
                    "duration": 0.11904766666665978
                },
                {
                    "name": "G#2",
                    "midi": 44,
                    "time": 109.28575799999807,
                    "velocity": 0.28346456692913385,
                    "duration": 0.11904766666665978
                },
                {
                    "name": "D#3",
                    "midi": 51,
                    "time": 109.40480566666473,
                    "velocity": 0.2283464566929134,
                    "duration": 0.11904766666665978
                },
                {
                    "name": "G#3",
                    "midi": 56,
                    "time": 109.52385333333139,
                    "velocity": 0.2283464566929134,
                    "duration": 0.11904766666665978
                },
                {
                    "name": "C4",
                    "midi": 60,
                    "time": 109.64290099999805,
                    "velocity": 0.2283464566929134,
                    "duration": 0.11904766666665978
                },
                {
                    "name": "G#3",
                    "midi": 56,
                    "time": 109.76194866666471,
                    "velocity": 0.23622047244094488,
                    "duration": 0.11904766666665978
                },
                {
                    "name": "D#3",
                    "midi": 51,
                    "time": 109.88099633333137,
                    "velocity": 0.23622047244094488,
                    "duration": 0.11904766666665978
                },
                {
                    "name": "G#2",
                    "midi": 44,
                    "time": 110.00004399999803,
                    "velocity": 0.2440944881889764,
                    "duration": 0.11904766666665978
                },
                {
                    "name": "D#3",
                    "midi": 51,
                    "time": 110.11909166666469,
                    "velocity": 0.2440944881889764,
                    "duration": 0.11904766666665978
                },
                {
                    "name": "G#3",
                    "midi": 56,
                    "time": 110.23813933333135,
                    "velocity": 0.25984251968503935,
                    "duration": 0.11904766666665978
                },
                {
                    "name": "C4",
                    "midi": 60,
                    "time": 110.357186999998,
                    "velocity": 0.25984251968503935,
                    "duration": 0.11904766666665978
                },
                {
                    "name": "G#3",
                    "midi": 56,
                    "time": 110.47623466666467,
                    "velocity": 0.25984251968503935,
                    "duration": 0.11904766666665978
                },
                {
                    "name": "D#3",
                    "midi": 51,
                    "time": 110.59528233333133,
                    "velocity": 0.2677165354330709,
                    "duration": 0.11904766666665978
                },
                {
                    "name": "G#2",
                    "midi": 44,
                    "time": 110.71432999999799,
                    "velocity": 0.2677165354330709,
                    "duration": 0.11904766666665978
                },
                {
                    "name": "D#3",
                    "midi": 51,
                    "time": 110.83337766666465,
                    "velocity": 0.2755905511811024,
                    "duration": 0.11904766666665978
                },
                {
                    "name": "G#3",
                    "midi": 56,
                    "time": 110.9524253333313,
                    "velocity": 0.2755905511811024,
                    "duration": 0.11904766666665978
                },
                {
                    "name": "C4",
                    "midi": 60,
                    "time": 111.07147299999797,
                    "velocity": 0.2755905511811024,
                    "duration": 0.11904766666665978
                },
                {
                    "name": "G#3",
                    "midi": 56,
                    "time": 111.19052066666463,
                    "velocity": 0.28346456692913385,
                    "duration": 0.11904766666665978
                },
                {
                    "name": "D#3",
                    "midi": 51,
                    "time": 111.30956833333128,
                    "velocity": 0.28346456692913385,
                    "duration": 0.11904766666665978
                },
                {
                    "name": "G#2",
                    "midi": 44,
                    "time": 111.42861599999794,
                    "velocity": 0.30708661417322836,
                    "duration": 0.11904766666665978
                },
                {
                    "name": "D#3",
                    "midi": 51,
                    "time": 111.5476636666646,
                    "velocity": 0.2992125984251969,
                    "duration": 0.11904766666665978
                },
                {
                    "name": "G3",
                    "midi": 55,
                    "time": 111.66671133333126,
                    "velocity": 0.2992125984251969,
                    "duration": 0.11904766666665978
                },
                {
                    "name": "C#4",
                    "midi": 61,
                    "time": 111.78575899999792,
                    "velocity": 0.29133858267716534,
                    "duration": 0.11904766666665978
                },
                {
                    "name": "G3",
                    "midi": 55,
                    "time": 111.90480666666458,
                    "velocity": 0.29133858267716534,
                    "duration": 0.11904766666665978
                },
                {
                    "name": "D#3",
                    "midi": 51,
                    "time": 112.02385433333124,
                    "velocity": 0.28346456692913385,
                    "duration": 0.11904766666665978
                },
                {
                    "name": "G#2",
                    "midi": 44,
                    "time": 112.1429019999979,
                    "velocity": 0.28346456692913385,
                    "duration": 0.11904766666667399
                },
                {
                    "name": "D#3",
                    "midi": 51,
                    "time": 112.26194966666458,
                    "velocity": 0.28346456692913385,
                    "duration": 0.11904766666665978
                },
                {
                    "name": "G3",
                    "midi": 55,
                    "time": 112.38099733333124,
                    "velocity": 0.2755905511811024,
                    "duration": 0.11904766666665978
                },
                {
                    "name": "C#4",
                    "midi": 61,
                    "time": 112.5000449999979,
                    "velocity": 0.2755905511811024,
                    "duration": 0.11904766666665978
                },
                {
                    "name": "G3",
                    "midi": 55,
                    "time": 112.61909266666456,
                    "velocity": 0.2677165354330709,
                    "duration": 0.11904766666665978
                },
                {
                    "name": "D#3",
                    "midi": 51,
                    "time": 112.73814033333122,
                    "velocity": 0.2677165354330709,
                    "duration": 0.11904766666665978
                },
                {
                    "name": "G#2",
                    "midi": 44,
                    "time": 112.85718799999788,
                    "velocity": 0.2047244094488189,
                    "duration": 0.11904766666665978
                },
                {
                    "name": "D#3",
                    "midi": 51,
                    "time": 112.97623566666454,
                    "velocity": 0.2047244094488189,
                    "duration": 0.11904766666665978
                },
                {
                    "name": "G3",
                    "midi": 55,
                    "time": 113.0952833333312,
                    "velocity": 0.2047244094488189,
                    "duration": 0.11904766666665978
                },
                {
                    "name": "C#4",
                    "midi": 61,
                    "time": 113.21433099999786,
                    "velocity": 0.2125984251968504,
                    "duration": 0.11904766666665978
                },
                {
                    "name": "G3",
                    "midi": 55,
                    "time": 113.33337866666452,
                    "velocity": 0.2125984251968504,
                    "duration": 0.11904766666665978
                },
                {
                    "name": "D#3",
                    "midi": 51,
                    "time": 113.45242633333118,
                    "velocity": 0.2204724409448819,
                    "duration": 0.11904766666665978
                },
                {
                    "name": "G#2",
                    "midi": 44,
                    "time": 113.57147399999783,
                    "velocity": 0.2204724409448819,
                    "duration": 0.11904766666665978
                },
                {
                    "name": "D#3",
                    "midi": 51,
                    "time": 113.6905216666645,
                    "velocity": 0.2125984251968504,
                    "duration": 0.11904766666665978
                },
                {
                    "name": "G3",
                    "midi": 55,
                    "time": 113.80956933333115,
                    "velocity": 0.2125984251968504,
                    "duration": 0.11904766666665978
                },
                {
                    "name": "C#4",
                    "midi": 61,
                    "time": 113.92861699999781,
                    "velocity": 0.2125984251968504,
                    "duration": 0.11904766666665978
                },
                {
                    "name": "G3",
                    "midi": 55,
                    "time": 114.04766466666447,
                    "velocity": 0.2204724409448819,
                    "duration": 0.11904766666665978
                },
                {
                    "name": "D#3",
                    "midi": 51,
                    "time": 114.16671233333113,
                    "velocity": 0.23622047244094488,
                    "duration": 0.11904766666665978
                },
                {
                    "name": "G#2",
                    "midi": 44,
                    "time": 114.2857599999978,
                    "velocity": 0.29133858267716534,
                    "duration": 0.11904766666665978
                },
                {
                    "name": "D#3",
                    "midi": 51,
                    "time": 114.40480766666445,
                    "velocity": 0.2283464566929134,
                    "duration": 0.11904766666665978
                },
                {
                    "name": "G#3",
                    "midi": 56,
                    "time": 114.52385533333111,
                    "velocity": 0.2283464566929134,
                    "duration": 0.11904766666665978
                },
                {
                    "name": "C4",
                    "midi": 60,
                    "time": 114.64290299999777,
                    "velocity": 0.2283464566929134,
                    "duration": 0.11904766666665978
                },
                {
                    "name": "G#3",
                    "midi": 56,
                    "time": 114.76195066666443,
                    "velocity": 0.2283464566929134,
                    "duration": 0.11904766666665978
                },
                {
                    "name": "D#3",
                    "midi": 51,
                    "time": 114.88099833333109,
                    "velocity": 0.2283464566929134,
                    "duration": 0.11904766666665978
                },
                {
                    "name": "G#2",
                    "midi": 44,
                    "time": 115.00004599999775,
                    "velocity": 0.2283464566929134,
                    "duration": 0.11904766666665978
                },
                {
                    "name": "D#3",
                    "midi": 51,
                    "time": 115.11909366666441,
                    "velocity": 0.2283464566929134,
                    "duration": 0.11904766666665978
                },
                {
                    "name": "G#3",
                    "midi": 56,
                    "time": 115.23814133333107,
                    "velocity": 0.2283464566929134,
                    "duration": 0.11904766666665978
                },
                {
                    "name": "C4",
                    "midi": 60,
                    "time": 115.35718899999773,
                    "velocity": 0.2283464566929134,
                    "duration": 0.11904766666665978
                },
                {
                    "name": "G#3",
                    "midi": 56,
                    "time": 115.47623666666439,
                    "velocity": 0.2283464566929134,
                    "duration": 0.11904766666665978
                },
                {
                    "name": "D#3",
                    "midi": 51,
                    "time": 115.59528433333105,
                    "velocity": 0.2283464566929134,
                    "duration": 0.11904766666665978
                },
                {
                    "name": "G#2",
                    "midi": 44,
                    "time": 115.71433199999771,
                    "velocity": 0.2204724409448819,
                    "duration": 0.11904766666665978
                },
                {
                    "name": "D#3",
                    "midi": 51,
                    "time": 115.83337966666437,
                    "velocity": 0.2204724409448819,
                    "duration": 0.11904766666665978
                },
                {
                    "name": "G#3",
                    "midi": 56,
                    "time": 115.95242733333103,
                    "velocity": 0.2204724409448819,
                    "duration": 0.11904766666665978
                },
                {
                    "name": "C4",
                    "midi": 60,
                    "time": 116.07147499999769,
                    "velocity": 0.2204724409448819,
                    "duration": 0.11904766666665978
                },
                {
                    "name": "G#3",
                    "midi": 56,
                    "time": 116.19052266666435,
                    "velocity": 0.2204724409448819,
                    "duration": 0.11904766666665978
                },
                {
                    "name": "D#3",
                    "midi": 51,
                    "time": 116.30957033333101,
                    "velocity": 0.2204724409448819,
                    "duration": 0.11904766666665978
                },
                {
                    "name": "G#2",
                    "midi": 44,
                    "time": 116.42861799999767,
                    "velocity": 0.2204724409448819,
                    "duration": 0.11904766666665978
                },
                {
                    "name": "D#3",
                    "midi": 51,
                    "time": 116.54766566666433,
                    "velocity": 0.2204724409448819,
                    "duration": 0.11904766666665978
                },
                {
                    "name": "G#3",
                    "midi": 56,
                    "time": 116.66671333333099,
                    "velocity": 0.2204724409448819,
                    "duration": 0.11904766666665978
                },
                {
                    "name": "C4",
                    "midi": 60,
                    "time": 116.78576099999765,
                    "velocity": 0.2204724409448819,
                    "duration": 0.11904766666665978
                },
                {
                    "name": "G#3",
                    "midi": 56,
                    "time": 116.90480866666431,
                    "velocity": 0.2204724409448819,
                    "duration": 0.11904766666665978
                },
                {
                    "name": "D#3",
                    "midi": 51,
                    "time": 117.02385633333097,
                    "velocity": 0.2125984251968504,
                    "duration": 0.11904766666665978
                },
                {
                    "name": "D#2",
                    "midi": 39,
                    "time": 117.14290399999763,
                    "velocity": 0.29133858267716534,
                    "duration": 0.11904766666667399
                },
                {
                    "name": "G#2",
                    "midi": 44,
                    "time": 117.2619516666643,
                    "velocity": 0.2283464566929134,
                    "duration": 0.11904766666665978
                },
                {
                    "name": "D#3",
                    "midi": 51,
                    "time": 117.38099933333096,
                    "velocity": 0.2283464566929134,
                    "duration": 0.11904766666665978
                },
                {
                    "name": "G#3",
                    "midi": 56,
                    "time": 117.50004699999762,
                    "velocity": 0.2283464566929134,
                    "duration": 0.11904766666665978
                },
                {
                    "name": "D#3",
                    "midi": 51,
                    "time": 117.61909466666428,
                    "velocity": 0.2283464566929134,
                    "duration": 0.11904766666665978
                },
                {
                    "name": "G#2",
                    "midi": 44,
                    "time": 117.73814233333094,
                    "velocity": 0.2283464566929134,
                    "duration": 0.11904766666665978
                },
                {
                    "name": "D#2",
                    "midi": 39,
                    "time": 117.8571899999976,
                    "velocity": 0.2283464566929134,
                    "duration": 0.11904766666667399
                },
                {
                    "name": "G#2",
                    "midi": 44,
                    "time": 117.97623766666428,
                    "velocity": 0.2204724409448819,
                    "duration": 0.11904766666665978
                },
                {
                    "name": "D#3",
                    "midi": 51,
                    "time": 118.09528533333093,
                    "velocity": 0.2204724409448819,
                    "duration": 0.11904766666665978
                },
                {
                    "name": "G#3",
                    "midi": 56,
                    "time": 118.2143329999976,
                    "velocity": 0.2204724409448819,
                    "duration": 0.11904766666665978
                },
                {
                    "name": "D#3",
                    "midi": 51,
                    "time": 118.33338066666425,
                    "velocity": 0.2204724409448819,
                    "duration": 0.11904766666665978
                },
                {
                    "name": "G#2",
                    "midi": 44,
                    "time": 118.45242833333091,
                    "velocity": 0.2204724409448819,
                    "duration": 0.11904766666665978
                },
                {
                    "name": "D#2",
                    "midi": 39,
                    "time": 118.57147599999757,
                    "velocity": 0.2204724409448819,
                    "duration": 0.11904766666667399
                },
                {
                    "name": "G#2",
                    "midi": 44,
                    "time": 118.69052366666425,
                    "velocity": 0.2125984251968504,
                    "duration": 0.11904766666665978
                },
                {
                    "name": "D#3",
                    "midi": 51,
                    "time": 118.80957133333091,
                    "velocity": 0.2125984251968504,
                    "duration": 0.11904766666665978
                },
                {
                    "name": "G#3",
                    "midi": 56,
                    "time": 118.92861899999757,
                    "velocity": 0.2047244094488189,
                    "duration": 0.11904766666665978
                },
                {
                    "name": "D#3",
                    "midi": 51,
                    "time": 119.04766666666423,
                    "velocity": 0.2047244094488189,
                    "duration": 0.11904766666665978
                },
                {
                    "name": "G#2",
                    "midi": 44,
                    "time": 119.16671433333089,
                    "velocity": 0.2047244094488189,
                    "duration": 0.11904766666665978
                },
                {
                    "name": "D#2",
                    "midi": 39,
                    "time": 119.28576199999755,
                    "velocity": 0.1968503937007874,
                    "duration": 0.11904766666667399
                },
                {
                    "name": "G#2",
                    "midi": 44,
                    "time": 119.40480966666422,
                    "velocity": 0.1968503937007874,
                    "duration": 0.11904766666665978
                },
                {
                    "name": "D#3",
                    "midi": 51,
                    "time": 119.52385733333088,
                    "velocity": 0.1968503937007874,
                    "duration": 0.11904766666665978
                },
                {
                    "name": "G#3",
                    "midi": 56,
                    "time": 119.64290499999754,
                    "velocity": 0.1968503937007874,
                    "duration": 0.11904766666665978
                },
                {
                    "name": "D#3",
                    "midi": 51,
                    "time": 119.7619526666642,
                    "velocity": 0.1968503937007874,
                    "duration": 0.11904766666665978
                },
                {
                    "name": "G#2",
                    "midi": 44,
                    "time": 119.88100033333086,
                    "velocity": 0.1968503937007874,
                    "duration": 0.11904766666665978
                },
                {
                    "name": "G#1",
                    "midi": 32,
                    "time": 120.00004799999752,
                    "velocity": 0.30708661417322836,
                    "duration": 0.11904766666665978
                },
                {
                    "name": "D#2",
                    "midi": 39,
                    "time": 120.11909566666418,
                    "velocity": 0.2125984251968504,
                    "duration": 0.11904766666665978
                },
                {
                    "name": "G#2",
                    "midi": 44,
                    "time": 120.23814333333084,
                    "velocity": 0.2125984251968504,
                    "duration": 0.11904766666665978
                },
                {
                    "name": "D#3",
                    "midi": 51,
                    "time": 120.3571909999975,
                    "velocity": 0.2125984251968504,
                    "duration": 0.11904766666665978
                },
                {
                    "name": "G#2",
                    "midi": 44,
                    "time": 120.47623866666416,
                    "velocity": 0.2125984251968504,
                    "duration": 0.11904766666665978
                },
                {
                    "name": "D#2",
                    "midi": 39,
                    "time": 120.59528633333082,
                    "velocity": 0.2204724409448819,
                    "duration": 0.11904766666665978
                },
                {
                    "name": "G#1",
                    "midi": 32,
                    "time": 120.71433399999748,
                    "velocity": 0.2204724409448819,
                    "duration": 0.11904766666665978
                },
                {
                    "name": "D#2",
                    "midi": 39,
                    "time": 120.83338166666414,
                    "velocity": 0.2125984251968504,
                    "duration": 0.11904766666665978
                },
                {
                    "name": "G#2",
                    "midi": 44,
                    "time": 120.9524293333308,
                    "velocity": 0.2125984251968504,
                    "duration": 0.11904766666665978
                },
                {
                    "name": "D#3",
                    "midi": 51,
                    "time": 121.07147699999746,
                    "velocity": 0.2125984251968504,
                    "duration": 0.11904766666665978
                },
                {
                    "name": "G#2",
                    "midi": 44,
                    "time": 121.19052466666412,
                    "velocity": 0.2125984251968504,
                    "duration": 0.11904766666665978
                },
                {
                    "name": "D#2",
                    "midi": 39,
                    "time": 121.30957233333078,
                    "velocity": 0.2125984251968504,
                    "duration": 0.11904766666665978
                },
                {
                    "name": "G#1",
                    "midi": 32,
                    "time": 121.42861999999744,
                    "velocity": 0.2047244094488189,
                    "duration": 0.11904766666665978
                },
                {
                    "name": "D#2",
                    "midi": 39,
                    "time": 121.5476676666641,
                    "velocity": 0.2047244094488189,
                    "duration": 0.11904766666665978
                },
                {
                    "name": "G#2",
                    "midi": 44,
                    "time": 121.66671533333076,
                    "velocity": 0.2047244094488189,
                    "duration": 0.11904766666665978
                },
                {
                    "name": "D#3",
                    "midi": 51,
                    "time": 121.78576299999742,
                    "velocity": 0.2047244094488189,
                    "duration": 0.11904766666665978
                },
                {
                    "name": "G#2",
                    "midi": 44,
                    "time": 121.90481066666408,
                    "velocity": 0.2047244094488189,
                    "duration": 0.11904766666665978
                },
                {
                    "name": "D#2",
                    "midi": 39,
                    "time": 122.02385833333074,
                    "velocity": 0.2047244094488189,
                    "duration": 0.11904766666665978
                },
                {
                    "name": "G#1",
                    "midi": 32,
                    "time": 122.1429059999974,
                    "velocity": 0.1968503937007874,
                    "duration": 0.11904766666665978
                },
                {
                    "name": "D#2",
                    "midi": 39,
                    "time": 122.26195366666406,
                    "velocity": 0.1968503937007874,
                    "duration": 0.11904766666665978
                },
                {
                    "name": "G#2",
                    "midi": 44,
                    "time": 122.38100133333072,
                    "velocity": 0.1889763779527559,
                    "duration": 0.11904766666665978
                },
                {
                    "name": "D#3",
                    "midi": 51,
                    "time": 122.50004899999738,
                    "velocity": 0.1889763779527559,
                    "duration": 0.11904766666665978
                },
                {
                    "name": "G#2",
                    "midi": 44,
                    "time": 122.61909666666403,
                    "velocity": 0.1889763779527559,
                    "duration": 0.11904766666665978
                },
                {
                    "name": "D#2",
                    "midi": 39,
                    "time": 122.7381443333307,
                    "velocity": 0.1889763779527559,
                    "duration": 0.11904766666665978
                },
                {
                    "name": "G#1",
                    "midi": 32,
                    "time": 122.85719199999735,
                    "velocity": 0.2677165354330709,
                    "duration": 0.11904766666665978
                },
                {
                    "name": "D#2",
                    "midi": 39,
                    "time": 122.97623966666401,
                    "velocity": 0.2047244094488189,
                    "duration": 0.11904766666665978
                },
                {
                    "name": "G#2",
                    "midi": 44,
                    "time": 123.09528733333067,
                    "velocity": 0.2047244094488189,
                    "duration": 0.11904766666665978
                },
                {
                    "name": "D#3",
                    "midi": 51,
                    "time": 123.21433499999733,
                    "velocity": 0.2047244094488189,
                    "duration": 0.11904766666665978
                },
                {
                    "name": "G#2",
                    "midi": 44,
                    "time": 123.333382666664,
                    "velocity": 0.2047244094488189,
                    "duration": 0.11904766666665978
                },
                {
                    "name": "D#2",
                    "midi": 39,
                    "time": 123.45243033333065,
                    "velocity": 0.2047244094488189,
                    "duration": 0.11904766666665978
                },
                {
                    "name": "G#1",
                    "midi": 32,
                    "time": 123.57147799999731,
                    "velocity": 0.2047244094488189,
                    "duration": 0.11904766666665978
                },
                {
                    "name": "D#2",
                    "midi": 39,
                    "time": 123.69052566666397,
                    "velocity": 0.2047244094488189,
                    "duration": 0.11904766666665978
                },
                {
                    "name": "G#2",
                    "midi": 44,
                    "time": 123.80957333333063,
                    "velocity": 0.2047244094488189,
                    "duration": 0.11904766666665978
                },
                {
                    "name": "D#3",
                    "midi": 51,
                    "time": 123.92862099999729,
                    "velocity": 0.2047244094488189,
                    "duration": 0.11904766666665978
                },
                {
                    "name": "G#2",
                    "midi": 44,
                    "time": 124.04766866666395,
                    "velocity": 0.1968503937007874,
                    "duration": 0.11904766666665978
                },
                {
                    "name": "D#2",
                    "midi": 39,
                    "time": 124.16671633333061,
                    "velocity": 0.1968503937007874,
                    "duration": 0.11904766666665978
                },
                {
                    "name": "G#1",
                    "midi": 32,
                    "time": 124.28576399999727,
                    "velocity": 0.1968503937007874,
                    "duration": 0.11904766666665978
                },
                {
                    "name": "D#2",
                    "midi": 39,
                    "time": 124.40481166666393,
                    "velocity": 0.1968503937007874,
                    "duration": 0.11904766666665978
                },
                {
                    "name": "G#2",
                    "midi": 44,
                    "time": 124.52385933333059,
                    "velocity": 0.1968503937007874,
                    "duration": 0.11904766666665978
                },
                {
                    "name": "D#3",
                    "midi": 51,
                    "time": 124.64290699999725,
                    "velocity": 0.1968503937007874,
                    "duration": 0.11904766666665978
                },
                {
                    "name": "G#2",
                    "midi": 44,
                    "time": 124.76195466666391,
                    "velocity": 0.1968503937007874,
                    "duration": 0.11904766666665978
                },
                {
                    "name": "D#2",
                    "midi": 39,
                    "time": 124.88100233333057,
                    "velocity": 0.1889763779527559,
                    "duration": 0.11904766666665978
                },
                {
                    "name": "G#1",
                    "midi": 32,
                    "time": 125.00004999999723,
                    "velocity": 0.18110236220472442,
                    "duration": 0.11904766666665978
                },
                {
                    "name": "D#2",
                    "midi": 39,
                    "time": 125.11909766666389,
                    "velocity": 0.18110236220472442,
                    "duration": 0.11904766666665978
                },
                {
                    "name": "G#2",
                    "midi": 44,
                    "time": 125.23814533333055,
                    "velocity": 0.18110236220472442,
                    "duration": 0.11904766666665978
                },
                {
                    "name": "D#3",
                    "midi": 51,
                    "time": 125.35719299999721,
                    "velocity": 0.18110236220472442,
                    "duration": 0.11904766666665978
                },
                {
                    "name": "G#2",
                    "midi": 44,
                    "time": 125.47624066666387,
                    "velocity": 0.18110236220472442,
                    "duration": 0.11904766666665978
                },
                {
                    "name": "D#2",
                    "midi": 39,
                    "time": 125.59528833333053,
                    "velocity": 0.18110236220472442,
                    "duration": 0.11904766666665978
                },
                {
                    "name": "G#1",
                    "midi": 32,
                    "time": 125.71433599999719,
                    "velocity": 0.2755905511811024,
                    "duration": 0.11904766666667399
                },
                {
                    "name": "D#2",
                    "midi": 39,
                    "time": 125.83338366666386,
                    "velocity": 0.18110236220472442,
                    "duration": 0.11904766666665978
                },
                {
                    "name": "G#2",
                    "midi": 44,
                    "time": 125.95243133333052,
                    "velocity": 0.1889763779527559,
                    "duration": 0.11904766666665978
                },
                {
                    "name": "C3",
                    "midi": 48,
                    "time": 126.07147899999718,
                    "velocity": 0.1889763779527559,
                    "duration": 0.11904766666665978
                },
                {
                    "name": "D#3",
                    "midi": 51,
                    "time": 126.19052666666384,
                    "velocity": 0.1968503937007874,
                    "duration": 0.11904766666665978
                },
                {
                    "name": "G#3",
                    "midi": 56,
                    "time": 126.3095743333305,
                    "velocity": 0.2047244094488189,
                    "duration": 0.11904766666665978
                },
                {
                    "name": "C4",
                    "midi": 60,
                    "time": 126.42862199999716,
                    "velocity": 0.2047244094488189,
                    "duration": 0.11904766666665978
                },
                {
                    "name": "D#4",
                    "midi": 63,
                    "time": 126.54766966666382,
                    "velocity": 0.2125984251968504,
                    "duration": 0.11904766666665978
                },
                {
                    "name": "G#4",
                    "midi": 68,
                    "time": 126.66671733333048,
                    "velocity": 0.2204724409448819,
                    "duration": 0.11904766666665978
                },
                {
                    "name": "C5",
                    "midi": 72,
                    "time": 126.78576499999714,
                    "velocity": 0.2204724409448819,
                    "duration": 0.11904766666665978
                },
                {
                    "name": "D#5",
                    "midi": 75,
                    "time": 126.9048126666638,
                    "velocity": 0.2283464566929134,
                    "duration": 0.11904766666665978
                },
                {
                    "name": "G#5",
                    "midi": 80,
                    "time": 127.02386033333046,
                    "velocity": 0.2283464566929134,
                    "duration": 0.11904766666665978
                },
                {
                    "name": "C6",
                    "midi": 84,
                    "time": 127.14290799999712,
                    "velocity": 0.2755905511811024,
                    "duration": 0.11904766666665978
                },
                {
                    "name": "G#5",
                    "midi": 80,
                    "time": 127.26195566666378,
                    "velocity": 0.2283464566929134,
                    "duration": 0.11904766666665978
                },
                {
                    "name": "D#5",
                    "midi": 75,
                    "time": 127.38100333333044,
                    "velocity": 0.2204724409448819,
                    "duration": 0.11904766666665978
                },
                {
                    "name": "C5",
                    "midi": 72,
                    "time": 127.5000509999971,
                    "velocity": 0.2204724409448819,
                    "duration": 0.11904766666665978
                },
                {
                    "name": "G#4",
                    "midi": 68,
                    "time": 127.61909866666376,
                    "velocity": 0.2125984251968504,
                    "duration": 0.11904766666665978
                },
                {
                    "name": "D#4",
                    "midi": 63,
                    "time": 127.73814633333042,
                    "velocity": 0.2047244094488189,
                    "duration": 0.11904766666665978
                },
                {
                    "name": "G#3",
                    "midi": 56,
                    "time": 127.85719399999708,
                    "velocity": 0.23622047244094488,
                    "duration": 0.11904766666665978
                },
                {
                    "name": "D#4",
                    "midi": 63,
                    "time": 127.97624166666374,
                    "velocity": 0.1968503937007874,
                    "duration": 0.11904766666667399
                },
                {
                    "name": "G#4",
                    "midi": 68,
                    "time": 128.0952893333304,
                    "velocity": 0.2047244094488189,
                    "duration": 0.11904766666665978
                },
                {
                    "name": "C5",
                    "midi": 72,
                    "time": 128.21433699999707,
                    "velocity": 0.2125984251968504,
                    "duration": 0.11904766666665978
                },
                {
                    "name": "D#5",
                    "midi": 75,
                    "time": 128.33338466666373,
                    "velocity": 0.2204724409448819,
                    "duration": 0.11904766666665978
                },
                {
                    "name": "G#5",
                    "midi": 80,
                    "time": 128.4524323333304,
                    "velocity": 0.2283464566929134,
                    "duration": 0.11904766666665978
                },
                {
                    "name": "C6",
                    "midi": 84,
                    "time": 128.57147999999705,
                    "velocity": 0.28346456692913385,
                    "duration": 0.11904766666665978
                },
                {
                    "name": "G#5",
                    "midi": 80,
                    "time": 128.6905276666637,
                    "velocity": 0.2204724409448819,
                    "duration": 0.11904766666665978
                },
                {
                    "name": "D#5",
                    "midi": 75,
                    "time": 128.80957533333037,
                    "velocity": 0.2125984251968504,
                    "duration": 0.11904766666665978
                },
                {
                    "name": "C5",
                    "midi": 72,
                    "time": 128.92862299999703,
                    "velocity": 0.2047244094488189,
                    "duration": 0.11904766666665978
                },
                {
                    "name": "G#4",
                    "midi": 68,
                    "time": 129.0476706666637,
                    "velocity": 0.1968503937007874,
                    "duration": 0.11904766666665978
                },
                {
                    "name": "D#4",
                    "midi": 63,
                    "time": 129.16671833333035,
                    "velocity": 0.1889763779527559,
                    "duration": 0.11904766666665978
                },
                {
                    "name": "G#3",
                    "midi": 56,
                    "time": 129.285765999997,
                    "velocity": 0.2283464566929134,
                    "duration": 0.11904766666665978
                },
                {
                    "name": "D#4",
                    "midi": 63,
                    "time": 129.40481366666367,
                    "velocity": 0.1889763779527559,
                    "duration": 0.11904766666665978
                },
                {
                    "name": "G#4",
                    "midi": 68,
                    "time": 129.52386133333033,
                    "velocity": 0.1968503937007874,
                    "duration": 0.11904766666665978
                },
                {
                    "name": "C5",
                    "midi": 72,
                    "time": 129.642908999997,
                    "velocity": 0.2125984251968504,
                    "duration": 0.11904766666665978
                },
                {
                    "name": "D#5",
                    "midi": 75,
                    "time": 129.76195666666365,
                    "velocity": 0.2204724409448819,
                    "duration": 0.11904766666665978
                },
                {
                    "name": "G#5",
                    "midi": 80,
                    "time": 129.8810043333303,
                    "velocity": 0.23622047244094488,
                    "duration": 0.11904766666665978
                },
                {
                    "name": "C6",
                    "midi": 84,
                    "time": 130.00005199999697,
                    "velocity": 0.29133858267716534,
                    "duration": 0.11904766666665978
                },
                {
                    "name": "G#5",
                    "midi": 80,
                    "time": 130.11909966666363,
                    "velocity": 0.2440944881889764,
                    "duration": 0.11904766666665978
                },
                {
                    "name": "D#5",
                    "midi": 75,
                    "time": 130.2381473333303,
                    "velocity": 0.23622047244094488,
                    "duration": 0.11904766666665978
                },
                {
                    "name": "C5",
                    "midi": 72,
                    "time": 130.35719499999695,
                    "velocity": 0.2283464566929134,
                    "duration": 0.11904766666665978
                },
                {
                    "name": "G#4",
                    "midi": 68,
                    "time": 130.4762426666636,
                    "velocity": 0.2204724409448819,
                    "duration": 0.11904766666665978
                },
                {
                    "name": "D#4",
                    "midi": 63,
                    "time": 130.59529033333027,
                    "velocity": 0.2125984251968504,
                    "duration": 0.11904766666665978
                },
                {
                    "name": "G#3",
                    "midi": 56,
                    "time": 130.71433799999693,
                    "velocity": 0.23622047244094488,
                    "duration": 0.11904766666665978
                },
                {
                    "name": "D#4",
                    "midi": 63,
                    "time": 130.8333856666636,
                    "velocity": 0.2047244094488189,
                    "duration": 0.11904766666665978
                },
                {
                    "name": "G#4",
                    "midi": 68,
                    "time": 130.95243333333025,
                    "velocity": 0.2125984251968504,
                    "duration": 0.11904766666665978
                },
                {
                    "name": "C5",
                    "midi": 72,
                    "time": 131.0714809999969,
                    "velocity": 0.2204724409448819,
                    "duration": 0.11904766666665978
                },
                {
                    "name": "D#5",
                    "midi": 75,
                    "time": 131.19052866666357,
                    "velocity": 0.2283464566929134,
                    "duration": 0.11904766666665978
                },
                {
                    "name": "G#5",
                    "midi": 80,
                    "time": 131.30957633333023,
                    "velocity": 0.23622047244094488,
                    "duration": 0.11904766666665978
                },
                {
                    "name": "C6",
                    "midi": 84,
                    "time": 131.4286239999969,
                    "velocity": 0.2440944881889764,
                    "duration": 0.11904766666665978
                },
                {
                    "name": "G#5",
                    "midi": 80,
                    "time": 131.54767166666355,
                    "velocity": 0.2440944881889764,
                    "duration": 0.11904766666665978
                },
                {
                    "name": "D#5",
                    "midi": 75,
                    "time": 131.6667193333302,
                    "velocity": 0.23622047244094488,
                    "duration": 0.11904766666665978
                },
                {
                    "name": "C5",
                    "midi": 72,
                    "time": 131.78576699999687,
                    "velocity": 0.2283464566929134,
                    "duration": 0.11904766666665978
                },
                {
                    "name": "G#4",
                    "midi": 68,
                    "time": 131.90481466666353,
                    "velocity": 0.2204724409448819,
                    "duration": 0.11904766666665978
                },
                {
                    "name": "D#4",
                    "midi": 63,
                    "time": 132.0238623333302,
                    "velocity": 0.2204724409448819,
                    "duration": 0.11904766666665978
                },
                {
                    "name": "G#3",
                    "midi": 56,
                    "time": 132.14290999999685,
                    "velocity": 0.2755905511811024,
                    "duration": 0.11904766666665978
                },
                {
                    "name": "D#4",
                    "midi": 63,
                    "time": 132.2619576666635,
                    "velocity": 0.2204724409448819,
                    "duration": 0.11904766666665978
                },
                {
                    "name": "G#4",
                    "midi": 68,
                    "time": 132.38100533333017,
                    "velocity": 0.23622047244094488,
                    "duration": 0.11904766666665978
                },
                {
                    "name": "D#5",
                    "midi": 75,
                    "time": 132.50005299999683,
                    "velocity": 0.2677165354330709,
                    "duration": 0.11904766666665978
                },
                {
                    "name": "G#4",
                    "midi": 68,
                    "time": 132.61910066666348,
                    "velocity": 0.2440944881889764,
                    "duration": 0.11904766666665978
                },
                {
                    "name": "D#4",
                    "midi": 63,
                    "time": 132.73814833333014,
                    "velocity": 0.2283464566929134,
                    "duration": 0.11904766666665978
                },
                {
                    "name": "G#3",
                    "midi": 56,
                    "time": 132.8571959999968,
                    "velocity": 0.23622047244094488,
                    "duration": 0.11904766666665978
                },
                {
                    "name": "D#4",
                    "midi": 63,
                    "time": 132.97624366666346,
                    "velocity": 0.25984251968503935,
                    "duration": 0.11904766666665978
                },
                {
                    "name": "G#4",
                    "midi": 68,
                    "time": 133.09529133333012,
                    "velocity": 0.28346456692913385,
                    "duration": 0.11904766666665978
                },
                {
                    "name": "D#5",
                    "midi": 75,
                    "time": 133.21433899999678,
                    "velocity": 0.2992125984251969,
                    "duration": 0.11904766666665978
                },
                {
                    "name": "G#4",
                    "midi": 68,
                    "time": 133.33338666666344,
                    "velocity": 0.28346456692913385,
                    "duration": 0.11904766666665978
                },
                {
                    "name": "D#4",
                    "midi": 63,
                    "time": 133.4524343333301,
                    "velocity": 0.2755905511811024,
                    "duration": 0.11904766666665978
                },
                {
                    "name": "G#3",
                    "midi": 56,
                    "time": 133.57148199999676,
                    "velocity": 0.2677165354330709,
                    "duration": 0.11904766666665978
                },
                {
                    "name": "D#4",
                    "midi": 63,
                    "time": 133.69052966666342,
                    "velocity": 0.29133858267716534,
                    "duration": 0.11904766666665978
                },
                {
                    "name": "G#4",
                    "midi": 68,
                    "time": 133.80957733333008,
                    "velocity": 0.2992125984251969,
                    "duration": 0.11904766666665978
                },
                {
                    "name": "D#5",
                    "midi": 75,
                    "time": 133.92862499999674,
                    "velocity": 0.3228346456692913,
                    "duration": 0.11904766666665978
                },
                {
                    "name": "G#4",
                    "midi": 68,
                    "time": 134.0476726666634,
                    "velocity": 0.31496062992125984,
                    "duration": 0.11904766666665978
                },
                {
                    "name": "D#4",
                    "midi": 63,
                    "time": 134.16672033333006,
                    "velocity": 0.2992125984251969,
                    "duration": 0.11904766666665978
                },
                {
                    "name": "G#3",
                    "midi": 56,
                    "time": 134.28576799999672,
                    "velocity": 0.25984251968503935,
                    "duration": 0.11904766666665978
                },
                {
                    "name": "D#4",
                    "midi": 63,
                    "time": 134.40481566666338,
                    "velocity": 0.2755905511811024,
                    "duration": 0.11904766666665978
                },
                {
                    "name": "G#4",
                    "midi": 68,
                    "time": 134.52386333333004,
                    "velocity": 0.29133858267716534,
                    "duration": 0.11904766666665978
                },
                {
                    "name": "D#5",
                    "midi": 75,
                    "time": 134.6429109999967,
                    "velocity": 0.30708661417322836,
                    "duration": 0.11904766666665978
                },
                {
                    "name": "G#4",
                    "midi": 68,
                    "time": 134.76195866666336,
                    "velocity": 0.28346456692913385,
                    "duration": 0.11904766666665978
                },
                {
                    "name": "D#4",
                    "midi": 63,
                    "time": 134.88100633333002,
                    "velocity": 0.25984251968503935,
                    "duration": 0.11904766666665978
                },
                {
                    "name": "G#3",
                    "midi": 56,
                    "time": 135.00005399999668,
                    "velocity": 0.2440944881889764,
                    "duration": 0.11904766666665978
                },
                {
                    "name": "D#4",
                    "midi": 63,
                    "time": 135.11910166666334,
                    "velocity": 0.2677165354330709,
                    "duration": 0.11904766666665978
                },
                {
                    "name": "G#4",
                    "midi": 68,
                    "time": 135.23814933333,
                    "velocity": 0.28346456692913385,
                    "duration": 0.11904766666665978
                },
                {
                    "name": "D#5",
                    "midi": 75,
                    "time": 135.35719699999666,
                    "velocity": 0.29133858267716534,
                    "duration": 0.11904766666665978
                },
                {
                    "name": "G#4",
                    "midi": 68,
                    "time": 135.47624466666332,
                    "velocity": 0.2677165354330709,
                    "duration": 0.11904766666665978
                },
                {
                    "name": "D#4",
                    "midi": 63,
                    "time": 135.59529233332998,
                    "velocity": 0.2440944881889764,
                    "duration": 0.11904766666665978
                },
                {
                    "name": "G#3",
                    "midi": 56,
                    "time": 135.71433999999664,
                    "velocity": 0.2283464566929134,
                    "duration": 0.11904766666665978
                },
                {
                    "name": "D#4",
                    "midi": 63,
                    "time": 135.8333876666633,
                    "velocity": 0.2440944881889764,
                    "duration": 0.11904766666665978
                },
                {
                    "name": "G#4",
                    "midi": 68,
                    "time": 135.95243533332996,
                    "velocity": 0.2440944881889764,
                    "duration": 0.11904766666665978
                },
                {
                    "name": "D#5",
                    "midi": 75,
                    "time": 136.07148299999662,
                    "velocity": 0.25984251968503935,
                    "duration": 0.11904766666665978
                },
                {
                    "name": "G#4",
                    "midi": 68,
                    "time": 136.19053066666328,
                    "velocity": 0.2440944881889764,
                    "duration": 0.11904766666665978
                },
                {
                    "name": "D#4",
                    "midi": 63,
                    "time": 136.30957833332994,
                    "velocity": 0.2204724409448819,
                    "duration": 0.11904766666665978
                },
                {
                    "name": "G#3",
                    "midi": 56,
                    "time": 136.4286259999966,
                    "velocity": 0.2047244094488189,
                    "duration": 0.11904766666665978
                },
                {
                    "name": "D#4",
                    "midi": 63,
                    "time": 136.54767366666326,
                    "velocity": 0.2204724409448819,
                    "duration": 0.11904766666665978
                },
                {
                    "name": "G#4",
                    "midi": 68,
                    "time": 136.66672133332992,
                    "velocity": 0.2283464566929134,
                    "duration": 0.11904766666665978
                },
                {
                    "name": "D#5",
                    "midi": 75,
                    "time": 136.78576899999658,
                    "velocity": 0.23622047244094488,
                    "duration": 0.11904766666665978
                },
                {
                    "name": "G#4",
                    "midi": 68,
                    "time": 136.90481666666324,
                    "velocity": 0.2283464566929134,
                    "duration": 0.11904766666665978
                },
                {
                    "name": "D#4",
                    "midi": 63,
                    "time": 137.0238643333299,
                    "velocity": 0.2204724409448819,
                    "duration": 0.11904766666665978
                },
                {
                    "name": "G#3",
                    "midi": 56,
                    "time": 137.14291199999656,
                    "velocity": 0.2677165354330709,
                    "duration": 0.35714300000000776
                },
                {
                    "name": "C4",
                    "midi": 60,
                    "time": 137.85719799999657,
                    "velocity": 0.25984251968503935,
                    "duration": 0.35714300000000776
                },
                {
                    "name": "D#3",
                    "midi": 51,
                    "time": 137.85719799999657,
                    "velocity": 0.25984251968503935,
                    "duration": 0.35714300000000776
                },
                {
                    "name": "G#2",
                    "midi": 44,
                    "time": 137.85719799999657,
                    "velocity": 0.25984251968503935,
                    "duration": 0.35714300000000776
                },
                {
                    "name": "D2",
                    "midi": 38,
                    "time": 138.92862699999657,
                    "velocity": 0.2047244094488189,
                    "duration": 0.17857150000000388
                },
                {
                    "name": "D#2",
                    "midi": 39,
                    "time": 139.10719849999657,
                    "velocity": 0.2440944881889764,
                    "duration": 0.13392862500001002
                },
                {
                    "name": "D#2",
                    "midi": 39,
                    "time": 139.28576999999657,
                    "velocity": 0.25984251968503935,
                    "duration": 0.05952383333331568
                },
                {
                    "name": "F2",
                    "midi": 41,
                    "time": 139.3452938333299,
                    "velocity": 0.2125984251968504,
                    "duration": 0.0595238333333441
                },
                {
                    "name": "D#2",
                    "midi": 39,
                    "time": 139.40481766666323,
                    "velocity": 0.25984251968503935,
                    "duration": 0.0595238333333441
                },
                {
                    "name": "F2",
                    "midi": 41,
                    "time": 139.46434149999658,
                    "velocity": 0.2125984251968504,
                    "duration": 0.0595238333333441
                },
                {
                    "name": "D#2",
                    "midi": 39,
                    "time": 139.52386533332992,
                    "velocity": 0.25984251968503935,
                    "duration": 0.0595238333333441
                },
                {
                    "name": "F2",
                    "midi": 41,
                    "time": 139.58338916666327,
                    "velocity": 0.2125984251968504,
                    "duration": 0.0595238333333441
                },
                {
                    "name": "D#2",
                    "midi": 39,
                    "time": 139.6429129999966,
                    "velocity": 0.23622047244094488,
                    "duration": 0.0595238333333441
                },
                {
                    "name": "F2",
                    "midi": 41,
                    "time": 139.70243683332995,
                    "velocity": 0.1889763779527559,
                    "duration": 0.0595238333333441
                },
                {
                    "name": "D#2",
                    "midi": 39,
                    "time": 139.7619606666633,
                    "velocity": 0.23622047244094488,
                    "duration": 0.0595238333333441
                },
                {
                    "name": "F2",
                    "midi": 41,
                    "time": 139.82148449999664,
                    "velocity": 0.2047244094488189,
                    "duration": 0.0595238333333441
                },
                {
                    "name": "D#2",
                    "midi": 39,
                    "time": 139.88100833333,
                    "velocity": 0.23622047244094488,
                    "duration": 0.0595238333333441
                },
                {
                    "name": "F2",
                    "midi": 41,
                    "time": 139.94053216666333,
                    "velocity": 0.2047244094488189,
                    "duration": 0.0595238333333441
                },
                {
                    "name": "G#1",
                    "midi": 32,
                    "time": 140.00005599999668,
                    "velocity": 0.2204724409448819,
                    "duration": 2.8571440000000052
                },
                {
                    "name": "G#2",
                    "midi": 44,
                    "time": 140.17862749999668,
                    "velocity": 0.2440944881889764,
                    "duration": 2.6785725000000014
                },
                {
                    "name": "D#3",
                    "midi": 51,
                    "time": 140.35719899999668,
                    "velocity": 0.2755905511811024,
                    "duration": 2.5000009999999975
                }
            ],
            "controlChanges": {
                "7": [
                    {
                        "number": 7,
                        "time": 0,
                        "value": 0.7874015748031497
                    }
                ],
                "10": [
                    {
                        "number": 10,
                        "time": 0,
                        "value": 0.5039370078740157
                    }
                ],
                "64": [
                    {
                        "number": 64,
                        "time": 2.0238103333333335,
                        "value": 1
                    },
                    {
                        "number": 64,
                        "time": 6.4494073416666735,
                        "value": 0
                    },
                    {
                        "number": 64,
                        "time": 6.49702640833334,
                        "value": 1
                    },
                    {
                        "number": 64,
                        "time": 8.57143200000001,
                        "value": 0
                    },
                    {
                        "number": 64,
                        "time": 8.623515354166678,
                        "value": 1
                    },
                    {
                        "number": 64,
                        "time": 11.444945054166682,
                        "value": 0
                    },
                    {
                        "number": 64,
                        "time": 11.511909366666682,
                        "value": 1
                    },
                    {
                        "number": 64,
                        "time": 12.873517054166685,
                        "value": 0
                    },
                    {
                        "number": 64,
                        "time": 12.912207545833352,
                        "value": 1
                    },
                    {
                        "number": 64,
                        "time": 14.337803354166688,
                        "value": 0
                    },
                    {
                        "number": 64,
                        "time": 14.385422420833354,
                        "value": 1
                    },
                    {
                        "number": 64,
                        "time": 16.456851820833357,
                        "value": 0
                    },
                    {
                        "number": 64,
                        "time": 16.53423280416669,
                        "value": 1
                    },
                    {
                        "number": 64,
                        "time": 17.159233054166695,
                        "value": 0
                    },
                    {
                        "number": 64,
                        "time": 17.18899497083336,
                        "value": 1
                    },
                    {
                        "number": 64,
                        "time": 17.877983341666692,
                        "value": 0
                    },
                    {
                        "number": 64,
                        "time": 17.925602408333358,
                        "value": 1
                    },
                    {
                        "number": 64,
                        "time": 18.592269341666693,
                        "value": 0
                    },
                    {
                        "number": 64,
                        "time": 18.63095983333336,
                        "value": 1
                    },
                    {
                        "number": 64,
                        "time": 19.324412491666696,
                        "value": 0
                    },
                    {
                        "number": 64,
                        "time": 19.404769666666695,
                        "value": 1
                    },
                    {
                        "number": 64,
                        "time": 20.034234204166697,
                        "value": 0
                    },
                    {
                        "number": 64,
                        "time": 20.059531833333363,
                        "value": 1
                    },
                    {
                        "number": 64,
                        "time": 21.4449490541667,
                        "value": 0
                    },
                    {
                        "number": 64,
                        "time": 21.488103833333366,
                        "value": 1
                    },
                    {
                        "number": 64,
                        "time": 22.183044587500035,
                        "value": 0
                    },
                    {
                        "number": 64,
                        "time": 22.2619136666667,
                        "value": 1
                    },
                    {
                        "number": 64,
                        "time": 22.88096153333337,
                        "value": 0
                    },
                    {
                        "number": 64,
                        "time": 22.92560440833337,
                        "value": 1
                    },
                    {
                        "number": 64,
                        "time": 23.59822372500004,
                        "value": 0
                    },
                    {
                        "number": 64,
                        "time": 23.660723750000038,
                        "value": 1
                    },
                    {
                        "number": 64,
                        "time": 24.308045437500038,
                        "value": 0
                    },
                    {
                        "number": 64,
                        "time": 24.44346215833337,
                        "value": 1
                    },
                    {
                        "number": 64,
                        "time": 25.755962683333372,
                        "value": 0
                    },
                    {
                        "number": 64,
                        "time": 25.809534133333372,
                        "value": 1
                    },
                    {
                        "number": 64,
                        "time": 29.306559341666713,
                        "value": 0
                    },
                    {
                        "number": 64,
                        "time": 29.35417840833338,
                        "value": 1
                    },
                    {
                        "number": 64,
                        "time": 31.42858400000005,
                        "value": 0
                    },
                    {
                        "number": 64,
                        "time": 31.480667354166716,
                        "value": 1
                    },
                    {
                        "number": 64,
                        "time": 32.86608457500005,
                        "value": 0
                    },
                    {
                        "number": 64,
                        "time": 32.92560840833338,
                        "value": 1
                    },
                    {
                        "number": 64,
                        "time": 34.302097054166715,
                        "value": 0
                    },
                    {
                        "number": 64,
                        "time": 34.36906136666671,
                        "value": 1
                    },
                    {
                        "number": 64,
                        "time": 35.72918095833339,
                        "value": 0
                    },
                    {
                        "number": 64,
                        "time": 35.76935954583339,
                        "value": 1
                    },
                    {
                        "number": 64,
                        "time": 37.16519343750006,
                        "value": 0
                    },
                    {
                        "number": 64,
                        "time": 37.24257442083339,
                        "value": 1
                    },
                    {
                        "number": 64,
                        "time": 39.34823002500006,
                        "value": 0
                    },
                    {
                        "number": 64,
                        "time": 39.391384804166734,
                        "value": 1
                    },
                    {
                        "number": 64,
                        "time": 40.01638505416673,
                        "value": 0
                    },
                    {
                        "number": 64,
                        "time": 40.0461469708334,
                        "value": 1
                    },
                    {
                        "number": 64,
                        "time": 41.449421341666735,
                        "value": 0
                    },
                    {
                        "number": 64,
                        "time": 41.4881118333334,
                        "value": 1
                    },
                    {
                        "number": 64,
                        "time": 42.89138620416673,
                        "value": 0
                    },
                    {
                        "number": 64,
                        "time": 42.916683833333394,
                        "value": 1
                    },
                    {
                        "number": 64,
                        "time": 43.583350766666726,
                        "value": 0
                    },
                    {
                        "number": 64,
                        "time": 43.64882698333339,
                        "value": 1
                    },
                    {
                        "number": 64,
                        "time": 45.73513734166673,
                        "value": 0
                    },
                    {
                        "number": 64,
                        "time": 45.7827564083334,
                        "value": 1
                    },
                    {
                        "number": 64,
                        "time": 46.45537572500007,
                        "value": 0
                    },
                    {
                        "number": 64,
                        "time": 46.517875750000066,
                        "value": 1
                    },
                    {
                        "number": 64,
                        "time": 47.1756141083334,
                        "value": 0
                    },
                    {
                        "number": 64,
                        "time": 47.23216175000007,
                        "value": 1
                    },
                    {
                        "number": 64,
                        "time": 47.8765072458334,
                        "value": 0
                    },
                    {
                        "number": 64,
                        "time": 47.94644775000007,
                        "value": 1
                    },
                    {
                        "number": 64,
                        "time": 48.60865039583339,
                        "value": 0
                    },
                    {
                        "number": 64,
                        "time": 48.66073375000006,
                        "value": 1
                    },
                    {
                        "number": 64,
                        "time": 49.99406761666671,
                        "value": 0
                    },
                    {
                        "number": 64,
                        "time": 50.05210335416671,
                        "value": 1
                    },
                    {
                        "number": 64,
                        "time": 50.73662743750003,
                        "value": 0
                    },
                    {
                        "number": 64,
                        "time": 50.80359175000003,
                        "value": 1
                    },
                    {
                        "number": 64,
                        "time": 51.44347295833336,
                        "value": 0
                    },
                    {
                        "number": 64,
                        "time": 51.52383013333336,
                        "value": 1
                    },
                    {
                        "number": 64,
                        "time": 52.16371134166668,
                        "value": 0
                    },
                    {
                        "number": 64,
                        "time": 52.21133040833335,
                        "value": 1
                    },
                    {
                        "number": 64,
                        "time": 52.87353305416668,
                        "value": 0
                    },
                    {
                        "number": 64,
                        "time": 52.95537832500001,
                        "value": 1
                    },
                    {
                        "number": 64,
                        "time": 53.59228334166667,
                        "value": 0
                    },
                    {
                        "number": 64,
                        "time": 53.66520003750001,
                        "value": 1
                    },
                    {
                        "number": 64,
                        "time": 54.285736,
                        "value": 0
                    },
                    {
                        "number": 64,
                        "time": 54.33781935416667,
                        "value": 1
                    },
                    {
                        "number": 64,
                        "time": 55.72472467083332,
                        "value": 0
                    },
                    {
                        "number": 64,
                        "time": 55.77234373749999,
                        "value": 1
                    },
                    {
                        "number": 64,
                        "time": 56.44942734166664,
                        "value": 0
                    },
                    {
                        "number": 64,
                        "time": 56.55954643333331,
                        "value": 1
                    },
                    {
                        "number": 64,
                        "time": 57.15924905416664,
                        "value": 0
                    },
                    {
                        "number": 64,
                        "time": 57.226213366666634,
                        "value": 1
                    },
                    {
                        "number": 64,
                        "time": 57.864606479166625,
                        "value": 0
                    },
                    {
                        "number": 64,
                        "time": 57.94645174999996,
                        "value": 1
                    },
                    {
                        "number": 64,
                        "time": 58.555082945833284,
                        "value": 0
                    },
                    {
                        "number": 64,
                        "time": 58.62651154583328,
                        "value": 1
                    },
                    {
                        "number": 64,
                        "time": 59.28871419166661,
                        "value": 0
                    },
                    {
                        "number": 64,
                        "time": 59.39139280416661,
                        "value": 1
                    },
                    {
                        "number": 64,
                        "time": 60.00002399999993,
                        "value": 0
                    },
                    {
                        "number": 64,
                        "time": 60.080381174999935,
                        "value": 1
                    },
                    {
                        "number": 64,
                        "time": 61.44050076666658,
                        "value": 0
                    },
                    {
                        "number": 64,
                        "time": 61.50300079166658,
                        "value": 1
                    },
                    {
                        "number": 64,
                        "time": 62.1607391499999,
                        "value": 0
                    },
                    {
                        "number": 64,
                        "time": 62.24853680416656,
                        "value": 1
                    },
                    {
                        "number": 64,
                        "time": 62.87353705416656,
                        "value": 0
                    },
                    {
                        "number": 64,
                        "time": 62.90329897083323,
                        "value": 1
                    },
                    {
                        "number": 64,
                        "time": 63.59228734166656,
                        "value": 0
                    },
                    {
                        "number": 64,
                        "time": 63.63990640833323,
                        "value": 1
                    },
                    {
                        "number": 64,
                        "time": 65.02234743749983,
                        "value": 0
                    },
                    {
                        "number": 64,
                        "time": 65.06401412083316,
                        "value": 1
                    },
                    {
                        "number": 64,
                        "time": 65.73068105416645,
                        "value": 0
                    },
                    {
                        "number": 64,
                        "time": 65.76044297083313,
                        "value": 1
                    },
                    {
                        "number": 64,
                        "time": 66.44943134166643,
                        "value": 0
                    },
                    {
                        "number": 64,
                        "time": 66.4970504083331,
                        "value": 1
                    },
                    {
                        "number": 64,
                        "time": 67.87651524583302,
                        "value": 0
                    },
                    {
                        "number": 64,
                        "time": 67.92115812083301,
                        "value": 1
                    },
                    {
                        "number": 64,
                        "time": 68.5878250541663,
                        "value": 0
                    },
                    {
                        "number": 64,
                        "time": 68.61758697083297,
                        "value": 1
                    },
                    {
                        "number": 64,
                        "time": 69.30657534166627,
                        "value": 0
                    },
                    {
                        "number": 64,
                        "time": 69.35419440833294,
                        "value": 1
                    },
                    {
                        "number": 64,
                        "time": 70.74258782083287,
                        "value": 0
                    },
                    {
                        "number": 64,
                        "time": 70.77830212083286,
                        "value": 1
                    },
                    {
                        "number": 64,
                        "time": 71.44496905416615,
                        "value": 0
                    },
                    {
                        "number": 64,
                        "time": 71.47473097083282,
                        "value": 1
                    },
                    {
                        "number": 64,
                        "time": 72.87800534166608,
                        "value": 0
                    },
                    {
                        "number": 64,
                        "time": 72.91669583333275,
                        "value": 1
                    },
                    {
                        "number": 64,
                        "time": 73.59675562916605,
                        "value": 0
                    },
                    {
                        "number": 64,
                        "time": 73.63544612083273,
                        "value": 1
                    },
                    {
                        "number": 64,
                        "time": 74.30211305416601,
                        "value": 0
                    },
                    {
                        "number": 64,
                        "time": 74.33187497083269,
                        "value": 1
                    },
                    {
                        "number": 64,
                        "time": 75.00598238333265,
                        "value": 0
                    },
                    {
                        "number": 64,
                        "time": 75.05806573749932,
                        "value": 1
                    },
                    {
                        "number": 64,
                        "time": 77.15925705416586,
                        "value": 0
                    },
                    {
                        "number": 64,
                        "time": 77.18901897083254,
                        "value": 1
                    },
                    {
                        "number": 64,
                        "time": 77.87949543749916,
                        "value": 0
                    },
                    {
                        "number": 64,
                        "time": 77.91967402499915,
                        "value": 1
                    },
                    {
                        "number": 64,
                        "time": 80.0164010541657,
                        "value": 0
                    },
                    {
                        "number": 64,
                        "time": 80.04616297083237,
                        "value": 1
                    },
                    {
                        "number": 64,
                        "time": 80.741103724999,
                        "value": 0
                    },
                    {
                        "number": 64,
                        "time": 80.77681802499899,
                        "value": 1
                    },
                    {
                        "number": 64,
                        "time": 81.42860399999896,
                        "value": 0
                    },
                    {
                        "number": 64,
                        "time": 81.48812783333229,
                        "value": 1
                    },
                    {
                        "number": 64,
                        "time": 82.16669953333225,
                        "value": 0
                    },
                    {
                        "number": 64,
                        "time": 82.20687812083224,
                        "value": 1
                    },
                    {
                        "number": 64,
                        "time": 82.87354505416553,
                        "value": 0
                    },
                    {
                        "number": 64,
                        "time": 82.9033069708322,
                        "value": 1
                    },
                    {
                        "number": 64,
                        "time": 83.59527153333222,
                        "value": 0
                    },
                    {
                        "number": 64,
                        "time": 83.6339620249989,
                        "value": 1
                    },
                    {
                        "number": 64,
                        "time": 84.29467657499887,
                        "value": 0
                    },
                    {
                        "number": 64,
                        "time": 84.37056946249888,
                        "value": 1
                    },
                    {
                        "number": 64,
                        "time": 85.73068905416554,
                        "value": 0
                    },
                    {
                        "number": 64,
                        "time": 85.76045097083221,
                        "value": 1
                    },
                    {
                        "number": 64,
                        "time": 86.43455838333217,
                        "value": 0
                    },
                    {
                        "number": 64,
                        "time": 86.48664173749884,
                        "value": 1
                    },
                    {
                        "number": 64,
                        "time": 87.16670153333214,
                        "value": 0
                    },
                    {
                        "number": 64,
                        "time": 87.20688012083214,
                        "value": 1
                    },
                    {
                        "number": 64,
                        "time": 88.57146399999873,
                        "value": 0
                    },
                    {
                        "number": 64,
                        "time": 88.63396402499873,
                        "value": 1
                    },
                    {
                        "number": 64,
                        "time": 89.30658334166537,
                        "value": 0
                    },
                    {
                        "number": 64,
                        "time": 89.3705714624987,
                        "value": 1
                    },
                    {
                        "number": 64,
                        "time": 91.45390562916526,
                        "value": 0
                    },
                    {
                        "number": 64,
                        "time": 91.49706040833193,
                        "value": 1
                    },
                    {
                        "number": 64,
                        "time": 92.88098953333193,
                        "value": 0
                    },
                    {
                        "number": 64,
                        "time": 92.9464657499986,
                        "value": 1
                    },
                    {
                        "number": 64,
                        "time": 93.58188267083194,
                        "value": 0
                    },
                    {
                        "number": 64,
                        "time": 93.66670413333195,
                        "value": 1
                    },
                    {
                        "number": 64,
                        "time": 94.30658534166525,
                        "value": 0
                    },
                    {
                        "number": 64,
                        "time": 94.34527583333193,
                        "value": 1
                    },
                    {
                        "number": 64,
                        "time": 95.70837161666526,
                        "value": 0
                    },
                    {
                        "number": 64,
                        "time": 95.76640735416527,
                        "value": 1
                    },
                    {
                        "number": 64,
                        "time": 97.15777695833194,
                        "value": 0
                    },
                    {
                        "number": 64,
                        "time": 97.20241983333193,
                        "value": 1
                    },
                    {
                        "number": 64,
                        "time": 98.58486086249859,
                        "value": 0
                    },
                    {
                        "number": 64,
                        "time": 98.62355135416526,
                        "value": 1
                    },
                    {
                        "number": 64,
                        "time": 100.01640905416522,
                        "value": 0
                    },
                    {
                        "number": 64,
                        "time": 100.0461709708319,
                        "value": 1
                    },
                    {
                        "number": 64,
                        "time": 101.45242153333182,
                        "value": 0
                    },
                    {
                        "number": 64,
                        "time": 101.49260012083181,
                        "value": 1
                    },
                    {
                        "number": 64,
                        "time": 102.1592670541651,
                        "value": 0
                    },
                    {
                        "number": 64,
                        "time": 102.22771946249843,
                        "value": 1
                    },
                    {
                        "number": 64,
                        "time": 102.86313638333174,
                        "value": 0
                    },
                    {
                        "number": 64,
                        "time": 102.90480306666507,
                        "value": 1
                    },
                    {
                        "number": 64,
                        "time": 103.5908152458317,
                        "value": 0
                    },
                    {
                        "number": 64,
                        "time": 103.66670813333171,
                        "value": 1
                    },
                    {
                        "number": 64,
                        "time": 105.73069705416492,
                        "value": 0
                    },
                    {
                        "number": 64,
                        "time": 105.76045897083159,
                        "value": 1
                    },
                    {
                        "number": 64,
                        "time": 106.43456638333156,
                        "value": 0
                    },
                    {
                        "number": 64,
                        "time": 106.48664973749823,
                        "value": 1
                    },
                    {
                        "number": 64,
                        "time": 108.58784105416477,
                        "value": 0
                    },
                    {
                        "number": 64,
                        "time": 108.62355535416476,
                        "value": 1
                    },
                    {
                        "number": 64,
                        "time": 109.29468657499807,
                        "value": 0
                    },
                    {
                        "number": 64,
                        "time": 109.36016279166473,
                        "value": 1
                    },
                    {
                        "number": 64,
                        "time": 111.4449850541646,
                        "value": 0
                    },
                    {
                        "number": 64,
                        "time": 111.47474697083128,
                        "value": 1
                    },
                    {
                        "number": 64,
                        "time": 112.14885438333124,
                        "value": 0
                    },
                    {
                        "number": 64,
                        "time": 112.20093773749791,
                        "value": 1
                    },
                    {
                        "number": 64,
                        "time": 114.30212905416445,
                        "value": 0
                    },
                    {
                        "number": 64,
                        "time": 114.36462907916446,
                        "value": 1
                    },
                    {
                        "number": 64,
                        "time": 116.43754657499767,
                        "value": 0
                    },
                    {
                        "number": 64,
                        "time": 116.53873709166433,
                        "value": 1
                    },
                    {
                        "number": 64,
                        "time": 117.14290399999763,
                        "value": 0
                    },
                    {
                        "number": 64,
                        "time": 117.20540402499763,
                        "value": 1
                    },
                    {
                        "number": 64,
                        "time": 117.87207095833094,
                        "value": 0
                    },
                    {
                        "number": 64,
                        "time": 117.95242813333094,
                        "value": 1
                    },
                    {
                        "number": 64,
                        "time": 118.59528553333091,
                        "value": 0
                    },
                    {
                        "number": 64,
                        "time": 118.70242843333091,
                        "value": 1
                    },
                    {
                        "number": 64,
                        "time": 119.30659534166422,
                        "value": 0
                    },
                    {
                        "number": 64,
                        "time": 119.37058346249755,
                        "value": 1
                    },
                    {
                        "number": 64,
                        "time": 120.01641705416418,
                        "value": 0
                    },
                    {
                        "number": 64,
                        "time": 120.04766706666418,
                        "value": 1
                    },
                    {
                        "number": 64,
                        "time": 125.73516934166386,
                        "value": 0
                    },
                    {
                        "number": 64,
                        "time": 125.7723717374972,
                        "value": 1
                    },
                    {
                        "number": 64,
                        "time": 138.2872576958299,
                        "value": 0
                    },
                    {
                        "number": 64,
                        "time": 139.3095795333299,
                        "value": 1
                    },
                    {
                        "number": 64,
                        "time": 140.00005599999668,
                        "value": 0
                    },
                    {
                        "number": 64,
                        "time": 140.08487746249668,
                        "value": 1
                    },
                    {
                        "number": 64,
                        "time": 142.85719999999668,
                        "value": 0
                    }
                ]
            },
            "id": 3,
            "name": "Piano left",
            "instrumentNumber": 0,
            "instrument": "acoustic grand piano",
            "instrumentFamily": "piano",
            "channelNumber": 0,
            "isPercussion": false
        },
        {
            "startTime": 0,
            "duration": 0,
            "length": 0,
            "notes": [],
            "controlChanges": {},
            "id": 4,
            "name": "Chopin: Etude No.1 in Bb Major Op. 25"
        },
        {
            "startTime": 0,
            "duration": 0,
            "length": 0,
            "notes": [],
            "controlChanges": {},
            "id": 5,
            "name": "Copyright  2002 by Bernd Krueger"
        },
        {
            "startTime": 0,
            "duration": 0,
            "length": 0,
            "notes": [],
            "controlChanges": {},
            "id": 6,
            "name": "http://www.piano-midi.de"
        },
        {
            "startTime": 0,
            "duration": 0,
            "length": 0,
            "notes": [],
            "controlChanges": {},
            "id": 7,
            "name": "Edition: 2014-05-08"
        },
        {
            "startTime": 0,
            "duration": 0,
            "length": 0,
            "notes": [],
            "controlChanges": {},
            "id": 8,
            "name": "Spur 8"
        }
    ]
}