{
    "header": {
        "PPQ": 480,
        "timeSignature": [
            4,
            4
        ],
        "bpm": 57.450023267259425,
        "name": "Trauermarsch"
    },
    "startTime": 0,
    "duration": 451.17475199999984,
    "tracks": [
        {
            "startTime": 0,
            "duration": 0,
            "length": 0,
            "notes": [],
            "controlChanges": {},
            "id": 0,
            "name": "Trauermarsch"
        },
        {
            "startTime": 0,
            "duration": 451.17475199999893,
            "length": 1087,
            "notes": [
                {
                    "name": "F3",
                    "midi": 53,
                    "time": 0,
                    "velocity": 0.2677165354330709,
                    "duration": 1.044386
                },
                {
                    "name": "A#3",
                    "midi": 58,
                    "time": 0,
                    "velocity": 0.31496062992125984,
                    "duration": 1.044386
                },
                {
                    "name": "F#3",
                    "midi": 54,
                    "time": 1.044386,
                    "velocity": 0.2677165354330709,
                    "duration": 1.044386
                },
                {
                    "name": "A#3",
                    "midi": 58,
                    "time": 1.044386,
                    "velocity": 0.31496062992125984,
                    "duration": 0.7832895
                },
                {
                    "name": "A#3",
                    "midi": 58,
                    "time": 1.8276755,
                    "velocity": 0.28346456692913385,
                    "duration": 0.26109650000000006
                },
                {
                    "name": "F3",
                    "midi": 53,
                    "time": 2.088772,
                    "velocity": 0.2677165354330709,
                    "duration": 1.0443859999999998
                },
                {
                    "name": "A#3",
                    "midi": 58,
                    "time": 2.088772,
                    "velocity": 0.31496062992125984,
                    "duration": 2.088772
                },
                {
                    "name": "F#3",
                    "midi": 54,
                    "time": 3.133158,
                    "velocity": 0.2204724409448819,
                    "duration": 1.0443860000000003
                },
                {
                    "name": "F3",
                    "midi": 53,
                    "time": 4.177544,
                    "velocity": 0.2677165354330709,
                    "duration": 1.0443860000000003
                },
                {
                    "name": "A#3",
                    "midi": 58,
                    "time": 4.177544,
                    "velocity": 0.31496062992125984,
                    "duration": 1.0443860000000003
                },
                {
                    "name": "F#3",
                    "midi": 54,
                    "time": 5.22193,
                    "velocity": 0.2677165354330709,
                    "duration": 1.0443860000000003
                },
                {
                    "name": "A#3",
                    "midi": 58,
                    "time": 5.22193,
                    "velocity": 0.31496062992125984,
                    "duration": 0.7832895000000004
                },
                {
                    "name": "A#3",
                    "midi": 58,
                    "time": 6.005219500000001,
                    "velocity": 0.28346456692913385,
                    "duration": 0.26109649999999984
                },
                {
                    "name": "F3",
                    "midi": 53,
                    "time": 6.266316000000001,
                    "velocity": 0.2677165354330709,
                    "duration": 1.0443860000000003
                },
                {
                    "name": "A#3",
                    "midi": 58,
                    "time": 6.266316000000001,
                    "velocity": 0.31496062992125984,
                    "duration": 2.0887719999999996
                },
                {
                    "name": "F#3",
                    "midi": 54,
                    "time": 7.310702000000001,
                    "velocity": 0.2204724409448819,
                    "duration": 1.0443859999999994
                },
                {
                    "name": "F3",
                    "midi": 53,
                    "time": 8.355088,
                    "velocity": 0.2677165354330709,
                    "duration": 1.0443859999999994
                },
                {
                    "name": "A#3",
                    "midi": 58,
                    "time": 8.355088,
                    "velocity": 0.31496062992125984,
                    "duration": 1.0443859999999994
                },
                {
                    "name": "F#3",
                    "midi": 54,
                    "time": 9.399474,
                    "velocity": 0.2677165354330709,
                    "duration": 1.0443860000000011
                },
                {
                    "name": "A#3",
                    "midi": 58,
                    "time": 9.399474,
                    "velocity": 0.31496062992125984,
                    "duration": 0.7832895000000004
                },
                {
                    "name": "A#3",
                    "midi": 58,
                    "time": 10.1827635,
                    "velocity": 0.28346456692913385,
                    "duration": 0.2349868500000003
                },
                {
                    "name": "F3",
                    "midi": 53,
                    "time": 10.44386,
                    "velocity": 0.2677165354330709,
                    "duration": 1.0443859999999994
                },
                {
                    "name": "A#3",
                    "midi": 58,
                    "time": 10.44386,
                    "velocity": 0.31496062992125984,
                    "duration": 1.0443859999999994
                },
                {
                    "name": "C#4",
                    "midi": 61,
                    "time": 11.488246,
                    "velocity": 0.3858267716535433,
                    "duration": 0.7832895000000004
                },
                {
                    "name": "F#3",
                    "midi": 54,
                    "time": 11.488246,
                    "velocity": 0.30708661417322836,
                    "duration": 1.0443860000000011
                },
                {
                    "name": "C4",
                    "midi": 60,
                    "time": 12.2715355,
                    "velocity": 0.3543307086614173,
                    "duration": 0.2349868500000003
                },
                {
                    "name": "C4",
                    "midi": 60,
                    "time": 12.532632000000001,
                    "velocity": 0.3779527559055118,
                    "duration": 0.7832895000000004
                },
                {
                    "name": "F3",
                    "midi": 53,
                    "time": 12.532632000000001,
                    "velocity": 0.30708661417322836,
                    "duration": 1.0443860000000011
                },
                {
                    "name": "A#3",
                    "midi": 58,
                    "time": 13.315921500000002,
                    "velocity": 0.33070866141732286,
                    "duration": 0.2349868500000003
                },
                {
                    "name": "F#3",
                    "midi": 54,
                    "time": 13.577018000000002,
                    "velocity": 0.29133858267716534,
                    "duration": 1.0443860000000011
                },
                {
                    "name": "A#3",
                    "midi": 58,
                    "time": 13.577018000000002,
                    "velocity": 0.3464566929133858,
                    "duration": 0.7832895000000004
                },
                {
                    "name": "A#3",
                    "midi": 58,
                    "time": 14.360307500000003,
                    "velocity": 0.28346456692913385,
                    "duration": 0.2349868500000003
                },
                {
                    "name": "F3",
                    "midi": 53,
                    "time": 14.621404000000004,
                    "velocity": 0.2677165354330709,
                    "duration": 1.0443859999999994
                },
                {
                    "name": "A#3",
                    "midi": 58,
                    "time": 14.621404000000004,
                    "velocity": 0.31496062992125984,
                    "duration": 2.0887720000000005
                },
                {
                    "name": "F#3",
                    "midi": 54,
                    "time": 15.665790000000003,
                    "velocity": 0.2204724409448819,
                    "duration": 1.0443860000000011
                },
                {
                    "name": "A#3",
                    "midi": 58,
                    "time": 16.710176000000004,
                    "velocity": 0.33070866141732286,
                    "duration": 1.0443859999999994
                },
                {
                    "name": "F3",
                    "midi": 53,
                    "time": 16.710176000000004,
                    "velocity": 0.33070866141732286,
                    "duration": 1.0443859999999994
                },
                {
                    "name": "C#4",
                    "midi": 61,
                    "time": 16.710176000000004,
                    "velocity": 0.3937007874015748,
                    "duration": 1.0443859999999994
                },
                {
                    "name": "A#3",
                    "midi": 58,
                    "time": 17.754562000000004,
                    "velocity": 0.33070866141732286,
                    "duration": 1.0443859999999958
                },
                {
                    "name": "F#3",
                    "midi": 54,
                    "time": 17.754562000000004,
                    "velocity": 0.33070866141732286,
                    "duration": 1.0443859999999958
                },
                {
                    "name": "C#4",
                    "midi": 61,
                    "time": 17.754562000000004,
                    "velocity": 0.3937007874015748,
                    "duration": 0.7832894999999986
                },
                {
                    "name": "C#4",
                    "midi": 61,
                    "time": 18.537851500000002,
                    "velocity": 0.3543307086614173,
                    "duration": 0.23498684999999853
                },
                {
                    "name": "A#3",
                    "midi": 58,
                    "time": 18.798948,
                    "velocity": 0.33070866141732286,
                    "duration": 1.0443859999999994
                },
                {
                    "name": "F3",
                    "midi": 53,
                    "time": 18.798948,
                    "velocity": 0.33070866141732286,
                    "duration": 1.0443859999999994
                },
                {
                    "name": "C#4",
                    "midi": 61,
                    "time": 18.798948,
                    "velocity": 0.3937007874015748,
                    "duration": 1.0443859999999994
                },
                {
                    "name": "F4",
                    "midi": 65,
                    "time": 19.843334,
                    "velocity": 0.4645669291338583,
                    "duration": 0.7832894999999986
                },
                {
                    "name": "C#4",
                    "midi": 61,
                    "time": 19.843334,
                    "velocity": 0.4094488188976378,
                    "duration": 0.7832894999999986
                },
                {
                    "name": "F#3",
                    "midi": 54,
                    "time": 19.843334,
                    "velocity": 0.3779527559055118,
                    "duration": 1.0443859999999994
                },
                {
                    "name": "D#4",
                    "midi": 63,
                    "time": 20.626623499999997,
                    "velocity": 0.41732283464566927,
                    "duration": 0.13054825000000037
                },
                {
                    "name": "C4",
                    "midi": 60,
                    "time": 20.626623499999997,
                    "velocity": 0.3700787401574803,
                    "duration": 0.13054825000000037
                },
                {
                    "name": "F4",
                    "midi": 65,
                    "time": 20.757171749999998,
                    "velocity": 0.3779527559055118,
                    "duration": 0.13054825000000037
                },
                {
                    "name": "D#4",
                    "midi": 63,
                    "time": 20.887719999999998,
                    "velocity": 0.44881889763779526,
                    "duration": 0.7832894999999986
                },
                {
                    "name": "C4",
                    "midi": 60,
                    "time": 20.887719999999998,
                    "velocity": 0.4015748031496063,
                    "duration": 0.7832894999999986
                },
                {
                    "name": "F3",
                    "midi": 53,
                    "time": 20.887719999999998,
                    "velocity": 0.3779527559055118,
                    "duration": 1.0443859999999958
                },
                {
                    "name": "C#4",
                    "midi": 61,
                    "time": 21.671009499999997,
                    "velocity": 0.3937007874015748,
                    "duration": 0.23498684999999853
                },
                {
                    "name": "A#3",
                    "midi": 58,
                    "time": 21.671009499999997,
                    "velocity": 0.3543307086614173,
                    "duration": 0.23498684999999853
                },
                {
                    "name": "C#4",
                    "midi": 61,
                    "time": 21.932105999999994,
                    "velocity": 0.4330708661417323,
                    "duration": 0.7832894999999986
                },
                {
                    "name": "F#3",
                    "midi": 54,
                    "time": 21.932105999999994,
                    "velocity": 0.36220472440944884,
                    "duration": 1.0443859999999958
                },
                {
                    "name": "A#3",
                    "midi": 58,
                    "time": 21.932105999999994,
                    "velocity": 0.3779527559055118,
                    "duration": 0.7832894999999986
                },
                {
                    "name": "C#4",
                    "midi": 61,
                    "time": 22.715395499999993,
                    "velocity": 0.3543307086614173,
                    "duration": 0.23498684999999853
                },
                {
                    "name": "A#3",
                    "midi": 58,
                    "time": 22.715395499999993,
                    "velocity": 0.30708661417322836,
                    "duration": 0.23498684999999853
                },
                {
                    "name": "C#4",
                    "midi": 61,
                    "time": 22.97649199999999,
                    "velocity": 0.3937007874015748,
                    "duration": 2.0887719999999987
                },
                {
                    "name": "F3",
                    "midi": 53,
                    "time": 22.97649199999999,
                    "velocity": 0.33070866141732286,
                    "duration": 1.0443859999999994
                },
                {
                    "name": "A#3",
                    "midi": 58,
                    "time": 22.97649199999999,
                    "velocity": 0.3543307086614173,
                    "duration": 2.0887719999999987
                },
                {
                    "name": "F#3",
                    "midi": 54,
                    "time": 24.02087799999999,
                    "velocity": 0.2755905511811024,
                    "duration": 1.0443859999999994
                },
                {
                    "name": "C#4",
                    "midi": 61,
                    "time": 25.06526399999999,
                    "velocity": 0.4566929133858268,
                    "duration": 0.9138377500000026
                },
                {
                    "name": "A#4",
                    "midi": 70,
                    "time": 25.06526399999999,
                    "velocity": 0.5748031496062992,
                    "duration": 0.5221930000000015
                },
                {
                    "name": "A#3",
                    "midi": 58,
                    "time": 25.06526399999999,
                    "velocity": 0.4566929133858268,
                    "duration": 0.9138377500000026
                },
                {
                    "name": "G#4",
                    "midi": 68,
                    "time": 25.58745699999999,
                    "velocity": 0.5196850393700787,
                    "duration": 0.3916447500000011
                },
                {
                    "name": "G#4",
                    "midi": 68,
                    "time": 25.97910174999999,
                    "velocity": 0.4566929133858268,
                    "duration": 0.13054825000000037
                },
                {
                    "name": "C#4",
                    "midi": 61,
                    "time": 26.10964999999999,
                    "velocity": 0.4330708661417323,
                    "duration": 1.0443859999999958
                },
                {
                    "name": "F#4",
                    "midi": 66,
                    "time": 26.10964999999999,
                    "velocity": 0.48031496062992124,
                    "duration": 0.7832894999999986
                },
                {
                    "name": "A#3",
                    "midi": 58,
                    "time": 26.10964999999999,
                    "velocity": 0.4330708661417323,
                    "duration": 1.0443859999999958
                },
                {
                    "name": "F4",
                    "midi": 65,
                    "time": 26.89293949999999,
                    "velocity": 0.41732283464566927,
                    "duration": 0.23498684999999853
                },
                {
                    "name": "A#3",
                    "midi": 58,
                    "time": 27.154035999999987,
                    "velocity": 0.3937007874015748,
                    "duration": 1.0443859999999994
                },
                {
                    "name": "F4",
                    "midi": 65,
                    "time": 27.154035999999987,
                    "velocity": 0.4645669291338583,
                    "duration": 1.0443859999999994
                },
                {
                    "name": "C#4",
                    "midi": 61,
                    "time": 27.154035999999987,
                    "velocity": 0.3937007874015748,
                    "duration": 1.0443859999999994
                },
                {
                    "name": "A#3",
                    "midi": 58,
                    "time": 28.198421999999987,
                    "velocity": 0.33070866141732286,
                    "duration": 1.0443859999999994
                },
                {
                    "name": "C#4",
                    "midi": 61,
                    "time": 28.198421999999987,
                    "velocity": 0.4015748031496063,
                    "duration": 1.0443859999999994
                },
                {
                    "name": "C#4",
                    "midi": 61,
                    "time": 29.242807999999986,
                    "velocity": 0.4566929133858268,
                    "duration": 0.9138377500000026
                },
                {
                    "name": "A#4",
                    "midi": 70,
                    "time": 29.242807999999986,
                    "velocity": 0.5748031496062992,
                    "duration": 0.5221930000000015
                },
                {
                    "name": "A#3",
                    "midi": 58,
                    "time": 29.242807999999986,
                    "velocity": 0.4566929133858268,
                    "duration": 0.9138377500000026
                },
                {
                    "name": "G#4",
                    "midi": 68,
                    "time": 29.765000999999987,
                    "velocity": 0.5118110236220472,
                    "duration": 0.3916447500000011
                },
                {
                    "name": "G#4",
                    "midi": 68,
                    "time": 30.15664574999999,
                    "velocity": 0.4566929133858268,
                    "duration": 0.13054825000000037
                },
                {
                    "name": "C#4",
                    "midi": 61,
                    "time": 30.28719399999999,
                    "velocity": 0.4330708661417323,
                    "duration": 1.0443859999999958
                },
                {
                    "name": "F#4",
                    "midi": 66,
                    "time": 30.28719399999999,
                    "velocity": 0.48031496062992124,
                    "duration": 0.7832894999999986
                },
                {
                    "name": "A#3",
                    "midi": 58,
                    "time": 30.28719399999999,
                    "velocity": 0.4330708661417323,
                    "duration": 1.0443859999999958
                },
                {
                    "name": "F4",
                    "midi": 65,
                    "time": 31.070483499999987,
                    "velocity": 0.4251968503937008,
                    "duration": 0.23498684999999853
                },
                {
                    "name": "A#3",
                    "midi": 58,
                    "time": 31.331579999999985,
                    "velocity": 0.3937007874015748,
                    "duration": 1.0443859999999994
                },
                {
                    "name": "F4",
                    "midi": 65,
                    "time": 31.331579999999985,
                    "velocity": 0.4645669291338583,
                    "duration": 1.0443859999999994
                },
                {
                    "name": "C#4",
                    "midi": 61,
                    "time": 31.331579999999985,
                    "velocity": 0.3937007874015748,
                    "duration": 1.0443859999999994
                },
                {
                    "name": "A#3",
                    "midi": 58,
                    "time": 32.375965999999984,
                    "velocity": 0.33070866141732286,
                    "duration": 1.044386000000003
                },
                {
                    "name": "C#4",
                    "midi": 61,
                    "time": 32.375965999999984,
                    "velocity": 0.4015748031496063,
                    "duration": 1.044386000000003
                },
                {
                    "name": "F3",
                    "midi": 53,
                    "time": 33.42035199999999,
                    "velocity": 0.30708661417322836,
                    "duration": 1.044386000000003
                },
                {
                    "name": "A#3",
                    "midi": 58,
                    "time": 33.42035199999999,
                    "velocity": 0.36220472440944884,
                    "duration": 1.044386000000003
                },
                {
                    "name": "F#3",
                    "midi": 54,
                    "time": 34.46473799999999,
                    "velocity": 0.30708661417322836,
                    "duration": 1.044386000000003
                },
                {
                    "name": "A#3",
                    "midi": 58,
                    "time": 34.46473799999999,
                    "velocity": 0.36220472440944884,
                    "duration": 0.7832895000000022
                },
                {
                    "name": "A#3",
                    "midi": 58,
                    "time": 35.24802749999999,
                    "velocity": 0.3228346456692913,
                    "duration": 0.23498684999999853
                },
                {
                    "name": "A#3",
                    "midi": 58,
                    "time": 35.50912399999999,
                    "velocity": 0.36220472440944884,
                    "duration": 1.044386000000003
                },
                {
                    "name": "F3",
                    "midi": 53,
                    "time": 35.50912399999999,
                    "velocity": 0.30708661417322836,
                    "duration": 1.044386000000003
                },
                {
                    "name": "C#4",
                    "midi": 61,
                    "time": 36.553509999999996,
                    "velocity": 0.4251968503937008,
                    "duration": 0.7832895000000022
                },
                {
                    "name": "F#3",
                    "midi": 54,
                    "time": 36.553509999999996,
                    "velocity": 0.3464566929133858,
                    "duration": 1.0443859999999958
                },
                {
                    "name": "C4",
                    "midi": 60,
                    "time": 37.3367995,
                    "velocity": 0.3858267716535433,
                    "duration": 0.1305482499999968
                },
                {
                    "name": "C#4",
                    "midi": 61,
                    "time": 37.467347749999995,
                    "velocity": 0.3543307086614173,
                    "duration": 0.1305482499999968
                },
                {
                    "name": "C4",
                    "midi": 60,
                    "time": 37.59789599999999,
                    "velocity": 0.4094488188976378,
                    "duration": 0.7832895000000022
                },
                {
                    "name": "F3",
                    "midi": 53,
                    "time": 37.59789599999999,
                    "velocity": 0.3464566929133858,
                    "duration": 1.044386000000003
                },
                {
                    "name": "A#3",
                    "midi": 58,
                    "time": 38.381185499999994,
                    "velocity": 0.36220472440944884,
                    "duration": 0.23498684999999853
                },
                {
                    "name": "F#3",
                    "midi": 54,
                    "time": 38.642281999999994,
                    "velocity": 0.33070866141732286,
                    "duration": 1.044386000000003
                },
                {
                    "name": "A#3",
                    "midi": 58,
                    "time": 38.642281999999994,
                    "velocity": 0.3937007874015748,
                    "duration": 0.7832895000000022
                },
                {
                    "name": "A#3",
                    "midi": 58,
                    "time": 39.4255715,
                    "velocity": 0.3228346456692913,
                    "duration": 0.23498684999999853
                },
                {
                    "name": "F3",
                    "midi": 53,
                    "time": 39.686668,
                    "velocity": 0.30708661417322836,
                    "duration": 1.044386000000003
                },
                {
                    "name": "A#3",
                    "midi": 58,
                    "time": 39.686668,
                    "velocity": 0.36220472440944884,
                    "duration": 2.088772000000006
                },
                {
                    "name": "F#3",
                    "midi": 54,
                    "time": 40.731054,
                    "velocity": 0.25196850393700787,
                    "duration": 1.044386000000003
                },
                {
                    "name": "C#5",
                    "midi": 73,
                    "time": 41.77544,
                    "velocity": 0.5354330708661418,
                    "duration": 1.0008699166666588
                },
                {
                    "name": "A#5",
                    "midi": 82,
                    "time": 41.77544,
                    "velocity": 0.6535433070866141,
                    "duration": 0.5221930000000015
                },
                {
                    "name": "A#4",
                    "midi": 70,
                    "time": 41.77544,
                    "velocity": 0.5354330708661418,
                    "duration": 0.5221930000000015
                },
                {
                    "name": "G#4",
                    "midi": 68,
                    "time": 42.297633000000005,
                    "velocity": 0.4409448818897638,
                    "duration": 0.39164474999999754
                },
                {
                    "name": "G#5",
                    "midi": 80,
                    "time": 42.297633000000005,
                    "velocity": 0.5748031496062992,
                    "duration": 0.39164474999999754
                },
                {
                    "name": "G#4",
                    "midi": 68,
                    "time": 42.68927775,
                    "velocity": 0.5039370078740157,
                    "duration": 0.0435160833333299
                },
                {
                    "name": "C#5",
                    "midi": 73,
                    "time": 42.73279383333333,
                    "velocity": 0.44881889763779526,
                    "duration": 1.1314181666666627
                },
                {
                    "name": "G#5",
                    "midi": 80,
                    "time": 42.77630991666666,
                    "velocity": 0.4645669291338583,
                    "duration": 0.0435160833333299
                },
                {
                    "name": "C#5",
                    "midi": 73,
                    "time": 42.81982599999999,
                    "velocity": 0.5826771653543307,
                    "duration": 1.044386000000003
                },
                {
                    "name": "F#5",
                    "midi": 78,
                    "time": 42.81982599999999,
                    "velocity": 0.5748031496062992,
                    "duration": 0.7832895000000022
                },
                {
                    "name": "F#4",
                    "midi": 66,
                    "time": 42.81982599999999,
                    "velocity": 0.48031496062992124,
                    "duration": 1.044386000000003
                },
                {
                    "name": "F4",
                    "midi": 65,
                    "time": 43.603115499999994,
                    "velocity": 0.4094488188976378,
                    "duration": 0.23498684999999853
                },
                {
                    "name": "F5",
                    "midi": 77,
                    "time": 43.603115499999994,
                    "velocity": 0.48031496062992124,
                    "duration": 0.23498684999999853
                },
                {
                    "name": "F4",
                    "midi": 65,
                    "time": 43.864211999999995,
                    "velocity": 0.4566929133858268,
                    "duration": 1.044386000000003
                },
                {
                    "name": "F5",
                    "midi": 77,
                    "time": 43.864211999999995,
                    "velocity": 0.5433070866141733,
                    "duration": 1.044386000000003
                },
                {
                    "name": "C#5",
                    "midi": 73,
                    "time": 43.864211999999995,
                    "velocity": 0.5433070866141733,
                    "duration": 1.044386000000003
                },
                {
                    "name": "C#5",
                    "midi": 73,
                    "time": 44.908598,
                    "velocity": 0.5354330708661418,
                    "duration": 1.044386000000003
                },
                {
                    "name": "C#4",
                    "midi": 61,
                    "time": 44.908598,
                    "velocity": 0.44881889763779526,
                    "duration": 1.044386000000003
                },
                {
                    "name": "A#4",
                    "midi": 70,
                    "time": 44.908598,
                    "velocity": 0.5354330708661418,
                    "duration": 1.044386000000003
                },
                {
                    "name": "C#5",
                    "midi": 73,
                    "time": 45.952984,
                    "velocity": 0.5354330708661418,
                    "duration": 1.0008699166666588
                },
                {
                    "name": "A#5",
                    "midi": 82,
                    "time": 45.952984,
                    "velocity": 0.6535433070866141,
                    "duration": 0.5221930000000015
                },
                {
                    "name": "A#4",
                    "midi": 70,
                    "time": 45.952984,
                    "velocity": 0.5354330708661418,
                    "duration": 0.5221930000000015
                },
                {
                    "name": "G#4",
                    "midi": 68,
                    "time": 46.475177,
                    "velocity": 0.4409448818897638,
                    "duration": 0.39164474999999754
                },
                {
                    "name": "G#5",
                    "midi": 80,
                    "time": 46.475177,
                    "velocity": 0.5748031496062992,
                    "duration": 0.39164474999999754
                },
                {
                    "name": "G#4",
                    "midi": 68,
                    "time": 46.86682175,
                    "velocity": 0.5196850393700787,
                    "duration": 0.0435160833333299
                },
                {
                    "name": "C#5",
                    "midi": 73,
                    "time": 46.91033783333333,
                    "velocity": 0.4566929133858268,
                    "duration": 1.1314181666666627
                },
                {
                    "name": "G#5",
                    "midi": 80,
                    "time": 46.95385391666666,
                    "velocity": 0.4566929133858268,
                    "duration": 0.0435160833333299
                },
                {
                    "name": "C#5",
                    "midi": 73,
                    "time": 46.99736999999999,
                    "velocity": 0.5984251968503937,
                    "duration": 1.044386000000003
                },
                {
                    "name": "F#5",
                    "midi": 78,
                    "time": 46.99736999999999,
                    "velocity": 0.5748031496062992,
                    "duration": 0.7832895000000022
                },
                {
                    "name": "F#4",
                    "midi": 66,
                    "time": 46.99736999999999,
                    "velocity": 0.49606299212598426,
                    "duration": 1.044386000000003
                },
                {
                    "name": "F4",
                    "midi": 65,
                    "time": 47.78065949999999,
                    "velocity": 0.4094488188976378,
                    "duration": 0.23498684999999853
                },
                {
                    "name": "F5",
                    "midi": 77,
                    "time": 47.78065949999999,
                    "velocity": 0.48031496062992124,
                    "duration": 0.23498684999999853
                },
                {
                    "name": "F4",
                    "midi": 65,
                    "time": 48.04175599999999,
                    "velocity": 0.4566929133858268,
                    "duration": 1.044386000000003
                },
                {
                    "name": "F5",
                    "midi": 77,
                    "time": 48.04175599999999,
                    "velocity": 0.5433070866141733,
                    "duration": 1.044386000000003
                },
                {
                    "name": "C#5",
                    "midi": 73,
                    "time": 48.04175599999999,
                    "velocity": 0.5433070866141733,
                    "duration": 1.044386000000003
                },
                {
                    "name": "C#5",
                    "midi": 73,
                    "time": 49.086141999999995,
                    "velocity": 0.5354330708661418,
                    "duration": 1.044386000000003
                },
                {
                    "name": "C#4",
                    "midi": 61,
                    "time": 49.086141999999995,
                    "velocity": 0.44881889763779526,
                    "duration": 1.044386000000003
                },
                {
                    "name": "A#4",
                    "midi": 70,
                    "time": 49.086141999999995,
                    "velocity": 0.5354330708661418,
                    "duration": 1.044386000000003
                },
                {
                    "name": "A#3",
                    "midi": 58,
                    "time": 50.130528,
                    "velocity": 0.4094488188976378,
                    "duration": 1.044386000000003
                },
                {
                    "name": "F4",
                    "midi": 65,
                    "time": 50.130528,
                    "velocity": 0.4094488188976378,
                    "duration": 1.044386000000003
                },
                {
                    "name": "A#4",
                    "midi": 70,
                    "time": 50.130528,
                    "velocity": 0.48031496062992124,
                    "duration": 1.044386000000003
                },
                {
                    "name": "A#3",
                    "midi": 58,
                    "time": 51.174914,
                    "velocity": 0.41732283464566927,
                    "duration": 0.7832895000000022
                },
                {
                    "name": "F#4",
                    "midi": 66,
                    "time": 51.174914,
                    "velocity": 0.41732283464566927,
                    "duration": 1.044386000000003
                },
                {
                    "name": "A#4",
                    "midi": 70,
                    "time": 51.174914,
                    "velocity": 0.49606299212598426,
                    "duration": 0.7832895000000022
                },
                {
                    "name": "A#3",
                    "midi": 58,
                    "time": 51.9582035,
                    "velocity": 0.3779527559055118,
                    "duration": 0.23498684999999853
                },
                {
                    "name": "A#4",
                    "midi": 70,
                    "time": 51.9582035,
                    "velocity": 0.44881889763779526,
                    "duration": 0.23498684999999853
                },
                {
                    "name": "A#3",
                    "midi": 58,
                    "time": 52.219300000000004,
                    "velocity": 0.4251968503937008,
                    "duration": 1.044386000000003
                },
                {
                    "name": "F4",
                    "midi": 65,
                    "time": 52.219300000000004,
                    "velocity": 0.4251968503937008,
                    "duration": 1.044386000000003
                },
                {
                    "name": "A#4",
                    "midi": 70,
                    "time": 52.219300000000004,
                    "velocity": 0.5118110236220472,
                    "duration": 1.044386000000003
                },
                {
                    "name": "C#4",
                    "midi": 61,
                    "time": 53.26368600000001,
                    "velocity": 0.5354330708661418,
                    "duration": 0.7832895000000022
                },
                {
                    "name": "C#5",
                    "midi": 73,
                    "time": 53.26368600000001,
                    "velocity": 0.6456692913385826,
                    "duration": 0.7832895000000022
                },
                {
                    "name": "F#4",
                    "midi": 66,
                    "time": 53.26368600000001,
                    "velocity": 0.5196850393700787,
                    "duration": 1.044386000000003
                },
                {
                    "name": "C4",
                    "midi": 60,
                    "time": 54.04697550000001,
                    "velocity": 0.4645669291338583,
                    "duration": 0.26109650000000073
                },
                {
                    "name": "C5",
                    "midi": 72,
                    "time": 54.04697550000001,
                    "velocity": 0.5590551181102362,
                    "duration": 0.26109650000000073
                },
                {
                    "name": "C4",
                    "midi": 60,
                    "time": 54.30807200000001,
                    "velocity": 0.5354330708661418,
                    "duration": 0.7832895000000022
                },
                {
                    "name": "C5",
                    "midi": 72,
                    "time": 54.30807200000001,
                    "velocity": 0.6220472440944882,
                    "duration": 0.7832895000000022
                },
                {
                    "name": "F4",
                    "midi": 65,
                    "time": 54.30807200000001,
                    "velocity": 0.5354330708661418,
                    "duration": 1.044386000000003
                },
                {
                    "name": "A#3",
                    "midi": 58,
                    "time": 55.09136150000001,
                    "velocity": 0.4645669291338583,
                    "duration": 0.23498684999999853
                },
                {
                    "name": "A#4",
                    "midi": 70,
                    "time": 55.09136150000001,
                    "velocity": 0.5590551181102362,
                    "duration": 0.23498684999999853
                },
                {
                    "name": "A#3",
                    "midi": 58,
                    "time": 55.35245800000001,
                    "velocity": 0.5039370078740157,
                    "duration": 0.7832895000000022
                },
                {
                    "name": "F#4",
                    "midi": 66,
                    "time": 55.35245800000001,
                    "velocity": 0.5039370078740157,
                    "duration": 1.044386000000003
                },
                {
                    "name": "A#4",
                    "midi": 70,
                    "time": 55.35245800000001,
                    "velocity": 0.6062992125984252,
                    "duration": 0.7832895000000022
                },
                {
                    "name": "A#3",
                    "midi": 58,
                    "time": 56.135747500000015,
                    "velocity": 0.47244094488188976,
                    "duration": 0.23498684999999853
                },
                {
                    "name": "A#4",
                    "midi": 70,
                    "time": 56.135747500000015,
                    "velocity": 0.5669291338582677,
                    "duration": 0.23498684999999853
                },
                {
                    "name": "A#3",
                    "midi": 58,
                    "time": 56.396844000000016,
                    "velocity": 0.49606299212598426,
                    "duration": 1.044386000000003
                },
                {
                    "name": "F4",
                    "midi": 65,
                    "time": 56.396844000000016,
                    "velocity": 0.5039370078740157,
                    "duration": 1.044386000000003
                },
                {
                    "name": "A#4",
                    "midi": 70,
                    "time": 56.396844000000016,
                    "velocity": 0.5984251968503937,
                    "duration": 1.044386000000003
                },
                {
                    "name": "G#4",
                    "midi": 68,
                    "time": 57.44123000000002,
                    "velocity": 0.5905511811023622,
                    "duration": 1.044386000000003
                },
                {
                    "name": "C4",
                    "midi": 60,
                    "time": 57.44123000000002,
                    "velocity": 0.5905511811023622,
                    "duration": 1.044386000000003
                },
                {
                    "name": "C5",
                    "midi": 72,
                    "time": 57.44123000000002,
                    "velocity": 0.7480314960629921,
                    "duration": 1.044386000000003
                },
                {
                    "name": "F#4",
                    "midi": 66,
                    "time": 57.44123000000002,
                    "velocity": 0.5905511811023622,
                    "duration": 1.044386000000003
                },
                {
                    "name": "C#4",
                    "midi": 61,
                    "time": 58.48561600000002,
                    "velocity": 0.6141732283464567,
                    "duration": 1.044386000000003
                },
                {
                    "name": "F4",
                    "midi": 65,
                    "time": 58.48561600000002,
                    "velocity": 0.6141732283464567,
                    "duration": 1.044386000000003
                },
                {
                    "name": "C#5",
                    "midi": 73,
                    "time": 58.48561600000002,
                    "velocity": 0.7874015748031497,
                    "duration": 1.044386000000003
                },
                {
                    "name": "F4",
                    "midi": 65,
                    "time": 59.530002000000025,
                    "velocity": 0.5826771653543307,
                    "duration": 0.7832895000000022
                },
                {
                    "name": "C#5",
                    "midi": 73,
                    "time": 59.530002000000025,
                    "velocity": 0.5826771653543307,
                    "duration": 0.7832895000000022
                },
                {
                    "name": "F5",
                    "midi": 77,
                    "time": 59.530002000000025,
                    "velocity": 0.7007874015748031,
                    "duration": 0.7832895000000022
                },
                {
                    "name": "F#4",
                    "midi": 66,
                    "time": 60.31329150000003,
                    "velocity": 0.5826771653543307,
                    "duration": 0.26109650000000073
                },
                {
                    "name": "F#5",
                    "midi": 78,
                    "time": 60.31329150000003,
                    "velocity": 0.7007874015748031,
                    "duration": 0.26109650000000073
                },
                {
                    "name": "G#4",
                    "midi": 68,
                    "time": 60.57438800000003,
                    "velocity": 0.6141732283464567,
                    "duration": 0.7832895000000022
                },
                {
                    "name": "G#5",
                    "midi": 80,
                    "time": 60.57438800000003,
                    "velocity": 0.7322834645669292,
                    "duration": 0.7832895000000022
                },
                {
                    "name": "C#5",
                    "midi": 73,
                    "time": 60.57438800000003,
                    "velocity": 0.6141732283464567,
                    "duration": 0.7832895000000022
                },
                {
                    "name": "A#4",
                    "midi": 70,
                    "time": 61.35767750000003,
                    "velocity": 0.6141732283464567,
                    "duration": 0.26109650000000073
                },
                {
                    "name": "A#5",
                    "midi": 82,
                    "time": 61.35767750000003,
                    "velocity": 0.7322834645669292,
                    "duration": 0.26109650000000073
                },
                {
                    "name": "C5",
                    "midi": 72,
                    "time": 61.61877400000003,
                    "velocity": 0.6614173228346457,
                    "duration": 0.7832895000000022
                },
                {
                    "name": "G#5",
                    "midi": 80,
                    "time": 61.61877400000003,
                    "velocity": 0.6614173228346457,
                    "duration": 0.7832895000000022
                },
                {
                    "name": "C6",
                    "midi": 84,
                    "time": 61.61877400000003,
                    "velocity": 0.7795275590551181,
                    "duration": 0.7832895000000022
                },
                {
                    "name": "C#5",
                    "midi": 73,
                    "time": 62.40206350000003,
                    "velocity": 0.6929133858267716,
                    "duration": 0.26109650000000073
                },
                {
                    "name": "C#6",
                    "midi": 85,
                    "time": 62.40206350000003,
                    "velocity": 0.8031496062992126,
                    "duration": 0.26109650000000073
                },
                {
                    "name": "F6",
                    "midi": 89,
                    "time": 62.66316000000003,
                    "velocity": 0.8110236220472441,
                    "duration": 2.088772000000006
                },
                {
                    "name": "G#5",
                    "midi": 80,
                    "time": 62.66316000000003,
                    "velocity": 0.6929133858267716,
                    "duration": 3.6553510000000102
                },
                {
                    "name": "F5",
                    "midi": 77,
                    "time": 62.66316000000003,
                    "velocity": 0.6929133858267716,
                    "duration": 2.088772000000006
                },
                {
                    "name": "C6",
                    "midi": 84,
                    "time": 62.66316000000003,
                    "velocity": 0.6929133858267716,
                    "duration": 3.6553510000000102
                },
                {
                    "name": "D#5",
                    "midi": 75,
                    "time": 64.75193200000004,
                    "velocity": 0.6220472440944882,
                    "duration": 1.5665790000000044
                },
                {
                    "name": "D#6",
                    "midi": 87,
                    "time": 64.75193200000004,
                    "velocity": 0.7480314960629921,
                    "duration": 1.5665790000000044
                },
                {
                    "name": "F#5",
                    "midi": 78,
                    "time": 66.57960750000004,
                    "velocity": 0.7007874015748031,
                    "duration": 0.2610964999999936
                },
                {
                    "name": "C5",
                    "midi": 72,
                    "time": 66.57960750000004,
                    "velocity": 0.5905511811023622,
                    "duration": 0.2610964999999936
                },
                {
                    "name": "D#5",
                    "midi": 75,
                    "time": 66.57960750000004,
                    "velocity": 0.5905511811023622,
                    "duration": 0.2610964999999936
                },
                {
                    "name": "F#4",
                    "midi": 66,
                    "time": 66.57960750000004,
                    "velocity": 0.5905511811023622,
                    "duration": 0.2610964999999936
                },
                {
                    "name": "D#5",
                    "midi": 75,
                    "time": 66.84070400000003,
                    "velocity": 0.6299212598425197,
                    "duration": 1.044386000000003
                },
                {
                    "name": "F4",
                    "midi": 65,
                    "time": 66.84070400000003,
                    "velocity": 0.6299212598425197,
                    "duration": 1.044386000000003
                },
                {
                    "name": "C5",
                    "midi": 72,
                    "time": 66.84070400000003,
                    "velocity": 0.6299212598425197,
                    "duration": 1.044386000000003
                },
                {
                    "name": "F5",
                    "midi": 77,
                    "time": 66.84070400000003,
                    "velocity": 0.8031496062992126,
                    "duration": 1.044386000000003
                },
                {
                    "name": "A#4",
                    "midi": 70,
                    "time": 67.88509000000003,
                    "velocity": 0.5826771653543307,
                    "duration": 0.7832894999999951
                },
                {
                    "name": "F4",
                    "midi": 65,
                    "time": 67.88509000000003,
                    "velocity": 0.5826771653543307,
                    "duration": 0.7832894999999951
                },
                {
                    "name": "C#5",
                    "midi": 73,
                    "time": 67.88509000000003,
                    "velocity": 0.5826771653543307,
                    "duration": 0.7832894999999951
                },
                {
                    "name": "F5",
                    "midi": 77,
                    "time": 67.88509000000003,
                    "velocity": 0.7007874015748031,
                    "duration": 0.7832894999999951
                },
                {
                    "name": "G4",
                    "midi": 67,
                    "time": 68.66837950000003,
                    "velocity": 0.5826771653543307,
                    "duration": 0.2610964999999936
                },
                {
                    "name": "G5",
                    "midi": 79,
                    "time": 68.66837950000003,
                    "velocity": 0.7007874015748031,
                    "duration": 0.2610964999999936
                },
                {
                    "name": "F5",
                    "midi": 77,
                    "time": 68.92947600000002,
                    "velocity": 0.6141732283464567,
                    "duration": 0.7832894999999951
                },
                {
                    "name": "A4",
                    "midi": 69,
                    "time": 68.92947600000002,
                    "velocity": 0.6141732283464567,
                    "duration": 0.7832894999999951
                },
                {
                    "name": "C#5",
                    "midi": 73,
                    "time": 68.92947600000002,
                    "velocity": 0.6141732283464567,
                    "duration": 0.7832894999999951
                },
                {
                    "name": "A5",
                    "midi": 81,
                    "time": 68.92947600000002,
                    "velocity": 0.7322834645669292,
                    "duration": 0.7832894999999951
                },
                {
                    "name": "A#4",
                    "midi": 70,
                    "time": 69.71276550000002,
                    "velocity": 0.6141732283464567,
                    "duration": 0.2610964999999936
                },
                {
                    "name": "A#5",
                    "midi": 82,
                    "time": 69.71276550000002,
                    "velocity": 0.7322834645669292,
                    "duration": 0.2610964999999936
                },
                {
                    "name": "C5",
                    "midi": 72,
                    "time": 69.97386200000001,
                    "velocity": 0.6614173228346457,
                    "duration": 0.7832894999999951
                },
                {
                    "name": "F5",
                    "midi": 77,
                    "time": 69.97386200000001,
                    "velocity": 0.6614173228346457,
                    "duration": 0.7832894999999951
                },
                {
                    "name": "C6",
                    "midi": 84,
                    "time": 69.97386200000001,
                    "velocity": 0.7795275590551181,
                    "duration": 0.7832894999999951
                },
                {
                    "name": "C#5",
                    "midi": 73,
                    "time": 70.7571515,
                    "velocity": 0.6929133858267716,
                    "duration": 0.13054825000000392
                },
                {
                    "name": "C#6",
                    "midi": 85,
                    "time": 70.7571515,
                    "velocity": 0.8031496062992126,
                    "duration": 0.13054825000000392
                },
                {
                    "name": "A#4",
                    "midi": 70,
                    "time": 70.88769975000001,
                    "velocity": 0.6929133858267716,
                    "duration": 2.2193202499999956
                },
                {
                    "name": "E5",
                    "midi": 76,
                    "time": 70.93121583333334,
                    "velocity": 0.6929133858267716,
                    "duration": 2.1758041666666657
                },
                {
                    "name": "G5",
                    "midi": 79,
                    "time": 70.97473191666667,
                    "velocity": 0.6929133858267716,
                    "duration": 2.1322880833333357
                },
                {
                    "name": "C#6",
                    "midi": 85,
                    "time": 71.018248,
                    "velocity": 0.8110236220472441,
                    "duration": 2.088772000000006
                },
                {
                    "name": "C5",
                    "midi": 72,
                    "time": 73.10702,
                    "velocity": 0.5984251968503937,
                    "duration": 1.044386000000003
                },
                {
                    "name": "F5",
                    "midi": 77,
                    "time": 73.10702,
                    "velocity": 0.5984251968503937,
                    "duration": 1.044386000000003
                },
                {
                    "name": "C6",
                    "midi": 84,
                    "time": 73.10702,
                    "velocity": 0.7086614173228346,
                    "duration": 1.044386000000003
                },
                {
                    "name": "G#3",
                    "midi": 56,
                    "time": 75.19579200000001,
                    "velocity": 0.5354330708661418,
                    "duration": 1.044386000000003
                },
                {
                    "name": "F#3",
                    "midi": 54,
                    "time": 75.19579200000001,
                    "velocity": 0.5354330708661418,
                    "duration": 1.044386000000003
                },
                {
                    "name": "C4",
                    "midi": 60,
                    "time": 75.19579200000001,
                    "velocity": 0.5354330708661418,
                    "duration": 1.044386000000003
                },
                {
                    "name": "F4",
                    "midi": 65,
                    "time": 75.19579200000001,
                    "velocity": 0.5354330708661418,
                    "duration": 1.044386000000003
                },
                {
                    "name": "G#4",
                    "midi": 68,
                    "time": 75.19579200000001,
                    "velocity": 0.6299212598425197,
                    "duration": 1.044386000000003
                },
                {
                    "name": "D#4",
                    "midi": 63,
                    "time": 76.24017800000001,
                    "velocity": 0.5354330708661418,
                    "duration": 1.044386000000003
                },
                {
                    "name": "G#3",
                    "midi": 56,
                    "time": 76.24017800000001,
                    "velocity": 0.5354330708661418,
                    "duration": 1.044386000000003
                },
                {
                    "name": "C4",
                    "midi": 60,
                    "time": 76.24017800000001,
                    "velocity": 0.5354330708661418,
                    "duration": 1.044386000000003
                },
                {
                    "name": "F#3",
                    "midi": 54,
                    "time": 76.24017800000001,
                    "velocity": 0.5354330708661418,
                    "duration": 1.044386000000003
                },
                {
                    "name": "G#4",
                    "midi": 68,
                    "time": 76.24017800000001,
                    "velocity": 0.6299212598425197,
                    "duration": 1.044386000000003
                },
                {
                    "name": "F3",
                    "midi": 53,
                    "time": 77.28456400000002,
                    "velocity": 0.5354330708661418,
                    "duration": 1.044386000000003
                },
                {
                    "name": "C#4",
                    "midi": 61,
                    "time": 77.28456400000002,
                    "velocity": 0.5354330708661418,
                    "duration": 1.044386000000003
                },
                {
                    "name": "G#4",
                    "midi": 68,
                    "time": 77.28456400000002,
                    "velocity": 0.6299212598425197,
                    "duration": 1.044386000000003
                },
                {
                    "name": "A3",
                    "midi": 57,
                    "time": 79.37333600000002,
                    "velocity": 0.5354330708661418,
                    "duration": 1.044386000000003
                },
                {
                    "name": "D#3",
                    "midi": 51,
                    "time": 79.37333600000002,
                    "velocity": 0.5354330708661418,
                    "duration": 1.044386000000003
                },
                {
                    "name": "C#4",
                    "midi": 61,
                    "time": 79.37333600000002,
                    "velocity": 0.5354330708661418,
                    "duration": 1.044386000000003
                },
                {
                    "name": "F4",
                    "midi": 65,
                    "time": 79.37333600000002,
                    "velocity": 0.6299212598425197,
                    "duration": 1.044386000000003
                },
                {
                    "name": "F4",
                    "midi": 65,
                    "time": 80.41772200000003,
                    "velocity": 0.6299212598425197,
                    "duration": 1.044386000000003
                },
                {
                    "name": "A3",
                    "midi": 57,
                    "time": 80.41772200000003,
                    "velocity": 0.5354330708661418,
                    "duration": 1.044386000000003
                },
                {
                    "name": "C4",
                    "midi": 60,
                    "time": 80.41772200000003,
                    "velocity": 0.5354330708661418,
                    "duration": 1.044386000000003
                },
                {
                    "name": "D#3",
                    "midi": 51,
                    "time": 80.41772200000003,
                    "velocity": 0.5354330708661418,
                    "duration": 1.044386000000003
                },
                {
                    "name": "C#3",
                    "midi": 49,
                    "time": 81.46210800000003,
                    "velocity": 0.5354330708661418,
                    "duration": 2.088772000000006
                },
                {
                    "name": "A#3",
                    "midi": 58,
                    "time": 81.46210800000003,
                    "velocity": 0.6299212598425197,
                    "duration": 2.088772000000006
                },
                {
                    "name": "A#2",
                    "midi": 46,
                    "time": 83.55088000000003,
                    "velocity": 0.30708661417322836,
                    "duration": 1.044386000000003
                },
                {
                    "name": "F3",
                    "midi": 53,
                    "time": 83.55088000000003,
                    "velocity": 0.30708661417322836,
                    "duration": 1.044386000000003
                },
                {
                    "name": "A#3",
                    "midi": 58,
                    "time": 83.55088000000003,
                    "velocity": 0.36220472440944884,
                    "duration": 1.044386000000003
                },
                {
                    "name": "F#3",
                    "midi": 54,
                    "time": 84.59526600000004,
                    "velocity": 0.30708661417322836,
                    "duration": 1.0443859999999887
                },
                {
                    "name": "A#3",
                    "midi": 58,
                    "time": 84.59526600000004,
                    "velocity": 0.36220472440944884,
                    "duration": 0.7832894999999951
                },
                {
                    "name": "A#3",
                    "midi": 58,
                    "time": 85.37855550000003,
                    "velocity": 0.3228346456692913,
                    "duration": 0.2610964999999936
                },
                {
                    "name": "F3",
                    "midi": 53,
                    "time": 85.63965200000003,
                    "velocity": 0.30708661417322836,
                    "duration": 1.044386000000003
                },
                {
                    "name": "A#3",
                    "midi": 58,
                    "time": 85.63965200000003,
                    "velocity": 0.36220472440944884,
                    "duration": 1.044386000000003
                },
                {
                    "name": "C#4",
                    "midi": 61,
                    "time": 86.68403800000003,
                    "velocity": 0.4251968503937008,
                    "duration": 0.7832894999999951
                },
                {
                    "name": "F#3",
                    "midi": 54,
                    "time": 86.68403800000003,
                    "velocity": 0.3464566929133858,
                    "duration": 1.044386000000003
                },
                {
                    "name": "C4",
                    "midi": 60,
                    "time": 87.46732750000002,
                    "velocity": 0.3858267716535433,
                    "duration": 0.13054825000000392
                },
                {
                    "name": "C#4",
                    "midi": 61,
                    "time": 87.59787575000003,
                    "velocity": 0.3543307086614173,
                    "duration": 0.13054825000000392
                },
                {
                    "name": "C4",
                    "midi": 60,
                    "time": 87.72842400000003,
                    "velocity": 0.4094488188976378,
                    "duration": 0.7832894999999951
                },
                {
                    "name": "F3",
                    "midi": 53,
                    "time": 87.72842400000003,
                    "velocity": 0.3464566929133858,
                    "duration": 1.0443859999999887
                },
                {
                    "name": "A#3",
                    "midi": 58,
                    "time": 88.51171350000003,
                    "velocity": 0.36220472440944884,
                    "duration": 0.2610964999999936
                },
                {
                    "name": "F#3",
                    "midi": 54,
                    "time": 88.77281000000002,
                    "velocity": 0.33070866141732286,
                    "duration": 1.0443859999999887
                },
                {
                    "name": "A#3",
                    "midi": 58,
                    "time": 88.77281000000002,
                    "velocity": 0.3937007874015748,
                    "duration": 0.7832894999999951
                },
                {
                    "name": "A#3",
                    "midi": 58,
                    "time": 89.55609950000002,
                    "velocity": 0.3228346456692913,
                    "duration": 0.2610964999999936
                },
                {
                    "name": "F3",
                    "midi": 53,
                    "time": 89.81719600000001,
                    "velocity": 0.30708661417322836,
                    "duration": 1.044386000000003
                },
                {
                    "name": "A#3",
                    "midi": 58,
                    "time": 89.81719600000001,
                    "velocity": 0.36220472440944884,
                    "duration": 1.044386000000003
                },
                {
                    "name": "G3",
                    "midi": 55,
                    "time": 90.86158200000001,
                    "velocity": 0.5984251968503937,
                    "duration": 0.7832894999999951
                },
                {
                    "name": "C#4",
                    "midi": 61,
                    "time": 90.86158200000001,
                    "velocity": 0.7637795275590551,
                    "duration": 0.7832894999999951
                },
                {
                    "name": "E3",
                    "midi": 52,
                    "time": 90.86158200000001,
                    "velocity": 0.5984251968503937,
                    "duration": 0.7832894999999951
                },
                {
                    "name": "F#3",
                    "midi": 54,
                    "time": 91.64487150000001,
                    "velocity": 0.5984251968503937,
                    "duration": 0.2610964999999936
                },
                {
                    "name": "C4",
                    "midi": 60,
                    "time": 91.64487150000001,
                    "velocity": 0.5984251968503937,
                    "duration": 0.2610964999999936
                },
                {
                    "name": "D#4",
                    "midi": 63,
                    "time": 91.64487150000001,
                    "velocity": 0.7637795275590551,
                    "duration": 0.2610964999999936
                },
                {
                    "name": "F3",
                    "midi": 53,
                    "time": 91.905968,
                    "velocity": 0.6220472440944882,
                    "duration": 1.044386000000003
                },
                {
                    "name": "C#4",
                    "midi": 61,
                    "time": 91.905968,
                    "velocity": 0.6220472440944882,
                    "duration": 1.044386000000003
                },
                {
                    "name": "F4",
                    "midi": 65,
                    "time": 91.905968,
                    "velocity": 0.7952755905511811,
                    "duration": 1.044386000000003
                },
                {
                    "name": "F5",
                    "midi": 77,
                    "time": 92.950354,
                    "velocity": 0.7322834645669292,
                    "duration": 0.7832894999999951
                },
                {
                    "name": "F4",
                    "midi": 65,
                    "time": 92.950354,
                    "velocity": 0.6062992125984252,
                    "duration": 0.7832894999999951
                },
                {
                    "name": "C#5",
                    "midi": 73,
                    "time": 92.950354,
                    "velocity": 0.6062992125984252,
                    "duration": 0.7832894999999951
                },
                {
                    "name": "F#4",
                    "midi": 66,
                    "time": 93.7336435,
                    "velocity": 0.6062992125984252,
                    "duration": 0.2610964999999936
                },
                {
                    "name": "F#5",
                    "midi": 78,
                    "time": 93.7336435,
                    "velocity": 0.7322834645669292,
                    "duration": 0.2610964999999936
                },
                {
                    "name": "G#4",
                    "midi": 68,
                    "time": 93.99474,
                    "velocity": 0.6456692913385826,
                    "duration": 0.7832894999999951
                },
                {
                    "name": "C#5",
                    "midi": 73,
                    "time": 93.99474,
                    "velocity": 0.6456692913385826,
                    "duration": 0.7832894999999951
                },
                {
                    "name": "G#5",
                    "midi": 80,
                    "time": 93.99474,
                    "velocity": 0.7637795275590551,
                    "duration": 0.7832894999999951
                },
                {
                    "name": "A#4",
                    "midi": 70,
                    "time": 94.77802949999999,
                    "velocity": 0.6456692913385826,
                    "duration": 0.2610964999999936
                },
                {
                    "name": "A#5",
                    "midi": 82,
                    "time": 94.77802949999999,
                    "velocity": 0.7637795275590551,
                    "duration": 0.2610964999999936
                },
                {
                    "name": "C5",
                    "midi": 72,
                    "time": 95.03912599999998,
                    "velocity": 0.6929133858267716,
                    "duration": 0.7832894999999951
                },
                {
                    "name": "G#5",
                    "midi": 80,
                    "time": 95.03912599999998,
                    "velocity": 0.6929133858267716,
                    "duration": 0.7832894999999951
                },
                {
                    "name": "C6",
                    "midi": 84,
                    "time": 95.03912599999998,
                    "velocity": 0.8267716535433071,
                    "duration": 0.7832894999999951
                },
                {
                    "name": "C#5",
                    "midi": 73,
                    "time": 95.82241549999998,
                    "velocity": 0.7244094488188977,
                    "duration": 0.2610964999999936
                },
                {
                    "name": "C#6",
                    "midi": 85,
                    "time": 95.82241549999998,
                    "velocity": 0.8503937007874016,
                    "duration": 0.2610964999999936
                },
                {
                    "name": "C6",
                    "midi": 84,
                    "time": 96.08351199999997,
                    "velocity": 0.7244094488188977,
                    "duration": 3.6553510000000102
                },
                {
                    "name": "G#5",
                    "midi": 80,
                    "time": 96.08351199999997,
                    "velocity": 0.7244094488188977,
                    "duration": 3.6553510000000102
                },
                {
                    "name": "F5",
                    "midi": 77,
                    "time": 96.08351199999997,
                    "velocity": 0.7244094488188977,
                    "duration": 2.088772000000006
                },
                {
                    "name": "F6",
                    "midi": 89,
                    "time": 96.08351199999997,
                    "velocity": 0.8582677165354331,
                    "duration": 2.088772000000006
                },
                {
                    "name": "D#5",
                    "midi": 75,
                    "time": 98.17228399999998,
                    "velocity": 0.6456692913385826,
                    "duration": 1.5665790000000044
                },
                {
                    "name": "D#6",
                    "midi": 87,
                    "time": 98.17228399999998,
                    "velocity": 0.7795275590551181,
                    "duration": 1.5665790000000044
                },
                {
                    "name": "F#4",
                    "midi": 66,
                    "time": 99.99995949999997,
                    "velocity": 0.5905511811023622,
                    "duration": 0.2610964999999936
                },
                {
                    "name": "C5",
                    "midi": 72,
                    "time": 99.99995949999997,
                    "velocity": 0.5905511811023622,
                    "duration": 0.2610964999999936
                },
                {
                    "name": "D#5",
                    "midi": 75,
                    "time": 99.99995949999997,
                    "velocity": 0.5905511811023622,
                    "duration": 0.2610964999999936
                },
                {
                    "name": "F#5",
                    "midi": 78,
                    "time": 99.99995949999997,
                    "velocity": 0.7007874015748031,
                    "duration": 0.2610964999999936
                },
                {
                    "name": "F5",
                    "midi": 77,
                    "time": 100.26105599999997,
                    "velocity": 0.8031496062992126,
                    "duration": 1.044386000000003
                },
                {
                    "name": "F4",
                    "midi": 65,
                    "time": 100.26105599999997,
                    "velocity": 0.6299212598425197,
                    "duration": 1.044386000000003
                },
                {
                    "name": "C5",
                    "midi": 72,
                    "time": 100.26105599999997,
                    "velocity": 0.6299212598425197,
                    "duration": 1.044386000000003
                },
                {
                    "name": "D#5",
                    "midi": 75,
                    "time": 100.26105599999997,
                    "velocity": 0.6299212598425197,
                    "duration": 1.044386000000003
                },
                {
                    "name": "A#4",
                    "midi": 70,
                    "time": 101.30544199999997,
                    "velocity": 0.5826771653543307,
                    "duration": 0.7832894999999951
                },
                {
                    "name": "F4",
                    "midi": 65,
                    "time": 101.30544199999997,
                    "velocity": 0.5826771653543307,
                    "duration": 0.7832894999999951
                },
                {
                    "name": "C#5",
                    "midi": 73,
                    "time": 101.30544199999997,
                    "velocity": 0.5826771653543307,
                    "duration": 0.7832894999999951
                },
                {
                    "name": "F5",
                    "midi": 77,
                    "time": 101.30544199999997,
                    "velocity": 0.7007874015748031,
                    "duration": 0.7832894999999951
                },
                {
                    "name": "G4",
                    "midi": 67,
                    "time": 102.08873149999997,
                    "velocity": 0.5826771653543307,
                    "duration": 0.2610964999999936
                },
                {
                    "name": "G5",
                    "midi": 79,
                    "time": 102.08873149999997,
                    "velocity": 0.7007874015748031,
                    "duration": 0.2610964999999936
                },
                {
                    "name": "F5",
                    "midi": 77,
                    "time": 102.34982799999996,
                    "velocity": 0.6141732283464567,
                    "duration": 0.7832894999999951
                },
                {
                    "name": "A4",
                    "midi": 69,
                    "time": 102.34982799999996,
                    "velocity": 0.6141732283464567,
                    "duration": 0.7832894999999951
                },
                {
                    "name": "C#5",
                    "midi": 73,
                    "time": 102.34982799999996,
                    "velocity": 0.6141732283464567,
                    "duration": 0.7832894999999951
                },
                {
                    "name": "A5",
                    "midi": 81,
                    "time": 102.34982799999996,
                    "velocity": 0.7322834645669292,
                    "duration": 0.7832894999999951
                },
                {
                    "name": "A#4",
                    "midi": 70,
                    "time": 103.13311749999995,
                    "velocity": 0.6141732283464567,
                    "duration": 0.2610964999999936
                },
                {
                    "name": "A#5",
                    "midi": 82,
                    "time": 103.13311749999995,
                    "velocity": 0.7322834645669292,
                    "duration": 0.2610964999999936
                },
                {
                    "name": "C5",
                    "midi": 72,
                    "time": 103.39421399999995,
                    "velocity": 0.6614173228346457,
                    "duration": 0.7832894999999951
                },
                {
                    "name": "F5",
                    "midi": 77,
                    "time": 103.39421399999995,
                    "velocity": 0.6614173228346457,
                    "duration": 0.7832894999999951
                },
                {
                    "name": "C6",
                    "midi": 84,
                    "time": 103.39421399999995,
                    "velocity": 0.7795275590551181,
                    "duration": 0.7832894999999951
                },
                {
                    "name": "C#5",
                    "midi": 73,
                    "time": 104.17750349999994,
                    "velocity": 0.6929133858267716,
                    "duration": 0.13054825000000392
                },
                {
                    "name": "C#6",
                    "midi": 85,
                    "time": 104.17750349999994,
                    "velocity": 0.8031496062992126,
                    "duration": 0.13054825000000392
                },
                {
                    "name": "A#4",
                    "midi": 70,
                    "time": 104.30805174999995,
                    "velocity": 0.6929133858267716,
                    "duration": 2.2193202499999956
                },
                {
                    "name": "E5",
                    "midi": 76,
                    "time": 104.35156783333328,
                    "velocity": 0.6929133858267716,
                    "duration": 2.1758041666666657
                },
                {
                    "name": "G5",
                    "midi": 79,
                    "time": 104.39508391666661,
                    "velocity": 0.6929133858267716,
                    "duration": 2.1322880833333357
                },
                {
                    "name": "C#6",
                    "midi": 85,
                    "time": 104.43859999999994,
                    "velocity": 0.8110236220472441,
                    "duration": 2.088772000000006
                },
                {
                    "name": "C5",
                    "midi": 72,
                    "time": 106.52737199999994,
                    "velocity": 0.5984251968503937,
                    "duration": 1.044386000000003
                },
                {
                    "name": "F5",
                    "midi": 77,
                    "time": 106.52737199999994,
                    "velocity": 0.5984251968503937,
                    "duration": 1.044386000000003
                },
                {
                    "name": "C6",
                    "midi": 84,
                    "time": 106.52737199999994,
                    "velocity": 0.7086614173228346,
                    "duration": 1.044386000000003
                },
                {
                    "name": "G#3",
                    "midi": 56,
                    "time": 108.61614399999995,
                    "velocity": 0.5354330708661418,
                    "duration": 1.044386000000003
                },
                {
                    "name": "G#4",
                    "midi": 68,
                    "time": 108.61614399999995,
                    "velocity": 0.6299212598425197,
                    "duration": 1.044386000000003
                },
                {
                    "name": "C4",
                    "midi": 60,
                    "time": 108.61614399999995,
                    "velocity": 0.5354330708661418,
                    "duration": 1.044386000000003
                },
                {
                    "name": "F4",
                    "midi": 65,
                    "time": 108.61614399999995,
                    "velocity": 0.5354330708661418,
                    "duration": 1.044386000000003
                },
                {
                    "name": "F#3",
                    "midi": 54,
                    "time": 108.61614399999995,
                    "velocity": 0.5354330708661418,
                    "duration": 1.044386000000003
                },
                {
                    "name": "F#3",
                    "midi": 54,
                    "time": 109.66052999999995,
                    "velocity": 0.5354330708661418,
                    "duration": 1.044386000000003
                },
                {
                    "name": "G#3",
                    "midi": 56,
                    "time": 109.66052999999995,
                    "velocity": 0.5354330708661418,
                    "duration": 1.044386000000003
                },
                {
                    "name": "C4",
                    "midi": 60,
                    "time": 109.66052999999995,
                    "velocity": 0.5354330708661418,
                    "duration": 1.044386000000003
                },
                {
                    "name": "D#4",
                    "midi": 63,
                    "time": 109.66052999999995,
                    "velocity": 0.5354330708661418,
                    "duration": 1.044386000000003
                },
                {
                    "name": "G#4",
                    "midi": 68,
                    "time": 109.66052999999995,
                    "velocity": 0.6299212598425197,
                    "duration": 1.044386000000003
                },
                {
                    "name": "F3",
                    "midi": 53,
                    "time": 110.70491599999995,
                    "velocity": 0.5354330708661418,
                    "duration": 1.044386000000003
                },
                {
                    "name": "C#4",
                    "midi": 61,
                    "time": 110.70491599999995,
                    "velocity": 0.5354330708661418,
                    "duration": 1.044386000000003
                },
                {
                    "name": "G#4",
                    "midi": 68,
                    "time": 110.70491599999995,
                    "velocity": 0.6299212598425197,
                    "duration": 1.044386000000003
                },
                {
                    "name": "F4",
                    "midi": 65,
                    "time": 112.79368799999996,
                    "velocity": 0.6299212598425197,
                    "duration": 1.044386000000003
                },
                {
                    "name": "D#3",
                    "midi": 51,
                    "time": 112.79368799999996,
                    "velocity": 0.5354330708661418,
                    "duration": 1.044386000000003
                },
                {
                    "name": "C#4",
                    "midi": 61,
                    "time": 112.79368799999996,
                    "velocity": 0.5354330708661418,
                    "duration": 1.044386000000003
                },
                {
                    "name": "A3",
                    "midi": 57,
                    "time": 112.79368799999996,
                    "velocity": 0.5354330708661418,
                    "duration": 1.044386000000003
                },
                {
                    "name": "D#3",
                    "midi": 51,
                    "time": 113.83807399999996,
                    "velocity": 0.5354330708661418,
                    "duration": 1.044386000000003
                },
                {
                    "name": "A3",
                    "midi": 57,
                    "time": 113.83807399999996,
                    "velocity": 0.5354330708661418,
                    "duration": 1.044386000000003
                },
                {
                    "name": "C4",
                    "midi": 60,
                    "time": 113.83807399999996,
                    "velocity": 0.5354330708661418,
                    "duration": 1.044386000000003
                },
                {
                    "name": "F4",
                    "midi": 65,
                    "time": 113.83807399999996,
                    "velocity": 0.6299212598425197,
                    "duration": 1.044386000000003
                },
                {
                    "name": "C#3",
                    "midi": 49,
                    "time": 114.88245999999997,
                    "velocity": 0.5354330708661418,
                    "duration": 2.088772000000006
                },
                {
                    "name": "A#3",
                    "midi": 58,
                    "time": 114.88245999999997,
                    "velocity": 0.6299212598425197,
                    "duration": 2.088772000000006
                },
                {
                    "name": "A#2",
                    "midi": 46,
                    "time": 116.97123199999997,
                    "velocity": 0.30708661417322836,
                    "duration": 1.044386000000003
                },
                {
                    "name": "F3",
                    "midi": 53,
                    "time": 116.97123199999997,
                    "velocity": 0.30708661417322836,
                    "duration": 1.044386000000003
                },
                {
                    "name": "A#3",
                    "midi": 58,
                    "time": 116.97123199999997,
                    "velocity": 0.36220472440944884,
                    "duration": 1.044386000000003
                },
                {
                    "name": "F#3",
                    "midi": 54,
                    "time": 118.01561799999998,
                    "velocity": 0.30708661417322836,
                    "duration": 1.0443859999999887
                },
                {
                    "name": "A#3",
                    "midi": 58,
                    "time": 118.01561799999998,
                    "velocity": 0.36220472440944884,
                    "duration": 0.7832894999999951
                },
                {
                    "name": "A#3",
                    "midi": 58,
                    "time": 118.79890749999997,
                    "velocity": 0.3228346456692913,
                    "duration": 0.2610964999999936
                },
                {
                    "name": "F3",
                    "midi": 53,
                    "time": 119.06000399999996,
                    "velocity": 0.30708661417322836,
                    "duration": 1.044386000000003
                },
                {
                    "name": "A#3",
                    "midi": 58,
                    "time": 119.06000399999996,
                    "velocity": 0.36220472440944884,
                    "duration": 1.044386000000003
                },
                {
                    "name": "C#4",
                    "midi": 61,
                    "time": 120.10438999999997,
                    "velocity": 0.4251968503937008,
                    "duration": 0.7832894999999951
                },
                {
                    "name": "F#3",
                    "midi": 54,
                    "time": 120.10438999999997,
                    "velocity": 0.3464566929133858,
                    "duration": 1.044386000000003
                },
                {
                    "name": "C4",
                    "midi": 60,
                    "time": 120.88767949999996,
                    "velocity": 0.3858267716535433,
                    "duration": 0.13054825000000392
                },
                {
                    "name": "C#4",
                    "midi": 61,
                    "time": 121.01822774999997,
                    "velocity": 0.3543307086614173,
                    "duration": 0.13054825000000392
                },
                {
                    "name": "C4",
                    "midi": 60,
                    "time": 121.14877599999997,
                    "velocity": 0.4094488188976378,
                    "duration": 0.7832894999999951
                },
                {
                    "name": "F3",
                    "midi": 53,
                    "time": 121.14877599999997,
                    "velocity": 0.3464566929133858,
                    "duration": 1.0443859999999887
                },
                {
                    "name": "A#3",
                    "midi": 58,
                    "time": 121.93206549999996,
                    "velocity": 0.36220472440944884,
                    "duration": 0.2610964999999936
                },
                {
                    "name": "F#3",
                    "midi": 54,
                    "time": 122.19316199999996,
                    "velocity": 0.33070866141732286,
                    "duration": 1.0443859999999887
                },
                {
                    "name": "A#3",
                    "midi": 58,
                    "time": 122.19316199999996,
                    "velocity": 0.3937007874015748,
                    "duration": 0.7832894999999951
                },
                {
                    "name": "A#3",
                    "midi": 58,
                    "time": 122.97645149999995,
                    "velocity": 0.3228346456692913,
                    "duration": 0.2610964999999936
                },
                {
                    "name": "F3",
                    "midi": 53,
                    "time": 123.23754799999995,
                    "velocity": 0.30708661417322836,
                    "duration": 1.044386000000003
                },
                {
                    "name": "A#3",
                    "midi": 58,
                    "time": 123.23754799999995,
                    "velocity": 0.36220472440944884,
                    "duration": 1.044386000000003
                },
                {
                    "name": "F5",
                    "midi": 77,
                    "time": 125.32631999999995,
                    "velocity": 0.4251968503937008,
                    "duration": 2.088772000000006
                },
                {
                    "name": "F#5",
                    "midi": 78,
                    "time": 127.41509199999996,
                    "velocity": 0.3937007874015748,
                    "duration": 0.5221930000000015
                },
                {
                    "name": "F5",
                    "midi": 77,
                    "time": 127.93728499999996,
                    "velocity": 0.36220472440944884,
                    "duration": 0.5221930000000015
                },
                {
                    "name": "D#5",
                    "midi": 75,
                    "time": 128.45947799999996,
                    "velocity": 0.3937007874015748,
                    "duration": 0.5221929999999873
                },
                {
                    "name": "C#5",
                    "midi": 73,
                    "time": 128.98167099999995,
                    "velocity": 0.36220472440944884,
                    "duration": 0.5221929999999873
                },
                {
                    "name": "C5",
                    "midi": 72,
                    "time": 129.50386399999994,
                    "velocity": 0.3937007874015748,
                    "duration": 1.044386000000003
                },
                {
                    "name": "A#5",
                    "midi": 82,
                    "time": 130.54824999999994,
                    "velocity": 0.4251968503937008,
                    "duration": 1.044386000000003
                },
                {
                    "name": "G#5",
                    "midi": 80,
                    "time": 131.59263599999994,
                    "velocity": 0.4094488188976378,
                    "duration": 2.088772000000006
                },
                {
                    "name": "F#5",
                    "midi": 78,
                    "time": 133.68140799999995,
                    "velocity": 0.4015748031496063,
                    "duration": 2.088772000000006
                },
                {
                    "name": "G#5",
                    "midi": 80,
                    "time": 135.77017999999995,
                    "velocity": 0.3937007874015748,
                    "duration": 0.5221929999999873
                },
                {
                    "name": "F#5",
                    "midi": 78,
                    "time": 136.29237299999994,
                    "velocity": 0.36220472440944884,
                    "duration": 0.5221929999999873
                },
                {
                    "name": "F5",
                    "midi": 77,
                    "time": 136.81456599999993,
                    "velocity": 0.3937007874015748,
                    "duration": 0.5221929999999873
                },
                {
                    "name": "D#5",
                    "midi": 75,
                    "time": 137.33675899999992,
                    "velocity": 0.36220472440944884,
                    "duration": 0.5221929999999873
                },
                {
                    "name": "C#5",
                    "midi": 73,
                    "time": 137.8589519999999,
                    "velocity": 0.3937007874015748,
                    "duration": 1.044386000000003
                },
                {
                    "name": "C#6",
                    "midi": 85,
                    "time": 138.9033379999999,
                    "velocity": 0.41732283464566927,
                    "duration": 1.044386000000003
                },
                {
                    "name": "G#5",
                    "midi": 80,
                    "time": 139.9477239999999,
                    "velocity": 0.3858267716535433,
                    "duration": 2.088772000000006
                },
                {
                    "name": "F5",
                    "midi": 77,
                    "time": 142.03649599999991,
                    "velocity": 0.4094488188976378,
                    "duration": 2.088772000000006
                },
                {
                    "name": "F#5",
                    "midi": 78,
                    "time": 144.12526799999992,
                    "velocity": 0.4015748031496063,
                    "duration": 0.5221929999999873
                },
                {
                    "name": "F5",
                    "midi": 77,
                    "time": 144.6474609999999,
                    "velocity": 0.36220472440944884,
                    "duration": 0.5221929999999873
                },
                {
                    "name": "D#5",
                    "midi": 75,
                    "time": 145.1696539999999,
                    "velocity": 0.3937007874015748,
                    "duration": 0.5221929999999873
                },
                {
                    "name": "D5",
                    "midi": 74,
                    "time": 145.69184699999988,
                    "velocity": 0.36220472440944884,
                    "duration": 0.26109650000000784
                },
                {
                    "name": "D#5",
                    "midi": 75,
                    "time": 145.9529434999999,
                    "velocity": 0.36220472440944884,
                    "duration": 0.13054825000000392
                },
                {
                    "name": "F5",
                    "midi": 77,
                    "time": 146.0834917499999,
                    "velocity": 0.33070866141732286,
                    "duration": 0.13054825000000392
                },
                {
                    "name": "D#5",
                    "midi": 75,
                    "time": 146.2140399999999,
                    "velocity": 0.41732283464566927,
                    "duration": 0.5221929999999873
                },
                {
                    "name": "D5",
                    "midi": 74,
                    "time": 146.73623299999988,
                    "velocity": 0.4015748031496063,
                    "duration": 0.5221929999999873
                },
                {
                    "name": "D#5",
                    "midi": 75,
                    "time": 147.25842599999987,
                    "velocity": 0.4251968503937008,
                    "duration": 0.5221929999999873
                },
                {
                    "name": "F5",
                    "midi": 77,
                    "time": 147.78061899999986,
                    "velocity": 0.4330708661417323,
                    "duration": 0.5221929999999873
                },
                {
                    "name": "F#5",
                    "midi": 78,
                    "time": 148.30281199999985,
                    "velocity": 0.44881889763779526,
                    "duration": 0.5221929999999873
                },
                {
                    "name": "A#4",
                    "midi": 70,
                    "time": 148.82500499999983,
                    "velocity": 0.4094488188976378,
                    "duration": 0.5221929999999873
                },
                {
                    "name": "F5",
                    "midi": 77,
                    "time": 149.34719799999982,
                    "velocity": 0.44881889763779526,
                    "duration": 0.5221929999999873
                },
                {
                    "name": "D#5",
                    "midi": 75,
                    "time": 149.8693909999998,
                    "velocity": 0.3937007874015748,
                    "duration": 0.26109650000000784
                },
                {
                    "name": "C5",
                    "midi": 72,
                    "time": 150.13048749999982,
                    "velocity": 0.30708661417322836,
                    "duration": 0.13054825000000392
                },
                {
                    "name": "C#5",
                    "midi": 73,
                    "time": 150.26103574999982,
                    "velocity": 0.30708661417322836,
                    "duration": 0.12619664166666666
                },
                {
                    "name": "C#5",
                    "midi": 73,
                    "time": 150.39158399999982,
                    "velocity": 0.30708661417322836,
                    "duration": 0.09791118749998873
                },
                {
                    "name": "D#5",
                    "midi": 75,
                    "time": 150.4894951874998,
                    "velocity": 0.28346456692913385,
                    "duration": 0.09791118749998873
                },
                {
                    "name": "C#5",
                    "midi": 73,
                    "time": 150.5874063749998,
                    "velocity": 0.31496062992125984,
                    "duration": 0.09791118749998873
                },
                {
                    "name": "D#5",
                    "midi": 75,
                    "time": 150.6853175624998,
                    "velocity": 0.29133858267716534,
                    "duration": 0.09791118749998873
                },
                {
                    "name": "C#5",
                    "midi": 73,
                    "time": 150.78322874999978,
                    "velocity": 0.33070866141732286,
                    "duration": 0.09791118749998873
                },
                {
                    "name": "D#5",
                    "midi": 75,
                    "time": 150.88113993749977,
                    "velocity": 0.2992125984251969,
                    "duration": 0.09791118749998873
                },
                {
                    "name": "C#5",
                    "midi": 73,
                    "time": 150.97905112499976,
                    "velocity": 0.3464566929133858,
                    "duration": 0.09791118749998873
                },
                {
                    "name": "D#5",
                    "midi": 75,
                    "time": 151.07696231249975,
                    "velocity": 0.30708661417322836,
                    "duration": 0.09791118749998873
                },
                {
                    "name": "C#5",
                    "midi": 73,
                    "time": 151.17487349999973,
                    "velocity": 0.36220472440944884,
                    "duration": 0.09791118749998873
                },
                {
                    "name": "D#5",
                    "midi": 75,
                    "time": 151.27278468749972,
                    "velocity": 0.33070866141732286,
                    "duration": 0.09791118749998873
                },
                {
                    "name": "C#5",
                    "midi": 73,
                    "time": 151.3706958749997,
                    "velocity": 0.3779527559055118,
                    "duration": 0.09791118749998873
                },
                {
                    "name": "D#5",
                    "midi": 75,
                    "time": 151.4686070624997,
                    "velocity": 0.33070866141732286,
                    "duration": 0.09791118749998873
                },
                {
                    "name": "C#5",
                    "midi": 73,
                    "time": 151.5665182499997,
                    "velocity": 0.3700787401574803,
                    "duration": 0.09791118749998873
                },
                {
                    "name": "D#5",
                    "midi": 75,
                    "time": 151.66660524166633,
                    "velocity": 0.31496062992125984,
                    "duration": 0.09791118749998873
                },
                {
                    "name": "C#5",
                    "midi": 73,
                    "time": 151.76234062499967,
                    "velocity": 0.3464566929133858,
                    "duration": 0.09791118749998873
                },
                {
                    "name": "D#5",
                    "midi": 75,
                    "time": 151.86025181249965,
                    "velocity": 0.2992125984251969,
                    "duration": 0.10008699166664314
                },
                {
                    "name": "C#5",
                    "midi": 73,
                    "time": 151.95816299999964,
                    "velocity": 0.33070866141732286,
                    "duration": 0.1305482499999755
                },
                {
                    "name": "D#5",
                    "midi": 75,
                    "time": 152.08871124999962,
                    "velocity": 0.29133858267716534,
                    "duration": 0.13054825000000392
                },
                {
                    "name": "C5",
                    "midi": 72,
                    "time": 152.21925949999962,
                    "velocity": 0.31496062992125984,
                    "duration": 0.13054825000000392
                },
                {
                    "name": "C#5",
                    "midi": 73,
                    "time": 152.34980774999963,
                    "velocity": 0.2755905511811024,
                    "duration": 0.13054825000000392
                },
                {
                    "name": "A#5",
                    "midi": 82,
                    "time": 152.48035599999963,
                    "velocity": 0.4251968503937008,
                    "duration": 0.5221929999999873
                },
                {
                    "name": "G#5",
                    "midi": 80,
                    "time": 153.00254899999962,
                    "velocity": 0.3937007874015748,
                    "duration": 0.5221929999999873
                },
                {
                    "name": "F#5",
                    "midi": 78,
                    "time": 153.5247419999996,
                    "velocity": 0.4094488188976378,
                    "duration": 0.5221929999999873
                },
                {
                    "name": "G#4",
                    "midi": 68,
                    "time": 154.0469349999996,
                    "velocity": 0.3937007874015748,
                    "duration": 0.5221929999999873
                },
                {
                    "name": "D#5",
                    "midi": 75,
                    "time": 154.56912799999958,
                    "velocity": 0.4251968503937008,
                    "duration": 2.088772000000006
                },
                {
                    "name": "C#5",
                    "midi": 73,
                    "time": 156.6578999999996,
                    "velocity": 0.3937007874015748,
                    "duration": 1.044386000000003
                },
                {
                    "name": "F5",
                    "midi": 77,
                    "time": 158.7466719999996,
                    "velocity": 0.4251968503937008,
                    "duration": 2.088772000000006
                },
                {
                    "name": "F#5",
                    "midi": 78,
                    "time": 160.8354439999996,
                    "velocity": 0.3937007874015748,
                    "duration": 0.5221929999999873
                },
                {
                    "name": "F5",
                    "midi": 77,
                    "time": 161.35763699999958,
                    "velocity": 0.36220472440944884,
                    "duration": 0.5221929999999873
                },
                {
                    "name": "D#5",
                    "midi": 75,
                    "time": 161.87982999999957,
                    "velocity": 0.3937007874015748,
                    "duration": 0.5221929999999873
                },
                {
                    "name": "C#5",
                    "midi": 73,
                    "time": 162.40202299999956,
                    "velocity": 0.36220472440944884,
                    "duration": 0.5221929999999873
                },
                {
                    "name": "C5",
                    "midi": 72,
                    "time": 162.92421599999955,
                    "velocity": 0.3937007874015748,
                    "duration": 1.044386000000003
                },
                {
                    "name": "A#5",
                    "midi": 82,
                    "time": 163.96860199999955,
                    "velocity": 0.4251968503937008,
                    "duration": 1.044386000000003
                },
                {
                    "name": "G#5",
                    "midi": 80,
                    "time": 165.01298799999955,
                    "velocity": 0.4094488188976378,
                    "duration": 2.088772000000006
                },
                {
                    "name": "F#5",
                    "midi": 78,
                    "time": 167.10175999999956,
                    "velocity": 0.4015748031496063,
                    "duration": 2.088772000000006
                },
                {
                    "name": "G#5",
                    "midi": 80,
                    "time": 169.19053199999956,
                    "velocity": 0.3937007874015748,
                    "duration": 0.5221929999999873
                },
                {
                    "name": "F#5",
                    "midi": 78,
                    "time": 169.71272499999955,
                    "velocity": 0.36220472440944884,
                    "duration": 0.5221929999999873
                },
                {
                    "name": "F5",
                    "midi": 77,
                    "time": 170.23491799999954,
                    "velocity": 0.3937007874015748,
                    "duration": 0.5221929999999873
                },
                {
                    "name": "D#5",
                    "midi": 75,
                    "time": 170.75711099999953,
                    "velocity": 0.36220472440944884,
                    "duration": 0.5221929999999873
                },
                {
                    "name": "C#5",
                    "midi": 73,
                    "time": 171.2793039999995,
                    "velocity": 0.3937007874015748,
                    "duration": 1.044386000000003
                },
                {
                    "name": "C#6",
                    "midi": 85,
                    "time": 172.32368999999952,
                    "velocity": 0.41732283464566927,
                    "duration": 1.044386000000003
                },
                {
                    "name": "G#5",
                    "midi": 80,
                    "time": 173.36807599999952,
                    "velocity": 0.3858267716535433,
                    "duration": 2.088772000000006
                },
                {
                    "name": "F5",
                    "midi": 77,
                    "time": 175.45684799999952,
                    "velocity": 0.4094488188976378,
                    "duration": 2.088772000000006
                },
                {
                    "name": "F#5",
                    "midi": 78,
                    "time": 177.54561999999953,
                    "velocity": 0.4015748031496063,
                    "duration": 0.5221929999999873
                },
                {
                    "name": "F5",
                    "midi": 77,
                    "time": 178.06781299999952,
                    "velocity": 0.36220472440944884,
                    "duration": 0.5221929999999873
                },
                {
                    "name": "D#5",
                    "midi": 75,
                    "time": 178.5900059999995,
                    "velocity": 0.3937007874015748,
                    "duration": 0.5221929999999873
                },
                {
                    "name": "D5",
                    "midi": 74,
                    "time": 179.1121989999995,
                    "velocity": 0.36220472440944884,
                    "duration": 0.26109650000000784
                },
                {
                    "name": "D#5",
                    "midi": 75,
                    "time": 179.3732954999995,
                    "velocity": 0.36220472440944884,
                    "duration": 0.13054825000000392
                },
                {
                    "name": "F5",
                    "midi": 77,
                    "time": 179.5038437499995,
                    "velocity": 0.33070866141732286,
                    "duration": 0.13054825000000392
                },
                {
                    "name": "D#5",
                    "midi": 75,
                    "time": 179.6343919999995,
                    "velocity": 0.41732283464566927,
                    "duration": 0.5221929999999873
                },
                {
                    "name": "D5",
                    "midi": 74,
                    "time": 180.1565849999995,
                    "velocity": 0.4015748031496063,
                    "duration": 0.5221929999999873
                },
                {
                    "name": "D#5",
                    "midi": 75,
                    "time": 180.67877799999948,
                    "velocity": 0.4251968503937008,
                    "duration": 0.5221929999999873
                },
                {
                    "name": "F5",
                    "midi": 77,
                    "time": 181.20097099999947,
                    "velocity": 0.4330708661417323,
                    "duration": 0.5221929999999873
                },
                {
                    "name": "F#5",
                    "midi": 78,
                    "time": 181.72316399999946,
                    "velocity": 0.44881889763779526,
                    "duration": 0.5221929999999873
                },
                {
                    "name": "A#4",
                    "midi": 70,
                    "time": 182.24535699999944,
                    "velocity": 0.4094488188976378,
                    "duration": 0.5221929999999873
                },
                {
                    "name": "F5",
                    "midi": 77,
                    "time": 182.76754999999943,
                    "velocity": 0.44881889763779526,
                    "duration": 0.5221929999999873
                },
                {
                    "name": "D#5",
                    "midi": 75,
                    "time": 183.28974299999942,
                    "velocity": 0.3937007874015748,
                    "duration": 0.26109650000000784
                },
                {
                    "name": "C5",
                    "midi": 72,
                    "time": 183.55083949999943,
                    "velocity": 0.30708661417322836,
                    "duration": 0.13054825000000392
                },
                {
                    "name": "C#5",
                    "midi": 73,
                    "time": 183.68138774999943,
                    "velocity": 0.30708661417322836,
                    "duration": 0.13054825000000392
                },
                {
                    "name": "C#5",
                    "midi": 73,
                    "time": 183.81193599999943,
                    "velocity": 0.30708661417322836,
                    "duration": 0.09791118749998873
                },
                {
                    "name": "D#5",
                    "midi": 75,
                    "time": 183.90984718749942,
                    "velocity": 0.28346456692913385,
                    "duration": 0.09791118749998873
                },
                {
                    "name": "C#5",
                    "midi": 73,
                    "time": 184.0077583749994,
                    "velocity": 0.31496062992125984,
                    "duration": 0.09791118749998873
                },
                {
                    "name": "D#5",
                    "midi": 75,
                    "time": 184.1056695624994,
                    "velocity": 0.29133858267716534,
                    "duration": 0.09791118749998873
                },
                {
                    "name": "C#5",
                    "midi": 73,
                    "time": 184.2035807499994,
                    "velocity": 0.33070866141732286,
                    "duration": 0.09791118749998873
                },
                {
                    "name": "D#5",
                    "midi": 75,
                    "time": 184.30149193749938,
                    "velocity": 0.2992125984251969,
                    "duration": 0.09791118749998873
                },
                {
                    "name": "C#5",
                    "midi": 73,
                    "time": 184.39940312499937,
                    "velocity": 0.3464566929133858,
                    "duration": 0.09791118749998873
                },
                {
                    "name": "D#5",
                    "midi": 75,
                    "time": 184.49731431249936,
                    "velocity": 0.30708661417322836,
                    "duration": 0.09791118749998873
                },
                {
                    "name": "C#5",
                    "midi": 73,
                    "time": 184.59522549999934,
                    "velocity": 0.36220472440944884,
                    "duration": 0.09791118749998873
                },
                {
                    "name": "D#5",
                    "midi": 75,
                    "time": 184.69313668749933,
                    "velocity": 0.33070866141732286,
                    "duration": 0.09791118749998873
                },
                {
                    "name": "C#5",
                    "midi": 73,
                    "time": 184.79104787499932,
                    "velocity": 0.3779527559055118,
                    "duration": 0.09791118749998873
                },
                {
                    "name": "D#5",
                    "midi": 75,
                    "time": 184.8889590624993,
                    "velocity": 0.33070866141732286,
                    "duration": 0.09791118749998873
                },
                {
                    "name": "C#5",
                    "midi": 73,
                    "time": 184.9868702499993,
                    "velocity": 0.3700787401574803,
                    "duration": 0.09791118749998873
                },
                {
                    "name": "D#5",
                    "midi": 75,
                    "time": 185.08695724166594,
                    "velocity": 0.31496062992125984,
                    "duration": 0.09791118749998873
                },
                {
                    "name": "C#5",
                    "midi": 73,
                    "time": 185.18269262499928,
                    "velocity": 0.3464566929133858,
                    "duration": 0.09791118749998873
                },
                {
                    "name": "D#5",
                    "midi": 75,
                    "time": 185.28060381249927,
                    "velocity": 0.2992125984251969,
                    "duration": 0.10008699166664314
                },
                {
                    "name": "C#5",
                    "midi": 73,
                    "time": 185.37851499999925,
                    "velocity": 0.33070866141732286,
                    "duration": 0.1305482499999755
                },
                {
                    "name": "D#5",
                    "midi": 75,
                    "time": 185.50906324999923,
                    "velocity": 0.29133858267716534,
                    "duration": 0.13054825000000392
                },
                {
                    "name": "C5",
                    "midi": 72,
                    "time": 185.63961149999923,
                    "velocity": 0.31496062992125984,
                    "duration": 0.13054825000000392
                },
                {
                    "name": "C#5",
                    "midi": 73,
                    "time": 185.77015974999924,
                    "velocity": 0.2755905511811024,
                    "duration": 0.13054825000000392
                },
                {
                    "name": "A#5",
                    "midi": 82,
                    "time": 185.90070799999924,
                    "velocity": 0.4251968503937008,
                    "duration": 0.5221929999999873
                },
                {
                    "name": "G#5",
                    "midi": 80,
                    "time": 186.42290099999923,
                    "velocity": 0.3937007874015748,
                    "duration": 0.5221929999999873
                },
                {
                    "name": "F#5",
                    "midi": 78,
                    "time": 186.94509399999922,
                    "velocity": 0.4094488188976378,
                    "duration": 0.5221929999999873
                },
                {
                    "name": "G#4",
                    "midi": 68,
                    "time": 187.4672869999992,
                    "velocity": 0.3937007874015748,
                    "duration": 0.5221929999999873
                },
                {
                    "name": "D#5",
                    "midi": 75,
                    "time": 187.9894799999992,
                    "velocity": 0.4251968503937008,
                    "duration": 2.088772000000006
                },
                {
                    "name": "C#5",
                    "midi": 73,
                    "time": 190.0782519999992,
                    "velocity": 0.3937007874015748,
                    "duration": 1.044386000000003
                },
                {
                    "name": "C5",
                    "midi": 72,
                    "time": 192.1670239999992,
                    "velocity": 0.4409448818897638,
                    "duration": 2.088772000000006
                },
                {
                    "name": "C#5",
                    "midi": 73,
                    "time": 194.2557959999992,
                    "velocity": 0.4094488188976378,
                    "duration": 0.5221929999999873
                },
                {
                    "name": "C5",
                    "midi": 72,
                    "time": 194.7779889999992,
                    "velocity": 0.3779527559055118,
                    "duration": 0.5221929999999873
                },
                {
                    "name": "A#4",
                    "midi": 70,
                    "time": 195.30018199999918,
                    "velocity": 0.4094488188976378,
                    "duration": 0.5221929999999873
                },
                {
                    "name": "G#4",
                    "midi": 68,
                    "time": 195.82237499999917,
                    "velocity": 0.3779527559055118,
                    "duration": 0.5221929999999873
                },
                {
                    "name": "G4",
                    "midi": 67,
                    "time": 196.34456799999916,
                    "velocity": 0.4094488188976378,
                    "duration": 1.044386000000003
                },
                {
                    "name": "F5",
                    "midi": 77,
                    "time": 197.38895399999916,
                    "velocity": 0.4409448818897638,
                    "duration": 1.044386000000003
                },
                {
                    "name": "D#5",
                    "midi": 75,
                    "time": 198.43333999999916,
                    "velocity": 0.4251968503937008,
                    "duration": 2.088772000000006
                },
                {
                    "name": "C#5",
                    "midi": 73,
                    "time": 200.52211199999917,
                    "velocity": 0.4330708661417323,
                    "duration": 2.088772000000006
                },
                {
                    "name": "D#5",
                    "midi": 75,
                    "time": 202.61088399999917,
                    "velocity": 0.4330708661417323,
                    "duration": 0.5221929999999873
                },
                {
                    "name": "C#5",
                    "midi": 73,
                    "time": 203.13307699999916,
                    "velocity": 0.3937007874015748,
                    "duration": 0.5221929999999873
                },
                {
                    "name": "C5",
                    "midi": 72,
                    "time": 203.65526999999915,
                    "velocity": 0.4330708661417323,
                    "duration": 0.5221929999999873
                },
                {
                    "name": "A#4",
                    "midi": 70,
                    "time": 204.17746299999914,
                    "velocity": 0.4015748031496063,
                    "duration": 0.5221929999999873
                },
                {
                    "name": "A4",
                    "midi": 69,
                    "time": 204.69965599999912,
                    "velocity": 0.4330708661417323,
                    "duration": 1.044386000000003
                },
                {
                    "name": "F#5",
                    "midi": 78,
                    "time": 205.74404199999913,
                    "velocity": 0.4645669291338583,
                    "duration": 1.044386000000003
                },
                {
                    "name": "F5",
                    "midi": 77,
                    "time": 206.78842799999913,
                    "velocity": 0.4330708661417323,
                    "duration": 2.088772000000006
                },
                {
                    "name": "F5",
                    "midi": 77,
                    "time": 208.87719999999914,
                    "velocity": 0.4645669291338583,
                    "duration": 2.088772000000006
                },
                {
                    "name": "F#5",
                    "midi": 78,
                    "time": 210.96597199999914,
                    "velocity": 0.4566929133858268,
                    "duration": 0.5221929999999873
                },
                {
                    "name": "F5",
                    "midi": 77,
                    "time": 211.48816499999913,
                    "velocity": 0.4094488188976378,
                    "duration": 0.5221929999999873
                },
                {
                    "name": "D#5",
                    "midi": 75,
                    "time": 212.01035799999912,
                    "velocity": 0.44881889763779526,
                    "duration": 0.5221929999999873
                },
                {
                    "name": "C#5",
                    "midi": 73,
                    "time": 212.5325509999991,
                    "velocity": 0.4094488188976378,
                    "duration": 0.5113139791666583
                },
                {
                    "name": "C#5",
                    "midi": 73,
                    "time": 213.0547439999991,
                    "velocity": 0.4645669291338583,
                    "duration": 1.044386000000003
                },
                {
                    "name": "C5",
                    "midi": 72,
                    "time": 214.0991299999991,
                    "velocity": 0.44881889763779526,
                    "duration": 1.044386000000003
                },
                {
                    "name": "C5",
                    "midi": 72,
                    "time": 215.66570899999908,
                    "velocity": 0.4409448818897638,
                    "duration": 0.4569188750000137
                },
                {
                    "name": "D#5",
                    "midi": 75,
                    "time": 216.1226278749991,
                    "velocity": 0.4330708661417323,
                    "duration": 0.06527412500000196
                },
                {
                    "name": "C#5",
                    "midi": 73,
                    "time": 216.1879019999991,
                    "velocity": 0.4645669291338583,
                    "duration": 0.7832894999999951
                },
                {
                    "name": "C5",
                    "midi": 72,
                    "time": 216.9711914999991,
                    "velocity": 0.4566929133858268,
                    "duration": 0.2502174791666789
                },
                {
                    "name": "C5",
                    "midi": 72,
                    "time": 217.2322879999991,
                    "velocity": 0.4645669291338583,
                    "duration": 1.044386000000003
                },
                {
                    "name": "A#4",
                    "midi": 70,
                    "time": 218.2766739999991,
                    "velocity": 0.4409448818897638,
                    "duration": 1.044386000000003
                },
                {
                    "name": "C5",
                    "midi": 72,
                    "time": 219.8432529999991,
                    "velocity": 0.4409448818897638,
                    "duration": 0.4569188750000137
                },
                {
                    "name": "D#5",
                    "midi": 75,
                    "time": 220.3001718749991,
                    "velocity": 0.4645669291338583,
                    "duration": 0.06527412500000196
                },
                {
                    "name": "C#5",
                    "midi": 73,
                    "time": 220.3654459999991,
                    "velocity": 0.4645669291338583,
                    "duration": 0.7832894999999951
                },
                {
                    "name": "C5",
                    "midi": 72,
                    "time": 221.1487354999991,
                    "velocity": 0.4409448818897638,
                    "duration": 0.26109650000000784
                },
                {
                    "name": "C5",
                    "midi": 72,
                    "time": 221.4098319999991,
                    "velocity": 0.3937007874015748,
                    "duration": 1.044386000000003
                },
                {
                    "name": "F5",
                    "midi": 77,
                    "time": 222.45421799999912,
                    "velocity": 0.4330708661417323,
                    "duration": 1.044386000000003
                },
                {
                    "name": "F#5",
                    "midi": 78,
                    "time": 223.49860399999912,
                    "velocity": 0.4251968503937008,
                    "duration": 1.044386000000003
                },
                {
                    "name": "G#4",
                    "midi": 68,
                    "time": 224.54298999999912,
                    "velocity": 0.36220472440944884,
                    "duration": 1.044386000000003
                },
                {
                    "name": "F5",
                    "midi": 77,
                    "time": 225.58737599999913,
                    "velocity": 0.4251968503937008,
                    "duration": 2.088772000000006
                },
                {
                    "name": "F#5",
                    "midi": 78,
                    "time": 227.67614799999913,
                    "velocity": 0.3937007874015748,
                    "duration": 0.5221929999999873
                },
                {
                    "name": "F5",
                    "midi": 77,
                    "time": 228.19834099999912,
                    "velocity": 0.36220472440944884,
                    "duration": 0.5221929999999873
                },
                {
                    "name": "D#5",
                    "midi": 75,
                    "time": 228.7205339999991,
                    "velocity": 0.3937007874015748,
                    "duration": 0.5221929999999873
                },
                {
                    "name": "C#5",
                    "midi": 73,
                    "time": 229.2427269999991,
                    "velocity": 0.36220472440944884,
                    "duration": 0.5221929999999873
                },
                {
                    "name": "C5",
                    "midi": 72,
                    "time": 229.76491999999908,
                    "velocity": 0.3937007874015748,
                    "duration": 1.044386000000003
                },
                {
                    "name": "A#5",
                    "midi": 82,
                    "time": 230.80930599999908,
                    "velocity": 0.4251968503937008,
                    "duration": 1.044386000000003
                },
                {
                    "name": "G#5",
                    "midi": 80,
                    "time": 231.85369199999909,
                    "velocity": 0.4094488188976378,
                    "duration": 2.088772000000006
                },
                {
                    "name": "F#5",
                    "midi": 78,
                    "time": 233.9424639999991,
                    "velocity": 0.4015748031496063,
                    "duration": 2.088772000000006
                },
                {
                    "name": "G#5",
                    "midi": 80,
                    "time": 236.0312359999991,
                    "velocity": 0.3937007874015748,
                    "duration": 0.5221929999999873
                },
                {
                    "name": "F#5",
                    "midi": 78,
                    "time": 236.55342899999908,
                    "velocity": 0.36220472440944884,
                    "duration": 0.5221929999999873
                },
                {
                    "name": "F5",
                    "midi": 77,
                    "time": 237.07562199999907,
                    "velocity": 0.3937007874015748,
                    "duration": 0.5221929999999873
                },
                {
                    "name": "D#5",
                    "midi": 75,
                    "time": 237.59781499999906,
                    "velocity": 0.36220472440944884,
                    "duration": 0.5221929999999873
                },
                {
                    "name": "C#5",
                    "midi": 73,
                    "time": 238.12000799999905,
                    "velocity": 0.3937007874015748,
                    "duration": 1.044386000000003
                },
                {
                    "name": "C#6",
                    "midi": 85,
                    "time": 239.16439399999905,
                    "velocity": 0.41732283464566927,
                    "duration": 1.044386000000003
                },
                {
                    "name": "G#5",
                    "midi": 80,
                    "time": 240.20877999999905,
                    "velocity": 0.3858267716535433,
                    "duration": 2.088772000000006
                },
                {
                    "name": "F5",
                    "midi": 77,
                    "time": 242.29755199999906,
                    "velocity": 0.4094488188976378,
                    "duration": 2.088772000000006
                },
                {
                    "name": "F#5",
                    "midi": 78,
                    "time": 244.38632399999906,
                    "velocity": 0.4015748031496063,
                    "duration": 0.5221929999999873
                },
                {
                    "name": "F5",
                    "midi": 77,
                    "time": 244.90851699999905,
                    "velocity": 0.36220472440944884,
                    "duration": 0.5221929999999873
                },
                {
                    "name": "D#5",
                    "midi": 75,
                    "time": 245.43070999999904,
                    "velocity": 0.3937007874015748,
                    "duration": 0.5221929999999873
                },
                {
                    "name": "D5",
                    "midi": 74,
                    "time": 245.95290299999903,
                    "velocity": 0.36220472440944884,
                    "duration": 0.26109650000000784
                },
                {
                    "name": "D#5",
                    "midi": 75,
                    "time": 246.21399949999903,
                    "velocity": 0.36220472440944884,
                    "duration": 0.13054825000000392
                },
                {
                    "name": "F5",
                    "midi": 77,
                    "time": 246.34454774999904,
                    "velocity": 0.33070866141732286,
                    "duration": 0.13054825000000392
                },
                {
                    "name": "D#5",
                    "midi": 75,
                    "time": 246.47509599999904,
                    "velocity": 0.41732283464566927,
                    "duration": 0.5221929999999873
                },
                {
                    "name": "D5",
                    "midi": 74,
                    "time": 246.99728899999903,
                    "velocity": 0.4015748031496063,
                    "duration": 0.5221929999999873
                },
                {
                    "name": "D#5",
                    "midi": 75,
                    "time": 247.51948199999902,
                    "velocity": 0.4251968503937008,
                    "duration": 0.5221929999999873
                },
                {
                    "name": "F5",
                    "midi": 77,
                    "time": 248.041674999999,
                    "velocity": 0.4330708661417323,
                    "duration": 0.5221929999999873
                },
                {
                    "name": "F#5",
                    "midi": 78,
                    "time": 248.563867999999,
                    "velocity": 0.44881889763779526,
                    "duration": 0.5221929999999873
                },
                {
                    "name": "A#4",
                    "midi": 70,
                    "time": 249.08606099999898,
                    "velocity": 0.4094488188976378,
                    "duration": 0.5221929999999873
                },
                {
                    "name": "F5",
                    "midi": 77,
                    "time": 249.60825399999896,
                    "velocity": 0.44881889763779526,
                    "duration": 0.5221929999999873
                },
                {
                    "name": "D#5",
                    "midi": 75,
                    "time": 250.13044699999895,
                    "velocity": 0.3937007874015748,
                    "duration": 0.26109650000000784
                },
                {
                    "name": "C5",
                    "midi": 72,
                    "time": 250.39154349999896,
                    "velocity": 0.30708661417322836,
                    "duration": 0.13054825000000392
                },
                {
                    "name": "C#5",
                    "midi": 73,
                    "time": 250.52209174999896,
                    "velocity": 0.30708661417322836,
                    "duration": 0.13054825000000392
                },
                {
                    "name": "C#5",
                    "midi": 73,
                    "time": 250.65263999999897,
                    "velocity": 0.30708661417322836,
                    "duration": 0.09791118749998873
                },
                {
                    "name": "D#5",
                    "midi": 75,
                    "time": 250.75055118749896,
                    "velocity": 0.28346456692913385,
                    "duration": 0.09791118749998873
                },
                {
                    "name": "C#5",
                    "midi": 73,
                    "time": 250.84846237499895,
                    "velocity": 0.31496062992125984,
                    "duration": 0.09791118749998873
                },
                {
                    "name": "D#5",
                    "midi": 75,
                    "time": 250.94637356249893,
                    "velocity": 0.29133858267716534,
                    "duration": 0.09791118749998873
                },
                {
                    "name": "C#5",
                    "midi": 73,
                    "time": 251.04428474999892,
                    "velocity": 0.33070866141732286,
                    "duration": 0.09791118749998873
                },
                {
                    "name": "D#5",
                    "midi": 75,
                    "time": 251.1421959374989,
                    "velocity": 0.2992125984251969,
                    "duration": 0.09791118749998873
                },
                {
                    "name": "C#5",
                    "midi": 73,
                    "time": 251.2401071249989,
                    "velocity": 0.3464566929133858,
                    "duration": 0.09791118749998873
                },
                {
                    "name": "D#5",
                    "midi": 75,
                    "time": 251.3380183124989,
                    "velocity": 0.30708661417322836,
                    "duration": 0.09791118749998873
                },
                {
                    "name": "C#5",
                    "midi": 73,
                    "time": 251.43592949999888,
                    "velocity": 0.36220472440944884,
                    "duration": 0.09791118749998873
                },
                {
                    "name": "D#5",
                    "midi": 75,
                    "time": 251.53384068749887,
                    "velocity": 0.33070866141732286,
                    "duration": 0.09791118749998873
                },
                {
                    "name": "C#5",
                    "midi": 73,
                    "time": 251.63175187499886,
                    "velocity": 0.3779527559055118,
                    "duration": 0.09791118749998873
                },
                {
                    "name": "D#5",
                    "midi": 75,
                    "time": 251.72966306249884,
                    "velocity": 0.33070866141732286,
                    "duration": 0.09791118749998873
                },
                {
                    "name": "C#5",
                    "midi": 73,
                    "time": 251.82757424999883,
                    "velocity": 0.3700787401574803,
                    "duration": 0.09791118749998873
                },
                {
                    "name": "D#5",
                    "midi": 75,
                    "time": 251.92766124166548,
                    "velocity": 0.31496062992125984,
                    "duration": 0.09791118749998873
                },
                {
                    "name": "C#5",
                    "midi": 73,
                    "time": 252.0233966249988,
                    "velocity": 0.3464566929133858,
                    "duration": 0.09791118749998873
                },
                {
                    "name": "D#5",
                    "midi": 75,
                    "time": 252.1213078124988,
                    "velocity": 0.2992125984251969,
                    "duration": 0.10008699166664314
                },
                {
                    "name": "C#5",
                    "midi": 73,
                    "time": 252.2192189999988,
                    "velocity": 0.33070866141732286,
                    "duration": 0.1305482499999755
                },
                {
                    "name": "D#5",
                    "midi": 75,
                    "time": 252.34976724999876,
                    "velocity": 0.29133858267716534,
                    "duration": 0.13054825000000392
                },
                {
                    "name": "C5",
                    "midi": 72,
                    "time": 252.48031549999877,
                    "velocity": 0.31496062992125984,
                    "duration": 0.13054825000000392
                },
                {
                    "name": "C#5",
                    "midi": 73,
                    "time": 252.61086374999877,
                    "velocity": 0.2755905511811024,
                    "duration": 0.13054825000000392
                },
                {
                    "name": "A#5",
                    "midi": 82,
                    "time": 252.74141199999877,
                    "velocity": 0.4251968503937008,
                    "duration": 0.5221929999999873
                },
                {
                    "name": "G#5",
                    "midi": 80,
                    "time": 253.26360499999876,
                    "velocity": 0.3937007874015748,
                    "duration": 0.5221929999999873
                },
                {
                    "name": "F#5",
                    "midi": 78,
                    "time": 253.78579799999875,
                    "velocity": 0.4094488188976378,
                    "duration": 0.5221929999999873
                },
                {
                    "name": "G#4",
                    "midi": 68,
                    "time": 254.30799099999874,
                    "velocity": 0.3937007874015748,
                    "duration": 0.5221929999999873
                },
                {
                    "name": "D#5",
                    "midi": 75,
                    "time": 254.83018399999872,
                    "velocity": 0.4251968503937008,
                    "duration": 2.088772000000006
                },
                {
                    "name": "C#5",
                    "midi": 73,
                    "time": 256.91895599999873,
                    "velocity": 0.3543307086614173,
                    "duration": 1.0443859999999745
                },
                {
                    "name": "C5",
                    "midi": 72,
                    "time": 259.0077279999987,
                    "velocity": 0.4409448818897638,
                    "duration": 2.088772000000006
                },
                {
                    "name": "C#5",
                    "midi": 73,
                    "time": 261.0964999999987,
                    "velocity": 0.4094488188976378,
                    "duration": 0.5221930000000157
                },
                {
                    "name": "C5",
                    "midi": 72,
                    "time": 261.6186929999987,
                    "velocity": 0.3779527559055118,
                    "duration": 0.5221930000000157
                },
                {
                    "name": "A#4",
                    "midi": 70,
                    "time": 262.1408859999987,
                    "velocity": 0.4094488188976378,
                    "duration": 0.5221930000000157
                },
                {
                    "name": "G#4",
                    "midi": 68,
                    "time": 262.66307899999873,
                    "velocity": 0.3779527559055118,
                    "duration": 0.5221930000000157
                },
                {
                    "name": "G4",
                    "midi": 67,
                    "time": 263.18527199999875,
                    "velocity": 0.4094488188976378,
                    "duration": 1.0443859999999745
                },
                {
                    "name": "F5",
                    "midi": 77,
                    "time": 264.2296579999987,
                    "velocity": 0.4409448818897638,
                    "duration": 1.0443859999999745
                },
                {
                    "name": "D#5",
                    "midi": 75,
                    "time": 265.2740439999987,
                    "velocity": 0.4251968503937008,
                    "duration": 2.088772000000006
                },
                {
                    "name": "C#5",
                    "midi": 73,
                    "time": 267.3628159999987,
                    "velocity": 0.4330708661417323,
                    "duration": 2.088772000000006
                },
                {
                    "name": "D#5",
                    "midi": 75,
                    "time": 269.4515879999987,
                    "velocity": 0.4330708661417323,
                    "duration": 0.5221930000000157
                },
                {
                    "name": "C#5",
                    "midi": 73,
                    "time": 269.9737809999987,
                    "velocity": 0.3937007874015748,
                    "duration": 0.5221930000000157
                },
                {
                    "name": "C5",
                    "midi": 72,
                    "time": 270.49597399999874,
                    "velocity": 0.4330708661417323,
                    "duration": 0.5221930000000157
                },
                {
                    "name": "A#4",
                    "midi": 70,
                    "time": 271.01816699999875,
                    "velocity": 0.4015748031496063,
                    "duration": 0.5221930000000157
                },
                {
                    "name": "A4",
                    "midi": 69,
                    "time": 271.54035999999877,
                    "velocity": 0.4330708661417323,
                    "duration": 1.0443859999999745
                },
                {
                    "name": "F#5",
                    "midi": 78,
                    "time": 272.58474599999874,
                    "velocity": 0.4645669291338583,
                    "duration": 1.0443859999999745
                },
                {
                    "name": "F5",
                    "midi": 77,
                    "time": 273.6291319999987,
                    "velocity": 0.4330708661417323,
                    "duration": 2.088772000000006
                },
                {
                    "name": "F5",
                    "midi": 77,
                    "time": 275.7179039999987,
                    "velocity": 0.4645669291338583,
                    "duration": 2.088772000000006
                },
                {
                    "name": "F#5",
                    "midi": 78,
                    "time": 277.80667599999873,
                    "velocity": 0.4566929133858268,
                    "duration": 0.5221930000000157
                },
                {
                    "name": "F5",
                    "midi": 77,
                    "time": 278.32886899999875,
                    "velocity": 0.4094488188976378,
                    "duration": 0.5221930000000157
                },
                {
                    "name": "D#5",
                    "midi": 75,
                    "time": 278.85106199999876,
                    "velocity": 0.44881889763779526,
                    "duration": 0.5221930000000157
                },
                {
                    "name": "C#5",
                    "midi": 73,
                    "time": 279.3732549999988,
                    "velocity": 0.4094488188976378,
                    "duration": 0.5113139791666867
                },
                {
                    "name": "C#5",
                    "midi": 73,
                    "time": 279.8954479999988,
                    "velocity": 0.4645669291338583,
                    "duration": 1.0443859999999745
                },
                {
                    "name": "C5",
                    "midi": 72,
                    "time": 280.93983399999877,
                    "velocity": 0.44881889763779526,
                    "duration": 1.0443859999999745
                },
                {
                    "name": "C5",
                    "midi": 72,
                    "time": 282.50641299999876,
                    "velocity": 0.4409448818897638,
                    "duration": 0.4569188749999853
                },
                {
                    "name": "D#5",
                    "midi": 75,
                    "time": 282.96333187499874,
                    "velocity": 0.4330708661417323,
                    "duration": 0.06527412499997354
                },
                {
                    "name": "C#5",
                    "midi": 73,
                    "time": 283.0286059999987,
                    "velocity": 0.4645669291338583,
                    "duration": 0.7832895000000235
                },
                {
                    "name": "C5",
                    "midi": 72,
                    "time": 283.81189549999874,
                    "velocity": 0.4566929133858268,
                    "duration": 0.24586587083331324
                },
                {
                    "name": "C5",
                    "midi": 72,
                    "time": 284.07299199999875,
                    "velocity": 0.4645669291338583,
                    "duration": 1.0443859999999745
                },
                {
                    "name": "A#4",
                    "midi": 70,
                    "time": 285.1173779999987,
                    "velocity": 0.4409448818897638,
                    "duration": 1.0443859999999745
                },
                {
                    "name": "C5",
                    "midi": 72,
                    "time": 286.6839569999987,
                    "velocity": 0.4409448818897638,
                    "duration": 0.4569188749999853
                },
                {
                    "name": "D#5",
                    "midi": 75,
                    "time": 287.1408758749987,
                    "velocity": 0.4645669291338583,
                    "duration": 0.06527412499997354
                },
                {
                    "name": "C#5",
                    "midi": 73,
                    "time": 287.2061499999987,
                    "velocity": 0.4645669291338583,
                    "duration": 0.7832895000000235
                },
                {
                    "name": "C5",
                    "midi": 72,
                    "time": 287.9894394999987,
                    "velocity": 0.4409448818897638,
                    "duration": 0.24586587083331324
                },
                {
                    "name": "C5",
                    "midi": 72,
                    "time": 288.2505359999987,
                    "velocity": 0.3937007874015748,
                    "duration": 1.0443859999999745
                },
                {
                    "name": "F5",
                    "midi": 77,
                    "time": 289.2949219999987,
                    "velocity": 0.4330708661417323,
                    "duration": 1.0443859999999745
                },
                {
                    "name": "F#5",
                    "midi": 78,
                    "time": 290.33930799999865,
                    "velocity": 0.4251968503937008,
                    "duration": 1.0443859999999745
                },
                {
                    "name": "G#4",
                    "midi": 68,
                    "time": 291.3836939999986,
                    "velocity": 0.3543307086614173,
                    "duration": 1.0443859999999745
                },
                {
                    "name": "F5",
                    "midi": 77,
                    "time": 292.4280799999986,
                    "velocity": 0.4251968503937008,
                    "duration": 2.088772000000006
                },
                {
                    "name": "F#5",
                    "midi": 78,
                    "time": 294.5168519999986,
                    "velocity": 0.3937007874015748,
                    "duration": 0.5221930000000157
                },
                {
                    "name": "F5",
                    "midi": 77,
                    "time": 295.0390449999986,
                    "velocity": 0.36220472440944884,
                    "duration": 0.5221930000000157
                },
                {
                    "name": "D#5",
                    "midi": 75,
                    "time": 295.56123799999864,
                    "velocity": 0.3937007874015748,
                    "duration": 0.5221930000000157
                },
                {
                    "name": "C#5",
                    "midi": 73,
                    "time": 296.08343099999865,
                    "velocity": 0.36220472440944884,
                    "duration": 0.5221930000000157
                },
                {
                    "name": "C5",
                    "midi": 72,
                    "time": 296.60562399999867,
                    "velocity": 0.3937007874015748,
                    "duration": 1.0443859999999745
                },
                {
                    "name": "A#5",
                    "midi": 82,
                    "time": 297.65000999999864,
                    "velocity": 0.4251968503937008,
                    "duration": 1.0443859999999745
                },
                {
                    "name": "G#5",
                    "midi": 80,
                    "time": 298.6943959999986,
                    "velocity": 0.4094488188976378,
                    "duration": 2.088772000000006
                },
                {
                    "name": "F#5",
                    "midi": 78,
                    "time": 300.7831679999986,
                    "velocity": 0.4015748031496063,
                    "duration": 2.088772000000006
                },
                {
                    "name": "G#5",
                    "midi": 80,
                    "time": 302.87193999999863,
                    "velocity": 0.3937007874015748,
                    "duration": 0.5221930000000157
                },
                {
                    "name": "F#5",
                    "midi": 78,
                    "time": 303.39413299999865,
                    "velocity": 0.36220472440944884,
                    "duration": 0.5221930000000157
                },
                {
                    "name": "F5",
                    "midi": 77,
                    "time": 303.91632599999866,
                    "velocity": 0.3937007874015748,
                    "duration": 0.5221930000000157
                },
                {
                    "name": "D#5",
                    "midi": 75,
                    "time": 304.4385189999987,
                    "velocity": 0.36220472440944884,
                    "duration": 0.5221930000000157
                },
                {
                    "name": "C#5",
                    "midi": 73,
                    "time": 304.9607119999987,
                    "velocity": 0.3937007874015748,
                    "duration": 1.0443859999999745
                },
                {
                    "name": "C#6",
                    "midi": 85,
                    "time": 306.00509799999867,
                    "velocity": 0.41732283464566927,
                    "duration": 1.0443859999999745
                },
                {
                    "name": "G#5",
                    "midi": 80,
                    "time": 307.04948399999864,
                    "velocity": 0.3858267716535433,
                    "duration": 2.088772000000006
                },
                {
                    "name": "F5",
                    "midi": 77,
                    "time": 309.13825599999865,
                    "velocity": 0.4094488188976378,
                    "duration": 2.088772000000006
                },
                {
                    "name": "F#5",
                    "midi": 78,
                    "time": 311.22702799999865,
                    "velocity": 0.4015748031496063,
                    "duration": 0.5221930000000157
                },
                {
                    "name": "F5",
                    "midi": 77,
                    "time": 311.74922099999867,
                    "velocity": 0.36220472440944884,
                    "duration": 0.5221930000000157
                },
                {
                    "name": "D#5",
                    "midi": 75,
                    "time": 312.2714139999987,
                    "velocity": 0.3937007874015748,
                    "duration": 0.5221930000000157
                },
                {
                    "name": "D5",
                    "midi": 74,
                    "time": 312.7936069999987,
                    "velocity": 0.36220472440944884,
                    "duration": 0.26109650000000784
                },
                {
                    "name": "D#5",
                    "midi": 75,
                    "time": 313.0547034999987,
                    "velocity": 0.36220472440944884,
                    "duration": 0.13054825000000392
                },
                {
                    "name": "F5",
                    "midi": 77,
                    "time": 313.1852517499987,
                    "velocity": 0.33070866141732286,
                    "duration": 0.13054825000000392
                },
                {
                    "name": "D#5",
                    "midi": 75,
                    "time": 313.3157999999987,
                    "velocity": 0.41732283464566927,
                    "duration": 0.5221930000000157
                },
                {
                    "name": "D5",
                    "midi": 74,
                    "time": 313.83799299999873,
                    "velocity": 0.4015748031496063,
                    "duration": 0.5221930000000157
                },
                {
                    "name": "D#5",
                    "midi": 75,
                    "time": 314.36018599999875,
                    "velocity": 0.4251968503937008,
                    "duration": 0.5221930000000157
                },
                {
                    "name": "F5",
                    "midi": 77,
                    "time": 314.88237899999876,
                    "velocity": 0.4330708661417323,
                    "duration": 0.5221930000000157
                },
                {
                    "name": "F#5",
                    "midi": 78,
                    "time": 315.4045719999988,
                    "velocity": 0.44881889763779526,
                    "duration": 0.5221930000000157
                },
                {
                    "name": "A#4",
                    "midi": 70,
                    "time": 315.9267649999988,
                    "velocity": 0.4094488188976378,
                    "duration": 0.5221930000000157
                },
                {
                    "name": "F5",
                    "midi": 77,
                    "time": 316.4489579999988,
                    "velocity": 0.44881889763779526,
                    "duration": 0.5221930000000157
                },
                {
                    "name": "D#5",
                    "midi": 75,
                    "time": 316.9711509999988,
                    "velocity": 0.3937007874015748,
                    "duration": 0.26109650000000784
                },
                {
                    "name": "C5",
                    "midi": 72,
                    "time": 317.23224749999883,
                    "velocity": 0.30708661417322836,
                    "duration": 0.13054825000000392
                },
                {
                    "name": "C#5",
                    "midi": 73,
                    "time": 317.36279574999884,
                    "velocity": 0.30708661417322836,
                    "duration": 0.13054825000000392
                },
                {
                    "name": "C#5",
                    "midi": 73,
                    "time": 317.49334399999884,
                    "velocity": 0.30708661417322836,
                    "duration": 0.09791118750001715
                },
                {
                    "name": "D#5",
                    "midi": 75,
                    "time": 317.59125518749886,
                    "velocity": 0.28346456692913385,
                    "duration": 0.09791118750001715
                },
                {
                    "name": "C#5",
                    "midi": 73,
                    "time": 317.6891663749989,
                    "velocity": 0.31496062992125984,
                    "duration": 0.09791118750001715
                },
                {
                    "name": "D#5",
                    "midi": 75,
                    "time": 317.7870775624989,
                    "velocity": 0.29133858267716534,
                    "duration": 0.09791118750001715
                },
                {
                    "name": "C#5",
                    "midi": 73,
                    "time": 317.8849887499989,
                    "velocity": 0.33070866141732286,
                    "duration": 0.09791118750001715
                },
                {
                    "name": "D#5",
                    "midi": 75,
                    "time": 317.9828999374989,
                    "velocity": 0.2992125984251969,
                    "duration": 0.09791118750001715
                },
                {
                    "name": "C#5",
                    "midi": 73,
                    "time": 318.08081112499895,
                    "velocity": 0.3464566929133858,
                    "duration": 0.09791118750001715
                },
                {
                    "name": "D#5",
                    "midi": 75,
                    "time": 318.17872231249896,
                    "velocity": 0.30708661417322836,
                    "duration": 0.09791118750001715
                },
                {
                    "name": "C#5",
                    "midi": 73,
                    "time": 318.276633499999,
                    "velocity": 0.36220472440944884,
                    "duration": 0.09791118750001715
                },
                {
                    "name": "D#5",
                    "midi": 75,
                    "time": 318.374544687499,
                    "velocity": 0.33070866141732286,
                    "duration": 0.09791118750001715
                },
                {
                    "name": "C#5",
                    "midi": 73,
                    "time": 318.472455874999,
                    "velocity": 0.3779527559055118,
                    "duration": 0.09791118750001715
                },
                {
                    "name": "D#5",
                    "midi": 75,
                    "time": 318.57036706249903,
                    "velocity": 0.33070866141732286,
                    "duration": 0.09791118750001715
                },
                {
                    "name": "C#5",
                    "midi": 73,
                    "time": 318.66827824999905,
                    "velocity": 0.3700787401574803,
                    "duration": 0.09791118750001715
                },
                {
                    "name": "D#5",
                    "midi": 75,
                    "time": 318.7683652416657,
                    "velocity": 0.31496062992125984,
                    "duration": 0.0979111874999603
                },
                {
                    "name": "C#5",
                    "midi": 73,
                    "time": 318.864100624999,
                    "velocity": 0.3464566929133858,
                    "duration": 0.0979111874999603
                },
                {
                    "name": "D#5",
                    "midi": 75,
                    "time": 318.962011812499,
                    "velocity": 0.2992125984251969,
                    "duration": 0.10008699166667157
                },
                {
                    "name": "C#5",
                    "midi": 73,
                    "time": 319.059922999999,
                    "velocity": 0.33070866141732286,
                    "duration": 0.13054825000000392
                },
                {
                    "name": "D#5",
                    "midi": 75,
                    "time": 319.190471249999,
                    "velocity": 0.29133858267716534,
                    "duration": 0.13054825000000392
                },
                {
                    "name": "C5",
                    "midi": 72,
                    "time": 319.321019499999,
                    "velocity": 0.31496062992125984,
                    "duration": 0.13054825000000392
                },
                {
                    "name": "C#5",
                    "midi": 73,
                    "time": 319.451567749999,
                    "velocity": 0.2755905511811024,
                    "duration": 0.13054825000000392
                },
                {
                    "name": "A#5",
                    "midi": 82,
                    "time": 319.582115999999,
                    "velocity": 0.4251968503937008,
                    "duration": 0.5221930000000157
                },
                {
                    "name": "G#5",
                    "midi": 80,
                    "time": 320.10430899999903,
                    "velocity": 0.3937007874015748,
                    "duration": 0.5221930000000157
                },
                {
                    "name": "F#5",
                    "midi": 78,
                    "time": 320.62650199999905,
                    "velocity": 0.4094488188976378,
                    "duration": 0.5221930000000157
                },
                {
                    "name": "G#4",
                    "midi": 68,
                    "time": 321.14869499999907,
                    "velocity": 0.3937007874015748,
                    "duration": 0.5221930000000157
                },
                {
                    "name": "D#5",
                    "midi": 75,
                    "time": 321.6708879999991,
                    "velocity": 0.4251968503937008,
                    "duration": 2.088772000000006
                },
                {
                    "name": "C#5",
                    "midi": 73,
                    "time": 323.7596599999991,
                    "velocity": 0.3543307086614173,
                    "duration": 1.0443859999999745
                },
                {
                    "name": "F3",
                    "midi": 53,
                    "time": 325.84843199999904,
                    "velocity": 0.2677165354330709,
                    "duration": 1.0443859999999745
                },
                {
                    "name": "A#3",
                    "midi": 58,
                    "time": 325.84843199999904,
                    "velocity": 0.31496062992125984,
                    "duration": 1.0443859999999745
                },
                {
                    "name": "F#3",
                    "midi": 54,
                    "time": 326.892817999999,
                    "velocity": 0.2677165354330709,
                    "duration": 1.0443860000000313
                },
                {
                    "name": "A#3",
                    "midi": 58,
                    "time": 326.892817999999,
                    "velocity": 0.31496062992125984,
                    "duration": 0.7832895000000235
                },
                {
                    "name": "A#3",
                    "midi": 58,
                    "time": 327.67610749999903,
                    "velocity": 0.28346456692913385,
                    "duration": 0.23498684999998432
                },
                {
                    "name": "F3",
                    "midi": 53,
                    "time": 327.93720399999904,
                    "velocity": 0.2677165354330709,
                    "duration": 1.0443859999999745
                },
                {
                    "name": "A#3",
                    "midi": 58,
                    "time": 327.93720399999904,
                    "velocity": 0.31496062992125984,
                    "duration": 2.088771999999949
                },
                {
                    "name": "F#3",
                    "midi": 54,
                    "time": 328.981589999999,
                    "velocity": 0.2204724409448819,
                    "duration": 1.0443859999999745
                },
                {
                    "name": "F3",
                    "midi": 53,
                    "time": 330.025975999999,
                    "velocity": 0.2677165354330709,
                    "duration": 1.0443859999999745
                },
                {
                    "name": "A#3",
                    "midi": 58,
                    "time": 330.025975999999,
                    "velocity": 0.31496062992125984,
                    "duration": 1.0443859999999745
                },
                {
                    "name": "F#3",
                    "midi": 54,
                    "time": 331.07036199999897,
                    "velocity": 0.2677165354330709,
                    "duration": 1.0443860000000313
                },
                {
                    "name": "A#3",
                    "midi": 58,
                    "time": 331.07036199999897,
                    "velocity": 0.31496062992125984,
                    "duration": 0.7832895000000235
                },
                {
                    "name": "A#3",
                    "midi": 58,
                    "time": 331.853651499999,
                    "velocity": 0.28346456692913385,
                    "duration": 0.23498684999998432
                },
                {
                    "name": "F3",
                    "midi": 53,
                    "time": 332.114747999999,
                    "velocity": 0.2677165354330709,
                    "duration": 1.0443859999999745
                },
                {
                    "name": "A#3",
                    "midi": 58,
                    "time": 332.114747999999,
                    "velocity": 0.31496062992125984,
                    "duration": 2.088771999999949
                },
                {
                    "name": "F#3",
                    "midi": 54,
                    "time": 333.15913399999897,
                    "velocity": 0.2204724409448819,
                    "duration": 1.0443859999999745
                },
                {
                    "name": "F3",
                    "midi": 53,
                    "time": 334.20351999999895,
                    "velocity": 0.2677165354330709,
                    "duration": 1.0443859999999745
                },
                {
                    "name": "A#3",
                    "midi": 58,
                    "time": 334.20351999999895,
                    "velocity": 0.31496062992125984,
                    "duration": 1.0443859999999745
                },
                {
                    "name": "F#3",
                    "midi": 54,
                    "time": 335.2479059999989,
                    "velocity": 0.2677165354330709,
                    "duration": 1.0443860000000313
                },
                {
                    "name": "A#3",
                    "midi": 58,
                    "time": 335.2479059999989,
                    "velocity": 0.31496062992125984,
                    "duration": 0.7832895000000235
                },
                {
                    "name": "A#3",
                    "midi": 58,
                    "time": 336.03119549999894,
                    "velocity": 0.28346456692913385,
                    "duration": 0.23498684999998432
                },
                {
                    "name": "F3",
                    "midi": 53,
                    "time": 336.29229199999895,
                    "velocity": 0.2677165354330709,
                    "duration": 1.0443859999999745
                },
                {
                    "name": "A#3",
                    "midi": 58,
                    "time": 336.29229199999895,
                    "velocity": 0.31496062992125984,
                    "duration": 1.0443859999999745
                },
                {
                    "name": "C#4",
                    "midi": 61,
                    "time": 337.3366779999989,
                    "velocity": 0.3858267716535433,
                    "duration": 0.7832895000000235
                },
                {
                    "name": "F#3",
                    "midi": 54,
                    "time": 337.3366779999989,
                    "velocity": 0.30708661417322836,
                    "duration": 1.0443860000000313
                },
                {
                    "name": "C4",
                    "midi": 60,
                    "time": 338.11996749999895,
                    "velocity": 0.3543307086614173,
                    "duration": 0.23498684999998432
                },
                {
                    "name": "C4",
                    "midi": 60,
                    "time": 338.38106399999896,
                    "velocity": 0.3779527559055118,
                    "duration": 0.7832895000000235
                },
                {
                    "name": "F3",
                    "midi": 53,
                    "time": 338.38106399999896,
                    "velocity": 0.30708661417322836,
                    "duration": 1.0443860000000313
                },
                {
                    "name": "A#3",
                    "midi": 58,
                    "time": 339.164353499999,
                    "velocity": 0.33070866141732286,
                    "duration": 0.23498684999998432
                },
                {
                    "name": "F#3",
                    "midi": 54,
                    "time": 339.425449999999,
                    "velocity": 0.29133858267716534,
                    "duration": 1.0443860000000313
                },
                {
                    "name": "A#3",
                    "midi": 58,
                    "time": 339.425449999999,
                    "velocity": 0.3464566929133858,
                    "duration": 0.7832895000000235
                },
                {
                    "name": "A#3",
                    "midi": 58,
                    "time": 340.208739499999,
                    "velocity": 0.28346456692913385,
                    "duration": 0.23498684999998432
                },
                {
                    "name": "F3",
                    "midi": 53,
                    "time": 340.469835999999,
                    "velocity": 0.2677165354330709,
                    "duration": 1.0443859999999745
                },
                {
                    "name": "A#3",
                    "midi": 58,
                    "time": 340.469835999999,
                    "velocity": 0.31496062992125984,
                    "duration": 2.088771999999949
                },
                {
                    "name": "F#3",
                    "midi": 54,
                    "time": 341.514221999999,
                    "velocity": 0.2204724409448819,
                    "duration": 1.0443859999999745
                },
                {
                    "name": "A#3",
                    "midi": 58,
                    "time": 342.55860799999897,
                    "velocity": 0.33070866141732286,
                    "duration": 1.0443859999999745
                },
                {
                    "name": "F3",
                    "midi": 53,
                    "time": 342.55860799999897,
                    "velocity": 0.33070866141732286,
                    "duration": 1.0443859999999745
                },
                {
                    "name": "C#4",
                    "midi": 61,
                    "time": 342.55860799999897,
                    "velocity": 0.3937007874015748,
                    "duration": 1.0443859999999745
                },
                {
                    "name": "A#3",
                    "midi": 58,
                    "time": 343.60299399999894,
                    "velocity": 0.33070866141732286,
                    "duration": 1.0443860000000313
                },
                {
                    "name": "F#3",
                    "midi": 54,
                    "time": 343.60299399999894,
                    "velocity": 0.33070866141732286,
                    "duration": 1.0443860000000313
                },
                {
                    "name": "C#4",
                    "midi": 61,
                    "time": 343.60299399999894,
                    "velocity": 0.3937007874015748,
                    "duration": 0.7832895000000235
                },
                {
                    "name": "C#4",
                    "midi": 61,
                    "time": 344.38628349999897,
                    "velocity": 0.3543307086614173,
                    "duration": 0.23498684999998432
                },
                {
                    "name": "A#3",
                    "midi": 58,
                    "time": 344.647379999999,
                    "velocity": 0.33070866141732286,
                    "duration": 1.0443859999999745
                },
                {
                    "name": "F3",
                    "midi": 53,
                    "time": 344.647379999999,
                    "velocity": 0.33070866141732286,
                    "duration": 1.0443859999999745
                },
                {
                    "name": "C#4",
                    "midi": 61,
                    "time": 344.647379999999,
                    "velocity": 0.3937007874015748,
                    "duration": 1.0443859999999745
                },
                {
                    "name": "F4",
                    "midi": 65,
                    "time": 345.69176599999895,
                    "velocity": 0.4645669291338583,
                    "duration": 0.7832895000000235
                },
                {
                    "name": "C#4",
                    "midi": 61,
                    "time": 345.69176599999895,
                    "velocity": 0.4094488188976378,
                    "duration": 0.7832895000000235
                },
                {
                    "name": "F#3",
                    "midi": 54,
                    "time": 345.69176599999895,
                    "velocity": 0.3779527559055118,
                    "duration": 1.0443860000000313
                },
                {
                    "name": "D#4",
                    "midi": 63,
                    "time": 346.475055499999,
                    "velocity": 0.41732283464566927,
                    "duration": 0.13054825000000392
                },
                {
                    "name": "C4",
                    "midi": 60,
                    "time": 346.475055499999,
                    "velocity": 0.3700787401574803,
                    "duration": 0.13054825000000392
                },
                {
                    "name": "F4",
                    "midi": 65,
                    "time": 346.605603749999,
                    "velocity": 0.3779527559055118,
                    "duration": 0.13054825000000392
                },
                {
                    "name": "D#4",
                    "midi": 63,
                    "time": 346.736151999999,
                    "velocity": 0.44881889763779526,
                    "duration": 0.7832895000000235
                },
                {
                    "name": "C4",
                    "midi": 60,
                    "time": 346.736151999999,
                    "velocity": 0.4015748031496063,
                    "duration": 0.7832895000000235
                },
                {
                    "name": "F3",
                    "midi": 53,
                    "time": 346.736151999999,
                    "velocity": 0.3779527559055118,
                    "duration": 1.0443860000000313
                },
                {
                    "name": "C#4",
                    "midi": 61,
                    "time": 347.519441499999,
                    "velocity": 0.3937007874015748,
                    "duration": 0.23498684999998432
                },
                {
                    "name": "A#3",
                    "midi": 58,
                    "time": 347.519441499999,
                    "velocity": 0.3543307086614173,
                    "duration": 0.23498684999998432
                },
                {
                    "name": "C#4",
                    "midi": 61,
                    "time": 347.780537999999,
                    "velocity": 0.4330708661417323,
                    "duration": 0.7832895000000235
                },
                {
                    "name": "F#3",
                    "midi": 54,
                    "time": 347.780537999999,
                    "velocity": 0.36220472440944884,
                    "duration": 1.0443860000000313
                },
                {
                    "name": "A#3",
                    "midi": 58,
                    "time": 347.780537999999,
                    "velocity": 0.3779527559055118,
                    "duration": 0.7832895000000235
                },
                {
                    "name": "C#4",
                    "midi": 61,
                    "time": 348.56382749999904,
                    "velocity": 0.3543307086614173,
                    "duration": 0.23498684999998432
                },
                {
                    "name": "A#3",
                    "midi": 58,
                    "time": 348.56382749999904,
                    "velocity": 0.30708661417322836,
                    "duration": 0.23498684999998432
                },
                {
                    "name": "C#4",
                    "midi": 61,
                    "time": 348.82492399999904,
                    "velocity": 0.3937007874015748,
                    "duration": 2.088771999999949
                },
                {
                    "name": "F3",
                    "midi": 53,
                    "time": 348.82492399999904,
                    "velocity": 0.33070866141732286,
                    "duration": 1.0443859999999745
                },
                {
                    "name": "A#3",
                    "midi": 58,
                    "time": 348.82492399999904,
                    "velocity": 0.3543307086614173,
                    "duration": 2.088771999999949
                },
                {
                    "name": "F#3",
                    "midi": 54,
                    "time": 349.869309999999,
                    "velocity": 0.2755905511811024,
                    "duration": 1.0443859999999745
                },
                {
                    "name": "C#4",
                    "midi": 61,
                    "time": 350.913695999999,
                    "velocity": 0.4566929133858268,
                    "duration": 0.9138377500000274
                },
                {
                    "name": "A#4",
                    "midi": 70,
                    "time": 350.913695999999,
                    "velocity": 0.5748031496062992,
                    "duration": 0.5221930000000157
                },
                {
                    "name": "A#3",
                    "midi": 58,
                    "time": 350.913695999999,
                    "velocity": 0.4566929133858268,
                    "duration": 0.9138377500000274
                },
                {
                    "name": "G#4",
                    "midi": 68,
                    "time": 351.435888999999,
                    "velocity": 0.5275590551181102,
                    "duration": 0.39164475000001175
                },
                {
                    "name": "G#4",
                    "midi": 68,
                    "time": 351.827533749999,
                    "velocity": 0.4566929133858268,
                    "duration": 0.13054825000000392
                },
                {
                    "name": "C#4",
                    "midi": 61,
                    "time": 351.958081999999,
                    "velocity": 0.4330708661417323,
                    "duration": 1.0443860000000313
                },
                {
                    "name": "F#4",
                    "midi": 66,
                    "time": 351.958081999999,
                    "velocity": 0.48031496062992124,
                    "duration": 0.7832895000000235
                },
                {
                    "name": "A#3",
                    "midi": 58,
                    "time": 351.958081999999,
                    "velocity": 0.4330708661417323,
                    "duration": 1.0443860000000313
                },
                {
                    "name": "F4",
                    "midi": 65,
                    "time": 352.74137149999905,
                    "velocity": 0.41732283464566927,
                    "duration": 0.23498684999998432
                },
                {
                    "name": "A#3",
                    "midi": 58,
                    "time": 353.00246799999906,
                    "velocity": 0.3937007874015748,
                    "duration": 1.0443859999999745
                },
                {
                    "name": "F4",
                    "midi": 65,
                    "time": 353.00246799999906,
                    "velocity": 0.4645669291338583,
                    "duration": 1.0443859999999745
                },
                {
                    "name": "C#4",
                    "midi": 61,
                    "time": 353.00246799999906,
                    "velocity": 0.3937007874015748,
                    "duration": 1.0443859999999745
                },
                {
                    "name": "A#3",
                    "midi": 58,
                    "time": 354.04685399999903,
                    "velocity": 0.33070866141732286,
                    "duration": 1.0443859999999745
                },
                {
                    "name": "C#4",
                    "midi": 61,
                    "time": 354.04685399999903,
                    "velocity": 0.4015748031496063,
                    "duration": 1.0443859999999745
                },
                {
                    "name": "C#4",
                    "midi": 61,
                    "time": 355.091239999999,
                    "velocity": 0.4566929133858268,
                    "duration": 0.9138377500000274
                },
                {
                    "name": "A#4",
                    "midi": 70,
                    "time": 355.091239999999,
                    "velocity": 0.5748031496062992,
                    "duration": 0.5221930000000157
                },
                {
                    "name": "A#3",
                    "midi": 58,
                    "time": 355.091239999999,
                    "velocity": 0.4566929133858268,
                    "duration": 0.9138377500000274
                },
                {
                    "name": "G#4",
                    "midi": 68,
                    "time": 355.613432999999,
                    "velocity": 0.5275590551181102,
                    "duration": 0.39164475000001175
                },
                {
                    "name": "G#4",
                    "midi": 68,
                    "time": 356.00507774999903,
                    "velocity": 0.4566929133858268,
                    "duration": 0.13054825000000392
                },
                {
                    "name": "C#4",
                    "midi": 61,
                    "time": 356.13562599999904,
                    "velocity": 0.4330708661417323,
                    "duration": 1.0443860000000313
                },
                {
                    "name": "F#4",
                    "midi": 66,
                    "time": 356.13562599999904,
                    "velocity": 0.48031496062992124,
                    "duration": 0.7832895000000235
                },
                {
                    "name": "A#3",
                    "midi": 58,
                    "time": 356.13562599999904,
                    "velocity": 0.4330708661417323,
                    "duration": 1.0443860000000313
                },
                {
                    "name": "F4",
                    "midi": 65,
                    "time": 356.91891549999906,
                    "velocity": 0.4251968503937008,
                    "duration": 0.23498684999998432
                },
                {
                    "name": "A#3",
                    "midi": 58,
                    "time": 357.18001199999907,
                    "velocity": 0.3937007874015748,
                    "duration": 1.0443859999999745
                },
                {
                    "name": "F4",
                    "midi": 65,
                    "time": 357.18001199999907,
                    "velocity": 0.4645669291338583,
                    "duration": 1.0443859999999745
                },
                {
                    "name": "C#4",
                    "midi": 61,
                    "time": 357.18001199999907,
                    "velocity": 0.3937007874015748,
                    "duration": 1.0443859999999745
                },
                {
                    "name": "A#3",
                    "midi": 58,
                    "time": 358.22439799999904,
                    "velocity": 0.33070866141732286,
                    "duration": 1.0443859999999745
                },
                {
                    "name": "C#4",
                    "midi": 61,
                    "time": 358.22439799999904,
                    "velocity": 0.4015748031496063,
                    "duration": 1.0443859999999745
                },
                {
                    "name": "F3",
                    "midi": 53,
                    "time": 359.268783999999,
                    "velocity": 0.30708661417322836,
                    "duration": 1.0443859999999745
                },
                {
                    "name": "A#3",
                    "midi": 58,
                    "time": 359.268783999999,
                    "velocity": 0.36220472440944884,
                    "duration": 1.0443859999999745
                },
                {
                    "name": "F#3",
                    "midi": 54,
                    "time": 360.313169999999,
                    "velocity": 0.30708661417322836,
                    "duration": 1.0443860000000313
                },
                {
                    "name": "A#3",
                    "midi": 58,
                    "time": 360.313169999999,
                    "velocity": 0.36220472440944884,
                    "duration": 0.7832895000000235
                },
                {
                    "name": "A#3",
                    "midi": 58,
                    "time": 361.096459499999,
                    "velocity": 0.3228346456692913,
                    "duration": 0.23498684999998432
                },
                {
                    "name": "F3",
                    "midi": 53,
                    "time": 361.357555999999,
                    "velocity": 0.30708661417322836,
                    "duration": 1.0443859999999745
                },
                {
                    "name": "A#3",
                    "midi": 58,
                    "time": 361.357555999999,
                    "velocity": 0.36220472440944884,
                    "duration": 1.0443859999999745
                },
                {
                    "name": "C#4",
                    "midi": 61,
                    "time": 362.401941999999,
                    "velocity": 0.4251968503937008,
                    "duration": 0.7832895000000235
                },
                {
                    "name": "F#3",
                    "midi": 54,
                    "time": 362.401941999999,
                    "velocity": 0.3464566929133858,
                    "duration": 1.0443860000000313
                },
                {
                    "name": "C4",
                    "midi": 60,
                    "time": 363.185231499999,
                    "velocity": 0.3858267716535433,
                    "duration": 0.13054825000000392
                },
                {
                    "name": "C#4",
                    "midi": 61,
                    "time": 363.315779749999,
                    "velocity": 0.3543307086614173,
                    "duration": 0.13054825000000392
                },
                {
                    "name": "C4",
                    "midi": 60,
                    "time": 363.446327999999,
                    "velocity": 0.4094488188976378,
                    "duration": 0.7832895000000235
                },
                {
                    "name": "F3",
                    "midi": 53,
                    "time": 363.446327999999,
                    "velocity": 0.3464566929133858,
                    "duration": 1.0443860000000313
                },
                {
                    "name": "A#3",
                    "midi": 58,
                    "time": 364.22961749999905,
                    "velocity": 0.36220472440944884,
                    "duration": 0.23498684999998432
                },
                {
                    "name": "F#3",
                    "midi": 54,
                    "time": 364.49071399999906,
                    "velocity": 0.33070866141732286,
                    "duration": 1.0443860000000313
                },
                {
                    "name": "A#3",
                    "midi": 58,
                    "time": 364.49071399999906,
                    "velocity": 0.3937007874015748,
                    "duration": 0.7832895000000235
                },
                {
                    "name": "A#3",
                    "midi": 58,
                    "time": 365.2740034999991,
                    "velocity": 0.3228346456692913,
                    "duration": 0.23498684999998432
                },
                {
                    "name": "F3",
                    "midi": 53,
                    "time": 365.5350999999991,
                    "velocity": 0.30708661417322836,
                    "duration": 1.0443859999999745
                },
                {
                    "name": "A#3",
                    "midi": 58,
                    "time": 365.5350999999991,
                    "velocity": 0.36220472440944884,
                    "duration": 2.088771999999949
                },
                {
                    "name": "F#3",
                    "midi": 54,
                    "time": 366.57948599999906,
                    "velocity": 0.25196850393700787,
                    "duration": 1.0443859999999745
                },
                {
                    "name": "C#5",
                    "midi": 73,
                    "time": 367.62387199999904,
                    "velocity": 0.5354330708661418,
                    "duration": 1.0008699166666588
                },
                {
                    "name": "A#5",
                    "midi": 82,
                    "time": 367.62387199999904,
                    "velocity": 0.6535433070866141,
                    "duration": 0.5221930000000157
                },
                {
                    "name": "A#4",
                    "midi": 70,
                    "time": 367.62387199999904,
                    "velocity": 0.5354330708661418,
                    "duration": 0.5221930000000157
                },
                {
                    "name": "G#4",
                    "midi": 68,
                    "time": 368.14606499999906,
                    "velocity": 0.4409448818897638,
                    "duration": 0.39164475000001175
                },
                {
                    "name": "G#5",
                    "midi": 80,
                    "time": 368.14606499999906,
                    "velocity": 0.5748031496062992,
                    "duration": 0.39164475000001175
                },
                {
                    "name": "G#4",
                    "midi": 68,
                    "time": 368.53770974999907,
                    "velocity": 0.5039370078740157,
                    "duration": 0.04351608333331569
                },
                {
                    "name": "C#5",
                    "midi": 73,
                    "time": 368.5812258333324,
                    "velocity": 0.44881889763779526,
                    "duration": 1.1314181666666627
                },
                {
                    "name": "G#5",
                    "midi": 80,
                    "time": 368.6247419166657,
                    "velocity": 0.4645669291338583,
                    "duration": 0.04351608333331569
                },
                {
                    "name": "C#5",
                    "midi": 73,
                    "time": 368.668257999999,
                    "velocity": 0.5826771653543307,
                    "duration": 1.0443860000000313
                },
                {
                    "name": "F#5",
                    "midi": 78,
                    "time": 368.668257999999,
                    "velocity": 0.5748031496062992,
                    "duration": 0.7832895000000235
                },
                {
                    "name": "F#4",
                    "midi": 66,
                    "time": 368.668257999999,
                    "velocity": 0.48031496062992124,
                    "duration": 1.0443860000000313
                },
                {
                    "name": "F4",
                    "midi": 65,
                    "time": 369.45154749999904,
                    "velocity": 0.4094488188976378,
                    "duration": 0.23498684999998432
                },
                {
                    "name": "F5",
                    "midi": 77,
                    "time": 369.45154749999904,
                    "velocity": 0.48031496062992124,
                    "duration": 0.23498684999998432
                },
                {
                    "name": "F4",
                    "midi": 65,
                    "time": 369.71264399999905,
                    "velocity": 0.4566929133858268,
                    "duration": 1.0443859999999745
                },
                {
                    "name": "F5",
                    "midi": 77,
                    "time": 369.71264399999905,
                    "velocity": 0.5433070866141733,
                    "duration": 1.0443859999999745
                },
                {
                    "name": "C#5",
                    "midi": 73,
                    "time": 369.71264399999905,
                    "velocity": 0.5433070866141733,
                    "duration": 1.0443859999999745
                },
                {
                    "name": "C#5",
                    "midi": 73,
                    "time": 370.757029999999,
                    "velocity": 0.5354330708661418,
                    "duration": 1.0443859999999745
                },
                {
                    "name": "C#4",
                    "midi": 61,
                    "time": 370.757029999999,
                    "velocity": 0.44881889763779526,
                    "duration": 1.0443859999999745
                },
                {
                    "name": "A#4",
                    "midi": 70,
                    "time": 370.757029999999,
                    "velocity": 0.5354330708661418,
                    "duration": 1.0443859999999745
                },
                {
                    "name": "C#5",
                    "midi": 73,
                    "time": 371.801415999999,
                    "velocity": 0.5354330708661418,
                    "duration": 1.0008699166666588
                },
                {
                    "name": "A#5",
                    "midi": 82,
                    "time": 371.801415999999,
                    "velocity": 0.6535433070866141,
                    "duration": 0.5221930000000157
                },
                {
                    "name": "A#4",
                    "midi": 70,
                    "time": 371.801415999999,
                    "velocity": 0.5354330708661418,
                    "duration": 0.5221930000000157
                },
                {
                    "name": "G#4",
                    "midi": 68,
                    "time": 372.323608999999,
                    "velocity": 0.4409448818897638,
                    "duration": 0.39164475000001175
                },
                {
                    "name": "G#5",
                    "midi": 80,
                    "time": 372.323608999999,
                    "velocity": 0.5748031496062992,
                    "duration": 0.39164475000001175
                },
                {
                    "name": "G#4",
                    "midi": 68,
                    "time": 372.715253749999,
                    "velocity": 0.5196850393700787,
                    "duration": 0.04351608333331569
                },
                {
                    "name": "C#5",
                    "midi": 73,
                    "time": 372.75876983333234,
                    "velocity": 0.4566929133858268,
                    "duration": 1.1314181666666627
                },
                {
                    "name": "G#5",
                    "midi": 80,
                    "time": 372.80228591666565,
                    "velocity": 0.4566929133858268,
                    "duration": 0.04351608333331569
                },
                {
                    "name": "C#5",
                    "midi": 73,
                    "time": 372.84580199999897,
                    "velocity": 0.5984251968503937,
                    "duration": 1.0443860000000313
                },
                {
                    "name": "F#5",
                    "midi": 78,
                    "time": 372.84580199999897,
                    "velocity": 0.5748031496062992,
                    "duration": 0.7832895000000235
                },
                {
                    "name": "F#4",
                    "midi": 66,
                    "time": 372.84580199999897,
                    "velocity": 0.49606299212598426,
                    "duration": 1.0443860000000313
                },
                {
                    "name": "F4",
                    "midi": 65,
                    "time": 373.629091499999,
                    "velocity": 0.4094488188976378,
                    "duration": 0.23498684999998432
                },
                {
                    "name": "F5",
                    "midi": 77,
                    "time": 373.629091499999,
                    "velocity": 0.48031496062992124,
                    "duration": 0.23498684999998432
                },
                {
                    "name": "F4",
                    "midi": 65,
                    "time": 373.890187999999,
                    "velocity": 0.4566929133858268,
                    "duration": 1.0443859999999745
                },
                {
                    "name": "F5",
                    "midi": 77,
                    "time": 373.890187999999,
                    "velocity": 0.5433070866141733,
                    "duration": 1.0443859999999745
                },
                {
                    "name": "C#5",
                    "midi": 73,
                    "time": 373.890187999999,
                    "velocity": 0.5433070866141733,
                    "duration": 1.0443859999999745
                },
                {
                    "name": "C#5",
                    "midi": 73,
                    "time": 374.934573999999,
                    "velocity": 0.5354330708661418,
                    "duration": 1.0443859999999745
                },
                {
                    "name": "C#4",
                    "midi": 61,
                    "time": 374.934573999999,
                    "velocity": 0.44881889763779526,
                    "duration": 1.0443859999999745
                },
                {
                    "name": "A#4",
                    "midi": 70,
                    "time": 374.934573999999,
                    "velocity": 0.5354330708661418,
                    "duration": 1.0443859999999745
                },
                {
                    "name": "A#3",
                    "midi": 58,
                    "time": 375.97895999999895,
                    "velocity": 0.4094488188976378,
                    "duration": 1.0443859999999745
                },
                {
                    "name": "F4",
                    "midi": 65,
                    "time": 375.97895999999895,
                    "velocity": 0.4094488188976378,
                    "duration": 1.0443859999999745
                },
                {
                    "name": "A#4",
                    "midi": 70,
                    "time": 375.97895999999895,
                    "velocity": 0.48031496062992124,
                    "duration": 1.0443859999999745
                },
                {
                    "name": "A#3",
                    "midi": 58,
                    "time": 377.0233459999989,
                    "velocity": 0.41732283464566927,
                    "duration": 0.7832895000000235
                },
                {
                    "name": "F#4",
                    "midi": 66,
                    "time": 377.0233459999989,
                    "velocity": 0.41732283464566927,
                    "duration": 1.0443860000000313
                },
                {
                    "name": "A#4",
                    "midi": 70,
                    "time": 377.0233459999989,
                    "velocity": 0.49606299212598426,
                    "duration": 0.7832895000000235
                },
                {
                    "name": "A#3",
                    "midi": 58,
                    "time": 377.80663549999895,
                    "velocity": 0.3779527559055118,
                    "duration": 0.23498684999998432
                },
                {
                    "name": "A#4",
                    "midi": 70,
                    "time": 377.80663549999895,
                    "velocity": 0.44881889763779526,
                    "duration": 0.23498684999998432
                },
                {
                    "name": "A#3",
                    "midi": 58,
                    "time": 378.06773199999895,
                    "velocity": 0.4251968503937008,
                    "duration": 1.0443859999999745
                },
                {
                    "name": "F4",
                    "midi": 65,
                    "time": 378.06773199999895,
                    "velocity": 0.4251968503937008,
                    "duration": 1.0443859999999745
                },
                {
                    "name": "A#4",
                    "midi": 70,
                    "time": 378.06773199999895,
                    "velocity": 0.5118110236220472,
                    "duration": 1.0443859999999745
                },
                {
                    "name": "C#4",
                    "midi": 61,
                    "time": 379.11211799999893,
                    "velocity": 0.5354330708661418,
                    "duration": 0.7832895000000235
                },
                {
                    "name": "C#5",
                    "midi": 73,
                    "time": 379.11211799999893,
                    "velocity": 0.6456692913385826,
                    "duration": 0.7832895000000235
                },
                {
                    "name": "F#4",
                    "midi": 66,
                    "time": 379.11211799999893,
                    "velocity": 0.5196850393700787,
                    "duration": 1.0443860000000313
                },
                {
                    "name": "C4",
                    "midi": 60,
                    "time": 379.89540749999895,
                    "velocity": 0.4645669291338583,
                    "duration": 0.23498684999998432
                },
                {
                    "name": "C5",
                    "midi": 72,
                    "time": 379.89540749999895,
                    "velocity": 0.5590551181102362,
                    "duration": 0.23498684999998432
                },
                {
                    "name": "C4",
                    "midi": 60,
                    "time": 380.15650399999896,
                    "velocity": 0.5354330708661418,
                    "duration": 0.7832895000000235
                },
                {
                    "name": "C5",
                    "midi": 72,
                    "time": 380.15650399999896,
                    "velocity": 0.6220472440944882,
                    "duration": 0.7832895000000235
                },
                {
                    "name": "F4",
                    "midi": 65,
                    "time": 380.15650399999896,
                    "velocity": 0.5354330708661418,
                    "duration": 1.0443860000000313
                },
                {
                    "name": "A#3",
                    "midi": 58,
                    "time": 380.939793499999,
                    "velocity": 0.4645669291338583,
                    "duration": 0.23498684999998432
                },
                {
                    "name": "A#4",
                    "midi": 70,
                    "time": 380.939793499999,
                    "velocity": 0.5590551181102362,
                    "duration": 0.23498684999998432
                },
                {
                    "name": "A#3",
                    "midi": 58,
                    "time": 381.200889999999,
                    "velocity": 0.5039370078740157,
                    "duration": 0.7832895000000235
                },
                {
                    "name": "F#4",
                    "midi": 66,
                    "time": 381.200889999999,
                    "velocity": 0.5039370078740157,
                    "duration": 1.0443860000000313
                },
                {
                    "name": "A#4",
                    "midi": 70,
                    "time": 381.200889999999,
                    "velocity": 0.6062992125984252,
                    "duration": 0.7832895000000235
                },
                {
                    "name": "A#3",
                    "midi": 58,
                    "time": 381.984179499999,
                    "velocity": 0.47244094488188976,
                    "duration": 0.23498684999998432
                },
                {
                    "name": "A#4",
                    "midi": 70,
                    "time": 381.984179499999,
                    "velocity": 0.5669291338582677,
                    "duration": 0.23498684999998432
                },
                {
                    "name": "A#3",
                    "midi": 58,
                    "time": 382.245275999999,
                    "velocity": 0.49606299212598426,
                    "duration": 1.0443859999999745
                },
                {
                    "name": "F4",
                    "midi": 65,
                    "time": 382.245275999999,
                    "velocity": 0.5039370078740157,
                    "duration": 1.0443859999999745
                },
                {
                    "name": "A#4",
                    "midi": 70,
                    "time": 382.245275999999,
                    "velocity": 0.5984251968503937,
                    "duration": 1.0443859999999745
                },
                {
                    "name": "G#4",
                    "midi": 68,
                    "time": 383.289661999999,
                    "velocity": 0.5905511811023622,
                    "duration": 1.0443859999999745
                },
                {
                    "name": "C4",
                    "midi": 60,
                    "time": 383.289661999999,
                    "velocity": 0.5905511811023622,
                    "duration": 1.0443859999999745
                },
                {
                    "name": "C5",
                    "midi": 72,
                    "time": 383.289661999999,
                    "velocity": 0.7480314960629921,
                    "duration": 1.0443859999999745
                },
                {
                    "name": "F#4",
                    "midi": 66,
                    "time": 383.289661999999,
                    "velocity": 0.5905511811023622,
                    "duration": 1.0443859999999745
                },
                {
                    "name": "C#4",
                    "midi": 61,
                    "time": 384.334047999999,
                    "velocity": 0.6141732283464567,
                    "duration": 1.0443859999999745
                },
                {
                    "name": "F4",
                    "midi": 65,
                    "time": 384.334047999999,
                    "velocity": 0.6141732283464567,
                    "duration": 1.0443859999999745
                },
                {
                    "name": "C#5",
                    "midi": 73,
                    "time": 384.334047999999,
                    "velocity": 0.7874015748031497,
                    "duration": 1.0443859999999745
                },
                {
                    "name": "F4",
                    "midi": 65,
                    "time": 385.37843399999895,
                    "velocity": 0.5826771653543307,
                    "duration": 0.7832895000000235
                },
                {
                    "name": "C#5",
                    "midi": 73,
                    "time": 385.37843399999895,
                    "velocity": 0.5826771653543307,
                    "duration": 0.7832895000000235
                },
                {
                    "name": "F5",
                    "midi": 77,
                    "time": 385.37843399999895,
                    "velocity": 0.7007874015748031,
                    "duration": 0.7832895000000235
                },
                {
                    "name": "F#4",
                    "midi": 66,
                    "time": 386.16172349999897,
                    "velocity": 0.5826771653543307,
                    "duration": 0.26109650000000784
                },
                {
                    "name": "F#5",
                    "midi": 78,
                    "time": 386.16172349999897,
                    "velocity": 0.7007874015748031,
                    "duration": 0.26109650000000784
                },
                {
                    "name": "G#4",
                    "midi": 68,
                    "time": 386.422819999999,
                    "velocity": 0.6141732283464567,
                    "duration": 0.7832895000000235
                },
                {
                    "name": "C#5",
                    "midi": 73,
                    "time": 386.422819999999,
                    "velocity": 0.6141732283464567,
                    "duration": 0.7832895000000235
                },
                {
                    "name": "G#5",
                    "midi": 80,
                    "time": 386.422819999999,
                    "velocity": 0.7322834645669292,
                    "duration": 0.7832895000000235
                },
                {
                    "name": "A#4",
                    "midi": 70,
                    "time": 387.206109499999,
                    "velocity": 0.6141732283464567,
                    "duration": 0.26109650000000784
                },
                {
                    "name": "A#5",
                    "midi": 82,
                    "time": 387.206109499999,
                    "velocity": 0.7322834645669292,
                    "duration": 0.26109650000000784
                },
                {
                    "name": "C5",
                    "midi": 72,
                    "time": 387.467205999999,
                    "velocity": 0.6614173228346457,
                    "duration": 0.7832895000000235
                },
                {
                    "name": "G#5",
                    "midi": 80,
                    "time": 387.467205999999,
                    "velocity": 0.6614173228346457,
                    "duration": 0.7832895000000235
                },
                {
                    "name": "C6",
                    "midi": 84,
                    "time": 387.467205999999,
                    "velocity": 0.7795275590551181,
                    "duration": 0.7832895000000235
                },
                {
                    "name": "C#5",
                    "midi": 73,
                    "time": 388.25049549999903,
                    "velocity": 0.6929133858267716,
                    "duration": 0.26109650000000784
                },
                {
                    "name": "C#6",
                    "midi": 85,
                    "time": 388.25049549999903,
                    "velocity": 0.8031496062992126,
                    "duration": 0.26109650000000784
                },
                {
                    "name": "C6",
                    "midi": 84,
                    "time": 388.51159199999904,
                    "velocity": 0.6929133858267716,
                    "duration": 3.655350999999996
                },
                {
                    "name": "G#5",
                    "midi": 80,
                    "time": 388.51159199999904,
                    "velocity": 0.6929133858267716,
                    "duration": 3.655350999999996
                },
                {
                    "name": "F5",
                    "midi": 77,
                    "time": 388.51159199999904,
                    "velocity": 0.6929133858267716,
                    "duration": 2.088772000000006
                },
                {
                    "name": "F6",
                    "midi": 89,
                    "time": 388.51159199999904,
                    "velocity": 0.8110236220472441,
                    "duration": 2.088772000000006
                },
                {
                    "name": "D#5",
                    "midi": 75,
                    "time": 390.60036399999905,
                    "velocity": 0.6220472440944882,
                    "duration": 1.5665789999999902
                },
                {
                    "name": "D#6",
                    "midi": 87,
                    "time": 390.60036399999905,
                    "velocity": 0.7480314960629921,
                    "duration": 1.5665789999999902
                },
                {
                    "name": "F#4",
                    "midi": 66,
                    "time": 392.42803949999904,
                    "velocity": 0.5905511811023622,
                    "duration": 0.26109650000000784
                },
                {
                    "name": "C5",
                    "midi": 72,
                    "time": 392.42803949999904,
                    "velocity": 0.5905511811023622,
                    "duration": 0.26109650000000784
                },
                {
                    "name": "D#5",
                    "midi": 75,
                    "time": 392.42803949999904,
                    "velocity": 0.5905511811023622,
                    "duration": 0.26109650000000784
                },
                {
                    "name": "F#5",
                    "midi": 78,
                    "time": 392.42803949999904,
                    "velocity": 0.7007874015748031,
                    "duration": 0.26109650000000784
                },
                {
                    "name": "D#5",
                    "midi": 75,
                    "time": 392.68913599999905,
                    "velocity": 0.6299212598425197,
                    "duration": 1.0443859999999745
                },
                {
                    "name": "F4",
                    "midi": 65,
                    "time": 392.68913599999905,
                    "velocity": 0.6299212598425197,
                    "duration": 1.0443859999999745
                },
                {
                    "name": "C5",
                    "midi": 72,
                    "time": 392.68913599999905,
                    "velocity": 0.6299212598425197,
                    "duration": 1.0443859999999745
                },
                {
                    "name": "F5",
                    "midi": 77,
                    "time": 392.68913599999905,
                    "velocity": 0.8031496062992126,
                    "duration": 1.0443859999999745
                },
                {
                    "name": "A#4",
                    "midi": 70,
                    "time": 393.733521999999,
                    "velocity": 0.5826771653543307,
                    "duration": 0.7832895000000235
                },
                {
                    "name": "F4",
                    "midi": 65,
                    "time": 393.733521999999,
                    "velocity": 0.5826771653543307,
                    "duration": 0.7832895000000235
                },
                {
                    "name": "C#5",
                    "midi": 73,
                    "time": 393.733521999999,
                    "velocity": 0.5826771653543307,
                    "duration": 0.7832895000000235
                },
                {
                    "name": "F5",
                    "midi": 77,
                    "time": 393.733521999999,
                    "velocity": 0.7007874015748031,
                    "duration": 0.7832895000000235
                },
                {
                    "name": "G4",
                    "midi": 67,
                    "time": 394.51681149999905,
                    "velocity": 0.5826771653543307,
                    "duration": 0.26109650000000784
                },
                {
                    "name": "G5",
                    "midi": 79,
                    "time": 394.51681149999905,
                    "velocity": 0.7007874015748031,
                    "duration": 0.26109650000000784
                },
                {
                    "name": "F5",
                    "midi": 77,
                    "time": 394.77790799999906,
                    "velocity": 0.6141732283464567,
                    "duration": 0.7832895000000235
                },
                {
                    "name": "A4",
                    "midi": 69,
                    "time": 394.77790799999906,
                    "velocity": 0.6141732283464567,
                    "duration": 0.7832895000000235
                },
                {
                    "name": "C#5",
                    "midi": 73,
                    "time": 394.77790799999906,
                    "velocity": 0.6141732283464567,
                    "duration": 0.7832895000000235
                },
                {
                    "name": "A5",
                    "midi": 81,
                    "time": 394.77790799999906,
                    "velocity": 0.7322834645669292,
                    "duration": 0.7832895000000235
                },
                {
                    "name": "A#4",
                    "midi": 70,
                    "time": 395.5611974999991,
                    "velocity": 0.6141732283464567,
                    "duration": 0.26109650000000784
                },
                {
                    "name": "A#5",
                    "midi": 82,
                    "time": 395.5611974999991,
                    "velocity": 0.7322834645669292,
                    "duration": 0.26109650000000784
                },
                {
                    "name": "C5",
                    "midi": 72,
                    "time": 395.8222939999991,
                    "velocity": 0.6614173228346457,
                    "duration": 0.7832895000000235
                },
                {
                    "name": "F5",
                    "midi": 77,
                    "time": 395.8222939999991,
                    "velocity": 0.6614173228346457,
                    "duration": 0.7832895000000235
                },
                {
                    "name": "C6",
                    "midi": 84,
                    "time": 395.8222939999991,
                    "velocity": 0.7795275590551181,
                    "duration": 0.7832895000000235
                },
                {
                    "name": "C#5",
                    "midi": 73,
                    "time": 396.6055834999991,
                    "velocity": 0.6929133858267716,
                    "duration": 0.13054825000000392
                },
                {
                    "name": "C#6",
                    "midi": 85,
                    "time": 396.6055834999991,
                    "velocity": 0.8031496062992126,
                    "duration": 0.13054825000000392
                },
                {
                    "name": "A#4",
                    "midi": 70,
                    "time": 396.7361317499991,
                    "velocity": 0.6929133858267716,
                    "duration": 2.219320249999953
                },
                {
                    "name": "E5",
                    "midi": 76,
                    "time": 396.77964783333243,
                    "velocity": 0.6929133858267716,
                    "duration": 2.1758041666666372
                },
                {
                    "name": "G5",
                    "midi": 79,
                    "time": 396.82316391666575,
                    "velocity": 0.6929133858267716,
                    "duration": 2.1322880833333215
                },
                {
                    "name": "C#6",
                    "midi": 85,
                    "time": 396.86667999999906,
                    "velocity": 0.8110236220472441,
                    "duration": 2.088772000000006
                },
                {
                    "name": "C5",
                    "midi": 72,
                    "time": 398.95545199999907,
                    "velocity": 0.5984251968503937,
                    "duration": 1.0443859999999745
                },
                {
                    "name": "F5",
                    "midi": 77,
                    "time": 398.95545199999907,
                    "velocity": 0.5984251968503937,
                    "duration": 1.0443859999999745
                },
                {
                    "name": "C6",
                    "midi": 84,
                    "time": 398.95545199999907,
                    "velocity": 0.7086614173228346,
                    "duration": 1.0443859999999745
                },
                {
                    "name": "G#3",
                    "midi": 56,
                    "time": 401.044223999999,
                    "velocity": 0.5354330708661418,
                    "duration": 1.0443859999999745
                },
                {
                    "name": "F#3",
                    "midi": 54,
                    "time": 401.044223999999,
                    "velocity": 0.5354330708661418,
                    "duration": 1.0443859999999745
                },
                {
                    "name": "C4",
                    "midi": 60,
                    "time": 401.044223999999,
                    "velocity": 0.5354330708661418,
                    "duration": 1.0443859999999745
                },
                {
                    "name": "F4",
                    "midi": 65,
                    "time": 401.044223999999,
                    "velocity": 0.5354330708661418,
                    "duration": 1.0443859999999745
                },
                {
                    "name": "G#4",
                    "midi": 68,
                    "time": 401.044223999999,
                    "velocity": 0.6299212598425197,
                    "duration": 1.0443859999999745
                },
                {
                    "name": "F#3",
                    "midi": 54,
                    "time": 402.088609999999,
                    "velocity": 0.5354330708661418,
                    "duration": 1.0443859999999745
                },
                {
                    "name": "G#3",
                    "midi": 56,
                    "time": 402.088609999999,
                    "velocity": 0.5354330708661418,
                    "duration": 1.0443859999999745
                },
                {
                    "name": "C4",
                    "midi": 60,
                    "time": 402.088609999999,
                    "velocity": 0.5354330708661418,
                    "duration": 1.0443859999999745
                },
                {
                    "name": "D#4",
                    "midi": 63,
                    "time": 402.088609999999,
                    "velocity": 0.5354330708661418,
                    "duration": 1.0443859999999745
                },
                {
                    "name": "G#4",
                    "midi": 68,
                    "time": 402.088609999999,
                    "velocity": 0.6299212598425197,
                    "duration": 1.0443859999999745
                },
                {
                    "name": "F3",
                    "midi": 53,
                    "time": 403.13299599999897,
                    "velocity": 0.5354330708661418,
                    "duration": 1.0443859999999745
                },
                {
                    "name": "C#4",
                    "midi": 61,
                    "time": 403.13299599999897,
                    "velocity": 0.5354330708661418,
                    "duration": 1.0443859999999745
                },
                {
                    "name": "G#4",
                    "midi": 68,
                    "time": 403.13299599999897,
                    "velocity": 0.6299212598425197,
                    "duration": 1.0443859999999745
                },
                {
                    "name": "A3",
                    "midi": 57,
                    "time": 405.2217679999989,
                    "velocity": 0.5354330708661418,
                    "duration": 1.0443859999999745
                },
                {
                    "name": "D#3",
                    "midi": 51,
                    "time": 405.2217679999989,
                    "velocity": 0.5354330708661418,
                    "duration": 1.0443859999999745
                },
                {
                    "name": "C#4",
                    "midi": 61,
                    "time": 405.2217679999989,
                    "velocity": 0.5354330708661418,
                    "duration": 1.0443859999999745
                },
                {
                    "name": "F4",
                    "midi": 65,
                    "time": 405.2217679999989,
                    "velocity": 0.6299212598425197,
                    "duration": 1.0443859999999745
                },
                {
                    "name": "D#3",
                    "midi": 51,
                    "time": 406.2661539999989,
                    "velocity": 0.5354330708661418,
                    "duration": 1.0443859999999745
                },
                {
                    "name": "A3",
                    "midi": 57,
                    "time": 406.2661539999989,
                    "velocity": 0.5354330708661418,
                    "duration": 1.0443859999999745
                },
                {
                    "name": "C4",
                    "midi": 60,
                    "time": 406.2661539999989,
                    "velocity": 0.5354330708661418,
                    "duration": 1.0443859999999745
                },
                {
                    "name": "F4",
                    "midi": 65,
                    "time": 406.2661539999989,
                    "velocity": 0.6299212598425197,
                    "duration": 1.0443859999999745
                },
                {
                    "name": "C#3",
                    "midi": 49,
                    "time": 407.31053999999887,
                    "velocity": 0.5354330708661418,
                    "duration": 2.088772000000006
                },
                {
                    "name": "A#3",
                    "midi": 58,
                    "time": 407.31053999999887,
                    "velocity": 0.6299212598425197,
                    "duration": 2.088772000000006
                },
                {
                    "name": "A#2",
                    "midi": 46,
                    "time": 409.3993119999989,
                    "velocity": 0.30708661417322836,
                    "duration": 1.0443859999999745
                },
                {
                    "name": "F3",
                    "midi": 53,
                    "time": 409.3993119999989,
                    "velocity": 0.30708661417322836,
                    "duration": 1.0443859999999745
                },
                {
                    "name": "A#3",
                    "midi": 58,
                    "time": 409.3993119999989,
                    "velocity": 0.36220472440944884,
                    "duration": 1.0443859999999745
                },
                {
                    "name": "F#3",
                    "midi": 54,
                    "time": 410.44369799999885,
                    "velocity": 0.30708661417322836,
                    "duration": 1.0443860000000313
                },
                {
                    "name": "A#3",
                    "midi": 58,
                    "time": 410.44369799999885,
                    "velocity": 0.36220472440944884,
                    "duration": 0.7832895000000235
                },
                {
                    "name": "A#3",
                    "midi": 58,
                    "time": 411.22698749999887,
                    "velocity": 0.3228346456692913,
                    "duration": 0.23498684999998432
                },
                {
                    "name": "F3",
                    "midi": 53,
                    "time": 411.4880839999989,
                    "velocity": 0.30708661417322836,
                    "duration": 1.0443859999999745
                },
                {
                    "name": "A#3",
                    "midi": 58,
                    "time": 411.4880839999989,
                    "velocity": 0.36220472440944884,
                    "duration": 1.0443859999999745
                },
                {
                    "name": "C#4",
                    "midi": 61,
                    "time": 412.53246999999885,
                    "velocity": 0.4251968503937008,
                    "duration": 0.7832895000000235
                },
                {
                    "name": "F#3",
                    "midi": 54,
                    "time": 412.53246999999885,
                    "velocity": 0.3464566929133858,
                    "duration": 1.0443860000000313
                },
                {
                    "name": "C4",
                    "midi": 60,
                    "time": 413.3157594999989,
                    "velocity": 0.3858267716535433,
                    "duration": 0.13054825000000392
                },
                {
                    "name": "C#4",
                    "midi": 61,
                    "time": 413.4463077499989,
                    "velocity": 0.3543307086614173,
                    "duration": 0.13054825000000392
                },
                {
                    "name": "C4",
                    "midi": 60,
                    "time": 413.5768559999989,
                    "velocity": 0.4094488188976378,
                    "duration": 0.7832895000000235
                },
                {
                    "name": "F3",
                    "midi": 53,
                    "time": 413.5768559999989,
                    "velocity": 0.3464566929133858,
                    "duration": 1.0443860000000313
                },
                {
                    "name": "A#3",
                    "midi": 58,
                    "time": 414.3601454999989,
                    "velocity": 0.36220472440944884,
                    "duration": 0.26109650000000784
                },
                {
                    "name": "F#3",
                    "midi": 54,
                    "time": 414.6212419999989,
                    "velocity": 0.33070866141732286,
                    "duration": 1.0443860000000313
                },
                {
                    "name": "A#3",
                    "midi": 58,
                    "time": 414.6212419999989,
                    "velocity": 0.3937007874015748,
                    "duration": 0.7832895000000235
                },
                {
                    "name": "A#3",
                    "midi": 58,
                    "time": 415.40453149999894,
                    "velocity": 0.3228346456692913,
                    "duration": 0.23498684999998432
                },
                {
                    "name": "F3",
                    "midi": 53,
                    "time": 415.66562799999895,
                    "velocity": 0.30708661417322836,
                    "duration": 1.0443859999999745
                },
                {
                    "name": "A#3",
                    "midi": 58,
                    "time": 415.66562799999895,
                    "velocity": 0.36220472440944884,
                    "duration": 1.0443859999999745
                },
                {
                    "name": "G3",
                    "midi": 55,
                    "time": 416.7100139999989,
                    "velocity": 0.5984251968503937,
                    "duration": 0.7832895000000235
                },
                {
                    "name": "C#4",
                    "midi": 61,
                    "time": 416.7100139999989,
                    "velocity": 0.7637795275590551,
                    "duration": 0.7832895000000235
                },
                {
                    "name": "E3",
                    "midi": 52,
                    "time": 416.7100139999989,
                    "velocity": 0.5984251968503937,
                    "duration": 0.7832895000000235
                },
                {
                    "name": "F#3",
                    "midi": 54,
                    "time": 417.49330349999894,
                    "velocity": 0.5984251968503937,
                    "duration": 0.26109650000000784
                },
                {
                    "name": "C4",
                    "midi": 60,
                    "time": 417.49330349999894,
                    "velocity": 0.5984251968503937,
                    "duration": 0.26109650000000784
                },
                {
                    "name": "D#4",
                    "midi": 63,
                    "time": 417.49330349999894,
                    "velocity": 0.7637795275590551,
                    "duration": 0.26109650000000784
                },
                {
                    "name": "F3",
                    "midi": 53,
                    "time": 417.75439999999895,
                    "velocity": 0.6220472440944882,
                    "duration": 1.0443859999999745
                },
                {
                    "name": "C#4",
                    "midi": 61,
                    "time": 417.75439999999895,
                    "velocity": 0.6220472440944882,
                    "duration": 1.0443859999999745
                },
                {
                    "name": "F4",
                    "midi": 65,
                    "time": 417.75439999999895,
                    "velocity": 0.7952755905511811,
                    "duration": 1.0443859999999745
                },
                {
                    "name": "F4",
                    "midi": 65,
                    "time": 418.7987859999989,
                    "velocity": 0.5826771653543307,
                    "duration": 0.7832895000000235
                },
                {
                    "name": "C#5",
                    "midi": 73,
                    "time": 418.7987859999989,
                    "velocity": 0.5826771653543307,
                    "duration": 0.7832895000000235
                },
                {
                    "name": "F5",
                    "midi": 77,
                    "time": 418.7987859999989,
                    "velocity": 0.7007874015748031,
                    "duration": 0.7832895000000235
                },
                {
                    "name": "F#4",
                    "midi": 66,
                    "time": 419.58207549999895,
                    "velocity": 0.5826771653543307,
                    "duration": 0.26109650000000784
                },
                {
                    "name": "F#5",
                    "midi": 78,
                    "time": 419.58207549999895,
                    "velocity": 0.7007874015748031,
                    "duration": 0.26109650000000784
                },
                {
                    "name": "G#4",
                    "midi": 68,
                    "time": 419.84317199999896,
                    "velocity": 0.6220472440944882,
                    "duration": 0.7832895000000235
                },
                {
                    "name": "C#5",
                    "midi": 73,
                    "time": 419.84317199999896,
                    "velocity": 0.6220472440944882,
                    "duration": 0.7832895000000235
                },
                {
                    "name": "G#5",
                    "midi": 80,
                    "time": 419.84317199999896,
                    "velocity": 0.7322834645669292,
                    "duration": 0.7832895000000235
                },
                {
                    "name": "A#4",
                    "midi": 70,
                    "time": 420.626461499999,
                    "velocity": 0.6220472440944882,
                    "duration": 0.26109650000000784
                },
                {
                    "name": "A#5",
                    "midi": 82,
                    "time": 420.626461499999,
                    "velocity": 0.7322834645669292,
                    "duration": 0.26109650000000784
                },
                {
                    "name": "C5",
                    "midi": 72,
                    "time": 420.887557999999,
                    "velocity": 0.6614173228346457,
                    "duration": 0.7832895000000235
                },
                {
                    "name": "G#5",
                    "midi": 80,
                    "time": 420.887557999999,
                    "velocity": 0.6614173228346457,
                    "duration": 0.7832895000000235
                },
                {
                    "name": "C6",
                    "midi": 84,
                    "time": 420.887557999999,
                    "velocity": 0.7874015748031497,
                    "duration": 0.7832895000000235
                },
                {
                    "name": "C#5",
                    "midi": 73,
                    "time": 421.670847499999,
                    "velocity": 0.6929133858267716,
                    "duration": 0.26109650000000784
                },
                {
                    "name": "C#6",
                    "midi": 85,
                    "time": 421.670847499999,
                    "velocity": 0.8110236220472441,
                    "duration": 0.26109650000000784
                },
                {
                    "name": "C6",
                    "midi": 84,
                    "time": 421.931943999999,
                    "velocity": 0.6929133858267716,
                    "duration": 3.655350999999996
                },
                {
                    "name": "G#5",
                    "midi": 80,
                    "time": 421.931943999999,
                    "velocity": 0.6929133858267716,
                    "duration": 3.655350999999996
                },
                {
                    "name": "F5",
                    "midi": 77,
                    "time": 421.931943999999,
                    "velocity": 0.6929133858267716,
                    "duration": 2.088772000000006
                },
                {
                    "name": "F6",
                    "midi": 89,
                    "time": 421.931943999999,
                    "velocity": 0.8188976377952756,
                    "duration": 2.088772000000006
                },
                {
                    "name": "D#5",
                    "midi": 75,
                    "time": 424.020715999999,
                    "velocity": 0.6220472440944882,
                    "duration": 1.5665789999999902
                },
                {
                    "name": "D#6",
                    "midi": 87,
                    "time": 424.020715999999,
                    "velocity": 0.7480314960629921,
                    "duration": 1.5665789999999902
                },
                {
                    "name": "F#4",
                    "midi": 66,
                    "time": 425.848391499999,
                    "velocity": 0.5669291338582677,
                    "duration": 0.26109650000000784
                },
                {
                    "name": "C5",
                    "midi": 72,
                    "time": 425.848391499999,
                    "velocity": 0.5669291338582677,
                    "duration": 0.26109650000000784
                },
                {
                    "name": "D#5",
                    "midi": 75,
                    "time": 425.848391499999,
                    "velocity": 0.5669291338582677,
                    "duration": 0.26109650000000784
                },
                {
                    "name": "F#5",
                    "midi": 78,
                    "time": 425.848391499999,
                    "velocity": 0.6692913385826772,
                    "duration": 0.26109650000000784
                },
                {
                    "name": "D#5",
                    "midi": 75,
                    "time": 426.10948799999903,
                    "velocity": 0.6062992125984252,
                    "duration": 1.0443859999999745
                },
                {
                    "name": "F4",
                    "midi": 65,
                    "time": 426.10948799999903,
                    "velocity": 0.6062992125984252,
                    "duration": 1.0443859999999745
                },
                {
                    "name": "C5",
                    "midi": 72,
                    "time": 426.10948799999903,
                    "velocity": 0.6062992125984252,
                    "duration": 1.0443859999999745
                },
                {
                    "name": "F5",
                    "midi": 77,
                    "time": 426.10948799999903,
                    "velocity": 0.7716535433070866,
                    "duration": 1.0443859999999745
                },
                {
                    "name": "A#4",
                    "midi": 70,
                    "time": 427.153873999999,
                    "velocity": 0.5826771653543307,
                    "duration": 0.7832895000000235
                },
                {
                    "name": "F4",
                    "midi": 65,
                    "time": 427.153873999999,
                    "velocity": 0.5826771653543307,
                    "duration": 0.7832895000000235
                },
                {
                    "name": "C#5",
                    "midi": 73,
                    "time": 427.153873999999,
                    "velocity": 0.5826771653543307,
                    "duration": 0.7832895000000235
                },
                {
                    "name": "F5",
                    "midi": 77,
                    "time": 427.153873999999,
                    "velocity": 0.7007874015748031,
                    "duration": 0.7832895000000235
                },
                {
                    "name": "G4",
                    "midi": 67,
                    "time": 427.93716349999903,
                    "velocity": 0.5826771653543307,
                    "duration": 0.26109650000000784
                },
                {
                    "name": "G5",
                    "midi": 79,
                    "time": 427.93716349999903,
                    "velocity": 0.7007874015748031,
                    "duration": 0.26109650000000784
                },
                {
                    "name": "F5",
                    "midi": 77,
                    "time": 428.19825999999904,
                    "velocity": 0.6141732283464567,
                    "duration": 0.7832895000000235
                },
                {
                    "name": "A4",
                    "midi": 69,
                    "time": 428.19825999999904,
                    "velocity": 0.6141732283464567,
                    "duration": 0.7832895000000235
                },
                {
                    "name": "C#5",
                    "midi": 73,
                    "time": 428.19825999999904,
                    "velocity": 0.6141732283464567,
                    "duration": 0.7832895000000235
                },
                {
                    "name": "A5",
                    "midi": 81,
                    "time": 428.19825999999904,
                    "velocity": 0.7322834645669292,
                    "duration": 0.7832895000000235
                },
                {
                    "name": "A#4",
                    "midi": 70,
                    "time": 428.98154949999906,
                    "velocity": 0.6141732283464567,
                    "duration": 0.26109650000000784
                },
                {
                    "name": "A#5",
                    "midi": 82,
                    "time": 428.98154949999906,
                    "velocity": 0.7322834645669292,
                    "duration": 0.26109650000000784
                },
                {
                    "name": "C5",
                    "midi": 72,
                    "time": 429.24264599999907,
                    "velocity": 0.6614173228346457,
                    "duration": 0.7832895000000235
                },
                {
                    "name": "F5",
                    "midi": 77,
                    "time": 429.24264599999907,
                    "velocity": 0.6614173228346457,
                    "duration": 0.7832895000000235
                },
                {
                    "name": "C6",
                    "midi": 84,
                    "time": 429.24264599999907,
                    "velocity": 0.7795275590551181,
                    "duration": 0.7832895000000235
                },
                {
                    "name": "C#5",
                    "midi": 73,
                    "time": 430.0259354999991,
                    "velocity": 0.6929133858267716,
                    "duration": 0.13054825000000392
                },
                {
                    "name": "C#6",
                    "midi": 85,
                    "time": 430.0259354999991,
                    "velocity": 0.8031496062992126,
                    "duration": 0.13054825000000392
                },
                {
                    "name": "A#4",
                    "midi": 70,
                    "time": 430.1564837499991,
                    "velocity": 0.6929133858267716,
                    "duration": 2.219320249999953
                },
                {
                    "name": "E5",
                    "midi": 76,
                    "time": 430.1999998333324,
                    "velocity": 0.6929133858267716,
                    "duration": 2.1758041666666372
                },
                {
                    "name": "G5",
                    "midi": 79,
                    "time": 430.24351591666573,
                    "velocity": 0.6929133858267716,
                    "duration": 2.1322880833333215
                },
                {
                    "name": "C#6",
                    "midi": 85,
                    "time": 430.28703199999904,
                    "velocity": 0.8110236220472441,
                    "duration": 2.088772000000006
                },
                {
                    "name": "C5",
                    "midi": 72,
                    "time": 432.37580399999905,
                    "velocity": 0.5984251968503937,
                    "duration": 1.0443859999999745
                },
                {
                    "name": "F5",
                    "midi": 77,
                    "time": 432.37580399999905,
                    "velocity": 0.5984251968503937,
                    "duration": 1.0443859999999745
                },
                {
                    "name": "C6",
                    "midi": 84,
                    "time": 432.37580399999905,
                    "velocity": 0.7086614173228346,
                    "duration": 1.0443859999999745
                },
                {
                    "name": "G#3",
                    "midi": 56,
                    "time": 434.464575999999,
                    "velocity": 0.5354330708661418,
                    "duration": 1.0443859999999745
                },
                {
                    "name": "F#3",
                    "midi": 54,
                    "time": 434.464575999999,
                    "velocity": 0.5354330708661418,
                    "duration": 1.0443859999999745
                },
                {
                    "name": "C4",
                    "midi": 60,
                    "time": 434.464575999999,
                    "velocity": 0.5354330708661418,
                    "duration": 1.0443859999999745
                },
                {
                    "name": "F4",
                    "midi": 65,
                    "time": 434.464575999999,
                    "velocity": 0.5354330708661418,
                    "duration": 1.0443859999999745
                },
                {
                    "name": "G#4",
                    "midi": 68,
                    "time": 434.464575999999,
                    "velocity": 0.6299212598425197,
                    "duration": 1.0443859999999745
                },
                {
                    "name": "F#3",
                    "midi": 54,
                    "time": 435.508961999999,
                    "velocity": 0.5354330708661418,
                    "duration": 1.0443859999999745
                },
                {
                    "name": "G#3",
                    "midi": 56,
                    "time": 435.508961999999,
                    "velocity": 0.5354330708661418,
                    "duration": 1.0443859999999745
                },
                {
                    "name": "C4",
                    "midi": 60,
                    "time": 435.508961999999,
                    "velocity": 0.5354330708661418,
                    "duration": 1.0443859999999745
                },
                {
                    "name": "D#4",
                    "midi": 63,
                    "time": 435.508961999999,
                    "velocity": 0.5354330708661418,
                    "duration": 1.0443859999999745
                },
                {
                    "name": "G#4",
                    "midi": 68,
                    "time": 435.508961999999,
                    "velocity": 0.6299212598425197,
                    "duration": 1.0443859999999745
                },
                {
                    "name": "F3",
                    "midi": 53,
                    "time": 436.55334799999895,
                    "velocity": 0.5354330708661418,
                    "duration": 1.0443859999999745
                },
                {
                    "name": "C#4",
                    "midi": 61,
                    "time": 436.55334799999895,
                    "velocity": 0.5354330708661418,
                    "duration": 1.0443859999999745
                },
                {
                    "name": "G#4",
                    "midi": 68,
                    "time": 436.55334799999895,
                    "velocity": 0.6299212598425197,
                    "duration": 1.0443859999999745
                },
                {
                    "name": "A3",
                    "midi": 57,
                    "time": 438.6421199999989,
                    "velocity": 0.5354330708661418,
                    "duration": 1.0443859999999745
                },
                {
                    "name": "D#3",
                    "midi": 51,
                    "time": 438.6421199999989,
                    "velocity": 0.5354330708661418,
                    "duration": 1.0443859999999745
                },
                {
                    "name": "C#4",
                    "midi": 61,
                    "time": 438.6421199999989,
                    "velocity": 0.5354330708661418,
                    "duration": 1.0443859999999745
                },
                {
                    "name": "F4",
                    "midi": 65,
                    "time": 438.6421199999989,
                    "velocity": 0.6299212598425197,
                    "duration": 1.0443859999999745
                },
                {
                    "name": "D#3",
                    "midi": 51,
                    "time": 439.6865059999989,
                    "velocity": 0.5354330708661418,
                    "duration": 1.0443859999999745
                },
                {
                    "name": "A3",
                    "midi": 57,
                    "time": 439.6865059999989,
                    "velocity": 0.5354330708661418,
                    "duration": 1.0443859999999745
                },
                {
                    "name": "C4",
                    "midi": 60,
                    "time": 439.6865059999989,
                    "velocity": 0.5354330708661418,
                    "duration": 1.0443859999999745
                },
                {
                    "name": "F4",
                    "midi": 65,
                    "time": 439.6865059999989,
                    "velocity": 0.6299212598425197,
                    "duration": 1.0443859999999745
                },
                {
                    "name": "C#3",
                    "midi": 49,
                    "time": 440.73089199999885,
                    "velocity": 0.5354330708661418,
                    "duration": 2.088772000000006
                },
                {
                    "name": "A#3",
                    "midi": 58,
                    "time": 440.73089199999885,
                    "velocity": 0.6299212598425197,
                    "duration": 2.088772000000006
                },
                {
                    "name": "A#2",
                    "midi": 46,
                    "time": 442.81966399999885,
                    "velocity": 0.30708661417322836,
                    "duration": 1.0443859999999745
                },
                {
                    "name": "F3",
                    "midi": 53,
                    "time": 442.81966399999885,
                    "velocity": 0.30708661417322836,
                    "duration": 1.0443859999999745
                },
                {
                    "name": "A#3",
                    "midi": 58,
                    "time": 442.81966399999885,
                    "velocity": 0.36220472440944884,
                    "duration": 1.0443859999999745
                },
                {
                    "name": "F#3",
                    "midi": 54,
                    "time": 443.8640499999988,
                    "velocity": 0.30708661417322836,
                    "duration": 1.0443860000000313
                },
                {
                    "name": "A#3",
                    "midi": 58,
                    "time": 443.8640499999988,
                    "velocity": 0.36220472440944884,
                    "duration": 0.7832895000000235
                },
                {
                    "name": "A#3",
                    "midi": 58,
                    "time": 444.64733949999885,
                    "velocity": 0.3228346456692913,
                    "duration": 0.23498684999998432
                },
                {
                    "name": "F3",
                    "midi": 53,
                    "time": 444.90843599999886,
                    "velocity": 0.30708661417322836,
                    "duration": 1.0443859999999745
                },
                {
                    "name": "A#3",
                    "midi": 58,
                    "time": 444.90843599999886,
                    "velocity": 0.36220472440944884,
                    "duration": 1.0443859999999745
                },
                {
                    "name": "C#4",
                    "midi": 61,
                    "time": 445.95282199999883,
                    "velocity": 0.3543307086614173,
                    "duration": 0.7832895000000235
                },
                {
                    "name": "F#3",
                    "midi": 54,
                    "time": 445.95282199999883,
                    "velocity": 0.29133858267716534,
                    "duration": 1.0443860000000313
                },
                {
                    "name": "C4",
                    "midi": 60,
                    "time": 446.73611149999886,
                    "velocity": 0.31496062992125984,
                    "duration": 0.13054825000000392
                },
                {
                    "name": "C#4",
                    "midi": 61,
                    "time": 446.86665974999886,
                    "velocity": 0.29133858267716534,
                    "duration": 0.13054825000000392
                },
                {
                    "name": "C4",
                    "midi": 60,
                    "time": 446.99720799999886,
                    "velocity": 0.33070866141732286,
                    "duration": 0.7832895000000235
                },
                {
                    "name": "F3",
                    "midi": 53,
                    "time": 446.99720799999886,
                    "velocity": 0.28346456692913385,
                    "duration": 1.0443860000000313
                },
                {
                    "name": "A#3",
                    "midi": 58,
                    "time": 447.7804974999989,
                    "velocity": 0.28346456692913385,
                    "duration": 0.23498684999998432
                },
                {
                    "name": "F#3",
                    "midi": 54,
                    "time": 448.0415939999989,
                    "velocity": 0.25984251968503935,
                    "duration": 1.0443860000000313
                },
                {
                    "name": "A#3",
                    "midi": 58,
                    "time": 448.0415939999989,
                    "velocity": 0.31496062992125984,
                    "duration": 0.7832895000000235
                },
                {
                    "name": "A#3",
                    "midi": 58,
                    "time": 448.8248834999989,
                    "velocity": 0.2204724409448819,
                    "duration": 0.23498684999998432
                },
                {
                    "name": "C#3",
                    "midi": 49,
                    "time": 449.0859799999989,
                    "velocity": 0.2047244094488189,
                    "duration": 2.088772000000006
                },
                {
                    "name": "F3",
                    "midi": 53,
                    "time": 449.0859799999989,
                    "velocity": 0.2047244094488189,
                    "duration": 2.088772000000006
                },
                {
                    "name": "A#3",
                    "midi": 58,
                    "time": 449.0859799999989,
                    "velocity": 0.2440944881889764,
                    "duration": 2.088772000000006
                }
            ],
            "controlChanges": {
                "7": [
                    {
                        "number": 7,
                        "time": 0,
                        "value": 0.7874015748031497
                    }
                ],
                "10": [
                    {
                        "number": 10,
                        "time": 0,
                        "value": 0.5039370078740157
                    }
                ],
                "64": [
                    {
                        "number": 64,
                        "time": 0,
                        "value": 0
                    }
                ],
                "91": [
                    {
                        "number": 91,
                        "time": 0,
                        "value": 1
                    }
                ]
            },
            "id": 1,
            "name": "Piano right",
            "instrumentNumber": 0,
            "instrument": "acoustic grand piano",
            "instrumentFamily": "piano",
            "channelNumber": 0,
            "isPercussion": false
        },
        {
            "startTime": 0,
            "duration": 451.17475199999984,
            "length": 1240,
            "notes": [
                {
                    "name": "A#1",
                    "midi": 34,
                    "time": 0,
                    "velocity": 0.2204724409448819,
                    "duration": 1.044386
                },
                {
                    "name": "F2",
                    "midi": 41,
                    "time": 0,
                    "velocity": 0.2204724409448819,
                    "duration": 1.044386
                },
                {
                    "name": "A#2",
                    "midi": 46,
                    "time": 0,
                    "velocity": 0.2677165354330709,
                    "duration": 1.044386
                },
                {
                    "name": "C#2",
                    "midi": 37,
                    "time": 1.044386,
                    "velocity": 0.1968503937007874,
                    "duration": 1.044386
                },
                {
                    "name": "F#2",
                    "midi": 42,
                    "time": 1.044386,
                    "velocity": 0.1968503937007874,
                    "duration": 1.044386
                },
                {
                    "name": "C#3",
                    "midi": 49,
                    "time": 1.044386,
                    "velocity": 0.23622047244094488,
                    "duration": 1.044386
                },
                {
                    "name": "A#1",
                    "midi": 34,
                    "time": 2.088772,
                    "velocity": 0.2204724409448819,
                    "duration": 1.0443859999999998
                },
                {
                    "name": "F2",
                    "midi": 41,
                    "time": 2.088772,
                    "velocity": 0.2204724409448819,
                    "duration": 1.0443859999999998
                },
                {
                    "name": "A#2",
                    "midi": 46,
                    "time": 2.088772,
                    "velocity": 0.2677165354330709,
                    "duration": 1.0443859999999998
                },
                {
                    "name": "C#2",
                    "midi": 37,
                    "time": 3.133158,
                    "velocity": 0.18110236220472442,
                    "duration": 1.0443860000000003
                },
                {
                    "name": "F#2",
                    "midi": 42,
                    "time": 3.133158,
                    "velocity": 0.18110236220472442,
                    "duration": 1.0443860000000003
                },
                {
                    "name": "C#3",
                    "midi": 49,
                    "time": 3.133158,
                    "velocity": 0.2204724409448819,
                    "duration": 1.0443860000000003
                },
                {
                    "name": "A#1",
                    "midi": 34,
                    "time": 4.177544,
                    "velocity": 0.2204724409448819,
                    "duration": 1.0443860000000003
                },
                {
                    "name": "F2",
                    "midi": 41,
                    "time": 4.177544,
                    "velocity": 0.2204724409448819,
                    "duration": 1.0443860000000003
                },
                {
                    "name": "A#2",
                    "midi": 46,
                    "time": 4.177544,
                    "velocity": 0.2677165354330709,
                    "duration": 1.0443860000000003
                },
                {
                    "name": "C#2",
                    "midi": 37,
                    "time": 5.22193,
                    "velocity": 0.1968503937007874,
                    "duration": 1.0443860000000003
                },
                {
                    "name": "F#2",
                    "midi": 42,
                    "time": 5.22193,
                    "velocity": 0.1968503937007874,
                    "duration": 1.0443860000000003
                },
                {
                    "name": "C#3",
                    "midi": 49,
                    "time": 5.22193,
                    "velocity": 0.23622047244094488,
                    "duration": 1.0443860000000003
                },
                {
                    "name": "A#1",
                    "midi": 34,
                    "time": 6.266316000000001,
                    "velocity": 0.2204724409448819,
                    "duration": 1.0443859999999994
                },
                {
                    "name": "F2",
                    "midi": 41,
                    "time": 6.266316000000001,
                    "velocity": 0.2204724409448819,
                    "duration": 1.0443859999999994
                },
                {
                    "name": "A#2",
                    "midi": 46,
                    "time": 6.266316000000001,
                    "velocity": 0.2677165354330709,
                    "duration": 1.0443859999999994
                },
                {
                    "name": "C#2",
                    "midi": 37,
                    "time": 7.310702,
                    "velocity": 0.1732283464566929,
                    "duration": 1.0443860000000003
                },
                {
                    "name": "F#2",
                    "midi": 42,
                    "time": 7.310702,
                    "velocity": 0.1732283464566929,
                    "duration": 1.0443860000000003
                },
                {
                    "name": "C#3",
                    "midi": 49,
                    "time": 7.310702,
                    "velocity": 0.2125984251968504,
                    "duration": 1.0443860000000003
                },
                {
                    "name": "A#1",
                    "midi": 34,
                    "time": 8.355088,
                    "velocity": 0.2204724409448819,
                    "duration": 1.0443860000000011
                },
                {
                    "name": "F2",
                    "midi": 41,
                    "time": 8.355088,
                    "velocity": 0.2204724409448819,
                    "duration": 1.0443860000000011
                },
                {
                    "name": "A#2",
                    "midi": 46,
                    "time": 8.355088,
                    "velocity": 0.2677165354330709,
                    "duration": 1.0443860000000011
                },
                {
                    "name": "C#2",
                    "midi": 37,
                    "time": 9.399474000000001,
                    "velocity": 0.1968503937007874,
                    "duration": 1.0443859999999994
                },
                {
                    "name": "F#2",
                    "midi": 42,
                    "time": 9.399474000000001,
                    "velocity": 0.23622047244094488,
                    "duration": 1.0443859999999994
                },
                {
                    "name": "C#3",
                    "midi": 49,
                    "time": 9.399474000000001,
                    "velocity": 0.23622047244094488,
                    "duration": 1.0443859999999994
                },
                {
                    "name": "A#1",
                    "midi": 34,
                    "time": 10.44386,
                    "velocity": 0.2204724409448819,
                    "duration": 1.0443859999999994
                },
                {
                    "name": "F2",
                    "midi": 41,
                    "time": 10.44386,
                    "velocity": 0.2204724409448819,
                    "duration": 1.0443859999999994
                },
                {
                    "name": "A#2",
                    "midi": 46,
                    "time": 10.44386,
                    "velocity": 0.2677165354330709,
                    "duration": 1.0443859999999994
                },
                {
                    "name": "C#2",
                    "midi": 37,
                    "time": 11.488246,
                    "velocity": 0.1732283464566929,
                    "duration": 1.0443859999999994
                },
                {
                    "name": "F#2",
                    "midi": 42,
                    "time": 11.488246,
                    "velocity": 0.2125984251968504,
                    "duration": 1.0443859999999994
                },
                {
                    "name": "C#3",
                    "midi": 49,
                    "time": 11.488246,
                    "velocity": 0.2125984251968504,
                    "duration": 1.0443859999999994
                },
                {
                    "name": "A#1",
                    "midi": 34,
                    "time": 12.532632,
                    "velocity": 0.2204724409448819,
                    "duration": 1.0443859999999994
                },
                {
                    "name": "F2",
                    "midi": 41,
                    "time": 12.532632,
                    "velocity": 0.2204724409448819,
                    "duration": 1.0443859999999994
                },
                {
                    "name": "A#2",
                    "midi": 46,
                    "time": 12.532632,
                    "velocity": 0.2677165354330709,
                    "duration": 1.0443859999999994
                },
                {
                    "name": "C#2",
                    "midi": 37,
                    "time": 13.577017999999999,
                    "velocity": 0.1968503937007874,
                    "duration": 1.0443860000000011
                },
                {
                    "name": "F#2",
                    "midi": 42,
                    "time": 13.577017999999999,
                    "velocity": 0.1968503937007874,
                    "duration": 1.0443860000000011
                },
                {
                    "name": "C#3",
                    "midi": 49,
                    "time": 13.577017999999999,
                    "velocity": 0.23622047244094488,
                    "duration": 1.0443860000000011
                },
                {
                    "name": "A#1",
                    "midi": 34,
                    "time": 14.621404,
                    "velocity": 0.2204724409448819,
                    "duration": 1.0443859999999994
                },
                {
                    "name": "F2",
                    "midi": 41,
                    "time": 14.621404,
                    "velocity": 0.2204724409448819,
                    "duration": 1.0443859999999994
                },
                {
                    "name": "A#2",
                    "midi": 46,
                    "time": 14.621404,
                    "velocity": 0.2677165354330709,
                    "duration": 1.0443859999999994
                },
                {
                    "name": "C#2",
                    "midi": 37,
                    "time": 15.66579,
                    "velocity": 0.1732283464566929,
                    "duration": 1.0443859999999976
                },
                {
                    "name": "F#2",
                    "midi": 42,
                    "time": 15.66579,
                    "velocity": 0.1732283464566929,
                    "duration": 1.0443859999999976
                },
                {
                    "name": "C#3",
                    "midi": 49,
                    "time": 15.66579,
                    "velocity": 0.2125984251968504,
                    "duration": 1.0443859999999976
                },
                {
                    "name": "A#1",
                    "midi": 34,
                    "time": 16.710175999999997,
                    "velocity": 0.2755905511811024,
                    "duration": 1.0443859999999994
                },
                {
                    "name": "F2",
                    "midi": 41,
                    "time": 16.710175999999997,
                    "velocity": 0.2755905511811024,
                    "duration": 1.0443859999999994
                },
                {
                    "name": "A#2",
                    "midi": 46,
                    "time": 16.710175999999997,
                    "velocity": 0.33070866141732286,
                    "duration": 1.0443859999999994
                },
                {
                    "name": "C#2",
                    "midi": 37,
                    "time": 17.754561999999996,
                    "velocity": 0.23622047244094488,
                    "duration": 1.0443859999999994
                },
                {
                    "name": "F#2",
                    "midi": 42,
                    "time": 17.754561999999996,
                    "velocity": 0.29133858267716534,
                    "duration": 1.0443859999999994
                },
                {
                    "name": "C#3",
                    "midi": 49,
                    "time": 17.754561999999996,
                    "velocity": 0.29133858267716534,
                    "duration": 1.0443859999999994
                },
                {
                    "name": "A#1",
                    "midi": 34,
                    "time": 18.798947999999996,
                    "velocity": 0.2755905511811024,
                    "duration": 1.044386000000003
                },
                {
                    "name": "F2",
                    "midi": 41,
                    "time": 18.798947999999996,
                    "velocity": 0.2755905511811024,
                    "duration": 1.044386000000003
                },
                {
                    "name": "A#2",
                    "midi": 46,
                    "time": 18.798947999999996,
                    "velocity": 0.33070866141732286,
                    "duration": 1.044386000000003
                },
                {
                    "name": "C#2",
                    "midi": 37,
                    "time": 19.843334,
                    "velocity": 0.2125984251968504,
                    "duration": 1.0443859999999994
                },
                {
                    "name": "F#2",
                    "midi": 42,
                    "time": 19.843334,
                    "velocity": 0.2677165354330709,
                    "duration": 1.0443859999999994
                },
                {
                    "name": "C#3",
                    "midi": 49,
                    "time": 19.843334,
                    "velocity": 0.2677165354330709,
                    "duration": 1.0443859999999994
                },
                {
                    "name": "A#1",
                    "midi": 34,
                    "time": 20.887719999999998,
                    "velocity": 0.2755905511811024,
                    "duration": 1.0443859999999994
                },
                {
                    "name": "F2",
                    "midi": 41,
                    "time": 20.887719999999998,
                    "velocity": 0.2755905511811024,
                    "duration": 1.0443859999999994
                },
                {
                    "name": "A#2",
                    "midi": 46,
                    "time": 20.887719999999998,
                    "velocity": 0.33070866141732286,
                    "duration": 1.0443859999999994
                },
                {
                    "name": "C#2",
                    "midi": 37,
                    "time": 21.932105999999997,
                    "velocity": 0.23622047244094488,
                    "duration": 1.0443859999999994
                },
                {
                    "name": "F#2",
                    "midi": 42,
                    "time": 21.932105999999997,
                    "velocity": 0.23622047244094488,
                    "duration": 1.0443859999999994
                },
                {
                    "name": "C#3",
                    "midi": 49,
                    "time": 21.932105999999997,
                    "velocity": 0.29133858267716534,
                    "duration": 1.0443859999999994
                },
                {
                    "name": "A#1",
                    "midi": 34,
                    "time": 22.976491999999997,
                    "velocity": 0.2755905511811024,
                    "duration": 1.0443859999999994
                },
                {
                    "name": "F2",
                    "midi": 41,
                    "time": 22.976491999999997,
                    "velocity": 0.2755905511811024,
                    "duration": 1.0443859999999994
                },
                {
                    "name": "A#2",
                    "midi": 46,
                    "time": 22.976491999999997,
                    "velocity": 0.33070866141732286,
                    "duration": 1.0443859999999994
                },
                {
                    "name": "C#2",
                    "midi": 37,
                    "time": 24.020877999999996,
                    "velocity": 0.2125984251968504,
                    "duration": 1.044386000000003
                },
                {
                    "name": "F#2",
                    "midi": 42,
                    "time": 24.020877999999996,
                    "velocity": 0.2125984251968504,
                    "duration": 1.044386000000003
                },
                {
                    "name": "C#3",
                    "midi": 49,
                    "time": 24.020877999999996,
                    "velocity": 0.2677165354330709,
                    "duration": 1.044386000000003
                },
                {
                    "name": "A#1",
                    "midi": 34,
                    "time": 25.065264,
                    "velocity": 0.33070866141732286,
                    "duration": 1.0443859999999994
                },
                {
                    "name": "F2",
                    "midi": 41,
                    "time": 25.065264,
                    "velocity": 0.33070866141732286,
                    "duration": 1.0443859999999994
                },
                {
                    "name": "A#2",
                    "midi": 46,
                    "time": 25.065264,
                    "velocity": 0.4094488188976378,
                    "duration": 1.0443859999999994
                },
                {
                    "name": "C#2",
                    "midi": 37,
                    "time": 26.10965,
                    "velocity": 0.28346456692913385,
                    "duration": 1.0443859999999994
                },
                {
                    "name": "F#2",
                    "midi": 42,
                    "time": 26.10965,
                    "velocity": 0.28346456692913385,
                    "duration": 1.0443859999999994
                },
                {
                    "name": "C#3",
                    "midi": 49,
                    "time": 26.10965,
                    "velocity": 0.3464566929133858,
                    "duration": 1.0443859999999994
                },
                {
                    "name": "A#1",
                    "midi": 34,
                    "time": 27.154035999999998,
                    "velocity": 0.2992125984251969,
                    "duration": 1.044386000000003
                },
                {
                    "name": "F2",
                    "midi": 41,
                    "time": 27.154035999999998,
                    "velocity": 0.2992125984251969,
                    "duration": 1.044386000000003
                },
                {
                    "name": "A#2",
                    "midi": 46,
                    "time": 27.154035999999998,
                    "velocity": 0.36220472440944884,
                    "duration": 1.044386000000003
                },
                {
                    "name": "C#2",
                    "midi": 37,
                    "time": 28.198422,
                    "velocity": 0.2125984251968504,
                    "duration": 1.044386000000003
                },
                {
                    "name": "F#2",
                    "midi": 42,
                    "time": 28.198422,
                    "velocity": 0.2125984251968504,
                    "duration": 1.044386000000003
                },
                {
                    "name": "C#3",
                    "midi": 49,
                    "time": 28.198422,
                    "velocity": 0.2755905511811024,
                    "duration": 1.044386000000003
                },
                {
                    "name": "A#1",
                    "midi": 34,
                    "time": 29.242808000000004,
                    "velocity": 0.33070866141732286,
                    "duration": 1.0443859999999958
                },
                {
                    "name": "F2",
                    "midi": 41,
                    "time": 29.242808000000004,
                    "velocity": 0.33070866141732286,
                    "duration": 1.0443859999999958
                },
                {
                    "name": "A#2",
                    "midi": 46,
                    "time": 29.242808000000004,
                    "velocity": 0.4094488188976378,
                    "duration": 1.0443859999999958
                },
                {
                    "name": "C#2",
                    "midi": 37,
                    "time": 30.287194,
                    "velocity": 0.28346456692913385,
                    "duration": 1.044386000000003
                },
                {
                    "name": "F#2",
                    "midi": 42,
                    "time": 30.287194,
                    "velocity": 0.28346456692913385,
                    "duration": 1.044386000000003
                },
                {
                    "name": "C#3",
                    "midi": 49,
                    "time": 30.287194,
                    "velocity": 0.3464566929133858,
                    "duration": 1.044386000000003
                },
                {
                    "name": "A#1",
                    "midi": 34,
                    "time": 31.331580000000002,
                    "velocity": 0.2992125984251969,
                    "duration": 1.044386000000003
                },
                {
                    "name": "F2",
                    "midi": 41,
                    "time": 31.331580000000002,
                    "velocity": 0.2992125984251969,
                    "duration": 1.044386000000003
                },
                {
                    "name": "A#2",
                    "midi": 46,
                    "time": 31.331580000000002,
                    "velocity": 0.36220472440944884,
                    "duration": 1.044386000000003
                },
                {
                    "name": "C#2",
                    "midi": 37,
                    "time": 32.375966000000005,
                    "velocity": 0.2125984251968504,
                    "duration": 1.0443859999999958
                },
                {
                    "name": "F#2",
                    "midi": 42,
                    "time": 32.375966000000005,
                    "velocity": 0.2125984251968504,
                    "duration": 1.0443859999999958
                },
                {
                    "name": "C#3",
                    "midi": 49,
                    "time": 32.375966000000005,
                    "velocity": 0.2755905511811024,
                    "duration": 1.0443859999999958
                },
                {
                    "name": "A#1",
                    "midi": 34,
                    "time": 33.420352,
                    "velocity": 0.25196850393700787,
                    "duration": 1.044386000000003
                },
                {
                    "name": "F2",
                    "midi": 41,
                    "time": 33.420352,
                    "velocity": 0.25196850393700787,
                    "duration": 1.044386000000003
                },
                {
                    "name": "A#2",
                    "midi": 46,
                    "time": 33.420352,
                    "velocity": 0.30708661417322836,
                    "duration": 1.044386000000003
                },
                {
                    "name": "C#2",
                    "midi": 37,
                    "time": 34.464738000000004,
                    "velocity": 0.2204724409448819,
                    "duration": 1.0443859999999958
                },
                {
                    "name": "F#2",
                    "midi": 42,
                    "time": 34.464738000000004,
                    "velocity": 0.2677165354330709,
                    "duration": 1.0443859999999958
                },
                {
                    "name": "C#3",
                    "midi": 49,
                    "time": 34.464738000000004,
                    "velocity": 0.2677165354330709,
                    "duration": 1.0443859999999958
                },
                {
                    "name": "A#1",
                    "midi": 34,
                    "time": 35.509124,
                    "velocity": 0.25196850393700787,
                    "duration": 1.044386000000003
                },
                {
                    "name": "F2",
                    "midi": 41,
                    "time": 35.509124,
                    "velocity": 0.25196850393700787,
                    "duration": 1.044386000000003
                },
                {
                    "name": "A#2",
                    "midi": 46,
                    "time": 35.509124,
                    "velocity": 0.30708661417322836,
                    "duration": 1.044386000000003
                },
                {
                    "name": "C#2",
                    "midi": 37,
                    "time": 36.55351,
                    "velocity": 0.1968503937007874,
                    "duration": 1.044386000000003
                },
                {
                    "name": "F#2",
                    "midi": 42,
                    "time": 36.55351,
                    "velocity": 0.2440944881889764,
                    "duration": 1.044386000000003
                },
                {
                    "name": "C#3",
                    "midi": 49,
                    "time": 36.55351,
                    "velocity": 0.2440944881889764,
                    "duration": 1.044386000000003
                },
                {
                    "name": "A#1",
                    "midi": 34,
                    "time": 37.597896000000006,
                    "velocity": 0.25196850393700787,
                    "duration": 1.044386000000003
                },
                {
                    "name": "F2",
                    "midi": 41,
                    "time": 37.597896000000006,
                    "velocity": 0.25196850393700787,
                    "duration": 1.044386000000003
                },
                {
                    "name": "A#2",
                    "midi": 46,
                    "time": 37.597896000000006,
                    "velocity": 0.30708661417322836,
                    "duration": 1.044386000000003
                },
                {
                    "name": "C#2",
                    "midi": 37,
                    "time": 38.64228200000001,
                    "velocity": 0.2204724409448819,
                    "duration": 1.0443859999999958
                },
                {
                    "name": "F#2",
                    "midi": 42,
                    "time": 38.64228200000001,
                    "velocity": 0.2204724409448819,
                    "duration": 1.0443859999999958
                },
                {
                    "name": "C#3",
                    "midi": 49,
                    "time": 38.64228200000001,
                    "velocity": 0.2677165354330709,
                    "duration": 1.0443859999999958
                },
                {
                    "name": "A#1",
                    "midi": 34,
                    "time": 39.686668000000004,
                    "velocity": 0.25196850393700787,
                    "duration": 1.044386000000003
                },
                {
                    "name": "F2",
                    "midi": 41,
                    "time": 39.686668000000004,
                    "velocity": 0.25196850393700787,
                    "duration": 1.044386000000003
                },
                {
                    "name": "A#2",
                    "midi": 46,
                    "time": 39.686668000000004,
                    "velocity": 0.30708661417322836,
                    "duration": 1.044386000000003
                },
                {
                    "name": "C#2",
                    "midi": 37,
                    "time": 40.73105400000001,
                    "velocity": 0.1968503937007874,
                    "duration": 1.0443859999999958
                },
                {
                    "name": "F#2",
                    "midi": 42,
                    "time": 40.73105400000001,
                    "velocity": 0.1968503937007874,
                    "duration": 1.0443859999999958
                },
                {
                    "name": "C#3",
                    "midi": 49,
                    "time": 40.73105400000001,
                    "velocity": 0.2440944881889764,
                    "duration": 1.0443859999999958
                },
                {
                    "name": "A#1",
                    "midi": 34,
                    "time": 41.77544,
                    "velocity": 0.3700787401574803,
                    "duration": 1.044386000000003
                },
                {
                    "name": "F2",
                    "midi": 41,
                    "time": 41.77544,
                    "velocity": 0.3700787401574803,
                    "duration": 1.044386000000003
                },
                {
                    "name": "A#2",
                    "midi": 46,
                    "time": 41.77544,
                    "velocity": 0.44881889763779526,
                    "duration": 1.044386000000003
                },
                {
                    "name": "C#2",
                    "midi": 37,
                    "time": 42.819826000000006,
                    "velocity": 0.29133858267716534,
                    "duration": 1.044386000000003
                },
                {
                    "name": "F#2",
                    "midi": 42,
                    "time": 42.819826000000006,
                    "velocity": 0.29133858267716534,
                    "duration": 1.044386000000003
                },
                {
                    "name": "C#3",
                    "midi": 49,
                    "time": 42.819826000000006,
                    "velocity": 0.36220472440944884,
                    "duration": 1.044386000000003
                },
                {
                    "name": "A#1",
                    "midi": 34,
                    "time": 43.86421200000001,
                    "velocity": 0.30708661417322836,
                    "duration": 1.044386000000003
                },
                {
                    "name": "F2",
                    "midi": 41,
                    "time": 43.86421200000001,
                    "velocity": 0.30708661417322836,
                    "duration": 1.044386000000003
                },
                {
                    "name": "A#2",
                    "midi": 46,
                    "time": 43.86421200000001,
                    "velocity": 0.3779527559055118,
                    "duration": 1.044386000000003
                },
                {
                    "name": "C#2",
                    "midi": 37,
                    "time": 44.90859800000001,
                    "velocity": 0.23622047244094488,
                    "duration": 1.044386000000003
                },
                {
                    "name": "F#2",
                    "midi": 42,
                    "time": 44.90859800000001,
                    "velocity": 0.23622047244094488,
                    "duration": 1.044386000000003
                },
                {
                    "name": "C#3",
                    "midi": 49,
                    "time": 44.90859800000001,
                    "velocity": 0.2992125984251969,
                    "duration": 1.044386000000003
                },
                {
                    "name": "A#1",
                    "midi": 34,
                    "time": 45.952984000000015,
                    "velocity": 0.3700787401574803,
                    "duration": 1.044386000000003
                },
                {
                    "name": "F2",
                    "midi": 41,
                    "time": 45.952984000000015,
                    "velocity": 0.3700787401574803,
                    "duration": 1.044386000000003
                },
                {
                    "name": "A#2",
                    "midi": 46,
                    "time": 45.952984000000015,
                    "velocity": 0.44881889763779526,
                    "duration": 1.044386000000003
                },
                {
                    "name": "C#2",
                    "midi": 37,
                    "time": 46.99737000000002,
                    "velocity": 0.29133858267716534,
                    "duration": 1.044386000000003
                },
                {
                    "name": "F#2",
                    "midi": 42,
                    "time": 46.99737000000002,
                    "velocity": 0.29133858267716534,
                    "duration": 1.044386000000003
                },
                {
                    "name": "C#3",
                    "midi": 49,
                    "time": 46.99737000000002,
                    "velocity": 0.36220472440944884,
                    "duration": 1.044386000000003
                },
                {
                    "name": "A#1",
                    "midi": 34,
                    "time": 48.04175600000002,
                    "velocity": 0.30708661417322836,
                    "duration": 1.044386000000003
                },
                {
                    "name": "F2",
                    "midi": 41,
                    "time": 48.04175600000002,
                    "velocity": 0.30708661417322836,
                    "duration": 1.044386000000003
                },
                {
                    "name": "A#2",
                    "midi": 46,
                    "time": 48.04175600000002,
                    "velocity": 0.3779527559055118,
                    "duration": 1.044386000000003
                },
                {
                    "name": "C#2",
                    "midi": 37,
                    "time": 49.086142000000024,
                    "velocity": 0.23622047244094488,
                    "duration": 1.044386000000003
                },
                {
                    "name": "F#2",
                    "midi": 42,
                    "time": 49.086142000000024,
                    "velocity": 0.23622047244094488,
                    "duration": 1.044386000000003
                },
                {
                    "name": "C#3",
                    "midi": 49,
                    "time": 49.086142000000024,
                    "velocity": 0.2992125984251969,
                    "duration": 1.044386000000003
                },
                {
                    "name": "A#1",
                    "midi": 34,
                    "time": 50.13052800000003,
                    "velocity": 0.33858267716535434,
                    "duration": 1.0443859999999958
                },
                {
                    "name": "F2",
                    "midi": 41,
                    "time": 50.13052800000003,
                    "velocity": 0.33858267716535434,
                    "duration": 1.0443859999999958
                },
                {
                    "name": "A#2",
                    "midi": 46,
                    "time": 50.13052800000003,
                    "velocity": 0.4094488188976378,
                    "duration": 1.0443859999999958
                },
                {
                    "name": "C#2",
                    "midi": 37,
                    "time": 51.17491400000002,
                    "velocity": 0.29133858267716534,
                    "duration": 1.0443859999999958
                },
                {
                    "name": "F#2",
                    "midi": 42,
                    "time": 51.17491400000002,
                    "velocity": 0.36220472440944884,
                    "duration": 1.0443859999999958
                },
                {
                    "name": "C#3",
                    "midi": 49,
                    "time": 51.17491400000002,
                    "velocity": 0.36220472440944884,
                    "duration": 1.0443859999999958
                },
                {
                    "name": "A#1",
                    "midi": 34,
                    "time": 52.21930000000002,
                    "velocity": 0.3543307086614173,
                    "duration": 1.044386000000003
                },
                {
                    "name": "F2",
                    "midi": 41,
                    "time": 52.21930000000002,
                    "velocity": 0.3543307086614173,
                    "duration": 1.044386000000003
                },
                {
                    "name": "A#2",
                    "midi": 46,
                    "time": 52.21930000000002,
                    "velocity": 0.4251968503937008,
                    "duration": 1.044386000000003
                },
                {
                    "name": "C#2",
                    "midi": 37,
                    "time": 53.26368600000002,
                    "velocity": 0.28346456692913385,
                    "duration": 1.0443859999999958
                },
                {
                    "name": "F#2",
                    "midi": 42,
                    "time": 53.26368600000002,
                    "velocity": 0.36220472440944884,
                    "duration": 1.0443859999999958
                },
                {
                    "name": "C#3",
                    "midi": 49,
                    "time": 53.26368600000002,
                    "velocity": 0.36220472440944884,
                    "duration": 1.0443859999999958
                },
                {
                    "name": "A#1",
                    "midi": 34,
                    "time": 54.30807200000002,
                    "velocity": 0.3858267716535433,
                    "duration": 1.0443859999999958
                },
                {
                    "name": "F2",
                    "midi": 41,
                    "time": 54.30807200000002,
                    "velocity": 0.3858267716535433,
                    "duration": 1.0443859999999958
                },
                {
                    "name": "A#2",
                    "midi": 46,
                    "time": 54.30807200000002,
                    "velocity": 0.4566929133858268,
                    "duration": 1.0443859999999958
                },
                {
                    "name": "C#2",
                    "midi": 37,
                    "time": 55.35245800000001,
                    "velocity": 0.33070866141732286,
                    "duration": 1.044386000000003
                },
                {
                    "name": "F#2",
                    "midi": 42,
                    "time": 55.35245800000001,
                    "velocity": 0.33070866141732286,
                    "duration": 1.044386000000003
                },
                {
                    "name": "C#3",
                    "midi": 49,
                    "time": 55.35245800000001,
                    "velocity": 0.4015748031496063,
                    "duration": 1.044386000000003
                },
                {
                    "name": "A#1",
                    "midi": 34,
                    "time": 56.396844000000016,
                    "velocity": 0.41732283464566927,
                    "duration": 1.044386000000003
                },
                {
                    "name": "F2",
                    "midi": 41,
                    "time": 56.396844000000016,
                    "velocity": 0.41732283464566927,
                    "duration": 1.044386000000003
                },
                {
                    "name": "A#2",
                    "midi": 46,
                    "time": 56.396844000000016,
                    "velocity": 0.5039370078740157,
                    "duration": 1.044386000000003
                },
                {
                    "name": "G#1",
                    "midi": 32,
                    "time": 57.44123000000002,
                    "velocity": 0.4409448818897638,
                    "duration": 1.044386000000003
                },
                {
                    "name": "G#2",
                    "midi": 44,
                    "time": 57.44123000000002,
                    "velocity": 0.5590551181102362,
                    "duration": 1.044386000000003
                },
                {
                    "name": "C#1",
                    "midi": 25,
                    "time": 58.48561600000002,
                    "velocity": 0.4645669291338583,
                    "duration": 1.0443859999999958
                },
                {
                    "name": "C#2",
                    "midi": 37,
                    "time": 58.48561600000002,
                    "velocity": 0.5826771653543307,
                    "duration": 1.0443859999999958
                },
                {
                    "name": "C#3",
                    "midi": 49,
                    "time": 59.53000200000002,
                    "velocity": 0.5039370078740157,
                    "duration": 0.7832895000000022
                },
                {
                    "name": "G#3",
                    "midi": 56,
                    "time": 59.53000200000002,
                    "velocity": 0.5039370078740157,
                    "duration": 0.7832895000000022
                },
                {
                    "name": "C#4",
                    "midi": 61,
                    "time": 59.53000200000002,
                    "velocity": 0.5984251968503937,
                    "duration": 0.7832895000000022
                },
                {
                    "name": "D#4",
                    "midi": 63,
                    "time": 60.31329150000002,
                    "velocity": 0.5984251968503937,
                    "duration": 0.26109650000000073
                },
                {
                    "name": "C#3",
                    "midi": 49,
                    "time": 60.57438800000002,
                    "velocity": 0.5354330708661418,
                    "duration": 0.7832895000000022
                },
                {
                    "name": "G#3",
                    "midi": 56,
                    "time": 60.57438800000002,
                    "velocity": 0.5354330708661418,
                    "duration": 0.7832895000000022
                },
                {
                    "name": "F4",
                    "midi": 65,
                    "time": 60.57438800000002,
                    "velocity": 0.6299212598425197,
                    "duration": 0.7832895000000022
                },
                {
                    "name": "F#4",
                    "midi": 66,
                    "time": 61.35767750000002,
                    "velocity": 0.6299212598425197,
                    "duration": 0.26109650000000073
                },
                {
                    "name": "D#4",
                    "midi": 63,
                    "time": 61.61877400000002,
                    "velocity": 0.5748031496062992,
                    "duration": 0.7832895000000022
                },
                {
                    "name": "G#3",
                    "midi": 56,
                    "time": 61.61877400000002,
                    "velocity": 0.5748031496062992,
                    "duration": 0.7832895000000022
                },
                {
                    "name": "G#4",
                    "midi": 68,
                    "time": 61.61877400000002,
                    "velocity": 0.6771653543307087,
                    "duration": 0.7832895000000022
                },
                {
                    "name": "F4",
                    "midi": 65,
                    "time": 62.402063500000025,
                    "velocity": 0.6692913385826772,
                    "duration": 0.26109650000000073
                },
                {
                    "name": "G#1",
                    "midi": 32,
                    "time": 62.663160000000026,
                    "velocity": 0.6062992125984252,
                    "duration": 1.044386000000003
                },
                {
                    "name": "G#2",
                    "midi": 44,
                    "time": 62.663160000000026,
                    "velocity": 0.7244094488188977,
                    "duration": 1.044386000000003
                },
                {
                    "name": "D#4",
                    "midi": 63,
                    "time": 63.70754600000003,
                    "velocity": 0.5433070866141733,
                    "duration": 0.7832895000000022
                },
                {
                    "name": "F#4",
                    "midi": 66,
                    "time": 63.70754600000003,
                    "velocity": 0.5433070866141733,
                    "duration": 0.7832895000000022
                },
                {
                    "name": "C5",
                    "midi": 72,
                    "time": 63.70754600000003,
                    "velocity": 0.6377952755905512,
                    "duration": 0.7832895000000022
                },
                {
                    "name": "C#4",
                    "midi": 61,
                    "time": 64.49083550000003,
                    "velocity": 0.5118110236220472,
                    "duration": 0.23498684999999853
                },
                {
                    "name": "F#4",
                    "midi": 66,
                    "time": 64.49083550000003,
                    "velocity": 0.5118110236220472,
                    "duration": 0.23498684999999853
                },
                {
                    "name": "A#4",
                    "midi": 70,
                    "time": 64.49083550000003,
                    "velocity": 0.5984251968503937,
                    "duration": 0.23498684999999853
                },
                {
                    "name": "C#4",
                    "midi": 61,
                    "time": 64.75193200000002,
                    "velocity": 0.49606299212598426,
                    "duration": 0.7832895000000093
                },
                {
                    "name": "F#4",
                    "midi": 66,
                    "time": 64.75193200000002,
                    "velocity": 0.49606299212598426,
                    "duration": 0.7832895000000093
                },
                {
                    "name": "A#4",
                    "midi": 70,
                    "time": 64.75193200000002,
                    "velocity": 0.5905511811023622,
                    "duration": 0.7832895000000093
                },
                {
                    "name": "C4",
                    "midi": 60,
                    "time": 65.53522150000003,
                    "velocity": 0.4645669291338583,
                    "duration": 0.23498684999999853
                },
                {
                    "name": "F#4",
                    "midi": 66,
                    "time": 65.53522150000003,
                    "velocity": 0.4645669291338583,
                    "duration": 0.23498684999999853
                },
                {
                    "name": "G#4",
                    "midi": 68,
                    "time": 65.53522150000003,
                    "velocity": 0.5590551181102362,
                    "duration": 0.23498684999999853
                },
                {
                    "name": "C4",
                    "midi": 60,
                    "time": 65.79631800000003,
                    "velocity": 0.44881889763779526,
                    "duration": 0.7832895000000093
                },
                {
                    "name": "F#4",
                    "midi": 66,
                    "time": 65.79631800000003,
                    "velocity": 0.44881889763779526,
                    "duration": 0.7832895000000093
                },
                {
                    "name": "G#4",
                    "midi": 68,
                    "time": 65.79631800000003,
                    "velocity": 0.5354330708661418,
                    "duration": 0.7832895000000093
                },
                {
                    "name": "A3",
                    "midi": 57,
                    "time": 66.57960750000004,
                    "velocity": 0.5196850393700787,
                    "duration": 0.2610964999999936
                },
                {
                    "name": "C4",
                    "midi": 60,
                    "time": 66.57960750000004,
                    "velocity": 0.5196850393700787,
                    "duration": 0.2610964999999936
                },
                {
                    "name": "D#4",
                    "midi": 63,
                    "time": 66.57960750000004,
                    "velocity": 0.6062992125984252,
                    "duration": 0.2610964999999936
                },
                {
                    "name": "A#1",
                    "midi": 34,
                    "time": 66.84070400000003,
                    "velocity": 0.5196850393700787,
                    "duration": 1.044386000000003
                },
                {
                    "name": "A#2",
                    "midi": 46,
                    "time": 66.84070400000003,
                    "velocity": 0.6141732283464567,
                    "duration": 1.044386000000003
                },
                {
                    "name": "F3",
                    "midi": 53,
                    "time": 67.88509000000003,
                    "velocity": 0.49606299212598426,
                    "duration": 1.0443859999999887
                },
                {
                    "name": "A#3",
                    "midi": 58,
                    "time": 67.88509000000003,
                    "velocity": 0.49606299212598426,
                    "duration": 1.0443859999999887
                },
                {
                    "name": "C#4",
                    "midi": 61,
                    "time": 67.88509000000003,
                    "velocity": 0.5905511811023622,
                    "duration": 1.0443859999999887
                },
                {
                    "name": "C#2",
                    "midi": 37,
                    "time": 68.92947600000002,
                    "velocity": 0.5354330708661418,
                    "duration": 1.044386000000003
                },
                {
                    "name": "C#3",
                    "midi": 49,
                    "time": 68.92947600000002,
                    "velocity": 0.6299212598425197,
                    "duration": 1.044386000000003
                },
                {
                    "name": "F4",
                    "midi": 65,
                    "time": 69.97386200000003,
                    "velocity": 0.5984251968503937,
                    "duration": 1.044386000000003
                },
                {
                    "name": "C#4",
                    "midi": 61,
                    "time": 69.97386200000003,
                    "velocity": 0.5039370078740157,
                    "duration": 1.044386000000003
                },
                {
                    "name": "A#3",
                    "midi": 58,
                    "time": 69.97386200000003,
                    "velocity": 0.5039370078740157,
                    "duration": 1.044386000000003
                },
                {
                    "name": "F3",
                    "midi": 53,
                    "time": 69.97386200000003,
                    "velocity": 0.5039370078740157,
                    "duration": 1.044386000000003
                },
                {
                    "name": "F1",
                    "midi": 29,
                    "time": 71.01824800000003,
                    "velocity": 0.6062992125984252,
                    "duration": 1.0443859999999887
                },
                {
                    "name": "F2",
                    "midi": 41,
                    "time": 71.01824800000003,
                    "velocity": 0.7244094488188977,
                    "duration": 1.0443859999999887
                },
                {
                    "name": "F3",
                    "midi": 53,
                    "time": 72.06263400000002,
                    "velocity": 0.5433070866141733,
                    "duration": 1.044386000000003
                },
                {
                    "name": "A#3",
                    "midi": 58,
                    "time": 72.06263400000002,
                    "velocity": 0.5433070866141733,
                    "duration": 1.044386000000003
                },
                {
                    "name": "C#4",
                    "midi": 61,
                    "time": 72.06263400000002,
                    "velocity": 0.5433070866141733,
                    "duration": 1.044386000000003
                },
                {
                    "name": "G4",
                    "midi": 67,
                    "time": 72.06263400000002,
                    "velocity": 0.6377952755905512,
                    "duration": 1.044386000000003
                },
                {
                    "name": "F3",
                    "midi": 53,
                    "time": 73.10702000000002,
                    "velocity": 0.5039370078740157,
                    "duration": 1.044386000000003
                },
                {
                    "name": "A3",
                    "midi": 57,
                    "time": 73.10702000000002,
                    "velocity": 0.5039370078740157,
                    "duration": 1.044386000000003
                },
                {
                    "name": "C4",
                    "midi": 60,
                    "time": 73.10702000000002,
                    "velocity": 0.5039370078740157,
                    "duration": 1.044386000000003
                },
                {
                    "name": "A4",
                    "midi": 69,
                    "time": 73.10702000000002,
                    "velocity": 0.5905511811023622,
                    "duration": 1.044386000000003
                },
                {
                    "name": "F3",
                    "midi": 53,
                    "time": 74.15140600000002,
                    "velocity": 0.6377952755905512,
                    "duration": 0.5221930000000015
                },
                {
                    "name": "G2",
                    "midi": 43,
                    "time": 74.67359900000002,
                    "velocity": 0.48031496062992124,
                    "duration": 0.17406433333333382
                },
                {
                    "name": "G#2",
                    "midi": 44,
                    "time": 74.84766333333336,
                    "velocity": 0.48031496062992124,
                    "duration": 0.17406433333333382
                },
                {
                    "name": "A#2",
                    "midi": 46,
                    "time": 75.02172766666669,
                    "velocity": 0.48031496062992124,
                    "duration": 0.17406433333333382
                },
                {
                    "name": "G#2",
                    "midi": 44,
                    "time": 75.19579200000003,
                    "velocity": 0.48031496062992124,
                    "duration": 0.09791118749998873
                },
                {
                    "name": "A#2",
                    "midi": 46,
                    "time": 75.29370318750001,
                    "velocity": 0.4409448818897638,
                    "duration": 0.09791118750000294
                },
                {
                    "name": "G#2",
                    "midi": 44,
                    "time": 75.39161437500002,
                    "velocity": 0.5039370078740157,
                    "duration": 0.09791118750000294
                },
                {
                    "name": "A#2",
                    "midi": 46,
                    "time": 75.48952556250002,
                    "velocity": 0.44881889763779526,
                    "duration": 0.09791118750000294
                },
                {
                    "name": "G#2",
                    "midi": 44,
                    "time": 75.58743675000002,
                    "velocity": 0.5196850393700787,
                    "duration": 0.09791118750000294
                },
                {
                    "name": "A#2",
                    "midi": 46,
                    "time": 75.68534793750003,
                    "velocity": 0.4645669291338583,
                    "duration": 0.09791118750000294
                },
                {
                    "name": "G#2",
                    "midi": 44,
                    "time": 75.78325912500003,
                    "velocity": 0.5354330708661418,
                    "duration": 0.09791118750000294
                },
                {
                    "name": "A#2",
                    "midi": 46,
                    "time": 75.88117031250003,
                    "velocity": 0.48031496062992124,
                    "duration": 0.09791118750000294
                },
                {
                    "name": "G#2",
                    "midi": 44,
                    "time": 75.97908150000004,
                    "velocity": 0.5511811023622047,
                    "duration": 0.09791118750000294
                },
                {
                    "name": "A#2",
                    "midi": 46,
                    "time": 76.07699268750004,
                    "velocity": 0.5118110236220472,
                    "duration": 0.09791118750000294
                },
                {
                    "name": "G#2",
                    "midi": 44,
                    "time": 76.17490387500004,
                    "velocity": 0.5748031496062992,
                    "duration": 0.09791118750000294
                },
                {
                    "name": "A#2",
                    "midi": 46,
                    "time": 76.27281506250004,
                    "velocity": 0.5196850393700787,
                    "duration": 0.09791118750000294
                },
                {
                    "name": "G#2",
                    "midi": 44,
                    "time": 76.37072625000005,
                    "velocity": 0.5669291338582677,
                    "duration": 0.09791118750000294
                },
                {
                    "name": "A#2",
                    "midi": 46,
                    "time": 76.47081324166672,
                    "velocity": 0.49606299212598426,
                    "duration": 0.09791118750000294
                },
                {
                    "name": "G#2",
                    "midi": 44,
                    "time": 76.56654862500005,
                    "velocity": 0.5433070866141733,
                    "duration": 0.09791118750000294
                },
                {
                    "name": "A#2",
                    "midi": 46,
                    "time": 76.66445981250006,
                    "velocity": 0.47244094488188976,
                    "duration": 0.10008699166667157
                },
                {
                    "name": "G#2",
                    "midi": 44,
                    "time": 76.76237100000006,
                    "velocity": 0.5196850393700787,
                    "duration": 0.13054825000000392
                },
                {
                    "name": "A#2",
                    "midi": 46,
                    "time": 76.89291925000006,
                    "velocity": 0.4566929133858268,
                    "duration": 0.13054825000000392
                },
                {
                    "name": "G2",
                    "midi": 43,
                    "time": 77.02346750000007,
                    "velocity": 0.5039370078740157,
                    "duration": 0.13054825000000392
                },
                {
                    "name": "G#2",
                    "midi": 44,
                    "time": 77.15401575000007,
                    "velocity": 0.4330708661417323,
                    "duration": 0.13054825000000392
                },
                {
                    "name": "C#3",
                    "midi": 49,
                    "time": 77.28456400000007,
                    "velocity": 0.5354330708661418,
                    "duration": 1.044386000000003
                },
                {
                    "name": "C#3",
                    "midi": 49,
                    "time": 78.32895000000008,
                    "velocity": 0.6220472440944882,
                    "duration": 0.5221930000000015
                },
                {
                    "name": "E2",
                    "midi": 40,
                    "time": 78.85114300000008,
                    "velocity": 0.48031496062992124,
                    "duration": 0.17406433333333382
                },
                {
                    "name": "F2",
                    "midi": 41,
                    "time": 79.02520733333341,
                    "velocity": 0.48031496062992124,
                    "duration": 0.17406433333333382
                },
                {
                    "name": "F#2",
                    "midi": 42,
                    "time": 79.19927166666675,
                    "velocity": 0.48031496062992124,
                    "duration": 0.17406433333333382
                },
                {
                    "name": "F2",
                    "midi": 41,
                    "time": 79.37333600000008,
                    "velocity": 0.48031496062992124,
                    "duration": 0.09791118750000294
                },
                {
                    "name": "F#2",
                    "midi": 42,
                    "time": 79.47124718750008,
                    "velocity": 0.4409448818897638,
                    "duration": 0.09791118749998873
                },
                {
                    "name": "F2",
                    "midi": 41,
                    "time": 79.56915837500007,
                    "velocity": 0.5039370078740157,
                    "duration": 0.09791118750000294
                },
                {
                    "name": "F#2",
                    "midi": 42,
                    "time": 79.66706956250007,
                    "velocity": 0.44881889763779526,
                    "duration": 0.09791118750000294
                },
                {
                    "name": "F2",
                    "midi": 41,
                    "time": 79.76498075000008,
                    "velocity": 0.5196850393700787,
                    "duration": 0.09791118750000294
                },
                {
                    "name": "F#2",
                    "midi": 42,
                    "time": 79.86289193750008,
                    "velocity": 0.4645669291338583,
                    "duration": 0.09791118750000294
                },
                {
                    "name": "F2",
                    "midi": 41,
                    "time": 79.96080312500008,
                    "velocity": 0.5354330708661418,
                    "duration": 0.09791118750000294
                },
                {
                    "name": "F#2",
                    "midi": 42,
                    "time": 80.05871431250009,
                    "velocity": 0.48031496062992124,
                    "duration": 0.09791118750000294
                },
                {
                    "name": "F2",
                    "midi": 41,
                    "time": 80.15662550000009,
                    "velocity": 0.5511811023622047,
                    "duration": 0.09791118750000294
                },
                {
                    "name": "F#2",
                    "midi": 42,
                    "time": 80.25453668750009,
                    "velocity": 0.5118110236220472,
                    "duration": 0.09791118750000294
                },
                {
                    "name": "F2",
                    "midi": 41,
                    "time": 80.3524478750001,
                    "velocity": 0.5748031496062992,
                    "duration": 0.09791118750000294
                },
                {
                    "name": "F#2",
                    "midi": 42,
                    "time": 80.4503590625001,
                    "velocity": 0.5196850393700787,
                    "duration": 0.09791118750000294
                },
                {
                    "name": "F2",
                    "midi": 41,
                    "time": 80.5482702500001,
                    "velocity": 0.5669291338582677,
                    "duration": 0.09791118750000294
                },
                {
                    "name": "F#2",
                    "midi": 42,
                    "time": 80.64835724166677,
                    "velocity": 0.49606299212598426,
                    "duration": 0.09791118750000294
                },
                {
                    "name": "F2",
                    "midi": 41,
                    "time": 80.7440926250001,
                    "velocity": 0.5433070866141733,
                    "duration": 0.09791118750000294
                },
                {
                    "name": "F#2",
                    "midi": 42,
                    "time": 80.84200381250011,
                    "velocity": 0.47244094488188976,
                    "duration": 0.10008699166667157
                },
                {
                    "name": "F2",
                    "midi": 41,
                    "time": 80.93991500000011,
                    "velocity": 0.5196850393700787,
                    "duration": 0.13054825000000392
                },
                {
                    "name": "F#2",
                    "midi": 42,
                    "time": 81.07046325000012,
                    "velocity": 0.4566929133858268,
                    "duration": 0.13054825000000392
                },
                {
                    "name": "E2",
                    "midi": 40,
                    "time": 81.20101150000012,
                    "velocity": 0.5039370078740157,
                    "duration": 0.13054825000000392
                },
                {
                    "name": "F2",
                    "midi": 41,
                    "time": 81.33155975000012,
                    "velocity": 0.4330708661417323,
                    "duration": 0.13054825000000392
                },
                {
                    "name": "F#2",
                    "midi": 42,
                    "time": 81.46210800000013,
                    "velocity": 0.5039370078740157,
                    "duration": 1.0443859999999887
                },
                {
                    "name": "F2",
                    "midi": 41,
                    "time": 82.50649400000012,
                    "velocity": 0.3858267716535433,
                    "duration": 0.5221930000000015
                },
                {
                    "name": "C#2",
                    "midi": 37,
                    "time": 83.02868700000012,
                    "velocity": 0.31496062992125984,
                    "duration": 0.5221930000000015
                },
                {
                    "name": "A#1",
                    "midi": 34,
                    "time": 83.55088000000012,
                    "velocity": 0.25196850393700787,
                    "duration": 1.0443860000000171
                },
                {
                    "name": "F2",
                    "midi": 41,
                    "time": 83.55088000000012,
                    "velocity": 0.25196850393700787,
                    "duration": 1.0443860000000171
                },
                {
                    "name": "A#2",
                    "midi": 46,
                    "time": 83.55088000000012,
                    "velocity": 0.30708661417322836,
                    "duration": 1.0443860000000171
                },
                {
                    "name": "C#2",
                    "midi": 37,
                    "time": 84.59526600000014,
                    "velocity": 0.2204724409448819,
                    "duration": 1.0443859999999887
                },
                {
                    "name": "F#2",
                    "midi": 42,
                    "time": 84.59526600000014,
                    "velocity": 0.2677165354330709,
                    "duration": 1.0443859999999887
                },
                {
                    "name": "C#3",
                    "midi": 49,
                    "time": 84.59526600000014,
                    "velocity": 0.2677165354330709,
                    "duration": 1.0443859999999887
                },
                {
                    "name": "A#1",
                    "midi": 34,
                    "time": 85.63965200000013,
                    "velocity": 0.25196850393700787,
                    "duration": 1.0443859999999887
                },
                {
                    "name": "F2",
                    "midi": 41,
                    "time": 85.63965200000013,
                    "velocity": 0.25196850393700787,
                    "duration": 1.0443859999999887
                },
                {
                    "name": "A#2",
                    "midi": 46,
                    "time": 85.63965200000013,
                    "velocity": 0.30708661417322836,
                    "duration": 1.0443859999999887
                },
                {
                    "name": "C#2",
                    "midi": 37,
                    "time": 86.68403800000011,
                    "velocity": 0.1968503937007874,
                    "duration": 1.044386000000003
                },
                {
                    "name": "F#2",
                    "midi": 42,
                    "time": 86.68403800000011,
                    "velocity": 0.2440944881889764,
                    "duration": 1.044386000000003
                },
                {
                    "name": "C#3",
                    "midi": 49,
                    "time": 86.68403800000011,
                    "velocity": 0.2440944881889764,
                    "duration": 1.044386000000003
                },
                {
                    "name": "A#1",
                    "midi": 34,
                    "time": 87.72842400000012,
                    "velocity": 0.25196850393700787,
                    "duration": 1.044386000000003
                },
                {
                    "name": "F2",
                    "midi": 41,
                    "time": 87.72842400000012,
                    "velocity": 0.25196850393700787,
                    "duration": 1.044386000000003
                },
                {
                    "name": "A#2",
                    "midi": 46,
                    "time": 87.72842400000012,
                    "velocity": 0.30708661417322836,
                    "duration": 1.044386000000003
                },
                {
                    "name": "C#2",
                    "midi": 37,
                    "time": 88.77281000000012,
                    "velocity": 0.2204724409448819,
                    "duration": 1.044386000000003
                },
                {
                    "name": "F#2",
                    "midi": 42,
                    "time": 88.77281000000012,
                    "velocity": 0.2204724409448819,
                    "duration": 1.044386000000003
                },
                {
                    "name": "C#3",
                    "midi": 49,
                    "time": 88.77281000000012,
                    "velocity": 0.2677165354330709,
                    "duration": 1.044386000000003
                },
                {
                    "name": "A#1",
                    "midi": 34,
                    "time": 89.81719600000012,
                    "velocity": 0.25196850393700787,
                    "duration": 1.044386000000003
                },
                {
                    "name": "F2",
                    "midi": 41,
                    "time": 89.81719600000012,
                    "velocity": 0.25196850393700787,
                    "duration": 1.044386000000003
                },
                {
                    "name": "A#2",
                    "midi": 46,
                    "time": 89.81719600000012,
                    "velocity": 0.30708661417322836,
                    "duration": 1.044386000000003
                },
                {
                    "name": "A1",
                    "midi": 33,
                    "time": 90.86158200000013,
                    "velocity": 0.44881889763779526,
                    "duration": 0.7832894999999951
                },
                {
                    "name": "A2",
                    "midi": 45,
                    "time": 90.86158200000013,
                    "velocity": 0.5748031496062992,
                    "duration": 0.7832894999999951
                },
                {
                    "name": "G#1",
                    "midi": 32,
                    "time": 91.64487150000012,
                    "velocity": 0.44881889763779526,
                    "duration": 0.2610964999999936
                },
                {
                    "name": "G#2",
                    "midi": 44,
                    "time": 91.64487150000012,
                    "velocity": 0.5748031496062992,
                    "duration": 0.2610964999999936
                },
                {
                    "name": "C#1",
                    "midi": 25,
                    "time": 91.90596800000012,
                    "velocity": 0.47244094488188976,
                    "duration": 1.044386000000003
                },
                {
                    "name": "C#2",
                    "midi": 37,
                    "time": 91.90596800000012,
                    "velocity": 0.5984251968503937,
                    "duration": 1.044386000000003
                },
                {
                    "name": "C#3",
                    "midi": 49,
                    "time": 92.95035400000012,
                    "velocity": 0.5275590551181102,
                    "duration": 0.7832894999999951
                },
                {
                    "name": "G#3",
                    "midi": 56,
                    "time": 92.95035400000012,
                    "velocity": 0.5275590551181102,
                    "duration": 0.7832894999999951
                },
                {
                    "name": "C#4",
                    "midi": 61,
                    "time": 92.95035400000012,
                    "velocity": 0.6299212598425197,
                    "duration": 0.7832894999999951
                },
                {
                    "name": "D#4",
                    "midi": 63,
                    "time": 93.73364350000011,
                    "velocity": 0.6299212598425197,
                    "duration": 0.2610964999999936
                },
                {
                    "name": "C#3",
                    "midi": 49,
                    "time": 93.9947400000001,
                    "velocity": 0.5590551181102362,
                    "duration": 0.7832894999999951
                },
                {
                    "name": "G#3",
                    "midi": 56,
                    "time": 93.9947400000001,
                    "velocity": 0.5590551181102362,
                    "duration": 0.7832894999999951
                },
                {
                    "name": "F4",
                    "midi": 65,
                    "time": 93.9947400000001,
                    "velocity": 0.6692913385826772,
                    "duration": 0.7832894999999951
                },
                {
                    "name": "F#4",
                    "midi": 66,
                    "time": 94.7780295000001,
                    "velocity": 0.6692913385826772,
                    "duration": 0.2610964999999936
                },
                {
                    "name": "D#4",
                    "midi": 63,
                    "time": 95.0391260000001,
                    "velocity": 0.5984251968503937,
                    "duration": 0.7832894999999951
                },
                {
                    "name": "G#3",
                    "midi": 56,
                    "time": 95.0391260000001,
                    "velocity": 0.5984251968503937,
                    "duration": 0.7832894999999951
                },
                {
                    "name": "G#4",
                    "midi": 68,
                    "time": 95.0391260000001,
                    "velocity": 0.7086614173228346,
                    "duration": 0.7832894999999951
                },
                {
                    "name": "F4",
                    "midi": 65,
                    "time": 95.82241550000009,
                    "velocity": 0.7007874015748031,
                    "duration": 0.2610964999999936
                },
                {
                    "name": "G#1",
                    "midi": 32,
                    "time": 96.08351200000008,
                    "velocity": 0.6377952755905512,
                    "duration": 1.0443859999999887
                },
                {
                    "name": "G#2",
                    "midi": 44,
                    "time": 96.08351200000008,
                    "velocity": 0.7559055118110236,
                    "duration": 1.0443859999999887
                },
                {
                    "name": "D#4",
                    "midi": 63,
                    "time": 97.12789800000007,
                    "velocity": 0.5669291338582677,
                    "duration": 0.7832894999999951
                },
                {
                    "name": "F#4",
                    "midi": 66,
                    "time": 97.12789800000007,
                    "velocity": 0.5669291338582677,
                    "duration": 0.7832894999999951
                },
                {
                    "name": "C5",
                    "midi": 72,
                    "time": 97.12789800000007,
                    "velocity": 0.6692913385826772,
                    "duration": 0.7832894999999951
                },
                {
                    "name": "C#4",
                    "midi": 61,
                    "time": 97.91118750000007,
                    "velocity": 0.5275590551181102,
                    "duration": 0.2610964999999936
                },
                {
                    "name": "F#4",
                    "midi": 66,
                    "time": 97.91118750000007,
                    "velocity": 0.5275590551181102,
                    "duration": 0.2610964999999936
                },
                {
                    "name": "A#4",
                    "midi": 70,
                    "time": 97.91118750000007,
                    "velocity": 0.6220472440944882,
                    "duration": 0.2610964999999936
                },
                {
                    "name": "C#4",
                    "midi": 61,
                    "time": 98.17228400000006,
                    "velocity": 0.5196850393700787,
                    "duration": 0.7832895000000093
                },
                {
                    "name": "F#4",
                    "midi": 66,
                    "time": 98.17228400000006,
                    "velocity": 0.5196850393700787,
                    "duration": 0.7832895000000093
                },
                {
                    "name": "A#4",
                    "midi": 70,
                    "time": 98.17228400000006,
                    "velocity": 0.6141732283464567,
                    "duration": 0.7832895000000093
                },
                {
                    "name": "C4",
                    "midi": 60,
                    "time": 98.95557350000007,
                    "velocity": 0.48031496062992124,
                    "duration": 0.2610964999999936
                },
                {
                    "name": "F#4",
                    "midi": 66,
                    "time": 98.95557350000007,
                    "velocity": 0.48031496062992124,
                    "duration": 0.2610964999999936
                },
                {
                    "name": "G#4",
                    "midi": 68,
                    "time": 98.95557350000007,
                    "velocity": 0.5748031496062992,
                    "duration": 0.2610964999999936
                },
                {
                    "name": "C4",
                    "midi": 60,
                    "time": 99.21667000000006,
                    "velocity": 0.47244094488188976,
                    "duration": 0.7832895000000093
                },
                {
                    "name": "F#4",
                    "midi": 66,
                    "time": 99.21667000000006,
                    "velocity": 0.47244094488188976,
                    "duration": 0.7832895000000093
                },
                {
                    "name": "G#4",
                    "midi": 68,
                    "time": 99.21667000000006,
                    "velocity": 0.5590551181102362,
                    "duration": 0.7832895000000093
                },
                {
                    "name": "A3",
                    "midi": 57,
                    "time": 99.99995950000007,
                    "velocity": 0.5196850393700787,
                    "duration": 0.2610964999999936
                },
                {
                    "name": "C4",
                    "midi": 60,
                    "time": 99.99995950000007,
                    "velocity": 0.5196850393700787,
                    "duration": 0.2610964999999936
                },
                {
                    "name": "D#4",
                    "midi": 63,
                    "time": 99.99995950000007,
                    "velocity": 0.6062992125984252,
                    "duration": 0.2610964999999936
                },
                {
                    "name": "A#1",
                    "midi": 34,
                    "time": 100.26105600000007,
                    "velocity": 0.5196850393700787,
                    "duration": 1.044386000000003
                },
                {
                    "name": "A#2",
                    "midi": 46,
                    "time": 100.26105600000007,
                    "velocity": 0.6141732283464567,
                    "duration": 1.044386000000003
                },
                {
                    "name": "F3",
                    "midi": 53,
                    "time": 101.30544200000007,
                    "velocity": 0.49606299212598426,
                    "duration": 1.0443859999999887
                },
                {
                    "name": "A#3",
                    "midi": 58,
                    "time": 101.30544200000007,
                    "velocity": 0.49606299212598426,
                    "duration": 1.0443859999999887
                },
                {
                    "name": "C#4",
                    "midi": 61,
                    "time": 101.30544200000007,
                    "velocity": 0.5905511811023622,
                    "duration": 1.0443859999999887
                },
                {
                    "name": "C#2",
                    "midi": 37,
                    "time": 102.34982800000006,
                    "velocity": 0.5354330708661418,
                    "duration": 1.044386000000003
                },
                {
                    "name": "C#3",
                    "midi": 49,
                    "time": 102.34982800000006,
                    "velocity": 0.6299212598425197,
                    "duration": 1.044386000000003
                },
                {
                    "name": "F4",
                    "midi": 65,
                    "time": 103.39421400000006,
                    "velocity": 0.5984251968503937,
                    "duration": 1.044386000000003
                },
                {
                    "name": "C#4",
                    "midi": 61,
                    "time": 103.39421400000006,
                    "velocity": 0.5039370078740157,
                    "duration": 1.044386000000003
                },
                {
                    "name": "A#3",
                    "midi": 58,
                    "time": 103.39421400000006,
                    "velocity": 0.5039370078740157,
                    "duration": 1.044386000000003
                },
                {
                    "name": "F3",
                    "midi": 53,
                    "time": 103.39421400000006,
                    "velocity": 0.5039370078740157,
                    "duration": 1.044386000000003
                },
                {
                    "name": "F1",
                    "midi": 29,
                    "time": 104.43860000000006,
                    "velocity": 0.6062992125984252,
                    "duration": 1.0443859999999887
                },
                {
                    "name": "F2",
                    "midi": 41,
                    "time": 104.43860000000006,
                    "velocity": 0.7244094488188977,
                    "duration": 1.0443859999999887
                },
                {
                    "name": "F3",
                    "midi": 53,
                    "time": 105.48298600000005,
                    "velocity": 0.5433070866141733,
                    "duration": 1.044386000000003
                },
                {
                    "name": "A#3",
                    "midi": 58,
                    "time": 105.48298600000005,
                    "velocity": 0.5433070866141733,
                    "duration": 1.044386000000003
                },
                {
                    "name": "C#4",
                    "midi": 61,
                    "time": 105.48298600000005,
                    "velocity": 0.5433070866141733,
                    "duration": 1.044386000000003
                },
                {
                    "name": "G4",
                    "midi": 67,
                    "time": 105.48298600000005,
                    "velocity": 0.6377952755905512,
                    "duration": 1.044386000000003
                },
                {
                    "name": "F3",
                    "midi": 53,
                    "time": 106.52737200000006,
                    "velocity": 0.5039370078740157,
                    "duration": 1.044386000000003
                },
                {
                    "name": "A3",
                    "midi": 57,
                    "time": 106.52737200000006,
                    "velocity": 0.5039370078740157,
                    "duration": 1.044386000000003
                },
                {
                    "name": "C4",
                    "midi": 60,
                    "time": 106.52737200000006,
                    "velocity": 0.5039370078740157,
                    "duration": 1.044386000000003
                },
                {
                    "name": "A4",
                    "midi": 69,
                    "time": 106.52737200000006,
                    "velocity": 0.5905511811023622,
                    "duration": 1.044386000000003
                },
                {
                    "name": "F3",
                    "midi": 53,
                    "time": 107.57175800000006,
                    "velocity": 0.6377952755905512,
                    "duration": 0.5221930000000015
                },
                {
                    "name": "G2",
                    "midi": 43,
                    "time": 108.09395100000006,
                    "velocity": 0.48031496062992124,
                    "duration": 0.17406433333333382
                },
                {
                    "name": "G#2",
                    "midi": 44,
                    "time": 108.2680153333334,
                    "velocity": 0.48031496062992124,
                    "duration": 0.17406433333333382
                },
                {
                    "name": "A#2",
                    "midi": 46,
                    "time": 108.44207966666673,
                    "velocity": 0.48031496062992124,
                    "duration": 0.17406433333333382
                },
                {
                    "name": "G#2",
                    "midi": 44,
                    "time": 108.61614400000006,
                    "velocity": 0.48031496062992124,
                    "duration": 0.09791118750000294
                },
                {
                    "name": "A#2",
                    "midi": 46,
                    "time": 108.71405518750007,
                    "velocity": 0.4409448818897638,
                    "duration": 0.09791118750000294
                },
                {
                    "name": "G#2",
                    "midi": 44,
                    "time": 108.81196637500007,
                    "velocity": 0.5039370078740157,
                    "duration": 0.09791118750000294
                },
                {
                    "name": "A#2",
                    "midi": 46,
                    "time": 108.90987756250007,
                    "velocity": 0.44881889763779526,
                    "duration": 0.09791118750000294
                },
                {
                    "name": "G#2",
                    "midi": 44,
                    "time": 109.00778875000007,
                    "velocity": 0.5196850393700787,
                    "duration": 0.09791118750000294
                },
                {
                    "name": "A#2",
                    "midi": 46,
                    "time": 109.10569993750008,
                    "velocity": 0.4645669291338583,
                    "duration": 0.09791118750000294
                },
                {
                    "name": "G#2",
                    "midi": 44,
                    "time": 109.20361112500008,
                    "velocity": 0.5354330708661418,
                    "duration": 0.09791118750000294
                },
                {
                    "name": "A#2",
                    "midi": 46,
                    "time": 109.30152231250008,
                    "velocity": 0.48031496062992124,
                    "duration": 0.09791118750000294
                },
                {
                    "name": "G#2",
                    "midi": 44,
                    "time": 109.39943350000009,
                    "velocity": 0.5511811023622047,
                    "duration": 0.09791118750000294
                },
                {
                    "name": "A#2",
                    "midi": 46,
                    "time": 109.49734468750009,
                    "velocity": 0.5118110236220472,
                    "duration": 0.09791118750000294
                },
                {
                    "name": "G#2",
                    "midi": 44,
                    "time": 109.59525587500009,
                    "velocity": 0.5748031496062992,
                    "duration": 0.09791118750000294
                },
                {
                    "name": "A#2",
                    "midi": 46,
                    "time": 109.6931670625001,
                    "velocity": 0.5196850393700787,
                    "duration": 0.09791118750000294
                },
                {
                    "name": "G#2",
                    "midi": 44,
                    "time": 109.7910782500001,
                    "velocity": 0.5669291338582677,
                    "duration": 0.09791118750000294
                },
                {
                    "name": "A#2",
                    "midi": 46,
                    "time": 109.89116524166677,
                    "velocity": 0.49606299212598426,
                    "duration": 0.09791118750000294
                },
                {
                    "name": "G#2",
                    "midi": 44,
                    "time": 109.9869006250001,
                    "velocity": 0.5433070866141733,
                    "duration": 0.09791118750000294
                },
                {
                    "name": "A#2",
                    "midi": 46,
                    "time": 110.0848118125001,
                    "velocity": 0.47244094488188976,
                    "duration": 0.10008699166667157
                },
                {
                    "name": "G#2",
                    "midi": 44,
                    "time": 110.18272300000011,
                    "velocity": 0.5196850393700787,
                    "duration": 0.13054825000000392
                },
                {
                    "name": "A#2",
                    "midi": 46,
                    "time": 110.31327125000011,
                    "velocity": 0.4566929133858268,
                    "duration": 0.13054825000000392
                },
                {
                    "name": "G2",
                    "midi": 43,
                    "time": 110.44381950000012,
                    "velocity": 0.5039370078740157,
                    "duration": 0.13054825000000392
                },
                {
                    "name": "G#2",
                    "midi": 44,
                    "time": 110.57436775000012,
                    "velocity": 0.4330708661417323,
                    "duration": 0.13054825000000392
                },
                {
                    "name": "C#3",
                    "midi": 49,
                    "time": 110.70491600000013,
                    "velocity": 0.5354330708661418,
                    "duration": 1.044386000000003
                },
                {
                    "name": "C#3",
                    "midi": 49,
                    "time": 111.74930200000013,
                    "velocity": 0.5354330708661418,
                    "duration": 0.5221930000000015
                },
                {
                    "name": "E2",
                    "midi": 40,
                    "time": 112.27149500000013,
                    "velocity": 0.48031496062992124,
                    "duration": 0.17406433333333382
                },
                {
                    "name": "F2",
                    "midi": 41,
                    "time": 112.44555933333346,
                    "velocity": 0.48031496062992124,
                    "duration": 0.17406433333333382
                },
                {
                    "name": "F#2",
                    "midi": 42,
                    "time": 112.6196236666668,
                    "velocity": 0.48031496062992124,
                    "duration": 0.17406433333333382
                },
                {
                    "name": "F2",
                    "midi": 41,
                    "time": 112.79368800000013,
                    "velocity": 0.48031496062992124,
                    "duration": 0.09791118750000294
                },
                {
                    "name": "F#2",
                    "midi": 42,
                    "time": 112.89159918750013,
                    "velocity": 0.4409448818897638,
                    "duration": 0.09791118750000294
                },
                {
                    "name": "F2",
                    "midi": 41,
                    "time": 112.98951037500014,
                    "velocity": 0.5039370078740157,
                    "duration": 0.09791118750000294
                },
                {
                    "name": "F#2",
                    "midi": 42,
                    "time": 113.08742156250014,
                    "velocity": 0.44881889763779526,
                    "duration": 0.09791118750000294
                },
                {
                    "name": "F2",
                    "midi": 41,
                    "time": 113.18533275000014,
                    "velocity": 0.5196850393700787,
                    "duration": 0.09791118750000294
                },
                {
                    "name": "F#2",
                    "midi": 42,
                    "time": 113.28324393750015,
                    "velocity": 0.4645669291338583,
                    "duration": 0.09791118750000294
                },
                {
                    "name": "F2",
                    "midi": 41,
                    "time": 113.38115512500015,
                    "velocity": 0.5354330708661418,
                    "duration": 0.09791118750000294
                },
                {
                    "name": "F#2",
                    "midi": 42,
                    "time": 113.47906631250015,
                    "velocity": 0.48031496062992124,
                    "duration": 0.09791118750000294
                },
                {
                    "name": "F2",
                    "midi": 41,
                    "time": 113.57697750000015,
                    "velocity": 0.5511811023622047,
                    "duration": 0.09791118750000294
                },
                {
                    "name": "F#2",
                    "midi": 42,
                    "time": 113.67488868750016,
                    "velocity": 0.5118110236220472,
                    "duration": 0.09791118750000294
                },
                {
                    "name": "F2",
                    "midi": 41,
                    "time": 113.77279987500016,
                    "velocity": 0.5748031496062992,
                    "duration": 0.09791118750000294
                },
                {
                    "name": "F#2",
                    "midi": 42,
                    "time": 113.87071106250016,
                    "velocity": 0.5196850393700787,
                    "duration": 0.09791118750000294
                },
                {
                    "name": "F2",
                    "midi": 41,
                    "time": 113.96862225000017,
                    "velocity": 0.5669291338582677,
                    "duration": 0.09791118750000294
                },
                {
                    "name": "F#2",
                    "midi": 42,
                    "time": 114.06870924166684,
                    "velocity": 0.49606299212598426,
                    "duration": 0.09791118750000294
                },
                {
                    "name": "F2",
                    "midi": 41,
                    "time": 114.16444462500017,
                    "velocity": 0.5433070866141733,
                    "duration": 0.09791118750000294
                },
                {
                    "name": "F#2",
                    "midi": 42,
                    "time": 114.26235581250018,
                    "velocity": 0.47244094488188976,
                    "duration": 0.10008699166667157
                },
                {
                    "name": "F2",
                    "midi": 41,
                    "time": 114.36026700000018,
                    "velocity": 0.5196850393700787,
                    "duration": 0.13054825000000392
                },
                {
                    "name": "F#2",
                    "midi": 42,
                    "time": 114.49081525000018,
                    "velocity": 0.4566929133858268,
                    "duration": 0.13054825000000392
                },
                {
                    "name": "E2",
                    "midi": 40,
                    "time": 114.62136350000019,
                    "velocity": 0.5039370078740157,
                    "duration": 0.13054825000000392
                },
                {
                    "name": "F2",
                    "midi": 41,
                    "time": 114.75191175000019,
                    "velocity": 0.4330708661417323,
                    "duration": 0.13054825000000392
                },
                {
                    "name": "F#2",
                    "midi": 42,
                    "time": 114.8824600000002,
                    "velocity": 0.5039370078740157,
                    "duration": 1.0443859999999887
                },
                {
                    "name": "F2",
                    "midi": 41,
                    "time": 115.92684600000018,
                    "velocity": 0.4015748031496063,
                    "duration": 0.5221930000000015
                },
                {
                    "name": "C#2",
                    "midi": 37,
                    "time": 116.44903900000018,
                    "velocity": 0.30708661417322836,
                    "duration": 0.5221930000000015
                },
                {
                    "name": "A#1",
                    "midi": 34,
                    "time": 116.97123200000019,
                    "velocity": 0.25196850393700787,
                    "duration": 1.044386000000003
                },
                {
                    "name": "F2",
                    "midi": 41,
                    "time": 116.97123200000019,
                    "velocity": 0.25196850393700787,
                    "duration": 1.044386000000003
                },
                {
                    "name": "A#2",
                    "midi": 46,
                    "time": 116.97123200000019,
                    "velocity": 0.30708661417322836,
                    "duration": 1.044386000000003
                },
                {
                    "name": "C#2",
                    "midi": 37,
                    "time": 118.01561800000019,
                    "velocity": 0.2204724409448819,
                    "duration": 1.0443859999999887
                },
                {
                    "name": "F#2",
                    "midi": 42,
                    "time": 118.01561800000019,
                    "velocity": 0.2677165354330709,
                    "duration": 1.0443859999999887
                },
                {
                    "name": "C#3",
                    "midi": 49,
                    "time": 118.01561800000019,
                    "velocity": 0.2677165354330709,
                    "duration": 1.0443859999999887
                },
                {
                    "name": "A#1",
                    "midi": 34,
                    "time": 119.06000400000018,
                    "velocity": 0.25196850393700787,
                    "duration": 1.0443859999999887
                },
                {
                    "name": "F2",
                    "midi": 41,
                    "time": 119.06000400000018,
                    "velocity": 0.25196850393700787,
                    "duration": 1.0443859999999887
                },
                {
                    "name": "A#2",
                    "midi": 46,
                    "time": 119.06000400000018,
                    "velocity": 0.30708661417322836,
                    "duration": 1.0443859999999887
                },
                {
                    "name": "C#2",
                    "midi": 37,
                    "time": 120.10439000000017,
                    "velocity": 0.1968503937007874,
                    "duration": 1.044386000000003
                },
                {
                    "name": "F#2",
                    "midi": 42,
                    "time": 120.10439000000017,
                    "velocity": 0.2440944881889764,
                    "duration": 1.044386000000003
                },
                {
                    "name": "C#3",
                    "midi": 49,
                    "time": 120.10439000000017,
                    "velocity": 0.2440944881889764,
                    "duration": 1.044386000000003
                },
                {
                    "name": "A#1",
                    "midi": 34,
                    "time": 121.14877600000017,
                    "velocity": 0.25196850393700787,
                    "duration": 1.044386000000003
                },
                {
                    "name": "F2",
                    "midi": 41,
                    "time": 121.14877600000017,
                    "velocity": 0.25196850393700787,
                    "duration": 1.044386000000003
                },
                {
                    "name": "A#2",
                    "midi": 46,
                    "time": 121.14877600000017,
                    "velocity": 0.30708661417322836,
                    "duration": 1.044386000000003
                },
                {
                    "name": "C#2",
                    "midi": 37,
                    "time": 122.19316200000017,
                    "velocity": 0.2204724409448819,
                    "duration": 1.044386000000003
                },
                {
                    "name": "F#2",
                    "midi": 42,
                    "time": 122.19316200000017,
                    "velocity": 0.2204724409448819,
                    "duration": 1.044386000000003
                },
                {
                    "name": "C#3",
                    "midi": 49,
                    "time": 122.19316200000017,
                    "velocity": 0.2677165354330709,
                    "duration": 1.044386000000003
                },
                {
                    "name": "A#1",
                    "midi": 34,
                    "time": 123.23754800000017,
                    "velocity": 0.25196850393700787,
                    "duration": 1.044386000000003
                },
                {
                    "name": "F2",
                    "midi": 41,
                    "time": 123.23754800000017,
                    "velocity": 0.25196850393700787,
                    "duration": 1.044386000000003
                },
                {
                    "name": "A#2",
                    "midi": 46,
                    "time": 123.23754800000017,
                    "velocity": 0.30708661417322836,
                    "duration": 1.044386000000003
                },
                {
                    "name": "G#1",
                    "midi": 32,
                    "time": 124.28193400000018,
                    "velocity": 0.25196850393700787,
                    "duration": 1.044386000000003
                },
                {
                    "name": "G#2",
                    "midi": 44,
                    "time": 124.28193400000018,
                    "velocity": 0.30708661417322836,
                    "duration": 1.044386000000003
                },
                {
                    "name": "C#2",
                    "midi": 37,
                    "time": 125.32632000000018,
                    "velocity": 0.25984251968503935,
                    "duration": 0.5221930000000015
                },
                {
                    "name": "G#2",
                    "midi": 44,
                    "time": 125.84851300000018,
                    "velocity": 0.2125984251968504,
                    "duration": 0.5221930000000015
                },
                {
                    "name": "F3",
                    "midi": 53,
                    "time": 126.37070600000018,
                    "velocity": 0.2125984251968504,
                    "duration": 0.5221930000000015
                },
                {
                    "name": "C#4",
                    "midi": 61,
                    "time": 126.89289900000018,
                    "velocity": 0.2204724409448819,
                    "duration": 0.5221930000000015
                },
                {
                    "name": "C#2",
                    "midi": 37,
                    "time": 127.41509200000019,
                    "velocity": 0.25984251968503935,
                    "duration": 0.5221930000000015
                },
                {
                    "name": "G#2",
                    "midi": 44,
                    "time": 127.93728500000019,
                    "velocity": 0.2125984251968504,
                    "duration": 0.5221930000000015
                },
                {
                    "name": "F3",
                    "midi": 53,
                    "time": 128.4594780000002,
                    "velocity": 0.2125984251968504,
                    "duration": 0.5221929999999873
                },
                {
                    "name": "C#4",
                    "midi": 61,
                    "time": 128.98167100000018,
                    "velocity": 0.2204724409448819,
                    "duration": 0.5221929999999873
                },
                {
                    "name": "D#2",
                    "midi": 39,
                    "time": 129.50386400000016,
                    "velocity": 0.25984251968503935,
                    "duration": 0.5221930000000157
                },
                {
                    "name": "G#2",
                    "midi": 44,
                    "time": 130.02605700000018,
                    "velocity": 0.2125984251968504,
                    "duration": 0.5221929999999873
                },
                {
                    "name": "F#3",
                    "midi": 54,
                    "time": 130.54825000000017,
                    "velocity": 0.1889763779527559,
                    "duration": 0.5221929999999873
                },
                {
                    "name": "C4",
                    "midi": 60,
                    "time": 131.07044300000015,
                    "velocity": 0.1889763779527559,
                    "duration": 0.5221929999999873
                },
                {
                    "name": "D#2",
                    "midi": 39,
                    "time": 131.59263600000014,
                    "velocity": 0.2440944881889764,
                    "duration": 0.5221929999999873
                },
                {
                    "name": "G#2",
                    "midi": 44,
                    "time": 132.11482900000013,
                    "velocity": 0.1889763779527559,
                    "duration": 0.5221929999999873
                },
                {
                    "name": "F#3",
                    "midi": 54,
                    "time": 132.63702200000012,
                    "velocity": 0.2125984251968504,
                    "duration": 0.5221929999999873
                },
                {
                    "name": "C4",
                    "midi": 60,
                    "time": 133.1592150000001,
                    "velocity": 0.1968503937007874,
                    "duration": 0.5221929999999873
                },
                {
                    "name": "G#1",
                    "midi": 32,
                    "time": 133.6814080000001,
                    "velocity": 0.25984251968503935,
                    "duration": 0.5221929999999873
                },
                {
                    "name": "G#2",
                    "midi": 44,
                    "time": 134.20360100000008,
                    "velocity": 0.2283464566929134,
                    "duration": 0.5221929999999873
                },
                {
                    "name": "F#3",
                    "midi": 54,
                    "time": 134.72579400000006,
                    "velocity": 0.2283464566929134,
                    "duration": 0.5221929999999873
                },
                {
                    "name": "C4",
                    "midi": 60,
                    "time": 135.24798700000005,
                    "velocity": 0.23622047244094488,
                    "duration": 0.5221929999999873
                },
                {
                    "name": "G#1",
                    "midi": 32,
                    "time": 135.77018000000004,
                    "velocity": 0.28346456692913385,
                    "duration": 0.5221929999999873
                },
                {
                    "name": "G#2",
                    "midi": 44,
                    "time": 136.29237300000003,
                    "velocity": 0.23622047244094488,
                    "duration": 0.5221929999999873
                },
                {
                    "name": "F#3",
                    "midi": 54,
                    "time": 136.814566,
                    "velocity": 0.23622047244094488,
                    "duration": 0.5221929999999873
                },
                {
                    "name": "C4",
                    "midi": 60,
                    "time": 137.336759,
                    "velocity": 0.2440944881889764,
                    "duration": 0.5221929999999873
                },
                {
                    "name": "C#2",
                    "midi": 37,
                    "time": 137.858952,
                    "velocity": 0.28346456692913385,
                    "duration": 0.5221930000000157
                },
                {
                    "name": "G#2",
                    "midi": 44,
                    "time": 138.381145,
                    "velocity": 0.23622047244094488,
                    "duration": 0.5221929999999873
                },
                {
                    "name": "F3",
                    "midi": 53,
                    "time": 138.903338,
                    "velocity": 0.2204724409448819,
                    "duration": 0.5221929999999873
                },
                {
                    "name": "C#4",
                    "midi": 61,
                    "time": 139.42553099999998,
                    "velocity": 0.1968503937007874,
                    "duration": 0.5221929999999873
                },
                {
                    "name": "C#2",
                    "midi": 37,
                    "time": 139.94772399999997,
                    "velocity": 0.25984251968503935,
                    "duration": 0.5221929999999873
                },
                {
                    "name": "G#2",
                    "midi": 44,
                    "time": 140.46991699999995,
                    "velocity": 0.2125984251968504,
                    "duration": 0.5221929999999873
                },
                {
                    "name": "F3",
                    "midi": 53,
                    "time": 140.99210999999994,
                    "velocity": 0.2283464566929134,
                    "duration": 0.5221929999999873
                },
                {
                    "name": "C#4",
                    "midi": 61,
                    "time": 141.51430299999993,
                    "velocity": 0.2125984251968504,
                    "duration": 0.5221929999999873
                },
                {
                    "name": "C#2",
                    "midi": 37,
                    "time": 142.03649599999991,
                    "velocity": 0.25984251968503935,
                    "duration": 0.5221929999999873
                },
                {
                    "name": "G#2",
                    "midi": 44,
                    "time": 142.5586889999999,
                    "velocity": 0.2125984251968504,
                    "duration": 0.5221929999999873
                },
                {
                    "name": "F3",
                    "midi": 53,
                    "time": 143.0808819999999,
                    "velocity": 0.23622047244094488,
                    "duration": 0.5221929999999873
                },
                {
                    "name": "C#4",
                    "midi": 61,
                    "time": 143.60307499999988,
                    "velocity": 0.2204724409448819,
                    "duration": 0.5221929999999873
                },
                {
                    "name": "A#1",
                    "midi": 34,
                    "time": 144.12526799999986,
                    "velocity": 0.25984251968503935,
                    "duration": 0.5221929999999873
                },
                {
                    "name": "A#2",
                    "midi": 46,
                    "time": 144.64746099999985,
                    "velocity": 0.2283464566929134,
                    "duration": 0.5221929999999873
                },
                {
                    "name": "G#3",
                    "midi": 56,
                    "time": 145.16965399999984,
                    "velocity": 0.2283464566929134,
                    "duration": 0.5221929999999873
                },
                {
                    "name": "D4",
                    "midi": 62,
                    "time": 145.69184699999983,
                    "velocity": 0.23622047244094488,
                    "duration": 0.5221929999999873
                },
                {
                    "name": "D#2",
                    "midi": 39,
                    "time": 146.2140399999998,
                    "velocity": 0.25984251968503935,
                    "duration": 0.5221929999999873
                },
                {
                    "name": "A#2",
                    "midi": 46,
                    "time": 146.7362329999998,
                    "velocity": 0.23622047244094488,
                    "duration": 0.5221929999999873
                },
                {
                    "name": "F#3",
                    "midi": 54,
                    "time": 147.2584259999998,
                    "velocity": 0.23622047244094488,
                    "duration": 0.5221929999999873
                },
                {
                    "name": "D#4",
                    "midi": 63,
                    "time": 147.78061899999977,
                    "velocity": 0.2125984251968504,
                    "duration": 0.5221929999999873
                },
                {
                    "name": "F#2",
                    "midi": 42,
                    "time": 148.30281199999976,
                    "velocity": 0.25984251968503935,
                    "duration": 0.5221930000000157
                },
                {
                    "name": "D#3",
                    "midi": 51,
                    "time": 148.82500499999978,
                    "velocity": 0.2283464566929134,
                    "duration": 0.5221929999999873
                },
                {
                    "name": "A#3",
                    "midi": 58,
                    "time": 149.34719799999976,
                    "velocity": 0.23622047244094488,
                    "duration": 0.5221929999999873
                },
                {
                    "name": "D#4",
                    "midi": 63,
                    "time": 149.86939099999975,
                    "velocity": 0.2125984251968504,
                    "duration": 0.26109650000000784
                },
                {
                    "name": "G2",
                    "midi": 43,
                    "time": 150.3915839999998,
                    "velocity": 0.25984251968503935,
                    "duration": 0.5221929999999873
                },
                {
                    "name": "E3",
                    "midi": 52,
                    "time": 150.91377699999978,
                    "velocity": 0.2204724409448819,
                    "duration": 0.5221929999999873
                },
                {
                    "name": "C#4",
                    "midi": 61,
                    "time": 151.43596999999977,
                    "velocity": 0.2204724409448819,
                    "duration": 0.5221929999999873
                },
                {
                    "name": "A#4",
                    "midi": 70,
                    "time": 151.95816299999976,
                    "velocity": 0.2283464566929134,
                    "duration": 0.5221929999999873
                },
                {
                    "name": "G#2",
                    "midi": 44,
                    "time": 152.48035599999974,
                    "velocity": 0.25984251968503935,
                    "duration": 0.5221930000000157
                },
                {
                    "name": "D#3",
                    "midi": 51,
                    "time": 153.00254899999976,
                    "velocity": 0.2204724409448819,
                    "duration": 0.5221929999999873
                },
                {
                    "name": "C4",
                    "midi": 60,
                    "time": 153.52474199999975,
                    "velocity": 0.23622047244094488,
                    "duration": 0.5221929999999873
                },
                {
                    "name": "F#4",
                    "midi": 66,
                    "time": 154.04693499999973,
                    "velocity": 0.23622047244094488,
                    "duration": 0.5221929999999873
                },
                {
                    "name": "G#1",
                    "midi": 32,
                    "time": 154.56912799999972,
                    "velocity": 0.25984251968503935,
                    "duration": 0.5221929999999873
                },
                {
                    "name": "G#2",
                    "midi": 44,
                    "time": 155.0913209999997,
                    "velocity": 0.2125984251968504,
                    "duration": 0.5221929999999873
                },
                {
                    "name": "F#3",
                    "midi": 54,
                    "time": 155.6135139999997,
                    "velocity": 0.2125984251968504,
                    "duration": 0.5221929999999873
                },
                {
                    "name": "C4",
                    "midi": 60,
                    "time": 156.13570699999968,
                    "velocity": 0.2047244094488189,
                    "duration": 0.5221929999999873
                },
                {
                    "name": "C#2",
                    "midi": 37,
                    "time": 156.65789999999967,
                    "velocity": 0.2440944881889764,
                    "duration": 0.5221929999999873
                },
                {
                    "name": "G#2",
                    "midi": 44,
                    "time": 157.18009299999966,
                    "velocity": 0.2204724409448819,
                    "duration": 0.5221929999999873
                },
                {
                    "name": "F3",
                    "midi": 53,
                    "time": 157.70228599999965,
                    "velocity": 0.2204724409448819,
                    "duration": 0.5221929999999873
                },
                {
                    "name": "C#4",
                    "midi": 61,
                    "time": 158.22447899999963,
                    "velocity": 0.2204724409448819,
                    "duration": 0.5221929999999873
                },
                {
                    "name": "C#2",
                    "midi": 37,
                    "time": 158.74667199999962,
                    "velocity": 0.25984251968503935,
                    "duration": 0.5221929999999873
                },
                {
                    "name": "G#2",
                    "midi": 44,
                    "time": 159.2688649999996,
                    "velocity": 0.2125984251968504,
                    "duration": 0.5221929999999873
                },
                {
                    "name": "F3",
                    "midi": 53,
                    "time": 159.7910579999996,
                    "velocity": 0.2125984251968504,
                    "duration": 0.5221929999999873
                },
                {
                    "name": "C#4",
                    "midi": 61,
                    "time": 160.31325099999958,
                    "velocity": 0.2204724409448819,
                    "duration": 0.5221929999999873
                },
                {
                    "name": "C#2",
                    "midi": 37,
                    "time": 160.83544399999957,
                    "velocity": 0.25984251968503935,
                    "duration": 0.5221929999999873
                },
                {
                    "name": "G#2",
                    "midi": 44,
                    "time": 161.35763699999956,
                    "velocity": 0.2125984251968504,
                    "duration": 0.5221929999999873
                },
                {
                    "name": "F3",
                    "midi": 53,
                    "time": 161.87982999999954,
                    "velocity": 0.2125984251968504,
                    "duration": 0.5221929999999873
                },
                {
                    "name": "C#4",
                    "midi": 61,
                    "time": 162.40202299999953,
                    "velocity": 0.2204724409448819,
                    "duration": 0.5221929999999873
                },
                {
                    "name": "D#2",
                    "midi": 39,
                    "time": 162.92421599999952,
                    "velocity": 0.25984251968503935,
                    "duration": 0.5221929999999873
                },
                {
                    "name": "G#2",
                    "midi": 44,
                    "time": 163.4464089999995,
                    "velocity": 0.2125984251968504,
                    "duration": 0.5221929999999873
                },
                {
                    "name": "F#3",
                    "midi": 54,
                    "time": 163.9686019999995,
                    "velocity": 0.1889763779527559,
                    "duration": 0.5221929999999873
                },
                {
                    "name": "C4",
                    "midi": 60,
                    "time": 164.49079499999948,
                    "velocity": 0.1889763779527559,
                    "duration": 0.5221929999999873
                },
                {
                    "name": "D#2",
                    "midi": 39,
                    "time": 165.01298799999947,
                    "velocity": 0.2440944881889764,
                    "duration": 0.5221929999999873
                },
                {
                    "name": "G#2",
                    "midi": 44,
                    "time": 165.53518099999945,
                    "velocity": 0.1889763779527559,
                    "duration": 0.5221929999999873
                },
                {
                    "name": "F#3",
                    "midi": 54,
                    "time": 166.05737399999944,
                    "velocity": 0.2125984251968504,
                    "duration": 0.5221929999999873
                },
                {
                    "name": "C4",
                    "midi": 60,
                    "time": 166.57956699999943,
                    "velocity": 0.1968503937007874,
                    "duration": 0.5221929999999873
                },
                {
                    "name": "G#1",
                    "midi": 32,
                    "time": 167.10175999999942,
                    "velocity": 0.25984251968503935,
                    "duration": 0.5221929999999873
                },
                {
                    "name": "G#2",
                    "midi": 44,
                    "time": 167.6239529999994,
                    "velocity": 0.2283464566929134,
                    "duration": 0.5221929999999873
                },
                {
                    "name": "F#3",
                    "midi": 54,
                    "time": 168.1461459999994,
                    "velocity": 0.2283464566929134,
                    "duration": 0.5221929999999873
                },
                {
                    "name": "C4",
                    "midi": 60,
                    "time": 168.66833899999938,
                    "velocity": 0.23622047244094488,
                    "duration": 0.5221929999999873
                },
                {
                    "name": "G#1",
                    "midi": 32,
                    "time": 169.19053199999937,
                    "velocity": 0.28346456692913385,
                    "duration": 0.5221929999999873
                },
                {
                    "name": "G#2",
                    "midi": 44,
                    "time": 169.71272499999935,
                    "velocity": 0.23622047244094488,
                    "duration": 0.5221929999999873
                },
                {
                    "name": "F#3",
                    "midi": 54,
                    "time": 170.23491799999934,
                    "velocity": 0.23622047244094488,
                    "duration": 0.5221929999999873
                },
                {
                    "name": "C4",
                    "midi": 60,
                    "time": 170.75711099999933,
                    "velocity": 0.2440944881889764,
                    "duration": 0.5221929999999873
                },
                {
                    "name": "C#2",
                    "midi": 37,
                    "time": 171.2793039999993,
                    "velocity": 0.28346456692913385,
                    "duration": 0.5221930000000157
                },
                {
                    "name": "G#2",
                    "midi": 44,
                    "time": 171.80149699999933,
                    "velocity": 0.23622047244094488,
                    "duration": 0.5221929999999873
                },
                {
                    "name": "F3",
                    "midi": 53,
                    "time": 172.32368999999932,
                    "velocity": 0.2204724409448819,
                    "duration": 0.5221929999999873
                },
                {
                    "name": "C#4",
                    "midi": 61,
                    "time": 172.8458829999993,
                    "velocity": 0.1968503937007874,
                    "duration": 0.5221929999999873
                },
                {
                    "name": "C#2",
                    "midi": 37,
                    "time": 173.3680759999993,
                    "velocity": 0.25984251968503935,
                    "duration": 0.5221929999999873
                },
                {
                    "name": "G#2",
                    "midi": 44,
                    "time": 173.89026899999928,
                    "velocity": 0.2125984251968504,
                    "duration": 0.5221929999999873
                },
                {
                    "name": "F3",
                    "midi": 53,
                    "time": 174.41246199999927,
                    "velocity": 0.2283464566929134,
                    "duration": 0.5221929999999873
                },
                {
                    "name": "C#4",
                    "midi": 61,
                    "time": 174.93465499999925,
                    "velocity": 0.2125984251968504,
                    "duration": 0.5221929999999873
                },
                {
                    "name": "C#2",
                    "midi": 37,
                    "time": 175.45684799999924,
                    "velocity": 0.25984251968503935,
                    "duration": 0.5221929999999873
                },
                {
                    "name": "G#2",
                    "midi": 44,
                    "time": 175.97904099999923,
                    "velocity": 0.2125984251968504,
                    "duration": 0.5221929999999873
                },
                {
                    "name": "F3",
                    "midi": 53,
                    "time": 176.50123399999922,
                    "velocity": 0.23622047244094488,
                    "duration": 0.5221929999999873
                },
                {
                    "name": "C#4",
                    "midi": 61,
                    "time": 177.0234269999992,
                    "velocity": 0.2204724409448819,
                    "duration": 0.5221929999999873
                },
                {
                    "name": "A#1",
                    "midi": 34,
                    "time": 177.5456199999992,
                    "velocity": 0.25984251968503935,
                    "duration": 0.5221929999999873
                },
                {
                    "name": "A#2",
                    "midi": 46,
                    "time": 178.06781299999918,
                    "velocity": 0.2283464566929134,
                    "duration": 0.5221929999999873
                },
                {
                    "name": "G#3",
                    "midi": 56,
                    "time": 178.59000599999916,
                    "velocity": 0.2283464566929134,
                    "duration": 0.5221929999999873
                },
                {
                    "name": "D4",
                    "midi": 62,
                    "time": 179.11219899999915,
                    "velocity": 0.23622047244094488,
                    "duration": 0.5221929999999873
                },
                {
                    "name": "D#2",
                    "midi": 39,
                    "time": 179.63439199999914,
                    "velocity": 0.25984251968503935,
                    "duration": 0.5221929999999873
                },
                {
                    "name": "A#2",
                    "midi": 46,
                    "time": 180.15658499999913,
                    "velocity": 0.23622047244094488,
                    "duration": 0.5221929999999873
                },
                {
                    "name": "F#3",
                    "midi": 54,
                    "time": 180.6787779999991,
                    "velocity": 0.23622047244094488,
                    "duration": 0.5221929999999873
                },
                {
                    "name": "D#4",
                    "midi": 63,
                    "time": 181.2009709999991,
                    "velocity": 0.2125984251968504,
                    "duration": 0.5221929999999873
                },
                {
                    "name": "F#2",
                    "midi": 42,
                    "time": 181.7231639999991,
                    "velocity": 0.25984251968503935,
                    "duration": 0.5221930000000157
                },
                {
                    "name": "D#3",
                    "midi": 51,
                    "time": 182.2453569999991,
                    "velocity": 0.2283464566929134,
                    "duration": 0.5221929999999873
                },
                {
                    "name": "A#3",
                    "midi": 58,
                    "time": 182.7675499999991,
                    "velocity": 0.23622047244094488,
                    "duration": 0.5221929999999873
                },
                {
                    "name": "D#4",
                    "midi": 63,
                    "time": 183.28974299999908,
                    "velocity": 0.2125984251968504,
                    "duration": 0.26109650000000784
                },
                {
                    "name": "G2",
                    "midi": 43,
                    "time": 183.8119359999991,
                    "velocity": 0.25984251968503935,
                    "duration": 0.5221929999999873
                },
                {
                    "name": "E3",
                    "midi": 52,
                    "time": 184.33412899999908,
                    "velocity": 0.2204724409448819,
                    "duration": 0.5221929999999873
                },
                {
                    "name": "C#4",
                    "midi": 61,
                    "time": 184.85632199999907,
                    "velocity": 0.2204724409448819,
                    "duration": 0.5221929999999873
                },
                {
                    "name": "A#4",
                    "midi": 70,
                    "time": 185.37851499999906,
                    "velocity": 0.2283464566929134,
                    "duration": 0.5221929999999873
                },
                {
                    "name": "G#2",
                    "midi": 44,
                    "time": 185.90070799999904,
                    "velocity": 0.25984251968503935,
                    "duration": 0.5221930000000157
                },
                {
                    "name": "D#3",
                    "midi": 51,
                    "time": 186.42290099999906,
                    "velocity": 0.2204724409448819,
                    "duration": 0.5221929999999873
                },
                {
                    "name": "C4",
                    "midi": 60,
                    "time": 186.94509399999905,
                    "velocity": 0.23622047244094488,
                    "duration": 0.5221929999999873
                },
                {
                    "name": "F#4",
                    "midi": 66,
                    "time": 187.46728699999903,
                    "velocity": 0.23622047244094488,
                    "duration": 0.5221929999999873
                },
                {
                    "name": "G#1",
                    "midi": 32,
                    "time": 187.98947999999902,
                    "velocity": 0.25984251968503935,
                    "duration": 0.5221929999999873
                },
                {
                    "name": "G#2",
                    "midi": 44,
                    "time": 188.511672999999,
                    "velocity": 0.2125984251968504,
                    "duration": 0.5221929999999873
                },
                {
                    "name": "F#3",
                    "midi": 54,
                    "time": 189.033865999999,
                    "velocity": 0.2125984251968504,
                    "duration": 0.5221929999999873
                },
                {
                    "name": "C4",
                    "midi": 60,
                    "time": 189.55605899999898,
                    "velocity": 0.2047244094488189,
                    "duration": 0.5221929999999873
                },
                {
                    "name": "C#2",
                    "midi": 37,
                    "time": 190.07825199999897,
                    "velocity": 0.2440944881889764,
                    "duration": 0.5221929999999873
                },
                {
                    "name": "G#2",
                    "midi": 44,
                    "time": 190.60044499999896,
                    "velocity": 0.2204724409448819,
                    "duration": 0.5221929999999873
                },
                {
                    "name": "F3",
                    "midi": 53,
                    "time": 191.12263799999894,
                    "velocity": 0.2204724409448819,
                    "duration": 0.5221929999999873
                },
                {
                    "name": "C#4",
                    "midi": 61,
                    "time": 191.64483099999893,
                    "velocity": 0.2204724409448819,
                    "duration": 0.5221929999999873
                },
                {
                    "name": "G#1",
                    "midi": 32,
                    "time": 192.16702399999892,
                    "velocity": 0.2677165354330709,
                    "duration": 0.5221930000000157
                },
                {
                    "name": "G#2",
                    "midi": 44,
                    "time": 192.68921699999893,
                    "velocity": 0.2204724409448819,
                    "duration": 0.5221929999999873
                },
                {
                    "name": "D#3",
                    "midi": 51,
                    "time": 193.21140999999892,
                    "velocity": 0.2204724409448819,
                    "duration": 0.5221929999999873
                },
                {
                    "name": "C4",
                    "midi": 60,
                    "time": 193.7336029999989,
                    "velocity": 0.2283464566929134,
                    "duration": 0.5221929999999873
                },
                {
                    "name": "G#1",
                    "midi": 32,
                    "time": 194.2557959999989,
                    "velocity": 0.2677165354330709,
                    "duration": 0.5221929999999873
                },
                {
                    "name": "G#2",
                    "midi": 44,
                    "time": 194.77798899999888,
                    "velocity": 0.2204724409448819,
                    "duration": 0.5221929999999873
                },
                {
                    "name": "D#3",
                    "midi": 51,
                    "time": 195.30018199999887,
                    "velocity": 0.2204724409448819,
                    "duration": 0.5221929999999873
                },
                {
                    "name": "C4",
                    "midi": 60,
                    "time": 195.82237499999886,
                    "velocity": 0.2283464566929134,
                    "duration": 0.5221929999999873
                },
                {
                    "name": "A#1",
                    "midi": 34,
                    "time": 196.34456799999884,
                    "velocity": 0.2677165354330709,
                    "duration": 0.5221929999999873
                },
                {
                    "name": "A#2",
                    "midi": 46,
                    "time": 196.86676099999883,
                    "velocity": 0.2204724409448819,
                    "duration": 0.5221929999999873
                },
                {
                    "name": "D#3",
                    "midi": 51,
                    "time": 197.38895399999882,
                    "velocity": 0.1968503937007874,
                    "duration": 0.5221929999999873
                },
                {
                    "name": "C#4",
                    "midi": 61,
                    "time": 197.9111469999988,
                    "velocity": 0.1968503937007874,
                    "duration": 0.5221929999999873
                },
                {
                    "name": "A#1",
                    "midi": 34,
                    "time": 198.4333399999988,
                    "velocity": 0.25196850393700787,
                    "duration": 0.5221929999999873
                },
                {
                    "name": "A#2",
                    "midi": 46,
                    "time": 198.95553299999878,
                    "velocity": 0.1968503937007874,
                    "duration": 0.5221929999999873
                },
                {
                    "name": "D#3",
                    "midi": 51,
                    "time": 199.47772599999877,
                    "velocity": 0.2204724409448819,
                    "duration": 0.5221929999999873
                },
                {
                    "name": "C#4",
                    "midi": 61,
                    "time": 199.99991899999875,
                    "velocity": 0.2047244094488189,
                    "duration": 0.5221929999999873
                },
                {
                    "name": "A#1",
                    "midi": 34,
                    "time": 200.52211199999874,
                    "velocity": 0.28346456692913385,
                    "duration": 0.5221929999999873
                },
                {
                    "name": "A#2",
                    "midi": 46,
                    "time": 201.04430499999873,
                    "velocity": 0.2440944881889764,
                    "duration": 0.5221929999999873
                },
                {
                    "name": "E3",
                    "midi": 52,
                    "time": 201.56649799999872,
                    "velocity": 0.2440944881889764,
                    "duration": 0.5221929999999873
                },
                {
                    "name": "C#4",
                    "midi": 61,
                    "time": 202.0886909999987,
                    "velocity": 0.25984251968503935,
                    "duration": 0.5221929999999873
                },
                {
                    "name": "A#1",
                    "midi": 34,
                    "time": 202.6108839999987,
                    "velocity": 0.30708661417322836,
                    "duration": 0.5221929999999873
                },
                {
                    "name": "A#2",
                    "midi": 46,
                    "time": 203.13307699999868,
                    "velocity": 0.25984251968503935,
                    "duration": 0.5221929999999873
                },
                {
                    "name": "E3",
                    "midi": 52,
                    "time": 203.65526999999867,
                    "velocity": 0.25984251968503935,
                    "duration": 0.5221929999999873
                },
                {
                    "name": "C#4",
                    "midi": 61,
                    "time": 204.17746299999865,
                    "velocity": 0.2677165354330709,
                    "duration": 0.5221929999999873
                },
                {
                    "name": "C2",
                    "midi": 36,
                    "time": 204.69965599999864,
                    "velocity": 0.31496062992125984,
                    "duration": 0.5221930000000157
                },
                {
                    "name": "C3",
                    "midi": 48,
                    "time": 205.22184899999866,
                    "velocity": 0.25984251968503935,
                    "duration": 0.5221929999999873
                },
                {
                    "name": "F#3",
                    "midi": 54,
                    "time": 205.74404199999864,
                    "velocity": 0.2440944881889764,
                    "duration": 0.5221929999999873
                },
                {
                    "name": "D#4",
                    "midi": 63,
                    "time": 206.26623499999863,
                    "velocity": 0.2204724409448819,
                    "duration": 0.5221929999999873
                },
                {
                    "name": "C2",
                    "midi": 36,
                    "time": 206.78842799999862,
                    "velocity": 0.29133858267716534,
                    "duration": 0.5221929999999873
                },
                {
                    "name": "C3",
                    "midi": 48,
                    "time": 207.3106209999986,
                    "velocity": 0.23622047244094488,
                    "duration": 0.5221929999999873
                },
                {
                    "name": "D#3",
                    "midi": 51,
                    "time": 207.8328139999986,
                    "velocity": 0.25984251968503935,
                    "duration": 0.5221929999999873
                },
                {
                    "name": "D#4",
                    "midi": 63,
                    "time": 208.35500699999858,
                    "velocity": 0.23622047244094488,
                    "duration": 0.5221929999999873
                },
                {
                    "name": "C#2",
                    "midi": 37,
                    "time": 208.87719999999857,
                    "velocity": 0.29133858267716534,
                    "duration": 0.5221929999999873
                },
                {
                    "name": "C#3",
                    "midi": 49,
                    "time": 209.39939299999855,
                    "velocity": 0.2440944881889764,
                    "duration": 0.5221929999999873
                },
                {
                    "name": "A#3",
                    "midi": 58,
                    "time": 209.92158599999854,
                    "velocity": 0.2677165354330709,
                    "duration": 0.5221929999999873
                },
                {
                    "name": "F4",
                    "midi": 65,
                    "time": 210.44377899999853,
                    "velocity": 0.25196850393700787,
                    "duration": 0.5221929999999873
                },
                {
                    "name": "C#2",
                    "midi": 37,
                    "time": 210.96597199999852,
                    "velocity": 0.29133858267716534,
                    "duration": 0.5221929999999873
                },
                {
                    "name": "C#3",
                    "midi": 49,
                    "time": 211.4881649999985,
                    "velocity": 0.25984251968503935,
                    "duration": 0.5221929999999873
                },
                {
                    "name": "A#3",
                    "midi": 58,
                    "time": 212.0103579999985,
                    "velocity": 0.25984251968503935,
                    "duration": 0.5221929999999873
                },
                {
                    "name": "F4",
                    "midi": 65,
                    "time": 212.53255099999848,
                    "velocity": 0.2677165354330709,
                    "duration": 0.5221929999999873
                },
                {
                    "name": "D#2",
                    "midi": 39,
                    "time": 213.05474399999846,
                    "velocity": 0.31496062992125984,
                    "duration": 0.5221929999999873
                },
                {
                    "name": "D#3",
                    "midi": 51,
                    "time": 213.57693699999845,
                    "velocity": 0.2755905511811024,
                    "duration": 0.5221929999999873
                },
                {
                    "name": "A#3",
                    "midi": 58,
                    "time": 214.09912999999844,
                    "velocity": 0.29133858267716534,
                    "duration": 0.5221929999999873
                },
                {
                    "name": "F#4",
                    "midi": 66,
                    "time": 214.62132299999843,
                    "velocity": 0.25984251968503935,
                    "duration": 0.5221929999999873
                },
                {
                    "name": "F2",
                    "midi": 41,
                    "time": 215.1435159999984,
                    "velocity": 0.3228346456692913,
                    "duration": 0.5221930000000157
                },
                {
                    "name": "F3",
                    "midi": 53,
                    "time": 215.66570899999843,
                    "velocity": 0.2755905511811024,
                    "duration": 0.5221929999999873
                },
                {
                    "name": "A#3",
                    "midi": 58,
                    "time": 216.18790199999842,
                    "velocity": 0.29133858267716534,
                    "duration": 0.5221929999999873
                },
                {
                    "name": "F4",
                    "midi": 65,
                    "time": 216.7100949999984,
                    "velocity": 0.2755905511811024,
                    "duration": 0.5221929999999873
                },
                {
                    "name": "F#2",
                    "midi": 42,
                    "time": 217.2322879999984,
                    "velocity": 0.31496062992125984,
                    "duration": 0.5221930000000157
                },
                {
                    "name": "D#3",
                    "midi": 51,
                    "time": 217.7544809999984,
                    "velocity": 0.2677165354330709,
                    "duration": 0.5221929999999873
                },
                {
                    "name": "A#3",
                    "midi": 58,
                    "time": 218.2766739999984,
                    "velocity": 0.29133858267716534,
                    "duration": 0.5221929999999873
                },
                {
                    "name": "D#4",
                    "midi": 63,
                    "time": 218.79886699999838,
                    "velocity": 0.25984251968503935,
                    "duration": 0.5221929999999873
                },
                {
                    "name": "F#2",
                    "midi": 42,
                    "time": 219.32105999999837,
                    "velocity": 0.2992125984251969,
                    "duration": 0.5221930000000157
                },
                {
                    "name": "F#3",
                    "midi": 54,
                    "time": 219.84325299999838,
                    "velocity": 0.2677165354330709,
                    "duration": 0.5221929999999873
                },
                {
                    "name": "A#3",
                    "midi": 58,
                    "time": 220.36544599999837,
                    "velocity": 0.29133858267716534,
                    "duration": 0.5221929999999873
                },
                {
                    "name": "E4",
                    "midi": 64,
                    "time": 220.88763899999836,
                    "velocity": 0.2677165354330709,
                    "duration": 0.5221929999999873
                },
                {
                    "name": "F2",
                    "midi": 41,
                    "time": 221.40983199999835,
                    "velocity": 0.28346456692913385,
                    "duration": 0.5221929999999873
                },
                {
                    "name": "C3",
                    "midi": 48,
                    "time": 221.93202499999833,
                    "velocity": 0.25196850393700787,
                    "duration": 0.5221929999999873
                },
                {
                    "name": "A3",
                    "midi": 57,
                    "time": 222.45421799999832,
                    "velocity": 0.25196850393700787,
                    "duration": 0.5221929999999873
                },
                {
                    "name": "F4",
                    "midi": 65,
                    "time": 222.9764109999983,
                    "velocity": 0.2440944881889764,
                    "duration": 0.5221929999999873
                },
                {
                    "name": "D#2",
                    "midi": 39,
                    "time": 223.4986039999983,
                    "velocity": 0.2755905511811024,
                    "duration": 0.5221929999999873
                },
                {
                    "name": "D#3",
                    "midi": 51,
                    "time": 224.02079699999828,
                    "velocity": 0.25984251968503935,
                    "duration": 0.5221929999999873
                },
                {
                    "name": "G#3",
                    "midi": 56,
                    "time": 224.54298999999827,
                    "velocity": 0.2125984251968504,
                    "duration": 0.5221929999999873
                },
                {
                    "name": "F#4",
                    "midi": 66,
                    "time": 225.06518299999826,
                    "velocity": 0.2047244094488189,
                    "duration": 0.5221929999999873
                },
                {
                    "name": "C4",
                    "midi": 60,
                    "time": 225.06518299999826,
                    "velocity": 0.18110236220472442,
                    "duration": 0.5221929999999873
                },
                {
                    "name": "C#2",
                    "midi": 37,
                    "time": 225.58737599999824,
                    "velocity": 0.25984251968503935,
                    "duration": 0.5221930000000157
                },
                {
                    "name": "G#2",
                    "midi": 44,
                    "time": 226.10956899999826,
                    "velocity": 0.2125984251968504,
                    "duration": 0.5221929999999873
                },
                {
                    "name": "F3",
                    "midi": 53,
                    "time": 226.63176199999825,
                    "velocity": 0.2125984251968504,
                    "duration": 0.5221929999999873
                },
                {
                    "name": "C#4",
                    "midi": 61,
                    "time": 227.15395499999823,
                    "velocity": 0.2204724409448819,
                    "duration": 0.5221929999999873
                },
                {
                    "name": "C#2",
                    "midi": 37,
                    "time": 227.67614799999822,
                    "velocity": 0.25984251968503935,
                    "duration": 0.5221929999999873
                },
                {
                    "name": "G#2",
                    "midi": 44,
                    "time": 228.1983409999982,
                    "velocity": 0.2125984251968504,
                    "duration": 0.5221929999999873
                },
                {
                    "name": "F3",
                    "midi": 53,
                    "time": 228.7205339999982,
                    "velocity": 0.2125984251968504,
                    "duration": 0.5221929999999873
                },
                {
                    "name": "C#4",
                    "midi": 61,
                    "time": 229.24272699999818,
                    "velocity": 0.2204724409448819,
                    "duration": 0.5221929999999873
                },
                {
                    "name": "D#2",
                    "midi": 39,
                    "time": 229.76491999999817,
                    "velocity": 0.25984251968503935,
                    "duration": 0.5221930000000157
                },
                {
                    "name": "G#2",
                    "midi": 44,
                    "time": 230.2871129999982,
                    "velocity": 0.2125984251968504,
                    "duration": 0.5221929999999873
                },
                {
                    "name": "F#3",
                    "midi": 54,
                    "time": 230.80930599999817,
                    "velocity": 0.1889763779527559,
                    "duration": 0.5221929999999873
                },
                {
                    "name": "C4",
                    "midi": 60,
                    "time": 231.33149899999816,
                    "velocity": 0.1889763779527559,
                    "duration": 0.5221929999999873
                },
                {
                    "name": "D#2",
                    "midi": 39,
                    "time": 231.85369199999815,
                    "velocity": 0.2440944881889764,
                    "duration": 0.5221929999999873
                },
                {
                    "name": "G#2",
                    "midi": 44,
                    "time": 232.37588499999814,
                    "velocity": 0.1889763779527559,
                    "duration": 0.5221929999999873
                },
                {
                    "name": "F#3",
                    "midi": 54,
                    "time": 232.89807799999812,
                    "velocity": 0.2125984251968504,
                    "duration": 0.5221929999999873
                },
                {
                    "name": "C4",
                    "midi": 60,
                    "time": 233.4202709999981,
                    "velocity": 0.1968503937007874,
                    "duration": 0.5221929999999873
                },
                {
                    "name": "G#1",
                    "midi": 32,
                    "time": 233.9424639999981,
                    "velocity": 0.25984251968503935,
                    "duration": 0.5221929999999873
                },
                {
                    "name": "G#2",
                    "midi": 44,
                    "time": 234.46465699999808,
                    "velocity": 0.2283464566929134,
                    "duration": 0.5221929999999873
                },
                {
                    "name": "F#3",
                    "midi": 54,
                    "time": 234.98684999999807,
                    "velocity": 0.2283464566929134,
                    "duration": 0.5221929999999873
                },
                {
                    "name": "C4",
                    "midi": 60,
                    "time": 235.50904299999806,
                    "velocity": 0.23622047244094488,
                    "duration": 0.5221929999999873
                },
                {
                    "name": "G#1",
                    "midi": 32,
                    "time": 236.03123599999805,
                    "velocity": 0.28346456692913385,
                    "duration": 0.5221929999999873
                },
                {
                    "name": "G#2",
                    "midi": 44,
                    "time": 236.55342899999803,
                    "velocity": 0.23622047244094488,
                    "duration": 0.5221929999999873
                },
                {
                    "name": "F#3",
                    "midi": 54,
                    "time": 237.07562199999802,
                    "velocity": 0.23622047244094488,
                    "duration": 0.5221929999999873
                },
                {
                    "name": "C4",
                    "midi": 60,
                    "time": 237.597814999998,
                    "velocity": 0.2440944881889764,
                    "duration": 0.5221929999999873
                },
                {
                    "name": "C#2",
                    "midi": 37,
                    "time": 238.120007999998,
                    "velocity": 0.28346456692913385,
                    "duration": 0.5221929999999873
                },
                {
                    "name": "G#2",
                    "midi": 44,
                    "time": 238.64220099999798,
                    "velocity": 0.23622047244094488,
                    "duration": 0.5221929999999873
                },
                {
                    "name": "F3",
                    "midi": 53,
                    "time": 239.16439399999797,
                    "velocity": 0.2204724409448819,
                    "duration": 0.5221929999999873
                },
                {
                    "name": "C#4",
                    "midi": 61,
                    "time": 239.68658699999796,
                    "velocity": 0.1968503937007874,
                    "duration": 0.5221929999999873
                },
                {
                    "name": "C#2",
                    "midi": 37,
                    "time": 240.20877999999794,
                    "velocity": 0.25984251968503935,
                    "duration": 0.5221929999999873
                },
                {
                    "name": "G#2",
                    "midi": 44,
                    "time": 240.73097299999793,
                    "velocity": 0.2125984251968504,
                    "duration": 0.5221929999999873
                },
                {
                    "name": "F3",
                    "midi": 53,
                    "time": 241.25316599999792,
                    "velocity": 0.2283464566929134,
                    "duration": 0.5221929999999873
                },
                {
                    "name": "C#4",
                    "midi": 61,
                    "time": 241.7753589999979,
                    "velocity": 0.2125984251968504,
                    "duration": 0.5221929999999873
                },
                {
                    "name": "C#2",
                    "midi": 37,
                    "time": 242.2975519999979,
                    "velocity": 0.25984251968503935,
                    "duration": 0.5221929999999873
                },
                {
                    "name": "G#2",
                    "midi": 44,
                    "time": 242.81974499999788,
                    "velocity": 0.2125984251968504,
                    "duration": 0.5221929999999873
                },
                {
                    "name": "F3",
                    "midi": 53,
                    "time": 243.34193799999787,
                    "velocity": 0.23622047244094488,
                    "duration": 0.5221929999999873
                },
                {
                    "name": "C#4",
                    "midi": 61,
                    "time": 243.86413099999785,
                    "velocity": 0.2204724409448819,
                    "duration": 0.5221929999999873
                },
                {
                    "name": "A#1",
                    "midi": 34,
                    "time": 244.38632399999784,
                    "velocity": 0.25984251968503935,
                    "duration": 0.5221929999999873
                },
                {
                    "name": "A#2",
                    "midi": 46,
                    "time": 244.90851699999783,
                    "velocity": 0.2283464566929134,
                    "duration": 0.5221929999999873
                },
                {
                    "name": "G#3",
                    "midi": 56,
                    "time": 245.43070999999782,
                    "velocity": 0.2283464566929134,
                    "duration": 0.5221929999999873
                },
                {
                    "name": "D4",
                    "midi": 62,
                    "time": 245.9529029999978,
                    "velocity": 0.23622047244094488,
                    "duration": 0.5221929999999873
                },
                {
                    "name": "D#2",
                    "midi": 39,
                    "time": 246.4750959999978,
                    "velocity": 0.25984251968503935,
                    "duration": 0.5221930000000157
                },
                {
                    "name": "A#2",
                    "midi": 46,
                    "time": 246.9972889999978,
                    "velocity": 0.23622047244094488,
                    "duration": 0.5221929999999873
                },
                {
                    "name": "F#3",
                    "midi": 54,
                    "time": 247.5194819999978,
                    "velocity": 0.23622047244094488,
                    "duration": 0.5221929999999873
                },
                {
                    "name": "D#4",
                    "midi": 63,
                    "time": 248.04167499999778,
                    "velocity": 0.2125984251968504,
                    "duration": 0.5221929999999873
                },
                {
                    "name": "F#2",
                    "midi": 42,
                    "time": 248.56386799999777,
                    "velocity": 0.25984251968503935,
                    "duration": 0.5221929999999873
                },
                {
                    "name": "D#3",
                    "midi": 51,
                    "time": 249.08606099999776,
                    "velocity": 0.2283464566929134,
                    "duration": 0.5221929999999873
                },
                {
                    "name": "A#3",
                    "midi": 58,
                    "time": 249.60825399999774,
                    "velocity": 0.23622047244094488,
                    "duration": 0.5221929999999873
                },
                {
                    "name": "D#4",
                    "midi": 63,
                    "time": 250.13044699999773,
                    "velocity": 0.2125984251968504,
                    "duration": 0.26109650000000784
                },
                {
                    "name": "G2",
                    "midi": 43,
                    "time": 250.65263999999775,
                    "velocity": 0.25984251968503935,
                    "duration": 0.5221929999999873
                },
                {
                    "name": "E3",
                    "midi": 52,
                    "time": 251.17483299999773,
                    "velocity": 0.2204724409448819,
                    "duration": 0.5221929999999873
                },
                {
                    "name": "C#4",
                    "midi": 61,
                    "time": 251.69702599999772,
                    "velocity": 0.2204724409448819,
                    "duration": 0.5221929999999873
                },
                {
                    "name": "A#4",
                    "midi": 70,
                    "time": 252.2192189999977,
                    "velocity": 0.2283464566929134,
                    "duration": 0.5221929999999873
                },
                {
                    "name": "G#2",
                    "midi": 44,
                    "time": 252.7414119999977,
                    "velocity": 0.25984251968503935,
                    "duration": 0.5221930000000157
                },
                {
                    "name": "D#3",
                    "midi": 51,
                    "time": 253.2636049999977,
                    "velocity": 0.2204724409448819,
                    "duration": 0.5221929999999873
                },
                {
                    "name": "C4",
                    "midi": 60,
                    "time": 253.7857979999977,
                    "velocity": 0.23622047244094488,
                    "duration": 0.5221929999999873
                },
                {
                    "name": "F#4",
                    "midi": 66,
                    "time": 254.30799099999768,
                    "velocity": 0.23622047244094488,
                    "duration": 0.5221929999999873
                },
                {
                    "name": "G#1",
                    "midi": 32,
                    "time": 254.83018399999767,
                    "velocity": 0.25984251968503935,
                    "duration": 0.5221929999999873
                },
                {
                    "name": "G#2",
                    "midi": 44,
                    "time": 255.35237699999766,
                    "velocity": 0.2125984251968504,
                    "duration": 0.5221929999999873
                },
                {
                    "name": "F#3",
                    "midi": 54,
                    "time": 255.87456999999765,
                    "velocity": 0.2125984251968504,
                    "duration": 0.5221929999999873
                },
                {
                    "name": "C4",
                    "midi": 60,
                    "time": 256.39676299999763,
                    "velocity": 0.2047244094488189,
                    "duration": 0.5221930000000157
                },
                {
                    "name": "C#2",
                    "midi": 37,
                    "time": 256.91895599999765,
                    "velocity": 0.2125984251968504,
                    "duration": 0.5221929999999588
                },
                {
                    "name": "G#2",
                    "midi": 44,
                    "time": 257.4411489999976,
                    "velocity": 0.1968503937007874,
                    "duration": 0.5221930000000157
                },
                {
                    "name": "F3",
                    "midi": 53,
                    "time": 257.9633419999976,
                    "velocity": 0.1968503937007874,
                    "duration": 0.5221930000000157
                },
                {
                    "name": "C#4",
                    "midi": 61,
                    "time": 258.48553499999764,
                    "velocity": 0.1968503937007874,
                    "duration": 0.5221930000000157
                },
                {
                    "name": "G#1",
                    "midi": 32,
                    "time": 259.00772799999766,
                    "velocity": 0.2677165354330709,
                    "duration": 0.5221929999999588
                },
                {
                    "name": "G#2",
                    "midi": 44,
                    "time": 259.5299209999976,
                    "velocity": 0.2204724409448819,
                    "duration": 0.5221930000000157
                },
                {
                    "name": "D#3",
                    "midi": 51,
                    "time": 260.05211399999763,
                    "velocity": 0.2204724409448819,
                    "duration": 0.5221930000000157
                },
                {
                    "name": "C4",
                    "midi": 60,
                    "time": 260.57430699999765,
                    "velocity": 0.2283464566929134,
                    "duration": 0.5221930000000157
                },
                {
                    "name": "G#1",
                    "midi": 32,
                    "time": 261.09649999999766,
                    "velocity": 0.2677165354330709,
                    "duration": 0.5221930000000157
                },
                {
                    "name": "G#2",
                    "midi": 44,
                    "time": 261.6186929999977,
                    "velocity": 0.2204724409448819,
                    "duration": 0.5221930000000157
                },
                {
                    "name": "D#3",
                    "midi": 51,
                    "time": 262.1408859999977,
                    "velocity": 0.2204724409448819,
                    "duration": 0.5221930000000157
                },
                {
                    "name": "C4",
                    "midi": 60,
                    "time": 262.6630789999977,
                    "velocity": 0.2283464566929134,
                    "duration": 0.5221930000000157
                },
                {
                    "name": "A#1",
                    "midi": 34,
                    "time": 263.1852719999977,
                    "velocity": 0.2677165354330709,
                    "duration": 0.5221930000000157
                },
                {
                    "name": "A#2",
                    "midi": 46,
                    "time": 263.70746499999774,
                    "velocity": 0.2204724409448819,
                    "duration": 0.5221930000000157
                },
                {
                    "name": "D#3",
                    "midi": 51,
                    "time": 264.22965799999776,
                    "velocity": 0.1968503937007874,
                    "duration": 0.5221930000000157
                },
                {
                    "name": "C#4",
                    "midi": 61,
                    "time": 264.75185099999777,
                    "velocity": 0.1968503937007874,
                    "duration": 0.5221930000000157
                },
                {
                    "name": "A#1",
                    "midi": 34,
                    "time": 265.2740439999978,
                    "velocity": 0.25196850393700787,
                    "duration": 0.5221930000000157
                },
                {
                    "name": "A#2",
                    "midi": 46,
                    "time": 265.7962369999978,
                    "velocity": 0.1968503937007874,
                    "duration": 0.5221930000000157
                },
                {
                    "name": "D#3",
                    "midi": 51,
                    "time": 266.3184299999978,
                    "velocity": 0.2204724409448819,
                    "duration": 0.5221930000000157
                },
                {
                    "name": "C#4",
                    "midi": 61,
                    "time": 266.84062299999783,
                    "velocity": 0.2047244094488189,
                    "duration": 0.5221930000000157
                },
                {
                    "name": "A#1",
                    "midi": 34,
                    "time": 267.36281599999785,
                    "velocity": 0.28346456692913385,
                    "duration": 0.5221930000000157
                },
                {
                    "name": "A#2",
                    "midi": 46,
                    "time": 267.88500899999786,
                    "velocity": 0.2440944881889764,
                    "duration": 0.5221930000000157
                },
                {
                    "name": "E3",
                    "midi": 52,
                    "time": 268.4072019999979,
                    "velocity": 0.2440944881889764,
                    "duration": 0.5221930000000157
                },
                {
                    "name": "C#4",
                    "midi": 61,
                    "time": 268.9293949999979,
                    "velocity": 0.25984251968503935,
                    "duration": 0.5221930000000157
                },
                {
                    "name": "A#1",
                    "midi": 34,
                    "time": 269.4515879999979,
                    "velocity": 0.30708661417322836,
                    "duration": 0.5221930000000157
                },
                {
                    "name": "A#2",
                    "midi": 46,
                    "time": 269.9737809999979,
                    "velocity": 0.25984251968503935,
                    "duration": 0.5221930000000157
                },
                {
                    "name": "E3",
                    "midi": 52,
                    "time": 270.49597399999794,
                    "velocity": 0.25984251968503935,
                    "duration": 0.5221930000000157
                },
                {
                    "name": "C#4",
                    "midi": 61,
                    "time": 271.01816699999796,
                    "velocity": 0.2677165354330709,
                    "duration": 0.5221930000000157
                },
                {
                    "name": "C2",
                    "midi": 36,
                    "time": 271.540359999998,
                    "velocity": 0.31496062992125984,
                    "duration": 0.5221929999999588
                },
                {
                    "name": "C3",
                    "midi": 48,
                    "time": 272.06255299999793,
                    "velocity": 0.25984251968503935,
                    "duration": 0.5221930000000157
                },
                {
                    "name": "F#3",
                    "midi": 54,
                    "time": 272.58474599999795,
                    "velocity": 0.2440944881889764,
                    "duration": 0.5221930000000157
                },
                {
                    "name": "D#4",
                    "midi": 63,
                    "time": 273.10693899999796,
                    "velocity": 0.2204724409448819,
                    "duration": 0.5221930000000157
                },
                {
                    "name": "C2",
                    "midi": 36,
                    "time": 273.629131999998,
                    "velocity": 0.29133858267716534,
                    "duration": 0.5221929999999588
                },
                {
                    "name": "C3",
                    "midi": 48,
                    "time": 274.15132499999794,
                    "velocity": 0.23622047244094488,
                    "duration": 0.5221930000000157
                },
                {
                    "name": "D#3",
                    "midi": 51,
                    "time": 274.67351799999796,
                    "velocity": 0.25984251968503935,
                    "duration": 0.5221930000000157
                },
                {
                    "name": "D#4",
                    "midi": 63,
                    "time": 275.19571099999797,
                    "velocity": 0.23622047244094488,
                    "duration": 0.5221930000000157
                },
                {
                    "name": "C#2",
                    "midi": 37,
                    "time": 275.717903999998,
                    "velocity": 0.29133858267716534,
                    "duration": 0.5221930000000157
                },
                {
                    "name": "C#3",
                    "midi": 49,
                    "time": 276.240096999998,
                    "velocity": 0.2440944881889764,
                    "duration": 0.5221930000000157
                },
                {
                    "name": "A#3",
                    "midi": 58,
                    "time": 276.762289999998,
                    "velocity": 0.2677165354330709,
                    "duration": 0.5221930000000157
                },
                {
                    "name": "F4",
                    "midi": 65,
                    "time": 277.28448299999803,
                    "velocity": 0.25196850393700787,
                    "duration": 0.5221930000000157
                },
                {
                    "name": "C#2",
                    "midi": 37,
                    "time": 277.80667599999805,
                    "velocity": 0.29133858267716534,
                    "duration": 0.5221930000000157
                },
                {
                    "name": "C#3",
                    "midi": 49,
                    "time": 278.32886899999806,
                    "velocity": 0.25984251968503935,
                    "duration": 0.5221930000000157
                },
                {
                    "name": "A#3",
                    "midi": 58,
                    "time": 278.8510619999981,
                    "velocity": 0.25984251968503935,
                    "duration": 0.5221930000000157
                },
                {
                    "name": "F4",
                    "midi": 65,
                    "time": 279.3732549999981,
                    "velocity": 0.2677165354330709,
                    "duration": 0.5221930000000157
                },
                {
                    "name": "D#2",
                    "midi": 39,
                    "time": 279.8954479999981,
                    "velocity": 0.31496062992125984,
                    "duration": 0.5221930000000157
                },
                {
                    "name": "D#3",
                    "midi": 51,
                    "time": 280.4176409999981,
                    "velocity": 0.2755905511811024,
                    "duration": 0.5221930000000157
                },
                {
                    "name": "A#3",
                    "midi": 58,
                    "time": 280.93983399999814,
                    "velocity": 0.29133858267716534,
                    "duration": 0.5221930000000157
                },
                {
                    "name": "F#4",
                    "midi": 66,
                    "time": 281.46202699999816,
                    "velocity": 0.25984251968503935,
                    "duration": 0.5221930000000157
                },
                {
                    "name": "F2",
                    "midi": 41,
                    "time": 281.9842199999982,
                    "velocity": 0.3228346456692913,
                    "duration": 0.5221930000000157
                },
                {
                    "name": "F3",
                    "midi": 53,
                    "time": 282.5064129999982,
                    "velocity": 0.2755905511811024,
                    "duration": 0.5221930000000157
                },
                {
                    "name": "A#3",
                    "midi": 58,
                    "time": 283.0286059999982,
                    "velocity": 0.29133858267716534,
                    "duration": 0.5221930000000157
                },
                {
                    "name": "F4",
                    "midi": 65,
                    "time": 283.5507989999982,
                    "velocity": 0.2755905511811024,
                    "duration": 0.5221930000000157
                },
                {
                    "name": "F#2",
                    "midi": 42,
                    "time": 284.07299199999824,
                    "velocity": 0.31496062992125984,
                    "duration": 0.5221930000000157
                },
                {
                    "name": "D#3",
                    "midi": 51,
                    "time": 284.59518499999825,
                    "velocity": 0.2677165354330709,
                    "duration": 0.5221930000000157
                },
                {
                    "name": "A#3",
                    "midi": 58,
                    "time": 285.11737799999827,
                    "velocity": 0.29133858267716534,
                    "duration": 0.5221930000000157
                },
                {
                    "name": "D#4",
                    "midi": 63,
                    "time": 285.6395709999983,
                    "velocity": 0.25984251968503935,
                    "duration": 0.5221930000000157
                },
                {
                    "name": "F#2",
                    "midi": 42,
                    "time": 286.1617639999983,
                    "velocity": 0.2992125984251969,
                    "duration": 0.5221930000000157
                },
                {
                    "name": "F#3",
                    "midi": 54,
                    "time": 286.6839569999983,
                    "velocity": 0.2677165354330709,
                    "duration": 0.5221930000000157
                },
                {
                    "name": "A#3",
                    "midi": 58,
                    "time": 287.20614999999833,
                    "velocity": 0.29133858267716534,
                    "duration": 0.5221930000000157
                },
                {
                    "name": "E4",
                    "midi": 64,
                    "time": 287.72834299999835,
                    "velocity": 0.2677165354330709,
                    "duration": 0.5221930000000157
                },
                {
                    "name": "F2",
                    "midi": 41,
                    "time": 288.25053599999836,
                    "velocity": 0.28346456692913385,
                    "duration": 0.5221930000000725
                },
                {
                    "name": "C3",
                    "midi": 48,
                    "time": 288.77272899999844,
                    "velocity": 0.25196850393700787,
                    "duration": 0.5221930000000157
                },
                {
                    "name": "A3",
                    "midi": 57,
                    "time": 289.29492199999845,
                    "velocity": 0.25196850393700787,
                    "duration": 0.5221930000000157
                },
                {
                    "name": "F4",
                    "midi": 65,
                    "time": 289.81711499999847,
                    "velocity": 0.2440944881889764,
                    "duration": 0.5221930000000157
                },
                {
                    "name": "D#2",
                    "midi": 39,
                    "time": 290.3393079999985,
                    "velocity": 0.2755905511811024,
                    "duration": 0.5221929999999588
                },
                {
                    "name": "D#3",
                    "midi": 51,
                    "time": 290.86150099999844,
                    "velocity": 0.25984251968503935,
                    "duration": 0.5221930000000157
                },
                {
                    "name": "G#3",
                    "midi": 56,
                    "time": 291.38369399999846,
                    "velocity": 0.2125984251968504,
                    "duration": 0.5221930000000157
                },
                {
                    "name": "F#4",
                    "midi": 66,
                    "time": 291.9058869999985,
                    "velocity": 0.2047244094488189,
                    "duration": 0.5221930000000157
                },
                {
                    "name": "C4",
                    "midi": 60,
                    "time": 291.9058869999985,
                    "velocity": 0.1732283464566929,
                    "duration": 0.5221930000000157
                },
                {
                    "name": "C#2",
                    "midi": 37,
                    "time": 292.4280799999985,
                    "velocity": 0.25984251968503935,
                    "duration": 0.5221929999999588
                },
                {
                    "name": "G#2",
                    "midi": 44,
                    "time": 292.95027299999845,
                    "velocity": 0.2125984251968504,
                    "duration": 0.5221930000000157
                },
                {
                    "name": "F3",
                    "midi": 53,
                    "time": 293.47246599999846,
                    "velocity": 0.2125984251968504,
                    "duration": 0.5221930000000157
                },
                {
                    "name": "C#4",
                    "midi": 61,
                    "time": 293.9946589999985,
                    "velocity": 0.2204724409448819,
                    "duration": 0.5221930000000157
                },
                {
                    "name": "C#2",
                    "midi": 37,
                    "time": 294.5168519999985,
                    "velocity": 0.25984251968503935,
                    "duration": 0.5221930000000157
                },
                {
                    "name": "G#2",
                    "midi": 44,
                    "time": 295.0390449999985,
                    "velocity": 0.2125984251968504,
                    "duration": 0.5221930000000157
                },
                {
                    "name": "F3",
                    "midi": 53,
                    "time": 295.5612379999985,
                    "velocity": 0.2125984251968504,
                    "duration": 0.5221930000000157
                },
                {
                    "name": "C#4",
                    "midi": 61,
                    "time": 296.08343099999854,
                    "velocity": 0.2204724409448819,
                    "duration": 0.5221930000000157
                },
                {
                    "name": "D#2",
                    "midi": 39,
                    "time": 296.60562399999856,
                    "velocity": 0.25984251968503935,
                    "duration": 0.5221930000000157
                },
                {
                    "name": "G#2",
                    "midi": 44,
                    "time": 297.1278169999986,
                    "velocity": 0.2125984251968504,
                    "duration": 0.5221930000000157
                },
                {
                    "name": "F#3",
                    "midi": 54,
                    "time": 297.6500099999986,
                    "velocity": 0.1889763779527559,
                    "duration": 0.5221930000000157
                },
                {
                    "name": "C4",
                    "midi": 60,
                    "time": 298.1722029999986,
                    "velocity": 0.1889763779527559,
                    "duration": 0.5221930000000157
                },
                {
                    "name": "D#2",
                    "midi": 39,
                    "time": 298.6943959999986,
                    "velocity": 0.2440944881889764,
                    "duration": 0.5221930000000157
                },
                {
                    "name": "G#2",
                    "midi": 44,
                    "time": 299.21658899999863,
                    "velocity": 0.1889763779527559,
                    "duration": 0.5221930000000157
                },
                {
                    "name": "F#3",
                    "midi": 54,
                    "time": 299.73878199999865,
                    "velocity": 0.2125984251968504,
                    "duration": 0.5221930000000157
                },
                {
                    "name": "C4",
                    "midi": 60,
                    "time": 300.26097499999867,
                    "velocity": 0.1968503937007874,
                    "duration": 0.5221930000000157
                },
                {
                    "name": "G#1",
                    "midi": 32,
                    "time": 300.7831679999987,
                    "velocity": 0.25984251968503935,
                    "duration": 0.5221930000000157
                },
                {
                    "name": "G#2",
                    "midi": 44,
                    "time": 301.3053609999987,
                    "velocity": 0.2283464566929134,
                    "duration": 0.5221930000000157
                },
                {
                    "name": "F#3",
                    "midi": 54,
                    "time": 301.8275539999987,
                    "velocity": 0.2283464566929134,
                    "duration": 0.5221930000000157
                },
                {
                    "name": "C4",
                    "midi": 60,
                    "time": 302.34974699999873,
                    "velocity": 0.23622047244094488,
                    "duration": 0.5221930000000157
                },
                {
                    "name": "G#1",
                    "midi": 32,
                    "time": 302.87193999999874,
                    "velocity": 0.28346456692913385,
                    "duration": 0.5221930000000157
                },
                {
                    "name": "G#2",
                    "midi": 44,
                    "time": 303.39413299999876,
                    "velocity": 0.23622047244094488,
                    "duration": 0.5221930000000157
                },
                {
                    "name": "F#3",
                    "midi": 54,
                    "time": 303.9163259999988,
                    "velocity": 0.23622047244094488,
                    "duration": 0.5221930000000157
                },
                {
                    "name": "C4",
                    "midi": 60,
                    "time": 304.4385189999988,
                    "velocity": 0.2440944881889764,
                    "duration": 0.5221930000000157
                },
                {
                    "name": "C#2",
                    "midi": 37,
                    "time": 304.9607119999988,
                    "velocity": 0.28346456692913385,
                    "duration": 0.5221929999999588
                },
                {
                    "name": "G#2",
                    "midi": 44,
                    "time": 305.48290499999877,
                    "velocity": 0.23622047244094488,
                    "duration": 0.5221930000000157
                },
                {
                    "name": "F3",
                    "midi": 53,
                    "time": 306.0050979999988,
                    "velocity": 0.2204724409448819,
                    "duration": 0.5221930000000157
                },
                {
                    "name": "C#4",
                    "midi": 61,
                    "time": 306.5272909999988,
                    "velocity": 0.1968503937007874,
                    "duration": 0.5221930000000157
                },
                {
                    "name": "C#2",
                    "midi": 37,
                    "time": 307.0494839999988,
                    "velocity": 0.25984251968503935,
                    "duration": 0.5221930000000157
                },
                {
                    "name": "G#2",
                    "midi": 44,
                    "time": 307.57167699999883,
                    "velocity": 0.2125984251968504,
                    "duration": 0.5221930000000157
                },
                {
                    "name": "F3",
                    "midi": 53,
                    "time": 308.09386999999884,
                    "velocity": 0.2283464566929134,
                    "duration": 0.5221930000000157
                },
                {
                    "name": "C#4",
                    "midi": 61,
                    "time": 308.61606299999886,
                    "velocity": 0.2125984251968504,
                    "duration": 0.5221930000000157
                },
                {
                    "name": "C#2",
                    "midi": 37,
                    "time": 309.1382559999989,
                    "velocity": 0.25984251968503935,
                    "duration": 0.5221930000000157
                },
                {
                    "name": "G#2",
                    "midi": 44,
                    "time": 309.6604489999989,
                    "velocity": 0.2125984251968504,
                    "duration": 0.5221930000000157
                },
                {
                    "name": "F3",
                    "midi": 53,
                    "time": 310.1826419999989,
                    "velocity": 0.23622047244094488,
                    "duration": 0.5221930000000157
                },
                {
                    "name": "C#4",
                    "midi": 61,
                    "time": 310.7048349999989,
                    "velocity": 0.2204724409448819,
                    "duration": 0.5221930000000157
                },
                {
                    "name": "A#1",
                    "midi": 34,
                    "time": 311.22702799999894,
                    "velocity": 0.25984251968503935,
                    "duration": 0.5221930000000157
                },
                {
                    "name": "A#2",
                    "midi": 46,
                    "time": 311.74922099999895,
                    "velocity": 0.2283464566929134,
                    "duration": 0.5221930000000157
                },
                {
                    "name": "G#3",
                    "midi": 56,
                    "time": 312.27141399999897,
                    "velocity": 0.2283464566929134,
                    "duration": 0.5221930000000157
                },
                {
                    "name": "D4",
                    "midi": 62,
                    "time": 312.793606999999,
                    "velocity": 0.23622047244094488,
                    "duration": 0.5221930000000157
                },
                {
                    "name": "D#2",
                    "midi": 39,
                    "time": 313.315799999999,
                    "velocity": 0.25984251968503935,
                    "duration": 0.5221930000000157
                },
                {
                    "name": "A#2",
                    "midi": 46,
                    "time": 313.837992999999,
                    "velocity": 0.23622047244094488,
                    "duration": 0.5221930000000157
                },
                {
                    "name": "F#3",
                    "midi": 54,
                    "time": 314.36018599999903,
                    "velocity": 0.23622047244094488,
                    "duration": 0.5221930000000157
                },
                {
                    "name": "D#4",
                    "midi": 63,
                    "time": 314.88237899999905,
                    "velocity": 0.2125984251968504,
                    "duration": 0.5221930000000157
                },
                {
                    "name": "F#2",
                    "midi": 42,
                    "time": 315.40457199999906,
                    "velocity": 0.25984251968503935,
                    "duration": 0.5221929999999588
                },
                {
                    "name": "D#3",
                    "midi": 51,
                    "time": 315.926764999999,
                    "velocity": 0.2283464566929134,
                    "duration": 0.5221930000000157
                },
                {
                    "name": "A#3",
                    "midi": 58,
                    "time": 316.44895799999904,
                    "velocity": 0.23622047244094488,
                    "duration": 0.5221930000000157
                },
                {
                    "name": "D#4",
                    "midi": 63,
                    "time": 316.97115099999905,
                    "velocity": 0.2125984251968504,
                    "duration": 0.26109650000000784
                },
                {
                    "name": "G2",
                    "midi": 43,
                    "time": 317.49334399999907,
                    "velocity": 0.25984251968503935,
                    "duration": 0.5221930000000157
                },
                {
                    "name": "E3",
                    "midi": 52,
                    "time": 318.0155369999991,
                    "velocity": 0.2204724409448819,
                    "duration": 0.5221930000000157
                },
                {
                    "name": "C#4",
                    "midi": 61,
                    "time": 318.5377299999991,
                    "velocity": 0.2204724409448819,
                    "duration": 0.5221930000000157
                },
                {
                    "name": "A#4",
                    "midi": 70,
                    "time": 319.0599229999991,
                    "velocity": 0.2283464566929134,
                    "duration": 0.5221930000000157
                },
                {
                    "name": "G#2",
                    "midi": 44,
                    "time": 319.58211599999913,
                    "velocity": 0.25984251968503935,
                    "duration": 0.5221930000000157
                },
                {
                    "name": "D#3",
                    "midi": 51,
                    "time": 320.10430899999915,
                    "velocity": 0.2204724409448819,
                    "duration": 0.5221930000000157
                },
                {
                    "name": "C4",
                    "midi": 60,
                    "time": 320.62650199999916,
                    "velocity": 0.23622047244094488,
                    "duration": 0.5221930000000157
                },
                {
                    "name": "F#4",
                    "midi": 66,
                    "time": 321.1486949999992,
                    "velocity": 0.23622047244094488,
                    "duration": 0.5221930000000157
                },
                {
                    "name": "G#1",
                    "midi": 32,
                    "time": 321.6708879999992,
                    "velocity": 0.25984251968503935,
                    "duration": 0.5221929999999588
                },
                {
                    "name": "G#2",
                    "midi": 44,
                    "time": 322.19308099999915,
                    "velocity": 0.2125984251968504,
                    "duration": 0.5221930000000157
                },
                {
                    "name": "F#3",
                    "midi": 54,
                    "time": 322.71527399999917,
                    "velocity": 0.2125984251968504,
                    "duration": 0.5221930000000157
                },
                {
                    "name": "C4",
                    "midi": 60,
                    "time": 323.2374669999992,
                    "velocity": 0.18110236220472442,
                    "duration": 0.5221930000000157
                },
                {
                    "name": "C#3",
                    "midi": 49,
                    "time": 323.7596599999992,
                    "velocity": 0.18110236220472442,
                    "duration": 1.0443859999999745
                },
                {
                    "name": "F3",
                    "midi": 53,
                    "time": 323.7596599999992,
                    "velocity": 0.18110236220472442,
                    "duration": 1.0443859999999745
                },
                {
                    "name": "C#4",
                    "midi": 61,
                    "time": 323.7596599999992,
                    "velocity": 0.2125984251968504,
                    "duration": 1.0443859999999745
                },
                {
                    "name": "A#1",
                    "midi": 34,
                    "time": 325.84843199999915,
                    "velocity": 0.2204724409448819,
                    "duration": 1.0443860000000313
                },
                {
                    "name": "F2",
                    "midi": 41,
                    "time": 325.84843199999915,
                    "velocity": 0.2204724409448819,
                    "duration": 1.0443860000000313
                },
                {
                    "name": "A#2",
                    "midi": 46,
                    "time": 325.84843199999915,
                    "velocity": 0.2677165354330709,
                    "duration": 1.0443860000000313
                },
                {
                    "name": "C#2",
                    "midi": 37,
                    "time": 326.8928179999992,
                    "velocity": 0.1968503937007874,
                    "duration": 1.0443860000000313
                },
                {
                    "name": "F#2",
                    "midi": 42,
                    "time": 326.8928179999992,
                    "velocity": 0.1968503937007874,
                    "duration": 1.0443860000000313
                },
                {
                    "name": "C#3",
                    "midi": 49,
                    "time": 326.8928179999992,
                    "velocity": 0.23622047244094488,
                    "duration": 1.0443860000000313
                },
                {
                    "name": "A#1",
                    "midi": 34,
                    "time": 327.9372039999992,
                    "velocity": 0.2204724409448819,
                    "duration": 1.0443860000000313
                },
                {
                    "name": "F2",
                    "midi": 41,
                    "time": 327.9372039999992,
                    "velocity": 0.2204724409448819,
                    "duration": 1.0443860000000313
                },
                {
                    "name": "A#2",
                    "midi": 46,
                    "time": 327.9372039999992,
                    "velocity": 0.2677165354330709,
                    "duration": 1.0443860000000313
                },
                {
                    "name": "C#2",
                    "midi": 37,
                    "time": 328.98158999999924,
                    "velocity": 0.18110236220472442,
                    "duration": 1.0443859999999745
                },
                {
                    "name": "F#2",
                    "midi": 42,
                    "time": 328.98158999999924,
                    "velocity": 0.18110236220472442,
                    "duration": 1.0443859999999745
                },
                {
                    "name": "C#3",
                    "midi": 49,
                    "time": 328.98158999999924,
                    "velocity": 0.2204724409448819,
                    "duration": 1.0443859999999745
                },
                {
                    "name": "A#1",
                    "midi": 34,
                    "time": 330.0259759999992,
                    "velocity": 0.2204724409448819,
                    "duration": 1.0443859999999745
                },
                {
                    "name": "F2",
                    "midi": 41,
                    "time": 330.0259759999992,
                    "velocity": 0.2204724409448819,
                    "duration": 1.0443859999999745
                },
                {
                    "name": "A#2",
                    "midi": 46,
                    "time": 330.0259759999992,
                    "velocity": 0.2677165354330709,
                    "duration": 1.0443859999999745
                },
                {
                    "name": "C#2",
                    "midi": 37,
                    "time": 331.0703619999992,
                    "velocity": 0.1968503937007874,
                    "duration": 1.0443859999999745
                },
                {
                    "name": "F#2",
                    "midi": 42,
                    "time": 331.0703619999992,
                    "velocity": 0.1968503937007874,
                    "duration": 1.0443859999999745
                },
                {
                    "name": "C#3",
                    "midi": 49,
                    "time": 331.0703619999992,
                    "velocity": 0.23622047244094488,
                    "duration": 1.0443859999999745
                },
                {
                    "name": "A#1",
                    "midi": 34,
                    "time": 332.11474799999917,
                    "velocity": 0.2204724409448819,
                    "duration": 1.0443859999999745
                },
                {
                    "name": "F2",
                    "midi": 41,
                    "time": 332.11474799999917,
                    "velocity": 0.2204724409448819,
                    "duration": 1.0443859999999745
                },
                {
                    "name": "A#2",
                    "midi": 46,
                    "time": 332.11474799999917,
                    "velocity": 0.2677165354330709,
                    "duration": 1.0443859999999745
                },
                {
                    "name": "C#2",
                    "midi": 37,
                    "time": 333.15913399999914,
                    "velocity": 0.1732283464566929,
                    "duration": 1.0443860000000313
                },
                {
                    "name": "F#2",
                    "midi": 42,
                    "time": 333.15913399999914,
                    "velocity": 0.1732283464566929,
                    "duration": 1.0443860000000313
                },
                {
                    "name": "C#3",
                    "midi": 49,
                    "time": 333.15913399999914,
                    "velocity": 0.2125984251968504,
                    "duration": 1.0443860000000313
                },
                {
                    "name": "A#1",
                    "midi": 34,
                    "time": 334.2035199999992,
                    "velocity": 0.2204724409448819,
                    "duration": 1.0443860000000313
                },
                {
                    "name": "F2",
                    "midi": 41,
                    "time": 334.2035199999992,
                    "velocity": 0.2204724409448819,
                    "duration": 1.0443860000000313
                },
                {
                    "name": "A#2",
                    "midi": 46,
                    "time": 334.2035199999992,
                    "velocity": 0.2677165354330709,
                    "duration": 1.0443860000000313
                },
                {
                    "name": "C#2",
                    "midi": 37,
                    "time": 335.2479059999992,
                    "velocity": 0.1968503937007874,
                    "duration": 1.0443859999999745
                },
                {
                    "name": "F#2",
                    "midi": 42,
                    "time": 335.2479059999992,
                    "velocity": 0.23622047244094488,
                    "duration": 1.0443859999999745
                },
                {
                    "name": "C#3",
                    "midi": 49,
                    "time": 335.2479059999992,
                    "velocity": 0.23622047244094488,
                    "duration": 1.0443859999999745
                },
                {
                    "name": "A#1",
                    "midi": 34,
                    "time": 336.2922919999992,
                    "velocity": 0.2204724409448819,
                    "duration": 1.0443860000000313
                },
                {
                    "name": "F2",
                    "midi": 41,
                    "time": 336.2922919999992,
                    "velocity": 0.2204724409448819,
                    "duration": 1.0443860000000313
                },
                {
                    "name": "A#2",
                    "midi": 46,
                    "time": 336.2922919999992,
                    "velocity": 0.2677165354330709,
                    "duration": 1.0443860000000313
                },
                {
                    "name": "C#2",
                    "midi": 37,
                    "time": 337.3366779999992,
                    "velocity": 0.1732283464566929,
                    "duration": 1.0443860000000313
                },
                {
                    "name": "F#2",
                    "midi": 42,
                    "time": 337.3366779999992,
                    "velocity": 0.2125984251968504,
                    "duration": 1.0443860000000313
                },
                {
                    "name": "C#3",
                    "midi": 49,
                    "time": 337.3366779999992,
                    "velocity": 0.2125984251968504,
                    "duration": 1.0443860000000313
                },
                {
                    "name": "A#1",
                    "midi": 34,
                    "time": 338.38106399999924,
                    "velocity": 0.2204724409448819,
                    "duration": 1.0443859999999745
                },
                {
                    "name": "F2",
                    "midi": 41,
                    "time": 338.38106399999924,
                    "velocity": 0.2204724409448819,
                    "duration": 1.0443859999999745
                },
                {
                    "name": "A#2",
                    "midi": 46,
                    "time": 338.38106399999924,
                    "velocity": 0.2677165354330709,
                    "duration": 1.0443859999999745
                },
                {
                    "name": "C#2",
                    "midi": 37,
                    "time": 339.4254499999992,
                    "velocity": 0.1968503937007874,
                    "duration": 1.0443860000000313
                },
                {
                    "name": "F#2",
                    "midi": 42,
                    "time": 339.4254499999992,
                    "velocity": 0.1968503937007874,
                    "duration": 1.0443860000000313
                },
                {
                    "name": "C#3",
                    "midi": 49,
                    "time": 339.4254499999992,
                    "velocity": 0.23622047244094488,
                    "duration": 1.0443860000000313
                },
                {
                    "name": "A#1",
                    "midi": 34,
                    "time": 340.46983599999925,
                    "velocity": 0.2204724409448819,
                    "duration": 1.0443859999999745
                },
                {
                    "name": "F2",
                    "midi": 41,
                    "time": 340.46983599999925,
                    "velocity": 0.2204724409448819,
                    "duration": 1.0443859999999745
                },
                {
                    "name": "A#2",
                    "midi": 46,
                    "time": 340.46983599999925,
                    "velocity": 0.2677165354330709,
                    "duration": 1.0443859999999745
                },
                {
                    "name": "C#2",
                    "midi": 37,
                    "time": 341.5142219999992,
                    "velocity": 0.1732283464566929,
                    "duration": 1.0443859999999745
                },
                {
                    "name": "F#2",
                    "midi": 42,
                    "time": 341.5142219999992,
                    "velocity": 0.1732283464566929,
                    "duration": 1.0443859999999745
                },
                {
                    "name": "C#3",
                    "midi": 49,
                    "time": 341.5142219999992,
                    "velocity": 0.2125984251968504,
                    "duration": 1.0443859999999745
                },
                {
                    "name": "A#1",
                    "midi": 34,
                    "time": 342.5586079999992,
                    "velocity": 0.2755905511811024,
                    "duration": 1.0443859999999745
                },
                {
                    "name": "F2",
                    "midi": 41,
                    "time": 342.5586079999992,
                    "velocity": 0.2755905511811024,
                    "duration": 1.0443859999999745
                },
                {
                    "name": "A#2",
                    "midi": 46,
                    "time": 342.5586079999992,
                    "velocity": 0.33070866141732286,
                    "duration": 1.0443859999999745
                },
                {
                    "name": "C#2",
                    "midi": 37,
                    "time": 343.60299399999917,
                    "velocity": 0.23622047244094488,
                    "duration": 1.0443860000000313
                },
                {
                    "name": "F#2",
                    "midi": 42,
                    "time": 343.60299399999917,
                    "velocity": 0.29133858267716534,
                    "duration": 1.0443860000000313
                },
                {
                    "name": "C#3",
                    "midi": 49,
                    "time": 343.60299399999917,
                    "velocity": 0.29133858267716534,
                    "duration": 1.0443860000000313
                },
                {
                    "name": "A#1",
                    "midi": 34,
                    "time": 344.6473799999992,
                    "velocity": 0.2755905511811024,
                    "duration": 1.0443859999999745
                },
                {
                    "name": "F2",
                    "midi": 41,
                    "time": 344.6473799999992,
                    "velocity": 0.2755905511811024,
                    "duration": 1.0443859999999745
                },
                {
                    "name": "A#2",
                    "midi": 46,
                    "time": 344.6473799999992,
                    "velocity": 0.33070866141732286,
                    "duration": 1.0443859999999745
                },
                {
                    "name": "C#2",
                    "midi": 37,
                    "time": 345.6917659999992,
                    "velocity": 0.2125984251968504,
                    "duration": 1.0443860000000313
                },
                {
                    "name": "F#2",
                    "midi": 42,
                    "time": 345.6917659999992,
                    "velocity": 0.2677165354330709,
                    "duration": 1.0443860000000313
                },
                {
                    "name": "C#3",
                    "midi": 49,
                    "time": 345.6917659999992,
                    "velocity": 0.2677165354330709,
                    "duration": 1.0443860000000313
                },
                {
                    "name": "A#1",
                    "midi": 34,
                    "time": 346.7361519999992,
                    "velocity": 0.2755905511811024,
                    "duration": 1.0443860000000313
                },
                {
                    "name": "F2",
                    "midi": 41,
                    "time": 346.7361519999992,
                    "velocity": 0.2755905511811024,
                    "duration": 1.0443860000000313
                },
                {
                    "name": "A#2",
                    "midi": 46,
                    "time": 346.7361519999992,
                    "velocity": 0.33070866141732286,
                    "duration": 1.0443860000000313
                },
                {
                    "name": "C#2",
                    "midi": 37,
                    "time": 347.78053799999924,
                    "velocity": 0.23622047244094488,
                    "duration": 1.0443860000000313
                },
                {
                    "name": "F#2",
                    "midi": 42,
                    "time": 347.78053799999924,
                    "velocity": 0.23622047244094488,
                    "duration": 1.0443860000000313
                },
                {
                    "name": "C#3",
                    "midi": 49,
                    "time": 347.78053799999924,
                    "velocity": 0.29133858267716534,
                    "duration": 1.0443860000000313
                },
                {
                    "name": "A#1",
                    "midi": 34,
                    "time": 348.82492399999927,
                    "velocity": 0.2755905511811024,
                    "duration": 1.0443860000000313
                },
                {
                    "name": "F2",
                    "midi": 41,
                    "time": 348.82492399999927,
                    "velocity": 0.2755905511811024,
                    "duration": 1.0443860000000313
                },
                {
                    "name": "A#2",
                    "midi": 46,
                    "time": 348.82492399999927,
                    "velocity": 0.33070866141732286,
                    "duration": 1.0443860000000313
                },
                {
                    "name": "C#2",
                    "midi": 37,
                    "time": 349.8693099999993,
                    "velocity": 0.2125984251968504,
                    "duration": 1.0443860000000313
                },
                {
                    "name": "F#2",
                    "midi": 42,
                    "time": 349.8693099999993,
                    "velocity": 0.2125984251968504,
                    "duration": 1.0443860000000313
                },
                {
                    "name": "C#3",
                    "midi": 49,
                    "time": 349.8693099999993,
                    "velocity": 0.2677165354330709,
                    "duration": 1.0443860000000313
                },
                {
                    "name": "A#1",
                    "midi": 34,
                    "time": 350.91369599999933,
                    "velocity": 0.33070866141732286,
                    "duration": 1.0443860000000313
                },
                {
                    "name": "F2",
                    "midi": 41,
                    "time": 350.91369599999933,
                    "velocity": 0.33070866141732286,
                    "duration": 1.0443860000000313
                },
                {
                    "name": "A#2",
                    "midi": 46,
                    "time": 350.91369599999933,
                    "velocity": 0.4094488188976378,
                    "duration": 1.0443860000000313
                },
                {
                    "name": "C#2",
                    "midi": 37,
                    "time": 351.95808199999937,
                    "velocity": 0.28346456692913385,
                    "duration": 1.0443860000000313
                },
                {
                    "name": "F#2",
                    "midi": 42,
                    "time": 351.95808199999937,
                    "velocity": 0.28346456692913385,
                    "duration": 1.0443860000000313
                },
                {
                    "name": "C#3",
                    "midi": 49,
                    "time": 351.95808199999937,
                    "velocity": 0.3464566929133858,
                    "duration": 1.0443860000000313
                },
                {
                    "name": "A#1",
                    "midi": 34,
                    "time": 353.0024679999994,
                    "velocity": 0.2992125984251969,
                    "duration": 1.0443859999999745
                },
                {
                    "name": "F2",
                    "midi": 41,
                    "time": 353.0024679999994,
                    "velocity": 0.2992125984251969,
                    "duration": 1.0443859999999745
                },
                {
                    "name": "A#2",
                    "midi": 46,
                    "time": 353.0024679999994,
                    "velocity": 0.36220472440944884,
                    "duration": 1.0443859999999745
                },
                {
                    "name": "C#2",
                    "midi": 37,
                    "time": 354.04685399999937,
                    "velocity": 0.2125984251968504,
                    "duration": 1.0443860000000313
                },
                {
                    "name": "F#2",
                    "midi": 42,
                    "time": 354.04685399999937,
                    "velocity": 0.2125984251968504,
                    "duration": 1.0443860000000313
                },
                {
                    "name": "C#3",
                    "midi": 49,
                    "time": 354.04685399999937,
                    "velocity": 0.2755905511811024,
                    "duration": 1.0443860000000313
                },
                {
                    "name": "A#1",
                    "midi": 34,
                    "time": 355.0912399999994,
                    "velocity": 0.33070866141732286,
                    "duration": 1.0443860000000313
                },
                {
                    "name": "F2",
                    "midi": 41,
                    "time": 355.0912399999994,
                    "velocity": 0.33070866141732286,
                    "duration": 1.0443860000000313
                },
                {
                    "name": "A#2",
                    "midi": 46,
                    "time": 355.0912399999994,
                    "velocity": 0.4094488188976378,
                    "duration": 1.0443860000000313
                },
                {
                    "name": "C#2",
                    "midi": 37,
                    "time": 356.13562599999943,
                    "velocity": 0.28346456692913385,
                    "duration": 1.0443859999999745
                },
                {
                    "name": "F#2",
                    "midi": 42,
                    "time": 356.13562599999943,
                    "velocity": 0.28346456692913385,
                    "duration": 1.0443859999999745
                },
                {
                    "name": "C#3",
                    "midi": 49,
                    "time": 356.13562599999943,
                    "velocity": 0.3464566929133858,
                    "duration": 1.0443859999999745
                },
                {
                    "name": "A#1",
                    "midi": 34,
                    "time": 357.1800119999994,
                    "velocity": 0.2992125984251969,
                    "duration": 1.0443860000000313
                },
                {
                    "name": "F2",
                    "midi": 41,
                    "time": 357.1800119999994,
                    "velocity": 0.2992125984251969,
                    "duration": 1.0443860000000313
                },
                {
                    "name": "A#2",
                    "midi": 46,
                    "time": 357.1800119999994,
                    "velocity": 0.36220472440944884,
                    "duration": 1.0443860000000313
                },
                {
                    "name": "C#2",
                    "midi": 37,
                    "time": 358.22439799999944,
                    "velocity": 0.2125984251968504,
                    "duration": 1.0443860000000313
                },
                {
                    "name": "F#2",
                    "midi": 42,
                    "time": 358.22439799999944,
                    "velocity": 0.2125984251968504,
                    "duration": 1.0443860000000313
                },
                {
                    "name": "C#3",
                    "midi": 49,
                    "time": 358.22439799999944,
                    "velocity": 0.2755905511811024,
                    "duration": 1.0443860000000313
                },
                {
                    "name": "A#1",
                    "midi": 34,
                    "time": 359.26878399999947,
                    "velocity": 0.25196850393700787,
                    "duration": 1.0443859999999745
                },
                {
                    "name": "F2",
                    "midi": 41,
                    "time": 359.26878399999947,
                    "velocity": 0.25196850393700787,
                    "duration": 1.0443859999999745
                },
                {
                    "name": "A#2",
                    "midi": 46,
                    "time": 359.26878399999947,
                    "velocity": 0.30708661417322836,
                    "duration": 1.0443859999999745
                },
                {
                    "name": "C#2",
                    "midi": 37,
                    "time": 360.31316999999945,
                    "velocity": 0.2204724409448819,
                    "duration": 1.0443859999999745
                },
                {
                    "name": "F#2",
                    "midi": 42,
                    "time": 360.31316999999945,
                    "velocity": 0.2677165354330709,
                    "duration": 1.0443859999999745
                },
                {
                    "name": "C#3",
                    "midi": 49,
                    "time": 360.31316999999945,
                    "velocity": 0.2677165354330709,
                    "duration": 1.0443859999999745
                },
                {
                    "name": "A#1",
                    "midi": 34,
                    "time": 361.3575559999994,
                    "velocity": 0.25196850393700787,
                    "duration": 1.0443860000000313
                },
                {
                    "name": "F2",
                    "midi": 41,
                    "time": 361.3575559999994,
                    "velocity": 0.25196850393700787,
                    "duration": 1.0443860000000313
                },
                {
                    "name": "A#2",
                    "midi": 46,
                    "time": 361.3575559999994,
                    "velocity": 0.30708661417322836,
                    "duration": 1.0443860000000313
                },
                {
                    "name": "C#2",
                    "midi": 37,
                    "time": 362.40194199999945,
                    "velocity": 0.1968503937007874,
                    "duration": 1.0443859999999745
                },
                {
                    "name": "F#2",
                    "midi": 42,
                    "time": 362.40194199999945,
                    "velocity": 0.2440944881889764,
                    "duration": 1.0443859999999745
                },
                {
                    "name": "C#3",
                    "midi": 49,
                    "time": 362.40194199999945,
                    "velocity": 0.2440944881889764,
                    "duration": 1.0443859999999745
                },
                {
                    "name": "A#1",
                    "midi": 34,
                    "time": 363.4463279999994,
                    "velocity": 0.25196850393700787,
                    "duration": 1.0443860000000313
                },
                {
                    "name": "F2",
                    "midi": 41,
                    "time": 363.4463279999994,
                    "velocity": 0.25196850393700787,
                    "duration": 1.0443860000000313
                },
                {
                    "name": "A#2",
                    "midi": 46,
                    "time": 363.4463279999994,
                    "velocity": 0.30708661417322836,
                    "duration": 1.0443860000000313
                },
                {
                    "name": "C#2",
                    "midi": 37,
                    "time": 364.49071399999946,
                    "velocity": 0.2204724409448819,
                    "duration": 1.0443860000000313
                },
                {
                    "name": "F#2",
                    "midi": 42,
                    "time": 364.49071399999946,
                    "velocity": 0.2204724409448819,
                    "duration": 1.0443860000000313
                },
                {
                    "name": "C#3",
                    "midi": 49,
                    "time": 364.49071399999946,
                    "velocity": 0.2677165354330709,
                    "duration": 1.0443860000000313
                },
                {
                    "name": "A#1",
                    "midi": 34,
                    "time": 365.5350999999995,
                    "velocity": 0.25196850393700787,
                    "duration": 1.0443860000000313
                },
                {
                    "name": "F2",
                    "midi": 41,
                    "time": 365.5350999999995,
                    "velocity": 0.25196850393700787,
                    "duration": 1.0443860000000313
                },
                {
                    "name": "A#2",
                    "midi": 46,
                    "time": 365.5350999999995,
                    "velocity": 0.30708661417322836,
                    "duration": 1.0443860000000313
                },
                {
                    "name": "C#2",
                    "midi": 37,
                    "time": 366.5794859999995,
                    "velocity": 0.1968503937007874,
                    "duration": 1.0443859999999745
                },
                {
                    "name": "F#2",
                    "midi": 42,
                    "time": 366.5794859999995,
                    "velocity": 0.1968503937007874,
                    "duration": 1.0443859999999745
                },
                {
                    "name": "C#3",
                    "midi": 49,
                    "time": 366.5794859999995,
                    "velocity": 0.2440944881889764,
                    "duration": 1.0443859999999745
                },
                {
                    "name": "A#1",
                    "midi": 34,
                    "time": 367.6238719999995,
                    "velocity": 0.3700787401574803,
                    "duration": 1.0443860000000313
                },
                {
                    "name": "F2",
                    "midi": 41,
                    "time": 367.6238719999995,
                    "velocity": 0.3700787401574803,
                    "duration": 1.0443860000000313
                },
                {
                    "name": "A#2",
                    "midi": 46,
                    "time": 367.6238719999995,
                    "velocity": 0.44881889763779526,
                    "duration": 1.0443860000000313
                },
                {
                    "name": "C#2",
                    "midi": 37,
                    "time": 368.6682579999995,
                    "velocity": 0.29133858267716534,
                    "duration": 1.0443860000000313
                },
                {
                    "name": "F#2",
                    "midi": 42,
                    "time": 368.6682579999995,
                    "velocity": 0.29133858267716534,
                    "duration": 1.0443860000000313
                },
                {
                    "name": "C#3",
                    "midi": 49,
                    "time": 368.6682579999995,
                    "velocity": 0.36220472440944884,
                    "duration": 1.0443860000000313
                },
                {
                    "name": "A#1",
                    "midi": 34,
                    "time": 369.71264399999956,
                    "velocity": 0.30708661417322836,
                    "duration": 1.0443860000000313
                },
                {
                    "name": "F2",
                    "midi": 41,
                    "time": 369.71264399999956,
                    "velocity": 0.30708661417322836,
                    "duration": 1.0443860000000313
                },
                {
                    "name": "A#2",
                    "midi": 46,
                    "time": 369.71264399999956,
                    "velocity": 0.3779527559055118,
                    "duration": 1.0443860000000313
                },
                {
                    "name": "C#2",
                    "midi": 37,
                    "time": 370.7570299999996,
                    "velocity": 0.23622047244094488,
                    "duration": 1.0443859999999745
                },
                {
                    "name": "F#2",
                    "midi": 42,
                    "time": 370.7570299999996,
                    "velocity": 0.23622047244094488,
                    "duration": 1.0443859999999745
                },
                {
                    "name": "C#3",
                    "midi": 49,
                    "time": 370.7570299999996,
                    "velocity": 0.2992125984251969,
                    "duration": 1.0443859999999745
                },
                {
                    "name": "A#1",
                    "midi": 34,
                    "time": 371.80141599999956,
                    "velocity": 0.3700787401574803,
                    "duration": 1.0443859999999745
                },
                {
                    "name": "F2",
                    "midi": 41,
                    "time": 371.80141599999956,
                    "velocity": 0.3700787401574803,
                    "duration": 1.0443859999999745
                },
                {
                    "name": "A#2",
                    "midi": 46,
                    "time": 371.80141599999956,
                    "velocity": 0.44881889763779526,
                    "duration": 1.0443859999999745
                },
                {
                    "name": "C#2",
                    "midi": 37,
                    "time": 372.84580199999954,
                    "velocity": 0.29133858267716534,
                    "duration": 1.0443859999999745
                },
                {
                    "name": "F#2",
                    "midi": 42,
                    "time": 372.84580199999954,
                    "velocity": 0.29133858267716534,
                    "duration": 1.0443859999999745
                },
                {
                    "name": "C#3",
                    "midi": 49,
                    "time": 372.84580199999954,
                    "velocity": 0.36220472440944884,
                    "duration": 1.0443859999999745
                },
                {
                    "name": "A#1",
                    "midi": 34,
                    "time": 373.8901879999995,
                    "velocity": 0.30708661417322836,
                    "duration": 1.0443860000000313
                },
                {
                    "name": "F2",
                    "midi": 41,
                    "time": 373.8901879999995,
                    "velocity": 0.30708661417322836,
                    "duration": 1.0443860000000313
                },
                {
                    "name": "A#2",
                    "midi": 46,
                    "time": 373.8901879999995,
                    "velocity": 0.3779527559055118,
                    "duration": 1.0443860000000313
                },
                {
                    "name": "C#2",
                    "midi": 37,
                    "time": 374.93457399999954,
                    "velocity": 0.23622047244094488,
                    "duration": 1.0443860000000313
                },
                {
                    "name": "F#2",
                    "midi": 42,
                    "time": 374.93457399999954,
                    "velocity": 0.23622047244094488,
                    "duration": 1.0443860000000313
                },
                {
                    "name": "C#3",
                    "midi": 49,
                    "time": 374.93457399999954,
                    "velocity": 0.2992125984251969,
                    "duration": 1.0443860000000313
                },
                {
                    "name": "A#1",
                    "midi": 34,
                    "time": 375.9789599999996,
                    "velocity": 0.33858267716535434,
                    "duration": 1.0443860000000313
                },
                {
                    "name": "F2",
                    "midi": 41,
                    "time": 375.9789599999996,
                    "velocity": 0.33858267716535434,
                    "duration": 1.0443860000000313
                },
                {
                    "name": "A#2",
                    "midi": 46,
                    "time": 375.9789599999996,
                    "velocity": 0.4094488188976378,
                    "duration": 1.0443860000000313
                },
                {
                    "name": "C#2",
                    "midi": 37,
                    "time": 377.0233459999996,
                    "velocity": 0.29133858267716534,
                    "duration": 1.0443860000000313
                },
                {
                    "name": "F#2",
                    "midi": 42,
                    "time": 377.0233459999996,
                    "velocity": 0.36220472440944884,
                    "duration": 1.0443860000000313
                },
                {
                    "name": "C#3",
                    "midi": 49,
                    "time": 377.0233459999996,
                    "velocity": 0.36220472440944884,
                    "duration": 1.0443860000000313
                },
                {
                    "name": "A#1",
                    "midi": 34,
                    "time": 378.06773199999964,
                    "velocity": 0.3543307086614173,
                    "duration": 1.0443859999999745
                },
                {
                    "name": "F2",
                    "midi": 41,
                    "time": 378.06773199999964,
                    "velocity": 0.3543307086614173,
                    "duration": 1.0443859999999745
                },
                {
                    "name": "A#2",
                    "midi": 46,
                    "time": 378.06773199999964,
                    "velocity": 0.4251968503937008,
                    "duration": 1.0443859999999745
                },
                {
                    "name": "C#2",
                    "midi": 37,
                    "time": 379.1121179999996,
                    "velocity": 0.28346456692913385,
                    "duration": 1.0443859999999745
                },
                {
                    "name": "F#2",
                    "midi": 42,
                    "time": 379.1121179999996,
                    "velocity": 0.36220472440944884,
                    "duration": 1.0443859999999745
                },
                {
                    "name": "C#3",
                    "midi": 49,
                    "time": 379.1121179999996,
                    "velocity": 0.36220472440944884,
                    "duration": 1.0443859999999745
                },
                {
                    "name": "A#1",
                    "midi": 34,
                    "time": 380.1565039999996,
                    "velocity": 0.3858267716535433,
                    "duration": 1.0443860000000313
                },
                {
                    "name": "F2",
                    "midi": 41,
                    "time": 380.1565039999996,
                    "velocity": 0.3858267716535433,
                    "duration": 1.0443860000000313
                },
                {
                    "name": "A#2",
                    "midi": 46,
                    "time": 380.1565039999996,
                    "velocity": 0.4566929133858268,
                    "duration": 1.0443860000000313
                },
                {
                    "name": "C#2",
                    "midi": 37,
                    "time": 381.2008899999996,
                    "velocity": 0.33070866141732286,
                    "duration": 1.0443859999999745
                },
                {
                    "name": "F#2",
                    "midi": 42,
                    "time": 381.2008899999996,
                    "velocity": 0.33070866141732286,
                    "duration": 1.0443859999999745
                },
                {
                    "name": "C#3",
                    "midi": 49,
                    "time": 381.2008899999996,
                    "velocity": 0.4015748031496063,
                    "duration": 1.0443859999999745
                },
                {
                    "name": "A#1",
                    "midi": 34,
                    "time": 382.2452759999996,
                    "velocity": 0.41732283464566927,
                    "duration": 1.0443860000000313
                },
                {
                    "name": "F2",
                    "midi": 41,
                    "time": 382.2452759999996,
                    "velocity": 0.41732283464566927,
                    "duration": 1.0443860000000313
                },
                {
                    "name": "A#2",
                    "midi": 46,
                    "time": 382.2452759999996,
                    "velocity": 0.5039370078740157,
                    "duration": 1.0443860000000313
                },
                {
                    "name": "G#1",
                    "midi": 32,
                    "time": 383.2896619999996,
                    "velocity": 0.4409448818897638,
                    "duration": 1.0443859999999745
                },
                {
                    "name": "G#2",
                    "midi": 44,
                    "time": 383.2896619999996,
                    "velocity": 0.5590551181102362,
                    "duration": 1.0443859999999745
                },
                {
                    "name": "C#1",
                    "midi": 25,
                    "time": 384.3340479999996,
                    "velocity": 0.4645669291338583,
                    "duration": 1.0443860000000313
                },
                {
                    "name": "C#2",
                    "midi": 37,
                    "time": 384.3340479999996,
                    "velocity": 0.5826771653543307,
                    "duration": 1.0443860000000313
                },
                {
                    "name": "C#3",
                    "midi": 49,
                    "time": 385.37843399999963,
                    "velocity": 0.5039370078740157,
                    "duration": 0.7832894999999667
                },
                {
                    "name": "G#3",
                    "midi": 56,
                    "time": 385.37843399999963,
                    "velocity": 0.5039370078740157,
                    "duration": 0.7832894999999667
                },
                {
                    "name": "C#4",
                    "midi": 61,
                    "time": 385.37843399999963,
                    "velocity": 0.5984251968503937,
                    "duration": 0.7832894999999667
                },
                {
                    "name": "D#4",
                    "midi": 63,
                    "time": 386.1617234999996,
                    "velocity": 0.5984251968503937,
                    "duration": 0.26109650000000784
                },
                {
                    "name": "C#3",
                    "midi": 49,
                    "time": 386.4228199999996,
                    "velocity": 0.5354330708661418,
                    "duration": 0.7832894999999667
                },
                {
                    "name": "G#3",
                    "midi": 56,
                    "time": 386.4228199999996,
                    "velocity": 0.5354330708661418,
                    "duration": 0.7832894999999667
                },
                {
                    "name": "F4",
                    "midi": 65,
                    "time": 386.4228199999996,
                    "velocity": 0.6299212598425197,
                    "duration": 0.7832894999999667
                },
                {
                    "name": "F#4",
                    "midi": 66,
                    "time": 387.20610949999957,
                    "velocity": 0.6299212598425197,
                    "duration": 0.26109650000000784
                },
                {
                    "name": "D#4",
                    "midi": 63,
                    "time": 387.4672059999996,
                    "velocity": 0.5748031496062992,
                    "duration": 0.7832894999999667
                },
                {
                    "name": "G#3",
                    "midi": 56,
                    "time": 387.4672059999996,
                    "velocity": 0.5748031496062992,
                    "duration": 0.7832894999999667
                },
                {
                    "name": "G#4",
                    "midi": 68,
                    "time": 387.4672059999996,
                    "velocity": 0.6771653543307087,
                    "duration": 0.7832894999999667
                },
                {
                    "name": "F4",
                    "midi": 65,
                    "time": 388.25049549999954,
                    "velocity": 0.6692913385826772,
                    "duration": 0.26109650000000784
                },
                {
                    "name": "G#1",
                    "midi": 32,
                    "time": 388.51159199999955,
                    "velocity": 0.6062992125984252,
                    "duration": 1.0443860000000313
                },
                {
                    "name": "G#2",
                    "midi": 44,
                    "time": 388.51159199999955,
                    "velocity": 0.7244094488188977,
                    "duration": 1.0443860000000313
                },
                {
                    "name": "D#4",
                    "midi": 63,
                    "time": 389.5559779999996,
                    "velocity": 0.5433070866141733,
                    "duration": 0.7832895000000235
                },
                {
                    "name": "F#4",
                    "midi": 66,
                    "time": 389.5559779999996,
                    "velocity": 0.5433070866141733,
                    "duration": 0.7832895000000235
                },
                {
                    "name": "C5",
                    "midi": 72,
                    "time": 389.5559779999996,
                    "velocity": 0.6377952755905512,
                    "duration": 0.7832895000000235
                },
                {
                    "name": "C#4",
                    "midi": 61,
                    "time": 390.3392674999996,
                    "velocity": 0.5118110236220472,
                    "duration": 0.23498684999998432
                },
                {
                    "name": "F#4",
                    "midi": 66,
                    "time": 390.3392674999996,
                    "velocity": 0.5118110236220472,
                    "duration": 0.23498684999998432
                },
                {
                    "name": "A#4",
                    "midi": 70,
                    "time": 390.3392674999996,
                    "velocity": 0.5984251968503937,
                    "duration": 0.23498684999998432
                },
                {
                    "name": "C#4",
                    "midi": 61,
                    "time": 390.6003639999996,
                    "velocity": 0.49606299212598426,
                    "duration": 0.7832894999999667
                },
                {
                    "name": "F#4",
                    "midi": 66,
                    "time": 390.6003639999996,
                    "velocity": 0.49606299212598426,
                    "duration": 0.7832894999999667
                },
                {
                    "name": "A#4",
                    "midi": 70,
                    "time": 390.6003639999996,
                    "velocity": 0.5905511811023622,
                    "duration": 0.7832894999999667
                },
                {
                    "name": "C4",
                    "midi": 60,
                    "time": 391.3836534999996,
                    "velocity": 0.4645669291338583,
                    "duration": 0.23498684999998432
                },
                {
                    "name": "F#4",
                    "midi": 66,
                    "time": 391.3836534999996,
                    "velocity": 0.4645669291338583,
                    "duration": 0.23498684999998432
                },
                {
                    "name": "G#4",
                    "midi": 68,
                    "time": 391.3836534999996,
                    "velocity": 0.5590551181102362,
                    "duration": 0.23498684999998432
                },
                {
                    "name": "C4",
                    "midi": 60,
                    "time": 391.6447499999996,
                    "velocity": 0.44881889763779526,
                    "duration": 0.7832894999999667
                },
                {
                    "name": "F#4",
                    "midi": 66,
                    "time": 391.6447499999996,
                    "velocity": 0.44881889763779526,
                    "duration": 0.7832894999999667
                },
                {
                    "name": "G#4",
                    "midi": 68,
                    "time": 391.6447499999996,
                    "velocity": 0.5354330708661418,
                    "duration": 0.7832894999999667
                },
                {
                    "name": "A3",
                    "midi": 57,
                    "time": 392.42803949999956,
                    "velocity": 0.5196850393700787,
                    "duration": 0.26109650000000784
                },
                {
                    "name": "C4",
                    "midi": 60,
                    "time": 392.42803949999956,
                    "velocity": 0.5196850393700787,
                    "duration": 0.26109650000000784
                },
                {
                    "name": "D#4",
                    "midi": 63,
                    "time": 392.42803949999956,
                    "velocity": 0.6062992125984252,
                    "duration": 0.26109650000000784
                },
                {
                    "name": "A#1",
                    "midi": 34,
                    "time": 392.68913599999956,
                    "velocity": 0.5196850393700787,
                    "duration": 1.0443860000000313
                },
                {
                    "name": "A#2",
                    "midi": 46,
                    "time": 392.68913599999956,
                    "velocity": 0.6141732283464567,
                    "duration": 1.0443860000000313
                },
                {
                    "name": "F3",
                    "midi": 53,
                    "time": 393.7335219999996,
                    "velocity": 0.49606299212598426,
                    "duration": 1.0443860000000313
                },
                {
                    "name": "A#3",
                    "midi": 58,
                    "time": 393.7335219999996,
                    "velocity": 0.49606299212598426,
                    "duration": 1.0443860000000313
                },
                {
                    "name": "C#4",
                    "midi": 61,
                    "time": 393.7335219999996,
                    "velocity": 0.5905511811023622,
                    "duration": 1.0443860000000313
                },
                {
                    "name": "C#2",
                    "midi": 37,
                    "time": 394.7779079999996,
                    "velocity": 0.5354330708661418,
                    "duration": 1.0443860000000313
                },
                {
                    "name": "C#3",
                    "midi": 49,
                    "time": 394.7779079999996,
                    "velocity": 0.6299212598425197,
                    "duration": 1.0443860000000313
                },
                {
                    "name": "F4",
                    "midi": 65,
                    "time": 395.82229399999966,
                    "velocity": 0.5984251968503937,
                    "duration": 1.0443859999999745
                },
                {
                    "name": "C#4",
                    "midi": 61,
                    "time": 395.82229399999966,
                    "velocity": 0.5039370078740157,
                    "duration": 1.0443859999999745
                },
                {
                    "name": "A#3",
                    "midi": 58,
                    "time": 395.82229399999966,
                    "velocity": 0.5039370078740157,
                    "duration": 1.0443859999999745
                },
                {
                    "name": "F3",
                    "midi": 53,
                    "time": 395.82229399999966,
                    "velocity": 0.5039370078740157,
                    "duration": 1.0443859999999745
                },
                {
                    "name": "F1",
                    "midi": 29,
                    "time": 396.86667999999963,
                    "velocity": 0.6062992125984252,
                    "duration": 1.0443860000000313
                },
                {
                    "name": "F2",
                    "midi": 41,
                    "time": 396.86667999999963,
                    "velocity": 0.7244094488188977,
                    "duration": 1.0443860000000313
                },
                {
                    "name": "F3",
                    "midi": 53,
                    "time": 397.91106599999966,
                    "velocity": 0.5433070866141733,
                    "duration": 1.0443859999999745
                },
                {
                    "name": "A#3",
                    "midi": 58,
                    "time": 397.91106599999966,
                    "velocity": 0.5433070866141733,
                    "duration": 1.0443859999999745
                },
                {
                    "name": "C#4",
                    "midi": 61,
                    "time": 397.91106599999966,
                    "velocity": 0.5433070866141733,
                    "duration": 1.0443859999999745
                },
                {
                    "name": "G4",
                    "midi": 67,
                    "time": 397.91106599999966,
                    "velocity": 0.6377952755905512,
                    "duration": 1.0443859999999745
                },
                {
                    "name": "F3",
                    "midi": 53,
                    "time": 398.95545199999964,
                    "velocity": 0.5039370078740157,
                    "duration": 1.0443859999999745
                },
                {
                    "name": "A3",
                    "midi": 57,
                    "time": 398.95545199999964,
                    "velocity": 0.5039370078740157,
                    "duration": 1.0443859999999745
                },
                {
                    "name": "C4",
                    "midi": 60,
                    "time": 398.95545199999964,
                    "velocity": 0.5039370078740157,
                    "duration": 1.0443859999999745
                },
                {
                    "name": "A4",
                    "midi": 69,
                    "time": 398.95545199999964,
                    "velocity": 0.5905511811023622,
                    "duration": 1.0443859999999745
                },
                {
                    "name": "F3",
                    "midi": 53,
                    "time": 399.9998379999996,
                    "velocity": 0.6850393700787402,
                    "duration": 0.5221930000000157
                },
                {
                    "name": "G2",
                    "midi": 43,
                    "time": 400.52203099999963,
                    "velocity": 0.48031496062992124,
                    "duration": 0.1740643333333196
                },
                {
                    "name": "G#2",
                    "midi": 44,
                    "time": 400.69609533333295,
                    "velocity": 0.48031496062992124,
                    "duration": 0.1740643333333196
                },
                {
                    "name": "A#2",
                    "midi": 46,
                    "time": 400.87015966666627,
                    "velocity": 0.48031496062992124,
                    "duration": 0.1740643333333196
                },
                {
                    "name": "G#2",
                    "midi": 44,
                    "time": 401.0442239999996,
                    "velocity": 0.48031496062992124,
                    "duration": 0.09791118750001715
                },
                {
                    "name": "A#2",
                    "midi": 46,
                    "time": 401.1421351874996,
                    "velocity": 0.4409448818897638,
                    "duration": 0.09791118750001715
                },
                {
                    "name": "G#2",
                    "midi": 44,
                    "time": 401.2400463749996,
                    "velocity": 0.5039370078740157,
                    "duration": 0.09791118750001715
                },
                {
                    "name": "A#2",
                    "midi": 46,
                    "time": 401.33795756249964,
                    "velocity": 0.44881889763779526,
                    "duration": 0.09791118750001715
                },
                {
                    "name": "G#2",
                    "midi": 44,
                    "time": 401.43586874999966,
                    "velocity": 0.5196850393700787,
                    "duration": 0.09791118750001715
                },
                {
                    "name": "A#2",
                    "midi": 46,
                    "time": 401.5337799374997,
                    "velocity": 0.4645669291338583,
                    "duration": 0.09791118750001715
                },
                {
                    "name": "G#2",
                    "midi": 44,
                    "time": 401.6316911249997,
                    "velocity": 0.5354330708661418,
                    "duration": 0.09791118750001715
                },
                {
                    "name": "A#2",
                    "midi": 46,
                    "time": 401.7296023124997,
                    "velocity": 0.48031496062992124,
                    "duration": 0.09791118750001715
                },
                {
                    "name": "G#2",
                    "midi": 44,
                    "time": 401.8275134999997,
                    "velocity": 0.5511811023622047,
                    "duration": 0.09791118750001715
                },
                {
                    "name": "A#2",
                    "midi": 46,
                    "time": 401.92542468749974,
                    "velocity": 0.5118110236220472,
                    "duration": 0.09791118750001715
                },
                {
                    "name": "G#2",
                    "midi": 44,
                    "time": 402.02333587499976,
                    "velocity": 0.5748031496062992,
                    "duration": 0.0979111874999603
                },
                {
                    "name": "A#2",
                    "midi": 46,
                    "time": 402.1212470624997,
                    "velocity": 0.5196850393700787,
                    "duration": 0.0979111874999603
                },
                {
                    "name": "G#2",
                    "midi": 44,
                    "time": 402.2191582499997,
                    "velocity": 0.5669291338582677,
                    "duration": 0.09791118750001715
                },
                {
                    "name": "A#2",
                    "midi": 46,
                    "time": 402.31924524166635,
                    "velocity": 0.49606299212598426,
                    "duration": 0.0979111874999603
                },
                {
                    "name": "G#2",
                    "midi": 44,
                    "time": 402.41498062499966,
                    "velocity": 0.5433070866141733,
                    "duration": 0.0979111874999603
                },
                {
                    "name": "A#2",
                    "midi": 46,
                    "time": 402.5128918124996,
                    "velocity": 0.47244094488188976,
                    "duration": 0.10008699166667157
                },
                {
                    "name": "G#2",
                    "midi": 44,
                    "time": 402.61080299999963,
                    "velocity": 0.5196850393700787,
                    "duration": 0.13054825000000392
                },
                {
                    "name": "A#2",
                    "midi": 46,
                    "time": 402.74135124999964,
                    "velocity": 0.4566929133858268,
                    "duration": 0.13054825000000392
                },
                {
                    "name": "G2",
                    "midi": 43,
                    "time": 402.87189949999964,
                    "velocity": 0.5039370078740157,
                    "duration": 0.13054825000000392
                },
                {
                    "name": "G#2",
                    "midi": 44,
                    "time": 403.00244774999965,
                    "velocity": 0.4330708661417323,
                    "duration": 0.13054825000000392
                },
                {
                    "name": "C#3",
                    "midi": 49,
                    "time": 403.13299599999965,
                    "velocity": 0.5354330708661418,
                    "duration": 1.0443859999999745
                },
                {
                    "name": "C#3",
                    "midi": 49,
                    "time": 404.1773819999996,
                    "velocity": 0.6456692913385826,
                    "duration": 0.5221930000000157
                },
                {
                    "name": "E2",
                    "midi": 40,
                    "time": 404.69957499999964,
                    "velocity": 0.48031496062992124,
                    "duration": 0.1740643333333196
                },
                {
                    "name": "F2",
                    "midi": 41,
                    "time": 404.87363933333296,
                    "velocity": 0.48031496062992124,
                    "duration": 0.1740643333333196
                },
                {
                    "name": "F#2",
                    "midi": 42,
                    "time": 405.0477036666663,
                    "velocity": 0.48031496062992124,
                    "duration": 0.1740643333333196
                },
                {
                    "name": "F2",
                    "midi": 41,
                    "time": 405.2217679999996,
                    "velocity": 0.48031496062992124,
                    "duration": 0.09791118750001715
                },
                {
                    "name": "F#2",
                    "midi": 42,
                    "time": 405.3196791874996,
                    "velocity": 0.4409448818897638,
                    "duration": 0.0979111874999603
                },
                {
                    "name": "F2",
                    "midi": 41,
                    "time": 405.4175903749996,
                    "velocity": 0.5039370078740157,
                    "duration": 0.09791118750001715
                },
                {
                    "name": "F#2",
                    "midi": 42,
                    "time": 405.5155015624996,
                    "velocity": 0.44881889763779526,
                    "duration": 0.09791118750001715
                },
                {
                    "name": "F2",
                    "midi": 41,
                    "time": 405.6134127499996,
                    "velocity": 0.5196850393700787,
                    "duration": 0.09791118750001715
                },
                {
                    "name": "F#2",
                    "midi": 42,
                    "time": 405.7113239374996,
                    "velocity": 0.4645669291338583,
                    "duration": 0.09791118750001715
                },
                {
                    "name": "F2",
                    "midi": 41,
                    "time": 405.80923512499965,
                    "velocity": 0.5354330708661418,
                    "duration": 0.09791118750001715
                },
                {
                    "name": "F#2",
                    "midi": 42,
                    "time": 405.90714631249966,
                    "velocity": 0.48031496062992124,
                    "duration": 0.09791118750001715
                },
                {
                    "name": "F2",
                    "midi": 41,
                    "time": 406.0050574999997,
                    "velocity": 0.5511811023622047,
                    "duration": 0.09791118750001715
                },
                {
                    "name": "F#2",
                    "midi": 42,
                    "time": 406.1029686874997,
                    "velocity": 0.5118110236220472,
                    "duration": 0.09791118750001715
                },
                {
                    "name": "F2",
                    "midi": 41,
                    "time": 406.2008798749997,
                    "velocity": 0.5748031496062992,
                    "duration": 0.09791118750001715
                },
                {
                    "name": "F#2",
                    "midi": 42,
                    "time": 406.29879106249973,
                    "velocity": 0.5196850393700787,
                    "duration": 0.09791118750001715
                },
                {
                    "name": "F2",
                    "midi": 41,
                    "time": 406.39670224999975,
                    "velocity": 0.5669291338582677,
                    "duration": 0.09791118750001715
                },
                {
                    "name": "F#2",
                    "midi": 42,
                    "time": 406.4967892416664,
                    "velocity": 0.49606299212598426,
                    "duration": 0.0979111874999603
                },
                {
                    "name": "F2",
                    "midi": 41,
                    "time": 406.5925246249997,
                    "velocity": 0.5433070866141733,
                    "duration": 0.0979111874999603
                },
                {
                    "name": "F#2",
                    "midi": 42,
                    "time": 406.6904358124997,
                    "velocity": 0.47244094488188976,
                    "duration": 0.10008699166667157
                },
                {
                    "name": "F2",
                    "midi": 41,
                    "time": 406.7883469999997,
                    "velocity": 0.5196850393700787,
                    "duration": 0.13054825000000392
                },
                {
                    "name": "F#2",
                    "midi": 42,
                    "time": 406.9188952499997,
                    "velocity": 0.4566929133858268,
                    "duration": 0.13054825000000392
                },
                {
                    "name": "E2",
                    "midi": 40,
                    "time": 407.0494434999997,
                    "velocity": 0.5039370078740157,
                    "duration": 0.13054825000000392
                },
                {
                    "name": "F2",
                    "midi": 41,
                    "time": 407.1799917499997,
                    "velocity": 0.4330708661417323,
                    "duration": 0.13054825000000392
                },
                {
                    "name": "F#2",
                    "midi": 42,
                    "time": 407.3105399999997,
                    "velocity": 0.5039370078740157,
                    "duration": 1.0443859999999745
                },
                {
                    "name": "F2",
                    "midi": 41,
                    "time": 408.3549259999997,
                    "velocity": 0.3858267716535433,
                    "duration": 0.5221930000000157
                },
                {
                    "name": "C#2",
                    "midi": 37,
                    "time": 408.8771189999997,
                    "velocity": 0.30708661417322836,
                    "duration": 0.5221930000000157
                },
                {
                    "name": "A#1",
                    "midi": 34,
                    "time": 409.3993119999997,
                    "velocity": 0.25196850393700787,
                    "duration": 1.0443859999999745
                },
                {
                    "name": "F2",
                    "midi": 41,
                    "time": 409.3993119999997,
                    "velocity": 0.25196850393700787,
                    "duration": 1.0443859999999745
                },
                {
                    "name": "A#2",
                    "midi": 46,
                    "time": 409.3993119999997,
                    "velocity": 0.30708661417322836,
                    "duration": 1.0443859999999745
                },
                {
                    "name": "C#2",
                    "midi": 37,
                    "time": 410.4436979999997,
                    "velocity": 0.2204724409448819,
                    "duration": 1.0443859999999745
                },
                {
                    "name": "F#2",
                    "midi": 42,
                    "time": 410.4436979999997,
                    "velocity": 0.2677165354330709,
                    "duration": 1.0443859999999745
                },
                {
                    "name": "C#3",
                    "midi": 49,
                    "time": 410.4436979999997,
                    "velocity": 0.2677165354330709,
                    "duration": 1.0443859999999745
                },
                {
                    "name": "A#1",
                    "midi": 34,
                    "time": 411.4880839999997,
                    "velocity": 0.25196850393700787,
                    "duration": 1.0443860000000313
                },
                {
                    "name": "F2",
                    "midi": 41,
                    "time": 411.4880839999997,
                    "velocity": 0.25196850393700787,
                    "duration": 1.0443860000000313
                },
                {
                    "name": "A#2",
                    "midi": 46,
                    "time": 411.4880839999997,
                    "velocity": 0.30708661417322836,
                    "duration": 1.0443860000000313
                },
                {
                    "name": "C#2",
                    "midi": 37,
                    "time": 412.5324699999997,
                    "velocity": 0.1968503937007874,
                    "duration": 1.0443860000000313
                },
                {
                    "name": "F#2",
                    "midi": 42,
                    "time": 412.5324699999997,
                    "velocity": 0.2440944881889764,
                    "duration": 1.0443860000000313
                },
                {
                    "name": "C#3",
                    "midi": 49,
                    "time": 412.5324699999997,
                    "velocity": 0.2440944881889764,
                    "duration": 1.0443860000000313
                },
                {
                    "name": "A#1",
                    "midi": 34,
                    "time": 413.57685599999974,
                    "velocity": 0.25196850393700787,
                    "duration": 1.0443860000000313
                },
                {
                    "name": "F2",
                    "midi": 41,
                    "time": 413.57685599999974,
                    "velocity": 0.25196850393700787,
                    "duration": 1.0443860000000313
                },
                {
                    "name": "A#2",
                    "midi": 46,
                    "time": 413.57685599999974,
                    "velocity": 0.30708661417322836,
                    "duration": 1.0443860000000313
                },
                {
                    "name": "C#2",
                    "midi": 37,
                    "time": 414.62124199999977,
                    "velocity": 0.2204724409448819,
                    "duration": 1.0443860000000313
                },
                {
                    "name": "F#2",
                    "midi": 42,
                    "time": 414.62124199999977,
                    "velocity": 0.2204724409448819,
                    "duration": 1.0443860000000313
                },
                {
                    "name": "C#3",
                    "midi": 49,
                    "time": 414.62124199999977,
                    "velocity": 0.2677165354330709,
                    "duration": 1.0443860000000313
                },
                {
                    "name": "A#1",
                    "midi": 34,
                    "time": 415.6656279999998,
                    "velocity": 0.25196850393700787,
                    "duration": 1.0443860000000313
                },
                {
                    "name": "F2",
                    "midi": 41,
                    "time": 415.6656279999998,
                    "velocity": 0.25196850393700787,
                    "duration": 1.0443860000000313
                },
                {
                    "name": "A#2",
                    "midi": 46,
                    "time": 415.6656279999998,
                    "velocity": 0.30708661417322836,
                    "duration": 1.0443860000000313
                },
                {
                    "name": "A1",
                    "midi": 33,
                    "time": 416.71001399999983,
                    "velocity": 0.44881889763779526,
                    "duration": 0.7832894999999667
                },
                {
                    "name": "A2",
                    "midi": 45,
                    "time": 416.71001399999983,
                    "velocity": 0.5748031496062992,
                    "duration": 0.7832894999999667
                },
                {
                    "name": "G#1",
                    "midi": 32,
                    "time": 417.4933034999998,
                    "velocity": 0.44881889763779526,
                    "duration": 0.26109650000000784
                },
                {
                    "name": "G#2",
                    "midi": 44,
                    "time": 417.4933034999998,
                    "velocity": 0.5748031496062992,
                    "duration": 0.26109650000000784
                },
                {
                    "name": "C#1",
                    "midi": 25,
                    "time": 417.7543999999998,
                    "velocity": 0.47244094488188976,
                    "duration": 1.0443860000000313
                },
                {
                    "name": "C#2",
                    "midi": 37,
                    "time": 417.7543999999998,
                    "velocity": 0.5984251968503937,
                    "duration": 1.0443860000000313
                },
                {
                    "name": "C#3",
                    "midi": 49,
                    "time": 418.79878599999984,
                    "velocity": 0.5039370078740157,
                    "duration": 0.7832894999999667
                },
                {
                    "name": "G#3",
                    "midi": 56,
                    "time": 418.79878599999984,
                    "velocity": 0.5039370078740157,
                    "duration": 0.7832894999999667
                },
                {
                    "name": "C#4",
                    "midi": 61,
                    "time": 418.79878599999984,
                    "velocity": 0.6062992125984252,
                    "duration": 0.7832894999999667
                },
                {
                    "name": "D#4",
                    "midi": 63,
                    "time": 419.5820754999998,
                    "velocity": 0.6062992125984252,
                    "duration": 0.26109650000000784
                },
                {
                    "name": "C#3",
                    "midi": 49,
                    "time": 419.8431719999998,
                    "velocity": 0.5354330708661418,
                    "duration": 0.7832894999999667
                },
                {
                    "name": "G#3",
                    "midi": 56,
                    "time": 419.8431719999998,
                    "velocity": 0.5354330708661418,
                    "duration": 0.7832894999999667
                },
                {
                    "name": "F4",
                    "midi": 65,
                    "time": 419.8431719999998,
                    "velocity": 0.6377952755905512,
                    "duration": 0.7832894999999667
                },
                {
                    "name": "F#4",
                    "midi": 66,
                    "time": 420.6264614999998,
                    "velocity": 0.6377952755905512,
                    "duration": 0.26109650000000784
                },
                {
                    "name": "D#4",
                    "midi": 63,
                    "time": 420.8875579999998,
                    "velocity": 0.5748031496062992,
                    "duration": 0.7832894999999667
                },
                {
                    "name": "G#3",
                    "midi": 56,
                    "time": 420.8875579999998,
                    "velocity": 0.5748031496062992,
                    "duration": 0.7832894999999667
                },
                {
                    "name": "G#4",
                    "midi": 68,
                    "time": 420.8875579999998,
                    "velocity": 0.6771653543307087,
                    "duration": 0.7832894999999667
                },
                {
                    "name": "F4",
                    "midi": 65,
                    "time": 421.67084749999975,
                    "velocity": 0.6692913385826772,
                    "duration": 0.26109650000000784
                },
                {
                    "name": "G#1",
                    "midi": 32,
                    "time": 421.93194399999976,
                    "velocity": 0.6141732283464567,
                    "duration": 1.0443859999999745
                },
                {
                    "name": "G#2",
                    "midi": 44,
                    "time": 421.93194399999976,
                    "velocity": 0.7244094488188977,
                    "duration": 1.0443859999999745
                },
                {
                    "name": "D#4",
                    "midi": 63,
                    "time": 422.97632999999973,
                    "velocity": 0.5433070866141733,
                    "duration": 0.7832895000000235
                },
                {
                    "name": "F#4",
                    "midi": 66,
                    "time": 422.97632999999973,
                    "velocity": 0.5433070866141733,
                    "duration": 0.7832895000000235
                },
                {
                    "name": "C5",
                    "midi": 72,
                    "time": 422.97632999999973,
                    "velocity": 0.6377952755905512,
                    "duration": 0.7832895000000235
                },
                {
                    "name": "C#4",
                    "midi": 61,
                    "time": 423.75961949999976,
                    "velocity": 0.5039370078740157,
                    "duration": 0.23498684999998432
                },
                {
                    "name": "F#4",
                    "midi": 66,
                    "time": 423.75961949999976,
                    "velocity": 0.5039370078740157,
                    "duration": 0.23498684999998432
                },
                {
                    "name": "A#4",
                    "midi": 70,
                    "time": 423.75961949999976,
                    "velocity": 0.5984251968503937,
                    "duration": 0.23498684999998432
                },
                {
                    "name": "C#4",
                    "midi": 61,
                    "time": 424.02071599999977,
                    "velocity": 0.49606299212598426,
                    "duration": 0.7832894999999667
                },
                {
                    "name": "F#4",
                    "midi": 66,
                    "time": 424.02071599999977,
                    "velocity": 0.49606299212598426,
                    "duration": 0.7832894999999667
                },
                {
                    "name": "A#4",
                    "midi": 70,
                    "time": 424.02071599999977,
                    "velocity": 0.5905511811023622,
                    "duration": 0.7832894999999667
                },
                {
                    "name": "C4",
                    "midi": 60,
                    "time": 424.80400549999973,
                    "velocity": 0.4645669291338583,
                    "duration": 0.23498684999998432
                },
                {
                    "name": "F#4",
                    "midi": 66,
                    "time": 424.80400549999973,
                    "velocity": 0.4645669291338583,
                    "duration": 0.23498684999998432
                },
                {
                    "name": "G#4",
                    "midi": 68,
                    "time": 424.80400549999973,
                    "velocity": 0.5511811023622047,
                    "duration": 0.23498684999998432
                },
                {
                    "name": "C4",
                    "midi": 60,
                    "time": 425.06510199999974,
                    "velocity": 0.4566929133858268,
                    "duration": 0.7832894999999667
                },
                {
                    "name": "F#4",
                    "midi": 66,
                    "time": 425.06510199999974,
                    "velocity": 0.4566929133858268,
                    "duration": 0.7832894999999667
                },
                {
                    "name": "G#4",
                    "midi": 68,
                    "time": 425.06510199999974,
                    "velocity": 0.5354330708661418,
                    "duration": 0.7832894999999667
                },
                {
                    "name": "A3",
                    "midi": 57,
                    "time": 425.8483914999997,
                    "velocity": 0.49606299212598426,
                    "duration": 0.26109650000000784
                },
                {
                    "name": "C4",
                    "midi": 60,
                    "time": 425.8483914999997,
                    "velocity": 0.49606299212598426,
                    "duration": 0.26109650000000784
                },
                {
                    "name": "D#4",
                    "midi": 63,
                    "time": 425.8483914999997,
                    "velocity": 0.5826771653543307,
                    "duration": 0.26109650000000784
                },
                {
                    "name": "A#1",
                    "midi": 34,
                    "time": 426.1094879999997,
                    "velocity": 0.49606299212598426,
                    "duration": 1.0443860000000313
                },
                {
                    "name": "A#2",
                    "midi": 46,
                    "time": 426.1094879999997,
                    "velocity": 0.5905511811023622,
                    "duration": 1.0443860000000313
                },
                {
                    "name": "F3",
                    "midi": 53,
                    "time": 427.15387399999975,
                    "velocity": 0.49606299212598426,
                    "duration": 1.0443860000000313
                },
                {
                    "name": "A#3",
                    "midi": 58,
                    "time": 427.15387399999975,
                    "velocity": 0.49606299212598426,
                    "duration": 1.0443860000000313
                },
                {
                    "name": "C#4",
                    "midi": 61,
                    "time": 427.15387399999975,
                    "velocity": 0.5905511811023622,
                    "duration": 1.0443860000000313
                },
                {
                    "name": "C#2",
                    "midi": 37,
                    "time": 428.1982599999998,
                    "velocity": 0.5354330708661418,
                    "duration": 1.0443859999999745
                },
                {
                    "name": "C#3",
                    "midi": 49,
                    "time": 428.1982599999998,
                    "velocity": 0.6299212598425197,
                    "duration": 1.0443859999999745
                },
                {
                    "name": "F4",
                    "midi": 65,
                    "time": 429.24264599999975,
                    "velocity": 0.5984251968503937,
                    "duration": 1.0443859999999745
                },
                {
                    "name": "C#4",
                    "midi": 61,
                    "time": 429.24264599999975,
                    "velocity": 0.5039370078740157,
                    "duration": 1.0443859999999745
                },
                {
                    "name": "A#3",
                    "midi": 58,
                    "time": 429.24264599999975,
                    "velocity": 0.5039370078740157,
                    "duration": 1.0443859999999745
                },
                {
                    "name": "F3",
                    "midi": 53,
                    "time": 429.24264599999975,
                    "velocity": 0.5039370078740157,
                    "duration": 1.0443859999999745
                },
                {
                    "name": "F1",
                    "midi": 29,
                    "time": 430.2870319999997,
                    "velocity": 0.6062992125984252,
                    "duration": 1.0443859999999745
                },
                {
                    "name": "F2",
                    "midi": 41,
                    "time": 430.2870319999997,
                    "velocity": 0.7244094488188977,
                    "duration": 1.0443859999999745
                },
                {
                    "name": "F3",
                    "midi": 53,
                    "time": 431.3314179999997,
                    "velocity": 0.5433070866141733,
                    "duration": 1.0443859999999745
                },
                {
                    "name": "A#3",
                    "midi": 58,
                    "time": 431.3314179999997,
                    "velocity": 0.5433070866141733,
                    "duration": 1.0443859999999745
                },
                {
                    "name": "C#4",
                    "midi": 61,
                    "time": 431.3314179999997,
                    "velocity": 0.5433070866141733,
                    "duration": 1.0443859999999745
                },
                {
                    "name": "G4",
                    "midi": 67,
                    "time": 431.3314179999997,
                    "velocity": 0.6377952755905512,
                    "duration": 1.0443859999999745
                },
                {
                    "name": "F3",
                    "midi": 53,
                    "time": 432.3758039999997,
                    "velocity": 0.5039370078740157,
                    "duration": 1.0443860000000313
                },
                {
                    "name": "A3",
                    "midi": 57,
                    "time": 432.3758039999997,
                    "velocity": 0.5039370078740157,
                    "duration": 1.0443860000000313
                },
                {
                    "name": "C4",
                    "midi": 60,
                    "time": 432.3758039999997,
                    "velocity": 0.5039370078740157,
                    "duration": 1.0443860000000313
                },
                {
                    "name": "A4",
                    "midi": 69,
                    "time": 432.3758039999997,
                    "velocity": 0.5905511811023622,
                    "duration": 1.0443860000000313
                },
                {
                    "name": "F3",
                    "midi": 53,
                    "time": 433.4201899999997,
                    "velocity": 0.6377952755905512,
                    "duration": 0.5221930000000157
                },
                {
                    "name": "G2",
                    "midi": 43,
                    "time": 433.9423829999997,
                    "velocity": 0.48031496062992124,
                    "duration": 0.1740643333333196
                },
                {
                    "name": "G#2",
                    "midi": 44,
                    "time": 434.11644733333304,
                    "velocity": 0.48031496062992124,
                    "duration": 0.1740643333333196
                },
                {
                    "name": "A#2",
                    "midi": 46,
                    "time": 434.29051166666636,
                    "velocity": 0.48031496062992124,
                    "duration": 0.1740643333333196
                },
                {
                    "name": "G#2",
                    "midi": 44,
                    "time": 434.4645759999997,
                    "velocity": 0.48031496062992124,
                    "duration": 0.0979111874999603
                },
                {
                    "name": "A#2",
                    "midi": 46,
                    "time": 434.56248718749964,
                    "velocity": 0.4409448818897638,
                    "duration": 0.09791118750001715
                },
                {
                    "name": "G#2",
                    "midi": 44,
                    "time": 434.66039837499966,
                    "velocity": 0.5039370078740157,
                    "duration": 0.09791118750001715
                },
                {
                    "name": "A#2",
                    "midi": 46,
                    "time": 434.7583095624997,
                    "velocity": 0.44881889763779526,
                    "duration": 0.09791118750001715
                },
                {
                    "name": "G#2",
                    "midi": 44,
                    "time": 434.8562207499997,
                    "velocity": 0.5196850393700787,
                    "duration": 0.09791118750001715
                },
                {
                    "name": "A#2",
                    "midi": 46,
                    "time": 434.9541319374997,
                    "velocity": 0.4645669291338583,
                    "duration": 0.09791118750001715
                },
                {
                    "name": "G#2",
                    "midi": 44,
                    "time": 435.0520431249997,
                    "velocity": 0.5354330708661418,
                    "duration": 0.09791118750001715
                },
                {
                    "name": "A#2",
                    "midi": 46,
                    "time": 435.14995431249974,
                    "velocity": 0.48031496062992124,
                    "duration": 0.09791118750001715
                },
                {
                    "name": "G#2",
                    "midi": 44,
                    "time": 435.24786549999976,
                    "velocity": 0.5511811023622047,
                    "duration": 0.09791118750001715
                },
                {
                    "name": "A#2",
                    "midi": 46,
                    "time": 435.3457766874998,
                    "velocity": 0.5118110236220472,
                    "duration": 0.09791118750001715
                },
                {
                    "name": "G#2",
                    "midi": 44,
                    "time": 435.4436878749998,
                    "velocity": 0.5748031496062992,
                    "duration": 0.09791118750001715
                },
                {
                    "name": "A#2",
                    "midi": 46,
                    "time": 435.5415990624998,
                    "velocity": 0.5196850393700787,
                    "duration": 0.0979111874999603
                },
                {
                    "name": "G#2",
                    "midi": 44,
                    "time": 435.6395102499998,
                    "velocity": 0.5669291338582677,
                    "duration": 0.09791118750001715
                },
                {
                    "name": "A#2",
                    "midi": 46,
                    "time": 435.73959724166644,
                    "velocity": 0.49606299212598426,
                    "duration": 0.0979111874999603
                },
                {
                    "name": "G#2",
                    "midi": 44,
                    "time": 435.83533262499975,
                    "velocity": 0.5433070866141733,
                    "duration": 0.0979111874999603
                },
                {
                    "name": "A#2",
                    "midi": 46,
                    "time": 435.9332438124997,
                    "velocity": 0.47244094488188976,
                    "duration": 0.10008699166667157
                },
                {
                    "name": "G#2",
                    "midi": 44,
                    "time": 436.0311549999997,
                    "velocity": 0.5196850393700787,
                    "duration": 0.13054825000000392
                },
                {
                    "name": "A#2",
                    "midi": 46,
                    "time": 436.16170324999973,
                    "velocity": 0.4566929133858268,
                    "duration": 0.13054825000000392
                },
                {
                    "name": "G2",
                    "midi": 43,
                    "time": 436.29225149999974,
                    "velocity": 0.5039370078740157,
                    "duration": 0.13054825000000392
                },
                {
                    "name": "G#2",
                    "midi": 44,
                    "time": 436.42279974999974,
                    "velocity": 0.4330708661417323,
                    "duration": 0.13054825000000392
                },
                {
                    "name": "C#3",
                    "midi": 49,
                    "time": 436.55334799999974,
                    "velocity": 0.5354330708661418,
                    "duration": 1.0443860000000313
                },
                {
                    "name": "C#3",
                    "midi": 49,
                    "time": 437.5977339999998,
                    "velocity": 0.5354330708661418,
                    "duration": 0.5221930000000157
                },
                {
                    "name": "E2",
                    "midi": 40,
                    "time": 438.1199269999998,
                    "velocity": 0.48031496062992124,
                    "duration": 0.1740643333333196
                },
                {
                    "name": "F2",
                    "midi": 41,
                    "time": 438.2939913333331,
                    "velocity": 0.48031496062992124,
                    "duration": 0.1740643333333196
                },
                {
                    "name": "F#2",
                    "midi": 42,
                    "time": 438.46805566666643,
                    "velocity": 0.48031496062992124,
                    "duration": 0.1740643333333196
                },
                {
                    "name": "F2",
                    "midi": 41,
                    "time": 438.64211999999975,
                    "velocity": 0.48031496062992124,
                    "duration": 0.0979111874999603
                },
                {
                    "name": "F#2",
                    "midi": 42,
                    "time": 438.7400311874997,
                    "velocity": 0.4409448818897638,
                    "duration": 0.09791118750001715
                },
                {
                    "name": "F2",
                    "midi": 41,
                    "time": 438.8379423749997,
                    "velocity": 0.5039370078740157,
                    "duration": 0.09791118750001715
                },
                {
                    "name": "F#2",
                    "midi": 42,
                    "time": 438.93585356249974,
                    "velocity": 0.44881889763779526,
                    "duration": 0.09791118750001715
                },
                {
                    "name": "F2",
                    "midi": 41,
                    "time": 439.03376474999976,
                    "velocity": 0.5196850393700787,
                    "duration": 0.09791118750001715
                },
                {
                    "name": "F#2",
                    "midi": 42,
                    "time": 439.1316759374998,
                    "velocity": 0.4645669291338583,
                    "duration": 0.09791118750001715
                },
                {
                    "name": "F2",
                    "midi": 41,
                    "time": 439.2295871249998,
                    "velocity": 0.5354330708661418,
                    "duration": 0.09791118750001715
                },
                {
                    "name": "F#2",
                    "midi": 42,
                    "time": 439.3274983124998,
                    "velocity": 0.48031496062992124,
                    "duration": 0.09791118750001715
                },
                {
                    "name": "F2",
                    "midi": 41,
                    "time": 439.42540949999983,
                    "velocity": 0.5511811023622047,
                    "duration": 0.09791118750001715
                },
                {
                    "name": "F#2",
                    "midi": 42,
                    "time": 439.52332068749985,
                    "velocity": 0.5118110236220472,
                    "duration": 0.09791118750001715
                },
                {
                    "name": "F2",
                    "midi": 41,
                    "time": 439.62123187499986,
                    "velocity": 0.5748031496062992,
                    "duration": 0.09791118750001715
                },
                {
                    "name": "F#2",
                    "midi": 42,
                    "time": 439.7191430624999,
                    "velocity": 0.5196850393700787,
                    "duration": 0.0979111874999603
                },
                {
                    "name": "F2",
                    "midi": 41,
                    "time": 439.81705424999984,
                    "velocity": 0.5669291338582677,
                    "duration": 0.09791118750001715
                },
                {
                    "name": "F#2",
                    "midi": 42,
                    "time": 439.9171412416665,
                    "velocity": 0.49606299212598426,
                    "duration": 0.0979111874999603
                },
                {
                    "name": "F2",
                    "midi": 41,
                    "time": 440.0128766249998,
                    "velocity": 0.5433070866141733,
                    "duration": 0.0979111874999603
                },
                {
                    "name": "F#2",
                    "midi": 42,
                    "time": 440.1107878124998,
                    "velocity": 0.47244094488188976,
                    "duration": 0.10008699166667157
                },
                {
                    "name": "F2",
                    "midi": 41,
                    "time": 440.2086989999998,
                    "velocity": 0.5196850393700787,
                    "duration": 0.13054825000000392
                },
                {
                    "name": "F#2",
                    "midi": 42,
                    "time": 440.3392472499998,
                    "velocity": 0.4566929133858268,
                    "duration": 0.13054825000000392
                },
                {
                    "name": "E2",
                    "midi": 40,
                    "time": 440.4697954999998,
                    "velocity": 0.5039370078740157,
                    "duration": 0.13054825000000392
                },
                {
                    "name": "F2",
                    "midi": 41,
                    "time": 440.6003437499998,
                    "velocity": 0.4330708661417323,
                    "duration": 0.13054825000000392
                },
                {
                    "name": "F#2",
                    "midi": 42,
                    "time": 440.7308919999998,
                    "velocity": 0.5039370078740157,
                    "duration": 1.0443859999999745
                },
                {
                    "name": "F2",
                    "midi": 41,
                    "time": 441.7752779999998,
                    "velocity": 0.3700787401574803,
                    "duration": 0.5221930000000157
                },
                {
                    "name": "C#2",
                    "midi": 37,
                    "time": 442.2974709999998,
                    "velocity": 0.30708661417322836,
                    "duration": 0.5221930000000157
                },
                {
                    "name": "A#1",
                    "midi": 34,
                    "time": 442.8196639999998,
                    "velocity": 0.25196850393700787,
                    "duration": 1.0443860000000313
                },
                {
                    "name": "F2",
                    "midi": 41,
                    "time": 442.8196639999998,
                    "velocity": 0.25196850393700787,
                    "duration": 1.0443860000000313
                },
                {
                    "name": "A#2",
                    "midi": 46,
                    "time": 442.8196639999998,
                    "velocity": 0.30708661417322836,
                    "duration": 1.0443860000000313
                },
                {
                    "name": "C#2",
                    "midi": 37,
                    "time": 443.86404999999985,
                    "velocity": 0.2204724409448819,
                    "duration": 1.0443859999999745
                },
                {
                    "name": "F#2",
                    "midi": 42,
                    "time": 443.86404999999985,
                    "velocity": 0.2677165354330709,
                    "duration": 1.0443859999999745
                },
                {
                    "name": "C#3",
                    "midi": 49,
                    "time": 443.86404999999985,
                    "velocity": 0.2677165354330709,
                    "duration": 1.0443859999999745
                },
                {
                    "name": "A#1",
                    "midi": 34,
                    "time": 444.9084359999998,
                    "velocity": 0.25196850393700787,
                    "duration": 1.0443860000000313
                },
                {
                    "name": "F2",
                    "midi": 41,
                    "time": 444.9084359999998,
                    "velocity": 0.25196850393700787,
                    "duration": 1.0443860000000313
                },
                {
                    "name": "A#2",
                    "midi": 46,
                    "time": 444.9084359999998,
                    "velocity": 0.30708661417322836,
                    "duration": 1.0443860000000313
                },
                {
                    "name": "C#2",
                    "midi": 37,
                    "time": 445.95282199999986,
                    "velocity": 0.16535433070866143,
                    "duration": 1.0443859999999745
                },
                {
                    "name": "F#2",
                    "midi": 42,
                    "time": 445.95282199999986,
                    "velocity": 0.2047244094488189,
                    "duration": 1.0443859999999745
                },
                {
                    "name": "C#3",
                    "midi": 49,
                    "time": 445.95282199999986,
                    "velocity": 0.2047244094488189,
                    "duration": 1.0443859999999745
                },
                {
                    "name": "A#1",
                    "midi": 34,
                    "time": 446.99720799999983,
                    "velocity": 0.2047244094488189,
                    "duration": 1.0443859999999745
                },
                {
                    "name": "F2",
                    "midi": 41,
                    "time": 446.99720799999983,
                    "velocity": 0.2047244094488189,
                    "duration": 1.0443859999999745
                },
                {
                    "name": "A#2",
                    "midi": 46,
                    "time": 446.99720799999983,
                    "velocity": 0.2440944881889764,
                    "duration": 1.0443859999999745
                },
                {
                    "name": "C#2",
                    "midi": 37,
                    "time": 448.0415939999998,
                    "velocity": 0.1732283464566929,
                    "duration": 1.0443860000000313
                },
                {
                    "name": "F#2",
                    "midi": 42,
                    "time": 448.0415939999998,
                    "velocity": 0.1732283464566929,
                    "duration": 1.0443860000000313
                },
                {
                    "name": "C#3",
                    "midi": 49,
                    "time": 448.0415939999998,
                    "velocity": 0.2125984251968504,
                    "duration": 1.0335069791667024
                },
                {
                    "name": "A#1",
                    "midi": 34,
                    "time": 449.08597999999984,
                    "velocity": 0.15748031496062992,
                    "duration": 2.088772000000006
                },
                {
                    "name": "F2",
                    "midi": 41,
                    "time": 449.08597999999984,
                    "velocity": 0.1889763779527559,
                    "duration": 2.088772000000006
                }
            ],
            "controlChanges": {
                "7": [
                    {
                        "number": 7,
                        "time": 0,
                        "value": 0.7874015748031497
                    }
                ],
                "10": [
                    {
                        "number": 10,
                        "time": 0,
                        "value": 0.5039370078740157
                    }
                ],
                "64": [
                    {
                        "number": 64,
                        "time": 0.07615314583333334,
                        "value": 1
                    },
                    {
                        "number": 64,
                        "time": 1.0857262791666666,
                        "value": 0
                    },
                    {
                        "number": 64,
                        "time": 1.3664050166666666,
                        "value": 1
                    },
                    {
                        "number": 64,
                        "time": 2.1301122791666667,
                        "value": 0
                    },
                    {
                        "number": 64,
                        "time": 2.4564829041666667,
                        "value": 1
                    },
                    {
                        "number": 64,
                        "time": 3.1679708666666664,
                        "value": 0
                    },
                    {
                        "number": 64,
                        "time": 3.5008689041666665,
                        "value": 1
                    },
                    {
                        "number": 64,
                        "time": 4.177544,
                        "value": 0
                    },
                    {
                        "number": 64,
                        "time": 4.453871129166667,
                        "value": 1
                    },
                    {
                        "number": 64,
                        "time": 5.2545670625000005,
                        "value": 0
                    },
                    {
                        "number": 64,
                        "time": 5.683200483333334,
                        "value": 1
                    },
                    {
                        "number": 64,
                        "time": 6.305480475,
                        "value": 0
                    },
                    {
                        "number": 64,
                        "time": 6.681894595833334,
                        "value": 1
                    },
                    {
                        "number": 64,
                        "time": 7.352042279166667,
                        "value": 0
                    },
                    {
                        "number": 64,
                        "time": 7.741511225,
                        "value": 1
                    },
                    {
                        "number": 64,
                        "time": 8.379021845833334,
                        "value": 0
                    },
                    {
                        "number": 64,
                        "time": 8.616184500000001,
                        "value": 1
                    },
                    {
                        "number": 64,
                        "time": 9.4321110625,
                        "value": 0
                    },
                    {
                        "number": 64,
                        "time": 9.799821966666668,
                        "value": 1
                    },
                    {
                        "number": 64,
                        "time": 10.478672866666667,
                        "value": 0
                    },
                    {
                        "number": 64,
                        "time": 10.935591741666666,
                        "value": 1
                    },
                    {
                        "number": 64,
                        "time": 11.527410475,
                        "value": 0
                    },
                    {
                        "number": 64,
                        "time": 11.7493425,
                        "value": 1
                    },
                    {
                        "number": 64,
                        "time": 12.554390041666666,
                        "value": 0
                    },
                    {
                        "number": 64,
                        "time": 12.702344725,
                        "value": 1
                    },
                    {
                        "number": 64,
                        "time": 13.618358279166666,
                        "value": 0
                    },
                    {
                        "number": 64,
                        "time": 13.899037016666666,
                        "value": 1
                    },
                    {
                        "number": 64,
                        "time": 14.660568475,
                        "value": 0
                    },
                    {
                        "number": 64,
                        "time": 14.867269870833333,
                        "value": 1
                    },
                    {
                        "number": 64,
                        "time": 15.707130279166666,
                        "value": 0
                    },
                    {
                        "number": 64,
                        "time": 15.972578387499999,
                        "value": 1
                    },
                    {
                        "number": 64,
                        "time": 16.73410984583333,
                        "value": 0
                    },
                    {
                        "number": 64,
                        "time": 16.86465809583333,
                        "value": 1
                    },
                    {
                        "number": 64,
                        "time": 17.77632004166666,
                        "value": 0
                    },
                    {
                        "number": 64,
                        "time": 18.100514862499995,
                        "value": 1
                    },
                    {
                        "number": 64,
                        "time": 18.838112474999996,
                        "value": 0
                    },
                    {
                        "number": 64,
                        "time": 19.04481387083333,
                        "value": 1
                    },
                    {
                        "number": 64,
                        "time": 19.897729104166665,
                        "value": 0
                    },
                    {
                        "number": 64,
                        "time": 20.013046725,
                        "value": 1
                    },
                    {
                        "number": 64,
                        "time": 20.907302237499998,
                        "value": 0
                    },
                    {
                        "number": 64,
                        "time": 21.057432724999998,
                        "value": 1
                    },
                    {
                        "number": 64,
                        "time": 21.96256725833333,
                        "value": 0
                    },
                    {
                        "number": 64,
                        "time": 22.162741241666662,
                        "value": 1
                    },
                    {
                        "number": 64,
                        "time": 23.015656474999997,
                        "value": 0
                    },
                    {
                        "number": 64,
                        "time": 23.283280387499996,
                        "value": 1
                    },
                    {
                        "number": 64,
                        "time": 24.062218279166665,
                        "value": 0
                    },
                    {
                        "number": 64,
                        "time": 24.221051983333332,
                        "value": 1
                    },
                    {
                        "number": 64,
                        "time": 25.0848462375,
                        "value": 0
                    },
                    {
                        "number": 64,
                        "time": 25.241504137499998,
                        "value": 1
                    },
                    {
                        "number": 64,
                        "time": 26.148814475,
                        "value": 0
                    },
                    {
                        "number": 64,
                        "time": 26.279362725,
                        "value": 1
                    },
                    {
                        "number": 64,
                        "time": 27.195376279166666,
                        "value": 0
                    },
                    {
                        "number": 64,
                        "time": 27.3302761375,
                        "value": 1
                    },
                    {
                        "number": 64,
                        "time": 28.2310590625,
                        "value": 0
                    },
                    {
                        "number": 64,
                        "time": 28.33767346666667,
                        "value": 1
                    },
                    {
                        "number": 64,
                        "time": 29.26456604166667,
                        "value": 0
                    },
                    {
                        "number": 64,
                        "time": 29.318961145833335,
                        "value": 1
                    },
                    {
                        "number": 64,
                        "time": 30.3198310625,
                        "value": 0
                    },
                    {
                        "number": 64,
                        "time": 30.463434137500002,
                        "value": 1
                    },
                    {
                        "number": 64,
                        "time": 31.370744475000002,
                        "value": 0
                    },
                    {
                        "number": 64,
                        "time": 31.462128250000003,
                        "value": 1
                    },
                    {
                        "number": 64,
                        "time": 32.389020825,
                        "value": 0
                    },
                    {
                        "number": 64,
                        "time": 32.491283620833336,
                        "value": 1
                    },
                    {
                        "number": 64,
                        "time": 33.44646165,
                        "value": 0
                    },
                    {
                        "number": 64,
                        "time": 33.55960346666667,
                        "value": 1
                    },
                    {
                        "number": 64,
                        "time": 34.495199258333336,
                        "value": 0
                    },
                    {
                        "number": 64,
                        "time": 34.7715263875,
                        "value": 1
                    },
                    {
                        "number": 64,
                        "time": 35.537409454166664,
                        "value": 0
                    },
                    {
                        "number": 64,
                        "time": 35.80068175833333,
                        "value": 1
                    },
                    {
                        "number": 64,
                        "time": 36.579619650000005,
                        "value": 0
                    },
                    {
                        "number": 64,
                        "time": 36.73845335416667,
                        "value": 1
                    },
                    {
                        "number": 64,
                        "time": 37.62400565000001,
                        "value": 0
                    },
                    {
                        "number": 64,
                        "time": 37.84376187083334,
                        "value": 1
                    },
                    {
                        "number": 64,
                        "time": 38.68144647500001,
                        "value": 0
                    },
                    {
                        "number": 64,
                        "time": 39.042629966666674,
                        "value": 1
                    },
                    {
                        "number": 64,
                        "time": 39.719305062500005,
                        "value": 0
                    },
                    {
                        "number": 64,
                        "time": 40.06960953333334,
                        "value": 1
                    },
                    {
                        "number": 64,
                        "time": 40.76151525833334,
                        "value": 0
                    },
                    {
                        "number": 64,
                        "time": 41.03784238750001,
                        "value": 1
                    },
                    {
                        "number": 64,
                        "time": 41.79284643333334,
                        "value": 0
                    },
                    {
                        "number": 64,
                        "time": 41.914691466666675,
                        "value": 1
                    },
                    {
                        "number": 64,
                        "time": 42.858990475000006,
                        "value": 0
                    },
                    {
                        "number": 64,
                        "time": 42.99606613750001,
                        "value": 1
                    },
                    {
                        "number": 64,
                        "time": 43.90555227916668,
                        "value": 0
                    },
                    {
                        "number": 64,
                        "time": 44.00999087916668,
                        "value": 1
                    },
                    {
                        "number": 64,
                        "time": 44.934707650000014,
                        "value": 0
                    },
                    {
                        "number": 64,
                        "time": 45.10006876666668,
                        "value": 1
                    },
                    {
                        "number": 64,
                        "time": 45.97691784583335,
                        "value": 0
                    },
                    {
                        "number": 64,
                        "time": 46.098762879166685,
                        "value": 1
                    },
                    {
                        "number": 64,
                        "time": 47.03218286666669,
                        "value": 0
                    },
                    {
                        "number": 64,
                        "time": 47.12791825000002,
                        "value": 1
                    },
                    {
                        "number": 64,
                        "time": 48.07221725833335,
                        "value": 0
                    },
                    {
                        "number": 64,
                        "time": 48.333313758333354,
                        "value": 1
                    },
                    {
                        "number": 64,
                        "time": 49.10137262916669,
                        "value": 0
                    },
                    {
                        "number": 64,
                        "time": 49.41686423333336,
                        "value": 1
                    },
                    {
                        "number": 64,
                        "time": 50.15446184583336,
                        "value": 0
                    },
                    {
                        "number": 64,
                        "time": 50.45254701666669,
                        "value": 1
                    },
                    {
                        "number": 64,
                        "time": 51.211902670833354,
                        "value": 0
                    },
                    {
                        "number": 64,
                        "time": 51.590492595833354,
                        "value": 1
                    },
                    {
                        "number": 64,
                        "time": 52.25193706250002,
                        "value": 0
                    },
                    {
                        "number": 64,
                        "time": 52.52608838750002,
                        "value": 1
                    },
                    {
                        "number": 64,
                        "time": 53.29414725833335,
                        "value": 0
                    },
                    {
                        "number": 64,
                        "time": 53.60093564583335,
                        "value": 1
                    },
                    {
                        "number": 64,
                        "time": 54.33200584583335,
                        "value": 0
                    },
                    {
                        "number": 64,
                        "time": 54.64532164583335,
                        "value": 1
                    },
                    {
                        "number": 64,
                        "time": 55.389446670833344,
                        "value": 0
                    },
                    {
                        "number": 64,
                        "time": 55.65924638750001,
                        "value": 1
                    },
                    {
                        "number": 64,
                        "time": 56.42730525833335,
                        "value": 0
                    },
                    {
                        "number": 64,
                        "time": 56.65794050000002,
                        "value": 1
                    },
                    {
                        "number": 64,
                        "time": 57.48257027916669,
                        "value": 0
                    },
                    {
                        "number": 64,
                        "time": 57.68709587083335,
                        "value": 1
                    },
                    {
                        "number": 64,
                        "time": 58.513901454166685,
                        "value": 0
                    },
                    {
                        "number": 64,
                        "time": 58.746712500000015,
                        "value": 1
                    },
                    {
                        "number": 64,
                        "time": 59.571342279166686,
                        "value": 0
                    },
                    {
                        "number": 64,
                        "time": 59.77586787083335,
                        "value": 1
                    },
                    {
                        "number": 64,
                        "time": 60.61572827916669,
                        "value": 0
                    },
                    {
                        "number": 64,
                        "time": 60.78979261250002,
                        "value": 1
                    },
                    {
                        "number": 64,
                        "time": 61.66011427916669,
                        "value": 0
                    },
                    {
                        "number": 64,
                        "time": 61.86463987083336,
                        "value": 1
                    },
                    {
                        "number": 64,
                        "time": 62.68709384583336,
                        "value": 0
                    },
                    {
                        "number": 64,
                        "time": 62.90032265416669,
                        "value": 1
                    },
                    {
                        "number": 64,
                        "time": 64.78892067083336,
                        "value": 0
                    },
                    {
                        "number": 64,
                        "time": 65.07612682083337,
                        "value": 1
                    },
                    {
                        "number": 64,
                        "time": 65.8311308666667,
                        "value": 0
                    },
                    {
                        "number": 64,
                        "time": 66.0073710041667,
                        "value": 1
                    },
                    {
                        "number": 64,
                        "time": 66.86681365000003,
                        "value": 0
                    },
                    {
                        "number": 64,
                        "time": 67.02782315833336,
                        "value": 1
                    },
                    {
                        "number": 64,
                        "time": 67.91555125833337,
                        "value": 0
                    },
                    {
                        "number": 64,
                        "time": 68.0830881791667,
                        "value": 1
                    },
                    {
                        "number": 64,
                        "time": 68.96646467083336,
                        "value": 0
                    },
                    {
                        "number": 64,
                        "time": 69.21450634583336,
                        "value": 1
                    },
                    {
                        "number": 64,
                        "time": 70.01085067083336,
                        "value": 0
                    },
                    {
                        "number": 64,
                        "time": 70.14792633333336,
                        "value": 1
                    },
                    {
                        "number": 64,
                        "time": 71.04435765000002,
                        "value": 0
                    },
                    {
                        "number": 64,
                        "time": 71.29457512916669,
                        "value": 1
                    },
                    {
                        "number": 64,
                        "time": 73.14400867083336,
                        "value": 0
                    },
                    {
                        "number": 64,
                        "time": 73.36811650000003,
                        "value": 1
                    },
                    {
                        "number": 64,
                        "time": 74.17751565000002,
                        "value": 0
                    },
                    {
                        "number": 64,
                        "time": 74.71711508333335,
                        "value": 1
                    },
                    {
                        "number": 64,
                        "time": 75.21972584583335,
                        "value": 0
                    },
                    {
                        "number": 64,
                        "time": 75.28282416666669,
                        "value": 1
                    },
                    {
                        "number": 64,
                        "time": 76.27716667083338,
                        "value": 0
                    },
                    {
                        "number": 64,
                        "time": 76.37072625000005,
                        "value": 1
                    },
                    {
                        "number": 64,
                        "time": 77.30414623750008,
                        "value": 0
                    },
                    {
                        "number": 64,
                        "time": 77.52172665416674,
                        "value": 1
                    },
                    {
                        "number": 64,
                        "time": 78.34200482500007,
                        "value": 0
                    },
                    {
                        "number": 64,
                        "time": 78.91424132083341,
                        "value": 1
                    },
                    {
                        "number": 64,
                        "time": 79.41032467083342,
                        "value": 0
                    },
                    {
                        "number": 64,
                        "time": 79.47995040416674,
                        "value": 1
                    },
                    {
                        "number": 64,
                        "time": 80.4568864750001,
                        "value": 0
                    },
                    {
                        "number": 64,
                        "time": 80.51780899166677,
                        "value": 1
                    },
                    {
                        "number": 64,
                        "time": 81.48604184583345,
                        "value": 0
                    },
                    {
                        "number": 64,
                        "time": 81.68621582916678,
                        "value": 1
                    },
                    {
                        "number": 64,
                        "time": 83.56828643333345,
                        "value": 0
                    },
                    {
                        "number": 64,
                        "time": 83.57263804166679,
                        "value": 0
                    },
                    {
                        "number": 64,
                        "time": 83.6901314666668,
                        "value": 1
                    },
                    {
                        "number": 64,
                        "time": 84.62572725833347,
                        "value": 0
                    },
                    {
                        "number": 64,
                        "time": 84.90205438750013,
                        "value": 1
                    },
                    {
                        "number": 64,
                        "time": 85.66358584583345,
                        "value": 0
                    },
                    {
                        "number": 64,
                        "time": 85.93120975833345,
                        "value": 1
                    },
                    {
                        "number": 64,
                        "time": 86.71232345416678,
                        "value": 0
                    },
                    {
                        "number": 64,
                        "time": 86.86898135416678,
                        "value": 1
                    },
                    {
                        "number": 64,
                        "time": 87.75018204166679,
                        "value": 0
                    },
                    {
                        "number": 64,
                        "time": 87.97428987083346,
                        "value": 1
                    },
                    {
                        "number": 64,
                        "time": 88.80762286666679,
                        "value": 0
                    },
                    {
                        "number": 64,
                        "time": 89.17315796666679,
                        "value": 1
                    },
                    {
                        "number": 64,
                        "time": 89.84983306250012,
                        "value": 0
                    },
                    {
                        "number": 64,
                        "time": 90.20013753333346,
                        "value": 1
                    },
                    {
                        "number": 64,
                        "time": 90.89204325833346,
                        "value": 0
                    },
                    {
                        "number": 64,
                        "time": 91.10744787083345,
                        "value": 1
                    },
                    {
                        "number": 64,
                        "time": 91.93207765000011,
                        "value": 0
                    },
                    {
                        "number": 64,
                        "time": 92.07568072500011,
                        "value": 1
                    },
                    {
                        "number": 64,
                        "time": 92.99169427916678,
                        "value": 0
                    },
                    {
                        "number": 64,
                        "time": 93.19621987083345,
                        "value": 1
                    },
                    {
                        "number": 64,
                        "time": 94.03608027916677,
                        "value": 0
                    },
                    {
                        "number": 64,
                        "time": 94.2101446125001,
                        "value": 1
                    },
                    {
                        "number": 64,
                        "time": 95.08046627916676,
                        "value": 0
                    },
                    {
                        "number": 64,
                        "time": 95.28499187083342,
                        "value": 1
                    },
                    {
                        "number": 64,
                        "time": 96.10744584583341,
                        "value": 0
                    },
                    {
                        "number": 64,
                        "time": 96.32067465416674,
                        "value": 1
                    },
                    {
                        "number": 64,
                        "time": 98.21144847500007,
                        "value": 0
                    },
                    {
                        "number": 64,
                        "time": 98.4964788208334,
                        "value": 1
                    },
                    {
                        "number": 64,
                        "time": 99.25148286666673,
                        "value": 0
                    },
                    {
                        "number": 64,
                        "time": 99.42772300416674,
                        "value": 1
                    },
                    {
                        "number": 64,
                        "time": 100.28716565000006,
                        "value": 0
                    },
                    {
                        "number": 64,
                        "time": 100.4481751583334,
                        "value": 1
                    },
                    {
                        "number": 64,
                        "time": 101.3359032583334,
                        "value": 0
                    },
                    {
                        "number": 64,
                        "time": 101.50344017916673,
                        "value": 1
                    },
                    {
                        "number": 64,
                        "time": 102.37811345416672,
                        "value": 0
                    },
                    {
                        "number": 64,
                        "time": 102.6348583458334,
                        "value": 1
                    },
                    {
                        "number": 64,
                        "time": 103.43555427916672,
                        "value": 0
                    },
                    {
                        "number": 64,
                        "time": 103.5682783333334,
                        "value": 1
                    },
                    {
                        "number": 64,
                        "time": 104.46253384583339,
                        "value": 0
                    },
                    {
                        "number": 64,
                        "time": 104.71492712916672,
                        "value": 1
                    },
                    {
                        "number": 64,
                        "time": 106.56653647500006,
                        "value": 0
                    },
                    {
                        "number": 64,
                        "time": 106.92771996666673,
                        "value": 1
                    },
                    {
                        "number": 64,
                        "time": 107.95687533750007,
                        "value": 0
                    },
                    {
                        "number": 64,
                        "time": 108.13746708333339,
                        "value": 1
                    },
                    {
                        "number": 64,
                        "time": 108.63572623750007,
                        "value": 0
                    },
                    {
                        "number": 64,
                        "time": 108.70317616666674,
                        "value": 1
                    },
                    {
                        "number": 64,
                        "time": 109.68663965000009,
                        "value": 0
                    },
                    {
                        "number": 64,
                        "time": 109.75408957916676,
                        "value": 1
                    },
                    {
                        "number": 64,
                        "time": 110.72449823750013,
                        "value": 0
                    },
                    {
                        "number": 64,
                        "time": 110.94207865416679,
                        "value": 1
                    },
                    {
                        "number": 64,
                        "time": 112.12354031666679,
                        "value": 0
                    },
                    {
                        "number": 64,
                        "time": 112.33459332083346,
                        "value": 1
                    },
                    {
                        "number": 64,
                        "time": 112.83285247500014,
                        "value": 0
                    },
                    {
                        "number": 64,
                        "time": 112.8937749916668,
                        "value": 1
                    },
                    {
                        "number": 64,
                        "time": 113.87288686666683,
                        "value": 0
                    },
                    {
                        "number": 64,
                        "time": 113.93816099166683,
                        "value": 1
                    },
                    {
                        "number": 64,
                        "time": 114.90639384583352,
                        "value": 0
                    },
                    {
                        "number": 64,
                        "time": 115.10656782916685,
                        "value": 1
                    },
                    {
                        "number": 64,
                        "time": 116.97123200000019,
                        "value": 0
                    },
                    {
                        "number": 64,
                        "time": 116.99516584583351,
                        "value": 0
                    },
                    {
                        "number": 64,
                        "time": 117.11048346666685,
                        "value": 1
                    },
                    {
                        "number": 64,
                        "time": 118.04607925833352,
                        "value": 0
                    },
                    {
                        "number": 64,
                        "time": 118.32240638750018,
                        "value": 1
                    },
                    {
                        "number": 64,
                        "time": 119.0839378458335,
                        "value": 0
                    },
                    {
                        "number": 64,
                        "time": 119.3515617583335,
                        "value": 1
                    },
                    {
                        "number": 64,
                        "time": 120.11962062916683,
                        "value": 0
                    },
                    {
                        "number": 64,
                        "time": 120.28933335416683,
                        "value": 1
                    },
                    {
                        "number": 64,
                        "time": 121.17053404166684,
                        "value": 0
                    },
                    {
                        "number": 64,
                        "time": 121.39464187083351,
                        "value": 1
                    },
                    {
                        "number": 64,
                        "time": 122.23232647500018,
                        "value": 0
                    },
                    {
                        "number": 64,
                        "time": 122.59350996666684,
                        "value": 1
                    },
                    {
                        "number": 64,
                        "time": 123.27018506250018,
                        "value": 0
                    },
                    {
                        "number": 64,
                        "time": 123.62048953333351,
                        "value": 1
                    },
                    {
                        "number": 64,
                        "time": 124.32545008333351,
                        "value": 0
                    },
                    {
                        "number": 64,
                        "time": 125.51126335416684,
                        "value": 1
                    },
                    {
                        "number": 64,
                        "time": 129.52997365000016,
                        "value": 0
                    },
                    {
                        "number": 64,
                        "time": 129.78019112916684,
                        "value": 1
                    },
                    {
                        "number": 64,
                        "time": 133.71186925833342,
                        "value": 0
                    },
                    {
                        "number": 64,
                        "time": 134.08175596666675,
                        "value": 1
                    },
                    {
                        "number": 64,
                        "time": 137.88941325833332,
                        "value": 0
                    },
                    {
                        "number": 64,
                        "time": 138.1657403875,
                        "value": 1
                    },
                    {
                        "number": 64,
                        "time": 142.06042984583326,
                        "value": 0
                    },
                    {
                        "number": 64,
                        "time": 142.33458117083325,
                        "value": 1
                    },
                    {
                        "number": 64,
                        "time": 144.1622566708332,
                        "value": 0
                    },
                    {
                        "number": 64,
                        "time": 144.41682575833318,
                        "value": 1
                    },
                    {
                        "number": 64,
                        "time": 146.2401496499998,
                        "value": 0
                    },
                    {
                        "number": 64,
                        "time": 146.41421398333313,
                        "value": 1
                    },
                    {
                        "number": 64,
                        "time": 148.32892164999976,
                        "value": 0
                    },
                    {
                        "number": 64,
                        "time": 148.51386500416643,
                        "value": 1
                    },
                    {
                        "number": 64,
                        "time": 150.1740035833331,
                        "value": 0
                    },
                    {
                        "number": 64,
                        "time": 150.29802442083312,
                        "value": 1
                    },
                    {
                        "number": 64,
                        "time": 152.5216962791664,
                        "value": 0
                    },
                    {
                        "number": 64,
                        "time": 152.61090424999975,
                        "value": 1
                    },
                    {
                        "number": 64,
                        "time": 154.6039408666664,
                        "value": 0
                    },
                    {
                        "number": 64,
                        "time": 154.9999372249997,
                        "value": 1
                    },
                    {
                        "number": 64,
                        "time": 156.69053706249966,
                        "value": 0
                    },
                    {
                        "number": 64,
                        "time": 157.08870922499966,
                        "value": 1
                    },
                    {
                        "number": 64,
                        "time": 158.76843004166628,
                        "value": 0
                    },
                    {
                        "number": 64,
                        "time": 159.02299912916627,
                        "value": 1
                    },
                    {
                        "number": 64,
                        "time": 162.94597404166618,
                        "value": 0
                    },
                    {
                        "number": 64,
                        "time": 163.20054312916616,
                        "value": 1
                    },
                    {
                        "number": 64,
                        "time": 167.13222125833275,
                        "value": 0
                    },
                    {
                        "number": 64,
                        "time": 167.50210796666607,
                        "value": 1
                    },
                    {
                        "number": 64,
                        "time": 171.30323784583265,
                        "value": 0
                    },
                    {
                        "number": 64,
                        "time": 171.58609238749932,
                        "value": 1
                    },
                    {
                        "number": 64,
                        "time": 175.48295764999924,
                        "value": 0
                    },
                    {
                        "number": 64,
                        "time": 175.75493317083257,
                        "value": 1
                    },
                    {
                        "number": 64,
                        "time": 177.5826086708325,
                        "value": 0
                    },
                    {
                        "number": 64,
                        "time": 177.9677260083325,
                        "value": 1
                    },
                    {
                        "number": 64,
                        "time": 179.66050164999913,
                        "value": 0
                    },
                    {
                        "number": 64,
                        "time": 179.8519724166658,
                        "value": 1
                    },
                    {
                        "number": 64,
                        "time": 181.74927364999908,
                        "value": 0
                    },
                    {
                        "number": 64,
                        "time": 181.90375574583243,
                        "value": 1
                    },
                    {
                        "number": 64,
                        "time": 183.59653138749908,
                        "value": 0
                    },
                    {
                        "number": 64,
                        "time": 183.68791516249908,
                        "value": 1
                    },
                    {
                        "number": 64,
                        "time": 185.93987247499905,
                        "value": 0
                    },
                    {
                        "number": 64,
                        "time": 186.03125624999905,
                        "value": 1
                    },
                    {
                        "number": 64,
                        "time": 188.02646867083234,
                        "value": 0
                    },
                    {
                        "number": 64,
                        "time": 188.420289224999,
                        "value": 1
                    },
                    {
                        "number": 64,
                        "time": 190.11088906249896,
                        "value": 0
                    },
                    {
                        "number": 64,
                        "time": 190.50906122499896,
                        "value": 1
                    },
                    {
                        "number": 64,
                        "time": 192.20836427916558,
                        "value": 0
                    },
                    {
                        "number": 64,
                        "time": 192.5347349041656,
                        "value": 1
                    },
                    {
                        "number": 64,
                        "time": 196.37067764999884,
                        "value": 0
                    },
                    {
                        "number": 64,
                        "time": 196.71445470833217,
                        "value": 1
                    },
                    {
                        "number": 64,
                        "time": 200.55257325833207,
                        "value": 0
                    },
                    {
                        "number": 64,
                        "time": 200.9224599666654,
                        "value": 1
                    },
                    {
                        "number": 64,
                        "time": 204.73882047499865,
                        "value": 0
                    },
                    {
                        "number": 64,
                        "time": 205.00644438749865,
                        "value": 1
                    },
                    {
                        "number": 64,
                        "time": 206.8210650624986,
                        "value": 0
                    },
                    {
                        "number": 64,
                        "time": 207.24969848333194,
                        "value": 1
                    },
                    {
                        "number": 64,
                        "time": 208.9076612583319,
                        "value": 0
                    },
                    {
                        "number": 64,
                        "time": 209.1752851708319,
                        "value": 1
                    },
                    {
                        "number": 64,
                        "time": 211.00296067083184,
                        "value": 0
                    },
                    {
                        "number": 64,
                        "time": 211.38807800833183,
                        "value": 1
                    },
                    {
                        "number": 64,
                        "time": 213.0786778458318,
                        "value": 0
                    },
                    {
                        "number": 64,
                        "time": 213.1765890333318,
                        "value": 1
                    },
                    {
                        "number": 64,
                        "time": 215.17832886666508,
                        "value": 0
                    },
                    {
                        "number": 64,
                        "time": 215.33498676666508,
                        "value": 1
                    },
                    {
                        "number": 64,
                        "time": 217.26057345416507,
                        "value": 0
                    },
                    {
                        "number": 64,
                        "time": 217.35413303333175,
                        "value": 1
                    },
                    {
                        "number": 64,
                        "time": 219.35587286666504,
                        "value": 0
                    },
                    {
                        "number": 64,
                        "time": 219.51253076666504,
                        "value": 1
                    },
                    {
                        "number": 64,
                        "time": 221.43594164999834,
                        "value": 0
                    },
                    {
                        "number": 64,
                        "time": 221.633939829165,
                        "value": 1
                    },
                    {
                        "number": 64,
                        "time": 223.52253784583164,
                        "value": 0
                    },
                    {
                        "number": 64,
                        "time": 223.69660217916496,
                        "value": 1
                    },
                    {
                        "number": 64,
                        "time": 225.61783725833158,
                        "value": 0
                    },
                    {
                        "number": 64,
                        "time": 225.83324187083159,
                        "value": 1
                    },
                    {
                        "number": 64,
                        "time": 229.7888538458315,
                        "value": 0
                    },
                    {
                        "number": 64,
                        "time": 230.04124712916484,
                        "value": 1
                    },
                    {
                        "number": 64,
                        "time": 233.97292525833143,
                        "value": 0
                    },
                    {
                        "number": 64,
                        "time": 234.34281196666475,
                        "value": 1
                    },
                    {
                        "number": 64,
                        "time": 238.14176604166465,
                        "value": 0
                    },
                    {
                        "number": 64,
                        "time": 238.42679638749797,
                        "value": 1
                    },
                    {
                        "number": 64,
                        "time": 242.32148584583123,
                        "value": 0
                    },
                    {
                        "number": 64,
                        "time": 242.59563717083122,
                        "value": 1
                    },
                    {
                        "number": 64,
                        "time": 244.42331267083117,
                        "value": 0
                    },
                    {
                        "number": 64,
                        "time": 244.80843000833116,
                        "value": 1
                    },
                    {
                        "number": 64,
                        "time": 246.49902984583113,
                        "value": 0
                    },
                    {
                        "number": 64,
                        "time": 246.69920382916447,
                        "value": 1
                    },
                    {
                        "number": 64,
                        "time": 248.5878018458311,
                        "value": 0
                    },
                    {
                        "number": 64,
                        "time": 248.7509871583311,
                        "value": 1
                    },
                    {
                        "number": 64,
                        "time": 250.43070797499774,
                        "value": 0
                    },
                    {
                        "number": 64,
                        "time": 250.4916304916644,
                        "value": 1
                    },
                    {
                        "number": 64,
                        "time": 252.78275227916436,
                        "value": 0
                    },
                    {
                        "number": 64,
                        "time": 252.8719602499977,
                        "value": 1
                    },
                    {
                        "number": 64,
                        "time": 254.867172670831,
                        "value": 0
                    },
                    {
                        "number": 64,
                        "time": 255.26099322499766,
                        "value": 1
                    },
                    {
                        "number": 64,
                        "time": 256.95159306249764,
                        "value": 0
                    },
                    {
                        "number": 64,
                        "time": 257.3497652249976,
                        "value": 1
                    },
                    {
                        "number": 64,
                        "time": 259.0425408666643,
                        "value": 0
                    },
                    {
                        "number": 64,
                        "time": 259.4080759666643,
                        "value": 1
                    },
                    {
                        "number": 64,
                        "time": 263.21138164999775,
                        "value": 0
                    },
                    {
                        "number": 64,
                        "time": 263.4615991291644,
                        "value": 1
                    },
                    {
                        "number": 64,
                        "time": 267.3932772583312,
                        "value": 0
                    },
                    {
                        "number": 64,
                        "time": 267.76316396666454,
                        "value": 1
                    },
                    {
                        "number": 64,
                        "time": 271.559942237498,
                        "value": 0
                    },
                    {
                        "number": 64,
                        "time": 271.84714838749795,
                        "value": 1
                    },
                    {
                        "number": 64,
                        "time": 273.66176906249797,
                        "value": 0
                    },
                    {
                        "number": 64,
                        "time": 274.0904024833313,
                        "value": 1
                    },
                    {
                        "number": 64,
                        "time": 275.7483652583313,
                        "value": 0
                    },
                    {
                        "number": 64,
                        "time": 276.01598917083135,
                        "value": 1
                    },
                    {
                        "number": 64,
                        "time": 277.8436646708314,
                        "value": 0
                    },
                    {
                        "number": 64,
                        "time": 278.2287820083314,
                        "value": 1
                    },
                    {
                        "number": 64,
                        "time": 279.9193818458314,
                        "value": 0
                    },
                    {
                        "number": 64,
                        "time": 280.01729303333144,
                        "value": 1
                    },
                    {
                        "number": 64,
                        "time": 282.0190328666648,
                        "value": 0
                    },
                    {
                        "number": 64,
                        "time": 282.17569076666484,
                        "value": 1
                    },
                    {
                        "number": 64,
                        "time": 284.09692584583155,
                        "value": 0
                    },
                    {
                        "number": 64,
                        "time": 284.19483703333157,
                        "value": 1
                    },
                    {
                        "number": 64,
                        "time": 286.19657686666494,
                        "value": 0
                    },
                    {
                        "number": 64,
                        "time": 286.35323476666497,
                        "value": 1
                    },
                    {
                        "number": 64,
                        "time": 288.2766456499984,
                        "value": 0
                    },
                    {
                        "number": 64,
                        "time": 288.4746438291651,
                        "value": 1
                    },
                    {
                        "number": 64,
                        "time": 290.3632418458318,
                        "value": 0
                    },
                    {
                        "number": 64,
                        "time": 290.5373061791651,
                        "value": 1
                    },
                    {
                        "number": 64,
                        "time": 292.4585412583318,
                        "value": 0
                    },
                    {
                        "number": 64,
                        "time": 292.6739458708318,
                        "value": 1
                    },
                    {
                        "number": 64,
                        "time": 296.6317336499986,
                        "value": 0
                    },
                    {
                        "number": 64,
                        "time": 296.88195112916526,
                        "value": 1
                    },
                    {
                        "number": 64,
                        "time": 300.813629258332,
                        "value": 0
                    },
                    {
                        "number": 64,
                        "time": 301.18351596666537,
                        "value": 1
                    },
                    {
                        "number": 64,
                        "time": 304.9846458458321,
                        "value": 0
                    },
                    {
                        "number": 64,
                        "time": 305.2675003874988,
                        "value": 1
                    },
                    {
                        "number": 64,
                        "time": 309.1556624333322,
                        "value": 0
                    },
                    {
                        "number": 64,
                        "time": 309.43634117083224,
                        "value": 1
                    },
                    {
                        "number": 64,
                        "time": 311.2640166708323,
                        "value": 0
                    },
                    {
                        "number": 64,
                        "time": 311.6491340083323,
                        "value": 1
                    },
                    {
                        "number": 64,
                        "time": 313.33755804166566,
                        "value": 0
                    },
                    {
                        "number": 64,
                        "time": 313.49639174583234,
                        "value": 1
                    },
                    {
                        "number": 64,
                        "time": 315.4285058458324,
                        "value": 0
                    },
                    {
                        "number": 64,
                        "time": 315.57210892083236,
                        "value": 1
                    },
                    {
                        "number": 64,
                        "time": 317.27141197499907,
                        "value": 0
                    },
                    {
                        "number": 64,
                        "time": 317.33233449166573,
                        "value": 1
                    },
                    {
                        "number": 64,
                        "time": 319.6147530624991,
                        "value": 0
                    },
                    {
                        "number": 64,
                        "time": 319.71266424999914,
                        "value": 1
                    },
                    {
                        "number": 64,
                        "time": 321.70570086666584,
                        "value": 0
                    },
                    {
                        "number": 64,
                        "time": 322.10169722499916,
                        "value": 1
                    },
                    {
                        "number": 64,
                        "time": 323.7922970624992,
                        "value": 0
                    },
                    {
                        "number": 64,
                        "time": 325.9245851458325,
                        "value": 1
                    },
                    {
                        "number": 64,
                        "time": 326.93415827916584,
                        "value": 0
                    },
                    {
                        "number": 64,
                        "time": 327.21483701666585,
                        "value": 1
                    },
                    {
                        "number": 64,
                        "time": 327.96331364999924,
                        "value": 0
                    },
                    {
                        "number": 64,
                        "time": 328.3049149041659,
                        "value": 1
                    },
                    {
                        "number": 64,
                        "time": 329.0164028666659,
                        "value": 0
                    },
                    {
                        "number": 64,
                        "time": 329.3493009041659,
                        "value": 1
                    },
                    {
                        "number": 64,
                        "time": 330.0455582374992,
                        "value": 0
                    },
                    {
                        "number": 64,
                        "time": 330.30230312916586,
                        "value": 1
                    },
                    {
                        "number": 64,
                        "time": 331.1029990624992,
                        "value": 0
                    },
                    {
                        "number": 64,
                        "time": 331.5316324833325,
                        "value": 1
                    },
                    {
                        "number": 64,
                        "time": 332.15608827916583,
                        "value": 0
                    },
                    {
                        "number": 64,
                        "time": 332.5303265958325,
                        "value": 1
                    },
                    {
                        "number": 64,
                        "time": 333.2004742791658,
                        "value": 0
                    },
                    {
                        "number": 64,
                        "time": 333.58994322499916,
                        "value": 1
                    },
                    {
                        "number": 64,
                        "time": 334.2296296499992,
                        "value": 0
                    },
                    {
                        "number": 64,
                        "time": 334.4646164999992,
                        "value": 1
                    },
                    {
                        "number": 64,
                        "time": 335.2805430624992,
                        "value": 0
                    },
                    {
                        "number": 64,
                        "time": 335.64825396666583,
                        "value": 1
                    },
                    {
                        "number": 64,
                        "time": 336.3314564749992,
                        "value": 0
                    },
                    {
                        "number": 64,
                        "time": 336.78402374166586,
                        "value": 1
                    },
                    {
                        "number": 64,
                        "time": 337.3758424749992,
                        "value": 0
                    },
                    {
                        "number": 64,
                        "time": 337.64346638749925,
                        "value": 1
                    },
                    {
                        "number": 64,
                        "time": 338.40499784583255,
                        "value": 0
                    },
                    {
                        "number": 64,
                        "time": 338.5507767249992,
                        "value": 1
                    },
                    {
                        "number": 64,
                        "time": 339.4667902791659,
                        "value": 0
                    },
                    {
                        "number": 64,
                        "time": 339.7474690166659,
                        "value": 1
                    },
                    {
                        "number": 64,
                        "time": 340.50900047499925,
                        "value": 0
                    },
                    {
                        "number": 64,
                        "time": 340.71570187083256,
                        "value": 1
                    },
                    {
                        "number": 64,
                        "time": 341.5555622791659,
                        "value": 0
                    },
                    {
                        "number": 64,
                        "time": 341.8210103874992,
                        "value": 1
                    },
                    {
                        "number": 64,
                        "time": 342.5825418458325,
                        "value": 0
                    },
                    {
                        "number": 64,
                        "time": 342.7130900958325,
                        "value": 1
                    },
                    {
                        "number": 64,
                        "time": 343.6291036499992,
                        "value": 0
                    },
                    {
                        "number": 64,
                        "time": 343.9489468624992,
                        "value": 1
                    },
                    {
                        "number": 64,
                        "time": 344.6865444749992,
                        "value": 0
                    },
                    {
                        "number": 64,
                        "time": 344.8932458708325,
                        "value": 1
                    },
                    {
                        "number": 64,
                        "time": 345.72440306249916,
                        "value": 0
                    },
                    {
                        "number": 64,
                        "time": 345.8614787249992,
                        "value": 1
                    },
                    {
                        "number": 64,
                        "time": 346.76226164999923,
                        "value": 0
                    },
                    {
                        "number": 64,
                        "time": 346.9058647249992,
                        "value": 1
                    },
                    {
                        "number": 64,
                        "time": 347.8109992583326,
                        "value": 0
                    },
                    {
                        "number": 64,
                        "time": 348.0111732416659,
                        "value": 1
                    },
                    {
                        "number": 64,
                        "time": 348.8510336499993,
                        "value": 0
                    },
                    {
                        "number": 64,
                        "time": 349.1317123874993,
                        "value": 1
                    },
                    {
                        "number": 64,
                        "time": 349.8954196499993,
                        "value": 0
                    },
                    {
                        "number": 64,
                        "time": 350.191329016666,
                        "value": 1
                    },
                    {
                        "number": 64,
                        "time": 350.93327823749934,
                        "value": 0
                    },
                    {
                        "number": 64,
                        "time": 351.08993613749936,
                        "value": 1
                    },
                    {
                        "number": 64,
                        "time": 351.9950706708327,
                        "value": 0
                    },
                    {
                        "number": 64,
                        "time": 352.1277947249994,
                        "value": 1
                    },
                    {
                        "number": 64,
                        "time": 353.0351050624994,
                        "value": 0
                    },
                    {
                        "number": 64,
                        "time": 353.17870813749937,
                        "value": 1
                    },
                    {
                        "number": 64,
                        "time": 354.07949106249936,
                        "value": 0
                    },
                    {
                        "number": 64,
                        "time": 354.18610546666605,
                        "value": 1
                    },
                    {
                        "number": 64,
                        "time": 355.1173496499994,
                        "value": 0
                    },
                    {
                        "number": 64,
                        "time": 355.26748013749943,
                        "value": 1
                    },
                    {
                        "number": 64,
                        "time": 356.1682630624994,
                        "value": 0
                    },
                    {
                        "number": 64,
                        "time": 356.3118661374994,
                        "value": 1
                    },
                    {
                        "number": 64,
                        "time": 357.2191764749994,
                        "value": 0
                    },
                    {
                        "number": 64,
                        "time": 357.3105602499994,
                        "value": 1
                    },
                    {
                        "number": 64,
                        "time": 358.2526834541661,
                        "value": 0
                    },
                    {
                        "number": 64,
                        "time": 358.4398026124995,
                        "value": 1
                    },
                    {
                        "number": 64,
                        "time": 359.3035968666661,
                        "value": 0
                    },
                    {
                        "number": 64,
                        "time": 359.4080354666661,
                        "value": 1
                    },
                    {
                        "number": 64,
                        "time": 360.3436312583328,
                        "value": 0
                    },
                    {
                        "number": 64,
                        "time": 360.6199583874994,
                        "value": 1
                    },
                    {
                        "number": 64,
                        "time": 361.38148984583273,
                        "value": 0
                    },
                    {
                        "number": 64,
                        "time": 361.64911375833276,
                        "value": 1
                    },
                    {
                        "number": 64,
                        "time": 362.42152423749945,
                        "value": 0
                    },
                    {
                        "number": 64,
                        "time": 362.5868853541661,
                        "value": 1
                    },
                    {
                        "number": 64,
                        "time": 363.47243764999945,
                        "value": 0
                    },
                    {
                        "number": 64,
                        "time": 363.6921938708328,
                        "value": 1
                    },
                    {
                        "number": 64,
                        "time": 364.52987847499946,
                        "value": 0
                    },
                    {
                        "number": 64,
                        "time": 364.89106196666614,
                        "value": 1
                    },
                    {
                        "number": 64,
                        "time": 365.5677370624995,
                        "value": 0
                    },
                    {
                        "number": 64,
                        "time": 365.9180415333328,
                        "value": 1
                    },
                    {
                        "number": 64,
                        "time": 366.61429886666616,
                        "value": 0
                    },
                    {
                        "number": 64,
                        "time": 366.8862743874995,
                        "value": 1
                    },
                    {
                        "number": 64,
                        "time": 367.6565090624995,
                        "value": 0
                    },
                    {
                        "number": 64,
                        "time": 367.7631234666662,
                        "value": 1
                    },
                    {
                        "number": 64,
                        "time": 368.70742247499953,
                        "value": 0
                    },
                    {
                        "number": 64,
                        "time": 368.84449813749956,
                        "value": 1
                    },
                    {
                        "number": 64,
                        "time": 369.75180847499956,
                        "value": 0
                    },
                    {
                        "number": 64,
                        "time": 369.85842287916626,
                        "value": 1
                    },
                    {
                        "number": 64,
                        "time": 370.79401867083294,
                        "value": 0
                    },
                    {
                        "number": 64,
                        "time": 370.94850076666626,
                        "value": 1
                    },
                    {
                        "number": 64,
                        "time": 371.8253498458329,
                        "value": 0
                    },
                    {
                        "number": 64,
                        "time": 371.9471948791662,
                        "value": 1
                    },
                    {
                        "number": 64,
                        "time": 372.8806148666662,
                        "value": 0
                    },
                    {
                        "number": 64,
                        "time": 372.9763502499995,
                        "value": 1
                    },
                    {
                        "number": 64,
                        "time": 373.9293524749995,
                        "value": 0
                    },
                    {
                        "number": 64,
                        "time": 374.18174575833285,
                        "value": 1
                    },
                    {
                        "number": 64,
                        "time": 374.9628594541662,
                        "value": 0
                    },
                    {
                        "number": 64,
                        "time": 375.2652962333329,
                        "value": 1
                    },
                    {
                        "number": 64,
                        "time": 375.99419062916627,
                        "value": 0
                    },
                    {
                        "number": 64,
                        "time": 376.30097901666625,
                        "value": 1
                    },
                    {
                        "number": 64,
                        "time": 377.06033467083296,
                        "value": 0
                    },
                    {
                        "number": 64,
                        "time": 377.438924595833,
                        "value": 1
                    },
                    {
                        "number": 64,
                        "time": 378.1003690624996,
                        "value": 0
                    },
                    {
                        "number": 64,
                        "time": 378.3745203874996,
                        "value": 1
                    },
                    {
                        "number": 64,
                        "time": 379.1534582791663,
                        "value": 0
                    },
                    {
                        "number": 64,
                        "time": 379.4493676458329,
                        "value": 1
                    },
                    {
                        "number": 64,
                        "time": 380.1826136499996,
                        "value": 0
                    },
                    {
                        "number": 64,
                        "time": 380.49375364583295,
                        "value": 1
                    },
                    {
                        "number": 64,
                        "time": 381.2335270624996,
                        "value": 0
                    },
                    {
                        "number": 64,
                        "time": 381.5076783874996,
                        "value": 1
                    },
                    {
                        "number": 64,
                        "time": 382.26703404166625,
                        "value": 0
                    },
                    {
                        "number": 64,
                        "time": 382.5063724999996,
                        "value": 1
                    },
                    {
                        "number": 64,
                        "time": 383.3310022791663,
                        "value": 0
                    },
                    {
                        "number": 64,
                        "time": 383.53552787083294,
                        "value": 1
                    },
                    {
                        "number": 64,
                        "time": 384.3623334541663,
                        "value": 0
                    },
                    {
                        "number": 64,
                        "time": 384.9149877124996,
                        "value": 1
                    },
                    {
                        "number": 64,
                        "time": 385.4197742791663,
                        "value": 0
                    },
                    {
                        "number": 64,
                        "time": 385.62429987083294,
                        "value": 1
                    },
                    {
                        "number": 64,
                        "time": 386.46416027916626,
                        "value": 0
                    },
                    {
                        "number": 64,
                        "time": 386.6382246124996,
                        "value": 1
                    },
                    {
                        "number": 64,
                        "time": 387.50854627916624,
                        "value": 0
                    },
                    {
                        "number": 64,
                        "time": 387.7130718708329,
                        "value": 1
                    },
                    {
                        "number": 64,
                        "time": 388.5377016499996,
                        "value": 0
                    },
                    {
                        "number": 64,
                        "time": 388.74875465416625,
                        "value": 1
                    },
                    {
                        "number": 64,
                        "time": 390.63735267083297,
                        "value": 0
                    },
                    {
                        "number": 64,
                        "time": 390.92455882083294,
                        "value": 1
                    },
                    {
                        "number": 64,
                        "time": 391.67956286666623,
                        "value": 0
                    },
                    {
                        "number": 64,
                        "time": 391.8558030041662,
                        "value": 1
                    },
                    {
                        "number": 64,
                        "time": 392.7152456499996,
                        "value": 0
                    },
                    {
                        "number": 64,
                        "time": 392.8762551583329,
                        "value": 1
                    },
                    {
                        "number": 64,
                        "time": 393.7639832583329,
                        "value": 0
                    },
                    {
                        "number": 64,
                        "time": 393.9315201791663,
                        "value": 1
                    },
                    {
                        "number": 64,
                        "time": 394.814896670833,
                        "value": 0
                    },
                    {
                        "number": 64,
                        "time": 395.062938345833,
                        "value": 1
                    },
                    {
                        "number": 64,
                        "time": 395.8636342791663,
                        "value": 0
                    },
                    {
                        "number": 64,
                        "time": 395.996358333333,
                        "value": 1
                    },
                    {
                        "number": 64,
                        "time": 396.8949654541663,
                        "value": 0
                    },
                    {
                        "number": 64,
                        "time": 397.14300712916634,
                        "value": 1
                    },
                    {
                        "number": 64,
                        "time": 398.9880890624996,
                        "value": 0
                    },
                    {
                        "number": 64,
                        "time": 399.35579996666627,
                        "value": 1
                    },
                    {
                        "number": 64,
                        "time": 400.2935715624996,
                        "value": 0
                    },
                    {
                        "number": 64,
                        "time": 400.56554708333294,
                        "value": 1
                    },
                    {
                        "number": 64,
                        "time": 401.0638062374996,
                        "value": 0
                    },
                    {
                        "number": 64,
                        "time": 401.1312561666663,
                        "value": 1
                    },
                    {
                        "number": 64,
                        "time": 402.1168954541664,
                        "value": 0
                    },
                    {
                        "number": 64,
                        "time": 402.19522440416637,
                        "value": 1
                    },
                    {
                        "number": 64,
                        "time": 403.16563306249964,
                        "value": 0
                    },
                    {
                        "number": 64,
                        "time": 403.3701586541663,
                        "value": 1
                    },
                    {
                        "number": 64,
                        "time": 404.4210720666663,
                        "value": 0
                    },
                    {
                        "number": 64,
                        "time": 404.76267332083296,
                        "value": 1
                    },
                    {
                        "number": 64,
                        "time": 405.2609324749996,
                        "value": 0
                    },
                    {
                        "number": 64,
                        "time": 405.32185499166627,
                        "value": 1
                    },
                    {
                        "number": 64,
                        "time": 406.30531847499975,
                        "value": 0
                    },
                    {
                        "number": 64,
                        "time": 406.3662409916664,
                        "value": 1
                    },
                    {
                        "number": 64,
                        "time": 407.33447384583303,
                        "value": 0
                    },
                    {
                        "number": 64,
                        "time": 407.5346478291664,
                        "value": 1
                    },
                    {
                        "number": 64,
                        "time": 409.3993119999997,
                        "value": 0
                    },
                    {
                        "number": 64,
                        "time": 409.42324584583304,
                        "value": 0
                    },
                    {
                        "number": 64,
                        "time": 409.6995729749997,
                        "value": 1
                    },
                    {
                        "number": 64,
                        "time": 410.47415925833303,
                        "value": 0
                    },
                    {
                        "number": 64,
                        "time": 410.7504863874997,
                        "value": 1
                    },
                    {
                        "number": 64,
                        "time": 411.512017845833,
                        "value": 0
                    },
                    {
                        "number": 64,
                        "time": 411.779641758333,
                        "value": 1
                    },
                    {
                        "number": 64,
                        "time": 412.55857964999973,
                        "value": 0
                    },
                    {
                        "number": 64,
                        "time": 412.7174133541664,
                        "value": 1
                    },
                    {
                        "number": 64,
                        "time": 413.60296564999976,
                        "value": 0
                    },
                    {
                        "number": 64,
                        "time": 413.8227218708331,
                        "value": 1
                    },
                    {
                        "number": 64,
                        "time": 414.6604064749998,
                        "value": 0
                    },
                    {
                        "number": 64,
                        "time": 415.02158996666645,
                        "value": 1
                    },
                    {
                        "number": 64,
                        "time": 415.6982650624998,
                        "value": 0
                    },
                    {
                        "number": 64,
                        "time": 416.04856953333314,
                        "value": 1
                    },
                    {
                        "number": 64,
                        "time": 416.7426510624998,
                        "value": 0
                    },
                    {
                        "number": 64,
                        "time": 416.95587987083314,
                        "value": 1
                    },
                    {
                        "number": 64,
                        "time": 417.77180643333315,
                        "value": 0
                    },
                    {
                        "number": 64,
                        "time": 418.12428670833316,
                        "value": 1
                    },
                    {
                        "number": 64,
                        "time": 418.8401262791665,
                        "value": 0
                    },
                    {
                        "number": 64,
                        "time": 419.04465187083315,
                        "value": 1
                    },
                    {
                        "number": 64,
                        "time": 419.8845122791665,
                        "value": 0
                    },
                    {
                        "number": 64,
                        "time": 420.0585766124998,
                        "value": 1
                    },
                    {
                        "number": 64,
                        "time": 420.92889827916645,
                        "value": 0
                    },
                    {
                        "number": 64,
                        "time": 421.1334238708331,
                        "value": 1
                    },
                    {
                        "number": 64,
                        "time": 421.9537020416664,
                        "value": 0
                    },
                    {
                        "number": 64,
                        "time": 422.1691066541664,
                        "value": 1
                    },
                    {
                        "number": 64,
                        "time": 424.0577046708331,
                        "value": 0
                    },
                    {
                        "number": 64,
                        "time": 424.3449108208331,
                        "value": 1
                    },
                    {
                        "number": 64,
                        "time": 425.0999148666664,
                        "value": 0
                    },
                    {
                        "number": 64,
                        "time": 425.27615500416636,
                        "value": 1
                    },
                    {
                        "number": 64,
                        "time": 426.13559764999974,
                        "value": 0
                    },
                    {
                        "number": 64,
                        "time": 426.2966071583331,
                        "value": 1
                    },
                    {
                        "number": 64,
                        "time": 427.1843352583331,
                        "value": 0
                    },
                    {
                        "number": 64,
                        "time": 427.35187217916643,
                        "value": 1
                    },
                    {
                        "number": 64,
                        "time": 428.22654545416646,
                        "value": 0
                    },
                    {
                        "number": 64,
                        "time": 428.4832903458331,
                        "value": 1
                    },
                    {
                        "number": 64,
                        "time": 429.2839862791664,
                        "value": 0
                    },
                    {
                        "number": 64,
                        "time": 429.41671033333307,
                        "value": 1
                    },
                    {
                        "number": 64,
                        "time": 430.31749325833306,
                        "value": 0
                    },
                    {
                        "number": 64,
                        "time": 430.5633591291664,
                        "value": 1
                    },
                    {
                        "number": 64,
                        "time": 432.412792670833,
                        "value": 0
                    },
                    {
                        "number": 64,
                        "time": 432.77615196666636,
                        "value": 1
                    },
                    {
                        "number": 64,
                        "time": 433.68781391249973,
                        "value": 0
                    },
                    {
                        "number": 64,
                        "time": 433.98589908333304,
                        "value": 1
                    },
                    {
                        "number": 64,
                        "time": 434.488509845833,
                        "value": 0
                    },
                    {
                        "number": 64,
                        "time": 434.5516081666663,
                        "value": 1
                    },
                    {
                        "number": 64,
                        "time": 435.5415990624998,
                        "value": 0
                    },
                    {
                        "number": 64,
                        "time": 435.59599416666646,
                        "value": 1
                    },
                    {
                        "number": 64,
                        "time": 436.5707544333331,
                        "value": 0
                    },
                    {
                        "number": 64,
                        "time": 436.79051065416644,
                        "value": 1
                    },
                    {
                        "number": 64,
                        "time": 437.85230308749976,
                        "value": 0
                    },
                    {
                        "number": 64,
                        "time": 438.1830253208331,
                        "value": 1
                    },
                    {
                        "number": 64,
                        "time": 438.6725812583331,
                        "value": 0
                    },
                    {
                        "number": 64,
                        "time": 438.7356795791664,
                        "value": 1
                    },
                    {
                        "number": 64,
                        "time": 439.7234946708332,
                        "value": 0
                    },
                    {
                        "number": 64,
                        "time": 439.7865929916665,
                        "value": 1
                    },
                    {
                        "number": 64,
                        "time": 440.7700564749998,
                        "value": 0
                    },
                    {
                        "number": 64,
                        "time": 440.95499982916647,
                        "value": 1
                    },
                    {
                        "number": 64,
                        "time": 442.8196639999998,
                        "value": 0
                    },
                    {
                        "number": 64,
                        "time": 442.8414220416665,
                        "value": 0
                    },
                    {
                        "number": 64,
                        "time": 442.9589154666665,
                        "value": 1
                    },
                    {
                        "number": 64,
                        "time": 443.8945112583332,
                        "value": 0
                    },
                    {
                        "number": 64,
                        "time": 444.1708383874998,
                        "value": 1
                    },
                    {
                        "number": 64,
                        "time": 444.9367214541665,
                        "value": 0
                    },
                    {
                        "number": 64,
                        "time": 445.19999375833316,
                        "value": 1
                    },
                    {
                        "number": 64,
                        "time": 445.97675584583317,
                        "value": 0
                    },
                    {
                        "number": 64,
                        "time": 446.1377653541665,
                        "value": 1
                    },
                    {
                        "number": 64,
                        "time": 447.0189660416665,
                        "value": 0
                    },
                    {
                        "number": 64,
                        "time": 447.3518640791665,
                        "value": 1
                    },
                    {
                        "number": 64,
                        "time": 448.07858267083316,
                        "value": 0
                    },
                    {
                        "number": 64,
                        "time": 448.4419419666665,
                        "value": 1
                    },
                    {
                        "number": 64,
                        "time": 449.1142654541665,
                        "value": 0
                    },
                    {
                        "number": 64,
                        "time": 449.60817299999985,
                        "value": 1
                    },
                    {
                        "number": 64,
                        "time": 454.2513390916665,
                        "value": 0
                    }
                ]
            },
            "id": 2,
            "name": "Piano left",
            "instrumentNumber": 0,
            "instrument": "acoustic grand piano",
            "instrumentFamily": "piano",
            "channelNumber": 0,
            "isPercussion": false
        },
        {
            "startTime": 0,
            "duration": 0,
            "length": 0,
            "notes": [],
            "controlChanges": {},
            "id": 3,
            "name": "Chopin Sonate Op. 35  3. Satz"
        },
        {
            "startTime": 0,
            "duration": 0,
            "length": 0,
            "notes": [],
            "controlChanges": {},
            "id": 4,
            "name": "Copyright  2002 by Bernd Krger"
        },
        {
            "startTime": 0,
            "duration": 0,
            "length": 0,
            "notes": [],
            "controlChanges": {},
            "id": 5,
            "name": "http://www.piano-midi.de"
        },
        {
            "startTime": 0,
            "duration": 0,
            "length": 0,
            "notes": [],
            "controlChanges": {},
            "id": 6,
            "name": "Edition: 2014-02-26"
        },
        {
            "startTime": 0,
            "duration": 0,
            "length": 0,
            "notes": [],
            "controlChanges": {},
            "id": 7,
            "name": "Spur 7"
        },
        {
            "startTime": 0,
            "duration": 0,
            "length": 0,
            "notes": [],
            "controlChanges": {},
            "id": 8,
            "name": "Spur 8"
        },
        {
            "startTime": 0,
            "duration": 0,
            "length": 0,
            "notes": [],
            "controlChanges": {},
            "id": 9,
            "name": "Spur 9"
        }
    ]
}