{
    "header": {
        "PPQ": 480,
        "timeSignature": [
            3,
            4
        ],
        "bpm": 187.26007303142848,
        "name": "Sonate opus 35, 2. Satz"
    },
    "startTime": 0,
    "duration": 314.64262000000167,
    "tracks": [
        {
            "startTime": 0,
            "duration": 0,
            "length": 0,
            "notes": [],
            "controlChanges": {},
            "id": 0,
            "name": "Sonate opus 35, 2. Satz"
        },
        {
            "startTime": 81.70455000000001,
            "duration": 305.99155000000036,
            "length": 164,
            "notes": [
                {
                    "name": "A#4",
                    "midi": 70,
                    "time": 81.70455000000001,
                    "velocity": 0.44881889763779526,
                    "duration": 0.3204099999999954
                },
                {
                    "name": "F4",
                    "midi": 65,
                    "time": 82.02496000000001,
                    "velocity": 0.3858267716535433,
                    "duration": 0.3204099999999954
                },
                {
                    "name": "F#4",
                    "midi": 66,
                    "time": 82.34537,
                    "velocity": 0.4094488188976378,
                    "duration": 0.3204099999999954
                },
                {
                    "name": "D#5",
                    "midi": 75,
                    "time": 82.66578,
                    "velocity": 0.44881889763779526,
                    "duration": 0.640820000000005
                },
                {
                    "name": "C#5",
                    "midi": 73,
                    "time": 83.3066,
                    "velocity": 0.4094488188976378,
                    "duration": 0.3204099999999954
                },
                {
                    "name": "C#5",
                    "midi": 73,
                    "time": 83.62701,
                    "velocity": 0.4094488188976378,
                    "duration": 0.3204099999999954
                },
                {
                    "name": "F#4",
                    "midi": 66,
                    "time": 83.94742,
                    "velocity": 0.3464566929133858,
                    "duration": 0.3204099999999954
                },
                {
                    "name": "G#4",
                    "midi": 68,
                    "time": 84.26782999999999,
                    "velocity": 0.3543307086614173,
                    "duration": 0.3204099999999954
                },
                {
                    "name": "A#4",
                    "midi": 70,
                    "time": 84.58823999999998,
                    "velocity": 0.4094488188976378,
                    "duration": 2.2428699999999964
                },
                {
                    "name": "C#5",
                    "midi": 73,
                    "time": 89.39438999999999,
                    "velocity": 0.41732283464566927,
                    "duration": 0.3204099999999954
                },
                {
                    "name": "A4",
                    "midi": 69,
                    "time": 89.71479999999998,
                    "velocity": 0.3858267716535433,
                    "duration": 0.3204099999999954
                },
                {
                    "name": "A#4",
                    "midi": 70,
                    "time": 90.03520999999998,
                    "velocity": 0.4251968503937008,
                    "duration": 0.3204099999999954
                },
                {
                    "name": "F#5",
                    "midi": 78,
                    "time": 90.35561999999997,
                    "velocity": 0.4566929133858268,
                    "duration": 0.640820000000005
                },
                {
                    "name": "F5",
                    "midi": 77,
                    "time": 90.99643999999998,
                    "velocity": 0.4094488188976378,
                    "duration": 0.3204099999999954
                },
                {
                    "name": "F5",
                    "midi": 77,
                    "time": 91.31684999999997,
                    "velocity": 0.4094488188976378,
                    "duration": 0.3204099999999954
                },
                {
                    "name": "A#4",
                    "midi": 70,
                    "time": 91.63725999999997,
                    "velocity": 0.4094488188976378,
                    "duration": 0.3204099999999954
                },
                {
                    "name": "C5",
                    "midi": 72,
                    "time": 91.95766999999996,
                    "velocity": 0.41732283464566927,
                    "duration": 0.3204099999999954
                },
                {
                    "name": "D#5",
                    "midi": 75,
                    "time": 92.27807999999996,
                    "velocity": 0.44881889763779526,
                    "duration": 0.3204099999999954
                },
                {
                    "name": "C#5",
                    "midi": 73,
                    "time": 92.59848999999996,
                    "velocity": 0.44881889763779526,
                    "duration": 1.922460000000001
                },
                {
                    "name": "A#4",
                    "midi": 70,
                    "time": 97.08422999999996,
                    "velocity": 0.47244094488188976,
                    "duration": 0.3204099999999954
                },
                {
                    "name": "F4",
                    "midi": 65,
                    "time": 97.40463999999996,
                    "velocity": 0.41732283464566927,
                    "duration": 0.3204099999999954
                },
                {
                    "name": "F#4",
                    "midi": 66,
                    "time": 97.72504999999995,
                    "velocity": 0.44881889763779526,
                    "duration": 0.3204099999999954
                },
                {
                    "name": "D#5",
                    "midi": 75,
                    "time": 98.04545999999995,
                    "velocity": 0.4645669291338583,
                    "duration": 0.640820000000005
                },
                {
                    "name": "C#5",
                    "midi": 73,
                    "time": 98.68627999999995,
                    "velocity": 0.44881889763779526,
                    "duration": 0.3204099999999954
                },
                {
                    "name": "C#5",
                    "midi": 73,
                    "time": 99.00668999999995,
                    "velocity": 0.44881889763779526,
                    "duration": 0.3204099999999954
                },
                {
                    "name": "F#4",
                    "midi": 66,
                    "time": 99.32709999999994,
                    "velocity": 0.41732283464566927,
                    "duration": 0.3204099999999954
                },
                {
                    "name": "G#4",
                    "midi": 68,
                    "time": 99.64750999999994,
                    "velocity": 0.4094488188976378,
                    "duration": 0.3204099999999954
                },
                {
                    "name": "A#4",
                    "midi": 70,
                    "time": 99.96791999999994,
                    "velocity": 0.44881889763779526,
                    "duration": 2.2428699999999964
                },
                {
                    "name": "A#4",
                    "midi": 70,
                    "time": 104.77406999999994,
                    "velocity": 0.4881889763779528,
                    "duration": 0.3204099999999954
                },
                {
                    "name": "A4",
                    "midi": 69,
                    "time": 105.09447999999993,
                    "velocity": 0.4251968503937008,
                    "duration": 0.3204099999999954
                },
                {
                    "name": "A#4",
                    "midi": 70,
                    "time": 105.41488999999993,
                    "velocity": 0.4645669291338583,
                    "duration": 0.3204099999999954
                },
                {
                    "name": "B4",
                    "midi": 71,
                    "time": 105.73529999999992,
                    "velocity": 0.4881889763779528,
                    "duration": 0.640820000000005
                },
                {
                    "name": "C5",
                    "midi": 72,
                    "time": 106.37611999999993,
                    "velocity": 0.47244094488188976,
                    "duration": 0.3204099999999954
                },
                {
                    "name": "D5",
                    "midi": 74,
                    "time": 106.69652999999992,
                    "velocity": 0.49606299212598426,
                    "duration": 0.3204099999999954
                },
                {
                    "name": "A#4",
                    "midi": 70,
                    "time": 107.01693999999992,
                    "velocity": 0.47244094488188976,
                    "duration": 0.3204099999999954
                },
                {
                    "name": "G5",
                    "midi": 79,
                    "time": 107.33734999999992,
                    "velocity": 0.47244094488188976,
                    "duration": 0.3204099999999954
                },
                {
                    "name": "F5",
                    "midi": 77,
                    "time": 107.65775999999991,
                    "velocity": 0.48031496062992124,
                    "duration": 0.8811275000000052
                },
                {
                    "name": "A#4",
                    "midi": 70,
                    "time": 108.53888749999992,
                    "velocity": 0.4094488188976378,
                    "duration": 0.04005125000000476
                },
                {
                    "name": "C5",
                    "midi": 72,
                    "time": 108.57893874999992,
                    "velocity": 0.36220472440944884,
                    "duration": 0.04005125000000476
                },
                {
                    "name": "A#4",
                    "midi": 70,
                    "time": 108.61898999999993,
                    "velocity": 0.49606299212598426,
                    "duration": 0.3204099999999954
                },
                {
                    "name": "A4",
                    "midi": 69,
                    "time": 108.93939999999992,
                    "velocity": 0.44881889763779526,
                    "duration": 0.3204099999999954
                },
                {
                    "name": "A#4",
                    "midi": 70,
                    "time": 109.25980999999992,
                    "velocity": 0.48031496062992124,
                    "duration": 0.3204099999999954
                },
                {
                    "name": "B4",
                    "midi": 71,
                    "time": 109.58021999999991,
                    "velocity": 0.4881889763779528,
                    "duration": 0.640820000000005
                },
                {
                    "name": "C5",
                    "midi": 72,
                    "time": 110.22103999999992,
                    "velocity": 0.49606299212598426,
                    "duration": 0.3204099999999954
                },
                {
                    "name": "C#5",
                    "midi": 73,
                    "time": 110.54144999999991,
                    "velocity": 0.5196850393700787,
                    "duration": 0.3204099999999954
                },
                {
                    "name": "A#4",
                    "midi": 70,
                    "time": 110.86185999999991,
                    "velocity": 0.49606299212598426,
                    "duration": 0.3204099999999954
                },
                {
                    "name": "F#5",
                    "midi": 78,
                    "time": 111.1822699999999,
                    "velocity": 0.49606299212598426,
                    "duration": 0.3204099999999954
                },
                {
                    "name": "F5",
                    "midi": 77,
                    "time": 111.5026799999999,
                    "velocity": 0.5118110236220472,
                    "duration": 0.3204099999999954
                },
                {
                    "name": "D#5",
                    "midi": 75,
                    "time": 111.8230899999999,
                    "velocity": 0.49606299212598426,
                    "duration": 0.3204099999999954
                },
                {
                    "name": "C#5",
                    "midi": 73,
                    "time": 112.14349999999989,
                    "velocity": 0.49606299212598426,
                    "duration": 0.3204099999999954
                },
                {
                    "name": "B4",
                    "midi": 71,
                    "time": 112.46390999999988,
                    "velocity": 0.4881889763779528,
                    "duration": 3.844920000000002
                },
                {
                    "name": "A#4",
                    "midi": 70,
                    "time": 116.30882999999989,
                    "velocity": 0.4251968503937008,
                    "duration": 0.3204099999999954
                },
                {
                    "name": "F4",
                    "midi": 65,
                    "time": 116.62923999999988,
                    "velocity": 0.3858267716535433,
                    "duration": 0.3204099999999954
                },
                {
                    "name": "F#4",
                    "midi": 66,
                    "time": 116.94964999999988,
                    "velocity": 0.4094488188976378,
                    "duration": 0.3204099999999954
                },
                {
                    "name": "D#5",
                    "midi": 75,
                    "time": 117.27005999999987,
                    "velocity": 0.44881889763779526,
                    "duration": 0.640820000000005
                },
                {
                    "name": "C#5",
                    "midi": 73,
                    "time": 117.91087999999988,
                    "velocity": 0.4094488188976378,
                    "duration": 0.3204099999999954
                },
                {
                    "name": "C#5",
                    "midi": 73,
                    "time": 118.23128999999987,
                    "velocity": 0.4094488188976378,
                    "duration": 0.3204099999999954
                },
                {
                    "name": "F#4",
                    "midi": 66,
                    "time": 118.55169999999987,
                    "velocity": 0.3543307086614173,
                    "duration": 0.3204099999999954
                },
                {
                    "name": "G#4",
                    "midi": 68,
                    "time": 118.87210999999986,
                    "velocity": 0.36220472440944884,
                    "duration": 0.3204099999999954
                },
                {
                    "name": "A#4",
                    "midi": 70,
                    "time": 119.19251999999986,
                    "velocity": 0.4094488188976378,
                    "duration": 2.2428699999999964
                },
                {
                    "name": "B4",
                    "midi": 71,
                    "time": 123.99866999999986,
                    "velocity": 0.41732283464566927,
                    "duration": 0.3204099999999954
                },
                {
                    "name": "G4",
                    "midi": 67,
                    "time": 124.31907999999986,
                    "velocity": 0.3858267716535433,
                    "duration": 0.3204099999999954
                },
                {
                    "name": "G#4",
                    "midi": 68,
                    "time": 124.63948999999985,
                    "velocity": 0.4251968503937008,
                    "duration": 0.3204099999999954
                },
                {
                    "name": "E5",
                    "midi": 76,
                    "time": 124.95989999999985,
                    "velocity": 0.4566929133858268,
                    "duration": 0.640820000000005
                },
                {
                    "name": "D#5",
                    "midi": 75,
                    "time": 125.60071999999985,
                    "velocity": 0.4251968503937008,
                    "duration": 0.3204099999999954
                },
                {
                    "name": "D#5",
                    "midi": 75,
                    "time": 125.92112999999985,
                    "velocity": 0.4251968503937008,
                    "duration": 0.3204099999999954
                },
                {
                    "name": "G#4",
                    "midi": 68,
                    "time": 126.24153999999984,
                    "velocity": 0.3858267716535433,
                    "duration": 0.3204099999999954
                },
                {
                    "name": "A#4",
                    "midi": 70,
                    "time": 126.56194999999984,
                    "velocity": 0.4015748031496063,
                    "duration": 0.3204099999999954
                },
                {
                    "name": "C#5",
                    "midi": 73,
                    "time": 126.88235999999984,
                    "velocity": 0.41732283464566927,
                    "duration": 0.3204099999999954
                },
                {
                    "name": "B4",
                    "midi": 71,
                    "time": 127.20276999999983,
                    "velocity": 0.4015748031496063,
                    "duration": 1.9224599999999867
                },
                {
                    "name": "G#4",
                    "midi": 68,
                    "time": 132.00891999999982,
                    "velocity": 0.30708661417322836,
                    "duration": 0.32041000000000963
                },
                {
                    "name": "A#4",
                    "midi": 70,
                    "time": 132.32932999999983,
                    "velocity": 0.30708661417322836,
                    "duration": 0.32041000000000963
                },
                {
                    "name": "F#4",
                    "midi": 66,
                    "time": 132.64973999999984,
                    "velocity": 0.36220472440944884,
                    "duration": 0.6408199999999908
                },
                {
                    "name": "D#4",
                    "midi": 63,
                    "time": 133.29055999999983,
                    "velocity": 0.30708661417322836,
                    "duration": 0.32041000000000963
                },
                {
                    "name": "G#4",
                    "midi": 68,
                    "time": 133.93137999999985,
                    "velocity": 0.30708661417322836,
                    "duration": 0.32041000000000963
                },
                {
                    "name": "A#4",
                    "midi": 70,
                    "time": 134.25178999999986,
                    "velocity": 0.30708661417322836,
                    "duration": 0.32041000000000963
                },
                {
                    "name": "F#4",
                    "midi": 66,
                    "time": 134.57219999999987,
                    "velocity": 0.36220472440944884,
                    "duration": 0.6408199999999908
                },
                {
                    "name": "D#4",
                    "midi": 63,
                    "time": 135.21301999999986,
                    "velocity": 0.33858267716535434,
                    "duration": 0.32041000000000963
                },
                {
                    "name": "G#4",
                    "midi": 68,
                    "time": 135.85383999999988,
                    "velocity": 0.3464566929133858,
                    "duration": 0.32041000000000963
                },
                {
                    "name": "A#4",
                    "midi": 70,
                    "time": 136.1742499999999,
                    "velocity": 0.3543307086614173,
                    "duration": 0.32041000000000963
                },
                {
                    "name": "B4",
                    "midi": 71,
                    "time": 136.4946599999999,
                    "velocity": 0.3700787401574803,
                    "duration": 0.32041000000000963
                },
                {
                    "name": "C5",
                    "midi": 72,
                    "time": 136.8150699999999,
                    "velocity": 0.3779527559055118,
                    "duration": 0.32041000000000963
                },
                {
                    "name": "C#5",
                    "midi": 73,
                    "time": 137.13547999999992,
                    "velocity": 0.4094488188976378,
                    "duration": 0.32041000000000963
                },
                {
                    "name": "D5",
                    "midi": 74,
                    "time": 137.45588999999993,
                    "velocity": 0.4409448818897638,
                    "duration": 0.32041000000000963
                },
                {
                    "name": "D#5",
                    "midi": 75,
                    "time": 137.77629999999994,
                    "velocity": 0.4094488188976378,
                    "duration": 0.32041000000000963
                },
                {
                    "name": "F4",
                    "midi": 65,
                    "time": 138.09670999999994,
                    "velocity": 0.2755905511811024,
                    "duration": 0.32041000000000963
                },
                {
                    "name": "F#4",
                    "midi": 66,
                    "time": 138.41711999999995,
                    "velocity": 0.28346456692913385,
                    "duration": 0.32041000000000963
                },
                {
                    "name": "A#4",
                    "midi": 70,
                    "time": 154.75802999999996,
                    "velocity": 0.44881889763779526,
                    "duration": 0.32041000000000963
                },
                {
                    "name": "F4",
                    "midi": 65,
                    "time": 155.07843999999997,
                    "velocity": 0.3858267716535433,
                    "duration": 0.32041000000000963
                },
                {
                    "name": "F#4",
                    "midi": 66,
                    "time": 155.39884999999998,
                    "velocity": 0.4094488188976378,
                    "duration": 0.32041000000000963
                },
                {
                    "name": "D#5",
                    "midi": 75,
                    "time": 155.71926,
                    "velocity": 0.4409448818897638,
                    "duration": 0.6408199999999908
                },
                {
                    "name": "C#5",
                    "midi": 73,
                    "time": 156.36007999999998,
                    "velocity": 0.4094488188976378,
                    "duration": 0.32041000000000963
                },
                {
                    "name": "C#5",
                    "midi": 73,
                    "time": 156.68049,
                    "velocity": 0.4094488188976378,
                    "duration": 0.32041000000000963
                },
                {
                    "name": "F#4",
                    "midi": 66,
                    "time": 157.0009,
                    "velocity": 0.3464566929133858,
                    "duration": 0.32041000000000963
                },
                {
                    "name": "G#4",
                    "midi": 68,
                    "time": 157.32131,
                    "velocity": 0.3543307086614173,
                    "duration": 0.32041000000000963
                },
                {
                    "name": "A#4",
                    "midi": 70,
                    "time": 157.64172000000002,
                    "velocity": 0.4094488188976378,
                    "duration": 2.2428700000000106
                },
                {
                    "name": "B4",
                    "midi": 71,
                    "time": 162.44787000000002,
                    "velocity": 0.41732283464566927,
                    "duration": 0.32041000000000963
                },
                {
                    "name": "G4",
                    "midi": 67,
                    "time": 162.76828000000003,
                    "velocity": 0.3937007874015748,
                    "duration": 0.32041000000000963
                },
                {
                    "name": "G#4",
                    "midi": 68,
                    "time": 163.08869000000004,
                    "velocity": 0.44881889763779526,
                    "duration": 0.32041000000000963
                },
                {
                    "name": "E5",
                    "midi": 76,
                    "time": 163.40910000000005,
                    "velocity": 0.4566929133858268,
                    "duration": 0.6408199999999908
                },
                {
                    "name": "D#5",
                    "midi": 75,
                    "time": 164.04992000000004,
                    "velocity": 0.4251968503937008,
                    "duration": 0.32041000000000963
                },
                {
                    "name": "D#5",
                    "midi": 75,
                    "time": 164.37033000000005,
                    "velocity": 0.4251968503937008,
                    "duration": 0.32041000000000963
                },
                {
                    "name": "G#4",
                    "midi": 68,
                    "time": 164.69074000000006,
                    "velocity": 0.3858267716535433,
                    "duration": 0.32041000000000963
                },
                {
                    "name": "A#4",
                    "midi": 70,
                    "time": 165.01115000000007,
                    "velocity": 0.4094488188976378,
                    "duration": 0.32041000000000963
                },
                {
                    "name": "C#5",
                    "midi": 73,
                    "time": 165.33156000000008,
                    "velocity": 0.4566929133858268,
                    "duration": 0.32041000000000963
                },
                {
                    "name": "B4",
                    "midi": 71,
                    "time": 165.6519700000001,
                    "velocity": 0.4251968503937008,
                    "duration": 1.922460000000001
                },
                {
                    "name": "G#4",
                    "midi": 68,
                    "time": 170.4581200000001,
                    "velocity": 0.30708661417322836,
                    "duration": 0.32041000000000963
                },
                {
                    "name": "A#4",
                    "midi": 70,
                    "time": 170.7785300000001,
                    "velocity": 0.30708661417322836,
                    "duration": 0.32041000000000963
                },
                {
                    "name": "F#4",
                    "midi": 66,
                    "time": 171.0989400000001,
                    "velocity": 0.36220472440944884,
                    "duration": 0.6408199999999908
                },
                {
                    "name": "D#4",
                    "midi": 63,
                    "time": 171.7397600000001,
                    "velocity": 0.30708661417322836,
                    "duration": 0.32041000000000963
                },
                {
                    "name": "G#4",
                    "midi": 68,
                    "time": 172.38058000000012,
                    "velocity": 0.30708661417322836,
                    "duration": 0.32041000000000963
                },
                {
                    "name": "A#4",
                    "midi": 70,
                    "time": 172.70099000000013,
                    "velocity": 0.30708661417322836,
                    "duration": 0.32041000000000963
                },
                {
                    "name": "F#4",
                    "midi": 66,
                    "time": 173.02140000000014,
                    "velocity": 0.36220472440944884,
                    "duration": 0.6408199999999908
                },
                {
                    "name": "D#4",
                    "midi": 63,
                    "time": 173.66222000000013,
                    "velocity": 0.33858267716535434,
                    "duration": 0.32041000000000963
                },
                {
                    "name": "G#4",
                    "midi": 68,
                    "time": 174.30304000000015,
                    "velocity": 0.3464566929133858,
                    "duration": 0.32041000000000963
                },
                {
                    "name": "A#4",
                    "midi": 70,
                    "time": 174.62345000000016,
                    "velocity": 0.3543307086614173,
                    "duration": 0.32041000000000963
                },
                {
                    "name": "B4",
                    "midi": 71,
                    "time": 174.94386000000017,
                    "velocity": 0.3700787401574803,
                    "duration": 0.32041000000000963
                },
                {
                    "name": "C5",
                    "midi": 72,
                    "time": 175.26427000000018,
                    "velocity": 0.3779527559055118,
                    "duration": 0.32041000000000963
                },
                {
                    "name": "C#5",
                    "midi": 73,
                    "time": 175.5846800000002,
                    "velocity": 0.4094488188976378,
                    "duration": 0.32041000000000963
                },
                {
                    "name": "D5",
                    "midi": 74,
                    "time": 175.9050900000002,
                    "velocity": 0.4094488188976378,
                    "duration": 0.32041000000000963
                },
                {
                    "name": "D#5",
                    "midi": 75,
                    "time": 176.2255000000002,
                    "velocity": 0.4015748031496063,
                    "duration": 0.32041000000000963
                },
                {
                    "name": "F4",
                    "midi": 65,
                    "time": 176.54591000000022,
                    "velocity": 0.2755905511811024,
                    "duration": 0.32041000000000963
                },
                {
                    "name": "F#4",
                    "midi": 66,
                    "time": 176.86632000000023,
                    "velocity": 0.28346456692913385,
                    "duration": 0.32041000000000963
                },
                {
                    "name": "A#4",
                    "midi": 70,
                    "time": 193.20723000000024,
                    "velocity": 0.4251968503937008,
                    "duration": 0.32041000000000963
                },
                {
                    "name": "F4",
                    "midi": 65,
                    "time": 193.52764000000025,
                    "velocity": 0.3858267716535433,
                    "duration": 0.32041000000000963
                },
                {
                    "name": "F#4",
                    "midi": 66,
                    "time": 193.84805000000026,
                    "velocity": 0.4094488188976378,
                    "duration": 0.32041000000000963
                },
                {
                    "name": "D#5",
                    "midi": 75,
                    "time": 194.16846000000027,
                    "velocity": 0.44881889763779526,
                    "duration": 0.6408199999999908
                },
                {
                    "name": "C#5",
                    "midi": 73,
                    "time": 194.80928000000026,
                    "velocity": 0.4094488188976378,
                    "duration": 0.32041000000000963
                },
                {
                    "name": "C#5",
                    "midi": 73,
                    "time": 195.12969000000027,
                    "velocity": 0.4094488188976378,
                    "duration": 0.32041000000000963
                },
                {
                    "name": "F#4",
                    "midi": 66,
                    "time": 195.45010000000028,
                    "velocity": 0.3543307086614173,
                    "duration": 0.32041000000000963
                },
                {
                    "name": "G#4",
                    "midi": 68,
                    "time": 195.7705100000003,
                    "velocity": 0.3543307086614173,
                    "duration": 0.32041000000000963
                },
                {
                    "name": "A#4",
                    "midi": 70,
                    "time": 196.0909200000003,
                    "velocity": 0.4094488188976378,
                    "duration": 2.2428700000000106
                },
                {
                    "name": "B4",
                    "midi": 71,
                    "time": 200.8970700000003,
                    "velocity": 0.4251968503937008,
                    "duration": 0.32041000000000963
                },
                {
                    "name": "G4",
                    "midi": 67,
                    "time": 201.2174800000003,
                    "velocity": 0.4094488188976378,
                    "duration": 0.32041000000000963
                },
                {
                    "name": "G#4",
                    "midi": 68,
                    "time": 201.53789000000032,
                    "velocity": 0.4251968503937008,
                    "duration": 0.32041000000000963
                },
                {
                    "name": "E5",
                    "midi": 76,
                    "time": 201.85830000000033,
                    "velocity": 0.4645669291338583,
                    "duration": 0.6408199999999908
                },
                {
                    "name": "D#5",
                    "midi": 75,
                    "time": 202.49912000000032,
                    "velocity": 0.4409448818897638,
                    "duration": 0.32041000000000963
                },
                {
                    "name": "D#5",
                    "midi": 75,
                    "time": 202.81953000000033,
                    "velocity": 0.4566929133858268,
                    "duration": 0.32041000000000963
                },
                {
                    "name": "G#4",
                    "midi": 68,
                    "time": 203.13994000000034,
                    "velocity": 0.3858267716535433,
                    "duration": 0.32041000000000963
                },
                {
                    "name": "A#4",
                    "midi": 70,
                    "time": 203.46035000000035,
                    "velocity": 0.4015748031496063,
                    "duration": 0.32041000000000963
                },
                {
                    "name": "C#5",
                    "midi": 73,
                    "time": 203.78076000000036,
                    "velocity": 0.44881889763779526,
                    "duration": 0.32041000000000963
                },
                {
                    "name": "B4",
                    "midi": 71,
                    "time": 204.10117000000037,
                    "velocity": 0.4094488188976378,
                    "duration": 1.922460000000001
                },
                {
                    "name": "G#4",
                    "midi": 68,
                    "time": 208.90732000000037,
                    "velocity": 0.30708661417322836,
                    "duration": 0.32041000000000963
                },
                {
                    "name": "A#4",
                    "midi": 70,
                    "time": 209.22773000000038,
                    "velocity": 0.30708661417322836,
                    "duration": 0.32041000000000963
                },
                {
                    "name": "F#4",
                    "midi": 66,
                    "time": 209.5481400000004,
                    "velocity": 0.36220472440944884,
                    "duration": 0.6408199999999908
                },
                {
                    "name": "D#4",
                    "midi": 63,
                    "time": 210.18896000000038,
                    "velocity": 0.30708661417322836,
                    "duration": 0.32041000000000963
                },
                {
                    "name": "G#4",
                    "midi": 68,
                    "time": 210.8297800000004,
                    "velocity": 0.30708661417322836,
                    "duration": 0.32041000000000963
                },
                {
                    "name": "A#4",
                    "midi": 70,
                    "time": 211.1501900000004,
                    "velocity": 0.30708661417322836,
                    "duration": 0.32041000000000963
                },
                {
                    "name": "F#4",
                    "midi": 66,
                    "time": 211.47060000000042,
                    "velocity": 0.36220472440944884,
                    "duration": 0.6408199999999908
                },
                {
                    "name": "D#4",
                    "midi": 63,
                    "time": 212.1114200000004,
                    "velocity": 0.33858267716535434,
                    "duration": 0.32041000000000963
                },
                {
                    "name": "G#4",
                    "midi": 68,
                    "time": 212.75224000000043,
                    "velocity": 0.3464566929133858,
                    "duration": 0.32041000000000963
                },
                {
                    "name": "A#4",
                    "midi": 70,
                    "time": 213.07265000000044,
                    "velocity": 0.3543307086614173,
                    "duration": 0.32041000000000963
                },
                {
                    "name": "B4",
                    "midi": 71,
                    "time": 213.39306000000045,
                    "velocity": 0.3700787401574803,
                    "duration": 0.32041000000000963
                },
                {
                    "name": "C5",
                    "midi": 72,
                    "time": 213.71347000000046,
                    "velocity": 0.4015748031496063,
                    "duration": 0.32041000000000963
                },
                {
                    "name": "C#5",
                    "midi": 73,
                    "time": 214.03388000000047,
                    "velocity": 0.44881889763779526,
                    "duration": 0.32041000000000963
                },
                {
                    "name": "A#4",
                    "midi": 70,
                    "time": 300.8649900000005,
                    "velocity": 0.4015748031496063,
                    "duration": 0.3204099999999812
                },
                {
                    "name": "F4",
                    "midi": 65,
                    "time": 301.18540000000047,
                    "velocity": 0.33070866141732286,
                    "duration": 0.3204099999999812
                },
                {
                    "name": "F#4",
                    "midi": 66,
                    "time": 301.50581000000045,
                    "velocity": 0.36220472440944884,
                    "duration": 0.3204099999999812
                },
                {
                    "name": "D#5",
                    "midi": 75,
                    "time": 301.82622000000043,
                    "velocity": 0.4015748031496063,
                    "duration": 0.6408200000000193
                },
                {
                    "name": "C#5",
                    "midi": 73,
                    "time": 302.46704000000045,
                    "velocity": 0.3700787401574803,
                    "duration": 0.3204099999999812
                },
                {
                    "name": "C#5",
                    "midi": 73,
                    "time": 302.78745000000043,
                    "velocity": 0.3700787401574803,
                    "duration": 0.3204099999999812
                },
                {
                    "name": "F#4",
                    "midi": 66,
                    "time": 303.1078600000004,
                    "velocity": 0.2992125984251969,
                    "duration": 0.3204099999999812
                },
                {
                    "name": "G#4",
                    "midi": 68,
                    "time": 303.4282700000004,
                    "velocity": 0.2992125984251969,
                    "duration": 0.3204099999999812
                },
                {
                    "name": "A#4",
                    "midi": 70,
                    "time": 303.7486800000004,
                    "velocity": 0.3858267716535433,
                    "duration": 2.242869999999982
                }
            ],
            "controlChanges": {},
            "id": 1,
            "name": "Piano right 1",
            "channelNumber": 0,
            "isPercussion": false
        },
        {
            "startTime": 0.6408200000000001,
            "duration": 314.64262000000167,
            "length": 2303,
            "notes": [
                {
                    "name": "A#3",
                    "midi": 58,
                    "time": 0.6408200000000001,
                    "velocity": 0.5669291338582677,
                    "duration": 0.32041
                },
                {
                    "name": "D#3",
                    "midi": 51,
                    "time": 0.96123,
                    "velocity": 0.3700787401574803,
                    "duration": 0.06007687500000003
                },
                {
                    "name": "D#4",
                    "midi": 63,
                    "time": 0.96123,
                    "velocity": 0.4409448818897638,
                    "duration": 0.06007687500000003
                },
                {
                    "name": "D#3",
                    "midi": 51,
                    "time": 1.121435,
                    "velocity": 0.3858267716535433,
                    "duration": 0.06007687500000003
                },
                {
                    "name": "D#4",
                    "midi": 63,
                    "time": 1.121435,
                    "velocity": 0.4566929133858268,
                    "duration": 0.06007687500000003
                },
                {
                    "name": "D#3",
                    "midi": 51,
                    "time": 1.28164,
                    "velocity": 0.4251968503937008,
                    "duration": 0.06007687500000003
                },
                {
                    "name": "D#4",
                    "midi": 63,
                    "time": 1.28164,
                    "velocity": 0.5039370078740157,
                    "duration": 0.06007687500000003
                },
                {
                    "name": "D#3",
                    "midi": 51,
                    "time": 1.4418449999999998,
                    "velocity": 0.4409448818897638,
                    "duration": 0.06007687500000003
                },
                {
                    "name": "D#4",
                    "midi": 63,
                    "time": 1.4418449999999998,
                    "velocity": 0.5118110236220472,
                    "duration": 0.06007687500000003
                },
                {
                    "name": "D#3",
                    "midi": 51,
                    "time": 1.6020499999999998,
                    "velocity": 0.48031496062992124,
                    "duration": 0.3204100000000001
                },
                {
                    "name": "D#4",
                    "midi": 63,
                    "time": 1.6020499999999998,
                    "velocity": 0.5669291338582677,
                    "duration": 0.3204100000000001
                },
                {
                    "name": "F4",
                    "midi": 65,
                    "time": 1.9224599999999998,
                    "velocity": 0.6299212598425197,
                    "duration": 0.3204100000000001
                },
                {
                    "name": "B3",
                    "midi": 59,
                    "time": 1.9224599999999998,
                    "velocity": 0.5275590551181102,
                    "duration": 0.3204100000000001
                },
                {
                    "name": "D#4",
                    "midi": 63,
                    "time": 1.9224599999999998,
                    "velocity": 0.5275590551181102,
                    "duration": 0.3204100000000001
                },
                {
                    "name": "F3",
                    "midi": 53,
                    "time": 1.9224599999999998,
                    "velocity": 0.5275590551181102,
                    "duration": 0.3204100000000001
                },
                {
                    "name": "F4",
                    "midi": 65,
                    "time": 2.24287,
                    "velocity": 0.4409448818897638,
                    "duration": 0.16020499999999993
                },
                {
                    "name": "B4",
                    "midi": 71,
                    "time": 2.24287,
                    "velocity": 0.4409448818897638,
                    "duration": 0.16020499999999993
                },
                {
                    "name": "D#5",
                    "midi": 75,
                    "time": 2.24287,
                    "velocity": 0.4409448818897638,
                    "duration": 0.16020499999999993
                },
                {
                    "name": "F5",
                    "midi": 77,
                    "time": 2.24287,
                    "velocity": 0.5354330708661418,
                    "duration": 0.16020499999999993
                },
                {
                    "name": "D#4",
                    "midi": 63,
                    "time": 2.403075,
                    "velocity": 0.4330708661417323,
                    "duration": 0.16020499999999993
                },
                {
                    "name": "D#5",
                    "midi": 75,
                    "time": 2.403075,
                    "velocity": 0.5196850393700787,
                    "duration": 0.16020499999999993
                },
                {
                    "name": "F4",
                    "midi": 65,
                    "time": 2.56328,
                    "velocity": 0.4409448818897638,
                    "duration": 0.16020499999999993
                },
                {
                    "name": "A#4",
                    "midi": 70,
                    "time": 2.56328,
                    "velocity": 0.4409448818897638,
                    "duration": 0.16020499999999993
                },
                {
                    "name": "D5",
                    "midi": 74,
                    "time": 2.56328,
                    "velocity": 0.4409448818897638,
                    "duration": 0.16020499999999993
                },
                {
                    "name": "F5",
                    "midi": 77,
                    "time": 2.56328,
                    "velocity": 0.5354330708661418,
                    "duration": 0.16020499999999993
                },
                {
                    "name": "F#4",
                    "midi": 66,
                    "time": 2.7234849999999997,
                    "velocity": 0.41732283464566927,
                    "duration": 0.16020499999999993
                },
                {
                    "name": "F#5",
                    "midi": 78,
                    "time": 2.7234849999999997,
                    "velocity": 0.5118110236220472,
                    "duration": 0.16020499999999993
                },
                {
                    "name": "F#3",
                    "midi": 54,
                    "time": 2.8836899999999996,
                    "velocity": 0.3858267716535433,
                    "duration": 0.06007687500000003
                },
                {
                    "name": "F#4",
                    "midi": 66,
                    "time": 2.8836899999999996,
                    "velocity": 0.4645669291338583,
                    "duration": 0.06007687500000003
                },
                {
                    "name": "F#3",
                    "midi": 54,
                    "time": 3.0438949999999996,
                    "velocity": 0.4094488188976378,
                    "duration": 0.06007687500000003
                },
                {
                    "name": "F#4",
                    "midi": 66,
                    "time": 3.0438949999999996,
                    "velocity": 0.48031496062992124,
                    "duration": 0.06007687500000003
                },
                {
                    "name": "F#3",
                    "midi": 54,
                    "time": 3.2040999999999995,
                    "velocity": 0.44881889763779526,
                    "duration": 0.06007687500000003
                },
                {
                    "name": "F#4",
                    "midi": 66,
                    "time": 3.2040999999999995,
                    "velocity": 0.5275590551181102,
                    "duration": 0.06007687500000003
                },
                {
                    "name": "F#3",
                    "midi": 54,
                    "time": 3.3643049999999994,
                    "velocity": 0.44881889763779526,
                    "duration": 0.06007687500000003
                },
                {
                    "name": "F#4",
                    "midi": 66,
                    "time": 3.3643049999999994,
                    "velocity": 0.5196850393700787,
                    "duration": 0.06007687500000003
                },
                {
                    "name": "F#3",
                    "midi": 54,
                    "time": 3.5245099999999994,
                    "velocity": 0.5039370078740157,
                    "duration": 0.32040999999999986
                },
                {
                    "name": "F#4",
                    "midi": 66,
                    "time": 3.5245099999999994,
                    "velocity": 0.5905511811023622,
                    "duration": 0.32040999999999986
                },
                {
                    "name": "G#3",
                    "midi": 56,
                    "time": 3.8449199999999992,
                    "velocity": 0.5275590551181102,
                    "duration": 0.32040999999999986
                },
                {
                    "name": "D4",
                    "midi": 62,
                    "time": 3.8449199999999992,
                    "velocity": 0.5433070866141733,
                    "duration": 0.32040999999999986
                },
                {
                    "name": "F#4",
                    "midi": 66,
                    "time": 3.8449199999999992,
                    "velocity": 0.5433070866141733,
                    "duration": 0.32040999999999986
                },
                {
                    "name": "G#4",
                    "midi": 68,
                    "time": 3.8449199999999992,
                    "velocity": 0.6456692913385826,
                    "duration": 0.32040999999999986
                },
                {
                    "name": "G#5",
                    "midi": 80,
                    "time": 4.165329999999999,
                    "velocity": 0.5669291338582677,
                    "duration": 0.16020500000000037
                },
                {
                    "name": "D5",
                    "midi": 74,
                    "time": 4.165329999999999,
                    "velocity": 0.4645669291338583,
                    "duration": 0.16020500000000037
                },
                {
                    "name": "F#5",
                    "midi": 78,
                    "time": 4.165329999999999,
                    "velocity": 0.4645669291338583,
                    "duration": 0.16020500000000037
                },
                {
                    "name": "G#4",
                    "midi": 68,
                    "time": 4.165329999999999,
                    "velocity": 0.4645669291338583,
                    "duration": 0.16020500000000037
                },
                {
                    "name": "F#4",
                    "midi": 66,
                    "time": 4.3255349999999995,
                    "velocity": 0.4566929133858268,
                    "duration": 0.16020500000000037
                },
                {
                    "name": "F#5",
                    "midi": 78,
                    "time": 4.3255349999999995,
                    "velocity": 0.5511811023622047,
                    "duration": 0.16020500000000037
                },
                {
                    "name": "G#5",
                    "midi": 80,
                    "time": 4.48574,
                    "velocity": 0.5669291338582677,
                    "duration": 0.16020500000000037
                },
                {
                    "name": "C#5",
                    "midi": 73,
                    "time": 4.48574,
                    "velocity": 0.4645669291338583,
                    "duration": 0.16020500000000037
                },
                {
                    "name": "F5",
                    "midi": 77,
                    "time": 4.48574,
                    "velocity": 0.4645669291338583,
                    "duration": 0.16020500000000037
                },
                {
                    "name": "G#4",
                    "midi": 68,
                    "time": 4.48574,
                    "velocity": 0.4645669291338583,
                    "duration": 0.16020500000000037
                },
                {
                    "name": "A4",
                    "midi": 69,
                    "time": 4.645945,
                    "velocity": 0.4251968503937008,
                    "duration": 0.16020500000000037
                },
                {
                    "name": "A5",
                    "midi": 81,
                    "time": 4.645945,
                    "velocity": 0.5118110236220472,
                    "duration": 0.16020500000000037
                },
                {
                    "name": "A3",
                    "midi": 57,
                    "time": 4.806150000000001,
                    "velocity": 0.3700787401574803,
                    "duration": 0.06007687500000003
                },
                {
                    "name": "A4",
                    "midi": 69,
                    "time": 4.806150000000001,
                    "velocity": 0.4409448818897638,
                    "duration": 0.06007687500000003
                },
                {
                    "name": "A3",
                    "midi": 57,
                    "time": 4.966355000000001,
                    "velocity": 0.4015748031496063,
                    "duration": 0.06007687500000003
                },
                {
                    "name": "A4",
                    "midi": 69,
                    "time": 4.966355000000001,
                    "velocity": 0.47244094488188976,
                    "duration": 0.06007687500000003
                },
                {
                    "name": "A3",
                    "midi": 57,
                    "time": 5.126560000000001,
                    "velocity": 0.4251968503937008,
                    "duration": 0.06007687500000003
                },
                {
                    "name": "A4",
                    "midi": 69,
                    "time": 5.126560000000001,
                    "velocity": 0.5039370078740157,
                    "duration": 0.06007687500000003
                },
                {
                    "name": "A3",
                    "midi": 57,
                    "time": 5.286765000000002,
                    "velocity": 0.4645669291338583,
                    "duration": 0.06007687500000003
                },
                {
                    "name": "A4",
                    "midi": 69,
                    "time": 5.286765000000002,
                    "velocity": 0.5433070866141733,
                    "duration": 0.06007687500000003
                },
                {
                    "name": "A3",
                    "midi": 57,
                    "time": 5.446970000000002,
                    "velocity": 0.5354330708661418,
                    "duration": 0.32040999999999986
                },
                {
                    "name": "A4",
                    "midi": 69,
                    "time": 5.446970000000002,
                    "velocity": 0.6220472440944882,
                    "duration": 0.32040999999999986
                },
                {
                    "name": "A#3",
                    "midi": 58,
                    "time": 5.767380000000002,
                    "velocity": 0.4094488188976378,
                    "duration": 0.06007687500000003
                },
                {
                    "name": "A#4",
                    "midi": 70,
                    "time": 5.767380000000002,
                    "velocity": 0.49606299212598426,
                    "duration": 0.06007687500000003
                },
                {
                    "name": "G#4",
                    "midi": 68,
                    "time": 5.767380000000002,
                    "velocity": 0.4094488188976378,
                    "duration": 0.06007687500000003
                },
                {
                    "name": "G#3",
                    "midi": 56,
                    "time": 5.767380000000002,
                    "velocity": 0.4094488188976378,
                    "duration": 0.06007687500000003
                },
                {
                    "name": "F4",
                    "midi": 65,
                    "time": 5.767380000000002,
                    "velocity": 0.4094488188976378,
                    "duration": 0.06007687500000003
                },
                {
                    "name": "A#3",
                    "midi": 58,
                    "time": 5.927585000000002,
                    "velocity": 0.4330708661417323,
                    "duration": 0.06007687500000003
                },
                {
                    "name": "F4",
                    "midi": 65,
                    "time": 5.927585000000002,
                    "velocity": 0.4330708661417323,
                    "duration": 0.06007687500000003
                },
                {
                    "name": "G#4",
                    "midi": 68,
                    "time": 5.927585000000002,
                    "velocity": 0.4330708661417323,
                    "duration": 0.06007687500000003
                },
                {
                    "name": "G#3",
                    "midi": 56,
                    "time": 5.927585000000002,
                    "velocity": 0.4330708661417323,
                    "duration": 0.06007687500000003
                },
                {
                    "name": "A#4",
                    "midi": 70,
                    "time": 5.927585000000002,
                    "velocity": 0.5196850393700787,
                    "duration": 0.06007687500000003
                },
                {
                    "name": "A#3",
                    "midi": 58,
                    "time": 6.087790000000003,
                    "velocity": 0.44881889763779526,
                    "duration": 0.06007687500000003
                },
                {
                    "name": "F4",
                    "midi": 65,
                    "time": 6.087790000000003,
                    "velocity": 0.44881889763779526,
                    "duration": 0.06007687500000003
                },
                {
                    "name": "G#4",
                    "midi": 68,
                    "time": 6.087790000000003,
                    "velocity": 0.44881889763779526,
                    "duration": 0.06007687500000003
                },
                {
                    "name": "G#3",
                    "midi": 56,
                    "time": 6.087790000000003,
                    "velocity": 0.44881889763779526,
                    "duration": 0.06007687500000003
                },
                {
                    "name": "A#4",
                    "midi": 70,
                    "time": 6.087790000000003,
                    "velocity": 0.5275590551181102,
                    "duration": 0.06007687500000003
                },
                {
                    "name": "G#3",
                    "midi": 56,
                    "time": 6.247995000000003,
                    "velocity": 0.44881889763779526,
                    "duration": 0.06007687500000003
                },
                {
                    "name": "F4",
                    "midi": 65,
                    "time": 6.247995000000003,
                    "velocity": 0.44881889763779526,
                    "duration": 0.06007687500000003
                },
                {
                    "name": "G#4",
                    "midi": 68,
                    "time": 6.247995000000003,
                    "velocity": 0.5354330708661418,
                    "duration": 0.06007687500000003
                },
                {
                    "name": "A#3",
                    "midi": 58,
                    "time": 6.247995000000003,
                    "velocity": 0.44881889763779526,
                    "duration": 0.06007687500000003
                },
                {
                    "name": "A#4",
                    "midi": 70,
                    "time": 6.247995000000003,
                    "velocity": 0.5354330708661418,
                    "duration": 0.06007687500000003
                },
                {
                    "name": "G#3",
                    "midi": 56,
                    "time": 6.4082000000000034,
                    "velocity": 0.5354330708661418,
                    "duration": 0.32040999999999986
                },
                {
                    "name": "A#4",
                    "midi": 70,
                    "time": 6.4082000000000034,
                    "velocity": 0.6377952755905512,
                    "duration": 0.32040999999999986
                },
                {
                    "name": "G#4",
                    "midi": 68,
                    "time": 6.4082000000000034,
                    "velocity": 0.5354330708661418,
                    "duration": 0.32040999999999986
                },
                {
                    "name": "A#3",
                    "midi": 58,
                    "time": 6.4082000000000034,
                    "velocity": 0.5354330708661418,
                    "duration": 0.32040999999999986
                },
                {
                    "name": "D4",
                    "midi": 62,
                    "time": 6.4082000000000034,
                    "velocity": 0.5354330708661418,
                    "duration": 0.32040999999999986
                },
                {
                    "name": "A#4",
                    "midi": 70,
                    "time": 6.728610000000003,
                    "velocity": 0.49606299212598426,
                    "duration": 0.06007687500000003
                },
                {
                    "name": "D#4",
                    "midi": 63,
                    "time": 6.728610000000003,
                    "velocity": 0.4094488188976378,
                    "duration": 0.06007687500000003
                },
                {
                    "name": "F#4",
                    "midi": 66,
                    "time": 6.728610000000003,
                    "velocity": 0.4094488188976378,
                    "duration": 0.06007687500000003
                },
                {
                    "name": "A#3",
                    "midi": 58,
                    "time": 6.728610000000003,
                    "velocity": 0.4094488188976378,
                    "duration": 0.06007687500000003
                },
                {
                    "name": "A#3",
                    "midi": 58,
                    "time": 6.888815000000004,
                    "velocity": 0.4330708661417323,
                    "duration": 0.06007687500000003
                },
                {
                    "name": "D#4",
                    "midi": 63,
                    "time": 6.888815000000004,
                    "velocity": 0.4330708661417323,
                    "duration": 0.06007687500000003
                },
                {
                    "name": "F#4",
                    "midi": 66,
                    "time": 6.888815000000004,
                    "velocity": 0.4330708661417323,
                    "duration": 0.06007687500000003
                },
                {
                    "name": "A#4",
                    "midi": 70,
                    "time": 6.888815000000004,
                    "velocity": 0.5196850393700787,
                    "duration": 0.06007687500000003
                },
                {
                    "name": "D#4",
                    "midi": 63,
                    "time": 7.049020000000004,
                    "velocity": 0.44881889763779526,
                    "duration": 0.06007687500000003
                },
                {
                    "name": "F#4",
                    "midi": 66,
                    "time": 7.049020000000004,
                    "velocity": 0.44881889763779526,
                    "duration": 0.06007687500000003
                },
                {
                    "name": "A#4",
                    "midi": 70,
                    "time": 7.049020000000004,
                    "velocity": 0.5275590551181102,
                    "duration": 0.06007687500000003
                },
                {
                    "name": "D#4",
                    "midi": 63,
                    "time": 7.209225000000004,
                    "velocity": 0.4409448818897638,
                    "duration": 0.06007687500000003
                },
                {
                    "name": "F#4",
                    "midi": 66,
                    "time": 7.209225000000004,
                    "velocity": 0.4409448818897638,
                    "duration": 0.06007687500000003
                },
                {
                    "name": "A#4",
                    "midi": 70,
                    "time": 7.209225000000004,
                    "velocity": 0.5275590551181102,
                    "duration": 0.06007687500000003
                },
                {
                    "name": "D#4",
                    "midi": 63,
                    "time": 7.369430000000005,
                    "velocity": 0.5511811023622047,
                    "duration": 0.32040999999999986
                },
                {
                    "name": "F#4",
                    "midi": 66,
                    "time": 7.369430000000005,
                    "velocity": 0.5669291338582677,
                    "duration": 0.32040999999999986
                },
                {
                    "name": "A#4",
                    "midi": 70,
                    "time": 7.369430000000005,
                    "velocity": 0.6692913385826772,
                    "duration": 0.32040999999999986
                },
                {
                    "name": "A#3",
                    "midi": 58,
                    "time": 7.689840000000005,
                    "velocity": 0.5196850393700787,
                    "duration": 0.32040999999999986
                },
                {
                    "name": "D#4",
                    "midi": 63,
                    "time": 7.689840000000005,
                    "velocity": 0.5196850393700787,
                    "duration": 0.32040999999999986
                },
                {
                    "name": "A#4",
                    "midi": 70,
                    "time": 7.689840000000005,
                    "velocity": 0.6141732283464567,
                    "duration": 0.32040999999999986
                },
                {
                    "name": "G#3",
                    "midi": 56,
                    "time": 8.010250000000005,
                    "velocity": 0.5196850393700787,
                    "duration": 0.32041000000000075
                },
                {
                    "name": "D#4",
                    "midi": 63,
                    "time": 8.010250000000005,
                    "velocity": 0.5196850393700787,
                    "duration": 0.32041000000000075
                },
                {
                    "name": "G#4",
                    "midi": 68,
                    "time": 8.010250000000005,
                    "velocity": 0.6141732283464567,
                    "duration": 0.32041000000000075
                },
                {
                    "name": "F#3",
                    "midi": 54,
                    "time": 8.330660000000005,
                    "velocity": 0.49606299212598426,
                    "duration": 0.32041000000000075
                },
                {
                    "name": "A3",
                    "midi": 57,
                    "time": 8.330660000000005,
                    "velocity": 0.49606299212598426,
                    "duration": 0.32041000000000075
                },
                {
                    "name": "D#4",
                    "midi": 63,
                    "time": 8.330660000000005,
                    "velocity": 0.49606299212598426,
                    "duration": 0.32041000000000075
                },
                {
                    "name": "F#4",
                    "midi": 66,
                    "time": 8.330660000000005,
                    "velocity": 0.5826771653543307,
                    "duration": 0.32041000000000075
                },
                {
                    "name": "A#3",
                    "midi": 58,
                    "time": 8.651070000000006,
                    "velocity": 0.4094488188976378,
                    "duration": 0.1602049999999995
                },
                {
                    "name": "C#4",
                    "midi": 61,
                    "time": 8.651070000000006,
                    "velocity": 0.4094488188976378,
                    "duration": 0.1602049999999995
                },
                {
                    "name": "F4",
                    "midi": 65,
                    "time": 8.651070000000006,
                    "velocity": 0.48031496062992124,
                    "duration": 0.1602049999999995
                },
                {
                    "name": "C#4",
                    "midi": 61,
                    "time": 8.811275000000006,
                    "velocity": 0.4645669291338583,
                    "duration": 0.1602049999999995
                },
                {
                    "name": "F#4",
                    "midi": 66,
                    "time": 8.971480000000005,
                    "velocity": 0.5196850393700787,
                    "duration": 0.1602049999999995
                },
                {
                    "name": "C#5",
                    "midi": 73,
                    "time": 8.971480000000005,
                    "velocity": 0.6141732283464567,
                    "duration": 0.1602049999999995
                },
                {
                    "name": "F#4",
                    "midi": 66,
                    "time": 9.131685000000004,
                    "velocity": 0.5748031496062992,
                    "duration": 0.1602049999999995
                },
                {
                    "name": "A#4",
                    "midi": 70,
                    "time": 9.291890000000004,
                    "velocity": 0.5433070866141733,
                    "duration": 0.1602049999999995
                },
                {
                    "name": "F#5",
                    "midi": 78,
                    "time": 9.291890000000004,
                    "velocity": 0.6456692913385826,
                    "duration": 0.1602049999999995
                },
                {
                    "name": "A#4",
                    "midi": 70,
                    "time": 9.452095000000003,
                    "velocity": 0.5590551181102362,
                    "duration": 0.1602049999999995
                },
                {
                    "name": "C#5",
                    "midi": 73,
                    "time": 9.612300000000003,
                    "velocity": 0.5118110236220472,
                    "duration": 0.1602049999999995
                },
                {
                    "name": "A#5",
                    "midi": 82,
                    "time": 9.612300000000003,
                    "velocity": 0.5984251968503937,
                    "duration": 0.1602049999999995
                },
                {
                    "name": "C#5",
                    "midi": 73,
                    "time": 9.772505000000002,
                    "velocity": 0.5433070866141733,
                    "duration": 0.1602049999999995
                },
                {
                    "name": "F#5",
                    "midi": 78,
                    "time": 9.932710000000002,
                    "velocity": 0.5196850393700787,
                    "duration": 0.1602049999999995
                },
                {
                    "name": "C#6",
                    "midi": 85,
                    "time": 9.932710000000002,
                    "velocity": 0.6141732283464567,
                    "duration": 0.1602049999999995
                },
                {
                    "name": "F#5",
                    "midi": 78,
                    "time": 10.092915000000001,
                    "velocity": 0.5748031496062992,
                    "duration": 0.1602049999999995
                },
                {
                    "name": "A#5",
                    "midi": 82,
                    "time": 10.253120000000001,
                    "velocity": 0.5433070866141733,
                    "duration": 0.1602049999999995
                },
                {
                    "name": "F#6",
                    "midi": 90,
                    "time": 10.253120000000001,
                    "velocity": 0.6456692913385826,
                    "duration": 0.1602049999999995
                },
                {
                    "name": "A#5",
                    "midi": 82,
                    "time": 10.413325,
                    "velocity": 0.5905511811023622,
                    "duration": 0.1602049999999995
                },
                {
                    "name": "C#6",
                    "midi": 85,
                    "time": 10.57353,
                    "velocity": 0.5433070866141733,
                    "duration": 0.32041000000000075
                },
                {
                    "name": "A#5",
                    "midi": 82,
                    "time": 10.57353,
                    "velocity": 0.5433070866141733,
                    "duration": 0.32041000000000075
                },
                {
                    "name": "A#6",
                    "midi": 94,
                    "time": 10.57353,
                    "velocity": 0.6456692913385826,
                    "duration": 0.32041000000000075
                },
                {
                    "name": "C#6",
                    "midi": 85,
                    "time": 10.89394,
                    "velocity": 0.5196850393700787,
                    "duration": 0.32041000000000075
                },
                {
                    "name": "G#5",
                    "midi": 80,
                    "time": 10.89394,
                    "velocity": 0.5039370078740157,
                    "duration": 0.32041000000000075
                },
                {
                    "name": "G#6",
                    "midi": 92,
                    "time": 10.89394,
                    "velocity": 0.5984251968503937,
                    "duration": 0.32041000000000075
                },
                {
                    "name": "C#6",
                    "midi": 85,
                    "time": 11.214350000000001,
                    "velocity": 0.5748031496062992,
                    "duration": 0.32041000000000075
                },
                {
                    "name": "G#5",
                    "midi": 80,
                    "time": 11.214350000000001,
                    "velocity": 0.48031496062992124,
                    "duration": 0.32041000000000075
                },
                {
                    "name": "C#5",
                    "midi": 73,
                    "time": 11.214350000000001,
                    "velocity": 0.48031496062992124,
                    "duration": 0.32041000000000075
                },
                {
                    "name": "C#5",
                    "midi": 73,
                    "time": 11.534760000000002,
                    "velocity": 0.44881889763779526,
                    "duration": 0.32041000000000075
                },
                {
                    "name": "G#5",
                    "midi": 80,
                    "time": 11.534760000000002,
                    "velocity": 0.48031496062992124,
                    "duration": 0.32041000000000075
                },
                {
                    "name": "C#6",
                    "midi": 85,
                    "time": 11.534760000000002,
                    "velocity": 0.5905511811023622,
                    "duration": 0.6408200000000015
                },
                {
                    "name": "F#6",
                    "midi": 90,
                    "time": 11.855170000000003,
                    "velocity": 0.5354330708661418,
                    "duration": 0.32041000000000075
                },
                {
                    "name": "F#5",
                    "midi": 78,
                    "time": 11.855170000000003,
                    "velocity": 0.4566929133858268,
                    "duration": 0.32041000000000075
                },
                {
                    "name": "C#5",
                    "midi": 73,
                    "time": 12.175580000000004,
                    "velocity": 0.4409448818897638,
                    "duration": 0.32041000000000075
                },
                {
                    "name": "G#4",
                    "midi": 68,
                    "time": 12.175580000000004,
                    "velocity": 0.3858267716535433,
                    "duration": 0.32041000000000075
                },
                {
                    "name": "C#4",
                    "midi": 61,
                    "time": 12.175580000000004,
                    "velocity": 0.31496062992125984,
                    "duration": 0.32041000000000075
                },
                {
                    "name": "C#4",
                    "midi": 61,
                    "time": 12.495990000000004,
                    "velocity": 0.31496062992125984,
                    "duration": 0.32041000000000075
                },
                {
                    "name": "G#4",
                    "midi": 68,
                    "time": 12.495990000000004,
                    "velocity": 0.3779527559055118,
                    "duration": 0.32041000000000075
                },
                {
                    "name": "C#5",
                    "midi": 73,
                    "time": 12.495990000000004,
                    "velocity": 0.4409448818897638,
                    "duration": 0.6408200000000015
                },
                {
                    "name": "F#5",
                    "midi": 78,
                    "time": 12.816400000000005,
                    "velocity": 0.4409448818897638,
                    "duration": 0.32041000000000075
                },
                {
                    "name": "F#4",
                    "midi": 66,
                    "time": 12.816400000000005,
                    "velocity": 0.3858267716535433,
                    "duration": 0.32041000000000075
                },
                {
                    "name": "C#5",
                    "midi": 73,
                    "time": 13.136810000000006,
                    "velocity": 0.4330708661417323,
                    "duration": 0.32041000000000075
                },
                {
                    "name": "G#4",
                    "midi": 68,
                    "time": 13.136810000000006,
                    "velocity": 0.36220472440944884,
                    "duration": 0.32041000000000075
                },
                {
                    "name": "C#4",
                    "midi": 61,
                    "time": 13.136810000000006,
                    "velocity": 0.2992125984251969,
                    "duration": 0.32041000000000075
                },
                {
                    "name": "C#4",
                    "midi": 61,
                    "time": 13.457220000000007,
                    "velocity": 0.31496062992125984,
                    "duration": 0.32041000000000075
                },
                {
                    "name": "G#4",
                    "midi": 68,
                    "time": 13.457220000000007,
                    "velocity": 0.3779527559055118,
                    "duration": 0.32041000000000075
                },
                {
                    "name": "C#5",
                    "midi": 73,
                    "time": 13.457220000000007,
                    "velocity": 0.4330708661417323,
                    "duration": 0.6408200000000015
                },
                {
                    "name": "F#5",
                    "midi": 78,
                    "time": 13.777630000000007,
                    "velocity": 0.4409448818897638,
                    "duration": 0.32041000000000075
                },
                {
                    "name": "F#4",
                    "midi": 66,
                    "time": 13.777630000000007,
                    "velocity": 0.3779527559055118,
                    "duration": 0.32041000000000075
                },
                {
                    "name": "C#4",
                    "midi": 61,
                    "time": 14.098040000000008,
                    "velocity": 0.4094488188976378,
                    "duration": 0.32041000000000075
                },
                {
                    "name": "C#5",
                    "midi": 73,
                    "time": 14.098040000000008,
                    "velocity": 0.4094488188976378,
                    "duration": 0.32041000000000075
                },
                {
                    "name": "C#4",
                    "midi": 61,
                    "time": 14.418450000000009,
                    "velocity": 0.4015748031496063,
                    "duration": 0.9612300000000005
                },
                {
                    "name": "C#5",
                    "midi": 73,
                    "time": 14.418450000000009,
                    "velocity": 0.4409448818897638,
                    "duration": 0.9612300000000005
                },
                {
                    "name": "A#3",
                    "midi": 58,
                    "time": 15.37968000000001,
                    "velocity": 0.36220472440944884,
                    "duration": 3.84492
                },
                {
                    "name": "A#4",
                    "midi": 70,
                    "time": 15.37968000000001,
                    "velocity": 0.41732283464566927,
                    "duration": 3.84492
                },
                {
                    "name": "D#3",
                    "midi": 51,
                    "time": 20.18583000000001,
                    "velocity": 0.4094488188976378,
                    "duration": 0.06007687500000003
                },
                {
                    "name": "D#4",
                    "midi": 63,
                    "time": 20.18583000000001,
                    "velocity": 0.49606299212598426,
                    "duration": 0.06007687500000003
                },
                {
                    "name": "D#3",
                    "midi": 51,
                    "time": 20.34603500000001,
                    "velocity": 0.4330708661417323,
                    "duration": 0.06007687500000003
                },
                {
                    "name": "D#4",
                    "midi": 63,
                    "time": 20.34603500000001,
                    "velocity": 0.5196850393700787,
                    "duration": 0.06007687500000003
                },
                {
                    "name": "D#3",
                    "midi": 51,
                    "time": 20.506240000000012,
                    "velocity": 0.44881889763779526,
                    "duration": 0.06007687500000003
                },
                {
                    "name": "D#4",
                    "midi": 63,
                    "time": 20.506240000000012,
                    "velocity": 0.5275590551181102,
                    "duration": 0.06007687500000003
                },
                {
                    "name": "D#3",
                    "midi": 51,
                    "time": 20.666445000000014,
                    "velocity": 0.4645669291338583,
                    "duration": 0.06007687500000003
                },
                {
                    "name": "D#4",
                    "midi": 63,
                    "time": 20.666445000000014,
                    "velocity": 0.5354330708661418,
                    "duration": 0.06007687500000003
                },
                {
                    "name": "D#3",
                    "midi": 51,
                    "time": 20.826650000000015,
                    "velocity": 0.5433070866141733,
                    "duration": 0.320409999999999
                },
                {
                    "name": "D#4",
                    "midi": 63,
                    "time": 20.826650000000015,
                    "velocity": 0.6299212598425197,
                    "duration": 0.320409999999999
                },
                {
                    "name": "F4",
                    "midi": 65,
                    "time": 21.147060000000014,
                    "velocity": 0.7086614173228346,
                    "duration": 0.320409999999999
                },
                {
                    "name": "B3",
                    "midi": 59,
                    "time": 21.147060000000014,
                    "velocity": 0.5905511811023622,
                    "duration": 0.320409999999999
                },
                {
                    "name": "D#4",
                    "midi": 63,
                    "time": 21.147060000000014,
                    "velocity": 0.5905511811023622,
                    "duration": 0.320409999999999
                },
                {
                    "name": "F3",
                    "midi": 53,
                    "time": 21.147060000000014,
                    "velocity": 0.5905511811023622,
                    "duration": 0.320409999999999
                },
                {
                    "name": "F5",
                    "midi": 77,
                    "time": 21.467470000000013,
                    "velocity": 0.5984251968503937,
                    "duration": 0.16020500000000126
                },
                {
                    "name": "B4",
                    "midi": 71,
                    "time": 21.467470000000013,
                    "velocity": 0.49606299212598426,
                    "duration": 0.16020500000000126
                },
                {
                    "name": "D#5",
                    "midi": 75,
                    "time": 21.467470000000013,
                    "velocity": 0.49606299212598426,
                    "duration": 0.16020500000000126
                },
                {
                    "name": "F4",
                    "midi": 65,
                    "time": 21.467470000000013,
                    "velocity": 0.49606299212598426,
                    "duration": 0.16020500000000126
                },
                {
                    "name": "D#4",
                    "midi": 63,
                    "time": 21.627675000000014,
                    "velocity": 0.48031496062992124,
                    "duration": 0.16020500000000126
                },
                {
                    "name": "D#5",
                    "midi": 75,
                    "time": 21.627675000000014,
                    "velocity": 0.5826771653543307,
                    "duration": 0.16020500000000126
                },
                {
                    "name": "F5",
                    "midi": 77,
                    "time": 21.787880000000015,
                    "velocity": 0.5984251968503937,
                    "duration": 0.16020500000000126
                },
                {
                    "name": "A#4",
                    "midi": 70,
                    "time": 21.787880000000015,
                    "velocity": 0.49606299212598426,
                    "duration": 0.16020500000000126
                },
                {
                    "name": "D5",
                    "midi": 74,
                    "time": 21.787880000000015,
                    "velocity": 0.49606299212598426,
                    "duration": 0.16020500000000126
                },
                {
                    "name": "F4",
                    "midi": 65,
                    "time": 21.787880000000015,
                    "velocity": 0.49606299212598426,
                    "duration": 0.16020500000000126
                },
                {
                    "name": "F#4",
                    "midi": 66,
                    "time": 21.948085000000017,
                    "velocity": 0.4645669291338583,
                    "duration": 0.16020500000000126
                },
                {
                    "name": "F#5",
                    "midi": 78,
                    "time": 21.948085000000017,
                    "velocity": 0.5669291338582677,
                    "duration": 0.16020500000000126
                },
                {
                    "name": "F#3",
                    "midi": 54,
                    "time": 22.108290000000018,
                    "velocity": 0.4094488188976378,
                    "duration": 0.06007687500000003
                },
                {
                    "name": "F#4",
                    "midi": 66,
                    "time": 22.108290000000018,
                    "velocity": 0.49606299212598426,
                    "duration": 0.06007687500000003
                },
                {
                    "name": "F#3",
                    "midi": 54,
                    "time": 22.26849500000002,
                    "velocity": 0.4330708661417323,
                    "duration": 0.06007687500000003
                },
                {
                    "name": "F#4",
                    "midi": 66,
                    "time": 22.26849500000002,
                    "velocity": 0.5196850393700787,
                    "duration": 0.06007687500000003
                },
                {
                    "name": "F#3",
                    "midi": 54,
                    "time": 22.42870000000002,
                    "velocity": 0.44881889763779526,
                    "duration": 0.06007687500000003
                },
                {
                    "name": "F#4",
                    "midi": 66,
                    "time": 22.42870000000002,
                    "velocity": 0.5275590551181102,
                    "duration": 0.06007687500000003
                },
                {
                    "name": "F#3",
                    "midi": 54,
                    "time": 22.58890500000002,
                    "velocity": 0.44881889763779526,
                    "duration": 0.06007687500000003
                },
                {
                    "name": "F#4",
                    "midi": 66,
                    "time": 22.58890500000002,
                    "velocity": 0.5196850393700787,
                    "duration": 0.06007687500000003
                },
                {
                    "name": "F#3",
                    "midi": 54,
                    "time": 22.749110000000023,
                    "velocity": 0.5354330708661418,
                    "duration": 0.320409999999999
                },
                {
                    "name": "F#4",
                    "midi": 66,
                    "time": 22.749110000000023,
                    "velocity": 0.6220472440944882,
                    "duration": 0.320409999999999
                },
                {
                    "name": "G#3",
                    "midi": 56,
                    "time": 23.069520000000022,
                    "velocity": 0.5669291338582677,
                    "duration": 0.320409999999999
                },
                {
                    "name": "D4",
                    "midi": 62,
                    "time": 23.069520000000022,
                    "velocity": 0.5748031496062992,
                    "duration": 0.320409999999999
                },
                {
                    "name": "F#4",
                    "midi": 66,
                    "time": 23.069520000000022,
                    "velocity": 0.5905511811023622,
                    "duration": 0.320409999999999
                },
                {
                    "name": "G#4",
                    "midi": 68,
                    "time": 23.069520000000022,
                    "velocity": 0.6850393700787402,
                    "duration": 0.320409999999999
                },
                {
                    "name": "G#5",
                    "midi": 80,
                    "time": 23.38993000000002,
                    "velocity": 0.5984251968503937,
                    "duration": 0.16020500000000126
                },
                {
                    "name": "D5",
                    "midi": 74,
                    "time": 23.38993000000002,
                    "velocity": 0.49606299212598426,
                    "duration": 0.16020500000000126
                },
                {
                    "name": "F#5",
                    "midi": 78,
                    "time": 23.38993000000002,
                    "velocity": 0.49606299212598426,
                    "duration": 0.16020500000000126
                },
                {
                    "name": "G#4",
                    "midi": 68,
                    "time": 23.38993000000002,
                    "velocity": 0.49606299212598426,
                    "duration": 0.16020500000000126
                },
                {
                    "name": "F#4",
                    "midi": 66,
                    "time": 23.550135000000022,
                    "velocity": 0.48031496062992124,
                    "duration": 0.16020500000000126
                },
                {
                    "name": "F#5",
                    "midi": 78,
                    "time": 23.550135000000022,
                    "velocity": 0.5826771653543307,
                    "duration": 0.16020500000000126
                },
                {
                    "name": "G#5",
                    "midi": 80,
                    "time": 23.710340000000024,
                    "velocity": 0.5984251968503937,
                    "duration": 0.16020500000000126
                },
                {
                    "name": "C#5",
                    "midi": 73,
                    "time": 23.710340000000024,
                    "velocity": 0.49606299212598426,
                    "duration": 0.16020500000000126
                },
                {
                    "name": "F5",
                    "midi": 77,
                    "time": 23.710340000000024,
                    "velocity": 0.49606299212598426,
                    "duration": 0.16020500000000126
                },
                {
                    "name": "G#4",
                    "midi": 68,
                    "time": 23.710340000000024,
                    "velocity": 0.49606299212598426,
                    "duration": 0.16020500000000126
                },
                {
                    "name": "A4",
                    "midi": 69,
                    "time": 23.870545000000025,
                    "velocity": 0.4566929133858268,
                    "duration": 0.16020500000000126
                },
                {
                    "name": "A5",
                    "midi": 81,
                    "time": 23.870545000000025,
                    "velocity": 0.5590551181102362,
                    "duration": 0.16020500000000126
                },
                {
                    "name": "A3",
                    "midi": 57,
                    "time": 24.030750000000026,
                    "velocity": 0.3700787401574803,
                    "duration": 0.06007687500000003
                },
                {
                    "name": "A4",
                    "midi": 69,
                    "time": 24.030750000000026,
                    "velocity": 0.4409448818897638,
                    "duration": 0.06007687500000003
                },
                {
                    "name": "A3",
                    "midi": 57,
                    "time": 24.190955000000027,
                    "velocity": 0.4015748031496063,
                    "duration": 0.06007687500000003
                },
                {
                    "name": "A4",
                    "midi": 69,
                    "time": 24.190955000000027,
                    "velocity": 0.47244094488188976,
                    "duration": 0.06007687500000003
                },
                {
                    "name": "A3",
                    "midi": 57,
                    "time": 24.35116000000003,
                    "velocity": 0.4251968503937008,
                    "duration": 0.06007687500000003
                },
                {
                    "name": "A4",
                    "midi": 69,
                    "time": 24.35116000000003,
                    "velocity": 0.5039370078740157,
                    "duration": 0.06007687500000003
                },
                {
                    "name": "A3",
                    "midi": 57,
                    "time": 24.51136500000003,
                    "velocity": 0.44881889763779526,
                    "duration": 0.06007687500000003
                },
                {
                    "name": "A4",
                    "midi": 69,
                    "time": 24.51136500000003,
                    "velocity": 0.5354330708661418,
                    "duration": 0.06007687500000003
                },
                {
                    "name": "A3",
                    "midi": 57,
                    "time": 24.67157000000003,
                    "velocity": 0.5354330708661418,
                    "duration": 0.320409999999999
                },
                {
                    "name": "A4",
                    "midi": 69,
                    "time": 24.67157000000003,
                    "velocity": 0.6299212598425197,
                    "duration": 0.320409999999999
                },
                {
                    "name": "B4",
                    "midi": 71,
                    "time": 24.99198000000003,
                    "velocity": 0.5039370078740157,
                    "duration": 0.06007687500000003
                },
                {
                    "name": "F4",
                    "midi": 65,
                    "time": 24.99198000000003,
                    "velocity": 0.41732283464566927,
                    "duration": 0.06007687500000003
                },
                {
                    "name": "A4",
                    "midi": 69,
                    "time": 24.99198000000003,
                    "velocity": 0.41732283464566927,
                    "duration": 0.06007687500000003
                },
                {
                    "name": "B3",
                    "midi": 59,
                    "time": 24.99198000000003,
                    "velocity": 0.41732283464566927,
                    "duration": 0.06007687500000003
                },
                {
                    "name": "B3",
                    "midi": 59,
                    "time": 25.15218500000003,
                    "velocity": 0.4409448818897638,
                    "duration": 0.06007687500000003
                },
                {
                    "name": "F4",
                    "midi": 65,
                    "time": 25.15218500000003,
                    "velocity": 0.4409448818897638,
                    "duration": 0.06007687500000003
                },
                {
                    "name": "A4",
                    "midi": 69,
                    "time": 25.15218500000003,
                    "velocity": 0.4409448818897638,
                    "duration": 0.06007687500000003
                },
                {
                    "name": "B4",
                    "midi": 71,
                    "time": 25.15218500000003,
                    "velocity": 0.5275590551181102,
                    "duration": 0.06007687500000003
                },
                {
                    "name": "B4",
                    "midi": 71,
                    "time": 25.312390000000033,
                    "velocity": 0.5590551181102362,
                    "duration": 0.06007687500000003
                },
                {
                    "name": "F4",
                    "midi": 65,
                    "time": 25.312390000000033,
                    "velocity": 0.47244094488188976,
                    "duration": 0.06007687500000003
                },
                {
                    "name": "A4",
                    "midi": 69,
                    "time": 25.312390000000033,
                    "velocity": 0.47244094488188976,
                    "duration": 0.06007687500000003
                },
                {
                    "name": "B3",
                    "midi": 59,
                    "time": 25.312390000000033,
                    "velocity": 0.47244094488188976,
                    "duration": 0.06007687500000003
                },
                {
                    "name": "B4",
                    "midi": 71,
                    "time": 25.472595000000034,
                    "velocity": 0.5669291338582677,
                    "duration": 0.06007687500000003
                },
                {
                    "name": "F4",
                    "midi": 65,
                    "time": 25.472595000000034,
                    "velocity": 0.47244094488188976,
                    "duration": 0.06007687500000003
                },
                {
                    "name": "A4",
                    "midi": 69,
                    "time": 25.472595000000034,
                    "velocity": 0.5669291338582677,
                    "duration": 0.06007687500000003
                },
                {
                    "name": "B3",
                    "midi": 59,
                    "time": 25.472595000000034,
                    "velocity": 0.47244094488188976,
                    "duration": 0.06007687500000003
                },
                {
                    "name": "B3",
                    "midi": 59,
                    "time": 25.632800000000035,
                    "velocity": 0.5354330708661418,
                    "duration": 0.320409999999999
                },
                {
                    "name": "F4",
                    "midi": 65,
                    "time": 25.632800000000035,
                    "velocity": 0.5354330708661418,
                    "duration": 0.320409999999999
                },
                {
                    "name": "A4",
                    "midi": 69,
                    "time": 25.632800000000035,
                    "velocity": 0.5354330708661418,
                    "duration": 0.320409999999999
                },
                {
                    "name": "B4",
                    "midi": 71,
                    "time": 25.632800000000035,
                    "velocity": 0.6377952755905512,
                    "duration": 0.320409999999999
                },
                {
                    "name": "C5",
                    "midi": 72,
                    "time": 25.953210000000034,
                    "velocity": 0.5196850393700787,
                    "duration": 0.06007687500000003
                },
                {
                    "name": "D#4",
                    "midi": 63,
                    "time": 25.953210000000034,
                    "velocity": 0.4251968503937008,
                    "duration": 0.06007687500000003
                },
                {
                    "name": "A4",
                    "midi": 69,
                    "time": 25.953210000000034,
                    "velocity": 0.4251968503937008,
                    "duration": 0.06007687500000003
                },
                {
                    "name": "C4",
                    "midi": 60,
                    "time": 25.953210000000034,
                    "velocity": 0.4251968503937008,
                    "duration": 0.06007687500000003
                },
                {
                    "name": "C5",
                    "midi": 72,
                    "time": 26.113415000000035,
                    "velocity": 0.5433070866141733,
                    "duration": 0.06007687500000003
                },
                {
                    "name": "D#4",
                    "midi": 63,
                    "time": 26.113415000000035,
                    "velocity": 0.44881889763779526,
                    "duration": 0.06007687500000003
                },
                {
                    "name": "A4",
                    "midi": 69,
                    "time": 26.113415000000035,
                    "velocity": 0.44881889763779526,
                    "duration": 0.06007687500000003
                },
                {
                    "name": "C4",
                    "midi": 60,
                    "time": 26.113415000000035,
                    "velocity": 0.44881889763779526,
                    "duration": 0.06007687500000003
                },
                {
                    "name": "C4",
                    "midi": 60,
                    "time": 26.273620000000037,
                    "velocity": 0.49606299212598426,
                    "duration": 0.06007687500000003
                },
                {
                    "name": "D#4",
                    "midi": 63,
                    "time": 26.273620000000037,
                    "velocity": 0.49606299212598426,
                    "duration": 0.06007687500000003
                },
                {
                    "name": "C5",
                    "midi": 72,
                    "time": 26.273620000000037,
                    "velocity": 0.5826771653543307,
                    "duration": 0.06007687500000003
                },
                {
                    "name": "C4",
                    "midi": 60,
                    "time": 26.433825000000038,
                    "velocity": 0.4330708661417323,
                    "duration": 0.06007687500000003
                },
                {
                    "name": "D#4",
                    "midi": 63,
                    "time": 26.433825000000038,
                    "velocity": 0.4330708661417323,
                    "duration": 0.06007687500000003
                },
                {
                    "name": "C5",
                    "midi": 72,
                    "time": 26.433825000000038,
                    "velocity": 0.5984251968503937,
                    "duration": 0.06007687500000003
                },
                {
                    "name": "F#4",
                    "midi": 66,
                    "time": 26.59403000000004,
                    "velocity": 0.5748031496062992,
                    "duration": 0.320409999999999
                },
                {
                    "name": "C4",
                    "midi": 60,
                    "time": 26.59403000000004,
                    "velocity": 0.5748031496062992,
                    "duration": 0.320409999999999
                },
                {
                    "name": "D#4",
                    "midi": 63,
                    "time": 26.59403000000004,
                    "velocity": 0.5748031496062992,
                    "duration": 0.320409999999999
                },
                {
                    "name": "C5",
                    "midi": 72,
                    "time": 26.59403000000004,
                    "velocity": 0.6771653543307087,
                    "duration": 0.320409999999999
                },
                {
                    "name": "E5",
                    "midi": 76,
                    "time": 26.914440000000038,
                    "velocity": 0.6377952755905512,
                    "duration": 0.320409999999999
                },
                {
                    "name": "F#4",
                    "midi": 66,
                    "time": 26.914440000000038,
                    "velocity": 0.5433070866141733,
                    "duration": 0.320409999999999
                },
                {
                    "name": "A4",
                    "midi": 69,
                    "time": 26.914440000000038,
                    "velocity": 0.5433070866141733,
                    "duration": 0.320409999999999
                },
                {
                    "name": "E4",
                    "midi": 64,
                    "time": 26.914440000000038,
                    "velocity": 0.5433070866141733,
                    "duration": 0.320409999999999
                },
                {
                    "name": "D4",
                    "midi": 62,
                    "time": 27.234850000000037,
                    "velocity": 0.5433070866141733,
                    "duration": 0.320409999999999
                },
                {
                    "name": "G4",
                    "midi": 67,
                    "time": 27.234850000000037,
                    "velocity": 0.5433070866141733,
                    "duration": 0.320409999999999
                },
                {
                    "name": "D5",
                    "midi": 74,
                    "time": 27.234850000000037,
                    "velocity": 0.6377952755905512,
                    "duration": 0.320409999999999
                },
                {
                    "name": "D3",
                    "midi": 50,
                    "time": 27.555260000000036,
                    "velocity": 0.5669291338582677,
                    "duration": 0.320409999999999
                },
                {
                    "name": "D4",
                    "midi": 62,
                    "time": 27.555260000000036,
                    "velocity": 0.6692913385826772,
                    "duration": 0.320409999999999
                },
                {
                    "name": "C#4",
                    "midi": 61,
                    "time": 27.875670000000035,
                    "velocity": 0.48031496062992124,
                    "duration": 0.16020500000000126
                },
                {
                    "name": "C#4",
                    "midi": 61,
                    "time": 28.035875000000036,
                    "velocity": 0.4645669291338583,
                    "duration": 0.16020500000000126
                },
                {
                    "name": "F#4",
                    "midi": 66,
                    "time": 28.196080000000038,
                    "velocity": 0.5196850393700787,
                    "duration": 0.16020500000000126
                },
                {
                    "name": "C#5",
                    "midi": 73,
                    "time": 28.196080000000038,
                    "velocity": 0.6141732283464567,
                    "duration": 0.16020500000000126
                },
                {
                    "name": "F#4",
                    "midi": 66,
                    "time": 28.35628500000004,
                    "velocity": 0.5905511811023622,
                    "duration": 0.16020500000000126
                },
                {
                    "name": "A4",
                    "midi": 69,
                    "time": 28.51649000000004,
                    "velocity": 0.5433070866141733,
                    "duration": 0.16020500000000126
                },
                {
                    "name": "F#5",
                    "midi": 78,
                    "time": 28.51649000000004,
                    "velocity": 0.6456692913385826,
                    "duration": 0.16020500000000126
                },
                {
                    "name": "A4",
                    "midi": 69,
                    "time": 28.67669500000004,
                    "velocity": 0.5905511811023622,
                    "duration": 0.16020500000000126
                },
                {
                    "name": "C#5",
                    "midi": 73,
                    "time": 28.836900000000043,
                    "velocity": 0.5118110236220472,
                    "duration": 0.16020500000000126
                },
                {
                    "name": "A5",
                    "midi": 81,
                    "time": 28.836900000000043,
                    "velocity": 0.5984251968503937,
                    "duration": 0.16020500000000126
                },
                {
                    "name": "C#5",
                    "midi": 73,
                    "time": 28.997105000000044,
                    "velocity": 0.5590551181102362,
                    "duration": 0.16020500000000126
                },
                {
                    "name": "F#5",
                    "midi": 78,
                    "time": 29.157310000000045,
                    "velocity": 0.5196850393700787,
                    "duration": 0.16020500000000126
                },
                {
                    "name": "C#6",
                    "midi": 85,
                    "time": 29.157310000000045,
                    "velocity": 0.6141732283464567,
                    "duration": 0.16020500000000126
                },
                {
                    "name": "F#5",
                    "midi": 78,
                    "time": 29.317515000000046,
                    "velocity": 0.5905511811023622,
                    "duration": 0.16020500000000126
                },
                {
                    "name": "A5",
                    "midi": 81,
                    "time": 29.477720000000048,
                    "velocity": 0.5433070866141733,
                    "duration": 0.16020500000000126
                },
                {
                    "name": "F#6",
                    "midi": 90,
                    "time": 29.477720000000048,
                    "velocity": 0.6456692913385826,
                    "duration": 0.16020500000000126
                },
                {
                    "name": "A5",
                    "midi": 81,
                    "time": 29.63792500000005,
                    "velocity": 0.5905511811023622,
                    "duration": 0.16020500000000126
                },
                {
                    "name": "C#6",
                    "midi": 85,
                    "time": 29.79813000000005,
                    "velocity": 0.5433070866141733,
                    "duration": 0.320409999999999
                },
                {
                    "name": "A5",
                    "midi": 81,
                    "time": 29.79813000000005,
                    "velocity": 0.5433070866141733,
                    "duration": 0.320409999999999
                },
                {
                    "name": "A6",
                    "midi": 93,
                    "time": 29.79813000000005,
                    "velocity": 0.6456692913385826,
                    "duration": 0.320409999999999
                },
                {
                    "name": "C#6",
                    "midi": 85,
                    "time": 30.11854000000005,
                    "velocity": 0.5196850393700787,
                    "duration": 0.320409999999999
                },
                {
                    "name": "G#5",
                    "midi": 80,
                    "time": 30.11854000000005,
                    "velocity": 0.5196850393700787,
                    "duration": 0.320409999999999
                },
                {
                    "name": "G#6",
                    "midi": 92,
                    "time": 30.11854000000005,
                    "velocity": 0.6141732283464567,
                    "duration": 0.320409999999999
                },
                {
                    "name": "C#6",
                    "midi": 85,
                    "time": 30.438950000000048,
                    "velocity": 0.5748031496062992,
                    "duration": 0.320409999999999
                },
                {
                    "name": "G#5",
                    "midi": 80,
                    "time": 30.438950000000048,
                    "velocity": 0.48031496062992124,
                    "duration": 0.320409999999999
                },
                {
                    "name": "C#5",
                    "midi": 73,
                    "time": 30.438950000000048,
                    "velocity": 0.48031496062992124,
                    "duration": 0.320409999999999
                },
                {
                    "name": "C#5",
                    "midi": 73,
                    "time": 30.759360000000047,
                    "velocity": 0.48031496062992124,
                    "duration": 0.320409999999999
                },
                {
                    "name": "G#5",
                    "midi": 80,
                    "time": 30.759360000000047,
                    "velocity": 0.48031496062992124,
                    "duration": 0.320409999999999
                },
                {
                    "name": "C#6",
                    "midi": 85,
                    "time": 30.759360000000047,
                    "velocity": 0.5905511811023622,
                    "duration": 0.640819999999998
                },
                {
                    "name": "F#6",
                    "midi": 90,
                    "time": 31.079770000000046,
                    "velocity": 0.5354330708661418,
                    "duration": 0.320409999999999
                },
                {
                    "name": "F#5",
                    "midi": 78,
                    "time": 31.079770000000046,
                    "velocity": 0.4566929133858268,
                    "duration": 0.320409999999999
                },
                {
                    "name": "C#5",
                    "midi": 73,
                    "time": 31.400180000000045,
                    "velocity": 0.4566929133858268,
                    "duration": 0.320409999999999
                },
                {
                    "name": "G#4",
                    "midi": 68,
                    "time": 31.400180000000045,
                    "velocity": 0.3779527559055118,
                    "duration": 0.320409999999999
                },
                {
                    "name": "C#4",
                    "midi": 61,
                    "time": 31.400180000000045,
                    "velocity": 0.31496062992125984,
                    "duration": 0.320409999999999
                },
                {
                    "name": "C#4",
                    "midi": 61,
                    "time": 31.720590000000044,
                    "velocity": 0.33070866141732286,
                    "duration": 0.3204100000000025
                },
                {
                    "name": "G#4",
                    "midi": 68,
                    "time": 31.720590000000044,
                    "velocity": 0.3937007874015748,
                    "duration": 0.3204100000000025
                },
                {
                    "name": "C#5",
                    "midi": 73,
                    "time": 31.720590000000044,
                    "velocity": 0.4566929133858268,
                    "duration": 0.640820000000005
                },
                {
                    "name": "F#5",
                    "midi": 78,
                    "time": 32.04100000000005,
                    "velocity": 0.4409448818897638,
                    "duration": 0.3204100000000025
                },
                {
                    "name": "F#4",
                    "midi": 66,
                    "time": 32.04100000000005,
                    "velocity": 0.3858267716535433,
                    "duration": 0.3204100000000025
                },
                {
                    "name": "C#5",
                    "midi": 73,
                    "time": 32.36141000000005,
                    "velocity": 0.4409448818897638,
                    "duration": 0.3204100000000025
                },
                {
                    "name": "G#4",
                    "midi": 68,
                    "time": 32.36141000000005,
                    "velocity": 0.36220472440944884,
                    "duration": 0.3204100000000025
                },
                {
                    "name": "C#4",
                    "midi": 61,
                    "time": 32.36141000000005,
                    "velocity": 0.2992125984251969,
                    "duration": 0.3204100000000025
                },
                {
                    "name": "C#4",
                    "midi": 61,
                    "time": 32.68182000000005,
                    "velocity": 0.31496062992125984,
                    "duration": 0.3204100000000025
                },
                {
                    "name": "G#4",
                    "midi": 68,
                    "time": 32.68182000000005,
                    "velocity": 0.3779527559055118,
                    "duration": 0.3204100000000025
                },
                {
                    "name": "C#5",
                    "midi": 73,
                    "time": 32.68182000000005,
                    "velocity": 0.4409448818897638,
                    "duration": 0.640820000000005
                },
                {
                    "name": "F#5",
                    "midi": 78,
                    "time": 33.002230000000054,
                    "velocity": 0.4330708661417323,
                    "duration": 0.3204100000000025
                },
                {
                    "name": "F#4",
                    "midi": 66,
                    "time": 33.002230000000054,
                    "velocity": 0.36220472440944884,
                    "duration": 0.3204100000000025
                },
                {
                    "name": "C#4",
                    "midi": 61,
                    "time": 33.32264000000006,
                    "velocity": 0.5433070866141733,
                    "duration": 0.640819999999998
                },
                {
                    "name": "C#5",
                    "midi": 73,
                    "time": 33.32264000000006,
                    "velocity": 0.6377952755905512,
                    "duration": 0.640819999999998
                },
                {
                    "name": "D4",
                    "midi": 62,
                    "time": 33.963460000000055,
                    "velocity": 0.5039370078740157,
                    "duration": 0.1602049999999977
                },
                {
                    "name": "D5",
                    "midi": 74,
                    "time": 33.963460000000055,
                    "velocity": 0.5905511811023622,
                    "duration": 0.1602049999999977
                },
                {
                    "name": "C#4",
                    "midi": 61,
                    "time": 34.12366500000005,
                    "velocity": 0.4645669291338583,
                    "duration": 0.1602049999999977
                },
                {
                    "name": "C#5",
                    "midi": 73,
                    "time": 34.12366500000005,
                    "velocity": 0.5590551181102362,
                    "duration": 0.1602049999999977
                },
                {
                    "name": "G#3",
                    "midi": 56,
                    "time": 34.28387000000005,
                    "velocity": 0.49606299212598426,
                    "duration": 0.1602049999999977
                },
                {
                    "name": "G#4",
                    "midi": 68,
                    "time": 34.28387000000005,
                    "velocity": 0.5748031496062992,
                    "duration": 0.1602049999999977
                },
                {
                    "name": "A3",
                    "midi": 57,
                    "time": 34.44407500000005,
                    "velocity": 0.4251968503937008,
                    "duration": 0.1602049999999977
                },
                {
                    "name": "A4",
                    "midi": 69,
                    "time": 34.44407500000005,
                    "velocity": 0.5118110236220472,
                    "duration": 0.1602049999999977
                },
                {
                    "name": "F#3",
                    "midi": 54,
                    "time": 34.604280000000045,
                    "velocity": 0.4566929133858268,
                    "duration": 0.9612300000000005
                },
                {
                    "name": "F#4",
                    "midi": 66,
                    "time": 34.604280000000045,
                    "velocity": 0.5511811023622047,
                    "duration": 0.9612300000000005
                },
                {
                    "name": "D4",
                    "midi": 62,
                    "time": 35.565510000000046,
                    "velocity": 0.6614173228346457,
                    "duration": 0.3204100000000025
                },
                {
                    "name": "D5",
                    "midi": 74,
                    "time": 35.565510000000046,
                    "velocity": 0.6614173228346457,
                    "duration": 0.3204100000000025
                },
                {
                    "name": "A3",
                    "midi": 57,
                    "time": 35.88592000000005,
                    "velocity": 0.3779527559055118,
                    "duration": 0.1602049999999977
                },
                {
                    "name": "D4",
                    "midi": 62,
                    "time": 35.88592000000005,
                    "velocity": 0.3779527559055118,
                    "duration": 0.1602049999999977
                },
                {
                    "name": "A3",
                    "midi": 57,
                    "time": 36.046125000000046,
                    "velocity": 0.3858267716535433,
                    "duration": 0.1602049999999977
                },
                {
                    "name": "D4",
                    "midi": 62,
                    "time": 36.046125000000046,
                    "velocity": 0.3858267716535433,
                    "duration": 0.1602049999999977
                },
                {
                    "name": "G#3",
                    "midi": 56,
                    "time": 36.206330000000044,
                    "velocity": 0.3937007874015748,
                    "duration": 0.1602049999999977
                },
                {
                    "name": "C#4",
                    "midi": 61,
                    "time": 36.206330000000044,
                    "velocity": 0.3937007874015748,
                    "duration": 0.1602049999999977
                },
                {
                    "name": "A3",
                    "midi": 57,
                    "time": 36.36653500000004,
                    "velocity": 0.4015748031496063,
                    "duration": 0.1602049999999977
                },
                {
                    "name": "D4",
                    "midi": 62,
                    "time": 36.36653500000004,
                    "velocity": 0.4015748031496063,
                    "duration": 0.1602049999999977
                },
                {
                    "name": "A#3",
                    "midi": 58,
                    "time": 36.52674000000004,
                    "velocity": 0.4094488188976378,
                    "duration": 0.1602049999999977
                },
                {
                    "name": "D#4",
                    "midi": 63,
                    "time": 36.52674000000004,
                    "velocity": 0.4094488188976378,
                    "duration": 0.1602049999999977
                },
                {
                    "name": "B3",
                    "midi": 59,
                    "time": 36.68694500000004,
                    "velocity": 0.41732283464566927,
                    "duration": 0.1602049999999977
                },
                {
                    "name": "E4",
                    "midi": 64,
                    "time": 36.68694500000004,
                    "velocity": 0.41732283464566927,
                    "duration": 0.1602049999999977
                },
                {
                    "name": "C4",
                    "midi": 60,
                    "time": 36.847150000000035,
                    "velocity": 0.4251968503937008,
                    "duration": 0.1602049999999977
                },
                {
                    "name": "F4",
                    "midi": 65,
                    "time": 36.847150000000035,
                    "velocity": 0.4251968503937008,
                    "duration": 0.1602049999999977
                },
                {
                    "name": "C#4",
                    "midi": 61,
                    "time": 37.00735500000003,
                    "velocity": 0.4330708661417323,
                    "duration": 0.1602049999999977
                },
                {
                    "name": "F#4",
                    "midi": 66,
                    "time": 37.00735500000003,
                    "velocity": 0.4330708661417323,
                    "duration": 0.1602049999999977
                },
                {
                    "name": "D4",
                    "midi": 62,
                    "time": 37.16756000000003,
                    "velocity": 0.44881889763779526,
                    "duration": 0.1602049999999977
                },
                {
                    "name": "G4",
                    "midi": 67,
                    "time": 37.16756000000003,
                    "velocity": 0.44881889763779526,
                    "duration": 0.1602049999999977
                },
                {
                    "name": "D#4",
                    "midi": 63,
                    "time": 37.32776500000003,
                    "velocity": 0.4645669291338583,
                    "duration": 0.1602049999999977
                },
                {
                    "name": "G#4",
                    "midi": 68,
                    "time": 37.32776500000003,
                    "velocity": 0.4645669291338583,
                    "duration": 0.1602049999999977
                },
                {
                    "name": "E4",
                    "midi": 64,
                    "time": 37.487970000000026,
                    "velocity": 0.4645669291338583,
                    "duration": 0.1602049999999977
                },
                {
                    "name": "A4",
                    "midi": 69,
                    "time": 37.487970000000026,
                    "velocity": 0.4645669291338583,
                    "duration": 0.1602049999999977
                },
                {
                    "name": "F4",
                    "midi": 65,
                    "time": 37.64817500000002,
                    "velocity": 0.47244094488188976,
                    "duration": 0.1602049999999977
                },
                {
                    "name": "A#4",
                    "midi": 70,
                    "time": 37.64817500000002,
                    "velocity": 0.47244094488188976,
                    "duration": 0.1602049999999977
                },
                {
                    "name": "F#4",
                    "midi": 66,
                    "time": 37.80838000000002,
                    "velocity": 0.5039370078740157,
                    "duration": 0.1602049999999977
                },
                {
                    "name": "B4",
                    "midi": 71,
                    "time": 37.80838000000002,
                    "velocity": 0.5039370078740157,
                    "duration": 0.1602049999999977
                },
                {
                    "name": "G4",
                    "midi": 67,
                    "time": 37.96858500000002,
                    "velocity": 0.5118110236220472,
                    "duration": 0.1602049999999977
                },
                {
                    "name": "C5",
                    "midi": 72,
                    "time": 37.96858500000002,
                    "velocity": 0.5118110236220472,
                    "duration": 0.1602049999999977
                },
                {
                    "name": "G#4",
                    "midi": 68,
                    "time": 38.128790000000016,
                    "velocity": 0.5196850393700787,
                    "duration": 0.1602049999999977
                },
                {
                    "name": "C#5",
                    "midi": 73,
                    "time": 38.128790000000016,
                    "velocity": 0.5196850393700787,
                    "duration": 0.1602049999999977
                },
                {
                    "name": "A4",
                    "midi": 69,
                    "time": 38.288995000000014,
                    "velocity": 0.5275590551181102,
                    "duration": 0.1602049999999977
                },
                {
                    "name": "D5",
                    "midi": 74,
                    "time": 38.288995000000014,
                    "velocity": 0.5275590551181102,
                    "duration": 0.1602049999999977
                },
                {
                    "name": "A4",
                    "midi": 69,
                    "time": 38.44920000000001,
                    "velocity": 0.5354330708661418,
                    "duration": 0.3204100000000025
                },
                {
                    "name": "D5",
                    "midi": 74,
                    "time": 38.44920000000001,
                    "velocity": 0.5354330708661418,
                    "duration": 0.3204100000000025
                },
                {
                    "name": "A#4",
                    "midi": 70,
                    "time": 38.769610000000014,
                    "velocity": 0.5748031496062992,
                    "duration": 0.3204100000000025
                },
                {
                    "name": "D#5",
                    "midi": 75,
                    "time": 38.769610000000014,
                    "velocity": 0.5748031496062992,
                    "duration": 0.3204100000000025
                },
                {
                    "name": "D#6",
                    "midi": 87,
                    "time": 39.09002000000002,
                    "velocity": 0.6299212598425197,
                    "duration": 0.1602049999999977
                },
                {
                    "name": "A#5",
                    "midi": 82,
                    "time": 39.09002000000002,
                    "velocity": 0.6299212598425197,
                    "duration": 0.1602049999999977
                },
                {
                    "name": "D#5",
                    "midi": 75,
                    "time": 39.09002000000002,
                    "velocity": 0.6299212598425197,
                    "duration": 0.1602049999999977
                },
                {
                    "name": "D#6",
                    "midi": 87,
                    "time": 39.41043000000001,
                    "velocity": 0.7165354330708661,
                    "duration": 0.3204100000000025
                },
                {
                    "name": "D#7",
                    "midi": 99,
                    "time": 39.41043000000001,
                    "velocity": 0.6220472440944882,
                    "duration": 0.3204100000000025
                },
                {
                    "name": "A#3",
                    "midi": 58,
                    "time": 39.730840000000015,
                    "velocity": 0.3779527559055118,
                    "duration": 0.1602049999999977
                },
                {
                    "name": "D#4",
                    "midi": 63,
                    "time": 39.730840000000015,
                    "velocity": 0.3779527559055118,
                    "duration": 0.1602049999999977
                },
                {
                    "name": "D#4",
                    "midi": 63,
                    "time": 39.89104500000001,
                    "velocity": 0.3858267716535433,
                    "duration": 0.1602049999999977
                },
                {
                    "name": "A#3",
                    "midi": 58,
                    "time": 39.89104500000001,
                    "velocity": 0.3858267716535433,
                    "duration": 0.1602049999999977
                },
                {
                    "name": "A3",
                    "midi": 57,
                    "time": 40.05125000000001,
                    "velocity": 0.3937007874015748,
                    "duration": 0.1602049999999977
                },
                {
                    "name": "D4",
                    "midi": 62,
                    "time": 40.05125000000001,
                    "velocity": 0.3937007874015748,
                    "duration": 0.1602049999999977
                },
                {
                    "name": "A#3",
                    "midi": 58,
                    "time": 40.21145500000001,
                    "velocity": 0.4015748031496063,
                    "duration": 0.1602049999999977
                },
                {
                    "name": "D#4",
                    "midi": 63,
                    "time": 40.21145500000001,
                    "velocity": 0.4015748031496063,
                    "duration": 0.1602049999999977
                },
                {
                    "name": "B3",
                    "midi": 59,
                    "time": 40.371660000000006,
                    "velocity": 0.4094488188976378,
                    "duration": 0.1602049999999977
                },
                {
                    "name": "E4",
                    "midi": 64,
                    "time": 40.371660000000006,
                    "velocity": 0.4094488188976378,
                    "duration": 0.1602049999999977
                },
                {
                    "name": "C4",
                    "midi": 60,
                    "time": 40.531865,
                    "velocity": 0.41732283464566927,
                    "duration": 0.1602049999999977
                },
                {
                    "name": "F4",
                    "midi": 65,
                    "time": 40.531865,
                    "velocity": 0.41732283464566927,
                    "duration": 0.1602049999999977
                },
                {
                    "name": "C#4",
                    "midi": 61,
                    "time": 40.69207,
                    "velocity": 0.4251968503937008,
                    "duration": 0.1602049999999977
                },
                {
                    "name": "F#4",
                    "midi": 66,
                    "time": 40.69207,
                    "velocity": 0.4251968503937008,
                    "duration": 0.1602049999999977
                },
                {
                    "name": "D4",
                    "midi": 62,
                    "time": 40.852275,
                    "velocity": 0.4330708661417323,
                    "duration": 0.1602049999999977
                },
                {
                    "name": "G4",
                    "midi": 67,
                    "time": 40.852275,
                    "velocity": 0.4330708661417323,
                    "duration": 0.1602049999999977
                },
                {
                    "name": "D#4",
                    "midi": 63,
                    "time": 41.01248,
                    "velocity": 0.44881889763779526,
                    "duration": 0.1602049999999977
                },
                {
                    "name": "G#4",
                    "midi": 68,
                    "time": 41.01248,
                    "velocity": 0.44881889763779526,
                    "duration": 0.1602049999999977
                },
                {
                    "name": "E4",
                    "midi": 64,
                    "time": 41.172684999999994,
                    "velocity": 0.4645669291338583,
                    "duration": 0.1602049999999977
                },
                {
                    "name": "A4",
                    "midi": 69,
                    "time": 41.172684999999994,
                    "velocity": 0.4645669291338583,
                    "duration": 0.1602049999999977
                },
                {
                    "name": "F4",
                    "midi": 65,
                    "time": 41.33288999999999,
                    "velocity": 0.4645669291338583,
                    "duration": 0.1602049999999977
                },
                {
                    "name": "A#4",
                    "midi": 70,
                    "time": 41.33288999999999,
                    "velocity": 0.4645669291338583,
                    "duration": 0.1602049999999977
                },
                {
                    "name": "F#4",
                    "midi": 66,
                    "time": 41.49309499999999,
                    "velocity": 0.47244094488188976,
                    "duration": 0.1602049999999977
                },
                {
                    "name": "B4",
                    "midi": 71,
                    "time": 41.49309499999999,
                    "velocity": 0.47244094488188976,
                    "duration": 0.1602049999999977
                },
                {
                    "name": "G4",
                    "midi": 67,
                    "time": 41.65329999999999,
                    "velocity": 0.5039370078740157,
                    "duration": 0.1602049999999977
                },
                {
                    "name": "C5",
                    "midi": 72,
                    "time": 41.65329999999999,
                    "velocity": 0.5039370078740157,
                    "duration": 0.1602049999999977
                },
                {
                    "name": "G#4",
                    "midi": 68,
                    "time": 41.813504999999985,
                    "velocity": 0.5118110236220472,
                    "duration": 0.1602049999999977
                },
                {
                    "name": "C#5",
                    "midi": 73,
                    "time": 41.813504999999985,
                    "velocity": 0.5118110236220472,
                    "duration": 0.1602049999999977
                },
                {
                    "name": "A4",
                    "midi": 69,
                    "time": 41.97370999999998,
                    "velocity": 0.5196850393700787,
                    "duration": 0.1602049999999977
                },
                {
                    "name": "D5",
                    "midi": 74,
                    "time": 41.97370999999998,
                    "velocity": 0.5196850393700787,
                    "duration": 0.1602049999999977
                },
                {
                    "name": "A#4",
                    "midi": 70,
                    "time": 42.13391499999998,
                    "velocity": 0.5275590551181102,
                    "duration": 0.1602049999999977
                },
                {
                    "name": "D#5",
                    "midi": 75,
                    "time": 42.13391499999998,
                    "velocity": 0.5275590551181102,
                    "duration": 0.1602049999999977
                },
                {
                    "name": "A#4",
                    "midi": 70,
                    "time": 42.29411999999998,
                    "velocity": 0.5354330708661418,
                    "duration": 0.3204100000000025
                },
                {
                    "name": "D#5",
                    "midi": 75,
                    "time": 42.29411999999998,
                    "velocity": 0.5354330708661418,
                    "duration": 0.3204100000000025
                },
                {
                    "name": "B4",
                    "midi": 71,
                    "time": 42.61452999999998,
                    "velocity": 0.5748031496062992,
                    "duration": 0.3204100000000025
                },
                {
                    "name": "E5",
                    "midi": 76,
                    "time": 42.61452999999998,
                    "velocity": 0.5748031496062992,
                    "duration": 0.3204100000000025
                },
                {
                    "name": "E6",
                    "midi": 88,
                    "time": 42.93493999999998,
                    "velocity": 0.6299212598425197,
                    "duration": 0.1602049999999977
                },
                {
                    "name": "B5",
                    "midi": 83,
                    "time": 42.93493999999998,
                    "velocity": 0.6299212598425197,
                    "duration": 0.1602049999999977
                },
                {
                    "name": "E5",
                    "midi": 76,
                    "time": 42.93493999999998,
                    "velocity": 0.6299212598425197,
                    "duration": 0.1602049999999977
                },
                {
                    "name": "E6",
                    "midi": 88,
                    "time": 43.25534999999998,
                    "velocity": 0.7165354330708661,
                    "duration": 0.3204100000000025
                },
                {
                    "name": "E7",
                    "midi": 100,
                    "time": 43.25534999999998,
                    "velocity": 0.6692913385826772,
                    "duration": 0.3204100000000025
                },
                {
                    "name": "E4",
                    "midi": 64,
                    "time": 43.57575999999998,
                    "velocity": 0.4566929133858268,
                    "duration": 0.1602049999999977
                },
                {
                    "name": "E5",
                    "midi": 76,
                    "time": 43.57575999999998,
                    "velocity": 0.5511811023622047,
                    "duration": 0.1602049999999977
                },
                {
                    "name": "E4",
                    "midi": 64,
                    "time": 43.73596499999998,
                    "velocity": 0.4566929133858268,
                    "duration": 0.1602049999999977
                },
                {
                    "name": "E5",
                    "midi": 76,
                    "time": 43.73596499999998,
                    "velocity": 0.5511811023622047,
                    "duration": 0.1602049999999977
                },
                {
                    "name": "D#4",
                    "midi": 63,
                    "time": 43.89616999999998,
                    "velocity": 0.41732283464566927,
                    "duration": 0.1602049999999977
                },
                {
                    "name": "D#5",
                    "midi": 75,
                    "time": 43.89616999999998,
                    "velocity": 0.5039370078740157,
                    "duration": 0.1602049999999977
                },
                {
                    "name": "E4",
                    "midi": 64,
                    "time": 44.056374999999974,
                    "velocity": 0.41732283464566927,
                    "duration": 0.1602049999999977
                },
                {
                    "name": "E5",
                    "midi": 76,
                    "time": 44.056374999999974,
                    "velocity": 0.5039370078740157,
                    "duration": 0.1602049999999977
                },
                {
                    "name": "F4",
                    "midi": 65,
                    "time": 44.21657999999997,
                    "velocity": 0.4566929133858268,
                    "duration": 0.1602049999999977
                },
                {
                    "name": "F5",
                    "midi": 77,
                    "time": 44.21657999999997,
                    "velocity": 0.5511811023622047,
                    "duration": 0.1602049999999977
                },
                {
                    "name": "F#4",
                    "midi": 66,
                    "time": 44.37678499999997,
                    "velocity": 0.41732283464566927,
                    "duration": 0.1602049999999977
                },
                {
                    "name": "F#5",
                    "midi": 78,
                    "time": 44.37678499999997,
                    "velocity": 0.5039370078740157,
                    "duration": 0.1602049999999977
                },
                {
                    "name": "G4",
                    "midi": 67,
                    "time": 44.53698999999997,
                    "velocity": 0.4566929133858268,
                    "duration": 0.08010250000000241
                },
                {
                    "name": "G5",
                    "midi": 79,
                    "time": 44.53698999999997,
                    "velocity": 0.5511811023622047,
                    "duration": 0.08010250000000241
                },
                {
                    "name": "G4",
                    "midi": 67,
                    "time": 44.69719499999997,
                    "velocity": 0.4251968503937008,
                    "duration": 0.08010250000000241
                },
                {
                    "name": "G5",
                    "midi": 79,
                    "time": 44.69719499999997,
                    "velocity": 0.5118110236220472,
                    "duration": 0.08010250000000241
                },
                {
                    "name": "G4",
                    "midi": 67,
                    "time": 44.85739999999998,
                    "velocity": 0.4251968503937008,
                    "duration": 0.08010250000000241
                },
                {
                    "name": "G5",
                    "midi": 79,
                    "time": 44.85739999999998,
                    "velocity": 0.5118110236220472,
                    "duration": 0.08010250000000241
                },
                {
                    "name": "G4",
                    "midi": 67,
                    "time": 45.01760499999998,
                    "velocity": 0.4251968503937008,
                    "duration": 0.08010250000000241
                },
                {
                    "name": "G5",
                    "midi": 79,
                    "time": 45.01760499999998,
                    "velocity": 0.5118110236220472,
                    "duration": 0.08010250000000241
                },
                {
                    "name": "G4",
                    "midi": 67,
                    "time": 45.17780999999999,
                    "velocity": 0.4566929133858268,
                    "duration": 0.1602049999999977
                },
                {
                    "name": "G5",
                    "midi": 79,
                    "time": 45.17780999999999,
                    "velocity": 0.5511811023622047,
                    "duration": 0.1602049999999977
                },
                {
                    "name": "F#4",
                    "midi": 66,
                    "time": 45.338014999999984,
                    "velocity": 0.4251968503937008,
                    "duration": 0.1602049999999977
                },
                {
                    "name": "F#5",
                    "midi": 78,
                    "time": 45.338014999999984,
                    "velocity": 0.5118110236220472,
                    "duration": 0.1602049999999977
                },
                {
                    "name": "F#4",
                    "midi": 66,
                    "time": 45.49821999999998,
                    "velocity": 0.4566929133858268,
                    "duration": 0.08010250000000241
                },
                {
                    "name": "F#5",
                    "midi": 78,
                    "time": 45.49821999999998,
                    "velocity": 0.5511811023622047,
                    "duration": 0.08010250000000241
                },
                {
                    "name": "F#4",
                    "midi": 66,
                    "time": 45.65842499999999,
                    "velocity": 0.4251968503937008,
                    "duration": 0.08010250000000241
                },
                {
                    "name": "F#5",
                    "midi": 78,
                    "time": 45.65842499999999,
                    "velocity": 0.5118110236220472,
                    "duration": 0.08010250000000241
                },
                {
                    "name": "F4",
                    "midi": 65,
                    "time": 45.81862999999999,
                    "velocity": 0.4251968503937008,
                    "duration": 0.08010250000000241
                },
                {
                    "name": "F5",
                    "midi": 77,
                    "time": 45.81862999999999,
                    "velocity": 0.5118110236220472,
                    "duration": 0.08010250000000241
                },
                {
                    "name": "F#4",
                    "midi": 66,
                    "time": 45.978835,
                    "velocity": 0.4251968503937008,
                    "duration": 0.08010250000000241
                },
                {
                    "name": "F#5",
                    "midi": 78,
                    "time": 45.978835,
                    "velocity": 0.5118110236220472,
                    "duration": 0.08010250000000241
                },
                {
                    "name": "G4",
                    "midi": 67,
                    "time": 46.13904,
                    "velocity": 0.4566929133858268,
                    "duration": 0.1602049999999977
                },
                {
                    "name": "G5",
                    "midi": 79,
                    "time": 46.13904,
                    "velocity": 0.5511811023622047,
                    "duration": 0.1602049999999977
                },
                {
                    "name": "G#4",
                    "midi": 68,
                    "time": 46.299245,
                    "velocity": 0.41732283464566927,
                    "duration": 0.1602049999999977
                },
                {
                    "name": "G#5",
                    "midi": 80,
                    "time": 46.299245,
                    "velocity": 0.49606299212598426,
                    "duration": 0.1602049999999977
                },
                {
                    "name": "A4",
                    "midi": 69,
                    "time": 46.45945,
                    "velocity": 0.4251968503937008,
                    "duration": 0.08010250000000241
                },
                {
                    "name": "A5",
                    "midi": 81,
                    "time": 46.45945,
                    "velocity": 0.5118110236220472,
                    "duration": 0.08010250000000241
                },
                {
                    "name": "A4",
                    "midi": 69,
                    "time": 46.619655,
                    "velocity": 0.4409448818897638,
                    "duration": 0.08010250000000241
                },
                {
                    "name": "A5",
                    "midi": 81,
                    "time": 46.619655,
                    "velocity": 0.5275590551181102,
                    "duration": 0.08010250000000241
                },
                {
                    "name": "A4",
                    "midi": 69,
                    "time": 46.779860000000006,
                    "velocity": 0.4566929133858268,
                    "duration": 0.08010250000000241
                },
                {
                    "name": "A5",
                    "midi": 81,
                    "time": 46.779860000000006,
                    "velocity": 0.5511811023622047,
                    "duration": 0.08010250000000241
                },
                {
                    "name": "A4",
                    "midi": 69,
                    "time": 46.94006500000001,
                    "velocity": 0.47244094488188976,
                    "duration": 0.08010250000000241
                },
                {
                    "name": "A5",
                    "midi": 81,
                    "time": 46.94006500000001,
                    "velocity": 0.5669291338582677,
                    "duration": 0.08010250000000241
                },
                {
                    "name": "A4",
                    "midi": 69,
                    "time": 47.100270000000016,
                    "velocity": 0.5196850393700787,
                    "duration": 0.1602049999999977
                },
                {
                    "name": "A5",
                    "midi": 81,
                    "time": 47.100270000000016,
                    "velocity": 0.6141732283464567,
                    "duration": 0.1602049999999977
                },
                {
                    "name": "G#4",
                    "midi": 68,
                    "time": 47.260475000000014,
                    "velocity": 0.47244094488188976,
                    "duration": 0.1602049999999977
                },
                {
                    "name": "G#5",
                    "midi": 80,
                    "time": 47.260475000000014,
                    "velocity": 0.5669291338582677,
                    "duration": 0.1602049999999977
                },
                {
                    "name": "G#4",
                    "midi": 68,
                    "time": 47.42068000000001,
                    "velocity": 0.49606299212598426,
                    "duration": 0.08010250000000241
                },
                {
                    "name": "G#5",
                    "midi": 80,
                    "time": 47.42068000000001,
                    "velocity": 0.5826771653543307,
                    "duration": 0.08010250000000241
                },
                {
                    "name": "G#4",
                    "midi": 68,
                    "time": 47.580885000000016,
                    "velocity": 0.5118110236220472,
                    "duration": 0.08010250000000241
                },
                {
                    "name": "G#5",
                    "midi": 80,
                    "time": 47.580885000000016,
                    "velocity": 0.5984251968503937,
                    "duration": 0.08010250000000241
                },
                {
                    "name": "G4",
                    "midi": 67,
                    "time": 47.74109000000002,
                    "velocity": 0.5118110236220472,
                    "duration": 0.08010250000000241
                },
                {
                    "name": "G5",
                    "midi": 79,
                    "time": 47.74109000000002,
                    "velocity": 0.6062992125984252,
                    "duration": 0.08010250000000241
                },
                {
                    "name": "G#4",
                    "midi": 68,
                    "time": 47.901295000000026,
                    "velocity": 0.5354330708661418,
                    "duration": 0.08010250000000241
                },
                {
                    "name": "G#5",
                    "midi": 80,
                    "time": 47.901295000000026,
                    "velocity": 0.6299212598425197,
                    "duration": 0.08010250000000241
                },
                {
                    "name": "G#4",
                    "midi": 68,
                    "time": 48.06150000000003,
                    "velocity": 0.6062992125984252,
                    "duration": 0.28035874999999777
                },
                {
                    "name": "C#5",
                    "midi": 73,
                    "time": 48.06150000000003,
                    "velocity": 0.6062992125984252,
                    "duration": 0.28035874999999777
                },
                {
                    "name": "G#5",
                    "midi": 80,
                    "time": 48.06150000000003,
                    "velocity": 0.7165354330708661,
                    "duration": 0.28035874999999777
                },
                {
                    "name": "A#4",
                    "midi": 70,
                    "time": 48.34185875000003,
                    "velocity": 0.4330708661417323,
                    "duration": 0.04005124999999765
                },
                {
                    "name": "A#5",
                    "midi": 82,
                    "time": 48.34185875000003,
                    "velocity": 0.49606299212598426,
                    "duration": 0.04005124999999765
                },
                {
                    "name": "G#4",
                    "midi": 68,
                    "time": 48.381910000000026,
                    "velocity": 0.5748031496062992,
                    "duration": 0.1602049999999977
                },
                {
                    "name": "C#5",
                    "midi": 73,
                    "time": 48.381910000000026,
                    "velocity": 0.5748031496062992,
                    "duration": 0.1602049999999977
                },
                {
                    "name": "G#5",
                    "midi": 80,
                    "time": 48.381910000000026,
                    "velocity": 0.6771653543307087,
                    "duration": 0.1602049999999977
                },
                {
                    "name": "G4",
                    "midi": 67,
                    "time": 48.542115000000024,
                    "velocity": 0.5196850393700787,
                    "duration": 0.1602049999999977
                },
                {
                    "name": "G5",
                    "midi": 79,
                    "time": 48.542115000000024,
                    "velocity": 0.6220472440944882,
                    "duration": 0.1602049999999977
                },
                {
                    "name": "G#4",
                    "midi": 68,
                    "time": 48.70232000000002,
                    "velocity": 0.5748031496062992,
                    "duration": 0.1602049999999977
                },
                {
                    "name": "C#5",
                    "midi": 73,
                    "time": 48.70232000000002,
                    "velocity": 0.5748031496062992,
                    "duration": 0.1602049999999977
                },
                {
                    "name": "G#5",
                    "midi": 80,
                    "time": 48.70232000000002,
                    "velocity": 0.6929133858267716,
                    "duration": 0.1602049999999977
                },
                {
                    "name": "A#4",
                    "midi": 70,
                    "time": 48.86252500000002,
                    "velocity": 0.5433070866141733,
                    "duration": 0.1602049999999977
                },
                {
                    "name": "A#5",
                    "midi": 82,
                    "time": 48.86252500000002,
                    "velocity": 0.6456692913385826,
                    "duration": 0.1602049999999977
                },
                {
                    "name": "C#5",
                    "midi": 73,
                    "time": 49.02273000000002,
                    "velocity": 0.5984251968503937,
                    "duration": 0.3204100000000025
                },
                {
                    "name": "G#4",
                    "midi": 68,
                    "time": 49.02273000000002,
                    "velocity": 0.5984251968503937,
                    "duration": 0.3204100000000025
                },
                {
                    "name": "G#5",
                    "midi": 80,
                    "time": 49.02273000000002,
                    "velocity": 0.7086614173228346,
                    "duration": 0.3204100000000025
                },
                {
                    "name": "G#6",
                    "midi": 92,
                    "time": 49.34314000000002,
                    "velocity": 0.7480314960629921,
                    "duration": 0.1602049999999977
                },
                {
                    "name": "G#5",
                    "midi": 80,
                    "time": 49.34314000000002,
                    "velocity": 0.6220472440944882,
                    "duration": 0.1602049999999977
                },
                {
                    "name": "F#4",
                    "midi": 66,
                    "time": 49.663550000000015,
                    "velocity": 0.5748031496062992,
                    "duration": 0.3204100000000025
                },
                {
                    "name": "C#5",
                    "midi": 73,
                    "time": 49.663550000000015,
                    "velocity": 0.5748031496062992,
                    "duration": 0.3204100000000025
                },
                {
                    "name": "F#5",
                    "midi": 78,
                    "time": 49.663550000000015,
                    "velocity": 0.6929133858267716,
                    "duration": 0.3204100000000025
                },
                {
                    "name": "F#4",
                    "midi": 66,
                    "time": 49.98396000000002,
                    "velocity": 0.5118110236220472,
                    "duration": 0.28035874999999777
                },
                {
                    "name": "B4",
                    "midi": 71,
                    "time": 49.98396000000002,
                    "velocity": 0.5118110236220472,
                    "duration": 0.28035874999999777
                },
                {
                    "name": "F#5",
                    "midi": 78,
                    "time": 49.98396000000002,
                    "velocity": 0.6062992125984252,
                    "duration": 0.28035874999999777
                },
                {
                    "name": "G#4",
                    "midi": 68,
                    "time": 50.264318750000015,
                    "velocity": 0.48031496062992124,
                    "duration": 0.04005124999999765
                },
                {
                    "name": "G#5",
                    "midi": 80,
                    "time": 50.264318750000015,
                    "velocity": 0.48031496062992124,
                    "duration": 0.04005124999999765
                },
                {
                    "name": "F#4",
                    "midi": 66,
                    "time": 50.30437000000001,
                    "velocity": 0.5511811023622047,
                    "duration": 0.1602049999999977
                },
                {
                    "name": "B4",
                    "midi": 71,
                    "time": 50.30437000000001,
                    "velocity": 0.5511811023622047,
                    "duration": 0.1602049999999977
                },
                {
                    "name": "F#5",
                    "midi": 78,
                    "time": 50.30437000000001,
                    "velocity": 0.6456692913385826,
                    "duration": 0.1602049999999977
                },
                {
                    "name": "F4",
                    "midi": 65,
                    "time": 50.46457500000001,
                    "velocity": 0.5275590551181102,
                    "duration": 0.1602049999999977
                },
                {
                    "name": "F5",
                    "midi": 77,
                    "time": 50.46457500000001,
                    "velocity": 0.6220472440944882,
                    "duration": 0.1602049999999977
                },
                {
                    "name": "F#4",
                    "midi": 66,
                    "time": 50.62478000000001,
                    "velocity": 0.5511811023622047,
                    "duration": 0.1602049999999977
                },
                {
                    "name": "B4",
                    "midi": 71,
                    "time": 50.62478000000001,
                    "velocity": 0.5511811023622047,
                    "duration": 0.1602049999999977
                },
                {
                    "name": "F#5",
                    "midi": 78,
                    "time": 50.62478000000001,
                    "velocity": 0.6614173228346457,
                    "duration": 0.1602049999999977
                },
                {
                    "name": "G#4",
                    "midi": 68,
                    "time": 50.784985000000006,
                    "velocity": 0.5275590551181102,
                    "duration": 0.1602049999999977
                },
                {
                    "name": "G#5",
                    "midi": 80,
                    "time": 50.784985000000006,
                    "velocity": 0.6220472440944882,
                    "duration": 0.1602049999999977
                },
                {
                    "name": "B4",
                    "midi": 71,
                    "time": 50.945190000000004,
                    "velocity": 0.5984251968503937,
                    "duration": 0.3204100000000025
                },
                {
                    "name": "F#4",
                    "midi": 66,
                    "time": 50.945190000000004,
                    "velocity": 0.5984251968503937,
                    "duration": 0.3204100000000025
                },
                {
                    "name": "F#5",
                    "midi": 78,
                    "time": 50.945190000000004,
                    "velocity": 0.7086614173228346,
                    "duration": 0.3204100000000025
                },
                {
                    "name": "F#6",
                    "midi": 90,
                    "time": 51.265600000000006,
                    "velocity": 0.7244094488188977,
                    "duration": 0.1602049999999977
                },
                {
                    "name": "F#5",
                    "midi": 78,
                    "time": 51.265600000000006,
                    "velocity": 0.6220472440944882,
                    "duration": 0.1602049999999977
                },
                {
                    "name": "E4",
                    "midi": 64,
                    "time": 51.58601,
                    "velocity": 0.5748031496062992,
                    "duration": 0.3204100000000025
                },
                {
                    "name": "B4",
                    "midi": 71,
                    "time": 51.58601,
                    "velocity": 0.5748031496062992,
                    "duration": 0.3204100000000025
                },
                {
                    "name": "E5",
                    "midi": 76,
                    "time": 51.58601,
                    "velocity": 0.6929133858267716,
                    "duration": 0.3204100000000025
                },
                {
                    "name": "E4",
                    "midi": 64,
                    "time": 51.906420000000004,
                    "velocity": 0.6062992125984252,
                    "duration": 0.28035874999999777
                },
                {
                    "name": "A4",
                    "midi": 69,
                    "time": 51.906420000000004,
                    "velocity": 0.6062992125984252,
                    "duration": 0.28035874999999777
                },
                {
                    "name": "E5",
                    "midi": 76,
                    "time": 51.906420000000004,
                    "velocity": 0.7165354330708661,
                    "duration": 0.28035874999999777
                },
                {
                    "name": "F#4",
                    "midi": 66,
                    "time": 52.18677875,
                    "velocity": 0.4330708661417323,
                    "duration": 0.04005124999999765
                },
                {
                    "name": "F#5",
                    "midi": 78,
                    "time": 52.18677875,
                    "velocity": 0.49606299212598426,
                    "duration": 0.04005124999999765
                },
                {
                    "name": "E4",
                    "midi": 64,
                    "time": 52.22683,
                    "velocity": 0.6062992125984252,
                    "duration": 0.1602049999999977
                },
                {
                    "name": "A4",
                    "midi": 69,
                    "time": 52.22683,
                    "velocity": 0.6062992125984252,
                    "duration": 0.1602049999999977
                },
                {
                    "name": "E5",
                    "midi": 76,
                    "time": 52.22683,
                    "velocity": 0.7165354330708661,
                    "duration": 0.1602049999999977
                },
                {
                    "name": "D#4",
                    "midi": 63,
                    "time": 52.387035,
                    "velocity": 0.5433070866141733,
                    "duration": 0.1602049999999977
                },
                {
                    "name": "D#5",
                    "midi": 75,
                    "time": 52.387035,
                    "velocity": 0.6456692913385826,
                    "duration": 0.1602049999999977
                },
                {
                    "name": "E4",
                    "midi": 64,
                    "time": 52.547239999999995,
                    "velocity": 0.5748031496062992,
                    "duration": 0.1602049999999977
                },
                {
                    "name": "A4",
                    "midi": 69,
                    "time": 52.547239999999995,
                    "velocity": 0.5748031496062992,
                    "duration": 0.1602049999999977
                },
                {
                    "name": "E5",
                    "midi": 76,
                    "time": 52.547239999999995,
                    "velocity": 0.6929133858267716,
                    "duration": 0.1602049999999977
                },
                {
                    "name": "F#4",
                    "midi": 66,
                    "time": 52.70744499999999,
                    "velocity": 0.5433070866141733,
                    "duration": 0.1602049999999977
                },
                {
                    "name": "F#5",
                    "midi": 78,
                    "time": 52.70744499999999,
                    "velocity": 0.6456692913385826,
                    "duration": 0.1602049999999977
                },
                {
                    "name": "D#4",
                    "midi": 63,
                    "time": 52.86764999999999,
                    "velocity": 0.5984251968503937,
                    "duration": 0.1602049999999977
                },
                {
                    "name": "A4",
                    "midi": 69,
                    "time": 52.86764999999999,
                    "velocity": 0.5984251968503937,
                    "duration": 0.1602049999999977
                },
                {
                    "name": "D#5",
                    "midi": 75,
                    "time": 52.86764999999999,
                    "velocity": 0.7086614173228346,
                    "duration": 0.1602049999999977
                },
                {
                    "name": "D#4",
                    "midi": 63,
                    "time": 53.02785499999999,
                    "velocity": 0.5826771653543307,
                    "duration": 0.1602049999999977
                },
                {
                    "name": "F#4",
                    "midi": 66,
                    "time": 53.188059999999986,
                    "velocity": 0.5590551181102362,
                    "duration": 0.1602049999999977
                },
                {
                    "name": "D#5",
                    "midi": 75,
                    "time": 53.188059999999986,
                    "velocity": 0.6614173228346457,
                    "duration": 0.1602049999999977
                },
                {
                    "name": "D#5",
                    "midi": 75,
                    "time": 53.348264999999984,
                    "velocity": 0.6377952755905512,
                    "duration": 0.1602049999999977
                },
                {
                    "name": "D#6",
                    "midi": 87,
                    "time": 53.50846999999998,
                    "velocity": 0.7007874015748031,
                    "duration": 0.1602049999999977
                },
                {
                    "name": "F#5",
                    "midi": 78,
                    "time": 53.50846999999998,
                    "velocity": 0.5826771653543307,
                    "duration": 0.1602049999999977
                },
                {
                    "name": "D#6",
                    "midi": 87,
                    "time": 53.66867499999998,
                    "velocity": 0.6929133858267716,
                    "duration": 0.1602049999999977
                },
                {
                    "name": "D#7",
                    "midi": 99,
                    "time": 53.82887999999998,
                    "velocity": 0.7322834645669292,
                    "duration": 0.3204100000000025
                },
                {
                    "name": "F#6",
                    "midi": 90,
                    "time": 53.82887999999998,
                    "velocity": 0.6062992125984252,
                    "duration": 0.3204100000000025
                },
                {
                    "name": "D#4",
                    "midi": 63,
                    "time": 54.14928999999998,
                    "velocity": 0.5511811023622047,
                    "duration": 0.1602049999999977
                },
                {
                    "name": "A4",
                    "midi": 69,
                    "time": 54.14928999999998,
                    "velocity": 0.6456692913385826,
                    "duration": 0.1602049999999977
                },
                {
                    "name": "F#4",
                    "midi": 66,
                    "time": 54.14928999999998,
                    "velocity": 0.5511811023622047,
                    "duration": 0.1602049999999977
                },
                {
                    "name": "F#4",
                    "midi": 66,
                    "time": 54.469699999999975,
                    "velocity": 0.5275590551181102,
                    "duration": 0.1602049999999977
                },
                {
                    "name": "A4",
                    "midi": 69,
                    "time": 54.469699999999975,
                    "velocity": 0.5275590551181102,
                    "duration": 0.1602049999999977
                },
                {
                    "name": "F#5",
                    "midi": 78,
                    "time": 54.469699999999975,
                    "velocity": 0.6220472440944882,
                    "duration": 0.1602049999999977
                },
                {
                    "name": "F4",
                    "midi": 65,
                    "time": 54.79010999999997,
                    "velocity": 0.5511811023622047,
                    "duration": 0.1602049999999977
                },
                {
                    "name": "A#4",
                    "midi": 70,
                    "time": 54.79010999999997,
                    "velocity": 0.5511811023622047,
                    "duration": 0.1602049999999977
                },
                {
                    "name": "F5",
                    "midi": 77,
                    "time": 54.79010999999997,
                    "velocity": 0.6456692913385826,
                    "duration": 0.1602049999999977
                },
                {
                    "name": "A#3",
                    "midi": 58,
                    "time": 55.110519999999966,
                    "velocity": 0.4094488188976378,
                    "duration": 0.1602049999999977
                },
                {
                    "name": "F4",
                    "midi": 65,
                    "time": 55.110519999999966,
                    "velocity": 0.4094488188976378,
                    "duration": 0.1602049999999977
                },
                {
                    "name": "A#4",
                    "midi": 70,
                    "time": 55.110519999999966,
                    "velocity": 0.48031496062992124,
                    "duration": 0.1602049999999977
                },
                {
                    "name": "D#5",
                    "midi": 75,
                    "time": 55.43092999999996,
                    "velocity": 0.5196850393700787,
                    "duration": 0.1602049999999977
                },
                {
                    "name": "F#4",
                    "midi": 66,
                    "time": 55.43092999999996,
                    "velocity": 0.4409448818897638,
                    "duration": 0.1602049999999977
                },
                {
                    "name": "C5",
                    "midi": 72,
                    "time": 55.43092999999996,
                    "velocity": 0.5196850393700787,
                    "duration": 0.1602049999999977
                },
                {
                    "name": "D#4",
                    "midi": 63,
                    "time": 55.43092999999996,
                    "velocity": 0.4409448818897638,
                    "duration": 0.1602049999999977
                },
                {
                    "name": "C#4",
                    "midi": 61,
                    "time": 55.751339999999956,
                    "velocity": 0.44881889763779526,
                    "duration": 0.1602049999999977
                },
                {
                    "name": "F4",
                    "midi": 65,
                    "time": 55.751339999999956,
                    "velocity": 0.44881889763779526,
                    "duration": 0.1602049999999977
                },
                {
                    "name": "A#4",
                    "midi": 70,
                    "time": 55.751339999999956,
                    "velocity": 0.5354330708661418,
                    "duration": 0.1602049999999977
                },
                {
                    "name": "C#5",
                    "midi": 73,
                    "time": 55.751339999999956,
                    "velocity": 0.5354330708661418,
                    "duration": 0.1602049999999977
                },
                {
                    "name": "C#4",
                    "midi": 61,
                    "time": 56.07174999999995,
                    "velocity": 0.3937007874015748,
                    "duration": 0.1602049999999977
                },
                {
                    "name": "F4",
                    "midi": 65,
                    "time": 56.07174999999995,
                    "velocity": 0.47244094488188976,
                    "duration": 0.1602049999999977
                },
                {
                    "name": "D#4",
                    "midi": 63,
                    "time": 56.39215999999995,
                    "velocity": 0.3858267716535433,
                    "duration": 0.1602049999999977
                },
                {
                    "name": "F4",
                    "midi": 65,
                    "time": 56.39215999999995,
                    "velocity": 0.3858267716535433,
                    "duration": 0.1602049999999977
                },
                {
                    "name": "A4",
                    "midi": 69,
                    "time": 56.39215999999995,
                    "velocity": 0.4566929133858268,
                    "duration": 0.1602049999999977
                },
                {
                    "name": "C5",
                    "midi": 72,
                    "time": 56.39215999999995,
                    "velocity": 0.4566929133858268,
                    "duration": 0.1602049999999977
                },
                {
                    "name": "C#4",
                    "midi": 61,
                    "time": 56.71256999999994,
                    "velocity": 0.36220472440944884,
                    "duration": 0.1602049999999977
                },
                {
                    "name": "F4",
                    "midi": 65,
                    "time": 56.71256999999994,
                    "velocity": 0.36220472440944884,
                    "duration": 0.1602049999999977
                },
                {
                    "name": "A#4",
                    "midi": 70,
                    "time": 56.71256999999994,
                    "velocity": 0.4330708661417323,
                    "duration": 0.1602049999999977
                },
                {
                    "name": "F3",
                    "midi": 53,
                    "time": 57.03297999999994,
                    "velocity": 0.2992125984251969,
                    "duration": 0.1602049999999977
                },
                {
                    "name": "A#3",
                    "midi": 58,
                    "time": 57.03297999999994,
                    "velocity": 0.3779527559055118,
                    "duration": 0.1602049999999977
                },
                {
                    "name": "D#4",
                    "midi": 63,
                    "time": 57.35338999999993,
                    "velocity": 0.3937007874015748,
                    "duration": 0.1602049999999977
                },
                {
                    "name": "A#3",
                    "midi": 58,
                    "time": 57.35338999999993,
                    "velocity": 0.31496062992125984,
                    "duration": 0.1602049999999977
                },
                {
                    "name": "F#3",
                    "midi": 54,
                    "time": 57.35338999999993,
                    "velocity": 0.31496062992125984,
                    "duration": 0.1602049999999977
                },
                {
                    "name": "F3",
                    "midi": 53,
                    "time": 57.67379999999993,
                    "velocity": 0.33858267716535434,
                    "duration": 0.1602049999999977
                },
                {
                    "name": "A#3",
                    "midi": 58,
                    "time": 57.67379999999993,
                    "velocity": 0.33858267716535434,
                    "duration": 0.1602049999999977
                },
                {
                    "name": "C#4",
                    "midi": 61,
                    "time": 57.67379999999993,
                    "velocity": 0.4015748031496063,
                    "duration": 0.1602049999999977
                },
                {
                    "name": "F3",
                    "midi": 53,
                    "time": 57.994209999999924,
                    "velocity": 0.3543307086614173,
                    "duration": 0.1602049999999977
                },
                {
                    "name": "C4",
                    "midi": 60,
                    "time": 58.31461999999992,
                    "velocity": 0.3543307086614173,
                    "duration": 0.1602049999999977
                },
                {
                    "name": "A3",
                    "midi": 57,
                    "time": 58.31461999999992,
                    "velocity": 0.29133858267716534,
                    "duration": 0.1602049999999977
                },
                {
                    "name": "D#3",
                    "midi": 51,
                    "time": 58.31461999999992,
                    "velocity": 0.29133858267716534,
                    "duration": 0.1602049999999977
                },
                {
                    "name": "A#3",
                    "midi": 58,
                    "time": 58.635029999999915,
                    "velocity": 0.36220472440944884,
                    "duration": 1.281640000000003
                },
                {
                    "name": "A#4",
                    "midi": 70,
                    "time": 58.635029999999915,
                    "velocity": 0.36220472440944884,
                    "duration": 1.281640000000003
                },
                {
                    "name": "A#4",
                    "midi": 70,
                    "time": 59.91666999999992,
                    "velocity": 0.36220472440944884,
                    "duration": 0.3204100000000025
                },
                {
                    "name": "A#5",
                    "midi": 82,
                    "time": 59.91666999999992,
                    "velocity": 0.36220472440944884,
                    "duration": 0.3204100000000025
                },
                {
                    "name": "A#6",
                    "midi": 94,
                    "time": 60.23707999999992,
                    "velocity": 0.36220472440944884,
                    "duration": 0.3204100000000025
                },
                {
                    "name": "A#5",
                    "midi": 82,
                    "time": 60.23707999999992,
                    "velocity": 0.36220472440944884,
                    "duration": 0.3204100000000025
                },
                {
                    "name": "A#4",
                    "midi": 70,
                    "time": 60.55748999999992,
                    "velocity": 0.36220472440944884,
                    "duration": 1.281640000000003
                },
                {
                    "name": "A#3",
                    "midi": 58,
                    "time": 60.55748999999992,
                    "velocity": 0.36220472440944884,
                    "duration": 1.281640000000003
                },
                {
                    "name": "A#4",
                    "midi": 70,
                    "time": 61.839129999999926,
                    "velocity": 0.41732283464566927,
                    "duration": 0.3204100000000025
                },
                {
                    "name": "A#5",
                    "midi": 82,
                    "time": 61.839129999999926,
                    "velocity": 0.41732283464566927,
                    "duration": 0.3204100000000025
                },
                {
                    "name": "A#6",
                    "midi": 94,
                    "time": 62.15953999999993,
                    "velocity": 0.4645669291338583,
                    "duration": 0.3204100000000025
                },
                {
                    "name": "A#5",
                    "midi": 82,
                    "time": 62.15953999999993,
                    "velocity": 0.4645669291338583,
                    "duration": 0.3204100000000025
                },
                {
                    "name": "D#3",
                    "midi": 51,
                    "time": 62.47994999999993,
                    "velocity": 0.4094488188976378,
                    "duration": 0.06007687500000003
                },
                {
                    "name": "D#4",
                    "midi": 63,
                    "time": 62.47994999999993,
                    "velocity": 0.49606299212598426,
                    "duration": 0.06007687500000003
                },
                {
                    "name": "D#3",
                    "midi": 51,
                    "time": 62.64015499999993,
                    "velocity": 0.4330708661417323,
                    "duration": 0.06007687500000003
                },
                {
                    "name": "D#4",
                    "midi": 63,
                    "time": 62.64015499999993,
                    "velocity": 0.5196850393700787,
                    "duration": 0.06007687500000003
                },
                {
                    "name": "D#4",
                    "midi": 63,
                    "time": 62.80035999999993,
                    "velocity": 0.5275590551181102,
                    "duration": 0.06007687500000003
                },
                {
                    "name": "D#3",
                    "midi": 51,
                    "time": 62.80035999999993,
                    "velocity": 0.44881889763779526,
                    "duration": 0.06007687500000003
                },
                {
                    "name": "D#4",
                    "midi": 63,
                    "time": 62.960564999999924,
                    "velocity": 0.5354330708661418,
                    "duration": 0.06007687500000003
                },
                {
                    "name": "D#3",
                    "midi": 51,
                    "time": 62.960564999999924,
                    "velocity": 0.4645669291338583,
                    "duration": 0.06007687500000003
                },
                {
                    "name": "D#4",
                    "midi": 63,
                    "time": 63.12076999999992,
                    "velocity": 0.6220472440944882,
                    "duration": 0.3204100000000025
                },
                {
                    "name": "D#3",
                    "midi": 51,
                    "time": 63.12076999999992,
                    "velocity": 0.5196850393700787,
                    "duration": 0.3204100000000025
                },
                {
                    "name": "F3",
                    "midi": 53,
                    "time": 63.441179999999925,
                    "velocity": 0.5748031496062992,
                    "duration": 0.3204100000000025
                },
                {
                    "name": "D#4",
                    "midi": 63,
                    "time": 63.441179999999925,
                    "velocity": 0.5905511811023622,
                    "duration": 0.3204100000000025
                },
                {
                    "name": "B3",
                    "midi": 59,
                    "time": 63.441179999999925,
                    "velocity": 0.5590551181102362,
                    "duration": 0.3204100000000025
                },
                {
                    "name": "F4",
                    "midi": 65,
                    "time": 63.441179999999925,
                    "velocity": 0.6929133858267716,
                    "duration": 0.3204100000000025
                },
                {
                    "name": "B4",
                    "midi": 71,
                    "time": 63.76158999999993,
                    "velocity": 0.49606299212598426,
                    "duration": 0.1602049999999977
                },
                {
                    "name": "F5",
                    "midi": 77,
                    "time": 63.76158999999993,
                    "velocity": 0.5984251968503937,
                    "duration": 0.1602049999999977
                },
                {
                    "name": "D#5",
                    "midi": 75,
                    "time": 63.76158999999993,
                    "velocity": 0.49606299212598426,
                    "duration": 0.1602049999999977
                },
                {
                    "name": "F4",
                    "midi": 65,
                    "time": 63.76158999999993,
                    "velocity": 0.49606299212598426,
                    "duration": 0.1602049999999977
                },
                {
                    "name": "D#4",
                    "midi": 63,
                    "time": 63.921794999999925,
                    "velocity": 0.48031496062992124,
                    "duration": 0.1602049999999977
                },
                {
                    "name": "D#5",
                    "midi": 75,
                    "time": 63.921794999999925,
                    "velocity": 0.5826771653543307,
                    "duration": 0.1602049999999977
                },
                {
                    "name": "F4",
                    "midi": 65,
                    "time": 64.08199999999992,
                    "velocity": 0.49606299212598426,
                    "duration": 0.16020500000000482
                },
                {
                    "name": "D5",
                    "midi": 74,
                    "time": 64.08199999999992,
                    "velocity": 0.49606299212598426,
                    "duration": 0.16020500000000482
                },
                {
                    "name": "F5",
                    "midi": 77,
                    "time": 64.08199999999992,
                    "velocity": 0.5984251968503937,
                    "duration": 0.16020500000000482
                },
                {
                    "name": "A#4",
                    "midi": 70,
                    "time": 64.08199999999992,
                    "velocity": 0.49606299212598426,
                    "duration": 0.16020500000000482
                },
                {
                    "name": "F#5",
                    "midi": 78,
                    "time": 64.24220499999993,
                    "velocity": 0.5669291338582677,
                    "duration": 0.16020500000000482
                },
                {
                    "name": "F#4",
                    "midi": 66,
                    "time": 64.24220499999993,
                    "velocity": 0.4645669291338583,
                    "duration": 0.16020500000000482
                },
                {
                    "name": "F#4",
                    "midi": 66,
                    "time": 64.40240999999993,
                    "velocity": 0.49606299212598426,
                    "duration": 0.060076874999992924
                },
                {
                    "name": "F#3",
                    "midi": 54,
                    "time": 64.40240999999993,
                    "velocity": 0.4094488188976378,
                    "duration": 0.060076874999992924
                },
                {
                    "name": "F#3",
                    "midi": 54,
                    "time": 64.56261499999992,
                    "velocity": 0.4330708661417323,
                    "duration": 0.060076874999992924
                },
                {
                    "name": "F#4",
                    "midi": 66,
                    "time": 64.56261499999992,
                    "velocity": 0.5196850393700787,
                    "duration": 0.060076874999992924
                },
                {
                    "name": "F#3",
                    "midi": 54,
                    "time": 64.72281999999991,
                    "velocity": 0.44881889763779526,
                    "duration": 0.060076874999992924
                },
                {
                    "name": "F#4",
                    "midi": 66,
                    "time": 64.72281999999991,
                    "velocity": 0.5275590551181102,
                    "duration": 0.060076874999992924
                },
                {
                    "name": "F#4",
                    "midi": 66,
                    "time": 64.8830249999999,
                    "velocity": 0.5196850393700787,
                    "duration": 0.060076874999992924
                },
                {
                    "name": "F#3",
                    "midi": 54,
                    "time": 64.8830249999999,
                    "velocity": 0.44881889763779526,
                    "duration": 0.060076874999992924
                },
                {
                    "name": "F#4",
                    "midi": 66,
                    "time": 65.0432299999999,
                    "velocity": 0.6220472440944882,
                    "duration": 0.3204099999999954
                },
                {
                    "name": "F#3",
                    "midi": 54,
                    "time": 65.0432299999999,
                    "velocity": 0.5354330708661418,
                    "duration": 0.3204099999999954
                },
                {
                    "name": "G#3",
                    "midi": 56,
                    "time": 65.36363999999989,
                    "velocity": 0.5669291338582677,
                    "duration": 0.3204099999999954
                },
                {
                    "name": "D4",
                    "midi": 62,
                    "time": 65.36363999999989,
                    "velocity": 0.5748031496062992,
                    "duration": 0.3204099999999954
                },
                {
                    "name": "F#4",
                    "midi": 66,
                    "time": 65.36363999999989,
                    "velocity": 0.5905511811023622,
                    "duration": 0.3204099999999954
                },
                {
                    "name": "G#4",
                    "midi": 68,
                    "time": 65.36363999999989,
                    "velocity": 0.6850393700787402,
                    "duration": 0.3204099999999954
                },
                {
                    "name": "G#4",
                    "midi": 68,
                    "time": 65.68404999999989,
                    "velocity": 0.49606299212598426,
                    "duration": 0.16020500000000482
                },
                {
                    "name": "F#5",
                    "midi": 78,
                    "time": 65.68404999999989,
                    "velocity": 0.49606299212598426,
                    "duration": 0.16020500000000482
                },
                {
                    "name": "G#5",
                    "midi": 80,
                    "time": 65.68404999999989,
                    "velocity": 0.5984251968503937,
                    "duration": 0.16020500000000482
                },
                {
                    "name": "D5",
                    "midi": 74,
                    "time": 65.68404999999989,
                    "velocity": 0.49606299212598426,
                    "duration": 0.16020500000000482
                },
                {
                    "name": "F#4",
                    "midi": 66,
                    "time": 65.84425499999989,
                    "velocity": 0.48031496062992124,
                    "duration": 0.16020500000000482
                },
                {
                    "name": "F#5",
                    "midi": 78,
                    "time": 65.84425499999989,
                    "velocity": 0.5826771653543307,
                    "duration": 0.16020500000000482
                },
                {
                    "name": "G#4",
                    "midi": 68,
                    "time": 66.0044599999999,
                    "velocity": 0.49606299212598426,
                    "duration": 0.16020500000000482
                },
                {
                    "name": "F5",
                    "midi": 77,
                    "time": 66.0044599999999,
                    "velocity": 0.49606299212598426,
                    "duration": 0.16020500000000482
                },
                {
                    "name": "G#5",
                    "midi": 80,
                    "time": 66.0044599999999,
                    "velocity": 0.5984251968503937,
                    "duration": 0.16020500000000482
                },
                {
                    "name": "C#5",
                    "midi": 73,
                    "time": 66.0044599999999,
                    "velocity": 0.49606299212598426,
                    "duration": 0.16020500000000482
                },
                {
                    "name": "A5",
                    "midi": 81,
                    "time": 66.1646649999999,
                    "velocity": 0.5669291338582677,
                    "duration": 0.16020500000000482
                },
                {
                    "name": "A4",
                    "midi": 69,
                    "time": 66.1646649999999,
                    "velocity": 0.4645669291338583,
                    "duration": 0.16020500000000482
                },
                {
                    "name": "A4",
                    "midi": 69,
                    "time": 66.3248699999999,
                    "velocity": 0.4409448818897638,
                    "duration": 0.060076874999992924
                },
                {
                    "name": "A3",
                    "midi": 57,
                    "time": 66.3248699999999,
                    "velocity": 0.3700787401574803,
                    "duration": 0.060076874999992924
                },
                {
                    "name": "A3",
                    "midi": 57,
                    "time": 66.4850749999999,
                    "velocity": 0.4015748031496063,
                    "duration": 0.060076874999992924
                },
                {
                    "name": "A4",
                    "midi": 69,
                    "time": 66.4850749999999,
                    "velocity": 0.47244094488188976,
                    "duration": 0.060076874999992924
                },
                {
                    "name": "A3",
                    "midi": 57,
                    "time": 66.64527999999989,
                    "velocity": 0.4251968503937008,
                    "duration": 0.060076874999992924
                },
                {
                    "name": "A4",
                    "midi": 69,
                    "time": 66.64527999999989,
                    "velocity": 0.5039370078740157,
                    "duration": 0.060076874999992924
                },
                {
                    "name": "A3",
                    "midi": 57,
                    "time": 66.80548499999988,
                    "velocity": 0.44881889763779526,
                    "duration": 0.060076874999992924
                },
                {
                    "name": "A4",
                    "midi": 69,
                    "time": 66.80548499999988,
                    "velocity": 0.5354330708661418,
                    "duration": 0.060076874999992924
                },
                {
                    "name": "A4",
                    "midi": 69,
                    "time": 66.96568999999987,
                    "velocity": 0.6456692913385826,
                    "duration": 0.3204099999999954
                },
                {
                    "name": "A3",
                    "midi": 57,
                    "time": 66.96568999999987,
                    "velocity": 0.5511811023622047,
                    "duration": 0.3204099999999954
                },
                {
                    "name": "A#4",
                    "midi": 70,
                    "time": 67.28609999999986,
                    "velocity": 0.49606299212598426,
                    "duration": 0.060076874999992924
                },
                {
                    "name": "A#3",
                    "midi": 58,
                    "time": 67.28609999999986,
                    "velocity": 0.4094488188976378,
                    "duration": 0.060076874999992924
                },
                {
                    "name": "G#4",
                    "midi": 68,
                    "time": 67.28609999999986,
                    "velocity": 0.4094488188976378,
                    "duration": 0.060076874999992924
                },
                {
                    "name": "G#3",
                    "midi": 56,
                    "time": 67.28609999999986,
                    "velocity": 0.4094488188976378,
                    "duration": 0.060076874999992924
                },
                {
                    "name": "F4",
                    "midi": 65,
                    "time": 67.28609999999986,
                    "velocity": 0.4094488188976378,
                    "duration": 0.060076874999992924
                },
                {
                    "name": "F4",
                    "midi": 65,
                    "time": 67.44630499999985,
                    "velocity": 0.4330708661417323,
                    "duration": 0.060076874999992924
                },
                {
                    "name": "A#4",
                    "midi": 70,
                    "time": 67.44630499999985,
                    "velocity": 0.5196850393700787,
                    "duration": 0.060076874999992924
                },
                {
                    "name": "G#4",
                    "midi": 68,
                    "time": 67.44630499999985,
                    "velocity": 0.4330708661417323,
                    "duration": 0.060076874999992924
                },
                {
                    "name": "G#3",
                    "midi": 56,
                    "time": 67.44630499999985,
                    "velocity": 0.4330708661417323,
                    "duration": 0.060076874999992924
                },
                {
                    "name": "A#3",
                    "midi": 58,
                    "time": 67.44630499999985,
                    "velocity": 0.4330708661417323,
                    "duration": 0.060076874999992924
                },
                {
                    "name": "G#3",
                    "midi": 56,
                    "time": 67.60650999999984,
                    "velocity": 0.47244094488188976,
                    "duration": 0.060076874999992924
                },
                {
                    "name": "G#4",
                    "midi": 68,
                    "time": 67.60650999999984,
                    "velocity": 0.47244094488188976,
                    "duration": 0.060076874999992924
                },
                {
                    "name": "A#3",
                    "midi": 58,
                    "time": 67.60650999999984,
                    "velocity": 0.47244094488188976,
                    "duration": 0.060076874999992924
                },
                {
                    "name": "A#4",
                    "midi": 70,
                    "time": 67.60650999999984,
                    "velocity": 0.5590551181102362,
                    "duration": 0.060076874999992924
                },
                {
                    "name": "F4",
                    "midi": 65,
                    "time": 67.60650999999984,
                    "velocity": 0.47244094488188976,
                    "duration": 0.060076874999992924
                },
                {
                    "name": "G#3",
                    "midi": 56,
                    "time": 67.76671499999983,
                    "velocity": 0.48031496062992124,
                    "duration": 0.060076874999992924
                },
                {
                    "name": "F4",
                    "midi": 65,
                    "time": 67.76671499999983,
                    "velocity": 0.48031496062992124,
                    "duration": 0.060076874999992924
                },
                {
                    "name": "G#4",
                    "midi": 68,
                    "time": 67.76671499999983,
                    "velocity": 0.5748031496062992,
                    "duration": 0.060076874999992924
                },
                {
                    "name": "A#4",
                    "midi": 70,
                    "time": 67.76671499999983,
                    "velocity": 0.5748031496062992,
                    "duration": 0.060076874999992924
                },
                {
                    "name": "A#3",
                    "midi": 58,
                    "time": 67.76671499999983,
                    "velocity": 0.48031496062992124,
                    "duration": 0.060076874999992924
                },
                {
                    "name": "G#3",
                    "midi": 56,
                    "time": 67.92691999999982,
                    "velocity": 0.5354330708661418,
                    "duration": 0.3204099999999954
                },
                {
                    "name": "A#3",
                    "midi": 58,
                    "time": 67.92691999999982,
                    "velocity": 0.5354330708661418,
                    "duration": 0.3204099999999954
                },
                {
                    "name": "D4",
                    "midi": 62,
                    "time": 67.92691999999982,
                    "velocity": 0.5354330708661418,
                    "duration": 0.3204099999999954
                },
                {
                    "name": "G#4",
                    "midi": 68,
                    "time": 67.92691999999982,
                    "velocity": 0.5354330708661418,
                    "duration": 0.3204099999999954
                },
                {
                    "name": "A#4",
                    "midi": 70,
                    "time": 67.92691999999982,
                    "velocity": 0.6377952755905512,
                    "duration": 0.3204099999999954
                },
                {
                    "name": "F#4",
                    "midi": 66,
                    "time": 68.24732999999982,
                    "velocity": 0.41732283464566927,
                    "duration": 0.060076874999992924
                },
                {
                    "name": "D#4",
                    "midi": 63,
                    "time": 68.24732999999982,
                    "velocity": 0.41732283464566927,
                    "duration": 0.060076874999992924
                },
                {
                    "name": "A#4",
                    "midi": 70,
                    "time": 68.24732999999982,
                    "velocity": 0.5039370078740157,
                    "duration": 0.060076874999992924
                },
                {
                    "name": "A#3",
                    "midi": 58,
                    "time": 68.24732999999982,
                    "velocity": 0.41732283464566927,
                    "duration": 0.060076874999992924
                },
                {
                    "name": "F#4",
                    "midi": 66,
                    "time": 68.40753499999981,
                    "velocity": 0.4409448818897638,
                    "duration": 0.060076874999992924
                },
                {
                    "name": "A#3",
                    "midi": 58,
                    "time": 68.40753499999981,
                    "velocity": 0.4409448818897638,
                    "duration": 0.060076874999992924
                },
                {
                    "name": "A#4",
                    "midi": 70,
                    "time": 68.40753499999981,
                    "velocity": 0.5354330708661418,
                    "duration": 0.060076874999992924
                },
                {
                    "name": "D#4",
                    "midi": 63,
                    "time": 68.40753499999981,
                    "velocity": 0.4409448818897638,
                    "duration": 0.060076874999992924
                },
                {
                    "name": "F#4",
                    "midi": 66,
                    "time": 68.5677399999998,
                    "velocity": 0.48031496062992124,
                    "duration": 0.060076874999992924
                },
                {
                    "name": "A#4",
                    "midi": 70,
                    "time": 68.5677399999998,
                    "velocity": 0.5748031496062992,
                    "duration": 0.060076874999992924
                },
                {
                    "name": "D#4",
                    "midi": 63,
                    "time": 68.5677399999998,
                    "velocity": 0.48031496062992124,
                    "duration": 0.060076874999992924
                },
                {
                    "name": "F#4",
                    "midi": 66,
                    "time": 68.72794499999979,
                    "velocity": 0.5039370078740157,
                    "duration": 0.060076874999992924
                },
                {
                    "name": "D#4",
                    "midi": 63,
                    "time": 68.72794499999979,
                    "velocity": 0.5039370078740157,
                    "duration": 0.060076874999992924
                },
                {
                    "name": "A#4",
                    "midi": 70,
                    "time": 68.72794499999979,
                    "velocity": 0.5905511811023622,
                    "duration": 0.060076874999992924
                },
                {
                    "name": "F#4",
                    "midi": 66,
                    "time": 68.88814999999978,
                    "velocity": 0.5669291338582677,
                    "duration": 0.3204099999999954
                },
                {
                    "name": "A#4",
                    "midi": 70,
                    "time": 68.88814999999978,
                    "velocity": 0.6614173228346457,
                    "duration": 0.3204099999999954
                },
                {
                    "name": "D#4",
                    "midi": 63,
                    "time": 68.88814999999978,
                    "velocity": 0.5669291338582677,
                    "duration": 0.3204099999999954
                },
                {
                    "name": "G#3",
                    "midi": 56,
                    "time": 69.20855999999978,
                    "velocity": 0.5905511811023622,
                    "duration": 0.3204099999999954
                },
                {
                    "name": "D#4",
                    "midi": 63,
                    "time": 69.20855999999978,
                    "velocity": 0.5905511811023622,
                    "duration": 0.3204099999999954
                },
                {
                    "name": "G#4",
                    "midi": 68,
                    "time": 69.20855999999978,
                    "velocity": 0.7086614173228346,
                    "duration": 0.3204099999999954
                },
                {
                    "name": "D#4",
                    "midi": 63,
                    "time": 69.52896999999977,
                    "velocity": 0.5905511811023622,
                    "duration": 0.3204099999999954
                },
                {
                    "name": "G#4",
                    "midi": 68,
                    "time": 69.52896999999977,
                    "velocity": 0.5905511811023622,
                    "duration": 0.3204099999999954
                },
                {
                    "name": "D#5",
                    "midi": 75,
                    "time": 69.52896999999977,
                    "velocity": 0.7086614173228346,
                    "duration": 0.3204099999999954
                },
                {
                    "name": "F5",
                    "midi": 77,
                    "time": 69.84937999999977,
                    "velocity": 0.6692913385826772,
                    "duration": 0.3204099999999954
                },
                {
                    "name": "B4",
                    "midi": 71,
                    "time": 69.84937999999977,
                    "velocity": 0.5669291338582677,
                    "duration": 0.3204099999999954
                },
                {
                    "name": "F4",
                    "midi": 65,
                    "time": 69.84937999999977,
                    "velocity": 0.5669291338582677,
                    "duration": 0.3204099999999954
                },
                {
                    "name": "D#5",
                    "midi": 75,
                    "time": 69.84937999999977,
                    "velocity": 0.5669291338582677,
                    "duration": 0.3204099999999954
                },
                {
                    "name": "A#4",
                    "midi": 70,
                    "time": 70.16978999999976,
                    "velocity": 0.5669291338582677,
                    "duration": 0.3204099999999954
                },
                {
                    "name": "F#4",
                    "midi": 66,
                    "time": 70.16978999999976,
                    "velocity": 0.5669291338582677,
                    "duration": 0.3204099999999954
                },
                {
                    "name": "D#5",
                    "midi": 75,
                    "time": 70.16978999999976,
                    "velocity": 0.5669291338582677,
                    "duration": 0.3204099999999954
                },
                {
                    "name": "F#5",
                    "midi": 78,
                    "time": 70.16978999999976,
                    "velocity": 0.6692913385826772,
                    "duration": 0.3204099999999954
                },
                {
                    "name": "D#6",
                    "midi": 87,
                    "time": 70.49019999999976,
                    "velocity": 0.6850393700787402,
                    "duration": 0.16020500000000482
                },
                {
                    "name": "D#7",
                    "midi": 99,
                    "time": 70.49019999999976,
                    "velocity": 0.7952755905511811,
                    "duration": 0.16020500000000482
                },
                {
                    "name": "B5",
                    "midi": 83,
                    "time": 70.81060999999977,
                    "velocity": 0.6771653543307087,
                    "duration": 0.3204099999999954
                },
                {
                    "name": "B4",
                    "midi": 71,
                    "time": 70.81060999999977,
                    "velocity": 0.5669291338582677,
                    "duration": 0.3204099999999954
                },
                {
                    "name": "D#5",
                    "midi": 75,
                    "time": 70.81060999999977,
                    "velocity": 0.5669291338582677,
                    "duration": 0.3204099999999954
                },
                {
                    "name": "B5",
                    "midi": 83,
                    "time": 71.13101999999976,
                    "velocity": 0.6614173228346457,
                    "duration": 0.16020500000000482
                },
                {
                    "name": "B6",
                    "midi": 95,
                    "time": 71.13101999999976,
                    "velocity": 0.7795275590551181,
                    "duration": 0.16020500000000482
                },
                {
                    "name": "G#4",
                    "midi": 68,
                    "time": 71.45142999999977,
                    "velocity": 0.5590551181102362,
                    "duration": 0.3204099999999954
                },
                {
                    "name": "B4",
                    "midi": 71,
                    "time": 71.45142999999977,
                    "velocity": 0.5590551181102362,
                    "duration": 0.3204099999999954
                },
                {
                    "name": "D#5",
                    "midi": 75,
                    "time": 71.45142999999977,
                    "velocity": 0.5590551181102362,
                    "duration": 0.3204099999999954
                },
                {
                    "name": "G#5",
                    "midi": 80,
                    "time": 71.45142999999977,
                    "velocity": 0.6692913385826772,
                    "duration": 0.3204099999999954
                },
                {
                    "name": "G#5",
                    "midi": 80,
                    "time": 71.77183999999977,
                    "velocity": 0.6614173228346457,
                    "duration": 0.16020500000000482
                },
                {
                    "name": "G#6",
                    "midi": 92,
                    "time": 71.77183999999977,
                    "velocity": 0.7795275590551181,
                    "duration": 0.16020500000000482
                },
                {
                    "name": "A#4",
                    "midi": 70,
                    "time": 72.09224999999978,
                    "velocity": 0.5905511811023622,
                    "duration": 0.3204099999999954
                },
                {
                    "name": "F#4",
                    "midi": 66,
                    "time": 72.09224999999978,
                    "velocity": 0.5905511811023622,
                    "duration": 0.3204099999999954
                },
                {
                    "name": "D#5",
                    "midi": 75,
                    "time": 72.09224999999978,
                    "velocity": 0.5905511811023622,
                    "duration": 0.3204099999999954
                },
                {
                    "name": "F#5",
                    "midi": 78,
                    "time": 72.09224999999978,
                    "velocity": 0.7007874015748031,
                    "duration": 0.3204099999999954
                },
                {
                    "name": "F#6",
                    "midi": 90,
                    "time": 72.41265999999978,
                    "velocity": 0.7795275590551181,
                    "duration": 0.16020500000000482
                },
                {
                    "name": "F#5",
                    "midi": 78,
                    "time": 72.41265999999978,
                    "velocity": 0.6614173228346457,
                    "duration": 0.16020500000000482
                },
                {
                    "name": "F4",
                    "midi": 65,
                    "time": 72.73306999999978,
                    "velocity": 0.5669291338582677,
                    "duration": 0.3204099999999954
                },
                {
                    "name": "A#4",
                    "midi": 70,
                    "time": 72.73306999999978,
                    "velocity": 0.5669291338582677,
                    "duration": 0.3204099999999954
                },
                {
                    "name": "F5",
                    "midi": 77,
                    "time": 72.73306999999978,
                    "velocity": 0.6771653543307087,
                    "duration": 0.3204099999999954
                },
                {
                    "name": "D#5",
                    "midi": 75,
                    "time": 72.73306999999978,
                    "velocity": 0.5669291338582677,
                    "duration": 0.3204099999999954
                },
                {
                    "name": "F6",
                    "midi": 89,
                    "time": 73.05347999999978,
                    "velocity": 0.7795275590551181,
                    "duration": 0.16020500000000482
                },
                {
                    "name": "F5",
                    "midi": 77,
                    "time": 73.05347999999978,
                    "velocity": 0.6614173228346457,
                    "duration": 0.16020500000000482
                },
                {
                    "name": "F4",
                    "midi": 65,
                    "time": 73.37388999999979,
                    "velocity": 0.5905511811023622,
                    "duration": 0.3204099999999954
                },
                {
                    "name": "A#4",
                    "midi": 70,
                    "time": 73.37388999999979,
                    "velocity": 0.5905511811023622,
                    "duration": 0.3204099999999954
                },
                {
                    "name": "D5",
                    "midi": 74,
                    "time": 73.37388999999979,
                    "velocity": 0.5905511811023622,
                    "duration": 0.3204099999999954
                },
                {
                    "name": "F5",
                    "midi": 77,
                    "time": 73.37388999999979,
                    "velocity": 0.7007874015748031,
                    "duration": 0.3204099999999954
                },
                {
                    "name": "D#6",
                    "midi": 87,
                    "time": 73.69429999999979,
                    "velocity": 0.8031496062992126,
                    "duration": 0.30038437499999304
                },
                {
                    "name": "D#5",
                    "midi": 75,
                    "time": 73.69429999999979,
                    "velocity": 0.6692913385826772,
                    "duration": 0.30038437499999304
                },
                {
                    "name": "D#4",
                    "midi": 63,
                    "time": 74.01470999999978,
                    "velocity": 0.6141732283464567,
                    "duration": 0.9612300000000005
                },
                {
                    "name": "D#5",
                    "midi": 75,
                    "time": 74.01470999999978,
                    "velocity": 0.7401574803149606,
                    "duration": 0.9612300000000005
                },
                {
                    "name": "A#3",
                    "midi": 58,
                    "time": 74.97593999999978,
                    "velocity": 0.5433070866141733,
                    "duration": 0.3204099999999954
                },
                {
                    "name": "A#4",
                    "midi": 70,
                    "time": 74.97593999999978,
                    "velocity": 0.6377952755905512,
                    "duration": 0.3204099999999954
                },
                {
                    "name": "B3",
                    "midi": 59,
                    "time": 75.29634999999978,
                    "velocity": 0.5039370078740157,
                    "duration": 0.16020500000000482
                },
                {
                    "name": "B4",
                    "midi": 71,
                    "time": 75.29634999999978,
                    "velocity": 0.5905511811023622,
                    "duration": 0.16020500000000482
                },
                {
                    "name": "A#3",
                    "midi": 58,
                    "time": 75.45655499999978,
                    "velocity": 0.4645669291338583,
                    "duration": 0.16020500000000482
                },
                {
                    "name": "A#4",
                    "midi": 70,
                    "time": 75.45655499999978,
                    "velocity": 0.5590551181102362,
                    "duration": 0.16020500000000482
                },
                {
                    "name": "F3",
                    "midi": 53,
                    "time": 75.61675999999979,
                    "velocity": 0.49606299212598426,
                    "duration": 0.16020500000000482
                },
                {
                    "name": "F4",
                    "midi": 65,
                    "time": 75.61675999999979,
                    "velocity": 0.5748031496062992,
                    "duration": 0.16020500000000482
                },
                {
                    "name": "F#3",
                    "midi": 54,
                    "time": 75.77696499999979,
                    "velocity": 0.4251968503937008,
                    "duration": 0.16020500000000482
                },
                {
                    "name": "F#4",
                    "midi": 66,
                    "time": 75.77696499999979,
                    "velocity": 0.5118110236220472,
                    "duration": 0.16020500000000482
                },
                {
                    "name": "D#3",
                    "midi": 51,
                    "time": 75.9371699999998,
                    "velocity": 0.4566929133858268,
                    "duration": 1.281639999999996
                },
                {
                    "name": "D#4",
                    "midi": 63,
                    "time": 75.9371699999998,
                    "velocity": 0.5511811023622047,
                    "duration": 1.281639999999996
                },
                {
                    "name": "A#3",
                    "midi": 58,
                    "time": 78.18003999999979,
                    "velocity": 0.23622047244094488,
                    "duration": 0.3204099999999954
                },
                {
                    "name": "A#3",
                    "midi": 58,
                    "time": 78.50044999999979,
                    "velocity": 0.25196850393700787,
                    "duration": 0.640820000000005
                },
                {
                    "name": "A#3",
                    "midi": 58,
                    "time": 79.14126999999979,
                    "velocity": 0.2204724409448819,
                    "duration": 0.3204099999999954
                },
                {
                    "name": "A#3",
                    "midi": 58,
                    "time": 79.46167999999979,
                    "velocity": 0.25196850393700787,
                    "duration": 0.640820000000005
                },
                {
                    "name": "A#3",
                    "midi": 58,
                    "time": 80.1024999999998,
                    "velocity": 0.2125984251968504,
                    "duration": 0.3204099999999954
                },
                {
                    "name": "A#3",
                    "midi": 58,
                    "time": 80.42290999999979,
                    "velocity": 0.25196850393700787,
                    "duration": 0.640820000000005
                },
                {
                    "name": "A#3",
                    "midi": 58,
                    "time": 81.0637299999998,
                    "velocity": 0.2125984251968504,
                    "duration": 0.3204099999999954
                },
                {
                    "name": "A#3",
                    "midi": 58,
                    "time": 81.38413999999979,
                    "velocity": 0.25984251968503935,
                    "duration": 0.3204099999999954
                },
                {
                    "name": "A#3",
                    "midi": 58,
                    "time": 82.02495999999978,
                    "velocity": 0.1968503937007874,
                    "duration": 0.3204099999999954
                },
                {
                    "name": "A#3",
                    "midi": 58,
                    "time": 82.34536999999978,
                    "velocity": 0.1968503937007874,
                    "duration": 0.3204099999999954
                },
                {
                    "name": "A#3",
                    "midi": 58,
                    "time": 82.98618999999977,
                    "velocity": 0.14960629921259844,
                    "duration": 0.3204099999999954
                },
                {
                    "name": "F#4",
                    "midi": 66,
                    "time": 82.98618999999977,
                    "velocity": 0.1889763779527559,
                    "duration": 0.3204099999999954
                },
                {
                    "name": "A#3",
                    "midi": 58,
                    "time": 83.30659999999976,
                    "velocity": 0.14960629921259844,
                    "duration": 0.3204099999999954
                },
                {
                    "name": "F#4",
                    "midi": 66,
                    "time": 83.30659999999976,
                    "velocity": 0.1889763779527559,
                    "duration": 0.3204099999999954
                },
                {
                    "name": "B3",
                    "midi": 59,
                    "time": 83.94741999999975,
                    "velocity": 0.1732283464566929,
                    "duration": 0.3204099999999954
                },
                {
                    "name": "F4",
                    "midi": 65,
                    "time": 84.26782999999975,
                    "velocity": 0.1968503937007874,
                    "duration": 0.3204099999999954
                },
                {
                    "name": "B3",
                    "midi": 59,
                    "time": 84.26782999999975,
                    "velocity": 0.16535433070866143,
                    "duration": 0.3204099999999954
                },
                {
                    "name": "A#3",
                    "midi": 58,
                    "time": 84.90864999999974,
                    "velocity": 0.1732283464566929,
                    "duration": 0.3204099999999954
                },
                {
                    "name": "F#4",
                    "midi": 66,
                    "time": 84.90864999999974,
                    "velocity": 0.2047244094488189,
                    "duration": 0.3204099999999954
                },
                {
                    "name": "A#3",
                    "midi": 58,
                    "time": 85.22905999999973,
                    "velocity": 0.1732283464566929,
                    "duration": 0.3204099999999954
                },
                {
                    "name": "F#4",
                    "midi": 66,
                    "time": 85.22905999999973,
                    "velocity": 0.2047244094488189,
                    "duration": 0.3204099999999954
                },
                {
                    "name": "A#3",
                    "midi": 58,
                    "time": 85.54946999999973,
                    "velocity": 0.16535433070866143,
                    "duration": 0.3204099999999954
                },
                {
                    "name": "F#4",
                    "midi": 66,
                    "time": 85.54946999999973,
                    "velocity": 0.1968503937007874,
                    "duration": 0.3204099999999954
                },
                {
                    "name": "C#4",
                    "midi": 61,
                    "time": 85.86987999999972,
                    "velocity": 0.15748031496062992,
                    "duration": 0.3204099999999954
                },
                {
                    "name": "F#4",
                    "midi": 66,
                    "time": 85.86987999999972,
                    "velocity": 0.1889763779527559,
                    "duration": 0.3204099999999954
                },
                {
                    "name": "C#4",
                    "midi": 61,
                    "time": 86.19028999999972,
                    "velocity": 0.15748031496062992,
                    "duration": 0.3204099999999954
                },
                {
                    "name": "F#4",
                    "midi": 66,
                    "time": 86.19028999999972,
                    "velocity": 0.1889763779527559,
                    "duration": 0.3204099999999954
                },
                {
                    "name": "C#4",
                    "midi": 61,
                    "time": 86.51069999999972,
                    "velocity": 0.16535433070866143,
                    "duration": 0.3204099999999954
                },
                {
                    "name": "F#4",
                    "midi": 66,
                    "time": 86.51069999999972,
                    "velocity": 0.1968503937007874,
                    "duration": 0.3204099999999954
                },
                {
                    "name": "G#3",
                    "midi": 56,
                    "time": 86.83110999999971,
                    "velocity": 0.15748031496062992,
                    "duration": 0.3204099999999954
                },
                {
                    "name": "C#4",
                    "midi": 61,
                    "time": 86.83110999999971,
                    "velocity": 0.1889763779527559,
                    "duration": 0.3204099999999954
                },
                {
                    "name": "F#3",
                    "midi": 54,
                    "time": 87.1515199999997,
                    "velocity": 0.15748031496062992,
                    "duration": 0.3204099999999954
                },
                {
                    "name": "C#4",
                    "midi": 61,
                    "time": 87.1515199999997,
                    "velocity": 0.1889763779527559,
                    "duration": 0.3204099999999954
                },
                {
                    "name": "F#3",
                    "midi": 54,
                    "time": 87.4719299999997,
                    "velocity": 0.16535433070866143,
                    "duration": 0.3204099999999954
                },
                {
                    "name": "C#4",
                    "midi": 61,
                    "time": 87.4719299999997,
                    "velocity": 0.1968503937007874,
                    "duration": 0.3204099999999954
                },
                {
                    "name": "G#3",
                    "midi": 56,
                    "time": 87.7923399999997,
                    "velocity": 0.15748031496062992,
                    "duration": 0.3204099999999954
                },
                {
                    "name": "C#4",
                    "midi": 61,
                    "time": 87.7923399999997,
                    "velocity": 0.1889763779527559,
                    "duration": 0.3204099999999954
                },
                {
                    "name": "F#3",
                    "midi": 54,
                    "time": 88.11274999999969,
                    "velocity": 0.15748031496062992,
                    "duration": 0.3204099999999954
                },
                {
                    "name": "C#4",
                    "midi": 61,
                    "time": 88.11274999999969,
                    "velocity": 0.1889763779527559,
                    "duration": 0.3204099999999954
                },
                {
                    "name": "F#3",
                    "midi": 54,
                    "time": 88.43315999999969,
                    "velocity": 0.16535433070866143,
                    "duration": 0.3204099999999954
                },
                {
                    "name": "C#4",
                    "midi": 61,
                    "time": 88.43315999999969,
                    "velocity": 0.1968503937007874,
                    "duration": 0.3204099999999954
                },
                {
                    "name": "G#3",
                    "midi": 56,
                    "time": 88.75356999999968,
                    "velocity": 0.15748031496062992,
                    "duration": 0.3204099999999954
                },
                {
                    "name": "C#4",
                    "midi": 61,
                    "time": 88.75356999999968,
                    "velocity": 0.1889763779527559,
                    "duration": 0.3204099999999954
                },
                {
                    "name": "F#3",
                    "midi": 54,
                    "time": 89.07397999999968,
                    "velocity": 0.16535433070866143,
                    "duration": 0.3204099999999954
                },
                {
                    "name": "C#4",
                    "midi": 61,
                    "time": 89.07397999999968,
                    "velocity": 0.1968503937007874,
                    "duration": 0.3204099999999954
                },
                {
                    "name": "C#4",
                    "midi": 61,
                    "time": 89.71479999999967,
                    "velocity": 0.2125984251968504,
                    "duration": 0.3204099999999954
                },
                {
                    "name": "C#4",
                    "midi": 61,
                    "time": 90.03520999999967,
                    "velocity": 0.2125984251968504,
                    "duration": 0.3204099999999954
                },
                {
                    "name": "C#4",
                    "midi": 61,
                    "time": 90.67602999999966,
                    "velocity": 0.1732283464566929,
                    "duration": 0.3204099999999954
                },
                {
                    "name": "A#4",
                    "midi": 70,
                    "time": 90.67602999999966,
                    "velocity": 0.2047244094488189,
                    "duration": 0.3204099999999954
                },
                {
                    "name": "C#4",
                    "midi": 61,
                    "time": 90.99643999999965,
                    "velocity": 0.15748031496062992,
                    "duration": 0.3204099999999954
                },
                {
                    "name": "A#4",
                    "midi": 70,
                    "time": 90.99643999999965,
                    "velocity": 0.1889763779527559,
                    "duration": 0.3204099999999954
                },
                {
                    "name": "D#4",
                    "midi": 63,
                    "time": 91.63725999999964,
                    "velocity": 0.1732283464566929,
                    "duration": 0.3204099999999954
                },
                {
                    "name": "A4",
                    "midi": 69,
                    "time": 91.95766999999964,
                    "velocity": 0.2047244094488189,
                    "duration": 0.3204099999999954
                },
                {
                    "name": "D#4",
                    "midi": 63,
                    "time": 91.95766999999964,
                    "velocity": 0.1732283464566929,
                    "duration": 0.3204099999999954
                },
                {
                    "name": "C#4",
                    "midi": 61,
                    "time": 92.59848999999963,
                    "velocity": 0.16535433070866143,
                    "duration": 0.3204099999999954
                },
                {
                    "name": "A#4",
                    "midi": 70,
                    "time": 92.59848999999963,
                    "velocity": 0.1968503937007874,
                    "duration": 0.3204099999999954
                },
                {
                    "name": "C#4",
                    "midi": 61,
                    "time": 92.91889999999962,
                    "velocity": 0.16535433070866143,
                    "duration": 0.3204099999999954
                },
                {
                    "name": "A#4",
                    "midi": 70,
                    "time": 92.91889999999962,
                    "velocity": 0.1968503937007874,
                    "duration": 0.3204099999999954
                },
                {
                    "name": "C#4",
                    "midi": 61,
                    "time": 93.23930999999962,
                    "velocity": 0.18110236220472442,
                    "duration": 0.3204099999999954
                },
                {
                    "name": "A#4",
                    "midi": 70,
                    "time": 93.23930999999962,
                    "velocity": 0.2125984251968504,
                    "duration": 0.3204099999999954
                },
                {
                    "name": "F4",
                    "midi": 65,
                    "time": 93.55971999999961,
                    "velocity": 0.1889763779527559,
                    "duration": 0.3204099999999954
                },
                {
                    "name": "A#4",
                    "midi": 70,
                    "time": 93.55971999999961,
                    "velocity": 0.2204724409448819,
                    "duration": 0.3204099999999954
                },
                {
                    "name": "F4",
                    "midi": 65,
                    "time": 93.88012999999961,
                    "velocity": 0.18110236220472442,
                    "duration": 0.3204099999999954
                },
                {
                    "name": "A#4",
                    "midi": 70,
                    "time": 93.88012999999961,
                    "velocity": 0.2125984251968504,
                    "duration": 0.3204099999999954
                },
                {
                    "name": "F4",
                    "midi": 65,
                    "time": 94.2005399999996,
                    "velocity": 0.1732283464566929,
                    "duration": 0.3204099999999954
                },
                {
                    "name": "A#4",
                    "midi": 70,
                    "time": 94.2005399999996,
                    "velocity": 0.2125984251968504,
                    "duration": 0.3204099999999954
                },
                {
                    "name": "C4",
                    "midi": 60,
                    "time": 94.5209499999996,
                    "velocity": 0.1732283464566929,
                    "duration": 0.3204099999999954
                },
                {
                    "name": "F4",
                    "midi": 65,
                    "time": 94.5209499999996,
                    "velocity": 0.2047244094488189,
                    "duration": 0.3204099999999954
                },
                {
                    "name": "A#3",
                    "midi": 58,
                    "time": 94.8413599999996,
                    "velocity": 0.1732283464566929,
                    "duration": 0.3204099999999954
                },
                {
                    "name": "F4",
                    "midi": 65,
                    "time": 94.8413599999996,
                    "velocity": 0.2047244094488189,
                    "duration": 0.3204099999999954
                },
                {
                    "name": "A#3",
                    "midi": 58,
                    "time": 95.16176999999959,
                    "velocity": 0.1732283464566929,
                    "duration": 0.3204099999999954
                },
                {
                    "name": "F4",
                    "midi": 65,
                    "time": 95.16176999999959,
                    "velocity": 0.2047244094488189,
                    "duration": 0.3204099999999954
                },
                {
                    "name": "C4",
                    "midi": 60,
                    "time": 95.48217999999959,
                    "velocity": 0.1732283464566929,
                    "duration": 0.3204099999999954
                },
                {
                    "name": "F4",
                    "midi": 65,
                    "time": 95.48217999999959,
                    "velocity": 0.2047244094488189,
                    "duration": 0.3204099999999954
                },
                {
                    "name": "A#3",
                    "midi": 58,
                    "time": 95.80258999999958,
                    "velocity": 0.1732283464566929,
                    "duration": 0.3204099999999954
                },
                {
                    "name": "F4",
                    "midi": 65,
                    "time": 95.80258999999958,
                    "velocity": 0.2047244094488189,
                    "duration": 0.3204099999999954
                },
                {
                    "name": "A#3",
                    "midi": 58,
                    "time": 96.12299999999958,
                    "velocity": 0.1732283464566929,
                    "duration": 0.3204099999999954
                },
                {
                    "name": "F4",
                    "midi": 65,
                    "time": 96.12299999999958,
                    "velocity": 0.2047244094488189,
                    "duration": 0.3204099999999954
                },
                {
                    "name": "C4",
                    "midi": 60,
                    "time": 96.44340999999957,
                    "velocity": 0.1732283464566929,
                    "duration": 0.3204099999999954
                },
                {
                    "name": "F4",
                    "midi": 65,
                    "time": 96.44340999999957,
                    "velocity": 0.2047244094488189,
                    "duration": 0.3204099999999954
                },
                {
                    "name": "A#3",
                    "midi": 58,
                    "time": 96.76381999999957,
                    "velocity": 0.1732283464566929,
                    "duration": 0.3204099999999954
                },
                {
                    "name": "F4",
                    "midi": 65,
                    "time": 96.76381999999957,
                    "velocity": 0.2047244094488189,
                    "duration": 0.3204099999999954
                },
                {
                    "name": "A#3",
                    "midi": 58,
                    "time": 97.40463999999956,
                    "velocity": 0.2125984251968504,
                    "duration": 0.3204099999999954
                },
                {
                    "name": "A#3",
                    "midi": 58,
                    "time": 97.72504999999956,
                    "velocity": 0.2047244094488189,
                    "duration": 0.3204099999999954
                },
                {
                    "name": "A#3",
                    "midi": 58,
                    "time": 98.36586999999955,
                    "velocity": 0.1732283464566929,
                    "duration": 0.3204099999999954
                },
                {
                    "name": "F#4",
                    "midi": 66,
                    "time": 98.36586999999955,
                    "velocity": 0.2125984251968504,
                    "duration": 0.3204099999999954
                },
                {
                    "name": "A#3",
                    "midi": 58,
                    "time": 98.68627999999954,
                    "velocity": 0.1732283464566929,
                    "duration": 0.3204099999999954
                },
                {
                    "name": "F#4",
                    "midi": 66,
                    "time": 98.68627999999954,
                    "velocity": 0.2047244094488189,
                    "duration": 0.3204099999999954
                },
                {
                    "name": "B3",
                    "midi": 59,
                    "time": 99.32709999999953,
                    "velocity": 0.1732283464566929,
                    "duration": 0.3204099999999954
                },
                {
                    "name": "F4",
                    "midi": 65,
                    "time": 99.64750999999953,
                    "velocity": 0.2125984251968504,
                    "duration": 0.3204099999999954
                },
                {
                    "name": "B3",
                    "midi": 59,
                    "time": 99.64750999999953,
                    "velocity": 0.1732283464566929,
                    "duration": 0.3204099999999954
                },
                {
                    "name": "A#3",
                    "midi": 58,
                    "time": 100.28832999999952,
                    "velocity": 0.1889763779527559,
                    "duration": 0.3204099999999954
                },
                {
                    "name": "F#4",
                    "midi": 66,
                    "time": 100.28832999999952,
                    "velocity": 0.2204724409448819,
                    "duration": 0.3204099999999954
                },
                {
                    "name": "A#3",
                    "midi": 58,
                    "time": 100.60873999999951,
                    "velocity": 0.1889763779527559,
                    "duration": 0.3204099999999954
                },
                {
                    "name": "F#4",
                    "midi": 66,
                    "time": 100.60873999999951,
                    "velocity": 0.2125984251968504,
                    "duration": 0.3204099999999954
                },
                {
                    "name": "A#3",
                    "midi": 58,
                    "time": 100.92914999999951,
                    "velocity": 0.18110236220472442,
                    "duration": 0.3204099999999954
                },
                {
                    "name": "F#4",
                    "midi": 66,
                    "time": 100.92914999999951,
                    "velocity": 0.2125984251968504,
                    "duration": 0.3204099999999954
                },
                {
                    "name": "C#4",
                    "midi": 61,
                    "time": 101.2495599999995,
                    "velocity": 0.1732283464566929,
                    "duration": 0.3204099999999954
                },
                {
                    "name": "F#4",
                    "midi": 66,
                    "time": 101.2495599999995,
                    "velocity": 0.2125984251968504,
                    "duration": 0.3204099999999954
                },
                {
                    "name": "C#4",
                    "midi": 61,
                    "time": 101.5699699999995,
                    "velocity": 0.1732283464566929,
                    "duration": 0.3204099999999954
                },
                {
                    "name": "F#4",
                    "midi": 66,
                    "time": 101.5699699999995,
                    "velocity": 0.2125984251968504,
                    "duration": 0.3204099999999954
                },
                {
                    "name": "C#4",
                    "midi": 61,
                    "time": 101.8903799999995,
                    "velocity": 0.1732283464566929,
                    "duration": 0.3204099999999954
                },
                {
                    "name": "F#4",
                    "midi": 66,
                    "time": 101.8903799999995,
                    "velocity": 0.2047244094488189,
                    "duration": 0.3204099999999954
                },
                {
                    "name": "G#3",
                    "midi": 56,
                    "time": 102.21078999999949,
                    "velocity": 0.1732283464566929,
                    "duration": 0.3204099999999954
                },
                {
                    "name": "C#4",
                    "midi": 61,
                    "time": 102.21078999999949,
                    "velocity": 0.2047244094488189,
                    "duration": 0.3204099999999954
                },
                {
                    "name": "F#3",
                    "midi": 54,
                    "time": 102.53119999999949,
                    "velocity": 0.16535433070866143,
                    "duration": 0.3204099999999954
                },
                {
                    "name": "C#4",
                    "midi": 61,
                    "time": 102.53119999999949,
                    "velocity": 0.1968503937007874,
                    "duration": 0.3204099999999954
                },
                {
                    "name": "F#3",
                    "midi": 54,
                    "time": 102.85160999999948,
                    "velocity": 0.1732283464566929,
                    "duration": 0.3204099999999954
                },
                {
                    "name": "C#4",
                    "midi": 61,
                    "time": 102.85160999999948,
                    "velocity": 0.2125984251968504,
                    "duration": 0.3204099999999954
                },
                {
                    "name": "G#3",
                    "midi": 56,
                    "time": 103.17201999999948,
                    "velocity": 0.1732283464566929,
                    "duration": 0.3204099999999954
                },
                {
                    "name": "C#4",
                    "midi": 61,
                    "time": 103.17201999999948,
                    "velocity": 0.2047244094488189,
                    "duration": 0.3204099999999954
                },
                {
                    "name": "F#3",
                    "midi": 54,
                    "time": 103.49242999999947,
                    "velocity": 0.1732283464566929,
                    "duration": 0.3204099999999954
                },
                {
                    "name": "C#4",
                    "midi": 61,
                    "time": 103.49242999999947,
                    "velocity": 0.2047244094488189,
                    "duration": 0.3204099999999954
                },
                {
                    "name": "F#3",
                    "midi": 54,
                    "time": 103.81283999999947,
                    "velocity": 0.1732283464566929,
                    "duration": 0.3204099999999954
                },
                {
                    "name": "C#4",
                    "midi": 61,
                    "time": 103.81283999999947,
                    "velocity": 0.2125984251968504,
                    "duration": 0.3204099999999954
                },
                {
                    "name": "G#3",
                    "midi": 56,
                    "time": 104.13324999999946,
                    "velocity": 0.1732283464566929,
                    "duration": 0.3204099999999954
                },
                {
                    "name": "C#4",
                    "midi": 61,
                    "time": 104.13324999999946,
                    "velocity": 0.2047244094488189,
                    "duration": 0.3204099999999954
                },
                {
                    "name": "A#3",
                    "midi": 58,
                    "time": 104.45365999999946,
                    "velocity": 0.1732283464566929,
                    "duration": 0.3204099999999954
                },
                {
                    "name": "C#4",
                    "midi": 61,
                    "time": 104.45365999999946,
                    "velocity": 0.2047244094488189,
                    "duration": 0.3204099999999954
                },
                {
                    "name": "A#3",
                    "midi": 58,
                    "time": 105.09447999999945,
                    "velocity": 0.1889763779527559,
                    "duration": 0.3204099999999954
                },
                {
                    "name": "F4",
                    "midi": 65,
                    "time": 105.09447999999945,
                    "velocity": 0.2204724409448819,
                    "duration": 0.3204099999999954
                },
                {
                    "name": "A#3",
                    "midi": 58,
                    "time": 105.41488999999945,
                    "velocity": 0.1889763779527559,
                    "duration": 0.3204099999999954
                },
                {
                    "name": "F4",
                    "midi": 65,
                    "time": 105.41488999999945,
                    "velocity": 0.2204724409448819,
                    "duration": 0.3204099999999954
                },
                {
                    "name": "B3",
                    "midi": 59,
                    "time": 106.05570999999944,
                    "velocity": 0.1889763779527559,
                    "duration": 0.3204099999999954
                },
                {
                    "name": "F4",
                    "midi": 65,
                    "time": 106.05570999999944,
                    "velocity": 0.2204724409448819,
                    "duration": 0.3204099999999954
                },
                {
                    "name": "C4",
                    "midi": 60,
                    "time": 106.37611999999943,
                    "velocity": 0.2440944881889764,
                    "duration": 0.3204099999999954
                },
                {
                    "name": "F4",
                    "midi": 65,
                    "time": 106.37611999999943,
                    "velocity": 0.29133858267716534,
                    "duration": 0.3204099999999954
                },
                {
                    "name": "D4",
                    "midi": 62,
                    "time": 107.01693999999942,
                    "velocity": 0.2204724409448819,
                    "duration": 0.3204099999999954
                },
                {
                    "name": "A#4",
                    "midi": 70,
                    "time": 107.33734999999942,
                    "velocity": 0.2204724409448819,
                    "duration": 0.3204099999999954
                },
                {
                    "name": "G4",
                    "midi": 67,
                    "time": 107.33734999999942,
                    "velocity": 0.1889763779527559,
                    "duration": 0.3204099999999954
                },
                {
                    "name": "F4",
                    "midi": 65,
                    "time": 107.97816999999941,
                    "velocity": 0.2125984251968504,
                    "duration": 0.3204099999999954
                },
                {
                    "name": "A4",
                    "midi": 69,
                    "time": 107.97816999999941,
                    "velocity": 0.25196850393700787,
                    "duration": 0.3204099999999954
                },
                {
                    "name": "F4",
                    "midi": 65,
                    "time": 108.2985799999994,
                    "velocity": 0.2440944881889764,
                    "duration": 0.24030750000000012
                },
                {
                    "name": "A4",
                    "midi": 69,
                    "time": 108.2985799999994,
                    "velocity": 0.2440944881889764,
                    "duration": 0.24030750000000012
                },
                {
                    "name": "A#3",
                    "midi": 58,
                    "time": 108.93939999999941,
                    "velocity": 0.1889763779527559,
                    "duration": 0.3204099999999954
                },
                {
                    "name": "F4",
                    "midi": 65,
                    "time": 108.93939999999941,
                    "velocity": 0.2125984251968504,
                    "duration": 0.3204099999999954
                },
                {
                    "name": "A#3",
                    "midi": 58,
                    "time": 109.2598099999994,
                    "velocity": 0.18110236220472442,
                    "duration": 0.3204099999999954
                },
                {
                    "name": "F4",
                    "midi": 65,
                    "time": 109.2598099999994,
                    "velocity": 0.2125984251968504,
                    "duration": 0.3204099999999954
                },
                {
                    "name": "B3",
                    "midi": 59,
                    "time": 109.9006299999994,
                    "velocity": 0.1889763779527559,
                    "duration": 0.3204099999999954
                },
                {
                    "name": "F4",
                    "midi": 65,
                    "time": 109.9006299999994,
                    "velocity": 0.2204724409448819,
                    "duration": 0.3204099999999954
                },
                {
                    "name": "C4",
                    "midi": 60,
                    "time": 110.22103999999939,
                    "velocity": 0.1732283464566929,
                    "duration": 0.3204099999999954
                },
                {
                    "name": "F4",
                    "midi": 65,
                    "time": 110.22103999999939,
                    "velocity": 0.2047244094488189,
                    "duration": 0.3204099999999954
                },
                {
                    "name": "C#4",
                    "midi": 61,
                    "time": 110.86185999999938,
                    "velocity": 0.2677165354330709,
                    "duration": 0.3204099999999954
                },
                {
                    "name": "A#4",
                    "midi": 70,
                    "time": 111.18226999999938,
                    "velocity": 0.2204724409448819,
                    "duration": 0.3204099999999954
                },
                {
                    "name": "F#4",
                    "midi": 66,
                    "time": 111.18226999999938,
                    "velocity": 0.1889763779527559,
                    "duration": 0.3204099999999954
                },
                {
                    "name": "F4",
                    "midi": 65,
                    "time": 111.82308999999937,
                    "velocity": 0.1889763779527559,
                    "duration": 0.3204099999999954
                },
                {
                    "name": "B4",
                    "midi": 71,
                    "time": 111.82308999999937,
                    "velocity": 0.2204724409448819,
                    "duration": 0.3204099999999954
                },
                {
                    "name": "F4",
                    "midi": 65,
                    "time": 112.14349999999936,
                    "velocity": 0.1889763779527559,
                    "duration": 0.3204099999999954
                },
                {
                    "name": "B4",
                    "midi": 71,
                    "time": 112.14349999999936,
                    "velocity": 0.2204724409448819,
                    "duration": 0.31907495833333144
                },
                {
                    "name": "F4",
                    "midi": 65,
                    "time": 112.46390999999936,
                    "velocity": 0.2755905511811024,
                    "duration": 0.3204099999999954
                },
                {
                    "name": "F4",
                    "midi": 65,
                    "time": 112.78431999999935,
                    "velocity": 0.30708661417322836,
                    "duration": 0.3204099999999954
                },
                {
                    "name": "F4",
                    "midi": 65,
                    "time": 113.10472999999935,
                    "velocity": 0.30708661417322836,
                    "duration": 0.3204099999999954
                },
                {
                    "name": "F4",
                    "midi": 65,
                    "time": 113.42513999999935,
                    "velocity": 0.29133858267716534,
                    "duration": 0.3204099999999954
                },
                {
                    "name": "D#4",
                    "midi": 63,
                    "time": 113.74554999999934,
                    "velocity": 0.28346456692913385,
                    "duration": 0.3204099999999954
                },
                {
                    "name": "F4",
                    "midi": 65,
                    "time": 114.06595999999934,
                    "velocity": 0.28346456692913385,
                    "duration": 0.3204099999999954
                },
                {
                    "name": "F4",
                    "midi": 65,
                    "time": 114.38636999999933,
                    "velocity": 0.2755905511811024,
                    "duration": 0.3204099999999954
                },
                {
                    "name": "D#4",
                    "midi": 63,
                    "time": 114.70677999999933,
                    "velocity": 0.2755905511811024,
                    "duration": 0.3204099999999954
                },
                {
                    "name": "F4",
                    "midi": 65,
                    "time": 115.02718999999932,
                    "velocity": 0.25196850393700787,
                    "duration": 0.3204099999999954
                },
                {
                    "name": "F4",
                    "midi": 65,
                    "time": 115.34759999999932,
                    "velocity": 0.25196850393700787,
                    "duration": 0.3204099999999954
                },
                {
                    "name": "D#4",
                    "midi": 63,
                    "time": 115.66800999999931,
                    "velocity": 0.2440944881889764,
                    "duration": 0.3204099999999954
                },
                {
                    "name": "F4",
                    "midi": 65,
                    "time": 115.98841999999931,
                    "velocity": 0.2440944881889764,
                    "duration": 0.3204099999999954
                },
                {
                    "name": "A#3",
                    "midi": 58,
                    "time": 116.6292399999993,
                    "velocity": 0.1968503937007874,
                    "duration": 0.3204099999999954
                },
                {
                    "name": "A#3",
                    "midi": 58,
                    "time": 116.9496499999993,
                    "velocity": 0.1732283464566929,
                    "duration": 0.3204099999999954
                },
                {
                    "name": "A#3",
                    "midi": 58,
                    "time": 117.59046999999929,
                    "velocity": 0.15748031496062992,
                    "duration": 0.3204099999999954
                },
                {
                    "name": "F#4",
                    "midi": 66,
                    "time": 117.59046999999929,
                    "velocity": 0.1968503937007874,
                    "duration": 0.3204099999999954
                },
                {
                    "name": "A#3",
                    "midi": 58,
                    "time": 117.91087999999928,
                    "velocity": 0.15748031496062992,
                    "duration": 0.3204099999999954
                },
                {
                    "name": "F#4",
                    "midi": 66,
                    "time": 117.91087999999928,
                    "velocity": 0.1968503937007874,
                    "duration": 0.3204099999999954
                },
                {
                    "name": "B3",
                    "midi": 59,
                    "time": 118.55169999999927,
                    "velocity": 0.18110236220472442,
                    "duration": 0.3204099999999954
                },
                {
                    "name": "F4",
                    "midi": 65,
                    "time": 118.87210999999927,
                    "velocity": 0.2125984251968504,
                    "duration": 0.3204099999999954
                },
                {
                    "name": "B3",
                    "midi": 59,
                    "time": 118.87210999999927,
                    "velocity": 0.1732283464566929,
                    "duration": 0.3204099999999954
                },
                {
                    "name": "A#3",
                    "midi": 58,
                    "time": 119.51292999999926,
                    "velocity": 0.1889763779527559,
                    "duration": 0.3204099999999954
                },
                {
                    "name": "F#4",
                    "midi": 66,
                    "time": 119.51292999999926,
                    "velocity": 0.2204724409448819,
                    "duration": 0.3204099999999954
                },
                {
                    "name": "A#3",
                    "midi": 58,
                    "time": 119.83333999999925,
                    "velocity": 0.18110236220472442,
                    "duration": 0.3204099999999954
                },
                {
                    "name": "F#4",
                    "midi": 66,
                    "time": 119.83333999999925,
                    "velocity": 0.2125984251968504,
                    "duration": 0.3204099999999954
                },
                {
                    "name": "A#3",
                    "midi": 58,
                    "time": 120.15374999999925,
                    "velocity": 0.18110236220472442,
                    "duration": 0.3204099999999954
                },
                {
                    "name": "F#4",
                    "midi": 66,
                    "time": 120.15374999999925,
                    "velocity": 0.2204724409448819,
                    "duration": 0.3204099999999954
                },
                {
                    "name": "C#4",
                    "midi": 61,
                    "time": 120.47415999999924,
                    "velocity": 0.15748031496062992,
                    "duration": 0.3204099999999954
                },
                {
                    "name": "F#4",
                    "midi": 66,
                    "time": 120.47415999999924,
                    "velocity": 0.1889763779527559,
                    "duration": 0.3204099999999954
                },
                {
                    "name": "C#4",
                    "midi": 61,
                    "time": 120.79456999999924,
                    "velocity": 0.15748031496062992,
                    "duration": 0.3204099999999954
                },
                {
                    "name": "F#4",
                    "midi": 66,
                    "time": 120.79456999999924,
                    "velocity": 0.1889763779527559,
                    "duration": 0.3204099999999954
                },
                {
                    "name": "C#4",
                    "midi": 61,
                    "time": 121.11497999999924,
                    "velocity": 0.15748031496062992,
                    "duration": 0.3204099999999954
                },
                {
                    "name": "F#4",
                    "midi": 66,
                    "time": 121.11497999999924,
                    "velocity": 0.1889763779527559,
                    "duration": 0.3204099999999954
                },
                {
                    "name": "G#3",
                    "midi": 56,
                    "time": 121.43538999999923,
                    "velocity": 0.15748031496062992,
                    "duration": 0.3204099999999954
                },
                {
                    "name": "C#4",
                    "midi": 61,
                    "time": 121.43538999999923,
                    "velocity": 0.1889763779527559,
                    "duration": 0.3204099999999954
                },
                {
                    "name": "F#3",
                    "midi": 54,
                    "time": 121.75579999999923,
                    "velocity": 0.14173228346456693,
                    "duration": 0.3204099999999954
                },
                {
                    "name": "C#4",
                    "midi": 61,
                    "time": 121.75579999999923,
                    "velocity": 0.1889763779527559,
                    "duration": 0.3204099999999954
                },
                {
                    "name": "F#3",
                    "midi": 54,
                    "time": 122.07620999999922,
                    "velocity": 0.14173228346456693,
                    "duration": 0.3204099999999954
                },
                {
                    "name": "C#4",
                    "midi": 61,
                    "time": 122.07620999999922,
                    "velocity": 0.1889763779527559,
                    "duration": 0.3204099999999954
                },
                {
                    "name": "G#3",
                    "midi": 56,
                    "time": 122.39661999999922,
                    "velocity": 0.13385826771653545,
                    "duration": 0.3204099999999954
                },
                {
                    "name": "C#4",
                    "midi": 61,
                    "time": 122.39661999999922,
                    "velocity": 0.1732283464566929,
                    "duration": 0.3204099999999954
                },
                {
                    "name": "F#3",
                    "midi": 54,
                    "time": 122.71702999999921,
                    "velocity": 0.13385826771653545,
                    "duration": 0.3204099999999954
                },
                {
                    "name": "C#4",
                    "midi": 61,
                    "time": 122.71702999999921,
                    "velocity": 0.1732283464566929,
                    "duration": 0.3204099999999954
                },
                {
                    "name": "F#3",
                    "midi": 54,
                    "time": 123.03743999999921,
                    "velocity": 0.11023622047244094,
                    "duration": 0.3204099999999954
                },
                {
                    "name": "C#4",
                    "midi": 61,
                    "time": 123.03743999999921,
                    "velocity": 0.1732283464566929,
                    "duration": 0.3204099999999954
                },
                {
                    "name": "G#3",
                    "midi": 56,
                    "time": 123.3578499999992,
                    "velocity": 0.10236220472440945,
                    "duration": 0.3204099999999954
                },
                {
                    "name": "C#4",
                    "midi": 61,
                    "time": 123.3578499999992,
                    "velocity": 0.1732283464566929,
                    "duration": 0.3204099999999954
                },
                {
                    "name": "A#3",
                    "midi": 58,
                    "time": 123.6782599999992,
                    "velocity": 0.10236220472440945,
                    "duration": 0.3204099999999954
                },
                {
                    "name": "C#4",
                    "midi": 61,
                    "time": 123.6782599999992,
                    "velocity": 0.15748031496062992,
                    "duration": 0.3204099999999954
                },
                {
                    "name": "B3",
                    "midi": 59,
                    "time": 124.31907999999919,
                    "velocity": 0.2047244094488189,
                    "duration": 0.3204099999999954
                },
                {
                    "name": "B3",
                    "midi": 59,
                    "time": 124.63948999999918,
                    "velocity": 0.2047244094488189,
                    "duration": 0.3204099999999954
                },
                {
                    "name": "B3",
                    "midi": 59,
                    "time": 125.28030999999918,
                    "velocity": 0.1732283464566929,
                    "duration": 0.3204099999999954
                },
                {
                    "name": "G#4",
                    "midi": 68,
                    "time": 125.28030999999918,
                    "velocity": 0.2125984251968504,
                    "duration": 0.3204099999999954
                },
                {
                    "name": "B3",
                    "midi": 59,
                    "time": 125.60071999999917,
                    "velocity": 0.16535433070866143,
                    "duration": 0.3204099999999954
                },
                {
                    "name": "G#4",
                    "midi": 68,
                    "time": 125.60071999999917,
                    "velocity": 0.1968503937007874,
                    "duration": 0.3204099999999954
                },
                {
                    "name": "C#4",
                    "midi": 61,
                    "time": 126.24153999999916,
                    "velocity": 0.2204724409448819,
                    "duration": 0.3204099999999954
                },
                {
                    "name": "G4",
                    "midi": 67,
                    "time": 126.56194999999916,
                    "velocity": 0.2125984251968504,
                    "duration": 0.3204099999999954
                },
                {
                    "name": "C#4",
                    "midi": 61,
                    "time": 126.56194999999916,
                    "velocity": 0.1732283464566929,
                    "duration": 0.3204099999999954
                },
                {
                    "name": "B3",
                    "midi": 59,
                    "time": 127.20276999999915,
                    "velocity": 0.1732283464566929,
                    "duration": 0.3204099999999954
                },
                {
                    "name": "G#4",
                    "midi": 68,
                    "time": 127.20276999999915,
                    "velocity": 0.2047244094488189,
                    "duration": 0.3204099999999954
                },
                {
                    "name": "B3",
                    "midi": 59,
                    "time": 127.52317999999914,
                    "velocity": 0.1732283464566929,
                    "duration": 0.3204099999999954
                },
                {
                    "name": "G#4",
                    "midi": 68,
                    "time": 127.52317999999914,
                    "velocity": 0.2047244094488189,
                    "duration": 0.3204099999999954
                },
                {
                    "name": "B3",
                    "midi": 59,
                    "time": 127.84358999999914,
                    "velocity": 0.15748031496062992,
                    "duration": 0.3204099999999954
                },
                {
                    "name": "G#4",
                    "midi": 68,
                    "time": 127.84358999999914,
                    "velocity": 0.2204724409448819,
                    "duration": 0.3204099999999954
                },
                {
                    "name": "D#4",
                    "midi": 63,
                    "time": 128.16399999999913,
                    "velocity": 0.1889763779527559,
                    "duration": 0.32041000000000963
                },
                {
                    "name": "G#4",
                    "midi": 68,
                    "time": 128.16399999999913,
                    "velocity": 0.2283464566929134,
                    "duration": 0.32041000000000963
                },
                {
                    "name": "D#4",
                    "midi": 63,
                    "time": 128.48440999999914,
                    "velocity": 0.1889763779527559,
                    "duration": 0.32041000000000963
                },
                {
                    "name": "G#4",
                    "midi": 68,
                    "time": 128.48440999999914,
                    "velocity": 0.2125984251968504,
                    "duration": 0.32041000000000963
                },
                {
                    "name": "D#4",
                    "midi": 63,
                    "time": 128.80481999999915,
                    "velocity": 0.1732283464566929,
                    "duration": 0.32041000000000963
                },
                {
                    "name": "G#4",
                    "midi": 68,
                    "time": 128.80481999999915,
                    "velocity": 0.2125984251968504,
                    "duration": 0.32041000000000963
                },
                {
                    "name": "A#3",
                    "midi": 58,
                    "time": 129.12522999999916,
                    "velocity": 0.16535433070866143,
                    "duration": 0.32041000000000963
                },
                {
                    "name": "D#4",
                    "midi": 63,
                    "time": 129.12522999999916,
                    "velocity": 0.2047244094488189,
                    "duration": 0.32041000000000963
                },
                {
                    "name": "G#3",
                    "midi": 56,
                    "time": 129.44563999999917,
                    "velocity": 0.15748031496062992,
                    "duration": 0.32041000000000963
                },
                {
                    "name": "D#4",
                    "midi": 63,
                    "time": 129.44563999999917,
                    "velocity": 0.1968503937007874,
                    "duration": 0.32041000000000963
                },
                {
                    "name": "G#3",
                    "midi": 56,
                    "time": 129.76604999999918,
                    "velocity": 0.15748031496062992,
                    "duration": 0.32041000000000963
                },
                {
                    "name": "D#4",
                    "midi": 63,
                    "time": 129.76604999999918,
                    "velocity": 0.1968503937007874,
                    "duration": 0.32041000000000963
                },
                {
                    "name": "A#3",
                    "midi": 58,
                    "time": 130.0864599999992,
                    "velocity": 0.14173228346456693,
                    "duration": 0.32041000000000963
                },
                {
                    "name": "D#4",
                    "midi": 63,
                    "time": 130.0864599999992,
                    "velocity": 0.1889763779527559,
                    "duration": 0.32041000000000963
                },
                {
                    "name": "G#3",
                    "midi": 56,
                    "time": 130.4068699999992,
                    "velocity": 0.14173228346456693,
                    "duration": 0.32041000000000963
                },
                {
                    "name": "D#4",
                    "midi": 63,
                    "time": 130.4068699999992,
                    "velocity": 0.1889763779527559,
                    "duration": 0.32041000000000963
                },
                {
                    "name": "G#3",
                    "midi": 56,
                    "time": 130.7272799999992,
                    "velocity": 0.14173228346456693,
                    "duration": 0.32041000000000963
                },
                {
                    "name": "D#4",
                    "midi": 63,
                    "time": 130.7272799999992,
                    "velocity": 0.1889763779527559,
                    "duration": 0.32041000000000963
                },
                {
                    "name": "A#3",
                    "midi": 58,
                    "time": 131.04768999999922,
                    "velocity": 0.14173228346456693,
                    "duration": 0.32041000000000963
                },
                {
                    "name": "D#4",
                    "midi": 63,
                    "time": 131.04768999999922,
                    "velocity": 0.18110236220472442,
                    "duration": 0.32041000000000963
                },
                {
                    "name": "B3",
                    "midi": 59,
                    "time": 131.36809999999923,
                    "velocity": 0.14173228346456693,
                    "duration": 0.32041000000000963
                },
                {
                    "name": "F#3",
                    "midi": 54,
                    "time": 131.36809999999923,
                    "velocity": 0.14173228346456693,
                    "duration": 0.32041000000000963
                },
                {
                    "name": "D#4",
                    "midi": 63,
                    "time": 131.36809999999923,
                    "velocity": 0.18110236220472442,
                    "duration": 0.32041000000000963
                },
                {
                    "name": "F3",
                    "midi": 53,
                    "time": 131.68850999999924,
                    "velocity": 0.1889763779527559,
                    "duration": 0.32041000000000963
                },
                {
                    "name": "B3",
                    "midi": 59,
                    "time": 131.68850999999924,
                    "velocity": 0.1889763779527559,
                    "duration": 0.32041000000000963
                },
                {
                    "name": "C#4",
                    "midi": 61,
                    "time": 131.68850999999924,
                    "velocity": 0.2204724409448819,
                    "duration": 0.32041000000000963
                },
                {
                    "name": "B3",
                    "midi": 59,
                    "time": 132.00891999999925,
                    "velocity": 0.1732283464566929,
                    "duration": 0.32041000000000963
                },
                {
                    "name": "F4",
                    "midi": 65,
                    "time": 132.00891999999925,
                    "velocity": 0.2125984251968504,
                    "duration": 0.32041000000000963
                },
                {
                    "name": "B3",
                    "midi": 59,
                    "time": 132.32932999999926,
                    "velocity": 0.1732283464566929,
                    "duration": 0.32041000000000963
                },
                {
                    "name": "F4",
                    "midi": 65,
                    "time": 132.32932999999926,
                    "velocity": 0.2125984251968504,
                    "duration": 0.32041000000000963
                },
                {
                    "name": "F#3",
                    "midi": 54,
                    "time": 132.64973999999927,
                    "velocity": 0.1968503937007874,
                    "duration": 0.32041000000000963
                },
                {
                    "name": "B3",
                    "midi": 59,
                    "time": 132.64973999999927,
                    "velocity": 0.23622047244094488,
                    "duration": 0.32041000000000963
                },
                {
                    "name": "F#3",
                    "midi": 54,
                    "time": 132.97014999999928,
                    "velocity": 0.16535433070866143,
                    "duration": 0.32041000000000963
                },
                {
                    "name": "B3",
                    "midi": 59,
                    "time": 132.97014999999928,
                    "velocity": 0.1968503937007874,
                    "duration": 0.32041000000000963
                },
                {
                    "name": "F#3",
                    "midi": 54,
                    "time": 133.2905599999993,
                    "velocity": 0.1732283464566929,
                    "duration": 0.32041000000000963
                },
                {
                    "name": "B3",
                    "midi": 59,
                    "time": 133.2905599999993,
                    "velocity": 0.2047244094488189,
                    "duration": 0.32041000000000963
                },
                {
                    "name": "G#3",
                    "midi": 56,
                    "time": 133.6109699999993,
                    "velocity": 0.2125984251968504,
                    "duration": 0.32041000000000963
                },
                {
                    "name": "B3",
                    "midi": 59,
                    "time": 133.6109699999993,
                    "velocity": 0.2125984251968504,
                    "duration": 0.32041000000000963
                },
                {
                    "name": "C#4",
                    "midi": 61,
                    "time": 133.6109699999993,
                    "velocity": 0.28346456692913385,
                    "duration": 0.32041000000000963
                },
                {
                    "name": "B3",
                    "midi": 59,
                    "time": 133.9313799999993,
                    "velocity": 0.18110236220472442,
                    "duration": 0.32041000000000963
                },
                {
                    "name": "F4",
                    "midi": 65,
                    "time": 133.9313799999993,
                    "velocity": 0.2125984251968504,
                    "duration": 0.32041000000000963
                },
                {
                    "name": "B3",
                    "midi": 59,
                    "time": 134.25178999999932,
                    "velocity": 0.18110236220472442,
                    "duration": 0.32041000000000963
                },
                {
                    "name": "F4",
                    "midi": 65,
                    "time": 134.25178999999932,
                    "velocity": 0.2125984251968504,
                    "duration": 0.32041000000000963
                },
                {
                    "name": "F#3",
                    "midi": 54,
                    "time": 134.57219999999933,
                    "velocity": 0.1968503937007874,
                    "duration": 0.32041000000000963
                },
                {
                    "name": "B3",
                    "midi": 59,
                    "time": 134.57219999999933,
                    "velocity": 0.23622047244094488,
                    "duration": 0.32041000000000963
                },
                {
                    "name": "F#3",
                    "midi": 54,
                    "time": 134.89260999999934,
                    "velocity": 0.18110236220472442,
                    "duration": 0.32041000000000963
                },
                {
                    "name": "B3",
                    "midi": 59,
                    "time": 134.89260999999934,
                    "velocity": 0.2125984251968504,
                    "duration": 0.32041000000000963
                },
                {
                    "name": "F#3",
                    "midi": 54,
                    "time": 135.21301999999935,
                    "velocity": 0.18110236220472442,
                    "duration": 0.32041000000000963
                },
                {
                    "name": "B3",
                    "midi": 59,
                    "time": 135.21301999999935,
                    "velocity": 0.2125984251968504,
                    "duration": 0.32041000000000963
                },
                {
                    "name": "G#3",
                    "midi": 56,
                    "time": 135.53342999999936,
                    "velocity": 0.2125984251968504,
                    "duration": 0.32041000000000963
                },
                {
                    "name": "B3",
                    "midi": 59,
                    "time": 135.53342999999936,
                    "velocity": 0.2125984251968504,
                    "duration": 0.32041000000000963
                },
                {
                    "name": "C#4",
                    "midi": 61,
                    "time": 135.53342999999936,
                    "velocity": 0.2440944881889764,
                    "duration": 0.32041000000000963
                },
                {
                    "name": "B3",
                    "midi": 59,
                    "time": 135.85383999999937,
                    "velocity": 0.2204724409448819,
                    "duration": 0.32041000000000963
                },
                {
                    "name": "F4",
                    "midi": 65,
                    "time": 135.85383999999937,
                    "velocity": 0.2677165354330709,
                    "duration": 0.32041000000000963
                },
                {
                    "name": "B3",
                    "midi": 59,
                    "time": 136.17424999999938,
                    "velocity": 0.23622047244094488,
                    "duration": 0.32041000000000963
                },
                {
                    "name": "F4",
                    "midi": 65,
                    "time": 136.17424999999938,
                    "velocity": 0.28346456692913385,
                    "duration": 0.32041000000000963
                },
                {
                    "name": "B3",
                    "midi": 59,
                    "time": 136.49465999999939,
                    "velocity": 0.2440944881889764,
                    "duration": 0.32041000000000963
                },
                {
                    "name": "F4",
                    "midi": 65,
                    "time": 136.49465999999939,
                    "velocity": 0.29133858267716534,
                    "duration": 0.32041000000000963
                },
                {
                    "name": "C4",
                    "midi": 60,
                    "time": 136.8150699999994,
                    "velocity": 0.25196850393700787,
                    "duration": 0.32041000000000963
                },
                {
                    "name": "F4",
                    "midi": 65,
                    "time": 136.8150699999994,
                    "velocity": 0.30708661417322836,
                    "duration": 0.32041000000000963
                },
                {
                    "name": "C#4",
                    "midi": 61,
                    "time": 137.1354799999994,
                    "velocity": 0.28346456692913385,
                    "duration": 0.32041000000000963
                },
                {
                    "name": "F4",
                    "midi": 65,
                    "time": 137.1354799999994,
                    "velocity": 0.33858267716535434,
                    "duration": 0.32041000000000963
                },
                {
                    "name": "D4",
                    "midi": 62,
                    "time": 137.4558899999994,
                    "velocity": 0.28346456692913385,
                    "duration": 0.32041000000000963
                },
                {
                    "name": "F4",
                    "midi": 65,
                    "time": 137.4558899999994,
                    "velocity": 0.3543307086614173,
                    "duration": 0.32041000000000963
                },
                {
                    "name": "D#4",
                    "midi": 63,
                    "time": 137.77629999999942,
                    "velocity": 0.2677165354330709,
                    "duration": 0.32041000000000963
                },
                {
                    "name": "F4",
                    "midi": 65,
                    "time": 137.77629999999942,
                    "velocity": 0.33070866141732286,
                    "duration": 0.31907495833334565
                },
                {
                    "name": "B3",
                    "midi": 59,
                    "time": 138.09670999999943,
                    "velocity": 0.1889763779527559,
                    "duration": 0.32041000000000963
                },
                {
                    "name": "C#4",
                    "midi": 61,
                    "time": 138.09670999999943,
                    "velocity": 0.2204724409448819,
                    "duration": 0.32041000000000963
                },
                {
                    "name": "A#3",
                    "midi": 58,
                    "time": 138.41711999999944,
                    "velocity": 0.2047244094488189,
                    "duration": 0.32041000000000963
                },
                {
                    "name": "C#4",
                    "midi": 61,
                    "time": 138.41711999999944,
                    "velocity": 0.23622047244094488,
                    "duration": 0.32041000000000963
                },
                {
                    "name": "G#3",
                    "midi": 56,
                    "time": 139.37834999999944,
                    "velocity": 0.23622047244094488,
                    "duration": 0.9612300000000005
                },
                {
                    "name": "C4",
                    "midi": 60,
                    "time": 139.37834999999944,
                    "velocity": 0.23622047244094488,
                    "duration": 0.9612300000000005
                },
                {
                    "name": "F#4",
                    "midi": 66,
                    "time": 139.37834999999944,
                    "velocity": 0.28346456692913385,
                    "duration": 0.9612300000000005
                },
                {
                    "name": "G#4",
                    "midi": 68,
                    "time": 139.37834999999944,
                    "velocity": 0.28346456692913385,
                    "duration": 0.9612300000000005
                },
                {
                    "name": "G#3",
                    "midi": 56,
                    "time": 140.33957999999944,
                    "velocity": 0.23622047244094488,
                    "duration": 0.32041000000000963
                },
                {
                    "name": "C#4",
                    "midi": 61,
                    "time": 140.33957999999944,
                    "velocity": 0.23622047244094488,
                    "duration": 0.9612300000000005
                },
                {
                    "name": "F4",
                    "midi": 65,
                    "time": 140.33957999999944,
                    "velocity": 0.23622047244094488,
                    "duration": 0.9612300000000005
                },
                {
                    "name": "G#4",
                    "midi": 68,
                    "time": 140.33957999999944,
                    "velocity": 0.28346456692913385,
                    "duration": 0.9612300000000005
                },
                {
                    "name": "C4",
                    "midi": 60,
                    "time": 141.30080999999944,
                    "velocity": 0.2440944881889764,
                    "duration": 0.6408199999999908
                },
                {
                    "name": "F#4",
                    "midi": 66,
                    "time": 141.30080999999944,
                    "velocity": 0.29133858267716534,
                    "duration": 0.961229999999972
                },
                {
                    "name": "G#4",
                    "midi": 68,
                    "time": 141.30080999999944,
                    "velocity": 0.29133858267716534,
                    "duration": 0.961229999999972
                },
                {
                    "name": "C#4",
                    "midi": 61,
                    "time": 141.94162999999944,
                    "velocity": 0.33070866141732286,
                    "duration": 0.1602049999999906
                },
                {
                    "name": "D#4",
                    "midi": 63,
                    "time": 142.10183499999943,
                    "velocity": 0.29133858267716534,
                    "duration": 0.1602049999999906
                },
                {
                    "name": "E4",
                    "midi": 64,
                    "time": 142.26203999999942,
                    "velocity": 0.3543307086614173,
                    "duration": 0.32041000000000963
                },
                {
                    "name": "G#4",
                    "midi": 68,
                    "time": 142.26203999999942,
                    "velocity": 0.3543307086614173,
                    "duration": 0.8010250000000099
                },
                {
                    "name": "F4",
                    "midi": 65,
                    "time": 142.58244999999943,
                    "velocity": 0.30708661417322836,
                    "duration": 0.6408199999999908
                },
                {
                    "name": "F5",
                    "midi": 77,
                    "time": 143.06306499999943,
                    "velocity": 0.4094488188976378,
                    "duration": 0.1602049999999906
                },
                {
                    "name": "D#4",
                    "midi": 63,
                    "time": 143.22326999999942,
                    "velocity": 0.30708661417322836,
                    "duration": 0.9612300000000005
                },
                {
                    "name": "A4",
                    "midi": 69,
                    "time": 143.22326999999942,
                    "velocity": 0.30708661417322836,
                    "duration": 0.6408199999999908
                },
                {
                    "name": "F5",
                    "midi": 77,
                    "time": 143.22326999999942,
                    "velocity": 0.3858267716535433,
                    "duration": 0.6408199999999908
                },
                {
                    "name": "A4",
                    "midi": 69,
                    "time": 143.8640899999994,
                    "velocity": 0.30708661417322836,
                    "duration": 0.32041000000000963
                },
                {
                    "name": "A#4",
                    "midi": 70,
                    "time": 144.18449999999942,
                    "velocity": 0.36220472440944884,
                    "duration": 0.6408199999999908
                },
                {
                    "name": "C#4",
                    "midi": 61,
                    "time": 144.18449999999942,
                    "velocity": 0.30708661417322836,
                    "duration": 0.9612300000000005
                },
                {
                    "name": "F4",
                    "midi": 65,
                    "time": 144.8253199999994,
                    "velocity": 0.29133858267716534,
                    "duration": 0.32041000000000963
                },
                {
                    "name": "C#5",
                    "midi": 73,
                    "time": 144.8253199999994,
                    "velocity": 0.3543307086614173,
                    "duration": 0.32041000000000963
                },
                {
                    "name": "C#4",
                    "midi": 61,
                    "time": 145.14572999999942,
                    "velocity": 0.2677165354330709,
                    "duration": 0.9612300000000005
                },
                {
                    "name": "D#4",
                    "midi": 63,
                    "time": 145.14572999999942,
                    "velocity": 0.30708661417322836,
                    "duration": 0.9612300000000005
                },
                {
                    "name": "G4",
                    "midi": 67,
                    "time": 145.14572999999942,
                    "velocity": 0.3700787401574803,
                    "duration": 0.9612300000000005
                },
                {
                    "name": "C4",
                    "midi": 60,
                    "time": 146.10695999999942,
                    "velocity": 0.30708661417322836,
                    "duration": 0.6408199999999908
                },
                {
                    "name": "D#4",
                    "midi": 63,
                    "time": 146.10695999999942,
                    "velocity": 0.30708661417322836,
                    "duration": 0.6408199999999908
                },
                {
                    "name": "G#4",
                    "midi": 68,
                    "time": 146.10695999999942,
                    "velocity": 0.3700787401574803,
                    "duration": 0.6408199999999908
                },
                {
                    "name": "C#4",
                    "midi": 61,
                    "time": 146.7477799999994,
                    "velocity": 0.29133858267716534,
                    "duration": 0.32041000000000963
                },
                {
                    "name": "F4",
                    "midi": 65,
                    "time": 146.7477799999994,
                    "velocity": 0.29133858267716534,
                    "duration": 0.32041000000000963
                },
                {
                    "name": "G#4",
                    "midi": 68,
                    "time": 146.7477799999994,
                    "velocity": 0.3543307086614173,
                    "duration": 0.32041000000000963
                },
                {
                    "name": "C4",
                    "midi": 60,
                    "time": 147.06818999999942,
                    "velocity": 0.23622047244094488,
                    "duration": 0.9612300000000005
                },
                {
                    "name": "F#4",
                    "midi": 66,
                    "time": 147.06818999999942,
                    "velocity": 0.28346456692913385,
                    "duration": 0.9612300000000005
                },
                {
                    "name": "G#4",
                    "midi": 68,
                    "time": 147.06818999999942,
                    "velocity": 0.28346456692913385,
                    "duration": 0.9612300000000005
                },
                {
                    "name": "C#4",
                    "midi": 61,
                    "time": 148.02941999999942,
                    "velocity": 0.30708661417322836,
                    "duration": 0.6408199999999908
                },
                {
                    "name": "F4",
                    "midi": 65,
                    "time": 148.02941999999942,
                    "velocity": 0.33070866141732286,
                    "duration": 0.9612300000000005
                },
                {
                    "name": "G#4",
                    "midi": 68,
                    "time": 148.02941999999942,
                    "velocity": 0.36220472440944884,
                    "duration": 0.9612300000000005
                },
                {
                    "name": "G#3",
                    "midi": 56,
                    "time": 148.6702399999994,
                    "velocity": 0.2755905511811024,
                    "duration": 0.32041000000000963
                },
                {
                    "name": "C4",
                    "midi": 60,
                    "time": 148.99064999999942,
                    "velocity": 0.3543307086614173,
                    "duration": 0.32041000000000963
                },
                {
                    "name": "F#4",
                    "midi": 66,
                    "time": 148.99064999999942,
                    "velocity": 0.3543307086614173,
                    "duration": 0.961229999999972
                },
                {
                    "name": "G#4",
                    "midi": 68,
                    "time": 148.99064999999942,
                    "velocity": 0.3543307086614173,
                    "duration": 0.961229999999972
                },
                {
                    "name": "A#3",
                    "midi": 58,
                    "time": 149.31105999999943,
                    "velocity": 0.2992125984251969,
                    "duration": 0.1602049999999906
                },
                {
                    "name": "G#3",
                    "midi": 56,
                    "time": 149.47126499999942,
                    "velocity": 0.2677165354330709,
                    "duration": 0.1602049999999906
                },
                {
                    "name": "C#4",
                    "midi": 61,
                    "time": 149.6314699999994,
                    "velocity": 0.33070866141732286,
                    "duration": 0.1602049999999906
                },
                {
                    "name": "D#4",
                    "midi": 63,
                    "time": 149.7916749999994,
                    "velocity": 0.29133858267716534,
                    "duration": 0.1602049999999906
                },
                {
                    "name": "F4",
                    "midi": 65,
                    "time": 149.9518799999994,
                    "velocity": 0.30708661417322836,
                    "duration": 0.6408199999999908
                },
                {
                    "name": "G#4",
                    "midi": 68,
                    "time": 149.9518799999994,
                    "velocity": 0.3700787401574803,
                    "duration": 0.9612300000000005
                },
                {
                    "name": "E4",
                    "midi": 64,
                    "time": 150.59269999999938,
                    "velocity": 0.33070866141732286,
                    "duration": 0.32041000000000963
                },
                {
                    "name": "G#4",
                    "midi": 68,
                    "time": 150.9131099999994,
                    "velocity": 0.3543307086614173,
                    "duration": 0.6408199999999908
                },
                {
                    "name": "D#4",
                    "midi": 63,
                    "time": 150.9131099999994,
                    "velocity": 0.2992125984251969,
                    "duration": 0.9612300000000005
                },
                {
                    "name": "F#4",
                    "midi": 66,
                    "time": 151.55392999999938,
                    "velocity": 0.2992125984251969,
                    "duration": 0.32041000000000963
                },
                {
                    "name": "D4",
                    "midi": 62,
                    "time": 151.8743399999994,
                    "velocity": 0.29133858267716534,
                    "duration": 0.32041000000000963
                },
                {
                    "name": "F#4",
                    "midi": 66,
                    "time": 151.8743399999994,
                    "velocity": 0.3543307086614173,
                    "duration": 0.6408200000000193
                },
                {
                    "name": "C#4",
                    "midi": 61,
                    "time": 152.1947499999994,
                    "velocity": 0.30708661417322836,
                    "duration": 0.6408200000000193
                },
                {
                    "name": "D#4",
                    "midi": 63,
                    "time": 152.5151599999994,
                    "velocity": 0.30708661417322836,
                    "duration": 0.32041000000000963
                },
                {
                    "name": "C#5",
                    "midi": 73,
                    "time": 152.5151599999994,
                    "velocity": 0.3700787401574803,
                    "duration": 0.32041000000000963
                },
                {
                    "name": "C#4",
                    "midi": 61,
                    "time": 152.83556999999942,
                    "velocity": 0.3228346456692913,
                    "duration": 0.9592274375000045
                },
                {
                    "name": "F4",
                    "midi": 65,
                    "time": 152.83556999999942,
                    "velocity": 0.3228346456692913,
                    "duration": 0.9612300000000005
                },
                {
                    "name": "C#5",
                    "midi": 73,
                    "time": 152.83556999999942,
                    "velocity": 0.3779527559055118,
                    "duration": 0.9612300000000005
                },
                {
                    "name": "F4",
                    "midi": 65,
                    "time": 153.79679999999942,
                    "velocity": 0.2440944881889764,
                    "duration": 0.9612300000000005
                },
                {
                    "name": "G#4",
                    "midi": 68,
                    "time": 153.79679999999942,
                    "velocity": 0.29133858267716534,
                    "duration": 0.6408199999999908
                },
                {
                    "name": "A4",
                    "midi": 69,
                    "time": 154.4376199999994,
                    "velocity": 0.3543307086614173,
                    "duration": 0.32041000000000963
                },
                {
                    "name": "A#3",
                    "midi": 58,
                    "time": 155.07843999999943,
                    "velocity": 0.1968503937007874,
                    "duration": 0.32041000000000963
                },
                {
                    "name": "A#3",
                    "midi": 58,
                    "time": 155.39884999999944,
                    "velocity": 0.1732283464566929,
                    "duration": 0.32041000000000963
                },
                {
                    "name": "A#3",
                    "midi": 58,
                    "time": 156.03966999999946,
                    "velocity": 0.15748031496062992,
                    "duration": 0.32041000000000963
                },
                {
                    "name": "F#4",
                    "midi": 66,
                    "time": 156.03966999999946,
                    "velocity": 0.1968503937007874,
                    "duration": 0.32041000000000963
                },
                {
                    "name": "A#3",
                    "midi": 58,
                    "time": 156.36007999999947,
                    "velocity": 0.15748031496062992,
                    "duration": 0.32041000000000963
                },
                {
                    "name": "F#4",
                    "midi": 66,
                    "time": 156.36007999999947,
                    "velocity": 0.1968503937007874,
                    "duration": 0.32041000000000963
                },
                {
                    "name": "B3",
                    "midi": 59,
                    "time": 157.0008999999995,
                    "velocity": 0.18110236220472442,
                    "duration": 0.32041000000000963
                },
                {
                    "name": "F4",
                    "midi": 65,
                    "time": 157.3213099999995,
                    "velocity": 0.2125984251968504,
                    "duration": 0.32041000000000963
                },
                {
                    "name": "B3",
                    "midi": 59,
                    "time": 157.3213099999995,
                    "velocity": 0.1732283464566929,
                    "duration": 0.32041000000000963
                },
                {
                    "name": "A#3",
                    "midi": 58,
                    "time": 157.96212999999952,
                    "velocity": 0.1889763779527559,
                    "duration": 0.32041000000000963
                },
                {
                    "name": "F#4",
                    "midi": 66,
                    "time": 157.96212999999952,
                    "velocity": 0.2204724409448819,
                    "duration": 0.32041000000000963
                },
                {
                    "name": "A#3",
                    "midi": 58,
                    "time": 158.28253999999953,
                    "velocity": 0.18110236220472442,
                    "duration": 0.32041000000000963
                },
                {
                    "name": "F#4",
                    "midi": 66,
                    "time": 158.28253999999953,
                    "velocity": 0.2125984251968504,
                    "duration": 0.32041000000000963
                },
                {
                    "name": "A#3",
                    "midi": 58,
                    "time": 158.60294999999954,
                    "velocity": 0.18110236220472442,
                    "duration": 0.32041000000000963
                },
                {
                    "name": "F#4",
                    "midi": 66,
                    "time": 158.60294999999954,
                    "velocity": 0.2125984251968504,
                    "duration": 0.32041000000000963
                },
                {
                    "name": "C#4",
                    "midi": 61,
                    "time": 158.92335999999955,
                    "velocity": 0.15748031496062992,
                    "duration": 0.32041000000000963
                },
                {
                    "name": "F#4",
                    "midi": 66,
                    "time": 158.92335999999955,
                    "velocity": 0.1889763779527559,
                    "duration": 0.32041000000000963
                },
                {
                    "name": "C#4",
                    "midi": 61,
                    "time": 159.24376999999956,
                    "velocity": 0.15748031496062992,
                    "duration": 0.32041000000000963
                },
                {
                    "name": "F#4",
                    "midi": 66,
                    "time": 159.24376999999956,
                    "velocity": 0.1889763779527559,
                    "duration": 0.32041000000000963
                },
                {
                    "name": "C#4",
                    "midi": 61,
                    "time": 159.56417999999957,
                    "velocity": 0.15748031496062992,
                    "duration": 0.32041000000000963
                },
                {
                    "name": "F#4",
                    "midi": 66,
                    "time": 159.56417999999957,
                    "velocity": 0.1889763779527559,
                    "duration": 0.32041000000000963
                },
                {
                    "name": "G#3",
                    "midi": 56,
                    "time": 159.88458999999958,
                    "velocity": 0.15748031496062992,
                    "duration": 0.32041000000000963
                },
                {
                    "name": "C#4",
                    "midi": 61,
                    "time": 159.88458999999958,
                    "velocity": 0.1889763779527559,
                    "duration": 0.32041000000000963
                },
                {
                    "name": "F#3",
                    "midi": 54,
                    "time": 160.2049999999996,
                    "velocity": 0.15748031496062992,
                    "duration": 0.32041000000000963
                },
                {
                    "name": "C#4",
                    "midi": 61,
                    "time": 160.2049999999996,
                    "velocity": 0.1889763779527559,
                    "duration": 0.32041000000000963
                },
                {
                    "name": "F#3",
                    "midi": 54,
                    "time": 160.5254099999996,
                    "velocity": 0.15748031496062992,
                    "duration": 0.32041000000000963
                },
                {
                    "name": "C#4",
                    "midi": 61,
                    "time": 160.5254099999996,
                    "velocity": 0.1889763779527559,
                    "duration": 0.32041000000000963
                },
                {
                    "name": "G#3",
                    "midi": 56,
                    "time": 160.8458199999996,
                    "velocity": 0.14173228346456693,
                    "duration": 0.32041000000000963
                },
                {
                    "name": "C#4",
                    "midi": 61,
                    "time": 160.8458199999996,
                    "velocity": 0.18110236220472442,
                    "duration": 0.32041000000000963
                },
                {
                    "name": "F#3",
                    "midi": 54,
                    "time": 161.16622999999962,
                    "velocity": 0.14173228346456693,
                    "duration": 0.32041000000000963
                },
                {
                    "name": "C#4",
                    "midi": 61,
                    "time": 161.16622999999962,
                    "velocity": 0.18110236220472442,
                    "duration": 0.32041000000000963
                },
                {
                    "name": "F#3",
                    "midi": 54,
                    "time": 161.48663999999962,
                    "velocity": 0.11811023622047244,
                    "duration": 0.32041000000000963
                },
                {
                    "name": "C#4",
                    "midi": 61,
                    "time": 161.48663999999962,
                    "velocity": 0.18110236220472442,
                    "duration": 0.32041000000000963
                },
                {
                    "name": "G#3",
                    "midi": 56,
                    "time": 161.80704999999963,
                    "velocity": 0.11811023622047244,
                    "duration": 0.32041000000000963
                },
                {
                    "name": "C#4",
                    "midi": 61,
                    "time": 161.80704999999963,
                    "velocity": 0.1889763779527559,
                    "duration": 0.32041000000000963
                },
                {
                    "name": "F#3",
                    "midi": 54,
                    "time": 162.12745999999964,
                    "velocity": 0.11811023622047244,
                    "duration": 0.32041000000000963
                },
                {
                    "name": "C#4",
                    "midi": 61,
                    "time": 162.12745999999964,
                    "velocity": 0.18110236220472442,
                    "duration": 0.32041000000000963
                },
                {
                    "name": "B3",
                    "midi": 59,
                    "time": 162.76827999999966,
                    "velocity": 0.2047244094488189,
                    "duration": 0.32041000000000963
                },
                {
                    "name": "B3",
                    "midi": 59,
                    "time": 163.08868999999967,
                    "velocity": 0.2047244094488189,
                    "duration": 0.32041000000000963
                },
                {
                    "name": "B3",
                    "midi": 59,
                    "time": 163.7295099999997,
                    "velocity": 0.1968503937007874,
                    "duration": 0.32041000000000963
                },
                {
                    "name": "G#4",
                    "midi": 68,
                    "time": 163.7295099999997,
                    "velocity": 0.23622047244094488,
                    "duration": 0.32041000000000963
                },
                {
                    "name": "B3",
                    "midi": 59,
                    "time": 164.0499199999997,
                    "velocity": 0.16535433070866143,
                    "duration": 0.32041000000000963
                },
                {
                    "name": "G#4",
                    "midi": 68,
                    "time": 164.0499199999997,
                    "velocity": 0.1968503937007874,
                    "duration": 0.32041000000000963
                },
                {
                    "name": "C#4",
                    "midi": 61,
                    "time": 164.69073999999972,
                    "velocity": 0.2204724409448819,
                    "duration": 0.32041000000000963
                },
                {
                    "name": "G4",
                    "midi": 67,
                    "time": 165.01114999999973,
                    "velocity": 0.2125984251968504,
                    "duration": 0.32041000000000963
                },
                {
                    "name": "C#4",
                    "midi": 61,
                    "time": 165.01114999999973,
                    "velocity": 0.1732283464566929,
                    "duration": 0.32041000000000963
                },
                {
                    "name": "B3",
                    "midi": 59,
                    "time": 165.65196999999975,
                    "velocity": 0.1732283464566929,
                    "duration": 0.32041000000000963
                },
                {
                    "name": "G#4",
                    "midi": 68,
                    "time": 165.65196999999975,
                    "velocity": 0.2047244094488189,
                    "duration": 0.32041000000000963
                },
                {
                    "name": "B3",
                    "midi": 59,
                    "time": 165.97237999999976,
                    "velocity": 0.1732283464566929,
                    "duration": 0.32041000000000963
                },
                {
                    "name": "G#4",
                    "midi": 68,
                    "time": 165.97237999999976,
                    "velocity": 0.2047244094488189,
                    "duration": 0.32041000000000963
                },
                {
                    "name": "B3",
                    "midi": 59,
                    "time": 166.29278999999977,
                    "velocity": 0.15748031496062992,
                    "duration": 0.32041000000000963
                },
                {
                    "name": "G#4",
                    "midi": 68,
                    "time": 166.29278999999977,
                    "velocity": 0.2204724409448819,
                    "duration": 0.32041000000000963
                },
                {
                    "name": "D#4",
                    "midi": 63,
                    "time": 166.61319999999978,
                    "velocity": 0.1889763779527559,
                    "duration": 0.32041000000000963
                },
                {
                    "name": "G#4",
                    "midi": 68,
                    "time": 166.61319999999978,
                    "velocity": 0.2283464566929134,
                    "duration": 0.32041000000000963
                },
                {
                    "name": "D#4",
                    "midi": 63,
                    "time": 166.9336099999998,
                    "velocity": 0.1889763779527559,
                    "duration": 0.32041000000000963
                },
                {
                    "name": "G#4",
                    "midi": 68,
                    "time": 166.9336099999998,
                    "velocity": 0.2125984251968504,
                    "duration": 0.32041000000000963
                },
                {
                    "name": "D#4",
                    "midi": 63,
                    "time": 167.2540199999998,
                    "velocity": 0.1732283464566929,
                    "duration": 0.32041000000000963
                },
                {
                    "name": "G#4",
                    "midi": 68,
                    "time": 167.2540199999998,
                    "velocity": 0.2125984251968504,
                    "duration": 0.32041000000000963
                },
                {
                    "name": "A#3",
                    "midi": 58,
                    "time": 167.5744299999998,
                    "velocity": 0.18110236220472442,
                    "duration": 0.32041000000000963
                },
                {
                    "name": "D#4",
                    "midi": 63,
                    "time": 167.5744299999998,
                    "velocity": 0.2125984251968504,
                    "duration": 0.32041000000000963
                },
                {
                    "name": "G#3",
                    "midi": 56,
                    "time": 167.89483999999982,
                    "velocity": 0.1732283464566929,
                    "duration": 0.32041000000000963
                },
                {
                    "name": "D#4",
                    "midi": 63,
                    "time": 167.89483999999982,
                    "velocity": 0.2125984251968504,
                    "duration": 0.32041000000000963
                },
                {
                    "name": "G#3",
                    "midi": 56,
                    "time": 168.21524999999983,
                    "velocity": 0.1732283464566929,
                    "duration": 0.32041000000000963
                },
                {
                    "name": "D#4",
                    "midi": 63,
                    "time": 168.21524999999983,
                    "velocity": 0.2125984251968504,
                    "duration": 0.32041000000000963
                },
                {
                    "name": "A#3",
                    "midi": 58,
                    "time": 168.53565999999984,
                    "velocity": 0.1732283464566929,
                    "duration": 0.32041000000000963
                },
                {
                    "name": "D#4",
                    "midi": 63,
                    "time": 168.53565999999984,
                    "velocity": 0.2125984251968504,
                    "duration": 0.32041000000000963
                },
                {
                    "name": "G#3",
                    "midi": 56,
                    "time": 168.85606999999985,
                    "velocity": 0.1732283464566929,
                    "duration": 0.32041000000000963
                },
                {
                    "name": "D#4",
                    "midi": 63,
                    "time": 168.85606999999985,
                    "velocity": 0.2125984251968504,
                    "duration": 0.32041000000000963
                },
                {
                    "name": "G#3",
                    "midi": 56,
                    "time": 169.17647999999986,
                    "velocity": 0.1732283464566929,
                    "duration": 0.32041000000000963
                },
                {
                    "name": "D#4",
                    "midi": 63,
                    "time": 169.17647999999986,
                    "velocity": 0.2125984251968504,
                    "duration": 0.32041000000000963
                },
                {
                    "name": "A#3",
                    "midi": 58,
                    "time": 169.49688999999987,
                    "velocity": 0.1732283464566929,
                    "duration": 0.32041000000000963
                },
                {
                    "name": "D#4",
                    "midi": 63,
                    "time": 169.49688999999987,
                    "velocity": 0.2125984251968504,
                    "duration": 0.32041000000000963
                },
                {
                    "name": "B3",
                    "midi": 59,
                    "time": 169.81729999999988,
                    "velocity": 0.1732283464566929,
                    "duration": 0.32041000000000963
                },
                {
                    "name": "F#3",
                    "midi": 54,
                    "time": 169.81729999999988,
                    "velocity": 0.1732283464566929,
                    "duration": 0.32041000000000963
                },
                {
                    "name": "D#4",
                    "midi": 63,
                    "time": 169.81729999999988,
                    "velocity": 0.2125984251968504,
                    "duration": 0.32041000000000963
                },
                {
                    "name": "F3",
                    "midi": 53,
                    "time": 170.13770999999988,
                    "velocity": 0.1889763779527559,
                    "duration": 0.32041000000000963
                },
                {
                    "name": "B3",
                    "midi": 59,
                    "time": 170.13770999999988,
                    "velocity": 0.2204724409448819,
                    "duration": 0.32041000000000963
                },
                {
                    "name": "C#4",
                    "midi": 61,
                    "time": 170.13770999999988,
                    "velocity": 0.2204724409448819,
                    "duration": 0.32041000000000963
                },
                {
                    "name": "B3",
                    "midi": 59,
                    "time": 170.4581199999999,
                    "velocity": 0.1732283464566929,
                    "duration": 0.32041000000000963
                },
                {
                    "name": "F4",
                    "midi": 65,
                    "time": 170.4581199999999,
                    "velocity": 0.2125984251968504,
                    "duration": 0.32041000000000963
                },
                {
                    "name": "B3",
                    "midi": 59,
                    "time": 170.7785299999999,
                    "velocity": 0.1732283464566929,
                    "duration": 0.32041000000000963
                },
                {
                    "name": "F4",
                    "midi": 65,
                    "time": 170.7785299999999,
                    "velocity": 0.2125984251968504,
                    "duration": 0.32041000000000963
                },
                {
                    "name": "F#3",
                    "midi": 54,
                    "time": 171.0989399999999,
                    "velocity": 0.1968503937007874,
                    "duration": 0.32041000000000963
                },
                {
                    "name": "B3",
                    "midi": 59,
                    "time": 171.0989399999999,
                    "velocity": 0.23622047244094488,
                    "duration": 0.32041000000000963
                },
                {
                    "name": "F#3",
                    "midi": 54,
                    "time": 171.41934999999992,
                    "velocity": 0.16535433070866143,
                    "duration": 0.32041000000000963
                },
                {
                    "name": "B3",
                    "midi": 59,
                    "time": 171.41934999999992,
                    "velocity": 0.1968503937007874,
                    "duration": 0.32041000000000963
                },
                {
                    "name": "F#3",
                    "midi": 54,
                    "time": 171.73975999999993,
                    "velocity": 0.1732283464566929,
                    "duration": 0.32041000000000963
                },
                {
                    "name": "B3",
                    "midi": 59,
                    "time": 171.73975999999993,
                    "velocity": 0.2047244094488189,
                    "duration": 0.32041000000000963
                },
                {
                    "name": "G#3",
                    "midi": 56,
                    "time": 172.06016999999994,
                    "velocity": 0.2125984251968504,
                    "duration": 0.32041000000000963
                },
                {
                    "name": "B3",
                    "midi": 59,
                    "time": 172.06016999999994,
                    "velocity": 0.2125984251968504,
                    "duration": 0.32041000000000963
                },
                {
                    "name": "C#4",
                    "midi": 61,
                    "time": 172.06016999999994,
                    "velocity": 0.28346456692913385,
                    "duration": 0.32041000000000963
                },
                {
                    "name": "B3",
                    "midi": 59,
                    "time": 172.38057999999995,
                    "velocity": 0.18110236220472442,
                    "duration": 0.32041000000000963
                },
                {
                    "name": "F4",
                    "midi": 65,
                    "time": 172.38057999999995,
                    "velocity": 0.2125984251968504,
                    "duration": 0.32041000000000963
                },
                {
                    "name": "B3",
                    "midi": 59,
                    "time": 172.70098999999996,
                    "velocity": 0.18110236220472442,
                    "duration": 0.32041000000000963
                },
                {
                    "name": "F4",
                    "midi": 65,
                    "time": 172.70098999999996,
                    "velocity": 0.2125984251968504,
                    "duration": 0.32041000000000963
                },
                {
                    "name": "F#3",
                    "midi": 54,
                    "time": 173.02139999999997,
                    "velocity": 0.1968503937007874,
                    "duration": 0.32041000000000963
                },
                {
                    "name": "B3",
                    "midi": 59,
                    "time": 173.02139999999997,
                    "velocity": 0.23622047244094488,
                    "duration": 0.32041000000000963
                },
                {
                    "name": "F#3",
                    "midi": 54,
                    "time": 173.34180999999998,
                    "velocity": 0.18110236220472442,
                    "duration": 0.32041000000000963
                },
                {
                    "name": "B3",
                    "midi": 59,
                    "time": 173.34180999999998,
                    "velocity": 0.2125984251968504,
                    "duration": 0.32041000000000963
                },
                {
                    "name": "F#3",
                    "midi": 54,
                    "time": 173.66222,
                    "velocity": 0.18110236220472442,
                    "duration": 0.32041000000000963
                },
                {
                    "name": "B3",
                    "midi": 59,
                    "time": 173.66222,
                    "velocity": 0.2125984251968504,
                    "duration": 0.32041000000000963
                },
                {
                    "name": "G#3",
                    "midi": 56,
                    "time": 173.98263,
                    "velocity": 0.2125984251968504,
                    "duration": 0.32041000000000963
                },
                {
                    "name": "B3",
                    "midi": 59,
                    "time": 173.98263,
                    "velocity": 0.2125984251968504,
                    "duration": 0.32041000000000963
                },
                {
                    "name": "C#4",
                    "midi": 61,
                    "time": 173.98263,
                    "velocity": 0.2440944881889764,
                    "duration": 0.32041000000000963
                },
                {
                    "name": "B3",
                    "midi": 59,
                    "time": 174.30304,
                    "velocity": 0.2204724409448819,
                    "duration": 0.32041000000000963
                },
                {
                    "name": "F4",
                    "midi": 65,
                    "time": 174.30304,
                    "velocity": 0.2677165354330709,
                    "duration": 0.32041000000000963
                },
                {
                    "name": "B3",
                    "midi": 59,
                    "time": 174.62345000000002,
                    "velocity": 0.23622047244094488,
                    "duration": 0.32041000000000963
                },
                {
                    "name": "F4",
                    "midi": 65,
                    "time": 174.62345000000002,
                    "velocity": 0.28346456692913385,
                    "duration": 0.32041000000000963
                },
                {
                    "name": "B3",
                    "midi": 59,
                    "time": 174.94386000000003,
                    "velocity": 0.2440944881889764,
                    "duration": 0.32041000000000963
                },
                {
                    "name": "F4",
                    "midi": 65,
                    "time": 174.94386000000003,
                    "velocity": 0.29133858267716534,
                    "duration": 0.32041000000000963
                },
                {
                    "name": "C4",
                    "midi": 60,
                    "time": 175.26427000000004,
                    "velocity": 0.25196850393700787,
                    "duration": 0.32041000000000963
                },
                {
                    "name": "F4",
                    "midi": 65,
                    "time": 175.26427000000004,
                    "velocity": 0.30708661417322836,
                    "duration": 0.32041000000000963
                },
                {
                    "name": "C#4",
                    "midi": 61,
                    "time": 175.58468000000005,
                    "velocity": 0.2755905511811024,
                    "duration": 0.32041000000000963
                },
                {
                    "name": "F4",
                    "midi": 65,
                    "time": 175.58468000000005,
                    "velocity": 0.33070866141732286,
                    "duration": 0.32041000000000963
                },
                {
                    "name": "D4",
                    "midi": 62,
                    "time": 175.90509000000006,
                    "velocity": 0.29133858267716534,
                    "duration": 0.32041000000000963
                },
                {
                    "name": "F4",
                    "midi": 65,
                    "time": 175.90509000000006,
                    "velocity": 0.3543307086614173,
                    "duration": 0.32041000000000963
                },
                {
                    "name": "D#4",
                    "midi": 63,
                    "time": 176.22550000000007,
                    "velocity": 0.2677165354330709,
                    "duration": 0.32041000000000963
                },
                {
                    "name": "F4",
                    "midi": 65,
                    "time": 176.22550000000007,
                    "velocity": 0.3228346456692913,
                    "duration": 0.31907495833334565
                },
                {
                    "name": "B3",
                    "midi": 59,
                    "time": 176.54591000000008,
                    "velocity": 0.1889763779527559,
                    "duration": 0.32041000000000963
                },
                {
                    "name": "C#4",
                    "midi": 61,
                    "time": 176.54591000000008,
                    "velocity": 0.2204724409448819,
                    "duration": 0.32041000000000963
                },
                {
                    "name": "A#3",
                    "midi": 58,
                    "time": 176.8663200000001,
                    "velocity": 0.2047244094488189,
                    "duration": 0.32041000000000963
                },
                {
                    "name": "C#4",
                    "midi": 61,
                    "time": 176.8663200000001,
                    "velocity": 0.23622047244094488,
                    "duration": 0.32041000000000963
                },
                {
                    "name": "G#3",
                    "midi": 56,
                    "time": 177.8275500000001,
                    "velocity": 0.23622047244094488,
                    "duration": 0.9612300000000005
                },
                {
                    "name": "C4",
                    "midi": 60,
                    "time": 177.8275500000001,
                    "velocity": 0.23622047244094488,
                    "duration": 0.9612300000000005
                },
                {
                    "name": "F#4",
                    "midi": 66,
                    "time": 177.8275500000001,
                    "velocity": 0.28346456692913385,
                    "duration": 0.9612300000000005
                },
                {
                    "name": "G#4",
                    "midi": 68,
                    "time": 177.8275500000001,
                    "velocity": 0.28346456692913385,
                    "duration": 0.9612300000000005
                },
                {
                    "name": "G#3",
                    "midi": 56,
                    "time": 178.7887800000001,
                    "velocity": 0.23622047244094488,
                    "duration": 0.32041000000000963
                },
                {
                    "name": "C#4",
                    "midi": 61,
                    "time": 178.7887800000001,
                    "velocity": 0.23622047244094488,
                    "duration": 0.9612300000000005
                },
                {
                    "name": "F4",
                    "midi": 65,
                    "time": 178.7887800000001,
                    "velocity": 0.23622047244094488,
                    "duration": 0.9612300000000005
                },
                {
                    "name": "G#4",
                    "midi": 68,
                    "time": 178.7887800000001,
                    "velocity": 0.28346456692913385,
                    "duration": 0.9612300000000005
                },
                {
                    "name": "C4",
                    "midi": 60,
                    "time": 179.7500100000001,
                    "velocity": 0.2440944881889764,
                    "duration": 0.6408199999999908
                },
                {
                    "name": "F#4",
                    "midi": 66,
                    "time": 179.7500100000001,
                    "velocity": 0.29133858267716534,
                    "duration": 0.961229999999972
                },
                {
                    "name": "G#4",
                    "midi": 68,
                    "time": 179.7500100000001,
                    "velocity": 0.29133858267716534,
                    "duration": 0.961229999999972
                },
                {
                    "name": "C#4",
                    "midi": 61,
                    "time": 180.39083000000008,
                    "velocity": 0.33070866141732286,
                    "duration": 0.1602049999999906
                },
                {
                    "name": "D#4",
                    "midi": 63,
                    "time": 180.55103500000007,
                    "velocity": 0.29133858267716534,
                    "duration": 0.1602049999999906
                },
                {
                    "name": "E4",
                    "midi": 64,
                    "time": 180.71124000000006,
                    "velocity": 0.3543307086614173,
                    "duration": 0.32041000000000963
                },
                {
                    "name": "G#4",
                    "midi": 68,
                    "time": 180.71124000000006,
                    "velocity": 0.3543307086614173,
                    "duration": 0.8010250000000099
                },
                {
                    "name": "F4",
                    "midi": 65,
                    "time": 181.03165000000007,
                    "velocity": 0.30708661417322836,
                    "duration": 0.6408199999999908
                },
                {
                    "name": "F5",
                    "midi": 77,
                    "time": 181.51226500000007,
                    "velocity": 0.4094488188976378,
                    "duration": 0.1602049999999906
                },
                {
                    "name": "D#4",
                    "midi": 63,
                    "time": 181.67247000000006,
                    "velocity": 0.30708661417322836,
                    "duration": 0.9612300000000005
                },
                {
                    "name": "A4",
                    "midi": 69,
                    "time": 181.67247000000006,
                    "velocity": 0.30708661417322836,
                    "duration": 0.6408199999999908
                },
                {
                    "name": "F5",
                    "midi": 77,
                    "time": 181.67247000000006,
                    "velocity": 0.3858267716535433,
                    "duration": 0.6408199999999908
                },
                {
                    "name": "A4",
                    "midi": 69,
                    "time": 182.31329000000005,
                    "velocity": 0.30708661417322836,
                    "duration": 0.32041000000000963
                },
                {
                    "name": "A#4",
                    "midi": 70,
                    "time": 182.63370000000006,
                    "velocity": 0.36220472440944884,
                    "duration": 0.6408199999999908
                },
                {
                    "name": "C#4",
                    "midi": 61,
                    "time": 182.63370000000006,
                    "velocity": 0.30708661417322836,
                    "duration": 0.9612300000000005
                },
                {
                    "name": "F4",
                    "midi": 65,
                    "time": 183.27452000000005,
                    "velocity": 0.29133858267716534,
                    "duration": 0.32041000000000963
                },
                {
                    "name": "C#5",
                    "midi": 73,
                    "time": 183.27452000000005,
                    "velocity": 0.3543307086614173,
                    "duration": 0.32041000000000963
                },
                {
                    "name": "C#4",
                    "midi": 61,
                    "time": 183.59493000000006,
                    "velocity": 0.2677165354330709,
                    "duration": 0.9612300000000005
                },
                {
                    "name": "D#4",
                    "midi": 63,
                    "time": 183.59493000000006,
                    "velocity": 0.30708661417322836,
                    "duration": 0.9612300000000005
                },
                {
                    "name": "G4",
                    "midi": 67,
                    "time": 183.59493000000006,
                    "velocity": 0.3700787401574803,
                    "duration": 0.9612300000000005
                },
                {
                    "name": "C4",
                    "midi": 60,
                    "time": 184.55616000000006,
                    "velocity": 0.30708661417322836,
                    "duration": 0.6408199999999908
                },
                {
                    "name": "D#4",
                    "midi": 63,
                    "time": 184.55616000000006,
                    "velocity": 0.30708661417322836,
                    "duration": 0.6408199999999908
                },
                {
                    "name": "G#4",
                    "midi": 68,
                    "time": 184.55616000000006,
                    "velocity": 0.3700787401574803,
                    "duration": 0.6408199999999908
                },
                {
                    "name": "C#4",
                    "midi": 61,
                    "time": 185.19698000000005,
                    "velocity": 0.29133858267716534,
                    "duration": 0.32041000000000963
                },
                {
                    "name": "F4",
                    "midi": 65,
                    "time": 185.19698000000005,
                    "velocity": 0.29133858267716534,
                    "duration": 0.32041000000000963
                },
                {
                    "name": "G#4",
                    "midi": 68,
                    "time": 185.19698000000005,
                    "velocity": 0.3543307086614173,
                    "duration": 0.32041000000000963
                },
                {
                    "name": "C4",
                    "midi": 60,
                    "time": 185.51739000000006,
                    "velocity": 0.23622047244094488,
                    "duration": 0.9612300000000005
                },
                {
                    "name": "F#4",
                    "midi": 66,
                    "time": 185.51739000000006,
                    "velocity": 0.28346456692913385,
                    "duration": 0.9612300000000005
                },
                {
                    "name": "G#4",
                    "midi": 68,
                    "time": 185.51739000000006,
                    "velocity": 0.28346456692913385,
                    "duration": 0.9612300000000005
                },
                {
                    "name": "C#4",
                    "midi": 61,
                    "time": 186.47862000000006,
                    "velocity": 0.30708661417322836,
                    "duration": 0.6408199999999908
                },
                {
                    "name": "F4",
                    "midi": 65,
                    "time": 186.47862000000006,
                    "velocity": 0.33858267716535434,
                    "duration": 0.9612300000000005
                },
                {
                    "name": "G#4",
                    "midi": 68,
                    "time": 186.47862000000006,
                    "velocity": 0.36220472440944884,
                    "duration": 0.9612300000000005
                },
                {
                    "name": "G#3",
                    "midi": 56,
                    "time": 187.11944000000005,
                    "velocity": 0.2755905511811024,
                    "duration": 0.32041000000000963
                },
                {
                    "name": "C4",
                    "midi": 60,
                    "time": 187.43985000000006,
                    "velocity": 0.3543307086614173,
                    "duration": 0.32041000000000963
                },
                {
                    "name": "F#4",
                    "midi": 66,
                    "time": 187.43985000000006,
                    "velocity": 0.31496062992125984,
                    "duration": 0.961229999999972
                },
                {
                    "name": "G#4",
                    "midi": 68,
                    "time": 187.43985000000006,
                    "velocity": 0.3543307086614173,
                    "duration": 0.961229999999972
                },
                {
                    "name": "A#3",
                    "midi": 58,
                    "time": 187.76026000000007,
                    "velocity": 0.2992125984251969,
                    "duration": 0.1602049999999906
                },
                {
                    "name": "G#3",
                    "midi": 56,
                    "time": 187.92046500000006,
                    "velocity": 0.2677165354330709,
                    "duration": 0.1602049999999906
                },
                {
                    "name": "C#4",
                    "midi": 61,
                    "time": 188.08067000000005,
                    "velocity": 0.33070866141732286,
                    "duration": 0.1602049999999906
                },
                {
                    "name": "D#4",
                    "midi": 63,
                    "time": 188.24087500000005,
                    "velocity": 0.29133858267716534,
                    "duration": 0.1602049999999906
                },
                {
                    "name": "F4",
                    "midi": 65,
                    "time": 188.40108000000004,
                    "velocity": 0.30708661417322836,
                    "duration": 0.6408199999999908
                },
                {
                    "name": "G#4",
                    "midi": 68,
                    "time": 188.40108000000004,
                    "velocity": 0.3700787401574803,
                    "duration": 0.9612300000000005
                },
                {
                    "name": "E4",
                    "midi": 64,
                    "time": 189.04190000000003,
                    "velocity": 0.33070866141732286,
                    "duration": 0.32041000000000963
                },
                {
                    "name": "G#4",
                    "midi": 68,
                    "time": 189.36231000000004,
                    "velocity": 0.3543307086614173,
                    "duration": 0.6408199999999908
                },
                {
                    "name": "D#4",
                    "midi": 63,
                    "time": 189.36231000000004,
                    "velocity": 0.2992125984251969,
                    "duration": 0.9612300000000005
                },
                {
                    "name": "F#4",
                    "midi": 66,
                    "time": 190.00313000000003,
                    "velocity": 0.2992125984251969,
                    "duration": 0.31907495833334565
                },
                {
                    "name": "D4",
                    "midi": 62,
                    "time": 190.32354000000004,
                    "velocity": 0.29133858267716534,
                    "duration": 0.32041000000000963
                },
                {
                    "name": "F#4",
                    "midi": 66,
                    "time": 190.32354000000004,
                    "velocity": 0.3543307086614173,
                    "duration": 0.6408200000000193
                },
                {
                    "name": "C#4",
                    "midi": 61,
                    "time": 190.64395000000005,
                    "velocity": 0.30708661417322836,
                    "duration": 0.6408200000000193
                },
                {
                    "name": "D#4",
                    "midi": 63,
                    "time": 190.96436000000006,
                    "velocity": 0.30708661417322836,
                    "duration": 0.32041000000000963
                },
                {
                    "name": "C#5",
                    "midi": 73,
                    "time": 190.96436000000006,
                    "velocity": 0.3700787401574803,
                    "duration": 0.32041000000000963
                },
                {
                    "name": "C#4",
                    "midi": 61,
                    "time": 191.28477000000007,
                    "velocity": 0.3228346456692913,
                    "duration": 0.9598949583333365
                },
                {
                    "name": "F4",
                    "midi": 65,
                    "time": 191.28477000000007,
                    "velocity": 0.3228346456692913,
                    "duration": 0.9612300000000005
                },
                {
                    "name": "C#5",
                    "midi": 73,
                    "time": 191.28477000000007,
                    "velocity": 0.3779527559055118,
                    "duration": 0.9612300000000005
                },
                {
                    "name": "F4",
                    "midi": 65,
                    "time": 192.24600000000007,
                    "velocity": 0.2440944881889764,
                    "duration": 0.9612300000000005
                },
                {
                    "name": "G#4",
                    "midi": 68,
                    "time": 192.24600000000007,
                    "velocity": 0.29133858267716534,
                    "duration": 0.6408199999999908
                },
                {
                    "name": "A4",
                    "midi": 69,
                    "time": 192.88682000000006,
                    "velocity": 0.3543307086614173,
                    "duration": 0.32041000000000963
                },
                {
                    "name": "A#3",
                    "midi": 58,
                    "time": 193.52764000000008,
                    "velocity": 0.1968503937007874,
                    "duration": 0.32041000000000963
                },
                {
                    "name": "A#3",
                    "midi": 58,
                    "time": 193.8480500000001,
                    "velocity": 0.1732283464566929,
                    "duration": 0.32041000000000963
                },
                {
                    "name": "A#3",
                    "midi": 58,
                    "time": 194.4888700000001,
                    "velocity": 0.15748031496062992,
                    "duration": 0.32041000000000963
                },
                {
                    "name": "F#4",
                    "midi": 66,
                    "time": 194.4888700000001,
                    "velocity": 0.1968503937007874,
                    "duration": 0.32041000000000963
                },
                {
                    "name": "A#3",
                    "midi": 58,
                    "time": 194.80928000000011,
                    "velocity": 0.15748031496062992,
                    "duration": 0.32041000000000963
                },
                {
                    "name": "F#4",
                    "midi": 66,
                    "time": 194.80928000000011,
                    "velocity": 0.1968503937007874,
                    "duration": 0.32041000000000963
                },
                {
                    "name": "B3",
                    "midi": 59,
                    "time": 195.45010000000013,
                    "velocity": 0.18110236220472442,
                    "duration": 0.32041000000000963
                },
                {
                    "name": "F4",
                    "midi": 65,
                    "time": 195.77051000000014,
                    "velocity": 0.2125984251968504,
                    "duration": 0.32041000000000963
                },
                {
                    "name": "B3",
                    "midi": 59,
                    "time": 195.77051000000014,
                    "velocity": 0.1732283464566929,
                    "duration": 0.32041000000000963
                },
                {
                    "name": "A#3",
                    "midi": 58,
                    "time": 196.41133000000016,
                    "velocity": 0.1889763779527559,
                    "duration": 0.32041000000000963
                },
                {
                    "name": "F#4",
                    "midi": 66,
                    "time": 196.41133000000016,
                    "velocity": 0.2204724409448819,
                    "duration": 0.32041000000000963
                },
                {
                    "name": "A#3",
                    "midi": 58,
                    "time": 196.73174000000017,
                    "velocity": 0.18110236220472442,
                    "duration": 0.32041000000000963
                },
                {
                    "name": "F#4",
                    "midi": 66,
                    "time": 196.73174000000017,
                    "velocity": 0.2125984251968504,
                    "duration": 0.32041000000000963
                },
                {
                    "name": "A#3",
                    "midi": 58,
                    "time": 197.05215000000018,
                    "velocity": 0.18110236220472442,
                    "duration": 0.32041000000000963
                },
                {
                    "name": "F#4",
                    "midi": 66,
                    "time": 197.05215000000018,
                    "velocity": 0.2125984251968504,
                    "duration": 0.32041000000000963
                },
                {
                    "name": "C#4",
                    "midi": 61,
                    "time": 197.3725600000002,
                    "velocity": 0.15748031496062992,
                    "duration": 0.32041000000000963
                },
                {
                    "name": "F#4",
                    "midi": 66,
                    "time": 197.3725600000002,
                    "velocity": 0.1889763779527559,
                    "duration": 0.32041000000000963
                },
                {
                    "name": "C#4",
                    "midi": 61,
                    "time": 197.6929700000002,
                    "velocity": 0.15748031496062992,
                    "duration": 0.32041000000000963
                },
                {
                    "name": "F#4",
                    "midi": 66,
                    "time": 197.6929700000002,
                    "velocity": 0.1889763779527559,
                    "duration": 0.32041000000000963
                },
                {
                    "name": "C#4",
                    "midi": 61,
                    "time": 198.0133800000002,
                    "velocity": 0.15748031496062992,
                    "duration": 0.32041000000000963
                },
                {
                    "name": "F#4",
                    "midi": 66,
                    "time": 198.0133800000002,
                    "velocity": 0.1889763779527559,
                    "duration": 0.32041000000000963
                },
                {
                    "name": "G#3",
                    "midi": 56,
                    "time": 198.33379000000022,
                    "velocity": 0.15748031496062992,
                    "duration": 0.32041000000000963
                },
                {
                    "name": "C#4",
                    "midi": 61,
                    "time": 198.33379000000022,
                    "velocity": 0.1889763779527559,
                    "duration": 0.32041000000000963
                },
                {
                    "name": "F#3",
                    "midi": 54,
                    "time": 198.65420000000023,
                    "velocity": 0.15748031496062992,
                    "duration": 0.32041000000000963
                },
                {
                    "name": "C#4",
                    "midi": 61,
                    "time": 198.65420000000023,
                    "velocity": 0.1889763779527559,
                    "duration": 0.32041000000000963
                },
                {
                    "name": "F#3",
                    "midi": 54,
                    "time": 198.97461000000024,
                    "velocity": 0.15748031496062992,
                    "duration": 0.32041000000000963
                },
                {
                    "name": "C#4",
                    "midi": 61,
                    "time": 198.97461000000024,
                    "velocity": 0.1889763779527559,
                    "duration": 0.32041000000000963
                },
                {
                    "name": "G#3",
                    "midi": 56,
                    "time": 199.29502000000025,
                    "velocity": 0.14173228346456693,
                    "duration": 0.32041000000000963
                },
                {
                    "name": "C#4",
                    "midi": 61,
                    "time": 199.29502000000025,
                    "velocity": 0.18110236220472442,
                    "duration": 0.32041000000000963
                },
                {
                    "name": "F#3",
                    "midi": 54,
                    "time": 199.61543000000026,
                    "velocity": 0.14173228346456693,
                    "duration": 0.32041000000000963
                },
                {
                    "name": "C#4",
                    "midi": 61,
                    "time": 199.61543000000026,
                    "velocity": 0.18110236220472442,
                    "duration": 0.32041000000000963
                },
                {
                    "name": "F#3",
                    "midi": 54,
                    "time": 199.93584000000027,
                    "velocity": 0.11811023622047244,
                    "duration": 0.32041000000000963
                },
                {
                    "name": "C#4",
                    "midi": 61,
                    "time": 199.93584000000027,
                    "velocity": 0.18110236220472442,
                    "duration": 0.32041000000000963
                },
                {
                    "name": "G#3",
                    "midi": 56,
                    "time": 200.25625000000028,
                    "velocity": 0.11811023622047244,
                    "duration": 0.32041000000000963
                },
                {
                    "name": "C#4",
                    "midi": 61,
                    "time": 200.25625000000028,
                    "velocity": 0.1889763779527559,
                    "duration": 0.32041000000000963
                },
                {
                    "name": "F#3",
                    "midi": 54,
                    "time": 200.5766600000003,
                    "velocity": 0.11811023622047244,
                    "duration": 0.32041000000000963
                },
                {
                    "name": "C#4",
                    "midi": 61,
                    "time": 200.5766600000003,
                    "velocity": 0.18110236220472442,
                    "duration": 0.32041000000000963
                },
                {
                    "name": "B3",
                    "midi": 59,
                    "time": 201.2174800000003,
                    "velocity": 0.2047244094488189,
                    "duration": 0.32041000000000963
                },
                {
                    "name": "B3",
                    "midi": 59,
                    "time": 201.53789000000032,
                    "velocity": 0.2047244094488189,
                    "duration": 0.32041000000000963
                },
                {
                    "name": "B3",
                    "midi": 59,
                    "time": 202.17871000000034,
                    "velocity": 0.1968503937007874,
                    "duration": 0.32041000000000963
                },
                {
                    "name": "G#4",
                    "midi": 68,
                    "time": 202.17871000000034,
                    "velocity": 0.23622047244094488,
                    "duration": 0.32041000000000963
                },
                {
                    "name": "B3",
                    "midi": 59,
                    "time": 202.49912000000035,
                    "velocity": 0.16535433070866143,
                    "duration": 0.32041000000000963
                },
                {
                    "name": "G#4",
                    "midi": 68,
                    "time": 202.49912000000035,
                    "velocity": 0.1968503937007874,
                    "duration": 0.32041000000000963
                },
                {
                    "name": "C#4",
                    "midi": 61,
                    "time": 203.13994000000037,
                    "velocity": 0.2204724409448819,
                    "duration": 0.32041000000000963
                },
                {
                    "name": "G4",
                    "midi": 67,
                    "time": 203.46035000000037,
                    "velocity": 0.2125984251968504,
                    "duration": 0.32041000000000963
                },
                {
                    "name": "C#4",
                    "midi": 61,
                    "time": 203.46035000000037,
                    "velocity": 0.1732283464566929,
                    "duration": 0.32041000000000963
                },
                {
                    "name": "B3",
                    "midi": 59,
                    "time": 204.1011700000004,
                    "velocity": 0.1732283464566929,
                    "duration": 0.32041000000000963
                },
                {
                    "name": "G#4",
                    "midi": 68,
                    "time": 204.1011700000004,
                    "velocity": 0.2047244094488189,
                    "duration": 0.32041000000000963
                },
                {
                    "name": "B3",
                    "midi": 59,
                    "time": 204.4215800000004,
                    "velocity": 0.1732283464566929,
                    "duration": 0.32041000000000963
                },
                {
                    "name": "G#4",
                    "midi": 68,
                    "time": 204.4215800000004,
                    "velocity": 0.2047244094488189,
                    "duration": 0.32041000000000963
                },
                {
                    "name": "B3",
                    "midi": 59,
                    "time": 204.7419900000004,
                    "velocity": 0.15748031496062992,
                    "duration": 0.32041000000000963
                },
                {
                    "name": "G#4",
                    "midi": 68,
                    "time": 204.7419900000004,
                    "velocity": 0.2204724409448819,
                    "duration": 0.32041000000000963
                },
                {
                    "name": "D#4",
                    "midi": 63,
                    "time": 205.06240000000042,
                    "velocity": 0.1889763779527559,
                    "duration": 0.32041000000000963
                },
                {
                    "name": "G#4",
                    "midi": 68,
                    "time": 205.06240000000042,
                    "velocity": 0.2283464566929134,
                    "duration": 0.32041000000000963
                },
                {
                    "name": "D#4",
                    "midi": 63,
                    "time": 205.38281000000043,
                    "velocity": 0.1889763779527559,
                    "duration": 0.32041000000000963
                },
                {
                    "name": "G#4",
                    "midi": 68,
                    "time": 205.38281000000043,
                    "velocity": 0.2125984251968504,
                    "duration": 0.32041000000000963
                },
                {
                    "name": "D#4",
                    "midi": 63,
                    "time": 205.70322000000044,
                    "velocity": 0.1732283464566929,
                    "duration": 0.32041000000000963
                },
                {
                    "name": "G#4",
                    "midi": 68,
                    "time": 205.70322000000044,
                    "velocity": 0.2125984251968504,
                    "duration": 0.32041000000000963
                },
                {
                    "name": "A#3",
                    "midi": 58,
                    "time": 206.02363000000045,
                    "velocity": 0.18110236220472442,
                    "duration": 0.32041000000000963
                },
                {
                    "name": "D#4",
                    "midi": 63,
                    "time": 206.02363000000045,
                    "velocity": 0.2125984251968504,
                    "duration": 0.32041000000000963
                },
                {
                    "name": "G#3",
                    "midi": 56,
                    "time": 206.34404000000046,
                    "velocity": 0.1732283464566929,
                    "duration": 0.32041000000000963
                },
                {
                    "name": "D#4",
                    "midi": 63,
                    "time": 206.34404000000046,
                    "velocity": 0.2125984251968504,
                    "duration": 0.32041000000000963
                },
                {
                    "name": "G#3",
                    "midi": 56,
                    "time": 206.66445000000047,
                    "velocity": 0.1732283464566929,
                    "duration": 0.32041000000000963
                },
                {
                    "name": "D#4",
                    "midi": 63,
                    "time": 206.66445000000047,
                    "velocity": 0.2125984251968504,
                    "duration": 0.32041000000000963
                },
                {
                    "name": "A#3",
                    "midi": 58,
                    "time": 206.98486000000048,
                    "velocity": 0.1732283464566929,
                    "duration": 0.32041000000000963
                },
                {
                    "name": "D#4",
                    "midi": 63,
                    "time": 206.98486000000048,
                    "velocity": 0.2125984251968504,
                    "duration": 0.32041000000000963
                },
                {
                    "name": "G#3",
                    "midi": 56,
                    "time": 207.3052700000005,
                    "velocity": 0.1732283464566929,
                    "duration": 0.32041000000000963
                },
                {
                    "name": "D#4",
                    "midi": 63,
                    "time": 207.3052700000005,
                    "velocity": 0.2125984251968504,
                    "duration": 0.32041000000000963
                },
                {
                    "name": "G#3",
                    "midi": 56,
                    "time": 207.6256800000005,
                    "velocity": 0.1732283464566929,
                    "duration": 0.32041000000000963
                },
                {
                    "name": "D#4",
                    "midi": 63,
                    "time": 207.6256800000005,
                    "velocity": 0.2125984251968504,
                    "duration": 0.32041000000000963
                },
                {
                    "name": "A#3",
                    "midi": 58,
                    "time": 207.9460900000005,
                    "velocity": 0.1732283464566929,
                    "duration": 0.32041000000000963
                },
                {
                    "name": "D#4",
                    "midi": 63,
                    "time": 207.9460900000005,
                    "velocity": 0.2125984251968504,
                    "duration": 0.32041000000000963
                },
                {
                    "name": "B3",
                    "midi": 59,
                    "time": 208.26650000000052,
                    "velocity": 0.1732283464566929,
                    "duration": 0.32041000000000963
                },
                {
                    "name": "F#3",
                    "midi": 54,
                    "time": 208.26650000000052,
                    "velocity": 0.1732283464566929,
                    "duration": 0.32041000000000963
                },
                {
                    "name": "D#4",
                    "midi": 63,
                    "time": 208.26650000000052,
                    "velocity": 0.2125984251968504,
                    "duration": 0.32041000000000963
                },
                {
                    "name": "F3",
                    "midi": 53,
                    "time": 208.58691000000053,
                    "velocity": 0.1889763779527559,
                    "duration": 0.32041000000000963
                },
                {
                    "name": "B3",
                    "midi": 59,
                    "time": 208.58691000000053,
                    "velocity": 0.2204724409448819,
                    "duration": 0.32041000000000963
                },
                {
                    "name": "C#4",
                    "midi": 61,
                    "time": 208.58691000000053,
                    "velocity": 0.2204724409448819,
                    "duration": 0.32041000000000963
                },
                {
                    "name": "B3",
                    "midi": 59,
                    "time": 208.90732000000054,
                    "velocity": 0.1732283464566929,
                    "duration": 0.32041000000000963
                },
                {
                    "name": "F4",
                    "midi": 65,
                    "time": 208.90732000000054,
                    "velocity": 0.2125984251968504,
                    "duration": 0.32041000000000963
                },
                {
                    "name": "B3",
                    "midi": 59,
                    "time": 209.22773000000055,
                    "velocity": 0.1732283464566929,
                    "duration": 0.32041000000000963
                },
                {
                    "name": "F4",
                    "midi": 65,
                    "time": 209.22773000000055,
                    "velocity": 0.2125984251968504,
                    "duration": 0.32041000000000963
                },
                {
                    "name": "F#3",
                    "midi": 54,
                    "time": 209.54814000000056,
                    "velocity": 0.1968503937007874,
                    "duration": 0.32041000000000963
                },
                {
                    "name": "B3",
                    "midi": 59,
                    "time": 209.54814000000056,
                    "velocity": 0.23622047244094488,
                    "duration": 0.32041000000000963
                },
                {
                    "name": "F#3",
                    "midi": 54,
                    "time": 209.86855000000057,
                    "velocity": 0.16535433070866143,
                    "duration": 0.32041000000000963
                },
                {
                    "name": "B3",
                    "midi": 59,
                    "time": 209.86855000000057,
                    "velocity": 0.1968503937007874,
                    "duration": 0.32041000000000963
                },
                {
                    "name": "F#3",
                    "midi": 54,
                    "time": 210.18896000000058,
                    "velocity": 0.1732283464566929,
                    "duration": 0.32041000000000963
                },
                {
                    "name": "B3",
                    "midi": 59,
                    "time": 210.18896000000058,
                    "velocity": 0.2047244094488189,
                    "duration": 0.32041000000000963
                },
                {
                    "name": "G#3",
                    "midi": 56,
                    "time": 210.5093700000006,
                    "velocity": 0.2125984251968504,
                    "duration": 0.32041000000000963
                },
                {
                    "name": "B3",
                    "midi": 59,
                    "time": 210.5093700000006,
                    "velocity": 0.2125984251968504,
                    "duration": 0.32041000000000963
                },
                {
                    "name": "C#4",
                    "midi": 61,
                    "time": 210.5093700000006,
                    "velocity": 0.28346456692913385,
                    "duration": 0.32041000000000963
                },
                {
                    "name": "B3",
                    "midi": 59,
                    "time": 210.8297800000006,
                    "velocity": 0.18110236220472442,
                    "duration": 0.32041000000000963
                },
                {
                    "name": "F4",
                    "midi": 65,
                    "time": 210.8297800000006,
                    "velocity": 0.2125984251968504,
                    "duration": 0.32041000000000963
                },
                {
                    "name": "B3",
                    "midi": 59,
                    "time": 211.1501900000006,
                    "velocity": 0.18110236220472442,
                    "duration": 0.32041000000000963
                },
                {
                    "name": "F4",
                    "midi": 65,
                    "time": 211.1501900000006,
                    "velocity": 0.2125984251968504,
                    "duration": 0.32041000000000963
                },
                {
                    "name": "F#3",
                    "midi": 54,
                    "time": 211.47060000000062,
                    "velocity": 0.1968503937007874,
                    "duration": 0.32041000000000963
                },
                {
                    "name": "B3",
                    "midi": 59,
                    "time": 211.47060000000062,
                    "velocity": 0.23622047244094488,
                    "duration": 0.32041000000000963
                },
                {
                    "name": "F#3",
                    "midi": 54,
                    "time": 211.79101000000063,
                    "velocity": 0.18110236220472442,
                    "duration": 0.32041000000000963
                },
                {
                    "name": "B3",
                    "midi": 59,
                    "time": 211.79101000000063,
                    "velocity": 0.2125984251968504,
                    "duration": 0.32041000000000963
                },
                {
                    "name": "F#3",
                    "midi": 54,
                    "time": 212.11142000000063,
                    "velocity": 0.18110236220472442,
                    "duration": 0.32041000000000963
                },
                {
                    "name": "B3",
                    "midi": 59,
                    "time": 212.11142000000063,
                    "velocity": 0.2125984251968504,
                    "duration": 0.32041000000000963
                },
                {
                    "name": "G#3",
                    "midi": 56,
                    "time": 212.43183000000064,
                    "velocity": 0.2125984251968504,
                    "duration": 0.32041000000000963
                },
                {
                    "name": "B3",
                    "midi": 59,
                    "time": 212.43183000000064,
                    "velocity": 0.2125984251968504,
                    "duration": 0.32041000000000963
                },
                {
                    "name": "C#4",
                    "midi": 61,
                    "time": 212.43183000000064,
                    "velocity": 0.2440944881889764,
                    "duration": 0.32041000000000963
                },
                {
                    "name": "B3",
                    "midi": 59,
                    "time": 212.75224000000065,
                    "velocity": 0.2283464566929134,
                    "duration": 0.32041000000000963
                },
                {
                    "name": "F4",
                    "midi": 65,
                    "time": 212.75224000000065,
                    "velocity": 0.2755905511811024,
                    "duration": 0.32041000000000963
                },
                {
                    "name": "B3",
                    "midi": 59,
                    "time": 213.07265000000066,
                    "velocity": 0.2440944881889764,
                    "duration": 0.32041000000000963
                },
                {
                    "name": "F4",
                    "midi": 65,
                    "time": 213.07265000000066,
                    "velocity": 0.29133858267716534,
                    "duration": 0.32041000000000963
                },
                {
                    "name": "B3",
                    "midi": 59,
                    "time": 213.39306000000067,
                    "velocity": 0.25984251968503935,
                    "duration": 0.32041000000000963
                },
                {
                    "name": "F4",
                    "midi": 65,
                    "time": 213.39306000000067,
                    "velocity": 0.31496062992125984,
                    "duration": 0.32041000000000963
                },
                {
                    "name": "C4",
                    "midi": 60,
                    "time": 213.71347000000068,
                    "velocity": 0.28346456692913385,
                    "duration": 0.32041000000000963
                },
                {
                    "name": "F4",
                    "midi": 65,
                    "time": 213.71347000000068,
                    "velocity": 0.3543307086614173,
                    "duration": 0.32041000000000963
                },
                {
                    "name": "C#4",
                    "midi": 61,
                    "time": 214.0338800000007,
                    "velocity": 0.33070866141732286,
                    "duration": 0.32041000000000963
                },
                {
                    "name": "F4",
                    "midi": 65,
                    "time": 214.0338800000007,
                    "velocity": 0.3700787401574803,
                    "duration": 0.32041000000000963
                },
                {
                    "name": "D5",
                    "midi": 74,
                    "time": 214.3542900000007,
                    "velocity": 0.3858267716535433,
                    "duration": 0.32041000000000963
                },
                {
                    "name": "D4",
                    "midi": 62,
                    "time": 214.3542900000007,
                    "velocity": 0.33858267716535434,
                    "duration": 0.32041000000000963
                },
                {
                    "name": "F4",
                    "midi": 65,
                    "time": 214.3542900000007,
                    "velocity": 0.33858267716535434,
                    "duration": 0.32041000000000963
                },
                {
                    "name": "D#5",
                    "midi": 75,
                    "time": 214.6747000000007,
                    "velocity": 0.4015748031496063,
                    "duration": 0.48061500000000024
                },
                {
                    "name": "D#4",
                    "midi": 63,
                    "time": 214.6747000000007,
                    "velocity": 0.3464566929133858,
                    "duration": 0.48061500000000024
                },
                {
                    "name": "F4",
                    "midi": 65,
                    "time": 214.6747000000007,
                    "velocity": 0.3543307086614173,
                    "duration": 0.48061500000000024
                },
                {
                    "name": "D5",
                    "midi": 74,
                    "time": 215.1553150000007,
                    "velocity": 0.3858267716535433,
                    "duration": 0.1602049999999906
                },
                {
                    "name": "D4",
                    "midi": 62,
                    "time": 215.1553150000007,
                    "velocity": 0.25984251968503935,
                    "duration": 0.1602049999999906
                },
                {
                    "name": "F4",
                    "midi": 65,
                    "time": 215.1553150000007,
                    "velocity": 0.25984251968503935,
                    "duration": 0.1602049999999906
                },
                {
                    "name": "D5",
                    "midi": 74,
                    "time": 215.3155200000007,
                    "velocity": 0.3937007874015748,
                    "duration": 0.32041000000000963
                },
                {
                    "name": "D4",
                    "midi": 62,
                    "time": 215.3155200000007,
                    "velocity": 0.2677165354330709,
                    "duration": 0.32041000000000963
                },
                {
                    "name": "F4",
                    "midi": 65,
                    "time": 215.3155200000007,
                    "velocity": 0.2755905511811024,
                    "duration": 0.32041000000000963
                },
                {
                    "name": "D#5",
                    "midi": 75,
                    "time": 215.6359300000007,
                    "velocity": 0.4015748031496063,
                    "duration": 0.48061500000000024
                },
                {
                    "name": "D#4",
                    "midi": 63,
                    "time": 215.6359300000007,
                    "velocity": 0.3464566929133858,
                    "duration": 0.48061500000000024
                },
                {
                    "name": "F4",
                    "midi": 65,
                    "time": 215.6359300000007,
                    "velocity": 0.3464566929133858,
                    "duration": 0.48061500000000024
                },
                {
                    "name": "D5",
                    "midi": 74,
                    "time": 216.1165450000007,
                    "velocity": 0.4251968503937008,
                    "duration": 0.1602049999999906
                },
                {
                    "name": "D4",
                    "midi": 62,
                    "time": 216.1165450000007,
                    "velocity": 0.29133858267716534,
                    "duration": 0.1602049999999906
                },
                {
                    "name": "D5",
                    "midi": 74,
                    "time": 216.2767500000007,
                    "velocity": 0.4566929133858268,
                    "duration": 0.32041000000000963
                },
                {
                    "name": "D4",
                    "midi": 62,
                    "time": 216.2767500000007,
                    "velocity": 0.3858267716535433,
                    "duration": 0.32041000000000963
                },
                {
                    "name": "C#5",
                    "midi": 73,
                    "time": 216.5971600000007,
                    "velocity": 0.49606299212598426,
                    "duration": 0.48061500000000024
                },
                {
                    "name": "C#4",
                    "midi": 61,
                    "time": 216.5971600000007,
                    "velocity": 0.4094488188976378,
                    "duration": 0.48061500000000024
                },
                {
                    "name": "C5",
                    "midi": 72,
                    "time": 217.0777750000007,
                    "velocity": 0.4330708661417323,
                    "duration": 0.1602049999999906
                },
                {
                    "name": "C4",
                    "midi": 60,
                    "time": 217.0777750000007,
                    "velocity": 0.36220472440944884,
                    "duration": 0.1602049999999906
                },
                {
                    "name": "C5",
                    "midi": 72,
                    "time": 217.2379800000007,
                    "velocity": 0.48031496062992124,
                    "duration": 0.32041000000000963
                },
                {
                    "name": "C4",
                    "midi": 60,
                    "time": 217.2379800000007,
                    "velocity": 0.4015748031496063,
                    "duration": 0.32041000000000963
                },
                {
                    "name": "B4",
                    "midi": 71,
                    "time": 217.5583900000007,
                    "velocity": 0.48031496062992124,
                    "duration": 0.48061500000000024
                },
                {
                    "name": "B3",
                    "midi": 59,
                    "time": 217.5583900000007,
                    "velocity": 0.4094488188976378,
                    "duration": 0.48061500000000024
                },
                {
                    "name": "A#4",
                    "midi": 70,
                    "time": 218.0390050000007,
                    "velocity": 0.48031496062992124,
                    "duration": 0.1602049999999906
                },
                {
                    "name": "A#3",
                    "midi": 58,
                    "time": 218.0390050000007,
                    "velocity": 0.3858267716535433,
                    "duration": 0.1602049999999906
                },
                {
                    "name": "A#4",
                    "midi": 70,
                    "time": 218.1992100000007,
                    "velocity": 0.5196850393700787,
                    "duration": 0.32041000000000963
                },
                {
                    "name": "A#3",
                    "midi": 58,
                    "time": 218.1992100000007,
                    "velocity": 0.4330708661417323,
                    "duration": 0.32041000000000963
                },
                {
                    "name": "A4",
                    "midi": 69,
                    "time": 218.5196200000007,
                    "velocity": 0.5354330708661418,
                    "duration": 0.48061500000000024
                },
                {
                    "name": "A3",
                    "midi": 57,
                    "time": 218.5196200000007,
                    "velocity": 0.4409448818897638,
                    "duration": 0.48061500000000024
                },
                {
                    "name": "G#4",
                    "midi": 68,
                    "time": 219.0002350000007,
                    "velocity": 0.5275590551181102,
                    "duration": 0.1602049999999906
                },
                {
                    "name": "G#3",
                    "midi": 56,
                    "time": 219.0002350000007,
                    "velocity": 0.4330708661417323,
                    "duration": 0.1602049999999906
                },
                {
                    "name": "G#4",
                    "midi": 68,
                    "time": 219.1604400000007,
                    "velocity": 0.5748031496062992,
                    "duration": 0.32041000000000963
                },
                {
                    "name": "G#3",
                    "midi": 56,
                    "time": 219.1604400000007,
                    "velocity": 0.4645669291338583,
                    "duration": 0.32041000000000963
                },
                {
                    "name": "F#4",
                    "midi": 66,
                    "time": 219.48085000000071,
                    "velocity": 0.5748031496062992,
                    "duration": 0.32041000000000963
                },
                {
                    "name": "F#3",
                    "midi": 54,
                    "time": 219.48085000000071,
                    "velocity": 0.48031496062992124,
                    "duration": 0.32041000000000963
                },
                {
                    "name": "A#3",
                    "midi": 58,
                    "time": 219.80126000000072,
                    "velocity": 0.5748031496062992,
                    "duration": 0.32041000000000963
                },
                {
                    "name": "D#3",
                    "midi": 51,
                    "time": 220.12167000000073,
                    "velocity": 0.3700787401574803,
                    "duration": 0.060076874999992924
                },
                {
                    "name": "D#4",
                    "midi": 63,
                    "time": 220.12167000000073,
                    "velocity": 0.4409448818897638,
                    "duration": 0.060076874999992924
                },
                {
                    "name": "D#3",
                    "midi": 51,
                    "time": 220.28187500000072,
                    "velocity": 0.3858267716535433,
                    "duration": 0.060076874999992924
                },
                {
                    "name": "D#4",
                    "midi": 63,
                    "time": 220.28187500000072,
                    "velocity": 0.4566929133858268,
                    "duration": 0.060076874999992924
                },
                {
                    "name": "D#3",
                    "midi": 51,
                    "time": 220.44208000000071,
                    "velocity": 0.4251968503937008,
                    "duration": 0.060076874999992924
                },
                {
                    "name": "D#4",
                    "midi": 63,
                    "time": 220.44208000000071,
                    "velocity": 0.5039370078740157,
                    "duration": 0.060076874999992924
                },
                {
                    "name": "D#3",
                    "midi": 51,
                    "time": 220.6022850000007,
                    "velocity": 0.4409448818897638,
                    "duration": 0.060076874999992924
                },
                {
                    "name": "D#4",
                    "midi": 63,
                    "time": 220.6022850000007,
                    "velocity": 0.5118110236220472,
                    "duration": 0.060076874999992924
                },
                {
                    "name": "D#3",
                    "midi": 51,
                    "time": 220.7624900000007,
                    "velocity": 0.48031496062992124,
                    "duration": 0.32041000000000963
                },
                {
                    "name": "D#4",
                    "midi": 63,
                    "time": 220.7624900000007,
                    "velocity": 0.5669291338582677,
                    "duration": 0.32041000000000963
                },
                {
                    "name": "F3",
                    "midi": 53,
                    "time": 221.0829000000007,
                    "velocity": 0.5275590551181102,
                    "duration": 0.32041000000000963
                },
                {
                    "name": "B3",
                    "midi": 59,
                    "time": 221.0829000000007,
                    "velocity": 0.5275590551181102,
                    "duration": 0.32041000000000963
                },
                {
                    "name": "D#4",
                    "midi": 63,
                    "time": 221.0829000000007,
                    "velocity": 0.5275590551181102,
                    "duration": 0.32041000000000963
                },
                {
                    "name": "F4",
                    "midi": 65,
                    "time": 221.0829000000007,
                    "velocity": 0.6299212598425197,
                    "duration": 0.32041000000000963
                },
                {
                    "name": "F4",
                    "midi": 65,
                    "time": 221.40331000000072,
                    "velocity": 0.4409448818897638,
                    "duration": 0.1602049999999906
                },
                {
                    "name": "B4",
                    "midi": 71,
                    "time": 221.40331000000072,
                    "velocity": 0.4409448818897638,
                    "duration": 0.1602049999999906
                },
                {
                    "name": "D#5",
                    "midi": 75,
                    "time": 221.40331000000072,
                    "velocity": 0.4409448818897638,
                    "duration": 0.1602049999999906
                },
                {
                    "name": "F5",
                    "midi": 77,
                    "time": 221.40331000000072,
                    "velocity": 0.5354330708661418,
                    "duration": 0.1602049999999906
                },
                {
                    "name": "D#4",
                    "midi": 63,
                    "time": 221.5635150000007,
                    "velocity": 0.4330708661417323,
                    "duration": 0.1602049999999906
                },
                {
                    "name": "D#5",
                    "midi": 75,
                    "time": 221.5635150000007,
                    "velocity": 0.5196850393700787,
                    "duration": 0.1602049999999906
                },
                {
                    "name": "F4",
                    "midi": 65,
                    "time": 221.7237200000007,
                    "velocity": 0.4409448818897638,
                    "duration": 0.1602049999999906
                },
                {
                    "name": "A#4",
                    "midi": 70,
                    "time": 221.7237200000007,
                    "velocity": 0.4409448818897638,
                    "duration": 0.1602049999999906
                },
                {
                    "name": "D5",
                    "midi": 74,
                    "time": 221.7237200000007,
                    "velocity": 0.4409448818897638,
                    "duration": 0.1602049999999906
                },
                {
                    "name": "F5",
                    "midi": 77,
                    "time": 221.7237200000007,
                    "velocity": 0.5354330708661418,
                    "duration": 0.1602049999999906
                },
                {
                    "name": "F#4",
                    "midi": 66,
                    "time": 221.8839250000007,
                    "velocity": 0.41732283464566927,
                    "duration": 0.1602049999999906
                },
                {
                    "name": "F#5",
                    "midi": 78,
                    "time": 221.8839250000007,
                    "velocity": 0.5118110236220472,
                    "duration": 0.1602049999999906
                },
                {
                    "name": "F#3",
                    "midi": 54,
                    "time": 222.04413000000068,
                    "velocity": 0.3858267716535433,
                    "duration": 0.060076874999992924
                },
                {
                    "name": "F#4",
                    "midi": 66,
                    "time": 222.04413000000068,
                    "velocity": 0.4645669291338583,
                    "duration": 0.060076874999992924
                },
                {
                    "name": "F#3",
                    "midi": 54,
                    "time": 222.20433500000067,
                    "velocity": 0.4094488188976378,
                    "duration": 0.060076874999992924
                },
                {
                    "name": "F#4",
                    "midi": 66,
                    "time": 222.20433500000067,
                    "velocity": 0.48031496062992124,
                    "duration": 0.060076874999992924
                },
                {
                    "name": "F#3",
                    "midi": 54,
                    "time": 222.36454000000066,
                    "velocity": 0.44881889763779526,
                    "duration": 0.060076874999992924
                },
                {
                    "name": "F#4",
                    "midi": 66,
                    "time": 222.36454000000066,
                    "velocity": 0.5275590551181102,
                    "duration": 0.060076874999992924
                },
                {
                    "name": "F#3",
                    "midi": 54,
                    "time": 222.52474500000065,
                    "velocity": 0.44881889763779526,
                    "duration": 0.060076874999992924
                },
                {
                    "name": "F#4",
                    "midi": 66,
                    "time": 222.52474500000065,
                    "velocity": 0.5196850393700787,
                    "duration": 0.060076874999992924
                },
                {
                    "name": "F#3",
                    "midi": 54,
                    "time": 222.68495000000064,
                    "velocity": 0.5039370078740157,
                    "duration": 0.32041000000000963
                },
                {
                    "name": "F#4",
                    "midi": 66,
                    "time": 222.68495000000064,
                    "velocity": 0.5905511811023622,
                    "duration": 0.32041000000000963
                },
                {
                    "name": "G#3",
                    "midi": 56,
                    "time": 223.00536000000065,
                    "velocity": 0.5275590551181102,
                    "duration": 0.32041000000000963
                },
                {
                    "name": "D4",
                    "midi": 62,
                    "time": 223.00536000000065,
                    "velocity": 0.5433070866141733,
                    "duration": 0.32041000000000963
                },
                {
                    "name": "F#4",
                    "midi": 66,
                    "time": 223.00536000000065,
                    "velocity": 0.5433070866141733,
                    "duration": 0.32041000000000963
                },
                {
                    "name": "G#4",
                    "midi": 68,
                    "time": 223.00536000000065,
                    "velocity": 0.6456692913385826,
                    "duration": 0.32041000000000963
                },
                {
                    "name": "G#4",
                    "midi": 68,
                    "time": 223.32577000000066,
                    "velocity": 0.4645669291338583,
                    "duration": 0.1602049999999906
                },
                {
                    "name": "D5",
                    "midi": 74,
                    "time": 223.32577000000066,
                    "velocity": 0.4645669291338583,
                    "duration": 0.1602049999999906
                },
                {
                    "name": "F#5",
                    "midi": 78,
                    "time": 223.32577000000066,
                    "velocity": 0.4645669291338583,
                    "duration": 0.1602049999999906
                },
                {
                    "name": "G#5",
                    "midi": 80,
                    "time": 223.32577000000066,
                    "velocity": 0.5669291338582677,
                    "duration": 0.1602049999999906
                },
                {
                    "name": "F#4",
                    "midi": 66,
                    "time": 223.48597500000065,
                    "velocity": 0.4566929133858268,
                    "duration": 0.1602049999999906
                },
                {
                    "name": "F#5",
                    "midi": 78,
                    "time": 223.48597500000065,
                    "velocity": 0.5511811023622047,
                    "duration": 0.1602049999999906
                },
                {
                    "name": "G#4",
                    "midi": 68,
                    "time": 223.64618000000064,
                    "velocity": 0.4645669291338583,
                    "duration": 0.1602049999999906
                },
                {
                    "name": "C#5",
                    "midi": 73,
                    "time": 223.64618000000064,
                    "velocity": 0.4645669291338583,
                    "duration": 0.1602049999999906
                },
                {
                    "name": "F5",
                    "midi": 77,
                    "time": 223.64618000000064,
                    "velocity": 0.4645669291338583,
                    "duration": 0.1602049999999906
                },
                {
                    "name": "G#5",
                    "midi": 80,
                    "time": 223.64618000000064,
                    "velocity": 0.5669291338582677,
                    "duration": 0.1602049999999906
                },
                {
                    "name": "A4",
                    "midi": 69,
                    "time": 223.80638500000063,
                    "velocity": 0.4251968503937008,
                    "duration": 0.1602049999999906
                },
                {
                    "name": "A5",
                    "midi": 81,
                    "time": 223.80638500000063,
                    "velocity": 0.5118110236220472,
                    "duration": 0.1602049999999906
                },
                {
                    "name": "A3",
                    "midi": 57,
                    "time": 223.96659000000062,
                    "velocity": 0.3700787401574803,
                    "duration": 0.060076874999992924
                },
                {
                    "name": "A4",
                    "midi": 69,
                    "time": 223.96659000000062,
                    "velocity": 0.4409448818897638,
                    "duration": 0.060076874999992924
                },
                {
                    "name": "A3",
                    "midi": 57,
                    "time": 224.1267950000006,
                    "velocity": 0.4015748031496063,
                    "duration": 0.060076874999992924
                },
                {
                    "name": "A4",
                    "midi": 69,
                    "time": 224.1267950000006,
                    "velocity": 0.47244094488188976,
                    "duration": 0.060076874999992924
                },
                {
                    "name": "A3",
                    "midi": 57,
                    "time": 224.2870000000006,
                    "velocity": 0.4251968503937008,
                    "duration": 0.060076874999992924
                },
                {
                    "name": "A4",
                    "midi": 69,
                    "time": 224.2870000000006,
                    "velocity": 0.5039370078740157,
                    "duration": 0.060076874999992924
                },
                {
                    "name": "A3",
                    "midi": 57,
                    "time": 224.4472050000006,
                    "velocity": 0.4645669291338583,
                    "duration": 0.060076874999992924
                },
                {
                    "name": "A4",
                    "midi": 69,
                    "time": 224.4472050000006,
                    "velocity": 0.5433070866141733,
                    "duration": 0.060076874999992924
                },
                {
                    "name": "A3",
                    "midi": 57,
                    "time": 224.60741000000058,
                    "velocity": 0.5354330708661418,
                    "duration": 0.32041000000000963
                },
                {
                    "name": "A4",
                    "midi": 69,
                    "time": 224.60741000000058,
                    "velocity": 0.6220472440944882,
                    "duration": 0.32041000000000963
                },
                {
                    "name": "A#3",
                    "midi": 58,
                    "time": 224.9278200000006,
                    "velocity": 0.4094488188976378,
                    "duration": 0.060076874999992924
                },
                {
                    "name": "F4",
                    "midi": 65,
                    "time": 224.9278200000006,
                    "velocity": 0.4094488188976378,
                    "duration": 0.060076874999992924
                },
                {
                    "name": "G#4",
                    "midi": 68,
                    "time": 224.9278200000006,
                    "velocity": 0.4094488188976378,
                    "duration": 0.060076874999992924
                },
                {
                    "name": "G#3",
                    "midi": 56,
                    "time": 224.9278200000006,
                    "velocity": 0.4094488188976378,
                    "duration": 0.060076874999992924
                },
                {
                    "name": "A#4",
                    "midi": 70,
                    "time": 224.9278200000006,
                    "velocity": 0.49606299212598426,
                    "duration": 0.060076874999992924
                },
                {
                    "name": "A#3",
                    "midi": 58,
                    "time": 225.08802500000058,
                    "velocity": 0.4330708661417323,
                    "duration": 0.060076874999992924
                },
                {
                    "name": "F4",
                    "midi": 65,
                    "time": 225.08802500000058,
                    "velocity": 0.4330708661417323,
                    "duration": 0.060076874999992924
                },
                {
                    "name": "G#4",
                    "midi": 68,
                    "time": 225.08802500000058,
                    "velocity": 0.4330708661417323,
                    "duration": 0.060076874999992924
                },
                {
                    "name": "G#3",
                    "midi": 56,
                    "time": 225.08802500000058,
                    "velocity": 0.4330708661417323,
                    "duration": 0.060076874999992924
                },
                {
                    "name": "A#4",
                    "midi": 70,
                    "time": 225.08802500000058,
                    "velocity": 0.5196850393700787,
                    "duration": 0.060076874999992924
                },
                {
                    "name": "A#3",
                    "midi": 58,
                    "time": 225.24823000000058,
                    "velocity": 0.44881889763779526,
                    "duration": 0.060076874999992924
                },
                {
                    "name": "F4",
                    "midi": 65,
                    "time": 225.24823000000058,
                    "velocity": 0.44881889763779526,
                    "duration": 0.060076874999992924
                },
                {
                    "name": "G#4",
                    "midi": 68,
                    "time": 225.24823000000058,
                    "velocity": 0.44881889763779526,
                    "duration": 0.060076874999992924
                },
                {
                    "name": "G#3",
                    "midi": 56,
                    "time": 225.24823000000058,
                    "velocity": 0.44881889763779526,
                    "duration": 0.060076874999992924
                },
                {
                    "name": "A#4",
                    "midi": 70,
                    "time": 225.24823000000058,
                    "velocity": 0.5275590551181102,
                    "duration": 0.060076874999992924
                },
                {
                    "name": "A#3",
                    "midi": 58,
                    "time": 225.40843500000057,
                    "velocity": 0.44881889763779526,
                    "duration": 0.060076874999992924
                },
                {
                    "name": "F4",
                    "midi": 65,
                    "time": 225.40843500000057,
                    "velocity": 0.44881889763779526,
                    "duration": 0.060076874999992924
                },
                {
                    "name": "G#4",
                    "midi": 68,
                    "time": 225.40843500000057,
                    "velocity": 0.5354330708661418,
                    "duration": 0.060076874999992924
                },
                {
                    "name": "G#3",
                    "midi": 56,
                    "time": 225.40843500000057,
                    "velocity": 0.44881889763779526,
                    "duration": 0.060076874999992924
                },
                {
                    "name": "A#4",
                    "midi": 70,
                    "time": 225.40843500000057,
                    "velocity": 0.5354330708661418,
                    "duration": 0.060076874999992924
                },
                {
                    "name": "A#3",
                    "midi": 58,
                    "time": 225.56864000000056,
                    "velocity": 0.5354330708661418,
                    "duration": 0.32041000000000963
                },
                {
                    "name": "D4",
                    "midi": 62,
                    "time": 225.56864000000056,
                    "velocity": 0.5354330708661418,
                    "duration": 0.32041000000000963
                },
                {
                    "name": "G#4",
                    "midi": 68,
                    "time": 225.56864000000056,
                    "velocity": 0.5354330708661418,
                    "duration": 0.32041000000000963
                },
                {
                    "name": "G#3",
                    "midi": 56,
                    "time": 225.56864000000056,
                    "velocity": 0.5354330708661418,
                    "duration": 0.32041000000000963
                },
                {
                    "name": "A#4",
                    "midi": 70,
                    "time": 225.56864000000056,
                    "velocity": 0.6377952755905512,
                    "duration": 0.32041000000000963
                },
                {
                    "name": "A#3",
                    "midi": 58,
                    "time": 225.88905000000057,
                    "velocity": 0.4094488188976378,
                    "duration": 0.060076874999992924
                },
                {
                    "name": "D#4",
                    "midi": 63,
                    "time": 225.88905000000057,
                    "velocity": 0.4094488188976378,
                    "duration": 0.060076874999992924
                },
                {
                    "name": "F#4",
                    "midi": 66,
                    "time": 225.88905000000057,
                    "velocity": 0.4094488188976378,
                    "duration": 0.060076874999992924
                },
                {
                    "name": "A#4",
                    "midi": 70,
                    "time": 225.88905000000057,
                    "velocity": 0.49606299212598426,
                    "duration": 0.060076874999992924
                },
                {
                    "name": "A#3",
                    "midi": 58,
                    "time": 226.04925500000056,
                    "velocity": 0.4330708661417323,
                    "duration": 0.060076874999992924
                },
                {
                    "name": "D#4",
                    "midi": 63,
                    "time": 226.04925500000056,
                    "velocity": 0.4330708661417323,
                    "duration": 0.060076874999992924
                },
                {
                    "name": "F#4",
                    "midi": 66,
                    "time": 226.04925500000056,
                    "velocity": 0.4330708661417323,
                    "duration": 0.060076874999992924
                },
                {
                    "name": "A#4",
                    "midi": 70,
                    "time": 226.04925500000056,
                    "velocity": 0.5196850393700787,
                    "duration": 0.060076874999992924
                },
                {
                    "name": "D#4",
                    "midi": 63,
                    "time": 226.20946000000055,
                    "velocity": 0.44881889763779526,
                    "duration": 0.060076874999992924
                },
                {
                    "name": "F#4",
                    "midi": 66,
                    "time": 226.20946000000055,
                    "velocity": 0.44881889763779526,
                    "duration": 0.060076874999992924
                },
                {
                    "name": "A#4",
                    "midi": 70,
                    "time": 226.20946000000055,
                    "velocity": 0.5275590551181102,
                    "duration": 0.060076874999992924
                },
                {
                    "name": "D#4",
                    "midi": 63,
                    "time": 226.36966500000054,
                    "velocity": 0.4409448818897638,
                    "duration": 0.060076874999992924
                },
                {
                    "name": "F#4",
                    "midi": 66,
                    "time": 226.36966500000054,
                    "velocity": 0.4409448818897638,
                    "duration": 0.060076874999992924
                },
                {
                    "name": "A#4",
                    "midi": 70,
                    "time": 226.36966500000054,
                    "velocity": 0.5275590551181102,
                    "duration": 0.060076874999992924
                },
                {
                    "name": "D#4",
                    "midi": 63,
                    "time": 226.52987000000053,
                    "velocity": 0.5511811023622047,
                    "duration": 0.32041000000000963
                },
                {
                    "name": "F#4",
                    "midi": 66,
                    "time": 226.52987000000053,
                    "velocity": 0.5669291338582677,
                    "duration": 0.32041000000000963
                },
                {
                    "name": "A#4",
                    "midi": 70,
                    "time": 226.52987000000053,
                    "velocity": 0.6692913385826772,
                    "duration": 0.32041000000000963
                },
                {
                    "name": "A#3",
                    "midi": 58,
                    "time": 226.85028000000054,
                    "velocity": 0.5196850393700787,
                    "duration": 0.32041000000000963
                },
                {
                    "name": "D#4",
                    "midi": 63,
                    "time": 226.85028000000054,
                    "velocity": 0.5196850393700787,
                    "duration": 0.32041000000000963
                },
                {
                    "name": "A#4",
                    "midi": 70,
                    "time": 226.85028000000054,
                    "velocity": 0.6141732283464567,
                    "duration": 0.32041000000000963
                },
                {
                    "name": "G#3",
                    "midi": 56,
                    "time": 227.17069000000055,
                    "velocity": 0.5196850393700787,
                    "duration": 0.32041000000000963
                },
                {
                    "name": "D#4",
                    "midi": 63,
                    "time": 227.17069000000055,
                    "velocity": 0.5196850393700787,
                    "duration": 0.32041000000000963
                },
                {
                    "name": "G#4",
                    "midi": 68,
                    "time": 227.17069000000055,
                    "velocity": 0.6141732283464567,
                    "duration": 0.32041000000000963
                },
                {
                    "name": "F#3",
                    "midi": 54,
                    "time": 227.49110000000056,
                    "velocity": 0.49606299212598426,
                    "duration": 0.32041000000000963
                },
                {
                    "name": "A3",
                    "midi": 57,
                    "time": 227.49110000000056,
                    "velocity": 0.49606299212598426,
                    "duration": 0.32041000000000963
                },
                {
                    "name": "D#4",
                    "midi": 63,
                    "time": 227.49110000000056,
                    "velocity": 0.49606299212598426,
                    "duration": 0.32041000000000963
                },
                {
                    "name": "F#4",
                    "midi": 66,
                    "time": 227.49110000000056,
                    "velocity": 0.5826771653543307,
                    "duration": 0.32041000000000963
                },
                {
                    "name": "A#3",
                    "midi": 58,
                    "time": 227.81151000000057,
                    "velocity": 0.4094488188976378,
                    "duration": 0.1602049999999906
                },
                {
                    "name": "C#4",
                    "midi": 61,
                    "time": 227.81151000000057,
                    "velocity": 0.4094488188976378,
                    "duration": 0.1602049999999906
                },
                {
                    "name": "F4",
                    "midi": 65,
                    "time": 227.81151000000057,
                    "velocity": 0.48031496062992124,
                    "duration": 0.1602049999999906
                },
                {
                    "name": "C#4",
                    "midi": 61,
                    "time": 227.97171500000056,
                    "velocity": 0.4645669291338583,
                    "duration": 0.1602049999999906
                },
                {
                    "name": "F#4",
                    "midi": 66,
                    "time": 228.13192000000055,
                    "velocity": 0.5196850393700787,
                    "duration": 0.1602049999999906
                },
                {
                    "name": "C#5",
                    "midi": 73,
                    "time": 228.13192000000055,
                    "velocity": 0.6141732283464567,
                    "duration": 0.1602049999999906
                },
                {
                    "name": "F#4",
                    "midi": 66,
                    "time": 228.29212500000054,
                    "velocity": 0.5905511811023622,
                    "duration": 0.1602049999999906
                },
                {
                    "name": "A#4",
                    "midi": 70,
                    "time": 228.45233000000053,
                    "velocity": 0.5433070866141733,
                    "duration": 0.1602049999999906
                },
                {
                    "name": "F#5",
                    "midi": 78,
                    "time": 228.45233000000053,
                    "velocity": 0.6456692913385826,
                    "duration": 0.1602049999999906
                },
                {
                    "name": "A#4",
                    "midi": 70,
                    "time": 228.61253500000052,
                    "velocity": 0.5905511811023622,
                    "duration": 0.1602049999999906
                },
                {
                    "name": "C#5",
                    "midi": 73,
                    "time": 228.7727400000005,
                    "velocity": 0.5118110236220472,
                    "duration": 0.1602049999999906
                },
                {
                    "name": "A#5",
                    "midi": 82,
                    "time": 228.7727400000005,
                    "velocity": 0.5984251968503937,
                    "duration": 0.1602049999999906
                },
                {
                    "name": "C#5",
                    "midi": 73,
                    "time": 228.9329450000005,
                    "velocity": 0.5590551181102362,
                    "duration": 0.1602049999999906
                },
                {
                    "name": "F#5",
                    "midi": 78,
                    "time": 229.0931500000005,
                    "velocity": 0.5196850393700787,
                    "duration": 0.1602049999999906
                },
                {
                    "name": "C#6",
                    "midi": 85,
                    "time": 229.0931500000005,
                    "velocity": 0.6141732283464567,
                    "duration": 0.1602049999999906
                },
                {
                    "name": "F#5",
                    "midi": 78,
                    "time": 229.25335500000048,
                    "velocity": 0.5905511811023622,
                    "duration": 0.1602049999999906
                },
                {
                    "name": "A#5",
                    "midi": 82,
                    "time": 229.41356000000047,
                    "velocity": 0.5433070866141733,
                    "duration": 0.1602049999999906
                },
                {
                    "name": "F#6",
                    "midi": 90,
                    "time": 229.41356000000047,
                    "velocity": 0.6456692913385826,
                    "duration": 0.1602049999999906
                },
                {
                    "name": "A#5",
                    "midi": 82,
                    "time": 229.57376500000046,
                    "velocity": 0.5905511811023622,
                    "duration": 0.1602049999999906
                },
                {
                    "name": "C#6",
                    "midi": 85,
                    "time": 229.73397000000045,
                    "velocity": 0.5433070866141733,
                    "duration": 0.32041000000000963
                },
                {
                    "name": "A#5",
                    "midi": 82,
                    "time": 229.73397000000045,
                    "velocity": 0.5433070866141733,
                    "duration": 0.32041000000000963
                },
                {
                    "name": "A#6",
                    "midi": 94,
                    "time": 229.73397000000045,
                    "velocity": 0.6456692913385826,
                    "duration": 0.32041000000000963
                },
                {
                    "name": "C#6",
                    "midi": 85,
                    "time": 230.05438000000046,
                    "velocity": 0.5196850393700787,
                    "duration": 0.32041000000000963
                },
                {
                    "name": "G#5",
                    "midi": 80,
                    "time": 230.05438000000046,
                    "velocity": 0.5039370078740157,
                    "duration": 0.32041000000000963
                },
                {
                    "name": "G#6",
                    "midi": 92,
                    "time": 230.05438000000046,
                    "velocity": 0.5984251968503937,
                    "duration": 0.32041000000000963
                },
                {
                    "name": "C#6",
                    "midi": 85,
                    "time": 230.37479000000047,
                    "velocity": 0.5748031496062992,
                    "duration": 0.32041000000000963
                },
                {
                    "name": "G#5",
                    "midi": 80,
                    "time": 230.37479000000047,
                    "velocity": 0.48031496062992124,
                    "duration": 0.32041000000000963
                },
                {
                    "name": "C#5",
                    "midi": 73,
                    "time": 230.37479000000047,
                    "velocity": 0.48031496062992124,
                    "duration": 0.32041000000000963
                },
                {
                    "name": "C#5",
                    "midi": 73,
                    "time": 230.69520000000048,
                    "velocity": 0.44881889763779526,
                    "duration": 0.32041000000000963
                },
                {
                    "name": "G#5",
                    "midi": 80,
                    "time": 230.69520000000048,
                    "velocity": 0.48031496062992124,
                    "duration": 0.32041000000000963
                },
                {
                    "name": "C#6",
                    "midi": 85,
                    "time": 230.69520000000048,
                    "velocity": 0.5905511811023622,
                    "duration": 0.6408200000000193
                },
                {
                    "name": "F#6",
                    "midi": 90,
                    "time": 231.0156100000005,
                    "velocity": 0.5354330708661418,
                    "duration": 0.32041000000000963
                },
                {
                    "name": "F#5",
                    "midi": 78,
                    "time": 231.0156100000005,
                    "velocity": 0.4566929133858268,
                    "duration": 0.32041000000000963
                },
                {
                    "name": "C#5",
                    "midi": 73,
                    "time": 231.3360200000005,
                    "velocity": 0.4409448818897638,
                    "duration": 0.32041000000000963
                },
                {
                    "name": "G#4",
                    "midi": 68,
                    "time": 231.3360200000005,
                    "velocity": 0.3858267716535433,
                    "duration": 0.32041000000000963
                },
                {
                    "name": "C#4",
                    "midi": 61,
                    "time": 231.3360200000005,
                    "velocity": 0.31496062992125984,
                    "duration": 0.32041000000000963
                },
                {
                    "name": "C#4",
                    "midi": 61,
                    "time": 231.6564300000005,
                    "velocity": 0.31496062992125984,
                    "duration": 0.32041000000000963
                },
                {
                    "name": "G#4",
                    "midi": 68,
                    "time": 231.6564300000005,
                    "velocity": 0.3779527559055118,
                    "duration": 0.32041000000000963
                },
                {
                    "name": "C#5",
                    "midi": 73,
                    "time": 231.6564300000005,
                    "velocity": 0.4409448818897638,
                    "duration": 0.6408200000000193
                },
                {
                    "name": "F#5",
                    "midi": 78,
                    "time": 231.97684000000052,
                    "velocity": 0.4409448818897638,
                    "duration": 0.32041000000000963
                },
                {
                    "name": "F#4",
                    "midi": 66,
                    "time": 231.97684000000052,
                    "velocity": 0.3858267716535433,
                    "duration": 0.32041000000000963
                },
                {
                    "name": "C#5",
                    "midi": 73,
                    "time": 232.29725000000053,
                    "velocity": 0.4330708661417323,
                    "duration": 0.32041000000000963
                },
                {
                    "name": "G#4",
                    "midi": 68,
                    "time": 232.29725000000053,
                    "velocity": 0.36220472440944884,
                    "duration": 0.32041000000000963
                },
                {
                    "name": "C#4",
                    "midi": 61,
                    "time": 232.29725000000053,
                    "velocity": 0.2992125984251969,
                    "duration": 0.32041000000000963
                },
                {
                    "name": "C#4",
                    "midi": 61,
                    "time": 232.61766000000054,
                    "velocity": 0.31496062992125984,
                    "duration": 0.32041000000000963
                },
                {
                    "name": "G#4",
                    "midi": 68,
                    "time": 232.61766000000054,
                    "velocity": 0.3779527559055118,
                    "duration": 0.32041000000000963
                },
                {
                    "name": "C#5",
                    "midi": 73,
                    "time": 232.61766000000054,
                    "velocity": 0.4330708661417323,
                    "duration": 0.6408200000000193
                },
                {
                    "name": "F#5",
                    "midi": 78,
                    "time": 232.93807000000055,
                    "velocity": 0.4409448818897638,
                    "duration": 0.32041000000000963
                },
                {
                    "name": "F#4",
                    "midi": 66,
                    "time": 232.93807000000055,
                    "velocity": 0.3779527559055118,
                    "duration": 0.32041000000000963
                },
                {
                    "name": "C#4",
                    "midi": 61,
                    "time": 233.25848000000056,
                    "velocity": 0.4094488188976378,
                    "duration": 0.32041000000000963
                },
                {
                    "name": "C#5",
                    "midi": 73,
                    "time": 233.25848000000056,
                    "velocity": 0.4094488188976378,
                    "duration": 0.32041000000000963
                },
                {
                    "name": "C#4",
                    "midi": 61,
                    "time": 233.57889000000057,
                    "velocity": 0.4015748031496063,
                    "duration": 0.9612300000000005
                },
                {
                    "name": "C#5",
                    "midi": 73,
                    "time": 233.57889000000057,
                    "velocity": 0.4409448818897638,
                    "duration": 0.9612300000000005
                },
                {
                    "name": "A#3",
                    "midi": 58,
                    "time": 234.54012000000057,
                    "velocity": 0.36220472440944884,
                    "duration": 3.844920000000002
                },
                {
                    "name": "A#4",
                    "midi": 70,
                    "time": 234.54012000000057,
                    "velocity": 0.41732283464566927,
                    "duration": 3.844920000000002
                },
                {
                    "name": "D#3",
                    "midi": 51,
                    "time": 239.34627000000057,
                    "velocity": 0.4094488188976378,
                    "duration": 0.060076874999992924
                },
                {
                    "name": "D#4",
                    "midi": 63,
                    "time": 239.34627000000057,
                    "velocity": 0.49606299212598426,
                    "duration": 0.060076874999992924
                },
                {
                    "name": "D#3",
                    "midi": 51,
                    "time": 239.50647500000056,
                    "velocity": 0.4330708661417323,
                    "duration": 0.060076874999992924
                },
                {
                    "name": "D#4",
                    "midi": 63,
                    "time": 239.50647500000056,
                    "velocity": 0.5196850393700787,
                    "duration": 0.060076874999992924
                },
                {
                    "name": "D#3",
                    "midi": 51,
                    "time": 239.66668000000055,
                    "velocity": 0.44881889763779526,
                    "duration": 0.060076874999992924
                },
                {
                    "name": "D#4",
                    "midi": 63,
                    "time": 239.66668000000055,
                    "velocity": 0.5275590551181102,
                    "duration": 0.060076874999992924
                },
                {
                    "name": "D#3",
                    "midi": 51,
                    "time": 239.82688500000054,
                    "velocity": 0.4645669291338583,
                    "duration": 0.060076874999992924
                },
                {
                    "name": "D#4",
                    "midi": 63,
                    "time": 239.82688500000054,
                    "velocity": 0.5354330708661418,
                    "duration": 0.060076874999992924
                },
                {
                    "name": "D#3",
                    "midi": 51,
                    "time": 239.98709000000053,
                    "velocity": 0.5433070866141733,
                    "duration": 0.32041000000000963
                },
                {
                    "name": "D#4",
                    "midi": 63,
                    "time": 239.98709000000053,
                    "velocity": 0.6299212598425197,
                    "duration": 0.32041000000000963
                },
                {
                    "name": "F3",
                    "midi": 53,
                    "time": 240.30750000000054,
                    "velocity": 0.5905511811023622,
                    "duration": 0.32041000000000963
                },
                {
                    "name": "B3",
                    "midi": 59,
                    "time": 240.30750000000054,
                    "velocity": 0.5905511811023622,
                    "duration": 0.32041000000000963
                },
                {
                    "name": "D#4",
                    "midi": 63,
                    "time": 240.30750000000054,
                    "velocity": 0.5905511811023622,
                    "duration": 0.32041000000000963
                },
                {
                    "name": "F4",
                    "midi": 65,
                    "time": 240.30750000000054,
                    "velocity": 0.7086614173228346,
                    "duration": 0.32041000000000963
                },
                {
                    "name": "F4",
                    "midi": 65,
                    "time": 240.62791000000055,
                    "velocity": 0.49606299212598426,
                    "duration": 0.1602049999999906
                },
                {
                    "name": "B4",
                    "midi": 71,
                    "time": 240.62791000000055,
                    "velocity": 0.49606299212598426,
                    "duration": 0.1602049999999906
                },
                {
                    "name": "D#5",
                    "midi": 75,
                    "time": 240.62791000000055,
                    "velocity": 0.49606299212598426,
                    "duration": 0.1602049999999906
                },
                {
                    "name": "F5",
                    "midi": 77,
                    "time": 240.62791000000055,
                    "velocity": 0.5984251968503937,
                    "duration": 0.1602049999999906
                },
                {
                    "name": "D#4",
                    "midi": 63,
                    "time": 240.78811500000054,
                    "velocity": 0.48031496062992124,
                    "duration": 0.1602049999999906
                },
                {
                    "name": "D#5",
                    "midi": 75,
                    "time": 240.78811500000054,
                    "velocity": 0.5826771653543307,
                    "duration": 0.1602049999999906
                },
                {
                    "name": "F4",
                    "midi": 65,
                    "time": 240.94832000000054,
                    "velocity": 0.49606299212598426,
                    "duration": 0.1602049999999906
                },
                {
                    "name": "A#4",
                    "midi": 70,
                    "time": 240.94832000000054,
                    "velocity": 0.49606299212598426,
                    "duration": 0.1602049999999906
                },
                {
                    "name": "D5",
                    "midi": 74,
                    "time": 240.94832000000054,
                    "velocity": 0.49606299212598426,
                    "duration": 0.1602049999999906
                },
                {
                    "name": "F5",
                    "midi": 77,
                    "time": 240.94832000000054,
                    "velocity": 0.5984251968503937,
                    "duration": 0.1602049999999906
                },
                {
                    "name": "F#4",
                    "midi": 66,
                    "time": 241.10852500000053,
                    "velocity": 0.4645669291338583,
                    "duration": 0.1602049999999906
                },
                {
                    "name": "F#5",
                    "midi": 78,
                    "time": 241.10852500000053,
                    "velocity": 0.5669291338582677,
                    "duration": 0.1602049999999906
                },
                {
                    "name": "F#3",
                    "midi": 54,
                    "time": 241.26873000000052,
                    "velocity": 0.4094488188976378,
                    "duration": 0.060076874999992924
                },
                {
                    "name": "F#4",
                    "midi": 66,
                    "time": 241.26873000000052,
                    "velocity": 0.49606299212598426,
                    "duration": 0.060076874999992924
                },
                {
                    "name": "F#3",
                    "midi": 54,
                    "time": 241.4289350000005,
                    "velocity": 0.4330708661417323,
                    "duration": 0.060076874999992924
                },
                {
                    "name": "F#4",
                    "midi": 66,
                    "time": 241.4289350000005,
                    "velocity": 0.5196850393700787,
                    "duration": 0.060076874999992924
                },
                {
                    "name": "F#3",
                    "midi": 54,
                    "time": 241.5891400000005,
                    "velocity": 0.44881889763779526,
                    "duration": 0.060076874999992924
                },
                {
                    "name": "F#4",
                    "midi": 66,
                    "time": 241.5891400000005,
                    "velocity": 0.5275590551181102,
                    "duration": 0.060076874999992924
                },
                {
                    "name": "F#3",
                    "midi": 54,
                    "time": 241.7493450000005,
                    "velocity": 0.44881889763779526,
                    "duration": 0.060076874999992924
                },
                {
                    "name": "F#4",
                    "midi": 66,
                    "time": 241.7493450000005,
                    "velocity": 0.5196850393700787,
                    "duration": 0.060076874999992924
                },
                {
                    "name": "F#3",
                    "midi": 54,
                    "time": 241.90955000000048,
                    "velocity": 0.5354330708661418,
                    "duration": 0.32041000000000963
                },
                {
                    "name": "F#4",
                    "midi": 66,
                    "time": 241.90955000000048,
                    "velocity": 0.6220472440944882,
                    "duration": 0.32041000000000963
                },
                {
                    "name": "G#3",
                    "midi": 56,
                    "time": 242.2299600000005,
                    "velocity": 0.5669291338582677,
                    "duration": 0.32041000000000963
                },
                {
                    "name": "D4",
                    "midi": 62,
                    "time": 242.2299600000005,
                    "velocity": 0.5748031496062992,
                    "duration": 0.32041000000000963
                },
                {
                    "name": "F#4",
                    "midi": 66,
                    "time": 242.2299600000005,
                    "velocity": 0.5905511811023622,
                    "duration": 0.32041000000000963
                },
                {
                    "name": "G#4",
                    "midi": 68,
                    "time": 242.2299600000005,
                    "velocity": 0.6850393700787402,
                    "duration": 0.32041000000000963
                },
                {
                    "name": "G#4",
                    "midi": 68,
                    "time": 242.5503700000005,
                    "velocity": 0.49606299212598426,
                    "duration": 0.1602049999999906
                },
                {
                    "name": "D5",
                    "midi": 74,
                    "time": 242.5503700000005,
                    "velocity": 0.49606299212598426,
                    "duration": 0.1602049999999906
                },
                {
                    "name": "F#5",
                    "midi": 78,
                    "time": 242.5503700000005,
                    "velocity": 0.49606299212598426,
                    "duration": 0.1602049999999906
                },
                {
                    "name": "G#5",
                    "midi": 80,
                    "time": 242.5503700000005,
                    "velocity": 0.5984251968503937,
                    "duration": 0.1602049999999906
                },
                {
                    "name": "F#4",
                    "midi": 66,
                    "time": 242.7105750000005,
                    "velocity": 0.48031496062992124,
                    "duration": 0.1602049999999906
                },
                {
                    "name": "F#5",
                    "midi": 78,
                    "time": 242.7105750000005,
                    "velocity": 0.5826771653543307,
                    "duration": 0.1602049999999906
                },
                {
                    "name": "G#4",
                    "midi": 68,
                    "time": 242.87078000000048,
                    "velocity": 0.49606299212598426,
                    "duration": 0.1602049999999906
                },
                {
                    "name": "C#5",
                    "midi": 73,
                    "time": 242.87078000000048,
                    "velocity": 0.49606299212598426,
                    "duration": 0.1602049999999906
                },
                {
                    "name": "F5",
                    "midi": 77,
                    "time": 242.87078000000048,
                    "velocity": 0.49606299212598426,
                    "duration": 0.1602049999999906
                },
                {
                    "name": "G#5",
                    "midi": 80,
                    "time": 242.87078000000048,
                    "velocity": 0.5984251968503937,
                    "duration": 0.1602049999999906
                },
                {
                    "name": "A4",
                    "midi": 69,
                    "time": 243.03098500000047,
                    "velocity": 0.4566929133858268,
                    "duration": 0.1602049999999906
                },
                {
                    "name": "A5",
                    "midi": 81,
                    "time": 243.03098500000047,
                    "velocity": 0.5590551181102362,
                    "duration": 0.1602049999999906
                },
                {
                    "name": "A3",
                    "midi": 57,
                    "time": 243.19119000000046,
                    "velocity": 0.3700787401574803,
                    "duration": 0.060076874999992924
                },
                {
                    "name": "A4",
                    "midi": 69,
                    "time": 243.19119000000046,
                    "velocity": 0.4409448818897638,
                    "duration": 0.060076874999992924
                },
                {
                    "name": "A3",
                    "midi": 57,
                    "time": 243.35139500000045,
                    "velocity": 0.4015748031496063,
                    "duration": 0.060076874999992924
                },
                {
                    "name": "A4",
                    "midi": 69,
                    "time": 243.35139500000045,
                    "velocity": 0.47244094488188976,
                    "duration": 0.060076874999992924
                },
                {
                    "name": "A3",
                    "midi": 57,
                    "time": 243.51160000000044,
                    "velocity": 0.4251968503937008,
                    "duration": 0.060076874999992924
                },
                {
                    "name": "A4",
                    "midi": 69,
                    "time": 243.51160000000044,
                    "velocity": 0.5039370078740157,
                    "duration": 0.060076874999992924
                },
                {
                    "name": "A3",
                    "midi": 57,
                    "time": 243.67180500000043,
                    "velocity": 0.44881889763779526,
                    "duration": 0.060076874999992924
                },
                {
                    "name": "A4",
                    "midi": 69,
                    "time": 243.67180500000043,
                    "velocity": 0.5354330708661418,
                    "duration": 0.060076874999992924
                },
                {
                    "name": "A3",
                    "midi": 57,
                    "time": 243.83201000000042,
                    "velocity": 0.5354330708661418,
                    "duration": 0.32041000000000963
                },
                {
                    "name": "A4",
                    "midi": 69,
                    "time": 243.83201000000042,
                    "velocity": 0.6299212598425197,
                    "duration": 0.32041000000000963
                },
                {
                    "name": "B3",
                    "midi": 59,
                    "time": 244.15242000000043,
                    "velocity": 0.41732283464566927,
                    "duration": 0.060076874999992924
                },
                {
                    "name": "F4",
                    "midi": 65,
                    "time": 244.15242000000043,
                    "velocity": 0.41732283464566927,
                    "duration": 0.060076874999992924
                },
                {
                    "name": "A4",
                    "midi": 69,
                    "time": 244.15242000000043,
                    "velocity": 0.41732283464566927,
                    "duration": 0.060076874999992924
                },
                {
                    "name": "B4",
                    "midi": 71,
                    "time": 244.15242000000043,
                    "velocity": 0.5039370078740157,
                    "duration": 0.060076874999992924
                },
                {
                    "name": "B3",
                    "midi": 59,
                    "time": 244.31262500000042,
                    "velocity": 0.4409448818897638,
                    "duration": 0.060076874999992924
                },
                {
                    "name": "F4",
                    "midi": 65,
                    "time": 244.31262500000042,
                    "velocity": 0.4409448818897638,
                    "duration": 0.060076874999992924
                },
                {
                    "name": "A4",
                    "midi": 69,
                    "time": 244.31262500000042,
                    "velocity": 0.4409448818897638,
                    "duration": 0.060076874999992924
                },
                {
                    "name": "B4",
                    "midi": 71,
                    "time": 244.31262500000042,
                    "velocity": 0.5275590551181102,
                    "duration": 0.060076874999992924
                },
                {
                    "name": "B3",
                    "midi": 59,
                    "time": 244.4728300000004,
                    "velocity": 0.47244094488188976,
                    "duration": 0.060076874999992924
                },
                {
                    "name": "F4",
                    "midi": 65,
                    "time": 244.4728300000004,
                    "velocity": 0.47244094488188976,
                    "duration": 0.060076874999992924
                },
                {
                    "name": "A4",
                    "midi": 69,
                    "time": 244.4728300000004,
                    "velocity": 0.47244094488188976,
                    "duration": 0.060076874999992924
                },
                {
                    "name": "B4",
                    "midi": 71,
                    "time": 244.4728300000004,
                    "velocity": 0.5590551181102362,
                    "duration": 0.060076874999992924
                },
                {
                    "name": "B3",
                    "midi": 59,
                    "time": 244.6330350000004,
                    "velocity": 0.47244094488188976,
                    "duration": 0.060076874999992924
                },
                {
                    "name": "F4",
                    "midi": 65,
                    "time": 244.6330350000004,
                    "velocity": 0.47244094488188976,
                    "duration": 0.060076874999992924
                },
                {
                    "name": "A4",
                    "midi": 69,
                    "time": 244.6330350000004,
                    "velocity": 0.5669291338582677,
                    "duration": 0.060076874999992924
                },
                {
                    "name": "B4",
                    "midi": 71,
                    "time": 244.6330350000004,
                    "velocity": 0.5669291338582677,
                    "duration": 0.060076874999992924
                },
                {
                    "name": "B3",
                    "midi": 59,
                    "time": 244.7932400000004,
                    "velocity": 0.5354330708661418,
                    "duration": 0.32041000000000963
                },
                {
                    "name": "F4",
                    "midi": 65,
                    "time": 244.7932400000004,
                    "velocity": 0.5354330708661418,
                    "duration": 0.32041000000000963
                },
                {
                    "name": "A4",
                    "midi": 69,
                    "time": 244.7932400000004,
                    "velocity": 0.5354330708661418,
                    "duration": 0.32041000000000963
                },
                {
                    "name": "B4",
                    "midi": 71,
                    "time": 244.7932400000004,
                    "velocity": 0.6377952755905512,
                    "duration": 0.32041000000000963
                },
                {
                    "name": "C4",
                    "midi": 60,
                    "time": 245.1136500000004,
                    "velocity": 0.4251968503937008,
                    "duration": 0.060076874999992924
                },
                {
                    "name": "D#4",
                    "midi": 63,
                    "time": 245.1136500000004,
                    "velocity": 0.4251968503937008,
                    "duration": 0.060076874999992924
                },
                {
                    "name": "A4",
                    "midi": 69,
                    "time": 245.1136500000004,
                    "velocity": 0.4251968503937008,
                    "duration": 0.060076874999992924
                },
                {
                    "name": "C5",
                    "midi": 72,
                    "time": 245.1136500000004,
                    "velocity": 0.5196850393700787,
                    "duration": 0.060076874999992924
                },
                {
                    "name": "C4",
                    "midi": 60,
                    "time": 245.2738550000004,
                    "velocity": 0.44881889763779526,
                    "duration": 0.060076874999992924
                },
                {
                    "name": "D#4",
                    "midi": 63,
                    "time": 245.2738550000004,
                    "velocity": 0.44881889763779526,
                    "duration": 0.060076874999992924
                },
                {
                    "name": "A4",
                    "midi": 69,
                    "time": 245.2738550000004,
                    "velocity": 0.44881889763779526,
                    "duration": 0.060076874999992924
                },
                {
                    "name": "C5",
                    "midi": 72,
                    "time": 245.2738550000004,
                    "velocity": 0.5433070866141733,
                    "duration": 0.060076874999992924
                },
                {
                    "name": "C4",
                    "midi": 60,
                    "time": 245.4340600000004,
                    "velocity": 0.49606299212598426,
                    "duration": 0.060076874999992924
                },
                {
                    "name": "D#4",
                    "midi": 63,
                    "time": 245.4340600000004,
                    "velocity": 0.49606299212598426,
                    "duration": 0.060076874999992924
                },
                {
                    "name": "C5",
                    "midi": 72,
                    "time": 245.4340600000004,
                    "velocity": 0.5826771653543307,
                    "duration": 0.060076874999992924
                },
                {
                    "name": "C4",
                    "midi": 60,
                    "time": 245.59426500000038,
                    "velocity": 0.4330708661417323,
                    "duration": 0.060076874999992924
                },
                {
                    "name": "D#4",
                    "midi": 63,
                    "time": 245.59426500000038,
                    "velocity": 0.4330708661417323,
                    "duration": 0.060076874999992924
                },
                {
                    "name": "C5",
                    "midi": 72,
                    "time": 245.59426500000038,
                    "velocity": 0.5984251968503937,
                    "duration": 0.060076874999992924
                },
                {
                    "name": "F#4",
                    "midi": 66,
                    "time": 245.75447000000037,
                    "velocity": 0.5748031496062992,
                    "duration": 0.32041000000000963
                },
                {
                    "name": "C4",
                    "midi": 60,
                    "time": 245.75447000000037,
                    "velocity": 0.5748031496062992,
                    "duration": 0.32041000000000963
                },
                {
                    "name": "D#4",
                    "midi": 63,
                    "time": 245.75447000000037,
                    "velocity": 0.5748031496062992,
                    "duration": 0.32041000000000963
                },
                {
                    "name": "C5",
                    "midi": 72,
                    "time": 245.75447000000037,
                    "velocity": 0.6771653543307087,
                    "duration": 0.32041000000000963
                },
                {
                    "name": "E4",
                    "midi": 64,
                    "time": 246.07488000000038,
                    "velocity": 0.5433070866141733,
                    "duration": 0.32041000000000963
                },
                {
                    "name": "F#4",
                    "midi": 66,
                    "time": 246.07488000000038,
                    "velocity": 0.5433070866141733,
                    "duration": 0.32041000000000963
                },
                {
                    "name": "A4",
                    "midi": 69,
                    "time": 246.07488000000038,
                    "velocity": 0.5433070866141733,
                    "duration": 0.32041000000000963
                },
                {
                    "name": "E5",
                    "midi": 76,
                    "time": 246.07488000000038,
                    "velocity": 0.6377952755905512,
                    "duration": 0.32041000000000963
                },
                {
                    "name": "D4",
                    "midi": 62,
                    "time": 246.3952900000004,
                    "velocity": 0.5433070866141733,
                    "duration": 0.32041000000000963
                },
                {
                    "name": "G4",
                    "midi": 67,
                    "time": 246.3952900000004,
                    "velocity": 0.5433070866141733,
                    "duration": 0.32041000000000963
                },
                {
                    "name": "D5",
                    "midi": 74,
                    "time": 246.3952900000004,
                    "velocity": 0.6377952755905512,
                    "duration": 0.32041000000000963
                },
                {
                    "name": "D3",
                    "midi": 50,
                    "time": 246.7157000000004,
                    "velocity": 0.5669291338582677,
                    "duration": 0.32041000000000963
                },
                {
                    "name": "D4",
                    "midi": 62,
                    "time": 246.7157000000004,
                    "velocity": 0.6692913385826772,
                    "duration": 0.32041000000000963
                },
                {
                    "name": "C#4",
                    "midi": 61,
                    "time": 247.0361100000004,
                    "velocity": 0.48031496062992124,
                    "duration": 0.1602049999999906
                },
                {
                    "name": "C#4",
                    "midi": 61,
                    "time": 247.1963150000004,
                    "velocity": 0.4645669291338583,
                    "duration": 0.1602049999999906
                },
                {
                    "name": "F#4",
                    "midi": 66,
                    "time": 247.3565200000004,
                    "velocity": 0.5196850393700787,
                    "duration": 0.1602049999999906
                },
                {
                    "name": "C#5",
                    "midi": 73,
                    "time": 247.3565200000004,
                    "velocity": 0.6141732283464567,
                    "duration": 0.1602049999999906
                },
                {
                    "name": "F#4",
                    "midi": 66,
                    "time": 247.51672500000038,
                    "velocity": 0.5905511811023622,
                    "duration": 0.1602049999999906
                },
                {
                    "name": "A4",
                    "midi": 69,
                    "time": 247.67693000000037,
                    "velocity": 0.5433070866141733,
                    "duration": 0.1602049999999906
                },
                {
                    "name": "F#5",
                    "midi": 78,
                    "time": 247.67693000000037,
                    "velocity": 0.6456692913385826,
                    "duration": 0.1602049999999906
                },
                {
                    "name": "A4",
                    "midi": 69,
                    "time": 247.83713500000036,
                    "velocity": 0.5748031496062992,
                    "duration": 0.1602049999999906
                },
                {
                    "name": "C#5",
                    "midi": 73,
                    "time": 247.99734000000035,
                    "velocity": 0.5118110236220472,
                    "duration": 0.1602049999999906
                },
                {
                    "name": "A5",
                    "midi": 81,
                    "time": 247.99734000000035,
                    "velocity": 0.5984251968503937,
                    "duration": 0.1602049999999906
                },
                {
                    "name": "C#5",
                    "midi": 73,
                    "time": 248.15754500000034,
                    "velocity": 0.5590551181102362,
                    "duration": 0.1602049999999906
                },
                {
                    "name": "F#5",
                    "midi": 78,
                    "time": 248.31775000000033,
                    "velocity": 0.5196850393700787,
                    "duration": 0.1602049999999906
                },
                {
                    "name": "C#6",
                    "midi": 85,
                    "time": 248.31775000000033,
                    "velocity": 0.6141732283464567,
                    "duration": 0.1602049999999906
                },
                {
                    "name": "F#5",
                    "midi": 78,
                    "time": 248.47795500000032,
                    "velocity": 0.5905511811023622,
                    "duration": 0.1602049999999906
                },
                {
                    "name": "A5",
                    "midi": 81,
                    "time": 248.6381600000003,
                    "velocity": 0.5433070866141733,
                    "duration": 0.1602049999999906
                },
                {
                    "name": "F#6",
                    "midi": 90,
                    "time": 248.6381600000003,
                    "velocity": 0.6456692913385826,
                    "duration": 0.1602049999999906
                },
                {
                    "name": "A5",
                    "midi": 81,
                    "time": 248.7983650000003,
                    "velocity": 0.5905511811023622,
                    "duration": 0.1602049999999906
                },
                {
                    "name": "C#6",
                    "midi": 85,
                    "time": 248.9585700000003,
                    "velocity": 0.5433070866141733,
                    "duration": 0.32041000000000963
                },
                {
                    "name": "A5",
                    "midi": 81,
                    "time": 248.9585700000003,
                    "velocity": 0.5433070866141733,
                    "duration": 0.32041000000000963
                },
                {
                    "name": "A6",
                    "midi": 93,
                    "time": 248.9585700000003,
                    "velocity": 0.6456692913385826,
                    "duration": 0.32041000000000963
                },
                {
                    "name": "C#6",
                    "midi": 85,
                    "time": 249.2789800000003,
                    "velocity": 0.5196850393700787,
                    "duration": 0.32041000000000963
                },
                {
                    "name": "G#5",
                    "midi": 80,
                    "time": 249.2789800000003,
                    "velocity": 0.5196850393700787,
                    "duration": 0.32041000000000963
                },
                {
                    "name": "G#6",
                    "midi": 92,
                    "time": 249.2789800000003,
                    "velocity": 0.6141732283464567,
                    "duration": 0.32041000000000963
                },
                {
                    "name": "C#6",
                    "midi": 85,
                    "time": 249.5993900000003,
                    "velocity": 0.5748031496062992,
                    "duration": 0.32041000000000963
                },
                {
                    "name": "G#5",
                    "midi": 80,
                    "time": 249.5993900000003,
                    "velocity": 0.48031496062992124,
                    "duration": 0.32041000000000963
                },
                {
                    "name": "C#5",
                    "midi": 73,
                    "time": 249.5993900000003,
                    "velocity": 0.48031496062992124,
                    "duration": 0.32041000000000963
                },
                {
                    "name": "C#5",
                    "midi": 73,
                    "time": 249.91980000000032,
                    "velocity": 0.48031496062992124,
                    "duration": 0.32041000000000963
                },
                {
                    "name": "G#5",
                    "midi": 80,
                    "time": 249.91980000000032,
                    "velocity": 0.48031496062992124,
                    "duration": 0.32041000000000963
                },
                {
                    "name": "C#6",
                    "midi": 85,
                    "time": 249.91980000000032,
                    "velocity": 0.5905511811023622,
                    "duration": 0.6408200000000193
                },
                {
                    "name": "F#6",
                    "midi": 90,
                    "time": 250.24021000000033,
                    "velocity": 0.5354330708661418,
                    "duration": 0.32041000000000963
                },
                {
                    "name": "F#5",
                    "midi": 78,
                    "time": 250.24021000000033,
                    "velocity": 0.4566929133858268,
                    "duration": 0.32041000000000963
                },
                {
                    "name": "C#5",
                    "midi": 73,
                    "time": 250.56062000000034,
                    "velocity": 0.4566929133858268,
                    "duration": 0.32041000000000963
                },
                {
                    "name": "G#4",
                    "midi": 68,
                    "time": 250.56062000000034,
                    "velocity": 0.3779527559055118,
                    "duration": 0.32041000000000963
                },
                {
                    "name": "C#4",
                    "midi": 61,
                    "time": 250.56062000000034,
                    "velocity": 0.31496062992125984,
                    "duration": 0.32041000000000963
                },
                {
                    "name": "C#4",
                    "midi": 61,
                    "time": 250.88103000000035,
                    "velocity": 0.33070866141732286,
                    "duration": 0.32041000000000963
                },
                {
                    "name": "G#4",
                    "midi": 68,
                    "time": 250.88103000000035,
                    "velocity": 0.3937007874015748,
                    "duration": 0.32041000000000963
                },
                {
                    "name": "C#5",
                    "midi": 73,
                    "time": 250.88103000000035,
                    "velocity": 0.4566929133858268,
                    "duration": 0.6408200000000193
                },
                {
                    "name": "F#5",
                    "midi": 78,
                    "time": 251.20144000000036,
                    "velocity": 0.4409448818897638,
                    "duration": 0.32041000000000963
                },
                {
                    "name": "F#4",
                    "midi": 66,
                    "time": 251.20144000000036,
                    "velocity": 0.3858267716535433,
                    "duration": 0.32041000000000963
                },
                {
                    "name": "C#5",
                    "midi": 73,
                    "time": 251.52185000000037,
                    "velocity": 0.4409448818897638,
                    "duration": 0.32041000000000963
                },
                {
                    "name": "G#4",
                    "midi": 68,
                    "time": 251.52185000000037,
                    "velocity": 0.36220472440944884,
                    "duration": 0.32041000000000963
                },
                {
                    "name": "C#4",
                    "midi": 61,
                    "time": 251.52185000000037,
                    "velocity": 0.2992125984251969,
                    "duration": 0.32041000000000963
                },
                {
                    "name": "C#4",
                    "midi": 61,
                    "time": 251.84226000000038,
                    "velocity": 0.31496062992125984,
                    "duration": 0.32041000000000963
                },
                {
                    "name": "G#4",
                    "midi": 68,
                    "time": 251.84226000000038,
                    "velocity": 0.3779527559055118,
                    "duration": 0.32041000000000963
                },
                {
                    "name": "C#5",
                    "midi": 73,
                    "time": 251.84226000000038,
                    "velocity": 0.4409448818897638,
                    "duration": 0.6408200000000193
                },
                {
                    "name": "F#5",
                    "midi": 78,
                    "time": 252.1626700000004,
                    "velocity": 0.4330708661417323,
                    "duration": 0.32041000000000963
                },
                {
                    "name": "F#4",
                    "midi": 66,
                    "time": 252.1626700000004,
                    "velocity": 0.36220472440944884,
                    "duration": 0.32041000000000963
                },
                {
                    "name": "C#4",
                    "midi": 61,
                    "time": 252.4830800000004,
                    "velocity": 0.5433070866141733,
                    "duration": 0.6408199999999908
                },
                {
                    "name": "C#5",
                    "midi": 73,
                    "time": 252.4830800000004,
                    "velocity": 0.6377952755905512,
                    "duration": 0.6408199999999908
                },
                {
                    "name": "D4",
                    "midi": 62,
                    "time": 253.1239000000004,
                    "velocity": 0.5039370078740157,
                    "duration": 0.1602049999999906
                },
                {
                    "name": "D5",
                    "midi": 74,
                    "time": 253.1239000000004,
                    "velocity": 0.5905511811023622,
                    "duration": 0.1602049999999906
                },
                {
                    "name": "C#4",
                    "midi": 61,
                    "time": 253.28410500000038,
                    "velocity": 0.4645669291338583,
                    "duration": 0.1602049999999906
                },
                {
                    "name": "C#5",
                    "midi": 73,
                    "time": 253.28410500000038,
                    "velocity": 0.5590551181102362,
                    "duration": 0.1602049999999906
                },
                {
                    "name": "G#3",
                    "midi": 56,
                    "time": 253.44431000000037,
                    "velocity": 0.49606299212598426,
                    "duration": 0.1602049999999906
                },
                {
                    "name": "G#4",
                    "midi": 68,
                    "time": 253.44431000000037,
                    "velocity": 0.5748031496062992,
                    "duration": 0.1602049999999906
                },
                {
                    "name": "A3",
                    "midi": 57,
                    "time": 253.60451500000036,
                    "velocity": 0.4251968503937008,
                    "duration": 0.1602049999999906
                },
                {
                    "name": "A4",
                    "midi": 69,
                    "time": 253.60451500000036,
                    "velocity": 0.5118110236220472,
                    "duration": 0.1602049999999906
                },
                {
                    "name": "F#3",
                    "midi": 54,
                    "time": 253.76472000000035,
                    "velocity": 0.4566929133858268,
                    "duration": 0.9612300000000005
                },
                {
                    "name": "F#4",
                    "midi": 66,
                    "time": 253.76472000000035,
                    "velocity": 0.5511811023622047,
                    "duration": 0.9612300000000005
                },
                {
                    "name": "D4",
                    "midi": 62,
                    "time": 254.72595000000035,
                    "velocity": 0.6614173228346457,
                    "duration": 0.32041000000000963
                },
                {
                    "name": "D5",
                    "midi": 74,
                    "time": 254.72595000000035,
                    "velocity": 0.6614173228346457,
                    "duration": 0.32041000000000963
                },
                {
                    "name": "A3",
                    "midi": 57,
                    "time": 255.04636000000036,
                    "velocity": 0.3779527559055118,
                    "duration": 0.1602049999999906
                },
                {
                    "name": "D4",
                    "midi": 62,
                    "time": 255.04636000000036,
                    "velocity": 0.3779527559055118,
                    "duration": 0.1602049999999906
                },
                {
                    "name": "A3",
                    "midi": 57,
                    "time": 255.20656500000035,
                    "velocity": 0.3858267716535433,
                    "duration": 0.1602049999999906
                },
                {
                    "name": "D4",
                    "midi": 62,
                    "time": 255.20656500000035,
                    "velocity": 0.3858267716535433,
                    "duration": 0.1602049999999906
                },
                {
                    "name": "G#3",
                    "midi": 56,
                    "time": 255.36677000000034,
                    "velocity": 0.3937007874015748,
                    "duration": 0.1602049999999906
                },
                {
                    "name": "C#4",
                    "midi": 61,
                    "time": 255.36677000000034,
                    "velocity": 0.3937007874015748,
                    "duration": 0.1602049999999906
                },
                {
                    "name": "A3",
                    "midi": 57,
                    "time": 255.52697500000033,
                    "velocity": 0.4015748031496063,
                    "duration": 0.1602049999999906
                },
                {
                    "name": "D4",
                    "midi": 62,
                    "time": 255.52697500000033,
                    "velocity": 0.4015748031496063,
                    "duration": 0.1602049999999906
                },
                {
                    "name": "A#3",
                    "midi": 58,
                    "time": 255.68718000000032,
                    "velocity": 0.4094488188976378,
                    "duration": 0.1602049999999906
                },
                {
                    "name": "D#4",
                    "midi": 63,
                    "time": 255.68718000000032,
                    "velocity": 0.4094488188976378,
                    "duration": 0.1602049999999906
                },
                {
                    "name": "B3",
                    "midi": 59,
                    "time": 255.84738500000032,
                    "velocity": 0.41732283464566927,
                    "duration": 0.16020500000001903
                },
                {
                    "name": "E4",
                    "midi": 64,
                    "time": 255.84738500000032,
                    "velocity": 0.41732283464566927,
                    "duration": 0.16020500000001903
                },
                {
                    "name": "C4",
                    "midi": 60,
                    "time": 256.00759000000033,
                    "velocity": 0.4251968503937008,
                    "duration": 0.16020500000001903
                },
                {
                    "name": "F4",
                    "midi": 65,
                    "time": 256.00759000000033,
                    "velocity": 0.4251968503937008,
                    "duration": 0.16020500000001903
                },
                {
                    "name": "C#4",
                    "midi": 61,
                    "time": 256.16779500000035,
                    "velocity": 0.4330708661417323,
                    "duration": 0.16020500000001903
                },
                {
                    "name": "F#4",
                    "midi": 66,
                    "time": 256.16779500000035,
                    "velocity": 0.4330708661417323,
                    "duration": 0.16020500000001903
                },
                {
                    "name": "D4",
                    "midi": 62,
                    "time": 256.3280000000004,
                    "velocity": 0.44881889763779526,
                    "duration": 0.16020500000001903
                },
                {
                    "name": "G4",
                    "midi": 67,
                    "time": 256.3280000000004,
                    "velocity": 0.44881889763779526,
                    "duration": 0.16020500000001903
                },
                {
                    "name": "D#4",
                    "midi": 63,
                    "time": 256.4882050000004,
                    "velocity": 0.4645669291338583,
                    "duration": 0.16020500000001903
                },
                {
                    "name": "G#4",
                    "midi": 68,
                    "time": 256.4882050000004,
                    "velocity": 0.4645669291338583,
                    "duration": 0.16020500000001903
                },
                {
                    "name": "E4",
                    "midi": 64,
                    "time": 256.6484100000004,
                    "velocity": 0.4645669291338583,
                    "duration": 0.16020500000001903
                },
                {
                    "name": "A4",
                    "midi": 69,
                    "time": 256.6484100000004,
                    "velocity": 0.4645669291338583,
                    "duration": 0.16020500000001903
                },
                {
                    "name": "F4",
                    "midi": 65,
                    "time": 256.80861500000043,
                    "velocity": 0.47244094488188976,
                    "duration": 0.16020500000001903
                },
                {
                    "name": "A#4",
                    "midi": 70,
                    "time": 256.80861500000043,
                    "velocity": 0.47244094488188976,
                    "duration": 0.16020500000001903
                },
                {
                    "name": "F#4",
                    "midi": 66,
                    "time": 256.96882000000045,
                    "velocity": 0.5039370078740157,
                    "duration": 0.16020500000001903
                },
                {
                    "name": "B4",
                    "midi": 71,
                    "time": 256.96882000000045,
                    "velocity": 0.5039370078740157,
                    "duration": 0.16020500000001903
                },
                {
                    "name": "G4",
                    "midi": 67,
                    "time": 257.12902500000047,
                    "velocity": 0.5118110236220472,
                    "duration": 0.16020500000001903
                },
                {
                    "name": "C5",
                    "midi": 72,
                    "time": 257.12902500000047,
                    "velocity": 0.5118110236220472,
                    "duration": 0.16020500000001903
                },
                {
                    "name": "G#4",
                    "midi": 68,
                    "time": 257.2892300000005,
                    "velocity": 0.5196850393700787,
                    "duration": 0.16020500000001903
                },
                {
                    "name": "C#5",
                    "midi": 73,
                    "time": 257.2892300000005,
                    "velocity": 0.5196850393700787,
                    "duration": 0.16020500000001903
                },
                {
                    "name": "A4",
                    "midi": 69,
                    "time": 257.4494350000005,
                    "velocity": 0.5275590551181102,
                    "duration": 0.16020500000001903
                },
                {
                    "name": "D5",
                    "midi": 74,
                    "time": 257.4494350000005,
                    "velocity": 0.5275590551181102,
                    "duration": 0.16020500000001903
                },
                {
                    "name": "A4",
                    "midi": 69,
                    "time": 257.6096400000005,
                    "velocity": 0.5354330708661418,
                    "duration": 0.3204099999999812
                },
                {
                    "name": "D5",
                    "midi": 74,
                    "time": 257.6096400000005,
                    "velocity": 0.5354330708661418,
                    "duration": 0.3204099999999812
                },
                {
                    "name": "A#4",
                    "midi": 70,
                    "time": 257.9300500000005,
                    "velocity": 0.5748031496062992,
                    "duration": 0.3204099999999812
                },
                {
                    "name": "D#5",
                    "midi": 75,
                    "time": 257.9300500000005,
                    "velocity": 0.5748031496062992,
                    "duration": 0.3204099999999812
                },
                {
                    "name": "D#6",
                    "midi": 87,
                    "time": 258.2504600000005,
                    "velocity": 0.6299212598425197,
                    "duration": 0.16020500000001903
                },
                {
                    "name": "A#5",
                    "midi": 82,
                    "time": 258.2504600000005,
                    "velocity": 0.6299212598425197,
                    "duration": 0.16020500000001903
                },
                {
                    "name": "D#5",
                    "midi": 75,
                    "time": 258.2504600000005,
                    "velocity": 0.6299212598425197,
                    "duration": 0.16020500000001903
                },
                {
                    "name": "D#6",
                    "midi": 87,
                    "time": 258.5708700000005,
                    "velocity": 0.7165354330708661,
                    "duration": 0.3204099999999812
                },
                {
                    "name": "D#7",
                    "midi": 99,
                    "time": 258.5708700000005,
                    "velocity": 0.6220472440944882,
                    "duration": 0.3204099999999812
                },
                {
                    "name": "A#3",
                    "midi": 58,
                    "time": 258.8912800000005,
                    "velocity": 0.3779527559055118,
                    "duration": 0.16020500000001903
                },
                {
                    "name": "D#4",
                    "midi": 63,
                    "time": 258.8912800000005,
                    "velocity": 0.3779527559055118,
                    "duration": 0.16020500000001903
                },
                {
                    "name": "A#3",
                    "midi": 58,
                    "time": 259.0514850000005,
                    "velocity": 0.3858267716535433,
                    "duration": 0.16020500000001903
                },
                {
                    "name": "D#4",
                    "midi": 63,
                    "time": 259.0514850000005,
                    "velocity": 0.3858267716535433,
                    "duration": 0.16020500000001903
                },
                {
                    "name": "A3",
                    "midi": 57,
                    "time": 259.21169000000054,
                    "velocity": 0.3937007874015748,
                    "duration": 0.16020500000001903
                },
                {
                    "name": "D4",
                    "midi": 62,
                    "time": 259.21169000000054,
                    "velocity": 0.3937007874015748,
                    "duration": 0.16020500000001903
                },
                {
                    "name": "A#3",
                    "midi": 58,
                    "time": 259.37189500000056,
                    "velocity": 0.4015748031496063,
                    "duration": 0.16020500000001903
                },
                {
                    "name": "D#4",
                    "midi": 63,
                    "time": 259.37189500000056,
                    "velocity": 0.4015748031496063,
                    "duration": 0.16020500000001903
                },
                {
                    "name": "B3",
                    "midi": 59,
                    "time": 259.5321000000006,
                    "velocity": 0.4094488188976378,
                    "duration": 0.16020500000001903
                },
                {
                    "name": "E4",
                    "midi": 64,
                    "time": 259.5321000000006,
                    "velocity": 0.4094488188976378,
                    "duration": 0.16020500000001903
                },
                {
                    "name": "C4",
                    "midi": 60,
                    "time": 259.6923050000006,
                    "velocity": 0.41732283464566927,
                    "duration": 0.16020500000001903
                },
                {
                    "name": "F4",
                    "midi": 65,
                    "time": 259.6923050000006,
                    "velocity": 0.41732283464566927,
                    "duration": 0.16020500000001903
                },
                {
                    "name": "C#4",
                    "midi": 61,
                    "time": 259.8525100000006,
                    "velocity": 0.4251968503937008,
                    "duration": 0.16020500000001903
                },
                {
                    "name": "F#4",
                    "midi": 66,
                    "time": 259.8525100000006,
                    "velocity": 0.4251968503937008,
                    "duration": 0.16020500000001903
                },
                {
                    "name": "D4",
                    "midi": 62,
                    "time": 260.01271500000064,
                    "velocity": 0.4330708661417323,
                    "duration": 0.16020500000001903
                },
                {
                    "name": "G4",
                    "midi": 67,
                    "time": 260.01271500000064,
                    "velocity": 0.4330708661417323,
                    "duration": 0.16020500000001903
                },
                {
                    "name": "D#4",
                    "midi": 63,
                    "time": 260.17292000000066,
                    "velocity": 0.44881889763779526,
                    "duration": 0.16020500000001903
                },
                {
                    "name": "G#4",
                    "midi": 68,
                    "time": 260.17292000000066,
                    "velocity": 0.44881889763779526,
                    "duration": 0.16020500000001903
                },
                {
                    "name": "E4",
                    "midi": 64,
                    "time": 260.3331250000007,
                    "velocity": 0.4645669291338583,
                    "duration": 0.16020500000001903
                },
                {
                    "name": "A4",
                    "midi": 69,
                    "time": 260.3331250000007,
                    "velocity": 0.4645669291338583,
                    "duration": 0.16020500000001903
                },
                {
                    "name": "F4",
                    "midi": 65,
                    "time": 260.4933300000007,
                    "velocity": 0.4645669291338583,
                    "duration": 0.16020500000001903
                },
                {
                    "name": "A#4",
                    "midi": 70,
                    "time": 260.4933300000007,
                    "velocity": 0.4645669291338583,
                    "duration": 0.16020500000001903
                },
                {
                    "name": "F#4",
                    "midi": 66,
                    "time": 260.6535350000007,
                    "velocity": 0.47244094488188976,
                    "duration": 0.16020500000001903
                },
                {
                    "name": "B4",
                    "midi": 71,
                    "time": 260.6535350000007,
                    "velocity": 0.47244094488188976,
                    "duration": 0.16020500000001903
                },
                {
                    "name": "G4",
                    "midi": 67,
                    "time": 260.81374000000073,
                    "velocity": 0.5039370078740157,
                    "duration": 0.16020500000001903
                },
                {
                    "name": "C5",
                    "midi": 72,
                    "time": 260.81374000000073,
                    "velocity": 0.5039370078740157,
                    "duration": 0.16020500000001903
                },
                {
                    "name": "G#4",
                    "midi": 68,
                    "time": 260.97394500000075,
                    "velocity": 0.5118110236220472,
                    "duration": 0.16020500000001903
                },
                {
                    "name": "C#5",
                    "midi": 73,
                    "time": 260.97394500000075,
                    "velocity": 0.5118110236220472,
                    "duration": 0.16020500000001903
                },
                {
                    "name": "A4",
                    "midi": 69,
                    "time": 261.1341500000008,
                    "velocity": 0.5196850393700787,
                    "duration": 0.16020500000001903
                },
                {
                    "name": "D5",
                    "midi": 74,
                    "time": 261.1341500000008,
                    "velocity": 0.5196850393700787,
                    "duration": 0.16020500000001903
                },
                {
                    "name": "A#4",
                    "midi": 70,
                    "time": 261.2943550000008,
                    "velocity": 0.5275590551181102,
                    "duration": 0.16020500000001903
                },
                {
                    "name": "D#5",
                    "midi": 75,
                    "time": 261.2943550000008,
                    "velocity": 0.5275590551181102,
                    "duration": 0.16020500000001903
                },
                {
                    "name": "A#4",
                    "midi": 70,
                    "time": 261.4545600000008,
                    "velocity": 0.5354330708661418,
                    "duration": 0.3204099999999812
                },
                {
                    "name": "D#5",
                    "midi": 75,
                    "time": 261.4545600000008,
                    "velocity": 0.5354330708661418,
                    "duration": 0.3204099999999812
                },
                {
                    "name": "B4",
                    "midi": 71,
                    "time": 261.7749700000008,
                    "velocity": 0.5748031496062992,
                    "duration": 0.3204099999999812
                },
                {
                    "name": "E5",
                    "midi": 76,
                    "time": 261.7749700000008,
                    "velocity": 0.5748031496062992,
                    "duration": 0.3204099999999812
                },
                {
                    "name": "E6",
                    "midi": 88,
                    "time": 262.0953800000008,
                    "velocity": 0.6299212598425197,
                    "duration": 0.16020500000001903
                },
                {
                    "name": "B5",
                    "midi": 83,
                    "time": 262.0953800000008,
                    "velocity": 0.6299212598425197,
                    "duration": 0.16020500000001903
                },
                {
                    "name": "E5",
                    "midi": 76,
                    "time": 262.0953800000008,
                    "velocity": 0.6299212598425197,
                    "duration": 0.16020500000001903
                },
                {
                    "name": "E6",
                    "midi": 88,
                    "time": 262.4157900000008,
                    "velocity": 0.7165354330708661,
                    "duration": 0.3204099999999812
                },
                {
                    "name": "E7",
                    "midi": 100,
                    "time": 262.4157900000008,
                    "velocity": 0.6692913385826772,
                    "duration": 0.3204099999999812
                },
                {
                    "name": "E4",
                    "midi": 64,
                    "time": 262.7362000000008,
                    "velocity": 0.4566929133858268,
                    "duration": 0.16020500000001903
                },
                {
                    "name": "E5",
                    "midi": 76,
                    "time": 262.7362000000008,
                    "velocity": 0.5511811023622047,
                    "duration": 0.16020500000001903
                },
                {
                    "name": "E4",
                    "midi": 64,
                    "time": 262.8964050000008,
                    "velocity": 0.4566929133858268,
                    "duration": 0.16020500000001903
                },
                {
                    "name": "E5",
                    "midi": 76,
                    "time": 262.8964050000008,
                    "velocity": 0.5511811023622047,
                    "duration": 0.16020500000001903
                },
                {
                    "name": "D#4",
                    "midi": 63,
                    "time": 263.05661000000083,
                    "velocity": 0.41732283464566927,
                    "duration": 0.16020500000001903
                },
                {
                    "name": "D#5",
                    "midi": 75,
                    "time": 263.05661000000083,
                    "velocity": 0.5039370078740157,
                    "duration": 0.16020500000001903
                },
                {
                    "name": "E4",
                    "midi": 64,
                    "time": 263.21681500000085,
                    "velocity": 0.41732283464566927,
                    "duration": 0.16020500000001903
                },
                {
                    "name": "E5",
                    "midi": 76,
                    "time": 263.21681500000085,
                    "velocity": 0.5039370078740157,
                    "duration": 0.16020500000001903
                },
                {
                    "name": "F4",
                    "midi": 65,
                    "time": 263.37702000000087,
                    "velocity": 0.4566929133858268,
                    "duration": 0.16020500000001903
                },
                {
                    "name": "F5",
                    "midi": 77,
                    "time": 263.37702000000087,
                    "velocity": 0.5511811023622047,
                    "duration": 0.16020500000001903
                },
                {
                    "name": "F#4",
                    "midi": 66,
                    "time": 263.5372250000009,
                    "velocity": 0.41732283464566927,
                    "duration": 0.16020500000001903
                },
                {
                    "name": "F#5",
                    "midi": 78,
                    "time": 263.5372250000009,
                    "velocity": 0.5039370078740157,
                    "duration": 0.16020500000001903
                },
                {
                    "name": "G4",
                    "midi": 67,
                    "time": 263.6974300000009,
                    "velocity": 0.4566929133858268,
                    "duration": 0.08010250000000951
                },
                {
                    "name": "G5",
                    "midi": 79,
                    "time": 263.6974300000009,
                    "velocity": 0.5511811023622047,
                    "duration": 0.08010250000000951
                },
                {
                    "name": "G4",
                    "midi": 67,
                    "time": 263.8576350000009,
                    "velocity": 0.4251968503937008,
                    "duration": 0.08010250000000951
                },
                {
                    "name": "G5",
                    "midi": 79,
                    "time": 263.8576350000009,
                    "velocity": 0.5118110236220472,
                    "duration": 0.08010250000000951
                },
                {
                    "name": "G4",
                    "midi": 67,
                    "time": 264.01784000000094,
                    "velocity": 0.4251968503937008,
                    "duration": 0.08010250000000951
                },
                {
                    "name": "G5",
                    "midi": 79,
                    "time": 264.01784000000094,
                    "velocity": 0.5118110236220472,
                    "duration": 0.08010250000000951
                },
                {
                    "name": "G4",
                    "midi": 67,
                    "time": 264.17804500000096,
                    "velocity": 0.4251968503937008,
                    "duration": 0.08010250000000951
                },
                {
                    "name": "G5",
                    "midi": 79,
                    "time": 264.17804500000096,
                    "velocity": 0.5118110236220472,
                    "duration": 0.08010250000000951
                },
                {
                    "name": "G4",
                    "midi": 67,
                    "time": 264.338250000001,
                    "velocity": 0.4566929133858268,
                    "duration": 0.16020500000001903
                },
                {
                    "name": "G5",
                    "midi": 79,
                    "time": 264.338250000001,
                    "velocity": 0.5511811023622047,
                    "duration": 0.16020500000001903
                },
                {
                    "name": "F#4",
                    "midi": 66,
                    "time": 264.498455000001,
                    "velocity": 0.4251968503937008,
                    "duration": 0.16020500000001903
                },
                {
                    "name": "F#5",
                    "midi": 78,
                    "time": 264.498455000001,
                    "velocity": 0.5118110236220472,
                    "duration": 0.16020500000001903
                },
                {
                    "name": "F#4",
                    "midi": 66,
                    "time": 264.658660000001,
                    "velocity": 0.4566929133858268,
                    "duration": 0.08010250000000951
                },
                {
                    "name": "F#5",
                    "midi": 78,
                    "time": 264.658660000001,
                    "velocity": 0.5511811023622047,
                    "duration": 0.08010250000000951
                },
                {
                    "name": "F#4",
                    "midi": 66,
                    "time": 264.81886500000104,
                    "velocity": 0.4251968503937008,
                    "duration": 0.08010250000000951
                },
                {
                    "name": "F#5",
                    "midi": 78,
                    "time": 264.81886500000104,
                    "velocity": 0.5118110236220472,
                    "duration": 0.08010250000000951
                },
                {
                    "name": "F4",
                    "midi": 65,
                    "time": 264.97907000000106,
                    "velocity": 0.4251968503937008,
                    "duration": 0.08010250000000951
                },
                {
                    "name": "F5",
                    "midi": 77,
                    "time": 264.97907000000106,
                    "velocity": 0.5118110236220472,
                    "duration": 0.08010250000000951
                },
                {
                    "name": "F#4",
                    "midi": 66,
                    "time": 265.1392750000011,
                    "velocity": 0.4251968503937008,
                    "duration": 0.08010250000000951
                },
                {
                    "name": "F#5",
                    "midi": 78,
                    "time": 265.1392750000011,
                    "velocity": 0.5118110236220472,
                    "duration": 0.08010250000000951
                },
                {
                    "name": "G4",
                    "midi": 67,
                    "time": 265.2994800000011,
                    "velocity": 0.4566929133858268,
                    "duration": 0.16020500000001903
                },
                {
                    "name": "G5",
                    "midi": 79,
                    "time": 265.2994800000011,
                    "velocity": 0.5511811023622047,
                    "duration": 0.16020500000001903
                },
                {
                    "name": "G#4",
                    "midi": 68,
                    "time": 265.4596850000011,
                    "velocity": 0.41732283464566927,
                    "duration": 0.16020500000001903
                },
                {
                    "name": "G#5",
                    "midi": 80,
                    "time": 265.4596850000011,
                    "velocity": 0.49606299212598426,
                    "duration": 0.16020500000001903
                },
                {
                    "name": "A4",
                    "midi": 69,
                    "time": 265.61989000000113,
                    "velocity": 0.4251968503937008,
                    "duration": 0.08010250000000951
                },
                {
                    "name": "A5",
                    "midi": 81,
                    "time": 265.61989000000113,
                    "velocity": 0.5118110236220472,
                    "duration": 0.08010250000000951
                },
                {
                    "name": "A4",
                    "midi": 69,
                    "time": 265.78009500000115,
                    "velocity": 0.4409448818897638,
                    "duration": 0.08010250000000951
                },
                {
                    "name": "A5",
                    "midi": 81,
                    "time": 265.78009500000115,
                    "velocity": 0.5275590551181102,
                    "duration": 0.08010250000000951
                },
                {
                    "name": "A4",
                    "midi": 69,
                    "time": 265.9403000000012,
                    "velocity": 0.4566929133858268,
                    "duration": 0.08010250000000951
                },
                {
                    "name": "A5",
                    "midi": 81,
                    "time": 265.9403000000012,
                    "velocity": 0.5511811023622047,
                    "duration": 0.08010250000000951
                },
                {
                    "name": "A4",
                    "midi": 69,
                    "time": 266.1005050000012,
                    "velocity": 0.47244094488188976,
                    "duration": 0.08010250000000951
                },
                {
                    "name": "A5",
                    "midi": 81,
                    "time": 266.1005050000012,
                    "velocity": 0.5669291338582677,
                    "duration": 0.08010250000000951
                },
                {
                    "name": "A4",
                    "midi": 69,
                    "time": 266.2607100000012,
                    "velocity": 0.5196850393700787,
                    "duration": 0.16020500000001903
                },
                {
                    "name": "A5",
                    "midi": 81,
                    "time": 266.2607100000012,
                    "velocity": 0.6141732283464567,
                    "duration": 0.16020500000001903
                },
                {
                    "name": "G#4",
                    "midi": 68,
                    "time": 266.42091500000123,
                    "velocity": 0.47244094488188976,
                    "duration": 0.16020500000001903
                },
                {
                    "name": "G#5",
                    "midi": 80,
                    "time": 266.42091500000123,
                    "velocity": 0.5669291338582677,
                    "duration": 0.16020500000001903
                },
                {
                    "name": "G#4",
                    "midi": 68,
                    "time": 266.58112000000125,
                    "velocity": 0.49606299212598426,
                    "duration": 0.08010250000000951
                },
                {
                    "name": "G#5",
                    "midi": 80,
                    "time": 266.58112000000125,
                    "velocity": 0.5826771653543307,
                    "duration": 0.08010250000000951
                },
                {
                    "name": "G#4",
                    "midi": 68,
                    "time": 266.74132500000127,
                    "velocity": 0.5118110236220472,
                    "duration": 0.08010250000000951
                },
                {
                    "name": "G#5",
                    "midi": 80,
                    "time": 266.74132500000127,
                    "velocity": 0.5984251968503937,
                    "duration": 0.08010250000000951
                },
                {
                    "name": "G4",
                    "midi": 67,
                    "time": 266.9015300000013,
                    "velocity": 0.5118110236220472,
                    "duration": 0.08010250000000951
                },
                {
                    "name": "G5",
                    "midi": 79,
                    "time": 266.9015300000013,
                    "velocity": 0.6062992125984252,
                    "duration": 0.08010250000000951
                },
                {
                    "name": "G#4",
                    "midi": 68,
                    "time": 267.0617350000013,
                    "velocity": 0.5354330708661418,
                    "duration": 0.08010250000000951
                },
                {
                    "name": "G#5",
                    "midi": 80,
                    "time": 267.0617350000013,
                    "velocity": 0.6299212598425197,
                    "duration": 0.08010250000000951
                },
                {
                    "name": "G#4",
                    "midi": 68,
                    "time": 267.2219400000013,
                    "velocity": 0.6062992125984252,
                    "duration": 0.2803587500000049
                },
                {
                    "name": "C#5",
                    "midi": 73,
                    "time": 267.2219400000013,
                    "velocity": 0.6062992125984252,
                    "duration": 0.2803587500000049
                },
                {
                    "name": "G#5",
                    "midi": 80,
                    "time": 267.2219400000013,
                    "velocity": 0.7165354330708661,
                    "duration": 0.2803587500000049
                },
                {
                    "name": "A#4",
                    "midi": 70,
                    "time": 267.50229875000133,
                    "velocity": 0.4330708661417323,
                    "duration": 0.040051249999976335
                },
                {
                    "name": "A#5",
                    "midi": 82,
                    "time": 267.50229875000133,
                    "velocity": 0.49606299212598426,
                    "duration": 0.040051249999976335
                },
                {
                    "name": "G#4",
                    "midi": 68,
                    "time": 267.5423500000013,
                    "velocity": 0.5748031496062992,
                    "duration": 0.16020500000001903
                },
                {
                    "name": "C#5",
                    "midi": 73,
                    "time": 267.5423500000013,
                    "velocity": 0.5748031496062992,
                    "duration": 0.16020500000001903
                },
                {
                    "name": "G#5",
                    "midi": 80,
                    "time": 267.5423500000013,
                    "velocity": 0.6771653543307087,
                    "duration": 0.16020500000001903
                },
                {
                    "name": "G4",
                    "midi": 67,
                    "time": 267.7025550000013,
                    "velocity": 0.5196850393700787,
                    "duration": 0.16020500000001903
                },
                {
                    "name": "G5",
                    "midi": 79,
                    "time": 267.7025550000013,
                    "velocity": 0.6220472440944882,
                    "duration": 0.16020500000001903
                },
                {
                    "name": "G#4",
                    "midi": 68,
                    "time": 267.86276000000134,
                    "velocity": 0.5748031496062992,
                    "duration": 0.16020500000001903
                },
                {
                    "name": "C#5",
                    "midi": 73,
                    "time": 267.86276000000134,
                    "velocity": 0.5748031496062992,
                    "duration": 0.16020500000001903
                },
                {
                    "name": "G#5",
                    "midi": 80,
                    "time": 267.86276000000134,
                    "velocity": 0.6929133858267716,
                    "duration": 0.16020500000001903
                },
                {
                    "name": "A#4",
                    "midi": 70,
                    "time": 268.02296500000136,
                    "velocity": 0.5433070866141733,
                    "duration": 0.16020500000001903
                },
                {
                    "name": "A#5",
                    "midi": 82,
                    "time": 268.02296500000136,
                    "velocity": 0.6456692913385826,
                    "duration": 0.16020500000001903
                },
                {
                    "name": "C#5",
                    "midi": 73,
                    "time": 268.1831700000014,
                    "velocity": 0.5984251968503937,
                    "duration": 0.3204099999999812
                },
                {
                    "name": "G#4",
                    "midi": 68,
                    "time": 268.1831700000014,
                    "velocity": 0.5984251968503937,
                    "duration": 0.3204099999999812
                },
                {
                    "name": "G#5",
                    "midi": 80,
                    "time": 268.1831700000014,
                    "velocity": 0.7086614173228346,
                    "duration": 0.3204099999999812
                },
                {
                    "name": "G#6",
                    "midi": 92,
                    "time": 268.50358000000136,
                    "velocity": 0.7480314960629921,
                    "duration": 0.16020500000001903
                },
                {
                    "name": "G#5",
                    "midi": 80,
                    "time": 268.50358000000136,
                    "velocity": 0.6220472440944882,
                    "duration": 0.16020500000001903
                },
                {
                    "name": "F#4",
                    "midi": 66,
                    "time": 268.8239900000014,
                    "velocity": 0.5748031496062992,
                    "duration": 0.3204099999999812
                },
                {
                    "name": "C#5",
                    "midi": 73,
                    "time": 268.8239900000014,
                    "velocity": 0.5748031496062992,
                    "duration": 0.3204099999999812
                },
                {
                    "name": "F#5",
                    "midi": 78,
                    "time": 268.8239900000014,
                    "velocity": 0.6929133858267716,
                    "duration": 0.3204099999999812
                },
                {
                    "name": "F#4",
                    "midi": 66,
                    "time": 269.1444000000014,
                    "velocity": 0.5118110236220472,
                    "duration": 0.2803587500000049
                },
                {
                    "name": "B4",
                    "midi": 71,
                    "time": 269.1444000000014,
                    "velocity": 0.5118110236220472,
                    "duration": 0.2803587500000049
                },
                {
                    "name": "F#5",
                    "midi": 78,
                    "time": 269.1444000000014,
                    "velocity": 0.6062992125984252,
                    "duration": 0.2803587500000049
                },
                {
                    "name": "G#4",
                    "midi": 68,
                    "time": 269.4247587500014,
                    "velocity": 0.48031496062992124,
                    "duration": 0.040051249999976335
                },
                {
                    "name": "G#5",
                    "midi": 80,
                    "time": 269.4247587500014,
                    "velocity": 0.48031496062992124,
                    "duration": 0.040051249999976335
                },
                {
                    "name": "F#4",
                    "midi": 66,
                    "time": 269.46481000000136,
                    "velocity": 0.5511811023622047,
                    "duration": 0.16020500000001903
                },
                {
                    "name": "B4",
                    "midi": 71,
                    "time": 269.46481000000136,
                    "velocity": 0.5511811023622047,
                    "duration": 0.16020500000001903
                },
                {
                    "name": "F#5",
                    "midi": 78,
                    "time": 269.46481000000136,
                    "velocity": 0.6456692913385826,
                    "duration": 0.16020500000001903
                },
                {
                    "name": "F4",
                    "midi": 65,
                    "time": 269.6250150000014,
                    "velocity": 0.5275590551181102,
                    "duration": 0.16020500000001903
                },
                {
                    "name": "F5",
                    "midi": 77,
                    "time": 269.6250150000014,
                    "velocity": 0.6220472440944882,
                    "duration": 0.16020500000001903
                },
                {
                    "name": "F#4",
                    "midi": 66,
                    "time": 269.7852200000014,
                    "velocity": 0.5511811023622047,
                    "duration": 0.16020500000001903
                },
                {
                    "name": "B4",
                    "midi": 71,
                    "time": 269.7852200000014,
                    "velocity": 0.5511811023622047,
                    "duration": 0.16020500000001903
                },
                {
                    "name": "F#5",
                    "midi": 78,
                    "time": 269.7852200000014,
                    "velocity": 0.6614173228346457,
                    "duration": 0.16020500000001903
                },
                {
                    "name": "G#4",
                    "midi": 68,
                    "time": 269.9454250000014,
                    "velocity": 0.5275590551181102,
                    "duration": 0.16020500000001903
                },
                {
                    "name": "G#5",
                    "midi": 80,
                    "time": 269.9454250000014,
                    "velocity": 0.6220472440944882,
                    "duration": 0.16020500000001903
                },
                {
                    "name": "B4",
                    "midi": 71,
                    "time": 270.10563000000144,
                    "velocity": 0.5984251968503937,
                    "duration": 0.3204099999999812
                },
                {
                    "name": "F#4",
                    "midi": 66,
                    "time": 270.10563000000144,
                    "velocity": 0.5984251968503937,
                    "duration": 0.3204099999999812
                },
                {
                    "name": "F#5",
                    "midi": 78,
                    "time": 270.10563000000144,
                    "velocity": 0.7086614173228346,
                    "duration": 0.3204099999999812
                },
                {
                    "name": "F#6",
                    "midi": 90,
                    "time": 270.4260400000014,
                    "velocity": 0.7244094488188977,
                    "duration": 0.16020500000001903
                },
                {
                    "name": "F#5",
                    "midi": 78,
                    "time": 270.4260400000014,
                    "velocity": 0.6220472440944882,
                    "duration": 0.16020500000001903
                },
                {
                    "name": "E4",
                    "midi": 64,
                    "time": 270.74645000000146,
                    "velocity": 0.5748031496062992,
                    "duration": 0.3204099999999812
                },
                {
                    "name": "B4",
                    "midi": 71,
                    "time": 270.74645000000146,
                    "velocity": 0.5748031496062992,
                    "duration": 0.3204099999999812
                },
                {
                    "name": "E5",
                    "midi": 76,
                    "time": 270.74645000000146,
                    "velocity": 0.6929133858267716,
                    "duration": 0.3204099999999812
                },
                {
                    "name": "E4",
                    "midi": 64,
                    "time": 271.06686000000144,
                    "velocity": 0.6062992125984252,
                    "duration": 0.2803587500000049
                },
                {
                    "name": "A4",
                    "midi": 69,
                    "time": 271.06686000000144,
                    "velocity": 0.6062992125984252,
                    "duration": 0.2803587500000049
                },
                {
                    "name": "E5",
                    "midi": 76,
                    "time": 271.06686000000144,
                    "velocity": 0.7165354330708661,
                    "duration": 0.2803587500000049
                },
                {
                    "name": "F#4",
                    "midi": 66,
                    "time": 271.34721875000145,
                    "velocity": 0.4330708661417323,
                    "duration": 0.040051249999976335
                },
                {
                    "name": "F#5",
                    "midi": 78,
                    "time": 271.34721875000145,
                    "velocity": 0.49606299212598426,
                    "duration": 0.040051249999976335
                },
                {
                    "name": "E4",
                    "midi": 64,
                    "time": 271.3872700000014,
                    "velocity": 0.6062992125984252,
                    "duration": 0.16020500000001903
                },
                {
                    "name": "A4",
                    "midi": 69,
                    "time": 271.3872700000014,
                    "velocity": 0.6062992125984252,
                    "duration": 0.16020500000001903
                },
                {
                    "name": "E5",
                    "midi": 76,
                    "time": 271.3872700000014,
                    "velocity": 0.7165354330708661,
                    "duration": 0.16020500000001903
                },
                {
                    "name": "D#4",
                    "midi": 63,
                    "time": 271.54747500000144,
                    "velocity": 0.5433070866141733,
                    "duration": 0.16020500000001903
                },
                {
                    "name": "D#5",
                    "midi": 75,
                    "time": 271.54747500000144,
                    "velocity": 0.6456692913385826,
                    "duration": 0.16020500000001903
                },
                {
                    "name": "E4",
                    "midi": 64,
                    "time": 271.70768000000146,
                    "velocity": 0.5748031496062992,
                    "duration": 0.16020500000001903
                },
                {
                    "name": "A4",
                    "midi": 69,
                    "time": 271.70768000000146,
                    "velocity": 0.5748031496062992,
                    "duration": 0.16020500000001903
                },
                {
                    "name": "E5",
                    "midi": 76,
                    "time": 271.70768000000146,
                    "velocity": 0.6929133858267716,
                    "duration": 0.16020500000001903
                },
                {
                    "name": "F#4",
                    "midi": 66,
                    "time": 271.8678850000015,
                    "velocity": 0.5433070866141733,
                    "duration": 0.16020500000001903
                },
                {
                    "name": "F#5",
                    "midi": 78,
                    "time": 271.8678850000015,
                    "velocity": 0.6456692913385826,
                    "duration": 0.16020500000001903
                },
                {
                    "name": "D#4",
                    "midi": 63,
                    "time": 272.0280900000015,
                    "velocity": 0.5984251968503937,
                    "duration": 0.16020500000001903
                },
                {
                    "name": "A4",
                    "midi": 69,
                    "time": 272.0280900000015,
                    "velocity": 0.5984251968503937,
                    "duration": 0.16020500000001903
                },
                {
                    "name": "D#5",
                    "midi": 75,
                    "time": 272.0280900000015,
                    "velocity": 0.7086614173228346,
                    "duration": 0.16020500000001903
                },
                {
                    "name": "D#4",
                    "midi": 63,
                    "time": 272.1882950000015,
                    "velocity": 0.5826771653543307,
                    "duration": 0.16020500000001903
                },
                {
                    "name": "F#4",
                    "midi": 66,
                    "time": 272.34850000000154,
                    "velocity": 0.5590551181102362,
                    "duration": 0.16020500000001903
                },
                {
                    "name": "D#5",
                    "midi": 75,
                    "time": 272.34850000000154,
                    "velocity": 0.6614173228346457,
                    "duration": 0.16020500000001903
                },
                {
                    "name": "D#5",
                    "midi": 75,
                    "time": 272.50870500000156,
                    "velocity": 0.7165354330708661,
                    "duration": 0.16020500000001903
                },
                {
                    "name": "D#6",
                    "midi": 87,
                    "time": 272.6689100000016,
                    "velocity": 0.7007874015748031,
                    "duration": 0.16020500000001903
                },
                {
                    "name": "F#5",
                    "midi": 78,
                    "time": 272.6689100000016,
                    "velocity": 0.5826771653543307,
                    "duration": 0.16020500000001903
                },
                {
                    "name": "D#6",
                    "midi": 87,
                    "time": 272.8291150000016,
                    "velocity": 0.7322834645669292,
                    "duration": 0.16020500000001903
                },
                {
                    "name": "D#7",
                    "midi": 99,
                    "time": 272.9893200000016,
                    "velocity": 0.7322834645669292,
                    "duration": 0.3204099999999812
                },
                {
                    "name": "F#6",
                    "midi": 90,
                    "time": 272.9893200000016,
                    "velocity": 0.6062992125984252,
                    "duration": 0.3204099999999812
                },
                {
                    "name": "D#4",
                    "midi": 63,
                    "time": 273.3097300000016,
                    "velocity": 0.5511811023622047,
                    "duration": 0.16020500000001903
                },
                {
                    "name": "A4",
                    "midi": 69,
                    "time": 273.3097300000016,
                    "velocity": 0.6456692913385826,
                    "duration": 0.16020500000001903
                },
                {
                    "name": "F#4",
                    "midi": 66,
                    "time": 273.3097300000016,
                    "velocity": 0.5511811023622047,
                    "duration": 0.16020500000001903
                },
                {
                    "name": "F#4",
                    "midi": 66,
                    "time": 273.63014000000163,
                    "velocity": 0.5275590551181102,
                    "duration": 0.16020500000001903
                },
                {
                    "name": "A4",
                    "midi": 69,
                    "time": 273.63014000000163,
                    "velocity": 0.5275590551181102,
                    "duration": 0.16020500000001903
                },
                {
                    "name": "F#5",
                    "midi": 78,
                    "time": 273.63014000000163,
                    "velocity": 0.6220472440944882,
                    "duration": 0.16020500000001903
                },
                {
                    "name": "F4",
                    "midi": 65,
                    "time": 273.95055000000167,
                    "velocity": 0.5511811023622047,
                    "duration": 0.16020500000001903
                },
                {
                    "name": "A#4",
                    "midi": 70,
                    "time": 273.95055000000167,
                    "velocity": 0.5511811023622047,
                    "duration": 0.16020500000001903
                },
                {
                    "name": "F5",
                    "midi": 77,
                    "time": 273.95055000000167,
                    "velocity": 0.6456692913385826,
                    "duration": 0.16020500000001903
                },
                {
                    "name": "A#3",
                    "midi": 58,
                    "time": 274.2709600000017,
                    "velocity": 0.4094488188976378,
                    "duration": 0.16020500000001903
                },
                {
                    "name": "F4",
                    "midi": 65,
                    "time": 274.2709600000017,
                    "velocity": 0.4094488188976378,
                    "duration": 0.16020500000001903
                },
                {
                    "name": "A#4",
                    "midi": 70,
                    "time": 274.2709600000017,
                    "velocity": 0.48031496062992124,
                    "duration": 0.16020500000001903
                },
                {
                    "name": "D#4",
                    "midi": 63,
                    "time": 274.59137000000175,
                    "velocity": 0.4409448818897638,
                    "duration": 0.16020500000001903
                },
                {
                    "name": "F#4",
                    "midi": 66,
                    "time": 274.59137000000175,
                    "velocity": 0.4409448818897638,
                    "duration": 0.16020500000001903
                },
                {
                    "name": "C5",
                    "midi": 72,
                    "time": 274.59137000000175,
                    "velocity": 0.5196850393700787,
                    "duration": 0.16020500000001903
                },
                {
                    "name": "D#5",
                    "midi": 75,
                    "time": 274.59137000000175,
                    "velocity": 0.5196850393700787,
                    "duration": 0.16020500000001903
                },
                {
                    "name": "C#4",
                    "midi": 61,
                    "time": 274.9117800000018,
                    "velocity": 0.44881889763779526,
                    "duration": 0.16020500000001903
                },
                {
                    "name": "F4",
                    "midi": 65,
                    "time": 274.9117800000018,
                    "velocity": 0.44881889763779526,
                    "duration": 0.16020500000001903
                },
                {
                    "name": "A#4",
                    "midi": 70,
                    "time": 274.9117800000018,
                    "velocity": 0.5354330708661418,
                    "duration": 0.16020500000001903
                },
                {
                    "name": "C#5",
                    "midi": 73,
                    "time": 274.9117800000018,
                    "velocity": 0.5354330708661418,
                    "duration": 0.16020500000001903
                },
                {
                    "name": "C#4",
                    "midi": 61,
                    "time": 275.2321900000018,
                    "velocity": 0.3937007874015748,
                    "duration": 0.16020500000001903
                },
                {
                    "name": "F4",
                    "midi": 65,
                    "time": 275.2321900000018,
                    "velocity": 0.47244094488188976,
                    "duration": 0.16020500000001903
                },
                {
                    "name": "D#4",
                    "midi": 63,
                    "time": 275.55260000000186,
                    "velocity": 0.3858267716535433,
                    "duration": 0.16020500000001903
                },
                {
                    "name": "F4",
                    "midi": 65,
                    "time": 275.55260000000186,
                    "velocity": 0.3858267716535433,
                    "duration": 0.16020500000001903
                },
                {
                    "name": "A4",
                    "midi": 69,
                    "time": 275.55260000000186,
                    "velocity": 0.4566929133858268,
                    "duration": 0.16020500000001903
                },
                {
                    "name": "C5",
                    "midi": 72,
                    "time": 275.55260000000186,
                    "velocity": 0.4566929133858268,
                    "duration": 0.16020500000001903
                },
                {
                    "name": "C#4",
                    "midi": 61,
                    "time": 275.8730100000019,
                    "velocity": 0.36220472440944884,
                    "duration": 0.16020500000001903
                },
                {
                    "name": "F4",
                    "midi": 65,
                    "time": 275.8730100000019,
                    "velocity": 0.36220472440944884,
                    "duration": 0.16020500000001903
                },
                {
                    "name": "A#4",
                    "midi": 70,
                    "time": 275.8730100000019,
                    "velocity": 0.4330708661417323,
                    "duration": 0.16020500000001903
                },
                {
                    "name": "F3",
                    "midi": 53,
                    "time": 276.19342000000194,
                    "velocity": 0.2992125984251969,
                    "duration": 0.16020500000001903
                },
                {
                    "name": "A#3",
                    "midi": 58,
                    "time": 276.19342000000194,
                    "velocity": 0.3779527559055118,
                    "duration": 0.16020500000001903
                },
                {
                    "name": "D#4",
                    "midi": 63,
                    "time": 276.513830000002,
                    "velocity": 0.3937007874015748,
                    "duration": 0.16020500000001903
                },
                {
                    "name": "A#3",
                    "midi": 58,
                    "time": 276.513830000002,
                    "velocity": 0.31496062992125984,
                    "duration": 0.16020500000001903
                },
                {
                    "name": "F#3",
                    "midi": 54,
                    "time": 276.513830000002,
                    "velocity": 0.31496062992125984,
                    "duration": 0.16020500000001903
                },
                {
                    "name": "F3",
                    "midi": 53,
                    "time": 276.834240000002,
                    "velocity": 0.33858267716535434,
                    "duration": 0.16020500000001903
                },
                {
                    "name": "A#3",
                    "midi": 58,
                    "time": 276.834240000002,
                    "velocity": 0.33858267716535434,
                    "duration": 0.16020500000001903
                },
                {
                    "name": "C#4",
                    "midi": 61,
                    "time": 276.834240000002,
                    "velocity": 0.4015748031496063,
                    "duration": 0.16020500000001903
                },
                {
                    "name": "F3",
                    "midi": 53,
                    "time": 277.15465000000205,
                    "velocity": 0.3543307086614173,
                    "duration": 0.16020500000001903
                },
                {
                    "name": "C4",
                    "midi": 60,
                    "time": 277.4750600000021,
                    "velocity": 0.3543307086614173,
                    "duration": 0.16020500000001903
                },
                {
                    "name": "A3",
                    "midi": 57,
                    "time": 277.4750600000021,
                    "velocity": 0.29133858267716534,
                    "duration": 0.16020500000001903
                },
                {
                    "name": "D#3",
                    "midi": 51,
                    "time": 277.4750600000021,
                    "velocity": 0.29133858267716534,
                    "duration": 0.16020500000001903
                },
                {
                    "name": "A#3",
                    "midi": 58,
                    "time": 277.7954700000021,
                    "velocity": 0.36220472440944884,
                    "duration": 1.2816399999999817
                },
                {
                    "name": "A#4",
                    "midi": 70,
                    "time": 277.7954700000021,
                    "velocity": 0.36220472440944884,
                    "duration": 1.2816399999999817
                },
                {
                    "name": "A#4",
                    "midi": 70,
                    "time": 279.0771100000021,
                    "velocity": 0.36220472440944884,
                    "duration": 0.3204099999999812
                },
                {
                    "name": "A#5",
                    "midi": 82,
                    "time": 279.0771100000021,
                    "velocity": 0.36220472440944884,
                    "duration": 0.3204099999999812
                },
                {
                    "name": "A#6",
                    "midi": 94,
                    "time": 279.3975200000021,
                    "velocity": 0.36220472440944884,
                    "duration": 0.3204099999999812
                },
                {
                    "name": "A#5",
                    "midi": 82,
                    "time": 279.3975200000021,
                    "velocity": 0.36220472440944884,
                    "duration": 0.3204099999999812
                },
                {
                    "name": "A#4",
                    "midi": 70,
                    "time": 279.71793000000207,
                    "velocity": 0.36220472440944884,
                    "duration": 1.2816399999999817
                },
                {
                    "name": "A#3",
                    "midi": 58,
                    "time": 279.71793000000207,
                    "velocity": 0.36220472440944884,
                    "duration": 1.2816399999999817
                },
                {
                    "name": "A#4",
                    "midi": 70,
                    "time": 280.99957000000205,
                    "velocity": 0.41732283464566927,
                    "duration": 0.3204099999999812
                },
                {
                    "name": "A#5",
                    "midi": 82,
                    "time": 280.99957000000205,
                    "velocity": 0.41732283464566927,
                    "duration": 0.3204099999999812
                },
                {
                    "name": "A#6",
                    "midi": 94,
                    "time": 281.31998000000203,
                    "velocity": 0.4645669291338583,
                    "duration": 0.3204099999999812
                },
                {
                    "name": "A#5",
                    "midi": 82,
                    "time": 281.31998000000203,
                    "velocity": 0.4645669291338583,
                    "duration": 0.3204099999999812
                },
                {
                    "name": "D#3",
                    "midi": 51,
                    "time": 281.640390000002,
                    "velocity": 0.4094488188976378,
                    "duration": 0.060076874999992924
                },
                {
                    "name": "D#4",
                    "midi": 63,
                    "time": 281.640390000002,
                    "velocity": 0.49606299212598426,
                    "duration": 0.060076874999992924
                },
                {
                    "name": "D#3",
                    "midi": 51,
                    "time": 281.80059500000203,
                    "velocity": 0.4330708661417323,
                    "duration": 0.060076874999992924
                },
                {
                    "name": "D#4",
                    "midi": 63,
                    "time": 281.80059500000203,
                    "velocity": 0.5196850393700787,
                    "duration": 0.060076874999992924
                },
                {
                    "name": "D#4",
                    "midi": 63,
                    "time": 281.96080000000205,
                    "velocity": 0.5275590551181102,
                    "duration": 0.060076874999992924
                },
                {
                    "name": "D#3",
                    "midi": 51,
                    "time": 281.96080000000205,
                    "velocity": 0.44881889763779526,
                    "duration": 0.060076874999992924
                },
                {
                    "name": "D#4",
                    "midi": 63,
                    "time": 282.12100500000207,
                    "velocity": 0.5354330708661418,
                    "duration": 0.060076874999992924
                },
                {
                    "name": "D#3",
                    "midi": 51,
                    "time": 282.12100500000207,
                    "velocity": 0.4645669291338583,
                    "duration": 0.060076874999992924
                },
                {
                    "name": "D#4",
                    "midi": 63,
                    "time": 282.2812100000021,
                    "velocity": 0.6220472440944882,
                    "duration": 0.3204099999999812
                },
                {
                    "name": "D#3",
                    "midi": 51,
                    "time": 282.2812100000021,
                    "velocity": 0.5196850393700787,
                    "duration": 0.3204099999999812
                },
                {
                    "name": "F3",
                    "midi": 53,
                    "time": 282.6016200000021,
                    "velocity": 0.5748031496062992,
                    "duration": 0.3204099999999812
                },
                {
                    "name": "D#4",
                    "midi": 63,
                    "time": 282.6016200000021,
                    "velocity": 0.5905511811023622,
                    "duration": 0.3204099999999812
                },
                {
                    "name": "B3",
                    "midi": 59,
                    "time": 282.6016200000021,
                    "velocity": 0.5590551181102362,
                    "duration": 0.3204099999999812
                },
                {
                    "name": "F4",
                    "midi": 65,
                    "time": 282.6016200000021,
                    "velocity": 0.6929133858267716,
                    "duration": 0.3204099999999812
                },
                {
                    "name": "F4",
                    "midi": 65,
                    "time": 282.92203000000205,
                    "velocity": 0.49606299212598426,
                    "duration": 0.16020500000001903
                },
                {
                    "name": "F5",
                    "midi": 77,
                    "time": 282.92203000000205,
                    "velocity": 0.5984251968503937,
                    "duration": 0.16020500000001903
                },
                {
                    "name": "D#5",
                    "midi": 75,
                    "time": 282.92203000000205,
                    "velocity": 0.49606299212598426,
                    "duration": 0.16020500000001903
                },
                {
                    "name": "B4",
                    "midi": 71,
                    "time": 282.92203000000205,
                    "velocity": 0.49606299212598426,
                    "duration": 0.16020500000001903
                },
                {
                    "name": "D#4",
                    "midi": 63,
                    "time": 283.0822350000021,
                    "velocity": 0.48031496062992124,
                    "duration": 0.16020500000001903
                },
                {
                    "name": "D#5",
                    "midi": 75,
                    "time": 283.0822350000021,
                    "velocity": 0.5826771653543307,
                    "duration": 0.16020500000001903
                },
                {
                    "name": "A#4",
                    "midi": 70,
                    "time": 283.2424400000021,
                    "velocity": 0.49606299212598426,
                    "duration": 0.16020500000001903
                },
                {
                    "name": "D5",
                    "midi": 74,
                    "time": 283.2424400000021,
                    "velocity": 0.49606299212598426,
                    "duration": 0.16020500000001903
                },
                {
                    "name": "F5",
                    "midi": 77,
                    "time": 283.2424400000021,
                    "velocity": 0.5984251968503937,
                    "duration": 0.16020500000001903
                },
                {
                    "name": "F4",
                    "midi": 65,
                    "time": 283.2424400000021,
                    "velocity": 0.49606299212598426,
                    "duration": 0.16020500000001903
                },
                {
                    "name": "F#5",
                    "midi": 78,
                    "time": 283.4026450000021,
                    "velocity": 0.5669291338582677,
                    "duration": 0.16020500000001903
                },
                {
                    "name": "F#4",
                    "midi": 66,
                    "time": 283.4026450000021,
                    "velocity": 0.4645669291338583,
                    "duration": 0.16020500000001903
                },
                {
                    "name": "F#4",
                    "midi": 66,
                    "time": 283.56285000000213,
                    "velocity": 0.49606299212598426,
                    "duration": 0.060076874999992924
                },
                {
                    "name": "F#3",
                    "midi": 54,
                    "time": 283.56285000000213,
                    "velocity": 0.4094488188976378,
                    "duration": 0.060076874999992924
                },
                {
                    "name": "F#3",
                    "midi": 54,
                    "time": 283.72305500000215,
                    "velocity": 0.4330708661417323,
                    "duration": 0.060076874999992924
                },
                {
                    "name": "F#4",
                    "midi": 66,
                    "time": 283.72305500000215,
                    "velocity": 0.5196850393700787,
                    "duration": 0.060076874999992924
                },
                {
                    "name": "F#3",
                    "midi": 54,
                    "time": 283.88326000000217,
                    "velocity": 0.44881889763779526,
                    "duration": 0.060076874999992924
                },
                {
                    "name": "F#4",
                    "midi": 66,
                    "time": 283.88326000000217,
                    "velocity": 0.5275590551181102,
                    "duration": 0.060076874999992924
                },
                {
                    "name": "F#4",
                    "midi": 66,
                    "time": 284.0434650000022,
                    "velocity": 0.5196850393700787,
                    "duration": 0.060076874999992924
                },
                {
                    "name": "F#3",
                    "midi": 54,
                    "time": 284.0434650000022,
                    "velocity": 0.44881889763779526,
                    "duration": 0.060076874999992924
                },
                {
                    "name": "F#4",
                    "midi": 66,
                    "time": 284.2036700000022,
                    "velocity": 0.6220472440944882,
                    "duration": 0.3204099999999812
                },
                {
                    "name": "F#3",
                    "midi": 54,
                    "time": 284.2036700000022,
                    "velocity": 0.5354330708661418,
                    "duration": 0.3204099999999812
                },
                {
                    "name": "G#3",
                    "midi": 56,
                    "time": 284.5240800000022,
                    "velocity": 0.5669291338582677,
                    "duration": 0.3204099999999812
                },
                {
                    "name": "D4",
                    "midi": 62,
                    "time": 284.5240800000022,
                    "velocity": 0.5748031496062992,
                    "duration": 0.3204099999999812
                },
                {
                    "name": "F#4",
                    "midi": 66,
                    "time": 284.5240800000022,
                    "velocity": 0.5905511811023622,
                    "duration": 0.3204099999999812
                },
                {
                    "name": "G#4",
                    "midi": 68,
                    "time": 284.5240800000022,
                    "velocity": 0.6850393700787402,
                    "duration": 0.3204099999999812
                },
                {
                    "name": "G#4",
                    "midi": 68,
                    "time": 284.84449000000217,
                    "velocity": 0.49606299212598426,
                    "duration": 0.16020500000001903
                },
                {
                    "name": "F#5",
                    "midi": 78,
                    "time": 284.84449000000217,
                    "velocity": 0.49606299212598426,
                    "duration": 0.16020500000001903
                },
                {
                    "name": "G#5",
                    "midi": 80,
                    "time": 284.84449000000217,
                    "velocity": 0.5984251968503937,
                    "duration": 0.16020500000001903
                },
                {
                    "name": "D5",
                    "midi": 74,
                    "time": 284.84449000000217,
                    "velocity": 0.49606299212598426,
                    "duration": 0.16020500000001903
                },
                {
                    "name": "F#4",
                    "midi": 66,
                    "time": 285.0046950000022,
                    "velocity": 0.48031496062992124,
                    "duration": 0.16020500000001903
                },
                {
                    "name": "F#5",
                    "midi": 78,
                    "time": 285.0046950000022,
                    "velocity": 0.5826771653543307,
                    "duration": 0.16020500000001903
                },
                {
                    "name": "G#4",
                    "midi": 68,
                    "time": 285.1649000000022,
                    "velocity": 0.49606299212598426,
                    "duration": 0.16020500000001903
                },
                {
                    "name": "F5",
                    "midi": 77,
                    "time": 285.1649000000022,
                    "velocity": 0.49606299212598426,
                    "duration": 0.16020500000001903
                },
                {
                    "name": "G#5",
                    "midi": 80,
                    "time": 285.1649000000022,
                    "velocity": 0.5984251968503937,
                    "duration": 0.16020500000001903
                },
                {
                    "name": "C#5",
                    "midi": 73,
                    "time": 285.1649000000022,
                    "velocity": 0.49606299212598426,
                    "duration": 0.16020500000001903
                },
                {
                    "name": "A5",
                    "midi": 81,
                    "time": 285.3251050000022,
                    "velocity": 0.5669291338582677,
                    "duration": 0.16020500000001903
                },
                {
                    "name": "A4",
                    "midi": 69,
                    "time": 285.3251050000022,
                    "velocity": 0.4645669291338583,
                    "duration": 0.16020500000001903
                },
                {
                    "name": "A4",
                    "midi": 69,
                    "time": 285.48531000000224,
                    "velocity": 0.4409448818897638,
                    "duration": 0.060076874999992924
                },
                {
                    "name": "A3",
                    "midi": 57,
                    "time": 285.48531000000224,
                    "velocity": 0.3700787401574803,
                    "duration": 0.060076874999992924
                },
                {
                    "name": "A3",
                    "midi": 57,
                    "time": 285.64551500000226,
                    "velocity": 0.4015748031496063,
                    "duration": 0.060076874999992924
                },
                {
                    "name": "A4",
                    "midi": 69,
                    "time": 285.64551500000226,
                    "velocity": 0.47244094488188976,
                    "duration": 0.060076874999992924
                },
                {
                    "name": "A3",
                    "midi": 57,
                    "time": 285.8057200000023,
                    "velocity": 0.4251968503937008,
                    "duration": 0.060076874999992924
                },
                {
                    "name": "A4",
                    "midi": 69,
                    "time": 285.8057200000023,
                    "velocity": 0.5039370078740157,
                    "duration": 0.060076874999992924
                },
                {
                    "name": "A3",
                    "midi": 57,
                    "time": 285.9659250000023,
                    "velocity": 0.44881889763779526,
                    "duration": 0.060076874999992924
                },
                {
                    "name": "A4",
                    "midi": 69,
                    "time": 285.9659250000023,
                    "velocity": 0.5354330708661418,
                    "duration": 0.060076874999992924
                },
                {
                    "name": "A4",
                    "midi": 69,
                    "time": 286.1261300000023,
                    "velocity": 0.6456692913385826,
                    "duration": 0.3204099999999812
                },
                {
                    "name": "A3",
                    "midi": 57,
                    "time": 286.1261300000023,
                    "velocity": 0.5511811023622047,
                    "duration": 0.3204099999999812
                },
                {
                    "name": "F4",
                    "midi": 65,
                    "time": 286.4465400000023,
                    "velocity": 0.4094488188976378,
                    "duration": 0.060076874999992924
                },
                {
                    "name": "A4",
                    "midi": 69,
                    "time": 286.4465400000023,
                    "velocity": 0.4094488188976378,
                    "duration": 0.060076874999992924
                },
                {
                    "name": "B4",
                    "midi": 71,
                    "time": 286.4465400000023,
                    "velocity": 0.49606299212598426,
                    "duration": 0.060076874999992924
                },
                {
                    "name": "B3",
                    "midi": 59,
                    "time": 286.4465400000023,
                    "velocity": 0.4094488188976378,
                    "duration": 0.060076874999992924
                },
                {
                    "name": "B3",
                    "midi": 59,
                    "time": 286.6067450000023,
                    "velocity": 0.4330708661417323,
                    "duration": 0.060076874999992924
                },
                {
                    "name": "A4",
                    "midi": 69,
                    "time": 286.6067450000023,
                    "velocity": 0.4330708661417323,
                    "duration": 0.060076874999992924
                },
                {
                    "name": "F4",
                    "midi": 65,
                    "time": 286.6067450000023,
                    "velocity": 0.4330708661417323,
                    "duration": 0.060076874999992924
                },
                {
                    "name": "B4",
                    "midi": 71,
                    "time": 286.6067450000023,
                    "velocity": 0.5196850393700787,
                    "duration": 0.060076874999992924
                },
                {
                    "name": "F4",
                    "midi": 65,
                    "time": 286.76695000000234,
                    "velocity": 0.47244094488188976,
                    "duration": 0.060076874999992924
                },
                {
                    "name": "B3",
                    "midi": 59,
                    "time": 286.76695000000234,
                    "velocity": 0.47244094488188976,
                    "duration": 0.060076874999992924
                },
                {
                    "name": "B4",
                    "midi": 71,
                    "time": 286.76695000000234,
                    "velocity": 0.5590551181102362,
                    "duration": 0.060076874999992924
                },
                {
                    "name": "A4",
                    "midi": 69,
                    "time": 286.76695000000234,
                    "velocity": 0.47244094488188976,
                    "duration": 0.060076874999992924
                },
                {
                    "name": "F4",
                    "midi": 65,
                    "time": 286.92715500000236,
                    "velocity": 0.48031496062992124,
                    "duration": 0.060076874999992924
                },
                {
                    "name": "A4",
                    "midi": 69,
                    "time": 286.92715500000236,
                    "velocity": 0.5748031496062992,
                    "duration": 0.060076874999992924
                },
                {
                    "name": "B4",
                    "midi": 71,
                    "time": 286.92715500000236,
                    "velocity": 0.5748031496062992,
                    "duration": 0.060076874999992924
                },
                {
                    "name": "B3",
                    "midi": 59,
                    "time": 286.92715500000236,
                    "velocity": 0.48031496062992124,
                    "duration": 0.060076874999992924
                },
                {
                    "name": "B3",
                    "midi": 59,
                    "time": 287.0873600000024,
                    "velocity": 0.5354330708661418,
                    "duration": 0.3204099999999812
                },
                {
                    "name": "F4",
                    "midi": 65,
                    "time": 287.0873600000024,
                    "velocity": 0.5354330708661418,
                    "duration": 0.3204099999999812
                },
                {
                    "name": "A4",
                    "midi": 69,
                    "time": 287.0873600000024,
                    "velocity": 0.5354330708661418,
                    "duration": 0.3204099999999812
                },
                {
                    "name": "B4",
                    "midi": 71,
                    "time": 287.0873600000024,
                    "velocity": 0.6377952755905512,
                    "duration": 0.3204099999999812
                },
                {
                    "name": "C4",
                    "midi": 60,
                    "time": 287.40777000000236,
                    "velocity": 0.41732283464566927,
                    "duration": 0.060076874999992924
                },
                {
                    "name": "D#4",
                    "midi": 63,
                    "time": 287.40777000000236,
                    "velocity": 0.41732283464566927,
                    "duration": 0.060076874999992924
                },
                {
                    "name": "C5",
                    "midi": 72,
                    "time": 287.40777000000236,
                    "velocity": 0.5039370078740157,
                    "duration": 0.060076874999992924
                },
                {
                    "name": "A4",
                    "midi": 69,
                    "time": 287.40777000000236,
                    "velocity": 0.41732283464566927,
                    "duration": 0.060076874999992924
                },
                {
                    "name": "D#4",
                    "midi": 63,
                    "time": 287.5679750000024,
                    "velocity": 0.4409448818897638,
                    "duration": 0.060076874999992924
                },
                {
                    "name": "C4",
                    "midi": 60,
                    "time": 287.5679750000024,
                    "velocity": 0.4409448818897638,
                    "duration": 0.060076874999992924
                },
                {
                    "name": "C5",
                    "midi": 72,
                    "time": 287.5679750000024,
                    "velocity": 0.5354330708661418,
                    "duration": 0.060076874999992924
                },
                {
                    "name": "A4",
                    "midi": 69,
                    "time": 287.5679750000024,
                    "velocity": 0.4409448818897638,
                    "duration": 0.060076874999992924
                },
                {
                    "name": "D#4",
                    "midi": 63,
                    "time": 287.7281800000024,
                    "velocity": 0.48031496062992124,
                    "duration": 0.060076874999992924
                },
                {
                    "name": "C5",
                    "midi": 72,
                    "time": 287.7281800000024,
                    "velocity": 0.5748031496062992,
                    "duration": 0.060076874999992924
                },
                {
                    "name": "C4",
                    "midi": 60,
                    "time": 287.7281800000024,
                    "velocity": 0.48031496062992124,
                    "duration": 0.060076874999992924
                },
                {
                    "name": "D#4",
                    "midi": 63,
                    "time": 287.8883850000024,
                    "velocity": 0.5039370078740157,
                    "duration": 0.060076874999992924
                },
                {
                    "name": "C4",
                    "midi": 60,
                    "time": 287.8883850000024,
                    "velocity": 0.5039370078740157,
                    "duration": 0.060076874999992924
                },
                {
                    "name": "C5",
                    "midi": 72,
                    "time": 287.8883850000024,
                    "velocity": 0.5905511811023622,
                    "duration": 0.060076874999992924
                },
                {
                    "name": "F#4",
                    "midi": 66,
                    "time": 288.04859000000243,
                    "velocity": 0.5669291338582677,
                    "duration": 0.3204099999999812
                },
                {
                    "name": "D#4",
                    "midi": 63,
                    "time": 288.04859000000243,
                    "velocity": 0.5669291338582677,
                    "duration": 0.3204099999999812
                },
                {
                    "name": "C5",
                    "midi": 72,
                    "time": 288.04859000000243,
                    "velocity": 0.6614173228346457,
                    "duration": 0.3204099999999812
                },
                {
                    "name": "C4",
                    "midi": 60,
                    "time": 288.04859000000243,
                    "velocity": 0.5669291338582677,
                    "duration": 0.3204099999999812
                },
                {
                    "name": "F#4",
                    "midi": 66,
                    "time": 288.3690000000024,
                    "velocity": 0.6141732283464567,
                    "duration": 0.3204099999999812
                },
                {
                    "name": "D#4",
                    "midi": 63,
                    "time": 288.3690000000024,
                    "velocity": 0.6141732283464567,
                    "duration": 0.3204099999999812
                },
                {
                    "name": "A4",
                    "midi": 69,
                    "time": 288.3690000000024,
                    "velocity": 0.6141732283464567,
                    "duration": 0.3204099999999812
                },
                {
                    "name": "D#5",
                    "midi": 75,
                    "time": 288.3690000000024,
                    "velocity": 0.7322834645669292,
                    "duration": 0.3204099999999812
                },
                {
                    "name": "D#5",
                    "midi": 75,
                    "time": 288.6894100000024,
                    "velocity": 0.6299212598425197,
                    "duration": 0.16020500000001903
                },
                {
                    "name": "F#5",
                    "midi": 78,
                    "time": 288.6894100000024,
                    "velocity": 0.6299212598425197,
                    "duration": 0.16020500000001903
                },
                {
                    "name": "A5",
                    "midi": 81,
                    "time": 288.6894100000024,
                    "velocity": 0.6299212598425197,
                    "duration": 0.16020500000001903
                },
                {
                    "name": "F#6",
                    "midi": 90,
                    "time": 288.6894100000024,
                    "velocity": 0.7401574803149606,
                    "duration": 0.16020500000001903
                },
                {
                    "name": "D5",
                    "midi": 74,
                    "time": 289.00982000000243,
                    "velocity": 0.7401574803149606,
                    "duration": 0.3204099999999812
                },
                {
                    "name": "D4",
                    "midi": 62,
                    "time": 289.00982000000243,
                    "velocity": 0.6141732283464567,
                    "duration": 0.3204099999999812
                },
                {
                    "name": "F#4",
                    "midi": 66,
                    "time": 289.00982000000243,
                    "velocity": 0.6141732283464567,
                    "duration": 0.3204099999999812
                },
                {
                    "name": "C#4",
                    "midi": 61,
                    "time": 289.3302300000024,
                    "velocity": 0.5826771653543307,
                    "duration": 0.3204099999999812
                },
                {
                    "name": "F#4",
                    "midi": 66,
                    "time": 289.3302300000024,
                    "velocity": 0.5826771653543307,
                    "duration": 0.3204099999999812
                },
                {
                    "name": "C#5",
                    "midi": 73,
                    "time": 289.3302300000024,
                    "velocity": 0.6929133858267716,
                    "duration": 0.3204099999999812
                },
                {
                    "name": "F#5",
                    "midi": 78,
                    "time": 289.6506400000024,
                    "velocity": 0.6377952755905512,
                    "duration": 0.16020500000001903
                },
                {
                    "name": "F#6",
                    "midi": 90,
                    "time": 289.6506400000024,
                    "velocity": 0.7716535433070866,
                    "duration": 0.16020500000001903
                },
                {
                    "name": "F#4",
                    "midi": 66,
                    "time": 289.97105000000244,
                    "velocity": 0.5590551181102362,
                    "duration": 0.3204099999999812
                },
                {
                    "name": "D4",
                    "midi": 62,
                    "time": 289.97105000000244,
                    "velocity": 0.5590551181102362,
                    "duration": 0.3204099999999812
                },
                {
                    "name": "D5",
                    "midi": 74,
                    "time": 289.97105000000244,
                    "velocity": 0.6614173228346457,
                    "duration": 0.3204099999999812
                },
                {
                    "name": "D5",
                    "midi": 74,
                    "time": 290.2914600000024,
                    "velocity": 0.6377952755905512,
                    "duration": 0.16020500000001903
                },
                {
                    "name": "D6",
                    "midi": 86,
                    "time": 290.2914600000024,
                    "velocity": 0.7716535433070866,
                    "duration": 0.16020500000001903
                },
                {
                    "name": "G#4",
                    "midi": 68,
                    "time": 290.61187000000245,
                    "velocity": 0.5590551181102362,
                    "duration": 0.3204099999999812
                },
                {
                    "name": "F#4",
                    "midi": 66,
                    "time": 290.61187000000245,
                    "velocity": 0.5196850393700787,
                    "duration": 0.3204099999999812
                },
                {
                    "name": "D4",
                    "midi": 62,
                    "time": 290.61187000000245,
                    "velocity": 0.5039370078740157,
                    "duration": 0.3204099999999812
                },
                {
                    "name": "B4",
                    "midi": 71,
                    "time": 290.61187000000245,
                    "velocity": 0.6614173228346457,
                    "duration": 0.3204099999999812
                },
                {
                    "name": "B4",
                    "midi": 71,
                    "time": 290.93228000000244,
                    "velocity": 0.6377952755905512,
                    "duration": 0.16020500000001903
                },
                {
                    "name": "B5",
                    "midi": 83,
                    "time": 290.93228000000244,
                    "velocity": 0.7716535433070866,
                    "duration": 0.16020500000001903
                },
                {
                    "name": "F#4",
                    "midi": 66,
                    "time": 291.2526900000025,
                    "velocity": 0.5590551181102362,
                    "duration": 0.3204099999999812
                },
                {
                    "name": "C#4",
                    "midi": 61,
                    "time": 291.2526900000025,
                    "velocity": 0.5590551181102362,
                    "duration": 0.3204099999999812
                },
                {
                    "name": "A4",
                    "midi": 69,
                    "time": 291.2526900000025,
                    "velocity": 0.6614173228346457,
                    "duration": 0.3204099999999812
                },
                {
                    "name": "A4",
                    "midi": 69,
                    "time": 291.57310000000246,
                    "velocity": 0.6299212598425197,
                    "duration": 0.16020500000001903
                },
                {
                    "name": "A5",
                    "midi": 81,
                    "time": 291.57310000000246,
                    "velocity": 0.7559055118110236,
                    "duration": 0.16020500000001903
                },
                {
                    "name": "F#4",
                    "midi": 66,
                    "time": 291.8935100000025,
                    "velocity": 0.5590551181102362,
                    "duration": 0.3204099999999812
                },
                {
                    "name": "C#4",
                    "midi": 61,
                    "time": 291.8935100000025,
                    "velocity": 0.5590551181102362,
                    "duration": 0.3204099999999812
                },
                {
                    "name": "G#4",
                    "midi": 68,
                    "time": 291.8935100000025,
                    "velocity": 0.6614173228346457,
                    "duration": 0.3204099999999812
                },
                {
                    "name": "G#4",
                    "midi": 68,
                    "time": 292.2139200000025,
                    "velocity": 0.6141732283464567,
                    "duration": 0.16020500000001903
                },
                {
                    "name": "G#5",
                    "midi": 80,
                    "time": 292.2139200000025,
                    "velocity": 0.7401574803149606,
                    "duration": 0.16020500000001903
                },
                {
                    "name": "F4",
                    "midi": 65,
                    "time": 292.5343300000025,
                    "velocity": 0.5275590551181102,
                    "duration": 0.3204099999999812
                },
                {
                    "name": "C#4",
                    "midi": 61,
                    "time": 292.5343300000025,
                    "velocity": 0.5275590551181102,
                    "duration": 0.3204099999999812
                },
                {
                    "name": "G#4",
                    "midi": 68,
                    "time": 292.5343300000025,
                    "velocity": 0.6220472440944882,
                    "duration": 0.3204099999999812
                },
                {
                    "name": "C#6",
                    "midi": 85,
                    "time": 292.8547400000025,
                    "velocity": 0.6299212598425197,
                    "duration": 0.16020500000001903
                },
                {
                    "name": "G#5",
                    "midi": 80,
                    "time": 292.8547400000025,
                    "velocity": 0.5275590551181102,
                    "duration": 0.16020500000001903
                },
                {
                    "name": "C#5",
                    "midi": 73,
                    "time": 292.8547400000025,
                    "velocity": 0.49606299212598426,
                    "duration": 0.16020500000001903
                },
                {
                    "name": "C#5",
                    "midi": 73,
                    "time": 293.17515000000253,
                    "velocity": 0.49606299212598426,
                    "duration": 0.3204099999999812
                },
                {
                    "name": "G#5",
                    "midi": 80,
                    "time": 293.17515000000253,
                    "velocity": 0.5275590551181102,
                    "duration": 0.3204099999999812
                },
                {
                    "name": "C#6",
                    "midi": 85,
                    "time": 293.17515000000253,
                    "velocity": 0.6456692913385826,
                    "duration": 0.3204099999999812
                },
                {
                    "name": "F#6",
                    "midi": 90,
                    "time": 293.4955600000025,
                    "velocity": 0.5826771653543307,
                    "duration": 0.3204099999999812
                },
                {
                    "name": "F#5",
                    "midi": 78,
                    "time": 293.4955600000025,
                    "velocity": 0.5039370078740157,
                    "duration": 0.3204099999999812
                },
                {
                    "name": "C#5",
                    "midi": 73,
                    "time": 293.8159700000025,
                    "velocity": 0.36220472440944884,
                    "duration": 0.16020500000001903
                },
                {
                    "name": "G#4",
                    "midi": 68,
                    "time": 293.8159700000025,
                    "velocity": 0.2992125984251969,
                    "duration": 0.16020500000001903
                },
                {
                    "name": "C#4",
                    "midi": 61,
                    "time": 293.8159700000025,
                    "velocity": 0.2283464566929134,
                    "duration": 0.16020500000001903
                },
                {
                    "name": "C#4",
                    "midi": 61,
                    "time": 294.13638000000253,
                    "velocity": 0.23622047244094488,
                    "duration": 0.3204099999999812
                },
                {
                    "name": "G#4",
                    "midi": 68,
                    "time": 294.13638000000253,
                    "velocity": 0.31496062992125984,
                    "duration": 0.3204099999999812
                },
                {
                    "name": "C#5",
                    "midi": 73,
                    "time": 294.13638000000253,
                    "velocity": 0.36220472440944884,
                    "duration": 0.3204099999999812
                },
                {
                    "name": "F#5",
                    "midi": 78,
                    "time": 294.4567900000025,
                    "velocity": 0.33858267716535434,
                    "duration": 0.3204099999999812
                },
                {
                    "name": "F#4",
                    "midi": 66,
                    "time": 294.4567900000025,
                    "velocity": 0.29133858267716534,
                    "duration": 0.3204099999999812
                },
                {
                    "name": "C#5",
                    "midi": 73,
                    "time": 294.7772000000025,
                    "velocity": 0.33070866141732286,
                    "duration": 0.3204099999999812
                },
                {
                    "name": "G#4",
                    "midi": 68,
                    "time": 294.7772000000025,
                    "velocity": 0.2440944881889764,
                    "duration": 0.3204099999999812
                },
                {
                    "name": "C#4",
                    "midi": 61,
                    "time": 294.7772000000025,
                    "velocity": 0.2125984251968504,
                    "duration": 0.3204099999999812
                },
                {
                    "name": "C#4",
                    "midi": 61,
                    "time": 295.0976100000025,
                    "velocity": 0.2755905511811024,
                    "duration": 0.3204099999999812
                },
                {
                    "name": "C#5",
                    "midi": 73,
                    "time": 295.0976100000025,
                    "velocity": 0.36220472440944884,
                    "duration": 0.3204099999999812
                },
                {
                    "name": "F#5",
                    "midi": 78,
                    "time": 295.41802000000246,
                    "velocity": 0.33858267716535434,
                    "duration": 0.3204099999999812
                },
                {
                    "name": "F#4",
                    "midi": 66,
                    "time": 295.41802000000246,
                    "velocity": 0.2677165354330709,
                    "duration": 0.3204099999999812
                },
                {
                    "name": "C#5",
                    "midi": 73,
                    "time": 295.73843000000244,
                    "velocity": 0.30708661417322836,
                    "duration": 0.3204099999999812
                },
                {
                    "name": "G#4",
                    "midi": 68,
                    "time": 295.73843000000244,
                    "velocity": 0.2283464566929134,
                    "duration": 0.3204099999999812
                },
                {
                    "name": "C#4",
                    "midi": 61,
                    "time": 295.73843000000244,
                    "velocity": 0.1968503937007874,
                    "duration": 0.3204099999999812
                },
                {
                    "name": "C#4",
                    "midi": 61,
                    "time": 296.0588400000024,
                    "velocity": 0.25196850393700787,
                    "duration": 0.3204099999999812
                },
                {
                    "name": "C#5",
                    "midi": 73,
                    "time": 296.0588400000024,
                    "velocity": 0.33858267716535434,
                    "duration": 0.3204099999999812
                },
                {
                    "name": "F#5",
                    "midi": 78,
                    "time": 296.3792500000024,
                    "velocity": 0.31496062992125984,
                    "duration": 0.3204099999999812
                },
                {
                    "name": "F#4",
                    "midi": 66,
                    "time": 296.3792500000024,
                    "velocity": 0.2440944881889764,
                    "duration": 0.3204099999999812
                },
                {
                    "name": "C#5",
                    "midi": 73,
                    "time": 296.6996600000024,
                    "velocity": 0.28346456692913385,
                    "duration": 0.3204099999999812
                },
                {
                    "name": "G#4",
                    "midi": 68,
                    "time": 296.6996600000024,
                    "velocity": 0.2125984251968504,
                    "duration": 0.3204099999999812
                },
                {
                    "name": "C#4",
                    "midi": 61,
                    "time": 296.6996600000024,
                    "velocity": 0.18110236220472442,
                    "duration": 0.3204099999999812
                },
                {
                    "name": "C#4",
                    "midi": 61,
                    "time": 297.02007000000236,
                    "velocity": 0.2283464566929134,
                    "duration": 0.3204099999999812
                },
                {
                    "name": "C#5",
                    "midi": 73,
                    "time": 297.02007000000236,
                    "velocity": 0.30708661417322836,
                    "duration": 0.3204099999999812
                },
                {
                    "name": "F#5",
                    "midi": 78,
                    "time": 297.34048000000234,
                    "velocity": 0.29133858267716534,
                    "duration": 0.3204099999999812
                },
                {
                    "name": "F#4",
                    "midi": 66,
                    "time": 297.34048000000234,
                    "velocity": 0.2283464566929134,
                    "duration": 0.3204099999999812
                },
                {
                    "name": "C#5",
                    "midi": 73,
                    "time": 297.6608900000023,
                    "velocity": 0.25984251968503935,
                    "duration": 0.3204099999999812
                },
                {
                    "name": "G#4",
                    "midi": 68,
                    "time": 297.6608900000023,
                    "velocity": 0.2047244094488189,
                    "duration": 0.3204099999999812
                },
                {
                    "name": "C#4",
                    "midi": 61,
                    "time": 297.6608900000023,
                    "velocity": 0.16535433070866143,
                    "duration": 0.3204099999999812
                },
                {
                    "name": "C#4",
                    "midi": 61,
                    "time": 297.9813000000023,
                    "velocity": 0.2125984251968504,
                    "duration": 0.3204099999999812
                },
                {
                    "name": "C#5",
                    "midi": 73,
                    "time": 297.9813000000023,
                    "velocity": 0.29133858267716534,
                    "duration": 0.3204099999999812
                },
                {
                    "name": "F#5",
                    "midi": 78,
                    "time": 298.3017100000023,
                    "velocity": 0.2755905511811024,
                    "duration": 0.3204099999999812
                },
                {
                    "name": "F#4",
                    "midi": 66,
                    "time": 298.3017100000023,
                    "velocity": 0.2125984251968504,
                    "duration": 0.3204099999999812
                },
                {
                    "name": "C#5",
                    "midi": 73,
                    "time": 298.62212000000227,
                    "velocity": 0.25196850393700787,
                    "duration": 0.3204099999999812
                },
                {
                    "name": "G#4",
                    "midi": 68,
                    "time": 298.62212000000227,
                    "velocity": 0.1889763779527559,
                    "duration": 0.3204099999999812
                },
                {
                    "name": "C#4",
                    "midi": 61,
                    "time": 298.62212000000227,
                    "velocity": 0.15748031496062992,
                    "duration": 0.3204099999999812
                },
                {
                    "name": "C#4",
                    "midi": 61,
                    "time": 298.94253000000225,
                    "velocity": 0.2125984251968504,
                    "duration": 0.3204099999999812
                },
                {
                    "name": "C#5",
                    "midi": 73,
                    "time": 298.94253000000225,
                    "velocity": 0.2755905511811024,
                    "duration": 0.3204099999999812
                },
                {
                    "name": "F#5",
                    "midi": 78,
                    "time": 299.26294000000223,
                    "velocity": 0.25984251968503935,
                    "duration": 0.3204099999999812
                },
                {
                    "name": "F#4",
                    "midi": 66,
                    "time": 299.26294000000223,
                    "velocity": 0.2125984251968504,
                    "duration": 0.3204099999999812
                },
                {
                    "name": "C#5",
                    "midi": 73,
                    "time": 299.5833500000022,
                    "velocity": 0.23622047244094488,
                    "duration": 0.3204099999999812
                },
                {
                    "name": "G#4",
                    "midi": 68,
                    "time": 299.5833500000022,
                    "velocity": 0.18110236220472442,
                    "duration": 0.3204099999999812
                },
                {
                    "name": "C#4",
                    "midi": 61,
                    "time": 299.5833500000022,
                    "velocity": 0.14960629921259844,
                    "duration": 0.3204099999999812
                },
                {
                    "name": "C#4",
                    "midi": 61,
                    "time": 299.9037600000022,
                    "velocity": 0.1968503937007874,
                    "duration": 0.3204099999999812
                },
                {
                    "name": "C#5",
                    "midi": 73,
                    "time": 299.9037600000022,
                    "velocity": 0.25984251968503935,
                    "duration": 0.3204099999999812
                },
                {
                    "name": "F#5",
                    "midi": 78,
                    "time": 300.2241700000022,
                    "velocity": 0.2440944881889764,
                    "duration": 0.3204099999999812
                },
                {
                    "name": "F#4",
                    "midi": 66,
                    "time": 300.2241700000022,
                    "velocity": 0.1968503937007874,
                    "duration": 0.3204099999999812
                },
                {
                    "name": "C#4",
                    "midi": 61,
                    "time": 300.54458000000216,
                    "velocity": 0.14960629921259844,
                    "duration": 0.3204099999999812
                },
                {
                    "name": "G#4",
                    "midi": 68,
                    "time": 300.54458000000216,
                    "velocity": 0.18110236220472442,
                    "duration": 0.3204099999999812
                },
                {
                    "name": "C#5",
                    "midi": 73,
                    "time": 300.54458000000216,
                    "velocity": 0.23622047244094488,
                    "duration": 0.3204099999999812
                },
                {
                    "name": "A#3",
                    "midi": 58,
                    "time": 301.1854000000021,
                    "velocity": 0.18110236220472442,
                    "duration": 0.3204099999999812
                },
                {
                    "name": "A#3",
                    "midi": 58,
                    "time": 301.5058100000021,
                    "velocity": 0.18110236220472442,
                    "duration": 0.3204099999999812
                },
                {
                    "name": "A#3",
                    "midi": 58,
                    "time": 302.14663000000206,
                    "velocity": 0.13385826771653545,
                    "duration": 0.3204099999999812
                },
                {
                    "name": "F#4",
                    "midi": 66,
                    "time": 302.14663000000206,
                    "velocity": 0.1732283464566929,
                    "duration": 0.3204099999999812
                },
                {
                    "name": "A#3",
                    "midi": 58,
                    "time": 302.46704000000204,
                    "velocity": 0.13385826771653545,
                    "duration": 0.3204099999999812
                },
                {
                    "name": "F#4",
                    "midi": 66,
                    "time": 302.46704000000204,
                    "velocity": 0.1732283464566929,
                    "duration": 0.3204099999999812
                },
                {
                    "name": "B3",
                    "midi": 59,
                    "time": 303.107860000002,
                    "velocity": 0.15748031496062992,
                    "duration": 0.3204099999999812
                },
                {
                    "name": "F4",
                    "midi": 65,
                    "time": 303.428270000002,
                    "velocity": 0.18110236220472442,
                    "duration": 0.3204099999999812
                },
                {
                    "name": "B3",
                    "midi": 59,
                    "time": 303.428270000002,
                    "velocity": 0.14960629921259844,
                    "duration": 0.3204099999999812
                },
                {
                    "name": "A#3",
                    "midi": 58,
                    "time": 304.06909000000195,
                    "velocity": 0.15748031496062992,
                    "duration": 0.3204099999999812
                },
                {
                    "name": "F#4",
                    "midi": 66,
                    "time": 304.06909000000195,
                    "velocity": 0.1889763779527559,
                    "duration": 0.3204099999999812
                },
                {
                    "name": "A#3",
                    "midi": 58,
                    "time": 304.38950000000193,
                    "velocity": 0.15748031496062992,
                    "duration": 0.3204099999999812
                },
                {
                    "name": "F#4",
                    "midi": 66,
                    "time": 304.38950000000193,
                    "velocity": 0.1889763779527559,
                    "duration": 0.3204099999999812
                },
                {
                    "name": "A#3",
                    "midi": 58,
                    "time": 304.7099100000019,
                    "velocity": 0.14960629921259844,
                    "duration": 0.3204099999999812
                },
                {
                    "name": "F#4",
                    "midi": 66,
                    "time": 304.7099100000019,
                    "velocity": 0.18110236220472442,
                    "duration": 0.3204099999999812
                },
                {
                    "name": "C#4",
                    "midi": 61,
                    "time": 305.0303200000019,
                    "velocity": 0.14173228346456693,
                    "duration": 0.3204099999999812
                },
                {
                    "name": "F#4",
                    "midi": 66,
                    "time": 305.0303200000019,
                    "velocity": 0.1732283464566929,
                    "duration": 0.3204099999999812
                },
                {
                    "name": "C#4",
                    "midi": 61,
                    "time": 305.3507300000019,
                    "velocity": 0.14173228346456693,
                    "duration": 0.3204099999999812
                },
                {
                    "name": "F#4",
                    "midi": 66,
                    "time": 305.3507300000019,
                    "velocity": 0.1732283464566929,
                    "duration": 0.3204099999999812
                },
                {
                    "name": "C#4",
                    "midi": 61,
                    "time": 305.67114000000186,
                    "velocity": 0.14960629921259844,
                    "duration": 0.3204099999999812
                },
                {
                    "name": "F#4",
                    "midi": 66,
                    "time": 305.67114000000186,
                    "velocity": 0.18110236220472442,
                    "duration": 0.3204099999999812
                },
                {
                    "name": "G#3",
                    "midi": 56,
                    "time": 305.99155000000184,
                    "velocity": 0.14173228346456693,
                    "duration": 0.3204099999999812
                },
                {
                    "name": "C#4",
                    "midi": 61,
                    "time": 305.99155000000184,
                    "velocity": 0.1732283464566929,
                    "duration": 0.3204099999999812
                },
                {
                    "name": "F#3",
                    "midi": 54,
                    "time": 306.3119600000018,
                    "velocity": 0.14173228346456693,
                    "duration": 0.3204099999999812
                },
                {
                    "name": "C#4",
                    "midi": 61,
                    "time": 306.3119600000018,
                    "velocity": 0.1732283464566929,
                    "duration": 0.3204099999999812
                },
                {
                    "name": "F#3",
                    "midi": 54,
                    "time": 306.6323700000018,
                    "velocity": 0.14960629921259844,
                    "duration": 0.3204099999999812
                },
                {
                    "name": "C#4",
                    "midi": 61,
                    "time": 306.6323700000018,
                    "velocity": 0.18110236220472442,
                    "duration": 0.3204099999999812
                },
                {
                    "name": "G#3",
                    "midi": 56,
                    "time": 306.9527800000018,
                    "velocity": 0.14173228346456693,
                    "duration": 0.3204099999999812
                },
                {
                    "name": "C#4",
                    "midi": 61,
                    "time": 306.9527800000018,
                    "velocity": 0.1732283464566929,
                    "duration": 0.3204099999999812
                },
                {
                    "name": "F#3",
                    "midi": 54,
                    "time": 307.27319000000176,
                    "velocity": 0.14173228346456693,
                    "duration": 0.3204099999999812
                },
                {
                    "name": "C#4",
                    "midi": 61,
                    "time": 307.27319000000176,
                    "velocity": 0.1732283464566929,
                    "duration": 0.3204099999999812
                },
                {
                    "name": "F#3",
                    "midi": 54,
                    "time": 307.59360000000174,
                    "velocity": 0.14960629921259844,
                    "duration": 0.3204099999999812
                },
                {
                    "name": "C#4",
                    "midi": 61,
                    "time": 307.59360000000174,
                    "velocity": 0.18110236220472442,
                    "duration": 0.3204099999999812
                },
                {
                    "name": "G#3",
                    "midi": 56,
                    "time": 307.9140100000017,
                    "velocity": 0.14173228346456693,
                    "duration": 0.3204099999999812
                },
                {
                    "name": "C#4",
                    "midi": 61,
                    "time": 307.9140100000017,
                    "velocity": 0.1732283464566929,
                    "duration": 0.3204099999999812
                },
                {
                    "name": "F#3",
                    "midi": 54,
                    "time": 308.2344200000017,
                    "velocity": 0.14960629921259844,
                    "duration": 0.3204099999999812
                },
                {
                    "name": "C#4",
                    "midi": 61,
                    "time": 308.2344200000017,
                    "velocity": 0.18110236220472442,
                    "duration": 0.3204099999999812
                },
                {
                    "name": "F#3",
                    "midi": 54,
                    "time": 308.5548300000017,
                    "velocity": 0.14960629921259844,
                    "duration": 0.3204099999999812
                },
                {
                    "name": "C#4",
                    "midi": 61,
                    "time": 308.5548300000017,
                    "velocity": 0.18110236220472442,
                    "duration": 0.3204099999999812
                },
                {
                    "name": "F#3",
                    "midi": 54,
                    "time": 310.4772900000017,
                    "velocity": 0.18110236220472442,
                    "duration": 4.165329999999983
                },
                {
                    "name": "C#4",
                    "midi": 61,
                    "time": 310.4772900000017,
                    "velocity": 0.18110236220472442,
                    "duration": 4.165329999999983
                },
                {
                    "name": "F#4",
                    "midi": 66,
                    "time": 310.4772900000017,
                    "velocity": 0.18110236220472442,
                    "duration": 4.165329999999983
                },
                {
                    "name": "A#4",
                    "midi": 70,
                    "time": 310.4772900000017,
                    "velocity": 0.18110236220472442,
                    "duration": 4.165329999999983
                }
            ],
            "controlChanges": {
                "7": [
                    {
                        "number": 7,
                        "time": 0,
                        "value": 0.7874015748031497
                    }
                ],
                "10": [
                    {
                        "number": 10,
                        "time": 0,
                        "value": 0.5039370078740157
                    }
                ],
                "64": [
                    {
                        "number": 64,
                        "time": 0,
                        "value": 0
                    }
                ],
                "91": [
                    {
                        "number": 91,
                        "time": 0,
                        "value": 1
                    }
                ]
            },
            "id": 2,
            "name": "Piano right 2",
            "instrumentNumber": 0,
            "instrument": "acoustic grand piano",
            "instrumentFamily": "piano",
            "channelNumber": 0,
            "isPercussion": false
        },
        {
            "startTime": 0.6408200000000001,
            "duration": 312.4798525000006,
            "length": 2308,
            "notes": [
                {
                    "name": "A#1",
                    "midi": 34,
                    "time": 0.6408200000000001,
                    "velocity": 0.31496062992125984,
                    "duration": 0.32041
                },
                {
                    "name": "A#2",
                    "midi": 46,
                    "time": 0.6408200000000001,
                    "velocity": 0.3700787401574803,
                    "duration": 0.32041
                },
                {
                    "name": "D#1",
                    "midi": 27,
                    "time": 0.96123,
                    "velocity": 0.28346456692913385,
                    "duration": 0.3204100000000001
                },
                {
                    "name": "D#2",
                    "midi": 39,
                    "time": 0.96123,
                    "velocity": 0.33070866141732286,
                    "duration": 0.3204100000000001
                },
                {
                    "name": "E1",
                    "midi": 28,
                    "time": 1.2816400000000001,
                    "velocity": 0.28346456692913385,
                    "duration": 0.06007687500000003
                },
                {
                    "name": "E2",
                    "midi": 40,
                    "time": 1.2816400000000001,
                    "velocity": 0.33070866141732286,
                    "duration": 0.06007687500000003
                },
                {
                    "name": "F1",
                    "midi": 29,
                    "time": 1.4418450000000003,
                    "velocity": 0.28346456692913385,
                    "duration": 0.06007687500000003
                },
                {
                    "name": "F2",
                    "midi": 41,
                    "time": 1.4418450000000003,
                    "velocity": 0.3543307086614173,
                    "duration": 0.06007687500000003
                },
                {
                    "name": "F#1",
                    "midi": 30,
                    "time": 1.6020500000000002,
                    "velocity": 0.33070866141732286,
                    "duration": 0.3204100000000001
                },
                {
                    "name": "F#2",
                    "midi": 42,
                    "time": 1.6020500000000002,
                    "velocity": 0.3937007874015748,
                    "duration": 0.3204100000000001
                },
                {
                    "name": "G#1",
                    "midi": 32,
                    "time": 1.9224600000000003,
                    "velocity": 0.3937007874015748,
                    "duration": 0.26033312500000005
                },
                {
                    "name": "G#2",
                    "midi": 44,
                    "time": 1.9224600000000003,
                    "velocity": 0.4645669291338583,
                    "duration": 0.26033312500000005
                },
                {
                    "name": "G#2",
                    "midi": 44,
                    "time": 2.1827931250000003,
                    "velocity": 0.29133858267716534,
                    "duration": 0.3204100000000003
                },
                {
                    "name": "D#3",
                    "midi": 51,
                    "time": 2.2028187500000005,
                    "velocity": 0.29133858267716534,
                    "duration": 0.30038437500000015
                },
                {
                    "name": "F3",
                    "midi": 53,
                    "time": 2.2228443750000006,
                    "velocity": 0.29133858267716534,
                    "duration": 0.28035875
                },
                {
                    "name": "B3",
                    "midi": 59,
                    "time": 2.242870000000001,
                    "velocity": 0.36220472440944884,
                    "duration": 0.26033312499999983
                },
                {
                    "name": "A#2",
                    "midi": 46,
                    "time": 2.5032031250000006,
                    "velocity": 0.29133858267716534,
                    "duration": 0.38048687500000034
                },
                {
                    "name": "F3",
                    "midi": 53,
                    "time": 2.523228750000001,
                    "velocity": 0.29133858267716534,
                    "duration": 0.3604612500000002
                },
                {
                    "name": "G#3",
                    "midi": 56,
                    "time": 2.5432543750000005,
                    "velocity": 0.29133858267716534,
                    "duration": 0.3224125625000003
                },
                {
                    "name": "D4",
                    "midi": 62,
                    "time": 2.5632800000000007,
                    "velocity": 0.36220472440944884,
                    "duration": 0.3204100000000003
                },
                {
                    "name": "F#1",
                    "midi": 30,
                    "time": 2.883690000000001,
                    "velocity": 0.2992125984251969,
                    "duration": 0.32040999999999986
                },
                {
                    "name": "F#2",
                    "midi": 42,
                    "time": 2.883690000000001,
                    "velocity": 0.3464566929133858,
                    "duration": 0.32040999999999986
                },
                {
                    "name": "G1",
                    "midi": 31,
                    "time": 3.204100000000001,
                    "velocity": 0.2992125984251969,
                    "duration": 0.06007687500000003
                },
                {
                    "name": "G2",
                    "midi": 43,
                    "time": 3.204100000000001,
                    "velocity": 0.3464566929133858,
                    "duration": 0.06007687500000003
                },
                {
                    "name": "G#1",
                    "midi": 32,
                    "time": 3.3643050000000008,
                    "velocity": 0.2755905511811024,
                    "duration": 0.06007687500000003
                },
                {
                    "name": "G#2",
                    "midi": 44,
                    "time": 3.3643050000000008,
                    "velocity": 0.33858267716535434,
                    "duration": 0.06007687500000003
                },
                {
                    "name": "A1",
                    "midi": 33,
                    "time": 3.5245100000000007,
                    "velocity": 0.33858267716535434,
                    "duration": 0.32040999999999986
                },
                {
                    "name": "A2",
                    "midi": 45,
                    "time": 3.5245100000000007,
                    "velocity": 0.4015748031496063,
                    "duration": 0.32040999999999986
                },
                {
                    "name": "B1",
                    "midi": 35,
                    "time": 3.8449200000000006,
                    "velocity": 0.41732283464566927,
                    "duration": 0.2603331250000003
                },
                {
                    "name": "B2",
                    "midi": 47,
                    "time": 3.8449200000000006,
                    "velocity": 0.49606299212598426,
                    "duration": 0.2603331250000003
                },
                {
                    "name": "C3",
                    "midi": 48,
                    "time": 4.105253125000001,
                    "velocity": 0.30708661417322836,
                    "duration": 0.320409999999999
                },
                {
                    "name": "F#3",
                    "midi": 54,
                    "time": 4.1252787500000005,
                    "velocity": 0.30708661417322836,
                    "duration": 0.30038437499999926
                },
                {
                    "name": "G#3",
                    "midi": 56,
                    "time": 4.145304375,
                    "velocity": 0.30708661417322836,
                    "duration": 0.28035874999999955
                },
                {
                    "name": "D4",
                    "midi": 62,
                    "time": 4.16533,
                    "velocity": 0.3779527559055118,
                    "duration": 0.26033312499999983
                },
                {
                    "name": "C#3",
                    "midi": 49,
                    "time": 4.425663125,
                    "velocity": 0.30708661417322836,
                    "duration": 0.3804868749999999
                },
                {
                    "name": "G#3",
                    "midi": 56,
                    "time": 4.4456887499999995,
                    "velocity": 0.30708661417322836,
                    "duration": 0.3604612500000002
                },
                {
                    "name": "B3",
                    "midi": 59,
                    "time": 4.465714375,
                    "velocity": 0.30708661417322836,
                    "duration": 0.3404356249999996
                },
                {
                    "name": "F4",
                    "midi": 65,
                    "time": 4.48574,
                    "velocity": 0.3779527559055118,
                    "duration": 0.32040999999999986
                },
                {
                    "name": "A1",
                    "midi": 33,
                    "time": 4.80615,
                    "velocity": 0.28346456692913385,
                    "duration": 0.32040999999999986
                },
                {
                    "name": "A2",
                    "midi": 45,
                    "time": 4.80615,
                    "velocity": 0.33070866141732286,
                    "duration": 0.32040999999999986
                },
                {
                    "name": "B1",
                    "midi": 35,
                    "time": 5.12656,
                    "velocity": 0.28346456692913385,
                    "duration": 0.06007687500000003
                },
                {
                    "name": "B2",
                    "midi": 47,
                    "time": 5.12656,
                    "velocity": 0.33070866141732286,
                    "duration": 0.06007687500000003
                },
                {
                    "name": "C2",
                    "midi": 36,
                    "time": 5.286765,
                    "velocity": 0.29133858267716534,
                    "duration": 0.06007687500000003
                },
                {
                    "name": "C3",
                    "midi": 48,
                    "time": 5.286765,
                    "velocity": 0.3543307086614173,
                    "duration": 0.06007687500000003
                },
                {
                    "name": "C#2",
                    "midi": 37,
                    "time": 5.44697,
                    "velocity": 0.36220472440944884,
                    "duration": 0.32040999999999986
                },
                {
                    "name": "C#3",
                    "midi": 49,
                    "time": 5.44697,
                    "velocity": 0.4251968503937008,
                    "duration": 0.32040999999999986
                },
                {
                    "name": "D2",
                    "midi": 38,
                    "time": 5.76738,
                    "velocity": 0.31496062992125984,
                    "duration": 0.32040999999999986
                },
                {
                    "name": "D3",
                    "midi": 50,
                    "time": 5.76738,
                    "velocity": 0.3700787401574803,
                    "duration": 0.32040999999999986
                },
                {
                    "name": "D#2",
                    "midi": 39,
                    "time": 6.08779,
                    "velocity": 0.2992125984251969,
                    "duration": 0.06007687500000003
                },
                {
                    "name": "D#3",
                    "midi": 51,
                    "time": 6.08779,
                    "velocity": 0.3464566929133858,
                    "duration": 0.06007687500000003
                },
                {
                    "name": "E2",
                    "midi": 40,
                    "time": 6.247995,
                    "velocity": 0.29133858267716534,
                    "duration": 0.06007687500000003
                },
                {
                    "name": "E3",
                    "midi": 52,
                    "time": 6.247995,
                    "velocity": 0.3543307086614173,
                    "duration": 0.06007687500000003
                },
                {
                    "name": "F2",
                    "midi": 41,
                    "time": 6.408200000000001,
                    "velocity": 0.3543307086614173,
                    "duration": 0.32040999999999986
                },
                {
                    "name": "F3",
                    "midi": 53,
                    "time": 6.408200000000001,
                    "velocity": 0.41732283464566927,
                    "duration": 0.32040999999999986
                },
                {
                    "name": "F#2",
                    "midi": 42,
                    "time": 6.728610000000001,
                    "velocity": 0.31496062992125984,
                    "duration": 0.32040999999999986
                },
                {
                    "name": "F#3",
                    "midi": 54,
                    "time": 6.728610000000001,
                    "velocity": 0.3700787401574803,
                    "duration": 0.32040999999999986
                },
                {
                    "name": "G#2",
                    "midi": 44,
                    "time": 7.0490200000000005,
                    "velocity": 0.2992125984251969,
                    "duration": 0.06007687500000003
                },
                {
                    "name": "G#3",
                    "midi": 56,
                    "time": 7.0490200000000005,
                    "velocity": 0.3464566929133858,
                    "duration": 0.06007687500000003
                },
                {
                    "name": "A2",
                    "midi": 45,
                    "time": 7.209225000000001,
                    "velocity": 0.29133858267716534,
                    "duration": 0.06007687500000003
                },
                {
                    "name": "A3",
                    "midi": 57,
                    "time": 7.209225000000001,
                    "velocity": 0.3543307086614173,
                    "duration": 0.06007687500000003
                },
                {
                    "name": "A#2",
                    "midi": 46,
                    "time": 7.369430000000001,
                    "velocity": 0.3700787401574803,
                    "duration": 0.32040999999999986
                },
                {
                    "name": "A#3",
                    "midi": 58,
                    "time": 7.369430000000001,
                    "velocity": 0.4409448818897638,
                    "duration": 0.32040999999999986
                },
                {
                    "name": "B2",
                    "midi": 47,
                    "time": 7.689840000000001,
                    "velocity": 0.3779527559055118,
                    "duration": 0.32040999999999986
                },
                {
                    "name": "B3",
                    "midi": 59,
                    "time": 7.689840000000001,
                    "velocity": 0.44881889763779526,
                    "duration": 0.32040999999999986
                },
                {
                    "name": "B1",
                    "midi": 35,
                    "time": 8.010250000000001,
                    "velocity": 0.33858267716535434,
                    "duration": 0.32041000000000075
                },
                {
                    "name": "B2",
                    "midi": 47,
                    "time": 8.010250000000001,
                    "velocity": 0.4094488188976378,
                    "duration": 0.32041000000000075
                },
                {
                    "name": "C2",
                    "midi": 36,
                    "time": 8.330660000000002,
                    "velocity": 0.33858267716535434,
                    "duration": 0.32041000000000075
                },
                {
                    "name": "C3",
                    "midi": 48,
                    "time": 8.330660000000002,
                    "velocity": 0.4094488188976378,
                    "duration": 0.32041000000000075
                },
                {
                    "name": "C#2",
                    "midi": 37,
                    "time": 8.651070000000002,
                    "velocity": 0.3937007874015748,
                    "duration": 0.32041000000000075
                },
                {
                    "name": "C#3",
                    "midi": 49,
                    "time": 8.651070000000002,
                    "velocity": 0.47244094488188976,
                    "duration": 0.32041000000000075
                },
                {
                    "name": "C#3",
                    "midi": 49,
                    "time": 8.971480000000003,
                    "velocity": 0.3779527559055118,
                    "duration": 0.32041000000000075
                },
                {
                    "name": "A#3",
                    "midi": 58,
                    "time": 8.971480000000003,
                    "velocity": 0.44881889763779526,
                    "duration": 0.32041000000000075
                },
                {
                    "name": "C#4",
                    "midi": 61,
                    "time": 9.291890000000004,
                    "velocity": 0.44881889763779526,
                    "duration": 0.32041000000000075
                },
                {
                    "name": "F#3",
                    "midi": 54,
                    "time": 9.291890000000004,
                    "velocity": 0.3779527559055118,
                    "duration": 0.32041000000000075
                },
                {
                    "name": "A#3",
                    "midi": 58,
                    "time": 9.612300000000005,
                    "velocity": 0.33070866141732286,
                    "duration": 0.32041000000000075
                },
                {
                    "name": "F#4",
                    "midi": 66,
                    "time": 9.612300000000005,
                    "velocity": 0.47244094488188976,
                    "duration": 0.32041000000000075
                },
                {
                    "name": "C#4",
                    "midi": 61,
                    "time": 9.932710000000005,
                    "velocity": 0.31496062992125984,
                    "duration": 0.32041000000000075
                },
                {
                    "name": "A#4",
                    "midi": 70,
                    "time": 9.932710000000005,
                    "velocity": 0.44881889763779526,
                    "duration": 0.32041000000000075
                },
                {
                    "name": "C#5",
                    "midi": 73,
                    "time": 10.253120000000006,
                    "velocity": 0.44881889763779526,
                    "duration": 0.32041000000000075
                },
                {
                    "name": "F#4",
                    "midi": 66,
                    "time": 10.253120000000006,
                    "velocity": 0.31496062992125984,
                    "duration": 0.32041000000000075
                },
                {
                    "name": "A#4",
                    "midi": 70,
                    "time": 10.573530000000007,
                    "velocity": 0.3779527559055118,
                    "duration": 0.32041000000000075
                },
                {
                    "name": "F#5",
                    "midi": 78,
                    "time": 10.573530000000007,
                    "velocity": 0.44881889763779526,
                    "duration": 0.32041000000000075
                },
                {
                    "name": "B4",
                    "midi": 71,
                    "time": 10.893940000000008,
                    "velocity": 0.36220472440944884,
                    "duration": 0.320409999999999
                },
                {
                    "name": "F5",
                    "midi": 77,
                    "time": 10.893940000000008,
                    "velocity": 0.4015748031496063,
                    "duration": 0.320409999999999
                },
                {
                    "name": "C#4",
                    "midi": 61,
                    "time": 11.214350000000007,
                    "velocity": 0.33070866141732286,
                    "duration": 0.32041000000000075
                },
                {
                    "name": "F4",
                    "midi": 65,
                    "time": 11.214350000000007,
                    "velocity": 0.33070866141732286,
                    "duration": 0.32041000000000075
                },
                {
                    "name": "B4",
                    "midi": 71,
                    "time": 11.214350000000007,
                    "velocity": 0.4015748031496063,
                    "duration": 0.32041000000000075
                },
                {
                    "name": "C#4",
                    "midi": 61,
                    "time": 11.534760000000007,
                    "velocity": 0.36220472440944884,
                    "duration": 0.6408200000000015
                },
                {
                    "name": "F4",
                    "midi": 65,
                    "time": 11.534760000000007,
                    "velocity": 0.36220472440944884,
                    "duration": 0.32041000000000075
                },
                {
                    "name": "B4",
                    "midi": 71,
                    "time": 11.534760000000007,
                    "velocity": 0.4094488188976378,
                    "duration": 0.32041000000000075
                },
                {
                    "name": "F#3",
                    "midi": 54,
                    "time": 11.855170000000008,
                    "velocity": 0.2992125984251969,
                    "duration": 0.32041000000000075
                },
                {
                    "name": "A#4",
                    "midi": 70,
                    "time": 11.855170000000008,
                    "velocity": 0.3700787401574803,
                    "duration": 0.32041000000000075
                },
                {
                    "name": "C#3",
                    "midi": 49,
                    "time": 12.175580000000009,
                    "velocity": 0.2204724409448819,
                    "duration": 0.32041000000000075
                },
                {
                    "name": "F3",
                    "midi": 53,
                    "time": 12.175580000000009,
                    "velocity": 0.25984251968503935,
                    "duration": 0.32041000000000075
                },
                {
                    "name": "B3",
                    "midi": 59,
                    "time": 12.175580000000009,
                    "velocity": 0.2992125984251969,
                    "duration": 0.32041000000000075
                },
                {
                    "name": "C#3",
                    "midi": 49,
                    "time": 12.49599000000001,
                    "velocity": 0.2440944881889764,
                    "duration": 0.6408200000000015
                },
                {
                    "name": "F3",
                    "midi": 53,
                    "time": 12.49599000000001,
                    "velocity": 0.2677165354330709,
                    "duration": 0.32041000000000075
                },
                {
                    "name": "B3",
                    "midi": 59,
                    "time": 12.49599000000001,
                    "velocity": 0.33070866141732286,
                    "duration": 0.32041000000000075
                },
                {
                    "name": "F#2",
                    "midi": 42,
                    "time": 12.81640000000001,
                    "velocity": 0.25196850393700787,
                    "duration": 0.32041000000000075
                },
                {
                    "name": "A#3",
                    "midi": 58,
                    "time": 12.81640000000001,
                    "velocity": 0.2992125984251969,
                    "duration": 0.32041000000000075
                },
                {
                    "name": "C#3",
                    "midi": 49,
                    "time": 13.136810000000011,
                    "velocity": 0.2283464566929134,
                    "duration": 0.32041000000000075
                },
                {
                    "name": "F3",
                    "midi": 53,
                    "time": 13.136810000000011,
                    "velocity": 0.2440944881889764,
                    "duration": 0.32041000000000075
                },
                {
                    "name": "B3",
                    "midi": 59,
                    "time": 13.136810000000011,
                    "velocity": 0.28346456692913385,
                    "duration": 0.32041000000000075
                },
                {
                    "name": "C#3",
                    "midi": 49,
                    "time": 13.457220000000012,
                    "velocity": 0.23622047244094488,
                    "duration": 0.6408199999999997
                },
                {
                    "name": "F3",
                    "midi": 53,
                    "time": 13.457220000000012,
                    "velocity": 0.2677165354330709,
                    "duration": 0.32041000000000075
                },
                {
                    "name": "B3",
                    "midi": 59,
                    "time": 13.457220000000012,
                    "velocity": 0.2992125984251969,
                    "duration": 0.32041000000000075
                },
                {
                    "name": "F#2",
                    "midi": 42,
                    "time": 13.777630000000013,
                    "velocity": 0.25196850393700787,
                    "duration": 0.320409999999999
                },
                {
                    "name": "A#3",
                    "midi": 58,
                    "time": 13.777630000000013,
                    "velocity": 0.2992125984251969,
                    "duration": 0.320409999999999
                },
                {
                    "name": "G#2",
                    "midi": 44,
                    "time": 16.34091000000001,
                    "velocity": 0.28346456692913385,
                    "duration": 0.320409999999999
                },
                {
                    "name": "G#3",
                    "midi": 56,
                    "time": 16.34091000000001,
                    "velocity": 0.33858267716535434,
                    "duration": 0.320409999999999
                },
                {
                    "name": "F#2",
                    "midi": 42,
                    "time": 16.66132000000001,
                    "velocity": 0.23622047244094488,
                    "duration": 0.320409999999999
                },
                {
                    "name": "F#3",
                    "midi": 54,
                    "time": 16.66132000000001,
                    "velocity": 0.29133858267716534,
                    "duration": 0.320409999999999
                },
                {
                    "name": "D#2",
                    "midi": 39,
                    "time": 16.98173000000001,
                    "velocity": 0.23622047244094488,
                    "duration": 0.320409999999999
                },
                {
                    "name": "D#3",
                    "midi": 51,
                    "time": 16.98173000000001,
                    "velocity": 0.29133858267716534,
                    "duration": 0.320409999999999
                },
                {
                    "name": "F#2",
                    "midi": 42,
                    "time": 17.30214000000001,
                    "velocity": 0.28346456692913385,
                    "duration": 0.320409999999999
                },
                {
                    "name": "F#3",
                    "midi": 54,
                    "time": 17.30214000000001,
                    "velocity": 0.33858267716535434,
                    "duration": 0.320409999999999
                },
                {
                    "name": "F2",
                    "midi": 41,
                    "time": 17.622550000000007,
                    "velocity": 0.23622047244094488,
                    "duration": 0.320409999999999
                },
                {
                    "name": "F3",
                    "midi": 53,
                    "time": 17.622550000000007,
                    "velocity": 0.29133858267716534,
                    "duration": 0.320409999999999
                },
                {
                    "name": "C#2",
                    "midi": 37,
                    "time": 17.942960000000006,
                    "velocity": 0.23622047244094488,
                    "duration": 0.320409999999999
                },
                {
                    "name": "C#3",
                    "midi": 49,
                    "time": 17.942960000000006,
                    "velocity": 0.29133858267716534,
                    "duration": 0.320409999999999
                },
                {
                    "name": "D#2",
                    "midi": 39,
                    "time": 18.263370000000005,
                    "velocity": 0.28346456692913385,
                    "duration": 0.320409999999999
                },
                {
                    "name": "D#3",
                    "midi": 51,
                    "time": 18.263370000000005,
                    "velocity": 0.33858267716535434,
                    "duration": 0.320409999999999
                },
                {
                    "name": "C#2",
                    "midi": 37,
                    "time": 18.583780000000004,
                    "velocity": 0.23622047244094488,
                    "duration": 0.320409999999999
                },
                {
                    "name": "C#3",
                    "midi": 49,
                    "time": 18.583780000000004,
                    "velocity": 0.29133858267716534,
                    "duration": 0.320409999999999
                },
                {
                    "name": "A#1",
                    "midi": 34,
                    "time": 18.904190000000003,
                    "velocity": 0.23622047244094488,
                    "duration": 0.320409999999999
                },
                {
                    "name": "A#2",
                    "midi": 46,
                    "time": 18.904190000000003,
                    "velocity": 0.29133858267716534,
                    "duration": 0.320409999999999
                },
                {
                    "name": "B1",
                    "midi": 35,
                    "time": 19.224600000000002,
                    "velocity": 0.25196850393700787,
                    "duration": 0.320409999999999
                },
                {
                    "name": "B2",
                    "midi": 47,
                    "time": 19.224600000000002,
                    "velocity": 0.30708661417322836,
                    "duration": 0.320409999999999
                },
                {
                    "name": "A#1",
                    "midi": 34,
                    "time": 19.54501,
                    "velocity": 0.2283464566929134,
                    "duration": 0.320409999999999
                },
                {
                    "name": "A#2",
                    "midi": 46,
                    "time": 19.54501,
                    "velocity": 0.2755905511811024,
                    "duration": 0.320409999999999
                },
                {
                    "name": "F#1",
                    "midi": 30,
                    "time": 19.86542,
                    "velocity": 0.2283464566929134,
                    "duration": 0.320409999999999
                },
                {
                    "name": "F#2",
                    "midi": 42,
                    "time": 19.86542,
                    "velocity": 0.2755905511811024,
                    "duration": 0.320409999999999
                },
                {
                    "name": "D#1",
                    "midi": 27,
                    "time": 20.18583,
                    "velocity": 0.31496062992125984,
                    "duration": 0.320409999999999
                },
                {
                    "name": "D#2",
                    "midi": 39,
                    "time": 20.18583,
                    "velocity": 0.3700787401574803,
                    "duration": 0.320409999999999
                },
                {
                    "name": "E1",
                    "midi": 28,
                    "time": 20.50624,
                    "velocity": 0.2992125984251969,
                    "duration": 0.06007687500000003
                },
                {
                    "name": "E2",
                    "midi": 40,
                    "time": 20.50624,
                    "velocity": 0.3464566929133858,
                    "duration": 0.06007687500000003
                },
                {
                    "name": "F1",
                    "midi": 29,
                    "time": 20.666445,
                    "velocity": 0.2992125984251969,
                    "duration": 0.06007687500000003
                },
                {
                    "name": "F2",
                    "midi": 41,
                    "time": 20.666445,
                    "velocity": 0.3700787401574803,
                    "duration": 0.06007687500000003
                },
                {
                    "name": "F#1",
                    "midi": 30,
                    "time": 20.82665,
                    "velocity": 0.3700787401574803,
                    "duration": 0.320409999999999
                },
                {
                    "name": "F#2",
                    "midi": 42,
                    "time": 20.82665,
                    "velocity": 0.4409448818897638,
                    "duration": 0.320409999999999
                },
                {
                    "name": "G#1",
                    "midi": 32,
                    "time": 21.14706,
                    "velocity": 0.4409448818897638,
                    "duration": 0.3204100000000025
                },
                {
                    "name": "G#2",
                    "midi": 44,
                    "time": 21.14706,
                    "velocity": 0.5275590551181102,
                    "duration": 0.3204100000000025
                },
                {
                    "name": "G#2",
                    "midi": 44,
                    "time": 21.467470000000002,
                    "velocity": 0.33858267716535434,
                    "duration": 0.320409999999999
                },
                {
                    "name": "D#3",
                    "midi": 51,
                    "time": 21.467470000000002,
                    "velocity": 0.33858267716535434,
                    "duration": 0.320409999999999
                },
                {
                    "name": "F3",
                    "midi": 53,
                    "time": 21.467470000000002,
                    "velocity": 0.33858267716535434,
                    "duration": 0.320409999999999
                },
                {
                    "name": "B3",
                    "midi": 59,
                    "time": 21.467470000000002,
                    "velocity": 0.4015748031496063,
                    "duration": 0.320409999999999
                },
                {
                    "name": "A#2",
                    "midi": 46,
                    "time": 21.78788,
                    "velocity": 0.33858267716535434,
                    "duration": 0.3204100000000025
                },
                {
                    "name": "F3",
                    "midi": 53,
                    "time": 21.78788,
                    "velocity": 0.33858267716535434,
                    "duration": 0.3204100000000025
                },
                {
                    "name": "G#3",
                    "midi": 56,
                    "time": 21.78788,
                    "velocity": 0.33858267716535434,
                    "duration": 0.3204100000000025
                },
                {
                    "name": "D4",
                    "midi": 62,
                    "time": 21.78788,
                    "velocity": 0.4015748031496063,
                    "duration": 0.3204100000000025
                },
                {
                    "name": "F#1",
                    "midi": 30,
                    "time": 22.108290000000004,
                    "velocity": 0.31496062992125984,
                    "duration": 0.320409999999999
                },
                {
                    "name": "F#2",
                    "midi": 42,
                    "time": 22.108290000000004,
                    "velocity": 0.3700787401574803,
                    "duration": 0.320409999999999
                },
                {
                    "name": "G1",
                    "midi": 31,
                    "time": 22.428700000000003,
                    "velocity": 0.2992125984251969,
                    "duration": 0.06007687500000003
                },
                {
                    "name": "G2",
                    "midi": 43,
                    "time": 22.428700000000003,
                    "velocity": 0.3464566929133858,
                    "duration": 0.06007687500000003
                },
                {
                    "name": "G#1",
                    "midi": 32,
                    "time": 22.588905000000004,
                    "velocity": 0.2755905511811024,
                    "duration": 0.06007687500000003
                },
                {
                    "name": "G#2",
                    "midi": 44,
                    "time": 22.588905000000004,
                    "velocity": 0.33858267716535434,
                    "duration": 0.06007687500000003
                },
                {
                    "name": "A1",
                    "midi": 33,
                    "time": 22.749110000000005,
                    "velocity": 0.36220472440944884,
                    "duration": 0.320409999999999
                },
                {
                    "name": "A2",
                    "midi": 45,
                    "time": 22.749110000000005,
                    "velocity": 0.4251968503937008,
                    "duration": 0.320409999999999
                },
                {
                    "name": "B1",
                    "midi": 35,
                    "time": 23.069520000000004,
                    "velocity": 0.4409448818897638,
                    "duration": 0.320409999999999
                },
                {
                    "name": "B2",
                    "midi": 47,
                    "time": 23.069520000000004,
                    "velocity": 0.5275590551181102,
                    "duration": 0.320409999999999
                },
                {
                    "name": "C3",
                    "midi": 48,
                    "time": 23.389930000000003,
                    "velocity": 0.33858267716535434,
                    "duration": 0.320409999999999
                },
                {
                    "name": "F#3",
                    "midi": 54,
                    "time": 23.389930000000003,
                    "velocity": 0.33858267716535434,
                    "duration": 0.320409999999999
                },
                {
                    "name": "G#3",
                    "midi": 56,
                    "time": 23.389930000000003,
                    "velocity": 0.33858267716535434,
                    "duration": 0.320409999999999
                },
                {
                    "name": "D4",
                    "midi": 62,
                    "time": 23.389930000000003,
                    "velocity": 0.4015748031496063,
                    "duration": 0.320409999999999
                },
                {
                    "name": "C#3",
                    "midi": 49,
                    "time": 23.710340000000002,
                    "velocity": 0.33858267716535434,
                    "duration": 0.320409999999999
                },
                {
                    "name": "G#3",
                    "midi": 56,
                    "time": 23.710340000000002,
                    "velocity": 0.33858267716535434,
                    "duration": 0.320409999999999
                },
                {
                    "name": "B3",
                    "midi": 59,
                    "time": 23.710340000000002,
                    "velocity": 0.33858267716535434,
                    "duration": 0.320409999999999
                },
                {
                    "name": "F4",
                    "midi": 65,
                    "time": 23.710340000000002,
                    "velocity": 0.4015748031496063,
                    "duration": 0.320409999999999
                },
                {
                    "name": "A1",
                    "midi": 33,
                    "time": 24.03075,
                    "velocity": 0.28346456692913385,
                    "duration": 0.320409999999999
                },
                {
                    "name": "A2",
                    "midi": 45,
                    "time": 24.03075,
                    "velocity": 0.33070866141732286,
                    "duration": 0.320409999999999
                },
                {
                    "name": "B1",
                    "midi": 35,
                    "time": 24.35116,
                    "velocity": 0.28346456692913385,
                    "duration": 0.06007687500000003
                },
                {
                    "name": "B2",
                    "midi": 47,
                    "time": 24.35116,
                    "velocity": 0.33070866141732286,
                    "duration": 0.06007687500000003
                },
                {
                    "name": "C2",
                    "midi": 36,
                    "time": 24.511365,
                    "velocity": 0.29133858267716534,
                    "duration": 0.06007687500000003
                },
                {
                    "name": "C3",
                    "midi": 48,
                    "time": 24.511365,
                    "velocity": 0.3543307086614173,
                    "duration": 0.06007687500000003
                },
                {
                    "name": "C#2",
                    "midi": 37,
                    "time": 24.671570000000003,
                    "velocity": 0.36220472440944884,
                    "duration": 0.320409999999999
                },
                {
                    "name": "C#3",
                    "midi": 49,
                    "time": 24.671570000000003,
                    "velocity": 0.4251968503937008,
                    "duration": 0.320409999999999
                },
                {
                    "name": "D2",
                    "midi": 38,
                    "time": 24.99198,
                    "velocity": 0.31496062992125984,
                    "duration": 0.320409999999999
                },
                {
                    "name": "D3",
                    "midi": 50,
                    "time": 24.99198,
                    "velocity": 0.3700787401574803,
                    "duration": 0.320409999999999
                },
                {
                    "name": "D#2",
                    "midi": 39,
                    "time": 25.31239,
                    "velocity": 0.31496062992125984,
                    "duration": 0.06007687500000003
                },
                {
                    "name": "D#3",
                    "midi": 51,
                    "time": 25.31239,
                    "velocity": 0.3700787401574803,
                    "duration": 0.06007687500000003
                },
                {
                    "name": "E2",
                    "midi": 40,
                    "time": 25.472595000000002,
                    "velocity": 0.30708661417322836,
                    "duration": 0.06007687500000003
                },
                {
                    "name": "E3",
                    "midi": 52,
                    "time": 25.472595000000002,
                    "velocity": 0.3779527559055118,
                    "duration": 0.06007687500000003
                },
                {
                    "name": "F2",
                    "midi": 41,
                    "time": 25.632800000000003,
                    "velocity": 0.3543307086614173,
                    "duration": 0.320409999999999
                },
                {
                    "name": "F3",
                    "midi": 53,
                    "time": 25.632800000000003,
                    "velocity": 0.41732283464566927,
                    "duration": 0.320409999999999
                },
                {
                    "name": "F#2",
                    "midi": 42,
                    "time": 25.953210000000002,
                    "velocity": 0.33070866141732286,
                    "duration": 0.320409999999999
                },
                {
                    "name": "F#3",
                    "midi": 54,
                    "time": 25.953210000000002,
                    "velocity": 0.3858267716535433,
                    "duration": 0.320409999999999
                },
                {
                    "name": "G2",
                    "midi": 43,
                    "time": 26.27362,
                    "velocity": 0.33070866141732286,
                    "duration": 0.06007687500000003
                },
                {
                    "name": "G3",
                    "midi": 55,
                    "time": 26.27362,
                    "velocity": 0.3858267716535433,
                    "duration": 0.06007687500000003
                },
                {
                    "name": "G#2",
                    "midi": 44,
                    "time": 26.433825000000002,
                    "velocity": 0.31496062992125984,
                    "duration": 0.06007687500000003
                },
                {
                    "name": "G#3",
                    "midi": 56,
                    "time": 26.433825000000002,
                    "velocity": 0.3937007874015748,
                    "duration": 0.06007687500000003
                },
                {
                    "name": "A2",
                    "midi": 45,
                    "time": 26.594030000000004,
                    "velocity": 0.3858267716535433,
                    "duration": 0.320409999999999
                },
                {
                    "name": "A3",
                    "midi": 57,
                    "time": 26.594030000000004,
                    "velocity": 0.4566929133858268,
                    "duration": 0.320409999999999
                },
                {
                    "name": "F#3",
                    "midi": 54,
                    "time": 26.914440000000003,
                    "velocity": 0.3937007874015748,
                    "duration": 0.320409999999999
                },
                {
                    "name": "C3",
                    "midi": 48,
                    "time": 26.914440000000003,
                    "velocity": 0.3937007874015748,
                    "duration": 0.320409999999999
                },
                {
                    "name": "C4",
                    "midi": 60,
                    "time": 26.914440000000003,
                    "velocity": 0.4645669291338583,
                    "duration": 0.320409999999999
                },
                {
                    "name": "G3",
                    "midi": 55,
                    "time": 27.23485,
                    "velocity": 0.3543307086614173,
                    "duration": 0.3204100000000025
                },
                {
                    "name": "B2",
                    "midi": 47,
                    "time": 27.23485,
                    "velocity": 0.3543307086614173,
                    "duration": 0.3204100000000025
                },
                {
                    "name": "B3",
                    "midi": 59,
                    "time": 27.23485,
                    "velocity": 0.4251968503937008,
                    "duration": 0.3204100000000025
                },
                {
                    "name": "D1",
                    "midi": 26,
                    "time": 27.555260000000004,
                    "velocity": 0.3858267716535433,
                    "duration": 0.3204100000000025
                },
                {
                    "name": "D2",
                    "midi": 38,
                    "time": 27.555260000000004,
                    "velocity": 0.4645669291338583,
                    "duration": 0.3204100000000025
                },
                {
                    "name": "C#3",
                    "midi": 49,
                    "time": 27.875670000000007,
                    "velocity": 0.48031496062992124,
                    "duration": 0.16020500000000126
                },
                {
                    "name": "C#1",
                    "midi": 25,
                    "time": 27.875670000000007,
                    "velocity": 0.3937007874015748,
                    "duration": 0.3204100000000025
                },
                {
                    "name": "C#2",
                    "midi": 37,
                    "time": 27.875670000000007,
                    "velocity": 0.47244094488188976,
                    "duration": 0.3204100000000025
                },
                {
                    "name": "C#3",
                    "midi": 49,
                    "time": 28.19608000000001,
                    "velocity": 0.3779527559055118,
                    "duration": 0.320409999999999
                },
                {
                    "name": "A3",
                    "midi": 57,
                    "time": 28.19608000000001,
                    "velocity": 0.44881889763779526,
                    "duration": 0.320409999999999
                },
                {
                    "name": "C#4",
                    "midi": 61,
                    "time": 28.516490000000008,
                    "velocity": 0.44881889763779526,
                    "duration": 0.320409999999999
                },
                {
                    "name": "F#3",
                    "midi": 54,
                    "time": 28.516490000000008,
                    "velocity": 0.3779527559055118,
                    "duration": 0.320409999999999
                },
                {
                    "name": "A3",
                    "midi": 57,
                    "time": 28.836900000000007,
                    "velocity": 0.33070866141732286,
                    "duration": 0.320409999999999
                },
                {
                    "name": "F#4",
                    "midi": 66,
                    "time": 28.836900000000007,
                    "velocity": 0.47244094488188976,
                    "duration": 0.320409999999999
                },
                {
                    "name": "C#4",
                    "midi": 61,
                    "time": 29.157310000000006,
                    "velocity": 0.31496062992125984,
                    "duration": 0.320409999999999
                },
                {
                    "name": "A4",
                    "midi": 69,
                    "time": 29.157310000000006,
                    "velocity": 0.44881889763779526,
                    "duration": 0.320409999999999
                },
                {
                    "name": "C#5",
                    "midi": 73,
                    "time": 29.477720000000005,
                    "velocity": 0.44881889763779526,
                    "duration": 0.320409999999999
                },
                {
                    "name": "F#4",
                    "midi": 66,
                    "time": 29.477720000000005,
                    "velocity": 0.31496062992125984,
                    "duration": 0.320409999999999
                },
                {
                    "name": "A4",
                    "midi": 69,
                    "time": 29.798130000000004,
                    "velocity": 0.3779527559055118,
                    "duration": 0.320409999999999
                },
                {
                    "name": "F#5",
                    "midi": 78,
                    "time": 29.798130000000004,
                    "velocity": 0.44881889763779526,
                    "duration": 0.320409999999999
                },
                {
                    "name": "B4",
                    "midi": 71,
                    "time": 30.118540000000003,
                    "velocity": 0.36220472440944884,
                    "duration": 0.320409999999999
                },
                {
                    "name": "F5",
                    "midi": 77,
                    "time": 30.118540000000003,
                    "velocity": 0.4251968503937008,
                    "duration": 0.320409999999999
                },
                {
                    "name": "C#4",
                    "midi": 61,
                    "time": 30.438950000000002,
                    "velocity": 0.33070866141732286,
                    "duration": 0.320409999999999
                },
                {
                    "name": "F4",
                    "midi": 65,
                    "time": 30.438950000000002,
                    "velocity": 0.33070866141732286,
                    "duration": 0.320409999999999
                },
                {
                    "name": "B4",
                    "midi": 71,
                    "time": 30.438950000000002,
                    "velocity": 0.4015748031496063,
                    "duration": 0.320409999999999
                },
                {
                    "name": "C#4",
                    "midi": 61,
                    "time": 30.75936,
                    "velocity": 0.36220472440944884,
                    "duration": 0.640819999999998
                },
                {
                    "name": "F4",
                    "midi": 65,
                    "time": 30.75936,
                    "velocity": 0.36220472440944884,
                    "duration": 0.320409999999999
                },
                {
                    "name": "B4",
                    "midi": 71,
                    "time": 30.75936,
                    "velocity": 0.4251968503937008,
                    "duration": 0.320409999999999
                },
                {
                    "name": "F#3",
                    "midi": 54,
                    "time": 31.07977,
                    "velocity": 0.2992125984251969,
                    "duration": 0.320409999999999
                },
                {
                    "name": "A4",
                    "midi": 69,
                    "time": 31.07977,
                    "velocity": 0.3700787401574803,
                    "duration": 0.320409999999999
                },
                {
                    "name": "C#3",
                    "midi": 49,
                    "time": 31.40018,
                    "velocity": 0.2204724409448819,
                    "duration": 0.320409999999999
                },
                {
                    "name": "F3",
                    "midi": 53,
                    "time": 31.40018,
                    "velocity": 0.25984251968503935,
                    "duration": 0.320409999999999
                },
                {
                    "name": "B3",
                    "midi": 59,
                    "time": 31.40018,
                    "velocity": 0.2992125984251969,
                    "duration": 0.320409999999999
                },
                {
                    "name": "C#3",
                    "midi": 49,
                    "time": 31.720589999999998,
                    "velocity": 0.23622047244094488,
                    "duration": 0.6408199999999944
                },
                {
                    "name": "F3",
                    "midi": 53,
                    "time": 31.720589999999998,
                    "velocity": 0.28346456692913385,
                    "duration": 0.320409999999999
                },
                {
                    "name": "B3",
                    "midi": 59,
                    "time": 31.720589999999998,
                    "velocity": 0.33070866141732286,
                    "duration": 0.320409999999999
                },
                {
                    "name": "F#2",
                    "midi": 42,
                    "time": 32.041,
                    "velocity": 0.25196850393700787,
                    "duration": 0.3204099999999954
                },
                {
                    "name": "A3",
                    "midi": 57,
                    "time": 32.041,
                    "velocity": 0.2992125984251969,
                    "duration": 0.3204099999999954
                },
                {
                    "name": "C#3",
                    "midi": 49,
                    "time": 32.36140999999999,
                    "velocity": 0.2047244094488189,
                    "duration": 0.3204100000000025
                },
                {
                    "name": "F3",
                    "midi": 53,
                    "time": 32.36140999999999,
                    "velocity": 0.2440944881889764,
                    "duration": 0.3204100000000025
                },
                {
                    "name": "B3",
                    "midi": 59,
                    "time": 32.36140999999999,
                    "velocity": 0.28346456692913385,
                    "duration": 0.3204100000000025
                },
                {
                    "name": "C#3",
                    "midi": 49,
                    "time": 32.681819999999995,
                    "velocity": 0.2283464566929134,
                    "duration": 0.640820000000005
                },
                {
                    "name": "F3",
                    "midi": 53,
                    "time": 32.681819999999995,
                    "velocity": 0.2677165354330709,
                    "duration": 0.3204100000000025
                },
                {
                    "name": "B3",
                    "midi": 59,
                    "time": 32.681819999999995,
                    "velocity": 0.2992125984251969,
                    "duration": 0.3204100000000025
                },
                {
                    "name": "F#2",
                    "midi": 42,
                    "time": 33.00223,
                    "velocity": 0.23622047244094488,
                    "duration": 0.3204100000000025
                },
                {
                    "name": "A3",
                    "midi": 57,
                    "time": 33.00223,
                    "velocity": 0.29133858267716534,
                    "duration": 0.3204100000000025
                },
                {
                    "name": "C#2",
                    "midi": 37,
                    "time": 33.32264,
                    "velocity": 0.44881889763779526,
                    "duration": 0.640820000000005
                },
                {
                    "name": "C#3",
                    "midi": 49,
                    "time": 33.32264,
                    "velocity": 0.5433070866141733,
                    "duration": 0.640820000000005
                },
                {
                    "name": "D2",
                    "midi": 38,
                    "time": 33.963460000000005,
                    "velocity": 0.4094488188976378,
                    "duration": 0.16020500000000482
                },
                {
                    "name": "D3",
                    "midi": 50,
                    "time": 33.963460000000005,
                    "velocity": 0.49606299212598426,
                    "duration": 0.16020500000000482
                },
                {
                    "name": "C#2",
                    "midi": 37,
                    "time": 34.12366500000001,
                    "velocity": 0.3779527559055118,
                    "duration": 0.1602049999999977
                },
                {
                    "name": "C#3",
                    "midi": 49,
                    "time": 34.12366500000001,
                    "velocity": 0.44881889763779526,
                    "duration": 0.1602049999999977
                },
                {
                    "name": "G#1",
                    "midi": 32,
                    "time": 34.28387000000001,
                    "velocity": 0.41732283464566927,
                    "duration": 0.1602049999999977
                },
                {
                    "name": "G#2",
                    "midi": 44,
                    "time": 34.28387000000001,
                    "velocity": 0.5039370078740157,
                    "duration": 0.1602049999999977
                },
                {
                    "name": "A1",
                    "midi": 33,
                    "time": 34.444075000000005,
                    "velocity": 0.3700787401574803,
                    "duration": 0.1602049999999977
                },
                {
                    "name": "A2",
                    "midi": 45,
                    "time": 34.444075000000005,
                    "velocity": 0.4330708661417323,
                    "duration": 0.1602049999999977
                },
                {
                    "name": "F#1",
                    "midi": 30,
                    "time": 34.60428,
                    "velocity": 0.4094488188976378,
                    "duration": 0.9612300000000005
                },
                {
                    "name": "F#2",
                    "midi": 42,
                    "time": 34.60428,
                    "velocity": 0.49606299212598426,
                    "duration": 0.9612300000000005
                },
                {
                    "name": "D1",
                    "midi": 26,
                    "time": 35.56551,
                    "velocity": 0.5669291338582677,
                    "duration": 0.3204099999999954
                },
                {
                    "name": "D2",
                    "midi": 38,
                    "time": 35.56551,
                    "velocity": 0.5669291338582677,
                    "duration": 0.3204099999999954
                },
                {
                    "name": "F#3",
                    "midi": 54,
                    "time": 35.88592,
                    "velocity": 0.2992125984251969,
                    "duration": 0.1602049999999977
                },
                {
                    "name": "F#3",
                    "midi": 54,
                    "time": 36.046124999999996,
                    "velocity": 0.30708661417322836,
                    "duration": 0.1602049999999977
                },
                {
                    "name": "F3",
                    "midi": 53,
                    "time": 36.206329999999994,
                    "velocity": 0.31496062992125984,
                    "duration": 0.1602049999999977
                },
                {
                    "name": "F#3",
                    "midi": 54,
                    "time": 36.36653499999999,
                    "velocity": 0.33070866141732286,
                    "duration": 0.1602049999999977
                },
                {
                    "name": "G3",
                    "midi": 55,
                    "time": 36.52673999999999,
                    "velocity": 0.33858267716535434,
                    "duration": 0.1602049999999977
                },
                {
                    "name": "G#3",
                    "midi": 56,
                    "time": 36.68694499999999,
                    "velocity": 0.3543307086614173,
                    "duration": 0.1602049999999977
                },
                {
                    "name": "A3",
                    "midi": 57,
                    "time": 36.847149999999985,
                    "velocity": 0.36220472440944884,
                    "duration": 0.1602049999999977
                },
                {
                    "name": "A#3",
                    "midi": 58,
                    "time": 37.00735499999998,
                    "velocity": 0.3700787401574803,
                    "duration": 0.1602049999999977
                },
                {
                    "name": "B3",
                    "midi": 59,
                    "time": 37.16755999999998,
                    "velocity": 0.3858267716535433,
                    "duration": 0.1602049999999977
                },
                {
                    "name": "C4",
                    "midi": 60,
                    "time": 37.32776499999998,
                    "velocity": 0.3937007874015748,
                    "duration": 0.1602049999999977
                },
                {
                    "name": "C#4",
                    "midi": 61,
                    "time": 37.487969999999976,
                    "velocity": 0.4015748031496063,
                    "duration": 0.1602049999999977
                },
                {
                    "name": "D4",
                    "midi": 62,
                    "time": 37.64817499999997,
                    "velocity": 0.41732283464566927,
                    "duration": 0.1602049999999977
                },
                {
                    "name": "D#4",
                    "midi": 63,
                    "time": 37.80837999999997,
                    "velocity": 0.4330708661417323,
                    "duration": 0.1602049999999977
                },
                {
                    "name": "E4",
                    "midi": 64,
                    "time": 37.96858499999997,
                    "velocity": 0.4330708661417323,
                    "duration": 0.1602049999999977
                },
                {
                    "name": "F4",
                    "midi": 65,
                    "time": 38.12878999999997,
                    "velocity": 0.4330708661417323,
                    "duration": 0.1602049999999977
                },
                {
                    "name": "F#4",
                    "midi": 66,
                    "time": 38.288994999999964,
                    "velocity": 0.44881889763779526,
                    "duration": 0.1602049999999977
                },
                {
                    "name": "F#4",
                    "midi": 66,
                    "time": 38.44919999999996,
                    "velocity": 0.4566929133858268,
                    "duration": 0.3204100000000025
                },
                {
                    "name": "G4",
                    "midi": 67,
                    "time": 38.769609999999965,
                    "velocity": 0.5039370078740157,
                    "duration": 0.3204099999999954
                },
                {
                    "name": "G4",
                    "midi": 67,
                    "time": 39.09001999999996,
                    "velocity": 0.5826771653543307,
                    "duration": 0.1602049999999977
                },
                {
                    "name": "D#4",
                    "midi": 63,
                    "time": 39.09001999999996,
                    "velocity": 0.5826771653543307,
                    "duration": 0.1602049999999977
                },
                {
                    "name": "A#3",
                    "midi": 58,
                    "time": 39.09001999999996,
                    "velocity": 0.5826771653543307,
                    "duration": 0.1602049999999977
                },
                {
                    "name": "G3",
                    "midi": 55,
                    "time": 39.09001999999996,
                    "velocity": 0.5826771653543307,
                    "duration": 0.1602049999999977
                },
                {
                    "name": "D#2",
                    "midi": 39,
                    "time": 39.410429999999955,
                    "velocity": 0.6220472440944882,
                    "duration": 0.3204099999999954
                },
                {
                    "name": "D#3",
                    "midi": 51,
                    "time": 39.410429999999955,
                    "velocity": 0.6220472440944882,
                    "duration": 0.3204099999999954
                },
                {
                    "name": "G3",
                    "midi": 55,
                    "time": 39.73083999999995,
                    "velocity": 0.2992125984251969,
                    "duration": 0.1602049999999977
                },
                {
                    "name": "G3",
                    "midi": 55,
                    "time": 39.89104499999995,
                    "velocity": 0.30708661417322836,
                    "duration": 0.1602049999999977
                },
                {
                    "name": "F#3",
                    "midi": 54,
                    "time": 40.051249999999946,
                    "velocity": 0.31496062992125984,
                    "duration": 0.1602049999999977
                },
                {
                    "name": "G3",
                    "midi": 55,
                    "time": 40.211454999999944,
                    "velocity": 0.33070866141732286,
                    "duration": 0.1602049999999977
                },
                {
                    "name": "G#3",
                    "midi": 56,
                    "time": 40.37165999999994,
                    "velocity": 0.33858267716535434,
                    "duration": 0.1602049999999977
                },
                {
                    "name": "A3",
                    "midi": 57,
                    "time": 40.53186499999994,
                    "velocity": 0.3543307086614173,
                    "duration": 0.1602049999999977
                },
                {
                    "name": "A#3",
                    "midi": 58,
                    "time": 40.69206999999994,
                    "velocity": 0.36220472440944884,
                    "duration": 0.1602049999999977
                },
                {
                    "name": "B3",
                    "midi": 59,
                    "time": 40.852274999999935,
                    "velocity": 0.3700787401574803,
                    "duration": 0.1602049999999977
                },
                {
                    "name": "C4",
                    "midi": 60,
                    "time": 41.01247999999993,
                    "velocity": 0.3858267716535433,
                    "duration": 0.1602049999999977
                },
                {
                    "name": "C#4",
                    "midi": 61,
                    "time": 41.17268499999993,
                    "velocity": 0.3937007874015748,
                    "duration": 0.1602049999999977
                },
                {
                    "name": "D4",
                    "midi": 62,
                    "time": 41.33288999999993,
                    "velocity": 0.4015748031496063,
                    "duration": 0.1602049999999977
                },
                {
                    "name": "D#4",
                    "midi": 63,
                    "time": 41.493094999999926,
                    "velocity": 0.41732283464566927,
                    "duration": 0.1602049999999977
                },
                {
                    "name": "E4",
                    "midi": 64,
                    "time": 41.65329999999992,
                    "velocity": 0.4330708661417323,
                    "duration": 0.1602049999999977
                },
                {
                    "name": "F4",
                    "midi": 65,
                    "time": 41.81350499999992,
                    "velocity": 0.4330708661417323,
                    "duration": 0.1602049999999977
                },
                {
                    "name": "F#4",
                    "midi": 66,
                    "time": 41.97370999999992,
                    "velocity": 0.4330708661417323,
                    "duration": 0.1602049999999977
                },
                {
                    "name": "G4",
                    "midi": 67,
                    "time": 42.13391499999992,
                    "velocity": 0.44881889763779526,
                    "duration": 0.1602049999999977
                },
                {
                    "name": "G4",
                    "midi": 67,
                    "time": 42.294119999999914,
                    "velocity": 0.4566929133858268,
                    "duration": 0.3204100000000025
                },
                {
                    "name": "G#4",
                    "midi": 68,
                    "time": 42.61452999999992,
                    "velocity": 0.5039370078740157,
                    "duration": 0.3204100000000025
                },
                {
                    "name": "G#4",
                    "midi": 68,
                    "time": 42.93493999999992,
                    "velocity": 0.5826771653543307,
                    "duration": 0.1602049999999977
                },
                {
                    "name": "E4",
                    "midi": 64,
                    "time": 42.93493999999992,
                    "velocity": 0.5826771653543307,
                    "duration": 0.1602049999999977
                },
                {
                    "name": "B3",
                    "midi": 59,
                    "time": 42.93493999999992,
                    "velocity": 0.5826771653543307,
                    "duration": 0.1602049999999977
                },
                {
                    "name": "G#3",
                    "midi": 56,
                    "time": 42.93493999999992,
                    "velocity": 0.5826771653543307,
                    "duration": 0.1602049999999977
                },
                {
                    "name": "E2",
                    "midi": 40,
                    "time": 43.255349999999915,
                    "velocity": 0.6220472440944882,
                    "duration": 0.3204100000000025
                },
                {
                    "name": "E3",
                    "midi": 52,
                    "time": 43.255349999999915,
                    "velocity": 0.6220472440944882,
                    "duration": 0.3204100000000025
                },
                {
                    "name": "G#3",
                    "midi": 56,
                    "time": 43.57575999999992,
                    "velocity": 0.3937007874015748,
                    "duration": 0.1602049999999977
                },
                {
                    "name": "B3",
                    "midi": 59,
                    "time": 43.57575999999992,
                    "velocity": 0.4645669291338583,
                    "duration": 0.1602049999999977
                },
                {
                    "name": "G#3",
                    "midi": 56,
                    "time": 43.735964999999915,
                    "velocity": 0.3858267716535433,
                    "duration": 0.1602049999999977
                },
                {
                    "name": "B3",
                    "midi": 59,
                    "time": 43.735964999999915,
                    "velocity": 0.4566929133858268,
                    "duration": 0.1602049999999977
                },
                {
                    "name": "G3",
                    "midi": 55,
                    "time": 43.89616999999991,
                    "velocity": 0.36220472440944884,
                    "duration": 0.1602049999999977
                },
                {
                    "name": "A#3",
                    "midi": 58,
                    "time": 43.89616999999991,
                    "velocity": 0.4251968503937008,
                    "duration": 0.1602049999999977
                },
                {
                    "name": "G#3",
                    "midi": 56,
                    "time": 44.05637499999991,
                    "velocity": 0.36220472440944884,
                    "duration": 0.1602049999999977
                },
                {
                    "name": "B3",
                    "midi": 59,
                    "time": 44.05637499999991,
                    "velocity": 0.4251968503937008,
                    "duration": 0.1602049999999977
                },
                {
                    "name": "A3",
                    "midi": 57,
                    "time": 44.21657999999991,
                    "velocity": 0.3858267716535433,
                    "duration": 0.1602049999999977
                },
                {
                    "name": "C4",
                    "midi": 60,
                    "time": 44.21657999999991,
                    "velocity": 0.4566929133858268,
                    "duration": 0.1602049999999977
                },
                {
                    "name": "A#3",
                    "midi": 58,
                    "time": 44.376784999999906,
                    "velocity": 0.3858267716535433,
                    "duration": 0.1602049999999977
                },
                {
                    "name": "C#4",
                    "midi": 61,
                    "time": 44.376784999999906,
                    "velocity": 0.4566929133858268,
                    "duration": 0.1602049999999977
                },
                {
                    "name": "B3",
                    "midi": 59,
                    "time": 44.5369899999999,
                    "velocity": 0.3858267716535433,
                    "duration": 0.08010250000000241
                },
                {
                    "name": "D4",
                    "midi": 62,
                    "time": 44.5369899999999,
                    "velocity": 0.4566929133858268,
                    "duration": 0.08010250000000241
                },
                {
                    "name": "B3",
                    "midi": 59,
                    "time": 44.69719499999991,
                    "velocity": 0.3543307086614173,
                    "duration": 0.08010250000000241
                },
                {
                    "name": "D4",
                    "midi": 62,
                    "time": 44.69719499999991,
                    "velocity": 0.41732283464566927,
                    "duration": 0.08010250000000241
                },
                {
                    "name": "B3",
                    "midi": 59,
                    "time": 44.85739999999991,
                    "velocity": 0.3543307086614173,
                    "duration": 0.08010250000000241
                },
                {
                    "name": "D4",
                    "midi": 62,
                    "time": 44.85739999999991,
                    "velocity": 0.41732283464566927,
                    "duration": 0.08010250000000241
                },
                {
                    "name": "B3",
                    "midi": 59,
                    "time": 45.01760499999992,
                    "velocity": 0.36220472440944884,
                    "duration": 0.08010250000000241
                },
                {
                    "name": "D4",
                    "midi": 62,
                    "time": 45.01760499999992,
                    "velocity": 0.4251968503937008,
                    "duration": 0.08010250000000241
                },
                {
                    "name": "B3",
                    "midi": 59,
                    "time": 45.17780999999992,
                    "velocity": 0.3858267716535433,
                    "duration": 0.1602049999999977
                },
                {
                    "name": "D4",
                    "midi": 62,
                    "time": 45.17780999999992,
                    "velocity": 0.4566929133858268,
                    "duration": 0.1602049999999977
                },
                {
                    "name": "A#3",
                    "midi": 58,
                    "time": 45.33801499999992,
                    "velocity": 0.36220472440944884,
                    "duration": 0.1602049999999977
                },
                {
                    "name": "C#4",
                    "midi": 61,
                    "time": 45.33801499999992,
                    "velocity": 0.4251968503937008,
                    "duration": 0.1602049999999977
                },
                {
                    "name": "A#3",
                    "midi": 58,
                    "time": 45.49821999999992,
                    "velocity": 0.3858267716535433,
                    "duration": 0.08010250000000241
                },
                {
                    "name": "C#4",
                    "midi": 61,
                    "time": 45.49821999999992,
                    "velocity": 0.4566929133858268,
                    "duration": 0.08010250000000241
                },
                {
                    "name": "A#3",
                    "midi": 58,
                    "time": 45.65842499999992,
                    "velocity": 0.36220472440944884,
                    "duration": 0.08010250000000241
                },
                {
                    "name": "C#4",
                    "midi": 61,
                    "time": 45.65842499999992,
                    "velocity": 0.4251968503937008,
                    "duration": 0.08010250000000241
                },
                {
                    "name": "A3",
                    "midi": 57,
                    "time": 45.81862999999993,
                    "velocity": 0.36220472440944884,
                    "duration": 0.08010250000000241
                },
                {
                    "name": "C4",
                    "midi": 60,
                    "time": 45.81862999999993,
                    "velocity": 0.4251968503937008,
                    "duration": 0.08010250000000241
                },
                {
                    "name": "A#3",
                    "midi": 58,
                    "time": 45.97883499999993,
                    "velocity": 0.36220472440944884,
                    "duration": 0.08010250000000241
                },
                {
                    "name": "C#4",
                    "midi": 61,
                    "time": 45.97883499999993,
                    "velocity": 0.4251968503937008,
                    "duration": 0.08010250000000241
                },
                {
                    "name": "B3",
                    "midi": 59,
                    "time": 46.13903999999994,
                    "velocity": 0.3858267716535433,
                    "duration": 0.1602049999999977
                },
                {
                    "name": "D4",
                    "midi": 62,
                    "time": 46.13903999999994,
                    "velocity": 0.4566929133858268,
                    "duration": 0.1602049999999977
                },
                {
                    "name": "C4",
                    "midi": 60,
                    "time": 46.299244999999935,
                    "velocity": 0.36220472440944884,
                    "duration": 0.1602049999999977
                },
                {
                    "name": "D#4",
                    "midi": 63,
                    "time": 46.299244999999935,
                    "velocity": 0.4251968503937008,
                    "duration": 0.1602049999999977
                },
                {
                    "name": "C#4",
                    "midi": 61,
                    "time": 46.45944999999993,
                    "velocity": 0.3858267716535433,
                    "duration": 0.08010250000000241
                },
                {
                    "name": "E4",
                    "midi": 64,
                    "time": 46.45944999999993,
                    "velocity": 0.4566929133858268,
                    "duration": 0.08010250000000241
                },
                {
                    "name": "C#4",
                    "midi": 61,
                    "time": 46.61965499999994,
                    "velocity": 0.4015748031496063,
                    "duration": 0.08010250000000241
                },
                {
                    "name": "E4",
                    "midi": 64,
                    "time": 46.61965499999994,
                    "velocity": 0.47244094488188976,
                    "duration": 0.08010250000000241
                },
                {
                    "name": "C#4",
                    "midi": 61,
                    "time": 46.77985999999994,
                    "velocity": 0.41732283464566927,
                    "duration": 0.08010250000000241
                },
                {
                    "name": "E4",
                    "midi": 64,
                    "time": 46.77985999999994,
                    "velocity": 0.49606299212598426,
                    "duration": 0.08010250000000241
                },
                {
                    "name": "C#4",
                    "midi": 61,
                    "time": 46.94006499999995,
                    "velocity": 0.41732283464566927,
                    "duration": 0.08010250000000241
                },
                {
                    "name": "E4",
                    "midi": 64,
                    "time": 46.94006499999995,
                    "velocity": 0.5039370078740157,
                    "duration": 0.08010250000000241
                },
                {
                    "name": "C#4",
                    "midi": 61,
                    "time": 47.10026999999995,
                    "velocity": 0.4409448818897638,
                    "duration": 0.1602049999999977
                },
                {
                    "name": "E4",
                    "midi": 64,
                    "time": 47.10026999999995,
                    "velocity": 0.5275590551181102,
                    "duration": 0.1602049999999977
                },
                {
                    "name": "C4",
                    "midi": 60,
                    "time": 47.26047499999995,
                    "velocity": 0.3937007874015748,
                    "duration": 0.1602049999999977
                },
                {
                    "name": "D#4",
                    "midi": 63,
                    "time": 47.26047499999995,
                    "velocity": 0.4645669291338583,
                    "duration": 0.1602049999999977
                },
                {
                    "name": "C4",
                    "midi": 60,
                    "time": 47.42067999999995,
                    "velocity": 0.3937007874015748,
                    "duration": 0.08010250000000241
                },
                {
                    "name": "D#4",
                    "midi": 63,
                    "time": 47.42067999999995,
                    "velocity": 0.4645669291338583,
                    "duration": 0.08010250000000241
                },
                {
                    "name": "C4",
                    "midi": 60,
                    "time": 47.58088499999995,
                    "velocity": 0.4094488188976378,
                    "duration": 0.08010250000000241
                },
                {
                    "name": "D#4",
                    "midi": 63,
                    "time": 47.58088499999995,
                    "velocity": 0.48031496062992124,
                    "duration": 0.08010250000000241
                },
                {
                    "name": "B3",
                    "midi": 59,
                    "time": 47.74108999999996,
                    "velocity": 0.41732283464566927,
                    "duration": 0.08010250000000241
                },
                {
                    "name": "D4",
                    "midi": 62,
                    "time": 47.74108999999996,
                    "velocity": 0.5039370078740157,
                    "duration": 0.08010250000000241
                },
                {
                    "name": "C4",
                    "midi": 60,
                    "time": 47.90129499999996,
                    "velocity": 0.4251968503937008,
                    "duration": 0.08010250000000241
                },
                {
                    "name": "D#4",
                    "midi": 63,
                    "time": 47.90129499999996,
                    "velocity": 0.5118110236220472,
                    "duration": 0.08010250000000241
                },
                {
                    "name": "B3",
                    "midi": 59,
                    "time": 48.06149999999997,
                    "velocity": 0.4409448818897638,
                    "duration": 0.3204099999999954
                },
                {
                    "name": "F4",
                    "midi": 65,
                    "time": 48.06149999999997,
                    "velocity": 0.5275590551181102,
                    "duration": 0.3204099999999954
                },
                {
                    "name": "C#4",
                    "midi": 61,
                    "time": 48.06149999999997,
                    "velocity": 0.4409448818897638,
                    "duration": 0.3204099999999954
                },
                {
                    "name": "C#2",
                    "midi": 37,
                    "time": 48.38190999999996,
                    "velocity": 0.3858267716535433,
                    "duration": 0.3204100000000025
                },
                {
                    "name": "C#3",
                    "midi": 49,
                    "time": 48.38190999999996,
                    "velocity": 0.4645669291338583,
                    "duration": 0.3204100000000025
                },
                {
                    "name": "F4",
                    "midi": 65,
                    "time": 48.702319999999965,
                    "velocity": 0.5118110236220472,
                    "duration": 0.3204100000000025
                },
                {
                    "name": "C#4",
                    "midi": 61,
                    "time": 48.702319999999965,
                    "velocity": 0.4251968503937008,
                    "duration": 0.3204100000000025
                },
                {
                    "name": "B3",
                    "midi": 59,
                    "time": 48.702319999999965,
                    "velocity": 0.4251968503937008,
                    "duration": 0.3204100000000025
                },
                {
                    "name": "E4",
                    "midi": 64,
                    "time": 49.02272999999997,
                    "velocity": 0.5275590551181102,
                    "duration": 0.3204099999999954
                },
                {
                    "name": "C#4",
                    "midi": 61,
                    "time": 49.02272999999997,
                    "velocity": 0.4409448818897638,
                    "duration": 0.3204099999999954
                },
                {
                    "name": "B3",
                    "midi": 59,
                    "time": 49.02272999999997,
                    "velocity": 0.4409448818897638,
                    "duration": 0.3204099999999954
                },
                {
                    "name": "F#3",
                    "midi": 54,
                    "time": 49.02272999999997,
                    "velocity": 0.4409448818897638,
                    "duration": 0.3204099999999954
                },
                {
                    "name": "F#1",
                    "midi": 30,
                    "time": 49.34313999999996,
                    "velocity": 0.4015748031496063,
                    "duration": 0.1602049999999977
                },
                {
                    "name": "F#2",
                    "midi": 42,
                    "time": 49.34313999999996,
                    "velocity": 0.47244094488188976,
                    "duration": 0.1602049999999977
                },
                {
                    "name": "E4",
                    "midi": 64,
                    "time": 49.66354999999996,
                    "velocity": 0.48031496062992124,
                    "duration": 0.3204100000000025
                },
                {
                    "name": "C#4",
                    "midi": 61,
                    "time": 49.66354999999996,
                    "velocity": 0.4094488188976378,
                    "duration": 0.3204100000000025
                },
                {
                    "name": "A#3",
                    "midi": 58,
                    "time": 49.66354999999996,
                    "velocity": 0.4094488188976378,
                    "duration": 0.3204100000000025
                },
                {
                    "name": "F#3",
                    "midi": 54,
                    "time": 49.66354999999996,
                    "velocity": 0.4094488188976378,
                    "duration": 0.3204100000000025
                },
                {
                    "name": "A3",
                    "midi": 57,
                    "time": 49.98395999999996,
                    "velocity": 0.4251968503937008,
                    "duration": 0.3204100000000025
                },
                {
                    "name": "D#4",
                    "midi": 63,
                    "time": 49.98395999999996,
                    "velocity": 0.49606299212598426,
                    "duration": 0.3204100000000025
                },
                {
                    "name": "B3",
                    "midi": 59,
                    "time": 49.98395999999996,
                    "velocity": 0.4251968503937008,
                    "duration": 0.3204100000000025
                },
                {
                    "name": "B1",
                    "midi": 35,
                    "time": 50.30436999999996,
                    "velocity": 0.3700787401574803,
                    "duration": 0.3204100000000025
                },
                {
                    "name": "B2",
                    "midi": 47,
                    "time": 50.30436999999996,
                    "velocity": 0.44881889763779526,
                    "duration": 0.3204100000000025
                },
                {
                    "name": "D#4",
                    "midi": 63,
                    "time": 50.624779999999966,
                    "velocity": 0.48031496062992124,
                    "duration": 0.3204100000000025
                },
                {
                    "name": "B3",
                    "midi": 59,
                    "time": 50.624779999999966,
                    "velocity": 0.4015748031496063,
                    "duration": 0.3204100000000025
                },
                {
                    "name": "A3",
                    "midi": 57,
                    "time": 50.624779999999966,
                    "velocity": 0.4015748031496063,
                    "duration": 0.3204100000000025
                },
                {
                    "name": "D4",
                    "midi": 62,
                    "time": 50.94518999999997,
                    "velocity": 0.5275590551181102,
                    "duration": 0.3204099999999954
                },
                {
                    "name": "B3",
                    "midi": 59,
                    "time": 50.94518999999997,
                    "velocity": 0.4409448818897638,
                    "duration": 0.3204099999999954
                },
                {
                    "name": "A3",
                    "midi": 57,
                    "time": 50.94518999999997,
                    "velocity": 0.4409448818897638,
                    "duration": 0.3204099999999954
                },
                {
                    "name": "E3",
                    "midi": 52,
                    "time": 50.94518999999997,
                    "velocity": 0.4409448818897638,
                    "duration": 0.3204099999999954
                },
                {
                    "name": "E1",
                    "midi": 28,
                    "time": 51.265599999999964,
                    "velocity": 0.4015748031496063,
                    "duration": 0.1602049999999977
                },
                {
                    "name": "E2",
                    "midi": 40,
                    "time": 51.265599999999964,
                    "velocity": 0.47244094488188976,
                    "duration": 0.1602049999999977
                },
                {
                    "name": "D4",
                    "midi": 62,
                    "time": 51.58600999999996,
                    "velocity": 0.48031496062992124,
                    "duration": 0.3204100000000025
                },
                {
                    "name": "G#3",
                    "midi": 56,
                    "time": 51.58600999999996,
                    "velocity": 0.4094488188976378,
                    "duration": 0.3204100000000025
                },
                {
                    "name": "E3",
                    "midi": 52,
                    "time": 51.58600999999996,
                    "velocity": 0.4094488188976378,
                    "duration": 0.3204100000000025
                },
                {
                    "name": "G3",
                    "midi": 55,
                    "time": 51.90641999999996,
                    "velocity": 0.4409448818897638,
                    "duration": 0.3204100000000025
                },
                {
                    "name": "C#4",
                    "midi": 61,
                    "time": 51.90641999999996,
                    "velocity": 0.5275590551181102,
                    "duration": 0.3204100000000025
                },
                {
                    "name": "A3",
                    "midi": 57,
                    "time": 51.90641999999996,
                    "velocity": 0.4409448818897638,
                    "duration": 0.3204100000000025
                },
                {
                    "name": "A1",
                    "midi": 33,
                    "time": 52.226829999999964,
                    "velocity": 0.3937007874015748,
                    "duration": 0.3204100000000025
                },
                {
                    "name": "A2",
                    "midi": 45,
                    "time": 52.226829999999964,
                    "velocity": 0.4645669291338583,
                    "duration": 0.3204100000000025
                },
                {
                    "name": "C#4",
                    "midi": 61,
                    "time": 52.54723999999997,
                    "velocity": 0.47244094488188976,
                    "duration": 0.3204100000000025
                },
                {
                    "name": "A3",
                    "midi": 57,
                    "time": 52.54723999999997,
                    "velocity": 0.4015748031496063,
                    "duration": 0.3204100000000025
                },
                {
                    "name": "G3",
                    "midi": 55,
                    "time": 52.54723999999997,
                    "velocity": 0.4015748031496063,
                    "duration": 0.3204100000000025
                },
                {
                    "name": "F#3",
                    "midi": 54,
                    "time": 52.86764999999997,
                    "velocity": 0.4409448818897638,
                    "duration": 0.3204099999999954
                },
                {
                    "name": "C4",
                    "midi": 60,
                    "time": 52.86764999999997,
                    "velocity": 0.5275590551181102,
                    "duration": 0.3204099999999954
                },
                {
                    "name": "A3",
                    "midi": 57,
                    "time": 53.188059999999965,
                    "velocity": 0.3779527559055118,
                    "duration": 0.3204100000000025
                },
                {
                    "name": "C4",
                    "midi": 60,
                    "time": 53.188059999999965,
                    "velocity": 0.4566929133858268,
                    "duration": 0.3204100000000025
                },
                {
                    "name": "A4",
                    "midi": 69,
                    "time": 53.50846999999997,
                    "velocity": 0.4330708661417323,
                    "duration": 0.3204100000000025
                },
                {
                    "name": "C5",
                    "midi": 72,
                    "time": 53.50846999999997,
                    "velocity": 0.5118110236220472,
                    "duration": 0.3204100000000025
                },
                {
                    "name": "C6",
                    "midi": 84,
                    "time": 53.82887999999997,
                    "velocity": 0.5354330708661418,
                    "duration": 0.3204100000000025
                },
                {
                    "name": "A5",
                    "midi": 81,
                    "time": 53.82887999999997,
                    "velocity": 0.4409448818897638,
                    "duration": 0.3204100000000025
                },
                {
                    "name": "C3",
                    "midi": 48,
                    "time": 54.14928999999997,
                    "velocity": 0.3779527559055118,
                    "duration": 0.1602049999999977
                },
                {
                    "name": "C4",
                    "midi": 60,
                    "time": 54.14928999999997,
                    "velocity": 0.4566929133858268,
                    "duration": 0.1602049999999977
                },
                {
                    "name": "C1",
                    "midi": 24,
                    "time": 54.46969999999997,
                    "velocity": 0.3779527559055118,
                    "duration": 0.1602049999999977
                },
                {
                    "name": "C2",
                    "midi": 36,
                    "time": 54.46969999999997,
                    "velocity": 0.44881889763779526,
                    "duration": 0.1602049999999977
                },
                {
                    "name": "C#1",
                    "midi": 25,
                    "time": 54.79010999999996,
                    "velocity": 0.3937007874015748,
                    "duration": 0.1602049999999977
                },
                {
                    "name": "C#2",
                    "midi": 37,
                    "time": 54.79010999999996,
                    "velocity": 0.4645669291338583,
                    "duration": 0.1602049999999977
                },
                {
                    "name": "C#2",
                    "midi": 37,
                    "time": 55.11051999999996,
                    "velocity": 0.2677165354330709,
                    "duration": 0.1602049999999977
                },
                {
                    "name": "C#3",
                    "midi": 49,
                    "time": 55.11051999999996,
                    "velocity": 0.31496062992125984,
                    "duration": 0.1602049999999977
                },
                {
                    "name": "D#1",
                    "midi": 27,
                    "time": 55.430929999999954,
                    "velocity": 0.29133858267716534,
                    "duration": 0.1602049999999977
                },
                {
                    "name": "D#2",
                    "midi": 39,
                    "time": 55.430929999999954,
                    "velocity": 0.36220472440944884,
                    "duration": 0.1602049999999977
                },
                {
                    "name": "F1",
                    "midi": 29,
                    "time": 55.75133999999995,
                    "velocity": 0.31496062992125984,
                    "duration": 0.1602049999999977
                },
                {
                    "name": "F2",
                    "midi": 41,
                    "time": 55.75133999999995,
                    "velocity": 0.3858267716535433,
                    "duration": 0.1602049999999977
                },
                {
                    "name": "F2",
                    "midi": 41,
                    "time": 56.071749999999945,
                    "velocity": 0.2755905511811024,
                    "duration": 0.1602049999999977
                },
                {
                    "name": "F3",
                    "midi": 53,
                    "time": 56.071749999999945,
                    "velocity": 0.3464566929133858,
                    "duration": 0.1602049999999977
                },
                {
                    "name": "F1",
                    "midi": 29,
                    "time": 56.39215999999994,
                    "velocity": 0.2755905511811024,
                    "duration": 0.1602049999999977
                },
                {
                    "name": "F2",
                    "midi": 41,
                    "time": 56.39215999999994,
                    "velocity": 0.33858267716535434,
                    "duration": 0.1602049999999977
                },
                {
                    "name": "A#1",
                    "midi": 34,
                    "time": 56.712569999999936,
                    "velocity": 0.23622047244094488,
                    "duration": 0.1602049999999977
                },
                {
                    "name": "A#2",
                    "midi": 46,
                    "time": 56.712569999999936,
                    "velocity": 0.29133858267716534,
                    "duration": 0.1602049999999977
                },
                {
                    "name": "C#2",
                    "midi": 37,
                    "time": 57.03297999999993,
                    "velocity": 0.1968503937007874,
                    "duration": 0.1602049999999977
                },
                {
                    "name": "C#3",
                    "midi": 49,
                    "time": 57.03297999999993,
                    "velocity": 0.2440944881889764,
                    "duration": 0.1602049999999977
                },
                {
                    "name": "D#2",
                    "midi": 39,
                    "time": 57.353389999999926,
                    "velocity": 0.25984251968503935,
                    "duration": 0.1602049999999977
                },
                {
                    "name": "F2",
                    "midi": 41,
                    "time": 57.67379999999992,
                    "velocity": 0.2992125984251969,
                    "duration": 0.1602049999999977
                },
                {
                    "name": "F1",
                    "midi": 29,
                    "time": 58.31461999999992,
                    "velocity": 0.2204724409448819,
                    "duration": 0.1602049999999977
                },
                {
                    "name": "F2",
                    "midi": 41,
                    "time": 58.31461999999992,
                    "velocity": 0.2677165354330709,
                    "duration": 0.1602049999999977
                },
                {
                    "name": "A#1",
                    "midi": 34,
                    "time": 58.635029999999915,
                    "velocity": 0.23622047244094488,
                    "duration": 0.3204100000000025
                },
                {
                    "name": "A#2",
                    "midi": 46,
                    "time": 58.635029999999915,
                    "velocity": 0.28346456692913385,
                    "duration": 0.3204100000000025
                },
                {
                    "name": "G#2",
                    "midi": 44,
                    "time": 58.95543999999992,
                    "velocity": 0.2047244094488189,
                    "duration": 0.3204100000000025
                },
                {
                    "name": "G#3",
                    "midi": 56,
                    "time": 58.95543999999992,
                    "velocity": 0.2440944881889764,
                    "duration": 0.3204100000000025
                },
                {
                    "name": "F2",
                    "midi": 41,
                    "time": 59.27584999999992,
                    "velocity": 0.2047244094488189,
                    "duration": 0.3204100000000025
                },
                {
                    "name": "F3",
                    "midi": 53,
                    "time": 59.27584999999992,
                    "velocity": 0.2440944881889764,
                    "duration": 0.3204100000000025
                },
                {
                    "name": "F#2",
                    "midi": 42,
                    "time": 59.59625999999992,
                    "velocity": 0.23622047244094488,
                    "duration": 0.3204100000000025
                },
                {
                    "name": "F#3",
                    "midi": 54,
                    "time": 59.59625999999992,
                    "velocity": 0.28346456692913385,
                    "duration": 0.3204100000000025
                },
                {
                    "name": "F2",
                    "midi": 41,
                    "time": 59.916669999999925,
                    "velocity": 0.2047244094488189,
                    "duration": 0.3204099999999954
                },
                {
                    "name": "F3",
                    "midi": 53,
                    "time": 59.916669999999925,
                    "velocity": 0.2440944881889764,
                    "duration": 0.3204099999999954
                },
                {
                    "name": "C#2",
                    "midi": 37,
                    "time": 60.23707999999992,
                    "velocity": 0.2047244094488189,
                    "duration": 0.3204100000000025
                },
                {
                    "name": "C#3",
                    "midi": 49,
                    "time": 60.23707999999992,
                    "velocity": 0.2440944881889764,
                    "duration": 0.3204100000000025
                },
                {
                    "name": "D#2",
                    "midi": 39,
                    "time": 60.55748999999992,
                    "velocity": 0.23622047244094488,
                    "duration": 0.3204100000000025
                },
                {
                    "name": "D#3",
                    "midi": 51,
                    "time": 60.55748999999992,
                    "velocity": 0.28346456692913385,
                    "duration": 0.3204100000000025
                },
                {
                    "name": "C#2",
                    "midi": 37,
                    "time": 60.877899999999926,
                    "velocity": 0.2047244094488189,
                    "duration": 0.3204100000000025
                },
                {
                    "name": "C#3",
                    "midi": 49,
                    "time": 60.877899999999926,
                    "velocity": 0.2440944881889764,
                    "duration": 0.3204100000000025
                },
                {
                    "name": "A#1",
                    "midi": 34,
                    "time": 61.19830999999993,
                    "velocity": 0.2440944881889764,
                    "duration": 0.3204100000000025
                },
                {
                    "name": "A#2",
                    "midi": 46,
                    "time": 61.19830999999993,
                    "velocity": 0.2440944881889764,
                    "duration": 0.3204100000000025
                },
                {
                    "name": "B1",
                    "midi": 35,
                    "time": 61.51871999999993,
                    "velocity": 0.2992125984251969,
                    "duration": 0.3204100000000025
                },
                {
                    "name": "B2",
                    "midi": 47,
                    "time": 61.51871999999993,
                    "velocity": 0.2992125984251969,
                    "duration": 0.3204100000000025
                },
                {
                    "name": "A#1",
                    "midi": 34,
                    "time": 61.83912999999993,
                    "velocity": 0.2992125984251969,
                    "duration": 0.3204099999999954
                },
                {
                    "name": "A#2",
                    "midi": 46,
                    "time": 61.83912999999993,
                    "velocity": 0.2992125984251969,
                    "duration": 0.3204099999999954
                },
                {
                    "name": "F#1",
                    "midi": 30,
                    "time": 62.15953999999993,
                    "velocity": 0.31496062992125984,
                    "duration": 0.3204100000000025
                },
                {
                    "name": "F#2",
                    "midi": 42,
                    "time": 62.15953999999993,
                    "velocity": 0.31496062992125984,
                    "duration": 0.3204100000000025
                },
                {
                    "name": "D#1",
                    "midi": 27,
                    "time": 62.47994999999993,
                    "velocity": 0.31496062992125984,
                    "duration": 0.3204100000000025
                },
                {
                    "name": "D#2",
                    "midi": 39,
                    "time": 62.47994999999993,
                    "velocity": 0.3700787401574803,
                    "duration": 0.3204100000000025
                },
                {
                    "name": "E1",
                    "midi": 28,
                    "time": 62.800359999999934,
                    "velocity": 0.2992125984251969,
                    "duration": 0.06007687500000003
                },
                {
                    "name": "E2",
                    "midi": 40,
                    "time": 62.800359999999934,
                    "velocity": 0.3464566929133858,
                    "duration": 0.06007687500000003
                },
                {
                    "name": "F1",
                    "midi": 29,
                    "time": 62.96056499999993,
                    "velocity": 0.2992125984251969,
                    "duration": 0.06007687500000003
                },
                {
                    "name": "F2",
                    "midi": 41,
                    "time": 62.96056499999993,
                    "velocity": 0.3700787401574803,
                    "duration": 0.06007687500000003
                },
                {
                    "name": "F#1",
                    "midi": 30,
                    "time": 63.12076999999993,
                    "velocity": 0.36220472440944884,
                    "duration": 0.3204100000000025
                },
                {
                    "name": "F#2",
                    "midi": 42,
                    "time": 63.12076999999993,
                    "velocity": 0.4251968503937008,
                    "duration": 0.3204100000000025
                },
                {
                    "name": "G#1",
                    "midi": 32,
                    "time": 63.44117999999993,
                    "velocity": 0.4409448818897638,
                    "duration": 0.3204100000000025
                },
                {
                    "name": "G#2",
                    "midi": 44,
                    "time": 63.44117999999993,
                    "velocity": 0.5275590551181102,
                    "duration": 0.3204100000000025
                },
                {
                    "name": "G#2",
                    "midi": 44,
                    "time": 63.761589999999934,
                    "velocity": 0.33858267716535434,
                    "duration": 0.3204100000000025
                },
                {
                    "name": "D#3",
                    "midi": 51,
                    "time": 63.761589999999934,
                    "velocity": 0.33858267716535434,
                    "duration": 0.3204100000000025
                },
                {
                    "name": "F3",
                    "midi": 53,
                    "time": 63.761589999999934,
                    "velocity": 0.33858267716535434,
                    "duration": 0.3204100000000025
                },
                {
                    "name": "B3",
                    "midi": 59,
                    "time": 63.761589999999934,
                    "velocity": 0.4015748031496063,
                    "duration": 0.3204100000000025
                },
                {
                    "name": "A#2",
                    "midi": 46,
                    "time": 64.08199999999994,
                    "velocity": 0.33858267716535434,
                    "duration": 0.3204099999999954
                },
                {
                    "name": "F3",
                    "midi": 53,
                    "time": 64.08199999999994,
                    "velocity": 0.33858267716535434,
                    "duration": 0.3204099999999954
                },
                {
                    "name": "G#3",
                    "midi": 56,
                    "time": 64.08199999999994,
                    "velocity": 0.33858267716535434,
                    "duration": 0.3204099999999954
                },
                {
                    "name": "D4",
                    "midi": 62,
                    "time": 64.08199999999994,
                    "velocity": 0.4015748031496063,
                    "duration": 0.3204099999999954
                },
                {
                    "name": "F#1",
                    "midi": 30,
                    "time": 64.40240999999993,
                    "velocity": 0.31496062992125984,
                    "duration": 0.3204099999999954
                },
                {
                    "name": "F#2",
                    "midi": 42,
                    "time": 64.40240999999993,
                    "velocity": 0.3700787401574803,
                    "duration": 0.3204099999999954
                },
                {
                    "name": "G1",
                    "midi": 31,
                    "time": 64.72281999999993,
                    "velocity": 0.2992125984251969,
                    "duration": 0.060076874999992924
                },
                {
                    "name": "G2",
                    "midi": 43,
                    "time": 64.72281999999993,
                    "velocity": 0.3464566929133858,
                    "duration": 0.060076874999992924
                },
                {
                    "name": "G#1",
                    "midi": 32,
                    "time": 64.88302499999992,
                    "velocity": 0.2755905511811024,
                    "duration": 0.060076874999992924
                },
                {
                    "name": "G#2",
                    "midi": 44,
                    "time": 64.88302499999992,
                    "velocity": 0.33858267716535434,
                    "duration": 0.060076874999992924
                },
                {
                    "name": "A1",
                    "midi": 33,
                    "time": 65.04322999999991,
                    "velocity": 0.36220472440944884,
                    "duration": 0.3204099999999954
                },
                {
                    "name": "A2",
                    "midi": 45,
                    "time": 65.04322999999991,
                    "velocity": 0.4251968503937008,
                    "duration": 0.3204099999999954
                },
                {
                    "name": "B1",
                    "midi": 35,
                    "time": 65.3636399999999,
                    "velocity": 0.4409448818897638,
                    "duration": 0.3204099999999954
                },
                {
                    "name": "B2",
                    "midi": 47,
                    "time": 65.3636399999999,
                    "velocity": 0.5275590551181102,
                    "duration": 0.3204099999999954
                },
                {
                    "name": "C3",
                    "midi": 48,
                    "time": 65.6840499999999,
                    "velocity": 0.33858267716535434,
                    "duration": 0.3204099999999954
                },
                {
                    "name": "F#3",
                    "midi": 54,
                    "time": 65.6840499999999,
                    "velocity": 0.33858267716535434,
                    "duration": 0.3204099999999954
                },
                {
                    "name": "G#3",
                    "midi": 56,
                    "time": 65.6840499999999,
                    "velocity": 0.33858267716535434,
                    "duration": 0.3204099999999954
                },
                {
                    "name": "D4",
                    "midi": 62,
                    "time": 65.6840499999999,
                    "velocity": 0.4015748031496063,
                    "duration": 0.3204099999999954
                },
                {
                    "name": "C#3",
                    "midi": 49,
                    "time": 66.0044599999999,
                    "velocity": 0.33858267716535434,
                    "duration": 0.32041000000000963
                },
                {
                    "name": "G#3",
                    "midi": 56,
                    "time": 66.0044599999999,
                    "velocity": 0.33858267716535434,
                    "duration": 0.32041000000000963
                },
                {
                    "name": "B3",
                    "midi": 59,
                    "time": 66.0044599999999,
                    "velocity": 0.33858267716535434,
                    "duration": 0.32041000000000963
                },
                {
                    "name": "F4",
                    "midi": 65,
                    "time": 66.0044599999999,
                    "velocity": 0.4015748031496063,
                    "duration": 0.32041000000000963
                },
                {
                    "name": "A1",
                    "midi": 33,
                    "time": 66.3248699999999,
                    "velocity": 0.28346456692913385,
                    "duration": 0.3204099999999954
                },
                {
                    "name": "A2",
                    "midi": 45,
                    "time": 66.3248699999999,
                    "velocity": 0.33070866141732286,
                    "duration": 0.3204099999999954
                },
                {
                    "name": "B1",
                    "midi": 35,
                    "time": 66.6452799999999,
                    "velocity": 0.28346456692913385,
                    "duration": 0.060076874999992924
                },
                {
                    "name": "B2",
                    "midi": 47,
                    "time": 66.6452799999999,
                    "velocity": 0.33070866141732286,
                    "duration": 0.060076874999992924
                },
                {
                    "name": "C2",
                    "midi": 36,
                    "time": 66.80548499999989,
                    "velocity": 0.29133858267716534,
                    "duration": 0.060076874999992924
                },
                {
                    "name": "C3",
                    "midi": 48,
                    "time": 66.80548499999989,
                    "velocity": 0.3543307086614173,
                    "duration": 0.060076874999992924
                },
                {
                    "name": "C#2",
                    "midi": 37,
                    "time": 66.96568999999988,
                    "velocity": 0.3700787401574803,
                    "duration": 0.3204099999999954
                },
                {
                    "name": "C#3",
                    "midi": 49,
                    "time": 66.96568999999988,
                    "velocity": 0.4409448818897638,
                    "duration": 0.3204099999999954
                },
                {
                    "name": "D2",
                    "midi": 38,
                    "time": 67.28609999999988,
                    "velocity": 0.31496062992125984,
                    "duration": 0.3204099999999954
                },
                {
                    "name": "D3",
                    "midi": 50,
                    "time": 67.28609999999988,
                    "velocity": 0.3700787401574803,
                    "duration": 0.3204099999999954
                },
                {
                    "name": "D#2",
                    "midi": 39,
                    "time": 67.60650999999987,
                    "velocity": 0.31496062992125984,
                    "duration": 0.060076874999992924
                },
                {
                    "name": "D#3",
                    "midi": 51,
                    "time": 67.60650999999987,
                    "velocity": 0.3700787401574803,
                    "duration": 0.060076874999992924
                },
                {
                    "name": "E2",
                    "midi": 40,
                    "time": 67.76671499999986,
                    "velocity": 0.30708661417322836,
                    "duration": 0.060076874999992924
                },
                {
                    "name": "E3",
                    "midi": 52,
                    "time": 67.76671499999986,
                    "velocity": 0.3779527559055118,
                    "duration": 0.060076874999992924
                },
                {
                    "name": "F2",
                    "midi": 41,
                    "time": 67.92691999999985,
                    "velocity": 0.3543307086614173,
                    "duration": 0.3204099999999954
                },
                {
                    "name": "F3",
                    "midi": 53,
                    "time": 67.92691999999985,
                    "velocity": 0.41732283464566927,
                    "duration": 0.3204099999999954
                },
                {
                    "name": "F#2",
                    "midi": 42,
                    "time": 68.24732999999985,
                    "velocity": 0.33070866141732286,
                    "duration": 0.3204099999999954
                },
                {
                    "name": "F#3",
                    "midi": 54,
                    "time": 68.24732999999985,
                    "velocity": 0.3937007874015748,
                    "duration": 0.3204099999999954
                },
                {
                    "name": "G#2",
                    "midi": 44,
                    "time": 68.56773999999984,
                    "velocity": 0.33070866141732286,
                    "duration": 0.060076874999992924
                },
                {
                    "name": "G#3",
                    "midi": 56,
                    "time": 68.56773999999984,
                    "velocity": 0.3779527559055118,
                    "duration": 0.060076874999992924
                },
                {
                    "name": "A2",
                    "midi": 45,
                    "time": 68.72794499999983,
                    "velocity": 0.30708661417322836,
                    "duration": 0.060076874999992924
                },
                {
                    "name": "A3",
                    "midi": 57,
                    "time": 68.72794499999983,
                    "velocity": 0.3937007874015748,
                    "duration": 0.060076874999992924
                },
                {
                    "name": "A#2",
                    "midi": 46,
                    "time": 68.88814999999983,
                    "velocity": 0.3779527559055118,
                    "duration": 0.3204099999999954
                },
                {
                    "name": "A#3",
                    "midi": 58,
                    "time": 68.88814999999983,
                    "velocity": 0.44881889763779526,
                    "duration": 0.3204099999999954
                },
                {
                    "name": "B2",
                    "midi": 47,
                    "time": 69.20855999999982,
                    "velocity": 0.4251968503937008,
                    "duration": 0.3204099999999954
                },
                {
                    "name": "B3",
                    "midi": 59,
                    "time": 69.20855999999982,
                    "velocity": 0.5196850393700787,
                    "duration": 0.3204099999999954
                },
                {
                    "name": "B1",
                    "midi": 35,
                    "time": 69.52896999999982,
                    "velocity": 0.3858267716535433,
                    "duration": 0.3204099999999954
                },
                {
                    "name": "B2",
                    "midi": 47,
                    "time": 69.52896999999982,
                    "velocity": 0.4645669291338583,
                    "duration": 0.3204099999999954
                },
                {
                    "name": "G#1",
                    "midi": 32,
                    "time": 69.84937999999981,
                    "velocity": 0.3858267716535433,
                    "duration": 0.32041000000000963
                },
                {
                    "name": "G#2",
                    "midi": 44,
                    "time": 69.84937999999981,
                    "velocity": 0.4645669291338583,
                    "duration": 0.32041000000000963
                },
                {
                    "name": "D#3",
                    "midi": 51,
                    "time": 70.16978999999982,
                    "velocity": 0.3858267716535433,
                    "duration": 0.3204099999999954
                },
                {
                    "name": "F#3",
                    "midi": 54,
                    "time": 70.16978999999982,
                    "velocity": 0.3858267716535433,
                    "duration": 0.3204099999999954
                },
                {
                    "name": "A#3",
                    "midi": 58,
                    "time": 70.16978999999982,
                    "velocity": 0.3858267716535433,
                    "duration": 0.3204099999999954
                },
                {
                    "name": "D#4",
                    "midi": 63,
                    "time": 70.16978999999982,
                    "velocity": 0.4645669291338583,
                    "duration": 0.3204099999999954
                },
                {
                    "name": "F#1",
                    "midi": 30,
                    "time": 70.49019999999982,
                    "velocity": 0.4330708661417323,
                    "duration": 0.16020500000000482
                },
                {
                    "name": "F#2",
                    "midi": 42,
                    "time": 70.49019999999982,
                    "velocity": 0.5275590551181102,
                    "duration": 0.16020500000000482
                },
                {
                    "name": "D#4",
                    "midi": 63,
                    "time": 70.81060999999981,
                    "velocity": 0.49606299212598426,
                    "duration": 0.32041000000000963
                },
                {
                    "name": "B3",
                    "midi": 59,
                    "time": 70.81060999999981,
                    "velocity": 0.4094488188976378,
                    "duration": 0.32041000000000963
                },
                {
                    "name": "G#3",
                    "midi": 56,
                    "time": 70.81060999999981,
                    "velocity": 0.4094488188976378,
                    "duration": 0.32041000000000963
                },
                {
                    "name": "D#3",
                    "midi": 51,
                    "time": 70.81060999999981,
                    "velocity": 0.4094488188976378,
                    "duration": 0.32041000000000963
                },
                {
                    "name": "G#1",
                    "midi": 32,
                    "time": 71.13101999999982,
                    "velocity": 0.4330708661417323,
                    "duration": 0.16020500000000482
                },
                {
                    "name": "G#2",
                    "midi": 44,
                    "time": 71.13101999999982,
                    "velocity": 0.5275590551181102,
                    "duration": 0.16020500000000482
                },
                {
                    "name": "D#4",
                    "midi": 63,
                    "time": 71.45142999999982,
                    "velocity": 0.44881889763779526,
                    "duration": 0.3204099999999954
                },
                {
                    "name": "B3",
                    "midi": 59,
                    "time": 71.45142999999982,
                    "velocity": 0.3779527559055118,
                    "duration": 0.3204099999999954
                },
                {
                    "name": "G#3",
                    "midi": 56,
                    "time": 71.45142999999982,
                    "velocity": 0.3779527559055118,
                    "duration": 0.3204099999999954
                },
                {
                    "name": "F3",
                    "midi": 53,
                    "time": 71.45142999999982,
                    "velocity": 0.3779527559055118,
                    "duration": 0.3204099999999954
                },
                {
                    "name": "B1",
                    "midi": 35,
                    "time": 71.77183999999981,
                    "velocity": 0.4330708661417323,
                    "duration": 0.16020500000000482
                },
                {
                    "name": "B2",
                    "midi": 47,
                    "time": 71.77183999999981,
                    "velocity": 0.5196850393700787,
                    "duration": 0.16020500000000482
                },
                {
                    "name": "D#4",
                    "midi": 63,
                    "time": 72.09224999999982,
                    "velocity": 0.47244094488188976,
                    "duration": 0.3204099999999954
                },
                {
                    "name": "A#3",
                    "midi": 58,
                    "time": 72.09224999999982,
                    "velocity": 0.4015748031496063,
                    "duration": 0.3204099999999954
                },
                {
                    "name": "F#3",
                    "midi": 54,
                    "time": 72.09224999999982,
                    "velocity": 0.4015748031496063,
                    "duration": 0.3204099999999954
                },
                {
                    "name": "A#1",
                    "midi": 34,
                    "time": 72.41265999999982,
                    "velocity": 0.4330708661417323,
                    "duration": 0.16020500000000482
                },
                {
                    "name": "A#2",
                    "midi": 46,
                    "time": 72.41265999999982,
                    "velocity": 0.5196850393700787,
                    "duration": 0.16020500000000482
                },
                {
                    "name": "D#4",
                    "midi": 63,
                    "time": 72.73306999999981,
                    "velocity": 0.47244094488188976,
                    "duration": 0.32041000000000963
                },
                {
                    "name": "A#3",
                    "midi": 58,
                    "time": 72.73306999999981,
                    "velocity": 0.4015748031496063,
                    "duration": 0.32041000000000963
                },
                {
                    "name": "F3",
                    "midi": 53,
                    "time": 72.73306999999981,
                    "velocity": 0.4015748031496063,
                    "duration": 0.32041000000000963
                },
                {
                    "name": "A#1",
                    "midi": 34,
                    "time": 73.05347999999982,
                    "velocity": 0.44881889763779526,
                    "duration": 0.16020500000000482
                },
                {
                    "name": "A#2",
                    "midi": 46,
                    "time": 73.05347999999982,
                    "velocity": 0.5433070866141733,
                    "duration": 0.16020500000000482
                },
                {
                    "name": "D4",
                    "midi": 62,
                    "time": 73.37388999999983,
                    "velocity": 0.47244094488188976,
                    "duration": 0.3204099999999954
                },
                {
                    "name": "A#3",
                    "midi": 58,
                    "time": 73.37388999999983,
                    "velocity": 0.4015748031496063,
                    "duration": 0.3204099999999954
                },
                {
                    "name": "G#3",
                    "midi": 56,
                    "time": 73.37388999999983,
                    "velocity": 0.4015748031496063,
                    "duration": 0.3204099999999954
                },
                {
                    "name": "F3",
                    "midi": 53,
                    "time": 73.37388999999983,
                    "velocity": 0.4015748031496063,
                    "duration": 0.3204099999999954
                },
                {
                    "name": "D#1",
                    "midi": 27,
                    "time": 73.69429999999983,
                    "velocity": 0.4881889763779528,
                    "duration": 0.30038437500000725
                },
                {
                    "name": "D#2",
                    "midi": 39,
                    "time": 73.69429999999983,
                    "velocity": 0.5826771653543307,
                    "duration": 0.30038437500000725
                },
                {
                    "name": "D#2",
                    "midi": 39,
                    "time": 74.01470999999984,
                    "velocity": 0.4094488188976378,
                    "duration": 0.9612300000000005
                },
                {
                    "name": "D#3",
                    "midi": 51,
                    "time": 74.01470999999984,
                    "velocity": 0.49606299212598426,
                    "duration": 0.9612300000000005
                },
                {
                    "name": "A#1",
                    "midi": 34,
                    "time": 74.97593999999984,
                    "velocity": 0.44881889763779526,
                    "duration": 0.3204099999999954
                },
                {
                    "name": "A#2",
                    "midi": 46,
                    "time": 74.97593999999984,
                    "velocity": 0.5433070866141733,
                    "duration": 0.3204099999999954
                },
                {
                    "name": "B1",
                    "midi": 35,
                    "time": 75.29634999999983,
                    "velocity": 0.4094488188976378,
                    "duration": 0.16020500000000482
                },
                {
                    "name": "B2",
                    "midi": 47,
                    "time": 75.29634999999983,
                    "velocity": 0.49606299212598426,
                    "duration": 0.16020500000000482
                },
                {
                    "name": "A#1",
                    "midi": 34,
                    "time": 75.45655499999984,
                    "velocity": 0.3779527559055118,
                    "duration": 0.16020500000000482
                },
                {
                    "name": "A#2",
                    "midi": 46,
                    "time": 75.45655499999984,
                    "velocity": 0.44881889763779526,
                    "duration": 0.16020500000000482
                },
                {
                    "name": "F1",
                    "midi": 29,
                    "time": 75.61675999999984,
                    "velocity": 0.41732283464566927,
                    "duration": 0.16020500000000482
                },
                {
                    "name": "F2",
                    "midi": 41,
                    "time": 75.61675999999984,
                    "velocity": 0.5039370078740157,
                    "duration": 0.16020500000000482
                },
                {
                    "name": "F#1",
                    "midi": 30,
                    "time": 75.77696499999985,
                    "velocity": 0.3700787401574803,
                    "duration": 0.16020500000000482
                },
                {
                    "name": "F#2",
                    "midi": 42,
                    "time": 75.77696499999985,
                    "velocity": 0.4330708661417323,
                    "duration": 0.16020500000000482
                },
                {
                    "name": "D#1",
                    "midi": 27,
                    "time": 75.93716999999985,
                    "velocity": 0.4094488188976378,
                    "duration": 1.281639999999996
                },
                {
                    "name": "D#2",
                    "midi": 39,
                    "time": 75.93716999999985,
                    "velocity": 0.49606299212598426,
                    "duration": 1.281639999999996
                },
                {
                    "name": "F#1",
                    "midi": 30,
                    "time": 77.85962999999985,
                    "velocity": 0.2125984251968504,
                    "duration": 0.32041000000000963
                },
                {
                    "name": "D#4",
                    "midi": 63,
                    "time": 78.18003999999986,
                    "velocity": 0.1732283464566929,
                    "duration": 0.3204099999999954
                },
                {
                    "name": "C#3",
                    "midi": 49,
                    "time": 78.18003999999986,
                    "velocity": 0.13385826771653545,
                    "duration": 0.3204099999999954
                },
                {
                    "name": "F#3",
                    "midi": 54,
                    "time": 78.18003999999986,
                    "velocity": 0.13385826771653545,
                    "duration": 0.3204099999999954
                },
                {
                    "name": "C#3",
                    "midi": 49,
                    "time": 78.50044999999986,
                    "velocity": 0.12598425196850394,
                    "duration": 0.3204099999999954
                },
                {
                    "name": "F#3",
                    "midi": 54,
                    "time": 78.50044999999986,
                    "velocity": 0.12598425196850394,
                    "duration": 0.3204099999999954
                },
                {
                    "name": "C#4",
                    "midi": 61,
                    "time": 78.50044999999986,
                    "velocity": 0.15748031496062992,
                    "duration": 0.3204099999999954
                },
                {
                    "name": "F#2",
                    "midi": 42,
                    "time": 78.82085999999985,
                    "velocity": 0.1968503937007874,
                    "duration": 0.32041000000000963
                },
                {
                    "name": "D#4",
                    "midi": 63,
                    "time": 79.14126999999986,
                    "velocity": 0.1889763779527559,
                    "duration": 0.3204099999999954
                },
                {
                    "name": "F#3",
                    "midi": 54,
                    "time": 79.14126999999986,
                    "velocity": 0.15748031496062992,
                    "duration": 0.3204099999999954
                },
                {
                    "name": "C#3",
                    "midi": 49,
                    "time": 79.14126999999986,
                    "velocity": 0.15748031496062992,
                    "duration": 0.3204099999999954
                },
                {
                    "name": "C#3",
                    "midi": 49,
                    "time": 79.46167999999986,
                    "velocity": 0.11811023622047244,
                    "duration": 0.3204099999999954
                },
                {
                    "name": "F#3",
                    "midi": 54,
                    "time": 79.46167999999986,
                    "velocity": 0.11811023622047244,
                    "duration": 0.3204099999999954
                },
                {
                    "name": "C#4",
                    "midi": 61,
                    "time": 79.46167999999986,
                    "velocity": 0.14173228346456693,
                    "duration": 0.3204099999999954
                },
                {
                    "name": "F#2",
                    "midi": 42,
                    "time": 79.78208999999985,
                    "velocity": 0.2125984251968504,
                    "duration": 0.32041000000000963
                },
                {
                    "name": "D#4",
                    "midi": 63,
                    "time": 80.10249999999986,
                    "velocity": 0.1889763779527559,
                    "duration": 0.3204099999999954
                },
                {
                    "name": "F#3",
                    "midi": 54,
                    "time": 80.10249999999986,
                    "velocity": 0.15748031496062992,
                    "duration": 0.3204099999999954
                },
                {
                    "name": "C#3",
                    "midi": 49,
                    "time": 80.10249999999986,
                    "velocity": 0.15748031496062992,
                    "duration": 0.3204099999999954
                },
                {
                    "name": "C#3",
                    "midi": 49,
                    "time": 80.42290999999986,
                    "velocity": 0.11811023622047244,
                    "duration": 0.3204099999999954
                },
                {
                    "name": "F#3",
                    "midi": 54,
                    "time": 80.42290999999986,
                    "velocity": 0.11811023622047244,
                    "duration": 0.3204099999999954
                },
                {
                    "name": "C#4",
                    "midi": 61,
                    "time": 80.42290999999986,
                    "velocity": 0.14173228346456693,
                    "duration": 0.3204099999999954
                },
                {
                    "name": "F#2",
                    "midi": 42,
                    "time": 80.74331999999985,
                    "velocity": 0.2125984251968504,
                    "duration": 0.3204099999999954
                },
                {
                    "name": "D#4",
                    "midi": 63,
                    "time": 81.06372999999985,
                    "velocity": 0.2125984251968504,
                    "duration": 0.3204099999999954
                },
                {
                    "name": "C#3",
                    "midi": 49,
                    "time": 81.06372999999985,
                    "velocity": 0.1732283464566929,
                    "duration": 0.3204099999999954
                },
                {
                    "name": "F#3",
                    "midi": 54,
                    "time": 81.06372999999985,
                    "velocity": 0.1732283464566929,
                    "duration": 0.3204099999999954
                },
                {
                    "name": "C#3",
                    "midi": 49,
                    "time": 81.38413999999985,
                    "velocity": 0.13385826771653545,
                    "duration": 0.3204099999999954
                },
                {
                    "name": "F#3",
                    "midi": 54,
                    "time": 81.38413999999985,
                    "velocity": 0.13385826771653545,
                    "duration": 0.3204099999999954
                },
                {
                    "name": "C#4",
                    "midi": 61,
                    "time": 81.38413999999985,
                    "velocity": 0.16535433070866143,
                    "duration": 0.3204099999999954
                },
                {
                    "name": "F#2",
                    "midi": 42,
                    "time": 81.70454999999984,
                    "velocity": 0.2677165354330709,
                    "duration": 0.3204099999999954
                },
                {
                    "name": "D#4",
                    "midi": 63,
                    "time": 82.02495999999984,
                    "velocity": 0.1889763779527559,
                    "duration": 0.3204099999999954
                },
                {
                    "name": "F#3",
                    "midi": 54,
                    "time": 82.02495999999984,
                    "velocity": 0.15748031496062992,
                    "duration": 0.3204099999999954
                },
                {
                    "name": "C#3",
                    "midi": 49,
                    "time": 82.02495999999984,
                    "velocity": 0.15748031496062992,
                    "duration": 0.3204099999999954
                },
                {
                    "name": "C#3",
                    "midi": 49,
                    "time": 82.34536999999983,
                    "velocity": 0.12598425196850394,
                    "duration": 0.3204099999999954
                },
                {
                    "name": "F#3",
                    "midi": 54,
                    "time": 82.34536999999983,
                    "velocity": 0.12598425196850394,
                    "duration": 0.3204099999999954
                },
                {
                    "name": "C#4",
                    "midi": 61,
                    "time": 82.34536999999983,
                    "velocity": 0.16535433070866143,
                    "duration": 0.3204099999999954
                },
                {
                    "name": "F#2",
                    "midi": 42,
                    "time": 82.66577999999983,
                    "velocity": 0.2677165354330709,
                    "duration": 0.3204099999999954
                },
                {
                    "name": "D#4",
                    "midi": 63,
                    "time": 82.98618999999982,
                    "velocity": 0.16535433070866143,
                    "duration": 0.3204099999999954
                },
                {
                    "name": "C#3",
                    "midi": 49,
                    "time": 82.98618999999982,
                    "velocity": 0.13385826771653545,
                    "duration": 0.3204099999999954
                },
                {
                    "name": "F#3",
                    "midi": 54,
                    "time": 82.98618999999982,
                    "velocity": 0.13385826771653545,
                    "duration": 0.3204099999999954
                },
                {
                    "name": "C#3",
                    "midi": 49,
                    "time": 83.30659999999982,
                    "velocity": 0.11811023622047244,
                    "duration": 0.3204099999999954
                },
                {
                    "name": "F#3",
                    "midi": 54,
                    "time": 83.30659999999982,
                    "velocity": 0.11811023622047244,
                    "duration": 0.3204099999999954
                },
                {
                    "name": "C#4",
                    "midi": 61,
                    "time": 83.30659999999982,
                    "velocity": 0.14173228346456693,
                    "duration": 0.3204099999999954
                },
                {
                    "name": "C#2",
                    "midi": 37,
                    "time": 83.62700999999981,
                    "velocity": 0.25984251968503935,
                    "duration": 0.3204099999999954
                },
                {
                    "name": "D#4",
                    "midi": 63,
                    "time": 83.94741999999981,
                    "velocity": 0.1889763779527559,
                    "duration": 0.3204099999999954
                },
                {
                    "name": "F#3",
                    "midi": 54,
                    "time": 83.94741999999981,
                    "velocity": 0.15748031496062992,
                    "duration": 0.3204099999999954
                },
                {
                    "name": "C#3",
                    "midi": 49,
                    "time": 83.94741999999981,
                    "velocity": 0.15748031496062992,
                    "duration": 0.3204099999999954
                },
                {
                    "name": "C#3",
                    "midi": 49,
                    "time": 84.2678299999998,
                    "velocity": 0.12598425196850394,
                    "duration": 0.3204099999999954
                },
                {
                    "name": "F#3",
                    "midi": 54,
                    "time": 84.2678299999998,
                    "velocity": 0.12598425196850394,
                    "duration": 0.3204099999999954
                },
                {
                    "name": "C#4",
                    "midi": 61,
                    "time": 84.2678299999998,
                    "velocity": 0.16535433070866143,
                    "duration": 0.3204099999999954
                },
                {
                    "name": "F#2",
                    "midi": 42,
                    "time": 84.5882399999998,
                    "velocity": 0.2677165354330709,
                    "duration": 0.3204099999999954
                },
                {
                    "name": "D#4",
                    "midi": 63,
                    "time": 84.9086499999998,
                    "velocity": 0.1889763779527559,
                    "duration": 0.3204099999999954
                },
                {
                    "name": "C#3",
                    "midi": 49,
                    "time": 84.9086499999998,
                    "velocity": 0.15748031496062992,
                    "duration": 0.3204099999999954
                },
                {
                    "name": "F#3",
                    "midi": 54,
                    "time": 84.9086499999998,
                    "velocity": 0.15748031496062992,
                    "duration": 0.3204099999999954
                },
                {
                    "name": "C#3",
                    "midi": 49,
                    "time": 85.22905999999979,
                    "velocity": 0.12598425196850394,
                    "duration": 0.3204099999999954
                },
                {
                    "name": "F#3",
                    "midi": 54,
                    "time": 85.22905999999979,
                    "velocity": 0.12598425196850394,
                    "duration": 0.3204099999999954
                },
                {
                    "name": "C#4",
                    "midi": 61,
                    "time": 85.22905999999979,
                    "velocity": 0.16535433070866143,
                    "duration": 0.3204099999999954
                },
                {
                    "name": "C#3",
                    "midi": 49,
                    "time": 85.54946999999979,
                    "velocity": 0.15748031496062992,
                    "duration": 0.3204099999999954
                },
                {
                    "name": "F#3",
                    "midi": 54,
                    "time": 85.54946999999979,
                    "velocity": 0.14173228346456693,
                    "duration": 0.3204099999999954
                },
                {
                    "name": "C#4",
                    "midi": 61,
                    "time": 85.54946999999979,
                    "velocity": 0.1732283464566929,
                    "duration": 0.3204099999999954
                },
                {
                    "name": "C#3",
                    "midi": 49,
                    "time": 85.86987999999978,
                    "velocity": 0.13385826771653545,
                    "duration": 0.3204099999999954
                },
                {
                    "name": "F#3",
                    "midi": 54,
                    "time": 85.86987999999978,
                    "velocity": 0.13385826771653545,
                    "duration": 0.3204099999999954
                },
                {
                    "name": "B3",
                    "midi": 59,
                    "time": 85.86987999999978,
                    "velocity": 0.1732283464566929,
                    "duration": 0.3204099999999954
                },
                {
                    "name": "C#3",
                    "midi": 49,
                    "time": 86.19028999999978,
                    "velocity": 0.14173228346456693,
                    "duration": 0.3204099999999954
                },
                {
                    "name": "F#3",
                    "midi": 54,
                    "time": 86.19028999999978,
                    "velocity": 0.14173228346456693,
                    "duration": 0.3204099999999954
                },
                {
                    "name": "A#3",
                    "midi": 58,
                    "time": 86.19028999999978,
                    "velocity": 0.18110236220472442,
                    "duration": 0.3204099999999954
                },
                {
                    "name": "C#3",
                    "midi": 49,
                    "time": 86.51069999999977,
                    "velocity": 0.14173228346456693,
                    "duration": 0.32041000000000963
                },
                {
                    "name": "F#3",
                    "midi": 54,
                    "time": 86.51069999999977,
                    "velocity": 0.14173228346456693,
                    "duration": 0.32041000000000963
                },
                {
                    "name": "A#3",
                    "midi": 58,
                    "time": 86.51069999999977,
                    "velocity": 0.18110236220472442,
                    "duration": 0.32041000000000963
                },
                {
                    "name": "B2",
                    "midi": 47,
                    "time": 86.83110999999978,
                    "velocity": 0.14173228346456693,
                    "duration": 0.3204099999999954
                },
                {
                    "name": "C#3",
                    "midi": 49,
                    "time": 86.83110999999978,
                    "velocity": 0.18110236220472442,
                    "duration": 0.3204099999999954
                },
                {
                    "name": "A#2",
                    "midi": 46,
                    "time": 87.15151999999978,
                    "velocity": 0.14173228346456693,
                    "duration": 0.3204099999999954
                },
                {
                    "name": "C#3",
                    "midi": 49,
                    "time": 87.15151999999978,
                    "velocity": 0.18110236220472442,
                    "duration": 0.3204099999999954
                },
                {
                    "name": "A#2",
                    "midi": 46,
                    "time": 87.47192999999977,
                    "velocity": 0.14173228346456693,
                    "duration": 0.3204099999999954
                },
                {
                    "name": "C#3",
                    "midi": 49,
                    "time": 87.47192999999977,
                    "velocity": 0.18110236220472442,
                    "duration": 0.3204099999999954
                },
                {
                    "name": "B2",
                    "midi": 47,
                    "time": 87.79233999999977,
                    "velocity": 0.14173228346456693,
                    "duration": 0.3204099999999954
                },
                {
                    "name": "C#3",
                    "midi": 49,
                    "time": 87.79233999999977,
                    "velocity": 0.18110236220472442,
                    "duration": 0.3204099999999954
                },
                {
                    "name": "A#2",
                    "midi": 46,
                    "time": 88.11274999999976,
                    "velocity": 0.14173228346456693,
                    "duration": 0.3204099999999954
                },
                {
                    "name": "C#3",
                    "midi": 49,
                    "time": 88.11274999999976,
                    "velocity": 0.18110236220472442,
                    "duration": 0.3204099999999954
                },
                {
                    "name": "A#2",
                    "midi": 46,
                    "time": 88.43315999999976,
                    "velocity": 0.13385826771653545,
                    "duration": 0.3204099999999954
                },
                {
                    "name": "C#3",
                    "midi": 49,
                    "time": 88.43315999999976,
                    "velocity": 0.1732283464566929,
                    "duration": 0.3204099999999954
                },
                {
                    "name": "B2",
                    "midi": 47,
                    "time": 88.75356999999975,
                    "velocity": 0.13385826771653545,
                    "duration": 0.3204099999999954
                },
                {
                    "name": "C#3",
                    "midi": 49,
                    "time": 88.75356999999975,
                    "velocity": 0.1732283464566929,
                    "duration": 0.3204099999999954
                },
                {
                    "name": "A#2",
                    "midi": 46,
                    "time": 89.07397999999975,
                    "velocity": 0.12598425196850394,
                    "duration": 0.3204099999999954
                },
                {
                    "name": "C#3",
                    "midi": 49,
                    "time": 89.07397999999975,
                    "velocity": 0.15748031496062992,
                    "duration": 0.3204099999999954
                },
                {
                    "name": "A#2",
                    "midi": 46,
                    "time": 89.39438999999975,
                    "velocity": 0.2677165354330709,
                    "duration": 0.3204099999999954
                },
                {
                    "name": "F#4",
                    "midi": 66,
                    "time": 89.71479999999974,
                    "velocity": 0.1889763779527559,
                    "duration": 0.3204099999999954
                },
                {
                    "name": "A#3",
                    "midi": 58,
                    "time": 89.71479999999974,
                    "velocity": 0.15748031496062992,
                    "duration": 0.3204099999999954
                },
                {
                    "name": "F3",
                    "midi": 53,
                    "time": 89.71479999999974,
                    "velocity": 0.15748031496062992,
                    "duration": 0.3204099999999954
                },
                {
                    "name": "F3",
                    "midi": 53,
                    "time": 90.03520999999974,
                    "velocity": 0.12598425196850394,
                    "duration": 0.3204099999999954
                },
                {
                    "name": "A#3",
                    "midi": 58,
                    "time": 90.03520999999974,
                    "velocity": 0.12598425196850394,
                    "duration": 0.3204099999999954
                },
                {
                    "name": "F4",
                    "midi": 65,
                    "time": 90.03520999999974,
                    "velocity": 0.16535433070866143,
                    "duration": 0.3204099999999954
                },
                {
                    "name": "A#2",
                    "midi": 46,
                    "time": 90.35561999999973,
                    "velocity": 0.2677165354330709,
                    "duration": 0.32041000000000963
                },
                {
                    "name": "F#4",
                    "midi": 66,
                    "time": 90.67602999999974,
                    "velocity": 0.1732283464566929,
                    "duration": 0.3204099999999954
                },
                {
                    "name": "F3",
                    "midi": 53,
                    "time": 90.67602999999974,
                    "velocity": 0.13385826771653545,
                    "duration": 0.3204099999999954
                },
                {
                    "name": "A#3",
                    "midi": 58,
                    "time": 90.67602999999974,
                    "velocity": 0.13385826771653545,
                    "duration": 0.3204099999999954
                },
                {
                    "name": "F3",
                    "midi": 53,
                    "time": 90.99643999999974,
                    "velocity": 0.11023622047244094,
                    "duration": 0.3204099999999954
                },
                {
                    "name": "A#3",
                    "midi": 58,
                    "time": 90.99643999999974,
                    "velocity": 0.11023622047244094,
                    "duration": 0.3204099999999954
                },
                {
                    "name": "F4",
                    "midi": 65,
                    "time": 90.99643999999974,
                    "velocity": 0.13385826771653545,
                    "duration": 0.3204099999999954
                },
                {
                    "name": "F2",
                    "midi": 41,
                    "time": 91.31684999999973,
                    "velocity": 0.25984251968503935,
                    "duration": 0.3204099999999954
                },
                {
                    "name": "F#4",
                    "midi": 66,
                    "time": 91.63725999999973,
                    "velocity": 0.1889763779527559,
                    "duration": 0.3204099999999954
                },
                {
                    "name": "C4",
                    "midi": 60,
                    "time": 91.63725999999973,
                    "velocity": 0.10236220472440945,
                    "duration": 0.3204099999999954
                },
                {
                    "name": "F3",
                    "midi": 53,
                    "time": 91.63725999999973,
                    "velocity": 0.10236220472440945,
                    "duration": 0.3204099999999954
                },
                {
                    "name": "F3",
                    "midi": 53,
                    "time": 91.95766999999972,
                    "velocity": 0.12598425196850394,
                    "duration": 0.3204099999999954
                },
                {
                    "name": "C4",
                    "midi": 60,
                    "time": 91.95766999999972,
                    "velocity": 0.12598425196850394,
                    "duration": 0.3204099999999954
                },
                {
                    "name": "F4",
                    "midi": 65,
                    "time": 91.95766999999972,
                    "velocity": 0.15748031496062992,
                    "duration": 0.3204099999999954
                },
                {
                    "name": "A#2",
                    "midi": 46,
                    "time": 92.27807999999972,
                    "velocity": 0.2677165354330709,
                    "duration": 0.3204099999999954
                },
                {
                    "name": "F#4",
                    "midi": 66,
                    "time": 92.59848999999971,
                    "velocity": 0.1889763779527559,
                    "duration": 0.3204099999999954
                },
                {
                    "name": "F3",
                    "midi": 53,
                    "time": 92.59848999999971,
                    "velocity": 0.15748031496062992,
                    "duration": 0.3204099999999954
                },
                {
                    "name": "A#3",
                    "midi": 58,
                    "time": 92.59848999999971,
                    "velocity": 0.15748031496062992,
                    "duration": 0.3204099999999954
                },
                {
                    "name": "F3",
                    "midi": 53,
                    "time": 92.91889999999971,
                    "velocity": 0.13385826771653545,
                    "duration": 0.3204099999999954
                },
                {
                    "name": "A#3",
                    "midi": 58,
                    "time": 92.91889999999971,
                    "velocity": 0.13385826771653545,
                    "duration": 0.3204099999999954
                },
                {
                    "name": "F4",
                    "midi": 65,
                    "time": 92.91889999999971,
                    "velocity": 0.1732283464566929,
                    "duration": 0.3204099999999954
                },
                {
                    "name": "F3",
                    "midi": 53,
                    "time": 93.2393099999997,
                    "velocity": 0.11023622047244094,
                    "duration": 0.32041000000000963
                },
                {
                    "name": "A#3",
                    "midi": 58,
                    "time": 93.2393099999997,
                    "velocity": 0.13385826771653545,
                    "duration": 0.32041000000000963
                },
                {
                    "name": "F4",
                    "midi": 65,
                    "time": 93.2393099999997,
                    "velocity": 0.18110236220472442,
                    "duration": 0.32041000000000963
                },
                {
                    "name": "F3",
                    "midi": 53,
                    "time": 93.55971999999971,
                    "velocity": 0.15748031496062992,
                    "duration": 0.3204099999999954
                },
                {
                    "name": "A#3",
                    "midi": 58,
                    "time": 93.55971999999971,
                    "velocity": 0.15748031496062992,
                    "duration": 0.3204099999999954
                },
                {
                    "name": "D#4",
                    "midi": 63,
                    "time": 93.55971999999971,
                    "velocity": 0.1889763779527559,
                    "duration": 0.3204099999999954
                },
                {
                    "name": "F3",
                    "midi": 53,
                    "time": 93.88012999999971,
                    "velocity": 0.15748031496062992,
                    "duration": 0.3204099999999954
                },
                {
                    "name": "A#3",
                    "midi": 58,
                    "time": 93.88012999999971,
                    "velocity": 0.15748031496062992,
                    "duration": 0.3204099999999954
                },
                {
                    "name": "C#4",
                    "midi": 61,
                    "time": 93.88012999999971,
                    "velocity": 0.1889763779527559,
                    "duration": 0.3204099999999954
                },
                {
                    "name": "F3",
                    "midi": 53,
                    "time": 94.2005399999997,
                    "velocity": 0.12598425196850394,
                    "duration": 0.32041000000000963
                },
                {
                    "name": "A#3",
                    "midi": 58,
                    "time": 94.2005399999997,
                    "velocity": 0.12598425196850394,
                    "duration": 0.32041000000000963
                },
                {
                    "name": "C#4",
                    "midi": 61,
                    "time": 94.2005399999997,
                    "velocity": 0.1968503937007874,
                    "duration": 0.32041000000000963
                },
                {
                    "name": "D#3",
                    "midi": 51,
                    "time": 94.52094999999971,
                    "velocity": 0.15748031496062992,
                    "duration": 0.3204099999999954
                },
                {
                    "name": "F3",
                    "midi": 53,
                    "time": 94.52094999999971,
                    "velocity": 0.1889763779527559,
                    "duration": 0.3204099999999954
                },
                {
                    "name": "C#3",
                    "midi": 49,
                    "time": 94.84135999999971,
                    "velocity": 0.15748031496062992,
                    "duration": 0.3204099999999954
                },
                {
                    "name": "F3",
                    "midi": 53,
                    "time": 94.84135999999971,
                    "velocity": 0.1889763779527559,
                    "duration": 0.3204099999999954
                },
                {
                    "name": "C#3",
                    "midi": 49,
                    "time": 95.1617699999997,
                    "velocity": 0.15748031496062992,
                    "duration": 0.3204099999999954
                },
                {
                    "name": "F3",
                    "midi": 53,
                    "time": 95.1617699999997,
                    "velocity": 0.1889763779527559,
                    "duration": 0.3204099999999954
                },
                {
                    "name": "D#3",
                    "midi": 51,
                    "time": 95.4821799999997,
                    "velocity": 0.15748031496062992,
                    "duration": 0.3204099999999954
                },
                {
                    "name": "F3",
                    "midi": 53,
                    "time": 95.4821799999997,
                    "velocity": 0.1889763779527559,
                    "duration": 0.3204099999999954
                },
                {
                    "name": "C#3",
                    "midi": 49,
                    "time": 95.8025899999997,
                    "velocity": 0.15748031496062992,
                    "duration": 0.3204099999999954
                },
                {
                    "name": "F3",
                    "midi": 53,
                    "time": 95.8025899999997,
                    "velocity": 0.1889763779527559,
                    "duration": 0.3204099999999954
                },
                {
                    "name": "C#3",
                    "midi": 49,
                    "time": 96.12299999999969,
                    "velocity": 0.15748031496062992,
                    "duration": 0.3204099999999954
                },
                {
                    "name": "F3",
                    "midi": 53,
                    "time": 96.12299999999969,
                    "velocity": 0.1889763779527559,
                    "duration": 0.3204099999999954
                },
                {
                    "name": "D#3",
                    "midi": 51,
                    "time": 96.44340999999969,
                    "velocity": 0.1889763779527559,
                    "duration": 0.3204099999999954
                },
                {
                    "name": "F3",
                    "midi": 53,
                    "time": 96.44340999999969,
                    "velocity": 0.1889763779527559,
                    "duration": 0.3204099999999954
                },
                {
                    "name": "C#3",
                    "midi": 49,
                    "time": 96.76381999999968,
                    "velocity": 0.15748031496062992,
                    "duration": 0.3204099999999954
                },
                {
                    "name": "F3",
                    "midi": 53,
                    "time": 96.76381999999968,
                    "velocity": 0.1889763779527559,
                    "duration": 0.3204099999999954
                },
                {
                    "name": "F#2",
                    "midi": 42,
                    "time": 97.08422999999968,
                    "velocity": 0.28346456692913385,
                    "duration": 0.3204099999999954
                },
                {
                    "name": "D#4",
                    "midi": 63,
                    "time": 97.40463999999967,
                    "velocity": 0.1968503937007874,
                    "duration": 0.3204099999999954
                },
                {
                    "name": "F#3",
                    "midi": 54,
                    "time": 97.40463999999967,
                    "velocity": 0.16535433070866143,
                    "duration": 0.3204099999999954
                },
                {
                    "name": "C#3",
                    "midi": 49,
                    "time": 97.40463999999967,
                    "velocity": 0.16535433070866143,
                    "duration": 0.3204099999999954
                },
                {
                    "name": "C#3",
                    "midi": 49,
                    "time": 97.72504999999967,
                    "velocity": 0.12598425196850394,
                    "duration": 0.3204099999999954
                },
                {
                    "name": "F#3",
                    "midi": 54,
                    "time": 97.72504999999967,
                    "velocity": 0.12598425196850394,
                    "duration": 0.3204099999999954
                },
                {
                    "name": "C#4",
                    "midi": 61,
                    "time": 97.72504999999967,
                    "velocity": 0.16535433070866143,
                    "duration": 0.3204099999999954
                },
                {
                    "name": "F#2",
                    "midi": 42,
                    "time": 98.04545999999966,
                    "velocity": 0.2677165354330709,
                    "duration": 0.3204099999999954
                },
                {
                    "name": "D#4",
                    "midi": 63,
                    "time": 98.36586999999966,
                    "velocity": 0.16535433070866143,
                    "duration": 0.3204099999999954
                },
                {
                    "name": "C#3",
                    "midi": 49,
                    "time": 98.36586999999966,
                    "velocity": 0.13385826771653545,
                    "duration": 0.3204099999999954
                },
                {
                    "name": "F#3",
                    "midi": 54,
                    "time": 98.36586999999966,
                    "velocity": 0.13385826771653545,
                    "duration": 0.3204099999999954
                },
                {
                    "name": "C#3",
                    "midi": 49,
                    "time": 98.68627999999966,
                    "velocity": 0.11811023622047244,
                    "duration": 0.3204099999999954
                },
                {
                    "name": "F#3",
                    "midi": 54,
                    "time": 98.68627999999966,
                    "velocity": 0.11811023622047244,
                    "duration": 0.3204099999999954
                },
                {
                    "name": "C#4",
                    "midi": 61,
                    "time": 98.68627999999966,
                    "velocity": 0.14173228346456693,
                    "duration": 0.3204099999999954
                },
                {
                    "name": "C#2",
                    "midi": 37,
                    "time": 99.00668999999965,
                    "velocity": 0.2677165354330709,
                    "duration": 0.3204099999999954
                },
                {
                    "name": "D#4",
                    "midi": 63,
                    "time": 99.32709999999965,
                    "velocity": 0.2047244094488189,
                    "duration": 0.3204099999999954
                },
                {
                    "name": "F#3",
                    "midi": 54,
                    "time": 99.32709999999965,
                    "velocity": 0.1732283464566929,
                    "duration": 0.3204099999999954
                },
                {
                    "name": "C#3",
                    "midi": 49,
                    "time": 99.32709999999965,
                    "velocity": 0.1732283464566929,
                    "duration": 0.3204099999999954
                },
                {
                    "name": "C#3",
                    "midi": 49,
                    "time": 99.64750999999964,
                    "velocity": 0.14173228346456693,
                    "duration": 0.3204099999999954
                },
                {
                    "name": "F#3",
                    "midi": 54,
                    "time": 99.64750999999964,
                    "velocity": 0.14173228346456693,
                    "duration": 0.3204099999999954
                },
                {
                    "name": "C#4",
                    "midi": 61,
                    "time": 99.64750999999964,
                    "velocity": 0.18110236220472442,
                    "duration": 0.3204099999999954
                },
                {
                    "name": "F#2",
                    "midi": 42,
                    "time": 99.96791999999964,
                    "velocity": 0.2677165354330709,
                    "duration": 0.32041000000000963
                },
                {
                    "name": "D#4",
                    "midi": 63,
                    "time": 100.28832999999965,
                    "velocity": 0.1968503937007874,
                    "duration": 0.3204099999999954
                },
                {
                    "name": "C#3",
                    "midi": 49,
                    "time": 100.28832999999965,
                    "velocity": 0.16535433070866143,
                    "duration": 0.3204099999999954
                },
                {
                    "name": "F#3",
                    "midi": 54,
                    "time": 100.28832999999965,
                    "velocity": 0.16535433070866143,
                    "duration": 0.3204099999999954
                },
                {
                    "name": "C#3",
                    "midi": 49,
                    "time": 100.60873999999964,
                    "velocity": 0.15748031496062992,
                    "duration": 0.3204099999999954
                },
                {
                    "name": "F#3",
                    "midi": 54,
                    "time": 100.60873999999964,
                    "velocity": 0.15748031496062992,
                    "duration": 0.3204099999999954
                },
                {
                    "name": "C#4",
                    "midi": 61,
                    "time": 100.60873999999964,
                    "velocity": 0.1889763779527559,
                    "duration": 0.3204099999999954
                },
                {
                    "name": "C#3",
                    "midi": 49,
                    "time": 100.92914999999964,
                    "velocity": 0.16535433070866143,
                    "duration": 0.3204099999999954
                },
                {
                    "name": "F#3",
                    "midi": 54,
                    "time": 100.92914999999964,
                    "velocity": 0.16535433070866143,
                    "duration": 0.3204099999999954
                },
                {
                    "name": "C#4",
                    "midi": 61,
                    "time": 100.92914999999964,
                    "velocity": 0.1968503937007874,
                    "duration": 0.3204099999999954
                },
                {
                    "name": "C#3",
                    "midi": 49,
                    "time": 101.24955999999963,
                    "velocity": 0.15748031496062992,
                    "duration": 0.3204099999999954
                },
                {
                    "name": "F#3",
                    "midi": 54,
                    "time": 101.24955999999963,
                    "velocity": 0.15748031496062992,
                    "duration": 0.3204099999999954
                },
                {
                    "name": "B3",
                    "midi": 59,
                    "time": 101.24955999999963,
                    "velocity": 0.1889763779527559,
                    "duration": 0.3204099999999954
                },
                {
                    "name": "C#3",
                    "midi": 49,
                    "time": 101.56996999999963,
                    "velocity": 0.16535433070866143,
                    "duration": 0.3204099999999954
                },
                {
                    "name": "F#3",
                    "midi": 54,
                    "time": 101.56996999999963,
                    "velocity": 0.16535433070866143,
                    "duration": 0.3204099999999954
                },
                {
                    "name": "A#3",
                    "midi": 58,
                    "time": 101.56996999999963,
                    "velocity": 0.1968503937007874,
                    "duration": 0.3204099999999954
                },
                {
                    "name": "C#3",
                    "midi": 49,
                    "time": 101.89037999999962,
                    "velocity": 0.16535433070866143,
                    "duration": 0.3204099999999954
                },
                {
                    "name": "F#3",
                    "midi": 54,
                    "time": 101.89037999999962,
                    "velocity": 0.16535433070866143,
                    "duration": 0.3204099999999954
                },
                {
                    "name": "A#3",
                    "midi": 58,
                    "time": 101.89037999999962,
                    "velocity": 0.1968503937007874,
                    "duration": 0.3204099999999954
                },
                {
                    "name": "B2",
                    "midi": 47,
                    "time": 102.21078999999962,
                    "velocity": 0.16535433070866143,
                    "duration": 0.3204099999999954
                },
                {
                    "name": "C#3",
                    "midi": 49,
                    "time": 102.21078999999962,
                    "velocity": 0.1968503937007874,
                    "duration": 0.3204099999999954
                },
                {
                    "name": "A#2",
                    "midi": 46,
                    "time": 102.53119999999961,
                    "velocity": 0.16535433070866143,
                    "duration": 0.3204099999999954
                },
                {
                    "name": "C#3",
                    "midi": 49,
                    "time": 102.53119999999961,
                    "velocity": 0.1968503937007874,
                    "duration": 0.3204099999999954
                },
                {
                    "name": "A#2",
                    "midi": 46,
                    "time": 102.85160999999961,
                    "velocity": 0.16535433070866143,
                    "duration": 0.3204099999999954
                },
                {
                    "name": "C#3",
                    "midi": 49,
                    "time": 102.85160999999961,
                    "velocity": 0.1968503937007874,
                    "duration": 0.3204099999999954
                },
                {
                    "name": "B2",
                    "midi": 47,
                    "time": 103.1720199999996,
                    "velocity": 0.16535433070866143,
                    "duration": 0.3204099999999954
                },
                {
                    "name": "C#3",
                    "midi": 49,
                    "time": 103.1720199999996,
                    "velocity": 0.1968503937007874,
                    "duration": 0.3204099999999954
                },
                {
                    "name": "A#2",
                    "midi": 46,
                    "time": 103.4924299999996,
                    "velocity": 0.16535433070866143,
                    "duration": 0.3204099999999954
                },
                {
                    "name": "C#3",
                    "midi": 49,
                    "time": 103.4924299999996,
                    "velocity": 0.1968503937007874,
                    "duration": 0.3204099999999954
                },
                {
                    "name": "A#2",
                    "midi": 46,
                    "time": 103.8128399999996,
                    "velocity": 0.14173228346456693,
                    "duration": 0.3204099999999954
                },
                {
                    "name": "C#3",
                    "midi": 49,
                    "time": 103.8128399999996,
                    "velocity": 0.18110236220472442,
                    "duration": 0.3204099999999954
                },
                {
                    "name": "G#2",
                    "midi": 44,
                    "time": 104.13324999999959,
                    "velocity": 0.12598425196850394,
                    "duration": 0.3204099999999954
                },
                {
                    "name": "C#3",
                    "midi": 49,
                    "time": 104.13324999999959,
                    "velocity": 0.1732283464566929,
                    "duration": 0.3204099999999954
                },
                {
                    "name": "F#2",
                    "midi": 42,
                    "time": 104.45365999999959,
                    "velocity": 0.12598425196850394,
                    "duration": 0.3204099999999954
                },
                {
                    "name": "C#3",
                    "midi": 49,
                    "time": 104.45365999999959,
                    "velocity": 0.1732283464566929,
                    "duration": 0.3204099999999954
                },
                {
                    "name": "F2",
                    "midi": 41,
                    "time": 104.77406999999958,
                    "velocity": 0.3464566929133858,
                    "duration": 0.3204099999999954
                },
                {
                    "name": "D4",
                    "midi": 62,
                    "time": 105.09447999999958,
                    "velocity": 0.2125984251968504,
                    "duration": 0.3204099999999954
                },
                {
                    "name": "F3",
                    "midi": 53,
                    "time": 105.09447999999958,
                    "velocity": 0.18110236220472442,
                    "duration": 0.3204099999999954
                },
                {
                    "name": "F3",
                    "midi": 53,
                    "time": 105.41488999999957,
                    "velocity": 0.15748031496062992,
                    "duration": 0.3204099999999954
                },
                {
                    "name": "D4",
                    "midi": 62,
                    "time": 105.41488999999957,
                    "velocity": 0.1889763779527559,
                    "duration": 0.3204099999999954
                },
                {
                    "name": "F2",
                    "midi": 41,
                    "time": 105.73529999999957,
                    "velocity": 0.3228346456692913,
                    "duration": 0.32041000000000963
                },
                {
                    "name": "D#4",
                    "midi": 63,
                    "time": 106.05570999999958,
                    "velocity": 0.2125984251968504,
                    "duration": 0.3204099999999954
                },
                {
                    "name": "F3",
                    "midi": 53,
                    "time": 106.05570999999958,
                    "velocity": 0.1732283464566929,
                    "duration": 0.3204099999999954
                },
                {
                    "name": "A3",
                    "midi": 57,
                    "time": 106.05570999999958,
                    "velocity": 0.1732283464566929,
                    "duration": 0.3204099999999954
                },
                {
                    "name": "F3",
                    "midi": 53,
                    "time": 106.37611999999957,
                    "velocity": 0.1889763779527559,
                    "duration": 0.3204099999999954
                },
                {
                    "name": "A3",
                    "midi": 57,
                    "time": 106.37611999999957,
                    "velocity": 0.1889763779527559,
                    "duration": 0.3204099999999954
                },
                {
                    "name": "D#4",
                    "midi": 63,
                    "time": 106.37611999999957,
                    "velocity": 0.2204724409448819,
                    "duration": 0.3204099999999954
                },
                {
                    "name": "F2",
                    "midi": 41,
                    "time": 106.69652999999957,
                    "velocity": 0.30708661417322836,
                    "duration": 0.32041000000000963
                },
                {
                    "name": "F4",
                    "midi": 65,
                    "time": 107.01693999999958,
                    "velocity": 0.2204724409448819,
                    "duration": 0.3204099999999954
                },
                {
                    "name": "A#3",
                    "midi": 58,
                    "time": 107.01693999999958,
                    "velocity": 0.1889763779527559,
                    "duration": 0.3204099999999954
                },
                {
                    "name": "F3",
                    "midi": 53,
                    "time": 107.01693999999958,
                    "velocity": 0.1889763779527559,
                    "duration": 0.3204099999999954
                },
                {
                    "name": "F3",
                    "midi": 53,
                    "time": 107.33734999999957,
                    "velocity": 0.15748031496062992,
                    "duration": 0.3204099999999954
                },
                {
                    "name": "C#4",
                    "midi": 61,
                    "time": 107.33734999999957,
                    "velocity": 0.15748031496062992,
                    "duration": 0.3204099999999954
                },
                {
                    "name": "E4",
                    "midi": 64,
                    "time": 107.33734999999957,
                    "velocity": 0.1889763779527559,
                    "duration": 0.3204099999999954
                },
                {
                    "name": "F2",
                    "midi": 41,
                    "time": 107.65775999999957,
                    "velocity": 0.3228346456692913,
                    "duration": 0.3204099999999954
                },
                {
                    "name": "D#4",
                    "midi": 63,
                    "time": 107.97816999999957,
                    "velocity": 0.2125984251968504,
                    "duration": 0.3204099999999954
                },
                {
                    "name": "F3",
                    "midi": 53,
                    "time": 107.97816999999957,
                    "velocity": 0.18110236220472442,
                    "duration": 0.3204099999999954
                },
                {
                    "name": "C4",
                    "midi": 60,
                    "time": 107.97816999999957,
                    "velocity": 0.18110236220472442,
                    "duration": 0.3204099999999954
                },
                {
                    "name": "F3",
                    "midi": 53,
                    "time": 108.29857999999956,
                    "velocity": 0.15748031496062992,
                    "duration": 0.3204099999999954
                },
                {
                    "name": "C4",
                    "midi": 60,
                    "time": 108.29857999999956,
                    "velocity": 0.15748031496062992,
                    "duration": 0.3204099999999954
                },
                {
                    "name": "D#4",
                    "midi": 63,
                    "time": 108.29857999999956,
                    "velocity": 0.1889763779527559,
                    "duration": 0.3204099999999954
                },
                {
                    "name": "F2",
                    "midi": 41,
                    "time": 108.61898999999956,
                    "velocity": 0.3543307086614173,
                    "duration": 0.3204099999999954
                },
                {
                    "name": "D4",
                    "midi": 62,
                    "time": 108.93939999999955,
                    "velocity": 0.2204724409448819,
                    "duration": 0.3204099999999954
                },
                {
                    "name": "F3",
                    "midi": 53,
                    "time": 108.93939999999955,
                    "velocity": 0.1889763779527559,
                    "duration": 0.3204099999999954
                },
                {
                    "name": "F3",
                    "midi": 53,
                    "time": 109.25980999999955,
                    "velocity": 0.1732283464566929,
                    "duration": 0.3204099999999954
                },
                {
                    "name": "D4",
                    "midi": 62,
                    "time": 109.25980999999955,
                    "velocity": 0.2125984251968504,
                    "duration": 0.3204099999999954
                },
                {
                    "name": "F2",
                    "midi": 41,
                    "time": 109.58021999999954,
                    "velocity": 0.33858267716535434,
                    "duration": 0.32041000000000963
                },
                {
                    "name": "D#4",
                    "midi": 63,
                    "time": 109.90062999999955,
                    "velocity": 0.2125984251968504,
                    "duration": 0.3204099999999954
                },
                {
                    "name": "F3",
                    "midi": 53,
                    "time": 109.90062999999955,
                    "velocity": 0.1889763779527559,
                    "duration": 0.3204099999999954
                },
                {
                    "name": "A3",
                    "midi": 57,
                    "time": 109.90062999999955,
                    "velocity": 0.1889763779527559,
                    "duration": 0.3204099999999954
                },
                {
                    "name": "F3",
                    "midi": 53,
                    "time": 110.22103999999955,
                    "velocity": 0.15748031496062992,
                    "duration": 0.3204099999999954
                },
                {
                    "name": "A3",
                    "midi": 57,
                    "time": 110.22103999999955,
                    "velocity": 0.15748031496062992,
                    "duration": 0.3204099999999954
                },
                {
                    "name": "D#4",
                    "midi": 63,
                    "time": 110.22103999999955,
                    "velocity": 0.1889763779527559,
                    "duration": 0.3204099999999954
                },
                {
                    "name": "A#2",
                    "midi": 46,
                    "time": 110.54144999999954,
                    "velocity": 0.3543307086614173,
                    "duration": 0.32041000000000963
                },
                {
                    "name": "F4",
                    "midi": 65,
                    "time": 110.86185999999955,
                    "velocity": 0.25984251968503935,
                    "duration": 0.3204099999999954
                },
                {
                    "name": "A#3",
                    "midi": 58,
                    "time": 110.86185999999955,
                    "velocity": 0.1732283464566929,
                    "duration": 0.3204099999999954
                },
                {
                    "name": "F3",
                    "midi": 53,
                    "time": 110.86185999999955,
                    "velocity": 0.1732283464566929,
                    "duration": 0.3204099999999954
                },
                {
                    "name": "F3",
                    "midi": 53,
                    "time": 111.18226999999955,
                    "velocity": 0.10236220472440945,
                    "duration": 0.3204099999999954
                },
                {
                    "name": "A#3",
                    "midi": 58,
                    "time": 111.18226999999955,
                    "velocity": 0.10236220472440945,
                    "duration": 0.3204099999999954
                },
                {
                    "name": "C#4",
                    "midi": 61,
                    "time": 111.18226999999955,
                    "velocity": 0.1889763779527559,
                    "duration": 0.3204099999999954
                },
                {
                    "name": "C#2",
                    "midi": 37,
                    "time": 111.50267999999954,
                    "velocity": 0.3543307086614173,
                    "duration": 0.3204099999999954
                },
                {
                    "name": "C#4",
                    "midi": 61,
                    "time": 111.82308999999954,
                    "velocity": 0.1889763779527559,
                    "duration": 0.3204099999999954
                },
                {
                    "name": "G#4",
                    "midi": 68,
                    "time": 111.82308999999954,
                    "velocity": 0.2125984251968504,
                    "duration": 0.3204099999999954
                },
                {
                    "name": "G#3",
                    "midi": 56,
                    "time": 111.82308999999954,
                    "velocity": 0.1889763779527559,
                    "duration": 0.3204099999999954
                },
                {
                    "name": "B3",
                    "midi": 59,
                    "time": 111.82308999999954,
                    "velocity": 0.1889763779527559,
                    "duration": 0.3204099999999954
                },
                {
                    "name": "C#4",
                    "midi": 61,
                    "time": 112.14349999999953,
                    "velocity": 0.1732283464566929,
                    "duration": 0.3204099999999954
                },
                {
                    "name": "G#3",
                    "midi": 56,
                    "time": 112.14349999999953,
                    "velocity": 0.1732283464566929,
                    "duration": 0.3204099999999954
                },
                {
                    "name": "B3",
                    "midi": 59,
                    "time": 112.14349999999953,
                    "velocity": 0.1732283464566929,
                    "duration": 0.3204099999999954
                },
                {
                    "name": "G#4",
                    "midi": 68,
                    "time": 112.14349999999953,
                    "velocity": 0.2047244094488189,
                    "duration": 0.3204099999999954
                },
                {
                    "name": "G#3",
                    "midi": 56,
                    "time": 112.46390999999953,
                    "velocity": 0.1732283464566929,
                    "duration": 0.3204099999999954
                },
                {
                    "name": "B3",
                    "midi": 59,
                    "time": 112.46390999999953,
                    "velocity": 0.1732283464566929,
                    "duration": 0.3204099999999954
                },
                {
                    "name": "C#4",
                    "midi": 61,
                    "time": 112.46390999999953,
                    "velocity": 0.1732283464566929,
                    "duration": 0.3204099999999954
                },
                {
                    "name": "G#4",
                    "midi": 68,
                    "time": 112.46390999999953,
                    "velocity": 0.2047244094488189,
                    "duration": 0.3204099999999954
                },
                {
                    "name": "G#3",
                    "midi": 56,
                    "time": 112.78431999999952,
                    "velocity": 0.18110236220472442,
                    "duration": 0.3204099999999954
                },
                {
                    "name": "B3",
                    "midi": 59,
                    "time": 112.78431999999952,
                    "velocity": 0.18110236220472442,
                    "duration": 0.3204099999999954
                },
                {
                    "name": "C#4",
                    "midi": 61,
                    "time": 112.78431999999952,
                    "velocity": 0.2125984251968504,
                    "duration": 0.3204099999999954
                },
                {
                    "name": "G#3",
                    "midi": 56,
                    "time": 113.10472999999952,
                    "velocity": 0.18110236220472442,
                    "duration": 0.3204099999999954
                },
                {
                    "name": "B3",
                    "midi": 59,
                    "time": 113.10472999999952,
                    "velocity": 0.2125984251968504,
                    "duration": 0.3204099999999954
                },
                {
                    "name": "C#4",
                    "midi": 61,
                    "time": 113.10472999999952,
                    "velocity": 0.2125984251968504,
                    "duration": 0.3204099999999954
                },
                {
                    "name": "G#3",
                    "midi": 56,
                    "time": 113.42513999999952,
                    "velocity": 0.18110236220472442,
                    "duration": 0.3204099999999954
                },
                {
                    "name": "B3",
                    "midi": 59,
                    "time": 113.42513999999952,
                    "velocity": 0.18110236220472442,
                    "duration": 0.3204099999999954
                },
                {
                    "name": "C#4",
                    "midi": 61,
                    "time": 113.42513999999952,
                    "velocity": 0.2125984251968504,
                    "duration": 0.3204099999999954
                },
                {
                    "name": "F#3",
                    "midi": 54,
                    "time": 113.74554999999951,
                    "velocity": 0.18110236220472442,
                    "duration": 0.3204099999999954
                },
                {
                    "name": "B3",
                    "midi": 59,
                    "time": 113.74554999999951,
                    "velocity": 0.18110236220472442,
                    "duration": 0.3204099999999954
                },
                {
                    "name": "C#4",
                    "midi": 61,
                    "time": 113.74554999999951,
                    "velocity": 0.2125984251968504,
                    "duration": 0.3204099999999954
                },
                {
                    "name": "G#3",
                    "midi": 56,
                    "time": 114.0659599999995,
                    "velocity": 0.18110236220472442,
                    "duration": 0.3204099999999954
                },
                {
                    "name": "B3",
                    "midi": 59,
                    "time": 114.0659599999995,
                    "velocity": 0.18110236220472442,
                    "duration": 0.3204099999999954
                },
                {
                    "name": "C#4",
                    "midi": 61,
                    "time": 114.0659599999995,
                    "velocity": 0.2125984251968504,
                    "duration": 0.3204099999999954
                },
                {
                    "name": "G#3",
                    "midi": 56,
                    "time": 114.3863699999995,
                    "velocity": 0.18110236220472442,
                    "duration": 0.3204099999999954
                },
                {
                    "name": "B3",
                    "midi": 59,
                    "time": 114.3863699999995,
                    "velocity": 0.18110236220472442,
                    "duration": 0.3204099999999954
                },
                {
                    "name": "C#4",
                    "midi": 61,
                    "time": 114.3863699999995,
                    "velocity": 0.2125984251968504,
                    "duration": 0.3204099999999954
                },
                {
                    "name": "F#3",
                    "midi": 54,
                    "time": 114.7067799999995,
                    "velocity": 0.1732283464566929,
                    "duration": 0.3204099999999954
                },
                {
                    "name": "B3",
                    "midi": 59,
                    "time": 114.7067799999995,
                    "velocity": 0.1732283464566929,
                    "duration": 0.3204099999999954
                },
                {
                    "name": "C#4",
                    "midi": 61,
                    "time": 114.7067799999995,
                    "velocity": 0.2047244094488189,
                    "duration": 0.3204099999999954
                },
                {
                    "name": "G#3",
                    "midi": 56,
                    "time": 115.0271899999995,
                    "velocity": 0.1732283464566929,
                    "duration": 0.3204099999999954
                },
                {
                    "name": "B3",
                    "midi": 59,
                    "time": 115.0271899999995,
                    "velocity": 0.1732283464566929,
                    "duration": 0.3204099999999954
                },
                {
                    "name": "C#4",
                    "midi": 61,
                    "time": 115.0271899999995,
                    "velocity": 0.2047244094488189,
                    "duration": 0.3204099999999954
                },
                {
                    "name": "G#3",
                    "midi": 56,
                    "time": 115.34759999999949,
                    "velocity": 0.15748031496062992,
                    "duration": 0.3204099999999954
                },
                {
                    "name": "B3",
                    "midi": 59,
                    "time": 115.34759999999949,
                    "velocity": 0.15748031496062992,
                    "duration": 0.3204099999999954
                },
                {
                    "name": "C#4",
                    "midi": 61,
                    "time": 115.34759999999949,
                    "velocity": 0.1889763779527559,
                    "duration": 0.3204099999999954
                },
                {
                    "name": "F#3",
                    "midi": 54,
                    "time": 115.66800999999948,
                    "velocity": 0.14173228346456693,
                    "duration": 0.3204099999999954
                },
                {
                    "name": "B3",
                    "midi": 59,
                    "time": 115.66800999999948,
                    "velocity": 0.14173228346456693,
                    "duration": 0.3204099999999954
                },
                {
                    "name": "C#4",
                    "midi": 61,
                    "time": 115.66800999999948,
                    "velocity": 0.18110236220472442,
                    "duration": 0.3204099999999954
                },
                {
                    "name": "G#3",
                    "midi": 56,
                    "time": 115.98841999999948,
                    "velocity": 0.14173228346456693,
                    "duration": 0.3204099999999954
                },
                {
                    "name": "B3",
                    "midi": 59,
                    "time": 115.98841999999948,
                    "velocity": 0.14173228346456693,
                    "duration": 0.3204099999999954
                },
                {
                    "name": "C#4",
                    "midi": 61,
                    "time": 115.98841999999948,
                    "velocity": 0.18110236220472442,
                    "duration": 0.3204099999999954
                },
                {
                    "name": "F#2",
                    "midi": 42,
                    "time": 116.30882999999947,
                    "velocity": 0.29133858267716534,
                    "duration": 0.3204099999999954
                },
                {
                    "name": "D#4",
                    "midi": 63,
                    "time": 116.62923999999947,
                    "velocity": 0.1968503937007874,
                    "duration": 0.3204099999999954
                },
                {
                    "name": "F#3",
                    "midi": 54,
                    "time": 116.62923999999947,
                    "velocity": 0.16535433070866143,
                    "duration": 0.3204099999999954
                },
                {
                    "name": "C#3",
                    "midi": 49,
                    "time": 116.62923999999947,
                    "velocity": 0.16535433070866143,
                    "duration": 0.3204099999999954
                },
                {
                    "name": "C#3",
                    "midi": 49,
                    "time": 116.94964999999947,
                    "velocity": 0.14173228346456693,
                    "duration": 0.3204099999999954
                },
                {
                    "name": "F#3",
                    "midi": 54,
                    "time": 116.94964999999947,
                    "velocity": 0.14173228346456693,
                    "duration": 0.3204099999999954
                },
                {
                    "name": "C#4",
                    "midi": 61,
                    "time": 116.94964999999947,
                    "velocity": 0.18110236220472442,
                    "duration": 0.3204099999999954
                },
                {
                    "name": "F#2",
                    "midi": 42,
                    "time": 117.27005999999946,
                    "velocity": 0.2677165354330709,
                    "duration": 0.3204099999999954
                },
                {
                    "name": "D#4",
                    "midi": 63,
                    "time": 117.59046999999946,
                    "velocity": 0.18110236220472442,
                    "duration": 0.3204099999999954
                },
                {
                    "name": "C#3",
                    "midi": 49,
                    "time": 117.59046999999946,
                    "velocity": 0.14173228346456693,
                    "duration": 0.3204099999999954
                },
                {
                    "name": "F#3",
                    "midi": 54,
                    "time": 117.59046999999946,
                    "velocity": 0.14173228346456693,
                    "duration": 0.3204099999999954
                },
                {
                    "name": "C#3",
                    "midi": 49,
                    "time": 117.91087999999945,
                    "velocity": 0.11811023622047244,
                    "duration": 0.3204099999999954
                },
                {
                    "name": "F#3",
                    "midi": 54,
                    "time": 117.91087999999945,
                    "velocity": 0.11811023622047244,
                    "duration": 0.3204099999999954
                },
                {
                    "name": "C#4",
                    "midi": 61,
                    "time": 117.91087999999945,
                    "velocity": 0.14173228346456693,
                    "duration": 0.3204099999999954
                },
                {
                    "name": "C#2",
                    "midi": 37,
                    "time": 118.23128999999945,
                    "velocity": 0.25984251968503935,
                    "duration": 0.3204099999999954
                },
                {
                    "name": "D#4",
                    "midi": 63,
                    "time": 118.55169999999944,
                    "velocity": 0.2125984251968504,
                    "duration": 0.3204099999999954
                },
                {
                    "name": "F#3",
                    "midi": 54,
                    "time": 118.55169999999944,
                    "velocity": 0.18110236220472442,
                    "duration": 0.3204099999999954
                },
                {
                    "name": "C#3",
                    "midi": 49,
                    "time": 118.55169999999944,
                    "velocity": 0.18110236220472442,
                    "duration": 0.3204099999999954
                },
                {
                    "name": "C#3",
                    "midi": 49,
                    "time": 118.87210999999944,
                    "velocity": 0.14173228346456693,
                    "duration": 0.3204099999999954
                },
                {
                    "name": "F#3",
                    "midi": 54,
                    "time": 118.87210999999944,
                    "velocity": 0.14173228346456693,
                    "duration": 0.3204099999999954
                },
                {
                    "name": "C#4",
                    "midi": 61,
                    "time": 118.87210999999944,
                    "velocity": 0.18110236220472442,
                    "duration": 0.3204099999999954
                },
                {
                    "name": "F#2",
                    "midi": 42,
                    "time": 119.19251999999943,
                    "velocity": 0.2677165354330709,
                    "duration": 0.3204099999999954
                },
                {
                    "name": "D#4",
                    "midi": 63,
                    "time": 119.51292999999943,
                    "velocity": 0.1889763779527559,
                    "duration": 0.3204099999999954
                },
                {
                    "name": "C#3",
                    "midi": 49,
                    "time": 119.51292999999943,
                    "velocity": 0.15748031496062992,
                    "duration": 0.3204099999999954
                },
                {
                    "name": "F#3",
                    "midi": 54,
                    "time": 119.51292999999943,
                    "velocity": 0.15748031496062992,
                    "duration": 0.3204099999999954
                },
                {
                    "name": "C#3",
                    "midi": 49,
                    "time": 119.83333999999942,
                    "velocity": 0.13385826771653545,
                    "duration": 0.3204099999999954
                },
                {
                    "name": "F#3",
                    "midi": 54,
                    "time": 119.83333999999942,
                    "velocity": 0.13385826771653545,
                    "duration": 0.3204099999999954
                },
                {
                    "name": "C#4",
                    "midi": 61,
                    "time": 119.83333999999942,
                    "velocity": 0.1732283464566929,
                    "duration": 0.3204099999999954
                },
                {
                    "name": "C#3",
                    "midi": 49,
                    "time": 120.15374999999942,
                    "velocity": 0.09448818897637795,
                    "duration": 0.3204099999999954
                },
                {
                    "name": "F#3",
                    "midi": 54,
                    "time": 120.15374999999942,
                    "velocity": 0.09448818897637795,
                    "duration": 0.3204099999999954
                },
                {
                    "name": "C#4",
                    "midi": 61,
                    "time": 120.15374999999942,
                    "velocity": 0.16535433070866143,
                    "duration": 0.3204099999999954
                },
                {
                    "name": "C#3",
                    "midi": 49,
                    "time": 120.47415999999942,
                    "velocity": 0.14173228346456693,
                    "duration": 0.3204099999999954
                },
                {
                    "name": "F#3",
                    "midi": 54,
                    "time": 120.47415999999942,
                    "velocity": 0.14173228346456693,
                    "duration": 0.3204099999999954
                },
                {
                    "name": "B3",
                    "midi": 59,
                    "time": 120.47415999999942,
                    "velocity": 0.18110236220472442,
                    "duration": 0.3204099999999954
                },
                {
                    "name": "C#3",
                    "midi": 49,
                    "time": 120.79456999999941,
                    "velocity": 0.10236220472440945,
                    "duration": 0.3204099999999954
                },
                {
                    "name": "F#3",
                    "midi": 54,
                    "time": 120.79456999999941,
                    "velocity": 0.11811023622047244,
                    "duration": 0.3204099999999954
                },
                {
                    "name": "A#3",
                    "midi": 58,
                    "time": 120.79456999999941,
                    "velocity": 0.1732283464566929,
                    "duration": 0.3204099999999954
                },
                {
                    "name": "C#3",
                    "midi": 49,
                    "time": 121.1149799999994,
                    "velocity": 0.15748031496062992,
                    "duration": 0.3204099999999954
                },
                {
                    "name": "F#3",
                    "midi": 54,
                    "time": 121.1149799999994,
                    "velocity": 0.15748031496062992,
                    "duration": 0.3204099999999954
                },
                {
                    "name": "A#3",
                    "midi": 58,
                    "time": 121.1149799999994,
                    "velocity": 0.1889763779527559,
                    "duration": 0.3204099999999954
                },
                {
                    "name": "B2",
                    "midi": 47,
                    "time": 121.4353899999994,
                    "velocity": 0.15748031496062992,
                    "duration": 0.3204099999999954
                },
                {
                    "name": "C#3",
                    "midi": 49,
                    "time": 121.4353899999994,
                    "velocity": 0.1889763779527559,
                    "duration": 0.3204099999999954
                },
                {
                    "name": "A#2",
                    "midi": 46,
                    "time": 121.7557999999994,
                    "velocity": 0.14173228346456693,
                    "duration": 0.3204099999999954
                },
                {
                    "name": "C#3",
                    "midi": 49,
                    "time": 121.7557999999994,
                    "velocity": 0.1889763779527559,
                    "duration": 0.3204099999999954
                },
                {
                    "name": "A#2",
                    "midi": 46,
                    "time": 122.07620999999939,
                    "velocity": 0.14173228346456693,
                    "duration": 0.3204099999999954
                },
                {
                    "name": "C#3",
                    "midi": 49,
                    "time": 122.07620999999939,
                    "velocity": 0.1889763779527559,
                    "duration": 0.3204099999999954
                },
                {
                    "name": "B2",
                    "midi": 47,
                    "time": 122.39661999999939,
                    "velocity": 0.14173228346456693,
                    "duration": 0.3204099999999954
                },
                {
                    "name": "C#3",
                    "midi": 49,
                    "time": 122.39661999999939,
                    "velocity": 0.18110236220472442,
                    "duration": 0.3204099999999954
                },
                {
                    "name": "A#2",
                    "midi": 46,
                    "time": 122.71702999999938,
                    "velocity": 0.14173228346456693,
                    "duration": 0.3204099999999954
                },
                {
                    "name": "C#3",
                    "midi": 49,
                    "time": 122.71702999999938,
                    "velocity": 0.18110236220472442,
                    "duration": 0.3204099999999954
                },
                {
                    "name": "A#2",
                    "midi": 46,
                    "time": 123.03743999999938,
                    "velocity": 0.13385826771653545,
                    "duration": 0.3204099999999954
                },
                {
                    "name": "C#3",
                    "midi": 49,
                    "time": 123.03743999999938,
                    "velocity": 0.18110236220472442,
                    "duration": 0.3204099999999954
                },
                {
                    "name": "G#2",
                    "midi": 44,
                    "time": 123.35784999999937,
                    "velocity": 0.13385826771653545,
                    "duration": 0.3204099999999954
                },
                {
                    "name": "C#3",
                    "midi": 49,
                    "time": 123.35784999999937,
                    "velocity": 0.1732283464566929,
                    "duration": 0.3204099999999954
                },
                {
                    "name": "F#2",
                    "midi": 42,
                    "time": 123.67825999999937,
                    "velocity": 0.13385826771653545,
                    "duration": 0.3204099999999954
                },
                {
                    "name": "C#3",
                    "midi": 49,
                    "time": 123.67825999999937,
                    "velocity": 0.1732283464566929,
                    "duration": 0.3204099999999954
                },
                {
                    "name": "G#2",
                    "midi": 44,
                    "time": 123.99866999999936,
                    "velocity": 0.2440944881889764,
                    "duration": 0.3204099999999954
                },
                {
                    "name": "E4",
                    "midi": 64,
                    "time": 124.31907999999936,
                    "velocity": 0.2047244094488189,
                    "duration": 0.3204099999999954
                },
                {
                    "name": "G#3",
                    "midi": 56,
                    "time": 124.31907999999936,
                    "velocity": 0.1732283464566929,
                    "duration": 0.3204099999999954
                },
                {
                    "name": "D#3",
                    "midi": 51,
                    "time": 124.31907999999936,
                    "velocity": 0.1732283464566929,
                    "duration": 0.3204099999999954
                },
                {
                    "name": "D#3",
                    "midi": 51,
                    "time": 124.63948999999936,
                    "velocity": 0.13385826771653545,
                    "duration": 0.3204099999999954
                },
                {
                    "name": "G#3",
                    "midi": 56,
                    "time": 124.63948999999936,
                    "velocity": 0.13385826771653545,
                    "duration": 0.3204099999999954
                },
                {
                    "name": "D#4",
                    "midi": 63,
                    "time": 124.63948999999936,
                    "velocity": 0.1732283464566929,
                    "duration": 0.3204099999999954
                },
                {
                    "name": "G#2",
                    "midi": 44,
                    "time": 124.95989999999935,
                    "velocity": 0.2992125984251969,
                    "duration": 0.32041000000000963
                },
                {
                    "name": "E4",
                    "midi": 64,
                    "time": 125.28030999999936,
                    "velocity": 0.1889763779527559,
                    "duration": 0.3204099999999954
                },
                {
                    "name": "D#3",
                    "midi": 51,
                    "time": 125.28030999999936,
                    "velocity": 0.14173228346456693,
                    "duration": 0.3204099999999954
                },
                {
                    "name": "G#3",
                    "midi": 56,
                    "time": 125.28030999999936,
                    "velocity": 0.14173228346456693,
                    "duration": 0.3204099999999954
                },
                {
                    "name": "D#3",
                    "midi": 51,
                    "time": 125.60071999999936,
                    "velocity": 0.13385826771653545,
                    "duration": 0.3204099999999954
                },
                {
                    "name": "G#3",
                    "midi": 56,
                    "time": 125.60071999999936,
                    "velocity": 0.13385826771653545,
                    "duration": 0.3204099999999954
                },
                {
                    "name": "D#4",
                    "midi": 63,
                    "time": 125.60071999999936,
                    "velocity": 0.16535433070866143,
                    "duration": 0.3204099999999954
                },
                {
                    "name": "D#2",
                    "midi": 39,
                    "time": 125.92112999999935,
                    "velocity": 0.25984251968503935,
                    "duration": 0.3204099999999954
                },
                {
                    "name": "E4",
                    "midi": 64,
                    "time": 126.24153999999935,
                    "velocity": 0.1732283464566929,
                    "duration": 0.3204099999999954
                },
                {
                    "name": "A#3",
                    "midi": 58,
                    "time": 126.24153999999935,
                    "velocity": 0.13385826771653545,
                    "duration": 0.3204099999999954
                },
                {
                    "name": "D#3",
                    "midi": 51,
                    "time": 126.24153999999935,
                    "velocity": 0.13385826771653545,
                    "duration": 0.3204099999999954
                },
                {
                    "name": "D#3",
                    "midi": 51,
                    "time": 126.56194999999934,
                    "velocity": 0.11023622047244094,
                    "duration": 0.3204099999999954
                },
                {
                    "name": "A#3",
                    "midi": 58,
                    "time": 126.56194999999934,
                    "velocity": 0.11023622047244094,
                    "duration": 0.3204099999999954
                },
                {
                    "name": "D#4",
                    "midi": 63,
                    "time": 126.56194999999934,
                    "velocity": 0.13385826771653545,
                    "duration": 0.3204099999999954
                },
                {
                    "name": "G#2",
                    "midi": 44,
                    "time": 126.88235999999934,
                    "velocity": 0.2677165354330709,
                    "duration": 0.3204099999999954
                },
                {
                    "name": "E4",
                    "midi": 64,
                    "time": 127.20276999999933,
                    "velocity": 0.1968503937007874,
                    "duration": 0.3204099999999954
                },
                {
                    "name": "D#3",
                    "midi": 51,
                    "time": 127.20276999999933,
                    "velocity": 0.16535433070866143,
                    "duration": 0.3204099999999954
                },
                {
                    "name": "G#3",
                    "midi": 56,
                    "time": 127.20276999999933,
                    "velocity": 0.16535433070866143,
                    "duration": 0.3204099999999954
                },
                {
                    "name": "D#3",
                    "midi": 51,
                    "time": 127.52317999999933,
                    "velocity": 0.14173228346456693,
                    "duration": 0.3204099999999954
                },
                {
                    "name": "G#3",
                    "midi": 56,
                    "time": 127.52317999999933,
                    "velocity": 0.14173228346456693,
                    "duration": 0.3204099999999954
                },
                {
                    "name": "D#4",
                    "midi": 63,
                    "time": 127.52317999999933,
                    "velocity": 0.18110236220472442,
                    "duration": 0.3204099999999954
                },
                {
                    "name": "D#3",
                    "midi": 51,
                    "time": 127.84358999999932,
                    "velocity": 0.12598425196850394,
                    "duration": 0.3204099999999812
                },
                {
                    "name": "G#3",
                    "midi": 56,
                    "time": 127.84358999999932,
                    "velocity": 0.12598425196850394,
                    "duration": 0.3204099999999812
                },
                {
                    "name": "D#4",
                    "midi": 63,
                    "time": 127.84358999999932,
                    "velocity": 0.1968503937007874,
                    "duration": 0.31640487499998926
                },
                {
                    "name": "D#3",
                    "midi": 51,
                    "time": 128.1639999999993,
                    "velocity": 0.15748031496062992,
                    "duration": 0.32041000000000963
                },
                {
                    "name": "G#3",
                    "midi": 56,
                    "time": 128.1639999999993,
                    "velocity": 0.15748031496062992,
                    "duration": 0.32041000000000963
                },
                {
                    "name": "C#4",
                    "midi": 61,
                    "time": 128.1639999999993,
                    "velocity": 0.1889763779527559,
                    "duration": 0.32041000000000963
                },
                {
                    "name": "D#3",
                    "midi": 51,
                    "time": 128.48440999999931,
                    "velocity": 0.15748031496062992,
                    "duration": 0.32041000000000963
                },
                {
                    "name": "G#3",
                    "midi": 56,
                    "time": 128.48440999999931,
                    "velocity": 0.15748031496062992,
                    "duration": 0.32041000000000963
                },
                {
                    "name": "B3",
                    "midi": 59,
                    "time": 128.48440999999931,
                    "velocity": 0.1889763779527559,
                    "duration": 0.32041000000000963
                },
                {
                    "name": "D#3",
                    "midi": 51,
                    "time": 128.80481999999932,
                    "velocity": 0.16535433070866143,
                    "duration": 0.32041000000000963
                },
                {
                    "name": "G#3",
                    "midi": 56,
                    "time": 128.80481999999932,
                    "velocity": 0.16535433070866143,
                    "duration": 0.32041000000000963
                },
                {
                    "name": "B3",
                    "midi": 59,
                    "time": 128.80481999999932,
                    "velocity": 0.1968503937007874,
                    "duration": 0.32041000000000963
                },
                {
                    "name": "C#3",
                    "midi": 49,
                    "time": 129.12522999999933,
                    "velocity": 0.15748031496062992,
                    "duration": 0.32041000000000963
                },
                {
                    "name": "D#3",
                    "midi": 51,
                    "time": 129.12522999999933,
                    "velocity": 0.1889763779527559,
                    "duration": 0.32041000000000963
                },
                {
                    "name": "B2",
                    "midi": 47,
                    "time": 129.44563999999934,
                    "velocity": 0.15748031496062992,
                    "duration": 0.32041000000000963
                },
                {
                    "name": "D#3",
                    "midi": 51,
                    "time": 129.44563999999934,
                    "velocity": 0.1889763779527559,
                    "duration": 0.32041000000000963
                },
                {
                    "name": "B2",
                    "midi": 47,
                    "time": 129.76604999999935,
                    "velocity": 0.15748031496062992,
                    "duration": 0.32041000000000963
                },
                {
                    "name": "D#3",
                    "midi": 51,
                    "time": 129.76604999999935,
                    "velocity": 0.1889763779527559,
                    "duration": 0.32041000000000963
                },
                {
                    "name": "C#3",
                    "midi": 49,
                    "time": 130.08645999999936,
                    "velocity": 0.15748031496062992,
                    "duration": 0.32041000000000963
                },
                {
                    "name": "D#3",
                    "midi": 51,
                    "time": 130.08645999999936,
                    "velocity": 0.16535433070866143,
                    "duration": 0.32041000000000963
                },
                {
                    "name": "B2",
                    "midi": 47,
                    "time": 130.40686999999937,
                    "velocity": 0.14173228346456693,
                    "duration": 0.32041000000000963
                },
                {
                    "name": "D#3",
                    "midi": 51,
                    "time": 130.40686999999937,
                    "velocity": 0.18110236220472442,
                    "duration": 0.32041000000000963
                },
                {
                    "name": "B2",
                    "midi": 47,
                    "time": 130.72727999999938,
                    "velocity": 0.14173228346456693,
                    "duration": 0.32041000000000963
                },
                {
                    "name": "D#3",
                    "midi": 51,
                    "time": 130.72727999999938,
                    "velocity": 0.18110236220472442,
                    "duration": 0.32041000000000963
                },
                {
                    "name": "A#2",
                    "midi": 46,
                    "time": 131.0476899999994,
                    "velocity": 0.13385826771653545,
                    "duration": 0.32041000000000963
                },
                {
                    "name": "D#3",
                    "midi": 51,
                    "time": 131.0476899999994,
                    "velocity": 0.1732283464566929,
                    "duration": 0.32041000000000963
                },
                {
                    "name": "G#2",
                    "midi": 44,
                    "time": 131.3680999999994,
                    "velocity": 0.12598425196850394,
                    "duration": 0.32041000000000963
                },
                {
                    "name": "D#3",
                    "midi": 51,
                    "time": 131.3680999999994,
                    "velocity": 0.15748031496062992,
                    "duration": 0.32041000000000963
                },
                {
                    "name": "C#2",
                    "midi": 37,
                    "time": 131.6885099999994,
                    "velocity": 0.15748031496062992,
                    "duration": 0.32041000000000963
                },
                {
                    "name": "C#3",
                    "midi": 49,
                    "time": 132.32932999999943,
                    "velocity": 0.2125984251968504,
                    "duration": 0.24030750000000012
                },
                {
                    "name": "D3",
                    "midi": 50,
                    "time": 132.56963749999943,
                    "velocity": 0.2047244094488189,
                    "duration": 0.04005125000000476
                },
                {
                    "name": "D#3",
                    "midi": 51,
                    "time": 132.60968874999944,
                    "velocity": 0.2047244094488189,
                    "duration": 0.04005125000000476
                },
                {
                    "name": "F3",
                    "midi": 53,
                    "time": 132.64973999999944,
                    "velocity": 0.1968503937007874,
                    "duration": 0.05340166666664459
                },
                {
                    "name": "D#3",
                    "midi": 51,
                    "time": 132.70314166666608,
                    "velocity": 0.16535433070866143,
                    "duration": 0.05340166666667301
                },
                {
                    "name": "F3",
                    "midi": 53,
                    "time": 132.75654333333276,
                    "velocity": 0.1889763779527559,
                    "duration": 0.05340166666667301
                },
                {
                    "name": "D#3",
                    "midi": 51,
                    "time": 132.80994499999943,
                    "velocity": 0.1732283464566929,
                    "duration": 0.05340166666667301
                },
                {
                    "name": "F3",
                    "midi": 53,
                    "time": 132.8633466666661,
                    "velocity": 0.1889763779527559,
                    "duration": 0.05340166666667301
                },
                {
                    "name": "D#3",
                    "midi": 51,
                    "time": 132.91674833333278,
                    "velocity": 0.16535433070866143,
                    "duration": 0.05340166666667301
                },
                {
                    "name": "F3",
                    "midi": 53,
                    "time": 132.97014999999945,
                    "velocity": 0.1889763779527559,
                    "duration": 0.05340166666667301
                },
                {
                    "name": "D#3",
                    "midi": 51,
                    "time": 133.02355166666612,
                    "velocity": 0.16535433070866143,
                    "duration": 0.05340166666667301
                },
                {
                    "name": "F3",
                    "midi": 53,
                    "time": 133.0769533333328,
                    "velocity": 0.1889763779527559,
                    "duration": 0.05340166666667301
                },
                {
                    "name": "D#3",
                    "midi": 51,
                    "time": 133.13035499999947,
                    "velocity": 0.16535433070866143,
                    "duration": 0.05340166666667301
                },
                {
                    "name": "F3",
                    "midi": 53,
                    "time": 133.18375666666614,
                    "velocity": 0.1889763779527559,
                    "duration": 0.05340166666667301
                },
                {
                    "name": "D#3",
                    "midi": 51,
                    "time": 133.23715833333281,
                    "velocity": 0.16535433070866143,
                    "duration": 0.05340166666667301
                },
                {
                    "name": "F3",
                    "midi": 53,
                    "time": 133.2905599999995,
                    "velocity": 0.1889763779527559,
                    "duration": 0.08010250000000951
                },
                {
                    "name": "D#3",
                    "midi": 51,
                    "time": 133.3706624999995,
                    "velocity": 0.16535433070866143,
                    "duration": 0.08010250000000951
                },
                {
                    "name": "F3",
                    "midi": 53,
                    "time": 133.4507649999995,
                    "velocity": 0.1889763779527559,
                    "duration": 0.04005125000000476
                },
                {
                    "name": "D#3",
                    "midi": 51,
                    "time": 133.4908162499995,
                    "velocity": 0.15748031496062992,
                    "duration": 0.04005125000000476
                },
                {
                    "name": "C#3",
                    "midi": 49,
                    "time": 133.53086749999952,
                    "velocity": 0.1889763779527559,
                    "duration": 0.04005125000000476
                },
                {
                    "name": "D#3",
                    "midi": 51,
                    "time": 133.57091874999952,
                    "velocity": 0.14173228346456693,
                    "duration": 0.04005125000000476
                },
                {
                    "name": "F3",
                    "midi": 53,
                    "time": 133.61096999999953,
                    "velocity": 0.25196850393700787,
                    "duration": 0.3204099999999812
                },
                {
                    "name": "C#2",
                    "midi": 37,
                    "time": 133.9313799999995,
                    "velocity": 0.1968503937007874,
                    "duration": 0.3204099999999812
                },
                {
                    "name": "C#3",
                    "midi": 49,
                    "time": 134.2517899999995,
                    "velocity": 0.2125984251968504,
                    "duration": 0.24030750000000012
                },
                {
                    "name": "D3",
                    "midi": 50,
                    "time": 134.4920974999995,
                    "velocity": 0.2047244094488189,
                    "duration": 0.04005125000000476
                },
                {
                    "name": "D#3",
                    "midi": 51,
                    "time": 134.5321487499995,
                    "velocity": 0.2047244094488189,
                    "duration": 0.04005125000000476
                },
                {
                    "name": "F3",
                    "midi": 53,
                    "time": 134.5721999999995,
                    "velocity": 0.1968503937007874,
                    "duration": 0.05340166666667301
                },
                {
                    "name": "D#3",
                    "midi": 51,
                    "time": 134.62560166666617,
                    "velocity": 0.16535433070866143,
                    "duration": 0.05340166666667301
                },
                {
                    "name": "F3",
                    "midi": 53,
                    "time": 134.67900333333284,
                    "velocity": 0.1889763779527559,
                    "duration": 0.05340166666667301
                },
                {
                    "name": "D#3",
                    "midi": 51,
                    "time": 134.73240499999952,
                    "velocity": 0.1732283464566929,
                    "duration": 0.05340166666667301
                },
                {
                    "name": "F3",
                    "midi": 53,
                    "time": 134.7858066666662,
                    "velocity": 0.1889763779527559,
                    "duration": 0.05340166666667301
                },
                {
                    "name": "D#3",
                    "midi": 51,
                    "time": 134.83920833333286,
                    "velocity": 0.16535433070866143,
                    "duration": 0.05340166666667301
                },
                {
                    "name": "F3",
                    "midi": 53,
                    "time": 134.89260999999954,
                    "velocity": 0.1889763779527559,
                    "duration": 0.05340166666667301
                },
                {
                    "name": "D#3",
                    "midi": 51,
                    "time": 134.9460116666662,
                    "velocity": 0.16535433070866143,
                    "duration": 0.05340166666667301
                },
                {
                    "name": "F3",
                    "midi": 53,
                    "time": 134.99941333333288,
                    "velocity": 0.1889763779527559,
                    "duration": 0.05340166666667301
                },
                {
                    "name": "D#3",
                    "midi": 51,
                    "time": 135.05281499999955,
                    "velocity": 0.16535433070866143,
                    "duration": 0.05340166666667301
                },
                {
                    "name": "F3",
                    "midi": 53,
                    "time": 135.10621666666623,
                    "velocity": 0.1889763779527559,
                    "duration": 0.05340166666667301
                },
                {
                    "name": "D#3",
                    "midi": 51,
                    "time": 135.1596183333329,
                    "velocity": 0.16535433070866143,
                    "duration": 0.05340166666667301
                },
                {
                    "name": "F3",
                    "midi": 53,
                    "time": 135.21301999999957,
                    "velocity": 0.1889763779527559,
                    "duration": 0.08010250000000951
                },
                {
                    "name": "D#3",
                    "midi": 51,
                    "time": 135.29312249999958,
                    "velocity": 0.16535433070866143,
                    "duration": 0.08010250000000951
                },
                {
                    "name": "F3",
                    "midi": 53,
                    "time": 135.3732249999996,
                    "velocity": 0.1889763779527559,
                    "duration": 0.04005125000000476
                },
                {
                    "name": "D#3",
                    "midi": 51,
                    "time": 135.4132762499996,
                    "velocity": 0.15748031496062992,
                    "duration": 0.04005125000000476
                },
                {
                    "name": "C#3",
                    "midi": 49,
                    "time": 135.4533274999996,
                    "velocity": 0.1889763779527559,
                    "duration": 0.04005125000000476
                },
                {
                    "name": "D#3",
                    "midi": 51,
                    "time": 135.4933787499996,
                    "velocity": 0.14173228346456693,
                    "duration": 0.04005125000000476
                },
                {
                    "name": "F3",
                    "midi": 53,
                    "time": 135.5334299999996,
                    "velocity": 0.2677165354330709,
                    "duration": 0.32041000000000963
                },
                {
                    "name": "C#2",
                    "midi": 37,
                    "time": 135.85383999999962,
                    "velocity": 0.28346456692913385,
                    "duration": 0.32041000000000963
                },
                {
                    "name": "C#3",
                    "midi": 49,
                    "time": 136.17424999999963,
                    "velocity": 0.13385826771653545,
                    "duration": 0.32041000000000963
                },
                {
                    "name": "G#3",
                    "midi": 56,
                    "time": 136.17424999999963,
                    "velocity": 0.13385826771653545,
                    "duration": 0.32041000000000963
                },
                {
                    "name": "C#4",
                    "midi": 61,
                    "time": 136.17424999999963,
                    "velocity": 0.2047244094488189,
                    "duration": 0.32041000000000963
                },
                {
                    "name": "C#3",
                    "midi": 49,
                    "time": 136.49465999999964,
                    "velocity": 0.15748031496062992,
                    "duration": 0.32041000000000963
                },
                {
                    "name": "G#3",
                    "midi": 56,
                    "time": 136.49465999999964,
                    "velocity": 0.15748031496062992,
                    "duration": 0.32041000000000963
                },
                {
                    "name": "C#4",
                    "midi": 61,
                    "time": 136.49465999999964,
                    "velocity": 0.2204724409448819,
                    "duration": 0.32041000000000963
                },
                {
                    "name": "C#3",
                    "midi": 49,
                    "time": 136.81506999999965,
                    "velocity": 0.16535433070866143,
                    "duration": 0.32041000000000963
                },
                {
                    "name": "G#3",
                    "midi": 56,
                    "time": 136.81506999999965,
                    "velocity": 0.16535433070866143,
                    "duration": 0.32041000000000963
                },
                {
                    "name": "B3",
                    "midi": 59,
                    "time": 136.81506999999965,
                    "velocity": 0.25196850393700787,
                    "duration": 0.32041000000000963
                },
                {
                    "name": "C#3",
                    "midi": 49,
                    "time": 137.13547999999966,
                    "velocity": 0.16535433070866143,
                    "duration": 0.32041000000000963
                },
                {
                    "name": "G#3",
                    "midi": 56,
                    "time": 137.13547999999966,
                    "velocity": 0.16535433070866143,
                    "duration": 0.32041000000000963
                },
                {
                    "name": "B3",
                    "midi": 59,
                    "time": 137.13547999999966,
                    "velocity": 0.2755905511811024,
                    "duration": 0.32041000000000963
                },
                {
                    "name": "C#3",
                    "midi": 49,
                    "time": 137.45588999999967,
                    "velocity": 0.2047244094488189,
                    "duration": 0.32041000000000963
                },
                {
                    "name": "G#3",
                    "midi": 56,
                    "time": 137.45588999999967,
                    "velocity": 0.2047244094488189,
                    "duration": 0.32041000000000963
                },
                {
                    "name": "B3",
                    "midi": 59,
                    "time": 137.45588999999967,
                    "velocity": 0.29133858267716534,
                    "duration": 0.32041000000000963
                },
                {
                    "name": "C#3",
                    "midi": 49,
                    "time": 137.77629999999968,
                    "velocity": 0.16535433070866143,
                    "duration": 0.32041000000000963
                },
                {
                    "name": "G#3",
                    "midi": 56,
                    "time": 137.77629999999968,
                    "velocity": 0.16535433070866143,
                    "duration": 0.32041000000000963
                },
                {
                    "name": "B3",
                    "midi": 59,
                    "time": 137.77629999999968,
                    "velocity": 0.2440944881889764,
                    "duration": 0.3170723958333497
                },
                {
                    "name": "C#3",
                    "midi": 49,
                    "time": 138.0967099999997,
                    "velocity": 0.13385826771653545,
                    "duration": 0.32041000000000963
                },
                {
                    "name": "G#3",
                    "midi": 56,
                    "time": 138.0967099999997,
                    "velocity": 0.2047244094488189,
                    "duration": 0.32041000000000963
                },
                {
                    "name": "F#2",
                    "midi": 42,
                    "time": 138.4171199999997,
                    "velocity": 0.14173228346456693,
                    "duration": 0.32041000000000963
                },
                {
                    "name": "C#3",
                    "midi": 49,
                    "time": 138.4171199999997,
                    "velocity": 0.1968503937007874,
                    "duration": 0.32041000000000963
                },
                {
                    "name": "A#3",
                    "midi": 58,
                    "time": 138.7375299999997,
                    "velocity": 0.30708661417322836,
                    "duration": 0.1602049999999906
                },
                {
                    "name": "G#3",
                    "midi": 56,
                    "time": 138.8977349999997,
                    "velocity": 0.29133858267716534,
                    "duration": 0.1602049999999906
                },
                {
                    "name": "F#3",
                    "midi": 54,
                    "time": 139.0579399999997,
                    "velocity": 0.28346456692913385,
                    "duration": 0.1602049999999906
                },
                {
                    "name": "F3",
                    "midi": 53,
                    "time": 139.21814499999968,
                    "velocity": 0.2755905511811024,
                    "duration": 0.1602049999999906
                },
                {
                    "name": "F3",
                    "midi": 53,
                    "time": 139.37834999999967,
                    "velocity": 0.30708661417322836,
                    "duration": 0.1602049999999906
                },
                {
                    "name": "D#3",
                    "midi": 51,
                    "time": 139.53855499999966,
                    "velocity": 0.30708661417322836,
                    "duration": 0.1602049999999906
                },
                {
                    "name": "C#3",
                    "midi": 49,
                    "time": 139.69875999999965,
                    "velocity": 0.29133858267716534,
                    "duration": 0.1602049999999906
                },
                {
                    "name": "C3",
                    "midi": 48,
                    "time": 139.85896499999964,
                    "velocity": 0.28346456692913385,
                    "duration": 0.1602049999999906
                },
                {
                    "name": "A#2",
                    "midi": 46,
                    "time": 140.01916999999963,
                    "velocity": 0.2755905511811024,
                    "duration": 0.1602049999999906
                },
                {
                    "name": "G#2",
                    "midi": 44,
                    "time": 140.17937499999962,
                    "velocity": 0.2755905511811024,
                    "duration": 0.1602049999999906
                },
                {
                    "name": "C#2",
                    "midi": 37,
                    "time": 140.33957999999961,
                    "velocity": 0.2755905511811024,
                    "duration": 0.1602049999999906
                },
                {
                    "name": "A#3",
                    "midi": 58,
                    "time": 140.6599899999996,
                    "velocity": 0.33070866141732286,
                    "duration": 0.1602049999999906
                },
                {
                    "name": "G#3",
                    "midi": 56,
                    "time": 140.8201949999996,
                    "velocity": 0.29133858267716534,
                    "duration": 0.1602049999999906
                },
                {
                    "name": "F#3",
                    "midi": 54,
                    "time": 140.98039999999958,
                    "velocity": 0.28346456692913385,
                    "duration": 0.1602049999999906
                },
                {
                    "name": "F3",
                    "midi": 53,
                    "time": 141.14060499999957,
                    "velocity": 0.28346456692913385,
                    "duration": 0.1602049999999906
                },
                {
                    "name": "F3",
                    "midi": 53,
                    "time": 141.30080999999956,
                    "velocity": 0.30708661417322836,
                    "duration": 0.1602049999999906
                },
                {
                    "name": "D#3",
                    "midi": 51,
                    "time": 141.46101499999955,
                    "velocity": 0.30708661417322836,
                    "duration": 0.1602049999999906
                },
                {
                    "name": "C#3",
                    "midi": 49,
                    "time": 141.62121999999954,
                    "velocity": 0.29133858267716534,
                    "duration": 0.1602049999999906
                },
                {
                    "name": "C3",
                    "midi": 48,
                    "time": 141.78142499999953,
                    "velocity": 0.28346456692913385,
                    "duration": 0.1602049999999906
                },
                {
                    "name": "A#2",
                    "midi": 46,
                    "time": 141.94162999999952,
                    "velocity": 0.28346456692913385,
                    "duration": 0.1602049999999906
                },
                {
                    "name": "G#2",
                    "midi": 44,
                    "time": 142.1018349999995,
                    "velocity": 0.2755905511811024,
                    "duration": 0.1602049999999906
                },
                {
                    "name": "C#2",
                    "midi": 37,
                    "time": 142.2620399999995,
                    "velocity": 0.2755905511811024,
                    "duration": 0.1602049999999906
                },
                {
                    "name": "G#3",
                    "midi": 56,
                    "time": 142.58244999999948,
                    "velocity": 0.2755905511811024,
                    "duration": 0.1602049999999906
                },
                {
                    "name": "A#3",
                    "midi": 58,
                    "time": 142.74265499999947,
                    "velocity": 0.28346456692913385,
                    "duration": 0.1602049999999906
                },
                {
                    "name": "C4",
                    "midi": 60,
                    "time": 142.90285999999946,
                    "velocity": 0.29133858267716534,
                    "duration": 0.1602049999999906
                },
                {
                    "name": "C#4",
                    "midi": 61,
                    "time": 143.06306499999945,
                    "velocity": 0.3228346456692913,
                    "duration": 0.1602049999999906
                },
                {
                    "name": "C#4",
                    "midi": 61,
                    "time": 143.22326999999945,
                    "velocity": 0.3543307086614173,
                    "duration": 0.1602049999999906
                },
                {
                    "name": "C4",
                    "midi": 60,
                    "time": 143.38347499999944,
                    "velocity": 0.29133858267716534,
                    "duration": 0.1602049999999906
                },
                {
                    "name": "E3",
                    "midi": 52,
                    "time": 143.54367999999943,
                    "velocity": 0.3228346456692913,
                    "duration": 0.1602049999999906
                },
                {
                    "name": "F3",
                    "midi": 53,
                    "time": 143.70388499999942,
                    "velocity": 0.28346456692913385,
                    "duration": 0.1602049999999906
                },
                {
                    "name": "C#4",
                    "midi": 61,
                    "time": 143.8640899999994,
                    "velocity": 0.30708661417322836,
                    "duration": 0.1602049999999906
                },
                {
                    "name": "C4",
                    "midi": 60,
                    "time": 144.0242949999994,
                    "velocity": 0.2755905511811024,
                    "duration": 0.1602049999999906
                },
                {
                    "name": "A#3",
                    "midi": 58,
                    "time": 144.1844999999994,
                    "velocity": 0.30708661417322836,
                    "duration": 0.32041000000000963
                },
                {
                    "name": "A#2",
                    "midi": 46,
                    "time": 144.5049099999994,
                    "velocity": 0.3228346456692913,
                    "duration": 0.1602049999999906
                },
                {
                    "name": "F3",
                    "midi": 53,
                    "time": 144.6651149999994,
                    "velocity": 0.2755905511811024,
                    "duration": 0.1602049999999906
                },
                {
                    "name": "G#3",
                    "midi": 56,
                    "time": 144.82531999999938,
                    "velocity": 0.29133858267716534,
                    "duration": 0.1602049999999906
                },
                {
                    "name": "C4",
                    "midi": 60,
                    "time": 144.98552499999937,
                    "velocity": 0.2755905511811024,
                    "duration": 0.1602049999999906
                },
                {
                    "name": "C4",
                    "midi": 60,
                    "time": 145.14572999999936,
                    "velocity": 0.30708661417322836,
                    "duration": 0.1602049999999906
                },
                {
                    "name": "A#3",
                    "midi": 58,
                    "time": 145.30593499999935,
                    "velocity": 0.2755905511811024,
                    "duration": 0.1602049999999906
                },
                {
                    "name": "D3",
                    "midi": 50,
                    "time": 145.46613999999934,
                    "velocity": 0.28346456692913385,
                    "duration": 0.1602049999999906
                },
                {
                    "name": "D#3",
                    "midi": 51,
                    "time": 145.62634499999933,
                    "velocity": 0.2755905511811024,
                    "duration": 0.1602049999999906
                },
                {
                    "name": "C4",
                    "midi": 60,
                    "time": 145.78654999999932,
                    "velocity": 0.29133858267716534,
                    "duration": 0.1602049999999906
                },
                {
                    "name": "A#3",
                    "midi": 58,
                    "time": 145.9467549999993,
                    "velocity": 0.2755905511811024,
                    "duration": 0.1602049999999906
                },
                {
                    "name": "G#3",
                    "midi": 56,
                    "time": 146.1069599999993,
                    "velocity": 0.29133858267716534,
                    "duration": 0.32041000000000963
                },
                {
                    "name": "A#3",
                    "midi": 58,
                    "time": 146.4273699999993,
                    "velocity": 0.30708661417322836,
                    "duration": 0.1602049999999906
                },
                {
                    "name": "G#3",
                    "midi": 56,
                    "time": 146.5875749999993,
                    "velocity": 0.29133858267716534,
                    "duration": 0.1602049999999906
                },
                {
                    "name": "F#3",
                    "midi": 54,
                    "time": 146.7477799999993,
                    "velocity": 0.28346456692913385,
                    "duration": 0.1602049999999906
                },
                {
                    "name": "F3",
                    "midi": 53,
                    "time": 146.9079849999993,
                    "velocity": 0.2755905511811024,
                    "duration": 0.1602049999999906
                },
                {
                    "name": "F3",
                    "midi": 53,
                    "time": 147.06818999999928,
                    "velocity": 0.30708661417322836,
                    "duration": 0.1602049999999906
                },
                {
                    "name": "D#3",
                    "midi": 51,
                    "time": 147.22839499999927,
                    "velocity": 0.30708661417322836,
                    "duration": 0.1602049999999906
                },
                {
                    "name": "C#3",
                    "midi": 49,
                    "time": 147.38859999999926,
                    "velocity": 0.29133858267716534,
                    "duration": 0.1602049999999906
                },
                {
                    "name": "C3",
                    "midi": 48,
                    "time": 147.54880499999925,
                    "velocity": 0.28346456692913385,
                    "duration": 0.1602049999999906
                },
                {
                    "name": "A#2",
                    "midi": 46,
                    "time": 147.70900999999924,
                    "velocity": 0.2755905511811024,
                    "duration": 0.1602049999999906
                },
                {
                    "name": "G#2",
                    "midi": 44,
                    "time": 147.86921499999923,
                    "velocity": 0.2755905511811024,
                    "duration": 0.1602049999999906
                },
                {
                    "name": "C#2",
                    "midi": 37,
                    "time": 148.02941999999922,
                    "velocity": 0.2755905511811024,
                    "duration": 0.1602049999999906
                },
                {
                    "name": "A#3",
                    "midi": 58,
                    "time": 148.3498299999992,
                    "velocity": 0.33070866141732286,
                    "duration": 0.1602049999999906
                },
                {
                    "name": "G#3",
                    "midi": 56,
                    "time": 148.5100349999992,
                    "velocity": 0.29133858267716534,
                    "duration": 0.1602049999999906
                },
                {
                    "name": "F#3",
                    "midi": 54,
                    "time": 148.67023999999918,
                    "velocity": 0.28346456692913385,
                    "duration": 0.1602049999999906
                },
                {
                    "name": "F3",
                    "midi": 53,
                    "time": 148.83044499999917,
                    "velocity": 0.28346456692913385,
                    "duration": 0.1602049999999906
                },
                {
                    "name": "F3",
                    "midi": 53,
                    "time": 148.99064999999916,
                    "velocity": 0.30708661417322836,
                    "duration": 0.1602049999999906
                },
                {
                    "name": "D#3",
                    "midi": 51,
                    "time": 149.15085499999915,
                    "velocity": 0.30708661417322836,
                    "duration": 0.1602049999999906
                },
                {
                    "name": "C#3",
                    "midi": 49,
                    "time": 149.31105999999915,
                    "velocity": 0.29133858267716534,
                    "duration": 0.1602049999999906
                },
                {
                    "name": "C3",
                    "midi": 48,
                    "time": 149.47126499999914,
                    "velocity": 0.28346456692913385,
                    "duration": 0.1602049999999906
                },
                {
                    "name": "A#2",
                    "midi": 46,
                    "time": 149.63146999999913,
                    "velocity": 0.28346456692913385,
                    "duration": 0.1602049999999906
                },
                {
                    "name": "G#2",
                    "midi": 44,
                    "time": 149.79167499999912,
                    "velocity": 0.2755905511811024,
                    "duration": 0.1602049999999906
                },
                {
                    "name": "C#2",
                    "midi": 37,
                    "time": 149.9518799999991,
                    "velocity": 0.2755905511811024,
                    "duration": 0.1602049999999906
                },
                {
                    "name": "G#3",
                    "midi": 56,
                    "time": 150.2722899999991,
                    "velocity": 0.30708661417322836,
                    "duration": 0.1602049999999906
                },
                {
                    "name": "G3",
                    "midi": 55,
                    "time": 150.43249499999908,
                    "velocity": 0.28346456692913385,
                    "duration": 0.1602049999999906
                },
                {
                    "name": "A#3",
                    "midi": 58,
                    "time": 150.59269999999907,
                    "velocity": 0.30708661417322836,
                    "duration": 0.16020500000001903
                },
                {
                    "name": "G#3",
                    "midi": 56,
                    "time": 150.7529049999991,
                    "velocity": 0.2677165354330709,
                    "duration": 0.1602049999999906
                },
                {
                    "name": "B3",
                    "midi": 59,
                    "time": 150.91310999999908,
                    "velocity": 0.30708661417322836,
                    "duration": 0.32041000000000963
                },
                {
                    "name": "B2",
                    "midi": 47,
                    "time": 151.2335199999991,
                    "velocity": 0.33858267716535434,
                    "duration": 0.1602049999999906
                },
                {
                    "name": "F3",
                    "midi": 53,
                    "time": 151.39372499999908,
                    "velocity": 0.30708661417322836,
                    "duration": 0.1602049999999906
                },
                {
                    "name": "G#3",
                    "midi": 56,
                    "time": 151.55392999999907,
                    "velocity": 0.33858267716535434,
                    "duration": 0.1602049999999906
                },
                {
                    "name": "F#3",
                    "midi": 54,
                    "time": 151.71413499999906,
                    "velocity": 0.30708661417322836,
                    "duration": 0.1602049999999906
                },
                {
                    "name": "A#3",
                    "midi": 58,
                    "time": 151.87433999999905,
                    "velocity": 0.3543307086614173,
                    "duration": 0.32041000000000963
                },
                {
                    "name": "F#2",
                    "midi": 42,
                    "time": 152.19474999999906,
                    "velocity": 0.3228346456692913,
                    "duration": 0.1602049999999906
                },
                {
                    "name": "C#3",
                    "midi": 49,
                    "time": 152.35495499999905,
                    "velocity": 0.28346456692913385,
                    "duration": 0.1602049999999906
                },
                {
                    "name": "F#3",
                    "midi": 54,
                    "time": 152.51515999999904,
                    "velocity": 0.3228346456692913,
                    "duration": 0.1602049999999906
                },
                {
                    "name": "A#3",
                    "midi": 58,
                    "time": 152.67536499999903,
                    "velocity": 0.28346456692913385,
                    "duration": 0.1602049999999906
                },
                {
                    "name": "G#3",
                    "midi": 56,
                    "time": 152.83556999999902,
                    "velocity": 0.33858267716535434,
                    "duration": 0.3204099999999812
                },
                {
                    "name": "C#2",
                    "midi": 37,
                    "time": 153.155979999999,
                    "velocity": 0.30708661417322836,
                    "duration": 0.16020500000001903
                },
                {
                    "name": "G#2",
                    "midi": 44,
                    "time": 153.31618499999902,
                    "velocity": 0.2755905511811024,
                    "duration": 0.1602049999999906
                },
                {
                    "name": "C#3",
                    "midi": 49,
                    "time": 153.47638999999901,
                    "velocity": 0.30708661417322836,
                    "duration": 0.1602049999999906
                },
                {
                    "name": "G#3",
                    "midi": 56,
                    "time": 153.636594999999,
                    "velocity": 0.28346456692913385,
                    "duration": 0.1602049999999906
                },
                {
                    "name": "C#4",
                    "midi": 61,
                    "time": 153.796799999999,
                    "velocity": 0.30708661417322836,
                    "duration": 0.1602049999999906
                },
                {
                    "name": "C4",
                    "midi": 60,
                    "time": 153.957004999999,
                    "velocity": 0.2677165354330709,
                    "duration": 0.1602049999999906
                },
                {
                    "name": "B3",
                    "midi": 59,
                    "time": 154.11720999999898,
                    "velocity": 0.2755905511811024,
                    "duration": 0.1602049999999906
                },
                {
                    "name": "A#3",
                    "midi": 58,
                    "time": 154.27741499999897,
                    "velocity": 0.2677165354330709,
                    "duration": 0.1602049999999906
                },
                {
                    "name": "B3",
                    "midi": 59,
                    "time": 154.43761999999896,
                    "velocity": 0.3228346456692913,
                    "duration": 0.1602049999999906
                },
                {
                    "name": "C#3",
                    "midi": 49,
                    "time": 154.59782499999895,
                    "velocity": 0.2755905511811024,
                    "duration": 0.1602049999999906
                },
                {
                    "name": "F#2",
                    "midi": 42,
                    "time": 154.75802999999894,
                    "velocity": 0.29133858267716534,
                    "duration": 0.32041000000000963
                },
                {
                    "name": "D#4",
                    "midi": 63,
                    "time": 155.07843999999895,
                    "velocity": 0.1968503937007874,
                    "duration": 0.32041000000000963
                },
                {
                    "name": "F#3",
                    "midi": 54,
                    "time": 155.07843999999895,
                    "velocity": 0.16535433070866143,
                    "duration": 0.32041000000000963
                },
                {
                    "name": "C#3",
                    "midi": 49,
                    "time": 155.07843999999895,
                    "velocity": 0.16535433070866143,
                    "duration": 0.32041000000000963
                },
                {
                    "name": "C#3",
                    "midi": 49,
                    "time": 155.39884999999896,
                    "velocity": 0.14173228346456693,
                    "duration": 0.32041000000000963
                },
                {
                    "name": "F#3",
                    "midi": 54,
                    "time": 155.39884999999896,
                    "velocity": 0.14173228346456693,
                    "duration": 0.32041000000000963
                },
                {
                    "name": "C#4",
                    "midi": 61,
                    "time": 155.39884999999896,
                    "velocity": 0.18110236220472442,
                    "duration": 0.32041000000000963
                },
                {
                    "name": "F#2",
                    "midi": 42,
                    "time": 155.71925999999897,
                    "velocity": 0.2677165354330709,
                    "duration": 0.32041000000000963
                },
                {
                    "name": "D#4",
                    "midi": 63,
                    "time": 156.03966999999898,
                    "velocity": 0.18110236220472442,
                    "duration": 0.32041000000000963
                },
                {
                    "name": "C#3",
                    "midi": 49,
                    "time": 156.03966999999898,
                    "velocity": 0.14173228346456693,
                    "duration": 0.32041000000000963
                },
                {
                    "name": "F#3",
                    "midi": 54,
                    "time": 156.03966999999898,
                    "velocity": 0.14173228346456693,
                    "duration": 0.32041000000000963
                },
                {
                    "name": "C#3",
                    "midi": 49,
                    "time": 156.360079999999,
                    "velocity": 0.11811023622047244,
                    "duration": 0.32041000000000963
                },
                {
                    "name": "F#3",
                    "midi": 54,
                    "time": 156.360079999999,
                    "velocity": 0.11811023622047244,
                    "duration": 0.32041000000000963
                },
                {
                    "name": "C#4",
                    "midi": 61,
                    "time": 156.360079999999,
                    "velocity": 0.14173228346456693,
                    "duration": 0.32041000000000963
                },
                {
                    "name": "C#2",
                    "midi": 37,
                    "time": 156.680489999999,
                    "velocity": 0.25984251968503935,
                    "duration": 0.32041000000000963
                },
                {
                    "name": "D#4",
                    "midi": 63,
                    "time": 157.000899999999,
                    "velocity": 0.2125984251968504,
                    "duration": 0.32041000000000963
                },
                {
                    "name": "F#3",
                    "midi": 54,
                    "time": 157.000899999999,
                    "velocity": 0.18110236220472442,
                    "duration": 0.32041000000000963
                },
                {
                    "name": "C#3",
                    "midi": 49,
                    "time": 157.000899999999,
                    "velocity": 0.18110236220472442,
                    "duration": 0.32041000000000963
                },
                {
                    "name": "C#3",
                    "midi": 49,
                    "time": 157.32130999999902,
                    "velocity": 0.14173228346456693,
                    "duration": 0.32041000000000963
                },
                {
                    "name": "F#3",
                    "midi": 54,
                    "time": 157.32130999999902,
                    "velocity": 0.14173228346456693,
                    "duration": 0.32041000000000963
                },
                {
                    "name": "C#4",
                    "midi": 61,
                    "time": 157.32130999999902,
                    "velocity": 0.18110236220472442,
                    "duration": 0.32041000000000963
                },
                {
                    "name": "F#2",
                    "midi": 42,
                    "time": 157.64171999999903,
                    "velocity": 0.2677165354330709,
                    "duration": 0.3204099999999812
                },
                {
                    "name": "D#4",
                    "midi": 63,
                    "time": 157.962129999999,
                    "velocity": 0.1889763779527559,
                    "duration": 0.32041000000000963
                },
                {
                    "name": "C#3",
                    "midi": 49,
                    "time": 157.962129999999,
                    "velocity": 0.15748031496062992,
                    "duration": 0.32041000000000963
                },
                {
                    "name": "F#3",
                    "midi": 54,
                    "time": 157.962129999999,
                    "velocity": 0.15748031496062992,
                    "duration": 0.32041000000000963
                },
                {
                    "name": "C#3",
                    "midi": 49,
                    "time": 158.28253999999902,
                    "velocity": 0.13385826771653545,
                    "duration": 0.32041000000000963
                },
                {
                    "name": "F#3",
                    "midi": 54,
                    "time": 158.28253999999902,
                    "velocity": 0.13385826771653545,
                    "duration": 0.32041000000000963
                },
                {
                    "name": "C#4",
                    "midi": 61,
                    "time": 158.28253999999902,
                    "velocity": 0.1732283464566929,
                    "duration": 0.32041000000000963
                },
                {
                    "name": "C#3",
                    "midi": 49,
                    "time": 158.60294999999903,
                    "velocity": 0.09448818897637795,
                    "duration": 0.32041000000000963
                },
                {
                    "name": "F#3",
                    "midi": 54,
                    "time": 158.60294999999903,
                    "velocity": 0.11811023622047244,
                    "duration": 0.32041000000000963
                },
                {
                    "name": "C#4",
                    "midi": 61,
                    "time": 158.60294999999903,
                    "velocity": 0.1732283464566929,
                    "duration": 0.32041000000000963
                },
                {
                    "name": "C#3",
                    "midi": 49,
                    "time": 158.92335999999904,
                    "velocity": 0.14173228346456693,
                    "duration": 0.32041000000000963
                },
                {
                    "name": "F#3",
                    "midi": 54,
                    "time": 158.92335999999904,
                    "velocity": 0.14173228346456693,
                    "duration": 0.32041000000000963
                },
                {
                    "name": "B3",
                    "midi": 59,
                    "time": 158.92335999999904,
                    "velocity": 0.18110236220472442,
                    "duration": 0.32041000000000963
                },
                {
                    "name": "C#3",
                    "midi": 49,
                    "time": 159.24376999999905,
                    "velocity": 0.09448818897637795,
                    "duration": 0.32041000000000963
                },
                {
                    "name": "F#3",
                    "midi": 54,
                    "time": 159.24376999999905,
                    "velocity": 0.11811023622047244,
                    "duration": 0.32041000000000963
                },
                {
                    "name": "A#3",
                    "midi": 58,
                    "time": 159.24376999999905,
                    "velocity": 0.16535433070866143,
                    "duration": 0.32041000000000963
                },
                {
                    "name": "C#3",
                    "midi": 49,
                    "time": 159.56417999999906,
                    "velocity": 0.10236220472440945,
                    "duration": 0.32041000000000963
                },
                {
                    "name": "F#3",
                    "midi": 54,
                    "time": 159.56417999999906,
                    "velocity": 0.12598425196850394,
                    "duration": 0.32041000000000963
                },
                {
                    "name": "A#3",
                    "midi": 58,
                    "time": 159.56417999999906,
                    "velocity": 0.16535433070866143,
                    "duration": 0.32041000000000963
                },
                {
                    "name": "B2",
                    "midi": 47,
                    "time": 159.88458999999906,
                    "velocity": 0.15748031496062992,
                    "duration": 0.32041000000000963
                },
                {
                    "name": "C#3",
                    "midi": 49,
                    "time": 159.88458999999906,
                    "velocity": 0.1889763779527559,
                    "duration": 0.32041000000000963
                },
                {
                    "name": "A#2",
                    "midi": 46,
                    "time": 160.20499999999907,
                    "velocity": 0.15748031496062992,
                    "duration": 0.32041000000000963
                },
                {
                    "name": "C#3",
                    "midi": 49,
                    "time": 160.20499999999907,
                    "velocity": 0.1889763779527559,
                    "duration": 0.32041000000000963
                },
                {
                    "name": "A#2",
                    "midi": 46,
                    "time": 160.52540999999908,
                    "velocity": 0.15748031496062992,
                    "duration": 0.32041000000000963
                },
                {
                    "name": "C#3",
                    "midi": 49,
                    "time": 160.52540999999908,
                    "velocity": 0.1889763779527559,
                    "duration": 0.32041000000000963
                },
                {
                    "name": "B2",
                    "midi": 47,
                    "time": 160.8458199999991,
                    "velocity": 0.15748031496062992,
                    "duration": 0.32041000000000963
                },
                {
                    "name": "C#3",
                    "midi": 49,
                    "time": 160.8458199999991,
                    "velocity": 0.1889763779527559,
                    "duration": 0.32041000000000963
                },
                {
                    "name": "A#2",
                    "midi": 46,
                    "time": 161.1662299999991,
                    "velocity": 0.15748031496062992,
                    "duration": 0.32041000000000963
                },
                {
                    "name": "C#3",
                    "midi": 49,
                    "time": 161.1662299999991,
                    "velocity": 0.1889763779527559,
                    "duration": 0.32041000000000963
                },
                {
                    "name": "A#2",
                    "midi": 46,
                    "time": 161.4866399999991,
                    "velocity": 0.15748031496062992,
                    "duration": 0.32041000000000963
                },
                {
                    "name": "C#3",
                    "midi": 49,
                    "time": 161.4866399999991,
                    "velocity": 0.1889763779527559,
                    "duration": 0.32041000000000963
                },
                {
                    "name": "B2",
                    "midi": 47,
                    "time": 161.80704999999912,
                    "velocity": 0.15748031496062992,
                    "duration": 0.32041000000000963
                },
                {
                    "name": "C#3",
                    "midi": 49,
                    "time": 161.80704999999912,
                    "velocity": 0.1889763779527559,
                    "duration": 0.32041000000000963
                },
                {
                    "name": "A#2",
                    "midi": 46,
                    "time": 162.12745999999913,
                    "velocity": 0.15748031496062992,
                    "duration": 0.32041000000000963
                },
                {
                    "name": "C#3",
                    "midi": 49,
                    "time": 162.12745999999913,
                    "velocity": 0.1889763779527559,
                    "duration": 0.32041000000000963
                },
                {
                    "name": "G#2",
                    "midi": 44,
                    "time": 162.44786999999914,
                    "velocity": 0.2440944881889764,
                    "duration": 0.3204099999999812
                },
                {
                    "name": "E4",
                    "midi": 64,
                    "time": 162.76827999999912,
                    "velocity": 0.2047244094488189,
                    "duration": 0.32041000000000963
                },
                {
                    "name": "G#3",
                    "midi": 56,
                    "time": 162.76827999999912,
                    "velocity": 0.1732283464566929,
                    "duration": 0.32041000000000963
                },
                {
                    "name": "D#3",
                    "midi": 51,
                    "time": 162.76827999999912,
                    "velocity": 0.1732283464566929,
                    "duration": 0.32041000000000963
                },
                {
                    "name": "D#3",
                    "midi": 51,
                    "time": 163.08868999999913,
                    "velocity": 0.13385826771653545,
                    "duration": 0.32041000000000963
                },
                {
                    "name": "G#3",
                    "midi": 56,
                    "time": 163.08868999999913,
                    "velocity": 0.13385826771653545,
                    "duration": 0.32041000000000963
                },
                {
                    "name": "D#4",
                    "midi": 63,
                    "time": 163.08868999999913,
                    "velocity": 0.1732283464566929,
                    "duration": 0.32041000000000963
                },
                {
                    "name": "G#2",
                    "midi": 44,
                    "time": 163.40909999999914,
                    "velocity": 0.2992125984251969,
                    "duration": 0.32041000000000963
                },
                {
                    "name": "E4",
                    "midi": 64,
                    "time": 163.72950999999915,
                    "velocity": 0.1889763779527559,
                    "duration": 0.32041000000000963
                },
                {
                    "name": "D#3",
                    "midi": 51,
                    "time": 163.72950999999915,
                    "velocity": 0.14173228346456693,
                    "duration": 0.32041000000000963
                },
                {
                    "name": "G#3",
                    "midi": 56,
                    "time": 163.72950999999915,
                    "velocity": 0.14173228346456693,
                    "duration": 0.32041000000000963
                },
                {
                    "name": "D#3",
                    "midi": 51,
                    "time": 164.04991999999916,
                    "velocity": 0.13385826771653545,
                    "duration": 0.32041000000000963
                },
                {
                    "name": "G#3",
                    "midi": 56,
                    "time": 164.04991999999916,
                    "velocity": 0.13385826771653545,
                    "duration": 0.32041000000000963
                },
                {
                    "name": "D#4",
                    "midi": 63,
                    "time": 164.04991999999916,
                    "velocity": 0.16535433070866143,
                    "duration": 0.32041000000000963
                },
                {
                    "name": "D#2",
                    "midi": 39,
                    "time": 164.37032999999917,
                    "velocity": 0.25984251968503935,
                    "duration": 0.32041000000000963
                },
                {
                    "name": "E4",
                    "midi": 64,
                    "time": 164.69073999999918,
                    "velocity": 0.1968503937007874,
                    "duration": 0.32041000000000963
                },
                {
                    "name": "A#3",
                    "midi": 58,
                    "time": 164.69073999999918,
                    "velocity": 0.16535433070866143,
                    "duration": 0.32041000000000963
                },
                {
                    "name": "D#3",
                    "midi": 51,
                    "time": 164.69073999999918,
                    "velocity": 0.16535433070866143,
                    "duration": 0.32041000000000963
                },
                {
                    "name": "D#3",
                    "midi": 51,
                    "time": 165.0111499999992,
                    "velocity": 0.12598425196850394,
                    "duration": 0.32041000000000963
                },
                {
                    "name": "A#3",
                    "midi": 58,
                    "time": 165.0111499999992,
                    "velocity": 0.12598425196850394,
                    "duration": 0.32041000000000963
                },
                {
                    "name": "D#4",
                    "midi": 63,
                    "time": 165.0111499999992,
                    "velocity": 0.16535433070866143,
                    "duration": 0.32041000000000963
                },
                {
                    "name": "G#2",
                    "midi": 44,
                    "time": 165.3315599999992,
                    "velocity": 0.2677165354330709,
                    "duration": 0.3204099999999812
                },
                {
                    "name": "E4",
                    "midi": 64,
                    "time": 165.65196999999918,
                    "velocity": 0.1968503937007874,
                    "duration": 0.32041000000000963
                },
                {
                    "name": "D#3",
                    "midi": 51,
                    "time": 165.65196999999918,
                    "velocity": 0.16535433070866143,
                    "duration": 0.32041000000000963
                },
                {
                    "name": "G#3",
                    "midi": 56,
                    "time": 165.65196999999918,
                    "velocity": 0.16535433070866143,
                    "duration": 0.32041000000000963
                },
                {
                    "name": "D#3",
                    "midi": 51,
                    "time": 165.9723799999992,
                    "velocity": 0.14173228346456693,
                    "duration": 0.32041000000000963
                },
                {
                    "name": "G#3",
                    "midi": 56,
                    "time": 165.9723799999992,
                    "velocity": 0.14173228346456693,
                    "duration": 0.32041000000000963
                },
                {
                    "name": "D#4",
                    "midi": 63,
                    "time": 165.9723799999992,
                    "velocity": 0.18110236220472442,
                    "duration": 0.32041000000000963
                },
                {
                    "name": "D#3",
                    "midi": 51,
                    "time": 166.2927899999992,
                    "velocity": 0.12598425196850394,
                    "duration": 0.32041000000000963
                },
                {
                    "name": "G#3",
                    "midi": 56,
                    "time": 166.2927899999992,
                    "velocity": 0.12598425196850394,
                    "duration": 0.32041000000000963
                },
                {
                    "name": "D#4",
                    "midi": 63,
                    "time": 166.2927899999992,
                    "velocity": 0.1968503937007874,
                    "duration": 0.32041000000000963
                },
                {
                    "name": "D#3",
                    "midi": 51,
                    "time": 166.6131999999992,
                    "velocity": 0.15748031496062992,
                    "duration": 0.32041000000000963
                },
                {
                    "name": "G#3",
                    "midi": 56,
                    "time": 166.6131999999992,
                    "velocity": 0.15748031496062992,
                    "duration": 0.32041000000000963
                },
                {
                    "name": "C#4",
                    "midi": 61,
                    "time": 166.6131999999992,
                    "velocity": 0.1889763779527559,
                    "duration": 0.32041000000000963
                },
                {
                    "name": "D#3",
                    "midi": 51,
                    "time": 166.93360999999922,
                    "velocity": 0.15748031496062992,
                    "duration": 0.32041000000000963
                },
                {
                    "name": "G#3",
                    "midi": 56,
                    "time": 166.93360999999922,
                    "velocity": 0.15748031496062992,
                    "duration": 0.32041000000000963
                },
                {
                    "name": "B3",
                    "midi": 59,
                    "time": 166.93360999999922,
                    "velocity": 0.1889763779527559,
                    "duration": 0.32041000000000963
                },
                {
                    "name": "D#3",
                    "midi": 51,
                    "time": 167.25401999999923,
                    "velocity": 0.16535433070866143,
                    "duration": 0.32041000000000963
                },
                {
                    "name": "G#3",
                    "midi": 56,
                    "time": 167.25401999999923,
                    "velocity": 0.16535433070866143,
                    "duration": 0.32041000000000963
                },
                {
                    "name": "B3",
                    "midi": 59,
                    "time": 167.25401999999923,
                    "velocity": 0.1968503937007874,
                    "duration": 0.32041000000000963
                },
                {
                    "name": "C#3",
                    "midi": 49,
                    "time": 167.57442999999924,
                    "velocity": 0.1732283464566929,
                    "duration": 0.32041000000000963
                },
                {
                    "name": "D#3",
                    "midi": 51,
                    "time": 167.57442999999924,
                    "velocity": 0.2047244094488189,
                    "duration": 0.32041000000000963
                },
                {
                    "name": "B2",
                    "midi": 47,
                    "time": 167.89483999999925,
                    "velocity": 0.1732283464566929,
                    "duration": 0.32041000000000963
                },
                {
                    "name": "D#3",
                    "midi": 51,
                    "time": 167.89483999999925,
                    "velocity": 0.2047244094488189,
                    "duration": 0.32041000000000963
                },
                {
                    "name": "B2",
                    "midi": 47,
                    "time": 168.21524999999926,
                    "velocity": 0.1732283464566929,
                    "duration": 0.32041000000000963
                },
                {
                    "name": "D#3",
                    "midi": 51,
                    "time": 168.21524999999926,
                    "velocity": 0.2047244094488189,
                    "duration": 0.32041000000000963
                },
                {
                    "name": "C#3",
                    "midi": 49,
                    "time": 168.53565999999927,
                    "velocity": 0.1732283464566929,
                    "duration": 0.32041000000000963
                },
                {
                    "name": "D#3",
                    "midi": 51,
                    "time": 168.53565999999927,
                    "velocity": 0.1889763779527559,
                    "duration": 0.32041000000000963
                },
                {
                    "name": "B2",
                    "midi": 47,
                    "time": 168.85606999999928,
                    "velocity": 0.1732283464566929,
                    "duration": 0.32041000000000963
                },
                {
                    "name": "D#3",
                    "midi": 51,
                    "time": 168.85606999999928,
                    "velocity": 0.2047244094488189,
                    "duration": 0.32041000000000963
                },
                {
                    "name": "B2",
                    "midi": 47,
                    "time": 169.1764799999993,
                    "velocity": 0.1732283464566929,
                    "duration": 0.32041000000000963
                },
                {
                    "name": "D#3",
                    "midi": 51,
                    "time": 169.1764799999993,
                    "velocity": 0.2047244094488189,
                    "duration": 0.32041000000000963
                },
                {
                    "name": "A#2",
                    "midi": 46,
                    "time": 169.4968899999993,
                    "velocity": 0.16535433070866143,
                    "duration": 0.32041000000000963
                },
                {
                    "name": "D#3",
                    "midi": 51,
                    "time": 169.4968899999993,
                    "velocity": 0.1968503937007874,
                    "duration": 0.32041000000000963
                },
                {
                    "name": "G#2",
                    "midi": 44,
                    "time": 169.8172999999993,
                    "velocity": 0.15748031496062992,
                    "duration": 0.32041000000000963
                },
                {
                    "name": "D#3",
                    "midi": 51,
                    "time": 169.8172999999993,
                    "velocity": 0.1889763779527559,
                    "duration": 0.32041000000000963
                },
                {
                    "name": "C#2",
                    "midi": 37,
                    "time": 170.13770999999932,
                    "velocity": 0.15748031496062992,
                    "duration": 0.32041000000000963
                },
                {
                    "name": "C#3",
                    "midi": 49,
                    "time": 170.77852999999934,
                    "velocity": 0.2125984251968504,
                    "duration": 0.24030750000000012
                },
                {
                    "name": "D3",
                    "midi": 50,
                    "time": 171.01883749999934,
                    "velocity": 0.2047244094488189,
                    "duration": 0.04005125000000476
                },
                {
                    "name": "D#3",
                    "midi": 51,
                    "time": 171.05888874999934,
                    "velocity": 0.2047244094488189,
                    "duration": 0.04005125000000476
                },
                {
                    "name": "F3",
                    "midi": 53,
                    "time": 171.09893999999935,
                    "velocity": 0.1968503937007874,
                    "duration": 0.05340166666664459
                },
                {
                    "name": "D#3",
                    "midi": 51,
                    "time": 171.152341666666,
                    "velocity": 0.16535433070866143,
                    "duration": 0.05340166666667301
                },
                {
                    "name": "F3",
                    "midi": 53,
                    "time": 171.20574333333266,
                    "velocity": 0.1889763779527559,
                    "duration": 0.05340166666667301
                },
                {
                    "name": "D#3",
                    "midi": 51,
                    "time": 171.25914499999934,
                    "velocity": 0.1732283464566929,
                    "duration": 0.05340166666667301
                },
                {
                    "name": "F3",
                    "midi": 53,
                    "time": 171.312546666666,
                    "velocity": 0.1889763779527559,
                    "duration": 0.05340166666667301
                },
                {
                    "name": "D#3",
                    "midi": 51,
                    "time": 171.36594833333268,
                    "velocity": 0.16535433070866143,
                    "duration": 0.05340166666667301
                },
                {
                    "name": "F3",
                    "midi": 53,
                    "time": 171.41934999999935,
                    "velocity": 0.1889763779527559,
                    "duration": 0.05340166666667301
                },
                {
                    "name": "D#3",
                    "midi": 51,
                    "time": 171.47275166666603,
                    "velocity": 0.16535433070866143,
                    "duration": 0.05340166666667301
                },
                {
                    "name": "F3",
                    "midi": 53,
                    "time": 171.5261533333327,
                    "velocity": 0.1889763779527559,
                    "duration": 0.05340166666667301
                },
                {
                    "name": "D#3",
                    "midi": 51,
                    "time": 171.57955499999937,
                    "velocity": 0.16535433070866143,
                    "duration": 0.05340166666667301
                },
                {
                    "name": "F3",
                    "midi": 53,
                    "time": 171.63295666666605,
                    "velocity": 0.1889763779527559,
                    "duration": 0.05340166666667301
                },
                {
                    "name": "D#3",
                    "midi": 51,
                    "time": 171.68635833333272,
                    "velocity": 0.16535433070866143,
                    "duration": 0.05340166666667301
                },
                {
                    "name": "F3",
                    "midi": 53,
                    "time": 171.7397599999994,
                    "velocity": 0.1889763779527559,
                    "duration": 0.08010250000000951
                },
                {
                    "name": "D#3",
                    "midi": 51,
                    "time": 171.8198624999994,
                    "velocity": 0.16535433070866143,
                    "duration": 0.08010250000000951
                },
                {
                    "name": "F3",
                    "midi": 53,
                    "time": 171.8999649999994,
                    "velocity": 0.1889763779527559,
                    "duration": 0.04005125000000476
                },
                {
                    "name": "D#3",
                    "midi": 51,
                    "time": 171.94001624999942,
                    "velocity": 0.15748031496062992,
                    "duration": 0.04005125000000476
                },
                {
                    "name": "C#3",
                    "midi": 49,
                    "time": 171.98006749999942,
                    "velocity": 0.1889763779527559,
                    "duration": 0.04005125000000476
                },
                {
                    "name": "D#3",
                    "midi": 51,
                    "time": 172.02011874999943,
                    "velocity": 0.14173228346456693,
                    "duration": 0.04005125000000476
                },
                {
                    "name": "F3",
                    "midi": 53,
                    "time": 172.06016999999943,
                    "velocity": 0.25196850393700787,
                    "duration": 0.3204099999999812
                },
                {
                    "name": "C#2",
                    "midi": 37,
                    "time": 172.3805799999994,
                    "velocity": 0.1968503937007874,
                    "duration": 0.32041000000000963
                },
                {
                    "name": "C#3",
                    "midi": 49,
                    "time": 172.70098999999942,
                    "velocity": 0.2125984251968504,
                    "duration": 0.24030750000000012
                },
                {
                    "name": "D3",
                    "midi": 50,
                    "time": 172.94129749999942,
                    "velocity": 0.2047244094488189,
                    "duration": 0.04005125000000476
                },
                {
                    "name": "D#3",
                    "midi": 51,
                    "time": 172.98134874999943,
                    "velocity": 0.2047244094488189,
                    "duration": 0.04005125000000476
                },
                {
                    "name": "F3",
                    "midi": 53,
                    "time": 173.02139999999943,
                    "velocity": 0.1968503937007874,
                    "duration": 0.05340166666667301
                },
                {
                    "name": "D#3",
                    "midi": 51,
                    "time": 173.0748016666661,
                    "velocity": 0.16535433070866143,
                    "duration": 0.05340166666667301
                },
                {
                    "name": "F3",
                    "midi": 53,
                    "time": 173.12820333333278,
                    "velocity": 0.1889763779527559,
                    "duration": 0.05340166666667301
                },
                {
                    "name": "D#3",
                    "midi": 51,
                    "time": 173.18160499999945,
                    "velocity": 0.1732283464566929,
                    "duration": 0.05340166666667301
                },
                {
                    "name": "F3",
                    "midi": 53,
                    "time": 173.23500666666612,
                    "velocity": 0.1889763779527559,
                    "duration": 0.05340166666667301
                },
                {
                    "name": "D#3",
                    "midi": 51,
                    "time": 173.2884083333328,
                    "velocity": 0.16535433070866143,
                    "duration": 0.05340166666667301
                },
                {
                    "name": "F3",
                    "midi": 53,
                    "time": 173.34180999999947,
                    "velocity": 0.1889763779527559,
                    "duration": 0.05340166666667301
                },
                {
                    "name": "D#3",
                    "midi": 51,
                    "time": 173.39521166666614,
                    "velocity": 0.16535433070866143,
                    "duration": 0.05340166666667301
                },
                {
                    "name": "F3",
                    "midi": 53,
                    "time": 173.44861333333282,
                    "velocity": 0.1889763779527559,
                    "duration": 0.05340166666667301
                },
                {
                    "name": "D#3",
                    "midi": 51,
                    "time": 173.5020149999995,
                    "velocity": 0.16535433070866143,
                    "duration": 0.05340166666667301
                },
                {
                    "name": "F3",
                    "midi": 53,
                    "time": 173.55541666666616,
                    "velocity": 0.1889763779527559,
                    "duration": 0.05340166666667301
                },
                {
                    "name": "D#3",
                    "midi": 51,
                    "time": 173.60881833333283,
                    "velocity": 0.16535433070866143,
                    "duration": 0.05340166666667301
                },
                {
                    "name": "F3",
                    "midi": 53,
                    "time": 173.6622199999995,
                    "velocity": 0.1889763779527559,
                    "duration": 0.08010250000000951
                },
                {
                    "name": "D#3",
                    "midi": 51,
                    "time": 173.74232249999952,
                    "velocity": 0.16535433070866143,
                    "duration": 0.08010250000000951
                },
                {
                    "name": "F3",
                    "midi": 53,
                    "time": 173.82242499999953,
                    "velocity": 0.1889763779527559,
                    "duration": 0.04005125000000476
                },
                {
                    "name": "D#3",
                    "midi": 51,
                    "time": 173.86247624999953,
                    "velocity": 0.15748031496062992,
                    "duration": 0.04005125000000476
                },
                {
                    "name": "C#3",
                    "midi": 49,
                    "time": 173.90252749999954,
                    "velocity": 0.1889763779527559,
                    "duration": 0.04005125000000476
                },
                {
                    "name": "D#3",
                    "midi": 51,
                    "time": 173.94257874999954,
                    "velocity": 0.14173228346456693,
                    "duration": 0.04005125000000476
                },
                {
                    "name": "F3",
                    "midi": 53,
                    "time": 173.98262999999955,
                    "velocity": 0.2677165354330709,
                    "duration": 0.3204099999999812
                },
                {
                    "name": "C#2",
                    "midi": 37,
                    "time": 174.30303999999953,
                    "velocity": 0.28346456692913385,
                    "duration": 0.32041000000000963
                },
                {
                    "name": "C#3",
                    "midi": 49,
                    "time": 174.62344999999954,
                    "velocity": 0.13385826771653545,
                    "duration": 0.32041000000000963
                },
                {
                    "name": "G#3",
                    "midi": 56,
                    "time": 174.62344999999954,
                    "velocity": 0.13385826771653545,
                    "duration": 0.32041000000000963
                },
                {
                    "name": "C#4",
                    "midi": 61,
                    "time": 174.62344999999954,
                    "velocity": 0.2047244094488189,
                    "duration": 0.32041000000000963
                },
                {
                    "name": "C#3",
                    "midi": 49,
                    "time": 174.94385999999955,
                    "velocity": 0.15748031496062992,
                    "duration": 0.32041000000000963
                },
                {
                    "name": "G#3",
                    "midi": 56,
                    "time": 174.94385999999955,
                    "velocity": 0.15748031496062992,
                    "duration": 0.32041000000000963
                },
                {
                    "name": "C#4",
                    "midi": 61,
                    "time": 174.94385999999955,
                    "velocity": 0.2204724409448819,
                    "duration": 0.32041000000000963
                },
                {
                    "name": "C#3",
                    "midi": 49,
                    "time": 175.26426999999956,
                    "velocity": 0.16535433070866143,
                    "duration": 0.32041000000000963
                },
                {
                    "name": "G#3",
                    "midi": 56,
                    "time": 175.26426999999956,
                    "velocity": 0.16535433070866143,
                    "duration": 0.32041000000000963
                },
                {
                    "name": "B3",
                    "midi": 59,
                    "time": 175.26426999999956,
                    "velocity": 0.25196850393700787,
                    "duration": 0.32041000000000963
                },
                {
                    "name": "C#3",
                    "midi": 49,
                    "time": 175.58467999999957,
                    "velocity": 0.16535433070866143,
                    "duration": 0.32041000000000963
                },
                {
                    "name": "G#3",
                    "midi": 56,
                    "time": 175.58467999999957,
                    "velocity": 0.16535433070866143,
                    "duration": 0.32041000000000963
                },
                {
                    "name": "B3",
                    "midi": 59,
                    "time": 175.58467999999957,
                    "velocity": 0.2677165354330709,
                    "duration": 0.32041000000000963
                },
                {
                    "name": "C#3",
                    "midi": 49,
                    "time": 175.90508999999957,
                    "velocity": 0.2125984251968504,
                    "duration": 0.32041000000000963
                },
                {
                    "name": "G#3",
                    "midi": 56,
                    "time": 175.90508999999957,
                    "velocity": 0.2125984251968504,
                    "duration": 0.32041000000000963
                },
                {
                    "name": "B3",
                    "midi": 59,
                    "time": 175.90508999999957,
                    "velocity": 0.29133858267716534,
                    "duration": 0.32041000000000963
                },
                {
                    "name": "C#3",
                    "midi": 49,
                    "time": 176.22549999999958,
                    "velocity": 0.15748031496062992,
                    "duration": 0.32041000000000963
                },
                {
                    "name": "G#3",
                    "midi": 56,
                    "time": 176.22549999999958,
                    "velocity": 0.15748031496062992,
                    "duration": 0.32041000000000963
                },
                {
                    "name": "B3",
                    "midi": 59,
                    "time": 176.22549999999958,
                    "velocity": 0.2440944881889764,
                    "duration": 0.3170723958333497
                },
                {
                    "name": "C#3",
                    "midi": 49,
                    "time": 176.5459099999996,
                    "velocity": 0.13385826771653545,
                    "duration": 0.32041000000000963
                },
                {
                    "name": "G#3",
                    "midi": 56,
                    "time": 176.5459099999996,
                    "velocity": 0.2047244094488189,
                    "duration": 0.32041000000000963
                },
                {
                    "name": "F#2",
                    "midi": 42,
                    "time": 176.8663199999996,
                    "velocity": 0.14173228346456693,
                    "duration": 0.32041000000000963
                },
                {
                    "name": "C#3",
                    "midi": 49,
                    "time": 176.8663199999996,
                    "velocity": 0.2047244094488189,
                    "duration": 0.32041000000000963
                },
                {
                    "name": "A#3",
                    "midi": 58,
                    "time": 177.1867299999996,
                    "velocity": 0.30708661417322836,
                    "duration": 0.1602049999999906
                },
                {
                    "name": "G#3",
                    "midi": 56,
                    "time": 177.3469349999996,
                    "velocity": 0.29133858267716534,
                    "duration": 0.1602049999999906
                },
                {
                    "name": "F#3",
                    "midi": 54,
                    "time": 177.5071399999996,
                    "velocity": 0.28346456692913385,
                    "duration": 0.1602049999999906
                },
                {
                    "name": "F3",
                    "midi": 53,
                    "time": 177.66734499999959,
                    "velocity": 0.2755905511811024,
                    "duration": 0.1602049999999906
                },
                {
                    "name": "F3",
                    "midi": 53,
                    "time": 177.82754999999958,
                    "velocity": 0.30708661417322836,
                    "duration": 0.1602049999999906
                },
                {
                    "name": "D#3",
                    "midi": 51,
                    "time": 177.98775499999957,
                    "velocity": 0.30708661417322836,
                    "duration": 0.1602049999999906
                },
                {
                    "name": "C#3",
                    "midi": 49,
                    "time": 178.14795999999956,
                    "velocity": 0.29133858267716534,
                    "duration": 0.1602049999999906
                },
                {
                    "name": "C3",
                    "midi": 48,
                    "time": 178.30816499999955,
                    "velocity": 0.28346456692913385,
                    "duration": 0.1602049999999906
                },
                {
                    "name": "A#2",
                    "midi": 46,
                    "time": 178.46836999999954,
                    "velocity": 0.2755905511811024,
                    "duration": 0.1602049999999906
                },
                {
                    "name": "G#2",
                    "midi": 44,
                    "time": 178.62857499999953,
                    "velocity": 0.2755905511811024,
                    "duration": 0.1602049999999906
                },
                {
                    "name": "C#2",
                    "midi": 37,
                    "time": 178.78877999999952,
                    "velocity": 0.2755905511811024,
                    "duration": 0.1602049999999906
                },
                {
                    "name": "A#3",
                    "midi": 58,
                    "time": 179.1091899999995,
                    "velocity": 0.33070866141732286,
                    "duration": 0.1602049999999906
                },
                {
                    "name": "G#3",
                    "midi": 56,
                    "time": 179.2693949999995,
                    "velocity": 0.29133858267716534,
                    "duration": 0.1602049999999906
                },
                {
                    "name": "F#3",
                    "midi": 54,
                    "time": 179.42959999999948,
                    "velocity": 0.28346456692913385,
                    "duration": 0.1602049999999906
                },
                {
                    "name": "F3",
                    "midi": 53,
                    "time": 179.58980499999947,
                    "velocity": 0.28346456692913385,
                    "duration": 0.1602049999999906
                },
                {
                    "name": "F3",
                    "midi": 53,
                    "time": 179.75000999999946,
                    "velocity": 0.30708661417322836,
                    "duration": 0.1602049999999906
                },
                {
                    "name": "D#3",
                    "midi": 51,
                    "time": 179.91021499999945,
                    "velocity": 0.30708661417322836,
                    "duration": 0.1602049999999906
                },
                {
                    "name": "C#3",
                    "midi": 49,
                    "time": 180.07041999999944,
                    "velocity": 0.29133858267716534,
                    "duration": 0.1602049999999906
                },
                {
                    "name": "C3",
                    "midi": 48,
                    "time": 180.23062499999943,
                    "velocity": 0.28346456692913385,
                    "duration": 0.1602049999999906
                },
                {
                    "name": "A#2",
                    "midi": 46,
                    "time": 180.39082999999943,
                    "velocity": 0.28346456692913385,
                    "duration": 0.1602049999999906
                },
                {
                    "name": "G#2",
                    "midi": 44,
                    "time": 180.55103499999942,
                    "velocity": 0.2755905511811024,
                    "duration": 0.1602049999999906
                },
                {
                    "name": "C#2",
                    "midi": 37,
                    "time": 180.7112399999994,
                    "velocity": 0.2755905511811024,
                    "duration": 0.1602049999999906
                },
                {
                    "name": "G#3",
                    "midi": 56,
                    "time": 181.0316499999994,
                    "velocity": 0.2755905511811024,
                    "duration": 0.1602049999999906
                },
                {
                    "name": "A#3",
                    "midi": 58,
                    "time": 181.19185499999938,
                    "velocity": 0.28346456692913385,
                    "duration": 0.1602049999999906
                },
                {
                    "name": "C4",
                    "midi": 60,
                    "time": 181.35205999999937,
                    "velocity": 0.29133858267716534,
                    "duration": 0.1602049999999906
                },
                {
                    "name": "C#4",
                    "midi": 61,
                    "time": 181.51226499999936,
                    "velocity": 0.3228346456692913,
                    "duration": 0.1602049999999906
                },
                {
                    "name": "C#4",
                    "midi": 61,
                    "time": 181.67246999999935,
                    "velocity": 0.3543307086614173,
                    "duration": 0.1602049999999906
                },
                {
                    "name": "C4",
                    "midi": 60,
                    "time": 181.83267499999934,
                    "velocity": 0.29133858267716534,
                    "duration": 0.1602049999999906
                },
                {
                    "name": "E3",
                    "midi": 52,
                    "time": 181.99287999999933,
                    "velocity": 0.3228346456692913,
                    "duration": 0.1602049999999906
                },
                {
                    "name": "F3",
                    "midi": 53,
                    "time": 182.15308499999932,
                    "velocity": 0.28346456692913385,
                    "duration": 0.1602049999999906
                },
                {
                    "name": "C#4",
                    "midi": 61,
                    "time": 182.3132899999993,
                    "velocity": 0.30708661417322836,
                    "duration": 0.1602049999999906
                },
                {
                    "name": "C4",
                    "midi": 60,
                    "time": 182.4734949999993,
                    "velocity": 0.2755905511811024,
                    "duration": 0.1602049999999906
                },
                {
                    "name": "A#3",
                    "midi": 58,
                    "time": 182.6336999999993,
                    "velocity": 0.30708661417322836,
                    "duration": 0.32041000000000963
                },
                {
                    "name": "A#2",
                    "midi": 46,
                    "time": 182.9541099999993,
                    "velocity": 0.3228346456692913,
                    "duration": 0.1602049999999906
                },
                {
                    "name": "F3",
                    "midi": 53,
                    "time": 183.1143149999993,
                    "velocity": 0.2755905511811024,
                    "duration": 0.1602049999999906
                },
                {
                    "name": "G#3",
                    "midi": 56,
                    "time": 183.27451999999928,
                    "velocity": 0.29133858267716534,
                    "duration": 0.1602049999999906
                },
                {
                    "name": "C4",
                    "midi": 60,
                    "time": 183.43472499999928,
                    "velocity": 0.2755905511811024,
                    "duration": 0.1602049999999906
                },
                {
                    "name": "C4",
                    "midi": 60,
                    "time": 183.59492999999927,
                    "velocity": 0.30708661417322836,
                    "duration": 0.1602049999999906
                },
                {
                    "name": "A#3",
                    "midi": 58,
                    "time": 183.75513499999926,
                    "velocity": 0.2755905511811024,
                    "duration": 0.1602049999999906
                },
                {
                    "name": "D3",
                    "midi": 50,
                    "time": 183.91533999999925,
                    "velocity": 0.28346456692913385,
                    "duration": 0.1602049999999906
                },
                {
                    "name": "D#3",
                    "midi": 51,
                    "time": 184.07554499999924,
                    "velocity": 0.2755905511811024,
                    "duration": 0.1602049999999906
                },
                {
                    "name": "C4",
                    "midi": 60,
                    "time": 184.23574999999923,
                    "velocity": 0.29133858267716534,
                    "duration": 0.1602049999999906
                },
                {
                    "name": "A#3",
                    "midi": 58,
                    "time": 184.39595499999922,
                    "velocity": 0.2755905511811024,
                    "duration": 0.1602049999999906
                },
                {
                    "name": "G#3",
                    "midi": 56,
                    "time": 184.5561599999992,
                    "velocity": 0.29133858267716534,
                    "duration": 0.32041000000000963
                },
                {
                    "name": "A#3",
                    "midi": 58,
                    "time": 184.87656999999922,
                    "velocity": 0.30708661417322836,
                    "duration": 0.1602049999999906
                },
                {
                    "name": "G#3",
                    "midi": 56,
                    "time": 185.0367749999992,
                    "velocity": 0.29133858267716534,
                    "duration": 0.1602049999999906
                },
                {
                    "name": "F#3",
                    "midi": 54,
                    "time": 185.1969799999992,
                    "velocity": 0.28346456692913385,
                    "duration": 0.1602049999999906
                },
                {
                    "name": "F3",
                    "midi": 53,
                    "time": 185.3571849999992,
                    "velocity": 0.2755905511811024,
                    "duration": 0.1602049999999906
                },
                {
                    "name": "F3",
                    "midi": 53,
                    "time": 185.51738999999918,
                    "velocity": 0.30708661417322836,
                    "duration": 0.1602049999999906
                },
                {
                    "name": "D#3",
                    "midi": 51,
                    "time": 185.67759499999917,
                    "velocity": 0.30708661417322836,
                    "duration": 0.1602049999999906
                },
                {
                    "name": "C#3",
                    "midi": 49,
                    "time": 185.83779999999916,
                    "velocity": 0.29133858267716534,
                    "duration": 0.1602049999999906
                },
                {
                    "name": "C3",
                    "midi": 48,
                    "time": 185.99800499999915,
                    "velocity": 0.28346456692913385,
                    "duration": 0.1602049999999906
                },
                {
                    "name": "A#2",
                    "midi": 46,
                    "time": 186.15820999999914,
                    "velocity": 0.2755905511811024,
                    "duration": 0.1602049999999906
                },
                {
                    "name": "G#2",
                    "midi": 44,
                    "time": 186.31841499999913,
                    "velocity": 0.2755905511811024,
                    "duration": 0.1602049999999906
                },
                {
                    "name": "C#2",
                    "midi": 37,
                    "time": 186.47861999999913,
                    "velocity": 0.2755905511811024,
                    "duration": 0.1602049999999906
                },
                {
                    "name": "A#3",
                    "midi": 58,
                    "time": 186.7990299999991,
                    "velocity": 0.33070866141732286,
                    "duration": 0.1602049999999906
                },
                {
                    "name": "G#3",
                    "midi": 56,
                    "time": 186.9592349999991,
                    "velocity": 0.29133858267716534,
                    "duration": 0.1602049999999906
                },
                {
                    "name": "F#3",
                    "midi": 54,
                    "time": 187.1194399999991,
                    "velocity": 0.28346456692913385,
                    "duration": 0.1602049999999906
                },
                {
                    "name": "F3",
                    "midi": 53,
                    "time": 187.27964499999908,
                    "velocity": 0.28346456692913385,
                    "duration": 0.1602049999999906
                },
                {
                    "name": "F3",
                    "midi": 53,
                    "time": 187.43984999999907,
                    "velocity": 0.30708661417322836,
                    "duration": 0.1602049999999906
                },
                {
                    "name": "D#3",
                    "midi": 51,
                    "time": 187.60005499999906,
                    "velocity": 0.30708661417322836,
                    "duration": 0.1602049999999906
                },
                {
                    "name": "C#3",
                    "midi": 49,
                    "time": 187.76025999999905,
                    "velocity": 0.29133858267716534,
                    "duration": 0.1602049999999906
                },
                {
                    "name": "C3",
                    "midi": 48,
                    "time": 187.92046499999904,
                    "velocity": 0.28346456692913385,
                    "duration": 0.1602049999999906
                },
                {
                    "name": "A#2",
                    "midi": 46,
                    "time": 188.08066999999903,
                    "velocity": 0.28346456692913385,
                    "duration": 0.1602049999999906
                },
                {
                    "name": "G#2",
                    "midi": 44,
                    "time": 188.24087499999902,
                    "velocity": 0.2755905511811024,
                    "duration": 0.1602049999999906
                },
                {
                    "name": "C#2",
                    "midi": 37,
                    "time": 188.401079999999,
                    "velocity": 0.2755905511811024,
                    "duration": 0.16020500000001903
                },
                {
                    "name": "G#3",
                    "midi": 56,
                    "time": 188.72148999999902,
                    "velocity": 0.30708661417322836,
                    "duration": 0.1602049999999906
                },
                {
                    "name": "G3",
                    "midi": 55,
                    "time": 188.881694999999,
                    "velocity": 0.28346456692913385,
                    "duration": 0.1602049999999906
                },
                {
                    "name": "A#3",
                    "midi": 58,
                    "time": 189.041899999999,
                    "velocity": 0.30708661417322836,
                    "duration": 0.16020500000001903
                },
                {
                    "name": "G#3",
                    "midi": 56,
                    "time": 189.20210499999902,
                    "velocity": 0.2677165354330709,
                    "duration": 0.1602049999999906
                },
                {
                    "name": "B3",
                    "midi": 59,
                    "time": 189.362309999999,
                    "velocity": 0.30708661417322836,
                    "duration": 0.32041000000000963
                },
                {
                    "name": "B2",
                    "midi": 47,
                    "time": 189.68271999999902,
                    "velocity": 0.33858267716535434,
                    "duration": 0.1602049999999906
                },
                {
                    "name": "F3",
                    "midi": 53,
                    "time": 189.842924999999,
                    "velocity": 0.30708661417322836,
                    "duration": 0.1602049999999906
                },
                {
                    "name": "G#3",
                    "midi": 56,
                    "time": 190.003129999999,
                    "velocity": 0.33858267716535434,
                    "duration": 0.1602049999999906
                },
                {
                    "name": "F#3",
                    "midi": 54,
                    "time": 190.163334999999,
                    "velocity": 0.30708661417322836,
                    "duration": 0.1602049999999906
                },
                {
                    "name": "A#3",
                    "midi": 58,
                    "time": 190.32353999999899,
                    "velocity": 0.3543307086614173,
                    "duration": 0.32041000000000963
                },
                {
                    "name": "F#2",
                    "midi": 42,
                    "time": 190.643949999999,
                    "velocity": 0.3228346456692913,
                    "duration": 0.1602049999999906
                },
                {
                    "name": "C#3",
                    "midi": 49,
                    "time": 190.80415499999899,
                    "velocity": 0.28346456692913385,
                    "duration": 0.1602049999999906
                },
                {
                    "name": "F#3",
                    "midi": 54,
                    "time": 190.96435999999898,
                    "velocity": 0.3228346456692913,
                    "duration": 0.1602049999999906
                },
                {
                    "name": "A#3",
                    "midi": 58,
                    "time": 191.12456499999897,
                    "velocity": 0.28346456692913385,
                    "duration": 0.1602049999999906
                },
                {
                    "name": "G#3",
                    "midi": 56,
                    "time": 191.28476999999896,
                    "velocity": 0.33858267716535434,
                    "duration": 0.32041000000000963
                },
                {
                    "name": "C#2",
                    "midi": 37,
                    "time": 191.60517999999897,
                    "velocity": 0.30708661417322836,
                    "duration": 0.1602049999999906
                },
                {
                    "name": "G#2",
                    "midi": 44,
                    "time": 191.76538499999896,
                    "velocity": 0.2755905511811024,
                    "duration": 0.1602049999999906
                },
                {
                    "name": "C#3",
                    "midi": 49,
                    "time": 191.92558999999895,
                    "velocity": 0.30708661417322836,
                    "duration": 0.1602049999999906
                },
                {
                    "name": "G#3",
                    "midi": 56,
                    "time": 192.08579499999894,
                    "velocity": 0.28346456692913385,
                    "duration": 0.1602049999999906
                },
                {
                    "name": "C#4",
                    "midi": 61,
                    "time": 192.24599999999893,
                    "velocity": 0.30708661417322836,
                    "duration": 0.1602049999999906
                },
                {
                    "name": "C4",
                    "midi": 60,
                    "time": 192.40620499999892,
                    "velocity": 0.2677165354330709,
                    "duration": 0.1602049999999906
                },
                {
                    "name": "B3",
                    "midi": 59,
                    "time": 192.5664099999989,
                    "velocity": 0.2677165354330709,
                    "duration": 0.1602049999999906
                },
                {
                    "name": "A#3",
                    "midi": 58,
                    "time": 192.7266149999989,
                    "velocity": 0.2677165354330709,
                    "duration": 0.1602049999999906
                },
                {
                    "name": "B3",
                    "midi": 59,
                    "time": 192.8868199999989,
                    "velocity": 0.3228346456692913,
                    "duration": 0.1602049999999906
                },
                {
                    "name": "C#3",
                    "midi": 49,
                    "time": 193.04702499999888,
                    "velocity": 0.2677165354330709,
                    "duration": 0.1602049999999906
                },
                {
                    "name": "F#2",
                    "midi": 42,
                    "time": 193.20722999999887,
                    "velocity": 0.29133858267716534,
                    "duration": 0.3204099999999812
                },
                {
                    "name": "D#4",
                    "midi": 63,
                    "time": 193.52763999999885,
                    "velocity": 0.1968503937007874,
                    "duration": 0.32041000000000963
                },
                {
                    "name": "F#3",
                    "midi": 54,
                    "time": 193.52763999999885,
                    "velocity": 0.16535433070866143,
                    "duration": 0.32041000000000963
                },
                {
                    "name": "C#3",
                    "midi": 49,
                    "time": 193.52763999999885,
                    "velocity": 0.16535433070866143,
                    "duration": 0.32041000000000963
                },
                {
                    "name": "C#3",
                    "midi": 49,
                    "time": 193.84804999999886,
                    "velocity": 0.14173228346456693,
                    "duration": 0.32041000000000963
                },
                {
                    "name": "F#3",
                    "midi": 54,
                    "time": 193.84804999999886,
                    "velocity": 0.14173228346456693,
                    "duration": 0.32041000000000963
                },
                {
                    "name": "C#4",
                    "midi": 61,
                    "time": 193.84804999999886,
                    "velocity": 0.18110236220472442,
                    "duration": 0.32041000000000963
                },
                {
                    "name": "F#2",
                    "midi": 42,
                    "time": 194.16845999999887,
                    "velocity": 0.2677165354330709,
                    "duration": 0.32041000000000963
                },
                {
                    "name": "D#4",
                    "midi": 63,
                    "time": 194.48886999999888,
                    "velocity": 0.18110236220472442,
                    "duration": 0.32041000000000963
                },
                {
                    "name": "C#3",
                    "midi": 49,
                    "time": 194.48886999999888,
                    "velocity": 0.14173228346456693,
                    "duration": 0.32041000000000963
                },
                {
                    "name": "F#3",
                    "midi": 54,
                    "time": 194.48886999999888,
                    "velocity": 0.14173228346456693,
                    "duration": 0.32041000000000963
                },
                {
                    "name": "C#3",
                    "midi": 49,
                    "time": 194.8092799999989,
                    "velocity": 0.11811023622047244,
                    "duration": 0.32041000000000963
                },
                {
                    "name": "F#3",
                    "midi": 54,
                    "time": 194.8092799999989,
                    "velocity": 0.11811023622047244,
                    "duration": 0.32041000000000963
                },
                {
                    "name": "C#4",
                    "midi": 61,
                    "time": 194.8092799999989,
                    "velocity": 0.14173228346456693,
                    "duration": 0.32041000000000963
                },
                {
                    "name": "C#2",
                    "midi": 37,
                    "time": 195.1296899999989,
                    "velocity": 0.25984251968503935,
                    "duration": 0.32041000000000963
                },
                {
                    "name": "D#4",
                    "midi": 63,
                    "time": 195.4500999999989,
                    "velocity": 0.2125984251968504,
                    "duration": 0.32041000000000963
                },
                {
                    "name": "F#3",
                    "midi": 54,
                    "time": 195.4500999999989,
                    "velocity": 0.18110236220472442,
                    "duration": 0.32041000000000963
                },
                {
                    "name": "C#3",
                    "midi": 49,
                    "time": 195.4500999999989,
                    "velocity": 0.18110236220472442,
                    "duration": 0.32041000000000963
                },
                {
                    "name": "C#3",
                    "midi": 49,
                    "time": 195.77050999999892,
                    "velocity": 0.14173228346456693,
                    "duration": 0.32041000000000963
                },
                {
                    "name": "F#3",
                    "midi": 54,
                    "time": 195.77050999999892,
                    "velocity": 0.14173228346456693,
                    "duration": 0.32041000000000963
                },
                {
                    "name": "C#4",
                    "midi": 61,
                    "time": 195.77050999999892,
                    "velocity": 0.18110236220472442,
                    "duration": 0.32041000000000963
                },
                {
                    "name": "F#2",
                    "midi": 42,
                    "time": 196.09091999999893,
                    "velocity": 0.2677165354330709,
                    "duration": 0.32041000000000963
                },
                {
                    "name": "D#4",
                    "midi": 63,
                    "time": 196.41132999999894,
                    "velocity": 0.1889763779527559,
                    "duration": 0.32041000000000963
                },
                {
                    "name": "C#3",
                    "midi": 49,
                    "time": 196.41132999999894,
                    "velocity": 0.15748031496062992,
                    "duration": 0.32041000000000963
                },
                {
                    "name": "F#3",
                    "midi": 54,
                    "time": 196.41132999999894,
                    "velocity": 0.15748031496062992,
                    "duration": 0.32041000000000963
                },
                {
                    "name": "C#3",
                    "midi": 49,
                    "time": 196.73173999999895,
                    "velocity": 0.13385826771653545,
                    "duration": 0.32041000000000963
                },
                {
                    "name": "F#3",
                    "midi": 54,
                    "time": 196.73173999999895,
                    "velocity": 0.13385826771653545,
                    "duration": 0.32041000000000963
                },
                {
                    "name": "C#4",
                    "midi": 61,
                    "time": 196.73173999999895,
                    "velocity": 0.1732283464566929,
                    "duration": 0.32041000000000963
                },
                {
                    "name": "C#3",
                    "midi": 49,
                    "time": 197.05214999999896,
                    "velocity": 0.09448818897637795,
                    "duration": 0.32041000000000963
                },
                {
                    "name": "F#3",
                    "midi": 54,
                    "time": 197.05214999999896,
                    "velocity": 0.11811023622047244,
                    "duration": 0.32041000000000963
                },
                {
                    "name": "C#4",
                    "midi": 61,
                    "time": 197.05214999999896,
                    "velocity": 0.1732283464566929,
                    "duration": 0.32041000000000963
                },
                {
                    "name": "C#3",
                    "midi": 49,
                    "time": 197.37255999999897,
                    "velocity": 0.14173228346456693,
                    "duration": 0.32041000000000963
                },
                {
                    "name": "F#3",
                    "midi": 54,
                    "time": 197.37255999999897,
                    "velocity": 0.14173228346456693,
                    "duration": 0.32041000000000963
                },
                {
                    "name": "B3",
                    "midi": 59,
                    "time": 197.37255999999897,
                    "velocity": 0.18110236220472442,
                    "duration": 0.32041000000000963
                },
                {
                    "name": "C#3",
                    "midi": 49,
                    "time": 197.69296999999898,
                    "velocity": 0.09448818897637795,
                    "duration": 0.32041000000000963
                },
                {
                    "name": "F#3",
                    "midi": 54,
                    "time": 197.69296999999898,
                    "velocity": 0.11811023622047244,
                    "duration": 0.32041000000000963
                },
                {
                    "name": "A#3",
                    "midi": 58,
                    "time": 197.69296999999898,
                    "velocity": 0.16535433070866143,
                    "duration": 0.32041000000000963
                },
                {
                    "name": "C#3",
                    "midi": 49,
                    "time": 198.013379999999,
                    "velocity": 0.15748031496062992,
                    "duration": 0.32041000000000963
                },
                {
                    "name": "F#3",
                    "midi": 54,
                    "time": 198.013379999999,
                    "velocity": 0.15748031496062992,
                    "duration": 0.32041000000000963
                },
                {
                    "name": "A#3",
                    "midi": 58,
                    "time": 198.013379999999,
                    "velocity": 0.18110236220472442,
                    "duration": 0.32041000000000963
                },
                {
                    "name": "B2",
                    "midi": 47,
                    "time": 198.333789999999,
                    "velocity": 0.15748031496062992,
                    "duration": 0.32041000000000963
                },
                {
                    "name": "C#3",
                    "midi": 49,
                    "time": 198.333789999999,
                    "velocity": 0.1889763779527559,
                    "duration": 0.32041000000000963
                },
                {
                    "name": "A#2",
                    "midi": 46,
                    "time": 198.654199999999,
                    "velocity": 0.15748031496062992,
                    "duration": 0.32041000000000963
                },
                {
                    "name": "C#3",
                    "midi": 49,
                    "time": 198.654199999999,
                    "velocity": 0.1889763779527559,
                    "duration": 0.32041000000000963
                },
                {
                    "name": "A#2",
                    "midi": 46,
                    "time": 198.97460999999902,
                    "velocity": 0.15748031496062992,
                    "duration": 0.32041000000000963
                },
                {
                    "name": "C#3",
                    "midi": 49,
                    "time": 198.97460999999902,
                    "velocity": 0.1889763779527559,
                    "duration": 0.32041000000000963
                },
                {
                    "name": "B2",
                    "midi": 47,
                    "time": 199.29501999999903,
                    "velocity": 0.15748031496062992,
                    "duration": 0.32041000000000963
                },
                {
                    "name": "C#3",
                    "midi": 49,
                    "time": 199.29501999999903,
                    "velocity": 0.1889763779527559,
                    "duration": 0.32041000000000963
                },
                {
                    "name": "A#2",
                    "midi": 46,
                    "time": 199.61542999999904,
                    "velocity": 0.15748031496062992,
                    "duration": 0.32041000000000963
                },
                {
                    "name": "C#3",
                    "midi": 49,
                    "time": 199.61542999999904,
                    "velocity": 0.1889763779527559,
                    "duration": 0.32041000000000963
                },
                {
                    "name": "A#2",
                    "midi": 46,
                    "time": 199.93583999999905,
                    "velocity": 0.15748031496062992,
                    "duration": 0.32041000000000963
                },
                {
                    "name": "C#3",
                    "midi": 49,
                    "time": 199.93583999999905,
                    "velocity": 0.1889763779527559,
                    "duration": 0.32041000000000963
                },
                {
                    "name": "B2",
                    "midi": 47,
                    "time": 200.25624999999906,
                    "velocity": 0.15748031496062992,
                    "duration": 0.32041000000000963
                },
                {
                    "name": "C#3",
                    "midi": 49,
                    "time": 200.25624999999906,
                    "velocity": 0.1889763779527559,
                    "duration": 0.32041000000000963
                },
                {
                    "name": "A#2",
                    "midi": 46,
                    "time": 200.57665999999907,
                    "velocity": 0.15748031496062992,
                    "duration": 0.32041000000000963
                },
                {
                    "name": "C#3",
                    "midi": 49,
                    "time": 200.57665999999907,
                    "velocity": 0.1889763779527559,
                    "duration": 0.32041000000000963
                },
                {
                    "name": "G#2",
                    "midi": 44,
                    "time": 200.89706999999908,
                    "velocity": 0.2440944881889764,
                    "duration": 0.32041000000000963
                },
                {
                    "name": "E4",
                    "midi": 64,
                    "time": 201.21747999999909,
                    "velocity": 0.2047244094488189,
                    "duration": 0.32041000000000963
                },
                {
                    "name": "G#3",
                    "midi": 56,
                    "time": 201.21747999999909,
                    "velocity": 0.1732283464566929,
                    "duration": 0.32041000000000963
                },
                {
                    "name": "D#3",
                    "midi": 51,
                    "time": 201.21747999999909,
                    "velocity": 0.1732283464566929,
                    "duration": 0.32041000000000963
                },
                {
                    "name": "D#3",
                    "midi": 51,
                    "time": 201.5378899999991,
                    "velocity": 0.13385826771653545,
                    "duration": 0.32041000000000963
                },
                {
                    "name": "G#3",
                    "midi": 56,
                    "time": 201.5378899999991,
                    "velocity": 0.13385826771653545,
                    "duration": 0.32041000000000963
                },
                {
                    "name": "D#4",
                    "midi": 63,
                    "time": 201.5378899999991,
                    "velocity": 0.1732283464566929,
                    "duration": 0.32041000000000963
                },
                {
                    "name": "G#2",
                    "midi": 44,
                    "time": 201.8582999999991,
                    "velocity": 0.2992125984251969,
                    "duration": 0.3204099999999812
                },
                {
                    "name": "E4",
                    "midi": 64,
                    "time": 202.17870999999909,
                    "velocity": 0.1889763779527559,
                    "duration": 0.32041000000000963
                },
                {
                    "name": "D#3",
                    "midi": 51,
                    "time": 202.17870999999909,
                    "velocity": 0.14173228346456693,
                    "duration": 0.32041000000000963
                },
                {
                    "name": "G#3",
                    "midi": 56,
                    "time": 202.17870999999909,
                    "velocity": 0.14173228346456693,
                    "duration": 0.32041000000000963
                },
                {
                    "name": "D#3",
                    "midi": 51,
                    "time": 202.4991199999991,
                    "velocity": 0.13385826771653545,
                    "duration": 0.32041000000000963
                },
                {
                    "name": "G#3",
                    "midi": 56,
                    "time": 202.4991199999991,
                    "velocity": 0.13385826771653545,
                    "duration": 0.32041000000000963
                },
                {
                    "name": "D#4",
                    "midi": 63,
                    "time": 202.4991199999991,
                    "velocity": 0.16535433070866143,
                    "duration": 0.32041000000000963
                },
                {
                    "name": "D#2",
                    "midi": 39,
                    "time": 202.8195299999991,
                    "velocity": 0.25984251968503935,
                    "duration": 0.32041000000000963
                },
                {
                    "name": "E4",
                    "midi": 64,
                    "time": 203.13993999999911,
                    "velocity": 0.1968503937007874,
                    "duration": 0.32041000000000963
                },
                {
                    "name": "A#3",
                    "midi": 58,
                    "time": 203.13993999999911,
                    "velocity": 0.16535433070866143,
                    "duration": 0.32041000000000963
                },
                {
                    "name": "D#3",
                    "midi": 51,
                    "time": 203.13993999999911,
                    "velocity": 0.16535433070866143,
                    "duration": 0.32041000000000963
                },
                {
                    "name": "D#3",
                    "midi": 51,
                    "time": 203.46034999999912,
                    "velocity": 0.12598425196850394,
                    "duration": 0.32041000000000963
                },
                {
                    "name": "A#3",
                    "midi": 58,
                    "time": 203.46034999999912,
                    "velocity": 0.12598425196850394,
                    "duration": 0.32041000000000963
                },
                {
                    "name": "D#4",
                    "midi": 63,
                    "time": 203.46034999999912,
                    "velocity": 0.16535433070866143,
                    "duration": 0.32041000000000963
                },
                {
                    "name": "G#2",
                    "midi": 44,
                    "time": 203.78075999999913,
                    "velocity": 0.2677165354330709,
                    "duration": 0.32041000000000963
                },
                {
                    "name": "E4",
                    "midi": 64,
                    "time": 204.10116999999914,
                    "velocity": 0.1968503937007874,
                    "duration": 0.32041000000000963
                },
                {
                    "name": "D#3",
                    "midi": 51,
                    "time": 204.10116999999914,
                    "velocity": 0.16535433070866143,
                    "duration": 0.32041000000000963
                },
                {
                    "name": "G#3",
                    "midi": 56,
                    "time": 204.10116999999914,
                    "velocity": 0.16535433070866143,
                    "duration": 0.32041000000000963
                },
                {
                    "name": "D#3",
                    "midi": 51,
                    "time": 204.42157999999915,
                    "velocity": 0.14173228346456693,
                    "duration": 0.32041000000000963
                },
                {
                    "name": "G#3",
                    "midi": 56,
                    "time": 204.42157999999915,
                    "velocity": 0.14173228346456693,
                    "duration": 0.32041000000000963
                },
                {
                    "name": "D#4",
                    "midi": 63,
                    "time": 204.42157999999915,
                    "velocity": 0.18110236220472442,
                    "duration": 0.32041000000000963
                },
                {
                    "name": "D#3",
                    "midi": 51,
                    "time": 204.74198999999916,
                    "velocity": 0.12598425196850394,
                    "duration": 0.32041000000000963
                },
                {
                    "name": "G#3",
                    "midi": 56,
                    "time": 204.74198999999916,
                    "velocity": 0.12598425196850394,
                    "duration": 0.32041000000000963
                },
                {
                    "name": "D#4",
                    "midi": 63,
                    "time": 204.74198999999916,
                    "velocity": 0.1968503937007874,
                    "duration": 0.32041000000000963
                },
                {
                    "name": "D#3",
                    "midi": 51,
                    "time": 205.06239999999917,
                    "velocity": 0.15748031496062992,
                    "duration": 0.32041000000000963
                },
                {
                    "name": "G#3",
                    "midi": 56,
                    "time": 205.06239999999917,
                    "velocity": 0.15748031496062992,
                    "duration": 0.32041000000000963
                },
                {
                    "name": "C#4",
                    "midi": 61,
                    "time": 205.06239999999917,
                    "velocity": 0.1889763779527559,
                    "duration": 0.32041000000000963
                },
                {
                    "name": "D#3",
                    "midi": 51,
                    "time": 205.38280999999918,
                    "velocity": 0.15748031496062992,
                    "duration": 0.32041000000000963
                },
                {
                    "name": "G#3",
                    "midi": 56,
                    "time": 205.38280999999918,
                    "velocity": 0.15748031496062992,
                    "duration": 0.32041000000000963
                },
                {
                    "name": "B3",
                    "midi": 59,
                    "time": 205.38280999999918,
                    "velocity": 0.1889763779527559,
                    "duration": 0.32041000000000963
                },
                {
                    "name": "D#3",
                    "midi": 51,
                    "time": 205.7032199999992,
                    "velocity": 0.16535433070866143,
                    "duration": 0.32041000000000963
                },
                {
                    "name": "G#3",
                    "midi": 56,
                    "time": 205.7032199999992,
                    "velocity": 0.16535433070866143,
                    "duration": 0.32041000000000963
                },
                {
                    "name": "B3",
                    "midi": 59,
                    "time": 205.7032199999992,
                    "velocity": 0.1968503937007874,
                    "duration": 0.32041000000000963
                },
                {
                    "name": "C#3",
                    "midi": 49,
                    "time": 206.0236299999992,
                    "velocity": 0.1732283464566929,
                    "duration": 0.3204099999999812
                },
                {
                    "name": "D#3",
                    "midi": 51,
                    "time": 206.0236299999992,
                    "velocity": 0.2047244094488189,
                    "duration": 0.3204099999999812
                },
                {
                    "name": "B2",
                    "midi": 47,
                    "time": 206.34403999999918,
                    "velocity": 0.1732283464566929,
                    "duration": 0.32041000000000963
                },
                {
                    "name": "D#3",
                    "midi": 51,
                    "time": 206.34403999999918,
                    "velocity": 0.2047244094488189,
                    "duration": 0.32041000000000963
                },
                {
                    "name": "B2",
                    "midi": 47,
                    "time": 206.6644499999992,
                    "velocity": 0.1732283464566929,
                    "duration": 0.32041000000000963
                },
                {
                    "name": "D#3",
                    "midi": 51,
                    "time": 206.6644499999992,
                    "velocity": 0.2047244094488189,
                    "duration": 0.32041000000000963
                },
                {
                    "name": "C#3",
                    "midi": 49,
                    "time": 206.9848599999992,
                    "velocity": 0.1732283464566929,
                    "duration": 0.32041000000000963
                },
                {
                    "name": "D#3",
                    "midi": 51,
                    "time": 206.9848599999992,
                    "velocity": 0.1889763779527559,
                    "duration": 0.32041000000000963
                },
                {
                    "name": "B2",
                    "midi": 47,
                    "time": 207.3052699999992,
                    "velocity": 0.1732283464566929,
                    "duration": 0.32041000000000963
                },
                {
                    "name": "D#3",
                    "midi": 51,
                    "time": 207.3052699999992,
                    "velocity": 0.2047244094488189,
                    "duration": 0.32041000000000963
                },
                {
                    "name": "B2",
                    "midi": 47,
                    "time": 207.62567999999922,
                    "velocity": 0.1732283464566929,
                    "duration": 0.32041000000000963
                },
                {
                    "name": "D#3",
                    "midi": 51,
                    "time": 207.62567999999922,
                    "velocity": 0.2047244094488189,
                    "duration": 0.32041000000000963
                },
                {
                    "name": "A#2",
                    "midi": 46,
                    "time": 207.94608999999923,
                    "velocity": 0.16535433070866143,
                    "duration": 0.32041000000000963
                },
                {
                    "name": "D#3",
                    "midi": 51,
                    "time": 207.94608999999923,
                    "velocity": 0.1968503937007874,
                    "duration": 0.32041000000000963
                },
                {
                    "name": "G#2",
                    "midi": 44,
                    "time": 208.26649999999924,
                    "velocity": 0.15748031496062992,
                    "duration": 0.32041000000000963
                },
                {
                    "name": "D#3",
                    "midi": 51,
                    "time": 208.26649999999924,
                    "velocity": 0.1889763779527559,
                    "duration": 0.32041000000000963
                },
                {
                    "name": "C#2",
                    "midi": 37,
                    "time": 208.58690999999925,
                    "velocity": 0.15748031496062992,
                    "duration": 0.3204099999999812
                },
                {
                    "name": "C#3",
                    "midi": 49,
                    "time": 209.22772999999924,
                    "velocity": 0.2125984251968504,
                    "duration": 0.24030750000000012
                },
                {
                    "name": "D3",
                    "midi": 50,
                    "time": 209.46803749999924,
                    "velocity": 0.2047244094488189,
                    "duration": 0.04005125000000476
                },
                {
                    "name": "D#3",
                    "midi": 51,
                    "time": 209.50808874999925,
                    "velocity": 0.2047244094488189,
                    "duration": 0.04005125000000476
                },
                {
                    "name": "F3",
                    "midi": 53,
                    "time": 209.54813999999925,
                    "velocity": 0.1968503937007874,
                    "duration": 0.05340166666667301
                },
                {
                    "name": "D#3",
                    "midi": 51,
                    "time": 209.60154166666592,
                    "velocity": 0.16535433070866143,
                    "duration": 0.05340166666667301
                },
                {
                    "name": "F3",
                    "midi": 53,
                    "time": 209.6549433333326,
                    "velocity": 0.1889763779527559,
                    "duration": 0.05340166666667301
                },
                {
                    "name": "D#3",
                    "midi": 51,
                    "time": 209.70834499999927,
                    "velocity": 0.1732283464566929,
                    "duration": 0.05340166666667301
                },
                {
                    "name": "F3",
                    "midi": 53,
                    "time": 209.76174666666594,
                    "velocity": 0.1889763779527559,
                    "duration": 0.05340166666667301
                },
                {
                    "name": "D#3",
                    "midi": 51,
                    "time": 209.81514833333262,
                    "velocity": 0.16535433070866143,
                    "duration": 0.05340166666667301
                },
                {
                    "name": "F3",
                    "midi": 53,
                    "time": 209.8685499999993,
                    "velocity": 0.1889763779527559,
                    "duration": 0.05340166666667301
                },
                {
                    "name": "D#3",
                    "midi": 51,
                    "time": 209.92195166666596,
                    "velocity": 0.16535433070866143,
                    "duration": 0.05340166666667301
                },
                {
                    "name": "F3",
                    "midi": 53,
                    "time": 209.97535333333263,
                    "velocity": 0.1889763779527559,
                    "duration": 0.05340166666667301
                },
                {
                    "name": "D#3",
                    "midi": 51,
                    "time": 210.0287549999993,
                    "velocity": 0.16535433070866143,
                    "duration": 0.05340166666667301
                },
                {
                    "name": "F3",
                    "midi": 53,
                    "time": 210.08215666666598,
                    "velocity": 0.1889763779527559,
                    "duration": 0.05340166666667301
                },
                {
                    "name": "D#3",
                    "midi": 51,
                    "time": 210.13555833333265,
                    "velocity": 0.16535433070866143,
                    "duration": 0.05340166666667301
                },
                {
                    "name": "F3",
                    "midi": 53,
                    "time": 210.18895999999933,
                    "velocity": 0.1889763779527559,
                    "duration": 0.08010250000000951
                },
                {
                    "name": "D#3",
                    "midi": 51,
                    "time": 210.26906249999934,
                    "velocity": 0.16535433070866143,
                    "duration": 0.08010250000000951
                },
                {
                    "name": "F3",
                    "midi": 53,
                    "time": 210.34916499999935,
                    "velocity": 0.1889763779527559,
                    "duration": 0.04005125000000476
                },
                {
                    "name": "D#3",
                    "midi": 51,
                    "time": 210.38921624999935,
                    "velocity": 0.15748031496062992,
                    "duration": 0.04005125000000476
                },
                {
                    "name": "C#3",
                    "midi": 49,
                    "time": 210.42926749999936,
                    "velocity": 0.1889763779527559,
                    "duration": 0.04005125000000476
                },
                {
                    "name": "D#3",
                    "midi": 51,
                    "time": 210.46931874999936,
                    "velocity": 0.14173228346456693,
                    "duration": 0.04005125000000476
                },
                {
                    "name": "F3",
                    "midi": 53,
                    "time": 210.50936999999936,
                    "velocity": 0.25196850393700787,
                    "duration": 0.3204099999999812
                },
                {
                    "name": "C#2",
                    "midi": 37,
                    "time": 210.82977999999935,
                    "velocity": 0.1968503937007874,
                    "duration": 0.32041000000000963
                },
                {
                    "name": "C#3",
                    "midi": 49,
                    "time": 211.15018999999936,
                    "velocity": 0.2125984251968504,
                    "duration": 0.24030750000000012
                },
                {
                    "name": "D3",
                    "midi": 50,
                    "time": 211.39049749999936,
                    "velocity": 0.2047244094488189,
                    "duration": 0.04005125000000476
                },
                {
                    "name": "D#3",
                    "midi": 51,
                    "time": 211.43054874999936,
                    "velocity": 0.2047244094488189,
                    "duration": 0.04005125000000476
                },
                {
                    "name": "F3",
                    "midi": 53,
                    "time": 211.47059999999937,
                    "velocity": 0.1968503937007874,
                    "duration": 0.05340166666667301
                },
                {
                    "name": "D#3",
                    "midi": 51,
                    "time": 211.52400166666604,
                    "velocity": 0.16535433070866143,
                    "duration": 0.05340166666667301
                },
                {
                    "name": "F3",
                    "midi": 53,
                    "time": 211.5774033333327,
                    "velocity": 0.1889763779527559,
                    "duration": 0.05340166666667301
                },
                {
                    "name": "D#3",
                    "midi": 51,
                    "time": 211.63080499999938,
                    "velocity": 0.1732283464566929,
                    "duration": 0.05340166666667301
                },
                {
                    "name": "F3",
                    "midi": 53,
                    "time": 211.68420666666606,
                    "velocity": 0.1889763779527559,
                    "duration": 0.05340166666667301
                },
                {
                    "name": "D#3",
                    "midi": 51,
                    "time": 211.73760833333273,
                    "velocity": 0.16535433070866143,
                    "duration": 0.05340166666667301
                },
                {
                    "name": "F3",
                    "midi": 53,
                    "time": 211.7910099999994,
                    "velocity": 0.1889763779527559,
                    "duration": 0.05340166666667301
                },
                {
                    "name": "D#3",
                    "midi": 51,
                    "time": 211.84441166666608,
                    "velocity": 0.16535433070866143,
                    "duration": 0.05340166666667301
                },
                {
                    "name": "F3",
                    "midi": 53,
                    "time": 211.89781333333275,
                    "velocity": 0.1889763779527559,
                    "duration": 0.05340166666667301
                },
                {
                    "name": "D#3",
                    "midi": 51,
                    "time": 211.95121499999942,
                    "velocity": 0.16535433070866143,
                    "duration": 0.05340166666667301
                },
                {
                    "name": "F3",
                    "midi": 53,
                    "time": 212.0046166666661,
                    "velocity": 0.1889763779527559,
                    "duration": 0.05340166666667301
                },
                {
                    "name": "D#3",
                    "midi": 51,
                    "time": 212.05801833333277,
                    "velocity": 0.16535433070866143,
                    "duration": 0.05340166666667301
                },
                {
                    "name": "F3",
                    "midi": 53,
                    "time": 212.11141999999944,
                    "velocity": 0.1889763779527559,
                    "duration": 0.08010250000000951
                },
                {
                    "name": "D#3",
                    "midi": 51,
                    "time": 212.19152249999945,
                    "velocity": 0.16535433070866143,
                    "duration": 0.08010250000000951
                },
                {
                    "name": "F3",
                    "midi": 53,
                    "time": 212.27162499999946,
                    "velocity": 0.1889763779527559,
                    "duration": 0.04005125000000476
                },
                {
                    "name": "D#3",
                    "midi": 51,
                    "time": 212.31167624999946,
                    "velocity": 0.15748031496062992,
                    "duration": 0.04005125000000476
                },
                {
                    "name": "C#3",
                    "midi": 49,
                    "time": 212.35172749999947,
                    "velocity": 0.1889763779527559,
                    "duration": 0.04005125000000476
                },
                {
                    "name": "D#3",
                    "midi": 51,
                    "time": 212.39177874999947,
                    "velocity": 0.14173228346456693,
                    "duration": 0.04005125000000476
                },
                {
                    "name": "F3",
                    "midi": 53,
                    "time": 212.43182999999948,
                    "velocity": 0.2677165354330709,
                    "duration": 0.32041000000000963
                },
                {
                    "name": "C#2",
                    "midi": 37,
                    "time": 212.7522399999995,
                    "velocity": 0.29133858267716534,
                    "duration": 0.32041000000000963
                },
                {
                    "name": "C#3",
                    "midi": 49,
                    "time": 213.0726499999995,
                    "velocity": 0.15748031496062992,
                    "duration": 0.32041000000000963
                },
                {
                    "name": "G#3",
                    "midi": 56,
                    "time": 213.0726499999995,
                    "velocity": 0.15748031496062992,
                    "duration": 0.32041000000000963
                },
                {
                    "name": "C#4",
                    "midi": 61,
                    "time": 213.0726499999995,
                    "velocity": 0.23622047244094488,
                    "duration": 0.32041000000000963
                },
                {
                    "name": "C#3",
                    "midi": 49,
                    "time": 213.3930599999995,
                    "velocity": 0.18110236220472442,
                    "duration": 0.32041000000000963
                },
                {
                    "name": "G#3",
                    "midi": 56,
                    "time": 213.3930599999995,
                    "velocity": 0.18110236220472442,
                    "duration": 0.32041000000000963
                },
                {
                    "name": "C#4",
                    "midi": 61,
                    "time": 213.3930599999995,
                    "velocity": 0.2677165354330709,
                    "duration": 0.32041000000000963
                },
                {
                    "name": "C#3",
                    "midi": 49,
                    "time": 213.71346999999952,
                    "velocity": 0.1889763779527559,
                    "duration": 0.32041000000000963
                },
                {
                    "name": "G#3",
                    "midi": 56,
                    "time": 213.71346999999952,
                    "velocity": 0.1889763779527559,
                    "duration": 0.32041000000000963
                },
                {
                    "name": "B3",
                    "midi": 59,
                    "time": 213.71346999999952,
                    "velocity": 0.28346456692913385,
                    "duration": 0.32041000000000963
                },
                {
                    "name": "C#3",
                    "midi": 49,
                    "time": 214.03387999999953,
                    "velocity": 0.18110236220472442,
                    "duration": 0.32041000000000963
                },
                {
                    "name": "G#3",
                    "midi": 56,
                    "time": 214.03387999999953,
                    "velocity": 0.1732283464566929,
                    "duration": 0.32041000000000963
                },
                {
                    "name": "B3",
                    "midi": 59,
                    "time": 214.03387999999953,
                    "velocity": 0.30708661417322836,
                    "duration": 0.32041000000000963
                },
                {
                    "name": "C#3",
                    "midi": 49,
                    "time": 214.35428999999954,
                    "velocity": 0.2204724409448819,
                    "duration": 0.32041000000000963
                },
                {
                    "name": "G#3",
                    "midi": 56,
                    "time": 214.35428999999954,
                    "velocity": 0.2677165354330709,
                    "duration": 0.32041000000000963
                },
                {
                    "name": "B3",
                    "midi": 59,
                    "time": 214.35428999999954,
                    "velocity": 0.2677165354330709,
                    "duration": 0.32041000000000963
                },
                {
                    "name": "C#3",
                    "midi": 49,
                    "time": 214.67469999999955,
                    "velocity": 0.2283464566929134,
                    "duration": 0.32041000000000963
                },
                {
                    "name": "G#3",
                    "midi": 56,
                    "time": 214.67469999999955,
                    "velocity": 0.2677165354330709,
                    "duration": 0.32041000000000963
                },
                {
                    "name": "B3",
                    "midi": 59,
                    "time": 214.67469999999955,
                    "velocity": 0.2755905511811024,
                    "duration": 0.32041000000000963
                },
                {
                    "name": "B3",
                    "midi": 59,
                    "time": 214.99510999999956,
                    "velocity": 0.2125984251968504,
                    "duration": 0.32041000000000963
                },
                {
                    "name": "C#3",
                    "midi": 49,
                    "time": 214.99510999999956,
                    "velocity": 0.18110236220472442,
                    "duration": 0.32041000000000963
                },
                {
                    "name": "G#3",
                    "midi": 56,
                    "time": 214.99510999999956,
                    "velocity": 0.1889763779527559,
                    "duration": 0.32041000000000963
                },
                {
                    "name": "C#3",
                    "midi": 49,
                    "time": 215.31551999999957,
                    "velocity": 0.2125984251968504,
                    "duration": 0.3204099999999812
                },
                {
                    "name": "G#3",
                    "midi": 56,
                    "time": 215.31551999999957,
                    "velocity": 0.2677165354330709,
                    "duration": 0.3204099999999812
                },
                {
                    "name": "B3",
                    "midi": 59,
                    "time": 215.31551999999957,
                    "velocity": 0.2677165354330709,
                    "duration": 0.3204099999999812
                },
                {
                    "name": "C#3",
                    "midi": 49,
                    "time": 215.63592999999955,
                    "velocity": 0.11023622047244094,
                    "duration": 0.48061500000000024
                },
                {
                    "name": "G#3",
                    "midi": 56,
                    "time": 215.63592999999955,
                    "velocity": 0.15748031496062992,
                    "duration": 0.48061500000000024
                },
                {
                    "name": "B3",
                    "midi": 59,
                    "time": 215.63592999999955,
                    "velocity": 0.28346456692913385,
                    "duration": 0.48061500000000024
                },
                {
                    "name": "D2",
                    "midi": 38,
                    "time": 216.11654499999955,
                    "velocity": 0.2440944881889764,
                    "duration": 0.1602049999999906
                },
                {
                    "name": "D3",
                    "midi": 50,
                    "time": 216.11654499999955,
                    "velocity": 0.30708661417322836,
                    "duration": 0.1602049999999906
                },
                {
                    "name": "D2",
                    "midi": 38,
                    "time": 216.27674999999954,
                    "velocity": 0.2755905511811024,
                    "duration": 0.32041000000000963
                },
                {
                    "name": "D3",
                    "midi": 50,
                    "time": 216.27674999999954,
                    "velocity": 0.33858267716535434,
                    "duration": 0.32041000000000963
                },
                {
                    "name": "C#2",
                    "midi": 37,
                    "time": 216.59715999999955,
                    "velocity": 0.30708661417322836,
                    "duration": 0.48061500000000024
                },
                {
                    "name": "C#3",
                    "midi": 49,
                    "time": 216.59715999999955,
                    "velocity": 0.3700787401574803,
                    "duration": 0.48061500000000024
                },
                {
                    "name": "C2",
                    "midi": 36,
                    "time": 217.07777499999955,
                    "velocity": 0.2440944881889764,
                    "duration": 0.1602049999999906
                },
                {
                    "name": "C3",
                    "midi": 48,
                    "time": 217.07777499999955,
                    "velocity": 0.2992125984251969,
                    "duration": 0.1602049999999906
                },
                {
                    "name": "C2",
                    "midi": 36,
                    "time": 217.23797999999954,
                    "velocity": 0.2677165354330709,
                    "duration": 0.32041000000003805
                },
                {
                    "name": "C3",
                    "midi": 48,
                    "time": 217.23797999999954,
                    "velocity": 0.33070866141732286,
                    "duration": 0.32041000000003805
                },
                {
                    "name": "B1",
                    "midi": 35,
                    "time": 217.55838999999958,
                    "velocity": 0.33070866141732286,
                    "duration": 0.48061500000000024
                },
                {
                    "name": "B2",
                    "midi": 47,
                    "time": 217.55838999999958,
                    "velocity": 0.3937007874015748,
                    "duration": 0.48061500000000024
                },
                {
                    "name": "A#1",
                    "midi": 34,
                    "time": 218.03900499999958,
                    "velocity": 0.25196850393700787,
                    "duration": 0.1602049999999906
                },
                {
                    "name": "A#2",
                    "midi": 46,
                    "time": 218.03900499999958,
                    "velocity": 0.31496062992125984,
                    "duration": 0.1602049999999906
                },
                {
                    "name": "A#1",
                    "midi": 34,
                    "time": 218.19920999999957,
                    "velocity": 0.2677165354330709,
                    "duration": 0.32041000000003805
                },
                {
                    "name": "A#2",
                    "midi": 46,
                    "time": 218.19920999999957,
                    "velocity": 0.3464566929133858,
                    "duration": 0.32041000000003805
                },
                {
                    "name": "A1",
                    "midi": 33,
                    "time": 218.5196199999996,
                    "velocity": 0.3543307086614173,
                    "duration": 0.48061500000000024
                },
                {
                    "name": "A2",
                    "midi": 45,
                    "time": 218.5196199999996,
                    "velocity": 0.4330708661417323,
                    "duration": 0.48061500000000024
                },
                {
                    "name": "G#1",
                    "midi": 32,
                    "time": 219.0002349999996,
                    "velocity": 0.2755905511811024,
                    "duration": 0.1602049999999906
                },
                {
                    "name": "G#2",
                    "midi": 44,
                    "time": 219.0002349999996,
                    "velocity": 0.3464566929133858,
                    "duration": 0.1602049999999906
                },
                {
                    "name": "G#1",
                    "midi": 32,
                    "time": 219.1604399999996,
                    "velocity": 0.29133858267716534,
                    "duration": 0.32041000000000963
                },
                {
                    "name": "G#2",
                    "midi": 44,
                    "time": 219.1604399999996,
                    "velocity": 0.3779527559055118,
                    "duration": 0.32041000000000963
                },
                {
                    "name": "F#1",
                    "midi": 30,
                    "time": 219.4808499999996,
                    "velocity": 0.2283464566929134,
                    "duration": 0.32041000000000963
                },
                {
                    "name": "F#2",
                    "midi": 42,
                    "time": 219.4808499999996,
                    "velocity": 0.4409448818897638,
                    "duration": 0.32041000000000963
                },
                {
                    "name": "A#1",
                    "midi": 34,
                    "time": 219.80125999999962,
                    "velocity": 0.33070866141732286,
                    "duration": 0.32041000000000963
                },
                {
                    "name": "A#2",
                    "midi": 46,
                    "time": 219.80125999999962,
                    "velocity": 0.3858267716535433,
                    "duration": 0.32041000000000963
                },
                {
                    "name": "D#1",
                    "midi": 27,
                    "time": 220.12166999999963,
                    "velocity": 0.28346456692913385,
                    "duration": 0.32041000000000963
                },
                {
                    "name": "D#2",
                    "midi": 39,
                    "time": 220.12166999999963,
                    "velocity": 0.33070866141732286,
                    "duration": 0.32041000000000963
                },
                {
                    "name": "E1",
                    "midi": 28,
                    "time": 220.44207999999963,
                    "velocity": 0.28346456692913385,
                    "duration": 0.060076874999992924
                },
                {
                    "name": "E2",
                    "midi": 40,
                    "time": 220.44207999999963,
                    "velocity": 0.33070866141732286,
                    "duration": 0.060076874999992924
                },
                {
                    "name": "F1",
                    "midi": 29,
                    "time": 220.60228499999963,
                    "velocity": 0.28346456692913385,
                    "duration": 0.060076874999992924
                },
                {
                    "name": "F2",
                    "midi": 41,
                    "time": 220.60228499999963,
                    "velocity": 0.3543307086614173,
                    "duration": 0.060076874999992924
                },
                {
                    "name": "F#1",
                    "midi": 30,
                    "time": 220.76248999999962,
                    "velocity": 0.33070866141732286,
                    "duration": 0.32041000000000963
                },
                {
                    "name": "F#2",
                    "midi": 42,
                    "time": 220.76248999999962,
                    "velocity": 0.3937007874015748,
                    "duration": 0.32041000000000963
                },
                {
                    "name": "G#1",
                    "midi": 32,
                    "time": 221.08289999999963,
                    "velocity": 0.3937007874015748,
                    "duration": 0.2603331249999883
                },
                {
                    "name": "G#2",
                    "midi": 44,
                    "time": 221.08289999999963,
                    "velocity": 0.4645669291338583,
                    "duration": 0.2603331249999883
                },
                {
                    "name": "G#2",
                    "midi": 44,
                    "time": 221.3432331249996,
                    "velocity": 0.29133858267716534,
                    "duration": 0.3204099999999812
                },
                {
                    "name": "D#3",
                    "midi": 51,
                    "time": 221.3632587499996,
                    "velocity": 0.29133858267716534,
                    "duration": 0.30038437499999304
                },
                {
                    "name": "F3",
                    "midi": 53,
                    "time": 221.3832843749996,
                    "velocity": 0.29133858267716534,
                    "duration": 0.2803587500000049
                },
                {
                    "name": "B3",
                    "midi": 59,
                    "time": 221.40330999999958,
                    "velocity": 0.36220472440944884,
                    "duration": 0.2603331250000167
                },
                {
                    "name": "A#2",
                    "midi": 46,
                    "time": 221.6636431249996,
                    "velocity": 0.29133858267716534,
                    "duration": 0.38048687500000256
                },
                {
                    "name": "F3",
                    "midi": 53,
                    "time": 221.68366874999958,
                    "velocity": 0.29133858267716534,
                    "duration": 0.3604612500000144
                },
                {
                    "name": "G#3",
                    "midi": 56,
                    "time": 221.7036943749996,
                    "velocity": 0.29133858267716534,
                    "duration": 0.3404356249999978
                },
                {
                    "name": "D4",
                    "midi": 62,
                    "time": 221.7237199999996,
                    "velocity": 0.36220472440944884,
                    "duration": 0.32041000000000963
                },
                {
                    "name": "F#1",
                    "midi": 30,
                    "time": 222.0441299999996,
                    "velocity": 0.2992125984251969,
                    "duration": 0.32041000000000963
                },
                {
                    "name": "F#2",
                    "midi": 42,
                    "time": 222.0441299999996,
                    "velocity": 0.3464566929133858,
                    "duration": 0.32041000000000963
                },
                {
                    "name": "G1",
                    "midi": 31,
                    "time": 222.3645399999996,
                    "velocity": 0.2992125984251969,
                    "duration": 0.060076874999992924
                },
                {
                    "name": "G2",
                    "midi": 43,
                    "time": 222.3645399999996,
                    "velocity": 0.3464566929133858,
                    "duration": 0.060076874999992924
                },
                {
                    "name": "G#1",
                    "midi": 32,
                    "time": 222.5247449999996,
                    "velocity": 0.2755905511811024,
                    "duration": 0.060076874999992924
                },
                {
                    "name": "G#2",
                    "midi": 44,
                    "time": 222.5247449999996,
                    "velocity": 0.33858267716535434,
                    "duration": 0.060076874999992924
                },
                {
                    "name": "A1",
                    "midi": 33,
                    "time": 222.6849499999996,
                    "velocity": 0.33858267716535434,
                    "duration": 0.32041000000000963
                },
                {
                    "name": "A2",
                    "midi": 45,
                    "time": 222.6849499999996,
                    "velocity": 0.4015748031496063,
                    "duration": 0.32041000000000963
                },
                {
                    "name": "B1",
                    "midi": 35,
                    "time": 223.0053599999996,
                    "velocity": 0.41732283464566927,
                    "duration": 0.2603331250000167
                },
                {
                    "name": "B2",
                    "midi": 47,
                    "time": 223.0053599999996,
                    "velocity": 0.49606299212598426,
                    "duration": 0.2603331250000167
                },
                {
                    "name": "C3",
                    "midi": 48,
                    "time": 223.26569312499961,
                    "velocity": 0.30708661417322836,
                    "duration": 0.32041000000000963
                },
                {
                    "name": "F#3",
                    "midi": 54,
                    "time": 223.2857187499996,
                    "velocity": 0.30708661417322836,
                    "duration": 0.30038437500002146
                },
                {
                    "name": "G#3",
                    "midi": 56,
                    "time": 223.30574437499962,
                    "velocity": 0.30708661417322836,
                    "duration": 0.2803587500000049
                },
                {
                    "name": "D4",
                    "midi": 62,
                    "time": 223.3257699999996,
                    "velocity": 0.3779527559055118,
                    "duration": 0.2603331250000167
                },
                {
                    "name": "C#3",
                    "midi": 49,
                    "time": 223.58610312499962,
                    "velocity": 0.30708661417322836,
                    "duration": 0.38048687499997413
                },
                {
                    "name": "G#3",
                    "midi": 56,
                    "time": 223.6061287499996,
                    "velocity": 0.30708661417322836,
                    "duration": 0.36046124999998597
                },
                {
                    "name": "B3",
                    "midi": 59,
                    "time": 223.6261543749996,
                    "velocity": 0.30708661417322836,
                    "duration": 0.3404356249999978
                },
                {
                    "name": "F4",
                    "midi": 65,
                    "time": 223.6461799999996,
                    "velocity": 0.3779527559055118,
                    "duration": 0.32041000000000963
                },
                {
                    "name": "A1",
                    "midi": 33,
                    "time": 223.9665899999996,
                    "velocity": 0.28346456692913385,
                    "duration": 0.32041000000000963
                },
                {
                    "name": "A2",
                    "midi": 45,
                    "time": 223.9665899999996,
                    "velocity": 0.33070866141732286,
                    "duration": 0.32041000000000963
                },
                {
                    "name": "B1",
                    "midi": 35,
                    "time": 224.2869999999996,
                    "velocity": 0.28346456692913385,
                    "duration": 0.060076874999992924
                },
                {
                    "name": "B2",
                    "midi": 47,
                    "time": 224.2869999999996,
                    "velocity": 0.33070866141732286,
                    "duration": 0.060076874999992924
                },
                {
                    "name": "C2",
                    "midi": 36,
                    "time": 224.4472049999996,
                    "velocity": 0.29133858267716534,
                    "duration": 0.060076874999992924
                },
                {
                    "name": "C3",
                    "midi": 48,
                    "time": 224.4472049999996,
                    "velocity": 0.3543307086614173,
                    "duration": 0.060076874999992924
                },
                {
                    "name": "C#2",
                    "midi": 37,
                    "time": 224.6074099999996,
                    "velocity": 0.36220472440944884,
                    "duration": 0.32041000000000963
                },
                {
                    "name": "C#3",
                    "midi": 49,
                    "time": 224.6074099999996,
                    "velocity": 0.4251968503937008,
                    "duration": 0.32041000000000963
                },
                {
                    "name": "D2",
                    "midi": 38,
                    "time": 224.9278199999996,
                    "velocity": 0.31496062992125984,
                    "duration": 0.32041000000000963
                },
                {
                    "name": "D3",
                    "midi": 50,
                    "time": 224.9278199999996,
                    "velocity": 0.3700787401574803,
                    "duration": 0.32041000000000963
                },
                {
                    "name": "D#2",
                    "midi": 39,
                    "time": 225.2482299999996,
                    "velocity": 0.2992125984251969,
                    "duration": 0.060076874999992924
                },
                {
                    "name": "D#3",
                    "midi": 51,
                    "time": 225.2482299999996,
                    "velocity": 0.3464566929133858,
                    "duration": 0.060076874999992924
                },
                {
                    "name": "E2",
                    "midi": 40,
                    "time": 225.4084349999996,
                    "velocity": 0.29133858267716534,
                    "duration": 0.060076874999992924
                },
                {
                    "name": "E3",
                    "midi": 52,
                    "time": 225.4084349999996,
                    "velocity": 0.3543307086614173,
                    "duration": 0.060076874999992924
                },
                {
                    "name": "F2",
                    "midi": 41,
                    "time": 225.5686399999996,
                    "velocity": 0.3543307086614173,
                    "duration": 0.32041000000000963
                },
                {
                    "name": "F3",
                    "midi": 53,
                    "time": 225.5686399999996,
                    "velocity": 0.41732283464566927,
                    "duration": 0.32041000000000963
                },
                {
                    "name": "F#2",
                    "midi": 42,
                    "time": 225.8890499999996,
                    "velocity": 0.31496062992125984,
                    "duration": 0.32041000000000963
                },
                {
                    "name": "F#3",
                    "midi": 54,
                    "time": 225.8890499999996,
                    "velocity": 0.3700787401574803,
                    "duration": 0.32041000000000963
                },
                {
                    "name": "G#2",
                    "midi": 44,
                    "time": 226.2094599999996,
                    "velocity": 0.2992125984251969,
                    "duration": 0.060076874999992924
                },
                {
                    "name": "G#3",
                    "midi": 56,
                    "time": 226.2094599999996,
                    "velocity": 0.3464566929133858,
                    "duration": 0.060076874999992924
                },
                {
                    "name": "A2",
                    "midi": 45,
                    "time": 226.3696649999996,
                    "velocity": 0.29133858267716534,
                    "duration": 0.060076874999992924
                },
                {
                    "name": "A3",
                    "midi": 57,
                    "time": 226.3696649999996,
                    "velocity": 0.3543307086614173,
                    "duration": 0.060076874999992924
                },
                {
                    "name": "A#2",
                    "midi": 46,
                    "time": 226.5298699999996,
                    "velocity": 0.3700787401574803,
                    "duration": 0.32041000000000963
                },
                {
                    "name": "A#3",
                    "midi": 58,
                    "time": 226.5298699999996,
                    "velocity": 0.4409448818897638,
                    "duration": 0.32041000000000963
                },
                {
                    "name": "B2",
                    "midi": 47,
                    "time": 226.8502799999996,
                    "velocity": 0.3779527559055118,
                    "duration": 0.32041000000000963
                },
                {
                    "name": "B3",
                    "midi": 59,
                    "time": 226.8502799999996,
                    "velocity": 0.44881889763779526,
                    "duration": 0.32041000000000963
                },
                {
                    "name": "B1",
                    "midi": 35,
                    "time": 227.1706899999996,
                    "velocity": 0.33858267716535434,
                    "duration": 0.32041000000000963
                },
                {
                    "name": "B2",
                    "midi": 47,
                    "time": 227.1706899999996,
                    "velocity": 0.4094488188976378,
                    "duration": 0.32041000000000963
                },
                {
                    "name": "C2",
                    "midi": 36,
                    "time": 227.49109999999962,
                    "velocity": 0.33858267716535434,
                    "duration": 0.32041000000000963
                },
                {
                    "name": "C3",
                    "midi": 48,
                    "time": 227.49109999999962,
                    "velocity": 0.4094488188976378,
                    "duration": 0.32041000000000963
                },
                {
                    "name": "C#2",
                    "midi": 37,
                    "time": 227.81150999999963,
                    "velocity": 0.3937007874015748,
                    "duration": 0.3204099999999812
                },
                {
                    "name": "C#3",
                    "midi": 49,
                    "time": 227.81150999999963,
                    "velocity": 0.47244094488188976,
                    "duration": 0.3204099999999812
                },
                {
                    "name": "C#3",
                    "midi": 49,
                    "time": 228.1319199999996,
                    "velocity": 0.3779527559055118,
                    "duration": 0.32041000000000963
                },
                {
                    "name": "A#3",
                    "midi": 58,
                    "time": 228.1319199999996,
                    "velocity": 0.44881889763779526,
                    "duration": 0.32041000000000963
                },
                {
                    "name": "C#4",
                    "midi": 61,
                    "time": 228.45232999999962,
                    "velocity": 0.44881889763779526,
                    "duration": 0.32041000000000963
                },
                {
                    "name": "F#3",
                    "midi": 54,
                    "time": 228.45232999999962,
                    "velocity": 0.3779527559055118,
                    "duration": 0.32041000000000963
                },
                {
                    "name": "A#3",
                    "midi": 58,
                    "time": 228.77273999999963,
                    "velocity": 0.33070866141732286,
                    "duration": 0.32041000000000963
                },
                {
                    "name": "F#4",
                    "midi": 66,
                    "time": 228.77273999999963,
                    "velocity": 0.47244094488188976,
                    "duration": 0.32041000000000963
                },
                {
                    "name": "C#4",
                    "midi": 61,
                    "time": 229.09314999999964,
                    "velocity": 0.31496062992125984,
                    "duration": 0.32041000000000963
                },
                {
                    "name": "A#4",
                    "midi": 70,
                    "time": 229.09314999999964,
                    "velocity": 0.44881889763779526,
                    "duration": 0.32041000000000963
                },
                {
                    "name": "C#5",
                    "midi": 73,
                    "time": 229.41355999999965,
                    "velocity": 0.44881889763779526,
                    "duration": 0.32041000000000963
                },
                {
                    "name": "F#4",
                    "midi": 66,
                    "time": 229.41355999999965,
                    "velocity": 0.31496062992125984,
                    "duration": 0.32041000000000963
                },
                {
                    "name": "A#4",
                    "midi": 70,
                    "time": 229.73396999999966,
                    "velocity": 0.3779527559055118,
                    "duration": 0.32041000000000963
                },
                {
                    "name": "F#5",
                    "midi": 78,
                    "time": 229.73396999999966,
                    "velocity": 0.44881889763779526,
                    "duration": 0.32041000000000963
                },
                {
                    "name": "B4",
                    "midi": 71,
                    "time": 230.05437999999967,
                    "velocity": 0.36220472440944884,
                    "duration": 0.32041000000000963
                },
                {
                    "name": "F5",
                    "midi": 77,
                    "time": 230.05437999999967,
                    "velocity": 0.4015748031496063,
                    "duration": 0.32041000000000963
                },
                {
                    "name": "C#4",
                    "midi": 61,
                    "time": 230.37478999999968,
                    "velocity": 0.33070866141732286,
                    "duration": 0.32041000000000963
                },
                {
                    "name": "F4",
                    "midi": 65,
                    "time": 230.37478999999968,
                    "velocity": 0.33070866141732286,
                    "duration": 0.32041000000000963
                },
                {
                    "name": "B4",
                    "midi": 71,
                    "time": 230.37478999999968,
                    "velocity": 0.4015748031496063,
                    "duration": 0.32041000000000963
                },
                {
                    "name": "C#4",
                    "midi": 61,
                    "time": 230.6951999999997,
                    "velocity": 0.36220472440944884,
                    "duration": 0.6408200000000193
                },
                {
                    "name": "F4",
                    "midi": 65,
                    "time": 230.6951999999997,
                    "velocity": 0.36220472440944884,
                    "duration": 0.32041000000000963
                },
                {
                    "name": "B4",
                    "midi": 71,
                    "time": 230.6951999999997,
                    "velocity": 0.4094488188976378,
                    "duration": 0.32041000000000963
                },
                {
                    "name": "F#3",
                    "midi": 54,
                    "time": 231.0156099999997,
                    "velocity": 0.2992125984251969,
                    "duration": 0.32041000000000963
                },
                {
                    "name": "A#4",
                    "midi": 70,
                    "time": 231.0156099999997,
                    "velocity": 0.3700787401574803,
                    "duration": 0.32041000000000963
                },
                {
                    "name": "C#3",
                    "midi": 49,
                    "time": 231.3360199999997,
                    "velocity": 0.2204724409448819,
                    "duration": 0.32041000000000963
                },
                {
                    "name": "F3",
                    "midi": 53,
                    "time": 231.3360199999997,
                    "velocity": 0.25984251968503935,
                    "duration": 0.32041000000000963
                },
                {
                    "name": "B3",
                    "midi": 59,
                    "time": 231.3360199999997,
                    "velocity": 0.2992125984251969,
                    "duration": 0.32041000000000963
                },
                {
                    "name": "C#3",
                    "midi": 49,
                    "time": 231.65642999999972,
                    "velocity": 0.2440944881889764,
                    "duration": 0.6408200000000193
                },
                {
                    "name": "F3",
                    "midi": 53,
                    "time": 231.65642999999972,
                    "velocity": 0.2677165354330709,
                    "duration": 0.32041000000000963
                },
                {
                    "name": "B3",
                    "midi": 59,
                    "time": 231.65642999999972,
                    "velocity": 0.33070866141732286,
                    "duration": 0.32041000000000963
                },
                {
                    "name": "F#2",
                    "midi": 42,
                    "time": 231.97683999999973,
                    "velocity": 0.25196850393700787,
                    "duration": 0.32041000000000963
                },
                {
                    "name": "A#3",
                    "midi": 58,
                    "time": 231.97683999999973,
                    "velocity": 0.2992125984251969,
                    "duration": 0.32041000000000963
                },
                {
                    "name": "C#3",
                    "midi": 49,
                    "time": 232.29724999999974,
                    "velocity": 0.2283464566929134,
                    "duration": 0.32041000000000963
                },
                {
                    "name": "F3",
                    "midi": 53,
                    "time": 232.29724999999974,
                    "velocity": 0.2440944881889764,
                    "duration": 0.32041000000000963
                },
                {
                    "name": "B3",
                    "midi": 59,
                    "time": 232.29724999999974,
                    "velocity": 0.28346456692913385,
                    "duration": 0.32041000000000963
                },
                {
                    "name": "C#3",
                    "midi": 49,
                    "time": 232.61765999999974,
                    "velocity": 0.23622047244094488,
                    "duration": 0.6408200000000193
                },
                {
                    "name": "F3",
                    "midi": 53,
                    "time": 232.61765999999974,
                    "velocity": 0.2677165354330709,
                    "duration": 0.32041000000000963
                },
                {
                    "name": "B3",
                    "midi": 59,
                    "time": 232.61765999999974,
                    "velocity": 0.2992125984251969,
                    "duration": 0.32041000000000963
                },
                {
                    "name": "F#2",
                    "midi": 42,
                    "time": 232.93806999999975,
                    "velocity": 0.25196850393700787,
                    "duration": 0.32041000000000963
                },
                {
                    "name": "A#3",
                    "midi": 58,
                    "time": 232.93806999999975,
                    "velocity": 0.2992125984251969,
                    "duration": 0.32041000000000963
                },
                {
                    "name": "G#2",
                    "midi": 44,
                    "time": 235.50134999999977,
                    "velocity": 0.28346456692913385,
                    "duration": 0.32041000000000963
                },
                {
                    "name": "G#3",
                    "midi": 56,
                    "time": 235.50134999999977,
                    "velocity": 0.33858267716535434,
                    "duration": 0.32041000000000963
                },
                {
                    "name": "F#2",
                    "midi": 42,
                    "time": 235.82175999999978,
                    "velocity": 0.23622047244094488,
                    "duration": 0.32041000000000963
                },
                {
                    "name": "F#3",
                    "midi": 54,
                    "time": 235.82175999999978,
                    "velocity": 0.29133858267716534,
                    "duration": 0.32041000000000963
                },
                {
                    "name": "D#2",
                    "midi": 39,
                    "time": 236.1421699999998,
                    "velocity": 0.23622047244094488,
                    "duration": 0.32041000000000963
                },
                {
                    "name": "D#3",
                    "midi": 51,
                    "time": 236.1421699999998,
                    "velocity": 0.29133858267716534,
                    "duration": 0.32041000000000963
                },
                {
                    "name": "F#2",
                    "midi": 42,
                    "time": 236.4625799999998,
                    "velocity": 0.28346456692913385,
                    "duration": 0.32041000000000963
                },
                {
                    "name": "F#3",
                    "midi": 54,
                    "time": 236.4625799999998,
                    "velocity": 0.33858267716535434,
                    "duration": 0.32041000000000963
                },
                {
                    "name": "F2",
                    "midi": 41,
                    "time": 236.7829899999998,
                    "velocity": 0.23622047244094488,
                    "duration": 0.32041000000000963
                },
                {
                    "name": "F3",
                    "midi": 53,
                    "time": 236.7829899999998,
                    "velocity": 0.29133858267716534,
                    "duration": 0.32041000000000963
                },
                {
                    "name": "C#2",
                    "midi": 37,
                    "time": 237.10339999999982,
                    "velocity": 0.23622047244094488,
                    "duration": 0.32041000000000963
                },
                {
                    "name": "C#3",
                    "midi": 49,
                    "time": 237.10339999999982,
                    "velocity": 0.29133858267716534,
                    "duration": 0.32041000000000963
                },
                {
                    "name": "D#2",
                    "midi": 39,
                    "time": 237.42380999999983,
                    "velocity": 0.28346456692913385,
                    "duration": 0.32041000000000963
                },
                {
                    "name": "D#3",
                    "midi": 51,
                    "time": 237.42380999999983,
                    "velocity": 0.33858267716535434,
                    "duration": 0.32041000000000963
                },
                {
                    "name": "C#2",
                    "midi": 37,
                    "time": 237.74421999999984,
                    "velocity": 0.23622047244094488,
                    "duration": 0.32041000000000963
                },
                {
                    "name": "C#3",
                    "midi": 49,
                    "time": 237.74421999999984,
                    "velocity": 0.29133858267716534,
                    "duration": 0.32041000000000963
                },
                {
                    "name": "A#1",
                    "midi": 34,
                    "time": 238.06462999999985,
                    "velocity": 0.23622047244094488,
                    "duration": 0.32041000000000963
                },
                {
                    "name": "A#2",
                    "midi": 46,
                    "time": 238.06462999999985,
                    "velocity": 0.29133858267716534,
                    "duration": 0.32041000000000963
                },
                {
                    "name": "B1",
                    "midi": 35,
                    "time": 238.38503999999986,
                    "velocity": 0.25196850393700787,
                    "duration": 0.32041000000000963
                },
                {
                    "name": "B2",
                    "midi": 47,
                    "time": 238.38503999999986,
                    "velocity": 0.30708661417322836,
                    "duration": 0.32041000000000963
                },
                {
                    "name": "A#1",
                    "midi": 34,
                    "time": 238.70544999999987,
                    "velocity": 0.2283464566929134,
                    "duration": 0.32041000000000963
                },
                {
                    "name": "A#2",
                    "midi": 46,
                    "time": 238.70544999999987,
                    "velocity": 0.2755905511811024,
                    "duration": 0.32041000000000963
                },
                {
                    "name": "F#1",
                    "midi": 30,
                    "time": 239.02585999999988,
                    "velocity": 0.2283464566929134,
                    "duration": 0.32041000000000963
                },
                {
                    "name": "F#2",
                    "midi": 42,
                    "time": 239.02585999999988,
                    "velocity": 0.2755905511811024,
                    "duration": 0.32041000000000963
                },
                {
                    "name": "D#1",
                    "midi": 27,
                    "time": 239.3462699999999,
                    "velocity": 0.31496062992125984,
                    "duration": 0.32041000000000963
                },
                {
                    "name": "D#2",
                    "midi": 39,
                    "time": 239.3462699999999,
                    "velocity": 0.3700787401574803,
                    "duration": 0.32041000000000963
                },
                {
                    "name": "E1",
                    "midi": 28,
                    "time": 239.6666799999999,
                    "velocity": 0.2992125984251969,
                    "duration": 0.060076874999992924
                },
                {
                    "name": "E2",
                    "midi": 40,
                    "time": 239.6666799999999,
                    "velocity": 0.3464566929133858,
                    "duration": 0.060076874999992924
                },
                {
                    "name": "F1",
                    "midi": 29,
                    "time": 239.8268849999999,
                    "velocity": 0.2992125984251969,
                    "duration": 0.060076874999992924
                },
                {
                    "name": "F2",
                    "midi": 41,
                    "time": 239.8268849999999,
                    "velocity": 0.3700787401574803,
                    "duration": 0.060076874999992924
                },
                {
                    "name": "F#1",
                    "midi": 30,
                    "time": 239.98708999999988,
                    "velocity": 0.3700787401574803,
                    "duration": 0.32041000000000963
                },
                {
                    "name": "F#2",
                    "midi": 42,
                    "time": 239.98708999999988,
                    "velocity": 0.4409448818897638,
                    "duration": 0.32041000000000963
                },
                {
                    "name": "G#1",
                    "midi": 32,
                    "time": 240.3074999999999,
                    "velocity": 0.4409448818897638,
                    "duration": 0.32041000000000963
                },
                {
                    "name": "G#2",
                    "midi": 44,
                    "time": 240.3074999999999,
                    "velocity": 0.5275590551181102,
                    "duration": 0.32041000000000963
                },
                {
                    "name": "G#2",
                    "midi": 44,
                    "time": 240.6279099999999,
                    "velocity": 0.33858267716535434,
                    "duration": 0.32041000000000963
                },
                {
                    "name": "D#3",
                    "midi": 51,
                    "time": 240.6279099999999,
                    "velocity": 0.33858267716535434,
                    "duration": 0.32041000000000963
                },
                {
                    "name": "F3",
                    "midi": 53,
                    "time": 240.6279099999999,
                    "velocity": 0.33858267716535434,
                    "duration": 0.32041000000000963
                },
                {
                    "name": "B3",
                    "midi": 59,
                    "time": 240.6279099999999,
                    "velocity": 0.4015748031496063,
                    "duration": 0.32041000000000963
                },
                {
                    "name": "A#2",
                    "midi": 46,
                    "time": 240.9483199999999,
                    "velocity": 0.33858267716535434,
                    "duration": 0.32041000000000963
                },
                {
                    "name": "F3",
                    "midi": 53,
                    "time": 240.9483199999999,
                    "velocity": 0.33858267716535434,
                    "duration": 0.32041000000000963
                },
                {
                    "name": "G#3",
                    "midi": 56,
                    "time": 240.9483199999999,
                    "velocity": 0.33858267716535434,
                    "duration": 0.32041000000000963
                },
                {
                    "name": "D4",
                    "midi": 62,
                    "time": 240.9483199999999,
                    "velocity": 0.4015748031496063,
                    "duration": 0.32041000000000963
                },
                {
                    "name": "F#1",
                    "midi": 30,
                    "time": 241.26872999999992,
                    "velocity": 0.31496062992125984,
                    "duration": 0.32041000000000963
                },
                {
                    "name": "F#2",
                    "midi": 42,
                    "time": 241.26872999999992,
                    "velocity": 0.3700787401574803,
                    "duration": 0.32041000000000963
                },
                {
                    "name": "G1",
                    "midi": 31,
                    "time": 241.58913999999993,
                    "velocity": 0.2992125984251969,
                    "duration": 0.060076874999992924
                },
                {
                    "name": "G2",
                    "midi": 43,
                    "time": 241.58913999999993,
                    "velocity": 0.3464566929133858,
                    "duration": 0.060076874999992924
                },
                {
                    "name": "G#1",
                    "midi": 32,
                    "time": 241.74934499999992,
                    "velocity": 0.2755905511811024,
                    "duration": 0.060076874999992924
                },
                {
                    "name": "G#2",
                    "midi": 44,
                    "time": 241.74934499999992,
                    "velocity": 0.33858267716535434,
                    "duration": 0.060076874999992924
                },
                {
                    "name": "A1",
                    "midi": 33,
                    "time": 241.9095499999999,
                    "velocity": 0.36220472440944884,
                    "duration": 0.32041000000000963
                },
                {
                    "name": "A2",
                    "midi": 45,
                    "time": 241.9095499999999,
                    "velocity": 0.4251968503937008,
                    "duration": 0.32041000000000963
                },
                {
                    "name": "B1",
                    "midi": 35,
                    "time": 242.22995999999992,
                    "velocity": 0.4409448818897638,
                    "duration": 0.32041000000000963
                },
                {
                    "name": "B2",
                    "midi": 47,
                    "time": 242.22995999999992,
                    "velocity": 0.5275590551181102,
                    "duration": 0.32041000000000963
                },
                {
                    "name": "C3",
                    "midi": 48,
                    "time": 242.55036999999993,
                    "velocity": 0.33858267716535434,
                    "duration": 0.32041000000000963
                },
                {
                    "name": "F#3",
                    "midi": 54,
                    "time": 242.55036999999993,
                    "velocity": 0.33858267716535434,
                    "duration": 0.32041000000000963
                },
                {
                    "name": "G#3",
                    "midi": 56,
                    "time": 242.55036999999993,
                    "velocity": 0.33858267716535434,
                    "duration": 0.32041000000000963
                },
                {
                    "name": "D4",
                    "midi": 62,
                    "time": 242.55036999999993,
                    "velocity": 0.4015748031496063,
                    "duration": 0.32041000000000963
                },
                {
                    "name": "C#3",
                    "midi": 49,
                    "time": 242.87077999999994,
                    "velocity": 0.33858267716535434,
                    "duration": 0.3204099999999812
                },
                {
                    "name": "G#3",
                    "midi": 56,
                    "time": 242.87077999999994,
                    "velocity": 0.33858267716535434,
                    "duration": 0.3204099999999812
                },
                {
                    "name": "B3",
                    "midi": 59,
                    "time": 242.87077999999994,
                    "velocity": 0.33858267716535434,
                    "duration": 0.3204099999999812
                },
                {
                    "name": "F4",
                    "midi": 65,
                    "time": 242.87077999999994,
                    "velocity": 0.4015748031496063,
                    "duration": 0.3204099999999812
                },
                {
                    "name": "A1",
                    "midi": 33,
                    "time": 243.19118999999992,
                    "velocity": 0.28346456692913385,
                    "duration": 0.32041000000000963
                },
                {
                    "name": "A2",
                    "midi": 45,
                    "time": 243.19118999999992,
                    "velocity": 0.33070866141732286,
                    "duration": 0.32041000000000963
                },
                {
                    "name": "B1",
                    "midi": 35,
                    "time": 243.51159999999993,
                    "velocity": 0.28346456692913385,
                    "duration": 0.060076874999992924
                },
                {
                    "name": "B2",
                    "midi": 47,
                    "time": 243.51159999999993,
                    "velocity": 0.33070866141732286,
                    "duration": 0.060076874999992924
                },
                {
                    "name": "C2",
                    "midi": 36,
                    "time": 243.67180499999992,
                    "velocity": 0.29133858267716534,
                    "duration": 0.060076874999992924
                },
                {
                    "name": "C3",
                    "midi": 48,
                    "time": 243.67180499999992,
                    "velocity": 0.3543307086614173,
                    "duration": 0.060076874999992924
                },
                {
                    "name": "C#2",
                    "midi": 37,
                    "time": 243.8320099999999,
                    "velocity": 0.36220472440944884,
                    "duration": 0.32041000000000963
                },
                {
                    "name": "C#3",
                    "midi": 49,
                    "time": 243.8320099999999,
                    "velocity": 0.4251968503937008,
                    "duration": 0.32041000000000963
                },
                {
                    "name": "D2",
                    "midi": 38,
                    "time": 244.15241999999992,
                    "velocity": 0.31496062992125984,
                    "duration": 0.32041000000000963
                },
                {
                    "name": "D3",
                    "midi": 50,
                    "time": 244.15241999999992,
                    "velocity": 0.3700787401574803,
                    "duration": 0.32041000000000963
                },
                {
                    "name": "D#2",
                    "midi": 39,
                    "time": 244.47282999999993,
                    "velocity": 0.31496062992125984,
                    "duration": 0.060076874999992924
                },
                {
                    "name": "D#3",
                    "midi": 51,
                    "time": 244.47282999999993,
                    "velocity": 0.3700787401574803,
                    "duration": 0.060076874999992924
                },
                {
                    "name": "E2",
                    "midi": 40,
                    "time": 244.63303499999992,
                    "velocity": 0.30708661417322836,
                    "duration": 0.060076874999992924
                },
                {
                    "name": "E3",
                    "midi": 52,
                    "time": 244.63303499999992,
                    "velocity": 0.3779527559055118,
                    "duration": 0.060076874999992924
                },
                {
                    "name": "F2",
                    "midi": 41,
                    "time": 244.7932399999999,
                    "velocity": 0.3543307086614173,
                    "duration": 0.32041000000000963
                },
                {
                    "name": "F3",
                    "midi": 53,
                    "time": 244.7932399999999,
                    "velocity": 0.41732283464566927,
                    "duration": 0.32041000000000963
                },
                {
                    "name": "F#2",
                    "midi": 42,
                    "time": 245.11364999999992,
                    "velocity": 0.33070866141732286,
                    "duration": 0.32041000000000963
                },
                {
                    "name": "F#3",
                    "midi": 54,
                    "time": 245.11364999999992,
                    "velocity": 0.3858267716535433,
                    "duration": 0.32041000000000963
                },
                {
                    "name": "G2",
                    "midi": 43,
                    "time": 245.43405999999993,
                    "velocity": 0.33070866141732286,
                    "duration": 0.060076874999992924
                },
                {
                    "name": "G3",
                    "midi": 55,
                    "time": 245.43405999999993,
                    "velocity": 0.3858267716535433,
                    "duration": 0.060076874999992924
                },
                {
                    "name": "G#2",
                    "midi": 44,
                    "time": 245.59426499999992,
                    "velocity": 0.31496062992125984,
                    "duration": 0.060076874999992924
                },
                {
                    "name": "G#3",
                    "midi": 56,
                    "time": 245.59426499999992,
                    "velocity": 0.3937007874015748,
                    "duration": 0.060076874999992924
                },
                {
                    "name": "A2",
                    "midi": 45,
                    "time": 245.7544699999999,
                    "velocity": 0.3858267716535433,
                    "duration": 0.32041000000000963
                },
                {
                    "name": "A3",
                    "midi": 57,
                    "time": 245.7544699999999,
                    "velocity": 0.4566929133858268,
                    "duration": 0.32041000000000963
                },
                {
                    "name": "F#3",
                    "midi": 54,
                    "time": 246.07487999999992,
                    "velocity": 0.3937007874015748,
                    "duration": 0.32041000000000963
                },
                {
                    "name": "C3",
                    "midi": 48,
                    "time": 246.07487999999992,
                    "velocity": 0.3937007874015748,
                    "duration": 0.32041000000000963
                },
                {
                    "name": "C4",
                    "midi": 60,
                    "time": 246.07487999999992,
                    "velocity": 0.4645669291338583,
                    "duration": 0.32041000000000963
                },
                {
                    "name": "G3",
                    "midi": 55,
                    "time": 246.39528999999993,
                    "velocity": 0.3543307086614173,
                    "duration": 0.32041000000000963
                },
                {
                    "name": "B2",
                    "midi": 47,
                    "time": 246.39528999999993,
                    "velocity": 0.3543307086614173,
                    "duration": 0.32041000000000963
                },
                {
                    "name": "B3",
                    "midi": 59,
                    "time": 246.39528999999993,
                    "velocity": 0.4251968503937008,
                    "duration": 0.32041000000000963
                },
                {
                    "name": "D1",
                    "midi": 26,
                    "time": 246.71569999999994,
                    "velocity": 0.3858267716535433,
                    "duration": 0.32041000000000963
                },
                {
                    "name": "D2",
                    "midi": 38,
                    "time": 246.71569999999994,
                    "velocity": 0.4645669291338583,
                    "duration": 0.32041000000000963
                },
                {
                    "name": "C#3",
                    "midi": 49,
                    "time": 247.03610999999995,
                    "velocity": 0.48031496062992124,
                    "duration": 0.1602049999999906
                },
                {
                    "name": "C#1",
                    "midi": 25,
                    "time": 247.03610999999995,
                    "velocity": 0.3937007874015748,
                    "duration": 0.3204099999999812
                },
                {
                    "name": "C#2",
                    "midi": 37,
                    "time": 247.03610999999995,
                    "velocity": 0.47244094488188976,
                    "duration": 0.3204099999999812
                },
                {
                    "name": "C#3",
                    "midi": 49,
                    "time": 247.35651999999993,
                    "velocity": 0.3779527559055118,
                    "duration": 0.32041000000000963
                },
                {
                    "name": "A3",
                    "midi": 57,
                    "time": 247.35651999999993,
                    "velocity": 0.44881889763779526,
                    "duration": 0.32041000000000963
                },
                {
                    "name": "C#4",
                    "midi": 61,
                    "time": 247.67692999999994,
                    "velocity": 0.44881889763779526,
                    "duration": 0.32041000000000963
                },
                {
                    "name": "F#3",
                    "midi": 54,
                    "time": 247.67692999999994,
                    "velocity": 0.3779527559055118,
                    "duration": 0.32041000000000963
                },
                {
                    "name": "A3",
                    "midi": 57,
                    "time": 247.99733999999995,
                    "velocity": 0.33070866141732286,
                    "duration": 0.32041000000000963
                },
                {
                    "name": "F#4",
                    "midi": 66,
                    "time": 247.99733999999995,
                    "velocity": 0.47244094488188976,
                    "duration": 0.32041000000000963
                },
                {
                    "name": "C#4",
                    "midi": 61,
                    "time": 248.31774999999996,
                    "velocity": 0.31496062992125984,
                    "duration": 0.32041000000000963
                },
                {
                    "name": "A4",
                    "midi": 69,
                    "time": 248.31774999999996,
                    "velocity": 0.44881889763779526,
                    "duration": 0.32041000000000963
                },
                {
                    "name": "C#5",
                    "midi": 73,
                    "time": 248.63815999999997,
                    "velocity": 0.44881889763779526,
                    "duration": 0.32041000000000963
                },
                {
                    "name": "F#4",
                    "midi": 66,
                    "time": 248.63815999999997,
                    "velocity": 0.31496062992125984,
                    "duration": 0.32041000000000963
                },
                {
                    "name": "A4",
                    "midi": 69,
                    "time": 248.95856999999998,
                    "velocity": 0.3779527559055118,
                    "duration": 0.32041000000000963
                },
                {
                    "name": "F#5",
                    "midi": 78,
                    "time": 248.95856999999998,
                    "velocity": 0.44881889763779526,
                    "duration": 0.32041000000000963
                },
                {
                    "name": "B4",
                    "midi": 71,
                    "time": 249.27898,
                    "velocity": 0.36220472440944884,
                    "duration": 0.32041000000000963
                },
                {
                    "name": "F5",
                    "midi": 77,
                    "time": 249.27898,
                    "velocity": 0.4251968503937008,
                    "duration": 0.32041000000000963
                },
                {
                    "name": "C#4",
                    "midi": 61,
                    "time": 249.59939,
                    "velocity": 0.33070866141732286,
                    "duration": 0.3204099999999812
                },
                {
                    "name": "F4",
                    "midi": 65,
                    "time": 249.59939,
                    "velocity": 0.33070866141732286,
                    "duration": 0.3204099999999812
                },
                {
                    "name": "B4",
                    "midi": 71,
                    "time": 249.59939,
                    "velocity": 0.4015748031496063,
                    "duration": 0.3204099999999812
                },
                {
                    "name": "C#4",
                    "midi": 61,
                    "time": 249.91979999999998,
                    "velocity": 0.36220472440944884,
                    "duration": 0.6408200000000193
                },
                {
                    "name": "F4",
                    "midi": 65,
                    "time": 249.91979999999998,
                    "velocity": 0.36220472440944884,
                    "duration": 0.32041000000000963
                },
                {
                    "name": "B4",
                    "midi": 71,
                    "time": 249.91979999999998,
                    "velocity": 0.4251968503937008,
                    "duration": 0.32041000000000963
                },
                {
                    "name": "F#3",
                    "midi": 54,
                    "time": 250.24021,
                    "velocity": 0.2992125984251969,
                    "duration": 0.32041000000000963
                },
                {
                    "name": "A4",
                    "midi": 69,
                    "time": 250.24021,
                    "velocity": 0.3700787401574803,
                    "duration": 0.32041000000000963
                },
                {
                    "name": "C#3",
                    "midi": 49,
                    "time": 250.56062,
                    "velocity": 0.2204724409448819,
                    "duration": 0.32041000000000963
                },
                {
                    "name": "F3",
                    "midi": 53,
                    "time": 250.56062,
                    "velocity": 0.25984251968503935,
                    "duration": 0.32041000000000963
                },
                {
                    "name": "B3",
                    "midi": 59,
                    "time": 250.56062,
                    "velocity": 0.2992125984251969,
                    "duration": 0.32041000000000963
                },
                {
                    "name": "C#3",
                    "midi": 49,
                    "time": 250.88103,
                    "velocity": 0.23622047244094488,
                    "duration": 0.6408200000000193
                },
                {
                    "name": "F3",
                    "midi": 53,
                    "time": 250.88103,
                    "velocity": 0.28346456692913385,
                    "duration": 0.32041000000000963
                },
                {
                    "name": "B3",
                    "midi": 59,
                    "time": 250.88103,
                    "velocity": 0.33070866141732286,
                    "duration": 0.32041000000000963
                },
                {
                    "name": "F#2",
                    "midi": 42,
                    "time": 251.20144000000002,
                    "velocity": 0.25196850393700787,
                    "duration": 0.32041000000000963
                },
                {
                    "name": "A3",
                    "midi": 57,
                    "time": 251.20144000000002,
                    "velocity": 0.2992125984251969,
                    "duration": 0.32041000000000963
                },
                {
                    "name": "C#3",
                    "midi": 49,
                    "time": 251.52185000000003,
                    "velocity": 0.2047244094488189,
                    "duration": 0.3204099999999812
                },
                {
                    "name": "F3",
                    "midi": 53,
                    "time": 251.52185000000003,
                    "velocity": 0.2440944881889764,
                    "duration": 0.3204099999999812
                },
                {
                    "name": "B3",
                    "midi": 59,
                    "time": 251.52185000000003,
                    "velocity": 0.28346456692913385,
                    "duration": 0.3204099999999812
                },
                {
                    "name": "C#3",
                    "midi": 49,
                    "time": 251.84226,
                    "velocity": 0.2283464566929134,
                    "duration": 0.6408200000000193
                },
                {
                    "name": "F3",
                    "midi": 53,
                    "time": 251.84226,
                    "velocity": 0.2677165354330709,
                    "duration": 0.32041000000000963
                },
                {
                    "name": "B3",
                    "midi": 59,
                    "time": 251.84226,
                    "velocity": 0.2992125984251969,
                    "duration": 0.32041000000000963
                },
                {
                    "name": "F#2",
                    "midi": 42,
                    "time": 252.16267000000002,
                    "velocity": 0.23622047244094488,
                    "duration": 0.32041000000000963
                },
                {
                    "name": "A3",
                    "midi": 57,
                    "time": 252.16267000000002,
                    "velocity": 0.29133858267716534,
                    "duration": 0.32041000000000963
                },
                {
                    "name": "C#2",
                    "midi": 37,
                    "time": 252.48308000000003,
                    "velocity": 0.44881889763779526,
                    "duration": 0.6408199999999908
                },
                {
                    "name": "C#3",
                    "midi": 49,
                    "time": 252.48308000000003,
                    "velocity": 0.5433070866141733,
                    "duration": 0.6408199999999908
                },
                {
                    "name": "D2",
                    "midi": 38,
                    "time": 253.12390000000002,
                    "velocity": 0.4094488188976378,
                    "duration": 0.1602049999999906
                },
                {
                    "name": "D3",
                    "midi": 50,
                    "time": 253.12390000000002,
                    "velocity": 0.49606299212598426,
                    "duration": 0.1602049999999906
                },
                {
                    "name": "C#2",
                    "midi": 37,
                    "time": 253.284105,
                    "velocity": 0.3779527559055118,
                    "duration": 0.1602049999999906
                },
                {
                    "name": "C#3",
                    "midi": 49,
                    "time": 253.284105,
                    "velocity": 0.44881889763779526,
                    "duration": 0.1602049999999906
                },
                {
                    "name": "G#1",
                    "midi": 32,
                    "time": 253.44431,
                    "velocity": 0.41732283464566927,
                    "duration": 0.1602049999999906
                },
                {
                    "name": "G#2",
                    "midi": 44,
                    "time": 253.44431,
                    "velocity": 0.5039370078740157,
                    "duration": 0.1602049999999906
                },
                {
                    "name": "A1",
                    "midi": 33,
                    "time": 253.604515,
                    "velocity": 0.3700787401574803,
                    "duration": 0.1602049999999906
                },
                {
                    "name": "A2",
                    "midi": 45,
                    "time": 253.604515,
                    "velocity": 0.4330708661417323,
                    "duration": 0.1602049999999906
                },
                {
                    "name": "F#1",
                    "midi": 30,
                    "time": 253.76471999999998,
                    "velocity": 0.4094488188976378,
                    "duration": 0.9612300000000005
                },
                {
                    "name": "F#2",
                    "midi": 42,
                    "time": 253.76471999999998,
                    "velocity": 0.49606299212598426,
                    "duration": 0.9612300000000005
                },
                {
                    "name": "D1",
                    "midi": 26,
                    "time": 254.72594999999998,
                    "velocity": 0.5669291338582677,
                    "duration": 0.3204099999999812
                },
                {
                    "name": "D2",
                    "midi": 38,
                    "time": 254.72594999999998,
                    "velocity": 0.5669291338582677,
                    "duration": 0.3204099999999812
                },
                {
                    "name": "F#3",
                    "midi": 54,
                    "time": 255.04635999999996,
                    "velocity": 0.2992125984251969,
                    "duration": 0.1602049999999906
                },
                {
                    "name": "F#3",
                    "midi": 54,
                    "time": 255.20656499999996,
                    "velocity": 0.30708661417322836,
                    "duration": 0.1602049999999906
                },
                {
                    "name": "F3",
                    "midi": 53,
                    "time": 255.36676999999995,
                    "velocity": 0.31496062992125984,
                    "duration": 0.1602049999999906
                },
                {
                    "name": "F#3",
                    "midi": 54,
                    "time": 255.52697499999994,
                    "velocity": 0.33070866141732286,
                    "duration": 0.1602049999999906
                },
                {
                    "name": "G3",
                    "midi": 55,
                    "time": 255.68717999999993,
                    "velocity": 0.33858267716535434,
                    "duration": 0.1602049999999906
                },
                {
                    "name": "G#3",
                    "midi": 56,
                    "time": 255.84738499999992,
                    "velocity": 0.3543307086614173,
                    "duration": 0.16020500000001903
                },
                {
                    "name": "A3",
                    "midi": 57,
                    "time": 256.00758999999994,
                    "velocity": 0.36220472440944884,
                    "duration": 0.16020500000001903
                },
                {
                    "name": "A#3",
                    "midi": 58,
                    "time": 256.16779499999996,
                    "velocity": 0.3700787401574803,
                    "duration": 0.16020500000001903
                },
                {
                    "name": "B3",
                    "midi": 59,
                    "time": 256.328,
                    "velocity": 0.3858267716535433,
                    "duration": 0.16020500000001903
                },
                {
                    "name": "C4",
                    "midi": 60,
                    "time": 256.488205,
                    "velocity": 0.3937007874015748,
                    "duration": 0.16020500000001903
                },
                {
                    "name": "C#4",
                    "midi": 61,
                    "time": 256.64841,
                    "velocity": 0.4015748031496063,
                    "duration": 0.16020500000001903
                },
                {
                    "name": "D4",
                    "midi": 62,
                    "time": 256.80861500000003,
                    "velocity": 0.41732283464566927,
                    "duration": 0.16020500000001903
                },
                {
                    "name": "D#4",
                    "midi": 63,
                    "time": 256.96882000000005,
                    "velocity": 0.4330708661417323,
                    "duration": 0.16020500000001903
                },
                {
                    "name": "E4",
                    "midi": 64,
                    "time": 257.12902500000007,
                    "velocity": 0.4330708661417323,
                    "duration": 0.16020500000001903
                },
                {
                    "name": "F4",
                    "midi": 65,
                    "time": 257.2892300000001,
                    "velocity": 0.4330708661417323,
                    "duration": 0.16020500000001903
                },
                {
                    "name": "F#4",
                    "midi": 66,
                    "time": 257.4494350000001,
                    "velocity": 0.44881889763779526,
                    "duration": 0.16020500000001903
                },
                {
                    "name": "F#4",
                    "midi": 66,
                    "time": 257.6096400000001,
                    "velocity": 0.4566929133858268,
                    "duration": 0.3204099999999812
                },
                {
                    "name": "G4",
                    "midi": 67,
                    "time": 257.9300500000001,
                    "velocity": 0.5039370078740157,
                    "duration": 0.3204099999999812
                },
                {
                    "name": "G4",
                    "midi": 67,
                    "time": 258.2504600000001,
                    "velocity": 0.5826771653543307,
                    "duration": 0.16020500000001903
                },
                {
                    "name": "D#4",
                    "midi": 63,
                    "time": 258.2504600000001,
                    "velocity": 0.5826771653543307,
                    "duration": 0.16020500000001903
                },
                {
                    "name": "A#3",
                    "midi": 58,
                    "time": 258.2504600000001,
                    "velocity": 0.5826771653543307,
                    "duration": 0.16020500000001903
                },
                {
                    "name": "G3",
                    "midi": 55,
                    "time": 258.2504600000001,
                    "velocity": 0.5826771653543307,
                    "duration": 0.16020500000001903
                },
                {
                    "name": "D#2",
                    "midi": 39,
                    "time": 258.5708700000001,
                    "velocity": 0.6220472440944882,
                    "duration": 0.3204099999999812
                },
                {
                    "name": "D#3",
                    "midi": 51,
                    "time": 258.5708700000001,
                    "velocity": 0.6220472440944882,
                    "duration": 0.3204099999999812
                },
                {
                    "name": "G3",
                    "midi": 55,
                    "time": 258.8912800000001,
                    "velocity": 0.2992125984251969,
                    "duration": 0.16020499999996218
                },
                {
                    "name": "G3",
                    "midi": 55,
                    "time": 259.05148500000007,
                    "velocity": 0.30708661417322836,
                    "duration": 0.16020500000001903
                },
                {
                    "name": "F#3",
                    "midi": 54,
                    "time": 259.2116900000001,
                    "velocity": 0.31496062992125984,
                    "duration": 0.16020500000001903
                },
                {
                    "name": "G3",
                    "midi": 55,
                    "time": 259.3718950000001,
                    "velocity": 0.33070866141732286,
                    "duration": 0.16020500000001903
                },
                {
                    "name": "G#3",
                    "midi": 56,
                    "time": 259.5321000000001,
                    "velocity": 0.33858267716535434,
                    "duration": 0.16020500000001903
                },
                {
                    "name": "A3",
                    "midi": 57,
                    "time": 259.69230500000015,
                    "velocity": 0.3543307086614173,
                    "duration": 0.16020500000001903
                },
                {
                    "name": "A#3",
                    "midi": 58,
                    "time": 259.85251000000017,
                    "velocity": 0.36220472440944884,
                    "duration": 0.16020500000001903
                },
                {
                    "name": "B3",
                    "midi": 59,
                    "time": 260.0127150000002,
                    "velocity": 0.3700787401574803,
                    "duration": 0.16020500000001903
                },
                {
                    "name": "C4",
                    "midi": 60,
                    "time": 260.1729200000002,
                    "velocity": 0.3858267716535433,
                    "duration": 0.16020500000001903
                },
                {
                    "name": "C#4",
                    "midi": 61,
                    "time": 260.3331250000002,
                    "velocity": 0.3937007874015748,
                    "duration": 0.16020500000001903
                },
                {
                    "name": "D4",
                    "midi": 62,
                    "time": 260.49333000000024,
                    "velocity": 0.4015748031496063,
                    "duration": 0.16020500000001903
                },
                {
                    "name": "D#4",
                    "midi": 63,
                    "time": 260.65353500000026,
                    "velocity": 0.41732283464566927,
                    "duration": 0.16020500000001903
                },
                {
                    "name": "E4",
                    "midi": 64,
                    "time": 260.8137400000003,
                    "velocity": 0.4330708661417323,
                    "duration": 0.16020500000001903
                },
                {
                    "name": "F4",
                    "midi": 65,
                    "time": 260.9739450000003,
                    "velocity": 0.4330708661417323,
                    "duration": 0.16020500000001903
                },
                {
                    "name": "F#4",
                    "midi": 66,
                    "time": 261.1341500000003,
                    "velocity": 0.4330708661417323,
                    "duration": 0.16020500000001903
                },
                {
                    "name": "G4",
                    "midi": 67,
                    "time": 261.29435500000034,
                    "velocity": 0.44881889763779526,
                    "duration": 0.16020500000001903
                },
                {
                    "name": "G4",
                    "midi": 67,
                    "time": 261.45456000000036,
                    "velocity": 0.4566929133858268,
                    "duration": 0.3204099999999812
                },
                {
                    "name": "G#4",
                    "midi": 68,
                    "time": 261.77497000000034,
                    "velocity": 0.5039370078740157,
                    "duration": 0.3204099999999812
                },
                {
                    "name": "G#4",
                    "midi": 68,
                    "time": 262.0953800000003,
                    "velocity": 0.5826771653543307,
                    "duration": 0.16020500000001903
                },
                {
                    "name": "E4",
                    "midi": 64,
                    "time": 262.0953800000003,
                    "velocity": 0.5826771653543307,
                    "duration": 0.16020500000001903
                },
                {
                    "name": "B3",
                    "midi": 59,
                    "time": 262.0953800000003,
                    "velocity": 0.5826771653543307,
                    "duration": 0.16020500000001903
                },
                {
                    "name": "G#3",
                    "midi": 56,
                    "time": 262.0953800000003,
                    "velocity": 0.5826771653543307,
                    "duration": 0.16020500000001903
                },
                {
                    "name": "E2",
                    "midi": 40,
                    "time": 262.41579000000036,
                    "velocity": 0.6220472440944882,
                    "duration": 0.3204099999999812
                },
                {
                    "name": "E3",
                    "midi": 52,
                    "time": 262.41579000000036,
                    "velocity": 0.6220472440944882,
                    "duration": 0.3204099999999812
                },
                {
                    "name": "G#3",
                    "midi": 56,
                    "time": 262.73620000000034,
                    "velocity": 0.3937007874015748,
                    "duration": 0.16020500000001903
                },
                {
                    "name": "B3",
                    "midi": 59,
                    "time": 262.73620000000034,
                    "velocity": 0.4645669291338583,
                    "duration": 0.16020500000001903
                },
                {
                    "name": "G#3",
                    "midi": 56,
                    "time": 262.89640500000036,
                    "velocity": 0.3858267716535433,
                    "duration": 0.16020500000001903
                },
                {
                    "name": "B3",
                    "midi": 59,
                    "time": 262.89640500000036,
                    "velocity": 0.4566929133858268,
                    "duration": 0.16020500000001903
                },
                {
                    "name": "G3",
                    "midi": 55,
                    "time": 263.0566100000004,
                    "velocity": 0.36220472440944884,
                    "duration": 0.16020500000001903
                },
                {
                    "name": "A#3",
                    "midi": 58,
                    "time": 263.0566100000004,
                    "velocity": 0.4251968503937008,
                    "duration": 0.16020500000001903
                },
                {
                    "name": "G#3",
                    "midi": 56,
                    "time": 263.2168150000004,
                    "velocity": 0.36220472440944884,
                    "duration": 0.16020500000001903
                },
                {
                    "name": "B3",
                    "midi": 59,
                    "time": 263.2168150000004,
                    "velocity": 0.4251968503937008,
                    "duration": 0.16020500000001903
                },
                {
                    "name": "A3",
                    "midi": 57,
                    "time": 263.3770200000004,
                    "velocity": 0.3858267716535433,
                    "duration": 0.16020500000001903
                },
                {
                    "name": "C4",
                    "midi": 60,
                    "time": 263.3770200000004,
                    "velocity": 0.4566929133858268,
                    "duration": 0.16020500000001903
                },
                {
                    "name": "A#3",
                    "midi": 58,
                    "time": 263.53722500000043,
                    "velocity": 0.3858267716535433,
                    "duration": 0.16020500000001903
                },
                {
                    "name": "C#4",
                    "midi": 61,
                    "time": 263.53722500000043,
                    "velocity": 0.4566929133858268,
                    "duration": 0.16020500000001903
                },
                {
                    "name": "B3",
                    "midi": 59,
                    "time": 263.69743000000045,
                    "velocity": 0.3858267716535433,
                    "duration": 0.08010250000000951
                },
                {
                    "name": "D4",
                    "midi": 62,
                    "time": 263.69743000000045,
                    "velocity": 0.4566929133858268,
                    "duration": 0.08010250000000951
                },
                {
                    "name": "B3",
                    "midi": 59,
                    "time": 263.85763500000047,
                    "velocity": 0.3543307086614173,
                    "duration": 0.08010250000000951
                },
                {
                    "name": "D4",
                    "midi": 62,
                    "time": 263.85763500000047,
                    "velocity": 0.41732283464566927,
                    "duration": 0.08010250000000951
                },
                {
                    "name": "B3",
                    "midi": 59,
                    "time": 264.0178400000005,
                    "velocity": 0.3543307086614173,
                    "duration": 0.08010250000000951
                },
                {
                    "name": "D4",
                    "midi": 62,
                    "time": 264.0178400000005,
                    "velocity": 0.41732283464566927,
                    "duration": 0.08010250000000951
                },
                {
                    "name": "B3",
                    "midi": 59,
                    "time": 264.1780450000005,
                    "velocity": 0.36220472440944884,
                    "duration": 0.08010250000000951
                },
                {
                    "name": "D4",
                    "midi": 62,
                    "time": 264.1780450000005,
                    "velocity": 0.4251968503937008,
                    "duration": 0.08010250000000951
                },
                {
                    "name": "B3",
                    "midi": 59,
                    "time": 264.3382500000005,
                    "velocity": 0.3858267716535433,
                    "duration": 0.16020500000001903
                },
                {
                    "name": "D4",
                    "midi": 62,
                    "time": 264.3382500000005,
                    "velocity": 0.4566929133858268,
                    "duration": 0.16020500000001903
                },
                {
                    "name": "A#3",
                    "midi": 58,
                    "time": 264.49845500000055,
                    "velocity": 0.36220472440944884,
                    "duration": 0.16020500000001903
                },
                {
                    "name": "C#4",
                    "midi": 61,
                    "time": 264.49845500000055,
                    "velocity": 0.4251968503937008,
                    "duration": 0.16020500000001903
                },
                {
                    "name": "A#3",
                    "midi": 58,
                    "time": 264.65866000000057,
                    "velocity": 0.3858267716535433,
                    "duration": 0.08010250000000951
                },
                {
                    "name": "C#4",
                    "midi": 61,
                    "time": 264.65866000000057,
                    "velocity": 0.4566929133858268,
                    "duration": 0.08010250000000951
                },
                {
                    "name": "A#3",
                    "midi": 58,
                    "time": 264.8188650000006,
                    "velocity": 0.36220472440944884,
                    "duration": 0.08010250000000951
                },
                {
                    "name": "C#4",
                    "midi": 61,
                    "time": 264.8188650000006,
                    "velocity": 0.4251968503937008,
                    "duration": 0.08010250000000951
                },
                {
                    "name": "A3",
                    "midi": 57,
                    "time": 264.9790700000006,
                    "velocity": 0.36220472440944884,
                    "duration": 0.08010250000000951
                },
                {
                    "name": "C4",
                    "midi": 60,
                    "time": 264.9790700000006,
                    "velocity": 0.4251968503937008,
                    "duration": 0.08010250000000951
                },
                {
                    "name": "A#3",
                    "midi": 58,
                    "time": 265.1392750000006,
                    "velocity": 0.36220472440944884,
                    "duration": 0.08010250000000951
                },
                {
                    "name": "C#4",
                    "midi": 61,
                    "time": 265.1392750000006,
                    "velocity": 0.4251968503937008,
                    "duration": 0.08010250000000951
                },
                {
                    "name": "B3",
                    "midi": 59,
                    "time": 265.29948000000064,
                    "velocity": 0.3858267716535433,
                    "duration": 0.16020500000001903
                },
                {
                    "name": "D4",
                    "midi": 62,
                    "time": 265.29948000000064,
                    "velocity": 0.4566929133858268,
                    "duration": 0.16020500000001903
                },
                {
                    "name": "C4",
                    "midi": 60,
                    "time": 265.45968500000066,
                    "velocity": 0.36220472440944884,
                    "duration": 0.16020500000001903
                },
                {
                    "name": "D#4",
                    "midi": 63,
                    "time": 265.45968500000066,
                    "velocity": 0.4251968503937008,
                    "duration": 0.16020500000001903
                },
                {
                    "name": "C#4",
                    "midi": 61,
                    "time": 265.6198900000007,
                    "velocity": 0.3858267716535433,
                    "duration": 0.08010250000000951
                },
                {
                    "name": "E4",
                    "midi": 64,
                    "time": 265.6198900000007,
                    "velocity": 0.4566929133858268,
                    "duration": 0.08010250000000951
                },
                {
                    "name": "C#4",
                    "midi": 61,
                    "time": 265.7800950000007,
                    "velocity": 0.4015748031496063,
                    "duration": 0.08010250000000951
                },
                {
                    "name": "E4",
                    "midi": 64,
                    "time": 265.7800950000007,
                    "velocity": 0.47244094488188976,
                    "duration": 0.08010250000000951
                },
                {
                    "name": "C#4",
                    "midi": 61,
                    "time": 265.9403000000007,
                    "velocity": 0.41732283464566927,
                    "duration": 0.08010250000000951
                },
                {
                    "name": "E4",
                    "midi": 64,
                    "time": 265.9403000000007,
                    "velocity": 0.49606299212598426,
                    "duration": 0.08010250000000951
                },
                {
                    "name": "C#4",
                    "midi": 61,
                    "time": 266.10050500000074,
                    "velocity": 0.41732283464566927,
                    "duration": 0.08010250000000951
                },
                {
                    "name": "E4",
                    "midi": 64,
                    "time": 266.10050500000074,
                    "velocity": 0.5039370078740157,
                    "duration": 0.08010250000000951
                },
                {
                    "name": "C#4",
                    "midi": 61,
                    "time": 266.26071000000076,
                    "velocity": 0.4409448818897638,
                    "duration": 0.16020500000001903
                },
                {
                    "name": "E4",
                    "midi": 64,
                    "time": 266.26071000000076,
                    "velocity": 0.5275590551181102,
                    "duration": 0.16020500000001903
                },
                {
                    "name": "C4",
                    "midi": 60,
                    "time": 266.4209150000008,
                    "velocity": 0.3937007874015748,
                    "duration": 0.16020500000001903
                },
                {
                    "name": "D#4",
                    "midi": 63,
                    "time": 266.4209150000008,
                    "velocity": 0.4645669291338583,
                    "duration": 0.16020500000001903
                },
                {
                    "name": "C4",
                    "midi": 60,
                    "time": 266.5811200000008,
                    "velocity": 0.3937007874015748,
                    "duration": 0.08010250000000951
                },
                {
                    "name": "D#4",
                    "midi": 63,
                    "time": 266.5811200000008,
                    "velocity": 0.4645669291338583,
                    "duration": 0.08010250000000951
                },
                {
                    "name": "C4",
                    "midi": 60,
                    "time": 266.7413250000008,
                    "velocity": 0.4094488188976378,
                    "duration": 0.08010250000000951
                },
                {
                    "name": "D#4",
                    "midi": 63,
                    "time": 266.7413250000008,
                    "velocity": 0.48031496062992124,
                    "duration": 0.08010250000000951
                },
                {
                    "name": "B3",
                    "midi": 59,
                    "time": 266.90153000000083,
                    "velocity": 0.41732283464566927,
                    "duration": 0.08010250000000951
                },
                {
                    "name": "D4",
                    "midi": 62,
                    "time": 266.90153000000083,
                    "velocity": 0.5039370078740157,
                    "duration": 0.08010250000000951
                },
                {
                    "name": "C4",
                    "midi": 60,
                    "time": 267.06173500000085,
                    "velocity": 0.4251968503937008,
                    "duration": 0.08010250000000951
                },
                {
                    "name": "D#4",
                    "midi": 63,
                    "time": 267.06173500000085,
                    "velocity": 0.5118110236220472,
                    "duration": 0.08010250000000951
                },
                {
                    "name": "B3",
                    "midi": 59,
                    "time": 267.22194000000087,
                    "velocity": 0.4409448818897638,
                    "duration": 0.32041000000003805
                },
                {
                    "name": "F4",
                    "midi": 65,
                    "time": 267.22194000000087,
                    "velocity": 0.5275590551181102,
                    "duration": 0.32041000000003805
                },
                {
                    "name": "C#4",
                    "midi": 61,
                    "time": 267.22194000000087,
                    "velocity": 0.4409448818897638,
                    "duration": 0.32041000000003805
                },
                {
                    "name": "C#2",
                    "midi": 37,
                    "time": 267.5423500000009,
                    "velocity": 0.3858267716535433,
                    "duration": 0.3204099999999812
                },
                {
                    "name": "C#3",
                    "midi": 49,
                    "time": 267.5423500000009,
                    "velocity": 0.4645669291338583,
                    "duration": 0.3204099999999812
                },
                {
                    "name": "F4",
                    "midi": 65,
                    "time": 267.8627600000009,
                    "velocity": 0.5118110236220472,
                    "duration": 0.3204099999999812
                },
                {
                    "name": "C#4",
                    "midi": 61,
                    "time": 267.8627600000009,
                    "velocity": 0.4251968503937008,
                    "duration": 0.3204099999999812
                },
                {
                    "name": "B3",
                    "midi": 59,
                    "time": 267.8627600000009,
                    "velocity": 0.4251968503937008,
                    "duration": 0.3204099999999812
                },
                {
                    "name": "E4",
                    "midi": 64,
                    "time": 268.18317000000087,
                    "velocity": 0.5275590551181102,
                    "duration": 0.32041000000003805
                },
                {
                    "name": "C#4",
                    "midi": 61,
                    "time": 268.18317000000087,
                    "velocity": 0.4409448818897638,
                    "duration": 0.32041000000003805
                },
                {
                    "name": "B3",
                    "midi": 59,
                    "time": 268.18317000000087,
                    "velocity": 0.4409448818897638,
                    "duration": 0.32041000000003805
                },
                {
                    "name": "F#3",
                    "midi": 54,
                    "time": 268.18317000000087,
                    "velocity": 0.4409448818897638,
                    "duration": 0.32041000000003805
                },
                {
                    "name": "F#1",
                    "midi": 30,
                    "time": 268.5035800000009,
                    "velocity": 0.4015748031496063,
                    "duration": 0.3204099999999812
                },
                {
                    "name": "F#2",
                    "midi": 42,
                    "time": 268.5035800000009,
                    "velocity": 0.47244094488188976,
                    "duration": 0.3204099999999812
                },
                {
                    "name": "E4",
                    "midi": 64,
                    "time": 268.8239900000009,
                    "velocity": 0.48031496062992124,
                    "duration": 0.3204099999999812
                },
                {
                    "name": "C#4",
                    "midi": 61,
                    "time": 268.8239900000009,
                    "velocity": 0.4094488188976378,
                    "duration": 0.3204099999999812
                },
                {
                    "name": "A#3",
                    "midi": 58,
                    "time": 268.8239900000009,
                    "velocity": 0.4094488188976378,
                    "duration": 0.3204099999999812
                },
                {
                    "name": "F#3",
                    "midi": 54,
                    "time": 268.8239900000009,
                    "velocity": 0.4094488188976378,
                    "duration": 0.3204099999999812
                },
                {
                    "name": "A3",
                    "midi": 57,
                    "time": 269.14440000000087,
                    "velocity": 0.4251968503937008,
                    "duration": 0.3204099999999812
                },
                {
                    "name": "D#4",
                    "midi": 63,
                    "time": 269.14440000000087,
                    "velocity": 0.49606299212598426,
                    "duration": 0.3204099999999812
                },
                {
                    "name": "B3",
                    "midi": 59,
                    "time": 269.14440000000087,
                    "velocity": 0.4251968503937008,
                    "duration": 0.3204099999999812
                },
                {
                    "name": "B1",
                    "midi": 35,
                    "time": 269.46481000000085,
                    "velocity": 0.3700787401574803,
                    "duration": 0.3204099999999812
                },
                {
                    "name": "B2",
                    "midi": 47,
                    "time": 269.46481000000085,
                    "velocity": 0.44881889763779526,
                    "duration": 0.3204099999999812
                },
                {
                    "name": "D#4",
                    "midi": 63,
                    "time": 269.78522000000083,
                    "velocity": 0.48031496062992124,
                    "duration": 0.3204099999999812
                },
                {
                    "name": "B3",
                    "midi": 59,
                    "time": 269.78522000000083,
                    "velocity": 0.4015748031496063,
                    "duration": 0.3204099999999812
                },
                {
                    "name": "A3",
                    "midi": 57,
                    "time": 269.78522000000083,
                    "velocity": 0.4015748031496063,
                    "duration": 0.3204099999999812
                },
                {
                    "name": "D4",
                    "midi": 62,
                    "time": 270.1056300000008,
                    "velocity": 0.5275590551181102,
                    "duration": 0.3204099999999812
                },
                {
                    "name": "B3",
                    "midi": 59,
                    "time": 270.1056300000008,
                    "velocity": 0.4409448818897638,
                    "duration": 0.3204099999999812
                },
                {
                    "name": "A3",
                    "midi": 57,
                    "time": 270.1056300000008,
                    "velocity": 0.4409448818897638,
                    "duration": 0.3204099999999812
                },
                {
                    "name": "E3",
                    "midi": 52,
                    "time": 270.1056300000008,
                    "velocity": 0.4409448818897638,
                    "duration": 0.3204099999999812
                },
                {
                    "name": "E1",
                    "midi": 28,
                    "time": 270.4260400000008,
                    "velocity": 0.4015748031496063,
                    "duration": 0.3204099999999812
                },
                {
                    "name": "E2",
                    "midi": 40,
                    "time": 270.4260400000008,
                    "velocity": 0.47244094488188976,
                    "duration": 0.3204099999999812
                },
                {
                    "name": "D4",
                    "midi": 62,
                    "time": 270.7464500000008,
                    "velocity": 0.48031496062992124,
                    "duration": 0.3204099999999812
                },
                {
                    "name": "G#3",
                    "midi": 56,
                    "time": 270.7464500000008,
                    "velocity": 0.4094488188976378,
                    "duration": 0.3204099999999812
                },
                {
                    "name": "E3",
                    "midi": 52,
                    "time": 270.7464500000008,
                    "velocity": 0.4094488188976378,
                    "duration": 0.3204099999999812
                },
                {
                    "name": "G3",
                    "midi": 55,
                    "time": 271.06686000000076,
                    "velocity": 0.4409448818897638,
                    "duration": 0.3204099999999812
                },
                {
                    "name": "C#4",
                    "midi": 61,
                    "time": 271.06686000000076,
                    "velocity": 0.5275590551181102,
                    "duration": 0.3204099999999812
                },
                {
                    "name": "A3",
                    "midi": 57,
                    "time": 271.06686000000076,
                    "velocity": 0.4409448818897638,
                    "duration": 0.3204099999999812
                },
                {
                    "name": "A1",
                    "midi": 33,
                    "time": 271.38727000000074,
                    "velocity": 0.3937007874015748,
                    "duration": 0.3204099999999812
                },
                {
                    "name": "A2",
                    "midi": 45,
                    "time": 271.38727000000074,
                    "velocity": 0.4645669291338583,
                    "duration": 0.3204099999999812
                },
                {
                    "name": "C#4",
                    "midi": 61,
                    "time": 271.7076800000007,
                    "velocity": 0.47244094488188976,
                    "duration": 0.3204099999999812
                },
                {
                    "name": "A3",
                    "midi": 57,
                    "time": 271.7076800000007,
                    "velocity": 0.4015748031496063,
                    "duration": 0.3204099999999812
                },
                {
                    "name": "G3",
                    "midi": 55,
                    "time": 271.7076800000007,
                    "velocity": 0.4015748031496063,
                    "duration": 0.3204099999999812
                },
                {
                    "name": "F#3",
                    "midi": 54,
                    "time": 272.0280900000007,
                    "velocity": 0.4409448818897638,
                    "duration": 0.32041000000003805
                },
                {
                    "name": "C4",
                    "midi": 60,
                    "time": 272.0280900000007,
                    "velocity": 0.5275590551181102,
                    "duration": 0.32041000000003805
                },
                {
                    "name": "A3",
                    "midi": 57,
                    "time": 272.34850000000074,
                    "velocity": 0.3779527559055118,
                    "duration": 0.3204099999999812
                },
                {
                    "name": "C4",
                    "midi": 60,
                    "time": 272.34850000000074,
                    "velocity": 0.4566929133858268,
                    "duration": 0.3204099999999812
                },
                {
                    "name": "A4",
                    "midi": 69,
                    "time": 272.6689100000007,
                    "velocity": 0.4330708661417323,
                    "duration": 0.3204099999999812
                },
                {
                    "name": "C5",
                    "midi": 72,
                    "time": 272.6689100000007,
                    "velocity": 0.5118110236220472,
                    "duration": 0.3204099999999812
                },
                {
                    "name": "C6",
                    "midi": 84,
                    "time": 272.9893200000007,
                    "velocity": 0.5354330708661418,
                    "duration": 0.3204099999999812
                },
                {
                    "name": "A5",
                    "midi": 81,
                    "time": 272.9893200000007,
                    "velocity": 0.4409448818897638,
                    "duration": 0.3204099999999812
                },
                {
                    "name": "C3",
                    "midi": 48,
                    "time": 273.3097300000007,
                    "velocity": 0.3779527559055118,
                    "duration": 0.16020499999996218
                },
                {
                    "name": "C4",
                    "midi": 60,
                    "time": 273.3097300000007,
                    "velocity": 0.4566929133858268,
                    "duration": 0.16020499999996218
                },
                {
                    "name": "C1",
                    "midi": 24,
                    "time": 273.63014000000067,
                    "velocity": 0.3779527559055118,
                    "duration": 0.16020500000001903
                },
                {
                    "name": "C2",
                    "midi": 36,
                    "time": 273.63014000000067,
                    "velocity": 0.44881889763779526,
                    "duration": 0.16020500000001903
                },
                {
                    "name": "C#1",
                    "midi": 25,
                    "time": 273.9505500000007,
                    "velocity": 0.3937007874015748,
                    "duration": 0.16020500000001903
                },
                {
                    "name": "C#2",
                    "midi": 37,
                    "time": 273.9505500000007,
                    "velocity": 0.4645669291338583,
                    "duration": 0.16020500000001903
                },
                {
                    "name": "C#2",
                    "midi": 37,
                    "time": 274.27096000000074,
                    "velocity": 0.2677165354330709,
                    "duration": 0.16020500000001903
                },
                {
                    "name": "C#3",
                    "midi": 49,
                    "time": 274.27096000000074,
                    "velocity": 0.31496062992125984,
                    "duration": 0.16020500000001903
                },
                {
                    "name": "D#1",
                    "midi": 27,
                    "time": 274.5913700000008,
                    "velocity": 0.29133858267716534,
                    "duration": 0.16020500000001903
                },
                {
                    "name": "D#2",
                    "midi": 39,
                    "time": 274.5913700000008,
                    "velocity": 0.36220472440944884,
                    "duration": 0.16020500000001903
                },
                {
                    "name": "F1",
                    "midi": 29,
                    "time": 274.9117800000008,
                    "velocity": 0.31496062992125984,
                    "duration": 0.16020500000001903
                },
                {
                    "name": "F2",
                    "midi": 41,
                    "time": 274.9117800000008,
                    "velocity": 0.3858267716535433,
                    "duration": 0.16020500000001903
                },
                {
                    "name": "F2",
                    "midi": 41,
                    "time": 275.23219000000086,
                    "velocity": 0.2755905511811024,
                    "duration": 0.16020500000001903
                },
                {
                    "name": "F3",
                    "midi": 53,
                    "time": 275.23219000000086,
                    "velocity": 0.3464566929133858,
                    "duration": 0.16020500000001903
                },
                {
                    "name": "F1",
                    "midi": 29,
                    "time": 275.5526000000009,
                    "velocity": 0.2755905511811024,
                    "duration": 0.16020500000001903
                },
                {
                    "name": "F2",
                    "midi": 41,
                    "time": 275.5526000000009,
                    "velocity": 0.33858267716535434,
                    "duration": 0.16020500000001903
                },
                {
                    "name": "A#1",
                    "midi": 34,
                    "time": 275.87301000000093,
                    "velocity": 0.23622047244094488,
                    "duration": 0.16020500000001903
                },
                {
                    "name": "A#2",
                    "midi": 46,
                    "time": 275.87301000000093,
                    "velocity": 0.29133858267716534,
                    "duration": 0.16020500000001903
                },
                {
                    "name": "C#2",
                    "midi": 37,
                    "time": 276.19342000000097,
                    "velocity": 0.1968503937007874,
                    "duration": 0.16020500000001903
                },
                {
                    "name": "C#3",
                    "midi": 49,
                    "time": 276.19342000000097,
                    "velocity": 0.2440944881889764,
                    "duration": 0.16020500000001903
                },
                {
                    "name": "D#2",
                    "midi": 39,
                    "time": 276.513830000001,
                    "velocity": 0.25984251968503935,
                    "duration": 0.16020500000001903
                },
                {
                    "name": "F2",
                    "midi": 41,
                    "time": 276.83424000000105,
                    "velocity": 0.2992125984251969,
                    "duration": 0.16020500000001903
                },
                {
                    "name": "F1",
                    "midi": 29,
                    "time": 277.47506000000106,
                    "velocity": 0.2204724409448819,
                    "duration": 0.16020500000001903
                },
                {
                    "name": "F2",
                    "midi": 41,
                    "time": 277.47506000000106,
                    "velocity": 0.2677165354330709,
                    "duration": 0.16020500000001903
                },
                {
                    "name": "A#1",
                    "midi": 34,
                    "time": 277.7954700000011,
                    "velocity": 0.23622047244094488,
                    "duration": 0.3204099999999812
                },
                {
                    "name": "A#2",
                    "midi": 46,
                    "time": 277.7954700000011,
                    "velocity": 0.28346456692913385,
                    "duration": 0.3204099999999812
                },
                {
                    "name": "G#2",
                    "midi": 44,
                    "time": 278.1158800000011,
                    "velocity": 0.2047244094488189,
                    "duration": 0.3204099999999812
                },
                {
                    "name": "G#3",
                    "midi": 56,
                    "time": 278.1158800000011,
                    "velocity": 0.2440944881889764,
                    "duration": 0.3204099999999812
                },
                {
                    "name": "F2",
                    "midi": 41,
                    "time": 278.43629000000107,
                    "velocity": 0.2047244094488189,
                    "duration": 0.3204099999999812
                },
                {
                    "name": "F3",
                    "midi": 53,
                    "time": 278.43629000000107,
                    "velocity": 0.2440944881889764,
                    "duration": 0.3204099999999812
                },
                {
                    "name": "F#2",
                    "midi": 42,
                    "time": 278.75670000000105,
                    "velocity": 0.23622047244094488,
                    "duration": 0.3204099999999812
                },
                {
                    "name": "F#3",
                    "midi": 54,
                    "time": 278.75670000000105,
                    "velocity": 0.28346456692913385,
                    "duration": 0.3204099999999812
                },
                {
                    "name": "F2",
                    "midi": 41,
                    "time": 279.077110000001,
                    "velocity": 0.2047244094488189,
                    "duration": 0.32041000000003805
                },
                {
                    "name": "F3",
                    "midi": 53,
                    "time": 279.077110000001,
                    "velocity": 0.2440944881889764,
                    "duration": 0.32041000000003805
                },
                {
                    "name": "C#2",
                    "midi": 37,
                    "time": 279.39752000000107,
                    "velocity": 0.2047244094488189,
                    "duration": 0.3204099999999812
                },
                {
                    "name": "C#3",
                    "midi": 49,
                    "time": 279.39752000000107,
                    "velocity": 0.2440944881889764,
                    "duration": 0.3204099999999812
                },
                {
                    "name": "D#2",
                    "midi": 39,
                    "time": 279.71793000000105,
                    "velocity": 0.23622047244094488,
                    "duration": 0.3204099999999812
                },
                {
                    "name": "D#3",
                    "midi": 51,
                    "time": 279.71793000000105,
                    "velocity": 0.28346456692913385,
                    "duration": 0.3204099999999812
                },
                {
                    "name": "C#2",
                    "midi": 37,
                    "time": 280.038340000001,
                    "velocity": 0.2047244094488189,
                    "duration": 0.3204099999999812
                },
                {
                    "name": "C#3",
                    "midi": 49,
                    "time": 280.038340000001,
                    "velocity": 0.2440944881889764,
                    "duration": 0.3204099999999812
                },
                {
                    "name": "A#1",
                    "midi": 34,
                    "time": 280.358750000001,
                    "velocity": 0.2440944881889764,
                    "duration": 0.3204099999999812
                },
                {
                    "name": "A#2",
                    "midi": 46,
                    "time": 280.358750000001,
                    "velocity": 0.2440944881889764,
                    "duration": 0.3204099999999812
                },
                {
                    "name": "B1",
                    "midi": 35,
                    "time": 280.679160000001,
                    "velocity": 0.2992125984251969,
                    "duration": 0.3204099999999812
                },
                {
                    "name": "B2",
                    "midi": 47,
                    "time": 280.679160000001,
                    "velocity": 0.2992125984251969,
                    "duration": 0.3204099999999812
                },
                {
                    "name": "A#1",
                    "midi": 34,
                    "time": 280.999570000001,
                    "velocity": 0.2992125984251969,
                    "duration": 0.3204099999999812
                },
                {
                    "name": "A#2",
                    "midi": 46,
                    "time": 280.999570000001,
                    "velocity": 0.2992125984251969,
                    "duration": 0.3204099999999812
                },
                {
                    "name": "F#1",
                    "midi": 30,
                    "time": 281.31998000000095,
                    "velocity": 0.31496062992125984,
                    "duration": 0.3204099999999812
                },
                {
                    "name": "F#2",
                    "midi": 42,
                    "time": 281.31998000000095,
                    "velocity": 0.31496062992125984,
                    "duration": 0.3204099999999812
                },
                {
                    "name": "D#1",
                    "midi": 27,
                    "time": 281.64039000000093,
                    "velocity": 0.31496062992125984,
                    "duration": 0.32041000000003805
                },
                {
                    "name": "D#2",
                    "midi": 39,
                    "time": 281.64039000000093,
                    "velocity": 0.3700787401574803,
                    "duration": 0.32041000000003805
                },
                {
                    "name": "E1",
                    "midi": 28,
                    "time": 281.960800000001,
                    "velocity": 0.2992125984251969,
                    "duration": 0.060076874999992924
                },
                {
                    "name": "E2",
                    "midi": 40,
                    "time": 281.960800000001,
                    "velocity": 0.3464566929133858,
                    "duration": 0.060076874999992924
                },
                {
                    "name": "F1",
                    "midi": 29,
                    "time": 282.121005000001,
                    "velocity": 0.2992125984251969,
                    "duration": 0.060076874999992924
                },
                {
                    "name": "F2",
                    "midi": 41,
                    "time": 282.121005000001,
                    "velocity": 0.3700787401574803,
                    "duration": 0.060076874999992924
                },
                {
                    "name": "F#1",
                    "midi": 30,
                    "time": 282.281210000001,
                    "velocity": 0.36220472440944884,
                    "duration": 0.3204099999999812
                },
                {
                    "name": "F#2",
                    "midi": 42,
                    "time": 282.281210000001,
                    "velocity": 0.4251968503937008,
                    "duration": 0.3204099999999812
                },
                {
                    "name": "G#1",
                    "midi": 32,
                    "time": 282.601620000001,
                    "velocity": 0.4409448818897638,
                    "duration": 0.32041000000003805
                },
                {
                    "name": "G#2",
                    "midi": 44,
                    "time": 282.601620000001,
                    "velocity": 0.5275590551181102,
                    "duration": 0.32041000000003805
                },
                {
                    "name": "G#2",
                    "midi": 44,
                    "time": 282.92203000000103,
                    "velocity": 0.33858267716535434,
                    "duration": 0.3204099999999812
                },
                {
                    "name": "D#3",
                    "midi": 51,
                    "time": 282.92203000000103,
                    "velocity": 0.33858267716535434,
                    "duration": 0.3204099999999812
                },
                {
                    "name": "F3",
                    "midi": 53,
                    "time": 282.92203000000103,
                    "velocity": 0.33858267716535434,
                    "duration": 0.3204099999999812
                },
                {
                    "name": "B3",
                    "midi": 59,
                    "time": 282.92203000000103,
                    "velocity": 0.4015748031496063,
                    "duration": 0.3204099999999812
                },
                {
                    "name": "A#2",
                    "midi": 46,
                    "time": 283.242440000001,
                    "velocity": 0.33858267716535434,
                    "duration": 0.3204099999999812
                },
                {
                    "name": "F3",
                    "midi": 53,
                    "time": 283.242440000001,
                    "velocity": 0.33858267716535434,
                    "duration": 0.3204099999999812
                },
                {
                    "name": "G#3",
                    "midi": 56,
                    "time": 283.242440000001,
                    "velocity": 0.33858267716535434,
                    "duration": 0.3204099999999812
                },
                {
                    "name": "D4",
                    "midi": 62,
                    "time": 283.242440000001,
                    "velocity": 0.4015748031496063,
                    "duration": 0.3204099999999812
                },
                {
                    "name": "F#1",
                    "midi": 30,
                    "time": 283.562850000001,
                    "velocity": 0.31496062992125984,
                    "duration": 0.3204099999999812
                },
                {
                    "name": "F#2",
                    "midi": 42,
                    "time": 283.562850000001,
                    "velocity": 0.3700787401574803,
                    "duration": 0.3204099999999812
                },
                {
                    "name": "G1",
                    "midi": 31,
                    "time": 283.883260000001,
                    "velocity": 0.2992125984251969,
                    "duration": 0.060076874999992924
                },
                {
                    "name": "G2",
                    "midi": 43,
                    "time": 283.883260000001,
                    "velocity": 0.3464566929133858,
                    "duration": 0.060076874999992924
                },
                {
                    "name": "G#1",
                    "midi": 32,
                    "time": 284.043465000001,
                    "velocity": 0.2755905511811024,
                    "duration": 0.060076874999992924
                },
                {
                    "name": "G#2",
                    "midi": 44,
                    "time": 284.043465000001,
                    "velocity": 0.33858267716535434,
                    "duration": 0.060076874999992924
                },
                {
                    "name": "A1",
                    "midi": 33,
                    "time": 284.203670000001,
                    "velocity": 0.36220472440944884,
                    "duration": 0.3204099999999812
                },
                {
                    "name": "A2",
                    "midi": 45,
                    "time": 284.203670000001,
                    "velocity": 0.4251968503937008,
                    "duration": 0.3204099999999812
                },
                {
                    "name": "B1",
                    "midi": 35,
                    "time": 284.524080000001,
                    "velocity": 0.4409448818897638,
                    "duration": 0.3204099999999812
                },
                {
                    "name": "B2",
                    "midi": 47,
                    "time": 284.524080000001,
                    "velocity": 0.5275590551181102,
                    "duration": 0.3204099999999812
                },
                {
                    "name": "C3",
                    "midi": 48,
                    "time": 284.844490000001,
                    "velocity": 0.33858267716535434,
                    "duration": 0.3204099999999812
                },
                {
                    "name": "F#3",
                    "midi": 54,
                    "time": 284.844490000001,
                    "velocity": 0.33858267716535434,
                    "duration": 0.3204099999999812
                },
                {
                    "name": "G#3",
                    "midi": 56,
                    "time": 284.844490000001,
                    "velocity": 0.33858267716535434,
                    "duration": 0.3204099999999812
                },
                {
                    "name": "D4",
                    "midi": 62,
                    "time": 284.844490000001,
                    "velocity": 0.4015748031496063,
                    "duration": 0.3204099999999812
                },
                {
                    "name": "C#3",
                    "midi": 49,
                    "time": 285.16490000000096,
                    "velocity": 0.33858267716535434,
                    "duration": 0.3204099999999812
                },
                {
                    "name": "G#3",
                    "midi": 56,
                    "time": 285.16490000000096,
                    "velocity": 0.33858267716535434,
                    "duration": 0.3204099999999812
                },
                {
                    "name": "B3",
                    "midi": 59,
                    "time": 285.16490000000096,
                    "velocity": 0.33858267716535434,
                    "duration": 0.3204099999999812
                },
                {
                    "name": "F4",
                    "midi": 65,
                    "time": 285.16490000000096,
                    "velocity": 0.4015748031496063,
                    "duration": 0.3204099999999812
                },
                {
                    "name": "A1",
                    "midi": 33,
                    "time": 285.48531000000094,
                    "velocity": 0.28346456692913385,
                    "duration": 0.3204099999999812
                },
                {
                    "name": "A2",
                    "midi": 45,
                    "time": 285.48531000000094,
                    "velocity": 0.33070866141732286,
                    "duration": 0.3204099999999812
                },
                {
                    "name": "B1",
                    "midi": 35,
                    "time": 285.8057200000009,
                    "velocity": 0.28346456692913385,
                    "duration": 0.060076874999992924
                },
                {
                    "name": "B2",
                    "midi": 47,
                    "time": 285.8057200000009,
                    "velocity": 0.33070866141732286,
                    "duration": 0.060076874999992924
                },
                {
                    "name": "C2",
                    "midi": 36,
                    "time": 285.96592500000094,
                    "velocity": 0.29133858267716534,
                    "duration": 0.060076874999992924
                },
                {
                    "name": "C3",
                    "midi": 48,
                    "time": 285.96592500000094,
                    "velocity": 0.3543307086614173,
                    "duration": 0.060076874999992924
                },
                {
                    "name": "C#2",
                    "midi": 37,
                    "time": 286.12613000000096,
                    "velocity": 0.3700787401574803,
                    "duration": 0.3204099999999812
                },
                {
                    "name": "C#3",
                    "midi": 49,
                    "time": 286.12613000000096,
                    "velocity": 0.4409448818897638,
                    "duration": 0.3204099999999812
                },
                {
                    "name": "D2",
                    "midi": 38,
                    "time": 286.44654000000094,
                    "velocity": 0.31496062992125984,
                    "duration": 0.3204099999999812
                },
                {
                    "name": "D3",
                    "midi": 50,
                    "time": 286.44654000000094,
                    "velocity": 0.3700787401574803,
                    "duration": 0.3204099999999812
                },
                {
                    "name": "D#2",
                    "midi": 39,
                    "time": 286.7669500000009,
                    "velocity": 0.31496062992125984,
                    "duration": 0.060076874999992924
                },
                {
                    "name": "D#3",
                    "midi": 51,
                    "time": 286.7669500000009,
                    "velocity": 0.3700787401574803,
                    "duration": 0.060076874999992924
                },
                {
                    "name": "E2",
                    "midi": 40,
                    "time": 286.92715500000094,
                    "velocity": 0.30708661417322836,
                    "duration": 0.060076874999992924
                },
                {
                    "name": "E3",
                    "midi": 52,
                    "time": 286.92715500000094,
                    "velocity": 0.3779527559055118,
                    "duration": 0.060076874999992924
                },
                {
                    "name": "F2",
                    "midi": 41,
                    "time": 287.08736000000096,
                    "velocity": 0.3543307086614173,
                    "duration": 0.3204099999999812
                },
                {
                    "name": "F3",
                    "midi": 53,
                    "time": 287.08736000000096,
                    "velocity": 0.41732283464566927,
                    "duration": 0.3204099999999812
                },
                {
                    "name": "F#2",
                    "midi": 42,
                    "time": 287.40777000000094,
                    "velocity": 0.33070866141732286,
                    "duration": 0.3204099999999812
                },
                {
                    "name": "F#3",
                    "midi": 54,
                    "time": 287.40777000000094,
                    "velocity": 0.3937007874015748,
                    "duration": 0.3204099999999812
                },
                {
                    "name": "G2",
                    "midi": 43,
                    "time": 287.7281800000009,
                    "velocity": 0.33070866141732286,
                    "duration": 0.060076874999992924
                },
                {
                    "name": "G3",
                    "midi": 55,
                    "time": 287.7281800000009,
                    "velocity": 0.3779527559055118,
                    "duration": 0.060076874999992924
                },
                {
                    "name": "G#2",
                    "midi": 44,
                    "time": 287.88838500000094,
                    "velocity": 0.30708661417322836,
                    "duration": 0.060076874999992924
                },
                {
                    "name": "G#3",
                    "midi": 56,
                    "time": 287.88838500000094,
                    "velocity": 0.3937007874015748,
                    "duration": 0.060076874999992924
                },
                {
                    "name": "A2",
                    "midi": 45,
                    "time": 288.04859000000096,
                    "velocity": 0.3779527559055118,
                    "duration": 0.3204099999999812
                },
                {
                    "name": "A3",
                    "midi": 57,
                    "time": 288.04859000000096,
                    "velocity": 0.44881889763779526,
                    "duration": 0.3204099999999812
                },
                {
                    "name": "C2",
                    "midi": 36,
                    "time": 288.36900000000094,
                    "velocity": 0.41732283464566927,
                    "duration": 0.3204099999999812
                },
                {
                    "name": "C3",
                    "midi": 48,
                    "time": 288.36900000000094,
                    "velocity": 0.5118110236220472,
                    "duration": 0.3204099999999812
                },
                {
                    "name": "C4",
                    "midi": 60,
                    "time": 288.6894100000009,
                    "velocity": 0.4015748031496063,
                    "duration": 0.16020500000001903
                },
                {
                    "name": "F#4",
                    "midi": 66,
                    "time": 288.6894100000009,
                    "velocity": 0.4015748031496063,
                    "duration": 0.16020500000001903
                },
                {
                    "name": "A4",
                    "midi": 69,
                    "time": 288.6894100000009,
                    "velocity": 0.4015748031496063,
                    "duration": 0.16020500000001903
                },
                {
                    "name": "C5",
                    "midi": 72,
                    "time": 288.6894100000009,
                    "velocity": 0.48031496062992124,
                    "duration": 0.16020500000001903
                },
                {
                    "name": "B2",
                    "midi": 47,
                    "time": 289.0098200000009,
                    "velocity": 0.5433070866141733,
                    "duration": 0.3204099999999812
                },
                {
                    "name": "B1",
                    "midi": 35,
                    "time": 289.0098200000009,
                    "velocity": 0.44881889763779526,
                    "duration": 0.3204099999999812
                },
                {
                    "name": "A2",
                    "midi": 45,
                    "time": 289.3302300000009,
                    "velocity": 0.3858267716535433,
                    "duration": 0.32041000000003805
                },
                {
                    "name": "C#3",
                    "midi": 49,
                    "time": 289.3302300000009,
                    "velocity": 0.4566929133858268,
                    "duration": 0.32041000000003805
                },
                {
                    "name": "F#3",
                    "midi": 54,
                    "time": 289.3302300000009,
                    "velocity": 0.4566929133858268,
                    "duration": 0.32041000000003805
                },
                {
                    "name": "A3",
                    "midi": 57,
                    "time": 289.3302300000009,
                    "velocity": 0.4566929133858268,
                    "duration": 0.32041000000003805
                },
                {
                    "name": "A1",
                    "midi": 33,
                    "time": 289.6506400000009,
                    "velocity": 0.4251968503937008,
                    "duration": 0.16020499999996218
                },
                {
                    "name": "A2",
                    "midi": 45,
                    "time": 289.6506400000009,
                    "velocity": 0.5118110236220472,
                    "duration": 0.16020499999996218
                },
                {
                    "name": "B2",
                    "midi": 47,
                    "time": 289.9710500000009,
                    "velocity": 0.3937007874015748,
                    "duration": 0.32041000000003805
                },
                {
                    "name": "F#3",
                    "midi": 54,
                    "time": 289.9710500000009,
                    "velocity": 0.3937007874015748,
                    "duration": 0.32041000000003805
                },
                {
                    "name": "B3",
                    "midi": 59,
                    "time": 289.9710500000009,
                    "velocity": 0.4645669291338583,
                    "duration": 0.32041000000003805
                },
                {
                    "name": "B1",
                    "midi": 35,
                    "time": 290.29146000000094,
                    "velocity": 0.4251968503937008,
                    "duration": 0.16020500000001903
                },
                {
                    "name": "B2",
                    "midi": 47,
                    "time": 290.29146000000094,
                    "velocity": 0.5118110236220472,
                    "duration": 0.16020500000001903
                },
                {
                    "name": "G#3",
                    "midi": 56,
                    "time": 290.611870000001,
                    "velocity": 0.3937007874015748,
                    "duration": 0.3204099999999812
                },
                {
                    "name": "D3",
                    "midi": 50,
                    "time": 290.611870000001,
                    "velocity": 0.3543307086614173,
                    "duration": 0.3204099999999812
                },
                {
                    "name": "F#3",
                    "midi": 54,
                    "time": 290.611870000001,
                    "velocity": 0.3700787401574803,
                    "duration": 0.3204099999999812
                },
                {
                    "name": "B3",
                    "midi": 59,
                    "time": 290.611870000001,
                    "velocity": 0.4645669291338583,
                    "duration": 0.3204099999999812
                },
                {
                    "name": "D2",
                    "midi": 38,
                    "time": 290.93228000000096,
                    "velocity": 0.4251968503937008,
                    "duration": 0.16020500000001903
                },
                {
                    "name": "D3",
                    "midi": 50,
                    "time": 290.93228000000096,
                    "velocity": 0.5118110236220472,
                    "duration": 0.16020500000001903
                },
                {
                    "name": "F#3",
                    "midi": 54,
                    "time": 291.252690000001,
                    "velocity": 0.3937007874015748,
                    "duration": 0.3204099999999812
                },
                {
                    "name": "C#3",
                    "midi": 49,
                    "time": 291.252690000001,
                    "velocity": 0.3937007874015748,
                    "duration": 0.3204099999999812
                },
                {
                    "name": "A3",
                    "midi": 57,
                    "time": 291.252690000001,
                    "velocity": 0.4645669291338583,
                    "duration": 0.3204099999999812
                },
                {
                    "name": "C#2",
                    "midi": 37,
                    "time": 291.573100000001,
                    "velocity": 0.4251968503937008,
                    "duration": 0.16020500000001903
                },
                {
                    "name": "C#3",
                    "midi": 49,
                    "time": 291.573100000001,
                    "velocity": 0.5118110236220472,
                    "duration": 0.16020500000001903
                },
                {
                    "name": "F#3",
                    "midi": 54,
                    "time": 291.893510000001,
                    "velocity": 0.3937007874015748,
                    "duration": 0.3204099999999812
                },
                {
                    "name": "C#3",
                    "midi": 49,
                    "time": 291.893510000001,
                    "velocity": 0.3937007874015748,
                    "duration": 0.3204099999999812
                },
                {
                    "name": "G#3",
                    "midi": 56,
                    "time": 291.893510000001,
                    "velocity": 0.4645669291338583,
                    "duration": 0.3204099999999812
                },
                {
                    "name": "C#2",
                    "midi": 37,
                    "time": 292.213920000001,
                    "velocity": 0.4251968503937008,
                    "duration": 0.16020500000001903
                },
                {
                    "name": "C#3",
                    "midi": 49,
                    "time": 292.213920000001,
                    "velocity": 0.5118110236220472,
                    "duration": 0.16020500000001903
                },
                {
                    "name": "G#3",
                    "midi": 56,
                    "time": 292.53433000000103,
                    "velocity": 0.3700787401574803,
                    "duration": 0.3204099999999812
                },
                {
                    "name": "C#3",
                    "midi": 49,
                    "time": 292.53433000000103,
                    "velocity": 0.3700787401574803,
                    "duration": 0.3204099999999812
                },
                {
                    "name": "B3",
                    "midi": 59,
                    "time": 292.53433000000103,
                    "velocity": 0.4409448818897638,
                    "duration": 0.3204099999999812
                },
                {
                    "name": "C#4",
                    "midi": 61,
                    "time": 292.854740000001,
                    "velocity": 0.31496062992125984,
                    "duration": 0.16020500000001903
                },
                {
                    "name": "F4",
                    "midi": 65,
                    "time": 292.854740000001,
                    "velocity": 0.36220472440944884,
                    "duration": 0.16020500000001903
                },
                {
                    "name": "B4",
                    "midi": 71,
                    "time": 292.854740000001,
                    "velocity": 0.4330708661417323,
                    "duration": 0.16020500000001903
                },
                {
                    "name": "C#4",
                    "midi": 61,
                    "time": 293.175150000001,
                    "velocity": 0.36220472440944884,
                    "duration": 0.2803587500000049
                },
                {
                    "name": "F4",
                    "midi": 65,
                    "time": 293.175150000001,
                    "velocity": 0.3937007874015748,
                    "duration": 0.2803587500000049
                },
                {
                    "name": "B4",
                    "midi": 71,
                    "time": 293.175150000001,
                    "velocity": 0.4645669291338583,
                    "duration": 0.2803587500000049
                },
                {
                    "name": "F#3",
                    "midi": 54,
                    "time": 293.455508750001,
                    "velocity": 0.33070866141732286,
                    "duration": 0.36046125000007123
                },
                {
                    "name": "C#4",
                    "midi": 61,
                    "time": 293.475534375001,
                    "velocity": 0.3464566929133858,
                    "duration": 0.34043562500005464
                },
                {
                    "name": "A4",
                    "midi": 69,
                    "time": 293.49556000000103,
                    "velocity": 0.4015748031496063,
                    "duration": 0.32041000000003805
                },
                {
                    "name": "C#3",
                    "midi": 49,
                    "time": 293.8159700000011,
                    "velocity": 0.14960629921259844,
                    "duration": 0.16020500000001903
                },
                {
                    "name": "F3",
                    "midi": 53,
                    "time": 293.8159700000011,
                    "velocity": 0.2047244094488189,
                    "duration": 0.16020500000001903
                },
                {
                    "name": "B3",
                    "midi": 59,
                    "time": 293.8159700000011,
                    "velocity": 0.23622047244094488,
                    "duration": 0.16020500000001903
                },
                {
                    "name": "C#3",
                    "midi": 49,
                    "time": 294.1363800000011,
                    "velocity": 0.16535433070866143,
                    "duration": 0.2803587500000049
                },
                {
                    "name": "F3",
                    "midi": 53,
                    "time": 294.1363800000011,
                    "velocity": 0.2204724409448819,
                    "duration": 0.2803587500000049
                },
                {
                    "name": "B3",
                    "midi": 59,
                    "time": 294.1363800000011,
                    "velocity": 0.25984251968503935,
                    "duration": 0.2803587500000049
                },
                {
                    "name": "F#2",
                    "midi": 42,
                    "time": 294.4167387500011,
                    "velocity": 0.1968503937007874,
                    "duration": 0.3604612500000144
                },
                {
                    "name": "C#3",
                    "midi": 49,
                    "time": 294.43676437500113,
                    "velocity": 0.1968503937007874,
                    "duration": 0.3404356249999978
                },
                {
                    "name": "A3",
                    "midi": 57,
                    "time": 294.45679000000115,
                    "velocity": 0.23622047244094488,
                    "duration": 0.3204099999999812
                },
                {
                    "name": "C#3",
                    "midi": 49,
                    "time": 294.77720000000113,
                    "velocity": 0.13385826771653545,
                    "duration": 0.3204099999999812
                },
                {
                    "name": "F3",
                    "midi": 53,
                    "time": 294.77720000000113,
                    "velocity": 0.16535433070866143,
                    "duration": 0.3204099999999812
                },
                {
                    "name": "B3",
                    "midi": 59,
                    "time": 294.77720000000113,
                    "velocity": 0.1968503937007874,
                    "duration": 0.3204099999999812
                },
                {
                    "name": "C#3",
                    "midi": 49,
                    "time": 295.0976100000011,
                    "velocity": 0.1889763779527559,
                    "duration": 0.3204099999999812
                },
                {
                    "name": "F#3",
                    "midi": 54,
                    "time": 295.0976100000011,
                    "velocity": 0.2204724409448819,
                    "duration": 0.3204099999999812
                },
                {
                    "name": "A3",
                    "midi": 57,
                    "time": 295.0976100000011,
                    "velocity": 0.25984251968503935,
                    "duration": 0.3204099999999812
                },
                {
                    "name": "F#2",
                    "midi": 42,
                    "time": 295.4180200000011,
                    "velocity": 0.1968503937007874,
                    "duration": 0.3204099999999812
                },
                {
                    "name": "C#3",
                    "midi": 49,
                    "time": 295.7384300000011,
                    "velocity": 0.13385826771653545,
                    "duration": 0.3204099999999812
                },
                {
                    "name": "F3",
                    "midi": 53,
                    "time": 295.7384300000011,
                    "velocity": 0.15748031496062992,
                    "duration": 0.3204099999999812
                },
                {
                    "name": "B3",
                    "midi": 59,
                    "time": 295.7384300000011,
                    "velocity": 0.18110236220472442,
                    "duration": 0.3204099999999812
                },
                {
                    "name": "C#3",
                    "midi": 49,
                    "time": 296.05884000000106,
                    "velocity": 0.16535433070866143,
                    "duration": 0.32041000000003805
                },
                {
                    "name": "F#3",
                    "midi": 54,
                    "time": 296.05884000000106,
                    "velocity": 0.2047244094488189,
                    "duration": 0.32041000000003805
                },
                {
                    "name": "A3",
                    "midi": 57,
                    "time": 296.05884000000106,
                    "velocity": 0.23622047244094488,
                    "duration": 0.32041000000003805
                },
                {
                    "name": "F#2",
                    "midi": 42,
                    "time": 296.3792500000011,
                    "velocity": 0.1732283464566929,
                    "duration": 0.3204099999999812
                },
                {
                    "name": "C#3",
                    "midi": 49,
                    "time": 296.6996600000011,
                    "velocity": 0.11811023622047244,
                    "duration": 0.32041000000003805
                },
                {
                    "name": "F3",
                    "midi": 53,
                    "time": 296.6996600000011,
                    "velocity": 0.14173228346456693,
                    "duration": 0.32041000000003805
                },
                {
                    "name": "B3",
                    "midi": 59,
                    "time": 296.6996600000011,
                    "velocity": 0.16535433070866143,
                    "duration": 0.32041000000003805
                },
                {
                    "name": "C#3",
                    "midi": 49,
                    "time": 297.0200700000011,
                    "velocity": 0.14960629921259844,
                    "duration": 0.3204099999999812
                },
                {
                    "name": "F#3",
                    "midi": 54,
                    "time": 297.0200700000011,
                    "velocity": 0.1889763779527559,
                    "duration": 0.3204099999999812
                },
                {
                    "name": "A#3",
                    "midi": 58,
                    "time": 297.0200700000011,
                    "velocity": 0.2125984251968504,
                    "duration": 0.3204099999999812
                },
                {
                    "name": "F#2",
                    "midi": 42,
                    "time": 297.3404800000011,
                    "velocity": 0.16535433070866143,
                    "duration": 0.3204099999999812
                },
                {
                    "name": "C#3",
                    "midi": 49,
                    "time": 297.6608900000011,
                    "velocity": 0.11023622047244094,
                    "duration": 0.3204099999999812
                },
                {
                    "name": "F3",
                    "midi": 53,
                    "time": 297.6608900000011,
                    "velocity": 0.13385826771653545,
                    "duration": 0.3204099999999812
                },
                {
                    "name": "B3",
                    "midi": 59,
                    "time": 297.6608900000011,
                    "velocity": 0.15748031496062992,
                    "duration": 0.3204099999999812
                },
                {
                    "name": "C#3",
                    "midi": 49,
                    "time": 297.98130000000106,
                    "velocity": 0.14173228346456693,
                    "duration": 0.32041000000003805
                },
                {
                    "name": "F#3",
                    "midi": 54,
                    "time": 297.98130000000106,
                    "velocity": 0.18110236220472442,
                    "duration": 0.32041000000003805
                },
                {
                    "name": "A#3",
                    "midi": 58,
                    "time": 297.98130000000106,
                    "velocity": 0.2047244094488189,
                    "duration": 0.32041000000003805
                },
                {
                    "name": "F#2",
                    "midi": 42,
                    "time": 298.3017100000011,
                    "velocity": 0.14960629921259844,
                    "duration": 0.3204099999999812
                },
                {
                    "name": "C#3",
                    "midi": 49,
                    "time": 298.6221200000011,
                    "velocity": 0.10236220472440945,
                    "duration": 0.3204099999999812
                },
                {
                    "name": "F3",
                    "midi": 53,
                    "time": 298.6221200000011,
                    "velocity": 0.12598425196850394,
                    "duration": 0.3204099999999812
                },
                {
                    "name": "B3",
                    "midi": 59,
                    "time": 298.6221200000011,
                    "velocity": 0.14960629921259844,
                    "duration": 0.3204099999999812
                },
                {
                    "name": "C#3",
                    "midi": 49,
                    "time": 298.94253000000106,
                    "velocity": 0.13385826771653545,
                    "duration": 0.3204099999999812
                },
                {
                    "name": "F#3",
                    "midi": 54,
                    "time": 298.94253000000106,
                    "velocity": 0.16535433070866143,
                    "duration": 0.3204099999999812
                },
                {
                    "name": "A#3",
                    "midi": 58,
                    "time": 298.94253000000106,
                    "velocity": 0.1968503937007874,
                    "duration": 0.3204099999999812
                },
                {
                    "name": "F#2",
                    "midi": 42,
                    "time": 299.26294000000104,
                    "velocity": 0.14173228346456693,
                    "duration": 0.3204099999999812
                },
                {
                    "name": "C#3",
                    "midi": 49,
                    "time": 299.583350000001,
                    "velocity": 0.10236220472440945,
                    "duration": 0.3204099999999812
                },
                {
                    "name": "F3",
                    "midi": 53,
                    "time": 299.583350000001,
                    "velocity": 0.11811023622047244,
                    "duration": 0.3204099999999812
                },
                {
                    "name": "B3",
                    "midi": 59,
                    "time": 299.583350000001,
                    "velocity": 0.13385826771653545,
                    "duration": 0.3204099999999812
                },
                {
                    "name": "C#3",
                    "midi": 49,
                    "time": 299.903760000001,
                    "velocity": 0.12598425196850394,
                    "duration": 0.3204099999999812
                },
                {
                    "name": "F#3",
                    "midi": 54,
                    "time": 299.903760000001,
                    "velocity": 0.15748031496062992,
                    "duration": 0.3204099999999812
                },
                {
                    "name": "A#3",
                    "midi": 58,
                    "time": 299.903760000001,
                    "velocity": 0.1889763779527559,
                    "duration": 0.3204099999999812
                },
                {
                    "name": "F#2",
                    "midi": 42,
                    "time": 300.224170000001,
                    "velocity": 0.13385826771653545,
                    "duration": 0.3204099999999812
                },
                {
                    "name": "C#3",
                    "midi": 49,
                    "time": 300.54458000000096,
                    "velocity": 0.10236220472440945,
                    "duration": 0.3204099999999812
                },
                {
                    "name": "F3",
                    "midi": 53,
                    "time": 300.54458000000096,
                    "velocity": 0.11811023622047244,
                    "duration": 0.3204099999999812
                },
                {
                    "name": "B3",
                    "midi": 59,
                    "time": 300.54458000000096,
                    "velocity": 0.13385826771653545,
                    "duration": 0.3204099999999812
                },
                {
                    "name": "F#2",
                    "midi": 42,
                    "time": 300.86499000000094,
                    "velocity": 0.25196850393700787,
                    "duration": 0.3204099999999812
                },
                {
                    "name": "D#4",
                    "midi": 63,
                    "time": 301.1854000000009,
                    "velocity": 0.15748031496062992,
                    "duration": 0.3204099999999812
                },
                {
                    "name": "F#3",
                    "midi": 54,
                    "time": 301.1854000000009,
                    "velocity": 0.13385826771653545,
                    "duration": 0.3204099999999812
                },
                {
                    "name": "C#3",
                    "midi": 49,
                    "time": 301.1854000000009,
                    "velocity": 0.13385826771653545,
                    "duration": 0.3204099999999812
                },
                {
                    "name": "C#3",
                    "midi": 49,
                    "time": 301.5058100000009,
                    "velocity": 0.11023622047244094,
                    "duration": 0.3204099999999812
                },
                {
                    "name": "F#3",
                    "midi": 54,
                    "time": 301.5058100000009,
                    "velocity": 0.11023622047244094,
                    "duration": 0.3204099999999812
                },
                {
                    "name": "C#4",
                    "midi": 61,
                    "time": 301.5058100000009,
                    "velocity": 0.13385826771653545,
                    "duration": 0.3204099999999812
                },
                {
                    "name": "C#3",
                    "midi": 49,
                    "time": 301.8262200000009,
                    "velocity": 0.12598425196850394,
                    "duration": 0.32041000000003805
                },
                {
                    "name": "F#3",
                    "midi": 54,
                    "time": 301.8262200000009,
                    "velocity": 0.12598425196850394,
                    "duration": 0.32041000000003805
                },
                {
                    "name": "C#4",
                    "midi": 61,
                    "time": 301.8262200000009,
                    "velocity": 0.15748031496062992,
                    "duration": 0.32041000000003805
                },
                {
                    "name": "D#4",
                    "midi": 63,
                    "time": 302.1466300000009,
                    "velocity": 0.12598425196850394,
                    "duration": 0.3204099999999812
                },
                {
                    "name": "C#3",
                    "midi": 49,
                    "time": 302.1466300000009,
                    "velocity": 0.07874015748031496,
                    "duration": 0.3204099999999812
                },
                {
                    "name": "F#3",
                    "midi": 54,
                    "time": 302.1466300000009,
                    "velocity": 0.11023622047244094,
                    "duration": 0.3204099999999812
                },
                {
                    "name": "C#3",
                    "midi": 49,
                    "time": 302.4670400000009,
                    "velocity": 0.09448818897637795,
                    "duration": 0.3204099999999812
                },
                {
                    "name": "F#3",
                    "midi": 54,
                    "time": 302.4670400000009,
                    "velocity": 0.09448818897637795,
                    "duration": 0.3204099999999812
                },
                {
                    "name": "C#4",
                    "midi": 61,
                    "time": 302.4670400000009,
                    "velocity": 0.11811023622047244,
                    "duration": 0.3204099999999812
                },
                {
                    "name": "C#3",
                    "midi": 49,
                    "time": 302.7874500000009,
                    "velocity": 0.12598425196850394,
                    "duration": 0.32041000000003805
                },
                {
                    "name": "F#3",
                    "midi": 54,
                    "time": 302.7874500000009,
                    "velocity": 0.12598425196850394,
                    "duration": 0.32041000000003805
                },
                {
                    "name": "C#4",
                    "midi": 61,
                    "time": 302.7874500000009,
                    "velocity": 0.15748031496062992,
                    "duration": 0.32041000000003805
                },
                {
                    "name": "D#4",
                    "midi": 63,
                    "time": 303.1078600000009,
                    "velocity": 0.14960629921259844,
                    "duration": 0.3204099999999812
                },
                {
                    "name": "F#3",
                    "midi": 54,
                    "time": 303.1078600000009,
                    "velocity": 0.12598425196850394,
                    "duration": 0.3204099999999812
                },
                {
                    "name": "C#3",
                    "midi": 49,
                    "time": 303.1078600000009,
                    "velocity": 0.12598425196850394,
                    "duration": 0.3204099999999812
                },
                {
                    "name": "C#3",
                    "midi": 49,
                    "time": 303.4282700000009,
                    "velocity": 0.10236220472440945,
                    "duration": 0.3204099999999812
                },
                {
                    "name": "F#3",
                    "midi": 54,
                    "time": 303.4282700000009,
                    "velocity": 0.10236220472440945,
                    "duration": 0.3204099999999812
                },
                {
                    "name": "C#4",
                    "midi": 61,
                    "time": 303.4282700000009,
                    "velocity": 0.12598425196850394,
                    "duration": 0.3204099999999812
                },
                {
                    "name": "C#3",
                    "midi": 49,
                    "time": 303.7486800000009,
                    "velocity": 0.12598425196850394,
                    "duration": 0.32041000000003805
                },
                {
                    "name": "F#3",
                    "midi": 54,
                    "time": 303.7486800000009,
                    "velocity": 0.12598425196850394,
                    "duration": 0.32041000000003805
                },
                {
                    "name": "C#4",
                    "midi": 61,
                    "time": 303.7486800000009,
                    "velocity": 0.15748031496062992,
                    "duration": 0.32041000000003805
                },
                {
                    "name": "D#4",
                    "midi": 63,
                    "time": 304.0690900000009,
                    "velocity": 0.14960629921259844,
                    "duration": 0.3204099999999812
                },
                {
                    "name": "C#3",
                    "midi": 49,
                    "time": 304.0690900000009,
                    "velocity": 0.12598425196850394,
                    "duration": 0.3204099999999812
                },
                {
                    "name": "F#3",
                    "midi": 54,
                    "time": 304.0690900000009,
                    "velocity": 0.12598425196850394,
                    "duration": 0.3204099999999812
                },
                {
                    "name": "C#3",
                    "midi": 49,
                    "time": 304.3895000000009,
                    "velocity": 0.10236220472440945,
                    "duration": 0.3204099999999812
                },
                {
                    "name": "F#3",
                    "midi": 54,
                    "time": 304.3895000000009,
                    "velocity": 0.10236220472440945,
                    "duration": 0.3204099999999812
                },
                {
                    "name": "C#4",
                    "midi": 61,
                    "time": 304.3895000000009,
                    "velocity": 0.12598425196850394,
                    "duration": 0.3204099999999812
                },
                {
                    "name": "C#3",
                    "midi": 49,
                    "time": 304.7099100000009,
                    "velocity": 0.12598425196850394,
                    "duration": 0.3204099999999812
                },
                {
                    "name": "F#3",
                    "midi": 54,
                    "time": 304.7099100000009,
                    "velocity": 0.12598425196850394,
                    "duration": 0.3204099999999812
                },
                {
                    "name": "C#4",
                    "midi": 61,
                    "time": 304.7099100000009,
                    "velocity": 0.14960629921259844,
                    "duration": 0.3204099999999812
                },
                {
                    "name": "C#3",
                    "midi": 49,
                    "time": 305.03032000000087,
                    "velocity": 0.11023622047244094,
                    "duration": 0.3204099999999812
                },
                {
                    "name": "F#3",
                    "midi": 54,
                    "time": 305.03032000000087,
                    "velocity": 0.11023622047244094,
                    "duration": 0.3204099999999812
                },
                {
                    "name": "B3",
                    "midi": 59,
                    "time": 305.03032000000087,
                    "velocity": 0.13385826771653545,
                    "duration": 0.3204099999999812
                },
                {
                    "name": "C#3",
                    "midi": 49,
                    "time": 305.35073000000085,
                    "velocity": 0.11811023622047244,
                    "duration": 0.3204099999999812
                },
                {
                    "name": "F#3",
                    "midi": 54,
                    "time": 305.35073000000085,
                    "velocity": 0.11811023622047244,
                    "duration": 0.3204099999999812
                },
                {
                    "name": "A#3",
                    "midi": 58,
                    "time": 305.35073000000085,
                    "velocity": 0.14173228346456693,
                    "duration": 0.3204099999999812
                },
                {
                    "name": "C#3",
                    "midi": 49,
                    "time": 305.67114000000083,
                    "velocity": 0.11811023622047244,
                    "duration": 0.3204099999999812
                },
                {
                    "name": "F#3",
                    "midi": 54,
                    "time": 305.67114000000083,
                    "velocity": 0.11811023622047244,
                    "duration": 0.3204099999999812
                },
                {
                    "name": "A#3",
                    "midi": 58,
                    "time": 305.67114000000083,
                    "velocity": 0.14173228346456693,
                    "duration": 0.3204099999999812
                },
                {
                    "name": "B2",
                    "midi": 47,
                    "time": 305.9915500000008,
                    "velocity": 0.13385826771653545,
                    "duration": 0.3204099999999812
                },
                {
                    "name": "C#3",
                    "midi": 49,
                    "time": 305.9915500000008,
                    "velocity": 0.16535433070866143,
                    "duration": 0.3204099999999812
                },
                {
                    "name": "A#2",
                    "midi": 46,
                    "time": 306.3119600000008,
                    "velocity": 0.13385826771653545,
                    "duration": 0.3204099999999812
                },
                {
                    "name": "C#3",
                    "midi": 49,
                    "time": 306.3119600000008,
                    "velocity": 0.16535433070866143,
                    "duration": 0.3204099999999812
                },
                {
                    "name": "A#2",
                    "midi": 46,
                    "time": 306.6323700000008,
                    "velocity": 0.13385826771653545,
                    "duration": 0.3204099999999812
                },
                {
                    "name": "C#3",
                    "midi": 49,
                    "time": 306.6323700000008,
                    "velocity": 0.16535433070866143,
                    "duration": 0.3204099999999812
                },
                {
                    "name": "B2",
                    "midi": 47,
                    "time": 306.95278000000076,
                    "velocity": 0.13385826771653545,
                    "duration": 0.3204099999999812
                },
                {
                    "name": "C#3",
                    "midi": 49,
                    "time": 306.95278000000076,
                    "velocity": 0.16535433070866143,
                    "duration": 0.3204099999999812
                },
                {
                    "name": "A#2",
                    "midi": 46,
                    "time": 307.27319000000074,
                    "velocity": 0.13385826771653545,
                    "duration": 0.3204099999999812
                },
                {
                    "name": "C#3",
                    "midi": 49,
                    "time": 307.27319000000074,
                    "velocity": 0.16535433070866143,
                    "duration": 0.3204099999999812
                },
                {
                    "name": "A#2",
                    "midi": 46,
                    "time": 307.5936000000007,
                    "velocity": 0.12598425196850394,
                    "duration": 0.3204099999999812
                },
                {
                    "name": "C#3",
                    "midi": 49,
                    "time": 307.5936000000007,
                    "velocity": 0.15748031496062992,
                    "duration": 0.3204099999999812
                },
                {
                    "name": "B2",
                    "midi": 47,
                    "time": 307.9140100000007,
                    "velocity": 0.12598425196850394,
                    "duration": 0.3204099999999812
                },
                {
                    "name": "C#3",
                    "midi": 49,
                    "time": 307.9140100000007,
                    "velocity": 0.15748031496062992,
                    "duration": 0.3204099999999812
                },
                {
                    "name": "A#2",
                    "midi": 46,
                    "time": 308.2344200000007,
                    "velocity": 0.11811023622047244,
                    "duration": 0.6408200000000193
                },
                {
                    "name": "C#3",
                    "midi": 49,
                    "time": 308.2344200000007,
                    "velocity": 0.14173228346456693,
                    "duration": 0.6408200000000193
                },
                {
                    "name": "G#1",
                    "midi": 32,
                    "time": 308.8752400000007,
                    "velocity": 0.13385826771653545,
                    "duration": 0.3204099999999812
                },
                {
                    "name": "G#2",
                    "midi": 44,
                    "time": 308.8752400000007,
                    "velocity": 0.15748031496062992,
                    "duration": 0.3204099999999812
                },
                {
                    "name": "F#1",
                    "midi": 30,
                    "time": 309.1956500000007,
                    "velocity": 0.13385826771653545,
                    "duration": 0.3204099999999812
                },
                {
                    "name": "F#2",
                    "midi": 42,
                    "time": 309.1956500000007,
                    "velocity": 0.15748031496062992,
                    "duration": 0.3204099999999812
                },
                {
                    "name": "F#1",
                    "midi": 30,
                    "time": 309.51606000000066,
                    "velocity": 0.13385826771653545,
                    "duration": 0.3204099999999812
                },
                {
                    "name": "F#2",
                    "midi": 42,
                    "time": 309.51606000000066,
                    "velocity": 0.15748031496062992,
                    "duration": 0.3204099999999812
                },
                {
                    "name": "G#1",
                    "midi": 32,
                    "time": 309.83647000000065,
                    "velocity": 0.13385826771653545,
                    "duration": 0.3204099999999812
                },
                {
                    "name": "G#2",
                    "midi": 44,
                    "time": 309.83647000000065,
                    "velocity": 0.15748031496062992,
                    "duration": 0.3204099999999812
                },
                {
                    "name": "F#1",
                    "midi": 30,
                    "time": 310.1568800000006,
                    "velocity": 0.13385826771653545,
                    "duration": 0.3204099999999812
                },
                {
                    "name": "F#2",
                    "midi": 42,
                    "time": 310.1568800000006,
                    "velocity": 0.15748031496062992,
                    "duration": 0.3204099999999812
                },
                {
                    "name": "C#1",
                    "midi": 25,
                    "time": 311.4385200000006,
                    "velocity": 0.12598425196850394,
                    "duration": 0.08010250000000951
                },
                {
                    "name": "C#2",
                    "midi": 37,
                    "time": 311.4385200000006,
                    "velocity": 0.15748031496062992,
                    "duration": 0.08010250000000951
                },
                {
                    "name": "F#1",
                    "midi": 30,
                    "time": 312.3997500000006,
                    "velocity": 0.12598425196850394,
                    "duration": 0.08010250000000951
                },
                {
                    "name": "F#2",
                    "midi": 42,
                    "time": 312.3997500000006,
                    "velocity": 0.15748031496062992,
                    "duration": 0.08010250000000951
                }
            ],
            "controlChanges": {
                "7": [
                    {
                        "number": 7,
                        "time": 0,
                        "value": 0.7874015748031497
                    }
                ],
                "10": [
                    {
                        "number": 10,
                        "time": 0,
                        "value": 0.5039370078740157
                    }
                ],
                "64": [
                    {
                        "number": 64,
                        "time": 2.006567625,
                        "value": 1
                    },
                    {
                        "number": 64,
                        "time": 2.2201742916666674,
                        "value": 0
                    },
                    {
                        "number": 64,
                        "time": 2.2809186875000007,
                        "value": 1
                    },
                    {
                        "number": 64,
                        "time": 2.5345766041666673,
                        "value": 0
                    },
                    {
                        "number": 64,
                        "time": 3.8969866250000007,
                        "value": 1
                    },
                    {
                        "number": 64,
                        "time": 4.16533,
                        "value": 0
                    },
                    {
                        "number": 64,
                        "time": 4.1913633125,
                        "value": 1
                    },
                    {
                        "number": 64,
                        "time": 4.4557015625,
                        "value": 0
                    },
                    {
                        "number": 64,
                        "time": 7.7559245625000015,
                        "value": 1
                    },
                    {
                        "number": 64,
                        "time": 8.342007854166669,
                        "value": 0
                    },
                    {
                        "number": 64,
                        "time": 8.783239125000003,
                        "value": 1
                    },
                    {
                        "number": 64,
                        "time": 9.625650416666671,
                        "value": 0
                    },
                    {
                        "number": 64,
                        "time": 9.763159708333339,
                        "value": 1
                    },
                    {
                        "number": 64,
                        "time": 10.911963062500007,
                        "value": 0
                    },
                    {
                        "number": 64,
                        "time": 11.16094833333334,
                        "value": 1
                    },
                    {
                        "number": 64,
                        "time": 11.871858020833342,
                        "value": 0
                    },
                    {
                        "number": 64,
                        "time": 12.282383333333343,
                        "value": 1
                    },
                    {
                        "number": 64,
                        "time": 12.823075208333345,
                        "value": 0
                    },
                    {
                        "number": 64,
                        "time": 13.243613333333345,
                        "value": 1
                    },
                    {
                        "number": 64,
                        "time": 13.793650500000012,
                        "value": 0
                    },
                    {
                        "number": 64,
                        "time": 21.231167625,
                        "value": 1
                    },
                    {
                        "number": 64,
                        "time": 21.795890250000003,
                        "value": 0
                    },
                    {
                        "number": 64,
                        "time": 23.121586625000003,
                        "value": 1
                    },
                    {
                        "number": 64,
                        "time": 23.719017770833336,
                        "value": 0
                    },
                    {
                        "number": 64,
                        "time": 26.9805245625,
                        "value": 1
                    },
                    {
                        "number": 64,
                        "time": 27.244862812500003,
                        "value": 0
                    },
                    {
                        "number": 64,
                        "time": 27.373694333333336,
                        "value": 1
                    },
                    {
                        "number": 64,
                        "time": 27.567275375000005,
                        "value": 0
                    },
                    {
                        "number": 64,
                        "time": 28.02052202083334,
                        "value": 1
                    },
                    {
                        "number": 64,
                        "time": 30.129887854166668,
                        "value": 0
                    },
                    {
                        "number": 64,
                        "time": 30.499694395833334,
                        "value": 1
                    },
                    {
                        "number": 64,
                        "time": 31.091117854166665,
                        "value": 0
                    },
                    {
                        "number": 64,
                        "time": 31.50698333333333,
                        "value": 1
                    },
                    {
                        "number": 64,
                        "time": 32.04567264583333,
                        "value": 0
                    },
                    {
                        "number": 64,
                        "time": 32.45286035416666,
                        "value": 1
                    },
                    {
                        "number": 64,
                        "time": 33.00957272916666,
                        "value": 0
                    },
                    {
                        "number": 64,
                        "time": 33.4447963125,
                        "value": 1
                    },
                    {
                        "number": 64,
                        "time": 33.97080272916667,
                        "value": 0
                    },
                    {
                        "number": 64,
                        "time": 34.047567625000006,
                        "value": 1
                    },
                    {
                        "number": 64,
                        "time": 34.29121272916667,
                        "value": 0
                    },
                    {
                        "number": 64,
                        "time": 34.39067333333334,
                        "value": 1
                    },
                    {
                        "number": 64,
                        "time": 34.616295375,
                        "value": 0
                    },
                    {
                        "number": 64,
                        "time": 34.7464619375,
                        "value": 1
                    },
                    {
                        "number": 64,
                        "time": 35.56684504166667,
                        "value": 0
                    },
                    {
                        "number": 64,
                        "time": 35.6956765625,
                        "value": 1
                    },
                    {
                        "number": 64,
                        "time": 35.85521404166666,
                        "value": 0
                    },
                    {
                        "number": 64,
                        "time": 39.074667020833296,
                        "value": 1
                    },
                    {
                        "number": 64,
                        "time": 39.71548702083329,
                        "value": 0
                    },
                    {
                        "number": 64,
                        "time": 43.02639035416659,
                        "value": 1
                    },
                    {
                        "number": 64,
                        "time": 43.583770249999915,
                        "value": 0
                    },
                    {
                        "number": 64,
                        "time": 48.10889397916663,
                        "value": 1
                    },
                    {
                        "number": 64,
                        "time": 49.03007272916663,
                        "value": 0
                    },
                    {
                        "number": 64,
                        "time": 49.182934999999965,
                        "value": 1
                    },
                    {
                        "number": 64,
                        "time": 49.99130272916663,
                        "value": 0
                    },
                    {
                        "number": 64,
                        "time": 50.15351029166663,
                        "value": 1
                    },
                    {
                        "number": 64,
                        "time": 50.94518999999997,
                        "value": 0
                    },
                    {
                        "number": 64,
                        "time": 51.105394999999966,
                        "value": 1
                    },
                    {
                        "number": 64,
                        "time": 51.90975760416663,
                        "value": 0
                    },
                    {
                        "number": 64,
                        "time": 52.07797285416663,
                        "value": 1
                    },
                    {
                        "number": 64,
                        "time": 52.86764999999997,
                        "value": 0
                    },
                    {
                        "number": 64,
                        "time": 53.02785499999997,
                        "value": 1
                    },
                    {
                        "number": 64,
                        "time": 54.155965208333306,
                        "value": 0
                    },
                    {
                        "number": 64,
                        "time": 60.059519458333256,
                        "value": 1
                    },
                    {
                        "number": 64,
                        "time": 60.563497687499925,
                        "value": 0
                    },
                    {
                        "number": 64,
                        "time": 61.99933499999993,
                        "value": 1
                    },
                    {
                        "number": 64,
                        "time": 62.4832876041666,
                        "value": 0
                    },
                    {
                        "number": 64,
                        "time": 63.52528762499993,
                        "value": 1
                    },
                    {
                        "number": 64,
                        "time": 64.09001024999993,
                        "value": 0
                    },
                    {
                        "number": 64,
                        "time": 65.4157066249999,
                        "value": 1
                    },
                    {
                        "number": 64,
                        "time": 66.01580785416657,
                        "value": 0
                    },
                    {
                        "number": 64,
                        "time": 69.27464456249982,
                        "value": 1
                    },
                    {
                        "number": 64,
                        "time": 69.86006033333315,
                        "value": 0
                    },
                    {
                        "number": 64,
                        "time": 70.20583612499982,
                        "value": 1
                    },
                    {
                        "number": 64,
                        "time": 70.71648956249982,
                        "value": 0
                    },
                    {
                        "number": 64,
                        "time": 71.00686112499982,
                        "value": 1
                    },
                    {
                        "number": 64,
                        "time": 71.32927368749982,
                        "value": 0
                    },
                    {
                        "number": 64,
                        "time": 71.66503666666648,
                        "value": 1
                    },
                    {
                        "number": 64,
                        "time": 71.98878427083315,
                        "value": 0
                    },
                    {
                        "number": 64,
                        "time": 72.22708920833315,
                        "value": 1
                    },
                    {
                        "number": 64,
                        "time": 72.61091368749982,
                        "value": 0
                    },
                    {
                        "number": 64,
                        "time": 72.88526474999982,
                        "value": 1
                    },
                    {
                        "number": 64,
                        "time": 73.2610789791665,
                        "value": 0
                    },
                    {
                        "number": 64,
                        "time": 73.52875483333317,
                        "value": 1
                    },
                    {
                        "number": 64,
                        "time": 73.7276760416665,
                        "value": 0
                    },
                    {
                        "number": 64,
                        "time": 73.82713664583316,
                        "value": 1
                    },
                    {
                        "number": 64,
                        "time": 74.97593999999984,
                        "value": 0
                    },
                    {
                        "number": 64,
                        "time": 75.07006043749983,
                        "value": 1
                    },
                    {
                        "number": 64,
                        "time": 75.3056952916665,
                        "value": 0
                    },
                    {
                        "number": 64,
                        "time": 75.38112514583317,
                        "value": 1
                    },
                    {
                        "number": 64,
                        "time": 75.6261052916665,
                        "value": 0
                    },
                    {
                        "number": 64,
                        "time": 75.75827441666651,
                        "value": 1
                    },
                    {
                        "number": 64,
                        "time": 75.95385802083318,
                        "value": 0
                    },
                    {
                        "number": 64,
                        "time": 76.22220139583318,
                        "value": 1
                    },
                    {
                        "number": 64,
                        "time": 77.16540833333318,
                        "value": 0
                    },
                    {
                        "number": 64,
                        "time": 77.91303166666653,
                        "value": 1
                    },
                    {
                        "number": 64,
                        "time": 78.82887024999985,
                        "value": 0
                    },
                    {
                        "number": 64,
                        "time": 79.01711112499986,
                        "value": 1
                    },
                    {
                        "number": 64,
                        "time": 79.78943272916652,
                        "value": 0
                    },
                    {
                        "number": 64,
                        "time": 79.94229499999986,
                        "value": 1
                    },
                    {
                        "number": 64,
                        "time": 80.75066272916652,
                        "value": 0
                    },
                    {
                        "number": 64,
                        "time": 80.92154806249985,
                        "value": 1
                    },
                    {
                        "number": 64,
                        "time": 81.71055768749984,
                        "value": 0
                    },
                    {
                        "number": 64,
                        "time": 81.84739945833317,
                        "value": 1
                    },
                    {
                        "number": 64,
                        "time": 82.67445777083316,
                        "value": 0
                    },
                    {
                        "number": 64,
                        "time": 82.84400806249982,
                        "value": 1
                    },
                    {
                        "number": 64,
                        "time": 83.63568777083314,
                        "value": 0
                    },
                    {
                        "number": 64,
                        "time": 83.84061666666648,
                        "value": 1
                    },
                    {
                        "number": 64,
                        "time": 84.59758529166646,
                        "value": 0
                    },
                    {
                        "number": 64,
                        "time": 84.78449112499979,
                        "value": 1
                    },
                    {
                        "number": 64,
                        "time": 85.55748024999978,
                        "value": 0
                    },
                    {
                        "number": 64,
                        "time": 85.72769806249978,
                        "value": 1
                    },
                    {
                        "number": 64,
                        "time": 86.52138033333311,
                        "value": 0
                    },
                    {
                        "number": 64,
                        "time": 86.71295881249978,
                        "value": 1
                    },
                    {
                        "number": 64,
                        "time": 89.40173272916641,
                        "value": 0
                    },
                    {
                        "number": 64,
                        "time": 89.57795822916641,
                        "value": 1
                    },
                    {
                        "number": 64,
                        "time": 90.36630033333307,
                        "value": 0
                    },
                    {
                        "number": 64,
                        "time": 90.60527279166641,
                        "value": 1
                    },
                    {
                        "number": 64,
                        "time": 91.32886537499974,
                        "value": 0
                    },
                    {
                        "number": 64,
                        "time": 91.51510368749973,
                        "value": 1
                    },
                    {
                        "number": 64,
                        "time": 92.28609024999972,
                        "value": 0
                    },
                    {
                        "number": 64,
                        "time": 92.45630806249972,
                        "value": 1
                    },
                    {
                        "number": 64,
                        "time": 93.24999033333305,
                        "value": 0
                    },
                    {
                        "number": 64,
                        "time": 93.39951499999971,
                        "value": 1
                    },
                    {
                        "number": 64,
                        "time": 94.2085502499997,
                        "value": 0
                    },
                    {
                        "number": 64,
                        "time": 94.36875524999971,
                        "value": 1
                    },
                    {
                        "number": 64,
                        "time": 97.09224024999968,
                        "value": 0
                    },
                    {
                        "number": 64,
                        "time": 97.22641193749968,
                        "value": 1
                    },
                    {
                        "number": 64,
                        "time": 98.054137770833,
                        "value": 0
                    },
                    {
                        "number": 64,
                        "time": 98.22368806249966,
                        "value": 1
                    },
                    {
                        "number": 64,
                        "time": 99.01536777083298,
                        "value": 0
                    },
                    {
                        "number": 64,
                        "time": 99.22029666666631,
                        "value": 1
                    },
                    {
                        "number": 64,
                        "time": 99.97860033333298,
                        "value": 0
                    },
                    {
                        "number": 64,
                        "time": 100.12812499999964,
                        "value": 1
                    },
                    {
                        "number": 64,
                        "time": 104.78208024999958,
                        "value": 0
                    },
                    {
                        "number": 64,
                        "time": 104.97232368749958,
                        "value": 1
                    },
                    {
                        "number": 64,
                        "time": 105.74664785416624,
                        "value": 0
                    },
                    {
                        "number": 64,
                        "time": 105.96425964583291,
                        "value": 1
                    },
                    {
                        "number": 64,
                        "time": 106.7092128958329,
                        "value": 0
                    },
                    {
                        "number": 64,
                        "time": 106.88477087499957,
                        "value": 1
                    },
                    {
                        "number": 64,
                        "time": 107.66510272916624,
                        "value": 0
                    },
                    {
                        "number": 64,
                        "time": 107.83598806249957,
                        "value": 1
                    },
                    {
                        "number": 64,
                        "time": 108.62766777083289,
                        "value": 0
                    },
                    {
                        "number": 64,
                        "time": 108.80255822916622,
                        "value": 1
                    },
                    {
                        "number": 64,
                        "time": 109.59156785416621,
                        "value": 0
                    },
                    {
                        "number": 64,
                        "time": 109.75844806249955,
                        "value": 1
                    },
                    {
                        "number": 64,
                        "time": 110.55413289583288,
                        "value": 0
                    },
                    {
                        "number": 64,
                        "time": 110.70165499999955,
                        "value": 1
                    },
                    {
                        "number": 64,
                        "time": 111.51002272916621,
                        "value": 0
                    },
                    {
                        "number": 64,
                        "time": 111.68090806249954,
                        "value": 1
                    },
                    {
                        "number": 64,
                        "time": 116.30882999999947,
                        "value": 0
                    },
                    {
                        "number": 64,
                        "time": 116.48705806249947,
                        "value": 1
                    },
                    {
                        "number": 64,
                        "time": 117.27873777083279,
                        "value": 0
                    },
                    {
                        "number": 64,
                        "time": 117.48366666666612,
                        "value": 1
                    },
                    {
                        "number": 64,
                        "time": 118.23996777083278,
                        "value": 0
                    },
                    {
                        "number": 64,
                        "time": 118.40951806249944,
                        "value": 1
                    },
                    {
                        "number": 64,
                        "time": 119.2018652916661,
                        "value": 0
                    },
                    {
                        "number": 64,
                        "time": 119.35272499999942,
                        "value": 1
                    },
                    {
                        "number": 64,
                        "time": 124.00601272916603,
                        "value": 0
                    },
                    {
                        "number": 64,
                        "time": 124.18223822916603,
                        "value": 1
                    },
                    {
                        "number": 64,
                        "time": 124.97124785416602,
                        "value": 0
                    },
                    {
                        "number": 64,
                        "time": 125.13812806249936,
                        "value": 1
                    },
                    {
                        "number": 64,
                        "time": 125.93381289583269,
                        "value": 0
                    },
                    {
                        "number": 64,
                        "time": 126.10469822916602,
                        "value": 1
                    },
                    {
                        "number": 64,
                        "time": 126.889702729166,
                        "value": 0
                    },
                    {
                        "number": 64,
                        "time": 127.06058806249933,
                        "value": 1
                    },
                    {
                        "number": 64,
                        "time": 130.7352902499994,
                        "value": 0
                    },
                    {
                        "number": 64,
                        "time": 131.69652024999942,
                        "value": 0
                    },
                    {
                        "number": 64,
                        "time": 131.71521083333275,
                        "value": 1
                    },
                    {
                        "number": 64,
                        "time": 132.3446829791661,
                        "value": 0
                    },
                    {
                        "number": 64,
                        "time": 132.6831160416661,
                        "value": 1
                    },
                    {
                        "number": 64,
                        "time": 133.61096999999953,
                        "value": 0
                    },
                    {
                        "number": 64,
                        "time": 133.61096999999953,
                        "value": 0
                    },
                    {
                        "number": 64,
                        "time": 133.65836397916618,
                        "value": 1
                    },
                    {
                        "number": 64,
                        "time": 134.2457823124995,
                        "value": 0
                    },
                    {
                        "number": 64,
                        "time": 134.5962307499995,
                        "value": 1
                    },
                    {
                        "number": 64,
                        "time": 135.54010520833293,
                        "value": 0
                    },
                    {
                        "number": 64,
                        "time": 135.80310841666628,
                        "value": 1
                    },
                    {
                        "number": 64,
                        "time": 136.50200272916632,
                        "value": 0
                    },
                    {
                        "number": 64,
                        "time": 136.59011547916631,
                        "value": 1
                    },
                    {
                        "number": 64,
                        "time": 137.46390024999968,
                        "value": 0
                    },
                    {
                        "number": 64,
                        "time": 137.55535060416634,
                        "value": 1
                    },
                    {
                        "number": 64,
                        "time": 137.78764785416635,
                        "value": 0
                    },
                    {
                        "number": 64,
                        "time": 137.89778879166636,
                        "value": 1
                    },
                    {
                        "number": 64,
                        "time": 138.103385208333,
                        "value": 0
                    },
                    {
                        "number": 64,
                        "time": 138.19617060416635,
                        "value": 1
                    },
                    {
                        "number": 64,
                        "time": 138.42179264583302,
                        "value": 0
                    },
                    {
                        "number": 64,
                        "time": 138.5593019374997,
                        "value": 1
                    },
                    {
                        "number": 64,
                        "time": 138.7655658749997,
                        "value": 0
                    },
                    {
                        "number": 64,
                        "time": 146.45540587499931,
                        "value": 0
                    },
                    {
                        "number": 64,
                        "time": 150.06669358333244,
                        "value": 1
                    },
                    {
                        "number": 64,
                        "time": 150.60004272916575,
                        "value": 0
                    },
                    {
                        "number": 64,
                        "time": 151.0072304374991,
                        "value": 1
                    },
                    {
                        "number": 64,
                        "time": 151.55993768749906,
                        "value": 0
                    },
                    {
                        "number": 64,
                        "time": 152.21344058333239,
                        "value": 1
                    },
                    {
                        "number": 64,
                        "time": 152.85426058333235,
                        "value": 0
                    },
                    {
                        "number": 64,
                        "time": 153.222064562499,
                        "value": 1
                    },
                    {
                        "number": 64,
                        "time": 153.80948289583233,
                        "value": 0
                    },
                    {
                        "number": 64,
                        "time": 154.76604024999895,
                        "value": 0
                    },
                    {
                        "number": 64,
                        "time": 154.93625806249895,
                        "value": 1
                    },
                    {
                        "number": 64,
                        "time": 155.75463860416565,
                        "value": 0
                    },
                    {
                        "number": 64,
                        "time": 155.89748806249898,
                        "value": 1
                    },
                    {
                        "number": 64,
                        "time": 156.68916777083234,
                        "value": 0
                    },
                    {
                        "number": 64,
                        "time": 156.858718062499,
                        "value": 1
                    },
                    {
                        "number": 64,
                        "time": 157.64839520833235,
                        "value": 0
                    },
                    {
                        "number": 64,
                        "time": 157.819948062499,
                        "value": 1
                    },
                    {
                        "number": 64,
                        "time": 159.57018768749904,
                        "value": 0
                    },
                    {
                        "number": 64,
                        "time": 159.7330627708324,
                        "value": 1
                    },
                    {
                        "number": 64,
                        "time": 162.45387768749913,
                        "value": 0
                    },
                    {
                        "number": 64,
                        "time": 162.60073227083245,
                        "value": 1
                    },
                    {
                        "number": 64,
                        "time": 163.42044785416581,
                        "value": 0
                    },
                    {
                        "number": 64,
                        "time": 163.6227066666658,
                        "value": 1
                    },
                    {
                        "number": 64,
                        "time": 164.38234537499918,
                        "value": 0
                    },
                    {
                        "number": 64,
                        "time": 164.56858368749917,
                        "value": 1
                    },
                    {
                        "number": 64,
                        "time": 165.33623264583252,
                        "value": 0
                    },
                    {
                        "number": 64,
                        "time": 165.50978806249918,
                        "value": 1
                    },
                    {
                        "number": 64,
                        "time": 167.58511033333258,
                        "value": 0
                    },
                    {
                        "number": 64,
                        "time": 170.14305016666597,
                        "value": 0
                    },
                    {
                        "number": 64,
                        "time": 170.20846720833265,
                        "value": 1
                    },
                    {
                        "number": 64,
                        "time": 170.797888104166,
                        "value": 0
                    },
                    {
                        "number": 64,
                        "time": 171.132316041666,
                        "value": 1
                    },
                    {
                        "number": 64,
                        "time": 172.06016999999943,
                        "value": 0
                    },
                    {
                        "number": 64,
                        "time": 172.06617768749942,
                        "value": 0
                    },
                    {
                        "number": 64,
                        "time": 172.16697333333275,
                        "value": 1
                    },
                    {
                        "number": 64,
                        "time": 172.7123378541661,
                        "value": 0
                    },
                    {
                        "number": 64,
                        "time": 173.04543074999944,
                        "value": 1
                    },
                    {
                        "number": 64,
                        "time": 173.98863768749953,
                        "value": 0
                    },
                    {
                        "number": 64,
                        "time": 174.2022443541662,
                        "value": 1
                    },
                    {
                        "number": 64,
                        "time": 174.95187024999956,
                        "value": 0
                    },
                    {
                        "number": 64,
                        "time": 175.09672227083288,
                        "value": 1
                    },
                    {
                        "number": 64,
                        "time": 175.91109768749956,
                        "value": 0
                    },
                    {
                        "number": 64,
                        "time": 176.00455060416624,
                        "value": 1
                    },
                    {
                        "number": 64,
                        "time": 176.23684785416626,
                        "value": 0
                    },
                    {
                        "number": 64,
                        "time": 176.35833664583294,
                        "value": 1
                    },
                    {
                        "number": 64,
                        "time": 176.53456214583292,
                        "value": 0
                    },
                    {
                        "number": 64,
                        "time": 176.64537060416626,
                        "value": 1
                    },
                    {
                        "number": 64,
                        "time": 176.8663199999996,
                        "value": 0
                    },
                    {
                        "number": 64,
                        "time": 188.52323631249902,
                        "value": 1
                    },
                    {
                        "number": 64,
                        "time": 189.04924272916568,
                        "value": 0
                    },
                    {
                        "number": 64,
                        "time": 189.45643043749902,
                        "value": 1
                    },
                    {
                        "number": 64,
                        "time": 190.00980520833232,
                        "value": 0
                    },
                    {
                        "number": 64,
                        "time": 190.69134397916565,
                        "value": 1
                    },
                    {
                        "number": 64,
                        "time": 191.29678537499896,
                        "value": 0
                    },
                    {
                        "number": 64,
                        "time": 191.71865854166563,
                        "value": 1
                    },
                    {
                        "number": 64,
                        "time": 192.25868289583227,
                        "value": 0
                    },
                    {
                        "number": 64,
                        "time": 193.2139052083322,
                        "value": 0
                    },
                    {
                        "number": 64,
                        "time": 193.38545806249886,
                        "value": 1
                    },
                    {
                        "number": 64,
                        "time": 194.17713777083222,
                        "value": 0
                    },
                    {
                        "number": 64,
                        "time": 194.34668806249888,
                        "value": 1
                    },
                    {
                        "number": 64,
                        "time": 195.13836777083225,
                        "value": 0
                    },
                    {
                        "number": 64,
                        "time": 195.3259411249989,
                        "value": 1
                    },
                    {
                        "number": 64,
                        "time": 196.0982627291656,
                        "value": 0
                    },
                    {
                        "number": 64,
                        "time": 196.25112499999895,
                        "value": 1
                    },
                    {
                        "number": 64,
                        "time": 198.021390249999,
                        "value": 0
                    },
                    {
                        "number": 64,
                        "time": 200.9050802499991,
                        "value": 0
                    },
                    {
                        "number": 64,
                        "time": 201.04993227083241,
                        "value": 1
                    },
                    {
                        "number": 64,
                        "time": 201.86964785416578,
                        "value": 0
                    },
                    {
                        "number": 64,
                        "time": 202.1026126249991,
                        "value": 1
                    },
                    {
                        "number": 64,
                        "time": 202.83221289583244,
                        "value": 0
                    },
                    {
                        "number": 64,
                        "time": 202.9877452499991,
                        "value": 1
                    },
                    {
                        "number": 64,
                        "time": 203.78810272916581,
                        "value": 0
                    },
                    {
                        "number": 64,
                        "time": 203.95898806249915,
                        "value": 1
                    },
                    {
                        "number": 64,
                        "time": 206.0296376874992,
                        "value": 0
                    },
                    {
                        "number": 64,
                        "time": 208.59358520833257,
                        "value": 0
                    },
                    {
                        "number": 64,
                        "time": 208.65566464583256,
                        "value": 1
                    },
                    {
                        "number": 64,
                        "time": 209.23574024999925,
                        "value": 0
                    },
                    {
                        "number": 64,
                        "time": 209.57217074999926,
                        "value": 1
                    },
                    {
                        "number": 64,
                        "time": 210.50936999999936,
                        "value": 0
                    },
                    {
                        "number": 64,
                        "time": 210.51537768749935,
                        "value": 0
                    },
                    {
                        "number": 64,
                        "time": 210.6261861458327,
                        "value": 1
                    },
                    {
                        "number": 64,
                        "time": 211.15018999999936,
                        "value": 0
                    },
                    {
                        "number": 64,
                        "time": 211.5013059583327,
                        "value": 1
                    },
                    {
                        "number": 64,
                        "time": 212.4385052083328,
                        "value": 0
                    },
                    {
                        "number": 64,
                        "time": 212.70150841666614,
                        "value": 1
                    },
                    {
                        "number": 64,
                        "time": 213.40173777083285,
                        "value": 0
                    },
                    {
                        "number": 64,
                        "time": 213.53056929166618,
                        "value": 1
                    },
                    {
                        "number": 64,
                        "time": 214.35896264583286,
                        "value": 0
                    },
                    {
                        "number": 64,
                        "time": 214.4537506041662,
                        "value": 1
                    },
                    {
                        "number": 64,
                        "time": 214.68404529166622,
                        "value": 0
                    },
                    {
                        "number": 64,
                        "time": 214.8255597083329,
                        "value": 1
                    },
                    {
                        "number": 64,
                        "time": 215.3221952083329,
                        "value": 0
                    },
                    {
                        "number": 64,
                        "time": 215.42432589583288,
                        "value": 1
                    },
                    {
                        "number": 64,
                        "time": 215.6466103333329,
                        "value": 0
                    },
                    {
                        "number": 64,
                        "time": 215.71603249999956,
                        "value": 1
                    },
                    {
                        "number": 64,
                        "time": 216.27674999999954,
                        "value": 0
                    },
                    {
                        "number": 64,
                        "time": 216.28409272916622,
                        "value": 0
                    },
                    {
                        "number": 64,
                        "time": 216.36085762499954,
                        "value": 1
                    },
                    {
                        "number": 64,
                        "time": 216.6078403333329,
                        "value": 0
                    },
                    {
                        "number": 64,
                        "time": 216.73466929166622,
                        "value": 1
                    },
                    {
                        "number": 64,
                        "time": 217.23797999999954,
                        "value": 0
                    },
                    {
                        "number": 64,
                        "time": 217.24532272916622,
                        "value": 0
                    },
                    {
                        "number": 64,
                        "time": 217.35145854166623,
                        "value": 1
                    },
                    {
                        "number": 64,
                        "time": 217.56907033333292,
                        "value": 0
                    },
                    {
                        "number": 64,
                        "time": 217.75664368749958,
                        "value": 1
                    },
                    {
                        "number": 64,
                        "time": 218.19920999999957,
                        "value": 0
                    },
                    {
                        "number": 64,
                        "time": 218.20655272916625,
                        "value": 0
                    },
                    {
                        "number": 64,
                        "time": 218.29867060416626,
                        "value": 1
                    },
                    {
                        "number": 64,
                        "time": 218.5316353749996,
                        "value": 0
                    },
                    {
                        "number": 64,
                        "time": 218.63443358333294,
                        "value": 1
                    },
                    {
                        "number": 64,
                        "time": 219.1604399999996,
                        "value": 0
                    },
                    {
                        "number": 64,
                        "time": 219.1604399999996,
                        "value": 0
                    },
                    {
                        "number": 64,
                        "time": 219.3386680624996,
                        "value": 1
                    },
                    {
                        "number": 64,
                        "time": 219.49153033333295,
                        "value": 0
                    },
                    {
                        "number": 64,
                        "time": 219.6771011249996,
                        "value": 1
                    },
                    {
                        "number": 64,
                        "time": 219.8126078541663,
                        "value": 0
                    },
                    {
                        "number": 64,
                        "time": 221.16700762499963,
                        "value": 1
                    },
                    {
                        "number": 64,
                        "time": 221.38061429166626,
                        "value": 0
                    },
                    {
                        "number": 64,
                        "time": 221.4413586874996,
                        "value": 1
                    },
                    {
                        "number": 64,
                        "time": 221.69301404166626,
                        "value": 0
                    },
                    {
                        "number": 64,
                        "time": 223.0574266249996,
                        "value": 1
                    },
                    {
                        "number": 64,
                        "time": 223.29706660416628,
                        "value": 0
                    },
                    {
                        "number": 64,
                        "time": 223.3518033124996,
                        "value": 1
                    },
                    {
                        "number": 64,
                        "time": 223.61280395833293,
                        "value": 0
                    },
                    {
                        "number": 64,
                        "time": 226.9163645624996,
                        "value": 1
                    },
                    {
                        "number": 64,
                        "time": 227.50311537499962,
                        "value": 0
                    },
                    {
                        "number": 64,
                        "time": 227.94367912499962,
                        "value": 1
                    },
                    {
                        "number": 64,
                        "time": 230.06773041666634,
                        "value": 0
                    },
                    {
                        "number": 64,
                        "time": 230.48159333333302,
                        "value": 1
                    },
                    {
                        "number": 64,
                        "time": 231.0276253749997,
                        "value": 0
                    },
                    {
                        "number": 64,
                        "time": 231.51424806249972,
                        "value": 1
                    },
                    {
                        "number": 64,
                        "time": 231.9901904166664,
                        "value": 0
                    },
                    {
                        "number": 64,
                        "time": 232.40405333333308,
                        "value": 1
                    },
                    {
                        "number": 64,
                        "time": 232.95008537499976,
                        "value": 0
                    },
                    {
                        "number": 64,
                        "time": 240.3916076249999,
                        "value": 1
                    },
                    {
                        "number": 64,
                        "time": 240.96167041666658,
                        "value": 0
                    },
                    {
                        "number": 64,
                        "time": 242.28202662499993,
                        "value": 1
                    },
                    {
                        "number": 64,
                        "time": 242.8761201666666,
                        "value": 0
                    },
                    {
                        "number": 64,
                        "time": 246.14096456249993,
                        "value": 1
                    },
                    {
                        "number": 64,
                        "time": 246.40530281249994,
                        "value": 0
                    },
                    {
                        "number": 64,
                        "time": 246.4907454791666,
                        "value": 1
                    },
                    {
                        "number": 64,
                        "time": 246.72437777083329,
                        "value": 0
                    },
                    {
                        "number": 64,
                        "time": 247.16827912499994,
                        "value": 1
                    },
                    {
                        "number": 64,
                        "time": 249.29166289583333,
                        "value": 0
                    },
                    {
                        "number": 64,
                        "time": 249.66013439583332,
                        "value": 1
                    },
                    {
                        "number": 64,
                        "time": 250.25155785416666,
                        "value": 0
                    },
                    {
                        "number": 64,
                        "time": 250.66742333333335,
                        "value": 1
                    },
                    {
                        "number": 64,
                        "time": 251.21212033333336,
                        "value": 0
                    },
                    {
                        "number": 64,
                        "time": 251.61330035416668,
                        "value": 1
                    },
                    {
                        "number": 64,
                        "time": 252.17535289583336,
                        "value": 0
                    },
                    {
                        "number": 64,
                        "time": 252.72739262500002,
                        "value": 1
                    },
                    {
                        "number": 64,
                        "time": 253.12924016666668,
                        "value": 0
                    },
                    {
                        "number": 64,
                        "time": 253.20800762500002,
                        "value": 1
                    },
                    {
                        "number": 64,
                        "time": 253.4503176875,
                        "value": 0
                    },
                    {
                        "number": 64,
                        "time": 253.56646631249998,
                        "value": 1
                    },
                    {
                        "number": 64,
                        "time": 253.7713952083333,
                        "value": 0
                    },
                    {
                        "number": 64,
                        "time": 253.90690193749998,
                        "value": 1
                    },
                    {
                        "number": 64,
                        "time": 254.73195768749997,
                        "value": 0
                    },
                    {
                        "number": 64,
                        "time": 254.81740035416664,
                        "value": 1
                    },
                    {
                        "number": 64,
                        "time": 255.01565404166664,
                        "value": 0
                    },
                    {
                        "number": 64,
                        "time": 258.3192146458334,
                        "value": 1
                    },
                    {
                        "number": 64,
                        "time": 258.8979552083334,
                        "value": 0
                    },
                    {
                        "number": 64,
                        "time": 262.148781666667,
                        "value": 1
                    },
                    {
                        "number": 64,
                        "time": 262.7408726458337,
                        "value": 0
                    },
                    {
                        "number": 64,
                        "time": 267.26466133333423,
                        "value": 1
                    },
                    {
                        "number": 64,
                        "time": 268.18317000000087,
                        "value": 0
                    },
                    {
                        "number": 64,
                        "time": 268.3433750000009,
                        "value": 1
                    },
                    {
                        "number": 64,
                        "time": 269.1544128125009,
                        "value": 0
                    },
                    {
                        "number": 64,
                        "time": 269.29993235416754,
                        "value": 1
                    },
                    {
                        "number": 64,
                        "time": 270.1136402500008,
                        "value": 0
                    },
                    {
                        "number": 64,
                        "time": 270.2658350000008,
                        "value": 1
                    },
                    {
                        "number": 64,
                        "time": 271.0735352083341,
                        "value": 0
                    },
                    {
                        "number": 64,
                        "time": 271.2197222708341,
                        "value": 1
                    },
                    {
                        "number": 64,
                        "time": 272.0280900000007,
                        "value": 0
                    },
                    {
                        "number": 64,
                        "time": 272.1882950000007,
                        "value": 1
                    },
                    {
                        "number": 64,
                        "time": 273.31774025000067,
                        "value": 0
                    },
                    {
                        "number": 64,
                        "time": 279.1839133333344,
                        "value": 1
                    },
                    {
                        "number": 64,
                        "time": 279.7232701666677,
                        "value": 0
                    },
                    {
                        "number": 64,
                        "time": 281.1424194583343,
                        "value": 1
                    },
                    {
                        "number": 64,
                        "time": 281.6450626458343,
                        "value": 0
                    },
                    {
                        "number": 64,
                        "time": 282.723776312501,
                        "value": 1
                    },
                    {
                        "number": 64,
                        "time": 283.250450250001,
                        "value": 0
                    },
                    {
                        "number": 64,
                        "time": 284.576146625001,
                        "value": 1
                    },
                    {
                        "number": 64,
                        "time": 285.1715752083343,
                        "value": 0
                    },
                    {
                        "number": 64,
                        "time": 288.44910250000095,
                        "value": 1
                    },
                    {
                        "number": 64,
                        "time": 288.8996790625009,
                        "value": 0
                    },
                    {
                        "number": 64,
                        "time": 289.1426566458342,
                        "value": 1
                    },
                    {
                        "number": 64,
                        "time": 289.3302300000009,
                        "value": 0
                    },
                    {
                        "number": 64,
                        "time": 289.4370333333342,
                        "value": 1
                    },
                    {
                        "number": 64,
                        "time": 289.72740489583424,
                        "value": 0
                    },
                    {
                        "number": 64,
                        "time": 290.07785333333425,
                        "value": 1
                    },
                    {
                        "number": 64,
                        "time": 290.42162656250093,
                        "value": 0
                    },
                    {
                        "number": 64,
                        "time": 290.65792893750097,
                        "value": 1
                    },
                    {
                        "number": 64,
                        "time": 291.10783797916764,
                        "value": 0
                    },
                    {
                        "number": 64,
                        "time": 291.2833959583343,
                        "value": 1
                    },
                    {
                        "number": 64,
                        "time": 291.7259622708343,
                        "value": 0
                    },
                    {
                        "number": 64,
                        "time": 291.9549219166677,
                        "value": 1
                    },
                    {
                        "number": 64,
                        "time": 292.36678227083434,
                        "value": 0
                    },
                    {
                        "number": 64,
                        "time": 292.57237868750104,
                        "value": 1
                    },
                    {
                        "number": 64,
                        "time": 293.0383082291677,
                        "value": 0
                    },
                    {
                        "number": 64,
                        "time": 293.23255679166766,
                        "value": 1
                    },
                    {
                        "number": 64,
                        "time": 293.5029027291677,
                        "value": 0
                    },
                    {
                        "number": 64,
                        "time": 294.2031320833344,
                        "value": 1
                    },
                    {
                        "number": 64,
                        "time": 294.46747033333446,
                        "value": 0
                    },
                    {
                        "number": 64,
                        "time": 295.1643620833344,
                        "value": 1
                    },
                    {
                        "number": 64,
                        "time": 295.7451052083344,
                        "value": 0
                    },
                    {
                        "number": 64,
                        "time": 296.1616382083344,
                        "value": 1
                    },
                    {
                        "number": 64,
                        "time": 296.7083377708344,
                        "value": 0
                    },
                    {
                        "number": 64,
                        "time": 297.14489639583445,
                        "value": 1
                    },
                    {
                        "number": 64,
                        "time": 297.6675652083344,
                        "value": 0
                    },
                    {
                        "number": 64,
                        "time": 298.0881033333344,
                        "value": 1
                    },
                    {
                        "number": 64,
                        "time": 298.6247900833344,
                        "value": 0
                    },
                    {
                        "number": 64,
                        "time": 299.0319777916677,
                        "value": 1
                    },
                    {
                        "number": 64,
                        "time": 299.59002520833434,
                        "value": 0
                    },
                    {
                        "number": 64,
                        "time": 299.97518472916767,
                        "value": 1
                    },
                    {
                        "number": 64,
                        "time": 300.5499201666676,
                        "value": 0
                    },
                    {
                        "number": 64,
                        "time": 300.8730002500009,
                        "value": 0
                    },
                    {
                        "number": 64,
                        "time": 301.06124112500095,
                        "value": 1
                    },
                    {
                        "number": 64,
                        "time": 301.83489777083423,
                        "value": 0
                    },
                    {
                        "number": 64,
                        "time": 302.0044480625009,
                        "value": 1
                    },
                    {
                        "number": 64,
                        "time": 302.79612777083423,
                        "value": 0
                    },
                    {
                        "number": 64,
                        "time": 303.0010566666676,
                        "value": 1
                    },
                    {
                        "number": 64,
                        "time": 303.7553552083342,
                        "value": 0
                    },
                    {
                        "number": 64,
                        "time": 303.9269080625009,
                        "value": 1
                    },
                    {
                        "number": 64,
                        "time": 304.7205903333342,
                        "value": 0
                    },
                    {
                        "number": 64,
                        "time": 310.7269427916673,
                        "value": 1
                    },
                    {
                        "number": 64,
                        "time": 311.4385200000006,
                        "value": 0
                    }
                ]
            },
            "id": 3,
            "name": "Piano left",
            "instrumentNumber": 0,
            "instrument": "acoustic grand piano",
            "instrumentFamily": "piano",
            "channelNumber": 0,
            "isPercussion": false
        },
        {
            "startTime": 0,
            "duration": 0,
            "length": 0,
            "notes": [],
            "controlChanges": {},
            "id": 4,
            "name": "Chopin Sonate Op. 35  2. Satz"
        },
        {
            "startTime": 0,
            "duration": 0,
            "length": 0,
            "notes": [],
            "controlChanges": {},
            "id": 5,
            "name": "Copyright  2002 by Bernd Krger"
        },
        {
            "startTime": 0,
            "duration": 0,
            "length": 0,
            "notes": [],
            "controlChanges": {},
            "id": 6,
            "name": "http://www.piano-midi.de"
        },
        {
            "startTime": 0,
            "duration": 0,
            "length": 0,
            "notes": [],
            "controlChanges": {},
            "id": 7,
            "name": "Edition: 2014-02-26"
        },
        {
            "startTime": 0,
            "duration": 0,
            "length": 0,
            "notes": [],
            "controlChanges": {},
            "id": 8,
            "name": "Spur 8"
        },
        {
            "startTime": 0,
            "duration": 0,
            "length": 0,
            "notes": [],
            "controlChanges": {},
            "id": 9,
            "name": "Spur 9"
        }
    ]
}