{
    "header": {
        "PPQ": 480,
        "timeSignature": [
            4,
            4
        ],
        "bpm": 156.49982915435316,
        "name": "Chopin Prelude  No. 14, Opus 28"
    },
    "startTime": 0,
    "duration": 27.98725100000013,
    "tracks": [
        {
            "startTime": 0,
            "duration": 0,
            "length": 0,
            "notes": [],
            "controlChanges": {},
            "id": 0,
            "name": "Chopin Prelude  No. 14, Opus 28"
        },
        {
            "startTime": 0,
            "duration": 27.98725100000013,
            "length": 217,
            "notes": [
                {
                    "name": "D#3",
                    "midi": 51,
                    "time": 0,
                    "velocity": 0.2283464566929134,
                    "duration": 0.12779566666666667
                },
                {
                    "name": "A#3",
                    "midi": 58,
                    "time": 0.12779566666666667,
                    "velocity": 0.2047244094488189,
                    "duration": 0.12779566666666667
                },
                {
                    "name": "F#3",
                    "midi": 54,
                    "time": 0.25559133333333334,
                    "velocity": 0.2125984251968504,
                    "duration": 0.1277956666666667
                },
                {
                    "name": "B3",
                    "midi": 59,
                    "time": 0.38338700000000003,
                    "velocity": 0.25984251968503935,
                    "duration": 0.12779566666666664
                },
                {
                    "name": "D#3",
                    "midi": 51,
                    "time": 0.5111826666666667,
                    "velocity": 0.23622047244094488,
                    "duration": 0.12779566666666664
                },
                {
                    "name": "B3",
                    "midi": 59,
                    "time": 0.6389783333333333,
                    "velocity": 0.25196850393700787,
                    "duration": 0.12779566666666664
                },
                {
                    "name": "D3",
                    "midi": 50,
                    "time": 0.766774,
                    "velocity": 0.28346456692913385,
                    "duration": 0.12779566666666664
                },
                {
                    "name": "B3",
                    "midi": 59,
                    "time": 0.8945696666666666,
                    "velocity": 0.2283464566929134,
                    "duration": 0.12779566666666675
                },
                {
                    "name": "F3",
                    "midi": 53,
                    "time": 1.0223653333333333,
                    "velocity": 0.2283464566929134,
                    "duration": 0.12779566666666664
                },
                {
                    "name": "A#3",
                    "midi": 58,
                    "time": 1.150161,
                    "velocity": 0.25196850393700787,
                    "duration": 0.12779566666666664
                },
                {
                    "name": "D3",
                    "midi": 50,
                    "time": 1.2779566666666666,
                    "velocity": 0.2204724409448819,
                    "duration": 0.12779566666666664
                },
                {
                    "name": "A#3",
                    "midi": 58,
                    "time": 1.4057523333333333,
                    "velocity": 0.2125984251968504,
                    "duration": 0.12779566666666664
                },
                {
                    "name": "D#3",
                    "midi": 51,
                    "time": 1.533548,
                    "velocity": 0.25984251968503935,
                    "duration": 0.12779566666666664
                },
                {
                    "name": "A#3",
                    "midi": 58,
                    "time": 1.6613436666666666,
                    "velocity": 0.23622047244094488,
                    "duration": 0.12779566666666664
                },
                {
                    "name": "F#3",
                    "midi": 54,
                    "time": 1.7891393333333332,
                    "velocity": 0.23622047244094488,
                    "duration": 0.12779566666666664
                },
                {
                    "name": "B3",
                    "midi": 59,
                    "time": 1.9169349999999998,
                    "velocity": 0.29133858267716534,
                    "duration": 0.12779566666666686
                },
                {
                    "name": "D#3",
                    "midi": 51,
                    "time": 2.0447306666666667,
                    "velocity": 0.2677165354330709,
                    "duration": 0.12779566666666664
                },
                {
                    "name": "B3",
                    "midi": 59,
                    "time": 2.1725263333333333,
                    "velocity": 0.28346456692913385,
                    "duration": 0.12779566666666664
                },
                {
                    "name": "D3",
                    "midi": 50,
                    "time": 2.300322,
                    "velocity": 0.3228346456692913,
                    "duration": 0.12779566666666664
                },
                {
                    "name": "B3",
                    "midi": 59,
                    "time": 2.4281176666666666,
                    "velocity": 0.28346456692913385,
                    "duration": 0.12779566666666664
                },
                {
                    "name": "F3",
                    "midi": 53,
                    "time": 2.5559133333333333,
                    "velocity": 0.25984251968503935,
                    "duration": 0.12779566666666664
                },
                {
                    "name": "A#3",
                    "midi": 58,
                    "time": 2.683709,
                    "velocity": 0.2992125984251969,
                    "duration": 0.12779566666666664
                },
                {
                    "name": "D3",
                    "midi": 50,
                    "time": 2.8115046666666665,
                    "velocity": 0.2677165354330709,
                    "duration": 0.12779566666666664
                },
                {
                    "name": "A#3",
                    "midi": 58,
                    "time": 2.939300333333333,
                    "velocity": 0.25196850393700787,
                    "duration": 0.12779566666666664
                },
                {
                    "name": "D#3",
                    "midi": 51,
                    "time": 3.067096,
                    "velocity": 0.29133858267716534,
                    "duration": 0.12779566666666664
                },
                {
                    "name": "A#3",
                    "midi": 58,
                    "time": 3.1948916666666665,
                    "velocity": 0.2677165354330709,
                    "duration": 0.12779566666666664
                },
                {
                    "name": "F#3",
                    "midi": 54,
                    "time": 3.322687333333333,
                    "velocity": 0.2755905511811024,
                    "duration": 0.12779566666666664
                },
                {
                    "name": "B3",
                    "midi": 59,
                    "time": 3.4504829999999997,
                    "velocity": 0.3464566929133858,
                    "duration": 0.12779566666666664
                },
                {
                    "name": "D#3",
                    "midi": 51,
                    "time": 3.5782786666666664,
                    "velocity": 0.3228346456692913,
                    "duration": 0.12779566666666664
                },
                {
                    "name": "C4",
                    "midi": 60,
                    "time": 3.706074333333333,
                    "velocity": 0.3464566929133858,
                    "duration": 0.12779566666666664
                },
                {
                    "name": "F3",
                    "midi": 53,
                    "time": 3.8338699999999997,
                    "velocity": 0.3779527559055118,
                    "duration": 0.12779566666666664
                },
                {
                    "name": "C4",
                    "midi": 60,
                    "time": 3.9616656666666663,
                    "velocity": 0.3543307086614173,
                    "duration": 0.12779566666666708
                },
                {
                    "name": "G#3",
                    "midi": 56,
                    "time": 4.089461333333333,
                    "velocity": 0.3543307086614173,
                    "duration": 0.12779566666666664
                },
                {
                    "name": "D#4",
                    "midi": 63,
                    "time": 4.2220493375,
                    "velocity": 0.3858267716535433,
                    "duration": 0.12779566666666664
                },
                {
                    "name": "A3",
                    "midi": 57,
                    "time": 4.353838618749999,
                    "velocity": 0.3464566929133858,
                    "duration": 0.12779566666666664
                },
                {
                    "name": "C#4",
                    "midi": 61,
                    "time": 4.472848333333332,
                    "velocity": 0.30708661417322836,
                    "duration": 0.12779566666666664
                },
                {
                    "name": "F#3",
                    "midi": 54,
                    "time": 4.600643999999999,
                    "velocity": 0.33070866141732286,
                    "duration": 0.12779566666666664
                },
                {
                    "name": "C#4",
                    "midi": 61,
                    "time": 4.728439666666666,
                    "velocity": 0.29133858267716534,
                    "duration": 0.12779566666666664
                },
                {
                    "name": "A#3",
                    "midi": 58,
                    "time": 4.856235333333332,
                    "velocity": 0.2992125984251969,
                    "duration": 0.12779566666666664
                },
                {
                    "name": "D#4",
                    "midi": 63,
                    "time": 4.984030999999999,
                    "velocity": 0.3858267716535433,
                    "duration": 0.12779566666666664
                },
                {
                    "name": "F#3",
                    "midi": 54,
                    "time": 5.111826666666666,
                    "velocity": 0.3543307086614173,
                    "duration": 0.12779566666666664
                },
                {
                    "name": "E4",
                    "midi": 64,
                    "time": 5.239622333333332,
                    "velocity": 0.3858267716535433,
                    "duration": 0.12779566666666664
                },
                {
                    "name": "A3",
                    "midi": 57,
                    "time": 5.367417999999999,
                    "velocity": 0.4251968503937008,
                    "duration": 0.12779566666666664
                },
                {
                    "name": "E4",
                    "midi": 64,
                    "time": 5.4952136666666656,
                    "velocity": 0.3937007874015748,
                    "duration": 0.12779566666666664
                },
                {
                    "name": "C4",
                    "midi": 60,
                    "time": 5.623009333333332,
                    "velocity": 0.4015748031496063,
                    "duration": 0.12779566666666664
                },
                {
                    "name": "F#4",
                    "midi": 66,
                    "time": 5.750804999999999,
                    "velocity": 0.4251968503937008,
                    "duration": 0.12779566666666664
                },
                {
                    "name": "C#4",
                    "midi": 61,
                    "time": 5.8786006666666655,
                    "velocity": 0.33858267716535434,
                    "duration": 0.12779566666666664
                },
                {
                    "name": "F4",
                    "midi": 65,
                    "time": 6.006396333333332,
                    "velocity": 0.31496062992125984,
                    "duration": 0.12779566666666664
                },
                {
                    "name": "A#3",
                    "midi": 58,
                    "time": 6.134191999999999,
                    "velocity": 0.3700787401574803,
                    "duration": 0.12779566666666664
                },
                {
                    "name": "F4",
                    "midi": 65,
                    "time": 6.261987666666665,
                    "velocity": 0.33070866141732286,
                    "duration": 0.12779566666666664
                },
                {
                    "name": "C#4",
                    "midi": 61,
                    "time": 6.389783333333332,
                    "velocity": 0.3464566929133858,
                    "duration": 0.12779566666666664
                },
                {
                    "name": "F#4",
                    "midi": 66,
                    "time": 6.517578999999999,
                    "velocity": 0.3543307086614173,
                    "duration": 0.12779566666666664
                },
                {
                    "name": "A#3",
                    "midi": 58,
                    "time": 6.645374666666665,
                    "velocity": 0.4094488188976378,
                    "duration": 0.12779566666666664
                },
                {
                    "name": "F#4",
                    "midi": 66,
                    "time": 6.773170333333332,
                    "velocity": 0.4251968503937008,
                    "duration": 0.12779566666666664
                },
                {
                    "name": "A3",
                    "midi": 57,
                    "time": 6.900965999999999,
                    "velocity": 0.4409448818897638,
                    "duration": 0.12779566666666664
                },
                {
                    "name": "F#4",
                    "midi": 66,
                    "time": 7.028761666666665,
                    "velocity": 0.3937007874015748,
                    "duration": 0.12779566666666664
                },
                {
                    "name": "C4",
                    "midi": 60,
                    "time": 7.156557333333332,
                    "velocity": 0.3700787401574803,
                    "duration": 0.12779566666666664
                },
                {
                    "name": "F4",
                    "midi": 65,
                    "time": 7.2843529999999985,
                    "velocity": 0.3779527559055118,
                    "duration": 0.12779566666666664
                },
                {
                    "name": "A3",
                    "midi": 57,
                    "time": 7.412148666666665,
                    "velocity": 0.3543307086614173,
                    "duration": 0.12779566666666664
                },
                {
                    "name": "F4",
                    "midi": 65,
                    "time": 7.539944333333332,
                    "velocity": 0.3543307086614173,
                    "duration": 0.12779566666666664
                },
                {
                    "name": "A#3",
                    "midi": 58,
                    "time": 7.6677399999999984,
                    "velocity": 0.3779527559055118,
                    "duration": 0.12779566666666664
                },
                {
                    "name": "F4",
                    "midi": 65,
                    "time": 7.795535666666665,
                    "velocity": 0.3543307086614173,
                    "duration": 0.12779566666666664
                },
                {
                    "name": "C#4",
                    "midi": 61,
                    "time": 7.923331333333332,
                    "velocity": 0.36220472440944884,
                    "duration": 0.12779566666666753
                },
                {
                    "name": "F#4",
                    "midi": 66,
                    "time": 8.051127,
                    "velocity": 0.44881889763779526,
                    "duration": 0.12779566666666753
                },
                {
                    "name": "A3",
                    "midi": 57,
                    "time": 8.178922666666667,
                    "velocity": 0.41732283464566927,
                    "duration": 0.12779566666666753
                },
                {
                    "name": "F#4",
                    "midi": 66,
                    "time": 8.306718333333334,
                    "velocity": 0.4330708661417323,
                    "duration": 0.12779566666666753
                },
                {
                    "name": "G#3",
                    "midi": 56,
                    "time": 8.434514000000002,
                    "velocity": 0.5118110236220472,
                    "duration": 0.12779566666666753
                },
                {
                    "name": "F#4",
                    "midi": 66,
                    "time": 8.56230966666667,
                    "velocity": 0.47244094488188976,
                    "duration": 0.12779566666666753
                },
                {
                    "name": "D4",
                    "midi": 62,
                    "time": 8.690105333333337,
                    "velocity": 0.4094488188976378,
                    "duration": 0.12779566666666753
                },
                {
                    "name": "F4",
                    "midi": 65,
                    "time": 8.817901000000004,
                    "velocity": 0.4251968503937008,
                    "duration": 0.12779566666666753
                },
                {
                    "name": "B3",
                    "midi": 59,
                    "time": 8.945696666666672,
                    "velocity": 0.3937007874015748,
                    "duration": 0.12779566666666753
                },
                {
                    "name": "F4",
                    "midi": 65,
                    "time": 9.07349233333334,
                    "velocity": 0.3700787401574803,
                    "duration": 0.12779566666666753
                },
                {
                    "name": "G#3",
                    "midi": 56,
                    "time": 9.201288000000007,
                    "velocity": 0.5433070866141733,
                    "duration": 0.12779566666666753
                },
                {
                    "name": "E4",
                    "midi": 64,
                    "time": 9.329083666666675,
                    "velocity": 0.4566929133858268,
                    "duration": 0.12779566666666753
                },
                {
                    "name": "B3",
                    "midi": 59,
                    "time": 9.456879333333342,
                    "velocity": 0.44881889763779526,
                    "duration": 0.12779566666666753
                },
                {
                    "name": "D4",
                    "midi": 62,
                    "time": 9.58467500000001,
                    "velocity": 0.4881889763779528,
                    "duration": 0.12779566666666753
                },
                {
                    "name": "G#3",
                    "midi": 56,
                    "time": 9.712470666666677,
                    "velocity": 0.4015748031496063,
                    "duration": 0.12779566666666753
                },
                {
                    "name": "D4",
                    "midi": 62,
                    "time": 9.840266333333345,
                    "velocity": 0.4094488188976378,
                    "duration": 0.12779566666666753
                },
                {
                    "name": "G3",
                    "midi": 55,
                    "time": 9.968062000000012,
                    "velocity": 0.4330708661417323,
                    "duration": 0.12779566666666753
                },
                {
                    "name": "D4",
                    "midi": 62,
                    "time": 10.09585766666668,
                    "velocity": 0.3858267716535433,
                    "duration": 0.12779566666666753
                },
                {
                    "name": "A#3",
                    "midi": 58,
                    "time": 10.223653333333347,
                    "velocity": 0.3858267716535433,
                    "duration": 0.12779566666666753
                },
                {
                    "name": "F4",
                    "midi": 65,
                    "time": 10.351449000000015,
                    "velocity": 0.3937007874015748,
                    "duration": 0.12779566666666753
                },
                {
                    "name": "G3",
                    "midi": 55,
                    "time": 10.479244666666682,
                    "velocity": 0.4409448818897638,
                    "duration": 0.12779566666666753
                },
                {
                    "name": "D#4",
                    "midi": 63,
                    "time": 10.60704033333335,
                    "velocity": 0.4330708661417323,
                    "duration": 0.12779566666666753
                },
                {
                    "name": "F3",
                    "midi": 53,
                    "time": 10.734836000000017,
                    "velocity": 0.5275590551181102,
                    "duration": 0.12779566666666753
                },
                {
                    "name": "C#4",
                    "midi": 61,
                    "time": 10.862631666666685,
                    "velocity": 0.4645669291338583,
                    "duration": 0.12779566666666753
                },
                {
                    "name": "G3",
                    "midi": 55,
                    "time": 10.990427333333352,
                    "velocity": 0.4566929133858268,
                    "duration": 0.12779566666666753
                },
                {
                    "name": "B3",
                    "midi": 59,
                    "time": 11.11822300000002,
                    "velocity": 0.49606299212598426,
                    "duration": 0.12779566666666753
                },
                {
                    "name": "F3",
                    "midi": 53,
                    "time": 11.246018666666687,
                    "velocity": 0.4094488188976378,
                    "duration": 0.12779566666666753
                },
                {
                    "name": "B3",
                    "midi": 59,
                    "time": 11.373814333333355,
                    "velocity": 0.41732283464566927,
                    "duration": 0.12779566666666753
                },
                {
                    "name": "E3",
                    "midi": 52,
                    "time": 11.501610000000023,
                    "velocity": 0.4409448818897638,
                    "duration": 0.12779566666666753
                },
                {
                    "name": "B3",
                    "midi": 59,
                    "time": 11.62940566666669,
                    "velocity": 0.3937007874015748,
                    "duration": 0.12779566666666753
                },
                {
                    "name": "G3",
                    "midi": 55,
                    "time": 11.757201333333358,
                    "velocity": 0.3858267716535433,
                    "duration": 0.12779566666666753
                },
                {
                    "name": "C#4",
                    "midi": 61,
                    "time": 11.884997000000025,
                    "velocity": 0.4015748031496063,
                    "duration": 0.12779566666666753
                },
                {
                    "name": "E3",
                    "midi": 52,
                    "time": 12.012792666666693,
                    "velocity": 0.4409448818897638,
                    "duration": 0.12779566666666753
                },
                {
                    "name": "C4",
                    "midi": 60,
                    "time": 12.14058833333336,
                    "velocity": 0.4566929133858268,
                    "duration": 0.12779566666666753
                },
                {
                    "name": "F#3",
                    "midi": 54,
                    "time": 12.268384000000028,
                    "velocity": 0.5511811023622047,
                    "duration": 0.12779566666666753
                },
                {
                    "name": "D4",
                    "midi": 62,
                    "time": 12.396179666666695,
                    "velocity": 0.4645669291338583,
                    "duration": 0.12779566666666753
                },
                {
                    "name": "A3",
                    "midi": 57,
                    "time": 12.523975333333363,
                    "velocity": 0.4645669291338583,
                    "duration": 0.12779566666666753
                },
                {
                    "name": "C4",
                    "midi": 60,
                    "time": 12.65177100000003,
                    "velocity": 0.49606299212598426,
                    "duration": 0.12779566666666753
                },
                {
                    "name": "F#3",
                    "midi": 54,
                    "time": 12.779566666666698,
                    "velocity": 0.41732283464566927,
                    "duration": 0.12779566666666753
                },
                {
                    "name": "C4",
                    "midi": 60,
                    "time": 12.907362333333365,
                    "velocity": 0.4251968503937008,
                    "duration": 0.12779566666666753
                },
                {
                    "name": "F3",
                    "midi": 53,
                    "time": 13.035158000000033,
                    "velocity": 0.44881889763779526,
                    "duration": 0.12779566666666753
                },
                {
                    "name": "C4",
                    "midi": 60,
                    "time": 13.1629536666667,
                    "velocity": 0.4015748031496063,
                    "duration": 0.12779566666666753
                },
                {
                    "name": "G#3",
                    "midi": 56,
                    "time": 13.290749333333368,
                    "velocity": 0.4015748031496063,
                    "duration": 0.12779566666666753
                },
                {
                    "name": "D#4",
                    "midi": 63,
                    "time": 13.418545000000035,
                    "velocity": 0.41732283464566927,
                    "duration": 0.12779566666666753
                },
                {
                    "name": "F3",
                    "midi": 53,
                    "time": 13.546340666666703,
                    "velocity": 0.4566929133858268,
                    "duration": 0.12779566666666753
                },
                {
                    "name": "C#4",
                    "midi": 61,
                    "time": 13.67413633333337,
                    "velocity": 0.4645669291338583,
                    "duration": 0.12779566666666753
                },
                {
                    "name": "D#3",
                    "midi": 51,
                    "time": 13.801932000000038,
                    "velocity": 0.5590551181102362,
                    "duration": 0.12779566666666753
                },
                {
                    "name": "B3",
                    "midi": 59,
                    "time": 13.929727666666706,
                    "velocity": 0.48031496062992124,
                    "duration": 0.12779566666666753
                },
                {
                    "name": "F3",
                    "midi": 53,
                    "time": 14.057523333333373,
                    "velocity": 0.47244094488188976,
                    "duration": 0.12779566666666753
                },
                {
                    "name": "A3",
                    "midi": 57,
                    "time": 14.18531900000004,
                    "velocity": 0.48031496062992124,
                    "duration": 0.12779566666666753
                },
                {
                    "name": "D#3",
                    "midi": 51,
                    "time": 14.313114666666708,
                    "velocity": 0.41732283464566927,
                    "duration": 0.12779566666666753
                },
                {
                    "name": "A3",
                    "midi": 57,
                    "time": 14.440910333333376,
                    "velocity": 0.4251968503937008,
                    "duration": 0.12779566666666753
                },
                {
                    "name": "D3",
                    "midi": 50,
                    "time": 14.568706000000043,
                    "velocity": 0.4409448818897638,
                    "duration": 0.12779566666666753
                },
                {
                    "name": "A3",
                    "midi": 57,
                    "time": 14.69650166666671,
                    "velocity": 0.4015748031496063,
                    "duration": 0.12779566666666753
                },
                {
                    "name": "F3",
                    "midi": 53,
                    "time": 14.824297333333378,
                    "velocity": 0.4015748031496063,
                    "duration": 0.12779566666666753
                },
                {
                    "name": "A#3",
                    "midi": 58,
                    "time": 14.952093000000046,
                    "velocity": 0.5196850393700787,
                    "duration": 0.12779566666666753
                },
                {
                    "name": "F#3",
                    "midi": 54,
                    "time": 15.079888666666713,
                    "velocity": 0.4566929133858268,
                    "duration": 0.12779566666666753
                },
                {
                    "name": "A#3",
                    "midi": 58,
                    "time": 15.20768433333338,
                    "velocity": 0.47244094488188976,
                    "duration": 0.12779566666666753
                },
                {
                    "name": "D#3",
                    "midi": 51,
                    "time": 15.335480000000048,
                    "velocity": 0.5905511811023622,
                    "duration": 0.12779566666666753
                },
                {
                    "name": "A#3",
                    "midi": 58,
                    "time": 15.463275666666716,
                    "velocity": 0.5354330708661418,
                    "duration": 0.12779566666666753
                },
                {
                    "name": "F#3",
                    "midi": 54,
                    "time": 15.591071333333383,
                    "velocity": 0.5433070866141733,
                    "duration": 0.12779566666666753
                },
                {
                    "name": "B3",
                    "midi": 59,
                    "time": 15.718867000000051,
                    "velocity": 0.6141732283464567,
                    "duration": 0.12779566666666753
                },
                {
                    "name": "F#3",
                    "midi": 54,
                    "time": 15.846662666666719,
                    "velocity": 0.5905511811023622,
                    "duration": 0.12779566666666753
                },
                {
                    "name": "B3",
                    "midi": 59,
                    "time": 15.974458333333386,
                    "velocity": 0.6062992125984252,
                    "duration": 0.12779566666666575
                },
                {
                    "name": "D3",
                    "midi": 50,
                    "time": 16.102254000000052,
                    "velocity": 0.6299212598425197,
                    "duration": 0.12779566666666753
                },
                {
                    "name": "B3",
                    "midi": 59,
                    "time": 16.23004966666672,
                    "velocity": 0.5275590551181102,
                    "duration": 0.12779566666666753
                },
                {
                    "name": "F3",
                    "midi": 53,
                    "time": 16.357845333333387,
                    "velocity": 0.5118110236220472,
                    "duration": 0.12779566666666753
                },
                {
                    "name": "A#3",
                    "midi": 58,
                    "time": 16.485641000000054,
                    "velocity": 0.5275590551181102,
                    "duration": 0.12779566666666753
                },
                {
                    "name": "D3",
                    "midi": 50,
                    "time": 16.613436666666722,
                    "velocity": 0.4645669291338583,
                    "duration": 0.12779566666666753
                },
                {
                    "name": "A#3",
                    "midi": 58,
                    "time": 16.74123233333339,
                    "velocity": 0.4566929133858268,
                    "duration": 0.12779566666666753
                },
                {
                    "name": "D#3",
                    "midi": 51,
                    "time": 16.869028000000057,
                    "velocity": 0.5275590551181102,
                    "duration": 0.12779566666666753
                },
                {
                    "name": "A#3",
                    "midi": 58,
                    "time": 16.996823666666725,
                    "velocity": 0.4645669291338583,
                    "duration": 0.12779566666666753
                },
                {
                    "name": "F#3",
                    "midi": 54,
                    "time": 17.124619333333392,
                    "velocity": 0.48031496062992124,
                    "duration": 0.12779566666666753
                },
                {
                    "name": "B3",
                    "midi": 59,
                    "time": 17.25241500000006,
                    "velocity": 0.6299212598425197,
                    "duration": 0.12779566666666753
                },
                {
                    "name": "G3",
                    "midi": 55,
                    "time": 17.380210666666727,
                    "velocity": 0.5826771653543307,
                    "duration": 0.12779566666666753
                },
                {
                    "name": "B3",
                    "midi": 59,
                    "time": 17.508006333333395,
                    "velocity": 0.5905511811023622,
                    "duration": 0.12779566666666753
                },
                {
                    "name": "D3",
                    "midi": 50,
                    "time": 17.635802000000062,
                    "velocity": 0.6535433070866141,
                    "duration": 0.12779566666666753
                },
                {
                    "name": "B3",
                    "midi": 59,
                    "time": 17.76359766666673,
                    "velocity": 0.5748031496062992,
                    "duration": 0.12779566666666753
                },
                {
                    "name": "F#3",
                    "midi": 54,
                    "time": 17.891393333333397,
                    "velocity": 0.5826771653543307,
                    "duration": 0.12779566666666753
                },
                {
                    "name": "A#3",
                    "midi": 58,
                    "time": 18.019189000000065,
                    "velocity": 0.6299212598425197,
                    "duration": 0.12779566666666753
                },
                {
                    "name": "F3",
                    "midi": 53,
                    "time": 18.146984666666732,
                    "velocity": 0.5669291338582677,
                    "duration": 0.12779566666666753
                },
                {
                    "name": "A#3",
                    "midi": 58,
                    "time": 18.2747803333334,
                    "velocity": 0.5433070866141733,
                    "duration": 0.12779566666666753
                },
                {
                    "name": "D#3",
                    "midi": 51,
                    "time": 18.402576000000067,
                    "velocity": 0.5590551181102362,
                    "duration": 0.12779566666666753
                },
                {
                    "name": "A#3",
                    "midi": 58,
                    "time": 18.530371666666735,
                    "velocity": 0.49606299212598426,
                    "duration": 0.12779566666666753
                },
                {
                    "name": "F#3",
                    "midi": 54,
                    "time": 18.658167333333402,
                    "velocity": 0.49606299212598426,
                    "duration": 0.12779566666666753
                },
                {
                    "name": "B3",
                    "midi": 59,
                    "time": 18.78596300000007,
                    "velocity": 0.6141732283464567,
                    "duration": 0.12779566666666753
                },
                {
                    "name": "D#3",
                    "midi": 51,
                    "time": 18.913758666666737,
                    "velocity": 0.5748031496062992,
                    "duration": 0.12779566666666753
                },
                {
                    "name": "B3",
                    "midi": 59,
                    "time": 19.041554333333405,
                    "velocity": 0.5748031496062992,
                    "duration": 0.12779566666666753
                },
                {
                    "name": "F3",
                    "midi": 53,
                    "time": 19.169350000000072,
                    "velocity": 0.6692913385826772,
                    "duration": 0.12779566666666753
                },
                {
                    "name": "C#4",
                    "midi": 61,
                    "time": 19.29714566666674,
                    "velocity": 0.5984251968503937,
                    "duration": 0.12779566666666753
                },
                {
                    "name": "A3",
                    "midi": 57,
                    "time": 19.424941333333408,
                    "velocity": 0.5984251968503937,
                    "duration": 0.12779566666666753
                },
                {
                    "name": "C#4",
                    "midi": 61,
                    "time": 19.552737000000075,
                    "velocity": 0.6771653543307087,
                    "duration": 0.12779566666666753
                },
                {
                    "name": "F3",
                    "midi": 53,
                    "time": 19.680532666666743,
                    "velocity": 0.6456692913385826,
                    "duration": 0.12779566666666753
                },
                {
                    "name": "C#4",
                    "midi": 61,
                    "time": 19.80832833333341,
                    "velocity": 0.6141732283464567,
                    "duration": 0.12779566666666753
                },
                {
                    "name": "F#3",
                    "midi": 54,
                    "time": 19.936124000000078,
                    "velocity": 0.6141732283464567,
                    "duration": 0.12779566666666753
                },
                {
                    "name": "C#4",
                    "midi": 61,
                    "time": 20.063919666666745,
                    "velocity": 0.5590551181102362,
                    "duration": 0.12779566666666753
                },
                {
                    "name": "A3",
                    "midi": 57,
                    "time": 20.191715333333413,
                    "velocity": 0.5669291338582677,
                    "duration": 0.12779566666666753
                },
                {
                    "name": "D4",
                    "midi": 62,
                    "time": 20.31951100000008,
                    "velocity": 0.6535433070866141,
                    "duration": 0.12779566666666753
                },
                {
                    "name": "F#3",
                    "midi": 54,
                    "time": 20.447306666666748,
                    "velocity": 0.6062992125984252,
                    "duration": 0.12779566666666753
                },
                {
                    "name": "D4",
                    "midi": 62,
                    "time": 20.575102333333415,
                    "velocity": 0.6220472440944882,
                    "duration": 0.12779566666666753
                },
                {
                    "name": "A#3",
                    "midi": 58,
                    "time": 20.702898000000083,
                    "velocity": 0.7086614173228346,
                    "duration": 0.12779566666666753
                },
                {
                    "name": "D#4",
                    "midi": 63,
                    "time": 20.83069366666675,
                    "velocity": 0.6535433070866141,
                    "duration": 0.12779566666666753
                },
                {
                    "name": "F#3",
                    "midi": 54,
                    "time": 20.958489333333418,
                    "velocity": 0.6456692913385826,
                    "duration": 0.12779566666666753
                },
                {
                    "name": "E4",
                    "midi": 64,
                    "time": 21.086285000000085,
                    "velocity": 0.7637795275590551,
                    "duration": 0.12779566666666753
                },
                {
                    "name": "G3",
                    "midi": 55,
                    "time": 21.214080666666753,
                    "velocity": 0.7086614173228346,
                    "duration": 0.12779566666666753
                },
                {
                    "name": "F4",
                    "midi": 65,
                    "time": 21.34187633333342,
                    "velocity": 0.6692913385826772,
                    "duration": 0.12779566666666753
                },
                {
                    "name": "G#3",
                    "midi": 56,
                    "time": 21.469672000000088,
                    "velocity": 0.6614173228346457,
                    "duration": 0.12779566666666753
                },
                {
                    "name": "B3",
                    "midi": 59,
                    "time": 21.597467666666756,
                    "velocity": 0.5826771653543307,
                    "duration": 0.12779566666666753
                },
                {
                    "name": "F#3",
                    "midi": 54,
                    "time": 21.725263333333423,
                    "velocity": 0.5748031496062992,
                    "duration": 0.12779566666666753
                },
                {
                    "name": "B3",
                    "midi": 59,
                    "time": 21.85305900000009,
                    "velocity": 0.6299212598425197,
                    "duration": 0.12779566666666753
                },
                {
                    "name": "F3",
                    "midi": 53,
                    "time": 21.980854666666758,
                    "velocity": 0.5590551181102362,
                    "duration": 0.12779566666666753
                },
                {
                    "name": "B3",
                    "midi": 59,
                    "time": 22.108650333333426,
                    "velocity": 0.5511811023622047,
                    "duration": 0.12779566666666753
                },
                {
                    "name": "D#3",
                    "midi": 51,
                    "time": 22.236446000000093,
                    "velocity": 0.6220472440944882,
                    "duration": 0.12779566666666753
                },
                {
                    "name": "G#3",
                    "midi": 56,
                    "time": 22.36424166666676,
                    "velocity": 0.5511811023622047,
                    "duration": 0.12779566666666753
                },
                {
                    "name": "D3",
                    "midi": 50,
                    "time": 22.49203733333343,
                    "velocity": 0.5511811023622047,
                    "duration": 0.12779566666666753
                },
                {
                    "name": "F#3",
                    "midi": 54,
                    "time": 22.619833000000096,
                    "velocity": 0.5748031496062992,
                    "duration": 0.12779566666666753
                },
                {
                    "name": "D#3",
                    "midi": 51,
                    "time": 22.747628666666763,
                    "velocity": 0.5275590551181102,
                    "duration": 0.12779566666666753
                },
                {
                    "name": "F#3",
                    "midi": 54,
                    "time": 22.87542433333343,
                    "velocity": 0.5196850393700787,
                    "duration": 0.12779566666666753
                },
                {
                    "name": "G#2",
                    "midi": 44,
                    "time": 23.0032200000001,
                    "velocity": 0.5905511811023622,
                    "duration": 0.12779566666666753
                },
                {
                    "name": "F#3",
                    "midi": 54,
                    "time": 23.131015666666766,
                    "velocity": 0.5039370078740157,
                    "duration": 0.12779566666666753
                },
                {
                    "name": "D#3",
                    "midi": 51,
                    "time": 23.258811333333433,
                    "velocity": 0.4881889763779528,
                    "duration": 0.12779566666666753
                },
                {
                    "name": "F#3",
                    "midi": 54,
                    "time": 23.3866070000001,
                    "velocity": 0.5118110236220472,
                    "duration": 0.12779566666666753
                },
                {
                    "name": "G#2",
                    "midi": 44,
                    "time": 23.51440266666677,
                    "velocity": 0.4566929133858268,
                    "duration": 0.12779566666666753
                },
                {
                    "name": "F#3",
                    "midi": 54,
                    "time": 23.642198333333436,
                    "velocity": 0.44881889763779526,
                    "duration": 0.12779566666666753
                },
                {
                    "name": "A#2",
                    "midi": 46,
                    "time": 23.769994000000104,
                    "velocity": 0.5039370078740157,
                    "duration": 0.12779566666666753
                },
                {
                    "name": "F#3",
                    "midi": 54,
                    "time": 23.89778966666677,
                    "velocity": 0.4409448818897638,
                    "duration": 0.12779566666666753
                },
                {
                    "name": "D#3",
                    "midi": 51,
                    "time": 24.02558533333344,
                    "velocity": 0.4330708661417323,
                    "duration": 0.12779566666666753
                },
                {
                    "name": "F#3",
                    "midi": 54,
                    "time": 24.153381000000106,
                    "velocity": 0.4566929133858268,
                    "duration": 0.12779566666666753
                },
                {
                    "name": "A#2",
                    "midi": 46,
                    "time": 24.281176666666774,
                    "velocity": 0.3937007874015748,
                    "duration": 0.12779566666666753
                },
                {
                    "name": "F#3",
                    "midi": 54,
                    "time": 24.40897233333344,
                    "velocity": 0.3858267716535433,
                    "duration": 0.12779566666666753
                },
                {
                    "name": "D#3",
                    "midi": 51,
                    "time": 24.53676800000011,
                    "velocity": 0.4409448818897638,
                    "duration": 0.12779566666666753
                },
                {
                    "name": "A#3",
                    "midi": 58,
                    "time": 24.664563666666776,
                    "velocity": 0.3858267716535433,
                    "duration": 0.12779566666666753
                },
                {
                    "name": "D#3",
                    "midi": 51,
                    "time": 24.792359333333444,
                    "velocity": 0.3779527559055118,
                    "duration": 0.12779566666666753
                },
                {
                    "name": "B3",
                    "midi": 59,
                    "time": 24.92015500000011,
                    "velocity": 0.4015748031496063,
                    "duration": 0.12779566666666753
                },
                {
                    "name": "D#3",
                    "midi": 51,
                    "time": 25.04795066666678,
                    "velocity": 0.3543307086614173,
                    "duration": 0.12779566666666753
                },
                {
                    "name": "C#4",
                    "midi": 61,
                    "time": 25.175746333333446,
                    "velocity": 0.33858267716535434,
                    "duration": 0.12779566666666753
                },
                {
                    "name": "D#3",
                    "midi": 51,
                    "time": 25.303542000000114,
                    "velocity": 0.3779527559055118,
                    "duration": 0.12779566666666753
                },
                {
                    "name": "A#3",
                    "midi": 58,
                    "time": 25.43133766666678,
                    "velocity": 0.33858267716535434,
                    "duration": 0.12779566666666753
                },
                {
                    "name": "D#3",
                    "midi": 51,
                    "time": 25.55913333333345,
                    "velocity": 0.33070866141732286,
                    "duration": 0.12779566666666753
                },
                {
                    "name": "B3",
                    "midi": 59,
                    "time": 25.686929000000116,
                    "velocity": 0.3543307086614173,
                    "duration": 0.12779566666666753
                },
                {
                    "name": "D#3",
                    "midi": 51,
                    "time": 25.814724666666784,
                    "velocity": 0.30708661417322836,
                    "duration": 0.12779566666666753
                },
                {
                    "name": "C#4",
                    "midi": 61,
                    "time": 25.94252033333345,
                    "velocity": 0.2992125984251969,
                    "duration": 0.12779566666666753
                },
                {
                    "name": "D#3",
                    "midi": 51,
                    "time": 26.07031600000012,
                    "velocity": 0.33858267716535434,
                    "duration": 0.12779566666666753
                },
                {
                    "name": "C#4",
                    "midi": 61,
                    "time": 26.198111666666787,
                    "velocity": 0.29133858267716534,
                    "duration": 0.12779566666666753
                },
                {
                    "name": "D#3",
                    "midi": 51,
                    "time": 26.325907333333454,
                    "velocity": 0.28346456692913385,
                    "duration": 0.12779566666666753
                },
                {
                    "name": "B3",
                    "midi": 59,
                    "time": 26.45370300000012,
                    "velocity": 0.30708661417322836,
                    "duration": 0.12779566666666753
                },
                {
                    "name": "D#3",
                    "midi": 51,
                    "time": 26.58149866666679,
                    "velocity": 0.2755905511811024,
                    "duration": 0.12779566666666753
                },
                {
                    "name": "A#3",
                    "midi": 58,
                    "time": 26.709294333333457,
                    "velocity": 0.2755905511811024,
                    "duration": 0.12779566666666753
                },
                {
                    "name": "D#3",
                    "midi": 51,
                    "time": 26.837090000000124,
                    "velocity": 0.29133858267716534,
                    "duration": 0.12779566666666753
                },
                {
                    "name": "G#3",
                    "midi": 56,
                    "time": 26.96488566666679,
                    "velocity": 0.2677165354330709,
                    "duration": 0.12779566666666753
                },
                {
                    "name": "D#3",
                    "midi": 51,
                    "time": 27.09268133333346,
                    "velocity": 0.25196850393700787,
                    "duration": 0.12779566666666753
                },
                {
                    "name": "A#3",
                    "midi": 58,
                    "time": 27.220477000000127,
                    "velocity": 0.2677165354330709,
                    "duration": 0.12779566666666753
                },
                {
                    "name": "D#3",
                    "midi": 51,
                    "time": 27.348272666666794,
                    "velocity": 0.23622047244094488,
                    "duration": 0.12779566666666753
                },
                {
                    "name": "A#3",
                    "midi": 58,
                    "time": 27.476068333333462,
                    "velocity": 0.2283464566929134,
                    "duration": 0.12779566666666753
                },
                {
                    "name": "D#3",
                    "midi": 51,
                    "time": 27.60386400000013,
                    "velocity": 0.28346456692913385,
                    "duration": 0.38338699999999903
                }
            ],
            "controlChanges": {
                "7": [
                    {
                        "number": 7,
                        "time": 0,
                        "value": 0.7874015748031497
                    }
                ],
                "10": [
                    {
                        "number": 10,
                        "time": 0,
                        "value": 0.5039370078740157
                    }
                ],
                "64": [
                    {
                        "number": 64,
                        "time": 0,
                        "value": 0
                    }
                ],
                "91": [
                    {
                        "number": 91,
                        "time": 0,
                        "value": 1
                    }
                ]
            },
            "id": 1,
            "name": "Piano right",
            "instrumentNumber": 0,
            "instrument": "acoustic grand piano",
            "instrumentFamily": "piano",
            "channelNumber": 0,
            "isPercussion": false
        },
        {
            "startTime": 0,
            "duration": 27.987251000000082,
            "length": 217,
            "notes": [
                {
                    "name": "D#2",
                    "midi": 39,
                    "time": 0,
                    "velocity": 0.1889763779527559,
                    "duration": 0.1277956666666667
                },
                {
                    "name": "A#2",
                    "midi": 46,
                    "time": 0.1277956666666667,
                    "velocity": 0.16535433070866143,
                    "duration": 0.1277956666666667
                },
                {
                    "name": "F#2",
                    "midi": 42,
                    "time": 0.2555913333333334,
                    "velocity": 0.1732283464566929,
                    "duration": 0.12779566666666664
                },
                {
                    "name": "B2",
                    "midi": 47,
                    "time": 0.38338700000000003,
                    "velocity": 0.2125984251968504,
                    "duration": 0.12779566666666664
                },
                {
                    "name": "D#2",
                    "midi": 39,
                    "time": 0.5111826666666667,
                    "velocity": 0.1968503937007874,
                    "duration": 0.12779566666666664
                },
                {
                    "name": "B2",
                    "midi": 47,
                    "time": 0.6389783333333333,
                    "velocity": 0.2047244094488189,
                    "duration": 0.12779566666666664
                },
                {
                    "name": "D2",
                    "midi": 38,
                    "time": 0.766774,
                    "velocity": 0.23622047244094488,
                    "duration": 0.12779566666666675
                },
                {
                    "name": "B2",
                    "midi": 47,
                    "time": 0.8945696666666667,
                    "velocity": 0.1889763779527559,
                    "duration": 0.12779566666666664
                },
                {
                    "name": "F2",
                    "midi": 41,
                    "time": 1.0223653333333333,
                    "velocity": 0.1889763779527559,
                    "duration": 0.12779566666666664
                },
                {
                    "name": "A#2",
                    "midi": 46,
                    "time": 1.150161,
                    "velocity": 0.2047244094488189,
                    "duration": 0.12779566666666664
                },
                {
                    "name": "D2",
                    "midi": 38,
                    "time": 1.2779566666666666,
                    "velocity": 0.18110236220472442,
                    "duration": 0.12779566666666664
                },
                {
                    "name": "A#2",
                    "midi": 46,
                    "time": 1.4057523333333333,
                    "velocity": 0.18110236220472442,
                    "duration": 0.12779566666666664
                },
                {
                    "name": "D#2",
                    "midi": 39,
                    "time": 1.533548,
                    "velocity": 0.2125984251968504,
                    "duration": 0.12779566666666664
                },
                {
                    "name": "A#2",
                    "midi": 46,
                    "time": 1.6613436666666666,
                    "velocity": 0.1889763779527559,
                    "duration": 0.12779566666666664
                },
                {
                    "name": "F#2",
                    "midi": 42,
                    "time": 1.7891393333333332,
                    "velocity": 0.1889763779527559,
                    "duration": 0.12779566666666664
                },
                {
                    "name": "B2",
                    "midi": 47,
                    "time": 1.9169349999999998,
                    "velocity": 0.25196850393700787,
                    "duration": 0.12779566666666686
                },
                {
                    "name": "D#2",
                    "midi": 39,
                    "time": 2.0447306666666667,
                    "velocity": 0.2204724409448819,
                    "duration": 0.12779566666666664
                },
                {
                    "name": "B2",
                    "midi": 47,
                    "time": 2.1725263333333333,
                    "velocity": 0.23622047244094488,
                    "duration": 0.12779566666666664
                },
                {
                    "name": "D2",
                    "midi": 38,
                    "time": 2.300322,
                    "velocity": 0.2755905511811024,
                    "duration": 0.12779566666666664
                },
                {
                    "name": "B2",
                    "midi": 47,
                    "time": 2.4281176666666666,
                    "velocity": 0.2204724409448819,
                    "duration": 0.12779566666666664
                },
                {
                    "name": "F2",
                    "midi": 41,
                    "time": 2.5559133333333333,
                    "velocity": 0.2047244094488189,
                    "duration": 0.12779566666666664
                },
                {
                    "name": "A#2",
                    "midi": 46,
                    "time": 2.683709,
                    "velocity": 0.25196850393700787,
                    "duration": 0.12779566666666664
                },
                {
                    "name": "D2",
                    "midi": 38,
                    "time": 2.8115046666666665,
                    "velocity": 0.2204724409448819,
                    "duration": 0.12779566666666664
                },
                {
                    "name": "A#2",
                    "midi": 46,
                    "time": 2.939300333333333,
                    "velocity": 0.1889763779527559,
                    "duration": 0.12779566666666664
                },
                {
                    "name": "D#2",
                    "midi": 39,
                    "time": 3.067096,
                    "velocity": 0.25196850393700787,
                    "duration": 0.12779566666666708
                },
                {
                    "name": "A#2",
                    "midi": 46,
                    "time": 3.194891666666667,
                    "velocity": 0.2204724409448819,
                    "duration": 0.12779566666666664
                },
                {
                    "name": "F#2",
                    "midi": 42,
                    "time": 3.3226873333333335,
                    "velocity": 0.2283464566929134,
                    "duration": 0.12779566666666664
                },
                {
                    "name": "B2",
                    "midi": 47,
                    "time": 3.450483,
                    "velocity": 0.28346456692913385,
                    "duration": 0.12779566666666664
                },
                {
                    "name": "D#2",
                    "midi": 39,
                    "time": 3.578278666666667,
                    "velocity": 0.2677165354330709,
                    "duration": 0.12779566666666664
                },
                {
                    "name": "C3",
                    "midi": 48,
                    "time": 3.7060743333333335,
                    "velocity": 0.29133858267716534,
                    "duration": 0.12779566666666664
                },
                {
                    "name": "F2",
                    "midi": 41,
                    "time": 3.83387,
                    "velocity": 0.31496062992125984,
                    "duration": 0.12779566666666664
                },
                {
                    "name": "C3",
                    "midi": 48,
                    "time": 3.9616656666666668,
                    "velocity": 0.28346456692913385,
                    "duration": 0.12779566666666664
                },
                {
                    "name": "G#2",
                    "midi": 44,
                    "time": 4.089461333333333,
                    "velocity": 0.25984251968503935,
                    "duration": 0.12779566666666664
                },
                {
                    "name": "D#3",
                    "midi": 51,
                    "time": 4.2220493375,
                    "velocity": 0.31496062992125984,
                    "duration": 0.12779566666666664
                },
                {
                    "name": "A2",
                    "midi": 45,
                    "time": 4.353838618749999,
                    "velocity": 0.25984251968503935,
                    "duration": 0.12779566666666664
                },
                {
                    "name": "C#3",
                    "midi": 49,
                    "time": 4.472848333333332,
                    "velocity": 0.2283464566929134,
                    "duration": 0.12779566666666664
                },
                {
                    "name": "F#2",
                    "midi": 42,
                    "time": 4.600643999999999,
                    "velocity": 0.2755905511811024,
                    "duration": 0.12779566666666753
                },
                {
                    "name": "C#3",
                    "midi": 49,
                    "time": 4.728439666666667,
                    "velocity": 0.2440944881889764,
                    "duration": 0.12779566666666664
                },
                {
                    "name": "A#2",
                    "midi": 46,
                    "time": 4.856235333333333,
                    "velocity": 0.25196850393700787,
                    "duration": 0.12779566666666664
                },
                {
                    "name": "D#3",
                    "midi": 51,
                    "time": 4.984031,
                    "velocity": 0.3228346456692913,
                    "duration": 0.12779566666666664
                },
                {
                    "name": "F#2",
                    "midi": 42,
                    "time": 5.1118266666666665,
                    "velocity": 0.2992125984251969,
                    "duration": 0.12779566666666664
                },
                {
                    "name": "E3",
                    "midi": 52,
                    "time": 5.239622333333333,
                    "velocity": 0.3228346456692913,
                    "duration": 0.12779566666666664
                },
                {
                    "name": "A2",
                    "midi": 45,
                    "time": 5.367418,
                    "velocity": 0.3543307086614173,
                    "duration": 0.12779566666666664
                },
                {
                    "name": "E3",
                    "midi": 52,
                    "time": 5.495213666666666,
                    "velocity": 0.2992125984251969,
                    "duration": 0.12779566666666664
                },
                {
                    "name": "C3",
                    "midi": 48,
                    "time": 5.623009333333333,
                    "velocity": 0.30708661417322836,
                    "duration": 0.12779566666666664
                },
                {
                    "name": "F#3",
                    "midi": 54,
                    "time": 5.750805,
                    "velocity": 0.33858267716535434,
                    "duration": 0.12779566666666664
                },
                {
                    "name": "C#3",
                    "midi": 49,
                    "time": 5.878600666666666,
                    "velocity": 0.28346456692913385,
                    "duration": 0.12779566666666664
                },
                {
                    "name": "F3",
                    "midi": 53,
                    "time": 6.006396333333333,
                    "velocity": 0.25196850393700787,
                    "duration": 0.12779566666666664
                },
                {
                    "name": "A#2",
                    "midi": 46,
                    "time": 6.134192,
                    "velocity": 0.30708661417322836,
                    "duration": 0.12779566666666664
                },
                {
                    "name": "F3",
                    "midi": 53,
                    "time": 6.261987666666666,
                    "velocity": 0.28346456692913385,
                    "duration": 0.12779566666666664
                },
                {
                    "name": "C#3",
                    "midi": 49,
                    "time": 6.389783333333333,
                    "velocity": 0.29133858267716534,
                    "duration": 0.12779566666666664
                },
                {
                    "name": "F#3",
                    "midi": 54,
                    "time": 6.517579,
                    "velocity": 0.36220472440944884,
                    "duration": 0.12779566666666664
                },
                {
                    "name": "A#2",
                    "midi": 46,
                    "time": 6.645374666666666,
                    "velocity": 0.33858267716535434,
                    "duration": 0.12779566666666664
                },
                {
                    "name": "F#3",
                    "midi": 54,
                    "time": 6.773170333333333,
                    "velocity": 0.3543307086614173,
                    "duration": 0.12779566666666664
                },
                {
                    "name": "A2",
                    "midi": 45,
                    "time": 6.9009659999999995,
                    "velocity": 0.3464566929133858,
                    "duration": 0.12779566666666664
                },
                {
                    "name": "F#3",
                    "midi": 54,
                    "time": 7.028761666666666,
                    "velocity": 0.31496062992125984,
                    "duration": 0.12779566666666664
                },
                {
                    "name": "C3",
                    "midi": 48,
                    "time": 7.156557333333333,
                    "velocity": 0.31496062992125984,
                    "duration": 0.12779566666666664
                },
                {
                    "name": "F3",
                    "midi": 53,
                    "time": 7.284352999999999,
                    "velocity": 0.33070866141732286,
                    "duration": 0.12779566666666664
                },
                {
                    "name": "A2",
                    "midi": 45,
                    "time": 7.412148666666666,
                    "velocity": 0.29133858267716534,
                    "duration": 0.12779566666666664
                },
                {
                    "name": "F3",
                    "midi": 53,
                    "time": 7.539944333333333,
                    "velocity": 0.28346456692913385,
                    "duration": 0.12779566666666664
                },
                {
                    "name": "A#2",
                    "midi": 46,
                    "time": 7.667739999999999,
                    "velocity": 0.31496062992125984,
                    "duration": 0.12779566666666664
                },
                {
                    "name": "F3",
                    "midi": 53,
                    "time": 7.795535666666666,
                    "velocity": 0.29133858267716534,
                    "duration": 0.12779566666666664
                },
                {
                    "name": "C#3",
                    "midi": 49,
                    "time": 7.923331333333333,
                    "velocity": 0.30708661417322836,
                    "duration": 0.12779566666666664
                },
                {
                    "name": "F#3",
                    "midi": 54,
                    "time": 8.051127,
                    "velocity": 0.3700787401574803,
                    "duration": 0.12779566666666753
                },
                {
                    "name": "A2",
                    "midi": 45,
                    "time": 8.178922666666667,
                    "velocity": 0.3464566929133858,
                    "duration": 0.12779566666666753
                },
                {
                    "name": "F#3",
                    "midi": 54,
                    "time": 8.306718333333334,
                    "velocity": 0.36220472440944884,
                    "duration": 0.12779566666666753
                },
                {
                    "name": "G#2",
                    "midi": 44,
                    "time": 8.434514000000002,
                    "velocity": 0.4330708661417323,
                    "duration": 0.12779566666666753
                },
                {
                    "name": "F#3",
                    "midi": 54,
                    "time": 8.56230966666667,
                    "velocity": 0.3937007874015748,
                    "duration": 0.12779566666666753
                },
                {
                    "name": "D3",
                    "midi": 50,
                    "time": 8.690105333333337,
                    "velocity": 0.33858267716535434,
                    "duration": 0.12779566666666753
                },
                {
                    "name": "F3",
                    "midi": 53,
                    "time": 8.817901000000004,
                    "velocity": 0.36220472440944884,
                    "duration": 0.12779566666666753
                },
                {
                    "name": "B2",
                    "midi": 47,
                    "time": 8.945696666666672,
                    "velocity": 0.33070866141732286,
                    "duration": 0.12779566666666753
                },
                {
                    "name": "F3",
                    "midi": 53,
                    "time": 9.07349233333334,
                    "velocity": 0.31496062992125984,
                    "duration": 0.12779566666666753
                },
                {
                    "name": "G#2",
                    "midi": 44,
                    "time": 9.201288000000007,
                    "velocity": 0.44881889763779526,
                    "duration": 0.12779566666666575
                },
                {
                    "name": "E3",
                    "midi": 52,
                    "time": 9.329083666666673,
                    "velocity": 0.3779527559055118,
                    "duration": 0.12779566666666753
                },
                {
                    "name": "B2",
                    "midi": 47,
                    "time": 9.45687933333334,
                    "velocity": 0.3779527559055118,
                    "duration": 0.12779566666666753
                },
                {
                    "name": "D3",
                    "midi": 50,
                    "time": 9.584675000000008,
                    "velocity": 0.4015748031496063,
                    "duration": 0.12779566666666753
                },
                {
                    "name": "G#2",
                    "midi": 44,
                    "time": 9.712470666666675,
                    "velocity": 0.33070866141732286,
                    "duration": 0.12779566666666753
                },
                {
                    "name": "D3",
                    "midi": 50,
                    "time": 9.840266333333343,
                    "velocity": 0.3464566929133858,
                    "duration": 0.12779566666666753
                },
                {
                    "name": "G2",
                    "midi": 43,
                    "time": 9.96806200000001,
                    "velocity": 0.36220472440944884,
                    "duration": 0.12779566666666575
                },
                {
                    "name": "D3",
                    "midi": 50,
                    "time": 10.095857666666676,
                    "velocity": 0.3228346456692913,
                    "duration": 0.12779566666666753
                },
                {
                    "name": "A#2",
                    "midi": 46,
                    "time": 10.223653333333344,
                    "velocity": 0.31496062992125984,
                    "duration": 0.12779566666666753
                },
                {
                    "name": "F3",
                    "midi": 53,
                    "time": 10.351449000000011,
                    "velocity": 0.33070866141732286,
                    "duration": 0.12779566666666753
                },
                {
                    "name": "G2",
                    "midi": 43,
                    "time": 10.479244666666679,
                    "velocity": 0.3700787401574803,
                    "duration": 0.12779566666666753
                },
                {
                    "name": "D#3",
                    "midi": 51,
                    "time": 10.607040333333346,
                    "velocity": 0.3700787401574803,
                    "duration": 0.12779566666666753
                },
                {
                    "name": "F2",
                    "midi": 41,
                    "time": 10.734836000000014,
                    "velocity": 0.4330708661417323,
                    "duration": 0.12779566666666575
                },
                {
                    "name": "C#3",
                    "midi": 49,
                    "time": 10.86263166666668,
                    "velocity": 0.3858267716535433,
                    "duration": 0.12779566666666753
                },
                {
                    "name": "G2",
                    "midi": 43,
                    "time": 10.990427333333347,
                    "velocity": 0.3858267716535433,
                    "duration": 0.12779566666666753
                },
                {
                    "name": "B2",
                    "midi": 47,
                    "time": 11.118223000000015,
                    "velocity": 0.4094488188976378,
                    "duration": 0.12779566666666753
                },
                {
                    "name": "F2",
                    "midi": 41,
                    "time": 11.246018666666682,
                    "velocity": 0.33858267716535434,
                    "duration": 0.12779566666666753
                },
                {
                    "name": "B2",
                    "midi": 47,
                    "time": 11.37381433333335,
                    "velocity": 0.3543307086614173,
                    "duration": 0.12779566666666753
                },
                {
                    "name": "E2",
                    "midi": 40,
                    "time": 11.501610000000017,
                    "velocity": 0.3700787401574803,
                    "duration": 0.12779566666666753
                },
                {
                    "name": "B2",
                    "midi": 47,
                    "time": 11.629405666666685,
                    "velocity": 0.33070866141732286,
                    "duration": 0.12779566666666753
                },
                {
                    "name": "G2",
                    "midi": 43,
                    "time": 11.757201333333352,
                    "velocity": 0.3228346456692913,
                    "duration": 0.12779566666666753
                },
                {
                    "name": "C#3",
                    "midi": 49,
                    "time": 11.88499700000002,
                    "velocity": 0.3464566929133858,
                    "duration": 0.12779566666666753
                },
                {
                    "name": "E2",
                    "midi": 40,
                    "time": 12.012792666666687,
                    "velocity": 0.3779527559055118,
                    "duration": 0.12779566666666753
                },
                {
                    "name": "C3",
                    "midi": 48,
                    "time": 12.140588333333355,
                    "velocity": 0.3779527559055118,
                    "duration": 0.12779566666666753
                },
                {
                    "name": "F#2",
                    "midi": 42,
                    "time": 12.268384000000022,
                    "velocity": 0.4251968503937008,
                    "duration": 0.12779566666666575
                },
                {
                    "name": "D3",
                    "midi": 50,
                    "time": 12.396179666666688,
                    "velocity": 0.3858267716535433,
                    "duration": 0.12779566666666753
                },
                {
                    "name": "A2",
                    "midi": 45,
                    "time": 12.523975333333356,
                    "velocity": 0.3937007874015748,
                    "duration": 0.12779566666666753
                },
                {
                    "name": "C3",
                    "midi": 48,
                    "time": 12.651771000000023,
                    "velocity": 0.41732283464566927,
                    "duration": 0.12779566666666753
                },
                {
                    "name": "F#2",
                    "midi": 42,
                    "time": 12.77956666666669,
                    "velocity": 0.3464566929133858,
                    "duration": 0.12779566666666753
                },
                {
                    "name": "C3",
                    "midi": 48,
                    "time": 12.907362333333358,
                    "velocity": 0.36220472440944884,
                    "duration": 0.12779566666666753
                },
                {
                    "name": "F2",
                    "midi": 41,
                    "time": 13.035158000000026,
                    "velocity": 0.3779527559055118,
                    "duration": 0.12779566666666753
                },
                {
                    "name": "C3",
                    "midi": 48,
                    "time": 13.162953666666693,
                    "velocity": 0.33858267716535434,
                    "duration": 0.12779566666666753
                },
                {
                    "name": "G#2",
                    "midi": 44,
                    "time": 13.29074933333336,
                    "velocity": 0.33070866141732286,
                    "duration": 0.12779566666666753
                },
                {
                    "name": "D#3",
                    "midi": 51,
                    "time": 13.418545000000028,
                    "velocity": 0.3543307086614173,
                    "duration": 0.12779566666666753
                },
                {
                    "name": "F2",
                    "midi": 41,
                    "time": 13.546340666666696,
                    "velocity": 0.3779527559055118,
                    "duration": 0.12779566666666753
                },
                {
                    "name": "C#3",
                    "midi": 49,
                    "time": 13.674136333333363,
                    "velocity": 0.3779527559055118,
                    "duration": 0.12779566666666753
                },
                {
                    "name": "D#2",
                    "midi": 39,
                    "time": 13.801932000000031,
                    "velocity": 0.48031496062992124,
                    "duration": 0.12779566666666575
                },
                {
                    "name": "B2",
                    "midi": 47,
                    "time": 13.929727666666697,
                    "velocity": 0.4015748031496063,
                    "duration": 0.12779566666666753
                },
                {
                    "name": "F2",
                    "midi": 41,
                    "time": 14.057523333333364,
                    "velocity": 0.3937007874015748,
                    "duration": 0.12779566666666753
                },
                {
                    "name": "A2",
                    "midi": 45,
                    "time": 14.185319000000032,
                    "velocity": 0.3937007874015748,
                    "duration": 0.12779566666666753
                },
                {
                    "name": "D#2",
                    "midi": 39,
                    "time": 14.3131146666667,
                    "velocity": 0.3543307086614173,
                    "duration": 0.12779566666666753
                },
                {
                    "name": "A2",
                    "midi": 45,
                    "time": 14.440910333333367,
                    "velocity": 0.3543307086614173,
                    "duration": 0.12779566666666753
                },
                {
                    "name": "D2",
                    "midi": 38,
                    "time": 14.568706000000034,
                    "velocity": 0.3700787401574803,
                    "duration": 0.12779566666666575
                },
                {
                    "name": "A2",
                    "midi": 45,
                    "time": 14.6965016666667,
                    "velocity": 0.3464566929133858,
                    "duration": 0.12779566666666753
                },
                {
                    "name": "F2",
                    "midi": 41,
                    "time": 14.824297333333368,
                    "velocity": 0.3464566929133858,
                    "duration": 0.12779566666666753
                },
                {
                    "name": "A#2",
                    "midi": 46,
                    "time": 14.952093000000035,
                    "velocity": 0.4409448818897638,
                    "duration": 0.12779566666666753
                },
                {
                    "name": "F#2",
                    "midi": 42,
                    "time": 15.079888666666703,
                    "velocity": 0.3937007874015748,
                    "duration": 0.12779566666666753
                },
                {
                    "name": "A#2",
                    "midi": 46,
                    "time": 15.20768433333337,
                    "velocity": 0.3937007874015748,
                    "duration": 0.12779566666666753
                },
                {
                    "name": "D#2",
                    "midi": 39,
                    "time": 15.335480000000038,
                    "velocity": 0.5039370078740157,
                    "duration": 0.12779566666666575
                },
                {
                    "name": "A#2",
                    "midi": 46,
                    "time": 15.463275666666704,
                    "velocity": 0.44881889763779526,
                    "duration": 0.12779566666666753
                },
                {
                    "name": "F#2",
                    "midi": 42,
                    "time": 15.591071333333371,
                    "velocity": 0.4566929133858268,
                    "duration": 0.12779566666666753
                },
                {
                    "name": "B2",
                    "midi": 47,
                    "time": 15.718867000000039,
                    "velocity": 0.5196850393700787,
                    "duration": 0.12779566666666753
                },
                {
                    "name": "F#2",
                    "midi": 42,
                    "time": 15.846662666666706,
                    "velocity": 0.49606299212598426,
                    "duration": 0.12779566666666753
                },
                {
                    "name": "B2",
                    "midi": 47,
                    "time": 15.974458333333374,
                    "velocity": 0.5118110236220472,
                    "duration": 0.12779566666666753
                },
                {
                    "name": "D2",
                    "midi": 38,
                    "time": 16.10225400000004,
                    "velocity": 0.5275590551181102,
                    "duration": 0.12779566666666398
                },
                {
                    "name": "B2",
                    "midi": 47,
                    "time": 16.230049666666705,
                    "velocity": 0.4251968503937008,
                    "duration": 0.12779566666666753
                },
                {
                    "name": "F2",
                    "midi": 41,
                    "time": 16.357845333333373,
                    "velocity": 0.41732283464566927,
                    "duration": 0.12779566666666753
                },
                {
                    "name": "A#2",
                    "midi": 46,
                    "time": 16.48564100000004,
                    "velocity": 0.44881889763779526,
                    "duration": 0.12779566666666753
                },
                {
                    "name": "D2",
                    "midi": 38,
                    "time": 16.613436666666708,
                    "velocity": 0.3937007874015748,
                    "duration": 0.12779566666666753
                },
                {
                    "name": "A#2",
                    "midi": 46,
                    "time": 16.741232333333375,
                    "velocity": 0.3858267716535433,
                    "duration": 0.12779566666666753
                },
                {
                    "name": "D#2",
                    "midi": 39,
                    "time": 16.869028000000043,
                    "velocity": 0.4409448818897638,
                    "duration": 0.12779566666666398
                },
                {
                    "name": "A#2",
                    "midi": 46,
                    "time": 16.996823666666707,
                    "velocity": 0.3858267716535433,
                    "duration": 0.12779566666666753
                },
                {
                    "name": "F#2",
                    "midi": 42,
                    "time": 17.124619333333374,
                    "velocity": 0.4015748031496063,
                    "duration": 0.12779566666666753
                },
                {
                    "name": "B2",
                    "midi": 47,
                    "time": 17.252415000000042,
                    "velocity": 0.5118110236220472,
                    "duration": 0.12779566666666753
                },
                {
                    "name": "G2",
                    "midi": 43,
                    "time": 17.38021066666671,
                    "velocity": 0.44881889763779526,
                    "duration": 0.12779566666666753
                },
                {
                    "name": "B2",
                    "midi": 47,
                    "time": 17.508006333333377,
                    "velocity": 0.4566929133858268,
                    "duration": 0.12779566666666753
                },
                {
                    "name": "D2",
                    "midi": 38,
                    "time": 17.635802000000044,
                    "velocity": 0.5590551181102362,
                    "duration": 0.12779566666666398
                },
                {
                    "name": "B2",
                    "midi": 47,
                    "time": 17.76359766666671,
                    "velocity": 0.4881889763779528,
                    "duration": 0.12779566666666753
                },
                {
                    "name": "F#2",
                    "midi": 42,
                    "time": 17.891393333333376,
                    "velocity": 0.49606299212598426,
                    "duration": 0.12779566666666753
                },
                {
                    "name": "A#2",
                    "midi": 46,
                    "time": 18.019189000000043,
                    "velocity": 0.5275590551181102,
                    "duration": 0.12779566666666753
                },
                {
                    "name": "F2",
                    "midi": 41,
                    "time": 18.14698466666671,
                    "velocity": 0.48031496062992124,
                    "duration": 0.12779566666666753
                },
                {
                    "name": "A#2",
                    "midi": 46,
                    "time": 18.27478033333338,
                    "velocity": 0.4566929133858268,
                    "duration": 0.12779566666666753
                },
                {
                    "name": "D#2",
                    "midi": 39,
                    "time": 18.402576000000046,
                    "velocity": 0.4645669291338583,
                    "duration": 0.12779566666666398
                },
                {
                    "name": "A#2",
                    "midi": 46,
                    "time": 18.53037166666671,
                    "velocity": 0.4251968503937008,
                    "duration": 0.12779566666666753
                },
                {
                    "name": "F#2",
                    "midi": 42,
                    "time": 18.658167333333378,
                    "velocity": 0.4251968503937008,
                    "duration": 0.12779566666666753
                },
                {
                    "name": "B2",
                    "midi": 47,
                    "time": 18.785963000000045,
                    "velocity": 0.5118110236220472,
                    "duration": 0.12779566666666753
                },
                {
                    "name": "D#2",
                    "midi": 39,
                    "time": 18.913758666666713,
                    "velocity": 0.47244094488188976,
                    "duration": 0.12779566666666753
                },
                {
                    "name": "B2",
                    "midi": 47,
                    "time": 19.04155433333338,
                    "velocity": 0.48031496062992124,
                    "duration": 0.12779566666666753
                },
                {
                    "name": "F2",
                    "midi": 41,
                    "time": 19.169350000000048,
                    "velocity": 0.5511811023622047,
                    "duration": 0.12779566666666398
                },
                {
                    "name": "C#3",
                    "midi": 49,
                    "time": 19.29714566666671,
                    "velocity": 0.5196850393700787,
                    "duration": 0.12779566666666753
                },
                {
                    "name": "A2",
                    "midi": 45,
                    "time": 19.42494133333338,
                    "velocity": 0.4881889763779528,
                    "duration": 0.12779566666666753
                },
                {
                    "name": "C#3",
                    "midi": 49,
                    "time": 19.552737000000047,
                    "velocity": 0.5590551181102362,
                    "duration": 0.12779566666666753
                },
                {
                    "name": "F2",
                    "midi": 41,
                    "time": 19.680532666666714,
                    "velocity": 0.5433070866141733,
                    "duration": 0.12779566666666753
                },
                {
                    "name": "C#3",
                    "midi": 49,
                    "time": 19.80832833333338,
                    "velocity": 0.5275590551181102,
                    "duration": 0.12779566666666753
                },
                {
                    "name": "F#2",
                    "midi": 42,
                    "time": 19.93612400000005,
                    "velocity": 0.5118110236220472,
                    "duration": 0.12779566666666398
                },
                {
                    "name": "C#3",
                    "midi": 49,
                    "time": 20.063919666666713,
                    "velocity": 0.4645669291338583,
                    "duration": 0.12779566666666753
                },
                {
                    "name": "A2",
                    "midi": 45,
                    "time": 20.19171533333338,
                    "velocity": 0.47244094488188976,
                    "duration": 0.12779566666666753
                },
                {
                    "name": "D3",
                    "midi": 50,
                    "time": 20.31951100000005,
                    "velocity": 0.5511811023622047,
                    "duration": 0.12779566666666753
                },
                {
                    "name": "F#2",
                    "midi": 42,
                    "time": 20.447306666666716,
                    "velocity": 0.5196850393700787,
                    "duration": 0.12779566666666753
                },
                {
                    "name": "D3",
                    "midi": 50,
                    "time": 20.575102333333383,
                    "velocity": 0.5196850393700787,
                    "duration": 0.12779566666666753
                },
                {
                    "name": "A#2",
                    "midi": 46,
                    "time": 20.70289800000005,
                    "velocity": 0.6062992125984252,
                    "duration": 0.12779566666666398
                },
                {
                    "name": "D#3",
                    "midi": 51,
                    "time": 20.830693666666715,
                    "velocity": 0.5511811023622047,
                    "duration": 0.12779566666666753
                },
                {
                    "name": "F#2",
                    "midi": 42,
                    "time": 20.958489333333382,
                    "velocity": 0.5354330708661418,
                    "duration": 0.12779566666666753
                },
                {
                    "name": "E3",
                    "midi": 52,
                    "time": 21.08628500000005,
                    "velocity": 0.6377952755905512,
                    "duration": 0.12779566666666753
                },
                {
                    "name": "G2",
                    "midi": 43,
                    "time": 21.214080666666717,
                    "velocity": 0.6062992125984252,
                    "duration": 0.12779566666666753
                },
                {
                    "name": "F3",
                    "midi": 53,
                    "time": 21.341876333333385,
                    "velocity": 0.5905511811023622,
                    "duration": 0.12779566666666753
                },
                {
                    "name": "G#2",
                    "midi": 44,
                    "time": 21.469672000000052,
                    "velocity": 0.5748031496062992,
                    "duration": 0.12779566666666398
                },
                {
                    "name": "B2",
                    "midi": 47,
                    "time": 21.597467666666716,
                    "velocity": 0.49606299212598426,
                    "duration": 0.12779566666666753
                },
                {
                    "name": "F#2",
                    "midi": 42,
                    "time": 21.725263333333384,
                    "velocity": 0.4881889763779528,
                    "duration": 0.12779566666666753
                },
                {
                    "name": "B2",
                    "midi": 47,
                    "time": 21.85305900000005,
                    "velocity": 0.5354330708661418,
                    "duration": 0.12779566666666753
                },
                {
                    "name": "F2",
                    "midi": 41,
                    "time": 21.98085466666672,
                    "velocity": 0.47244094488188976,
                    "duration": 0.12779566666666753
                },
                {
                    "name": "B2",
                    "midi": 47,
                    "time": 22.108650333333387,
                    "velocity": 0.4645669291338583,
                    "duration": 0.12779566666666753
                },
                {
                    "name": "D#2",
                    "midi": 39,
                    "time": 22.236446000000054,
                    "velocity": 0.5275590551181102,
                    "duration": 0.12779566666666398
                },
                {
                    "name": "G#2",
                    "midi": 44,
                    "time": 22.364241666666718,
                    "velocity": 0.4645669291338583,
                    "duration": 0.12779566666666753
                },
                {
                    "name": "D2",
                    "midi": 38,
                    "time": 22.492037333333386,
                    "velocity": 0.4645669291338583,
                    "duration": 0.12779566666666753
                },
                {
                    "name": "F#2",
                    "midi": 42,
                    "time": 22.619833000000053,
                    "velocity": 0.4881889763779528,
                    "duration": 0.12779566666666753
                },
                {
                    "name": "D#2",
                    "midi": 39,
                    "time": 22.74762866666672,
                    "velocity": 0.4409448818897638,
                    "duration": 0.12779566666666753
                },
                {
                    "name": "F#2",
                    "midi": 42,
                    "time": 22.875424333333388,
                    "velocity": 0.4330708661417323,
                    "duration": 0.12779566666666753
                },
                {
                    "name": "G#1",
                    "midi": 32,
                    "time": 23.003220000000056,
                    "velocity": 0.4881889763779528,
                    "duration": 0.12779566666666753
                },
                {
                    "name": "F#2",
                    "midi": 42,
                    "time": 23.131015666666723,
                    "velocity": 0.41732283464566927,
                    "duration": 0.12779566666666753
                },
                {
                    "name": "D#2",
                    "midi": 39,
                    "time": 23.25881133333339,
                    "velocity": 0.4015748031496063,
                    "duration": 0.12779566666666753
                },
                {
                    "name": "F#2",
                    "midi": 42,
                    "time": 23.38660700000006,
                    "velocity": 0.4409448818897638,
                    "duration": 0.12779566666666753
                },
                {
                    "name": "G#1",
                    "midi": 32,
                    "time": 23.514402666666726,
                    "velocity": 0.3858267716535433,
                    "duration": 0.12779566666666753
                },
                {
                    "name": "F#2",
                    "midi": 42,
                    "time": 23.642198333333393,
                    "velocity": 0.3779527559055118,
                    "duration": 0.12779566666666753
                },
                {
                    "name": "A#1",
                    "midi": 34,
                    "time": 23.76999400000006,
                    "velocity": 0.4251968503937008,
                    "duration": 0.12779566666666753
                },
                {
                    "name": "F#2",
                    "midi": 42,
                    "time": 23.89778966666673,
                    "velocity": 0.3700787401574803,
                    "duration": 0.12779566666666753
                },
                {
                    "name": "D#2",
                    "midi": 39,
                    "time": 24.025585333333396,
                    "velocity": 0.36220472440944884,
                    "duration": 0.12779566666666753
                },
                {
                    "name": "F#2",
                    "midi": 42,
                    "time": 24.153381000000063,
                    "velocity": 0.3858267716535433,
                    "duration": 0.12779566666666753
                },
                {
                    "name": "A#1",
                    "midi": 34,
                    "time": 24.28117666666673,
                    "velocity": 0.33070866141732286,
                    "duration": 0.12779566666666753
                },
                {
                    "name": "F#2",
                    "midi": 42,
                    "time": 24.4089723333334,
                    "velocity": 0.3228346456692913,
                    "duration": 0.12779566666666753
                },
                {
                    "name": "D#2",
                    "midi": 39,
                    "time": 24.536768000000066,
                    "velocity": 0.3779527559055118,
                    "duration": 0.12779566666666753
                },
                {
                    "name": "A#2",
                    "midi": 46,
                    "time": 24.664563666666734,
                    "velocity": 0.3228346456692913,
                    "duration": 0.12779566666666753
                },
                {
                    "name": "D#2",
                    "midi": 39,
                    "time": 24.7923593333334,
                    "velocity": 0.31496062992125984,
                    "duration": 0.12779566666666753
                },
                {
                    "name": "B2",
                    "midi": 47,
                    "time": 24.92015500000007,
                    "velocity": 0.33858267716535434,
                    "duration": 0.12779566666666753
                },
                {
                    "name": "D#2",
                    "midi": 39,
                    "time": 25.047950666666736,
                    "velocity": 0.2992125984251969,
                    "duration": 0.12779566666666753
                },
                {
                    "name": "C#3",
                    "midi": 49,
                    "time": 25.175746333333404,
                    "velocity": 0.28346456692913385,
                    "duration": 0.12779566666666753
                },
                {
                    "name": "D#2",
                    "midi": 39,
                    "time": 25.30354200000007,
                    "velocity": 0.3228346456692913,
                    "duration": 0.12779566666666398
                },
                {
                    "name": "A#2",
                    "midi": 46,
                    "time": 25.431337666666735,
                    "velocity": 0.28346456692913385,
                    "duration": 0.12779566666666753
                },
                {
                    "name": "D#2",
                    "midi": 39,
                    "time": 25.559133333333403,
                    "velocity": 0.28346456692913385,
                    "duration": 0.12779566666666753
                },
                {
                    "name": "B2",
                    "midi": 47,
                    "time": 25.68692900000007,
                    "velocity": 0.29133858267716534,
                    "duration": 0.12779566666666753
                },
                {
                    "name": "D#2",
                    "midi": 39,
                    "time": 25.814724666666738,
                    "velocity": 0.25196850393700787,
                    "duration": 0.12779566666666753
                },
                {
                    "name": "C#3",
                    "midi": 49,
                    "time": 25.942520333333405,
                    "velocity": 0.25196850393700787,
                    "duration": 0.12779566666666753
                },
                {
                    "name": "D#2",
                    "midi": 39,
                    "time": 26.070316000000073,
                    "velocity": 0.28346456692913385,
                    "duration": 0.12779566666666753
                },
                {
                    "name": "C#3",
                    "midi": 49,
                    "time": 26.19811166666674,
                    "velocity": 0.25196850393700787,
                    "duration": 0.12779566666666753
                },
                {
                    "name": "D#2",
                    "midi": 39,
                    "time": 26.325907333333408,
                    "velocity": 0.2440944881889764,
                    "duration": 0.12779566666666753
                },
                {
                    "name": "B2",
                    "midi": 47,
                    "time": 26.453703000000075,
                    "velocity": 0.25196850393700787,
                    "duration": 0.12779566666666753
                },
                {
                    "name": "D#2",
                    "midi": 39,
                    "time": 26.581498666666743,
                    "velocity": 0.2204724409448819,
                    "duration": 0.12779566666666753
                },
                {
                    "name": "A#2",
                    "midi": 46,
                    "time": 26.70929433333341,
                    "velocity": 0.2204724409448819,
                    "duration": 0.12779566666666753
                },
                {
                    "name": "D#2",
                    "midi": 39,
                    "time": 26.837090000000078,
                    "velocity": 0.2440944881889764,
                    "duration": 0.12779566666666753
                },
                {
                    "name": "G#2",
                    "midi": 44,
                    "time": 26.964885666666746,
                    "velocity": 0.2204724409448819,
                    "duration": 0.12779566666666753
                },
                {
                    "name": "D#2",
                    "midi": 39,
                    "time": 27.092681333333413,
                    "velocity": 0.2125984251968504,
                    "duration": 0.12779566666666753
                },
                {
                    "name": "A#2",
                    "midi": 46,
                    "time": 27.22047700000008,
                    "velocity": 0.2204724409448819,
                    "duration": 0.12779566666666753
                },
                {
                    "name": "D#2",
                    "midi": 39,
                    "time": 27.348272666666748,
                    "velocity": 0.1968503937007874,
                    "duration": 0.12779566666666753
                },
                {
                    "name": "A#2",
                    "midi": 46,
                    "time": 27.476068333333416,
                    "velocity": 0.1889763779527559,
                    "duration": 0.12779566666666753
                },
                {
                    "name": "D#1",
                    "midi": 27,
                    "time": 27.603864000000083,
                    "velocity": 0.2440944881889764,
                    "duration": 0.38338699999999903
                }
            ],
            "controlChanges": {
                "7": [
                    {
                        "number": 7,
                        "time": 0,
                        "value": 0.7874015748031497
                    }
                ],
                "10": [
                    {
                        "number": 10,
                        "time": 0,
                        "value": 0.5039370078740157
                    }
                ],
                "64": [
                    {
                        "number": 64,
                        "time": 0.05910549583333334,
                        "value": 1
                    },
                    {
                        "number": 64,
                        "time": 0.7787548437499999,
                        "value": 0
                    },
                    {
                        "number": 64,
                        "time": 0.8402565083333333,
                        "value": 1
                    },
                    {
                        "number": 64,
                        "time": 1.5399377833333332,
                        "value": 0
                    },
                    {
                        "number": 64,
                        "time": 1.6022381708333333,
                        "value": 1
                    },
                    {
                        "number": 64,
                        "time": 2.31230284375,
                        "value": 0
                    },
                    {
                        "number": 64,
                        "time": 2.3921751354166667,
                        "value": 1
                    },
                    {
                        "number": 64,
                        "time": 3.076680675,
                        "value": 0
                    },
                    {
                        "number": 64,
                        "time": 3.1437734,
                        "value": 1
                    },
                    {
                        "number": 64,
                        "time": 3.84585084375,
                        "value": 0
                    },
                    {
                        "number": 64,
                        "time": 3.889780604166667,
                        "value": 1
                    },
                    {
                        "number": 64,
                        "time": 4.608631229166666,
                        "value": 0
                    },
                    {
                        "number": 64,
                        "time": 4.65096354375,
                        "value": 1
                    },
                    {
                        "number": 64,
                        "time": 5.37939884375,
                        "value": 0
                    },
                    {
                        "number": 64,
                        "time": 5.449686460416666,
                        "value": 1
                    },
                    {
                        "number": 64,
                        "time": 6.14617284375,
                        "value": 0
                    },
                    {
                        "number": 64,
                        "time": 6.1781217604166665,
                        "value": 1
                    },
                    {
                        "number": 64,
                        "time": 6.909751952083333,
                        "value": 0
                    },
                    {
                        "number": 64,
                        "time": 6.956876604166666,
                        "value": 1
                    },
                    {
                        "number": 64,
                        "time": 7.6773246749999995,
                        "value": 0
                    },
                    {
                        "number": 64,
                        "time": 7.740423785416666,
                        "value": 1
                    },
                    {
                        "number": 64,
                        "time": 8.44729356666667,
                        "value": 0
                    },
                    {
                        "number": 64,
                        "time": 8.49042460416667,
                        "value": 1
                    },
                    {
                        "number": 64,
                        "time": 9.210872675000006,
                        "value": 0
                    },
                    {
                        "number": 64,
                        "time": 9.306719425000006,
                        "value": 1
                    },
                    {
                        "number": 64,
                        "time": 9.978445397916676,
                        "value": 0
                    },
                    {
                        "number": 64,
                        "time": 10.023972604166676,
                        "value": 1
                    },
                    {
                        "number": 64,
                        "time": 10.742024506250013,
                        "value": 0
                    },
                    {
                        "number": 64,
                        "time": 10.81231212291668,
                        "value": 1
                    },
                    {
                        "number": 64,
                        "time": 11.513590843750018,
                        "value": 0
                    },
                    {
                        "number": 64,
                        "time": 11.557520604166685,
                        "value": 1
                    },
                    {
                        "number": 64,
                        "time": 12.278767397916688,
                        "value": 0
                    },
                    {
                        "number": 64,
                        "time": 12.353048629166688,
                        "value": 1
                    },
                    {
                        "number": 64,
                        "time": 13.047138843750027,
                        "value": 0
                    },
                    {
                        "number": 64,
                        "time": 13.095062218750027,
                        "value": 1
                    },
                    {
                        "number": 64,
                        "time": 13.809919229166697,
                        "value": 0
                    },
                    {
                        "number": 64,
                        "time": 13.86183621875003,
                        "value": 1
                    },
                    {
                        "number": 64,
                        "time": 14.573498337500034,
                        "value": 0
                    },
                    {
                        "number": 64,
                        "time": 14.6461821229167,
                        "value": 1
                    },
                    {
                        "number": 64,
                        "time": 15.34426595208337,
                        "value": 0
                    },
                    {
                        "number": 64,
                        "time": 15.412956122916704,
                        "value": 1
                    },
                    {
                        "number": 64,
                        "time": 16.110241229166707,
                        "value": 0
                    },
                    {
                        "number": 64,
                        "time": 16.175736508333372,
                        "value": 1
                    },
                    {
                        "number": 64,
                        "time": 16.877813952083375,
                        "value": 0
                    },
                    {
                        "number": 64,
                        "time": 16.937718170833374,
                        "value": 1
                    },
                    {
                        "number": 64,
                        "time": 17.645386675000044,
                        "value": 0
                    },
                    {
                        "number": 64,
                        "time": 17.70369344791671,
                        "value": 1
                    },
                    {
                        "number": 64,
                        "time": 18.412959397916712,
                        "value": 0
                    },
                    {
                        "number": 64,
                        "time": 18.476058508333377,
                        "value": 1
                    },
                    {
                        "number": 64,
                        "time": 19.181330843750047,
                        "value": 0
                    },
                    {
                        "number": 64,
                        "time": 19.23324783333338,
                        "value": 1
                    },
                    {
                        "number": 64,
                        "time": 19.944909952083382,
                        "value": 0
                    },
                    {
                        "number": 64,
                        "time": 20.001619279166714,
                        "value": 1
                    },
                    {
                        "number": 64,
                        "time": 20.71248267500005,
                        "value": 0
                    },
                    {
                        "number": 64,
                        "time": 20.77238689375005,
                        "value": 1
                    },
                    {
                        "number": 64,
                        "time": 21.47765922916672,
                        "value": 0
                    },
                    {
                        "number": 64,
                        "time": 21.579097039583385,
                        "value": 1
                    },
                    {
                        "number": 64,
                        "time": 22.24922556666672,
                        "value": 0
                    },
                    {
                        "number": 64,
                        "time": 22.305136170833386,
                        "value": 1
                    },
                    {
                        "number": 64,
                        "time": 23.01200595208339,
                        "value": 0
                    },
                    {
                        "number": 64,
                        "time": 23.09347568958339,
                        "value": 1
                    },
                    {
                        "number": 64,
                        "time": 23.778779952083394,
                        "value": 0
                    },
                    {
                        "number": 64,
                        "time": 23.871431810416727,
                        "value": 1
                    },
                    {
                        "number": 64,
                        "time": 24.5479501208334,
                        "value": 0
                    },
                    {
                        "number": 64,
                        "time": 24.5934773270834,
                        "value": 1
                    },
                    {
                        "number": 64,
                        "time": 25.314724120833404,
                        "value": 0
                    },
                    {
                        "number": 64,
                        "time": 25.41616193125007,
                        "value": 1
                    },
                    {
                        "number": 64,
                        "time": 26.082296843750072,
                        "value": 0
                    },
                    {
                        "number": 64,
                        "time": 26.15498062916674,
                        "value": 1
                    },
                    {
                        "number": 64,
                        "time": 26.84827212083341,
                        "value": 0
                    },
                    {
                        "number": 64,
                        "time": 26.932936750000078,
                        "value": 1
                    },
                    {
                        "number": 64,
                        "time": 27.608656337500083,
                        "value": 0
                    },
                    {
                        "number": 64,
                        "time": 27.859455333333415,
                        "value": 1
                    },
                    {
                        "number": 64,
                        "time": 28.136612185416748,
                        "value": 0
                    }
                ]
            },
            "id": 2,
            "name": "Piano left",
            "instrumentNumber": 0,
            "instrument": "acoustic grand piano",
            "instrumentFamily": "piano",
            "channelNumber": 0,
            "isPercussion": false
        },
        {
            "startTime": 0,
            "duration": 0,
            "length": 0,
            "notes": [],
            "controlChanges": {},
            "id": 3,
            "name": "Chopin: Prelude No.14 in Eb Minor, Op. 28"
        },
        {
            "startTime": 0,
            "duration": 0,
            "length": 0,
            "notes": [],
            "controlChanges": {},
            "id": 4,
            "name": "Copyright  2002 by Bernd Krueger"
        },
        {
            "startTime": 0,
            "duration": 0,
            "length": 0,
            "notes": [],
            "controlChanges": {},
            "id": 5,
            "name": "http://www.piano-midi.de"
        },
        {
            "startTime": 0,
            "duration": 0,
            "length": 0,
            "notes": [],
            "controlChanges": {},
            "id": 6,
            "name": "Edition: 2014-02-21"
        },
        {
            "startTime": 0,
            "duration": 0,
            "length": 0,
            "notes": [],
            "controlChanges": {
                "7": [
                    {
                        "number": 7,
                        "time": 0,
                        "value": 1
                    }
                ],
                "10": [
                    {
                        "number": 10,
                        "time": 0,
                        "value": 0.5039370078740157
                    }
                ]
            },
            "id": 7,
            "name": "Spur 7"
        },
        {
            "startTime": 0,
            "duration": 0,
            "length": 0,
            "notes": [],
            "controlChanges": {
                "7": [
                    {
                        "number": 7,
                        "time": 0,
                        "value": 1
                    }
                ],
                "10": [
                    {
                        "number": 10,
                        "time": 0,
                        "value": 0.5039370078740157
                    }
                ]
            },
            "id": 8,
            "name": "Spur 8"
        }
    ]
}