{
  "header": {
    "PPQ": 480,
    "timeSignature": [
      3,
      4
    ],
    "bpm": 144.7499203875438,
    "name": "Chopin Etude  No. 3, Opus 25"
  },
  "startTime": 0,
  "duration": 90.36274400000015,
  "tracks": [
    {
      "startTime": 0,
      "duration": 0,
      "length": 0,
      "notes": [],
      "controlChanges": {},
      "id": 0,
      "name": "Chopin Etude  No. 3, Opus 25"
    },
    {
      "startTime": 0.829016,
      "duration": 90.36274400000015,
      "length": 923,
      "notes": [
        {
          "name": "C5",
          "midi": 72,
          "time": 0.829016,
          "velocity": 0.48031496062992124,
          "duration": 0.4145079999999999
        },
        {
          "name": "F4",
          "midi": 65,
          "time": 1.2435239999999999,
          "velocity": 0.3937007874015748,
          "duration": 0.20725399999999983
        },
        {
          "name": "D5",
          "midi": 74,
          "time": 1.2435239999999999,
          "velocity": 0.5748031496062992,
          "duration": 0.10362699999999991
        },
        {
          "name": "C5",
          "midi": 72,
          "time": 1.3471509999999998,
          "velocity": 0.4094488188976378,
          "duration": 0.20725399999999983
        },
        {
          "name": "F5",
          "midi": 77,
          "time": 1.4507779999999997,
          "velocity": 0.5039370078740157,
          "duration": 0.10362699999999991
        },
        {
          "name": "C4",
          "midi": 60,
          "time": 1.6580319999999995,
          "velocity": 0.36220472440944884,
          "duration": 0.20725399999999983
        },
        {
          "name": "G4",
          "midi": 67,
          "time": 1.6580319999999995,
          "velocity": 0.5275590551181102,
          "duration": 0.10362699999999991
        },
        {
          "name": "F4",
          "midi": 65,
          "time": 1.7616589999999994,
          "velocity": 0.3700787401574803,
          "duration": 0.20725399999999983
        },
        {
          "name": "C5",
          "midi": 72,
          "time": 1.8652859999999993,
          "velocity": 0.49606299212598426,
          "duration": 0.10362699999999991
        },
        {
          "name": "F4",
          "midi": 65,
          "time": 2.072539999999999,
          "velocity": 0.3779527559055118,
          "duration": 0.20725399999999983
        },
        {
          "name": "D5",
          "midi": 74,
          "time": 2.072539999999999,
          "velocity": 0.5433070866141733,
          "duration": 0.10362699999999991
        },
        {
          "name": "C5",
          "midi": 72,
          "time": 2.176166999999999,
          "velocity": 0.3858267716535433,
          "duration": 0.20725399999999983
        },
        {
          "name": "F5",
          "midi": 77,
          "time": 2.279793999999999,
          "velocity": 0.49606299212598426,
          "duration": 0.10362699999999991
        },
        {
          "name": "G4",
          "midi": 67,
          "time": 2.487047999999999,
          "velocity": 0.3937007874015748,
          "duration": 0.20725399999999983
        },
        {
          "name": "D5",
          "midi": 74,
          "time": 2.487047999999999,
          "velocity": 0.5748031496062992,
          "duration": 0.10362699999999991
        },
        {
          "name": "C5",
          "midi": 72,
          "time": 2.5906749999999987,
          "velocity": 0.4015748031496063,
          "duration": 0.20725399999999983
        },
        {
          "name": "G5",
          "midi": 79,
          "time": 2.6943019999999986,
          "velocity": 0.48031496062992124,
          "duration": 0.10362699999999991
        },
        {
          "name": "C4",
          "midi": 60,
          "time": 2.9015559999999985,
          "velocity": 0.3464566929133858,
          "duration": 0.20725399999999983
        },
        {
          "name": "A4",
          "midi": 69,
          "time": 2.9015559999999985,
          "velocity": 0.5039370078740157,
          "duration": 0.10362699999999991
        },
        {
          "name": "G4",
          "midi": 67,
          "time": 3.0051829999999984,
          "velocity": 0.3700787401574803,
          "duration": 0.20725399999999983
        },
        {
          "name": "C5",
          "midi": 72,
          "time": 3.1088099999999983,
          "velocity": 0.4645669291338583,
          "duration": 0.10362699999999991
        },
        {
          "name": "G4",
          "midi": 67,
          "time": 3.316063999999998,
          "velocity": 0.3779527559055118,
          "duration": 0.20725399999999983
        },
        {
          "name": "D5",
          "midi": 74,
          "time": 3.316063999999998,
          "velocity": 0.5433070866141733,
          "duration": 0.10362699999999991
        },
        {
          "name": "C5",
          "midi": 72,
          "time": 3.419690999999998,
          "velocity": 0.4094488188976378,
          "duration": 0.20725399999999983
        },
        {
          "name": "G5",
          "midi": 79,
          "time": 3.523317999999998,
          "velocity": 0.5196850393700787,
          "duration": 0.10362699999999991
        },
        {
          "name": "A4",
          "midi": 69,
          "time": 3.730571999999998,
          "velocity": 0.4094488188976378,
          "duration": 0.20725399999999983
        },
        {
          "name": "D5",
          "midi": 74,
          "time": 3.730571999999998,
          "velocity": 0.5984251968503937,
          "duration": 0.10362699999999991
        },
        {
          "name": "C5",
          "midi": 72,
          "time": 3.8341989999999977,
          "velocity": 0.41732283464566927,
          "duration": 0.20725400000000027
        },
        {
          "name": "A5",
          "midi": 81,
          "time": 3.9378259999999976,
          "velocity": 0.5118110236220472,
          "duration": 0.10362700000000036
        },
        {
          "name": "F4",
          "midi": 65,
          "time": 4.145079999999998,
          "velocity": 0.3858267716535433,
          "duration": 0.20725400000000072
        },
        {
          "name": "D5",
          "midi": 74,
          "time": 4.145079999999998,
          "velocity": 0.5590551181102362,
          "duration": 0.10362700000000036
        },
        {
          "name": "C5",
          "midi": 72,
          "time": 4.248706999999999,
          "velocity": 0.3858267716535433,
          "duration": 0.20725400000000072
        },
        {
          "name": "F5",
          "midi": 77,
          "time": 4.352333999999999,
          "velocity": 0.49606299212598426,
          "duration": 0.10362700000000036
        },
        {
          "name": "D5",
          "midi": 74,
          "time": 4.559588,
          "velocity": 0.3937007874015748,
          "duration": 0.20725400000000072
        },
        {
          "name": "A5",
          "midi": 81,
          "time": 4.559588,
          "velocity": 0.5669291338582677,
          "duration": 0.10362700000000036
        },
        {
          "name": "G5",
          "midi": 79,
          "time": 4.663215,
          "velocity": 0.4251968503937008,
          "duration": 0.20725400000000072
        },
        {
          "name": "D6",
          "midi": 86,
          "time": 4.7668420000000005,
          "velocity": 0.5196850393700787,
          "duration": 0.10362700000000036
        },
        {
          "name": "G4",
          "midi": 67,
          "time": 4.974096000000001,
          "velocity": 0.4094488188976378,
          "duration": 0.20725400000000072
        },
        {
          "name": "D5",
          "midi": 74,
          "time": 4.974096000000001,
          "velocity": 0.5984251968503937,
          "duration": 0.10362700000000036
        },
        {
          "name": "C5",
          "midi": 72,
          "time": 5.0777230000000015,
          "velocity": 0.44881889763779526,
          "duration": 0.20725400000000072
        },
        {
          "name": "G5",
          "midi": 79,
          "time": 5.181350000000002,
          "velocity": 0.5196850393700787,
          "duration": 0.10362700000000036
        },
        {
          "name": "C5",
          "midi": 72,
          "time": 5.388604000000003,
          "velocity": 0.4015748031496063,
          "duration": 0.20725400000000072
        },
        {
          "name": "A5",
          "midi": 81,
          "time": 5.388604000000003,
          "velocity": 0.5669291338582677,
          "duration": 0.10362700000000036
        },
        {
          "name": "G5",
          "midi": 79,
          "time": 5.492231000000003,
          "velocity": 0.4015748031496063,
          "duration": 0.20725400000000072
        },
        {
          "name": "C6",
          "midi": 84,
          "time": 5.595858000000003,
          "velocity": 0.5039370078740157,
          "duration": 0.10362700000000036
        },
        {
          "name": "C6",
          "midi": 84,
          "time": 5.803112000000004,
          "velocity": 0.4015748031496063,
          "duration": 0.20725400000000072
        },
        {
          "name": "A6",
          "midi": 93,
          "time": 5.803112000000004,
          "velocity": 0.5905511811023622,
          "duration": 0.10362700000000036
        },
        {
          "name": "G6",
          "midi": 91,
          "time": 5.906739000000004,
          "velocity": 0.41732283464566927,
          "duration": 0.20725400000000072
        },
        {
          "name": "C7",
          "midi": 96,
          "time": 6.010366000000005,
          "velocity": 0.5433070866141733,
          "duration": 0.10362700000000036
        },
        {
          "name": "F4",
          "midi": 65,
          "time": 6.2176200000000055,
          "velocity": 0.3937007874015748,
          "duration": 0.20725400000000072
        },
        {
          "name": "D5",
          "midi": 74,
          "time": 6.2176200000000055,
          "velocity": 0.5748031496062992,
          "duration": 0.10362700000000036
        },
        {
          "name": "C5",
          "midi": 72,
          "time": 6.321247000000006,
          "velocity": 0.4015748031496063,
          "duration": 0.20725400000000072
        },
        {
          "name": "F5",
          "midi": 77,
          "time": 6.424874000000006,
          "velocity": 0.5433070866141733,
          "duration": 0.10362700000000036
        },
        {
          "name": "C4",
          "midi": 60,
          "time": 6.632128000000007,
          "velocity": 0.36220472440944884,
          "duration": 0.20725400000000072
        },
        {
          "name": "G4",
          "midi": 67,
          "time": 6.632128000000007,
          "velocity": 0.5275590551181102,
          "duration": 0.10362700000000036
        },
        {
          "name": "F4",
          "midi": 65,
          "time": 6.735755000000007,
          "velocity": 0.3700787401574803,
          "duration": 0.20725400000000072
        },
        {
          "name": "C5",
          "midi": 72,
          "time": 6.839382000000008,
          "velocity": 0.5118110236220472,
          "duration": 0.10362700000000036
        },
        {
          "name": "F4",
          "midi": 65,
          "time": 7.046636000000008,
          "velocity": 0.3779527559055118,
          "duration": 0.20725400000000072
        },
        {
          "name": "D5",
          "midi": 74,
          "time": 7.046636000000008,
          "velocity": 0.5433070866141733,
          "duration": 0.10362700000000036
        },
        {
          "name": "C5",
          "midi": 72,
          "time": 7.150263000000009,
          "velocity": 0.41732283464566927,
          "duration": 0.20725400000000072
        },
        {
          "name": "F5",
          "midi": 77,
          "time": 7.253890000000009,
          "velocity": 0.5275590551181102,
          "duration": 0.10362700000000036
        },
        {
          "name": "G4",
          "midi": 67,
          "time": 7.46114400000001,
          "velocity": 0.3937007874015748,
          "duration": 0.20725400000000072
        },
        {
          "name": "D5",
          "midi": 74,
          "time": 7.46114400000001,
          "velocity": 0.5748031496062992,
          "duration": 0.10362700000000036
        },
        {
          "name": "C5",
          "midi": 72,
          "time": 7.56477100000001,
          "velocity": 0.4015748031496063,
          "duration": 0.20725400000000072
        },
        {
          "name": "G5",
          "midi": 79,
          "time": 7.6683980000000105,
          "velocity": 0.5118110236220472,
          "duration": 0.10362700000000036
        },
        {
          "name": "C4",
          "midi": 60,
          "time": 7.875652000000011,
          "velocity": 0.31496062992125984,
          "duration": 0.20725400000000072
        },
        {
          "name": "A4",
          "midi": 69,
          "time": 7.875652000000011,
          "velocity": 0.5039370078740157,
          "duration": 0.10362700000000036
        },
        {
          "name": "G4",
          "midi": 67,
          "time": 7.979279000000012,
          "velocity": 0.3700787401574803,
          "duration": 0.20725399999999983
        },
        {
          "name": "C5",
          "midi": 72,
          "time": 8.082906000000012,
          "velocity": 0.49606299212598426,
          "duration": 0.10362699999999947
        },
        {
          "name": "G4",
          "midi": 67,
          "time": 8.29016000000001,
          "velocity": 0.3779527559055118,
          "duration": 0.20725399999999894
        },
        {
          "name": "D5",
          "midi": 74,
          "time": 8.29016000000001,
          "velocity": 0.5433070866141733,
          "duration": 0.10362699999999947
        },
        {
          "name": "C5",
          "midi": 72,
          "time": 8.39378700000001,
          "velocity": 0.3858267716535433,
          "duration": 0.20725399999999894
        },
        {
          "name": "G5",
          "midi": 79,
          "time": 8.49741400000001,
          "velocity": 0.5196850393700787,
          "duration": 0.10362699999999947
        },
        {
          "name": "A4",
          "midi": 69,
          "time": 8.704668000000009,
          "velocity": 0.4094488188976378,
          "duration": 0.20725399999999894
        },
        {
          "name": "D5",
          "midi": 74,
          "time": 8.704668000000009,
          "velocity": 0.5984251968503937,
          "duration": 0.10362699999999947
        },
        {
          "name": "C5",
          "midi": 72,
          "time": 8.808295000000008,
          "velocity": 0.41732283464566927,
          "duration": 0.20725399999999894
        },
        {
          "name": "A5",
          "midi": 81,
          "time": 8.911922000000008,
          "velocity": 0.5511811023622047,
          "duration": 0.10362699999999947
        },
        {
          "name": "A4",
          "midi": 69,
          "time": 9.119176000000007,
          "velocity": 0.3858267716535433,
          "duration": 0.20725399999999894
        },
        {
          "name": "E5",
          "midi": 76,
          "time": 9.119176000000007,
          "velocity": 0.5590551181102362,
          "duration": 0.10362699999999947
        },
        {
          "name": "D5",
          "midi": 74,
          "time": 9.222803000000006,
          "velocity": 0.3858267716535433,
          "duration": 0.20725399999999894
        },
        {
          "name": "A5",
          "midi": 81,
          "time": 9.326430000000006,
          "velocity": 0.5196850393700787,
          "duration": 0.10362699999999947
        },
        {
          "name": "G4",
          "midi": 67,
          "time": 9.533684000000004,
          "velocity": 0.3937007874015748,
          "duration": 0.20725399999999894
        },
        {
          "name": "D5",
          "midi": 74,
          "time": 9.533684000000004,
          "velocity": 0.5669291338582677,
          "duration": 0.10362699999999947
        },
        {
          "name": "C5",
          "midi": 72,
          "time": 9.637311000000004,
          "velocity": 0.41732283464566927,
          "duration": 0.20725399999999894
        },
        {
          "name": "G5",
          "midi": 79,
          "time": 9.740938000000003,
          "velocity": 0.5118110236220472,
          "duration": 0.10362699999999947
        },
        {
          "name": "F4",
          "midi": 65,
          "time": 9.948192000000002,
          "velocity": 0.4251968503937008,
          "duration": 0.20725399999999894
        },
        {
          "name": "D5",
          "midi": 74,
          "time": 9.948192000000002,
          "velocity": 0.6299212598425197,
          "duration": 0.10362699999999947
        },
        {
          "name": "C5",
          "midi": 72,
          "time": 10.051819000000002,
          "velocity": 0.44881889763779526,
          "duration": 0.20725399999999894
        },
        {
          "name": "F5",
          "midi": 77,
          "time": 10.155446000000001,
          "velocity": 0.5590551181102362,
          "duration": 0.10362699999999947
        },
        {
          "name": "F5",
          "midi": 77,
          "time": 10.3627,
          "velocity": 0.4015748031496063,
          "duration": 0.20725399999999894
        },
        {
          "name": "D6",
          "midi": 86,
          "time": 10.3627,
          "velocity": 0.5669291338582677,
          "duration": 0.10362699999999947
        },
        {
          "name": "C6",
          "midi": 84,
          "time": 10.466327,
          "velocity": 0.4015748031496063,
          "duration": 0.20725399999999894
        },
        {
          "name": "F6",
          "midi": 89,
          "time": 10.569954,
          "velocity": 0.5118110236220472,
          "duration": 0.10362699999999947
        },
        {
          "name": "F6",
          "midi": 89,
          "time": 10.777207999999998,
          "velocity": 0.4015748031496063,
          "duration": 0.20725399999999894
        },
        {
          "name": "D7",
          "midi": 98,
          "time": 10.777207999999998,
          "velocity": 0.5905511811023622,
          "duration": 0.10362699999999947
        },
        {
          "name": "C7",
          "midi": 96,
          "time": 10.880834999999998,
          "velocity": 0.4566929133858268,
          "duration": 0.20725399999999894
        },
        {
          "name": "F7",
          "midi": 101,
          "time": 10.984461999999997,
          "velocity": 0.5590551181102362,
          "duration": 0.10362699999999947
        },
        {
          "name": "F4",
          "midi": 65,
          "time": 11.191715999999996,
          "velocity": 0.3937007874015748,
          "duration": 0.20725399999999894
        },
        {
          "name": "D5",
          "midi": 74,
          "time": 11.191715999999996,
          "velocity": 0.5748031496062992,
          "duration": 0.051813499999999735
        },
        {
          "name": "C5",
          "midi": 72,
          "time": 11.243529499999996,
          "velocity": 0.4566929133858268,
          "duration": 0.051813499999999735
        },
        {
          "name": "D5",
          "midi": 74,
          "time": 11.295342999999995,
          "velocity": 0.49606299212598426,
          "duration": 0.051813499999999735
        },
        {
          "name": "C5",
          "midi": 72,
          "time": 11.347156499999995,
          "velocity": 0.4094488188976378,
          "duration": 0.1554404999999992
        },
        {
          "name": "F5",
          "midi": 77,
          "time": 11.398969999999995,
          "velocity": 0.5275590551181102,
          "duration": 0.10362699999999947
        },
        {
          "name": "C4",
          "midi": 60,
          "time": 11.606223999999994,
          "velocity": 0.36220472440944884,
          "duration": 0.20725399999999894
        },
        {
          "name": "G4",
          "midi": 67,
          "time": 11.606223999999994,
          "velocity": 0.5275590551181102,
          "duration": 0.051813499999999735
        },
        {
          "name": "F4",
          "midi": 65,
          "time": 11.658037499999994,
          "velocity": 0.41732283464566927,
          "duration": 0.051813499999999735
        },
        {
          "name": "G4",
          "midi": 67,
          "time": 11.709850999999993,
          "velocity": 0.44881889763779526,
          "duration": 0.051813499999999735
        },
        {
          "name": "F4",
          "midi": 65,
          "time": 11.761664499999993,
          "velocity": 0.3700787401574803,
          "duration": 0.1554404999999992
        },
        {
          "name": "C5",
          "midi": 72,
          "time": 11.813477999999993,
          "velocity": 0.5196850393700787,
          "duration": 0.10362699999999947
        },
        {
          "name": "F4",
          "midi": 65,
          "time": 12.020731999999992,
          "velocity": 0.3779527559055118,
          "duration": 0.20725399999999894
        },
        {
          "name": "D5",
          "midi": 74,
          "time": 12.020731999999992,
          "velocity": 0.5433070866141733,
          "duration": 0.051813499999999735
        },
        {
          "name": "C5",
          "midi": 72,
          "time": 12.072545499999991,
          "velocity": 0.4330708661417323,
          "duration": 0.051813499999999735
        },
        {
          "name": "D5",
          "midi": 74,
          "time": 12.124358999999991,
          "velocity": 0.4645669291338583,
          "duration": 0.051813499999999735
        },
        {
          "name": "C5",
          "midi": 72,
          "time": 12.176172499999991,
          "velocity": 0.3858267716535433,
          "duration": 0.1554404999999992
        },
        {
          "name": "F5",
          "midi": 77,
          "time": 12.22798599999999,
          "velocity": 0.5196850393700787,
          "duration": 0.10362699999999947
        },
        {
          "name": "G4",
          "midi": 67,
          "time": 12.43523999999999,
          "velocity": 0.3937007874015748,
          "duration": 0.20725399999999894
        },
        {
          "name": "D5",
          "midi": 74,
          "time": 12.43523999999999,
          "velocity": 0.5748031496062992,
          "duration": 0.051813499999999735
        },
        {
          "name": "C5",
          "midi": 72,
          "time": 12.48705349999999,
          "velocity": 0.44881889763779526,
          "duration": 0.051813499999999735
        },
        {
          "name": "D5",
          "midi": 74,
          "time": 12.538866999999989,
          "velocity": 0.49606299212598426,
          "duration": 0.051813499999999735
        },
        {
          "name": "C5",
          "midi": 72,
          "time": 12.590680499999989,
          "velocity": 0.4015748031496063,
          "duration": 0.1554404999999992
        },
        {
          "name": "G5",
          "midi": 79,
          "time": 12.642493999999989,
          "velocity": 0.5196850393700787,
          "duration": 0.10362699999999947
        },
        {
          "name": "C4",
          "midi": 60,
          "time": 12.849747999999988,
          "velocity": 0.31496062992125984,
          "duration": 0.20725399999999894
        },
        {
          "name": "A4",
          "midi": 69,
          "time": 12.849747999999988,
          "velocity": 0.5039370078740157,
          "duration": 0.051813499999999735
        },
        {
          "name": "G4",
          "midi": 67,
          "time": 12.901561499999987,
          "velocity": 0.41732283464566927,
          "duration": 0.051813499999999735
        },
        {
          "name": "A4",
          "midi": 69,
          "time": 12.953374999999987,
          "velocity": 0.44881889763779526,
          "duration": 0.051813499999999735
        },
        {
          "name": "G4",
          "midi": 67,
          "time": 13.005188499999987,
          "velocity": 0.44881889763779526,
          "duration": 0.1554404999999992
        },
        {
          "name": "C5",
          "midi": 72,
          "time": 13.057001999999986,
          "velocity": 0.5039370078740157,
          "duration": 0.10362699999999947
        },
        {
          "name": "G4",
          "midi": 67,
          "time": 13.264255999999985,
          "velocity": 0.3779527559055118,
          "duration": 0.20725399999999894
        },
        {
          "name": "D5",
          "midi": 74,
          "time": 13.264255999999985,
          "velocity": 0.5433070866141733,
          "duration": 0.051813499999999735
        },
        {
          "name": "C5",
          "midi": 72,
          "time": 13.316069499999985,
          "velocity": 0.4645669291338583,
          "duration": 0.051813499999999735
        },
        {
          "name": "D5",
          "midi": 74,
          "time": 13.367882999999985,
          "velocity": 0.48031496062992124,
          "duration": 0.051813499999999735
        },
        {
          "name": "C5",
          "midi": 72,
          "time": 13.419696499999985,
          "velocity": 0.4094488188976378,
          "duration": 0.1554404999999992
        },
        {
          "name": "G5",
          "midi": 79,
          "time": 13.471509999999984,
          "velocity": 0.5118110236220472,
          "duration": 0.10362699999999947
        },
        {
          "name": "A4",
          "midi": 69,
          "time": 13.678763999999983,
          "velocity": 0.4094488188976378,
          "duration": 0.20725399999999894
        },
        {
          "name": "D5",
          "midi": 74,
          "time": 13.678763999999983,
          "velocity": 0.5984251968503937,
          "duration": 0.051813499999999735
        },
        {
          "name": "C5",
          "midi": 72,
          "time": 13.730577499999983,
          "velocity": 0.44881889763779526,
          "duration": 0.051813499999999735
        },
        {
          "name": "D5",
          "midi": 74,
          "time": 13.782390999999983,
          "velocity": 0.5039370078740157,
          "duration": 0.051813499999999735
        },
        {
          "name": "C5",
          "midi": 72,
          "time": 13.834204499999982,
          "velocity": 0.41732283464566927,
          "duration": 0.1554404999999992
        },
        {
          "name": "A5",
          "midi": 81,
          "time": 13.886017999999982,
          "velocity": 0.5196850393700787,
          "duration": 0.10362699999999947
        },
        {
          "name": "F4",
          "midi": 65,
          "time": 14.093271999999981,
          "velocity": 0.3858267716535433,
          "duration": 0.20725399999999894
        },
        {
          "name": "D5",
          "midi": 74,
          "time": 14.093271999999981,
          "velocity": 0.5590551181102362,
          "duration": 0.051813499999999735
        },
        {
          "name": "C5",
          "midi": 72,
          "time": 14.14508549999998,
          "velocity": 0.44881889763779526,
          "duration": 0.051813499999999735
        },
        {
          "name": "D5",
          "midi": 74,
          "time": 14.19689899999998,
          "velocity": 0.49606299212598426,
          "duration": 0.051813499999999735
        },
        {
          "name": "C5",
          "midi": 72,
          "time": 14.24871249999998,
          "velocity": 0.3858267716535433,
          "duration": 0.1554404999999992
        },
        {
          "name": "F5",
          "midi": 77,
          "time": 14.30052599999998,
          "velocity": 0.5275590551181102,
          "duration": 0.10362699999999947
        },
        {
          "name": "D5",
          "midi": 74,
          "time": 14.507779999999979,
          "velocity": 0.3937007874015748,
          "duration": 0.20725399999999894
        },
        {
          "name": "A5",
          "midi": 81,
          "time": 14.507779999999979,
          "velocity": 0.5669291338582677,
          "duration": 0.051813499999999735
        },
        {
          "name": "G5",
          "midi": 79,
          "time": 14.559593499999979,
          "velocity": 0.4566929133858268,
          "duration": 0.051813499999999735
        },
        {
          "name": "A5",
          "midi": 81,
          "time": 14.611406999999978,
          "velocity": 0.5039370078740157,
          "duration": 0.051813499999999735
        },
        {
          "name": "G5",
          "midi": 79,
          "time": 14.663220499999978,
          "velocity": 0.4251968503937008,
          "duration": 0.1554404999999992
        },
        {
          "name": "D6",
          "midi": 86,
          "time": 14.715033999999978,
          "velocity": 0.5590551181102362,
          "duration": 0.10362699999999947
        },
        {
          "name": "G4",
          "midi": 67,
          "time": 14.922287999999977,
          "velocity": 0.4094488188976378,
          "duration": 0.20725399999999894
        },
        {
          "name": "D5",
          "midi": 74,
          "time": 14.922287999999977,
          "velocity": 0.5984251968503937,
          "duration": 0.051813499999999735
        },
        {
          "name": "C5",
          "midi": 72,
          "time": 14.974101499999977,
          "velocity": 0.44881889763779526,
          "duration": 0.051813499999999735
        },
        {
          "name": "D5",
          "midi": 74,
          "time": 15.025914999999976,
          "velocity": 0.5118110236220472,
          "duration": 0.051813499999999735
        },
        {
          "name": "C5",
          "midi": 72,
          "time": 15.077728499999976,
          "velocity": 0.44881889763779526,
          "duration": 0.1554404999999992
        },
        {
          "name": "G5",
          "midi": 79,
          "time": 15.129541999999976,
          "velocity": 0.5511811023622047,
          "duration": 0.10362699999999947
        },
        {
          "name": "C5",
          "midi": 72,
          "time": 15.336795999999975,
          "velocity": 0.4015748031496063,
          "duration": 0.20725399999999894
        },
        {
          "name": "A5",
          "midi": 81,
          "time": 15.336795999999975,
          "velocity": 0.5669291338582677,
          "duration": 0.051813499999999735
        },
        {
          "name": "G5",
          "midi": 79,
          "time": 15.388609499999975,
          "velocity": 0.4330708661417323,
          "duration": 0.051813499999999735
        },
        {
          "name": "A5",
          "midi": 81,
          "time": 15.440422999999974,
          "velocity": 0.48031496062992124,
          "duration": 0.051813499999999735
        },
        {
          "name": "G5",
          "midi": 79,
          "time": 15.492236499999974,
          "velocity": 0.4015748031496063,
          "duration": 0.1554404999999992
        },
        {
          "name": "C6",
          "midi": 84,
          "time": 15.544049999999974,
          "velocity": 0.5039370078740157,
          "duration": 0.10362699999999947
        },
        {
          "name": "C6",
          "midi": 84,
          "time": 15.751303999999973,
          "velocity": 0.4015748031496063,
          "duration": 0.20725399999999894
        },
        {
          "name": "A6",
          "midi": 93,
          "time": 15.751303999999973,
          "velocity": 0.5905511811023622,
          "duration": 0.051813499999999735
        },
        {
          "name": "G6",
          "midi": 91,
          "time": 15.803117499999972,
          "velocity": 0.4645669291338583,
          "duration": 0.051813499999999735
        },
        {
          "name": "A6",
          "midi": 93,
          "time": 15.854930999999972,
          "velocity": 0.49606299212598426,
          "duration": 0.051813499999999735
        },
        {
          "name": "G6",
          "midi": 91,
          "time": 15.906744499999972,
          "velocity": 0.41732283464566927,
          "duration": 0.1554404999999992
        },
        {
          "name": "C7",
          "midi": 96,
          "time": 15.958557999999972,
          "velocity": 0.5669291338582677,
          "duration": 0.10362699999999947
        },
        {
          "name": "F4",
          "midi": 65,
          "time": 16.16581199999997,
          "velocity": 0.3937007874015748,
          "duration": 0.20725400000000604
        },
        {
          "name": "D5",
          "midi": 74,
          "time": 16.16581199999997,
          "velocity": 0.5748031496062992,
          "duration": 0.05181350000000151
        },
        {
          "name": "C5",
          "midi": 72,
          "time": 16.217625499999972,
          "velocity": 0.41732283464566927,
          "duration": 0.05181350000000151
        },
        {
          "name": "D5",
          "midi": 74,
          "time": 16.269438999999974,
          "velocity": 0.48031496062992124,
          "duration": 0.05181350000000151
        },
        {
          "name": "C5",
          "midi": 72,
          "time": 16.321252499999975,
          "velocity": 0.4015748031496063,
          "duration": 0.15544050000000098
        },
        {
          "name": "F5",
          "midi": 77,
          "time": 16.373065999999977,
          "velocity": 0.5433070866141733,
          "duration": 0.10362699999999947
        },
        {
          "name": "C4",
          "midi": 60,
          "time": 16.580319999999976,
          "velocity": 0.36220472440944884,
          "duration": 0.20725400000000604
        },
        {
          "name": "G4",
          "midi": 67,
          "time": 16.580319999999976,
          "velocity": 0.5275590551181102,
          "duration": 0.05181350000000151
        },
        {
          "name": "F4",
          "midi": 65,
          "time": 16.632133499999977,
          "velocity": 0.4015748031496063,
          "duration": 0.05181350000000151
        },
        {
          "name": "G4",
          "midi": 67,
          "time": 16.68394699999998,
          "velocity": 0.4645669291338583,
          "duration": 0.05181350000000151
        },
        {
          "name": "F4",
          "midi": 65,
          "time": 16.73576049999998,
          "velocity": 0.3700787401574803,
          "duration": 0.15544050000000098
        },
        {
          "name": "C5",
          "midi": 72,
          "time": 16.78757399999998,
          "velocity": 0.5118110236220472,
          "duration": 0.10362699999999947
        },
        {
          "name": "F4",
          "midi": 65,
          "time": 16.99482799999998,
          "velocity": 0.3779527559055118,
          "duration": 0.20725400000000604
        },
        {
          "name": "D5",
          "midi": 74,
          "time": 16.99482799999998,
          "velocity": 0.5433070866141733,
          "duration": 0.05181350000000151
        },
        {
          "name": "C5",
          "midi": 72,
          "time": 17.046641499999982,
          "velocity": 0.4251968503937008,
          "duration": 0.05181350000000151
        },
        {
          "name": "D5",
          "midi": 74,
          "time": 17.098454999999984,
          "velocity": 0.48031496062992124,
          "duration": 0.05181350000000151
        },
        {
          "name": "C5",
          "midi": 72,
          "time": 17.150268499999985,
          "velocity": 0.41732283464566927,
          "duration": 0.15544050000000098
        },
        {
          "name": "F5",
          "midi": 77,
          "time": 17.202081999999987,
          "velocity": 0.5275590551181102,
          "duration": 0.10362699999999947
        },
        {
          "name": "G4",
          "midi": 67,
          "time": 17.409335999999985,
          "velocity": 0.3937007874015748,
          "duration": 0.20725400000000604
        },
        {
          "name": "D5",
          "midi": 74,
          "time": 17.409335999999985,
          "velocity": 0.5748031496062992,
          "duration": 0.05181350000000151
        },
        {
          "name": "C5",
          "midi": 72,
          "time": 17.461149499999987,
          "velocity": 0.4566929133858268,
          "duration": 0.05181350000000151
        },
        {
          "name": "D5",
          "midi": 74,
          "time": 17.51296299999999,
          "velocity": 0.5118110236220472,
          "duration": 0.05181350000000151
        },
        {
          "name": "C5",
          "midi": 72,
          "time": 17.56477649999999,
          "velocity": 0.4015748031496063,
          "duration": 0.15544050000000098
        },
        {
          "name": "G5",
          "midi": 79,
          "time": 17.61658999999999,
          "velocity": 0.5118110236220472,
          "duration": 0.10362699999999947
        },
        {
          "name": "C4",
          "midi": 60,
          "time": 17.82384399999999,
          "velocity": 0.31496062992125984,
          "duration": 0.20725400000000604
        },
        {
          "name": "A4",
          "midi": 69,
          "time": 17.82384399999999,
          "velocity": 0.5039370078740157,
          "duration": 0.05181350000000151
        },
        {
          "name": "G4",
          "midi": 67,
          "time": 17.875657499999992,
          "velocity": 0.4015748031496063,
          "duration": 0.05181350000000151
        },
        {
          "name": "A4",
          "midi": 69,
          "time": 17.927470999999993,
          "velocity": 0.44881889763779526,
          "duration": 0.05181350000000151
        },
        {
          "name": "G4",
          "midi": 67,
          "time": 17.979284499999995,
          "velocity": 0.3700787401574803,
          "duration": 0.15544050000000098
        },
        {
          "name": "C5",
          "midi": 72,
          "time": 18.031097999999997,
          "velocity": 0.49606299212598426,
          "duration": 0.10362699999999947
        },
        {
          "name": "G4",
          "midi": 67,
          "time": 18.238351999999995,
          "velocity": 0.3779527559055118,
          "duration": 0.20725400000000604
        },
        {
          "name": "D5",
          "midi": 74,
          "time": 18.238351999999995,
          "velocity": 0.5433070866141733,
          "duration": 0.05181350000000151
        },
        {
          "name": "C5",
          "midi": 72,
          "time": 18.290165499999997,
          "velocity": 0.4251968503937008,
          "duration": 0.05181350000000151
        },
        {
          "name": "D5",
          "midi": 74,
          "time": 18.341979,
          "velocity": 0.48031496062992124,
          "duration": 0.05181350000000151
        },
        {
          "name": "C5",
          "midi": 72,
          "time": 18.3937925,
          "velocity": 0.3858267716535433,
          "duration": 0.15544050000000098
        },
        {
          "name": "G5",
          "midi": 79,
          "time": 18.445606,
          "velocity": 0.5196850393700787,
          "duration": 0.10362699999999947
        },
        {
          "name": "A4",
          "midi": 69,
          "time": 18.65286,
          "velocity": 0.4094488188976378,
          "duration": 0.20725400000000604
        },
        {
          "name": "D5",
          "midi": 74,
          "time": 18.65286,
          "velocity": 0.5984251968503937,
          "duration": 0.05181350000000151
        },
        {
          "name": "C5",
          "midi": 72,
          "time": 18.704673500000002,
          "velocity": 0.4645669291338583,
          "duration": 0.05181350000000151
        },
        {
          "name": "D5",
          "midi": 74,
          "time": 18.756487000000003,
          "velocity": 0.5275590551181102,
          "duration": 0.05181350000000151
        },
        {
          "name": "C5",
          "midi": 72,
          "time": 18.808300500000005,
          "velocity": 0.41732283464566927,
          "duration": 0.15544050000000098
        },
        {
          "name": "A5",
          "midi": 81,
          "time": 18.860114000000006,
          "velocity": 0.5511811023622047,
          "duration": 0.10362699999999947
        },
        {
          "name": "A4",
          "midi": 69,
          "time": 19.067368000000005,
          "velocity": 0.3858267716535433,
          "duration": 0.20725400000000604
        },
        {
          "name": "E5",
          "midi": 76,
          "time": 19.067368000000005,
          "velocity": 0.5590551181102362,
          "duration": 0.05181350000000151
        },
        {
          "name": "D5",
          "midi": 74,
          "time": 19.119181500000007,
          "velocity": 0.4566929133858268,
          "duration": 0.05181350000000151
        },
        {
          "name": "E5",
          "midi": 76,
          "time": 19.17099500000001,
          "velocity": 0.5118110236220472,
          "duration": 0.05181350000000151
        },
        {
          "name": "D5",
          "midi": 74,
          "time": 19.22280850000001,
          "velocity": 0.3858267716535433,
          "duration": 0.15544050000000098
        },
        {
          "name": "A5",
          "midi": 81,
          "time": 19.27462200000001,
          "velocity": 0.5196850393700787,
          "duration": 0.10362699999999947
        },
        {
          "name": "G4",
          "midi": 67,
          "time": 19.48187600000001,
          "velocity": 0.3937007874015748,
          "duration": 0.20725400000000604
        },
        {
          "name": "D5",
          "midi": 74,
          "time": 19.48187600000001,
          "velocity": 0.5669291338582677,
          "duration": 0.05181350000000151
        },
        {
          "name": "C5",
          "midi": 72,
          "time": 19.533689500000012,
          "velocity": 0.4566929133858268,
          "duration": 0.05181350000000151
        },
        {
          "name": "D5",
          "midi": 74,
          "time": 19.585503000000013,
          "velocity": 0.5039370078740157,
          "duration": 0.05181350000000151
        },
        {
          "name": "C5",
          "midi": 72,
          "time": 19.637316500000015,
          "velocity": 0.41732283464566927,
          "duration": 0.15544050000000098
        },
        {
          "name": "G5",
          "midi": 79,
          "time": 19.689130000000016,
          "velocity": 0.5118110236220472,
          "duration": 0.10362699999999947
        },
        {
          "name": "F4",
          "midi": 65,
          "time": 19.896384000000015,
          "velocity": 0.4251968503937008,
          "duration": 0.20725400000000604
        },
        {
          "name": "D5",
          "midi": 74,
          "time": 19.896384000000015,
          "velocity": 0.6299212598425197,
          "duration": 0.05181350000000151
        },
        {
          "name": "C5",
          "midi": 72,
          "time": 19.948197500000017,
          "velocity": 0.4645669291338583,
          "duration": 0.05181350000000151
        },
        {
          "name": "D5",
          "midi": 74,
          "time": 20.00001100000002,
          "velocity": 0.5196850393700787,
          "duration": 0.05181350000000151
        },
        {
          "name": "C5",
          "midi": 72,
          "time": 20.05182450000002,
          "velocity": 0.44881889763779526,
          "duration": 0.15544050000000098
        },
        {
          "name": "F5",
          "midi": 77,
          "time": 20.10363800000002,
          "velocity": 0.5590551181102362,
          "duration": 0.10362699999999947
        },
        {
          "name": "F5",
          "midi": 77,
          "time": 20.31089200000002,
          "velocity": 0.4015748031496063,
          "duration": 0.20725400000000604
        },
        {
          "name": "D6",
          "midi": 86,
          "time": 20.31089200000002,
          "velocity": 0.5669291338582677,
          "duration": 0.05181350000000151
        },
        {
          "name": "C6",
          "midi": 84,
          "time": 20.362705500000022,
          "velocity": 0.4330708661417323,
          "duration": 0.05181350000000151
        },
        {
          "name": "D6",
          "midi": 86,
          "time": 20.414519000000023,
          "velocity": 0.48031496062992124,
          "duration": 0.05181350000000151
        },
        {
          "name": "C6",
          "midi": 84,
          "time": 20.466332500000025,
          "velocity": 0.4015748031496063,
          "duration": 0.15544050000000098
        },
        {
          "name": "F6",
          "midi": 89,
          "time": 20.518146000000026,
          "velocity": 0.5118110236220472,
          "duration": 0.10362699999999947
        },
        {
          "name": "F6",
          "midi": 89,
          "time": 20.725400000000025,
          "velocity": 0.4015748031496063,
          "duration": 0.20725400000000604
        },
        {
          "name": "D7",
          "midi": 98,
          "time": 20.725400000000025,
          "velocity": 0.5905511811023622,
          "duration": 0.05181350000000151
        },
        {
          "name": "C7",
          "midi": 96,
          "time": 20.777213500000027,
          "velocity": 0.47244094488188976,
          "duration": 0.05181350000000151
        },
        {
          "name": "D7",
          "midi": 98,
          "time": 20.82902700000003,
          "velocity": 0.5196850393700787,
          "duration": 0.05181350000000151
        },
        {
          "name": "C7",
          "midi": 96,
          "time": 20.88084050000003,
          "velocity": 0.4566929133858268,
          "duration": 0.15544050000000098
        },
        {
          "name": "F7",
          "midi": 101,
          "time": 20.93265400000003,
          "velocity": 0.5590551181102362,
          "duration": 0.10362699999999947
        },
        {
          "name": "G4",
          "midi": 67,
          "time": 21.13990800000003,
          "velocity": 0.30708661417322836,
          "duration": 0.20725399999999894
        },
        {
          "name": "D5",
          "midi": 74,
          "time": 21.13990800000003,
          "velocity": 0.4566929133858268,
          "duration": 0.10362699999999947
        },
        {
          "name": "C5",
          "midi": 72,
          "time": 21.24353500000003,
          "velocity": 0.3700787401574803,
          "duration": 0.3108809999999984
        },
        {
          "name": "G5",
          "midi": 79,
          "time": 21.34716200000003,
          "velocity": 0.5118110236220472,
          "duration": 0.20725399999999894
        },
        {
          "name": "G4",
          "midi": 67,
          "time": 21.554416000000028,
          "velocity": 0.29133858267716534,
          "duration": 0.20725399999999894
        },
        {
          "name": "D5",
          "midi": 74,
          "time": 21.554416000000028,
          "velocity": 0.4409448818897638,
          "duration": 0.10362699999999947
        },
        {
          "name": "C5",
          "midi": 72,
          "time": 21.658043000000028,
          "velocity": 0.3464566929133858,
          "duration": 0.3108809999999984
        },
        {
          "name": "G5",
          "midi": 79,
          "time": 21.761670000000027,
          "velocity": 0.5196850393700787,
          "duration": 0.20725399999999894
        },
        {
          "name": "A4",
          "midi": 69,
          "time": 21.968924000000026,
          "velocity": 0.2992125984251969,
          "duration": 0.20725399999999894
        },
        {
          "name": "D5",
          "midi": 74,
          "time": 21.968924000000026,
          "velocity": 0.4566929133858268,
          "duration": 0.10362699999999947
        },
        {
          "name": "C5",
          "midi": 72,
          "time": 22.072551000000026,
          "velocity": 0.3700787401574803,
          "duration": 0.3108809999999984
        },
        {
          "name": "A5",
          "midi": 81,
          "time": 22.176178000000025,
          "velocity": 0.5511811023622047,
          "duration": 0.20725399999999894
        },
        {
          "name": "F4",
          "midi": 65,
          "time": 22.383432000000024,
          "velocity": 0.33070866141732286,
          "duration": 0.20725399999999894
        },
        {
          "name": "C5",
          "midi": 72,
          "time": 22.383432000000024,
          "velocity": 0.48031496062992124,
          "duration": 0.10362699999999947
        },
        {
          "name": "A#4",
          "midi": 70,
          "time": 22.487059000000023,
          "velocity": 0.3700787401574803,
          "duration": 0.3108809999999984
        },
        {
          "name": "A#5",
          "midi": 82,
          "time": 22.590686000000023,
          "velocity": 0.5039370078740157,
          "duration": 0.20725399999999894
        },
        {
          "name": "F4",
          "midi": 65,
          "time": 22.797940000000022,
          "velocity": 0.2677165354330709,
          "duration": 0.20725399999999894
        },
        {
          "name": "C5",
          "midi": 72,
          "time": 22.797940000000022,
          "velocity": 0.4094488188976378,
          "duration": 0.10362699999999947
        },
        {
          "name": "A#4",
          "midi": 70,
          "time": 22.90156700000002,
          "velocity": 0.3464566929133858,
          "duration": 0.3108809999999984
        },
        {
          "name": "F5",
          "midi": 77,
          "time": 23.00519400000002,
          "velocity": 0.4645669291338583,
          "duration": 0.20725399999999894
        },
        {
          "name": "F4",
          "midi": 65,
          "time": 23.21244800000002,
          "velocity": 0.25196850393700787,
          "duration": 0.20725399999999894
        },
        {
          "name": "C5",
          "midi": 72,
          "time": 23.21244800000002,
          "velocity": 0.3937007874015748,
          "duration": 0.10362699999999947
        },
        {
          "name": "A#4",
          "midi": 70,
          "time": 23.31607500000002,
          "velocity": 0.3464566929133858,
          "duration": 0.3108809999999984
        },
        {
          "name": "F5",
          "midi": 77,
          "time": 23.41970200000002,
          "velocity": 0.4645669291338583,
          "duration": 0.20725399999999894
        },
        {
          "name": "F4",
          "midi": 65,
          "time": 23.626956000000018,
          "velocity": 0.2992125984251969,
          "duration": 0.20725399999999894
        },
        {
          "name": "C5",
          "midi": 72,
          "time": 23.626956000000018,
          "velocity": 0.4409448818897638,
          "duration": 0.10362699999999947
        },
        {
          "name": "A#4",
          "midi": 70,
          "time": 23.730583000000017,
          "velocity": 0.3700787401574803,
          "duration": 0.3108809999999984
        },
        {
          "name": "F5",
          "midi": 77,
          "time": 23.834210000000017,
          "velocity": 0.5118110236220472,
          "duration": 0.20725399999999894
        },
        {
          "name": "F4",
          "midi": 65,
          "time": 24.041464000000015,
          "velocity": 0.29133858267716534,
          "duration": 0.20725399999999894
        },
        {
          "name": "C5",
          "midi": 72,
          "time": 24.041464000000015,
          "velocity": 0.4409448818897638,
          "duration": 0.10362699999999947
        },
        {
          "name": "A#4",
          "midi": 70,
          "time": 24.145091000000015,
          "velocity": 0.3464566929133858,
          "duration": 0.3108809999999984
        },
        {
          "name": "F5",
          "midi": 77,
          "time": 24.248718000000014,
          "velocity": 0.5196850393700787,
          "duration": 0.20725399999999894
        },
        {
          "name": "G4",
          "midi": 67,
          "time": 24.455972000000013,
          "velocity": 0.2992125984251969,
          "duration": 0.20725399999999894
        },
        {
          "name": "C5",
          "midi": 72,
          "time": 24.455972000000013,
          "velocity": 0.4566929133858268,
          "duration": 0.10362699999999947
        },
        {
          "name": "A#4",
          "midi": 70,
          "time": 24.559599000000013,
          "velocity": 0.3700787401574803,
          "duration": 0.3108809999999984
        },
        {
          "name": "G5",
          "midi": 79,
          "time": 24.663226000000012,
          "velocity": 0.5511811023622047,
          "duration": 0.20725399999999894
        },
        {
          "name": "D#4",
          "midi": 63,
          "time": 24.87048000000001,
          "velocity": 0.33070866141732286,
          "duration": 0.20725399999999894
        },
        {
          "name": "A#4",
          "midi": 70,
          "time": 24.87048000000001,
          "velocity": 0.48031496062992124,
          "duration": 0.10362699999999947
        },
        {
          "name": "G#4",
          "midi": 68,
          "time": 24.97410700000001,
          "velocity": 0.3700787401574803,
          "duration": 0.3108809999999984
        },
        {
          "name": "G#5",
          "midi": 80,
          "time": 25.07773400000001,
          "velocity": 0.5039370078740157,
          "duration": 0.20725399999999894
        },
        {
          "name": "D#4",
          "midi": 63,
          "time": 25.28498800000001,
          "velocity": 0.2677165354330709,
          "duration": 0.20725399999999894
        },
        {
          "name": "A#4",
          "midi": 70,
          "time": 25.28498800000001,
          "velocity": 0.4094488188976378,
          "duration": 0.10362699999999947
        },
        {
          "name": "G#4",
          "midi": 68,
          "time": 25.38861500000001,
          "velocity": 0.3464566929133858,
          "duration": 0.3108809999999984
        },
        {
          "name": "D#5",
          "midi": 75,
          "time": 25.492242000000008,
          "velocity": 0.4645669291338583,
          "duration": 0.20725399999999894
        },
        {
          "name": "D#4",
          "midi": 63,
          "time": 25.699496000000007,
          "velocity": 0.25196850393700787,
          "duration": 0.20725399999999894
        },
        {
          "name": "A#4",
          "midi": 70,
          "time": 25.699496000000007,
          "velocity": 0.3937007874015748,
          "duration": 0.10362699999999947
        },
        {
          "name": "G#4",
          "midi": 68,
          "time": 25.803123000000006,
          "velocity": 0.3464566929133858,
          "duration": 0.3108809999999984
        },
        {
          "name": "D#5",
          "midi": 75,
          "time": 25.906750000000006,
          "velocity": 0.4645669291338583,
          "duration": 0.20725399999999894
        },
        {
          "name": "D#4",
          "midi": 63,
          "time": 26.114004000000005,
          "velocity": 0.2992125984251969,
          "duration": 0.20725399999999894
        },
        {
          "name": "A#4",
          "midi": 70,
          "time": 26.114004000000005,
          "velocity": 0.4409448818897638,
          "duration": 0.10362699999999947
        },
        {
          "name": "G#4",
          "midi": 68,
          "time": 26.217631000000004,
          "velocity": 0.3700787401574803,
          "duration": 0.3108809999999984
        },
        {
          "name": "D#5",
          "midi": 75,
          "time": 26.321258000000004,
          "velocity": 0.5118110236220472,
          "duration": 0.20725399999999894
        },
        {
          "name": "D#4",
          "midi": 63,
          "time": 26.528512000000003,
          "velocity": 0.29133858267716534,
          "duration": 0.20725399999999894
        },
        {
          "name": "A#4",
          "midi": 70,
          "time": 26.528512000000003,
          "velocity": 0.4409448818897638,
          "duration": 0.10362699999999947
        },
        {
          "name": "G#4",
          "midi": 68,
          "time": 26.632139000000002,
          "velocity": 0.3464566929133858,
          "duration": 0.3108809999999984
        },
        {
          "name": "D#5",
          "midi": 75,
          "time": 26.735766,
          "velocity": 0.5196850393700787,
          "duration": 0.20725399999999894
        },
        {
          "name": "D#4",
          "midi": 63,
          "time": 26.94302,
          "velocity": 0.31496062992125984,
          "duration": 0.20725399999999894
        },
        {
          "name": "A#4",
          "midi": 70,
          "time": 26.94302,
          "velocity": 0.4645669291338583,
          "duration": 0.10362699999999947
        },
        {
          "name": "G#4",
          "midi": 68,
          "time": 27.046647,
          "velocity": 0.3700787401574803,
          "duration": 0.3108809999999984
        },
        {
          "name": "F5",
          "midi": 77,
          "time": 27.150274,
          "velocity": 0.5354330708661418,
          "duration": 0.20725399999999894
        },
        {
          "name": "D#4",
          "midi": 63,
          "time": 27.357528,
          "velocity": 0.25984251968503935,
          "duration": 0.20725399999999894
        },
        {
          "name": "G#4",
          "midi": 68,
          "time": 27.357528,
          "velocity": 0.4566929133858268,
          "duration": 0.10362699999999947
        },
        {
          "name": "G4",
          "midi": 67,
          "time": 27.461154999999998,
          "velocity": 0.36220472440944884,
          "duration": 0.3108809999999984
        },
        {
          "name": "D#5",
          "midi": 75,
          "time": 27.564781999999997,
          "velocity": 0.48031496062992124,
          "duration": 0.20725399999999894
        },
        {
          "name": "D4",
          "midi": 62,
          "time": 27.772035999999996,
          "velocity": 0.23622047244094488,
          "duration": 0.20725399999999894
        },
        {
          "name": "G#4",
          "midi": 68,
          "time": 27.772035999999996,
          "velocity": 0.4094488188976378,
          "duration": 0.10362699999999947
        },
        {
          "name": "G4",
          "midi": 67,
          "time": 27.875662999999996,
          "velocity": 0.3464566929133858,
          "duration": 0.3108809999999984
        },
        {
          "name": "D5",
          "midi": 74,
          "time": 27.979289999999995,
          "velocity": 0.4645669291338583,
          "duration": 0.20725399999999894
        },
        {
          "name": "D4",
          "midi": 62,
          "time": 28.186543999999994,
          "velocity": 0.2125984251968504,
          "duration": 0.20725399999999894
        },
        {
          "name": "G#4",
          "midi": 68,
          "time": 28.186543999999994,
          "velocity": 0.3937007874015748,
          "duration": 0.10362699999999947
        },
        {
          "name": "G4",
          "midi": 67,
          "time": 28.290170999999994,
          "velocity": 0.3464566929133858,
          "duration": 0.3108809999999984
        },
        {
          "name": "D5",
          "midi": 74,
          "time": 28.393797999999993,
          "velocity": 0.4645669291338583,
          "duration": 0.20725399999999894
        },
        {
          "name": "D#4",
          "midi": 63,
          "time": 28.601051999999992,
          "velocity": 0.2204724409448819,
          "duration": 0.20725399999999894
        },
        {
          "name": "A#4",
          "midi": 70,
          "time": 28.601051999999992,
          "velocity": 0.3779527559055118,
          "duration": 0.10362699999999947
        },
        {
          "name": "G#4",
          "midi": 68,
          "time": 28.70467899999999,
          "velocity": 0.2992125984251969,
          "duration": 0.3108809999999984
        },
        {
          "name": "D#5",
          "midi": 75,
          "time": 28.80830599999999,
          "velocity": 0.4330708661417323,
          "duration": 0.20725399999999894
        },
        {
          "name": "D#5",
          "midi": 75,
          "time": 29.01555999999999,
          "velocity": 0.2677165354330709,
          "duration": 0.20725399999999894
        },
        {
          "name": "A#5",
          "midi": 82,
          "time": 29.01555999999999,
          "velocity": 0.4094488188976378,
          "duration": 0.10362699999999947
        },
        {
          "name": "G#5",
          "midi": 80,
          "time": 29.11918699999999,
          "velocity": 0.33070866141732286,
          "duration": 0.3108809999999984
        },
        {
          "name": "D#6",
          "midi": 87,
          "time": 29.22281399999999,
          "velocity": 0.5039370078740157,
          "duration": 0.20725399999999894
        },
        {
          "name": "D#5",
          "midi": 75,
          "time": 29.430067999999988,
          "velocity": 0.2992125984251969,
          "duration": 0.20725399999999894
        },
        {
          "name": "A#5",
          "midi": 82,
          "time": 29.430067999999988,
          "velocity": 0.4566929133858268,
          "duration": 0.10362699999999947
        },
        {
          "name": "G#5",
          "midi": 80,
          "time": 29.533694999999987,
          "velocity": 0.3543307086614173,
          "duration": 0.3108809999999984
        },
        {
          "name": "F6",
          "midi": 89,
          "time": 29.637321999999987,
          "velocity": 0.5196850393700787,
          "duration": 0.20725399999999894
        },
        {
          "name": "D#5",
          "midi": 75,
          "time": 29.844575999999986,
          "velocity": 0.29133858267716534,
          "duration": 0.20725399999999894
        },
        {
          "name": "G#5",
          "midi": 80,
          "time": 29.844575999999986,
          "velocity": 0.4409448818897638,
          "duration": 0.10362699999999947
        },
        {
          "name": "G5",
          "midi": 79,
          "time": 29.948202999999985,
          "velocity": 0.3464566929133858,
          "duration": 0.3108809999999984
        },
        {
          "name": "D#6",
          "midi": 87,
          "time": 30.051829999999985,
          "velocity": 0.4566929133858268,
          "duration": 0.20725399999999894
        },
        {
          "name": "D5",
          "midi": 74,
          "time": 30.259083999999984,
          "velocity": 0.25984251968503935,
          "duration": 0.20725399999999894
        },
        {
          "name": "G#5",
          "midi": 80,
          "time": 30.259083999999984,
          "velocity": 0.3937007874015748,
          "duration": 0.10362699999999947
        },
        {
          "name": "G5",
          "midi": 79,
          "time": 30.362710999999983,
          "velocity": 0.33070866141732286,
          "duration": 0.3108809999999984
        },
        {
          "name": "D6",
          "midi": 86,
          "time": 30.466337999999983,
          "velocity": 0.44881889763779526,
          "duration": 0.20725399999999894
        },
        {
          "name": "D5",
          "midi": 74,
          "time": 30.67359199999998,
          "velocity": 0.2283464566929134,
          "duration": 0.20725399999999894
        },
        {
          "name": "G#5",
          "midi": 80,
          "time": 30.67359199999998,
          "velocity": 0.3858267716535433,
          "duration": 0.10362699999999947
        },
        {
          "name": "G5",
          "midi": 79,
          "time": 30.77721899999998,
          "velocity": 0.33070866141732286,
          "duration": 0.3108809999999984
        },
        {
          "name": "D6",
          "midi": 86,
          "time": 30.88084599999998,
          "velocity": 0.44881889763779526,
          "duration": 0.20725399999999894
        },
        {
          "name": "D5",
          "midi": 74,
          "time": 31.08809999999998,
          "velocity": 0.2677165354330709,
          "duration": 0.20725399999999894
        },
        {
          "name": "G5",
          "midi": 79,
          "time": 31.08809999999998,
          "velocity": 0.3937007874015748,
          "duration": 0.10362699999999947
        },
        {
          "name": "F#5",
          "midi": 78,
          "time": 31.19172699999998,
          "velocity": 0.33070866141732286,
          "duration": 0.3108809999999984
        },
        {
          "name": "D6",
          "midi": 86,
          "time": 31.29535399999998,
          "velocity": 0.4645669291338583,
          "duration": 0.20725399999999894
        },
        {
          "name": "D4",
          "midi": 62,
          "time": 31.502607999999977,
          "velocity": 0.23622047244094488,
          "duration": 0.20725399999999894
        },
        {
          "name": "G4",
          "midi": 67,
          "time": 31.502607999999977,
          "velocity": 0.3700787401574803,
          "duration": 0.10362699999999947
        },
        {
          "name": "F#4",
          "midi": 66,
          "time": 31.606234999999977,
          "velocity": 0.28346456692913385,
          "duration": 0.3108809999999984
        },
        {
          "name": "D5",
          "midi": 74,
          "time": 31.709861999999976,
          "velocity": 0.44881889763779526,
          "duration": 0.20725399999999894
        },
        {
          "name": "E4",
          "midi": 64,
          "time": 31.917115999999975,
          "velocity": 0.25984251968503935,
          "duration": 0.2072540000000025
        },
        {
          "name": "G4",
          "midi": 67,
          "time": 31.917115999999975,
          "velocity": 0.4015748031496063,
          "duration": 0.10362699999999947
        },
        {
          "name": "F#4",
          "midi": 66,
          "time": 32.020742999999975,
          "velocity": 0.2992125984251969,
          "duration": 0.31088100000000196
        },
        {
          "name": "E5",
          "midi": 76,
          "time": 32.12436999999998,
          "velocity": 0.4645669291338583,
          "duration": 0.20725399999999894
        },
        {
          "name": "D4",
          "midi": 62,
          "time": 32.33162399999998,
          "velocity": 0.25984251968503935,
          "duration": 0.20725400000000604
        },
        {
          "name": "G4",
          "midi": 67,
          "time": 32.33162399999998,
          "velocity": 0.3937007874015748,
          "duration": 0.10362700000000302
        },
        {
          "name": "F#4",
          "midi": 66,
          "time": 32.43525099999998,
          "velocity": 0.29133858267716534,
          "duration": 0.31088100000000196
        },
        {
          "name": "D5",
          "midi": 74,
          "time": 32.53887799999998,
          "velocity": 0.4015748031496063,
          "duration": 0.20725399999999894
        },
        {
          "name": "C#4",
          "midi": 61,
          "time": 32.74613199999998,
          "velocity": 0.2283464566929134,
          "duration": 0.20725400000000604
        },
        {
          "name": "G4",
          "midi": 67,
          "time": 32.74613199999998,
          "velocity": 0.36220472440944884,
          "duration": 0.10362700000000302
        },
        {
          "name": "F#4",
          "midi": 66,
          "time": 32.849758999999985,
          "velocity": 0.28346456692913385,
          "duration": 0.31088100000000196
        },
        {
          "name": "C#5",
          "midi": 73,
          "time": 32.95338599999999,
          "velocity": 0.4015748031496063,
          "duration": 0.20725399999999894
        },
        {
          "name": "C#4",
          "midi": 61,
          "time": 33.16063999999999,
          "velocity": 0.2125984251968504,
          "duration": 0.20725400000000604
        },
        {
          "name": "G4",
          "midi": 67,
          "time": 33.16063999999999,
          "velocity": 0.33858267716535434,
          "duration": 0.10362700000000302
        },
        {
          "name": "F#4",
          "midi": 66,
          "time": 33.26426699999999,
          "velocity": 0.28346456692913385,
          "duration": 0.31088100000000196
        },
        {
          "name": "C#5",
          "midi": 73,
          "time": 33.36789399999999,
          "velocity": 0.4015748031496063,
          "duration": 0.20725399999999894
        },
        {
          "name": "B3",
          "midi": 59,
          "time": 33.57514799999999,
          "velocity": 0.29133858267716534,
          "duration": 0.20725400000000604
        },
        {
          "name": "G4",
          "midi": 67,
          "time": 33.57514799999999,
          "velocity": 0.4409448818897638,
          "duration": 0.10362700000000302
        },
        {
          "name": "F#4",
          "midi": 66,
          "time": 33.678774999999995,
          "velocity": 0.3700787401574803,
          "duration": 0.31088100000000196
        },
        {
          "name": "B4",
          "midi": 71,
          "time": 33.782402,
          "velocity": 0.5118110236220472,
          "duration": 0.20725399999999894
        },
        {
          "name": "B3",
          "midi": 59,
          "time": 33.989656,
          "velocity": 0.28346456692913385,
          "duration": 0.20725400000000604
        },
        {
          "name": "G4",
          "midi": 67,
          "time": 33.989656,
          "velocity": 0.4409448818897638,
          "duration": 0.10362700000000302
        },
        {
          "name": "F#4",
          "midi": 66,
          "time": 34.093283,
          "velocity": 0.3464566929133858,
          "duration": 0.31088100000000196
        },
        {
          "name": "B4",
          "midi": 71,
          "time": 34.19691,
          "velocity": 0.5275590551181102,
          "duration": 0.20725399999999894
        },
        {
          "name": "C#4",
          "midi": 61,
          "time": 34.404164,
          "velocity": 0.2992125984251969,
          "duration": 0.20725400000000604
        },
        {
          "name": "G4",
          "midi": 67,
          "time": 34.404164,
          "velocity": 0.47244094488188976,
          "duration": 0.10362700000000302
        },
        {
          "name": "F#4",
          "midi": 66,
          "time": 34.507791000000005,
          "velocity": 0.3700787401574803,
          "duration": 0.31088100000000196
        },
        {
          "name": "C#5",
          "midi": 73,
          "time": 34.61141800000001,
          "velocity": 0.5669291338582677,
          "duration": 0.20725399999999894
        },
        {
          "name": "B3",
          "midi": 59,
          "time": 34.81867200000001,
          "velocity": 0.31496062992125984,
          "duration": 0.20725400000000604
        },
        {
          "name": "G4",
          "midi": 67,
          "time": 34.81867200000001,
          "velocity": 0.48031496062992124,
          "duration": 0.10362700000000302
        },
        {
          "name": "F#4",
          "midi": 66,
          "time": 34.92229900000001,
          "velocity": 0.3700787401574803,
          "duration": 0.31088100000000196
        },
        {
          "name": "B4",
          "midi": 71,
          "time": 35.02592600000001,
          "velocity": 0.49606299212598426,
          "duration": 0.20725399999999894
        },
        {
          "name": "A#3",
          "midi": 58,
          "time": 35.23318000000001,
          "velocity": 0.2755905511811024,
          "duration": 0.20725400000000604
        },
        {
          "name": "G4",
          "midi": 67,
          "time": 35.23318000000001,
          "velocity": 0.4251968503937008,
          "duration": 0.10362700000000302
        },
        {
          "name": "F#4",
          "midi": 66,
          "time": 35.336807000000015,
          "velocity": 0.3464566929133858,
          "duration": 0.31088100000000196
        },
        {
          "name": "A#4",
          "midi": 70,
          "time": 35.44043400000002,
          "velocity": 0.4645669291338583,
          "duration": 0.20725399999999894
        },
        {
          "name": "A#3",
          "midi": 58,
          "time": 35.64768800000002,
          "velocity": 0.2440944881889764,
          "duration": 0.20725400000000604
        },
        {
          "name": "G#4",
          "midi": 68,
          "time": 35.64768800000002,
          "velocity": 0.3937007874015748,
          "duration": 0.10362700000000302
        },
        {
          "name": "F#4",
          "midi": 66,
          "time": 35.75131500000002,
          "velocity": 0.33858267716535434,
          "duration": 0.31088100000000196
        },
        {
          "name": "A#4",
          "midi": 70,
          "time": 35.85494200000002,
          "velocity": 0.4645669291338583,
          "duration": 0.20725399999999894
        },
        {
          "name": "B3",
          "midi": 59,
          "time": 36.06219600000002,
          "velocity": 0.3779527559055118,
          "duration": 0.20725400000000604
        },
        {
          "name": "G#4",
          "midi": 68,
          "time": 36.06219600000002,
          "velocity": 0.5669291338582677,
          "duration": 0.10362700000000302
        },
        {
          "name": "F#4",
          "midi": 66,
          "time": 36.165823000000024,
          "velocity": 0.44881889763779526,
          "duration": 0.31088100000000196
        },
        {
          "name": "B4",
          "midi": 71,
          "time": 36.26945000000003,
          "velocity": 0.6141732283464567,
          "duration": 0.20725399999999894
        },
        {
          "name": "F#3",
          "midi": 54,
          "time": 36.476704000000026,
          "velocity": 0.3543307086614173,
          "duration": 0.20725400000000604
        },
        {
          "name": "C#4",
          "midi": 61,
          "time": 36.476704000000026,
          "velocity": 0.5196850393700787,
          "duration": 0.10362700000000302
        },
        {
          "name": "B3",
          "midi": 59,
          "time": 36.58033100000003,
          "velocity": 0.4015748031496063,
          "duration": 0.31088100000000196
        },
        {
          "name": "F#4",
          "midi": 66,
          "time": 36.68395800000003,
          "velocity": 0.5826771653543307,
          "duration": 0.20725399999999894
        },
        {
          "name": "B3",
          "midi": 59,
          "time": 36.89121200000003,
          "velocity": 0.36220472440944884,
          "duration": 0.20725400000000604
        },
        {
          "name": "G#4",
          "midi": 68,
          "time": 36.89121200000003,
          "velocity": 0.5275590551181102,
          "duration": 0.10362700000000302
        },
        {
          "name": "F#4",
          "midi": 66,
          "time": 36.994839000000034,
          "velocity": 0.41732283464566927,
          "duration": 0.31088100000000196
        },
        {
          "name": "B4",
          "midi": 71,
          "time": 37.09846600000004,
          "velocity": 0.6141732283464567,
          "duration": 0.20725399999999894
        },
        {
          "name": "C#4",
          "midi": 61,
          "time": 37.305720000000036,
          "velocity": 0.3779527559055118,
          "duration": 0.20725400000000604
        },
        {
          "name": "G#4",
          "midi": 68,
          "time": 37.305720000000036,
          "velocity": 0.5669291338582677,
          "duration": 0.10362700000000302
        },
        {
          "name": "F#4",
          "midi": 66,
          "time": 37.40934700000004,
          "velocity": 0.4330708661417323,
          "duration": 0.31088100000000196
        },
        {
          "name": "C#5",
          "midi": 73,
          "time": 37.51297400000004,
          "velocity": 0.6377952755905512,
          "duration": 0.20725399999999894
        },
        {
          "name": "F#3",
          "midi": 54,
          "time": 37.72022800000004,
          "velocity": 0.3700787401574803,
          "duration": 0.20725400000000604
        },
        {
          "name": "D#4",
          "midi": 63,
          "time": 37.72022800000004,
          "velocity": 0.5196850393700787,
          "duration": 0.10362700000000302
        },
        {
          "name": "C#4",
          "midi": 61,
          "time": 37.823855000000044,
          "velocity": 0.41732283464566927,
          "duration": 0.31088100000000196
        },
        {
          "name": "F#4",
          "midi": 66,
          "time": 37.92748200000005,
          "velocity": 0.5905511811023622,
          "duration": 0.20725399999999894
        },
        {
          "name": "C#4",
          "midi": 61,
          "time": 38.134736000000046,
          "velocity": 0.36220472440944884,
          "duration": 0.20725400000000604
        },
        {
          "name": "G#4",
          "midi": 68,
          "time": 38.134736000000046,
          "velocity": 0.5275590551181102,
          "duration": 0.10362700000000302
        },
        {
          "name": "F#4",
          "midi": 66,
          "time": 38.23836300000005,
          "velocity": 0.44881889763779526,
          "duration": 0.31088100000000196
        },
        {
          "name": "C#5",
          "midi": 73,
          "time": 38.34199000000005,
          "velocity": 0.5984251968503937,
          "duration": 0.20725399999999894
        },
        {
          "name": "D#4",
          "midi": 63,
          "time": 38.54924400000005,
          "velocity": 0.4015748031496063,
          "duration": 0.20725400000000604
        },
        {
          "name": "G#4",
          "midi": 68,
          "time": 38.54924400000005,
          "velocity": 0.5905511811023622,
          "duration": 0.10362700000000302
        },
        {
          "name": "F#4",
          "midi": 66,
          "time": 38.652871000000054,
          "velocity": 0.4566929133858268,
          "duration": 0.31088100000000196
        },
        {
          "name": "D#5",
          "midi": 75,
          "time": 38.75649800000006,
          "velocity": 0.6141732283464567,
          "duration": 0.20725399999999894
        },
        {
          "name": "B3",
          "midi": 59,
          "time": 38.963752000000056,
          "velocity": 0.3700787401574803,
          "duration": 0.20725400000000604
        },
        {
          "name": "G#4",
          "midi": 68,
          "time": 38.963752000000056,
          "velocity": 0.5433070866141733,
          "duration": 0.10362700000000302
        },
        {
          "name": "F#4",
          "midi": 66,
          "time": 39.06737900000006,
          "velocity": 0.41732283464566927,
          "duration": 0.31088100000000196
        },
        {
          "name": "B4",
          "midi": 71,
          "time": 39.17100600000006,
          "velocity": 0.5984251968503937,
          "duration": 0.20725399999999894
        },
        {
          "name": "G#4",
          "midi": 68,
          "time": 39.37826000000006,
          "velocity": 0.3779527559055118,
          "duration": 0.20725400000000604
        },
        {
          "name": "D#5",
          "midi": 75,
          "time": 39.37826000000006,
          "velocity": 0.5511811023622047,
          "duration": 0.10362700000000302
        },
        {
          "name": "C#5",
          "midi": 73,
          "time": 39.481887000000064,
          "velocity": 0.4645669291338583,
          "duration": 0.31088100000000196
        },
        {
          "name": "G#5",
          "midi": 80,
          "time": 39.58551400000007,
          "velocity": 0.5984251968503937,
          "duration": 0.20725399999999894
        },
        {
          "name": "C#4",
          "midi": 61,
          "time": 39.792768000000066,
          "velocity": 0.4015748031496063,
          "duration": 0.20725400000000604
        },
        {
          "name": "G#4",
          "midi": 68,
          "time": 39.792768000000066,
          "velocity": 0.5905511811023622,
          "duration": 0.10362700000000302
        },
        {
          "name": "F#4",
          "midi": 66,
          "time": 39.89639500000007,
          "velocity": 0.49606299212598426,
          "duration": 0.31088100000000196
        },
        {
          "name": "C#5",
          "midi": 73,
          "time": 40.00002200000007,
          "velocity": 0.6377952755905512,
          "duration": 0.20725399999999894
        },
        {
          "name": "F#4",
          "midi": 66,
          "time": 40.20727600000007,
          "velocity": 0.3858267716535433,
          "duration": 0.20725400000000604
        },
        {
          "name": "D#5",
          "midi": 75,
          "time": 40.20727600000007,
          "velocity": 0.5511811023622047,
          "duration": 0.10362700000000302
        },
        {
          "name": "C#5",
          "midi": 73,
          "time": 40.310903000000074,
          "velocity": 0.4330708661417323,
          "duration": 0.31088100000000196
        },
        {
          "name": "F#5",
          "midi": 78,
          "time": 40.41453000000008,
          "velocity": 0.5984251968503937,
          "duration": 0.20725399999999894
        },
        {
          "name": "F#5",
          "midi": 78,
          "time": 40.621784000000076,
          "velocity": 0.3858267716535433,
          "duration": 0.20725400000000604
        },
        {
          "name": "D#6",
          "midi": 87,
          "time": 40.621784000000076,
          "velocity": 0.5826771653543307,
          "duration": 0.10362700000000302
        },
        {
          "name": "C#6",
          "midi": 85,
          "time": 40.72541100000008,
          "velocity": 0.4566929133858268,
          "duration": 0.31088100000000196
        },
        {
          "name": "F#6",
          "midi": 90,
          "time": 40.82903800000008,
          "velocity": 0.6456692913385826,
          "duration": 0.18134725000000174
        },
        {
          "name": "B3",
          "midi": 59,
          "time": 41.03629200000008,
          "velocity": 0.3779527559055118,
          "duration": 0.20725400000000604
        },
        {
          "name": "G#4",
          "midi": 68,
          "time": 41.03629200000008,
          "velocity": 0.5669291338582677,
          "duration": 0.10362700000000302
        },
        {
          "name": "F#4",
          "midi": 66,
          "time": 41.139919000000084,
          "velocity": 0.44881889763779526,
          "duration": 0.31088100000000196
        },
        {
          "name": "B4",
          "midi": 71,
          "time": 41.24354600000009,
          "velocity": 0.6141732283464567,
          "duration": 0.20725399999999894
        },
        {
          "name": "F#3",
          "midi": 54,
          "time": 41.450800000000086,
          "velocity": 0.3543307086614173,
          "duration": 0.20725400000000604
        },
        {
          "name": "C#4",
          "midi": 61,
          "time": 41.450800000000086,
          "velocity": 0.5196850393700787,
          "duration": 0.10362700000000302
        },
        {
          "name": "B3",
          "midi": 59,
          "time": 41.55442700000009,
          "velocity": 0.36220472440944884,
          "duration": 0.31088100000000196
        },
        {
          "name": "F#4",
          "midi": 66,
          "time": 41.65805400000009,
          "velocity": 0.5826771653543307,
          "duration": 0.20725399999999894
        },
        {
          "name": "B3",
          "midi": 59,
          "time": 41.86530800000009,
          "velocity": 0.36220472440944884,
          "duration": 0.20725400000000604
        },
        {
          "name": "G#4",
          "midi": 68,
          "time": 41.86530800000009,
          "velocity": 0.5275590551181102,
          "duration": 0.10362700000000302
        },
        {
          "name": "F#4",
          "midi": 66,
          "time": 41.968935000000094,
          "velocity": 0.41732283464566927,
          "duration": 0.31088100000000196
        },
        {
          "name": "B4",
          "midi": 71,
          "time": 42.0725620000001,
          "velocity": 0.6141732283464567,
          "duration": 0.20725399999999894
        },
        {
          "name": "C#4",
          "midi": 61,
          "time": 42.279816000000096,
          "velocity": 0.3779527559055118,
          "duration": 0.20725400000000604
        },
        {
          "name": "G#4",
          "midi": 68,
          "time": 42.279816000000096,
          "velocity": 0.5669291338582677,
          "duration": 0.10362700000000302
        },
        {
          "name": "F#4",
          "midi": 66,
          "time": 42.3834430000001,
          "velocity": 0.4330708661417323,
          "duration": 0.31088100000000196
        },
        {
          "name": "C#5",
          "midi": 73,
          "time": 42.4870700000001,
          "velocity": 0.6377952755905512,
          "duration": 0.20725399999999894
        },
        {
          "name": "F#3",
          "midi": 54,
          "time": 42.6943240000001,
          "velocity": 0.3700787401574803,
          "duration": 0.20725400000000604
        },
        {
          "name": "D#4",
          "midi": 63,
          "time": 42.6943240000001,
          "velocity": 0.5196850393700787,
          "duration": 0.10362700000000302
        },
        {
          "name": "C#4",
          "midi": 61,
          "time": 42.797951000000104,
          "velocity": 0.41732283464566927,
          "duration": 0.31088100000000196
        },
        {
          "name": "F#4",
          "midi": 66,
          "time": 42.90157800000011,
          "velocity": 0.5905511811023622,
          "duration": 0.20725399999999894
        },
        {
          "name": "C#4",
          "midi": 61,
          "time": 43.108832000000106,
          "velocity": 0.36220472440944884,
          "duration": 0.20725400000000604
        },
        {
          "name": "G#4",
          "midi": 68,
          "time": 43.108832000000106,
          "velocity": 0.5275590551181102,
          "duration": 0.10362700000000302
        },
        {
          "name": "F#4",
          "midi": 66,
          "time": 43.21245900000011,
          "velocity": 0.44881889763779526,
          "duration": 0.31088100000000196
        },
        {
          "name": "C#5",
          "midi": 73,
          "time": 43.31608600000011,
          "velocity": 0.5984251968503937,
          "duration": 0.20725399999999894
        },
        {
          "name": "D#4",
          "midi": 63,
          "time": 43.52334000000011,
          "velocity": 0.4015748031496063,
          "duration": 0.20725400000000604
        },
        {
          "name": "G#4",
          "midi": 68,
          "time": 43.52334000000011,
          "velocity": 0.5905511811023622,
          "duration": 0.10362700000000302
        },
        {
          "name": "F#4",
          "midi": 66,
          "time": 43.626967000000114,
          "velocity": 0.4566929133858268,
          "duration": 0.31088100000000196
        },
        {
          "name": "D#5",
          "midi": 75,
          "time": 43.73059400000012,
          "velocity": 0.6141732283464567,
          "duration": 0.20725399999999894
        },
        {
          "name": "D#4",
          "midi": 63,
          "time": 43.937848000000116,
          "velocity": 0.3700787401574803,
          "duration": 0.20725400000000604
        },
        {
          "name": "A#4",
          "midi": 70,
          "time": 43.937848000000116,
          "velocity": 0.5433070866141733,
          "duration": 0.10362700000000302
        },
        {
          "name": "G#4",
          "midi": 68,
          "time": 44.04147500000012,
          "velocity": 0.41732283464566927,
          "duration": 0.31088100000000196
        },
        {
          "name": "D#5",
          "midi": 75,
          "time": 44.14510200000012,
          "velocity": 0.5984251968503937,
          "duration": 0.20725399999999894
        },
        {
          "name": "C#4",
          "midi": 61,
          "time": 44.35235600000012,
          "velocity": 0.3779527559055118,
          "duration": 0.20725400000000604
        },
        {
          "name": "G#4",
          "midi": 68,
          "time": 44.35235600000012,
          "velocity": 0.5511811023622047,
          "duration": 0.10362700000000302
        },
        {
          "name": "F#4",
          "midi": 66,
          "time": 44.455983000000124,
          "velocity": 0.4645669291338583,
          "duration": 0.31088100000000196
        },
        {
          "name": "C#5",
          "midi": 73,
          "time": 44.55961000000013,
          "velocity": 0.5984251968503937,
          "duration": 0.20725399999999894
        },
        {
          "name": "B3",
          "midi": 59,
          "time": 44.766864000000126,
          "velocity": 0.4015748031496063,
          "duration": 0.20725400000000604
        },
        {
          "name": "G#4",
          "midi": 68,
          "time": 44.766864000000126,
          "velocity": 0.5905511811023622,
          "duration": 0.10362700000000302
        },
        {
          "name": "F#4",
          "midi": 66,
          "time": 44.87049100000013,
          "velocity": 0.49606299212598426,
          "duration": 0.31088100000000196
        },
        {
          "name": "B4",
          "midi": 71,
          "time": 44.97411800000013,
          "velocity": 0.6377952755905512,
          "duration": 0.20725399999999894
        },
        {
          "name": "B4",
          "midi": 71,
          "time": 45.18137200000013,
          "velocity": 0.3858267716535433,
          "duration": 0.20725400000000604
        },
        {
          "name": "G#5",
          "midi": 80,
          "time": 45.18137200000013,
          "velocity": 0.5511811023622047,
          "duration": 0.10362700000000302
        },
        {
          "name": "F#5",
          "midi": 78,
          "time": 45.284999000000134,
          "velocity": 0.4330708661417323,
          "duration": 0.31088100000000196
        },
        {
          "name": "B5",
          "midi": 83,
          "time": 45.38862600000014,
          "velocity": 0.5984251968503937,
          "duration": 0.20725399999999894
        },
        {
          "name": "B5",
          "midi": 83,
          "time": 45.595880000000136,
          "velocity": 0.3858267716535433,
          "duration": 0.20725400000000604
        },
        {
          "name": "G#6",
          "midi": 92,
          "time": 45.595880000000136,
          "velocity": 0.5826771653543307,
          "duration": 0.10362700000000302
        },
        {
          "name": "F#6",
          "midi": 90,
          "time": 45.69950700000014,
          "velocity": 0.4566929133858268,
          "duration": 0.31088100000000196
        },
        {
          "name": "B6",
          "midi": 95,
          "time": 45.80313400000014,
          "velocity": 0.6456692913385826,
          "duration": 0.18134725000000174
        },
        {
          "name": "C#4",
          "midi": 61,
          "time": 46.01038800000014,
          "velocity": 0.3464566929133858,
          "duration": 0.20725400000000604
        },
        {
          "name": "G#4",
          "midi": 68,
          "time": 46.01038800000014,
          "velocity": 0.5118110236220472,
          "duration": 0.10362700000000302
        },
        {
          "name": "F#4",
          "midi": 66,
          "time": 46.114015000000144,
          "velocity": 0.4015748031496063,
          "duration": 0.31088100000000196
        },
        {
          "name": "C#5",
          "midi": 73,
          "time": 46.21764200000015,
          "velocity": 0.5590551181102362,
          "duration": 0.20725399999999894
        },
        {
          "name": "C#4",
          "midi": 61,
          "time": 46.424896000000146,
          "velocity": 0.31496062992125984,
          "duration": 0.20725400000000604
        },
        {
          "name": "G#4",
          "midi": 68,
          "time": 46.424896000000146,
          "velocity": 0.4645669291338583,
          "duration": 0.10362700000000302
        },
        {
          "name": "F#4",
          "midi": 66,
          "time": 46.52852300000015,
          "velocity": 0.3779527559055118,
          "duration": 0.31088100000000196
        },
        {
          "name": "C#5",
          "midi": 73,
          "time": 46.63215000000015,
          "velocity": 0.5511811023622047,
          "duration": 0.20725399999999894
        },
        {
          "name": "D#4",
          "midi": 63,
          "time": 46.83940400000015,
          "velocity": 0.3464566929133858,
          "duration": 0.20725400000000604
        },
        {
          "name": "G#4",
          "midi": 68,
          "time": 46.83940400000015,
          "velocity": 0.5118110236220472,
          "duration": 0.10362700000000302
        },
        {
          "name": "F#4",
          "midi": 66,
          "time": 46.943031000000154,
          "velocity": 0.4015748031496063,
          "duration": 0.31088100000000196
        },
        {
          "name": "D#5",
          "midi": 75,
          "time": 47.04665800000016,
          "velocity": 0.5984251968503937,
          "duration": 0.20725399999999894
        },
        {
          "name": "E4",
          "midi": 64,
          "time": 47.253912000000156,
          "velocity": 0.36220472440944884,
          "duration": 0.20725400000000604
        },
        {
          "name": "A4",
          "midi": 69,
          "time": 47.253912000000156,
          "velocity": 0.5354330708661418,
          "duration": 0.10362700000000302
        },
        {
          "name": "G#4",
          "midi": 68,
          "time": 47.35753900000016,
          "velocity": 0.4094488188976378,
          "duration": 0.31088100000000196
        },
        {
          "name": "E5",
          "midi": 76,
          "time": 47.46116600000016,
          "velocity": 0.5984251968503937,
          "duration": 0.20725399999999894
        },
        {
          "name": "B3",
          "midi": 59,
          "time": 47.66842000000016,
          "velocity": 0.30708661417322836,
          "duration": 0.20725400000000604
        },
        {
          "name": "F#4",
          "midi": 66,
          "time": 47.66842000000016,
          "velocity": 0.4409448818897638,
          "duration": 0.10362700000000302
        },
        {
          "name": "E4",
          "midi": 64,
          "time": 47.772047000000164,
          "velocity": 0.36220472440944884,
          "duration": 0.31088100000000196
        },
        {
          "name": "B4",
          "midi": 71,
          "time": 47.87567400000017,
          "velocity": 0.49606299212598426,
          "duration": 0.20725399999999894
        },
        {
          "name": "B3",
          "midi": 59,
          "time": 48.082928000000166,
          "velocity": 0.30708661417322836,
          "duration": 0.20725400000000604
        },
        {
          "name": "F#4",
          "midi": 66,
          "time": 48.082928000000166,
          "velocity": 0.4645669291338583,
          "duration": 0.10362700000000302
        },
        {
          "name": "E4",
          "midi": 64,
          "time": 48.18655500000017,
          "velocity": 0.3858267716535433,
          "duration": 0.31088100000000196
        },
        {
          "name": "B4",
          "midi": 71,
          "time": 48.29018200000017,
          "velocity": 0.5196850393700787,
          "duration": 0.20725399999999894
        },
        {
          "name": "B3",
          "midi": 59,
          "time": 48.49743600000017,
          "velocity": 0.3464566929133858,
          "duration": 0.20725400000000604
        },
        {
          "name": "F#4",
          "midi": 66,
          "time": 48.49743600000017,
          "velocity": 0.5118110236220472,
          "duration": 0.10362700000000302
        },
        {
          "name": "E4",
          "midi": 64,
          "time": 48.601063000000174,
          "velocity": 0.4015748031496063,
          "duration": 0.31088100000000196
        },
        {
          "name": "B4",
          "midi": 71,
          "time": 48.70469000000018,
          "velocity": 0.5590551181102362,
          "duration": 0.20725399999999894
        },
        {
          "name": "B3",
          "midi": 59,
          "time": 48.911944000000176,
          "velocity": 0.31496062992125984,
          "duration": 0.20725400000000604
        },
        {
          "name": "F#4",
          "midi": 66,
          "time": 48.911944000000176,
          "velocity": 0.4645669291338583,
          "duration": 0.10362700000000302
        },
        {
          "name": "E4",
          "midi": 64,
          "time": 49.01557100000018,
          "velocity": 0.3779527559055118,
          "duration": 0.31088100000000196
        },
        {
          "name": "B4",
          "midi": 71,
          "time": 49.11919800000018,
          "velocity": 0.5511811023622047,
          "duration": 0.20725399999999894
        },
        {
          "name": "C#4",
          "midi": 61,
          "time": 49.32645200000018,
          "velocity": 0.3464566929133858,
          "duration": 0.20725400000000604
        },
        {
          "name": "F#4",
          "midi": 66,
          "time": 49.32645200000018,
          "velocity": 0.5118110236220472,
          "duration": 0.10362700000000302
        },
        {
          "name": "E4",
          "midi": 64,
          "time": 49.430079000000184,
          "velocity": 0.4015748031496063,
          "duration": 0.31088100000000196
        },
        {
          "name": "C#5",
          "midi": 73,
          "time": 49.53370600000019,
          "velocity": 0.5984251968503937,
          "duration": 0.20725399999999894
        },
        {
          "name": "D4",
          "midi": 62,
          "time": 49.740960000000186,
          "velocity": 0.36220472440944884,
          "duration": 0.20725400000000604
        },
        {
          "name": "G4",
          "midi": 67,
          "time": 49.740960000000186,
          "velocity": 0.5354330708661418,
          "duration": 0.10362700000000302
        },
        {
          "name": "F#4",
          "midi": 66,
          "time": 49.84458700000019,
          "velocity": 0.4094488188976378,
          "duration": 0.31088100000000196
        },
        {
          "name": "D5",
          "midi": 74,
          "time": 49.94821400000019,
          "velocity": 0.5984251968503937,
          "duration": 0.20725399999999894
        },
        {
          "name": "A3",
          "midi": 57,
          "time": 50.15546800000019,
          "velocity": 0.30708661417322836,
          "duration": 0.20725400000000604
        },
        {
          "name": "E4",
          "midi": 64,
          "time": 50.15546800000019,
          "velocity": 0.4409448818897638,
          "duration": 0.10362700000000302
        },
        {
          "name": "D4",
          "midi": 62,
          "time": 50.259095000000194,
          "velocity": 0.36220472440944884,
          "duration": 0.31088100000000196
        },
        {
          "name": "A4",
          "midi": 69,
          "time": 50.3627220000002,
          "velocity": 0.49606299212598426,
          "duration": 0.20725399999999894
        },
        {
          "name": "A3",
          "midi": 57,
          "time": 50.569976000000196,
          "velocity": 0.30708661417322836,
          "duration": 0.20725400000000604
        },
        {
          "name": "E4",
          "midi": 64,
          "time": 50.569976000000196,
          "velocity": 0.4645669291338583,
          "duration": 0.10362700000000302
        },
        {
          "name": "D4",
          "midi": 62,
          "time": 50.6736030000002,
          "velocity": 0.3858267716535433,
          "duration": 0.31088100000000196
        },
        {
          "name": "A4",
          "midi": 69,
          "time": 50.7772300000002,
          "velocity": 0.5196850393700787,
          "duration": 0.20725399999999894
        },
        {
          "name": "A3",
          "midi": 57,
          "time": 50.9844840000002,
          "velocity": 0.31496062992125984,
          "duration": 0.20725400000000604
        },
        {
          "name": "D4",
          "midi": 62,
          "time": 50.9844840000002,
          "velocity": 0.47244094488188976,
          "duration": 0.10362700000000302
        },
        {
          "name": "C#4",
          "midi": 61,
          "time": 51.088111000000204,
          "velocity": 0.3779527559055118,
          "duration": 0.31088100000000196
        },
        {
          "name": "A4",
          "midi": 69,
          "time": 51.19173800000021,
          "velocity": 0.5275590551181102,
          "duration": 0.20725399999999894
        },
        {
          "name": "A4",
          "midi": 69,
          "time": 51.398992000000206,
          "velocity": 0.29133858267716534,
          "duration": 0.20725400000000604
        },
        {
          "name": "D5",
          "midi": 74,
          "time": 51.398992000000206,
          "velocity": 0.4409448818897638,
          "duration": 0.10362700000000302
        },
        {
          "name": "C#5",
          "midi": 73,
          "time": 51.50261900000021,
          "velocity": 0.3543307086614173,
          "duration": 0.31088100000000196
        },
        {
          "name": "A5",
          "midi": 81,
          "time": 51.60624600000021,
          "velocity": 0.5196850393700787,
          "duration": 0.20725399999999894
        },
        {
          "name": "B4",
          "midi": 71,
          "time": 51.81350000000021,
          "velocity": 0.31496062992125984,
          "duration": 0.20725400000000604
        },
        {
          "name": "D5",
          "midi": 74,
          "time": 51.81350000000021,
          "velocity": 0.47244094488188976,
          "duration": 0.10362700000000302
        },
        {
          "name": "C#5",
          "midi": 73,
          "time": 51.917127000000214,
          "velocity": 0.3779527559055118,
          "duration": 0.31088100000000196
        },
        {
          "name": "B5",
          "midi": 83,
          "time": 52.02075400000022,
          "velocity": 0.5511811023622047,
          "duration": 0.20725399999999894
        },
        {
          "name": "A4",
          "midi": 69,
          "time": 52.228008000000216,
          "velocity": 0.36220472440944884,
          "duration": 0.20725400000000604
        },
        {
          "name": "D5",
          "midi": 74,
          "time": 52.228008000000216,
          "velocity": 0.5354330708661418,
          "duration": 0.10362700000000302
        },
        {
          "name": "C#5",
          "midi": 73,
          "time": 52.33163500000022,
          "velocity": 0.4094488188976378,
          "duration": 0.31088100000000196
        },
        {
          "name": "A5",
          "midi": 81,
          "time": 52.43526200000022,
          "velocity": 0.5669291338582677,
          "duration": 0.20725399999999894
        },
        {
          "name": "G#4",
          "midi": 68,
          "time": 52.64251600000022,
          "velocity": 0.30708661417322836,
          "duration": 0.20725400000000604
        },
        {
          "name": "D5",
          "midi": 74,
          "time": 52.64251600000022,
          "velocity": 0.4094488188976378,
          "duration": 0.10362700000000302
        },
        {
          "name": "C#5",
          "midi": 73,
          "time": 52.746143000000224,
          "velocity": 0.36220472440944884,
          "duration": 0.31088100000000196
        },
        {
          "name": "G#5",
          "midi": 80,
          "time": 52.84977000000023,
          "velocity": 0.49606299212598426,
          "duration": 0.20725399999999894
        },
        {
          "name": "G#4",
          "midi": 68,
          "time": 53.057024000000226,
          "velocity": 0.30708661417322836,
          "duration": 0.20725400000000604
        },
        {
          "name": "D5",
          "midi": 74,
          "time": 53.057024000000226,
          "velocity": 0.4330708661417323,
          "duration": 0.10362700000000302
        },
        {
          "name": "C#5",
          "midi": 73,
          "time": 53.16065100000023,
          "velocity": 0.3858267716535433,
          "duration": 0.31088100000000196
        },
        {
          "name": "G#5",
          "midi": 80,
          "time": 53.26427800000023,
          "velocity": 0.5196850393700787,
          "duration": 0.20725399999999894
        },
        {
          "name": "A4",
          "midi": 69,
          "time": 53.47153200000023,
          "velocity": 0.2677165354330709,
          "duration": 0.20725400000000604
        },
        {
          "name": "D5",
          "midi": 74,
          "time": 53.47153200000023,
          "velocity": 0.4015748031496063,
          "duration": 0.10362700000000302
        },
        {
          "name": "C#5",
          "midi": 73,
          "time": 53.575159000000234,
          "velocity": 0.31496062992125984,
          "duration": 0.31088100000000196
        },
        {
          "name": "A5",
          "midi": 81,
          "time": 53.67878600000024,
          "velocity": 0.4330708661417323,
          "duration": 0.20725399999999894
        },
        {
          "name": "A5",
          "midi": 81,
          "time": 53.886040000000236,
          "velocity": 0.28346456692913385,
          "duration": 0.20725400000000604
        },
        {
          "name": "D6",
          "midi": 86,
          "time": 53.886040000000236,
          "velocity": 0.41732283464566927,
          "duration": 0.10362700000000302
        },
        {
          "name": "C#6",
          "midi": 85,
          "time": 53.98966700000024,
          "velocity": 0.29133858267716534,
          "duration": 0.31088100000000196
        },
        {
          "name": "A6",
          "midi": 93,
          "time": 54.09329400000024,
          "velocity": 0.4251968503937008,
          "duration": 0.20725399999999894
        },
        {
          "name": "B5",
          "midi": 83,
          "time": 54.30054800000024,
          "velocity": 0.2992125984251969,
          "duration": 0.20725400000000604
        },
        {
          "name": "D6",
          "midi": 86,
          "time": 54.30054800000024,
          "velocity": 0.44881889763779526,
          "duration": 0.10362700000000302
        },
        {
          "name": "C#6",
          "midi": 85,
          "time": 54.404175000000244,
          "velocity": 0.31496062992125984,
          "duration": 0.31088100000000196
        },
        {
          "name": "B6",
          "midi": 95,
          "time": 54.50780200000025,
          "velocity": 0.47244094488188976,
          "duration": 0.20725399999999894
        },
        {
          "name": "A5",
          "midi": 81,
          "time": 54.715056000000246,
          "velocity": 0.33858267716535434,
          "duration": 0.20725400000000604
        },
        {
          "name": "D6",
          "midi": 86,
          "time": 54.715056000000246,
          "velocity": 0.5039370078740157,
          "duration": 0.10362700000000302
        },
        {
          "name": "C#6",
          "midi": 85,
          "time": 54.81868300000025,
          "velocity": 0.3464566929133858,
          "duration": 0.31088100000000196
        },
        {
          "name": "A6",
          "midi": 93,
          "time": 54.92231000000025,
          "velocity": 0.5039370078740157,
          "duration": 0.20725399999999894
        },
        {
          "name": "G#5",
          "midi": 80,
          "time": 55.12956400000025,
          "velocity": 0.29133858267716534,
          "duration": 0.20725400000000604
        },
        {
          "name": "D6",
          "midi": 86,
          "time": 55.12956400000025,
          "velocity": 0.41732283464566927,
          "duration": 0.10362700000000302
        },
        {
          "name": "C#6",
          "midi": 85,
          "time": 55.233191000000254,
          "velocity": 0.2992125984251969,
          "duration": 0.31088100000000196
        },
        {
          "name": "G#6",
          "midi": 92,
          "time": 55.33681800000026,
          "velocity": 0.41732283464566927,
          "duration": 0.20725399999999894
        },
        {
          "name": "G#5",
          "midi": 80,
          "time": 55.544072000000256,
          "velocity": 0.29133858267716534,
          "duration": 0.20725400000000604
        },
        {
          "name": "D6",
          "midi": 86,
          "time": 55.544072000000256,
          "velocity": 0.4330708661417323,
          "duration": 0.10362700000000302
        },
        {
          "name": "C#6",
          "midi": 85,
          "time": 55.64769900000026,
          "velocity": 0.31496062992125984,
          "duration": 0.31088100000000196
        },
        {
          "name": "G#6",
          "midi": 92,
          "time": 55.75132600000026,
          "velocity": 0.4251968503937008,
          "duration": 0.20725399999999894
        },
        {
          "name": "G#5",
          "midi": 80,
          "time": 55.95858000000026,
          "velocity": 0.2992125984251969,
          "duration": 0.20725400000000604
        },
        {
          "name": "C#6",
          "midi": 85,
          "time": 55.95858000000026,
          "velocity": 0.44881889763779526,
          "duration": 0.10362700000000302
        },
        {
          "name": "C6",
          "midi": 84,
          "time": 56.062207000000264,
          "velocity": 0.31496062992125984,
          "duration": 0.31088100000000196
        },
        {
          "name": "G#6",
          "midi": 92,
          "time": 56.16583400000027,
          "velocity": 0.4330708661417323,
          "duration": 0.20725399999999894
        },
        {
          "name": "G#4",
          "midi": 68,
          "time": 56.373088000000266,
          "velocity": 0.2755905511811024,
          "duration": 0.20725400000000604
        },
        {
          "name": "C#5",
          "midi": 73,
          "time": 56.373088000000266,
          "velocity": 0.4094488188976378,
          "duration": 0.10362700000000302
        },
        {
          "name": "C5",
          "midi": 72,
          "time": 56.47671500000027,
          "velocity": 0.28346456692913385,
          "duration": 0.31088100000000196
        },
        {
          "name": "G#5",
          "midi": 80,
          "time": 56.58034200000027,
          "velocity": 0.41732283464566927,
          "duration": 0.20725399999999894
        },
        {
          "name": "A#4",
          "midi": 70,
          "time": 56.78759600000027,
          "velocity": 0.29133858267716534,
          "duration": 0.20725400000000604
        },
        {
          "name": "C#5",
          "midi": 73,
          "time": 56.78759600000027,
          "velocity": 0.4330708661417323,
          "duration": 0.10362700000000302
        },
        {
          "name": "C5",
          "midi": 72,
          "time": 56.891223000000274,
          "velocity": 0.30708661417322836,
          "duration": 0.31088100000000196
        },
        {
          "name": "A#5",
          "midi": 82,
          "time": 56.99485000000028,
          "velocity": 0.4566929133858268,
          "duration": 0.20725399999999894
        },
        {
          "name": "G#4",
          "midi": 68,
          "time": 57.202104000000276,
          "velocity": 0.31496062992125984,
          "duration": 0.20725400000000604
        },
        {
          "name": "C#5",
          "midi": 73,
          "time": 57.202104000000276,
          "velocity": 0.48031496062992124,
          "duration": 0.10362700000000302
        },
        {
          "name": "C5",
          "midi": 72,
          "time": 57.30573100000028,
          "velocity": 0.33070866141732286,
          "duration": 0.31088100000000196
        },
        {
          "name": "G#5",
          "midi": 80,
          "time": 57.40935800000028,
          "velocity": 0.47244094488188976,
          "duration": 0.20725399999999894
        },
        {
          "name": "G4",
          "midi": 67,
          "time": 57.61661200000028,
          "velocity": 0.2755905511811024,
          "duration": 0.20725400000000604
        },
        {
          "name": "C#5",
          "midi": 73,
          "time": 57.61661200000028,
          "velocity": 0.3937007874015748,
          "duration": 0.10362700000000302
        },
        {
          "name": "C5",
          "midi": 72,
          "time": 57.720239000000284,
          "velocity": 0.28346456692913385,
          "duration": 0.31088100000000196
        },
        {
          "name": "G5",
          "midi": 79,
          "time": 57.82386600000029,
          "velocity": 0.3937007874015748,
          "duration": 0.20725399999999894
        },
        {
          "name": "G4",
          "midi": 67,
          "time": 58.031120000000286,
          "velocity": 0.2755905511811024,
          "duration": 0.20725400000000604
        },
        {
          "name": "C#5",
          "midi": 73,
          "time": 58.031120000000286,
          "velocity": 0.4094488188976378,
          "duration": 0.10362700000000302
        },
        {
          "name": "C5",
          "midi": 72,
          "time": 58.13474700000029,
          "velocity": 0.29133858267716534,
          "duration": 0.31088100000000196
        },
        {
          "name": "G5",
          "midi": 79,
          "time": 58.23837400000029,
          "velocity": 0.4015748031496063,
          "duration": 0.20725399999999894
        },
        {
          "name": "F4",
          "midi": 65,
          "time": 58.44562800000029,
          "velocity": 0.2755905511811024,
          "duration": 0.20725400000000604
        },
        {
          "name": "D5",
          "midi": 74,
          "time": 58.44562800000029,
          "velocity": 0.4094488188976378,
          "duration": 0.10362700000000302
        },
        {
          "name": "C5",
          "midi": 72,
          "time": 58.549255000000294,
          "velocity": 0.29133858267716534,
          "duration": 0.31088100000000196
        },
        {
          "name": "F5",
          "midi": 77,
          "time": 58.6528820000003,
          "velocity": 0.4015748031496063,
          "duration": 0.20725399999999894
        },
        {
          "name": "F4",
          "midi": 65,
          "time": 58.860136000000296,
          "velocity": 0.25196850393700787,
          "duration": 0.20725400000000604
        },
        {
          "name": "D5",
          "midi": 74,
          "time": 58.860136000000296,
          "velocity": 0.3858267716535433,
          "duration": 0.10362700000000302
        },
        {
          "name": "C5",
          "midi": 72,
          "time": 58.9637630000003,
          "velocity": 0.2677165354330709,
          "duration": 0.31088100000000196
        },
        {
          "name": "F5",
          "midi": 77,
          "time": 59.0673900000003,
          "velocity": 0.3858267716535433,
          "duration": 0.20725399999999894
        },
        {
          "name": "G4",
          "midi": 67,
          "time": 59.2746440000003,
          "velocity": 0.2677165354330709,
          "duration": 0.20725400000000604
        },
        {
          "name": "D5",
          "midi": 74,
          "time": 59.2746440000003,
          "velocity": 0.4015748031496063,
          "duration": 0.10362700000000302
        },
        {
          "name": "C5",
          "midi": 72,
          "time": 59.378271000000304,
          "velocity": 0.28346456692913385,
          "duration": 0.31088100000000196
        },
        {
          "name": "G5",
          "midi": 79,
          "time": 59.48189800000031,
          "velocity": 0.41732283464566927,
          "duration": 0.20725399999999894
        },
        {
          "name": "F4",
          "midi": 65,
          "time": 59.689152000000306,
          "velocity": 0.29133858267716534,
          "duration": 0.20725400000000604
        },
        {
          "name": "D5",
          "midi": 74,
          "time": 59.689152000000306,
          "velocity": 0.4330708661417323,
          "duration": 0.10362700000000302
        },
        {
          "name": "C5",
          "midi": 72,
          "time": 59.79277900000031,
          "velocity": 0.2992125984251969,
          "duration": 0.31088100000000196
        },
        {
          "name": "F5",
          "midi": 77,
          "time": 59.89640600000031,
          "velocity": 0.4330708661417323,
          "duration": 0.20725399999999894
        },
        {
          "name": "E4",
          "midi": 64,
          "time": 60.10366000000031,
          "velocity": 0.25196850393700787,
          "duration": 0.20725400000000604
        },
        {
          "name": "D5",
          "midi": 74,
          "time": 60.10366000000031,
          "velocity": 0.3700787401574803,
          "duration": 0.10362700000000302
        },
        {
          "name": "C5",
          "midi": 72,
          "time": 60.20728700000031,
          "velocity": 0.25196850393700787,
          "duration": 0.31088100000000196
        },
        {
          "name": "E5",
          "midi": 76,
          "time": 60.31091400000032,
          "velocity": 0.36220472440944884,
          "duration": 0.20725399999999894
        },
        {
          "name": "E4",
          "midi": 64,
          "time": 60.518168000000315,
          "velocity": 0.2440944881889764,
          "duration": 0.20725400000000604
        },
        {
          "name": "D5",
          "midi": 74,
          "time": 60.518168000000315,
          "velocity": 0.3779527559055118,
          "duration": 0.10362700000000302
        },
        {
          "name": "C5",
          "midi": 72,
          "time": 60.62179500000032,
          "velocity": 0.2677165354330709,
          "duration": 0.31088100000000196
        },
        {
          "name": "E5",
          "midi": 76,
          "time": 60.72542200000032,
          "velocity": 0.3700787401574803,
          "duration": 0.18134725000000174
        },
        {
          "name": "F4",
          "midi": 65,
          "time": 60.93267600000032,
          "velocity": 0.4645669291338583,
          "duration": 0.20725400000000604
        },
        {
          "name": "D5",
          "midi": 74,
          "time": 60.93267600000032,
          "velocity": 0.6850393700787402,
          "duration": 0.10362700000000302
        },
        {
          "name": "C5",
          "midi": 72,
          "time": 61.03630300000032,
          "velocity": 0.49606299212598426,
          "duration": 0.10362700000000302
        },
        {
          "name": "F5",
          "midi": 77,
          "time": 61.13993000000033,
          "velocity": 0.5984251968503937,
          "duration": 0.05181350000000151
        },
        {
          "name": "C4",
          "midi": 60,
          "time": 61.347184000000325,
          "velocity": 0.4251968503937008,
          "duration": 0.20725400000000604
        },
        {
          "name": "G4",
          "midi": 67,
          "time": 61.347184000000325,
          "velocity": 0.6299212598425197,
          "duration": 0.10362700000000302
        },
        {
          "name": "F4",
          "midi": 65,
          "time": 61.45081100000033,
          "velocity": 0.4330708661417323,
          "duration": 0.10362700000000302
        },
        {
          "name": "C5",
          "midi": 72,
          "time": 61.55443800000033,
          "velocity": 0.5905511811023622,
          "duration": 0.05181350000000151
        },
        {
          "name": "F4",
          "midi": 65,
          "time": 61.76169200000033,
          "velocity": 0.44881889763779526,
          "duration": 0.20725400000000604
        },
        {
          "name": "D5",
          "midi": 74,
          "time": 61.76169200000033,
          "velocity": 0.6456692913385826,
          "duration": 0.10362700000000302
        },
        {
          "name": "C5",
          "midi": 72,
          "time": 61.86531900000033,
          "velocity": 0.4566929133858268,
          "duration": 0.10362700000000302
        },
        {
          "name": "F5",
          "midi": 77,
          "time": 61.96894600000034,
          "velocity": 0.5905511811023622,
          "duration": 0.05181350000000151
        },
        {
          "name": "G4",
          "midi": 67,
          "time": 62.176200000000335,
          "velocity": 0.4645669291338583,
          "duration": 0.20725400000000604
        },
        {
          "name": "D5",
          "midi": 74,
          "time": 62.176200000000335,
          "velocity": 0.6850393700787402,
          "duration": 0.10362700000000302
        },
        {
          "name": "C5",
          "midi": 72,
          "time": 62.27982700000034,
          "velocity": 0.48031496062992124,
          "duration": 0.10362700000000302
        },
        {
          "name": "G5",
          "midi": 79,
          "time": 62.38345400000034,
          "velocity": 0.5748031496062992,
          "duration": 0.05181350000000151
        },
        {
          "name": "C4",
          "midi": 60,
          "time": 62.59070800000034,
          "velocity": 0.4251968503937008,
          "duration": 0.20725400000000604
        },
        {
          "name": "A4",
          "midi": 69,
          "time": 62.59070800000034,
          "velocity": 0.5984251968503937,
          "duration": 0.10362700000000302
        },
        {
          "name": "G4",
          "midi": 67,
          "time": 62.69433500000034,
          "velocity": 0.4330708661417323,
          "duration": 0.10362700000000302
        },
        {
          "name": "C5",
          "midi": 72,
          "time": 62.79796200000035,
          "velocity": 0.5590551181102362,
          "duration": 0.05181350000000151
        },
        {
          "name": "G4",
          "midi": 67,
          "time": 63.005216000000345,
          "velocity": 0.44881889763779526,
          "duration": 0.20725400000000604
        },
        {
          "name": "D5",
          "midi": 74,
          "time": 63.005216000000345,
          "velocity": 0.6456692913385826,
          "duration": 0.10362700000000302
        },
        {
          "name": "C5",
          "midi": 72,
          "time": 63.10884300000035,
          "velocity": 0.49606299212598426,
          "duration": 0.10362700000000302
        },
        {
          "name": "G5",
          "midi": 79,
          "time": 63.21247000000035,
          "velocity": 0.6141732283464567,
          "duration": 0.05181350000000151
        },
        {
          "name": "A4",
          "midi": 69,
          "time": 63.41972400000035,
          "velocity": 0.49606299212598426,
          "duration": 0.20725400000000604
        },
        {
          "name": "D5",
          "midi": 74,
          "time": 63.41972400000035,
          "velocity": 0.7244094488188977,
          "duration": 0.10362700000000302
        },
        {
          "name": "C5",
          "midi": 72,
          "time": 63.52335100000035,
          "velocity": 0.5039370078740157,
          "duration": 0.10362700000000302
        },
        {
          "name": "A5",
          "midi": 81,
          "time": 63.626978000000356,
          "velocity": 0.6062992125984252,
          "duration": 0.05181350000000151
        },
        {
          "name": "F4",
          "midi": 65,
          "time": 63.834232000000355,
          "velocity": 0.4566929133858268,
          "duration": 0.20725400000000604
        },
        {
          "name": "D5",
          "midi": 74,
          "time": 63.834232000000355,
          "velocity": 0.6692913385826772,
          "duration": 0.10362700000000302
        },
        {
          "name": "C5",
          "midi": 72,
          "time": 63.93785900000036,
          "velocity": 0.4566929133858268,
          "duration": 0.10362700000000302
        },
        {
          "name": "F5",
          "midi": 77,
          "time": 64.04148600000036,
          "velocity": 0.5905511811023622,
          "duration": 0.051813499999994406
        },
        {
          "name": "D5",
          "midi": 74,
          "time": 64.24874000000035,
          "velocity": 0.4645669291338583,
          "duration": 0.20725400000000604
        },
        {
          "name": "A5",
          "midi": 81,
          "time": 64.24874000000035,
          "velocity": 0.6771653543307087,
          "duration": 0.10362700000000302
        },
        {
          "name": "G5",
          "midi": 79,
          "time": 64.35236700000036,
          "velocity": 0.5118110236220472,
          "duration": 0.10362700000000302
        },
        {
          "name": "D6",
          "midi": 86,
          "time": 64.45599400000036,
          "velocity": 0.6141732283464567,
          "duration": 0.051813499999994406
        },
        {
          "name": "G4",
          "midi": 67,
          "time": 64.66324800000035,
          "velocity": 0.49606299212598426,
          "duration": 0.20725400000000604
        },
        {
          "name": "D5",
          "midi": 74,
          "time": 64.66324800000035,
          "velocity": 0.7244094488188977,
          "duration": 0.10362700000000302
        },
        {
          "name": "C5",
          "midi": 72,
          "time": 64.76687500000035,
          "velocity": 0.5433070866141733,
          "duration": 0.15544049999999743
        },
        {
          "name": "G5",
          "midi": 79,
          "time": 64.87050200000036,
          "velocity": 0.6141732283464567,
          "duration": 0.051813499999994406
        },
        {
          "name": "C5",
          "midi": 72,
          "time": 65.07775600000035,
          "velocity": 0.48031496062992124,
          "duration": 0.20725400000000604
        },
        {
          "name": "A5",
          "midi": 81,
          "time": 65.07775600000035,
          "velocity": 0.6771653543307087,
          "duration": 0.10362700000000302
        },
        {
          "name": "G5",
          "midi": 79,
          "time": 65.18138300000035,
          "velocity": 0.48031496062992124,
          "duration": 0.10362700000000302
        },
        {
          "name": "C6",
          "midi": 84,
          "time": 65.28501000000036,
          "velocity": 0.5984251968503937,
          "duration": 0.051813499999994406
        },
        {
          "name": "C6",
          "midi": 84,
          "time": 65.49226400000035,
          "velocity": 0.48031496062992124,
          "duration": 0.20725400000000604
        },
        {
          "name": "A6",
          "midi": 93,
          "time": 65.49226400000035,
          "velocity": 0.7086614173228346,
          "duration": 0.10362700000000302
        },
        {
          "name": "G6",
          "midi": 91,
          "time": 65.59589100000035,
          "velocity": 0.5039370078740157,
          "duration": 0.10362700000000302
        },
        {
          "name": "C7",
          "midi": 96,
          "time": 65.69951800000035,
          "velocity": 0.6456692913385826,
          "duration": 0.051813499999994406
        },
        {
          "name": "F4",
          "midi": 65,
          "time": 65.90677200000034,
          "velocity": 0.4645669291338583,
          "duration": 0.20725400000000604
        },
        {
          "name": "D5",
          "midi": 74,
          "time": 65.90677200000034,
          "velocity": 0.6850393700787402,
          "duration": 0.10362700000000302
        },
        {
          "name": "C5",
          "midi": 72,
          "time": 66.01039900000035,
          "velocity": 0.48031496062992124,
          "duration": 0.10362700000000302
        },
        {
          "name": "F5",
          "midi": 77,
          "time": 66.11402600000035,
          "velocity": 0.6456692913385826,
          "duration": 0.051813499999994406
        },
        {
          "name": "C4",
          "midi": 60,
          "time": 66.32128000000034,
          "velocity": 0.4251968503937008,
          "duration": 0.20725400000000604
        },
        {
          "name": "G4",
          "midi": 67,
          "time": 66.32128000000034,
          "velocity": 0.6299212598425197,
          "duration": 0.10362700000000302
        },
        {
          "name": "F4",
          "midi": 65,
          "time": 66.42490700000035,
          "velocity": 0.4330708661417323,
          "duration": 0.10362700000000302
        },
        {
          "name": "C5",
          "midi": 72,
          "time": 66.52853400000035,
          "velocity": 0.6062992125984252,
          "duration": 0.051813499999994406
        },
        {
          "name": "F4",
          "midi": 65,
          "time": 66.73578800000034,
          "velocity": 0.44881889763779526,
          "duration": 0.20725400000000604
        },
        {
          "name": "D5",
          "midi": 74,
          "time": 66.73578800000034,
          "velocity": 0.6456692913385826,
          "duration": 0.10362700000000302
        },
        {
          "name": "C5",
          "midi": 72,
          "time": 66.83941500000034,
          "velocity": 0.5039370078740157,
          "duration": 0.10362700000000302
        },
        {
          "name": "F5",
          "midi": 77,
          "time": 66.94304200000035,
          "velocity": 0.6299212598425197,
          "duration": 0.051813499999994406
        },
        {
          "name": "G4",
          "midi": 67,
          "time": 67.15029600000034,
          "velocity": 0.4645669291338583,
          "duration": 0.20725400000000604
        },
        {
          "name": "D5",
          "midi": 74,
          "time": 67.15029600000034,
          "velocity": 0.6850393700787402,
          "duration": 0.10362700000000302
        },
        {
          "name": "C5",
          "midi": 72,
          "time": 67.25392300000034,
          "velocity": 0.48031496062992124,
          "duration": 0.10362700000000302
        },
        {
          "name": "G5",
          "midi": 79,
          "time": 67.35755000000034,
          "velocity": 0.6062992125984252,
          "duration": 0.051813499999994406
        },
        {
          "name": "C4",
          "midi": 60,
          "time": 67.56480400000034,
          "velocity": 0.4251968503937008,
          "duration": 0.20725400000000604
        },
        {
          "name": "A4",
          "midi": 69,
          "time": 67.56480400000034,
          "velocity": 0.5984251968503937,
          "duration": 0.10362700000000302
        },
        {
          "name": "G4",
          "midi": 67,
          "time": 67.66843100000034,
          "velocity": 0.4330708661417323,
          "duration": 0.10362700000000302
        },
        {
          "name": "C5",
          "midi": 72,
          "time": 67.77205800000034,
          "velocity": 0.5905511811023622,
          "duration": 0.051813499999994406
        },
        {
          "name": "G4",
          "midi": 67,
          "time": 67.97931200000033,
          "velocity": 0.44881889763779526,
          "duration": 0.20725400000000604
        },
        {
          "name": "D5",
          "midi": 74,
          "time": 67.97931200000033,
          "velocity": 0.6456692913385826,
          "duration": 0.10362700000000302
        },
        {
          "name": "C5",
          "midi": 72,
          "time": 68.08293900000034,
          "velocity": 0.4566929133858268,
          "duration": 0.10362700000000302
        },
        {
          "name": "G5",
          "midi": 79,
          "time": 68.18656600000034,
          "velocity": 0.6141732283464567,
          "duration": 0.051813499999994406
        },
        {
          "name": "A4",
          "midi": 69,
          "time": 68.39382000000033,
          "velocity": 0.49606299212598426,
          "duration": 0.20725400000000604
        },
        {
          "name": "D5",
          "midi": 74,
          "time": 68.39382000000033,
          "velocity": 0.7244094488188977,
          "duration": 0.10362700000000302
        },
        {
          "name": "C5",
          "midi": 72,
          "time": 68.49744700000034,
          "velocity": 0.5039370078740157,
          "duration": 0.10362700000000302
        },
        {
          "name": "A5",
          "midi": 81,
          "time": 68.60107400000034,
          "velocity": 0.6614173228346457,
          "duration": 0.051813499999994406
        },
        {
          "name": "A4",
          "midi": 69,
          "time": 68.80832800000033,
          "velocity": 0.4566929133858268,
          "duration": 0.20725400000000604
        },
        {
          "name": "E5",
          "midi": 76,
          "time": 68.80832800000033,
          "velocity": 0.6692913385826772,
          "duration": 0.10362700000000302
        },
        {
          "name": "D5",
          "midi": 74,
          "time": 68.91195500000033,
          "velocity": 0.4566929133858268,
          "duration": 0.10362700000000302
        },
        {
          "name": "A5",
          "midi": 81,
          "time": 69.01558200000034,
          "velocity": 0.6141732283464567,
          "duration": 0.051813499999994406
        },
        {
          "name": "G4",
          "midi": 67,
          "time": 69.22283600000033,
          "velocity": 0.4645669291338583,
          "duration": 0.20725400000000604
        },
        {
          "name": "D5",
          "midi": 74,
          "time": 69.22283600000033,
          "velocity": 0.6771653543307087,
          "duration": 0.10362700000000302
        },
        {
          "name": "C5",
          "midi": 72,
          "time": 69.32646300000033,
          "velocity": 0.5039370078740157,
          "duration": 0.10362700000000302
        },
        {
          "name": "G5",
          "midi": 79,
          "time": 69.43009000000033,
          "velocity": 0.6062992125984252,
          "duration": 0.051813499999994406
        },
        {
          "name": "F4",
          "midi": 65,
          "time": 69.63734400000033,
          "velocity": 0.5118110236220472,
          "duration": 0.20725400000000604
        },
        {
          "name": "D5",
          "midi": 74,
          "time": 69.63734400000033,
          "velocity": 0.7559055118110236,
          "duration": 0.10362700000000302
        },
        {
          "name": "C5",
          "midi": 72,
          "time": 69.74097100000033,
          "velocity": 0.5433070866141733,
          "duration": 0.10362700000000302
        },
        {
          "name": "F5",
          "midi": 77,
          "time": 69.84459800000033,
          "velocity": 0.6692913385826772,
          "duration": 0.051813499999994406
        },
        {
          "name": "C5",
          "midi": 72,
          "time": 70.05185200000032,
          "velocity": 0.48031496062992124,
          "duration": 0.20725400000000604
        },
        {
          "name": "G5",
          "midi": 79,
          "time": 70.05185200000032,
          "velocity": 0.6771653543307087,
          "duration": 0.10362700000000302
        },
        {
          "name": "F5",
          "midi": 77,
          "time": 70.15547900000033,
          "velocity": 0.48031496062992124,
          "duration": 0.10362700000000302
        },
        {
          "name": "C6",
          "midi": 84,
          "time": 70.25910600000033,
          "velocity": 0.6062992125984252,
          "duration": 0.051813499999994406
        },
        {
          "name": "C5",
          "midi": 72,
          "time": 70.46636000000032,
          "velocity": 0.4330708661417323,
          "duration": 0.20725400000000604
        },
        {
          "name": "A5",
          "midi": 81,
          "time": 70.46636000000032,
          "velocity": 0.6299212598425197,
          "duration": 0.10362700000000302
        },
        {
          "name": "G5",
          "midi": 79,
          "time": 70.56998700000032,
          "velocity": 0.49606299212598426,
          "duration": 0.10362700000000302
        },
        {
          "name": "C6",
          "midi": 84,
          "time": 70.67361400000033,
          "velocity": 0.5748031496062992,
          "duration": 0.051813499999994406
        },
        {
          "name": "F4",
          "midi": 65,
          "time": 70.88086800000032,
          "velocity": 0.44881889763779526,
          "duration": 0.20725400000000604
        },
        {
          "name": "G5",
          "midi": 79,
          "time": 70.88086800000032,
          "velocity": 0.6771653543307087,
          "duration": 0.10362700000000302
        },
        {
          "name": "F5",
          "midi": 77,
          "time": 70.98449500000032,
          "velocity": 0.48031496062992124,
          "duration": 0.10362700000000302
        },
        {
          "name": "C6",
          "midi": 84,
          "time": 71.08812200000033,
          "velocity": 0.5905511811023622,
          "duration": 0.051813499999994406
        },
        {
          "name": "C6",
          "midi": 84,
          "time": 71.29537600000032,
          "velocity": 0.4251968503937008,
          "duration": 0.20725400000000604
        },
        {
          "name": "G6",
          "midi": 91,
          "time": 71.29537600000032,
          "velocity": 0.5984251968503937,
          "duration": 0.10362700000000302
        },
        {
          "name": "F6",
          "midi": 89,
          "time": 71.39900300000032,
          "velocity": 0.4251968503937008,
          "duration": 0.10362700000000302
        },
        {
          "name": "C7",
          "midi": 96,
          "time": 71.50263000000032,
          "velocity": 0.5511811023622047,
          "duration": 0.051813499999994406
        },
        {
          "name": "C6",
          "midi": 84,
          "time": 71.70988400000032,
          "velocity": 0.3858267716535433,
          "duration": 0.20725400000000604
        },
        {
          "name": "A6",
          "midi": 93,
          "time": 71.70988400000032,
          "velocity": 0.6062992125984252,
          "duration": 0.10362700000000302
        },
        {
          "name": "G6",
          "midi": 91,
          "time": 71.81351100000032,
          "velocity": 0.4566929133858268,
          "duration": 0.10362700000000302
        },
        {
          "name": "C7",
          "midi": 96,
          "time": 71.91713800000032,
          "velocity": 0.5433070866141733,
          "duration": 0.051813499999994406
        },
        {
          "name": "C6",
          "midi": 84,
          "time": 72.12439200000031,
          "velocity": 0.4566929133858268,
          "duration": 0.20725400000000604
        },
        {
          "name": "G6",
          "midi": 91,
          "time": 72.12439200000031,
          "velocity": 0.6771653543307087,
          "duration": 0.10362700000000302
        },
        {
          "name": "F6",
          "midi": 89,
          "time": 72.22801900000032,
          "velocity": 0.48031496062992124,
          "duration": 0.10362700000000302
        },
        {
          "name": "C7",
          "midi": 96,
          "time": 72.33164600000032,
          "velocity": 0.5905511811023622,
          "duration": 0.051813499999994406
        },
        {
          "name": "C5",
          "midi": 72,
          "time": 72.53890000000031,
          "velocity": 0.3464566929133858,
          "duration": 0.20725400000000604
        },
        {
          "name": "G5",
          "midi": 79,
          "time": 72.53890000000031,
          "velocity": 0.48031496062992124,
          "duration": 0.10362700000000302
        },
        {
          "name": "F5",
          "midi": 77,
          "time": 72.64252700000031,
          "velocity": 0.3858267716535433,
          "duration": 0.10362700000000302
        },
        {
          "name": "C6",
          "midi": 84,
          "time": 72.74615400000032,
          "velocity": 0.48031496062992124,
          "duration": 0.20725400000000604
        },
        {
          "name": "C5",
          "midi": 72,
          "time": 72.95340800000032,
          "velocity": 0.3464566929133858,
          "duration": 0.20725400000000604
        },
        {
          "name": "A5",
          "midi": 81,
          "time": 72.95340800000032,
          "velocity": 0.5118110236220472,
          "duration": 0.10362700000000302
        },
        {
          "name": "G5",
          "midi": 79,
          "time": 73.05703500000033,
          "velocity": 0.4251968503937008,
          "duration": 0.10362700000000302
        },
        {
          "name": "C6",
          "midi": 84,
          "time": 73.16066200000033,
          "velocity": 0.5118110236220472,
          "duration": 0.20725400000000604
        },
        {
          "name": "F4",
          "midi": 65,
          "time": 73.36791600000033,
          "velocity": 0.36220472440944884,
          "duration": 0.20725400000000604
        },
        {
          "name": "G5",
          "midi": 79,
          "time": 73.36791600000033,
          "velocity": 0.5354330708661418,
          "duration": 0.10362700000000302
        },
        {
          "name": "F5",
          "midi": 77,
          "time": 73.47154300000034,
          "velocity": 0.4251968503937008,
          "duration": 0.10362700000000302
        },
        {
          "name": "C6",
          "midi": 84,
          "time": 73.57517000000034,
          "velocity": 0.5275590551181102,
          "duration": 0.20725400000000604
        },
        {
          "name": "C6",
          "midi": 84,
          "time": 73.78242400000035,
          "velocity": 0.3464566929133858,
          "duration": 0.20725400000000604
        },
        {
          "name": "G6",
          "midi": 91,
          "time": 73.78242400000035,
          "velocity": 0.48031496062992124,
          "duration": 0.10362700000000302
        },
        {
          "name": "F6",
          "midi": 89,
          "time": 73.88605100000035,
          "velocity": 0.3858267716535433,
          "duration": 0.10362700000000302
        },
        {
          "name": "C7",
          "midi": 96,
          "time": 73.98967800000035,
          "velocity": 0.48031496062992124,
          "duration": 0.20725400000000604
        },
        {
          "name": "C6",
          "midi": 84,
          "time": 74.19693200000036,
          "velocity": 0.33070866141732286,
          "duration": 0.20725400000000604
        },
        {
          "name": "A6",
          "midi": 93,
          "time": 74.19693200000036,
          "velocity": 0.5118110236220472,
          "duration": 0.10362700000000302
        },
        {
          "name": "G6",
          "midi": 91,
          "time": 74.30055900000036,
          "velocity": 0.4251968503937008,
          "duration": 0.10362700000000302
        },
        {
          "name": "C7",
          "midi": 96,
          "time": 74.40418600000037,
          "velocity": 0.5118110236220472,
          "duration": 0.20725400000000604
        },
        {
          "name": "C6",
          "midi": 84,
          "time": 74.61144000000037,
          "velocity": 0.36220472440944884,
          "duration": 0.20725400000000604
        },
        {
          "name": "G6",
          "midi": 91,
          "time": 74.61144000000037,
          "velocity": 0.5354330708661418,
          "duration": 0.10362700000000302
        },
        {
          "name": "F6",
          "midi": 89,
          "time": 74.71506700000037,
          "velocity": 0.4251968503937008,
          "duration": 0.10362700000000302
        },
        {
          "name": "C7",
          "midi": 96,
          "time": 74.81869400000038,
          "velocity": 0.5275590551181102,
          "duration": 0.20725400000000604
        },
        {
          "name": "B5",
          "midi": 83,
          "time": 75.02594800000038,
          "velocity": 0.36220472440944884,
          "duration": 0.20725400000000604
        },
        {
          "name": "G6",
          "midi": 91,
          "time": 75.02594800000038,
          "velocity": 0.5118110236220472,
          "duration": 0.10362700000000302
        },
        {
          "name": "F#6",
          "midi": 90,
          "time": 75.12957500000039,
          "velocity": 0.36220472440944884,
          "duration": 0.10362700000000302
        },
        {
          "name": "B6",
          "midi": 95,
          "time": 75.23320200000039,
          "velocity": 0.4409448818897638,
          "duration": 0.051813499999994406
        },
        {
          "name": "B5",
          "midi": 83,
          "time": 75.44045600000038,
          "velocity": 0.3543307086614173,
          "duration": 0.20725400000000604
        },
        {
          "name": "F6",
          "midi": 89,
          "time": 75.44045600000038,
          "velocity": 0.5196850393700787,
          "duration": 0.10362700000000302
        },
        {
          "name": "E6",
          "midi": 88,
          "time": 75.54408300000038,
          "velocity": 0.3858267716535433,
          "duration": 0.10362700000000302
        },
        {
          "name": "B6",
          "midi": 95,
          "time": 75.64771000000039,
          "velocity": 0.48031496062992124,
          "duration": 0.051813499999994406
        },
        {
          "name": "A5",
          "midi": 81,
          "time": 75.85496400000038,
          "velocity": 0.36220472440944884,
          "duration": 0.20725400000000604
        },
        {
          "name": "F6",
          "midi": 89,
          "time": 75.85496400000038,
          "velocity": 0.5354330708661418,
          "duration": 0.10362700000000302
        },
        {
          "name": "E6",
          "midi": 88,
          "time": 75.95859100000038,
          "velocity": 0.3779527559055118,
          "duration": 0.10362700000000302
        },
        {
          "name": "A6",
          "midi": 93,
          "time": 76.06221800000039,
          "velocity": 0.4645669291338583,
          "duration": 0.051813499999994406
        },
        {
          "name": "A5",
          "midi": 81,
          "time": 76.26947200000038,
          "velocity": 0.3543307086614173,
          "duration": 0.20725400000000604
        },
        {
          "name": "E6",
          "midi": 88,
          "time": 76.26947200000038,
          "velocity": 0.48031496062992124,
          "duration": 0.10362700000000302
        },
        {
          "name": "D6",
          "midi": 86,
          "time": 76.37309900000038,
          "velocity": 0.3543307086614173,
          "duration": 0.10362700000000302
        },
        {
          "name": "A6",
          "midi": 93,
          "time": 76.47672600000038,
          "velocity": 0.4330708661417323,
          "duration": 0.051813499999994406
        },
        {
          "name": "G5",
          "midi": 79,
          "time": 76.68398000000037,
          "velocity": 0.33070866141732286,
          "duration": 0.20725400000000604
        },
        {
          "name": "D6",
          "midi": 86,
          "time": 76.68398000000037,
          "velocity": 0.49606299212598426,
          "duration": 0.10362700000000302
        },
        {
          "name": "C6",
          "midi": 84,
          "time": 76.78760700000038,
          "velocity": 0.3700787401574803,
          "duration": 0.10362700000000302
        },
        {
          "name": "G6",
          "midi": 91,
          "time": 76.89123400000038,
          "velocity": 0.4409448818897638,
          "duration": 0.051813499999994406
        },
        {
          "name": "F5",
          "midi": 77,
          "time": 77.09848800000037,
          "velocity": 0.33858267716535434,
          "duration": 0.20725400000000604
        },
        {
          "name": "D6",
          "midi": 86,
          "time": 77.09848800000037,
          "velocity": 0.5118110236220472,
          "duration": 0.10362700000000302
        },
        {
          "name": "C6",
          "midi": 84,
          "time": 77.20211500000038,
          "velocity": 0.36220472440944884,
          "duration": 0.10362700000000302
        },
        {
          "name": "F6",
          "midi": 89,
          "time": 77.30574200000038,
          "velocity": 0.4409448818897638,
          "duration": 0.051813499999994406
        },
        {
          "name": "B4",
          "midi": 71,
          "time": 77.51299600000037,
          "velocity": 0.33858267716535434,
          "duration": 0.20725400000000604
        },
        {
          "name": "G5",
          "midi": 79,
          "time": 77.51299600000037,
          "velocity": 0.4645669291338583,
          "duration": 0.10362700000000302
        },
        {
          "name": "F#5",
          "midi": 78,
          "time": 77.61662300000037,
          "velocity": 0.33858267716535434,
          "duration": 0.10362700000000302
        },
        {
          "name": "B5",
          "midi": 83,
          "time": 77.72025000000038,
          "velocity": 0.4251968503937008,
          "duration": 0.051813499999994406
        },
        {
          "name": "B4",
          "midi": 71,
          "time": 77.92750400000037,
          "velocity": 0.30708661417322836,
          "duration": 0.20725400000000604
        },
        {
          "name": "F5",
          "midi": 77,
          "time": 77.92750400000037,
          "velocity": 0.4566929133858268,
          "duration": 0.10362700000000302
        },
        {
          "name": "E5",
          "midi": 76,
          "time": 78.03113100000037,
          "velocity": 0.3464566929133858,
          "duration": 0.10362700000000302
        },
        {
          "name": "B5",
          "midi": 83,
          "time": 78.13475800000037,
          "velocity": 0.4251968503937008,
          "duration": 0.051813499999994406
        },
        {
          "name": "A4",
          "midi": 69,
          "time": 78.34201200000037,
          "velocity": 0.30708661417322836,
          "duration": 0.20725400000000604
        },
        {
          "name": "F5",
          "midi": 77,
          "time": 78.34201200000037,
          "velocity": 0.47244094488188976,
          "duration": 0.10362700000000302
        },
        {
          "name": "E5",
          "midi": 76,
          "time": 78.44563900000037,
          "velocity": 0.33858267716535434,
          "duration": 0.10362700000000302
        },
        {
          "name": "A5",
          "midi": 81,
          "time": 78.54926600000037,
          "velocity": 0.41732283464566927,
          "duration": 0.051813499999994406
        },
        {
          "name": "A4",
          "midi": 69,
          "time": 78.75652000000036,
          "velocity": 0.30708661417322836,
          "duration": 0.20725400000000604
        },
        {
          "name": "E5",
          "midi": 76,
          "time": 78.75652000000036,
          "velocity": 0.4566929133858268,
          "duration": 0.10362700000000302
        },
        {
          "name": "D5",
          "midi": 74,
          "time": 78.86014700000037,
          "velocity": 0.30708661417322836,
          "duration": 0.10362700000000302
        },
        {
          "name": "A5",
          "midi": 81,
          "time": 78.96377400000037,
          "velocity": 0.4015748031496063,
          "duration": 0.051813499999994406
        },
        {
          "name": "G4",
          "midi": 67,
          "time": 79.17102800000036,
          "velocity": 0.29133858267716534,
          "duration": 0.20725400000000604
        },
        {
          "name": "D5",
          "midi": 74,
          "time": 79.17102800000036,
          "velocity": 0.44881889763779526,
          "duration": 0.10362700000000302
        },
        {
          "name": "C5",
          "midi": 72,
          "time": 79.27465500000037,
          "velocity": 0.3464566929133858,
          "duration": 0.10362700000000302
        },
        {
          "name": "G5",
          "midi": 79,
          "time": 79.37828200000037,
          "velocity": 0.4251968503937008,
          "duration": 0.051813499999994406
        },
        {
          "name": "F4",
          "midi": 65,
          "time": 79.58553600000036,
          "velocity": 0.30708661417322836,
          "duration": 0.20725400000000604
        },
        {
          "name": "D5",
          "midi": 74,
          "time": 79.58553600000036,
          "velocity": 0.47244094488188976,
          "duration": 0.10362700000000302
        },
        {
          "name": "C5",
          "midi": 72,
          "time": 79.68916300000036,
          "velocity": 0.33858267716535434,
          "duration": 0.10362700000000302
        },
        {
          "name": "F5",
          "midi": 77,
          "time": 79.79279000000037,
          "velocity": 0.4251968503937008,
          "duration": 0.20725400000000604
        },
        {
          "name": "C5",
          "midi": 72,
          "time": 80.00004400000037,
          "velocity": 0.33858267716535434,
          "duration": 0.20725400000000604
        },
        {
          "name": "G5",
          "midi": 79,
          "time": 80.00004400000037,
          "velocity": 0.48031496062992124,
          "duration": 0.10362700000000302
        },
        {
          "name": "F5",
          "midi": 77,
          "time": 80.10367100000038,
          "velocity": 0.3464566929133858,
          "duration": 0.10362700000000302
        },
        {
          "name": "C6",
          "midi": 84,
          "time": 80.20729800000038,
          "velocity": 0.4330708661417323,
          "duration": 0.20725400000000604
        },
        {
          "name": "C5",
          "midi": 72,
          "time": 80.41455200000038,
          "velocity": 0.30708661417322836,
          "duration": 0.20725400000000604
        },
        {
          "name": "A5",
          "midi": 81,
          "time": 80.41455200000038,
          "velocity": 0.48031496062992124,
          "duration": 0.10362700000000302
        },
        {
          "name": "G5",
          "midi": 79,
          "time": 80.51817900000039,
          "velocity": 0.36220472440944884,
          "duration": 0.10362700000000302
        },
        {
          "name": "C6",
          "midi": 84,
          "time": 80.62180600000039,
          "velocity": 0.4645669291338583,
          "duration": 0.20725400000000604
        },
        {
          "name": "C5",
          "midi": 72,
          "time": 80.8290600000004,
          "velocity": 0.33858267716535434,
          "duration": 0.20725400000000604
        },
        {
          "name": "G5",
          "midi": 79,
          "time": 80.8290600000004,
          "velocity": 0.49606299212598426,
          "duration": 0.10362700000000302
        },
        {
          "name": "F5",
          "midi": 77,
          "time": 80.9326870000004,
          "velocity": 0.36220472440944884,
          "duration": 0.10362700000000302
        },
        {
          "name": "C6",
          "midi": 84,
          "time": 81.0363140000004,
          "velocity": 0.4409448818897638,
          "duration": 0.20725400000000604
        },
        {
          "name": "C5",
          "midi": 72,
          "time": 81.24356800000041,
          "velocity": 0.33858267716535434,
          "duration": 0.20725400000000604
        },
        {
          "name": "G5",
          "midi": 79,
          "time": 81.24356800000041,
          "velocity": 0.49606299212598426,
          "duration": 0.10362700000000302
        },
        {
          "name": "F5",
          "midi": 77,
          "time": 81.34719500000041,
          "velocity": 0.3464566929133858,
          "duration": 0.10362700000000302
        },
        {
          "name": "C6",
          "midi": 84,
          "time": 81.45082200000041,
          "velocity": 0.4251968503937008,
          "duration": 0.20725400000000604
        },
        {
          "name": "C5",
          "midi": 72,
          "time": 81.65807600000042,
          "velocity": 0.29133858267716534,
          "duration": 0.20725400000000604
        },
        {
          "name": "A5",
          "midi": 81,
          "time": 81.65807600000042,
          "velocity": 0.4566929133858268,
          "duration": 0.10362700000000302
        },
        {
          "name": "G5",
          "midi": 79,
          "time": 81.76170300000042,
          "velocity": 0.3464566929133858,
          "duration": 0.10362700000000302
        },
        {
          "name": "C6",
          "midi": 84,
          "time": 81.86533000000043,
          "velocity": 0.4251968503937008,
          "duration": 0.20725400000000604
        },
        {
          "name": "C5",
          "midi": 72,
          "time": 82.07258400000043,
          "velocity": 0.2992125984251969,
          "duration": 0.20725400000000604
        },
        {
          "name": "G5",
          "midi": 79,
          "time": 82.07258400000043,
          "velocity": 0.4645669291338583,
          "duration": 0.10362700000000302
        },
        {
          "name": "F5",
          "midi": 77,
          "time": 82.17621100000044,
          "velocity": 0.33858267716535434,
          "duration": 0.10362700000000302
        },
        {
          "name": "C6",
          "midi": 84,
          "time": 82.27983800000044,
          "velocity": 0.4251968503937008,
          "duration": 0.20725400000000604
        },
        {
          "name": "C5",
          "midi": 72,
          "time": 82.48709200000044,
          "velocity": 0.31496062992125984,
          "duration": 0.20725400000000604
        },
        {
          "name": "G5",
          "midi": 79,
          "time": 82.48709200000044,
          "velocity": 0.4566929133858268,
          "duration": 0.10362700000000302
        },
        {
          "name": "F5",
          "midi": 77,
          "time": 82.59071900000045,
          "velocity": 0.31496062992125984,
          "duration": 0.10362700000000302
        },
        {
          "name": "C6",
          "midi": 84,
          "time": 82.69434600000045,
          "velocity": 0.4094488188976378,
          "duration": 0.20725400000000604
        },
        {
          "name": "C5",
          "midi": 72,
          "time": 82.90160000000046,
          "velocity": 0.2755905511811024,
          "duration": 0.20725400000000604
        },
        {
          "name": "G5",
          "midi": 79,
          "time": 82.90160000000046,
          "velocity": 0.4409448818897638,
          "duration": 0.10362700000000302
        },
        {
          "name": "F5",
          "midi": 77,
          "time": 83.00522700000046,
          "velocity": 0.33070866141732286,
          "duration": 0.10362700000000302
        },
        {
          "name": "C6",
          "midi": 84,
          "time": 83.10885400000046,
          "velocity": 0.4015748031496063,
          "duration": 0.20725400000000604
        },
        {
          "name": "C5",
          "midi": 72,
          "time": 83.31610800000047,
          "velocity": 0.29133858267716534,
          "duration": 0.20725399999997762
        },
        {
          "name": "G5",
          "midi": 79,
          "time": 83.31610800000047,
          "velocity": 0.4409448818897638,
          "duration": 0.051813499999994406
        },
        {
          "name": "F5",
          "midi": 77,
          "time": 83.36792150000046,
          "velocity": 0.31496062992125984,
          "duration": 0.051813499999994406
        },
        {
          "name": "G5",
          "midi": 79,
          "time": 83.41973500000046,
          "velocity": 0.36220472440944884,
          "duration": 0.051813499999994406
        },
        {
          "name": "F5",
          "midi": 77,
          "time": 83.47154850000045,
          "velocity": 0.2992125984251969,
          "duration": 0.051813499999994406
        },
        {
          "name": "C6",
          "midi": 84,
          "time": 83.52336200000045,
          "velocity": 0.3858267716535433,
          "duration": 0.20725400000000604
        },
        {
          "name": "C5",
          "midi": 72,
          "time": 83.73061600000045,
          "velocity": 0.29133858267716534,
          "duration": 0.20725399999997762
        },
        {
          "name": "G5",
          "midi": 79,
          "time": 83.73061600000045,
          "velocity": 0.4251968503937008,
          "duration": 0.051813499999994406
        },
        {
          "name": "F5",
          "midi": 77,
          "time": 83.78242950000045,
          "velocity": 0.29133858267716534,
          "duration": 0.051813499999994406
        },
        {
          "name": "G5",
          "midi": 79,
          "time": 83.83424300000044,
          "velocity": 0.31496062992125984,
          "duration": 0.051813499999994406
        },
        {
          "name": "F5",
          "midi": 77,
          "time": 83.88605650000044,
          "velocity": 0.29133858267716534,
          "duration": 0.051813499999994406
        },
        {
          "name": "C6",
          "midi": 84,
          "time": 83.93787000000043,
          "velocity": 0.3700787401574803,
          "duration": 0.20725400000000604
        },
        {
          "name": "C5",
          "midi": 72,
          "time": 84.14512400000044,
          "velocity": 0.25196850393700787,
          "duration": 0.20725399999997762
        },
        {
          "name": "G5",
          "midi": 79,
          "time": 84.14512400000044,
          "velocity": 0.4015748031496063,
          "duration": 0.051813499999994406
        },
        {
          "name": "F5",
          "midi": 77,
          "time": 84.19693750000043,
          "velocity": 0.29133858267716534,
          "duration": 0.051813499999994406
        },
        {
          "name": "G5",
          "midi": 79,
          "time": 84.24875100000042,
          "velocity": 0.2992125984251969,
          "duration": 0.051813499999994406
        },
        {
          "name": "F5",
          "midi": 77,
          "time": 84.30056450000042,
          "velocity": 0.29133858267716534,
          "duration": 0.051813499999994406
        },
        {
          "name": "C6",
          "midi": 84,
          "time": 84.35237800000041,
          "velocity": 0.36220472440944884,
          "duration": 0.20725400000000604
        },
        {
          "name": "C5",
          "midi": 72,
          "time": 84.55963200000042,
          "velocity": 0.25984251968503935,
          "duration": 0.20725399999997762
        },
        {
          "name": "G5",
          "midi": 79,
          "time": 84.55963200000042,
          "velocity": 0.4015748031496063,
          "duration": 0.051813499999994406
        },
        {
          "name": "F5",
          "midi": 77,
          "time": 84.61144550000041,
          "velocity": 0.28346456692913385,
          "duration": 0.051813499999994406
        },
        {
          "name": "G5",
          "midi": 79,
          "time": 84.66325900000041,
          "velocity": 0.31496062992125984,
          "duration": 0.051813499999994406
        },
        {
          "name": "F5",
          "midi": 77,
          "time": 84.7150725000004,
          "velocity": 0.2677165354330709,
          "duration": 0.051813499999994406
        },
        {
          "name": "G5",
          "midi": 79,
          "time": 84.7668860000004,
          "velocity": 0.3779527559055118,
          "duration": 0.051813499999994406
        },
        {
          "name": "C6",
          "midi": 84,
          "time": 84.7668860000004,
          "velocity": 0.3543307086614173,
          "duration": 0.20725399999997762
        },
        {
          "name": "F5",
          "midi": 77,
          "time": 84.81869950000039,
          "velocity": 0.2677165354330709,
          "duration": 0.051813499999994406
        },
        {
          "name": "G5",
          "midi": 79,
          "time": 84.87051300000039,
          "velocity": 0.3779527559055118,
          "duration": 0.051813499999994406
        },
        {
          "name": "F5",
          "midi": 77,
          "time": 84.92232650000038,
          "velocity": 0.2677165354330709,
          "duration": 0.051813499999994406
        },
        {
          "name": "C5",
          "midi": 72,
          "time": 84.97414000000038,
          "velocity": 0.25984251968503935,
          "duration": 0.20725399999997762
        },
        {
          "name": "G5",
          "midi": 79,
          "time": 84.97414000000038,
          "velocity": 0.3700787401574803,
          "duration": 0.051813499999994406
        },
        {
          "name": "F5",
          "midi": 77,
          "time": 85.02595350000037,
          "velocity": 0.25984251968503935,
          "duration": 0.051813499999994406
        },
        {
          "name": "G5",
          "midi": 79,
          "time": 85.07776700000036,
          "velocity": 0.2755905511811024,
          "duration": 0.051813499999994406
        },
        {
          "name": "F5",
          "midi": 77,
          "time": 85.12958050000036,
          "velocity": 0.25984251968503935,
          "duration": 0.051813499999994406
        },
        {
          "name": "G5",
          "midi": 79,
          "time": 85.18139400000035,
          "velocity": 0.2755905511811024,
          "duration": 0.051813499999994406
        },
        {
          "name": "C6",
          "midi": 84,
          "time": 85.18139400000035,
          "velocity": 0.33070866141732286,
          "duration": 0.20725399999997762
        },
        {
          "name": "F5",
          "midi": 77,
          "time": 85.23320750000035,
          "velocity": 0.25984251968503935,
          "duration": 0.051813499999994406
        },
        {
          "name": "G5",
          "midi": 79,
          "time": 85.28502100000034,
          "velocity": 0.2755905511811024,
          "duration": 0.051813499999994406
        },
        {
          "name": "F5",
          "midi": 77,
          "time": 85.33683450000034,
          "velocity": 0.25196850393700787,
          "duration": 0.051813499999994406
        },
        {
          "name": "C5",
          "midi": 72,
          "time": 85.38864800000033,
          "velocity": 0.2204724409448819,
          "duration": 0.20725399999997762
        },
        {
          "name": "G5",
          "midi": 79,
          "time": 85.38864800000033,
          "velocity": 0.3543307086614173,
          "duration": 0.051813499999994406
        },
        {
          "name": "F5",
          "midi": 77,
          "time": 85.44046150000032,
          "velocity": 0.25196850393700787,
          "duration": 0.051813499999994406
        },
        {
          "name": "G5",
          "midi": 79,
          "time": 85.49227500000032,
          "velocity": 0.2677165354330709,
          "duration": 0.051813499999994406
        },
        {
          "name": "F5",
          "midi": 77,
          "time": 85.54408850000031,
          "velocity": 0.25196850393700787,
          "duration": 0.051813499999994406
        },
        {
          "name": "G5",
          "midi": 79,
          "time": 85.59590200000031,
          "velocity": 0.25984251968503935,
          "duration": 0.051813499999994406
        },
        {
          "name": "C6",
          "midi": 84,
          "time": 85.59590200000031,
          "velocity": 0.31496062992125984,
          "duration": 0.20725399999997762
        },
        {
          "name": "F5",
          "midi": 77,
          "time": 85.6477155000003,
          "velocity": 0.25196850393700787,
          "duration": 0.051813499999994406
        },
        {
          "name": "G5",
          "midi": 79,
          "time": 85.6995290000003,
          "velocity": 0.25984251968503935,
          "duration": 0.051813499999994406
        },
        {
          "name": "F5",
          "midi": 77,
          "time": 85.75134250000029,
          "velocity": 0.2440944881889764,
          "duration": 0.051813499999994406
        },
        {
          "name": "C5",
          "midi": 72,
          "time": 85.80315600000029,
          "velocity": 0.2204724409448819,
          "duration": 0.20725399999997762
        },
        {
          "name": "F5",
          "midi": 77,
          "time": 85.80315600000029,
          "velocity": 0.3543307086614173,
          "duration": 0.051813499999994406
        },
        {
          "name": "G5",
          "midi": 79,
          "time": 85.85496950000028,
          "velocity": 0.25196850393700787,
          "duration": 0.051813499999994406
        },
        {
          "name": "F5",
          "midi": 77,
          "time": 85.90678300000027,
          "velocity": 0.2677165354330709,
          "duration": 0.051813499999994406
        },
        {
          "name": "G5",
          "midi": 79,
          "time": 85.95859650000027,
          "velocity": 0.25196850393700787,
          "duration": 0.051813499999994406
        },
        {
          "name": "F5",
          "midi": 77,
          "time": 86.01041000000026,
          "velocity": 0.25984251968503935,
          "duration": 0.051813499999994406
        },
        {
          "name": "G5",
          "midi": 79,
          "time": 86.06222350000026,
          "velocity": 0.25196850393700787,
          "duration": 0.051813499999994406
        },
        {
          "name": "E5",
          "midi": 76,
          "time": 86.11403700000025,
          "velocity": 0.25984251968503935,
          "duration": 0.10362700000000302
        },
        {
          "name": "F5",
          "midi": 77,
          "time": 86.21766400000025,
          "velocity": 0.3464566929133858,
          "duration": 0.051813499999994406
        },
        {
          "name": "G#5",
          "midi": 80,
          "time": 86.26947750000025,
          "velocity": 0.3464566929133858,
          "duration": 0.051813499999994406
        },
        {
          "name": "A#5",
          "midi": 82,
          "time": 86.32129100000024,
          "velocity": 0.3543307086614173,
          "duration": 0.051813499999994406
        },
        {
          "name": "A5",
          "midi": 81,
          "time": 86.37310450000024,
          "velocity": 0.36220472440944884,
          "duration": 0.051813499999994406
        },
        {
          "name": "B5",
          "midi": 83,
          "time": 86.42491800000023,
          "velocity": 0.36220472440944884,
          "duration": 0.051813499999994406
        },
        {
          "name": "D6",
          "midi": 86,
          "time": 86.47673150000023,
          "velocity": 0.3700787401574803,
          "duration": 0.051813499999994406
        },
        {
          "name": "C6",
          "midi": 84,
          "time": 86.52854500000022,
          "velocity": 0.3779527559055118,
          "duration": 0.051813499999994406
        },
        {
          "name": "E6",
          "midi": 88,
          "time": 86.58035850000022,
          "velocity": 0.3779527559055118,
          "duration": 0.051813499999994406
        },
        {
          "name": "G6",
          "midi": 91,
          "time": 86.63217200000021,
          "velocity": 0.3858267716535433,
          "duration": 0.051813499999994406
        },
        {
          "name": "F6",
          "midi": 89,
          "time": 86.6839855000002,
          "velocity": 0.3937007874015748,
          "duration": 0.051813499999994406
        },
        {
          "name": "G#6",
          "midi": 92,
          "time": 86.7357990000002,
          "velocity": 0.3937007874015748,
          "duration": 0.051813499999994406
        },
        {
          "name": "A#6",
          "midi": 94,
          "time": 86.7876125000002,
          "velocity": 0.4015748031496063,
          "duration": 0.051813499999994406
        },
        {
          "name": "A6",
          "midi": 93,
          "time": 86.83942600000019,
          "velocity": 0.4015748031496063,
          "duration": 0.051813499999994406
        },
        {
          "name": "B6",
          "midi": 95,
          "time": 86.89123950000018,
          "velocity": 0.4094488188976378,
          "duration": 0.051813499999994406
        },
        {
          "name": "D7",
          "midi": 98,
          "time": 86.94305300000018,
          "velocity": 0.41732283464566927,
          "duration": 0.051813499999994406
        },
        {
          "name": "C7",
          "midi": 96,
          "time": 86.99486650000017,
          "velocity": 0.41732283464566927,
          "duration": 0.051813499999994406
        },
        {
          "name": "F7",
          "midi": 101,
          "time": 87.04668000000017,
          "velocity": 0.47244094488188976,
          "duration": 0.4145079999999979
        },
        {
          "name": "A3",
          "midi": 57,
          "time": 87.87569600000016,
          "velocity": 0.2440944881889764,
          "duration": 0.4145079999999979
        },
        {
          "name": "C4",
          "midi": 60,
          "time": 87.87569600000016,
          "velocity": 0.2440944881889764,
          "duration": 0.4145079999999979
        },
        {
          "name": "A4",
          "midi": 69,
          "time": 87.87569600000016,
          "velocity": 0.28346456692913385,
          "duration": 0.4145079999999979
        },
        {
          "name": "A3",
          "midi": 57,
          "time": 88.29020400000016,
          "velocity": 0.2440944881889764,
          "duration": 1.2435239999999936
        },
        {
          "name": "F4",
          "midi": 65,
          "time": 88.29020400000016,
          "velocity": 0.2440944881889764,
          "duration": 1.2435239999999936
        },
        {
          "name": "A4",
          "midi": 69,
          "time": 88.29020400000016,
          "velocity": 0.28346456692913385,
          "duration": 1.2435239999999936
        },
        {
          "name": "A3",
          "midi": 57,
          "time": 89.53372800000015,
          "velocity": 0.2440944881889764,
          "duration": 0.8290159999999958
        },
        {
          "name": "F4",
          "midi": 65,
          "time": 89.53372800000015,
          "velocity": 0.2440944881889764,
          "duration": 0.8290159999999958
        },
        {
          "name": "A4",
          "midi": 69,
          "time": 89.53372800000015,
          "velocity": 0.28346456692913385,
          "duration": 0.8290159999999958
        }
      ],
      "controlChanges": {
        "7": [
          {
            "number": 7,
            "time": 0,
            "value": 0.7874015748031497
          }
        ],
        "10": [
          {
            "number": 10,
            "time": 0,
            "value": 0.5039370078740157
          }
        ],
        "91": [
          {
            "number": 91,
            "time": 0,
            "value": 1
          }
        ]
      },
      "id": 1,
      "name": "Piano right",
      "instrumentNumber": 0,
      "instrument": "acoustic grand piano",
      "instrumentFamily": "piano",
      "channelNumber": 0,
      "isPercussion": false
    },
    {
      "startTime": 1.2435239999999999,
      "duration": 90.36274400000005,
      "length": 770,
      "notes": [
        {
          "name": "A3",
          "midi": 57,
          "time": 1.2435239999999999,
          "velocity": 0.2992125984251969,
          "duration": 0.10362699999999991
        },
        {
          "name": "C3",
          "midi": 48,
          "time": 1.2435239999999999,
          "velocity": 0.2440944881889764,
          "duration": 0.20725399999999983
        },
        {
          "name": "F3",
          "midi": 53,
          "time": 1.3471509999999998,
          "velocity": 0.2755905511811024,
          "duration": 0.10362699999999991
        },
        {
          "name": "F2",
          "midi": 41,
          "time": 1.4507779999999997,
          "velocity": 0.2440944881889764,
          "duration": 0.10362699999999991
        },
        {
          "name": "A3",
          "midi": 57,
          "time": 1.6580319999999995,
          "velocity": 0.28346456692913385,
          "duration": 0.10362699999999991
        },
        {
          "name": "C3",
          "midi": 48,
          "time": 1.6580319999999995,
          "velocity": 0.2283464566929134,
          "duration": 0.20725399999999983
        },
        {
          "name": "F3",
          "midi": 53,
          "time": 1.7616589999999994,
          "velocity": 0.25984251968503935,
          "duration": 0.10362699999999991
        },
        {
          "name": "F2",
          "midi": 41,
          "time": 1.8652859999999993,
          "velocity": 0.2283464566929134,
          "duration": 0.10362700000000014
        },
        {
          "name": "A3",
          "midi": 57,
          "time": 2.0725399999999996,
          "velocity": 0.28346456692913385,
          "duration": 0.10362700000000036
        },
        {
          "name": "C3",
          "midi": 48,
          "time": 2.0725399999999996,
          "velocity": 0.2283464566929134,
          "duration": 0.20725400000000027
        },
        {
          "name": "F3",
          "midi": 53,
          "time": 2.176167,
          "velocity": 0.25984251968503935,
          "duration": 0.10362699999999991
        },
        {
          "name": "F2",
          "midi": 41,
          "time": 2.279794,
          "velocity": 0.2204724409448819,
          "duration": 0.10362699999999991
        },
        {
          "name": "A#3",
          "midi": 58,
          "time": 2.4870479999999997,
          "velocity": 0.2992125984251969,
          "duration": 0.10362699999999991
        },
        {
          "name": "C3",
          "midi": 48,
          "time": 2.4870479999999997,
          "velocity": 0.2440944881889764,
          "duration": 0.20725399999999983
        },
        {
          "name": "E3",
          "midi": 52,
          "time": 2.5906749999999996,
          "velocity": 0.2755905511811024,
          "duration": 0.10362699999999991
        },
        {
          "name": "F2",
          "midi": 41,
          "time": 2.6943019999999995,
          "velocity": 0.23622047244094488,
          "duration": 0.10362699999999991
        },
        {
          "name": "A#3",
          "midi": 58,
          "time": 2.9015559999999994,
          "velocity": 0.25196850393700787,
          "duration": 0.10362699999999991
        },
        {
          "name": "C3",
          "midi": 48,
          "time": 2.9015559999999994,
          "velocity": 0.2283464566929134,
          "duration": 0.20725399999999983
        },
        {
          "name": "E3",
          "midi": 52,
          "time": 3.0051829999999993,
          "velocity": 0.25984251968503935,
          "duration": 0.10362699999999991
        },
        {
          "name": "F2",
          "midi": 41,
          "time": 3.108809999999999,
          "velocity": 0.2204724409448819,
          "duration": 0.10362699999999991
        },
        {
          "name": "A#3",
          "midi": 58,
          "time": 3.316063999999999,
          "velocity": 0.28346456692913385,
          "duration": 0.10362699999999991
        },
        {
          "name": "C3",
          "midi": 48,
          "time": 3.316063999999999,
          "velocity": 0.2283464566929134,
          "duration": 0.20725399999999983
        },
        {
          "name": "E3",
          "midi": 52,
          "time": 3.419690999999999,
          "velocity": 0.25984251968503935,
          "duration": 0.10362699999999991
        },
        {
          "name": "F2",
          "midi": 41,
          "time": 3.523317999999999,
          "velocity": 0.2204724409448819,
          "duration": 0.10362700000000036
        },
        {
          "name": "A3",
          "midi": 57,
          "time": 3.730571999999999,
          "velocity": 0.30708661417322836,
          "duration": 0.10362699999999991
        },
        {
          "name": "C3",
          "midi": 48,
          "time": 3.730571999999999,
          "velocity": 0.25196850393700787,
          "duration": 0.20725399999999983
        },
        {
          "name": "F3",
          "midi": 53,
          "time": 3.834198999999999,
          "velocity": 0.28346456692913385,
          "duration": 0.10362699999999991
        },
        {
          "name": "F2",
          "midi": 41,
          "time": 3.937825999999999,
          "velocity": 0.25196850393700787,
          "duration": 0.10362699999999991
        },
        {
          "name": "A3",
          "midi": 57,
          "time": 4.145079999999999,
          "velocity": 0.29133858267716534,
          "duration": 0.10362700000000036
        },
        {
          "name": "D3",
          "midi": 50,
          "time": 4.145079999999999,
          "velocity": 0.23622047244094488,
          "duration": 0.20725400000000072
        },
        {
          "name": "F3",
          "midi": 53,
          "time": 4.248707,
          "velocity": 0.2677165354330709,
          "duration": 0.10362700000000036
        },
        {
          "name": "F2",
          "midi": 41,
          "time": 4.352334,
          "velocity": 0.2283464566929134,
          "duration": 0.10362699999999947
        },
        {
          "name": "B3",
          "midi": 59,
          "time": 4.559588,
          "velocity": 0.29133858267716534,
          "duration": 0.10362700000000036
        },
        {
          "name": "D3",
          "midi": 50,
          "time": 4.559588,
          "velocity": 0.23622047244094488,
          "duration": 0.20725400000000072
        },
        {
          "name": "F3",
          "midi": 53,
          "time": 4.663215,
          "velocity": 0.2677165354330709,
          "duration": 0.10362700000000036
        },
        {
          "name": "G2",
          "midi": 43,
          "time": 4.7668420000000005,
          "velocity": 0.23622047244094488,
          "duration": 0.10362700000000036
        },
        {
          "name": "E4",
          "midi": 64,
          "time": 4.974096000000001,
          "velocity": 0.31496062992125984,
          "duration": 0.10362700000000036
        },
        {
          "name": "G3",
          "midi": 55,
          "time": 4.974096000000001,
          "velocity": 0.25984251968503935,
          "duration": 0.20725400000000072
        },
        {
          "name": "A#3",
          "midi": 58,
          "time": 5.0777230000000015,
          "velocity": 0.29133858267716534,
          "duration": 0.10362700000000036
        },
        {
          "name": "C3",
          "midi": 48,
          "time": 5.181350000000002,
          "velocity": 0.25196850393700787,
          "duration": 0.10362700000000036
        },
        {
          "name": "A#4",
          "midi": 70,
          "time": 5.388604000000003,
          "velocity": 0.2992125984251969,
          "duration": 0.10362700000000036
        },
        {
          "name": "C4",
          "midi": 60,
          "time": 5.388604000000003,
          "velocity": 0.2440944881889764,
          "duration": 0.20725400000000072
        },
        {
          "name": "E4",
          "midi": 64,
          "time": 5.492231000000003,
          "velocity": 0.2755905511811024,
          "duration": 0.10362700000000036
        },
        {
          "name": "G3",
          "midi": 55,
          "time": 5.595858000000003,
          "velocity": 0.2204724409448819,
          "duration": 0.10362700000000036
        },
        {
          "name": "E5",
          "midi": 76,
          "time": 5.803112000000004,
          "velocity": 0.2992125984251969,
          "duration": 0.10362700000000036
        },
        {
          "name": "G4",
          "midi": 67,
          "time": 5.803112000000004,
          "velocity": 0.2440944881889764,
          "duration": 0.20725400000000072
        },
        {
          "name": "A#4",
          "midi": 70,
          "time": 5.906739000000004,
          "velocity": 0.2755905511811024,
          "duration": 0.10362700000000036
        },
        {
          "name": "C4",
          "midi": 60,
          "time": 6.010366000000005,
          "velocity": 0.23622047244094488,
          "duration": 0.10362700000000036
        },
        {
          "name": "A3",
          "midi": 57,
          "time": 6.2176200000000055,
          "velocity": 0.2992125984251969,
          "duration": 0.10362700000000036
        },
        {
          "name": "C3",
          "midi": 48,
          "time": 6.2176200000000055,
          "velocity": 0.2440944881889764,
          "duration": 0.20725400000000072
        },
        {
          "name": "F3",
          "midi": 53,
          "time": 6.321247000000006,
          "velocity": 0.2755905511811024,
          "duration": 0.10362700000000036
        },
        {
          "name": "F2",
          "midi": 41,
          "time": 6.424874000000006,
          "velocity": 0.2440944881889764,
          "duration": 0.10362700000000036
        },
        {
          "name": "A3",
          "midi": 57,
          "time": 6.632128000000007,
          "velocity": 0.28346456692913385,
          "duration": 0.10362700000000036
        },
        {
          "name": "C3",
          "midi": 48,
          "time": 6.632128000000007,
          "velocity": 0.2283464566929134,
          "duration": 0.20725400000000072
        },
        {
          "name": "F3",
          "midi": 53,
          "time": 6.735755000000007,
          "velocity": 0.25984251968503935,
          "duration": 0.10362700000000036
        },
        {
          "name": "F2",
          "midi": 41,
          "time": 6.839382000000008,
          "velocity": 0.2283464566929134,
          "duration": 0.10362700000000036
        },
        {
          "name": "A3",
          "midi": 57,
          "time": 7.046636000000008,
          "velocity": 0.28346456692913385,
          "duration": 0.10362700000000036
        },
        {
          "name": "C3",
          "midi": 48,
          "time": 7.046636000000008,
          "velocity": 0.2283464566929134,
          "duration": 0.20725400000000072
        },
        {
          "name": "F3",
          "midi": 53,
          "time": 7.150263000000009,
          "velocity": 0.25984251968503935,
          "duration": 0.10362700000000036
        },
        {
          "name": "F2",
          "midi": 41,
          "time": 7.253890000000009,
          "velocity": 0.2204724409448819,
          "duration": 0.10362700000000036
        },
        {
          "name": "A#3",
          "midi": 58,
          "time": 7.46114400000001,
          "velocity": 0.2992125984251969,
          "duration": 0.10362700000000036
        },
        {
          "name": "C3",
          "midi": 48,
          "time": 7.46114400000001,
          "velocity": 0.2440944881889764,
          "duration": 0.20725400000000072
        },
        {
          "name": "E3",
          "midi": 52,
          "time": 7.56477100000001,
          "velocity": 0.2755905511811024,
          "duration": 0.10362700000000036
        },
        {
          "name": "F2",
          "midi": 41,
          "time": 7.6683980000000105,
          "velocity": 0.23622047244094488,
          "duration": 0.10362699999999947
        },
        {
          "name": "A#3",
          "midi": 58,
          "time": 7.87565200000001,
          "velocity": 0.25196850393700787,
          "duration": 0.10362700000000036
        },
        {
          "name": "C3",
          "midi": 48,
          "time": 7.87565200000001,
          "velocity": 0.2283464566929134,
          "duration": 0.20725399999999983
        },
        {
          "name": "E3",
          "midi": 52,
          "time": 7.979279000000011,
          "velocity": 0.25984251968503935,
          "duration": 0.10362699999999947
        },
        {
          "name": "F2",
          "midi": 41,
          "time": 8.08290600000001,
          "velocity": 0.2204724409448819,
          "duration": 0.10362699999999947
        },
        {
          "name": "A#3",
          "midi": 58,
          "time": 8.290160000000009,
          "velocity": 0.28346456692913385,
          "duration": 0.10362699999999947
        },
        {
          "name": "C3",
          "midi": 48,
          "time": 8.290160000000009,
          "velocity": 0.2283464566929134,
          "duration": 0.20725399999999894
        },
        {
          "name": "E3",
          "midi": 52,
          "time": 8.393787000000009,
          "velocity": 0.25984251968503935,
          "duration": 0.10362699999999947
        },
        {
          "name": "F2",
          "midi": 41,
          "time": 8.497414000000008,
          "velocity": 0.2204724409448819,
          "duration": 0.10362699999999947
        },
        {
          "name": "A3",
          "midi": 57,
          "time": 8.704668000000007,
          "velocity": 0.30708661417322836,
          "duration": 0.10362699999999947
        },
        {
          "name": "C3",
          "midi": 48,
          "time": 8.704668000000007,
          "velocity": 0.25196850393700787,
          "duration": 0.20725399999999894
        },
        {
          "name": "F3",
          "midi": 53,
          "time": 8.808295000000006,
          "velocity": 0.28346456692913385,
          "duration": 0.10362699999999947
        },
        {
          "name": "F2",
          "midi": 41,
          "time": 8.911922000000006,
          "velocity": 0.25196850393700787,
          "duration": 0.10362700000000125
        },
        {
          "name": "B3",
          "midi": 59,
          "time": 9.119176000000007,
          "velocity": 0.29133858267716534,
          "duration": 0.10362699999999947
        },
        {
          "name": "D3",
          "midi": 50,
          "time": 9.119176000000007,
          "velocity": 0.23622047244094488,
          "duration": 0.20725399999999894
        },
        {
          "name": "F3",
          "midi": 53,
          "time": 9.222803000000006,
          "velocity": 0.2677165354330709,
          "duration": 0.10362699999999947
        },
        {
          "name": "G2",
          "midi": 43,
          "time": 9.326430000000006,
          "velocity": 0.2283464566929134,
          "duration": 0.10362699999999947
        },
        {
          "name": "E4",
          "midi": 64,
          "time": 9.533684000000004,
          "velocity": 0.29133858267716534,
          "duration": 0.10362699999999947
        },
        {
          "name": "G3",
          "midi": 55,
          "time": 9.533684000000004,
          "velocity": 0.23622047244094488,
          "duration": 0.20725399999999894
        },
        {
          "name": "A#3",
          "midi": 58,
          "time": 9.637311000000004,
          "velocity": 0.2677165354330709,
          "duration": 0.10362699999999947
        },
        {
          "name": "C3",
          "midi": 48,
          "time": 9.740938000000003,
          "velocity": 0.23622047244094488,
          "duration": 0.10362699999999947
        },
        {
          "name": "A3",
          "midi": 57,
          "time": 9.948192000000002,
          "velocity": 0.31496062992125984,
          "duration": 0.10362699999999947
        },
        {
          "name": "C3",
          "midi": 48,
          "time": 9.948192000000002,
          "velocity": 0.25984251968503935,
          "duration": 0.20725399999999894
        },
        {
          "name": "F3",
          "midi": 53,
          "time": 10.051819000000002,
          "velocity": 0.29133858267716534,
          "duration": 0.10362699999999947
        },
        {
          "name": "F2",
          "midi": 41,
          "time": 10.155446000000001,
          "velocity": 0.25196850393700787,
          "duration": 0.10362699999999947
        },
        {
          "name": "A4",
          "midi": 69,
          "time": 10.3627,
          "velocity": 0.2992125984251969,
          "duration": 0.10362699999999947
        },
        {
          "name": "C4",
          "midi": 60,
          "time": 10.3627,
          "velocity": 0.2440944881889764,
          "duration": 0.20725399999999894
        },
        {
          "name": "F4",
          "midi": 65,
          "time": 10.466327,
          "velocity": 0.2755905511811024,
          "duration": 0.10362699999999947
        },
        {
          "name": "F3",
          "midi": 53,
          "time": 10.569954,
          "velocity": 0.2204724409448819,
          "duration": 0.10362699999999947
        },
        {
          "name": "A5",
          "midi": 81,
          "time": 10.777207999999998,
          "velocity": 0.2992125984251969,
          "duration": 0.10362699999999947
        },
        {
          "name": "C5",
          "midi": 72,
          "time": 10.777207999999998,
          "velocity": 0.2440944881889764,
          "duration": 0.20725399999999894
        },
        {
          "name": "F5",
          "midi": 77,
          "time": 10.880834999999998,
          "velocity": 0.2755905511811024,
          "duration": 0.10362699999999947
        },
        {
          "name": "F4",
          "midi": 65,
          "time": 10.984461999999997,
          "velocity": 0.23622047244094488,
          "duration": 0.10362699999999947
        },
        {
          "name": "A3",
          "midi": 57,
          "time": 11.191715999999996,
          "velocity": 0.2992125984251969,
          "duration": 0.10362699999999947
        },
        {
          "name": "C3",
          "midi": 48,
          "time": 11.191715999999996,
          "velocity": 0.2440944881889764,
          "duration": 0.20725399999999894
        },
        {
          "name": "F3",
          "midi": 53,
          "time": 11.295342999999995,
          "velocity": 0.2755905511811024,
          "duration": 0.10362699999999947
        },
        {
          "name": "F2",
          "midi": 41,
          "time": 11.398969999999995,
          "velocity": 0.2440944881889764,
          "duration": 0.10362699999999947
        },
        {
          "name": "A3",
          "midi": 57,
          "time": 11.606223999999994,
          "velocity": 0.28346456692913385,
          "duration": 0.10362700000000125
        },
        {
          "name": "C3",
          "midi": 48,
          "time": 11.606223999999994,
          "velocity": 0.2283464566929134,
          "duration": 0.20725400000000072
        },
        {
          "name": "F3",
          "midi": 53,
          "time": 11.709850999999995,
          "velocity": 0.25984251968503935,
          "duration": 0.10362699999999947
        },
        {
          "name": "F2",
          "midi": 41,
          "time": 11.813477999999995,
          "velocity": 0.2283464566929134,
          "duration": 0.10362699999999947
        },
        {
          "name": "A3",
          "midi": 57,
          "time": 12.020731999999994,
          "velocity": 0.28346456692913385,
          "duration": 0.10362700000000125
        },
        {
          "name": "C3",
          "midi": 48,
          "time": 12.020731999999994,
          "velocity": 0.2283464566929134,
          "duration": 0.20725400000000072
        },
        {
          "name": "F3",
          "midi": 53,
          "time": 12.124358999999995,
          "velocity": 0.25984251968503935,
          "duration": 0.10362699999999947
        },
        {
          "name": "F2",
          "midi": 41,
          "time": 12.227985999999994,
          "velocity": 0.2204724409448819,
          "duration": 0.10362700000000125
        },
        {
          "name": "A#3",
          "midi": 58,
          "time": 12.435239999999995,
          "velocity": 0.2992125984251969,
          "duration": 0.10362699999999947
        },
        {
          "name": "C3",
          "midi": 48,
          "time": 12.435239999999995,
          "velocity": 0.2440944881889764,
          "duration": 0.20725399999999894
        },
        {
          "name": "E3",
          "midi": 52,
          "time": 12.538866999999994,
          "velocity": 0.2755905511811024,
          "duration": 0.10362699999999947
        },
        {
          "name": "F2",
          "midi": 41,
          "time": 12.642493999999994,
          "velocity": 0.23622047244094488,
          "duration": 0.10362699999999947
        },
        {
          "name": "A#3",
          "midi": 58,
          "time": 12.849747999999993,
          "velocity": 0.25196850393700787,
          "duration": 0.10362699999999947
        },
        {
          "name": "C3",
          "midi": 48,
          "time": 12.849747999999993,
          "velocity": 0.2283464566929134,
          "duration": 0.20725399999999894
        },
        {
          "name": "E3",
          "midi": 52,
          "time": 12.953374999999992,
          "velocity": 0.25984251968503935,
          "duration": 0.10362699999999947
        },
        {
          "name": "F2",
          "midi": 41,
          "time": 13.057001999999992,
          "velocity": 0.2204724409448819,
          "duration": 0.10362699999999947
        },
        {
          "name": "A#3",
          "midi": 58,
          "time": 13.26425599999999,
          "velocity": 0.28346456692913385,
          "duration": 0.10362699999999947
        },
        {
          "name": "C3",
          "midi": 48,
          "time": 13.26425599999999,
          "velocity": 0.2283464566929134,
          "duration": 0.20725399999999894
        },
        {
          "name": "E3",
          "midi": 52,
          "time": 13.36788299999999,
          "velocity": 0.25984251968503935,
          "duration": 0.10362699999999947
        },
        {
          "name": "F2",
          "midi": 41,
          "time": 13.47150999999999,
          "velocity": 0.2204724409448819,
          "duration": 0.10362700000000125
        },
        {
          "name": "A3",
          "midi": 57,
          "time": 13.67876399999999,
          "velocity": 0.30708661417322836,
          "duration": 0.10362699999999947
        },
        {
          "name": "C3",
          "midi": 48,
          "time": 13.67876399999999,
          "velocity": 0.25196850393700787,
          "duration": 0.20725399999999894
        },
        {
          "name": "F3",
          "midi": 53,
          "time": 13.78239099999999,
          "velocity": 0.28346456692913385,
          "duration": 0.10362699999999947
        },
        {
          "name": "F2",
          "midi": 41,
          "time": 13.88601799999999,
          "velocity": 0.25196850393700787,
          "duration": 0.10362700000000125
        },
        {
          "name": "A3",
          "midi": 57,
          "time": 14.09327199999999,
          "velocity": 0.29133858267716534,
          "duration": 0.10362699999999947
        },
        {
          "name": "D3",
          "midi": 50,
          "time": 14.09327199999999,
          "velocity": 0.23622047244094488,
          "duration": 0.20725399999999894
        },
        {
          "name": "F3",
          "midi": 53,
          "time": 14.19689899999999,
          "velocity": 0.2677165354330709,
          "duration": 0.10362699999999947
        },
        {
          "name": "F2",
          "midi": 41,
          "time": 14.300525999999989,
          "velocity": 0.2283464566929134,
          "duration": 0.10362699999999947
        },
        {
          "name": "B3",
          "midi": 59,
          "time": 14.507779999999988,
          "velocity": 0.29133858267716534,
          "duration": 0.10362699999999947
        },
        {
          "name": "D3",
          "midi": 50,
          "time": 14.507779999999988,
          "velocity": 0.23622047244094488,
          "duration": 0.20725399999999894
        },
        {
          "name": "F3",
          "midi": 53,
          "time": 14.611406999999987,
          "velocity": 0.2677165354330709,
          "duration": 0.10362699999999947
        },
        {
          "name": "G2",
          "midi": 43,
          "time": 14.715033999999987,
          "velocity": 0.23622047244094488,
          "duration": 0.10362699999999947
        },
        {
          "name": "E4",
          "midi": 64,
          "time": 14.922287999999986,
          "velocity": 0.31496062992125984,
          "duration": 0.10362699999999947
        },
        {
          "name": "G3",
          "midi": 55,
          "time": 14.922287999999986,
          "velocity": 0.25984251968503935,
          "duration": 0.20725399999999894
        },
        {
          "name": "A#3",
          "midi": 58,
          "time": 15.025914999999985,
          "velocity": 0.29133858267716534,
          "duration": 0.10362699999999947
        },
        {
          "name": "C3",
          "midi": 48,
          "time": 15.129541999999985,
          "velocity": 0.25196850393700787,
          "duration": 0.10362699999999947
        },
        {
          "name": "A#4",
          "midi": 70,
          "time": 15.336795999999984,
          "velocity": 0.2992125984251969,
          "duration": 0.10362699999999947
        },
        {
          "name": "C4",
          "midi": 60,
          "time": 15.336795999999984,
          "velocity": 0.2440944881889764,
          "duration": 0.20725399999999894
        },
        {
          "name": "E4",
          "midi": 64,
          "time": 15.440422999999983,
          "velocity": 0.2755905511811024,
          "duration": 0.10362699999999947
        },
        {
          "name": "G3",
          "midi": 55,
          "time": 15.544049999999983,
          "velocity": 0.2204724409448819,
          "duration": 0.10362699999999947
        },
        {
          "name": "E5",
          "midi": 76,
          "time": 15.751303999999982,
          "velocity": 0.2992125984251969,
          "duration": 0.10362699999999947
        },
        {
          "name": "G4",
          "midi": 67,
          "time": 15.751303999999982,
          "velocity": 0.2440944881889764,
          "duration": 0.20725399999999894
        },
        {
          "name": "A#4",
          "midi": 70,
          "time": 15.854930999999981,
          "velocity": 0.2755905511811024,
          "duration": 0.10362699999999947
        },
        {
          "name": "C4",
          "midi": 60,
          "time": 15.95855799999998,
          "velocity": 0.23622047244094488,
          "duration": 0.10362700000000125
        },
        {
          "name": "A3",
          "midi": 57,
          "time": 16.16581199999998,
          "velocity": 0.2992125984251969,
          "duration": 0.10362699999999947
        },
        {
          "name": "C3",
          "midi": 48,
          "time": 16.16581199999998,
          "velocity": 0.2440944881889764,
          "duration": 0.20725399999999894
        },
        {
          "name": "F3",
          "midi": 53,
          "time": 16.26943899999998,
          "velocity": 0.2755905511811024,
          "duration": 0.10362699999999947
        },
        {
          "name": "F2",
          "midi": 41,
          "time": 16.37306599999998,
          "velocity": 0.2440944881889764,
          "duration": 0.10362699999999947
        },
        {
          "name": "A3",
          "midi": 57,
          "time": 16.58031999999998,
          "velocity": 0.28346456692913385,
          "duration": 0.10362699999999947
        },
        {
          "name": "C3",
          "midi": 48,
          "time": 16.58031999999998,
          "velocity": 0.2283464566929134,
          "duration": 0.20725399999999894
        },
        {
          "name": "F3",
          "midi": 53,
          "time": 16.68394699999998,
          "velocity": 0.25984251968503935,
          "duration": 0.10362699999999947
        },
        {
          "name": "F2",
          "midi": 41,
          "time": 16.787573999999978,
          "velocity": 0.2283464566929134,
          "duration": 0.10362699999999947
        },
        {
          "name": "A3",
          "midi": 57,
          "time": 16.994827999999977,
          "velocity": 0.28346456692913385,
          "duration": 0.10362699999999947
        },
        {
          "name": "C3",
          "midi": 48,
          "time": 16.994827999999977,
          "velocity": 0.2283464566929134,
          "duration": 0.20725399999999894
        },
        {
          "name": "F3",
          "midi": 53,
          "time": 17.098454999999976,
          "velocity": 0.25984251968503935,
          "duration": 0.10362699999999947
        },
        {
          "name": "F2",
          "midi": 41,
          "time": 17.202081999999976,
          "velocity": 0.2204724409448819,
          "duration": 0.10362699999999947
        },
        {
          "name": "A#3",
          "midi": 58,
          "time": 17.409335999999975,
          "velocity": 0.2992125984251969,
          "duration": 0.10362699999999947
        },
        {
          "name": "C3",
          "midi": 48,
          "time": 17.409335999999975,
          "velocity": 0.2440944881889764,
          "duration": 0.20725399999999894
        },
        {
          "name": "E3",
          "midi": 52,
          "time": 17.512962999999974,
          "velocity": 0.2755905511811024,
          "duration": 0.10362699999999947
        },
        {
          "name": "F2",
          "midi": 41,
          "time": 17.616589999999974,
          "velocity": 0.23622047244094488,
          "duration": 0.10362699999999947
        },
        {
          "name": "A#3",
          "midi": 58,
          "time": 17.823843999999973,
          "velocity": 0.25196850393700787,
          "duration": 0.10362699999999947
        },
        {
          "name": "C3",
          "midi": 48,
          "time": 17.823843999999973,
          "velocity": 0.2283464566929134,
          "duration": 0.20725399999999894
        },
        {
          "name": "E3",
          "midi": 52,
          "time": 17.927470999999972,
          "velocity": 0.25984251968503935,
          "duration": 0.10362699999999947
        },
        {
          "name": "F2",
          "midi": 41,
          "time": 18.03109799999997,
          "velocity": 0.2204724409448819,
          "duration": 0.10362699999999947
        },
        {
          "name": "A#3",
          "midi": 58,
          "time": 18.23835199999997,
          "velocity": 0.28346456692913385,
          "duration": 0.10362699999999947
        },
        {
          "name": "C3",
          "midi": 48,
          "time": 18.23835199999997,
          "velocity": 0.2283464566929134,
          "duration": 0.20725399999999894
        },
        {
          "name": "E3",
          "midi": 52,
          "time": 18.34197899999997,
          "velocity": 0.25984251968503935,
          "duration": 0.10362699999999947
        },
        {
          "name": "F2",
          "midi": 41,
          "time": 18.44560599999997,
          "velocity": 0.2204724409448819,
          "duration": 0.10362699999999947
        },
        {
          "name": "A3",
          "midi": 57,
          "time": 18.65285999999997,
          "velocity": 0.30708661417322836,
          "duration": 0.10362699999999947
        },
        {
          "name": "C3",
          "midi": 48,
          "time": 18.65285999999997,
          "velocity": 0.25196850393700787,
          "duration": 0.20725399999999894
        },
        {
          "name": "F3",
          "midi": 53,
          "time": 18.756486999999968,
          "velocity": 0.28346456692913385,
          "duration": 0.10362699999999947
        },
        {
          "name": "F2",
          "midi": 41,
          "time": 18.860113999999967,
          "velocity": 0.25196850393700787,
          "duration": 0.10362699999999947
        },
        {
          "name": "B3",
          "midi": 59,
          "time": 19.067367999999966,
          "velocity": 0.29133858267716534,
          "duration": 0.10362699999999947
        },
        {
          "name": "D3",
          "midi": 50,
          "time": 19.067367999999966,
          "velocity": 0.23622047244094488,
          "duration": 0.20725399999999894
        },
        {
          "name": "F3",
          "midi": 53,
          "time": 19.170994999999966,
          "velocity": 0.2677165354330709,
          "duration": 0.10362699999999947
        },
        {
          "name": "G2",
          "midi": 43,
          "time": 19.274621999999965,
          "velocity": 0.2283464566929134,
          "duration": 0.10362699999999947
        },
        {
          "name": "A#3",
          "midi": 58,
          "time": 19.481875999999964,
          "velocity": 0.29133858267716534,
          "duration": 0.10362699999999947
        },
        {
          "name": "C3",
          "midi": 48,
          "time": 19.481875999999964,
          "velocity": 0.23622047244094488,
          "duration": 0.20725399999999894
        },
        {
          "name": "E3",
          "midi": 52,
          "time": 19.585502999999964,
          "velocity": 0.2677165354330709,
          "duration": 0.10362699999999947
        },
        {
          "name": "C2",
          "midi": 36,
          "time": 19.689129999999963,
          "velocity": 0.23622047244094488,
          "duration": 0.10362699999999947
        },
        {
          "name": "A3",
          "midi": 57,
          "time": 19.896383999999962,
          "velocity": 0.31496062992125984,
          "duration": 0.10362699999999947
        },
        {
          "name": "C3",
          "midi": 48,
          "time": 19.896383999999962,
          "velocity": 0.25984251968503935,
          "duration": 0.20725399999999894
        },
        {
          "name": "F3",
          "midi": 53,
          "time": 20.00001099999996,
          "velocity": 0.29133858267716534,
          "duration": 0.10362699999999947
        },
        {
          "name": "F2",
          "midi": 41,
          "time": 20.10363799999996,
          "velocity": 0.25196850393700787,
          "duration": 0.10362699999999947
        },
        {
          "name": "A4",
          "midi": 69,
          "time": 20.31089199999996,
          "velocity": 0.2992125984251969,
          "duration": 0.10362699999999947
        },
        {
          "name": "C4",
          "midi": 60,
          "time": 20.31089199999996,
          "velocity": 0.2440944881889764,
          "duration": 0.20725399999999894
        },
        {
          "name": "F4",
          "midi": 65,
          "time": 20.41451899999996,
          "velocity": 0.2755905511811024,
          "duration": 0.10362699999999947
        },
        {
          "name": "F3",
          "midi": 53,
          "time": 20.51814599999996,
          "velocity": 0.2204724409448819,
          "duration": 0.10362699999999947
        },
        {
          "name": "A5",
          "midi": 81,
          "time": 20.725399999999958,
          "velocity": 0.2992125984251969,
          "duration": 0.10362699999999947
        },
        {
          "name": "C5",
          "midi": 72,
          "time": 20.725399999999958,
          "velocity": 0.2440944881889764,
          "duration": 0.20725399999999894
        },
        {
          "name": "F5",
          "midi": 77,
          "time": 20.829026999999957,
          "velocity": 0.2755905511811024,
          "duration": 0.10362699999999947
        },
        {
          "name": "F4",
          "midi": 65,
          "time": 20.932653999999957,
          "velocity": 0.23622047244094488,
          "duration": 0.10362699999999947
        },
        {
          "name": "E4",
          "midi": 64,
          "time": 21.139907999999956,
          "velocity": 0.23622047244094488,
          "duration": 0.10362699999999947
        },
        {
          "name": "G3",
          "midi": 55,
          "time": 21.139907999999956,
          "velocity": 0.1968503937007874,
          "duration": 0.20725399999999894
        },
        {
          "name": "C4",
          "midi": 60,
          "time": 21.243534999999955,
          "velocity": 0.2440944881889764,
          "duration": 0.10362699999999947
        },
        {
          "name": "C3",
          "midi": 48,
          "time": 21.347161999999955,
          "velocity": 0.2440944881889764,
          "duration": 0.20725399999999894
        },
        {
          "name": "D#4",
          "midi": 63,
          "time": 21.554415999999954,
          "velocity": 0.2283464566929134,
          "duration": 0.10362699999999947
        },
        {
          "name": "G3",
          "midi": 55,
          "time": 21.554415999999954,
          "velocity": 0.1889763779527559,
          "duration": 0.20725399999999894
        },
        {
          "name": "C4",
          "midi": 60,
          "time": 21.658042999999953,
          "velocity": 0.23622047244094488,
          "duration": 0.10362699999999947
        },
        {
          "name": "C3",
          "midi": 48,
          "time": 21.761669999999953,
          "velocity": 0.23622047244094488,
          "duration": 0.20725399999999894
        },
        {
          "name": "F4",
          "midi": 65,
          "time": 21.96892399999995,
          "velocity": 0.2440944881889764,
          "duration": 0.10362699999999947
        },
        {
          "name": "C4",
          "midi": 60,
          "time": 21.96892399999995,
          "velocity": 0.1968503937007874,
          "duration": 0.20725399999999894
        },
        {
          "name": "D#4",
          "midi": 63,
          "time": 22.07255099999995,
          "velocity": 0.25196850393700787,
          "duration": 0.10362699999999947
        },
        {
          "name": "F3",
          "midi": 53,
          "time": 22.17617799999995,
          "velocity": 0.2440944881889764,
          "duration": 0.20725399999999894
        },
        {
          "name": "D#4",
          "midi": 63,
          "time": 22.38343199999995,
          "velocity": 0.2440944881889764,
          "duration": 0.10362699999999947
        },
        {
          "name": "F3",
          "midi": 53,
          "time": 22.38343199999995,
          "velocity": 0.2047244094488189,
          "duration": 0.20725399999999894
        },
        {
          "name": "A#3",
          "midi": 58,
          "time": 22.48705899999995,
          "velocity": 0.25196850393700787,
          "duration": 0.10362699999999947
        },
        {
          "name": "A#2",
          "midi": 46,
          "time": 22.59068599999995,
          "velocity": 0.2440944881889764,
          "duration": 0.20725399999999894
        },
        {
          "name": "D4",
          "midi": 62,
          "time": 22.797939999999947,
          "velocity": 0.2283464566929134,
          "duration": 0.10362699999999947
        },
        {
          "name": "F3",
          "midi": 53,
          "time": 22.797939999999947,
          "velocity": 0.18110236220472442,
          "duration": 0.20725399999999894
        },
        {
          "name": "A#3",
          "midi": 58,
          "time": 22.901566999999947,
          "velocity": 0.23622047244094488,
          "duration": 0.10362699999999947
        },
        {
          "name": "A#2",
          "midi": 46,
          "time": 23.005193999999946,
          "velocity": 0.2283464566929134,
          "duration": 0.20725399999999894
        },
        {
          "name": "D4",
          "midi": 62,
          "time": 23.212447999999945,
          "velocity": 0.2283464566929134,
          "duration": 0.10362699999999947
        },
        {
          "name": "F3",
          "midi": 53,
          "time": 23.212447999999945,
          "velocity": 0.1889763779527559,
          "duration": 0.20725399999999894
        },
        {
          "name": "A#3",
          "midi": 58,
          "time": 23.316074999999945,
          "velocity": 0.23622047244094488,
          "duration": 0.10362699999999947
        },
        {
          "name": "A#2",
          "midi": 46,
          "time": 23.419701999999944,
          "velocity": 0.2283464566929134,
          "duration": 0.20725399999999894
        },
        {
          "name": "C#4",
          "midi": 61,
          "time": 23.626955999999943,
          "velocity": 0.23622047244094488,
          "duration": 0.10362699999999947
        },
        {
          "name": "F3",
          "midi": 53,
          "time": 23.626955999999943,
          "velocity": 0.1889763779527559,
          "duration": 0.20725399999999894
        },
        {
          "name": "A#3",
          "midi": 58,
          "time": 23.730582999999942,
          "velocity": 0.2440944881889764,
          "duration": 0.10362699999999947
        },
        {
          "name": "A#2",
          "midi": 46,
          "time": 23.834209999999942,
          "velocity": 0.2440944881889764,
          "duration": 0.20725399999999894
        },
        {
          "name": "C#4",
          "midi": 61,
          "time": 24.04146399999994,
          "velocity": 0.2283464566929134,
          "duration": 0.10362699999999947
        },
        {
          "name": "F3",
          "midi": 53,
          "time": 24.04146399999994,
          "velocity": 0.1889763779527559,
          "duration": 0.20725399999999894
        },
        {
          "name": "A#3",
          "midi": 58,
          "time": 24.14509099999994,
          "velocity": 0.23622047244094488,
          "duration": 0.10362699999999947
        },
        {
          "name": "A#2",
          "midi": 46,
          "time": 24.24871799999994,
          "velocity": 0.23622047244094488,
          "duration": 0.20725399999999894
        },
        {
          "name": "C#4",
          "midi": 61,
          "time": 24.45597199999994,
          "velocity": 0.2440944881889764,
          "duration": 0.10362699999999947
        },
        {
          "name": "D#3",
          "midi": 51,
          "time": 24.45597199999994,
          "velocity": 0.1968503937007874,
          "duration": 0.20725399999999894
        },
        {
          "name": "A#3",
          "midi": 58,
          "time": 24.55959899999994,
          "velocity": 0.25196850393700787,
          "duration": 0.10362699999999947
        },
        {
          "name": "D#2",
          "midi": 39,
          "time": 24.663225999999938,
          "velocity": 0.2440944881889764,
          "duration": 0.20725399999999894
        },
        {
          "name": "C#4",
          "midi": 61,
          "time": 24.870479999999937,
          "velocity": 0.2440944881889764,
          "duration": 0.10362699999999947
        },
        {
          "name": "D#3",
          "midi": 51,
          "time": 24.870479999999937,
          "velocity": 0.2047244094488189,
          "duration": 0.20725399999999894
        },
        {
          "name": "G#3",
          "midi": 56,
          "time": 24.974106999999936,
          "velocity": 0.25196850393700787,
          "duration": 0.10362699999999947
        },
        {
          "name": "G#2",
          "midi": 44,
          "time": 25.077733999999936,
          "velocity": 0.2440944881889764,
          "duration": 0.20725399999999894
        },
        {
          "name": "C4",
          "midi": 60,
          "time": 25.284987999999935,
          "velocity": 0.2283464566929134,
          "duration": 0.10362699999999947
        },
        {
          "name": "D#3",
          "midi": 51,
          "time": 25.284987999999935,
          "velocity": 0.18110236220472442,
          "duration": 0.20725399999999894
        },
        {
          "name": "G#3",
          "midi": 56,
          "time": 25.388614999999934,
          "velocity": 0.23622047244094488,
          "duration": 0.10362699999999947
        },
        {
          "name": "G#2",
          "midi": 44,
          "time": 25.492241999999933,
          "velocity": 0.2283464566929134,
          "duration": 0.20725399999999894
        },
        {
          "name": "C4",
          "midi": 60,
          "time": 25.699495999999932,
          "velocity": 0.2283464566929134,
          "duration": 0.10362699999999947
        },
        {
          "name": "D#3",
          "midi": 51,
          "time": 25.699495999999932,
          "velocity": 0.1889763779527559,
          "duration": 0.20725399999999894
        },
        {
          "name": "G#3",
          "midi": 56,
          "time": 25.803122999999932,
          "velocity": 0.23622047244094488,
          "duration": 0.10362699999999947
        },
        {
          "name": "G#2",
          "midi": 44,
          "time": 25.90674999999993,
          "velocity": 0.2283464566929134,
          "duration": 0.20725399999999894
        },
        {
          "name": "C4",
          "midi": 60,
          "time": 26.11400399999993,
          "velocity": 0.23622047244094488,
          "duration": 0.10362699999999947
        },
        {
          "name": "D#3",
          "midi": 51,
          "time": 26.11400399999993,
          "velocity": 0.1889763779527559,
          "duration": 0.20725399999999894
        },
        {
          "name": "G#3",
          "midi": 56,
          "time": 26.21763099999993,
          "velocity": 0.2440944881889764,
          "duration": 0.10362699999999947
        },
        {
          "name": "G2",
          "midi": 43,
          "time": 26.32125799999993,
          "velocity": 0.2440944881889764,
          "duration": 0.20725399999999894
        },
        {
          "name": "C4",
          "midi": 60,
          "time": 26.528511999999928,
          "velocity": 0.2283464566929134,
          "duration": 0.10362699999999947
        },
        {
          "name": "D#3",
          "midi": 51,
          "time": 26.528511999999928,
          "velocity": 0.1889763779527559,
          "duration": 0.20725399999999894
        },
        {
          "name": "G#3",
          "midi": 56,
          "time": 26.632138999999928,
          "velocity": 0.23622047244094488,
          "duration": 0.10362699999999947
        },
        {
          "name": "G2",
          "midi": 43,
          "time": 26.735765999999927,
          "velocity": 0.23622047244094488,
          "duration": 0.20725399999999894
        },
        {
          "name": "C4",
          "midi": 60,
          "time": 26.943019999999926,
          "velocity": 0.2440944881889764,
          "duration": 0.10362699999999947
        },
        {
          "name": "D#3",
          "midi": 51,
          "time": 26.943019999999926,
          "velocity": 0.1968503937007874,
          "duration": 0.20725399999999894
        },
        {
          "name": "G#3",
          "midi": 56,
          "time": 27.046646999999925,
          "velocity": 0.25196850393700787,
          "duration": 0.10362699999999947
        },
        {
          "name": "G2",
          "midi": 43,
          "time": 27.150273999999925,
          "velocity": 0.2440944881889764,
          "duration": 0.20725399999999894
        },
        {
          "name": "C4",
          "midi": 60,
          "time": 27.357527999999924,
          "velocity": 0.2125984251968504,
          "duration": 0.10362699999999947
        },
        {
          "name": "D3",
          "midi": 50,
          "time": 27.357527999999924,
          "velocity": 0.18110236220472442,
          "duration": 0.20725399999999894
        },
        {
          "name": "G3",
          "midi": 55,
          "time": 27.461154999999923,
          "velocity": 0.2440944881889764,
          "duration": 0.10362699999999947
        },
        {
          "name": "G2",
          "midi": 43,
          "time": 27.564781999999923,
          "velocity": 0.23622047244094488,
          "duration": 0.20725399999999894
        },
        {
          "name": "B3",
          "midi": 59,
          "time": 27.772035999999922,
          "velocity": 0.2283464566929134,
          "duration": 0.10362699999999947
        },
        {
          "name": "D3",
          "midi": 50,
          "time": 27.772035999999922,
          "velocity": 0.18110236220472442,
          "duration": 0.20725399999999894
        },
        {
          "name": "G3",
          "midi": 55,
          "time": 27.87566299999992,
          "velocity": 0.23622047244094488,
          "duration": 0.10362699999999947
        },
        {
          "name": "G2",
          "midi": 43,
          "time": 27.97928999999992,
          "velocity": 0.2283464566929134,
          "duration": 0.20725399999999894
        },
        {
          "name": "B3",
          "midi": 59,
          "time": 28.18654399999992,
          "velocity": 0.2283464566929134,
          "duration": 0.10362699999999947
        },
        {
          "name": "D3",
          "midi": 50,
          "time": 28.18654399999992,
          "velocity": 0.1889763779527559,
          "duration": 0.20725399999999894
        },
        {
          "name": "G3",
          "midi": 55,
          "time": 28.29017099999992,
          "velocity": 0.23622047244094488,
          "duration": 0.10362699999999947
        },
        {
          "name": "G2",
          "midi": 43,
          "time": 28.39379799999992,
          "velocity": 0.2283464566929134,
          "duration": 0.20725399999999894
        },
        {
          "name": "C4",
          "midi": 60,
          "time": 28.601051999999918,
          "velocity": 0.1968503937007874,
          "duration": 0.10362699999999947
        },
        {
          "name": "D#3",
          "midi": 51,
          "time": 28.601051999999918,
          "velocity": 0.14173228346456693,
          "duration": 0.20725399999999894
        },
        {
          "name": "G#3",
          "midi": 56,
          "time": 28.704678999999917,
          "velocity": 0.2047244094488189,
          "duration": 0.10362699999999947
        },
        {
          "name": "G2",
          "midi": 43,
          "time": 28.808305999999916,
          "velocity": 0.2047244094488189,
          "duration": 0.20725399999999894
        },
        {
          "name": "C5",
          "midi": 72,
          "time": 29.015559999999915,
          "velocity": 0.2204724409448819,
          "duration": 0.10362699999999947
        },
        {
          "name": "D#4",
          "midi": 63,
          "time": 29.015559999999915,
          "velocity": 0.1732283464566929,
          "duration": 0.20725399999999894
        },
        {
          "name": "G#4",
          "midi": 68,
          "time": 29.119186999999915,
          "velocity": 0.2283464566929134,
          "duration": 0.10362699999999947
        },
        {
          "name": "G3",
          "midi": 55,
          "time": 29.222813999999914,
          "velocity": 0.2204724409448819,
          "duration": 0.20725399999999894
        },
        {
          "name": "C5",
          "midi": 72,
          "time": 29.430067999999913,
          "velocity": 0.2283464566929134,
          "duration": 0.10362699999999947
        },
        {
          "name": "D#4",
          "midi": 63,
          "time": 29.430067999999913,
          "velocity": 0.18110236220472442,
          "duration": 0.20725399999999894
        },
        {
          "name": "G#4",
          "midi": 68,
          "time": 29.533694999999913,
          "velocity": 0.23622047244094488,
          "duration": 0.10362699999999947
        },
        {
          "name": "G3",
          "midi": 55,
          "time": 29.637321999999912,
          "velocity": 0.2283464566929134,
          "duration": 0.20725399999999894
        },
        {
          "name": "C5",
          "midi": 72,
          "time": 29.84457599999991,
          "velocity": 0.2204724409448819,
          "duration": 0.10362700000000302
        },
        {
          "name": "D4",
          "midi": 62,
          "time": 29.84457599999991,
          "velocity": 0.18110236220472442,
          "duration": 0.2072540000000025
        },
        {
          "name": "G4",
          "midi": 67,
          "time": 29.948202999999914,
          "velocity": 0.2283464566929134,
          "duration": 0.10362699999999947
        },
        {
          "name": "G3",
          "midi": 55,
          "time": 30.051829999999914,
          "velocity": 0.2204724409448819,
          "duration": 0.20725399999999894
        },
        {
          "name": "B4",
          "midi": 71,
          "time": 30.259083999999913,
          "velocity": 0.2204724409448819,
          "duration": 0.10362699999999947
        },
        {
          "name": "D4",
          "midi": 62,
          "time": 30.259083999999913,
          "velocity": 0.16535433070866143,
          "duration": 0.20725399999999894
        },
        {
          "name": "G4",
          "midi": 67,
          "time": 30.362710999999912,
          "velocity": 0.2283464566929134,
          "duration": 0.10362699999999947
        },
        {
          "name": "G3",
          "midi": 55,
          "time": 30.46633799999991,
          "velocity": 0.2125984251968504,
          "duration": 0.20725399999999894
        },
        {
          "name": "B4",
          "midi": 71,
          "time": 30.67359199999991,
          "velocity": 0.2204724409448819,
          "duration": 0.10362699999999947
        },
        {
          "name": "D4",
          "midi": 62,
          "time": 30.67359199999991,
          "velocity": 0.1732283464566929,
          "duration": 0.20725399999999894
        },
        {
          "name": "G4",
          "midi": 67,
          "time": 30.77721899999991,
          "velocity": 0.2283464566929134,
          "duration": 0.10362699999999947
        },
        {
          "name": "G3",
          "midi": 55,
          "time": 30.88084599999991,
          "velocity": 0.2125984251968504,
          "duration": 0.20725399999999894
        },
        {
          "name": "B4",
          "midi": 71,
          "time": 31.08809999999991,
          "velocity": 0.2125984251968504,
          "duration": 0.10362699999999947
        },
        {
          "name": "D4",
          "midi": 62,
          "time": 31.08809999999991,
          "velocity": 0.14960629921259844,
          "duration": 0.20725399999999894
        },
        {
          "name": "F#4",
          "midi": 66,
          "time": 31.191726999999908,
          "velocity": 0.2204724409448819,
          "duration": 0.10362699999999947
        },
        {
          "name": "F#3",
          "midi": 54,
          "time": 31.295353999999907,
          "velocity": 0.2125984251968504,
          "duration": 0.20725399999999894
        },
        {
          "name": "B3",
          "midi": 59,
          "time": 31.502607999999906,
          "velocity": 0.1968503937007874,
          "duration": 0.10362699999999947
        },
        {
          "name": "D3",
          "midi": 50,
          "time": 31.502607999999906,
          "velocity": 0.14173228346456693,
          "duration": 0.20725399999999894
        },
        {
          "name": "F#3",
          "midi": 54,
          "time": 31.606234999999906,
          "velocity": 0.2047244094488189,
          "duration": 0.10362699999999947
        },
        {
          "name": "F#2",
          "midi": 42,
          "time": 31.709861999999905,
          "velocity": 0.1968503937007874,
          "duration": 0.20725399999999894
        },
        {
          "name": "C#4",
          "midi": 61,
          "time": 31.917115999999904,
          "velocity": 0.2047244094488189,
          "duration": 0.10362699999999947
        },
        {
          "name": "D3",
          "midi": 50,
          "time": 31.917115999999904,
          "velocity": 0.14960629921259844,
          "duration": 0.2072540000000025
        },
        {
          "name": "F#3",
          "midi": 54,
          "time": 32.020742999999904,
          "velocity": 0.2125984251968504,
          "duration": 0.10362700000000302
        },
        {
          "name": "F#2",
          "midi": 42,
          "time": 32.12436999999991,
          "velocity": 0.2047244094488189,
          "duration": 0.20725399999999894
        },
        {
          "name": "B3",
          "midi": 59,
          "time": 32.331623999999906,
          "velocity": 0.1968503937007874,
          "duration": 0.10362699999999592
        },
        {
          "name": "C#3",
          "midi": 49,
          "time": 32.331623999999906,
          "velocity": 0.14960629921259844,
          "duration": 0.20725399999999894
        },
        {
          "name": "F#3",
          "midi": 54,
          "time": 32.4352509999999,
          "velocity": 0.2047244094488189,
          "duration": 0.10362700000000302
        },
        {
          "name": "F#2",
          "midi": 42,
          "time": 32.538877999999904,
          "velocity": 0.1968503937007874,
          "duration": 0.20725399999999894
        },
        {
          "name": "A#3",
          "midi": 58,
          "time": 32.7461319999999,
          "velocity": 0.1968503937007874,
          "duration": 0.10362699999999592
        },
        {
          "name": "C#3",
          "midi": 49,
          "time": 32.7461319999999,
          "velocity": 0.14173228346456693,
          "duration": 0.20725399999999894
        },
        {
          "name": "F#3",
          "midi": 54,
          "time": 32.8497589999999,
          "velocity": 0.2047244094488189,
          "duration": 0.10362700000000302
        },
        {
          "name": "F#2",
          "midi": 42,
          "time": 32.9533859999999,
          "velocity": 0.1889763779527559,
          "duration": 0.20725399999999894
        },
        {
          "name": "A#3",
          "midi": 58,
          "time": 33.1606399999999,
          "velocity": 0.1968503937007874,
          "duration": 0.10362700000000302
        },
        {
          "name": "C#3",
          "midi": 49,
          "time": 33.1606399999999,
          "velocity": 0.14173228346456693,
          "duration": 0.20725400000000604
        },
        {
          "name": "F#3",
          "midi": 54,
          "time": 33.264266999999904,
          "velocity": 0.2047244094488189,
          "duration": 0.10362700000000302
        },
        {
          "name": "F#2",
          "midi": 42,
          "time": 33.36789399999991,
          "velocity": 0.1889763779527559,
          "duration": 0.20725399999999894
        },
        {
          "name": "G3",
          "midi": 55,
          "time": 33.575147999999906,
          "velocity": 0.2283464566929134,
          "duration": 0.10362700000000302
        },
        {
          "name": "D3",
          "midi": 50,
          "time": 33.575147999999906,
          "velocity": 0.18110236220472442,
          "duration": 0.20725400000000604
        },
        {
          "name": "F#3",
          "midi": 54,
          "time": 33.67877499999991,
          "velocity": 0.23622047244094488,
          "duration": 0.10362700000000302
        },
        {
          "name": "F#2",
          "midi": 42,
          "time": 33.78240199999991,
          "velocity": 0.23622047244094488,
          "duration": 0.20725399999999894
        },
        {
          "name": "G3",
          "midi": 55,
          "time": 33.98965599999991,
          "velocity": 0.2283464566929134,
          "duration": 0.10362700000000302
        },
        {
          "name": "D3",
          "midi": 50,
          "time": 33.98965599999991,
          "velocity": 0.18110236220472442,
          "duration": 0.20725400000000604
        },
        {
          "name": "F#3",
          "midi": 54,
          "time": 34.093282999999914,
          "velocity": 0.2440944881889764,
          "duration": 0.10362700000000302
        },
        {
          "name": "F#2",
          "midi": 42,
          "time": 34.19690999999992,
          "velocity": 0.2283464566929134,
          "duration": 0.20725399999999894
        },
        {
          "name": "G3",
          "midi": 55,
          "time": 34.404163999999916,
          "velocity": 0.2440944881889764,
          "duration": 0.10362699999999592
        },
        {
          "name": "E3",
          "midi": 52,
          "time": 34.404163999999916,
          "velocity": 0.1968503937007874,
          "duration": 0.20725399999999894
        },
        {
          "name": "F#3",
          "midi": 54,
          "time": 34.50779099999991,
          "velocity": 0.25196850393700787,
          "duration": 0.10362700000000302
        },
        {
          "name": "F#2",
          "midi": 42,
          "time": 34.611417999999915,
          "velocity": 0.2440944881889764,
          "duration": 0.20725399999999894
        },
        {
          "name": "G3",
          "midi": 55,
          "time": 34.818671999999914,
          "velocity": 0.2440944881889764,
          "duration": 0.10362700000000302
        },
        {
          "name": "D3",
          "midi": 50,
          "time": 34.818671999999914,
          "velocity": 0.1968503937007874,
          "duration": 0.20725400000000604
        },
        {
          "name": "F#3",
          "midi": 54,
          "time": 34.92229899999992,
          "velocity": 0.25196850393700787,
          "duration": 0.10362700000000302
        },
        {
          "name": "F#2",
          "midi": 42,
          "time": 35.02592599999992,
          "velocity": 0.2283464566929134,
          "duration": 0.20725399999999894
        },
        {
          "name": "G3",
          "midi": 55,
          "time": 35.23317999999992,
          "velocity": 0.2283464566929134,
          "duration": 0.10362699999999592
        },
        {
          "name": "C#3",
          "midi": 49,
          "time": 35.23317999999992,
          "velocity": 0.1732283464566929,
          "duration": 0.20725399999999894
        },
        {
          "name": "F#3",
          "midi": 54,
          "time": 35.336806999999915,
          "velocity": 0.23622047244094488,
          "duration": 0.10362700000000302
        },
        {
          "name": "F#2",
          "midi": 42,
          "time": 35.44043399999992,
          "velocity": 0.2204724409448819,
          "duration": 0.20725399999999894
        },
        {
          "name": "F#3",
          "midi": 54,
          "time": 35.64768799999992,
          "velocity": 0.2283464566929134,
          "duration": 0.10362700000000302
        },
        {
          "name": "C#3",
          "midi": 49,
          "time": 35.64768799999992,
          "velocity": 0.18110236220472442,
          "duration": 0.20725400000000604
        },
        {
          "name": "E3",
          "midi": 52,
          "time": 35.75131499999992,
          "velocity": 0.23622047244094488,
          "duration": 0.10362700000000302
        },
        {
          "name": "F#2",
          "midi": 42,
          "time": 35.85494199999992,
          "velocity": 0.2125984251968504,
          "duration": 0.20725400000000604
        },
        {
          "name": "D#3",
          "midi": 51,
          "time": 36.06219599999993,
          "velocity": 0.33070866141732286,
          "duration": 0.10362700000000302
        },
        {
          "name": "F#2",
          "midi": 42,
          "time": 36.16582299999993,
          "velocity": 0.2992125984251969,
          "duration": 0.10362700000000302
        },
        {
          "name": "B1",
          "midi": 35,
          "time": 36.269449999999935,
          "velocity": 0.2677165354330709,
          "duration": 0.20725399999999894
        },
        {
          "name": "D#3",
          "midi": 51,
          "time": 36.476703999999934,
          "velocity": 0.30708661417322836,
          "duration": 0.10362700000000302
        },
        {
          "name": "F#2",
          "midi": 42,
          "time": 36.58033099999994,
          "velocity": 0.28346456692913385,
          "duration": 0.10362700000000302
        },
        {
          "name": "B1",
          "midi": 35,
          "time": 36.68395799999994,
          "velocity": 0.2440944881889764,
          "duration": 0.20725399999999894
        },
        {
          "name": "D#3",
          "midi": 51,
          "time": 36.89121199999994,
          "velocity": 0.30708661417322836,
          "duration": 0.10362699999999592
        },
        {
          "name": "F#2",
          "midi": 42,
          "time": 36.994838999999935,
          "velocity": 0.28346456692913385,
          "duration": 0.10362700000000302
        },
        {
          "name": "B1",
          "midi": 35,
          "time": 37.09846599999994,
          "velocity": 0.23622047244094488,
          "duration": 0.20725399999999894
        },
        {
          "name": "E3",
          "midi": 52,
          "time": 37.30571999999994,
          "velocity": 0.33070866141732286,
          "duration": 0.10362699999999592
        },
        {
          "name": "F#2",
          "midi": 42,
          "time": 37.40934699999993,
          "velocity": 0.2992125984251969,
          "duration": 0.10362700000000302
        },
        {
          "name": "B1",
          "midi": 35,
          "time": 37.512973999999936,
          "velocity": 0.25196850393700787,
          "duration": 0.20725399999999894
        },
        {
          "name": "E3",
          "midi": 52,
          "time": 37.720227999999935,
          "velocity": 0.31496062992125984,
          "duration": 0.10362699999999592
        },
        {
          "name": "F#2",
          "midi": 42,
          "time": 37.82385499999993,
          "velocity": 0.29133858267716534,
          "duration": 0.10362700000000302
        },
        {
          "name": "B1",
          "midi": 35,
          "time": 37.927481999999934,
          "velocity": 0.2440944881889764,
          "duration": 0.20725399999999894
        },
        {
          "name": "E3",
          "midi": 52,
          "time": 38.13473599999993,
          "velocity": 0.30708661417322836,
          "duration": 0.10362700000000302
        },
        {
          "name": "F#2",
          "midi": 42,
          "time": 38.238362999999936,
          "velocity": 0.28346456692913385,
          "duration": 0.10362700000000302
        },
        {
          "name": "B1",
          "midi": 35,
          "time": 38.34198999999994,
          "velocity": 0.23622047244094488,
          "duration": 0.20725399999999894
        },
        {
          "name": "D#3",
          "midi": 51,
          "time": 38.54924399999994,
          "velocity": 0.33858267716535434,
          "duration": 0.10362700000000302
        },
        {
          "name": "F#2",
          "midi": 42,
          "time": 38.65287099999994,
          "velocity": 0.30708661417322836,
          "duration": 0.10362700000000302
        },
        {
          "name": "B1",
          "midi": 35,
          "time": 38.756497999999944,
          "velocity": 0.2755905511811024,
          "duration": 0.20725399999999894
        },
        {
          "name": "D#3",
          "midi": 51,
          "time": 38.96375199999994,
          "velocity": 0.31496062992125984,
          "duration": 0.10362700000000302
        },
        {
          "name": "F#2",
          "midi": 42,
          "time": 39.067378999999946,
          "velocity": 0.29133858267716534,
          "duration": 0.10362700000000302
        },
        {
          "name": "B1",
          "midi": 35,
          "time": 39.17100599999995,
          "velocity": 0.2440944881889764,
          "duration": 0.20725399999999894
        },
        {
          "name": "F3",
          "midi": 53,
          "time": 39.37825999999995,
          "velocity": 0.31496062992125984,
          "duration": 0.10362699999999592
        },
        {
          "name": "B2",
          "midi": 47,
          "time": 39.481886999999944,
          "velocity": 0.29133858267716534,
          "duration": 0.10362700000000302
        },
        {
          "name": "C#2",
          "midi": 37,
          "time": 39.58551399999995,
          "velocity": 0.25196850393700787,
          "duration": 0.20725399999999894
        },
        {
          "name": "A#3",
          "midi": 58,
          "time": 39.792767999999946,
          "velocity": 0.3464566929133858,
          "duration": 0.10362700000000302
        },
        {
          "name": "C#3",
          "midi": 49,
          "time": 39.792767999999946,
          "velocity": 0.28346456692913385,
          "duration": 0.20725400000000604
        },
        {
          "name": "E3",
          "midi": 52,
          "time": 39.89639499999995,
          "velocity": 0.31496062992125984,
          "duration": 0.10362700000000302
        },
        {
          "name": "F#2",
          "midi": 42,
          "time": 40.00002199999995,
          "velocity": 0.2755905511811024,
          "duration": 0.20725399999999894
        },
        {
          "name": "E4",
          "midi": 64,
          "time": 40.20727599999995,
          "velocity": 0.33070866141732286,
          "duration": 0.10362700000000302
        },
        {
          "name": "F#3",
          "midi": 54,
          "time": 40.20727599999995,
          "velocity": 0.2677165354330709,
          "duration": 0.20725400000000604
        },
        {
          "name": "A#3",
          "midi": 58,
          "time": 40.31090299999995,
          "velocity": 0.2992125984251969,
          "duration": 0.10362700000000302
        },
        {
          "name": "C#3",
          "midi": 49,
          "time": 40.41452999999996,
          "velocity": 0.23622047244094488,
          "duration": 0.20725399999999894
        },
        {
          "name": "A#4",
          "midi": 70,
          "time": 40.621783999999955,
          "velocity": 0.33070866141732286,
          "duration": 0.10362700000000302
        },
        {
          "name": "C#4",
          "midi": 61,
          "time": 40.621783999999955,
          "velocity": 0.2677165354330709,
          "duration": 0.20725400000000604
        },
        {
          "name": "E4",
          "midi": 64,
          "time": 40.72541099999996,
          "velocity": 0.2992125984251969,
          "duration": 0.10362700000000302
        },
        {
          "name": "F#3",
          "midi": 54,
          "time": 40.82903799999996,
          "velocity": 0.25196850393700787,
          "duration": 0.18134725000000174
        },
        {
          "name": "D#3",
          "midi": 51,
          "time": 41.03629199999996,
          "velocity": 0.33070866141732286,
          "duration": 0.10362700000000302
        },
        {
          "name": "F#2",
          "midi": 42,
          "time": 41.13991899999996,
          "velocity": 0.2992125984251969,
          "duration": 0.10362700000000302
        },
        {
          "name": "B1",
          "midi": 35,
          "time": 41.24354599999997,
          "velocity": 0.2677165354330709,
          "duration": 0.20725399999999894
        },
        {
          "name": "D#3",
          "midi": 51,
          "time": 41.450799999999965,
          "velocity": 0.30708661417322836,
          "duration": 0.10362699999999592
        },
        {
          "name": "F#2",
          "midi": 42,
          "time": 41.55442699999996,
          "velocity": 0.28346456692913385,
          "duration": 0.10362700000000302
        },
        {
          "name": "B1",
          "midi": 35,
          "time": 41.658053999999964,
          "velocity": 0.2440944881889764,
          "duration": 0.20725399999999894
        },
        {
          "name": "D#3",
          "midi": 51,
          "time": 41.86530799999996,
          "velocity": 0.30708661417322836,
          "duration": 0.10362700000000302
        },
        {
          "name": "F#2",
          "midi": 42,
          "time": 41.968934999999966,
          "velocity": 0.28346456692913385,
          "duration": 0.10362700000000302
        },
        {
          "name": "B1",
          "midi": 35,
          "time": 42.07256199999997,
          "velocity": 0.23622047244094488,
          "duration": 0.20725399999999894
        },
        {
          "name": "E3",
          "midi": 52,
          "time": 42.27981599999997,
          "velocity": 0.33070866141732286,
          "duration": 0.10362700000000302
        },
        {
          "name": "F#2",
          "midi": 42,
          "time": 42.38344299999997,
          "velocity": 0.2992125984251969,
          "duration": 0.10362700000000302
        },
        {
          "name": "B1",
          "midi": 35,
          "time": 42.487069999999974,
          "velocity": 0.25196850393700787,
          "duration": 0.20725399999999894
        },
        {
          "name": "E3",
          "midi": 52,
          "time": 42.69432399999997,
          "velocity": 0.31496062992125984,
          "duration": 0.10362699999999592
        },
        {
          "name": "F#2",
          "midi": 42,
          "time": 42.79795099999997,
          "velocity": 0.29133858267716534,
          "duration": 0.10362700000000302
        },
        {
          "name": "B1",
          "midi": 35,
          "time": 42.90157799999997,
          "velocity": 0.2440944881889764,
          "duration": 0.20725399999999894
        },
        {
          "name": "E3",
          "midi": 52,
          "time": 43.10883199999997,
          "velocity": 0.30708661417322836,
          "duration": 0.10362700000000302
        },
        {
          "name": "F#2",
          "midi": 42,
          "time": 43.212458999999974,
          "velocity": 0.28346456692913385,
          "duration": 0.10362700000000302
        },
        {
          "name": "B1",
          "midi": 35,
          "time": 43.31608599999998,
          "velocity": 0.23622047244094488,
          "duration": 0.20725399999999894
        },
        {
          "name": "D#3",
          "midi": 51,
          "time": 43.523339999999976,
          "velocity": 0.33858267716535434,
          "duration": 0.10362700000000302
        },
        {
          "name": "F#2",
          "midi": 42,
          "time": 43.62696699999998,
          "velocity": 0.30708661417322836,
          "duration": 0.10362700000000302
        },
        {
          "name": "B1",
          "midi": 35,
          "time": 43.73059399999998,
          "velocity": 0.2755905511811024,
          "duration": 0.20725399999999894
        },
        {
          "name": "F3",
          "midi": 53,
          "time": 43.93784799999998,
          "velocity": 0.31496062992125984,
          "duration": 0.10362700000000302
        },
        {
          "name": "B2",
          "midi": 47,
          "time": 44.041474999999984,
          "velocity": 0.29133858267716534,
          "duration": 0.10362700000000302
        },
        {
          "name": "C#2",
          "midi": 37,
          "time": 44.14510199999999,
          "velocity": 0.2440944881889764,
          "duration": 0.20725399999999894
        },
        {
          "name": "A#3",
          "midi": 58,
          "time": 44.352355999999986,
          "velocity": 0.31496062992125984,
          "duration": 0.10362700000000302
        },
        {
          "name": "E3",
          "midi": 52,
          "time": 44.45598299999999,
          "velocity": 0.29133858267716534,
          "duration": 0.10362700000000302
        },
        {
          "name": "F#2",
          "midi": 42,
          "time": 44.55960999999999,
          "velocity": 0.25196850393700787,
          "duration": 0.20725399999999894
        },
        {
          "name": "D#3",
          "midi": 51,
          "time": 44.76686399999999,
          "velocity": 0.3464566929133858,
          "duration": 0.10362700000000302
        },
        {
          "name": "F#2",
          "midi": 42,
          "time": 44.870490999999994,
          "velocity": 0.31496062992125984,
          "duration": 0.10362700000000302
        },
        {
          "name": "B1",
          "midi": 35,
          "time": 44.974118,
          "velocity": 0.2755905511811024,
          "duration": 0.20725399999999894
        },
        {
          "name": "D#4",
          "midi": 63,
          "time": 45.181371999999996,
          "velocity": 0.33070866141732286,
          "duration": 0.10362700000000302
        },
        {
          "name": "F#3",
          "midi": 54,
          "time": 45.284999,
          "velocity": 0.2992125984251969,
          "duration": 0.10362700000000302
        },
        {
          "name": "B2",
          "midi": 47,
          "time": 45.388626,
          "velocity": 0.23622047244094488,
          "duration": 0.20725399999999894
        },
        {
          "name": "D#5",
          "midi": 75,
          "time": 45.59588,
          "velocity": 0.33070866141732286,
          "duration": 0.10362700000000302
        },
        {
          "name": "F#4",
          "midi": 66,
          "time": 45.699507000000004,
          "velocity": 0.2992125984251969,
          "duration": 0.10362700000000302
        },
        {
          "name": "B3",
          "midi": 59,
          "time": 45.80313400000001,
          "velocity": 0.25196850393700787,
          "duration": 0.18134725000000174
        },
        {
          "name": "A#3",
          "midi": 58,
          "time": 46.010388000000006,
          "velocity": 0.25984251968503935,
          "duration": 0.10362700000000302
        },
        {
          "name": "C#3",
          "midi": 49,
          "time": 46.11401500000001,
          "velocity": 0.2677165354330709,
          "duration": 0.10362700000000302
        },
        {
          "name": "F#2",
          "midi": 42,
          "time": 46.21764200000001,
          "velocity": 0.2440944881889764,
          "duration": 0.20725399999999894
        },
        {
          "name": "A3",
          "midi": 57,
          "time": 46.42489600000001,
          "velocity": 0.25196850393700787,
          "duration": 0.10362700000000302
        },
        {
          "name": "C#3",
          "midi": 49,
          "time": 46.528523000000014,
          "velocity": 0.25984251968503935,
          "duration": 0.10362700000000302
        },
        {
          "name": "F#2",
          "midi": 42,
          "time": 46.63215000000002,
          "velocity": 0.2283464566929134,
          "duration": 0.20725399999999894
        },
        {
          "name": "A3",
          "midi": 57,
          "time": 46.839404000000016,
          "velocity": 0.25984251968503935,
          "duration": 0.10362699999999592
        },
        {
          "name": "B2",
          "midi": 47,
          "time": 46.94303100000001,
          "velocity": 0.2677165354330709,
          "duration": 0.10362700000000302
        },
        {
          "name": "F#2",
          "midi": 42,
          "time": 47.046658000000015,
          "velocity": 0.2283464566929134,
          "duration": 0.20725399999999894
        },
        {
          "name": "A3",
          "midi": 57,
          "time": 47.253912000000014,
          "velocity": 0.2755905511811024,
          "duration": 0.10362700000000302
        },
        {
          "name": "B2",
          "midi": 47,
          "time": 47.35753900000002,
          "velocity": 0.28346456692913385,
          "duration": 0.10362700000000302
        },
        {
          "name": "E2",
          "midi": 40,
          "time": 47.46116600000002,
          "velocity": 0.2283464566929134,
          "duration": 0.20725399999999894
        },
        {
          "name": "G#3",
          "midi": 56,
          "time": 47.66842000000002,
          "velocity": 0.2440944881889764,
          "duration": 0.10362699999999592
        },
        {
          "name": "B2",
          "midi": 47,
          "time": 47.772047000000015,
          "velocity": 0.25196850393700787,
          "duration": 0.10362700000000302
        },
        {
          "name": "E2",
          "midi": 40,
          "time": 47.87567400000002,
          "velocity": 0.2047244094488189,
          "duration": 0.20725399999999894
        },
        {
          "name": "G#3",
          "midi": 56,
          "time": 48.08292800000002,
          "velocity": 0.23622047244094488,
          "duration": 0.10362699999999592
        },
        {
          "name": "B2",
          "midi": 47,
          "time": 48.18655500000001,
          "velocity": 0.2440944881889764,
          "duration": 0.10362700000000302
        },
        {
          "name": "E2",
          "midi": 40,
          "time": 48.290182000000016,
          "velocity": 0.1968503937007874,
          "duration": 0.20725399999999894
        },
        {
          "name": "G3",
          "midi": 55,
          "time": 48.497436000000015,
          "velocity": 0.25984251968503935,
          "duration": 0.10362700000000302
        },
        {
          "name": "B2",
          "midi": 47,
          "time": 48.60106300000002,
          "velocity": 0.2677165354330709,
          "duration": 0.10362700000000302
        },
        {
          "name": "E2",
          "midi": 40,
          "time": 48.70469000000002,
          "velocity": 0.2440944881889764,
          "duration": 0.20725399999999894
        },
        {
          "name": "G3",
          "midi": 55,
          "time": 48.91194400000002,
          "velocity": 0.25196850393700787,
          "duration": 0.10362700000000302
        },
        {
          "name": "B2",
          "midi": 47,
          "time": 49.01557100000002,
          "velocity": 0.25984251968503935,
          "duration": 0.10362700000000302
        },
        {
          "name": "E2",
          "midi": 40,
          "time": 49.119198000000026,
          "velocity": 0.2283464566929134,
          "duration": 0.20725399999999894
        },
        {
          "name": "G3",
          "midi": 55,
          "time": 49.326452000000025,
          "velocity": 0.25984251968503935,
          "duration": 0.10362699999999592
        },
        {
          "name": "A2",
          "midi": 45,
          "time": 49.43007900000002,
          "velocity": 0.2677165354330709,
          "duration": 0.10362700000000302
        },
        {
          "name": "E2",
          "midi": 40,
          "time": 49.53370600000002,
          "velocity": 0.2283464566929134,
          "duration": 0.20725399999999894
        },
        {
          "name": "G3",
          "midi": 55,
          "time": 49.74096000000002,
          "velocity": 0.2755905511811024,
          "duration": 0.10362699999999592
        },
        {
          "name": "A2",
          "midi": 45,
          "time": 49.84458700000002,
          "velocity": 0.28346456692913385,
          "duration": 0.10362700000000302
        },
        {
          "name": "D2",
          "midi": 38,
          "time": 49.94821400000002,
          "velocity": 0.2283464566929134,
          "duration": 0.20725399999999894
        },
        {
          "name": "F#3",
          "midi": 54,
          "time": 50.15546800000002,
          "velocity": 0.2440944881889764,
          "duration": 0.10362699999999592
        },
        {
          "name": "A2",
          "midi": 45,
          "time": 50.259095000000016,
          "velocity": 0.25196850393700787,
          "duration": 0.10362700000000302
        },
        {
          "name": "D2",
          "midi": 38,
          "time": 50.36272200000002,
          "velocity": 0.2047244094488189,
          "duration": 0.20725399999999894
        },
        {
          "name": "F#3",
          "midi": 54,
          "time": 50.56997600000002,
          "velocity": 0.23622047244094488,
          "duration": 0.10362699999999592
        },
        {
          "name": "A2",
          "midi": 45,
          "time": 50.673603000000014,
          "velocity": 0.2440944881889764,
          "duration": 0.10362700000000302
        },
        {
          "name": "D2",
          "midi": 38,
          "time": 50.77723000000002,
          "velocity": 0.1968503937007874,
          "duration": 0.20725399999999894
        },
        {
          "name": "F#3",
          "midi": 54,
          "time": 50.984484000000016,
          "velocity": 0.2440944881889764,
          "duration": 0.10362700000000302
        },
        {
          "name": "A2",
          "midi": 45,
          "time": 51.08811100000002,
          "velocity": 0.25196850393700787,
          "duration": 0.10362700000000302
        },
        {
          "name": "C#2",
          "midi": 37,
          "time": 51.19173800000002,
          "velocity": 0.2283464566929134,
          "duration": 0.20725399999999894
        },
        {
          "name": "A3",
          "midi": 57,
          "time": 51.39899200000002,
          "velocity": 0.1889763779527559,
          "duration": 0.20725400000000604
        },
        {
          "name": "F#4",
          "midi": 66,
          "time": 51.39899200000002,
          "velocity": 0.23622047244094488,
          "duration": 0.10362700000000302
        },
        {
          "name": "C#4",
          "midi": 61,
          "time": 51.502619000000024,
          "velocity": 0.2440944881889764,
          "duration": 0.10362700000000302
        },
        {
          "name": "C#3",
          "midi": 49,
          "time": 51.60624600000003,
          "velocity": 0.2125984251968504,
          "duration": 0.20725399999999894
        },
        {
          "name": "A3",
          "midi": 57,
          "time": 51.813500000000026,
          "velocity": 0.1889763779527559,
          "duration": 0.20725400000000604
        },
        {
          "name": "G#4",
          "midi": 68,
          "time": 51.813500000000026,
          "velocity": 0.2440944881889764,
          "duration": 0.10362700000000302
        },
        {
          "name": "C#4",
          "midi": 61,
          "time": 51.91712700000003,
          "velocity": 0.25196850393700787,
          "duration": 0.10362700000000302
        },
        {
          "name": "C#3",
          "midi": 49,
          "time": 52.02075400000003,
          "velocity": 0.2125984251968504,
          "duration": 0.20725399999999894
        },
        {
          "name": "G#3",
          "midi": 56,
          "time": 52.22800800000003,
          "velocity": 0.1889763779527559,
          "duration": 0.20725400000000604
        },
        {
          "name": "F#4",
          "midi": 66,
          "time": 52.22800800000003,
          "velocity": 0.2755905511811024,
          "duration": 0.10362700000000302
        },
        {
          "name": "C#4",
          "midi": 61,
          "time": 52.331635000000034,
          "velocity": 0.28346456692913385,
          "duration": 0.10362700000000302
        },
        {
          "name": "C#3",
          "midi": 49,
          "time": 52.43526200000004,
          "velocity": 0.2283464566929134,
          "duration": 0.20725399999999894
        },
        {
          "name": "G#3",
          "midi": 56,
          "time": 52.642516000000036,
          "velocity": 0.1889763779527559,
          "duration": 0.20725400000000604
        },
        {
          "name": "F4",
          "midi": 65,
          "time": 52.642516000000036,
          "velocity": 0.2440944881889764,
          "duration": 0.10362700000000302
        },
        {
          "name": "C#4",
          "midi": 61,
          "time": 52.74614300000004,
          "velocity": 0.25196850393700787,
          "duration": 0.10362700000000302
        },
        {
          "name": "C#3",
          "midi": 49,
          "time": 52.84977000000004,
          "velocity": 0.2047244094488189,
          "duration": 0.20725399999999894
        },
        {
          "name": "G#3",
          "midi": 56,
          "time": 53.05702400000004,
          "velocity": 0.1889763779527559,
          "duration": 0.20725399999999894
        },
        {
          "name": "F4",
          "midi": 65,
          "time": 53.05702400000004,
          "velocity": 0.23622047244094488,
          "duration": 0.10362699999999592
        },
        {
          "name": "C#4",
          "midi": 61,
          "time": 53.16065100000004,
          "velocity": 0.2440944881889764,
          "duration": 0.10362700000000302
        },
        {
          "name": "C#3",
          "midi": 49,
          "time": 53.26427800000004,
          "velocity": 0.1968503937007874,
          "duration": 0.20725399999999894
        },
        {
          "name": "A3",
          "midi": 57,
          "time": 53.47153200000004,
          "velocity": 0.14960629921259844,
          "duration": 0.20725400000000604
        },
        {
          "name": "F#4",
          "midi": 66,
          "time": 53.47153200000004,
          "velocity": 0.2047244094488189,
          "duration": 0.10362700000000302
        },
        {
          "name": "C#4",
          "midi": 61,
          "time": 53.57515900000004,
          "velocity": 0.2125984251968504,
          "duration": 0.10362700000000302
        },
        {
          "name": "C#3",
          "midi": 49,
          "time": 53.678786000000045,
          "velocity": 0.1968503937007874,
          "duration": 0.20725399999999894
        },
        {
          "name": "A4",
          "midi": 69,
          "time": 53.886040000000044,
          "velocity": 0.18110236220472442,
          "duration": 0.20725400000000604
        },
        {
          "name": "F#5",
          "midi": 78,
          "time": 53.886040000000044,
          "velocity": 0.2283464566929134,
          "duration": 0.10362700000000302
        },
        {
          "name": "C#5",
          "midi": 73,
          "time": 53.98966700000005,
          "velocity": 0.2047244094488189,
          "duration": 0.10362700000000302
        },
        {
          "name": "C#4",
          "midi": 61,
          "time": 54.09329400000005,
          "velocity": 0.18110236220472442,
          "duration": 0.20725399999999894
        },
        {
          "name": "A4",
          "midi": 69,
          "time": 54.30054800000005,
          "velocity": 0.18110236220472442,
          "duration": 0.20725399999999894
        },
        {
          "name": "G#5",
          "midi": 80,
          "time": 54.30054800000005,
          "velocity": 0.2283464566929134,
          "duration": 0.10362699999999592
        },
        {
          "name": "C#5",
          "midi": 73,
          "time": 54.404175000000045,
          "velocity": 0.2125984251968504,
          "duration": 0.10362700000000302
        },
        {
          "name": "C#4",
          "midi": 61,
          "time": 54.50780200000005,
          "velocity": 0.18110236220472442,
          "duration": 0.20725399999999894
        },
        {
          "name": "G#4",
          "midi": 68,
          "time": 54.71505600000005,
          "velocity": 0.18110236220472442,
          "duration": 0.20725400000000604
        },
        {
          "name": "F#5",
          "midi": 78,
          "time": 54.71505600000005,
          "velocity": 0.25984251968503935,
          "duration": 0.10362700000000302
        },
        {
          "name": "C#5",
          "midi": 73,
          "time": 54.81868300000005,
          "velocity": 0.23622047244094488,
          "duration": 0.10362700000000302
        },
        {
          "name": "C#4",
          "midi": 61,
          "time": 54.92231000000005,
          "velocity": 0.1968503937007874,
          "duration": 0.20725399999999894
        },
        {
          "name": "G#4",
          "midi": 68,
          "time": 55.12956400000005,
          "velocity": 0.18110236220472442,
          "duration": 0.20725399999999894
        },
        {
          "name": "F5",
          "midi": 77,
          "time": 55.12956400000005,
          "velocity": 0.2283464566929134,
          "duration": 0.10362699999999592
        },
        {
          "name": "C#5",
          "midi": 73,
          "time": 55.23319100000005,
          "velocity": 0.2125984251968504,
          "duration": 0.10362700000000302
        },
        {
          "name": "C#4",
          "midi": 61,
          "time": 55.33681800000005,
          "velocity": 0.1732283464566929,
          "duration": 0.20725399999999894
        },
        {
          "name": "G#4",
          "midi": 68,
          "time": 55.54407200000005,
          "velocity": 0.18110236220472442,
          "duration": 0.20725399999999894
        },
        {
          "name": "F5",
          "midi": 77,
          "time": 55.54407200000005,
          "velocity": 0.2283464566929134,
          "duration": 0.10362699999999592
        },
        {
          "name": "C#5",
          "midi": 73,
          "time": 55.647699000000046,
          "velocity": 0.2047244094488189,
          "duration": 0.10362700000000302
        },
        {
          "name": "C#4",
          "midi": 61,
          "time": 55.75132600000005,
          "velocity": 0.16535433070866143,
          "duration": 0.20725399999999894
        },
        {
          "name": "G#4",
          "midi": 68,
          "time": 55.95858000000005,
          "velocity": 0.18110236220472442,
          "duration": 0.20725400000000604
        },
        {
          "name": "F5",
          "midi": 77,
          "time": 55.95858000000005,
          "velocity": 0.2283464566929134,
          "duration": 0.10362700000000302
        },
        {
          "name": "C5",
          "midi": 72,
          "time": 56.06220700000005,
          "velocity": 0.2125984251968504,
          "duration": 0.10362700000000302
        },
        {
          "name": "C4",
          "midi": 60,
          "time": 56.16583400000005,
          "velocity": 0.1968503937007874,
          "duration": 0.20725399999999894
        },
        {
          "name": "G#3",
          "midi": 56,
          "time": 56.37308800000005,
          "velocity": 0.1732283464566929,
          "duration": 0.20725400000000604
        },
        {
          "name": "F4",
          "midi": 65,
          "time": 56.37308800000005,
          "velocity": 0.2204724409448819,
          "duration": 0.10362700000000302
        },
        {
          "name": "C4",
          "midi": 60,
          "time": 56.476715000000056,
          "velocity": 0.1968503937007874,
          "duration": 0.10362700000000302
        },
        {
          "name": "C3",
          "midi": 48,
          "time": 56.58034200000006,
          "velocity": 0.1732283464566929,
          "duration": 0.20725399999999894
        },
        {
          "name": "G#3",
          "midi": 56,
          "time": 56.78759600000006,
          "velocity": 0.1732283464566929,
          "duration": 0.20725400000000604
        },
        {
          "name": "G4",
          "midi": 67,
          "time": 56.78759600000006,
          "velocity": 0.2204724409448819,
          "duration": 0.10362700000000302
        },
        {
          "name": "C4",
          "midi": 60,
          "time": 56.89122300000006,
          "velocity": 0.2047244094488189,
          "duration": 0.10362700000000302
        },
        {
          "name": "C3",
          "midi": 48,
          "time": 56.99485000000006,
          "velocity": 0.1732283464566929,
          "duration": 0.20725399999999894
        },
        {
          "name": "G3",
          "midi": 55,
          "time": 57.20210400000006,
          "velocity": 0.1732283464566929,
          "duration": 0.20725399999999894
        },
        {
          "name": "F4",
          "midi": 65,
          "time": 57.20210400000006,
          "velocity": 0.25196850393700787,
          "duration": 0.10362699999999592
        },
        {
          "name": "C4",
          "midi": 60,
          "time": 57.30573100000006,
          "velocity": 0.2204724409448819,
          "duration": 0.10362700000000302
        },
        {
          "name": "C3",
          "midi": 48,
          "time": 57.40935800000006,
          "velocity": 0.1889763779527559,
          "duration": 0.20725399999999894
        },
        {
          "name": "G3",
          "midi": 55,
          "time": 57.61661200000006,
          "velocity": 0.16535433070866143,
          "duration": 0.20725399999999894
        },
        {
          "name": "E4",
          "midi": 64,
          "time": 57.61661200000006,
          "velocity": 0.2125984251968504,
          "duration": 0.10362699999999592
        },
        {
          "name": "C4",
          "midi": 60,
          "time": 57.720239000000056,
          "velocity": 0.1968503937007874,
          "duration": 0.10362700000000302
        },
        {
          "name": "C3",
          "midi": 48,
          "time": 57.82386600000006,
          "velocity": 0.14960629921259844,
          "duration": 0.20725399999999894
        },
        {
          "name": "G3",
          "midi": 55,
          "time": 58.03112000000006,
          "velocity": 0.16535433070866143,
          "duration": 0.20725399999999894
        },
        {
          "name": "E4",
          "midi": 64,
          "time": 58.03112000000006,
          "velocity": 0.2125984251968504,
          "duration": 0.10362699999999592
        },
        {
          "name": "C4",
          "midi": 60,
          "time": 58.134747000000054,
          "velocity": 0.1889763779527559,
          "duration": 0.10362700000000302
        },
        {
          "name": "C3",
          "midi": 48,
          "time": 58.23837400000006,
          "velocity": 0.14173228346456693,
          "duration": 0.20725399999999894
        },
        {
          "name": "G3",
          "midi": 55,
          "time": 58.445628000000056,
          "velocity": 0.16535433070866143,
          "duration": 0.20725400000000604
        },
        {
          "name": "D4",
          "midi": 62,
          "time": 58.445628000000056,
          "velocity": 0.2125984251968504,
          "duration": 0.10362700000000302
        },
        {
          "name": "C4",
          "midi": 60,
          "time": 58.54925500000006,
          "velocity": 0.1968503937007874,
          "duration": 0.10362700000000302
        },
        {
          "name": "C3",
          "midi": 48,
          "time": 58.65288200000006,
          "velocity": 0.18110236220472442,
          "duration": 0.20725399999999894
        },
        {
          "name": "G3",
          "midi": 55,
          "time": 58.86013600000006,
          "velocity": 0.16535433070866143,
          "duration": 0.20725400000000604
        },
        {
          "name": "D4",
          "midi": 62,
          "time": 58.86013600000006,
          "velocity": 0.2047244094488189,
          "duration": 0.10362700000000302
        },
        {
          "name": "C4",
          "midi": 60,
          "time": 58.963763000000064,
          "velocity": 0.18110236220472442,
          "duration": 0.10362700000000302
        },
        {
          "name": "C3",
          "midi": 48,
          "time": 59.06739000000007,
          "velocity": 0.16535433070866143,
          "duration": 0.20725399999999894
        },
        {
          "name": "G3",
          "midi": 55,
          "time": 59.274644000000066,
          "velocity": 0.14960629921259844,
          "duration": 0.20725400000000604
        },
        {
          "name": "E4",
          "midi": 64,
          "time": 59.274644000000066,
          "velocity": 0.2047244094488189,
          "duration": 0.10362700000000302
        },
        {
          "name": "C4",
          "midi": 60,
          "time": 59.37827100000007,
          "velocity": 0.1889763779527559,
          "duration": 0.10362700000000302
        },
        {
          "name": "C3",
          "midi": 48,
          "time": 59.48189800000007,
          "velocity": 0.14960629921259844,
          "duration": 0.20725399999999894
        },
        {
          "name": "G3",
          "midi": 55,
          "time": 59.68915200000007,
          "velocity": 0.14960629921259844,
          "duration": 0.20725400000000604
        },
        {
          "name": "D4",
          "midi": 62,
          "time": 59.68915200000007,
          "velocity": 0.2283464566929134,
          "duration": 0.10362700000000302
        },
        {
          "name": "C4",
          "midi": 60,
          "time": 59.792779000000074,
          "velocity": 0.2047244094488189,
          "duration": 0.10362700000000302
        },
        {
          "name": "C3",
          "midi": 48,
          "time": 59.89640600000008,
          "velocity": 0.1732283464566929,
          "duration": 0.20725399999999894
        },
        {
          "name": "G3",
          "midi": 55,
          "time": 60.103660000000076,
          "velocity": 0.14960629921259844,
          "duration": 0.20725399999999894
        },
        {
          "name": "D4",
          "midi": 62,
          "time": 60.103660000000076,
          "velocity": 0.1968503937007874,
          "duration": 0.10362699999999592
        },
        {
          "name": "C4",
          "midi": 60,
          "time": 60.20728700000007,
          "velocity": 0.18110236220472442,
          "duration": 0.10362700000000302
        },
        {
          "name": "C3",
          "midi": 48,
          "time": 60.310914000000075,
          "velocity": 0.14173228346456693,
          "duration": 0.20725399999999894
        },
        {
          "name": "G3",
          "midi": 55,
          "time": 60.518168000000074,
          "velocity": 0.14960629921259844,
          "duration": 0.20725400000000604
        },
        {
          "name": "C4",
          "midi": 60,
          "time": 60.518168000000074,
          "velocity": 0.1968503937007874,
          "duration": 0.10362700000000302
        },
        {
          "name": "A#3",
          "midi": 58,
          "time": 60.62179500000008,
          "velocity": 0.1732283464566929,
          "duration": 0.10362700000000302
        },
        {
          "name": "C3",
          "midi": 48,
          "time": 60.72542200000008,
          "velocity": 0.13385826771653545,
          "duration": 0.18134725000000174
        },
        {
          "name": "A3",
          "midi": 57,
          "time": 60.93267600000008,
          "velocity": 0.36220472440944884,
          "duration": 0.10362700000000302
        },
        {
          "name": "C3",
          "midi": 48,
          "time": 60.93267600000008,
          "velocity": 0.29133858267716534,
          "duration": 0.20725400000000604
        },
        {
          "name": "F3",
          "midi": 53,
          "time": 61.03630300000008,
          "velocity": 0.33070866141732286,
          "duration": 0.10362700000000302
        },
        {
          "name": "F2",
          "midi": 41,
          "time": 61.139930000000085,
          "velocity": 0.29133858267716534,
          "duration": 0.05181350000000151
        },
        {
          "name": "A3",
          "midi": 57,
          "time": 61.347184000000084,
          "velocity": 0.3464566929133858,
          "duration": 0.10362700000000302
        },
        {
          "name": "C3",
          "midi": 48,
          "time": 61.347184000000084,
          "velocity": 0.2677165354330709,
          "duration": 0.20725400000000604
        },
        {
          "name": "F3",
          "midi": 53,
          "time": 61.45081100000009,
          "velocity": 0.30708661417322836,
          "duration": 0.10362700000000302
        },
        {
          "name": "F2",
          "midi": 41,
          "time": 61.55443800000009,
          "velocity": 0.2677165354330709,
          "duration": 0.05181350000000151
        },
        {
          "name": "A3",
          "midi": 57,
          "time": 61.76169200000009,
          "velocity": 0.3464566929133858,
          "duration": 0.10362700000000302
        },
        {
          "name": "C3",
          "midi": 48,
          "time": 61.76169200000009,
          "velocity": 0.2677165354330709,
          "duration": 0.20725400000000604
        },
        {
          "name": "F3",
          "midi": 53,
          "time": 61.86531900000009,
          "velocity": 0.30708661417322836,
          "duration": 0.10362700000000302
        },
        {
          "name": "F2",
          "midi": 41,
          "time": 61.968946000000095,
          "velocity": 0.25984251968503935,
          "duration": 0.05181350000000151
        },
        {
          "name": "A#3",
          "midi": 58,
          "time": 62.176200000000094,
          "velocity": 0.36220472440944884,
          "duration": 0.10362700000000302
        },
        {
          "name": "C3",
          "midi": 48,
          "time": 62.176200000000094,
          "velocity": 0.29133858267716534,
          "duration": 0.20725400000000604
        },
        {
          "name": "E3",
          "midi": 52,
          "time": 62.2798270000001,
          "velocity": 0.33070866141732286,
          "duration": 0.10362700000000302
        },
        {
          "name": "F2",
          "midi": 41,
          "time": 62.3834540000001,
          "velocity": 0.2755905511811024,
          "duration": 0.05181350000000151
        },
        {
          "name": "A#3",
          "midi": 58,
          "time": 62.5907080000001,
          "velocity": 0.3464566929133858,
          "duration": 0.10362699999999592
        },
        {
          "name": "C3",
          "midi": 48,
          "time": 62.5907080000001,
          "velocity": 0.2677165354330709,
          "duration": 0.20725399999999894
        },
        {
          "name": "E3",
          "midi": 52,
          "time": 62.694335000000095,
          "velocity": 0.30708661417322836,
          "duration": 0.10362700000000302
        },
        {
          "name": "F2",
          "midi": 41,
          "time": 62.7979620000001,
          "velocity": 0.25984251968503935,
          "duration": 0.05181350000000151
        },
        {
          "name": "A#3",
          "midi": 58,
          "time": 63.0052160000001,
          "velocity": 0.3464566929133858,
          "duration": 0.10362699999999592
        },
        {
          "name": "C3",
          "midi": 48,
          "time": 63.0052160000001,
          "velocity": 0.2677165354330709,
          "duration": 0.20725399999999894
        },
        {
          "name": "E3",
          "midi": 52,
          "time": 63.10884300000009,
          "velocity": 0.30708661417322836,
          "duration": 0.10362700000000302
        },
        {
          "name": "F2",
          "midi": 41,
          "time": 63.212470000000096,
          "velocity": 0.25984251968503935,
          "duration": 0.05181350000000151
        },
        {
          "name": "A3",
          "midi": 57,
          "time": 63.419724000000095,
          "velocity": 0.3700787401574803,
          "duration": 0.10362700000000302
        },
        {
          "name": "C3",
          "midi": 48,
          "time": 63.419724000000095,
          "velocity": 0.2992125984251969,
          "duration": 0.20725400000000604
        },
        {
          "name": "F3",
          "midi": 53,
          "time": 63.5233510000001,
          "velocity": 0.3464566929133858,
          "duration": 0.10362700000000302
        },
        {
          "name": "F2",
          "midi": 41,
          "time": 63.6269780000001,
          "velocity": 0.2992125984251969,
          "duration": 0.05181350000000151
        },
        {
          "name": "A3",
          "midi": 57,
          "time": 63.8342320000001,
          "velocity": 0.3543307086614173,
          "duration": 0.10362700000000302
        },
        {
          "name": "D3",
          "midi": 50,
          "time": 63.8342320000001,
          "velocity": 0.2755905511811024,
          "duration": 0.20725400000000604
        },
        {
          "name": "F3",
          "midi": 53,
          "time": 63.9378590000001,
          "velocity": 0.31496062992125984,
          "duration": 0.10362700000000302
        },
        {
          "name": "F2",
          "midi": 41,
          "time": 64.0414860000001,
          "velocity": 0.2677165354330709,
          "duration": 0.05181350000000862
        },
        {
          "name": "B3",
          "midi": 59,
          "time": 64.24874000000011,
          "velocity": 0.3543307086614173,
          "duration": 0.10362700000000302
        },
        {
          "name": "D3",
          "midi": 50,
          "time": 64.24874000000011,
          "velocity": 0.2755905511811024,
          "duration": 0.20725400000000604
        },
        {
          "name": "F3",
          "midi": 53,
          "time": 64.35236700000011,
          "velocity": 0.31496062992125984,
          "duration": 0.10362700000000302
        },
        {
          "name": "G2",
          "midi": 43,
          "time": 64.45599400000012,
          "velocity": 0.2755905511811024,
          "duration": 0.051813499999994406
        },
        {
          "name": "E4",
          "midi": 64,
          "time": 64.66324800000011,
          "velocity": 0.3779527559055118,
          "duration": 0.10362700000000302
        },
        {
          "name": "G3",
          "midi": 55,
          "time": 64.66324800000011,
          "velocity": 0.30708661417322836,
          "duration": 0.20725400000000604
        },
        {
          "name": "A#3",
          "midi": 58,
          "time": 64.76687500000011,
          "velocity": 0.3543307086614173,
          "duration": 0.10362700000000302
        },
        {
          "name": "C3",
          "midi": 48,
          "time": 64.87050200000012,
          "velocity": 0.2992125984251969,
          "duration": 0.051813499999994406
        },
        {
          "name": "A#4",
          "midi": 70,
          "time": 65.07775600000011,
          "velocity": 0.36220472440944884,
          "duration": 0.10362700000000302
        },
        {
          "name": "C4",
          "midi": 60,
          "time": 65.07775600000011,
          "velocity": 0.29133858267716534,
          "duration": 0.20725400000000604
        },
        {
          "name": "E4",
          "midi": 64,
          "time": 65.18138300000011,
          "velocity": 0.33070866141732286,
          "duration": 0.10362700000000302
        },
        {
          "name": "G3",
          "midi": 55,
          "time": 65.28501000000011,
          "velocity": 0.25984251968503935,
          "duration": 0.051813499999994406
        },
        {
          "name": "E5",
          "midi": 76,
          "time": 65.4922640000001,
          "velocity": 0.36220472440944884,
          "duration": 0.10362700000000302
        },
        {
          "name": "G4",
          "midi": 67,
          "time": 65.4922640000001,
          "velocity": 0.29133858267716534,
          "duration": 0.20725400000000604
        },
        {
          "name": "A#4",
          "midi": 70,
          "time": 65.59589100000011,
          "velocity": 0.33070866141732286,
          "duration": 0.10362700000000302
        },
        {
          "name": "C4",
          "midi": 60,
          "time": 65.69951800000011,
          "velocity": 0.2755905511811024,
          "duration": 0.051813499999994406
        },
        {
          "name": "A3",
          "midi": 57,
          "time": 65.9067720000001,
          "velocity": 0.36220472440944884,
          "duration": 0.10362699999998881
        },
        {
          "name": "C3",
          "midi": 48,
          "time": 65.9067720000001,
          "velocity": 0.29133858267716534,
          "duration": 0.20725399999999183
        },
        {
          "name": "F3",
          "midi": 53,
          "time": 66.01039900000009,
          "velocity": 0.33070866141732286,
          "duration": 0.10362700000000302
        },
        {
          "name": "F2",
          "midi": 41,
          "time": 66.1140260000001,
          "velocity": 0.29133858267716534,
          "duration": 0.051813499999994406
        },
        {
          "name": "A3",
          "midi": 57,
          "time": 66.32128000000009,
          "velocity": 0.3464566929133858,
          "duration": 0.10362700000000302
        },
        {
          "name": "C3",
          "midi": 48,
          "time": 66.32128000000009,
          "velocity": 0.2677165354330709,
          "duration": 0.20725400000000604
        },
        {
          "name": "F3",
          "midi": 53,
          "time": 66.42490700000009,
          "velocity": 0.30708661417322836,
          "duration": 0.10362700000000302
        },
        {
          "name": "F2",
          "midi": 41,
          "time": 66.52853400000009,
          "velocity": 0.2677165354330709,
          "duration": 0.051813499999994406
        },
        {
          "name": "A3",
          "midi": 57,
          "time": 66.73578800000008,
          "velocity": 0.3464566929133858,
          "duration": 0.10362700000000302
        },
        {
          "name": "C3",
          "midi": 48,
          "time": 66.73578800000008,
          "velocity": 0.2677165354330709,
          "duration": 0.20725400000000604
        },
        {
          "name": "F3",
          "midi": 53,
          "time": 66.83941500000009,
          "velocity": 0.30708661417322836,
          "duration": 0.10362700000000302
        },
        {
          "name": "F2",
          "midi": 41,
          "time": 66.94304200000009,
          "velocity": 0.25984251968503935,
          "duration": 0.051813499999994406
        },
        {
          "name": "A#3",
          "midi": 58,
          "time": 67.15029600000008,
          "velocity": 0.36220472440944884,
          "duration": 0.10362699999998881
        },
        {
          "name": "C3",
          "midi": 48,
          "time": 67.15029600000008,
          "velocity": 0.29133858267716534,
          "duration": 0.20725399999999183
        },
        {
          "name": "E3",
          "midi": 52,
          "time": 67.25392300000007,
          "velocity": 0.33070866141732286,
          "duration": 0.10362700000000302
        },
        {
          "name": "F2",
          "midi": 41,
          "time": 67.35755000000007,
          "velocity": 0.2755905511811024,
          "duration": 0.05181350000000862
        },
        {
          "name": "A#3",
          "midi": 58,
          "time": 67.56480400000008,
          "velocity": 0.3464566929133858,
          "duration": 0.10362700000000302
        },
        {
          "name": "C3",
          "midi": 48,
          "time": 67.56480400000008,
          "velocity": 0.2677165354330709,
          "duration": 0.20725400000000604
        },
        {
          "name": "E3",
          "midi": 52,
          "time": 67.66843100000008,
          "velocity": 0.30708661417322836,
          "duration": 0.10362700000000302
        },
        {
          "name": "F2",
          "midi": 41,
          "time": 67.77205800000009,
          "velocity": 0.25984251968503935,
          "duration": 0.051813499999994406
        },
        {
          "name": "A#3",
          "midi": 58,
          "time": 67.97931200000008,
          "velocity": 0.3464566929133858,
          "duration": 0.10362700000000302
        },
        {
          "name": "C3",
          "midi": 48,
          "time": 67.97931200000008,
          "velocity": 0.2677165354330709,
          "duration": 0.20725400000000604
        },
        {
          "name": "E3",
          "midi": 52,
          "time": 68.08293900000008,
          "velocity": 0.30708661417322836,
          "duration": 0.10362700000000302
        },
        {
          "name": "F2",
          "midi": 41,
          "time": 68.18656600000008,
          "velocity": 0.25984251968503935,
          "duration": 0.051813499999994406
        },
        {
          "name": "A3",
          "midi": 57,
          "time": 68.39382000000008,
          "velocity": 0.3700787401574803,
          "duration": 0.10362700000000302
        },
        {
          "name": "C3",
          "midi": 48,
          "time": 68.39382000000008,
          "velocity": 0.2992125984251969,
          "duration": 0.20725400000000604
        },
        {
          "name": "F3",
          "midi": 53,
          "time": 68.49744700000008,
          "velocity": 0.3464566929133858,
          "duration": 0.10362700000000302
        },
        {
          "name": "F2",
          "midi": 41,
          "time": 68.60107400000008,
          "velocity": 0.2992125984251969,
          "duration": 0.05181350000000862
        },
        {
          "name": "B3",
          "midi": 59,
          "time": 68.80832800000009,
          "velocity": 0.3543307086614173,
          "duration": 0.10362700000000302
        },
        {
          "name": "D3",
          "midi": 50,
          "time": 68.80832800000009,
          "velocity": 0.2755905511811024,
          "duration": 0.20725400000000604
        },
        {
          "name": "F3",
          "midi": 53,
          "time": 68.91195500000009,
          "velocity": 0.31496062992125984,
          "duration": 0.10362700000000302
        },
        {
          "name": "G2",
          "midi": 43,
          "time": 69.0155820000001,
          "velocity": 0.2677165354330709,
          "duration": 0.05181350000000862
        },
        {
          "name": "E4",
          "midi": 64,
          "time": 69.2228360000001,
          "velocity": 0.3543307086614173,
          "duration": 0.10362700000000302
        },
        {
          "name": "G3",
          "midi": 55,
          "time": 69.2228360000001,
          "velocity": 0.2755905511811024,
          "duration": 0.20725400000000604
        },
        {
          "name": "A#3",
          "midi": 58,
          "time": 69.3264630000001,
          "velocity": 0.31496062992125984,
          "duration": 0.10362700000000302
        },
        {
          "name": "C3",
          "midi": 48,
          "time": 69.4300900000001,
          "velocity": 0.2755905511811024,
          "duration": 0.051813499999994406
        },
        {
          "name": "A3",
          "midi": 57,
          "time": 69.6373440000001,
          "velocity": 0.3779527559055118,
          "duration": 0.10362700000000302
        },
        {
          "name": "C3",
          "midi": 48,
          "time": 69.6373440000001,
          "velocity": 0.2755905511811024,
          "duration": 0.20725400000000604
        },
        {
          "name": "F3",
          "midi": 53,
          "time": 69.7409710000001,
          "velocity": 0.3543307086614173,
          "duration": 0.10362700000000302
        },
        {
          "name": "F2",
          "midi": 41,
          "time": 69.8445980000001,
          "velocity": 0.2992125984251969,
          "duration": 0.051813499999994406
        },
        {
          "name": "A4",
          "midi": 69,
          "time": 70.0518520000001,
          "velocity": 0.36220472440944884,
          "duration": 0.10362700000000302
        },
        {
          "name": "C4",
          "midi": 60,
          "time": 70.0518520000001,
          "velocity": 0.25984251968503935,
          "duration": 0.20725400000000604
        },
        {
          "name": "F4",
          "midi": 65,
          "time": 70.1554790000001,
          "velocity": 0.33070866141732286,
          "duration": 0.10362700000000302
        },
        {
          "name": "F3",
          "midi": 53,
          "time": 70.2591060000001,
          "velocity": 0.25984251968503935,
          "duration": 0.051813499999994406
        },
        {
          "name": "A#4",
          "midi": 70,
          "time": 70.4663600000001,
          "velocity": 0.29133858267716534,
          "duration": 0.10362699999998881
        },
        {
          "name": "C4",
          "midi": 60,
          "time": 70.4663600000001,
          "velocity": 0.23622047244094488,
          "duration": 0.20725399999999183
        },
        {
          "name": "E4",
          "midi": 64,
          "time": 70.56998700000008,
          "velocity": 0.29133858267716534,
          "duration": 0.10362700000000302
        },
        {
          "name": "F3",
          "midi": 53,
          "time": 70.67361400000009,
          "velocity": 0.2283464566929134,
          "duration": 0.051813499999994406
        },
        {
          "name": "A4",
          "midi": 69,
          "time": 70.88086800000008,
          "velocity": 0.33858267716535434,
          "duration": 0.10362699999998881
        },
        {
          "name": "C4",
          "midi": 60,
          "time": 70.88086800000008,
          "velocity": 0.25196850393700787,
          "duration": 0.20725399999999183
        },
        {
          "name": "F4",
          "midi": 65,
          "time": 70.98449500000007,
          "velocity": 0.30708661417322836,
          "duration": 0.10362700000000302
        },
        {
          "name": "F3",
          "midi": 53,
          "time": 71.08812200000007,
          "velocity": 0.2677165354330709,
          "duration": 0.051813499999994406
        },
        {
          "name": "A5",
          "midi": 81,
          "time": 71.29537600000006,
          "velocity": 0.31496062992125984,
          "duration": 0.10362699999998881
        },
        {
          "name": "C5",
          "midi": 72,
          "time": 71.29537600000006,
          "velocity": 0.2204724409448819,
          "duration": 0.20725399999999183
        },
        {
          "name": "F5",
          "midi": 77,
          "time": 71.39900300000005,
          "velocity": 0.29133858267716534,
          "duration": 0.10362700000000302
        },
        {
          "name": "F4",
          "midi": 65,
          "time": 71.50263000000005,
          "velocity": 0.2283464566929134,
          "duration": 0.051813499999994406
        },
        {
          "name": "A#5",
          "midi": 82,
          "time": 71.70988400000005,
          "velocity": 0.28346456692913385,
          "duration": 0.10362699999998881
        },
        {
          "name": "C5",
          "midi": 72,
          "time": 71.70988400000005,
          "velocity": 0.1889763779527559,
          "duration": 0.20725399999999183
        },
        {
          "name": "E5",
          "midi": 76,
          "time": 71.81351100000003,
          "velocity": 0.2755905511811024,
          "duration": 0.10362700000000302
        },
        {
          "name": "F4",
          "midi": 65,
          "time": 71.91713800000004,
          "velocity": 0.2125984251968504,
          "duration": 0.051813499999994406
        },
        {
          "name": "A5",
          "midi": 81,
          "time": 72.12439200000003,
          "velocity": 0.33858267716535434,
          "duration": 0.10362699999998881
        },
        {
          "name": "C5",
          "midi": 72,
          "time": 72.12439200000003,
          "velocity": 0.2755905511811024,
          "duration": 0.20725399999999183
        },
        {
          "name": "F5",
          "midi": 77,
          "time": 72.22801900000002,
          "velocity": 0.30708661417322836,
          "duration": 0.10362700000000302
        },
        {
          "name": "F4",
          "midi": 65,
          "time": 72.33164600000002,
          "velocity": 0.2677165354330709,
          "duration": 0.051813499999994406
        },
        {
          "name": "A4",
          "midi": 69,
          "time": 72.53890000000001,
          "velocity": 0.28346456692913385,
          "duration": 0.10362700000000302
        },
        {
          "name": "C4",
          "midi": 60,
          "time": 72.53890000000001,
          "velocity": 0.2283464566929134,
          "duration": 0.20725400000000604
        },
        {
          "name": "F4",
          "midi": 65,
          "time": 72.64252700000002,
          "velocity": 0.25984251968503935,
          "duration": 0.10362700000000302
        },
        {
          "name": "F3",
          "midi": 53,
          "time": 72.74615400000002,
          "velocity": 0.2047244094488189,
          "duration": 0.20725400000000604
        },
        {
          "name": "A#4",
          "midi": 70,
          "time": 72.95340800000002,
          "velocity": 0.28346456692913385,
          "duration": 0.10362700000000302
        },
        {
          "name": "C4",
          "midi": 60,
          "time": 72.95340800000002,
          "velocity": 0.2283464566929134,
          "duration": 0.20725400000000604
        },
        {
          "name": "E4",
          "midi": 64,
          "time": 73.05703500000003,
          "velocity": 0.25984251968503935,
          "duration": 0.10362700000000302
        },
        {
          "name": "F3",
          "midi": 53,
          "time": 73.16066200000003,
          "velocity": 0.2047244094488189,
          "duration": 0.20725400000000604
        },
        {
          "name": "A4",
          "midi": 69,
          "time": 73.36791600000004,
          "velocity": 0.29133858267716534,
          "duration": 0.10362700000000302
        },
        {
          "name": "C4",
          "midi": 60,
          "time": 73.36791600000004,
          "velocity": 0.2440944881889764,
          "duration": 0.20725400000000604
        },
        {
          "name": "F4",
          "midi": 65,
          "time": 73.47154300000004,
          "velocity": 0.2755905511811024,
          "duration": 0.10362700000000302
        },
        {
          "name": "F3",
          "midi": 53,
          "time": 73.57517000000004,
          "velocity": 0.23622047244094488,
          "duration": 0.20725400000000604
        },
        {
          "name": "A5",
          "midi": 81,
          "time": 73.78242400000005,
          "velocity": 0.28346456692913385,
          "duration": 0.10362700000000302
        },
        {
          "name": "C5",
          "midi": 72,
          "time": 73.78242400000005,
          "velocity": 0.2283464566929134,
          "duration": 0.20725400000000604
        },
        {
          "name": "F5",
          "midi": 77,
          "time": 73.88605100000005,
          "velocity": 0.25984251968503935,
          "duration": 0.10362700000000302
        },
        {
          "name": "F4",
          "midi": 65,
          "time": 73.98967800000005,
          "velocity": 0.2047244094488189,
          "duration": 0.20725400000000604
        },
        {
          "name": "A#5",
          "midi": 82,
          "time": 74.19693200000006,
          "velocity": 0.25984251968503935,
          "duration": 0.10362700000000302
        },
        {
          "name": "C5",
          "midi": 72,
          "time": 74.19693200000006,
          "velocity": 0.2125984251968504,
          "duration": 0.20725400000000604
        },
        {
          "name": "E5",
          "midi": 76,
          "time": 74.30055900000006,
          "velocity": 0.25984251968503935,
          "duration": 0.10362700000000302
        },
        {
          "name": "F4",
          "midi": 65,
          "time": 74.40418600000007,
          "velocity": 0.2047244094488189,
          "duration": 0.20725400000000604
        },
        {
          "name": "A5",
          "midi": 81,
          "time": 74.61144000000007,
          "velocity": 0.29133858267716534,
          "duration": 0.10362699999998881
        },
        {
          "name": "C5",
          "midi": 72,
          "time": 74.61144000000007,
          "velocity": 0.2440944881889764,
          "duration": 0.20725399999999183
        },
        {
          "name": "F5",
          "midi": 77,
          "time": 74.71506700000006,
          "velocity": 0.2755905511811024,
          "duration": 0.10362700000000302
        },
        {
          "name": "F4",
          "midi": 65,
          "time": 74.81869400000006,
          "velocity": 0.23622047244094488,
          "duration": 0.051813499999994406
        },
        {
          "name": "A5",
          "midi": 81,
          "time": 75.02594800000006,
          "velocity": 0.29133858267716534,
          "duration": 0.10362700000000302
        },
        {
          "name": "B4",
          "midi": 71,
          "time": 75.02594800000006,
          "velocity": 0.23622047244094488,
          "duration": 0.20725400000000604
        },
        {
          "name": "D#5",
          "midi": 75,
          "time": 75.12957500000006,
          "velocity": 0.2677165354330709,
          "duration": 0.10362700000000302
        },
        {
          "name": "B3",
          "midi": 59,
          "time": 75.23320200000006,
          "velocity": 0.2125984251968504,
          "duration": 0.051813499999994406
        },
        {
          "name": "G#5",
          "midi": 80,
          "time": 75.44045600000005,
          "velocity": 0.29133858267716534,
          "duration": 0.10362700000000302
        },
        {
          "name": "B4",
          "midi": 71,
          "time": 75.44045600000005,
          "velocity": 0.2283464566929134,
          "duration": 0.20725400000000604
        },
        {
          "name": "D5",
          "midi": 74,
          "time": 75.54408300000006,
          "velocity": 0.25984251968503935,
          "duration": 0.10362700000000302
        },
        {
          "name": "E4",
          "midi": 64,
          "time": 75.64771000000006,
          "velocity": 0.2204724409448819,
          "duration": 0.051813499999994406
        },
        {
          "name": "G5",
          "midi": 79,
          "time": 75.85496400000005,
          "velocity": 0.29133858267716534,
          "duration": 0.10362700000000302
        },
        {
          "name": "A4",
          "midi": 69,
          "time": 75.85496400000005,
          "velocity": 0.2440944881889764,
          "duration": 0.20725400000000604
        },
        {
          "name": "C#5",
          "midi": 73,
          "time": 75.95859100000006,
          "velocity": 0.2755905511811024,
          "duration": 0.10362700000000302
        },
        {
          "name": "A3",
          "midi": 57,
          "time": 76.06221800000006,
          "velocity": 0.23622047244094488,
          "duration": 0.051813499999994406
        },
        {
          "name": "D5",
          "midi": 74,
          "time": 76.26947200000005,
          "velocity": 0.28346456692913385,
          "duration": 0.10362700000000302
        },
        {
          "name": "G4",
          "midi": 67,
          "time": 76.26947200000005,
          "velocity": 0.2283464566929134,
          "duration": 0.20725400000000604
        },
        {
          "name": "A#4",
          "midi": 70,
          "time": 76.37309900000005,
          "velocity": 0.25984251968503935,
          "duration": 0.10362700000000302
        },
        {
          "name": "A#3",
          "midi": 58,
          "time": 76.47672600000006,
          "velocity": 0.2047244094488189,
          "duration": 0.051813499999994406
        },
        {
          "name": "E5",
          "midi": 76,
          "time": 76.68398000000005,
          "velocity": 0.2677165354330709,
          "duration": 0.10362700000000302
        },
        {
          "name": "G4",
          "midi": 67,
          "time": 76.68398000000005,
          "velocity": 0.2204724409448819,
          "duration": 0.20725400000000604
        },
        {
          "name": "A#4",
          "midi": 70,
          "time": 76.78760700000005,
          "velocity": 0.25196850393700787,
          "duration": 0.10362700000000302
        },
        {
          "name": "C4",
          "midi": 60,
          "time": 76.89123400000005,
          "velocity": 0.2047244094488189,
          "duration": 0.051813499999994406
        },
        {
          "name": "A4",
          "midi": 69,
          "time": 77.09848800000005,
          "velocity": 0.2755905511811024,
          "duration": 0.10362700000000302
        },
        {
          "name": "C4",
          "midi": 60,
          "time": 77.09848800000005,
          "velocity": 0.2283464566929134,
          "duration": 0.20725400000000604
        },
        {
          "name": "F4",
          "midi": 65,
          "time": 77.20211500000005,
          "velocity": 0.25984251968503935,
          "duration": 0.10362700000000302
        },
        {
          "name": "F3",
          "midi": 53,
          "time": 77.30574200000005,
          "velocity": 0.2204724409448819,
          "duration": 0.051813499999994406
        },
        {
          "name": "A4",
          "midi": 69,
          "time": 77.51299600000004,
          "velocity": 0.2755905511811024,
          "duration": 0.10362700000000302
        },
        {
          "name": "B3",
          "midi": 59,
          "time": 77.51299600000004,
          "velocity": 0.2204724409448819,
          "duration": 0.20725400000000604
        },
        {
          "name": "D#4",
          "midi": 63,
          "time": 77.61662300000005,
          "velocity": 0.25196850393700787,
          "duration": 0.10362700000000302
        },
        {
          "name": "B2",
          "midi": 47,
          "time": 77.72025000000005,
          "velocity": 0.1968503937007874,
          "duration": 0.051813499999994406
        },
        {
          "name": "G#4",
          "midi": 68,
          "time": 77.92750400000004,
          "velocity": 0.25984251968503935,
          "duration": 0.10362700000000302
        },
        {
          "name": "B3",
          "midi": 59,
          "time": 77.92750400000004,
          "velocity": 0.1968503937007874,
          "duration": 0.20725400000000604
        },
        {
          "name": "D4",
          "midi": 62,
          "time": 78.03113100000004,
          "velocity": 0.2283464566929134,
          "duration": 0.10362700000000302
        },
        {
          "name": "E3",
          "midi": 52,
          "time": 78.13475800000005,
          "velocity": 0.1889763779527559,
          "duration": 0.051813499999994406
        },
        {
          "name": "G4",
          "midi": 67,
          "time": 78.34201200000004,
          "velocity": 0.25984251968503935,
          "duration": 0.10362700000000302
        },
        {
          "name": "A3",
          "midi": 57,
          "time": 78.34201200000004,
          "velocity": 0.2125984251968504,
          "duration": 0.20725400000000604
        },
        {
          "name": "C#4",
          "midi": 61,
          "time": 78.44563900000004,
          "velocity": 0.2440944881889764,
          "duration": 0.10362700000000302
        },
        {
          "name": "A2",
          "midi": 45,
          "time": 78.54926600000005,
          "velocity": 0.2047244094488189,
          "duration": 0.051813499999994406
        },
        {
          "name": "D4",
          "midi": 62,
          "time": 78.75652000000004,
          "velocity": 0.2677165354330709,
          "duration": 0.10362700000000302
        },
        {
          "name": "G3",
          "midi": 55,
          "time": 78.75652000000004,
          "velocity": 0.2125984251968504,
          "duration": 0.20725400000000604
        },
        {
          "name": "A#3",
          "midi": 58,
          "time": 78.86014700000004,
          "velocity": 0.2440944881889764,
          "duration": 0.10362700000000302
        },
        {
          "name": "A#2",
          "midi": 46,
          "time": 78.96377400000004,
          "velocity": 0.1889763779527559,
          "duration": 0.051813499999994406
        },
        {
          "name": "E4",
          "midi": 64,
          "time": 79.17102800000004,
          "velocity": 0.25196850393700787,
          "duration": 0.10362700000000302
        },
        {
          "name": "G3",
          "midi": 55,
          "time": 79.17102800000004,
          "velocity": 0.2047244094488189,
          "duration": 0.20725400000000604
        },
        {
          "name": "A#3",
          "midi": 58,
          "time": 79.27465500000004,
          "velocity": 0.23622047244094488,
          "duration": 0.10362700000000302
        },
        {
          "name": "C3",
          "midi": 48,
          "time": 79.37828200000004,
          "velocity": 0.1889763779527559,
          "duration": 0.051813499999994406
        },
        {
          "name": "A3",
          "midi": 57,
          "time": 79.58553600000003,
          "velocity": 0.25984251968503935,
          "duration": 0.10362699999998881
        },
        {
          "name": "C3",
          "midi": 48,
          "time": 79.58553600000003,
          "velocity": 0.2125984251968504,
          "duration": 0.20725399999999183
        },
        {
          "name": "F3",
          "midi": 53,
          "time": 79.68916300000002,
          "velocity": 0.2440944881889764,
          "duration": 0.10362700000000302
        },
        {
          "name": "F2",
          "midi": 41,
          "time": 79.79279000000002,
          "velocity": 0.2047244094488189,
          "duration": 0.20725400000000604
        },
        {
          "name": "A3",
          "midi": 57,
          "time": 80.00004400000003,
          "velocity": 0.2755905511811024,
          "duration": 0.10362700000000302
        },
        {
          "name": "C3",
          "midi": 48,
          "time": 80.00004400000003,
          "velocity": 0.2125984251968504,
          "duration": 0.20725400000000604
        },
        {
          "name": "F3",
          "midi": 53,
          "time": 80.10367100000003,
          "velocity": 0.25984251968503935,
          "duration": 0.10362700000000302
        },
        {
          "name": "F2",
          "midi": 41,
          "time": 80.20729800000004,
          "velocity": 0.1968503937007874,
          "duration": 0.20725400000000604
        },
        {
          "name": "A#3",
          "midi": 58,
          "time": 80.41455200000004,
          "velocity": 0.2677165354330709,
          "duration": 0.10362699999998881
        },
        {
          "name": "C3",
          "midi": 48,
          "time": 80.41455200000004,
          "velocity": 0.2125984251968504,
          "duration": 0.20725399999999183
        },
        {
          "name": "E3",
          "midi": 52,
          "time": 80.51817900000003,
          "velocity": 0.25196850393700787,
          "duration": 0.10362700000000302
        },
        {
          "name": "F2",
          "midi": 41,
          "time": 80.62180600000003,
          "velocity": 0.1968503937007874,
          "duration": 0.20725400000000604
        },
        {
          "name": "A3",
          "midi": 57,
          "time": 80.82906000000004,
          "velocity": 0.2755905511811024,
          "duration": 0.10362699999998881
        },
        {
          "name": "C3",
          "midi": 48,
          "time": 80.82906000000004,
          "velocity": 0.2283464566929134,
          "duration": 0.20725399999999183
        },
        {
          "name": "F3",
          "midi": 53,
          "time": 80.93268700000003,
          "velocity": 0.25984251968503935,
          "duration": 0.10362700000000302
        },
        {
          "name": "F2",
          "midi": 41,
          "time": 81.03631400000003,
          "velocity": 0.2125984251968504,
          "duration": 0.20725400000000604
        },
        {
          "name": "A3",
          "midi": 57,
          "time": 81.24356800000004,
          "velocity": 0.2677165354330709,
          "duration": 0.10362700000000302
        },
        {
          "name": "C3",
          "midi": 48,
          "time": 81.24356800000004,
          "velocity": 0.2125984251968504,
          "duration": 0.20725400000000604
        },
        {
          "name": "F3",
          "midi": 53,
          "time": 81.34719500000004,
          "velocity": 0.25196850393700787,
          "duration": 0.10362700000000302
        },
        {
          "name": "F2",
          "midi": 41,
          "time": 81.45082200000004,
          "velocity": 0.1889763779527559,
          "duration": 0.20725400000000604
        },
        {
          "name": "A#3",
          "midi": 58,
          "time": 81.65807600000005,
          "velocity": 0.25196850393700787,
          "duration": 0.10362699999998881
        },
        {
          "name": "C3",
          "midi": 48,
          "time": 81.65807600000005,
          "velocity": 0.2047244094488189,
          "duration": 0.20725399999999183
        },
        {
          "name": "E3",
          "midi": 52,
          "time": 81.76170300000004,
          "velocity": 0.23622047244094488,
          "duration": 0.10362700000000302
        },
        {
          "name": "F2",
          "midi": 41,
          "time": 81.86533000000004,
          "velocity": 0.18110236220472442,
          "duration": 0.20725400000000604
        },
        {
          "name": "A3",
          "midi": 57,
          "time": 82.07258400000005,
          "velocity": 0.25984251968503935,
          "duration": 0.10362699999998881
        },
        {
          "name": "C3",
          "midi": 48,
          "time": 82.07258400000005,
          "velocity": 0.2125984251968504,
          "duration": 0.20725399999999183
        },
        {
          "name": "F3",
          "midi": 53,
          "time": 82.17621100000004,
          "velocity": 0.2440944881889764,
          "duration": 0.10362700000000302
        },
        {
          "name": "F2",
          "midi": 41,
          "time": 82.27983800000004,
          "velocity": 0.1968503937007874,
          "duration": 0.20725400000000604
        },
        {
          "name": "F1",
          "midi": 29,
          "time": 82.48709200000005,
          "velocity": 0.2125984251968504,
          "duration": 0.20725400000000604
        },
        {
          "name": "F2",
          "midi": 41,
          "time": 82.90160000000006,
          "velocity": 0.1732283464566929,
          "duration": 0.4145079999999979
        },
        {
          "name": "C3",
          "midi": 48,
          "time": 82.90160000000006,
          "velocity": 0.1732283464566929,
          "duration": 0.4145079999999979
        },
        {
          "name": "A3",
          "midi": 57,
          "time": 82.90160000000006,
          "velocity": 0.2047244094488189,
          "duration": 0.4145079999999979
        },
        {
          "name": "F3",
          "midi": 53,
          "time": 83.31610800000006,
          "velocity": 0.16535433070866143,
          "duration": 0.4145079999999979
        },
        {
          "name": "C4",
          "midi": 60,
          "time": 83.31610800000006,
          "velocity": 0.16535433070866143,
          "duration": 0.4145079999999979
        },
        {
          "name": "A4",
          "midi": 69,
          "time": 83.31610800000006,
          "velocity": 0.2047244094488189,
          "duration": 0.4145079999999979
        },
        {
          "name": "F1",
          "midi": 29,
          "time": 83.73061600000005,
          "velocity": 0.1968503937007874,
          "duration": 0.20725400000000604
        },
        {
          "name": "F2",
          "midi": 41,
          "time": 84.14512400000007,
          "velocity": 0.14960629921259844,
          "duration": 0.4145079999999979
        },
        {
          "name": "C3",
          "midi": 48,
          "time": 84.14512400000007,
          "velocity": 0.14960629921259844,
          "duration": 0.4145079999999979
        },
        {
          "name": "A3",
          "midi": 57,
          "time": 84.14512400000007,
          "velocity": 0.1889763779527559,
          "duration": 0.4145079999999979
        },
        {
          "name": "F3",
          "midi": 53,
          "time": 84.55963200000006,
          "velocity": 0.14173228346456693,
          "duration": 0.4145079999999979
        },
        {
          "name": "C4",
          "midi": 60,
          "time": 84.55963200000006,
          "velocity": 0.14173228346456693,
          "duration": 0.4145079999999979
        },
        {
          "name": "A4",
          "midi": 69,
          "time": 84.55963200000006,
          "velocity": 0.18110236220472442,
          "duration": 0.4145079999999979
        },
        {
          "name": "C2",
          "midi": 36,
          "time": 87.87569600000006,
          "velocity": 0.18110236220472442,
          "duration": 0.4145079999999979
        },
        {
          "name": "C3",
          "midi": 48,
          "time": 87.87569600000006,
          "velocity": 0.2283464566929134,
          "duration": 0.4145079999999979
        },
        {
          "name": "F1",
          "midi": 29,
          "time": 88.29020400000006,
          "velocity": 0.18110236220472442,
          "duration": 1.2435239999999936
        },
        {
          "name": "F2",
          "midi": 41,
          "time": 88.29020400000006,
          "velocity": 0.2283464566929134,
          "duration": 1.2435239999999936
        },
        {
          "name": "F2",
          "midi": 41,
          "time": 89.53372800000005,
          "velocity": 0.18110236220472442,
          "duration": 0.8290159999999958
        },
        {
          "name": "C3",
          "midi": 48,
          "time": 89.53372800000005,
          "velocity": 0.2283464566929134,
          "duration": 0.8290159999999958
        }
      ],
      "controlChanges": {
        "7": [
          {
            "number": 7,
            "time": 0,
            "value": 0.7874015748031497
          }
        ],
        "10": [
          {
            "number": 10,
            "time": 0,
            "value": 0.5039370078740157
          }
        ],
        "64": [
          {
            "number": 64,
            "time": 0,
            "value": 0
          },
          {
            "number": 64,
            "time": 1.2538866999999998,
            "value": 1
          },
          {
            "number": 64,
            "time": 1.4533686749999997,
            "value": 0
          },
          {
            "number": 64,
            "time": 1.6830751916666662,
            "value": 1
          },
          {
            "number": 64,
            "time": 1.874785141666666,
            "value": 0
          },
          {
            "number": 64,
            "time": 2.088947608333333,
            "value": 1
          },
          {
            "number": 64,
            "time": 2.282384675,
            "value": 0
          },
          {
            "number": 64,
            "time": 2.5000013749999996,
            "value": 1
          },
          {
            "number": 64,
            "time": 2.7063918166666663,
            "value": 0
          },
          {
            "number": 64,
            "time": 2.9568237333333327,
            "value": 1
          },
          {
            "number": 64,
            "time": 3.118309141666666,
            "value": 0
          },
          {
            "number": 64,
            "time": 3.3713317333333324,
            "value": 1
          },
          {
            "number": 64,
            "time": 3.5474976333333323,
            "value": 0
          },
          {
            "number": 64,
            "time": 3.755615191666666,
            "value": 1
          },
          {
            "number": 64,
            "time": 3.953370049999999,
            "value": 0
          },
          {
            "number": 64,
            "time": 4.189121474999999,
            "value": 1
          },
          {
            "number": 64,
            "time": 4.364423816666666,
            "value": 0
          },
          {
            "number": 64,
            "time": 4.599311683333333,
            "value": 1
          },
          {
            "number": 64,
            "time": 4.776341141666667,
            "value": 0
          },
          {
            "number": 64,
            "time": 4.974096000000001,
            "value": 1
          },
          {
            "number": 64,
            "time": 6.162352266666672,
            "value": 0
          },
          {
            "number": 64,
            "time": 6.235754725000006,
            "value": 1
          },
          {
            "number": 64,
            "time": 6.415374858333339,
            "value": 0
          },
          {
            "number": 64,
            "time": 6.662352541666674,
            "value": 1
          },
          {
            "number": 64,
            "time": 6.848881141666674,
            "value": 0
          },
          {
            "number": 64,
            "time": 7.076860541666675,
            "value": 1
          },
          {
            "number": 64,
            "time": 7.2564806750000095,
            "value": 0
          },
          {
            "number": 64,
            "time": 7.47927872500001,
            "value": 1
          },
          {
            "number": 64,
            "time": 7.680487816666677,
            "value": 0
          },
          {
            "number": 64,
            "time": 7.930919733333344,
            "value": 1
          },
          {
            "number": 64,
            "time": 8.092405141666676,
            "value": 0
          },
          {
            "number": 64,
            "time": 8.345427733333342,
            "value": 1
          },
          {
            "number": 64,
            "time": 8.512094491666675,
            "value": 0
          },
          {
            "number": 64,
            "time": 8.729711191666674,
            "value": 1
          },
          {
            "number": 64,
            "time": 8.927466050000007,
            "value": 0
          },
          {
            "number": 64,
            "time": 9.163217475000007,
            "value": 1
          },
          {
            "number": 64,
            "time": 9.338519816666672,
            "value": 0
          },
          {
            "number": 64,
            "time": 9.573407683333338,
            "value": 1
          },
          {
            "number": 64,
            "time": 9.75043714166667,
            "value": 0
          },
          {
            "number": 64,
            "time": 9.948192000000002,
            "value": 1
          },
          {
            "number": 64,
            "time": 11.09413390833333,
            "value": 0
          },
          {
            "number": 64,
            "time": 11.209850724999995,
            "value": 1
          },
          {
            "number": 64,
            "time": 11.405014908333328,
            "value": 0
          },
          {
            "number": 64,
            "time": 11.636448541666661,
            "value": 1
          },
          {
            "number": 64,
            "time": 11.82297714166666,
            "value": 0
          },
          {
            "number": 64,
            "time": 12.050956541666661,
            "value": 1
          },
          {
            "number": 64,
            "time": 12.233167349999995,
            "value": 0
          },
          {
            "number": 64,
            "time": 12.453374724999994,
            "value": 1
          },
          {
            "number": 64,
            "time": 12.65458381666666,
            "value": 0
          },
          {
            "number": 64,
            "time": 12.905015733333325,
            "value": 1
          },
          {
            "number": 64,
            "time": 13.066501141666658,
            "value": 0
          },
          {
            "number": 64,
            "time": 13.319523733333323,
            "value": 1
          },
          {
            "number": 64,
            "time": 13.493098958333324,
            "value": 0
          },
          {
            "number": 64,
            "time": 13.703807191666657,
            "value": 1
          },
          {
            "number": 64,
            "time": 13.90156204999999,
            "value": 0
          },
          {
            "number": 64,
            "time": 14.13731347499999,
            "value": 1
          },
          {
            "number": 64,
            "time": 14.312615816666655,
            "value": 0
          },
          {
            "number": 64,
            "time": 14.547503683333321,
            "value": 1
          },
          {
            "number": 64,
            "time": 14.724533141666653,
            "value": 0
          },
          {
            "number": 64,
            "time": 14.922287999999986,
            "value": 1
          },
          {
            "number": 64,
            "time": 16.110544266666647,
            "value": 0
          },
          {
            "number": 64,
            "time": 16.18394672499998,
            "value": 1
          },
          {
            "number": 64,
            "time": 16.363566858333314,
            "value": 0
          },
          {
            "number": 64,
            "time": 16.610544541666645,
            "value": 1
          },
          {
            "number": 64,
            "time": 16.797073141666644,
            "value": 0
          },
          {
            "number": 64,
            "time": 17.025052541666643,
            "value": 1
          },
          {
            "number": 64,
            "time": 17.204672674999976,
            "value": 0
          },
          {
            "number": 64,
            "time": 17.427470724999974,
            "value": 1
          },
          {
            "number": 64,
            "time": 17.62867981666664,
            "value": 0
          },
          {
            "number": 64,
            "time": 17.879111733333307,
            "value": 1
          },
          {
            "number": 64,
            "time": 18.040597141666638,
            "value": 0
          },
          {
            "number": 64,
            "time": 18.293619733333305,
            "value": 1
          },
          {
            "number": 64,
            "time": 18.4646042833333,
            "value": 0
          },
          {
            "number": 64,
            "time": 18.677903191666633,
            "value": 1
          },
          {
            "number": 64,
            "time": 18.875658049999966,
            "value": 0
          },
          {
            "number": 64,
            "time": 19.111409474999967,
            "value": 1
          },
          {
            "number": 64,
            "time": 19.28671181666663,
            "value": 0
          },
          {
            "number": 64,
            "time": 19.521599683333296,
            "value": 1
          },
          {
            "number": 64,
            "time": 19.69862914166663,
            "value": 0
          },
          {
            "number": 64,
            "time": 19.896383999999962,
            "value": 1
          },
          {
            "number": 64,
            "time": 21.04232590833329,
            "value": 0
          },
          {
            "number": 64,
            "time": 21.158042724999955,
            "value": 1
          },
          {
            "number": 64,
            "time": 21.557870233333286,
            "value": 0
          },
          {
            "number": 64,
            "time": 21.619182874999954,
            "value": 1
          },
          {
            "number": 64,
            "time": 21.972378233333284,
            "value": 0
          },
          {
            "number": 64,
            "time": 22.02850952499995,
            "value": 1
          },
          {
            "number": 64,
            "time": 22.386886233333282,
            "value": 0
          },
          {
            "number": 64,
            "time": 22.46719715833328,
            "value": 1
          },
          {
            "number": 64,
            "time": 22.803121349999948,
            "value": 0
          },
          {
            "number": 64,
            "time": 22.85320773333328,
            "value": 1
          },
          {
            "number": 64,
            "time": 23.626955999999943,
            "value": 0
          },
          {
            "number": 64,
            "time": 23.686541524999942,
            "value": 1
          },
          {
            "number": 64,
            "time": 24.044918233333274,
            "value": 0
          },
          {
            "number": 64,
            "time": 24.10104952499994,
            "value": 1
          },
          {
            "number": 64,
            "time": 24.462880466666604,
            "value": 0
          },
          {
            "number": 64,
            "time": 24.525056666666604,
            "value": 1
          },
          {
            "number": 64,
            "time": 24.870479999999937,
            "value": 0
          },
          {
            "number": 64,
            "time": 24.95424515833327,
            "value": 1
          },
          {
            "number": 64,
            "time": 25.290169349999935,
            "value": 0
          },
          {
            "number": 64,
            "time": 25.34025573333327,
            "value": 1
          },
          {
            "number": 64,
            "time": 26.11400399999993,
            "value": 0
          },
          {
            "number": 64,
            "time": 26.17358952499993,
            "value": 1
          },
          {
            "number": 64,
            "time": 26.53455690833326,
            "value": 0
          },
          {
            "number": 64,
            "time": 26.57341703333326,
            "value": 1
          },
          {
            "number": 64,
            "time": 26.95165558333326,
            "value": 0
          },
          {
            "number": 64,
            "time": 27.026785158333258,
            "value": 1
          },
          {
            "number": 64,
            "time": 27.357527999999924,
            "value": 0
          },
          {
            "number": 64,
            "time": 27.441293158333256,
            "value": 1
          },
          {
            "number": 64,
            "time": 27.777217349999923,
            "value": 0
          },
          {
            "number": 64,
            "time": 27.827303733333256,
            "value": 1
          },
          {
            "number": 64,
            "time": 28.601051999999918,
            "value": 0
          },
          {
            "number": 64,
            "time": 28.660637524999917,
            "value": 1
          },
          {
            "number": 64,
            "time": 29.02246846666658,
            "value": 0
          },
          {
            "number": 64,
            "time": 29.080326874999916,
            "value": 1
          },
          {
            "number": 64,
            "time": 29.436112908333246,
            "value": 0
          },
          {
            "number": 64,
            "time": 29.489653524999913,
            "value": 1
          },
          {
            "number": 64,
            "time": 29.84630311666658,
            "value": 0
          },
          {
            "number": 64,
            "time": 29.928341158333247,
            "value": 1
          },
          {
            "number": 64,
            "time": 30.264265349999913,
            "value": 0
          },
          {
            "number": 64,
            "time": 30.314351733333247,
            "value": 1
          },
          {
            "number": 64,
            "time": 31.08809999999991,
            "value": 0
          },
          {
            "number": 64,
            "time": 31.147685524999908,
            "value": 1
          },
          {
            "number": 64,
            "time": 31.50951646666657,
            "value": 0
          },
          {
            "number": 64,
            "time": 31.567374874999906,
            "value": 1
          },
          {
            "number": 64,
            "time": 31.923160908333237,
            "value": 0
          },
          {
            "number": 64,
            "time": 31.98620066666657,
            "value": 1
          },
          {
            "number": 64,
            "time": 32.33594179166657,
            "value": 0
          },
          {
            "number": 64,
            "time": 32.415389158333234,
            "value": 1
          },
          {
            "number": 64,
            "time": 32.751313349999904,
            "value": 0
          },
          {
            "number": 64,
            "time": 32.801399733333234,
            "value": 1
          },
          {
            "number": 64,
            "time": 33.575147999999906,
            "value": 0
          },
          {
            "number": 64,
            "time": 33.63473352499991,
            "value": 1
          },
          {
            "number": 64,
            "time": 33.99570090833325,
            "value": 0
          },
          {
            "number": 64,
            "time": 34.054422874999915,
            "value": 1
          },
          {
            "number": 64,
            "time": 34.412799583333246,
            "value": 0
          },
          {
            "number": 64,
            "time": 34.498291858333246,
            "value": 1
          },
          {
            "number": 64,
            "time": 34.82471690833325,
            "value": 0
          },
          {
            "number": 64,
            "time": 34.90243715833325,
            "value": 1
          },
          {
            "number": 64,
            "time": 35.23836134999992,
            "value": 0
          },
          {
            "number": 64,
            "time": 35.28844773333325,
            "value": 1
          },
          {
            "number": 64,
            "time": 35.98792998333326,
            "value": 0
          },
          {
            "number": 64,
            "time": 36.11400949999993,
            "value": 1
          },
          {
            "number": 64,
            "time": 36.48274890833327,
            "value": 0
          },
          {
            "number": 64,
            "time": 36.514700566666605,
            "value": 1
          },
          {
            "number": 64,
            "time": 36.87998574166661,
            "value": 0
          },
          {
            "number": 64,
            "time": 36.9706593666666,
            "value": 1
          },
          {
            "number": 64,
            "time": 37.30571999999994,
            "value": 0
          },
          {
            "number": 64,
            "time": 37.341989449999936,
            "value": 1
          },
          {
            "number": 64,
            "time": 37.7245457916666,
            "value": 0
          },
          {
            "number": 64,
            "time": 37.775495733333265,
            "value": 1
          },
          {
            "number": 64,
            "time": 38.14078090833327,
            "value": 0
          },
          {
            "number": 64,
            "time": 38.19000373333327,
            "value": 1
          },
          {
            "number": 64,
            "time": 38.55442534999994,
            "value": 0
          },
          {
            "number": 64,
            "time": 38.60882952499994,
            "value": 1
          },
          {
            "number": 64,
            "time": 38.96720623333328,
            "value": 0
          },
          {
            "number": 64,
            "time": 39.00779347499994,
            "value": 1
          },
          {
            "number": 64,
            "time": 39.38775914166661,
            "value": 0
          },
          {
            "number": 64,
            "time": 39.45770736666661,
            "value": 1
          },
          {
            "number": 64,
            "time": 39.795358674999946,
            "value": 0
          },
          {
            "number": 64,
            "time": 39.88430518333328,
            "value": 1
          },
          {
            "number": 64,
            "time": 40.98102426666663,
            "value": 0
          },
          {
            "number": 64,
            "time": 41.08810549999996,
            "value": 1
          },
          {
            "number": 64,
            "time": 41.45511779166663,
            "value": 0
          },
          {
            "number": 64,
            "time": 41.51815754999996,
            "value": 1
          },
          {
            "number": 64,
            "time": 41.870489349999964,
            "value": 0
          },
          {
            "number": 64,
            "time": 41.9387104583333,
            "value": 1
          },
          {
            "number": 64,
            "time": 42.27981599999997,
            "value": 0
          },
          {
            "number": 64,
            "time": 42.322130358333304,
            "value": 1
          },
          {
            "number": 64,
            "time": 42.7029595833333,
            "value": 0
          },
          {
            "number": 64,
            "time": 42.749591733333304,
            "value": 1
          },
          {
            "number": 64,
            "time": 43.11660402499997,
            "value": 0
          },
          {
            "number": 64,
            "time": 43.16409973333331,
            "value": 1
          },
          {
            "number": 64,
            "time": 43.523339999999976,
            "value": 0
          },
          {
            "number": 64,
            "time": 43.587243316666644,
            "value": 1
          },
          {
            "number": 64,
            "time": 43.94907425833331,
            "value": 0
          },
          {
            "number": 64,
            "time": 43.98188947499998,
            "value": 1
          },
          {
            "number": 64,
            "time": 44.36012802499999,
            "value": 0
          },
          {
            "number": 64,
            "time": 44.43180336666666,
            "value": 1
          },
          {
            "number": 64,
            "time": 44.77290890833333,
            "value": 0
          },
          {
            "number": 64,
            "time": 44.85235627499999,
            "value": 1
          },
          {
            "number": 64,
            "time": 45.955120266666675,
            "value": 0
          },
          {
            "number": 64,
            "time": 46.06220150000001,
            "value": 1
          },
          {
            "number": 64,
            "time": 46.42835023333335,
            "value": 0
          },
          {
            "number": 64,
            "time": 46.49398066666668,
            "value": 1
          },
          {
            "number": 64,
            "time": 46.85840228333335,
            "value": 0
          },
          {
            "number": 64,
            "time": 46.90848866666668,
            "value": 1
          },
          {
            "number": 64,
            "time": 47.26082046666668,
            "value": 0
          },
          {
            "number": 64,
            "time": 47.308316175000016,
            "value": 1
          },
          {
            "number": 64,
            "time": 47.67101067500002,
            "value": 0
          },
          {
            "number": 64,
            "time": 47.72368773333335,
            "value": 1
          },
          {
            "number": 64,
            "time": 48.08810935000002,
            "value": 0
          },
          {
            "number": 64,
            "time": 48.13819573333335,
            "value": 1
          },
          {
            "number": 64,
            "time": 48.505208025000016,
            "value": 0
          },
          {
            "number": 64,
            "time": 48.549249500000016,
            "value": 1
          },
          {
            "number": 64,
            "time": 48.921443141666686,
            "value": 0
          },
          {
            "number": 64,
            "time": 48.98102866666669,
            "value": 1
          },
          {
            "number": 64,
            "time": 49.337678258333355,
            "value": 0
          },
          {
            "number": 64,
            "time": 49.395536666666686,
            "value": 1
          },
          {
            "number": 64,
            "time": 49.74527779166669,
            "value": 0
          },
          {
            "number": 64,
            "time": 49.79536417500002,
            "value": 1
          },
          {
            "number": 64,
            "time": 50.162376466666686,
            "value": 0
          },
          {
            "number": 64,
            "time": 50.21073573333335,
            "value": 1
          },
          {
            "number": 64,
            "time": 50.57515735000002,
            "value": 0
          },
          {
            "number": 64,
            "time": 50.62524373333335,
            "value": 1
          },
          {
            "number": 64,
            "time": 50.98966535000002,
            "value": 0
          },
          {
            "number": 64,
            "time": 51.03629750000002,
            "value": 1
          },
          {
            "number": 64,
            "time": 51.40676402500002,
            "value": 0
          },
          {
            "number": 64,
            "time": 51.47843936666669,
            "value": 1
          },
          {
            "number": 64,
            "time": 51.82558981666669,
            "value": 0
          },
          {
            "number": 64,
            "time": 51.882584666666695,
            "value": 1
          },
          {
            "number": 64,
            "time": 52.23318935000003,
            "value": 0
          },
          {
            "number": 64,
            "time": 52.28241217500003,
            "value": 1
          },
          {
            "number": 64,
            "time": 52.65028802500004,
            "value": 0
          },
          {
            "number": 64,
            "time": 52.697783733333374,
            "value": 1
          },
          {
            "number": 64,
            "time": 53.06393246666671,
            "value": 0
          },
          {
            "number": 64,
            "time": 53.11229173333337,
            "value": 1
          },
          {
            "number": 64,
            "time": 53.477576908333376,
            "value": 0
          },
          {
            "number": 64,
            "time": 53.52334550000004,
            "value": 1
          },
          {
            "number": 64,
            "time": 53.89812981666671,
            "value": 0
          },
          {
            "number": 64,
            "time": 53.96030601666671,
            "value": 1
          },
          {
            "number": 64,
            "time": 54.31177425833338,
            "value": 0
          },
          {
            "number": 64,
            "time": 54.36963266666671,
            "value": 1
          },
          {
            "number": 64,
            "time": 54.72023735000005,
            "value": 0
          },
          {
            "number": 64,
            "time": 54.76946017500005,
            "value": 1
          },
          {
            "number": 64,
            "time": 55.13647246666672,
            "value": 0
          },
          {
            "number": 64,
            "time": 55.18483173333338,
            "value": 1
          },
          {
            "number": 64,
            "time": 55.550980466666715,
            "value": 0
          },
          {
            "number": 64,
            "time": 55.59933973333338,
            "value": 1
          },
          {
            "number": 64,
            "time": 55.95858000000005,
            "value": 0
          },
          {
            "number": 64,
            "time": 56.01039350000005,
            "value": 1
          },
          {
            "number": 64,
            "time": 56.380860025000054,
            "value": 0
          },
          {
            "number": 64,
            "time": 56.437854875000056,
            "value": 1
          },
          {
            "number": 64,
            "time": 56.799685816666724,
            "value": 0
          },
          {
            "number": 64,
            "time": 56.856680666666726,
            "value": 1
          },
          {
            "number": 64,
            "time": 57.21073958333339,
            "value": 0
          },
          {
            "number": 64,
            "time": 57.25650817500006,
            "value": 1
          },
          {
            "number": 64,
            "time": 57.626111141666726,
            "value": 0
          },
          {
            "number": 64,
            "time": 57.67187973333339,
            "value": 1
          },
          {
            "number": 64,
            "time": 58.03975558333339,
            "value": 0
          },
          {
            "number": 64,
            "time": 58.08638773333339,
            "value": 1
          },
          {
            "number": 64,
            "time": 58.45167290833339,
            "value": 0
          },
          {
            "number": 64,
            "time": 58.49744150000006,
            "value": 1
          },
          {
            "number": 64,
            "time": 58.86704446666673,
            "value": 0
          },
          {
            "number": 64,
            "time": 58.933538458333395,
            "value": 1
          },
          {
            "number": 64,
            "time": 59.28673381666673,
            "value": 0
          },
          {
            "number": 64,
            "time": 59.343728666666735,
            "value": 1
          },
          {
            "number": 64,
            "time": 59.68915200000007,
            "value": 0
          },
          {
            "number": 64,
            "time": 59.74355617500007,
            "value": 1
          },
          {
            "number": 64,
            "time": 60.112295583333406,
            "value": 0
          },
          {
            "number": 64,
            "time": 60.15892773333341,
            "value": 1
          },
          {
            "number": 64,
            "time": 60.525940025000075,
            "value": 0
          },
          {
            "number": 64,
            "time": 60.57343573333341,
            "value": 1
          },
          {
            "number": 64,
            "time": 60.87136335833341,
            "value": 0
          },
          {
            "number": 64,
            "time": 60.95081072500008,
            "value": 1
          },
          {
            "number": 64,
            "time": 61.14338423333342,
            "value": 0
          },
          {
            "number": 64,
            "time": 61.37740854166675,
            "value": 1
          },
          {
            "number": 64,
            "time": 61.563937141666756,
            "value": 0
          },
          {
            "number": 64,
            "time": 61.79191654166676,
            "value": 1
          },
          {
            "number": 64,
            "time": 61.976718025000096,
            "value": 0
          },
          {
            "number": 64,
            "time": 62.1943347250001,
            "value": 1
          },
          {
            "number": 64,
            "time": 62.395543816666766,
            "value": 0
          },
          {
            "number": 64,
            "time": 62.64597573333343,
            "value": 1
          },
          {
            "number": 64,
            "time": 62.807461141666764,
            "value": 0
          },
          {
            "number": 64,
            "time": 63.06048373333343,
            "value": 1
          },
          {
            "number": 64,
            "time": 63.23664963333343,
            "value": 0
          },
          {
            "number": 64,
            "time": 63.44476719166676,
            "value": 1
          },
          {
            "number": 64,
            "time": 63.6425220500001,
            "value": 0
          },
          {
            "number": 64,
            "time": 63.8782734750001,
            "value": 1
          },
          {
            "number": 64,
            "time": 64.05357581666678,
            "value": 0
          },
          {
            "number": 64,
            "time": 64.28846368333345,
            "value": 1
          },
          {
            "number": 64,
            "time": 64.46549314166678,
            "value": 0
          },
          {
            "number": 64,
            "time": 64.66324800000011,
            "value": 1
          },
          {
            "number": 64,
            "time": 65.85150426666677,
            "value": 0
          },
          {
            "number": 64,
            "time": 65.9249067250001,
            "value": 1
          },
          {
            "number": 64,
            "time": 66.12179802500009,
            "value": 0
          },
          {
            "number": 64,
            "time": 66.35150454166676,
            "value": 1
          },
          {
            "number": 64,
            "time": 66.53803314166676,
            "value": 0
          },
          {
            "number": 64,
            "time": 66.76601254166675,
            "value": 1
          },
          {
            "number": 64,
            "time": 66.95081402500008,
            "value": 0
          },
          {
            "number": 64,
            "time": 67.16843072500008,
            "value": 1
          },
          {
            "number": 64,
            "time": 67.36963981666675,
            "value": 0
          },
          {
            "number": 64,
            "time": 67.62007173333342,
            "value": 1
          },
          {
            "number": 64,
            "time": 67.78155714166675,
            "value": 0
          },
          {
            "number": 64,
            "time": 68.03457973333342,
            "value": 1
          },
          {
            "number": 64,
            "time": 68.21074563333342,
            "value": 0
          },
          {
            "number": 64,
            "time": 68.41886319166674,
            "value": 1
          },
          {
            "number": 64,
            "time": 68.61661805000008,
            "value": 0
          },
          {
            "number": 64,
            "time": 68.85236947500009,
            "value": 1
          },
          {
            "number": 64,
            "time": 69.02767181666677,
            "value": 0
          },
          {
            "number": 64,
            "time": 69.26255968333344,
            "value": 1
          },
          {
            "number": 64,
            "time": 69.43958914166677,
            "value": 0
          },
          {
            "number": 64,
            "time": 69.6373440000001,
            "value": 1
          },
          {
            "number": 64,
            "time": 70.05530623333343,
            "value": 0
          },
          {
            "number": 64,
            "time": 70.07603163333343,
            "value": 1
          },
          {
            "number": 64,
            "time": 70.48017693333342,
            "value": 0
          },
          {
            "number": 64,
            "time": 70.52767264166675,
            "value": 1
          },
          {
            "number": 64,
            "time": 70.91454677500008,
            "value": 0
          },
          {
            "number": 64,
            "time": 70.94218064166674,
            "value": 1
          },
          {
            "number": 64,
            "time": 71.30832937500006,
            "value": 0
          },
          {
            "number": 64,
            "time": 71.35064373333338,
            "value": 1
          },
          {
            "number": 64,
            "time": 71.72283737500004,
            "value": 0
          },
          {
            "number": 64,
            "time": 71.7556525916667,
            "value": 1
          },
          {
            "number": 64,
            "time": 72.12439200000003,
            "value": 0
          },
          {
            "number": 64,
            "time": 72.18570464166669,
            "value": 1
          },
          {
            "number": 64,
            "time": 72.54494490833335,
            "value": 0
          },
          {
            "number": 64,
            "time": 72.59416773333335,
            "value": 1
          },
          {
            "number": 64,
            "time": 72.95945290833336,
            "value": 0
          },
          {
            "number": 64,
            "time": 72.99313168333336,
            "value": 1
          },
          {
            "number": 64,
            "time": 73.37396090833337,
            "value": 0
          },
          {
            "number": 64,
            "time": 73.43527355000003,
            "value": 1
          },
          {
            "number": 64,
            "time": 73.78846890833339,
            "value": 0
          },
          {
            "number": 64,
            "time": 73.84373664166672,
            "value": 1
          },
          {
            "number": 64,
            "time": 74.20902181666673,
            "value": 0
          },
          {
            "number": 64,
            "time": 74.25824464166674,
            "value": 1
          },
          {
            "number": 64,
            "time": 74.61575779166674,
            "value": 0
          },
          {
            "number": 64,
            "time": 74.67275264166673,
            "value": 1
          },
          {
            "number": 64,
            "time": 75.03976493333339,
            "value": 0
          },
          {
            "number": 64,
            "time": 75.06567168333339,
            "value": 1
          },
          {
            "number": 64,
            "time": 75.44650090833339,
            "value": 0
          },
          {
            "number": 64,
            "time": 75.47068054166672,
            "value": 1
          },
          {
            "number": 64,
            "time": 75.86100890833339,
            "value": 0
          },
          {
            "number": 64,
            "time": 75.91627664166673,
            "value": 1
          },
          {
            "number": 64,
            "time": 76.28242537500005,
            "value": 0
          },
          {
            "number": 64,
            "time": 76.30919568333339,
            "value": 1
          },
          {
            "number": 64,
            "time": 76.68916135000005,
            "value": 0
          },
          {
            "number": 64,
            "time": 76.71420454166672,
            "value": 1
          },
          {
            "number": 64,
            "time": 77.10453290833338,
            "value": 0
          },
          {
            "number": 64,
            "time": 77.15980064166672,
            "value": 1
          },
          {
            "number": 64,
            "time": 77.51904090833338,
            "value": 0
          },
          {
            "number": 64,
            "time": 77.55790103333338,
            "value": 1
          },
          {
            "number": 64,
            "time": 77.9318217916667,
            "value": 0
          },
          {
            "number": 64,
            "time": 77.95772854166671,
            "value": 1
          },
          {
            "number": 64,
            "time": 78.34805690833338,
            "value": 0
          },
          {
            "number": 64,
            "time": 78.40332464166671,
            "value": 1
          },
          {
            "number": 64,
            "time": 78.7712004916667,
            "value": 0
          },
          {
            "number": 64,
            "time": 78.81437840833337,
            "value": 1
          },
          {
            "number": 64,
            "time": 79.17880002500003,
            "value": 0
          },
          {
            "number": 64,
            "time": 79.22888640833337,
            "value": 1
          },
          {
            "number": 64,
            "time": 79.58553600000003,
            "value": 0
          },
          {
            "number": 64,
            "time": 79.6468486416667,
            "value": 1
          },
          {
            "number": 64,
            "time": 80.42232402500004,
            "value": 0
          },
          {
            "number": 64,
            "time": 80.4939993666667,
            "value": 1
          },
          {
            "number": 64,
            "time": 80.83165067500003,
            "value": 0
          },
          {
            "number": 64,
            "time": 80.8903726416667,
            "value": 1
          },
          {
            "number": 64,
            "time": 81.66153023333338,
            "value": 0
          },
          {
            "number": 64,
            "time": 81.74356827500004,
            "value": 1
          },
          {
            "number": 64,
            "time": 82.07690179166671,
            "value": 0
          },
          {
            "number": 64,
            "time": 82.13389664166671,
            "value": 1
          },
          {
            "number": 64,
            "time": 87.46118800000006,
            "value": 0
          },
          {
            "number": 64,
            "time": 88.70471200000006,
            "value": 1
          },
          {
            "number": 64,
            "time": 91.60626800000004,
            "value": 0
          }
        ]
      },
      "id": 2,
      "name": "Piano left",
      "instrumentNumber": 0,
      "instrument": "acoustic grand piano",
      "instrumentFamily": "piano",
      "channelNumber": 0,
      "isPercussion": false
    },
    {
      "startTime": 0,
      "duration": 0,
      "length": 0,
      "notes": [],
      "controlChanges": {},
      "id": 3,
      "name": "Chopin: Etude No. 3 in F Major Op. 25"
    },
    {
      "startTime": 0,
      "duration": 0,
      "length": 0,
      "notes": [],
      "controlChanges": {},
      "id": 4,
      "name": "Copyright  2003 by Bernd Krueger"
    },
    {
      "startTime": 0,
      "duration": 0,
      "length": 0,
      "notes": [],
      "controlChanges": {},
      "id": 5,
      "name": "http://www.piano-midi.de"
    },
    {
      "startTime": 0,
      "duration": 0,
      "length": 0,
      "notes": [],
      "controlChanges": {},
      "id": 6,
      "name": "Edition: 2014-02-17"
    },
    {
      "startTime": 0,
      "duration": 0,
      "length": 0,
      "notes": [],
      "controlChanges": {},
      "id": 7,
      "name": "Spur 7"
    }
  ]
}
