{
    "header": {
        "PPQ": 480,
        "timeSignature": [
            4,
            4
        ],
        "bpm": 122.84006223896486,
        "name": "Doctor Gradus ad Parnassum"
    },
    "startTime": 0,
    "duration": 146.77622,
    "tracks": [
        {
            "startTime": 0,
            "duration": 0,
            "length": 0,
            "notes": [],
            "controlChanges": {},
            "id": 0,
            "name": "Doctor Gradus ad Parnassum"
        },
        {
            "startTime": 0.12211000000000001,
            "duration": 146.77622,
            "length": 720,
            "notes": [
                {
                    "name": "G3",
                    "midi": 55,
                    "time": 0.12211000000000001,
                    "velocity": 0.1968503937007874,
                    "duration": 0.12211000000000001
                },
                {
                    "name": "C4",
                    "midi": 60,
                    "time": 0.24422000000000002,
                    "velocity": 0.2047244094488189,
                    "duration": 0.12211000000000002
                },
                {
                    "name": "D4",
                    "midi": 62,
                    "time": 0.36633000000000004,
                    "velocity": 0.1889763779527559,
                    "duration": 0.12211
                },
                {
                    "name": "E4",
                    "midi": 64,
                    "time": 0.48844000000000004,
                    "velocity": 0.2283464566929134,
                    "duration": 0.12211
                },
                {
                    "name": "G3",
                    "midi": 55,
                    "time": 0.61055,
                    "velocity": 0.2125984251968504,
                    "duration": 0.12211000000000005
                },
                {
                    "name": "C4",
                    "midi": 60,
                    "time": 0.7326600000000001,
                    "velocity": 0.2125984251968504,
                    "duration": 0.12211000000000005
                },
                {
                    "name": "E4",
                    "midi": 64,
                    "time": 0.8547700000000001,
                    "velocity": 0.2047244094488189,
                    "duration": 0.12211000000000005
                },
                {
                    "name": "D4",
                    "midi": 62,
                    "time": 0.9768800000000002,
                    "velocity": 0.2440944881889764,
                    "duration": 0.12210999999999994
                },
                {
                    "name": "F3",
                    "midi": 53,
                    "time": 1.0989900000000001,
                    "velocity": 0.2283464566929134,
                    "duration": 0.12210999999999994
                },
                {
                    "name": "C4",
                    "midi": 60,
                    "time": 1.2211,
                    "velocity": 0.23622047244094488,
                    "duration": 0.12210999999999994
                },
                {
                    "name": "D4",
                    "midi": 62,
                    "time": 1.34321,
                    "velocity": 0.2125984251968504,
                    "duration": 0.12210999999999994
                },
                {
                    "name": "F4",
                    "midi": 65,
                    "time": 1.46532,
                    "velocity": 0.2677165354330709,
                    "duration": 0.12210999999999994
                },
                {
                    "name": "A3",
                    "midi": 57,
                    "time": 1.58743,
                    "velocity": 0.2440944881889764,
                    "duration": 0.12210999999999994
                },
                {
                    "name": "B3",
                    "midi": 59,
                    "time": 1.7095399999999998,
                    "velocity": 0.25196850393700787,
                    "duration": 0.12210999999999994
                },
                {
                    "name": "F4",
                    "midi": 65,
                    "time": 1.8316499999999998,
                    "velocity": 0.23622047244094488,
                    "duration": 0.12210999999999994
                },
                {
                    "name": "E4",
                    "midi": 64,
                    "time": 1.9537599999999997,
                    "velocity": 0.29133858267716534,
                    "duration": 0.12210999999999994
                },
                {
                    "name": "G3",
                    "midi": 55,
                    "time": 2.0758699999999997,
                    "velocity": 0.2677165354330709,
                    "duration": 0.12211000000000016
                },
                {
                    "name": "C4",
                    "midi": 60,
                    "time": 2.19798,
                    "velocity": 0.2677165354330709,
                    "duration": 0.12211000000000016
                },
                {
                    "name": "E4",
                    "midi": 64,
                    "time": 2.32009,
                    "velocity": 0.25196850393700787,
                    "duration": 0.12211000000000016
                },
                {
                    "name": "G4",
                    "midi": 67,
                    "time": 2.4422,
                    "velocity": 0.29133858267716534,
                    "duration": 0.12211000000000016
                },
                {
                    "name": "B3",
                    "midi": 59,
                    "time": 2.5643100000000003,
                    "velocity": 0.2677165354330709,
                    "duration": 0.12211000000000016
                },
                {
                    "name": "C4",
                    "midi": 60,
                    "time": 2.6864200000000005,
                    "velocity": 0.2677165354330709,
                    "duration": 0.12211000000000016
                },
                {
                    "name": "G4",
                    "midi": 67,
                    "time": 2.8085300000000006,
                    "velocity": 0.25196850393700787,
                    "duration": 0.12211000000000016
                },
                {
                    "name": "F4",
                    "midi": 65,
                    "time": 2.930640000000001,
                    "velocity": 0.2992125984251969,
                    "duration": 0.12211000000000016
                },
                {
                    "name": "A3",
                    "midi": 57,
                    "time": 3.052750000000001,
                    "velocity": 0.2755905511811024,
                    "duration": 0.12211000000000016
                },
                {
                    "name": "C4",
                    "midi": 60,
                    "time": 3.174860000000001,
                    "velocity": 0.2755905511811024,
                    "duration": 0.12211000000000016
                },
                {
                    "name": "F4",
                    "midi": 65,
                    "time": 3.2969700000000013,
                    "velocity": 0.25196850393700787,
                    "duration": 0.12211000000000016
                },
                {
                    "name": "A4",
                    "midi": 69,
                    "time": 3.4190800000000015,
                    "velocity": 0.2992125984251969,
                    "duration": 0.12211000000000016
                },
                {
                    "name": "B3",
                    "midi": 59,
                    "time": 3.5411900000000016,
                    "velocity": 0.2755905511811024,
                    "duration": 0.12211000000000016
                },
                {
                    "name": "F4",
                    "midi": 65,
                    "time": 3.6633000000000018,
                    "velocity": 0.2755905511811024,
                    "duration": 0.12211000000000016
                },
                {
                    "name": "A4",
                    "midi": 69,
                    "time": 3.785410000000002,
                    "velocity": 0.25196850393700787,
                    "duration": 0.12211000000000016
                },
                {
                    "name": "G4",
                    "midi": 67,
                    "time": 3.907520000000002,
                    "velocity": 0.33070866141732286,
                    "duration": 0.12210999999999972
                },
                {
                    "name": "C4",
                    "midi": 60,
                    "time": 4.029630000000002,
                    "velocity": 0.28346456692913385,
                    "duration": 0.12211000000000016
                },
                {
                    "name": "E4",
                    "midi": 64,
                    "time": 4.151740000000002,
                    "velocity": 0.28346456692913385,
                    "duration": 0.12211000000000016
                },
                {
                    "name": "G4",
                    "midi": 67,
                    "time": 4.273850000000002,
                    "velocity": 0.23622047244094488,
                    "duration": 0.12211000000000016
                },
                {
                    "name": "C5",
                    "midi": 72,
                    "time": 4.395960000000002,
                    "velocity": 0.3937007874015748,
                    "duration": 0.1831649999999998
                },
                {
                    "name": "E4",
                    "midi": 64,
                    "time": 4.5180700000000025,
                    "velocity": 0.2992125984251969,
                    "duration": 0.12210999999999927
                },
                {
                    "name": "G4",
                    "midi": 67,
                    "time": 4.640180000000002,
                    "velocity": 0.2992125984251969,
                    "duration": 0.12211000000000016
                },
                {
                    "name": "C5",
                    "midi": 72,
                    "time": 4.762290000000002,
                    "velocity": 0.25196850393700787,
                    "duration": 0.12211000000000016
                },
                {
                    "name": "D5",
                    "midi": 74,
                    "time": 4.884400000000002,
                    "velocity": 0.41732283464566927,
                    "duration": 0.1831649999999998
                },
                {
                    "name": "E4",
                    "midi": 64,
                    "time": 5.006510000000002,
                    "velocity": 0.33070866141732286,
                    "duration": 0.12210999999999927
                },
                {
                    "name": "G4",
                    "midi": 67,
                    "time": 5.1286200000000015,
                    "velocity": 0.33070866141732286,
                    "duration": 0.12211000000000016
                },
                {
                    "name": "D5",
                    "midi": 74,
                    "time": 5.250730000000002,
                    "velocity": 0.2755905511811024,
                    "duration": 0.12211000000000016
                },
                {
                    "name": "C5",
                    "midi": 72,
                    "time": 5.372840000000002,
                    "velocity": 0.4094488188976378,
                    "duration": 0.1831649999999998
                },
                {
                    "name": "E4",
                    "midi": 64,
                    "time": 5.494950000000002,
                    "velocity": 0.3228346456692913,
                    "duration": 0.12210999999999927
                },
                {
                    "name": "G4",
                    "midi": 67,
                    "time": 5.617060000000001,
                    "velocity": 0.3228346456692913,
                    "duration": 0.12211000000000016
                },
                {
                    "name": "C5",
                    "midi": 72,
                    "time": 5.739170000000001,
                    "velocity": 0.2992125984251969,
                    "duration": 0.12211000000000016
                },
                {
                    "name": "B4",
                    "midi": 71,
                    "time": 5.861280000000002,
                    "velocity": 0.3700787401574803,
                    "duration": 0.1831649999999998
                },
                {
                    "name": "E4",
                    "midi": 64,
                    "time": 5.983390000000002,
                    "velocity": 0.2992125984251969,
                    "duration": 0.12210999999999927
                },
                {
                    "name": "G4",
                    "midi": 67,
                    "time": 6.105500000000001,
                    "velocity": 0.2992125984251969,
                    "duration": 0.12211000000000016
                },
                {
                    "name": "B4",
                    "midi": 71,
                    "time": 6.227610000000001,
                    "velocity": 0.2125984251968504,
                    "duration": 0.12211000000000016
                },
                {
                    "name": "A4",
                    "midi": 69,
                    "time": 6.349720000000001,
                    "velocity": 0.3700787401574803,
                    "duration": 0.1831649999999998
                },
                {
                    "name": "E4",
                    "midi": 64,
                    "time": 6.4718300000000015,
                    "velocity": 0.2755905511811024,
                    "duration": 0.12210999999999927
                },
                {
                    "name": "G4",
                    "midi": 67,
                    "time": 6.593940000000001,
                    "velocity": 0.2755905511811024,
                    "duration": 0.12211000000000016
                },
                {
                    "name": "A4",
                    "midi": 69,
                    "time": 6.716050000000001,
                    "velocity": 0.2125984251968504,
                    "duration": 0.12211000000000016
                },
                {
                    "name": "G4",
                    "midi": 67,
                    "time": 6.838160000000001,
                    "velocity": 0.3543307086614173,
                    "duration": 0.1831649999999998
                },
                {
                    "name": "C4",
                    "midi": 60,
                    "time": 6.960270000000001,
                    "velocity": 0.2755905511811024,
                    "duration": 0.12210999999999927
                },
                {
                    "name": "E4",
                    "midi": 64,
                    "time": 7.082380000000001,
                    "velocity": 0.2755905511811024,
                    "duration": 0.12211000000000016
                },
                {
                    "name": "G4",
                    "midi": 67,
                    "time": 7.204490000000001,
                    "velocity": 0.2125984251968504,
                    "duration": 0.12211000000000016
                },
                {
                    "name": "F4",
                    "midi": 65,
                    "time": 7.326600000000001,
                    "velocity": 0.36220472440944884,
                    "duration": 0.1831649999999998
                },
                {
                    "name": "C4",
                    "midi": 60,
                    "time": 7.448710000000001,
                    "velocity": 0.2755905511811024,
                    "duration": 0.12210999999999927
                },
                {
                    "name": "E4",
                    "midi": 64,
                    "time": 7.57082,
                    "velocity": 0.2755905511811024,
                    "duration": 0.12211000000000016
                },
                {
                    "name": "F4",
                    "midi": 65,
                    "time": 7.6929300000000005,
                    "velocity": 0.2125984251968504,
                    "duration": 0.12211000000000016
                },
                {
                    "name": "E4",
                    "midi": 64,
                    "time": 7.815040000000001,
                    "velocity": 0.3228346456692913,
                    "duration": 0.35615416666666544
                },
                {
                    "name": "B3",
                    "midi": 59,
                    "time": 7.937150000000001,
                    "velocity": 0.25196850393700787,
                    "duration": 0.12210999999999927
                },
                {
                    "name": "C4",
                    "midi": 60,
                    "time": 8.05926,
                    "velocity": 0.25196850393700787,
                    "duration": 0.12210999999999927
                },
                {
                    "name": "E4",
                    "midi": 64,
                    "time": 8.18137,
                    "velocity": 0.2125984251968504,
                    "duration": 0.12210999999999927
                },
                {
                    "name": "D4",
                    "midi": 62,
                    "time": 8.303479999999999,
                    "velocity": 0.2755905511811024,
                    "duration": 0.35615416666666455
                },
                {
                    "name": "A3",
                    "midi": 57,
                    "time": 8.425589999999998,
                    "velocity": 0.25196850393700787,
                    "duration": 0.12210999999999927
                },
                {
                    "name": "C4",
                    "midi": 60,
                    "time": 8.547699999999997,
                    "velocity": 0.25196850393700787,
                    "duration": 0.12210999999999927
                },
                {
                    "name": "D4",
                    "midi": 62,
                    "time": 8.669809999999996,
                    "velocity": 0.2125984251968504,
                    "duration": 0.12210999999999927
                },
                {
                    "name": "G4",
                    "midi": 67,
                    "time": 8.791919999999996,
                    "velocity": 0.3228346456692913,
                    "duration": 0.35615416666666455
                },
                {
                    "name": "B3",
                    "midi": 59,
                    "time": 8.914029999999995,
                    "velocity": 0.25196850393700787,
                    "duration": 0.12210999999999927
                },
                {
                    "name": "E4",
                    "midi": 64,
                    "time": 9.036139999999994,
                    "velocity": 0.25196850393700787,
                    "duration": 0.12210999999999927
                },
                {
                    "name": "G4",
                    "midi": 67,
                    "time": 9.158249999999994,
                    "velocity": 0.25984251968503935,
                    "duration": 0.12210999999999927
                },
                {
                    "name": "A4",
                    "midi": 69,
                    "time": 9.280359999999993,
                    "velocity": 0.3700787401574803,
                    "duration": 0.35615416666666455
                },
                {
                    "name": "C4",
                    "midi": 60,
                    "time": 9.402469999999992,
                    "velocity": 0.29133858267716534,
                    "duration": 0.12210999999999927
                },
                {
                    "name": "E4",
                    "midi": 64,
                    "time": 9.524579999999991,
                    "velocity": 0.25196850393700787,
                    "duration": 0.12210999999999927
                },
                {
                    "name": "A4",
                    "midi": 69,
                    "time": 9.64668999999999,
                    "velocity": 0.2125984251968504,
                    "duration": 0.12210999999999927
                },
                {
                    "name": "E4",
                    "midi": 64,
                    "time": 9.76879999999999,
                    "velocity": 0.31496062992125984,
                    "duration": 0.35615416666666455
                },
                {
                    "name": "A3",
                    "midi": 57,
                    "time": 9.89090999999999,
                    "velocity": 0.25196850393700787,
                    "duration": 0.12210999999999927
                },
                {
                    "name": "C4",
                    "midi": 60,
                    "time": 10.013019999999988,
                    "velocity": 0.25196850393700787,
                    "duration": 0.12210999999999927
                },
                {
                    "name": "E4",
                    "midi": 64,
                    "time": 10.135129999999988,
                    "velocity": 0.2125984251968504,
                    "duration": 0.12210999999999927
                },
                {
                    "name": "D4",
                    "midi": 62,
                    "time": 10.257239999999987,
                    "velocity": 0.30708661417322836,
                    "duration": 0.35615416666666455
                },
                {
                    "name": "A3",
                    "midi": 57,
                    "time": 10.379349999999986,
                    "velocity": 0.25196850393700787,
                    "duration": 0.12210999999999927
                },
                {
                    "name": "C4",
                    "midi": 60,
                    "time": 10.501459999999986,
                    "velocity": 0.25196850393700787,
                    "duration": 0.12210999999999927
                },
                {
                    "name": "D4",
                    "midi": 62,
                    "time": 10.623569999999985,
                    "velocity": 0.2125984251968504,
                    "duration": 0.12210999999999927
                },
                {
                    "name": "C4",
                    "midi": 60,
                    "time": 10.745679999999984,
                    "velocity": 0.2755905511811024,
                    "duration": 0.35615416666666455
                },
                {
                    "name": "G3",
                    "midi": 55,
                    "time": 10.867789999999983,
                    "velocity": 0.25196850393700787,
                    "duration": 0.12210999999999927
                },
                {
                    "name": "A3",
                    "midi": 57,
                    "time": 10.989899999999983,
                    "velocity": 0.25196850393700787,
                    "duration": 0.12210999999999927
                },
                {
                    "name": "C4",
                    "midi": 60,
                    "time": 11.112009999999982,
                    "velocity": 0.2125984251968504,
                    "duration": 0.12210999999999927
                },
                {
                    "name": "B3",
                    "midi": 59,
                    "time": 11.234119999999981,
                    "velocity": 0.2755905511811024,
                    "duration": 0.35615416666666455
                },
                {
                    "name": "F3",
                    "midi": 53,
                    "time": 11.35622999999998,
                    "velocity": 0.25196850393700787,
                    "duration": 0.12210999999999927
                },
                {
                    "name": "G3",
                    "midi": 55,
                    "time": 11.47833999999998,
                    "velocity": 0.25196850393700787,
                    "duration": 0.12210999999999927
                },
                {
                    "name": "B3",
                    "midi": 59,
                    "time": 11.600449999999979,
                    "velocity": 0.2125984251968504,
                    "duration": 0.12210999999999927
                },
                {
                    "name": "E3",
                    "midi": 52,
                    "time": 19.78181999999998,
                    "velocity": 0.2047244094488189,
                    "duration": 0.12210999999999927
                },
                {
                    "name": "G#3",
                    "midi": 56,
                    "time": 19.903929999999978,
                    "velocity": 0.2047244094488189,
                    "duration": 0.12210999999999927
                },
                {
                    "name": "G#3",
                    "midi": 56,
                    "time": 20.270259999999976,
                    "velocity": 0.2440944881889764,
                    "duration": 0.12210999999999927
                },
                {
                    "name": "B3",
                    "midi": 59,
                    "time": 20.392369999999975,
                    "velocity": 0.25196850393700787,
                    "duration": 0.12210999999999927
                },
                {
                    "name": "B3",
                    "midi": 59,
                    "time": 20.758699999999973,
                    "velocity": 0.33858267716535434,
                    "duration": 0.12210999999999927
                },
                {
                    "name": "E4",
                    "midi": 64,
                    "time": 20.880809999999972,
                    "velocity": 0.33858267716535434,
                    "duration": 0.12210999999999927
                },
                {
                    "name": "E4",
                    "midi": 64,
                    "time": 21.24713999999997,
                    "velocity": 0.3700787401574803,
                    "duration": 0.12210999999999927
                },
                {
                    "name": "G#4",
                    "midi": 68,
                    "time": 21.36924999999997,
                    "velocity": 0.3700787401574803,
                    "duration": 0.12210999999999927
                },
                {
                    "name": "A4",
                    "midi": 69,
                    "time": 23.567229999999967,
                    "velocity": 0.25196850393700787,
                    "duration": 0.12210999999999927
                },
                {
                    "name": "F4",
                    "midi": 65,
                    "time": 23.689339999999966,
                    "velocity": 0.25196850393700787,
                    "duration": 0.12210999999999927
                },
                {
                    "name": "D4",
                    "midi": 62,
                    "time": 23.811449999999965,
                    "velocity": 0.2125984251968504,
                    "duration": 0.12210999999999927
                },
                {
                    "name": "F4",
                    "midi": 65,
                    "time": 24.055669999999964,
                    "velocity": 0.25196850393700787,
                    "duration": 0.12210999999999927
                },
                {
                    "name": "D4",
                    "midi": 62,
                    "time": 24.177779999999963,
                    "velocity": 0.25196850393700787,
                    "duration": 0.12210999999999927
                },
                {
                    "name": "B3",
                    "midi": 59,
                    "time": 24.299889999999962,
                    "velocity": 0.2125984251968504,
                    "duration": 0.12210999999999927
                },
                {
                    "name": "A4",
                    "midi": 69,
                    "time": 24.54410999999996,
                    "velocity": 0.25196850393700787,
                    "duration": 0.12210999999999927
                },
                {
                    "name": "F4",
                    "midi": 65,
                    "time": 24.66621999999996,
                    "velocity": 0.25196850393700787,
                    "duration": 0.12210999999999927
                },
                {
                    "name": "D4",
                    "midi": 62,
                    "time": 24.78832999999996,
                    "velocity": 0.2125984251968504,
                    "duration": 0.12210999999999927
                },
                {
                    "name": "F4",
                    "midi": 65,
                    "time": 25.032549999999958,
                    "velocity": 0.2677165354330709,
                    "duration": 0.12210999999999927
                },
                {
                    "name": "D4",
                    "midi": 62,
                    "time": 25.154659999999957,
                    "velocity": 0.2992125984251969,
                    "duration": 0.12210999999999927
                },
                {
                    "name": "B3",
                    "midi": 59,
                    "time": 25.276769999999956,
                    "velocity": 0.2992125984251969,
                    "duration": 0.12210999999999927
                },
                {
                    "name": "C5",
                    "midi": 72,
                    "time": 25.520989999999955,
                    "velocity": 0.3464566929133858,
                    "duration": 0.12210999999999927
                },
                {
                    "name": "A4",
                    "midi": 69,
                    "time": 25.643099999999954,
                    "velocity": 0.2755905511811024,
                    "duration": 0.12210999999999927
                },
                {
                    "name": "F4",
                    "midi": 65,
                    "time": 25.765209999999954,
                    "velocity": 0.23622047244094488,
                    "duration": 0.12210999999999927
                },
                {
                    "name": "A4",
                    "midi": 69,
                    "time": 26.009429999999952,
                    "velocity": 0.2992125984251969,
                    "duration": 0.12210999999999927
                },
                {
                    "name": "F4",
                    "midi": 65,
                    "time": 26.13153999999995,
                    "velocity": 0.25196850393700787,
                    "duration": 0.12210999999999927
                },
                {
                    "name": "D4",
                    "midi": 62,
                    "time": 26.25364999999995,
                    "velocity": 0.2125984251968504,
                    "duration": 0.12210999999999927
                },
                {
                    "name": "F4",
                    "midi": 65,
                    "time": 26.49786999999995,
                    "velocity": 0.2440944881889764,
                    "duration": 0.12210999999999927
                },
                {
                    "name": "D4",
                    "midi": 62,
                    "time": 26.61997999999995,
                    "velocity": 0.25196850393700787,
                    "duration": 0.12210999999999927
                },
                {
                    "name": "B3",
                    "midi": 59,
                    "time": 26.742089999999948,
                    "velocity": 0.2125984251968504,
                    "duration": 0.12210999999999927
                },
                {
                    "name": "D4",
                    "midi": 62,
                    "time": 26.986309999999946,
                    "velocity": 0.23622047244094488,
                    "duration": 0.12210999999999927
                },
                {
                    "name": "B3",
                    "midi": 59,
                    "time": 27.108419999999946,
                    "velocity": 0.25196850393700787,
                    "duration": 0.12210999999999927
                },
                {
                    "name": "G3",
                    "midi": 55,
                    "time": 27.230529999999945,
                    "velocity": 0.1968503937007874,
                    "duration": 0.12210999999999927
                },
                {
                    "name": "A4",
                    "midi": 69,
                    "time": 27.474749999999943,
                    "velocity": 0.25196850393700787,
                    "duration": 0.12210999999999927
                },
                {
                    "name": "F4",
                    "midi": 65,
                    "time": 27.596859999999943,
                    "velocity": 0.25196850393700787,
                    "duration": 0.12210999999999927
                },
                {
                    "name": "D4",
                    "midi": 62,
                    "time": 27.718969999999942,
                    "velocity": 0.2125984251968504,
                    "duration": 0.12210999999999927
                },
                {
                    "name": "F4",
                    "midi": 65,
                    "time": 27.96318999999994,
                    "velocity": 0.25196850393700787,
                    "duration": 0.12210999999999927
                },
                {
                    "name": "D4",
                    "midi": 62,
                    "time": 28.08529999999994,
                    "velocity": 0.25196850393700787,
                    "duration": 0.12210999999999927
                },
                {
                    "name": "B3",
                    "midi": 59,
                    "time": 28.20740999999994,
                    "velocity": 0.2125984251968504,
                    "duration": 0.12210999999999927
                },
                {
                    "name": "A4",
                    "midi": 69,
                    "time": 28.451629999999938,
                    "velocity": 0.25196850393700787,
                    "duration": 0.12210999999999927
                },
                {
                    "name": "F4",
                    "midi": 65,
                    "time": 28.573739999999937,
                    "velocity": 0.25196850393700787,
                    "duration": 0.12210999999999927
                },
                {
                    "name": "D4",
                    "midi": 62,
                    "time": 28.695849999999936,
                    "velocity": 0.2125984251968504,
                    "duration": 0.12210999999999927
                },
                {
                    "name": "F4",
                    "midi": 65,
                    "time": 28.940069999999935,
                    "velocity": 0.25984251968503935,
                    "duration": 0.12210999999999927
                },
                {
                    "name": "D4",
                    "midi": 62,
                    "time": 29.062179999999934,
                    "velocity": 0.29133858267716534,
                    "duration": 0.12210999999999927
                },
                {
                    "name": "B3",
                    "midi": 59,
                    "time": 29.184289999999933,
                    "velocity": 0.2992125984251969,
                    "duration": 0.12210999999999927
                },
                {
                    "name": "C5",
                    "midi": 72,
                    "time": 29.428509999999932,
                    "velocity": 0.33858267716535434,
                    "duration": 0.12210999999999927
                },
                {
                    "name": "A4",
                    "midi": 69,
                    "time": 29.55061999999993,
                    "velocity": 0.31496062992125984,
                    "duration": 0.12210999999999927
                },
                {
                    "name": "F4",
                    "midi": 65,
                    "time": 29.67272999999993,
                    "velocity": 0.23622047244094488,
                    "duration": 0.12210999999999927
                },
                {
                    "name": "A4",
                    "midi": 69,
                    "time": 29.91694999999993,
                    "velocity": 0.31496062992125984,
                    "duration": 0.12210999999999927
                },
                {
                    "name": "F4",
                    "midi": 65,
                    "time": 30.039059999999928,
                    "velocity": 0.25196850393700787,
                    "duration": 0.12210999999999927
                },
                {
                    "name": "D4",
                    "midi": 62,
                    "time": 30.161169999999927,
                    "velocity": 0.2125984251968504,
                    "duration": 0.12210999999999927
                },
                {
                    "name": "F4",
                    "midi": 65,
                    "time": 30.405389999999926,
                    "velocity": 0.2440944881889764,
                    "duration": 0.12210999999999927
                },
                {
                    "name": "D4",
                    "midi": 62,
                    "time": 30.527499999999925,
                    "velocity": 0.25196850393700787,
                    "duration": 0.12210999999999927
                },
                {
                    "name": "B3",
                    "midi": 59,
                    "time": 30.649609999999925,
                    "velocity": 0.2125984251968504,
                    "duration": 0.12210999999999927
                },
                {
                    "name": "D4",
                    "midi": 62,
                    "time": 30.893829999999923,
                    "velocity": 0.23622047244094488,
                    "duration": 0.12210999999999927
                },
                {
                    "name": "B3",
                    "midi": 59,
                    "time": 31.015939999999922,
                    "velocity": 0.25196850393700787,
                    "duration": 0.12210999999999927
                },
                {
                    "name": "G3",
                    "midi": 55,
                    "time": 31.13804999999992,
                    "velocity": 0.1968503937007874,
                    "duration": 0.12210999999999927
                },
                {
                    "name": "B3",
                    "midi": 59,
                    "time": 31.38226999999992,
                    "velocity": 0.25196850393700787,
                    "duration": 0.12210999999999927
                },
                {
                    "name": "G#3",
                    "midi": 56,
                    "time": 31.50437999999992,
                    "velocity": 0.25196850393700787,
                    "duration": 0.12210999999999927
                },
                {
                    "name": "E3",
                    "midi": 52,
                    "time": 31.62648999999992,
                    "velocity": 0.2125984251968504,
                    "duration": 0.12210999999999927
                },
                {
                    "name": "C#4",
                    "midi": 61,
                    "time": 31.870709999999917,
                    "velocity": 0.2992125984251969,
                    "duration": 0.12210999999999927
                },
                {
                    "name": "A#3",
                    "midi": 58,
                    "time": 31.992819999999917,
                    "velocity": 0.25196850393700787,
                    "duration": 0.12210999999999927
                },
                {
                    "name": "F#3",
                    "midi": 54,
                    "time": 32.114929999999916,
                    "velocity": 0.2125984251968504,
                    "duration": 0.12210999999999927
                },
                {
                    "name": "B3",
                    "midi": 59,
                    "time": 32.359149999999914,
                    "velocity": 0.25196850393700787,
                    "duration": 0.12210999999999927
                },
                {
                    "name": "G#3",
                    "midi": 56,
                    "time": 32.481259999999914,
                    "velocity": 0.25196850393700787,
                    "duration": 0.12210999999999927
                },
                {
                    "name": "E3",
                    "midi": 52,
                    "time": 32.60336999999991,
                    "velocity": 0.2125984251968504,
                    "duration": 0.12210999999999927
                },
                {
                    "name": "C#4",
                    "midi": 61,
                    "time": 32.84758999999991,
                    "velocity": 0.30708661417322836,
                    "duration": 0.12210999999999927
                },
                {
                    "name": "A#3",
                    "midi": 58,
                    "time": 32.96969999999991,
                    "velocity": 0.25196850393700787,
                    "duration": 0.12210999999999927
                },
                {
                    "name": "F#3",
                    "midi": 54,
                    "time": 33.09180999999991,
                    "velocity": 0.2125984251968504,
                    "duration": 0.12210999999999927
                },
                {
                    "name": "B3",
                    "midi": 59,
                    "time": 33.33602999999991,
                    "velocity": 0.25196850393700787,
                    "duration": 0.12210999999999927
                },
                {
                    "name": "G#3",
                    "midi": 56,
                    "time": 33.45813999999991,
                    "velocity": 0.25196850393700787,
                    "duration": 0.12210999999999927
                },
                {
                    "name": "E3",
                    "midi": 52,
                    "time": 33.58024999999991,
                    "velocity": 0.2125984251968504,
                    "duration": 0.12210999999999927
                },
                {
                    "name": "B3",
                    "midi": 59,
                    "time": 33.824469999999906,
                    "velocity": 0.25196850393700787,
                    "duration": 0.12210999999999927
                },
                {
                    "name": "G#3",
                    "midi": 56,
                    "time": 33.946579999999905,
                    "velocity": 0.25196850393700787,
                    "duration": 0.12210999999999927
                },
                {
                    "name": "E3",
                    "midi": 52,
                    "time": 34.068689999999904,
                    "velocity": 0.2125984251968504,
                    "duration": 0.12210999999999927
                },
                {
                    "name": "B3",
                    "midi": 59,
                    "time": 34.3129099999999,
                    "velocity": 0.25196850393700787,
                    "duration": 0.12210999999999927
                },
                {
                    "name": "G#3",
                    "midi": 56,
                    "time": 34.4350199999999,
                    "velocity": 0.25196850393700787,
                    "duration": 0.12210999999999927
                },
                {
                    "name": "E3",
                    "midi": 52,
                    "time": 34.5571299999999,
                    "velocity": 0.2125984251968504,
                    "duration": 0.12210999999999927
                },
                {
                    "name": "B3",
                    "midi": 59,
                    "time": 34.8013499999999,
                    "velocity": 0.23622047244094488,
                    "duration": 0.12210999999999927
                },
                {
                    "name": "G#3",
                    "midi": 56,
                    "time": 34.9234599999999,
                    "velocity": 0.25196850393700787,
                    "duration": 0.12210999999999927
                },
                {
                    "name": "E3",
                    "midi": 52,
                    "time": 35.0455699999999,
                    "velocity": 0.2125984251968504,
                    "duration": 0.12210999999999927
                },
                {
                    "name": "A3",
                    "midi": 57,
                    "time": 35.2897899999999,
                    "velocity": 0.25196850393700787,
                    "duration": 0.12210999999999927
                },
                {
                    "name": "F3",
                    "midi": 53,
                    "time": 35.411899999999896,
                    "velocity": 0.25196850393700787,
                    "duration": 0.12210999999999927
                },
                {
                    "name": "D3",
                    "midi": 50,
                    "time": 35.534009999999896,
                    "velocity": 0.2125984251968504,
                    "duration": 0.12210999999999927
                },
                {
                    "name": "C4",
                    "midi": 60,
                    "time": 35.778229999999894,
                    "velocity": 0.30708661417322836,
                    "duration": 0.12210999999999927
                },
                {
                    "name": "G#3",
                    "midi": 56,
                    "time": 35.90033999999989,
                    "velocity": 0.25196850393700787,
                    "duration": 0.12210999999999927
                },
                {
                    "name": "F3",
                    "midi": 53,
                    "time": 36.02244999999989,
                    "velocity": 0.2125984251968504,
                    "duration": 0.12210999999999927
                },
                {
                    "name": "A3",
                    "midi": 57,
                    "time": 36.26666999999989,
                    "velocity": 0.25196850393700787,
                    "duration": 0.12210999999999927
                },
                {
                    "name": "F3",
                    "midi": 53,
                    "time": 36.38877999999989,
                    "velocity": 0.25196850393700787,
                    "duration": 0.12210999999999927
                },
                {
                    "name": "D3",
                    "midi": 50,
                    "time": 36.51088999999989,
                    "velocity": 0.2125984251968504,
                    "duration": 0.12210999999999927
                },
                {
                    "name": "C4",
                    "midi": 60,
                    "time": 36.75510999999989,
                    "velocity": 0.2992125984251969,
                    "duration": 0.12210999999999927
                },
                {
                    "name": "G#3",
                    "midi": 56,
                    "time": 36.87721999999989,
                    "velocity": 0.25196850393700787,
                    "duration": 0.12210999999999927
                },
                {
                    "name": "F3",
                    "midi": 53,
                    "time": 36.99932999999989,
                    "velocity": 0.2125984251968504,
                    "duration": 0.12210999999999927
                },
                {
                    "name": "A3",
                    "midi": 57,
                    "time": 37.243549999999885,
                    "velocity": 0.25196850393700787,
                    "duration": 0.12210999999999927
                },
                {
                    "name": "F3",
                    "midi": 53,
                    "time": 37.365659999999885,
                    "velocity": 0.25196850393700787,
                    "duration": 0.12210999999999927
                },
                {
                    "name": "D3",
                    "midi": 50,
                    "time": 37.487769999999884,
                    "velocity": 0.2125984251968504,
                    "duration": 0.12210999999999927
                },
                {
                    "name": "A3",
                    "midi": 57,
                    "time": 37.73198999999988,
                    "velocity": 0.25196850393700787,
                    "duration": 0.12210999999999927
                },
                {
                    "name": "F3",
                    "midi": 53,
                    "time": 37.85409999999988,
                    "velocity": 0.25196850393700787,
                    "duration": 0.12210999999999927
                },
                {
                    "name": "D3",
                    "midi": 50,
                    "time": 37.97620999999988,
                    "velocity": 0.2125984251968504,
                    "duration": 0.12210999999999927
                },
                {
                    "name": "A3",
                    "midi": 57,
                    "time": 38.22042999999988,
                    "velocity": 0.25196850393700787,
                    "duration": 0.12210999999999927
                },
                {
                    "name": "F3",
                    "midi": 53,
                    "time": 38.34253999999988,
                    "velocity": 0.25196850393700787,
                    "duration": 0.12210999999999927
                },
                {
                    "name": "D3",
                    "midi": 50,
                    "time": 38.46464999999988,
                    "velocity": 0.2125984251968504,
                    "duration": 0.12210999999999927
                },
                {
                    "name": "A3",
                    "midi": 57,
                    "time": 38.70886999999988,
                    "velocity": 0.23622047244094488,
                    "duration": 0.12210999999999927
                },
                {
                    "name": "F3",
                    "midi": 53,
                    "time": 38.830979999999876,
                    "velocity": 0.25196850393700787,
                    "duration": 0.12210999999999927
                },
                {
                    "name": "D3",
                    "midi": 50,
                    "time": 38.953089999999875,
                    "velocity": 0.2125984251968504,
                    "duration": 0.12210999999999927
                },
                {
                    "name": "B3",
                    "midi": 59,
                    "time": 39.197309999999874,
                    "velocity": 0.2204724409448819,
                    "duration": 0.12210999999999927
                },
                {
                    "name": "G#3",
                    "midi": 56,
                    "time": 39.31941999999987,
                    "velocity": 0.2204724409448819,
                    "duration": 0.12210999999999927
                },
                {
                    "name": "D3",
                    "midi": 50,
                    "time": 39.44152999999987,
                    "velocity": 0.18110236220472442,
                    "duration": 0.12210999999999927
                },
                {
                    "name": "B3",
                    "midi": 59,
                    "time": 39.68574999999987,
                    "velocity": 0.2047244094488189,
                    "duration": 0.12210999999999927
                },
                {
                    "name": "G#3",
                    "midi": 56,
                    "time": 39.80785999999987,
                    "velocity": 0.2047244094488189,
                    "duration": 0.12210999999999927
                },
                {
                    "name": "D3",
                    "midi": 50,
                    "time": 39.92996999999987,
                    "velocity": 0.1732283464566929,
                    "duration": 0.12210999999999927
                },
                {
                    "name": "B3",
                    "midi": 59,
                    "time": 40.17418999999987,
                    "velocity": 0.1968503937007874,
                    "duration": 0.12210999999999927
                },
                {
                    "name": "G#3",
                    "midi": 56,
                    "time": 40.29629999999987,
                    "velocity": 0.1889763779527559,
                    "duration": 0.12210999999999927
                },
                {
                    "name": "D3",
                    "midi": 50,
                    "time": 40.41840999999987,
                    "velocity": 0.15748031496062992,
                    "duration": 0.12210999999999927
                },
                {
                    "name": "B3",
                    "midi": 59,
                    "time": 40.662629999999865,
                    "velocity": 0.1732283464566929,
                    "duration": 0.12210999999999927
                },
                {
                    "name": "G#3",
                    "midi": 56,
                    "time": 40.784739999999864,
                    "velocity": 0.18110236220472442,
                    "duration": 0.12210999999999927
                },
                {
                    "name": "D3",
                    "midi": 50,
                    "time": 40.906849999999864,
                    "velocity": 0.14960629921259844,
                    "duration": 0.12210999999999927
                },
                {
                    "name": "G3",
                    "midi": 55,
                    "time": 41.15106999999986,
                    "velocity": 0.1889763779527559,
                    "duration": 0.12210999999999927
                },
                {
                    "name": "C4",
                    "midi": 60,
                    "time": 41.27317999999986,
                    "velocity": 0.1889763779527559,
                    "duration": 0.12210999999999927
                },
                {
                    "name": "D4",
                    "midi": 62,
                    "time": 41.39528999999986,
                    "velocity": 0.16535433070866143,
                    "duration": 0.12210999999999927
                },
                {
                    "name": "E4",
                    "midi": 64,
                    "time": 41.51739999999986,
                    "velocity": 0.2204724409448819,
                    "duration": 0.12210999999999927
                },
                {
                    "name": "G3",
                    "midi": 55,
                    "time": 41.63950999999986,
                    "velocity": 0.1889763779527559,
                    "duration": 0.12210999999999927
                },
                {
                    "name": "C4",
                    "midi": 60,
                    "time": 41.76161999999986,
                    "velocity": 0.1889763779527559,
                    "duration": 0.12210999999999927
                },
                {
                    "name": "E4",
                    "midi": 64,
                    "time": 41.88372999999986,
                    "velocity": 0.1889763779527559,
                    "duration": 0.12210999999999927
                },
                {
                    "name": "D4",
                    "midi": 62,
                    "time": 42.00583999999986,
                    "velocity": 0.2440944881889764,
                    "duration": 0.12210999999999927
                },
                {
                    "name": "F3",
                    "midi": 53,
                    "time": 42.127949999999856,
                    "velocity": 0.2283464566929134,
                    "duration": 0.12210999999999927
                },
                {
                    "name": "C4",
                    "midi": 60,
                    "time": 42.250059999999856,
                    "velocity": 0.23622047244094488,
                    "duration": 0.12210999999999927
                },
                {
                    "name": "D4",
                    "midi": 62,
                    "time": 42.372169999999855,
                    "velocity": 0.2125984251968504,
                    "duration": 0.12210999999999927
                },
                {
                    "name": "F4",
                    "midi": 65,
                    "time": 42.494279999999854,
                    "velocity": 0.2677165354330709,
                    "duration": 0.12210999999999927
                },
                {
                    "name": "A3",
                    "midi": 57,
                    "time": 42.61638999999985,
                    "velocity": 0.2440944881889764,
                    "duration": 0.12210999999999927
                },
                {
                    "name": "B3",
                    "midi": 59,
                    "time": 42.73849999999985,
                    "velocity": 0.25196850393700787,
                    "duration": 0.12210999999999927
                },
                {
                    "name": "F4",
                    "midi": 65,
                    "time": 42.86060999999985,
                    "velocity": 0.23622047244094488,
                    "duration": 0.12210999999999927
                },
                {
                    "name": "E4",
                    "midi": 64,
                    "time": 42.98271999999985,
                    "velocity": 0.29133858267716534,
                    "duration": 0.12210999999999927
                },
                {
                    "name": "G3",
                    "midi": 55,
                    "time": 43.10482999999985,
                    "velocity": 0.2677165354330709,
                    "duration": 0.12210999999999927
                },
                {
                    "name": "C4",
                    "midi": 60,
                    "time": 43.22693999999985,
                    "velocity": 0.2677165354330709,
                    "duration": 0.12210999999999927
                },
                {
                    "name": "E4",
                    "midi": 64,
                    "time": 43.34904999999985,
                    "velocity": 0.25196850393700787,
                    "duration": 0.12210999999999927
                },
                {
                    "name": "G4",
                    "midi": 67,
                    "time": 43.47115999999985,
                    "velocity": 0.29133858267716534,
                    "duration": 0.12210999999999927
                },
                {
                    "name": "B3",
                    "midi": 59,
                    "time": 43.59326999999985,
                    "velocity": 0.2677165354330709,
                    "duration": 0.12210999999999927
                },
                {
                    "name": "C4",
                    "midi": 60,
                    "time": 43.71537999999985,
                    "velocity": 0.2677165354330709,
                    "duration": 0.12210999999999927
                },
                {
                    "name": "G4",
                    "midi": 67,
                    "time": 43.837489999999846,
                    "velocity": 0.25196850393700787,
                    "duration": 0.12210999999999927
                },
                {
                    "name": "F#4",
                    "midi": 66,
                    "time": 43.959599999999845,
                    "velocity": 0.2992125984251969,
                    "duration": 0.12210999999999927
                },
                {
                    "name": "A3",
                    "midi": 57,
                    "time": 44.081709999999845,
                    "velocity": 0.2755905511811024,
                    "duration": 0.12210999999999927
                },
                {
                    "name": "D4",
                    "midi": 62,
                    "time": 44.203819999999844,
                    "velocity": 0.2755905511811024,
                    "duration": 0.12210999999999927
                },
                {
                    "name": "F#4",
                    "midi": 66,
                    "time": 44.32592999999984,
                    "velocity": 0.25196850393700787,
                    "duration": 0.12210999999999927
                },
                {
                    "name": "A4",
                    "midi": 69,
                    "time": 44.44803999999984,
                    "velocity": 0.2992125984251969,
                    "duration": 0.12210999999999927
                },
                {
                    "name": "C4",
                    "midi": 60,
                    "time": 44.57014999999984,
                    "velocity": 0.2755905511811024,
                    "duration": 0.12210999999999927
                },
                {
                    "name": "F#4",
                    "midi": 66,
                    "time": 44.69225999999984,
                    "velocity": 0.2755905511811024,
                    "duration": 0.12210999999999927
                },
                {
                    "name": "A4",
                    "midi": 69,
                    "time": 44.81436999999984,
                    "velocity": 0.25196850393700787,
                    "duration": 0.12210999999999927
                },
                {
                    "name": "G4",
                    "midi": 67,
                    "time": 44.93647999999984,
                    "velocity": 0.30708661417322836,
                    "duration": 0.12210999999999927
                },
                {
                    "name": "D4",
                    "midi": 62,
                    "time": 45.05858999999984,
                    "velocity": 0.29133858267716534,
                    "duration": 0.12210999999999927
                },
                {
                    "name": "G4",
                    "midi": 67,
                    "time": 45.18069999999984,
                    "velocity": 0.31496062992125984,
                    "duration": 0.12210999999999927
                },
                {
                    "name": "B4",
                    "midi": 71,
                    "time": 45.30280999999984,
                    "velocity": 0.33070866141732286,
                    "duration": 0.12210999999999927
                },
                {
                    "name": "E5",
                    "midi": 76,
                    "time": 45.42491999999984,
                    "velocity": 0.4881889763779528,
                    "duration": 0.24421999999999855
                },
                {
                    "name": "B4",
                    "midi": 71,
                    "time": 45.547029999999836,
                    "velocity": 0.2992125984251969,
                    "duration": 0.12210999999999927
                },
                {
                    "name": "G4",
                    "midi": 67,
                    "time": 45.669139999999835,
                    "velocity": 0.2992125984251969,
                    "duration": 0.12210999999999927
                },
                {
                    "name": "D4",
                    "midi": 62,
                    "time": 45.791249999999835,
                    "velocity": 0.25196850393700787,
                    "duration": 0.12210999999999927
                },
                {
                    "name": "E4",
                    "midi": 64,
                    "time": 46.03546999999983,
                    "velocity": 0.28346456692913385,
                    "duration": 0.12210999999999927
                },
                {
                    "name": "G4",
                    "midi": 67,
                    "time": 46.15757999999983,
                    "velocity": 0.30708661417322836,
                    "duration": 0.12210999999999927
                },
                {
                    "name": "A4",
                    "midi": 69,
                    "time": 46.27968999999983,
                    "velocity": 0.28346456692913385,
                    "duration": 0.12210999999999927
                },
                {
                    "name": "F#5",
                    "midi": 78,
                    "time": 46.40179999999983,
                    "velocity": 0.4881889763779528,
                    "duration": 0.24421999999999855
                },
                {
                    "name": "A4",
                    "midi": 69,
                    "time": 46.52390999999983,
                    "velocity": 0.31496062992125984,
                    "duration": 0.12210999999999927
                },
                {
                    "name": "G4",
                    "midi": 67,
                    "time": 46.64601999999983,
                    "velocity": 0.29133858267716534,
                    "duration": 0.12210999999999927
                },
                {
                    "name": "E4",
                    "midi": 64,
                    "time": 46.76812999999983,
                    "velocity": 0.2755905511811024,
                    "duration": 0.12210999999999927
                },
                {
                    "name": "D4",
                    "midi": 62,
                    "time": 47.01234999999983,
                    "velocity": 0.29133858267716534,
                    "duration": 0.12210999999999927
                },
                {
                    "name": "G4",
                    "midi": 67,
                    "time": 47.13445999999983,
                    "velocity": 0.31496062992125984,
                    "duration": 0.12210999999999927
                },
                {
                    "name": "B4",
                    "midi": 71,
                    "time": 47.256569999999826,
                    "velocity": 0.33070866141732286,
                    "duration": 0.12210999999999927
                },
                {
                    "name": "E5",
                    "midi": 76,
                    "time": 47.378679999999825,
                    "velocity": 0.49606299212598426,
                    "duration": 0.24421999999999855
                },
                {
                    "name": "B4",
                    "midi": 71,
                    "time": 47.500789999999824,
                    "velocity": 0.2992125984251969,
                    "duration": 0.12210999999999927
                },
                {
                    "name": "G4",
                    "midi": 67,
                    "time": 47.622899999999824,
                    "velocity": 0.2992125984251969,
                    "duration": 0.12210999999999927
                },
                {
                    "name": "D4",
                    "midi": 62,
                    "time": 47.74500999999982,
                    "velocity": 0.25196850393700787,
                    "duration": 0.12210999999999927
                },
                {
                    "name": "E4",
                    "midi": 64,
                    "time": 47.98922999999982,
                    "velocity": 0.28346456692913385,
                    "duration": 0.12210999999999927
                },
                {
                    "name": "G4",
                    "midi": 67,
                    "time": 48.11133999999982,
                    "velocity": 0.30708661417322836,
                    "duration": 0.12210999999999927
                },
                {
                    "name": "A#4",
                    "midi": 70,
                    "time": 48.23344999999982,
                    "velocity": 0.28346456692913385,
                    "duration": 0.12210999999999927
                },
                {
                    "name": "F#5",
                    "midi": 78,
                    "time": 48.35555999999982,
                    "velocity": 0.48031496062992124,
                    "duration": 0.24421999999999855
                },
                {
                    "name": "A#4",
                    "midi": 70,
                    "time": 48.47766999999982,
                    "velocity": 0.31496062992125984,
                    "duration": 0.12210999999999927
                },
                {
                    "name": "G4",
                    "midi": 67,
                    "time": 48.59977999999982,
                    "velocity": 0.29133858267716534,
                    "duration": 0.12210999999999927
                },
                {
                    "name": "E4",
                    "midi": 64,
                    "time": 48.72188999999982,
                    "velocity": 0.2755905511811024,
                    "duration": 0.12210999999999927
                },
                {
                    "name": "E4",
                    "midi": 64,
                    "time": 48.966109999999816,
                    "velocity": 0.29133858267716534,
                    "duration": 0.12210999999999927
                },
                {
                    "name": "G4",
                    "midi": 67,
                    "time": 49.088219999999815,
                    "velocity": 0.31496062992125984,
                    "duration": 0.12210999999999927
                },
                {
                    "name": "D5",
                    "midi": 74,
                    "time": 49.210329999999814,
                    "velocity": 0.33070866141732286,
                    "duration": 0.12210999999999927
                },
                {
                    "name": "F#5",
                    "midi": 78,
                    "time": 49.33243999999981,
                    "velocity": 0.49606299212598426,
                    "duration": 0.4884399999999971
                },
                {
                    "name": "D5",
                    "midi": 74,
                    "time": 49.45454999999981,
                    "velocity": 0.2992125984251969,
                    "duration": 0.12210999999999927
                },
                {
                    "name": "G4",
                    "midi": 67,
                    "time": 49.57665999999981,
                    "velocity": 0.2992125984251969,
                    "duration": 0.12210999999999927
                },
                {
                    "name": "E4",
                    "midi": 64,
                    "time": 49.69876999999981,
                    "velocity": 0.25196850393700787,
                    "duration": 0.12210999999999927
                },
                {
                    "name": "E4",
                    "midi": 64,
                    "time": 49.94298999999981,
                    "velocity": 0.28346456692913385,
                    "duration": 0.12210999999999927
                },
                {
                    "name": "G4",
                    "midi": 67,
                    "time": 50.06509999999981,
                    "velocity": 0.30708661417322836,
                    "duration": 0.12210999999999927
                },
                {
                    "name": "C#5",
                    "midi": 73,
                    "time": 50.18720999999981,
                    "velocity": 0.28346456692913385,
                    "duration": 0.12210999999999927
                },
                {
                    "name": "F#5",
                    "midi": 78,
                    "time": 50.30931999999981,
                    "velocity": 0.49606299212598426,
                    "duration": 0.4884399999999971
                },
                {
                    "name": "C#5",
                    "midi": 73,
                    "time": 50.43142999999981,
                    "velocity": 0.31496062992125984,
                    "duration": 0.12210999999999927
                },
                {
                    "name": "G4",
                    "midi": 67,
                    "time": 50.553539999999806,
                    "velocity": 0.29133858267716534,
                    "duration": 0.12210999999999927
                },
                {
                    "name": "E4",
                    "midi": 64,
                    "time": 50.675649999999806,
                    "velocity": 0.2755905511811024,
                    "duration": 0.12210999999999927
                },
                {
                    "name": "E4",
                    "midi": 64,
                    "time": 50.919869999999804,
                    "velocity": 0.29133858267716534,
                    "duration": 0.12210999999999927
                },
                {
                    "name": "G4",
                    "midi": 67,
                    "time": 51.0419799999998,
                    "velocity": 0.31496062992125984,
                    "duration": 0.12210999999999927
                },
                {
                    "name": "C5",
                    "midi": 72,
                    "time": 51.1640899999998,
                    "velocity": 0.33070866141732286,
                    "duration": 0.12210999999999927
                },
                {
                    "name": "G5",
                    "midi": 79,
                    "time": 51.2861999999998,
                    "velocity": 0.49606299212598426,
                    "duration": 0.3663299999999978
                },
                {
                    "name": "C5",
                    "midi": 72,
                    "time": 51.4083099999998,
                    "velocity": 0.2992125984251969,
                    "duration": 0.12210999999999927
                },
                {
                    "name": "G4",
                    "midi": 67,
                    "time": 51.5304199999998,
                    "velocity": 0.2992125984251969,
                    "duration": 0.12210999999999927
                },
                {
                    "name": "E4",
                    "midi": 64,
                    "time": 51.6525299999998,
                    "velocity": 0.25196850393700787,
                    "duration": 0.12210999999999927
                },
                {
                    "name": "F#5",
                    "midi": 78,
                    "time": 51.7746399999998,
                    "velocity": 0.49606299212598426,
                    "duration": 0.3663299999999978
                },
                {
                    "name": "C5",
                    "midi": 72,
                    "time": 51.8967499999998,
                    "velocity": 0.2992125984251969,
                    "duration": 0.12210999999999927
                },
                {
                    "name": "G4",
                    "midi": 67,
                    "time": 52.0188599999998,
                    "velocity": 0.2992125984251969,
                    "duration": 0.12210999999999927
                },
                {
                    "name": "E4",
                    "midi": 64,
                    "time": 52.1409699999998,
                    "velocity": 0.25196850393700787,
                    "duration": 0.12210999999999927
                },
                {
                    "name": "E5",
                    "midi": 76,
                    "time": 52.263079999999796,
                    "velocity": 0.49606299212598426,
                    "duration": 0.3663299999999978
                },
                {
                    "name": "C5",
                    "midi": 72,
                    "time": 52.385189999999795,
                    "velocity": 0.2992125984251969,
                    "duration": 0.12210999999999927
                },
                {
                    "name": "G4",
                    "midi": 67,
                    "time": 52.507299999999795,
                    "velocity": 0.2992125984251969,
                    "duration": 0.12210999999999927
                },
                {
                    "name": "E4",
                    "midi": 64,
                    "time": 52.629409999999794,
                    "velocity": 0.25196850393700787,
                    "duration": 0.12210999999999927
                },
                {
                    "name": "E4",
                    "midi": 64,
                    "time": 52.87362999999979,
                    "velocity": 0.3228346456692913,
                    "duration": 0.12210999999999927
                },
                {
                    "name": "G4",
                    "midi": 67,
                    "time": 52.99573999999979,
                    "velocity": 0.3228346456692913,
                    "duration": 0.12210999999999927
                },
                {
                    "name": "C5",
                    "midi": 72,
                    "time": 53.11784999999979,
                    "velocity": 0.3543307086614173,
                    "duration": 0.12210999999999927
                },
                {
                    "name": "D5",
                    "midi": 74,
                    "time": 53.23995999999979,
                    "velocity": 0.4566929133858268,
                    "duration": 0.24421999999999855
                },
                {
                    "name": "C5",
                    "midi": 72,
                    "time": 53.36206999999979,
                    "velocity": 0.36220472440944884,
                    "duration": 0.12210999999999927
                },
                {
                    "name": "G4",
                    "midi": 67,
                    "time": 53.48417999999979,
                    "velocity": 0.4251968503937008,
                    "duration": 0.12210999999999927
                },
                {
                    "name": "E5",
                    "midi": 76,
                    "time": 53.48417999999979,
                    "velocity": 0.4251968503937008,
                    "duration": 0.24421999999999855
                },
                {
                    "name": "E4",
                    "midi": 64,
                    "time": 53.60628999999979,
                    "velocity": 0.3700787401574803,
                    "duration": 0.12210999999999927
                },
                {
                    "name": "F#5",
                    "midi": 78,
                    "time": 53.72839999999979,
                    "velocity": 0.49606299212598426,
                    "duration": 0.9768799999999942
                },
                {
                    "name": "C5",
                    "midi": 72,
                    "time": 53.85050999999979,
                    "velocity": 0.4015748031496063,
                    "duration": 0.12210999999999927
                },
                {
                    "name": "G4",
                    "midi": 67,
                    "time": 53.972619999999786,
                    "velocity": 0.3228346456692913,
                    "duration": 0.12210999999999927
                },
                {
                    "name": "E4",
                    "midi": 64,
                    "time": 54.094729999999785,
                    "velocity": 0.25196850393700787,
                    "duration": 0.24421999999999855
                },
                {
                    "name": "C5",
                    "midi": 72,
                    "time": 54.338949999999784,
                    "velocity": 0.3228346456692913,
                    "duration": 0.12210999999999927
                },
                {
                    "name": "G4",
                    "midi": 67,
                    "time": 54.46105999999978,
                    "velocity": 0.3228346456692913,
                    "duration": 0.12210999999999927
                },
                {
                    "name": "E4",
                    "midi": 64,
                    "time": 54.58316999999978,
                    "velocity": 0.2677165354330709,
                    "duration": 0.12210999999999927
                },
                {
                    "name": "E4",
                    "midi": 64,
                    "time": 54.82738999999978,
                    "velocity": 0.3228346456692913,
                    "duration": 0.12210999999999927
                },
                {
                    "name": "G4",
                    "midi": 67,
                    "time": 54.94949999999978,
                    "velocity": 0.3228346456692913,
                    "duration": 0.12210999999999927
                },
                {
                    "name": "B4",
                    "midi": 71,
                    "time": 55.07160999999978,
                    "velocity": 0.3543307086614173,
                    "duration": 0.12210999999999927
                },
                {
                    "name": "D5",
                    "midi": 74,
                    "time": 55.19371999999978,
                    "velocity": 0.4566929133858268,
                    "duration": 0.24421999999999855
                },
                {
                    "name": "B4",
                    "midi": 71,
                    "time": 55.31582999999978,
                    "velocity": 0.36220472440944884,
                    "duration": 0.12210999999999927
                },
                {
                    "name": "G4",
                    "midi": 67,
                    "time": 55.43793999999978,
                    "velocity": 0.4330708661417323,
                    "duration": 0.12210999999999927
                },
                {
                    "name": "E5",
                    "midi": 76,
                    "time": 55.43793999999978,
                    "velocity": 0.4330708661417323,
                    "duration": 0.24421999999999855
                },
                {
                    "name": "E4",
                    "midi": 64,
                    "time": 55.56004999999978,
                    "velocity": 0.3700787401574803,
                    "duration": 0.12210999999999927
                },
                {
                    "name": "F#5",
                    "midi": 78,
                    "time": 55.682159999999776,
                    "velocity": 0.49606299212598426,
                    "duration": 0.9768799999999942
                },
                {
                    "name": "B4",
                    "midi": 71,
                    "time": 55.804269999999775,
                    "velocity": 0.4015748031496063,
                    "duration": 0.12210999999999927
                },
                {
                    "name": "G4",
                    "midi": 67,
                    "time": 55.926379999999774,
                    "velocity": 0.3228346456692913,
                    "duration": 0.12210999999999927
                },
                {
                    "name": "E4",
                    "midi": 64,
                    "time": 56.048489999999774,
                    "velocity": 0.25196850393700787,
                    "duration": 0.24421999999999855
                },
                {
                    "name": "B4",
                    "midi": 71,
                    "time": 56.29270999999977,
                    "velocity": 0.3228346456692913,
                    "duration": 0.12210999999999927
                },
                {
                    "name": "G4",
                    "midi": 67,
                    "time": 56.41481999999977,
                    "velocity": 0.3228346456692913,
                    "duration": 0.12210999999999927
                },
                {
                    "name": "E4",
                    "midi": 64,
                    "time": 56.53692999999977,
                    "velocity": 0.2677165354330709,
                    "duration": 0.12210999999999927
                },
                {
                    "name": "E4",
                    "midi": 64,
                    "time": 56.78114999999977,
                    "velocity": 0.29133858267716534,
                    "duration": 0.12210999999999927
                },
                {
                    "name": "G4",
                    "midi": 67,
                    "time": 56.90325999999977,
                    "velocity": 0.31496062992125984,
                    "duration": 0.12210999999999927
                },
                {
                    "name": "A#4",
                    "midi": 70,
                    "time": 57.02536999999977,
                    "velocity": 0.33070866141732286,
                    "duration": 0.12210999999999927
                },
                {
                    "name": "D5",
                    "midi": 74,
                    "time": 57.14747999999977,
                    "velocity": 0.4330708661417323,
                    "duration": 0.3663299999999978
                },
                {
                    "name": "A#4",
                    "midi": 70,
                    "time": 57.269589999999766,
                    "velocity": 0.2992125984251969,
                    "duration": 0.12210999999999927
                },
                {
                    "name": "G4",
                    "midi": 67,
                    "time": 57.391699999999766,
                    "velocity": 0.2992125984251969,
                    "duration": 0.12210999999999927
                },
                {
                    "name": "E4",
                    "midi": 64,
                    "time": 57.513809999999765,
                    "velocity": 0.25196850393700787,
                    "duration": 0.12210999999999927
                },
                {
                    "name": "E5",
                    "midi": 76,
                    "time": 57.635919999999764,
                    "velocity": 0.44881889763779526,
                    "duration": 0.3663299999999978
                },
                {
                    "name": "A#4",
                    "midi": 70,
                    "time": 57.75802999999976,
                    "velocity": 0.29133858267716534,
                    "duration": 0.12210999999999927
                },
                {
                    "name": "G4",
                    "midi": 67,
                    "time": 57.88013999999976,
                    "velocity": 0.2755905511811024,
                    "duration": 0.12210999999999927
                },
                {
                    "name": "E4",
                    "midi": 64,
                    "time": 58.00224999999976,
                    "velocity": 0.25196850393700787,
                    "duration": 0.12210999999999927
                },
                {
                    "name": "C5",
                    "midi": 72,
                    "time": 58.12435999999976,
                    "velocity": 0.41732283464566927,
                    "duration": 0.3663299999999978
                },
                {
                    "name": "A#4",
                    "midi": 70,
                    "time": 58.24646999999976,
                    "velocity": 0.2992125984251969,
                    "duration": 0.12210999999999927
                },
                {
                    "name": "G4",
                    "midi": 67,
                    "time": 58.36857999999976,
                    "velocity": 0.2992125984251969,
                    "duration": 0.12210999999999927
                },
                {
                    "name": "E4",
                    "midi": 64,
                    "time": 58.49068999999976,
                    "velocity": 0.25196850393700787,
                    "duration": 0.12210999999999927
                },
                {
                    "name": "D5",
                    "midi": 74,
                    "time": 58.61279999999976,
                    "velocity": 0.3228346456692913,
                    "duration": 0.12210999999999927
                },
                {
                    "name": "A#4",
                    "midi": 70,
                    "time": 58.73490999999976,
                    "velocity": 0.3228346456692913,
                    "duration": 0.12210999999999927
                },
                {
                    "name": "A4",
                    "midi": 69,
                    "time": 58.85701999999976,
                    "velocity": 0.31496062992125984,
                    "duration": 0.12210999999999927
                },
                {
                    "name": "G4",
                    "midi": 67,
                    "time": 58.979129999999756,
                    "velocity": 0.31496062992125984,
                    "duration": 0.12210999999999927
                },
                {
                    "name": "F4",
                    "midi": 65,
                    "time": 59.101239999999756,
                    "velocity": 0.30708661417322836,
                    "duration": 0.12210999999999927
                },
                {
                    "name": "E4",
                    "midi": 64,
                    "time": 59.223349999999755,
                    "velocity": 0.30708661417322836,
                    "duration": 0.12210999999999927
                },
                {
                    "name": "D4",
                    "midi": 62,
                    "time": 59.345459999999754,
                    "velocity": 0.30708661417322836,
                    "duration": 0.12210999999999927
                },
                {
                    "name": "C4",
                    "midi": 60,
                    "time": 59.46756999999975,
                    "velocity": 0.2992125984251969,
                    "duration": 0.12210999999999927
                },
                {
                    "name": "D4",
                    "midi": 62,
                    "time": 59.58967999999975,
                    "velocity": 0.2992125984251969,
                    "duration": 0.12210999999999927
                },
                {
                    "name": "A#3",
                    "midi": 58,
                    "time": 59.71178999999975,
                    "velocity": 0.29133858267716534,
                    "duration": 0.12210999999999927
                },
                {
                    "name": "A3",
                    "midi": 57,
                    "time": 59.83389999999975,
                    "velocity": 0.2755905511811024,
                    "duration": 0.12210999999999927
                },
                {
                    "name": "G3",
                    "midi": 55,
                    "time": 59.95600999999975,
                    "velocity": 0.2440944881889764,
                    "duration": 0.12210999999999927
                },
                {
                    "name": "D4",
                    "midi": 62,
                    "time": 61.05499999999975,
                    "velocity": 0.2992125984251969,
                    "duration": 0.4884399999999971
                },
                {
                    "name": "A#3",
                    "midi": 58,
                    "time": 61.17710999999975,
                    "velocity": 0.23622047244094488,
                    "duration": 0.12210999999999927
                },
                {
                    "name": "G3",
                    "midi": 55,
                    "time": 61.29921999999975,
                    "velocity": 0.23622047244094488,
                    "duration": 0.12210999999999927
                },
                {
                    "name": "A#3",
                    "midi": 58,
                    "time": 61.42132999999975,
                    "velocity": 0.23622047244094488,
                    "duration": 0.12210999999999927
                },
                {
                    "name": "E4",
                    "midi": 64,
                    "time": 61.54343999999975,
                    "velocity": 0.2992125984251969,
                    "duration": 0.4884399999999971
                },
                {
                    "name": "A#3",
                    "midi": 58,
                    "time": 61.66554999999975,
                    "velocity": 0.2440944881889764,
                    "duration": 0.12210999999999927
                },
                {
                    "name": "G3",
                    "midi": 55,
                    "time": 61.78765999999975,
                    "velocity": 0.2440944881889764,
                    "duration": 0.12210999999999927
                },
                {
                    "name": "A#3",
                    "midi": 58,
                    "time": 61.909769999999746,
                    "velocity": 0.2440944881889764,
                    "duration": 0.12210999999999927
                },
                {
                    "name": "C4",
                    "midi": 60,
                    "time": 62.031879999999745,
                    "velocity": 0.30708661417322836,
                    "duration": 0.4884399999999971
                },
                {
                    "name": "A#3",
                    "midi": 58,
                    "time": 62.153989999999744,
                    "velocity": 0.25196850393700787,
                    "duration": 0.12210999999999927
                },
                {
                    "name": "G3",
                    "midi": 55,
                    "time": 62.276099999999744,
                    "velocity": 0.25196850393700787,
                    "duration": 0.12210999999999927
                },
                {
                    "name": "A#3",
                    "midi": 58,
                    "time": 62.39820999999974,
                    "velocity": 0.25196850393700787,
                    "duration": 0.12210999999999927
                },
                {
                    "name": "F3",
                    "midi": 53,
                    "time": 62.76453999999974,
                    "velocity": 0.1968503937007874,
                    "duration": 0.24421999999999855
                },
                {
                    "name": "A#3",
                    "midi": 58,
                    "time": 63.00875999999974,
                    "velocity": 0.1968503937007874,
                    "duration": 0.24421999999999855
                },
                {
                    "name": "C4",
                    "midi": 60,
                    "time": 63.25297999999974,
                    "velocity": 0.2283464566929134,
                    "duration": 0.24421999999999855
                },
                {
                    "name": "D4",
                    "midi": 62,
                    "time": 63.49719999999974,
                    "velocity": 0.25196850393700787,
                    "duration": 0.4884399999999971
                },
                {
                    "name": "F4",
                    "midi": 65,
                    "time": 63.741419999999735,
                    "velocity": 0.1968503937007874,
                    "duration": 0.24421999999999855
                },
                {
                    "name": "A#4",
                    "midi": 70,
                    "time": 63.985639999999734,
                    "velocity": 0.2283464566929134,
                    "duration": 0.24421999999999855
                },
                {
                    "name": "C5",
                    "midi": 72,
                    "time": 64.22985999999973,
                    "velocity": 0.25196850393700787,
                    "duration": 0.24421999999999855
                },
                {
                    "name": "D5",
                    "midi": 74,
                    "time": 64.47407999999973,
                    "velocity": 0.29133858267716534,
                    "duration": 0.4884399999999971
                },
                {
                    "name": "C4",
                    "midi": 60,
                    "time": 65.45095999999972,
                    "velocity": 0.25984251968503935,
                    "duration": 0.24421999999999855
                },
                {
                    "name": "F#3",
                    "midi": 54,
                    "time": 65.69517999999972,
                    "velocity": 0.25196850393700787,
                    "duration": 4.640180000000001
                },
                {
                    "name": "A#3",
                    "midi": 58,
                    "time": 65.93939999999972,
                    "velocity": 0.25196850393700787,
                    "duration": 4.395960000000002
                },
                {
                    "name": "C4",
                    "midi": 60,
                    "time": 66.18361999999972,
                    "velocity": 0.2440944881889764,
                    "duration": 4.151740000000004
                },
                {
                    "name": "D#4",
                    "midi": 63,
                    "time": 66.42783999999972,
                    "velocity": 0.25984251968503935,
                    "duration": 3.907520000000005
                },
                {
                    "name": "D#3",
                    "midi": 51,
                    "time": 70.57957999999972,
                    "velocity": 0.1732283464566929,
                    "duration": 0.24421999999999855
                },
                {
                    "name": "G#3",
                    "midi": 56,
                    "time": 70.82379999999972,
                    "velocity": 0.1732283464566929,
                    "duration": 0.24421999999999855
                },
                {
                    "name": "A#3",
                    "midi": 58,
                    "time": 71.06801999999972,
                    "velocity": 0.2047244094488189,
                    "duration": 0.24421999999999855
                },
                {
                    "name": "C4",
                    "midi": 60,
                    "time": 71.31223999999972,
                    "velocity": 0.25984251968503935,
                    "duration": 0.24421999999999855
                },
                {
                    "name": "D#3",
                    "midi": 51,
                    "time": 71.55645999999972,
                    "velocity": 0.2204724409448819,
                    "duration": 0.24421999999999855
                },
                {
                    "name": "G#3",
                    "midi": 56,
                    "time": 71.80067999999972,
                    "velocity": 0.2204724409448819,
                    "duration": 0.24421999999999855
                },
                {
                    "name": "C4",
                    "midi": 60,
                    "time": 72.04489999999971,
                    "velocity": 0.2204724409448819,
                    "duration": 0.24421999999999855
                },
                {
                    "name": "A#3",
                    "midi": 58,
                    "time": 72.28911999999971,
                    "velocity": 0.2440944881889764,
                    "duration": 0.24421999999999855
                },
                {
                    "name": "D#3",
                    "midi": 51,
                    "time": 72.53333999999971,
                    "velocity": 0.2204724409448819,
                    "duration": 0.24421999999999855
                },
                {
                    "name": "F#3",
                    "midi": 54,
                    "time": 72.77755999999971,
                    "velocity": 0.2204724409448819,
                    "duration": 0.24421999999999855
                },
                {
                    "name": "A#3",
                    "midi": 58,
                    "time": 73.02177999999971,
                    "velocity": 0.2204724409448819,
                    "duration": 0.24421999999999855
                },
                {
                    "name": "C#4",
                    "midi": 61,
                    "time": 73.2659999999997,
                    "velocity": 0.25984251968503935,
                    "duration": 0.24421999999999855
                },
                {
                    "name": "D#3",
                    "midi": 51,
                    "time": 73.5102199999997,
                    "velocity": 0.2204724409448819,
                    "duration": 0.24421999999999855
                },
                {
                    "name": "F#3",
                    "midi": 54,
                    "time": 73.7544399999997,
                    "velocity": 0.2204724409448819,
                    "duration": 0.24421999999999855
                },
                {
                    "name": "C#4",
                    "midi": 61,
                    "time": 73.9986599999997,
                    "velocity": 0.2204724409448819,
                    "duration": 0.24421999999999855
                },
                {
                    "name": "D#3",
                    "midi": 51,
                    "time": 74.4870999999997,
                    "velocity": 0.1732283464566929,
                    "duration": 0.24421999999999855
                },
                {
                    "name": "G#3",
                    "midi": 56,
                    "time": 74.7313199999997,
                    "velocity": 0.1732283464566929,
                    "duration": 0.24421999999999855
                },
                {
                    "name": "A#3",
                    "midi": 58,
                    "time": 74.9755399999997,
                    "velocity": 0.2047244094488189,
                    "duration": 0.24421999999999855
                },
                {
                    "name": "C4",
                    "midi": 60,
                    "time": 75.2197599999997,
                    "velocity": 0.25984251968503935,
                    "duration": 0.24421999999999855
                },
                {
                    "name": "D#3",
                    "midi": 51,
                    "time": 75.4639799999997,
                    "velocity": 0.2204724409448819,
                    "duration": 0.24421999999999855
                },
                {
                    "name": "G#3",
                    "midi": 56,
                    "time": 75.70819999999969,
                    "velocity": 0.2204724409448819,
                    "duration": 0.24421999999999855
                },
                {
                    "name": "C4",
                    "midi": 60,
                    "time": 75.95241999999969,
                    "velocity": 0.2204724409448819,
                    "duration": 0.24421999999999855
                },
                {
                    "name": "A#3",
                    "midi": 58,
                    "time": 76.19663999999969,
                    "velocity": 0.2440944881889764,
                    "duration": 0.24421999999999855
                },
                {
                    "name": "D#3",
                    "midi": 51,
                    "time": 76.44085999999969,
                    "velocity": 0.2204724409448819,
                    "duration": 0.24421999999999855
                },
                {
                    "name": "F#3",
                    "midi": 54,
                    "time": 76.68507999999969,
                    "velocity": 0.2204724409448819,
                    "duration": 0.24421999999999855
                },
                {
                    "name": "A#3",
                    "midi": 58,
                    "time": 76.92929999999969,
                    "velocity": 0.2204724409448819,
                    "duration": 0.24421999999999855
                },
                {
                    "name": "C#4",
                    "midi": 61,
                    "time": 77.17351999999968,
                    "velocity": 0.25984251968503935,
                    "duration": 0.24421999999999855
                },
                {
                    "name": "D#3",
                    "midi": 51,
                    "time": 77.41773999999968,
                    "velocity": 0.2204724409448819,
                    "duration": 0.24421999999999855
                },
                {
                    "name": "F#3",
                    "midi": 54,
                    "time": 77.66195999999968,
                    "velocity": 0.2204724409448819,
                    "duration": 0.24421999999999855
                },
                {
                    "name": "C#4",
                    "midi": 61,
                    "time": 77.90617999999968,
                    "velocity": 0.2204724409448819,
                    "duration": 0.24421999999999855
                },
                {
                    "name": "F#3",
                    "midi": 54,
                    "time": 78.39461999999968,
                    "velocity": 0.1732283464566929,
                    "duration": 0.24421999999999855
                },
                {
                    "name": "C4",
                    "midi": 60,
                    "time": 78.63883999999968,
                    "velocity": 0.1732283464566929,
                    "duration": 0.24421999999999855
                },
                {
                    "name": "C#4",
                    "midi": 61,
                    "time": 78.88305999999967,
                    "velocity": 0.2047244094488189,
                    "duration": 0.24421999999999855
                },
                {
                    "name": "D#4",
                    "midi": 63,
                    "time": 79.12727999999967,
                    "velocity": 0.25984251968503935,
                    "duration": 0.24421999999999855
                },
                {
                    "name": "F#3",
                    "midi": 54,
                    "time": 79.37149999999967,
                    "velocity": 0.2283464566929134,
                    "duration": 0.24421999999999855
                },
                {
                    "name": "C4",
                    "midi": 60,
                    "time": 79.61571999999967,
                    "velocity": 0.2283464566929134,
                    "duration": 0.24421999999999855
                },
                {
                    "name": "D#4",
                    "midi": 63,
                    "time": 79.85993999999967,
                    "velocity": 0.2283464566929134,
                    "duration": 0.24421999999999855
                },
                {
                    "name": "C#4",
                    "midi": 61,
                    "time": 80.10415999999967,
                    "velocity": 0.3228346456692913,
                    "duration": 0.24421999999999855
                },
                {
                    "name": "F#3",
                    "midi": 54,
                    "time": 80.34837999999966,
                    "velocity": 0.2677165354330709,
                    "duration": 0.24421999999999855
                },
                {
                    "name": "A#3",
                    "midi": 58,
                    "time": 80.59259999999966,
                    "velocity": 0.2677165354330709,
                    "duration": 0.24421999999999855
                },
                {
                    "name": "C#4",
                    "midi": 61,
                    "time": 80.83681999999966,
                    "velocity": 0.3228346456692913,
                    "duration": 0.24421999999999855
                },
                {
                    "name": "F4",
                    "midi": 65,
                    "time": 81.08103999999966,
                    "velocity": 0.2440944881889764,
                    "duration": 0.24421999999999855
                },
                {
                    "name": "F#3",
                    "midi": 54,
                    "time": 81.32525999999966,
                    "velocity": 0.29133858267716534,
                    "duration": 0.24421999999999855
                },
                {
                    "name": "A#3",
                    "midi": 58,
                    "time": 81.56947999999966,
                    "velocity": 0.33858267716535434,
                    "duration": 0.24421999999999855
                },
                {
                    "name": "F4",
                    "midi": 65,
                    "time": 81.81369999999966,
                    "velocity": 0.3858267716535433,
                    "duration": 0.4884399999999971
                },
                {
                    "name": "F#3",
                    "midi": 54,
                    "time": 82.30213999999965,
                    "velocity": 0.2283464566929134,
                    "duration": 0.24421999999999855
                },
                {
                    "name": "C4",
                    "midi": 60,
                    "time": 82.54635999999965,
                    "velocity": 0.2283464566929134,
                    "duration": 0.24421999999999855
                },
                {
                    "name": "C#4",
                    "midi": 61,
                    "time": 82.79057999999965,
                    "velocity": 0.2283464566929134,
                    "duration": 0.24421999999999855
                },
                {
                    "name": "D#4",
                    "midi": 63,
                    "time": 83.03479999999965,
                    "velocity": 0.2755905511811024,
                    "duration": 0.24421999999999855
                },
                {
                    "name": "F#3",
                    "midi": 54,
                    "time": 83.27901999999965,
                    "velocity": 0.2125984251968504,
                    "duration": 0.24421999999999855
                },
                {
                    "name": "C4",
                    "midi": 60,
                    "time": 83.52323999999965,
                    "velocity": 0.2125984251968504,
                    "duration": 0.24421999999999855
                },
                {
                    "name": "D#4",
                    "midi": 63,
                    "time": 83.76745999999964,
                    "velocity": 0.2047244094488189,
                    "duration": 0.24421999999999855
                },
                {
                    "name": "C#4",
                    "midi": 61,
                    "time": 84.01167999999964,
                    "velocity": 0.23622047244094488,
                    "duration": 0.24421999999999855
                },
                {
                    "name": "F#3",
                    "midi": 54,
                    "time": 84.25589999999964,
                    "velocity": 0.1968503937007874,
                    "duration": 0.24421999999999855
                },
                {
                    "name": "A#3",
                    "midi": 58,
                    "time": 84.50011999999964,
                    "velocity": 0.1889763779527559,
                    "duration": 0.24421999999999855
                },
                {
                    "name": "C#4",
                    "midi": 61,
                    "time": 84.74433999999964,
                    "velocity": 0.1889763779527559,
                    "duration": 0.24421999999999855
                },
                {
                    "name": "F4",
                    "midi": 65,
                    "time": 84.98855999999964,
                    "velocity": 0.23622047244094488,
                    "duration": 0.24421999999999855
                },
                {
                    "name": "F#3",
                    "midi": 54,
                    "time": 85.23277999999964,
                    "velocity": 0.18110236220472442,
                    "duration": 0.24421999999999855
                },
                {
                    "name": "A#3",
                    "midi": 58,
                    "time": 85.47699999999963,
                    "velocity": 0.18110236220472442,
                    "duration": 0.24421999999999855
                },
                {
                    "name": "F4",
                    "midi": 65,
                    "time": 85.72121999999963,
                    "velocity": 0.1732283464566929,
                    "duration": 0.24421999999999855
                },
                {
                    "name": "G3",
                    "midi": 55,
                    "time": 86.08754999999964,
                    "velocity": 0.1968503937007874,
                    "duration": 0.12211000000000638
                },
                {
                    "name": "C4",
                    "midi": 60,
                    "time": 86.20965999999964,
                    "velocity": 0.2047244094488189,
                    "duration": 0.12211000000000638
                },
                {
                    "name": "D4",
                    "midi": 62,
                    "time": 86.33176999999965,
                    "velocity": 0.1889763779527559,
                    "duration": 0.12211000000000638
                },
                {
                    "name": "E4",
                    "midi": 64,
                    "time": 86.45387999999966,
                    "velocity": 0.2283464566929134,
                    "duration": 0.12211000000000638
                },
                {
                    "name": "G3",
                    "midi": 55,
                    "time": 86.57598999999966,
                    "velocity": 0.2125984251968504,
                    "duration": 0.12211000000000638
                },
                {
                    "name": "C4",
                    "midi": 60,
                    "time": 86.69809999999967,
                    "velocity": 0.2125984251968504,
                    "duration": 0.12211000000000638
                },
                {
                    "name": "E4",
                    "midi": 64,
                    "time": 86.82020999999968,
                    "velocity": 0.2047244094488189,
                    "duration": 0.12211000000000638
                },
                {
                    "name": "D4",
                    "midi": 62,
                    "time": 86.94231999999968,
                    "velocity": 0.2440944881889764,
                    "duration": 0.12211000000000638
                },
                {
                    "name": "F3",
                    "midi": 53,
                    "time": 87.06442999999969,
                    "velocity": 0.2283464566929134,
                    "duration": 0.12211000000000638
                },
                {
                    "name": "C4",
                    "midi": 60,
                    "time": 87.1865399999997,
                    "velocity": 0.23622047244094488,
                    "duration": 0.12211000000000638
                },
                {
                    "name": "D4",
                    "midi": 62,
                    "time": 87.3086499999997,
                    "velocity": 0.2125984251968504,
                    "duration": 0.12211000000000638
                },
                {
                    "name": "F4",
                    "midi": 65,
                    "time": 87.43075999999971,
                    "velocity": 0.2677165354330709,
                    "duration": 0.12211000000000638
                },
                {
                    "name": "A3",
                    "midi": 57,
                    "time": 87.55286999999971,
                    "velocity": 0.2440944881889764,
                    "duration": 0.12211000000000638
                },
                {
                    "name": "B3",
                    "midi": 59,
                    "time": 87.67497999999972,
                    "velocity": 0.25196850393700787,
                    "duration": 0.12211000000000638
                },
                {
                    "name": "F4",
                    "midi": 65,
                    "time": 87.79708999999973,
                    "velocity": 0.23622047244094488,
                    "duration": 0.12211000000000638
                },
                {
                    "name": "E4",
                    "midi": 64,
                    "time": 87.91919999999973,
                    "velocity": 0.29133858267716534,
                    "duration": 0.12211000000000638
                },
                {
                    "name": "G3",
                    "midi": 55,
                    "time": 88.04130999999974,
                    "velocity": 0.2677165354330709,
                    "duration": 0.12211000000000638
                },
                {
                    "name": "C4",
                    "midi": 60,
                    "time": 88.16341999999975,
                    "velocity": 0.2677165354330709,
                    "duration": 0.12211000000000638
                },
                {
                    "name": "E4",
                    "midi": 64,
                    "time": 88.28552999999975,
                    "velocity": 0.25196850393700787,
                    "duration": 0.12211000000000638
                },
                {
                    "name": "G4",
                    "midi": 67,
                    "time": 88.40763999999976,
                    "velocity": 0.29133858267716534,
                    "duration": 0.12211000000000638
                },
                {
                    "name": "B3",
                    "midi": 59,
                    "time": 88.52974999999977,
                    "velocity": 0.2677165354330709,
                    "duration": 0.12211000000000638
                },
                {
                    "name": "C4",
                    "midi": 60,
                    "time": 88.65185999999977,
                    "velocity": 0.2677165354330709,
                    "duration": 0.12211000000000638
                },
                {
                    "name": "G4",
                    "midi": 67,
                    "time": 88.77396999999978,
                    "velocity": 0.25196850393700787,
                    "duration": 0.12211000000000638
                },
                {
                    "name": "F4",
                    "midi": 65,
                    "time": 88.89607999999978,
                    "velocity": 0.2992125984251969,
                    "duration": 0.12211000000000638
                },
                {
                    "name": "A3",
                    "midi": 57,
                    "time": 89.01818999999979,
                    "velocity": 0.2755905511811024,
                    "duration": 0.12211000000000638
                },
                {
                    "name": "C4",
                    "midi": 60,
                    "time": 89.1402999999998,
                    "velocity": 0.2755905511811024,
                    "duration": 0.12211000000000638
                },
                {
                    "name": "F4",
                    "midi": 65,
                    "time": 89.2624099999998,
                    "velocity": 0.25196850393700787,
                    "duration": 0.12211000000000638
                },
                {
                    "name": "A4",
                    "midi": 69,
                    "time": 89.38451999999981,
                    "velocity": 0.2992125984251969,
                    "duration": 0.12211000000000638
                },
                {
                    "name": "B3",
                    "midi": 59,
                    "time": 89.50662999999982,
                    "velocity": 0.2755905511811024,
                    "duration": 0.12211000000000638
                },
                {
                    "name": "F4",
                    "midi": 65,
                    "time": 89.62873999999982,
                    "velocity": 0.2755905511811024,
                    "duration": 0.12211000000000638
                },
                {
                    "name": "A4",
                    "midi": 69,
                    "time": 89.75084999999983,
                    "velocity": 0.25196850393700787,
                    "duration": 0.12211000000000638
                },
                {
                    "name": "G4",
                    "midi": 67,
                    "time": 89.87295999999984,
                    "velocity": 0.33070866141732286,
                    "duration": 0.12211000000000638
                },
                {
                    "name": "C4",
                    "midi": 60,
                    "time": 89.99506999999984,
                    "velocity": 0.28346456692913385,
                    "duration": 0.12211000000000638
                },
                {
                    "name": "E4",
                    "midi": 64,
                    "time": 90.11717999999985,
                    "velocity": 0.28346456692913385,
                    "duration": 0.12211000000000638
                },
                {
                    "name": "G4",
                    "midi": 67,
                    "time": 90.23928999999985,
                    "velocity": 0.23622047244094488,
                    "duration": 0.12211000000000638
                },
                {
                    "name": "C5",
                    "midi": 72,
                    "time": 90.36139999999986,
                    "velocity": 0.3937007874015748,
                    "duration": 0.18316500000000246
                },
                {
                    "name": "E4",
                    "midi": 64,
                    "time": 90.48350999999987,
                    "velocity": 0.2992125984251969,
                    "duration": 0.12210999999999217
                },
                {
                    "name": "G4",
                    "midi": 67,
                    "time": 90.60561999999986,
                    "velocity": 0.2992125984251969,
                    "duration": 0.12211000000000638
                },
                {
                    "name": "C5",
                    "midi": 72,
                    "time": 90.72772999999987,
                    "velocity": 0.25196850393700787,
                    "duration": 0.12211000000000638
                },
                {
                    "name": "D5",
                    "midi": 74,
                    "time": 90.84983999999987,
                    "velocity": 0.41732283464566927,
                    "duration": 0.18316500000000246
                },
                {
                    "name": "E4",
                    "midi": 64,
                    "time": 90.97194999999988,
                    "velocity": 0.33070866141732286,
                    "duration": 0.12210999999999217
                },
                {
                    "name": "G4",
                    "midi": 67,
                    "time": 91.09405999999987,
                    "velocity": 0.33070866141732286,
                    "duration": 0.12211000000000638
                },
                {
                    "name": "D5",
                    "midi": 74,
                    "time": 91.21616999999988,
                    "velocity": 0.2755905511811024,
                    "duration": 0.12211000000000638
                },
                {
                    "name": "C5",
                    "midi": 72,
                    "time": 91.33827999999988,
                    "velocity": 0.4094488188976378,
                    "duration": 0.18316500000000246
                },
                {
                    "name": "E4",
                    "midi": 64,
                    "time": 91.46038999999989,
                    "velocity": 0.3228346456692913,
                    "duration": 0.12210999999999217
                },
                {
                    "name": "G4",
                    "midi": 67,
                    "time": 91.58249999999988,
                    "velocity": 0.3228346456692913,
                    "duration": 0.12211000000000638
                },
                {
                    "name": "C5",
                    "midi": 72,
                    "time": 91.70460999999989,
                    "velocity": 0.2992125984251969,
                    "duration": 0.12211000000000638
                },
                {
                    "name": "B4",
                    "midi": 71,
                    "time": 91.8267199999999,
                    "velocity": 0.3700787401574803,
                    "duration": 0.18316500000000246
                },
                {
                    "name": "E4",
                    "midi": 64,
                    "time": 91.9488299999999,
                    "velocity": 0.2992125984251969,
                    "duration": 0.12210999999999217
                },
                {
                    "name": "G4",
                    "midi": 67,
                    "time": 92.0709399999999,
                    "velocity": 0.2992125984251969,
                    "duration": 0.12211000000000638
                },
                {
                    "name": "B4",
                    "midi": 71,
                    "time": 92.1930499999999,
                    "velocity": 0.2125984251968504,
                    "duration": 0.12211000000000638
                },
                {
                    "name": "A4",
                    "midi": 69,
                    "time": 92.3151599999999,
                    "velocity": 0.3700787401574803,
                    "duration": 0.18316500000000246
                },
                {
                    "name": "E4",
                    "midi": 64,
                    "time": 92.43726999999991,
                    "velocity": 0.2755905511811024,
                    "duration": 0.12210999999999217
                },
                {
                    "name": "G4",
                    "midi": 67,
                    "time": 92.5593799999999,
                    "velocity": 0.2755905511811024,
                    "duration": 0.12211000000000638
                },
                {
                    "name": "A4",
                    "midi": 69,
                    "time": 92.68148999999991,
                    "velocity": 0.2125984251968504,
                    "duration": 0.12211000000000638
                },
                {
                    "name": "G4",
                    "midi": 67,
                    "time": 92.80359999999992,
                    "velocity": 0.3543307086614173,
                    "duration": 0.18316500000000246
                },
                {
                    "name": "C4",
                    "midi": 60,
                    "time": 92.92570999999992,
                    "velocity": 0.2755905511811024,
                    "duration": 0.12210999999999217
                },
                {
                    "name": "E4",
                    "midi": 64,
                    "time": 93.04781999999992,
                    "velocity": 0.2755905511811024,
                    "duration": 0.12211000000000638
                },
                {
                    "name": "G4",
                    "midi": 67,
                    "time": 93.16992999999992,
                    "velocity": 0.2125984251968504,
                    "duration": 0.12211000000000638
                },
                {
                    "name": "F4",
                    "midi": 65,
                    "time": 93.29203999999993,
                    "velocity": 0.36220472440944884,
                    "duration": 0.18316500000000246
                },
                {
                    "name": "C4",
                    "midi": 60,
                    "time": 93.41414999999994,
                    "velocity": 0.2755905511811024,
                    "duration": 0.12210999999999217
                },
                {
                    "name": "E4",
                    "midi": 64,
                    "time": 93.53625999999993,
                    "velocity": 0.2755905511811024,
                    "duration": 0.12211000000000638
                },
                {
                    "name": "F4",
                    "midi": 65,
                    "time": 93.65836999999993,
                    "velocity": 0.2125984251968504,
                    "duration": 0.12211000000000638
                },
                {
                    "name": "E4",
                    "midi": 64,
                    "time": 93.78047999999994,
                    "velocity": 0.3228346456692913,
                    "duration": 0.3561541666666841
                },
                {
                    "name": "A3",
                    "midi": 57,
                    "time": 93.90258999999995,
                    "velocity": 0.25196850393700787,
                    "duration": 0.12211000000000638
                },
                {
                    "name": "C4",
                    "midi": 60,
                    "time": 94.02469999999995,
                    "velocity": 0.25196850393700787,
                    "duration": 0.12211000000000638
                },
                {
                    "name": "E4",
                    "midi": 64,
                    "time": 94.14680999999996,
                    "velocity": 0.2125984251968504,
                    "duration": 0.12211000000000638
                },
                {
                    "name": "D4",
                    "midi": 62,
                    "time": 94.26891999999997,
                    "velocity": 0.2755905511811024,
                    "duration": 0.3561541666666841
                },
                {
                    "name": "A3",
                    "midi": 57,
                    "time": 94.39102999999997,
                    "velocity": 0.25196850393700787,
                    "duration": 0.12211000000000638
                },
                {
                    "name": "C4",
                    "midi": 60,
                    "time": 94.51313999999998,
                    "velocity": 0.25196850393700787,
                    "duration": 0.12211000000000638
                },
                {
                    "name": "D4",
                    "midi": 62,
                    "time": 94.63524999999998,
                    "velocity": 0.2125984251968504,
                    "duration": 0.12211000000000638
                },
                {
                    "name": "G4",
                    "midi": 67,
                    "time": 94.75735999999999,
                    "velocity": 0.3228346456692913,
                    "duration": 0.3561541666666841
                },
                {
                    "name": "B3",
                    "midi": 59,
                    "time": 94.87947,
                    "velocity": 0.25196850393700787,
                    "duration": 0.12211000000000638
                },
                {
                    "name": "E4",
                    "midi": 64,
                    "time": 95.00158,
                    "velocity": 0.25196850393700787,
                    "duration": 0.12211000000000638
                },
                {
                    "name": "G4",
                    "midi": 67,
                    "time": 95.12369000000001,
                    "velocity": 0.25984251968503935,
                    "duration": 0.12211000000000638
                },
                {
                    "name": "A4",
                    "midi": 69,
                    "time": 95.24580000000002,
                    "velocity": 0.3700787401574803,
                    "duration": 0.3561541666666841
                },
                {
                    "name": "C4",
                    "midi": 60,
                    "time": 95.36791000000002,
                    "velocity": 0.29133858267716534,
                    "duration": 0.12211000000000638
                },
                {
                    "name": "E4",
                    "midi": 64,
                    "time": 95.49002000000003,
                    "velocity": 0.25196850393700787,
                    "duration": 0.12211000000000638
                },
                {
                    "name": "A4",
                    "midi": 69,
                    "time": 95.61213000000004,
                    "velocity": 0.2125984251968504,
                    "duration": 0.12211000000000638
                },
                {
                    "name": "E4",
                    "midi": 64,
                    "time": 95.73424000000004,
                    "velocity": 0.31496062992125984,
                    "duration": 0.3561541666666841
                },
                {
                    "name": "A3",
                    "midi": 57,
                    "time": 95.85635000000005,
                    "velocity": 0.25196850393700787,
                    "duration": 0.12211000000000638
                },
                {
                    "name": "C4",
                    "midi": 60,
                    "time": 95.97846000000006,
                    "velocity": 0.25196850393700787,
                    "duration": 0.12211000000000638
                },
                {
                    "name": "E4",
                    "midi": 64,
                    "time": 96.10057000000006,
                    "velocity": 0.2125984251968504,
                    "duration": 0.12211000000000638
                },
                {
                    "name": "D4",
                    "midi": 62,
                    "time": 96.22268000000007,
                    "velocity": 0.30708661417322836,
                    "duration": 0.3561541666666841
                },
                {
                    "name": "A3",
                    "midi": 57,
                    "time": 96.34479000000007,
                    "velocity": 0.25196850393700787,
                    "duration": 0.12211000000000638
                },
                {
                    "name": "C4",
                    "midi": 60,
                    "time": 96.46690000000008,
                    "velocity": 0.25196850393700787,
                    "duration": 0.12211000000000638
                },
                {
                    "name": "D4",
                    "midi": 62,
                    "time": 96.58901000000009,
                    "velocity": 0.2125984251968504,
                    "duration": 0.12211000000000638
                },
                {
                    "name": "C4",
                    "midi": 60,
                    "time": 96.7111200000001,
                    "velocity": 0.2755905511811024,
                    "duration": 0.3561541666666841
                },
                {
                    "name": "G3",
                    "midi": 55,
                    "time": 96.8332300000001,
                    "velocity": 0.25196850393700787,
                    "duration": 0.12211000000000638
                },
                {
                    "name": "A3",
                    "midi": 57,
                    "time": 96.9553400000001,
                    "velocity": 0.25196850393700787,
                    "duration": 0.12211000000000638
                },
                {
                    "name": "C4",
                    "midi": 60,
                    "time": 97.07745000000011,
                    "velocity": 0.2125984251968504,
                    "duration": 0.12211000000000638
                },
                {
                    "name": "B3",
                    "midi": 59,
                    "time": 97.19956000000012,
                    "velocity": 0.2755905511811024,
                    "duration": 0.3561541666666841
                },
                {
                    "name": "F3",
                    "midi": 53,
                    "time": 97.32167000000013,
                    "velocity": 0.25196850393700787,
                    "duration": 0.12211000000000638
                },
                {
                    "name": "G3",
                    "midi": 55,
                    "time": 97.44378000000013,
                    "velocity": 0.25196850393700787,
                    "duration": 0.12211000000000638
                },
                {
                    "name": "B3",
                    "midi": 59,
                    "time": 97.56589000000014,
                    "velocity": 0.2125984251968504,
                    "duration": 0.12211000000000638
                },
                {
                    "name": "E3",
                    "midi": 52,
                    "time": 105.74726000000014,
                    "velocity": 0.2047244094488189,
                    "duration": 0.12211000000000638
                },
                {
                    "name": "G#3",
                    "midi": 56,
                    "time": 105.86937000000015,
                    "velocity": 0.2047244094488189,
                    "duration": 0.12211000000000638
                },
                {
                    "name": "G#3",
                    "midi": 56,
                    "time": 106.23570000000015,
                    "velocity": 0.2440944881889764,
                    "duration": 0.12211000000000638
                },
                {
                    "name": "C4",
                    "midi": 60,
                    "time": 106.35781000000016,
                    "velocity": 0.25196850393700787,
                    "duration": 0.12211000000000638
                },
                {
                    "name": "C4",
                    "midi": 60,
                    "time": 106.72414000000016,
                    "velocity": 0.33858267716535434,
                    "duration": 0.12211000000000638
                },
                {
                    "name": "E4",
                    "midi": 64,
                    "time": 106.84625000000017,
                    "velocity": 0.33858267716535434,
                    "duration": 0.12211000000000638
                },
                {
                    "name": "E4",
                    "midi": 64,
                    "time": 107.21258000000017,
                    "velocity": 0.3700787401574803,
                    "duration": 0.12211000000000638
                },
                {
                    "name": "G#4",
                    "midi": 68,
                    "time": 107.33469000000018,
                    "velocity": 0.3700787401574803,
                    "duration": 0.12211000000000638
                },
                {
                    "name": "E4",
                    "midi": 64,
                    "time": 107.70102000000018,
                    "velocity": 0.3937007874015748,
                    "duration": 0.12211000000000638
                },
                {
                    "name": "G#4",
                    "midi": 68,
                    "time": 107.82313000000019,
                    "velocity": 0.3937007874015748,
                    "duration": 0.12211000000000638
                },
                {
                    "name": "G#4",
                    "midi": 68,
                    "time": 108.1894600000002,
                    "velocity": 0.4330708661417323,
                    "duration": 0.12211000000000638
                },
                {
                    "name": "C5",
                    "midi": 72,
                    "time": 108.3115700000002,
                    "velocity": 0.41732283464566927,
                    "duration": 0.12211000000000638
                },
                {
                    "name": "C5",
                    "midi": 72,
                    "time": 108.67790000000021,
                    "velocity": 0.5118110236220472,
                    "duration": 0.12211000000000638
                },
                {
                    "name": "E5",
                    "midi": 76,
                    "time": 108.80001000000021,
                    "velocity": 0.4881889763779528,
                    "duration": 0.12211000000000638
                },
                {
                    "name": "E5",
                    "midi": 76,
                    "time": 109.16634000000022,
                    "velocity": 0.5354330708661418,
                    "duration": 0.12211000000000638
                },
                {
                    "name": "G#5",
                    "midi": 80,
                    "time": 109.28845000000022,
                    "velocity": 0.49606299212598426,
                    "duration": 0.12211000000000638
                },
                {
                    "name": "G5",
                    "midi": 79,
                    "time": 109.65478000000023,
                    "velocity": 0.5354330708661418,
                    "duration": 0.12211000000000638
                },
                {
                    "name": "C6",
                    "midi": 84,
                    "time": 109.77689000000024,
                    "velocity": 0.5039370078740157,
                    "duration": 0.12211000000000638
                },
                {
                    "name": "G5",
                    "midi": 79,
                    "time": 110.14322000000024,
                    "velocity": 0.5354330708661418,
                    "duration": 0.12211000000000638
                },
                {
                    "name": "C6",
                    "midi": 84,
                    "time": 110.26533000000025,
                    "velocity": 0.5275590551181102,
                    "duration": 0.12211000000000638
                },
                {
                    "name": "G5",
                    "midi": 79,
                    "time": 110.63166000000025,
                    "velocity": 0.5354330708661418,
                    "duration": 0.12211000000000638
                },
                {
                    "name": "D6",
                    "midi": 86,
                    "time": 110.75377000000026,
                    "velocity": 0.5039370078740157,
                    "duration": 0.12211000000000638
                },
                {
                    "name": "G5",
                    "midi": 79,
                    "time": 111.12010000000026,
                    "velocity": 0.5354330708661418,
                    "duration": 0.12211000000000638
                },
                {
                    "name": "C6",
                    "midi": 84,
                    "time": 111.24221000000027,
                    "velocity": 0.5039370078740157,
                    "duration": 0.12211000000000638
                },
                {
                    "name": "C6",
                    "midi": 84,
                    "time": 111.60854000000027,
                    "velocity": 0.4251968503937008,
                    "duration": 0.12211000000000638
                },
                {
                    "name": "F6",
                    "midi": 89,
                    "time": 111.73065000000028,
                    "velocity": 0.4015748031496063,
                    "duration": 0.12211000000000638
                },
                {
                    "name": "C6",
                    "midi": 84,
                    "time": 112.09698000000029,
                    "velocity": 0.4251968503937008,
                    "duration": 0.12211000000000638
                },
                {
                    "name": "D#6",
                    "midi": 87,
                    "time": 112.21909000000029,
                    "velocity": 0.41732283464566927,
                    "duration": 0.12211000000000638
                },
                {
                    "name": "G#5",
                    "midi": 80,
                    "time": 112.5854200000003,
                    "velocity": 0.4251968503937008,
                    "duration": 0.12211000000000638
                },
                {
                    "name": "D6",
                    "midi": 86,
                    "time": 112.7075300000003,
                    "velocity": 0.4015748031496063,
                    "duration": 0.12211000000000638
                },
                {
                    "name": "G#5",
                    "midi": 80,
                    "time": 113.07386000000031,
                    "velocity": 0.4251968503937008,
                    "duration": 0.12211000000000638
                },
                {
                    "name": "C6",
                    "midi": 84,
                    "time": 113.19597000000032,
                    "velocity": 0.4015748031496063,
                    "duration": 0.12211000000000638
                },
                {
                    "name": "G5",
                    "midi": 79,
                    "time": 113.56230000000032,
                    "velocity": 0.4251968503937008,
                    "duration": 0.12211000000000638
                },
                {
                    "name": "D6",
                    "midi": 86,
                    "time": 113.68441000000033,
                    "velocity": 0.4015748031496063,
                    "duration": 0.12211000000000638
                },
                {
                    "name": "G5",
                    "midi": 79,
                    "time": 114.05074000000033,
                    "velocity": 0.4251968503937008,
                    "duration": 0.12211000000000638
                },
                {
                    "name": "C6",
                    "midi": 84,
                    "time": 114.17285000000034,
                    "velocity": 0.41732283464566927,
                    "duration": 0.12211000000000638
                },
                {
                    "name": "E5",
                    "midi": 76,
                    "time": 114.53918000000034,
                    "velocity": 0.4251968503937008,
                    "duration": 0.12211000000000638
                },
                {
                    "name": "B5",
                    "midi": 83,
                    "time": 114.66129000000035,
                    "velocity": 0.4015748031496063,
                    "duration": 0.12211000000000638
                },
                {
                    "name": "E5",
                    "midi": 76,
                    "time": 115.02762000000035,
                    "velocity": 0.4251968503937008,
                    "duration": 0.12211000000000638
                },
                {
                    "name": "A5",
                    "midi": 81,
                    "time": 115.14973000000036,
                    "velocity": 0.4015748031496063,
                    "duration": 0.12211000000000638
                },
                {
                    "name": "C5",
                    "midi": 72,
                    "time": 115.51606000000037,
                    "velocity": 0.41732283464566927,
                    "duration": 0.12211000000000638
                },
                {
                    "name": "G5",
                    "midi": 79,
                    "time": 115.63817000000037,
                    "velocity": 0.3858267716535433,
                    "duration": 0.12211000000000638
                },
                {
                    "name": "C5",
                    "midi": 72,
                    "time": 116.00450000000038,
                    "velocity": 0.4015748031496063,
                    "duration": 0.12211000000000638
                },
                {
                    "name": "F5",
                    "midi": 77,
                    "time": 116.12661000000038,
                    "velocity": 0.3858267716535433,
                    "duration": 0.12211000000000638
                },
                {
                    "name": "G#4",
                    "midi": 68,
                    "time": 116.49294000000039,
                    "velocity": 0.3779527559055118,
                    "duration": 0.12211000000000638
                },
                {
                    "name": "E5",
                    "midi": 76,
                    "time": 116.6150500000004,
                    "velocity": 0.3543307086614173,
                    "duration": 0.12211000000000638
                },
                {
                    "name": "G#4",
                    "midi": 68,
                    "time": 116.9813800000004,
                    "velocity": 0.36220472440944884,
                    "duration": 0.12211000000000638
                },
                {
                    "name": "D5",
                    "midi": 74,
                    "time": 117.1034900000004,
                    "velocity": 0.33858267716535434,
                    "duration": 0.12211000000000638
                },
                {
                    "name": "G4",
                    "midi": 67,
                    "time": 117.46982000000041,
                    "velocity": 0.3779527559055118,
                    "duration": 0.12211000000000638
                },
                {
                    "name": "D5",
                    "midi": 74,
                    "time": 117.59193000000042,
                    "velocity": 0.3543307086614173,
                    "duration": 0.12211000000000638
                },
                {
                    "name": "G4",
                    "midi": 67,
                    "time": 117.95826000000042,
                    "velocity": 0.48031496062992124,
                    "duration": 0.12211000000000638
                },
                {
                    "name": "C5",
                    "midi": 72,
                    "time": 118.08037000000043,
                    "velocity": 0.47244094488188976,
                    "duration": 0.12211000000000638
                },
                {
                    "name": "G4",
                    "midi": 67,
                    "time": 118.44670000000043,
                    "velocity": 0.48031496062992124,
                    "duration": 0.12211000000000638
                },
                {
                    "name": "D5",
                    "midi": 74,
                    "time": 118.56881000000044,
                    "velocity": 0.44881889763779526,
                    "duration": 0.12211000000000638
                },
                {
                    "name": "G4",
                    "midi": 67,
                    "time": 118.93514000000044,
                    "velocity": 0.48031496062992124,
                    "duration": 0.12211000000000638
                },
                {
                    "name": "C5",
                    "midi": 72,
                    "time": 119.05725000000045,
                    "velocity": 0.44881889763779526,
                    "duration": 0.12211000000000638
                },
                {
                    "name": "C5",
                    "midi": 72,
                    "time": 119.42358000000046,
                    "velocity": 0.48031496062992124,
                    "duration": 0.12211000000000638
                },
                {
                    "name": "F5",
                    "midi": 77,
                    "time": 119.5406020833338,
                    "velocity": 0.47244094488188976,
                    "duration": 0.12211000000000638
                },
                {
                    "name": "C5",
                    "midi": 72,
                    "time": 119.91202000000047,
                    "velocity": 0.48031496062992124,
                    "duration": 0.12211000000000638
                },
                {
                    "name": "D#5",
                    "midi": 75,
                    "time": 120.03413000000047,
                    "velocity": 0.47244094488188976,
                    "duration": 0.12211000000000638
                },
                {
                    "name": "G#4",
                    "midi": 68,
                    "time": 120.40046000000048,
                    "velocity": 0.48031496062992124,
                    "duration": 0.12211000000000638
                },
                {
                    "name": "D5",
                    "midi": 74,
                    "time": 120.52257000000048,
                    "velocity": 0.44881889763779526,
                    "duration": 0.12211000000000638
                },
                {
                    "name": "G#4",
                    "midi": 68,
                    "time": 120.88890000000049,
                    "velocity": 0.48031496062992124,
                    "duration": 0.12211000000000638
                },
                {
                    "name": "C5",
                    "midi": 72,
                    "time": 121.0110100000005,
                    "velocity": 0.44881889763779526,
                    "duration": 0.12211000000000638
                },
                {
                    "name": "G4",
                    "midi": 67,
                    "time": 121.3773400000005,
                    "velocity": 0.48031496062992124,
                    "duration": 0.12211000000000638
                },
                {
                    "name": "D5",
                    "midi": 74,
                    "time": 121.49945000000051,
                    "velocity": 0.47244094488188976,
                    "duration": 0.12211000000000638
                },
                {
                    "name": "G4",
                    "midi": 67,
                    "time": 121.86578000000051,
                    "velocity": 0.48031496062992124,
                    "duration": 0.12211000000000638
                },
                {
                    "name": "C5",
                    "midi": 72,
                    "time": 121.98789000000052,
                    "velocity": 0.47244094488188976,
                    "duration": 0.12211000000000638
                },
                {
                    "name": "E4",
                    "midi": 64,
                    "time": 122.3470969166672,
                    "velocity": 0.48031496062992124,
                    "duration": 0.12211000000000638
                },
                {
                    "name": "B4",
                    "midi": 71,
                    "time": 122.47633000000054,
                    "velocity": 0.44881889763779526,
                    "duration": 0.12211000000000638
                },
                {
                    "name": "E4",
                    "midi": 64,
                    "time": 122.83553691666722,
                    "velocity": 0.48031496062992124,
                    "duration": 0.12211000000000638
                },
                {
                    "name": "A4",
                    "midi": 69,
                    "time": 122.96477000000057,
                    "velocity": 0.44881889763779526,
                    "duration": 0.12211000000000638
                },
                {
                    "name": "C4",
                    "midi": 60,
                    "time": 123.33110000000057,
                    "velocity": 0.4409448818897638,
                    "duration": 0.12211000000000638
                },
                {
                    "name": "G4",
                    "midi": 67,
                    "time": 123.45321000000058,
                    "velocity": 0.4330708661417323,
                    "duration": 0.12211000000000638
                },
                {
                    "name": "C4",
                    "midi": 60,
                    "time": 123.81954000000059,
                    "velocity": 0.41732283464566927,
                    "duration": 0.12211000000000638
                },
                {
                    "name": "F4",
                    "midi": 65,
                    "time": 123.94165000000059,
                    "velocity": 0.4094488188976378,
                    "duration": 0.12211000000000638
                },
                {
                    "name": "G#3",
                    "midi": 56,
                    "time": 124.3079800000006,
                    "velocity": 0.3937007874015748,
                    "duration": 0.12211000000000638
                },
                {
                    "name": "E4",
                    "midi": 64,
                    "time": 124.4300900000006,
                    "velocity": 0.36220472440944884,
                    "duration": 0.12211000000000638
                },
                {
                    "name": "G#3",
                    "midi": 56,
                    "time": 124.79642000000061,
                    "velocity": 0.3700787401574803,
                    "duration": 0.12211000000000638
                },
                {
                    "name": "D4",
                    "midi": 62,
                    "time": 124.91853000000062,
                    "velocity": 0.33858267716535434,
                    "duration": 0.12211000000000638
                },
                {
                    "name": "E3",
                    "midi": 52,
                    "time": 125.16275000000063,
                    "velocity": 0.4645669291338583,
                    "duration": 0.12211000000000638
                },
                {
                    "name": "G3",
                    "midi": 55,
                    "time": 125.28486000000063,
                    "velocity": 0.4409448818897638,
                    "duration": 0.12211000000000638
                },
                {
                    "name": "D4",
                    "midi": 62,
                    "time": 125.40697000000064,
                    "velocity": 0.4015748031496063,
                    "duration": 0.12211000000000638
                },
                {
                    "name": "E3",
                    "midi": 52,
                    "time": 125.65119000000065,
                    "velocity": 0.3779527559055118,
                    "duration": 0.12211000000000638
                },
                {
                    "name": "G3",
                    "midi": 55,
                    "time": 125.77330000000066,
                    "velocity": 0.41732283464566927,
                    "duration": 0.12211000000000638
                },
                {
                    "name": "C4",
                    "midi": 60,
                    "time": 125.89541000000067,
                    "velocity": 0.3779527559055118,
                    "duration": 0.12211000000000638
                },
                {
                    "name": "F3",
                    "midi": 53,
                    "time": 126.13963000000068,
                    "velocity": 0.36220472440944884,
                    "duration": 0.12211000000000638
                },
                {
                    "name": "A3",
                    "midi": 57,
                    "time": 126.26174000000069,
                    "velocity": 0.3779527559055118,
                    "duration": 0.12211000000000638
                },
                {
                    "name": "D4",
                    "midi": 62,
                    "time": 126.38385000000069,
                    "velocity": 0.3937007874015748,
                    "duration": 0.12211000000000638
                },
                {
                    "name": "F3",
                    "midi": 53,
                    "time": 126.6280700000007,
                    "velocity": 0.4409448818897638,
                    "duration": 0.12211000000000638
                },
                {
                    "name": "A3",
                    "midi": 57,
                    "time": 126.75018000000071,
                    "velocity": 0.47244094488188976,
                    "duration": 0.12211000000000638
                },
                {
                    "name": "C4",
                    "midi": 60,
                    "time": 126.87229000000072,
                    "velocity": 0.49606299212598426,
                    "duration": 0.12211000000000638
                },
                {
                    "name": "E4",
                    "midi": 64,
                    "time": 127.11651000000073,
                    "velocity": 0.4645669291338583,
                    "duration": 0.12211000000000638
                },
                {
                    "name": "G4",
                    "midi": 67,
                    "time": 127.23862000000074,
                    "velocity": 0.4409448818897638,
                    "duration": 0.12211000000000638
                },
                {
                    "name": "D5",
                    "midi": 74,
                    "time": 127.36073000000074,
                    "velocity": 0.4015748031496063,
                    "duration": 0.12211000000000638
                },
                {
                    "name": "E4",
                    "midi": 64,
                    "time": 127.60495000000076,
                    "velocity": 0.3779527559055118,
                    "duration": 0.12211000000000638
                },
                {
                    "name": "G4",
                    "midi": 67,
                    "time": 127.72706000000076,
                    "velocity": 0.41732283464566927,
                    "duration": 0.12211000000000638
                },
                {
                    "name": "C5",
                    "midi": 72,
                    "time": 127.84917000000077,
                    "velocity": 0.3779527559055118,
                    "duration": 0.12211000000000638
                },
                {
                    "name": "F4",
                    "midi": 65,
                    "time": 128.09339000000077,
                    "velocity": 0.3700787401574803,
                    "duration": 0.12210999999999217
                },
                {
                    "name": "A4",
                    "midi": 69,
                    "time": 128.21550000000076,
                    "velocity": 0.3937007874015748,
                    "duration": 0.12210999999999217
                },
                {
                    "name": "D5",
                    "midi": 74,
                    "time": 128.33761000000075,
                    "velocity": 0.4251968503937008,
                    "duration": 0.12210999999999217
                },
                {
                    "name": "F4",
                    "midi": 65,
                    "time": 128.58183000000074,
                    "velocity": 0.44881889763779526,
                    "duration": 0.12210999999999217
                },
                {
                    "name": "A4",
                    "midi": 69,
                    "time": 128.70394000000073,
                    "velocity": 0.48031496062992124,
                    "duration": 0.12210999999999217
                },
                {
                    "name": "C5",
                    "midi": 72,
                    "time": 128.82605000000072,
                    "velocity": 0.4881889763779528,
                    "duration": 0.12210999999999217
                },
                {
                    "name": "E5",
                    "midi": 76,
                    "time": 129.0702700000007,
                    "velocity": 0.3937007874015748,
                    "duration": 0.12210999999999217
                },
                {
                    "name": "C5",
                    "midi": 72,
                    "time": 129.1923800000007,
                    "velocity": 0.44881889763779526,
                    "duration": 0.12210999999999217
                },
                {
                    "name": "E4",
                    "midi": 64,
                    "time": 129.3144900000007,
                    "velocity": 0.48031496062992124,
                    "duration": 0.12210999999999217
                },
                {
                    "name": "E5",
                    "midi": 76,
                    "time": 129.55871000000067,
                    "velocity": 0.4330708661417323,
                    "duration": 0.12210999999999217
                },
                {
                    "name": "B4",
                    "midi": 71,
                    "time": 129.68082000000067,
                    "velocity": 0.4881889763779528,
                    "duration": 0.24421999999998434
                },
                {
                    "name": "E4",
                    "midi": 64,
                    "time": 129.80293000000066,
                    "velocity": 0.4251968503937008,
                    "duration": 0.12210999999999217
                },
                {
                    "name": "E5",
                    "midi": 76,
                    "time": 130.04715000000064,
                    "velocity": 0.3937007874015748,
                    "duration": 0.12210999999999217
                },
                {
                    "name": "C5",
                    "midi": 72,
                    "time": 130.16926000000063,
                    "velocity": 0.44881889763779526,
                    "duration": 0.12210999999999217
                },
                {
                    "name": "E4",
                    "midi": 64,
                    "time": 130.29137000000063,
                    "velocity": 0.48031496062992124,
                    "duration": 0.12210999999999217
                },
                {
                    "name": "E5",
                    "midi": 76,
                    "time": 130.5355900000006,
                    "velocity": 0.4330708661417323,
                    "duration": 0.12210999999999217
                },
                {
                    "name": "B4",
                    "midi": 71,
                    "time": 130.6577000000006,
                    "velocity": 0.4881889763779528,
                    "duration": 0.24421999999998434
                },
                {
                    "name": "E4",
                    "midi": 64,
                    "time": 130.7798100000006,
                    "velocity": 0.4251968503937008,
                    "duration": 0.12210999999999217
                },
                {
                    "name": "E5",
                    "midi": 76,
                    "time": 131.02403000000058,
                    "velocity": 0.4330708661417323,
                    "duration": 0.12210999999999217
                },
                {
                    "name": "C5",
                    "midi": 72,
                    "time": 131.14614000000057,
                    "velocity": 0.3937007874015748,
                    "duration": 0.12210999999999217
                },
                {
                    "name": "E4",
                    "midi": 64,
                    "time": 131.26825000000056,
                    "velocity": 0.3937007874015748,
                    "duration": 0.12210999999999217
                },
                {
                    "name": "G5",
                    "midi": 79,
                    "time": 131.51247000000055,
                    "velocity": 0.4645669291338583,
                    "duration": 0.12210999999999217
                },
                {
                    "name": "D#5",
                    "midi": 75,
                    "time": 131.63458000000054,
                    "velocity": 0.3937007874015748,
                    "duration": 0.12210999999999217
                },
                {
                    "name": "G4",
                    "midi": 67,
                    "time": 131.75669000000053,
                    "velocity": 0.4330708661417323,
                    "duration": 0.12210999999999217
                },
                {
                    "name": "A#5",
                    "midi": 82,
                    "time": 132.00091000000052,
                    "velocity": 0.48031496062992124,
                    "duration": 0.12210999999999217
                },
                {
                    "name": "F#5",
                    "midi": 78,
                    "time": 132.1230200000005,
                    "velocity": 0.4409448818897638,
                    "duration": 0.12210999999999217
                },
                {
                    "name": "A#4",
                    "midi": 70,
                    "time": 132.2451300000005,
                    "velocity": 0.4330708661417323,
                    "duration": 0.12210999999999217
                },
                {
                    "name": "B5",
                    "midi": 83,
                    "time": 132.48935000000048,
                    "velocity": 0.5039370078740157,
                    "duration": 0.12210999999999217
                },
                {
                    "name": "G5",
                    "midi": 79,
                    "time": 132.61146000000048,
                    "velocity": 0.4330708661417323,
                    "duration": 0.12210999999999217
                },
                {
                    "name": "B4",
                    "midi": 71,
                    "time": 132.73357000000047,
                    "velocity": 0.4330708661417323,
                    "duration": 0.12210999999999217
                },
                {
                    "name": "E5",
                    "midi": 76,
                    "time": 132.97779000000045,
                    "velocity": 0.3937007874015748,
                    "duration": 0.12210999999999217
                },
                {
                    "name": "C5",
                    "midi": 72,
                    "time": 133.09990000000045,
                    "velocity": 0.44881889763779526,
                    "duration": 0.12210999999999217
                },
                {
                    "name": "E4",
                    "midi": 64,
                    "time": 133.22201000000044,
                    "velocity": 0.48031496062992124,
                    "duration": 0.12210999999999217
                },
                {
                    "name": "E5",
                    "midi": 76,
                    "time": 133.46623000000042,
                    "velocity": 0.4330708661417323,
                    "duration": 0.12210999999999217
                },
                {
                    "name": "B4",
                    "midi": 71,
                    "time": 133.58834000000041,
                    "velocity": 0.4881889763779528,
                    "duration": 0.24421999999998434
                },
                {
                    "name": "E4",
                    "midi": 64,
                    "time": 133.7104500000004,
                    "velocity": 0.4251968503937008,
                    "duration": 0.12210999999999217
                },
                {
                    "name": "E5",
                    "midi": 76,
                    "time": 133.9546700000004,
                    "velocity": 0.3937007874015748,
                    "duration": 0.12210999999999217
                },
                {
                    "name": "C5",
                    "midi": 72,
                    "time": 134.07678000000038,
                    "velocity": 0.44881889763779526,
                    "duration": 0.12210999999999217
                },
                {
                    "name": "E4",
                    "midi": 64,
                    "time": 134.19889000000038,
                    "velocity": 0.48031496062992124,
                    "duration": 0.12210999999999217
                },
                {
                    "name": "E5",
                    "midi": 76,
                    "time": 134.44311000000036,
                    "velocity": 0.4330708661417323,
                    "duration": 0.12210999999999217
                },
                {
                    "name": "B4",
                    "midi": 71,
                    "time": 134.56522000000035,
                    "velocity": 0.4881889763779528,
                    "duration": 0.24421999999998434
                },
                {
                    "name": "E4",
                    "midi": 64,
                    "time": 134.68733000000034,
                    "velocity": 0.4251968503937008,
                    "duration": 0.12210999999999217
                },
                {
                    "name": "E5",
                    "midi": 76,
                    "time": 134.93155000000033,
                    "velocity": 0.4330708661417323,
                    "duration": 0.12210999999999217
                },
                {
                    "name": "C5",
                    "midi": 72,
                    "time": 135.05366000000032,
                    "velocity": 0.3937007874015748,
                    "duration": 0.12210999999999217
                },
                {
                    "name": "E4",
                    "midi": 64,
                    "time": 135.1757700000003,
                    "velocity": 0.3937007874015748,
                    "duration": 0.12210999999999217
                },
                {
                    "name": "G5",
                    "midi": 79,
                    "time": 135.4199900000003,
                    "velocity": 0.4645669291338583,
                    "duration": 0.12210999999999217
                },
                {
                    "name": "D#5",
                    "midi": 75,
                    "time": 135.5421000000003,
                    "velocity": 0.3937007874015748,
                    "duration": 0.12210999999999217
                },
                {
                    "name": "G4",
                    "midi": 67,
                    "time": 135.66421000000028,
                    "velocity": 0.4330708661417323,
                    "duration": 0.12210999999999217
                },
                {
                    "name": "A#5",
                    "midi": 82,
                    "time": 135.90843000000027,
                    "velocity": 0.48031496062992124,
                    "duration": 0.12210999999999217
                },
                {
                    "name": "F#5",
                    "midi": 78,
                    "time": 136.03054000000026,
                    "velocity": 0.4409448818897638,
                    "duration": 0.12210999999999217
                },
                {
                    "name": "A#4",
                    "midi": 70,
                    "time": 136.15265000000025,
                    "velocity": 0.4330708661417323,
                    "duration": 0.12210999999999217
                },
                {
                    "name": "B5",
                    "midi": 83,
                    "time": 136.39687000000023,
                    "velocity": 0.5039370078740157,
                    "duration": 0.12210999999999217
                },
                {
                    "name": "G5",
                    "midi": 79,
                    "time": 136.51898000000023,
                    "velocity": 0.4330708661417323,
                    "duration": 0.12210999999999217
                },
                {
                    "name": "B4",
                    "midi": 71,
                    "time": 136.64109000000022,
                    "velocity": 0.4330708661417323,
                    "duration": 0.12210999999999217
                },
                {
                    "name": "E6",
                    "midi": 88,
                    "time": 136.8853100000002,
                    "velocity": 0.5748031496062992,
                    "duration": 0.12210999999999217
                },
                {
                    "name": "C6",
                    "midi": 84,
                    "time": 137.0074200000002,
                    "velocity": 0.4645669291338583,
                    "duration": 0.12210999999999217
                },
                {
                    "name": "E5",
                    "midi": 76,
                    "time": 137.1295300000002,
                    "velocity": 0.4645669291338583,
                    "duration": 0.12210999999999217
                },
                {
                    "name": "E6",
                    "midi": 88,
                    "time": 137.37375000000017,
                    "velocity": 0.5669291338582677,
                    "duration": 0.12210999999999217
                },
                {
                    "name": "C6",
                    "midi": 84,
                    "time": 137.49586000000016,
                    "velocity": 0.47244094488188976,
                    "duration": 0.12210999999999217
                },
                {
                    "name": "E5",
                    "midi": 76,
                    "time": 137.61797000000016,
                    "velocity": 0.47244094488188976,
                    "duration": 0.12210999999999217
                },
                {
                    "name": "E5",
                    "midi": 76,
                    "time": 137.86219000000014,
                    "velocity": 0.5590551181102362,
                    "duration": 0.12210999999999217
                },
                {
                    "name": "C5",
                    "midi": 72,
                    "time": 137.98430000000013,
                    "velocity": 0.4566929133858268,
                    "duration": 0.12210999999999217
                },
                {
                    "name": "E4",
                    "midi": 64,
                    "time": 138.10641000000012,
                    "velocity": 0.4566929133858268,
                    "duration": 0.12210999999999217
                },
                {
                    "name": "E5",
                    "midi": 76,
                    "time": 138.3506300000001,
                    "velocity": 0.5590551181102362,
                    "duration": 0.12210999999999217
                },
                {
                    "name": "C5",
                    "midi": 72,
                    "time": 138.4727400000001,
                    "velocity": 0.4645669291338583,
                    "duration": 0.12210999999999217
                },
                {
                    "name": "E4",
                    "midi": 64,
                    "time": 138.5948500000001,
                    "velocity": 0.4645669291338583,
                    "duration": 0.12210999999999217
                },
                {
                    "name": "E4",
                    "midi": 64,
                    "time": 138.83907000000008,
                    "velocity": 0.5748031496062992,
                    "duration": 0.12210999999999217
                },
                {
                    "name": "C4",
                    "midi": 60,
                    "time": 138.96118000000007,
                    "velocity": 0.47244094488188976,
                    "duration": 0.12210999999999217
                },
                {
                    "name": "E3",
                    "midi": 52,
                    "time": 139.08329000000006,
                    "velocity": 0.47244094488188976,
                    "duration": 0.12210999999999217
                },
                {
                    "name": "E4",
                    "midi": 64,
                    "time": 139.32751000000005,
                    "velocity": 0.5748031496062992,
                    "duration": 0.12210999999999217
                },
                {
                    "name": "C4",
                    "midi": 60,
                    "time": 139.44962000000004,
                    "velocity": 0.48031496062992124,
                    "duration": 0.12210999999999217
                },
                {
                    "name": "E3",
                    "midi": 52,
                    "time": 139.57173000000003,
                    "velocity": 0.48031496062992124,
                    "duration": 0.12210999999999217
                },
                {
                    "name": "E4",
                    "midi": 64,
                    "time": 139.81595000000002,
                    "velocity": 0.5984251968503937,
                    "duration": 0.12210999999999217
                },
                {
                    "name": "C4",
                    "midi": 60,
                    "time": 139.93806,
                    "velocity": 0.4881889763779528,
                    "duration": 0.12210999999999217
                },
                {
                    "name": "E3",
                    "midi": 52,
                    "time": 140.06017,
                    "velocity": 0.4881889763779528,
                    "duration": 0.12210999999999217
                },
                {
                    "name": "E4",
                    "midi": 64,
                    "time": 140.30438999999998,
                    "velocity": 0.5905511811023622,
                    "duration": 0.12210999999999217
                },
                {
                    "name": "C4",
                    "midi": 60,
                    "time": 140.42649999999998,
                    "velocity": 0.49606299212598426,
                    "duration": 0.12210999999999217
                },
                {
                    "name": "E3",
                    "midi": 52,
                    "time": 140.54860999999997,
                    "velocity": 0.49606299212598426,
                    "duration": 0.12210999999999217
                },
                {
                    "name": "E3",
                    "midi": 52,
                    "time": 140.67071999999996,
                    "velocity": 0.6692913385826772,
                    "duration": 2.930640000000011
                },
                {
                    "name": "C3",
                    "midi": 48,
                    "time": 140.67071999999996,
                    "velocity": 0.5669291338582677,
                    "duration": 2.930640000000011
                },
                {
                    "name": "B2",
                    "midi": 47,
                    "time": 143.60135999999997,
                    "velocity": 0.6220472440944882,
                    "duration": 0.9768799999999942
                },
                {
                    "name": "D3",
                    "midi": 50,
                    "time": 143.60135999999997,
                    "velocity": 0.6220472440944882,
                    "duration": 0.9768799999999942
                },
                {
                    "name": "E3",
                    "midi": 52,
                    "time": 144.57823999999997,
                    "velocity": 0.6377952755905512,
                    "duration": 0.24422000000001276
                },
                {
                    "name": "C3",
                    "midi": 48,
                    "time": 144.57823999999997,
                    "velocity": 0.6377952755905512,
                    "duration": 0.24422000000001276
                },
                {
                    "name": "C2",
                    "midi": 36,
                    "time": 146.53199999999998,
                    "velocity": 0.7244094488188977,
                    "duration": 0.24422000000001276
                }
            ],
            "controlChanges": {},
            "id": 1,
            "name": "Piano right",
            "instrumentNumber": 0,
            "instrument": "acoustic grand piano",
            "instrumentFamily": "piano",
            "channelNumber": 0,
            "isPercussion": false
        },
        {
            "startTime": 0,
            "duration": 146.7752024166675,
            "length": 390,
            "notes": [
                {
                    "name": "C2",
                    "midi": 36,
                    "time": 0,
                    "velocity": 0.2204724409448819,
                    "duration": 0.061055000000000005
                },
                {
                    "name": "C3",
                    "midi": 48,
                    "time": 0.061055000000000005,
                    "velocity": 0.2204724409448819,
                    "duration": 4.334905
                },
                {
                    "name": "C4",
                    "midi": 60,
                    "time": 4.39596,
                    "velocity": 0.2755905511811024,
                    "duration": 1.953759999999999
                },
                {
                    "name": "B3",
                    "midi": 59,
                    "time": 4.884399999999999,
                    "velocity": 0.2283464566929134,
                    "duration": 0.48843999999999976
                },
                {
                    "name": "A3",
                    "midi": 57,
                    "time": 5.372839999999999,
                    "velocity": 0.2283464566929134,
                    "duration": 0.48843999999999976
                },
                {
                    "name": "B3",
                    "midi": 59,
                    "time": 5.861279999999999,
                    "velocity": 0.2283464566929134,
                    "duration": 0.48843999999999976
                },
                {
                    "name": "C4",
                    "midi": 60,
                    "time": 6.349719999999999,
                    "velocity": 0.2204724409448819,
                    "duration": 0.48843999999999976
                },
                {
                    "name": "B3",
                    "midi": 59,
                    "time": 6.8381599999999985,
                    "velocity": 0.2204724409448819,
                    "duration": 0.48843999999999976
                },
                {
                    "name": "A3",
                    "midi": 57,
                    "time": 7.326599999999998,
                    "velocity": 0.2204724409448819,
                    "duration": 0.48843999999999976
                },
                {
                    "name": "G3",
                    "midi": 55,
                    "time": 7.815039999999998,
                    "velocity": 0.2283464566929134,
                    "duration": 0.48844000000000065
                },
                {
                    "name": "F3",
                    "midi": 53,
                    "time": 8.303479999999999,
                    "velocity": 0.2125984251968504,
                    "duration": 0.48844000000000065
                },
                {
                    "name": "E3",
                    "midi": 52,
                    "time": 8.79192,
                    "velocity": 0.2125984251968504,
                    "duration": 0.48844000000000065
                },
                {
                    "name": "A3",
                    "midi": 57,
                    "time": 9.28036,
                    "velocity": 0.2125984251968504,
                    "duration": 0.48844000000000065
                },
                {
                    "name": "G3",
                    "midi": 55,
                    "time": 9.7688,
                    "velocity": 0.2283464566929134,
                    "duration": 0.48844000000000065
                },
                {
                    "name": "F3",
                    "midi": 53,
                    "time": 10.257240000000001,
                    "velocity": 0.2125984251968504,
                    "duration": 0.48844000000000065
                },
                {
                    "name": "E3",
                    "midi": 52,
                    "time": 10.745680000000002,
                    "velocity": 0.2125984251968504,
                    "duration": 0.48844000000000065
                },
                {
                    "name": "D3",
                    "midi": 50,
                    "time": 11.234120000000003,
                    "velocity": 0.2125984251968504,
                    "duration": 0.48844000000000065
                },
                {
                    "name": "F2",
                    "midi": 41,
                    "time": 11.722560000000003,
                    "velocity": 0.16535433070866143,
                    "duration": 1.9537599999999884
                },
                {
                    "name": "C3",
                    "midi": 48,
                    "time": 11.844670000000002,
                    "velocity": 0.15748031496062992,
                    "duration": 0.12210999999999927
                },
                {
                    "name": "D3",
                    "midi": 50,
                    "time": 11.966780000000002,
                    "velocity": 0.16535433070866143,
                    "duration": 0.12210999999999927
                },
                {
                    "name": "E3",
                    "midi": 52,
                    "time": 12.088890000000001,
                    "velocity": 0.18110236220472442,
                    "duration": 0.12210999999999927
                },
                {
                    "name": "F3",
                    "midi": 53,
                    "time": 12.211,
                    "velocity": 0.2204724409448819,
                    "duration": 0.12210999999999927
                },
                {
                    "name": "A3",
                    "midi": 57,
                    "time": 12.33311,
                    "velocity": 0.2440944881889764,
                    "duration": 0.12210999999999927
                },
                {
                    "name": "C4",
                    "midi": 60,
                    "time": 12.455219999999999,
                    "velocity": 0.2677165354330709,
                    "duration": 0.12210999999999927
                },
                {
                    "name": "D4",
                    "midi": 62,
                    "time": 12.577329999999998,
                    "velocity": 0.28346456692913385,
                    "duration": 0.12210999999999927
                },
                {
                    "name": "E4",
                    "midi": 64,
                    "time": 12.699439999999997,
                    "velocity": 0.3228346456692913,
                    "duration": 0.12210999999999927
                },
                {
                    "name": "D4",
                    "midi": 62,
                    "time": 12.821549999999997,
                    "velocity": 0.3228346456692913,
                    "duration": 0.12210999999999927
                },
                {
                    "name": "C4",
                    "midi": 60,
                    "time": 12.943659999999996,
                    "velocity": 0.2992125984251969,
                    "duration": 0.12210999999999927
                },
                {
                    "name": "A3",
                    "midi": 57,
                    "time": 13.065769999999995,
                    "velocity": 0.2755905511811024,
                    "duration": 0.12210999999999927
                },
                {
                    "name": "F3",
                    "midi": 53,
                    "time": 13.187879999999994,
                    "velocity": 0.25196850393700787,
                    "duration": 0.12210999999999927
                },
                {
                    "name": "E3",
                    "midi": 52,
                    "time": 13.309989999999994,
                    "velocity": 0.23622047244094488,
                    "duration": 0.12210999999999927
                },
                {
                    "name": "D3",
                    "midi": 50,
                    "time": 13.432099999999993,
                    "velocity": 0.2047244094488189,
                    "duration": 0.12210999999999927
                },
                {
                    "name": "C3",
                    "midi": 48,
                    "time": 13.554209999999992,
                    "velocity": 0.1889763779527559,
                    "duration": 0.12210999999999927
                },
                {
                    "name": "F2",
                    "midi": 41,
                    "time": 13.676319999999992,
                    "velocity": 0.16535433070866143,
                    "duration": 1.9537599999999884
                },
                {
                    "name": "C3",
                    "midi": 48,
                    "time": 13.79842999999999,
                    "velocity": 0.16535433070866143,
                    "duration": 0.12210999999999927
                },
                {
                    "name": "D3",
                    "midi": 50,
                    "time": 13.92053999999999,
                    "velocity": 0.1732283464566929,
                    "duration": 0.12210999999999927
                },
                {
                    "name": "E3",
                    "midi": 52,
                    "time": 14.04264999999999,
                    "velocity": 0.1968503937007874,
                    "duration": 0.12210999999999927
                },
                {
                    "name": "F3",
                    "midi": 53,
                    "time": 14.164759999999989,
                    "velocity": 0.23622047244094488,
                    "duration": 0.12210999999999927
                },
                {
                    "name": "A3",
                    "midi": 57,
                    "time": 14.286869999999988,
                    "velocity": 0.2677165354330709,
                    "duration": 0.12210999999999927
                },
                {
                    "name": "C4",
                    "midi": 60,
                    "time": 14.408979999999987,
                    "velocity": 0.2992125984251969,
                    "duration": 0.12210999999999927
                },
                {
                    "name": "D4",
                    "midi": 62,
                    "time": 14.531089999999987,
                    "velocity": 0.33070866141732286,
                    "duration": 0.12210999999999927
                },
                {
                    "name": "E4",
                    "midi": 64,
                    "time": 14.653199999999986,
                    "velocity": 0.3779527559055118,
                    "duration": 0.12210999999999927
                },
                {
                    "name": "D4",
                    "midi": 62,
                    "time": 14.775309999999985,
                    "velocity": 0.3228346456692913,
                    "duration": 0.12210999999999927
                },
                {
                    "name": "C4",
                    "midi": 60,
                    "time": 14.897419999999984,
                    "velocity": 0.2992125984251969,
                    "duration": 0.12210999999999927
                },
                {
                    "name": "B3",
                    "midi": 59,
                    "time": 15.019529999999984,
                    "velocity": 0.2755905511811024,
                    "duration": 0.12210999999999927
                },
                {
                    "name": "A3",
                    "midi": 57,
                    "time": 15.141639999999983,
                    "velocity": 0.25196850393700787,
                    "duration": 0.12210999999999927
                },
                {
                    "name": "E3",
                    "midi": 52,
                    "time": 15.263749999999982,
                    "velocity": 0.23622047244094488,
                    "duration": 0.12210999999999927
                },
                {
                    "name": "D3",
                    "midi": 50,
                    "time": 15.385859999999981,
                    "velocity": 0.2047244094488189,
                    "duration": 0.12210999999999927
                },
                {
                    "name": "C3",
                    "midi": 48,
                    "time": 15.50796999999998,
                    "velocity": 0.1889763779527559,
                    "duration": 0.12210999999999927
                },
                {
                    "name": "F2",
                    "midi": 41,
                    "time": 15.63007999999998,
                    "velocity": 0.16535433070866143,
                    "duration": 1.9537599999999902
                },
                {
                    "name": "C3",
                    "midi": 48,
                    "time": 15.75218999999998,
                    "velocity": 0.16535433070866143,
                    "duration": 0.12210999999999927
                },
                {
                    "name": "D3",
                    "midi": 50,
                    "time": 15.874299999999979,
                    "velocity": 0.1732283464566929,
                    "duration": 0.12210999999999927
                },
                {
                    "name": "E3",
                    "midi": 52,
                    "time": 15.996409999999978,
                    "velocity": 0.1968503937007874,
                    "duration": 0.12211000000000105
                },
                {
                    "name": "F3",
                    "midi": 53,
                    "time": 16.11851999999998,
                    "velocity": 0.23622047244094488,
                    "duration": 0.12210999999999927
                },
                {
                    "name": "G#3",
                    "midi": 56,
                    "time": 16.240629999999978,
                    "velocity": 0.2677165354330709,
                    "duration": 0.12210999999999927
                },
                {
                    "name": "C4",
                    "midi": 60,
                    "time": 16.362739999999977,
                    "velocity": 0.30708661417322836,
                    "duration": 0.12210999999999927
                },
                {
                    "name": "D4",
                    "midi": 62,
                    "time": 16.484849999999977,
                    "velocity": 0.33070866141732286,
                    "duration": 0.12210999999999927
                },
                {
                    "name": "E4",
                    "midi": 64,
                    "time": 16.606959999999976,
                    "velocity": 0.3779527559055118,
                    "duration": 0.12210999999999927
                },
                {
                    "name": "D4",
                    "midi": 62,
                    "time": 16.729069999999975,
                    "velocity": 0.33070866141732286,
                    "duration": 0.12210999999999927
                },
                {
                    "name": "C4",
                    "midi": 60,
                    "time": 16.851179999999975,
                    "velocity": 0.31496062992125984,
                    "duration": 0.12210999999999927
                },
                {
                    "name": "G#3",
                    "midi": 56,
                    "time": 16.973289999999974,
                    "velocity": 0.28346456692913385,
                    "duration": 0.12210999999999927
                },
                {
                    "name": "F3",
                    "midi": 53,
                    "time": 17.095399999999973,
                    "velocity": 0.25984251968503935,
                    "duration": 0.12210999999999927
                },
                {
                    "name": "E3",
                    "midi": 52,
                    "time": 17.217509999999972,
                    "velocity": 0.23622047244094488,
                    "duration": 0.12210999999999927
                },
                {
                    "name": "D3",
                    "midi": 50,
                    "time": 17.33961999999997,
                    "velocity": 0.2047244094488189,
                    "duration": 0.12210999999999927
                },
                {
                    "name": "C3",
                    "midi": 48,
                    "time": 17.46172999999997,
                    "velocity": 0.1889763779527559,
                    "duration": 0.12210999999999927
                },
                {
                    "name": "F2",
                    "midi": 41,
                    "time": 17.58383999999997,
                    "velocity": 0.16535433070866143,
                    "duration": 1.9537599999999884
                },
                {
                    "name": "C3",
                    "midi": 48,
                    "time": 17.70594999999997,
                    "velocity": 0.16535433070866143,
                    "duration": 0.12210999999999927
                },
                {
                    "name": "D3",
                    "midi": 50,
                    "time": 17.82805999999997,
                    "velocity": 0.1732283464566929,
                    "duration": 0.12210999999999927
                },
                {
                    "name": "E3",
                    "midi": 52,
                    "time": 17.950169999999968,
                    "velocity": 0.1968503937007874,
                    "duration": 0.12210999999999927
                },
                {
                    "name": "F3",
                    "midi": 53,
                    "time": 18.072279999999967,
                    "velocity": 0.2440944881889764,
                    "duration": 0.12210999999999927
                },
                {
                    "name": "G#3",
                    "midi": 56,
                    "time": 18.194389999999967,
                    "velocity": 0.2755905511811024,
                    "duration": 0.12210999999999927
                },
                {
                    "name": "C4",
                    "midi": 60,
                    "time": 18.316499999999966,
                    "velocity": 0.30708661417322836,
                    "duration": 0.12210999999999927
                },
                {
                    "name": "D4",
                    "midi": 62,
                    "time": 18.438609999999965,
                    "velocity": 0.33070866141732286,
                    "duration": 0.12210999999999927
                },
                {
                    "name": "E4",
                    "midi": 64,
                    "time": 18.560719999999964,
                    "velocity": 0.3779527559055118,
                    "duration": 0.12210999999999927
                },
                {
                    "name": "D4",
                    "midi": 62,
                    "time": 18.682829999999964,
                    "velocity": 0.3228346456692913,
                    "duration": 0.12210999999999927
                },
                {
                    "name": "C4",
                    "midi": 60,
                    "time": 18.804939999999963,
                    "velocity": 0.31496062992125984,
                    "duration": 0.12210999999999927
                },
                {
                    "name": "A#3",
                    "midi": 58,
                    "time": 18.927049999999962,
                    "velocity": 0.2755905511811024,
                    "duration": 0.12210999999999927
                },
                {
                    "name": "G#3",
                    "midi": 56,
                    "time": 19.04915999999996,
                    "velocity": 0.25984251968503935,
                    "duration": 0.12210999999999927
                },
                {
                    "name": "E3",
                    "midi": 52,
                    "time": 19.17126999999996,
                    "velocity": 0.23622047244094488,
                    "duration": 0.12210999999999927
                },
                {
                    "name": "D3",
                    "midi": 50,
                    "time": 19.29337999999996,
                    "velocity": 0.2047244094488189,
                    "duration": 0.12210999999999927
                },
                {
                    "name": "C3",
                    "midi": 48,
                    "time": 19.41548999999996,
                    "velocity": 0.1889763779527559,
                    "duration": 0.12210999999999927
                },
                {
                    "name": "E2",
                    "midi": 40,
                    "time": 19.53759999999996,
                    "velocity": 0.2204724409448819,
                    "duration": 0.12210999999999927
                },
                {
                    "name": "B2",
                    "midi": 47,
                    "time": 19.659709999999958,
                    "velocity": 0.18110236220472442,
                    "duration": 0.12210999999999927
                },
                {
                    "name": "B2",
                    "midi": 47,
                    "time": 20.026039999999956,
                    "velocity": 0.2755905511811024,
                    "duration": 0.12210999999999927
                },
                {
                    "name": "E3",
                    "midi": 52,
                    "time": 20.148149999999955,
                    "velocity": 0.23622047244094488,
                    "duration": 0.12210999999999927
                },
                {
                    "name": "E3",
                    "midi": 52,
                    "time": 20.514479999999953,
                    "velocity": 0.33070866141732286,
                    "duration": 0.12210999999999927
                },
                {
                    "name": "G#3",
                    "midi": 56,
                    "time": 20.636589999999952,
                    "velocity": 0.30708661417322836,
                    "duration": 0.12210999999999927
                },
                {
                    "name": "G#3",
                    "midi": 56,
                    "time": 21.00291999999995,
                    "velocity": 0.3858267716535433,
                    "duration": 0.12210999999999927
                },
                {
                    "name": "B3",
                    "midi": 59,
                    "time": 21.12502999999995,
                    "velocity": 0.31496062992125984,
                    "duration": 0.12210999999999927
                },
                {
                    "name": "E4",
                    "midi": 64,
                    "time": 21.491359999999947,
                    "velocity": 0.48031496062992124,
                    "duration": 1.953759999999999
                },
                {
                    "name": "E4",
                    "midi": 64,
                    "time": 23.445119999999946,
                    "velocity": 0.25196850393700787,
                    "duration": 0.09158250000000123
                },
                {
                    "name": "E4",
                    "midi": 64,
                    "time": 23.933559999999947,
                    "velocity": 0.2677165354330709,
                    "duration": 0.09158250000000123
                },
                {
                    "name": "E4",
                    "midi": 64,
                    "time": 24.421999999999947,
                    "velocity": 0.2677165354330709,
                    "duration": 0.09158250000000123
                },
                {
                    "name": "E4",
                    "midi": 64,
                    "time": 24.910439999999948,
                    "velocity": 0.2440944881889764,
                    "duration": 0.09158250000000123
                },
                {
                    "name": "G4",
                    "midi": 67,
                    "time": 25.39887999999995,
                    "velocity": 0.41732283464566927,
                    "duration": 0.09158250000000123
                },
                {
                    "name": "E4",
                    "midi": 64,
                    "time": 25.88731999999995,
                    "velocity": 0.29133858267716534,
                    "duration": 0.09158250000000123
                },
                {
                    "name": "C4",
                    "midi": 60,
                    "time": 26.37575999999995,
                    "velocity": 0.25984251968503935,
                    "duration": 0.09158250000000123
                },
                {
                    "name": "A3",
                    "midi": 57,
                    "time": 26.86419999999995,
                    "velocity": 0.23622047244094488,
                    "duration": 0.09158250000000123
                },
                {
                    "name": "E4",
                    "midi": 64,
                    "time": 27.35263999999995,
                    "velocity": 0.25196850393700787,
                    "duration": 0.09158250000000123
                },
                {
                    "name": "E4",
                    "midi": 64,
                    "time": 27.841079999999952,
                    "velocity": 0.2677165354330709,
                    "duration": 0.09158250000000123
                },
                {
                    "name": "E4",
                    "midi": 64,
                    "time": 28.329519999999953,
                    "velocity": 0.2677165354330709,
                    "duration": 0.09158250000000123
                },
                {
                    "name": "E4",
                    "midi": 64,
                    "time": 28.817959999999953,
                    "velocity": 0.2440944881889764,
                    "duration": 0.09158250000000123
                },
                {
                    "name": "G4",
                    "midi": 67,
                    "time": 29.306399999999954,
                    "velocity": 0.3779527559055118,
                    "duration": 0.09158250000000123
                },
                {
                    "name": "E4",
                    "midi": 64,
                    "time": 29.794839999999954,
                    "velocity": 0.29133858267716534,
                    "duration": 0.09158250000000123
                },
                {
                    "name": "C4",
                    "midi": 60,
                    "time": 30.283279999999955,
                    "velocity": 0.25984251968503935,
                    "duration": 0.09158250000000123
                },
                {
                    "name": "A3",
                    "midi": 57,
                    "time": 30.771719999999956,
                    "velocity": 0.23622047244094488,
                    "duration": 0.09158250000000123
                },
                {
                    "name": "F3",
                    "midi": 53,
                    "time": 31.260159999999956,
                    "velocity": 0.25196850393700787,
                    "duration": 0.09158250000000123
                },
                {
                    "name": "G3",
                    "midi": 55,
                    "time": 31.748599999999957,
                    "velocity": 0.36220472440944884,
                    "duration": 0.09158250000000123
                },
                {
                    "name": "F3",
                    "midi": 53,
                    "time": 32.23703999999996,
                    "velocity": 0.25196850393700787,
                    "duration": 0.09158250000000123
                },
                {
                    "name": "G3",
                    "midi": 55,
                    "time": 32.72547999999996,
                    "velocity": 0.36220472440944884,
                    "duration": 0.09158250000000123
                },
                {
                    "name": "F3",
                    "midi": 53,
                    "time": 33.213919999999966,
                    "velocity": 0.25196850393700787,
                    "duration": 0.09158250000000123
                },
                {
                    "name": "F3",
                    "midi": 53,
                    "time": 33.70235999999997,
                    "velocity": 0.2677165354330709,
                    "duration": 0.09158250000000123
                },
                {
                    "name": "F3",
                    "midi": 53,
                    "time": 34.190799999999975,
                    "velocity": 0.25196850393700787,
                    "duration": 0.09158250000000123
                },
                {
                    "name": "F3",
                    "midi": 53,
                    "time": 34.67923999999998,
                    "velocity": 0.2677165354330709,
                    "duration": 0.09158250000000123
                },
                {
                    "name": "E3",
                    "midi": 52,
                    "time": 35.16767999999998,
                    "velocity": 0.25196850393700787,
                    "duration": 0.09158250000000123
                },
                {
                    "name": "G3",
                    "midi": 55,
                    "time": 35.65611999999999,
                    "velocity": 0.36220472440944884,
                    "duration": 0.09158250000000123
                },
                {
                    "name": "E3",
                    "midi": 52,
                    "time": 36.14455999999999,
                    "velocity": 0.25196850393700787,
                    "duration": 0.09158250000000123
                },
                {
                    "name": "G3",
                    "midi": 55,
                    "time": 36.632999999999996,
                    "velocity": 0.36220472440944884,
                    "duration": 0.09158250000000123
                },
                {
                    "name": "E3",
                    "midi": 52,
                    "time": 37.12144,
                    "velocity": 0.25196850393700787,
                    "duration": 0.09158250000000123
                },
                {
                    "name": "E3",
                    "midi": 52,
                    "time": 37.609880000000004,
                    "velocity": 0.2677165354330709,
                    "duration": 0.09158250000000123
                },
                {
                    "name": "E3",
                    "midi": 52,
                    "time": 38.09832000000001,
                    "velocity": 0.25196850393700787,
                    "duration": 0.09158250000000123
                },
                {
                    "name": "E3",
                    "midi": 52,
                    "time": 38.58676000000001,
                    "velocity": 0.2677165354330709,
                    "duration": 0.09158250000000123
                },
                {
                    "name": "E3",
                    "midi": 52,
                    "time": 39.07520000000002,
                    "velocity": 0.2204724409448819,
                    "duration": 0.09158250000000123
                },
                {
                    "name": "E3",
                    "midi": 52,
                    "time": 39.56364000000002,
                    "velocity": 0.2204724409448819,
                    "duration": 0.09158250000000123
                },
                {
                    "name": "E3",
                    "midi": 52,
                    "time": 40.052080000000025,
                    "velocity": 0.1968503937007874,
                    "duration": 0.09158250000000123
                },
                {
                    "name": "E3",
                    "midi": 52,
                    "time": 40.54052000000003,
                    "velocity": 0.1968503937007874,
                    "duration": 0.09158250000000123
                },
                {
                    "name": "C2",
                    "midi": 36,
                    "time": 41.02896000000003,
                    "velocity": 0.18110236220472442,
                    "duration": 0.06105500000000319
                },
                {
                    "name": "C3",
                    "midi": 48,
                    "time": 41.09001500000004,
                    "velocity": 0.23622047244094488,
                    "duration": 2.3811450000000036
                },
                {
                    "name": "A2",
                    "midi": 45,
                    "time": 43.47116000000004,
                    "velocity": 0.23622047244094488,
                    "duration": 0.4884399999999971
                },
                {
                    "name": "D3",
                    "midi": 50,
                    "time": 43.95960000000004,
                    "velocity": 0.23622047244094488,
                    "duration": 0.4884399999999971
                },
                {
                    "name": "B2",
                    "midi": 47,
                    "time": 44.448040000000034,
                    "velocity": 0.23622047244094488,
                    "duration": 0.4884399999999971
                },
                {
                    "name": "E3",
                    "midi": 52,
                    "time": 44.93648000000003,
                    "velocity": 0.33858267716535434,
                    "duration": 1.9537600000000026
                },
                {
                    "name": "C#4",
                    "midi": 61,
                    "time": 45.91336000000003,
                    "velocity": 0.3937007874015748,
                    "duration": 0.09158250000000123
                },
                {
                    "name": "E3",
                    "midi": 52,
                    "time": 46.890240000000034,
                    "velocity": 0.33858267716535434,
                    "duration": 0.9768800000000013
                },
                {
                    "name": "C#4",
                    "midi": 61,
                    "time": 47.867120000000035,
                    "velocity": 0.3937007874015748,
                    "duration": 0.09158250000000123
                },
                {
                    "name": "B3",
                    "midi": 59,
                    "time": 48.84400000000004,
                    "velocity": 0.33858267716535434,
                    "duration": 0.9768800000000013
                },
                {
                    "name": "A#3",
                    "midi": 58,
                    "time": 49.82088000000004,
                    "velocity": 0.3937007874015748,
                    "duration": 0.9768800000000013
                },
                {
                    "name": "A3",
                    "midi": 57,
                    "time": 50.79776000000004,
                    "velocity": 0.33858267716535434,
                    "duration": 1.9537600000000026
                },
                {
                    "name": "A#3",
                    "midi": 58,
                    "time": 52.75152000000004,
                    "velocity": 0.33858267716535434,
                    "duration": 1.9537600000000026
                },
                {
                    "name": "B3",
                    "midi": 59,
                    "time": 54.705280000000045,
                    "velocity": 0.3858267716535433,
                    "duration": 1.9537600000000026
                },
                {
                    "name": "C4",
                    "midi": 60,
                    "time": 56.65904000000005,
                    "velocity": 0.4566929133858268,
                    "duration": 1.9537600000000026
                },
                {
                    "name": "F3",
                    "midi": 53,
                    "time": 60.07812000000005,
                    "velocity": 0.29133858267716534,
                    "duration": 0.12210999999999927
                },
                {
                    "name": "E3",
                    "midi": 52,
                    "time": 60.20023000000005,
                    "velocity": 0.2677165354330709,
                    "duration": 0.12210999999999927
                },
                {
                    "name": "D3",
                    "midi": 50,
                    "time": 60.32234000000005,
                    "velocity": 0.2677165354330709,
                    "duration": 0.12210999999999927
                },
                {
                    "name": "C3",
                    "midi": 48,
                    "time": 60.444450000000046,
                    "velocity": 0.2677165354330709,
                    "duration": 0.12210999999999927
                },
                {
                    "name": "A#2",
                    "midi": 46,
                    "time": 60.566560000000045,
                    "velocity": 0.25984251968503935,
                    "duration": 0.12210999999999927
                },
                {
                    "name": "A2",
                    "midi": 45,
                    "time": 60.688670000000045,
                    "velocity": 0.25984251968503935,
                    "duration": 0.12210999999999927
                },
                {
                    "name": "G2",
                    "midi": 43,
                    "time": 60.810780000000044,
                    "velocity": 0.25984251968503935,
                    "duration": 0.12210999999999927
                },
                {
                    "name": "F2",
                    "midi": 41,
                    "time": 60.93289000000004,
                    "velocity": 0.25984251968503935,
                    "duration": 0.12210999999999927
                },
                {
                    "name": "E2",
                    "midi": 40,
                    "time": 61.05500000000004,
                    "velocity": 0.2440944881889764,
                    "duration": 0.4884399999999971
                },
                {
                    "name": "D2",
                    "midi": 38,
                    "time": 61.54344000000004,
                    "velocity": 0.2755905511811024,
                    "duration": 0.4884399999999971
                },
                {
                    "name": "C2",
                    "midi": 36,
                    "time": 62.03188000000004,
                    "velocity": 0.2283464566929134,
                    "duration": 0.4884399999999971
                },
                {
                    "name": "A#1",
                    "midi": 34,
                    "time": 62.520320000000034,
                    "velocity": 0.2047244094488189,
                    "duration": 3.907519999999984
                },
                {
                    "name": "F3",
                    "midi": 53,
                    "time": 64.71830000000003,
                    "velocity": 0.1968503937007874,
                    "duration": 0.24421999999999855
                },
                {
                    "name": "A#3",
                    "midi": 58,
                    "time": 64.96252000000003,
                    "velocity": 0.1968503937007874,
                    "duration": 0.24421999999999855
                },
                {
                    "name": "D4",
                    "midi": 62,
                    "time": 65.20674000000002,
                    "velocity": 0.2283464566929134,
                    "duration": 0.24421999999999855
                },
                {
                    "name": "A#1",
                    "midi": 34,
                    "time": 66.42784000000002,
                    "velocity": 0.2047244094488189,
                    "duration": 0.9768799999999942
                },
                {
                    "name": "D#2",
                    "midi": 39,
                    "time": 67.40472000000001,
                    "velocity": 0.18110236220472442,
                    "duration": 0.4884399999999971
                },
                {
                    "name": "A#1",
                    "midi": 34,
                    "time": 67.89316000000001,
                    "velocity": 0.2047244094488189,
                    "duration": 0.9768799999999942
                },
                {
                    "name": "D#2",
                    "midi": 39,
                    "time": 68.87004,
                    "velocity": 0.1732283464566929,
                    "duration": 0.9768799999999942
                },
                {
                    "name": "A#1",
                    "midi": 34,
                    "time": 69.84692,
                    "velocity": 0.18110236220472442,
                    "duration": 0.4884399999999971
                },
                {
                    "name": "G#1",
                    "midi": 32,
                    "time": 70.34960616666666,
                    "velocity": 0.2047244094488189,
                    "duration": 3.907519999999991
                },
                {
                    "name": "A#4",
                    "midi": 70,
                    "time": 72.77756,
                    "velocity": 0.3228346456692913,
                    "duration": 0.9768799999999942
                },
                {
                    "name": "F#4",
                    "midi": 66,
                    "time": 72.77756,
                    "velocity": 0.3228346456692913,
                    "duration": 0.9768799999999942
                },
                {
                    "name": "G#4",
                    "midi": 68,
                    "time": 73.75443999999999,
                    "velocity": 0.2755905511811024,
                    "duration": 0.4884399999999971
                },
                {
                    "name": "F4",
                    "midi": 65,
                    "time": 73.75443999999999,
                    "velocity": 0.2755905511811024,
                    "duration": 0.4884399999999971
                },
                {
                    "name": "G#1",
                    "midi": 32,
                    "time": 74.25712616666665,
                    "velocity": 0.2047244094488189,
                    "duration": 3.907519999999977
                },
                {
                    "name": "D#4",
                    "midi": 63,
                    "time": 75.21975999999998,
                    "velocity": 0.3228346456692913,
                    "duration": 0.9768799999999942
                },
                {
                    "name": "F#4",
                    "midi": 66,
                    "time": 75.21975999999998,
                    "velocity": 0.3228346456692913,
                    "duration": 0.9768799999999942
                },
                {
                    "name": "A#4",
                    "midi": 70,
                    "time": 76.68507999999997,
                    "velocity": 0.3228346456692913,
                    "duration": 0.9768799999999942
                },
                {
                    "name": "F#4",
                    "midi": 66,
                    "time": 76.68507999999997,
                    "velocity": 0.3228346456692913,
                    "duration": 0.9768799999999942
                },
                {
                    "name": "G#4",
                    "midi": 68,
                    "time": 77.66195999999997,
                    "velocity": 0.2755905511811024,
                    "duration": 0.4884399999999971
                },
                {
                    "name": "F4",
                    "midi": 65,
                    "time": 77.66195999999997,
                    "velocity": 0.2755905511811024,
                    "duration": 0.4884399999999971
                },
                {
                    "name": "G#1",
                    "midi": 32,
                    "time": 78.16464616666663,
                    "velocity": 0.2047244094488189,
                    "duration": 7.815039999999996
                },
                {
                    "name": "G#4",
                    "midi": 68,
                    "time": 82.05791999999997,
                    "velocity": 0.47244094488188976,
                    "duration": 1.9537600000000026
                },
                {
                    "name": "D#3",
                    "midi": 51,
                    "time": 84.01167999999997,
                    "velocity": 0.2125984251968504,
                    "duration": 0.9768799999999942
                },
                {
                    "name": "G#2",
                    "midi": 44,
                    "time": 84.98855999999996,
                    "velocity": 0.2047244094488189,
                    "duration": 0.9768799999999942
                },
                {
                    "name": "G1",
                    "midi": 31,
                    "time": 85.96543999999996,
                    "velocity": 0.1889763779527559,
                    "duration": 3.907520000000005
                },
                {
                    "name": "G2",
                    "midi": 43,
                    "time": 85.96543999999996,
                    "velocity": 0.2204724409448819,
                    "duration": 4.395960000000002
                },
                {
                    "name": "C2",
                    "midi": 36,
                    "time": 89.87295999999996,
                    "velocity": 0.2204724409448819,
                    "duration": 0.4884399999999971
                },
                {
                    "name": "C4",
                    "midi": 60,
                    "time": 90.36139999999996,
                    "velocity": 0.2755905511811024,
                    "duration": 1.9537599999999884
                },
                {
                    "name": "B3",
                    "midi": 59,
                    "time": 90.84983999999996,
                    "velocity": 0.2283464566929134,
                    "duration": 0.4884399999999971
                },
                {
                    "name": "A3",
                    "midi": 57,
                    "time": 91.33827999999995,
                    "velocity": 0.2283464566929134,
                    "duration": 0.4884399999999971
                },
                {
                    "name": "B3",
                    "midi": 59,
                    "time": 91.82671999999995,
                    "velocity": 0.2283464566929134,
                    "duration": 0.4884399999999971
                },
                {
                    "name": "C4",
                    "midi": 60,
                    "time": 92.31515999999995,
                    "velocity": 0.2204724409448819,
                    "duration": 0.4884399999999971
                },
                {
                    "name": "B3",
                    "midi": 59,
                    "time": 92.80359999999995,
                    "velocity": 0.2204724409448819,
                    "duration": 0.4884399999999971
                },
                {
                    "name": "A3",
                    "midi": 57,
                    "time": 93.29203999999994,
                    "velocity": 0.2204724409448819,
                    "duration": 0.4884399999999971
                },
                {
                    "name": "G3",
                    "midi": 55,
                    "time": 93.78047999999994,
                    "velocity": 0.2283464566929134,
                    "duration": 0.4884399999999971
                },
                {
                    "name": "F3",
                    "midi": 53,
                    "time": 94.26891999999994,
                    "velocity": 0.2125984251968504,
                    "duration": 0.4884399999999971
                },
                {
                    "name": "E3",
                    "midi": 52,
                    "time": 94.75735999999993,
                    "velocity": 0.2125984251968504,
                    "duration": 0.4884399999999971
                },
                {
                    "name": "A3",
                    "midi": 57,
                    "time": 95.24579999999993,
                    "velocity": 0.2125984251968504,
                    "duration": 0.4884399999999971
                },
                {
                    "name": "G3",
                    "midi": 55,
                    "time": 95.73423999999993,
                    "velocity": 0.2283464566929134,
                    "duration": 0.4884399999999971
                },
                {
                    "name": "F3",
                    "midi": 53,
                    "time": 96.22267999999993,
                    "velocity": 0.2125984251968504,
                    "duration": 0.4884399999999971
                },
                {
                    "name": "E3",
                    "midi": 52,
                    "time": 96.71111999999992,
                    "velocity": 0.2125984251968504,
                    "duration": 0.4884399999999971
                },
                {
                    "name": "D3",
                    "midi": 50,
                    "time": 97.19955999999992,
                    "velocity": 0.2125984251968504,
                    "duration": 0.4884399999999971
                },
                {
                    "name": "F2",
                    "midi": 41,
                    "time": 97.68799999999992,
                    "velocity": 0.16535433070866143,
                    "duration": 1.953760000000102
                },
                {
                    "name": "C3",
                    "midi": 48,
                    "time": 97.81010999999992,
                    "velocity": 0.15748031496062992,
                    "duration": 0.12211000000000638
                },
                {
                    "name": "D3",
                    "midi": 50,
                    "time": 97.93221999999993,
                    "velocity": 0.16535433070866143,
                    "duration": 0.12211000000000638
                },
                {
                    "name": "E3",
                    "midi": 52,
                    "time": 98.05432999999994,
                    "velocity": 0.18110236220472442,
                    "duration": 0.12211000000000638
                },
                {
                    "name": "F3",
                    "midi": 53,
                    "time": 98.17643999999994,
                    "velocity": 0.2204724409448819,
                    "duration": 0.12211000000000638
                },
                {
                    "name": "A3",
                    "midi": 57,
                    "time": 98.29854999999995,
                    "velocity": 0.2440944881889764,
                    "duration": 0.12211000000000638
                },
                {
                    "name": "C4",
                    "midi": 60,
                    "time": 98.42065999999996,
                    "velocity": 0.2677165354330709,
                    "duration": 0.12211000000000638
                },
                {
                    "name": "D4",
                    "midi": 62,
                    "time": 98.54276999999996,
                    "velocity": 0.28346456692913385,
                    "duration": 0.12211000000000638
                },
                {
                    "name": "E4",
                    "midi": 64,
                    "time": 98.66487999999997,
                    "velocity": 0.3228346456692913,
                    "duration": 0.12211000000000638
                },
                {
                    "name": "D4",
                    "midi": 62,
                    "time": 98.78698999999997,
                    "velocity": 0.3228346456692913,
                    "duration": 0.12211000000000638
                },
                {
                    "name": "C4",
                    "midi": 60,
                    "time": 98.90909999999998,
                    "velocity": 0.2992125984251969,
                    "duration": 0.12211000000000638
                },
                {
                    "name": "A3",
                    "midi": 57,
                    "time": 99.03120999999999,
                    "velocity": 0.2755905511811024,
                    "duration": 0.12211000000000638
                },
                {
                    "name": "F3",
                    "midi": 53,
                    "time": 99.15332,
                    "velocity": 0.25196850393700787,
                    "duration": 0.12211000000000638
                },
                {
                    "name": "E3",
                    "midi": 52,
                    "time": 99.27543,
                    "velocity": 0.23622047244094488,
                    "duration": 0.12211000000000638
                },
                {
                    "name": "D3",
                    "midi": 50,
                    "time": 99.39754,
                    "velocity": 0.2047244094488189,
                    "duration": 0.12211000000000638
                },
                {
                    "name": "C3",
                    "midi": 48,
                    "time": 99.51965000000001,
                    "velocity": 0.1889763779527559,
                    "duration": 0.12211000000000638
                },
                {
                    "name": "F2",
                    "midi": 41,
                    "time": 99.64176000000002,
                    "velocity": 0.16535433070866143,
                    "duration": 1.953760000000102
                },
                {
                    "name": "C3",
                    "midi": 48,
                    "time": 99.76387000000003,
                    "velocity": 0.16535433070866143,
                    "duration": 0.12211000000000638
                },
                {
                    "name": "D3",
                    "midi": 50,
                    "time": 99.88598000000003,
                    "velocity": 0.1732283464566929,
                    "duration": 0.12211000000000638
                },
                {
                    "name": "E3",
                    "midi": 52,
                    "time": 100.00809000000004,
                    "velocity": 0.1968503937007874,
                    "duration": 0.12211000000000638
                },
                {
                    "name": "F3",
                    "midi": 53,
                    "time": 100.13020000000004,
                    "velocity": 0.23622047244094488,
                    "duration": 0.12211000000000638
                },
                {
                    "name": "A3",
                    "midi": 57,
                    "time": 100.25231000000005,
                    "velocity": 0.2677165354330709,
                    "duration": 0.12211000000000638
                },
                {
                    "name": "C4",
                    "midi": 60,
                    "time": 100.37442000000006,
                    "velocity": 0.2992125984251969,
                    "duration": 0.12211000000000638
                },
                {
                    "name": "D4",
                    "midi": 62,
                    "time": 100.49653000000006,
                    "velocity": 0.33070866141732286,
                    "duration": 0.12211000000000638
                },
                {
                    "name": "E4",
                    "midi": 64,
                    "time": 100.61864000000007,
                    "velocity": 0.3779527559055118,
                    "duration": 0.12211000000000638
                },
                {
                    "name": "D4",
                    "midi": 62,
                    "time": 100.74075000000008,
                    "velocity": 0.3228346456692913,
                    "duration": 0.12211000000000638
                },
                {
                    "name": "C4",
                    "midi": 60,
                    "time": 100.86286000000008,
                    "velocity": 0.2992125984251969,
                    "duration": 0.12211000000000638
                },
                {
                    "name": "B3",
                    "midi": 59,
                    "time": 100.98497000000009,
                    "velocity": 0.2755905511811024,
                    "duration": 0.12211000000000638
                },
                {
                    "name": "A3",
                    "midi": 57,
                    "time": 101.1070800000001,
                    "velocity": 0.25196850393700787,
                    "duration": 0.12211000000000638
                },
                {
                    "name": "E3",
                    "midi": 52,
                    "time": 101.2291900000001,
                    "velocity": 0.23622047244094488,
                    "duration": 0.12211000000000638
                },
                {
                    "name": "D3",
                    "midi": 50,
                    "time": 101.35130000000011,
                    "velocity": 0.2047244094488189,
                    "duration": 0.12211000000000638
                },
                {
                    "name": "C3",
                    "midi": 48,
                    "time": 101.47341000000011,
                    "velocity": 0.1889763779527559,
                    "duration": 0.12211000000000638
                },
                {
                    "name": "F2",
                    "midi": 41,
                    "time": 101.59552000000012,
                    "velocity": 0.16535433070866143,
                    "duration": 1.953760000000102
                },
                {
                    "name": "C3",
                    "midi": 48,
                    "time": 101.71763000000013,
                    "velocity": 0.16535433070866143,
                    "duration": 0.12211000000000638
                },
                {
                    "name": "D3",
                    "midi": 50,
                    "time": 101.83974000000013,
                    "velocity": 0.1732283464566929,
                    "duration": 0.12211000000000638
                },
                {
                    "name": "E3",
                    "midi": 52,
                    "time": 101.96185000000014,
                    "velocity": 0.1968503937007874,
                    "duration": 0.12211000000000638
                },
                {
                    "name": "F3",
                    "midi": 53,
                    "time": 102.08396000000015,
                    "velocity": 0.23622047244094488,
                    "duration": 0.12211000000000638
                },
                {
                    "name": "G#3",
                    "midi": 56,
                    "time": 102.20607000000015,
                    "velocity": 0.2677165354330709,
                    "duration": 0.12211000000000638
                },
                {
                    "name": "C4",
                    "midi": 60,
                    "time": 102.32818000000016,
                    "velocity": 0.30708661417322836,
                    "duration": 0.12211000000000638
                },
                {
                    "name": "D4",
                    "midi": 62,
                    "time": 102.45029000000017,
                    "velocity": 0.33070866141732286,
                    "duration": 0.12211000000000638
                },
                {
                    "name": "E4",
                    "midi": 64,
                    "time": 102.57240000000017,
                    "velocity": 0.3779527559055118,
                    "duration": 0.12211000000000638
                },
                {
                    "name": "D4",
                    "midi": 62,
                    "time": 102.69451000000018,
                    "velocity": 0.33070866141732286,
                    "duration": 0.12211000000000638
                },
                {
                    "name": "C4",
                    "midi": 60,
                    "time": 102.81662000000019,
                    "velocity": 0.31496062992125984,
                    "duration": 0.12211000000000638
                },
                {
                    "name": "G#3",
                    "midi": 56,
                    "time": 102.93873000000019,
                    "velocity": 0.28346456692913385,
                    "duration": 0.12211000000000638
                },
                {
                    "name": "F3",
                    "midi": 53,
                    "time": 103.0608400000002,
                    "velocity": 0.25984251968503935,
                    "duration": 0.12211000000000638
                },
                {
                    "name": "E3",
                    "midi": 52,
                    "time": 103.1829500000002,
                    "velocity": 0.23622047244094488,
                    "duration": 0.12211000000000638
                },
                {
                    "name": "D3",
                    "midi": 50,
                    "time": 103.30506000000021,
                    "velocity": 0.2047244094488189,
                    "duration": 0.12211000000000638
                },
                {
                    "name": "C3",
                    "midi": 48,
                    "time": 103.42717000000022,
                    "velocity": 0.1889763779527559,
                    "duration": 0.12211000000000638
                },
                {
                    "name": "F2",
                    "midi": 41,
                    "time": 103.54928000000022,
                    "velocity": 0.16535433070866143,
                    "duration": 1.953760000000102
                },
                {
                    "name": "C3",
                    "midi": 48,
                    "time": 103.67139000000023,
                    "velocity": 0.16535433070866143,
                    "duration": 0.12211000000000638
                },
                {
                    "name": "D3",
                    "midi": 50,
                    "time": 103.79350000000024,
                    "velocity": 0.1732283464566929,
                    "duration": 0.12211000000000638
                },
                {
                    "name": "E3",
                    "midi": 52,
                    "time": 103.91561000000024,
                    "velocity": 0.1968503937007874,
                    "duration": 0.12211000000000638
                },
                {
                    "name": "F3",
                    "midi": 53,
                    "time": 104.03772000000025,
                    "velocity": 0.2440944881889764,
                    "duration": 0.12211000000000638
                },
                {
                    "name": "G#3",
                    "midi": 56,
                    "time": 104.15983000000026,
                    "velocity": 0.2755905511811024,
                    "duration": 0.12211000000000638
                },
                {
                    "name": "C4",
                    "midi": 60,
                    "time": 104.28194000000026,
                    "velocity": 0.30708661417322836,
                    "duration": 0.12211000000000638
                },
                {
                    "name": "D4",
                    "midi": 62,
                    "time": 104.40405000000027,
                    "velocity": 0.33070866141732286,
                    "duration": 0.12211000000000638
                },
                {
                    "name": "E4",
                    "midi": 64,
                    "time": 104.52616000000027,
                    "velocity": 0.3779527559055118,
                    "duration": 0.12211000000000638
                },
                {
                    "name": "D4",
                    "midi": 62,
                    "time": 104.64827000000028,
                    "velocity": 0.3228346456692913,
                    "duration": 0.12211000000000638
                },
                {
                    "name": "C4",
                    "midi": 60,
                    "time": 104.77038000000029,
                    "velocity": 0.31496062992125984,
                    "duration": 0.12211000000000638
                },
                {
                    "name": "A#3",
                    "midi": 58,
                    "time": 104.8924900000003,
                    "velocity": 0.2755905511811024,
                    "duration": 0.12211000000000638
                },
                {
                    "name": "G#3",
                    "midi": 56,
                    "time": 105.0146000000003,
                    "velocity": 0.25984251968503935,
                    "duration": 0.12211000000000638
                },
                {
                    "name": "E3",
                    "midi": 52,
                    "time": 105.1367100000003,
                    "velocity": 0.23622047244094488,
                    "duration": 0.12211000000000638
                },
                {
                    "name": "D3",
                    "midi": 50,
                    "time": 105.25882000000031,
                    "velocity": 0.2047244094488189,
                    "duration": 0.12211000000000638
                },
                {
                    "name": "C3",
                    "midi": 48,
                    "time": 105.38093000000032,
                    "velocity": 0.1889763779527559,
                    "duration": 0.12211000000000638
                },
                {
                    "name": "E2",
                    "midi": 40,
                    "time": 105.50304000000033,
                    "velocity": 0.2204724409448819,
                    "duration": 0.12211000000000638
                },
                {
                    "name": "C3",
                    "midi": 48,
                    "time": 105.62515000000033,
                    "velocity": 0.18110236220472442,
                    "duration": 0.12211000000000638
                },
                {
                    "name": "C3",
                    "midi": 48,
                    "time": 105.99148000000034,
                    "velocity": 0.2755905511811024,
                    "duration": 0.12211000000000638
                },
                {
                    "name": "E3",
                    "midi": 52,
                    "time": 106.11359000000034,
                    "velocity": 0.23622047244094488,
                    "duration": 0.12211000000000638
                },
                {
                    "name": "E3",
                    "midi": 52,
                    "time": 106.47992000000035,
                    "velocity": 0.33070866141732286,
                    "duration": 0.12211000000000638
                },
                {
                    "name": "G#3",
                    "midi": 56,
                    "time": 106.60203000000035,
                    "velocity": 0.30708661417322836,
                    "duration": 0.12211000000000638
                },
                {
                    "name": "G#3",
                    "midi": 56,
                    "time": 106.96836000000036,
                    "velocity": 0.3858267716535433,
                    "duration": 0.12211000000000638
                },
                {
                    "name": "C4",
                    "midi": 60,
                    "time": 107.09047000000037,
                    "velocity": 0.31496062992125984,
                    "duration": 0.12211000000000638
                },
                {
                    "name": "G#3",
                    "midi": 56,
                    "time": 107.45680000000037,
                    "velocity": 0.4094488188976378,
                    "duration": 0.12211000000000638
                },
                {
                    "name": "C4",
                    "midi": 60,
                    "time": 107.57891000000038,
                    "velocity": 0.3543307086614173,
                    "duration": 0.12211000000000638
                },
                {
                    "name": "C4",
                    "midi": 60,
                    "time": 107.94524000000038,
                    "velocity": 0.4330708661417323,
                    "duration": 0.12211000000000638
                },
                {
                    "name": "E4",
                    "midi": 64,
                    "time": 108.06735000000039,
                    "velocity": 0.36220472440944884,
                    "duration": 0.12211000000000638
                },
                {
                    "name": "E4",
                    "midi": 64,
                    "time": 108.4336800000004,
                    "velocity": 0.5275590551181102,
                    "duration": 0.12211000000000638
                },
                {
                    "name": "G#4",
                    "midi": 68,
                    "time": 108.5557900000004,
                    "velocity": 0.4409448818897638,
                    "duration": 0.12211000000000638
                },
                {
                    "name": "G#4",
                    "midi": 68,
                    "time": 108.9221200000004,
                    "velocity": 0.5590551181102362,
                    "duration": 0.12211000000000638
                },
                {
                    "name": "C5",
                    "midi": 72,
                    "time": 109.04423000000041,
                    "velocity": 0.5039370078740157,
                    "duration": 0.12211000000000638
                },
                {
                    "name": "C5",
                    "midi": 72,
                    "time": 109.41056000000042,
                    "velocity": 0.6220472440944882,
                    "duration": 0.4884400000000113
                },
                {
                    "name": "E5",
                    "midi": 76,
                    "time": 109.53267000000042,
                    "velocity": 0.5669291338582677,
                    "duration": 0.12211000000000638
                },
                {
                    "name": "C5",
                    "midi": 72,
                    "time": 109.89900000000043,
                    "velocity": 0.5590551181102362,
                    "duration": 0.4884400000000113
                },
                {
                    "name": "E5",
                    "midi": 76,
                    "time": 110.02111000000043,
                    "velocity": 0.5039370078740157,
                    "duration": 0.12211000000000638
                },
                {
                    "name": "D5",
                    "midi": 74,
                    "time": 110.38744000000044,
                    "velocity": 0.5826771653543307,
                    "duration": 0.4884400000000113
                },
                {
                    "name": "E5",
                    "midi": 76,
                    "time": 110.50955000000044,
                    "velocity": 0.5354330708661418,
                    "duration": 0.12211000000000638
                },
                {
                    "name": "C5",
                    "midi": 72,
                    "time": 110.87588000000045,
                    "velocity": 0.5590551181102362,
                    "duration": 0.4884400000000113
                },
                {
                    "name": "E5",
                    "midi": 76,
                    "time": 110.99799000000046,
                    "velocity": 0.5039370078740157,
                    "duration": 0.12211000000000638
                },
                {
                    "name": "F5",
                    "midi": 77,
                    "time": 111.36432000000046,
                    "velocity": 0.49606299212598426,
                    "duration": 0.4884400000000113
                },
                {
                    "name": "G#5",
                    "midi": 80,
                    "time": 111.48643000000047,
                    "velocity": 0.44881889763779526,
                    "duration": 0.12211000000000638
                },
                {
                    "name": "D#5",
                    "midi": 75,
                    "time": 111.85276000000047,
                    "velocity": 0.44881889763779526,
                    "duration": 0.4884400000000113
                },
                {
                    "name": "G#5",
                    "midi": 80,
                    "time": 111.97487000000048,
                    "velocity": 0.4015748031496063,
                    "duration": 0.12211000000000638
                },
                {
                    "name": "D5",
                    "midi": 74,
                    "time": 112.34120000000048,
                    "velocity": 0.4566929133858268,
                    "duration": 0.4884400000000113
                },
                {
                    "name": "D#5",
                    "midi": 75,
                    "time": 112.46331000000049,
                    "velocity": 0.4251968503937008,
                    "duration": 0.12211000000000638
                },
                {
                    "name": "C5",
                    "midi": 72,
                    "time": 112.8296400000005,
                    "velocity": 0.44881889763779526,
                    "duration": 0.4884400000000113
                },
                {
                    "name": "D#5",
                    "midi": 75,
                    "time": 112.9517500000005,
                    "velocity": 0.4015748031496063,
                    "duration": 0.12211000000000638
                },
                {
                    "name": "D5",
                    "midi": 74,
                    "time": 113.3180800000005,
                    "velocity": 0.49606299212598426,
                    "duration": 0.4884400000000113
                },
                {
                    "name": "E5",
                    "midi": 76,
                    "time": 113.44019000000051,
                    "velocity": 0.44881889763779526,
                    "duration": 0.12211000000000638
                },
                {
                    "name": "C5",
                    "midi": 72,
                    "time": 113.80652000000052,
                    "velocity": 0.44881889763779526,
                    "duration": 0.4884400000000113
                },
                {
                    "name": "E5",
                    "midi": 76,
                    "time": 113.92863000000052,
                    "velocity": 0.4015748031496063,
                    "duration": 0.12211000000000638
                },
                {
                    "name": "B4",
                    "midi": 71,
                    "time": 114.29496000000053,
                    "velocity": 0.4566929133858268,
                    "duration": 0.4884400000000113
                },
                {
                    "name": "C5",
                    "midi": 72,
                    "time": 114.41707000000054,
                    "velocity": 0.4251968503937008,
                    "duration": 0.12211000000000638
                },
                {
                    "name": "A4",
                    "midi": 69,
                    "time": 114.78340000000054,
                    "velocity": 0.44881889763779526,
                    "duration": 0.4884400000000113
                },
                {
                    "name": "C5",
                    "midi": 72,
                    "time": 114.90551000000055,
                    "velocity": 0.4015748031496063,
                    "duration": 0.12211000000000638
                },
                {
                    "name": "G4",
                    "midi": 67,
                    "time": 115.27184000000055,
                    "velocity": 0.49606299212598426,
                    "duration": 0.4884400000000113
                },
                {
                    "name": "A4",
                    "midi": 69,
                    "time": 115.39395000000056,
                    "velocity": 0.44881889763779526,
                    "duration": 0.12211000000000638
                },
                {
                    "name": "F4",
                    "midi": 65,
                    "time": 115.76028000000056,
                    "velocity": 0.4330708661417323,
                    "duration": 0.4884400000000113
                },
                {
                    "name": "A4",
                    "midi": 69,
                    "time": 115.88239000000057,
                    "velocity": 0.3779527559055118,
                    "duration": 0.12211000000000638
                },
                {
                    "name": "E4",
                    "midi": 64,
                    "time": 116.24872000000057,
                    "velocity": 0.4251968503937008,
                    "duration": 0.4884400000000113
                },
                {
                    "name": "F4",
                    "midi": 65,
                    "time": 116.37083000000058,
                    "velocity": 0.3858267716535433,
                    "duration": 0.12211000000000638
                },
                {
                    "name": "D4",
                    "midi": 62,
                    "time": 116.73716000000059,
                    "velocity": 0.3937007874015748,
                    "duration": 0.4884400000000113
                },
                {
                    "name": "F4",
                    "midi": 65,
                    "time": 116.85927000000059,
                    "velocity": 0.3464566929133858,
                    "duration": 0.12211000000000638
                },
                {
                    "name": "D4",
                    "midi": 62,
                    "time": 117.2256000000006,
                    "velocity": 0.3779527559055118,
                    "duration": 0.4884400000000113
                },
                {
                    "name": "E4",
                    "midi": 64,
                    "time": 117.3477100000006,
                    "velocity": 0.3543307086614173,
                    "duration": 0.12211000000000638
                },
                {
                    "name": "C4",
                    "midi": 60,
                    "time": 117.71404000000061,
                    "velocity": 0.49606299212598426,
                    "duration": 0.4884400000000113
                },
                {
                    "name": "E4",
                    "midi": 64,
                    "time": 117.83615000000061,
                    "velocity": 0.44881889763779526,
                    "duration": 0.12211000000000638
                },
                {
                    "name": "D4",
                    "midi": 62,
                    "time": 118.20248000000062,
                    "velocity": 0.5196850393700787,
                    "duration": 0.4884400000000113
                },
                {
                    "name": "E4",
                    "midi": 64,
                    "time": 118.32459000000063,
                    "velocity": 0.48031496062992124,
                    "duration": 0.12211000000000638
                },
                {
                    "name": "C4",
                    "midi": 60,
                    "time": 118.69092000000063,
                    "velocity": 0.49606299212598426,
                    "duration": 0.4884400000000113
                },
                {
                    "name": "E4",
                    "midi": 64,
                    "time": 118.81303000000064,
                    "velocity": 0.44881889763779526,
                    "duration": 0.12211000000000638
                },
                {
                    "name": "F4",
                    "midi": 65,
                    "time": 119.17936000000064,
                    "velocity": 0.49606299212598426,
                    "duration": 0.4884400000000113
                },
                {
                    "name": "G#4",
                    "midi": 68,
                    "time": 119.30147000000065,
                    "velocity": 0.44881889763779526,
                    "duration": 0.12211000000000638
                },
                {
                    "name": "D#4",
                    "midi": 63,
                    "time": 119.66780000000065,
                    "velocity": 0.49606299212598426,
                    "duration": 0.4884400000000113
                },
                {
                    "name": "G#4",
                    "midi": 68,
                    "time": 119.78991000000066,
                    "velocity": 0.44881889763779526,
                    "duration": 0.12211000000000638
                },
                {
                    "name": "D4",
                    "midi": 62,
                    "time": 120.15624000000066,
                    "velocity": 0.5196850393700787,
                    "duration": 0.4884400000000113
                },
                {
                    "name": "D#4",
                    "midi": 63,
                    "time": 120.27835000000067,
                    "velocity": 0.48031496062992124,
                    "duration": 0.12211000000000638
                },
                {
                    "name": "C4",
                    "midi": 60,
                    "time": 120.64468000000068,
                    "velocity": 0.49606299212598426,
                    "duration": 0.4884400000000113
                },
                {
                    "name": "D#4",
                    "midi": 63,
                    "time": 120.76679000000068,
                    "velocity": 0.44881889763779526,
                    "duration": 0.12211000000000638
                },
                {
                    "name": "D4",
                    "midi": 62,
                    "time": 121.13312000000069,
                    "velocity": 0.49606299212598426,
                    "duration": 0.4884400000000113
                },
                {
                    "name": "E4",
                    "midi": 64,
                    "time": 121.2552300000007,
                    "velocity": 0.44881889763779526,
                    "duration": 0.12211000000000638
                },
                {
                    "name": "C4",
                    "midi": 60,
                    "time": 121.6215600000007,
                    "velocity": 0.49606299212598426,
                    "duration": 0.4884400000000113
                },
                {
                    "name": "E4",
                    "midi": 64,
                    "time": 121.7436700000007,
                    "velocity": 0.44881889763779526,
                    "duration": 0.12211000000000638
                },
                {
                    "name": "B3",
                    "midi": 59,
                    "time": 122.11000000000071,
                    "velocity": 0.5196850393700787,
                    "duration": 0.4884400000000113
                },
                {
                    "name": "C4",
                    "midi": 60,
                    "time": 122.23211000000072,
                    "velocity": 0.48031496062992124,
                    "duration": 0.12211000000000638
                },
                {
                    "name": "A3",
                    "midi": 57,
                    "time": 122.59844000000072,
                    "velocity": 0.49606299212598426,
                    "duration": 0.4884400000000113
                },
                {
                    "name": "C4",
                    "midi": 60,
                    "time": 122.72055000000073,
                    "velocity": 0.44881889763779526,
                    "duration": 0.12211000000000638
                },
                {
                    "name": "G3",
                    "midi": 55,
                    "time": 123.08688000000073,
                    "velocity": 0.4645669291338583,
                    "duration": 0.4884400000000113
                },
                {
                    "name": "A3",
                    "midi": 57,
                    "time": 123.20899000000074,
                    "velocity": 0.41732283464566927,
                    "duration": 0.12211000000000638
                },
                {
                    "name": "F3",
                    "midi": 53,
                    "time": 123.57532000000074,
                    "velocity": 0.4409448818897638,
                    "duration": 0.4884400000000113
                },
                {
                    "name": "A3",
                    "midi": 57,
                    "time": 123.69743000000075,
                    "velocity": 0.3937007874015748,
                    "duration": 0.12211000000000638
                },
                {
                    "name": "E3",
                    "midi": 52,
                    "time": 124.06376000000076,
                    "velocity": 0.4409448818897638,
                    "duration": 0.4884400000000113
                },
                {
                    "name": "F3",
                    "midi": 53,
                    "time": 124.18587000000076,
                    "velocity": 0.4015748031496063,
                    "duration": 0.12211000000000638
                },
                {
                    "name": "D3",
                    "midi": 50,
                    "time": 124.55220000000077,
                    "velocity": 0.3937007874015748,
                    "duration": 0.4884400000000113
                },
                {
                    "name": "F3",
                    "midi": 53,
                    "time": 124.67431000000077,
                    "velocity": 0.3543307086614173,
                    "duration": 0.12211000000000638
                },
                {
                    "name": "D3",
                    "midi": 50,
                    "time": 125.04064000000078,
                    "velocity": 0.5196850393700787,
                    "duration": 0.4884399999999971
                },
                {
                    "name": "C3",
                    "midi": 48,
                    "time": 125.52908000000077,
                    "velocity": 0.4330708661417323,
                    "duration": 0.4884399999999971
                },
                {
                    "name": "D3",
                    "midi": 50,
                    "time": 126.01752000000077,
                    "velocity": 0.48031496062992124,
                    "duration": 0.4884399999999971
                },
                {
                    "name": "F2",
                    "midi": 41,
                    "time": 126.01752000000077,
                    "velocity": 0.48031496062992124,
                    "duration": 0.9768799999999942
                },
                {
                    "name": "C3",
                    "midi": 48,
                    "time": 126.50596000000077,
                    "velocity": 0.4330708661417323,
                    "duration": 0.4884399999999971
                },
                {
                    "name": "D4",
                    "midi": 62,
                    "time": 126.99440000000077,
                    "velocity": 0.5196850393700787,
                    "duration": 0.4884399999999971
                },
                {
                    "name": "C4",
                    "midi": 60,
                    "time": 127.48284000000076,
                    "velocity": 0.4330708661417323,
                    "duration": 0.4884399999999971
                },
                {
                    "name": "F3",
                    "midi": 53,
                    "time": 127.97128000000076,
                    "velocity": 0.44881889763779526,
                    "duration": 0.9768800000000084
                },
                {
                    "name": "D4",
                    "midi": 62,
                    "time": 127.97128000000076,
                    "velocity": 0.5196850393700787,
                    "duration": 0.4884400000000113
                },
                {
                    "name": "C4",
                    "midi": 60,
                    "time": 128.45972000000077,
                    "velocity": 0.4330708661417323,
                    "duration": 0.4884399999999971
                },
                {
                    "name": "C4",
                    "midi": 60,
                    "time": 128.94816000000077,
                    "velocity": 0.44881889763779526,
                    "duration": 0.9768800000000226
                },
                {
                    "name": "G4",
                    "midi": 67,
                    "time": 128.94816000000077,
                    "velocity": 0.4330708661417323,
                    "duration": 0.4884399999999971
                },
                {
                    "name": "A4",
                    "midi": 69,
                    "time": 129.43660000000077,
                    "velocity": 0.48031496062992124,
                    "duration": 0.24422000000001276
                },
                {
                    "name": "C4",
                    "midi": 60,
                    "time": 129.9250400000008,
                    "velocity": 0.44881889763779526,
                    "duration": 0.9768800000000226
                },
                {
                    "name": "G4",
                    "midi": 67,
                    "time": 129.9250400000008,
                    "velocity": 0.4330708661417323,
                    "duration": 0.4884399999999971
                },
                {
                    "name": "A4",
                    "midi": 69,
                    "time": 130.4134800000008,
                    "velocity": 0.48031496062992124,
                    "duration": 0.24422000000001276
                },
                {
                    "name": "C4",
                    "midi": 60,
                    "time": 130.9019200000008,
                    "velocity": 0.3700787401574803,
                    "duration": 0.4884399999999971
                },
                {
                    "name": "G4",
                    "midi": 67,
                    "time": 130.9019200000008,
                    "velocity": 0.4409448818897638,
                    "duration": 0.4884399999999971
                },
                {
                    "name": "D#4",
                    "midi": 63,
                    "time": 131.3903600000008,
                    "velocity": 0.4015748031496063,
                    "duration": 0.4884399999999971
                },
                {
                    "name": "A#4",
                    "midi": 70,
                    "time": 131.3903600000008,
                    "velocity": 0.48031496062992124,
                    "duration": 0.4884399999999971
                },
                {
                    "name": "C#5",
                    "midi": 73,
                    "time": 131.8788000000008,
                    "velocity": 0.5039370078740157,
                    "duration": 0.4884399999999971
                },
                {
                    "name": "F#4",
                    "midi": 66,
                    "time": 131.8788000000008,
                    "velocity": 0.4251968503937008,
                    "duration": 0.4884399999999971
                },
                {
                    "name": "G4",
                    "midi": 67,
                    "time": 132.3672400000008,
                    "velocity": 0.4409448818897638,
                    "duration": 0.4884399999999971
                },
                {
                    "name": "D5",
                    "midi": 74,
                    "time": 132.3672400000008,
                    "velocity": 0.5275590551181102,
                    "duration": 0.4884399999999971
                },
                {
                    "name": "C4",
                    "midi": 60,
                    "time": 132.8556800000008,
                    "velocity": 0.44881889763779526,
                    "duration": 0.9768800000000226
                },
                {
                    "name": "G4",
                    "midi": 67,
                    "time": 132.8556800000008,
                    "velocity": 0.4330708661417323,
                    "duration": 0.4884399999999971
                },
                {
                    "name": "A4",
                    "midi": 69,
                    "time": 133.3441200000008,
                    "velocity": 0.48031496062992124,
                    "duration": 0.24422000000001276
                },
                {
                    "name": "C4",
                    "midi": 60,
                    "time": 133.83256000000083,
                    "velocity": 0.44881889763779526,
                    "duration": 0.9768800000000226
                },
                {
                    "name": "G4",
                    "midi": 67,
                    "time": 133.83256000000083,
                    "velocity": 0.4330708661417323,
                    "duration": 0.4884399999999971
                },
                {
                    "name": "A4",
                    "midi": 69,
                    "time": 134.32100000000082,
                    "velocity": 0.48031496062992124,
                    "duration": 0.24422000000001276
                },
                {
                    "name": "C4",
                    "midi": 60,
                    "time": 134.80944000000085,
                    "velocity": 0.3700787401574803,
                    "duration": 0.4884399999999971
                },
                {
                    "name": "G4",
                    "midi": 67,
                    "time": 134.80944000000085,
                    "velocity": 0.4409448818897638,
                    "duration": 0.4884399999999971
                },
                {
                    "name": "D#4",
                    "midi": 63,
                    "time": 135.29788000000084,
                    "velocity": 0.4015748031496063,
                    "duration": 0.4884399999999971
                },
                {
                    "name": "A#4",
                    "midi": 70,
                    "time": 135.29788000000084,
                    "velocity": 0.48031496062992124,
                    "duration": 0.4884399999999971
                },
                {
                    "name": "C#5",
                    "midi": 73,
                    "time": 135.78632000000084,
                    "velocity": 0.5039370078740157,
                    "duration": 0.4884399999999971
                },
                {
                    "name": "F#4",
                    "midi": 66,
                    "time": 135.78632000000084,
                    "velocity": 0.4251968503937008,
                    "duration": 0.4884399999999971
                },
                {
                    "name": "G4",
                    "midi": 67,
                    "time": 136.27476000000084,
                    "velocity": 0.4409448818897638,
                    "duration": 0.4884399999999971
                },
                {
                    "name": "D5",
                    "midi": 74,
                    "time": 136.27476000000084,
                    "velocity": 0.5275590551181102,
                    "duration": 0.4884399999999971
                },
                {
                    "name": "G5",
                    "midi": 79,
                    "time": 136.76320000000084,
                    "velocity": 0.5511811023622047,
                    "duration": 0.9768799999999942
                },
                {
                    "name": "C5",
                    "midi": 72,
                    "time": 137.25164000000083,
                    "velocity": 0.5118110236220472,
                    "duration": 0.4884399999999971
                },
                {
                    "name": "G4",
                    "midi": 67,
                    "time": 137.74008000000083,
                    "velocity": 0.5275590551181102,
                    "duration": 0.9768799999999942
                },
                {
                    "name": "C4",
                    "midi": 60,
                    "time": 138.22852000000083,
                    "velocity": 0.5039370078740157,
                    "duration": 0.4884399999999971
                },
                {
                    "name": "G3",
                    "midi": 55,
                    "time": 138.71696000000082,
                    "velocity": 0.5511811023622047,
                    "duration": 0.4884399999999971
                },
                {
                    "name": "C3",
                    "midi": 48,
                    "time": 139.20540000000082,
                    "velocity": 0.5196850393700787,
                    "duration": 0.4884399999999971
                },
                {
                    "name": "G2",
                    "midi": 43,
                    "time": 139.69384000000082,
                    "velocity": 0.5748031496062992,
                    "duration": 0.4884399999999971
                },
                {
                    "name": "C2",
                    "midi": 36,
                    "time": 140.18228000000082,
                    "velocity": 0.5354330708661418,
                    "duration": 0.4884399999999971
                },
                {
                    "name": "F2",
                    "midi": 41,
                    "time": 140.6707200000008,
                    "velocity": 0.5039370078740157,
                    "duration": 3.907520000000005
                },
                {
                    "name": "A2",
                    "midi": 45,
                    "time": 140.6707200000008,
                    "velocity": 0.5984251968503937,
                    "duration": 3.907520000000005
                },
                {
                    "name": "G2",
                    "midi": 43,
                    "time": 144.57824000000082,
                    "velocity": 0.48031496062992124,
                    "duration": 0.24422000000001276
                },
                {
                    "name": "C2",
                    "midi": 36,
                    "time": 144.57824000000082,
                    "velocity": 0.48031496062992124,
                    "duration": 0.24422000000001276
                },
                {
                    "name": "C1",
                    "midi": 24,
                    "time": 146.53098241666748,
                    "velocity": 0.5433070866141733,
                    "duration": 0.24422000000001276
                }
            ],
            "controlChanges": {},
            "id": 2,
            "name": "Piano left",
            "instrumentNumber": 0,
            "instrument": "acoustic grand piano",
            "instrumentFamily": "piano",
            "channelNumber": 0,
            "isPercussion": false
        },
        {
            "startTime": 0,
            "duration": 0,
            "length": 0,
            "notes": [],
            "controlChanges": {
                "64": [
                    {
                        "number": 64,
                        "time": 0.007123083333333334,
                        "value": 1
                    },
                    {
                        "number": 64,
                        "time": 0.9911261666666668,
                        "value": 0
                    },
                    {
                        "number": 64,
                        "time": 1.0348822500000001,
                        "value": 1
                    },
                    {
                        "number": 64,
                        "time": 1.4754958333333335,
                        "value": 0
                    },
                    {
                        "number": 64,
                        "time": 1.5121288333333334,
                        "value": 1
                    },
                    {
                        "number": 64,
                        "time": 1.96902375,
                        "value": 0
                    },
                    {
                        "number": 64,
                        "time": 2.0331315,
                        "value": 1
                    },
                    {
                        "number": 64,
                        "time": 2.942851,
                        "value": 0
                    },
                    {
                        "number": 64,
                        "time": 3.0313807500000003,
                        "value": 1
                    },
                    {
                        "number": 64,
                        "time": 3.4373965,
                        "value": 0
                    },
                    {
                        "number": 64,
                        "time": 3.4913284166666667,
                        "value": 1
                    },
                    {
                        "number": 64,
                        "time": 3.91667825,
                        "value": 0
                    },
                    {
                        "number": 64,
                        "time": 3.9583991666666667,
                        "value": 1
                    },
                    {
                        "number": 64,
                        "time": 4.410206166666667,
                        "value": 0
                    },
                    {
                        "number": 64,
                        "time": 4.464138083333333,
                        "value": 1
                    },
                    {
                        "number": 64,
                        "time": 4.895593416666666,
                        "value": 0
                    },
                    {
                        "number": 64,
                        "time": 4.938331916666666,
                        "value": 1
                    },
                    {
                        "number": 64,
                        "time": 5.384033416666666,
                        "value": 0
                    },
                    {
                        "number": 64,
                        "time": 5.4522115,
                        "value": 1
                    },
                    {
                        "number": 64,
                        "time": 5.86128,
                        "value": 0
                    },
                    {
                        "number": 64,
                        "time": 5.926405333333333,
                        "value": 1
                    },
                    {
                        "number": 64,
                        "time": 6.3558255,
                        "value": 0
                    },
                    {
                        "number": 64,
                        "time": 6.425021166666666,
                        "value": 1
                    },
                    {
                        "number": 64,
                        "time": 6.849353416666666,
                        "value": 0
                    },
                    {
                        "number": 64,
                        "time": 6.9175315,
                        "value": 1
                    },
                    {
                        "number": 64,
                        "time": 7.3449165,
                        "value": 0
                    },
                    {
                        "number": 64,
                        "time": 7.40902425,
                        "value": 1
                    },
                    {
                        "number": 64,
                        "time": 7.81809275,
                        "value": 0
                    },
                    {
                        "number": 64,
                        "time": 7.908657666666667,
                        "value": 1
                    },
                    {
                        "number": 64,
                        "time": 8.323831666666667,
                        "value": 0
                    },
                    {
                        "number": 64,
                        "time": 8.40422075,
                        "value": 1
                    },
                    {
                        "number": 64,
                        "time": 8.81328925,
                        "value": 0
                    },
                    {
                        "number": 64,
                        "time": 8.91403,
                        "value": 1
                    },
                    {
                        "number": 64,
                        "time": 9.301729250000001,
                        "value": 0
                    },
                    {
                        "number": 64,
                        "time": 9.395346916666668,
                        "value": 1
                    },
                    {
                        "number": 64,
                        "time": 9.776940666666668,
                        "value": 0
                    },
                    {
                        "number": 64,
                        "time": 9.855294583333334,
                        "value": 1
                    },
                    {
                        "number": 64,
                        "time": 10.267415833333335,
                        "value": 0
                    },
                    {
                        "number": 64,
                        "time": 10.343734583333335,
                        "value": 1
                    },
                    {
                        "number": 64,
                        "time": 10.762978916666668,
                        "value": 0
                    },
                    {
                        "number": 64,
                        "time": 10.846420750000002,
                        "value": 1
                    },
                    {
                        "number": 64,
                        "time": 11.242260666666668,
                        "value": 0
                    },
                    {
                        "number": 64,
                        "time": 11.334860750000002,
                        "value": 1
                    },
                    {
                        "number": 64,
                        "time": 11.729683083333336,
                        "value": 0
                    },
                    {
                        "number": 64,
                        "time": 11.830423833333336,
                        "value": 1
                    },
                    {
                        "number": 64,
                        "time": 13.737375000000004,
                        "value": 0
                    },
                    {
                        "number": 64,
                        "time": 13.777060750000004,
                        "value": 1
                    },
                    {
                        "number": 64,
                        "time": 15.680959166666671,
                        "value": 0
                    },
                    {
                        "number": 64,
                        "time": 15.723697666666672,
                        "value": 1
                    },
                    {
                        "number": 64,
                        "time": 17.639807083333338,
                        "value": 0
                    },
                    {
                        "number": 64,
                        "time": 17.677457666666673,
                        "value": 1
                    },
                    {
                        "number": 64,
                        "time": 19.55693408333334,
                        "value": 0
                    },
                    {
                        "number": 64,
                        "time": 19.613918750000003,
                        "value": 1
                    },
                    {
                        "number": 64,
                        "time": 22.36037616666667,
                        "value": 0
                    },
                    {
                        "number": 64,
                        "time": 23.445120000000003,
                        "value": 0
                    },
                    {
                        "number": 64,
                        "time": 23.510245333333337,
                        "value": 1
                    },
                    {
                        "number": 64,
                        "time": 24.433193416666672,
                        "value": 0
                    },
                    {
                        "number": 64,
                        "time": 24.501371500000005,
                        "value": 1
                    },
                    {
                        "number": 64,
                        "time": 25.398880000000005,
                        "value": 0
                    },
                    {
                        "number": 64,
                        "time": 25.46400533333334,
                        "value": 1
                    },
                    {
                        "number": 64,
                        "time": 26.386953416666675,
                        "value": 0
                    },
                    {
                        "number": 64,
                        "time": 26.455131500000007,
                        "value": 1
                    },
                    {
                        "number": 64,
                        "time": 27.352640000000008,
                        "value": 0
                    },
                    {
                        "number": 64,
                        "time": 27.417765333333342,
                        "value": 1
                    },
                    {
                        "number": 64,
                        "time": 28.340713416666677,
                        "value": 0
                    },
                    {
                        "number": 64,
                        "time": 28.40889150000001,
                        "value": 1
                    },
                    {
                        "number": 64,
                        "time": 29.30640000000001,
                        "value": 0
                    },
                    {
                        "number": 64,
                        "time": 29.371525333333345,
                        "value": 1
                    },
                    {
                        "number": 64,
                        "time": 30.29447341666668,
                        "value": 0
                    },
                    {
                        "number": 64,
                        "time": 30.362651500000013,
                        "value": 1
                    },
                    {
                        "number": 64,
                        "time": 31.260160000000013,
                        "value": 0
                    },
                    {
                        "number": 64,
                        "time": 31.325285333333348,
                        "value": 1
                    },
                    {
                        "number": 64,
                        "time": 31.763863750000013,
                        "value": 0
                    },
                    {
                        "number": 64,
                        "time": 31.83611216666668,
                        "value": 1
                    },
                    {
                        "number": 64,
                        "time": 32.237040000000015,
                        "value": 0
                    },
                    {
                        "number": 64,
                        "time": 32.30216533333335,
                        "value": 1
                    },
                    {
                        "number": 64,
                        "time": 32.740743750000014,
                        "value": 0
                    },
                    {
                        "number": 64,
                        "time": 32.81299216666668,
                        "value": 1
                    },
                    {
                        "number": 64,
                        "time": 33.213920000000016,
                        "value": 0
                    },
                    {
                        "number": 64,
                        "time": 33.27904533333335,
                        "value": 1
                    },
                    {
                        "number": 64,
                        "time": 35.16768000000002,
                        "value": 0
                    },
                    {
                        "number": 64,
                        "time": 35.23280533333335,
                        "value": 1
                    },
                    {
                        "number": 64,
                        "time": 35.67138375000002,
                        "value": 0
                    },
                    {
                        "number": 64,
                        "time": 35.743632166666686,
                        "value": 1
                    },
                    {
                        "number": 64,
                        "time": 36.14456000000002,
                        "value": 0
                    },
                    {
                        "number": 64,
                        "time": 36.209685333333354,
                        "value": 1
                    },
                    {
                        "number": 64,
                        "time": 36.64826375000002,
                        "value": 0
                    },
                    {
                        "number": 64,
                        "time": 36.72051216666669,
                        "value": 1
                    },
                    {
                        "number": 64,
                        "time": 37.12144000000002,
                        "value": 0
                    },
                    {
                        "number": 64,
                        "time": 37.186565333333355,
                        "value": 1
                    },
                    {
                        "number": 64,
                        "time": 39.075200000000024,
                        "value": 0
                    },
                    {
                        "number": 64,
                        "time": 39.14032533333336,
                        "value": 1
                    },
                    {
                        "number": 64,
                        "time": 41.028960000000026,
                        "value": 0
                    },
                    {
                        "number": 64,
                        "time": 41.082891916666696,
                        "value": 1
                    },
                    {
                        "number": 64,
                        "time": 42.020086166666694,
                        "value": 0
                    },
                    {
                        "number": 64,
                        "time": 42.06384225000003,
                        "value": 1
                    },
                    {
                        "number": 64,
                        "time": 42.50445583333336,
                        "value": 0
                    },
                    {
                        "number": 64,
                        "time": 42.54108883333336,
                        "value": 1
                    },
                    {
                        "number": 64,
                        "time": 42.99798375000003,
                        "value": 0
                    },
                    {
                        "number": 64,
                        "time": 43.06209150000003,
                        "value": 1
                    },
                    {
                        "number": 64,
                        "time": 43.48337100000003,
                        "value": 0
                    },
                    {
                        "number": 64,
                        "time": 43.58818208333336,
                        "value": 1
                    },
                    {
                        "number": 64,
                        "time": 43.971811000000024,
                        "value": 0
                    },
                    {
                        "number": 64,
                        "time": 44.06034075000002,
                        "value": 1
                    },
                    {
                        "number": 64,
                        "time": 44.466356500000025,
                        "value": 0
                    },
                    {
                        "number": 64,
                        "time": 44.520288416666695,
                        "value": 1
                    },
                    {
                        "number": 64,
                        "time": 44.94563825000003,
                        "value": 0
                    },
                    {
                        "number": 64,
                        "time": 44.9873591666667,
                        "value": 1
                    },
                    {
                        "number": 64,
                        "time": 45.92658858333337,
                        "value": 0
                    },
                    {
                        "number": 64,
                        "time": 46.0069776666667,
                        "value": 1
                    },
                    {
                        "number": 64,
                        "time": 46.89939825000003,
                        "value": 0
                    },
                    {
                        "number": 64,
                        "time": 46.9411191666667,
                        "value": 1
                    },
                    {
                        "number": 64,
                        "time": 47.88034858333337,
                        "value": 0
                    },
                    {
                        "number": 64,
                        "time": 47.9607376666667,
                        "value": 1
                    },
                    {
                        "number": 64,
                        "time": 48.853158250000035,
                        "value": 0
                    },
                    {
                        "number": 64,
                        "time": 48.894879166666705,
                        "value": 1
                    },
                    {
                        "number": 64,
                        "time": 49.834108583333375,
                        "value": 0
                    },
                    {
                        "number": 64,
                        "time": 49.914497666666705,
                        "value": 1
                    },
                    {
                        "number": 64,
                        "time": 50.80691825000004,
                        "value": 0
                    },
                    {
                        "number": 64,
                        "time": 50.84863916666671,
                        "value": 1
                    },
                    {
                        "number": 64,
                        "time": 52.76067825000004,
                        "value": 0
                    },
                    {
                        "number": 64,
                        "time": 52.80239916666671,
                        "value": 1
                    },
                    {
                        "number": 64,
                        "time": 54.71443825000004,
                        "value": 0
                    },
                    {
                        "number": 64,
                        "time": 54.75615916666671,
                        "value": 1
                    },
                    {
                        "number": 64,
                        "time": 56.668198250000046,
                        "value": 0
                    },
                    {
                        "number": 64,
                        "time": 56.709919166666715,
                        "value": 1
                    },
                    {
                        "number": 64,
                        "time": 58.61280000000005,
                        "value": 0
                    },
                    {
                        "number": 64,
                        "time": 58.70641766666672,
                        "value": 1
                    },
                    {
                        "number": 64,
                        "time": 61.06212308333338,
                        "value": 0
                    },
                    {
                        "number": 64,
                        "time": 61.14251216666671,
                        "value": 1
                    },
                    {
                        "number": 64,
                        "time": 61.55565100000005,
                        "value": 0
                    },
                    {
                        "number": 64,
                        "time": 61.63705766666671,
                        "value": 1
                    },
                    {
                        "number": 64,
                        "time": 62.04002066666671,
                        "value": 0
                    },
                    {
                        "number": 64,
                        "time": 62.13058558333338,
                        "value": 1
                    },
                    {
                        "number": 64,
                        "time": 62.547794750000044,
                        "value": 0
                    },
                    {
                        "number": 64,
                        "time": 62.69330916666671,
                        "value": 1
                    },
                    {
                        "number": 64,
                        "time": 63.50534066666671,
                        "value": 0
                    },
                    {
                        "number": 64,
                        "time": 63.69868150000004,
                        "value": 1
                    },
                    {
                        "number": 64,
                        "time": 64.49443166666671,
                        "value": 0
                    },
                    {
                        "number": 64,
                        "time": 64.68980766666671,
                        "value": 1
                    },
                    {
                        "number": 64,
                        "time": 65.4652061666667,
                        "value": 0
                    },
                    {
                        "number": 64,
                        "time": 65.60970300000004,
                        "value": 1
                    },
                    {
                        "number": 64,
                        "time": 70.36283475000003,
                        "value": 0
                    },
                    {
                        "number": 64,
                        "time": 70.5083491666667,
                        "value": 1
                    },
                    {
                        "number": 64,
                        "time": 72.28912000000004,
                        "value": 0
                    },
                    {
                        "number": 64,
                        "time": 72.5048476666667,
                        "value": 1
                    },
                    {
                        "number": 64,
                        "time": 73.28329891666671,
                        "value": 0
                    },
                    {
                        "number": 64,
                        "time": 73.40947925000005,
                        "value": 1
                    },
                    {
                        "number": 64,
                        "time": 74.27035475000005,
                        "value": 0
                    },
                    {
                        "number": 64,
                        "time": 74.41586916666672,
                        "value": 1
                    },
                    {
                        "number": 64,
                        "time": 76.19664000000006,
                        "value": 0
                    },
                    {
                        "number": 64,
                        "time": 76.41236766666673,
                        "value": 1
                    },
                    {
                        "number": 64,
                        "time": 77.19081891666673,
                        "value": 0
                    },
                    {
                        "number": 64,
                        "time": 77.31699925000007,
                        "value": 1
                    },
                    {
                        "number": 64,
                        "time": 78.17787475000007,
                        "value": 0
                    },
                    {
                        "number": 64,
                        "time": 78.38037383333341,
                        "value": 1
                    },
                    {
                        "number": 64,
                        "time": 80.1112830833334,
                        "value": 0
                    },
                    {
                        "number": 64,
                        "time": 80.30564150000006,
                        "value": 1
                    },
                    {
                        "number": 64,
                        "time": 82.06402550000007,
                        "value": 0
                    },
                    {
                        "number": 64,
                        "time": 82.20139925000007,
                        "value": 1
                    },
                    {
                        "number": 64,
                        "time": 84.01778550000006,
                        "value": 0
                    },
                    {
                        "number": 64,
                        "time": 84.21316150000006,
                        "value": 1
                    },
                    {
                        "number": 64,
                        "time": 85.97561583333339,
                        "value": 0
                    },
                    {
                        "number": 64,
                        "time": 86.06618075000006,
                        "value": 1
                    },
                    {
                        "number": 64,
                        "time": 86.95656616666672,
                        "value": 0
                    },
                    {
                        "number": 64,
                        "time": 87.00032225000005,
                        "value": 1
                    },
                    {
                        "number": 64,
                        "time": 87.44093583333338,
                        "value": 0
                    },
                    {
                        "number": 64,
                        "time": 87.47756883333338,
                        "value": 1
                    },
                    {
                        "number": 64,
                        "time": 87.93446375000005,
                        "value": 0
                    },
                    {
                        "number": 64,
                        "time": 87.99857150000005,
                        "value": 1
                    },
                    {
                        "number": 64,
                        "time": 88.90829100000005,
                        "value": 0
                    },
                    {
                        "number": 64,
                        "time": 88.99682075000005,
                        "value": 1
                    },
                    {
                        "number": 64,
                        "time": 89.40283650000005,
                        "value": 0
                    },
                    {
                        "number": 64,
                        "time": 89.45676841666672,
                        "value": 1
                    },
                    {
                        "number": 64,
                        "time": 89.88211825000005,
                        "value": 0
                    },
                    {
                        "number": 64,
                        "time": 89.92383916666671,
                        "value": 1
                    },
                    {
                        "number": 64,
                        "time": 90.37564616666671,
                        "value": 0
                    },
                    {
                        "number": 64,
                        "time": 90.42957808333338,
                        "value": 1
                    },
                    {
                        "number": 64,
                        "time": 90.86103341666671,
                        "value": 0
                    },
                    {
                        "number": 64,
                        "time": 90.90377191666671,
                        "value": 1
                    },
                    {
                        "number": 64,
                        "time": 91.34947341666671,
                        "value": 0
                    },
                    {
                        "number": 64,
                        "time": 91.41765150000005,
                        "value": 1
                    },
                    {
                        "number": 64,
                        "time": 91.82672000000005,
                        "value": 0
                    },
                    {
                        "number": 64,
                        "time": 91.89184533333338,
                        "value": 1
                    },
                    {
                        "number": 64,
                        "time": 92.32126550000005,
                        "value": 0
                    },
                    {
                        "number": 64,
                        "time": 92.39046116666673,
                        "value": 1
                    },
                    {
                        "number": 64,
                        "time": 92.81479341666673,
                        "value": 0
                    },
                    {
                        "number": 64,
                        "time": 92.88297150000007,
                        "value": 1
                    },
                    {
                        "number": 64,
                        "time": 93.31035650000007,
                        "value": 0
                    },
                    {
                        "number": 64,
                        "time": 93.37446425000007,
                        "value": 1
                    },
                    {
                        "number": 64,
                        "time": 93.78353275000008,
                        "value": 0
                    },
                    {
                        "number": 64,
                        "time": 93.87409766666674,
                        "value": 1
                    },
                    {
                        "number": 64,
                        "time": 94.28927166666674,
                        "value": 0
                    },
                    {
                        "number": 64,
                        "time": 94.36966075000007,
                        "value": 1
                    },
                    {
                        "number": 64,
                        "time": 94.77872925000007,
                        "value": 0
                    },
                    {
                        "number": 64,
                        "time": 94.87947000000007,
                        "value": 1
                    },
                    {
                        "number": 64,
                        "time": 95.26716925000007,
                        "value": 0
                    },
                    {
                        "number": 64,
                        "time": 95.36078691666673,
                        "value": 1
                    },
                    {
                        "number": 64,
                        "time": 95.74238066666672,
                        "value": 0
                    },
                    {
                        "number": 64,
                        "time": 95.82073458333339,
                        "value": 1
                    },
                    {
                        "number": 64,
                        "time": 96.23285583333339,
                        "value": 0
                    },
                    {
                        "number": 64,
                        "time": 96.30917458333339,
                        "value": 1
                    },
                    {
                        "number": 64,
                        "time": 96.72841891666673,
                        "value": 0
                    },
                    {
                        "number": 64,
                        "time": 96.81186075000006,
                        "value": 1
                    },
                    {
                        "number": 64,
                        "time": 97.20770066666674,
                        "value": 0
                    },
                    {
                        "number": 64,
                        "time": 97.30030075000008,
                        "value": 1
                    },
                    {
                        "number": 64,
                        "time": 97.69512308333341,
                        "value": 0
                    },
                    {
                        "number": 64,
                        "time": 97.79586383333341,
                        "value": 1
                    },
                    {
                        "number": 64,
                        "time": 99.69263916666675,
                        "value": 0
                    },
                    {
                        "number": 64,
                        "time": 99.76387000000008,
                        "value": 1
                    },
                    {
                        "number": 64,
                        "time": 101.64639916666675,
                        "value": 0
                    },
                    {
                        "number": 64,
                        "time": 101.68913766666675,
                        "value": 1
                    },
                    {
                        "number": 64,
                        "time": 103.60015916666676,
                        "value": 0
                    },
                    {
                        "number": 64,
                        "time": 103.65409108333343,
                        "value": 1
                    },
                    {
                        "number": 64,
                        "time": 105.50914550000009,
                        "value": 0
                    },
                    {
                        "number": 64,
                        "time": 105.57935875000008,
                        "value": 1
                    },
                    {
                        "number": 64,
                        "time": 109.41056000000009,
                        "value": 0
                    },
                    {
                        "number": 64,
                        "time": 109.51842383333343,
                        "value": 1
                    },
                    {
                        "number": 64,
                        "time": 111.36432000000009,
                        "value": 0
                    },
                    {
                        "number": 64,
                        "time": 111.47218383333343,
                        "value": 1
                    },
                    {
                        "number": 64,
                        "time": 113.3180800000001,
                        "value": 0
                    },
                    {
                        "number": 64,
                        "time": 113.42594383333343,
                        "value": 1
                    },
                    {
                        "number": 64,
                        "time": 115.2718400000001,
                        "value": 0
                    },
                    {
                        "number": 64,
                        "time": 115.37970383333344,
                        "value": 1
                    },
                    {
                        "number": 64,
                        "time": 117.23374066666678,
                        "value": 0
                    },
                    {
                        "number": 64,
                        "time": 117.32634075000011,
                        "value": 1
                    },
                    {
                        "number": 64,
                        "time": 119.18648308333344,
                        "value": 0
                    },
                    {
                        "number": 64,
                        "time": 119.2801007500001,
                        "value": 1
                    },
                    {
                        "number": 64,
                        "time": 121.14024308333343,
                        "value": 0
                    },
                    {
                        "number": 64,
                        "time": 121.23386075000009,
                        "value": 1
                    },
                    {
                        "number": 64,
                        "time": 125.06913233333343,
                        "value": 0
                    },
                    {
                        "number": 64,
                        "time": 125.10576533333342,
                        "value": 1
                    },
                    {
                        "number": 64,
                        "time": 126.03176616666676,
                        "value": 0
                    },
                    {
                        "number": 64,
                        "time": 126.11826075000009,
                        "value": 1
                    },
                    {
                        "number": 64,
                        "time": 127.02289233333342,
                        "value": 0
                    },
                    {
                        "number": 64,
                        "time": 127.05952533333341,
                        "value": 1
                    },
                    {
                        "number": 64,
                        "time": 127.98552616666674,
                        "value": 0
                    },
                    {
                        "number": 64,
                        "time": 128.07202075000006,
                        "value": 1
                    },
                    {
                        "number": 64,
                        "time": 128.96240616666674,
                        "value": 0
                    },
                    {
                        "number": 64,
                        "time": 129.04890075000006,
                        "value": 1
                    },
                    {
                        "number": 64,
                        "time": 129.93928616666673,
                        "value": 0
                    },
                    {
                        "number": 64,
                        "time": 130.02578075000005,
                        "value": 1
                    },
                    {
                        "number": 64,
                        "time": 130.9182013333334,
                        "value": 0
                    },
                    {
                        "number": 64,
                        "time": 130.99553766666673,
                        "value": 1
                    },
                    {
                        "number": 64,
                        "time": 131.40765891666675,
                        "value": 0
                    },
                    {
                        "number": 64,
                        "time": 131.48906558333343,
                        "value": 1
                    },
                    {
                        "number": 64,
                        "time": 131.8940637500001,
                        "value": 0
                    },
                    {
                        "number": 64,
                        "time": 131.96631216666677,
                        "value": 1
                    },
                    {
                        "number": 64,
                        "time": 132.38759166666676,
                        "value": 0
                    },
                    {
                        "number": 64,
                        "time": 132.47205108333344,
                        "value": 1
                    },
                    {
                        "number": 64,
                        "time": 132.86992616666677,
                        "value": 0
                    },
                    {
                        "number": 64,
                        "time": 132.9564207500001,
                        "value": 1
                    },
                    {
                        "number": 64,
                        "time": 133.84680616666677,
                        "value": 0
                    },
                    {
                        "number": 64,
                        "time": 133.9333007500001,
                        "value": 1
                    },
                    {
                        "number": 64,
                        "time": 134.82572133333343,
                        "value": 0
                    },
                    {
                        "number": 64,
                        "time": 134.90305766666677,
                        "value": 1
                    },
                    {
                        "number": 64,
                        "time": 135.31517891666678,
                        "value": 0
                    },
                    {
                        "number": 64,
                        "time": 135.39658558333346,
                        "value": 1
                    },
                    {
                        "number": 64,
                        "time": 135.80158375000013,
                        "value": 0
                    },
                    {
                        "number": 64,
                        "time": 135.8738321666668,
                        "value": 1
                    },
                    {
                        "number": 64,
                        "time": 136.2951116666668,
                        "value": 0
                    },
                    {
                        "number": 64,
                        "time": 136.37957108333347,
                        "value": 1
                    },
                    {
                        "number": 64,
                        "time": 136.7774461666668,
                        "value": 0
                    },
                    {
                        "number": 64,
                        "time": 136.86394075000013,
                        "value": 1
                    },
                    {
                        "number": 64,
                        "time": 140.67072000000013,
                        "value": 0
                    },
                    {
                        "number": 64,
                        "time": 141.15916000000013,
                        "value": 1
                    },
                    {
                        "number": 64,
                        "time": 143.6156061666668,
                        "value": 0
                    },
                    {
                        "number": 64,
                        "time": 144.6932269166668,
                        "value": 1
                    },
                    {
                        "number": 64,
                        "time": 145.02394150000012,
                        "value": 0
                    },
                    {
                        "number": 64,
                        "time": 146.61849458333344,
                        "value": 1
                    },
                    {
                        "number": 64,
                        "time": 147.39389308333344,
                        "value": 0
                    }
                ]
            },
            "id": 3,
            "name": "Pedale",
            "instrumentNumber": 0,
            "instrument": "acoustic grand piano",
            "instrumentFamily": "piano",
            "channelNumber": 0,
            "isPercussion": false
        },
        {
            "startTime": 0,
            "duration": 0,
            "length": 0,
            "notes": [],
            "controlChanges": {},
            "id": 4,
            "name": "Debussy: Childrens Corner 1"
        },
        {
            "startTime": 0,
            "duration": 0,
            "length": 0,
            "notes": [],
            "controlChanges": {},
            "id": 5,
            "name": "Copyright  2010 by Bernd Krueger"
        },
        {
            "startTime": 0,
            "duration": 0,
            "length": 0,
            "notes": [],
            "controlChanges": {},
            "id": 6,
            "name": "http://www.piano-midi.de/"
        },
        {
            "startTime": 0,
            "duration": 0,
            "length": 0,
            "notes": [],
            "controlChanges": {},
            "id": 7,
            "name": "Edition: 2011-05-12"
        },
        {
            "startTime": 0,
            "duration": 0,
            "length": 0,
            "notes": [],
            "controlChanges": {},
            "id": 8,
            "name": "Spur 8"
        },
        {
            "startTime": 0,
            "duration": 0,
            "length": 0,
            "notes": [],
            "controlChanges": {},
            "id": 9,
            "name": "Spur 9"
        },
        {
            "startTime": 0,
            "duration": 0,
            "length": 0,
            "notes": [],
            "controlChanges": {},
            "id": 10,
            "name": "Spur 10"
        },
        {
            "startTime": 0,
            "duration": 0,
            "length": 0,
            "notes": [],
            "controlChanges": {},
            "id": 11,
            "name": "Spur 11"
        },
        {
            "startTime": 0,
            "duration": 0,
            "length": 0,
            "notes": [],
            "controlChanges": {},
            "id": 12,
            "name": "Spur 12"
        },
        {
            "startTime": 0,
            "duration": 0,
            "length": 0,
            "notes": [],
            "controlChanges": {},
            "id": 13,
            "name": "Spur 13"
        },
        {
            "startTime": 0,
            "duration": 0,
            "length": 0,
            "notes": [],
            "controlChanges": {},
            "id": 14,
            "name": "Spur 14"
        },
        {
            "startTime": 0,
            "duration": 0,
            "length": 0,
            "notes": [],
            "controlChanges": {},
            "id": 15,
            "name": "Spur 15"
        },
        {
            "startTime": 0,
            "duration": 0,
            "length": 0,
            "notes": [],
            "controlChanges": {},
            "id": 16,
            "name": "Spur 16"
        }
    ]
}