{
    "header": {
        "PPQ": 480,
        "timeSignature": [
            2,
            4
        ],
        "bpm": 162.000162000162,
        "name": "Zug der Zwerge Op 54, No. 3"
    },
    "startTime": 0,
    "duration": 143.14800499999868,
    "tracks": [
        {
            "startTime": 0,
            "duration": 0,
            "length": 0,
            "notes": [],
            "controlChanges": {},
            "id": 0,
            "name": "Zug der Zwerge Op 54, No. 3"
        },
        {
            "startTime": 1.2962950000000002,
            "duration": 143.14800499999868,
            "length": 1325,
            "notes": [
                {
                    "name": "D4",
                    "midi": 62,
                    "time": 1.2962950000000002,
                    "velocity": 0.28346456692913385,
                    "duration": 0.04629624999999993
                },
                {
                    "name": "E4",
                    "midi": 64,
                    "time": 1.3425912500000001,
                    "velocity": 0.28346456692913385,
                    "duration": 0.04629624999999993
                },
                {
                    "name": "F4",
                    "midi": 65,
                    "time": 1.3888875,
                    "velocity": 0.28346456692913385,
                    "duration": 0.04629624999999993
                },
                {
                    "name": "G4",
                    "midi": 67,
                    "time": 1.43518375,
                    "velocity": 0.28346456692913385,
                    "duration": 0.04629624999999993
                },
                {
                    "name": "A4",
                    "midi": 69,
                    "time": 1.48148,
                    "velocity": 0.2992125984251969,
                    "duration": 0.09259250000000008
                },
                {
                    "name": "D5",
                    "midi": 74,
                    "time": 1.666665,
                    "velocity": 0.2677165354330709,
                    "duration": 0.09259250000000008
                },
                {
                    "name": "D4",
                    "midi": 62,
                    "time": 1.666665,
                    "velocity": 0.2677165354330709,
                    "duration": 0.09259250000000008
                },
                {
                    "name": "F4",
                    "midi": 65,
                    "time": 1.666665,
                    "velocity": 0.2677165354330709,
                    "duration": 0.09259250000000008
                },
                {
                    "name": "D4",
                    "midi": 62,
                    "time": 1.8518500000000002,
                    "velocity": 0.2677165354330709,
                    "duration": 0.09259250000000008
                },
                {
                    "name": "D5",
                    "midi": 74,
                    "time": 1.8518500000000002,
                    "velocity": 0.2677165354330709,
                    "duration": 0.09259250000000008
                },
                {
                    "name": "F4",
                    "midi": 65,
                    "time": 1.8518500000000002,
                    "velocity": 0.2677165354330709,
                    "duration": 0.09259250000000008
                },
                {
                    "name": "C#5",
                    "midi": 73,
                    "time": 2.0370350000000004,
                    "velocity": 0.2677165354330709,
                    "duration": 0.09259249999999986
                },
                {
                    "name": "D4",
                    "midi": 62,
                    "time": 2.0370350000000004,
                    "velocity": 0.2677165354330709,
                    "duration": 0.09259249999999986
                },
                {
                    "name": "F4",
                    "midi": 65,
                    "time": 2.0370350000000004,
                    "velocity": 0.2677165354330709,
                    "duration": 0.09259249999999986
                },
                {
                    "name": "C#5",
                    "midi": 73,
                    "time": 2.22222,
                    "velocity": 0.28346456692913385,
                    "duration": 0.09259249999999986
                },
                {
                    "name": "D4",
                    "midi": 62,
                    "time": 2.22222,
                    "velocity": 0.28346456692913385,
                    "duration": 0.09259249999999986
                },
                {
                    "name": "F4",
                    "midi": 65,
                    "time": 2.22222,
                    "velocity": 0.28346456692913385,
                    "duration": 0.09259249999999986
                },
                {
                    "name": "F4",
                    "midi": 65,
                    "time": 2.407405,
                    "velocity": 0.2677165354330709,
                    "duration": 0.09259249999999986
                },
                {
                    "name": "D4",
                    "midi": 62,
                    "time": 2.407405,
                    "velocity": 0.2677165354330709,
                    "duration": 0.09259249999999986
                },
                {
                    "name": "C5",
                    "midi": 72,
                    "time": 2.407405,
                    "velocity": 0.2677165354330709,
                    "duration": 0.09259249999999986
                },
                {
                    "name": "C5",
                    "midi": 72,
                    "time": 2.5925899999999995,
                    "velocity": 0.2677165354330709,
                    "duration": 0.09259249999999986
                },
                {
                    "name": "D4",
                    "midi": 62,
                    "time": 2.5925899999999995,
                    "velocity": 0.2677165354330709,
                    "duration": 0.09259249999999986
                },
                {
                    "name": "F4",
                    "midi": 65,
                    "time": 2.5925899999999995,
                    "velocity": 0.2677165354330709,
                    "duration": 0.09259249999999986
                },
                {
                    "name": "D4",
                    "midi": 62,
                    "time": 2.777774999999999,
                    "velocity": 0.2677165354330709,
                    "duration": 0.09259249999999986
                },
                {
                    "name": "B4",
                    "midi": 71,
                    "time": 2.777774999999999,
                    "velocity": 0.2677165354330709,
                    "duration": 0.09259249999999986
                },
                {
                    "name": "F4",
                    "midi": 65,
                    "time": 2.777774999999999,
                    "velocity": 0.2677165354330709,
                    "duration": 0.09259249999999986
                },
                {
                    "name": "B4",
                    "midi": 71,
                    "time": 2.962959999999999,
                    "velocity": 0.28346456692913385,
                    "duration": 0.09259249999999986
                },
                {
                    "name": "D4",
                    "midi": 62,
                    "time": 2.962959999999999,
                    "velocity": 0.28346456692913385,
                    "duration": 0.09259249999999986
                },
                {
                    "name": "F4",
                    "midi": 65,
                    "time": 2.962959999999999,
                    "velocity": 0.28346456692913385,
                    "duration": 0.09259249999999986
                },
                {
                    "name": "A#4",
                    "midi": 70,
                    "time": 3.1481449999999986,
                    "velocity": 0.25984251968503935,
                    "duration": 0.09259249999999986
                },
                {
                    "name": "D4",
                    "midi": 62,
                    "time": 3.1481449999999986,
                    "velocity": 0.25984251968503935,
                    "duration": 0.09259249999999986
                },
                {
                    "name": "F4",
                    "midi": 65,
                    "time": 3.1481449999999986,
                    "velocity": 0.25984251968503935,
                    "duration": 0.09259249999999986
                },
                {
                    "name": "F4",
                    "midi": 65,
                    "time": 3.3333299999999983,
                    "velocity": 0.25984251968503935,
                    "duration": 0.09259249999999986
                },
                {
                    "name": "D4",
                    "midi": 62,
                    "time": 3.3333299999999983,
                    "velocity": 0.25984251968503935,
                    "duration": 0.09259249999999986
                },
                {
                    "name": "A#4",
                    "midi": 70,
                    "time": 3.3333299999999983,
                    "velocity": 0.25984251968503935,
                    "duration": 0.09259249999999986
                },
                {
                    "name": "A4",
                    "midi": 69,
                    "time": 3.518514999999998,
                    "velocity": 0.25196850393700787,
                    "duration": 0.09259249999999986
                },
                {
                    "name": "D4",
                    "midi": 62,
                    "time": 3.518514999999998,
                    "velocity": 0.25196850393700787,
                    "duration": 0.09259249999999986
                },
                {
                    "name": "F4",
                    "midi": 65,
                    "time": 3.518514999999998,
                    "velocity": 0.25196850393700787,
                    "duration": 0.09259249999999986
                },
                {
                    "name": "B3",
                    "midi": 59,
                    "time": 3.7036999999999978,
                    "velocity": 0.33858267716535434,
                    "duration": 0.09259249999999986
                },
                {
                    "name": "G#4",
                    "midi": 68,
                    "time": 3.7036999999999978,
                    "velocity": 0.33858267716535434,
                    "duration": 0.09259249999999986
                },
                {
                    "name": "E4",
                    "midi": 64,
                    "time": 3.7036999999999978,
                    "velocity": 0.33858267716535434,
                    "duration": 0.09259249999999986
                },
                {
                    "name": "E4",
                    "midi": 64,
                    "time": 3.8888849999999975,
                    "velocity": 0.33858267716535434,
                    "duration": 0.3703700000000003
                },
                {
                    "name": "G#4",
                    "midi": 68,
                    "time": 3.8888849999999975,
                    "velocity": 0.33858267716535434,
                    "duration": 0.3703700000000003
                },
                {
                    "name": "B3",
                    "midi": 59,
                    "time": 3.8888849999999975,
                    "velocity": 0.33858267716535434,
                    "duration": 0.3703700000000003
                },
                {
                    "name": "G4",
                    "midi": 67,
                    "time": 4.259254999999998,
                    "velocity": 0.28346456692913385,
                    "duration": 0.04629625000000015
                },
                {
                    "name": "A4",
                    "midi": 69,
                    "time": 4.305551249999998,
                    "velocity": 0.28346456692913385,
                    "duration": 0.04629625000000015
                },
                {
                    "name": "A#4",
                    "midi": 70,
                    "time": 4.351847499999998,
                    "velocity": 0.28346456692913385,
                    "duration": 0.04629625000000015
                },
                {
                    "name": "C5",
                    "midi": 72,
                    "time": 4.398143749999998,
                    "velocity": 0.28346456692913385,
                    "duration": 0.04629625000000015
                },
                {
                    "name": "D5",
                    "midi": 74,
                    "time": 4.444439999999998,
                    "velocity": 0.2992125984251969,
                    "duration": 0.0925925000000003
                },
                {
                    "name": "G4",
                    "midi": 67,
                    "time": 4.629624999999999,
                    "velocity": 0.2677165354330709,
                    "duration": 0.0925925000000003
                },
                {
                    "name": "A#4",
                    "midi": 70,
                    "time": 4.629624999999999,
                    "velocity": 0.2677165354330709,
                    "duration": 0.0925925000000003
                },
                {
                    "name": "G5",
                    "midi": 79,
                    "time": 4.629624999999999,
                    "velocity": 0.2677165354330709,
                    "duration": 0.0925925000000003
                },
                {
                    "name": "A#4",
                    "midi": 70,
                    "time": 4.81481,
                    "velocity": 0.2677165354330709,
                    "duration": 0.0925925000000003
                },
                {
                    "name": "G5",
                    "midi": 79,
                    "time": 4.81481,
                    "velocity": 0.2677165354330709,
                    "duration": 0.0925925000000003
                },
                {
                    "name": "G4",
                    "midi": 67,
                    "time": 4.81481,
                    "velocity": 0.2677165354330709,
                    "duration": 0.0925925000000003
                },
                {
                    "name": "F#5",
                    "midi": 78,
                    "time": 4.999995,
                    "velocity": 0.2677165354330709,
                    "duration": 0.0925925000000003
                },
                {
                    "name": "G4",
                    "midi": 67,
                    "time": 4.999995,
                    "velocity": 0.2677165354330709,
                    "duration": 0.0925925000000003
                },
                {
                    "name": "A#4",
                    "midi": 70,
                    "time": 4.999995,
                    "velocity": 0.2677165354330709,
                    "duration": 0.0925925000000003
                },
                {
                    "name": "A#4",
                    "midi": 70,
                    "time": 5.185180000000001,
                    "velocity": 0.28346456692913385,
                    "duration": 0.0925925000000003
                },
                {
                    "name": "F#5",
                    "midi": 78,
                    "time": 5.185180000000001,
                    "velocity": 0.28346456692913385,
                    "duration": 0.0925925000000003
                },
                {
                    "name": "G4",
                    "midi": 67,
                    "time": 5.185180000000001,
                    "velocity": 0.28346456692913385,
                    "duration": 0.0925925000000003
                },
                {
                    "name": "F5",
                    "midi": 77,
                    "time": 5.370365000000001,
                    "velocity": 0.2677165354330709,
                    "duration": 0.0925925000000003
                },
                {
                    "name": "A#4",
                    "midi": 70,
                    "time": 5.370365000000001,
                    "velocity": 0.2677165354330709,
                    "duration": 0.0925925000000003
                },
                {
                    "name": "G4",
                    "midi": 67,
                    "time": 5.370365000000001,
                    "velocity": 0.2677165354330709,
                    "duration": 0.0925925000000003
                },
                {
                    "name": "A#4",
                    "midi": 70,
                    "time": 5.555550000000002,
                    "velocity": 0.2677165354330709,
                    "duration": 0.0925925000000003
                },
                {
                    "name": "F5",
                    "midi": 77,
                    "time": 5.555550000000002,
                    "velocity": 0.2677165354330709,
                    "duration": 0.0925925000000003
                },
                {
                    "name": "G4",
                    "midi": 67,
                    "time": 5.555550000000002,
                    "velocity": 0.2677165354330709,
                    "duration": 0.0925925000000003
                },
                {
                    "name": "A#4",
                    "midi": 70,
                    "time": 5.740735000000003,
                    "velocity": 0.2677165354330709,
                    "duration": 0.0925925000000003
                },
                {
                    "name": "G4",
                    "midi": 67,
                    "time": 5.740735000000003,
                    "velocity": 0.2677165354330709,
                    "duration": 0.0925925000000003
                },
                {
                    "name": "E5",
                    "midi": 76,
                    "time": 5.740735000000003,
                    "velocity": 0.2677165354330709,
                    "duration": 0.0925925000000003
                },
                {
                    "name": "E5",
                    "midi": 76,
                    "time": 5.925920000000003,
                    "velocity": 0.28346456692913385,
                    "duration": 0.0925925000000003
                },
                {
                    "name": "A#4",
                    "midi": 70,
                    "time": 5.925920000000003,
                    "velocity": 0.28346456692913385,
                    "duration": 0.0925925000000003
                },
                {
                    "name": "G4",
                    "midi": 67,
                    "time": 5.925920000000003,
                    "velocity": 0.28346456692913385,
                    "duration": 0.0925925000000003
                },
                {
                    "name": "D#5",
                    "midi": 75,
                    "time": 6.111105000000004,
                    "velocity": 0.25196850393700787,
                    "duration": 0.0925925000000003
                },
                {
                    "name": "G4",
                    "midi": 67,
                    "time": 6.111105000000004,
                    "velocity": 0.25196850393700787,
                    "duration": 0.0925925000000003
                },
                {
                    "name": "A#4",
                    "midi": 70,
                    "time": 6.111105000000004,
                    "velocity": 0.25196850393700787,
                    "duration": 0.0925925000000003
                },
                {
                    "name": "D#5",
                    "midi": 75,
                    "time": 6.296290000000004,
                    "velocity": 0.25196850393700787,
                    "duration": 0.0925925000000003
                },
                {
                    "name": "G4",
                    "midi": 67,
                    "time": 6.296290000000004,
                    "velocity": 0.25196850393700787,
                    "duration": 0.0925925000000003
                },
                {
                    "name": "A#4",
                    "midi": 70,
                    "time": 6.296290000000004,
                    "velocity": 0.25196850393700787,
                    "duration": 0.0925925000000003
                },
                {
                    "name": "D5",
                    "midi": 74,
                    "time": 6.481475000000005,
                    "velocity": 0.25196850393700787,
                    "duration": 0.0925925000000003
                },
                {
                    "name": "G4",
                    "midi": 67,
                    "time": 6.481475000000005,
                    "velocity": 0.25196850393700787,
                    "duration": 0.0925925000000003
                },
                {
                    "name": "A#4",
                    "midi": 70,
                    "time": 6.481475000000005,
                    "velocity": 0.25196850393700787,
                    "duration": 0.0925925000000003
                },
                {
                    "name": "E4",
                    "midi": 64,
                    "time": 6.666660000000006,
                    "velocity": 0.3464566929133858,
                    "duration": 0.0925925000000003
                },
                {
                    "name": "C#5",
                    "midi": 73,
                    "time": 6.666660000000006,
                    "velocity": 0.3464566929133858,
                    "duration": 0.0925925000000003
                },
                {
                    "name": "A4",
                    "midi": 69,
                    "time": 6.666660000000006,
                    "velocity": 0.3464566929133858,
                    "duration": 0.0925925000000003
                },
                {
                    "name": "E4",
                    "midi": 64,
                    "time": 6.851845000000006,
                    "velocity": 0.3464566929133858,
                    "duration": 0.3703700000000003
                },
                {
                    "name": "C#5",
                    "midi": 73,
                    "time": 6.851845000000006,
                    "velocity": 0.3464566929133858,
                    "duration": 0.3703700000000003
                },
                {
                    "name": "A4",
                    "midi": 69,
                    "time": 6.851845000000006,
                    "velocity": 0.3464566929133858,
                    "duration": 0.3703700000000003
                },
                {
                    "name": "D5",
                    "midi": 74,
                    "time": 7.407400000000006,
                    "velocity": 0.36220472440944884,
                    "duration": 0.04629625000000015
                },
                {
                    "name": "E5",
                    "midi": 76,
                    "time": 7.453696250000006,
                    "velocity": 0.2755905511811024,
                    "duration": 0.04629625000000015
                },
                {
                    "name": "F5",
                    "midi": 77,
                    "time": 7.4999925000000065,
                    "velocity": 0.2755905511811024,
                    "duration": 0.04629625000000015
                },
                {
                    "name": "G5",
                    "midi": 79,
                    "time": 7.546288750000007,
                    "velocity": 0.2755905511811024,
                    "duration": 0.04629625000000015
                },
                {
                    "name": "A5",
                    "midi": 81,
                    "time": 7.592585000000007,
                    "velocity": 0.31496062992125984,
                    "duration": 0.0925925000000003
                },
                {
                    "name": "G5",
                    "midi": 79,
                    "time": 7.777770000000007,
                    "velocity": 0.36220472440944884,
                    "duration": 0.04629625000000015
                },
                {
                    "name": "F5",
                    "midi": 77,
                    "time": 7.8240662500000075,
                    "velocity": 0.28346456692913385,
                    "duration": 0.04629625000000015
                },
                {
                    "name": "E5",
                    "midi": 76,
                    "time": 7.870362500000008,
                    "velocity": 0.28346456692913385,
                    "duration": 0.04629625000000015
                },
                {
                    "name": "D5",
                    "midi": 74,
                    "time": 7.916658750000008,
                    "velocity": 0.28346456692913385,
                    "duration": 0.04629625000000015
                },
                {
                    "name": "C5",
                    "midi": 72,
                    "time": 7.962955000000008,
                    "velocity": 0.31496062992125984,
                    "duration": 0.0925925000000003
                },
                {
                    "name": "A#4",
                    "midi": 70,
                    "time": 8.148140000000009,
                    "velocity": 0.3543307086614173,
                    "duration": 0.04629624999999926
                },
                {
                    "name": "C5",
                    "midi": 72,
                    "time": 8.194436250000008,
                    "velocity": 0.28346456692913385,
                    "duration": 0.04629624999999926
                },
                {
                    "name": "D5",
                    "midi": 74,
                    "time": 8.240732500000007,
                    "velocity": 0.28346456692913385,
                    "duration": 0.04629624999999926
                },
                {
                    "name": "E5",
                    "midi": 76,
                    "time": 8.287028750000006,
                    "velocity": 0.28346456692913385,
                    "duration": 0.04629624999999926
                },
                {
                    "name": "F5",
                    "midi": 77,
                    "time": 8.333325000000006,
                    "velocity": 0.3228346456692913,
                    "duration": 0.0925925000000003
                },
                {
                    "name": "E5",
                    "midi": 76,
                    "time": 8.518510000000006,
                    "velocity": 0.36220472440944884,
                    "duration": 0.04629624999999926
                },
                {
                    "name": "D5",
                    "midi": 74,
                    "time": 8.564806250000006,
                    "velocity": 0.29133858267716534,
                    "duration": 0.04629624999999926
                },
                {
                    "name": "C5",
                    "midi": 72,
                    "time": 8.611102500000005,
                    "velocity": 0.29133858267716534,
                    "duration": 0.04629624999999926
                },
                {
                    "name": "A#4",
                    "midi": 70,
                    "time": 8.657398750000004,
                    "velocity": 0.29133858267716534,
                    "duration": 0.04629624999999926
                },
                {
                    "name": "A4",
                    "midi": 69,
                    "time": 8.703695000000003,
                    "velocity": 0.33858267716535434,
                    "duration": 0.0925925000000003
                },
                {
                    "name": "G4",
                    "midi": 67,
                    "time": 8.888880000000004,
                    "velocity": 0.36220472440944884,
                    "duration": 0.04629624999999926
                },
                {
                    "name": "A4",
                    "midi": 69,
                    "time": 8.935176250000003,
                    "velocity": 0.29133858267716534,
                    "duration": 0.04629624999999926
                },
                {
                    "name": "A#4",
                    "midi": 70,
                    "time": 8.981472500000002,
                    "velocity": 0.29133858267716534,
                    "duration": 0.04629624999999926
                },
                {
                    "name": "C5",
                    "midi": 72,
                    "time": 9.027768750000002,
                    "velocity": 0.29133858267716534,
                    "duration": 0.04629624999999926
                },
                {
                    "name": "D5",
                    "midi": 74,
                    "time": 9.074065000000001,
                    "velocity": 0.3464566929133858,
                    "duration": 0.0925925000000003
                },
                {
                    "name": "C5",
                    "midi": 72,
                    "time": 9.259250000000002,
                    "velocity": 0.3700787401574803,
                    "duration": 0.04629624999999926
                },
                {
                    "name": "A#4",
                    "midi": 70,
                    "time": 9.30554625,
                    "velocity": 0.29133858267716534,
                    "duration": 0.04629624999999926
                },
                {
                    "name": "A4",
                    "midi": 69,
                    "time": 9.3518425,
                    "velocity": 0.29133858267716534,
                    "duration": 0.04629624999999926
                },
                {
                    "name": "G4",
                    "midi": 67,
                    "time": 9.39813875,
                    "velocity": 0.29133858267716534,
                    "duration": 0.04629624999999926
                },
                {
                    "name": "F4",
                    "midi": 65,
                    "time": 9.444434999999999,
                    "velocity": 0.33858267716535434,
                    "duration": 0.0925925000000003
                },
                {
                    "name": "E4",
                    "midi": 64,
                    "time": 9.814805,
                    "velocity": 0.3543307086614173,
                    "duration": 0.555555
                },
                {
                    "name": "A3",
                    "midi": 57,
                    "time": 9.814805,
                    "velocity": 0.3543307086614173,
                    "duration": 0.555555
                },
                {
                    "name": "D6",
                    "midi": 86,
                    "time": 10.37036,
                    "velocity": 0.3700787401574803,
                    "duration": 0.04629624999999926
                },
                {
                    "name": "C6",
                    "midi": 84,
                    "time": 10.416656249999999,
                    "velocity": 0.29133858267716534,
                    "duration": 0.04629624999999926
                },
                {
                    "name": "A#5",
                    "midi": 82,
                    "time": 10.462952499999998,
                    "velocity": 0.29133858267716534,
                    "duration": 0.04629624999999926
                },
                {
                    "name": "A5",
                    "midi": 81,
                    "time": 10.509248749999998,
                    "velocity": 0.29133858267716534,
                    "duration": 0.04629624999999926
                },
                {
                    "name": "G5",
                    "midi": 79,
                    "time": 10.555544999999997,
                    "velocity": 0.31496062992125984,
                    "duration": 0.0925925000000003
                },
                {
                    "name": "D5",
                    "midi": 74,
                    "time": 10.740729999999997,
                    "velocity": 0.3779527559055118,
                    "duration": 0.04629624999999926
                },
                {
                    "name": "C5",
                    "midi": 72,
                    "time": 10.787026249999997,
                    "velocity": 0.29133858267716534,
                    "duration": 0.04629624999999926
                },
                {
                    "name": "A#4",
                    "midi": 70,
                    "time": 10.833322499999996,
                    "velocity": 0.29133858267716534,
                    "duration": 0.04629624999999926
                },
                {
                    "name": "A4",
                    "midi": 69,
                    "time": 10.879618749999995,
                    "velocity": 0.29133858267716534,
                    "duration": 0.04629624999999926
                },
                {
                    "name": "G4",
                    "midi": 67,
                    "time": 10.925914999999994,
                    "velocity": 0.31496062992125984,
                    "duration": 0.0925925000000003
                },
                {
                    "name": "E4",
                    "midi": 64,
                    "time": 11.296284999999994,
                    "velocity": 0.3543307086614173,
                    "duration": 0.555555
                },
                {
                    "name": "A3",
                    "midi": 57,
                    "time": 11.296284999999994,
                    "velocity": 0.3543307086614173,
                    "duration": 0.555555
                },
                {
                    "name": "D6",
                    "midi": 86,
                    "time": 11.851839999999994,
                    "velocity": 0.3700787401574803,
                    "duration": 0.04629624999999926
                },
                {
                    "name": "C6",
                    "midi": 84,
                    "time": 11.898136249999993,
                    "velocity": 0.29133858267716534,
                    "duration": 0.04629624999999926
                },
                {
                    "name": "A#5",
                    "midi": 82,
                    "time": 11.944432499999992,
                    "velocity": 0.29133858267716534,
                    "duration": 0.04629624999999926
                },
                {
                    "name": "A5",
                    "midi": 81,
                    "time": 11.990728749999992,
                    "velocity": 0.29133858267716534,
                    "duration": 0.04629624999999926
                },
                {
                    "name": "G5",
                    "midi": 79,
                    "time": 12.037024999999991,
                    "velocity": 0.31496062992125984,
                    "duration": 0.0925925000000003
                },
                {
                    "name": "D5",
                    "midi": 74,
                    "time": 12.222209999999992,
                    "velocity": 0.3779527559055118,
                    "duration": 0.04629624999999926
                },
                {
                    "name": "C5",
                    "midi": 72,
                    "time": 12.26850624999999,
                    "velocity": 0.29133858267716534,
                    "duration": 0.04629624999999926
                },
                {
                    "name": "A#4",
                    "midi": 70,
                    "time": 12.31480249999999,
                    "velocity": 0.29133858267716534,
                    "duration": 0.04629624999999926
                },
                {
                    "name": "A4",
                    "midi": 69,
                    "time": 12.36109874999999,
                    "velocity": 0.29133858267716534,
                    "duration": 0.04629624999999926
                },
                {
                    "name": "G4",
                    "midi": 67,
                    "time": 12.407394999999989,
                    "velocity": 0.31496062992125984,
                    "duration": 0.0925925000000003
                },
                {
                    "name": "A3",
                    "midi": 57,
                    "time": 12.777764999999988,
                    "velocity": 0.3543307086614173,
                    "duration": 0.1851850000000006
                },
                {
                    "name": "E4",
                    "midi": 64,
                    "time": 12.777764999999988,
                    "velocity": 0.3543307086614173,
                    "duration": 0.1851850000000006
                },
                {
                    "name": "D5",
                    "midi": 74,
                    "time": 12.962949999999989,
                    "velocity": 0.31496062992125984,
                    "duration": 0.04629624999999926
                },
                {
                    "name": "C5",
                    "midi": 72,
                    "time": 13.009246249999988,
                    "velocity": 0.28346456692913385,
                    "duration": 0.04629624999999926
                },
                {
                    "name": "A#4",
                    "midi": 70,
                    "time": 13.055542499999987,
                    "velocity": 0.28346456692913385,
                    "duration": 0.04629624999999926
                },
                {
                    "name": "A4",
                    "midi": 69,
                    "time": 13.101838749999986,
                    "velocity": 0.28346456692913385,
                    "duration": 0.04629624999999926
                },
                {
                    "name": "G4",
                    "midi": 67,
                    "time": 13.148134999999986,
                    "velocity": 0.31496062992125984,
                    "duration": 0.0925925000000003
                },
                {
                    "name": "E4",
                    "midi": 64,
                    "time": 13.518504999999987,
                    "velocity": 0.2992125984251969,
                    "duration": 0.1851850000000006
                },
                {
                    "name": "A3",
                    "midi": 57,
                    "time": 13.518504999999987,
                    "velocity": 0.2992125984251969,
                    "duration": 0.1851850000000006
                },
                {
                    "name": "D5",
                    "midi": 74,
                    "time": 13.703689999999987,
                    "velocity": 0.2677165354330709,
                    "duration": 0.04629624999999926
                },
                {
                    "name": "C5",
                    "midi": 72,
                    "time": 13.749986249999987,
                    "velocity": 0.2677165354330709,
                    "duration": 0.04629624999999926
                },
                {
                    "name": "A#4",
                    "midi": 70,
                    "time": 13.796282499999986,
                    "velocity": 0.2677165354330709,
                    "duration": 0.04629624999999926
                },
                {
                    "name": "A4",
                    "midi": 69,
                    "time": 13.842578749999985,
                    "velocity": 0.2677165354330709,
                    "duration": 0.04629624999999926
                },
                {
                    "name": "G4",
                    "midi": 67,
                    "time": 13.888874999999985,
                    "velocity": 0.25196850393700787,
                    "duration": 0.0925925000000003
                },
                {
                    "name": "E4",
                    "midi": 64,
                    "time": 14.259244999999986,
                    "velocity": 0.29133858267716534,
                    "duration": 0.1851850000000006
                },
                {
                    "name": "A3",
                    "midi": 57,
                    "time": 14.259244999999986,
                    "velocity": 0.29133858267716534,
                    "duration": 0.1851850000000006
                },
                {
                    "name": "D5",
                    "midi": 74,
                    "time": 14.444429999999986,
                    "velocity": 0.25196850393700787,
                    "duration": 0.04629624999999926
                },
                {
                    "name": "C5",
                    "midi": 72,
                    "time": 14.490726249999986,
                    "velocity": 0.25196850393700787,
                    "duration": 0.04629624999999926
                },
                {
                    "name": "A#4",
                    "midi": 70,
                    "time": 14.537022499999985,
                    "velocity": 0.25196850393700787,
                    "duration": 0.04629624999999926
                },
                {
                    "name": "A4",
                    "midi": 69,
                    "time": 14.583318749999984,
                    "velocity": 0.25196850393700787,
                    "duration": 0.04629624999999926
                },
                {
                    "name": "G4",
                    "midi": 67,
                    "time": 14.629614999999983,
                    "velocity": 0.2283464566929134,
                    "duration": 0.0925925000000003
                },
                {
                    "name": "E4",
                    "midi": 64,
                    "time": 14.999984999999985,
                    "velocity": 0.2755905511811024,
                    "duration": 0.1851850000000006
                },
                {
                    "name": "A3",
                    "midi": 57,
                    "time": 14.999984999999985,
                    "velocity": 0.2755905511811024,
                    "duration": 0.1851850000000006
                },
                {
                    "name": "D5",
                    "midi": 74,
                    "time": 15.185169999999985,
                    "velocity": 0.25196850393700787,
                    "duration": 0.04629624999999926
                },
                {
                    "name": "C5",
                    "midi": 72,
                    "time": 15.231466249999984,
                    "velocity": 0.25196850393700787,
                    "duration": 0.04629624999999926
                },
                {
                    "name": "A#4",
                    "midi": 70,
                    "time": 15.277762499999984,
                    "velocity": 0.25196850393700787,
                    "duration": 0.04629624999999926
                },
                {
                    "name": "A4",
                    "midi": 69,
                    "time": 15.324058749999983,
                    "velocity": 0.25196850393700787,
                    "duration": 0.04629624999999926
                },
                {
                    "name": "G4",
                    "midi": 67,
                    "time": 15.370354999999982,
                    "velocity": 0.2283464566929134,
                    "duration": 0.0925925000000003
                },
                {
                    "name": "A3",
                    "midi": 57,
                    "time": 15.740724999999983,
                    "velocity": 0.29133858267716534,
                    "duration": 0.0925925000000003
                },
                {
                    "name": "E4",
                    "midi": 64,
                    "time": 15.740724999999983,
                    "velocity": 0.29133858267716534,
                    "duration": 0.0925925000000003
                },
                {
                    "name": "C#4",
                    "midi": 61,
                    "time": 15.740724999999983,
                    "velocity": 0.29133858267716534,
                    "duration": 0.0925925000000003
                },
                {
                    "name": "E4",
                    "midi": 64,
                    "time": 16.111094999999985,
                    "velocity": 0.29133858267716534,
                    "duration": 0.09259249999999852
                },
                {
                    "name": "A#3",
                    "midi": 58,
                    "time": 16.111094999999985,
                    "velocity": 0.29133858267716534,
                    "duration": 0.09259249999999852
                },
                {
                    "name": "C#4",
                    "midi": 61,
                    "time": 16.111094999999985,
                    "velocity": 0.29133858267716534,
                    "duration": 0.09259249999999852
                },
                {
                    "name": "E4",
                    "midi": 64,
                    "time": 16.481464999999982,
                    "velocity": 0.2677165354330709,
                    "duration": 0.09259249999999852
                },
                {
                    "name": "G#3",
                    "midi": 56,
                    "time": 16.481464999999982,
                    "velocity": 0.2677165354330709,
                    "duration": 0.09259249999999852
                },
                {
                    "name": "C#4",
                    "midi": 61,
                    "time": 16.481464999999982,
                    "velocity": 0.2677165354330709,
                    "duration": 0.09259249999999852
                },
                {
                    "name": "C#4",
                    "midi": 61,
                    "time": 16.85183499999998,
                    "velocity": 0.2755905511811024,
                    "duration": 0.09259249999999852
                },
                {
                    "name": "A3",
                    "midi": 57,
                    "time": 16.85183499999998,
                    "velocity": 0.2755905511811024,
                    "duration": 0.09259249999999852
                },
                {
                    "name": "E4",
                    "midi": 64,
                    "time": 16.85183499999998,
                    "velocity": 0.2755905511811024,
                    "duration": 0.09259249999999852
                },
                {
                    "name": "E4",
                    "midi": 64,
                    "time": 17.222204999999978,
                    "velocity": 0.28346456692913385,
                    "duration": 0.09259249999999852
                },
                {
                    "name": "A#3",
                    "midi": 58,
                    "time": 17.222204999999978,
                    "velocity": 0.28346456692913385,
                    "duration": 0.09259249999999852
                },
                {
                    "name": "C#4",
                    "midi": 61,
                    "time": 17.222204999999978,
                    "velocity": 0.28346456692913385,
                    "duration": 0.09259249999999852
                },
                {
                    "name": "B3",
                    "midi": 59,
                    "time": 17.592574999999975,
                    "velocity": 0.31496062992125984,
                    "duration": 0.09259249999999852
                },
                {
                    "name": "E4",
                    "midi": 64,
                    "time": 17.592574999999975,
                    "velocity": 0.31496062992125984,
                    "duration": 0.09259249999999852
                },
                {
                    "name": "C#4",
                    "midi": 61,
                    "time": 17.592574999999975,
                    "velocity": 0.31496062992125984,
                    "duration": 0.09259249999999852
                },
                {
                    "name": "E4",
                    "midi": 64,
                    "time": 17.962944999999973,
                    "velocity": 0.3228346456692913,
                    "duration": 0.09259249999999852
                },
                {
                    "name": "C4",
                    "midi": 60,
                    "time": 17.962944999999973,
                    "velocity": 0.3228346456692913,
                    "duration": 0.09259249999999852
                },
                {
                    "name": "C#4",
                    "midi": 61,
                    "time": 17.962944999999973,
                    "velocity": 0.3228346456692913,
                    "duration": 0.09259249999999852
                },
                {
                    "name": "E4",
                    "midi": 64,
                    "time": 18.33331499999997,
                    "velocity": 0.33858267716535434,
                    "duration": 0.09259249999999852
                },
                {
                    "name": "B3",
                    "midi": 59,
                    "time": 18.33331499999997,
                    "velocity": 0.33858267716535434,
                    "duration": 0.09259249999999852
                },
                {
                    "name": "C#4",
                    "midi": 61,
                    "time": 18.33331499999997,
                    "velocity": 0.33858267716535434,
                    "duration": 0.09259249999999852
                },
                {
                    "name": "C#4",
                    "midi": 61,
                    "time": 18.703684999999968,
                    "velocity": 0.3543307086614173,
                    "duration": 0.09259249999999852
                },
                {
                    "name": "A#3",
                    "midi": 58,
                    "time": 18.703684999999968,
                    "velocity": 0.3543307086614173,
                    "duration": 0.09259249999999852
                },
                {
                    "name": "E4",
                    "midi": 64,
                    "time": 18.703684999999968,
                    "velocity": 0.3543307086614173,
                    "duration": 0.09259249999999852
                },
                {
                    "name": "E4",
                    "midi": 64,
                    "time": 19.074054999999966,
                    "velocity": 0.3779527559055118,
                    "duration": 0.09259249999999852
                },
                {
                    "name": "A3",
                    "midi": 57,
                    "time": 19.074054999999966,
                    "velocity": 0.3779527559055118,
                    "duration": 0.09259249999999852
                },
                {
                    "name": "C#4",
                    "midi": 61,
                    "time": 19.074054999999966,
                    "velocity": 0.3779527559055118,
                    "duration": 0.09259249999999852
                },
                {
                    "name": "G#3",
                    "midi": 56,
                    "time": 19.444424999999963,
                    "velocity": 0.3858267716535433,
                    "duration": 0.09259249999999852
                },
                {
                    "name": "E4",
                    "midi": 64,
                    "time": 19.444424999999963,
                    "velocity": 0.3858267716535433,
                    "duration": 0.09259249999999852
                },
                {
                    "name": "C#4",
                    "midi": 61,
                    "time": 19.444424999999963,
                    "velocity": 0.3858267716535433,
                    "duration": 0.09259249999999852
                },
                {
                    "name": "C#4",
                    "midi": 61,
                    "time": 19.81479499999996,
                    "velocity": 0.4015748031496063,
                    "duration": 0.09259249999999852
                },
                {
                    "name": "G3",
                    "midi": 55,
                    "time": 19.81479499999996,
                    "velocity": 0.4015748031496063,
                    "duration": 0.09259249999999852
                },
                {
                    "name": "A#3",
                    "midi": 58,
                    "time": 19.81479499999996,
                    "velocity": 0.4015748031496063,
                    "duration": 0.09259249999999852
                },
                {
                    "name": "C#4",
                    "midi": 61,
                    "time": 20.18516499999996,
                    "velocity": 0.41732283464566927,
                    "duration": 0.09259249999999852
                },
                {
                    "name": "A#3",
                    "midi": 58,
                    "time": 20.18516499999996,
                    "velocity": 0.41732283464566927,
                    "duration": 0.09259249999999852
                },
                {
                    "name": "F#3",
                    "midi": 54,
                    "time": 20.18516499999996,
                    "velocity": 0.41732283464566927,
                    "duration": 0.09259249999999852
                },
                {
                    "name": "C#4",
                    "midi": 61,
                    "time": 20.555534999999956,
                    "velocity": 0.4330708661417323,
                    "duration": 0.09259249999999852
                },
                {
                    "name": "A#3",
                    "midi": 58,
                    "time": 20.555534999999956,
                    "velocity": 0.4330708661417323,
                    "duration": 0.09259249999999852
                },
                {
                    "name": "F3",
                    "midi": 53,
                    "time": 20.555534999999956,
                    "velocity": 0.4330708661417323,
                    "duration": 0.09259249999999852
                },
                {
                    "name": "C#4",
                    "midi": 61,
                    "time": 20.925904999999954,
                    "velocity": 0.4566929133858268,
                    "duration": 0.09259249999999852
                },
                {
                    "name": "E3",
                    "midi": 52,
                    "time": 20.925904999999954,
                    "velocity": 0.4566929133858268,
                    "duration": 0.09259249999999852
                },
                {
                    "name": "A3",
                    "midi": 57,
                    "time": 20.925904999999954,
                    "velocity": 0.4566929133858268,
                    "duration": 0.09259249999999852
                },
                {
                    "name": "G3",
                    "midi": 55,
                    "time": 21.29627499999995,
                    "velocity": 0.4645669291338583,
                    "duration": 0.09259249999999852
                },
                {
                    "name": "C#4",
                    "midi": 61,
                    "time": 21.29627499999995,
                    "velocity": 0.4645669291338583,
                    "duration": 0.09259249999999852
                },
                {
                    "name": "D#3",
                    "midi": 51,
                    "time": 21.29627499999995,
                    "velocity": 0.4645669291338583,
                    "duration": 0.09259249999999852
                },
                {
                    "name": "A3",
                    "midi": 57,
                    "time": 21.29627499999995,
                    "velocity": 0.4645669291338583,
                    "duration": 0.09259249999999852
                },
                {
                    "name": "D5",
                    "midi": 74,
                    "time": 22.77775499999995,
                    "velocity": 0.6771653543307087,
                    "duration": 0.04629625000000104
                },
                {
                    "name": "E5",
                    "midi": 76,
                    "time": 22.82405124999995,
                    "velocity": 0.6771653543307087,
                    "duration": 0.04629625000000104
                },
                {
                    "name": "F5",
                    "midi": 77,
                    "time": 22.87034749999995,
                    "velocity": 0.6771653543307087,
                    "duration": 0.04629625000000104
                },
                {
                    "name": "G5",
                    "midi": 79,
                    "time": 22.916643749999952,
                    "velocity": 0.6771653543307087,
                    "duration": 0.04629625000000104
                },
                {
                    "name": "A5",
                    "midi": 81,
                    "time": 22.962939999999953,
                    "velocity": 0.7086614173228346,
                    "duration": 0.09259249999999852
                },
                {
                    "name": "D6",
                    "midi": 86,
                    "time": 23.14812499999995,
                    "velocity": 0.6377952755905512,
                    "duration": 0.09259249999999852
                },
                {
                    "name": "D5",
                    "midi": 74,
                    "time": 23.14812499999995,
                    "velocity": 0.5354330708661418,
                    "duration": 0.09259249999999852
                },
                {
                    "name": "F5",
                    "midi": 77,
                    "time": 23.14812499999995,
                    "velocity": 0.5354330708661418,
                    "duration": 0.09259249999999852
                },
                {
                    "name": "D6",
                    "midi": 86,
                    "time": 23.333309999999948,
                    "velocity": 0.6377952755905512,
                    "duration": 0.09259249999999852
                },
                {
                    "name": "D5",
                    "midi": 74,
                    "time": 23.333309999999948,
                    "velocity": 0.5354330708661418,
                    "duration": 0.09259249999999852
                },
                {
                    "name": "F5",
                    "midi": 77,
                    "time": 23.333309999999948,
                    "velocity": 0.5354330708661418,
                    "duration": 0.09259249999999852
                },
                {
                    "name": "F5",
                    "midi": 77,
                    "time": 23.518494999999945,
                    "velocity": 0.5354330708661418,
                    "duration": 0.09259249999999852
                },
                {
                    "name": "D5",
                    "midi": 74,
                    "time": 23.518494999999945,
                    "velocity": 0.5354330708661418,
                    "duration": 0.09259249999999852
                },
                {
                    "name": "C#6",
                    "midi": 85,
                    "time": 23.518494999999945,
                    "velocity": 0.6377952755905512,
                    "duration": 0.09259249999999852
                },
                {
                    "name": "C#6",
                    "midi": 85,
                    "time": 23.70367999999994,
                    "velocity": 0.6771653543307087,
                    "duration": 0.09259249999999852
                },
                {
                    "name": "D5",
                    "midi": 74,
                    "time": 23.70367999999994,
                    "velocity": 0.5748031496062992,
                    "duration": 0.09259249999999852
                },
                {
                    "name": "F5",
                    "midi": 77,
                    "time": 23.70367999999994,
                    "velocity": 0.5748031496062992,
                    "duration": 0.09259249999999852
                },
                {
                    "name": "D5",
                    "midi": 74,
                    "time": 23.88886499999994,
                    "velocity": 0.5354330708661418,
                    "duration": 0.09259249999999852
                },
                {
                    "name": "C6",
                    "midi": 84,
                    "time": 23.88886499999994,
                    "velocity": 0.6377952755905512,
                    "duration": 0.09259249999999852
                },
                {
                    "name": "F5",
                    "midi": 77,
                    "time": 23.88886499999994,
                    "velocity": 0.5354330708661418,
                    "duration": 0.09259249999999852
                },
                {
                    "name": "C6",
                    "midi": 84,
                    "time": 24.074049999999936,
                    "velocity": 0.6377952755905512,
                    "duration": 0.09259249999999852
                },
                {
                    "name": "D5",
                    "midi": 74,
                    "time": 24.074049999999936,
                    "velocity": 0.5354330708661418,
                    "duration": 0.09259249999999852
                },
                {
                    "name": "F5",
                    "midi": 77,
                    "time": 24.074049999999936,
                    "velocity": 0.5354330708661418,
                    "duration": 0.09259249999999852
                },
                {
                    "name": "B5",
                    "midi": 83,
                    "time": 24.259234999999933,
                    "velocity": 0.6377952755905512,
                    "duration": 0.09259249999999852
                },
                {
                    "name": "D5",
                    "midi": 74,
                    "time": 24.259234999999933,
                    "velocity": 0.5354330708661418,
                    "duration": 0.09259249999999852
                },
                {
                    "name": "F5",
                    "midi": 77,
                    "time": 24.259234999999933,
                    "velocity": 0.5354330708661418,
                    "duration": 0.09259249999999852
                },
                {
                    "name": "F5",
                    "midi": 77,
                    "time": 24.44441999999993,
                    "velocity": 0.5748031496062992,
                    "duration": 0.09259249999999852
                },
                {
                    "name": "D5",
                    "midi": 74,
                    "time": 24.44441999999993,
                    "velocity": 0.5748031496062992,
                    "duration": 0.09259249999999852
                },
                {
                    "name": "B5",
                    "midi": 83,
                    "time": 24.44441999999993,
                    "velocity": 0.6771653543307087,
                    "duration": 0.09259249999999852
                },
                {
                    "name": "F5",
                    "midi": 77,
                    "time": 24.629604999999927,
                    "velocity": 0.5433070866141733,
                    "duration": 0.09259249999999852
                },
                {
                    "name": "D5",
                    "midi": 74,
                    "time": 24.629604999999927,
                    "velocity": 0.5433070866141733,
                    "duration": 0.09259249999999852
                },
                {
                    "name": "A#5",
                    "midi": 82,
                    "time": 24.629604999999927,
                    "velocity": 0.6456692913385826,
                    "duration": 0.09259249999999852
                },
                {
                    "name": "A#5",
                    "midi": 82,
                    "time": 24.814789999999924,
                    "velocity": 0.6456692913385826,
                    "duration": 0.09259249999999852
                },
                {
                    "name": "F5",
                    "midi": 77,
                    "time": 24.814789999999924,
                    "velocity": 0.5433070866141733,
                    "duration": 0.09259249999999852
                },
                {
                    "name": "D5",
                    "midi": 74,
                    "time": 24.814789999999924,
                    "velocity": 0.5433070866141733,
                    "duration": 0.09259249999999852
                },
                {
                    "name": "A5",
                    "midi": 81,
                    "time": 24.99997499999992,
                    "velocity": 0.6456692913385826,
                    "duration": 0.09259249999999852
                },
                {
                    "name": "D5",
                    "midi": 74,
                    "time": 24.99997499999992,
                    "velocity": 0.5433070866141733,
                    "duration": 0.09259249999999852
                },
                {
                    "name": "F5",
                    "midi": 77,
                    "time": 24.99997499999992,
                    "velocity": 0.6456692913385826,
                    "duration": 0.09259249999999852
                },
                {
                    "name": "E5",
                    "midi": 76,
                    "time": 25.185159999999918,
                    "velocity": 0.6220472440944882,
                    "duration": 0.09259249999999852
                },
                {
                    "name": "B4",
                    "midi": 71,
                    "time": 25.185159999999918,
                    "velocity": 0.6220472440944882,
                    "duration": 0.09259249999999852
                },
                {
                    "name": "G#5",
                    "midi": 80,
                    "time": 25.185159999999918,
                    "velocity": 0.7322834645669292,
                    "duration": 0.09259249999999852
                },
                {
                    "name": "G#5",
                    "midi": 80,
                    "time": 25.370344999999915,
                    "velocity": 0.7637795275590551,
                    "duration": 0.3703700000000012
                },
                {
                    "name": "B4",
                    "midi": 71,
                    "time": 25.370344999999915,
                    "velocity": 0.6456692913385826,
                    "duration": 0.3703700000000012
                },
                {
                    "name": "E5",
                    "midi": 76,
                    "time": 25.370344999999915,
                    "velocity": 0.6456692913385826,
                    "duration": 0.3703700000000012
                },
                {
                    "name": "G5",
                    "midi": 79,
                    "time": 25.740714999999916,
                    "velocity": 0.6771653543307087,
                    "duration": 0.04629625000000104
                },
                {
                    "name": "A5",
                    "midi": 81,
                    "time": 25.787011249999917,
                    "velocity": 0.6771653543307087,
                    "duration": 0.04629625000000104
                },
                {
                    "name": "A#5",
                    "midi": 82,
                    "time": 25.83330749999992,
                    "velocity": 0.6771653543307087,
                    "duration": 0.04629625000000104
                },
                {
                    "name": "C6",
                    "midi": 84,
                    "time": 25.87960374999992,
                    "velocity": 0.6771653543307087,
                    "duration": 0.04629625000000104
                },
                {
                    "name": "D6",
                    "midi": 86,
                    "time": 25.92589999999992,
                    "velocity": 0.7086614173228346,
                    "duration": 0.09259249999999852
                },
                {
                    "name": "G5",
                    "midi": 79,
                    "time": 26.111084999999917,
                    "velocity": 0.5354330708661418,
                    "duration": 0.09259249999999852
                },
                {
                    "name": "A#5",
                    "midi": 82,
                    "time": 26.111084999999917,
                    "velocity": 0.5354330708661418,
                    "duration": 0.09259249999999852
                },
                {
                    "name": "G6",
                    "midi": 91,
                    "time": 26.111084999999917,
                    "velocity": 0.6377952755905512,
                    "duration": 0.09259249999999852
                },
                {
                    "name": "A#5",
                    "midi": 82,
                    "time": 26.296269999999915,
                    "velocity": 0.5354330708661418,
                    "duration": 0.09259249999999852
                },
                {
                    "name": "G6",
                    "midi": 91,
                    "time": 26.296269999999915,
                    "velocity": 0.6377952755905512,
                    "duration": 0.09259249999999852
                },
                {
                    "name": "G5",
                    "midi": 79,
                    "time": 26.296269999999915,
                    "velocity": 0.5354330708661418,
                    "duration": 0.09259249999999852
                },
                {
                    "name": "F#6",
                    "midi": 90,
                    "time": 26.48145499999991,
                    "velocity": 0.6377952755905512,
                    "duration": 0.09259249999999852
                },
                {
                    "name": "G5",
                    "midi": 79,
                    "time": 26.48145499999991,
                    "velocity": 0.5354330708661418,
                    "duration": 0.09259249999999852
                },
                {
                    "name": "A#5",
                    "midi": 82,
                    "time": 26.48145499999991,
                    "velocity": 0.5354330708661418,
                    "duration": 0.09259249999999852
                },
                {
                    "name": "A#5",
                    "midi": 82,
                    "time": 26.66663999999991,
                    "velocity": 0.5748031496062992,
                    "duration": 0.09259249999999852
                },
                {
                    "name": "F#6",
                    "midi": 90,
                    "time": 26.66663999999991,
                    "velocity": 0.6771653543307087,
                    "duration": 0.09259249999999852
                },
                {
                    "name": "G5",
                    "midi": 79,
                    "time": 26.66663999999991,
                    "velocity": 0.5748031496062992,
                    "duration": 0.09259249999999852
                },
                {
                    "name": "F6",
                    "midi": 89,
                    "time": 26.851824999999906,
                    "velocity": 0.6377952755905512,
                    "duration": 0.09259249999999852
                },
                {
                    "name": "A#5",
                    "midi": 82,
                    "time": 26.851824999999906,
                    "velocity": 0.5354330708661418,
                    "duration": 0.09259249999999852
                },
                {
                    "name": "G5",
                    "midi": 79,
                    "time": 26.851824999999906,
                    "velocity": 0.5354330708661418,
                    "duration": 0.09259249999999852
                },
                {
                    "name": "A#5",
                    "midi": 82,
                    "time": 27.037009999999903,
                    "velocity": 0.5354330708661418,
                    "duration": 0.09259249999999852
                },
                {
                    "name": "F6",
                    "midi": 89,
                    "time": 27.037009999999903,
                    "velocity": 0.6377952755905512,
                    "duration": 0.09259249999999852
                },
                {
                    "name": "G5",
                    "midi": 79,
                    "time": 27.037009999999903,
                    "velocity": 0.5354330708661418,
                    "duration": 0.09259249999999852
                },
                {
                    "name": "A#5",
                    "midi": 82,
                    "time": 27.2221949999999,
                    "velocity": 0.5354330708661418,
                    "duration": 0.09259249999999852
                },
                {
                    "name": "G5",
                    "midi": 79,
                    "time": 27.2221949999999,
                    "velocity": 0.5354330708661418,
                    "duration": 0.09259249999999852
                },
                {
                    "name": "E6",
                    "midi": 88,
                    "time": 27.2221949999999,
                    "velocity": 0.6377952755905512,
                    "duration": 0.09259249999999852
                },
                {
                    "name": "E6",
                    "midi": 88,
                    "time": 27.407379999999897,
                    "velocity": 0.6771653543307087,
                    "duration": 0.09259249999999852
                },
                {
                    "name": "G5",
                    "midi": 79,
                    "time": 27.407379999999897,
                    "velocity": 0.5748031496062992,
                    "duration": 0.09259249999999852
                },
                {
                    "name": "A#5",
                    "midi": 82,
                    "time": 27.407379999999897,
                    "velocity": 0.5748031496062992,
                    "duration": 0.09259249999999852
                },
                {
                    "name": "A#5",
                    "midi": 82,
                    "time": 27.592564999999894,
                    "velocity": 0.5433070866141733,
                    "duration": 0.09259249999999852
                },
                {
                    "name": "D#6",
                    "midi": 87,
                    "time": 27.592564999999894,
                    "velocity": 0.6456692913385826,
                    "duration": 0.09259249999999852
                },
                {
                    "name": "G5",
                    "midi": 79,
                    "time": 27.592564999999894,
                    "velocity": 0.5433070866141733,
                    "duration": 0.09259249999999852
                },
                {
                    "name": "D#6",
                    "midi": 87,
                    "time": 27.77774999999989,
                    "velocity": 0.6456692913385826,
                    "duration": 0.09259249999999852
                },
                {
                    "name": "G5",
                    "midi": 79,
                    "time": 27.77774999999989,
                    "velocity": 0.5433070866141733,
                    "duration": 0.09259249999999852
                },
                {
                    "name": "A#5",
                    "midi": 82,
                    "time": 27.77774999999989,
                    "velocity": 0.5433070866141733,
                    "duration": 0.09259249999999852
                },
                {
                    "name": "A#5",
                    "midi": 82,
                    "time": 27.962934999999888,
                    "velocity": 0.5433070866141733,
                    "duration": 0.09259249999999852
                },
                {
                    "name": "D6",
                    "midi": 86,
                    "time": 27.962934999999888,
                    "velocity": 0.6456692913385826,
                    "duration": 0.09259249999999852
                },
                {
                    "name": "G5",
                    "midi": 79,
                    "time": 27.962934999999888,
                    "velocity": 0.5433070866141733,
                    "duration": 0.09259249999999852
                },
                {
                    "name": "A5",
                    "midi": 81,
                    "time": 28.148119999999885,
                    "velocity": 0.6220472440944882,
                    "duration": 0.09259249999999852
                },
                {
                    "name": "E5",
                    "midi": 76,
                    "time": 28.148119999999885,
                    "velocity": 0.6220472440944882,
                    "duration": 0.09259249999999852
                },
                {
                    "name": "C#6",
                    "midi": 85,
                    "time": 28.148119999999885,
                    "velocity": 0.7322834645669292,
                    "duration": 0.09259249999999852
                },
                {
                    "name": "C#6",
                    "midi": 85,
                    "time": 28.333304999999882,
                    "velocity": 0.7637795275590551,
                    "duration": 0.3703700000000012
                },
                {
                    "name": "A5",
                    "midi": 81,
                    "time": 28.333304999999882,
                    "velocity": 0.6456692913385826,
                    "duration": 0.3703700000000012
                },
                {
                    "name": "E5",
                    "midi": 76,
                    "time": 28.333304999999882,
                    "velocity": 0.6456692913385826,
                    "duration": 0.3703700000000012
                },
                {
                    "name": "D6",
                    "midi": 86,
                    "time": 28.888859999999884,
                    "velocity": 0.8346456692913385,
                    "duration": 0.04629625000000104
                },
                {
                    "name": "E6",
                    "midi": 88,
                    "time": 28.935156249999885,
                    "velocity": 0.6535433070866141,
                    "duration": 0.04629625000000104
                },
                {
                    "name": "F6",
                    "midi": 89,
                    "time": 28.981452499999886,
                    "velocity": 0.6535433070866141,
                    "duration": 0.04629625000000104
                },
                {
                    "name": "G6",
                    "midi": 91,
                    "time": 29.027748749999887,
                    "velocity": 0.6535433070866141,
                    "duration": 0.04629625000000104
                },
                {
                    "name": "A6",
                    "midi": 93,
                    "time": 29.074044999999888,
                    "velocity": 0.6535433070866141,
                    "duration": 0.09259249999999852
                },
                {
                    "name": "G6",
                    "midi": 91,
                    "time": 29.259229999999885,
                    "velocity": 0.8188976377952756,
                    "duration": 0.04629625000000104
                },
                {
                    "name": "F6",
                    "midi": 89,
                    "time": 29.305526249999886,
                    "velocity": 0.6614173228346457,
                    "duration": 0.04629625000000104
                },
                {
                    "name": "E6",
                    "midi": 88,
                    "time": 29.351822499999887,
                    "velocity": 0.6614173228346457,
                    "duration": 0.04629625000000104
                },
                {
                    "name": "D6",
                    "midi": 86,
                    "time": 29.398118749999888,
                    "velocity": 0.6614173228346457,
                    "duration": 0.04629625000000104
                },
                {
                    "name": "C6",
                    "midi": 84,
                    "time": 29.44441499999989,
                    "velocity": 0.6692913385826772,
                    "duration": 0.09259249999999852
                },
                {
                    "name": "A#5",
                    "midi": 82,
                    "time": 29.629599999999886,
                    "velocity": 0.8188976377952756,
                    "duration": 0.04629625000000104
                },
                {
                    "name": "C6",
                    "midi": 84,
                    "time": 29.675896249999887,
                    "velocity": 0.6614173228346457,
                    "duration": 0.04629625000000104
                },
                {
                    "name": "D6",
                    "midi": 86,
                    "time": 29.72219249999989,
                    "velocity": 0.6614173228346457,
                    "duration": 0.04629625000000104
                },
                {
                    "name": "E6",
                    "midi": 88,
                    "time": 29.76848874999989,
                    "velocity": 0.6614173228346457,
                    "duration": 0.04629625000000104
                },
                {
                    "name": "F6",
                    "midi": 89,
                    "time": 29.81478499999989,
                    "velocity": 0.6614173228346457,
                    "duration": 0.09259249999999852
                },
                {
                    "name": "E6",
                    "midi": 88,
                    "time": 29.999969999999887,
                    "velocity": 0.8188976377952756,
                    "duration": 0.04629625000000104
                },
                {
                    "name": "D6",
                    "midi": 86,
                    "time": 30.04626624999989,
                    "velocity": 0.6614173228346457,
                    "duration": 0.04629625000000104
                },
                {
                    "name": "C6",
                    "midi": 84,
                    "time": 30.09256249999989,
                    "velocity": 0.6614173228346457,
                    "duration": 0.04629625000000104
                },
                {
                    "name": "A#5",
                    "midi": 82,
                    "time": 30.13885874999989,
                    "velocity": 0.6614173228346457,
                    "duration": 0.04629625000000104
                },
                {
                    "name": "A5",
                    "midi": 81,
                    "time": 30.18515499999989,
                    "velocity": 0.6614173228346457,
                    "duration": 0.09259249999999852
                },
                {
                    "name": "G5",
                    "midi": 79,
                    "time": 30.37033999999989,
                    "velocity": 0.8188976377952756,
                    "duration": 0.04629625000000104
                },
                {
                    "name": "A5",
                    "midi": 81,
                    "time": 30.41663624999989,
                    "velocity": 0.6771653543307087,
                    "duration": 0.04629625000000104
                },
                {
                    "name": "A#5",
                    "midi": 82,
                    "time": 30.46293249999989,
                    "velocity": 0.6771653543307087,
                    "duration": 0.04629625000000104
                },
                {
                    "name": "C6",
                    "midi": 84,
                    "time": 30.50922874999989,
                    "velocity": 0.6771653543307087,
                    "duration": 0.04629625000000104
                },
                {
                    "name": "D6",
                    "midi": 86,
                    "time": 30.555524999999893,
                    "velocity": 0.6771653543307087,
                    "duration": 0.09259249999999852
                },
                {
                    "name": "C6",
                    "midi": 84,
                    "time": 30.74070999999989,
                    "velocity": 0.8188976377952756,
                    "duration": 0.04629625000000104
                },
                {
                    "name": "A#5",
                    "midi": 82,
                    "time": 30.78700624999989,
                    "velocity": 0.6771653543307087,
                    "duration": 0.04629625000000104
                },
                {
                    "name": "A5",
                    "midi": 81,
                    "time": 30.833302499999892,
                    "velocity": 0.6692913385826772,
                    "duration": 0.04629625000000104
                },
                {
                    "name": "G5",
                    "midi": 79,
                    "time": 30.879598749999893,
                    "velocity": 0.6692913385826772,
                    "duration": 0.04629625000000104
                },
                {
                    "name": "F5",
                    "midi": 77,
                    "time": 30.925894999999894,
                    "velocity": 0.6692913385826772,
                    "duration": 0.09259249999999852
                },
                {
                    "name": "E5",
                    "midi": 76,
                    "time": 31.11107999999989,
                    "velocity": 0.7401574803149606,
                    "duration": 0.09259249999999852
                },
                {
                    "name": "A5",
                    "midi": 81,
                    "time": 31.11107999999989,
                    "velocity": 0.7401574803149606,
                    "duration": 0.09259249999999852
                },
                {
                    "name": "E6",
                    "midi": 88,
                    "time": 31.11107999999989,
                    "velocity": 0.7401574803149606,
                    "duration": 0.09259249999999852
                },
                {
                    "name": "E5",
                    "midi": 76,
                    "time": 31.296264999999888,
                    "velocity": 0.7401574803149606,
                    "duration": 0.3703700000000012
                },
                {
                    "name": "E6",
                    "midi": 88,
                    "time": 31.296264999999888,
                    "velocity": 0.7401574803149606,
                    "duration": 0.3703700000000012
                },
                {
                    "name": "A5",
                    "midi": 81,
                    "time": 31.296264999999888,
                    "velocity": 0.7401574803149606,
                    "duration": 0.3703700000000012
                },
                {
                    "name": "A#5",
                    "midi": 82,
                    "time": 31.85181999999989,
                    "velocity": 0.7244094488188977,
                    "duration": 0.04629625000000104
                },
                {
                    "name": "C6",
                    "midi": 84,
                    "time": 31.89811624999989,
                    "velocity": 0.6535433070866141,
                    "duration": 0.04629625000000104
                },
                {
                    "name": "D6",
                    "midi": 86,
                    "time": 31.944412499999892,
                    "velocity": 0.6535433070866141,
                    "duration": 0.04629625000000104
                },
                {
                    "name": "E6",
                    "midi": 88,
                    "time": 31.990708749999893,
                    "velocity": 0.6535433070866141,
                    "duration": 0.04629625000000104
                },
                {
                    "name": "F6",
                    "midi": 89,
                    "time": 32.037004999999894,
                    "velocity": 0.6535433070866141,
                    "duration": 0.09259250000000208
                },
                {
                    "name": "E6",
                    "midi": 88,
                    "time": 32.2221899999999,
                    "velocity": 0.7244094488188977,
                    "duration": 0.046296249999997485
                },
                {
                    "name": "D6",
                    "midi": 86,
                    "time": 32.268486249999896,
                    "velocity": 0.6614173228346457,
                    "duration": 0.046296249999997485
                },
                {
                    "name": "C6",
                    "midi": 84,
                    "time": 32.31478249999989,
                    "velocity": 0.6614173228346457,
                    "duration": 0.046296249999997485
                },
                {
                    "name": "A#5",
                    "midi": 82,
                    "time": 32.36107874999989,
                    "velocity": 0.6614173228346457,
                    "duration": 0.046296249999997485
                },
                {
                    "name": "A5",
                    "midi": 81,
                    "time": 32.40737499999989,
                    "velocity": 0.6692913385826772,
                    "duration": 0.09259250000000208
                },
                {
                    "name": "G5",
                    "midi": 79,
                    "time": 32.59255999999989,
                    "velocity": 0.7244094488188977,
                    "duration": 0.046296249999997485
                },
                {
                    "name": "A5",
                    "midi": 81,
                    "time": 32.63885624999989,
                    "velocity": 0.6614173228346457,
                    "duration": 0.046296249999997485
                },
                {
                    "name": "A#5",
                    "midi": 82,
                    "time": 32.68515249999989,
                    "velocity": 0.6614173228346457,
                    "duration": 0.046296249999997485
                },
                {
                    "name": "C6",
                    "midi": 84,
                    "time": 32.731448749999885,
                    "velocity": 0.6614173228346457,
                    "duration": 0.046296249999997485
                },
                {
                    "name": "D6",
                    "midi": 86,
                    "time": 32.77774499999988,
                    "velocity": 0.6614173228346457,
                    "duration": 0.09259250000000208
                },
                {
                    "name": "C6",
                    "midi": 84,
                    "time": 32.962929999999886,
                    "velocity": 0.7244094488188977,
                    "duration": 0.046296249999997485
                },
                {
                    "name": "A#5",
                    "midi": 82,
                    "time": 33.009226249999884,
                    "velocity": 0.6614173228346457,
                    "duration": 0.046296249999997485
                },
                {
                    "name": "A5",
                    "midi": 81,
                    "time": 33.05552249999988,
                    "velocity": 0.6614173228346457,
                    "duration": 0.046296249999997485
                },
                {
                    "name": "G5",
                    "midi": 79,
                    "time": 33.10181874999988,
                    "velocity": 0.6614173228346457,
                    "duration": 0.046296249999997485
                },
                {
                    "name": "F5",
                    "midi": 77,
                    "time": 33.148114999999876,
                    "velocity": 0.6614173228346457,
                    "duration": 0.09259250000000208
                },
                {
                    "name": "D#5",
                    "midi": 75,
                    "time": 33.33329999999988,
                    "velocity": 0.7401574803149606,
                    "duration": 0.046296249999997485
                },
                {
                    "name": "F5",
                    "midi": 77,
                    "time": 33.37959624999988,
                    "velocity": 0.6535433070866141,
                    "duration": 0.046296249999997485
                },
                {
                    "name": "G5",
                    "midi": 79,
                    "time": 33.425892499999875,
                    "velocity": 0.6535433070866141,
                    "duration": 0.046296249999997485
                },
                {
                    "name": "A5",
                    "midi": 81,
                    "time": 33.47218874999987,
                    "velocity": 0.6535433070866141,
                    "duration": 0.046296249999997485
                },
                {
                    "name": "A#5",
                    "midi": 82,
                    "time": 33.51848499999987,
                    "velocity": 0.6535433070866141,
                    "duration": 0.09259250000000208
                },
                {
                    "name": "A5",
                    "midi": 81,
                    "time": 33.703669999999875,
                    "velocity": 0.7244094488188977,
                    "duration": 0.046296249999997485
                },
                {
                    "name": "G5",
                    "midi": 79,
                    "time": 33.74996624999987,
                    "velocity": 0.6535433070866141,
                    "duration": 0.046296249999997485
                },
                {
                    "name": "F5",
                    "midi": 77,
                    "time": 33.79626249999987,
                    "velocity": 0.6535433070866141,
                    "duration": 0.046296249999997485
                },
                {
                    "name": "D#5",
                    "midi": 75,
                    "time": 33.84255874999987,
                    "velocity": 0.6535433070866141,
                    "duration": 0.046296249999997485
                },
                {
                    "name": "D5",
                    "midi": 74,
                    "time": 33.888854999999865,
                    "velocity": 0.6535433070866141,
                    "duration": 0.09259250000000208
                },
                {
                    "name": "A4",
                    "midi": 69,
                    "time": 34.07403999999987,
                    "velocity": 0.6771653543307087,
                    "duration": 0.09259250000000208
                },
                {
                    "name": "A5",
                    "midi": 81,
                    "time": 34.07403999999987,
                    "velocity": 0.6771653543307087,
                    "duration": 0.09259250000000208
                },
                {
                    "name": "E5",
                    "midi": 76,
                    "time": 34.07403999999987,
                    "velocity": 0.6771653543307087,
                    "duration": 0.09259250000000208
                },
                {
                    "name": "E5",
                    "midi": 76,
                    "time": 34.25922499999987,
                    "velocity": 0.6771653543307087,
                    "duration": 0.3703700000000012
                },
                {
                    "name": "A5",
                    "midi": 81,
                    "time": 34.25922499999987,
                    "velocity": 0.6771653543307087,
                    "duration": 0.3703700000000012
                },
                {
                    "name": "A4",
                    "midi": 69,
                    "time": 34.25922499999987,
                    "velocity": 0.6771653543307087,
                    "duration": 0.3703700000000012
                },
                {
                    "name": "D5",
                    "midi": 74,
                    "time": 34.81477999999987,
                    "velocity": 0.5905511811023622,
                    "duration": 0.046296249999997485
                },
                {
                    "name": "E5",
                    "midi": 76,
                    "time": 34.86107624999987,
                    "velocity": 0.5196850393700787,
                    "duration": 0.046296249999997485
                },
                {
                    "name": "F5",
                    "midi": 77,
                    "time": 34.907372499999866,
                    "velocity": 0.5196850393700787,
                    "duration": 0.046296249999997485
                },
                {
                    "name": "G5",
                    "midi": 79,
                    "time": 34.95366874999986,
                    "velocity": 0.5196850393700787,
                    "duration": 0.046296249999997485
                },
                {
                    "name": "A5",
                    "midi": 81,
                    "time": 34.99996499999986,
                    "velocity": 0.5196850393700787,
                    "duration": 0.09259250000000208
                },
                {
                    "name": "G5",
                    "midi": 79,
                    "time": 35.185149999999865,
                    "velocity": 0.6062992125984252,
                    "duration": 0.046296249999997485
                },
                {
                    "name": "F5",
                    "midi": 77,
                    "time": 35.23144624999986,
                    "velocity": 0.5118110236220472,
                    "duration": 0.046296249999997485
                },
                {
                    "name": "E5",
                    "midi": 76,
                    "time": 35.27774249999986,
                    "velocity": 0.5118110236220472,
                    "duration": 0.046296249999997485
                },
                {
                    "name": "D5",
                    "midi": 74,
                    "time": 35.32403874999986,
                    "velocity": 0.5118110236220472,
                    "duration": 0.046296249999997485
                },
                {
                    "name": "C5",
                    "midi": 72,
                    "time": 35.370334999999855,
                    "velocity": 0.5118110236220472,
                    "duration": 0.09259250000000208
                },
                {
                    "name": "A#4",
                    "midi": 70,
                    "time": 35.55551999999986,
                    "velocity": 0.5748031496062992,
                    "duration": 0.046296249999997485
                },
                {
                    "name": "C5",
                    "midi": 72,
                    "time": 35.60181624999986,
                    "velocity": 0.5118110236220472,
                    "duration": 0.046296249999997485
                },
                {
                    "name": "D5",
                    "midi": 74,
                    "time": 35.648112499999854,
                    "velocity": 0.5039370078740157,
                    "duration": 0.046296249999997485
                },
                {
                    "name": "E5",
                    "midi": 76,
                    "time": 35.69440874999985,
                    "velocity": 0.5039370078740157,
                    "duration": 0.046296249999997485
                },
                {
                    "name": "F5",
                    "midi": 77,
                    "time": 35.74070499999985,
                    "velocity": 0.5039370078740157,
                    "duration": 0.09259250000000208
                },
                {
                    "name": "E5",
                    "midi": 76,
                    "time": 35.92588999999985,
                    "velocity": 0.5669291338582677,
                    "duration": 0.046296249999997485
                },
                {
                    "name": "D5",
                    "midi": 74,
                    "time": 35.97218624999985,
                    "velocity": 0.5039370078740157,
                    "duration": 0.046296249999997485
                },
                {
                    "name": "C5",
                    "midi": 72,
                    "time": 36.01848249999985,
                    "velocity": 0.49606299212598426,
                    "duration": 0.046296249999997485
                },
                {
                    "name": "A#4",
                    "midi": 70,
                    "time": 36.064778749999846,
                    "velocity": 0.49606299212598426,
                    "duration": 0.046296249999997485
                },
                {
                    "name": "A4",
                    "midi": 69,
                    "time": 36.11107499999984,
                    "velocity": 0.49606299212598426,
                    "duration": 0.09259250000000208
                },
                {
                    "name": "G4",
                    "midi": 67,
                    "time": 36.29625999999985,
                    "velocity": 0.5590551181102362,
                    "duration": 0.046296249999997485
                },
                {
                    "name": "A4",
                    "midi": 69,
                    "time": 36.342556249999845,
                    "velocity": 0.49606299212598426,
                    "duration": 0.046296249999997485
                },
                {
                    "name": "A#4",
                    "midi": 70,
                    "time": 36.38885249999984,
                    "velocity": 0.49606299212598426,
                    "duration": 0.046296249999997485
                },
                {
                    "name": "C5",
                    "midi": 72,
                    "time": 36.43514874999984,
                    "velocity": 0.4881889763779528,
                    "duration": 0.046296249999997485
                },
                {
                    "name": "D5",
                    "midi": 74,
                    "time": 36.48144499999984,
                    "velocity": 0.4881889763779528,
                    "duration": 0.09259250000000208
                },
                {
                    "name": "C5",
                    "midi": 72,
                    "time": 36.66662999999984,
                    "velocity": 0.5590551181102362,
                    "duration": 0.046296249999997485
                },
                {
                    "name": "A#4",
                    "midi": 70,
                    "time": 36.71292624999984,
                    "velocity": 0.4881889763779528,
                    "duration": 0.046296249999997485
                },
                {
                    "name": "A4",
                    "midi": 69,
                    "time": 36.75922249999984,
                    "velocity": 0.4881889763779528,
                    "duration": 0.046296249999997485
                },
                {
                    "name": "G4",
                    "midi": 67,
                    "time": 36.805518749999834,
                    "velocity": 0.47244094488188976,
                    "duration": 0.046296249999997485
                },
                {
                    "name": "F4",
                    "midi": 65,
                    "time": 36.85181499999983,
                    "velocity": 0.47244094488188976,
                    "duration": 0.09259250000000208
                },
                {
                    "name": "E4",
                    "midi": 64,
                    "time": 37.036999999999836,
                    "velocity": 0.47244094488188976,
                    "duration": 0.09259250000000208
                },
                {
                    "name": "E5",
                    "midi": 76,
                    "time": 37.036999999999836,
                    "velocity": 0.5590551181102362,
                    "duration": 0.09259250000000208
                },
                {
                    "name": "A4",
                    "midi": 69,
                    "time": 37.036999999999836,
                    "velocity": 0.47244094488188976,
                    "duration": 0.09259250000000208
                },
                {
                    "name": "A4",
                    "midi": 69,
                    "time": 37.22218499999984,
                    "velocity": 0.48031496062992124,
                    "duration": 0.3703700000000012
                },
                {
                    "name": "E4",
                    "midi": 64,
                    "time": 37.22218499999984,
                    "velocity": 0.48031496062992124,
                    "duration": 0.3703700000000012
                },
                {
                    "name": "E5",
                    "midi": 76,
                    "time": 37.22218499999984,
                    "velocity": 0.5669291338582677,
                    "duration": 0.3703700000000012
                },
                {
                    "name": "A#4",
                    "midi": 70,
                    "time": 37.77773999999984,
                    "velocity": 0.4566929133858268,
                    "duration": 0.046296249999997485
                },
                {
                    "name": "C5",
                    "midi": 72,
                    "time": 37.824036249999835,
                    "velocity": 0.4251968503937008,
                    "duration": 0.046296249999997485
                },
                {
                    "name": "D5",
                    "midi": 74,
                    "time": 37.87033249999983,
                    "velocity": 0.4251968503937008,
                    "duration": 0.046296249999997485
                },
                {
                    "name": "E5",
                    "midi": 76,
                    "time": 37.91662874999983,
                    "velocity": 0.4251968503937008,
                    "duration": 0.046296249999997485
                },
                {
                    "name": "F5",
                    "midi": 77,
                    "time": 37.96292499999983,
                    "velocity": 0.4251968503937008,
                    "duration": 0.09259250000000208
                },
                {
                    "name": "E5",
                    "midi": 76,
                    "time": 38.14810999999983,
                    "velocity": 0.47244094488188976,
                    "duration": 0.046296249999997485
                },
                {
                    "name": "D5",
                    "midi": 74,
                    "time": 38.19440624999983,
                    "velocity": 0.4251968503937008,
                    "duration": 0.046296249999997485
                },
                {
                    "name": "C5",
                    "midi": 72,
                    "time": 38.24070249999983,
                    "velocity": 0.4251968503937008,
                    "duration": 0.046296249999997485
                },
                {
                    "name": "A#4",
                    "midi": 70,
                    "time": 38.286998749999825,
                    "velocity": 0.4251968503937008,
                    "duration": 0.046296249999997485
                },
                {
                    "name": "A4",
                    "midi": 69,
                    "time": 38.33329499999982,
                    "velocity": 0.4330708661417323,
                    "duration": 0.09259250000000208
                },
                {
                    "name": "G4",
                    "midi": 67,
                    "time": 38.518479999999826,
                    "velocity": 0.4645669291338583,
                    "duration": 0.046296249999997485
                },
                {
                    "name": "A4",
                    "midi": 69,
                    "time": 38.564776249999824,
                    "velocity": 0.4251968503937008,
                    "duration": 0.046296249999997485
                },
                {
                    "name": "A#4",
                    "midi": 70,
                    "time": 38.61107249999982,
                    "velocity": 0.4251968503937008,
                    "duration": 0.046296249999997485
                },
                {
                    "name": "C5",
                    "midi": 72,
                    "time": 38.65736874999982,
                    "velocity": 0.4251968503937008,
                    "duration": 0.046296249999997485
                },
                {
                    "name": "D5",
                    "midi": 74,
                    "time": 38.703664999999816,
                    "velocity": 0.4094488188976378,
                    "duration": 0.09259250000000208
                },
                {
                    "name": "C5",
                    "midi": 72,
                    "time": 38.88884999999982,
                    "velocity": 0.4409448818897638,
                    "duration": 0.046296249999997485
                },
                {
                    "name": "A#4",
                    "midi": 70,
                    "time": 38.93514624999982,
                    "velocity": 0.4094488188976378,
                    "duration": 0.046296249999997485
                },
                {
                    "name": "A4",
                    "midi": 69,
                    "time": 38.981442499999815,
                    "velocity": 0.4094488188976378,
                    "duration": 0.046296249999997485
                },
                {
                    "name": "G4",
                    "midi": 67,
                    "time": 39.02773874999981,
                    "velocity": 0.4094488188976378,
                    "duration": 0.046296249999997485
                },
                {
                    "name": "F4",
                    "midi": 65,
                    "time": 39.07403499999981,
                    "velocity": 0.4094488188976378,
                    "duration": 0.09259250000000208
                },
                {
                    "name": "D#4",
                    "midi": 63,
                    "time": 39.259219999999814,
                    "velocity": 0.4409448818897638,
                    "duration": 0.046296249999997485
                },
                {
                    "name": "F4",
                    "midi": 65,
                    "time": 39.30551624999981,
                    "velocity": 0.4015748031496063,
                    "duration": 0.046296249999997485
                },
                {
                    "name": "G4",
                    "midi": 67,
                    "time": 39.35181249999981,
                    "velocity": 0.4015748031496063,
                    "duration": 0.046296249999997485
                },
                {
                    "name": "A4",
                    "midi": 69,
                    "time": 39.39810874999981,
                    "velocity": 0.4015748031496063,
                    "duration": 0.046296249999997485
                },
                {
                    "name": "A#4",
                    "midi": 70,
                    "time": 39.444404999999804,
                    "velocity": 0.4015748031496063,
                    "duration": 0.09259250000000208
                },
                {
                    "name": "A4",
                    "midi": 69,
                    "time": 39.62958999999981,
                    "velocity": 0.4330708661417323,
                    "duration": 0.046296249999997485
                },
                {
                    "name": "G4",
                    "midi": 67,
                    "time": 39.675886249999806,
                    "velocity": 0.3937007874015748,
                    "duration": 0.046296249999997485
                },
                {
                    "name": "F4",
                    "midi": 65,
                    "time": 39.7221824999998,
                    "velocity": 0.3937007874015748,
                    "duration": 0.046296249999997485
                },
                {
                    "name": "D#4",
                    "midi": 63,
                    "time": 39.7684787499998,
                    "velocity": 0.3937007874015748,
                    "duration": 0.046296249999997485
                },
                {
                    "name": "D4",
                    "midi": 62,
                    "time": 39.8147749999998,
                    "velocity": 0.3937007874015748,
                    "duration": 0.09259250000000208
                },
                {
                    "name": "A3",
                    "midi": 57,
                    "time": 39.9999599999998,
                    "velocity": 0.33858267716535434,
                    "duration": 0.09259250000000208
                },
                {
                    "name": "E4",
                    "midi": 64,
                    "time": 39.9999599999998,
                    "velocity": 0.33858267716535434,
                    "duration": 0.09259250000000208
                },
                {
                    "name": "A4",
                    "midi": 69,
                    "time": 39.9999599999998,
                    "velocity": 0.4015748031496063,
                    "duration": 0.09259250000000208
                },
                {
                    "name": "A3",
                    "midi": 57,
                    "time": 40.18514499999981,
                    "velocity": 0.3464566929133858,
                    "duration": 0.3703700000000012
                },
                {
                    "name": "A4",
                    "midi": 69,
                    "time": 40.18514499999981,
                    "velocity": 0.4094488188976378,
                    "duration": 0.3703700000000012
                },
                {
                    "name": "E4",
                    "midi": 64,
                    "time": 40.18514499999981,
                    "velocity": 0.3464566929133858,
                    "duration": 0.3703700000000012
                },
                {
                    "name": "D6",
                    "midi": 86,
                    "time": 40.740699999999805,
                    "velocity": 0.4645669291338583,
                    "duration": 0.046296249999997485
                },
                {
                    "name": "C6",
                    "midi": 84,
                    "time": 40.7869962499998,
                    "velocity": 0.3700787401574803,
                    "duration": 0.046296249999997485
                },
                {
                    "name": "A#5",
                    "midi": 82,
                    "time": 40.8332924999998,
                    "velocity": 0.3700787401574803,
                    "duration": 0.046296249999997485
                },
                {
                    "name": "A5",
                    "midi": 81,
                    "time": 40.8795887499998,
                    "velocity": 0.3700787401574803,
                    "duration": 0.046296249999997485
                },
                {
                    "name": "G5",
                    "midi": 79,
                    "time": 40.925884999999795,
                    "velocity": 0.4015748031496063,
                    "duration": 0.09259250000000208
                },
                {
                    "name": "D5",
                    "midi": 74,
                    "time": 41.1110699999998,
                    "velocity": 0.47244094488188976,
                    "duration": 0.046296249999997485
                },
                {
                    "name": "C5",
                    "midi": 72,
                    "time": 41.1573662499998,
                    "velocity": 0.3700787401574803,
                    "duration": 0.046296249999997485
                },
                {
                    "name": "A#4",
                    "midi": 70,
                    "time": 41.203662499999794,
                    "velocity": 0.3700787401574803,
                    "duration": 0.046296249999997485
                },
                {
                    "name": "A4",
                    "midi": 69,
                    "time": 41.24995874999979,
                    "velocity": 0.3700787401574803,
                    "duration": 0.046296249999997485
                },
                {
                    "name": "G4",
                    "midi": 67,
                    "time": 41.29625499999979,
                    "velocity": 0.4015748031496063,
                    "duration": 0.09259250000000208
                },
                {
                    "name": "A4",
                    "midi": 69,
                    "time": 41.66662499999979,
                    "velocity": 0.4015748031496063,
                    "duration": 0.5555549999999982
                },
                {
                    "name": "A3",
                    "midi": 57,
                    "time": 41.66662499999979,
                    "velocity": 0.33858267716535434,
                    "duration": 0.5555549999999982
                },
                {
                    "name": "E4",
                    "midi": 64,
                    "time": 41.66662499999979,
                    "velocity": 0.33858267716535434,
                    "duration": 0.5555549999999982
                },
                {
                    "name": "D6",
                    "midi": 86,
                    "time": 42.22217999999979,
                    "velocity": 0.4645669291338583,
                    "duration": 0.046296249999997485
                },
                {
                    "name": "C6",
                    "midi": 84,
                    "time": 42.268476249999786,
                    "velocity": 0.3700787401574803,
                    "duration": 0.046296249999997485
                },
                {
                    "name": "A#5",
                    "midi": 82,
                    "time": 42.31477249999978,
                    "velocity": 0.3700787401574803,
                    "duration": 0.046296249999997485
                },
                {
                    "name": "A5",
                    "midi": 81,
                    "time": 42.36106874999978,
                    "velocity": 0.3700787401574803,
                    "duration": 0.046296249999997485
                },
                {
                    "name": "G5",
                    "midi": 79,
                    "time": 42.40736499999978,
                    "velocity": 0.4015748031496063,
                    "duration": 0.09259250000000208
                },
                {
                    "name": "D5",
                    "midi": 74,
                    "time": 42.59254999999978,
                    "velocity": 0.47244094488188976,
                    "duration": 0.046296249999997485
                },
                {
                    "name": "C5",
                    "midi": 72,
                    "time": 42.63884624999978,
                    "velocity": 0.3700787401574803,
                    "duration": 0.046296249999997485
                },
                {
                    "name": "A#4",
                    "midi": 70,
                    "time": 42.68514249999978,
                    "velocity": 0.3700787401574803,
                    "duration": 0.046296249999997485
                },
                {
                    "name": "A4",
                    "midi": 69,
                    "time": 42.731438749999775,
                    "velocity": 0.3700787401574803,
                    "duration": 0.046296249999997485
                },
                {
                    "name": "G4",
                    "midi": 67,
                    "time": 42.77773499999977,
                    "velocity": 0.4015748031496063,
                    "duration": 0.09259250000000208
                },
                {
                    "name": "A4",
                    "midi": 69,
                    "time": 43.148104999999774,
                    "velocity": 0.33858267716535434,
                    "duration": 0.09259250000000208
                },
                {
                    "name": "E4",
                    "midi": 64,
                    "time": 43.148104999999774,
                    "velocity": 0.28346456692913385,
                    "duration": 0.09259250000000208
                },
                {
                    "name": "A3",
                    "midi": 57,
                    "time": 43.148104999999774,
                    "velocity": 0.28346456692913385,
                    "duration": 0.09259250000000208
                },
                {
                    "name": "D5",
                    "midi": 74,
                    "time": 43.33328999999978,
                    "velocity": 0.4015748031496063,
                    "duration": 0.046296249999997485
                },
                {
                    "name": "C5",
                    "midi": 72,
                    "time": 43.379586249999775,
                    "velocity": 0.36220472440944884,
                    "duration": 0.046296249999997485
                },
                {
                    "name": "A#4",
                    "midi": 70,
                    "time": 43.42588249999977,
                    "velocity": 0.36220472440944884,
                    "duration": 0.046296249999997485
                },
                {
                    "name": "A4",
                    "midi": 69,
                    "time": 43.47217874999977,
                    "velocity": 0.36220472440944884,
                    "duration": 0.046296249999997485
                },
                {
                    "name": "G4",
                    "midi": 67,
                    "time": 43.51847499999977,
                    "velocity": 0.3937007874015748,
                    "duration": 0.09259250000000208
                },
                {
                    "name": "A4",
                    "midi": 69,
                    "time": 43.88884499999977,
                    "velocity": 0.33858267716535434,
                    "duration": 0.09259250000000208
                },
                {
                    "name": "E4",
                    "midi": 64,
                    "time": 43.88884499999977,
                    "velocity": 0.28346456692913385,
                    "duration": 0.09259250000000208
                },
                {
                    "name": "A3",
                    "midi": 57,
                    "time": 43.88884499999977,
                    "velocity": 0.28346456692913385,
                    "duration": 0.09259250000000208
                },
                {
                    "name": "D5",
                    "midi": 74,
                    "time": 44.07402999999977,
                    "velocity": 0.33070866141732286,
                    "duration": 0.046296249999997485
                },
                {
                    "name": "C5",
                    "midi": 72,
                    "time": 44.12032624999977,
                    "velocity": 0.33070866141732286,
                    "duration": 0.046296249999997485
                },
                {
                    "name": "A#4",
                    "midi": 70,
                    "time": 44.16662249999977,
                    "velocity": 0.33070866141732286,
                    "duration": 0.046296249999997485
                },
                {
                    "name": "A4",
                    "midi": 69,
                    "time": 44.212918749999766,
                    "velocity": 0.33070866141732286,
                    "duration": 0.046296249999997485
                },
                {
                    "name": "G4",
                    "midi": 67,
                    "time": 44.25921499999976,
                    "velocity": 0.31496062992125984,
                    "duration": 0.09259250000000208
                },
                {
                    "name": "A3",
                    "midi": 57,
                    "time": 44.629584999999764,
                    "velocity": 0.2677165354330709,
                    "duration": 0.09259250000000208
                },
                {
                    "name": "A4",
                    "midi": 69,
                    "time": 44.629584999999764,
                    "velocity": 0.31496062992125984,
                    "duration": 0.09259250000000208
                },
                {
                    "name": "E4",
                    "midi": 64,
                    "time": 44.629584999999764,
                    "velocity": 0.2677165354330709,
                    "duration": 0.09259250000000208
                },
                {
                    "name": "D5",
                    "midi": 74,
                    "time": 44.81476999999977,
                    "velocity": 0.31496062992125984,
                    "duration": 0.046296249999997485
                },
                {
                    "name": "C5",
                    "midi": 72,
                    "time": 44.861066249999766,
                    "velocity": 0.31496062992125984,
                    "duration": 0.046296249999997485
                },
                {
                    "name": "A#4",
                    "midi": 70,
                    "time": 44.90736249999976,
                    "velocity": 0.31496062992125984,
                    "duration": 0.046296249999997485
                },
                {
                    "name": "A4",
                    "midi": 69,
                    "time": 44.95365874999976,
                    "velocity": 0.30708661417322836,
                    "duration": 0.046296249999997485
                },
                {
                    "name": "G4",
                    "midi": 67,
                    "time": 44.99995499999976,
                    "velocity": 0.28346456692913385,
                    "duration": 0.09259250000000208
                },
                {
                    "name": "A3",
                    "midi": 57,
                    "time": 45.37032499999976,
                    "velocity": 0.23622047244094488,
                    "duration": 0.09259250000000208
                },
                {
                    "name": "E4",
                    "midi": 64,
                    "time": 45.37032499999976,
                    "velocity": 0.23622047244094488,
                    "duration": 0.09259250000000208
                },
                {
                    "name": "A4",
                    "midi": 69,
                    "time": 45.37032499999976,
                    "velocity": 0.28346456692913385,
                    "duration": 0.09259250000000208
                },
                {
                    "name": "D5",
                    "midi": 74,
                    "time": 45.555509999999764,
                    "velocity": 0.29133858267716534,
                    "duration": 0.046296249999997485
                },
                {
                    "name": "C5",
                    "midi": 72,
                    "time": 45.60180624999976,
                    "velocity": 0.29133858267716534,
                    "duration": 0.046296249999997485
                },
                {
                    "name": "A#4",
                    "midi": 70,
                    "time": 45.64810249999976,
                    "velocity": 0.29133858267716534,
                    "duration": 0.046296249999997485
                },
                {
                    "name": "A4",
                    "midi": 69,
                    "time": 45.694398749999756,
                    "velocity": 0.29133858267716534,
                    "duration": 0.046296249999997485
                },
                {
                    "name": "G4",
                    "midi": 67,
                    "time": 45.740694999999754,
                    "velocity": 0.2755905511811024,
                    "duration": 0.09259250000000208
                },
                {
                    "name": "D3",
                    "midi": 50,
                    "time": 46.481434999999756,
                    "velocity": 0.36220472440944884,
                    "duration": 0.046296249999997485
                },
                {
                    "name": "E3",
                    "midi": 52,
                    "time": 46.52773124999975,
                    "velocity": 0.36220472440944884,
                    "duration": 0.046296249999997485
                },
                {
                    "name": "F3",
                    "midi": 53,
                    "time": 46.57402749999975,
                    "velocity": 0.36220472440944884,
                    "duration": 0.046296249999997485
                },
                {
                    "name": "G3",
                    "midi": 55,
                    "time": 46.62032374999975,
                    "velocity": 0.36220472440944884,
                    "duration": 0.046296249999997485
                },
                {
                    "name": "A3",
                    "midi": 57,
                    "time": 46.666619999999746,
                    "velocity": 0.3937007874015748,
                    "duration": 0.09259250000000208
                },
                {
                    "name": "F3",
                    "midi": 53,
                    "time": 46.85180499999975,
                    "velocity": 0.28346456692913385,
                    "duration": 0.09259250000000208
                },
                {
                    "name": "D3",
                    "midi": 50,
                    "time": 46.85180499999975,
                    "velocity": 0.28346456692913385,
                    "duration": 0.09259250000000208
                },
                {
                    "name": "D4",
                    "midi": 62,
                    "time": 46.85180499999975,
                    "velocity": 0.33858267716535434,
                    "duration": 0.09259250000000208
                },
                {
                    "name": "D3",
                    "midi": 50,
                    "time": 47.036989999999754,
                    "velocity": 0.28346456692913385,
                    "duration": 0.09259250000000208
                },
                {
                    "name": "F3",
                    "midi": 53,
                    "time": 47.036989999999754,
                    "velocity": 0.28346456692913385,
                    "duration": 0.09259250000000208
                },
                {
                    "name": "D4",
                    "midi": 62,
                    "time": 47.036989999999754,
                    "velocity": 0.33858267716535434,
                    "duration": 0.09259250000000208
                },
                {
                    "name": "D3",
                    "midi": 50,
                    "time": 47.22217499999976,
                    "velocity": 0.28346456692913385,
                    "duration": 0.09259250000000208
                },
                {
                    "name": "C#4",
                    "midi": 61,
                    "time": 47.22217499999976,
                    "velocity": 0.33858267716535434,
                    "duration": 0.09259250000000208
                },
                {
                    "name": "F3",
                    "midi": 53,
                    "time": 47.22217499999976,
                    "velocity": 0.28346456692913385,
                    "duration": 0.09259250000000208
                },
                {
                    "name": "D3",
                    "midi": 50,
                    "time": 47.40735999999976,
                    "velocity": 0.30708661417322836,
                    "duration": 0.09259250000000208
                },
                {
                    "name": "C#4",
                    "midi": 61,
                    "time": 47.40735999999976,
                    "velocity": 0.36220472440944884,
                    "duration": 0.09259250000000208
                },
                {
                    "name": "F3",
                    "midi": 53,
                    "time": 47.40735999999976,
                    "velocity": 0.30708661417322836,
                    "duration": 0.09259250000000208
                },
                {
                    "name": "F3",
                    "midi": 53,
                    "time": 47.59254499999977,
                    "velocity": 0.28346456692913385,
                    "duration": 0.09259250000000208
                },
                {
                    "name": "D3",
                    "midi": 50,
                    "time": 47.59254499999977,
                    "velocity": 0.28346456692913385,
                    "duration": 0.09259250000000208
                },
                {
                    "name": "C4",
                    "midi": 60,
                    "time": 47.59254499999977,
                    "velocity": 0.33858267716535434,
                    "duration": 0.09259250000000208
                },
                {
                    "name": "F3",
                    "midi": 53,
                    "time": 47.77772999999977,
                    "velocity": 0.28346456692913385,
                    "duration": 0.09259250000000208
                },
                {
                    "name": "D3",
                    "midi": 50,
                    "time": 47.77772999999977,
                    "velocity": 0.28346456692913385,
                    "duration": 0.09259250000000208
                },
                {
                    "name": "C4",
                    "midi": 60,
                    "time": 47.77772999999977,
                    "velocity": 0.33858267716535434,
                    "duration": 0.09259250000000208
                },
                {
                    "name": "D3",
                    "midi": 50,
                    "time": 47.962914999999775,
                    "velocity": 0.28346456692913385,
                    "duration": 0.09259250000000208
                },
                {
                    "name": "F3",
                    "midi": 53,
                    "time": 47.962914999999775,
                    "velocity": 0.28346456692913385,
                    "duration": 0.09259250000000208
                },
                {
                    "name": "B3",
                    "midi": 59,
                    "time": 47.962914999999775,
                    "velocity": 0.33858267716535434,
                    "duration": 0.09259250000000208
                },
                {
                    "name": "D3",
                    "midi": 50,
                    "time": 48.14809999999978,
                    "velocity": 0.30708661417322836,
                    "duration": 0.09259250000000208
                },
                {
                    "name": "B3",
                    "midi": 59,
                    "time": 48.14809999999978,
                    "velocity": 0.36220472440944884,
                    "duration": 0.09259250000000208
                },
                {
                    "name": "F3",
                    "midi": 53,
                    "time": 48.14809999999978,
                    "velocity": 0.30708661417322836,
                    "duration": 0.09259250000000208
                },
                {
                    "name": "D3",
                    "midi": 50,
                    "time": 48.33328499999978,
                    "velocity": 0.2755905511811024,
                    "duration": 0.09259250000000208
                },
                {
                    "name": "A#3",
                    "midi": 58,
                    "time": 48.33328499999978,
                    "velocity": 0.33070866141732286,
                    "duration": 0.09259250000000208
                },
                {
                    "name": "F3",
                    "midi": 53,
                    "time": 48.33328499999978,
                    "velocity": 0.2755905511811024,
                    "duration": 0.09259250000000208
                },
                {
                    "name": "F3",
                    "midi": 53,
                    "time": 48.51846999999979,
                    "velocity": 0.2755905511811024,
                    "duration": 0.09259250000000208
                },
                {
                    "name": "D3",
                    "midi": 50,
                    "time": 48.51846999999979,
                    "velocity": 0.2755905511811024,
                    "duration": 0.09259250000000208
                },
                {
                    "name": "A#3",
                    "midi": 58,
                    "time": 48.51846999999979,
                    "velocity": 0.33070866141732286,
                    "duration": 0.09259250000000208
                },
                {
                    "name": "F3",
                    "midi": 53,
                    "time": 48.70365499999979,
                    "velocity": 0.2677165354330709,
                    "duration": 0.9259249999999994
                },
                {
                    "name": "A3",
                    "midi": 57,
                    "time": 48.70365499999979,
                    "velocity": 0.3228346456692913,
                    "duration": 0.9259249999999994
                },
                {
                    "name": "D3",
                    "midi": 50,
                    "time": 48.70365499999979,
                    "velocity": 0.2677165354330709,
                    "duration": 0.9259249999999994
                },
                {
                    "name": "D4",
                    "midi": 62,
                    "time": 50.37031999999979,
                    "velocity": 0.31496062992125984,
                    "duration": 0.09259250000000208
                },
                {
                    "name": "A4",
                    "midi": 69,
                    "time": 50.5555049999998,
                    "velocity": 0.30708661417322836,
                    "duration": 0.09259250000000208
                },
                {
                    "name": "D5",
                    "midi": 74,
                    "time": 50.7406899999998,
                    "velocity": 0.28346456692913385,
                    "duration": 0.09259250000000208
                },
                {
                    "name": "A5",
                    "midi": 81,
                    "time": 50.925874999999806,
                    "velocity": 0.33070866141732286,
                    "duration": 1.2962950000000006
                },
                {
                    "name": "D5",
                    "midi": 74,
                    "time": 51.851799999999805,
                    "velocity": 0.2125984251968504,
                    "duration": 0.7407399999999953
                },
                {
                    "name": "F#5",
                    "midi": 78,
                    "time": 51.851799999999805,
                    "velocity": 0.2125984251968504,
                    "duration": 0.7407399999999953
                },
                {
                    "name": "B5",
                    "midi": 83,
                    "time": 52.22216999999981,
                    "velocity": 0.3779527559055118,
                    "duration": 0.18518499999999705
                },
                {
                    "name": "C#6",
                    "midi": 85,
                    "time": 52.407354999999804,
                    "velocity": 0.3779527559055118,
                    "duration": 0.18518499999999705
                },
                {
                    "name": "D5",
                    "midi": 74,
                    "time": 52.5925399999998,
                    "velocity": 0.2125984251968504,
                    "duration": 0.7407399999999953
                },
                {
                    "name": "D6",
                    "midi": 86,
                    "time": 52.5925399999998,
                    "velocity": 0.4094488188976378,
                    "duration": 0.3703700000000012
                },
                {
                    "name": "C#6",
                    "midi": 85,
                    "time": 52.9629099999998,
                    "velocity": 0.3779527559055118,
                    "duration": 0.18518499999999705
                },
                {
                    "name": "B5",
                    "midi": 83,
                    "time": 53.1480949999998,
                    "velocity": 0.3779527559055118,
                    "duration": 0.18518499999999705
                },
                {
                    "name": "D5",
                    "midi": 74,
                    "time": 53.333279999999796,
                    "velocity": 0.2047244094488189,
                    "duration": 0.7407399999999953
                },
                {
                    "name": "F#5",
                    "midi": 78,
                    "time": 53.333279999999796,
                    "velocity": 0.2047244094488189,
                    "duration": 0.7407399999999953
                },
                {
                    "name": "C#6",
                    "midi": 85,
                    "time": 53.333279999999796,
                    "velocity": 0.3937007874015748,
                    "duration": 0.18518499999999705
                },
                {
                    "name": "A5",
                    "midi": 81,
                    "time": 53.51846499999979,
                    "velocity": 0.3779527559055118,
                    "duration": 0.3703700000000012
                },
                {
                    "name": "C#6",
                    "midi": 85,
                    "time": 53.888834999999794,
                    "velocity": 0.36220472440944884,
                    "duration": 0.13888874999999956
                },
                {
                    "name": "C#6",
                    "midi": 85,
                    "time": 54.027723749999794,
                    "velocity": 0.30708661417322836,
                    "duration": 0.046296249999997485
                },
                {
                    "name": "D5",
                    "midi": 74,
                    "time": 54.07401999999979,
                    "velocity": 0.18110236220472442,
                    "duration": 0.7407400000000024
                },
                {
                    "name": "F#5",
                    "midi": 78,
                    "time": 54.07401999999979,
                    "velocity": 0.33070866141732286,
                    "duration": 0.7407400000000024
                },
                {
                    "name": "A5",
                    "midi": 81,
                    "time": 54.814759999999794,
                    "velocity": 0.3779527559055118,
                    "duration": 0.3703700000000012
                },
                {
                    "name": "D5",
                    "midi": 74,
                    "time": 54.814759999999794,
                    "velocity": 0.2125984251968504,
                    "duration": 0.7407399999999953
                },
                {
                    "name": "F#5",
                    "midi": 78,
                    "time": 54.814759999999794,
                    "velocity": 0.2125984251968504,
                    "duration": 0.7407399999999953
                },
                {
                    "name": "B5",
                    "midi": 83,
                    "time": 55.185129999999795,
                    "velocity": 0.3779527559055118,
                    "duration": 0.18518499999999705
                },
                {
                    "name": "C#6",
                    "midi": 85,
                    "time": 55.37031499999979,
                    "velocity": 0.3779527559055118,
                    "duration": 0.18518499999999705
                },
                {
                    "name": "D5",
                    "midi": 74,
                    "time": 55.55549999999979,
                    "velocity": 0.2125984251968504,
                    "duration": 0.7407399999999953
                },
                {
                    "name": "D6",
                    "midi": 86,
                    "time": 55.55549999999979,
                    "velocity": 0.4094488188976378,
                    "duration": 0.3703700000000012
                },
                {
                    "name": "C#6",
                    "midi": 85,
                    "time": 55.92586999999979,
                    "velocity": 0.3779527559055118,
                    "duration": 0.18518499999999705
                },
                {
                    "name": "B5",
                    "midi": 83,
                    "time": 56.11105499999979,
                    "velocity": 0.3779527559055118,
                    "duration": 0.18518499999999705
                },
                {
                    "name": "D5",
                    "midi": 74,
                    "time": 56.296239999999784,
                    "velocity": 0.2047244094488189,
                    "duration": 0.7407399999999953
                },
                {
                    "name": "C#6",
                    "midi": 85,
                    "time": 56.296239999999784,
                    "velocity": 0.3937007874015748,
                    "duration": 0.18518499999999705
                },
                {
                    "name": "F#5",
                    "midi": 78,
                    "time": 56.48142499999978,
                    "velocity": 0.3779527559055118,
                    "duration": 0.3703700000000012
                },
                {
                    "name": "C#6",
                    "midi": 85,
                    "time": 56.85179499999978,
                    "velocity": 0.36220472440944884,
                    "duration": 0.13888874999999956
                },
                {
                    "name": "C#6",
                    "midi": 85,
                    "time": 56.99068374999978,
                    "velocity": 0.30708661417322836,
                    "duration": 0.046296249999997485
                },
                {
                    "name": "C#5",
                    "midi": 73,
                    "time": 57.03697999999978,
                    "velocity": 0.18110236220472442,
                    "duration": 0.7407400000000024
                },
                {
                    "name": "A5",
                    "midi": 81,
                    "time": 57.03697999999978,
                    "velocity": 0.33070866141732286,
                    "duration": 0.7407400000000024
                },
                {
                    "name": "A4",
                    "midi": 69,
                    "time": 57.77771999999978,
                    "velocity": 0.33070866141732286,
                    "duration": 0.3703699999999941
                },
                {
                    "name": "D4",
                    "midi": 62,
                    "time": 57.96290499999978,
                    "velocity": 0.2125984251968504,
                    "duration": 0.5555549999999911
                },
                {
                    "name": "F#4",
                    "midi": 66,
                    "time": 57.96290499999978,
                    "velocity": 0.2125984251968504,
                    "duration": 0.5555549999999911
                },
                {
                    "name": "B4",
                    "midi": 71,
                    "time": 58.148089999999776,
                    "velocity": 0.33070866141732286,
                    "duration": 0.18518499999999705
                },
                {
                    "name": "C#5",
                    "midi": 73,
                    "time": 58.33327499999977,
                    "velocity": 0.33070866141732286,
                    "duration": 0.18518499999999705
                },
                {
                    "name": "D5",
                    "midi": 74,
                    "time": 58.51845999999977,
                    "velocity": 0.3700787401574803,
                    "duration": 0.3703699999999941
                },
                {
                    "name": "D4",
                    "midi": 62,
                    "time": 58.70364499999977,
                    "velocity": 0.2125984251968504,
                    "duration": 0.5555549999999911
                },
                {
                    "name": "C#5",
                    "midi": 73,
                    "time": 58.888829999999764,
                    "velocity": 0.33070866141732286,
                    "duration": 0.18518499999999705
                },
                {
                    "name": "B4",
                    "midi": 71,
                    "time": 59.07401499999976,
                    "velocity": 0.33070866141732286,
                    "duration": 0.18518499999999705
                },
                {
                    "name": "C#5",
                    "midi": 73,
                    "time": 59.25919999999976,
                    "velocity": 0.3464566929133858,
                    "duration": 0.18518499999999705
                },
                {
                    "name": "F#4",
                    "midi": 66,
                    "time": 59.444384999999755,
                    "velocity": 0.2047244094488189,
                    "duration": 0.5555549999999911
                },
                {
                    "name": "D4",
                    "midi": 62,
                    "time": 59.444384999999755,
                    "velocity": 0.2047244094488189,
                    "duration": 0.5555549999999911
                },
                {
                    "name": "A4",
                    "midi": 69,
                    "time": 59.62956999999975,
                    "velocity": 0.33070866141732286,
                    "duration": 0.18518499999999705
                },
                {
                    "name": "C#5",
                    "midi": 73,
                    "time": 59.81475499999975,
                    "velocity": 0.3228346456692913,
                    "duration": 0.13888874999999956
                },
                {
                    "name": "C#5",
                    "midi": 73,
                    "time": 59.95364374999975,
                    "velocity": 0.2677165354330709,
                    "duration": 0.046296249999997485
                },
                {
                    "name": "F#4",
                    "midi": 66,
                    "time": 59.99993999999975,
                    "velocity": 0.29133858267716534,
                    "duration": 0.7407399999999953
                },
                {
                    "name": "D4",
                    "midi": 62,
                    "time": 60.18512499999974,
                    "velocity": 0.18110236220472442,
                    "duration": 0.5555549999999982
                },
                {
                    "name": "A4",
                    "midi": 69,
                    "time": 60.74067999999974,
                    "velocity": 0.33070866141732286,
                    "duration": 0.3703699999999941
                },
                {
                    "name": "D4",
                    "midi": 62,
                    "time": 60.92586499999974,
                    "velocity": 0.2125984251968504,
                    "duration": 0.5555549999999911
                },
                {
                    "name": "F#4",
                    "midi": 66,
                    "time": 60.92586499999974,
                    "velocity": 0.2125984251968504,
                    "duration": 0.5555549999999911
                },
                {
                    "name": "B4",
                    "midi": 71,
                    "time": 61.111049999999736,
                    "velocity": 0.33070866141732286,
                    "duration": 0.18518499999999705
                },
                {
                    "name": "C#5",
                    "midi": 73,
                    "time": 61.29623499999973,
                    "velocity": 0.33070866141732286,
                    "duration": 0.18518499999999705
                },
                {
                    "name": "D5",
                    "midi": 74,
                    "time": 61.48141999999973,
                    "velocity": 0.3700787401574803,
                    "duration": 0.3703699999999941
                },
                {
                    "name": "D4",
                    "midi": 62,
                    "time": 61.66660499999973,
                    "velocity": 0.2125984251968504,
                    "duration": 0.5555549999999911
                },
                {
                    "name": "C#5",
                    "midi": 73,
                    "time": 61.851789999999724,
                    "velocity": 0.3464566929133858,
                    "duration": 0.18518499999999705
                },
                {
                    "name": "B4",
                    "midi": 71,
                    "time": 62.03697499999972,
                    "velocity": 0.36220472440944884,
                    "duration": 0.18518499999999705
                },
                {
                    "name": "C#5",
                    "midi": 73,
                    "time": 62.22215999999972,
                    "velocity": 0.4015748031496063,
                    "duration": 0.3703699999999941
                },
                {
                    "name": "D4",
                    "midi": 62,
                    "time": 62.407344999999715,
                    "velocity": 0.2755905511811024,
                    "duration": 0.5555549999999911
                },
                {
                    "name": "F#4",
                    "midi": 66,
                    "time": 62.59252999999971,
                    "velocity": 0.33070866141732286,
                    "duration": 0.18518499999999705
                },
                {
                    "name": "C#5",
                    "midi": 73,
                    "time": 62.77771499999971,
                    "velocity": 0.3228346456692913,
                    "duration": 0.13888874999999956
                },
                {
                    "name": "C#5",
                    "midi": 73,
                    "time": 62.91660374999971,
                    "velocity": 0.2677165354330709,
                    "duration": 0.046296249999997485
                },
                {
                    "name": "A4",
                    "midi": 69,
                    "time": 62.962899999999706,
                    "velocity": 0.29133858267716534,
                    "duration": 0.7407399999999953
                },
                {
                    "name": "C#4",
                    "midi": 61,
                    "time": 63.1480849999997,
                    "velocity": 0.18110236220472442,
                    "duration": 0.5555549999999982
                },
                {
                    "name": "E5",
                    "midi": 76,
                    "time": 63.8888249999997,
                    "velocity": 0.2755905511811024,
                    "duration": 0.06172833333333472
                },
                {
                    "name": "G5",
                    "midi": 79,
                    "time": 63.95055333333303,
                    "velocity": 0.2755905511811024,
                    "duration": 0.06172833333333472
                },
                {
                    "name": "E6",
                    "midi": 88,
                    "time": 64.01228166666637,
                    "velocity": 0.2755905511811024,
                    "duration": 0.06172833333333472
                },
                {
                    "name": "B5",
                    "midi": 83,
                    "time": 64.0740099999997,
                    "velocity": 0.3228346456692913,
                    "duration": 0.3703699999999941
                },
                {
                    "name": "E5",
                    "midi": 76,
                    "time": 64.6295649999997,
                    "velocity": 0.2755905511811024,
                    "duration": 0.06172833333333472
                },
                {
                    "name": "G5",
                    "midi": 79,
                    "time": 64.69129333333304,
                    "velocity": 0.2755905511811024,
                    "duration": 0.06172833333333472
                },
                {
                    "name": "E6",
                    "midi": 88,
                    "time": 64.75302166666637,
                    "velocity": 0.2755905511811024,
                    "duration": 0.06172833333333472
                },
                {
                    "name": "B5",
                    "midi": 83,
                    "time": 64.8147499999997,
                    "velocity": 0.3228346456692913,
                    "duration": 0.3703699999999941
                },
                {
                    "name": "G4",
                    "midi": 67,
                    "time": 65.3703049999997,
                    "velocity": 0.31496062992125984,
                    "duration": 0.09259249999999497
                },
                {
                    "name": "C#5",
                    "midi": 73,
                    "time": 65.4628974999997,
                    "velocity": 0.28346456692913385,
                    "duration": 0.09259249999999497
                },
                {
                    "name": "B4",
                    "midi": 71,
                    "time": 65.5554899999997,
                    "velocity": 0.31496062992125984,
                    "duration": 0.09259249999999497
                },
                {
                    "name": "E5",
                    "midi": 76,
                    "time": 65.64808249999969,
                    "velocity": 0.28346456692913385,
                    "duration": 0.09259249999999497
                },
                {
                    "name": "D5",
                    "midi": 74,
                    "time": 65.74067499999968,
                    "velocity": 0.31496062992125984,
                    "duration": 0.09259249999999497
                },
                {
                    "name": "G5",
                    "midi": 79,
                    "time": 65.83326749999968,
                    "velocity": 0.28346456692913385,
                    "duration": 0.09259249999999497
                },
                {
                    "name": "E5",
                    "midi": 76,
                    "time": 65.92585999999967,
                    "velocity": 0.30708661417322836,
                    "duration": 0.09259249999999497
                },
                {
                    "name": "A5",
                    "midi": 81,
                    "time": 66.01845249999967,
                    "velocity": 0.28346456692913385,
                    "duration": 0.09259249999999497
                },
                {
                    "name": "G5",
                    "midi": 79,
                    "time": 66.11104499999966,
                    "velocity": 0.30708661417322836,
                    "duration": 0.09259249999999497
                },
                {
                    "name": "C#6",
                    "midi": 85,
                    "time": 66.20363749999966,
                    "velocity": 0.2755905511811024,
                    "duration": 0.09259249999999497
                },
                {
                    "name": "B5",
                    "midi": 83,
                    "time": 66.29622999999965,
                    "velocity": 0.30708661417322836,
                    "duration": 0.09259249999999497
                },
                {
                    "name": "E6",
                    "midi": 88,
                    "time": 66.38882249999965,
                    "velocity": 0.28346456692913385,
                    "duration": 0.09259249999999497
                },
                {
                    "name": "C5",
                    "midi": 72,
                    "time": 66.85178499999964,
                    "velocity": 0.2755905511811024,
                    "duration": 0.06172833333333472
                },
                {
                    "name": "D#5",
                    "midi": 75,
                    "time": 66.91119852083297,
                    "velocity": 0.2755905511811024,
                    "duration": 0.06172833333333472
                },
                {
                    "name": "C6",
                    "midi": 84,
                    "time": 66.9752416666663,
                    "velocity": 0.2755905511811024,
                    "duration": 0.06172833333333472
                },
                {
                    "name": "G5",
                    "midi": 79,
                    "time": 67.03696999999964,
                    "velocity": 0.31496062992125984,
                    "duration": 0.3703699999999941
                },
                {
                    "name": "C5",
                    "midi": 72,
                    "time": 67.59252499999964,
                    "velocity": 0.2755905511811024,
                    "duration": 0.06172833333333472
                },
                {
                    "name": "D#5",
                    "midi": 75,
                    "time": 67.65425333333297,
                    "velocity": 0.2755905511811024,
                    "duration": 0.06172833333333472
                },
                {
                    "name": "C6",
                    "midi": 84,
                    "time": 67.71598166666631,
                    "velocity": 0.2755905511811024,
                    "duration": 0.06172833333333472
                },
                {
                    "name": "G5",
                    "midi": 79,
                    "time": 67.77770999999964,
                    "velocity": 0.31496062992125984,
                    "duration": 0.3703699999999941
                },
                {
                    "name": "D#4",
                    "midi": 63,
                    "time": 68.33326499999964,
                    "velocity": 0.31496062992125984,
                    "duration": 0.09259249999999497
                },
                {
                    "name": "A4",
                    "midi": 69,
                    "time": 68.42585749999964,
                    "velocity": 0.28346456692913385,
                    "duration": 0.09259249999999497
                },
                {
                    "name": "G4",
                    "midi": 67,
                    "time": 68.51844999999963,
                    "velocity": 0.31496062992125984,
                    "duration": 0.09259249999999497
                },
                {
                    "name": "C5",
                    "midi": 72,
                    "time": 68.61104249999963,
                    "velocity": 0.28346456692913385,
                    "duration": 0.09259249999999497
                },
                {
                    "name": "A#4",
                    "midi": 70,
                    "time": 68.70363499999962,
                    "velocity": 0.31496062992125984,
                    "duration": 0.09259249999999497
                },
                {
                    "name": "D#5",
                    "midi": 75,
                    "time": 68.79622749999962,
                    "velocity": 0.28346456692913385,
                    "duration": 0.09259249999999497
                },
                {
                    "name": "C5",
                    "midi": 72,
                    "time": 68.88881999999961,
                    "velocity": 0.30708661417322836,
                    "duration": 0.09259249999999497
                },
                {
                    "name": "F5",
                    "midi": 77,
                    "time": 68.9814124999996,
                    "velocity": 0.28346456692913385,
                    "duration": 0.09259249999999497
                },
                {
                    "name": "D#5",
                    "midi": 75,
                    "time": 69.0740049999996,
                    "velocity": 0.30708661417322836,
                    "duration": 0.09259249999999497
                },
                {
                    "name": "A5",
                    "midi": 81,
                    "time": 69.1665974999996,
                    "velocity": 0.2755905511811024,
                    "duration": 0.09259249999999497
                },
                {
                    "name": "G5",
                    "midi": 79,
                    "time": 69.25918999999959,
                    "velocity": 0.30708661417322836,
                    "duration": 0.09259249999999497
                },
                {
                    "name": "C6",
                    "midi": 84,
                    "time": 69.35178249999959,
                    "velocity": 0.28346456692913385,
                    "duration": 0.09259249999999497
                },
                {
                    "name": "C4",
                    "midi": 60,
                    "time": 69.81474499999958,
                    "velocity": 0.25984251968503935,
                    "duration": 0.09259249999999497
                },
                {
                    "name": "F#4",
                    "midi": 66,
                    "time": 69.90733749999957,
                    "velocity": 0.2440944881889764,
                    "duration": 0.09259249999999497
                },
                {
                    "name": "E4",
                    "midi": 64,
                    "time": 69.99992999999957,
                    "velocity": 0.25984251968503935,
                    "duration": 0.09259249999999497
                },
                {
                    "name": "A4",
                    "midi": 69,
                    "time": 70.09252249999956,
                    "velocity": 0.2440944881889764,
                    "duration": 0.09259249999999497
                },
                {
                    "name": "G4",
                    "midi": 67,
                    "time": 70.18511499999956,
                    "velocity": 0.25984251968503935,
                    "duration": 0.09259249999999497
                },
                {
                    "name": "C5",
                    "midi": 72,
                    "time": 70.27770749999955,
                    "velocity": 0.2440944881889764,
                    "duration": 0.09259249999999497
                },
                {
                    "name": "A4",
                    "midi": 69,
                    "time": 70.37029999999955,
                    "velocity": 0.25196850393700787,
                    "duration": 0.09259249999999497
                },
                {
                    "name": "D5",
                    "midi": 74,
                    "time": 70.46289249999954,
                    "velocity": 0.2283464566929134,
                    "duration": 0.09259249999999497
                },
                {
                    "name": "C5",
                    "midi": 72,
                    "time": 70.55548499999954,
                    "velocity": 0.2440944881889764,
                    "duration": 0.09259249999999497
                },
                {
                    "name": "F#5",
                    "midi": 78,
                    "time": 70.64807749999953,
                    "velocity": 0.2125984251968504,
                    "duration": 0.09259249999999497
                },
                {
                    "name": "E5",
                    "midi": 76,
                    "time": 70.74066999999953,
                    "velocity": 0.2283464566929134,
                    "duration": 0.09259249999999497
                },
                {
                    "name": "A5",
                    "midi": 81,
                    "time": 70.83326249999952,
                    "velocity": 0.1968503937007874,
                    "duration": 0.09259249999999497
                },
                {
                    "name": "G5",
                    "midi": 79,
                    "time": 71.11103999999952,
                    "velocity": 0.1889763779527559,
                    "duration": 0.7407400000000024
                },
                {
                    "name": "B5",
                    "midi": 83,
                    "time": 71.11103999999952,
                    "velocity": 0.1889763779527559,
                    "duration": 0.7407400000000024
                },
                {
                    "name": "D6",
                    "midi": 86,
                    "time": 71.11103999999952,
                    "velocity": 0.3464566929133858,
                    "duration": 0.3703699999999941
                },
                {
                    "name": "E6",
                    "midi": 88,
                    "time": 71.48140999999951,
                    "velocity": 0.33070866141732286,
                    "duration": 0.18518500000000415
                },
                {
                    "name": "F#6",
                    "midi": 90,
                    "time": 71.66659499999952,
                    "velocity": 0.33070866141732286,
                    "duration": 0.18518500000000415
                },
                {
                    "name": "G5",
                    "midi": 79,
                    "time": 71.85177999999952,
                    "velocity": 0.1889763779527559,
                    "duration": 0.7407400000000024
                },
                {
                    "name": "G6",
                    "midi": 91,
                    "time": 71.85177999999952,
                    "velocity": 0.3700787401574803,
                    "duration": 0.3703699999999941
                },
                {
                    "name": "F#6",
                    "midi": 90,
                    "time": 72.22214999999952,
                    "velocity": 0.33070866141732286,
                    "duration": 0.18518500000000415
                },
                {
                    "name": "E6",
                    "midi": 88,
                    "time": 72.40733499999952,
                    "velocity": 0.33070866141732286,
                    "duration": 0.18518500000000415
                },
                {
                    "name": "G5",
                    "midi": 79,
                    "time": 72.59251999999952,
                    "velocity": 0.18110236220472442,
                    "duration": 0.7407400000000024
                },
                {
                    "name": "B5",
                    "midi": 83,
                    "time": 72.59251999999952,
                    "velocity": 0.18110236220472442,
                    "duration": 0.7407400000000024
                },
                {
                    "name": "F#6",
                    "midi": 90,
                    "time": 72.59251999999952,
                    "velocity": 0.3464566929133858,
                    "duration": 0.18518500000000415
                },
                {
                    "name": "D6",
                    "midi": 86,
                    "time": 72.77770499999953,
                    "velocity": 0.33070866141732286,
                    "duration": 0.3703699999999941
                },
                {
                    "name": "F#6",
                    "midi": 90,
                    "time": 73.14807499999952,
                    "velocity": 0.3228346456692913,
                    "duration": 0.13888875000000667
                },
                {
                    "name": "F#6",
                    "midi": 90,
                    "time": 73.28696374999953,
                    "velocity": 0.2677165354330709,
                    "duration": 0.046296249999997485
                },
                {
                    "name": "G5",
                    "midi": 79,
                    "time": 73.33325999999953,
                    "velocity": 0.15748031496062992,
                    "duration": 0.7407400000000024
                },
                {
                    "name": "B5",
                    "midi": 83,
                    "time": 73.33325999999953,
                    "velocity": 0.29133858267716534,
                    "duration": 0.7407400000000024
                },
                {
                    "name": "D6",
                    "midi": 86,
                    "time": 74.07399999999953,
                    "velocity": 0.33070866141732286,
                    "duration": 0.3703699999999941
                },
                {
                    "name": "G5",
                    "midi": 79,
                    "time": 74.07399999999953,
                    "velocity": 0.1889763779527559,
                    "duration": 0.7407400000000024
                },
                {
                    "name": "B5",
                    "midi": 83,
                    "time": 74.07399999999953,
                    "velocity": 0.1889763779527559,
                    "duration": 0.7407400000000024
                },
                {
                    "name": "E6",
                    "midi": 88,
                    "time": 74.44436999999952,
                    "velocity": 0.33070866141732286,
                    "duration": 0.18518500000000415
                },
                {
                    "name": "F#6",
                    "midi": 90,
                    "time": 74.62955499999953,
                    "velocity": 0.33070866141732286,
                    "duration": 0.18518500000000415
                },
                {
                    "name": "G5",
                    "midi": 79,
                    "time": 74.81473999999953,
                    "velocity": 0.1889763779527559,
                    "duration": 0.7407400000000024
                },
                {
                    "name": "G6",
                    "midi": 91,
                    "time": 74.81473999999953,
                    "velocity": 0.3700787401574803,
                    "duration": 0.3703699999999941
                },
                {
                    "name": "F#6",
                    "midi": 90,
                    "time": 75.18510999999953,
                    "velocity": 0.33070866141732286,
                    "duration": 0.18518500000000415
                },
                {
                    "name": "E6",
                    "midi": 88,
                    "time": 75.37029499999953,
                    "velocity": 0.33070866141732286,
                    "duration": 0.18518500000000415
                },
                {
                    "name": "G5",
                    "midi": 79,
                    "time": 75.55547999999953,
                    "velocity": 0.18110236220472442,
                    "duration": 0.7407400000000024
                },
                {
                    "name": "F#6",
                    "midi": 90,
                    "time": 75.55547999999953,
                    "velocity": 0.3464566929133858,
                    "duration": 0.18518500000000415
                },
                {
                    "name": "B5",
                    "midi": 83,
                    "time": 75.74066499999954,
                    "velocity": 0.33070866141732286,
                    "duration": 0.3703699999999941
                },
                {
                    "name": "F#6",
                    "midi": 90,
                    "time": 76.11103499999953,
                    "velocity": 0.3228346456692913,
                    "duration": 0.13888875000000667
                },
                {
                    "name": "F#6",
                    "midi": 90,
                    "time": 76.24992374999954,
                    "velocity": 0.2677165354330709,
                    "duration": 0.046296249999997485
                },
                {
                    "name": "F#5",
                    "midi": 78,
                    "time": 76.29621999999954,
                    "velocity": 0.15748031496062992,
                    "duration": 0.7407400000000024
                },
                {
                    "name": "D6",
                    "midi": 86,
                    "time": 76.29621999999954,
                    "velocity": 0.29133858267716534,
                    "duration": 0.7407400000000024
                },
                {
                    "name": "D5",
                    "midi": 74,
                    "time": 77.03695999999954,
                    "velocity": 0.3228346456692913,
                    "duration": 0.3703700000000083
                },
                {
                    "name": "B4",
                    "midi": 71,
                    "time": 77.22214499999954,
                    "velocity": 0.2047244094488189,
                    "duration": 0.5555550000000125
                },
                {
                    "name": "G4",
                    "midi": 67,
                    "time": 77.22214499999954,
                    "velocity": 0.2047244094488189,
                    "duration": 0.5555550000000125
                },
                {
                    "name": "E5",
                    "midi": 76,
                    "time": 77.40732999999955,
                    "velocity": 0.3228346456692913,
                    "duration": 0.18518500000000415
                },
                {
                    "name": "F#5",
                    "midi": 78,
                    "time": 77.59251499999955,
                    "velocity": 0.3228346456692913,
                    "duration": 0.18518500000000415
                },
                {
                    "name": "G5",
                    "midi": 79,
                    "time": 77.77769999999956,
                    "velocity": 0.3464566929133858,
                    "duration": 0.3703700000000083
                },
                {
                    "name": "G4",
                    "midi": 67,
                    "time": 77.96288499999956,
                    "velocity": 0.2047244094488189,
                    "duration": 0.5555550000000125
                },
                {
                    "name": "F#5",
                    "midi": 78,
                    "time": 78.14806999999956,
                    "velocity": 0.3228346456692913,
                    "duration": 0.18518500000000415
                },
                {
                    "name": "E5",
                    "midi": 76,
                    "time": 78.33325499999957,
                    "velocity": 0.3228346456692913,
                    "duration": 0.18518500000000415
                },
                {
                    "name": "F#5",
                    "midi": 78,
                    "time": 78.51843999999957,
                    "velocity": 0.33858267716535434,
                    "duration": 0.18518500000000415
                },
                {
                    "name": "G4",
                    "midi": 67,
                    "time": 78.70362499999958,
                    "velocity": 0.1968503937007874,
                    "duration": 0.5555550000000125
                },
                {
                    "name": "B4",
                    "midi": 71,
                    "time": 78.70362499999958,
                    "velocity": 0.1968503937007874,
                    "duration": 0.5555550000000125
                },
                {
                    "name": "D5",
                    "midi": 74,
                    "time": 78.88880999999958,
                    "velocity": 0.3228346456692913,
                    "duration": 0.18518500000000415
                },
                {
                    "name": "F#5",
                    "midi": 78,
                    "time": 79.07399499999958,
                    "velocity": 0.31496062992125984,
                    "duration": 0.13888875000000667
                },
                {
                    "name": "F#5",
                    "midi": 78,
                    "time": 79.21288374999959,
                    "velocity": 0.25984251968503935,
                    "duration": 0.046296249999997485
                },
                {
                    "name": "B4",
                    "midi": 71,
                    "time": 79.25917999999959,
                    "velocity": 0.2755905511811024,
                    "duration": 0.7407400000000024
                },
                {
                    "name": "G4",
                    "midi": 67,
                    "time": 79.44436499999959,
                    "velocity": 0.16535433070866143,
                    "duration": 0.5555549999999982
                },
                {
                    "name": "D5",
                    "midi": 74,
                    "time": 79.99991999999959,
                    "velocity": 0.33858267716535434,
                    "duration": 0.3703700000000083
                },
                {
                    "name": "G4",
                    "midi": 67,
                    "time": 80.1851049999996,
                    "velocity": 0.2047244094488189,
                    "duration": 0.5555550000000125
                },
                {
                    "name": "B4",
                    "midi": 71,
                    "time": 80.1851049999996,
                    "velocity": 0.2047244094488189,
                    "duration": 0.5555550000000125
                },
                {
                    "name": "E5",
                    "midi": 76,
                    "time": 80.3702899999996,
                    "velocity": 0.33858267716535434,
                    "duration": 0.18518500000000415
                },
                {
                    "name": "F#5",
                    "midi": 78,
                    "time": 80.5554749999996,
                    "velocity": 0.33858267716535434,
                    "duration": 0.18518500000000415
                },
                {
                    "name": "G5",
                    "midi": 79,
                    "time": 80.74065999999961,
                    "velocity": 0.3700787401574803,
                    "duration": 0.3703700000000083
                },
                {
                    "name": "G4",
                    "midi": 67,
                    "time": 80.92584499999961,
                    "velocity": 0.2047244094488189,
                    "duration": 0.5555550000000125
                },
                {
                    "name": "F#5",
                    "midi": 78,
                    "time": 81.11102999999962,
                    "velocity": 0.33070866141732286,
                    "duration": 0.18518500000000415
                },
                {
                    "name": "E5",
                    "midi": 76,
                    "time": 81.29621499999962,
                    "velocity": 0.3464566929133858,
                    "duration": 0.18518500000000415
                },
                {
                    "name": "F#5",
                    "midi": 78,
                    "time": 81.48139999999962,
                    "velocity": 0.3937007874015748,
                    "duration": 0.3703700000000083
                },
                {
                    "name": "G4",
                    "midi": 67,
                    "time": 81.66658499999963,
                    "velocity": 0.25984251968503935,
                    "duration": 0.5555550000000125
                },
                {
                    "name": "B4",
                    "midi": 71,
                    "time": 81.85176999999963,
                    "velocity": 0.3228346456692913,
                    "duration": 0.18518500000000415
                },
                {
                    "name": "F#5",
                    "midi": 78,
                    "time": 82.03695499999964,
                    "velocity": 0.31496062992125984,
                    "duration": 0.13888875000000667
                },
                {
                    "name": "F#5",
                    "midi": 78,
                    "time": 82.17584374999964,
                    "velocity": 0.25984251968503935,
                    "duration": 0.046296249999997485
                },
                {
                    "name": "D5",
                    "midi": 74,
                    "time": 82.22213999999964,
                    "velocity": 0.2755905511811024,
                    "duration": 0.7407400000000024
                },
                {
                    "name": "F#4",
                    "midi": 66,
                    "time": 82.40732499999964,
                    "velocity": 0.16535433070866143,
                    "duration": 0.5555549999999982
                },
                {
                    "name": "A5",
                    "midi": 81,
                    "time": 83.14806499999965,
                    "velocity": 0.2755905511811024,
                    "duration": 0.06172833333333472
                },
                {
                    "name": "C6",
                    "midi": 84,
                    "time": 83.20979333333298,
                    "velocity": 0.2755905511811024,
                    "duration": 0.06172833333333472
                },
                {
                    "name": "A6",
                    "midi": 93,
                    "time": 83.27152166666632,
                    "velocity": 0.2755905511811024,
                    "duration": 0.06172833333333472
                },
                {
                    "name": "E6",
                    "midi": 88,
                    "time": 83.33324999999965,
                    "velocity": 0.3228346456692913,
                    "duration": 0.3703699999999941
                },
                {
                    "name": "G5",
                    "midi": 79,
                    "time": 83.88880499999965,
                    "velocity": 0.31496062992125984,
                    "duration": 0.09259249999999497
                },
                {
                    "name": "D6",
                    "midi": 86,
                    "time": 83.98139749999964,
                    "velocity": 0.28346456692913385,
                    "duration": 0.09259249999999497
                },
                {
                    "name": "B5",
                    "midi": 83,
                    "time": 84.07398999999964,
                    "velocity": 0.31496062992125984,
                    "duration": 0.09259249999999497
                },
                {
                    "name": "G6",
                    "midi": 91,
                    "time": 84.16658249999963,
                    "velocity": 0.28346456692913385,
                    "duration": 0.09259249999999497
                },
                {
                    "name": "D6",
                    "midi": 86,
                    "time": 84.25917499999963,
                    "velocity": 0.31496062992125984,
                    "duration": 0.09259249999999497
                },
                {
                    "name": "B6",
                    "midi": 95,
                    "time": 84.35176749999962,
                    "velocity": 0.28346456692913385,
                    "duration": 0.09259249999999497
                },
                {
                    "name": "E5",
                    "midi": 76,
                    "time": 84.62954499999962,
                    "velocity": 0.2755905511811024,
                    "duration": 0.06172833333333472
                },
                {
                    "name": "G5",
                    "midi": 79,
                    "time": 84.69127333333296,
                    "velocity": 0.2755905511811024,
                    "duration": 0.06172833333333472
                },
                {
                    "name": "E6",
                    "midi": 88,
                    "time": 84.7530016666663,
                    "velocity": 0.2755905511811024,
                    "duration": 0.06172833333333472
                },
                {
                    "name": "B5",
                    "midi": 83,
                    "time": 84.81472999999963,
                    "velocity": 0.3228346456692913,
                    "duration": 0.3703699999999941
                },
                {
                    "name": "F#5",
                    "midi": 78,
                    "time": 85.37028499999963,
                    "velocity": 0.31496062992125984,
                    "duration": 0.09259249999999497
                },
                {
                    "name": "D6",
                    "midi": 86,
                    "time": 85.46287749999962,
                    "velocity": 0.28346456692913385,
                    "duration": 0.09259249999999497
                },
                {
                    "name": "A5",
                    "midi": 81,
                    "time": 85.55546999999962,
                    "velocity": 0.31496062992125984,
                    "duration": 0.09259249999999497
                },
                {
                    "name": "F#6",
                    "midi": 90,
                    "time": 85.64806249999961,
                    "velocity": 0.28346456692913385,
                    "duration": 0.09259249999999497
                },
                {
                    "name": "D6",
                    "midi": 86,
                    "time": 85.7406549999996,
                    "velocity": 0.31496062992125984,
                    "duration": 0.09259249999999497
                },
                {
                    "name": "A6",
                    "midi": 93,
                    "time": 85.8332474999996,
                    "velocity": 0.28346456692913385,
                    "duration": 0.09259249999999497
                },
                {
                    "name": "A4",
                    "midi": 69,
                    "time": 86.1110249999996,
                    "velocity": 0.2755905511811024,
                    "duration": 0.06172833333333472
                },
                {
                    "name": "C5",
                    "midi": 72,
                    "time": 86.17275333333293,
                    "velocity": 0.2755905511811024,
                    "duration": 0.06172833333333472
                },
                {
                    "name": "A5",
                    "midi": 81,
                    "time": 86.23448166666627,
                    "velocity": 0.2677165354330709,
                    "duration": 0.06172833333333472
                },
                {
                    "name": "E5",
                    "midi": 76,
                    "time": 86.2962099999996,
                    "velocity": 0.31496062992125984,
                    "duration": 0.3703699999999941
                },
                {
                    "name": "B4",
                    "midi": 71,
                    "time": 86.8517649999996,
                    "velocity": 0.29133858267716534,
                    "duration": 0.09259249999999497
                },
                {
                    "name": "D5",
                    "midi": 74,
                    "time": 86.9443574999996,
                    "velocity": 0.2755905511811024,
                    "duration": 0.09259249999999497
                },
                {
                    "name": "B4",
                    "midi": 71,
                    "time": 87.03694999999959,
                    "velocity": 0.29133858267716534,
                    "duration": 0.09259249999999497
                },
                {
                    "name": "G5",
                    "midi": 79,
                    "time": 87.12954249999959,
                    "velocity": 0.2677165354330709,
                    "duration": 0.09259249999999497
                },
                {
                    "name": "D5",
                    "midi": 74,
                    "time": 87.22213499999958,
                    "velocity": 0.29133858267716534,
                    "duration": 0.09259249999999497
                },
                {
                    "name": "B5",
                    "midi": 83,
                    "time": 87.31472749999958,
                    "velocity": 0.2677165354330709,
                    "duration": 0.09259249999999497
                },
                {
                    "name": "E4",
                    "midi": 64,
                    "time": 87.59250499999958,
                    "velocity": 0.25984251968503935,
                    "duration": 0.06172833333333472
                },
                {
                    "name": "G4",
                    "midi": 67,
                    "time": 87.65423333333291,
                    "velocity": 0.25984251968503935,
                    "duration": 0.06172833333333472
                },
                {
                    "name": "E5",
                    "midi": 76,
                    "time": 87.71596166666625,
                    "velocity": 0.25984251968503935,
                    "duration": 0.06172833333333472
                },
                {
                    "name": "B4",
                    "midi": 71,
                    "time": 87.77768999999958,
                    "velocity": 0.30708661417322836,
                    "duration": 0.3703699999999941
                },
                {
                    "name": "F#4",
                    "midi": 66,
                    "time": 88.33324499999958,
                    "velocity": 0.29133858267716534,
                    "duration": 0.09259249999999497
                },
                {
                    "name": "D5",
                    "midi": 74,
                    "time": 88.42583749999957,
                    "velocity": 0.2755905511811024,
                    "duration": 0.09259249999999497
                },
                {
                    "name": "A4",
                    "midi": 69,
                    "time": 88.51842999999957,
                    "velocity": 0.30708661417322836,
                    "duration": 0.09259249999999497
                },
                {
                    "name": "F#5",
                    "midi": 78,
                    "time": 88.61102249999956,
                    "velocity": 0.2755905511811024,
                    "duration": 0.09259249999999497
                },
                {
                    "name": "D5",
                    "midi": 74,
                    "time": 88.70361499999956,
                    "velocity": 0.30708661417322836,
                    "duration": 0.09259249999999497
                },
                {
                    "name": "A5",
                    "midi": 81,
                    "time": 88.79620749999955,
                    "velocity": 0.2755905511811024,
                    "duration": 0.09259249999999497
                },
                {
                    "name": "D4",
                    "midi": 62,
                    "time": 92.40731499999954,
                    "velocity": 0.28346456692913385,
                    "duration": 0.046296249999997485
                },
                {
                    "name": "E4",
                    "midi": 64,
                    "time": 92.45361124999954,
                    "velocity": 0.28346456692913385,
                    "duration": 0.046296249999997485
                },
                {
                    "name": "F4",
                    "midi": 65,
                    "time": 92.49990749999954,
                    "velocity": 0.28346456692913385,
                    "duration": 0.046296249999997485
                },
                {
                    "name": "G4",
                    "midi": 67,
                    "time": 92.54620374999953,
                    "velocity": 0.28346456692913385,
                    "duration": 0.046296249999997485
                },
                {
                    "name": "A4",
                    "midi": 69,
                    "time": 92.59249999999953,
                    "velocity": 0.2992125984251969,
                    "duration": 0.09259249999999497
                },
                {
                    "name": "D4",
                    "midi": 62,
                    "time": 92.77768499999952,
                    "velocity": 0.2677165354330709,
                    "duration": 0.09259249999999497
                },
                {
                    "name": "F4",
                    "midi": 65,
                    "time": 92.77768499999952,
                    "velocity": 0.2677165354330709,
                    "duration": 0.09259249999999497
                },
                {
                    "name": "D5",
                    "midi": 74,
                    "time": 92.77768499999952,
                    "velocity": 0.2677165354330709,
                    "duration": 0.09259249999999497
                },
                {
                    "name": "D4",
                    "midi": 62,
                    "time": 92.96286999999951,
                    "velocity": 0.2677165354330709,
                    "duration": 0.09259249999999497
                },
                {
                    "name": "D5",
                    "midi": 74,
                    "time": 92.96286999999951,
                    "velocity": 0.2677165354330709,
                    "duration": 0.09259249999999497
                },
                {
                    "name": "F4",
                    "midi": 65,
                    "time": 92.96286999999951,
                    "velocity": 0.2677165354330709,
                    "duration": 0.09259249999999497
                },
                {
                    "name": "D4",
                    "midi": 62,
                    "time": 93.1480549999995,
                    "velocity": 0.2677165354330709,
                    "duration": 0.09259249999999497
                },
                {
                    "name": "C#5",
                    "midi": 73,
                    "time": 93.1480549999995,
                    "velocity": 0.2677165354330709,
                    "duration": 0.09259249999999497
                },
                {
                    "name": "F4",
                    "midi": 65,
                    "time": 93.1480549999995,
                    "velocity": 0.2677165354330709,
                    "duration": 0.09259249999999497
                },
                {
                    "name": "F4",
                    "midi": 65,
                    "time": 93.33323999999949,
                    "velocity": 0.28346456692913385,
                    "duration": 0.09259249999999497
                },
                {
                    "name": "C#5",
                    "midi": 73,
                    "time": 93.33323999999949,
                    "velocity": 0.28346456692913385,
                    "duration": 0.09259249999999497
                },
                {
                    "name": "D4",
                    "midi": 62,
                    "time": 93.33323999999949,
                    "velocity": 0.28346456692913385,
                    "duration": 0.09259249999999497
                },
                {
                    "name": "D4",
                    "midi": 62,
                    "time": 93.51842499999948,
                    "velocity": 0.2677165354330709,
                    "duration": 0.09259249999999497
                },
                {
                    "name": "C5",
                    "midi": 72,
                    "time": 93.51842499999948,
                    "velocity": 0.2677165354330709,
                    "duration": 0.09259249999999497
                },
                {
                    "name": "F4",
                    "midi": 65,
                    "time": 93.51842499999948,
                    "velocity": 0.2677165354330709,
                    "duration": 0.09259249999999497
                },
                {
                    "name": "F4",
                    "midi": 65,
                    "time": 93.70360999999947,
                    "velocity": 0.2677165354330709,
                    "duration": 0.09259249999999497
                },
                {
                    "name": "D4",
                    "midi": 62,
                    "time": 93.70360999999947,
                    "velocity": 0.2677165354330709,
                    "duration": 0.09259249999999497
                },
                {
                    "name": "C5",
                    "midi": 72,
                    "time": 93.70360999999947,
                    "velocity": 0.2677165354330709,
                    "duration": 0.09259249999999497
                },
                {
                    "name": "F4",
                    "midi": 65,
                    "time": 93.88879499999946,
                    "velocity": 0.2677165354330709,
                    "duration": 0.09259249999999497
                },
                {
                    "name": "D4",
                    "midi": 62,
                    "time": 93.88879499999946,
                    "velocity": 0.2677165354330709,
                    "duration": 0.09259249999999497
                },
                {
                    "name": "B4",
                    "midi": 71,
                    "time": 93.88879499999946,
                    "velocity": 0.2677165354330709,
                    "duration": 0.09259249999999497
                },
                {
                    "name": "D4",
                    "midi": 62,
                    "time": 94.07397999999945,
                    "velocity": 0.28346456692913385,
                    "duration": 0.09259249999999497
                },
                {
                    "name": "F4",
                    "midi": 65,
                    "time": 94.07397999999945,
                    "velocity": 0.28346456692913385,
                    "duration": 0.09259249999999497
                },
                {
                    "name": "B4",
                    "midi": 71,
                    "time": 94.07397999999945,
                    "velocity": 0.28346456692913385,
                    "duration": 0.09259249999999497
                },
                {
                    "name": "D4",
                    "midi": 62,
                    "time": 94.25916499999944,
                    "velocity": 0.25984251968503935,
                    "duration": 0.09259249999999497
                },
                {
                    "name": "A#4",
                    "midi": 70,
                    "time": 94.25916499999944,
                    "velocity": 0.25984251968503935,
                    "duration": 0.09259249999999497
                },
                {
                    "name": "F4",
                    "midi": 65,
                    "time": 94.25916499999944,
                    "velocity": 0.25984251968503935,
                    "duration": 0.09259249999999497
                },
                {
                    "name": "D4",
                    "midi": 62,
                    "time": 94.44434999999943,
                    "velocity": 0.25984251968503935,
                    "duration": 0.09259249999999497
                },
                {
                    "name": "A#4",
                    "midi": 70,
                    "time": 94.44434999999943,
                    "velocity": 0.25984251968503935,
                    "duration": 0.09259249999999497
                },
                {
                    "name": "F4",
                    "midi": 65,
                    "time": 94.44434999999943,
                    "velocity": 0.25984251968503935,
                    "duration": 0.09259249999999497
                },
                {
                    "name": "F4",
                    "midi": 65,
                    "time": 94.62953499999942,
                    "velocity": 0.25196850393700787,
                    "duration": 0.09259249999999497
                },
                {
                    "name": "D4",
                    "midi": 62,
                    "time": 94.62953499999942,
                    "velocity": 0.25196850393700787,
                    "duration": 0.09259249999999497
                },
                {
                    "name": "A4",
                    "midi": 69,
                    "time": 94.62953499999942,
                    "velocity": 0.25196850393700787,
                    "duration": 0.09259249999999497
                },
                {
                    "name": "E4",
                    "midi": 64,
                    "time": 94.81471999999941,
                    "velocity": 0.33858267716535434,
                    "duration": 0.09259249999999497
                },
                {
                    "name": "B3",
                    "midi": 59,
                    "time": 94.81471999999941,
                    "velocity": 0.33858267716535434,
                    "duration": 0.09259249999999497
                },
                {
                    "name": "G#4",
                    "midi": 68,
                    "time": 94.81471999999941,
                    "velocity": 0.33858267716535434,
                    "duration": 0.09259249999999497
                },
                {
                    "name": "B3",
                    "midi": 59,
                    "time": 94.9999049999994,
                    "velocity": 0.33858267716535434,
                    "duration": 0.3703699999999941
                },
                {
                    "name": "E4",
                    "midi": 64,
                    "time": 94.9999049999994,
                    "velocity": 0.33858267716535434,
                    "duration": 0.3703699999999941
                },
                {
                    "name": "G#4",
                    "midi": 68,
                    "time": 94.9999049999994,
                    "velocity": 0.33858267716535434,
                    "duration": 0.3703699999999941
                },
                {
                    "name": "G4",
                    "midi": 67,
                    "time": 95.3702749999994,
                    "velocity": 0.28346456692913385,
                    "duration": 0.046296249999997485
                },
                {
                    "name": "A4",
                    "midi": 69,
                    "time": 95.4165712499994,
                    "velocity": 0.28346456692913385,
                    "duration": 0.046296249999997485
                },
                {
                    "name": "A#4",
                    "midi": 70,
                    "time": 95.46286749999939,
                    "velocity": 0.28346456692913385,
                    "duration": 0.046296249999997485
                },
                {
                    "name": "C5",
                    "midi": 72,
                    "time": 95.50916374999939,
                    "velocity": 0.28346456692913385,
                    "duration": 0.046296249999997485
                },
                {
                    "name": "D5",
                    "midi": 74,
                    "time": 95.55545999999939,
                    "velocity": 0.2992125984251969,
                    "duration": 0.09259249999999497
                },
                {
                    "name": "G4",
                    "midi": 67,
                    "time": 95.74064499999938,
                    "velocity": 0.2677165354330709,
                    "duration": 0.09259249999999497
                },
                {
                    "name": "A#4",
                    "midi": 70,
                    "time": 95.74064499999938,
                    "velocity": 0.2677165354330709,
                    "duration": 0.09259249999999497
                },
                {
                    "name": "G5",
                    "midi": 79,
                    "time": 95.74064499999938,
                    "velocity": 0.2677165354330709,
                    "duration": 0.09259249999999497
                },
                {
                    "name": "G5",
                    "midi": 79,
                    "time": 95.92582999999937,
                    "velocity": 0.2677165354330709,
                    "duration": 0.09259249999999497
                },
                {
                    "name": "A#4",
                    "midi": 70,
                    "time": 95.92582999999937,
                    "velocity": 0.2677165354330709,
                    "duration": 0.09259249999999497
                },
                {
                    "name": "G4",
                    "midi": 67,
                    "time": 95.92582999999937,
                    "velocity": 0.2677165354330709,
                    "duration": 0.09259249999999497
                },
                {
                    "name": "A#4",
                    "midi": 70,
                    "time": 96.11101499999936,
                    "velocity": 0.2677165354330709,
                    "duration": 0.09259249999999497
                },
                {
                    "name": "F#5",
                    "midi": 78,
                    "time": 96.11101499999936,
                    "velocity": 0.2677165354330709,
                    "duration": 0.09259249999999497
                },
                {
                    "name": "G4",
                    "midi": 67,
                    "time": 96.11101499999936,
                    "velocity": 0.2677165354330709,
                    "duration": 0.09259249999999497
                },
                {
                    "name": "A#4",
                    "midi": 70,
                    "time": 96.29619999999935,
                    "velocity": 0.28346456692913385,
                    "duration": 0.09259249999999497
                },
                {
                    "name": "F#5",
                    "midi": 78,
                    "time": 96.29619999999935,
                    "velocity": 0.28346456692913385,
                    "duration": 0.09259249999999497
                },
                {
                    "name": "G4",
                    "midi": 67,
                    "time": 96.29619999999935,
                    "velocity": 0.28346456692913385,
                    "duration": 0.09259249999999497
                },
                {
                    "name": "G4",
                    "midi": 67,
                    "time": 96.48138499999934,
                    "velocity": 0.2677165354330709,
                    "duration": 0.09259249999999497
                },
                {
                    "name": "A#4",
                    "midi": 70,
                    "time": 96.48138499999934,
                    "velocity": 0.2677165354330709,
                    "duration": 0.09259249999999497
                },
                {
                    "name": "F5",
                    "midi": 77,
                    "time": 96.48138499999934,
                    "velocity": 0.2677165354330709,
                    "duration": 0.09259249999999497
                },
                {
                    "name": "A#4",
                    "midi": 70,
                    "time": 96.66656999999933,
                    "velocity": 0.2677165354330709,
                    "duration": 0.09259249999999497
                },
                {
                    "name": "G4",
                    "midi": 67,
                    "time": 96.66656999999933,
                    "velocity": 0.2677165354330709,
                    "duration": 0.09259249999999497
                },
                {
                    "name": "F5",
                    "midi": 77,
                    "time": 96.66656999999933,
                    "velocity": 0.2677165354330709,
                    "duration": 0.09259249999999497
                },
                {
                    "name": "G4",
                    "midi": 67,
                    "time": 96.85175499999932,
                    "velocity": 0.2677165354330709,
                    "duration": 0.09259249999999497
                },
                {
                    "name": "A#4",
                    "midi": 70,
                    "time": 96.85175499999932,
                    "velocity": 0.2677165354330709,
                    "duration": 0.09259249999999497
                },
                {
                    "name": "E5",
                    "midi": 76,
                    "time": 96.85175499999932,
                    "velocity": 0.2677165354330709,
                    "duration": 0.09259249999999497
                },
                {
                    "name": "A#4",
                    "midi": 70,
                    "time": 97.0369399999993,
                    "velocity": 0.28346456692913385,
                    "duration": 0.09259249999999497
                },
                {
                    "name": "E5",
                    "midi": 76,
                    "time": 97.0369399999993,
                    "velocity": 0.28346456692913385,
                    "duration": 0.09259249999999497
                },
                {
                    "name": "G4",
                    "midi": 67,
                    "time": 97.0369399999993,
                    "velocity": 0.28346456692913385,
                    "duration": 0.09259249999999497
                },
                {
                    "name": "D#5",
                    "midi": 75,
                    "time": 97.2221249999993,
                    "velocity": 0.25196850393700787,
                    "duration": 0.09259249999999497
                },
                {
                    "name": "G4",
                    "midi": 67,
                    "time": 97.2221249999993,
                    "velocity": 0.25196850393700787,
                    "duration": 0.09259249999999497
                },
                {
                    "name": "A#4",
                    "midi": 70,
                    "time": 97.2221249999993,
                    "velocity": 0.25196850393700787,
                    "duration": 0.09259249999999497
                },
                {
                    "name": "A#4",
                    "midi": 70,
                    "time": 97.40730999999928,
                    "velocity": 0.25196850393700787,
                    "duration": 0.09259249999999497
                },
                {
                    "name": "G4",
                    "midi": 67,
                    "time": 97.40730999999928,
                    "velocity": 0.25196850393700787,
                    "duration": 0.09259249999999497
                },
                {
                    "name": "D#5",
                    "midi": 75,
                    "time": 97.40730999999928,
                    "velocity": 0.25196850393700787,
                    "duration": 0.09259249999999497
                },
                {
                    "name": "D5",
                    "midi": 74,
                    "time": 97.59249499999927,
                    "velocity": 0.25196850393700787,
                    "duration": 0.09259249999999497
                },
                {
                    "name": "A#4",
                    "midi": 70,
                    "time": 97.59249499999927,
                    "velocity": 0.25196850393700787,
                    "duration": 0.09259249999999497
                },
                {
                    "name": "G4",
                    "midi": 67,
                    "time": 97.59249499999927,
                    "velocity": 0.25196850393700787,
                    "duration": 0.09259249999999497
                },
                {
                    "name": "E4",
                    "midi": 64,
                    "time": 97.77767999999926,
                    "velocity": 0.3464566929133858,
                    "duration": 0.09259249999999497
                },
                {
                    "name": "A4",
                    "midi": 69,
                    "time": 97.77767999999926,
                    "velocity": 0.3464566929133858,
                    "duration": 0.09259249999999497
                },
                {
                    "name": "C#5",
                    "midi": 73,
                    "time": 97.77767999999926,
                    "velocity": 0.3464566929133858,
                    "duration": 0.09259249999999497
                },
                {
                    "name": "C#5",
                    "midi": 73,
                    "time": 97.96286499999925,
                    "velocity": 0.3464566929133858,
                    "duration": 0.3703699999999941
                },
                {
                    "name": "A4",
                    "midi": 69,
                    "time": 97.96286499999925,
                    "velocity": 0.3464566929133858,
                    "duration": 0.3703699999999941
                },
                {
                    "name": "E4",
                    "midi": 64,
                    "time": 97.96286499999925,
                    "velocity": 0.3464566929133858,
                    "duration": 0.3703699999999941
                },
                {
                    "name": "D5",
                    "midi": 74,
                    "time": 98.51841999999925,
                    "velocity": 0.36220472440944884,
                    "duration": 0.046296249999997485
                },
                {
                    "name": "E5",
                    "midi": 76,
                    "time": 98.56471624999925,
                    "velocity": 0.2755905511811024,
                    "duration": 0.046296249999997485
                },
                {
                    "name": "F5",
                    "midi": 77,
                    "time": 98.61101249999925,
                    "velocity": 0.2755905511811024,
                    "duration": 0.046296249999997485
                },
                {
                    "name": "G5",
                    "midi": 79,
                    "time": 98.65730874999925,
                    "velocity": 0.2755905511811024,
                    "duration": 0.046296249999997485
                },
                {
                    "name": "A5",
                    "midi": 81,
                    "time": 98.70360499999924,
                    "velocity": 0.31496062992125984,
                    "duration": 0.09259249999999497
                },
                {
                    "name": "G5",
                    "midi": 79,
                    "time": 98.88878999999923,
                    "velocity": 0.36220472440944884,
                    "duration": 0.046296249999997485
                },
                {
                    "name": "F5",
                    "midi": 77,
                    "time": 98.93508624999923,
                    "velocity": 0.28346456692913385,
                    "duration": 0.046296249999997485
                },
                {
                    "name": "E5",
                    "midi": 76,
                    "time": 98.98138249999923,
                    "velocity": 0.28346456692913385,
                    "duration": 0.046296249999997485
                },
                {
                    "name": "D5",
                    "midi": 74,
                    "time": 99.02767874999923,
                    "velocity": 0.28346456692913385,
                    "duration": 0.046296249999997485
                },
                {
                    "name": "C5",
                    "midi": 72,
                    "time": 99.07397499999922,
                    "velocity": 0.31496062992125984,
                    "duration": 0.09259249999999497
                },
                {
                    "name": "A#4",
                    "midi": 70,
                    "time": 99.25915999999921,
                    "velocity": 0.3543307086614173,
                    "duration": 0.046296249999997485
                },
                {
                    "name": "C5",
                    "midi": 72,
                    "time": 99.30545624999921,
                    "velocity": 0.28346456692913385,
                    "duration": 0.046296249999997485
                },
                {
                    "name": "D5",
                    "midi": 74,
                    "time": 99.35175249999921,
                    "velocity": 0.28346456692913385,
                    "duration": 0.046296249999997485
                },
                {
                    "name": "E5",
                    "midi": 76,
                    "time": 99.3980487499992,
                    "velocity": 0.28346456692913385,
                    "duration": 0.046296249999997485
                },
                {
                    "name": "F5",
                    "midi": 77,
                    "time": 99.4443449999992,
                    "velocity": 0.3228346456692913,
                    "duration": 0.09259249999999497
                },
                {
                    "name": "E5",
                    "midi": 76,
                    "time": 99.62952999999919,
                    "velocity": 0.36220472440944884,
                    "duration": 0.046296249999997485
                },
                {
                    "name": "D5",
                    "midi": 74,
                    "time": 99.67582624999919,
                    "velocity": 0.29133858267716534,
                    "duration": 0.046296249999997485
                },
                {
                    "name": "C5",
                    "midi": 72,
                    "time": 99.72212249999919,
                    "velocity": 0.29133858267716534,
                    "duration": 0.046296249999997485
                },
                {
                    "name": "A#4",
                    "midi": 70,
                    "time": 99.76841874999919,
                    "velocity": 0.29133858267716534,
                    "duration": 0.046296249999997485
                },
                {
                    "name": "A4",
                    "midi": 69,
                    "time": 99.81471499999918,
                    "velocity": 0.33858267716535434,
                    "duration": 0.09259249999999497
                },
                {
                    "name": "G4",
                    "midi": 67,
                    "time": 99.99989999999917,
                    "velocity": 0.36220472440944884,
                    "duration": 0.046296249999997485
                },
                {
                    "name": "A4",
                    "midi": 69,
                    "time": 100.04619624999917,
                    "velocity": 0.29133858267716534,
                    "duration": 0.046296249999997485
                },
                {
                    "name": "A#4",
                    "midi": 70,
                    "time": 100.09249249999917,
                    "velocity": 0.29133858267716534,
                    "duration": 0.046296249999997485
                },
                {
                    "name": "C5",
                    "midi": 72,
                    "time": 100.13878874999916,
                    "velocity": 0.29133858267716534,
                    "duration": 0.046296249999997485
                },
                {
                    "name": "D5",
                    "midi": 74,
                    "time": 100.18508499999916,
                    "velocity": 0.3464566929133858,
                    "duration": 0.09259249999999497
                },
                {
                    "name": "C5",
                    "midi": 72,
                    "time": 100.37026999999915,
                    "velocity": 0.3700787401574803,
                    "duration": 0.046296249999997485
                },
                {
                    "name": "A#4",
                    "midi": 70,
                    "time": 100.41656624999915,
                    "velocity": 0.29133858267716534,
                    "duration": 0.046296249999997485
                },
                {
                    "name": "A4",
                    "midi": 69,
                    "time": 100.46286249999915,
                    "velocity": 0.29133858267716534,
                    "duration": 0.046296249999997485
                },
                {
                    "name": "G4",
                    "midi": 67,
                    "time": 100.50915874999914,
                    "velocity": 0.29133858267716534,
                    "duration": 0.046296249999997485
                },
                {
                    "name": "F4",
                    "midi": 65,
                    "time": 100.55545499999914,
                    "velocity": 0.33858267716535434,
                    "duration": 0.09259249999999497
                },
                {
                    "name": "A3",
                    "midi": 57,
                    "time": 100.92582499999914,
                    "velocity": 0.3543307086614173,
                    "duration": 0.5555549999999982
                },
                {
                    "name": "E4",
                    "midi": 64,
                    "time": 100.92582499999914,
                    "velocity": 0.3543307086614173,
                    "duration": 0.5555549999999982
                },
                {
                    "name": "D6",
                    "midi": 86,
                    "time": 101.48137999999913,
                    "velocity": 0.3700787401574803,
                    "duration": 0.046296249999997485
                },
                {
                    "name": "C6",
                    "midi": 84,
                    "time": 101.52767624999913,
                    "velocity": 0.29133858267716534,
                    "duration": 0.046296249999997485
                },
                {
                    "name": "A#5",
                    "midi": 82,
                    "time": 101.57397249999913,
                    "velocity": 0.29133858267716534,
                    "duration": 0.046296249999997485
                },
                {
                    "name": "A5",
                    "midi": 81,
                    "time": 101.62026874999913,
                    "velocity": 0.29133858267716534,
                    "duration": 0.046296249999997485
                },
                {
                    "name": "G5",
                    "midi": 79,
                    "time": 101.66656499999912,
                    "velocity": 0.31496062992125984,
                    "duration": 0.09259249999999497
                },
                {
                    "name": "D5",
                    "midi": 74,
                    "time": 101.85174999999911,
                    "velocity": 0.3779527559055118,
                    "duration": 0.046296249999997485
                },
                {
                    "name": "C5",
                    "midi": 72,
                    "time": 101.89804624999911,
                    "velocity": 0.29133858267716534,
                    "duration": 0.046296249999997485
                },
                {
                    "name": "A#4",
                    "midi": 70,
                    "time": 101.94434249999911,
                    "velocity": 0.29133858267716534,
                    "duration": 0.046296249999997485
                },
                {
                    "name": "A4",
                    "midi": 69,
                    "time": 101.9906387499991,
                    "velocity": 0.29133858267716534,
                    "duration": 0.046296249999997485
                },
                {
                    "name": "G4",
                    "midi": 67,
                    "time": 102.0369349999991,
                    "velocity": 0.31496062992125984,
                    "duration": 0.09259249999999497
                },
                {
                    "name": "A3",
                    "midi": 57,
                    "time": 102.4073049999991,
                    "velocity": 0.3543307086614173,
                    "duration": 0.5555549999999982
                },
                {
                    "name": "E4",
                    "midi": 64,
                    "time": 102.4073049999991,
                    "velocity": 0.3543307086614173,
                    "duration": 0.5555549999999982
                },
                {
                    "name": "D6",
                    "midi": 86,
                    "time": 102.9628599999991,
                    "velocity": 0.3700787401574803,
                    "duration": 0.046296249999997485
                },
                {
                    "name": "C6",
                    "midi": 84,
                    "time": 103.0091562499991,
                    "velocity": 0.29133858267716534,
                    "duration": 0.046296249999997485
                },
                {
                    "name": "A#5",
                    "midi": 82,
                    "time": 103.05545249999909,
                    "velocity": 0.29133858267716534,
                    "duration": 0.046296249999997485
                },
                {
                    "name": "A5",
                    "midi": 81,
                    "time": 103.10174874999909,
                    "velocity": 0.29133858267716534,
                    "duration": 0.046296249999997485
                },
                {
                    "name": "G5",
                    "midi": 79,
                    "time": 103.14804499999909,
                    "velocity": 0.31496062992125984,
                    "duration": 0.09259249999999497
                },
                {
                    "name": "D5",
                    "midi": 74,
                    "time": 103.33322999999908,
                    "velocity": 0.3779527559055118,
                    "duration": 0.046296249999997485
                },
                {
                    "name": "C5",
                    "midi": 72,
                    "time": 103.37952624999907,
                    "velocity": 0.29133858267716534,
                    "duration": 0.046296249999997485
                },
                {
                    "name": "A#4",
                    "midi": 70,
                    "time": 103.42582249999907,
                    "velocity": 0.29133858267716534,
                    "duration": 0.046296249999997485
                },
                {
                    "name": "A4",
                    "midi": 69,
                    "time": 103.47211874999907,
                    "velocity": 0.29133858267716534,
                    "duration": 0.046296249999997485
                },
                {
                    "name": "G4",
                    "midi": 67,
                    "time": 103.51841499999907,
                    "velocity": 0.31496062992125984,
                    "duration": 0.09259249999999497
                },
                {
                    "name": "A3",
                    "midi": 57,
                    "time": 103.88878499999906,
                    "velocity": 0.3543307086614173,
                    "duration": 0.18518500000000415
                },
                {
                    "name": "E4",
                    "midi": 64,
                    "time": 103.88878499999906,
                    "velocity": 0.3543307086614173,
                    "duration": 0.18518500000000415
                },
                {
                    "name": "D5",
                    "midi": 74,
                    "time": 104.07396999999906,
                    "velocity": 0.31496062992125984,
                    "duration": 0.046296249999997485
                },
                {
                    "name": "C5",
                    "midi": 72,
                    "time": 104.12026624999906,
                    "velocity": 0.28346456692913385,
                    "duration": 0.046296249999997485
                },
                {
                    "name": "A#4",
                    "midi": 70,
                    "time": 104.16656249999906,
                    "velocity": 0.28346456692913385,
                    "duration": 0.046296249999997485
                },
                {
                    "name": "A4",
                    "midi": 69,
                    "time": 104.21285874999906,
                    "velocity": 0.28346456692913385,
                    "duration": 0.046296249999997485
                },
                {
                    "name": "G4",
                    "midi": 67,
                    "time": 104.25915499999905,
                    "velocity": 0.31496062992125984,
                    "duration": 0.09259249999999497
                },
                {
                    "name": "E4",
                    "midi": 64,
                    "time": 104.62952499999905,
                    "velocity": 0.2992125984251969,
                    "duration": 0.18518500000000415
                },
                {
                    "name": "A3",
                    "midi": 57,
                    "time": 104.62952499999905,
                    "velocity": 0.2992125984251969,
                    "duration": 0.18518500000000415
                },
                {
                    "name": "D5",
                    "midi": 74,
                    "time": 104.81470999999905,
                    "velocity": 0.2677165354330709,
                    "duration": 0.046296249999997485
                },
                {
                    "name": "C5",
                    "midi": 72,
                    "time": 104.86100624999905,
                    "velocity": 0.2677165354330709,
                    "duration": 0.046296249999997485
                },
                {
                    "name": "A#4",
                    "midi": 70,
                    "time": 104.90730249999905,
                    "velocity": 0.2677165354330709,
                    "duration": 0.046296249999997485
                },
                {
                    "name": "A4",
                    "midi": 69,
                    "time": 104.95359874999905,
                    "velocity": 0.2677165354330709,
                    "duration": 0.046296249999997485
                },
                {
                    "name": "G4",
                    "midi": 67,
                    "time": 104.99989499999904,
                    "velocity": 0.25196850393700787,
                    "duration": 0.09259249999999497
                },
                {
                    "name": "E4",
                    "midi": 64,
                    "time": 105.37026499999904,
                    "velocity": 0.29133858267716534,
                    "duration": 0.18518500000000415
                },
                {
                    "name": "A3",
                    "midi": 57,
                    "time": 105.37026499999904,
                    "velocity": 0.29133858267716534,
                    "duration": 0.18518500000000415
                },
                {
                    "name": "D5",
                    "midi": 74,
                    "time": 105.55544999999904,
                    "velocity": 0.25196850393700787,
                    "duration": 0.046296249999997485
                },
                {
                    "name": "C5",
                    "midi": 72,
                    "time": 105.60174624999904,
                    "velocity": 0.25196850393700787,
                    "duration": 0.046296249999997485
                },
                {
                    "name": "A#4",
                    "midi": 70,
                    "time": 105.64804249999904,
                    "velocity": 0.25196850393700787,
                    "duration": 0.046296249999997485
                },
                {
                    "name": "A4",
                    "midi": 69,
                    "time": 105.69433874999903,
                    "velocity": 0.25196850393700787,
                    "duration": 0.046296249999997485
                },
                {
                    "name": "G4",
                    "midi": 67,
                    "time": 105.74063499999903,
                    "velocity": 0.2283464566929134,
                    "duration": 0.09259249999999497
                },
                {
                    "name": "A3",
                    "midi": 57,
                    "time": 106.11100499999903,
                    "velocity": 0.2755905511811024,
                    "duration": 0.18518500000000415
                },
                {
                    "name": "E4",
                    "midi": 64,
                    "time": 106.11100499999903,
                    "velocity": 0.2755905511811024,
                    "duration": 0.18518500000000415
                },
                {
                    "name": "D5",
                    "midi": 74,
                    "time": 106.29618999999903,
                    "velocity": 0.25196850393700787,
                    "duration": 0.046296249999997485
                },
                {
                    "name": "C5",
                    "midi": 72,
                    "time": 106.34248624999903,
                    "velocity": 0.25196850393700787,
                    "duration": 0.046296249999997485
                },
                {
                    "name": "A#4",
                    "midi": 70,
                    "time": 106.38878249999902,
                    "velocity": 0.25196850393700787,
                    "duration": 0.046296249999997485
                },
                {
                    "name": "A4",
                    "midi": 69,
                    "time": 106.43507874999902,
                    "velocity": 0.25196850393700787,
                    "duration": 0.046296249999997485
                },
                {
                    "name": "G4",
                    "midi": 67,
                    "time": 106.48137499999902,
                    "velocity": 0.2283464566929134,
                    "duration": 0.09259249999999497
                },
                {
                    "name": "A3",
                    "midi": 57,
                    "time": 106.85174499999901,
                    "velocity": 0.29133858267716534,
                    "duration": 0.09259249999999497
                },
                {
                    "name": "E4",
                    "midi": 64,
                    "time": 106.85174499999901,
                    "velocity": 0.29133858267716534,
                    "duration": 0.09259249999999497
                },
                {
                    "name": "C#4",
                    "midi": 61,
                    "time": 106.85174499999901,
                    "velocity": 0.29133858267716534,
                    "duration": 0.09259249999999497
                },
                {
                    "name": "A#3",
                    "midi": 58,
                    "time": 107.22211499999901,
                    "velocity": 0.29133858267716534,
                    "duration": 0.09259249999999497
                },
                {
                    "name": "E4",
                    "midi": 64,
                    "time": 107.22211499999901,
                    "velocity": 0.29133858267716534,
                    "duration": 0.09259249999999497
                },
                {
                    "name": "C#4",
                    "midi": 61,
                    "time": 107.22211499999901,
                    "velocity": 0.29133858267716534,
                    "duration": 0.09259249999999497
                },
                {
                    "name": "C#4",
                    "midi": 61,
                    "time": 107.592484999999,
                    "velocity": 0.2677165354330709,
                    "duration": 0.09259249999999497
                },
                {
                    "name": "G#3",
                    "midi": 56,
                    "time": 107.592484999999,
                    "velocity": 0.2677165354330709,
                    "duration": 0.09259249999999497
                },
                {
                    "name": "E4",
                    "midi": 64,
                    "time": 107.592484999999,
                    "velocity": 0.2677165354330709,
                    "duration": 0.09259249999999497
                },
                {
                    "name": "C#4",
                    "midi": 61,
                    "time": 107.962854999999,
                    "velocity": 0.2755905511811024,
                    "duration": 0.09259249999999497
                },
                {
                    "name": "E4",
                    "midi": 64,
                    "time": 107.962854999999,
                    "velocity": 0.2755905511811024,
                    "duration": 0.09259249999999497
                },
                {
                    "name": "A3",
                    "midi": 57,
                    "time": 107.962854999999,
                    "velocity": 0.2755905511811024,
                    "duration": 0.09259249999999497
                },
                {
                    "name": "C#4",
                    "midi": 61,
                    "time": 108.33322499999899,
                    "velocity": 0.28346456692913385,
                    "duration": 0.09259249999999497
                },
                {
                    "name": "A#3",
                    "midi": 58,
                    "time": 108.33322499999899,
                    "velocity": 0.28346456692913385,
                    "duration": 0.09259249999999497
                },
                {
                    "name": "E4",
                    "midi": 64,
                    "time": 108.33322499999899,
                    "velocity": 0.28346456692913385,
                    "duration": 0.09259249999999497
                },
                {
                    "name": "C#4",
                    "midi": 61,
                    "time": 108.70359499999898,
                    "velocity": 0.31496062992125984,
                    "duration": 0.09259249999999497
                },
                {
                    "name": "B3",
                    "midi": 59,
                    "time": 108.70359499999898,
                    "velocity": 0.31496062992125984,
                    "duration": 0.09259249999999497
                },
                {
                    "name": "E4",
                    "midi": 64,
                    "time": 108.70359499999898,
                    "velocity": 0.31496062992125984,
                    "duration": 0.09259249999999497
                },
                {
                    "name": "C4",
                    "midi": 60,
                    "time": 109.07396499999898,
                    "velocity": 0.3228346456692913,
                    "duration": 0.09259249999999497
                },
                {
                    "name": "C#4",
                    "midi": 61,
                    "time": 109.07396499999898,
                    "velocity": 0.3228346456692913,
                    "duration": 0.09259249999999497
                },
                {
                    "name": "E4",
                    "midi": 64,
                    "time": 109.07396499999898,
                    "velocity": 0.3228346456692913,
                    "duration": 0.09259249999999497
                },
                {
                    "name": "B3",
                    "midi": 59,
                    "time": 109.44433499999897,
                    "velocity": 0.33858267716535434,
                    "duration": 0.09259249999999497
                },
                {
                    "name": "E4",
                    "midi": 64,
                    "time": 109.44433499999897,
                    "velocity": 0.33858267716535434,
                    "duration": 0.09259249999999497
                },
                {
                    "name": "C#4",
                    "midi": 61,
                    "time": 109.44433499999897,
                    "velocity": 0.33858267716535434,
                    "duration": 0.09259249999999497
                },
                {
                    "name": "A#3",
                    "midi": 58,
                    "time": 109.81470499999897,
                    "velocity": 0.3543307086614173,
                    "duration": 0.09259249999999497
                },
                {
                    "name": "E4",
                    "midi": 64,
                    "time": 109.81470499999897,
                    "velocity": 0.3543307086614173,
                    "duration": 0.09259249999999497
                },
                {
                    "name": "C#4",
                    "midi": 61,
                    "time": 109.81470499999897,
                    "velocity": 0.3543307086614173,
                    "duration": 0.09259249999999497
                },
                {
                    "name": "C#4",
                    "midi": 61,
                    "time": 110.18507499999896,
                    "velocity": 0.3779527559055118,
                    "duration": 0.09259249999999497
                },
                {
                    "name": "A3",
                    "midi": 57,
                    "time": 110.18507499999896,
                    "velocity": 0.3779527559055118,
                    "duration": 0.09259249999999497
                },
                {
                    "name": "E4",
                    "midi": 64,
                    "time": 110.18507499999896,
                    "velocity": 0.3779527559055118,
                    "duration": 0.09259249999999497
                },
                {
                    "name": "C#4",
                    "midi": 61,
                    "time": 110.55544499999895,
                    "velocity": 0.3858267716535433,
                    "duration": 0.09259249999999497
                },
                {
                    "name": "G#3",
                    "midi": 56,
                    "time": 110.55544499999895,
                    "velocity": 0.3858267716535433,
                    "duration": 0.09259249999999497
                },
                {
                    "name": "E4",
                    "midi": 64,
                    "time": 110.55544499999895,
                    "velocity": 0.3858267716535433,
                    "duration": 0.09259249999999497
                },
                {
                    "name": "G3",
                    "midi": 55,
                    "time": 110.92581499999895,
                    "velocity": 0.4015748031496063,
                    "duration": 0.09259249999999497
                },
                {
                    "name": "A#3",
                    "midi": 58,
                    "time": 110.92581499999895,
                    "velocity": 0.4015748031496063,
                    "duration": 0.09259249999999497
                },
                {
                    "name": "C#4",
                    "midi": 61,
                    "time": 110.92581499999895,
                    "velocity": 0.4015748031496063,
                    "duration": 0.09259249999999497
                },
                {
                    "name": "F#3",
                    "midi": 54,
                    "time": 111.29618499999894,
                    "velocity": 0.41732283464566927,
                    "duration": 0.09259249999999497
                },
                {
                    "name": "C#4",
                    "midi": 61,
                    "time": 111.29618499999894,
                    "velocity": 0.41732283464566927,
                    "duration": 0.09259249999999497
                },
                {
                    "name": "A#3",
                    "midi": 58,
                    "time": 111.29618499999894,
                    "velocity": 0.41732283464566927,
                    "duration": 0.09259249999999497
                },
                {
                    "name": "F3",
                    "midi": 53,
                    "time": 111.66655499999894,
                    "velocity": 0.4330708661417323,
                    "duration": 0.09259249999999497
                },
                {
                    "name": "C#4",
                    "midi": 61,
                    "time": 111.66655499999894,
                    "velocity": 0.4330708661417323,
                    "duration": 0.09259249999999497
                },
                {
                    "name": "A#3",
                    "midi": 58,
                    "time": 111.66655499999894,
                    "velocity": 0.4330708661417323,
                    "duration": 0.09259249999999497
                },
                {
                    "name": "A3",
                    "midi": 57,
                    "time": 112.03692499999893,
                    "velocity": 0.4566929133858268,
                    "duration": 0.09259249999999497
                },
                {
                    "name": "E3",
                    "midi": 52,
                    "time": 112.03692499999893,
                    "velocity": 0.4566929133858268,
                    "duration": 0.09259249999999497
                },
                {
                    "name": "C#4",
                    "midi": 61,
                    "time": 112.03692499999893,
                    "velocity": 0.4566929133858268,
                    "duration": 0.09259249999999497
                },
                {
                    "name": "G3",
                    "midi": 55,
                    "time": 112.40729499999892,
                    "velocity": 0.4645669291338583,
                    "duration": 0.09259249999999497
                },
                {
                    "name": "A3",
                    "midi": 57,
                    "time": 112.40729499999892,
                    "velocity": 0.4645669291338583,
                    "duration": 0.09259249999999497
                },
                {
                    "name": "C#4",
                    "midi": 61,
                    "time": 112.40729499999892,
                    "velocity": 0.4645669291338583,
                    "duration": 0.09259249999999497
                },
                {
                    "name": "D#3",
                    "midi": 51,
                    "time": 112.40729499999892,
                    "velocity": 0.4645669291338583,
                    "duration": 0.09259249999999497
                },
                {
                    "name": "D5",
                    "midi": 74,
                    "time": 113.88877499999892,
                    "velocity": 0.6771653543307087,
                    "duration": 0.046296249999997485
                },
                {
                    "name": "E5",
                    "midi": 76,
                    "time": 113.93507124999891,
                    "velocity": 0.6771653543307087,
                    "duration": 0.046296249999997485
                },
                {
                    "name": "F5",
                    "midi": 77,
                    "time": 113.98136749999891,
                    "velocity": 0.6771653543307087,
                    "duration": 0.046296249999997485
                },
                {
                    "name": "G5",
                    "midi": 79,
                    "time": 114.02766374999891,
                    "velocity": 0.6771653543307087,
                    "duration": 0.046296249999997485
                },
                {
                    "name": "A5",
                    "midi": 81,
                    "time": 114.0739599999989,
                    "velocity": 0.7086614173228346,
                    "duration": 0.09259249999999497
                },
                {
                    "name": "D5",
                    "midi": 74,
                    "time": 114.2591449999989,
                    "velocity": 0.5354330708661418,
                    "duration": 0.09259249999999497
                },
                {
                    "name": "F5",
                    "midi": 77,
                    "time": 114.2591449999989,
                    "velocity": 0.5354330708661418,
                    "duration": 0.09259249999999497
                },
                {
                    "name": "D6",
                    "midi": 86,
                    "time": 114.2591449999989,
                    "velocity": 0.6377952755905512,
                    "duration": 0.09259249999999497
                },
                {
                    "name": "D5",
                    "midi": 74,
                    "time": 114.44432999999889,
                    "velocity": 0.5354330708661418,
                    "duration": 0.09259249999999497
                },
                {
                    "name": "F5",
                    "midi": 77,
                    "time": 114.44432999999889,
                    "velocity": 0.5354330708661418,
                    "duration": 0.09259249999999497
                },
                {
                    "name": "D6",
                    "midi": 86,
                    "time": 114.44432999999889,
                    "velocity": 0.6377952755905512,
                    "duration": 0.09259249999999497
                },
                {
                    "name": "D5",
                    "midi": 74,
                    "time": 114.62951499999888,
                    "velocity": 0.5354330708661418,
                    "duration": 0.09259249999999497
                },
                {
                    "name": "F5",
                    "midi": 77,
                    "time": 114.62951499999888,
                    "velocity": 0.5354330708661418,
                    "duration": 0.09259249999999497
                },
                {
                    "name": "C#6",
                    "midi": 85,
                    "time": 114.62951499999888,
                    "velocity": 0.6377952755905512,
                    "duration": 0.09259249999999497
                },
                {
                    "name": "D5",
                    "midi": 74,
                    "time": 114.81469999999887,
                    "velocity": 0.5748031496062992,
                    "duration": 0.09259249999999497
                },
                {
                    "name": "F5",
                    "midi": 77,
                    "time": 114.81469999999887,
                    "velocity": 0.5748031496062992,
                    "duration": 0.09259249999999497
                },
                {
                    "name": "C#6",
                    "midi": 85,
                    "time": 114.81469999999887,
                    "velocity": 0.6771653543307087,
                    "duration": 0.09259249999999497
                },
                {
                    "name": "D5",
                    "midi": 74,
                    "time": 114.99988499999886,
                    "velocity": 0.5354330708661418,
                    "duration": 0.09259249999999497
                },
                {
                    "name": "F5",
                    "midi": 77,
                    "time": 114.99988499999886,
                    "velocity": 0.5354330708661418,
                    "duration": 0.09259249999999497
                },
                {
                    "name": "C6",
                    "midi": 84,
                    "time": 114.99988499999886,
                    "velocity": 0.6377952755905512,
                    "duration": 0.09259249999999497
                },
                {
                    "name": "F5",
                    "midi": 77,
                    "time": 115.18506999999884,
                    "velocity": 0.5354330708661418,
                    "duration": 0.09259249999999497
                },
                {
                    "name": "C6",
                    "midi": 84,
                    "time": 115.18506999999884,
                    "velocity": 0.6377952755905512,
                    "duration": 0.09259249999999497
                },
                {
                    "name": "D5",
                    "midi": 74,
                    "time": 115.18506999999884,
                    "velocity": 0.5354330708661418,
                    "duration": 0.09259249999999497
                },
                {
                    "name": "D5",
                    "midi": 74,
                    "time": 115.37025499999883,
                    "velocity": 0.5354330708661418,
                    "duration": 0.09259249999999497
                },
                {
                    "name": "F5",
                    "midi": 77,
                    "time": 115.37025499999883,
                    "velocity": 0.5354330708661418,
                    "duration": 0.09259249999999497
                },
                {
                    "name": "B5",
                    "midi": 83,
                    "time": 115.37025499999883,
                    "velocity": 0.6377952755905512,
                    "duration": 0.09259249999999497
                },
                {
                    "name": "D5",
                    "midi": 74,
                    "time": 115.55543999999882,
                    "velocity": 0.5748031496062992,
                    "duration": 0.09259249999999497
                },
                {
                    "name": "F5",
                    "midi": 77,
                    "time": 115.55543999999882,
                    "velocity": 0.5748031496062992,
                    "duration": 0.09259249999999497
                },
                {
                    "name": "B5",
                    "midi": 83,
                    "time": 115.55543999999882,
                    "velocity": 0.6771653543307087,
                    "duration": 0.09259249999999497
                },
                {
                    "name": "D5",
                    "midi": 74,
                    "time": 115.74062499999881,
                    "velocity": 0.5433070866141733,
                    "duration": 0.09259249999999497
                },
                {
                    "name": "F5",
                    "midi": 77,
                    "time": 115.74062499999881,
                    "velocity": 0.5433070866141733,
                    "duration": 0.09259249999999497
                },
                {
                    "name": "A#5",
                    "midi": 82,
                    "time": 115.74062499999881,
                    "velocity": 0.6456692913385826,
                    "duration": 0.09259249999999497
                },
                {
                    "name": "D5",
                    "midi": 74,
                    "time": 115.9258099999988,
                    "velocity": 0.5433070866141733,
                    "duration": 0.09259249999999497
                },
                {
                    "name": "F5",
                    "midi": 77,
                    "time": 115.9258099999988,
                    "velocity": 0.5433070866141733,
                    "duration": 0.09259249999999497
                },
                {
                    "name": "A#5",
                    "midi": 82,
                    "time": 115.9258099999988,
                    "velocity": 0.6456692913385826,
                    "duration": 0.09259249999999497
                },
                {
                    "name": "F5",
                    "midi": 77,
                    "time": 116.1109949999988,
                    "velocity": 0.5433070866141733,
                    "duration": 0.09259249999999497
                },
                {
                    "name": "A5",
                    "midi": 81,
                    "time": 116.1109949999988,
                    "velocity": 0.6456692913385826,
                    "duration": 0.09259249999999497
                },
                {
                    "name": "D5",
                    "midi": 74,
                    "time": 116.1109949999988,
                    "velocity": 0.5433070866141733,
                    "duration": 0.09259249999999497
                },
                {
                    "name": "B4",
                    "midi": 71,
                    "time": 116.29617999999878,
                    "velocity": 0.6220472440944882,
                    "duration": 0.09259249999999497
                },
                {
                    "name": "E5",
                    "midi": 76,
                    "time": 116.29617999999878,
                    "velocity": 0.6220472440944882,
                    "duration": 0.09259249999999497
                },
                {
                    "name": "G#5",
                    "midi": 80,
                    "time": 116.29617999999878,
                    "velocity": 0.7322834645669292,
                    "duration": 0.09259249999999497
                },
                {
                    "name": "B4",
                    "midi": 71,
                    "time": 116.48136499999877,
                    "velocity": 0.6456692913385826,
                    "duration": 0.3703699999999941
                },
                {
                    "name": "E5",
                    "midi": 76,
                    "time": 116.48136499999877,
                    "velocity": 0.6456692913385826,
                    "duration": 0.3703699999999941
                },
                {
                    "name": "G#5",
                    "midi": 80,
                    "time": 116.48136499999877,
                    "velocity": 0.7637795275590551,
                    "duration": 0.3703699999999941
                },
                {
                    "name": "G5",
                    "midi": 79,
                    "time": 116.85173499999877,
                    "velocity": 0.6771653543307087,
                    "duration": 0.046296249999997485
                },
                {
                    "name": "A5",
                    "midi": 81,
                    "time": 116.89803124999877,
                    "velocity": 0.6771653543307087,
                    "duration": 0.046296249999997485
                },
                {
                    "name": "A#5",
                    "midi": 82,
                    "time": 116.94432749999876,
                    "velocity": 0.6771653543307087,
                    "duration": 0.046296249999997485
                },
                {
                    "name": "C6",
                    "midi": 84,
                    "time": 116.99062374999876,
                    "velocity": 0.6771653543307087,
                    "duration": 0.046296249999997485
                },
                {
                    "name": "D6",
                    "midi": 86,
                    "time": 117.03691999999876,
                    "velocity": 0.7086614173228346,
                    "duration": 0.09259249999999497
                },
                {
                    "name": "G5",
                    "midi": 79,
                    "time": 117.22210499999875,
                    "velocity": 0.5354330708661418,
                    "duration": 0.09259249999999497
                },
                {
                    "name": "G6",
                    "midi": 91,
                    "time": 117.22210499999875,
                    "velocity": 0.6377952755905512,
                    "duration": 0.09259249999999497
                },
                {
                    "name": "A#5",
                    "midi": 82,
                    "time": 117.22210499999875,
                    "velocity": 0.5354330708661418,
                    "duration": 0.09259249999999497
                },
                {
                    "name": "G6",
                    "midi": 91,
                    "time": 117.40728999999874,
                    "velocity": 0.6377952755905512,
                    "duration": 0.09259249999999497
                },
                {
                    "name": "G5",
                    "midi": 79,
                    "time": 117.40728999999874,
                    "velocity": 0.5354330708661418,
                    "duration": 0.09259249999999497
                },
                {
                    "name": "A#5",
                    "midi": 82,
                    "time": 117.40728999999874,
                    "velocity": 0.5354330708661418,
                    "duration": 0.09259249999999497
                },
                {
                    "name": "G5",
                    "midi": 79,
                    "time": 117.59247499999873,
                    "velocity": 0.5354330708661418,
                    "duration": 0.09259249999999497
                },
                {
                    "name": "A#5",
                    "midi": 82,
                    "time": 117.59247499999873,
                    "velocity": 0.5354330708661418,
                    "duration": 0.09259249999999497
                },
                {
                    "name": "F#6",
                    "midi": 90,
                    "time": 117.59247499999873,
                    "velocity": 0.6377952755905512,
                    "duration": 0.09259249999999497
                },
                {
                    "name": "F#6",
                    "midi": 90,
                    "time": 117.77765999999872,
                    "velocity": 0.6771653543307087,
                    "duration": 0.09259249999999497
                },
                {
                    "name": "A#5",
                    "midi": 82,
                    "time": 117.77765999999872,
                    "velocity": 0.5748031496062992,
                    "duration": 0.09259249999999497
                },
                {
                    "name": "G5",
                    "midi": 79,
                    "time": 117.77765999999872,
                    "velocity": 0.5748031496062992,
                    "duration": 0.09259249999999497
                },
                {
                    "name": "G5",
                    "midi": 79,
                    "time": 117.96284499999871,
                    "velocity": 0.5354330708661418,
                    "duration": 0.09259249999999497
                },
                {
                    "name": "F6",
                    "midi": 89,
                    "time": 117.96284499999871,
                    "velocity": 0.6377952755905512,
                    "duration": 0.09259249999999497
                },
                {
                    "name": "A#5",
                    "midi": 82,
                    "time": 117.96284499999871,
                    "velocity": 0.5354330708661418,
                    "duration": 0.09259249999999497
                },
                {
                    "name": "A#5",
                    "midi": 82,
                    "time": 118.1480299999987,
                    "velocity": 0.5354330708661418,
                    "duration": 0.09259249999999497
                },
                {
                    "name": "G5",
                    "midi": 79,
                    "time": 118.1480299999987,
                    "velocity": 0.5354330708661418,
                    "duration": 0.09259249999999497
                },
                {
                    "name": "F6",
                    "midi": 89,
                    "time": 118.1480299999987,
                    "velocity": 0.6377952755905512,
                    "duration": 0.09259249999999497
                },
                {
                    "name": "G5",
                    "midi": 79,
                    "time": 118.33321499999869,
                    "velocity": 0.5354330708661418,
                    "duration": 0.09259249999999497
                },
                {
                    "name": "E6",
                    "midi": 88,
                    "time": 118.33321499999869,
                    "velocity": 0.6377952755905512,
                    "duration": 0.09259249999999497
                },
                {
                    "name": "A#5",
                    "midi": 82,
                    "time": 118.33321499999869,
                    "velocity": 0.5354330708661418,
                    "duration": 0.09259249999999497
                },
                {
                    "name": "A#5",
                    "midi": 82,
                    "time": 118.51839999999868,
                    "velocity": 0.5748031496062992,
                    "duration": 0.09259249999999497
                },
                {
                    "name": "G5",
                    "midi": 79,
                    "time": 118.51839999999868,
                    "velocity": 0.5748031496062992,
                    "duration": 0.09259249999999497
                },
                {
                    "name": "E6",
                    "midi": 88,
                    "time": 118.51839999999868,
                    "velocity": 0.6771653543307087,
                    "duration": 0.09259249999999497
                },
                {
                    "name": "G5",
                    "midi": 79,
                    "time": 118.70358499999867,
                    "velocity": 0.5433070866141733,
                    "duration": 0.09259249999999497
                },
                {
                    "name": "D#6",
                    "midi": 87,
                    "time": 118.70358499999867,
                    "velocity": 0.6456692913385826,
                    "duration": 0.09259249999999497
                },
                {
                    "name": "A#5",
                    "midi": 82,
                    "time": 118.70358499999867,
                    "velocity": 0.5433070866141733,
                    "duration": 0.09259249999999497
                },
                {
                    "name": "A#5",
                    "midi": 82,
                    "time": 118.88876999999866,
                    "velocity": 0.5433070866141733,
                    "duration": 0.09259249999999497
                },
                {
                    "name": "D#6",
                    "midi": 87,
                    "time": 118.88876999999866,
                    "velocity": 0.6456692913385826,
                    "duration": 0.09259249999999497
                },
                {
                    "name": "G5",
                    "midi": 79,
                    "time": 118.88876999999866,
                    "velocity": 0.5433070866141733,
                    "duration": 0.09259249999999497
                },
                {
                    "name": "D6",
                    "midi": 86,
                    "time": 119.07395499999865,
                    "velocity": 0.6456692913385826,
                    "duration": 0.09259249999999497
                },
                {
                    "name": "A#5",
                    "midi": 82,
                    "time": 119.07395499999865,
                    "velocity": 0.5433070866141733,
                    "duration": 0.09259249999999497
                },
                {
                    "name": "G5",
                    "midi": 79,
                    "time": 119.07395499999865,
                    "velocity": 0.5433070866141733,
                    "duration": 0.09259249999999497
                },
                {
                    "name": "E5",
                    "midi": 76,
                    "time": 119.25913999999864,
                    "velocity": 0.6220472440944882,
                    "duration": 0.09259249999999497
                },
                {
                    "name": "C#6",
                    "midi": 85,
                    "time": 119.25913999999864,
                    "velocity": 0.7322834645669292,
                    "duration": 0.09259249999999497
                },
                {
                    "name": "A5",
                    "midi": 81,
                    "time": 119.25913999999864,
                    "velocity": 0.6220472440944882,
                    "duration": 0.09259249999999497
                },
                {
                    "name": "C#6",
                    "midi": 85,
                    "time": 119.44432499999863,
                    "velocity": 0.7637795275590551,
                    "duration": 0.3703699999999941
                },
                {
                    "name": "E5",
                    "midi": 76,
                    "time": 119.44432499999863,
                    "velocity": 0.6456692913385826,
                    "duration": 0.3703699999999941
                },
                {
                    "name": "A5",
                    "midi": 81,
                    "time": 119.44432499999863,
                    "velocity": 0.6456692913385826,
                    "duration": 0.3703699999999941
                },
                {
                    "name": "D6",
                    "midi": 86,
                    "time": 119.99987999999863,
                    "velocity": 0.8346456692913385,
                    "duration": 0.046296249999997485
                },
                {
                    "name": "E6",
                    "midi": 88,
                    "time": 120.04617624999862,
                    "velocity": 0.6535433070866141,
                    "duration": 0.046296249999997485
                },
                {
                    "name": "F6",
                    "midi": 89,
                    "time": 120.09247249999862,
                    "velocity": 0.6535433070866141,
                    "duration": 0.046296249999997485
                },
                {
                    "name": "G6",
                    "midi": 91,
                    "time": 120.13876874999862,
                    "velocity": 0.6535433070866141,
                    "duration": 0.046296249999997485
                },
                {
                    "name": "A6",
                    "midi": 93,
                    "time": 120.18506499999862,
                    "velocity": 0.6535433070866141,
                    "duration": 0.09259249999999497
                },
                {
                    "name": "G6",
                    "midi": 91,
                    "time": 120.3702499999986,
                    "velocity": 0.8188976377952756,
                    "duration": 0.046296249999997485
                },
                {
                    "name": "F6",
                    "midi": 89,
                    "time": 120.4165462499986,
                    "velocity": 0.6614173228346457,
                    "duration": 0.046296249999997485
                },
                {
                    "name": "E6",
                    "midi": 88,
                    "time": 120.4628424999986,
                    "velocity": 0.6614173228346457,
                    "duration": 0.046296249999997485
                },
                {
                    "name": "D6",
                    "midi": 86,
                    "time": 120.5091387499986,
                    "velocity": 0.6614173228346457,
                    "duration": 0.046296249999997485
                },
                {
                    "name": "C6",
                    "midi": 84,
                    "time": 120.5554349999986,
                    "velocity": 0.6692913385826772,
                    "duration": 0.09259249999999497
                },
                {
                    "name": "A#5",
                    "midi": 82,
                    "time": 120.74061999999859,
                    "velocity": 0.8188976377952756,
                    "duration": 0.046296249999997485
                },
                {
                    "name": "C6",
                    "midi": 84,
                    "time": 120.78691624999858,
                    "velocity": 0.6614173228346457,
                    "duration": 0.046296249999997485
                },
                {
                    "name": "D6",
                    "midi": 86,
                    "time": 120.83321249999858,
                    "velocity": 0.6614173228346457,
                    "duration": 0.046296249999997485
                },
                {
                    "name": "E6",
                    "midi": 88,
                    "time": 120.87950874999858,
                    "velocity": 0.6614173228346457,
                    "duration": 0.046296249999997485
                },
                {
                    "name": "F6",
                    "midi": 89,
                    "time": 120.92580499999858,
                    "velocity": 0.6614173228346457,
                    "duration": 0.09259249999999497
                },
                {
                    "name": "E6",
                    "midi": 88,
                    "time": 121.11098999999857,
                    "velocity": 0.8188976377952756,
                    "duration": 0.046296249999997485
                },
                {
                    "name": "D6",
                    "midi": 86,
                    "time": 121.15728624999856,
                    "velocity": 0.6614173228346457,
                    "duration": 0.046296249999997485
                },
                {
                    "name": "C6",
                    "midi": 84,
                    "time": 121.20358249999856,
                    "velocity": 0.6614173228346457,
                    "duration": 0.046296249999997485
                },
                {
                    "name": "A#5",
                    "midi": 82,
                    "time": 121.24987874999856,
                    "velocity": 0.6614173228346457,
                    "duration": 0.046296249999997485
                },
                {
                    "name": "A5",
                    "midi": 81,
                    "time": 121.29617499999856,
                    "velocity": 0.6614173228346457,
                    "duration": 0.09259249999999497
                },
                {
                    "name": "G5",
                    "midi": 79,
                    "time": 121.48135999999855,
                    "velocity": 0.8188976377952756,
                    "duration": 0.046296249999997485
                },
                {
                    "name": "A5",
                    "midi": 81,
                    "time": 121.52765624999854,
                    "velocity": 0.6771653543307087,
                    "duration": 0.046296249999997485
                },
                {
                    "name": "A#5",
                    "midi": 82,
                    "time": 121.57395249999854,
                    "velocity": 0.6771653543307087,
                    "duration": 0.046296249999997485
                },
                {
                    "name": "C6",
                    "midi": 84,
                    "time": 121.62024874999854,
                    "velocity": 0.6771653543307087,
                    "duration": 0.046296249999997485
                },
                {
                    "name": "D6",
                    "midi": 86,
                    "time": 121.66654499999854,
                    "velocity": 0.6771653543307087,
                    "duration": 0.09259249999999497
                },
                {
                    "name": "C6",
                    "midi": 84,
                    "time": 121.85172999999853,
                    "velocity": 0.8188976377952756,
                    "duration": 0.046296249999997485
                },
                {
                    "name": "A#5",
                    "midi": 82,
                    "time": 121.89802624999852,
                    "velocity": 0.6771653543307087,
                    "duration": 0.046296249999997485
                },
                {
                    "name": "A5",
                    "midi": 81,
                    "time": 121.94432249999852,
                    "velocity": 0.6692913385826772,
                    "duration": 0.046296249999997485
                },
                {
                    "name": "G5",
                    "midi": 79,
                    "time": 121.99061874999852,
                    "velocity": 0.6692913385826772,
                    "duration": 0.046296249999997485
                },
                {
                    "name": "F5",
                    "midi": 77,
                    "time": 122.03691499999852,
                    "velocity": 0.6692913385826772,
                    "duration": 0.09259249999999497
                },
                {
                    "name": "A5",
                    "midi": 81,
                    "time": 122.2220999999985,
                    "velocity": 0.7401574803149606,
                    "duration": 0.09259249999999497
                },
                {
                    "name": "E6",
                    "midi": 88,
                    "time": 122.2220999999985,
                    "velocity": 0.7401574803149606,
                    "duration": 0.09259249999999497
                },
                {
                    "name": "E5",
                    "midi": 76,
                    "time": 122.2220999999985,
                    "velocity": 0.7401574803149606,
                    "duration": 0.09259249999999497
                },
                {
                    "name": "E5",
                    "midi": 76,
                    "time": 122.4072849999985,
                    "velocity": 0.7401574803149606,
                    "duration": 0.3703699999999941
                },
                {
                    "name": "A5",
                    "midi": 81,
                    "time": 122.4072849999985,
                    "velocity": 0.7401574803149606,
                    "duration": 0.3703699999999941
                },
                {
                    "name": "E6",
                    "midi": 88,
                    "time": 122.4072849999985,
                    "velocity": 0.7401574803149606,
                    "duration": 0.3703699999999941
                },
                {
                    "name": "A#5",
                    "midi": 82,
                    "time": 122.9628399999985,
                    "velocity": 0.7244094488188977,
                    "duration": 0.046296249999997485
                },
                {
                    "name": "C6",
                    "midi": 84,
                    "time": 123.00913624999849,
                    "velocity": 0.6535433070866141,
                    "duration": 0.046296249999997485
                },
                {
                    "name": "D6",
                    "midi": 86,
                    "time": 123.05543249999849,
                    "velocity": 0.6535433070866141,
                    "duration": 0.046296249999997485
                },
                {
                    "name": "E6",
                    "midi": 88,
                    "time": 123.10172874999849,
                    "velocity": 0.6535433070866141,
                    "duration": 0.046296249999997485
                },
                {
                    "name": "F6",
                    "midi": 89,
                    "time": 123.14802499999848,
                    "velocity": 0.6535433070866141,
                    "duration": 0.09259249999999497
                },
                {
                    "name": "E6",
                    "midi": 88,
                    "time": 123.33320999999847,
                    "velocity": 0.7244094488188977,
                    "duration": 0.046296249999997485
                },
                {
                    "name": "D6",
                    "midi": 86,
                    "time": 123.37950624999847,
                    "velocity": 0.6614173228346457,
                    "duration": 0.046296249999997485
                },
                {
                    "name": "C6",
                    "midi": 84,
                    "time": 123.42580249999847,
                    "velocity": 0.6614173228346457,
                    "duration": 0.046296249999997485
                },
                {
                    "name": "A#5",
                    "midi": 82,
                    "time": 123.47209874999847,
                    "velocity": 0.6614173228346457,
                    "duration": 0.046296249999997485
                },
                {
                    "name": "A5",
                    "midi": 81,
                    "time": 123.51839499999846,
                    "velocity": 0.6692913385826772,
                    "duration": 0.09259249999999497
                },
                {
                    "name": "G5",
                    "midi": 79,
                    "time": 123.70357999999845,
                    "velocity": 0.7244094488188977,
                    "duration": 0.046296249999997485
                },
                {
                    "name": "A5",
                    "midi": 81,
                    "time": 123.74987624999845,
                    "velocity": 0.6614173228346457,
                    "duration": 0.046296249999997485
                },
                {
                    "name": "A#5",
                    "midi": 82,
                    "time": 123.79617249999845,
                    "velocity": 0.6614173228346457,
                    "duration": 0.046296249999997485
                },
                {
                    "name": "C6",
                    "midi": 84,
                    "time": 123.84246874999845,
                    "velocity": 0.6614173228346457,
                    "duration": 0.046296249999997485
                },
                {
                    "name": "D6",
                    "midi": 86,
                    "time": 123.88876499999844,
                    "velocity": 0.6614173228346457,
                    "duration": 0.09259249999999497
                },
                {
                    "name": "C6",
                    "midi": 84,
                    "time": 124.07394999999843,
                    "velocity": 0.7244094488188977,
                    "duration": 0.046296249999997485
                },
                {
                    "name": "A#5",
                    "midi": 82,
                    "time": 124.12024624999843,
                    "velocity": 0.6614173228346457,
                    "duration": 0.046296249999997485
                },
                {
                    "name": "A5",
                    "midi": 81,
                    "time": 124.16654249999843,
                    "velocity": 0.6614173228346457,
                    "duration": 0.046296249999997485
                },
                {
                    "name": "G5",
                    "midi": 79,
                    "time": 124.21283874999843,
                    "velocity": 0.6614173228346457,
                    "duration": 0.046296249999997485
                },
                {
                    "name": "F5",
                    "midi": 77,
                    "time": 124.25913499999842,
                    "velocity": 0.6614173228346457,
                    "duration": 0.09259249999999497
                },
                {
                    "name": "D#5",
                    "midi": 75,
                    "time": 124.44431999999841,
                    "velocity": 0.7401574803149606,
                    "duration": 0.046296249999997485
                },
                {
                    "name": "F5",
                    "midi": 77,
                    "time": 124.49061624999841,
                    "velocity": 0.6535433070866141,
                    "duration": 0.046296249999997485
                },
                {
                    "name": "G5",
                    "midi": 79,
                    "time": 124.53691249999841,
                    "velocity": 0.6535433070866141,
                    "duration": 0.046296249999997485
                },
                {
                    "name": "A5",
                    "midi": 81,
                    "time": 124.5832087499984,
                    "velocity": 0.6535433070866141,
                    "duration": 0.046296249999997485
                },
                {
                    "name": "A#5",
                    "midi": 82,
                    "time": 124.6295049999984,
                    "velocity": 0.6535433070866141,
                    "duration": 0.09259249999999497
                },
                {
                    "name": "A5",
                    "midi": 81,
                    "time": 124.8146899999984,
                    "velocity": 0.7244094488188977,
                    "duration": 0.046296249999997485
                },
                {
                    "name": "G5",
                    "midi": 79,
                    "time": 124.86098624999839,
                    "velocity": 0.6535433070866141,
                    "duration": 0.046296249999997485
                },
                {
                    "name": "F5",
                    "midi": 77,
                    "time": 124.90728249999839,
                    "velocity": 0.6535433070866141,
                    "duration": 0.046296249999997485
                },
                {
                    "name": "D#5",
                    "midi": 75,
                    "time": 124.95357874999839,
                    "velocity": 0.6535433070866141,
                    "duration": 0.046296249999997485
                },
                {
                    "name": "D5",
                    "midi": 74,
                    "time": 124.99987499999838,
                    "velocity": 0.6535433070866141,
                    "duration": 0.09259249999999497
                },
                {
                    "name": "E5",
                    "midi": 76,
                    "time": 125.18505999999837,
                    "velocity": 0.6771653543307087,
                    "duration": 0.09259249999999497
                },
                {
                    "name": "A5",
                    "midi": 81,
                    "time": 125.18505999999837,
                    "velocity": 0.6771653543307087,
                    "duration": 0.09259249999999497
                },
                {
                    "name": "A4",
                    "midi": 69,
                    "time": 125.18505999999837,
                    "velocity": 0.6771653543307087,
                    "duration": 0.09259249999999497
                },
                {
                    "name": "A4",
                    "midi": 69,
                    "time": 125.37024499999836,
                    "velocity": 0.6771653543307087,
                    "duration": 0.3703699999999941
                },
                {
                    "name": "E5",
                    "midi": 76,
                    "time": 125.37024499999836,
                    "velocity": 0.6771653543307087,
                    "duration": 0.3703699999999941
                },
                {
                    "name": "A5",
                    "midi": 81,
                    "time": 125.37024499999836,
                    "velocity": 0.6771653543307087,
                    "duration": 0.3703699999999941
                },
                {
                    "name": "D5",
                    "midi": 74,
                    "time": 125.92579999999836,
                    "velocity": 0.5905511811023622,
                    "duration": 0.046296249999997485
                },
                {
                    "name": "E5",
                    "midi": 76,
                    "time": 125.97209624999836,
                    "velocity": 0.5196850393700787,
                    "duration": 0.046296249999997485
                },
                {
                    "name": "F5",
                    "midi": 77,
                    "time": 126.01839249999836,
                    "velocity": 0.5196850393700787,
                    "duration": 0.046296249999997485
                },
                {
                    "name": "G5",
                    "midi": 79,
                    "time": 126.06468874999835,
                    "velocity": 0.5196850393700787,
                    "duration": 0.046296249999997485
                },
                {
                    "name": "A5",
                    "midi": 81,
                    "time": 126.11098499999835,
                    "velocity": 0.5196850393700787,
                    "duration": 0.09259249999999497
                },
                {
                    "name": "G5",
                    "midi": 79,
                    "time": 126.29616999999834,
                    "velocity": 0.6062992125984252,
                    "duration": 0.046296249999997485
                },
                {
                    "name": "F5",
                    "midi": 77,
                    "time": 126.34246624999834,
                    "velocity": 0.5118110236220472,
                    "duration": 0.046296249999997485
                },
                {
                    "name": "E5",
                    "midi": 76,
                    "time": 126.38876249999834,
                    "velocity": 0.5118110236220472,
                    "duration": 0.046296249999997485
                },
                {
                    "name": "D5",
                    "midi": 74,
                    "time": 126.43505874999833,
                    "velocity": 0.5118110236220472,
                    "duration": 0.046296249999997485
                },
                {
                    "name": "C5",
                    "midi": 72,
                    "time": 126.48135499999833,
                    "velocity": 0.5118110236220472,
                    "duration": 0.09259249999999497
                },
                {
                    "name": "A#4",
                    "midi": 70,
                    "time": 126.66653999999832,
                    "velocity": 0.5748031496062992,
                    "duration": 0.046296249999997485
                },
                {
                    "name": "C5",
                    "midi": 72,
                    "time": 126.71283624999832,
                    "velocity": 0.5118110236220472,
                    "duration": 0.046296249999997485
                },
                {
                    "name": "D5",
                    "midi": 74,
                    "time": 126.75913249999832,
                    "velocity": 0.5039370078740157,
                    "duration": 0.046296249999997485
                },
                {
                    "name": "E5",
                    "midi": 76,
                    "time": 126.80542874999831,
                    "velocity": 0.5039370078740157,
                    "duration": 0.046296249999997485
                },
                {
                    "name": "F5",
                    "midi": 77,
                    "time": 126.85172499999831,
                    "velocity": 0.5039370078740157,
                    "duration": 0.09259249999999497
                },
                {
                    "name": "E5",
                    "midi": 76,
                    "time": 127.0369099999983,
                    "velocity": 0.5669291338582677,
                    "duration": 0.046296249999997485
                },
                {
                    "name": "D5",
                    "midi": 74,
                    "time": 127.0832062499983,
                    "velocity": 0.5039370078740157,
                    "duration": 0.046296249999997485
                },
                {
                    "name": "C5",
                    "midi": 72,
                    "time": 127.1295024999983,
                    "velocity": 0.49606299212598426,
                    "duration": 0.046296249999997485
                },
                {
                    "name": "A#4",
                    "midi": 70,
                    "time": 127.1757987499983,
                    "velocity": 0.49606299212598426,
                    "duration": 0.046296249999997485
                },
                {
                    "name": "A4",
                    "midi": 69,
                    "time": 127.22209499999829,
                    "velocity": 0.49606299212598426,
                    "duration": 0.09259249999999497
                },
                {
                    "name": "G4",
                    "midi": 67,
                    "time": 127.40727999999828,
                    "velocity": 0.5590551181102362,
                    "duration": 0.046296249999997485
                },
                {
                    "name": "A4",
                    "midi": 69,
                    "time": 127.45357624999828,
                    "velocity": 0.49606299212598426,
                    "duration": 0.046296249999997485
                },
                {
                    "name": "A#4",
                    "midi": 70,
                    "time": 127.49987249999828,
                    "velocity": 0.49606299212598426,
                    "duration": 0.046296249999997485
                },
                {
                    "name": "C5",
                    "midi": 72,
                    "time": 127.54616874999827,
                    "velocity": 0.4881889763779528,
                    "duration": 0.046296249999997485
                },
                {
                    "name": "D5",
                    "midi": 74,
                    "time": 127.59246499999827,
                    "velocity": 0.4881889763779528,
                    "duration": 0.09259249999999497
                },
                {
                    "name": "C5",
                    "midi": 72,
                    "time": 127.77764999999826,
                    "velocity": 0.5590551181102362,
                    "duration": 0.046296249999997485
                },
                {
                    "name": "A#4",
                    "midi": 70,
                    "time": 127.82394624999826,
                    "velocity": 0.4881889763779528,
                    "duration": 0.046296249999997485
                },
                {
                    "name": "A4",
                    "midi": 69,
                    "time": 127.87024249999826,
                    "velocity": 0.4881889763779528,
                    "duration": 0.046296249999997485
                },
                {
                    "name": "G4",
                    "midi": 67,
                    "time": 127.91653874999825,
                    "velocity": 0.47244094488188976,
                    "duration": 0.046296249999997485
                },
                {
                    "name": "F4",
                    "midi": 65,
                    "time": 127.96283499999825,
                    "velocity": 0.47244094488188976,
                    "duration": 0.09259249999999497
                },
                {
                    "name": "E4",
                    "midi": 64,
                    "time": 128.14801999999824,
                    "velocity": 0.5590551181102362,
                    "duration": 0.09259249999999497
                },
                {
                    "name": "A4",
                    "midi": 69,
                    "time": 128.14801999999824,
                    "velocity": 0.5590551181102362,
                    "duration": 0.09259249999999497
                },
                {
                    "name": "E5",
                    "midi": 76,
                    "time": 128.14801999999824,
                    "velocity": 0.5590551181102362,
                    "duration": 0.09259249999999497
                },
                {
                    "name": "E4",
                    "midi": 64,
                    "time": 128.33320499999823,
                    "velocity": 0.5669291338582677,
                    "duration": 0.3703700000000083
                },
                {
                    "name": "A4",
                    "midi": 69,
                    "time": 128.33320499999823,
                    "velocity": 0.5669291338582677,
                    "duration": 0.3703700000000083
                },
                {
                    "name": "E5",
                    "midi": 76,
                    "time": 128.33320499999823,
                    "velocity": 0.5669291338582677,
                    "duration": 0.3703700000000083
                },
                {
                    "name": "A#4",
                    "midi": 70,
                    "time": 128.88875999999823,
                    "velocity": 0.4566929133858268,
                    "duration": 0.046296250000011696
                },
                {
                    "name": "C5",
                    "midi": 72,
                    "time": 128.93505624999824,
                    "velocity": 0.4251968503937008,
                    "duration": 0.046296250000011696
                },
                {
                    "name": "D5",
                    "midi": 74,
                    "time": 128.98135249999825,
                    "velocity": 0.4251968503937008,
                    "duration": 0.046296250000011696
                },
                {
                    "name": "E5",
                    "midi": 76,
                    "time": 129.02764874999826,
                    "velocity": 0.4251968503937008,
                    "duration": 0.046296250000011696
                },
                {
                    "name": "F5",
                    "midi": 77,
                    "time": 129.07394499999828,
                    "velocity": 0.4251968503937008,
                    "duration": 0.09259249999999497
                },
                {
                    "name": "E5",
                    "midi": 76,
                    "time": 129.25912999999827,
                    "velocity": 0.47244094488188976,
                    "duration": 0.046296250000011696
                },
                {
                    "name": "D5",
                    "midi": 74,
                    "time": 129.30542624999828,
                    "velocity": 0.4251968503937008,
                    "duration": 0.046296250000011696
                },
                {
                    "name": "C5",
                    "midi": 72,
                    "time": 129.3517224999983,
                    "velocity": 0.4251968503937008,
                    "duration": 0.046296250000011696
                },
                {
                    "name": "A#4",
                    "midi": 70,
                    "time": 129.3980187499983,
                    "velocity": 0.4251968503937008,
                    "duration": 0.046296250000011696
                },
                {
                    "name": "A4",
                    "midi": 69,
                    "time": 129.4443149999983,
                    "velocity": 0.4330708661417323,
                    "duration": 0.09259249999999497
                },
                {
                    "name": "G4",
                    "midi": 67,
                    "time": 129.6294999999983,
                    "velocity": 0.4645669291338583,
                    "duration": 0.046296250000011696
                },
                {
                    "name": "A4",
                    "midi": 69,
                    "time": 129.6757962499983,
                    "velocity": 0.4251968503937008,
                    "duration": 0.046296250000011696
                },
                {
                    "name": "A#4",
                    "midi": 70,
                    "time": 129.72209249999833,
                    "velocity": 0.4251968503937008,
                    "duration": 0.046296250000011696
                },
                {
                    "name": "C5",
                    "midi": 72,
                    "time": 129.76838874999834,
                    "velocity": 0.4251968503937008,
                    "duration": 0.046296250000011696
                },
                {
                    "name": "D5",
                    "midi": 74,
                    "time": 129.81468499999835,
                    "velocity": 0.4094488188976378,
                    "duration": 0.09259249999999497
                },
                {
                    "name": "C5",
                    "midi": 72,
                    "time": 129.99986999999834,
                    "velocity": 0.4409448818897638,
                    "duration": 0.046296250000011696
                },
                {
                    "name": "A#4",
                    "midi": 70,
                    "time": 130.04616624999835,
                    "velocity": 0.4094488188976378,
                    "duration": 0.046296250000011696
                },
                {
                    "name": "A4",
                    "midi": 69,
                    "time": 130.09246249999836,
                    "velocity": 0.4094488188976378,
                    "duration": 0.046296250000011696
                },
                {
                    "name": "G4",
                    "midi": 67,
                    "time": 130.13875874999837,
                    "velocity": 0.4094488188976378,
                    "duration": 0.046296250000011696
                },
                {
                    "name": "F4",
                    "midi": 65,
                    "time": 130.18505499999839,
                    "velocity": 0.4094488188976378,
                    "duration": 0.09259249999999497
                },
                {
                    "name": "D#4",
                    "midi": 63,
                    "time": 130.37023999999838,
                    "velocity": 0.4409448818897638,
                    "duration": 0.046296250000011696
                },
                {
                    "name": "F4",
                    "midi": 65,
                    "time": 130.4165362499984,
                    "velocity": 0.4015748031496063,
                    "duration": 0.046296250000011696
                },
                {
                    "name": "G4",
                    "midi": 67,
                    "time": 130.4628324999984,
                    "velocity": 0.4015748031496063,
                    "duration": 0.046296250000011696
                },
                {
                    "name": "A4",
                    "midi": 69,
                    "time": 130.5091287499984,
                    "velocity": 0.4015748031496063,
                    "duration": 0.046296250000011696
                },
                {
                    "name": "A#4",
                    "midi": 70,
                    "time": 130.55542499999842,
                    "velocity": 0.4015748031496063,
                    "duration": 0.09259249999999497
                },
                {
                    "name": "A4",
                    "midi": 69,
                    "time": 130.7406099999984,
                    "velocity": 0.4330708661417323,
                    "duration": 0.046296250000011696
                },
                {
                    "name": "G4",
                    "midi": 67,
                    "time": 130.78690624999842,
                    "velocity": 0.3937007874015748,
                    "duration": 0.046296250000011696
                },
                {
                    "name": "F4",
                    "midi": 65,
                    "time": 130.83320249999844,
                    "velocity": 0.3937007874015748,
                    "duration": 0.046296250000011696
                },
                {
                    "name": "D#4",
                    "midi": 63,
                    "time": 130.87949874999845,
                    "velocity": 0.3937007874015748,
                    "duration": 0.046296250000011696
                },
                {
                    "name": "D4",
                    "midi": 62,
                    "time": 130.92579499999846,
                    "velocity": 0.3937007874015748,
                    "duration": 0.09259249999999497
                },
                {
                    "name": "A3",
                    "midi": 57,
                    "time": 131.11097999999845,
                    "velocity": 0.33858267716535434,
                    "duration": 0.09259249999999497
                },
                {
                    "name": "E4",
                    "midi": 64,
                    "time": 131.11097999999845,
                    "velocity": 0.33858267716535434,
                    "duration": 0.09259249999999497
                },
                {
                    "name": "A4",
                    "midi": 69,
                    "time": 131.11097999999845,
                    "velocity": 0.4015748031496063,
                    "duration": 0.09259249999999497
                },
                {
                    "name": "A3",
                    "midi": 57,
                    "time": 131.29616499999844,
                    "velocity": 0.3464566929133858,
                    "duration": 0.3703700000000083
                },
                {
                    "name": "E4",
                    "midi": 64,
                    "time": 131.29616499999844,
                    "velocity": 0.3464566929133858,
                    "duration": 0.3703700000000083
                },
                {
                    "name": "A4",
                    "midi": 69,
                    "time": 131.29616499999844,
                    "velocity": 0.4094488188976378,
                    "duration": 0.3703700000000083
                },
                {
                    "name": "D6",
                    "midi": 86,
                    "time": 131.85171999999844,
                    "velocity": 0.4645669291338583,
                    "duration": 0.046296250000011696
                },
                {
                    "name": "C6",
                    "midi": 84,
                    "time": 131.89801624999845,
                    "velocity": 0.3700787401574803,
                    "duration": 0.046296250000011696
                },
                {
                    "name": "A#5",
                    "midi": 82,
                    "time": 131.94431249999846,
                    "velocity": 0.3700787401574803,
                    "duration": 0.046296250000011696
                },
                {
                    "name": "A5",
                    "midi": 81,
                    "time": 131.99060874999847,
                    "velocity": 0.3700787401574803,
                    "duration": 0.046296250000011696
                },
                {
                    "name": "G5",
                    "midi": 79,
                    "time": 132.03690499999848,
                    "velocity": 0.4015748031496063,
                    "duration": 0.09259249999999497
                },
                {
                    "name": "D5",
                    "midi": 74,
                    "time": 132.22208999999847,
                    "velocity": 0.47244094488188976,
                    "duration": 0.046296250000011696
                },
                {
                    "name": "C5",
                    "midi": 72,
                    "time": 132.26838624999849,
                    "velocity": 0.3700787401574803,
                    "duration": 0.046296250000011696
                },
                {
                    "name": "A#4",
                    "midi": 70,
                    "time": 132.3146824999985,
                    "velocity": 0.3700787401574803,
                    "duration": 0.046296250000011696
                },
                {
                    "name": "A4",
                    "midi": 69,
                    "time": 132.3609787499985,
                    "velocity": 0.3700787401574803,
                    "duration": 0.046296250000011696
                },
                {
                    "name": "G4",
                    "midi": 67,
                    "time": 132.40727499999852,
                    "velocity": 0.4015748031496063,
                    "duration": 0.09259249999999497
                },
                {
                    "name": "A4",
                    "midi": 69,
                    "time": 132.77764499999853,
                    "velocity": 0.4015748031496063,
                    "duration": 0.5555549999999982
                },
                {
                    "name": "A3",
                    "midi": 57,
                    "time": 132.77764499999853,
                    "velocity": 0.33858267716535434,
                    "duration": 0.5555549999999982
                },
                {
                    "name": "E4",
                    "midi": 64,
                    "time": 132.77764499999853,
                    "velocity": 0.33858267716535434,
                    "duration": 0.5555549999999982
                },
                {
                    "name": "D6",
                    "midi": 86,
                    "time": 133.33319999999853,
                    "velocity": 0.4645669291338583,
                    "duration": 0.046296250000011696
                },
                {
                    "name": "C6",
                    "midi": 84,
                    "time": 133.37949624999854,
                    "velocity": 0.3700787401574803,
                    "duration": 0.046296250000011696
                },
                {
                    "name": "A#5",
                    "midi": 82,
                    "time": 133.42579249999855,
                    "velocity": 0.3700787401574803,
                    "duration": 0.046296250000011696
                },
                {
                    "name": "A5",
                    "midi": 81,
                    "time": 133.47208874999856,
                    "velocity": 0.3700787401574803,
                    "duration": 0.046296250000011696
                },
                {
                    "name": "G5",
                    "midi": 79,
                    "time": 133.51838499999857,
                    "velocity": 0.4015748031496063,
                    "duration": 0.09259249999999497
                },
                {
                    "name": "D5",
                    "midi": 74,
                    "time": 133.70356999999856,
                    "velocity": 0.47244094488188976,
                    "duration": 0.046296250000011696
                },
                {
                    "name": "C5",
                    "midi": 72,
                    "time": 133.74986624999858,
                    "velocity": 0.3700787401574803,
                    "duration": 0.046296250000011696
                },
                {
                    "name": "A#4",
                    "midi": 70,
                    "time": 133.7961624999986,
                    "velocity": 0.3700787401574803,
                    "duration": 0.046296250000011696
                },
                {
                    "name": "A4",
                    "midi": 69,
                    "time": 133.8424587499986,
                    "velocity": 0.3700787401574803,
                    "duration": 0.046296250000011696
                },
                {
                    "name": "G4",
                    "midi": 67,
                    "time": 133.8887549999986,
                    "velocity": 0.4015748031496063,
                    "duration": 0.09259249999999497
                },
                {
                    "name": "A4",
                    "midi": 69,
                    "time": 134.25912499999862,
                    "velocity": 0.33858267716535434,
                    "duration": 0.09259249999999497
                },
                {
                    "name": "A3",
                    "midi": 57,
                    "time": 134.25912499999862,
                    "velocity": 0.28346456692913385,
                    "duration": 0.09259249999999497
                },
                {
                    "name": "E4",
                    "midi": 64,
                    "time": 134.25912499999862,
                    "velocity": 0.28346456692913385,
                    "duration": 0.09259249999999497
                },
                {
                    "name": "D5",
                    "midi": 74,
                    "time": 134.4443099999986,
                    "velocity": 0.4015748031496063,
                    "duration": 0.046296250000011696
                },
                {
                    "name": "C5",
                    "midi": 72,
                    "time": 134.49060624999862,
                    "velocity": 0.36220472440944884,
                    "duration": 0.046296250000011696
                },
                {
                    "name": "A#4",
                    "midi": 70,
                    "time": 134.53690249999863,
                    "velocity": 0.36220472440944884,
                    "duration": 0.046296250000011696
                },
                {
                    "name": "A4",
                    "midi": 69,
                    "time": 134.58319874999864,
                    "velocity": 0.36220472440944884,
                    "duration": 0.046296250000011696
                },
                {
                    "name": "G4",
                    "midi": 67,
                    "time": 134.62949499999866,
                    "velocity": 0.3937007874015748,
                    "duration": 0.09259249999999497
                },
                {
                    "name": "A4",
                    "midi": 69,
                    "time": 134.99986499999866,
                    "velocity": 0.33858267716535434,
                    "duration": 0.09259249999999497
                },
                {
                    "name": "A3",
                    "midi": 57,
                    "time": 134.99986499999866,
                    "velocity": 0.28346456692913385,
                    "duration": 0.09259249999999497
                },
                {
                    "name": "E4",
                    "midi": 64,
                    "time": 134.99986499999866,
                    "velocity": 0.28346456692913385,
                    "duration": 0.09259249999999497
                },
                {
                    "name": "D5",
                    "midi": 74,
                    "time": 135.18504999999865,
                    "velocity": 0.33070866141732286,
                    "duration": 0.046296250000011696
                },
                {
                    "name": "C5",
                    "midi": 72,
                    "time": 135.23134624999867,
                    "velocity": 0.33070866141732286,
                    "duration": 0.046296250000011696
                },
                {
                    "name": "A#4",
                    "midi": 70,
                    "time": 135.27764249999868,
                    "velocity": 0.33070866141732286,
                    "duration": 0.046296250000011696
                },
                {
                    "name": "A4",
                    "midi": 69,
                    "time": 135.3239387499987,
                    "velocity": 0.33070866141732286,
                    "duration": 0.046296250000011696
                },
                {
                    "name": "G4",
                    "midi": 67,
                    "time": 135.3702349999987,
                    "velocity": 0.31496062992125984,
                    "duration": 0.09259249999999497
                },
                {
                    "name": "A4",
                    "midi": 69,
                    "time": 135.7406049999987,
                    "velocity": 0.31496062992125984,
                    "duration": 0.09259249999999497
                },
                {
                    "name": "A3",
                    "midi": 57,
                    "time": 135.7406049999987,
                    "velocity": 0.2677165354330709,
                    "duration": 0.09259249999999497
                },
                {
                    "name": "E4",
                    "midi": 64,
                    "time": 135.7406049999987,
                    "velocity": 0.2677165354330709,
                    "duration": 0.09259249999999497
                },
                {
                    "name": "D5",
                    "midi": 74,
                    "time": 135.9257899999987,
                    "velocity": 0.31496062992125984,
                    "duration": 0.046296250000011696
                },
                {
                    "name": "C5",
                    "midi": 72,
                    "time": 135.9720862499987,
                    "velocity": 0.31496062992125984,
                    "duration": 0.046296250000011696
                },
                {
                    "name": "A#4",
                    "midi": 70,
                    "time": 136.01838249999872,
                    "velocity": 0.31496062992125984,
                    "duration": 0.046296250000011696
                },
                {
                    "name": "A4",
                    "midi": 69,
                    "time": 136.06467874999873,
                    "velocity": 0.30708661417322836,
                    "duration": 0.046296250000011696
                },
                {
                    "name": "G4",
                    "midi": 67,
                    "time": 136.11097499999875,
                    "velocity": 0.28346456692913385,
                    "duration": 0.09259249999999497
                },
                {
                    "name": "A4",
                    "midi": 69,
                    "time": 136.48134499999875,
                    "velocity": 0.28346456692913385,
                    "duration": 0.09259249999999497
                },
                {
                    "name": "A3",
                    "midi": 57,
                    "time": 136.48134499999875,
                    "velocity": 0.28346456692913385,
                    "duration": 0.09259249999999497
                },
                {
                    "name": "E4",
                    "midi": 64,
                    "time": 136.48134499999875,
                    "velocity": 0.28346456692913385,
                    "duration": 0.09259249999999497
                },
                {
                    "name": "D5",
                    "midi": 74,
                    "time": 136.66652999999874,
                    "velocity": 0.29133858267716534,
                    "duration": 0.046296250000011696
                },
                {
                    "name": "C5",
                    "midi": 72,
                    "time": 136.71282624999876,
                    "velocity": 0.29133858267716534,
                    "duration": 0.046296250000011696
                },
                {
                    "name": "A#4",
                    "midi": 70,
                    "time": 136.75912249999877,
                    "velocity": 0.29133858267716534,
                    "duration": 0.046296250000011696
                },
                {
                    "name": "A4",
                    "midi": 69,
                    "time": 136.80541874999878,
                    "velocity": 0.29133858267716534,
                    "duration": 0.046296250000011696
                },
                {
                    "name": "G4",
                    "midi": 67,
                    "time": 136.8517149999988,
                    "velocity": 0.2755905511811024,
                    "duration": 0.09259249999999497
                },
                {
                    "name": "D3",
                    "midi": 50,
                    "time": 137.59245499999878,
                    "velocity": 0.36220472440944884,
                    "duration": 0.046296250000011696
                },
                {
                    "name": "E3",
                    "midi": 52,
                    "time": 137.6387512499988,
                    "velocity": 0.36220472440944884,
                    "duration": 0.046296250000011696
                },
                {
                    "name": "F3",
                    "midi": 53,
                    "time": 137.6850474999988,
                    "velocity": 0.36220472440944884,
                    "duration": 0.046296250000011696
                },
                {
                    "name": "G3",
                    "midi": 55,
                    "time": 137.7313437499988,
                    "velocity": 0.36220472440944884,
                    "duration": 0.046296250000011696
                },
                {
                    "name": "A3",
                    "midi": 57,
                    "time": 137.77763999999883,
                    "velocity": 0.3937007874015748,
                    "duration": 0.09259249999999497
                },
                {
                    "name": "D3",
                    "midi": 50,
                    "time": 137.96282499999882,
                    "velocity": 0.28346456692913385,
                    "duration": 0.09259249999999497
                },
                {
                    "name": "F3",
                    "midi": 53,
                    "time": 137.96282499999882,
                    "velocity": 0.28346456692913385,
                    "duration": 0.09259249999999497
                },
                {
                    "name": "D4",
                    "midi": 62,
                    "time": 137.96282499999882,
                    "velocity": 0.33858267716535434,
                    "duration": 0.09259249999999497
                },
                {
                    "name": "D3",
                    "midi": 50,
                    "time": 138.1480099999988,
                    "velocity": 0.28346456692913385,
                    "duration": 0.09259249999999497
                },
                {
                    "name": "F3",
                    "midi": 53,
                    "time": 138.1480099999988,
                    "velocity": 0.28346456692913385,
                    "duration": 0.09259249999999497
                },
                {
                    "name": "D4",
                    "midi": 62,
                    "time": 138.1480099999988,
                    "velocity": 0.33858267716535434,
                    "duration": 0.09259249999999497
                },
                {
                    "name": "D3",
                    "midi": 50,
                    "time": 138.3331949999988,
                    "velocity": 0.28346456692913385,
                    "duration": 0.09259249999999497
                },
                {
                    "name": "F3",
                    "midi": 53,
                    "time": 138.3331949999988,
                    "velocity": 0.28346456692913385,
                    "duration": 0.09259249999999497
                },
                {
                    "name": "C#4",
                    "midi": 61,
                    "time": 138.3331949999988,
                    "velocity": 0.33858267716535434,
                    "duration": 0.09259249999999497
                },
                {
                    "name": "F3",
                    "midi": 53,
                    "time": 138.51837999999879,
                    "velocity": 0.30708661417322836,
                    "duration": 0.09259249999999497
                },
                {
                    "name": "C#4",
                    "midi": 61,
                    "time": 138.51837999999879,
                    "velocity": 0.36220472440944884,
                    "duration": 0.09259249999999497
                },
                {
                    "name": "D3",
                    "midi": 50,
                    "time": 138.51837999999879,
                    "velocity": 0.30708661417322836,
                    "duration": 0.09259249999999497
                },
                {
                    "name": "D3",
                    "midi": 50,
                    "time": 138.70356499999878,
                    "velocity": 0.28346456692913385,
                    "duration": 0.09259249999999497
                },
                {
                    "name": "F3",
                    "midi": 53,
                    "time": 138.70356499999878,
                    "velocity": 0.28346456692913385,
                    "duration": 0.09259249999999497
                },
                {
                    "name": "C4",
                    "midi": 60,
                    "time": 138.70356499999878,
                    "velocity": 0.33858267716535434,
                    "duration": 0.09259249999999497
                },
                {
                    "name": "D3",
                    "midi": 50,
                    "time": 138.88874999999877,
                    "velocity": 0.28346456692913385,
                    "duration": 0.09259249999999497
                },
                {
                    "name": "F3",
                    "midi": 53,
                    "time": 138.88874999999877,
                    "velocity": 0.28346456692913385,
                    "duration": 0.09259249999999497
                },
                {
                    "name": "C4",
                    "midi": 60,
                    "time": 138.88874999999877,
                    "velocity": 0.33858267716535434,
                    "duration": 0.09259249999999497
                },
                {
                    "name": "D3",
                    "midi": 50,
                    "time": 139.07393499999876,
                    "velocity": 0.28346456692913385,
                    "duration": 0.09259249999999497
                },
                {
                    "name": "F3",
                    "midi": 53,
                    "time": 139.07393499999876,
                    "velocity": 0.28346456692913385,
                    "duration": 0.09259249999999497
                },
                {
                    "name": "B3",
                    "midi": 59,
                    "time": 139.07393499999876,
                    "velocity": 0.33858267716535434,
                    "duration": 0.09259249999999497
                },
                {
                    "name": "D3",
                    "midi": 50,
                    "time": 139.25911999999875,
                    "velocity": 0.30708661417322836,
                    "duration": 0.09259249999999497
                },
                {
                    "name": "F3",
                    "midi": 53,
                    "time": 139.25911999999875,
                    "velocity": 0.30708661417322836,
                    "duration": 0.09259249999999497
                },
                {
                    "name": "B3",
                    "midi": 59,
                    "time": 139.25911999999875,
                    "velocity": 0.36220472440944884,
                    "duration": 0.09259249999999497
                },
                {
                    "name": "F3",
                    "midi": 53,
                    "time": 139.44430499999874,
                    "velocity": 0.2755905511811024,
                    "duration": 0.09259249999999497
                },
                {
                    "name": "A#3",
                    "midi": 58,
                    "time": 139.44430499999874,
                    "velocity": 0.33070866141732286,
                    "duration": 0.09259249999999497
                },
                {
                    "name": "D3",
                    "midi": 50,
                    "time": 139.44430499999874,
                    "velocity": 0.2755905511811024,
                    "duration": 0.09259249999999497
                },
                {
                    "name": "D3",
                    "midi": 50,
                    "time": 139.62948999999873,
                    "velocity": 0.2755905511811024,
                    "duration": 0.09259249999999497
                },
                {
                    "name": "F3",
                    "midi": 53,
                    "time": 139.62948999999873,
                    "velocity": 0.2755905511811024,
                    "duration": 0.09259249999999497
                },
                {
                    "name": "A#3",
                    "midi": 58,
                    "time": 139.62948999999873,
                    "velocity": 0.33070866141732286,
                    "duration": 0.09259249999999497
                },
                {
                    "name": "D3",
                    "midi": 50,
                    "time": 139.81467499999872,
                    "velocity": 0.2677165354330709,
                    "duration": 0.9259250000000065
                },
                {
                    "name": "F3",
                    "midi": 53,
                    "time": 139.81467499999872,
                    "velocity": 0.2677165354330709,
                    "duration": 0.9259250000000065
                },
                {
                    "name": "A3",
                    "midi": 57,
                    "time": 139.81467499999872,
                    "velocity": 0.3228346456692913,
                    "duration": 0.9259250000000065
                },
                {
                    "name": "D4",
                    "midi": 62,
                    "time": 141.4813399999987,
                    "velocity": 0.31496062992125984,
                    "duration": 0.09259249999999497
                },
                {
                    "name": "A4",
                    "midi": 69,
                    "time": 141.6665249999987,
                    "velocity": 0.30708661417322836,
                    "duration": 0.09259249999999497
                },
                {
                    "name": "D5",
                    "midi": 74,
                    "time": 141.8517099999987,
                    "velocity": 0.28346456692913385,
                    "duration": 0.09259249999999497
                },
                {
                    "name": "A5",
                    "midi": 81,
                    "time": 142.03689499999868,
                    "velocity": 0.33070866141732286,
                    "duration": 0.9259250000000065
                },
                {
                    "name": "D6",
                    "midi": 86,
                    "time": 142.9628199999987,
                    "velocity": 0.889763779527559,
                    "duration": 0.09259249999999497
                },
                {
                    "name": "A5",
                    "midi": 81,
                    "time": 142.9628199999987,
                    "velocity": 0.7480314960629921,
                    "duration": 0.09259249999999497
                },
                {
                    "name": "D5",
                    "midi": 74,
                    "time": 142.9628199999987,
                    "velocity": 0.7480314960629921,
                    "duration": 0.09259249999999497
                },
                {
                    "name": "D5",
                    "midi": 74,
                    "time": 143.05541249999868,
                    "velocity": 0.6771653543307087,
                    "duration": 0.09259249999999497
                },
                {
                    "name": "A5",
                    "midi": 81,
                    "time": 143.05541249999868,
                    "velocity": 0.6771653543307087,
                    "duration": 0.09259249999999497
                },
                {
                    "name": "D6",
                    "midi": 86,
                    "time": 143.05541249999868,
                    "velocity": 0.8031496062992126,
                    "duration": 0.09259249999999497
                }
            ],
            "controlChanges": {
                "7": [
                    {
                        "number": 7,
                        "time": 0,
                        "value": 0.7874015748031497
                    }
                ],
                "91": [
                    {
                        "number": 91,
                        "time": 0,
                        "value": 1
                    },
                    {
                        "number": 91,
                        "time": 51.851799999999805,
                        "value": 1
                    },
                    {
                        "number": 91,
                        "time": 54.814759999999794,
                        "value": 1
                    },
                    {
                        "number": 91,
                        "time": 57.77771999999978,
                        "value": 1
                    },
                    {
                        "number": 91,
                        "time": 60.74067999999974,
                        "value": 1
                    },
                    {
                        "number": 91,
                        "time": 71.11103999999952,
                        "value": 1
                    },
                    {
                        "number": 91,
                        "time": 74.07399999999953,
                        "value": 1
                    },
                    {
                        "number": 91,
                        "time": 77.03695999999954,
                        "value": 1
                    },
                    {
                        "number": 91,
                        "time": 79.99991999999959,
                        "value": 1
                    },
                    {
                        "number": 91,
                        "time": 91.11101999999954,
                        "value": 1
                    },
                    {
                        "number": 91,
                        "time": 142.9628199999987,
                        "value": 1
                    }
                ]
            },
            "id": 1,
            "name": "Piano right",
            "instrumentNumber": 0,
            "instrument": "acoustic grand piano",
            "instrumentFamily": "piano",
            "channelNumber": 0,
            "isPercussion": false
        },
        {
            "startTime": 0.0007716041666666667,
            "duration": 143.14800499999703,
            "length": 869,
            "notes": [
                {
                    "name": "D2",
                    "midi": 38,
                    "time": 0.0007716041666666667,
                    "velocity": 0.25196850393700787,
                    "duration": 0.09259250000000001
                },
                {
                    "name": "A2",
                    "midi": 45,
                    "time": 0.18518500000000002,
                    "velocity": 0.2440944881889764,
                    "duration": 0.0925925
                },
                {
                    "name": "D2",
                    "midi": 38,
                    "time": 0.37037000000000003,
                    "velocity": 0.25196850393700787,
                    "duration": 0.09259250000000002
                },
                {
                    "name": "A2",
                    "midi": 45,
                    "time": 0.555555,
                    "velocity": 0.2440944881889764,
                    "duration": 0.09259249999999997
                },
                {
                    "name": "D2",
                    "midi": 38,
                    "time": 0.74074,
                    "velocity": 0.25196850393700787,
                    "duration": 0.09259249999999997
                },
                {
                    "name": "A2",
                    "midi": 45,
                    "time": 0.9259249999999999,
                    "velocity": 0.2440944881889764,
                    "duration": 0.09259250000000008
                },
                {
                    "name": "D2",
                    "midi": 38,
                    "time": 1.11111,
                    "velocity": 0.25196850393700787,
                    "duration": 0.09259250000000008
                },
                {
                    "name": "A2",
                    "midi": 45,
                    "time": 1.2962950000000002,
                    "velocity": 0.2440944881889764,
                    "duration": 0.09259250000000008
                },
                {
                    "name": "D2",
                    "midi": 38,
                    "time": 1.4814800000000004,
                    "velocity": 0.25196850393700787,
                    "duration": 0.09259250000000008
                },
                {
                    "name": "A2",
                    "midi": 45,
                    "time": 1.6666650000000005,
                    "velocity": 0.2440944881889764,
                    "duration": 0.09259250000000008
                },
                {
                    "name": "D2",
                    "midi": 38,
                    "time": 1.8518500000000007,
                    "velocity": 0.25196850393700787,
                    "duration": 0.09259250000000008
                },
                {
                    "name": "A2",
                    "midi": 45,
                    "time": 2.037035000000001,
                    "velocity": 0.2440944881889764,
                    "duration": 0.09259249999999986
                },
                {
                    "name": "D2",
                    "midi": 38,
                    "time": 2.2222200000000005,
                    "velocity": 0.25196850393700787,
                    "duration": 0.09259249999999986
                },
                {
                    "name": "A2",
                    "midi": 45,
                    "time": 2.4074050000000002,
                    "velocity": 0.2440944881889764,
                    "duration": 0.09259249999999986
                },
                {
                    "name": "D2",
                    "midi": 38,
                    "time": 2.59259,
                    "velocity": 0.25196850393700787,
                    "duration": 0.09259249999999986
                },
                {
                    "name": "A2",
                    "midi": 45,
                    "time": 2.7777749999999997,
                    "velocity": 0.2440944881889764,
                    "duration": 0.09259249999999986
                },
                {
                    "name": "D2",
                    "midi": 38,
                    "time": 2.9629599999999994,
                    "velocity": 0.25196850393700787,
                    "duration": 0.09259249999999986
                },
                {
                    "name": "A2",
                    "midi": 45,
                    "time": 3.148144999999999,
                    "velocity": 0.2283464566929134,
                    "duration": 0.09259249999999986
                },
                {
                    "name": "D2",
                    "midi": 38,
                    "time": 3.333329999999999,
                    "velocity": 0.25196850393700787,
                    "duration": 0.09259249999999986
                },
                {
                    "name": "A2",
                    "midi": 45,
                    "time": 3.5185149999999985,
                    "velocity": 0.2283464566929134,
                    "duration": 0.09259249999999986
                },
                {
                    "name": "D2",
                    "midi": 38,
                    "time": 3.703699999999998,
                    "velocity": 0.25196850393700787,
                    "duration": 0.09259249999999986
                },
                {
                    "name": "A2",
                    "midi": 45,
                    "time": 3.888884999999998,
                    "velocity": 0.2440944881889764,
                    "duration": 0.09259249999999986
                },
                {
                    "name": "D2",
                    "midi": 38,
                    "time": 4.074069999999998,
                    "velocity": 0.25196850393700787,
                    "duration": 0.0925925000000003
                },
                {
                    "name": "A2",
                    "midi": 45,
                    "time": 4.259254999999999,
                    "velocity": 0.2440944881889764,
                    "duration": 0.0925925000000003
                },
                {
                    "name": "D2",
                    "midi": 38,
                    "time": 4.444439999999999,
                    "velocity": 0.25196850393700787,
                    "duration": 0.0925925000000003
                },
                {
                    "name": "A2",
                    "midi": 45,
                    "time": 4.629625,
                    "velocity": 0.2440944881889764,
                    "duration": 0.0925925000000003
                },
                {
                    "name": "D2",
                    "midi": 38,
                    "time": 4.8148100000000005,
                    "velocity": 0.25196850393700787,
                    "duration": 0.0925925000000003
                },
                {
                    "name": "A2",
                    "midi": 45,
                    "time": 4.999995000000001,
                    "velocity": 0.2440944881889764,
                    "duration": 0.0925925000000003
                },
                {
                    "name": "D2",
                    "midi": 38,
                    "time": 5.185180000000002,
                    "velocity": 0.25196850393700787,
                    "duration": 0.0925925000000003
                },
                {
                    "name": "A2",
                    "midi": 45,
                    "time": 5.370365000000002,
                    "velocity": 0.2440944881889764,
                    "duration": 0.0925925000000003
                },
                {
                    "name": "D2",
                    "midi": 38,
                    "time": 5.555550000000003,
                    "velocity": 0.25196850393700787,
                    "duration": 0.0925925000000003
                },
                {
                    "name": "A2",
                    "midi": 45,
                    "time": 5.7407350000000035,
                    "velocity": 0.2440944881889764,
                    "duration": 0.0925925000000003
                },
                {
                    "name": "D2",
                    "midi": 38,
                    "time": 5.925920000000004,
                    "velocity": 0.25196850393700787,
                    "duration": 0.0925925000000003
                },
                {
                    "name": "A2",
                    "midi": 45,
                    "time": 6.111105000000005,
                    "velocity": 0.2283464566929134,
                    "duration": 0.0925925000000003
                },
                {
                    "name": "D2",
                    "midi": 38,
                    "time": 6.296290000000005,
                    "velocity": 0.25196850393700787,
                    "duration": 0.0925925000000003
                },
                {
                    "name": "A2",
                    "midi": 45,
                    "time": 6.481475000000006,
                    "velocity": 0.2283464566929134,
                    "duration": 0.0925925000000003
                },
                {
                    "name": "D2",
                    "midi": 38,
                    "time": 6.6666600000000065,
                    "velocity": 0.25196850393700787,
                    "duration": 0.0925925000000003
                },
                {
                    "name": "A2",
                    "midi": 45,
                    "time": 6.851845000000007,
                    "velocity": 0.2440944881889764,
                    "duration": 0.0925925000000003
                },
                {
                    "name": "D2",
                    "midi": 38,
                    "time": 7.037030000000008,
                    "velocity": 0.25196850393700787,
                    "duration": 0.0925925000000003
                },
                {
                    "name": "A2",
                    "midi": 45,
                    "time": 7.222215000000008,
                    "velocity": 0.2440944881889764,
                    "duration": 0.0925925000000003
                },
                {
                    "name": "A#3",
                    "midi": 58,
                    "time": 7.592585000000009,
                    "velocity": 0.25196850393700787,
                    "duration": 0.0925925000000003
                },
                {
                    "name": "F4",
                    "midi": 65,
                    "time": 7.592585000000009,
                    "velocity": 0.25196850393700787,
                    "duration": 0.0925925000000003
                },
                {
                    "name": "F3",
                    "midi": 53,
                    "time": 7.962955000000009,
                    "velocity": 0.25196850393700787,
                    "duration": 0.09259249999999941
                },
                {
                    "name": "C4",
                    "midi": 60,
                    "time": 7.962955000000009,
                    "velocity": 0.25196850393700787,
                    "duration": 0.09259249999999941
                },
                {
                    "name": "D4",
                    "midi": 62,
                    "time": 8.33332500000001,
                    "velocity": 0.25196850393700787,
                    "duration": 0.0925925000000003
                },
                {
                    "name": "G3",
                    "midi": 55,
                    "time": 8.33332500000001,
                    "velocity": 0.25196850393700787,
                    "duration": 0.0925925000000003
                },
                {
                    "name": "D3",
                    "midi": 50,
                    "time": 8.70369500000001,
                    "velocity": 0.25196850393700787,
                    "duration": 0.0925925000000003
                },
                {
                    "name": "A3",
                    "midi": 57,
                    "time": 8.70369500000001,
                    "velocity": 0.25196850393700787,
                    "duration": 0.0925925000000003
                },
                {
                    "name": "A#3",
                    "midi": 58,
                    "time": 9.074065000000012,
                    "velocity": 0.25196850393700787,
                    "duration": 0.0925925000000003
                },
                {
                    "name": "D#3",
                    "midi": 51,
                    "time": 9.074065000000012,
                    "velocity": 0.25196850393700787,
                    "duration": 0.0925925000000003
                },
                {
                    "name": "F3",
                    "midi": 53,
                    "time": 9.444435000000013,
                    "velocity": 0.25196850393700787,
                    "duration": 0.0925925000000003
                },
                {
                    "name": "A#2",
                    "midi": 46,
                    "time": 9.444435000000013,
                    "velocity": 0.25196850393700787,
                    "duration": 0.0925925000000003
                },
                {
                    "name": "A2",
                    "midi": 45,
                    "time": 9.629620000000013,
                    "velocity": 0.29133858267716534,
                    "duration": 0.0925925000000003
                },
                {
                    "name": "E3",
                    "midi": 52,
                    "time": 9.814805000000014,
                    "velocity": 0.25196850393700787,
                    "duration": 0.0925925000000003
                },
                {
                    "name": "A2",
                    "midi": 45,
                    "time": 9.999990000000015,
                    "velocity": 0.2992125984251969,
                    "duration": 0.0925925000000003
                },
                {
                    "name": "E3",
                    "midi": 52,
                    "time": 10.185175000000015,
                    "velocity": 0.25196850393700787,
                    "duration": 0.0925925000000003
                },
                {
                    "name": "D#2",
                    "midi": 39,
                    "time": 10.370360000000016,
                    "velocity": 0.29133858267716534,
                    "duration": 0.0925925000000003
                },
                {
                    "name": "A#2",
                    "midi": 46,
                    "time": 10.555545000000016,
                    "velocity": 0.25196850393700787,
                    "duration": 0.0925925000000003
                },
                {
                    "name": "D#2",
                    "midi": 39,
                    "time": 10.740730000000017,
                    "velocity": 0.29133858267716534,
                    "duration": 0.0925925000000003
                },
                {
                    "name": "A#2",
                    "midi": 46,
                    "time": 10.925915000000018,
                    "velocity": 0.25196850393700787,
                    "duration": 0.0925925000000003
                },
                {
                    "name": "A2",
                    "midi": 45,
                    "time": 11.111100000000018,
                    "velocity": 0.29133858267716534,
                    "duration": 0.0925925000000003
                },
                {
                    "name": "E3",
                    "midi": 52,
                    "time": 11.296285000000019,
                    "velocity": 0.25196850393700787,
                    "duration": 0.0925925000000003
                },
                {
                    "name": "A2",
                    "midi": 45,
                    "time": 11.48147000000002,
                    "velocity": 0.2992125984251969,
                    "duration": 0.0925925000000003
                },
                {
                    "name": "E3",
                    "midi": 52,
                    "time": 11.66665500000002,
                    "velocity": 0.25196850393700787,
                    "duration": 0.0925925000000003
                },
                {
                    "name": "D#2",
                    "midi": 39,
                    "time": 11.85184000000002,
                    "velocity": 0.29133858267716534,
                    "duration": 0.0925925000000003
                },
                {
                    "name": "A#2",
                    "midi": 46,
                    "time": 12.037025000000021,
                    "velocity": 0.25196850393700787,
                    "duration": 0.0925925000000003
                },
                {
                    "name": "D#2",
                    "midi": 39,
                    "time": 12.222210000000022,
                    "velocity": 0.29133858267716534,
                    "duration": 0.0925925000000003
                },
                {
                    "name": "A#2",
                    "midi": 46,
                    "time": 12.407395000000022,
                    "velocity": 0.25196850393700787,
                    "duration": 0.0925925000000003
                },
                {
                    "name": "A2",
                    "midi": 45,
                    "time": 12.592580000000023,
                    "velocity": 0.29133858267716534,
                    "duration": 0.0925925000000003
                },
                {
                    "name": "E3",
                    "midi": 52,
                    "time": 12.777765000000024,
                    "velocity": 0.25196850393700787,
                    "duration": 0.0925925000000003
                },
                {
                    "name": "D#2",
                    "midi": 39,
                    "time": 12.962950000000024,
                    "velocity": 0.2992125984251969,
                    "duration": 0.0925925000000003
                },
                {
                    "name": "A#2",
                    "midi": 46,
                    "time": 13.148135000000025,
                    "velocity": 0.2440944881889764,
                    "duration": 0.0925925000000003
                },
                {
                    "name": "A2",
                    "midi": 45,
                    "time": 13.333320000000025,
                    "velocity": 0.2677165354330709,
                    "duration": 0.0925925000000003
                },
                {
                    "name": "E3",
                    "midi": 52,
                    "time": 13.518505000000026,
                    "velocity": 0.25196850393700787,
                    "duration": 0.0925925000000003
                },
                {
                    "name": "D#2",
                    "midi": 39,
                    "time": 13.703690000000027,
                    "velocity": 0.2677165354330709,
                    "duration": 0.0925925000000003
                },
                {
                    "name": "A#2",
                    "midi": 46,
                    "time": 13.888875000000027,
                    "velocity": 0.2283464566929134,
                    "duration": 0.0925925000000003
                },
                {
                    "name": "A2",
                    "midi": 45,
                    "time": 14.074060000000028,
                    "velocity": 0.2755905511811024,
                    "duration": 0.0925925000000003
                },
                {
                    "name": "E3",
                    "midi": 52,
                    "time": 14.259245000000028,
                    "velocity": 0.25196850393700787,
                    "duration": 0.0925925000000003
                },
                {
                    "name": "D#2",
                    "midi": 39,
                    "time": 14.444430000000029,
                    "velocity": 0.2677165354330709,
                    "duration": 0.0925925000000003
                },
                {
                    "name": "A#2",
                    "midi": 46,
                    "time": 14.62961500000003,
                    "velocity": 0.2204724409448819,
                    "duration": 0.0925925000000003
                },
                {
                    "name": "A2",
                    "midi": 45,
                    "time": 14.81480000000003,
                    "velocity": 0.25196850393700787,
                    "duration": 0.0925925000000003
                },
                {
                    "name": "E3",
                    "midi": 52,
                    "time": 14.99998500000003,
                    "velocity": 0.2283464566929134,
                    "duration": 0.0925925000000003
                },
                {
                    "name": "D#2",
                    "midi": 39,
                    "time": 15.185170000000031,
                    "velocity": 0.25196850393700787,
                    "duration": 0.0925925000000003
                },
                {
                    "name": "A#2",
                    "midi": 46,
                    "time": 15.370355000000032,
                    "velocity": 0.2125984251968504,
                    "duration": 0.0925925000000003
                },
                {
                    "name": "A2",
                    "midi": 45,
                    "time": 15.555540000000033,
                    "velocity": 0.36220472440944884,
                    "duration": 0.0925925000000003
                },
                {
                    "name": "E3",
                    "midi": 52,
                    "time": 15.740725000000033,
                    "velocity": 0.3228346456692913,
                    "duration": 0.0925925000000003
                },
                {
                    "name": "A#2",
                    "midi": 46,
                    "time": 15.925910000000034,
                    "velocity": 0.36220472440944884,
                    "duration": 0.09259249999999852
                },
                {
                    "name": "E3",
                    "midi": 52,
                    "time": 16.11109500000003,
                    "velocity": 0.3228346456692913,
                    "duration": 0.09259249999999852
                },
                {
                    "name": "G#2",
                    "midi": 44,
                    "time": 16.296280000000028,
                    "velocity": 0.3464566929133858,
                    "duration": 0.09259249999999852
                },
                {
                    "name": "E3",
                    "midi": 52,
                    "time": 16.481465000000025,
                    "velocity": 0.33070866141732286,
                    "duration": 0.09259249999999852
                },
                {
                    "name": "A2",
                    "midi": 45,
                    "time": 16.666650000000022,
                    "velocity": 0.36220472440944884,
                    "duration": 0.09259249999999852
                },
                {
                    "name": "E3",
                    "midi": 52,
                    "time": 16.85183500000002,
                    "velocity": 0.33858267716535434,
                    "duration": 0.09259249999999852
                },
                {
                    "name": "A#2",
                    "midi": 46,
                    "time": 17.037020000000016,
                    "velocity": 0.3779527559055118,
                    "duration": 0.09259249999999852
                },
                {
                    "name": "E3",
                    "midi": 52,
                    "time": 17.222205000000013,
                    "velocity": 0.33858267716535434,
                    "duration": 0.09259249999999852
                },
                {
                    "name": "B2",
                    "midi": 47,
                    "time": 17.40739000000001,
                    "velocity": 0.4015748031496063,
                    "duration": 0.09259249999999852
                },
                {
                    "name": "E3",
                    "midi": 52,
                    "time": 17.592575000000007,
                    "velocity": 0.3543307086614173,
                    "duration": 0.09259249999999852
                },
                {
                    "name": "C3",
                    "midi": 48,
                    "time": 17.777760000000004,
                    "velocity": 0.41732283464566927,
                    "duration": 0.09259249999999852
                },
                {
                    "name": "E3",
                    "midi": 52,
                    "time": 17.962945,
                    "velocity": 0.3858267716535433,
                    "duration": 0.09259249999999852
                },
                {
                    "name": "B2",
                    "midi": 47,
                    "time": 18.14813,
                    "velocity": 0.44881889763779526,
                    "duration": 0.09259249999999852
                },
                {
                    "name": "E3",
                    "midi": 52,
                    "time": 18.333314999999995,
                    "velocity": 0.3937007874015748,
                    "duration": 0.09259249999999852
                },
                {
                    "name": "A#2",
                    "midi": 46,
                    "time": 18.518499999999992,
                    "velocity": 0.4566929133858268,
                    "duration": 0.09259249999999852
                },
                {
                    "name": "E3",
                    "midi": 52,
                    "time": 18.70368499999999,
                    "velocity": 0.41732283464566927,
                    "duration": 0.09259249999999852
                },
                {
                    "name": "A2",
                    "midi": 45,
                    "time": 18.888869999999987,
                    "velocity": 0.47244094488188976,
                    "duration": 0.09259249999999852
                },
                {
                    "name": "E3",
                    "midi": 52,
                    "time": 19.074054999999984,
                    "velocity": 0.4251968503937008,
                    "duration": 0.09259249999999852
                },
                {
                    "name": "G#2",
                    "midi": 44,
                    "time": 19.25923999999998,
                    "velocity": 0.49606299212598426,
                    "duration": 0.09259249999999852
                },
                {
                    "name": "E3",
                    "midi": 52,
                    "time": 19.444424999999978,
                    "velocity": 0.4566929133858268,
                    "duration": 0.09259249999999852
                },
                {
                    "name": "G2",
                    "midi": 43,
                    "time": 19.629609999999975,
                    "velocity": 0.5196850393700787,
                    "duration": 0.09259249999999852
                },
                {
                    "name": "C#3",
                    "midi": 49,
                    "time": 19.81479499999997,
                    "velocity": 0.47244094488188976,
                    "duration": 0.09259249999999852
                },
                {
                    "name": "F#2",
                    "midi": 42,
                    "time": 19.99997999999997,
                    "velocity": 0.5433070866141733,
                    "duration": 0.09259249999999852
                },
                {
                    "name": "C#3",
                    "midi": 49,
                    "time": 20.185164999999966,
                    "velocity": 0.5039370078740157,
                    "duration": 0.09259249999999852
                },
                {
                    "name": "F2",
                    "midi": 41,
                    "time": 20.370349999999963,
                    "velocity": 0.6062992125984252,
                    "duration": 0.09259249999999852
                },
                {
                    "name": "C#3",
                    "midi": 49,
                    "time": 20.55553499999996,
                    "velocity": 0.5433070866141733,
                    "duration": 0.09259249999999852
                },
                {
                    "name": "E2",
                    "midi": 40,
                    "time": 20.740719999999957,
                    "velocity": 0.6535433070866141,
                    "duration": 0.09259249999999852
                },
                {
                    "name": "C#3",
                    "midi": 49,
                    "time": 20.925904999999954,
                    "velocity": 0.5984251968503937,
                    "duration": 0.09259249999999852
                },
                {
                    "name": "D#2",
                    "midi": 39,
                    "time": 21.11108999999995,
                    "velocity": 0.6771653543307087,
                    "duration": 0.09259249999999852
                },
                {
                    "name": "C#3",
                    "midi": 49,
                    "time": 21.296274999999948,
                    "velocity": 0.6220472440944882,
                    "duration": 0.09259249999999852
                },
                {
                    "name": "D3",
                    "midi": 50,
                    "time": 21.481459999999945,
                    "velocity": 0.7401574803149606,
                    "duration": 0.09259249999999852
                },
                {
                    "name": "D2",
                    "midi": 38,
                    "time": 21.481459999999945,
                    "velocity": 0.6299212598425197,
                    "duration": 0.09259249999999852
                },
                {
                    "name": "A2",
                    "midi": 45,
                    "time": 21.666644999999942,
                    "velocity": 0.6299212598425197,
                    "duration": 0.09259249999999852
                },
                {
                    "name": "A1",
                    "midi": 33,
                    "time": 21.666644999999942,
                    "velocity": 0.5354330708661418,
                    "duration": 0.09259249999999852
                },
                {
                    "name": "D3",
                    "midi": 50,
                    "time": 21.85182999999994,
                    "velocity": 0.7401574803149606,
                    "duration": 0.09259249999999852
                },
                {
                    "name": "D2",
                    "midi": 38,
                    "time": 21.85182999999994,
                    "velocity": 0.6299212598425197,
                    "duration": 0.09259249999999852
                },
                {
                    "name": "A1",
                    "midi": 33,
                    "time": 22.037014999999936,
                    "velocity": 0.5354330708661418,
                    "duration": 0.09259249999999852
                },
                {
                    "name": "A2",
                    "midi": 45,
                    "time": 22.037014999999936,
                    "velocity": 0.6299212598425197,
                    "duration": 0.09259249999999852
                },
                {
                    "name": "D2",
                    "midi": 38,
                    "time": 22.222199999999933,
                    "velocity": 0.6299212598425197,
                    "duration": 0.09259249999999852
                },
                {
                    "name": "D3",
                    "midi": 50,
                    "time": 22.222199999999933,
                    "velocity": 0.7401574803149606,
                    "duration": 0.09259249999999852
                },
                {
                    "name": "A1",
                    "midi": 33,
                    "time": 22.40738499999993,
                    "velocity": 0.5354330708661418,
                    "duration": 0.09259249999999852
                },
                {
                    "name": "A2",
                    "midi": 45,
                    "time": 22.40738499999993,
                    "velocity": 0.6299212598425197,
                    "duration": 0.09259249999999852
                },
                {
                    "name": "D3",
                    "midi": 50,
                    "time": 22.592569999999927,
                    "velocity": 0.7401574803149606,
                    "duration": 0.09259249999999852
                },
                {
                    "name": "D2",
                    "midi": 38,
                    "time": 22.592569999999927,
                    "velocity": 0.6299212598425197,
                    "duration": 0.09259249999999852
                },
                {
                    "name": "A1",
                    "midi": 33,
                    "time": 22.777754999999924,
                    "velocity": 0.5354330708661418,
                    "duration": 0.09259249999999852
                },
                {
                    "name": "A2",
                    "midi": 45,
                    "time": 22.777754999999924,
                    "velocity": 0.6299212598425197,
                    "duration": 0.09259249999999852
                },
                {
                    "name": "D2",
                    "midi": 38,
                    "time": 22.96293999999992,
                    "velocity": 0.5590551181102362,
                    "duration": 0.09259249999999852
                },
                {
                    "name": "D3",
                    "midi": 50,
                    "time": 22.96293999999992,
                    "velocity": 0.6614173228346457,
                    "duration": 0.09259249999999852
                },
                {
                    "name": "A1",
                    "midi": 33,
                    "time": 23.14812499999992,
                    "velocity": 0.47244094488188976,
                    "duration": 0.09259249999999852
                },
                {
                    "name": "A2",
                    "midi": 45,
                    "time": 23.14812499999992,
                    "velocity": 0.5590551181102362,
                    "duration": 0.09259249999999852
                },
                {
                    "name": "D2",
                    "midi": 38,
                    "time": 23.333309999999916,
                    "velocity": 0.5590551181102362,
                    "duration": 0.09259249999999852
                },
                {
                    "name": "D3",
                    "midi": 50,
                    "time": 23.333309999999916,
                    "velocity": 0.6614173228346457,
                    "duration": 0.09259249999999852
                },
                {
                    "name": "A1",
                    "midi": 33,
                    "time": 23.518494999999913,
                    "velocity": 0.47244094488188976,
                    "duration": 0.09259249999999852
                },
                {
                    "name": "A2",
                    "midi": 45,
                    "time": 23.518494999999913,
                    "velocity": 0.5590551181102362,
                    "duration": 0.09259249999999852
                },
                {
                    "name": "D3",
                    "midi": 50,
                    "time": 23.70367999999991,
                    "velocity": 0.6614173228346457,
                    "duration": 0.09259249999999852
                },
                {
                    "name": "D2",
                    "midi": 38,
                    "time": 23.70367999999991,
                    "velocity": 0.5590551181102362,
                    "duration": 0.09259249999999852
                },
                {
                    "name": "A1",
                    "midi": 33,
                    "time": 23.888864999999907,
                    "velocity": 0.47244094488188976,
                    "duration": 0.09259249999999852
                },
                {
                    "name": "A2",
                    "midi": 45,
                    "time": 23.888864999999907,
                    "velocity": 0.5590551181102362,
                    "duration": 0.09259249999999852
                },
                {
                    "name": "D2",
                    "midi": 38,
                    "time": 24.074049999999904,
                    "velocity": 0.5590551181102362,
                    "duration": 0.09259249999999852
                },
                {
                    "name": "D3",
                    "midi": 50,
                    "time": 24.074049999999904,
                    "velocity": 0.6614173228346457,
                    "duration": 0.09259249999999852
                },
                {
                    "name": "A1",
                    "midi": 33,
                    "time": 24.2592349999999,
                    "velocity": 0.47244094488188976,
                    "duration": 0.09259249999999852
                },
                {
                    "name": "A2",
                    "midi": 45,
                    "time": 24.2592349999999,
                    "velocity": 0.5590551181102362,
                    "duration": 0.09259249999999852
                },
                {
                    "name": "D3",
                    "midi": 50,
                    "time": 24.444419999999898,
                    "velocity": 0.6614173228346457,
                    "duration": 0.09259249999999852
                },
                {
                    "name": "D2",
                    "midi": 38,
                    "time": 24.444419999999898,
                    "velocity": 0.5590551181102362,
                    "duration": 0.09259249999999852
                },
                {
                    "name": "A2",
                    "midi": 45,
                    "time": 24.629604999999895,
                    "velocity": 0.5590551181102362,
                    "duration": 0.09259249999999852
                },
                {
                    "name": "A1",
                    "midi": 33,
                    "time": 24.629604999999895,
                    "velocity": 0.47244094488188976,
                    "duration": 0.09259249999999852
                },
                {
                    "name": "D3",
                    "midi": 50,
                    "time": 24.814789999999892,
                    "velocity": 0.6614173228346457,
                    "duration": 0.09259249999999852
                },
                {
                    "name": "D2",
                    "midi": 38,
                    "time": 24.814789999999892,
                    "velocity": 0.5590551181102362,
                    "duration": 0.09259249999999852
                },
                {
                    "name": "A2",
                    "midi": 45,
                    "time": 24.99997499999989,
                    "velocity": 0.5590551181102362,
                    "duration": 0.09259249999999852
                },
                {
                    "name": "A1",
                    "midi": 33,
                    "time": 24.99997499999989,
                    "velocity": 0.47244094488188976,
                    "duration": 0.09259249999999852
                },
                {
                    "name": "D2",
                    "midi": 38,
                    "time": 25.185159999999886,
                    "velocity": 0.5590551181102362,
                    "duration": 0.09259249999999852
                },
                {
                    "name": "D3",
                    "midi": 50,
                    "time": 25.185159999999886,
                    "velocity": 0.6614173228346457,
                    "duration": 0.09259249999999852
                },
                {
                    "name": "A1",
                    "midi": 33,
                    "time": 25.370344999999883,
                    "velocity": 0.47244094488188976,
                    "duration": 0.09259249999999852
                },
                {
                    "name": "A2",
                    "midi": 45,
                    "time": 25.370344999999883,
                    "velocity": 0.5590551181102362,
                    "duration": 0.09259249999999852
                },
                {
                    "name": "D2",
                    "midi": 38,
                    "time": 25.55552999999988,
                    "velocity": 0.5590551181102362,
                    "duration": 0.09259249999999852
                },
                {
                    "name": "D3",
                    "midi": 50,
                    "time": 25.55552999999988,
                    "velocity": 0.6614173228346457,
                    "duration": 0.09259249999999852
                },
                {
                    "name": "A1",
                    "midi": 33,
                    "time": 25.740714999999877,
                    "velocity": 0.47244094488188976,
                    "duration": 0.09259249999999852
                },
                {
                    "name": "A2",
                    "midi": 45,
                    "time": 25.740714999999877,
                    "velocity": 0.5590551181102362,
                    "duration": 0.09259249999999852
                },
                {
                    "name": "D3",
                    "midi": 50,
                    "time": 25.925899999999874,
                    "velocity": 0.6614173228346457,
                    "duration": 0.09259249999999852
                },
                {
                    "name": "D2",
                    "midi": 38,
                    "time": 25.925899999999874,
                    "velocity": 0.5590551181102362,
                    "duration": 0.09259249999999852
                },
                {
                    "name": "A2",
                    "midi": 45,
                    "time": 26.11108499999987,
                    "velocity": 0.5590551181102362,
                    "duration": 0.09259249999999852
                },
                {
                    "name": "A1",
                    "midi": 33,
                    "time": 26.11108499999987,
                    "velocity": 0.47244094488188976,
                    "duration": 0.09259249999999852
                },
                {
                    "name": "D3",
                    "midi": 50,
                    "time": 26.29626999999987,
                    "velocity": 0.6614173228346457,
                    "duration": 0.09259249999999852
                },
                {
                    "name": "D2",
                    "midi": 38,
                    "time": 26.29626999999987,
                    "velocity": 0.5590551181102362,
                    "duration": 0.09259249999999852
                },
                {
                    "name": "A2",
                    "midi": 45,
                    "time": 26.481454999999865,
                    "velocity": 0.5590551181102362,
                    "duration": 0.09259249999999852
                },
                {
                    "name": "A1",
                    "midi": 33,
                    "time": 26.481454999999865,
                    "velocity": 0.47244094488188976,
                    "duration": 0.09259249999999852
                },
                {
                    "name": "D2",
                    "midi": 38,
                    "time": 26.666639999999862,
                    "velocity": 0.5590551181102362,
                    "duration": 0.09259249999999852
                },
                {
                    "name": "D3",
                    "midi": 50,
                    "time": 26.666639999999862,
                    "velocity": 0.6614173228346457,
                    "duration": 0.09259249999999852
                },
                {
                    "name": "A2",
                    "midi": 45,
                    "time": 26.85182499999986,
                    "velocity": 0.5590551181102362,
                    "duration": 0.09259249999999852
                },
                {
                    "name": "A1",
                    "midi": 33,
                    "time": 26.85182499999986,
                    "velocity": 0.47244094488188976,
                    "duration": 0.09259249999999852
                },
                {
                    "name": "D3",
                    "midi": 50,
                    "time": 27.037009999999857,
                    "velocity": 0.6614173228346457,
                    "duration": 0.09259249999999852
                },
                {
                    "name": "D2",
                    "midi": 38,
                    "time": 27.037009999999857,
                    "velocity": 0.5590551181102362,
                    "duration": 0.09259249999999852
                },
                {
                    "name": "A2",
                    "midi": 45,
                    "time": 27.222194999999854,
                    "velocity": 0.5590551181102362,
                    "duration": 0.09259249999999852
                },
                {
                    "name": "A1",
                    "midi": 33,
                    "time": 27.222194999999854,
                    "velocity": 0.47244094488188976,
                    "duration": 0.09259249999999852
                },
                {
                    "name": "D2",
                    "midi": 38,
                    "time": 27.40737999999985,
                    "velocity": 0.5590551181102362,
                    "duration": 0.09259249999999852
                },
                {
                    "name": "D3",
                    "midi": 50,
                    "time": 27.40737999999985,
                    "velocity": 0.6614173228346457,
                    "duration": 0.09259249999999852
                },
                {
                    "name": "A1",
                    "midi": 33,
                    "time": 27.592564999999848,
                    "velocity": 0.47244094488188976,
                    "duration": 0.09259249999999852
                },
                {
                    "name": "A2",
                    "midi": 45,
                    "time": 27.592564999999848,
                    "velocity": 0.5590551181102362,
                    "duration": 0.09259249999999852
                },
                {
                    "name": "D3",
                    "midi": 50,
                    "time": 27.777749999999845,
                    "velocity": 0.6614173228346457,
                    "duration": 0.09259249999999852
                },
                {
                    "name": "D2",
                    "midi": 38,
                    "time": 27.777749999999845,
                    "velocity": 0.5590551181102362,
                    "duration": 0.09259249999999852
                },
                {
                    "name": "A1",
                    "midi": 33,
                    "time": 27.962934999999842,
                    "velocity": 0.47244094488188976,
                    "duration": 0.09259249999999852
                },
                {
                    "name": "A2",
                    "midi": 45,
                    "time": 27.962934999999842,
                    "velocity": 0.5590551181102362,
                    "duration": 0.09259249999999852
                },
                {
                    "name": "D2",
                    "midi": 38,
                    "time": 28.14811999999984,
                    "velocity": 0.5590551181102362,
                    "duration": 0.09259249999999852
                },
                {
                    "name": "D3",
                    "midi": 50,
                    "time": 28.14811999999984,
                    "velocity": 0.6614173228346457,
                    "duration": 0.09259249999999852
                },
                {
                    "name": "A1",
                    "midi": 33,
                    "time": 28.333304999999836,
                    "velocity": 0.47244094488188976,
                    "duration": 0.09259249999999852
                },
                {
                    "name": "A2",
                    "midi": 45,
                    "time": 28.333304999999836,
                    "velocity": 0.5590551181102362,
                    "duration": 0.09259249999999852
                },
                {
                    "name": "D2",
                    "midi": 38,
                    "time": 28.518489999999833,
                    "velocity": 0.5590551181102362,
                    "duration": 0.09259249999999852
                },
                {
                    "name": "D3",
                    "midi": 50,
                    "time": 28.518489999999833,
                    "velocity": 0.6614173228346457,
                    "duration": 0.09259249999999852
                },
                {
                    "name": "A1",
                    "midi": 33,
                    "time": 28.70367499999983,
                    "velocity": 0.47244094488188976,
                    "duration": 0.09259249999999852
                },
                {
                    "name": "A2",
                    "midi": 45,
                    "time": 28.70367499999983,
                    "velocity": 0.5590551181102362,
                    "duration": 0.09259249999999852
                },
                {
                    "name": "F3",
                    "midi": 53,
                    "time": 28.888859999999827,
                    "velocity": 0.5590551181102362,
                    "duration": 0.09259249999999852
                },
                {
                    "name": "F4",
                    "midi": 65,
                    "time": 28.888859999999827,
                    "velocity": 0.6614173228346457,
                    "duration": 0.09259249999999852
                },
                {
                    "name": "D3",
                    "midi": 50,
                    "time": 29.074044999999824,
                    "velocity": 0.5590551181102362,
                    "duration": 0.09259249999999852
                },
                {
                    "name": "D2",
                    "midi": 38,
                    "time": 29.074044999999824,
                    "velocity": 0.3937007874015748,
                    "duration": 0.09259249999999852
                },
                {
                    "name": "E4",
                    "midi": 64,
                    "time": 29.25922999999982,
                    "velocity": 0.6614173228346457,
                    "duration": 0.09259249999999852
                },
                {
                    "name": "E3",
                    "midi": 52,
                    "time": 29.25922999999982,
                    "velocity": 0.5590551181102362,
                    "duration": 0.09259249999999852
                },
                {
                    "name": "D2",
                    "midi": 38,
                    "time": 29.444414999999818,
                    "velocity": 0.3937007874015748,
                    "duration": 0.09259249999999852
                },
                {
                    "name": "D3",
                    "midi": 50,
                    "time": 29.444414999999818,
                    "velocity": 0.5590551181102362,
                    "duration": 0.09259249999999852
                },
                {
                    "name": "D4",
                    "midi": 62,
                    "time": 29.629599999999815,
                    "velocity": 0.6614173228346457,
                    "duration": 0.09259249999999852
                },
                {
                    "name": "D3",
                    "midi": 50,
                    "time": 29.629599999999815,
                    "velocity": 0.5590551181102362,
                    "duration": 0.09259249999999852
                },
                {
                    "name": "D3",
                    "midi": 50,
                    "time": 29.814784999999812,
                    "velocity": 0.5590551181102362,
                    "duration": 0.09259249999999852
                },
                {
                    "name": "D2",
                    "midi": 38,
                    "time": 29.814784999999812,
                    "velocity": 0.3937007874015748,
                    "duration": 0.09259249999999852
                },
                {
                    "name": "C4",
                    "midi": 60,
                    "time": 29.99996999999981,
                    "velocity": 0.6614173228346457,
                    "duration": 0.09259249999999852
                },
                {
                    "name": "C3",
                    "midi": 48,
                    "time": 29.99996999999981,
                    "velocity": 0.5590551181102362,
                    "duration": 0.09259249999999852
                },
                {
                    "name": "D2",
                    "midi": 38,
                    "time": 30.185154999999806,
                    "velocity": 0.3937007874015748,
                    "duration": 0.09259249999999852
                },
                {
                    "name": "D3",
                    "midi": 50,
                    "time": 30.185154999999806,
                    "velocity": 0.5590551181102362,
                    "duration": 0.09259249999999852
                },
                {
                    "name": "A#2",
                    "midi": 46,
                    "time": 30.370339999999803,
                    "velocity": 0.47244094488188976,
                    "duration": 0.09259249999999852
                },
                {
                    "name": "A#3",
                    "midi": 58,
                    "time": 30.370339999999803,
                    "velocity": 0.6614173228346457,
                    "duration": 0.09259249999999852
                },
                {
                    "name": "D2",
                    "midi": 38,
                    "time": 30.5555249999998,
                    "velocity": 0.3937007874015748,
                    "duration": 0.09259249999999852
                },
                {
                    "name": "D3",
                    "midi": 50,
                    "time": 30.5555249999998,
                    "velocity": 0.5590551181102362,
                    "duration": 0.09259249999999852
                },
                {
                    "name": "A3",
                    "midi": 57,
                    "time": 30.740709999999797,
                    "velocity": 0.6614173228346457,
                    "duration": 0.09259249999999852
                },
                {
                    "name": "A2",
                    "midi": 45,
                    "time": 30.740709999999797,
                    "velocity": 0.47244094488188976,
                    "duration": 0.09259249999999852
                },
                {
                    "name": "D3",
                    "midi": 50,
                    "time": 30.925894999999795,
                    "velocity": 0.5590551181102362,
                    "duration": 0.09259249999999852
                },
                {
                    "name": "D2",
                    "midi": 38,
                    "time": 30.925894999999795,
                    "velocity": 0.3937007874015748,
                    "duration": 0.09259249999999852
                },
                {
                    "name": "G2",
                    "midi": 43,
                    "time": 31.11107999999979,
                    "velocity": 0.47244094488188976,
                    "duration": 0.09259249999999852
                },
                {
                    "name": "G3",
                    "midi": 55,
                    "time": 31.11107999999979,
                    "velocity": 0.6614173228346457,
                    "duration": 0.09259249999999852
                },
                {
                    "name": "D3",
                    "midi": 50,
                    "time": 31.29626499999979,
                    "velocity": 0.5590551181102362,
                    "duration": 0.09259249999999852
                },
                {
                    "name": "D2",
                    "midi": 38,
                    "time": 31.29626499999979,
                    "velocity": 0.3937007874015748,
                    "duration": 0.09259249999999852
                },
                {
                    "name": "G3",
                    "midi": 55,
                    "time": 31.481449999999786,
                    "velocity": 0.6614173228346457,
                    "duration": 0.09259249999999852
                },
                {
                    "name": "G2",
                    "midi": 43,
                    "time": 31.481449999999786,
                    "velocity": 0.47244094488188976,
                    "duration": 0.09259249999999852
                },
                {
                    "name": "D2",
                    "midi": 38,
                    "time": 31.666634999999783,
                    "velocity": 0.3937007874015748,
                    "duration": 0.09259249999999852
                },
                {
                    "name": "D3",
                    "midi": 50,
                    "time": 31.666634999999783,
                    "velocity": 0.5590551181102362,
                    "duration": 0.09259249999999852
                },
                {
                    "name": "D4",
                    "midi": 62,
                    "time": 31.85181999999978,
                    "velocity": 0.6614173228346457,
                    "duration": 0.09259249999999852
                },
                {
                    "name": "D3",
                    "midi": 50,
                    "time": 31.85181999999978,
                    "velocity": 0.5590551181102362,
                    "duration": 0.09259249999999852
                },
                {
                    "name": "D2",
                    "midi": 38,
                    "time": 32.03700499999978,
                    "velocity": 0.47244094488188976,
                    "duration": 0.09259250000000208
                },
                {
                    "name": "D3",
                    "midi": 50,
                    "time": 32.03700499999978,
                    "velocity": 0.5590551181102362,
                    "duration": 0.09259250000000208
                },
                {
                    "name": "C4",
                    "midi": 60,
                    "time": 32.222189999999785,
                    "velocity": 0.6614173228346457,
                    "duration": 0.09259250000000208
                },
                {
                    "name": "C3",
                    "midi": 48,
                    "time": 32.222189999999785,
                    "velocity": 0.5590551181102362,
                    "duration": 0.09259250000000208
                },
                {
                    "name": "D3",
                    "midi": 50,
                    "time": 32.40737499999979,
                    "velocity": 0.5590551181102362,
                    "duration": 0.09259250000000208
                },
                {
                    "name": "D2",
                    "midi": 38,
                    "time": 32.40737499999979,
                    "velocity": 0.47244094488188976,
                    "duration": 0.09259250000000208
                },
                {
                    "name": "A#3",
                    "midi": 58,
                    "time": 32.59255999999979,
                    "velocity": 0.6614173228346457,
                    "duration": 0.09259250000000208
                },
                {
                    "name": "A#2",
                    "midi": 46,
                    "time": 32.59255999999979,
                    "velocity": 0.5590551181102362,
                    "duration": 0.09259250000000208
                },
                {
                    "name": "D2",
                    "midi": 38,
                    "time": 32.7777449999998,
                    "velocity": 0.47244094488188976,
                    "duration": 0.09259250000000208
                },
                {
                    "name": "D3",
                    "midi": 50,
                    "time": 32.7777449999998,
                    "velocity": 0.5590551181102362,
                    "duration": 0.09259250000000208
                },
                {
                    "name": "A3",
                    "midi": 57,
                    "time": 32.9629299999998,
                    "velocity": 0.6614173228346457,
                    "duration": 0.09259250000000208
                },
                {
                    "name": "A2",
                    "midi": 45,
                    "time": 32.9629299999998,
                    "velocity": 0.5590551181102362,
                    "duration": 0.09259250000000208
                },
                {
                    "name": "D3",
                    "midi": 50,
                    "time": 33.148114999999805,
                    "velocity": 0.5590551181102362,
                    "duration": 0.09259250000000208
                },
                {
                    "name": "D2",
                    "midi": 38,
                    "time": 33.148114999999805,
                    "velocity": 0.47244094488188976,
                    "duration": 0.09259250000000208
                },
                {
                    "name": "G3",
                    "midi": 55,
                    "time": 33.33329999999981,
                    "velocity": 0.6614173228346457,
                    "duration": 0.09259250000000208
                },
                {
                    "name": "G2",
                    "midi": 43,
                    "time": 33.33329999999981,
                    "velocity": 0.5590551181102362,
                    "duration": 0.09259250000000208
                },
                {
                    "name": "D3",
                    "midi": 50,
                    "time": 33.518484999999814,
                    "velocity": 0.5590551181102362,
                    "duration": 0.09259250000000208
                },
                {
                    "name": "D2",
                    "midi": 38,
                    "time": 33.518484999999814,
                    "velocity": 0.47244094488188976,
                    "duration": 0.09259250000000208
                },
                {
                    "name": "F2",
                    "midi": 41,
                    "time": 33.70366999999982,
                    "velocity": 0.5590551181102362,
                    "duration": 0.09259250000000208
                },
                {
                    "name": "F3",
                    "midi": 53,
                    "time": 33.70366999999982,
                    "velocity": 0.6614173228346457,
                    "duration": 0.09259250000000208
                },
                {
                    "name": "D2",
                    "midi": 38,
                    "time": 33.88885499999982,
                    "velocity": 0.47244094488188976,
                    "duration": 0.09259250000000208
                },
                {
                    "name": "D3",
                    "midi": 50,
                    "time": 33.88885499999982,
                    "velocity": 0.5590551181102362,
                    "duration": 0.09259250000000208
                },
                {
                    "name": "E2",
                    "midi": 40,
                    "time": 34.074039999999826,
                    "velocity": 0.5590551181102362,
                    "duration": 0.09259250000000208
                },
                {
                    "name": "E3",
                    "midi": 52,
                    "time": 34.074039999999826,
                    "velocity": 0.6614173228346457,
                    "duration": 0.09259250000000208
                },
                {
                    "name": "D3",
                    "midi": 50,
                    "time": 34.25922499999983,
                    "velocity": 0.5590551181102362,
                    "duration": 0.09259250000000208
                },
                {
                    "name": "D2",
                    "midi": 38,
                    "time": 34.25922499999983,
                    "velocity": 0.47244094488188976,
                    "duration": 0.09259250000000208
                },
                {
                    "name": "E3",
                    "midi": 52,
                    "time": 34.444409999999834,
                    "velocity": 0.6614173228346457,
                    "duration": 0.09259250000000208
                },
                {
                    "name": "E2",
                    "midi": 40,
                    "time": 34.444409999999834,
                    "velocity": 0.5590551181102362,
                    "duration": 0.09259250000000208
                },
                {
                    "name": "D2",
                    "midi": 38,
                    "time": 34.62959499999984,
                    "velocity": 0.47244094488188976,
                    "duration": 0.09259250000000208
                },
                {
                    "name": "D3",
                    "midi": 50,
                    "time": 34.62959499999984,
                    "velocity": 0.5590551181102362,
                    "duration": 0.09259250000000208
                },
                {
                    "name": "F3",
                    "midi": 53,
                    "time": 34.81477999999984,
                    "velocity": 0.4881889763779528,
                    "duration": 0.09259250000000208
                },
                {
                    "name": "D2",
                    "midi": 38,
                    "time": 34.99996499999985,
                    "velocity": 0.4094488188976378,
                    "duration": 0.09259250000000208
                },
                {
                    "name": "E3",
                    "midi": 52,
                    "time": 35.18514999999985,
                    "velocity": 0.47244094488188976,
                    "duration": 0.09259250000000208
                },
                {
                    "name": "D2",
                    "midi": 38,
                    "time": 35.370334999999855,
                    "velocity": 0.4015748031496063,
                    "duration": 0.09259250000000208
                },
                {
                    "name": "D3",
                    "midi": 50,
                    "time": 35.55551999999986,
                    "velocity": 0.4645669291338583,
                    "duration": 0.09259250000000208
                },
                {
                    "name": "D2",
                    "midi": 38,
                    "time": 35.74070499999986,
                    "velocity": 0.3937007874015748,
                    "duration": 0.09259250000000208
                },
                {
                    "name": "C3",
                    "midi": 48,
                    "time": 35.92588999999987,
                    "velocity": 0.4566929133858268,
                    "duration": 0.09259250000000208
                },
                {
                    "name": "D2",
                    "midi": 38,
                    "time": 36.11107499999987,
                    "velocity": 0.3858267716535433,
                    "duration": 0.09259250000000208
                },
                {
                    "name": "A#2",
                    "midi": 46,
                    "time": 36.296259999999876,
                    "velocity": 0.44881889763779526,
                    "duration": 0.09259250000000208
                },
                {
                    "name": "D2",
                    "midi": 38,
                    "time": 36.48144499999988,
                    "velocity": 0.3779527559055118,
                    "duration": 0.09259250000000208
                },
                {
                    "name": "A2",
                    "midi": 45,
                    "time": 36.666629999999884,
                    "velocity": 0.4409448818897638,
                    "duration": 0.09259250000000208
                },
                {
                    "name": "D2",
                    "midi": 38,
                    "time": 36.85181499999989,
                    "velocity": 0.3779527559055118,
                    "duration": 0.09259250000000208
                },
                {
                    "name": "G2",
                    "midi": 43,
                    "time": 37.03699999999989,
                    "velocity": 0.4330708661417323,
                    "duration": 0.09259250000000208
                },
                {
                    "name": "D2",
                    "midi": 38,
                    "time": 37.2221849999999,
                    "velocity": 0.3700787401574803,
                    "duration": 0.09259250000000208
                },
                {
                    "name": "G2",
                    "midi": 43,
                    "time": 37.4073699999999,
                    "velocity": 0.4251968503937008,
                    "duration": 0.09259250000000208
                },
                {
                    "name": "D2",
                    "midi": 38,
                    "time": 37.592554999999905,
                    "velocity": 0.36220472440944884,
                    "duration": 0.09259250000000208
                },
                {
                    "name": "D3",
                    "midi": 50,
                    "time": 37.77773999999991,
                    "velocity": 0.3858267716535433,
                    "duration": 0.09259250000000208
                },
                {
                    "name": "D2",
                    "midi": 38,
                    "time": 37.96292499999991,
                    "velocity": 0.3228346456692913,
                    "duration": 0.09259250000000208
                },
                {
                    "name": "C3",
                    "midi": 48,
                    "time": 38.14810999999992,
                    "velocity": 0.3779527559055118,
                    "duration": 0.09259250000000208
                },
                {
                    "name": "D2",
                    "midi": 38,
                    "time": 38.33329499999992,
                    "velocity": 0.3228346456692913,
                    "duration": 0.09259250000000208
                },
                {
                    "name": "A#2",
                    "midi": 46,
                    "time": 38.518479999999926,
                    "velocity": 0.3779527559055118,
                    "duration": 0.09259250000000208
                },
                {
                    "name": "D2",
                    "midi": 38,
                    "time": 38.70366499999993,
                    "velocity": 0.31496062992125984,
                    "duration": 0.09259250000000208
                },
                {
                    "name": "A2",
                    "midi": 45,
                    "time": 38.888849999999934,
                    "velocity": 0.3700787401574803,
                    "duration": 0.09259250000000208
                },
                {
                    "name": "D2",
                    "midi": 38,
                    "time": 39.07403499999994,
                    "velocity": 0.31496062992125984,
                    "duration": 0.09259250000000208
                },
                {
                    "name": "G2",
                    "midi": 43,
                    "time": 39.25921999999994,
                    "velocity": 0.3700787401574803,
                    "duration": 0.09259250000000208
                },
                {
                    "name": "D2",
                    "midi": 38,
                    "time": 39.444404999999946,
                    "velocity": 0.31496062992125984,
                    "duration": 0.09259250000000208
                },
                {
                    "name": "F2",
                    "midi": 41,
                    "time": 39.62958999999995,
                    "velocity": 0.36220472440944884,
                    "duration": 0.09259250000000208
                },
                {
                    "name": "D2",
                    "midi": 38,
                    "time": 39.814774999999955,
                    "velocity": 0.30708661417322836,
                    "duration": 0.09259250000000208
                },
                {
                    "name": "E2",
                    "midi": 40,
                    "time": 39.99995999999996,
                    "velocity": 0.36220472440944884,
                    "duration": 0.09259250000000208
                },
                {
                    "name": "D2",
                    "midi": 38,
                    "time": 40.18514499999996,
                    "velocity": 0.29133858267716534,
                    "duration": 0.09259250000000208
                },
                {
                    "name": "E2",
                    "midi": 40,
                    "time": 40.37032999999997,
                    "velocity": 0.3464566929133858,
                    "duration": 0.09259250000000208
                },
                {
                    "name": "D2",
                    "midi": 38,
                    "time": 40.55551499999997,
                    "velocity": 0.29133858267716534,
                    "duration": 0.09259250000000208
                },
                {
                    "name": "D#2",
                    "midi": 39,
                    "time": 40.740699999999975,
                    "velocity": 0.3700787401574803,
                    "duration": 0.09259250000000208
                },
                {
                    "name": "A2",
                    "midi": 45,
                    "time": 40.92588499999998,
                    "velocity": 0.3228346456692913,
                    "duration": 0.09259250000000208
                },
                {
                    "name": "D#2",
                    "midi": 39,
                    "time": 41.111069999999984,
                    "velocity": 0.3700787401574803,
                    "duration": 0.09259250000000208
                },
                {
                    "name": "A2",
                    "midi": 45,
                    "time": 41.29625499999999,
                    "velocity": 0.3228346456692913,
                    "duration": 0.09259250000000208
                },
                {
                    "name": "D2",
                    "midi": 38,
                    "time": 41.48143999999999,
                    "velocity": 0.3700787401574803,
                    "duration": 0.09259250000000208
                },
                {
                    "name": "A2",
                    "midi": 45,
                    "time": 41.666624999999996,
                    "velocity": 0.3228346456692913,
                    "duration": 0.09259250000000208
                },
                {
                    "name": "D2",
                    "midi": 38,
                    "time": 41.85181,
                    "velocity": 0.3779527559055118,
                    "duration": 0.09259250000000208
                },
                {
                    "name": "A2",
                    "midi": 45,
                    "time": 42.036995000000005,
                    "velocity": 0.3228346456692913,
                    "duration": 0.09259250000000208
                },
                {
                    "name": "D#2",
                    "midi": 39,
                    "time": 42.22218000000001,
                    "velocity": 0.3700787401574803,
                    "duration": 0.09259250000000208
                },
                {
                    "name": "A2",
                    "midi": 45,
                    "time": 42.40736500000001,
                    "velocity": 0.3228346456692913,
                    "duration": 0.09259250000000208
                },
                {
                    "name": "D#2",
                    "midi": 39,
                    "time": 42.59255000000002,
                    "velocity": 0.3700787401574803,
                    "duration": 0.09259250000000208
                },
                {
                    "name": "A2",
                    "midi": 45,
                    "time": 42.77773500000002,
                    "velocity": 0.3228346456692913,
                    "duration": 0.09259250000000208
                },
                {
                    "name": "D2",
                    "midi": 38,
                    "time": 42.962920000000025,
                    "velocity": 0.3700787401574803,
                    "duration": 0.09259250000000208
                },
                {
                    "name": "A2",
                    "midi": 45,
                    "time": 43.14810500000003,
                    "velocity": 0.3228346456692913,
                    "duration": 0.09259250000000208
                },
                {
                    "name": "D#2",
                    "midi": 39,
                    "time": 43.333290000000034,
                    "velocity": 0.3779527559055118,
                    "duration": 0.09259250000000208
                },
                {
                    "name": "A2",
                    "midi": 45,
                    "time": 43.51847500000004,
                    "velocity": 0.30708661417322836,
                    "duration": 0.09259250000000208
                },
                {
                    "name": "D2",
                    "midi": 38,
                    "time": 43.70366000000004,
                    "velocity": 0.33858267716535434,
                    "duration": 0.09259250000000208
                },
                {
                    "name": "A2",
                    "midi": 45,
                    "time": 43.888845000000046,
                    "velocity": 0.3228346456692913,
                    "duration": 0.09259250000000208
                },
                {
                    "name": "D#2",
                    "midi": 39,
                    "time": 44.07403000000005,
                    "velocity": 0.33858267716535434,
                    "duration": 0.09259250000000208
                },
                {
                    "name": "A2",
                    "midi": 45,
                    "time": 44.259215000000054,
                    "velocity": 0.28346456692913385,
                    "duration": 0.09259250000000208
                },
                {
                    "name": "D2",
                    "midi": 38,
                    "time": 44.44440000000006,
                    "velocity": 0.33858267716535434,
                    "duration": 0.09259250000000208
                },
                {
                    "name": "A2",
                    "midi": 45,
                    "time": 44.62958500000006,
                    "velocity": 0.30708661417322836,
                    "duration": 0.09259250000000208
                },
                {
                    "name": "D#2",
                    "midi": 39,
                    "time": 44.81477000000007,
                    "velocity": 0.33070866141732286,
                    "duration": 0.09259250000000208
                },
                {
                    "name": "A2",
                    "midi": 45,
                    "time": 44.99995500000007,
                    "velocity": 0.2677165354330709,
                    "duration": 0.09259250000000208
                },
                {
                    "name": "D2",
                    "midi": 38,
                    "time": 45.185140000000075,
                    "velocity": 0.30708661417322836,
                    "duration": 0.09259250000000208
                },
                {
                    "name": "A2",
                    "midi": 45,
                    "time": 45.37032500000008,
                    "velocity": 0.28346456692913385,
                    "duration": 0.09259250000000208
                },
                {
                    "name": "D#2",
                    "midi": 39,
                    "time": 45.55551000000008,
                    "velocity": 0.29133858267716534,
                    "duration": 0.09259250000000208
                },
                {
                    "name": "A2",
                    "midi": 45,
                    "time": 45.74069500000009,
                    "velocity": 0.25196850393700787,
                    "duration": 0.09259250000000208
                },
                {
                    "name": "D2",
                    "midi": 38,
                    "time": 45.92588000000009,
                    "velocity": 0.3228346456692913,
                    "duration": 0.09259250000000208
                },
                {
                    "name": "A2",
                    "midi": 45,
                    "time": 46.111065000000096,
                    "velocity": 0.30708661417322836,
                    "duration": 0.09259250000000208
                },
                {
                    "name": "D2",
                    "midi": 38,
                    "time": 46.2962500000001,
                    "velocity": 0.3228346456692913,
                    "duration": 0.09259250000000208
                },
                {
                    "name": "A2",
                    "midi": 45,
                    "time": 46.481435000000104,
                    "velocity": 0.30708661417322836,
                    "duration": 0.09259250000000208
                },
                {
                    "name": "D2",
                    "midi": 38,
                    "time": 46.66662000000011,
                    "velocity": 0.3228346456692913,
                    "duration": 0.09259250000000208
                },
                {
                    "name": "A2",
                    "midi": 45,
                    "time": 46.85180500000011,
                    "velocity": 0.30708661417322836,
                    "duration": 0.09259250000000208
                },
                {
                    "name": "D2",
                    "midi": 38,
                    "time": 47.03699000000012,
                    "velocity": 0.3228346456692913,
                    "duration": 0.09259250000000208
                },
                {
                    "name": "A2",
                    "midi": 45,
                    "time": 47.22217500000012,
                    "velocity": 0.30708661417322836,
                    "duration": 0.09259250000000208
                },
                {
                    "name": "D2",
                    "midi": 38,
                    "time": 47.407360000000125,
                    "velocity": 0.3228346456692913,
                    "duration": 0.09259250000000208
                },
                {
                    "name": "A2",
                    "midi": 45,
                    "time": 47.59254500000013,
                    "velocity": 0.30708661417322836,
                    "duration": 0.09259250000000208
                },
                {
                    "name": "D2",
                    "midi": 38,
                    "time": 47.77773000000013,
                    "velocity": 0.3228346456692913,
                    "duration": 0.09259250000000208
                },
                {
                    "name": "A2",
                    "midi": 45,
                    "time": 47.96291500000014,
                    "velocity": 0.30708661417322836,
                    "duration": 0.09259250000000208
                },
                {
                    "name": "D2",
                    "midi": 38,
                    "time": 48.14810000000014,
                    "velocity": 0.3228346456692913,
                    "duration": 0.09259250000000208
                },
                {
                    "name": "A2",
                    "midi": 45,
                    "time": 48.333285000000146,
                    "velocity": 0.29133858267716534,
                    "duration": 0.09259250000000208
                },
                {
                    "name": "D2",
                    "midi": 38,
                    "time": 48.51847000000015,
                    "velocity": 0.3228346456692913,
                    "duration": 0.09259250000000208
                },
                {
                    "name": "A2",
                    "midi": 45,
                    "time": 48.703655000000154,
                    "velocity": 0.29133858267716534,
                    "duration": 0.09259250000000208
                },
                {
                    "name": "D2",
                    "midi": 38,
                    "time": 48.88884000000016,
                    "velocity": 0.33858267716535434,
                    "duration": 0.09259250000000208
                },
                {
                    "name": "A2",
                    "midi": 45,
                    "time": 49.07402500000016,
                    "velocity": 0.31496062992125984,
                    "duration": 0.09259250000000208
                },
                {
                    "name": "D2",
                    "midi": 38,
                    "time": 49.25921000000017,
                    "velocity": 0.33858267716535434,
                    "duration": 0.09259250000000208
                },
                {
                    "name": "A2",
                    "midi": 45,
                    "time": 49.44439500000017,
                    "velocity": 0.3228346456692913,
                    "duration": 0.09259250000000208
                },
                {
                    "name": "D2",
                    "midi": 38,
                    "time": 49.629580000000175,
                    "velocity": 0.33070866141732286,
                    "duration": 0.09259250000000208
                },
                {
                    "name": "A2",
                    "midi": 45,
                    "time": 49.81476500000018,
                    "velocity": 0.31496062992125984,
                    "duration": 0.09259250000000208
                },
                {
                    "name": "D3",
                    "midi": 50,
                    "time": 49.99995000000018,
                    "velocity": 0.33070866141732286,
                    "duration": 0.09259250000000208
                },
                {
                    "name": "A3",
                    "midi": 57,
                    "time": 50.18513500000019,
                    "velocity": 0.31496062992125984,
                    "duration": 0.09259250000000208
                },
                {
                    "name": "D4",
                    "midi": 62,
                    "time": 51.85180000000019,
                    "velocity": 0.2125984251968504,
                    "duration": 0.7407400000000024
                },
                {
                    "name": "A4",
                    "midi": 69,
                    "time": 51.85180000000019,
                    "velocity": 0.2125984251968504,
                    "duration": 0.7407400000000024
                },
                {
                    "name": "F#4",
                    "midi": 66,
                    "time": 52.59254000000019,
                    "velocity": 0.2125984251968504,
                    "duration": 0.7407400000000024
                },
                {
                    "name": "B4",
                    "midi": 71,
                    "time": 52.59254000000019,
                    "velocity": 0.2125984251968504,
                    "duration": 0.7407400000000024
                },
                {
                    "name": "B3",
                    "midi": 59,
                    "time": 52.59254000000019,
                    "velocity": 0.2125984251968504,
                    "duration": 0.7407400000000024
                },
                {
                    "name": "D4",
                    "midi": 62,
                    "time": 53.333280000000194,
                    "velocity": 0.2125984251968504,
                    "duration": 0.7407400000000024
                },
                {
                    "name": "A4",
                    "midi": 69,
                    "time": 53.333280000000194,
                    "velocity": 0.2125984251968504,
                    "duration": 0.7407400000000024
                },
                {
                    "name": "B4",
                    "midi": 71,
                    "time": 54.074020000000196,
                    "velocity": 0.18110236220472442,
                    "duration": 0.7407399999999953
                },
                {
                    "name": "B3",
                    "midi": 59,
                    "time": 54.074020000000196,
                    "velocity": 0.18110236220472442,
                    "duration": 0.7407399999999953
                },
                {
                    "name": "F#4",
                    "midi": 66,
                    "time": 54.074020000000196,
                    "velocity": 0.18110236220472442,
                    "duration": 0.7407399999999953
                },
                {
                    "name": "D4",
                    "midi": 62,
                    "time": 54.81476000000019,
                    "velocity": 0.28346456692913385,
                    "duration": 0.3703700000000012
                },
                {
                    "name": "A4",
                    "midi": 69,
                    "time": 54.81476000000019,
                    "velocity": 0.2125984251968504,
                    "duration": 0.7407400000000024
                },
                {
                    "name": "C#4",
                    "midi": 61,
                    "time": 55.18513000000019,
                    "velocity": 0.28346456692913385,
                    "duration": 0.3703700000000012
                },
                {
                    "name": "B4",
                    "midi": 71,
                    "time": 55.555500000000194,
                    "velocity": 0.2125984251968504,
                    "duration": 0.7407399999999953
                },
                {
                    "name": "F#4",
                    "midi": 66,
                    "time": 55.555500000000194,
                    "velocity": 0.29133858267716534,
                    "duration": 0.3703700000000012
                },
                {
                    "name": "B3",
                    "midi": 59,
                    "time": 55.555500000000194,
                    "velocity": 0.2125984251968504,
                    "duration": 0.7407399999999953
                },
                {
                    "name": "F4",
                    "midi": 65,
                    "time": 55.925870000000195,
                    "velocity": 0.2755905511811024,
                    "duration": 0.3703699999999941
                },
                {
                    "name": "A4",
                    "midi": 69,
                    "time": 56.29624000000019,
                    "velocity": 0.31496062992125984,
                    "duration": 0.3703700000000012
                },
                {
                    "name": "E4",
                    "midi": 64,
                    "time": 56.29624000000019,
                    "velocity": 0.2125984251968504,
                    "duration": 0.7407400000000024
                },
                {
                    "name": "G#4",
                    "midi": 68,
                    "time": 56.66661000000019,
                    "velocity": 0.29133858267716534,
                    "duration": 0.3703700000000012
                },
                {
                    "name": "E4",
                    "midi": 64,
                    "time": 57.03698000000019,
                    "velocity": 0.2755905511811024,
                    "duration": 0.3703700000000012
                },
                {
                    "name": "A4",
                    "midi": 69,
                    "time": 57.03698000000019,
                    "velocity": 0.18110236220472442,
                    "duration": 0.7391967916666644
                },
                {
                    "name": "A3",
                    "midi": 57,
                    "time": 57.03698000000019,
                    "velocity": 0.18110236220472442,
                    "duration": 0.7407399999999953
                },
                {
                    "name": "F4",
                    "midi": 65,
                    "time": 57.40735000000019,
                    "velocity": 0.25984251968503935,
                    "duration": 0.3703699999999941
                },
                {
                    "name": "A3",
                    "midi": 57,
                    "time": 57.962905000000184,
                    "velocity": 0.2125984251968504,
                    "duration": 0.5555550000000054
                },
                {
                    "name": "D3",
                    "midi": 50,
                    "time": 57.962905000000184,
                    "velocity": 0.16535433070866143,
                    "duration": 0.5555550000000054
                },
                {
                    "name": "B2",
                    "midi": 47,
                    "time": 58.70364500000019,
                    "velocity": 0.16535433070866143,
                    "duration": 0.5555549999999982
                },
                {
                    "name": "B3",
                    "midi": 59,
                    "time": 58.70364500000019,
                    "velocity": 0.2125984251968504,
                    "duration": 0.5555549999999982
                },
                {
                    "name": "F#3",
                    "midi": 54,
                    "time": 58.70364500000019,
                    "velocity": 0.16535433070866143,
                    "duration": 0.5555549999999982
                },
                {
                    "name": "A3",
                    "midi": 57,
                    "time": 59.444385000000196,
                    "velocity": 0.2125984251968504,
                    "duration": 0.5555549999999982
                },
                {
                    "name": "D3",
                    "midi": 50,
                    "time": 59.444385000000196,
                    "velocity": 0.16535433070866143,
                    "duration": 0.5555549999999982
                },
                {
                    "name": "B3",
                    "midi": 59,
                    "time": 60.1851250000002,
                    "velocity": 0.18110236220472442,
                    "duration": 0.5555549999999982
                },
                {
                    "name": "B2",
                    "midi": 47,
                    "time": 60.1851250000002,
                    "velocity": 0.14173228346456693,
                    "duration": 0.5555549999999982
                },
                {
                    "name": "F#3",
                    "midi": 54,
                    "time": 60.1851250000002,
                    "velocity": 0.14173228346456693,
                    "duration": 0.5555549999999982
                },
                {
                    "name": "A3",
                    "midi": 57,
                    "time": 60.925865000000194,
                    "velocity": 0.2125984251968504,
                    "duration": 0.5555549999999982
                },
                {
                    "name": "D3",
                    "midi": 50,
                    "time": 60.925865000000194,
                    "velocity": 0.2755905511811024,
                    "duration": 0.3703700000000012
                },
                {
                    "name": "C#3",
                    "midi": 49,
                    "time": 61.296235000000195,
                    "velocity": 0.2677165354330709,
                    "duration": 0.18518499999999705
                },
                {
                    "name": "B2",
                    "midi": 47,
                    "time": 61.666605000000196,
                    "velocity": 0.2440944881889764,
                    "duration": 0.5555549999999982
                },
                {
                    "name": "B3",
                    "midi": 59,
                    "time": 61.666605000000196,
                    "velocity": 0.2440944881889764,
                    "duration": 0.5555549999999982
                },
                {
                    "name": "F#3",
                    "midi": 54,
                    "time": 61.666605000000196,
                    "velocity": 0.30708661417322836,
                    "duration": 0.3703700000000012
                },
                {
                    "name": "F3",
                    "midi": 53,
                    "time": 62.0369750000002,
                    "velocity": 0.2755905511811024,
                    "duration": 0.18518499999999705
                },
                {
                    "name": "E2",
                    "midi": 40,
                    "time": 62.3610487500002,
                    "velocity": 0.2125984251968504,
                    "duration": 0.6018512499999957
                },
                {
                    "name": "A3",
                    "midi": 57,
                    "time": 62.4073450000002,
                    "velocity": 0.2755905511811024,
                    "duration": 0.3703700000000012
                },
                {
                    "name": "G#3",
                    "midi": 56,
                    "time": 62.7777150000002,
                    "velocity": 0.2677165354330709,
                    "duration": 0.18518499999999705
                },
                {
                    "name": "E3",
                    "midi": 52,
                    "time": 63.148085000000194,
                    "velocity": 0.14173228346456693,
                    "duration": 0.5555549999999982
                },
                {
                    "name": "A3",
                    "midi": 57,
                    "time": 63.148085000000194,
                    "velocity": 0.18110236220472442,
                    "duration": 0.5555549999999982
                },
                {
                    "name": "A2",
                    "midi": 45,
                    "time": 63.148085000000194,
                    "velocity": 0.14173228346456693,
                    "duration": 0.5555549999999982
                },
                {
                    "name": "A3",
                    "midi": 57,
                    "time": 63.70364000000019,
                    "velocity": 0.2755905511811024,
                    "duration": 0.06172833333333472
                },
                {
                    "name": "G4",
                    "midi": 67,
                    "time": 63.76536833333353,
                    "velocity": 0.2755905511811024,
                    "duration": 0.06172833333333472
                },
                {
                    "name": "C#5",
                    "midi": 73,
                    "time": 63.82709666666686,
                    "velocity": 0.2755905511811024,
                    "duration": 0.06172833333333472
                },
                {
                    "name": "G5",
                    "midi": 79,
                    "time": 64.0740100000002,
                    "velocity": 0.31496062992125984,
                    "duration": 0.3703699999999941
                },
                {
                    "name": "A3",
                    "midi": 57,
                    "time": 64.4443800000002,
                    "velocity": 0.2755905511811024,
                    "duration": 0.06172833333333472
                },
                {
                    "name": "G4",
                    "midi": 67,
                    "time": 64.50610833333353,
                    "velocity": 0.2755905511811024,
                    "duration": 0.06172833333333472
                },
                {
                    "name": "C#5",
                    "midi": 73,
                    "time": 64.56783666666686,
                    "velocity": 0.2755905511811024,
                    "duration": 0.06172833333333472
                },
                {
                    "name": "G5",
                    "midi": 79,
                    "time": 64.8147500000002,
                    "velocity": 0.31496062992125984,
                    "duration": 0.3703699999999941
                },
                {
                    "name": "A3",
                    "midi": 57,
                    "time": 65.1851200000002,
                    "velocity": 0.31496062992125984,
                    "duration": 0.09259249999999497
                },
                {
                    "name": "E4",
                    "midi": 64,
                    "time": 65.37030500000019,
                    "velocity": 0.31496062992125984,
                    "duration": 0.09259249999999497
                },
                {
                    "name": "G4",
                    "midi": 67,
                    "time": 65.55549000000018,
                    "velocity": 0.30708661417322836,
                    "duration": 0.09259249999999497
                },
                {
                    "name": "B4",
                    "midi": 71,
                    "time": 65.74067500000017,
                    "velocity": 0.30708661417322836,
                    "duration": 0.09259249999999497
                },
                {
                    "name": "C#5",
                    "midi": 73,
                    "time": 65.92586000000016,
                    "velocity": 0.29133858267716534,
                    "duration": 0.09259249999999497
                },
                {
                    "name": "E5",
                    "midi": 76,
                    "time": 66.11104500000015,
                    "velocity": 0.28346456692913385,
                    "duration": 0.09259249999999497
                },
                {
                    "name": "G5",
                    "midi": 79,
                    "time": 66.29623000000014,
                    "velocity": 0.28346456692913385,
                    "duration": 0.09259249999999497
                },
                {
                    "name": "F3",
                    "midi": 53,
                    "time": 66.66660000000013,
                    "velocity": 0.2755905511811024,
                    "duration": 0.06172833333333472
                },
                {
                    "name": "D#4",
                    "midi": 63,
                    "time": 66.72832833333347,
                    "velocity": 0.2755905511811024,
                    "duration": 0.06172833333333472
                },
                {
                    "name": "A4",
                    "midi": 69,
                    "time": 66.7900566666668,
                    "velocity": 0.2755905511811024,
                    "duration": 0.06172833333333472
                },
                {
                    "name": "D#5",
                    "midi": 75,
                    "time": 67.03697000000014,
                    "velocity": 0.30708661417322836,
                    "duration": 0.3703699999999941
                },
                {
                    "name": "F3",
                    "midi": 53,
                    "time": 67.40734000000013,
                    "velocity": 0.2755905511811024,
                    "duration": 0.06172833333333472
                },
                {
                    "name": "D#4",
                    "midi": 63,
                    "time": 67.46906833333347,
                    "velocity": 0.2755905511811024,
                    "duration": 0.06172833333333472
                },
                {
                    "name": "A4",
                    "midi": 69,
                    "time": 67.5307966666668,
                    "velocity": 0.2755905511811024,
                    "duration": 0.06172833333333472
                },
                {
                    "name": "D#5",
                    "midi": 75,
                    "time": 67.77771000000014,
                    "velocity": 0.3228346456692913,
                    "duration": 0.3703699999999941
                },
                {
                    "name": "F3",
                    "midi": 53,
                    "time": 68.14808000000014,
                    "velocity": 0.31496062992125984,
                    "duration": 0.09259249999999497
                },
                {
                    "name": "C4",
                    "midi": 60,
                    "time": 68.33326500000013,
                    "velocity": 0.31496062992125984,
                    "duration": 0.09259249999999497
                },
                {
                    "name": "D#4",
                    "midi": 63,
                    "time": 68.51845000000012,
                    "velocity": 0.30708661417322836,
                    "duration": 0.09259249999999497
                },
                {
                    "name": "G4",
                    "midi": 67,
                    "time": 68.7036350000001,
                    "velocity": 0.30708661417322836,
                    "duration": 0.09259249999999497
                },
                {
                    "name": "A4",
                    "midi": 69,
                    "time": 68.8888200000001,
                    "velocity": 0.29133858267716534,
                    "duration": 0.09259249999999497
                },
                {
                    "name": "C5",
                    "midi": 72,
                    "time": 69.07400500000008,
                    "velocity": 0.28346456692913385,
                    "duration": 0.09259249999999497
                },
                {
                    "name": "D#5",
                    "midi": 75,
                    "time": 69.25919000000007,
                    "velocity": 0.28346456692913385,
                    "duration": 0.09259249999999497
                },
                {
                    "name": "D3",
                    "midi": 50,
                    "time": 69.62956000000007,
                    "velocity": 0.25984251968503935,
                    "duration": 0.09259249999999497
                },
                {
                    "name": "A3",
                    "midi": 57,
                    "time": 69.81474500000006,
                    "velocity": 0.25984251968503935,
                    "duration": 0.09259249999999497
                },
                {
                    "name": "C4",
                    "midi": 60,
                    "time": 69.99993000000005,
                    "velocity": 0.25196850393700787,
                    "duration": 0.09259249999999497
                },
                {
                    "name": "E4",
                    "midi": 64,
                    "time": 70.18511500000004,
                    "velocity": 0.25196850393700787,
                    "duration": 0.09259249999999497
                },
                {
                    "name": "F#4",
                    "midi": 66,
                    "time": 70.37030000000003,
                    "velocity": 0.2440944881889764,
                    "duration": 0.09259249999999497
                },
                {
                    "name": "A4",
                    "midi": 69,
                    "time": 70.55548500000002,
                    "velocity": 0.2283464566929134,
                    "duration": 0.09259249999999497
                },
                {
                    "name": "C5",
                    "midi": 72,
                    "time": 70.74067000000001,
                    "velocity": 0.2204724409448819,
                    "duration": 0.09259249999999497
                },
                {
                    "name": "D5",
                    "midi": 74,
                    "time": 71.11104,
                    "velocity": 0.1889763779527559,
                    "duration": 0.7407400000000024
                },
                {
                    "name": "G4",
                    "midi": 67,
                    "time": 71.11104,
                    "velocity": 0.1889763779527559,
                    "duration": 0.7407400000000024
                },
                {
                    "name": "E5",
                    "midi": 76,
                    "time": 71.85178,
                    "velocity": 0.1889763779527559,
                    "duration": 0.7407400000000024
                },
                {
                    "name": "B4",
                    "midi": 71,
                    "time": 71.85178,
                    "velocity": 0.1889763779527559,
                    "duration": 0.7407400000000024
                },
                {
                    "name": "E4",
                    "midi": 64,
                    "time": 71.85178,
                    "velocity": 0.1889763779527559,
                    "duration": 0.7407400000000024
                },
                {
                    "name": "G4",
                    "midi": 67,
                    "time": 72.59252000000001,
                    "velocity": 0.1889763779527559,
                    "duration": 0.7407400000000024
                },
                {
                    "name": "D5",
                    "midi": 74,
                    "time": 72.59252000000001,
                    "velocity": 0.1889763779527559,
                    "duration": 0.7407400000000024
                },
                {
                    "name": "E4",
                    "midi": 64,
                    "time": 73.33326000000001,
                    "velocity": 0.15748031496062992,
                    "duration": 0.7407400000000024
                },
                {
                    "name": "B4",
                    "midi": 71,
                    "time": 73.33326000000001,
                    "velocity": 0.15748031496062992,
                    "duration": 0.7407400000000024
                },
                {
                    "name": "E5",
                    "midi": 76,
                    "time": 73.33326000000001,
                    "velocity": 0.15748031496062992,
                    "duration": 0.7407400000000024
                },
                {
                    "name": "G4",
                    "midi": 67,
                    "time": 74.07400000000001,
                    "velocity": 0.25196850393700787,
                    "duration": 0.3703699999999941
                },
                {
                    "name": "D5",
                    "midi": 74,
                    "time": 74.07400000000001,
                    "velocity": 0.1889763779527559,
                    "duration": 0.7407399999999882
                },
                {
                    "name": "F#4",
                    "midi": 66,
                    "time": 74.44437,
                    "velocity": 0.25196850393700787,
                    "duration": 0.3703699999999941
                },
                {
                    "name": "E5",
                    "midi": 76,
                    "time": 74.81474,
                    "velocity": 0.1889763779527559,
                    "duration": 0.7407399999999882
                },
                {
                    "name": "E4",
                    "midi": 64,
                    "time": 74.81474,
                    "velocity": 0.1889763779527559,
                    "duration": 0.7407399999999882
                },
                {
                    "name": "B4",
                    "midi": 71,
                    "time": 74.81474,
                    "velocity": 0.25984251968503935,
                    "duration": 0.3703699999999941
                },
                {
                    "name": "A#4",
                    "midi": 70,
                    "time": 75.18511,
                    "velocity": 0.2440944881889764,
                    "duration": 0.3703699999999941
                },
                {
                    "name": "A4",
                    "midi": 69,
                    "time": 75.55547999999999,
                    "velocity": 0.1889763779527559,
                    "duration": 0.7407399999999882
                },
                {
                    "name": "D5",
                    "midi": 74,
                    "time": 75.55547999999999,
                    "velocity": 0.2755905511811024,
                    "duration": 0.3703699999999941
                },
                {
                    "name": "C#5",
                    "midi": 73,
                    "time": 75.92584999999998,
                    "velocity": 0.25984251968503935,
                    "duration": 0.3703699999999941
                },
                {
                    "name": "D4",
                    "midi": 62,
                    "time": 76.29621999999998,
                    "velocity": 0.15748031496062992,
                    "duration": 0.7407399999999882
                },
                {
                    "name": "A4",
                    "midi": 69,
                    "time": 76.29621999999998,
                    "velocity": 0.2440944881889764,
                    "duration": 0.3703699999999941
                },
                {
                    "name": "D5",
                    "midi": 74,
                    "time": 76.29621999999998,
                    "velocity": 0.15748031496062992,
                    "duration": 0.7391967916666573
                },
                {
                    "name": "A#4",
                    "midi": 70,
                    "time": 76.66658999999997,
                    "velocity": 0.2125984251968504,
                    "duration": 0.3703699999999941
                },
                {
                    "name": "G3",
                    "midi": 55,
                    "time": 77.22214499999995,
                    "velocity": 0.2047244094488189,
                    "duration": 0.5555550000000125
                },
                {
                    "name": "D4",
                    "midi": 62,
                    "time": 77.22214499999995,
                    "velocity": 0.2047244094488189,
                    "duration": 0.5555550000000125
                },
                {
                    "name": "E3",
                    "midi": 52,
                    "time": 77.96288499999996,
                    "velocity": 0.2047244094488189,
                    "duration": 0.5555549999999982
                },
                {
                    "name": "B3",
                    "midi": 59,
                    "time": 77.96288499999996,
                    "velocity": 0.2047244094488189,
                    "duration": 0.5555549999999982
                },
                {
                    "name": "E4",
                    "midi": 64,
                    "time": 77.96288499999996,
                    "velocity": 0.2047244094488189,
                    "duration": 0.5555549999999982
                },
                {
                    "name": "G3",
                    "midi": 55,
                    "time": 78.70362499999995,
                    "velocity": 0.2047244094488189,
                    "duration": 0.5555549999999982
                },
                {
                    "name": "D4",
                    "midi": 62,
                    "time": 78.70362499999995,
                    "velocity": 0.2047244094488189,
                    "duration": 0.5555549999999982
                },
                {
                    "name": "E4",
                    "midi": 64,
                    "time": 79.44436499999993,
                    "velocity": 0.16535433070866143,
                    "duration": 0.5555549999999982
                },
                {
                    "name": "E3",
                    "midi": 52,
                    "time": 79.44436499999993,
                    "velocity": 0.16535433070866143,
                    "duration": 0.5555549999999982
                },
                {
                    "name": "B3",
                    "midi": 59,
                    "time": 79.44436499999993,
                    "velocity": 0.16535433070866143,
                    "duration": 0.5555549999999982
                },
                {
                    "name": "G3",
                    "midi": 55,
                    "time": 80.18510499999994,
                    "velocity": 0.25984251968503935,
                    "duration": 0.3703700000000083
                },
                {
                    "name": "D4",
                    "midi": 62,
                    "time": 80.18510499999994,
                    "velocity": 0.2047244094488189,
                    "duration": 0.5555550000000125
                },
                {
                    "name": "F#3",
                    "midi": 54,
                    "time": 80.55547499999994,
                    "velocity": 0.25984251968503935,
                    "duration": 0.18518500000000415
                },
                {
                    "name": "E3",
                    "midi": 52,
                    "time": 80.92584499999995,
                    "velocity": 0.2283464566929134,
                    "duration": 0.5555549999999982
                },
                {
                    "name": "B3",
                    "midi": 59,
                    "time": 80.92584499999995,
                    "velocity": 0.29133858267716534,
                    "duration": 0.3703699999999941
                },
                {
                    "name": "E4",
                    "midi": 64,
                    "time": 80.92584499999995,
                    "velocity": 0.2283464566929134,
                    "duration": 0.5555549999999982
                },
                {
                    "name": "A#3",
                    "midi": 58,
                    "time": 81.29621499999995,
                    "velocity": 0.25984251968503935,
                    "duration": 0.18518500000000415
                },
                {
                    "name": "A2",
                    "midi": 45,
                    "time": 81.62028874999996,
                    "velocity": 0.2047244094488189,
                    "duration": 0.6018512499999957
                },
                {
                    "name": "D4",
                    "midi": 62,
                    "time": 81.66658499999996,
                    "velocity": 0.25984251968503935,
                    "duration": 0.3703699999999941
                },
                {
                    "name": "C#4",
                    "midi": 61,
                    "time": 82.03695499999995,
                    "velocity": 0.25984251968503935,
                    "duration": 0.18518500000000415
                },
                {
                    "name": "D4",
                    "midi": 62,
                    "time": 82.40732499999996,
                    "velocity": 0.16535433070866143,
                    "duration": 0.5555549999999982
                },
                {
                    "name": "D3",
                    "midi": 50,
                    "time": 82.40732499999996,
                    "velocity": 0.16535433070866143,
                    "duration": 0.5555549999999982
                },
                {
                    "name": "A3",
                    "midi": 57,
                    "time": 82.40732499999996,
                    "velocity": 0.16535433070866143,
                    "duration": 0.5555549999999982
                },
                {
                    "name": "D4",
                    "midi": 62,
                    "time": 82.96287999999996,
                    "velocity": 0.2755905511811024,
                    "duration": 0.06172833333333472
                },
                {
                    "name": "C5",
                    "midi": 72,
                    "time": 83.02460833333329,
                    "velocity": 0.2755905511811024,
                    "duration": 0.06172833333333472
                },
                {
                    "name": "F#5",
                    "midi": 78,
                    "time": 83.08633666666663,
                    "velocity": 0.2755905511811024,
                    "duration": 0.06172833333333472
                },
                {
                    "name": "C6",
                    "midi": 84,
                    "time": 83.33324999999996,
                    "velocity": 0.31496062992125984,
                    "duration": 0.3703699999999941
                },
                {
                    "name": "D4",
                    "midi": 62,
                    "time": 83.70361999999996,
                    "velocity": 0.31496062992125984,
                    "duration": 0.09259249999999497
                },
                {
                    "name": "B4",
                    "midi": 71,
                    "time": 83.88880499999995,
                    "velocity": 0.31496062992125984,
                    "duration": 0.09259249999999497
                },
                {
                    "name": "D5",
                    "midi": 74,
                    "time": 84.07398999999994,
                    "velocity": 0.30708661417322836,
                    "duration": 0.09259249999999497
                },
                {
                    "name": "G5",
                    "midi": 79,
                    "time": 84.25917499999993,
                    "velocity": 0.30708661417322836,
                    "duration": 0.09259249999999497
                },
                {
                    "name": "D4",
                    "midi": 62,
                    "time": 84.44435999999992,
                    "velocity": 0.2755905511811024,
                    "duration": 0.061728333333320506
                },
                {
                    "name": "A4",
                    "midi": 69,
                    "time": 84.50608833333324,
                    "velocity": 0.2755905511811024,
                    "duration": 0.06172833333333472
                },
                {
                    "name": "C#5",
                    "midi": 73,
                    "time": 84.56781666666657,
                    "velocity": 0.2755905511811024,
                    "duration": 0.06172833333333472
                },
                {
                    "name": "G5",
                    "midi": 79,
                    "time": 84.81472999999991,
                    "velocity": 0.31496062992125984,
                    "duration": 0.3703699999999941
                },
                {
                    "name": "D4",
                    "midi": 62,
                    "time": 85.1850999999999,
                    "velocity": 0.31496062992125984,
                    "duration": 0.09259250000000918
                },
                {
                    "name": "A4",
                    "midi": 69,
                    "time": 85.37028499999991,
                    "velocity": 0.31496062992125984,
                    "duration": 0.09259249999999497
                },
                {
                    "name": "D5",
                    "midi": 74,
                    "time": 85.5554699999999,
                    "velocity": 0.30708661417322836,
                    "duration": 0.09259249999999497
                },
                {
                    "name": "F#5",
                    "midi": 78,
                    "time": 85.74065499999989,
                    "velocity": 0.30708661417322836,
                    "duration": 0.09259249999999497
                },
                {
                    "name": "D3",
                    "midi": 50,
                    "time": 85.92583999999988,
                    "velocity": 0.2755905511811024,
                    "duration": 0.061728333333320506
                },
                {
                    "name": "C4",
                    "midi": 60,
                    "time": 85.98833993749987,
                    "velocity": 0.2755905511811024,
                    "duration": 0.06172833333333472
                },
                {
                    "name": "F#4",
                    "midi": 66,
                    "time": 86.04929666666654,
                    "velocity": 0.2755905511811024,
                    "duration": 0.06172833333333472
                },
                {
                    "name": "C5",
                    "midi": 72,
                    "time": 86.29620999999987,
                    "velocity": 0.30708661417322836,
                    "duration": 0.3703699999999941
                },
                {
                    "name": "D3",
                    "midi": 50,
                    "time": 86.66657999999987,
                    "velocity": 0.30708661417322836,
                    "duration": 0.09259249999999497
                },
                {
                    "name": "B3",
                    "midi": 59,
                    "time": 86.85176499999986,
                    "velocity": 0.29133858267716534,
                    "duration": 0.09259249999999497
                },
                {
                    "name": "D4",
                    "midi": 62,
                    "time": 87.03694999999985,
                    "velocity": 0.28346456692913385,
                    "duration": 0.09259249999999497
                },
                {
                    "name": "G4",
                    "midi": 67,
                    "time": 87.22213499999984,
                    "velocity": 0.28346456692913385,
                    "duration": 0.09259249999999497
                },
                {
                    "name": "D3",
                    "midi": 50,
                    "time": 87.40731999999983,
                    "velocity": 0.25984251968503935,
                    "duration": 0.06172833333333472
                },
                {
                    "name": "A3",
                    "midi": 57,
                    "time": 87.46904833333316,
                    "velocity": 0.25984251968503935,
                    "duration": 0.06172833333333472
                },
                {
                    "name": "C#4",
                    "midi": 61,
                    "time": 87.5307766666665,
                    "velocity": 0.25984251968503935,
                    "duration": 0.06172833333333472
                },
                {
                    "name": "G4",
                    "midi": 67,
                    "time": 87.77768999999984,
                    "velocity": 0.29133858267716534,
                    "duration": 0.3703699999999941
                },
                {
                    "name": "D3",
                    "midi": 50,
                    "time": 88.14805999999983,
                    "velocity": 0.2755905511811024,
                    "duration": 0.09259249999999497
                },
                {
                    "name": "A3",
                    "midi": 57,
                    "time": 88.33324499999982,
                    "velocity": 0.29133858267716534,
                    "duration": 0.09259249999999497
                },
                {
                    "name": "D4",
                    "midi": 62,
                    "time": 88.51842999999981,
                    "velocity": 0.31496062992125984,
                    "duration": 0.09259249999999497
                },
                {
                    "name": "A4",
                    "midi": 69,
                    "time": 88.7036149999998,
                    "velocity": 0.33070866141732286,
                    "duration": 0.09259249999999497
                },
                {
                    "name": "D5",
                    "midi": 74,
                    "time": 88.88879999999979,
                    "velocity": 0.36220472440944884,
                    "duration": 0.09259249999999497
                },
                {
                    "name": "A4",
                    "midi": 69,
                    "time": 89.07398499999978,
                    "velocity": 0.33858267716535434,
                    "duration": 0.09259249999999497
                },
                {
                    "name": "D4",
                    "midi": 62,
                    "time": 89.25916999999977,
                    "velocity": 0.33858267716535434,
                    "duration": 0.09259249999999497
                },
                {
                    "name": "A4",
                    "midi": 69,
                    "time": 89.44435499999976,
                    "velocity": 0.33858267716535434,
                    "duration": 0.09259249999999497
                },
                {
                    "name": "D4",
                    "midi": 62,
                    "time": 89.62953999999975,
                    "velocity": 0.33858267716535434,
                    "duration": 0.09259249999999497
                },
                {
                    "name": "A3",
                    "midi": 57,
                    "time": 89.81472499999974,
                    "velocity": 0.33858267716535434,
                    "duration": 0.09259249999999497
                },
                {
                    "name": "D4",
                    "midi": 62,
                    "time": 89.99990999999973,
                    "velocity": 0.33070866141732286,
                    "duration": 0.09259249999999497
                },
                {
                    "name": "A3",
                    "midi": 57,
                    "time": 90.18509499999972,
                    "velocity": 0.3228346456692913,
                    "duration": 0.09259249999999497
                },
                {
                    "name": "D3",
                    "midi": 50,
                    "time": 90.37027999999971,
                    "velocity": 0.33070866141732286,
                    "duration": 0.09259249999999497
                },
                {
                    "name": "A3",
                    "midi": 57,
                    "time": 90.5554649999997,
                    "velocity": 0.31496062992125984,
                    "duration": 0.09259249999999497
                },
                {
                    "name": "D3",
                    "midi": 50,
                    "time": 90.74064999999969,
                    "velocity": 0.33070866141732286,
                    "duration": 0.09259249999999497
                },
                {
                    "name": "A2",
                    "midi": 45,
                    "time": 90.92583499999968,
                    "velocity": 0.3228346456692913,
                    "duration": 0.09259249999999497
                },
                {
                    "name": "D2",
                    "midi": 38,
                    "time": 91.11101999999967,
                    "velocity": 0.3228346456692913,
                    "duration": 0.09259249999999497
                },
                {
                    "name": "A2",
                    "midi": 45,
                    "time": 91.29620499999966,
                    "velocity": 0.2440944881889764,
                    "duration": 0.09259249999999497
                },
                {
                    "name": "D2",
                    "midi": 38,
                    "time": 91.48138999999965,
                    "velocity": 0.25196850393700787,
                    "duration": 0.09259249999999497
                },
                {
                    "name": "A2",
                    "midi": 45,
                    "time": 91.66657499999964,
                    "velocity": 0.2440944881889764,
                    "duration": 0.09259249999999497
                },
                {
                    "name": "D2",
                    "midi": 38,
                    "time": 91.85175999999963,
                    "velocity": 0.25196850393700787,
                    "duration": 0.09259249999999497
                },
                {
                    "name": "A2",
                    "midi": 45,
                    "time": 92.03694499999962,
                    "velocity": 0.2440944881889764,
                    "duration": 0.09259249999999497
                },
                {
                    "name": "D2",
                    "midi": 38,
                    "time": 92.22212999999961,
                    "velocity": 0.25196850393700787,
                    "duration": 0.09259249999999497
                },
                {
                    "name": "A2",
                    "midi": 45,
                    "time": 92.4073149999996,
                    "velocity": 0.2440944881889764,
                    "duration": 0.09259249999999497
                },
                {
                    "name": "D2",
                    "midi": 38,
                    "time": 92.59249999999959,
                    "velocity": 0.25196850393700787,
                    "duration": 0.09259249999999497
                },
                {
                    "name": "A2",
                    "midi": 45,
                    "time": 92.77768499999958,
                    "velocity": 0.2440944881889764,
                    "duration": 0.09259249999999497
                },
                {
                    "name": "D2",
                    "midi": 38,
                    "time": 92.96286999999957,
                    "velocity": 0.25196850393700787,
                    "duration": 0.09259249999999497
                },
                {
                    "name": "A2",
                    "midi": 45,
                    "time": 93.14805499999956,
                    "velocity": 0.2440944881889764,
                    "duration": 0.09259249999999497
                },
                {
                    "name": "D2",
                    "midi": 38,
                    "time": 93.33323999999955,
                    "velocity": 0.25196850393700787,
                    "duration": 0.09259249999999497
                },
                {
                    "name": "A2",
                    "midi": 45,
                    "time": 93.51842499999954,
                    "velocity": 0.2440944881889764,
                    "duration": 0.09259249999999497
                },
                {
                    "name": "D2",
                    "midi": 38,
                    "time": 93.70360999999953,
                    "velocity": 0.25196850393700787,
                    "duration": 0.09259249999999497
                },
                {
                    "name": "A2",
                    "midi": 45,
                    "time": 93.88879499999952,
                    "velocity": 0.2440944881889764,
                    "duration": 0.09259249999999497
                },
                {
                    "name": "D2",
                    "midi": 38,
                    "time": 94.07397999999951,
                    "velocity": 0.25196850393700787,
                    "duration": 0.09259249999999497
                },
                {
                    "name": "A2",
                    "midi": 45,
                    "time": 94.2591649999995,
                    "velocity": 0.2283464566929134,
                    "duration": 0.09259249999999497
                },
                {
                    "name": "D2",
                    "midi": 38,
                    "time": 94.44434999999949,
                    "velocity": 0.25196850393700787,
                    "duration": 0.09259249999999497
                },
                {
                    "name": "A2",
                    "midi": 45,
                    "time": 94.62953499999948,
                    "velocity": 0.2283464566929134,
                    "duration": 0.09259249999999497
                },
                {
                    "name": "D2",
                    "midi": 38,
                    "time": 94.81471999999947,
                    "velocity": 0.25196850393700787,
                    "duration": 0.09259249999999497
                },
                {
                    "name": "A2",
                    "midi": 45,
                    "time": 94.99990499999946,
                    "velocity": 0.2440944881889764,
                    "duration": 0.09259249999999497
                },
                {
                    "name": "D2",
                    "midi": 38,
                    "time": 95.18508999999945,
                    "velocity": 0.25196850393700787,
                    "duration": 0.09259249999999497
                },
                {
                    "name": "A2",
                    "midi": 45,
                    "time": 95.37027499999944,
                    "velocity": 0.2440944881889764,
                    "duration": 0.09259249999999497
                },
                {
                    "name": "D2",
                    "midi": 38,
                    "time": 95.55545999999943,
                    "velocity": 0.25196850393700787,
                    "duration": 0.09259249999999497
                },
                {
                    "name": "A2",
                    "midi": 45,
                    "time": 95.74064499999942,
                    "velocity": 0.2440944881889764,
                    "duration": 0.09259249999999497
                },
                {
                    "name": "D2",
                    "midi": 38,
                    "time": 95.92582999999941,
                    "velocity": 0.25196850393700787,
                    "duration": 0.09259249999999497
                },
                {
                    "name": "A2",
                    "midi": 45,
                    "time": 96.1110149999994,
                    "velocity": 0.2440944881889764,
                    "duration": 0.09259249999999497
                },
                {
                    "name": "D2",
                    "midi": 38,
                    "time": 96.29619999999939,
                    "velocity": 0.25196850393700787,
                    "duration": 0.09259249999999497
                },
                {
                    "name": "A2",
                    "midi": 45,
                    "time": 96.48138499999938,
                    "velocity": 0.2440944881889764,
                    "duration": 0.09259249999999497
                },
                {
                    "name": "D2",
                    "midi": 38,
                    "time": 96.66656999999937,
                    "velocity": 0.25196850393700787,
                    "duration": 0.09259249999999497
                },
                {
                    "name": "A2",
                    "midi": 45,
                    "time": 96.85175499999936,
                    "velocity": 0.2440944881889764,
                    "duration": 0.09259249999999497
                },
                {
                    "name": "D2",
                    "midi": 38,
                    "time": 97.03693999999935,
                    "velocity": 0.25196850393700787,
                    "duration": 0.09259249999999497
                },
                {
                    "name": "A2",
                    "midi": 45,
                    "time": 97.22212499999934,
                    "velocity": 0.2283464566929134,
                    "duration": 0.09259249999999497
                },
                {
                    "name": "D2",
                    "midi": 38,
                    "time": 97.40730999999933,
                    "velocity": 0.25196850393700787,
                    "duration": 0.09259249999999497
                },
                {
                    "name": "A2",
                    "midi": 45,
                    "time": 97.59249499999932,
                    "velocity": 0.2283464566929134,
                    "duration": 0.09259249999999497
                },
                {
                    "name": "D2",
                    "midi": 38,
                    "time": 97.77767999999931,
                    "velocity": 0.25196850393700787,
                    "duration": 0.09259249999999497
                },
                {
                    "name": "A2",
                    "midi": 45,
                    "time": 97.9628649999993,
                    "velocity": 0.2440944881889764,
                    "duration": 0.09259249999999497
                },
                {
                    "name": "D2",
                    "midi": 38,
                    "time": 98.14804999999929,
                    "velocity": 0.25196850393700787,
                    "duration": 0.09259249999999497
                },
                {
                    "name": "A2",
                    "midi": 45,
                    "time": 98.33323499999928,
                    "velocity": 0.2440944881889764,
                    "duration": 0.09259249999999497
                },
                {
                    "name": "F4",
                    "midi": 65,
                    "time": 98.70360499999927,
                    "velocity": 0.25196850393700787,
                    "duration": 0.09259249999999497
                },
                {
                    "name": "A#3",
                    "midi": 58,
                    "time": 98.70360499999927,
                    "velocity": 0.25196850393700787,
                    "duration": 0.09259249999999497
                },
                {
                    "name": "C4",
                    "midi": 60,
                    "time": 99.07397499999927,
                    "velocity": 0.25196850393700787,
                    "duration": 0.09259249999999497
                },
                {
                    "name": "F3",
                    "midi": 53,
                    "time": 99.07397499999927,
                    "velocity": 0.25196850393700787,
                    "duration": 0.09259249999999497
                },
                {
                    "name": "D4",
                    "midi": 62,
                    "time": 99.44434499999926,
                    "velocity": 0.25196850393700787,
                    "duration": 0.09259249999999497
                },
                {
                    "name": "G3",
                    "midi": 55,
                    "time": 99.44434499999926,
                    "velocity": 0.25196850393700787,
                    "duration": 0.09259249999999497
                },
                {
                    "name": "D3",
                    "midi": 50,
                    "time": 99.81471499999925,
                    "velocity": 0.25196850393700787,
                    "duration": 0.09259249999999497
                },
                {
                    "name": "A3",
                    "midi": 57,
                    "time": 99.81471499999925,
                    "velocity": 0.25196850393700787,
                    "duration": 0.09259249999999497
                },
                {
                    "name": "D#3",
                    "midi": 51,
                    "time": 100.18508499999925,
                    "velocity": 0.25196850393700787,
                    "duration": 0.09259249999999497
                },
                {
                    "name": "A#3",
                    "midi": 58,
                    "time": 100.18508499999925,
                    "velocity": 0.25196850393700787,
                    "duration": 0.09259249999999497
                },
                {
                    "name": "A#2",
                    "midi": 46,
                    "time": 100.55545499999924,
                    "velocity": 0.25196850393700787,
                    "duration": 0.09259249999999497
                },
                {
                    "name": "F3",
                    "midi": 53,
                    "time": 100.55545499999924,
                    "velocity": 0.25196850393700787,
                    "duration": 0.09259249999999497
                },
                {
                    "name": "A2",
                    "midi": 45,
                    "time": 100.74063999999923,
                    "velocity": 0.29133858267716534,
                    "duration": 0.09259249999999497
                },
                {
                    "name": "E3",
                    "midi": 52,
                    "time": 100.92582499999922,
                    "velocity": 0.25196850393700787,
                    "duration": 0.09259249999999497
                },
                {
                    "name": "A2",
                    "midi": 45,
                    "time": 101.11100999999921,
                    "velocity": 0.2992125984251969,
                    "duration": 0.09259249999999497
                },
                {
                    "name": "E3",
                    "midi": 52,
                    "time": 101.2961949999992,
                    "velocity": 0.25196850393700787,
                    "duration": 0.09259249999999497
                },
                {
                    "name": "D#2",
                    "midi": 39,
                    "time": 101.48137999999919,
                    "velocity": 0.29133858267716534,
                    "duration": 0.09259249999999497
                },
                {
                    "name": "A#2",
                    "midi": 46,
                    "time": 101.66656499999918,
                    "velocity": 0.25196850393700787,
                    "duration": 0.09259249999999497
                },
                {
                    "name": "D#2",
                    "midi": 39,
                    "time": 101.85174999999917,
                    "velocity": 0.29133858267716534,
                    "duration": 0.09259249999999497
                },
                {
                    "name": "A#2",
                    "midi": 46,
                    "time": 102.03693499999916,
                    "velocity": 0.25196850393700787,
                    "duration": 0.09259249999999497
                },
                {
                    "name": "A2",
                    "midi": 45,
                    "time": 102.22211999999915,
                    "velocity": 0.29133858267716534,
                    "duration": 0.09259249999999497
                },
                {
                    "name": "E3",
                    "midi": 52,
                    "time": 102.40730499999914,
                    "velocity": 0.25196850393700787,
                    "duration": 0.09259249999999497
                },
                {
                    "name": "A2",
                    "midi": 45,
                    "time": 102.59248999999913,
                    "velocity": 0.2992125984251969,
                    "duration": 0.09259249999999497
                },
                {
                    "name": "E3",
                    "midi": 52,
                    "time": 102.77767499999912,
                    "velocity": 0.25196850393700787,
                    "duration": 0.09259249999999497
                },
                {
                    "name": "D#2",
                    "midi": 39,
                    "time": 102.96285999999911,
                    "velocity": 0.29133858267716534,
                    "duration": 0.09259249999999497
                },
                {
                    "name": "A#2",
                    "midi": 46,
                    "time": 103.1480449999991,
                    "velocity": 0.25196850393700787,
                    "duration": 0.09259249999999497
                },
                {
                    "name": "D#2",
                    "midi": 39,
                    "time": 103.33322999999909,
                    "velocity": 0.29133858267716534,
                    "duration": 0.09259249999999497
                },
                {
                    "name": "A#2",
                    "midi": 46,
                    "time": 103.51841499999908,
                    "velocity": 0.25196850393700787,
                    "duration": 0.09259249999999497
                },
                {
                    "name": "A2",
                    "midi": 45,
                    "time": 103.70359999999907,
                    "velocity": 0.29133858267716534,
                    "duration": 0.09259249999999497
                },
                {
                    "name": "E3",
                    "midi": 52,
                    "time": 103.88878499999906,
                    "velocity": 0.25196850393700787,
                    "duration": 0.09259249999999497
                },
                {
                    "name": "D#2",
                    "midi": 39,
                    "time": 104.07396999999905,
                    "velocity": 0.2992125984251969,
                    "duration": 0.09259249999999497
                },
                {
                    "name": "A#2",
                    "midi": 46,
                    "time": 104.25915499999904,
                    "velocity": 0.2440944881889764,
                    "duration": 0.09259249999999497
                },
                {
                    "name": "A2",
                    "midi": 45,
                    "time": 104.44433999999903,
                    "velocity": 0.2677165354330709,
                    "duration": 0.09259249999999497
                },
                {
                    "name": "E3",
                    "midi": 52,
                    "time": 104.62952499999902,
                    "velocity": 0.25196850393700787,
                    "duration": 0.09259249999999497
                },
                {
                    "name": "D#2",
                    "midi": 39,
                    "time": 104.81470999999901,
                    "velocity": 0.2677165354330709,
                    "duration": 0.09259249999999497
                },
                {
                    "name": "A#2",
                    "midi": 46,
                    "time": 104.999894999999,
                    "velocity": 0.2283464566929134,
                    "duration": 0.09259249999999497
                },
                {
                    "name": "A2",
                    "midi": 45,
                    "time": 105.18507999999899,
                    "velocity": 0.2755905511811024,
                    "duration": 0.09259249999999497
                },
                {
                    "name": "E3",
                    "midi": 52,
                    "time": 105.37026499999898,
                    "velocity": 0.25196850393700787,
                    "duration": 0.09259249999999497
                },
                {
                    "name": "D#2",
                    "midi": 39,
                    "time": 105.55544999999897,
                    "velocity": 0.2677165354330709,
                    "duration": 0.09259249999999497
                },
                {
                    "name": "A#2",
                    "midi": 46,
                    "time": 105.74063499999896,
                    "velocity": 0.2204724409448819,
                    "duration": 0.09259249999999497
                },
                {
                    "name": "A2",
                    "midi": 45,
                    "time": 105.92581999999895,
                    "velocity": 0.25196850393700787,
                    "duration": 0.09259249999999497
                },
                {
                    "name": "E3",
                    "midi": 52,
                    "time": 106.11100499999894,
                    "velocity": 0.2283464566929134,
                    "duration": 0.09259249999999497
                },
                {
                    "name": "D#2",
                    "midi": 39,
                    "time": 106.29618999999893,
                    "velocity": 0.25196850393700787,
                    "duration": 0.09259249999999497
                },
                {
                    "name": "A#2",
                    "midi": 46,
                    "time": 106.48137499999892,
                    "velocity": 0.2125984251968504,
                    "duration": 0.09259249999999497
                },
                {
                    "name": "A2",
                    "midi": 45,
                    "time": 106.66655999999891,
                    "velocity": 0.36220472440944884,
                    "duration": 0.09259249999999497
                },
                {
                    "name": "E3",
                    "midi": 52,
                    "time": 106.8517449999989,
                    "velocity": 0.3228346456692913,
                    "duration": 0.09259249999999497
                },
                {
                    "name": "A#2",
                    "midi": 46,
                    "time": 107.03692999999889,
                    "velocity": 0.36220472440944884,
                    "duration": 0.09259249999999497
                },
                {
                    "name": "E3",
                    "midi": 52,
                    "time": 107.22211499999888,
                    "velocity": 0.3228346456692913,
                    "duration": 0.09259249999999497
                },
                {
                    "name": "G#2",
                    "midi": 44,
                    "time": 107.40729999999887,
                    "velocity": 0.3464566929133858,
                    "duration": 0.09259249999999497
                },
                {
                    "name": "E3",
                    "midi": 52,
                    "time": 107.59248499999886,
                    "velocity": 0.33070866141732286,
                    "duration": 0.09259249999999497
                },
                {
                    "name": "A2",
                    "midi": 45,
                    "time": 107.77766999999885,
                    "velocity": 0.36220472440944884,
                    "duration": 0.09259249999999497
                },
                {
                    "name": "E3",
                    "midi": 52,
                    "time": 107.96285499999884,
                    "velocity": 0.33858267716535434,
                    "duration": 0.09259249999999497
                },
                {
                    "name": "A#2",
                    "midi": 46,
                    "time": 108.14803999999883,
                    "velocity": 0.3779527559055118,
                    "duration": 0.09259249999999497
                },
                {
                    "name": "E3",
                    "midi": 52,
                    "time": 108.33322499999882,
                    "velocity": 0.33858267716535434,
                    "duration": 0.09259249999999497
                },
                {
                    "name": "B2",
                    "midi": 47,
                    "time": 108.51840999999881,
                    "velocity": 0.4015748031496063,
                    "duration": 0.09259249999999497
                },
                {
                    "name": "E3",
                    "midi": 52,
                    "time": 108.7035949999988,
                    "velocity": 0.3543307086614173,
                    "duration": 0.09259249999999497
                },
                {
                    "name": "C3",
                    "midi": 48,
                    "time": 108.88877999999879,
                    "velocity": 0.41732283464566927,
                    "duration": 0.09259249999999497
                },
                {
                    "name": "E3",
                    "midi": 52,
                    "time": 109.07396499999878,
                    "velocity": 0.3858267716535433,
                    "duration": 0.09259249999999497
                },
                {
                    "name": "B2",
                    "midi": 47,
                    "time": 109.25914999999877,
                    "velocity": 0.44881889763779526,
                    "duration": 0.09259249999999497
                },
                {
                    "name": "E3",
                    "midi": 52,
                    "time": 109.44433499999876,
                    "velocity": 0.3937007874015748,
                    "duration": 0.09259249999999497
                },
                {
                    "name": "A#2",
                    "midi": 46,
                    "time": 109.62951999999875,
                    "velocity": 0.4566929133858268,
                    "duration": 0.09259249999999497
                },
                {
                    "name": "E3",
                    "midi": 52,
                    "time": 109.81470499999874,
                    "velocity": 0.41732283464566927,
                    "duration": 0.09259249999999497
                },
                {
                    "name": "A2",
                    "midi": 45,
                    "time": 109.99988999999873,
                    "velocity": 0.47244094488188976,
                    "duration": 0.09259249999999497
                },
                {
                    "name": "E3",
                    "midi": 52,
                    "time": 110.18507499999872,
                    "velocity": 0.4251968503937008,
                    "duration": 0.09259249999999497
                },
                {
                    "name": "G#2",
                    "midi": 44,
                    "time": 110.37025999999871,
                    "velocity": 0.49606299212598426,
                    "duration": 0.09259249999999497
                },
                {
                    "name": "E3",
                    "midi": 52,
                    "time": 110.5554449999987,
                    "velocity": 0.4566929133858268,
                    "duration": 0.09259249999999497
                },
                {
                    "name": "G2",
                    "midi": 43,
                    "time": 110.74062999999869,
                    "velocity": 0.5196850393700787,
                    "duration": 0.09259249999999497
                },
                {
                    "name": "C#3",
                    "midi": 49,
                    "time": 110.92581499999868,
                    "velocity": 0.47244094488188976,
                    "duration": 0.09259249999999497
                },
                {
                    "name": "F#2",
                    "midi": 42,
                    "time": 111.11099999999867,
                    "velocity": 0.5433070866141733,
                    "duration": 0.09259249999999497
                },
                {
                    "name": "C#3",
                    "midi": 49,
                    "time": 111.29618499999866,
                    "velocity": 0.5039370078740157,
                    "duration": 0.09259249999999497
                },
                {
                    "name": "F2",
                    "midi": 41,
                    "time": 111.48136999999865,
                    "velocity": 0.6062992125984252,
                    "duration": 0.09259249999999497
                },
                {
                    "name": "C#3",
                    "midi": 49,
                    "time": 111.66655499999864,
                    "velocity": 0.5433070866141733,
                    "duration": 0.09259249999999497
                },
                {
                    "name": "E2",
                    "midi": 40,
                    "time": 111.85173999999863,
                    "velocity": 0.6535433070866141,
                    "duration": 0.09259249999999497
                },
                {
                    "name": "C#3",
                    "midi": 49,
                    "time": 112.03692499999862,
                    "velocity": 0.5984251968503937,
                    "duration": 0.09259249999999497
                },
                {
                    "name": "D#2",
                    "midi": 39,
                    "time": 112.22210999999861,
                    "velocity": 0.6771653543307087,
                    "duration": 0.09259249999999497
                },
                {
                    "name": "C#3",
                    "midi": 49,
                    "time": 112.4072949999986,
                    "velocity": 0.6220472440944882,
                    "duration": 0.09259249999999497
                },
                {
                    "name": "D2",
                    "midi": 38,
                    "time": 112.59247999999859,
                    "velocity": 0.6850393700787402,
                    "duration": 0.09259249999999497
                },
                {
                    "name": "D3",
                    "midi": 50,
                    "time": 112.59247999999859,
                    "velocity": 0.8031496062992126,
                    "duration": 0.09259249999999497
                },
                {
                    "name": "A1",
                    "midi": 33,
                    "time": 112.77766499999858,
                    "velocity": 0.5354330708661418,
                    "duration": 0.09259249999999497
                },
                {
                    "name": "A2",
                    "midi": 45,
                    "time": 112.77766499999858,
                    "velocity": 0.6299212598425197,
                    "duration": 0.09259249999999497
                },
                {
                    "name": "D2",
                    "midi": 38,
                    "time": 112.96284999999857,
                    "velocity": 0.6299212598425197,
                    "duration": 0.09259249999999497
                },
                {
                    "name": "D3",
                    "midi": 50,
                    "time": 112.96284999999857,
                    "velocity": 0.7401574803149606,
                    "duration": 0.09259249999999497
                },
                {
                    "name": "A1",
                    "midi": 33,
                    "time": 113.14803499999856,
                    "velocity": 0.5354330708661418,
                    "duration": 0.09259249999999497
                },
                {
                    "name": "A2",
                    "midi": 45,
                    "time": 113.14803499999856,
                    "velocity": 0.6299212598425197,
                    "duration": 0.09259249999999497
                },
                {
                    "name": "D2",
                    "midi": 38,
                    "time": 113.33321999999855,
                    "velocity": 0.6299212598425197,
                    "duration": 0.09259249999999497
                },
                {
                    "name": "D3",
                    "midi": 50,
                    "time": 113.33321999999855,
                    "velocity": 0.7401574803149606,
                    "duration": 0.09259249999999497
                },
                {
                    "name": "A1",
                    "midi": 33,
                    "time": 113.51840499999854,
                    "velocity": 0.5354330708661418,
                    "duration": 0.09259249999999497
                },
                {
                    "name": "A2",
                    "midi": 45,
                    "time": 113.51840499999854,
                    "velocity": 0.6299212598425197,
                    "duration": 0.09259249999999497
                },
                {
                    "name": "D2",
                    "midi": 38,
                    "time": 113.70358999999853,
                    "velocity": 0.6299212598425197,
                    "duration": 0.09259249999999497
                },
                {
                    "name": "D3",
                    "midi": 50,
                    "time": 113.70358999999853,
                    "velocity": 0.7401574803149606,
                    "duration": 0.09259249999999497
                },
                {
                    "name": "A2",
                    "midi": 45,
                    "time": 113.88877499999852,
                    "velocity": 0.6299212598425197,
                    "duration": 0.09259249999999497
                },
                {
                    "name": "A1",
                    "midi": 33,
                    "time": 113.88877499999852,
                    "velocity": 0.5354330708661418,
                    "duration": 0.09259249999999497
                },
                {
                    "name": "D2",
                    "midi": 38,
                    "time": 114.07395999999851,
                    "velocity": 0.5590551181102362,
                    "duration": 0.09259249999999497
                },
                {
                    "name": "D3",
                    "midi": 50,
                    "time": 114.07395999999851,
                    "velocity": 0.6614173228346457,
                    "duration": 0.09259249999999497
                },
                {
                    "name": "A1",
                    "midi": 33,
                    "time": 114.2591449999985,
                    "velocity": 0.47244094488188976,
                    "duration": 0.09259249999999497
                },
                {
                    "name": "A2",
                    "midi": 45,
                    "time": 114.2591449999985,
                    "velocity": 0.5590551181102362,
                    "duration": 0.09259249999999497
                },
                {
                    "name": "D2",
                    "midi": 38,
                    "time": 114.44432999999849,
                    "velocity": 0.5590551181102362,
                    "duration": 0.09259249999999497
                },
                {
                    "name": "D3",
                    "midi": 50,
                    "time": 114.44432999999849,
                    "velocity": 0.6614173228346457,
                    "duration": 0.09259249999999497
                },
                {
                    "name": "A2",
                    "midi": 45,
                    "time": 114.62951499999848,
                    "velocity": 0.5590551181102362,
                    "duration": 0.09259249999999497
                },
                {
                    "name": "A1",
                    "midi": 33,
                    "time": 114.62951499999848,
                    "velocity": 0.47244094488188976,
                    "duration": 0.09259249999999497
                },
                {
                    "name": "D2",
                    "midi": 38,
                    "time": 114.81469999999847,
                    "velocity": 0.5590551181102362,
                    "duration": 0.09259249999999497
                },
                {
                    "name": "D3",
                    "midi": 50,
                    "time": 114.81469999999847,
                    "velocity": 0.6614173228346457,
                    "duration": 0.09259249999999497
                },
                {
                    "name": "A1",
                    "midi": 33,
                    "time": 114.99988499999846,
                    "velocity": 0.47244094488188976,
                    "duration": 0.09259249999999497
                },
                {
                    "name": "A2",
                    "midi": 45,
                    "time": 114.99988499999846,
                    "velocity": 0.5590551181102362,
                    "duration": 0.09259249999999497
                },
                {
                    "name": "D2",
                    "midi": 38,
                    "time": 115.18506999999845,
                    "velocity": 0.5590551181102362,
                    "duration": 0.09259249999999497
                },
                {
                    "name": "D3",
                    "midi": 50,
                    "time": 115.18506999999845,
                    "velocity": 0.6614173228346457,
                    "duration": 0.09259249999999497
                },
                {
                    "name": "A2",
                    "midi": 45,
                    "time": 115.37025499999844,
                    "velocity": 0.5590551181102362,
                    "duration": 0.09259249999999497
                },
                {
                    "name": "A1",
                    "midi": 33,
                    "time": 115.37025499999844,
                    "velocity": 0.47244094488188976,
                    "duration": 0.09259249999999497
                },
                {
                    "name": "D2",
                    "midi": 38,
                    "time": 115.55543999999843,
                    "velocity": 0.5590551181102362,
                    "duration": 0.09259249999999497
                },
                {
                    "name": "D3",
                    "midi": 50,
                    "time": 115.55543999999843,
                    "velocity": 0.6614173228346457,
                    "duration": 0.09259249999999497
                },
                {
                    "name": "A1",
                    "midi": 33,
                    "time": 115.74062499999842,
                    "velocity": 0.47244094488188976,
                    "duration": 0.09259249999999497
                },
                {
                    "name": "A2",
                    "midi": 45,
                    "time": 115.74062499999842,
                    "velocity": 0.5590551181102362,
                    "duration": 0.09259249999999497
                },
                {
                    "name": "D2",
                    "midi": 38,
                    "time": 115.9258099999984,
                    "velocity": 0.5590551181102362,
                    "duration": 0.09259249999999497
                },
                {
                    "name": "D3",
                    "midi": 50,
                    "time": 115.9258099999984,
                    "velocity": 0.6614173228346457,
                    "duration": 0.09259249999999497
                },
                {
                    "name": "A2",
                    "midi": 45,
                    "time": 116.1109949999984,
                    "velocity": 0.5590551181102362,
                    "duration": 0.09259249999999497
                },
                {
                    "name": "A1",
                    "midi": 33,
                    "time": 116.1109949999984,
                    "velocity": 0.47244094488188976,
                    "duration": 0.09259249999999497
                },
                {
                    "name": "D2",
                    "midi": 38,
                    "time": 116.29617999999839,
                    "velocity": 0.5590551181102362,
                    "duration": 0.09259249999999497
                },
                {
                    "name": "D3",
                    "midi": 50,
                    "time": 116.29617999999839,
                    "velocity": 0.6614173228346457,
                    "duration": 0.09259249999999497
                },
                {
                    "name": "A1",
                    "midi": 33,
                    "time": 116.48136499999838,
                    "velocity": 0.47244094488188976,
                    "duration": 0.09259249999999497
                },
                {
                    "name": "A2",
                    "midi": 45,
                    "time": 116.48136499999838,
                    "velocity": 0.5590551181102362,
                    "duration": 0.09259249999999497
                },
                {
                    "name": "D2",
                    "midi": 38,
                    "time": 116.66654999999837,
                    "velocity": 0.5590551181102362,
                    "duration": 0.09259249999999497
                },
                {
                    "name": "D3",
                    "midi": 50,
                    "time": 116.66654999999837,
                    "velocity": 0.6614173228346457,
                    "duration": 0.09259249999999497
                },
                {
                    "name": "A2",
                    "midi": 45,
                    "time": 116.85173499999836,
                    "velocity": 0.5590551181102362,
                    "duration": 0.09259249999999497
                },
                {
                    "name": "A1",
                    "midi": 33,
                    "time": 116.85173499999836,
                    "velocity": 0.47244094488188976,
                    "duration": 0.09259249999999497
                },
                {
                    "name": "D2",
                    "midi": 38,
                    "time": 117.03691999999835,
                    "velocity": 0.5590551181102362,
                    "duration": 0.09259249999999497
                },
                {
                    "name": "D3",
                    "midi": 50,
                    "time": 117.03691999999835,
                    "velocity": 0.6614173228346457,
                    "duration": 0.09259249999999497
                },
                {
                    "name": "A1",
                    "midi": 33,
                    "time": 117.22210499999834,
                    "velocity": 0.47244094488188976,
                    "duration": 0.09259249999999497
                },
                {
                    "name": "A2",
                    "midi": 45,
                    "time": 117.22210499999834,
                    "velocity": 0.5590551181102362,
                    "duration": 0.09259249999999497
                },
                {
                    "name": "D2",
                    "midi": 38,
                    "time": 117.40728999999833,
                    "velocity": 0.5590551181102362,
                    "duration": 0.09259249999999497
                },
                {
                    "name": "D3",
                    "midi": 50,
                    "time": 117.40728999999833,
                    "velocity": 0.6614173228346457,
                    "duration": 0.09259249999999497
                },
                {
                    "name": "A2",
                    "midi": 45,
                    "time": 117.59247499999832,
                    "velocity": 0.5590551181102362,
                    "duration": 0.09259249999999497
                },
                {
                    "name": "A1",
                    "midi": 33,
                    "time": 117.59247499999832,
                    "velocity": 0.47244094488188976,
                    "duration": 0.09259249999999497
                },
                {
                    "name": "D2",
                    "midi": 38,
                    "time": 117.7776599999983,
                    "velocity": 0.5590551181102362,
                    "duration": 0.09259249999999497
                },
                {
                    "name": "D3",
                    "midi": 50,
                    "time": 117.7776599999983,
                    "velocity": 0.6614173228346457,
                    "duration": 0.09259249999999497
                },
                {
                    "name": "A1",
                    "midi": 33,
                    "time": 117.9628449999983,
                    "velocity": 0.47244094488188976,
                    "duration": 0.09259249999999497
                },
                {
                    "name": "A2",
                    "midi": 45,
                    "time": 117.9628449999983,
                    "velocity": 0.5590551181102362,
                    "duration": 0.09259249999999497
                },
                {
                    "name": "D2",
                    "midi": 38,
                    "time": 118.14802999999829,
                    "velocity": 0.5590551181102362,
                    "duration": 0.09259249999999497
                },
                {
                    "name": "D3",
                    "midi": 50,
                    "time": 118.14802999999829,
                    "velocity": 0.6614173228346457,
                    "duration": 0.09259249999999497
                },
                {
                    "name": "A2",
                    "midi": 45,
                    "time": 118.33321499999828,
                    "velocity": 0.5590551181102362,
                    "duration": 0.09259249999999497
                },
                {
                    "name": "A1",
                    "midi": 33,
                    "time": 118.33321499999828,
                    "velocity": 0.47244094488188976,
                    "duration": 0.09259249999999497
                },
                {
                    "name": "D2",
                    "midi": 38,
                    "time": 118.51839999999827,
                    "velocity": 0.5590551181102362,
                    "duration": 0.09259249999999497
                },
                {
                    "name": "D3",
                    "midi": 50,
                    "time": 118.51839999999827,
                    "velocity": 0.6614173228346457,
                    "duration": 0.09259249999999497
                },
                {
                    "name": "A1",
                    "midi": 33,
                    "time": 118.70358499999826,
                    "velocity": 0.47244094488188976,
                    "duration": 0.09259249999999497
                },
                {
                    "name": "A2",
                    "midi": 45,
                    "time": 118.70358499999826,
                    "velocity": 0.5590551181102362,
                    "duration": 0.09259249999999497
                },
                {
                    "name": "D2",
                    "midi": 38,
                    "time": 118.88876999999825,
                    "velocity": 0.5590551181102362,
                    "duration": 0.09259249999999497
                },
                {
                    "name": "D3",
                    "midi": 50,
                    "time": 118.88876999999825,
                    "velocity": 0.6614173228346457,
                    "duration": 0.09259249999999497
                },
                {
                    "name": "A2",
                    "midi": 45,
                    "time": 119.07395499999824,
                    "velocity": 0.5590551181102362,
                    "duration": 0.09259249999999497
                },
                {
                    "name": "A1",
                    "midi": 33,
                    "time": 119.07395499999824,
                    "velocity": 0.47244094488188976,
                    "duration": 0.09259249999999497
                },
                {
                    "name": "D2",
                    "midi": 38,
                    "time": 119.25913999999823,
                    "velocity": 0.5590551181102362,
                    "duration": 0.09259249999999497
                },
                {
                    "name": "D3",
                    "midi": 50,
                    "time": 119.25913999999823,
                    "velocity": 0.6614173228346457,
                    "duration": 0.09259249999999497
                },
                {
                    "name": "A1",
                    "midi": 33,
                    "time": 119.44432499999822,
                    "velocity": 0.47244094488188976,
                    "duration": 0.09259249999999497
                },
                {
                    "name": "A2",
                    "midi": 45,
                    "time": 119.44432499999822,
                    "velocity": 0.5590551181102362,
                    "duration": 0.09259249999999497
                },
                {
                    "name": "D2",
                    "midi": 38,
                    "time": 119.6295099999982,
                    "velocity": 0.5590551181102362,
                    "duration": 0.09259249999999497
                },
                {
                    "name": "D3",
                    "midi": 50,
                    "time": 119.6295099999982,
                    "velocity": 0.6614173228346457,
                    "duration": 0.09259249999999497
                },
                {
                    "name": "A2",
                    "midi": 45,
                    "time": 119.8146949999982,
                    "velocity": 0.5590551181102362,
                    "duration": 0.09259249999999497
                },
                {
                    "name": "A1",
                    "midi": 33,
                    "time": 119.8146949999982,
                    "velocity": 0.47244094488188976,
                    "duration": 0.09259249999999497
                },
                {
                    "name": "F4",
                    "midi": 65,
                    "time": 119.99987999999819,
                    "velocity": 0.6614173228346457,
                    "duration": 0.09259249999999497
                },
                {
                    "name": "F3",
                    "midi": 53,
                    "time": 119.99987999999819,
                    "velocity": 0.5590551181102362,
                    "duration": 0.09259249999999497
                },
                {
                    "name": "D2",
                    "midi": 38,
                    "time": 120.18506499999818,
                    "velocity": 0.47244094488188976,
                    "duration": 0.09259249999999497
                },
                {
                    "name": "D3",
                    "midi": 50,
                    "time": 120.18506499999818,
                    "velocity": 0.5590551181102362,
                    "duration": 0.09259249999999497
                },
                {
                    "name": "E3",
                    "midi": 52,
                    "time": 120.37024999999817,
                    "velocity": 0.5590551181102362,
                    "duration": 0.09259249999999497
                },
                {
                    "name": "E4",
                    "midi": 64,
                    "time": 120.37024999999817,
                    "velocity": 0.6614173228346457,
                    "duration": 0.09259249999999497
                },
                {
                    "name": "D2",
                    "midi": 38,
                    "time": 120.55543499999816,
                    "velocity": 0.47244094488188976,
                    "duration": 0.09259249999999497
                },
                {
                    "name": "D3",
                    "midi": 50,
                    "time": 120.55543499999816,
                    "velocity": 0.5590551181102362,
                    "duration": 0.09259249999999497
                },
                {
                    "name": "D4",
                    "midi": 62,
                    "time": 120.74061999999815,
                    "velocity": 0.6614173228346457,
                    "duration": 0.09259249999999497
                },
                {
                    "name": "D3",
                    "midi": 50,
                    "time": 120.74061999999815,
                    "velocity": 0.5590551181102362,
                    "duration": 0.09259249999999497
                },
                {
                    "name": "D2",
                    "midi": 38,
                    "time": 120.92580499999814,
                    "velocity": 0.47244094488188976,
                    "duration": 0.09259249999999497
                },
                {
                    "name": "D3",
                    "midi": 50,
                    "time": 120.92580499999814,
                    "velocity": 0.5590551181102362,
                    "duration": 0.09259249999999497
                },
                {
                    "name": "C3",
                    "midi": 48,
                    "time": 121.11098999999813,
                    "velocity": 0.5590551181102362,
                    "duration": 0.09259249999999497
                },
                {
                    "name": "C4",
                    "midi": 60,
                    "time": 121.11098999999813,
                    "velocity": 0.6614173228346457,
                    "duration": 0.09259249999999497
                },
                {
                    "name": "D2",
                    "midi": 38,
                    "time": 121.29617499999812,
                    "velocity": 0.47244094488188976,
                    "duration": 0.09259249999999497
                },
                {
                    "name": "D3",
                    "midi": 50,
                    "time": 121.29617499999812,
                    "velocity": 0.5590551181102362,
                    "duration": 0.09259249999999497
                },
                {
                    "name": "A#2",
                    "midi": 46,
                    "time": 121.4813599999981,
                    "velocity": 0.5590551181102362,
                    "duration": 0.09259249999999497
                },
                {
                    "name": "A#3",
                    "midi": 58,
                    "time": 121.4813599999981,
                    "velocity": 0.6614173228346457,
                    "duration": 0.09259249999999497
                },
                {
                    "name": "D2",
                    "midi": 38,
                    "time": 121.6665449999981,
                    "velocity": 0.47244094488188976,
                    "duration": 0.09259249999999497
                },
                {
                    "name": "D3",
                    "midi": 50,
                    "time": 121.6665449999981,
                    "velocity": 0.5590551181102362,
                    "duration": 0.09259249999999497
                },
                {
                    "name": "A2",
                    "midi": 45,
                    "time": 121.85172999999808,
                    "velocity": 0.5590551181102362,
                    "duration": 0.09259249999999497
                },
                {
                    "name": "A3",
                    "midi": 57,
                    "time": 121.85172999999808,
                    "velocity": 0.6614173228346457,
                    "duration": 0.09259249999999497
                },
                {
                    "name": "D2",
                    "midi": 38,
                    "time": 122.03691499999807,
                    "velocity": 0.47244094488188976,
                    "duration": 0.09259249999999497
                },
                {
                    "name": "D3",
                    "midi": 50,
                    "time": 122.03691499999807,
                    "velocity": 0.5590551181102362,
                    "duration": 0.09259249999999497
                },
                {
                    "name": "G2",
                    "midi": 43,
                    "time": 122.22209999999806,
                    "velocity": 0.5590551181102362,
                    "duration": 0.09259249999999497
                },
                {
                    "name": "G3",
                    "midi": 55,
                    "time": 122.22209999999806,
                    "velocity": 0.6614173228346457,
                    "duration": 0.09259249999999497
                },
                {
                    "name": "D2",
                    "midi": 38,
                    "time": 122.40728499999805,
                    "velocity": 0.47244094488188976,
                    "duration": 0.09259249999999497
                },
                {
                    "name": "D3",
                    "midi": 50,
                    "time": 122.40728499999805,
                    "velocity": 0.5590551181102362,
                    "duration": 0.09259249999999497
                },
                {
                    "name": "G2",
                    "midi": 43,
                    "time": 122.59246999999804,
                    "velocity": 0.5590551181102362,
                    "duration": 0.09259249999999497
                },
                {
                    "name": "G3",
                    "midi": 55,
                    "time": 122.59246999999804,
                    "velocity": 0.6614173228346457,
                    "duration": 0.09259249999999497
                },
                {
                    "name": "D2",
                    "midi": 38,
                    "time": 122.77765499999803,
                    "velocity": 0.47244094488188976,
                    "duration": 0.09259249999999497
                },
                {
                    "name": "D3",
                    "midi": 50,
                    "time": 122.77765499999803,
                    "velocity": 0.5590551181102362,
                    "duration": 0.09259249999999497
                },
                {
                    "name": "D4",
                    "midi": 62,
                    "time": 122.96283999999802,
                    "velocity": 0.6614173228346457,
                    "duration": 0.09259249999999497
                },
                {
                    "name": "D3",
                    "midi": 50,
                    "time": 122.96283999999802,
                    "velocity": 0.5590551181102362,
                    "duration": 0.09259249999999497
                },
                {
                    "name": "D2",
                    "midi": 38,
                    "time": 123.14802499999801,
                    "velocity": 0.47244094488188976,
                    "duration": 0.09259249999999497
                },
                {
                    "name": "D3",
                    "midi": 50,
                    "time": 123.14802499999801,
                    "velocity": 0.5590551181102362,
                    "duration": 0.09259249999999497
                },
                {
                    "name": "C3",
                    "midi": 48,
                    "time": 123.333209999998,
                    "velocity": 0.5590551181102362,
                    "duration": 0.09259249999999497
                },
                {
                    "name": "C4",
                    "midi": 60,
                    "time": 123.333209999998,
                    "velocity": 0.6614173228346457,
                    "duration": 0.09259249999999497
                },
                {
                    "name": "D2",
                    "midi": 38,
                    "time": 123.518394999998,
                    "velocity": 0.47244094488188976,
                    "duration": 0.09259249999999497
                },
                {
                    "name": "D3",
                    "midi": 50,
                    "time": 123.518394999998,
                    "velocity": 0.5590551181102362,
                    "duration": 0.09259249999999497
                },
                {
                    "name": "A#3",
                    "midi": 58,
                    "time": 123.70357999999798,
                    "velocity": 0.6614173228346457,
                    "duration": 0.09259249999999497
                },
                {
                    "name": "A#2",
                    "midi": 46,
                    "time": 123.70357999999798,
                    "velocity": 0.5590551181102362,
                    "duration": 0.09259249999999497
                },
                {
                    "name": "D2",
                    "midi": 38,
                    "time": 123.88876499999797,
                    "velocity": 0.47244094488188976,
                    "duration": 0.09259249999999497
                },
                {
                    "name": "D3",
                    "midi": 50,
                    "time": 123.88876499999797,
                    "velocity": 0.5590551181102362,
                    "duration": 0.09259249999999497
                },
                {
                    "name": "A2",
                    "midi": 45,
                    "time": 124.07394999999796,
                    "velocity": 0.5590551181102362,
                    "duration": 0.09259249999999497
                },
                {
                    "name": "A3",
                    "midi": 57,
                    "time": 124.07394999999796,
                    "velocity": 0.6614173228346457,
                    "duration": 0.09259249999999497
                },
                {
                    "name": "D2",
                    "midi": 38,
                    "time": 124.25913499999795,
                    "velocity": 0.47244094488188976,
                    "duration": 0.09259249999999497
                },
                {
                    "name": "D3",
                    "midi": 50,
                    "time": 124.25913499999795,
                    "velocity": 0.5590551181102362,
                    "duration": 0.09259249999999497
                },
                {
                    "name": "G2",
                    "midi": 43,
                    "time": 124.44431999999794,
                    "velocity": 0.5590551181102362,
                    "duration": 0.09259249999999497
                },
                {
                    "name": "G3",
                    "midi": 55,
                    "time": 124.44431999999794,
                    "velocity": 0.6614173228346457,
                    "duration": 0.09259249999999497
                },
                {
                    "name": "D2",
                    "midi": 38,
                    "time": 124.62950499999793,
                    "velocity": 0.47244094488188976,
                    "duration": 0.09259249999999497
                },
                {
                    "name": "D3",
                    "midi": 50,
                    "time": 124.62950499999793,
                    "velocity": 0.5590551181102362,
                    "duration": 0.09259249999999497
                },
                {
                    "name": "F2",
                    "midi": 41,
                    "time": 124.81468999999792,
                    "velocity": 0.5590551181102362,
                    "duration": 0.09259249999999497
                },
                {
                    "name": "F3",
                    "midi": 53,
                    "time": 124.81468999999792,
                    "velocity": 0.6614173228346457,
                    "duration": 0.09259249999999497
                },
                {
                    "name": "D2",
                    "midi": 38,
                    "time": 124.99987499999791,
                    "velocity": 0.47244094488188976,
                    "duration": 0.09259249999999497
                },
                {
                    "name": "D3",
                    "midi": 50,
                    "time": 124.99987499999791,
                    "velocity": 0.5590551181102362,
                    "duration": 0.09259249999999497
                },
                {
                    "name": "E2",
                    "midi": 40,
                    "time": 125.1850599999979,
                    "velocity": 0.5590551181102362,
                    "duration": 0.09259249999999497
                },
                {
                    "name": "E3",
                    "midi": 52,
                    "time": 125.1850599999979,
                    "velocity": 0.6614173228346457,
                    "duration": 0.09259249999999497
                },
                {
                    "name": "D2",
                    "midi": 38,
                    "time": 125.3702449999979,
                    "velocity": 0.47244094488188976,
                    "duration": 0.09259249999999497
                },
                {
                    "name": "D3",
                    "midi": 50,
                    "time": 125.3702449999979,
                    "velocity": 0.5590551181102362,
                    "duration": 0.09259249999999497
                },
                {
                    "name": "E2",
                    "midi": 40,
                    "time": 125.55542999999788,
                    "velocity": 0.5590551181102362,
                    "duration": 0.09259249999999497
                },
                {
                    "name": "E3",
                    "midi": 52,
                    "time": 125.55542999999788,
                    "velocity": 0.6614173228346457,
                    "duration": 0.09259249999999497
                },
                {
                    "name": "D2",
                    "midi": 38,
                    "time": 125.74061499999787,
                    "velocity": 0.47244094488188976,
                    "duration": 0.09259249999999497
                },
                {
                    "name": "D3",
                    "midi": 50,
                    "time": 125.74061499999787,
                    "velocity": 0.5590551181102362,
                    "duration": 0.09259249999999497
                },
                {
                    "name": "F3",
                    "midi": 53,
                    "time": 125.92579999999786,
                    "velocity": 0.4881889763779528,
                    "duration": 0.09259249999999497
                },
                {
                    "name": "D2",
                    "midi": 38,
                    "time": 126.11098499999785,
                    "velocity": 0.4094488188976378,
                    "duration": 0.09259249999999497
                },
                {
                    "name": "E3",
                    "midi": 52,
                    "time": 126.29616999999784,
                    "velocity": 0.47244094488188976,
                    "duration": 0.09259249999999497
                },
                {
                    "name": "D2",
                    "midi": 38,
                    "time": 126.48135499999783,
                    "velocity": 0.4015748031496063,
                    "duration": 0.09259249999999497
                },
                {
                    "name": "D3",
                    "midi": 50,
                    "time": 126.66653999999782,
                    "velocity": 0.4645669291338583,
                    "duration": 0.09259249999999497
                },
                {
                    "name": "D2",
                    "midi": 38,
                    "time": 126.85172499999781,
                    "velocity": 0.3937007874015748,
                    "duration": 0.09259249999999497
                },
                {
                    "name": "C3",
                    "midi": 48,
                    "time": 127.0369099999978,
                    "velocity": 0.4566929133858268,
                    "duration": 0.09259249999999497
                },
                {
                    "name": "D2",
                    "midi": 38,
                    "time": 127.2220949999978,
                    "velocity": 0.3858267716535433,
                    "duration": 0.09259249999999497
                },
                {
                    "name": "A#2",
                    "midi": 46,
                    "time": 127.40727999999778,
                    "velocity": 0.44881889763779526,
                    "duration": 0.09259249999999497
                },
                {
                    "name": "D2",
                    "midi": 38,
                    "time": 127.59246499999777,
                    "velocity": 0.3779527559055118,
                    "duration": 0.09259249999999497
                },
                {
                    "name": "A2",
                    "midi": 45,
                    "time": 127.77764999999776,
                    "velocity": 0.4409448818897638,
                    "duration": 0.09259249999999497
                },
                {
                    "name": "D2",
                    "midi": 38,
                    "time": 127.96283499999775,
                    "velocity": 0.3779527559055118,
                    "duration": 0.09259250000000918
                },
                {
                    "name": "G2",
                    "midi": 43,
                    "time": 128.14801999999776,
                    "velocity": 0.4330708661417323,
                    "duration": 0.09259249999999497
                },
                {
                    "name": "D2",
                    "midi": 38,
                    "time": 128.33320499999775,
                    "velocity": 0.3700787401574803,
                    "duration": 0.09259249999999497
                },
                {
                    "name": "G2",
                    "midi": 43,
                    "time": 128.51838999999774,
                    "velocity": 0.4251968503937008,
                    "duration": 0.09259249999999497
                },
                {
                    "name": "D2",
                    "midi": 38,
                    "time": 128.70357499999773,
                    "velocity": 0.36220472440944884,
                    "duration": 0.09259249999999497
                },
                {
                    "name": "D3",
                    "midi": 50,
                    "time": 128.88875999999772,
                    "velocity": 0.3858267716535433,
                    "duration": 0.09259249999999497
                },
                {
                    "name": "D2",
                    "midi": 38,
                    "time": 129.0739449999977,
                    "velocity": 0.3228346456692913,
                    "duration": 0.09259249999999497
                },
                {
                    "name": "C3",
                    "midi": 48,
                    "time": 129.2591299999977,
                    "velocity": 0.3779527559055118,
                    "duration": 0.09259249999999497
                },
                {
                    "name": "D2",
                    "midi": 38,
                    "time": 129.4443149999977,
                    "velocity": 0.3228346456692913,
                    "duration": 0.09259249999999497
                },
                {
                    "name": "A#2",
                    "midi": 46,
                    "time": 129.62949999999768,
                    "velocity": 0.3779527559055118,
                    "duration": 0.09259249999999497
                },
                {
                    "name": "D2",
                    "midi": 38,
                    "time": 129.81468499999767,
                    "velocity": 0.31496062992125984,
                    "duration": 0.09259249999999497
                },
                {
                    "name": "A2",
                    "midi": 45,
                    "time": 129.99986999999766,
                    "velocity": 0.3700787401574803,
                    "duration": 0.09259249999999497
                },
                {
                    "name": "D2",
                    "midi": 38,
                    "time": 130.18505499999765,
                    "velocity": 0.31496062992125984,
                    "duration": 0.09259249999999497
                },
                {
                    "name": "G2",
                    "midi": 43,
                    "time": 130.37023999999764,
                    "velocity": 0.3700787401574803,
                    "duration": 0.09259249999999497
                },
                {
                    "name": "D2",
                    "midi": 38,
                    "time": 130.55542499999763,
                    "velocity": 0.31496062992125984,
                    "duration": 0.09259249999999497
                },
                {
                    "name": "F2",
                    "midi": 41,
                    "time": 130.74060999999762,
                    "velocity": 0.36220472440944884,
                    "duration": 0.09259249999999497
                },
                {
                    "name": "D2",
                    "midi": 38,
                    "time": 130.9257949999976,
                    "velocity": 0.30708661417322836,
                    "duration": 0.09259249999999497
                },
                {
                    "name": "E2",
                    "midi": 40,
                    "time": 131.1109799999976,
                    "velocity": 0.36220472440944884,
                    "duration": 0.09259249999999497
                },
                {
                    "name": "D2",
                    "midi": 38,
                    "time": 131.2961649999976,
                    "velocity": 0.29133858267716534,
                    "duration": 0.09259249999999497
                },
                {
                    "name": "E2",
                    "midi": 40,
                    "time": 131.48134999999758,
                    "velocity": 0.3464566929133858,
                    "duration": 0.09259249999999497
                },
                {
                    "name": "D2",
                    "midi": 38,
                    "time": 131.66653499999757,
                    "velocity": 0.29133858267716534,
                    "duration": 0.09259249999999497
                },
                {
                    "name": "D#2",
                    "midi": 39,
                    "time": 131.85171999999756,
                    "velocity": 0.3700787401574803,
                    "duration": 0.09259249999999497
                },
                {
                    "name": "A2",
                    "midi": 45,
                    "time": 132.03690499999755,
                    "velocity": 0.3228346456692913,
                    "duration": 0.09259249999999497
                },
                {
                    "name": "D#2",
                    "midi": 39,
                    "time": 132.22208999999754,
                    "velocity": 0.3700787401574803,
                    "duration": 0.09259249999999497
                },
                {
                    "name": "A2",
                    "midi": 45,
                    "time": 132.40727499999753,
                    "velocity": 0.3228346456692913,
                    "duration": 0.09259249999999497
                },
                {
                    "name": "D2",
                    "midi": 38,
                    "time": 132.59245999999752,
                    "velocity": 0.3700787401574803,
                    "duration": 0.09259249999999497
                },
                {
                    "name": "A2",
                    "midi": 45,
                    "time": 132.7776449999975,
                    "velocity": 0.3228346456692913,
                    "duration": 0.09259249999999497
                },
                {
                    "name": "D2",
                    "midi": 38,
                    "time": 132.9628299999975,
                    "velocity": 0.3779527559055118,
                    "duration": 0.09259249999999497
                },
                {
                    "name": "A2",
                    "midi": 45,
                    "time": 133.14801499999749,
                    "velocity": 0.3228346456692913,
                    "duration": 0.09259249999999497
                },
                {
                    "name": "D#2",
                    "midi": 39,
                    "time": 133.33319999999748,
                    "velocity": 0.3700787401574803,
                    "duration": 0.09259249999999497
                },
                {
                    "name": "A2",
                    "midi": 45,
                    "time": 133.51838499999747,
                    "velocity": 0.3228346456692913,
                    "duration": 0.09259249999999497
                },
                {
                    "name": "D#2",
                    "midi": 39,
                    "time": 133.70356999999746,
                    "velocity": 0.3700787401574803,
                    "duration": 0.09259249999999497
                },
                {
                    "name": "A2",
                    "midi": 45,
                    "time": 133.88875499999745,
                    "velocity": 0.3228346456692913,
                    "duration": 0.09259249999999497
                },
                {
                    "name": "D2",
                    "midi": 38,
                    "time": 134.07393999999744,
                    "velocity": 0.3700787401574803,
                    "duration": 0.09259249999999497
                },
                {
                    "name": "A2",
                    "midi": 45,
                    "time": 134.25912499999743,
                    "velocity": 0.3228346456692913,
                    "duration": 0.09259249999999497
                },
                {
                    "name": "D#2",
                    "midi": 39,
                    "time": 134.44430999999742,
                    "velocity": 0.3779527559055118,
                    "duration": 0.09259249999999497
                },
                {
                    "name": "A2",
                    "midi": 45,
                    "time": 134.6294949999974,
                    "velocity": 0.30708661417322836,
                    "duration": 0.09259249999999497
                },
                {
                    "name": "D2",
                    "midi": 38,
                    "time": 134.8146799999974,
                    "velocity": 0.33858267716535434,
                    "duration": 0.09259249999999497
                },
                {
                    "name": "A2",
                    "midi": 45,
                    "time": 134.99986499999738,
                    "velocity": 0.3228346456692913,
                    "duration": 0.09259249999999497
                },
                {
                    "name": "D#2",
                    "midi": 39,
                    "time": 135.18504999999737,
                    "velocity": 0.33858267716535434,
                    "duration": 0.09259249999999497
                },
                {
                    "name": "A2",
                    "midi": 45,
                    "time": 135.37023499999736,
                    "velocity": 0.28346456692913385,
                    "duration": 0.09259249999999497
                },
                {
                    "name": "D2",
                    "midi": 38,
                    "time": 135.55541999999735,
                    "velocity": 0.33858267716535434,
                    "duration": 0.09259249999999497
                },
                {
                    "name": "A2",
                    "midi": 45,
                    "time": 135.74060499999734,
                    "velocity": 0.30708661417322836,
                    "duration": 0.09259249999999497
                },
                {
                    "name": "D#2",
                    "midi": 39,
                    "time": 135.92578999999733,
                    "velocity": 0.33070866141732286,
                    "duration": 0.09259249999999497
                },
                {
                    "name": "A2",
                    "midi": 45,
                    "time": 136.11097499999732,
                    "velocity": 0.2677165354330709,
                    "duration": 0.09259249999999497
                },
                {
                    "name": "D2",
                    "midi": 38,
                    "time": 136.29615999999731,
                    "velocity": 0.30708661417322836,
                    "duration": 0.09259249999999497
                },
                {
                    "name": "A2",
                    "midi": 45,
                    "time": 136.4813449999973,
                    "velocity": 0.28346456692913385,
                    "duration": 0.09259249999999497
                },
                {
                    "name": "D#2",
                    "midi": 39,
                    "time": 136.6665299999973,
                    "velocity": 0.29133858267716534,
                    "duration": 0.09259249999999497
                },
                {
                    "name": "A2",
                    "midi": 45,
                    "time": 136.85171499999728,
                    "velocity": 0.25196850393700787,
                    "duration": 0.09259249999999497
                },
                {
                    "name": "D2",
                    "midi": 38,
                    "time": 137.03689999999727,
                    "velocity": 0.3228346456692913,
                    "duration": 0.09259249999999497
                },
                {
                    "name": "A2",
                    "midi": 45,
                    "time": 137.22208499999726,
                    "velocity": 0.30708661417322836,
                    "duration": 0.09259249999999497
                },
                {
                    "name": "D2",
                    "midi": 38,
                    "time": 137.40726999999725,
                    "velocity": 0.3228346456692913,
                    "duration": 0.09259249999999497
                },
                {
                    "name": "A2",
                    "midi": 45,
                    "time": 137.59245499999724,
                    "velocity": 0.30708661417322836,
                    "duration": 0.09259249999999497
                },
                {
                    "name": "D2",
                    "midi": 38,
                    "time": 137.77763999999723,
                    "velocity": 0.3228346456692913,
                    "duration": 0.09259249999999497
                },
                {
                    "name": "A2",
                    "midi": 45,
                    "time": 137.96282499999722,
                    "velocity": 0.30708661417322836,
                    "duration": 0.09259249999999497
                },
                {
                    "name": "D2",
                    "midi": 38,
                    "time": 138.1480099999972,
                    "velocity": 0.3228346456692913,
                    "duration": 0.09259249999999497
                },
                {
                    "name": "A2",
                    "midi": 45,
                    "time": 138.3331949999972,
                    "velocity": 0.30708661417322836,
                    "duration": 0.09259249999999497
                },
                {
                    "name": "D2",
                    "midi": 38,
                    "time": 138.5183799999972,
                    "velocity": 0.3228346456692913,
                    "duration": 0.09259249999999497
                },
                {
                    "name": "A2",
                    "midi": 45,
                    "time": 138.70356499999718,
                    "velocity": 0.30708661417322836,
                    "duration": 0.09259249999999497
                },
                {
                    "name": "D2",
                    "midi": 38,
                    "time": 138.88874999999717,
                    "velocity": 0.3228346456692913,
                    "duration": 0.09259249999999497
                },
                {
                    "name": "A2",
                    "midi": 45,
                    "time": 139.07393499999716,
                    "velocity": 0.30708661417322836,
                    "duration": 0.09259249999999497
                },
                {
                    "name": "D2",
                    "midi": 38,
                    "time": 139.25911999999715,
                    "velocity": 0.3228346456692913,
                    "duration": 0.09259249999999497
                },
                {
                    "name": "A2",
                    "midi": 45,
                    "time": 139.44430499999714,
                    "velocity": 0.29133858267716534,
                    "duration": 0.09259249999999497
                },
                {
                    "name": "D2",
                    "midi": 38,
                    "time": 139.62948999999713,
                    "velocity": 0.3228346456692913,
                    "duration": 0.09259249999999497
                },
                {
                    "name": "A2",
                    "midi": 45,
                    "time": 139.81467499999712,
                    "velocity": 0.29133858267716534,
                    "duration": 0.09259249999999497
                },
                {
                    "name": "D2",
                    "midi": 38,
                    "time": 139.9998599999971,
                    "velocity": 0.33858267716535434,
                    "duration": 0.09259249999999497
                },
                {
                    "name": "A2",
                    "midi": 45,
                    "time": 140.1850449999971,
                    "velocity": 0.31496062992125984,
                    "duration": 0.09259249999999497
                },
                {
                    "name": "D2",
                    "midi": 38,
                    "time": 140.3702299999971,
                    "velocity": 0.33858267716535434,
                    "duration": 0.09259249999999497
                },
                {
                    "name": "A2",
                    "midi": 45,
                    "time": 140.55541499999708,
                    "velocity": 0.3228346456692913,
                    "duration": 0.09259249999999497
                },
                {
                    "name": "D2",
                    "midi": 38,
                    "time": 140.74059999999707,
                    "velocity": 0.33070866141732286,
                    "duration": 0.09259249999999497
                },
                {
                    "name": "A2",
                    "midi": 45,
                    "time": 140.92578499999706,
                    "velocity": 0.31496062992125984,
                    "duration": 0.09259249999999497
                },
                {
                    "name": "D3",
                    "midi": 50,
                    "time": 141.11096999999705,
                    "velocity": 0.33070866141732286,
                    "duration": 0.09259249999999497
                },
                {
                    "name": "A3",
                    "midi": 57,
                    "time": 141.29615499999704,
                    "velocity": 0.31496062992125984,
                    "duration": 0.09259249999999497
                },
                {
                    "name": "D3",
                    "midi": 50,
                    "time": 142.96281999999704,
                    "velocity": 0.7086614173228346,
                    "duration": 0.09259249999999497
                },
                {
                    "name": "D2",
                    "midi": 38,
                    "time": 142.96281999999704,
                    "velocity": 0.5905511811023622,
                    "duration": 0.09259249999999497
                },
                {
                    "name": "A2",
                    "midi": 45,
                    "time": 142.96281999999704,
                    "velocity": 0.5905511811023622,
                    "duration": 0.09259249999999497
                },
                {
                    "name": "D2",
                    "midi": 38,
                    "time": 143.05541249999703,
                    "velocity": 0.5354330708661418,
                    "duration": 0.09259249999999497
                },
                {
                    "name": "D3",
                    "midi": 50,
                    "time": 143.05541249999703,
                    "velocity": 0.6377952755905512,
                    "duration": 0.09259249999999497
                },
                {
                    "name": "A2",
                    "midi": 45,
                    "time": 143.05541249999703,
                    "velocity": 0.5354330708661418,
                    "duration": 0.09259249999999497
                }
            ],
            "controlChanges": {
                "7": [
                    {
                        "number": 7,
                        "time": 0,
                        "value": 0.7874015748031497
                    }
                ],
                "64": [
                    {
                        "number": 64,
                        "time": 0,
                        "value": 0
                    },
                    {
                        "number": 64,
                        "time": 0,
                        "value": 0
                    },
                    {
                        "number": 64,
                        "time": 50.96368360416685,
                        "value": 1
                    },
                    {
                        "number": 64,
                        "time": 52.23142925000019,
                        "value": 0
                    },
                    {
                        "number": 64,
                        "time": 52.428959916666855,
                        "value": 1
                    },
                    {
                        "number": 64,
                        "time": 52.59254000000019,
                        "value": 0
                    },
                    {
                        "number": 64,
                        "time": 52.73451516666686,
                        "value": 1
                    },
                    {
                        "number": 64,
                        "time": 53.33636641666686,
                        "value": 0
                    },
                    {
                        "number": 64,
                        "time": 53.39886635416686,
                        "value": 1
                    },
                    {
                        "number": 64,
                        "time": 54.07556320833353,
                        "value": 0
                    },
                    {
                        "number": 64,
                        "time": 54.30087162500019,
                        "value": 1
                    },
                    {
                        "number": 64,
                        "time": 54.818618020833526,
                        "value": 0
                    },
                    {
                        "number": 64,
                        "time": 54.91275372916686,
                        "value": 1
                    },
                    {
                        "number": 64,
                        "time": 55.19438925000019,
                        "value": 0
                    },
                    {
                        "number": 64,
                        "time": 55.29392618750019,
                        "value": 1
                    },
                    {
                        "number": 64,
                        "time": 55.56090122916686,
                        "value": 0
                    },
                    {
                        "number": 64,
                        "time": 55.66429618750019,
                        "value": 1
                    },
                    {
                        "number": 64,
                        "time": 55.935129250000195,
                        "value": 0
                    },
                    {
                        "number": 64,
                        "time": 56.11105500000019,
                        "value": 1
                    },
                    {
                        "number": 64,
                        "time": 56.30241283333352,
                        "value": 0
                    },
                    {
                        "number": 64,
                        "time": 56.345622666666856,
                        "value": 1
                    },
                    {
                        "number": 64,
                        "time": 56.67432604166686,
                        "value": 0
                    },
                    {
                        "number": 64,
                        "time": 56.77000495833352,
                        "value": 1
                    },
                    {
                        "number": 64,
                        "time": 57.03852320833352,
                        "value": 0
                    },
                    {
                        "number": 64,
                        "time": 57.185899604166856,
                        "value": 1
                    },
                    {
                        "number": 64,
                        "time": 57.41660925000019,
                        "value": 0
                    },
                    {
                        "number": 64,
                        "time": 57.63651643750019,
                        "value": 1
                    },
                    {
                        "number": 64,
                        "time": 57.77926320833352,
                        "value": 0
                    },
                    {
                        "number": 64,
                        "time": 57.90889270833352,
                        "value": 1
                    },
                    {
                        "number": 64,
                        "time": 58.15580604166685,
                        "value": 0
                    },
                    {
                        "number": 64,
                        "time": 58.27926270833352,
                        "value": 1
                    },
                    {
                        "number": 64,
                        "time": 58.52077481250019,
                        "value": 0
                    },
                    {
                        "number": 64,
                        "time": 58.58404635416686,
                        "value": 1
                    },
                    {
                        "number": 64,
                        "time": 58.89808925000019,
                        "value": 0
                    },
                    {
                        "number": 64,
                        "time": 59.03080516666686,
                        "value": 1
                    },
                    {
                        "number": 64,
                        "time": 59.26228641666686,
                        "value": 0
                    },
                    {
                        "number": 64,
                        "time": 59.31089747916686,
                        "value": 1
                    },
                    {
                        "number": 64,
                        "time": 60.00302641666686,
                        "value": 0
                    },
                    {
                        "number": 64,
                        "time": 60.21830397916686,
                        "value": 1
                    },
                    {
                        "number": 64,
                        "time": 60.74608122916686,
                        "value": 0
                    },
                    {
                        "number": 64,
                        "time": 60.849476187500194,
                        "value": 1
                    },
                    {
                        "number": 64,
                        "time": 61.12030925000019,
                        "value": 0
                    },
                    {
                        "number": 64,
                        "time": 61.25302516666686,
                        "value": 1
                    },
                    {
                        "number": 64,
                        "time": 61.483734812500195,
                        "value": 0
                    },
                    {
                        "number": 64,
                        "time": 61.59638902083353,
                        "value": 1
                    },
                    {
                        "number": 64,
                        "time": 61.86104925000019,
                        "value": 0
                    },
                    {
                        "number": 64,
                        "time": 61.96675902083353,
                        "value": 1
                    },
                    {
                        "number": 64,
                        "time": 62.2244748125002,
                        "value": 0
                    },
                    {
                        "number": 64,
                        "time": 62.29006116666687,
                        "value": 1
                    },
                    {
                        "number": 64,
                        "time": 62.96444320833353,
                        "value": 0
                    },
                    {
                        "number": 64,
                        "time": 63.16968991666686,
                        "value": 1
                    },
                    {
                        "number": 64,
                        "time": 63.70364000000019,
                        "value": 0
                    },
                    {
                        "number": 64,
                        "time": 63.733732562500194,
                        "value": 1
                    },
                    {
                        "number": 64,
                        "time": 66.55240258333346,
                        "value": 0
                    },
                    {
                        "number": 64,
                        "time": 66.66660000000013,
                        "value": 1
                    },
                    {
                        "number": 64,
                        "time": 69.5153625833334,
                        "value": 0
                    },
                    {
                        "number": 64,
                        "time": 69.62956000000007,
                        "value": 1
                    },
                    {
                        "number": 64,
                        "time": 70.96134879166667,
                        "value": 0
                    },
                    {
                        "number": 64,
                        "time": 71.17662635416667,
                        "value": 1
                    },
                    {
                        "number": 64,
                        "time": 71.85178,
                        "value": 0
                    },
                    {
                        "number": 64,
                        "time": 71.98295270833334,
                        "value": 1
                    },
                    {
                        "number": 64,
                        "time": 72.59714962500001,
                        "value": 0
                    },
                    {
                        "number": 64,
                        "time": 72.66350758333334,
                        "value": 1
                    },
                    {
                        "number": 64,
                        "time": 73.33557481250001,
                        "value": 0
                    },
                    {
                        "number": 64,
                        "time": 73.58017333333335,
                        "value": 1
                    },
                    {
                        "number": 64,
                        "time": 74.07785802083335,
                        "value": 0
                    },
                    {
                        "number": 64,
                        "time": 74.16119127083334,
                        "value": 1
                    },
                    {
                        "number": 64,
                        "time": 74.81782641666666,
                        "value": 0
                    },
                    {
                        "number": 64,
                        "time": 74.91273372916666,
                        "value": 1
                    },
                    {
                        "number": 64,
                        "time": 75.55547999999999,
                        "value": 0
                    },
                    {
                        "number": 64,
                        "time": 75.59637502083332,
                        "value": 1
                    },
                    {
                        "number": 64,
                        "time": 76.29621999999998,
                        "value": 0
                    },
                    {
                        "number": 64,
                        "time": 76.36720758333331,
                        "value": 1
                    },
                    {
                        "number": 64,
                        "time": 76.6750776458333,
                        "value": 0
                    },
                    {
                        "number": 64,
                        "time": 76.8787811458333,
                        "value": 1
                    },
                    {
                        "number": 64,
                        "time": 77.04004641666663,
                        "value": 0
                    },
                    {
                        "number": 64,
                        "time": 77.15733024999996,
                        "value": 1
                    },
                    {
                        "number": 64,
                        "time": 77.41658924999996,
                        "value": 0
                    },
                    {
                        "number": 64,
                        "time": 77.54930516666663,
                        "value": 1
                    },
                    {
                        "number": 64,
                        "time": 77.7792432083333,
                        "value": 0
                    },
                    {
                        "number": 64,
                        "time": 77.87569372916663,
                        "value": 1
                    },
                    {
                        "number": 64,
                        "time": 78.15655764583329,
                        "value": 0
                    },
                    {
                        "number": 64,
                        "time": 78.31165008333329,
                        "value": 1
                    },
                    {
                        "number": 64,
                        "time": 78.52152641666662,
                        "value": 0
                    },
                    {
                        "number": 64,
                        "time": 78.58402635416661,
                        "value": 1
                    },
                    {
                        "number": 64,
                        "time": 79.25917999999994,
                        "value": 0
                    },
                    {
                        "number": 64,
                        "time": 79.42276008333327,
                        "value": 1
                    },
                    {
                        "number": 64,
                        "time": 80.0030064166666,
                        "value": 0
                    },
                    {
                        "number": 64,
                        "time": 80.1418951666666,
                        "value": 1
                    },
                    {
                        "number": 64,
                        "time": 80.37954924999994,
                        "value": 0
                    },
                    {
                        "number": 64,
                        "time": 80.50146270833328,
                        "value": 1
                    },
                    {
                        "number": 64,
                        "time": 80.74451802083328,
                        "value": 0
                    },
                    {
                        "number": 64,
                        "time": 80.83788212499995,
                        "value": 1
                    },
                    {
                        "number": 64,
                        "time": 81.12028924999996,
                        "value": 0
                    },
                    {
                        "number": 64,
                        "time": 81.22599902083329,
                        "value": 1
                    },
                    {
                        "number": 64,
                        "time": 81.48371481249995,
                        "value": 0
                    },
                    {
                        "number": 64,
                        "time": 81.54158512499995,
                        "value": 1
                    },
                    {
                        "number": 64,
                        "time": 82.22676962499996,
                        "value": 0
                    },
                    {
                        "number": 64,
                        "time": 82.45130643749995,
                        "value": 1
                    },
                    {
                        "number": 64,
                        "time": 82.96287999999996,
                        "value": 0
                    },
                    {
                        "number": 64,
                        "time": 82.99837379166662,
                        "value": 1
                    },
                    {
                        "number": 64,
                        "time": 83.70361999999996,
                        "value": 0
                    },
                    {
                        "number": 64,
                        "time": 83.79081127083329,
                        "value": 1
                    },
                    {
                        "number": 64,
                        "time": 84.44590320833325,
                        "value": 0
                    },
                    {
                        "number": 64,
                        "time": 84.48834143749991,
                        "value": 1
                    },
                    {
                        "number": 64,
                        "time": 85.19127283333324,
                        "value": 0
                    },
                    {
                        "number": 64,
                        "time": 85.23988389583324,
                        "value": 1
                    },
                    {
                        "number": 64,
                        "time": 85.92892641666654,
                        "value": 0
                    },
                    {
                        "number": 64,
                        "time": 85.96364860416654,
                        "value": 1
                    },
                    {
                        "number": 64,
                        "time": 86.66657999999987,
                        "value": 0
                    },
                    {
                        "number": 64,
                        "time": 86.74837004166653,
                        "value": 1
                    },
                    {
                        "number": 64,
                        "time": 87.40731999999983,
                        "value": 0
                    },
                    {
                        "number": 64,
                        "time": 87.44590020833316,
                        "value": 1
                    },
                    {
                        "number": 64,
                        "time": 88.14805999999983,
                        "value": 0
                    },
                    {
                        "number": 64,
                        "time": 88.23525127083316,
                        "value": 1
                    },
                    {
                        "number": 64,
                        "time": 88.88879999999979,
                        "value": 0
                    },
                    {
                        "number": 64,
                        "time": 142.05309868749703,
                        "value": 1
                    },
                    {
                        "number": 64,
                        "time": 143.19198643749704,
                        "value": 0
                    }
                ],
                "91": [
                    {
                        "number": 91,
                        "time": 0,
                        "value": 1
                    },
                    {
                        "number": 91,
                        "time": 51.85180000000019,
                        "value": 1
                    },
                    {
                        "number": 91,
                        "time": 54.81476000000019,
                        "value": 1
                    },
                    {
                        "number": 91,
                        "time": 57.77772000000019,
                        "value": 1
                    },
                    {
                        "number": 91,
                        "time": 60.7406800000002,
                        "value": 1
                    },
                    {
                        "number": 91,
                        "time": 71.11104,
                        "value": 1
                    },
                    {
                        "number": 91,
                        "time": 74.07400000000001,
                        "value": 1
                    },
                    {
                        "number": 91,
                        "time": 77.03695999999997,
                        "value": 1
                    },
                    {
                        "number": 91,
                        "time": 79.99991999999993,
                        "value": 1
                    },
                    {
                        "number": 91,
                        "time": 91.11101999999967,
                        "value": 1
                    }
                ]
            },
            "id": 2,
            "name": "Piano left",
            "instrumentNumber": 0,
            "instrument": "acoustic grand piano",
            "instrumentFamily": "piano",
            "channelNumber": 0,
            "isPercussion": false
        },
        {
            "startTime": 0,
            "duration": 0,
            "length": 0,
            "notes": [],
            "controlChanges": {},
            "id": 3,
            "name": "Grieg: Zug der Zwerge, Op. 54 No. 3"
        },
        {
            "startTime": 0,
            "duration": 0,
            "length": 0,
            "notes": [],
            "controlChanges": {},
            "id": 4,
            "name": "Copyright  1998 by Bernd Krueger"
        },
        {
            "startTime": 0,
            "duration": 0,
            "length": 0,
            "notes": [],
            "controlChanges": {},
            "id": 5,
            "name": "http://www.piano-midi.de"
        },
        {
            "startTime": 0,
            "duration": 0,
            "length": 0,
            "notes": [],
            "controlChanges": {},
            "id": 6,
            "name": "Edition: 2012-11-08"
        }
    ]
}