{
    "header": {
        "PPQ": 480,
        "timeSignature": [
            4,
            4
        ],
        "bpm": 100,
        "name": "Mazeppa"
    },
    "startTime": 0,
    "duration": 465.90000000000487,
    "tracks": [
        {
            "startTime": 0,
            "duration": 0,
            "length": 0,
            "notes": [],
            "controlChanges": {},
            "id": 0,
            "name": "Mazeppa"
        },
        {
            "startTime": 0.4875,
            "duration": 465.89999999999145,
            "length": 3632,
            "notes": [
                {
                    "name": "G5",
                    "midi": 79,
                    "time": 0.4875,
                    "velocity": 0.5669291338582677,
                    "duration": 0.3
                },
                {
                    "name": "C#6",
                    "midi": 85,
                    "time": 0.525,
                    "velocity": 0.5669291338582677,
                    "duration": 0.29999999999999993
                },
                {
                    "name": "E6",
                    "midi": 88,
                    "time": 0.5625,
                    "velocity": 0.6062992125984252,
                    "duration": 0.29999999999999993
                },
                {
                    "name": "A#6",
                    "midi": 94,
                    "time": 0.6,
                    "velocity": 0.6220472440944882,
                    "duration": 0.29999999999999993
                },
                {
                    "name": "D5",
                    "midi": 74,
                    "time": 1.6875,
                    "velocity": 0.5354330708661418,
                    "duration": 0.30000000000000027
                },
                {
                    "name": "G#5",
                    "midi": 80,
                    "time": 1.725,
                    "velocity": 0.5433070866141733,
                    "duration": 0.30000000000000027
                },
                {
                    "name": "B5",
                    "midi": 83,
                    "time": 1.7625000000000002,
                    "velocity": 0.5590551181102362,
                    "duration": 0.30000000000000027
                },
                {
                    "name": "F6",
                    "midi": 89,
                    "time": 1.8000000000000003,
                    "velocity": 0.5748031496062992,
                    "duration": 0.30000000000000027
                },
                {
                    "name": "A4",
                    "midi": 69,
                    "time": 2.9437500000000005,
                    "velocity": 0.4645669291338583,
                    "duration": 0.2999999999999994
                },
                {
                    "name": "D#5",
                    "midi": 75,
                    "time": 2.9625000000000004,
                    "velocity": 0.48031496062992124,
                    "duration": 0.2999999999999994
                },
                {
                    "name": "F#5",
                    "midi": 78,
                    "time": 2.98125,
                    "velocity": 0.5039370078740157,
                    "duration": 0.2999999999999994
                },
                {
                    "name": "C6",
                    "midi": 84,
                    "time": 3,
                    "velocity": 0.5196850393700787,
                    "duration": 0.2999999999999994
                },
                {
                    "name": "E4",
                    "midi": 64,
                    "time": 3.5437499999999993,
                    "velocity": 0.4645669291338583,
                    "duration": 0.2999999999999994
                },
                {
                    "name": "A#4",
                    "midi": 70,
                    "time": 3.562499999999999,
                    "velocity": 0.47244094488188976,
                    "duration": 0.2999999999999994
                },
                {
                    "name": "C#5",
                    "midi": 73,
                    "time": 3.581249999999999,
                    "velocity": 0.49606299212598426,
                    "duration": 0.2999999999999994
                },
                {
                    "name": "G5",
                    "midi": 79,
                    "time": 3.5999999999999988,
                    "velocity": 0.5039370078740157,
                    "duration": 0.2999999999999994
                },
                {
                    "name": "B3",
                    "midi": 59,
                    "time": 4.143749999999998,
                    "velocity": 0.4645669291338583,
                    "duration": 0.2999999999999998
                },
                {
                    "name": "F4",
                    "midi": 65,
                    "time": 4.162499999999998,
                    "velocity": 0.4881889763779528,
                    "duration": 0.2999999999999998
                },
                {
                    "name": "G#4",
                    "midi": 68,
                    "time": 4.181249999999998,
                    "velocity": 0.5118110236220472,
                    "duration": 0.2999999999999998
                },
                {
                    "name": "D5",
                    "midi": 74,
                    "time": 4.1999999999999975,
                    "velocity": 0.5354330708661418,
                    "duration": 0.2999999999999998
                },
                {
                    "name": "F#3",
                    "midi": 54,
                    "time": 4.743749999999998,
                    "velocity": 0.4881889763779528,
                    "duration": 0.2999999999999998
                },
                {
                    "name": "C4",
                    "midi": 60,
                    "time": 4.7624999999999975,
                    "velocity": 0.5118110236220472,
                    "duration": 0.2999999999999998
                },
                {
                    "name": "D#4",
                    "midi": 63,
                    "time": 4.781249999999997,
                    "velocity": 0.5354330708661418,
                    "duration": 0.2999999999999998
                },
                {
                    "name": "A4",
                    "midi": 69,
                    "time": 4.799999999999997,
                    "velocity": 0.5590551181102362,
                    "duration": 0.2999999999999998
                },
                {
                    "name": "G3",
                    "midi": 55,
                    "time": 5.343749999999997,
                    "velocity": 0.5118110236220472,
                    "duration": 0.2999999999999998
                },
                {
                    "name": "C#4",
                    "midi": 61,
                    "time": 5.362499999999997,
                    "velocity": 0.5275590551181102,
                    "duration": 0.2999999999999998
                },
                {
                    "name": "E4",
                    "midi": 64,
                    "time": 5.381249999999997,
                    "velocity": 0.5433070866141733,
                    "duration": 0.2999999999999998
                },
                {
                    "name": "A#4",
                    "midi": 70,
                    "time": 5.399999999999997,
                    "velocity": 0.5590551181102362,
                    "duration": 0.2999999999999998
                },
                {
                    "name": "G#3",
                    "midi": 56,
                    "time": 5.962499999999997,
                    "velocity": 0.5433070866141733,
                    "duration": 0.2999999999999998
                },
                {
                    "name": "B3",
                    "midi": 59,
                    "time": 5.981249999999997,
                    "velocity": 0.5748031496062992,
                    "duration": 0.2999999999999998
                },
                {
                    "name": "F4",
                    "midi": 65,
                    "time": 5.9999999999999964,
                    "velocity": 0.6062992125984252,
                    "duration": 0.2999999999999998
                },
                {
                    "name": "F3",
                    "midi": 53,
                    "time": 6.5624999999999964,
                    "velocity": 0.5511811023622047,
                    "duration": 0.2999999999999998
                },
                {
                    "name": "G#3",
                    "midi": 56,
                    "time": 6.581249999999996,
                    "velocity": 0.5748031496062992,
                    "duration": 0.2999999999999998
                },
                {
                    "name": "D4",
                    "midi": 62,
                    "time": 6.599999999999996,
                    "velocity": 0.5984251968503937,
                    "duration": 0.2999999999999998
                },
                {
                    "name": "A3",
                    "midi": 57,
                    "time": 7.143749999999996,
                    "velocity": 0.5511811023622047,
                    "duration": 0.2999999999999998
                },
                {
                    "name": "D4",
                    "midi": 62,
                    "time": 7.162499999999996,
                    "velocity": 0.5826771653543307,
                    "duration": 0.2999999999999998
                },
                {
                    "name": "F4",
                    "midi": 65,
                    "time": 7.181249999999996,
                    "velocity": 0.6062992125984252,
                    "duration": 0.2999999999999998
                },
                {
                    "name": "A4",
                    "midi": 69,
                    "time": 7.199999999999996,
                    "velocity": 0.6141732283464567,
                    "duration": 0.2999999999999998
                },
                {
                    "name": "A5",
                    "midi": 81,
                    "time": 8.399999999999995,
                    "velocity": 0.6614173228346457,
                    "duration": 0.3000000000000007
                },
                {
                    "name": "A4",
                    "midi": 69,
                    "time": 8.399999999999995,
                    "velocity": 0.5590551181102362,
                    "duration": 0.3000000000000007
                },
                {
                    "name": "F5",
                    "midi": 77,
                    "time": 8.399999999999995,
                    "velocity": 0.5590551181102362,
                    "duration": 0.3000000000000007
                },
                {
                    "name": "D5",
                    "midi": 74,
                    "time": 8.399999999999995,
                    "velocity": 0.5590551181102362,
                    "duration": 0.3000000000000007
                },
                {
                    "name": "G5",
                    "midi": 79,
                    "time": 9.599999999999996,
                    "velocity": 0.5590551181102362,
                    "duration": 0.3000000000000007
                },
                {
                    "name": "A6",
                    "midi": 93,
                    "time": 9.599999999999996,
                    "velocity": 0.6614173228346457,
                    "duration": 0.3000000000000007
                },
                {
                    "name": "C#6",
                    "midi": 85,
                    "time": 9.599999999999996,
                    "velocity": 0.5590551181102362,
                    "duration": 0.3000000000000007
                },
                {
                    "name": "E6",
                    "midi": 88,
                    "time": 9.599999999999996,
                    "velocity": 0.5590551181102362,
                    "duration": 0.3000000000000007
                },
                {
                    "name": "A5",
                    "midi": 81,
                    "time": 9.599999999999996,
                    "velocity": 0.5590551181102362,
                    "duration": 0.3000000000000007
                },
                {
                    "name": "A2",
                    "midi": 45,
                    "time": 12.149999999999997,
                    "velocity": 0.30708661417322836,
                    "duration": 0.22499999999999964
                },
                {
                    "name": "A#2",
                    "midi": 46,
                    "time": 12.299999999999997,
                    "velocity": 0.33070866141732286,
                    "duration": 0.22499999999999787
                },
                {
                    "name": "C#3",
                    "midi": 49,
                    "time": 12.449999999999996,
                    "velocity": 0.33858267716535434,
                    "duration": 0.22499999999999787
                },
                {
                    "name": "F3",
                    "midi": 53,
                    "time": 12.599999999999994,
                    "velocity": 0.36220472440944884,
                    "duration": 0.17999999999999972
                },
                {
                    "name": "E3",
                    "midi": 52,
                    "time": 12.719999999999994,
                    "velocity": 0.3543307086614173,
                    "duration": 0.1800000000000015
                },
                {
                    "name": "D3",
                    "midi": 50,
                    "time": 12.839999999999995,
                    "velocity": 0.3464566929133858,
                    "duration": 0.1800000000000015
                },
                {
                    "name": "C#3",
                    "midi": 49,
                    "time": 12.959999999999996,
                    "velocity": 0.33858267716535434,
                    "duration": 0.1800000000000015
                },
                {
                    "name": "A#2",
                    "midi": 46,
                    "time": 13.079999999999997,
                    "velocity": 0.3228346456692913,
                    "duration": 0.1800000000000015
                },
                {
                    "name": "A2",
                    "midi": 45,
                    "time": 13.199999999999998,
                    "velocity": 0.33858267716535434,
                    "duration": 0.15124999999999922
                },
                {
                    "name": "A#2",
                    "midi": 46,
                    "time": 13.299999999999997,
                    "velocity": 0.33858267716535434,
                    "duration": 0.15000000000000036
                },
                {
                    "name": "C#3",
                    "midi": 49,
                    "time": 13.399999999999997,
                    "velocity": 0.3464566929133858,
                    "duration": 0.15000000000000213
                },
                {
                    "name": "D3",
                    "midi": 50,
                    "time": 13.499999999999998,
                    "velocity": 0.3543307086614173,
                    "duration": 0.15000000000000213
                },
                {
                    "name": "E3",
                    "midi": 52,
                    "time": 13.6,
                    "velocity": 0.3700787401574803,
                    "duration": 0.15000000000000213
                },
                {
                    "name": "F3",
                    "midi": 53,
                    "time": 13.700000000000001,
                    "velocity": 0.3779527559055118,
                    "duration": 0.15000000000000213
                },
                {
                    "name": "A#3",
                    "midi": 58,
                    "time": 13.800000000000002,
                    "velocity": 0.3937007874015748,
                    "duration": 0.15000000000000213
                },
                {
                    "name": "A3",
                    "midi": 57,
                    "time": 13.900000000000004,
                    "velocity": 0.3858267716535433,
                    "duration": 0.15000000000000213
                },
                {
                    "name": "G3",
                    "midi": 55,
                    "time": 14.000000000000005,
                    "velocity": 0.3779527559055118,
                    "duration": 0.15000000000000213
                },
                {
                    "name": "F3",
                    "midi": 53,
                    "time": 14.100000000000007,
                    "velocity": 0.3700787401574803,
                    "duration": 0.15000000000000213
                },
                {
                    "name": "E3",
                    "midi": 52,
                    "time": 14.200000000000008,
                    "velocity": 0.3543307086614173,
                    "duration": 0.15000000000000213
                },
                {
                    "name": "D3",
                    "midi": 50,
                    "time": 14.30000000000001,
                    "velocity": 0.3464566929133858,
                    "duration": 0.15000000000000213
                },
                {
                    "name": "C#3",
                    "midi": 49,
                    "time": 14.400000000000011,
                    "velocity": 0.3543307086614173,
                    "duration": 0.11250000000000071
                },
                {
                    "name": "D3",
                    "midi": 50,
                    "time": 14.475000000000012,
                    "velocity": 0.3464566929133858,
                    "duration": 0.11249999999999893
                },
                {
                    "name": "E3",
                    "midi": 52,
                    "time": 14.550000000000011,
                    "velocity": 0.3543307086614173,
                    "duration": 0.11249999999999893
                },
                {
                    "name": "F3",
                    "midi": 53,
                    "time": 14.62500000000001,
                    "velocity": 0.36220472440944884,
                    "duration": 0.11249999999999893
                },
                {
                    "name": "G3",
                    "midi": 55,
                    "time": 14.70000000000001,
                    "velocity": 0.3779527559055118,
                    "duration": 0.11249999999999893
                },
                {
                    "name": "A3",
                    "midi": 57,
                    "time": 14.77500000000001,
                    "velocity": 0.3779527559055118,
                    "duration": 0.11249999999999893
                },
                {
                    "name": "A#3",
                    "midi": 58,
                    "time": 14.850000000000009,
                    "velocity": 0.3858267716535433,
                    "duration": 0.11249999999999893
                },
                {
                    "name": "C#4",
                    "midi": 61,
                    "time": 14.925000000000008,
                    "velocity": 0.3858267716535433,
                    "duration": 0.11249999999999893
                },
                {
                    "name": "F4",
                    "midi": 65,
                    "time": 15.000000000000007,
                    "velocity": 0.4015748031496063,
                    "duration": 0.17999999999999972
                },
                {
                    "name": "E4",
                    "midi": 64,
                    "time": 15.120000000000006,
                    "velocity": 0.4015748031496063,
                    "duration": 0.1800000000000015
                },
                {
                    "name": "D4",
                    "midi": 62,
                    "time": 15.240000000000007,
                    "velocity": 0.3937007874015748,
                    "duration": 0.1800000000000015
                },
                {
                    "name": "C#4",
                    "midi": 61,
                    "time": 15.360000000000008,
                    "velocity": 0.3937007874015748,
                    "duration": 0.1800000000000015
                },
                {
                    "name": "A#3",
                    "midi": 58,
                    "time": 15.48000000000001,
                    "velocity": 0.3937007874015748,
                    "duration": 0.1800000000000015
                },
                {
                    "name": "A3",
                    "midi": 57,
                    "time": 15.60000000000001,
                    "velocity": 0.3937007874015748,
                    "duration": 0.15000000000000036
                },
                {
                    "name": "A#3",
                    "midi": 58,
                    "time": 15.70000000000001,
                    "velocity": 0.4015748031496063,
                    "duration": 0.15000000000000213
                },
                {
                    "name": "C#4",
                    "midi": 61,
                    "time": 15.800000000000011,
                    "velocity": 0.4094488188976378,
                    "duration": 0.15000000000000213
                },
                {
                    "name": "D4",
                    "midi": 62,
                    "time": 15.900000000000013,
                    "velocity": 0.41732283464566927,
                    "duration": 0.15000000000000213
                },
                {
                    "name": "E4",
                    "midi": 64,
                    "time": 16.000000000000014,
                    "velocity": 0.4251968503937008,
                    "duration": 0.15000000000000213
                },
                {
                    "name": "F4",
                    "midi": 65,
                    "time": 16.100000000000016,
                    "velocity": 0.4409448818897638,
                    "duration": 0.15000000000000213
                },
                {
                    "name": "A#4",
                    "midi": 70,
                    "time": 16.200000000000017,
                    "velocity": 0.44881889763779526,
                    "duration": 0.15000000000000213
                },
                {
                    "name": "A4",
                    "midi": 69,
                    "time": 16.30000000000002,
                    "velocity": 0.44881889763779526,
                    "duration": 0.15000000000000213
                },
                {
                    "name": "G4",
                    "midi": 67,
                    "time": 16.40000000000002,
                    "velocity": 0.4409448818897638,
                    "duration": 0.15000000000000213
                },
                {
                    "name": "F4",
                    "midi": 65,
                    "time": 16.50000000000002,
                    "velocity": 0.4251968503937008,
                    "duration": 0.15000000000000213
                },
                {
                    "name": "E4",
                    "midi": 64,
                    "time": 16.600000000000023,
                    "velocity": 0.41732283464566927,
                    "duration": 0.15000000000000213
                },
                {
                    "name": "D4",
                    "midi": 62,
                    "time": 16.700000000000024,
                    "velocity": 0.4094488188976378,
                    "duration": 0.15000000000000213
                },
                {
                    "name": "C#4",
                    "midi": 61,
                    "time": 16.800000000000026,
                    "velocity": 0.41732283464566927,
                    "duration": 0.11250000000000071
                },
                {
                    "name": "D4",
                    "midi": 62,
                    "time": 16.875000000000025,
                    "velocity": 0.4251968503937008,
                    "duration": 0.11250000000000426
                },
                {
                    "name": "E4",
                    "midi": 64,
                    "time": 16.950000000000028,
                    "velocity": 0.4409448818897638,
                    "duration": 0.11250000000000426
                },
                {
                    "name": "F4",
                    "midi": 65,
                    "time": 17.02500000000003,
                    "velocity": 0.4409448818897638,
                    "duration": 0.11250000000000426
                },
                {
                    "name": "G4",
                    "midi": 67,
                    "time": 17.100000000000033,
                    "velocity": 0.44881889763779526,
                    "duration": 0.11250000000000426
                },
                {
                    "name": "A4",
                    "midi": 69,
                    "time": 17.175000000000036,
                    "velocity": 0.44881889763779526,
                    "duration": 0.11250000000000426
                },
                {
                    "name": "A#4",
                    "midi": 70,
                    "time": 17.25000000000004,
                    "velocity": 0.4645669291338583,
                    "duration": 0.11250000000000426
                },
                {
                    "name": "C#5",
                    "midi": 73,
                    "time": 17.325000000000042,
                    "velocity": 0.47244094488188976,
                    "duration": 0.11250000000000426
                },
                {
                    "name": "F5",
                    "midi": 77,
                    "time": 17.400000000000045,
                    "velocity": 0.48031496062992124,
                    "duration": 0.17999999999999972
                },
                {
                    "name": "E5",
                    "midi": 76,
                    "time": 17.520000000000046,
                    "velocity": 0.48031496062992124,
                    "duration": 0.17999999999999616
                },
                {
                    "name": "D5",
                    "midi": 74,
                    "time": 17.640000000000043,
                    "velocity": 0.47244094488188976,
                    "duration": 0.17999999999999616
                },
                {
                    "name": "C#5",
                    "midi": 73,
                    "time": 17.76000000000004,
                    "velocity": 0.4645669291338583,
                    "duration": 0.17999999999999616
                },
                {
                    "name": "A#4",
                    "midi": 70,
                    "time": 17.880000000000038,
                    "velocity": 0.4566929133858268,
                    "duration": 0.17999999999999616
                },
                {
                    "name": "A4",
                    "midi": 69,
                    "time": 18.000000000000036,
                    "velocity": 0.4566929133858268,
                    "duration": 0.14999999999999858
                },
                {
                    "name": "A#4",
                    "midi": 70,
                    "time": 18.100000000000033,
                    "velocity": 0.4566929133858268,
                    "duration": 0.15000000000000213
                },
                {
                    "name": "C#5",
                    "midi": 73,
                    "time": 18.200000000000035,
                    "velocity": 0.47244094488188976,
                    "duration": 0.15000000000000213
                },
                {
                    "name": "D5",
                    "midi": 74,
                    "time": 18.300000000000036,
                    "velocity": 0.48031496062992124,
                    "duration": 0.15000000000000213
                },
                {
                    "name": "E5",
                    "midi": 76,
                    "time": 18.400000000000038,
                    "velocity": 0.4881889763779528,
                    "duration": 0.15000000000000213
                },
                {
                    "name": "F5",
                    "midi": 77,
                    "time": 18.50000000000004,
                    "velocity": 0.49606299212598426,
                    "duration": 0.15000000000000213
                },
                {
                    "name": "A#5",
                    "midi": 82,
                    "time": 18.60000000000004,
                    "velocity": 0.49606299212598426,
                    "duration": 0.15000000000000213
                },
                {
                    "name": "A5",
                    "midi": 81,
                    "time": 18.700000000000042,
                    "velocity": 0.49606299212598426,
                    "duration": 0.15000000000000213
                },
                {
                    "name": "G5",
                    "midi": 79,
                    "time": 18.800000000000043,
                    "velocity": 0.4881889763779528,
                    "duration": 0.15000000000000213
                },
                {
                    "name": "F5",
                    "midi": 77,
                    "time": 18.900000000000045,
                    "velocity": 0.48031496062992124,
                    "duration": 0.15000000000000213
                },
                {
                    "name": "E5",
                    "midi": 76,
                    "time": 19.000000000000046,
                    "velocity": 0.47244094488188976,
                    "duration": 0.15000000000000213
                },
                {
                    "name": "D5",
                    "midi": 74,
                    "time": 19.100000000000048,
                    "velocity": 0.4645669291338583,
                    "duration": 0.15000000000000213
                },
                {
                    "name": "C#5",
                    "midi": 73,
                    "time": 19.20000000000005,
                    "velocity": 0.4566929133858268,
                    "duration": 0.11250000000000071
                },
                {
                    "name": "D5",
                    "midi": 74,
                    "time": 19.27500000000005,
                    "velocity": 0.4566929133858268,
                    "duration": 0.11250000000000426
                },
                {
                    "name": "E5",
                    "midi": 76,
                    "time": 19.35000000000005,
                    "velocity": 0.4645669291338583,
                    "duration": 0.11250000000000426
                },
                {
                    "name": "F5",
                    "midi": 77,
                    "time": 19.425000000000054,
                    "velocity": 0.47244094488188976,
                    "duration": 0.11250000000000426
                },
                {
                    "name": "G5",
                    "midi": 79,
                    "time": 19.500000000000057,
                    "velocity": 0.4881889763779528,
                    "duration": 0.11250000000000426
                },
                {
                    "name": "A5",
                    "midi": 81,
                    "time": 19.57500000000006,
                    "velocity": 0.49606299212598426,
                    "duration": 0.11250000000000426
                },
                {
                    "name": "A#5",
                    "midi": 82,
                    "time": 19.650000000000063,
                    "velocity": 0.5039370078740157,
                    "duration": 0.11250000000000426
                },
                {
                    "name": "C#6",
                    "midi": 85,
                    "time": 19.725000000000065,
                    "velocity": 0.5118110236220472,
                    "duration": 0.11250000000000426
                },
                {
                    "name": "F6",
                    "midi": 89,
                    "time": 19.800000000000068,
                    "velocity": 0.5196850393700787,
                    "duration": 0.17999999999999972
                },
                {
                    "name": "E6",
                    "midi": 88,
                    "time": 19.92000000000007,
                    "velocity": 0.5196850393700787,
                    "duration": 0.17999999999999616
                },
                {
                    "name": "D6",
                    "midi": 86,
                    "time": 20.040000000000067,
                    "velocity": 0.5118110236220472,
                    "duration": 0.17999999999999616
                },
                {
                    "name": "C#6",
                    "midi": 85,
                    "time": 20.160000000000064,
                    "velocity": 0.5118110236220472,
                    "duration": 0.17999999999999616
                },
                {
                    "name": "A#5",
                    "midi": 82,
                    "time": 20.28000000000006,
                    "velocity": 0.5039370078740157,
                    "duration": 0.17999999999999616
                },
                {
                    "name": "A5",
                    "midi": 81,
                    "time": 20.40000000000006,
                    "velocity": 0.5118110236220472,
                    "duration": 0.17999999999999616
                },
                {
                    "name": "A#5",
                    "midi": 82,
                    "time": 20.520000000000056,
                    "velocity": 0.5354330708661418,
                    "duration": 0.17999999999999616
                },
                {
                    "name": "C#6",
                    "midi": 85,
                    "time": 20.640000000000054,
                    "velocity": 0.5511811023622047,
                    "duration": 0.17999999999999616
                },
                {
                    "name": "D6",
                    "midi": 86,
                    "time": 20.76000000000005,
                    "velocity": 0.5590551181102362,
                    "duration": 0.17999999999999616
                },
                {
                    "name": "E6",
                    "midi": 88,
                    "time": 20.88000000000005,
                    "velocity": 0.5669291338582677,
                    "duration": 0.17999999999999616
                },
                {
                    "name": "F6",
                    "midi": 89,
                    "time": 21.000000000000046,
                    "velocity": 0.5826771653543307,
                    "duration": 0.17999999999999616
                },
                {
                    "name": "G6",
                    "midi": 91,
                    "time": 21.120000000000044,
                    "velocity": 0.5984251968503937,
                    "duration": 0.17999999999999616
                },
                {
                    "name": "A6",
                    "midi": 93,
                    "time": 21.24000000000004,
                    "velocity": 0.6141732283464567,
                    "duration": 0.17999999999999616
                },
                {
                    "name": "A#6",
                    "midi": 94,
                    "time": 21.36000000000004,
                    "velocity": 0.6299212598425197,
                    "duration": 0.17999999999999616
                },
                {
                    "name": "C#7",
                    "midi": 97,
                    "time": 21.480000000000036,
                    "velocity": 0.6377952755905512,
                    "duration": 0.17999999999999616
                },
                {
                    "name": "F7",
                    "midi": 101,
                    "time": 21.600000000000033,
                    "velocity": 0.6692913385826772,
                    "duration": 0.07499999999999929
                },
                {
                    "name": "E7",
                    "midi": 100,
                    "time": 21.675000000000033,
                    "velocity": 0.6692913385826772,
                    "duration": 0.07499999999999929
                },
                {
                    "name": "D7",
                    "midi": 98,
                    "time": 21.750000000000032,
                    "velocity": 0.6614173228346457,
                    "duration": 0.07499999999999929
                },
                {
                    "name": "C#7",
                    "midi": 97,
                    "time": 21.82500000000003,
                    "velocity": 0.6614173228346457,
                    "duration": 0.07499999999999929
                },
                {
                    "name": "A#6",
                    "midi": 94,
                    "time": 21.90000000000003,
                    "velocity": 0.6535433070866141,
                    "duration": 0.07499999999999929
                },
                {
                    "name": "A6",
                    "midi": 93,
                    "time": 21.97500000000003,
                    "velocity": 0.6535433070866141,
                    "duration": 0.07499999999999929
                },
                {
                    "name": "G6",
                    "midi": 91,
                    "time": 22.05000000000003,
                    "velocity": 0.6535433070866141,
                    "duration": 0.07499999999999929
                },
                {
                    "name": "F6",
                    "midi": 89,
                    "time": 22.12500000000003,
                    "velocity": 0.6456692913385826,
                    "duration": 0.07499999999999929
                },
                {
                    "name": "E6",
                    "midi": 88,
                    "time": 22.200000000000028,
                    "velocity": 0.6456692913385826,
                    "duration": 0.07499999999999929
                },
                {
                    "name": "D6",
                    "midi": 86,
                    "time": 22.275000000000027,
                    "velocity": 0.6377952755905512,
                    "duration": 0.07499999999999929
                },
                {
                    "name": "C#6",
                    "midi": 85,
                    "time": 22.350000000000026,
                    "velocity": 0.6377952755905512,
                    "duration": 0.07499999999999929
                },
                {
                    "name": "A#5",
                    "midi": 82,
                    "time": 22.425000000000026,
                    "velocity": 0.6299212598425197,
                    "duration": 0.07499999999999929
                },
                {
                    "name": "A5",
                    "midi": 81,
                    "time": 22.500000000000025,
                    "velocity": 0.6299212598425197,
                    "duration": 0.07499999999999929
                },
                {
                    "name": "G5",
                    "midi": 79,
                    "time": 22.575000000000024,
                    "velocity": 0.6299212598425197,
                    "duration": 0.07499999999999929
                },
                {
                    "name": "F5",
                    "midi": 77,
                    "time": 22.650000000000023,
                    "velocity": 0.6220472440944882,
                    "duration": 0.07499999999999929
                },
                {
                    "name": "E5",
                    "midi": 76,
                    "time": 22.725000000000023,
                    "velocity": 0.6220472440944882,
                    "duration": 0.07499999999999929
                },
                {
                    "name": "D5",
                    "midi": 74,
                    "time": 22.800000000000022,
                    "velocity": 0.6220472440944882,
                    "duration": 0.07499999999999929
                },
                {
                    "name": "C#5",
                    "midi": 73,
                    "time": 22.87500000000002,
                    "velocity": 0.6220472440944882,
                    "duration": 0.07499999999999929
                },
                {
                    "name": "A#4",
                    "midi": 70,
                    "time": 22.95000000000002,
                    "velocity": 0.6141732283464567,
                    "duration": 0.07499999999999929
                },
                {
                    "name": "A4",
                    "midi": 69,
                    "time": 23.02500000000002,
                    "velocity": 0.6141732283464567,
                    "duration": 0.07499999999999929
                },
                {
                    "name": "G4",
                    "midi": 67,
                    "time": 23.10000000000002,
                    "velocity": 0.6141732283464567,
                    "duration": 0.07499999999999929
                },
                {
                    "name": "F4",
                    "midi": 65,
                    "time": 23.17500000000002,
                    "velocity": 0.6062992125984252,
                    "duration": 0.07499999999999929
                },
                {
                    "name": "E4",
                    "midi": 64,
                    "time": 23.250000000000018,
                    "velocity": 0.6062992125984252,
                    "duration": 0.07499999999999929
                },
                {
                    "name": "D4",
                    "midi": 62,
                    "time": 23.325000000000017,
                    "velocity": 0.6062992125984252,
                    "duration": 0.07499999999999929
                },
                {
                    "name": "C#4",
                    "midi": 61,
                    "time": 23.400000000000016,
                    "velocity": 0.6141732283464567,
                    "duration": 0.07499999999999929
                },
                {
                    "name": "A#3",
                    "midi": 58,
                    "time": 23.475000000000016,
                    "velocity": 0.6141732283464567,
                    "duration": 0.07499999999999929
                },
                {
                    "name": "A3",
                    "midi": 57,
                    "time": 23.550000000000015,
                    "velocity": 0.6220472440944882,
                    "duration": 0.07499999999999929
                },
                {
                    "name": "G3",
                    "midi": 55,
                    "time": 23.625000000000014,
                    "velocity": 0.6299212598425197,
                    "duration": 0.07499999999999929
                },
                {
                    "name": "F3",
                    "midi": 53,
                    "time": 23.700000000000014,
                    "velocity": 0.6377952755905512,
                    "duration": 0.07499999999999929
                },
                {
                    "name": "E3",
                    "midi": 52,
                    "time": 23.775000000000013,
                    "velocity": 0.6456692913385826,
                    "duration": 0.07499999999999929
                },
                {
                    "name": "D3",
                    "midi": 50,
                    "time": 23.850000000000012,
                    "velocity": 0.6456692913385826,
                    "duration": 0.07499999999999929
                },
                {
                    "name": "C#3",
                    "midi": 49,
                    "time": 23.92500000000001,
                    "velocity": 0.6456692913385826,
                    "duration": 0.07499999999999929
                },
                {
                    "name": "A#2",
                    "midi": 46,
                    "time": 24.00000000000001,
                    "velocity": 0.6299212598425197,
                    "duration": 0.05999999999999872
                },
                {
                    "name": "A2",
                    "midi": 45,
                    "time": 24.06000000000001,
                    "velocity": 0.6299212598425197,
                    "duration": 0.05999999999999872
                },
                {
                    "name": "G2",
                    "midi": 43,
                    "time": 24.120000000000008,
                    "velocity": 0.6456692913385826,
                    "duration": 0.05999999999999872
                },
                {
                    "name": "F2",
                    "midi": 41,
                    "time": 24.180000000000007,
                    "velocity": 0.6535433070866141,
                    "duration": 0.05999999999999872
                },
                {
                    "name": "E2",
                    "midi": 40,
                    "time": 24.240000000000006,
                    "velocity": 0.6614173228346457,
                    "duration": 0.05999999999999872
                },
                {
                    "name": "D6",
                    "midi": 86,
                    "time": 24.300000000000004,
                    "velocity": 0.7637795275590551,
                    "duration": 1.1999999999999922
                },
                {
                    "name": "F5",
                    "midi": 77,
                    "time": 24.300000000000004,
                    "velocity": 0.5984251968503937,
                    "duration": 1.1999999999999922
                },
                {
                    "name": "D5",
                    "midi": 74,
                    "time": 24.300000000000004,
                    "velocity": 0.5984251968503937,
                    "duration": 1.1999999999999922
                },
                {
                    "name": "E3",
                    "midi": 52,
                    "time": 24.600000000000005,
                    "velocity": 0.3779527559055118,
                    "duration": 0.14999999999999858
                },
                {
                    "name": "G#3",
                    "midi": 56,
                    "time": 24.600000000000005,
                    "velocity": 0.47244094488188976,
                    "duration": 0.14999999999999858
                },
                {
                    "name": "A3",
                    "midi": 57,
                    "time": 24.750000000000004,
                    "velocity": 0.49606299212598426,
                    "duration": 0.14999999999999858
                },
                {
                    "name": "F3",
                    "midi": 53,
                    "time": 24.750000000000004,
                    "velocity": 0.3937007874015748,
                    "duration": 0.14999999999999858
                },
                {
                    "name": "E4",
                    "midi": 64,
                    "time": 24.900000000000002,
                    "velocity": 0.5118110236220472,
                    "duration": 0.14999999999999858
                },
                {
                    "name": "C#4",
                    "midi": 61,
                    "time": 24.900000000000002,
                    "velocity": 0.4015748031496063,
                    "duration": 0.14999999999999858
                },
                {
                    "name": "D4",
                    "midi": 62,
                    "time": 25.05,
                    "velocity": 0.4251968503937008,
                    "duration": 0.14999999999999858
                },
                {
                    "name": "F4",
                    "midi": 65,
                    "time": 25.05,
                    "velocity": 0.5275590551181102,
                    "duration": 0.14999999999999858
                },
                {
                    "name": "E4",
                    "midi": 64,
                    "time": 25.2,
                    "velocity": 0.4330708661417323,
                    "duration": 0.14999999999999858
                },
                {
                    "name": "G#4",
                    "midi": 68,
                    "time": 25.2,
                    "velocity": 0.5433070866141733,
                    "duration": 0.14999999999999858
                },
                {
                    "name": "F4",
                    "midi": 65,
                    "time": 25.349999999999998,
                    "velocity": 0.4409448818897638,
                    "duration": 0.14999999999999858
                },
                {
                    "name": "A4",
                    "midi": 69,
                    "time": 25.349999999999998,
                    "velocity": 0.5590551181102362,
                    "duration": 0.14999999999999858
                },
                {
                    "name": "F5",
                    "midi": 77,
                    "time": 25.499999999999996,
                    "velocity": 0.6220472440944882,
                    "duration": 0.5999999999999979
                },
                {
                    "name": "D5",
                    "midi": 74,
                    "time": 25.499999999999996,
                    "velocity": 0.5905511811023622,
                    "duration": 0.5999999999999979
                },
                {
                    "name": "D6",
                    "midi": 86,
                    "time": 25.499999999999996,
                    "velocity": 0.7952755905511811,
                    "duration": 0.5999999999999979
                },
                {
                    "name": "E3",
                    "midi": 52,
                    "time": 25.799999999999997,
                    "velocity": 0.3779527559055118,
                    "duration": 0.14999999999999858
                },
                {
                    "name": "G#3",
                    "midi": 56,
                    "time": 25.799999999999997,
                    "velocity": 0.47244094488188976,
                    "duration": 0.14999999999999858
                },
                {
                    "name": "F3",
                    "midi": 53,
                    "time": 25.949999999999996,
                    "velocity": 0.3937007874015748,
                    "duration": 0.14999999999999858
                },
                {
                    "name": "A3",
                    "midi": 57,
                    "time": 25.949999999999996,
                    "velocity": 0.49606299212598426,
                    "duration": 0.14999999999999858
                },
                {
                    "name": "C#4",
                    "midi": 61,
                    "time": 26.099999999999994,
                    "velocity": 0.4015748031496063,
                    "duration": 0.14999999999999858
                },
                {
                    "name": "E4",
                    "midi": 64,
                    "time": 26.099999999999994,
                    "velocity": 0.5118110236220472,
                    "duration": 0.14999999999999858
                },
                {
                    "name": "D4",
                    "midi": 62,
                    "time": 26.249999999999993,
                    "velocity": 0.4251968503937008,
                    "duration": 0.14999999999999858
                },
                {
                    "name": "F4",
                    "midi": 65,
                    "time": 26.249999999999993,
                    "velocity": 0.5275590551181102,
                    "duration": 0.14999999999999858
                },
                {
                    "name": "E4",
                    "midi": 64,
                    "time": 26.39999999999999,
                    "velocity": 0.5433070866141733,
                    "duration": 0.14999999999999858
                },
                {
                    "name": "G#4",
                    "midi": 68,
                    "time": 26.39999999999999,
                    "velocity": 0.5433070866141733,
                    "duration": 0.14999999999999858
                },
                {
                    "name": "F4",
                    "midi": 65,
                    "time": 26.54999999999999,
                    "velocity": 0.4409448818897638,
                    "duration": 0.14999999999999858
                },
                {
                    "name": "A4",
                    "midi": 69,
                    "time": 26.54999999999999,
                    "velocity": 0.5590551181102362,
                    "duration": 0.14999999999999858
                },
                {
                    "name": "C6",
                    "midi": 84,
                    "time": 26.62499999999999,
                    "velocity": 0.7007874015748031,
                    "duration": 0.07499999999999929
                },
                {
                    "name": "C5",
                    "midi": 72,
                    "time": 26.62499999999999,
                    "velocity": 0.5511811023622047,
                    "duration": 0.07499999999999929
                },
                {
                    "name": "A#4",
                    "midi": 70,
                    "time": 26.69999999999999,
                    "velocity": 0.5905511811023622,
                    "duration": 1.1999999999999922
                },
                {
                    "name": "E5",
                    "midi": 76,
                    "time": 26.69999999999999,
                    "velocity": 0.6062992125984252,
                    "duration": 1.1999999999999922
                },
                {
                    "name": "A#5",
                    "midi": 82,
                    "time": 26.69999999999999,
                    "velocity": 0.7874015748031497,
                    "duration": 1.1999999999999922
                },
                {
                    "name": "F#3",
                    "midi": 54,
                    "time": 26.99999999999999,
                    "velocity": 0.3779527559055118,
                    "duration": 0.14999999999999858
                },
                {
                    "name": "A3",
                    "midi": 57,
                    "time": 26.99999999999999,
                    "velocity": 0.47244094488188976,
                    "duration": 0.14999999999999858
                },
                {
                    "name": "A#3",
                    "midi": 58,
                    "time": 27.149999999999988,
                    "velocity": 0.49606299212598426,
                    "duration": 0.14999999999999858
                },
                {
                    "name": "G3",
                    "midi": 55,
                    "time": 27.149999999999988,
                    "velocity": 0.3937007874015748,
                    "duration": 0.14999999999999858
                },
                {
                    "name": "D#4",
                    "midi": 63,
                    "time": 27.299999999999986,
                    "velocity": 0.4015748031496063,
                    "duration": 0.14999999999999858
                },
                {
                    "name": "F#4",
                    "midi": 66,
                    "time": 27.299999999999986,
                    "velocity": 0.5118110236220472,
                    "duration": 0.14999999999999858
                },
                {
                    "name": "E4",
                    "midi": 64,
                    "time": 27.449999999999985,
                    "velocity": 0.4251968503937008,
                    "duration": 0.14999999999999858
                },
                {
                    "name": "G4",
                    "midi": 67,
                    "time": 27.449999999999985,
                    "velocity": 0.5275590551181102,
                    "duration": 0.14999999999999858
                },
                {
                    "name": "A4",
                    "midi": 69,
                    "time": 27.599999999999984,
                    "velocity": 0.5433070866141733,
                    "duration": 0.14999999999999858
                },
                {
                    "name": "F#4",
                    "midi": 66,
                    "time": 27.599999999999984,
                    "velocity": 0.4330708661417323,
                    "duration": 0.14999999999999858
                },
                {
                    "name": "A#4",
                    "midi": 70,
                    "time": 27.749999999999982,
                    "velocity": 0.5590551181102362,
                    "duration": 0.14999999999999858
                },
                {
                    "name": "G4",
                    "midi": 67,
                    "time": 27.749999999999982,
                    "velocity": 0.4409448818897638,
                    "duration": 0.14999999999999858
                },
                {
                    "name": "E5",
                    "midi": 76,
                    "time": 27.89999999999998,
                    "velocity": 0.5669291338582677,
                    "duration": 0.5999999999999979
                },
                {
                    "name": "A#5",
                    "midi": 82,
                    "time": 27.89999999999998,
                    "velocity": 0.7244094488188977,
                    "duration": 0.5999999999999979
                },
                {
                    "name": "A#4",
                    "midi": 70,
                    "time": 27.89999999999998,
                    "velocity": 0.5669291338582677,
                    "duration": 0.5999999999999979
                },
                {
                    "name": "A3",
                    "midi": 57,
                    "time": 28.19999999999998,
                    "velocity": 0.47244094488188976,
                    "duration": 0.14999999999999858
                },
                {
                    "name": "F#3",
                    "midi": 54,
                    "time": 28.19999999999998,
                    "velocity": 0.3779527559055118,
                    "duration": 0.14999999999999858
                },
                {
                    "name": "A#3",
                    "midi": 58,
                    "time": 28.34999999999998,
                    "velocity": 0.49606299212598426,
                    "duration": 0.14999999999999858
                },
                {
                    "name": "G3",
                    "midi": 55,
                    "time": 28.34999999999998,
                    "velocity": 0.3937007874015748,
                    "duration": 0.14999999999999858
                },
                {
                    "name": "D#4",
                    "midi": 63,
                    "time": 28.49999999999998,
                    "velocity": 0.4015748031496063,
                    "duration": 0.14999999999999858
                },
                {
                    "name": "F#4",
                    "midi": 66,
                    "time": 28.49999999999998,
                    "velocity": 0.5118110236220472,
                    "duration": 0.14999999999999858
                },
                {
                    "name": "G4",
                    "midi": 67,
                    "time": 28.649999999999977,
                    "velocity": 0.5275590551181102,
                    "duration": 0.14999999999999858
                },
                {
                    "name": "E4",
                    "midi": 64,
                    "time": 28.649999999999977,
                    "velocity": 0.4251968503937008,
                    "duration": 0.14999999999999858
                },
                {
                    "name": "A4",
                    "midi": 69,
                    "time": 28.799999999999976,
                    "velocity": 0.5433070866141733,
                    "duration": 0.14999999999999858
                },
                {
                    "name": "F#4",
                    "midi": 66,
                    "time": 28.799999999999976,
                    "velocity": 0.5433070866141733,
                    "duration": 0.14999999999999858
                },
                {
                    "name": "A#4",
                    "midi": 70,
                    "time": 28.949999999999974,
                    "velocity": 0.5590551181102362,
                    "duration": 0.07499999999999929
                },
                {
                    "name": "G4",
                    "midi": 67,
                    "time": 28.949999999999974,
                    "velocity": 0.4409448818897638,
                    "duration": 0.07499999999999929
                },
                {
                    "name": "A#4",
                    "midi": 70,
                    "time": 29.024999999999974,
                    "velocity": 0.5511811023622047,
                    "duration": 0.07499999999999929
                },
                {
                    "name": "A#5",
                    "midi": 82,
                    "time": 29.024999999999974,
                    "velocity": 0.7007874015748031,
                    "duration": 0.07499999999999929
                },
                {
                    "name": "A5",
                    "midi": 81,
                    "time": 29.099999999999973,
                    "velocity": 0.7480314960629921,
                    "duration": 0.5999999999999979
                },
                {
                    "name": "E5",
                    "midi": 76,
                    "time": 29.099999999999973,
                    "velocity": 0.5905511811023622,
                    "duration": 0.5999999999999979
                },
                {
                    "name": "A4",
                    "midi": 69,
                    "time": 29.099999999999973,
                    "velocity": 0.5905511811023622,
                    "duration": 0.5999999999999979
                },
                {
                    "name": "D#3",
                    "midi": 51,
                    "time": 29.399999999999974,
                    "velocity": 0.3779527559055118,
                    "duration": 0.14999999999999858
                },
                {
                    "name": "F#3",
                    "midi": 54,
                    "time": 29.399999999999974,
                    "velocity": 0.47244094488188976,
                    "duration": 0.14999999999999858
                },
                {
                    "name": "E3",
                    "midi": 52,
                    "time": 29.549999999999972,
                    "velocity": 0.3937007874015748,
                    "duration": 0.14999999999999858
                },
                {
                    "name": "G3",
                    "midi": 55,
                    "time": 29.549999999999972,
                    "velocity": 0.49606299212598426,
                    "duration": 0.14999999999999858
                },
                {
                    "name": "C4",
                    "midi": 60,
                    "time": 29.69999999999997,
                    "velocity": 0.4015748031496063,
                    "duration": 0.14999999999999858
                },
                {
                    "name": "D#4",
                    "midi": 63,
                    "time": 29.69999999999997,
                    "velocity": 0.5118110236220472,
                    "duration": 0.14999999999999858
                },
                {
                    "name": "C#4",
                    "midi": 61,
                    "time": 29.84999999999997,
                    "velocity": 0.4251968503937008,
                    "duration": 0.14999999999999858
                },
                {
                    "name": "E4",
                    "midi": 64,
                    "time": 29.84999999999997,
                    "velocity": 0.5275590551181102,
                    "duration": 0.14999999999999858
                },
                {
                    "name": "F#4",
                    "midi": 66,
                    "time": 29.999999999999968,
                    "velocity": 0.5433070866141733,
                    "duration": 0.14999999999999858
                },
                {
                    "name": "D#4",
                    "midi": 63,
                    "time": 29.999999999999968,
                    "velocity": 0.5433070866141733,
                    "duration": 0.14999999999999858
                },
                {
                    "name": "E4",
                    "midi": 64,
                    "time": 30.149999999999967,
                    "velocity": 0.4409448818897638,
                    "duration": 0.14999999999999858
                },
                {
                    "name": "G4",
                    "midi": 67,
                    "time": 30.149999999999967,
                    "velocity": 0.5590551181102362,
                    "duration": 0.14999999999999858
                },
                {
                    "name": "A4",
                    "midi": 69,
                    "time": 30.224999999999966,
                    "velocity": 0.5511811023622047,
                    "duration": 0.07499999999999929
                },
                {
                    "name": "A5",
                    "midi": 81,
                    "time": 30.224999999999966,
                    "velocity": 0.7007874015748031,
                    "duration": 0.07499999999999929
                },
                {
                    "name": "G5",
                    "midi": 79,
                    "time": 30.299999999999965,
                    "velocity": 0.5905511811023622,
                    "duration": 0.5999999999999979
                },
                {
                    "name": "E6",
                    "midi": 88,
                    "time": 30.299999999999965,
                    "velocity": 0.7480314960629921,
                    "duration": 0.5999999999999979
                },
                {
                    "name": "E5",
                    "midi": 76,
                    "time": 30.299999999999965,
                    "velocity": 0.5905511811023622,
                    "duration": 0.5999999999999979
                },
                {
                    "name": "D#3",
                    "midi": 51,
                    "time": 30.599999999999966,
                    "velocity": 0.3779527559055118,
                    "duration": 0.14999999999999858
                },
                {
                    "name": "F#3",
                    "midi": 54,
                    "time": 30.599999999999966,
                    "velocity": 0.47244094488188976,
                    "duration": 0.14999999999999858
                },
                {
                    "name": "E3",
                    "midi": 52,
                    "time": 30.749999999999964,
                    "velocity": 0.3937007874015748,
                    "duration": 0.14999999999999858
                },
                {
                    "name": "G3",
                    "midi": 55,
                    "time": 30.749999999999964,
                    "velocity": 0.49606299212598426,
                    "duration": 0.14999999999999858
                },
                {
                    "name": "C4",
                    "midi": 60,
                    "time": 30.899999999999963,
                    "velocity": 0.4015748031496063,
                    "duration": 0.14999999999999858
                },
                {
                    "name": "D#4",
                    "midi": 63,
                    "time": 30.899999999999963,
                    "velocity": 0.5118110236220472,
                    "duration": 0.14999999999999858
                },
                {
                    "name": "E4",
                    "midi": 64,
                    "time": 31.04999999999996,
                    "velocity": 0.5275590551181102,
                    "duration": 0.14999999999999858
                },
                {
                    "name": "C#4",
                    "midi": 61,
                    "time": 31.04999999999996,
                    "velocity": 0.4251968503937008,
                    "duration": 0.14999999999999858
                },
                {
                    "name": "F#4",
                    "midi": 66,
                    "time": 31.19999999999996,
                    "velocity": 0.5433070866141733,
                    "duration": 0.14999999999999858
                },
                {
                    "name": "D#4",
                    "midi": 63,
                    "time": 31.19999999999996,
                    "velocity": 0.5433070866141733,
                    "duration": 0.14999999999999858
                },
                {
                    "name": "G4",
                    "midi": 67,
                    "time": 31.34999999999996,
                    "velocity": 0.5590551181102362,
                    "duration": 0.07499999999999929
                },
                {
                    "name": "E4",
                    "midi": 64,
                    "time": 31.34999999999996,
                    "velocity": 0.4409448818897638,
                    "duration": 0.07499999999999929
                },
                {
                    "name": "G5",
                    "midi": 79,
                    "time": 31.424999999999958,
                    "velocity": 0.6299212598425197,
                    "duration": 0.07499999999999929
                },
                {
                    "name": "G4",
                    "midi": 67,
                    "time": 31.424999999999958,
                    "velocity": 0.4881889763779528,
                    "duration": 0.07499999999999929
                },
                {
                    "name": "F4",
                    "midi": 65,
                    "time": 31.499999999999957,
                    "velocity": 0.5275590551181102,
                    "duration": 0.6000000000000014
                },
                {
                    "name": "A4",
                    "midi": 69,
                    "time": 31.499999999999957,
                    "velocity": 0.5275590551181102,
                    "duration": 0.6000000000000014
                },
                {
                    "name": "F5",
                    "midi": 77,
                    "time": 31.499999999999957,
                    "velocity": 0.6692913385826772,
                    "duration": 0.6000000000000014
                },
                {
                    "name": "G#3",
                    "midi": 56,
                    "time": 31.799999999999958,
                    "velocity": 0.3937007874015748,
                    "duration": 0.14999999999999858
                },
                {
                    "name": "E3",
                    "midi": 52,
                    "time": 31.799999999999958,
                    "velocity": 0.2992125984251969,
                    "duration": 0.14999999999999858
                },
                {
                    "name": "F3",
                    "midi": 53,
                    "time": 31.949999999999957,
                    "velocity": 0.3228346456692913,
                    "duration": 0.15000000000000213
                },
                {
                    "name": "A3",
                    "midi": 57,
                    "time": 31.949999999999957,
                    "velocity": 0.4015748031496063,
                    "duration": 0.15000000000000213
                },
                {
                    "name": "E4",
                    "midi": 64,
                    "time": 32.09999999999996,
                    "velocity": 0.41732283464566927,
                    "duration": 0.14999999999999858
                },
                {
                    "name": "C#4",
                    "midi": 61,
                    "time": 32.09999999999996,
                    "velocity": 0.3228346456692913,
                    "duration": 0.14999999999999858
                },
                {
                    "name": "D4",
                    "midi": 62,
                    "time": 32.24999999999996,
                    "velocity": 0.33858267716535434,
                    "duration": 0.14999999999999858
                },
                {
                    "name": "F4",
                    "midi": 65,
                    "time": 32.24999999999996,
                    "velocity": 0.4251968503937008,
                    "duration": 0.14999999999999858
                },
                {
                    "name": "G#4",
                    "midi": 68,
                    "time": 32.399999999999956,
                    "velocity": 0.4330708661417323,
                    "duration": 0.14999999999999858
                },
                {
                    "name": "E4",
                    "midi": 64,
                    "time": 32.399999999999956,
                    "velocity": 0.4330708661417323,
                    "duration": 0.14999999999999858
                },
                {
                    "name": "A4",
                    "midi": 69,
                    "time": 32.549999999999955,
                    "velocity": 0.4409448818897638,
                    "duration": 0.07500000000000284
                },
                {
                    "name": "F4",
                    "midi": 65,
                    "time": 32.549999999999955,
                    "velocity": 0.3464566929133858,
                    "duration": 0.07500000000000284
                },
                {
                    "name": "A4",
                    "midi": 69,
                    "time": 32.62499999999996,
                    "velocity": 0.5039370078740157,
                    "duration": 0.07500000000000284
                },
                {
                    "name": "A5",
                    "midi": 81,
                    "time": 32.62499999999996,
                    "velocity": 0.6456692913385826,
                    "duration": 0.07500000000000284
                },
                {
                    "name": "D4",
                    "midi": 62,
                    "time": 32.69999999999996,
                    "velocity": 0.5511811023622047,
                    "duration": 0.5999999999999943
                },
                {
                    "name": "D5",
                    "midi": 74,
                    "time": 32.69999999999996,
                    "velocity": 0.6929133858267716,
                    "duration": 0.5999999999999943
                },
                {
                    "name": "F4",
                    "midi": 65,
                    "time": 32.69999999999996,
                    "velocity": 0.5511811023622047,
                    "duration": 0.5999999999999943
                },
                {
                    "name": "G#3",
                    "midi": 56,
                    "time": 32.99999999999996,
                    "velocity": 0.3858267716535433,
                    "duration": 0.14999999999999858
                },
                {
                    "name": "E3",
                    "midi": 52,
                    "time": 32.99999999999996,
                    "velocity": 0.2992125984251969,
                    "duration": 0.14999999999999858
                },
                {
                    "name": "A3",
                    "midi": 57,
                    "time": 33.149999999999956,
                    "velocity": 0.3937007874015748,
                    "duration": 0.14999999999999858
                },
                {
                    "name": "F3",
                    "midi": 53,
                    "time": 33.149999999999956,
                    "velocity": 0.30708661417322836,
                    "duration": 0.14999999999999858
                },
                {
                    "name": "C#4",
                    "midi": 61,
                    "time": 33.299999999999955,
                    "velocity": 0.3228346456692913,
                    "duration": 0.14999999999999858
                },
                {
                    "name": "E4",
                    "midi": 64,
                    "time": 33.299999999999955,
                    "velocity": 0.4015748031496063,
                    "duration": 0.14999999999999858
                },
                {
                    "name": "F4",
                    "midi": 65,
                    "time": 33.44999999999995,
                    "velocity": 0.4094488188976378,
                    "duration": 0.14999999999999858
                },
                {
                    "name": "D4",
                    "midi": 62,
                    "time": 33.44999999999995,
                    "velocity": 0.33070866141732286,
                    "duration": 0.14999999999999858
                },
                {
                    "name": "G#4",
                    "midi": 68,
                    "time": 33.59999999999995,
                    "velocity": 0.41732283464566927,
                    "duration": 0.14999999999999858
                },
                {
                    "name": "E4",
                    "midi": 64,
                    "time": 33.59999999999995,
                    "velocity": 0.41732283464566927,
                    "duration": 0.14999999999999858
                },
                {
                    "name": "A4",
                    "midi": 69,
                    "time": 33.74999999999995,
                    "velocity": 0.4251968503937008,
                    "duration": 0.14999999999999858
                },
                {
                    "name": "F4",
                    "midi": 65,
                    "time": 33.74999999999995,
                    "velocity": 0.33858267716535434,
                    "duration": 0.14999999999999858
                },
                {
                    "name": "C5",
                    "midi": 72,
                    "time": 33.89999999999995,
                    "velocity": 0.5118110236220472,
                    "duration": 0.8999999999999915
                },
                {
                    "name": "E5",
                    "midi": 76,
                    "time": 33.89999999999995,
                    "velocity": 0.5118110236220472,
                    "duration": 0.8999999999999915
                },
                {
                    "name": "C6",
                    "midi": 84,
                    "time": 33.89999999999995,
                    "velocity": 0.6535433070866141,
                    "duration": 0.8999999999999915
                },
                {
                    "name": "B3",
                    "midi": 59,
                    "time": 34.199999999999946,
                    "velocity": 0.4015748031496063,
                    "duration": 0.14999999999999858
                },
                {
                    "name": "F#3",
                    "midi": 54,
                    "time": 34.199999999999946,
                    "velocity": 0.31496062992125984,
                    "duration": 0.14999999999999858
                },
                {
                    "name": "G3",
                    "midi": 55,
                    "time": 34.349999999999945,
                    "velocity": 0.33070866141732286,
                    "duration": 0.14999999999999858
                },
                {
                    "name": "C4",
                    "midi": 60,
                    "time": 34.349999999999945,
                    "velocity": 0.4094488188976378,
                    "duration": 0.14999999999999858
                },
                {
                    "name": "D#4",
                    "midi": 63,
                    "time": 34.49999999999994,
                    "velocity": 0.4330708661417323,
                    "duration": 0.14999999999999858
                },
                {
                    "name": "B3",
                    "midi": 59,
                    "time": 34.49999999999994,
                    "velocity": 0.33858267716535434,
                    "duration": 0.14999999999999858
                },
                {
                    "name": "E4",
                    "midi": 64,
                    "time": 34.64999999999994,
                    "velocity": 0.44881889763779526,
                    "duration": 0.14999999999999858
                },
                {
                    "name": "C4",
                    "midi": 60,
                    "time": 34.64999999999994,
                    "velocity": 0.3464566929133858,
                    "duration": 0.14999999999999858
                },
                {
                    "name": "F#4",
                    "midi": 66,
                    "time": 34.79999999999994,
                    "velocity": 0.36220472440944884,
                    "duration": 0.14999999999999858
                },
                {
                    "name": "B4",
                    "midi": 71,
                    "time": 34.79999999999994,
                    "velocity": 0.4566929133858268,
                    "duration": 0.14999999999999858
                },
                {
                    "name": "G4",
                    "midi": 67,
                    "time": 34.94999999999994,
                    "velocity": 0.3700787401574803,
                    "duration": 0.14999999999999858
                },
                {
                    "name": "C5",
                    "midi": 72,
                    "time": 34.94999999999994,
                    "velocity": 0.4645669291338583,
                    "duration": 0.14999999999999858
                },
                {
                    "name": "G5",
                    "midi": 79,
                    "time": 35.09999999999994,
                    "velocity": 0.4566929133858268,
                    "duration": 0.5999999999999943
                },
                {
                    "name": "C5",
                    "midi": 72,
                    "time": 35.09999999999994,
                    "velocity": 0.4566929133858268,
                    "duration": 0.5999999999999943
                },
                {
                    "name": "C6",
                    "midi": 84,
                    "time": 35.09999999999994,
                    "velocity": 0.5748031496062992,
                    "duration": 0.5999999999999943
                },
                {
                    "name": "F#3",
                    "midi": 54,
                    "time": 35.399999999999935,
                    "velocity": 0.31496062992125984,
                    "duration": 0.14999999999999858
                },
                {
                    "name": "B3",
                    "midi": 59,
                    "time": 35.399999999999935,
                    "velocity": 0.4015748031496063,
                    "duration": 0.14999999999999858
                },
                {
                    "name": "C4",
                    "midi": 60,
                    "time": 35.54999999999993,
                    "velocity": 0.4094488188976378,
                    "duration": 0.14999999999999858
                },
                {
                    "name": "G3",
                    "midi": 55,
                    "time": 35.54999999999993,
                    "velocity": 0.33070866141732286,
                    "duration": 0.14999999999999858
                },
                {
                    "name": "B3",
                    "midi": 59,
                    "time": 35.69999999999993,
                    "velocity": 0.33858267716535434,
                    "duration": 0.14999999999999858
                },
                {
                    "name": "D#4",
                    "midi": 63,
                    "time": 35.69999999999993,
                    "velocity": 0.4330708661417323,
                    "duration": 0.14999999999999858
                },
                {
                    "name": "C4",
                    "midi": 60,
                    "time": 35.84999999999993,
                    "velocity": 0.3464566929133858,
                    "duration": 0.14999999999999858
                },
                {
                    "name": "E4",
                    "midi": 64,
                    "time": 35.84999999999993,
                    "velocity": 0.44881889763779526,
                    "duration": 0.14999999999999858
                },
                {
                    "name": "F#4",
                    "midi": 66,
                    "time": 35.99999999999993,
                    "velocity": 0.4566929133858268,
                    "duration": 0.14999999999999858
                },
                {
                    "name": "D#4",
                    "midi": 63,
                    "time": 35.99999999999993,
                    "velocity": 0.4566929133858268,
                    "duration": 0.14999999999999858
                },
                {
                    "name": "E4",
                    "midi": 64,
                    "time": 36.14999999999993,
                    "velocity": 0.3700787401574803,
                    "duration": 0.15000000000000568
                },
                {
                    "name": "G4",
                    "midi": 67,
                    "time": 36.14999999999993,
                    "velocity": 0.4645669291338583,
                    "duration": 0.15000000000000568
                },
                {
                    "name": "A#4",
                    "midi": 70,
                    "time": 36.22499999999993,
                    "velocity": 0.4251968503937008,
                    "duration": 0.07500000000000284
                },
                {
                    "name": "A#5",
                    "midi": 82,
                    "time": 36.22499999999993,
                    "velocity": 0.5433070866141733,
                    "duration": 0.07500000000000284
                },
                {
                    "name": "F5",
                    "midi": 77,
                    "time": 36.29999999999993,
                    "velocity": 0.4566929133858268,
                    "duration": 0.5999999999999943
                },
                {
                    "name": "A5",
                    "midi": 81,
                    "time": 36.29999999999993,
                    "velocity": 0.5748031496062992,
                    "duration": 0.5999999999999943
                },
                {
                    "name": "A4",
                    "midi": 69,
                    "time": 36.29999999999993,
                    "velocity": 0.4566929133858268,
                    "duration": 0.5999999999999943
                },
                {
                    "name": "G#3",
                    "midi": 56,
                    "time": 36.59999999999993,
                    "velocity": 0.31496062992125984,
                    "duration": 0.14999999999999858
                },
                {
                    "name": "B3",
                    "midi": 59,
                    "time": 36.59999999999993,
                    "velocity": 0.4015748031496063,
                    "duration": 0.14999999999999858
                },
                {
                    "name": "C4",
                    "midi": 60,
                    "time": 36.74999999999993,
                    "velocity": 0.4094488188976378,
                    "duration": 0.14999999999999858
                },
                {
                    "name": "A3",
                    "midi": 57,
                    "time": 36.74999999999993,
                    "velocity": 0.33070866141732286,
                    "duration": 0.14999999999999858
                },
                {
                    "name": "B3",
                    "midi": 59,
                    "time": 36.89999999999993,
                    "velocity": 0.33858267716535434,
                    "duration": 0.14999999999999858
                },
                {
                    "name": "E4",
                    "midi": 64,
                    "time": 36.89999999999993,
                    "velocity": 0.4330708661417323,
                    "duration": 0.14999999999999858
                },
                {
                    "name": "C4",
                    "midi": 60,
                    "time": 37.049999999999926,
                    "velocity": 0.3464566929133858,
                    "duration": 0.14999999999999858
                },
                {
                    "name": "F4",
                    "midi": 65,
                    "time": 37.049999999999926,
                    "velocity": 0.44881889763779526,
                    "duration": 0.14999999999999858
                },
                {
                    "name": "B4",
                    "midi": 71,
                    "time": 37.199999999999925,
                    "velocity": 0.4566929133858268,
                    "duration": 0.14999999999999858
                },
                {
                    "name": "G#4",
                    "midi": 68,
                    "time": 37.199999999999925,
                    "velocity": 0.4566929133858268,
                    "duration": 0.14999999999999858
                },
                {
                    "name": "A4",
                    "midi": 69,
                    "time": 37.34999999999992,
                    "velocity": 0.3700787401574803,
                    "duration": 0.15000000000000568
                },
                {
                    "name": "C5",
                    "midi": 72,
                    "time": 37.34999999999992,
                    "velocity": 0.4645669291338583,
                    "duration": 0.15000000000000568
                },
                {
                    "name": "C5",
                    "midi": 72,
                    "time": 37.424999999999926,
                    "velocity": 0.4251968503937008,
                    "duration": 0.07500000000000284
                },
                {
                    "name": "C6",
                    "midi": 84,
                    "time": 37.424999999999926,
                    "velocity": 0.5433070866141733,
                    "duration": 0.07500000000000284
                },
                {
                    "name": "F5",
                    "midi": 77,
                    "time": 37.49999999999993,
                    "velocity": 0.5748031496062992,
                    "duration": 0.5999999999999943
                },
                {
                    "name": "A4",
                    "midi": 69,
                    "time": 37.49999999999993,
                    "velocity": 0.4566929133858268,
                    "duration": 0.5999999999999943
                },
                {
                    "name": "F4",
                    "midi": 65,
                    "time": 37.49999999999993,
                    "velocity": 0.4566929133858268,
                    "duration": 0.5999999999999943
                },
                {
                    "name": "B3",
                    "midi": 59,
                    "time": 37.799999999999926,
                    "velocity": 0.4015748031496063,
                    "duration": 0.14999999999999858
                },
                {
                    "name": "G#3",
                    "midi": 56,
                    "time": 37.799999999999926,
                    "velocity": 0.31496062992125984,
                    "duration": 0.14999999999999858
                },
                {
                    "name": "C4",
                    "midi": 60,
                    "time": 37.949999999999925,
                    "velocity": 0.4094488188976378,
                    "duration": 0.14999999999999858
                },
                {
                    "name": "A3",
                    "midi": 57,
                    "time": 37.949999999999925,
                    "velocity": 0.33070866141732286,
                    "duration": 0.14999999999999858
                },
                {
                    "name": "E4",
                    "midi": 64,
                    "time": 38.09999999999992,
                    "velocity": 0.4330708661417323,
                    "duration": 0.14999999999999858
                },
                {
                    "name": "B3",
                    "midi": 59,
                    "time": 38.09999999999992,
                    "velocity": 0.33858267716535434,
                    "duration": 0.14999999999999858
                },
                {
                    "name": "C4",
                    "midi": 60,
                    "time": 38.24999999999992,
                    "velocity": 0.3464566929133858,
                    "duration": 0.14999999999999858
                },
                {
                    "name": "F4",
                    "midi": 65,
                    "time": 38.24999999999992,
                    "velocity": 0.44881889763779526,
                    "duration": 0.14999999999999858
                },
                {
                    "name": "G#4",
                    "midi": 68,
                    "time": 38.39999999999992,
                    "velocity": 0.4566929133858268,
                    "duration": 0.14999999999999858
                },
                {
                    "name": "E4",
                    "midi": 64,
                    "time": 38.39999999999992,
                    "velocity": 0.4566929133858268,
                    "duration": 0.14999999999999858
                },
                {
                    "name": "A4",
                    "midi": 69,
                    "time": 38.54999999999992,
                    "velocity": 0.4645669291338583,
                    "duration": 0.14999999999999858
                },
                {
                    "name": "F4",
                    "midi": 65,
                    "time": 38.54999999999992,
                    "velocity": 0.3700787401574803,
                    "duration": 0.14999999999999858
                },
                {
                    "name": "E5",
                    "midi": 76,
                    "time": 38.69999999999992,
                    "velocity": 0.5118110236220472,
                    "duration": 1.1999999999999886
                },
                {
                    "name": "E6",
                    "midi": 88,
                    "time": 38.69999999999992,
                    "velocity": 0.7086614173228346,
                    "duration": 1.1999999999999886
                },
                {
                    "name": "G#5",
                    "midi": 80,
                    "time": 38.69999999999992,
                    "velocity": 0.5433070866141733,
                    "duration": 1.1999999999999886
                },
                {
                    "name": "A#3",
                    "midi": 58,
                    "time": 38.999999999999915,
                    "velocity": 0.3779527559055118,
                    "duration": 0.14999999999999858
                },
                {
                    "name": "G3",
                    "midi": 55,
                    "time": 38.999999999999915,
                    "velocity": 0.29133858267716534,
                    "duration": 0.14999999999999858
                },
                {
                    "name": "B3",
                    "midi": 59,
                    "time": 39.14999999999991,
                    "velocity": 0.3937007874015748,
                    "duration": 0.14999999999999858
                },
                {
                    "name": "G#3",
                    "midi": 56,
                    "time": 39.14999999999991,
                    "velocity": 0.31496062992125984,
                    "duration": 0.14999999999999858
                },
                {
                    "name": "D#4",
                    "midi": 63,
                    "time": 39.29999999999991,
                    "velocity": 0.3228346456692913,
                    "duration": 0.14999999999999858
                },
                {
                    "name": "G4",
                    "midi": 67,
                    "time": 39.29999999999991,
                    "velocity": 0.4094488188976378,
                    "duration": 0.14999999999999858
                },
                {
                    "name": "G#4",
                    "midi": 68,
                    "time": 39.44999999999991,
                    "velocity": 0.4330708661417323,
                    "duration": 0.14999999999999858
                },
                {
                    "name": "E4",
                    "midi": 64,
                    "time": 39.44999999999991,
                    "velocity": 0.33858267716535434,
                    "duration": 0.14999999999999858
                },
                {
                    "name": "G4",
                    "midi": 67,
                    "time": 39.59999999999991,
                    "velocity": 0.33858267716535434,
                    "duration": 0.14999999999999858
                },
                {
                    "name": "A#4",
                    "midi": 70,
                    "time": 39.59999999999991,
                    "velocity": 0.4409448818897638,
                    "duration": 0.14999999999999858
                },
                {
                    "name": "B4",
                    "midi": 71,
                    "time": 39.74999999999991,
                    "velocity": 0.4566929133858268,
                    "duration": 0.14999999999999858
                },
                {
                    "name": "G#4",
                    "midi": 68,
                    "time": 39.74999999999991,
                    "velocity": 0.36220472440944884,
                    "duration": 0.14999999999999858
                },
                {
                    "name": "B5",
                    "midi": 83,
                    "time": 39.899999999999906,
                    "velocity": 0.5118110236220472,
                    "duration": 0.5999999999999943
                },
                {
                    "name": "E5",
                    "midi": 76,
                    "time": 39.899999999999906,
                    "velocity": 0.5118110236220472,
                    "duration": 0.5999999999999943
                },
                {
                    "name": "E6",
                    "midi": 88,
                    "time": 39.899999999999906,
                    "velocity": 0.6456692913385826,
                    "duration": 0.5999999999999943
                },
                {
                    "name": "G3",
                    "midi": 55,
                    "time": 40.1999999999999,
                    "velocity": 0.31496062992125984,
                    "duration": 0.14999999999999858
                },
                {
                    "name": "A#3",
                    "midi": 58,
                    "time": 40.1999999999999,
                    "velocity": 0.3937007874015748,
                    "duration": 0.14999999999999858
                },
                {
                    "name": "B3",
                    "midi": 59,
                    "time": 40.3499999999999,
                    "velocity": 0.4094488188976378,
                    "duration": 0.14999999999999858
                },
                {
                    "name": "G#3",
                    "midi": 56,
                    "time": 40.3499999999999,
                    "velocity": 0.33070866141732286,
                    "duration": 0.14999999999999858
                },
                {
                    "name": "G4",
                    "midi": 67,
                    "time": 40.4999999999999,
                    "velocity": 0.4330708661417323,
                    "duration": 0.14999999999999858
                },
                {
                    "name": "D#4",
                    "midi": 63,
                    "time": 40.4999999999999,
                    "velocity": 0.33858267716535434,
                    "duration": 0.14999999999999858
                },
                {
                    "name": "G#4",
                    "midi": 68,
                    "time": 40.6499999999999,
                    "velocity": 0.44881889763779526,
                    "duration": 0.14999999999999858
                },
                {
                    "name": "E4",
                    "midi": 64,
                    "time": 40.6499999999999,
                    "velocity": 0.3464566929133858,
                    "duration": 0.14999999999999858
                },
                {
                    "name": "G4",
                    "midi": 67,
                    "time": 40.7999999999999,
                    "velocity": 0.4566929133858268,
                    "duration": 0.14999999999999858
                },
                {
                    "name": "A#4",
                    "midi": 70,
                    "time": 40.7999999999999,
                    "velocity": 0.4566929133858268,
                    "duration": 0.14999999999999858
                },
                {
                    "name": "G#4",
                    "midi": 68,
                    "time": 40.949999999999896,
                    "velocity": 0.4015748031496063,
                    "duration": 0.15000000000000568
                },
                {
                    "name": "B4",
                    "midi": 71,
                    "time": 40.949999999999896,
                    "velocity": 0.5118110236220472,
                    "duration": 0.15000000000000568
                },
                {
                    "name": "D6",
                    "midi": 86,
                    "time": 41.0249999999999,
                    "velocity": 0.5826771653543307,
                    "duration": 0.07500000000000284
                },
                {
                    "name": "D5",
                    "midi": 74,
                    "time": 41.0249999999999,
                    "velocity": 0.4566929133858268,
                    "duration": 0.07500000000000284
                },
                {
                    "name": "C#5",
                    "midi": 73,
                    "time": 41.0999999999999,
                    "velocity": 0.49606299212598426,
                    "duration": 0.5999999999999943
                },
                {
                    "name": "A5",
                    "midi": 81,
                    "time": 41.0999999999999,
                    "velocity": 0.49606299212598426,
                    "duration": 0.5999999999999943
                },
                {
                    "name": "C#6",
                    "midi": 85,
                    "time": 41.0999999999999,
                    "velocity": 0.6220472440944882,
                    "duration": 0.5999999999999943
                },
                {
                    "name": "C4",
                    "midi": 60,
                    "time": 41.3999999999999,
                    "velocity": 0.33070866141732286,
                    "duration": 0.14999999999999858
                },
                {
                    "name": "D#4",
                    "midi": 63,
                    "time": 41.3999999999999,
                    "velocity": 0.4094488188976378,
                    "duration": 0.14999999999999858
                },
                {
                    "name": "E4",
                    "midi": 64,
                    "time": 41.5499999999999,
                    "velocity": 0.4330708661417323,
                    "duration": 0.14999999999999858
                },
                {
                    "name": "C#4",
                    "midi": 61,
                    "time": 41.5499999999999,
                    "velocity": 0.33858267716535434,
                    "duration": 0.14999999999999858
                },
                {
                    "name": "G#4",
                    "midi": 68,
                    "time": 41.699999999999896,
                    "velocity": 0.3464566929133858,
                    "duration": 0.14999999999999858
                },
                {
                    "name": "C5",
                    "midi": 72,
                    "time": 41.699999999999896,
                    "velocity": 0.44881889763779526,
                    "duration": 0.14999999999999858
                },
                {
                    "name": "A4",
                    "midi": 69,
                    "time": 41.849999999999895,
                    "velocity": 0.3700787401574803,
                    "duration": 0.14999999999999858
                },
                {
                    "name": "C#5",
                    "midi": 73,
                    "time": 41.849999999999895,
                    "velocity": 0.4645669291338583,
                    "duration": 0.14999999999999858
                },
                {
                    "name": "C5",
                    "midi": 72,
                    "time": 41.99999999999989,
                    "velocity": 0.4881889763779528,
                    "duration": 0.14999999999999858
                },
                {
                    "name": "D#5",
                    "midi": 75,
                    "time": 41.99999999999989,
                    "velocity": 0.4881889763779528,
                    "duration": 0.14999999999999858
                },
                {
                    "name": "C#5",
                    "midi": 73,
                    "time": 42.14999999999989,
                    "velocity": 0.4094488188976378,
                    "duration": 0.07500000000000284
                },
                {
                    "name": "E5",
                    "midi": 76,
                    "time": 42.14999999999989,
                    "velocity": 0.5196850393700787,
                    "duration": 0.07500000000000284
                },
                {
                    "name": "E6",
                    "midi": 88,
                    "time": 42.224999999999895,
                    "velocity": 0.6141732283464567,
                    "duration": 0.07500000000000284
                },
                {
                    "name": "E5",
                    "midi": 76,
                    "time": 42.224999999999895,
                    "velocity": 0.47244094488188976,
                    "duration": 0.07500000000000284
                },
                {
                    "name": "C#5",
                    "midi": 73,
                    "time": 42.2999999999999,
                    "velocity": 0.5118110236220472,
                    "duration": 0.5999999999999943
                },
                {
                    "name": "A4",
                    "midi": 69,
                    "time": 42.2999999999999,
                    "velocity": 0.5118110236220472,
                    "duration": 0.5999999999999943
                },
                {
                    "name": "A5",
                    "midi": 81,
                    "time": 42.2999999999999,
                    "velocity": 0.6456692913385826,
                    "duration": 0.5999999999999943
                },
                {
                    "name": "C4",
                    "midi": 60,
                    "time": 42.599999999999895,
                    "velocity": 0.36220472440944884,
                    "duration": 0.14999999999999858
                },
                {
                    "name": "D#4",
                    "midi": 63,
                    "time": 42.599999999999895,
                    "velocity": 0.4566929133858268,
                    "duration": 0.14999999999999858
                },
                {
                    "name": "C#4",
                    "midi": 61,
                    "time": 42.74999999999989,
                    "velocity": 0.3779527559055118,
                    "duration": 0.14999999999999858
                },
                {
                    "name": "E4",
                    "midi": 64,
                    "time": 42.74999999999989,
                    "velocity": 0.47244094488188976,
                    "duration": 0.14999999999999858
                },
                {
                    "name": "G#4",
                    "midi": 68,
                    "time": 42.89999999999989,
                    "velocity": 0.3937007874015748,
                    "duration": 0.14999999999999858
                },
                {
                    "name": "C5",
                    "midi": 72,
                    "time": 42.89999999999989,
                    "velocity": 0.49606299212598426,
                    "duration": 0.14999999999999858
                },
                {
                    "name": "A4",
                    "midi": 69,
                    "time": 43.04999999999989,
                    "velocity": 0.4094488188976378,
                    "duration": 0.14999999999999858
                },
                {
                    "name": "C#5",
                    "midi": 73,
                    "time": 43.04999999999989,
                    "velocity": 0.5118110236220472,
                    "duration": 0.14999999999999858
                },
                {
                    "name": "C5",
                    "midi": 72,
                    "time": 43.19999999999989,
                    "velocity": 0.5275590551181102,
                    "duration": 0.14999999999999858
                },
                {
                    "name": "D#5",
                    "midi": 75,
                    "time": 43.19999999999989,
                    "velocity": 0.5275590551181102,
                    "duration": 0.14999999999999858
                },
                {
                    "name": "E5",
                    "midi": 76,
                    "time": 43.34999999999989,
                    "velocity": 0.5511811023622047,
                    "duration": 0.15000000000000568
                },
                {
                    "name": "C#5",
                    "midi": 73,
                    "time": 43.34999999999989,
                    "velocity": 0.4330708661417323,
                    "duration": 0.15000000000000568
                },
                {
                    "name": "A4",
                    "midi": 69,
                    "time": 43.42499999999989,
                    "velocity": 0.49606299212598426,
                    "duration": 0.07500000000000284
                },
                {
                    "name": "A5",
                    "midi": 81,
                    "time": 43.42499999999989,
                    "velocity": 0.6299212598425197,
                    "duration": 0.07500000000000284
                },
                {
                    "name": "C#6",
                    "midi": 85,
                    "time": 43.49999999999989,
                    "velocity": 0.6141732283464567,
                    "duration": 0.8999999999999915
                },
                {
                    "name": "G5",
                    "midi": 79,
                    "time": 43.49999999999989,
                    "velocity": 0.6141732283464567,
                    "duration": 0.8999999999999915
                },
                {
                    "name": "G6",
                    "midi": 91,
                    "time": 43.49999999999989,
                    "velocity": 0.7716535433070866,
                    "duration": 0.8999999999999915
                },
                {
                    "name": "D#4",
                    "midi": 63,
                    "time": 43.79999999999989,
                    "velocity": 0.3779527559055118,
                    "duration": 0.14999999999999858
                },
                {
                    "name": "F#4",
                    "midi": 66,
                    "time": 43.79999999999989,
                    "velocity": 0.47244094488188976,
                    "duration": 0.14999999999999858
                },
                {
                    "name": "G4",
                    "midi": 67,
                    "time": 43.94999999999989,
                    "velocity": 0.49606299212598426,
                    "duration": 0.14999999999999858
                },
                {
                    "name": "E4",
                    "midi": 64,
                    "time": 43.94999999999989,
                    "velocity": 0.3937007874015748,
                    "duration": 0.14999999999999858
                },
                {
                    "name": "C5",
                    "midi": 72,
                    "time": 44.09999999999989,
                    "velocity": 0.4015748031496063,
                    "duration": 0.14999999999999858
                },
                {
                    "name": "D#5",
                    "midi": 75,
                    "time": 44.09999999999989,
                    "velocity": 0.5118110236220472,
                    "duration": 0.14999999999999858
                },
                {
                    "name": "C#5",
                    "midi": 73,
                    "time": 44.249999999999886,
                    "velocity": 0.4251968503937008,
                    "duration": 0.14999999999999858
                },
                {
                    "name": "E5",
                    "midi": 76,
                    "time": 44.249999999999886,
                    "velocity": 0.5275590551181102,
                    "duration": 0.14999999999999858
                },
                {
                    "name": "F#5",
                    "midi": 78,
                    "time": 44.399999999999885,
                    "velocity": 0.5433070866141733,
                    "duration": 0.14999999999999858
                },
                {
                    "name": "D#5",
                    "midi": 75,
                    "time": 44.399999999999885,
                    "velocity": 0.4330708661417323,
                    "duration": 0.14999999999999858
                },
                {
                    "name": "E5",
                    "midi": 76,
                    "time": 44.54999999999988,
                    "velocity": 0.4409448818897638,
                    "duration": 0.14999999999999858
                },
                {
                    "name": "G5",
                    "midi": 79,
                    "time": 44.54999999999988,
                    "velocity": 0.5590551181102362,
                    "duration": 0.14999999999999858
                },
                {
                    "name": "A4",
                    "midi": 69,
                    "time": 44.69999999999988,
                    "velocity": 0.5433070866141733,
                    "duration": 0.5999999999999943
                },
                {
                    "name": "A5",
                    "midi": 81,
                    "time": 44.69999999999988,
                    "velocity": 0.6850393700787402,
                    "duration": 0.5999999999999943
                },
                {
                    "name": "D#4",
                    "midi": 63,
                    "time": 44.99999999999988,
                    "velocity": 0.3779527559055118,
                    "duration": 0.14999999999999858
                },
                {
                    "name": "F#4",
                    "midi": 66,
                    "time": 44.99999999999988,
                    "velocity": 0.47244094488188976,
                    "duration": 0.14999999999999858
                },
                {
                    "name": "E4",
                    "midi": 64,
                    "time": 45.14999999999988,
                    "velocity": 0.3937007874015748,
                    "duration": 0.14999999999999858
                },
                {
                    "name": "G4",
                    "midi": 67,
                    "time": 45.14999999999988,
                    "velocity": 0.49606299212598426,
                    "duration": 0.14999999999999858
                },
                {
                    "name": "D#5",
                    "midi": 75,
                    "time": 45.299999999999876,
                    "velocity": 0.5118110236220472,
                    "duration": 0.14999999999999858
                },
                {
                    "name": "C5",
                    "midi": 72,
                    "time": 45.299999999999876,
                    "velocity": 0.4015748031496063,
                    "duration": 0.14999999999999858
                },
                {
                    "name": "C#5",
                    "midi": 73,
                    "time": 45.449999999999875,
                    "velocity": 0.4251968503937008,
                    "duration": 0.14999999999999858
                },
                {
                    "name": "E5",
                    "midi": 76,
                    "time": 45.449999999999875,
                    "velocity": 0.5275590551181102,
                    "duration": 0.14999999999999858
                },
                {
                    "name": "F#5",
                    "midi": 78,
                    "time": 45.59999999999987,
                    "velocity": 0.5433070866141733,
                    "duration": 0.14999999999999858
                },
                {
                    "name": "D#5",
                    "midi": 75,
                    "time": 45.59999999999987,
                    "velocity": 0.5433070866141733,
                    "duration": 0.14999999999999858
                },
                {
                    "name": "E5",
                    "midi": 76,
                    "time": 45.74999999999987,
                    "velocity": 0.4409448818897638,
                    "duration": 0.15000000000000568
                },
                {
                    "name": "G5",
                    "midi": 79,
                    "time": 45.74999999999987,
                    "velocity": 0.5590551181102362,
                    "duration": 0.15000000000000568
                },
                {
                    "name": "A5",
                    "midi": 81,
                    "time": 45.824999999999875,
                    "velocity": 0.6377952755905512,
                    "duration": 0.07500000000000284
                },
                {
                    "name": "A4",
                    "midi": 69,
                    "time": 45.824999999999875,
                    "velocity": 0.5039370078740157,
                    "duration": 0.07500000000000284
                },
                {
                    "name": "F#5",
                    "midi": 78,
                    "time": 45.89999999999988,
                    "velocity": 0.6141732283464567,
                    "duration": 0.8999999999999915
                },
                {
                    "name": "C6",
                    "midi": 84,
                    "time": 45.89999999999988,
                    "velocity": 0.6141732283464567,
                    "duration": 0.8999999999999915
                },
                {
                    "name": "F#6",
                    "midi": 90,
                    "time": 45.89999999999988,
                    "velocity": 0.7716535433070866,
                    "duration": 0.8999999999999915
                },
                {
                    "name": "D4",
                    "midi": 62,
                    "time": 46.199999999999875,
                    "velocity": 0.3779527559055118,
                    "duration": 0.14999999999999858
                },
                {
                    "name": "F4",
                    "midi": 65,
                    "time": 46.199999999999875,
                    "velocity": 0.47244094488188976,
                    "duration": 0.14999999999999858
                },
                {
                    "name": "D#4",
                    "midi": 63,
                    "time": 46.34999999999987,
                    "velocity": 0.3937007874015748,
                    "duration": 0.14999999999999858
                },
                {
                    "name": "F#4",
                    "midi": 66,
                    "time": 46.34999999999987,
                    "velocity": 0.49606299212598426,
                    "duration": 0.14999999999999858
                },
                {
                    "name": "B4",
                    "midi": 71,
                    "time": 46.49999999999987,
                    "velocity": 0.4015748031496063,
                    "duration": 0.14999999999999858
                },
                {
                    "name": "D5",
                    "midi": 74,
                    "time": 46.49999999999987,
                    "velocity": 0.5118110236220472,
                    "duration": 0.14999999999999858
                },
                {
                    "name": "C5",
                    "midi": 72,
                    "time": 46.64999999999987,
                    "velocity": 0.4251968503937008,
                    "duration": 0.14999999999999858
                },
                {
                    "name": "D#5",
                    "midi": 75,
                    "time": 46.64999999999987,
                    "velocity": 0.5275590551181102,
                    "duration": 0.14999999999999858
                },
                {
                    "name": "F5",
                    "midi": 77,
                    "time": 46.79999999999987,
                    "velocity": 0.5433070866141733,
                    "duration": 0.14999999999999858
                },
                {
                    "name": "D5",
                    "midi": 74,
                    "time": 46.79999999999987,
                    "velocity": 0.4330708661417323,
                    "duration": 0.14999999999999858
                },
                {
                    "name": "F#5",
                    "midi": 78,
                    "time": 46.94999999999987,
                    "velocity": 0.5590551181102362,
                    "duration": 0.14999999999999858
                },
                {
                    "name": "D#5",
                    "midi": 75,
                    "time": 46.94999999999987,
                    "velocity": 0.4409448818897638,
                    "duration": 0.14999999999999858
                },
                {
                    "name": "A4",
                    "midi": 69,
                    "time": 47.099999999999866,
                    "velocity": 0.5433070866141733,
                    "duration": 0.5999999999999943
                },
                {
                    "name": "A5",
                    "midi": 81,
                    "time": 47.099999999999866,
                    "velocity": 0.6850393700787402,
                    "duration": 0.5999999999999943
                },
                {
                    "name": "D4",
                    "midi": 62,
                    "time": 47.399999999999864,
                    "velocity": 0.3779527559055118,
                    "duration": 0.14999999999999858
                },
                {
                    "name": "F4",
                    "midi": 65,
                    "time": 47.399999999999864,
                    "velocity": 0.47244094488188976,
                    "duration": 0.14999999999999858
                },
                {
                    "name": "D#4",
                    "midi": 63,
                    "time": 47.54999999999986,
                    "velocity": 0.3937007874015748,
                    "duration": 0.14999999999999858
                },
                {
                    "name": "F#4",
                    "midi": 66,
                    "time": 47.54999999999986,
                    "velocity": 0.49606299212598426,
                    "duration": 0.14999999999999858
                },
                {
                    "name": "D5",
                    "midi": 74,
                    "time": 47.69999999999986,
                    "velocity": 0.5118110236220472,
                    "duration": 0.14999999999999858
                },
                {
                    "name": "B4",
                    "midi": 71,
                    "time": 47.69999999999986,
                    "velocity": 0.4015748031496063,
                    "duration": 0.14999999999999858
                },
                {
                    "name": "C5",
                    "midi": 72,
                    "time": 47.84999999999986,
                    "velocity": 0.4251968503937008,
                    "duration": 0.14999999999999858
                },
                {
                    "name": "D#5",
                    "midi": 75,
                    "time": 47.84999999999986,
                    "velocity": 0.5275590551181102,
                    "duration": 0.14999999999999858
                },
                {
                    "name": "F5",
                    "midi": 77,
                    "time": 47.99999999999986,
                    "velocity": 0.5433070866141733,
                    "duration": 0.14999999999999858
                },
                {
                    "name": "D5",
                    "midi": 74,
                    "time": 47.99999999999986,
                    "velocity": 0.5433070866141733,
                    "duration": 0.14999999999999858
                },
                {
                    "name": "D#5",
                    "midi": 75,
                    "time": 48.14999999999986,
                    "velocity": 0.4409448818897638,
                    "duration": 0.15000000000000568
                },
                {
                    "name": "F#5",
                    "midi": 78,
                    "time": 48.14999999999986,
                    "velocity": 0.5590551181102362,
                    "duration": 0.15000000000000568
                },
                {
                    "name": "A4",
                    "midi": 69,
                    "time": 48.22499999999986,
                    "velocity": 0.5039370078740157,
                    "duration": 0.07500000000000284
                },
                {
                    "name": "A5",
                    "midi": 81,
                    "time": 48.22499999999986,
                    "velocity": 0.6377952755905512,
                    "duration": 0.07500000000000284
                },
                {
                    "name": "G#5",
                    "midi": 80,
                    "time": 48.29999999999986,
                    "velocity": 0.5433070866141733,
                    "duration": 0.5999999999999943
                },
                {
                    "name": "F5",
                    "midi": 77,
                    "time": 48.29999999999986,
                    "velocity": 0.5433070866141733,
                    "duration": 0.5999999999999943
                },
                {
                    "name": "F6",
                    "midi": 89,
                    "time": 48.29999999999986,
                    "velocity": 0.6850393700787402,
                    "duration": 0.5999999999999943
                },
                {
                    "name": "E4",
                    "midi": 64,
                    "time": 48.59999999999986,
                    "velocity": 0.47244094488188976,
                    "duration": 0.14999999999999858
                },
                {
                    "name": "C#4",
                    "midi": 61,
                    "time": 48.59999999999986,
                    "velocity": 0.3779527559055118,
                    "duration": 0.14999999999999858
                },
                {
                    "name": "F4",
                    "midi": 65,
                    "time": 48.74999999999986,
                    "velocity": 0.49606299212598426,
                    "duration": 0.14999999999999858
                },
                {
                    "name": "D4",
                    "midi": 62,
                    "time": 48.74999999999986,
                    "velocity": 0.3937007874015748,
                    "duration": 0.14999999999999858
                },
                {
                    "name": "A#4",
                    "midi": 70,
                    "time": 48.89999999999986,
                    "velocity": 0.5118110236220472,
                    "duration": 0.14999999999999858
                },
                {
                    "name": "G4",
                    "midi": 67,
                    "time": 48.89999999999986,
                    "velocity": 0.4015748031496063,
                    "duration": 0.14999999999999858
                },
                {
                    "name": "G#4",
                    "midi": 68,
                    "time": 49.049999999999855,
                    "velocity": 0.4251968503937008,
                    "duration": 0.14999999999999858
                },
                {
                    "name": "B4",
                    "midi": 71,
                    "time": 49.049999999999855,
                    "velocity": 0.5275590551181102,
                    "duration": 0.14999999999999858
                },
                {
                    "name": "E5",
                    "midi": 76,
                    "time": 49.199999999999854,
                    "velocity": 0.5433070866141733,
                    "duration": 0.14999999999999858
                },
                {
                    "name": "C#5",
                    "midi": 73,
                    "time": 49.199999999999854,
                    "velocity": 0.5433070866141733,
                    "duration": 0.14999999999999858
                },
                {
                    "name": "D5",
                    "midi": 74,
                    "time": 49.34999999999985,
                    "velocity": 0.4409448818897638,
                    "duration": 0.15000000000000568
                },
                {
                    "name": "F5",
                    "midi": 77,
                    "time": 49.34999999999985,
                    "velocity": 0.5590551181102362,
                    "duration": 0.15000000000000568
                },
                {
                    "name": "F6",
                    "midi": 89,
                    "time": 49.424999999999855,
                    "velocity": 0.6377952755905512,
                    "duration": 0.07500000000000284
                },
                {
                    "name": "F5",
                    "midi": 77,
                    "time": 49.424999999999855,
                    "velocity": 0.5039370078740157,
                    "duration": 0.07500000000000284
                },
                {
                    "name": "E5",
                    "midi": 76,
                    "time": 49.49999999999986,
                    "velocity": 0.5433070866141733,
                    "duration": 0.5999999999999943
                },
                {
                    "name": "G#5",
                    "midi": 80,
                    "time": 49.49999999999986,
                    "velocity": 0.5433070866141733,
                    "duration": 0.5999999999999943
                },
                {
                    "name": "E6",
                    "midi": 88,
                    "time": 49.49999999999986,
                    "velocity": 0.6850393700787402,
                    "duration": 0.5999999999999943
                },
                {
                    "name": "A#3",
                    "midi": 58,
                    "time": 49.799999999999855,
                    "velocity": 0.47244094488188976,
                    "duration": 0.14999999999999858
                },
                {
                    "name": "G3",
                    "midi": 55,
                    "time": 49.799999999999855,
                    "velocity": 0.3779527559055118,
                    "duration": 0.14999999999999858
                },
                {
                    "name": "G#3",
                    "midi": 56,
                    "time": 49.949999999999854,
                    "velocity": 0.3937007874015748,
                    "duration": 0.14999999999999858
                },
                {
                    "name": "B3",
                    "midi": 59,
                    "time": 49.949999999999854,
                    "velocity": 0.49606299212598426,
                    "duration": 0.14999999999999858
                },
                {
                    "name": "D#4",
                    "midi": 63,
                    "time": 50.09999999999985,
                    "velocity": 0.4015748031496063,
                    "duration": 0.14999999999999858
                },
                {
                    "name": "G4",
                    "midi": 67,
                    "time": 50.09999999999985,
                    "velocity": 0.5118110236220472,
                    "duration": 0.14999999999999858
                },
                {
                    "name": "G#4",
                    "midi": 68,
                    "time": 50.24999999999985,
                    "velocity": 0.4251968503937008,
                    "duration": 0.14999999999999858
                },
                {
                    "name": "E4",
                    "midi": 64,
                    "time": 50.24999999999985,
                    "velocity": 0.5275590551181102,
                    "duration": 0.14999999999999858
                },
                {
                    "name": "A#4",
                    "midi": 70,
                    "time": 50.39999999999985,
                    "velocity": 0.5433070866141733,
                    "duration": 0.14999999999999858
                },
                {
                    "name": "G4",
                    "midi": 67,
                    "time": 50.39999999999985,
                    "velocity": 0.5433070866141733,
                    "duration": 0.14999999999999858
                },
                {
                    "name": "G#4",
                    "midi": 68,
                    "time": 50.54999999999985,
                    "velocity": 0.4409448818897638,
                    "duration": 0.15000000000000568
                },
                {
                    "name": "B4",
                    "midi": 71,
                    "time": 50.54999999999985,
                    "velocity": 0.5590551181102362,
                    "duration": 0.15000000000000568
                },
                {
                    "name": "D5",
                    "midi": 74,
                    "time": 50.62499999999985,
                    "velocity": 0.5039370078740157,
                    "duration": 0.07500000000000284
                },
                {
                    "name": "D6",
                    "midi": 86,
                    "time": 50.62499999999985,
                    "velocity": 0.6377952755905512,
                    "duration": 0.07500000000000284
                },
                {
                    "name": "A5",
                    "midi": 81,
                    "time": 50.699999999999854,
                    "velocity": 0.5433070866141733,
                    "duration": 0.5999999999999943
                },
                {
                    "name": "C#6",
                    "midi": 85,
                    "time": 50.699999999999854,
                    "velocity": 0.6850393700787402,
                    "duration": 0.5999999999999943
                },
                {
                    "name": "C#5",
                    "midi": 73,
                    "time": 50.699999999999854,
                    "velocity": 0.5433070866141733,
                    "duration": 0.5999999999999943
                },
                {
                    "name": "C4",
                    "midi": 60,
                    "time": 50.99999999999985,
                    "velocity": 0.3779527559055118,
                    "duration": 0.14999999999999858
                },
                {
                    "name": "D#4",
                    "midi": 63,
                    "time": 50.99999999999985,
                    "velocity": 0.47244094488188976,
                    "duration": 0.14999999999999858
                },
                {
                    "name": "E4",
                    "midi": 64,
                    "time": 51.14999999999985,
                    "velocity": 0.49606299212598426,
                    "duration": 0.14999999999999858
                },
                {
                    "name": "C#4",
                    "midi": 61,
                    "time": 51.14999999999985,
                    "velocity": 0.3937007874015748,
                    "duration": 0.14999999999999858
                },
                {
                    "name": "C5",
                    "midi": 72,
                    "time": 51.29999999999985,
                    "velocity": 0.5118110236220472,
                    "duration": 0.14999999999999858
                },
                {
                    "name": "G#4",
                    "midi": 68,
                    "time": 51.29999999999985,
                    "velocity": 0.4015748031496063,
                    "duration": 0.14999999999999858
                },
                {
                    "name": "A4",
                    "midi": 69,
                    "time": 51.44999999999985,
                    "velocity": 0.4251968503937008,
                    "duration": 0.14999999999999858
                },
                {
                    "name": "C#5",
                    "midi": 73,
                    "time": 51.44999999999985,
                    "velocity": 0.5275590551181102,
                    "duration": 0.14999999999999858
                },
                {
                    "name": "D#5",
                    "midi": 75,
                    "time": 51.599999999999845,
                    "velocity": 0.5433070866141733,
                    "duration": 0.14999999999999858
                },
                {
                    "name": "C5",
                    "midi": 72,
                    "time": 51.599999999999845,
                    "velocity": 0.5433070866141733,
                    "duration": 0.14999999999999858
                },
                {
                    "name": "C#5",
                    "midi": 73,
                    "time": 51.749999999999844,
                    "velocity": 0.4409448818897638,
                    "duration": 0.07500000000000284
                },
                {
                    "name": "E5",
                    "midi": 76,
                    "time": 51.749999999999844,
                    "velocity": 0.5590551181102362,
                    "duration": 0.07500000000000284
                },
                {
                    "name": "E6",
                    "midi": 88,
                    "time": 51.82499999999985,
                    "velocity": 0.6377952755905512,
                    "duration": 0.07500000000000284
                },
                {
                    "name": "E5",
                    "midi": 76,
                    "time": 51.82499999999985,
                    "velocity": 0.5039370078740157,
                    "duration": 0.07500000000000284
                },
                {
                    "name": "C#5",
                    "midi": 73,
                    "time": 51.89999999999985,
                    "velocity": 0.5433070866141733,
                    "duration": 0.5999999999999943
                },
                {
                    "name": "A5",
                    "midi": 81,
                    "time": 51.89999999999985,
                    "velocity": 0.6850393700787402,
                    "duration": 0.5999999999999943
                },
                {
                    "name": "A4",
                    "midi": 69,
                    "time": 51.89999999999985,
                    "velocity": 0.5433070866141733,
                    "duration": 0.5999999999999943
                },
                {
                    "name": "G#3",
                    "midi": 56,
                    "time": 52.19999999999985,
                    "velocity": 0.3779527559055118,
                    "duration": 0.14999999999999858
                },
                {
                    "name": "C4",
                    "midi": 60,
                    "time": 52.19999999999985,
                    "velocity": 0.47244094488188976,
                    "duration": 0.14999999999999858
                },
                {
                    "name": "C#4",
                    "midi": 61,
                    "time": 52.349999999999845,
                    "velocity": 0.49606299212598426,
                    "duration": 0.14999999999999858
                },
                {
                    "name": "A3",
                    "midi": 57,
                    "time": 52.349999999999845,
                    "velocity": 0.3937007874015748,
                    "duration": 0.14999999999999858
                },
                {
                    "name": "C4",
                    "midi": 60,
                    "time": 52.499999999999844,
                    "velocity": 0.4015748031496063,
                    "duration": 0.14999999999999858
                },
                {
                    "name": "D#4",
                    "midi": 63,
                    "time": 52.499999999999844,
                    "velocity": 0.5118110236220472,
                    "duration": 0.14999999999999858
                },
                {
                    "name": "C#4",
                    "midi": 61,
                    "time": 52.64999999999984,
                    "velocity": 0.4251968503937008,
                    "duration": 0.14999999999999858
                },
                {
                    "name": "E4",
                    "midi": 64,
                    "time": 52.64999999999984,
                    "velocity": 0.5275590551181102,
                    "duration": 0.14999999999999858
                },
                {
                    "name": "G#4",
                    "midi": 68,
                    "time": 52.79999999999984,
                    "velocity": 0.5433070866141733,
                    "duration": 0.14999999999999858
                },
                {
                    "name": "D#4",
                    "midi": 63,
                    "time": 52.79999999999984,
                    "velocity": 0.5433070866141733,
                    "duration": 0.14999999999999858
                },
                {
                    "name": "E4",
                    "midi": 64,
                    "time": 52.94999999999984,
                    "velocity": 0.4409448818897638,
                    "duration": 0.14999999999999858
                },
                {
                    "name": "A4",
                    "midi": 69,
                    "time": 52.94999999999984,
                    "velocity": 0.5590551181102362,
                    "duration": 0.14999999999999858
                },
                {
                    "name": "G5",
                    "midi": 79,
                    "time": 53.09999999999984,
                    "velocity": 0.6929133858267716,
                    "duration": 0.8999999999999915
                },
                {
                    "name": "C#5",
                    "midi": 73,
                    "time": 53.09999999999984,
                    "velocity": 0.5511811023622047,
                    "duration": 0.8999999999999915
                },
                {
                    "name": "G4",
                    "midi": 67,
                    "time": 53.09999999999984,
                    "velocity": 0.5511811023622047,
                    "duration": 0.8999999999999915
                },
                {
                    "name": "D#3",
                    "midi": 51,
                    "time": 53.399999999999835,
                    "velocity": 0.33070866141732286,
                    "duration": 0.14999999999999858
                },
                {
                    "name": "F#3",
                    "midi": 54,
                    "time": 53.399999999999835,
                    "velocity": 0.4251968503937008,
                    "duration": 0.14999999999999858
                },
                {
                    "name": "E3",
                    "midi": 52,
                    "time": 53.549999999999834,
                    "velocity": 0.3464566929133858,
                    "duration": 0.14999999999999858
                },
                {
                    "name": "G3",
                    "midi": 55,
                    "time": 53.549999999999834,
                    "velocity": 0.4409448818897638,
                    "duration": 0.14999999999999858
                },
                {
                    "name": "C4",
                    "midi": 60,
                    "time": 53.69999999999983,
                    "velocity": 0.36220472440944884,
                    "duration": 0.14999999999999858
                },
                {
                    "name": "D#4",
                    "midi": 63,
                    "time": 53.69999999999983,
                    "velocity": 0.4566929133858268,
                    "duration": 0.14999999999999858
                },
                {
                    "name": "C#4",
                    "midi": 61,
                    "time": 53.84999999999983,
                    "velocity": 0.3779527559055118,
                    "duration": 0.14999999999999858
                },
                {
                    "name": "E4",
                    "midi": 64,
                    "time": 53.84999999999983,
                    "velocity": 0.47244094488188976,
                    "duration": 0.14999999999999858
                },
                {
                    "name": "D#4",
                    "midi": 63,
                    "time": 53.99999999999983,
                    "velocity": 0.3858267716535433,
                    "duration": 0.14999999999999858
                },
                {
                    "name": "F#4",
                    "midi": 66,
                    "time": 53.99999999999983,
                    "velocity": 0.4881889763779528,
                    "duration": 0.14999999999999858
                },
                {
                    "name": "G4",
                    "midi": 67,
                    "time": 54.14999999999983,
                    "velocity": 0.49606299212598426,
                    "duration": 0.14999999999999858
                },
                {
                    "name": "E4",
                    "midi": 64,
                    "time": 54.14999999999983,
                    "velocity": 0.3937007874015748,
                    "duration": 0.14999999999999858
                },
                {
                    "name": "A4",
                    "midi": 69,
                    "time": 54.29999999999983,
                    "velocity": 0.6141732283464567,
                    "duration": 0.5999999999999943
                },
                {
                    "name": "A3",
                    "midi": 57,
                    "time": 54.29999999999983,
                    "velocity": 0.4881889763779528,
                    "duration": 0.5999999999999943
                },
                {
                    "name": "D#3",
                    "midi": 51,
                    "time": 54.599999999999824,
                    "velocity": 0.33070866141732286,
                    "duration": 0.14999999999999858
                },
                {
                    "name": "F#3",
                    "midi": 54,
                    "time": 54.599999999999824,
                    "velocity": 0.4251968503937008,
                    "duration": 0.14999999999999858
                },
                {
                    "name": "E3",
                    "midi": 52,
                    "time": 54.74999999999982,
                    "velocity": 0.3464566929133858,
                    "duration": 0.14999999999999858
                },
                {
                    "name": "G3",
                    "midi": 55,
                    "time": 54.74999999999982,
                    "velocity": 0.4409448818897638,
                    "duration": 0.14999999999999858
                },
                {
                    "name": "D#4",
                    "midi": 63,
                    "time": 54.89999999999982,
                    "velocity": 0.4566929133858268,
                    "duration": 0.14999999999999858
                },
                {
                    "name": "C4",
                    "midi": 60,
                    "time": 54.89999999999982,
                    "velocity": 0.36220472440944884,
                    "duration": 0.14999999999999858
                },
                {
                    "name": "E4",
                    "midi": 64,
                    "time": 55.04999999999982,
                    "velocity": 0.47244094488188976,
                    "duration": 0.14999999999999858
                },
                {
                    "name": "C#4",
                    "midi": 61,
                    "time": 55.04999999999982,
                    "velocity": 0.3779527559055118,
                    "duration": 0.14999999999999858
                },
                {
                    "name": "D#4",
                    "midi": 63,
                    "time": 55.19999999999982,
                    "velocity": 0.4881889763779528,
                    "duration": 0.14999999999999858
                },
                {
                    "name": "F#4",
                    "midi": 66,
                    "time": 55.19999999999982,
                    "velocity": 0.4881889763779528,
                    "duration": 0.14999999999999858
                },
                {
                    "name": "E4",
                    "midi": 64,
                    "time": 55.34999999999982,
                    "velocity": 0.3937007874015748,
                    "duration": 0.15000000000000568
                },
                {
                    "name": "G4",
                    "midi": 67,
                    "time": 55.34999999999982,
                    "velocity": 0.49606299212598426,
                    "duration": 0.15000000000000568
                },
                {
                    "name": "A4",
                    "midi": 69,
                    "time": 55.42499999999982,
                    "velocity": 0.5669291338582677,
                    "duration": 0.07500000000000284
                },
                {
                    "name": "A3",
                    "midi": 57,
                    "time": 55.42499999999982,
                    "velocity": 0.44881889763779526,
                    "duration": 0.07500000000000284
                },
                {
                    "name": "F#5",
                    "midi": 78,
                    "time": 55.49999999999982,
                    "velocity": 0.6929133858267716,
                    "duration": 0.8999999999999915
                },
                {
                    "name": "C5",
                    "midi": 72,
                    "time": 55.49999999999982,
                    "velocity": 0.5511811023622047,
                    "duration": 0.8999999999999915
                },
                {
                    "name": "F#4",
                    "midi": 66,
                    "time": 55.49999999999982,
                    "velocity": 0.5511811023622047,
                    "duration": 0.8999999999999915
                },
                {
                    "name": "F3",
                    "midi": 53,
                    "time": 55.79999999999982,
                    "velocity": 0.4251968503937008,
                    "duration": 0.14999999999999858
                },
                {
                    "name": "D3",
                    "midi": 50,
                    "time": 55.79999999999982,
                    "velocity": 0.33070866141732286,
                    "duration": 0.14999999999999858
                },
                {
                    "name": "D#3",
                    "midi": 51,
                    "time": 55.94999999999982,
                    "velocity": 0.3464566929133858,
                    "duration": 0.14999999999999858
                },
                {
                    "name": "F#3",
                    "midi": 54,
                    "time": 55.94999999999982,
                    "velocity": 0.4409448818897638,
                    "duration": 0.14999999999999858
                },
                {
                    "name": "D4",
                    "midi": 62,
                    "time": 56.09999999999982,
                    "velocity": 0.4566929133858268,
                    "duration": 0.14999999999999858
                },
                {
                    "name": "B3",
                    "midi": 59,
                    "time": 56.09999999999982,
                    "velocity": 0.36220472440944884,
                    "duration": 0.14999999999999858
                },
                {
                    "name": "D#4",
                    "midi": 63,
                    "time": 56.249999999999815,
                    "velocity": 0.47244094488188976,
                    "duration": 0.14999999999999858
                },
                {
                    "name": "C4",
                    "midi": 60,
                    "time": 56.249999999999815,
                    "velocity": 0.3779527559055118,
                    "duration": 0.14999999999999858
                },
                {
                    "name": "F4",
                    "midi": 65,
                    "time": 56.399999999999814,
                    "velocity": 0.4881889763779528,
                    "duration": 0.14999999999999858
                },
                {
                    "name": "D4",
                    "midi": 62,
                    "time": 56.399999999999814,
                    "velocity": 0.3858267716535433,
                    "duration": 0.14999999999999858
                },
                {
                    "name": "D#4",
                    "midi": 63,
                    "time": 56.54999999999981,
                    "velocity": 0.3937007874015748,
                    "duration": 0.14999999999999858
                },
                {
                    "name": "F#4",
                    "midi": 66,
                    "time": 56.54999999999981,
                    "velocity": 0.49606299212598426,
                    "duration": 0.14999999999999858
                },
                {
                    "name": "A3",
                    "midi": 57,
                    "time": 56.69999999999981,
                    "velocity": 0.4881889763779528,
                    "duration": 0.5999999999999943
                },
                {
                    "name": "A4",
                    "midi": 69,
                    "time": 56.69999999999981,
                    "velocity": 0.6141732283464567,
                    "duration": 0.5999999999999943
                },
                {
                    "name": "F3",
                    "midi": 53,
                    "time": 56.99999999999981,
                    "velocity": 0.4251968503937008,
                    "duration": 0.14999999999999858
                },
                {
                    "name": "D3",
                    "midi": 50,
                    "time": 56.99999999999981,
                    "velocity": 0.33070866141732286,
                    "duration": 0.14999999999999858
                },
                {
                    "name": "D#3",
                    "midi": 51,
                    "time": 57.14999999999981,
                    "velocity": 0.3464566929133858,
                    "duration": 0.14999999999999858
                },
                {
                    "name": "F#3",
                    "midi": 54,
                    "time": 57.14999999999981,
                    "velocity": 0.4409448818897638,
                    "duration": 0.14999999999999858
                },
                {
                    "name": "B3",
                    "midi": 59,
                    "time": 57.299999999999805,
                    "velocity": 0.36220472440944884,
                    "duration": 0.14999999999999858
                },
                {
                    "name": "D4",
                    "midi": 62,
                    "time": 57.299999999999805,
                    "velocity": 0.4566929133858268,
                    "duration": 0.14999999999999858
                },
                {
                    "name": "D#4",
                    "midi": 63,
                    "time": 57.449999999999804,
                    "velocity": 0.47244094488188976,
                    "duration": 0.14999999999999858
                },
                {
                    "name": "C4",
                    "midi": 60,
                    "time": 57.449999999999804,
                    "velocity": 0.3779527559055118,
                    "duration": 0.14999999999999858
                },
                {
                    "name": "D4",
                    "midi": 62,
                    "time": 57.5999999999998,
                    "velocity": 0.4881889763779528,
                    "duration": 0.14999999999999858
                },
                {
                    "name": "F4",
                    "midi": 65,
                    "time": 57.5999999999998,
                    "velocity": 0.4881889763779528,
                    "duration": 0.14999999999999858
                },
                {
                    "name": "F#4",
                    "midi": 66,
                    "time": 57.7499999999998,
                    "velocity": 0.49606299212598426,
                    "duration": 0.15000000000000568
                },
                {
                    "name": "D#4",
                    "midi": 63,
                    "time": 57.7499999999998,
                    "velocity": 0.3937007874015748,
                    "duration": 0.15000000000000568
                },
                {
                    "name": "A3",
                    "midi": 57,
                    "time": 57.824999999999804,
                    "velocity": 0.44881889763779526,
                    "duration": 0.07500000000000284
                },
                {
                    "name": "A4",
                    "midi": 69,
                    "time": 57.824999999999804,
                    "velocity": 0.5669291338582677,
                    "duration": 0.07500000000000284
                },
                {
                    "name": "F4",
                    "midi": 65,
                    "time": 57.89999999999981,
                    "velocity": 0.4881889763779528,
                    "duration": 0.5999999999999943
                },
                {
                    "name": "G#4",
                    "midi": 68,
                    "time": 57.89999999999981,
                    "velocity": 0.4881889763779528,
                    "duration": 0.5999999999999943
                },
                {
                    "name": "F5",
                    "midi": 77,
                    "time": 57.89999999999981,
                    "velocity": 0.6141732283464567,
                    "duration": 0.5999999999999943
                },
                {
                    "name": "E3",
                    "midi": 52,
                    "time": 58.199999999999804,
                    "velocity": 0.4251968503937008,
                    "duration": 0.14999999999999858
                },
                {
                    "name": "C#3",
                    "midi": 49,
                    "time": 58.199999999999804,
                    "velocity": 0.33070866141732286,
                    "duration": 0.14999999999999858
                },
                {
                    "name": "F3",
                    "midi": 53,
                    "time": 58.3499999999998,
                    "velocity": 0.4409448818897638,
                    "duration": 0.14999999999999858
                },
                {
                    "name": "D3",
                    "midi": 50,
                    "time": 58.3499999999998,
                    "velocity": 0.3464566929133858,
                    "duration": 0.14999999999999858
                },
                {
                    "name": "G3",
                    "midi": 55,
                    "time": 58.4999999999998,
                    "velocity": 0.36220472440944884,
                    "duration": 0.14999999999999858
                },
                {
                    "name": "A#3",
                    "midi": 58,
                    "time": 58.4999999999998,
                    "velocity": 0.4566929133858268,
                    "duration": 0.14999999999999858
                },
                {
                    "name": "B3",
                    "midi": 59,
                    "time": 58.6499999999998,
                    "velocity": 0.47244094488188976,
                    "duration": 0.14999999999999858
                },
                {
                    "name": "G#3",
                    "midi": 56,
                    "time": 58.6499999999998,
                    "velocity": 0.3779527559055118,
                    "duration": 0.14999999999999858
                },
                {
                    "name": "E4",
                    "midi": 64,
                    "time": 58.7999999999998,
                    "velocity": 0.4881889763779528,
                    "duration": 0.14999999999999858
                },
                {
                    "name": "C#4",
                    "midi": 61,
                    "time": 58.7999999999998,
                    "velocity": 0.4881889763779528,
                    "duration": 0.14999999999999858
                },
                {
                    "name": "F4",
                    "midi": 65,
                    "time": 58.9499999999998,
                    "velocity": 0.49606299212598426,
                    "duration": 0.07500000000000284
                },
                {
                    "name": "D4",
                    "midi": 62,
                    "time": 58.9499999999998,
                    "velocity": 0.3937007874015748,
                    "duration": 0.07500000000000284
                },
                {
                    "name": "F5",
                    "midi": 77,
                    "time": 59.0249999999998,
                    "velocity": 0.5669291338582677,
                    "duration": 0.07500000000000284
                },
                {
                    "name": "F4",
                    "midi": 65,
                    "time": 59.0249999999998,
                    "velocity": 0.44881889763779526,
                    "duration": 0.07500000000000284
                },
                {
                    "name": "E5",
                    "midi": 76,
                    "time": 59.0999999999998,
                    "velocity": 0.6141732283464567,
                    "duration": 0.5999999999999943
                },
                {
                    "name": "G#4",
                    "midi": 68,
                    "time": 59.0999999999998,
                    "velocity": 0.4881889763779528,
                    "duration": 0.5999999999999943
                },
                {
                    "name": "E4",
                    "midi": 64,
                    "time": 59.0999999999998,
                    "velocity": 0.4881889763779528,
                    "duration": 0.5999999999999943
                },
                {
                    "name": "C#3",
                    "midi": 49,
                    "time": 59.3999999999998,
                    "velocity": 0.33070866141732286,
                    "duration": 0.14999999999999858
                },
                {
                    "name": "E3",
                    "midi": 52,
                    "time": 59.3999999999998,
                    "velocity": 0.4251968503937008,
                    "duration": 0.14999999999999858
                },
                {
                    "name": "F3",
                    "midi": 53,
                    "time": 59.5499999999998,
                    "velocity": 0.4409448818897638,
                    "duration": 0.14999999999999858
                },
                {
                    "name": "D3",
                    "midi": 50,
                    "time": 59.5499999999998,
                    "velocity": 0.3464566929133858,
                    "duration": 0.14999999999999858
                },
                {
                    "name": "A3",
                    "midi": 57,
                    "time": 59.6999999999998,
                    "velocity": 0.36220472440944884,
                    "duration": 0.14999999999999858
                },
                {
                    "name": "C#4",
                    "midi": 61,
                    "time": 59.6999999999998,
                    "velocity": 0.4566929133858268,
                    "duration": 0.14999999999999858
                },
                {
                    "name": "A#3",
                    "midi": 58,
                    "time": 59.849999999999795,
                    "velocity": 0.47244094488188976,
                    "duration": 0.14999999999999858
                },
                {
                    "name": "D4",
                    "midi": 62,
                    "time": 59.849999999999795,
                    "velocity": 0.3779527559055118,
                    "duration": 0.14999999999999858
                },
                {
                    "name": "G3",
                    "midi": 55,
                    "time": 59.999999999999794,
                    "velocity": 0.4881889763779528,
                    "duration": 0.14999999999999858
                },
                {
                    "name": "D#4",
                    "midi": 63,
                    "time": 59.999999999999794,
                    "velocity": 0.4881889763779528,
                    "duration": 0.14999999999999858
                },
                {
                    "name": "E4",
                    "midi": 64,
                    "time": 60.14999999999979,
                    "velocity": 0.49606299212598426,
                    "duration": 0.15000000000000568
                },
                {
                    "name": "G#3",
                    "midi": 56,
                    "time": 60.14999999999979,
                    "velocity": 0.3937007874015748,
                    "duration": 0.15000000000000568
                },
                {
                    "name": "D5",
                    "midi": 74,
                    "time": 60.224999999999795,
                    "velocity": 0.5669291338582677,
                    "duration": 0.07500000000000284
                },
                {
                    "name": "D4",
                    "midi": 62,
                    "time": 60.224999999999795,
                    "velocity": 0.44881889763779526,
                    "duration": 0.07500000000000284
                },
                {
                    "name": "A4",
                    "midi": 69,
                    "time": 60.2999999999998,
                    "velocity": 0.6141732283464567,
                    "duration": 0.29999999999999716
                },
                {
                    "name": "C#4",
                    "midi": 61,
                    "time": 60.2999999999998,
                    "velocity": 0.4881889763779528,
                    "duration": 0.29999999999999716
                },
                {
                    "name": "A3",
                    "midi": 57,
                    "time": 60.2999999999998,
                    "velocity": 0.4881889763779528,
                    "duration": 0.29999999999999716
                },
                {
                    "name": "E4",
                    "midi": 64,
                    "time": 60.89999999999979,
                    "velocity": 0.36220472440944884,
                    "duration": 0.20000000000000284
                },
                {
                    "name": "C#5",
                    "midi": 73,
                    "time": 60.89999999999979,
                    "velocity": 0.5511811023622047,
                    "duration": 0.6000000000000085
                },
                {
                    "name": "F4",
                    "midi": 65,
                    "time": 61.099999999999795,
                    "velocity": 0.36220472440944884,
                    "duration": 0.20000000000000284
                },
                {
                    "name": "F#4",
                    "midi": 66,
                    "time": 61.2999999999998,
                    "velocity": 0.3700787401574803,
                    "duration": 0.20000000000000284
                },
                {
                    "name": "E5",
                    "midi": 76,
                    "time": 61.4999999999998,
                    "velocity": 0.5748031496062992,
                    "duration": 0.6000000000000085
                },
                {
                    "name": "G4",
                    "midi": 67,
                    "time": 61.4999999999998,
                    "velocity": 0.3779527559055118,
                    "duration": 0.20000000000000284
                },
                {
                    "name": "G#4",
                    "midi": 68,
                    "time": 61.699999999999804,
                    "velocity": 0.3779527559055118,
                    "duration": 0.20000000000000284
                },
                {
                    "name": "A4",
                    "midi": 69,
                    "time": 61.89999999999981,
                    "velocity": 0.3858267716535433,
                    "duration": 0.20000000000000284
                },
                {
                    "name": "G5",
                    "midi": 79,
                    "time": 62.09999999999981,
                    "velocity": 0.6062992125984252,
                    "duration": 0.6000000000000085
                },
                {
                    "name": "A#4",
                    "midi": 70,
                    "time": 62.09999999999981,
                    "velocity": 0.3937007874015748,
                    "duration": 0.20000000000000284
                },
                {
                    "name": "B4",
                    "midi": 71,
                    "time": 62.29999999999981,
                    "velocity": 0.3937007874015748,
                    "duration": 0.20000000000000284
                },
                {
                    "name": "C5",
                    "midi": 72,
                    "time": 62.499999999999815,
                    "velocity": 0.4015748031496063,
                    "duration": 0.20000000000000284
                },
                {
                    "name": "A#5",
                    "midi": 82,
                    "time": 62.69999999999982,
                    "velocity": 0.6299212598425197,
                    "duration": 0.6000000000000085
                },
                {
                    "name": "C#5",
                    "midi": 73,
                    "time": 62.69999999999982,
                    "velocity": 0.4015748031496063,
                    "duration": 0.20000000000000284
                },
                {
                    "name": "D5",
                    "midi": 74,
                    "time": 62.89999999999982,
                    "velocity": 0.4094488188976378,
                    "duration": 0.20000000000000284
                },
                {
                    "name": "E5",
                    "midi": 76,
                    "time": 63.099999999999824,
                    "velocity": 0.4094488188976378,
                    "duration": 0.20000000000000284
                },
                {
                    "name": "B4",
                    "midi": 71,
                    "time": 63.29999999999983,
                    "velocity": 0.33858267716535434,
                    "duration": 0.20000000000000284
                },
                {
                    "name": "B5",
                    "midi": 83,
                    "time": 63.29999999999983,
                    "velocity": 0.6062992125984252,
                    "duration": 0.6000000000000085
                },
                {
                    "name": "F5",
                    "midi": 77,
                    "time": 63.49999999999983,
                    "velocity": 0.4330708661417323,
                    "duration": 0.20000000000000284
                },
                {
                    "name": "G#5",
                    "midi": 80,
                    "time": 63.69999999999983,
                    "velocity": 0.4330708661417323,
                    "duration": 0.20000000000000284
                },
                {
                    "name": "E5",
                    "midi": 76,
                    "time": 63.899999999999835,
                    "velocity": 0.4881889763779528,
                    "duration": 0.29999999999999716
                },
                {
                    "name": "C#6",
                    "midi": 85,
                    "time": 63.899999999999835,
                    "velocity": 0.4881889763779528,
                    "duration": 0.29999999999999716
                },
                {
                    "name": "A5",
                    "midi": 81,
                    "time": 63.899999999999835,
                    "velocity": 0.4881889763779528,
                    "duration": 0.29999999999999716
                },
                {
                    "name": "E6",
                    "midi": 88,
                    "time": 63.899999999999835,
                    "velocity": 0.6141732283464567,
                    "duration": 0.29999999999999716
                },
                {
                    "name": "C#6",
                    "midi": 85,
                    "time": 64.49999999999983,
                    "velocity": 0.5511811023622047,
                    "duration": 0.6000000000000085
                },
                {
                    "name": "E5",
                    "midi": 76,
                    "time": 64.49999999999983,
                    "velocity": 0.36220472440944884,
                    "duration": 0.20000000000000284
                },
                {
                    "name": "F5",
                    "midi": 77,
                    "time": 64.69999999999983,
                    "velocity": 0.36220472440944884,
                    "duration": 0.20000000000000284
                },
                {
                    "name": "F#5",
                    "midi": 78,
                    "time": 64.89999999999984,
                    "velocity": 0.3700787401574803,
                    "duration": 0.20000000000000284
                },
                {
                    "name": "G5",
                    "midi": 79,
                    "time": 65.09999999999984,
                    "velocity": 0.3779527559055118,
                    "duration": 0.20000000000000284
                },
                {
                    "name": "E6",
                    "midi": 88,
                    "time": 65.09999999999984,
                    "velocity": 0.5748031496062992,
                    "duration": 0.6000000000000085
                },
                {
                    "name": "G#5",
                    "midi": 80,
                    "time": 65.29999999999984,
                    "velocity": 0.3779527559055118,
                    "duration": 0.20000000000000284
                },
                {
                    "name": "A5",
                    "midi": 81,
                    "time": 65.49999999999984,
                    "velocity": 0.3858267716535433,
                    "duration": 0.20000000000000284
                },
                {
                    "name": "A#5",
                    "midi": 82,
                    "time": 65.69999999999985,
                    "velocity": 0.3937007874015748,
                    "duration": 0.20000000000000284
                },
                {
                    "name": "G6",
                    "midi": 91,
                    "time": 65.69999999999985,
                    "velocity": 0.6062992125984252,
                    "duration": 0.6000000000000085
                },
                {
                    "name": "B5",
                    "midi": 83,
                    "time": 65.89999999999985,
                    "velocity": 0.3937007874015748,
                    "duration": 0.20000000000000284
                },
                {
                    "name": "C6",
                    "midi": 84,
                    "time": 66.09999999999985,
                    "velocity": 0.4015748031496063,
                    "duration": 0.20000000000000284
                },
                {
                    "name": "A#6",
                    "midi": 94,
                    "time": 66.29999999999986,
                    "velocity": 0.6299212598425197,
                    "duration": 0.6000000000000085
                },
                {
                    "name": "C#6",
                    "midi": 85,
                    "time": 66.29999999999986,
                    "velocity": 0.4015748031496063,
                    "duration": 0.20000000000000284
                },
                {
                    "name": "D6",
                    "midi": 86,
                    "time": 66.49999999999986,
                    "velocity": 0.4094488188976378,
                    "duration": 0.20000000000000284
                },
                {
                    "name": "E6",
                    "midi": 88,
                    "time": 66.69999999999986,
                    "velocity": 0.4094488188976378,
                    "duration": 0.20000000000000284
                },
                {
                    "name": "B6",
                    "midi": 95,
                    "time": 66.89999999999986,
                    "velocity": 0.6062992125984252,
                    "duration": 0.6000000000000085
                },
                {
                    "name": "B5",
                    "midi": 83,
                    "time": 66.89999999999986,
                    "velocity": 0.3937007874015748,
                    "duration": 0.20000000000000284
                },
                {
                    "name": "F6",
                    "midi": 89,
                    "time": 67.09999999999987,
                    "velocity": 0.4330708661417323,
                    "duration": 0.20000000000000284
                },
                {
                    "name": "G#6",
                    "midi": 92,
                    "time": 67.29999999999987,
                    "velocity": 0.4330708661417323,
                    "duration": 0.20000000000000284
                },
                {
                    "name": "A6",
                    "midi": 93,
                    "time": 67.49999999999987,
                    "velocity": 0.5275590551181102,
                    "duration": 0.29999999999999716
                },
                {
                    "name": "C#7",
                    "midi": 97,
                    "time": 67.49999999999987,
                    "velocity": 0.5275590551181102,
                    "duration": 0.29999999999999716
                },
                {
                    "name": "E6",
                    "midi": 88,
                    "time": 67.49999999999987,
                    "velocity": 0.5275590551181102,
                    "duration": 0.29999999999999716
                },
                {
                    "name": "E7",
                    "midi": 100,
                    "time": 67.49999999999987,
                    "velocity": 0.6692913385826772,
                    "duration": 0.29999999999999716
                },
                {
                    "name": "B5",
                    "midi": 83,
                    "time": 68.09999999999987,
                    "velocity": 0.4330708661417323,
                    "duration": 0.20000000000000284
                },
                {
                    "name": "B6",
                    "midi": 95,
                    "time": 68.09999999999987,
                    "velocity": 0.5275590551181102,
                    "duration": 0.6000000000000085
                },
                {
                    "name": "F6",
                    "midi": 89,
                    "time": 68.29999999999987,
                    "velocity": 0.4330708661417323,
                    "duration": 0.20000000000000284
                },
                {
                    "name": "G#6",
                    "midi": 92,
                    "time": 68.49999999999987,
                    "velocity": 0.4330708661417323,
                    "duration": 0.20000000000000284
                },
                {
                    "name": "E7",
                    "midi": 100,
                    "time": 68.69999999999987,
                    "velocity": 0.6692913385826772,
                    "duration": 0.29999999999999716
                },
                {
                    "name": "A6",
                    "midi": 93,
                    "time": 68.69999999999987,
                    "velocity": 0.5275590551181102,
                    "duration": 0.29999999999999716
                },
                {
                    "name": "E6",
                    "midi": 88,
                    "time": 68.69999999999987,
                    "velocity": 0.5275590551181102,
                    "duration": 0.29999999999999716
                },
                {
                    "name": "C#7",
                    "midi": 97,
                    "time": 68.69999999999987,
                    "velocity": 0.5275590551181102,
                    "duration": 0.29999999999999716
                },
                {
                    "name": "B5",
                    "midi": 83,
                    "time": 69.29999999999987,
                    "velocity": 0.4330708661417323,
                    "duration": 0.20000000000000284
                },
                {
                    "name": "B6",
                    "midi": 95,
                    "time": 69.29999999999987,
                    "velocity": 0.5275590551181102,
                    "duration": 0.6000000000000085
                },
                {
                    "name": "F6",
                    "midi": 89,
                    "time": 69.49999999999987,
                    "velocity": 0.4330708661417323,
                    "duration": 0.20000000000000284
                },
                {
                    "name": "G#6",
                    "midi": 92,
                    "time": 69.69999999999987,
                    "velocity": 0.4330708661417323,
                    "duration": 0.20000000000000284
                },
                {
                    "name": "C#7",
                    "midi": 97,
                    "time": 69.89999999999988,
                    "velocity": 0.5275590551181102,
                    "duration": 0.29999999999999716
                },
                {
                    "name": "E6",
                    "midi": 88,
                    "time": 69.89999999999988,
                    "velocity": 0.5275590551181102,
                    "duration": 0.29999999999999716
                },
                {
                    "name": "E7",
                    "midi": 100,
                    "time": 69.89999999999988,
                    "velocity": 0.6692913385826772,
                    "duration": 0.29999999999999716
                },
                {
                    "name": "A6",
                    "midi": 93,
                    "time": 69.89999999999988,
                    "velocity": 0.5275590551181102,
                    "duration": 0.29999999999999716
                },
                {
                    "name": "B6",
                    "midi": 95,
                    "time": 70.49999999999987,
                    "velocity": 0.5275590551181102,
                    "duration": 0.6000000000000085
                },
                {
                    "name": "B5",
                    "midi": 83,
                    "time": 70.49999999999987,
                    "velocity": 0.4330708661417323,
                    "duration": 0.20000000000000284
                },
                {
                    "name": "F6",
                    "midi": 89,
                    "time": 70.69999999999987,
                    "velocity": 0.4330708661417323,
                    "duration": 0.20000000000000284
                },
                {
                    "name": "G#6",
                    "midi": 92,
                    "time": 70.89999999999988,
                    "velocity": 0.4330708661417323,
                    "duration": 0.20000000000000284
                },
                {
                    "name": "A6",
                    "midi": 93,
                    "time": 71.09999999999988,
                    "velocity": 0.5275590551181102,
                    "duration": 0.29999999999999716
                },
                {
                    "name": "E6",
                    "midi": 88,
                    "time": 71.09999999999988,
                    "velocity": 0.5275590551181102,
                    "duration": 0.29999999999999716
                },
                {
                    "name": "E7",
                    "midi": 100,
                    "time": 71.09999999999988,
                    "velocity": 0.6692913385826772,
                    "duration": 0.29999999999999716
                },
                {
                    "name": "C#7",
                    "midi": 97,
                    "time": 71.09999999999988,
                    "velocity": 0.5275590551181102,
                    "duration": 0.29999999999999716
                },
                {
                    "name": "A#5",
                    "midi": 82,
                    "time": 71.69999999999987,
                    "velocity": 0.5748031496062992,
                    "duration": 0.4000000000000057
                },
                {
                    "name": "A#4",
                    "midi": 70,
                    "time": 71.69999999999987,
                    "velocity": 0.4881889763779528,
                    "duration": 0.4000000000000057
                },
                {
                    "name": "A4",
                    "midi": 69,
                    "time": 72.09999999999988,
                    "velocity": 0.4409448818897638,
                    "duration": 0.20000000000000284
                },
                {
                    "name": "A5",
                    "midi": 81,
                    "time": 72.09999999999988,
                    "velocity": 0.5275590551181102,
                    "duration": 0.20000000000000284
                },
                {
                    "name": "G4",
                    "midi": 67,
                    "time": 72.29999999999988,
                    "velocity": 0.4881889763779528,
                    "duration": 0.20000000000000284
                },
                {
                    "name": "G5",
                    "midi": 79,
                    "time": 72.29999999999988,
                    "velocity": 0.5826771653543307,
                    "duration": 0.20000000000000284
                },
                {
                    "name": "F5",
                    "midi": 77,
                    "time": 72.49999999999989,
                    "velocity": 0.5511811023622047,
                    "duration": 0.20000000000000284
                },
                {
                    "name": "F4",
                    "midi": 65,
                    "time": 72.49999999999989,
                    "velocity": 0.4645669291338583,
                    "duration": 0.20000000000000284
                },
                {
                    "name": "E5",
                    "midi": 76,
                    "time": 72.69999999999989,
                    "velocity": 0.5511811023622047,
                    "duration": 0.20000000000000284
                },
                {
                    "name": "E4",
                    "midi": 64,
                    "time": 72.69999999999989,
                    "velocity": 0.4645669291338583,
                    "duration": 0.20000000000000284
                },
                {
                    "name": "D5",
                    "midi": 74,
                    "time": 72.89999999999989,
                    "velocity": 0.5039370078740157,
                    "duration": 0.20000000000000284
                },
                {
                    "name": "D4",
                    "midi": 62,
                    "time": 72.89999999999989,
                    "velocity": 0.4251968503937008,
                    "duration": 0.20000000000000284
                },
                {
                    "name": "C#4",
                    "midi": 61,
                    "time": 73.0999999999999,
                    "velocity": 0.47244094488188976,
                    "duration": 0.20000000000000284
                },
                {
                    "name": "C#5",
                    "midi": 73,
                    "time": 73.0999999999999,
                    "velocity": 0.5590551181102362,
                    "duration": 0.20000000000000284
                },
                {
                    "name": "E4",
                    "midi": 64,
                    "time": 73.2999999999999,
                    "velocity": 0.4409448818897638,
                    "duration": 0.20000000000000284
                },
                {
                    "name": "E5",
                    "midi": 76,
                    "time": 73.2999999999999,
                    "velocity": 0.5275590551181102,
                    "duration": 0.20000000000000284
                },
                {
                    "name": "C4",
                    "midi": 60,
                    "time": 73.4999999999999,
                    "velocity": 0.4881889763779528,
                    "duration": 0.20000000000000284
                },
                {
                    "name": "C5",
                    "midi": 72,
                    "time": 73.4999999999999,
                    "velocity": 0.5748031496062992,
                    "duration": 0.20000000000000284
                },
                {
                    "name": "E5",
                    "midi": 76,
                    "time": 73.6999999999999,
                    "velocity": 0.5433070866141733,
                    "duration": 0.20000000000000284
                },
                {
                    "name": "E4",
                    "midi": 64,
                    "time": 73.6999999999999,
                    "velocity": 0.4566929133858268,
                    "duration": 0.20000000000000284
                },
                {
                    "name": "B4",
                    "midi": 71,
                    "time": 73.8999999999999,
                    "velocity": 0.5748031496062992,
                    "duration": 0.20000000000000284
                },
                {
                    "name": "B3",
                    "midi": 59,
                    "time": 73.8999999999999,
                    "velocity": 0.4881889763779528,
                    "duration": 0.20000000000000284
                },
                {
                    "name": "E5",
                    "midi": 76,
                    "time": 74.09999999999991,
                    "velocity": 0.5275590551181102,
                    "duration": 0.20000000000000284
                },
                {
                    "name": "E4",
                    "midi": 64,
                    "time": 74.09999999999991,
                    "velocity": 0.4409448818897638,
                    "duration": 0.20000000000000284
                },
                {
                    "name": "A#4",
                    "midi": 70,
                    "time": 74.29999999999991,
                    "velocity": 0.5984251968503937,
                    "duration": 0.20000000000000284
                },
                {
                    "name": "A#3",
                    "midi": 58,
                    "time": 74.29999999999991,
                    "velocity": 0.5039370078740157,
                    "duration": 0.20000000000000284
                },
                {
                    "name": "E5",
                    "midi": 76,
                    "time": 74.49999999999991,
                    "velocity": 0.5511811023622047,
                    "duration": 0.20000000000000284
                },
                {
                    "name": "E4",
                    "midi": 64,
                    "time": 74.49999999999991,
                    "velocity": 0.4645669291338583,
                    "duration": 0.20000000000000284
                },
                {
                    "name": "A4",
                    "midi": 69,
                    "time": 74.69999999999992,
                    "velocity": 0.6377952755905512,
                    "duration": 0.29999999999999716
                },
                {
                    "name": "A3",
                    "midi": 57,
                    "time": 74.69999999999992,
                    "velocity": 0.5354330708661418,
                    "duration": 0.29999999999999716
                },
                {
                    "name": "C#6",
                    "midi": 85,
                    "time": 75.29999999999991,
                    "velocity": 0.5984251968503937,
                    "duration": 0.4000000000000057
                },
                {
                    "name": "C#5",
                    "midi": 73,
                    "time": 75.29999999999991,
                    "velocity": 0.5984251968503937,
                    "duration": 0.4000000000000057
                },
                {
                    "name": "A#4",
                    "midi": 70,
                    "time": 75.69999999999992,
                    "velocity": 0.44881889763779526,
                    "duration": 0.20000000000000284
                },
                {
                    "name": "A#5",
                    "midi": 82,
                    "time": 75.69999999999992,
                    "velocity": 0.5354330708661418,
                    "duration": 0.20000000000000284
                },
                {
                    "name": "A5",
                    "midi": 81,
                    "time": 75.89999999999992,
                    "velocity": 0.5748031496062992,
                    "duration": 0.20000000000000284
                },
                {
                    "name": "A4",
                    "midi": 69,
                    "time": 75.89999999999992,
                    "velocity": 0.4881889763779528,
                    "duration": 0.20000000000000284
                },
                {
                    "name": "G4",
                    "midi": 67,
                    "time": 76.09999999999992,
                    "velocity": 0.4645669291338583,
                    "duration": 0.20000000000000284
                },
                {
                    "name": "G5",
                    "midi": 79,
                    "time": 76.09999999999992,
                    "velocity": 0.5511811023622047,
                    "duration": 0.20000000000000284
                },
                {
                    "name": "F5",
                    "midi": 77,
                    "time": 76.29999999999993,
                    "velocity": 0.5354330708661418,
                    "duration": 0.20000000000000284
                },
                {
                    "name": "F4",
                    "midi": 65,
                    "time": 76.29999999999993,
                    "velocity": 0.44881889763779526,
                    "duration": 0.20000000000000284
                },
                {
                    "name": "E5",
                    "midi": 76,
                    "time": 76.49999999999993,
                    "velocity": 0.5669291338582677,
                    "duration": 0.20000000000000284
                },
                {
                    "name": "E4",
                    "midi": 64,
                    "time": 76.49999999999993,
                    "velocity": 0.48031496062992124,
                    "duration": 0.20000000000000284
                },
                {
                    "name": "G5",
                    "midi": 79,
                    "time": 76.69999999999993,
                    "velocity": 0.5039370078740157,
                    "duration": 0.20000000000000284
                },
                {
                    "name": "G4",
                    "midi": 67,
                    "time": 76.69999999999993,
                    "velocity": 0.4251968503937008,
                    "duration": 0.20000000000000284
                },
                {
                    "name": "D#5",
                    "midi": 75,
                    "time": 76.89999999999993,
                    "velocity": 0.5669291338582677,
                    "duration": 0.20000000000000284
                },
                {
                    "name": "D#4",
                    "midi": 63,
                    "time": 76.89999999999993,
                    "velocity": 0.48031496062992124,
                    "duration": 0.20000000000000284
                },
                {
                    "name": "G5",
                    "midi": 79,
                    "time": 77.09999999999994,
                    "velocity": 0.5196850393700787,
                    "duration": 0.20000000000000284
                },
                {
                    "name": "G4",
                    "midi": 67,
                    "time": 77.09999999999994,
                    "velocity": 0.4409448818897638,
                    "duration": 0.20000000000000284
                },
                {
                    "name": "D4",
                    "midi": 62,
                    "time": 77.29999999999994,
                    "velocity": 0.4881889763779528,
                    "duration": 0.20000000000000284
                },
                {
                    "name": "D5",
                    "midi": 74,
                    "time": 77.29999999999994,
                    "velocity": 0.5748031496062992,
                    "duration": 0.20000000000000284
                },
                {
                    "name": "G5",
                    "midi": 79,
                    "time": 77.49999999999994,
                    "velocity": 0.5196850393700787,
                    "duration": 0.20000000000000284
                },
                {
                    "name": "G4",
                    "midi": 67,
                    "time": 77.49999999999994,
                    "velocity": 0.4409448818897638,
                    "duration": 0.20000000000000284
                },
                {
                    "name": "C#5",
                    "midi": 73,
                    "time": 77.69999999999995,
                    "velocity": 0.5826771653543307,
                    "duration": 0.20000000000000284
                },
                {
                    "name": "C#4",
                    "midi": 61,
                    "time": 77.69999999999995,
                    "velocity": 0.4881889763779528,
                    "duration": 0.20000000000000284
                },
                {
                    "name": "G5",
                    "midi": 79,
                    "time": 77.89999999999995,
                    "velocity": 0.5275590551181102,
                    "duration": 0.20000000000000284
                },
                {
                    "name": "G4",
                    "midi": 67,
                    "time": 77.89999999999995,
                    "velocity": 0.4409448818897638,
                    "duration": 0.20000000000000284
                },
                {
                    "name": "A#3",
                    "midi": 58,
                    "time": 78.09999999999995,
                    "velocity": 0.49606299212598426,
                    "duration": 0.20000000000000284
                },
                {
                    "name": "A#4",
                    "midi": 70,
                    "time": 78.09999999999995,
                    "velocity": 0.5905511811023622,
                    "duration": 0.20000000000000284
                },
                {
                    "name": "G4",
                    "midi": 67,
                    "time": 78.29999999999995,
                    "velocity": 0.5433070866141733,
                    "duration": 0.15000000000000568
                },
                {
                    "name": "G5",
                    "midi": 79,
                    "time": 78.29999999999995,
                    "velocity": 0.6771653543307087,
                    "duration": 0.15000000000000568
                },
                {
                    "name": "A3",
                    "midi": 57,
                    "time": 78.59999999999997,
                    "velocity": 0.49606299212598426,
                    "duration": 0.15000000000000568
                },
                {
                    "name": "A4",
                    "midi": 69,
                    "time": 78.59999999999997,
                    "velocity": 0.5826771653543307,
                    "duration": 0.15000000000000568
                },
                {
                    "name": "E6",
                    "midi": 88,
                    "time": 78.89999999999998,
                    "velocity": 0.5826771653543307,
                    "duration": 0.4000000000000057
                },
                {
                    "name": "E5",
                    "midi": 76,
                    "time": 78.89999999999998,
                    "velocity": 0.49606299212598426,
                    "duration": 0.4000000000000057
                },
                {
                    "name": "D5",
                    "midi": 74,
                    "time": 79.29999999999998,
                    "velocity": 0.4251968503937008,
                    "duration": 0.20000000000000284
                },
                {
                    "name": "D6",
                    "midi": 86,
                    "time": 79.29999999999998,
                    "velocity": 0.5039370078740157,
                    "duration": 0.20000000000000284
                },
                {
                    "name": "C#6",
                    "midi": 85,
                    "time": 79.49999999999999,
                    "velocity": 0.5590551181102362,
                    "duration": 0.20000000000000284
                },
                {
                    "name": "C#5",
                    "midi": 73,
                    "time": 79.49999999999999,
                    "velocity": 0.47244094488188976,
                    "duration": 0.20000000000000284
                },
                {
                    "name": "A#5",
                    "midi": 82,
                    "time": 79.69999999999999,
                    "velocity": 0.47244094488188976,
                    "duration": 0.20000000000000284
                },
                {
                    "name": "A#4",
                    "midi": 70,
                    "time": 79.69999999999999,
                    "velocity": 0.3937007874015748,
                    "duration": 0.20000000000000284
                },
                {
                    "name": "A5",
                    "midi": 81,
                    "time": 79.89999999999999,
                    "velocity": 0.47244094488188976,
                    "duration": 0.20000000000000284
                },
                {
                    "name": "A4",
                    "midi": 69,
                    "time": 79.89999999999999,
                    "velocity": 0.3937007874015748,
                    "duration": 0.20000000000000284
                },
                {
                    "name": "G6",
                    "midi": 91,
                    "time": 80.1,
                    "velocity": 0.5590551181102362,
                    "duration": 0.20000000000000284
                },
                {
                    "name": "G5",
                    "midi": 79,
                    "time": 80.1,
                    "velocity": 0.47244094488188976,
                    "duration": 0.20000000000000284
                },
                {
                    "name": "F6",
                    "midi": 89,
                    "time": 80.3,
                    "velocity": 0.5511811023622047,
                    "duration": 0.20000000000000284
                },
                {
                    "name": "F5",
                    "midi": 77,
                    "time": 80.3,
                    "velocity": 0.4645669291338583,
                    "duration": 0.20000000000000284
                },
                {
                    "name": "E6",
                    "midi": 88,
                    "time": 80.5,
                    "velocity": 0.5354330708661418,
                    "duration": 0.20000000000000284
                },
                {
                    "name": "E5",
                    "midi": 76,
                    "time": 80.5,
                    "velocity": 0.44881889763779526,
                    "duration": 0.20000000000000284
                },
                {
                    "name": "D6",
                    "midi": 86,
                    "time": 80.7,
                    "velocity": 0.5196850393700787,
                    "duration": 0.20000000000000284
                },
                {
                    "name": "D5",
                    "midi": 74,
                    "time": 80.7,
                    "velocity": 0.4330708661417323,
                    "duration": 0.20000000000000284
                },
                {
                    "name": "C#6",
                    "midi": 85,
                    "time": 80.9,
                    "velocity": 0.5118110236220472,
                    "duration": 0.20000000000000284
                },
                {
                    "name": "C#5",
                    "midi": 73,
                    "time": 80.9,
                    "velocity": 0.4330708661417323,
                    "duration": 0.20000000000000284
                },
                {
                    "name": "A#5",
                    "midi": 82,
                    "time": 81.10000000000001,
                    "velocity": 0.44881889763779526,
                    "duration": 0.20000000000000284
                },
                {
                    "name": "A#6",
                    "midi": 94,
                    "time": 81.10000000000001,
                    "velocity": 0.5275590551181102,
                    "duration": 0.20000000000000284
                },
                {
                    "name": "A5",
                    "midi": 81,
                    "time": 81.30000000000001,
                    "velocity": 0.5039370078740157,
                    "duration": 0.20000000000000284
                },
                {
                    "name": "A6",
                    "midi": 93,
                    "time": 81.30000000000001,
                    "velocity": 0.5984251968503937,
                    "duration": 0.20000000000000284
                },
                {
                    "name": "G5",
                    "midi": 79,
                    "time": 81.50000000000001,
                    "velocity": 0.4881889763779528,
                    "duration": 0.20000000000000284
                },
                {
                    "name": "G6",
                    "midi": 91,
                    "time": 81.50000000000001,
                    "velocity": 0.5826771653543307,
                    "duration": 0.20000000000000284
                },
                {
                    "name": "F5",
                    "midi": 77,
                    "time": 81.70000000000002,
                    "velocity": 0.4566929133858268,
                    "duration": 0.20000000000000284
                },
                {
                    "name": "F6",
                    "midi": 89,
                    "time": 81.70000000000002,
                    "velocity": 0.5433070866141733,
                    "duration": 0.20000000000000284
                },
                {
                    "name": "E5",
                    "midi": 76,
                    "time": 81.90000000000002,
                    "velocity": 0.4330708661417323,
                    "duration": 0.20000000000000284
                },
                {
                    "name": "E6",
                    "midi": 88,
                    "time": 81.90000000000002,
                    "velocity": 0.5118110236220472,
                    "duration": 0.20000000000000284
                },
                {
                    "name": "E6",
                    "midi": 88,
                    "time": 82.10000000000002,
                    "velocity": 0.5433070866141733,
                    "duration": 0.20000000000000284
                },
                {
                    "name": "E7",
                    "midi": 100,
                    "time": 82.10000000000002,
                    "velocity": 0.6456692913385826,
                    "duration": 0.20000000000000284
                },
                {
                    "name": "D7",
                    "midi": 98,
                    "time": 82.30000000000003,
                    "velocity": 0.6377952755905512,
                    "duration": 0.20000000000000284
                },
                {
                    "name": "D6",
                    "midi": 86,
                    "time": 82.30000000000003,
                    "velocity": 0.5354330708661418,
                    "duration": 0.20000000000000284
                },
                {
                    "name": "C#7",
                    "midi": 97,
                    "time": 82.50000000000003,
                    "velocity": 0.6220472440944882,
                    "duration": 0.20000000000000284
                },
                {
                    "name": "C#6",
                    "midi": 85,
                    "time": 82.50000000000003,
                    "velocity": 0.5275590551181102,
                    "duration": 0.20000000000000284
                },
                {
                    "name": "A#5",
                    "midi": 82,
                    "time": 82.70000000000003,
                    "velocity": 0.4881889763779528,
                    "duration": 0.20000000000000284
                },
                {
                    "name": "A#6",
                    "midi": 94,
                    "time": 82.70000000000003,
                    "velocity": 0.5826771653543307,
                    "duration": 0.20000000000000284
                },
                {
                    "name": "A6",
                    "midi": 93,
                    "time": 82.90000000000003,
                    "velocity": 0.6299212598425197,
                    "duration": 0.20000000000000284
                },
                {
                    "name": "A5",
                    "midi": 81,
                    "time": 82.90000000000003,
                    "velocity": 0.5354330708661418,
                    "duration": 0.20000000000000284
                },
                {
                    "name": "A#6",
                    "midi": 94,
                    "time": 83.10000000000004,
                    "velocity": 0.5669291338582677,
                    "duration": 0.20000000000000284
                },
                {
                    "name": "A#5",
                    "midi": 82,
                    "time": 83.10000000000004,
                    "velocity": 0.48031496062992124,
                    "duration": 0.20000000000000284
                },
                {
                    "name": "G6",
                    "midi": 91,
                    "time": 83.30000000000004,
                    "velocity": 0.6377952755905512,
                    "duration": 0.20000000000000284
                },
                {
                    "name": "G5",
                    "midi": 79,
                    "time": 83.30000000000004,
                    "velocity": 0.5354330708661418,
                    "duration": 0.20000000000000284
                },
                {
                    "name": "A#5",
                    "midi": 82,
                    "time": 83.50000000000004,
                    "velocity": 0.47244094488188976,
                    "duration": 0.20000000000000284
                },
                {
                    "name": "A#6",
                    "midi": 94,
                    "time": 83.50000000000004,
                    "velocity": 0.5590551181102362,
                    "duration": 0.20000000000000284
                },
                {
                    "name": "F6",
                    "midi": 89,
                    "time": 83.70000000000005,
                    "velocity": 0.6299212598425197,
                    "duration": 0.20000000000000284
                },
                {
                    "name": "F5",
                    "midi": 77,
                    "time": 83.70000000000005,
                    "velocity": 0.5354330708661418,
                    "duration": 0.20000000000000284
                },
                {
                    "name": "G6",
                    "midi": 91,
                    "time": 83.90000000000005,
                    "velocity": 0.5669291338582677,
                    "duration": 0.20000000000000284
                },
                {
                    "name": "G5",
                    "midi": 79,
                    "time": 83.90000000000005,
                    "velocity": 0.48031496062992124,
                    "duration": 0.20000000000000284
                },
                {
                    "name": "E6",
                    "midi": 88,
                    "time": 84.10000000000005,
                    "velocity": 0.6377952755905512,
                    "duration": 0.20000000000000284
                },
                {
                    "name": "E5",
                    "midi": 76,
                    "time": 84.10000000000005,
                    "velocity": 0.5354330708661418,
                    "duration": 0.20000000000000284
                },
                {
                    "name": "G5",
                    "midi": 79,
                    "time": 84.30000000000005,
                    "velocity": 0.48031496062992124,
                    "duration": 0.20000000000000284
                },
                {
                    "name": "G6",
                    "midi": 91,
                    "time": 84.30000000000005,
                    "velocity": 0.5669291338582677,
                    "duration": 0.20000000000000284
                },
                {
                    "name": "D5",
                    "midi": 74,
                    "time": 84.50000000000006,
                    "velocity": 0.5433070866141733,
                    "duration": 0.20000000000000284
                },
                {
                    "name": "D6",
                    "midi": 86,
                    "time": 84.50000000000006,
                    "velocity": 0.6456692913385826,
                    "duration": 0.20000000000000284
                },
                {
                    "name": "E5",
                    "midi": 76,
                    "time": 84.70000000000006,
                    "velocity": 0.4881889763779528,
                    "duration": 0.20000000000000284
                },
                {
                    "name": "E6",
                    "midi": 88,
                    "time": 84.70000000000006,
                    "velocity": 0.5826771653543307,
                    "duration": 0.20000000000000284
                },
                {
                    "name": "C#5",
                    "midi": 73,
                    "time": 84.90000000000006,
                    "velocity": 0.5354330708661418,
                    "duration": 0.20000000000000284
                },
                {
                    "name": "C#6",
                    "midi": 85,
                    "time": 84.90000000000006,
                    "velocity": 0.6377952755905512,
                    "duration": 0.20000000000000284
                },
                {
                    "name": "E5",
                    "midi": 76,
                    "time": 85.10000000000007,
                    "velocity": 0.48031496062992124,
                    "duration": 0.20000000000000284
                },
                {
                    "name": "E6",
                    "midi": 88,
                    "time": 85.10000000000007,
                    "velocity": 0.5669291338582677,
                    "duration": 0.20000000000000284
                },
                {
                    "name": "A#5",
                    "midi": 82,
                    "time": 85.30000000000007,
                    "velocity": 0.6220472440944882,
                    "duration": 0.20000000000000284
                },
                {
                    "name": "A#4",
                    "midi": 70,
                    "time": 85.30000000000007,
                    "velocity": 0.5275590551181102,
                    "duration": 0.20000000000000284
                },
                {
                    "name": "C#6",
                    "midi": 85,
                    "time": 85.50000000000007,
                    "velocity": 0.5511811023622047,
                    "duration": 0.20000000000000284
                },
                {
                    "name": "C#5",
                    "midi": 73,
                    "time": 85.50000000000007,
                    "velocity": 0.4645669291338583,
                    "duration": 0.20000000000000284
                },
                {
                    "name": "A4",
                    "midi": 69,
                    "time": 85.70000000000007,
                    "velocity": 0.5118110236220472,
                    "duration": 0.20000000000000284
                },
                {
                    "name": "A5",
                    "midi": 81,
                    "time": 85.70000000000007,
                    "velocity": 0.6062992125984252,
                    "duration": 0.20000000000000284
                },
                {
                    "name": "A#4",
                    "midi": 70,
                    "time": 85.90000000000008,
                    "velocity": 0.44881889763779526,
                    "duration": 0.20000000000000284
                },
                {
                    "name": "A#5",
                    "midi": 82,
                    "time": 85.90000000000008,
                    "velocity": 0.5354330708661418,
                    "duration": 0.20000000000000284
                },
                {
                    "name": "G5",
                    "midi": 79,
                    "time": 86.10000000000008,
                    "velocity": 0.5826771653543307,
                    "duration": 0.20000000000000284
                },
                {
                    "name": "G4",
                    "midi": 67,
                    "time": 86.10000000000008,
                    "velocity": 0.4881889763779528,
                    "duration": 0.20000000000000284
                },
                {
                    "name": "A#4",
                    "midi": 70,
                    "time": 86.30000000000008,
                    "velocity": 0.4409448818897638,
                    "duration": 0.20000000000000284
                },
                {
                    "name": "A#5",
                    "midi": 82,
                    "time": 86.30000000000008,
                    "velocity": 0.5275590551181102,
                    "duration": 0.20000000000000284
                },
                {
                    "name": "F5",
                    "midi": 77,
                    "time": 86.50000000000009,
                    "velocity": 0.6141732283464567,
                    "duration": 0.20000000000000284
                },
                {
                    "name": "F4",
                    "midi": 65,
                    "time": 86.50000000000009,
                    "velocity": 0.5196850393700787,
                    "duration": 0.20000000000000284
                },
                {
                    "name": "G4",
                    "midi": 67,
                    "time": 86.70000000000009,
                    "velocity": 0.4566929133858268,
                    "duration": 0.20000000000000284
                },
                {
                    "name": "G5",
                    "midi": 79,
                    "time": 86.70000000000009,
                    "velocity": 0.5433070866141733,
                    "duration": 0.20000000000000284
                },
                {
                    "name": "E4",
                    "midi": 64,
                    "time": 86.90000000000009,
                    "velocity": 0.49606299212598426,
                    "duration": 0.20000000000000284
                },
                {
                    "name": "E5",
                    "midi": 76,
                    "time": 86.90000000000009,
                    "velocity": 0.5905511811023622,
                    "duration": 0.20000000000000284
                },
                {
                    "name": "G4",
                    "midi": 67,
                    "time": 87.1000000000001,
                    "velocity": 0.4566929133858268,
                    "duration": 0.20000000000000284
                },
                {
                    "name": "G5",
                    "midi": 79,
                    "time": 87.1000000000001,
                    "velocity": 0.5433070866141733,
                    "duration": 0.20000000000000284
                },
                {
                    "name": "D5",
                    "midi": 74,
                    "time": 87.3000000000001,
                    "velocity": 0.5984251968503937,
                    "duration": 0.20000000000000284
                },
                {
                    "name": "D4",
                    "midi": 62,
                    "time": 87.3000000000001,
                    "velocity": 0.5039370078740157,
                    "duration": 0.20000000000000284
                },
                {
                    "name": "E5",
                    "midi": 76,
                    "time": 87.5000000000001,
                    "velocity": 0.5511811023622047,
                    "duration": 0.20000000000000284
                },
                {
                    "name": "E4",
                    "midi": 64,
                    "time": 87.5000000000001,
                    "velocity": 0.4645669291338583,
                    "duration": 0.20000000000000284
                },
                {
                    "name": "C#5",
                    "midi": 73,
                    "time": 87.7000000000001,
                    "velocity": 0.5984251968503937,
                    "duration": 0.20000000000000284
                },
                {
                    "name": "C#4",
                    "midi": 61,
                    "time": 87.7000000000001,
                    "velocity": 0.5039370078740157,
                    "duration": 0.20000000000000284
                },
                {
                    "name": "E4",
                    "midi": 64,
                    "time": 87.9000000000001,
                    "velocity": 0.4566929133858268,
                    "duration": 0.20000000000000284
                },
                {
                    "name": "E5",
                    "midi": 76,
                    "time": 87.9000000000001,
                    "velocity": 0.5433070866141733,
                    "duration": 0.20000000000000284
                },
                {
                    "name": "A#4",
                    "midi": 70,
                    "time": 88.10000000000011,
                    "velocity": 0.6062992125984252,
                    "duration": 0.20000000000000284
                },
                {
                    "name": "A#3",
                    "midi": 58,
                    "time": 88.10000000000011,
                    "velocity": 0.5118110236220472,
                    "duration": 0.20000000000000284
                },
                {
                    "name": "C#5",
                    "midi": 73,
                    "time": 88.30000000000011,
                    "velocity": 0.5590551181102362,
                    "duration": 0.20000000000000284
                },
                {
                    "name": "C#4",
                    "midi": 61,
                    "time": 88.30000000000011,
                    "velocity": 0.47244094488188976,
                    "duration": 0.20000000000000284
                },
                {
                    "name": "A4",
                    "midi": 69,
                    "time": 88.50000000000011,
                    "velocity": 0.6141732283464567,
                    "duration": 0.20000000000000284
                },
                {
                    "name": "A3",
                    "midi": 57,
                    "time": 88.50000000000011,
                    "velocity": 0.5196850393700787,
                    "duration": 0.20000000000000284
                },
                {
                    "name": "A#4",
                    "midi": 70,
                    "time": 88.70000000000012,
                    "velocity": 0.5669291338582677,
                    "duration": 0.20000000000000284
                },
                {
                    "name": "A#3",
                    "midi": 58,
                    "time": 88.70000000000012,
                    "velocity": 0.48031496062992124,
                    "duration": 0.20000000000000284
                },
                {
                    "name": "G#3",
                    "midi": 56,
                    "time": 88.90000000000012,
                    "velocity": 0.5275590551181102,
                    "duration": 0.20000000000000284
                },
                {
                    "name": "G#4",
                    "midi": 68,
                    "time": 88.90000000000012,
                    "velocity": 0.6220472440944882,
                    "duration": 0.20000000000000284
                },
                {
                    "name": "A3",
                    "midi": 57,
                    "time": 89.10000000000012,
                    "velocity": 0.47244094488188976,
                    "duration": 0.20000000000000284
                },
                {
                    "name": "A4",
                    "midi": 69,
                    "time": 89.10000000000012,
                    "velocity": 0.5590551181102362,
                    "duration": 0.20000000000000284
                },
                {
                    "name": "G3",
                    "midi": 55,
                    "time": 89.30000000000013,
                    "velocity": 0.5275590551181102,
                    "duration": 0.20000000000000284
                },
                {
                    "name": "G4",
                    "midi": 67,
                    "time": 89.30000000000013,
                    "velocity": 0.6220472440944882,
                    "duration": 0.20000000000000284
                },
                {
                    "name": "A4",
                    "midi": 69,
                    "time": 89.50000000000013,
                    "velocity": 0.5669291338582677,
                    "duration": 0.20000000000000284
                },
                {
                    "name": "A3",
                    "midi": 57,
                    "time": 89.50000000000013,
                    "velocity": 0.48031496062992124,
                    "duration": 0.20000000000000284
                },
                {
                    "name": "F#3",
                    "midi": 54,
                    "time": 89.70000000000013,
                    "velocity": 0.5275590551181102,
                    "duration": 0.20000000000000284
                },
                {
                    "name": "F#4",
                    "midi": 66,
                    "time": 89.70000000000013,
                    "velocity": 0.6220472440944882,
                    "duration": 0.20000000000000284
                },
                {
                    "name": "A3",
                    "midi": 57,
                    "time": 89.90000000000013,
                    "velocity": 0.4881889763779528,
                    "duration": 0.20000000000000284
                },
                {
                    "name": "A4",
                    "midi": 69,
                    "time": 89.90000000000013,
                    "velocity": 0.5748031496062992,
                    "duration": 0.20000000000000284
                },
                {
                    "name": "F4",
                    "midi": 65,
                    "time": 90.10000000000014,
                    "velocity": 0.6299212598425197,
                    "duration": 0.20000000000000284
                },
                {
                    "name": "F3",
                    "midi": 53,
                    "time": 90.10000000000014,
                    "velocity": 0.5354330708661418,
                    "duration": 0.20000000000000284
                },
                {
                    "name": "A3",
                    "midi": 57,
                    "time": 90.30000000000014,
                    "velocity": 0.48031496062992124,
                    "duration": 0.20000000000000284
                },
                {
                    "name": "A4",
                    "midi": 69,
                    "time": 90.30000000000014,
                    "velocity": 0.5669291338582677,
                    "duration": 0.20000000000000284
                },
                {
                    "name": "E4",
                    "midi": 64,
                    "time": 90.50000000000014,
                    "velocity": 0.6377952755905512,
                    "duration": 0.20000000000000284
                },
                {
                    "name": "E3",
                    "midi": 52,
                    "time": 90.50000000000014,
                    "velocity": 0.5354330708661418,
                    "duration": 0.20000000000000284
                },
                {
                    "name": "A4",
                    "midi": 69,
                    "time": 90.70000000000014,
                    "velocity": 0.5826771653543307,
                    "duration": 0.20000000000000284
                },
                {
                    "name": "A3",
                    "midi": 57,
                    "time": 90.70000000000014,
                    "velocity": 0.4881889763779528,
                    "duration": 0.20000000000000284
                },
                {
                    "name": "D#4",
                    "midi": 63,
                    "time": 90.90000000000015,
                    "velocity": 0.6377952755905512,
                    "duration": 0.29999999999999716
                },
                {
                    "name": "D#3",
                    "midi": 51,
                    "time": 90.90000000000015,
                    "velocity": 0.5354330708661418,
                    "duration": 0.29999999999999716
                },
                {
                    "name": "A3",
                    "midi": 57,
                    "time": 91.20000000000014,
                    "velocity": 0.47244094488188976,
                    "duration": 0.29999999999999716
                },
                {
                    "name": "A4",
                    "midi": 69,
                    "time": 91.20000000000014,
                    "velocity": 0.5590551181102362,
                    "duration": 0.29999999999999716
                },
                {
                    "name": "C4",
                    "midi": 60,
                    "time": 91.50000000000014,
                    "velocity": 0.6456692913385826,
                    "duration": 0.29999999999999716
                },
                {
                    "name": "C3",
                    "midi": 48,
                    "time": 91.50000000000014,
                    "velocity": 0.5433070866141733,
                    "duration": 0.29999999999999716
                },
                {
                    "name": "A3",
                    "midi": 57,
                    "time": 91.80000000000014,
                    "velocity": 0.49606299212598426,
                    "duration": 0.29999999999999716
                },
                {
                    "name": "A4",
                    "midi": 69,
                    "time": 91.80000000000014,
                    "velocity": 0.5905511811023622,
                    "duration": 0.29999999999999716
                },
                {
                    "name": "C#3",
                    "midi": 49,
                    "time": 92.10000000000014,
                    "velocity": 0.5511811023622047,
                    "duration": 0.29999999999999716
                },
                {
                    "name": "C#4",
                    "midi": 61,
                    "time": 92.10000000000014,
                    "velocity": 0.6535433070866141,
                    "duration": 0.29999999999999716
                },
                {
                    "name": "A3",
                    "midi": 57,
                    "time": 92.40000000000013,
                    "velocity": 0.5118110236220472,
                    "duration": 0.29999999999999716
                },
                {
                    "name": "A4",
                    "midi": 69,
                    "time": 92.40000000000013,
                    "velocity": 0.6062992125984252,
                    "duration": 0.29999999999999716
                },
                {
                    "name": "D6",
                    "midi": 86,
                    "time": 92.70000000000013,
                    "velocity": 0.7637795275590551,
                    "duration": 1.2000000000000028
                },
                {
                    "name": "D5",
                    "midi": 74,
                    "time": 92.70000000000013,
                    "velocity": 0.5984251968503937,
                    "duration": 1.2000000000000028
                },
                {
                    "name": "F5",
                    "midi": 77,
                    "time": 92.70000000000013,
                    "velocity": 0.5984251968503937,
                    "duration": 1.2000000000000028
                },
                {
                    "name": "E4",
                    "midi": 64,
                    "time": 93.30000000000013,
                    "velocity": 0.5118110236220472,
                    "duration": 0.20000000000000284
                },
                {
                    "name": "C#4",
                    "midi": 61,
                    "time": 93.30000000000013,
                    "velocity": 0.4015748031496063,
                    "duration": 0.20000000000000284
                },
                {
                    "name": "D4",
                    "midi": 62,
                    "time": 93.50000000000013,
                    "velocity": 0.4251968503937008,
                    "duration": 0.20000000000000284
                },
                {
                    "name": "F4",
                    "midi": 65,
                    "time": 93.50000000000013,
                    "velocity": 0.5275590551181102,
                    "duration": 0.20000000000000284
                },
                {
                    "name": "D6",
                    "midi": 86,
                    "time": 93.90000000000013,
                    "velocity": 0.7952755905511811,
                    "duration": 0.5999999999999943
                },
                {
                    "name": "F5",
                    "midi": 77,
                    "time": 93.90000000000013,
                    "velocity": 0.6220472440944882,
                    "duration": 0.5999999999999943
                },
                {
                    "name": "D5",
                    "midi": 74,
                    "time": 93.90000000000013,
                    "velocity": 0.5905511811023622,
                    "duration": 0.5999999999999943
                },
                {
                    "name": "E4",
                    "midi": 64,
                    "time": 94.50000000000013,
                    "velocity": 0.5118110236220472,
                    "duration": 0.20000000000000284
                },
                {
                    "name": "C#4",
                    "midi": 61,
                    "time": 94.50000000000013,
                    "velocity": 0.4015748031496063,
                    "duration": 0.20000000000000284
                },
                {
                    "name": "D4",
                    "midi": 62,
                    "time": 94.70000000000013,
                    "velocity": 0.4251968503937008,
                    "duration": 0.20000000000000284
                },
                {
                    "name": "F4",
                    "midi": 65,
                    "time": 94.70000000000013,
                    "velocity": 0.5275590551181102,
                    "duration": 0.20000000000000284
                },
                {
                    "name": "C5",
                    "midi": 72,
                    "time": 94.95000000000013,
                    "velocity": 0.5511811023622047,
                    "duration": 0.15000000000000568
                },
                {
                    "name": "C6",
                    "midi": 84,
                    "time": 94.95000000000013,
                    "velocity": 0.7007874015748031,
                    "duration": 0.15000000000000568
                },
                {
                    "name": "A#5",
                    "midi": 82,
                    "time": 95.10000000000014,
                    "velocity": 0.7874015748031497,
                    "duration": 0.5999999999999943
                },
                {
                    "name": "E5",
                    "midi": 76,
                    "time": 95.10000000000014,
                    "velocity": 0.6062992125984252,
                    "duration": 0.5999999999999943
                },
                {
                    "name": "A#4",
                    "midi": 70,
                    "time": 95.10000000000014,
                    "velocity": 0.5905511811023622,
                    "duration": 0.5999999999999943
                },
                {
                    "name": "D#4",
                    "midi": 63,
                    "time": 95.70000000000013,
                    "velocity": 0.4015748031496063,
                    "duration": 0.20000000000000284
                },
                {
                    "name": "F#4",
                    "midi": 66,
                    "time": 95.70000000000013,
                    "velocity": 0.5118110236220472,
                    "duration": 0.20000000000000284
                },
                {
                    "name": "E4",
                    "midi": 64,
                    "time": 95.90000000000013,
                    "velocity": 0.4251968503937008,
                    "duration": 0.20000000000000284
                },
                {
                    "name": "G4",
                    "midi": 67,
                    "time": 95.90000000000013,
                    "velocity": 0.5275590551181102,
                    "duration": 0.20000000000000284
                },
                {
                    "name": "A#4",
                    "midi": 70,
                    "time": 96.30000000000014,
                    "velocity": 0.5669291338582677,
                    "duration": 0.5999999999999943
                },
                {
                    "name": "E5",
                    "midi": 76,
                    "time": 96.30000000000014,
                    "velocity": 0.5669291338582677,
                    "duration": 0.5999999999999943
                },
                {
                    "name": "A#5",
                    "midi": 82,
                    "time": 96.30000000000014,
                    "velocity": 0.7244094488188977,
                    "duration": 0.5999999999999943
                },
                {
                    "name": "D#4",
                    "midi": 63,
                    "time": 96.90000000000013,
                    "velocity": 0.4015748031496063,
                    "duration": 0.20000000000000284
                },
                {
                    "name": "F#4",
                    "midi": 66,
                    "time": 96.90000000000013,
                    "velocity": 0.5118110236220472,
                    "duration": 0.20000000000000284
                },
                {
                    "name": "E4",
                    "midi": 64,
                    "time": 97.10000000000014,
                    "velocity": 0.4251968503937008,
                    "duration": 0.20000000000000284
                },
                {
                    "name": "G4",
                    "midi": 67,
                    "time": 97.10000000000014,
                    "velocity": 0.5275590551181102,
                    "duration": 0.20000000000000284
                },
                {
                    "name": "A#4",
                    "midi": 70,
                    "time": 97.35000000000014,
                    "velocity": 0.5511811023622047,
                    "duration": 0.15000000000000568
                },
                {
                    "name": "A#5",
                    "midi": 82,
                    "time": 97.35000000000014,
                    "velocity": 0.7007874015748031,
                    "duration": 0.15000000000000568
                },
                {
                    "name": "A4",
                    "midi": 69,
                    "time": 97.50000000000014,
                    "velocity": 0.5905511811023622,
                    "duration": 0.5999999999999943
                },
                {
                    "name": "E5",
                    "midi": 76,
                    "time": 97.50000000000014,
                    "velocity": 0.5905511811023622,
                    "duration": 0.5999999999999943
                },
                {
                    "name": "A5",
                    "midi": 81,
                    "time": 97.50000000000014,
                    "velocity": 0.7480314960629921,
                    "duration": 0.5999999999999943
                },
                {
                    "name": "D#4",
                    "midi": 63,
                    "time": 98.10000000000014,
                    "velocity": 0.5118110236220472,
                    "duration": 0.20000000000000284
                },
                {
                    "name": "C4",
                    "midi": 60,
                    "time": 98.10000000000014,
                    "velocity": 0.4015748031496063,
                    "duration": 0.20000000000000284
                },
                {
                    "name": "C#4",
                    "midi": 61,
                    "time": 98.30000000000014,
                    "velocity": 0.4251968503937008,
                    "duration": 0.20000000000000284
                },
                {
                    "name": "E4",
                    "midi": 64,
                    "time": 98.30000000000014,
                    "velocity": 0.5275590551181102,
                    "duration": 0.20000000000000284
                },
                {
                    "name": "A4",
                    "midi": 69,
                    "time": 98.55000000000014,
                    "velocity": 0.5511811023622047,
                    "duration": 0.15000000000000568
                },
                {
                    "name": "A5",
                    "midi": 81,
                    "time": 98.55000000000014,
                    "velocity": 0.7007874015748031,
                    "duration": 0.15000000000000568
                },
                {
                    "name": "E6",
                    "midi": 88,
                    "time": 98.70000000000014,
                    "velocity": 0.7480314960629921,
                    "duration": 0.5999999999999943
                },
                {
                    "name": "G5",
                    "midi": 79,
                    "time": 98.70000000000014,
                    "velocity": 0.5905511811023622,
                    "duration": 0.5999999999999943
                },
                {
                    "name": "E5",
                    "midi": 76,
                    "time": 98.70000000000014,
                    "velocity": 0.5905511811023622,
                    "duration": 0.5999999999999943
                },
                {
                    "name": "C4",
                    "midi": 60,
                    "time": 99.30000000000014,
                    "velocity": 0.3779527559055118,
                    "duration": 0.20000000000000284
                },
                {
                    "name": "D#4",
                    "midi": 63,
                    "time": 99.30000000000014,
                    "velocity": 0.4881889763779528,
                    "duration": 0.20000000000000284
                },
                {
                    "name": "C#4",
                    "midi": 61,
                    "time": 99.50000000000014,
                    "velocity": 0.4015748031496063,
                    "duration": 0.20000000000000284
                },
                {
                    "name": "E4",
                    "midi": 64,
                    "time": 99.50000000000014,
                    "velocity": 0.49606299212598426,
                    "duration": 0.20000000000000284
                },
                {
                    "name": "G4",
                    "midi": 67,
                    "time": 99.75000000000014,
                    "velocity": 0.44881889763779526,
                    "duration": 0.15000000000000568
                },
                {
                    "name": "G5",
                    "midi": 79,
                    "time": 99.75000000000014,
                    "velocity": 0.5826771653543307,
                    "duration": 0.15000000000000568
                },
                {
                    "name": "F4",
                    "midi": 65,
                    "time": 99.90000000000015,
                    "velocity": 0.48031496062992124,
                    "duration": 0.5999999999999943
                },
                {
                    "name": "A4",
                    "midi": 69,
                    "time": 99.90000000000015,
                    "velocity": 0.48031496062992124,
                    "duration": 0.5999999999999943
                },
                {
                    "name": "F5",
                    "midi": 77,
                    "time": 99.90000000000015,
                    "velocity": 0.6141732283464567,
                    "duration": 0.5999999999999943
                },
                {
                    "name": "E4",
                    "midi": 64,
                    "time": 100.50000000000014,
                    "velocity": 0.4015748031496063,
                    "duration": 0.20000000000000284
                },
                {
                    "name": "C#4",
                    "midi": 61,
                    "time": 100.50000000000014,
                    "velocity": 0.31496062992125984,
                    "duration": 0.20000000000000284
                },
                {
                    "name": "D4",
                    "midi": 62,
                    "time": 100.70000000000014,
                    "velocity": 0.3228346456692913,
                    "duration": 0.20000000000000284
                },
                {
                    "name": "F4",
                    "midi": 65,
                    "time": 100.70000000000014,
                    "velocity": 0.4094488188976378,
                    "duration": 0.20000000000000284
                },
                {
                    "name": "A4",
                    "midi": 69,
                    "time": 100.95000000000014,
                    "velocity": 0.41732283464566927,
                    "duration": 0.15000000000000568
                },
                {
                    "name": "A5",
                    "midi": 81,
                    "time": 100.95000000000014,
                    "velocity": 0.5433070866141733,
                    "duration": 0.15000000000000568
                },
                {
                    "name": "F4",
                    "midi": 65,
                    "time": 101.10000000000015,
                    "velocity": 0.4566929133858268,
                    "duration": 0.5999999999999943
                },
                {
                    "name": "D5",
                    "midi": 74,
                    "time": 101.10000000000015,
                    "velocity": 0.5748031496062992,
                    "duration": 0.5999999999999943
                },
                {
                    "name": "D4",
                    "midi": 62,
                    "time": 101.10000000000015,
                    "velocity": 0.4566929133858268,
                    "duration": 0.5999999999999943
                },
                {
                    "name": "E4",
                    "midi": 64,
                    "time": 101.70000000000014,
                    "velocity": 0.3543307086614173,
                    "duration": 0.20000000000000284
                },
                {
                    "name": "C#4",
                    "midi": 61,
                    "time": 101.70000000000014,
                    "velocity": 0.28346456692913385,
                    "duration": 0.20000000000000284
                },
                {
                    "name": "D4",
                    "midi": 62,
                    "time": 101.90000000000015,
                    "velocity": 0.28346456692913385,
                    "duration": 0.20000000000000284
                },
                {
                    "name": "F4",
                    "midi": 65,
                    "time": 101.90000000000015,
                    "velocity": 0.3543307086614173,
                    "duration": 0.20000000000000284
                },
                {
                    "name": "E5",
                    "midi": 76,
                    "time": 102.30000000000015,
                    "velocity": 0.44881889763779526,
                    "duration": 0.5999999999999943
                },
                {
                    "name": "C6",
                    "midi": 84,
                    "time": 102.30000000000015,
                    "velocity": 0.5748031496062992,
                    "duration": 0.5999999999999943
                },
                {
                    "name": "C5",
                    "midi": 72,
                    "time": 102.30000000000015,
                    "velocity": 0.44881889763779526,
                    "duration": 0.5999999999999943
                },
                {
                    "name": "D#4",
                    "midi": 63,
                    "time": 102.90000000000015,
                    "velocity": 0.3937007874015748,
                    "duration": 0.20000000000000284
                },
                {
                    "name": "B3",
                    "midi": 59,
                    "time": 102.90000000000015,
                    "velocity": 0.30708661417322836,
                    "duration": 0.20000000000000284
                },
                {
                    "name": "C4",
                    "midi": 60,
                    "time": 103.10000000000015,
                    "velocity": 0.33070866141732286,
                    "duration": 0.20000000000000284
                },
                {
                    "name": "E4",
                    "midi": 64,
                    "time": 103.10000000000015,
                    "velocity": 0.4015748031496063,
                    "duration": 0.20000000000000284
                },
                {
                    "name": "G5",
                    "midi": 79,
                    "time": 103.50000000000016,
                    "velocity": 0.44881889763779526,
                    "duration": 0.5999999999999943
                },
                {
                    "name": "C5",
                    "midi": 72,
                    "time": 103.50000000000016,
                    "velocity": 0.44881889763779526,
                    "duration": 0.5999999999999943
                },
                {
                    "name": "C6",
                    "midi": 84,
                    "time": 103.50000000000016,
                    "velocity": 0.5748031496062992,
                    "duration": 0.5999999999999943
                },
                {
                    "name": "F#4",
                    "midi": 66,
                    "time": 104.10000000000015,
                    "velocity": 0.3937007874015748,
                    "duration": 0.20000000000000284
                },
                {
                    "name": "D#4",
                    "midi": 63,
                    "time": 104.10000000000015,
                    "velocity": 0.30708661417322836,
                    "duration": 0.20000000000000284
                },
                {
                    "name": "E4",
                    "midi": 64,
                    "time": 104.30000000000015,
                    "velocity": 0.33070866141732286,
                    "duration": 0.20000000000000284
                },
                {
                    "name": "G4",
                    "midi": 67,
                    "time": 104.30000000000015,
                    "velocity": 0.4015748031496063,
                    "duration": 0.20000000000000284
                },
                {
                    "name": "A#4",
                    "midi": 70,
                    "time": 104.55000000000015,
                    "velocity": 0.3779527559055118,
                    "duration": 0.15000000000000568
                },
                {
                    "name": "A#5",
                    "midi": 82,
                    "time": 104.55000000000015,
                    "velocity": 0.4881889763779528,
                    "duration": 0.15000000000000568
                },
                {
                    "name": "G#4",
                    "midi": 68,
                    "time": 104.70000000000016,
                    "velocity": 0.4015748031496063,
                    "duration": 0.5999999999999943
                },
                {
                    "name": "G#5",
                    "midi": 80,
                    "time": 104.70000000000016,
                    "velocity": 0.5196850393700787,
                    "duration": 0.5999999999999943
                },
                {
                    "name": "C5",
                    "midi": 72,
                    "time": 104.70000000000016,
                    "velocity": 0.4015748031496063,
                    "duration": 0.5999999999999943
                },
                {
                    "name": "E4",
                    "midi": 64,
                    "time": 105.30000000000015,
                    "velocity": 0.2677165354330709,
                    "duration": 0.20000000000000284
                },
                {
                    "name": "G4",
                    "midi": 67,
                    "time": 105.30000000000015,
                    "velocity": 0.3543307086614173,
                    "duration": 0.20000000000000284
                },
                {
                    "name": "G#4",
                    "midi": 68,
                    "time": 105.50000000000016,
                    "velocity": 0.36220472440944884,
                    "duration": 0.20000000000000284
                },
                {
                    "name": "F4",
                    "midi": 65,
                    "time": 105.50000000000016,
                    "velocity": 0.29133858267716534,
                    "duration": 0.20000000000000284
                },
                {
                    "name": "C5",
                    "midi": 72,
                    "time": 105.75000000000016,
                    "velocity": 0.3858267716535433,
                    "duration": 0.15000000000000568
                },
                {
                    "name": "C6",
                    "midi": 84,
                    "time": 105.75000000000016,
                    "velocity": 0.49606299212598426,
                    "duration": 0.15000000000000568
                },
                {
                    "name": "F4",
                    "midi": 65,
                    "time": 105.90000000000016,
                    "velocity": 0.4251968503937008,
                    "duration": 0.5999999999999943
                },
                {
                    "name": "G#4",
                    "midi": 68,
                    "time": 105.90000000000016,
                    "velocity": 0.4251968503937008,
                    "duration": 0.5999999999999943
                },
                {
                    "name": "F5",
                    "midi": 77,
                    "time": 105.90000000000016,
                    "velocity": 0.5354330708661418,
                    "duration": 0.5999999999999943
                },
                {
                    "name": "G4",
                    "midi": 67,
                    "time": 106.50000000000016,
                    "velocity": 0.3464566929133858,
                    "duration": 0.20000000000000284
                },
                {
                    "name": "E4",
                    "midi": 64,
                    "time": 106.50000000000016,
                    "velocity": 0.2677165354330709,
                    "duration": 0.20000000000000284
                },
                {
                    "name": "G#4",
                    "midi": 68,
                    "time": 106.70000000000016,
                    "velocity": 0.3464566929133858,
                    "duration": 0.20000000000000284
                },
                {
                    "name": "F4",
                    "midi": 65,
                    "time": 106.70000000000016,
                    "velocity": 0.28346456692913385,
                    "duration": 0.20000000000000284
                },
                {
                    "name": "D#6",
                    "midi": 87,
                    "time": 107.10000000000016,
                    "velocity": 0.6220472440944882,
                    "duration": 0.5999999999999943
                },
                {
                    "name": "G5",
                    "midi": 79,
                    "time": 107.10000000000016,
                    "velocity": 0.47244094488188976,
                    "duration": 0.5999999999999943
                },
                {
                    "name": "D#5",
                    "midi": 75,
                    "time": 107.10000000000016,
                    "velocity": 0.47244094488188976,
                    "duration": 0.5999999999999943
                },
                {
                    "name": "F#4",
                    "midi": 66,
                    "time": 107.70000000000016,
                    "velocity": 0.3779527559055118,
                    "duration": 0.20000000000000284
                },
                {
                    "name": "D4",
                    "midi": 62,
                    "time": 107.70000000000016,
                    "velocity": 0.29133858267716534,
                    "duration": 0.20000000000000284
                },
                {
                    "name": "G4",
                    "midi": 67,
                    "time": 107.90000000000016,
                    "velocity": 0.3858267716535433,
                    "duration": 0.20000000000000284
                },
                {
                    "name": "D#4",
                    "midi": 63,
                    "time": 107.90000000000016,
                    "velocity": 0.30708661417322836,
                    "duration": 0.20000000000000284
                },
                {
                    "name": "D#5",
                    "midi": 75,
                    "time": 108.30000000000017,
                    "velocity": 0.48031496062992124,
                    "duration": 0.5999999999999943
                },
                {
                    "name": "D#6",
                    "midi": 87,
                    "time": 108.30000000000017,
                    "velocity": 0.6220472440944882,
                    "duration": 0.5999999999999943
                },
                {
                    "name": "A#5",
                    "midi": 82,
                    "time": 108.30000000000017,
                    "velocity": 0.48031496062992124,
                    "duration": 0.5999999999999943
                },
                {
                    "name": "F#4",
                    "midi": 66,
                    "time": 108.90000000000016,
                    "velocity": 0.2992125984251969,
                    "duration": 0.20000000000000284
                },
                {
                    "name": "A4",
                    "midi": 69,
                    "time": 108.90000000000016,
                    "velocity": 0.3779527559055118,
                    "duration": 0.20000000000000284
                },
                {
                    "name": "A#4",
                    "midi": 70,
                    "time": 109.10000000000016,
                    "velocity": 0.3858267716535433,
                    "duration": 0.20000000000000284
                },
                {
                    "name": "G4",
                    "midi": 67,
                    "time": 109.10000000000016,
                    "velocity": 0.30708661417322836,
                    "duration": 0.20000000000000284
                },
                {
                    "name": "C#5",
                    "midi": 73,
                    "time": 109.35000000000016,
                    "velocity": 0.4094488188976378,
                    "duration": 0.15000000000000568
                },
                {
                    "name": "C#6",
                    "midi": 85,
                    "time": 109.35000000000016,
                    "velocity": 0.5354330708661418,
                    "duration": 0.15000000000000568
                },
                {
                    "name": "G#5",
                    "midi": 80,
                    "time": 109.50000000000017,
                    "velocity": 0.4330708661417323,
                    "duration": 0.5999999999999943
                },
                {
                    "name": "C5",
                    "midi": 72,
                    "time": 109.50000000000017,
                    "velocity": 0.4330708661417323,
                    "duration": 0.5999999999999943
                },
                {
                    "name": "C6",
                    "midi": 84,
                    "time": 109.50000000000017,
                    "velocity": 0.5669291338582677,
                    "duration": 0.5999999999999943
                },
                {
                    "name": "B4",
                    "midi": 71,
                    "time": 110.10000000000016,
                    "velocity": 0.3858267716535433,
                    "duration": 0.20000000000000284
                },
                {
                    "name": "G4",
                    "midi": 67,
                    "time": 110.10000000000016,
                    "velocity": 0.28346456692913385,
                    "duration": 0.20000000000000284
                },
                {
                    "name": "G#4",
                    "midi": 68,
                    "time": 110.30000000000017,
                    "velocity": 0.30708661417322836,
                    "duration": 0.20000000000000284
                },
                {
                    "name": "C5",
                    "midi": 72,
                    "time": 110.30000000000017,
                    "velocity": 0.4015748031496063,
                    "duration": 0.20000000000000284
                },
                {
                    "name": "D#5",
                    "midi": 75,
                    "time": 110.55000000000017,
                    "velocity": 0.41732283464566927,
                    "duration": 0.15000000000000568
                },
                {
                    "name": "D#6",
                    "midi": 87,
                    "time": 110.55000000000017,
                    "velocity": 0.5590551181102362,
                    "duration": 0.15000000000000568
                },
                {
                    "name": "G#5",
                    "midi": 80,
                    "time": 110.70000000000017,
                    "velocity": 0.5905511811023622,
                    "duration": 0.5999999999999943
                },
                {
                    "name": "G#4",
                    "midi": 68,
                    "time": 110.70000000000017,
                    "velocity": 0.4645669291338583,
                    "duration": 0.5999999999999943
                },
                {
                    "name": "C5",
                    "midi": 72,
                    "time": 110.70000000000017,
                    "velocity": 0.4645669291338583,
                    "duration": 0.5999999999999943
                },
                {
                    "name": "B4",
                    "midi": 71,
                    "time": 111.30000000000017,
                    "velocity": 0.3779527559055118,
                    "duration": 0.20000000000000284
                },
                {
                    "name": "G4",
                    "midi": 67,
                    "time": 111.30000000000017,
                    "velocity": 0.29133858267716534,
                    "duration": 0.20000000000000284
                },
                {
                    "name": "G#4",
                    "midi": 68,
                    "time": 111.50000000000017,
                    "velocity": 0.30708661417322836,
                    "duration": 0.20000000000000284
                },
                {
                    "name": "C5",
                    "midi": 72,
                    "time": 111.50000000000017,
                    "velocity": 0.3858267716535433,
                    "duration": 0.20000000000000284
                },
                {
                    "name": "F5",
                    "midi": 77,
                    "time": 111.90000000000018,
                    "velocity": 0.4645669291338583,
                    "duration": 0.5999999999999943
                },
                {
                    "name": "F6",
                    "midi": 89,
                    "time": 111.90000000000018,
                    "velocity": 0.5984251968503937,
                    "duration": 0.5999999999999943
                },
                {
                    "name": "B5",
                    "midi": 83,
                    "time": 111.90000000000018,
                    "velocity": 0.4645669291338583,
                    "duration": 0.5999999999999943
                },
                {
                    "name": "C#5",
                    "midi": 73,
                    "time": 112.50000000000017,
                    "velocity": 0.4094488188976378,
                    "duration": 0.20000000000000284
                },
                {
                    "name": "A#4",
                    "midi": 70,
                    "time": 112.50000000000017,
                    "velocity": 0.31496062992125984,
                    "duration": 0.20000000000000284
                },
                {
                    "name": "D5",
                    "midi": 74,
                    "time": 112.70000000000017,
                    "velocity": 0.41732283464566927,
                    "duration": 0.20000000000000284
                },
                {
                    "name": "B4",
                    "midi": 71,
                    "time": 112.70000000000017,
                    "velocity": 0.3464566929133858,
                    "duration": 0.20000000000000284
                },
                {
                    "name": "F6",
                    "midi": 89,
                    "time": 113.10000000000018,
                    "velocity": 0.5984251968503937,
                    "duration": 0.5999999999999943
                },
                {
                    "name": "F5",
                    "midi": 77,
                    "time": 113.10000000000018,
                    "velocity": 0.4645669291338583,
                    "duration": 0.5999999999999943
                },
                {
                    "name": "B5",
                    "midi": 83,
                    "time": 113.10000000000018,
                    "velocity": 0.4645669291338583,
                    "duration": 0.5999999999999943
                },
                {
                    "name": "C#5",
                    "midi": 73,
                    "time": 113.70000000000017,
                    "velocity": 0.41732283464566927,
                    "duration": 0.20000000000000284
                },
                {
                    "name": "A#4",
                    "midi": 70,
                    "time": 113.70000000000017,
                    "velocity": 0.3228346456692913,
                    "duration": 0.20000000000000284
                },
                {
                    "name": "D5",
                    "midi": 74,
                    "time": 113.90000000000018,
                    "velocity": 0.4251968503937008,
                    "duration": 0.20000000000000284
                },
                {
                    "name": "B4",
                    "midi": 71,
                    "time": 113.90000000000018,
                    "velocity": 0.3464566929133858,
                    "duration": 0.20000000000000284
                },
                {
                    "name": "F5",
                    "midi": 77,
                    "time": 114.15000000000018,
                    "velocity": 0.3937007874015748,
                    "duration": 0.15000000000000568
                },
                {
                    "name": "F6",
                    "midi": 89,
                    "time": 114.15000000000018,
                    "velocity": 0.5118110236220472,
                    "duration": 0.15000000000000568
                },
                {
                    "name": "G#6",
                    "midi": 92,
                    "time": 114.30000000000018,
                    "velocity": 0.6220472440944882,
                    "duration": 0.5999999999999943
                },
                {
                    "name": "G#5",
                    "midi": 80,
                    "time": 114.30000000000018,
                    "velocity": 0.5275590551181102,
                    "duration": 0.5999999999999943
                },
                {
                    "name": "C6",
                    "midi": 84,
                    "time": 114.30000000000018,
                    "velocity": 0.5275590551181102,
                    "duration": 0.5999999999999943
                },
                {
                    "name": "G4",
                    "midi": 67,
                    "time": 114.90000000000018,
                    "velocity": 0.36220472440944884,
                    "duration": 0.20000000000000284
                },
                {
                    "name": "B4",
                    "midi": 71,
                    "time": 114.90000000000018,
                    "velocity": 0.4330708661417323,
                    "duration": 0.20000000000000284
                },
                {
                    "name": "C5",
                    "midi": 72,
                    "time": 115.10000000000018,
                    "velocity": 0.4330708661417323,
                    "duration": 0.20000000000000284
                },
                {
                    "name": "G#4",
                    "midi": 68,
                    "time": 115.10000000000018,
                    "velocity": 0.36220472440944884,
                    "duration": 0.20000000000000284
                },
                {
                    "name": "G#5",
                    "midi": 80,
                    "time": 115.50000000000018,
                    "velocity": 0.4881889763779528,
                    "duration": 0.5999999999999943
                },
                {
                    "name": "D#6",
                    "midi": 87,
                    "time": 115.50000000000018,
                    "velocity": 0.5669291338582677,
                    "duration": 0.5999999999999943
                },
                {
                    "name": "D#5",
                    "midi": 75,
                    "time": 115.50000000000018,
                    "velocity": 0.4409448818897638,
                    "duration": 0.5999999999999943
                },
                {
                    "name": "B4",
                    "midi": 71,
                    "time": 116.10000000000018,
                    "velocity": 0.41732283464566927,
                    "duration": 0.20000000000000284
                },
                {
                    "name": "G4",
                    "midi": 67,
                    "time": 116.10000000000018,
                    "velocity": 0.3543307086614173,
                    "duration": 0.20000000000000284
                },
                {
                    "name": "G#4",
                    "midi": 68,
                    "time": 116.30000000000018,
                    "velocity": 0.3543307086614173,
                    "duration": 0.20000000000000284
                },
                {
                    "name": "C5",
                    "midi": 72,
                    "time": 116.30000000000018,
                    "velocity": 0.41732283464566927,
                    "duration": 0.20000000000000284
                },
                {
                    "name": "F6",
                    "midi": 89,
                    "time": 116.70000000000019,
                    "velocity": 0.6141732283464567,
                    "duration": 0.5999999999999943
                },
                {
                    "name": "B5",
                    "midi": 83,
                    "time": 116.70000000000019,
                    "velocity": 0.48031496062992124,
                    "duration": 0.5999999999999943
                },
                {
                    "name": "F5",
                    "midi": 77,
                    "time": 116.70000000000019,
                    "velocity": 0.48031496062992124,
                    "duration": 0.5999999999999943
                },
                {
                    "name": "A#4",
                    "midi": 70,
                    "time": 117.30000000000018,
                    "velocity": 0.33070866141732286,
                    "duration": 0.20000000000000284
                },
                {
                    "name": "C#5",
                    "midi": 73,
                    "time": 117.30000000000018,
                    "velocity": 0.4251968503937008,
                    "duration": 0.20000000000000284
                },
                {
                    "name": "D5",
                    "midi": 74,
                    "time": 117.50000000000018,
                    "velocity": 0.4330708661417323,
                    "duration": 0.20000000000000284
                },
                {
                    "name": "B4",
                    "midi": 71,
                    "time": 117.50000000000018,
                    "velocity": 0.3543307086614173,
                    "duration": 0.20000000000000284
                },
                {
                    "name": "F5",
                    "midi": 77,
                    "time": 117.90000000000019,
                    "velocity": 0.4881889763779528,
                    "duration": 0.5999999999999943
                },
                {
                    "name": "B5",
                    "midi": 83,
                    "time": 117.90000000000019,
                    "velocity": 0.4881889763779528,
                    "duration": 0.5999999999999943
                },
                {
                    "name": "F6",
                    "midi": 89,
                    "time": 117.90000000000019,
                    "velocity": 0.6220472440944882,
                    "duration": 0.5999999999999943
                },
                {
                    "name": "A#4",
                    "midi": 70,
                    "time": 118.50000000000018,
                    "velocity": 0.33070866141732286,
                    "duration": 0.20000000000000284
                },
                {
                    "name": "C#5",
                    "midi": 73,
                    "time": 118.50000000000018,
                    "velocity": 0.4330708661417323,
                    "duration": 0.20000000000000284
                },
                {
                    "name": "B4",
                    "midi": 71,
                    "time": 118.70000000000019,
                    "velocity": 0.36220472440944884,
                    "duration": 0.20000000000000284
                },
                {
                    "name": "D5",
                    "midi": 74,
                    "time": 118.70000000000019,
                    "velocity": 0.4409448818897638,
                    "duration": 0.20000000000000284
                },
                {
                    "name": "F5",
                    "midi": 77,
                    "time": 118.95000000000019,
                    "velocity": 0.4094488188976378,
                    "duration": 0.15000000000000568
                },
                {
                    "name": "F6",
                    "midi": 89,
                    "time": 118.95000000000019,
                    "velocity": 0.5354330708661418,
                    "duration": 0.15000000000000568
                },
                {
                    "name": "G#6",
                    "midi": 92,
                    "time": 119.1000000000002,
                    "velocity": 0.6299212598425197,
                    "duration": 0.5999999999999943
                },
                {
                    "name": "G#5",
                    "midi": 80,
                    "time": 119.1000000000002,
                    "velocity": 0.4881889763779528,
                    "duration": 0.5999999999999943
                },
                {
                    "name": "C6",
                    "midi": 84,
                    "time": 119.1000000000002,
                    "velocity": 0.4881889763779528,
                    "duration": 0.5999999999999943
                },
                {
                    "name": "B4",
                    "midi": 71,
                    "time": 119.70000000000019,
                    "velocity": 0.4330708661417323,
                    "duration": 0.20000000000000284
                },
                {
                    "name": "G4",
                    "midi": 67,
                    "time": 119.70000000000019,
                    "velocity": 0.33858267716535434,
                    "duration": 0.20000000000000284
                },
                {
                    "name": "C5",
                    "midi": 72,
                    "time": 119.90000000000019,
                    "velocity": 0.4409448818897638,
                    "duration": 0.20000000000000284
                },
                {
                    "name": "G#4",
                    "midi": 68,
                    "time": 119.90000000000019,
                    "velocity": 0.36220472440944884,
                    "duration": 0.20000000000000284
                },
                {
                    "name": "G#6",
                    "midi": 92,
                    "time": 120.3000000000002,
                    "velocity": 0.6377952755905512,
                    "duration": 0.5999999999999943
                },
                {
                    "name": "G#5",
                    "midi": 80,
                    "time": 120.3000000000002,
                    "velocity": 0.49606299212598426,
                    "duration": 0.5999999999999943
                },
                {
                    "name": "A#4",
                    "midi": 70,
                    "time": 120.90000000000019,
                    "velocity": 0.33858267716535434,
                    "duration": 0.20000000000000284
                },
                {
                    "name": "C#5",
                    "midi": 73,
                    "time": 120.90000000000019,
                    "velocity": 0.4409448818897638,
                    "duration": 0.20000000000000284
                },
                {
                    "name": "D5",
                    "midi": 74,
                    "time": 121.1000000000002,
                    "velocity": 0.44881889763779526,
                    "duration": 0.20000000000000284
                },
                {
                    "name": "B4",
                    "midi": 71,
                    "time": 121.1000000000002,
                    "velocity": 0.3700787401574803,
                    "duration": 0.20000000000000284
                },
                {
                    "name": "G#5",
                    "midi": 80,
                    "time": 121.3500000000002,
                    "velocity": 0.41732283464566927,
                    "duration": 0.15000000000000568
                },
                {
                    "name": "G#6",
                    "midi": 92,
                    "time": 121.3500000000002,
                    "velocity": 0.5433070866141733,
                    "duration": 0.15000000000000568
                },
                {
                    "name": "A5",
                    "midi": 81,
                    "time": 121.5000000000002,
                    "velocity": 0.5748031496062992,
                    "duration": 0.5999999999999943
                },
                {
                    "name": "A6",
                    "midi": 93,
                    "time": 121.5000000000002,
                    "velocity": 0.6850393700787402,
                    "duration": 0.5999999999999943
                },
                {
                    "name": "C#5",
                    "midi": 73,
                    "time": 122.1000000000002,
                    "velocity": 0.33858267716535434,
                    "duration": 0.20000000000000284
                },
                {
                    "name": "E5",
                    "midi": 76,
                    "time": 122.1000000000002,
                    "velocity": 0.4409448818897638,
                    "duration": 0.20000000000000284
                },
                {
                    "name": "D5",
                    "midi": 74,
                    "time": 122.3000000000002,
                    "velocity": 0.3700787401574803,
                    "duration": 0.20000000000000284
                },
                {
                    "name": "F5",
                    "midi": 77,
                    "time": 122.3000000000002,
                    "velocity": 0.44881889763779526,
                    "duration": 0.20000000000000284
                },
                {
                    "name": "F6",
                    "midi": 89,
                    "time": 122.7000000000002,
                    "velocity": 0.6456692913385826,
                    "duration": 0.5999999999999943
                },
                {
                    "name": "F5",
                    "midi": 77,
                    "time": 122.7000000000002,
                    "velocity": 0.5433070866141733,
                    "duration": 0.5999999999999943
                },
                {
                    "name": "C#5",
                    "midi": 73,
                    "time": 123.3000000000002,
                    "velocity": 0.4409448818897638,
                    "duration": 0.20000000000000284
                },
                {
                    "name": "G#4",
                    "midi": 68,
                    "time": 123.3000000000002,
                    "velocity": 0.3464566929133858,
                    "duration": 0.20000000000000284
                },
                {
                    "name": "A4",
                    "midi": 69,
                    "time": 123.5000000000002,
                    "velocity": 0.3700787401574803,
                    "duration": 0.20000000000000284
                },
                {
                    "name": "D5",
                    "midi": 74,
                    "time": 123.5000000000002,
                    "velocity": 0.4566929133858268,
                    "duration": 0.20000000000000284
                },
                {
                    "name": "D5",
                    "midi": 74,
                    "time": 123.9000000000002,
                    "velocity": 0.5669291338582677,
                    "duration": 0.5999999999999943
                },
                {
                    "name": "D6",
                    "midi": 86,
                    "time": 123.9000000000002,
                    "velocity": 0.6692913385826772,
                    "duration": 0.5999999999999943
                },
                {
                    "name": "E4",
                    "midi": 64,
                    "time": 124.5000000000002,
                    "velocity": 0.3464566929133858,
                    "duration": 0.20000000000000284
                },
                {
                    "name": "G#4",
                    "midi": 68,
                    "time": 124.5000000000002,
                    "velocity": 0.44881889763779526,
                    "duration": 0.20000000000000284
                },
                {
                    "name": "A4",
                    "midi": 69,
                    "time": 124.7000000000002,
                    "velocity": 0.4566929133858268,
                    "duration": 0.20000000000000284
                },
                {
                    "name": "F4",
                    "midi": 65,
                    "time": 124.7000000000002,
                    "velocity": 0.3779527559055118,
                    "duration": 0.20000000000000284
                },
                {
                    "name": "A5",
                    "midi": 81,
                    "time": 125.10000000000021,
                    "velocity": 0.6535433070866141,
                    "duration": 0.5999999999999943
                },
                {
                    "name": "A4",
                    "midi": 69,
                    "time": 125.10000000000021,
                    "velocity": 0.4330708661417323,
                    "duration": 0.5999999999999943
                },
                {
                    "name": "E4",
                    "midi": 64,
                    "time": 125.7000000000002,
                    "velocity": 0.44881889763779526,
                    "duration": 0.20000000000000284
                },
                {
                    "name": "C#4",
                    "midi": 61,
                    "time": 125.7000000000002,
                    "velocity": 0.3464566929133858,
                    "duration": 0.20000000000000284
                },
                {
                    "name": "F4",
                    "midi": 65,
                    "time": 125.9000000000002,
                    "velocity": 0.4566929133858268,
                    "duration": 0.20000000000000284
                },
                {
                    "name": "D4",
                    "midi": 62,
                    "time": 125.9000000000002,
                    "velocity": 0.3779527559055118,
                    "duration": 0.20000000000000284
                },
                {
                    "name": "A#4",
                    "midi": 70,
                    "time": 126.30000000000021,
                    "velocity": 0.5826771653543307,
                    "duration": 0.5999999999999943
                },
                {
                    "name": "A#5",
                    "midi": 82,
                    "time": 126.30000000000021,
                    "velocity": 0.6929133858267716,
                    "duration": 0.5999999999999943
                },
                {
                    "name": "F#4",
                    "midi": 66,
                    "time": 126.9000000000002,
                    "velocity": 0.4566929133858268,
                    "duration": 0.20000000000000284
                },
                {
                    "name": "D4",
                    "midi": 62,
                    "time": 126.9000000000002,
                    "velocity": 0.3543307086614173,
                    "duration": 0.20000000000000284
                },
                {
                    "name": "D#4",
                    "midi": 63,
                    "time": 127.10000000000021,
                    "velocity": 0.3779527559055118,
                    "duration": 0.20000000000000284
                },
                {
                    "name": "G4",
                    "midi": 67,
                    "time": 127.10000000000021,
                    "velocity": 0.4645669291338583,
                    "duration": 0.20000000000000284
                },
                {
                    "name": "G5",
                    "midi": 79,
                    "time": 127.50000000000021,
                    "velocity": 0.6692913385826772,
                    "duration": 0.6000000000000085
                },
                {
                    "name": "G4",
                    "midi": 67,
                    "time": 127.50000000000021,
                    "velocity": 0.5669291338582677,
                    "duration": 0.6000000000000085
                },
                {
                    "name": "A3",
                    "midi": 57,
                    "time": 128.10000000000022,
                    "velocity": 0.3543307086614173,
                    "duration": 0.19999999999998863
                },
                {
                    "name": "D4",
                    "midi": 62,
                    "time": 128.10000000000022,
                    "velocity": 0.4566929133858268,
                    "duration": 0.19999999999998863
                },
                {
                    "name": "A#3",
                    "midi": 58,
                    "time": 128.3000000000002,
                    "velocity": 0.3858267716535433,
                    "duration": 0.19999999999998863
                },
                {
                    "name": "D#4",
                    "midi": 63,
                    "time": 128.3000000000002,
                    "velocity": 0.4645669291338583,
                    "duration": 0.19999999999998863
                },
                {
                    "name": "E5",
                    "midi": 76,
                    "time": 128.7000000000002,
                    "velocity": 0.6771653543307087,
                    "duration": 0.5999999999999943
                },
                {
                    "name": "E4",
                    "midi": 64,
                    "time": 128.7000000000002,
                    "velocity": 0.5748031496062992,
                    "duration": 0.5999999999999943
                },
                {
                    "name": "A3",
                    "midi": 57,
                    "time": 129.30000000000018,
                    "velocity": 0.4645669291338583,
                    "duration": 0.19999999999998863
                },
                {
                    "name": "F#3",
                    "midi": 54,
                    "time": 129.30000000000018,
                    "velocity": 0.36220472440944884,
                    "duration": 0.19999999999998863
                },
                {
                    "name": "G3",
                    "midi": 55,
                    "time": 129.50000000000017,
                    "velocity": 0.3858267716535433,
                    "duration": 0.19999999999998863
                },
                {
                    "name": "A#3",
                    "midi": 58,
                    "time": 129.50000000000017,
                    "velocity": 0.47244094488188976,
                    "duration": 0.19999999999998863
                },
                {
                    "name": "A4",
                    "midi": 69,
                    "time": 129.90000000000015,
                    "velocity": 0.5669291338582677,
                    "duration": 0.5999999999999943
                },
                {
                    "name": "A5",
                    "midi": 81,
                    "time": 129.90000000000015,
                    "velocity": 0.6692913385826772,
                    "duration": 0.5999999999999943
                },
                {
                    "name": "D#4",
                    "midi": 63,
                    "time": 130.50000000000014,
                    "velocity": 0.4645669291338583,
                    "duration": 0.19999999999998863
                },
                {
                    "name": "C4",
                    "midi": 60,
                    "time": 130.50000000000014,
                    "velocity": 0.36220472440944884,
                    "duration": 0.19999999999998863
                },
                {
                    "name": "C#4",
                    "midi": 61,
                    "time": 130.70000000000013,
                    "velocity": 0.3858267716535433,
                    "duration": 0.19999999999998863
                },
                {
                    "name": "E4",
                    "midi": 64,
                    "time": 130.70000000000013,
                    "velocity": 0.47244094488188976,
                    "duration": 0.19999999999998863
                },
                {
                    "name": "A3",
                    "midi": 57,
                    "time": 130.95000000000013,
                    "velocity": 0.4094488188976378,
                    "duration": 0.15000000000000568
                },
                {
                    "name": "A4",
                    "midi": 69,
                    "time": 130.95000000000013,
                    "velocity": 0.5748031496062992,
                    "duration": 0.15000000000000568
                },
                {
                    "name": "D4",
                    "midi": 62,
                    "time": 131.10000000000014,
                    "velocity": 0.4881889763779528,
                    "duration": 0.5999999999999943
                },
                {
                    "name": "D5",
                    "midi": 74,
                    "time": 131.10000000000014,
                    "velocity": 0.6771653543307087,
                    "duration": 0.5999999999999943
                },
                {
                    "name": "A3",
                    "midi": 57,
                    "time": 131.70000000000013,
                    "velocity": 0.4251968503937008,
                    "duration": 0.19999999999998863
                },
                {
                    "name": "F#3",
                    "midi": 54,
                    "time": 131.70000000000013,
                    "velocity": 0.3543307086614173,
                    "duration": 0.19999999999998863
                },
                {
                    "name": "E4",
                    "midi": 64,
                    "time": 131.90000000000012,
                    "velocity": 0.4015748031496063,
                    "duration": 0.19999999999998863
                },
                {
                    "name": "G#4",
                    "midi": 68,
                    "time": 131.90000000000012,
                    "velocity": 0.48031496062992124,
                    "duration": 0.19999999999998863
                },
                {
                    "name": "A4",
                    "midi": 69,
                    "time": 132.1000000000001,
                    "velocity": 0.5039370078740157,
                    "duration": 0.19999999999998863
                },
                {
                    "name": "F4",
                    "midi": 65,
                    "time": 132.1000000000001,
                    "velocity": 0.4251968503937008,
                    "duration": 0.19999999999998863
                },
                {
                    "name": "G#5",
                    "midi": 80,
                    "time": 132.3000000000001,
                    "velocity": 0.5275590551181102,
                    "duration": 0.19999999999998863
                },
                {
                    "name": "E5",
                    "midi": 76,
                    "time": 132.3000000000001,
                    "velocity": 0.4409448818897638,
                    "duration": 0.19999999999998863
                },
                {
                    "name": "A5",
                    "midi": 81,
                    "time": 132.50000000000009,
                    "velocity": 0.5511811023622047,
                    "duration": 0.19999999999998863
                },
                {
                    "name": "F5",
                    "midi": 77,
                    "time": 132.50000000000009,
                    "velocity": 0.4645669291338583,
                    "duration": 0.19999999999998863
                },
                {
                    "name": "G#6",
                    "midi": 92,
                    "time": 132.70000000000007,
                    "velocity": 0.5748031496062992,
                    "duration": 0.19999999999998863
                },
                {
                    "name": "E6",
                    "midi": 88,
                    "time": 132.70000000000007,
                    "velocity": 0.4881889763779528,
                    "duration": 0.19999999999998863
                },
                {
                    "name": "A6",
                    "midi": 93,
                    "time": 132.90000000000006,
                    "velocity": 0.6535433070866141,
                    "duration": 0.30000000000001137
                },
                {
                    "name": "F6",
                    "midi": 89,
                    "time": 132.90000000000006,
                    "velocity": 0.5511811023622047,
                    "duration": 0.30000000000001137
                },
                {
                    "name": "D4",
                    "midi": 62,
                    "time": 133.35000000000008,
                    "velocity": 0.5196850393700787,
                    "duration": 0.15000000000000568
                },
                {
                    "name": "D5",
                    "midi": 74,
                    "time": 133.35000000000008,
                    "velocity": 0.6141732283464567,
                    "duration": 0.15000000000000568
                },
                {
                    "name": "C5",
                    "midi": 72,
                    "time": 133.50000000000009,
                    "velocity": 0.4881889763779528,
                    "duration": 1.1999999999999602
                },
                {
                    "name": "C6",
                    "midi": 84,
                    "time": 133.50000000000009,
                    "velocity": 0.6771653543307087,
                    "duration": 1.1999999999999602
                },
                {
                    "name": "F#5",
                    "midi": 78,
                    "time": 133.50000000000009,
                    "velocity": 0.4881889763779528,
                    "duration": 1.1999999999999602
                },
                {
                    "name": "A3",
                    "midi": 57,
                    "time": 134.10000000000008,
                    "velocity": 0.3543307086614173,
                    "duration": 0.19999999999998863
                },
                {
                    "name": "C4",
                    "midi": 60,
                    "time": 134.10000000000008,
                    "velocity": 0.4251968503937008,
                    "duration": 0.19999999999998863
                },
                {
                    "name": "G#4",
                    "midi": 68,
                    "time": 134.30000000000007,
                    "velocity": 0.4015748031496063,
                    "duration": 0.19999999999998863
                },
                {
                    "name": "B4",
                    "midi": 71,
                    "time": 134.30000000000007,
                    "velocity": 0.48031496062992124,
                    "duration": 0.19999999999998863
                },
                {
                    "name": "A4",
                    "midi": 69,
                    "time": 134.50000000000006,
                    "velocity": 0.4251968503937008,
                    "duration": 0.19999999999998863
                },
                {
                    "name": "C5",
                    "midi": 72,
                    "time": 134.50000000000006,
                    "velocity": 0.5039370078740157,
                    "duration": 0.19999999999998863
                },
                {
                    "name": "B5",
                    "midi": 83,
                    "time": 134.70000000000005,
                    "velocity": 0.5275590551181102,
                    "duration": 0.19999999999998863
                },
                {
                    "name": "G#5",
                    "midi": 80,
                    "time": 134.70000000000005,
                    "velocity": 0.4409448818897638,
                    "duration": 0.19999999999998863
                },
                {
                    "name": "A5",
                    "midi": 81,
                    "time": 134.90000000000003,
                    "velocity": 0.4645669291338583,
                    "duration": 0.19999999999998863
                },
                {
                    "name": "C6",
                    "midi": 84,
                    "time": 134.90000000000003,
                    "velocity": 0.5511811023622047,
                    "duration": 0.19999999999998863
                },
                {
                    "name": "G#6",
                    "midi": 92,
                    "time": 135.10000000000002,
                    "velocity": 0.4881889763779528,
                    "duration": 0.19999999999998863
                },
                {
                    "name": "B6",
                    "midi": 95,
                    "time": 135.10000000000002,
                    "velocity": 0.5748031496062992,
                    "duration": 0.19999999999998863
                },
                {
                    "name": "A6",
                    "midi": 93,
                    "time": 135.3,
                    "velocity": 0.5511811023622047,
                    "duration": 0.30000000000001137
                },
                {
                    "name": "C7",
                    "midi": 96,
                    "time": 135.3,
                    "velocity": 0.6535433070866141,
                    "duration": 0.30000000000001137
                },
                {
                    "name": "D5",
                    "midi": 74,
                    "time": 135.75000000000003,
                    "velocity": 0.6141732283464567,
                    "duration": 0.15000000000000568
                },
                {
                    "name": "D4",
                    "midi": 62,
                    "time": 135.75000000000003,
                    "velocity": 0.5196850393700787,
                    "duration": 0.15000000000000568
                },
                {
                    "name": "B5",
                    "midi": 83,
                    "time": 135.90000000000003,
                    "velocity": 0.6771653543307087,
                    "duration": 1.1999999999999602
                },
                {
                    "name": "B4",
                    "midi": 71,
                    "time": 135.90000000000003,
                    "velocity": 0.4881889763779528,
                    "duration": 1.1999999999999602
                },
                {
                    "name": "F5",
                    "midi": 77,
                    "time": 135.90000000000003,
                    "velocity": 0.4881889763779528,
                    "duration": 1.1999999999999602
                },
                {
                    "name": "B3",
                    "midi": 59,
                    "time": 136.50000000000003,
                    "velocity": 0.4251968503937008,
                    "duration": 0.19999999999998863
                },
                {
                    "name": "G#3",
                    "midi": 56,
                    "time": 136.50000000000003,
                    "velocity": 0.3543307086614173,
                    "duration": 0.19999999999998863
                },
                {
                    "name": "G4",
                    "midi": 67,
                    "time": 136.70000000000002,
                    "velocity": 0.4015748031496063,
                    "duration": 0.19999999999998863
                },
                {
                    "name": "A#4",
                    "midi": 70,
                    "time": 136.70000000000002,
                    "velocity": 0.48031496062992124,
                    "duration": 0.19999999999998863
                },
                {
                    "name": "B4",
                    "midi": 71,
                    "time": 136.9,
                    "velocity": 0.5039370078740157,
                    "duration": 0.19999999999998863
                },
                {
                    "name": "G#4",
                    "midi": 68,
                    "time": 136.9,
                    "velocity": 0.4251968503937008,
                    "duration": 0.19999999999998863
                },
                {
                    "name": "A#5",
                    "midi": 82,
                    "time": 137.1,
                    "velocity": 0.5275590551181102,
                    "duration": 0.19999999999998863
                },
                {
                    "name": "G5",
                    "midi": 79,
                    "time": 137.1,
                    "velocity": 0.4409448818897638,
                    "duration": 0.19999999999998863
                },
                {
                    "name": "G#5",
                    "midi": 80,
                    "time": 137.29999999999998,
                    "velocity": 0.4645669291338583,
                    "duration": 0.19999999999998863
                },
                {
                    "name": "B5",
                    "midi": 83,
                    "time": 137.29999999999998,
                    "velocity": 0.5511811023622047,
                    "duration": 0.19999999999998863
                },
                {
                    "name": "A#6",
                    "midi": 94,
                    "time": 137.49999999999997,
                    "velocity": 0.5748031496062992,
                    "duration": 0.19999999999998863
                },
                {
                    "name": "G6",
                    "midi": 91,
                    "time": 137.49999999999997,
                    "velocity": 0.4881889763779528,
                    "duration": 0.19999999999998863
                },
                {
                    "name": "G#6",
                    "midi": 92,
                    "time": 137.69999999999996,
                    "velocity": 0.5511811023622047,
                    "duration": 0.30000000000001137
                },
                {
                    "name": "B6",
                    "midi": 95,
                    "time": 137.69999999999996,
                    "velocity": 0.6535433070866141,
                    "duration": 0.30000000000001137
                },
                {
                    "name": "D4",
                    "midi": 62,
                    "time": 138.14999999999998,
                    "velocity": 0.5196850393700787,
                    "duration": 0.15000000000000568
                },
                {
                    "name": "D5",
                    "midi": 74,
                    "time": 138.14999999999998,
                    "velocity": 0.6141732283464567,
                    "duration": 0.15000000000000568
                },
                {
                    "name": "A#5",
                    "midi": 82,
                    "time": 138.29999999999998,
                    "velocity": 0.6771653543307087,
                    "duration": 0.5999999999999943
                },
                {
                    "name": "A#4",
                    "midi": 70,
                    "time": 138.29999999999998,
                    "velocity": 0.5748031496062992,
                    "duration": 0.5999999999999943
                },
                {
                    "name": "C4",
                    "midi": 60,
                    "time": 138.89999999999998,
                    "velocity": 0.36220472440944884,
                    "duration": 0.19999999999998863
                },
                {
                    "name": "D#4",
                    "midi": 63,
                    "time": 138.89999999999998,
                    "velocity": 0.4645669291338583,
                    "duration": 0.19999999999998863
                },
                {
                    "name": "E4",
                    "midi": 64,
                    "time": 139.09999999999997,
                    "velocity": 0.47244094488188976,
                    "duration": 0.19999999999998863
                },
                {
                    "name": "C#4",
                    "midi": 61,
                    "time": 139.09999999999997,
                    "velocity": 0.3858267716535433,
                    "duration": 0.19999999999998863
                },
                {
                    "name": "A#4",
                    "midi": 70,
                    "time": 139.34999999999997,
                    "velocity": 0.5748031496062992,
                    "duration": 0.15000000000000568
                },
                {
                    "name": "A#5",
                    "midi": 82,
                    "time": 139.34999999999997,
                    "velocity": 0.5748031496062992,
                    "duration": 0.15000000000000568
                },
                {
                    "name": "A4",
                    "midi": 69,
                    "time": 139.49999999999997,
                    "velocity": 0.5669291338582677,
                    "duration": 0.5999999999999943
                },
                {
                    "name": "A5",
                    "midi": 81,
                    "time": 139.49999999999997,
                    "velocity": 0.6692913385826772,
                    "duration": 0.5999999999999943
                },
                {
                    "name": "C4",
                    "midi": 60,
                    "time": 140.09999999999997,
                    "velocity": 0.36220472440944884,
                    "duration": 0.19999999999998863
                },
                {
                    "name": "D#4",
                    "midi": 63,
                    "time": 140.09999999999997,
                    "velocity": 0.4645669291338583,
                    "duration": 0.19999999999998863
                },
                {
                    "name": "C#4",
                    "midi": 61,
                    "time": 140.29999999999995,
                    "velocity": 0.3858267716535433,
                    "duration": 0.19999999999998863
                },
                {
                    "name": "E4",
                    "midi": 64,
                    "time": 140.29999999999995,
                    "velocity": 0.47244094488188976,
                    "duration": 0.19999999999998863
                },
                {
                    "name": "G4",
                    "midi": 67,
                    "time": 140.54999999999995,
                    "velocity": 0.4094488188976378,
                    "duration": 0.15000000000000568
                },
                {
                    "name": "G5",
                    "midi": 79,
                    "time": 140.54999999999995,
                    "velocity": 0.5748031496062992,
                    "duration": 0.15000000000000568
                },
                {
                    "name": "D5",
                    "midi": 74,
                    "time": 140.69999999999996,
                    "velocity": 0.6771653543307087,
                    "duration": 0.5999999999999943
                },
                {
                    "name": "F#4",
                    "midi": 66,
                    "time": 140.69999999999996,
                    "velocity": 0.4881889763779528,
                    "duration": 0.5999999999999943
                },
                {
                    "name": "D4",
                    "midi": 62,
                    "time": 140.69999999999996,
                    "velocity": 0.4881889763779528,
                    "duration": 0.5999999999999943
                },
                {
                    "name": "F#3",
                    "midi": 54,
                    "time": 141.29999999999995,
                    "velocity": 0.3543307086614173,
                    "duration": 0.19999999999998863
                },
                {
                    "name": "A3",
                    "midi": 57,
                    "time": 141.29999999999995,
                    "velocity": 0.4251968503937008,
                    "duration": 0.19999999999998863
                },
                {
                    "name": "F4",
                    "midi": 65,
                    "time": 141.49999999999994,
                    "velocity": 0.4015748031496063,
                    "duration": 0.19999999999998863
                },
                {
                    "name": "G#4",
                    "midi": 68,
                    "time": 141.49999999999994,
                    "velocity": 0.48031496062992124,
                    "duration": 0.19999999999998863
                },
                {
                    "name": "A4",
                    "midi": 69,
                    "time": 141.69999999999993,
                    "velocity": 0.5039370078740157,
                    "duration": 0.19999999999998863
                },
                {
                    "name": "F#4",
                    "midi": 66,
                    "time": 141.69999999999993,
                    "velocity": 0.4251968503937008,
                    "duration": 0.19999999999998863
                },
                {
                    "name": "G#5",
                    "midi": 80,
                    "time": 141.89999999999992,
                    "velocity": 0.5275590551181102,
                    "duration": 0.19999999999998863
                },
                {
                    "name": "F5",
                    "midi": 77,
                    "time": 141.89999999999992,
                    "velocity": 0.4409448818897638,
                    "duration": 0.19999999999998863
                },
                {
                    "name": "F#5",
                    "midi": 78,
                    "time": 142.0999999999999,
                    "velocity": 0.4645669291338583,
                    "duration": 0.19999999999998863
                },
                {
                    "name": "A5",
                    "midi": 81,
                    "time": 142.0999999999999,
                    "velocity": 0.5511811023622047,
                    "duration": 0.19999999999998863
                },
                {
                    "name": "F6",
                    "midi": 89,
                    "time": 142.2999999999999,
                    "velocity": 0.4881889763779528,
                    "duration": 0.19999999999998863
                },
                {
                    "name": "G#6",
                    "midi": 92,
                    "time": 142.2999999999999,
                    "velocity": 0.5748031496062992,
                    "duration": 0.19999999999998863
                },
                {
                    "name": "F#6",
                    "midi": 90,
                    "time": 142.4999999999999,
                    "velocity": 0.5511811023622047,
                    "duration": 0.30000000000001137
                },
                {
                    "name": "A6",
                    "midi": 93,
                    "time": 142.4999999999999,
                    "velocity": 0.6535433070866141,
                    "duration": 0.30000000000001137
                },
                {
                    "name": "D5",
                    "midi": 74,
                    "time": 142.9499999999999,
                    "velocity": 0.6141732283464567,
                    "duration": 0.15000000000000568
                },
                {
                    "name": "D4",
                    "midi": 62,
                    "time": 142.9499999999999,
                    "velocity": 0.5196850393700787,
                    "duration": 0.15000000000000568
                },
                {
                    "name": "C5",
                    "midi": 72,
                    "time": 143.0999999999999,
                    "velocity": 0.4881889763779528,
                    "duration": 1.1999999999999602
                },
                {
                    "name": "F#5",
                    "midi": 78,
                    "time": 143.0999999999999,
                    "velocity": 0.4881889763779528,
                    "duration": 1.1999999999999602
                },
                {
                    "name": "C6",
                    "midi": 84,
                    "time": 143.0999999999999,
                    "velocity": 0.6771653543307087,
                    "duration": 1.1999999999999602
                },
                {
                    "name": "A3",
                    "midi": 57,
                    "time": 143.6999999999999,
                    "velocity": 0.3543307086614173,
                    "duration": 0.19999999999998863
                },
                {
                    "name": "C4",
                    "midi": 60,
                    "time": 143.6999999999999,
                    "velocity": 0.4251968503937008,
                    "duration": 0.19999999999998863
                },
                {
                    "name": "G#4",
                    "midi": 68,
                    "time": 143.8999999999999,
                    "velocity": 0.4015748031496063,
                    "duration": 0.19999999999998863
                },
                {
                    "name": "B4",
                    "midi": 71,
                    "time": 143.8999999999999,
                    "velocity": 0.48031496062992124,
                    "duration": 0.19999999999998863
                },
                {
                    "name": "C5",
                    "midi": 72,
                    "time": 144.09999999999988,
                    "velocity": 0.5039370078740157,
                    "duration": 0.19999999999998863
                },
                {
                    "name": "A4",
                    "midi": 69,
                    "time": 144.09999999999988,
                    "velocity": 0.4251968503937008,
                    "duration": 0.19999999999998863
                },
                {
                    "name": "G#5",
                    "midi": 80,
                    "time": 144.29999999999987,
                    "velocity": 0.4409448818897638,
                    "duration": 0.19999999999998863
                },
                {
                    "name": "B5",
                    "midi": 83,
                    "time": 144.29999999999987,
                    "velocity": 0.5275590551181102,
                    "duration": 0.19999999999998863
                },
                {
                    "name": "A5",
                    "midi": 81,
                    "time": 144.49999999999986,
                    "velocity": 0.4645669291338583,
                    "duration": 0.19999999999998863
                },
                {
                    "name": "C6",
                    "midi": 84,
                    "time": 144.49999999999986,
                    "velocity": 0.5511811023622047,
                    "duration": 0.19999999999998863
                },
                {
                    "name": "B6",
                    "midi": 95,
                    "time": 144.69999999999985,
                    "velocity": 0.5748031496062992,
                    "duration": 0.19999999999998863
                },
                {
                    "name": "G#6",
                    "midi": 92,
                    "time": 144.69999999999985,
                    "velocity": 0.4881889763779528,
                    "duration": 0.19999999999998863
                },
                {
                    "name": "C7",
                    "midi": 96,
                    "time": 144.89999999999984,
                    "velocity": 0.6535433070866141,
                    "duration": 0.30000000000001137
                },
                {
                    "name": "A6",
                    "midi": 93,
                    "time": 144.89999999999984,
                    "velocity": 0.5511811023622047,
                    "duration": 0.30000000000001137
                },
                {
                    "name": "D5",
                    "midi": 74,
                    "time": 145.34999999999985,
                    "velocity": 0.6141732283464567,
                    "duration": 0.15000000000000568
                },
                {
                    "name": "D4",
                    "midi": 62,
                    "time": 145.34999999999985,
                    "velocity": 0.5196850393700787,
                    "duration": 0.15000000000000568
                },
                {
                    "name": "B4",
                    "midi": 71,
                    "time": 145.49999999999986,
                    "velocity": 0.4881889763779528,
                    "duration": 1.1999999999999602
                },
                {
                    "name": "F5",
                    "midi": 77,
                    "time": 145.49999999999986,
                    "velocity": 0.4881889763779528,
                    "duration": 1.1999999999999602
                },
                {
                    "name": "B5",
                    "midi": 83,
                    "time": 145.49999999999986,
                    "velocity": 0.6771653543307087,
                    "duration": 1.1999999999999602
                },
                {
                    "name": "G#3",
                    "midi": 56,
                    "time": 146.09999999999985,
                    "velocity": 0.3543307086614173,
                    "duration": 0.19999999999998863
                },
                {
                    "name": "B3",
                    "midi": 59,
                    "time": 146.09999999999985,
                    "velocity": 0.4251968503937008,
                    "duration": 0.19999999999998863
                },
                {
                    "name": "G4",
                    "midi": 67,
                    "time": 146.29999999999984,
                    "velocity": 0.4015748031496063,
                    "duration": 0.19999999999998863
                },
                {
                    "name": "A#4",
                    "midi": 70,
                    "time": 146.29999999999984,
                    "velocity": 0.48031496062992124,
                    "duration": 0.19999999999998863
                },
                {
                    "name": "G#4",
                    "midi": 68,
                    "time": 146.49999999999983,
                    "velocity": 0.4251968503937008,
                    "duration": 0.19999999999998863
                },
                {
                    "name": "B4",
                    "midi": 71,
                    "time": 146.49999999999983,
                    "velocity": 0.5039370078740157,
                    "duration": 0.19999999999998863
                },
                {
                    "name": "G5",
                    "midi": 79,
                    "time": 146.69999999999982,
                    "velocity": 0.4409448818897638,
                    "duration": 0.19999999999998863
                },
                {
                    "name": "A#5",
                    "midi": 82,
                    "time": 146.69999999999982,
                    "velocity": 0.5275590551181102,
                    "duration": 0.19999999999998863
                },
                {
                    "name": "G#5",
                    "midi": 80,
                    "time": 146.8999999999998,
                    "velocity": 0.4645669291338583,
                    "duration": 0.19999999999998863
                },
                {
                    "name": "B5",
                    "midi": 83,
                    "time": 146.8999999999998,
                    "velocity": 0.5511811023622047,
                    "duration": 0.19999999999998863
                },
                {
                    "name": "G6",
                    "midi": 91,
                    "time": 147.0999999999998,
                    "velocity": 0.4881889763779528,
                    "duration": 0.19999999999998863
                },
                {
                    "name": "A#6",
                    "midi": 94,
                    "time": 147.0999999999998,
                    "velocity": 0.5748031496062992,
                    "duration": 0.19999999999998863
                },
                {
                    "name": "B6",
                    "midi": 95,
                    "time": 147.29999999999978,
                    "velocity": 0.6535433070866141,
                    "duration": 0.30000000000001137
                },
                {
                    "name": "G#6",
                    "midi": 92,
                    "time": 147.29999999999978,
                    "velocity": 0.5511811023622047,
                    "duration": 0.30000000000001137
                },
                {
                    "name": "D5",
                    "midi": 74,
                    "time": 147.7499999999998,
                    "velocity": 0.6141732283464567,
                    "duration": 0.15000000000000568
                },
                {
                    "name": "D4",
                    "midi": 62,
                    "time": 147.7499999999998,
                    "velocity": 0.5196850393700787,
                    "duration": 0.15000000000000568
                },
                {
                    "name": "A#5",
                    "midi": 82,
                    "time": 147.8999999999998,
                    "velocity": 0.6771653543307087,
                    "duration": 0.5999999999999943
                },
                {
                    "name": "A#4",
                    "midi": 70,
                    "time": 147.8999999999998,
                    "velocity": 0.5748031496062992,
                    "duration": 0.5999999999999943
                },
                {
                    "name": "D#4",
                    "midi": 63,
                    "time": 148.4999999999998,
                    "velocity": 0.4645669291338583,
                    "duration": 0.19999999999998863
                },
                {
                    "name": "C4",
                    "midi": 60,
                    "time": 148.4999999999998,
                    "velocity": 0.36220472440944884,
                    "duration": 0.19999999999998863
                },
                {
                    "name": "E4",
                    "midi": 64,
                    "time": 148.6999999999998,
                    "velocity": 0.47244094488188976,
                    "duration": 0.19999999999998863
                },
                {
                    "name": "C#4",
                    "midi": 61,
                    "time": 148.6999999999998,
                    "velocity": 0.3858267716535433,
                    "duration": 0.19999999999998863
                },
                {
                    "name": "A#4",
                    "midi": 70,
                    "time": 148.9499999999998,
                    "velocity": 0.5748031496062992,
                    "duration": 0.15000000000000568
                },
                {
                    "name": "A#5",
                    "midi": 82,
                    "time": 148.9499999999998,
                    "velocity": 0.5748031496062992,
                    "duration": 0.15000000000000568
                },
                {
                    "name": "A4",
                    "midi": 69,
                    "time": 149.0999999999998,
                    "velocity": 0.5669291338582677,
                    "duration": 0.5999999999999943
                },
                {
                    "name": "A5",
                    "midi": 81,
                    "time": 149.0999999999998,
                    "velocity": 0.6692913385826772,
                    "duration": 0.5999999999999943
                },
                {
                    "name": "C4",
                    "midi": 60,
                    "time": 149.6999999999998,
                    "velocity": 0.36220472440944884,
                    "duration": 0.19999999999998863
                },
                {
                    "name": "D#4",
                    "midi": 63,
                    "time": 149.6999999999998,
                    "velocity": 0.4645669291338583,
                    "duration": 0.19999999999998863
                },
                {
                    "name": "C#4",
                    "midi": 61,
                    "time": 149.89999999999978,
                    "velocity": 0.3858267716535433,
                    "duration": 0.19999999999998863
                },
                {
                    "name": "E4",
                    "midi": 64,
                    "time": 149.89999999999978,
                    "velocity": 0.47244094488188976,
                    "duration": 0.19999999999998863
                },
                {
                    "name": "G4",
                    "midi": 67,
                    "time": 150.14999999999978,
                    "velocity": 0.4094488188976378,
                    "duration": 0.15000000000000568
                },
                {
                    "name": "G5",
                    "midi": 79,
                    "time": 150.14999999999978,
                    "velocity": 0.5748031496062992,
                    "duration": 0.15000000000000568
                },
                {
                    "name": "F#4",
                    "midi": 66,
                    "time": 150.29999999999978,
                    "velocity": 0.4881889763779528,
                    "duration": 0.30000000000001137
                },
                {
                    "name": "D5",
                    "midi": 74,
                    "time": 150.29999999999978,
                    "velocity": 0.6141732283464567,
                    "duration": 0.30000000000001137
                },
                {
                    "name": "D4",
                    "midi": 62,
                    "time": 150.29999999999978,
                    "velocity": 0.4881889763779528,
                    "duration": 0.30000000000001137
                },
                {
                    "name": "A#6",
                    "midi": 94,
                    "time": 150.8999999999998,
                    "velocity": 0.5511811023622047,
                    "duration": 0.5999999999999659
                },
                {
                    "name": "C#6",
                    "midi": 85,
                    "time": 150.8999999999998,
                    "velocity": 0.36220472440944884,
                    "duration": 0.19999999999998863
                },
                {
                    "name": "C6",
                    "midi": 84,
                    "time": 151.0999999999998,
                    "velocity": 0.36220472440944884,
                    "duration": 0.19999999999998863
                },
                {
                    "name": "B5",
                    "midi": 83,
                    "time": 151.29999999999978,
                    "velocity": 0.3700787401574803,
                    "duration": 0.19999999999998863
                },
                {
                    "name": "A#5",
                    "midi": 82,
                    "time": 151.49999999999977,
                    "velocity": 0.3779527559055118,
                    "duration": 0.19999999999998863
                },
                {
                    "name": "G6",
                    "midi": 91,
                    "time": 151.49999999999977,
                    "velocity": 0.5748031496062992,
                    "duration": 0.5999999999999659
                },
                {
                    "name": "A5",
                    "midi": 81,
                    "time": 151.69999999999976,
                    "velocity": 0.3779527559055118,
                    "duration": 0.19999999999998863
                },
                {
                    "name": "G#5",
                    "midi": 80,
                    "time": 151.89999999999975,
                    "velocity": 0.3858267716535433,
                    "duration": 0.19999999999998863
                },
                {
                    "name": "G5",
                    "midi": 79,
                    "time": 152.09999999999974,
                    "velocity": 0.3937007874015748,
                    "duration": 0.19999999999998863
                },
                {
                    "name": "E6",
                    "midi": 88,
                    "time": 152.09999999999974,
                    "velocity": 0.6062992125984252,
                    "duration": 0.5999999999999659
                },
                {
                    "name": "F#5",
                    "midi": 78,
                    "time": 152.29999999999973,
                    "velocity": 0.3937007874015748,
                    "duration": 0.19999999999998863
                },
                {
                    "name": "F5",
                    "midi": 77,
                    "time": 152.49999999999972,
                    "velocity": 0.4015748031496063,
                    "duration": 0.19999999999998863
                },
                {
                    "name": "C#6",
                    "midi": 85,
                    "time": 152.6999999999997,
                    "velocity": 0.6299212598425197,
                    "duration": 0.30000000000001137
                },
                {
                    "name": "E5",
                    "midi": 76,
                    "time": 152.6999999999997,
                    "velocity": 0.4015748031496063,
                    "duration": 0.30000000000001137
                },
                {
                    "name": "A#4",
                    "midi": 70,
                    "time": 153.29999999999973,
                    "velocity": 0.3700787401574803,
                    "duration": 0.19999999999998863
                },
                {
                    "name": "A#5",
                    "midi": 82,
                    "time": 153.29999999999973,
                    "velocity": 0.6614173228346457,
                    "duration": 0.5999999999999659
                },
                {
                    "name": "C#5",
                    "midi": 73,
                    "time": 153.49999999999972,
                    "velocity": 0.47244094488188976,
                    "duration": 0.19999999999998863
                },
                {
                    "name": "E5",
                    "midi": 76,
                    "time": 153.6999999999997,
                    "velocity": 0.47244094488188976,
                    "duration": 0.19999999999998863
                },
                {
                    "name": "D5",
                    "midi": 74,
                    "time": 153.8999999999997,
                    "velocity": 0.5354330708661418,
                    "duration": 0.30000000000001137
                },
                {
                    "name": "D6",
                    "midi": 86,
                    "time": 153.8999999999997,
                    "velocity": 0.6692913385826772,
                    "duration": 0.30000000000001137
                },
                {
                    "name": "F#5",
                    "midi": 78,
                    "time": 153.8999999999997,
                    "velocity": 0.5354330708661418,
                    "duration": 0.30000000000001137
                },
                {
                    "name": "A#5",
                    "midi": 82,
                    "time": 154.49999999999972,
                    "velocity": 0.5511811023622047,
                    "duration": 0.5999999999999659
                },
                {
                    "name": "C#5",
                    "midi": 73,
                    "time": 154.49999999999972,
                    "velocity": 0.36220472440944884,
                    "duration": 0.19999999999998863
                },
                {
                    "name": "C5",
                    "midi": 72,
                    "time": 154.6999999999997,
                    "velocity": 0.36220472440944884,
                    "duration": 0.19999999999998863
                },
                {
                    "name": "B4",
                    "midi": 71,
                    "time": 154.8999999999997,
                    "velocity": 0.3700787401574803,
                    "duration": 0.19999999999998863
                },
                {
                    "name": "G5",
                    "midi": 79,
                    "time": 155.09999999999968,
                    "velocity": 0.5748031496062992,
                    "duration": 0.5999999999999659
                },
                {
                    "name": "A#4",
                    "midi": 70,
                    "time": 155.09999999999968,
                    "velocity": 0.3779527559055118,
                    "duration": 0.19999999999998863
                },
                {
                    "name": "A4",
                    "midi": 69,
                    "time": 155.29999999999967,
                    "velocity": 0.3779527559055118,
                    "duration": 0.19999999999998863
                },
                {
                    "name": "G#4",
                    "midi": 68,
                    "time": 155.49999999999966,
                    "velocity": 0.3858267716535433,
                    "duration": 0.19999999999998863
                },
                {
                    "name": "E5",
                    "midi": 76,
                    "time": 155.69999999999965,
                    "velocity": 0.6062992125984252,
                    "duration": 0.5999999999999659
                },
                {
                    "name": "G4",
                    "midi": 67,
                    "time": 155.69999999999965,
                    "velocity": 0.3937007874015748,
                    "duration": 0.19999999999998863
                },
                {
                    "name": "F#4",
                    "midi": 66,
                    "time": 155.89999999999964,
                    "velocity": 0.3937007874015748,
                    "duration": 0.19999999999998863
                },
                {
                    "name": "F4",
                    "midi": 65,
                    "time": 156.09999999999962,
                    "velocity": 0.4015748031496063,
                    "duration": 0.19999999999998863
                },
                {
                    "name": "E4",
                    "midi": 64,
                    "time": 156.2999999999996,
                    "velocity": 0.4015748031496063,
                    "duration": 0.30000000000001137
                },
                {
                    "name": "C#5",
                    "midi": 73,
                    "time": 156.2999999999996,
                    "velocity": 0.6299212598425197,
                    "duration": 0.30000000000001137
                },
                {
                    "name": "A#4",
                    "midi": 70,
                    "time": 156.89999999999964,
                    "velocity": 0.6614173228346457,
                    "duration": 0.5999999999999659
                },
                {
                    "name": "A#3",
                    "midi": 58,
                    "time": 156.89999999999964,
                    "velocity": 0.3700787401574803,
                    "duration": 0.19999999999998863
                },
                {
                    "name": "C#4",
                    "midi": 61,
                    "time": 157.09999999999962,
                    "velocity": 0.47244094488188976,
                    "duration": 0.19999999999998863
                },
                {
                    "name": "E4",
                    "midi": 64,
                    "time": 157.2999999999996,
                    "velocity": 0.47244094488188976,
                    "duration": 0.19999999999998863
                },
                {
                    "name": "F#4",
                    "midi": 66,
                    "time": 157.4999999999996,
                    "velocity": 0.5748031496062992,
                    "duration": 0.30000000000001137
                },
                {
                    "name": "D5",
                    "midi": 74,
                    "time": 157.4999999999996,
                    "velocity": 0.7322834645669292,
                    "duration": 0.30000000000001137
                },
                {
                    "name": "D4",
                    "midi": 62,
                    "time": 157.4999999999996,
                    "velocity": 0.5748031496062992,
                    "duration": 0.30000000000001137
                },
                {
                    "name": "E5",
                    "midi": 76,
                    "time": 158.09999999999962,
                    "velocity": 0.5511811023622047,
                    "duration": 0.5999999999999659
                },
                {
                    "name": "E4",
                    "midi": 64,
                    "time": 158.09999999999962,
                    "velocity": 0.44881889763779526,
                    "duration": 0.19999999999998863
                },
                {
                    "name": "A#4",
                    "midi": 70,
                    "time": 158.2999999999996,
                    "velocity": 0.44881889763779526,
                    "duration": 0.19999999999998863
                },
                {
                    "name": "C#5",
                    "midi": 73,
                    "time": 158.4999999999996,
                    "velocity": 0.44881889763779526,
                    "duration": 0.19999999999998863
                },
                {
                    "name": "A4",
                    "midi": 69,
                    "time": 158.6999999999996,
                    "velocity": 0.5590551181102362,
                    "duration": 0.30000000000001137
                },
                {
                    "name": "F#5",
                    "midi": 78,
                    "time": 158.6999999999996,
                    "velocity": 0.7086614173228346,
                    "duration": 0.30000000000001137
                },
                {
                    "name": "F#4",
                    "midi": 66,
                    "time": 158.6999999999996,
                    "velocity": 0.5590551181102362,
                    "duration": 0.30000000000001137
                },
                {
                    "name": "A#5",
                    "midi": 82,
                    "time": 159.2999999999996,
                    "velocity": 0.5590551181102362,
                    "duration": 0.5999999999999659
                },
                {
                    "name": "A#4",
                    "midi": 70,
                    "time": 159.2999999999996,
                    "velocity": 0.4566929133858268,
                    "duration": 0.19999999999998863
                },
                {
                    "name": "C#5",
                    "midi": 73,
                    "time": 159.4999999999996,
                    "velocity": 0.4566929133858268,
                    "duration": 0.19999999999998863
                },
                {
                    "name": "E5",
                    "midi": 76,
                    "time": 159.6999999999996,
                    "velocity": 0.4645669291338583,
                    "duration": 0.19999999999998863
                },
                {
                    "name": "F#5",
                    "midi": 78,
                    "time": 159.89999999999958,
                    "velocity": 0.5669291338582677,
                    "duration": 0.30000000000001137
                },
                {
                    "name": "D5",
                    "midi": 74,
                    "time": 159.89999999999958,
                    "velocity": 0.5669291338582677,
                    "duration": 0.30000000000001137
                },
                {
                    "name": "D6",
                    "midi": 86,
                    "time": 159.89999999999958,
                    "velocity": 0.7165354330708661,
                    "duration": 0.30000000000001137
                },
                {
                    "name": "E6",
                    "midi": 88,
                    "time": 160.4999999999996,
                    "velocity": 0.5748031496062992,
                    "duration": 0.5999999999999659
                },
                {
                    "name": "E5",
                    "midi": 76,
                    "time": 160.4999999999996,
                    "velocity": 0.47244094488188976,
                    "duration": 0.19999999999998863
                },
                {
                    "name": "A#5",
                    "midi": 82,
                    "time": 160.6999999999996,
                    "velocity": 0.47244094488188976,
                    "duration": 0.19999999999998863
                },
                {
                    "name": "C#6",
                    "midi": 85,
                    "time": 160.89999999999958,
                    "velocity": 0.47244094488188976,
                    "duration": 0.19999999999998863
                },
                {
                    "name": "F#6",
                    "midi": 90,
                    "time": 161.09999999999957,
                    "velocity": 0.7401574803149606,
                    "duration": 0.30000000000001137
                },
                {
                    "name": "A5",
                    "midi": 81,
                    "time": 161.09999999999957,
                    "velocity": 0.5826771653543307,
                    "duration": 0.30000000000001137
                },
                {
                    "name": "F#5",
                    "midi": 78,
                    "time": 161.09999999999957,
                    "velocity": 0.5826771653543307,
                    "duration": 0.30000000000001137
                },
                {
                    "name": "A#5",
                    "midi": 82,
                    "time": 161.6999999999996,
                    "velocity": 0.48031496062992124,
                    "duration": 0.19999999999998863
                },
                {
                    "name": "A#6",
                    "midi": 94,
                    "time": 161.6999999999996,
                    "velocity": 0.5905511811023622,
                    "duration": 0.5999999999999659
                },
                {
                    "name": "C#6",
                    "midi": 85,
                    "time": 161.89999999999958,
                    "velocity": 0.48031496062992124,
                    "duration": 0.19999999999998863
                },
                {
                    "name": "E6",
                    "midi": 88,
                    "time": 162.09999999999957,
                    "velocity": 0.4881889763779528,
                    "duration": 0.19999999999998863
                },
                {
                    "name": "F#6",
                    "midi": 90,
                    "time": 162.29999999999956,
                    "velocity": 0.5905511811023622,
                    "duration": 0.30000000000001137
                },
                {
                    "name": "D6",
                    "midi": 86,
                    "time": 162.29999999999956,
                    "velocity": 0.5905511811023622,
                    "duration": 0.30000000000001137
                },
                {
                    "name": "D7",
                    "midi": 98,
                    "time": 162.29999999999956,
                    "velocity": 0.7559055118110236,
                    "duration": 0.30000000000001137
                },
                {
                    "name": "A#6",
                    "midi": 94,
                    "time": 162.89999999999958,
                    "velocity": 0.6062992125984252,
                    "duration": 0.5999999999999659
                },
                {
                    "name": "A#5",
                    "midi": 82,
                    "time": 162.89999999999958,
                    "velocity": 0.49606299212598426,
                    "duration": 0.19999999999998863
                },
                {
                    "name": "C#6",
                    "midi": 85,
                    "time": 163.09999999999957,
                    "velocity": 0.49606299212598426,
                    "duration": 0.19999999999998863
                },
                {
                    "name": "E6",
                    "midi": 88,
                    "time": 163.29999999999956,
                    "velocity": 0.49606299212598426,
                    "duration": 0.19999999999998863
                },
                {
                    "name": "D6",
                    "midi": 86,
                    "time": 163.49999999999955,
                    "velocity": 0.6062992125984252,
                    "duration": 0.30000000000001137
                },
                {
                    "name": "F#6",
                    "midi": 90,
                    "time": 163.49999999999955,
                    "velocity": 0.6062992125984252,
                    "duration": 0.30000000000001137
                },
                {
                    "name": "D7",
                    "midi": 98,
                    "time": 163.49999999999955,
                    "velocity": 0.7716535433070866,
                    "duration": 0.30000000000001137
                },
                {
                    "name": "A#6",
                    "midi": 94,
                    "time": 164.09999999999957,
                    "velocity": 0.6141732283464567,
                    "duration": 0.5999999999999659
                },
                {
                    "name": "A#5",
                    "midi": 82,
                    "time": 164.09999999999957,
                    "velocity": 0.5039370078740157,
                    "duration": 0.19999999999998863
                },
                {
                    "name": "C#6",
                    "midi": 85,
                    "time": 164.29999999999956,
                    "velocity": 0.5039370078740157,
                    "duration": 0.19999999999998863
                },
                {
                    "name": "E6",
                    "midi": 88,
                    "time": 164.49999999999955,
                    "velocity": 0.5039370078740157,
                    "duration": 0.19999999999998863
                },
                {
                    "name": "D7",
                    "midi": 98,
                    "time": 164.69999999999953,
                    "velocity": 0.6141732283464567,
                    "duration": 0.30000000000001137
                },
                {
                    "name": "D6",
                    "midi": 86,
                    "time": 164.69999999999953,
                    "velocity": 0.5196850393700787,
                    "duration": 0.30000000000001137
                },
                {
                    "name": "F#6",
                    "midi": 90,
                    "time": 164.69999999999953,
                    "velocity": 0.6141732283464567,
                    "duration": 0.30000000000001137
                },
                {
                    "name": "A#6",
                    "midi": 94,
                    "time": 164.99999999999955,
                    "velocity": 0.5905511811023622,
                    "duration": 0.30000000000001137
                },
                {
                    "name": "A#5",
                    "midi": 82,
                    "time": 164.99999999999955,
                    "velocity": 0.49606299212598426,
                    "duration": 0.30000000000001137
                },
                {
                    "name": "D5",
                    "midi": 74,
                    "time": 165.89999999999955,
                    "velocity": 0.4881889763779528,
                    "duration": 0.30000000000001137
                },
                {
                    "name": "D6",
                    "midi": 86,
                    "time": 165.89999999999955,
                    "velocity": 0.5826771653543307,
                    "duration": 0.30000000000001137
                },
                {
                    "name": "A#4",
                    "midi": 70,
                    "time": 166.19999999999956,
                    "velocity": 0.4881889763779528,
                    "duration": 0.30000000000001137
                },
                {
                    "name": "A#5",
                    "midi": 82,
                    "time": 166.19999999999956,
                    "velocity": 0.5826771653543307,
                    "duration": 0.30000000000001137
                },
                {
                    "name": "D5",
                    "midi": 74,
                    "time": 167.09999999999957,
                    "velocity": 0.5748031496062992,
                    "duration": 0.30000000000001137
                },
                {
                    "name": "D4",
                    "midi": 62,
                    "time": 167.09999999999957,
                    "velocity": 0.4881889763779528,
                    "duration": 0.30000000000001137
                },
                {
                    "name": "A#3",
                    "midi": 58,
                    "time": 167.39999999999958,
                    "velocity": 0.4881889763779528,
                    "duration": 0.30000000000001137
                },
                {
                    "name": "A#4",
                    "midi": 70,
                    "time": 167.39999999999958,
                    "velocity": 0.5748031496062992,
                    "duration": 0.30000000000001137
                },
                {
                    "name": "D3",
                    "midi": 50,
                    "time": 168.29999999999959,
                    "velocity": 0.48031496062992124,
                    "duration": 0.30000000000001137
                },
                {
                    "name": "D4",
                    "midi": 62,
                    "time": 168.29999999999959,
                    "velocity": 0.5669291338582677,
                    "duration": 0.30000000000001137
                },
                {
                    "name": "D4",
                    "midi": 62,
                    "time": 168.8999999999996,
                    "velocity": 0.5590551181102362,
                    "duration": 0.30000000000001137
                },
                {
                    "name": "D3",
                    "midi": 50,
                    "time": 168.8999999999996,
                    "velocity": 0.47244094488188976,
                    "duration": 0.30000000000001137
                },
                {
                    "name": "D4",
                    "midi": 62,
                    "time": 169.49999999999963,
                    "velocity": 0.5511811023622047,
                    "duration": 0.30000000000001137
                },
                {
                    "name": "D3",
                    "midi": 50,
                    "time": 169.49999999999963,
                    "velocity": 0.4645669291338583,
                    "duration": 0.30000000000001137
                },
                {
                    "name": "D4",
                    "midi": 62,
                    "time": 170.09999999999965,
                    "velocity": 0.5433070866141733,
                    "duration": 0.30000000000001137
                },
                {
                    "name": "D3",
                    "midi": 50,
                    "time": 170.09999999999965,
                    "velocity": 0.4566929133858268,
                    "duration": 0.30000000000001137
                },
                {
                    "name": "D4",
                    "midi": 62,
                    "time": 170.69999999999968,
                    "velocity": 0.5354330708661418,
                    "duration": 0.30000000000001137
                },
                {
                    "name": "D3",
                    "midi": 50,
                    "time": 170.69999999999968,
                    "velocity": 0.44881889763779526,
                    "duration": 0.30000000000001137
                },
                {
                    "name": "D4",
                    "midi": 62,
                    "time": 171.2999999999997,
                    "velocity": 0.5275590551181102,
                    "duration": 0.30000000000001137
                },
                {
                    "name": "D3",
                    "midi": 50,
                    "time": 171.2999999999997,
                    "velocity": 0.4409448818897638,
                    "duration": 0.30000000000001137
                },
                {
                    "name": "D#2",
                    "midi": 39,
                    "time": 172.0499999999997,
                    "velocity": 0.3937007874015748,
                    "duration": 0.15000000000000568
                },
                {
                    "name": "D#3",
                    "midi": 51,
                    "time": 172.0499999999997,
                    "velocity": 0.48031496062992124,
                    "duration": 0.15000000000000568
                },
                {
                    "name": "F3",
                    "midi": 53,
                    "time": 172.3499999999997,
                    "velocity": 0.48031496062992124,
                    "duration": 0.15000000000000568
                },
                {
                    "name": "F2",
                    "midi": 41,
                    "time": 172.3499999999997,
                    "velocity": 0.3937007874015748,
                    "duration": 0.15000000000000568
                },
                {
                    "name": "G3",
                    "midi": 55,
                    "time": 172.64999999999972,
                    "velocity": 0.48031496062992124,
                    "duration": 0.15000000000000568
                },
                {
                    "name": "G2",
                    "midi": 43,
                    "time": 172.64999999999972,
                    "velocity": 0.3937007874015748,
                    "duration": 0.15000000000000568
                },
                {
                    "name": "A2",
                    "midi": 45,
                    "time": 172.94999999999973,
                    "velocity": 0.3937007874015748,
                    "duration": 0.15000000000000568
                },
                {
                    "name": "A3",
                    "midi": 57,
                    "time": 172.94999999999973,
                    "velocity": 0.48031496062992124,
                    "duration": 0.15000000000000568
                },
                {
                    "name": "B2",
                    "midi": 47,
                    "time": 173.24999999999974,
                    "velocity": 0.3937007874015748,
                    "duration": 0.15000000000000568
                },
                {
                    "name": "B3",
                    "midi": 59,
                    "time": 173.24999999999974,
                    "velocity": 0.48031496062992124,
                    "duration": 0.15000000000000568
                },
                {
                    "name": "C#3",
                    "midi": 49,
                    "time": 173.54999999999976,
                    "velocity": 0.3937007874015748,
                    "duration": 0.15000000000000568
                },
                {
                    "name": "C#4",
                    "midi": 61,
                    "time": 173.54999999999976,
                    "velocity": 0.48031496062992124,
                    "duration": 0.15000000000000568
                },
                {
                    "name": "D#4",
                    "midi": 63,
                    "time": 173.84999999999977,
                    "velocity": 0.48031496062992124,
                    "duration": 0.15000000000000568
                },
                {
                    "name": "D#3",
                    "midi": 51,
                    "time": 173.84999999999977,
                    "velocity": 0.3937007874015748,
                    "duration": 0.15000000000000568
                },
                {
                    "name": "F3",
                    "midi": 53,
                    "time": 174.14999999999978,
                    "velocity": 0.3937007874015748,
                    "duration": 0.15000000000000568
                },
                {
                    "name": "F4",
                    "midi": 65,
                    "time": 174.14999999999978,
                    "velocity": 0.48031496062992124,
                    "duration": 0.15000000000000568
                },
                {
                    "name": "G3",
                    "midi": 55,
                    "time": 174.4499999999998,
                    "velocity": 0.4094488188976378,
                    "duration": 0.15000000000000568
                },
                {
                    "name": "G4",
                    "midi": 67,
                    "time": 174.4499999999998,
                    "velocity": 0.4881889763779528,
                    "duration": 0.15000000000000568
                },
                {
                    "name": "A4",
                    "midi": 69,
                    "time": 174.7499999999998,
                    "velocity": 0.49606299212598426,
                    "duration": 0.15000000000000568
                },
                {
                    "name": "A3",
                    "midi": 57,
                    "time": 174.7499999999998,
                    "velocity": 0.4251968503937008,
                    "duration": 0.15000000000000568
                },
                {
                    "name": "B4",
                    "midi": 71,
                    "time": 175.0499999999998,
                    "velocity": 0.5196850393700787,
                    "duration": 0.15000000000000568
                },
                {
                    "name": "B3",
                    "midi": 59,
                    "time": 175.0499999999998,
                    "velocity": 0.4330708661417323,
                    "duration": 0.15000000000000568
                },
                {
                    "name": "C#5",
                    "midi": 73,
                    "time": 175.34999999999982,
                    "velocity": 0.5275590551181102,
                    "duration": 0.15000000000000568
                },
                {
                    "name": "C#4",
                    "midi": 61,
                    "time": 175.34999999999982,
                    "velocity": 0.4409448818897638,
                    "duration": 0.15000000000000568
                },
                {
                    "name": "D#5",
                    "midi": 75,
                    "time": 175.64999999999984,
                    "velocity": 0.5354330708661418,
                    "duration": 0.15000000000000568
                },
                {
                    "name": "D#4",
                    "midi": 63,
                    "time": 175.64999999999984,
                    "velocity": 0.44881889763779526,
                    "duration": 0.15000000000000568
                },
                {
                    "name": "F5",
                    "midi": 77,
                    "time": 175.94999999999985,
                    "velocity": 0.5433070866141733,
                    "duration": 0.15000000000000568
                },
                {
                    "name": "F4",
                    "midi": 65,
                    "time": 175.94999999999985,
                    "velocity": 0.4566929133858268,
                    "duration": 0.15000000000000568
                },
                {
                    "name": "G5",
                    "midi": 79,
                    "time": 176.24999999999986,
                    "velocity": 0.5511811023622047,
                    "duration": 0.15000000000000568
                },
                {
                    "name": "G4",
                    "midi": 67,
                    "time": 176.24999999999986,
                    "velocity": 0.4566929133858268,
                    "duration": 0.15000000000000568
                },
                {
                    "name": "A5",
                    "midi": 81,
                    "time": 176.54999999999987,
                    "velocity": 0.5669291338582677,
                    "duration": 0.15000000000000568
                },
                {
                    "name": "A4",
                    "midi": 69,
                    "time": 176.54999999999987,
                    "velocity": 0.47244094488188976,
                    "duration": 0.15000000000000568
                },
                {
                    "name": "B4",
                    "midi": 71,
                    "time": 176.84999999999988,
                    "velocity": 0.48031496062992124,
                    "duration": 0.15000000000000568
                },
                {
                    "name": "B5",
                    "midi": 83,
                    "time": 176.84999999999988,
                    "velocity": 0.5748031496062992,
                    "duration": 0.15000000000000568
                },
                {
                    "name": "C#5",
                    "midi": 73,
                    "time": 177.1499999999999,
                    "velocity": 0.5826771653543307,
                    "duration": 0.15000000000000568
                },
                {
                    "name": "C#6",
                    "midi": 85,
                    "time": 177.1499999999999,
                    "velocity": 0.5826771653543307,
                    "duration": 0.15000000000000568
                },
                {
                    "name": "C#6",
                    "midi": 85,
                    "time": 177.4499999999999,
                    "velocity": 0.5905511811023622,
                    "duration": 0.15000000000000568
                },
                {
                    "name": "C#5",
                    "midi": 73,
                    "time": 177.4499999999999,
                    "velocity": 0.49606299212598426,
                    "duration": 0.15000000000000568
                },
                {
                    "name": "B4",
                    "midi": 71,
                    "time": 177.74999999999991,
                    "velocity": 0.4881889763779528,
                    "duration": 0.15000000000000568
                },
                {
                    "name": "B5",
                    "midi": 83,
                    "time": 177.74999999999991,
                    "velocity": 0.5826771653543307,
                    "duration": 0.15000000000000568
                },
                {
                    "name": "A4",
                    "midi": 69,
                    "time": 178.04999999999993,
                    "velocity": 0.48031496062992124,
                    "duration": 0.15000000000000568
                },
                {
                    "name": "A5",
                    "midi": 81,
                    "time": 178.04999999999993,
                    "velocity": 0.5748031496062992,
                    "duration": 0.15000000000000568
                },
                {
                    "name": "G5",
                    "midi": 79,
                    "time": 178.34999999999994,
                    "velocity": 0.5669291338582677,
                    "duration": 0.15000000000000568
                },
                {
                    "name": "G4",
                    "midi": 67,
                    "time": 178.34999999999994,
                    "velocity": 0.47244094488188976,
                    "duration": 0.15000000000000568
                },
                {
                    "name": "F5",
                    "midi": 77,
                    "time": 178.64999999999995,
                    "velocity": 0.5511811023622047,
                    "duration": 0.15000000000000568
                },
                {
                    "name": "F4",
                    "midi": 65,
                    "time": 178.64999999999995,
                    "velocity": 0.4566929133858268,
                    "duration": 0.15000000000000568
                },
                {
                    "name": "D#4",
                    "midi": 63,
                    "time": 178.94999999999996,
                    "velocity": 0.4566929133858268,
                    "duration": 0.15000000000000568
                },
                {
                    "name": "D#5",
                    "midi": 75,
                    "time": 178.94999999999996,
                    "velocity": 0.5433070866141733,
                    "duration": 0.15000000000000568
                },
                {
                    "name": "C#5",
                    "midi": 73,
                    "time": 179.24999999999997,
                    "velocity": 0.5354330708661418,
                    "duration": 0.15000000000000568
                },
                {
                    "name": "C#4",
                    "midi": 61,
                    "time": 179.24999999999997,
                    "velocity": 0.44881889763779526,
                    "duration": 0.15000000000000568
                },
                {
                    "name": "B3",
                    "midi": 59,
                    "time": 179.54999999999998,
                    "velocity": 0.4409448818897638,
                    "duration": 0.15000000000000568
                },
                {
                    "name": "B4",
                    "midi": 71,
                    "time": 179.54999999999998,
                    "velocity": 0.5275590551181102,
                    "duration": 0.15000000000000568
                },
                {
                    "name": "A4",
                    "midi": 69,
                    "time": 179.85,
                    "velocity": 0.5196850393700787,
                    "duration": 0.15000000000000568
                },
                {
                    "name": "A3",
                    "midi": 57,
                    "time": 179.85,
                    "velocity": 0.4330708661417323,
                    "duration": 0.15000000000000568
                },
                {
                    "name": "G4",
                    "midi": 67,
                    "time": 180.15,
                    "velocity": 0.4881889763779528,
                    "duration": 0.15000000000000568
                },
                {
                    "name": "G3",
                    "midi": 55,
                    "time": 180.15,
                    "velocity": 0.4094488188976378,
                    "duration": 0.15000000000000568
                },
                {
                    "name": "F4",
                    "midi": 65,
                    "time": 180.45000000000002,
                    "velocity": 0.48031496062992124,
                    "duration": 0.15000000000000568
                },
                {
                    "name": "F3",
                    "midi": 53,
                    "time": 180.45000000000002,
                    "velocity": 0.3937007874015748,
                    "duration": 0.15000000000000568
                },
                {
                    "name": "D#4",
                    "midi": 63,
                    "time": 180.75000000000003,
                    "velocity": 0.48031496062992124,
                    "duration": 0.15000000000000568
                },
                {
                    "name": "D#3",
                    "midi": 51,
                    "time": 180.75000000000003,
                    "velocity": 0.3937007874015748,
                    "duration": 0.15000000000000568
                },
                {
                    "name": "C#3",
                    "midi": 49,
                    "time": 181.05000000000004,
                    "velocity": 0.3937007874015748,
                    "duration": 0.15000000000000568
                },
                {
                    "name": "C#4",
                    "midi": 61,
                    "time": 181.05000000000004,
                    "velocity": 0.47244094488188976,
                    "duration": 0.15000000000000568
                },
                {
                    "name": "B3",
                    "midi": 59,
                    "time": 181.35000000000005,
                    "velocity": 0.44881889763779526,
                    "duration": 0.15000000000000568
                },
                {
                    "name": "B2",
                    "midi": 47,
                    "time": 181.35000000000005,
                    "velocity": 0.3779527559055118,
                    "duration": 0.15000000000000568
                },
                {
                    "name": "A3",
                    "midi": 57,
                    "time": 181.65000000000006,
                    "velocity": 0.4409448818897638,
                    "duration": 0.15000000000000568
                },
                {
                    "name": "A2",
                    "midi": 45,
                    "time": 181.65000000000006,
                    "velocity": 0.36220472440944884,
                    "duration": 0.15000000000000568
                },
                {
                    "name": "G2",
                    "midi": 43,
                    "time": 181.95000000000007,
                    "velocity": 0.3543307086614173,
                    "duration": 0.15000000000000568
                },
                {
                    "name": "G3",
                    "midi": 55,
                    "time": 181.95000000000007,
                    "velocity": 0.4330708661417323,
                    "duration": 0.15000000000000568
                },
                {
                    "name": "F2",
                    "midi": 41,
                    "time": 182.25000000000009,
                    "velocity": 0.3464566929133858,
                    "duration": 0.15000000000000568
                },
                {
                    "name": "F3",
                    "midi": 53,
                    "time": 182.25000000000009,
                    "velocity": 0.4251968503937008,
                    "duration": 0.15000000000000568
                },
                {
                    "name": "D#2",
                    "midi": 39,
                    "time": 182.5500000000001,
                    "velocity": 0.3464566929133858,
                    "duration": 0.15000000000000568
                },
                {
                    "name": "D#3",
                    "midi": 51,
                    "time": 182.5500000000001,
                    "velocity": 0.4094488188976378,
                    "duration": 0.15000000000000568
                },
                {
                    "name": "F4",
                    "midi": 65,
                    "time": 184.7000000000001,
                    "velocity": 0.1889763779527559,
                    "duration": 0.19999999999998863
                },
                {
                    "name": "D4",
                    "midi": 62,
                    "time": 184.7000000000001,
                    "velocity": 0.15748031496062992,
                    "duration": 0.5999999999999659
                },
                {
                    "name": "A#4",
                    "midi": 70,
                    "time": 184.9000000000001,
                    "velocity": 0.15748031496062992,
                    "duration": 0.19999999999998863
                },
                {
                    "name": "D5",
                    "midi": 74,
                    "time": 184.9000000000001,
                    "velocity": 0.1889763779527559,
                    "duration": 0.19999999999998863
                },
                {
                    "name": "D5",
                    "midi": 74,
                    "time": 185.10000000000008,
                    "velocity": 0.16535433070866143,
                    "duration": 0.19999999999998863
                },
                {
                    "name": "F5",
                    "midi": 77,
                    "time": 185.10000000000008,
                    "velocity": 0.1968503937007874,
                    "duration": 0.19999999999998863
                },
                {
                    "name": "D6",
                    "midi": 86,
                    "time": 185.30000000000007,
                    "velocity": 0.2047244094488189,
                    "duration": 0.19999999999998863
                },
                {
                    "name": "A#5",
                    "midi": 82,
                    "time": 185.30000000000007,
                    "velocity": 0.1732283464566929,
                    "duration": 0.19999999999998863
                },
                {
                    "name": "D6",
                    "midi": 86,
                    "time": 185.50000000000006,
                    "velocity": 0.1732283464566929,
                    "duration": 0.19999999999998863
                },
                {
                    "name": "F6",
                    "midi": 89,
                    "time": 185.50000000000006,
                    "velocity": 0.2125984251968504,
                    "duration": 0.19999999999998863
                },
                {
                    "name": "A#6",
                    "midi": 94,
                    "time": 185.70000000000005,
                    "velocity": 0.18110236220472442,
                    "duration": 0.19999999999998863
                },
                {
                    "name": "D7",
                    "midi": 98,
                    "time": 185.70000000000005,
                    "velocity": 0.2204724409448819,
                    "duration": 0.19999999999998863
                },
                {
                    "name": "D6",
                    "midi": 86,
                    "time": 185.90000000000003,
                    "velocity": 0.1889763779527559,
                    "duration": 0.19999999999998863
                },
                {
                    "name": "F6",
                    "midi": 89,
                    "time": 185.90000000000003,
                    "velocity": 0.2283464566929134,
                    "duration": 0.19999999999998863
                },
                {
                    "name": "D6",
                    "midi": 86,
                    "time": 186.10000000000002,
                    "velocity": 0.2204724409448819,
                    "duration": 0.19999999999998863
                },
                {
                    "name": "A#5",
                    "midi": 82,
                    "time": 186.10000000000002,
                    "velocity": 0.18110236220472442,
                    "duration": 0.19999999999998863
                },
                {
                    "name": "F5",
                    "midi": 77,
                    "time": 186.3,
                    "velocity": 0.2125984251968504,
                    "duration": 0.19999999999998863
                },
                {
                    "name": "D5",
                    "midi": 74,
                    "time": 186.3,
                    "velocity": 0.1732283464566929,
                    "duration": 0.19999999999998863
                },
                {
                    "name": "D5",
                    "midi": 74,
                    "time": 186.5,
                    "velocity": 0.1968503937007874,
                    "duration": 0.19999999999998863
                },
                {
                    "name": "A#4",
                    "midi": 70,
                    "time": 186.5,
                    "velocity": 0.16535433070866143,
                    "duration": 0.19999999999998863
                },
                {
                    "name": "F4",
                    "midi": 65,
                    "time": 186.7,
                    "velocity": 0.1889763779527559,
                    "duration": 0.07499999999998863
                },
                {
                    "name": "D4",
                    "midi": 62,
                    "time": 186.7,
                    "velocity": 0.15748031496062992,
                    "duration": 0.07499999999998863
                },
                {
                    "name": "D4",
                    "midi": 62,
                    "time": 187.09999999999997,
                    "velocity": 0.15748031496062992,
                    "duration": 0.5999999999999659
                },
                {
                    "name": "F4",
                    "midi": 65,
                    "time": 187.09999999999997,
                    "velocity": 0.1889763779527559,
                    "duration": 0.19999999999998863
                },
                {
                    "name": "D5",
                    "midi": 74,
                    "time": 187.29999999999995,
                    "velocity": 0.1889763779527559,
                    "duration": 0.19999999999998863
                },
                {
                    "name": "A#4",
                    "midi": 70,
                    "time": 187.29999999999995,
                    "velocity": 0.15748031496062992,
                    "duration": 0.19999999999998863
                },
                {
                    "name": "F5",
                    "midi": 77,
                    "time": 187.49999999999994,
                    "velocity": 0.1968503937007874,
                    "duration": 0.19999999999998863
                },
                {
                    "name": "D5",
                    "midi": 74,
                    "time": 187.49999999999994,
                    "velocity": 0.16535433070866143,
                    "duration": 0.19999999999998863
                },
                {
                    "name": "D6",
                    "midi": 86,
                    "time": 187.69999999999993,
                    "velocity": 0.2047244094488189,
                    "duration": 0.19999999999998863
                },
                {
                    "name": "A#5",
                    "midi": 82,
                    "time": 187.69999999999993,
                    "velocity": 0.1732283464566929,
                    "duration": 0.19999999999998863
                },
                {
                    "name": "D6",
                    "midi": 86,
                    "time": 187.89999999999992,
                    "velocity": 0.1732283464566929,
                    "duration": 0.19999999999998863
                },
                {
                    "name": "F6",
                    "midi": 89,
                    "time": 187.89999999999992,
                    "velocity": 0.2125984251968504,
                    "duration": 0.19999999999998863
                },
                {
                    "name": "A#6",
                    "midi": 94,
                    "time": 188.0999999999999,
                    "velocity": 0.18110236220472442,
                    "duration": 0.19999999999998863
                },
                {
                    "name": "D7",
                    "midi": 98,
                    "time": 188.0999999999999,
                    "velocity": 0.2204724409448819,
                    "duration": 0.19999999999998863
                },
                {
                    "name": "F6",
                    "midi": 89,
                    "time": 188.2999999999999,
                    "velocity": 0.2283464566929134,
                    "duration": 0.19999999999998863
                },
                {
                    "name": "D6",
                    "midi": 86,
                    "time": 188.2999999999999,
                    "velocity": 0.1889763779527559,
                    "duration": 0.19999999999998863
                },
                {
                    "name": "D6",
                    "midi": 86,
                    "time": 188.4999999999999,
                    "velocity": 0.2204724409448819,
                    "duration": 0.19999999999998863
                },
                {
                    "name": "A#5",
                    "midi": 82,
                    "time": 188.4999999999999,
                    "velocity": 0.18110236220472442,
                    "duration": 0.19999999999998863
                },
                {
                    "name": "D5",
                    "midi": 74,
                    "time": 188.69999999999987,
                    "velocity": 0.1732283464566929,
                    "duration": 0.19999999999998863
                },
                {
                    "name": "F5",
                    "midi": 77,
                    "time": 188.69999999999987,
                    "velocity": 0.2125984251968504,
                    "duration": 0.19999999999998863
                },
                {
                    "name": "D5",
                    "midi": 74,
                    "time": 188.89999999999986,
                    "velocity": 0.1968503937007874,
                    "duration": 0.19999999999998863
                },
                {
                    "name": "A#4",
                    "midi": 70,
                    "time": 188.89999999999986,
                    "velocity": 0.16535433070866143,
                    "duration": 0.19999999999998863
                },
                {
                    "name": "F4",
                    "midi": 65,
                    "time": 189.09999999999985,
                    "velocity": 0.1889763779527559,
                    "duration": 0.07499999999998863
                },
                {
                    "name": "D4",
                    "midi": 62,
                    "time": 189.09999999999985,
                    "velocity": 0.15748031496062992,
                    "duration": 0.07499999999998863
                },
                {
                    "name": "D#4",
                    "midi": 63,
                    "time": 189.49999999999983,
                    "velocity": 0.15748031496062992,
                    "duration": 0.19999999999998863
                },
                {
                    "name": "F#4",
                    "midi": 66,
                    "time": 189.49999999999983,
                    "velocity": 0.1889763779527559,
                    "duration": 0.19999999999998863
                },
                {
                    "name": "D#5",
                    "midi": 75,
                    "time": 189.69999999999982,
                    "velocity": 0.1889763779527559,
                    "duration": 0.19999999999998863
                },
                {
                    "name": "C5",
                    "midi": 72,
                    "time": 189.69999999999982,
                    "velocity": 0.15748031496062992,
                    "duration": 0.19999999999998863
                },
                {
                    "name": "F#5",
                    "midi": 78,
                    "time": 189.8999999999998,
                    "velocity": 0.1968503937007874,
                    "duration": 0.19999999999998863
                },
                {
                    "name": "D#5",
                    "midi": 75,
                    "time": 189.8999999999998,
                    "velocity": 0.16535433070866143,
                    "duration": 0.19999999999998863
                },
                {
                    "name": "C6",
                    "midi": 84,
                    "time": 190.0999999999998,
                    "velocity": 0.1732283464566929,
                    "duration": 0.19999999999998863
                },
                {
                    "name": "D#6",
                    "midi": 87,
                    "time": 190.0999999999998,
                    "velocity": 0.2047244094488189,
                    "duration": 0.19999999999998863
                },
                {
                    "name": "D#6",
                    "midi": 87,
                    "time": 190.29999999999978,
                    "velocity": 0.1732283464566929,
                    "duration": 0.19999999999998863
                },
                {
                    "name": "F#6",
                    "midi": 90,
                    "time": 190.29999999999978,
                    "velocity": 0.2125984251968504,
                    "duration": 0.19999999999998863
                },
                {
                    "name": "D#7",
                    "midi": 99,
                    "time": 190.49999999999977,
                    "velocity": 0.2204724409448819,
                    "duration": 0.19999999999998863
                },
                {
                    "name": "C7",
                    "midi": 96,
                    "time": 190.49999999999977,
                    "velocity": 0.18110236220472442,
                    "duration": 0.19999999999998863
                },
                {
                    "name": "D#6",
                    "midi": 87,
                    "time": 190.69999999999976,
                    "velocity": 0.1889763779527559,
                    "duration": 0.19999999999998863
                },
                {
                    "name": "F#6",
                    "midi": 90,
                    "time": 190.69999999999976,
                    "velocity": 0.2283464566929134,
                    "duration": 0.19999999999998863
                },
                {
                    "name": "D#6",
                    "midi": 87,
                    "time": 190.89999999999975,
                    "velocity": 0.2204724409448819,
                    "duration": 0.19999999999998863
                },
                {
                    "name": "C6",
                    "midi": 84,
                    "time": 190.89999999999975,
                    "velocity": 0.18110236220472442,
                    "duration": 0.19999999999998863
                },
                {
                    "name": "D#5",
                    "midi": 75,
                    "time": 191.09999999999974,
                    "velocity": 0.1732283464566929,
                    "duration": 0.19999999999998863
                },
                {
                    "name": "F#5",
                    "midi": 78,
                    "time": 191.09999999999974,
                    "velocity": 0.2125984251968504,
                    "duration": 0.19999999999998863
                },
                {
                    "name": "D#5",
                    "midi": 75,
                    "time": 191.29999999999973,
                    "velocity": 0.1968503937007874,
                    "duration": 0.19999999999998863
                },
                {
                    "name": "C5",
                    "midi": 72,
                    "time": 191.29999999999973,
                    "velocity": 0.16535433070866143,
                    "duration": 0.19999999999998863
                },
                {
                    "name": "F#4",
                    "midi": 66,
                    "time": 191.49999999999972,
                    "velocity": 0.1889763779527559,
                    "duration": 0.07499999999998863
                },
                {
                    "name": "D#4",
                    "midi": 63,
                    "time": 191.49999999999972,
                    "velocity": 0.15748031496062992,
                    "duration": 0.07499999999998863
                },
                {
                    "name": "F4",
                    "midi": 65,
                    "time": 191.8999999999997,
                    "velocity": 0.1889763779527559,
                    "duration": 0.19999999999998863
                },
                {
                    "name": "D4",
                    "midi": 62,
                    "time": 191.8999999999997,
                    "velocity": 0.15748031496062992,
                    "duration": 0.19999999999998863
                },
                {
                    "name": "A#4",
                    "midi": 70,
                    "time": 192.09999999999968,
                    "velocity": 0.15748031496062992,
                    "duration": 0.19999999999998863
                },
                {
                    "name": "D5",
                    "midi": 74,
                    "time": 192.09999999999968,
                    "velocity": 0.1889763779527559,
                    "duration": 0.19999999999998863
                },
                {
                    "name": "F5",
                    "midi": 77,
                    "time": 192.29999999999967,
                    "velocity": 0.1968503937007874,
                    "duration": 0.19999999999998863
                },
                {
                    "name": "D5",
                    "midi": 74,
                    "time": 192.29999999999967,
                    "velocity": 0.16535433070866143,
                    "duration": 0.19999999999998863
                },
                {
                    "name": "D6",
                    "midi": 86,
                    "time": 192.49999999999966,
                    "velocity": 0.2047244094488189,
                    "duration": 0.19999999999998863
                },
                {
                    "name": "A#5",
                    "midi": 82,
                    "time": 192.49999999999966,
                    "velocity": 0.1732283464566929,
                    "duration": 0.19999999999998863
                },
                {
                    "name": "D6",
                    "midi": 86,
                    "time": 192.69999999999965,
                    "velocity": 0.1732283464566929,
                    "duration": 0.19999999999998863
                },
                {
                    "name": "F6",
                    "midi": 89,
                    "time": 192.69999999999965,
                    "velocity": 0.2125984251968504,
                    "duration": 0.19999999999998863
                },
                {
                    "name": "D7",
                    "midi": 98,
                    "time": 192.89999999999964,
                    "velocity": 0.2204724409448819,
                    "duration": 0.19999999999998863
                },
                {
                    "name": "A#6",
                    "midi": 94,
                    "time": 192.89999999999964,
                    "velocity": 0.18110236220472442,
                    "duration": 0.19999999999998863
                },
                {
                    "name": "D6",
                    "midi": 86,
                    "time": 193.09999999999962,
                    "velocity": 0.1889763779527559,
                    "duration": 0.19999999999998863
                },
                {
                    "name": "F6",
                    "midi": 89,
                    "time": 193.09999999999962,
                    "velocity": 0.2283464566929134,
                    "duration": 0.19999999999998863
                },
                {
                    "name": "A#5",
                    "midi": 82,
                    "time": 193.2999999999996,
                    "velocity": 0.18110236220472442,
                    "duration": 0.19999999999998863
                },
                {
                    "name": "D6",
                    "midi": 86,
                    "time": 193.2999999999996,
                    "velocity": 0.2204724409448819,
                    "duration": 0.19999999999998863
                },
                {
                    "name": "D5",
                    "midi": 74,
                    "time": 193.4999999999996,
                    "velocity": 0.1732283464566929,
                    "duration": 0.19999999999998863
                },
                {
                    "name": "F5",
                    "midi": 77,
                    "time": 193.4999999999996,
                    "velocity": 0.2125984251968504,
                    "duration": 0.19999999999998863
                },
                {
                    "name": "D5",
                    "midi": 74,
                    "time": 193.6999999999996,
                    "velocity": 0.1968503937007874,
                    "duration": 0.19999999999998863
                },
                {
                    "name": "A#4",
                    "midi": 70,
                    "time": 193.6999999999996,
                    "velocity": 0.16535433070866143,
                    "duration": 0.19999999999998863
                },
                {
                    "name": "D4",
                    "midi": 62,
                    "time": 193.89999999999958,
                    "velocity": 0.15748031496062992,
                    "duration": 0.07499999999998863
                },
                {
                    "name": "F4",
                    "midi": 65,
                    "time": 193.89999999999958,
                    "velocity": 0.1889763779527559,
                    "duration": 0.07499999999998863
                },
                {
                    "name": "D4",
                    "midi": 62,
                    "time": 194.29999999999956,
                    "velocity": 0.15748031496062992,
                    "duration": 0.5999999999999659
                },
                {
                    "name": "G4",
                    "midi": 67,
                    "time": 194.29999999999956,
                    "velocity": 0.1889763779527559,
                    "duration": 0.19999999999998863
                },
                {
                    "name": "D5",
                    "midi": 74,
                    "time": 194.49999999999955,
                    "velocity": 0.1889763779527559,
                    "duration": 0.19999999999998863
                },
                {
                    "name": "A#4",
                    "midi": 70,
                    "time": 194.49999999999955,
                    "velocity": 0.15748031496062992,
                    "duration": 0.19999999999998863
                },
                {
                    "name": "D5",
                    "midi": 74,
                    "time": 194.69999999999953,
                    "velocity": 0.16535433070866143,
                    "duration": 0.19999999999998863
                },
                {
                    "name": "G5",
                    "midi": 79,
                    "time": 194.69999999999953,
                    "velocity": 0.1968503937007874,
                    "duration": 0.19999999999998863
                },
                {
                    "name": "A#5",
                    "midi": 82,
                    "time": 194.89999999999952,
                    "velocity": 0.1732283464566929,
                    "duration": 0.19999999999998863
                },
                {
                    "name": "D6",
                    "midi": 86,
                    "time": 194.89999999999952,
                    "velocity": 0.2047244094488189,
                    "duration": 0.19999999999998863
                },
                {
                    "name": "G6",
                    "midi": 91,
                    "time": 195.0999999999995,
                    "velocity": 0.2125984251968504,
                    "duration": 0.19999999999998863
                },
                {
                    "name": "D6",
                    "midi": 86,
                    "time": 195.0999999999995,
                    "velocity": 0.1732283464566929,
                    "duration": 0.19999999999998863
                },
                {
                    "name": "A#6",
                    "midi": 94,
                    "time": 195.2999999999995,
                    "velocity": 0.18110236220472442,
                    "duration": 0.19999999999998863
                },
                {
                    "name": "D7",
                    "midi": 98,
                    "time": 195.2999999999995,
                    "velocity": 0.2204724409448819,
                    "duration": 0.19999999999998863
                },
                {
                    "name": "D6",
                    "midi": 86,
                    "time": 195.4999999999995,
                    "velocity": 0.1889763779527559,
                    "duration": 0.19999999999998863
                },
                {
                    "name": "G6",
                    "midi": 91,
                    "time": 195.4999999999995,
                    "velocity": 0.2283464566929134,
                    "duration": 0.19999999999998863
                },
                {
                    "name": "A#5",
                    "midi": 82,
                    "time": 195.69999999999948,
                    "velocity": 0.18110236220472442,
                    "duration": 0.19999999999998863
                },
                {
                    "name": "D6",
                    "midi": 86,
                    "time": 195.69999999999948,
                    "velocity": 0.2204724409448819,
                    "duration": 0.19999999999998863
                },
                {
                    "name": "G5",
                    "midi": 79,
                    "time": 195.89999999999947,
                    "velocity": 0.2125984251968504,
                    "duration": 0.19999999999998863
                },
                {
                    "name": "D5",
                    "midi": 74,
                    "time": 195.89999999999947,
                    "velocity": 0.1732283464566929,
                    "duration": 0.19999999999998863
                },
                {
                    "name": "D5",
                    "midi": 74,
                    "time": 196.09999999999945,
                    "velocity": 0.1968503937007874,
                    "duration": 0.19999999999998863
                },
                {
                    "name": "A#4",
                    "midi": 70,
                    "time": 196.09999999999945,
                    "velocity": 0.16535433070866143,
                    "duration": 0.19999999999998863
                },
                {
                    "name": "G4",
                    "midi": 67,
                    "time": 196.29999999999944,
                    "velocity": 0.1889763779527559,
                    "duration": 0.19999999999998863
                },
                {
                    "name": "D4",
                    "midi": 62,
                    "time": 196.29999999999944,
                    "velocity": 0.15748031496062992,
                    "duration": 0.19999999999998863
                },
                {
                    "name": "D4",
                    "midi": 62,
                    "time": 196.69999999999942,
                    "velocity": 0.15748031496062992,
                    "duration": 0.19999999999998863
                },
                {
                    "name": "G4",
                    "midi": 67,
                    "time": 196.69999999999942,
                    "velocity": 0.1889763779527559,
                    "duration": 0.19999999999998863
                },
                {
                    "name": "A#4",
                    "midi": 70,
                    "time": 196.8999999999994,
                    "velocity": 0.15748031496062992,
                    "duration": 0.19999999999998863
                },
                {
                    "name": "D5",
                    "midi": 74,
                    "time": 196.8999999999994,
                    "velocity": 0.1889763779527559,
                    "duration": 0.19999999999998863
                },
                {
                    "name": "D5",
                    "midi": 74,
                    "time": 197.0999999999994,
                    "velocity": 0.16535433070866143,
                    "duration": 0.19999999999998863
                },
                {
                    "name": "G5",
                    "midi": 79,
                    "time": 197.0999999999994,
                    "velocity": 0.1968503937007874,
                    "duration": 0.19999999999998863
                },
                {
                    "name": "D6",
                    "midi": 86,
                    "time": 197.2999999999994,
                    "velocity": 0.2047244094488189,
                    "duration": 0.19999999999998863
                },
                {
                    "name": "A#5",
                    "midi": 82,
                    "time": 197.2999999999994,
                    "velocity": 0.1732283464566929,
                    "duration": 0.19999999999998863
                },
                {
                    "name": "D6",
                    "midi": 86,
                    "time": 197.49999999999937,
                    "velocity": 0.1732283464566929,
                    "duration": 0.19999999999998863
                },
                {
                    "name": "G6",
                    "midi": 91,
                    "time": 197.49999999999937,
                    "velocity": 0.2125984251968504,
                    "duration": 0.19999999999998863
                },
                {
                    "name": "A#6",
                    "midi": 94,
                    "time": 197.69999999999936,
                    "velocity": 0.18110236220472442,
                    "duration": 0.19999999999998863
                },
                {
                    "name": "D7",
                    "midi": 98,
                    "time": 197.69999999999936,
                    "velocity": 0.2204724409448819,
                    "duration": 0.19999999999998863
                },
                {
                    "name": "G6",
                    "midi": 91,
                    "time": 197.89999999999935,
                    "velocity": 0.2283464566929134,
                    "duration": 0.19999999999998863
                },
                {
                    "name": "D6",
                    "midi": 86,
                    "time": 197.89999999999935,
                    "velocity": 0.1889763779527559,
                    "duration": 0.19999999999998863
                },
                {
                    "name": "A#5",
                    "midi": 82,
                    "time": 198.09999999999934,
                    "velocity": 0.18110236220472442,
                    "duration": 0.19999999999998863
                },
                {
                    "name": "D6",
                    "midi": 86,
                    "time": 198.09999999999934,
                    "velocity": 0.2204724409448819,
                    "duration": 0.19999999999998863
                },
                {
                    "name": "G5",
                    "midi": 79,
                    "time": 198.29999999999933,
                    "velocity": 0.2125984251968504,
                    "duration": 0.19999999999998863
                },
                {
                    "name": "D5",
                    "midi": 74,
                    "time": 198.29999999999933,
                    "velocity": 0.1732283464566929,
                    "duration": 0.19999999999998863
                },
                {
                    "name": "D5",
                    "midi": 74,
                    "time": 198.49999999999932,
                    "velocity": 0.1968503937007874,
                    "duration": 0.19999999999998863
                },
                {
                    "name": "A#4",
                    "midi": 70,
                    "time": 198.49999999999932,
                    "velocity": 0.16535433070866143,
                    "duration": 0.19999999999998863
                },
                {
                    "name": "G4",
                    "midi": 67,
                    "time": 198.6999999999993,
                    "velocity": 0.1889763779527559,
                    "duration": 0.19999999999998863
                },
                {
                    "name": "D4",
                    "midi": 62,
                    "time": 198.6999999999993,
                    "velocity": 0.15748031496062992,
                    "duration": 0.19999999999998863
                },
                {
                    "name": "G4",
                    "midi": 67,
                    "time": 199.09999999999928,
                    "velocity": 0.1889763779527559,
                    "duration": 0.19999999999998863
                },
                {
                    "name": "E4",
                    "midi": 64,
                    "time": 199.09999999999928,
                    "velocity": 0.15748031496062992,
                    "duration": 0.19999999999998863
                },
                {
                    "name": "E5",
                    "midi": 76,
                    "time": 199.29999999999927,
                    "velocity": 0.1889763779527559,
                    "duration": 0.19999999999998863
                },
                {
                    "name": "A#4",
                    "midi": 70,
                    "time": 199.29999999999927,
                    "velocity": 0.15748031496062992,
                    "duration": 0.19999999999998863
                },
                {
                    "name": "E5",
                    "midi": 76,
                    "time": 199.49999999999926,
                    "velocity": 0.16535433070866143,
                    "duration": 0.19999999999998863
                },
                {
                    "name": "G5",
                    "midi": 79,
                    "time": 199.49999999999926,
                    "velocity": 0.1968503937007874,
                    "duration": 0.19999999999998863
                },
                {
                    "name": "E6",
                    "midi": 88,
                    "time": 199.69999999999925,
                    "velocity": 0.2047244094488189,
                    "duration": 0.19999999999998863
                },
                {
                    "name": "A#5",
                    "midi": 82,
                    "time": 199.69999999999925,
                    "velocity": 0.1732283464566929,
                    "duration": 0.19999999999998863
                },
                {
                    "name": "G6",
                    "midi": 91,
                    "time": 199.89999999999924,
                    "velocity": 0.2125984251968504,
                    "duration": 0.19999999999998863
                },
                {
                    "name": "E6",
                    "midi": 88,
                    "time": 199.89999999999924,
                    "velocity": 0.1732283464566929,
                    "duration": 0.19999999999998863
                },
                {
                    "name": "A#6",
                    "midi": 94,
                    "time": 200.09999999999923,
                    "velocity": 0.18110236220472442,
                    "duration": 0.19999999999998863
                },
                {
                    "name": "E7",
                    "midi": 100,
                    "time": 200.09999999999923,
                    "velocity": 0.2204724409448819,
                    "duration": 0.19999999999998863
                },
                {
                    "name": "E6",
                    "midi": 88,
                    "time": 200.29999999999922,
                    "velocity": 0.1889763779527559,
                    "duration": 0.19999999999998863
                },
                {
                    "name": "G6",
                    "midi": 91,
                    "time": 200.29999999999922,
                    "velocity": 0.2283464566929134,
                    "duration": 0.19999999999998863
                },
                {
                    "name": "A#5",
                    "midi": 82,
                    "time": 200.4999999999992,
                    "velocity": 0.18110236220472442,
                    "duration": 0.19999999999998863
                },
                {
                    "name": "E6",
                    "midi": 88,
                    "time": 200.4999999999992,
                    "velocity": 0.2204724409448819,
                    "duration": 0.19999999999998863
                },
                {
                    "name": "G5",
                    "midi": 79,
                    "time": 200.6999999999992,
                    "velocity": 0.2125984251968504,
                    "duration": 0.19999999999998863
                },
                {
                    "name": "E5",
                    "midi": 76,
                    "time": 200.6999999999992,
                    "velocity": 0.1732283464566929,
                    "duration": 0.19999999999998863
                },
                {
                    "name": "E5",
                    "midi": 76,
                    "time": 200.89999999999918,
                    "velocity": 0.1968503937007874,
                    "duration": 0.19999999999998863
                },
                {
                    "name": "A#4",
                    "midi": 70,
                    "time": 200.89999999999918,
                    "velocity": 0.16535433070866143,
                    "duration": 0.19999999999998863
                },
                {
                    "name": "G4",
                    "midi": 67,
                    "time": 201.09999999999917,
                    "velocity": 0.1889763779527559,
                    "duration": 0.19999999999998863
                },
                {
                    "name": "F4",
                    "midi": 65,
                    "time": 201.49999999999915,
                    "velocity": 0.15748031496062992,
                    "duration": 1.1999999999999318
                },
                {
                    "name": "A4",
                    "midi": 69,
                    "time": 201.49999999999915,
                    "velocity": 0.1889763779527559,
                    "duration": 0.19999999999998863
                },
                {
                    "name": "C5",
                    "midi": 72,
                    "time": 201.69999999999914,
                    "velocity": 0.15748031496062992,
                    "duration": 0.19999999999998863
                },
                {
                    "name": "F5",
                    "midi": 77,
                    "time": 201.69999999999914,
                    "velocity": 0.1889763779527559,
                    "duration": 0.19999999999998863
                },
                {
                    "name": "A5",
                    "midi": 81,
                    "time": 201.89999999999912,
                    "velocity": 0.1968503937007874,
                    "duration": 0.19999999999998863
                },
                {
                    "name": "F5",
                    "midi": 77,
                    "time": 201.89999999999912,
                    "velocity": 0.16535433070866143,
                    "duration": 0.19999999999998863
                },
                {
                    "name": "F6",
                    "midi": 89,
                    "time": 202.0999999999991,
                    "velocity": 0.2047244094488189,
                    "duration": 0.19999999999998863
                },
                {
                    "name": "C6",
                    "midi": 84,
                    "time": 202.0999999999991,
                    "velocity": 0.1732283464566929,
                    "duration": 0.19999999999998863
                },
                {
                    "name": "F6",
                    "midi": 89,
                    "time": 202.2999999999991,
                    "velocity": 0.1732283464566929,
                    "duration": 0.19999999999998863
                },
                {
                    "name": "A6",
                    "midi": 93,
                    "time": 202.2999999999991,
                    "velocity": 0.2125984251968504,
                    "duration": 0.19999999999998863
                },
                {
                    "name": "C7",
                    "midi": 96,
                    "time": 202.4999999999991,
                    "velocity": 0.18110236220472442,
                    "duration": 0.19999999999998863
                },
                {
                    "name": "F7",
                    "midi": 101,
                    "time": 202.4999999999991,
                    "velocity": 0.2204724409448819,
                    "duration": 0.19999999999998863
                },
                {
                    "name": "F6",
                    "midi": 89,
                    "time": 202.69999999999908,
                    "velocity": 0.1889763779527559,
                    "duration": 0.19999999999998863
                },
                {
                    "name": "A6",
                    "midi": 93,
                    "time": 202.69999999999908,
                    "velocity": 0.2283464566929134,
                    "duration": 0.19999999999998863
                },
                {
                    "name": "C6",
                    "midi": 84,
                    "time": 202.89999999999907,
                    "velocity": 0.18110236220472442,
                    "duration": 0.19999999999998863
                },
                {
                    "name": "F6",
                    "midi": 89,
                    "time": 202.89999999999907,
                    "velocity": 0.2204724409448819,
                    "duration": 0.19999999999998863
                },
                {
                    "name": "A5",
                    "midi": 81,
                    "time": 203.09999999999906,
                    "velocity": 0.2125984251968504,
                    "duration": 0.19999999999998863
                },
                {
                    "name": "F5",
                    "midi": 77,
                    "time": 203.09999999999906,
                    "velocity": 0.1732283464566929,
                    "duration": 0.19999999999998863
                },
                {
                    "name": "F5",
                    "midi": 77,
                    "time": 203.29999999999905,
                    "velocity": 0.1968503937007874,
                    "duration": 0.19999999999998863
                },
                {
                    "name": "C5",
                    "midi": 72,
                    "time": 203.29999999999905,
                    "velocity": 0.16535433070866143,
                    "duration": 0.19999999999998863
                },
                {
                    "name": "F4",
                    "midi": 65,
                    "time": 203.49999999999903,
                    "velocity": 0.16535433070866143,
                    "duration": 0.19999999999998863
                },
                {
                    "name": "A4",
                    "midi": 69,
                    "time": 203.49999999999903,
                    "velocity": 0.1889763779527559,
                    "duration": 0.19999999999998863
                },
                {
                    "name": "F4",
                    "midi": 65,
                    "time": 203.899999999999,
                    "velocity": 0.15748031496062992,
                    "duration": 0.5999999999999659
                },
                {
                    "name": "G#4",
                    "midi": 68,
                    "time": 203.899999999999,
                    "velocity": 0.1889763779527559,
                    "duration": 0.19999999999998863
                },
                {
                    "name": "C#5",
                    "midi": 73,
                    "time": 204.099999999999,
                    "velocity": 0.15748031496062992,
                    "duration": 0.19999999999998863
                },
                {
                    "name": "F5",
                    "midi": 77,
                    "time": 204.099999999999,
                    "velocity": 0.1889763779527559,
                    "duration": 0.19999999999998863
                },
                {
                    "name": "G#5",
                    "midi": 80,
                    "time": 204.299999999999,
                    "velocity": 0.1968503937007874,
                    "duration": 0.19999999999998863
                },
                {
                    "name": "F5",
                    "midi": 77,
                    "time": 204.299999999999,
                    "velocity": 0.16535433070866143,
                    "duration": 0.19999999999998863
                },
                {
                    "name": "C#6",
                    "midi": 85,
                    "time": 204.49999999999898,
                    "velocity": 0.1732283464566929,
                    "duration": 0.19999999999998863
                },
                {
                    "name": "F6",
                    "midi": 89,
                    "time": 204.49999999999898,
                    "velocity": 0.2047244094488189,
                    "duration": 0.19999999999998863
                },
                {
                    "name": "F6",
                    "midi": 89,
                    "time": 204.69999999999897,
                    "velocity": 0.1732283464566929,
                    "duration": 0.19999999999998863
                },
                {
                    "name": "G#6",
                    "midi": 92,
                    "time": 204.69999999999897,
                    "velocity": 0.2125984251968504,
                    "duration": 0.19999999999998863
                },
                {
                    "name": "C#7",
                    "midi": 97,
                    "time": 204.89999999999895,
                    "velocity": 0.18110236220472442,
                    "duration": 0.19999999999998863
                },
                {
                    "name": "F7",
                    "midi": 101,
                    "time": 204.89999999999895,
                    "velocity": 0.2204724409448819,
                    "duration": 0.19999999999998863
                },
                {
                    "name": "G#6",
                    "midi": 92,
                    "time": 205.09999999999894,
                    "velocity": 0.2283464566929134,
                    "duration": 0.19999999999998863
                },
                {
                    "name": "F6",
                    "midi": 89,
                    "time": 205.09999999999894,
                    "velocity": 0.1889763779527559,
                    "duration": 0.19999999999998863
                },
                {
                    "name": "F6",
                    "midi": 89,
                    "time": 205.29999999999893,
                    "velocity": 0.2204724409448819,
                    "duration": 0.19999999999998863
                },
                {
                    "name": "C#6",
                    "midi": 85,
                    "time": 205.29999999999893,
                    "velocity": 0.18110236220472442,
                    "duration": 0.19999999999998863
                },
                {
                    "name": "G#5",
                    "midi": 80,
                    "time": 205.49999999999892,
                    "velocity": 0.2125984251968504,
                    "duration": 0.19999999999998863
                },
                {
                    "name": "F5",
                    "midi": 77,
                    "time": 205.49999999999892,
                    "velocity": 0.1732283464566929,
                    "duration": 0.19999999999998863
                },
                {
                    "name": "F5",
                    "midi": 77,
                    "time": 205.6999999999989,
                    "velocity": 0.1968503937007874,
                    "duration": 0.19999999999998863
                },
                {
                    "name": "C#5",
                    "midi": 73,
                    "time": 205.6999999999989,
                    "velocity": 0.16535433070866143,
                    "duration": 0.19999999999998863
                },
                {
                    "name": "G#4",
                    "midi": 68,
                    "time": 205.8999999999989,
                    "velocity": 0.1889763779527559,
                    "duration": 0.07499999999998863
                },
                {
                    "name": "G#4",
                    "midi": 68,
                    "time": 206.29999999999887,
                    "velocity": 0.1889763779527559,
                    "duration": 0.5999999999999659
                },
                {
                    "name": "D#4",
                    "midi": 63,
                    "time": 206.29999999999887,
                    "velocity": 0.15748031496062992,
                    "duration": 0.19999999999998863
                },
                {
                    "name": "C#5",
                    "midi": 73,
                    "time": 206.49999999999886,
                    "velocity": 0.15748031496062992,
                    "duration": 0.19999999999998863
                },
                {
                    "name": "D#5",
                    "midi": 75,
                    "time": 206.49999999999886,
                    "velocity": 0.1889763779527559,
                    "duration": 0.19999999999998863
                },
                {
                    "name": "D#5",
                    "midi": 75,
                    "time": 206.69999999999885,
                    "velocity": 0.16535433070866143,
                    "duration": 0.19999999999998863
                },
                {
                    "name": "G#5",
                    "midi": 80,
                    "time": 206.69999999999885,
                    "velocity": 0.1968503937007874,
                    "duration": 0.19999999999998863
                },
                {
                    "name": "C#6",
                    "midi": 85,
                    "time": 206.89999999999884,
                    "velocity": 0.1732283464566929,
                    "duration": 0.19999999999998863
                },
                {
                    "name": "D#6",
                    "midi": 87,
                    "time": 206.89999999999884,
                    "velocity": 0.2047244094488189,
                    "duration": 0.19999999999998863
                },
                {
                    "name": "D#6",
                    "midi": 87,
                    "time": 207.09999999999883,
                    "velocity": 0.1732283464566929,
                    "duration": 0.19999999999998863
                },
                {
                    "name": "G#6",
                    "midi": 92,
                    "time": 207.09999999999883,
                    "velocity": 0.2125984251968504,
                    "duration": 0.19999999999998863
                },
                {
                    "name": "C7",
                    "midi": 96,
                    "time": 207.29999999999882,
                    "velocity": 0.18110236220472442,
                    "duration": 0.19999999999998863
                },
                {
                    "name": "D#7",
                    "midi": 99,
                    "time": 207.29999999999882,
                    "velocity": 0.2204724409448819,
                    "duration": 0.19999999999998863
                },
                {
                    "name": "G#6",
                    "midi": 92,
                    "time": 207.4999999999988,
                    "velocity": 0.2283464566929134,
                    "duration": 0.19999999999998863
                },
                {
                    "name": "D#6",
                    "midi": 87,
                    "time": 207.4999999999988,
                    "velocity": 0.1889763779527559,
                    "duration": 0.19999999999998863
                },
                {
                    "name": "D#6",
                    "midi": 87,
                    "time": 207.6999999999988,
                    "velocity": 0.2204724409448819,
                    "duration": 0.19999999999998863
                },
                {
                    "name": "C6",
                    "midi": 84,
                    "time": 207.6999999999988,
                    "velocity": 0.18110236220472442,
                    "duration": 0.19999999999998863
                },
                {
                    "name": "D#5",
                    "midi": 75,
                    "time": 207.89999999999878,
                    "velocity": 0.1732283464566929,
                    "duration": 0.19999999999998863
                },
                {
                    "name": "G#5",
                    "midi": 80,
                    "time": 207.89999999999878,
                    "velocity": 0.2125984251968504,
                    "duration": 0.19999999999998863
                },
                {
                    "name": "C5",
                    "midi": 72,
                    "time": 208.09999999999877,
                    "velocity": 0.16535433070866143,
                    "duration": 0.19999999999998863
                },
                {
                    "name": "D#5",
                    "midi": 75,
                    "time": 208.09999999999877,
                    "velocity": 0.1968503937007874,
                    "duration": 0.19999999999998863
                },
                {
                    "name": "D#4",
                    "midi": 63,
                    "time": 208.29999999999876,
                    "velocity": 0.1732283464566929,
                    "duration": 0.07499999999998863
                },
                {
                    "name": "G#4",
                    "midi": 68,
                    "time": 208.29999999999876,
                    "velocity": 0.1889763779527559,
                    "duration": 0.07499999999998863
                },
                {
                    "name": "D#4",
                    "midi": 63,
                    "time": 208.69999999999874,
                    "velocity": 0.15748031496062992,
                    "duration": 0.5999999999999659
                },
                {
                    "name": "G4",
                    "midi": 67,
                    "time": 208.69999999999874,
                    "velocity": 0.1889763779527559,
                    "duration": 0.19999999999998863
                },
                {
                    "name": "D#5",
                    "midi": 75,
                    "time": 208.89999999999873,
                    "velocity": 0.1889763779527559,
                    "duration": 0.19999999999998863
                },
                {
                    "name": "C5",
                    "midi": 72,
                    "time": 208.89999999999873,
                    "velocity": 0.15748031496062992,
                    "duration": 0.19999999999998863
                },
                {
                    "name": "D#5",
                    "midi": 75,
                    "time": 209.09999999999872,
                    "velocity": 0.16535433070866143,
                    "duration": 0.19999999999998863
                },
                {
                    "name": "G5",
                    "midi": 79,
                    "time": 209.09999999999872,
                    "velocity": 0.1968503937007874,
                    "duration": 0.19999999999998863
                },
                {
                    "name": "D#6",
                    "midi": 87,
                    "time": 209.2999999999987,
                    "velocity": 0.2047244094488189,
                    "duration": 0.19999999999998863
                },
                {
                    "name": "C6",
                    "midi": 84,
                    "time": 209.2999999999987,
                    "velocity": 0.1732283464566929,
                    "duration": 0.19999999999998863
                },
                {
                    "name": "D#6",
                    "midi": 87,
                    "time": 209.4999999999987,
                    "velocity": 0.1732283464566929,
                    "duration": 0.19999999999998863
                },
                {
                    "name": "G6",
                    "midi": 91,
                    "time": 209.4999999999987,
                    "velocity": 0.2125984251968504,
                    "duration": 0.19999999999998863
                },
                {
                    "name": "C7",
                    "midi": 96,
                    "time": 209.69999999999868,
                    "velocity": 0.18110236220472442,
                    "duration": 0.19999999999998863
                },
                {
                    "name": "D#7",
                    "midi": 99,
                    "time": 209.69999999999868,
                    "velocity": 0.2204724409448819,
                    "duration": 0.19999999999998863
                },
                {
                    "name": "G6",
                    "midi": 91,
                    "time": 209.89999999999867,
                    "velocity": 0.2283464566929134,
                    "duration": 0.19999999999998863
                },
                {
                    "name": "D#6",
                    "midi": 87,
                    "time": 209.89999999999867,
                    "velocity": 0.1889763779527559,
                    "duration": 0.19999999999998863
                },
                {
                    "name": "D#6",
                    "midi": 87,
                    "time": 210.09999999999866,
                    "velocity": 0.2204724409448819,
                    "duration": 0.19999999999998863
                },
                {
                    "name": "C6",
                    "midi": 84,
                    "time": 210.09999999999866,
                    "velocity": 0.18110236220472442,
                    "duration": 0.19999999999998863
                },
                {
                    "name": "G5",
                    "midi": 79,
                    "time": 210.29999999999865,
                    "velocity": 0.2125984251968504,
                    "duration": 0.19999999999998863
                },
                {
                    "name": "D#5",
                    "midi": 75,
                    "time": 210.29999999999865,
                    "velocity": 0.1732283464566929,
                    "duration": 0.19999999999998863
                },
                {
                    "name": "D#5",
                    "midi": 75,
                    "time": 210.49999999999864,
                    "velocity": 0.1968503937007874,
                    "duration": 0.19999999999998863
                },
                {
                    "name": "C5",
                    "midi": 72,
                    "time": 210.49999999999864,
                    "velocity": 0.16535433070866143,
                    "duration": 0.19999999999998863
                },
                {
                    "name": "G4",
                    "midi": 67,
                    "time": 210.69999999999862,
                    "velocity": 0.1889763779527559,
                    "duration": 0.09999999999999432
                },
                {
                    "name": "G4",
                    "midi": 67,
                    "time": 211.09999999999863,
                    "velocity": 0.1889763779527559,
                    "duration": 0.5999999999999659
                },
                {
                    "name": "D4",
                    "midi": 62,
                    "time": 211.09999999999863,
                    "velocity": 0.15748031496062992,
                    "duration": 0.19999999999998863
                },
                {
                    "name": "D5",
                    "midi": 74,
                    "time": 211.29999999999862,
                    "velocity": 0.1889763779527559,
                    "duration": 0.19999999999998863
                },
                {
                    "name": "C5",
                    "midi": 72,
                    "time": 211.29999999999862,
                    "velocity": 0.15748031496062992,
                    "duration": 0.19999999999998863
                },
                {
                    "name": "G5",
                    "midi": 79,
                    "time": 211.4999999999986,
                    "velocity": 0.1968503937007874,
                    "duration": 0.19999999999998863
                },
                {
                    "name": "D5",
                    "midi": 74,
                    "time": 211.4999999999986,
                    "velocity": 0.16535433070866143,
                    "duration": 0.19999999999998863
                },
                {
                    "name": "C6",
                    "midi": 84,
                    "time": 211.6999999999986,
                    "velocity": 0.1732283464566929,
                    "duration": 0.19999999999998863
                },
                {
                    "name": "D6",
                    "midi": 86,
                    "time": 211.6999999999986,
                    "velocity": 0.2047244094488189,
                    "duration": 0.19999999999998863
                },
                {
                    "name": "G6",
                    "midi": 91,
                    "time": 211.89999999999858,
                    "velocity": 0.2125984251968504,
                    "duration": 0.19999999999998863
                },
                {
                    "name": "D6",
                    "midi": 86,
                    "time": 211.89999999999858,
                    "velocity": 0.1732283464566929,
                    "duration": 0.19999999999998863
                },
                {
                    "name": "B6",
                    "midi": 95,
                    "time": 212.09999999999857,
                    "velocity": 0.18110236220472442,
                    "duration": 0.19999999999998863
                },
                {
                    "name": "D7",
                    "midi": 98,
                    "time": 212.09999999999857,
                    "velocity": 0.2204724409448819,
                    "duration": 0.19999999999998863
                },
                {
                    "name": "G6",
                    "midi": 91,
                    "time": 212.29999999999856,
                    "velocity": 0.2283464566929134,
                    "duration": 0.19999999999998863
                },
                {
                    "name": "D6",
                    "midi": 86,
                    "time": 212.29999999999856,
                    "velocity": 0.1889763779527559,
                    "duration": 0.19999999999998863
                },
                {
                    "name": "B5",
                    "midi": 83,
                    "time": 212.49999999999855,
                    "velocity": 0.18110236220472442,
                    "duration": 0.19999999999998863
                },
                {
                    "name": "D6",
                    "midi": 86,
                    "time": 212.49999999999855,
                    "velocity": 0.2204724409448819,
                    "duration": 0.19999999999998863
                },
                {
                    "name": "D5",
                    "midi": 74,
                    "time": 212.69999999999854,
                    "velocity": 0.1732283464566929,
                    "duration": 0.19999999999998863
                },
                {
                    "name": "G5",
                    "midi": 79,
                    "time": 212.69999999999854,
                    "velocity": 0.2125984251968504,
                    "duration": 0.19999999999998863
                },
                {
                    "name": "D5",
                    "midi": 74,
                    "time": 212.89999999999853,
                    "velocity": 0.1968503937007874,
                    "duration": 0.19999999999998863
                },
                {
                    "name": "B4",
                    "midi": 71,
                    "time": 212.89999999999853,
                    "velocity": 0.16535433070866143,
                    "duration": 0.19999999999998863
                },
                {
                    "name": "D4",
                    "midi": 62,
                    "time": 213.09999999999852,
                    "velocity": 0.15748031496062992,
                    "duration": 0.07499999999998863
                },
                {
                    "name": "G4",
                    "midi": 67,
                    "time": 213.09999999999852,
                    "velocity": 0.1889763779527559,
                    "duration": 0.07499999999998863
                },
                {
                    "name": "D4",
                    "midi": 62,
                    "time": 213.4999999999985,
                    "velocity": 0.15748031496062992,
                    "duration": 0.5999999999999659
                },
                {
                    "name": "F4",
                    "midi": 65,
                    "time": 213.4999999999985,
                    "velocity": 0.1889763779527559,
                    "duration": 0.19999999999998863
                },
                {
                    "name": "A#4",
                    "midi": 70,
                    "time": 213.69999999999848,
                    "velocity": 0.15748031496062992,
                    "duration": 0.19999999999998863
                },
                {
                    "name": "D5",
                    "midi": 74,
                    "time": 213.69999999999848,
                    "velocity": 0.1889763779527559,
                    "duration": 0.19999999999998863
                },
                {
                    "name": "F5",
                    "midi": 77,
                    "time": 213.89999999999847,
                    "velocity": 0.1968503937007874,
                    "duration": 0.19999999999998863
                },
                {
                    "name": "D5",
                    "midi": 74,
                    "time": 213.89999999999847,
                    "velocity": 0.16535433070866143,
                    "duration": 0.19999999999998863
                },
                {
                    "name": "A#5",
                    "midi": 82,
                    "time": 214.09999999999846,
                    "velocity": 0.1732283464566929,
                    "duration": 0.19999999999998863
                },
                {
                    "name": "D6",
                    "midi": 86,
                    "time": 214.09999999999846,
                    "velocity": 0.2047244094488189,
                    "duration": 0.19999999999998863
                },
                {
                    "name": "D6",
                    "midi": 86,
                    "time": 214.29999999999845,
                    "velocity": 0.1732283464566929,
                    "duration": 0.19999999999998863
                },
                {
                    "name": "F6",
                    "midi": 89,
                    "time": 214.29999999999845,
                    "velocity": 0.2125984251968504,
                    "duration": 0.19999999999998863
                },
                {
                    "name": "A#6",
                    "midi": 94,
                    "time": 214.49999999999844,
                    "velocity": 0.18110236220472442,
                    "duration": 0.19999999999998863
                },
                {
                    "name": "D7",
                    "midi": 98,
                    "time": 214.49999999999844,
                    "velocity": 0.2204724409448819,
                    "duration": 0.19999999999998863
                },
                {
                    "name": "D6",
                    "midi": 86,
                    "time": 214.69999999999843,
                    "velocity": 0.1889763779527559,
                    "duration": 0.19999999999998863
                },
                {
                    "name": "F6",
                    "midi": 89,
                    "time": 214.69999999999843,
                    "velocity": 0.2283464566929134,
                    "duration": 0.19999999999998863
                },
                {
                    "name": "A#5",
                    "midi": 82,
                    "time": 214.8999999999984,
                    "velocity": 0.18110236220472442,
                    "duration": 0.19999999999998863
                },
                {
                    "name": "D6",
                    "midi": 86,
                    "time": 214.8999999999984,
                    "velocity": 0.2204724409448819,
                    "duration": 0.19999999999998863
                },
                {
                    "name": "F5",
                    "midi": 77,
                    "time": 215.0999999999984,
                    "velocity": 0.2125984251968504,
                    "duration": 0.19999999999998863
                },
                {
                    "name": "D5",
                    "midi": 74,
                    "time": 215.0999999999984,
                    "velocity": 0.1732283464566929,
                    "duration": 0.19999999999998863
                },
                {
                    "name": "D5",
                    "midi": 74,
                    "time": 215.2999999999984,
                    "velocity": 0.1968503937007874,
                    "duration": 0.19999999999998863
                },
                {
                    "name": "A#4",
                    "midi": 70,
                    "time": 215.2999999999984,
                    "velocity": 0.16535433070866143,
                    "duration": 0.19999999999998863
                },
                {
                    "name": "D4",
                    "midi": 62,
                    "time": 215.49999999999838,
                    "velocity": 0.16535433070866143,
                    "duration": 0.07499999999998863
                },
                {
                    "name": "F4",
                    "midi": 65,
                    "time": 215.49999999999838,
                    "velocity": 0.1889763779527559,
                    "duration": 0.09999999999999432
                },
                {
                    "name": "D4",
                    "midi": 62,
                    "time": 215.89999999999839,
                    "velocity": 0.15748031496062992,
                    "duration": 0.19999999999998863
                },
                {
                    "name": "G4",
                    "midi": 67,
                    "time": 215.89999999999839,
                    "velocity": 0.1889763779527559,
                    "duration": 0.19999999999998863
                },
                {
                    "name": "A#4",
                    "midi": 70,
                    "time": 216.09999999999837,
                    "velocity": 0.15748031496062992,
                    "duration": 0.19999999999998863
                },
                {
                    "name": "D5",
                    "midi": 74,
                    "time": 216.09999999999837,
                    "velocity": 0.1889763779527559,
                    "duration": 0.19999999999998863
                },
                {
                    "name": "G5",
                    "midi": 79,
                    "time": 216.29999999999836,
                    "velocity": 0.1968503937007874,
                    "duration": 0.19999999999998863
                },
                {
                    "name": "D5",
                    "midi": 74,
                    "time": 216.29999999999836,
                    "velocity": 0.16535433070866143,
                    "duration": 0.19999999999998863
                },
                {
                    "name": "A#5",
                    "midi": 82,
                    "time": 216.49999999999835,
                    "velocity": 0.1732283464566929,
                    "duration": 0.19999999999998863
                },
                {
                    "name": "D6",
                    "midi": 86,
                    "time": 216.49999999999835,
                    "velocity": 0.2047244094488189,
                    "duration": 0.19999999999998863
                },
                {
                    "name": "D6",
                    "midi": 86,
                    "time": 216.69999999999834,
                    "velocity": 0.1732283464566929,
                    "duration": 0.19999999999998863
                },
                {
                    "name": "G6",
                    "midi": 91,
                    "time": 216.69999999999834,
                    "velocity": 0.2125984251968504,
                    "duration": 0.19999999999998863
                },
                {
                    "name": "D7",
                    "midi": 98,
                    "time": 216.89999999999833,
                    "velocity": 0.2204724409448819,
                    "duration": 0.19999999999998863
                },
                {
                    "name": "A#6",
                    "midi": 94,
                    "time": 216.89999999999833,
                    "velocity": 0.18110236220472442,
                    "duration": 0.19999999999998863
                },
                {
                    "name": "D6",
                    "midi": 86,
                    "time": 217.09999999999832,
                    "velocity": 0.1889763779527559,
                    "duration": 0.19999999999998863
                },
                {
                    "name": "G6",
                    "midi": 91,
                    "time": 217.09999999999832,
                    "velocity": 0.2283464566929134,
                    "duration": 0.19999999999998863
                },
                {
                    "name": "A#5",
                    "midi": 82,
                    "time": 217.2999999999983,
                    "velocity": 0.18110236220472442,
                    "duration": 0.19999999999998863
                },
                {
                    "name": "D6",
                    "midi": 86,
                    "time": 217.2999999999983,
                    "velocity": 0.2204724409448819,
                    "duration": 0.19999999999998863
                },
                {
                    "name": "D5",
                    "midi": 74,
                    "time": 217.4999999999983,
                    "velocity": 0.1732283464566929,
                    "duration": 0.19999999999998863
                },
                {
                    "name": "G5",
                    "midi": 79,
                    "time": 217.4999999999983,
                    "velocity": 0.2125984251968504,
                    "duration": 0.19999999999998863
                },
                {
                    "name": "D5",
                    "midi": 74,
                    "time": 217.69999999999828,
                    "velocity": 0.1968503937007874,
                    "duration": 0.19999999999998863
                },
                {
                    "name": "A#4",
                    "midi": 70,
                    "time": 217.69999999999828,
                    "velocity": 0.16535433070866143,
                    "duration": 0.19999999999998863
                },
                {
                    "name": "G4",
                    "midi": 67,
                    "time": 217.89999999999827,
                    "velocity": 0.1889763779527559,
                    "duration": 0.19999999999998863
                },
                {
                    "name": "D4",
                    "midi": 62,
                    "time": 217.89999999999827,
                    "velocity": 0.15748031496062992,
                    "duration": 0.19999999999998863
                },
                {
                    "name": "G4",
                    "midi": 67,
                    "time": 218.29999999999825,
                    "velocity": 0.1968503937007874,
                    "duration": 0.19999999999998863
                },
                {
                    "name": "D#4",
                    "midi": 63,
                    "time": 218.29999999999825,
                    "velocity": 0.1968503937007874,
                    "duration": 0.19999999999998863
                },
                {
                    "name": "D5",
                    "midi": 74,
                    "time": 218.49999999999824,
                    "velocity": 0.1968503937007874,
                    "duration": 0.19999999999998863
                },
                {
                    "name": "C5",
                    "midi": 72,
                    "time": 218.89999999999822,
                    "velocity": 0.2125984251968504,
                    "duration": 0.19999999999998863
                },
                {
                    "name": "D#5",
                    "midi": 75,
                    "time": 218.89999999999822,
                    "velocity": 0.2125984251968504,
                    "duration": 0.19999999999998863
                },
                {
                    "name": "C6",
                    "midi": 84,
                    "time": 219.0999999999982,
                    "velocity": 0.2125984251968504,
                    "duration": 0.19999999999998863
                },
                {
                    "name": "G5",
                    "midi": 79,
                    "time": 219.0999999999982,
                    "velocity": 0.2125984251968504,
                    "duration": 0.19999999999998863
                },
                {
                    "name": "D#6",
                    "midi": 87,
                    "time": 219.49999999999818,
                    "velocity": 0.2125984251968504,
                    "duration": 0.19999999999998863
                },
                {
                    "name": "A#5",
                    "midi": 82,
                    "time": 219.49999999999818,
                    "velocity": 0.2125984251968504,
                    "duration": 0.19999999999998863
                },
                {
                    "name": "A#6",
                    "midi": 94,
                    "time": 219.69999999999817,
                    "velocity": 0.2125984251968504,
                    "duration": 0.19999999999998863
                },
                {
                    "name": "G6",
                    "midi": 91,
                    "time": 219.69999999999817,
                    "velocity": 0.2125984251968504,
                    "duration": 0.19999999999998863
                },
                {
                    "name": "C6",
                    "midi": 84,
                    "time": 220.09999999999815,
                    "velocity": 0.1968503937007874,
                    "duration": 0.19999999999998863
                },
                {
                    "name": "D#6",
                    "midi": 87,
                    "time": 220.09999999999815,
                    "velocity": 0.1968503937007874,
                    "duration": 0.19999999999998863
                },
                {
                    "name": "C7",
                    "midi": 96,
                    "time": 220.29999999999814,
                    "velocity": 0.1968503937007874,
                    "duration": 0.19999999999998863
                },
                {
                    "name": "G6",
                    "midi": 91,
                    "time": 220.29999999999814,
                    "velocity": 0.1968503937007874,
                    "duration": 0.19999999999998863
                },
                {
                    "name": "D4",
                    "midi": 62,
                    "time": 220.6999999999981,
                    "velocity": 0.15748031496062992,
                    "duration": 2.0999999999998806
                },
                {
                    "name": "F#4",
                    "midi": 66,
                    "time": 220.6999999999981,
                    "velocity": 0.1889763779527559,
                    "duration": 0.19999999999998863
                },
                {
                    "name": "D5",
                    "midi": 74,
                    "time": 220.8999999999981,
                    "velocity": 0.1889763779527559,
                    "duration": 0.19999999999998863
                },
                {
                    "name": "A4",
                    "midi": 69,
                    "time": 220.8999999999981,
                    "velocity": 0.15748031496062992,
                    "duration": 0.19999999999998863
                },
                {
                    "name": "D5",
                    "midi": 74,
                    "time": 221.0999999999981,
                    "velocity": 0.16535433070866143,
                    "duration": 0.19999999999998863
                },
                {
                    "name": "F#5",
                    "midi": 78,
                    "time": 221.0999999999981,
                    "velocity": 0.1968503937007874,
                    "duration": 0.19999999999998863
                },
                {
                    "name": "A5",
                    "midi": 81,
                    "time": 221.29999999999808,
                    "velocity": 0.1732283464566929,
                    "duration": 0.19999999999998863
                },
                {
                    "name": "D6",
                    "midi": 86,
                    "time": 221.29999999999808,
                    "velocity": 0.2047244094488189,
                    "duration": 0.19999999999998863
                },
                {
                    "name": "F#6",
                    "midi": 90,
                    "time": 221.49999999999807,
                    "velocity": 0.2125984251968504,
                    "duration": 0.19999999999998863
                },
                {
                    "name": "D6",
                    "midi": 86,
                    "time": 221.49999999999807,
                    "velocity": 0.1732283464566929,
                    "duration": 0.19999999999998863
                },
                {
                    "name": "D7",
                    "midi": 98,
                    "time": 221.69999999999806,
                    "velocity": 0.2204724409448819,
                    "duration": 0.19999999999998863
                },
                {
                    "name": "A6",
                    "midi": 93,
                    "time": 221.69999999999806,
                    "velocity": 0.18110236220472442,
                    "duration": 0.19999999999998863
                },
                {
                    "name": "F#6",
                    "midi": 90,
                    "time": 221.89999999999804,
                    "velocity": 0.2283464566929134,
                    "duration": 0.19999999999998863
                },
                {
                    "name": "D6",
                    "midi": 86,
                    "time": 221.89999999999804,
                    "velocity": 0.1889763779527559,
                    "duration": 0.19999999999998863
                },
                {
                    "name": "A5",
                    "midi": 81,
                    "time": 222.09999999999803,
                    "velocity": 0.18110236220472442,
                    "duration": 0.19999999999998863
                },
                {
                    "name": "D6",
                    "midi": 86,
                    "time": 222.09999999999803,
                    "velocity": 0.2204724409448819,
                    "duration": 0.19999999999998863
                },
                {
                    "name": "D5",
                    "midi": 74,
                    "time": 222.29999999999802,
                    "velocity": 0.1732283464566929,
                    "duration": 0.19999999999998863
                },
                {
                    "name": "F#5",
                    "midi": 78,
                    "time": 222.29999999999802,
                    "velocity": 0.2125984251968504,
                    "duration": 0.19999999999998863
                },
                {
                    "name": "D6",
                    "midi": 86,
                    "time": 222.499999999998,
                    "velocity": 0.1968503937007874,
                    "duration": 0.19999999999998863
                },
                {
                    "name": "A5",
                    "midi": 81,
                    "time": 222.499999999998,
                    "velocity": 0.16535433070866143,
                    "duration": 0.19999999999998863
                },
                {
                    "name": "D5",
                    "midi": 74,
                    "time": 222.699999999998,
                    "velocity": 0.15748031496062992,
                    "duration": 0.19999999999998863
                },
                {
                    "name": "F#5",
                    "midi": 78,
                    "time": 222.699999999998,
                    "velocity": 0.1889763779527559,
                    "duration": 0.19999999999998863
                },
                {
                    "name": "A4",
                    "midi": 69,
                    "time": 222.899999999998,
                    "velocity": 0.1732283464566929,
                    "duration": 0.19999999999998863
                },
                {
                    "name": "D5",
                    "midi": 74,
                    "time": 222.899999999998,
                    "velocity": 0.2047244094488189,
                    "duration": 0.19999999999998863
                },
                {
                    "name": "D4",
                    "midi": 62,
                    "time": 223.09999999999798,
                    "velocity": 0.15748031496062992,
                    "duration": 0.19999999999998863
                },
                {
                    "name": "F#4",
                    "midi": 66,
                    "time": 223.09999999999798,
                    "velocity": 0.1889763779527559,
                    "duration": 0.19999999999998863
                },
                {
                    "name": "D5",
                    "midi": 74,
                    "time": 223.29999999999797,
                    "velocity": 0.2125984251968504,
                    "duration": 0.19999999999998863
                },
                {
                    "name": "A4",
                    "midi": 69,
                    "time": 223.29999999999797,
                    "velocity": 0.1732283464566929,
                    "duration": 0.19999999999998863
                },
                {
                    "name": "D5",
                    "midi": 74,
                    "time": 225.59999999999795,
                    "velocity": 0.25984251968503935,
                    "duration": 0.30000000000001137
                },
                {
                    "name": "D6",
                    "midi": 86,
                    "time": 225.89999999999796,
                    "velocity": 0.23622047244094488,
                    "duration": 0.30000000000001137
                },
                {
                    "name": "D7",
                    "midi": 98,
                    "time": 226.19999999999797,
                    "velocity": 0.29133858267716534,
                    "duration": 0.30000000000001137
                },
                {
                    "name": "D5",
                    "midi": 74,
                    "time": 226.69999999999797,
                    "velocity": 0.1889763779527559,
                    "duration": 0.18000000000000682
                },
                {
                    "name": "D6",
                    "midi": 86,
                    "time": 226.69999999999797,
                    "velocity": 0.2283464566929134,
                    "duration": 0.18000000000000682
                },
                {
                    "name": "D5",
                    "midi": 74,
                    "time": 226.899999999998,
                    "velocity": 0.2047244094488189,
                    "duration": 0.18000000000000682
                },
                {
                    "name": "D6",
                    "midi": 86,
                    "time": 226.899999999998,
                    "velocity": 0.2440944881889764,
                    "duration": 0.18000000000000682
                },
                {
                    "name": "D5",
                    "midi": 74,
                    "time": 227.099999999998,
                    "velocity": 0.2204724409448819,
                    "duration": 0.18000000000000682
                },
                {
                    "name": "D6",
                    "midi": 86,
                    "time": 227.099999999998,
                    "velocity": 0.2677165354330709,
                    "duration": 0.18000000000000682
                },
                {
                    "name": "D6",
                    "midi": 86,
                    "time": 227.29999999999802,
                    "velocity": 0.28346456692913385,
                    "duration": 0.18000000000000682
                },
                {
                    "name": "D5",
                    "midi": 74,
                    "time": 227.29999999999802,
                    "velocity": 0.2283464566929134,
                    "duration": 0.18000000000000682
                },
                {
                    "name": "D6",
                    "midi": 86,
                    "time": 227.49999999999804,
                    "velocity": 0.30708661417322836,
                    "duration": 0.18000000000000682
                },
                {
                    "name": "D5",
                    "midi": 74,
                    "time": 227.49999999999804,
                    "velocity": 0.25196850393700787,
                    "duration": 0.18000000000000682
                },
                {
                    "name": "D6",
                    "midi": 86,
                    "time": 227.69999999999806,
                    "velocity": 0.4094488188976378,
                    "duration": 1.1999999999999886
                },
                {
                    "name": "D5",
                    "midi": 74,
                    "time": 227.69999999999806,
                    "velocity": 0.3464566929133858,
                    "duration": 1.1999999999999886
                },
                {
                    "name": "D6",
                    "midi": 86,
                    "time": 228.89999999999804,
                    "velocity": 0.3858267716535433,
                    "duration": 0.9000000000000057
                },
                {
                    "name": "D5",
                    "midi": 74,
                    "time": 228.89999999999804,
                    "velocity": 0.3228346456692913,
                    "duration": 0.9000000000000057
                },
                {
                    "name": "C5",
                    "midi": 72,
                    "time": 229.89999999999804,
                    "velocity": 0.2755905511811024,
                    "duration": 0.19999999999998863
                },
                {
                    "name": "C6",
                    "midi": 84,
                    "time": 229.89999999999804,
                    "velocity": 0.3228346456692913,
                    "duration": 0.19999999999998863
                },
                {
                    "name": "A#5",
                    "midi": 82,
                    "time": 230.09999999999803,
                    "velocity": 0.4330708661417323,
                    "duration": 1.1999999999999886
                },
                {
                    "name": "A#4",
                    "midi": 70,
                    "time": 230.09999999999803,
                    "velocity": 0.36220472440944884,
                    "duration": 1.1999999999999886
                },
                {
                    "name": "A#4",
                    "midi": 70,
                    "time": 231.29999999999802,
                    "velocity": 0.3543307086614173,
                    "duration": 0.9000000000000057
                },
                {
                    "name": "A#5",
                    "midi": 82,
                    "time": 231.29999999999802,
                    "velocity": 0.4251968503937008,
                    "duration": 0.9000000000000057
                },
                {
                    "name": "A#4",
                    "midi": 70,
                    "time": 232.29999999999802,
                    "velocity": 0.3779527559055118,
                    "duration": 0.19999999999998863
                },
                {
                    "name": "A#5",
                    "midi": 82,
                    "time": 232.29999999999802,
                    "velocity": 0.44881889763779526,
                    "duration": 0.19999999999998863
                },
                {
                    "name": "A5",
                    "midi": 81,
                    "time": 232.499999999998,
                    "velocity": 0.4881889763779528,
                    "duration": 0.9000000000000057
                },
                {
                    "name": "A4",
                    "midi": 69,
                    "time": 232.499999999998,
                    "velocity": 0.4094488188976378,
                    "duration": 0.9000000000000057
                },
                {
                    "name": "A5",
                    "midi": 81,
                    "time": 233.499999999998,
                    "velocity": 0.49606299212598426,
                    "duration": 0.19999999999998863
                },
                {
                    "name": "A4",
                    "midi": 69,
                    "time": 233.499999999998,
                    "velocity": 0.49606299212598426,
                    "duration": 0.19999999999998863
                },
                {
                    "name": "F#6",
                    "midi": 90,
                    "time": 233.699999999998,
                    "velocity": 0.5433070866141733,
                    "duration": 0.9000000000000057
                },
                {
                    "name": "F#5",
                    "midi": 78,
                    "time": 233.699999999998,
                    "velocity": 0.5433070866141733,
                    "duration": 0.9000000000000057
                },
                {
                    "name": "A4",
                    "midi": 69,
                    "time": 234.699999999998,
                    "velocity": 0.3858267716535433,
                    "duration": 0.19999999999998863
                },
                {
                    "name": "A5",
                    "midi": 81,
                    "time": 234.699999999998,
                    "velocity": 0.4566929133858268,
                    "duration": 0.19999999999998863
                },
                {
                    "name": "C5",
                    "midi": 72,
                    "time": 234.899999999998,
                    "velocity": 0.4330708661417323,
                    "duration": 1.1999999999999886
                },
                {
                    "name": "C6",
                    "midi": 84,
                    "time": 234.899999999998,
                    "velocity": 0.5196850393700787,
                    "duration": 1.1999999999999886
                },
                {
                    "name": "A#5",
                    "midi": 82,
                    "time": 236.09999999999798,
                    "velocity": 0.47244094488188976,
                    "duration": 0.5999999999999943
                },
                {
                    "name": "A#4",
                    "midi": 70,
                    "time": 236.09999999999798,
                    "velocity": 0.3937007874015748,
                    "duration": 0.5999999999999943
                },
                {
                    "name": "D5",
                    "midi": 74,
                    "time": 237.29999999999797,
                    "velocity": 0.44881889763779526,
                    "duration": 1.1999999999999886
                },
                {
                    "name": "D6",
                    "midi": 86,
                    "time": 237.29999999999797,
                    "velocity": 0.5354330708661418,
                    "duration": 1.1999999999999886
                },
                {
                    "name": "D5",
                    "midi": 74,
                    "time": 238.49999999999795,
                    "velocity": 0.41732283464566927,
                    "duration": 0.9000000000000057
                },
                {
                    "name": "D6",
                    "midi": 86,
                    "time": 238.49999999999795,
                    "velocity": 0.49606299212598426,
                    "duration": 0.9000000000000057
                },
                {
                    "name": "C5",
                    "midi": 72,
                    "time": 239.49999999999795,
                    "velocity": 0.3937007874015748,
                    "duration": 0.19999999999998863
                },
                {
                    "name": "C6",
                    "midi": 84,
                    "time": 239.49999999999795,
                    "velocity": 0.47244094488188976,
                    "duration": 0.19999999999998863
                },
                {
                    "name": "A#4",
                    "midi": 70,
                    "time": 239.69999999999794,
                    "velocity": 0.44881889763779526,
                    "duration": 1.1999999999999886
                },
                {
                    "name": "A#5",
                    "midi": 82,
                    "time": 239.69999999999794,
                    "velocity": 0.5354330708661418,
                    "duration": 1.1999999999999886
                },
                {
                    "name": "A#4",
                    "midi": 70,
                    "time": 241.89999999999793,
                    "velocity": 0.41732283464566927,
                    "duration": 0.19999999999998863
                },
                {
                    "name": "A#5",
                    "midi": 82,
                    "time": 241.89999999999793,
                    "velocity": 0.49606299212598426,
                    "duration": 0.19999999999998863
                },
                {
                    "name": "C#6",
                    "midi": 85,
                    "time": 242.09999999999792,
                    "velocity": 0.5354330708661418,
                    "duration": 0.9000000000000057
                },
                {
                    "name": "C#5",
                    "midi": 73,
                    "time": 242.09999999999792,
                    "velocity": 0.44881889763779526,
                    "duration": 0.9000000000000057
                },
                {
                    "name": "C5",
                    "midi": 72,
                    "time": 243.09999999999792,
                    "velocity": 0.48031496062992124,
                    "duration": 0.19999999999998863
                },
                {
                    "name": "C6",
                    "midi": 84,
                    "time": 243.09999999999792,
                    "velocity": 0.5748031496062992,
                    "duration": 0.19999999999998863
                },
                {
                    "name": "A#5",
                    "midi": 82,
                    "time": 243.2999999999979,
                    "velocity": 0.5196850393700787,
                    "duration": 0.9000000000000057
                },
                {
                    "name": "A#6",
                    "midi": 94,
                    "time": 243.2999999999979,
                    "velocity": 0.6220472440944882,
                    "duration": 0.9000000000000057
                },
                {
                    "name": "E5",
                    "midi": 76,
                    "time": 244.2999999999979,
                    "velocity": 0.41732283464566927,
                    "duration": 0.19999999999998863
                },
                {
                    "name": "E6",
                    "midi": 88,
                    "time": 244.2999999999979,
                    "velocity": 0.49606299212598426,
                    "duration": 0.19999999999998863
                },
                {
                    "name": "F6",
                    "midi": 89,
                    "time": 244.4999999999979,
                    "velocity": 0.5669291338582677,
                    "duration": 1.1999999999999886
                },
                {
                    "name": "F5",
                    "midi": 77,
                    "time": 244.4999999999979,
                    "velocity": 0.47244094488188976,
                    "duration": 1.1999999999999886
                },
                {
                    "name": "F5",
                    "midi": 77,
                    "time": 246.89999999999787,
                    "velocity": 0.5039370078740157,
                    "duration": 1.1999999999999886
                },
                {
                    "name": "F6",
                    "midi": 89,
                    "time": 246.89999999999787,
                    "velocity": 0.6141732283464567,
                    "duration": 1.1999999999999886
                },
                {
                    "name": "F5",
                    "midi": 77,
                    "time": 248.09999999999786,
                    "velocity": 0.4881889763779528,
                    "duration": 0.9000000000000057
                },
                {
                    "name": "F6",
                    "midi": 89,
                    "time": 248.09999999999786,
                    "velocity": 0.5826771653543307,
                    "duration": 0.9000000000000057
                },
                {
                    "name": "F5",
                    "midi": 77,
                    "time": 249.09999999999786,
                    "velocity": 0.47244094488188976,
                    "duration": 0.19999999999998863
                },
                {
                    "name": "F6",
                    "midi": 89,
                    "time": 249.09999999999786,
                    "velocity": 0.5669291338582677,
                    "duration": 0.19999999999998863
                },
                {
                    "name": "G#5",
                    "midi": 80,
                    "time": 249.29999999999785,
                    "velocity": 0.5433070866141733,
                    "duration": 1.1999999999999886
                },
                {
                    "name": "G#6",
                    "midi": 92,
                    "time": 249.29999999999785,
                    "velocity": 0.6535433070866141,
                    "duration": 1.1999999999999886
                },
                {
                    "name": "D#5",
                    "midi": 75,
                    "time": 250.49999999999784,
                    "velocity": 0.5275590551181102,
                    "duration": 0.5999999999999943
                },
                {
                    "name": "D#6",
                    "midi": 87,
                    "time": 250.49999999999784,
                    "velocity": 0.6299212598425197,
                    "duration": 0.5999999999999943
                },
                {
                    "name": "G#6",
                    "midi": 92,
                    "time": 251.69999999999783,
                    "velocity": 0.7007874015748031,
                    "duration": 1.1999999999999886
                },
                {
                    "name": "G#5",
                    "midi": 80,
                    "time": 251.69999999999783,
                    "velocity": 0.5826771653543307,
                    "duration": 1.1999999999999886
                },
                {
                    "name": "G#5",
                    "midi": 80,
                    "time": 252.89999999999782,
                    "velocity": 0.5590551181102362,
                    "duration": 0.9000000000000057
                },
                {
                    "name": "G#6",
                    "midi": 92,
                    "time": 252.89999999999782,
                    "velocity": 0.6614173228346457,
                    "duration": 0.9000000000000057
                },
                {
                    "name": "G#5",
                    "midi": 80,
                    "time": 253.89999999999782,
                    "velocity": 0.5433070866141733,
                    "duration": 0.19999999999998863
                },
                {
                    "name": "G#6",
                    "midi": 92,
                    "time": 253.89999999999782,
                    "velocity": 0.6456692913385826,
                    "duration": 0.19999999999998863
                },
                {
                    "name": "B6",
                    "midi": 95,
                    "time": 254.0999999999978,
                    "velocity": 0.7401574803149606,
                    "duration": 1.1999999999999886
                },
                {
                    "name": "B5",
                    "midi": 83,
                    "time": 254.0999999999978,
                    "velocity": 0.6220472440944882,
                    "duration": 1.1999999999999886
                },
                {
                    "name": "F#6",
                    "midi": 90,
                    "time": 255.2999999999978,
                    "velocity": 0.7086614173228346,
                    "duration": 0.5999999999999943
                },
                {
                    "name": "F#5",
                    "midi": 78,
                    "time": 255.2999999999978,
                    "velocity": 0.5905511811023622,
                    "duration": 0.5999999999999943
                },
                {
                    "name": "C#4",
                    "midi": 61,
                    "time": 256.8999999999978,
                    "velocity": 0.2677165354330709,
                    "duration": 0.18000000000000682
                },
                {
                    "name": "B4",
                    "midi": 71,
                    "time": 256.8999999999978,
                    "velocity": 0.31496062992125984,
                    "duration": 0.18000000000000682
                },
                {
                    "name": "B4",
                    "midi": 71,
                    "time": 257.0999999999978,
                    "velocity": 0.31496062992125984,
                    "duration": 0.18000000000000682
                },
                {
                    "name": "D4",
                    "midi": 62,
                    "time": 257.0999999999978,
                    "velocity": 0.2677165354330709,
                    "duration": 0.18000000000000682
                },
                {
                    "name": "B4",
                    "midi": 71,
                    "time": 257.2999999999978,
                    "velocity": 0.31496062992125984,
                    "duration": 0.18000000000000682
                },
                {
                    "name": "D#4",
                    "midi": 63,
                    "time": 257.2999999999978,
                    "velocity": 0.2677165354330709,
                    "duration": 0.18000000000000682
                },
                {
                    "name": "B4",
                    "midi": 71,
                    "time": 257.4999999999978,
                    "velocity": 0.31496062992125984,
                    "duration": 0.18000000000000682
                },
                {
                    "name": "E4",
                    "midi": 64,
                    "time": 257.4999999999978,
                    "velocity": 0.2677165354330709,
                    "duration": 0.18000000000000682
                },
                {
                    "name": "F4",
                    "midi": 65,
                    "time": 257.6999999999978,
                    "velocity": 0.2677165354330709,
                    "duration": 0.18000000000000682
                },
                {
                    "name": "B4",
                    "midi": 71,
                    "time": 257.6999999999978,
                    "velocity": 0.31496062992125984,
                    "duration": 0.18000000000000682
                },
                {
                    "name": "B4",
                    "midi": 71,
                    "time": 257.89999999999776,
                    "velocity": 0.31496062992125984,
                    "duration": 0.18000000000000682
                },
                {
                    "name": "F#4",
                    "midi": 66,
                    "time": 257.89999999999776,
                    "velocity": 0.2677165354330709,
                    "duration": 0.18000000000000682
                },
                {
                    "name": "B4",
                    "midi": 71,
                    "time": 258.09999999999775,
                    "velocity": 0.31496062992125984,
                    "duration": 0.18000000000000682
                },
                {
                    "name": "G4",
                    "midi": 67,
                    "time": 258.09999999999775,
                    "velocity": 0.2677165354330709,
                    "duration": 0.18000000000000682
                },
                {
                    "name": "B4",
                    "midi": 71,
                    "time": 258.29999999999774,
                    "velocity": 0.31496062992125984,
                    "duration": 0.18000000000000682
                },
                {
                    "name": "G#4",
                    "midi": 68,
                    "time": 258.29999999999774,
                    "velocity": 0.2677165354330709,
                    "duration": 0.18000000000000682
                },
                {
                    "name": "B4",
                    "midi": 71,
                    "time": 258.4999999999977,
                    "velocity": 0.31496062992125984,
                    "duration": 0.18000000000000682
                },
                {
                    "name": "A4",
                    "midi": 69,
                    "time": 258.4999999999977,
                    "velocity": 0.2677165354330709,
                    "duration": 0.18000000000000682
                },
                {
                    "name": "B4",
                    "midi": 71,
                    "time": 258.6999999999977,
                    "velocity": 0.31496062992125984,
                    "duration": 0.18000000000000682
                },
                {
                    "name": "A#4",
                    "midi": 70,
                    "time": 258.6999999999977,
                    "velocity": 0.2677165354330709,
                    "duration": 0.18000000000000682
                },
                {
                    "name": "B4",
                    "midi": 71,
                    "time": 258.8999999999977,
                    "velocity": 0.31496062992125984,
                    "duration": 0.18000000000000682
                },
                {
                    "name": "B4",
                    "midi": 71,
                    "time": 259.0999999999977,
                    "velocity": 0.2755905511811024,
                    "duration": 0.18000000000000682
                },
                {
                    "name": "C5",
                    "midi": 72,
                    "time": 259.0999999999977,
                    "velocity": 0.3228346456692913,
                    "duration": 0.18000000000000682
                },
                {
                    "name": "B4",
                    "midi": 71,
                    "time": 259.2999999999977,
                    "velocity": 0.28346456692913385,
                    "duration": 0.18000000000000682
                },
                {
                    "name": "C#5",
                    "midi": 73,
                    "time": 259.2999999999977,
                    "velocity": 0.33070866141732286,
                    "duration": 0.18000000000000682
                },
                {
                    "name": "D5",
                    "midi": 74,
                    "time": 259.49999999999767,
                    "velocity": 0.3464566929133858,
                    "duration": 0.18000000000000682
                },
                {
                    "name": "B4",
                    "midi": 71,
                    "time": 259.49999999999767,
                    "velocity": 0.29133858267716534,
                    "duration": 0.18000000000000682
                },
                {
                    "name": "D#5",
                    "midi": 75,
                    "time": 259.69999999999766,
                    "velocity": 0.3543307086614173,
                    "duration": 0.18000000000000682
                },
                {
                    "name": "B4",
                    "midi": 71,
                    "time": 259.69999999999766,
                    "velocity": 0.29133858267716534,
                    "duration": 0.18000000000000682
                },
                {
                    "name": "B4",
                    "midi": 71,
                    "time": 259.89999999999765,
                    "velocity": 0.2992125984251969,
                    "duration": 0.18000000000000682
                },
                {
                    "name": "E5",
                    "midi": 76,
                    "time": 259.89999999999765,
                    "velocity": 0.36220472440944884,
                    "duration": 0.18000000000000682
                },
                {
                    "name": "F5",
                    "midi": 77,
                    "time": 260.09999999999764,
                    "velocity": 0.3700787401574803,
                    "duration": 0.18000000000000682
                },
                {
                    "name": "B4",
                    "midi": 71,
                    "time": 260.09999999999764,
                    "velocity": 0.30708661417322836,
                    "duration": 0.18000000000000682
                },
                {
                    "name": "F#5",
                    "midi": 78,
                    "time": 260.2999999999976,
                    "velocity": 0.3779527559055118,
                    "duration": 0.18000000000000682
                },
                {
                    "name": "B4",
                    "midi": 71,
                    "time": 260.2999999999976,
                    "velocity": 0.31496062992125984,
                    "duration": 0.18000000000000682
                },
                {
                    "name": "G5",
                    "midi": 79,
                    "time": 260.4999999999976,
                    "velocity": 0.3937007874015748,
                    "duration": 0.18000000000000682
                },
                {
                    "name": "B4",
                    "midi": 71,
                    "time": 260.4999999999976,
                    "velocity": 0.33070866141732286,
                    "duration": 0.18000000000000682
                },
                {
                    "name": "B4",
                    "midi": 71,
                    "time": 260.6999999999976,
                    "velocity": 0.33070866141732286,
                    "duration": 0.18000000000000682
                },
                {
                    "name": "G#5",
                    "midi": 80,
                    "time": 260.6999999999976,
                    "velocity": 0.4015748031496063,
                    "duration": 0.18000000000000682
                },
                {
                    "name": "A5",
                    "midi": 81,
                    "time": 260.8999999999976,
                    "velocity": 0.4094488188976378,
                    "duration": 0.18000000000000682
                },
                {
                    "name": "B4",
                    "midi": 71,
                    "time": 260.8999999999976,
                    "velocity": 0.3464566929133858,
                    "duration": 0.18000000000000682
                },
                {
                    "name": "A#5",
                    "midi": 82,
                    "time": 261.0999999999976,
                    "velocity": 0.41732283464566927,
                    "duration": 0.18000000000000682
                },
                {
                    "name": "B4",
                    "midi": 71,
                    "time": 261.0999999999976,
                    "velocity": 0.3543307086614173,
                    "duration": 0.18000000000000682
                },
                {
                    "name": "B5",
                    "midi": 83,
                    "time": 261.29999999999757,
                    "velocity": 0.4015748031496063,
                    "duration": 0.18000000000000682
                },
                {
                    "name": "B5",
                    "midi": 83,
                    "time": 261.49999999999756,
                    "velocity": 0.3464566929133858,
                    "duration": 0.18000000000000682
                },
                {
                    "name": "C5",
                    "midi": 72,
                    "time": 261.49999999999756,
                    "velocity": 0.4094488188976378,
                    "duration": 0.18000000000000682
                },
                {
                    "name": "B5",
                    "midi": 83,
                    "time": 261.69999999999754,
                    "velocity": 0.3464566929133858,
                    "duration": 0.18000000000000682
                },
                {
                    "name": "C#5",
                    "midi": 73,
                    "time": 261.69999999999754,
                    "velocity": 0.4094488188976378,
                    "duration": 0.18000000000000682
                },
                {
                    "name": "B5",
                    "midi": 83,
                    "time": 261.89999999999753,
                    "velocity": 0.3543307086614173,
                    "duration": 0.18000000000000682
                },
                {
                    "name": "D5",
                    "midi": 74,
                    "time": 261.89999999999753,
                    "velocity": 0.41732283464566927,
                    "duration": 0.18000000000000682
                },
                {
                    "name": "B5",
                    "midi": 83,
                    "time": 262.0999999999975,
                    "velocity": 0.36220472440944884,
                    "duration": 0.18000000000000682
                },
                {
                    "name": "D#5",
                    "midi": 75,
                    "time": 262.0999999999975,
                    "velocity": 0.4330708661417323,
                    "duration": 0.18000000000000682
                },
                {
                    "name": "E5",
                    "midi": 76,
                    "time": 262.2999999999975,
                    "velocity": 0.4409448818897638,
                    "duration": 0.18000000000000682
                },
                {
                    "name": "B5",
                    "midi": 83,
                    "time": 262.2999999999975,
                    "velocity": 0.3700787401574803,
                    "duration": 0.18000000000000682
                },
                {
                    "name": "F5",
                    "midi": 77,
                    "time": 262.4999999999975,
                    "velocity": 0.44881889763779526,
                    "duration": 0.18000000000000682
                },
                {
                    "name": "B5",
                    "midi": 83,
                    "time": 262.4999999999975,
                    "velocity": 0.3779527559055118,
                    "duration": 0.18000000000000682
                },
                {
                    "name": "B5",
                    "midi": 83,
                    "time": 262.6999999999975,
                    "velocity": 0.3858267716535433,
                    "duration": 0.18000000000000682
                },
                {
                    "name": "F#5",
                    "midi": 78,
                    "time": 262.6999999999975,
                    "velocity": 0.4566929133858268,
                    "duration": 0.18000000000000682
                },
                {
                    "name": "G5",
                    "midi": 79,
                    "time": 262.8999999999975,
                    "velocity": 0.4645669291338583,
                    "duration": 0.18000000000000682
                },
                {
                    "name": "B5",
                    "midi": 83,
                    "time": 262.8999999999975,
                    "velocity": 0.3858267716535433,
                    "duration": 0.18000000000000682
                },
                {
                    "name": "G#5",
                    "midi": 80,
                    "time": 263.09999999999746,
                    "velocity": 0.47244094488188976,
                    "duration": 0.18000000000000682
                },
                {
                    "name": "B5",
                    "midi": 83,
                    "time": 263.09999999999746,
                    "velocity": 0.3937007874015748,
                    "duration": 0.18000000000000682
                },
                {
                    "name": "A5",
                    "midi": 81,
                    "time": 263.29999999999745,
                    "velocity": 0.47244094488188976,
                    "duration": 0.18000000000000682
                },
                {
                    "name": "B5",
                    "midi": 83,
                    "time": 263.29999999999745,
                    "velocity": 0.3937007874015748,
                    "duration": 0.18000000000000682
                },
                {
                    "name": "B5",
                    "midi": 83,
                    "time": 263.49999999999744,
                    "velocity": 0.4015748031496063,
                    "duration": 0.18000000000000682
                },
                {
                    "name": "A#5",
                    "midi": 82,
                    "time": 263.49999999999744,
                    "velocity": 0.48031496062992124,
                    "duration": 0.18000000000000682
                },
                {
                    "name": "B5",
                    "midi": 83,
                    "time": 263.69999999999743,
                    "velocity": 0.4881889763779528,
                    "duration": 0.18000000000000682
                },
                {
                    "name": "C6",
                    "midi": 84,
                    "time": 263.8999999999974,
                    "velocity": 0.49606299212598426,
                    "duration": 0.18000000000000682
                },
                {
                    "name": "B5",
                    "midi": 83,
                    "time": 263.8999999999974,
                    "velocity": 0.41732283464566927,
                    "duration": 0.18000000000000682
                },
                {
                    "name": "B5",
                    "midi": 83,
                    "time": 264.0999999999974,
                    "velocity": 0.4330708661417323,
                    "duration": 0.18000000000000682
                },
                {
                    "name": "C#6",
                    "midi": 85,
                    "time": 264.0999999999974,
                    "velocity": 0.5039370078740157,
                    "duration": 0.18000000000000682
                },
                {
                    "name": "B5",
                    "midi": 83,
                    "time": 264.2999999999974,
                    "velocity": 0.4330708661417323,
                    "duration": 0.18000000000000682
                },
                {
                    "name": "D6",
                    "midi": 86,
                    "time": 264.2999999999974,
                    "velocity": 0.5039370078740157,
                    "duration": 0.18000000000000682
                },
                {
                    "name": "B5",
                    "midi": 83,
                    "time": 264.4999999999974,
                    "velocity": 0.4409448818897638,
                    "duration": 0.18000000000000682
                },
                {
                    "name": "D#6",
                    "midi": 87,
                    "time": 264.4999999999974,
                    "velocity": 0.5196850393700787,
                    "duration": 0.18000000000000682
                },
                {
                    "name": "E6",
                    "midi": 88,
                    "time": 264.6999999999974,
                    "velocity": 0.5275590551181102,
                    "duration": 0.18000000000000682
                },
                {
                    "name": "B5",
                    "midi": 83,
                    "time": 264.6999999999974,
                    "velocity": 0.4409448818897638,
                    "duration": 0.18000000000000682
                },
                {
                    "name": "F6",
                    "midi": 89,
                    "time": 264.89999999999736,
                    "velocity": 0.5354330708661418,
                    "duration": 0.18000000000000682
                },
                {
                    "name": "B5",
                    "midi": 83,
                    "time": 264.89999999999736,
                    "velocity": 0.44881889763779526,
                    "duration": 0.18000000000000682
                },
                {
                    "name": "B5",
                    "midi": 83,
                    "time": 265.09999999999735,
                    "velocity": 0.4566929133858268,
                    "duration": 0.18000000000000682
                },
                {
                    "name": "F#6",
                    "midi": 90,
                    "time": 265.09999999999735,
                    "velocity": 0.5433070866141733,
                    "duration": 0.18000000000000682
                },
                {
                    "name": "G6",
                    "midi": 91,
                    "time": 265.29999999999734,
                    "velocity": 0.5511811023622047,
                    "duration": 0.18000000000000682
                },
                {
                    "name": "B5",
                    "midi": 83,
                    "time": 265.29999999999734,
                    "velocity": 0.4645669291338583,
                    "duration": 0.18000000000000682
                },
                {
                    "name": "B5",
                    "midi": 83,
                    "time": 265.4999999999973,
                    "velocity": 0.4645669291338583,
                    "duration": 0.18000000000000682
                },
                {
                    "name": "G#6",
                    "midi": 92,
                    "time": 265.4999999999973,
                    "velocity": 0.5511811023622047,
                    "duration": 0.18000000000000682
                },
                {
                    "name": "B5",
                    "midi": 83,
                    "time": 265.6999999999973,
                    "velocity": 0.47244094488188976,
                    "duration": 0.18000000000000682
                },
                {
                    "name": "A6",
                    "midi": 93,
                    "time": 265.6999999999973,
                    "velocity": 0.5590551181102362,
                    "duration": 0.18000000000000682
                },
                {
                    "name": "B5",
                    "midi": 83,
                    "time": 265.8999999999973,
                    "velocity": 0.48031496062992124,
                    "duration": 0.18000000000000682
                },
                {
                    "name": "A#6",
                    "midi": 94,
                    "time": 265.8999999999973,
                    "velocity": 0.5669291338582677,
                    "duration": 0.18000000000000682
                },
                {
                    "name": "B5",
                    "midi": 83,
                    "time": 266.0999999999973,
                    "velocity": 0.5669291338582677,
                    "duration": 0.18000000000000682
                },
                {
                    "name": "B6",
                    "midi": 95,
                    "time": 266.0999999999973,
                    "velocity": 0.48031496062992124,
                    "duration": 0.18000000000000682
                },
                {
                    "name": "B6",
                    "midi": 95,
                    "time": 266.2999999999973,
                    "velocity": 0.48031496062992124,
                    "duration": 0.18000000000000682
                },
                {
                    "name": "C6",
                    "midi": 84,
                    "time": 266.2999999999973,
                    "velocity": 0.5748031496062992,
                    "duration": 0.18000000000000682
                },
                {
                    "name": "C#6",
                    "midi": 85,
                    "time": 266.49999999999727,
                    "velocity": 0.5826771653543307,
                    "duration": 0.18000000000000682
                },
                {
                    "name": "B6",
                    "midi": 95,
                    "time": 266.49999999999727,
                    "velocity": 0.4881889763779528,
                    "duration": 0.18000000000000682
                },
                {
                    "name": "B6",
                    "midi": 95,
                    "time": 266.69999999999726,
                    "velocity": 0.4881889763779528,
                    "duration": 0.18000000000000682
                },
                {
                    "name": "D6",
                    "midi": 86,
                    "time": 266.69999999999726,
                    "velocity": 0.5826771653543307,
                    "duration": 0.18000000000000682
                },
                {
                    "name": "B6",
                    "midi": 95,
                    "time": 266.89999999999725,
                    "velocity": 0.49606299212598426,
                    "duration": 0.18000000000000682
                },
                {
                    "name": "D#6",
                    "midi": 87,
                    "time": 266.89999999999725,
                    "velocity": 0.5905511811023622,
                    "duration": 0.18000000000000682
                },
                {
                    "name": "E6",
                    "midi": 88,
                    "time": 267.09999999999724,
                    "velocity": 0.6062992125984252,
                    "duration": 0.18000000000000682
                },
                {
                    "name": "B6",
                    "midi": 95,
                    "time": 267.09999999999724,
                    "velocity": 0.5039370078740157,
                    "duration": 0.18000000000000682
                },
                {
                    "name": "E6",
                    "midi": 88,
                    "time": 267.49999999999727,
                    "velocity": 0.6220472440944882,
                    "duration": 0.18000000000000682
                },
                {
                    "name": "B6",
                    "midi": 95,
                    "time": 267.49999999999727,
                    "velocity": 0.5275590551181102,
                    "duration": 0.18000000000000682
                },
                {
                    "name": "D6",
                    "midi": 86,
                    "time": 267.49999999999727,
                    "velocity": 0.6220472440944882,
                    "duration": 0.18000000000000682
                },
                {
                    "name": "F6",
                    "midi": 89,
                    "time": 267.69999999999726,
                    "velocity": 0.6299212598425197,
                    "duration": 0.18000000000000682
                },
                {
                    "name": "D6",
                    "midi": 86,
                    "time": 267.69999999999726,
                    "velocity": 0.5354330708661418,
                    "duration": 0.18000000000000682
                },
                {
                    "name": "B6",
                    "midi": 95,
                    "time": 267.69999999999726,
                    "velocity": 0.5354330708661418,
                    "duration": 0.18000000000000682
                },
                {
                    "name": "D6",
                    "midi": 86,
                    "time": 267.89999999999725,
                    "velocity": 0.5354330708661418,
                    "duration": 0.18000000000000682
                },
                {
                    "name": "F#6",
                    "midi": 90,
                    "time": 267.89999999999725,
                    "velocity": 0.6377952755905512,
                    "duration": 0.18000000000000682
                },
                {
                    "name": "B6",
                    "midi": 95,
                    "time": 267.89999999999725,
                    "velocity": 0.5354330708661418,
                    "duration": 0.18000000000000682
                },
                {
                    "name": "G6",
                    "midi": 91,
                    "time": 268.09999999999724,
                    "velocity": 0.6456692913385826,
                    "duration": 0.18000000000000682
                },
                {
                    "name": "B6",
                    "midi": 95,
                    "time": 268.09999999999724,
                    "velocity": 0.5433070866141733,
                    "duration": 0.18000000000000682
                },
                {
                    "name": "D6",
                    "midi": 86,
                    "time": 268.09999999999724,
                    "velocity": 0.5433070866141733,
                    "duration": 0.18000000000000682
                },
                {
                    "name": "B6",
                    "midi": 95,
                    "time": 268.2999999999972,
                    "velocity": 0.5511811023622047,
                    "duration": 0.11250000000001137
                },
                {
                    "name": "D6",
                    "midi": 86,
                    "time": 268.2999999999972,
                    "velocity": 0.5511811023622047,
                    "duration": 0.11250000000001137
                },
                {
                    "name": "G#6",
                    "midi": 92,
                    "time": 268.2999999999972,
                    "velocity": 0.6535433070866141,
                    "duration": 0.11250000000001137
                },
                {
                    "name": "G6",
                    "midi": 91,
                    "time": 268.69999999999726,
                    "velocity": 0.5748031496062992,
                    "duration": 0.19999999999998863
                },
                {
                    "name": "E7",
                    "midi": 100,
                    "time": 268.69999999999726,
                    "velocity": 0.6771653543307087,
                    "duration": 0.19999999999998863
                },
                {
                    "name": "C7",
                    "midi": 96,
                    "time": 268.69999999999726,
                    "velocity": 0.5748031496062992,
                    "duration": 0.19999999999998863
                },
                {
                    "name": "D#7",
                    "midi": 99,
                    "time": 268.89999999999725,
                    "velocity": 0.6771653543307087,
                    "duration": 0.19999999999998863
                },
                {
                    "name": "F#6",
                    "midi": 90,
                    "time": 268.89999999999725,
                    "velocity": 0.5748031496062992,
                    "duration": 0.19999999999998863
                },
                {
                    "name": "B6",
                    "midi": 95,
                    "time": 268.89999999999725,
                    "velocity": 0.5748031496062992,
                    "duration": 0.19999999999998863
                },
                {
                    "name": "F6",
                    "midi": 89,
                    "time": 269.09999999999724,
                    "velocity": 0.5669291338582677,
                    "duration": 0.19999999999998863
                },
                {
                    "name": "A#6",
                    "midi": 94,
                    "time": 269.09999999999724,
                    "velocity": 0.5669291338582677,
                    "duration": 0.19999999999998863
                },
                {
                    "name": "D7",
                    "midi": 98,
                    "time": 269.09999999999724,
                    "velocity": 0.6692913385826772,
                    "duration": 0.19999999999998863
                },
                {
                    "name": "C#7",
                    "midi": 97,
                    "time": 269.2999999999972,
                    "velocity": 0.6614173228346457,
                    "duration": 0.19999999999998863
                },
                {
                    "name": "A6",
                    "midi": 93,
                    "time": 269.2999999999972,
                    "velocity": 0.5590551181102362,
                    "duration": 0.19999999999998863
                },
                {
                    "name": "E6",
                    "midi": 88,
                    "time": 269.2999999999972,
                    "velocity": 0.5590551181102362,
                    "duration": 0.19999999999998863
                },
                {
                    "name": "C7",
                    "midi": 96,
                    "time": 269.4999999999972,
                    "velocity": 0.6614173228346457,
                    "duration": 0.19999999999998863
                },
                {
                    "name": "D#6",
                    "midi": 87,
                    "time": 269.4999999999972,
                    "velocity": 0.5590551181102362,
                    "duration": 0.19999999999998863
                },
                {
                    "name": "G#6",
                    "midi": 92,
                    "time": 269.4999999999972,
                    "velocity": 0.5590551181102362,
                    "duration": 0.19999999999998863
                },
                {
                    "name": "B6",
                    "midi": 95,
                    "time": 269.6999999999972,
                    "velocity": 0.6535433070866141,
                    "duration": 0.19999999999998863
                },
                {
                    "name": "D6",
                    "midi": 86,
                    "time": 269.6999999999972,
                    "velocity": 0.5511811023622047,
                    "duration": 0.19999999999998863
                },
                {
                    "name": "G6",
                    "midi": 91,
                    "time": 269.6999999999972,
                    "velocity": 0.5511811023622047,
                    "duration": 0.19999999999998863
                },
                {
                    "name": "A#6",
                    "midi": 94,
                    "time": 269.8999999999972,
                    "velocity": 0.6535433070866141,
                    "duration": 0.19999999999998863
                },
                {
                    "name": "C#6",
                    "midi": 85,
                    "time": 269.8999999999972,
                    "velocity": 0.5511811023622047,
                    "duration": 0.19999999999998863
                },
                {
                    "name": "F#6",
                    "midi": 90,
                    "time": 269.8999999999972,
                    "velocity": 0.6535433070866141,
                    "duration": 0.19999999999998863
                },
                {
                    "name": "F6",
                    "midi": 89,
                    "time": 270.0999999999972,
                    "velocity": 0.5433070866141733,
                    "duration": 0.19999999999998863
                },
                {
                    "name": "C6",
                    "midi": 84,
                    "time": 270.0999999999972,
                    "velocity": 0.5433070866141733,
                    "duration": 0.19999999999998863
                },
                {
                    "name": "A6",
                    "midi": 93,
                    "time": 270.0999999999972,
                    "velocity": 0.6456692913385826,
                    "duration": 0.19999999999998863
                },
                {
                    "name": "B5",
                    "midi": 83,
                    "time": 270.29999999999717,
                    "velocity": 0.5354330708661418,
                    "duration": 0.19999999999998863
                },
                {
                    "name": "E6",
                    "midi": 88,
                    "time": 270.29999999999717,
                    "velocity": 0.5354330708661418,
                    "duration": 0.19999999999998863
                },
                {
                    "name": "G#6",
                    "midi": 92,
                    "time": 270.29999999999717,
                    "velocity": 0.6377952755905512,
                    "duration": 0.19999999999998863
                },
                {
                    "name": "D#6",
                    "midi": 87,
                    "time": 270.49999999999716,
                    "velocity": 0.5354330708661418,
                    "duration": 0.19999999999998863
                },
                {
                    "name": "G6",
                    "midi": 91,
                    "time": 270.49999999999716,
                    "velocity": 0.6377952755905512,
                    "duration": 0.19999999999998863
                },
                {
                    "name": "A#5",
                    "midi": 82,
                    "time": 270.49999999999716,
                    "velocity": 0.5354330708661418,
                    "duration": 0.19999999999998863
                },
                {
                    "name": "F#6",
                    "midi": 90,
                    "time": 270.69999999999715,
                    "velocity": 0.6299212598425197,
                    "duration": 0.19999999999998863
                },
                {
                    "name": "D6",
                    "midi": 86,
                    "time": 270.69999999999715,
                    "velocity": 0.5354330708661418,
                    "duration": 0.19999999999998863
                },
                {
                    "name": "A5",
                    "midi": 81,
                    "time": 270.69999999999715,
                    "velocity": 0.5354330708661418,
                    "duration": 0.19999999999998863
                },
                {
                    "name": "C#6",
                    "midi": 85,
                    "time": 270.89999999999714,
                    "velocity": 0.4409448818897638,
                    "duration": 0.19999999999998863
                },
                {
                    "name": "G#5",
                    "midi": 80,
                    "time": 270.89999999999714,
                    "velocity": 0.4409448818897638,
                    "duration": 0.19999999999998863
                },
                {
                    "name": "F6",
                    "midi": 89,
                    "time": 270.89999999999714,
                    "velocity": 0.6220472440944882,
                    "duration": 0.19999999999998863
                },
                {
                    "name": "G5",
                    "midi": 79,
                    "time": 271.0999999999971,
                    "velocity": 0.4409448818897638,
                    "duration": 0.19999999999998863
                },
                {
                    "name": "E6",
                    "midi": 88,
                    "time": 271.0999999999971,
                    "velocity": 0.6220472440944882,
                    "duration": 0.19999999999998863
                },
                {
                    "name": "C6",
                    "midi": 84,
                    "time": 271.0999999999971,
                    "velocity": 0.4409448818897638,
                    "duration": 0.19999999999998863
                },
                {
                    "name": "F#5",
                    "midi": 78,
                    "time": 271.2999999999971,
                    "velocity": 0.4409448818897638,
                    "duration": 0.19999999999998863
                },
                {
                    "name": "D#6",
                    "midi": 87,
                    "time": 271.2999999999971,
                    "velocity": 0.6141732283464567,
                    "duration": 0.19999999999998863
                },
                {
                    "name": "B5",
                    "midi": 83,
                    "time": 271.2999999999971,
                    "velocity": 0.6141732283464567,
                    "duration": 0.19999999999998863
                },
                {
                    "name": "F5",
                    "midi": 77,
                    "time": 271.4999999999971,
                    "velocity": 0.4330708661417323,
                    "duration": 0.19999999999998863
                },
                {
                    "name": "A#5",
                    "midi": 82,
                    "time": 271.4999999999971,
                    "velocity": 0.4330708661417323,
                    "duration": 0.19999999999998863
                },
                {
                    "name": "D6",
                    "midi": 86,
                    "time": 271.4999999999971,
                    "velocity": 0.6062992125984252,
                    "duration": 0.19999999999998863
                },
                {
                    "name": "C#6",
                    "midi": 85,
                    "time": 271.6999999999971,
                    "velocity": 0.6062992125984252,
                    "duration": 0.19999999999998863
                },
                {
                    "name": "E5",
                    "midi": 76,
                    "time": 271.6999999999971,
                    "velocity": 0.4330708661417323,
                    "duration": 0.19999999999998863
                },
                {
                    "name": "A5",
                    "midi": 81,
                    "time": 271.6999999999971,
                    "velocity": 0.4330708661417323,
                    "duration": 0.19999999999998863
                },
                {
                    "name": "D#5",
                    "midi": 75,
                    "time": 271.8999999999971,
                    "velocity": 0.41732283464566927,
                    "duration": 0.19999999999998863
                },
                {
                    "name": "C6",
                    "midi": 84,
                    "time": 271.8999999999971,
                    "velocity": 0.5905511811023622,
                    "duration": 0.19999999999998863
                },
                {
                    "name": "G#5",
                    "midi": 80,
                    "time": 271.8999999999971,
                    "velocity": 0.41732283464566927,
                    "duration": 0.19999999999998863
                },
                {
                    "name": "G5",
                    "midi": 79,
                    "time": 272.29999999999706,
                    "velocity": 0.4881889763779528,
                    "duration": 0.19999999999998863
                },
                {
                    "name": "B5",
                    "midi": 83,
                    "time": 272.29999999999706,
                    "velocity": 0.5826771653543307,
                    "duration": 0.19999999999998863
                },
                {
                    "name": "D5",
                    "midi": 74,
                    "time": 272.29999999999706,
                    "velocity": 0.4881889763779528,
                    "duration": 0.19999999999998863
                },
                {
                    "name": "A#5",
                    "midi": 82,
                    "time": 272.49999999999704,
                    "velocity": 0.5826771653543307,
                    "duration": 0.19999999999998863
                },
                {
                    "name": "F#5",
                    "midi": 78,
                    "time": 272.49999999999704,
                    "velocity": 0.4881889763779528,
                    "duration": 0.19999999999998863
                },
                {
                    "name": "C#5",
                    "midi": 73,
                    "time": 272.49999999999704,
                    "velocity": 0.4881889763779528,
                    "duration": 0.19999999999998863
                },
                {
                    "name": "C5",
                    "midi": 72,
                    "time": 272.69999999999703,
                    "velocity": 0.48031496062992124,
                    "duration": 0.19999999999998863
                },
                {
                    "name": "F5",
                    "midi": 77,
                    "time": 272.69999999999703,
                    "velocity": 0.5748031496062992,
                    "duration": 0.19999999999998863
                },
                {
                    "name": "A5",
                    "midi": 81,
                    "time": 272.69999999999703,
                    "velocity": 0.5748031496062992,
                    "duration": 0.19999999999998863
                },
                {
                    "name": "G#5",
                    "midi": 80,
                    "time": 272.899999999997,
                    "velocity": 0.5669291338582677,
                    "duration": 0.19999999999998863
                },
                {
                    "name": "D5",
                    "midi": 74,
                    "time": 272.899999999997,
                    "velocity": 0.48031496062992124,
                    "duration": 0.19999999999998863
                },
                {
                    "name": "B4",
                    "midi": 71,
                    "time": 272.899999999997,
                    "velocity": 0.48031496062992124,
                    "duration": 0.19999999999998863
                },
                {
                    "name": "D5",
                    "midi": 74,
                    "time": 273.099999999997,
                    "velocity": 0.48031496062992124,
                    "duration": 0.19999999999998863
                },
                {
                    "name": "G5",
                    "midi": 79,
                    "time": 273.099999999997,
                    "velocity": 0.5669291338582677,
                    "duration": 0.19999999999998863
                },
                {
                    "name": "B4",
                    "midi": 71,
                    "time": 273.099999999997,
                    "velocity": 0.48031496062992124,
                    "duration": 0.19999999999998863
                },
                {
                    "name": "E6",
                    "midi": 88,
                    "time": 273.499999999997,
                    "velocity": 0.5748031496062992,
                    "duration": 0.19999999999998863
                },
                {
                    "name": "G5",
                    "midi": 79,
                    "time": 273.499999999997,
                    "velocity": 0.48031496062992124,
                    "duration": 0.19999999999998863
                },
                {
                    "name": "C6",
                    "midi": 84,
                    "time": 273.499999999997,
                    "velocity": 0.48031496062992124,
                    "duration": 0.19999999999998863
                },
                {
                    "name": "B5",
                    "midi": 83,
                    "time": 273.699999999997,
                    "velocity": 0.48031496062992124,
                    "duration": 0.19999999999998863
                },
                {
                    "name": "F#5",
                    "midi": 78,
                    "time": 273.699999999997,
                    "velocity": 0.48031496062992124,
                    "duration": 0.19999999999998863
                },
                {
                    "name": "D#6",
                    "midi": 87,
                    "time": 273.699999999997,
                    "velocity": 0.5748031496062992,
                    "duration": 0.19999999999998863
                },
                {
                    "name": "D6",
                    "midi": 86,
                    "time": 273.89999999999696,
                    "velocity": 0.5590551181102362,
                    "duration": 0.19999999999998863
                },
                {
                    "name": "A#5",
                    "midi": 82,
                    "time": 273.89999999999696,
                    "velocity": 0.48031496062992124,
                    "duration": 0.19999999999998863
                },
                {
                    "name": "F5",
                    "midi": 77,
                    "time": 273.89999999999696,
                    "velocity": 0.48031496062992124,
                    "duration": 0.19999999999998863
                },
                {
                    "name": "A5",
                    "midi": 81,
                    "time": 274.09999999999695,
                    "velocity": 0.4645669291338583,
                    "duration": 0.19999999999998863
                },
                {
                    "name": "C#6",
                    "midi": 85,
                    "time": 274.09999999999695,
                    "velocity": 0.5511811023622047,
                    "duration": 0.19999999999998863
                },
                {
                    "name": "E5",
                    "midi": 76,
                    "time": 274.09999999999695,
                    "velocity": 0.4645669291338583,
                    "duration": 0.19999999999998863
                },
                {
                    "name": "G#5",
                    "midi": 80,
                    "time": 274.29999999999694,
                    "velocity": 0.4645669291338583,
                    "duration": 0.19999999999998863
                },
                {
                    "name": "D#5",
                    "midi": 75,
                    "time": 274.29999999999694,
                    "velocity": 0.4645669291338583,
                    "duration": 0.19999999999998863
                },
                {
                    "name": "C6",
                    "midi": 84,
                    "time": 274.29999999999694,
                    "velocity": 0.5511811023622047,
                    "duration": 0.19999999999998863
                },
                {
                    "name": "B5",
                    "midi": 83,
                    "time": 274.49999999999693,
                    "velocity": 0.5433070866141733,
                    "duration": 0.19999999999998863
                },
                {
                    "name": "D5",
                    "midi": 74,
                    "time": 274.49999999999693,
                    "velocity": 0.4566929133858268,
                    "duration": 0.19999999999998863
                },
                {
                    "name": "G5",
                    "midi": 79,
                    "time": 274.49999999999693,
                    "velocity": 0.4566929133858268,
                    "duration": 0.19999999999998863
                },
                {
                    "name": "A#5",
                    "midi": 82,
                    "time": 274.6999999999969,
                    "velocity": 0.5433070866141733,
                    "duration": 0.19999999999998863
                },
                {
                    "name": "C#5",
                    "midi": 73,
                    "time": 274.6999999999969,
                    "velocity": 0.4566929133858268,
                    "duration": 0.19999999999998863
                },
                {
                    "name": "F#5",
                    "midi": 78,
                    "time": 274.6999999999969,
                    "velocity": 0.4566929133858268,
                    "duration": 0.19999999999998863
                },
                {
                    "name": "A5",
                    "midi": 81,
                    "time": 274.8999999999969,
                    "velocity": 0.5275590551181102,
                    "duration": 0.19999999999998863
                },
                {
                    "name": "C5",
                    "midi": 72,
                    "time": 274.8999999999969,
                    "velocity": 0.4409448818897638,
                    "duration": 0.19999999999998863
                },
                {
                    "name": "F5",
                    "midi": 77,
                    "time": 274.8999999999969,
                    "velocity": 0.4409448818897638,
                    "duration": 0.19999999999998863
                },
                {
                    "name": "E5",
                    "midi": 76,
                    "time": 275.0999999999969,
                    "velocity": 0.4330708661417323,
                    "duration": 0.19999999999998863
                },
                {
                    "name": "B4",
                    "midi": 71,
                    "time": 275.0999999999969,
                    "velocity": 0.4330708661417323,
                    "duration": 0.19999999999998863
                },
                {
                    "name": "G#5",
                    "midi": 80,
                    "time": 275.0999999999969,
                    "velocity": 0.5196850393700787,
                    "duration": 0.19999999999998863
                },
                {
                    "name": "G5",
                    "midi": 79,
                    "time": 275.2999999999969,
                    "velocity": 0.5118110236220472,
                    "duration": 0.19999999999998863
                },
                {
                    "name": "A#4",
                    "midi": 70,
                    "time": 275.2999999999969,
                    "velocity": 0.4330708661417323,
                    "duration": 0.19999999999998863
                },
                {
                    "name": "D#5",
                    "midi": 75,
                    "time": 275.2999999999969,
                    "velocity": 0.4330708661417323,
                    "duration": 0.19999999999998863
                },
                {
                    "name": "D5",
                    "midi": 74,
                    "time": 275.4999999999969,
                    "velocity": 0.4330708661417323,
                    "duration": 0.19999999999998863
                },
                {
                    "name": "F#5",
                    "midi": 78,
                    "time": 275.4999999999969,
                    "velocity": 0.5118110236220472,
                    "duration": 0.19999999999998863
                },
                {
                    "name": "A4",
                    "midi": 69,
                    "time": 275.4999999999969,
                    "velocity": 0.4330708661417323,
                    "duration": 0.19999999999998863
                },
                {
                    "name": "G#4",
                    "midi": 68,
                    "time": 275.69999999999686,
                    "velocity": 0.41732283464566927,
                    "duration": 0.19999999999998863
                },
                {
                    "name": "C#5",
                    "midi": 73,
                    "time": 275.69999999999686,
                    "velocity": 0.41732283464566927,
                    "duration": 0.19999999999998863
                },
                {
                    "name": "F5",
                    "midi": 77,
                    "time": 275.69999999999686,
                    "velocity": 0.5039370078740157,
                    "duration": 0.19999999999998863
                },
                {
                    "name": "E5",
                    "midi": 76,
                    "time": 275.89999999999685,
                    "velocity": 0.5118110236220472,
                    "duration": 0.19999999999998863
                },
                {
                    "name": "C5",
                    "midi": 72,
                    "time": 275.89999999999685,
                    "velocity": 0.4251968503937008,
                    "duration": 0.19999999999998863
                },
                {
                    "name": "D#5",
                    "midi": 75,
                    "time": 276.09999999999684,
                    "velocity": 0.5039370078740157,
                    "duration": 0.19999999999998863
                },
                {
                    "name": "B4",
                    "midi": 71,
                    "time": 276.09999999999684,
                    "velocity": 0.41732283464566927,
                    "duration": 0.19999999999998863
                },
                {
                    "name": "A#4",
                    "midi": 70,
                    "time": 276.2999999999968,
                    "velocity": 0.4094488188976378,
                    "duration": 0.19999999999998863
                },
                {
                    "name": "D5",
                    "midi": 74,
                    "time": 276.2999999999968,
                    "velocity": 0.4881889763779528,
                    "duration": 0.19999999999998863
                },
                {
                    "name": "E4",
                    "midi": 64,
                    "time": 276.4999999999968,
                    "velocity": 0.3937007874015748,
                    "duration": 0.19999999999998863
                },
                {
                    "name": "A4",
                    "midi": 69,
                    "time": 276.4999999999968,
                    "velocity": 0.3937007874015748,
                    "duration": 0.19999999999998863
                },
                {
                    "name": "C#5",
                    "midi": 73,
                    "time": 276.4999999999968,
                    "velocity": 0.48031496062992124,
                    "duration": 0.19999999999998863
                },
                {
                    "name": "D#4",
                    "midi": 63,
                    "time": 276.6999999999968,
                    "velocity": 0.3937007874015748,
                    "duration": 0.19999999999998863
                },
                {
                    "name": "C5",
                    "midi": 72,
                    "time": 276.6999999999968,
                    "velocity": 0.47244094488188976,
                    "duration": 0.19999999999998863
                },
                {
                    "name": "G#4",
                    "midi": 68,
                    "time": 276.6999999999968,
                    "velocity": 0.3937007874015748,
                    "duration": 0.19999999999998863
                },
                {
                    "name": "G4",
                    "midi": 67,
                    "time": 276.8999999999968,
                    "velocity": 0.3937007874015748,
                    "duration": 0.19999999999998863
                },
                {
                    "name": "B4",
                    "midi": 71,
                    "time": 276.8999999999968,
                    "velocity": 0.4645669291338583,
                    "duration": 0.19999999999998863
                },
                {
                    "name": "D4",
                    "midi": 62,
                    "time": 276.8999999999968,
                    "velocity": 0.3937007874015748,
                    "duration": 0.19999999999998863
                },
                {
                    "name": "A#4",
                    "midi": 70,
                    "time": 277.0999999999968,
                    "velocity": 0.4645669291338583,
                    "duration": 0.19999999999998863
                },
                {
                    "name": "F#4",
                    "midi": 66,
                    "time": 277.0999999999968,
                    "velocity": 0.3937007874015748,
                    "duration": 0.19999999999998863
                },
                {
                    "name": "C#4",
                    "midi": 61,
                    "time": 277.0999999999968,
                    "velocity": 0.3937007874015748,
                    "duration": 0.19999999999998863
                },
                {
                    "name": "C4",
                    "midi": 60,
                    "time": 277.29999999999677,
                    "velocity": 0.3779527559055118,
                    "duration": 0.19999999999998863
                },
                {
                    "name": "A4",
                    "midi": 69,
                    "time": 277.29999999999677,
                    "velocity": 0.4566929133858268,
                    "duration": 0.19999999999998863
                },
                {
                    "name": "F4",
                    "midi": 65,
                    "time": 277.29999999999677,
                    "velocity": 0.3779527559055118,
                    "duration": 0.19999999999998863
                },
                {
                    "name": "E4",
                    "midi": 64,
                    "time": 277.49999999999676,
                    "velocity": 0.3700787401574803,
                    "duration": 0.19999999999998863
                },
                {
                    "name": "B3",
                    "midi": 59,
                    "time": 277.49999999999676,
                    "velocity": 0.3700787401574803,
                    "duration": 0.19999999999998863
                },
                {
                    "name": "G#4",
                    "midi": 68,
                    "time": 277.49999999999676,
                    "velocity": 0.44881889763779526,
                    "duration": 0.19999999999998863
                },
                {
                    "name": "A#3",
                    "midi": 58,
                    "time": 277.69999999999675,
                    "velocity": 0.3700787401574803,
                    "duration": 0.19999999999998863
                },
                {
                    "name": "D#4",
                    "midi": 63,
                    "time": 277.69999999999675,
                    "velocity": 0.3700787401574803,
                    "duration": 0.19999999999998863
                },
                {
                    "name": "G4",
                    "midi": 67,
                    "time": 277.69999999999675,
                    "velocity": 0.4409448818897638,
                    "duration": 0.19999999999998863
                },
                {
                    "name": "A3",
                    "midi": 57,
                    "time": 277.89999999999674,
                    "velocity": 0.36220472440944884,
                    "duration": 0.19999999999998863
                },
                {
                    "name": "F#4",
                    "midi": 66,
                    "time": 277.89999999999674,
                    "velocity": 0.4251968503937008,
                    "duration": 0.19999999999998863
                },
                {
                    "name": "D4",
                    "midi": 62,
                    "time": 277.89999999999674,
                    "velocity": 0.36220472440944884,
                    "duration": 0.19999999999998863
                },
                {
                    "name": "C#4",
                    "midi": 61,
                    "time": 278.0999999999967,
                    "velocity": 0.4251968503937008,
                    "duration": 0.19999999999998863
                },
                {
                    "name": "F4",
                    "midi": 65,
                    "time": 278.0999999999967,
                    "velocity": 0.4251968503937008,
                    "duration": 0.19999999999998863
                },
                {
                    "name": "G#3",
                    "midi": 56,
                    "time": 278.0999999999967,
                    "velocity": 0.36220472440944884,
                    "duration": 0.19999999999998863
                },
                {
                    "name": "E4",
                    "midi": 64,
                    "time": 278.2999999999967,
                    "velocity": 0.41732283464566927,
                    "duration": 0.19999999999998863
                },
                {
                    "name": "C4",
                    "midi": 60,
                    "time": 278.2999999999967,
                    "velocity": 0.3543307086614173,
                    "duration": 0.19999999999998863
                },
                {
                    "name": "G3",
                    "midi": 55,
                    "time": 278.2999999999967,
                    "velocity": 0.3543307086614173,
                    "duration": 0.19999999999998863
                },
                {
                    "name": "F#3",
                    "midi": 54,
                    "time": 278.4999999999967,
                    "velocity": 0.33858267716535434,
                    "duration": 0.19999999999998863
                },
                {
                    "name": "B3",
                    "midi": 59,
                    "time": 278.4999999999967,
                    "velocity": 0.33858267716535434,
                    "duration": 0.19999999999998863
                },
                {
                    "name": "D#4",
                    "midi": 63,
                    "time": 278.4999999999967,
                    "velocity": 0.4094488188976378,
                    "duration": 0.19999999999998863
                },
                {
                    "name": "D4",
                    "midi": 62,
                    "time": 278.6999999999967,
                    "velocity": 0.3937007874015748,
                    "duration": 0.19999999999998863
                },
                {
                    "name": "F3",
                    "midi": 53,
                    "time": 278.6999999999967,
                    "velocity": 0.33858267716535434,
                    "duration": 0.19999999999998863
                },
                {
                    "name": "A#3",
                    "midi": 58,
                    "time": 278.6999999999967,
                    "velocity": 0.33858267716535434,
                    "duration": 0.19999999999998863
                },
                {
                    "name": "E3",
                    "midi": 52,
                    "time": 278.8999999999967,
                    "velocity": 0.33070866141732286,
                    "duration": 0.19999999999998863
                },
                {
                    "name": "A3",
                    "midi": 57,
                    "time": 278.8999999999967,
                    "velocity": 0.33070866141732286,
                    "duration": 0.19999999999998863
                },
                {
                    "name": "C#4",
                    "midi": 61,
                    "time": 278.8999999999967,
                    "velocity": 0.3937007874015748,
                    "duration": 0.19999999999998863
                },
                {
                    "name": "D#3",
                    "midi": 51,
                    "time": 279.09999999999667,
                    "velocity": 0.31496062992125984,
                    "duration": 0.19999999999998863
                },
                {
                    "name": "C4",
                    "midi": 60,
                    "time": 279.09999999999667,
                    "velocity": 0.3779527559055118,
                    "duration": 0.19999999999998863
                },
                {
                    "name": "G#3",
                    "midi": 56,
                    "time": 279.09999999999667,
                    "velocity": 0.31496062992125984,
                    "duration": 0.19999999999998863
                },
                {
                    "name": "D3",
                    "midi": 50,
                    "time": 279.29999999999666,
                    "velocity": 0.30708661417322836,
                    "duration": 0.19999999999998863
                },
                {
                    "name": "G3",
                    "midi": 55,
                    "time": 279.29999999999666,
                    "velocity": 0.30708661417322836,
                    "duration": 0.19999999999998863
                },
                {
                    "name": "B3",
                    "midi": 59,
                    "time": 279.29999999999666,
                    "velocity": 0.3700787401574803,
                    "duration": 0.19999999999998863
                },
                {
                    "name": "F#3",
                    "midi": 54,
                    "time": 279.49999999999665,
                    "velocity": 0.2992125984251969,
                    "duration": 0.19999999999998863
                },
                {
                    "name": "A#3",
                    "midi": 58,
                    "time": 279.49999999999665,
                    "velocity": 0.36220472440944884,
                    "duration": 0.19999999999998863
                },
                {
                    "name": "C#3",
                    "midi": 49,
                    "time": 279.49999999999665,
                    "velocity": 0.2992125984251969,
                    "duration": 0.19999999999998863
                },
                {
                    "name": "F3",
                    "midi": 53,
                    "time": 279.69999999999663,
                    "velocity": 0.29133858267716534,
                    "duration": 0.19999999999998863
                },
                {
                    "name": "A3",
                    "midi": 57,
                    "time": 279.69999999999663,
                    "velocity": 0.3543307086614173,
                    "duration": 0.19999999999998863
                },
                {
                    "name": "C3",
                    "midi": 48,
                    "time": 279.69999999999663,
                    "velocity": 0.29133858267716534,
                    "duration": 0.19999999999998863
                },
                {
                    "name": "G#3",
                    "midi": 56,
                    "time": 279.8999999999966,
                    "velocity": 0.3464566929133858,
                    "duration": 0.19999999999998863
                },
                {
                    "name": "E3",
                    "midi": 52,
                    "time": 279.8999999999966,
                    "velocity": 0.29133858267716534,
                    "duration": 0.19999999999998863
                },
                {
                    "name": "B2",
                    "midi": 47,
                    "time": 279.8999999999966,
                    "velocity": 0.29133858267716534,
                    "duration": 0.19999999999998863
                },
                {
                    "name": "G3",
                    "midi": 55,
                    "time": 280.0999999999966,
                    "velocity": 0.33858267716535434,
                    "duration": 0.19999999999998863
                },
                {
                    "name": "D#3",
                    "midi": 51,
                    "time": 280.0999999999966,
                    "velocity": 0.2755905511811024,
                    "duration": 0.19999999999998863
                },
                {
                    "name": "A#2",
                    "midi": 46,
                    "time": 280.0999999999966,
                    "velocity": 0.2755905511811024,
                    "duration": 0.19999999999998863
                },
                {
                    "name": "D3",
                    "midi": 50,
                    "time": 280.2999999999966,
                    "velocity": 0.2755905511811024,
                    "duration": 0.19999999999998863
                },
                {
                    "name": "A2",
                    "midi": 45,
                    "time": 280.2999999999966,
                    "velocity": 0.2755905511811024,
                    "duration": 0.19999999999998863
                },
                {
                    "name": "F#3",
                    "midi": 54,
                    "time": 280.2999999999966,
                    "velocity": 0.33070866141732286,
                    "duration": 0.19999999999998863
                },
                {
                    "name": "C4",
                    "midi": 60,
                    "time": 288.2999999999966,
                    "velocity": 0.3779527559055118,
                    "duration": 0.6000000000000227
                },
                {
                    "name": "C#4",
                    "midi": 61,
                    "time": 288.8999999999966,
                    "velocity": 0.3858267716535433,
                    "duration": 0.6000000000000227
                },
                {
                    "name": "D4",
                    "midi": 62,
                    "time": 289.49999999999665,
                    "velocity": 0.4094488188976378,
                    "duration": 0.6000000000000227
                },
                {
                    "name": "D#4",
                    "midi": 63,
                    "time": 290.09999999999667,
                    "velocity": 0.41732283464566927,
                    "duration": 0.6000000000000227
                },
                {
                    "name": "E4",
                    "midi": 64,
                    "time": 290.6999999999967,
                    "velocity": 0.44881889763779526,
                    "duration": 0.6000000000000227
                },
                {
                    "name": "F4",
                    "midi": 65,
                    "time": 291.2999999999967,
                    "velocity": 0.4566929133858268,
                    "duration": 0.6000000000000227
                },
                {
                    "name": "F#4",
                    "midi": 66,
                    "time": 291.89999999999674,
                    "velocity": 0.48031496062992124,
                    "duration": 0.6000000000000227
                },
                {
                    "name": "G4",
                    "midi": 67,
                    "time": 292.49999999999676,
                    "velocity": 0.5118110236220472,
                    "duration": 0.6000000000000227
                },
                {
                    "name": "G#4",
                    "midi": 68,
                    "time": 293.0999999999968,
                    "velocity": 0.5196850393700787,
                    "duration": 0.6000000000000227
                },
                {
                    "name": "A4",
                    "midi": 69,
                    "time": 293.6999999999968,
                    "velocity": 0.5433070866141733,
                    "duration": 0.6000000000000227
                },
                {
                    "name": "A#4",
                    "midi": 70,
                    "time": 294.2999999999968,
                    "velocity": 0.5590551181102362,
                    "duration": 0.6000000000000227
                },
                {
                    "name": "B4",
                    "midi": 71,
                    "time": 294.89999999999685,
                    "velocity": 0.5905511811023622,
                    "duration": 0.6000000000000227
                },
                {
                    "name": "C5",
                    "midi": 72,
                    "time": 295.4999999999969,
                    "velocity": 0.6141732283464567,
                    "duration": 0.6000000000000227
                },
                {
                    "name": "C#4",
                    "midi": 61,
                    "time": 296.0999999999969,
                    "velocity": 0.5511811023622047,
                    "duration": 0.30000000000001137
                },
                {
                    "name": "C#5",
                    "midi": 73,
                    "time": 296.0999999999969,
                    "velocity": 0.6299212598425197,
                    "duration": 0.30000000000001137
                },
                {
                    "name": "A#4",
                    "midi": 70,
                    "time": 296.6999999999969,
                    "velocity": 0.5905511811023622,
                    "duration": 1.1999999999999886
                },
                {
                    "name": "A#5",
                    "midi": 82,
                    "time": 296.6999999999969,
                    "velocity": 0.7086614173228346,
                    "duration": 1.1999999999999886
                },
                {
                    "name": "A4",
                    "midi": 69,
                    "time": 297.6999999999969,
                    "velocity": 0.4330708661417323,
                    "duration": 0.19999999999998863
                },
                {
                    "name": "A5",
                    "midi": 81,
                    "time": 297.6999999999969,
                    "velocity": 0.5196850393700787,
                    "duration": 0.19999999999998863
                },
                {
                    "name": "G4",
                    "midi": 67,
                    "time": 297.8999999999969,
                    "velocity": 0.41732283464566927,
                    "duration": 0.20000000000004547
                },
                {
                    "name": "G5",
                    "midi": 79,
                    "time": 297.8999999999969,
                    "velocity": 0.49606299212598426,
                    "duration": 0.20000000000004547
                },
                {
                    "name": "F4",
                    "midi": 65,
                    "time": 298.0987499999969,
                    "velocity": 0.41732283464566927,
                    "duration": 0.20000000000004547
                },
                {
                    "name": "F5",
                    "midi": 77,
                    "time": 298.09999999999695,
                    "velocity": 0.49606299212598426,
                    "duration": 0.20000000000004547
                },
                {
                    "name": "E5",
                    "midi": 76,
                    "time": 298.299999999997,
                    "velocity": 0.5511811023622047,
                    "duration": 0.20000000000004547
                },
                {
                    "name": "E4",
                    "midi": 64,
                    "time": 298.299999999997,
                    "velocity": 0.4645669291338583,
                    "duration": 0.20000000000004547
                },
                {
                    "name": "D4",
                    "midi": 62,
                    "time": 298.496249999997,
                    "velocity": 0.4330708661417323,
                    "duration": 0.20000000000004547
                },
                {
                    "name": "D5",
                    "midi": 74,
                    "time": 298.49999999999704,
                    "velocity": 0.5118110236220472,
                    "duration": 0.20000000000004547
                },
                {
                    "name": "C#5",
                    "midi": 73,
                    "time": 298.6999999999971,
                    "velocity": 0.5748031496062992,
                    "duration": 0.19999999999998863
                },
                {
                    "name": "C#4",
                    "midi": 61,
                    "time": 298.6999999999971,
                    "velocity": 0.4881889763779528,
                    "duration": 0.19999999999998863
                },
                {
                    "name": "E5",
                    "midi": 76,
                    "time": 298.8999999999971,
                    "velocity": 0.5118110236220472,
                    "duration": 0.19999999999998863
                },
                {
                    "name": "E4",
                    "midi": 64,
                    "time": 298.8999999999971,
                    "velocity": 0.4330708661417323,
                    "duration": 0.19999999999998863
                },
                {
                    "name": "C5",
                    "midi": 72,
                    "time": 299.09999999999707,
                    "velocity": 0.5669291338582677,
                    "duration": 0.19999999999998863
                },
                {
                    "name": "C4",
                    "midi": 60,
                    "time": 299.09999999999707,
                    "velocity": 0.47244094488188976,
                    "duration": 0.19999999999998863
                },
                {
                    "name": "E5",
                    "midi": 76,
                    "time": 299.29999999999706,
                    "velocity": 0.5118110236220472,
                    "duration": 0.19999999999998863
                },
                {
                    "name": "E4",
                    "midi": 64,
                    "time": 299.29999999999706,
                    "velocity": 0.4330708661417323,
                    "duration": 0.19999999999998863
                },
                {
                    "name": "B3",
                    "midi": 59,
                    "time": 299.49999999999704,
                    "velocity": 0.47244094488188976,
                    "duration": 0.19999999999998863
                },
                {
                    "name": "B4",
                    "midi": 71,
                    "time": 299.49999999999704,
                    "velocity": 0.5669291338582677,
                    "duration": 0.19999999999998863
                },
                {
                    "name": "E5",
                    "midi": 76,
                    "time": 299.69999999999703,
                    "velocity": 0.5118110236220472,
                    "duration": 0.19999999999998863
                },
                {
                    "name": "E4",
                    "midi": 64,
                    "time": 299.69999999999703,
                    "velocity": 0.4330708661417323,
                    "duration": 0.19999999999998863
                },
                {
                    "name": "A#3",
                    "midi": 58,
                    "time": 299.899999999997,
                    "velocity": 0.47244094488188976,
                    "duration": 0.19999999999998863
                },
                {
                    "name": "A#4",
                    "midi": 70,
                    "time": 299.899999999997,
                    "velocity": 0.5669291338582677,
                    "duration": 0.19999999999998863
                },
                {
                    "name": "E5",
                    "midi": 76,
                    "time": 300.099999999997,
                    "velocity": 0.5196850393700787,
                    "duration": 0.19999999999998863
                },
                {
                    "name": "E4",
                    "midi": 64,
                    "time": 300.099999999997,
                    "velocity": 0.4330708661417323,
                    "duration": 0.19999999999998863
                },
                {
                    "name": "A3",
                    "midi": 57,
                    "time": 300.299999999997,
                    "velocity": 0.47244094488188976,
                    "duration": 0.30000000000001137
                },
                {
                    "name": "A4",
                    "midi": 69,
                    "time": 300.299999999997,
                    "velocity": 0.5669291338582677,
                    "duration": 0.30000000000001137
                },
                {
                    "name": "C#5",
                    "midi": 73,
                    "time": 300.899999999997,
                    "velocity": 0.5905511811023622,
                    "duration": 0.39999999999997726
                },
                {
                    "name": "C#6",
                    "midi": 85,
                    "time": 300.899999999997,
                    "velocity": 0.7086614173228346,
                    "duration": 0.39999999999997726
                },
                {
                    "name": "A#5",
                    "midi": 82,
                    "time": 301.299999999997,
                    "velocity": 0.5196850393700787,
                    "duration": 0.19999999999998863
                },
                {
                    "name": "A#4",
                    "midi": 70,
                    "time": 301.299999999997,
                    "velocity": 0.4330708661417323,
                    "duration": 0.19999999999998863
                },
                {
                    "name": "A5",
                    "midi": 81,
                    "time": 301.499999999997,
                    "velocity": 0.49606299212598426,
                    "duration": 0.19999999999998863
                },
                {
                    "name": "A4",
                    "midi": 69,
                    "time": 301.499999999997,
                    "velocity": 0.41732283464566927,
                    "duration": 0.19999999999998863
                },
                {
                    "name": "G5",
                    "midi": 79,
                    "time": 301.699999999997,
                    "velocity": 0.49606299212598426,
                    "duration": 0.19999999999998863
                },
                {
                    "name": "G4",
                    "midi": 67,
                    "time": 301.699999999997,
                    "velocity": 0.41732283464566927,
                    "duration": 0.19999999999998863
                },
                {
                    "name": "F4",
                    "midi": 65,
                    "time": 301.89999999999696,
                    "velocity": 0.4645669291338583,
                    "duration": 0.19999999999998863
                },
                {
                    "name": "F5",
                    "midi": 77,
                    "time": 301.89999999999696,
                    "velocity": 0.5511811023622047,
                    "duration": 0.19999999999998863
                },
                {
                    "name": "E5",
                    "midi": 76,
                    "time": 302.09999999999695,
                    "velocity": 0.5669291338582677,
                    "duration": 0.19999999999998863
                },
                {
                    "name": "E4",
                    "midi": 64,
                    "time": 302.09999999999695,
                    "velocity": 0.47244094488188976,
                    "duration": 0.19999999999998863
                },
                {
                    "name": "G5",
                    "midi": 79,
                    "time": 302.29999999999694,
                    "velocity": 0.5118110236220472,
                    "duration": 0.19999999999998863
                },
                {
                    "name": "G4",
                    "midi": 67,
                    "time": 302.29999999999694,
                    "velocity": 0.4330708661417323,
                    "duration": 0.19999999999998863
                },
                {
                    "name": "D#4",
                    "midi": 63,
                    "time": 302.49999999999693,
                    "velocity": 0.47244094488188976,
                    "duration": 0.19999999999998863
                },
                {
                    "name": "D#5",
                    "midi": 75,
                    "time": 302.49999999999693,
                    "velocity": 0.5669291338582677,
                    "duration": 0.19999999999998863
                },
                {
                    "name": "G4",
                    "midi": 67,
                    "time": 302.6999999999969,
                    "velocity": 0.4094488188976378,
                    "duration": 0.19999999999998863
                },
                {
                    "name": "G5",
                    "midi": 79,
                    "time": 302.6999999999969,
                    "velocity": 0.4881889763779528,
                    "duration": 0.19999999999998863
                },
                {
                    "name": "D5",
                    "midi": 74,
                    "time": 302.8999999999969,
                    "velocity": 0.5748031496062992,
                    "duration": 0.19999999999998863
                },
                {
                    "name": "D4",
                    "midi": 62,
                    "time": 302.8999999999969,
                    "velocity": 0.4881889763779528,
                    "duration": 0.19999999999998863
                },
                {
                    "name": "G4",
                    "midi": 67,
                    "time": 303.0999999999969,
                    "velocity": 0.4094488188976378,
                    "duration": 0.19999999999998863
                },
                {
                    "name": "G5",
                    "midi": 79,
                    "time": 303.0999999999969,
                    "velocity": 0.4881889763779528,
                    "duration": 0.19999999999998863
                },
                {
                    "name": "C#4",
                    "midi": 61,
                    "time": 303.2999999999969,
                    "velocity": 0.47244094488188976,
                    "duration": 0.19999999999998863
                },
                {
                    "name": "C#5",
                    "midi": 73,
                    "time": 303.2999999999969,
                    "velocity": 0.5669291338582677,
                    "duration": 0.19999999999998863
                },
                {
                    "name": "G4",
                    "midi": 67,
                    "time": 303.4999999999969,
                    "velocity": 0.41732283464566927,
                    "duration": 0.19999999999998863
                },
                {
                    "name": "G5",
                    "midi": 79,
                    "time": 303.4999999999969,
                    "velocity": 0.49606299212598426,
                    "duration": 0.19999999999998863
                },
                {
                    "name": "A#4",
                    "midi": 70,
                    "time": 303.69999999999686,
                    "velocity": 0.5039370078740157,
                    "duration": 0.19999999999998863
                },
                {
                    "name": "A#3",
                    "midi": 58,
                    "time": 303.69999999999686,
                    "velocity": 0.3779527559055118,
                    "duration": 0.19999999999998863
                },
                {
                    "name": "G5",
                    "midi": 79,
                    "time": 303.89999999999685,
                    "velocity": 0.5748031496062992,
                    "duration": 0.14999999999997726
                },
                {
                    "name": "G4",
                    "midi": 67,
                    "time": 303.89999999999685,
                    "velocity": 0.4566929133858268,
                    "duration": 0.14999999999997726
                },
                {
                    "name": "A3",
                    "midi": 57,
                    "time": 304.1999999999968,
                    "velocity": 0.49606299212598426,
                    "duration": 0.14999999999997726
                },
                {
                    "name": "A4",
                    "midi": 69,
                    "time": 304.1999999999968,
                    "velocity": 0.5905511811023622,
                    "duration": 0.14999999999997726
                },
                {
                    "name": "E5",
                    "midi": 76,
                    "time": 304.49999999999676,
                    "velocity": 0.5905511811023622,
                    "duration": 0.39999999999997726
                },
                {
                    "name": "E6",
                    "midi": 88,
                    "time": 304.49999999999676,
                    "velocity": 0.7086614173228346,
                    "duration": 0.39999999999997726
                },
                {
                    "name": "D5",
                    "midi": 74,
                    "time": 304.89999999999674,
                    "velocity": 0.4330708661417323,
                    "duration": 0.19999999999998863
                },
                {
                    "name": "D6",
                    "midi": 86,
                    "time": 304.89999999999674,
                    "velocity": 0.5196850393700787,
                    "duration": 0.19999999999998863
                },
                {
                    "name": "C#6",
                    "midi": 85,
                    "time": 305.0999999999967,
                    "velocity": 0.49606299212598426,
                    "duration": 0.19999999999998863
                },
                {
                    "name": "C#5",
                    "midi": 73,
                    "time": 305.0999999999967,
                    "velocity": 0.41732283464566927,
                    "duration": 0.19999999999998863
                },
                {
                    "name": "A#5",
                    "midi": 82,
                    "time": 305.2999999999967,
                    "velocity": 0.49606299212598426,
                    "duration": 0.19999999999998863
                },
                {
                    "name": "A#4",
                    "midi": 70,
                    "time": 305.2999999999967,
                    "velocity": 0.41732283464566927,
                    "duration": 0.19999999999998863
                },
                {
                    "name": "A5",
                    "midi": 81,
                    "time": 305.4999999999967,
                    "velocity": 0.5511811023622047,
                    "duration": 0.19999999999998863
                },
                {
                    "name": "A4",
                    "midi": 69,
                    "time": 305.4999999999967,
                    "velocity": 0.4645669291338583,
                    "duration": 0.19999999999998863
                },
                {
                    "name": "G5",
                    "midi": 79,
                    "time": 305.6999999999967,
                    "velocity": 0.5039370078740157,
                    "duration": 0.19999999999998863
                },
                {
                    "name": "G6",
                    "midi": 91,
                    "time": 305.6999999999967,
                    "velocity": 0.6062992125984252,
                    "duration": 0.19999999999998863
                },
                {
                    "name": "F6",
                    "midi": 89,
                    "time": 305.8999999999967,
                    "velocity": 0.5669291338582677,
                    "duration": 0.19999999999998863
                },
                {
                    "name": "F5",
                    "midi": 77,
                    "time": 305.8999999999967,
                    "velocity": 0.48031496062992124,
                    "duration": 0.19999999999998863
                },
                {
                    "name": "E6",
                    "midi": 88,
                    "time": 306.09999999999667,
                    "velocity": 0.5590551181102362,
                    "duration": 0.19999999999998863
                },
                {
                    "name": "E5",
                    "midi": 76,
                    "time": 306.09999999999667,
                    "velocity": 0.47244094488188976,
                    "duration": 0.19999999999998863
                },
                {
                    "name": "D6",
                    "midi": 86,
                    "time": 306.29999999999666,
                    "velocity": 0.5354330708661418,
                    "duration": 0.19999999999998863
                },
                {
                    "name": "D5",
                    "midi": 74,
                    "time": 306.29999999999666,
                    "velocity": 0.44881889763779526,
                    "duration": 0.19999999999998863
                },
                {
                    "name": "C#5",
                    "midi": 73,
                    "time": 306.49999999999665,
                    "velocity": 0.44881889763779526,
                    "duration": 0.19999999999998863
                },
                {
                    "name": "C#6",
                    "midi": 85,
                    "time": 306.49999999999665,
                    "velocity": 0.5354330708661418,
                    "duration": 0.19999999999998863
                },
                {
                    "name": "A#6",
                    "midi": 94,
                    "time": 306.69999999999663,
                    "velocity": 0.5905511811023622,
                    "duration": 0.19999999999998863
                },
                {
                    "name": "A#5",
                    "midi": 82,
                    "time": 306.69999999999663,
                    "velocity": 0.49606299212598426,
                    "duration": 0.19999999999998863
                },
                {
                    "name": "A6",
                    "midi": 93,
                    "time": 306.8999999999966,
                    "velocity": 0.6062992125984252,
                    "duration": 0.19999999999998863
                },
                {
                    "name": "A5",
                    "midi": 81,
                    "time": 306.8999999999966,
                    "velocity": 0.5039370078740157,
                    "duration": 0.19999999999998863
                },
                {
                    "name": "G6",
                    "midi": 91,
                    "time": 307.0999999999966,
                    "velocity": 0.5905511811023622,
                    "duration": 0.19999999999998863
                },
                {
                    "name": "G5",
                    "midi": 79,
                    "time": 307.0999999999966,
                    "velocity": 0.49606299212598426,
                    "duration": 0.19999999999998863
                },
                {
                    "name": "F5",
                    "midi": 77,
                    "time": 307.2999999999966,
                    "velocity": 0.4881889763779528,
                    "duration": 0.19999999999998863
                },
                {
                    "name": "F6",
                    "midi": 89,
                    "time": 307.2999999999966,
                    "velocity": 0.5748031496062992,
                    "duration": 0.19999999999998863
                },
                {
                    "name": "E6",
                    "midi": 88,
                    "time": 307.4999999999966,
                    "velocity": 0.5669291338582677,
                    "duration": 0.19999999999998863
                },
                {
                    "name": "E5",
                    "midi": 76,
                    "time": 307.4999999999966,
                    "velocity": 0.48031496062992124,
                    "duration": 0.19999999999998863
                },
                {
                    "name": "E7",
                    "midi": 100,
                    "time": 307.6999999999966,
                    "velocity": 0.6614173228346457,
                    "duration": 0.19999999999998863
                },
                {
                    "name": "E6",
                    "midi": 88,
                    "time": 307.6999999999966,
                    "velocity": 0.5590551181102362,
                    "duration": 0.19999999999998863
                },
                {
                    "name": "D6",
                    "midi": 86,
                    "time": 307.89999999999657,
                    "velocity": 0.5433070866141733,
                    "duration": 0.19999999999998863
                },
                {
                    "name": "D7",
                    "midi": 98,
                    "time": 307.89999999999657,
                    "velocity": 0.6456692913385826,
                    "duration": 0.19999999999998863
                },
                {
                    "name": "C#7",
                    "midi": 97,
                    "time": 308.09999999999656,
                    "velocity": 0.6141732283464567,
                    "duration": 0.19999999999998863
                },
                {
                    "name": "C#6",
                    "midi": 85,
                    "time": 308.09999999999656,
                    "velocity": 0.5118110236220472,
                    "duration": 0.19999999999998863
                },
                {
                    "name": "A#5",
                    "midi": 82,
                    "time": 308.29999999999654,
                    "velocity": 0.5275590551181102,
                    "duration": 0.19999999999998863
                },
                {
                    "name": "A#6",
                    "midi": 94,
                    "time": 308.29999999999654,
                    "velocity": 0.6220472440944882,
                    "duration": 0.19999999999998863
                },
                {
                    "name": "A6",
                    "midi": 93,
                    "time": 308.49999999999653,
                    "velocity": 0.6141732283464567,
                    "duration": 0.19999999999998863
                },
                {
                    "name": "A5",
                    "midi": 81,
                    "time": 308.49999999999653,
                    "velocity": 0.5196850393700787,
                    "duration": 0.19999999999998863
                },
                {
                    "name": "A#5",
                    "midi": 82,
                    "time": 308.6999999999965,
                    "velocity": 0.48031496062992124,
                    "duration": 0.19999999999998863
                },
                {
                    "name": "A#6",
                    "midi": 94,
                    "time": 308.6999999999965,
                    "velocity": 0.5669291338582677,
                    "duration": 0.19999999999998863
                },
                {
                    "name": "G5",
                    "midi": 79,
                    "time": 308.8999999999965,
                    "velocity": 0.49606299212598426,
                    "duration": 0.19999999999998863
                },
                {
                    "name": "G6",
                    "midi": 91,
                    "time": 308.8999999999965,
                    "velocity": 0.5984251968503937,
                    "duration": 0.19999999999998863
                },
                {
                    "name": "A#6",
                    "midi": 94,
                    "time": 309.0999999999965,
                    "velocity": 0.5511811023622047,
                    "duration": 0.19999999999998863
                },
                {
                    "name": "A#5",
                    "midi": 82,
                    "time": 309.0999999999965,
                    "velocity": 0.4645669291338583,
                    "duration": 0.19999999999998863
                },
                {
                    "name": "F5",
                    "midi": 77,
                    "time": 309.2999999999965,
                    "velocity": 0.49606299212598426,
                    "duration": 0.19999999999998863
                },
                {
                    "name": "F6",
                    "midi": 89,
                    "time": 309.2999999999965,
                    "velocity": 0.5984251968503937,
                    "duration": 0.19999999999998863
                },
                {
                    "name": "G6",
                    "midi": 91,
                    "time": 309.4999999999965,
                    "velocity": 0.5511811023622047,
                    "duration": 0.19999999999998863
                },
                {
                    "name": "G5",
                    "midi": 79,
                    "time": 309.4999999999965,
                    "velocity": 0.5511811023622047,
                    "duration": 0.19999999999998863
                },
                {
                    "name": "E5",
                    "midi": 76,
                    "time": 309.69999999999646,
                    "velocity": 0.49606299212598426,
                    "duration": 0.19999999999998863
                },
                {
                    "name": "E6",
                    "midi": 88,
                    "time": 309.69999999999646,
                    "velocity": 0.5984251968503937,
                    "duration": 0.19999999999998863
                },
                {
                    "name": "G6",
                    "midi": 91,
                    "time": 309.89999999999645,
                    "velocity": 0.5511811023622047,
                    "duration": 0.19999999999998863
                },
                {
                    "name": "G5",
                    "midi": 79,
                    "time": 309.89999999999645,
                    "velocity": 0.5511811023622047,
                    "duration": 0.19999999999998863
                },
                {
                    "name": "D6",
                    "midi": 86,
                    "time": 310.09999999999644,
                    "velocity": 0.5984251968503937,
                    "duration": 0.19999999999998863
                },
                {
                    "name": "D5",
                    "midi": 74,
                    "time": 310.09999999999644,
                    "velocity": 0.49606299212598426,
                    "duration": 0.19999999999998863
                },
                {
                    "name": "E5",
                    "midi": 76,
                    "time": 310.29999999999643,
                    "velocity": 0.47244094488188976,
                    "duration": 0.19999999999998863
                },
                {
                    "name": "E6",
                    "midi": 88,
                    "time": 310.29999999999643,
                    "velocity": 0.5590551181102362,
                    "duration": 0.19999999999998863
                },
                {
                    "name": "C#6",
                    "midi": 85,
                    "time": 310.4999999999964,
                    "velocity": 0.6062992125984252,
                    "duration": 0.19999999999998863
                },
                {
                    "name": "C#5",
                    "midi": 73,
                    "time": 310.4999999999964,
                    "velocity": 0.5039370078740157,
                    "duration": 0.19999999999998863
                },
                {
                    "name": "E6",
                    "midi": 88,
                    "time": 310.6999999999964,
                    "velocity": 0.5748031496062992,
                    "duration": 0.19999999999998863
                },
                {
                    "name": "E5",
                    "midi": 76,
                    "time": 310.6999999999964,
                    "velocity": 0.48031496062992124,
                    "duration": 0.19999999999998863
                },
                {
                    "name": "A#4",
                    "midi": 70,
                    "time": 310.8999999999964,
                    "velocity": 0.5039370078740157,
                    "duration": 0.19999999999998863
                },
                {
                    "name": "A#5",
                    "midi": 82,
                    "time": 310.8999999999964,
                    "velocity": 0.6141732283464567,
                    "duration": 0.19999999999998863
                },
                {
                    "name": "C#5",
                    "midi": 73,
                    "time": 311.0999999999964,
                    "velocity": 0.4645669291338583,
                    "duration": 0.19999999999998863
                },
                {
                    "name": "C#6",
                    "midi": 85,
                    "time": 311.0999999999964,
                    "velocity": 0.5433070866141733,
                    "duration": 0.19999999999998863
                },
                {
                    "name": "A5",
                    "midi": 81,
                    "time": 311.2999999999964,
                    "velocity": 0.6220472440944882,
                    "duration": 0.19999999999998863
                },
                {
                    "name": "A4",
                    "midi": 69,
                    "time": 311.2999999999964,
                    "velocity": 0.5196850393700787,
                    "duration": 0.19999999999998863
                },
                {
                    "name": "A#4",
                    "midi": 70,
                    "time": 311.49999999999636,
                    "velocity": 0.48031496062992124,
                    "duration": 0.19999999999998863
                },
                {
                    "name": "A#5",
                    "midi": 82,
                    "time": 311.49999999999636,
                    "velocity": 0.5669291338582677,
                    "duration": 0.19999999999998863
                },
                {
                    "name": "G5",
                    "midi": 79,
                    "time": 311.69999999999635,
                    "velocity": 0.6220472440944882,
                    "duration": 0.19999999999998863
                },
                {
                    "name": "G4",
                    "midi": 67,
                    "time": 311.69999999999635,
                    "velocity": 0.5275590551181102,
                    "duration": 0.19999999999998863
                },
                {
                    "name": "A#5",
                    "midi": 82,
                    "time": 311.89999999999634,
                    "velocity": 0.5748031496062992,
                    "duration": 0.19999999999998863
                },
                {
                    "name": "A#4",
                    "midi": 70,
                    "time": 311.89999999999634,
                    "velocity": 0.48031496062992124,
                    "duration": 0.19999999999998863
                },
                {
                    "name": "F5",
                    "midi": 77,
                    "time": 312.0999999999963,
                    "velocity": 0.6377952755905512,
                    "duration": 0.19999999999998863
                },
                {
                    "name": "F4",
                    "midi": 65,
                    "time": 312.0999999999963,
                    "velocity": 0.5275590551181102,
                    "duration": 0.19999999999998863
                },
                {
                    "name": "G5",
                    "midi": 79,
                    "time": 312.2999999999963,
                    "velocity": 0.5826771653543307,
                    "duration": 0.19999999999998863
                },
                {
                    "name": "G4",
                    "midi": 67,
                    "time": 312.2999999999963,
                    "velocity": 0.4881889763779528,
                    "duration": 0.19999999999998863
                },
                {
                    "name": "E5",
                    "midi": 76,
                    "time": 312.4999999999963,
                    "velocity": 0.6456692913385826,
                    "duration": 0.19999999999998863
                },
                {
                    "name": "E4",
                    "midi": 64,
                    "time": 312.4999999999963,
                    "velocity": 0.5433070866141733,
                    "duration": 0.19999999999998863
                },
                {
                    "name": "G4",
                    "midi": 67,
                    "time": 312.6999999999963,
                    "velocity": 0.49606299212598426,
                    "duration": 0.19999999999998863
                },
                {
                    "name": "G5",
                    "midi": 79,
                    "time": 312.6999999999963,
                    "velocity": 0.5826771653543307,
                    "duration": 0.19999999999998863
                },
                {
                    "name": "D5",
                    "midi": 74,
                    "time": 312.8999999999963,
                    "velocity": 0.6614173228346457,
                    "duration": 0.19999999999998863
                },
                {
                    "name": "D4",
                    "midi": 62,
                    "time": 312.8999999999963,
                    "velocity": 0.5511811023622047,
                    "duration": 0.19999999999998863
                },
                {
                    "name": "E4",
                    "midi": 64,
                    "time": 313.09999999999627,
                    "velocity": 0.5039370078740157,
                    "duration": 0.19999999999998863
                },
                {
                    "name": "E5",
                    "midi": 76,
                    "time": 313.09999999999627,
                    "velocity": 0.5905511811023622,
                    "duration": 0.19999999999998863
                },
                {
                    "name": "C#5",
                    "midi": 73,
                    "time": 313.29999999999626,
                    "velocity": 0.6456692913385826,
                    "duration": 0.19999999999998863
                },
                {
                    "name": "C#4",
                    "midi": 61,
                    "time": 313.29999999999626,
                    "velocity": 0.5354330708661418,
                    "duration": 0.19999999999998863
                },
                {
                    "name": "E5",
                    "midi": 76,
                    "time": 313.49999999999625,
                    "velocity": 0.5748031496062992,
                    "duration": 0.19999999999998863
                },
                {
                    "name": "E4",
                    "midi": 64,
                    "time": 313.49999999999625,
                    "velocity": 0.49606299212598426,
                    "duration": 0.19999999999998863
                },
                {
                    "name": "A#3",
                    "midi": 58,
                    "time": 313.69999999999624,
                    "velocity": 0.5433070866141733,
                    "duration": 0.19999999999998863
                },
                {
                    "name": "A#4",
                    "midi": 70,
                    "time": 313.69999999999624,
                    "velocity": 0.6535433070866141,
                    "duration": 0.19999999999998863
                },
                {
                    "name": "C#4",
                    "midi": 61,
                    "time": 313.8999999999962,
                    "velocity": 0.5039370078740157,
                    "duration": 0.19999999999998863
                },
                {
                    "name": "C#5",
                    "midi": 73,
                    "time": 313.8999999999962,
                    "velocity": 0.5905511811023622,
                    "duration": 0.19999999999998863
                },
                {
                    "name": "A3",
                    "midi": 57,
                    "time": 314.0999999999962,
                    "velocity": 0.5590551181102362,
                    "duration": 0.19999999999998863
                },
                {
                    "name": "A4",
                    "midi": 69,
                    "time": 314.0999999999962,
                    "velocity": 0.6692913385826772,
                    "duration": 0.19999999999998863
                },
                {
                    "name": "A#3",
                    "midi": 58,
                    "time": 314.2999999999962,
                    "velocity": 0.5118110236220472,
                    "duration": 0.19999999999998863
                },
                {
                    "name": "A#4",
                    "midi": 70,
                    "time": 314.2999999999962,
                    "velocity": 0.5984251968503937,
                    "duration": 0.19999999999998863
                },
                {
                    "name": "G#4",
                    "midi": 68,
                    "time": 314.4999999999962,
                    "velocity": 0.6771653543307087,
                    "duration": 0.19999999999998863
                },
                {
                    "name": "G#3",
                    "midi": 56,
                    "time": 314.4999999999962,
                    "velocity": 0.5590551181102362,
                    "duration": 0.19999999999998863
                },
                {
                    "name": "A4",
                    "midi": 69,
                    "time": 314.6999999999962,
                    "velocity": 0.6220472440944882,
                    "duration": 0.19999999999998863
                },
                {
                    "name": "A3",
                    "midi": 57,
                    "time": 314.6999999999962,
                    "velocity": 0.5196850393700787,
                    "duration": 0.19999999999998863
                },
                {
                    "name": "G3",
                    "midi": 55,
                    "time": 314.89999999999617,
                    "velocity": 0.5748031496062992,
                    "duration": 0.19999999999998863
                },
                {
                    "name": "G4",
                    "midi": 67,
                    "time": 314.89999999999617,
                    "velocity": 0.6771653543307087,
                    "duration": 0.19999999999998863
                },
                {
                    "name": "A3",
                    "midi": 57,
                    "time": 315.09999999999616,
                    "velocity": 0.5196850393700787,
                    "duration": 0.19999999999998863
                },
                {
                    "name": "A4",
                    "midi": 69,
                    "time": 315.09999999999616,
                    "velocity": 0.6220472440944882,
                    "duration": 0.19999999999998863
                },
                {
                    "name": "F#4",
                    "midi": 66,
                    "time": 315.29999999999615,
                    "velocity": 0.6771653543307087,
                    "duration": 0.19999999999998863
                },
                {
                    "name": "F#3",
                    "midi": 54,
                    "time": 315.29999999999615,
                    "velocity": 0.5826771653543307,
                    "duration": 0.19999999999998863
                },
                {
                    "name": "A4",
                    "midi": 69,
                    "time": 315.49999999999613,
                    "velocity": 0.6062992125984252,
                    "duration": 0.19999999999998863
                },
                {
                    "name": "A3",
                    "midi": 57,
                    "time": 315.49999999999613,
                    "velocity": 0.5118110236220472,
                    "duration": 0.19999999999998863
                },
                {
                    "name": "F4",
                    "midi": 65,
                    "time": 315.6999999999961,
                    "velocity": 0.6929133858267716,
                    "duration": 0.19999999999998863
                },
                {
                    "name": "F3",
                    "midi": 53,
                    "time": 315.6999999999961,
                    "velocity": 0.5826771653543307,
                    "duration": 0.19999999999998863
                },
                {
                    "name": "A3",
                    "midi": 57,
                    "time": 315.8999999999961,
                    "velocity": 0.5275590551181102,
                    "duration": 0.19999999999998863
                },
                {
                    "name": "A4",
                    "midi": 69,
                    "time": 315.8999999999961,
                    "velocity": 0.6299212598425197,
                    "duration": 0.19999999999998863
                },
                {
                    "name": "E4",
                    "midi": 64,
                    "time": 316.0999999999961,
                    "velocity": 0.6929133858267716,
                    "duration": 0.19999999999998863
                },
                {
                    "name": "E3",
                    "midi": 52,
                    "time": 316.0999999999961,
                    "velocity": 0.5905511811023622,
                    "duration": 0.19999999999998863
                },
                {
                    "name": "A4",
                    "midi": 69,
                    "time": 316.2999999999961,
                    "velocity": 0.6299212598425197,
                    "duration": 0.19999999999998863
                },
                {
                    "name": "A3",
                    "midi": 57,
                    "time": 316.2999999999961,
                    "velocity": 0.5354330708661418,
                    "duration": 0.19999999999998863
                },
                {
                    "name": "D#4",
                    "midi": 63,
                    "time": 316.4999999999961,
                    "velocity": 0.7086614173228346,
                    "duration": 0.30000000000001137
                },
                {
                    "name": "D#3",
                    "midi": 51,
                    "time": 316.4999999999961,
                    "velocity": 0.5984251968503937,
                    "duration": 0.30000000000001137
                },
                {
                    "name": "A4",
                    "midi": 69,
                    "time": 316.7999999999961,
                    "velocity": 0.6535433070866141,
                    "duration": 0.30000000000001137
                },
                {
                    "name": "A3",
                    "midi": 57,
                    "time": 316.7999999999961,
                    "velocity": 0.5590551181102362,
                    "duration": 0.30000000000001137
                },
                {
                    "name": "C3",
                    "midi": 48,
                    "time": 317.0999999999961,
                    "velocity": 0.6062992125984252,
                    "duration": 0.30000000000001137
                },
                {
                    "name": "C4",
                    "midi": 60,
                    "time": 317.0999999999961,
                    "velocity": 0.7165354330708661,
                    "duration": 0.30000000000001137
                },
                {
                    "name": "A4",
                    "midi": 69,
                    "time": 317.3999999999961,
                    "velocity": 0.6535433070866141,
                    "duration": 0.30000000000001137
                },
                {
                    "name": "A3",
                    "midi": 57,
                    "time": 317.3999999999961,
                    "velocity": 0.5590551181102362,
                    "duration": 0.30000000000001137
                },
                {
                    "name": "C#3",
                    "midi": 49,
                    "time": 317.6999999999961,
                    "velocity": 0.6062992125984252,
                    "duration": 0.30000000000001137
                },
                {
                    "name": "C#4",
                    "midi": 61,
                    "time": 317.6999999999961,
                    "velocity": 0.7165354330708661,
                    "duration": 0.30000000000001137
                },
                {
                    "name": "A3",
                    "midi": 57,
                    "time": 317.99999999999613,
                    "velocity": 0.5511811023622047,
                    "duration": 0.22500000000002274
                },
                {
                    "name": "A4",
                    "midi": 69,
                    "time": 317.99999999999613,
                    "velocity": 0.6535433070866141,
                    "duration": 0.22500000000002274
                },
                {
                    "name": "D6",
                    "midi": 86,
                    "time": 318.29999999999615,
                    "velocity": 0.4645669291338583,
                    "duration": 0.6000000000000227
                },
                {
                    "name": "F5",
                    "midi": 77,
                    "time": 318.29999999999615,
                    "velocity": 0.3937007874015748,
                    "duration": 0.6000000000000227
                },
                {
                    "name": "D5",
                    "midi": 74,
                    "time": 318.29999999999615,
                    "velocity": 0.3937007874015748,
                    "duration": 0.6000000000000227
                },
                {
                    "name": "D5",
                    "midi": 74,
                    "time": 319.1999999999962,
                    "velocity": 0.3937007874015748,
                    "duration": 0.6000000000000227
                },
                {
                    "name": "F5",
                    "midi": 77,
                    "time": 319.1999999999962,
                    "velocity": 0.3937007874015748,
                    "duration": 0.6000000000000227
                },
                {
                    "name": "D6",
                    "midi": 86,
                    "time": 319.1999999999962,
                    "velocity": 0.4645669291338583,
                    "duration": 0.6000000000000227
                },
                {
                    "name": "C5",
                    "midi": 72,
                    "time": 319.9499999999962,
                    "velocity": 0.3543307086614173,
                    "duration": 0.14999999999997726
                },
                {
                    "name": "C6",
                    "midi": 84,
                    "time": 319.9499999999962,
                    "velocity": 0.4251968503937008,
                    "duration": 0.14999999999997726
                },
                {
                    "name": "A#5",
                    "midi": 82,
                    "time": 320.09999999999616,
                    "velocity": 0.4645669291338583,
                    "duration": 0.6000000000000227
                },
                {
                    "name": "E5",
                    "midi": 76,
                    "time": 320.09999999999616,
                    "velocity": 0.3937007874015748,
                    "duration": 0.6000000000000227
                },
                {
                    "name": "A#4",
                    "midi": 70,
                    "time": 320.09999999999616,
                    "velocity": 0.3937007874015748,
                    "duration": 0.6000000000000227
                },
                {
                    "name": "A#4",
                    "midi": 70,
                    "time": 320.9999999999962,
                    "velocity": 0.3937007874015748,
                    "duration": 0.6000000000000227
                },
                {
                    "name": "A#5",
                    "midi": 82,
                    "time": 320.9999999999962,
                    "velocity": 0.4645669291338583,
                    "duration": 0.6000000000000227
                },
                {
                    "name": "E5",
                    "midi": 76,
                    "time": 320.9999999999962,
                    "velocity": 0.3937007874015748,
                    "duration": 0.6000000000000227
                },
                {
                    "name": "A#5",
                    "midi": 82,
                    "time": 321.7499999999962,
                    "velocity": 0.4409448818897638,
                    "duration": 0.14999999999997726
                },
                {
                    "name": "A#4",
                    "midi": 70,
                    "time": 321.7499999999962,
                    "velocity": 0.3700787401574803,
                    "duration": 0.14999999999997726
                },
                {
                    "name": "A4",
                    "midi": 69,
                    "time": 321.89999999999617,
                    "velocity": 0.4094488188976378,
                    "duration": 0.6000000000000227
                },
                {
                    "name": "A5",
                    "midi": 81,
                    "time": 321.89999999999617,
                    "velocity": 0.4881889763779528,
                    "duration": 0.6000000000000227
                },
                {
                    "name": "E5",
                    "midi": 76,
                    "time": 321.89999999999617,
                    "velocity": 0.4094488188976378,
                    "duration": 0.6000000000000227
                },
                {
                    "name": "A5",
                    "midi": 81,
                    "time": 322.64999999999617,
                    "velocity": 0.48031496062992124,
                    "duration": 0.14999999999997726
                },
                {
                    "name": "A4",
                    "midi": 69,
                    "time": 322.64999999999617,
                    "velocity": 0.4015748031496063,
                    "duration": 0.14999999999997726
                },
                {
                    "name": "G5",
                    "midi": 79,
                    "time": 322.79999999999615,
                    "velocity": 0.4251968503937008,
                    "duration": 0.6000000000000227
                },
                {
                    "name": "E6",
                    "midi": 88,
                    "time": 322.79999999999615,
                    "velocity": 0.5039370078740157,
                    "duration": 0.6000000000000227
                },
                {
                    "name": "E5",
                    "midi": 76,
                    "time": 322.79999999999615,
                    "velocity": 0.4251968503937008,
                    "duration": 0.6000000000000227
                },
                {
                    "name": "G5",
                    "midi": 79,
                    "time": 323.54999999999615,
                    "velocity": 0.4881889763779528,
                    "duration": 0.14999999999997726
                },
                {
                    "name": "G4",
                    "midi": 67,
                    "time": 323.54999999999615,
                    "velocity": 0.4094488188976378,
                    "duration": 0.14999999999997726
                },
                {
                    "name": "F5",
                    "midi": 77,
                    "time": 323.6999999999961,
                    "velocity": 0.5118110236220472,
                    "duration": 0.6000000000000227
                },
                {
                    "name": "F4",
                    "midi": 65,
                    "time": 323.6999999999961,
                    "velocity": 0.4330708661417323,
                    "duration": 0.6000000000000227
                },
                {
                    "name": "A4",
                    "midi": 69,
                    "time": 323.6999999999961,
                    "velocity": 0.4330708661417323,
                    "duration": 0.6000000000000227
                },
                {
                    "name": "A4",
                    "midi": 69,
                    "time": 324.4499999999961,
                    "velocity": 0.3858267716535433,
                    "duration": 0.14999999999997726
                },
                {
                    "name": "A5",
                    "midi": 81,
                    "time": 324.4499999999961,
                    "velocity": 0.4566929133858268,
                    "duration": 0.14999999999997726
                },
                {
                    "name": "D4",
                    "midi": 62,
                    "time": 324.5999999999961,
                    "velocity": 0.4094488188976378,
                    "duration": 0.6000000000000227
                },
                {
                    "name": "D5",
                    "midi": 74,
                    "time": 324.5999999999961,
                    "velocity": 0.4881889763779528,
                    "duration": 0.6000000000000227
                },
                {
                    "name": "F4",
                    "midi": 65,
                    "time": 324.5999999999961,
                    "velocity": 0.4094488188976378,
                    "duration": 0.6000000000000227
                },
                {
                    "name": "C5",
                    "midi": 72,
                    "time": 325.49999999999613,
                    "velocity": 0.3937007874015748,
                    "duration": 0.6000000000000227
                },
                {
                    "name": "C6",
                    "midi": 84,
                    "time": 325.49999999999613,
                    "velocity": 0.4645669291338583,
                    "duration": 0.6000000000000227
                },
                {
                    "name": "E5",
                    "midi": 76,
                    "time": 325.49999999999613,
                    "velocity": 0.3937007874015748,
                    "duration": 0.6000000000000227
                },
                {
                    "name": "G5",
                    "midi": 79,
                    "time": 326.39999999999617,
                    "velocity": 0.4015748031496063,
                    "duration": 0.6000000000000227
                },
                {
                    "name": "C5",
                    "midi": 72,
                    "time": 326.39999999999617,
                    "velocity": 0.4015748031496063,
                    "duration": 0.6000000000000227
                },
                {
                    "name": "C6",
                    "midi": 84,
                    "time": 326.39999999999617,
                    "velocity": 0.47244094488188976,
                    "duration": 0.6000000000000227
                },
                {
                    "name": "A#4",
                    "midi": 70,
                    "time": 327.14999999999617,
                    "velocity": 0.3700787401574803,
                    "duration": 0.14999999999997726
                },
                {
                    "name": "A#5",
                    "midi": 82,
                    "time": 327.14999999999617,
                    "velocity": 0.4409448818897638,
                    "duration": 0.14999999999997726
                },
                {
                    "name": "F5",
                    "midi": 77,
                    "time": 327.29999999999615,
                    "velocity": 0.41732283464566927,
                    "duration": 0.6000000000000227
                },
                {
                    "name": "A5",
                    "midi": 81,
                    "time": 327.29999999999615,
                    "velocity": 0.4881889763779528,
                    "duration": 0.6000000000000227
                },
                {
                    "name": "A4",
                    "midi": 69,
                    "time": 327.29999999999615,
                    "velocity": 0.41732283464566927,
                    "duration": 0.6000000000000227
                },
                {
                    "name": "C5",
                    "midi": 72,
                    "time": 328.04999999999615,
                    "velocity": 0.3937007874015748,
                    "duration": 0.14999999999997726
                },
                {
                    "name": "C6",
                    "midi": 84,
                    "time": 328.04999999999615,
                    "velocity": 0.47244094488188976,
                    "duration": 0.14999999999997726
                },
                {
                    "name": "F5",
                    "midi": 77,
                    "time": 328.1999999999961,
                    "velocity": 0.5039370078740157,
                    "duration": 0.6000000000000227
                },
                {
                    "name": "A4",
                    "midi": 69,
                    "time": 328.1999999999961,
                    "velocity": 0.4251968503937008,
                    "duration": 0.6000000000000227
                },
                {
                    "name": "F4",
                    "midi": 65,
                    "time": 328.1999999999961,
                    "velocity": 0.4251968503937008,
                    "duration": 0.6000000000000227
                },
                {
                    "name": "E6",
                    "midi": 88,
                    "time": 329.09999999999616,
                    "velocity": 0.5196850393700787,
                    "duration": 0.6000000000000227
                },
                {
                    "name": "G#5",
                    "midi": 80,
                    "time": 329.09999999999616,
                    "velocity": 0.4409448818897638,
                    "duration": 0.6000000000000227
                },
                {
                    "name": "E5",
                    "midi": 76,
                    "time": 329.09999999999616,
                    "velocity": 0.4409448818897638,
                    "duration": 0.6000000000000227
                },
                {
                    "name": "E5",
                    "midi": 76,
                    "time": 329.9999999999962,
                    "velocity": 0.44881889763779526,
                    "duration": 0.6000000000000227
                },
                {
                    "name": "B5",
                    "midi": 83,
                    "time": 329.9999999999962,
                    "velocity": 0.44881889763779526,
                    "duration": 0.6000000000000227
                },
                {
                    "name": "E6",
                    "midi": 88,
                    "time": 329.9999999999962,
                    "velocity": 0.5275590551181102,
                    "duration": 0.6000000000000227
                },
                {
                    "name": "D5",
                    "midi": 74,
                    "time": 330.7499999999962,
                    "velocity": 0.41732283464566927,
                    "duration": 0.14999999999997726
                },
                {
                    "name": "D6",
                    "midi": 86,
                    "time": 330.7499999999962,
                    "velocity": 0.49606299212598426,
                    "duration": 0.14999999999997726
                },
                {
                    "name": "A5",
                    "midi": 81,
                    "time": 330.89999999999617,
                    "velocity": 0.4645669291338583,
                    "duration": 0.6000000000000227
                },
                {
                    "name": "C#5",
                    "midi": 73,
                    "time": 330.89999999999617,
                    "velocity": 0.4645669291338583,
                    "duration": 0.6000000000000227
                },
                {
                    "name": "C#6",
                    "midi": 85,
                    "time": 330.89999999999617,
                    "velocity": 0.5433070866141733,
                    "duration": 0.6000000000000227
                },
                {
                    "name": "E5",
                    "midi": 76,
                    "time": 331.64999999999617,
                    "velocity": 0.4409448818897638,
                    "duration": 0.14999999999997726
                },
                {
                    "name": "E6",
                    "midi": 88,
                    "time": 331.64999999999617,
                    "velocity": 0.5275590551181102,
                    "duration": 0.14999999999997726
                },
                {
                    "name": "A5",
                    "midi": 81,
                    "time": 331.79999999999615,
                    "velocity": 0.5590551181102362,
                    "duration": 0.6000000000000227
                },
                {
                    "name": "A4",
                    "midi": 69,
                    "time": 331.79999999999615,
                    "velocity": 0.47244094488188976,
                    "duration": 0.6000000000000227
                },
                {
                    "name": "C#5",
                    "midi": 73,
                    "time": 331.79999999999615,
                    "velocity": 0.47244094488188976,
                    "duration": 0.6000000000000227
                },
                {
                    "name": "A5",
                    "midi": 81,
                    "time": 332.54999999999615,
                    "velocity": 0.5433070866141733,
                    "duration": 0.14999999999997726
                },
                {
                    "name": "A4",
                    "midi": 69,
                    "time": 332.54999999999615,
                    "velocity": 0.4566929133858268,
                    "duration": 0.14999999999997726
                },
                {
                    "name": "G6",
                    "midi": 91,
                    "time": 332.6999999999961,
                    "velocity": 0.5748031496062992,
                    "duration": 0.6000000000000227
                },
                {
                    "name": "C#6",
                    "midi": 85,
                    "time": 332.6999999999961,
                    "velocity": 0.4881889763779528,
                    "duration": 0.6000000000000227
                },
                {
                    "name": "G5",
                    "midi": 79,
                    "time": 332.6999999999961,
                    "velocity": 0.4881889763779528,
                    "duration": 0.6000000000000227
                },
                {
                    "name": "A5",
                    "midi": 81,
                    "time": 333.59999999999616,
                    "velocity": 0.5748031496062992,
                    "duration": 0.6000000000000227
                },
                {
                    "name": "A4",
                    "midi": 69,
                    "time": 333.59999999999616,
                    "velocity": 0.4881889763779528,
                    "duration": 0.6000000000000227
                },
                {
                    "name": "A5",
                    "midi": 81,
                    "time": 334.34999999999616,
                    "velocity": 0.5275590551181102,
                    "duration": 0.14999999999997726
                },
                {
                    "name": "A4",
                    "midi": 69,
                    "time": 334.34999999999616,
                    "velocity": 0.4409448818897638,
                    "duration": 0.14999999999997726
                },
                {
                    "name": "C6",
                    "midi": 84,
                    "time": 334.49999999999613,
                    "velocity": 0.4881889763779528,
                    "duration": 0.6000000000000227
                },
                {
                    "name": "F#5",
                    "midi": 78,
                    "time": 334.49999999999613,
                    "velocity": 0.4881889763779528,
                    "duration": 0.6000000000000227
                },
                {
                    "name": "F#6",
                    "midi": 90,
                    "time": 334.49999999999613,
                    "velocity": 0.5748031496062992,
                    "duration": 0.6000000000000227
                },
                {
                    "name": "A4",
                    "midi": 69,
                    "time": 335.39999999999617,
                    "velocity": 0.4881889763779528,
                    "duration": 0.6000000000000227
                },
                {
                    "name": "A5",
                    "midi": 81,
                    "time": 335.39999999999617,
                    "velocity": 0.5748031496062992,
                    "duration": 0.6000000000000227
                },
                {
                    "name": "A5",
                    "midi": 81,
                    "time": 336.14999999999617,
                    "velocity": 0.5511811023622047,
                    "duration": 0.14999999999997726
                },
                {
                    "name": "A4",
                    "midi": 69,
                    "time": 336.14999999999617,
                    "velocity": 0.4566929133858268,
                    "duration": 0.14999999999997726
                },
                {
                    "name": "F5",
                    "midi": 77,
                    "time": 336.29999999999615,
                    "velocity": 0.5118110236220472,
                    "duration": 0.6000000000000227
                },
                {
                    "name": "F6",
                    "midi": 89,
                    "time": 336.29999999999615,
                    "velocity": 0.6062992125984252,
                    "duration": 0.6000000000000227
                },
                {
                    "name": "G#5",
                    "midi": 80,
                    "time": 336.29999999999615,
                    "velocity": 0.5118110236220472,
                    "duration": 0.6000000000000227
                },
                {
                    "name": "F6",
                    "midi": 89,
                    "time": 337.04999999999615,
                    "velocity": 0.5984251968503937,
                    "duration": 0.14999999999997726
                },
                {
                    "name": "F5",
                    "midi": 77,
                    "time": 337.04999999999615,
                    "velocity": 0.49606299212598426,
                    "duration": 0.14999999999997726
                },
                {
                    "name": "E5",
                    "midi": 76,
                    "time": 337.1999999999961,
                    "velocity": 0.5275590551181102,
                    "duration": 0.6000000000000227
                },
                {
                    "name": "G#5",
                    "midi": 80,
                    "time": 337.1999999999961,
                    "velocity": 0.5275590551181102,
                    "duration": 0.6000000000000227
                },
                {
                    "name": "E6",
                    "midi": 88,
                    "time": 337.1999999999961,
                    "velocity": 0.6299212598425197,
                    "duration": 0.6000000000000227
                },
                {
                    "name": "D5",
                    "midi": 74,
                    "time": 337.9499999999961,
                    "velocity": 0.5118110236220472,
                    "duration": 0.14999999999997726
                },
                {
                    "name": "D6",
                    "midi": 86,
                    "time": 337.9499999999961,
                    "velocity": 0.6062992125984252,
                    "duration": 0.14999999999997726
                },
                {
                    "name": "C#6",
                    "midi": 85,
                    "time": 338.0999999999961,
                    "velocity": 0.6377952755905512,
                    "duration": 0.6000000000000227
                },
                {
                    "name": "C#5",
                    "midi": 73,
                    "time": 338.0999999999961,
                    "velocity": 0.5354330708661418,
                    "duration": 0.6000000000000227
                },
                {
                    "name": "A5",
                    "midi": 81,
                    "time": 338.0999999999961,
                    "velocity": 0.5354330708661418,
                    "duration": 0.6000000000000227
                },
                {
                    "name": "E6",
                    "midi": 88,
                    "time": 338.8499999999961,
                    "velocity": 0.5669291338582677,
                    "duration": 0.14999999999997726
                },
                {
                    "name": "E5",
                    "midi": 76,
                    "time": 338.8499999999961,
                    "velocity": 0.48031496062992124,
                    "duration": 0.14999999999997726
                },
                {
                    "name": "A5",
                    "midi": 81,
                    "time": 338.9999999999961,
                    "velocity": 0.6062992125984252,
                    "duration": 0.6000000000000227
                },
                {
                    "name": "C#5",
                    "midi": 73,
                    "time": 338.9999999999961,
                    "velocity": 0.5118110236220472,
                    "duration": 0.6000000000000227
                },
                {
                    "name": "A4",
                    "midi": 69,
                    "time": 338.9999999999961,
                    "velocity": 0.5118110236220472,
                    "duration": 0.6000000000000227
                },
                {
                    "name": "A3",
                    "midi": 57,
                    "time": 339.7499999999961,
                    "velocity": 0.48031496062992124,
                    "duration": 0.14999999999997726
                },
                {
                    "name": "A4",
                    "midi": 69,
                    "time": 339.7499999999961,
                    "velocity": 0.5669291338582677,
                    "duration": 0.14999999999997726
                },
                {
                    "name": "C#5",
                    "midi": 73,
                    "time": 339.89999999999606,
                    "velocity": 0.44881889763779526,
                    "duration": 0.6000000000000227
                },
                {
                    "name": "G5",
                    "midi": 79,
                    "time": 339.89999999999606,
                    "velocity": 0.5275590551181102,
                    "duration": 0.6000000000000227
                },
                {
                    "name": "G4",
                    "midi": 67,
                    "time": 339.89999999999606,
                    "velocity": 0.44881889763779526,
                    "duration": 0.6000000000000227
                },
                {
                    "name": "A3",
                    "midi": 57,
                    "time": 340.7999999999961,
                    "velocity": 0.44881889763779526,
                    "duration": 0.6000000000000227
                },
                {
                    "name": "A4",
                    "midi": 69,
                    "time": 340.7999999999961,
                    "velocity": 0.5275590551181102,
                    "duration": 0.6000000000000227
                },
                {
                    "name": "A3",
                    "midi": 57,
                    "time": 341.5499999999961,
                    "velocity": 0.4015748031496063,
                    "duration": 0.14999999999997726
                },
                {
                    "name": "A4",
                    "midi": 69,
                    "time": 341.5499999999961,
                    "velocity": 0.4881889763779528,
                    "duration": 0.14999999999997726
                },
                {
                    "name": "C5",
                    "midi": 72,
                    "time": 341.69999999999607,
                    "velocity": 0.44881889763779526,
                    "duration": 0.6000000000000227
                },
                {
                    "name": "F#4",
                    "midi": 66,
                    "time": 341.69999999999607,
                    "velocity": 0.44881889763779526,
                    "duration": 0.6000000000000227
                },
                {
                    "name": "F#5",
                    "midi": 78,
                    "time": 341.69999999999607,
                    "velocity": 0.5275590551181102,
                    "duration": 0.6000000000000227
                },
                {
                    "name": "A3",
                    "midi": 57,
                    "time": 342.5999999999961,
                    "velocity": 0.44881889763779526,
                    "duration": 0.6000000000000227
                },
                {
                    "name": "A4",
                    "midi": 69,
                    "time": 342.5999999999961,
                    "velocity": 0.5275590551181102,
                    "duration": 0.6000000000000227
                },
                {
                    "name": "A4",
                    "midi": 69,
                    "time": 343.3499999999961,
                    "velocity": 0.5039370078740157,
                    "duration": 0.14999999999997726
                },
                {
                    "name": "A3",
                    "midi": 57,
                    "time": 343.3499999999961,
                    "velocity": 0.4251968503937008,
                    "duration": 0.14999999999997726
                },
                {
                    "name": "F4",
                    "midi": 65,
                    "time": 343.4999999999961,
                    "velocity": 0.4645669291338583,
                    "duration": 0.6000000000000227
                },
                {
                    "name": "G#4",
                    "midi": 68,
                    "time": 343.4999999999961,
                    "velocity": 0.4645669291338583,
                    "duration": 0.6000000000000227
                },
                {
                    "name": "F5",
                    "midi": 77,
                    "time": 343.4999999999961,
                    "velocity": 0.5590551181102362,
                    "duration": 0.6000000000000227
                },
                {
                    "name": "F4",
                    "midi": 65,
                    "time": 344.2499999999961,
                    "velocity": 0.4566929133858268,
                    "duration": 0.14999999999997726
                },
                {
                    "name": "F5",
                    "midi": 77,
                    "time": 344.2499999999961,
                    "velocity": 0.5511811023622047,
                    "duration": 0.14999999999997726
                },
                {
                    "name": "G#4",
                    "midi": 68,
                    "time": 344.39999999999606,
                    "velocity": 0.4881889763779528,
                    "duration": 0.6000000000000227
                },
                {
                    "name": "E5",
                    "midi": 76,
                    "time": 344.39999999999606,
                    "velocity": 0.5748031496062992,
                    "duration": 0.6000000000000227
                },
                {
                    "name": "E4",
                    "midi": 64,
                    "time": 344.39999999999606,
                    "velocity": 0.4881889763779528,
                    "duration": 0.6000000000000227
                },
                {
                    "name": "D5",
                    "midi": 74,
                    "time": 345.14999999999606,
                    "velocity": 0.5590551181102362,
                    "duration": 0.14999999999997726
                },
                {
                    "name": "D4",
                    "midi": 62,
                    "time": 345.14999999999606,
                    "velocity": 0.4645669291338583,
                    "duration": 0.14999999999997726
                },
                {
                    "name": "A4",
                    "midi": 69,
                    "time": 345.29999999999603,
                    "velocity": 0.49606299212598426,
                    "duration": 0.30000000000001137
                },
                {
                    "name": "C#4",
                    "midi": 61,
                    "time": 345.29999999999603,
                    "velocity": 0.49606299212598426,
                    "duration": 0.30000000000001137
                },
                {
                    "name": "C#5",
                    "midi": 73,
                    "time": 345.29999999999603,
                    "velocity": 0.5826771653543307,
                    "duration": 0.30000000000001137
                },
                {
                    "name": "E4",
                    "midi": 64,
                    "time": 345.749999999996,
                    "velocity": 0.3858267716535433,
                    "duration": 0.14999999999997726
                },
                {
                    "name": "C#5",
                    "midi": 73,
                    "time": 345.749999999996,
                    "velocity": 0.4566929133858268,
                    "duration": 0.14999999999997726
                },
                {
                    "name": "G4",
                    "midi": 67,
                    "time": 346.049999999996,
                    "velocity": 0.4015748031496063,
                    "duration": 0.14999999999997726
                },
                {
                    "name": "E5",
                    "midi": 76,
                    "time": 346.049999999996,
                    "velocity": 0.47244094488188976,
                    "duration": 0.14999999999997726
                },
                {
                    "name": "A#4",
                    "midi": 70,
                    "time": 346.34999999999593,
                    "velocity": 0.49606299212598426,
                    "duration": 0.14999999999997726
                },
                {
                    "name": "G5",
                    "midi": 79,
                    "time": 346.34999999999593,
                    "velocity": 0.49606299212598426,
                    "duration": 0.14999999999997726
                },
                {
                    "name": "A#5",
                    "midi": 82,
                    "time": 346.6499999999959,
                    "velocity": 0.5118110236220472,
                    "duration": 0.14999999999997726
                },
                {
                    "name": "C#5",
                    "midi": 73,
                    "time": 346.6499999999959,
                    "velocity": 0.4251968503937008,
                    "duration": 0.14999999999997726
                },
                {
                    "name": "B5",
                    "midi": 83,
                    "time": 346.79999999999586,
                    "velocity": 0.6299212598425197,
                    "duration": 0.14999999999997726
                },
                {
                    "name": "G#5",
                    "midi": 80,
                    "time": 346.79999999999586,
                    "velocity": 0.5275590551181102,
                    "duration": 0.14999999999997726
                },
                {
                    "name": "B4",
                    "midi": 71,
                    "time": 346.79999999999586,
                    "velocity": 0.5275590551181102,
                    "duration": 0.14999999999997726
                },
                {
                    "name": "F5",
                    "midi": 77,
                    "time": 346.79999999999586,
                    "velocity": 0.5275590551181102,
                    "duration": 0.14999999999997726
                },
                {
                    "name": "E5",
                    "midi": 76,
                    "time": 347.0999999999958,
                    "velocity": 0.5590551181102362,
                    "duration": 0.14999999999997726
                },
                {
                    "name": "E6",
                    "midi": 88,
                    "time": 347.0999999999958,
                    "velocity": 0.6614173228346457,
                    "duration": 0.14999999999997726
                },
                {
                    "name": "C#6",
                    "midi": 85,
                    "time": 347.0999999999958,
                    "velocity": 0.5590551181102362,
                    "duration": 0.14999999999997726
                },
                {
                    "name": "A5",
                    "midi": 81,
                    "time": 347.0999999999958,
                    "velocity": 0.5590551181102362,
                    "duration": 0.14999999999997726
                },
                {
                    "name": "C#6",
                    "midi": 85,
                    "time": 347.5499999999958,
                    "velocity": 0.5039370078740157,
                    "duration": 0.14999999999997726
                },
                {
                    "name": "E5",
                    "midi": 76,
                    "time": 347.5499999999958,
                    "velocity": 0.41732283464566927,
                    "duration": 0.14999999999997726
                },
                {
                    "name": "G5",
                    "midi": 79,
                    "time": 347.84999999999576,
                    "velocity": 0.4330708661417323,
                    "duration": 0.14999999999997726
                },
                {
                    "name": "E6",
                    "midi": 88,
                    "time": 347.84999999999576,
                    "velocity": 0.5196850393700787,
                    "duration": 0.14999999999997726
                },
                {
                    "name": "G6",
                    "midi": 91,
                    "time": 348.1499999999957,
                    "velocity": 0.5433070866141733,
                    "duration": 0.14999999999997726
                },
                {
                    "name": "A#5",
                    "midi": 82,
                    "time": 348.1499999999957,
                    "velocity": 0.5433070866141733,
                    "duration": 0.14999999999997726
                },
                {
                    "name": "A#6",
                    "midi": 94,
                    "time": 348.44999999999567,
                    "velocity": 0.5590551181102362,
                    "duration": 0.14999999999997726
                },
                {
                    "name": "C#6",
                    "midi": 85,
                    "time": 348.44999999999567,
                    "velocity": 0.4645669291338583,
                    "duration": 0.14999999999997726
                },
                {
                    "name": "F6",
                    "midi": 89,
                    "time": 348.59999999999565,
                    "velocity": 0.5039370078740157,
                    "duration": 0.14999999999997726
                },
                {
                    "name": "B5",
                    "midi": 83,
                    "time": 348.59999999999565,
                    "velocity": 0.5039370078740157,
                    "duration": 0.14999999999997726
                },
                {
                    "name": "G#6",
                    "midi": 92,
                    "time": 348.59999999999565,
                    "velocity": 0.5039370078740157,
                    "duration": 0.14999999999997726
                },
                {
                    "name": "B6",
                    "midi": 95,
                    "time": 348.59999999999565,
                    "velocity": 0.6062992125984252,
                    "duration": 0.14999999999997726
                },
                {
                    "name": "C#7",
                    "midi": 97,
                    "time": 348.8999999999956,
                    "velocity": 0.5275590551181102,
                    "duration": 0.14999999999997726
                },
                {
                    "name": "E6",
                    "midi": 88,
                    "time": 348.8999999999956,
                    "velocity": 0.5275590551181102,
                    "duration": 0.14999999999997726
                },
                {
                    "name": "A6",
                    "midi": 93,
                    "time": 348.8999999999956,
                    "velocity": 0.5275590551181102,
                    "duration": 0.14999999999997726
                },
                {
                    "name": "E7",
                    "midi": 100,
                    "time": 348.8999999999956,
                    "velocity": 0.6220472440944882,
                    "duration": 0.14999999999997726
                },
                {
                    "name": "G#6",
                    "midi": 92,
                    "time": 349.3499999999956,
                    "velocity": 0.44881889763779526,
                    "duration": 0.14999999999997726
                },
                {
                    "name": "B6",
                    "midi": 95,
                    "time": 349.3499999999956,
                    "velocity": 0.5433070866141733,
                    "duration": 0.14999999999997726
                },
                {
                    "name": "B5",
                    "midi": 83,
                    "time": 349.3499999999956,
                    "velocity": 0.44881889763779526,
                    "duration": 0.14999999999997726
                },
                {
                    "name": "F6",
                    "midi": 89,
                    "time": 349.3499999999956,
                    "velocity": 0.44881889763779526,
                    "duration": 0.14999999999997726
                },
                {
                    "name": "C#7",
                    "midi": 97,
                    "time": 349.49999999999557,
                    "velocity": 0.4645669291338583,
                    "duration": 0.14999999999997726
                },
                {
                    "name": "E7",
                    "midi": 100,
                    "time": 349.49999999999557,
                    "velocity": 0.5590551181102362,
                    "duration": 0.14999999999997726
                },
                {
                    "name": "A6",
                    "midi": 93,
                    "time": 349.49999999999557,
                    "velocity": 0.4645669291338583,
                    "duration": 0.14999999999997726
                },
                {
                    "name": "E6",
                    "midi": 88,
                    "time": 349.49999999999557,
                    "velocity": 0.4645669291338583,
                    "duration": 0.14999999999997726
                },
                {
                    "name": "G#6",
                    "midi": 92,
                    "time": 349.7999999999955,
                    "velocity": 0.44881889763779526,
                    "duration": 0.14999999999997726
                },
                {
                    "name": "B5",
                    "midi": 83,
                    "time": 349.7999999999955,
                    "velocity": 0.44881889763779526,
                    "duration": 0.14999999999997726
                },
                {
                    "name": "B6",
                    "midi": 95,
                    "time": 349.7999999999955,
                    "velocity": 0.5511811023622047,
                    "duration": 0.14999999999997726
                },
                {
                    "name": "F6",
                    "midi": 89,
                    "time": 349.7999999999955,
                    "velocity": 0.44881889763779526,
                    "duration": 0.14999999999997726
                },
                {
                    "name": "A6",
                    "midi": 93,
                    "time": 350.0999999999955,
                    "velocity": 0.48031496062992124,
                    "duration": 0.14999999999997726
                },
                {
                    "name": "C#7",
                    "midi": 97,
                    "time": 350.0999999999955,
                    "velocity": 0.48031496062992124,
                    "duration": 0.14999999999997726
                },
                {
                    "name": "E7",
                    "midi": 100,
                    "time": 350.0999999999955,
                    "velocity": 0.5748031496062992,
                    "duration": 0.14999999999997726
                },
                {
                    "name": "E6",
                    "midi": 88,
                    "time": 350.0999999999955,
                    "velocity": 0.48031496062992124,
                    "duration": 0.14999999999997726
                },
                {
                    "name": "B5",
                    "midi": 83,
                    "time": 350.39999999999543,
                    "velocity": 0.4645669291338583,
                    "duration": 0.14999999999997726
                },
                {
                    "name": "G#6",
                    "midi": 92,
                    "time": 350.39999999999543,
                    "velocity": 0.4645669291338583,
                    "duration": 0.14999999999997726
                },
                {
                    "name": "F6",
                    "midi": 89,
                    "time": 350.39999999999543,
                    "velocity": 0.4645669291338583,
                    "duration": 0.14999999999997726
                },
                {
                    "name": "B6",
                    "midi": 95,
                    "time": 350.39999999999543,
                    "velocity": 0.5590551181102362,
                    "duration": 0.14999999999997726
                },
                {
                    "name": "A6",
                    "midi": 93,
                    "time": 350.6999999999954,
                    "velocity": 0.48031496062992124,
                    "duration": 0.14999999999997726
                },
                {
                    "name": "C#7",
                    "midi": 97,
                    "time": 350.6999999999954,
                    "velocity": 0.48031496062992124,
                    "duration": 0.14999999999997726
                },
                {
                    "name": "E7",
                    "midi": 100,
                    "time": 350.6999999999954,
                    "velocity": 0.5826771653543307,
                    "duration": 0.14999999999997726
                },
                {
                    "name": "E6",
                    "midi": 88,
                    "time": 350.6999999999954,
                    "velocity": 0.48031496062992124,
                    "duration": 0.14999999999997726
                },
                {
                    "name": "F6",
                    "midi": 89,
                    "time": 351.1499999999954,
                    "velocity": 0.47244094488188976,
                    "duration": 0.14999999999997726
                },
                {
                    "name": "B6",
                    "midi": 95,
                    "time": 351.1499999999954,
                    "velocity": 0.5748031496062992,
                    "duration": 0.14999999999997726
                },
                {
                    "name": "G#6",
                    "midi": 92,
                    "time": 351.1499999999954,
                    "velocity": 0.47244094488188976,
                    "duration": 0.14999999999997726
                },
                {
                    "name": "B5",
                    "midi": 83,
                    "time": 351.1499999999954,
                    "velocity": 0.47244094488188976,
                    "duration": 0.14999999999997726
                },
                {
                    "name": "E6",
                    "midi": 88,
                    "time": 351.29999999999535,
                    "velocity": 0.5039370078740157,
                    "duration": 0.14999999999997726
                },
                {
                    "name": "A6",
                    "midi": 93,
                    "time": 351.29999999999535,
                    "velocity": 0.5039370078740157,
                    "duration": 0.14999999999997726
                },
                {
                    "name": "E7",
                    "midi": 100,
                    "time": 351.29999999999535,
                    "velocity": 0.5905511811023622,
                    "duration": 0.14999999999997726
                },
                {
                    "name": "C#7",
                    "midi": 97,
                    "time": 351.29999999999535,
                    "velocity": 0.5039370078740157,
                    "duration": 0.14999999999997726
                },
                {
                    "name": "F6",
                    "midi": 89,
                    "time": 351.5999999999953,
                    "velocity": 0.48031496062992124,
                    "duration": 0.14999999999997726
                },
                {
                    "name": "G#6",
                    "midi": 92,
                    "time": 351.5999999999953,
                    "velocity": 0.48031496062992124,
                    "duration": 0.14999999999997726
                },
                {
                    "name": "B6",
                    "midi": 95,
                    "time": 351.5999999999953,
                    "velocity": 0.5748031496062992,
                    "duration": 0.14999999999997726
                },
                {
                    "name": "B5",
                    "midi": 83,
                    "time": 351.5999999999953,
                    "velocity": 0.48031496062992124,
                    "duration": 0.14999999999997726
                },
                {
                    "name": "E6",
                    "midi": 88,
                    "time": 351.89999999999526,
                    "velocity": 0.5039370078740157,
                    "duration": 0.14999999999997726
                },
                {
                    "name": "C#7",
                    "midi": 97,
                    "time": 351.89999999999526,
                    "velocity": 0.5039370078740157,
                    "duration": 0.14999999999997726
                },
                {
                    "name": "A6",
                    "midi": 93,
                    "time": 351.89999999999526,
                    "velocity": 0.5039370078740157,
                    "duration": 0.14999999999997726
                },
                {
                    "name": "E7",
                    "midi": 100,
                    "time": 351.89999999999526,
                    "velocity": 0.5984251968503937,
                    "duration": 0.14999999999997726
                },
                {
                    "name": "G#6",
                    "midi": 92,
                    "time": 352.1999999999952,
                    "velocity": 0.48031496062992124,
                    "duration": 0.14999999999997726
                },
                {
                    "name": "F6",
                    "midi": 89,
                    "time": 352.1999999999952,
                    "velocity": 0.48031496062992124,
                    "duration": 0.14999999999997726
                },
                {
                    "name": "B6",
                    "midi": 95,
                    "time": 352.1999999999952,
                    "velocity": 0.5826771653543307,
                    "duration": 0.14999999999997726
                },
                {
                    "name": "B5",
                    "midi": 83,
                    "time": 352.1999999999952,
                    "velocity": 0.48031496062992124,
                    "duration": 0.14999999999997726
                },
                {
                    "name": "C#7",
                    "midi": 97,
                    "time": 352.49999999999517,
                    "velocity": 0.5196850393700787,
                    "duration": 0.14999999999997726
                },
                {
                    "name": "E6",
                    "midi": 88,
                    "time": 352.49999999999517,
                    "velocity": 0.5196850393700787,
                    "duration": 0.14999999999997726
                },
                {
                    "name": "E7",
                    "midi": 100,
                    "time": 352.49999999999517,
                    "velocity": 0.6141732283464567,
                    "duration": 0.14999999999997726
                },
                {
                    "name": "A6",
                    "midi": 93,
                    "time": 352.49999999999517,
                    "velocity": 0.5196850393700787,
                    "duration": 0.14999999999997726
                },
                {
                    "name": "G#5",
                    "midi": 80,
                    "time": 352.7999999999951,
                    "velocity": 0.4330708661417323,
                    "duration": 0.14999999999997726
                },
                {
                    "name": "G#4",
                    "midi": 68,
                    "time": 352.7999999999951,
                    "velocity": 0.3700787401574803,
                    "duration": 0.14999999999997726
                },
                {
                    "name": "A4",
                    "midi": 69,
                    "time": 352.9499999999951,
                    "velocity": 0.3700787401574803,
                    "duration": 0.14999999999997726
                },
                {
                    "name": "A5",
                    "midi": 81,
                    "time": 352.9499999999951,
                    "velocity": 0.4330708661417323,
                    "duration": 0.14999999999997726
                },
                {
                    "name": "A#5",
                    "midi": 82,
                    "time": 353.0999999999951,
                    "velocity": 0.4645669291338583,
                    "duration": 0.14999999999997726
                },
                {
                    "name": "A#4",
                    "midi": 70,
                    "time": 353.0999999999951,
                    "velocity": 0.3937007874015748,
                    "duration": 0.14999999999997726
                },
                {
                    "name": "A5",
                    "midi": 81,
                    "time": 353.39999999999503,
                    "velocity": 0.44881889763779526,
                    "duration": 0.14999999999997726
                },
                {
                    "name": "A4",
                    "midi": 69,
                    "time": 353.39999999999503,
                    "velocity": 0.3858267716535433,
                    "duration": 0.14999999999997726
                },
                {
                    "name": "A#5",
                    "midi": 82,
                    "time": 353.549999999995,
                    "velocity": 0.4566929133858268,
                    "duration": 0.14999999999997726
                },
                {
                    "name": "A#4",
                    "midi": 70,
                    "time": 353.549999999995,
                    "velocity": 0.3858267716535433,
                    "duration": 0.14999999999997726
                },
                {
                    "name": "B5",
                    "midi": 83,
                    "time": 353.699999999995,
                    "velocity": 0.49606299212598426,
                    "duration": 0.14999999999997726
                },
                {
                    "name": "B4",
                    "midi": 71,
                    "time": 353.699999999995,
                    "velocity": 0.41732283464566927,
                    "duration": 0.14999999999997726
                },
                {
                    "name": "A#5",
                    "midi": 82,
                    "time": 353.99999999999494,
                    "velocity": 0.47244094488188976,
                    "duration": 0.14999999999997726
                },
                {
                    "name": "A#4",
                    "midi": 70,
                    "time": 353.99999999999494,
                    "velocity": 0.4015748031496063,
                    "duration": 0.14999999999997726
                },
                {
                    "name": "B4",
                    "midi": 71,
                    "time": 354.1499999999949,
                    "velocity": 0.4094488188976378,
                    "duration": 0.14999999999997726
                },
                {
                    "name": "B5",
                    "midi": 83,
                    "time": 354.1499999999949,
                    "velocity": 0.48031496062992124,
                    "duration": 0.14999999999997726
                },
                {
                    "name": "C6",
                    "midi": 84,
                    "time": 354.2999999999949,
                    "velocity": 0.5275590551181102,
                    "duration": 0.14999999999997726
                },
                {
                    "name": "C5",
                    "midi": 72,
                    "time": 354.2999999999949,
                    "velocity": 0.4330708661417323,
                    "duration": 0.14999999999997726
                },
                {
                    "name": "A5",
                    "midi": 81,
                    "time": 354.59999999999485,
                    "velocity": 0.47244094488188976,
                    "duration": 0.14999999999997726
                },
                {
                    "name": "A4",
                    "midi": 69,
                    "time": 354.59999999999485,
                    "velocity": 0.4015748031496063,
                    "duration": 0.14999999999997726
                },
                {
                    "name": "A#5",
                    "midi": 82,
                    "time": 354.7499999999948,
                    "velocity": 0.47244094488188976,
                    "duration": 0.14999999999997726
                },
                {
                    "name": "A#4",
                    "midi": 70,
                    "time": 354.7499999999948,
                    "velocity": 0.4015748031496063,
                    "duration": 0.14999999999997726
                },
                {
                    "name": "B4",
                    "midi": 71,
                    "time": 354.8999999999948,
                    "velocity": 0.4251968503937008,
                    "duration": 0.14999999999997726
                },
                {
                    "name": "B5",
                    "midi": 83,
                    "time": 354.8999999999948,
                    "velocity": 0.5039370078740157,
                    "duration": 0.14999999999997726
                },
                {
                    "name": "A#4",
                    "midi": 70,
                    "time": 355.19999999999476,
                    "velocity": 0.4094488188976378,
                    "duration": 0.14999999999997726
                },
                {
                    "name": "A#5",
                    "midi": 82,
                    "time": 355.19999999999476,
                    "velocity": 0.48031496062992124,
                    "duration": 0.14999999999997726
                },
                {
                    "name": "B5",
                    "midi": 83,
                    "time": 355.34999999999474,
                    "velocity": 0.49606299212598426,
                    "duration": 0.14999999999997726
                },
                {
                    "name": "B4",
                    "midi": 71,
                    "time": 355.34999999999474,
                    "velocity": 0.41732283464566927,
                    "duration": 0.14999999999997726
                },
                {
                    "name": "C6",
                    "midi": 84,
                    "time": 355.4999999999947,
                    "velocity": 0.5354330708661418,
                    "duration": 0.14999999999997726
                },
                {
                    "name": "C5",
                    "midi": 72,
                    "time": 355.4999999999947,
                    "velocity": 0.44881889763779526,
                    "duration": 0.14999999999997726
                },
                {
                    "name": "B5",
                    "midi": 83,
                    "time": 355.79999999999467,
                    "velocity": 0.5196850393700787,
                    "duration": 0.14999999999997726
                },
                {
                    "name": "B4",
                    "midi": 71,
                    "time": 355.79999999999467,
                    "velocity": 0.4330708661417323,
                    "duration": 0.14999999999997726
                },
                {
                    "name": "C5",
                    "midi": 72,
                    "time": 355.94999999999465,
                    "velocity": 0.4409448818897638,
                    "duration": 0.14999999999997726
                },
                {
                    "name": "C6",
                    "midi": 84,
                    "time": 355.94999999999465,
                    "velocity": 0.5275590551181102,
                    "duration": 0.14999999999997726
                },
                {
                    "name": "C#6",
                    "midi": 85,
                    "time": 356.0999999999946,
                    "velocity": 0.5669291338582677,
                    "duration": 0.14999999999997726
                },
                {
                    "name": "C#5",
                    "midi": 73,
                    "time": 356.0999999999946,
                    "velocity": 0.47244094488188976,
                    "duration": 0.14999999999997726
                },
                {
                    "name": "A#4",
                    "midi": 70,
                    "time": 356.3999999999946,
                    "velocity": 0.44881889763779526,
                    "duration": 0.14999999999997726
                },
                {
                    "name": "A#5",
                    "midi": 82,
                    "time": 356.3999999999946,
                    "velocity": 0.5433070866141733,
                    "duration": 0.14999999999997726
                },
                {
                    "name": "B5",
                    "midi": 83,
                    "time": 356.54999999999455,
                    "velocity": 0.5433070866141733,
                    "duration": 0.14999999999997726
                },
                {
                    "name": "B4",
                    "midi": 71,
                    "time": 356.54999999999455,
                    "velocity": 0.44881889763779526,
                    "duration": 0.14999999999997726
                },
                {
                    "name": "C6",
                    "midi": 84,
                    "time": 356.69999999999453,
                    "velocity": 0.5826771653543307,
                    "duration": 0.14999999999997726
                },
                {
                    "name": "C5",
                    "midi": 72,
                    "time": 356.69999999999453,
                    "velocity": 0.48031496062992124,
                    "duration": 0.14999999999997726
                },
                {
                    "name": "B4",
                    "midi": 71,
                    "time": 356.9999999999945,
                    "velocity": 0.4645669291338583,
                    "duration": 0.14999999999997726
                },
                {
                    "name": "B5",
                    "midi": 83,
                    "time": 356.9999999999945,
                    "velocity": 0.5590551181102362,
                    "duration": 0.14999999999997726
                },
                {
                    "name": "C6",
                    "midi": 84,
                    "time": 357.14999999999446,
                    "velocity": 0.5669291338582677,
                    "duration": 0.14999999999997726
                },
                {
                    "name": "C5",
                    "midi": 72,
                    "time": 357.14999999999446,
                    "velocity": 0.47244094488188976,
                    "duration": 0.14999999999997726
                },
                {
                    "name": "C#6",
                    "midi": 85,
                    "time": 357.29999999999444,
                    "velocity": 0.6062992125984252,
                    "duration": 0.14999999999997726
                },
                {
                    "name": "C#5",
                    "midi": 73,
                    "time": 357.29999999999444,
                    "velocity": 0.5039370078740157,
                    "duration": 0.14999999999997726
                },
                {
                    "name": "C5",
                    "midi": 72,
                    "time": 357.5999999999944,
                    "velocity": 0.48031496062992124,
                    "duration": 0.14999999999997726
                },
                {
                    "name": "C6",
                    "midi": 84,
                    "time": 357.5999999999944,
                    "velocity": 0.5826771653543307,
                    "duration": 0.14999999999997726
                },
                {
                    "name": "C#5",
                    "midi": 73,
                    "time": 357.7499999999944,
                    "velocity": 0.48031496062992124,
                    "duration": 0.14999999999997726
                },
                {
                    "name": "C#6",
                    "midi": 85,
                    "time": 357.7499999999944,
                    "velocity": 0.5826771653543307,
                    "duration": 0.14999999999997726
                },
                {
                    "name": "D6",
                    "midi": 86,
                    "time": 357.89999999999435,
                    "velocity": 0.6535433070866141,
                    "duration": 0.22500000000002274
                },
                {
                    "name": "D5",
                    "midi": 74,
                    "time": 357.89999999999435,
                    "velocity": 0.5511811023622047,
                    "duration": 0.22500000000002274
                },
                {
                    "name": "G#4",
                    "midi": 68,
                    "time": 358.1249999999944,
                    "velocity": 0.3937007874015748,
                    "duration": 0.07499999999998863
                },
                {
                    "name": "F4",
                    "midi": 65,
                    "time": 358.1249999999944,
                    "velocity": 0.33070866141732286,
                    "duration": 0.07499999999998863
                },
                {
                    "name": "A4",
                    "midi": 69,
                    "time": 358.19999999999436,
                    "velocity": 0.47244094488188976,
                    "duration": 0.22500000000002274
                },
                {
                    "name": "F#4",
                    "midi": 66,
                    "time": 358.19999999999436,
                    "velocity": 0.4015748031496063,
                    "duration": 0.22500000000002274
                },
                {
                    "name": "D6",
                    "midi": 86,
                    "time": 358.4999999999944,
                    "velocity": 0.6535433070866141,
                    "duration": 0.22500000000002274
                },
                {
                    "name": "D5",
                    "midi": 74,
                    "time": 358.4999999999944,
                    "velocity": 0.5511811023622047,
                    "duration": 0.22500000000002274
                },
                {
                    "name": "G#4",
                    "midi": 68,
                    "time": 358.7249999999944,
                    "velocity": 0.3937007874015748,
                    "duration": 0.07499999999998863
                },
                {
                    "name": "F4",
                    "midi": 65,
                    "time": 358.7249999999944,
                    "velocity": 0.33070866141732286,
                    "duration": 0.07499999999998863
                },
                {
                    "name": "A4",
                    "midi": 69,
                    "time": 358.7999999999944,
                    "velocity": 0.47244094488188976,
                    "duration": 0.2249999999999659
                },
                {
                    "name": "F#4",
                    "midi": 66,
                    "time": 358.7999999999944,
                    "velocity": 0.4015748031496063,
                    "duration": 0.2249999999999659
                },
                {
                    "name": "C6",
                    "midi": 84,
                    "time": 358.94999999999436,
                    "velocity": 0.5354330708661418,
                    "duration": 0.14999999999997726
                },
                {
                    "name": "C5",
                    "midi": 72,
                    "time": 358.94999999999436,
                    "velocity": 0.44881889763779526,
                    "duration": 0.14999999999997726
                },
                {
                    "name": "A#5",
                    "midi": 82,
                    "time": 359.09999999999434,
                    "velocity": 0.6535433070866141,
                    "duration": 0.22500000000002274
                },
                {
                    "name": "A#4",
                    "midi": 70,
                    "time": 359.09999999999434,
                    "velocity": 0.5511811023622047,
                    "duration": 0.22500000000002274
                },
                {
                    "name": "F#4",
                    "midi": 66,
                    "time": 359.32499999999436,
                    "velocity": 0.3937007874015748,
                    "duration": 0.07499999999998863
                },
                {
                    "name": "D#4",
                    "midi": 63,
                    "time": 359.32499999999436,
                    "velocity": 0.33070866141732286,
                    "duration": 0.07499999999998863
                },
                {
                    "name": "E4",
                    "midi": 64,
                    "time": 359.39999999999435,
                    "velocity": 0.4015748031496063,
                    "duration": 0.22500000000002274
                },
                {
                    "name": "G4",
                    "midi": 67,
                    "time": 359.39999999999435,
                    "velocity": 0.47244094488188976,
                    "duration": 0.22500000000002274
                },
                {
                    "name": "A#5",
                    "midi": 82,
                    "time": 359.69999999999436,
                    "velocity": 0.6614173228346457,
                    "duration": 0.22500000000002274
                },
                {
                    "name": "A#4",
                    "midi": 70,
                    "time": 359.69999999999436,
                    "velocity": 0.5590551181102362,
                    "duration": 0.22500000000002274
                },
                {
                    "name": "D#4",
                    "midi": 63,
                    "time": 359.9249999999944,
                    "velocity": 0.33070866141732286,
                    "duration": 0.07499999999998863
                },
                {
                    "name": "F#4",
                    "midi": 66,
                    "time": 359.9249999999944,
                    "velocity": 0.3937007874015748,
                    "duration": 0.07499999999998863
                },
                {
                    "name": "G4",
                    "midi": 67,
                    "time": 359.9999999999944,
                    "velocity": 0.47244094488188976,
                    "duration": 0.2249999999999659
                },
                {
                    "name": "E4",
                    "midi": 64,
                    "time": 359.9999999999944,
                    "velocity": 0.4015748031496063,
                    "duration": 0.2249999999999659
                },
                {
                    "name": "A#5",
                    "midi": 82,
                    "time": 360.14999999999435,
                    "velocity": 0.5354330708661418,
                    "duration": 0.14999999999997726
                },
                {
                    "name": "A#4",
                    "midi": 70,
                    "time": 360.14999999999435,
                    "velocity": 0.44881889763779526,
                    "duration": 0.14999999999997726
                },
                {
                    "name": "A5",
                    "midi": 81,
                    "time": 360.2999999999943,
                    "velocity": 0.6456692913385826,
                    "duration": 0.22500000000002274
                },
                {
                    "name": "A4",
                    "midi": 69,
                    "time": 360.2999999999943,
                    "velocity": 0.5433070866141733,
                    "duration": 0.22500000000002274
                },
                {
                    "name": "D#4",
                    "midi": 63,
                    "time": 360.52499999999435,
                    "velocity": 0.3937007874015748,
                    "duration": 0.07499999999998863
                },
                {
                    "name": "C4",
                    "midi": 60,
                    "time": 360.52499999999435,
                    "velocity": 0.33070866141732286,
                    "duration": 0.07499999999998863
                },
                {
                    "name": "C#4",
                    "midi": 61,
                    "time": 360.59999999999434,
                    "velocity": 0.4015748031496063,
                    "duration": 0.2249999999999659
                },
                {
                    "name": "E4",
                    "midi": 64,
                    "time": 360.59999999999434,
                    "velocity": 0.47244094488188976,
                    "duration": 0.2249999999999659
                },
                {
                    "name": "A5",
                    "midi": 81,
                    "time": 360.7499999999943,
                    "velocity": 0.5905511811023622,
                    "duration": 0.14999999999997726
                },
                {
                    "name": "A4",
                    "midi": 69,
                    "time": 360.7499999999943,
                    "velocity": 0.49606299212598426,
                    "duration": 0.14999999999997726
                },
                {
                    "name": "E5",
                    "midi": 76,
                    "time": 360.8999999999943,
                    "velocity": 0.5354330708661418,
                    "duration": 0.22500000000002274
                },
                {
                    "name": "E6",
                    "midi": 88,
                    "time": 360.8999999999943,
                    "velocity": 0.6535433070866141,
                    "duration": 0.22500000000002274
                },
                {
                    "name": "D#4",
                    "midi": 63,
                    "time": 361.1249999999943,
                    "velocity": 0.3937007874015748,
                    "duration": 0.07499999999998863
                },
                {
                    "name": "C4",
                    "midi": 60,
                    "time": 361.1249999999943,
                    "velocity": 0.33070866141732286,
                    "duration": 0.07499999999998863
                },
                {
                    "name": "C#4",
                    "midi": 61,
                    "time": 361.1999999999943,
                    "velocity": 0.4015748031496063,
                    "duration": 0.2249999999999659
                },
                {
                    "name": "E4",
                    "midi": 64,
                    "time": 361.1999999999943,
                    "velocity": 0.47244094488188976,
                    "duration": 0.2249999999999659
                },
                {
                    "name": "G4",
                    "midi": 67,
                    "time": 361.3499999999943,
                    "velocity": 0.44881889763779526,
                    "duration": 0.14999999999997726
                },
                {
                    "name": "G5",
                    "midi": 79,
                    "time": 361.3499999999943,
                    "velocity": 0.5354330708661418,
                    "duration": 0.14999999999997726
                },
                {
                    "name": "F#4",
                    "midi": 66,
                    "time": 361.49999999999426,
                    "velocity": 0.5433070866141733,
                    "duration": 0.22500000000002274
                },
                {
                    "name": "F#5",
                    "midi": 78,
                    "time": 361.49999999999426,
                    "velocity": 0.6456692913385826,
                    "duration": 0.22500000000002274
                },
                {
                    "name": "F4",
                    "midi": 65,
                    "time": 361.7249999999943,
                    "velocity": 0.33070866141732286,
                    "duration": 0.07499999999998863
                },
                {
                    "name": "G#4",
                    "midi": 68,
                    "time": 361.7249999999943,
                    "velocity": 0.3937007874015748,
                    "duration": 0.07499999999998863
                },
                {
                    "name": "F#4",
                    "midi": 66,
                    "time": 361.79999999999427,
                    "velocity": 0.4015748031496063,
                    "duration": 0.2249999999999659
                },
                {
                    "name": "A4",
                    "midi": 69,
                    "time": 361.79999999999427,
                    "velocity": 0.47244094488188976,
                    "duration": 0.2249999999999659
                },
                {
                    "name": "A4",
                    "midi": 69,
                    "time": 361.94999999999425,
                    "velocity": 0.4330708661417323,
                    "duration": 0.14999999999997726
                },
                {
                    "name": "A5",
                    "midi": 81,
                    "time": 361.94999999999425,
                    "velocity": 0.5118110236220472,
                    "duration": 0.14999999999997726
                },
                {
                    "name": "D5",
                    "midi": 74,
                    "time": 362.0999999999942,
                    "velocity": 0.6220472440944882,
                    "duration": 0.22500000000002274
                },
                {
                    "name": "D4",
                    "midi": 62,
                    "time": 362.0999999999942,
                    "velocity": 0.5275590551181102,
                    "duration": 0.22500000000002274
                },
                {
                    "name": "F4",
                    "midi": 65,
                    "time": 362.32499999999425,
                    "velocity": 0.3937007874015748,
                    "duration": 0.07499999999998863
                },
                {
                    "name": "C#4",
                    "midi": 61,
                    "time": 362.32499999999425,
                    "velocity": 0.33070866141732286,
                    "duration": 0.07499999999998863
                },
                {
                    "name": "F#4",
                    "midi": 66,
                    "time": 362.39999999999424,
                    "velocity": 0.47244094488188976,
                    "duration": 0.22500000000002274
                },
                {
                    "name": "D4",
                    "midi": 62,
                    "time": 362.39999999999424,
                    "velocity": 0.4015748031496063,
                    "duration": 0.22500000000002274
                },
                {
                    "name": "C#5",
                    "midi": 73,
                    "time": 362.69999999999425,
                    "velocity": 0.5511811023622047,
                    "duration": 0.22500000000002274
                },
                {
                    "name": "C#6",
                    "midi": 85,
                    "time": 362.69999999999425,
                    "velocity": 0.6535433070866141,
                    "duration": 0.22500000000002274
                },
                {
                    "name": "E4",
                    "midi": 64,
                    "time": 362.92499999999427,
                    "velocity": 0.33070866141732286,
                    "duration": 0.07499999999998863
                },
                {
                    "name": "G4",
                    "midi": 67,
                    "time": 362.92499999999427,
                    "velocity": 0.3937007874015748,
                    "duration": 0.07499999999998863
                },
                {
                    "name": "G#4",
                    "midi": 68,
                    "time": 362.99999999999426,
                    "velocity": 0.47244094488188976,
                    "duration": 0.22500000000002274
                },
                {
                    "name": "F4",
                    "midi": 65,
                    "time": 362.99999999999426,
                    "velocity": 0.4015748031496063,
                    "duration": 0.22500000000002274
                },
                {
                    "name": "C#5",
                    "midi": 73,
                    "time": 363.29999999999427,
                    "velocity": 0.5511811023622047,
                    "duration": 0.22500000000002274
                },
                {
                    "name": "C#6",
                    "midi": 85,
                    "time": 363.29999999999427,
                    "velocity": 0.6535433070866141,
                    "duration": 0.22500000000002274
                },
                {
                    "name": "E4",
                    "midi": 64,
                    "time": 363.5249999999943,
                    "velocity": 0.33070866141732286,
                    "duration": 0.07499999999998863
                },
                {
                    "name": "G4",
                    "midi": 67,
                    "time": 363.5249999999943,
                    "velocity": 0.3937007874015748,
                    "duration": 0.07499999999998863
                },
                {
                    "name": "G#4",
                    "midi": 68,
                    "time": 363.5999999999943,
                    "velocity": 0.47244094488188976,
                    "duration": 0.2249999999999659
                },
                {
                    "name": "F4",
                    "midi": 65,
                    "time": 363.5999999999943,
                    "velocity": 0.4015748031496063,
                    "duration": 0.2249999999999659
                },
                {
                    "name": "B4",
                    "midi": 71,
                    "time": 363.74999999999426,
                    "velocity": 0.44881889763779526,
                    "duration": 0.14999999999997726
                },
                {
                    "name": "B5",
                    "midi": 83,
                    "time": 363.74999999999426,
                    "velocity": 0.5354330708661418,
                    "duration": 0.14999999999997726
                },
                {
                    "name": "A4",
                    "midi": 69,
                    "time": 363.89999999999424,
                    "velocity": 0.5511811023622047,
                    "duration": 0.22500000000002274
                },
                {
                    "name": "A5",
                    "midi": 81,
                    "time": 363.89999999999424,
                    "velocity": 0.6535433070866141,
                    "duration": 0.22500000000002274
                },
                {
                    "name": "F4",
                    "midi": 65,
                    "time": 364.12499999999426,
                    "velocity": 0.33070866141732286,
                    "duration": 0.07499999999998863
                },
                {
                    "name": "G#4",
                    "midi": 68,
                    "time": 364.12499999999426,
                    "velocity": 0.3937007874015748,
                    "duration": 0.07499999999998863
                },
                {
                    "name": "F#4",
                    "midi": 66,
                    "time": 364.19999999999425,
                    "velocity": 0.4015748031496063,
                    "duration": 0.22500000000002274
                },
                {
                    "name": "A4",
                    "midi": 69,
                    "time": 364.19999999999425,
                    "velocity": 0.47244094488188976,
                    "duration": 0.22500000000002274
                },
                {
                    "name": "F#4",
                    "midi": 66,
                    "time": 364.49999999999426,
                    "velocity": 0.5590551181102362,
                    "duration": 0.22500000000002274
                },
                {
                    "name": "F#5",
                    "midi": 78,
                    "time": 364.49999999999426,
                    "velocity": 0.6614173228346457,
                    "duration": 0.22500000000002274
                },
                {
                    "name": "F4",
                    "midi": 65,
                    "time": 364.7249999999943,
                    "velocity": 0.33070866141732286,
                    "duration": 0.07499999999998863
                },
                {
                    "name": "G#4",
                    "midi": 68,
                    "time": 364.7249999999943,
                    "velocity": 0.3937007874015748,
                    "duration": 0.07499999999998863
                },
                {
                    "name": "F#4",
                    "midi": 66,
                    "time": 364.79999999999427,
                    "velocity": 0.4015748031496063,
                    "duration": 0.2249999999999659
                },
                {
                    "name": "A4",
                    "midi": 69,
                    "time": 364.79999999999427,
                    "velocity": 0.47244094488188976,
                    "duration": 0.2249999999999659
                },
                {
                    "name": "A5",
                    "midi": 81,
                    "time": 364.94999999999425,
                    "velocity": 0.5354330708661418,
                    "duration": 0.14999999999997726
                },
                {
                    "name": "A4",
                    "midi": 69,
                    "time": 364.94999999999425,
                    "velocity": 0.44881889763779526,
                    "duration": 0.14999999999997726
                },
                {
                    "name": "E5",
                    "midi": 76,
                    "time": 365.0999999999942,
                    "velocity": 0.5511811023622047,
                    "duration": 0.22500000000002274
                },
                {
                    "name": "E6",
                    "midi": 88,
                    "time": 365.0999999999942,
                    "velocity": 0.6535433070866141,
                    "duration": 0.22500000000002274
                },
                {
                    "name": "A#4",
                    "midi": 70,
                    "time": 365.32499999999425,
                    "velocity": 0.3937007874015748,
                    "duration": 0.07499999999998863
                },
                {
                    "name": "G4",
                    "midi": 67,
                    "time": 365.32499999999425,
                    "velocity": 0.33070866141732286,
                    "duration": 0.07499999999998863
                },
                {
                    "name": "B4",
                    "midi": 71,
                    "time": 365.39999999999424,
                    "velocity": 0.47244094488188976,
                    "duration": 0.22500000000002274
                },
                {
                    "name": "G#4",
                    "midi": 68,
                    "time": 365.39999999999424,
                    "velocity": 0.4015748031496063,
                    "duration": 0.22500000000002274
                },
                {
                    "name": "E6",
                    "midi": 88,
                    "time": 365.69999999999425,
                    "velocity": 0.6535433070866141,
                    "duration": 0.22500000000002274
                },
                {
                    "name": "E5",
                    "midi": 76,
                    "time": 365.69999999999425,
                    "velocity": 0.5511811023622047,
                    "duration": 0.22500000000002274
                },
                {
                    "name": "A#4",
                    "midi": 70,
                    "time": 365.92499999999427,
                    "velocity": 0.3937007874015748,
                    "duration": 0.07499999999998863
                },
                {
                    "name": "G4",
                    "midi": 67,
                    "time": 365.92499999999427,
                    "velocity": 0.33070866141732286,
                    "duration": 0.07499999999998863
                },
                {
                    "name": "G#4",
                    "midi": 68,
                    "time": 365.99999999999426,
                    "velocity": 0.4015748031496063,
                    "duration": 0.2249999999999659
                },
                {
                    "name": "B4",
                    "midi": 71,
                    "time": 365.99999999999426,
                    "velocity": 0.47244094488188976,
                    "duration": 0.2249999999999659
                },
                {
                    "name": "D6",
                    "midi": 86,
                    "time": 366.14999999999424,
                    "velocity": 0.5354330708661418,
                    "duration": 0.14999999999997726
                },
                {
                    "name": "D5",
                    "midi": 74,
                    "time": 366.14999999999424,
                    "velocity": 0.44881889763779526,
                    "duration": 0.14999999999997726
                },
                {
                    "name": "C#6",
                    "midi": 85,
                    "time": 366.2999999999942,
                    "velocity": 0.6535433070866141,
                    "duration": 0.22500000000002274
                },
                {
                    "name": "C#5",
                    "midi": 73,
                    "time": 366.2999999999942,
                    "velocity": 0.5511811023622047,
                    "duration": 0.22500000000002274
                },
                {
                    "name": "C5",
                    "midi": 72,
                    "time": 366.52499999999424,
                    "velocity": 0.3937007874015748,
                    "duration": 0.07499999999998863
                },
                {
                    "name": "G#4",
                    "midi": 68,
                    "time": 366.52499999999424,
                    "velocity": 0.33070866141732286,
                    "duration": 0.07499999999998863
                },
                {
                    "name": "C#5",
                    "midi": 73,
                    "time": 366.5999999999942,
                    "velocity": 0.47244094488188976,
                    "duration": 0.22500000000002274
                },
                {
                    "name": "A4",
                    "midi": 69,
                    "time": 366.5999999999942,
                    "velocity": 0.4015748031496063,
                    "duration": 0.22500000000002274
                },
                {
                    "name": "A4",
                    "midi": 69,
                    "time": 366.89999999999424,
                    "velocity": 0.5590551181102362,
                    "duration": 0.22500000000002274
                },
                {
                    "name": "A5",
                    "midi": 81,
                    "time": 366.89999999999424,
                    "velocity": 0.6614173228346457,
                    "duration": 0.22500000000002274
                },
                {
                    "name": "C5",
                    "midi": 72,
                    "time": 367.12499999999426,
                    "velocity": 0.3937007874015748,
                    "duration": 0.07499999999998863
                },
                {
                    "name": "G#4",
                    "midi": 68,
                    "time": 367.12499999999426,
                    "velocity": 0.33070866141732286,
                    "duration": 0.07499999999998863
                },
                {
                    "name": "C#5",
                    "midi": 73,
                    "time": 367.19999999999425,
                    "velocity": 0.47244094488188976,
                    "duration": 0.2249999999999659
                },
                {
                    "name": "A4",
                    "midi": 69,
                    "time": 367.19999999999425,
                    "velocity": 0.4015748031496063,
                    "duration": 0.2249999999999659
                },
                {
                    "name": "A4",
                    "midi": 69,
                    "time": 367.3499999999942,
                    "velocity": 0.44881889763779526,
                    "duration": 0.14999999999997726
                },
                {
                    "name": "A5",
                    "midi": 81,
                    "time": 367.3499999999942,
                    "velocity": 0.5354330708661418,
                    "duration": 0.14999999999997726
                },
                {
                    "name": "C6",
                    "midi": 84,
                    "time": 367.4999999999942,
                    "velocity": 0.4409448818897638,
                    "duration": 0.22500000000002274
                },
                {
                    "name": "F#6",
                    "midi": 90,
                    "time": 367.4999999999942,
                    "velocity": 0.5196850393700787,
                    "duration": 0.22500000000002274
                },
                {
                    "name": "F#5",
                    "midi": 78,
                    "time": 367.4999999999942,
                    "velocity": 0.4409448818897638,
                    "duration": 0.22500000000002274
                },
                {
                    "name": "D5",
                    "midi": 74,
                    "time": 367.7249999999942,
                    "velocity": 0.31496062992125984,
                    "duration": 0.07499999999998863
                },
                {
                    "name": "B4",
                    "midi": 71,
                    "time": 367.7249999999942,
                    "velocity": 0.25984251968503935,
                    "duration": 0.07499999999998863
                },
                {
                    "name": "C5",
                    "midi": 72,
                    "time": 367.7999999999942,
                    "velocity": 0.31496062992125984,
                    "duration": 0.22500000000002274
                },
                {
                    "name": "D#5",
                    "midi": 75,
                    "time": 367.7999999999942,
                    "velocity": 0.3779527559055118,
                    "duration": 0.22500000000002274
                },
                {
                    "name": "F#6",
                    "midi": 90,
                    "time": 368.0999999999942,
                    "velocity": 0.5196850393700787,
                    "duration": 0.22500000000002274
                },
                {
                    "name": "F#5",
                    "midi": 78,
                    "time": 368.0999999999942,
                    "velocity": 0.4409448818897638,
                    "duration": 0.22500000000002274
                },
                {
                    "name": "C6",
                    "midi": 84,
                    "time": 368.0999999999942,
                    "velocity": 0.4409448818897638,
                    "duration": 0.22500000000002274
                },
                {
                    "name": "B4",
                    "midi": 71,
                    "time": 368.32499999999425,
                    "velocity": 0.25984251968503935,
                    "duration": 0.07499999999998863
                },
                {
                    "name": "D5",
                    "midi": 74,
                    "time": 368.32499999999425,
                    "velocity": 0.31496062992125984,
                    "duration": 0.07499999999998863
                },
                {
                    "name": "C5",
                    "midi": 72,
                    "time": 368.39999999999424,
                    "velocity": 0.31496062992125984,
                    "duration": 0.2249999999999659
                },
                {
                    "name": "D#5",
                    "midi": 75,
                    "time": 368.39999999999424,
                    "velocity": 0.3779527559055118,
                    "duration": 0.2249999999999659
                },
                {
                    "name": "C6",
                    "midi": 84,
                    "time": 368.5499999999942,
                    "velocity": 0.3543307086614173,
                    "duration": 0.14999999999997726
                },
                {
                    "name": "F#5",
                    "midi": 78,
                    "time": 368.5499999999942,
                    "velocity": 0.3543307086614173,
                    "duration": 0.14999999999997726
                },
                {
                    "name": "F#6",
                    "midi": 90,
                    "time": 368.5499999999942,
                    "velocity": 0.4251968503937008,
                    "duration": 0.14999999999997726
                },
                {
                    "name": "A5",
                    "midi": 81,
                    "time": 368.6999999999942,
                    "velocity": 0.4409448818897638,
                    "duration": 0.22500000000002274
                },
                {
                    "name": "C#6",
                    "midi": 85,
                    "time": 368.6999999999942,
                    "velocity": 0.4409448818897638,
                    "duration": 0.22500000000002274
                },
                {
                    "name": "A6",
                    "midi": 93,
                    "time": 368.6999999999942,
                    "velocity": 0.5196850393700787,
                    "duration": 0.22500000000002274
                },
                {
                    "name": "D#5",
                    "midi": 75,
                    "time": 368.9249999999942,
                    "velocity": 0.31496062992125984,
                    "duration": 0.07499999999998863
                },
                {
                    "name": "C5",
                    "midi": 72,
                    "time": 368.9249999999942,
                    "velocity": 0.25984251968503935,
                    "duration": 0.07499999999998863
                },
                {
                    "name": "C#5",
                    "midi": 73,
                    "time": 368.9999999999942,
                    "velocity": 0.31496062992125984,
                    "duration": 0.22500000000002274
                },
                {
                    "name": "E5",
                    "midi": 76,
                    "time": 368.9999999999942,
                    "velocity": 0.3779527559055118,
                    "duration": 0.22500000000002274
                },
                {
                    "name": "E6",
                    "midi": 88,
                    "time": 369.2999999999942,
                    "velocity": 0.5275590551181102,
                    "duration": 0.22500000000002274
                },
                {
                    "name": "E5",
                    "midi": 76,
                    "time": 369.2999999999942,
                    "velocity": 0.4409448818897638,
                    "duration": 0.22500000000002274
                },
                {
                    "name": "A5",
                    "midi": 81,
                    "time": 369.2999999999942,
                    "velocity": 0.4409448818897638,
                    "duration": 0.22500000000002274
                },
                {
                    "name": "C5",
                    "midi": 72,
                    "time": 369.52499999999424,
                    "velocity": 0.31496062992125984,
                    "duration": 0.07499999999998863
                },
                {
                    "name": "G#4",
                    "midi": 68,
                    "time": 369.52499999999424,
                    "velocity": 0.25984251968503935,
                    "duration": 0.07499999999998863
                },
                {
                    "name": "A4",
                    "midi": 69,
                    "time": 369.5999999999942,
                    "velocity": 0.31496062992125984,
                    "duration": 0.22500000000002274
                },
                {
                    "name": "C#5",
                    "midi": 73,
                    "time": 369.5999999999942,
                    "velocity": 0.3779527559055118,
                    "duration": 0.22500000000002274
                },
                {
                    "name": "C6",
                    "midi": 84,
                    "time": 369.89999999999424,
                    "velocity": 0.4566929133858268,
                    "duration": 0.22500000000002274
                },
                {
                    "name": "F#5",
                    "midi": 78,
                    "time": 369.89999999999424,
                    "velocity": 0.4566929133858268,
                    "duration": 0.22500000000002274
                },
                {
                    "name": "F#6",
                    "midi": 90,
                    "time": 369.89999999999424,
                    "velocity": 0.5433070866141733,
                    "duration": 0.22500000000002274
                },
                {
                    "name": "B4",
                    "midi": 71,
                    "time": 370.12499999999426,
                    "velocity": 0.2677165354330709,
                    "duration": 0.07499999999998863
                },
                {
                    "name": "D5",
                    "midi": 74,
                    "time": 370.12499999999426,
                    "velocity": 0.33070866141732286,
                    "duration": 0.07499999999998863
                },
                {
                    "name": "C5",
                    "midi": 72,
                    "time": 370.19999999999425,
                    "velocity": 0.33070866141732286,
                    "duration": 0.22500000000002274
                },
                {
                    "name": "D#5",
                    "midi": 75,
                    "time": 370.19999999999425,
                    "velocity": 0.3937007874015748,
                    "duration": 0.22500000000002274
                },
                {
                    "name": "F#5",
                    "midi": 78,
                    "time": 370.49999999999426,
                    "velocity": 0.4566929133858268,
                    "duration": 0.22500000000002274
                },
                {
                    "name": "C6",
                    "midi": 84,
                    "time": 370.49999999999426,
                    "velocity": 0.4566929133858268,
                    "duration": 0.22500000000002274
                },
                {
                    "name": "F#6",
                    "midi": 90,
                    "time": 370.49999999999426,
                    "velocity": 0.5433070866141733,
                    "duration": 0.22500000000002274
                },
                {
                    "name": "B4",
                    "midi": 71,
                    "time": 370.7249999999943,
                    "velocity": 0.2677165354330709,
                    "duration": 0.07499999999998863
                },
                {
                    "name": "D5",
                    "midi": 74,
                    "time": 370.7249999999943,
                    "velocity": 0.33070866141732286,
                    "duration": 0.07499999999998863
                },
                {
                    "name": "C5",
                    "midi": 72,
                    "time": 370.79999999999427,
                    "velocity": 0.33070866141732286,
                    "duration": 0.2249999999999659
                },
                {
                    "name": "D#5",
                    "midi": 75,
                    "time": 370.79999999999427,
                    "velocity": 0.3937007874015748,
                    "duration": 0.2249999999999659
                },
                {
                    "name": "C6",
                    "midi": 84,
                    "time": 370.94999999999425,
                    "velocity": 0.3700787401574803,
                    "duration": 0.14999999999997726
                },
                {
                    "name": "F#5",
                    "midi": 78,
                    "time": 370.94999999999425,
                    "velocity": 0.3700787401574803,
                    "duration": 0.14999999999997726
                },
                {
                    "name": "F#6",
                    "midi": 90,
                    "time": 370.94999999999425,
                    "velocity": 0.4409448818897638,
                    "duration": 0.14999999999997726
                },
                {
                    "name": "D6",
                    "midi": 86,
                    "time": 371.0999999999942,
                    "velocity": 0.4566929133858268,
                    "duration": 0.22500000000002274
                },
                {
                    "name": "A#6",
                    "midi": 94,
                    "time": 371.0999999999942,
                    "velocity": 0.5433070866141733,
                    "duration": 0.22500000000002274
                },
                {
                    "name": "A#5",
                    "midi": 82,
                    "time": 371.0999999999942,
                    "velocity": 0.4566929133858268,
                    "duration": 0.22500000000002274
                },
                {
                    "name": "E5",
                    "midi": 76,
                    "time": 371.32499999999425,
                    "velocity": 0.33070866141732286,
                    "duration": 0.07499999999998863
                },
                {
                    "name": "C#5",
                    "midi": 73,
                    "time": 371.32499999999425,
                    "velocity": 0.2677165354330709,
                    "duration": 0.07499999999998863
                },
                {
                    "name": "F5",
                    "midi": 77,
                    "time": 371.39999999999424,
                    "velocity": 0.3937007874015748,
                    "duration": 0.22500000000002274
                },
                {
                    "name": "D5",
                    "midi": 74,
                    "time": 371.39999999999424,
                    "velocity": 0.33070866141732286,
                    "duration": 0.22500000000002274
                },
                {
                    "name": "F5",
                    "midi": 77,
                    "time": 371.69999999999425,
                    "velocity": 0.4566929133858268,
                    "duration": 0.22500000000002274
                },
                {
                    "name": "F6",
                    "midi": 89,
                    "time": 371.69999999999425,
                    "velocity": 0.5511811023622047,
                    "duration": 0.22500000000002274
                },
                {
                    "name": "A#5",
                    "midi": 82,
                    "time": 371.69999999999425,
                    "velocity": 0.4566929133858268,
                    "duration": 0.22500000000002274
                },
                {
                    "name": "C#5",
                    "midi": 73,
                    "time": 371.92499999999427,
                    "velocity": 0.33070866141732286,
                    "duration": 0.07499999999998863
                },
                {
                    "name": "A4",
                    "midi": 69,
                    "time": 371.92499999999427,
                    "velocity": 0.2677165354330709,
                    "duration": 0.07499999999998863
                },
                {
                    "name": "A#4",
                    "midi": 70,
                    "time": 371.99999999999426,
                    "velocity": 0.33070866141732286,
                    "duration": 0.22500000000002274
                },
                {
                    "name": "D5",
                    "midi": 74,
                    "time": 371.99999999999426,
                    "velocity": 0.3937007874015748,
                    "duration": 0.22500000000002274
                },
                {
                    "name": "G6",
                    "midi": 91,
                    "time": 372.29999999999427,
                    "velocity": 0.5669291338582677,
                    "duration": 0.22500000000002274
                },
                {
                    "name": "G5",
                    "midi": 79,
                    "time": 372.29999999999427,
                    "velocity": 0.47244094488188976,
                    "duration": 0.22500000000002274
                },
                {
                    "name": "C#6",
                    "midi": 85,
                    "time": 372.29999999999427,
                    "velocity": 0.47244094488188976,
                    "duration": 0.22500000000002274
                },
                {
                    "name": "D#5",
                    "midi": 75,
                    "time": 372.5249999999943,
                    "velocity": 0.3464566929133858,
                    "duration": 0.07499999999998863
                },
                {
                    "name": "C5",
                    "midi": 72,
                    "time": 372.5249999999943,
                    "velocity": 0.28346456692913385,
                    "duration": 0.07499999999998863
                },
                {
                    "name": "E5",
                    "midi": 76,
                    "time": 372.5999999999943,
                    "velocity": 0.41732283464566927,
                    "duration": 0.22500000000002274
                },
                {
                    "name": "C#5",
                    "midi": 73,
                    "time": 372.5999999999943,
                    "velocity": 0.3464566929133858,
                    "duration": 0.22500000000002274
                },
                {
                    "name": "G6",
                    "midi": 91,
                    "time": 372.8999999999943,
                    "velocity": 0.5826771653543307,
                    "duration": 0.22500000000002274
                },
                {
                    "name": "C#6",
                    "midi": 85,
                    "time": 372.8999999999943,
                    "velocity": 0.4881889763779528,
                    "duration": 0.22500000000002274
                },
                {
                    "name": "G5",
                    "midi": 79,
                    "time": 372.8999999999943,
                    "velocity": 0.4881889763779528,
                    "duration": 0.22500000000002274
                },
                {
                    "name": "D#5",
                    "midi": 75,
                    "time": 373.1249999999943,
                    "velocity": 0.3543307086614173,
                    "duration": 0.07499999999998863
                },
                {
                    "name": "C5",
                    "midi": 72,
                    "time": 373.1249999999943,
                    "velocity": 0.29133858267716534,
                    "duration": 0.07499999999998863
                },
                {
                    "name": "E5",
                    "midi": 76,
                    "time": 373.1999999999943,
                    "velocity": 0.4330708661417323,
                    "duration": 0.2249999999999659
                },
                {
                    "name": "C#5",
                    "midi": 73,
                    "time": 373.1999999999943,
                    "velocity": 0.36220472440944884,
                    "duration": 0.2249999999999659
                },
                {
                    "name": "G6",
                    "midi": 91,
                    "time": 373.3499999999943,
                    "velocity": 0.48031496062992124,
                    "duration": 0.14999999999997726
                },
                {
                    "name": "C#6",
                    "midi": 85,
                    "time": 373.3499999999943,
                    "velocity": 0.4015748031496063,
                    "duration": 0.14999999999997726
                },
                {
                    "name": "G5",
                    "midi": 79,
                    "time": 373.3499999999943,
                    "velocity": 0.4015748031496063,
                    "duration": 0.14999999999997726
                },
                {
                    "name": "B6",
                    "midi": 95,
                    "time": 373.49999999999426,
                    "velocity": 0.5984251968503937,
                    "duration": 0.22500000000002274
                },
                {
                    "name": "D#6",
                    "midi": 87,
                    "time": 373.49999999999426,
                    "velocity": 0.5039370078740157,
                    "duration": 0.22500000000002274
                },
                {
                    "name": "B5",
                    "midi": 83,
                    "time": 373.49999999999426,
                    "velocity": 0.5039370078740157,
                    "duration": 0.22500000000002274
                },
                {
                    "name": "D5",
                    "midi": 74,
                    "time": 373.7249999999943,
                    "velocity": 0.3700787401574803,
                    "duration": 0.07499999999998863
                },
                {
                    "name": "A#4",
                    "midi": 70,
                    "time": 373.7249999999943,
                    "velocity": 0.2992125984251969,
                    "duration": 0.07499999999998863
                },
                {
                    "name": "D#5",
                    "midi": 75,
                    "time": 373.79999999999427,
                    "velocity": 0.4409448818897638,
                    "duration": 0.22500000000002274
                },
                {
                    "name": "B4",
                    "midi": 71,
                    "time": 373.79999999999427,
                    "velocity": 0.3700787401574803,
                    "duration": 0.22500000000002274
                },
                {
                    "name": "B5",
                    "midi": 83,
                    "time": 374.0999999999943,
                    "velocity": 0.5196850393700787,
                    "duration": 0.22500000000002274
                },
                {
                    "name": "B6",
                    "midi": 95,
                    "time": 374.0999999999943,
                    "velocity": 0.6220472440944882,
                    "duration": 0.22500000000002274
                },
                {
                    "name": "C#5",
                    "midi": 73,
                    "time": 374.3249999999943,
                    "velocity": 0.30708661417322836,
                    "duration": 0.07499999999998863
                },
                {
                    "name": "E5",
                    "midi": 76,
                    "time": 374.3249999999943,
                    "velocity": 0.3779527559055118,
                    "duration": 0.07499999999998863
                },
                {
                    "name": "D5",
                    "midi": 74,
                    "time": 374.3999999999943,
                    "velocity": 0.3779527559055118,
                    "duration": 0.2249999999999659
                },
                {
                    "name": "F5",
                    "midi": 77,
                    "time": 374.3999999999943,
                    "velocity": 0.4566929133858268,
                    "duration": 0.2249999999999659
                },
                {
                    "name": "B5",
                    "midi": 83,
                    "time": 374.54999999999427,
                    "velocity": 0.4251968503937008,
                    "duration": 0.14999999999997726
                },
                {
                    "name": "B6",
                    "midi": 95,
                    "time": 374.54999999999427,
                    "velocity": 0.5118110236220472,
                    "duration": 0.14999999999997726
                },
                {
                    "name": "C6",
                    "midi": 84,
                    "time": 374.69999999999425,
                    "velocity": 0.5354330708661418,
                    "duration": 0.22500000000002274
                },
                {
                    "name": "C7",
                    "midi": 96,
                    "time": 374.69999999999425,
                    "velocity": 0.6377952755905512,
                    "duration": 0.22500000000002274
                },
                {
                    "name": "B4",
                    "midi": 71,
                    "time": 374.92499999999427,
                    "velocity": 0.31496062992125984,
                    "duration": 0.07499999999998863
                },
                {
                    "name": "D#5",
                    "midi": 75,
                    "time": 374.92499999999427,
                    "velocity": 0.3858267716535433,
                    "duration": 0.07499999999998863
                },
                {
                    "name": "E5",
                    "midi": 76,
                    "time": 374.99999999999426,
                    "velocity": 0.47244094488188976,
                    "duration": 0.22500000000002274
                },
                {
                    "name": "C5",
                    "midi": 72,
                    "time": 374.99999999999426,
                    "velocity": 0.3937007874015748,
                    "duration": 0.22500000000002274
                },
                {
                    "name": "C#6",
                    "midi": 85,
                    "time": 375.29999999999427,
                    "velocity": 0.5511811023622047,
                    "duration": 0.22500000000002274
                },
                {
                    "name": "C#7",
                    "midi": 97,
                    "time": 375.29999999999427,
                    "velocity": 0.6535433070866141,
                    "duration": 0.22500000000002274
                },
                {
                    "name": "F#5",
                    "midi": 78,
                    "time": 375.5249999999943,
                    "velocity": 0.4015748031496063,
                    "duration": 0.07499999999998863
                },
                {
                    "name": "D#5",
                    "midi": 75,
                    "time": 375.5249999999943,
                    "velocity": 0.3228346456692913,
                    "duration": 0.07499999999998863
                },
                {
                    "name": "G5",
                    "midi": 79,
                    "time": 375.5999999999943,
                    "velocity": 0.48031496062992124,
                    "duration": 0.2249999999999659
                },
                {
                    "name": "E5",
                    "midi": 76,
                    "time": 375.5999999999943,
                    "velocity": 0.4015748031496063,
                    "duration": 0.2249999999999659
                },
                {
                    "name": "C#6",
                    "midi": 85,
                    "time": 375.74999999999426,
                    "velocity": 0.4566929133858268,
                    "duration": 0.14999999999997726
                },
                {
                    "name": "C#7",
                    "midi": 97,
                    "time": 375.74999999999426,
                    "velocity": 0.5433070866141733,
                    "duration": 0.14999999999997726
                },
                {
                    "name": "D6",
                    "midi": 86,
                    "time": 375.89999999999424,
                    "velocity": 0.5669291338582677,
                    "duration": 0.22500000000002274
                },
                {
                    "name": "D7",
                    "midi": 98,
                    "time": 375.89999999999424,
                    "velocity": 0.6692913385826772,
                    "duration": 0.22500000000002274
                },
                {
                    "name": "E5",
                    "midi": 76,
                    "time": 376.12499999999426,
                    "velocity": 0.3543307086614173,
                    "duration": 0.07499999999998863
                },
                {
                    "name": "G#5",
                    "midi": 80,
                    "time": 376.12499999999426,
                    "velocity": 0.41732283464566927,
                    "duration": 0.07499999999998863
                },
                {
                    "name": "A5",
                    "midi": 81,
                    "time": 376.19999999999425,
                    "velocity": 0.4881889763779528,
                    "duration": 0.22500000000002274
                },
                {
                    "name": "F5",
                    "midi": 77,
                    "time": 376.19999999999425,
                    "velocity": 0.4094488188976378,
                    "duration": 0.22500000000002274
                },
                {
                    "name": "A5",
                    "midi": 81,
                    "time": 376.49999999999426,
                    "velocity": 0.5196850393700787,
                    "duration": 0.22500000000002274
                },
                {
                    "name": "A6",
                    "midi": 93,
                    "time": 376.49999999999426,
                    "velocity": 0.6141732283464567,
                    "duration": 0.22500000000002274
                },
                {
                    "name": "C#5",
                    "midi": 73,
                    "time": 376.7249999999943,
                    "velocity": 0.3543307086614173,
                    "duration": 0.07499999999998863
                },
                {
                    "name": "E5",
                    "midi": 76,
                    "time": 376.7249999999943,
                    "velocity": 0.41732283464566927,
                    "duration": 0.07499999999998863
                },
                {
                    "name": "F5",
                    "midi": 77,
                    "time": 376.79999999999427,
                    "velocity": 0.47244094488188976,
                    "duration": 0.22500000000002274
                },
                {
                    "name": "D5",
                    "midi": 74,
                    "time": 376.79999999999427,
                    "velocity": 0.4015748031496063,
                    "duration": 0.22500000000002274
                },
                {
                    "name": "F5",
                    "midi": 77,
                    "time": 377.0999999999943,
                    "velocity": 0.5669291338582677,
                    "duration": 0.22500000000002274
                },
                {
                    "name": "F6",
                    "midi": 89,
                    "time": 377.0999999999943,
                    "velocity": 0.6692913385826772,
                    "duration": 0.22500000000002274
                },
                {
                    "name": "G#4",
                    "midi": 68,
                    "time": 377.3249999999943,
                    "velocity": 0.3543307086614173,
                    "duration": 0.07499999999998863
                },
                {
                    "name": "C#5",
                    "midi": 73,
                    "time": 377.3249999999943,
                    "velocity": 0.41732283464566927,
                    "duration": 0.07499999999998863
                },
                {
                    "name": "D5",
                    "midi": 74,
                    "time": 377.3999999999943,
                    "velocity": 0.4881889763779528,
                    "duration": 0.22500000000002274
                },
                {
                    "name": "A4",
                    "midi": 69,
                    "time": 377.3999999999943,
                    "velocity": 0.4094488188976378,
                    "duration": 0.22500000000002274
                },
                {
                    "name": "D6",
                    "midi": 86,
                    "time": 377.6999999999943,
                    "velocity": 0.6141732283464567,
                    "duration": 0.22500000000002274
                },
                {
                    "name": "D5",
                    "midi": 74,
                    "time": 377.6999999999943,
                    "velocity": 0.5196850393700787,
                    "duration": 0.22500000000002274
                },
                {
                    "name": "E4",
                    "midi": 64,
                    "time": 377.9249999999943,
                    "velocity": 0.3543307086614173,
                    "duration": 0.07499999999998863
                },
                {
                    "name": "G#4",
                    "midi": 68,
                    "time": 377.9249999999943,
                    "velocity": 0.41732283464566927,
                    "duration": 0.07499999999998863
                },
                {
                    "name": "F4",
                    "midi": 65,
                    "time": 377.9999999999943,
                    "velocity": 0.4015748031496063,
                    "duration": 0.22500000000002274
                },
                {
                    "name": "A4",
                    "midi": 69,
                    "time": 377.9999999999943,
                    "velocity": 0.47244094488188976,
                    "duration": 0.22500000000002274
                },
                {
                    "name": "A#5",
                    "midi": 82,
                    "time": 378.2999999999943,
                    "velocity": 0.5669291338582677,
                    "duration": 0.22500000000002274
                },
                {
                    "name": "A#6",
                    "midi": 94,
                    "time": 378.2999999999943,
                    "velocity": 0.6692913385826772,
                    "duration": 0.22500000000002274
                },
                {
                    "name": "C#5",
                    "midi": 73,
                    "time": 378.52499999999435,
                    "velocity": 0.3543307086614173,
                    "duration": 0.07499999999998863
                },
                {
                    "name": "E5",
                    "midi": 76,
                    "time": 378.52499999999435,
                    "velocity": 0.41732283464566927,
                    "duration": 0.07499999999998863
                },
                {
                    "name": "D5",
                    "midi": 74,
                    "time": 378.59999999999434,
                    "velocity": 0.4094488188976378,
                    "duration": 0.22500000000002274
                },
                {
                    "name": "F5",
                    "midi": 77,
                    "time": 378.59999999999434,
                    "velocity": 0.4881889763779528,
                    "duration": 0.22500000000002274
                },
                {
                    "name": "F5",
                    "midi": 77,
                    "time": 378.89999999999435,
                    "velocity": 0.5196850393700787,
                    "duration": 0.22500000000002274
                },
                {
                    "name": "F6",
                    "midi": 89,
                    "time": 378.89999999999435,
                    "velocity": 0.6141732283464567,
                    "duration": 0.22500000000002274
                },
                {
                    "name": "A4",
                    "midi": 69,
                    "time": 379.1249999999944,
                    "velocity": 0.3543307086614173,
                    "duration": 0.07499999999998863
                },
                {
                    "name": "C#5",
                    "midi": 73,
                    "time": 379.1249999999944,
                    "velocity": 0.41732283464566927,
                    "duration": 0.07499999999998863
                },
                {
                    "name": "A#4",
                    "midi": 70,
                    "time": 379.19999999999436,
                    "velocity": 0.4015748031496063,
                    "duration": 0.22500000000002274
                },
                {
                    "name": "D5",
                    "midi": 74,
                    "time": 379.19999999999436,
                    "velocity": 0.47244094488188976,
                    "duration": 0.22500000000002274
                },
                {
                    "name": "D5",
                    "midi": 74,
                    "time": 379.4999999999944,
                    "velocity": 0.5669291338582677,
                    "duration": 0.22500000000002274
                },
                {
                    "name": "D6",
                    "midi": 86,
                    "time": 379.4999999999944,
                    "velocity": 0.6692913385826772,
                    "duration": 0.22500000000002274
                },
                {
                    "name": "A4",
                    "midi": 69,
                    "time": 379.7249999999944,
                    "velocity": 0.41732283464566927,
                    "duration": 0.07499999999998863
                },
                {
                    "name": "E4",
                    "midi": 64,
                    "time": 379.7249999999944,
                    "velocity": 0.3543307086614173,
                    "duration": 0.07499999999998863
                },
                {
                    "name": "A#4",
                    "midi": 70,
                    "time": 379.7999999999944,
                    "velocity": 0.4881889763779528,
                    "duration": 0.22500000000002274
                },
                {
                    "name": "F4",
                    "midi": 65,
                    "time": 379.7999999999944,
                    "velocity": 0.4094488188976378,
                    "duration": 0.22500000000002274
                },
                {
                    "name": "A#5",
                    "midi": 82,
                    "time": 380.0999999999944,
                    "velocity": 0.6141732283464567,
                    "duration": 0.22500000000002274
                },
                {
                    "name": "A#4",
                    "midi": 70,
                    "time": 380.0999999999944,
                    "velocity": 0.5196850393700787,
                    "duration": 0.22500000000002274
                },
                {
                    "name": "E4",
                    "midi": 64,
                    "time": 380.3249999999944,
                    "velocity": 0.41732283464566927,
                    "duration": 0.07499999999998863
                },
                {
                    "name": "C#4",
                    "midi": 61,
                    "time": 380.3249999999944,
                    "velocity": 0.3543307086614173,
                    "duration": 0.07499999999998863
                },
                {
                    "name": "D4",
                    "midi": 62,
                    "time": 380.3999999999944,
                    "velocity": 0.4015748031496063,
                    "duration": 0.22500000000002274
                },
                {
                    "name": "F4",
                    "midi": 65,
                    "time": 380.3999999999944,
                    "velocity": 0.47244094488188976,
                    "duration": 0.22500000000002274
                },
                {
                    "name": "D#6",
                    "midi": 87,
                    "time": 380.6999999999944,
                    "velocity": 0.6692913385826772,
                    "duration": 0.22500000000002274
                },
                {
                    "name": "D#5",
                    "midi": 75,
                    "time": 380.6999999999944,
                    "velocity": 0.5669291338582677,
                    "duration": 0.22500000000002274
                },
                {
                    "name": "F#4",
                    "midi": 66,
                    "time": 380.92499999999444,
                    "velocity": 0.3700787401574803,
                    "duration": 0.07499999999998863
                },
                {
                    "name": "D4",
                    "midi": 62,
                    "time": 380.92499999999444,
                    "velocity": 0.31496062992125984,
                    "duration": 0.07499999999998863
                },
                {
                    "name": "D#4",
                    "midi": 63,
                    "time": 380.99999999999443,
                    "velocity": 0.36220472440944884,
                    "duration": 0.22500000000002274
                },
                {
                    "name": "G4",
                    "midi": 67,
                    "time": 380.99999999999443,
                    "velocity": 0.4330708661417323,
                    "duration": 0.22500000000002274
                },
                {
                    "name": "A#5",
                    "midi": 82,
                    "time": 381.29999999999444,
                    "velocity": 0.6141732283464567,
                    "duration": 0.22500000000002274
                },
                {
                    "name": "A#4",
                    "midi": 70,
                    "time": 381.29999999999444,
                    "velocity": 0.5196850393700787,
                    "duration": 0.22500000000002274
                },
                {
                    "name": "F#4",
                    "midi": 66,
                    "time": 381.52499999999446,
                    "velocity": 0.3700787401574803,
                    "duration": 0.07499999999998863
                },
                {
                    "name": "D4",
                    "midi": 62,
                    "time": 381.52499999999446,
                    "velocity": 0.31496062992125984,
                    "duration": 0.07499999999998863
                },
                {
                    "name": "G4",
                    "midi": 67,
                    "time": 381.59999999999445,
                    "velocity": 0.4251968503937008,
                    "duration": 0.22500000000002274
                },
                {
                    "name": "D#4",
                    "midi": 63,
                    "time": 381.59999999999445,
                    "velocity": 0.3543307086614173,
                    "duration": 0.22500000000002274
                },
                {
                    "name": "D#5",
                    "midi": 75,
                    "time": 381.89999999999446,
                    "velocity": 0.5669291338582677,
                    "duration": 0.22500000000002274
                },
                {
                    "name": "D#6",
                    "midi": 87,
                    "time": 381.89999999999446,
                    "velocity": 0.6692913385826772,
                    "duration": 0.22500000000002274
                },
                {
                    "name": "F#4",
                    "midi": 66,
                    "time": 382.1249999999945,
                    "velocity": 0.3700787401574803,
                    "duration": 0.07499999999998863
                },
                {
                    "name": "D4",
                    "midi": 62,
                    "time": 382.1249999999945,
                    "velocity": 0.31496062992125984,
                    "duration": 0.07499999999998863
                },
                {
                    "name": "G4",
                    "midi": 67,
                    "time": 382.1999999999945,
                    "velocity": 0.4330708661417323,
                    "duration": 0.22500000000002274
                },
                {
                    "name": "D#4",
                    "midi": 63,
                    "time": 382.1999999999945,
                    "velocity": 0.36220472440944884,
                    "duration": 0.22500000000002274
                },
                {
                    "name": "A#5",
                    "midi": 82,
                    "time": 382.4999999999945,
                    "velocity": 0.6141732283464567,
                    "duration": 0.22500000000002274
                },
                {
                    "name": "A#4",
                    "midi": 70,
                    "time": 382.4999999999945,
                    "velocity": 0.5196850393700787,
                    "duration": 0.22500000000002274
                },
                {
                    "name": "F#4",
                    "midi": 66,
                    "time": 382.7249999999945,
                    "velocity": 0.3700787401574803,
                    "duration": 0.07499999999998863
                },
                {
                    "name": "D4",
                    "midi": 62,
                    "time": 382.7249999999945,
                    "velocity": 0.31496062992125984,
                    "duration": 0.07499999999998863
                },
                {
                    "name": "D#4",
                    "midi": 63,
                    "time": 382.7999999999945,
                    "velocity": 0.3543307086614173,
                    "duration": 0.22500000000002274
                },
                {
                    "name": "G4",
                    "midi": 67,
                    "time": 382.7999999999945,
                    "velocity": 0.4251968503937008,
                    "duration": 0.22500000000002274
                },
                {
                    "name": "A4",
                    "midi": 69,
                    "time": 383.0999999999945,
                    "velocity": 0.5669291338582677,
                    "duration": 0.22500000000002274
                },
                {
                    "name": "A5",
                    "midi": 81,
                    "time": 383.0999999999945,
                    "velocity": 0.6692913385826772,
                    "duration": 0.22500000000002274
                },
                {
                    "name": "E4",
                    "midi": 64,
                    "time": 383.32499999999453,
                    "velocity": 0.41732283464566927,
                    "duration": 0.07499999999998863
                },
                {
                    "name": "C#4",
                    "midi": 61,
                    "time": 383.32499999999453,
                    "velocity": 0.3543307086614173,
                    "duration": 0.07499999999998863
                },
                {
                    "name": "D4",
                    "midi": 62,
                    "time": 383.3999999999945,
                    "velocity": 0.4094488188976378,
                    "duration": 0.22500000000002274
                },
                {
                    "name": "F4",
                    "midi": 65,
                    "time": 383.3999999999945,
                    "velocity": 0.4881889763779528,
                    "duration": 0.22500000000002274
                },
                {
                    "name": "F5",
                    "midi": 77,
                    "time": 383.69999999999453,
                    "velocity": 0.6141732283464567,
                    "duration": 0.22500000000002274
                },
                {
                    "name": "F4",
                    "midi": 65,
                    "time": 383.69999999999453,
                    "velocity": 0.5196850393700787,
                    "duration": 0.22500000000002274
                },
                {
                    "name": "G#3",
                    "midi": 56,
                    "time": 383.92499999999455,
                    "velocity": 0.3543307086614173,
                    "duration": 0.07499999999998863
                },
                {
                    "name": "C#4",
                    "midi": 61,
                    "time": 383.92499999999455,
                    "velocity": 0.41732283464566927,
                    "duration": 0.07499999999998863
                },
                {
                    "name": "A3",
                    "midi": 57,
                    "time": 383.99999999999454,
                    "velocity": 0.4015748031496063,
                    "duration": 0.22500000000002274
                },
                {
                    "name": "D4",
                    "midi": 62,
                    "time": 383.99999999999454,
                    "velocity": 0.47244094488188976,
                    "duration": 0.22500000000002274
                },
                {
                    "name": "E4",
                    "midi": 64,
                    "time": 384.29999999999455,
                    "velocity": 0.5669291338582677,
                    "duration": 0.22500000000002274
                },
                {
                    "name": "E5",
                    "midi": 76,
                    "time": 384.29999999999455,
                    "velocity": 0.6692913385826772,
                    "duration": 0.22500000000002274
                },
                {
                    "name": "G3",
                    "midi": 55,
                    "time": 384.59999999999457,
                    "velocity": 0.4094488188976378,
                    "duration": 0.22500000000002274
                },
                {
                    "name": "A#3",
                    "midi": 58,
                    "time": 384.59999999999457,
                    "velocity": 0.4094488188976378,
                    "duration": 0.22500000000002274
                },
                {
                    "name": "D4",
                    "midi": 62,
                    "time": 384.59999999999457,
                    "velocity": 0.4881889763779528,
                    "duration": 0.22500000000002274
                },
                {
                    "name": "A4",
                    "midi": 69,
                    "time": 384.8999999999946,
                    "velocity": 0.5196850393700787,
                    "duration": 0.22500000000002274
                },
                {
                    "name": "A5",
                    "midi": 81,
                    "time": 384.8999999999946,
                    "velocity": 0.6141732283464567,
                    "duration": 0.22500000000002274
                },
                {
                    "name": "A4",
                    "midi": 69,
                    "time": 385.1999999999946,
                    "velocity": 0.47244094488188976,
                    "duration": 0.22500000000002274
                },
                {
                    "name": "C#4",
                    "midi": 61,
                    "time": 385.1999999999946,
                    "velocity": 0.4015748031496063,
                    "duration": 0.22500000000002274
                },
                {
                    "name": "A3",
                    "midi": 57,
                    "time": 385.1999999999946,
                    "velocity": 0.4015748031496063,
                    "duration": 0.22500000000002274
                },
                {
                    "name": "E4",
                    "midi": 64,
                    "time": 385.1999999999946,
                    "velocity": 0.4015748031496063,
                    "duration": 0.22500000000002274
                },
                {
                    "name": "D4",
                    "midi": 62,
                    "time": 385.4999999999946,
                    "velocity": 0.5511811023622047,
                    "duration": 0.08499999999997954
                },
                {
                    "name": "D4",
                    "midi": 62,
                    "time": 385.59999999999457,
                    "velocity": 0.41732283464566927,
                    "duration": 0.08499999999997954
                },
                {
                    "name": "D5",
                    "midi": 74,
                    "time": 385.69999999999453,
                    "velocity": 0.4251968503937008,
                    "duration": 0.08499999999997954
                },
                {
                    "name": "D5",
                    "midi": 74,
                    "time": 385.7999999999945,
                    "velocity": 0.4251968503937008,
                    "duration": 0.08499999999997954
                },
                {
                    "name": "D6",
                    "midi": 86,
                    "time": 385.89999999999446,
                    "velocity": 0.4251968503937008,
                    "duration": 0.08499999999997954
                },
                {
                    "name": "D6",
                    "midi": 86,
                    "time": 385.99999999999443,
                    "velocity": 0.4566929133858268,
                    "duration": 0.08499999999997954
                },
                {
                    "name": "D7",
                    "midi": 98,
                    "time": 386.0999999999944,
                    "velocity": 0.4881889763779528,
                    "duration": 0.08499999999997954
                },
                {
                    "name": "D6",
                    "midi": 86,
                    "time": 386.19999999999436,
                    "velocity": 0.4251968503937008,
                    "duration": 0.08499999999997954
                },
                {
                    "name": "D6",
                    "midi": 86,
                    "time": 386.2999999999943,
                    "velocity": 0.4566929133858268,
                    "duration": 0.08499999999997954
                },
                {
                    "name": "D5",
                    "midi": 74,
                    "time": 386.3999999999943,
                    "velocity": 0.4251968503937008,
                    "duration": 0.08499999999997954
                },
                {
                    "name": "D5",
                    "midi": 74,
                    "time": 386.49999999999426,
                    "velocity": 0.4566929133858268,
                    "duration": 0.08499999999997954
                },
                {
                    "name": "D4",
                    "midi": 62,
                    "time": 386.5999999999942,
                    "velocity": 0.4251968503937008,
                    "duration": 0.08499999999997954
                },
                {
                    "name": "D4",
                    "midi": 62,
                    "time": 386.7999999999942,
                    "velocity": 0.3543307086614173,
                    "duration": 0.08499999999997954
                },
                {
                    "name": "F#4",
                    "midi": 66,
                    "time": 386.7999999999942,
                    "velocity": 0.4251968503937008,
                    "duration": 0.08499999999997954
                },
                {
                    "name": "C5",
                    "midi": 72,
                    "time": 386.8999999999942,
                    "velocity": 0.3543307086614173,
                    "duration": 0.08499999999997954
                },
                {
                    "name": "D5",
                    "midi": 74,
                    "time": 386.8999999999942,
                    "velocity": 0.4251968503937008,
                    "duration": 0.08499999999997954
                },
                {
                    "name": "D5",
                    "midi": 74,
                    "time": 386.99999999999415,
                    "velocity": 0.36220472440944884,
                    "duration": 0.08499999999997954
                },
                {
                    "name": "F#5",
                    "midi": 78,
                    "time": 386.99999999999415,
                    "velocity": 0.4330708661417323,
                    "duration": 0.08499999999997954
                },
                {
                    "name": "C6",
                    "midi": 84,
                    "time": 387.0999999999941,
                    "velocity": 0.3858267716535433,
                    "duration": 0.08499999999997954
                },
                {
                    "name": "D6",
                    "midi": 86,
                    "time": 387.0999999999941,
                    "velocity": 0.4566929133858268,
                    "duration": 0.08499999999997954
                },
                {
                    "name": "F#6",
                    "midi": 90,
                    "time": 387.1999999999941,
                    "velocity": 0.4330708661417323,
                    "duration": 0.08499999999997954
                },
                {
                    "name": "D6",
                    "midi": 86,
                    "time": 387.1999999999941,
                    "velocity": 0.36220472440944884,
                    "duration": 0.08499999999997954
                },
                {
                    "name": "C7",
                    "midi": 96,
                    "time": 387.29999999999404,
                    "velocity": 0.41732283464566927,
                    "duration": 0.08499999999997954
                },
                {
                    "name": "D7",
                    "midi": 98,
                    "time": 387.29999999999404,
                    "velocity": 0.49606299212598426,
                    "duration": 0.08499999999997954
                },
                {
                    "name": "F#6",
                    "midi": 90,
                    "time": 387.399999999994,
                    "velocity": 0.4330708661417323,
                    "duration": 0.08499999999997954
                },
                {
                    "name": "D6",
                    "midi": 86,
                    "time": 387.399999999994,
                    "velocity": 0.36220472440944884,
                    "duration": 0.08499999999997954
                },
                {
                    "name": "D6",
                    "midi": 86,
                    "time": 387.499999999994,
                    "velocity": 0.47244094488188976,
                    "duration": 0.08499999999997954
                },
                {
                    "name": "C6",
                    "midi": 84,
                    "time": 387.499999999994,
                    "velocity": 0.4015748031496063,
                    "duration": 0.08499999999997954
                },
                {
                    "name": "F#5",
                    "midi": 78,
                    "time": 387.59999999999394,
                    "velocity": 0.4330708661417323,
                    "duration": 0.08499999999997954
                },
                {
                    "name": "D5",
                    "midi": 74,
                    "time": 387.59999999999394,
                    "velocity": 0.36220472440944884,
                    "duration": 0.08499999999997954
                },
                {
                    "name": "C5",
                    "midi": 72,
                    "time": 387.6999999999939,
                    "velocity": 0.3858267716535433,
                    "duration": 0.08499999999997954
                },
                {
                    "name": "D5",
                    "midi": 74,
                    "time": 387.6999999999939,
                    "velocity": 0.4566929133858268,
                    "duration": 0.08499999999997954
                },
                {
                    "name": "F#4",
                    "midi": 66,
                    "time": 387.7999999999939,
                    "velocity": 0.4251968503937008,
                    "duration": 0.08499999999997954
                },
                {
                    "name": "D4",
                    "midi": 62,
                    "time": 387.7999999999939,
                    "velocity": 0.3543307086614173,
                    "duration": 0.08499999999997954
                },
                {
                    "name": "F4",
                    "midi": 65,
                    "time": 387.99999999999386,
                    "velocity": 0.41732283464566927,
                    "duration": 0.08499999999997954
                },
                {
                    "name": "D4",
                    "midi": 62,
                    "time": 387.99999999999386,
                    "velocity": 0.3543307086614173,
                    "duration": 0.08499999999997954
                },
                {
                    "name": "D5",
                    "midi": 74,
                    "time": 388.0999999999938,
                    "velocity": 0.41732283464566927,
                    "duration": 0.08499999999997954
                },
                {
                    "name": "B4",
                    "midi": 71,
                    "time": 388.0999999999938,
                    "velocity": 0.3543307086614173,
                    "duration": 0.08499999999997954
                },
                {
                    "name": "F5",
                    "midi": 77,
                    "time": 388.1999999999938,
                    "velocity": 0.41732283464566927,
                    "duration": 0.08499999999997954
                },
                {
                    "name": "D5",
                    "midi": 74,
                    "time": 388.1999999999938,
                    "velocity": 0.3543307086614173,
                    "duration": 0.08499999999997954
                },
                {
                    "name": "D6",
                    "midi": 86,
                    "time": 388.29999999999376,
                    "velocity": 0.4409448818897638,
                    "duration": 0.08499999999997954
                },
                {
                    "name": "B5",
                    "midi": 83,
                    "time": 388.29999999999376,
                    "velocity": 0.3700787401574803,
                    "duration": 0.08499999999997954
                },
                {
                    "name": "F6",
                    "midi": 89,
                    "time": 388.3999999999937,
                    "velocity": 0.41732283464566927,
                    "duration": 0.08499999999997954
                },
                {
                    "name": "D6",
                    "midi": 86,
                    "time": 388.3999999999937,
                    "velocity": 0.3543307086614173,
                    "duration": 0.08499999999997954
                },
                {
                    "name": "D7",
                    "midi": 98,
                    "time": 388.4999999999937,
                    "velocity": 0.47244094488188976,
                    "duration": 0.08499999999997954
                },
                {
                    "name": "B6",
                    "midi": 95,
                    "time": 388.4999999999937,
                    "velocity": 0.4015748031496063,
                    "duration": 0.08499999999997954
                },
                {
                    "name": "D6",
                    "midi": 86,
                    "time": 388.59999999999366,
                    "velocity": 0.3543307086614173,
                    "duration": 0.08499999999997954
                },
                {
                    "name": "F6",
                    "midi": 89,
                    "time": 388.59999999999366,
                    "velocity": 0.41732283464566927,
                    "duration": 0.08499999999997954
                },
                {
                    "name": "B5",
                    "midi": 83,
                    "time": 388.6999999999936,
                    "velocity": 0.3700787401574803,
                    "duration": 0.08499999999997954
                },
                {
                    "name": "D6",
                    "midi": 86,
                    "time": 388.6999999999936,
                    "velocity": 0.4409448818897638,
                    "duration": 0.08499999999997954
                },
                {
                    "name": "F5",
                    "midi": 77,
                    "time": 388.7999999999936,
                    "velocity": 0.41732283464566927,
                    "duration": 0.08499999999997954
                },
                {
                    "name": "D5",
                    "midi": 74,
                    "time": 388.7999999999936,
                    "velocity": 0.3543307086614173,
                    "duration": 0.08499999999997954
                },
                {
                    "name": "B4",
                    "midi": 71,
                    "time": 388.89999999999355,
                    "velocity": 0.3779527559055118,
                    "duration": 0.08499999999997954
                },
                {
                    "name": "D5",
                    "midi": 74,
                    "time": 388.89999999999355,
                    "velocity": 0.44881889763779526,
                    "duration": 0.08499999999997954
                },
                {
                    "name": "D4",
                    "midi": 62,
                    "time": 388.9999999999935,
                    "velocity": 0.3543307086614173,
                    "duration": 0.08499999999997954
                },
                {
                    "name": "F4",
                    "midi": 65,
                    "time": 388.9999999999935,
                    "velocity": 0.41732283464566927,
                    "duration": 0.08499999999997954
                },
                {
                    "name": "D4",
                    "midi": 62,
                    "time": 389.1999999999935,
                    "velocity": 0.3543307086614173,
                    "duration": 0.08499999999997954
                },
                {
                    "name": "E4",
                    "midi": 64,
                    "time": 389.1999999999935,
                    "velocity": 0.41732283464566927,
                    "duration": 0.08499999999997954
                },
                {
                    "name": "A#4",
                    "midi": 70,
                    "time": 389.2999999999935,
                    "velocity": 0.3543307086614173,
                    "duration": 0.08499999999997954
                },
                {
                    "name": "D5",
                    "midi": 74,
                    "time": 389.2999999999935,
                    "velocity": 0.41732283464566927,
                    "duration": 0.08499999999997954
                },
                {
                    "name": "E5",
                    "midi": 76,
                    "time": 389.39999999999344,
                    "velocity": 0.41732283464566927,
                    "duration": 0.08499999999997954
                },
                {
                    "name": "D5",
                    "midi": 74,
                    "time": 389.39999999999344,
                    "velocity": 0.3543307086614173,
                    "duration": 0.08499999999997954
                },
                {
                    "name": "A#5",
                    "midi": 82,
                    "time": 389.4999999999934,
                    "velocity": 0.3700787401574803,
                    "duration": 0.08499999999997954
                },
                {
                    "name": "D6",
                    "midi": 86,
                    "time": 389.4999999999934,
                    "velocity": 0.4409448818897638,
                    "duration": 0.08499999999997954
                },
                {
                    "name": "D6",
                    "midi": 86,
                    "time": 389.5999999999934,
                    "velocity": 0.3543307086614173,
                    "duration": 0.08499999999997954
                },
                {
                    "name": "E6",
                    "midi": 88,
                    "time": 389.5999999999934,
                    "velocity": 0.41732283464566927,
                    "duration": 0.08499999999997954
                },
                {
                    "name": "D7",
                    "midi": 98,
                    "time": 389.69999999999334,
                    "velocity": 0.47244094488188976,
                    "duration": 0.08499999999997954
                },
                {
                    "name": "A#6",
                    "midi": 94,
                    "time": 389.69999999999334,
                    "velocity": 0.4015748031496063,
                    "duration": 0.08499999999997954
                },
                {
                    "name": "D6",
                    "midi": 86,
                    "time": 389.7999999999933,
                    "velocity": 0.3543307086614173,
                    "duration": 0.08499999999997954
                },
                {
                    "name": "E6",
                    "midi": 88,
                    "time": 389.7999999999933,
                    "velocity": 0.41732283464566927,
                    "duration": 0.08499999999997954
                },
                {
                    "name": "A#5",
                    "midi": 82,
                    "time": 389.89999999999327,
                    "velocity": 0.3700787401574803,
                    "duration": 0.08499999999997954
                },
                {
                    "name": "D6",
                    "midi": 86,
                    "time": 389.89999999999327,
                    "velocity": 0.4409448818897638,
                    "duration": 0.08499999999997954
                },
                {
                    "name": "D5",
                    "midi": 74,
                    "time": 389.99999999999324,
                    "velocity": 0.3543307086614173,
                    "duration": 0.08499999999997954
                },
                {
                    "name": "E5",
                    "midi": 76,
                    "time": 389.99999999999324,
                    "velocity": 0.41732283464566927,
                    "duration": 0.08499999999997954
                },
                {
                    "name": "A#4",
                    "midi": 70,
                    "time": 390.0999999999932,
                    "velocity": 0.3779527559055118,
                    "duration": 0.08499999999997954
                },
                {
                    "name": "D5",
                    "midi": 74,
                    "time": 390.0999999999932,
                    "velocity": 0.44881889763779526,
                    "duration": 0.08499999999997954
                },
                {
                    "name": "D4",
                    "midi": 62,
                    "time": 390.19999999999317,
                    "velocity": 0.3543307086614173,
                    "duration": 0.08499999999997954
                },
                {
                    "name": "E4",
                    "midi": 64,
                    "time": 390.19999999999317,
                    "velocity": 0.41732283464566927,
                    "duration": 0.08499999999997954
                },
                {
                    "name": "F#4",
                    "midi": 66,
                    "time": 390.39999999999316,
                    "velocity": 0.4251968503937008,
                    "duration": 0.08499999999997954
                },
                {
                    "name": "D4",
                    "midi": 62,
                    "time": 390.39999999999316,
                    "velocity": 0.3543307086614173,
                    "duration": 0.08499999999997954
                },
                {
                    "name": "A4",
                    "midi": 69,
                    "time": 390.4999999999931,
                    "velocity": 0.3543307086614173,
                    "duration": 0.08499999999997954
                },
                {
                    "name": "D5",
                    "midi": 74,
                    "time": 390.4999999999931,
                    "velocity": 0.4251968503937008,
                    "duration": 0.08499999999997954
                },
                {
                    "name": "D5",
                    "midi": 74,
                    "time": 390.5999999999931,
                    "velocity": 0.36220472440944884,
                    "duration": 0.08499999999997954
                },
                {
                    "name": "F#5",
                    "midi": 78,
                    "time": 390.5999999999931,
                    "velocity": 0.4330708661417323,
                    "duration": 0.08499999999997954
                },
                {
                    "name": "A5",
                    "midi": 81,
                    "time": 390.69999999999305,
                    "velocity": 0.3858267716535433,
                    "duration": 0.08499999999997954
                },
                {
                    "name": "D6",
                    "midi": 86,
                    "time": 390.69999999999305,
                    "velocity": 0.4566929133858268,
                    "duration": 0.08499999999997954
                },
                {
                    "name": "D6",
                    "midi": 86,
                    "time": 390.799999999993,
                    "velocity": 0.36220472440944884,
                    "duration": 0.08499999999997954
                },
                {
                    "name": "F#6",
                    "midi": 90,
                    "time": 390.799999999993,
                    "velocity": 0.4330708661417323,
                    "duration": 0.08499999999997954
                },
                {
                    "name": "A6",
                    "midi": 93,
                    "time": 390.899999999993,
                    "velocity": 0.41732283464566927,
                    "duration": 0.08499999999997954
                },
                {
                    "name": "D7",
                    "midi": 98,
                    "time": 390.899999999993,
                    "velocity": 0.49606299212598426,
                    "duration": 0.08499999999997954
                },
                {
                    "name": "F#6",
                    "midi": 90,
                    "time": 390.99999999999295,
                    "velocity": 0.4330708661417323,
                    "duration": 0.08499999999997954
                },
                {
                    "name": "D6",
                    "midi": 86,
                    "time": 390.99999999999295,
                    "velocity": 0.36220472440944884,
                    "duration": 0.08499999999997954
                },
                {
                    "name": "D6",
                    "midi": 86,
                    "time": 391.0999999999929,
                    "velocity": 0.47244094488188976,
                    "duration": 0.08499999999997954
                },
                {
                    "name": "A5",
                    "midi": 81,
                    "time": 391.0999999999929,
                    "velocity": 0.4015748031496063,
                    "duration": 0.08499999999997954
                },
                {
                    "name": "F#5",
                    "midi": 78,
                    "time": 391.1999999999929,
                    "velocity": 0.4330708661417323,
                    "duration": 0.08499999999997954
                },
                {
                    "name": "D5",
                    "midi": 74,
                    "time": 391.1999999999929,
                    "velocity": 0.36220472440944884,
                    "duration": 0.08499999999997954
                },
                {
                    "name": "A4",
                    "midi": 69,
                    "time": 391.29999999999285,
                    "velocity": 0.3858267716535433,
                    "duration": 0.08499999999997954
                },
                {
                    "name": "D5",
                    "midi": 74,
                    "time": 391.29999999999285,
                    "velocity": 0.4566929133858268,
                    "duration": 0.08499999999997954
                },
                {
                    "name": "F#4",
                    "midi": 66,
                    "time": 391.3999999999928,
                    "velocity": 0.4251968503937008,
                    "duration": 0.08499999999997954
                },
                {
                    "name": "D4",
                    "midi": 62,
                    "time": 391.3999999999928,
                    "velocity": 0.3543307086614173,
                    "duration": 0.08499999999997954
                },
                {
                    "name": "D#4",
                    "midi": 63,
                    "time": 391.5999999999928,
                    "velocity": 0.4251968503937008,
                    "duration": 0.08499999999997954
                },
                {
                    "name": "C4",
                    "midi": 60,
                    "time": 391.5999999999928,
                    "velocity": 0.3543307086614173,
                    "duration": 0.08499999999997954
                },
                {
                    "name": "F#4",
                    "midi": 66,
                    "time": 391.69999999999277,
                    "velocity": 0.3543307086614173,
                    "duration": 0.08499999999997954
                },
                {
                    "name": "C5",
                    "midi": 72,
                    "time": 391.69999999999277,
                    "velocity": 0.4251968503937008,
                    "duration": 0.08499999999997954
                },
                {
                    "name": "D#5",
                    "midi": 75,
                    "time": 391.79999999999274,
                    "velocity": 0.4330708661417323,
                    "duration": 0.08499999999997954
                },
                {
                    "name": "C5",
                    "midi": 72,
                    "time": 391.79999999999274,
                    "velocity": 0.36220472440944884,
                    "duration": 0.08499999999997954
                },
                {
                    "name": "F#5",
                    "midi": 78,
                    "time": 391.8999999999927,
                    "velocity": 0.3858267716535433,
                    "duration": 0.08499999999997954
                },
                {
                    "name": "C6",
                    "midi": 84,
                    "time": 391.8999999999927,
                    "velocity": 0.4566929133858268,
                    "duration": 0.08499999999997954
                },
                {
                    "name": "C6",
                    "midi": 84,
                    "time": 391.99999999999267,
                    "velocity": 0.36220472440944884,
                    "duration": 0.08499999999997954
                },
                {
                    "name": "D#6",
                    "midi": 87,
                    "time": 391.99999999999267,
                    "velocity": 0.4330708661417323,
                    "duration": 0.08499999999997954
                },
                {
                    "name": "C7",
                    "midi": 96,
                    "time": 392.09999999999263,
                    "velocity": 0.49606299212598426,
                    "duration": 0.08499999999997954
                },
                {
                    "name": "F#6",
                    "midi": 90,
                    "time": 392.09999999999263,
                    "velocity": 0.41732283464566927,
                    "duration": 0.08499999999997954
                },
                {
                    "name": "D#6",
                    "midi": 87,
                    "time": 392.1999999999926,
                    "velocity": 0.4330708661417323,
                    "duration": 0.08499999999997954
                },
                {
                    "name": "C6",
                    "midi": 84,
                    "time": 392.1999999999926,
                    "velocity": 0.36220472440944884,
                    "duration": 0.08499999999997954
                },
                {
                    "name": "C6",
                    "midi": 84,
                    "time": 392.29999999999256,
                    "velocity": 0.47244094488188976,
                    "duration": 0.08499999999997954
                },
                {
                    "name": "F#5",
                    "midi": 78,
                    "time": 392.29999999999256,
                    "velocity": 0.4015748031496063,
                    "duration": 0.08499999999997954
                },
                {
                    "name": "C5",
                    "midi": 72,
                    "time": 392.39999999999253,
                    "velocity": 0.36220472440944884,
                    "duration": 0.08499999999997954
                },
                {
                    "name": "D#5",
                    "midi": 75,
                    "time": 392.39999999999253,
                    "velocity": 0.4330708661417323,
                    "duration": 0.08499999999997954
                },
                {
                    "name": "C5",
                    "midi": 72,
                    "time": 392.4999999999925,
                    "velocity": 0.4566929133858268,
                    "duration": 0.08499999999997954
                },
                {
                    "name": "F#4",
                    "midi": 66,
                    "time": 392.4999999999925,
                    "velocity": 0.3858267716535433,
                    "duration": 0.08499999999997954
                },
                {
                    "name": "C4",
                    "midi": 60,
                    "time": 392.59999999999246,
                    "velocity": 0.3543307086614173,
                    "duration": 0.08499999999997954
                },
                {
                    "name": "D#4",
                    "midi": 63,
                    "time": 392.59999999999246,
                    "velocity": 0.4251968503937008,
                    "duration": 0.08499999999997954
                },
                {
                    "name": "D4",
                    "midi": 62,
                    "time": 392.79999999999245,
                    "velocity": 0.41732283464566927,
                    "duration": 0.08499999999997954
                },
                {
                    "name": "B3",
                    "midi": 59,
                    "time": 392.79999999999245,
                    "velocity": 0.3543307086614173,
                    "duration": 0.08499999999997954
                },
                {
                    "name": "B4",
                    "midi": 71,
                    "time": 392.8999999999924,
                    "velocity": 0.41732283464566927,
                    "duration": 0.08499999999997954
                },
                {
                    "name": "F4",
                    "midi": 65,
                    "time": 392.8999999999924,
                    "velocity": 0.3543307086614173,
                    "duration": 0.08499999999997954
                },
                {
                    "name": "D5",
                    "midi": 74,
                    "time": 392.9999999999924,
                    "velocity": 0.41732283464566927,
                    "duration": 0.08499999999997954
                },
                {
                    "name": "B4",
                    "midi": 71,
                    "time": 392.9999999999924,
                    "velocity": 0.3543307086614173,
                    "duration": 0.08499999999997954
                },
                {
                    "name": "B5",
                    "midi": 83,
                    "time": 393.09999999999235,
                    "velocity": 0.4409448818897638,
                    "duration": 0.08499999999997954
                },
                {
                    "name": "F5",
                    "midi": 77,
                    "time": 393.09999999999235,
                    "velocity": 0.3700787401574803,
                    "duration": 0.08499999999997954
                },
                {
                    "name": "D6",
                    "midi": 86,
                    "time": 393.1999999999923,
                    "velocity": 0.41732283464566927,
                    "duration": 0.08499999999997954
                },
                {
                    "name": "B5",
                    "midi": 83,
                    "time": 393.1999999999923,
                    "velocity": 0.3543307086614173,
                    "duration": 0.08499999999997954
                },
                {
                    "name": "B6",
                    "midi": 95,
                    "time": 393.2999999999923,
                    "velocity": 0.47244094488188976,
                    "duration": 0.08499999999997954
                },
                {
                    "name": "F6",
                    "midi": 89,
                    "time": 393.2999999999923,
                    "velocity": 0.4015748031496063,
                    "duration": 0.08499999999997954
                },
                {
                    "name": "B5",
                    "midi": 83,
                    "time": 393.39999999999225,
                    "velocity": 0.3543307086614173,
                    "duration": 0.08499999999997954
                },
                {
                    "name": "D6",
                    "midi": 86,
                    "time": 393.39999999999225,
                    "velocity": 0.41732283464566927,
                    "duration": 0.08499999999997954
                },
                {
                    "name": "F5",
                    "midi": 77,
                    "time": 393.4999999999922,
                    "velocity": 0.3700787401574803,
                    "duration": 0.08499999999997954
                },
                {
                    "name": "B5",
                    "midi": 83,
                    "time": 393.4999999999922,
                    "velocity": 0.4409448818897638,
                    "duration": 0.08499999999997954
                },
                {
                    "name": "D5",
                    "midi": 74,
                    "time": 393.5999999999922,
                    "velocity": 0.41732283464566927,
                    "duration": 0.08499999999997954
                },
                {
                    "name": "B4",
                    "midi": 71,
                    "time": 393.5999999999922,
                    "velocity": 0.3543307086614173,
                    "duration": 0.08499999999997954
                },
                {
                    "name": "B4",
                    "midi": 71,
                    "time": 393.69999999999214,
                    "velocity": 0.44881889763779526,
                    "duration": 0.08499999999997954
                },
                {
                    "name": "F4",
                    "midi": 65,
                    "time": 393.69999999999214,
                    "velocity": 0.3779527559055118,
                    "duration": 0.08499999999997954
                },
                {
                    "name": "B3",
                    "midi": 59,
                    "time": 393.7999999999921,
                    "velocity": 0.3543307086614173,
                    "duration": 0.08499999999997954
                },
                {
                    "name": "D4",
                    "midi": 62,
                    "time": 393.7999999999921,
                    "velocity": 0.41732283464566927,
                    "duration": 0.08499999999997954
                },
                {
                    "name": "A#3",
                    "midi": 58,
                    "time": 393.8999999999921,
                    "velocity": 0.3543307086614173,
                    "duration": 0.08499999999997954
                },
                {
                    "name": "C#4",
                    "midi": 61,
                    "time": 393.8999999999921,
                    "velocity": 0.41732283464566927,
                    "duration": 0.08499999999997954
                },
                {
                    "name": "E4",
                    "midi": 64,
                    "time": 393.99999999999204,
                    "velocity": 0.3543307086614173,
                    "duration": 0.08499999999997954
                },
                {
                    "name": "A#4",
                    "midi": 70,
                    "time": 393.99999999999204,
                    "velocity": 0.41732283464566927,
                    "duration": 0.08499999999997954
                },
                {
                    "name": "A#4",
                    "midi": 70,
                    "time": 394.099999999992,
                    "velocity": 0.3543307086614173,
                    "duration": 0.08499999999997954
                },
                {
                    "name": "C#5",
                    "midi": 73,
                    "time": 394.099999999992,
                    "velocity": 0.41732283464566927,
                    "duration": 0.08499999999997954
                },
                {
                    "name": "A#5",
                    "midi": 82,
                    "time": 394.199999999992,
                    "velocity": 0.4409448818897638,
                    "duration": 0.08499999999997954
                },
                {
                    "name": "E5",
                    "midi": 76,
                    "time": 394.199999999992,
                    "velocity": 0.3700787401574803,
                    "duration": 0.08499999999997954
                },
                {
                    "name": "A#5",
                    "midi": 82,
                    "time": 394.29999999999194,
                    "velocity": 0.3543307086614173,
                    "duration": 0.08499999999997954
                },
                {
                    "name": "C#6",
                    "midi": 85,
                    "time": 394.29999999999194,
                    "velocity": 0.41732283464566927,
                    "duration": 0.08499999999997954
                },
                {
                    "name": "A#6",
                    "midi": 94,
                    "time": 394.3999999999919,
                    "velocity": 0.47244094488188976,
                    "duration": 0.08499999999997954
                },
                {
                    "name": "E6",
                    "midi": 88,
                    "time": 394.3999999999919,
                    "velocity": 0.4015748031496063,
                    "duration": 0.08499999999997954
                },
                {
                    "name": "A#3",
                    "midi": 58,
                    "time": 394.49999999999187,
                    "velocity": 0.41732283464566927,
                    "duration": 0.08499999999997954
                },
                {
                    "name": "G3",
                    "midi": 55,
                    "time": 394.49999999999187,
                    "velocity": 0.3543307086614173,
                    "duration": 0.08499999999997954
                },
                {
                    "name": "G4",
                    "midi": 67,
                    "time": 394.59999999999184,
                    "velocity": 0.41732283464566927,
                    "duration": 0.08499999999997954
                },
                {
                    "name": "C#4",
                    "midi": 61,
                    "time": 394.59999999999184,
                    "velocity": 0.3543307086614173,
                    "duration": 0.08499999999997954
                },
                {
                    "name": "G4",
                    "midi": 67,
                    "time": 394.6999999999918,
                    "velocity": 0.3543307086614173,
                    "duration": 0.08499999999997954
                },
                {
                    "name": "A#4",
                    "midi": 70,
                    "time": 394.6999999999918,
                    "velocity": 0.41732283464566927,
                    "duration": 0.08499999999997954
                },
                {
                    "name": "G5",
                    "midi": 79,
                    "time": 394.79999999999177,
                    "velocity": 0.4409448818897638,
                    "duration": 0.08499999999997954
                },
                {
                    "name": "C#5",
                    "midi": 73,
                    "time": 394.79999999999177,
                    "velocity": 0.3700787401574803,
                    "duration": 0.08499999999997954
                },
                {
                    "name": "A#5",
                    "midi": 82,
                    "time": 394.89999999999173,
                    "velocity": 0.41732283464566927,
                    "duration": 0.08499999999997954
                },
                {
                    "name": "G5",
                    "midi": 79,
                    "time": 394.89999999999173,
                    "velocity": 0.3543307086614173,
                    "duration": 0.08499999999997954
                },
                {
                    "name": "G6",
                    "midi": 91,
                    "time": 394.9999999999917,
                    "velocity": 0.47244094488188976,
                    "duration": 0.08499999999997954
                },
                {
                    "name": "C#6",
                    "midi": 85,
                    "time": 394.9999999999917,
                    "velocity": 0.4015748031496063,
                    "duration": 0.08499999999997954
                },
                {
                    "name": "D4",
                    "midi": 62,
                    "time": 395.09999999999167,
                    "velocity": 0.5511811023622047,
                    "duration": 0.14999999999997726
                },
                {
                    "name": "C#6",
                    "midi": 85,
                    "time": 395.3999999999916,
                    "velocity": 0.47244094488188976,
                    "duration": 0.10000000000002274
                },
                {
                    "name": "A#6",
                    "midi": 94,
                    "time": 395.3999999999916,
                    "velocity": 0.5511811023622047,
                    "duration": 0.3000000000000682
                },
                {
                    "name": "C6",
                    "midi": 84,
                    "time": 395.49999999999164,
                    "velocity": 0.47244094488188976,
                    "duration": 0.10000000000002274
                },
                {
                    "name": "B5",
                    "midi": 83,
                    "time": 395.59999999999167,
                    "velocity": 0.47244094488188976,
                    "duration": 0.10000000000002274
                },
                {
                    "name": "A#5",
                    "midi": 82,
                    "time": 395.6999999999917,
                    "velocity": 0.47244094488188976,
                    "duration": 0.10000000000002274
                },
                {
                    "name": "G6",
                    "midi": 91,
                    "time": 395.6999999999917,
                    "velocity": 0.5984251968503937,
                    "duration": 0.3000000000000682
                },
                {
                    "name": "A5",
                    "midi": 81,
                    "time": 395.7999999999917,
                    "velocity": 0.47244094488188976,
                    "duration": 0.10000000000002274
                },
                {
                    "name": "G#5",
                    "midi": 80,
                    "time": 395.89999999999173,
                    "velocity": 0.47244094488188976,
                    "duration": 0.10000000000002274
                },
                {
                    "name": "E6",
                    "midi": 88,
                    "time": 395.99999999999176,
                    "velocity": 0.5511811023622047,
                    "duration": 0.3000000000000682
                },
                {
                    "name": "G5",
                    "midi": 79,
                    "time": 395.99999999999176,
                    "velocity": 0.47244094488188976,
                    "duration": 0.10000000000002274
                },
                {
                    "name": "F#5",
                    "midi": 78,
                    "time": 396.0999999999918,
                    "velocity": 0.47244094488188976,
                    "duration": 0.10000000000002274
                },
                {
                    "name": "F5",
                    "midi": 77,
                    "time": 396.1999999999918,
                    "velocity": 0.47244094488188976,
                    "duration": 0.10000000000002274
                },
                {
                    "name": "C#6",
                    "midi": 85,
                    "time": 396.2999999999918,
                    "velocity": 0.5984251968503937,
                    "duration": 0.14999999999997726
                },
                {
                    "name": "E5",
                    "midi": 76,
                    "time": 396.2999999999918,
                    "velocity": 0.5039370078740157,
                    "duration": 0.14999999999997726
                },
                {
                    "name": "A#4",
                    "midi": 70,
                    "time": 396.5999999999918,
                    "velocity": 0.4645669291338583,
                    "duration": 0.14999999999997726
                },
                {
                    "name": "A#5",
                    "midi": 82,
                    "time": 396.5999999999918,
                    "velocity": 0.5511811023622047,
                    "duration": 0.14999999999997726
                },
                {
                    "name": "C#5",
                    "midi": 73,
                    "time": 396.74999999999176,
                    "velocity": 0.4094488188976378,
                    "duration": 0.14999999999997726
                },
                {
                    "name": "E5",
                    "midi": 76,
                    "time": 396.74999999999176,
                    "velocity": 0.4881889763779528,
                    "duration": 0.14999999999997726
                },
                {
                    "name": "A4",
                    "midi": 69,
                    "time": 396.89999999999173,
                    "velocity": 0.4645669291338583,
                    "duration": 0.14999999999997726
                },
                {
                    "name": "A5",
                    "midi": 81,
                    "time": 396.89999999999173,
                    "velocity": 0.5511811023622047,
                    "duration": 0.14999999999997726
                },
                {
                    "name": "E5",
                    "midi": 76,
                    "time": 397.0499999999917,
                    "velocity": 0.4881889763779528,
                    "duration": 0.14999999999997726
                },
                {
                    "name": "C#5",
                    "midi": 73,
                    "time": 397.0499999999917,
                    "velocity": 0.4094488188976378,
                    "duration": 0.14999999999997726
                },
                {
                    "name": "G4",
                    "midi": 67,
                    "time": 397.1999999999917,
                    "velocity": 0.4645669291338583,
                    "duration": 0.14999999999997726
                },
                {
                    "name": "G5",
                    "midi": 79,
                    "time": 397.1999999999917,
                    "velocity": 0.5511811023622047,
                    "duration": 0.14999999999997726
                },
                {
                    "name": "A#4",
                    "midi": 70,
                    "time": 397.34999999999167,
                    "velocity": 0.41732283464566927,
                    "duration": 0.14999999999997726
                },
                {
                    "name": "C#5",
                    "midi": 73,
                    "time": 397.34999999999167,
                    "velocity": 0.49606299212598426,
                    "duration": 0.14999999999997726
                },
                {
                    "name": "D5",
                    "midi": 74,
                    "time": 397.49999999999164,
                    "velocity": 0.47244094488188976,
                    "duration": 0.14999999999997726
                },
                {
                    "name": "D6",
                    "midi": 86,
                    "time": 397.49999999999164,
                    "velocity": 0.5669291338582677,
                    "duration": 0.14999999999997726
                },
                {
                    "name": "F#5",
                    "midi": 78,
                    "time": 397.49999999999164,
                    "velocity": 0.47244094488188976,
                    "duration": 0.14999999999997726
                },
                {
                    "name": "A#5",
                    "midi": 82,
                    "time": 397.7999999999916,
                    "velocity": 0.49606299212598426,
                    "duration": 0.3000000000000682
                },
                {
                    "name": "C#5",
                    "midi": 73,
                    "time": 397.7999999999916,
                    "velocity": 0.4251968503937008,
                    "duration": 0.10000000000002274
                },
                {
                    "name": "C5",
                    "midi": 72,
                    "time": 397.8999999999916,
                    "velocity": 0.4251968503937008,
                    "duration": 0.10000000000002274
                },
                {
                    "name": "B4",
                    "midi": 71,
                    "time": 397.99999999999164,
                    "velocity": 0.4251968503937008,
                    "duration": 0.10000000000002274
                },
                {
                    "name": "G5",
                    "midi": 79,
                    "time": 398.09999999999167,
                    "velocity": 0.5354330708661418,
                    "duration": 0.3000000000000682
                },
                {
                    "name": "A#4",
                    "midi": 70,
                    "time": 398.09999999999167,
                    "velocity": 0.4251968503937008,
                    "duration": 0.10000000000002274
                },
                {
                    "name": "A4",
                    "midi": 69,
                    "time": 398.1999999999917,
                    "velocity": 0.4251968503937008,
                    "duration": 0.10000000000002274
                },
                {
                    "name": "G#4",
                    "midi": 68,
                    "time": 398.2999999999917,
                    "velocity": 0.4251968503937008,
                    "duration": 0.10000000000002274
                },
                {
                    "name": "E5",
                    "midi": 76,
                    "time": 398.39999999999173,
                    "velocity": 0.49606299212598426,
                    "duration": 0.3000000000000682
                },
                {
                    "name": "G4",
                    "midi": 67,
                    "time": 398.39999999999173,
                    "velocity": 0.4251968503937008,
                    "duration": 0.10000000000002274
                },
                {
                    "name": "F#4",
                    "midi": 66,
                    "time": 398.49999999999176,
                    "velocity": 0.4251968503937008,
                    "duration": 0.10000000000002274
                },
                {
                    "name": "F4",
                    "midi": 65,
                    "time": 398.5999999999918,
                    "velocity": 0.4251968503937008,
                    "duration": 0.10000000000002274
                },
                {
                    "name": "E4",
                    "midi": 64,
                    "time": 398.6999999999918,
                    "velocity": 0.44881889763779526,
                    "duration": 0.14999999999997726
                },
                {
                    "name": "C#5",
                    "midi": 73,
                    "time": 398.6999999999918,
                    "velocity": 0.5354330708661418,
                    "duration": 0.14999999999997726
                },
                {
                    "name": "A#3",
                    "midi": 58,
                    "time": 398.99999999999176,
                    "velocity": 0.4566929133858268,
                    "duration": 0.14999999999997726
                },
                {
                    "name": "A#4",
                    "midi": 70,
                    "time": 398.99999999999176,
                    "velocity": 0.5433070866141733,
                    "duration": 0.14999999999997726
                },
                {
                    "name": "E4",
                    "midi": 64,
                    "time": 399.14999999999173,
                    "velocity": 0.47244094488188976,
                    "duration": 0.14999999999997726
                },
                {
                    "name": "C#4",
                    "midi": 61,
                    "time": 399.14999999999173,
                    "velocity": 0.3937007874015748,
                    "duration": 0.14999999999997726
                },
                {
                    "name": "A4",
                    "midi": 69,
                    "time": 399.2999999999917,
                    "velocity": 0.5433070866141733,
                    "duration": 0.14999999999997726
                },
                {
                    "name": "A3",
                    "midi": 57,
                    "time": 399.2999999999917,
                    "velocity": 0.4566929133858268,
                    "duration": 0.14999999999997726
                },
                {
                    "name": "C#4",
                    "midi": 61,
                    "time": 399.4499999999917,
                    "velocity": 0.3937007874015748,
                    "duration": 0.14999999999997726
                },
                {
                    "name": "E4",
                    "midi": 64,
                    "time": 399.4499999999917,
                    "velocity": 0.47244094488188976,
                    "duration": 0.14999999999997726
                },
                {
                    "name": "G4",
                    "midi": 67,
                    "time": 399.59999999999167,
                    "velocity": 0.5433070866141733,
                    "duration": 0.14999999999997726
                },
                {
                    "name": "G3",
                    "midi": 55,
                    "time": 399.59999999999167,
                    "velocity": 0.4566929133858268,
                    "duration": 0.14999999999997726
                },
                {
                    "name": "A#3",
                    "midi": 58,
                    "time": 399.74999999999164,
                    "velocity": 0.4015748031496063,
                    "duration": 0.14999999999997726
                },
                {
                    "name": "C#4",
                    "midi": 61,
                    "time": 399.74999999999164,
                    "velocity": 0.48031496062992124,
                    "duration": 0.14999999999997726
                },
                {
                    "name": "D4",
                    "midi": 62,
                    "time": 399.8999999999916,
                    "velocity": 0.4645669291338583,
                    "duration": 0.14999999999997726
                },
                {
                    "name": "F#4",
                    "midi": 66,
                    "time": 399.8999999999916,
                    "velocity": 0.4645669291338583,
                    "duration": 0.14999999999997726
                },
                {
                    "name": "D5",
                    "midi": 74,
                    "time": 399.8999999999916,
                    "velocity": 0.5511811023622047,
                    "duration": 0.14999999999997726
                },
                {
                    "name": "E4",
                    "midi": 64,
                    "time": 400.1999999999916,
                    "velocity": 0.4566929133858268,
                    "duration": 0.11250000000001137
                },
                {
                    "name": "A#4",
                    "midi": 70,
                    "time": 400.1999999999916,
                    "velocity": 0.4566929133858268,
                    "duration": 0.11250000000001137
                },
                {
                    "name": "C#5",
                    "midi": 73,
                    "time": 400.1999999999916,
                    "velocity": 0.4566929133858268,
                    "duration": 0.11250000000001137
                },
                {
                    "name": "E5",
                    "midi": 76,
                    "time": 400.1999999999916,
                    "velocity": 0.5433070866141733,
                    "duration": 0.11250000000001137
                },
                {
                    "name": "C#5",
                    "midi": 73,
                    "time": 400.3499999999916,
                    "velocity": 0.4566929133858268,
                    "duration": 0.11250000000001137
                },
                {
                    "name": "E4",
                    "midi": 64,
                    "time": 400.3499999999916,
                    "velocity": 0.4566929133858268,
                    "duration": 0.11250000000001137
                },
                {
                    "name": "A#4",
                    "midi": 70,
                    "time": 400.3499999999916,
                    "velocity": 0.4566929133858268,
                    "duration": 0.11250000000001137
                },
                {
                    "name": "E5",
                    "midi": 76,
                    "time": 400.3499999999916,
                    "velocity": 0.5433070866141733,
                    "duration": 0.11250000000001137
                },
                {
                    "name": "D5",
                    "midi": 74,
                    "time": 400.49999999999164,
                    "velocity": 0.5118110236220472,
                    "duration": 0.14999999999997726
                },
                {
                    "name": "F#5",
                    "midi": 78,
                    "time": 400.49999999999164,
                    "velocity": 0.6062992125984252,
                    "duration": 0.14999999999997726
                },
                {
                    "name": "F#4",
                    "midi": 66,
                    "time": 400.49999999999164,
                    "velocity": 0.5118110236220472,
                    "duration": 0.14999999999997726
                },
                {
                    "name": "A4",
                    "midi": 69,
                    "time": 400.49999999999164,
                    "velocity": 0.5118110236220472,
                    "duration": 0.14999999999997726
                },
                {
                    "name": "A#5",
                    "midi": 82,
                    "time": 400.7999999999916,
                    "velocity": 0.5748031496062992,
                    "duration": 0.11250000000001137
                },
                {
                    "name": "E5",
                    "midi": 76,
                    "time": 400.7999999999916,
                    "velocity": 0.48031496062992124,
                    "duration": 0.11250000000001137
                },
                {
                    "name": "C#5",
                    "midi": 73,
                    "time": 400.7999999999916,
                    "velocity": 0.48031496062992124,
                    "duration": 0.11250000000001137
                },
                {
                    "name": "A#4",
                    "midi": 70,
                    "time": 400.7999999999916,
                    "velocity": 0.48031496062992124,
                    "duration": 0.11250000000001137
                },
                {
                    "name": "A#4",
                    "midi": 70,
                    "time": 400.94999999999163,
                    "velocity": 0.48031496062992124,
                    "duration": 0.11250000000001137
                },
                {
                    "name": "A#5",
                    "midi": 82,
                    "time": 400.94999999999163,
                    "velocity": 0.5748031496062992,
                    "duration": 0.11250000000001137
                },
                {
                    "name": "E5",
                    "midi": 76,
                    "time": 400.94999999999163,
                    "velocity": 0.48031496062992124,
                    "duration": 0.11250000000001137
                },
                {
                    "name": "C#5",
                    "midi": 73,
                    "time": 400.94999999999163,
                    "velocity": 0.48031496062992124,
                    "duration": 0.11250000000001137
                },
                {
                    "name": "F#5",
                    "midi": 78,
                    "time": 401.09999999999167,
                    "velocity": 0.4566929133858268,
                    "duration": 0.14999999999997726
                },
                {
                    "name": "D5",
                    "midi": 74,
                    "time": 401.09999999999167,
                    "velocity": 0.4566929133858268,
                    "duration": 0.14999999999997726
                },
                {
                    "name": "D6",
                    "midi": 86,
                    "time": 401.09999999999167,
                    "velocity": 0.6692913385826772,
                    "duration": 0.14999999999997726
                },
                {
                    "name": "A5",
                    "midi": 81,
                    "time": 401.09999999999167,
                    "velocity": 0.5118110236220472,
                    "duration": 0.14999999999997726
                },
                {
                    "name": "E5",
                    "midi": 76,
                    "time": 401.3999999999916,
                    "velocity": 0.48031496062992124,
                    "duration": 0.11250000000001137
                },
                {
                    "name": "E6",
                    "midi": 88,
                    "time": 401.3999999999916,
                    "velocity": 0.5669291338582677,
                    "duration": 0.11250000000001137
                },
                {
                    "name": "A#5",
                    "midi": 82,
                    "time": 401.3999999999916,
                    "velocity": 0.48031496062992124,
                    "duration": 0.11250000000001137
                },
                {
                    "name": "C#6",
                    "midi": 85,
                    "time": 401.3999999999916,
                    "velocity": 0.48031496062992124,
                    "duration": 0.11250000000001137
                },
                {
                    "name": "E5",
                    "midi": 76,
                    "time": 401.54999999999166,
                    "velocity": 0.48031496062992124,
                    "duration": 0.11250000000001137
                },
                {
                    "name": "E6",
                    "midi": 88,
                    "time": 401.54999999999166,
                    "velocity": 0.5669291338582677,
                    "duration": 0.11250000000001137
                },
                {
                    "name": "A#5",
                    "midi": 82,
                    "time": 401.54999999999166,
                    "velocity": 0.48031496062992124,
                    "duration": 0.11250000000001137
                },
                {
                    "name": "C#6",
                    "midi": 85,
                    "time": 401.54999999999166,
                    "velocity": 0.48031496062992124,
                    "duration": 0.11250000000001137
                },
                {
                    "name": "F#5",
                    "midi": 78,
                    "time": 401.6999999999917,
                    "velocity": 0.5433070866141733,
                    "duration": 0.14999999999997726
                },
                {
                    "name": "A5",
                    "midi": 81,
                    "time": 401.6999999999917,
                    "velocity": 0.5433070866141733,
                    "duration": 0.14999999999997726
                },
                {
                    "name": "D6",
                    "midi": 86,
                    "time": 401.6999999999917,
                    "velocity": 0.5433070866141733,
                    "duration": 0.14999999999997726
                },
                {
                    "name": "F#6",
                    "midi": 90,
                    "time": 401.6999999999917,
                    "velocity": 0.6456692913385826,
                    "duration": 0.14999999999997726
                },
                {
                    "name": "A#5",
                    "midi": 82,
                    "time": 401.99999999999164,
                    "velocity": 0.5118110236220472,
                    "duration": 0.11250000000001137
                },
                {
                    "name": "C#6",
                    "midi": 85,
                    "time": 401.99999999999164,
                    "velocity": 0.5118110236220472,
                    "duration": 0.11250000000001137
                },
                {
                    "name": "E6",
                    "midi": 88,
                    "time": 401.99999999999164,
                    "velocity": 0.5118110236220472,
                    "duration": 0.11250000000001137
                },
                {
                    "name": "A#6",
                    "midi": 94,
                    "time": 401.99999999999164,
                    "velocity": 0.6062992125984252,
                    "duration": 0.11250000000001137
                },
                {
                    "name": "A#5",
                    "midi": 82,
                    "time": 402.1499999999917,
                    "velocity": 0.5118110236220472,
                    "duration": 0.11250000000001137
                },
                {
                    "name": "C#6",
                    "midi": 85,
                    "time": 402.1499999999917,
                    "velocity": 0.5118110236220472,
                    "duration": 0.11250000000001137
                },
                {
                    "name": "E6",
                    "midi": 88,
                    "time": 402.1499999999917,
                    "velocity": 0.5118110236220472,
                    "duration": 0.11250000000001137
                },
                {
                    "name": "A#6",
                    "midi": 94,
                    "time": 402.1499999999917,
                    "velocity": 0.6062992125984252,
                    "duration": 0.11250000000001137
                },
                {
                    "name": "D7",
                    "midi": 98,
                    "time": 402.2999999999917,
                    "velocity": 0.6850393700787402,
                    "duration": 0.14999999999997726
                },
                {
                    "name": "F#6",
                    "midi": 90,
                    "time": 402.2999999999917,
                    "velocity": 0.5748031496062992,
                    "duration": 0.14999999999997726
                },
                {
                    "name": "D6",
                    "midi": 86,
                    "time": 402.2999999999917,
                    "velocity": 0.5748031496062992,
                    "duration": 0.14999999999997726
                },
                {
                    "name": "E6",
                    "midi": 88,
                    "time": 402.59999999999167,
                    "velocity": 0.5196850393700787,
                    "duration": 0.11250000000001137
                },
                {
                    "name": "A#6",
                    "midi": 94,
                    "time": 402.59999999999167,
                    "velocity": 0.6141732283464567,
                    "duration": 0.11250000000001137
                },
                {
                    "name": "C#6",
                    "midi": 85,
                    "time": 402.59999999999167,
                    "velocity": 0.5196850393700787,
                    "duration": 0.11250000000001137
                },
                {
                    "name": "A#5",
                    "midi": 82,
                    "time": 402.59999999999167,
                    "velocity": 0.5196850393700787,
                    "duration": 0.11250000000001137
                },
                {
                    "name": "C#6",
                    "midi": 85,
                    "time": 402.7499999999917,
                    "velocity": 0.5196850393700787,
                    "duration": 0.11250000000001137
                },
                {
                    "name": "A#5",
                    "midi": 82,
                    "time": 402.7499999999917,
                    "velocity": 0.5196850393700787,
                    "duration": 0.11250000000001137
                },
                {
                    "name": "E6",
                    "midi": 88,
                    "time": 402.7499999999917,
                    "velocity": 0.5196850393700787,
                    "duration": 0.11250000000001137
                },
                {
                    "name": "A#6",
                    "midi": 94,
                    "time": 402.7499999999917,
                    "velocity": 0.6141732283464567,
                    "duration": 0.11250000000001137
                },
                {
                    "name": "D6",
                    "midi": 86,
                    "time": 402.89999999999173,
                    "velocity": 0.5984251968503937,
                    "duration": 0.14999999999997726
                },
                {
                    "name": "D7",
                    "midi": 98,
                    "time": 402.89999999999173,
                    "velocity": 0.7165354330708661,
                    "duration": 0.14999999999997726
                },
                {
                    "name": "F#6",
                    "midi": 90,
                    "time": 402.89999999999173,
                    "velocity": 0.5984251968503937,
                    "duration": 0.14999999999997726
                },
                {
                    "name": "C#6",
                    "midi": 85,
                    "time": 403.1999999999917,
                    "velocity": 0.5669291338582677,
                    "duration": 0.11250000000001137
                },
                {
                    "name": "E6",
                    "midi": 88,
                    "time": 403.1999999999917,
                    "velocity": 0.5669291338582677,
                    "duration": 0.11250000000001137
                },
                {
                    "name": "A#6",
                    "midi": 94,
                    "time": 403.1999999999917,
                    "velocity": 0.6692913385826772,
                    "duration": 0.11250000000001137
                },
                {
                    "name": "A#5",
                    "midi": 82,
                    "time": 403.1999999999917,
                    "velocity": 0.5669291338582677,
                    "duration": 0.11250000000001137
                },
                {
                    "name": "C#6",
                    "midi": 85,
                    "time": 403.3499999999917,
                    "velocity": 0.5669291338582677,
                    "duration": 0.11250000000001137
                },
                {
                    "name": "A#5",
                    "midi": 82,
                    "time": 403.3499999999917,
                    "velocity": 0.5669291338582677,
                    "duration": 0.11250000000001137
                },
                {
                    "name": "E6",
                    "midi": 88,
                    "time": 403.3499999999917,
                    "velocity": 0.5669291338582677,
                    "duration": 0.11250000000001137
                },
                {
                    "name": "A#6",
                    "midi": 94,
                    "time": 403.3499999999917,
                    "velocity": 0.6692913385826772,
                    "duration": 0.11250000000001137
                },
                {
                    "name": "D6",
                    "midi": 86,
                    "time": 403.49999999999176,
                    "velocity": 0.6220472440944882,
                    "duration": 0.30000000000001137
                },
                {
                    "name": "D7",
                    "midi": 98,
                    "time": 403.49999999999176,
                    "velocity": 0.7322834645669292,
                    "duration": 0.30000000000001137
                },
                {
                    "name": "F#6",
                    "midi": 90,
                    "time": 403.49999999999176,
                    "velocity": 0.6220472440944882,
                    "duration": 0.30000000000001137
                },
                {
                    "name": "A#6",
                    "midi": 94,
                    "time": 403.79999999999177,
                    "velocity": 0.6771653543307087,
                    "duration": 0.30000000000001137
                },
                {
                    "name": "A#5",
                    "midi": 82,
                    "time": 403.79999999999177,
                    "velocity": 0.5748031496062992,
                    "duration": 0.30000000000001137
                },
                {
                    "name": "E6",
                    "midi": 88,
                    "time": 403.79999999999177,
                    "velocity": 0.5748031496062992,
                    "duration": 0.30000000000001137
                },
                {
                    "name": "C#6",
                    "midi": 85,
                    "time": 403.79999999999177,
                    "velocity": 0.5748031496062992,
                    "duration": 0.30000000000001137
                },
                {
                    "name": "A#6",
                    "midi": 94,
                    "time": 404.3999999999918,
                    "velocity": 0.6771653543307087,
                    "duration": 0.30000000000001137
                },
                {
                    "name": "A#5",
                    "midi": 82,
                    "time": 404.3999999999918,
                    "velocity": 0.5748031496062992,
                    "duration": 0.30000000000001137
                },
                {
                    "name": "E6",
                    "midi": 88,
                    "time": 404.3999999999918,
                    "velocity": 0.5748031496062992,
                    "duration": 0.30000000000001137
                },
                {
                    "name": "C#6",
                    "midi": 85,
                    "time": 404.3999999999918,
                    "velocity": 0.5748031496062992,
                    "duration": 0.30000000000001137
                },
                {
                    "name": "A#5",
                    "midi": 82,
                    "time": 404.9999999999918,
                    "velocity": 0.5511811023622047,
                    "duration": 0.30000000000001137
                },
                {
                    "name": "A#6",
                    "midi": 94,
                    "time": 404.9999999999918,
                    "velocity": 0.6535433070866141,
                    "duration": 0.30000000000001137
                },
                {
                    "name": "C#6",
                    "midi": 85,
                    "time": 404.9999999999918,
                    "velocity": 0.5511811023622047,
                    "duration": 0.30000000000001137
                },
                {
                    "name": "E6",
                    "midi": 88,
                    "time": 404.9999999999918,
                    "velocity": 0.5511811023622047,
                    "duration": 0.30000000000001137
                },
                {
                    "name": "F5",
                    "midi": 77,
                    "time": 405.2999999999918,
                    "velocity": 0.5511811023622047,
                    "duration": 0.30000000000001137
                },
                {
                    "name": "B5",
                    "midi": 83,
                    "time": 405.2999999999918,
                    "velocity": 0.6535433070866141,
                    "duration": 0.30000000000001137
                },
                {
                    "name": "F6",
                    "midi": 89,
                    "time": 405.2999999999918,
                    "velocity": 0.6535433070866141,
                    "duration": 0.30000000000001137
                },
                {
                    "name": "G#5",
                    "midi": 80,
                    "time": 405.2999999999918,
                    "velocity": 0.5511811023622047,
                    "duration": 0.30000000000001137
                },
                {
                    "name": "C5",
                    "midi": 72,
                    "time": 405.59999999999184,
                    "velocity": 0.5511811023622047,
                    "duration": 0.30000000000001137
                },
                {
                    "name": "D#5",
                    "midi": 75,
                    "time": 405.59999999999184,
                    "velocity": 0.5511811023622047,
                    "duration": 0.30000000000001137
                },
                {
                    "name": "F#5",
                    "midi": 78,
                    "time": 405.59999999999184,
                    "velocity": 0.5511811023622047,
                    "duration": 0.30000000000001137
                },
                {
                    "name": "C6",
                    "midi": 84,
                    "time": 405.59999999999184,
                    "velocity": 0.6535433070866141,
                    "duration": 0.30000000000001137
                },
                {
                    "name": "G4",
                    "midi": 67,
                    "time": 405.89999999999185,
                    "velocity": 0.5511811023622047,
                    "duration": 0.30000000000001137
                },
                {
                    "name": "A#4",
                    "midi": 70,
                    "time": 405.89999999999185,
                    "velocity": 0.5511811023622047,
                    "duration": 0.30000000000001137
                },
                {
                    "name": "G5",
                    "midi": 79,
                    "time": 405.89999999999185,
                    "velocity": 0.6535433070866141,
                    "duration": 0.30000000000001137
                },
                {
                    "name": "C#5",
                    "midi": 73,
                    "time": 405.89999999999185,
                    "velocity": 0.5511811023622047,
                    "duration": 0.30000000000001137
                },
                {
                    "name": "D5",
                    "midi": 74,
                    "time": 406.19999999999186,
                    "velocity": 0.6535433070866141,
                    "duration": 0.30000000000001137
                },
                {
                    "name": "D4",
                    "midi": 62,
                    "time": 406.19999999999186,
                    "velocity": 0.5511811023622047,
                    "duration": 0.30000000000001137
                },
                {
                    "name": "F4",
                    "midi": 65,
                    "time": 406.19999999999186,
                    "velocity": 0.5511811023622047,
                    "duration": 0.30000000000001137
                },
                {
                    "name": "G#4",
                    "midi": 68,
                    "time": 406.19999999999186,
                    "velocity": 0.5511811023622047,
                    "duration": 0.30000000000001137
                },
                {
                    "name": "C4",
                    "midi": 60,
                    "time": 406.49999999999187,
                    "velocity": 0.5511811023622047,
                    "duration": 0.30000000000001137
                },
                {
                    "name": "A4",
                    "midi": 69,
                    "time": 406.49999999999187,
                    "velocity": 0.6535433070866141,
                    "duration": 0.30000000000001137
                },
                {
                    "name": "D#4",
                    "midi": 63,
                    "time": 406.49999999999187,
                    "velocity": 0.5511811023622047,
                    "duration": 0.30000000000001137
                },
                {
                    "name": "A3",
                    "midi": 57,
                    "time": 406.49999999999187,
                    "velocity": 0.5511811023622047,
                    "duration": 0.30000000000001137
                },
                {
                    "name": "A#4",
                    "midi": 70,
                    "time": 406.7999999999919,
                    "velocity": 0.6535433070866141,
                    "duration": 0.30000000000001137
                },
                {
                    "name": "A#3",
                    "midi": 58,
                    "time": 406.7999999999919,
                    "velocity": 0.5511811023622047,
                    "duration": 0.30000000000001137
                },
                {
                    "name": "C#4",
                    "midi": 61,
                    "time": 406.7999999999919,
                    "velocity": 0.5511811023622047,
                    "duration": 0.30000000000001137
                },
                {
                    "name": "E4",
                    "midi": 64,
                    "time": 406.7999999999919,
                    "velocity": 0.5511811023622047,
                    "duration": 0.30000000000001137
                },
                {
                    "name": "F3",
                    "midi": 53,
                    "time": 407.6999999999919,
                    "velocity": 0.5354330708661418,
                    "duration": 0.6000000000000227
                },
                {
                    "name": "B3",
                    "midi": 59,
                    "time": 407.6999999999919,
                    "velocity": 0.5354330708661418,
                    "duration": 0.6000000000000227
                },
                {
                    "name": "F4",
                    "midi": 65,
                    "time": 407.6999999999919,
                    "velocity": 0.6377952755905512,
                    "duration": 0.9000000000000341
                },
                {
                    "name": "C#4",
                    "midi": 61,
                    "time": 408.59999999999195,
                    "velocity": 0.5669291338582677,
                    "duration": 0.30000000000001137
                },
                {
                    "name": "D4",
                    "midi": 62,
                    "time": 408.89999999999196,
                    "velocity": 0.5669291338582677,
                    "duration": 0.44999999999998863
                },
                {
                    "name": "E4",
                    "midi": 64,
                    "time": 409.34999999999195,
                    "velocity": 0.5669291338582677,
                    "duration": 0.05624999999997726
                },
                {
                    "name": "E4",
                    "midi": 64,
                    "time": 409.42499999999194,
                    "velocity": 0.5669291338582677,
                    "duration": 0.05624999999997726
                },
                {
                    "name": "G4",
                    "midi": 67,
                    "time": 409.4999999999919,
                    "velocity": 0.6377952755905512,
                    "duration": 0.8999999999999773
                },
                {
                    "name": "F4",
                    "midi": 65,
                    "time": 410.3999999999919,
                    "velocity": 0.6062992125984252,
                    "duration": 0.30000000000001137
                },
                {
                    "name": "E4",
                    "midi": 64,
                    "time": 410.6999999999919,
                    "velocity": 0.6220472440944882,
                    "duration": 0.39999999999997726
                },
                {
                    "name": "D4",
                    "midi": 62,
                    "time": 411.0999999999919,
                    "velocity": 0.5905511811023622,
                    "duration": 0.39999999999997726
                },
                {
                    "name": "C#4",
                    "midi": 61,
                    "time": 411.49999999999187,
                    "velocity": 0.5905511811023622,
                    "duration": 0.39999999999997726
                },
                {
                    "name": "C4",
                    "midi": 60,
                    "time": 411.89999999999185,
                    "velocity": 0.6299212598425197,
                    "duration": 0.39999999999997726
                },
                {
                    "name": "B3",
                    "midi": 59,
                    "time": 412.2999999999918,
                    "velocity": 0.5984251968503937,
                    "duration": 0.39999999999997726
                },
                {
                    "name": "F3",
                    "midi": 53,
                    "time": 412.6999999999918,
                    "velocity": 0.44881889763779526,
                    "duration": 0.39999999999997726
                },
                {
                    "name": "G#3",
                    "midi": 56,
                    "time": 412.6999999999918,
                    "velocity": 0.44881889763779526,
                    "duration": 0.39999999999997726
                },
                {
                    "name": "A#3",
                    "midi": 58,
                    "time": 412.6999999999918,
                    "velocity": 0.5354330708661418,
                    "duration": 0.39999999999997726
                },
                {
                    "name": "A#3",
                    "midi": 58,
                    "time": 413.0999999999918,
                    "velocity": 0.5433070866141733,
                    "duration": 1.1999999999999886
                },
                {
                    "name": "F#3",
                    "midi": 54,
                    "time": 413.0999999999918,
                    "velocity": 0.4566929133858268,
                    "duration": 1.1999999999999886
                },
                {
                    "name": "F3",
                    "midi": 53,
                    "time": 414.29999999999177,
                    "velocity": 0.4566929133858268,
                    "duration": 1.1999999999999886
                },
                {
                    "name": "A#3",
                    "midi": 58,
                    "time": 414.29999999999177,
                    "velocity": 0.5433070866141733,
                    "duration": 1.1999999999999886
                },
                {
                    "name": "A#3",
                    "midi": 58,
                    "time": 415.49999999999176,
                    "velocity": 0.4566929133858268,
                    "duration": 1.1999999999999886
                },
                {
                    "name": "D#4",
                    "midi": 63,
                    "time": 415.49999999999176,
                    "velocity": 0.5433070866141733,
                    "duration": 1.1999999999999886
                },
                {
                    "name": "D#3",
                    "midi": 51,
                    "time": 415.49999999999176,
                    "velocity": 0.4566929133858268,
                    "duration": 1.1999999999999886
                },
                {
                    "name": "D#4",
                    "midi": 63,
                    "time": 416.69999999999175,
                    "velocity": 0.5905511811023622,
                    "duration": 1.0500000000000114
                },
                {
                    "name": "D#3",
                    "midi": 51,
                    "time": 416.69999999999175,
                    "velocity": 0.49606299212598426,
                    "duration": 1.0500000000000114
                },
                {
                    "name": "G#3",
                    "midi": 56,
                    "time": 416.69999999999175,
                    "velocity": 0.49606299212598426,
                    "duration": 1.0500000000000114
                },
                {
                    "name": "F3",
                    "midi": 53,
                    "time": 417.74999999999176,
                    "velocity": 0.4881889763779528,
                    "duration": 0.11250000000001137
                },
                {
                    "name": "D4",
                    "midi": 62,
                    "time": 417.74999999999176,
                    "velocity": 0.4881889763779528,
                    "duration": 0.11250000000001137
                },
                {
                    "name": "F4",
                    "midi": 65,
                    "time": 417.74999999999176,
                    "velocity": 0.5826771653543307,
                    "duration": 0.11250000000001137
                },
                {
                    "name": "G#3",
                    "midi": 56,
                    "time": 417.74999999999176,
                    "velocity": 0.4881889763779528,
                    "duration": 0.11250000000001137
                },
                {
                    "name": "G#3",
                    "midi": 56,
                    "time": 417.8999999999918,
                    "velocity": 0.5354330708661418,
                    "duration": 0.30000000000001137
                },
                {
                    "name": "F3",
                    "midi": 53,
                    "time": 417.8999999999918,
                    "velocity": 0.5354330708661418,
                    "duration": 0.30000000000001137
                },
                {
                    "name": "D4",
                    "midi": 62,
                    "time": 417.8999999999918,
                    "velocity": 0.5354330708661418,
                    "duration": 0.30000000000001137
                },
                {
                    "name": "F4",
                    "midi": 65,
                    "time": 417.8999999999918,
                    "velocity": 0.6299212598425197,
                    "duration": 0.30000000000001137
                },
                {
                    "name": "C#4",
                    "midi": 61,
                    "time": 421.4999999999918,
                    "velocity": 0.4251968503937008,
                    "duration": 0.30000000000001137
                },
                {
                    "name": "F4",
                    "midi": 65,
                    "time": 421.4999999999918,
                    "velocity": 0.4251968503937008,
                    "duration": 0.30000000000001137
                },
                {
                    "name": "F4",
                    "midi": 65,
                    "time": 422.5499999999918,
                    "velocity": 0.3858267716535433,
                    "duration": 0.11250000000001137
                },
                {
                    "name": "D4",
                    "midi": 62,
                    "time": 422.5499999999918,
                    "velocity": 0.3858267716535433,
                    "duration": 0.11250000000001137
                },
                {
                    "name": "F4",
                    "midi": 65,
                    "time": 422.69999999999186,
                    "velocity": 0.4251968503937008,
                    "duration": 0.14999999999997726
                },
                {
                    "name": "D4",
                    "midi": 62,
                    "time": 422.69999999999186,
                    "velocity": 0.4251968503937008,
                    "duration": 0.14999999999997726
                },
                {
                    "name": "C#4",
                    "midi": 61,
                    "time": 426.2999999999918,
                    "velocity": 0.4251968503937008,
                    "duration": 0.30000000000001137
                },
                {
                    "name": "F4",
                    "midi": 65,
                    "time": 426.2999999999918,
                    "velocity": 0.4251968503937008,
                    "duration": 0.30000000000001137
                },
                {
                    "name": "D4",
                    "midi": 62,
                    "time": 427.34999999999184,
                    "velocity": 0.3858267716535433,
                    "duration": 0.11250000000001137
                },
                {
                    "name": "F4",
                    "midi": 65,
                    "time": 427.34999999999184,
                    "velocity": 0.3858267716535433,
                    "duration": 0.11250000000001137
                },
                {
                    "name": "F4",
                    "midi": 65,
                    "time": 427.49999999999187,
                    "velocity": 0.4251968503937008,
                    "duration": 0.14999999999997726
                },
                {
                    "name": "D4",
                    "midi": 62,
                    "time": 427.49999999999187,
                    "velocity": 0.4251968503937008,
                    "duration": 0.14999999999997726
                },
                {
                    "name": "D4",
                    "midi": 62,
                    "time": 428.39999999999185,
                    "velocity": 0.3779527559055118,
                    "duration": 0.30000000000001137
                },
                {
                    "name": "B4",
                    "midi": 71,
                    "time": 428.69999999999186,
                    "velocity": 0.4251968503937008,
                    "duration": 0.8999999999999773
                },
                {
                    "name": "D4",
                    "midi": 62,
                    "time": 429.59999999999184,
                    "velocity": 0.4015748031496063,
                    "duration": 0.30000000000001137
                },
                {
                    "name": "G#3",
                    "midi": 56,
                    "time": 430.7999999999918,
                    "velocity": 0.33858267716535434,
                    "duration": 0.30000000000001137
                },
                {
                    "name": "F4",
                    "midi": 65,
                    "time": 431.09999999999184,
                    "velocity": 0.4015748031496063,
                    "duration": 0.8999999999999773
                },
                {
                    "name": "G#3",
                    "midi": 56,
                    "time": 431.9999999999918,
                    "velocity": 0.36220472440944884,
                    "duration": 0.30000000000001137
                },
                {
                    "name": "F4",
                    "midi": 65,
                    "time": 438.4499999999918,
                    "velocity": 0.4330708661417323,
                    "duration": 0.16499999999996362
                },
                {
                    "name": "E4",
                    "midi": 64,
                    "time": 438.5999999999918,
                    "velocity": 0.44881889763779526,
                    "duration": 0.16499999999996362
                },
                {
                    "name": "D4",
                    "midi": 62,
                    "time": 438.74999999999176,
                    "velocity": 0.4645669291338583,
                    "duration": 0.16499999999996362
                },
                {
                    "name": "C#4",
                    "midi": 61,
                    "time": 438.89999999999173,
                    "velocity": 0.48031496062992124,
                    "duration": 0.16499999999996362
                },
                {
                    "name": "C4",
                    "midi": 60,
                    "time": 439.0499999999917,
                    "velocity": 0.49606299212598426,
                    "duration": 0.16499999999996362
                },
                {
                    "name": "B3",
                    "midi": 59,
                    "time": 439.1999999999917,
                    "velocity": 0.5118110236220472,
                    "duration": 0.16499999999996362
                },
                {
                    "name": "A#3",
                    "midi": 58,
                    "time": 439.34999999999167,
                    "velocity": 0.5275590551181102,
                    "duration": 0.16499999999996362
                },
                {
                    "name": "A3",
                    "midi": 57,
                    "time": 439.49999999999164,
                    "velocity": 0.5984251968503937,
                    "duration": 0.8999999999999773
                },
                {
                    "name": "A4",
                    "midi": 69,
                    "time": 440.5499999999916,
                    "velocity": 0.4251968503937008,
                    "duration": 0.05624999999997726
                },
                {
                    "name": "D5",
                    "midi": 74,
                    "time": 440.5499999999916,
                    "velocity": 0.4251968503937008,
                    "duration": 0.05624999999997726
                },
                {
                    "name": "F#5",
                    "midi": 78,
                    "time": 440.5499999999916,
                    "velocity": 0.4251968503937008,
                    "duration": 0.05624999999997726
                },
                {
                    "name": "A5",
                    "midi": 81,
                    "time": 440.5499999999916,
                    "velocity": 0.5039370078740157,
                    "duration": 0.05624999999997726
                },
                {
                    "name": "A4",
                    "midi": 69,
                    "time": 440.6249999999916,
                    "velocity": 0.4251968503937008,
                    "duration": 0.05624999999997726
                },
                {
                    "name": "D5",
                    "midi": 74,
                    "time": 440.6249999999916,
                    "velocity": 0.4251968503937008,
                    "duration": 0.05624999999997726
                },
                {
                    "name": "F#5",
                    "midi": 78,
                    "time": 440.6249999999916,
                    "velocity": 0.4251968503937008,
                    "duration": 0.05624999999997726
                },
                {
                    "name": "A5",
                    "midi": 81,
                    "time": 440.6249999999916,
                    "velocity": 0.5039370078740157,
                    "duration": 0.05624999999997726
                },
                {
                    "name": "A4",
                    "midi": 69,
                    "time": 440.6999999999916,
                    "velocity": 0.48031496062992124,
                    "duration": 0.8999999999999773
                },
                {
                    "name": "D5",
                    "midi": 74,
                    "time": 440.6999999999916,
                    "velocity": 0.48031496062992124,
                    "duration": 0.8999999999999773
                },
                {
                    "name": "F#5",
                    "midi": 78,
                    "time": 440.6999999999916,
                    "velocity": 0.48031496062992124,
                    "duration": 0.8999999999999773
                },
                {
                    "name": "A5",
                    "midi": 81,
                    "time": 440.6999999999916,
                    "velocity": 0.5669291338582677,
                    "duration": 0.8999999999999773
                },
                {
                    "name": "A3",
                    "midi": 57,
                    "time": 441.74999999999153,
                    "velocity": 0.5826771653543307,
                    "duration": 0.14999999999997726
                },
                {
                    "name": "B3",
                    "midi": 59,
                    "time": 441.8999999999915,
                    "velocity": 0.6141732283464567,
                    "duration": 0.8999999999999773
                },
                {
                    "name": "D6",
                    "midi": 86,
                    "time": 442.94999999999146,
                    "velocity": 0.5039370078740157,
                    "duration": 0.05624999999997726
                },
                {
                    "name": "B5",
                    "midi": 83,
                    "time": 442.94999999999146,
                    "velocity": 0.4251968503937008,
                    "duration": 0.05624999999997726
                },
                {
                    "name": "F#5",
                    "midi": 78,
                    "time": 442.94999999999146,
                    "velocity": 0.4251968503937008,
                    "duration": 0.05624999999997726
                },
                {
                    "name": "D5",
                    "midi": 74,
                    "time": 442.94999999999146,
                    "velocity": 0.4251968503937008,
                    "duration": 0.05624999999997726
                },
                {
                    "name": "D6",
                    "midi": 86,
                    "time": 443.02499999999145,
                    "velocity": 0.5039370078740157,
                    "duration": 0.05624999999997726
                },
                {
                    "name": "B5",
                    "midi": 83,
                    "time": 443.02499999999145,
                    "velocity": 0.4251968503937008,
                    "duration": 0.05624999999997726
                },
                {
                    "name": "F#5",
                    "midi": 78,
                    "time": 443.02499999999145,
                    "velocity": 0.4251968503937008,
                    "duration": 0.05624999999997726
                },
                {
                    "name": "D5",
                    "midi": 74,
                    "time": 443.02499999999145,
                    "velocity": 0.4251968503937008,
                    "duration": 0.05624999999997726
                },
                {
                    "name": "D6",
                    "midi": 86,
                    "time": 443.09999999999144,
                    "velocity": 0.5433070866141733,
                    "duration": 0.8999999999999773
                },
                {
                    "name": "B5",
                    "midi": 83,
                    "time": 443.09999999999144,
                    "velocity": 0.4566929133858268,
                    "duration": 0.8999999999999773
                },
                {
                    "name": "F#5",
                    "midi": 78,
                    "time": 443.09999999999144,
                    "velocity": 0.4566929133858268,
                    "duration": 0.8999999999999773
                },
                {
                    "name": "D5",
                    "midi": 74,
                    "time": 443.09999999999144,
                    "velocity": 0.4566929133858268,
                    "duration": 0.8999999999999773
                },
                {
                    "name": "B3",
                    "midi": 59,
                    "time": 444.1499999999914,
                    "velocity": 0.5905511811023622,
                    "duration": 0.14999999999997726
                },
                {
                    "name": "F#3",
                    "midi": 54,
                    "time": 444.29999999999137,
                    "velocity": 0.5275590551181102,
                    "duration": 0.8999999999999773
                },
                {
                    "name": "F#4",
                    "midi": 66,
                    "time": 444.29999999999137,
                    "velocity": 0.6220472440944882,
                    "duration": 0.8999999999999773
                },
                {
                    "name": "F#6",
                    "midi": 90,
                    "time": 444.74999999999136,
                    "velocity": 0.5039370078740157,
                    "duration": 0.05624999999997726
                },
                {
                    "name": "C#6",
                    "midi": 85,
                    "time": 444.74999999999136,
                    "velocity": 0.4251968503937008,
                    "duration": 0.05624999999997726
                },
                {
                    "name": "A#5",
                    "midi": 82,
                    "time": 444.74999999999136,
                    "velocity": 0.4251968503937008,
                    "duration": 0.05624999999997726
                },
                {
                    "name": "F#5",
                    "midi": 78,
                    "time": 444.74999999999136,
                    "velocity": 0.4251968503937008,
                    "duration": 0.05624999999997726
                },
                {
                    "name": "F#6",
                    "midi": 90,
                    "time": 444.82499999999135,
                    "velocity": 0.5039370078740157,
                    "duration": 0.05624999999997726
                },
                {
                    "name": "C#6",
                    "midi": 85,
                    "time": 444.82499999999135,
                    "velocity": 0.4251968503937008,
                    "duration": 0.05624999999997726
                },
                {
                    "name": "A#5",
                    "midi": 82,
                    "time": 444.82499999999135,
                    "velocity": 0.4251968503937008,
                    "duration": 0.05624999999997726
                },
                {
                    "name": "F#5",
                    "midi": 78,
                    "time": 444.82499999999135,
                    "velocity": 0.4251968503937008,
                    "duration": 0.05624999999997726
                },
                {
                    "name": "F#6",
                    "midi": 90,
                    "time": 444.89999999999134,
                    "velocity": 0.5354330708661418,
                    "duration": 0.30000000000001137
                },
                {
                    "name": "C#6",
                    "midi": 85,
                    "time": 444.89999999999134,
                    "velocity": 0.44881889763779526,
                    "duration": 0.30000000000001137
                },
                {
                    "name": "A#5",
                    "midi": 82,
                    "time": 444.89999999999134,
                    "velocity": 0.44881889763779526,
                    "duration": 0.30000000000001137
                },
                {
                    "name": "F#5",
                    "midi": 78,
                    "time": 444.89999999999134,
                    "velocity": 0.44881889763779526,
                    "duration": 0.30000000000001137
                },
                {
                    "name": "A3",
                    "midi": 57,
                    "time": 445.49999999999136,
                    "velocity": 0.5118110236220472,
                    "duration": 0.8999999999999773
                },
                {
                    "name": "A4",
                    "midi": 69,
                    "time": 445.49999999999136,
                    "velocity": 0.6062992125984252,
                    "duration": 0.8999999999999773
                },
                {
                    "name": "A6",
                    "midi": 93,
                    "time": 445.94999999999135,
                    "velocity": 0.5039370078740157,
                    "duration": 0.05624999999997726
                },
                {
                    "name": "E6",
                    "midi": 88,
                    "time": 445.94999999999135,
                    "velocity": 0.4251968503937008,
                    "duration": 0.05624999999997726
                },
                {
                    "name": "C#6",
                    "midi": 85,
                    "time": 445.94999999999135,
                    "velocity": 0.4251968503937008,
                    "duration": 0.05624999999997726
                },
                {
                    "name": "A5",
                    "midi": 81,
                    "time": 445.94999999999135,
                    "velocity": 0.4251968503937008,
                    "duration": 0.05624999999997726
                },
                {
                    "name": "A6",
                    "midi": 93,
                    "time": 446.02499999999134,
                    "velocity": 0.5039370078740157,
                    "duration": 0.05624999999997726
                },
                {
                    "name": "E6",
                    "midi": 88,
                    "time": 446.02499999999134,
                    "velocity": 0.4251968503937008,
                    "duration": 0.05624999999997726
                },
                {
                    "name": "C#6",
                    "midi": 85,
                    "time": 446.02499999999134,
                    "velocity": 0.4251968503937008,
                    "duration": 0.05624999999997726
                },
                {
                    "name": "A5",
                    "midi": 81,
                    "time": 446.02499999999134,
                    "velocity": 0.4251968503937008,
                    "duration": 0.05624999999997726
                },
                {
                    "name": "A6",
                    "midi": 93,
                    "time": 446.0999999999913,
                    "velocity": 0.5433070866141733,
                    "duration": 0.30000000000001137
                },
                {
                    "name": "E6",
                    "midi": 88,
                    "time": 446.0999999999913,
                    "velocity": 0.4566929133858268,
                    "duration": 0.30000000000001137
                },
                {
                    "name": "C#6",
                    "midi": 85,
                    "time": 446.0999999999913,
                    "velocity": 0.4566929133858268,
                    "duration": 0.30000000000001137
                },
                {
                    "name": "A5",
                    "midi": 81,
                    "time": 446.0999999999913,
                    "velocity": 0.4566929133858268,
                    "duration": 0.30000000000001137
                },
                {
                    "name": "A3",
                    "midi": 57,
                    "time": 446.5499999999913,
                    "velocity": 0.5354330708661418,
                    "duration": 0.11250000000001137
                },
                {
                    "name": "D4",
                    "midi": 62,
                    "time": 446.5499999999913,
                    "velocity": 0.5354330708661418,
                    "duration": 0.11250000000001137
                },
                {
                    "name": "F#4",
                    "midi": 66,
                    "time": 446.5499999999913,
                    "velocity": 0.5354330708661418,
                    "duration": 0.11250000000001137
                },
                {
                    "name": "A4",
                    "midi": 69,
                    "time": 446.5499999999913,
                    "velocity": 0.6377952755905512,
                    "duration": 0.11250000000001137
                },
                {
                    "name": "A3",
                    "midi": 57,
                    "time": 446.69999999999135,
                    "velocity": 0.44881889763779526,
                    "duration": 0.8999999999999773
                },
                {
                    "name": "D4",
                    "midi": 62,
                    "time": 446.69999999999135,
                    "velocity": 0.44881889763779526,
                    "duration": 0.8999999999999773
                },
                {
                    "name": "F#4",
                    "midi": 66,
                    "time": 446.69999999999135,
                    "velocity": 0.44881889763779526,
                    "duration": 0.8999999999999773
                },
                {
                    "name": "A4",
                    "midi": 69,
                    "time": 446.69999999999135,
                    "velocity": 0.6299212598425197,
                    "duration": 0.8999999999999773
                },
                {
                    "name": "A5",
                    "midi": 81,
                    "time": 447.7499999999913,
                    "velocity": 0.4409448818897638,
                    "duration": 0.11250000000001137
                },
                {
                    "name": "D6",
                    "midi": 86,
                    "time": 447.7499999999913,
                    "velocity": 0.4409448818897638,
                    "duration": 0.11250000000001137
                },
                {
                    "name": "F#6",
                    "midi": 90,
                    "time": 447.7499999999913,
                    "velocity": 0.4409448818897638,
                    "duration": 0.11250000000001137
                },
                {
                    "name": "A6",
                    "midi": 93,
                    "time": 447.7499999999913,
                    "velocity": 0.5275590551181102,
                    "duration": 0.11250000000001137
                },
                {
                    "name": "A5",
                    "midi": 81,
                    "time": 447.89999999999134,
                    "velocity": 0.5196850393700787,
                    "duration": 0.30000000000001137
                },
                {
                    "name": "D6",
                    "midi": 86,
                    "time": 447.89999999999134,
                    "velocity": 0.5196850393700787,
                    "duration": 0.30000000000001137
                },
                {
                    "name": "F#6",
                    "midi": 90,
                    "time": 447.89999999999134,
                    "velocity": 0.5196850393700787,
                    "duration": 0.30000000000001137
                },
                {
                    "name": "A6",
                    "midi": 93,
                    "time": 447.89999999999134,
                    "velocity": 0.6141732283464567,
                    "duration": 0.30000000000001137
                },
                {
                    "name": "D7",
                    "midi": 98,
                    "time": 448.3499999999913,
                    "velocity": 0.5511811023622047,
                    "duration": 0.11250000000001137
                },
                {
                    "name": "A6",
                    "midi": 93,
                    "time": 448.3499999999913,
                    "velocity": 0.4645669291338583,
                    "duration": 0.11250000000001137
                },
                {
                    "name": "F#6",
                    "midi": 90,
                    "time": 448.3499999999913,
                    "velocity": 0.4645669291338583,
                    "duration": 0.11250000000001137
                },
                {
                    "name": "D6",
                    "midi": 86,
                    "time": 448.3499999999913,
                    "velocity": 0.4645669291338583,
                    "duration": 0.11250000000001137
                },
                {
                    "name": "D7",
                    "midi": 98,
                    "time": 448.49999999999136,
                    "velocity": 0.6220472440944882,
                    "duration": 0.30000000000001137
                },
                {
                    "name": "A6",
                    "midi": 93,
                    "time": 448.49999999999136,
                    "velocity": 0.5275590551181102,
                    "duration": 0.30000000000001137
                },
                {
                    "name": "F#6",
                    "midi": 90,
                    "time": 448.49999999999136,
                    "velocity": 0.5275590551181102,
                    "duration": 0.30000000000001137
                },
                {
                    "name": "D6",
                    "midi": 86,
                    "time": 448.49999999999136,
                    "velocity": 0.5275590551181102,
                    "duration": 0.30000000000001137
                },
                {
                    "name": "F#6",
                    "midi": 90,
                    "time": 448.94999999999135,
                    "velocity": 0.5590551181102362,
                    "duration": 0.11250000000001137
                },
                {
                    "name": "D6",
                    "midi": 86,
                    "time": 448.94999999999135,
                    "velocity": 0.47244094488188976,
                    "duration": 0.11250000000001137
                },
                {
                    "name": "F#5",
                    "midi": 78,
                    "time": 448.94999999999135,
                    "velocity": 0.47244094488188976,
                    "duration": 0.11250000000001137
                },
                {
                    "name": "F#6",
                    "midi": 90,
                    "time": 449.0999999999914,
                    "velocity": 0.6299212598425197,
                    "duration": 0.30000000000001137
                },
                {
                    "name": "D6",
                    "midi": 86,
                    "time": 449.0999999999914,
                    "velocity": 0.5354330708661418,
                    "duration": 0.30000000000001137
                },
                {
                    "name": "F#5",
                    "midi": 78,
                    "time": 449.0999999999914,
                    "velocity": 0.5354330708661418,
                    "duration": 0.30000000000001137
                },
                {
                    "name": "A6",
                    "midi": 93,
                    "time": 449.54999999999137,
                    "velocity": 0.5511811023622047,
                    "duration": 0.11250000000001137
                },
                {
                    "name": "F#6",
                    "midi": 90,
                    "time": 449.54999999999137,
                    "velocity": 0.4645669291338583,
                    "duration": 0.11250000000001137
                },
                {
                    "name": "D6",
                    "midi": 86,
                    "time": 449.54999999999137,
                    "velocity": 0.4645669291338583,
                    "duration": 0.11250000000001137
                },
                {
                    "name": "A5",
                    "midi": 81,
                    "time": 449.54999999999137,
                    "velocity": 0.4645669291338583,
                    "duration": 0.11250000000001137
                },
                {
                    "name": "A6",
                    "midi": 93,
                    "time": 449.6999999999914,
                    "velocity": 0.6299212598425197,
                    "duration": 0.30000000000001137
                },
                {
                    "name": "F#6",
                    "midi": 90,
                    "time": 449.6999999999914,
                    "velocity": 0.5354330708661418,
                    "duration": 0.30000000000001137
                },
                {
                    "name": "D6",
                    "midi": 86,
                    "time": 449.6999999999914,
                    "velocity": 0.5354330708661418,
                    "duration": 0.30000000000001137
                },
                {
                    "name": "A5",
                    "midi": 81,
                    "time": 449.6999999999914,
                    "velocity": 0.5354330708661418,
                    "duration": 0.30000000000001137
                },
                {
                    "name": "D6",
                    "midi": 86,
                    "time": 450.1499999999914,
                    "velocity": 0.5669291338582677,
                    "duration": 0.11250000000001137
                },
                {
                    "name": "A5",
                    "midi": 81,
                    "time": 450.1499999999914,
                    "velocity": 0.48031496062992124,
                    "duration": 0.11250000000001137
                },
                {
                    "name": "F#5",
                    "midi": 78,
                    "time": 450.1499999999914,
                    "velocity": 0.48031496062992124,
                    "duration": 0.11250000000001137
                },
                {
                    "name": "D5",
                    "midi": 74,
                    "time": 450.1499999999914,
                    "velocity": 0.48031496062992124,
                    "duration": 0.11250000000001137
                },
                {
                    "name": "D6",
                    "midi": 86,
                    "time": 450.2999999999914,
                    "velocity": 0.6220472440944882,
                    "duration": 0.30000000000001137
                },
                {
                    "name": "A5",
                    "midi": 81,
                    "time": 450.2999999999914,
                    "velocity": 0.5275590551181102,
                    "duration": 0.30000000000001137
                },
                {
                    "name": "F#5",
                    "midi": 78,
                    "time": 450.2999999999914,
                    "velocity": 0.5275590551181102,
                    "duration": 0.30000000000001137
                },
                {
                    "name": "D5",
                    "midi": 74,
                    "time": 450.2999999999914,
                    "velocity": 0.5275590551181102,
                    "duration": 0.30000000000001137
                },
                {
                    "name": "F#6",
                    "midi": 90,
                    "time": 450.7499999999914,
                    "velocity": 0.5826771653543307,
                    "duration": 0.11250000000001137
                },
                {
                    "name": "D6",
                    "midi": 86,
                    "time": 450.7499999999914,
                    "velocity": 0.4881889763779528,
                    "duration": 0.11250000000001137
                },
                {
                    "name": "F#5",
                    "midi": 78,
                    "time": 450.7499999999914,
                    "velocity": 0.4881889763779528,
                    "duration": 0.11250000000001137
                },
                {
                    "name": "F#5",
                    "midi": 78,
                    "time": 450.89999999999145,
                    "velocity": 0.5354330708661418,
                    "duration": 0.30000000000001137
                },
                {
                    "name": "D6",
                    "midi": 86,
                    "time": 450.89999999999145,
                    "velocity": 0.5354330708661418,
                    "duration": 0.30000000000001137
                },
                {
                    "name": "F#6",
                    "midi": 90,
                    "time": 450.89999999999145,
                    "velocity": 0.6377952755905512,
                    "duration": 0.30000000000001137
                },
                {
                    "name": "A4",
                    "midi": 69,
                    "time": 451.34999999999144,
                    "velocity": 0.4409448818897638,
                    "duration": 0.11250000000001137
                },
                {
                    "name": "D5",
                    "midi": 74,
                    "time": 451.34999999999144,
                    "velocity": 0.4409448818897638,
                    "duration": 0.11250000000001137
                },
                {
                    "name": "F#5",
                    "midi": 78,
                    "time": 451.34999999999144,
                    "velocity": 0.4409448818897638,
                    "duration": 0.11250000000001137
                },
                {
                    "name": "A5",
                    "midi": 81,
                    "time": 451.34999999999144,
                    "velocity": 0.5275590551181102,
                    "duration": 0.11250000000001137
                },
                {
                    "name": "A4",
                    "midi": 69,
                    "time": 451.4999999999915,
                    "velocity": 0.5196850393700787,
                    "duration": 0.30000000000001137
                },
                {
                    "name": "D5",
                    "midi": 74,
                    "time": 451.4999999999915,
                    "velocity": 0.5196850393700787,
                    "duration": 0.30000000000001137
                },
                {
                    "name": "F#5",
                    "midi": 78,
                    "time": 451.4999999999915,
                    "velocity": 0.5196850393700787,
                    "duration": 0.30000000000001137
                },
                {
                    "name": "A5",
                    "midi": 81,
                    "time": 451.4999999999915,
                    "velocity": 0.6141732283464567,
                    "duration": 0.30000000000001137
                },
                {
                    "name": "D6",
                    "midi": 86,
                    "time": 451.94999999999146,
                    "velocity": 0.5511811023622047,
                    "duration": 0.11250000000001137
                },
                {
                    "name": "A5",
                    "midi": 81,
                    "time": 451.94999999999146,
                    "velocity": 0.4645669291338583,
                    "duration": 0.11250000000001137
                },
                {
                    "name": "F#5",
                    "midi": 78,
                    "time": 451.94999999999146,
                    "velocity": 0.4645669291338583,
                    "duration": 0.11250000000001137
                },
                {
                    "name": "D5",
                    "midi": 74,
                    "time": 451.94999999999146,
                    "velocity": 0.4645669291338583,
                    "duration": 0.11250000000001137
                },
                {
                    "name": "D6",
                    "midi": 86,
                    "time": 452.0999999999915,
                    "velocity": 0.6220472440944882,
                    "duration": 0.30000000000001137
                },
                {
                    "name": "A5",
                    "midi": 81,
                    "time": 452.0999999999915,
                    "velocity": 0.5275590551181102,
                    "duration": 0.30000000000001137
                },
                {
                    "name": "F#5",
                    "midi": 78,
                    "time": 452.0999999999915,
                    "velocity": 0.5275590551181102,
                    "duration": 0.30000000000001137
                },
                {
                    "name": "D5",
                    "midi": 74,
                    "time": 452.0999999999915,
                    "velocity": 0.5275590551181102,
                    "duration": 0.30000000000001137
                },
                {
                    "name": "F#5",
                    "midi": 78,
                    "time": 452.5499999999915,
                    "velocity": 0.5590551181102362,
                    "duration": 0.11250000000001137
                },
                {
                    "name": "D5",
                    "midi": 74,
                    "time": 452.5499999999915,
                    "velocity": 0.47244094488188976,
                    "duration": 0.11250000000001137
                },
                {
                    "name": "F#4",
                    "midi": 66,
                    "time": 452.5499999999915,
                    "velocity": 0.47244094488188976,
                    "duration": 0.11250000000001137
                },
                {
                    "name": "F#5",
                    "midi": 78,
                    "time": 452.6999999999915,
                    "velocity": 0.6299212598425197,
                    "duration": 0.30000000000001137
                },
                {
                    "name": "D5",
                    "midi": 74,
                    "time": 452.6999999999915,
                    "velocity": 0.5354330708661418,
                    "duration": 0.30000000000001137
                },
                {
                    "name": "F#4",
                    "midi": 66,
                    "time": 452.6999999999915,
                    "velocity": 0.5354330708661418,
                    "duration": 0.30000000000001137
                },
                {
                    "name": "A5",
                    "midi": 81,
                    "time": 453.1499999999915,
                    "velocity": 0.5511811023622047,
                    "duration": 0.11250000000001137
                },
                {
                    "name": "F#5",
                    "midi": 78,
                    "time": 453.1499999999915,
                    "velocity": 0.4645669291338583,
                    "duration": 0.11250000000001137
                },
                {
                    "name": "D5",
                    "midi": 74,
                    "time": 453.1499999999915,
                    "velocity": 0.4645669291338583,
                    "duration": 0.11250000000001137
                },
                {
                    "name": "A4",
                    "midi": 69,
                    "time": 453.1499999999915,
                    "velocity": 0.4645669291338583,
                    "duration": 0.11250000000001137
                },
                {
                    "name": "A5",
                    "midi": 81,
                    "time": 453.29999999999154,
                    "velocity": 0.6299212598425197,
                    "duration": 0.30000000000001137
                },
                {
                    "name": "F#5",
                    "midi": 78,
                    "time": 453.29999999999154,
                    "velocity": 0.5354330708661418,
                    "duration": 0.30000000000001137
                },
                {
                    "name": "D5",
                    "midi": 74,
                    "time": 453.29999999999154,
                    "velocity": 0.5354330708661418,
                    "duration": 0.30000000000001137
                },
                {
                    "name": "A4",
                    "midi": 69,
                    "time": 453.29999999999154,
                    "velocity": 0.5354330708661418,
                    "duration": 0.30000000000001137
                },
                {
                    "name": "D5",
                    "midi": 74,
                    "time": 453.74999999999153,
                    "velocity": 0.5669291338582677,
                    "duration": 0.11250000000001137
                },
                {
                    "name": "A4",
                    "midi": 69,
                    "time": 453.74999999999153,
                    "velocity": 0.48031496062992124,
                    "duration": 0.11250000000001137
                },
                {
                    "name": "F#4",
                    "midi": 66,
                    "time": 453.74999999999153,
                    "velocity": 0.48031496062992124,
                    "duration": 0.11250000000001137
                },
                {
                    "name": "D4",
                    "midi": 62,
                    "time": 453.74999999999153,
                    "velocity": 0.48031496062992124,
                    "duration": 0.11250000000001137
                },
                {
                    "name": "D5",
                    "midi": 74,
                    "time": 453.89999999999156,
                    "velocity": 0.6220472440944882,
                    "duration": 0.30000000000001137
                },
                {
                    "name": "A4",
                    "midi": 69,
                    "time": 453.89999999999156,
                    "velocity": 0.5275590551181102,
                    "duration": 0.30000000000001137
                },
                {
                    "name": "F#4",
                    "midi": 66,
                    "time": 453.89999999999156,
                    "velocity": 0.5275590551181102,
                    "duration": 0.30000000000001137
                },
                {
                    "name": "D4",
                    "midi": 62,
                    "time": 453.89999999999156,
                    "velocity": 0.5275590551181102,
                    "duration": 0.30000000000001137
                },
                {
                    "name": "F#5",
                    "midi": 78,
                    "time": 454.34999999999155,
                    "velocity": 0.5826771653543307,
                    "duration": 0.11250000000001137
                },
                {
                    "name": "D5",
                    "midi": 74,
                    "time": 454.34999999999155,
                    "velocity": 0.4881889763779528,
                    "duration": 0.11250000000001137
                },
                {
                    "name": "F#4",
                    "midi": 66,
                    "time": 454.34999999999155,
                    "velocity": 0.4881889763779528,
                    "duration": 0.11250000000001137
                },
                {
                    "name": "F#4",
                    "midi": 66,
                    "time": 454.4999999999916,
                    "velocity": 0.5354330708661418,
                    "duration": 0.30000000000001137
                },
                {
                    "name": "D5",
                    "midi": 74,
                    "time": 454.4999999999916,
                    "velocity": 0.5354330708661418,
                    "duration": 0.30000000000001137
                },
                {
                    "name": "F#5",
                    "midi": 78,
                    "time": 454.4999999999916,
                    "velocity": 0.6377952755905512,
                    "duration": 0.30000000000001137
                },
                {
                    "name": "A3",
                    "midi": 57,
                    "time": 454.9499999999916,
                    "velocity": 0.4409448818897638,
                    "duration": 0.11250000000001137
                },
                {
                    "name": "D4",
                    "midi": 62,
                    "time": 454.9499999999916,
                    "velocity": 0.4409448818897638,
                    "duration": 0.11250000000001137
                },
                {
                    "name": "F#4",
                    "midi": 66,
                    "time": 454.9499999999916,
                    "velocity": 0.4409448818897638,
                    "duration": 0.11250000000001137
                },
                {
                    "name": "A4",
                    "midi": 69,
                    "time": 454.9499999999916,
                    "velocity": 0.5275590551181102,
                    "duration": 0.11250000000001137
                },
                {
                    "name": "A3",
                    "midi": 57,
                    "time": 455.0999999999916,
                    "velocity": 0.5196850393700787,
                    "duration": 0.30000000000001137
                },
                {
                    "name": "D4",
                    "midi": 62,
                    "time": 455.0999999999916,
                    "velocity": 0.5196850393700787,
                    "duration": 0.30000000000001137
                },
                {
                    "name": "F#4",
                    "midi": 66,
                    "time": 455.0999999999916,
                    "velocity": 0.5196850393700787,
                    "duration": 0.30000000000001137
                },
                {
                    "name": "A4",
                    "midi": 69,
                    "time": 455.0999999999916,
                    "velocity": 0.6141732283464567,
                    "duration": 0.30000000000001137
                },
                {
                    "name": "D5",
                    "midi": 74,
                    "time": 455.5499999999916,
                    "velocity": 0.5511811023622047,
                    "duration": 0.11250000000001137
                },
                {
                    "name": "A4",
                    "midi": 69,
                    "time": 455.5499999999916,
                    "velocity": 0.4645669291338583,
                    "duration": 0.11250000000001137
                },
                {
                    "name": "F#4",
                    "midi": 66,
                    "time": 455.5499999999916,
                    "velocity": 0.4645669291338583,
                    "duration": 0.11250000000001137
                },
                {
                    "name": "D4",
                    "midi": 62,
                    "time": 455.5499999999916,
                    "velocity": 0.4645669291338583,
                    "duration": 0.11250000000001137
                },
                {
                    "name": "D5",
                    "midi": 74,
                    "time": 455.69999999999163,
                    "velocity": 0.6220472440944882,
                    "duration": 0.30000000000001137
                },
                {
                    "name": "A4",
                    "midi": 69,
                    "time": 455.69999999999163,
                    "velocity": 0.5275590551181102,
                    "duration": 0.30000000000001137
                },
                {
                    "name": "F#4",
                    "midi": 66,
                    "time": 455.69999999999163,
                    "velocity": 0.5275590551181102,
                    "duration": 0.30000000000001137
                },
                {
                    "name": "D4",
                    "midi": 62,
                    "time": 455.69999999999163,
                    "velocity": 0.5275590551181102,
                    "duration": 0.30000000000001137
                },
                {
                    "name": "F#4",
                    "midi": 66,
                    "time": 456.1499999999916,
                    "velocity": 0.5590551181102362,
                    "duration": 0.11250000000001137
                },
                {
                    "name": "D4",
                    "midi": 62,
                    "time": 456.1499999999916,
                    "velocity": 0.47244094488188976,
                    "duration": 0.11250000000001137
                },
                {
                    "name": "F#3",
                    "midi": 54,
                    "time": 456.1499999999916,
                    "velocity": 0.47244094488188976,
                    "duration": 0.11250000000001137
                },
                {
                    "name": "F#4",
                    "midi": 66,
                    "time": 456.29999999999166,
                    "velocity": 0.6299212598425197,
                    "duration": 0.30000000000001137
                },
                {
                    "name": "D4",
                    "midi": 62,
                    "time": 456.29999999999166,
                    "velocity": 0.5354330708661418,
                    "duration": 0.30000000000001137
                },
                {
                    "name": "F#3",
                    "midi": 54,
                    "time": 456.29999999999166,
                    "velocity": 0.5354330708661418,
                    "duration": 0.30000000000001137
                },
                {
                    "name": "A4",
                    "midi": 69,
                    "time": 456.74999999999164,
                    "velocity": 0.5511811023622047,
                    "duration": 0.11250000000001137
                },
                {
                    "name": "F#4",
                    "midi": 66,
                    "time": 456.74999999999164,
                    "velocity": 0.4645669291338583,
                    "duration": 0.11250000000001137
                },
                {
                    "name": "D4",
                    "midi": 62,
                    "time": 456.74999999999164,
                    "velocity": 0.4645669291338583,
                    "duration": 0.11250000000001137
                },
                {
                    "name": "A3",
                    "midi": 57,
                    "time": 456.74999999999164,
                    "velocity": 0.4645669291338583,
                    "duration": 0.11250000000001137
                },
                {
                    "name": "A4",
                    "midi": 69,
                    "time": 456.8999999999917,
                    "velocity": 0.6299212598425197,
                    "duration": 0.30000000000001137
                },
                {
                    "name": "F#4",
                    "midi": 66,
                    "time": 456.8999999999917,
                    "velocity": 0.5354330708661418,
                    "duration": 0.30000000000001137
                },
                {
                    "name": "D4",
                    "midi": 62,
                    "time": 456.8999999999917,
                    "velocity": 0.5354330708661418,
                    "duration": 0.30000000000001137
                },
                {
                    "name": "A3",
                    "midi": 57,
                    "time": 456.8999999999917,
                    "velocity": 0.5354330708661418,
                    "duration": 0.30000000000001137
                },
                {
                    "name": "D4",
                    "midi": 62,
                    "time": 457.34999999999167,
                    "velocity": 0.5511811023622047,
                    "duration": 0.11250000000001137
                },
                {
                    "name": "A3",
                    "midi": 57,
                    "time": 457.34999999999167,
                    "velocity": 0.4645669291338583,
                    "duration": 0.11250000000001137
                },
                {
                    "name": "F#3",
                    "midi": 54,
                    "time": 457.34999999999167,
                    "velocity": 0.4645669291338583,
                    "duration": 0.11250000000001137
                },
                {
                    "name": "D3",
                    "midi": 50,
                    "time": 457.34999999999167,
                    "velocity": 0.4645669291338583,
                    "duration": 0.11250000000001137
                },
                {
                    "name": "D3",
                    "midi": 50,
                    "time": 457.4999999999917,
                    "velocity": 0.5118110236220472,
                    "duration": 0.2699999999999818
                },
                {
                    "name": "F#3",
                    "midi": 54,
                    "time": 457.4999999999917,
                    "velocity": 0.5118110236220472,
                    "duration": 0.2699999999999818
                },
                {
                    "name": "A3",
                    "midi": 57,
                    "time": 457.4999999999917,
                    "velocity": 0.5118110236220472,
                    "duration": 0.2699999999999818
                },
                {
                    "name": "D4",
                    "midi": 62,
                    "time": 457.4999999999917,
                    "velocity": 0.6062992125984252,
                    "duration": 0.2699999999999818
                },
                {
                    "name": "D4",
                    "midi": 62,
                    "time": 457.79999999999166,
                    "velocity": 0.5511811023622047,
                    "duration": 0.2699999999999818
                },
                {
                    "name": "A#3",
                    "midi": 58,
                    "time": 457.79999999999166,
                    "velocity": 0.4645669291338583,
                    "duration": 0.2699999999999818
                },
                {
                    "name": "G3",
                    "midi": 55,
                    "time": 457.79999999999166,
                    "velocity": 0.4645669291338583,
                    "duration": 0.2699999999999818
                },
                {
                    "name": "D3",
                    "midi": 50,
                    "time": 457.79999999999166,
                    "velocity": 0.4645669291338583,
                    "duration": 0.2699999999999818
                },
                {
                    "name": "D3",
                    "midi": 50,
                    "time": 458.0999999999916,
                    "velocity": 0.5118110236220472,
                    "duration": 0.2699999999999818
                },
                {
                    "name": "F#3",
                    "midi": 54,
                    "time": 458.0999999999916,
                    "velocity": 0.5118110236220472,
                    "duration": 0.2699999999999818
                },
                {
                    "name": "A3",
                    "midi": 57,
                    "time": 458.0999999999916,
                    "velocity": 0.5118110236220472,
                    "duration": 0.2699999999999818
                },
                {
                    "name": "D4",
                    "midi": 62,
                    "time": 458.0999999999916,
                    "velocity": 0.6062992125984252,
                    "duration": 0.2699999999999818
                },
                {
                    "name": "D3",
                    "midi": 50,
                    "time": 458.39999999999156,
                    "velocity": 0.4645669291338583,
                    "duration": 0.2699999999999818
                },
                {
                    "name": "G3",
                    "midi": 55,
                    "time": 458.39999999999156,
                    "velocity": 0.4645669291338583,
                    "duration": 0.2699999999999818
                },
                {
                    "name": "A#3",
                    "midi": 58,
                    "time": 458.39999999999156,
                    "velocity": 0.4645669291338583,
                    "duration": 0.2699999999999818
                },
                {
                    "name": "D4",
                    "midi": 62,
                    "time": 458.39999999999156,
                    "velocity": 0.5511811023622047,
                    "duration": 0.2699999999999818
                },
                {
                    "name": "D3",
                    "midi": 50,
                    "time": 458.6999999999915,
                    "velocity": 0.5118110236220472,
                    "duration": 0.2699999999999818
                },
                {
                    "name": "F#3",
                    "midi": 54,
                    "time": 458.6999999999915,
                    "velocity": 0.5118110236220472,
                    "duration": 0.2699999999999818
                },
                {
                    "name": "A3",
                    "midi": 57,
                    "time": 458.6999999999915,
                    "velocity": 0.5118110236220472,
                    "duration": 0.2699999999999818
                },
                {
                    "name": "D4",
                    "midi": 62,
                    "time": 458.6999999999915,
                    "velocity": 0.6062992125984252,
                    "duration": 0.2699999999999818
                },
                {
                    "name": "D4",
                    "midi": 62,
                    "time": 458.9999999999915,
                    "velocity": 0.5511811023622047,
                    "duration": 0.2699999999999818
                },
                {
                    "name": "A#3",
                    "midi": 58,
                    "time": 458.9999999999915,
                    "velocity": 0.4645669291338583,
                    "duration": 0.2699999999999818
                },
                {
                    "name": "G3",
                    "midi": 55,
                    "time": 458.9999999999915,
                    "velocity": 0.4645669291338583,
                    "duration": 0.2699999999999818
                },
                {
                    "name": "D3",
                    "midi": 50,
                    "time": 458.9999999999915,
                    "velocity": 0.4645669291338583,
                    "duration": 0.2699999999999818
                },
                {
                    "name": "D3",
                    "midi": 50,
                    "time": 459.2999999999914,
                    "velocity": 0.5118110236220472,
                    "duration": 0.2699999999999818
                },
                {
                    "name": "F#3",
                    "midi": 54,
                    "time": 459.2999999999914,
                    "velocity": 0.5118110236220472,
                    "duration": 0.2699999999999818
                },
                {
                    "name": "A3",
                    "midi": 57,
                    "time": 459.2999999999914,
                    "velocity": 0.5118110236220472,
                    "duration": 0.2699999999999818
                },
                {
                    "name": "D4",
                    "midi": 62,
                    "time": 459.2999999999914,
                    "velocity": 0.6062992125984252,
                    "duration": 0.2699999999999818
                },
                {
                    "name": "D3",
                    "midi": 50,
                    "time": 459.5999999999914,
                    "velocity": 0.4645669291338583,
                    "duration": 0.2699999999999818
                },
                {
                    "name": "G3",
                    "midi": 55,
                    "time": 459.5999999999914,
                    "velocity": 0.4645669291338583,
                    "duration": 0.2699999999999818
                },
                {
                    "name": "A#3",
                    "midi": 58,
                    "time": 459.5999999999914,
                    "velocity": 0.4645669291338583,
                    "duration": 0.2699999999999818
                },
                {
                    "name": "D4",
                    "midi": 62,
                    "time": 459.5999999999914,
                    "velocity": 0.5511811023622047,
                    "duration": 0.2699999999999818
                },
                {
                    "name": "D3",
                    "midi": 50,
                    "time": 459.89999999999134,
                    "velocity": 0.5118110236220472,
                    "duration": 0.22500000000002274
                },
                {
                    "name": "F#3",
                    "midi": 54,
                    "time": 459.89999999999134,
                    "velocity": 0.5118110236220472,
                    "duration": 0.22500000000002274
                },
                {
                    "name": "A3",
                    "midi": 57,
                    "time": 459.89999999999134,
                    "velocity": 0.5118110236220472,
                    "duration": 0.22500000000002274
                },
                {
                    "name": "D4",
                    "midi": 62,
                    "time": 459.89999999999134,
                    "velocity": 0.6062992125984252,
                    "duration": 0.22500000000002274
                },
                {
                    "name": "D4",
                    "midi": 62,
                    "time": 460.19999999999135,
                    "velocity": 0.5511811023622047,
                    "duration": 0.22500000000002274
                },
                {
                    "name": "A#3",
                    "midi": 58,
                    "time": 460.19999999999135,
                    "velocity": 0.4645669291338583,
                    "duration": 0.22500000000002274
                },
                {
                    "name": "G3",
                    "midi": 55,
                    "time": 460.19999999999135,
                    "velocity": 0.4645669291338583,
                    "duration": 0.22500000000002274
                },
                {
                    "name": "D3",
                    "midi": 50,
                    "time": 460.19999999999135,
                    "velocity": 0.4645669291338583,
                    "duration": 0.22500000000002274
                },
                {
                    "name": "D3",
                    "midi": 50,
                    "time": 460.49999999999136,
                    "velocity": 0.5118110236220472,
                    "duration": 0.22500000000002274
                },
                {
                    "name": "F#3",
                    "midi": 54,
                    "time": 460.49999999999136,
                    "velocity": 0.5118110236220472,
                    "duration": 0.22500000000002274
                },
                {
                    "name": "A3",
                    "midi": 57,
                    "time": 460.49999999999136,
                    "velocity": 0.5118110236220472,
                    "duration": 0.22500000000002274
                },
                {
                    "name": "D4",
                    "midi": 62,
                    "time": 460.49999999999136,
                    "velocity": 0.6062992125984252,
                    "duration": 0.22500000000002274
                },
                {
                    "name": "D3",
                    "midi": 50,
                    "time": 460.79999999999137,
                    "velocity": 0.4645669291338583,
                    "duration": 0.22500000000002274
                },
                {
                    "name": "G3",
                    "midi": 55,
                    "time": 460.79999999999137,
                    "velocity": 0.4645669291338583,
                    "duration": 0.22500000000002274
                },
                {
                    "name": "A#3",
                    "midi": 58,
                    "time": 460.79999999999137,
                    "velocity": 0.4645669291338583,
                    "duration": 0.22500000000002274
                },
                {
                    "name": "D4",
                    "midi": 62,
                    "time": 460.79999999999137,
                    "velocity": 0.5511811023622047,
                    "duration": 0.22500000000002274
                },
                {
                    "name": "D3",
                    "midi": 50,
                    "time": 461.0999999999914,
                    "velocity": 0.5275590551181102,
                    "duration": 0.6000000000000227
                },
                {
                    "name": "F#3",
                    "midi": 54,
                    "time": 461.0999999999914,
                    "velocity": 0.5275590551181102,
                    "duration": 0.6000000000000227
                },
                {
                    "name": "A3",
                    "midi": 57,
                    "time": 461.0999999999914,
                    "velocity": 0.5275590551181102,
                    "duration": 0.6000000000000227
                },
                {
                    "name": "D4",
                    "midi": 62,
                    "time": 461.0999999999914,
                    "velocity": 0.6220472440944882,
                    "duration": 0.6000000000000227
                },
                {
                    "name": "D4",
                    "midi": 62,
                    "time": 461.6999999999914,
                    "velocity": 0.5748031496062992,
                    "duration": 0.6000000000000227
                },
                {
                    "name": "F#4",
                    "midi": 66,
                    "time": 461.6999999999914,
                    "velocity": 0.5748031496062992,
                    "duration": 0.6000000000000227
                },
                {
                    "name": "A4",
                    "midi": 69,
                    "time": 461.6999999999914,
                    "velocity": 0.5748031496062992,
                    "duration": 0.6000000000000227
                },
                {
                    "name": "D5",
                    "midi": 74,
                    "time": 461.6999999999914,
                    "velocity": 0.6771653543307087,
                    "duration": 0.6000000000000227
                },
                {
                    "name": "D5",
                    "midi": 74,
                    "time": 462.2999999999914,
                    "velocity": 0.6141732283464567,
                    "duration": 0.6000000000000227
                },
                {
                    "name": "F#5",
                    "midi": 78,
                    "time": 462.2999999999914,
                    "velocity": 0.6141732283464567,
                    "duration": 0.6000000000000227
                },
                {
                    "name": "A5",
                    "midi": 81,
                    "time": 462.2999999999914,
                    "velocity": 0.6141732283464567,
                    "duration": 0.6000000000000227
                },
                {
                    "name": "D6",
                    "midi": 86,
                    "time": 462.2999999999914,
                    "velocity": 0.7244094488188977,
                    "duration": 0.6000000000000227
                },
                {
                    "name": "D6",
                    "midi": 86,
                    "time": 462.89999999999145,
                    "velocity": 0.6456692913385826,
                    "duration": 0.6000000000000227
                },
                {
                    "name": "F#6",
                    "midi": 90,
                    "time": 462.89999999999145,
                    "velocity": 0.6456692913385826,
                    "duration": 0.6000000000000227
                },
                {
                    "name": "A6",
                    "midi": 93,
                    "time": 462.89999999999145,
                    "velocity": 0.6456692913385826,
                    "duration": 0.6000000000000227
                },
                {
                    "name": "D7",
                    "midi": 98,
                    "time": 462.89999999999145,
                    "velocity": 0.7637795275590551,
                    "duration": 0.6000000000000227
                },
                {
                    "name": "D4",
                    "midi": 62,
                    "time": 463.4999999999915,
                    "velocity": 0.889763779527559,
                    "duration": 2.3999999999999773
                }
            ],
            "controlChanges": {
                "91": [
                    {
                        "number": 91,
                        "time": 0,
                        "value": 1
                    }
                ]
            },
            "id": 1,
            "name": "Piano right",
            "instrumentNumber": 0,
            "instrument": "acoustic grand piano",
            "instrumentFamily": "piano",
            "channelNumber": 0,
            "isPercussion": false
        },
        {
            "startTime": 0.33749999999999997,
            "duration": 465.90000000000487,
            "length": 3434,
            "notes": [
                {
                    "name": "C#4",
                    "midi": 61,
                    "time": 0.33749999999999997,
                    "velocity": 0.4409448818897638,
                    "duration": 0.3
                },
                {
                    "name": "G4",
                    "midi": 67,
                    "time": 0.37499999999999994,
                    "velocity": 0.4566929133858268,
                    "duration": 0.3
                },
                {
                    "name": "A#4",
                    "midi": 70,
                    "time": 0.4124999999999999,
                    "velocity": 0.47244094488188976,
                    "duration": 0.3
                },
                {
                    "name": "E5",
                    "midi": 76,
                    "time": 0.4499999999999999,
                    "velocity": 0.4881889763779528,
                    "duration": 0.3
                },
                {
                    "name": "G#3",
                    "midi": 56,
                    "time": 1.5374999999999999,
                    "velocity": 0.4251968503937008,
                    "duration": 0.30000000000000027
                },
                {
                    "name": "D4",
                    "midi": 62,
                    "time": 1.575,
                    "velocity": 0.4330708661417323,
                    "duration": 0.30000000000000027
                },
                {
                    "name": "F4",
                    "midi": 65,
                    "time": 1.6125,
                    "velocity": 0.4566929133858268,
                    "duration": 0.30000000000000027
                },
                {
                    "name": "B4",
                    "midi": 71,
                    "time": 1.6500000000000001,
                    "velocity": 0.48031496062992124,
                    "duration": 0.30000000000000027
                },
                {
                    "name": "D#3",
                    "midi": 51,
                    "time": 2.8687500000000004,
                    "velocity": 0.3464566929133858,
                    "duration": 0.2999999999999994
                },
                {
                    "name": "A3",
                    "midi": 57,
                    "time": 2.8875,
                    "velocity": 0.3543307086614173,
                    "duration": 0.2999999999999994
                },
                {
                    "name": "C4",
                    "midi": 60,
                    "time": 2.90625,
                    "velocity": 0.3700787401574803,
                    "duration": 0.2999999999999994
                },
                {
                    "name": "F#4",
                    "midi": 66,
                    "time": 2.925,
                    "velocity": 0.3779527559055118,
                    "duration": 0.2999999999999994
                },
                {
                    "name": "A#2",
                    "midi": 46,
                    "time": 3.468749999999999,
                    "velocity": 0.33070866141732286,
                    "duration": 0.2999999999999994
                },
                {
                    "name": "E3",
                    "midi": 52,
                    "time": 3.487499999999999,
                    "velocity": 0.33858267716535434,
                    "duration": 0.2999999999999994
                },
                {
                    "name": "G3",
                    "midi": 55,
                    "time": 3.5062499999999988,
                    "velocity": 0.3543307086614173,
                    "duration": 0.2999999999999994
                },
                {
                    "name": "C#4",
                    "midi": 61,
                    "time": 3.5249999999999986,
                    "velocity": 0.3700787401574803,
                    "duration": 0.2999999999999994
                },
                {
                    "name": "F2",
                    "midi": 41,
                    "time": 4.068749999999998,
                    "velocity": 0.3464566929133858,
                    "duration": 0.2999999999999998
                },
                {
                    "name": "B2",
                    "midi": 47,
                    "time": 4.087499999999998,
                    "velocity": 0.36220472440944884,
                    "duration": 0.2999999999999998
                },
                {
                    "name": "D3",
                    "midi": 50,
                    "time": 4.1062499999999975,
                    "velocity": 0.3858267716535433,
                    "duration": 0.2999999999999998
                },
                {
                    "name": "G#3",
                    "midi": 56,
                    "time": 4.124999999999997,
                    "velocity": 0.4015748031496063,
                    "duration": 0.2999999999999998
                },
                {
                    "name": "C2",
                    "midi": 36,
                    "time": 4.6687499999999975,
                    "velocity": 0.36220472440944884,
                    "duration": 0.2999999999999998
                },
                {
                    "name": "F#2",
                    "midi": 42,
                    "time": 4.687499999999997,
                    "velocity": 0.3779527559055118,
                    "duration": 0.2999999999999998
                },
                {
                    "name": "A2",
                    "midi": 45,
                    "time": 4.706249999999997,
                    "velocity": 0.4015748031496063,
                    "duration": 0.2999999999999998
                },
                {
                    "name": "D#3",
                    "midi": 51,
                    "time": 4.724999999999997,
                    "velocity": 0.41732283464566927,
                    "duration": 0.2999999999999998
                },
                {
                    "name": "C#2",
                    "midi": 37,
                    "time": 5.268749999999997,
                    "velocity": 0.3700787401574803,
                    "duration": 0.2999999999999998
                },
                {
                    "name": "G2",
                    "midi": 43,
                    "time": 5.287499999999997,
                    "velocity": 0.3858267716535433,
                    "duration": 0.2999999999999998
                },
                {
                    "name": "A#2",
                    "midi": 46,
                    "time": 5.306249999999997,
                    "velocity": 0.4015748031496063,
                    "duration": 0.2999999999999998
                },
                {
                    "name": "E3",
                    "midi": 52,
                    "time": 5.324999999999997,
                    "velocity": 0.41732283464566927,
                    "duration": 0.2999999999999998
                },
                {
                    "name": "D2",
                    "midi": 38,
                    "time": 5.887499999999997,
                    "velocity": 0.3858267716535433,
                    "duration": 0.2999999999999998
                },
                {
                    "name": "G#2",
                    "midi": 44,
                    "time": 5.9062499999999964,
                    "velocity": 0.4015748031496063,
                    "duration": 0.2999999999999998
                },
                {
                    "name": "B2",
                    "midi": 47,
                    "time": 5.924999999999996,
                    "velocity": 0.4251968503937008,
                    "duration": 0.2999999999999998
                },
                {
                    "name": "F3",
                    "midi": 53,
                    "time": 5.943749999999996,
                    "velocity": 0.4409448818897638,
                    "duration": 0.2999999999999998
                },
                {
                    "name": "A#1",
                    "midi": 34,
                    "time": 6.487499999999996,
                    "velocity": 0.3937007874015748,
                    "duration": 0.2999999999999998
                },
                {
                    "name": "F2",
                    "midi": 41,
                    "time": 6.506249999999996,
                    "velocity": 0.4094488188976378,
                    "duration": 0.2999999999999998
                },
                {
                    "name": "G#2",
                    "midi": 44,
                    "time": 6.524999999999996,
                    "velocity": 0.4251968503937008,
                    "duration": 0.2999999999999998
                },
                {
                    "name": "D3",
                    "midi": 50,
                    "time": 6.543749999999996,
                    "velocity": 0.4409448818897638,
                    "duration": 0.2999999999999998
                },
                {
                    "name": "A1",
                    "midi": 33,
                    "time": 7.068749999999995,
                    "velocity": 0.41732283464566927,
                    "duration": 0.2999999999999998
                },
                {
                    "name": "D2",
                    "midi": 38,
                    "time": 7.087499999999995,
                    "velocity": 0.4251968503937008,
                    "duration": 0.2999999999999998
                },
                {
                    "name": "F2",
                    "midi": 41,
                    "time": 7.106249999999995,
                    "velocity": 0.44881889763779526,
                    "duration": 0.2999999999999998
                },
                {
                    "name": "A2",
                    "midi": 45,
                    "time": 7.124999999999995,
                    "velocity": 0.4645669291338583,
                    "duration": 0.2999999999999998
                },
                {
                    "name": "A2",
                    "midi": 45,
                    "time": 8.399999999999995,
                    "velocity": 0.41732283464566927,
                    "duration": 0.3000000000000007
                },
                {
                    "name": "D3",
                    "midi": 50,
                    "time": 8.399999999999995,
                    "velocity": 0.41732283464566927,
                    "duration": 0.3000000000000007
                },
                {
                    "name": "A3",
                    "midi": 57,
                    "time": 8.399999999999995,
                    "velocity": 0.49606299212598426,
                    "duration": 0.3000000000000007
                },
                {
                    "name": "F3",
                    "midi": 53,
                    "time": 8.399999999999995,
                    "velocity": 0.41732283464566927,
                    "duration": 0.3000000000000007
                },
                {
                    "name": "C#4",
                    "midi": 61,
                    "time": 9.599999999999996,
                    "velocity": 0.41732283464566927,
                    "duration": 0.3000000000000007
                },
                {
                    "name": "A4",
                    "midi": 69,
                    "time": 9.599999999999996,
                    "velocity": 0.49606299212598426,
                    "duration": 0.3000000000000007
                },
                {
                    "name": "A3",
                    "midi": 57,
                    "time": 9.599999999999996,
                    "velocity": 0.41732283464566927,
                    "duration": 0.3000000000000007
                },
                {
                    "name": "E4",
                    "midi": 64,
                    "time": 9.599999999999996,
                    "velocity": 0.41732283464566927,
                    "duration": 0.3000000000000007
                },
                {
                    "name": "A1",
                    "midi": 33,
                    "time": 12.153749999999997,
                    "velocity": 0.2283464566929134,
                    "duration": 0.22499999999999964
                },
                {
                    "name": "A#1",
                    "midi": 34,
                    "time": 12.302499999999997,
                    "velocity": 0.2440944881889764,
                    "duration": 0.22499999999999964
                },
                {
                    "name": "C#2",
                    "midi": 37,
                    "time": 12.452499999999997,
                    "velocity": 0.25196850393700787,
                    "duration": 0.22499999999999787
                },
                {
                    "name": "F2",
                    "midi": 41,
                    "time": 12.598749999999995,
                    "velocity": 0.2677165354330709,
                    "duration": 0.17999999999999794
                },
                {
                    "name": "E2",
                    "midi": 40,
                    "time": 12.721249999999994,
                    "velocity": 0.2677165354330709,
                    "duration": 0.17999999999999794
                },
                {
                    "name": "D2",
                    "midi": 38,
                    "time": 12.839999999999993,
                    "velocity": 0.25984251968503935,
                    "duration": 0.17999999999999972
                },
                {
                    "name": "C#2",
                    "midi": 37,
                    "time": 12.957499999999992,
                    "velocity": 0.25196850393700787,
                    "duration": 0.17999999999999972
                },
                {
                    "name": "A#1",
                    "midi": 34,
                    "time": 13.077499999999992,
                    "velocity": 0.23622047244094488,
                    "duration": 0.1800000000000015
                },
                {
                    "name": "A1",
                    "midi": 33,
                    "time": 13.203749999999992,
                    "velocity": 0.25196850393700787,
                    "duration": 0.151250000000001
                },
                {
                    "name": "A#1",
                    "midi": 34,
                    "time": 13.298749999999993,
                    "velocity": 0.25196850393700787,
                    "duration": 0.15000000000000036
                },
                {
                    "name": "C#2",
                    "midi": 37,
                    "time": 13.397499999999994,
                    "velocity": 0.25196850393700787,
                    "duration": 0.14999999999999858
                },
                {
                    "name": "D2",
                    "midi": 38,
                    "time": 13.499999999999993,
                    "velocity": 0.2677165354330709,
                    "duration": 0.15000000000000036
                },
                {
                    "name": "E2",
                    "midi": 40,
                    "time": 13.599999999999993,
                    "velocity": 0.2755905511811024,
                    "duration": 0.15000000000000036
                },
                {
                    "name": "F2",
                    "midi": 41,
                    "time": 13.697499999999993,
                    "velocity": 0.28346456692913385,
                    "duration": 0.15000000000000036
                },
                {
                    "name": "A#2",
                    "midi": 46,
                    "time": 13.801249999999992,
                    "velocity": 0.29133858267716534,
                    "duration": 0.15000000000000213
                },
                {
                    "name": "A2",
                    "midi": 45,
                    "time": 13.901249999999994,
                    "velocity": 0.28346456692913385,
                    "duration": 0.15000000000000213
                },
                {
                    "name": "G2",
                    "midi": 43,
                    "time": 14.001249999999995,
                    "velocity": 0.28346456692913385,
                    "duration": 0.15000000000000036
                },
                {
                    "name": "F2",
                    "midi": 41,
                    "time": 14.102499999999996,
                    "velocity": 0.2677165354330709,
                    "duration": 0.15000000000000036
                },
                {
                    "name": "E2",
                    "midi": 40,
                    "time": 14.202499999999995,
                    "velocity": 0.2677165354330709,
                    "duration": 0.15000000000000036
                },
                {
                    "name": "D2",
                    "midi": 38,
                    "time": 14.301249999999996,
                    "velocity": 0.25196850393700787,
                    "duration": 0.14999999999999858
                },
                {
                    "name": "C#2",
                    "midi": 37,
                    "time": 14.403749999999995,
                    "velocity": 0.25984251968503935,
                    "duration": 0.11249999999999893
                },
                {
                    "name": "D2",
                    "midi": 38,
                    "time": 14.477499999999994,
                    "velocity": 0.25984251968503935,
                    "duration": 0.11250000000000071
                },
                {
                    "name": "E2",
                    "midi": 40,
                    "time": 14.547499999999994,
                    "velocity": 0.25984251968503935,
                    "duration": 0.11250000000000071
                },
                {
                    "name": "F2",
                    "midi": 41,
                    "time": 14.627499999999994,
                    "velocity": 0.2677165354330709,
                    "duration": 0.11250000000000071
                },
                {
                    "name": "G2",
                    "midi": 43,
                    "time": 14.697499999999994,
                    "velocity": 0.2755905511811024,
                    "duration": 0.11250000000000071
                },
                {
                    "name": "A2",
                    "midi": 45,
                    "time": 14.773749999999994,
                    "velocity": 0.2755905511811024,
                    "duration": 0.11250000000000071
                },
                {
                    "name": "A#2",
                    "midi": 46,
                    "time": 14.852499999999996,
                    "velocity": 0.28346456692913385,
                    "duration": 0.11249999999999893
                },
                {
                    "name": "C#3",
                    "midi": 49,
                    "time": 14.926249999999994,
                    "velocity": 0.29133858267716534,
                    "duration": 0.11250000000000071
                },
                {
                    "name": "F3",
                    "midi": 53,
                    "time": 15.002499999999994,
                    "velocity": 0.2992125984251969,
                    "duration": 0.17999999999999972
                },
                {
                    "name": "E3",
                    "midi": 52,
                    "time": 15.117499999999994,
                    "velocity": 0.29133858267716534,
                    "duration": 0.17999999999999972
                },
                {
                    "name": "D3",
                    "midi": 50,
                    "time": 15.238749999999994,
                    "velocity": 0.29133858267716534,
                    "duration": 0.17999999999999972
                },
                {
                    "name": "C#3",
                    "midi": 49,
                    "time": 15.362499999999994,
                    "velocity": 0.29133858267716534,
                    "duration": 0.17999999999999972
                },
                {
                    "name": "A#2",
                    "midi": 46,
                    "time": 15.483749999999993,
                    "velocity": 0.29133858267716534,
                    "duration": 0.17999999999999972
                },
                {
                    "name": "A2",
                    "midi": 45,
                    "time": 15.599999999999993,
                    "velocity": 0.2992125984251969,
                    "duration": 0.15000000000000036
                },
                {
                    "name": "A#2",
                    "midi": 46,
                    "time": 15.702499999999993,
                    "velocity": 0.30708661417322836,
                    "duration": 0.14999999999999858
                },
                {
                    "name": "C#3",
                    "midi": 49,
                    "time": 15.801249999999992,
                    "velocity": 0.31496062992125984,
                    "duration": 0.15000000000000036
                },
                {
                    "name": "D3",
                    "midi": 50,
                    "time": 15.897499999999992,
                    "velocity": 0.3228346456692913,
                    "duration": 0.15000000000000036
                },
                {
                    "name": "E3",
                    "midi": 52,
                    "time": 15.999999999999993,
                    "velocity": 0.3228346456692913,
                    "duration": 0.14999999999999858
                },
                {
                    "name": "F3",
                    "midi": 53,
                    "time": 16.102499999999992,
                    "velocity": 0.33070866141732286,
                    "duration": 0.14999999999999858
                },
                {
                    "name": "A#3",
                    "midi": 58,
                    "time": 16.19749999999999,
                    "velocity": 0.33858267716535434,
                    "duration": 0.14999999999999858
                },
                {
                    "name": "A3",
                    "midi": 57,
                    "time": 16.30124999999999,
                    "velocity": 0.33858267716535434,
                    "duration": 0.14999999999999858
                },
                {
                    "name": "G3",
                    "midi": 55,
                    "time": 16.40249999999999,
                    "velocity": 0.33858267716535434,
                    "duration": 0.14999999999999858
                },
                {
                    "name": "F3",
                    "midi": 53,
                    "time": 16.497499999999988,
                    "velocity": 0.33070866141732286,
                    "duration": 0.14999999999999858
                },
                {
                    "name": "E3",
                    "midi": 52,
                    "time": 16.603749999999987,
                    "velocity": 0.33070866141732286,
                    "duration": 0.14999999999999858
                },
                {
                    "name": "D3",
                    "midi": 50,
                    "time": 16.703749999999985,
                    "velocity": 0.31496062992125984,
                    "duration": 0.14999999999999858
                },
                {
                    "name": "C#3",
                    "midi": 49,
                    "time": 16.802499999999984,
                    "velocity": 0.31496062992125984,
                    "duration": 0.11249999999999716
                },
                {
                    "name": "D3",
                    "midi": 50,
                    "time": 16.878749999999982,
                    "velocity": 0.31496062992125984,
                    "duration": 0.11249999999999716
                },
                {
                    "name": "E3",
                    "midi": 52,
                    "time": 16.94749999999998,
                    "velocity": 0.3228346456692913,
                    "duration": 0.11250000000000071
                },
                {
                    "name": "F3",
                    "midi": 53,
                    "time": 17.02874999999998,
                    "velocity": 0.33070866141732286,
                    "duration": 0.11250000000000071
                },
                {
                    "name": "G3",
                    "midi": 55,
                    "time": 17.097499999999982,
                    "velocity": 0.33858267716535434,
                    "duration": 0.11250000000000071
                },
                {
                    "name": "A3",
                    "midi": 57,
                    "time": 17.17249999999998,
                    "velocity": 0.33858267716535434,
                    "duration": 0.11250000000000426
                },
                {
                    "name": "A#3",
                    "midi": 58,
                    "time": 17.251249999999985,
                    "velocity": 0.33858267716535434,
                    "duration": 0.11250000000000071
                },
                {
                    "name": "C#4",
                    "midi": 61,
                    "time": 17.327499999999986,
                    "velocity": 0.3464566929133858,
                    "duration": 0.11250000000000071
                },
                {
                    "name": "F4",
                    "midi": 65,
                    "time": 17.398749999999986,
                    "velocity": 0.3543307086614173,
                    "duration": 0.18000000000000327
                },
                {
                    "name": "E4",
                    "midi": 64,
                    "time": 17.517499999999988,
                    "velocity": 0.3543307086614173,
                    "duration": 0.18000000000000327
                },
                {
                    "name": "D4",
                    "midi": 62,
                    "time": 17.64374999999999,
                    "velocity": 0.3543307086614173,
                    "duration": 0.17999999999999972
                },
                {
                    "name": "C#4",
                    "midi": 61,
                    "time": 17.76124999999999,
                    "velocity": 0.3464566929133858,
                    "duration": 0.17999999999999972
                },
                {
                    "name": "A#3",
                    "midi": 58,
                    "time": 17.88249999999999,
                    "velocity": 0.3464566929133858,
                    "duration": 0.17999999999999972
                },
                {
                    "name": "A3",
                    "midi": 57,
                    "time": 18.00249999999999,
                    "velocity": 0.3464566929133858,
                    "duration": 0.14999999999999858
                },
                {
                    "name": "A#3",
                    "midi": 58,
                    "time": 18.10249999999999,
                    "velocity": 0.3464566929133858,
                    "duration": 0.15000000000000213
                },
                {
                    "name": "C#4",
                    "midi": 61,
                    "time": 18.19874999999999,
                    "velocity": 0.36220472440944884,
                    "duration": 0.14999999999999858
                },
                {
                    "name": "D4",
                    "midi": 62,
                    "time": 18.29999999999999,
                    "velocity": 0.3700787401574803,
                    "duration": 0.14999999999999858
                },
                {
                    "name": "E4",
                    "midi": 64,
                    "time": 18.403749999999988,
                    "velocity": 0.3779527559055118,
                    "duration": 0.15000000000000213
                },
                {
                    "name": "F4",
                    "midi": 65,
                    "time": 18.49999999999999,
                    "velocity": 0.3779527559055118,
                    "duration": 0.15000000000000213
                },
                {
                    "name": "A#4",
                    "midi": 70,
                    "time": 18.598749999999992,
                    "velocity": 0.3779527559055118,
                    "duration": 0.14999999999999858
                },
                {
                    "name": "A4",
                    "midi": 69,
                    "time": 18.699999999999992,
                    "velocity": 0.3700787401574803,
                    "duration": 0.14999999999999858
                },
                {
                    "name": "G4",
                    "midi": 67,
                    "time": 18.80249999999999,
                    "velocity": 0.36220472440944884,
                    "duration": 0.14999999999999858
                },
                {
                    "name": "F4",
                    "midi": 65,
                    "time": 18.90374999999999,
                    "velocity": 0.36220472440944884,
                    "duration": 0.14999999999999858
                },
                {
                    "name": "E4",
                    "midi": 64,
                    "time": 19.00249999999999,
                    "velocity": 0.3464566929133858,
                    "duration": 0.15000000000000213
                },
                {
                    "name": "D4",
                    "midi": 62,
                    "time": 19.098749999999992,
                    "velocity": 0.33858267716535434,
                    "duration": 0.14999999999999858
                },
                {
                    "name": "C#4",
                    "midi": 61,
                    "time": 19.199999999999992,
                    "velocity": 0.33858267716535434,
                    "duration": 0.11249999999999716
                },
                {
                    "name": "D4",
                    "midi": 62,
                    "time": 19.27749999999999,
                    "velocity": 0.3464566929133858,
                    "duration": 0.11250000000000071
                },
                {
                    "name": "E4",
                    "midi": 64,
                    "time": 19.34749999999999,
                    "velocity": 0.3543307086614173,
                    "duration": 0.11250000000000071
                },
                {
                    "name": "F4",
                    "midi": 65,
                    "time": 19.42374999999999,
                    "velocity": 0.36220472440944884,
                    "duration": 0.11249999999999716
                },
                {
                    "name": "G4",
                    "midi": 67,
                    "time": 19.49999999999999,
                    "velocity": 0.3700787401574803,
                    "duration": 0.11249999999999716
                },
                {
                    "name": "A4",
                    "midi": 69,
                    "time": 19.572499999999987,
                    "velocity": 0.3779527559055118,
                    "duration": 0.11250000000000071
                },
                {
                    "name": "A#4",
                    "midi": 70,
                    "time": 19.651249999999987,
                    "velocity": 0.3858267716535433,
                    "duration": 0.11250000000000071
                },
                {
                    "name": "C#5",
                    "midi": 73,
                    "time": 19.724999999999987,
                    "velocity": 0.4015748031496063,
                    "duration": 0.11250000000000071
                },
                {
                    "name": "F5",
                    "midi": 77,
                    "time": 19.80124999999999,
                    "velocity": 0.4094488188976378,
                    "duration": 0.17999999999999616
                },
                {
                    "name": "E5",
                    "midi": 76,
                    "time": 19.921249999999986,
                    "velocity": 0.4094488188976378,
                    "duration": 0.17999999999999972
                },
                {
                    "name": "D5",
                    "midi": 74,
                    "time": 20.038749999999986,
                    "velocity": 0.3937007874015748,
                    "duration": 0.17999999999999972
                },
                {
                    "name": "C#5",
                    "midi": 73,
                    "time": 20.159999999999986,
                    "velocity": 0.4015748031496063,
                    "duration": 0.17999999999999972
                },
                {
                    "name": "A#4",
                    "midi": 70,
                    "time": 20.278749999999985,
                    "velocity": 0.3858267716535433,
                    "duration": 0.18000000000000327
                },
                {
                    "name": "A4",
                    "midi": 69,
                    "time": 20.401249999999987,
                    "velocity": 0.3779527559055118,
                    "duration": 0.17999999999999972
                },
                {
                    "name": "A#4",
                    "midi": 70,
                    "time": 20.521249999999988,
                    "velocity": 0.3937007874015748,
                    "duration": 0.17999999999999972
                },
                {
                    "name": "C#5",
                    "midi": 73,
                    "time": 20.639999999999986,
                    "velocity": 0.4015748031496063,
                    "duration": 0.17999999999999972
                },
                {
                    "name": "D5",
                    "midi": 74,
                    "time": 20.763749999999987,
                    "velocity": 0.41732283464566927,
                    "duration": 0.17999999999999972
                },
                {
                    "name": "E5",
                    "midi": 76,
                    "time": 20.878749999999986,
                    "velocity": 0.4251968503937008,
                    "duration": 0.17999999999999972
                },
                {
                    "name": "F5",
                    "midi": 77,
                    "time": 21.002499999999987,
                    "velocity": 0.4330708661417323,
                    "duration": 0.17999999999999616
                },
                {
                    "name": "G5",
                    "midi": 79,
                    "time": 21.118749999999984,
                    "velocity": 0.4409448818897638,
                    "duration": 0.17999999999999616
                },
                {
                    "name": "A5",
                    "midi": 81,
                    "time": 21.242499999999982,
                    "velocity": 0.4566929133858268,
                    "duration": 0.17999999999999616
                },
                {
                    "name": "A#5",
                    "midi": 82,
                    "time": 21.36249999999998,
                    "velocity": 0.4645669291338583,
                    "duration": 0.17999999999999972
                },
                {
                    "name": "C#6",
                    "midi": 85,
                    "time": 21.477499999999978,
                    "velocity": 0.47244094488188976,
                    "duration": 0.17999999999999972
                },
                {
                    "name": "F6",
                    "midi": 89,
                    "time": 21.59749999999998,
                    "velocity": 0.49606299212598426,
                    "duration": 0.07499999999999929
                },
                {
                    "name": "E6",
                    "midi": 88,
                    "time": 21.67124999999998,
                    "velocity": 0.49606299212598426,
                    "duration": 0.07499999999999929
                },
                {
                    "name": "D6",
                    "midi": 86,
                    "time": 21.751249999999978,
                    "velocity": 0.49606299212598426,
                    "duration": 0.07499999999999929
                },
                {
                    "name": "C#6",
                    "midi": 85,
                    "time": 21.821249999999978,
                    "velocity": 0.49606299212598426,
                    "duration": 0.07499999999999929
                },
                {
                    "name": "A#5",
                    "midi": 82,
                    "time": 21.899999999999977,
                    "velocity": 0.4881889763779528,
                    "duration": 0.07500000000000284
                },
                {
                    "name": "A5",
                    "midi": 81,
                    "time": 21.96874999999998,
                    "velocity": 0.4881889763779528,
                    "duration": 0.07500000000000284
                },
                {
                    "name": "G5",
                    "midi": 79,
                    "time": 22.051249999999982,
                    "velocity": 0.4881889763779528,
                    "duration": 0.07499999999999929
                },
                {
                    "name": "F5",
                    "midi": 77,
                    "time": 22.12749999999998,
                    "velocity": 0.48031496062992124,
                    "duration": 0.07499999999999929
                },
                {
                    "name": "E5",
                    "midi": 76,
                    "time": 22.19499999999998,
                    "velocity": 0.48031496062992124,
                    "duration": 0.07499999999999929
                },
                {
                    "name": "D5",
                    "midi": 74,
                    "time": 22.28124999999998,
                    "velocity": 0.47244094488188976,
                    "duration": 0.07499999999999929
                },
                {
                    "name": "C#5",
                    "midi": 73,
                    "time": 22.348749999999978,
                    "velocity": 0.47244094488188976,
                    "duration": 0.07499999999999929
                },
                {
                    "name": "A#4",
                    "midi": 70,
                    "time": 22.419999999999977,
                    "velocity": 0.47244094488188976,
                    "duration": 0.07499999999999929
                },
                {
                    "name": "A4",
                    "midi": 69,
                    "time": 22.506249999999977,
                    "velocity": 0.47244094488188976,
                    "duration": 0.07499999999999929
                },
                {
                    "name": "G4",
                    "midi": 67,
                    "time": 22.579999999999977,
                    "velocity": 0.47244094488188976,
                    "duration": 0.07499999999999929
                },
                {
                    "name": "F4",
                    "midi": 65,
                    "time": 22.654999999999976,
                    "velocity": 0.4645669291338583,
                    "duration": 0.07499999999999929
                },
                {
                    "name": "E4",
                    "midi": 64,
                    "time": 22.724999999999977,
                    "velocity": 0.4645669291338583,
                    "duration": 0.07499999999999929
                },
                {
                    "name": "D4",
                    "midi": 62,
                    "time": 22.802499999999977,
                    "velocity": 0.4645669291338583,
                    "duration": 0.07499999999999929
                },
                {
                    "name": "C#4",
                    "midi": 61,
                    "time": 22.878749999999975,
                    "velocity": 0.4645669291338583,
                    "duration": 0.07500000000000284
                },
                {
                    "name": "A#3",
                    "midi": 58,
                    "time": 22.951249999999977,
                    "velocity": 0.4566929133858268,
                    "duration": 0.07500000000000284
                },
                {
                    "name": "A3",
                    "midi": 57,
                    "time": 23.02874999999998,
                    "velocity": 0.4566929133858268,
                    "duration": 0.07499999999999929
                },
                {
                    "name": "G3",
                    "midi": 55,
                    "time": 23.09499999999998,
                    "velocity": 0.4566929133858268,
                    "duration": 0.07499999999999929
                },
                {
                    "name": "F3",
                    "midi": 53,
                    "time": 23.179999999999982,
                    "velocity": 0.4566929133858268,
                    "duration": 0.07499999999999929
                },
                {
                    "name": "E3",
                    "midi": 52,
                    "time": 23.25499999999998,
                    "velocity": 0.4566929133858268,
                    "duration": 0.07499999999999929
                },
                {
                    "name": "D3",
                    "midi": 50,
                    "time": 23.32124999999998,
                    "velocity": 0.44881889763779526,
                    "duration": 0.07499999999999929
                },
                {
                    "name": "C#3",
                    "midi": 49,
                    "time": 23.39749999999998,
                    "velocity": 0.4566929133858268,
                    "duration": 0.07499999999999929
                },
                {
                    "name": "A#2",
                    "midi": 46,
                    "time": 23.47499999999998,
                    "velocity": 0.4566929133858268,
                    "duration": 0.07499999999999929
                },
                {
                    "name": "A2",
                    "midi": 45,
                    "time": 23.54874999999998,
                    "velocity": 0.4566929133858268,
                    "duration": 0.07499999999999929
                },
                {
                    "name": "G2",
                    "midi": 43,
                    "time": 23.62374999999998,
                    "velocity": 0.4645669291338583,
                    "duration": 0.07499999999999929
                },
                {
                    "name": "F2",
                    "midi": 41,
                    "time": 23.70249999999998,
                    "velocity": 0.47244094488188976,
                    "duration": 0.07500000000000284
                },
                {
                    "name": "E2",
                    "midi": 40,
                    "time": 23.77124999999998,
                    "velocity": 0.48031496062992124,
                    "duration": 0.07500000000000284
                },
                {
                    "name": "D2",
                    "midi": 38,
                    "time": 23.843749999999982,
                    "velocity": 0.48031496062992124,
                    "duration": 0.07500000000000284
                },
                {
                    "name": "C#2",
                    "midi": 37,
                    "time": 23.927499999999984,
                    "velocity": 0.4881889763779528,
                    "duration": 0.07499999999999929
                },
                {
                    "name": "A#1",
                    "midi": 34,
                    "time": 23.994999999999983,
                    "velocity": 0.49606299212598426,
                    "duration": 0.05999999999999872
                },
                {
                    "name": "A1",
                    "midi": 33,
                    "time": 24.05999999999998,
                    "velocity": 0.49606299212598426,
                    "duration": 0.23999999999999844
                },
                {
                    "name": "D3",
                    "midi": 50,
                    "time": 24.29999999999998,
                    "velocity": 0.5826771653543307,
                    "duration": 1.1999999999999993
                },
                {
                    "name": "A2",
                    "midi": 45,
                    "time": 24.29999999999998,
                    "velocity": 0.4645669291338583,
                    "duration": 1.1999999999999993
                },
                {
                    "name": "D2",
                    "midi": 38,
                    "time": 24.29999999999998,
                    "velocity": 0.4645669291338583,
                    "duration": 1.1999999999999993
                },
                {
                    "name": "A2",
                    "midi": 45,
                    "time": 25.49999999999998,
                    "velocity": 0.4881889763779528,
                    "duration": 0.6000000000000014
                },
                {
                    "name": "D3",
                    "midi": 50,
                    "time": 25.49999999999998,
                    "velocity": 0.6141732283464567,
                    "duration": 0.6000000000000014
                },
                {
                    "name": "D2",
                    "midi": 38,
                    "time": 25.49999999999998,
                    "velocity": 0.4881889763779528,
                    "duration": 0.6000000000000014
                },
                {
                    "name": "D3",
                    "midi": 50,
                    "time": 26.69999999999998,
                    "velocity": 0.6220472440944882,
                    "duration": 1.1999999999999993
                },
                {
                    "name": "D2",
                    "midi": 38,
                    "time": 26.69999999999998,
                    "velocity": 0.49606299212598426,
                    "duration": 1.1999999999999993
                },
                {
                    "name": "G2",
                    "midi": 43,
                    "time": 26.69999999999998,
                    "velocity": 0.49606299212598426,
                    "duration": 1.1999999999999993
                },
                {
                    "name": "D2",
                    "midi": 38,
                    "time": 27.89999999999998,
                    "velocity": 0.4645669291338583,
                    "duration": 0.6000000000000014
                },
                {
                    "name": "D3",
                    "midi": 50,
                    "time": 27.89999999999998,
                    "velocity": 0.5905511811023622,
                    "duration": 0.6000000000000014
                },
                {
                    "name": "G2",
                    "midi": 43,
                    "time": 27.89999999999998,
                    "velocity": 0.4645669291338583,
                    "duration": 0.6000000000000014
                },
                {
                    "name": "C#2",
                    "midi": 37,
                    "time": 29.099999999999984,
                    "velocity": 0.4645669291338583,
                    "duration": 0.6000000000000014
                },
                {
                    "name": "C#3",
                    "midi": 49,
                    "time": 29.099999999999984,
                    "velocity": 0.5905511811023622,
                    "duration": 0.6000000000000014
                },
                {
                    "name": "A1",
                    "midi": 33,
                    "time": 30.299999999999986,
                    "velocity": 0.4645669291338583,
                    "duration": 0.6000000000000014
                },
                {
                    "name": "A2",
                    "midi": 45,
                    "time": 30.299999999999986,
                    "velocity": 0.5905511811023622,
                    "duration": 0.6000000000000014
                },
                {
                    "name": "D3",
                    "midi": 50,
                    "time": 31.49999999999999,
                    "velocity": 0.5905511811023622,
                    "duration": 0.5999999999999979
                },
                {
                    "name": "D2",
                    "midi": 38,
                    "time": 31.49999999999999,
                    "velocity": 0.4645669291338583,
                    "duration": 0.5999999999999979
                },
                {
                    "name": "D2",
                    "midi": 38,
                    "time": 32.69999999999999,
                    "velocity": 0.4330708661417323,
                    "duration": 0.6000000000000014
                },
                {
                    "name": "A2",
                    "midi": 45,
                    "time": 32.69999999999999,
                    "velocity": 0.4330708661417323,
                    "duration": 0.6000000000000014
                },
                {
                    "name": "D3",
                    "midi": 50,
                    "time": 32.69999999999999,
                    "velocity": 0.5511811023622047,
                    "duration": 0.6000000000000014
                },
                {
                    "name": "C3",
                    "midi": 48,
                    "time": 33.89999999999999,
                    "velocity": 0.5196850393700787,
                    "duration": 1.2000000000000028
                },
                {
                    "name": "C2",
                    "midi": 36,
                    "time": 33.89999999999999,
                    "velocity": 0.4094488188976378,
                    "duration": 1.2000000000000028
                },
                {
                    "name": "E2",
                    "midi": 40,
                    "time": 35.099999999999994,
                    "velocity": 0.3937007874015748,
                    "duration": 0.6000000000000014
                },
                {
                    "name": "E3",
                    "midi": 52,
                    "time": 35.099999999999994,
                    "velocity": 0.5039370078740157,
                    "duration": 0.6000000000000014
                },
                {
                    "name": "F2",
                    "midi": 41,
                    "time": 36.3,
                    "velocity": 0.3937007874015748,
                    "duration": 0.6000000000000014
                },
                {
                    "name": "F3",
                    "midi": 53,
                    "time": 36.3,
                    "velocity": 0.5039370078740157,
                    "duration": 0.6000000000000014
                },
                {
                    "name": "F2",
                    "midi": 41,
                    "time": 37.5,
                    "velocity": 0.3937007874015748,
                    "duration": 0.6000000000000014
                },
                {
                    "name": "F3",
                    "midi": 53,
                    "time": 37.5,
                    "velocity": 0.5039370078740157,
                    "duration": 0.6000000000000014
                },
                {
                    "name": "E3",
                    "midi": 52,
                    "time": 38.7,
                    "velocity": 0.5196850393700787,
                    "duration": 1.2000000000000028
                },
                {
                    "name": "E2",
                    "midi": 40,
                    "time": 38.7,
                    "velocity": 0.4094488188976378,
                    "duration": 1.2000000000000028
                },
                {
                    "name": "G#2",
                    "midi": 44,
                    "time": 39.900000000000006,
                    "velocity": 0.4015748031496063,
                    "duration": 0.6000000000000014
                },
                {
                    "name": "G#3",
                    "midi": 56,
                    "time": 39.900000000000006,
                    "velocity": 0.5196850393700787,
                    "duration": 0.6000000000000014
                },
                {
                    "name": "A3",
                    "midi": 57,
                    "time": 41.10000000000001,
                    "velocity": 0.5433070866141733,
                    "duration": 0.6000000000000014
                },
                {
                    "name": "E3",
                    "midi": 52,
                    "time": 41.10000000000001,
                    "velocity": 0.4251968503937008,
                    "duration": 0.6000000000000014
                },
                {
                    "name": "A2",
                    "midi": 45,
                    "time": 41.10000000000001,
                    "velocity": 0.4251968503937008,
                    "duration": 0.6000000000000014
                },
                {
                    "name": "A2",
                    "midi": 45,
                    "time": 42.30000000000001,
                    "velocity": 0.4409448818897638,
                    "duration": 0.6000000000000014
                },
                {
                    "name": "E3",
                    "midi": 52,
                    "time": 42.30000000000001,
                    "velocity": 0.4409448818897638,
                    "duration": 0.6000000000000014
                },
                {
                    "name": "A3",
                    "midi": 57,
                    "time": 42.30000000000001,
                    "velocity": 0.5669291338582677,
                    "duration": 0.6000000000000014
                },
                {
                    "name": "A#3",
                    "midi": 58,
                    "time": 43.500000000000014,
                    "velocity": 0.6456692913385826,
                    "duration": 1.2000000000000028
                },
                {
                    "name": "A#2",
                    "midi": 46,
                    "time": 43.500000000000014,
                    "velocity": 0.5118110236220472,
                    "duration": 1.2000000000000028
                },
                {
                    "name": "E3",
                    "midi": 52,
                    "time": 43.500000000000014,
                    "velocity": 0.5118110236220472,
                    "duration": 1.2000000000000028
                },
                {
                    "name": "A2",
                    "midi": 45,
                    "time": 44.70000000000002,
                    "velocity": 0.4881889763779528,
                    "duration": 0.6000000000000014
                },
                {
                    "name": "A3",
                    "midi": 57,
                    "time": 44.70000000000002,
                    "velocity": 0.6141732283464567,
                    "duration": 0.6000000000000014
                },
                {
                    "name": "D#3",
                    "midi": 51,
                    "time": 45.90000000000002,
                    "velocity": 0.49606299212598426,
                    "duration": 1.2000000000000028
                },
                {
                    "name": "A#2",
                    "midi": 46,
                    "time": 45.90000000000002,
                    "velocity": 0.49606299212598426,
                    "duration": 1.2000000000000028
                },
                {
                    "name": "A#3",
                    "midi": 58,
                    "time": 45.90000000000002,
                    "velocity": 0.6220472440944882,
                    "duration": 1.2000000000000028
                },
                {
                    "name": "A3",
                    "midi": 57,
                    "time": 47.10000000000002,
                    "velocity": 0.5905511811023622,
                    "duration": 0.6000000000000014
                },
                {
                    "name": "A2",
                    "midi": 45,
                    "time": 47.10000000000002,
                    "velocity": 0.4645669291338583,
                    "duration": 0.6000000000000014
                },
                {
                    "name": "D3",
                    "midi": 50,
                    "time": 48.300000000000026,
                    "velocity": 0.4645669291338583,
                    "duration": 0.6000000000000014
                },
                {
                    "name": "B2",
                    "midi": 47,
                    "time": 48.300000000000026,
                    "velocity": 0.4645669291338583,
                    "duration": 0.6000000000000014
                },
                {
                    "name": "B3",
                    "midi": 59,
                    "time": 48.300000000000026,
                    "velocity": 0.5905511811023622,
                    "duration": 0.6000000000000014
                },
                {
                    "name": "E3",
                    "midi": 52,
                    "time": 49.50000000000003,
                    "velocity": 0.5905511811023622,
                    "duration": 0.6000000000000014
                },
                {
                    "name": "E2",
                    "midi": 40,
                    "time": 49.50000000000003,
                    "velocity": 0.4645669291338583,
                    "duration": 0.6000000000000014
                },
                {
                    "name": "B2",
                    "midi": 47,
                    "time": 49.50000000000003,
                    "velocity": 0.4645669291338583,
                    "duration": 0.6000000000000014
                },
                {
                    "name": "A3",
                    "midi": 57,
                    "time": 50.70000000000003,
                    "velocity": 0.5905511811023622,
                    "duration": 0.6000000000000014
                },
                {
                    "name": "A2",
                    "midi": 45,
                    "time": 50.70000000000003,
                    "velocity": 0.4645669291338583,
                    "duration": 0.6000000000000014
                },
                {
                    "name": "E3",
                    "midi": 52,
                    "time": 50.70000000000003,
                    "velocity": 0.4645669291338583,
                    "duration": 0.6000000000000014
                },
                {
                    "name": "A3",
                    "midi": 57,
                    "time": 51.900000000000034,
                    "velocity": 0.5905511811023622,
                    "duration": 0.6000000000000014
                },
                {
                    "name": "A2",
                    "midi": 45,
                    "time": 51.900000000000034,
                    "velocity": 0.4645669291338583,
                    "duration": 0.6000000000000014
                },
                {
                    "name": "E3",
                    "midi": 52,
                    "time": 51.900000000000034,
                    "velocity": 0.4645669291338583,
                    "duration": 0.6000000000000014
                },
                {
                    "name": "A#1",
                    "midi": 34,
                    "time": 53.10000000000004,
                    "velocity": 0.4566929133858268,
                    "duration": 1.2000000000000028
                },
                {
                    "name": "E2",
                    "midi": 40,
                    "time": 53.10000000000004,
                    "velocity": 0.4566929133858268,
                    "duration": 1.2000000000000028
                },
                {
                    "name": "A#2",
                    "midi": 46,
                    "time": 53.10000000000004,
                    "velocity": 0.5748031496062992,
                    "duration": 1.2000000000000028
                },
                {
                    "name": "A1",
                    "midi": 33,
                    "time": 54.30000000000004,
                    "velocity": 0.4330708661417323,
                    "duration": 0.6000000000000014
                },
                {
                    "name": "A2",
                    "midi": 45,
                    "time": 54.30000000000004,
                    "velocity": 0.5511811023622047,
                    "duration": 0.6000000000000014
                },
                {
                    "name": "A#1",
                    "midi": 34,
                    "time": 55.50000000000004,
                    "velocity": 0.4409448818897638,
                    "duration": 1.2000000000000028
                },
                {
                    "name": "D#2",
                    "midi": 39,
                    "time": 55.50000000000004,
                    "velocity": 0.4409448818897638,
                    "duration": 1.2000000000000028
                },
                {
                    "name": "A#2",
                    "midi": 46,
                    "time": 55.50000000000004,
                    "velocity": 0.5590551181102362,
                    "duration": 1.2000000000000028
                },
                {
                    "name": "A2",
                    "midi": 45,
                    "time": 56.700000000000045,
                    "velocity": 0.5275590551181102,
                    "duration": 0.6000000000000014
                },
                {
                    "name": "A1",
                    "midi": 33,
                    "time": 56.700000000000045,
                    "velocity": 0.4094488188976378,
                    "duration": 0.6000000000000014
                },
                {
                    "name": "D2",
                    "midi": 38,
                    "time": 57.90000000000005,
                    "velocity": 0.4094488188976378,
                    "duration": 0.6000000000000014
                },
                {
                    "name": "B1",
                    "midi": 35,
                    "time": 57.90000000000005,
                    "velocity": 0.4094488188976378,
                    "duration": 0.6000000000000014
                },
                {
                    "name": "B2",
                    "midi": 47,
                    "time": 57.90000000000005,
                    "velocity": 0.5275590551181102,
                    "duration": 0.6000000000000014
                },
                {
                    "name": "A#2",
                    "midi": 46,
                    "time": 59.10000000000005,
                    "velocity": 0.5275590551181102,
                    "duration": 0.6000000000000014
                },
                {
                    "name": "D2",
                    "midi": 38,
                    "time": 59.10000000000005,
                    "velocity": 0.4094488188976378,
                    "duration": 0.6000000000000014
                },
                {
                    "name": "A#1",
                    "midi": 34,
                    "time": 59.10000000000005,
                    "velocity": 0.4094488188976378,
                    "duration": 0.6000000000000014
                },
                {
                    "name": "A2",
                    "midi": 45,
                    "time": 60.300000000000054,
                    "velocity": 0.5275590551181102,
                    "duration": 0.29999999999999716
                },
                {
                    "name": "A1",
                    "midi": 33,
                    "time": 60.300000000000054,
                    "velocity": 0.4094488188976378,
                    "duration": 0.29999999999999716
                },
                {
                    "name": "E2",
                    "midi": 40,
                    "time": 60.300000000000054,
                    "velocity": 0.4094488188976378,
                    "duration": 0.29999999999999716
                },
                {
                    "name": "G3",
                    "midi": 55,
                    "time": 60.90000000000005,
                    "velocity": 0.30708661417322836,
                    "duration": 0.20000000000000284
                },
                {
                    "name": "A#2",
                    "midi": 46,
                    "time": 60.90000000000005,
                    "velocity": 0.4409448818897638,
                    "duration": 0.6000000000000085
                },
                {
                    "name": "G#3",
                    "midi": 56,
                    "time": 61.10000000000005,
                    "velocity": 0.30708661417322836,
                    "duration": 0.20000000000000284
                },
                {
                    "name": "A3",
                    "midi": 57,
                    "time": 61.300000000000054,
                    "velocity": 0.30708661417322836,
                    "duration": 0.20000000000000284
                },
                {
                    "name": "C#3",
                    "midi": 49,
                    "time": 61.50000000000006,
                    "velocity": 0.4645669291338583,
                    "duration": 0.6000000000000085
                },
                {
                    "name": "A#3",
                    "midi": 58,
                    "time": 61.50000000000006,
                    "velocity": 0.31496062992125984,
                    "duration": 0.20000000000000284
                },
                {
                    "name": "B3",
                    "midi": 59,
                    "time": 61.70000000000006,
                    "velocity": 0.3228346456692913,
                    "duration": 0.20000000000000284
                },
                {
                    "name": "C4",
                    "midi": 60,
                    "time": 61.90000000000006,
                    "velocity": 0.3228346456692913,
                    "duration": 0.20000000000000284
                },
                {
                    "name": "C#4",
                    "midi": 61,
                    "time": 62.100000000000065,
                    "velocity": 0.3228346456692913,
                    "duration": 0.20000000000000284
                },
                {
                    "name": "E3",
                    "midi": 52,
                    "time": 62.100000000000065,
                    "velocity": 0.4881889763779528,
                    "duration": 0.6000000000000085
                },
                {
                    "name": "D4",
                    "midi": 62,
                    "time": 62.30000000000007,
                    "velocity": 0.33070866141732286,
                    "duration": 0.20000000000000284
                },
                {
                    "name": "D#4",
                    "midi": 63,
                    "time": 62.50000000000007,
                    "velocity": 0.33858267716535434,
                    "duration": 0.20000000000000284
                },
                {
                    "name": "G3",
                    "midi": 55,
                    "time": 62.700000000000074,
                    "velocity": 0.5118110236220472,
                    "duration": 0.6000000000000085
                },
                {
                    "name": "E4",
                    "midi": 64,
                    "time": 62.700000000000074,
                    "velocity": 0.33858267716535434,
                    "duration": 0.20000000000000284
                },
                {
                    "name": "D4",
                    "midi": 62,
                    "time": 62.90000000000008,
                    "velocity": 0.33858267716535434,
                    "duration": 0.20000000000000284
                },
                {
                    "name": "C#4",
                    "midi": 61,
                    "time": 63.10000000000008,
                    "velocity": 0.3464566929133858,
                    "duration": 0.20000000000000284
                },
                {
                    "name": "B3",
                    "midi": 59,
                    "time": 63.30000000000008,
                    "velocity": 0.28346456692913385,
                    "duration": 0.6000000000000014
                },
                {
                    "name": "F4",
                    "midi": 65,
                    "time": 63.30000000000008,
                    "velocity": 0.28346456692913385,
                    "duration": 0.6000000000000014
                },
                {
                    "name": "D3",
                    "midi": 50,
                    "time": 63.30000000000008,
                    "velocity": 0.2440944881889764,
                    "duration": 0.6000000000000014
                },
                {
                    "name": "G#3",
                    "midi": 56,
                    "time": 63.30000000000008,
                    "velocity": 0.4015748031496063,
                    "duration": 0.6000000000000014
                },
                {
                    "name": "A2",
                    "midi": 45,
                    "time": 63.900000000000084,
                    "velocity": 0.4094488188976378,
                    "duration": 0.30000000000000426
                },
                {
                    "name": "A3",
                    "midi": 57,
                    "time": 63.900000000000084,
                    "velocity": 0.5275590551181102,
                    "duration": 0.30000000000000426
                },
                {
                    "name": "E3",
                    "midi": 52,
                    "time": 63.900000000000084,
                    "velocity": 0.4094488188976378,
                    "duration": 0.30000000000000426
                },
                {
                    "name": "A#3",
                    "midi": 58,
                    "time": 64.50000000000009,
                    "velocity": 0.4409448818897638,
                    "duration": 0.6000000000000085
                },
                {
                    "name": "G4",
                    "midi": 67,
                    "time": 64.50000000000009,
                    "velocity": 0.30708661417322836,
                    "duration": 0.20000000000000284
                },
                {
                    "name": "G#4",
                    "midi": 68,
                    "time": 64.70000000000009,
                    "velocity": 0.30708661417322836,
                    "duration": 0.20000000000000284
                },
                {
                    "name": "A4",
                    "midi": 69,
                    "time": 64.90000000000009,
                    "velocity": 0.30708661417322836,
                    "duration": 0.20000000000000284
                },
                {
                    "name": "C#4",
                    "midi": 61,
                    "time": 65.1000000000001,
                    "velocity": 0.4645669291338583,
                    "duration": 0.6000000000000085
                },
                {
                    "name": "A#4",
                    "midi": 70,
                    "time": 65.1000000000001,
                    "velocity": 0.31496062992125984,
                    "duration": 0.20000000000000284
                },
                {
                    "name": "B4",
                    "midi": 71,
                    "time": 65.3000000000001,
                    "velocity": 0.3228346456692913,
                    "duration": 0.20000000000000284
                },
                {
                    "name": "C5",
                    "midi": 72,
                    "time": 65.5000000000001,
                    "velocity": 0.3228346456692913,
                    "duration": 0.20000000000000284
                },
                {
                    "name": "E4",
                    "midi": 64,
                    "time": 65.7000000000001,
                    "velocity": 0.4881889763779528,
                    "duration": 0.6000000000000085
                },
                {
                    "name": "C#5",
                    "midi": 73,
                    "time": 65.7000000000001,
                    "velocity": 0.3228346456692913,
                    "duration": 0.20000000000000284
                },
                {
                    "name": "D5",
                    "midi": 74,
                    "time": 65.9000000000001,
                    "velocity": 0.33070866141732286,
                    "duration": 0.20000000000000284
                },
                {
                    "name": "D#5",
                    "midi": 75,
                    "time": 66.10000000000011,
                    "velocity": 0.33858267716535434,
                    "duration": 0.20000000000000284
                },
                {
                    "name": "E5",
                    "midi": 76,
                    "time": 66.30000000000011,
                    "velocity": 0.33858267716535434,
                    "duration": 0.20000000000000284
                },
                {
                    "name": "G4",
                    "midi": 67,
                    "time": 66.30000000000011,
                    "velocity": 0.5118110236220472,
                    "duration": 0.6000000000000085
                },
                {
                    "name": "D5",
                    "midi": 74,
                    "time": 66.50000000000011,
                    "velocity": 0.33858267716535434,
                    "duration": 0.20000000000000284
                },
                {
                    "name": "C#5",
                    "midi": 73,
                    "time": 66.70000000000012,
                    "velocity": 0.3464566929133858,
                    "duration": 0.20000000000000284
                },
                {
                    "name": "B4",
                    "midi": 71,
                    "time": 66.90000000000012,
                    "velocity": 0.28346456692913385,
                    "duration": 0.29999999999999716
                },
                {
                    "name": "D4",
                    "midi": 62,
                    "time": 66.90000000000012,
                    "velocity": 0.2440944881889764,
                    "duration": 0.29999999999999716
                },
                {
                    "name": "G#4",
                    "midi": 68,
                    "time": 66.90000000000012,
                    "velocity": 0.4015748031496063,
                    "duration": 0.29999999999999716
                },
                {
                    "name": "F5",
                    "midi": 77,
                    "time": 66.90000000000012,
                    "velocity": 0.28346456692913385,
                    "duration": 0.29999999999999716
                },
                {
                    "name": "A4",
                    "midi": 69,
                    "time": 67.50000000000011,
                    "velocity": 0.5275590551181102,
                    "duration": 0.29999999999999716
                },
                {
                    "name": "A3",
                    "midi": 57,
                    "time": 67.50000000000011,
                    "velocity": 0.4094488188976378,
                    "duration": 0.29999999999999716
                },
                {
                    "name": "E4",
                    "midi": 64,
                    "time": 67.50000000000011,
                    "velocity": 0.4094488188976378,
                    "duration": 0.29999999999999716
                },
                {
                    "name": "C#4",
                    "midi": 61,
                    "time": 67.50000000000011,
                    "velocity": 0.4094488188976378,
                    "duration": 0.29999999999999716
                },
                {
                    "name": "D3",
                    "midi": 50,
                    "time": 68.10000000000011,
                    "velocity": 0.4015748031496063,
                    "duration": 0.29999999999999716
                },
                {
                    "name": "D4",
                    "midi": 62,
                    "time": 68.10000000000011,
                    "velocity": 0.4015748031496063,
                    "duration": 0.29999999999999716
                },
                {
                    "name": "G#3",
                    "midi": 56,
                    "time": 68.10000000000011,
                    "velocity": 0.4015748031496063,
                    "duration": 0.29999999999999716
                },
                {
                    "name": "F3",
                    "midi": 53,
                    "time": 68.10000000000011,
                    "velocity": 0.4015748031496063,
                    "duration": 0.29999999999999716
                },
                {
                    "name": "A2",
                    "midi": 45,
                    "time": 68.7000000000001,
                    "velocity": 0.4015748031496063,
                    "duration": 0.29999999999999716
                },
                {
                    "name": "E3",
                    "midi": 52,
                    "time": 68.7000000000001,
                    "velocity": 0.4015748031496063,
                    "duration": 0.29999999999999716
                },
                {
                    "name": "A3",
                    "midi": 57,
                    "time": 68.7000000000001,
                    "velocity": 0.4015748031496063,
                    "duration": 0.29999999999999716
                },
                {
                    "name": "C#3",
                    "midi": 49,
                    "time": 68.7000000000001,
                    "velocity": 0.4015748031496063,
                    "duration": 0.29999999999999716
                },
                {
                    "name": "D3",
                    "midi": 50,
                    "time": 69.3000000000001,
                    "velocity": 0.4015748031496063,
                    "duration": 0.29999999999999716
                },
                {
                    "name": "F2",
                    "midi": 41,
                    "time": 69.3000000000001,
                    "velocity": 0.4015748031496063,
                    "duration": 0.29999999999999716
                },
                {
                    "name": "D2",
                    "midi": 38,
                    "time": 69.3000000000001,
                    "velocity": 0.4015748031496063,
                    "duration": 0.29999999999999716
                },
                {
                    "name": "G#2",
                    "midi": 44,
                    "time": 69.3000000000001,
                    "velocity": 0.4015748031496063,
                    "duration": 0.29999999999999716
                },
                {
                    "name": "A1",
                    "midi": 33,
                    "time": 69.90000000000009,
                    "velocity": 0.4015748031496063,
                    "duration": 0.29999999999999716
                },
                {
                    "name": "E2",
                    "midi": 40,
                    "time": 69.90000000000009,
                    "velocity": 0.4015748031496063,
                    "duration": 0.29999999999999716
                },
                {
                    "name": "C#2",
                    "midi": 37,
                    "time": 69.90000000000009,
                    "velocity": 0.4015748031496063,
                    "duration": 0.29999999999999716
                },
                {
                    "name": "A2",
                    "midi": 45,
                    "time": 69.90000000000009,
                    "velocity": 0.4015748031496063,
                    "duration": 0.29999999999999716
                },
                {
                    "name": "D3",
                    "midi": 50,
                    "time": 70.50000000000009,
                    "velocity": 0.4015748031496063,
                    "duration": 0.29999999999999716
                },
                {
                    "name": "G#2",
                    "midi": 44,
                    "time": 70.50000000000009,
                    "velocity": 0.4015748031496063,
                    "duration": 0.29999999999999716
                },
                {
                    "name": "F2",
                    "midi": 41,
                    "time": 70.50000000000009,
                    "velocity": 0.4015748031496063,
                    "duration": 0.29999999999999716
                },
                {
                    "name": "D2",
                    "midi": 38,
                    "time": 70.50000000000009,
                    "velocity": 0.4015748031496063,
                    "duration": 0.29999999999999716
                },
                {
                    "name": "C#2",
                    "midi": 37,
                    "time": 71.10000000000008,
                    "velocity": 0.4094488188976378,
                    "duration": 0.29999999999999716
                },
                {
                    "name": "A1",
                    "midi": 33,
                    "time": 71.10000000000008,
                    "velocity": 0.4094488188976378,
                    "duration": 0.29999999999999716
                },
                {
                    "name": "A2",
                    "midi": 45,
                    "time": 71.10000000000008,
                    "velocity": 0.5275590551181102,
                    "duration": 0.29999999999999716
                },
                {
                    "name": "E2",
                    "midi": 40,
                    "time": 71.10000000000008,
                    "velocity": 0.4094488188976378,
                    "duration": 0.29999999999999716
                },
                {
                    "name": "A#2",
                    "midi": 46,
                    "time": 71.69750000000008,
                    "velocity": 0.36220472440944884,
                    "duration": 0.3999999999999915
                },
                {
                    "name": "A#3",
                    "midi": 58,
                    "time": 71.70125000000007,
                    "velocity": 0.4251968503937008,
                    "duration": 0.3999999999999915
                },
                {
                    "name": "A2",
                    "midi": 45,
                    "time": 72.09875000000007,
                    "velocity": 0.33070866141732286,
                    "duration": 0.20000000000000284
                },
                {
                    "name": "A3",
                    "midi": 57,
                    "time": 72.09875000000007,
                    "velocity": 0.3937007874015748,
                    "duration": 0.20000000000000284
                },
                {
                    "name": "G3",
                    "midi": 55,
                    "time": 72.29750000000007,
                    "velocity": 0.4330708661417323,
                    "duration": 0.20000000000000284
                },
                {
                    "name": "G2",
                    "midi": 43,
                    "time": 72.30000000000007,
                    "velocity": 0.36220472440944884,
                    "duration": 0.20000000000000284
                },
                {
                    "name": "F3",
                    "midi": 53,
                    "time": 72.49875000000007,
                    "velocity": 0.4094488188976378,
                    "duration": 0.20000000000000284
                },
                {
                    "name": "F2",
                    "midi": 41,
                    "time": 72.50000000000007,
                    "velocity": 0.3464566929133858,
                    "duration": 0.20000000000000284
                },
                {
                    "name": "E3",
                    "midi": 52,
                    "time": 72.70125000000007,
                    "velocity": 0.4094488188976378,
                    "duration": 0.20000000000000284
                },
                {
                    "name": "E2",
                    "midi": 40,
                    "time": 72.70250000000007,
                    "velocity": 0.3464566929133858,
                    "duration": 0.20000000000000284
                },
                {
                    "name": "D3",
                    "midi": 50,
                    "time": 72.90000000000008,
                    "velocity": 0.3779527559055118,
                    "duration": 0.19999999999998863
                },
                {
                    "name": "D2",
                    "midi": 38,
                    "time": 72.90375000000007,
                    "velocity": 0.31496062992125984,
                    "duration": 0.19999999999998863
                },
                {
                    "name": "C#3",
                    "midi": 49,
                    "time": 73.09875000000007,
                    "velocity": 0.41732283464566927,
                    "duration": 0.19999999999998863
                },
                {
                    "name": "C#2",
                    "midi": 37,
                    "time": 73.10000000000007,
                    "velocity": 0.3543307086614173,
                    "duration": 0.19999999999998863
                },
                {
                    "name": "E2",
                    "midi": 40,
                    "time": 73.29875000000006,
                    "velocity": 0.33070866141732286,
                    "duration": 0.20000000000000284
                },
                {
                    "name": "E3",
                    "midi": 52,
                    "time": 73.30125000000005,
                    "velocity": 0.3937007874015748,
                    "duration": 0.20000000000000284
                },
                {
                    "name": "C3",
                    "midi": 48,
                    "time": 73.49750000000006,
                    "velocity": 0.4251968503937008,
                    "duration": 0.20000000000000284
                },
                {
                    "name": "C2",
                    "midi": 36,
                    "time": 73.49875000000006,
                    "velocity": 0.36220472440944884,
                    "duration": 0.20000000000000284
                },
                {
                    "name": "E3",
                    "midi": 52,
                    "time": 73.70250000000006,
                    "velocity": 0.4015748031496063,
                    "duration": 0.20000000000000284
                },
                {
                    "name": "E2",
                    "midi": 40,
                    "time": 73.70250000000006,
                    "velocity": 0.33858267716535434,
                    "duration": 0.20000000000000284
                },
                {
                    "name": "B2",
                    "midi": 47,
                    "time": 73.90125000000006,
                    "velocity": 0.4251968503937008,
                    "duration": 0.19999999999998863
                },
                {
                    "name": "B1",
                    "midi": 35,
                    "time": 73.90375000000006,
                    "velocity": 0.36220472440944884,
                    "duration": 0.19999999999998863
                },
                {
                    "name": "E2",
                    "midi": 40,
                    "time": 74.09750000000005,
                    "velocity": 0.33070866141732286,
                    "duration": 0.19999999999998863
                },
                {
                    "name": "E3",
                    "midi": 52,
                    "time": 74.10375000000005,
                    "velocity": 0.3937007874015748,
                    "duration": 0.19999999999998863
                },
                {
                    "name": "A#2",
                    "midi": 46,
                    "time": 74.29875000000004,
                    "velocity": 0.44881889763779526,
                    "duration": 0.19999999999998863
                },
                {
                    "name": "A#1",
                    "midi": 34,
                    "time": 74.30000000000004,
                    "velocity": 0.3779527559055118,
                    "duration": 0.19999999999998863
                },
                {
                    "name": "E2",
                    "midi": 40,
                    "time": 74.50000000000003,
                    "velocity": 0.3464566929133858,
                    "duration": 0.20000000000000284
                },
                {
                    "name": "E3",
                    "midi": 52,
                    "time": 74.50375000000003,
                    "velocity": 0.4094488188976378,
                    "duration": 0.20000000000000284
                },
                {
                    "name": "A1",
                    "midi": 33,
                    "time": 74.70000000000003,
                    "velocity": 0.4015748031496063,
                    "duration": 0.29999999999999716
                },
                {
                    "name": "A2",
                    "midi": 45,
                    "time": 74.70000000000003,
                    "velocity": 0.47244094488188976,
                    "duration": 0.29999999999999716
                },
                {
                    "name": "C#4",
                    "midi": 61,
                    "time": 75.30125000000002,
                    "velocity": 0.4409448818897638,
                    "duration": 0.3999999999999915
                },
                {
                    "name": "C#3",
                    "midi": 49,
                    "time": 75.30375000000002,
                    "velocity": 0.3700787401574803,
                    "duration": 0.3999999999999915
                },
                {
                    "name": "A#2",
                    "midi": 46,
                    "time": 75.69750000000002,
                    "velocity": 0.3543307086614173,
                    "duration": 0.19999999999998863
                },
                {
                    "name": "A#3",
                    "midi": 58,
                    "time": 75.69875000000002,
                    "velocity": 0.41732283464566927,
                    "duration": 0.19999999999998863
                },
                {
                    "name": "A2",
                    "midi": 45,
                    "time": 75.9025,
                    "velocity": 0.3779527559055118,
                    "duration": 0.19999999999998863
                },
                {
                    "name": "A3",
                    "midi": 57,
                    "time": 75.90375,
                    "velocity": 0.44881889763779526,
                    "duration": 0.19999999999998863
                },
                {
                    "name": "G2",
                    "midi": 43,
                    "time": 76.09875,
                    "velocity": 0.33858267716535434,
                    "duration": 0.19999999999998863
                },
                {
                    "name": "G3",
                    "midi": 55,
                    "time": 76.09875,
                    "velocity": 0.4015748031496063,
                    "duration": 0.19999999999998863
                },
                {
                    "name": "F3",
                    "midi": 53,
                    "time": 76.29999999999998,
                    "velocity": 0.4015748031496063,
                    "duration": 0.20000000000000284
                },
                {
                    "name": "F2",
                    "midi": 41,
                    "time": 76.30124999999998,
                    "velocity": 0.33858267716535434,
                    "duration": 0.20000000000000284
                },
                {
                    "name": "E3",
                    "midi": 52,
                    "time": 76.49874999999999,
                    "velocity": 0.4409448818897638,
                    "duration": 0.20000000000000284
                },
                {
                    "name": "E2",
                    "midi": 40,
                    "time": 76.50124999999998,
                    "velocity": 0.3700787401574803,
                    "duration": 0.20000000000000284
                },
                {
                    "name": "G3",
                    "midi": 55,
                    "time": 76.69874999999999,
                    "velocity": 0.3937007874015748,
                    "duration": 0.20000000000000284
                },
                {
                    "name": "G2",
                    "midi": 43,
                    "time": 76.70124999999999,
                    "velocity": 0.33070866141732286,
                    "duration": 0.20000000000000284
                },
                {
                    "name": "D#3",
                    "midi": 51,
                    "time": 76.90124999999999,
                    "velocity": 0.4409448818897638,
                    "duration": 0.19999999999998863
                },
                {
                    "name": "D#2",
                    "midi": 39,
                    "time": 76.90249999999999,
                    "velocity": 0.3700787401574803,
                    "duration": 0.19999999999998863
                },
                {
                    "name": "G3",
                    "midi": 55,
                    "time": 77.09749999999998,
                    "velocity": 0.3858267716535433,
                    "duration": 0.19999999999998863
                },
                {
                    "name": "G2",
                    "midi": 43,
                    "time": 77.10124999999998,
                    "velocity": 0.3228346456692913,
                    "duration": 0.19999999999998863
                },
                {
                    "name": "D2",
                    "midi": 38,
                    "time": 77.30124999999997,
                    "velocity": 0.3779527559055118,
                    "duration": 0.20000000000000284
                },
                {
                    "name": "D3",
                    "midi": 50,
                    "time": 77.30124999999997,
                    "velocity": 0.44881889763779526,
                    "duration": 0.20000000000000284
                },
                {
                    "name": "G2",
                    "midi": 43,
                    "time": 77.49999999999997,
                    "velocity": 0.33070866141732286,
                    "duration": 0.20000000000000284
                },
                {
                    "name": "G3",
                    "midi": 55,
                    "time": 77.50124999999997,
                    "velocity": 0.3937007874015748,
                    "duration": 0.20000000000000284
                },
                {
                    "name": "C#2",
                    "midi": 37,
                    "time": 77.69749999999998,
                    "velocity": 0.3779527559055118,
                    "duration": 0.20000000000000284
                },
                {
                    "name": "C#3",
                    "midi": 49,
                    "time": 77.70124999999997,
                    "velocity": 0.44881889763779526,
                    "duration": 0.20000000000000284
                },
                {
                    "name": "G2",
                    "midi": 43,
                    "time": 77.89874999999998,
                    "velocity": 0.33070866141732286,
                    "duration": 0.20000000000000284
                },
                {
                    "name": "G3",
                    "midi": 55,
                    "time": 77.90249999999997,
                    "velocity": 0.3937007874015748,
                    "duration": 0.20000000000000284
                },
                {
                    "name": "A#1",
                    "midi": 34,
                    "time": 78.09999999999998,
                    "velocity": 0.4015748031496063,
                    "duration": 0.20000000000000284
                },
                {
                    "name": "A#2",
                    "midi": 46,
                    "time": 78.10124999999998,
                    "velocity": 0.47244094488188976,
                    "duration": 0.20000000000000284
                },
                {
                    "name": "G3",
                    "midi": 55,
                    "time": 78.29874999999998,
                    "velocity": 0.48031496062992124,
                    "duration": 0.14999999999999147
                },
                {
                    "name": "G2",
                    "midi": 43,
                    "time": 78.29999999999998,
                    "velocity": 0.3858267716535433,
                    "duration": 0.14999999999999147
                },
                {
                    "name": "A1",
                    "midi": 33,
                    "time": 78.59999999999998,
                    "velocity": 0.3543307086614173,
                    "duration": 0.15000000000000568
                },
                {
                    "name": "A2",
                    "midi": 45,
                    "time": 78.59999999999998,
                    "velocity": 0.4251968503937008,
                    "duration": 0.15000000000000568
                },
                {
                    "name": "E3",
                    "midi": 52,
                    "time": 78.89749999999998,
                    "velocity": 0.3464566929133858,
                    "duration": 0.4000000000000057
                },
                {
                    "name": "E4",
                    "midi": 64,
                    "time": 78.89874999999998,
                    "velocity": 0.4094488188976378,
                    "duration": 0.4000000000000057
                },
                {
                    "name": "D4",
                    "midi": 62,
                    "time": 79.29874999999998,
                    "velocity": 0.3543307086614173,
                    "duration": 0.19999999999998863
                },
                {
                    "name": "D3",
                    "midi": 50,
                    "time": 79.30249999999998,
                    "velocity": 0.29133858267716534,
                    "duration": 0.19999999999998863
                },
                {
                    "name": "C#4",
                    "midi": 61,
                    "time": 79.49749999999997,
                    "velocity": 0.3858267716535433,
                    "duration": 0.19999999999998863
                },
                {
                    "name": "C#3",
                    "midi": 49,
                    "time": 79.49749999999997,
                    "velocity": 0.3228346456692913,
                    "duration": 0.19999999999998863
                },
                {
                    "name": "A#3",
                    "midi": 58,
                    "time": 79.69749999999996,
                    "velocity": 0.3228346456692913,
                    "duration": 0.20000000000000284
                },
                {
                    "name": "A#2",
                    "midi": 46,
                    "time": 79.69999999999996,
                    "velocity": 0.2755905511811024,
                    "duration": 0.20000000000000284
                },
                {
                    "name": "A3",
                    "midi": 57,
                    "time": 79.89749999999997,
                    "velocity": 0.3228346456692913,
                    "duration": 0.19999999999998863
                },
                {
                    "name": "A2",
                    "midi": 45,
                    "time": 79.90249999999996,
                    "velocity": 0.2755905511811024,
                    "duration": 0.19999999999998863
                },
                {
                    "name": "G3",
                    "midi": 55,
                    "time": 80.09749999999995,
                    "velocity": 0.3228346456692913,
                    "duration": 0.19999999999998863
                },
                {
                    "name": "G4",
                    "midi": 67,
                    "time": 80.09749999999995,
                    "velocity": 0.3858267716535433,
                    "duration": 0.19999999999998863
                },
                {
                    "name": "F3",
                    "midi": 53,
                    "time": 80.29999999999994,
                    "velocity": 0.3228346456692913,
                    "duration": 0.20000000000000284
                },
                {
                    "name": "F4",
                    "midi": 65,
                    "time": 80.30374999999994,
                    "velocity": 0.3779527559055118,
                    "duration": 0.20000000000000284
                },
                {
                    "name": "E3",
                    "midi": 52,
                    "time": 80.50124999999994,
                    "velocity": 0.30708661417322836,
                    "duration": 0.19999999999998863
                },
                {
                    "name": "E4",
                    "midi": 64,
                    "time": 80.50124999999994,
                    "velocity": 0.3700787401574803,
                    "duration": 0.19999999999998863
                },
                {
                    "name": "D3",
                    "midi": 50,
                    "time": 80.69874999999993,
                    "velocity": 0.2992125984251969,
                    "duration": 0.20000000000000284
                },
                {
                    "name": "D4",
                    "midi": 62,
                    "time": 80.70249999999993,
                    "velocity": 0.3543307086614173,
                    "duration": 0.20000000000000284
                },
                {
                    "name": "C#3",
                    "midi": 49,
                    "time": 80.89999999999993,
                    "velocity": 0.2992125984251969,
                    "duration": 0.20000000000000284
                },
                {
                    "name": "C#4",
                    "midi": 61,
                    "time": 80.90249999999993,
                    "velocity": 0.3543307086614173,
                    "duration": 0.20000000000000284
                },
                {
                    "name": "A#4",
                    "midi": 70,
                    "time": 81.09999999999994,
                    "velocity": 0.36220472440944884,
                    "duration": 0.19999999999998863
                },
                {
                    "name": "A#3",
                    "midi": 58,
                    "time": 81.10374999999993,
                    "velocity": 0.30708661417322836,
                    "duration": 0.19999999999998863
                },
                {
                    "name": "A4",
                    "midi": 69,
                    "time": 81.29874999999993,
                    "velocity": 0.41732283464566927,
                    "duration": 0.19999999999998863
                },
                {
                    "name": "A3",
                    "midi": 57,
                    "time": 81.29999999999993,
                    "velocity": 0.3464566929133858,
                    "duration": 0.19999999999998863
                },
                {
                    "name": "G3",
                    "midi": 55,
                    "time": 81.49874999999992,
                    "velocity": 0.33858267716535434,
                    "duration": 0.20000000000000284
                },
                {
                    "name": "G4",
                    "midi": 67,
                    "time": 81.50249999999991,
                    "velocity": 0.4015748031496063,
                    "duration": 0.20000000000000284
                },
                {
                    "name": "F4",
                    "midi": 65,
                    "time": 81.69874999999992,
                    "velocity": 0.3779527559055118,
                    "duration": 0.20000000000000284
                },
                {
                    "name": "F3",
                    "midi": 53,
                    "time": 81.69874999999992,
                    "velocity": 0.31496062992125984,
                    "duration": 0.20000000000000284
                },
                {
                    "name": "E3",
                    "midi": 52,
                    "time": 81.89999999999992,
                    "velocity": 0.2992125984251969,
                    "duration": 0.20000000000000284
                },
                {
                    "name": "E4",
                    "midi": 64,
                    "time": 81.90124999999992,
                    "velocity": 0.3543307086614173,
                    "duration": 0.20000000000000284
                },
                {
                    "name": "E5",
                    "midi": 76,
                    "time": 82.10124999999992,
                    "velocity": 0.44881889763779526,
                    "duration": 0.19999999999998863
                },
                {
                    "name": "E4",
                    "midi": 64,
                    "time": 82.10374999999992,
                    "velocity": 0.3779527559055118,
                    "duration": 0.19999999999998863
                },
                {
                    "name": "D4",
                    "midi": 62,
                    "time": 82.29874999999991,
                    "velocity": 0.3700787401574803,
                    "duration": 0.19999999999998863
                },
                {
                    "name": "D5",
                    "midi": 74,
                    "time": 82.29999999999991,
                    "velocity": 0.4409448818897638,
                    "duration": 0.19999999999998863
                },
                {
                    "name": "C#4",
                    "midi": 61,
                    "time": 82.5012499999999,
                    "velocity": 0.36220472440944884,
                    "duration": 0.20000000000000284
                },
                {
                    "name": "C#5",
                    "midi": 73,
                    "time": 82.5012499999999,
                    "velocity": 0.4330708661417323,
                    "duration": 0.20000000000000284
                },
                {
                    "name": "A#4",
                    "midi": 70,
                    "time": 82.6987499999999,
                    "velocity": 0.4015748031496063,
                    "duration": 0.19999999999998863
                },
                {
                    "name": "A#3",
                    "midi": 58,
                    "time": 82.7024999999999,
                    "velocity": 0.33858267716535434,
                    "duration": 0.19999999999998863
                },
                {
                    "name": "A4",
                    "midi": 69,
                    "time": 82.8974999999999,
                    "velocity": 0.4409448818897638,
                    "duration": 0.19999999999998863
                },
                {
                    "name": "A3",
                    "midi": 57,
                    "time": 82.90374999999989,
                    "velocity": 0.3700787401574803,
                    "duration": 0.19999999999998863
                },
                {
                    "name": "A#4",
                    "midi": 70,
                    "time": 83.09749999999988,
                    "velocity": 0.3937007874015748,
                    "duration": 0.19999999999998863
                },
                {
                    "name": "A#3",
                    "midi": 58,
                    "time": 83.09874999999988,
                    "velocity": 0.33070866141732286,
                    "duration": 0.19999999999998863
                },
                {
                    "name": "G4",
                    "midi": 67,
                    "time": 83.29999999999987,
                    "velocity": 0.4409448818897638,
                    "duration": 0.20000000000000284
                },
                {
                    "name": "G3",
                    "midi": 55,
                    "time": 83.30124999999987,
                    "velocity": 0.3700787401574803,
                    "duration": 0.20000000000000284
                },
                {
                    "name": "A#3",
                    "midi": 58,
                    "time": 83.49874999999987,
                    "velocity": 0.33070866141732286,
                    "duration": 0.20000000000000284
                },
                {
                    "name": "A#4",
                    "midi": 70,
                    "time": 83.49999999999987,
                    "velocity": 0.3858267716535433,
                    "duration": 0.20000000000000284
                },
                {
                    "name": "F3",
                    "midi": 53,
                    "time": 83.69749999999988,
                    "velocity": 0.3700787401574803,
                    "duration": 0.20000000000000284
                },
                {
                    "name": "F4",
                    "midi": 65,
                    "time": 83.70124999999987,
                    "velocity": 0.4409448818897638,
                    "duration": 0.20000000000000284
                },
                {
                    "name": "G4",
                    "midi": 67,
                    "time": 83.89999999999988,
                    "velocity": 0.3937007874015748,
                    "duration": 0.20000000000000284
                },
                {
                    "name": "G3",
                    "midi": 55,
                    "time": 83.89999999999988,
                    "velocity": 0.33070866141732286,
                    "duration": 0.20000000000000284
                },
                {
                    "name": "E4",
                    "midi": 64,
                    "time": 84.09749999999988,
                    "velocity": 0.4409448818897638,
                    "duration": 0.20000000000000284
                },
                {
                    "name": "E3",
                    "midi": 52,
                    "time": 84.09999999999988,
                    "velocity": 0.3700787401574803,
                    "duration": 0.20000000000000284
                },
                {
                    "name": "G4",
                    "midi": 67,
                    "time": 84.29749999999989,
                    "velocity": 0.3937007874015748,
                    "duration": 0.20000000000000284
                },
                {
                    "name": "G3",
                    "midi": 55,
                    "time": 84.29749999999989,
                    "velocity": 0.33070866141732286,
                    "duration": 0.20000000000000284
                },
                {
                    "name": "D3",
                    "midi": 50,
                    "time": 84.49874999999989,
                    "velocity": 0.3779527559055118,
                    "duration": 0.20000000000000284
                },
                {
                    "name": "D4",
                    "midi": 62,
                    "time": 84.50249999999988,
                    "velocity": 0.44881889763779526,
                    "duration": 0.20000000000000284
                },
                {
                    "name": "E3",
                    "midi": 52,
                    "time": 84.70374999999989,
                    "velocity": 0.33858267716535434,
                    "duration": 0.20000000000000284
                },
                {
                    "name": "E4",
                    "midi": 64,
                    "time": 84.70374999999989,
                    "velocity": 0.4015748031496063,
                    "duration": 0.20000000000000284
                },
                {
                    "name": "C#3",
                    "midi": 49,
                    "time": 84.89999999999989,
                    "velocity": 0.3700787401574803,
                    "duration": 0.20000000000000284
                },
                {
                    "name": "C#4",
                    "midi": 61,
                    "time": 84.90374999999989,
                    "velocity": 0.4409448818897638,
                    "duration": 0.20000000000000284
                },
                {
                    "name": "E3",
                    "midi": 52,
                    "time": 85.0999999999999,
                    "velocity": 0.33070866141732286,
                    "duration": 0.19999999999998863
                },
                {
                    "name": "E4",
                    "midi": 64,
                    "time": 85.0999999999999,
                    "velocity": 0.3937007874015748,
                    "duration": 0.19999999999998863
                },
                {
                    "name": "A#2",
                    "midi": 46,
                    "time": 85.29874999999988,
                    "velocity": 0.36220472440944884,
                    "duration": 0.20000000000000284
                },
                {
                    "name": "A#3",
                    "midi": 58,
                    "time": 85.29999999999988,
                    "velocity": 0.4330708661417323,
                    "duration": 0.20000000000000284
                },
                {
                    "name": "C#3",
                    "midi": 49,
                    "time": 85.49874999999989,
                    "velocity": 0.3228346456692913,
                    "duration": 0.20000000000000284
                },
                {
                    "name": "C#4",
                    "midi": 61,
                    "time": 85.49999999999989,
                    "velocity": 0.3858267716535433,
                    "duration": 0.20000000000000284
                },
                {
                    "name": "A2",
                    "midi": 45,
                    "time": 85.69999999999989,
                    "velocity": 0.3543307086614173,
                    "duration": 0.20000000000000284
                },
                {
                    "name": "A3",
                    "midi": 57,
                    "time": 85.69999999999989,
                    "velocity": 0.41732283464566927,
                    "duration": 0.20000000000000284
                },
                {
                    "name": "A#2",
                    "midi": 46,
                    "time": 85.8987499999999,
                    "velocity": 0.30708661417322836,
                    "duration": 0.19999999999998863
                },
                {
                    "name": "A#3",
                    "midi": 58,
                    "time": 85.90249999999989,
                    "velocity": 0.3700787401574803,
                    "duration": 0.19999999999998863
                },
                {
                    "name": "G3",
                    "midi": 55,
                    "time": 86.09749999999988,
                    "velocity": 0.4015748031496063,
                    "duration": 0.19999999999998863
                },
                {
                    "name": "G2",
                    "midi": 43,
                    "time": 86.10374999999988,
                    "velocity": 0.33858267716535434,
                    "duration": 0.19999999999998863
                },
                {
                    "name": "A#2",
                    "midi": 46,
                    "time": 86.29749999999987,
                    "velocity": 0.30708661417322836,
                    "duration": 0.19999999999998863
                },
                {
                    "name": "A#3",
                    "midi": 58,
                    "time": 86.29749999999987,
                    "velocity": 0.36220472440944884,
                    "duration": 0.19999999999998863
                },
                {
                    "name": "F3",
                    "midi": 53,
                    "time": 86.49874999999986,
                    "velocity": 0.4251968503937008,
                    "duration": 0.20000000000000284
                },
                {
                    "name": "F2",
                    "midi": 41,
                    "time": 86.50124999999986,
                    "velocity": 0.36220472440944884,
                    "duration": 0.20000000000000284
                },
                {
                    "name": "G2",
                    "midi": 43,
                    "time": 86.69874999999986,
                    "velocity": 0.31496062992125984,
                    "duration": 0.20000000000000284
                },
                {
                    "name": "G3",
                    "midi": 55,
                    "time": 86.69874999999986,
                    "velocity": 0.3779527559055118,
                    "duration": 0.20000000000000284
                },
                {
                    "name": "E3",
                    "midi": 52,
                    "time": 86.90249999999986,
                    "velocity": 0.4094488188976378,
                    "duration": 0.20000000000000284
                },
                {
                    "name": "E2",
                    "midi": 40,
                    "time": 86.90249999999986,
                    "velocity": 0.3464566929133858,
                    "duration": 0.20000000000000284
                },
                {
                    "name": "G2",
                    "midi": 43,
                    "time": 87.09874999999987,
                    "velocity": 0.31496062992125984,
                    "duration": 0.19999999999998863
                },
                {
                    "name": "G3",
                    "midi": 55,
                    "time": 87.10374999999986,
                    "velocity": 0.3779527559055118,
                    "duration": 0.19999999999998863
                },
                {
                    "name": "D2",
                    "midi": 38,
                    "time": 87.29999999999986,
                    "velocity": 0.3464566929133858,
                    "duration": 0.19999999999998863
                },
                {
                    "name": "D3",
                    "midi": 50,
                    "time": 87.30124999999985,
                    "velocity": 0.41732283464566927,
                    "duration": 0.19999999999998863
                },
                {
                    "name": "E3",
                    "midi": 52,
                    "time": 87.49749999999985,
                    "velocity": 0.3858267716535433,
                    "duration": 0.20000000000000284
                },
                {
                    "name": "E2",
                    "midi": 40,
                    "time": 87.49874999999984,
                    "velocity": 0.3228346456692913,
                    "duration": 0.20000000000000284
                },
                {
                    "name": "C#2",
                    "midi": 37,
                    "time": 87.69999999999985,
                    "velocity": 0.3464566929133858,
                    "duration": 0.19999999999998863
                },
                {
                    "name": "C#3",
                    "midi": 49,
                    "time": 87.70249999999984,
                    "velocity": 0.41732283464566927,
                    "duration": 0.19999999999998863
                },
                {
                    "name": "E3",
                    "midi": 52,
                    "time": 87.89749999999984,
                    "velocity": 0.3779527559055118,
                    "duration": 0.19999999999998863
                },
                {
                    "name": "E2",
                    "midi": 40,
                    "time": 87.90124999999983,
                    "velocity": 0.31496062992125984,
                    "duration": 0.19999999999998863
                },
                {
                    "name": "A#1",
                    "midi": 34,
                    "time": 88.09749999999983,
                    "velocity": 0.3543307086614173,
                    "duration": 0.20000000000000284
                },
                {
                    "name": "A#2",
                    "midi": 46,
                    "time": 88.09999999999982,
                    "velocity": 0.41732283464566927,
                    "duration": 0.20000000000000284
                },
                {
                    "name": "C#2",
                    "midi": 37,
                    "time": 88.29749999999983,
                    "velocity": 0.33070866141732286,
                    "duration": 0.20000000000000284
                },
                {
                    "name": "C#3",
                    "midi": 49,
                    "time": 88.29999999999983,
                    "velocity": 0.3858267716535433,
                    "duration": 0.20000000000000284
                },
                {
                    "name": "A1",
                    "midi": 33,
                    "time": 88.49999999999983,
                    "velocity": 0.36220472440944884,
                    "duration": 0.20000000000000284
                },
                {
                    "name": "A2",
                    "midi": 45,
                    "time": 88.50249999999983,
                    "velocity": 0.4251968503937008,
                    "duration": 0.20000000000000284
                },
                {
                    "name": "A#1",
                    "midi": 34,
                    "time": 88.69874999999983,
                    "velocity": 0.33070866141732286,
                    "duration": 0.19999999999998863
                },
                {
                    "name": "A#2",
                    "midi": 46,
                    "time": 88.70374999999983,
                    "velocity": 0.3937007874015748,
                    "duration": 0.19999999999998863
                },
                {
                    "name": "G#2",
                    "midi": 44,
                    "time": 88.89874999999982,
                    "velocity": 0.4330708661417323,
                    "duration": 0.19999999999998863
                },
                {
                    "name": "G#1",
                    "midi": 32,
                    "time": 88.89999999999982,
                    "velocity": 0.36220472440944884,
                    "duration": 0.19999999999998863
                },
                {
                    "name": "A1",
                    "midi": 33,
                    "time": 89.09999999999981,
                    "velocity": 0.33070866141732286,
                    "duration": 0.20000000000000284
                },
                {
                    "name": "A2",
                    "midi": 45,
                    "time": 89.10249999999981,
                    "velocity": 0.3858267716535433,
                    "duration": 0.20000000000000284
                },
                {
                    "name": "G2",
                    "midi": 43,
                    "time": 89.29874999999981,
                    "velocity": 0.4330708661417323,
                    "duration": 0.20000000000000284
                },
                {
                    "name": "G1",
                    "midi": 31,
                    "time": 89.29999999999981,
                    "velocity": 0.36220472440944884,
                    "duration": 0.20000000000000284
                },
                {
                    "name": "A2",
                    "midi": 45,
                    "time": 89.50249999999981,
                    "velocity": 0.3937007874015748,
                    "duration": 0.19999999999998863
                },
                {
                    "name": "A1",
                    "midi": 33,
                    "time": 89.50374999999981,
                    "velocity": 0.33070866141732286,
                    "duration": 0.19999999999998863
                },
                {
                    "name": "F#1",
                    "midi": 30,
                    "time": 89.6974999999998,
                    "velocity": 0.36220472440944884,
                    "duration": 0.19999999999998863
                },
                {
                    "name": "F#2",
                    "midi": 42,
                    "time": 89.7037499999998,
                    "velocity": 0.4330708661417323,
                    "duration": 0.19999999999998863
                },
                {
                    "name": "A1",
                    "midi": 33,
                    "time": 89.89999999999979,
                    "velocity": 0.33858267716535434,
                    "duration": 0.20000000000000284
                },
                {
                    "name": "A2",
                    "midi": 45,
                    "time": 89.89999999999979,
                    "velocity": 0.4015748031496063,
                    "duration": 0.20000000000000284
                },
                {
                    "name": "F1",
                    "midi": 29,
                    "time": 90.0999999999998,
                    "velocity": 0.3700787401574803,
                    "duration": 0.20000000000000284
                },
                {
                    "name": "F2",
                    "midi": 41,
                    "time": 90.0999999999998,
                    "velocity": 0.4409448818897638,
                    "duration": 0.20000000000000284
                },
                {
                    "name": "A2",
                    "midi": 45,
                    "time": 90.2974999999998,
                    "velocity": 0.3937007874015748,
                    "duration": 0.20000000000000284
                },
                {
                    "name": "A1",
                    "midi": 33,
                    "time": 90.2987499999998,
                    "velocity": 0.33070866141732286,
                    "duration": 0.20000000000000284
                },
                {
                    "name": "E1",
                    "midi": 28,
                    "time": 90.4987499999998,
                    "velocity": 0.3700787401574803,
                    "duration": 0.19999999999998863
                },
                {
                    "name": "E2",
                    "midi": 40,
                    "time": 90.5024999999998,
                    "velocity": 0.4409448818897638,
                    "duration": 0.19999999999998863
                },
                {
                    "name": "A2",
                    "midi": 45,
                    "time": 90.69749999999979,
                    "velocity": 0.4015748031496063,
                    "duration": 0.19999999999998863
                },
                {
                    "name": "A1",
                    "midi": 33,
                    "time": 90.69999999999979,
                    "velocity": 0.33858267716535434,
                    "duration": 0.19999999999998863
                },
                {
                    "name": "D#1",
                    "midi": 27,
                    "time": 90.90249999999978,
                    "velocity": 0.3700787401574803,
                    "duration": 0.29999999999999716
                },
                {
                    "name": "D#2",
                    "midi": 39,
                    "time": 90.90374999999977,
                    "velocity": 0.4409448818897638,
                    "duration": 0.29999999999999716
                },
                {
                    "name": "A2",
                    "midi": 45,
                    "time": 91.19749999999978,
                    "velocity": 0.3858267716535433,
                    "duration": 0.29999999999999716
                },
                {
                    "name": "A1",
                    "midi": 33,
                    "time": 91.19999999999978,
                    "velocity": 0.33070866141732286,
                    "duration": 0.29999999999999716
                },
                {
                    "name": "C1",
                    "midi": 24,
                    "time": 91.49749999999977,
                    "velocity": 0.3779527559055118,
                    "duration": 0.29999999999999716
                },
                {
                    "name": "C2",
                    "midi": 36,
                    "time": 91.49874999999977,
                    "velocity": 0.44881889763779526,
                    "duration": 0.29999999999999716
                },
                {
                    "name": "A2",
                    "midi": 45,
                    "time": 91.79999999999977,
                    "velocity": 0.4094488188976378,
                    "duration": 0.29999999999999716
                },
                {
                    "name": "A1",
                    "midi": 33,
                    "time": 91.80249999999977,
                    "velocity": 0.3464566929133858,
                    "duration": 0.29999999999999716
                },
                {
                    "name": "C#1",
                    "midi": 25,
                    "time": 92.09874999999977,
                    "velocity": 0.3858267716535433,
                    "duration": 0.29999999999999716
                },
                {
                    "name": "C#2",
                    "midi": 37,
                    "time": 92.10249999999976,
                    "velocity": 0.4566929133858268,
                    "duration": 0.29999999999999716
                },
                {
                    "name": "A1",
                    "midi": 33,
                    "time": 92.40124999999976,
                    "velocity": 0.3543307086614173,
                    "duration": 0.29999999999999716
                },
                {
                    "name": "A2",
                    "midi": 45,
                    "time": 92.40249999999976,
                    "velocity": 0.41732283464566927,
                    "duration": 0.29999999999999716
                },
                {
                    "name": "A2",
                    "midi": 45,
                    "time": 92.69999999999976,
                    "velocity": 0.4645669291338583,
                    "duration": 0.20000000000000284
                },
                {
                    "name": "D3",
                    "midi": 50,
                    "time": 92.69999999999976,
                    "velocity": 0.5826771653543307,
                    "duration": 0.20000000000000284
                },
                {
                    "name": "D2",
                    "midi": 38,
                    "time": 92.69999999999976,
                    "velocity": 0.4645669291338583,
                    "duration": 0.20000000000000284
                },
                {
                    "name": "E3",
                    "midi": 52,
                    "time": 92.89999999999976,
                    "velocity": 0.3779527559055118,
                    "duration": 0.20000000000000284
                },
                {
                    "name": "G#3",
                    "midi": 56,
                    "time": 92.89999999999976,
                    "velocity": 0.47244094488188976,
                    "duration": 0.20000000000000284
                },
                {
                    "name": "A3",
                    "midi": 57,
                    "time": 93.09999999999977,
                    "velocity": 0.49606299212598426,
                    "duration": 0.20000000000000284
                },
                {
                    "name": "F3",
                    "midi": 53,
                    "time": 93.09999999999977,
                    "velocity": 0.3937007874015748,
                    "duration": 0.20000000000000284
                },
                {
                    "name": "D2",
                    "midi": 38,
                    "time": 93.69999999999978,
                    "velocity": 0.5905511811023622,
                    "duration": 0.4000000000000057
                },
                {
                    "name": "A2",
                    "midi": 45,
                    "time": 93.89999999999978,
                    "velocity": 0.4881889763779528,
                    "duration": 0.20000000000000284
                },
                {
                    "name": "D3",
                    "midi": 50,
                    "time": 93.89999999999978,
                    "velocity": 0.6141732283464567,
                    "duration": 0.20000000000000284
                },
                {
                    "name": "G#3",
                    "midi": 56,
                    "time": 94.09999999999978,
                    "velocity": 0.47244094488188976,
                    "duration": 0.20000000000000284
                },
                {
                    "name": "E3",
                    "midi": 52,
                    "time": 94.09999999999978,
                    "velocity": 0.3779527559055118,
                    "duration": 0.20000000000000284
                },
                {
                    "name": "A3",
                    "midi": 57,
                    "time": 94.29999999999978,
                    "velocity": 0.49606299212598426,
                    "duration": 0.20000000000000284
                },
                {
                    "name": "F3",
                    "midi": 53,
                    "time": 94.29999999999978,
                    "velocity": 0.3937007874015748,
                    "duration": 0.20000000000000284
                },
                {
                    "name": "D2",
                    "midi": 38,
                    "time": 94.89999999999979,
                    "velocity": 0.5905511811023622,
                    "duration": 0.4000000000000057
                },
                {
                    "name": "G2",
                    "midi": 43,
                    "time": 95.0999999999998,
                    "velocity": 0.49606299212598426,
                    "duration": 0.20000000000000284
                },
                {
                    "name": "D3",
                    "midi": 50,
                    "time": 95.0999999999998,
                    "velocity": 0.6220472440944882,
                    "duration": 0.20000000000000284
                },
                {
                    "name": "F#3",
                    "midi": 54,
                    "time": 95.2999999999998,
                    "velocity": 0.3779527559055118,
                    "duration": 0.20000000000000284
                },
                {
                    "name": "A3",
                    "midi": 57,
                    "time": 95.2999999999998,
                    "velocity": 0.47244094488188976,
                    "duration": 0.20000000000000284
                },
                {
                    "name": "G3",
                    "midi": 55,
                    "time": 95.4999999999998,
                    "velocity": 0.3937007874015748,
                    "duration": 0.20000000000000284
                },
                {
                    "name": "A#3",
                    "midi": 58,
                    "time": 95.4999999999998,
                    "velocity": 0.49606299212598426,
                    "duration": 0.20000000000000284
                },
                {
                    "name": "D2",
                    "midi": 38,
                    "time": 96.09999999999981,
                    "velocity": 0.5905511811023622,
                    "duration": 0.4000000000000057
                },
                {
                    "name": "D3",
                    "midi": 50,
                    "time": 96.29999999999981,
                    "velocity": 0.5905511811023622,
                    "duration": 0.20000000000000284
                },
                {
                    "name": "G2",
                    "midi": 43,
                    "time": 96.29999999999981,
                    "velocity": 0.4645669291338583,
                    "duration": 0.20000000000000284
                },
                {
                    "name": "F#3",
                    "midi": 54,
                    "time": 96.49999999999982,
                    "velocity": 0.3779527559055118,
                    "duration": 0.20000000000000284
                },
                {
                    "name": "A3",
                    "midi": 57,
                    "time": 96.49999999999982,
                    "velocity": 0.47244094488188976,
                    "duration": 0.20000000000000284
                },
                {
                    "name": "A#3",
                    "midi": 58,
                    "time": 96.69999999999982,
                    "velocity": 0.49606299212598426,
                    "duration": 0.20000000000000284
                },
                {
                    "name": "G3",
                    "midi": 55,
                    "time": 96.69999999999982,
                    "velocity": 0.3937007874015748,
                    "duration": 0.20000000000000284
                },
                {
                    "name": "C#2",
                    "midi": 37,
                    "time": 97.29999999999983,
                    "velocity": 0.5905511811023622,
                    "duration": 0.4000000000000057
                },
                {
                    "name": "A2",
                    "midi": 45,
                    "time": 97.49999999999983,
                    "velocity": 0.4645669291338583,
                    "duration": 0.20000000000000284
                },
                {
                    "name": "C#3",
                    "midi": 49,
                    "time": 97.49999999999983,
                    "velocity": 0.5905511811023622,
                    "duration": 0.20000000000000284
                },
                {
                    "name": "F#3",
                    "midi": 54,
                    "time": 97.69999999999983,
                    "velocity": 0.47244094488188976,
                    "duration": 0.20000000000000284
                },
                {
                    "name": "D#3",
                    "midi": 51,
                    "time": 97.69999999999983,
                    "velocity": 0.3779527559055118,
                    "duration": 0.20000000000000284
                },
                {
                    "name": "G3",
                    "midi": 55,
                    "time": 97.89999999999984,
                    "velocity": 0.49606299212598426,
                    "duration": 0.20000000000000284
                },
                {
                    "name": "E3",
                    "midi": 52,
                    "time": 97.89999999999984,
                    "velocity": 0.3937007874015748,
                    "duration": 0.20000000000000284
                },
                {
                    "name": "A1",
                    "midi": 33,
                    "time": 98.49999999999984,
                    "velocity": 0.5905511811023622,
                    "duration": 0.20000000000000284
                },
                {
                    "name": "C#2",
                    "midi": 37,
                    "time": 98.69999999999985,
                    "velocity": 0.5354330708661418,
                    "duration": 0.20000000000000284
                },
                {
                    "name": "A2",
                    "midi": 45,
                    "time": 98.69999999999985,
                    "velocity": 0.5905511811023622,
                    "duration": 0.20000000000000284
                },
                {
                    "name": "D#3",
                    "midi": 51,
                    "time": 98.89999999999985,
                    "velocity": 0.3700787401574803,
                    "duration": 0.20000000000000284
                },
                {
                    "name": "F#3",
                    "midi": 54,
                    "time": 98.89999999999985,
                    "velocity": 0.4645669291338583,
                    "duration": 0.20000000000000284
                },
                {
                    "name": "G3",
                    "midi": 55,
                    "time": 99.09999999999985,
                    "velocity": 0.48031496062992124,
                    "duration": 0.20000000000000284
                },
                {
                    "name": "E3",
                    "midi": 52,
                    "time": 99.09999999999985,
                    "velocity": 0.3858267716535433,
                    "duration": 0.20000000000000284
                },
                {
                    "name": "D2",
                    "midi": 38,
                    "time": 99.69999999999986,
                    "velocity": 0.5511811023622047,
                    "duration": 0.3999999999999915
                },
                {
                    "name": "D3",
                    "midi": 50,
                    "time": 99.89999999999986,
                    "velocity": 0.5433070866141733,
                    "duration": 0.19999999999998863
                },
                {
                    "name": "A2",
                    "midi": 45,
                    "time": 99.90499999999986,
                    "velocity": 0.4645669291338583,
                    "duration": 0.19999999999998863
                },
                {
                    "name": "G#3",
                    "midi": 56,
                    "time": 100.09999999999985,
                    "velocity": 0.3937007874015748,
                    "duration": 0.19999999999998863
                },
                {
                    "name": "E3",
                    "midi": 52,
                    "time": 100.09999999999985,
                    "velocity": 0.30708661417322836,
                    "duration": 0.19999999999998863
                },
                {
                    "name": "A3",
                    "midi": 57,
                    "time": 100.29999999999984,
                    "velocity": 0.3937007874015748,
                    "duration": 0.20000000000000284
                },
                {
                    "name": "F3",
                    "midi": 53,
                    "time": 100.29999999999984,
                    "velocity": 0.31496062992125984,
                    "duration": 0.20000000000000284
                },
                {
                    "name": "D2",
                    "midi": 38,
                    "time": 100.89999999999985,
                    "velocity": 0.49606299212598426,
                    "duration": 0.4000000000000057
                },
                {
                    "name": "D3",
                    "midi": 50,
                    "time": 101.09999999999985,
                    "velocity": 0.4566929133858268,
                    "duration": 0.20000000000000284
                },
                {
                    "name": "A2",
                    "midi": 45,
                    "time": 101.09999999999985,
                    "velocity": 0.36220472440944884,
                    "duration": 0.20000000000000284
                },
                {
                    "name": "E3",
                    "midi": 52,
                    "time": 101.29999999999986,
                    "velocity": 0.2755905511811024,
                    "duration": 0.20000000000000284
                },
                {
                    "name": "G#3",
                    "midi": 56,
                    "time": 101.29999999999986,
                    "velocity": 0.3543307086614173,
                    "duration": 0.20000000000000284
                },
                {
                    "name": "F3",
                    "midi": 53,
                    "time": 101.49999999999986,
                    "velocity": 0.2755905511811024,
                    "duration": 0.20000000000000284
                },
                {
                    "name": "A3",
                    "midi": 57,
                    "time": 101.49999999999986,
                    "velocity": 0.3543307086614173,
                    "duration": 0.20000000000000284
                },
                {
                    "name": "C2",
                    "midi": 36,
                    "time": 102.09999999999987,
                    "velocity": 0.44881889763779526,
                    "duration": 0.4000000000000057
                },
                {
                    "name": "C3",
                    "midi": 48,
                    "time": 102.29999999999987,
                    "velocity": 0.44881889763779526,
                    "duration": 0.20000000000000284
                },
                {
                    "name": "G2",
                    "midi": 43,
                    "time": 102.29999999999987,
                    "velocity": 0.3543307086614173,
                    "duration": 0.20000000000000284
                },
                {
                    "name": "D#3",
                    "midi": 51,
                    "time": 102.49999999999987,
                    "velocity": 0.29133858267716534,
                    "duration": 0.20000000000000284
                },
                {
                    "name": "F#3",
                    "midi": 54,
                    "time": 102.49999999999987,
                    "velocity": 0.36220472440944884,
                    "duration": 0.20000000000000284
                },
                {
                    "name": "G3",
                    "midi": 55,
                    "time": 102.69999999999987,
                    "velocity": 0.3779527559055118,
                    "duration": 0.20000000000000284
                },
                {
                    "name": "E3",
                    "midi": 52,
                    "time": 102.69999999999987,
                    "velocity": 0.2992125984251969,
                    "duration": 0.20000000000000284
                },
                {
                    "name": "E2",
                    "midi": 40,
                    "time": 103.29999999999988,
                    "velocity": 0.44881889763779526,
                    "duration": 0.4000000000000057
                },
                {
                    "name": "E3",
                    "midi": 52,
                    "time": 103.49999999999989,
                    "velocity": 0.44881889763779526,
                    "duration": 0.20000000000000284
                },
                {
                    "name": "C3",
                    "midi": 48,
                    "time": 103.49999999999989,
                    "velocity": 0.4330708661417323,
                    "duration": 0.20000000000000284
                },
                {
                    "name": "B3",
                    "midi": 59,
                    "time": 103.69999999999989,
                    "velocity": 0.36220472440944884,
                    "duration": 0.20000000000000284
                },
                {
                    "name": "F#3",
                    "midi": 54,
                    "time": 103.69999999999989,
                    "velocity": 0.29133858267716534,
                    "duration": 0.20000000000000284
                },
                {
                    "name": "C4",
                    "midi": 60,
                    "time": 103.89999999999989,
                    "velocity": 0.3779527559055118,
                    "duration": 0.20000000000000284
                },
                {
                    "name": "G3",
                    "midi": 55,
                    "time": 103.89999999999989,
                    "velocity": 0.2992125984251969,
                    "duration": 0.20000000000000284
                },
                {
                    "name": "F2",
                    "midi": 41,
                    "time": 104.4999999999999,
                    "velocity": 0.44881889763779526,
                    "duration": 0.4000000000000057
                },
                {
                    "name": "F3",
                    "midi": 53,
                    "time": 104.6999999999999,
                    "velocity": 0.44881889763779526,
                    "duration": 0.20000000000000284
                },
                {
                    "name": "C3",
                    "midi": 48,
                    "time": 104.6999999999999,
                    "velocity": 0.4330708661417323,
                    "duration": 0.20000000000000284
                },
                {
                    "name": "B3",
                    "midi": 59,
                    "time": 104.8999999999999,
                    "velocity": 0.33858267716535434,
                    "duration": 0.20000000000000284
                },
                {
                    "name": "G3",
                    "midi": 55,
                    "time": 104.8999999999999,
                    "velocity": 0.25196850393700787,
                    "duration": 0.20000000000000284
                },
                {
                    "name": "G#3",
                    "midi": 56,
                    "time": 105.09999999999991,
                    "velocity": 0.2677165354330709,
                    "duration": 0.20000000000000284
                },
                {
                    "name": "C4",
                    "midi": 60,
                    "time": 105.09999999999991,
                    "velocity": 0.3464566929133858,
                    "duration": 0.20000000000000284
                },
                {
                    "name": "F2",
                    "midi": 41,
                    "time": 105.69999999999992,
                    "velocity": 0.44881889763779526,
                    "duration": 0.4000000000000057
                },
                {
                    "name": "F3",
                    "midi": 53,
                    "time": 105.89999999999992,
                    "velocity": 0.4251968503937008,
                    "duration": 0.20000000000000284
                },
                {
                    "name": "C3",
                    "midi": 48,
                    "time": 105.89999999999992,
                    "velocity": 0.33070866141732286,
                    "duration": 0.20000000000000284
                },
                {
                    "name": "B3",
                    "midi": 59,
                    "time": 106.09999999999992,
                    "velocity": 0.33070866141732286,
                    "duration": 0.20000000000000284
                },
                {
                    "name": "G3",
                    "midi": 55,
                    "time": 106.09999999999992,
                    "velocity": 0.25196850393700787,
                    "duration": 0.20000000000000284
                },
                {
                    "name": "C4",
                    "midi": 60,
                    "time": 106.29999999999993,
                    "velocity": 0.33858267716535434,
                    "duration": 0.20000000000000284
                },
                {
                    "name": "G#3",
                    "midi": 56,
                    "time": 106.29999999999993,
                    "velocity": 0.25984251968503935,
                    "duration": 0.20000000000000284
                },
                {
                    "name": "D#2",
                    "midi": 39,
                    "time": 106.89999999999993,
                    "velocity": 0.44881889763779526,
                    "duration": 0.4000000000000057
                },
                {
                    "name": "D#3",
                    "midi": 51,
                    "time": 107.09999999999994,
                    "velocity": 0.47244094488188976,
                    "duration": 0.20000000000000284
                },
                {
                    "name": "A#2",
                    "midi": 46,
                    "time": 107.09999999999994,
                    "velocity": 0.3779527559055118,
                    "duration": 0.20000000000000284
                },
                {
                    "name": "F#3",
                    "midi": 54,
                    "time": 107.29999999999994,
                    "velocity": 0.2755905511811024,
                    "duration": 0.20000000000000284
                },
                {
                    "name": "A3",
                    "midi": 57,
                    "time": 107.29999999999994,
                    "velocity": 0.3464566929133858,
                    "duration": 0.20000000000000284
                },
                {
                    "name": "A#3",
                    "midi": 58,
                    "time": 107.49999999999994,
                    "velocity": 0.3543307086614173,
                    "duration": 0.20000000000000284
                },
                {
                    "name": "G3",
                    "midi": 55,
                    "time": 107.49999999999994,
                    "velocity": 0.28346456692913385,
                    "duration": 0.20000000000000284
                },
                {
                    "name": "G2",
                    "midi": 43,
                    "time": 108.09999999999995,
                    "velocity": 0.48031496062992124,
                    "duration": 0.4000000000000057
                },
                {
                    "name": "D#3",
                    "midi": 51,
                    "time": 108.29999999999995,
                    "velocity": 0.4645669291338583,
                    "duration": 0.20000000000000284
                },
                {
                    "name": "G3",
                    "midi": 55,
                    "time": 108.29999999999995,
                    "velocity": 0.48031496062992124,
                    "duration": 0.20000000000000284
                },
                {
                    "name": "D4",
                    "midi": 62,
                    "time": 108.49999999999996,
                    "velocity": 0.3464566929133858,
                    "duration": 0.20000000000000284
                },
                {
                    "name": "A3",
                    "midi": 57,
                    "time": 108.49999999999996,
                    "velocity": 0.2677165354330709,
                    "duration": 0.20000000000000284
                },
                {
                    "name": "D#4",
                    "midi": 63,
                    "time": 108.69999999999996,
                    "velocity": 0.36220472440944884,
                    "duration": 0.20000000000000284
                },
                {
                    "name": "A#3",
                    "midi": 58,
                    "time": 108.69999999999996,
                    "velocity": 0.29133858267716534,
                    "duration": 0.20000000000000284
                },
                {
                    "name": "G#2",
                    "midi": 44,
                    "time": 109.29999999999997,
                    "velocity": 0.48031496062992124,
                    "duration": 0.4000000000000057
                },
                {
                    "name": "D#3",
                    "midi": 51,
                    "time": 109.49999999999997,
                    "velocity": 0.4645669291338583,
                    "duration": 0.20000000000000284
                },
                {
                    "name": "G#3",
                    "midi": 56,
                    "time": 109.49999999999997,
                    "velocity": 0.5039370078740157,
                    "duration": 0.20000000000000284
                },
                {
                    "name": "B3",
                    "midi": 59,
                    "time": 109.69999999999997,
                    "velocity": 0.2755905511811024,
                    "duration": 0.20000000000000284
                },
                {
                    "name": "D4",
                    "midi": 62,
                    "time": 109.69999999999997,
                    "velocity": 0.3700787401574803,
                    "duration": 0.20000000000000284
                },
                {
                    "name": "D#4",
                    "midi": 63,
                    "time": 109.89999999999998,
                    "velocity": 0.3779527559055118,
                    "duration": 0.20000000000000284
                },
                {
                    "name": "C4",
                    "midi": 60,
                    "time": 109.89999999999998,
                    "velocity": 0.29133858267716534,
                    "duration": 0.20000000000000284
                },
                {
                    "name": "G#2",
                    "midi": 44,
                    "time": 110.49999999999999,
                    "velocity": 0.5039370078740157,
                    "duration": 0.4000000000000057
                },
                {
                    "name": "G#3",
                    "midi": 56,
                    "time": 110.69999999999999,
                    "velocity": 0.4645669291338583,
                    "duration": 0.20000000000000284
                },
                {
                    "name": "D#3",
                    "midi": 51,
                    "time": 110.69999999999999,
                    "velocity": 0.36220472440944884,
                    "duration": 0.20000000000000284
                },
                {
                    "name": "B3",
                    "midi": 59,
                    "time": 110.89999999999999,
                    "velocity": 0.2755905511811024,
                    "duration": 0.20000000000000284
                },
                {
                    "name": "D4",
                    "midi": 62,
                    "time": 110.89999999999999,
                    "velocity": 0.36220472440944884,
                    "duration": 0.20000000000000284
                },
                {
                    "name": "D#4",
                    "midi": 63,
                    "time": 111.1,
                    "velocity": 0.3700787401574803,
                    "duration": 0.20000000000000284
                },
                {
                    "name": "C4",
                    "midi": 60,
                    "time": 111.1,
                    "velocity": 0.28346456692913385,
                    "duration": 0.20000000000000284
                },
                {
                    "name": "G#2",
                    "midi": 44,
                    "time": 111.7,
                    "velocity": 0.5039370078740157,
                    "duration": 0.4000000000000057
                },
                {
                    "name": "D3",
                    "midi": 50,
                    "time": 111.9,
                    "velocity": 0.3700787401574803,
                    "duration": 0.20000000000000284
                },
                {
                    "name": "G#3",
                    "midi": 56,
                    "time": 111.9,
                    "velocity": 0.4645669291338583,
                    "duration": 0.20000000000000284
                },
                {
                    "name": "E4",
                    "midi": 64,
                    "time": 112.10000000000001,
                    "velocity": 0.3779527559055118,
                    "duration": 0.20000000000000284
                },
                {
                    "name": "C#4",
                    "midi": 61,
                    "time": 112.10000000000001,
                    "velocity": 0.2992125984251969,
                    "duration": 0.20000000000000284
                },
                {
                    "name": "F4",
                    "midi": 65,
                    "time": 112.30000000000001,
                    "velocity": 0.3937007874015748,
                    "duration": 0.20000000000000284
                },
                {
                    "name": "D4",
                    "midi": 62,
                    "time": 112.30000000000001,
                    "velocity": 0.30708661417322836,
                    "duration": 0.20000000000000284
                },
                {
                    "name": "G#2",
                    "midi": 44,
                    "time": 112.90000000000002,
                    "velocity": 0.4645669291338583,
                    "duration": 0.4000000000000057
                },
                {
                    "name": "G#3",
                    "midi": 56,
                    "time": 113.10000000000002,
                    "velocity": 0.4645669291338583,
                    "duration": 0.20000000000000284
                },
                {
                    "name": "D3",
                    "midi": 50,
                    "time": 113.10000000000002,
                    "velocity": 0.44881889763779526,
                    "duration": 0.20000000000000284
                },
                {
                    "name": "C#4",
                    "midi": 61,
                    "time": 113.30000000000003,
                    "velocity": 0.30708661417322836,
                    "duration": 0.20000000000000284
                },
                {
                    "name": "E4",
                    "midi": 64,
                    "time": 113.30000000000003,
                    "velocity": 0.3779527559055118,
                    "duration": 0.20000000000000284
                },
                {
                    "name": "F4",
                    "midi": 65,
                    "time": 113.50000000000003,
                    "velocity": 0.3937007874015748,
                    "duration": 0.20000000000000284
                },
                {
                    "name": "D4",
                    "midi": 62,
                    "time": 113.50000000000003,
                    "velocity": 0.31496062992125984,
                    "duration": 0.20000000000000284
                },
                {
                    "name": "G#2",
                    "midi": 44,
                    "time": 114.10000000000004,
                    "velocity": 0.47244094488188976,
                    "duration": 0.4000000000000057
                },
                {
                    "name": "G#3",
                    "midi": 56,
                    "time": 114.30000000000004,
                    "velocity": 0.47244094488188976,
                    "duration": 0.20000000000000284
                },
                {
                    "name": "D#3",
                    "midi": 51,
                    "time": 114.30000000000004,
                    "velocity": 0.4566929133858268,
                    "duration": 0.20000000000000284
                },
                {
                    "name": "D4",
                    "midi": 62,
                    "time": 114.50000000000004,
                    "velocity": 0.36220472440944884,
                    "duration": 0.20000000000000284
                },
                {
                    "name": "B3",
                    "midi": 59,
                    "time": 114.50000000000004,
                    "velocity": 0.2677165354330709,
                    "duration": 0.20000000000000284
                },
                {
                    "name": "D#4",
                    "midi": 63,
                    "time": 114.70000000000005,
                    "velocity": 0.3700787401574803,
                    "duration": 0.20000000000000284
                },
                {
                    "name": "C4",
                    "midi": 60,
                    "time": 114.70000000000005,
                    "velocity": 0.28346456692913385,
                    "duration": 0.20000000000000284
                },
                {
                    "name": "G#2",
                    "midi": 44,
                    "time": 115.30000000000005,
                    "velocity": 0.47244094488188976,
                    "duration": 0.4000000000000057
                },
                {
                    "name": "C3",
                    "midi": 48,
                    "time": 115.50000000000006,
                    "velocity": 0.3464566929133858,
                    "duration": 0.20000000000000284
                },
                {
                    "name": "G#3",
                    "midi": 56,
                    "time": 115.50000000000006,
                    "velocity": 0.44881889763779526,
                    "duration": 0.20000000000000284
                },
                {
                    "name": "B3",
                    "midi": 59,
                    "time": 115.70000000000006,
                    "velocity": 0.2677165354330709,
                    "duration": 0.20000000000000284
                },
                {
                    "name": "D4",
                    "midi": 62,
                    "time": 115.70000000000006,
                    "velocity": 0.3464566929133858,
                    "duration": 0.20000000000000284
                },
                {
                    "name": "D#4",
                    "midi": 63,
                    "time": 115.90000000000006,
                    "velocity": 0.36220472440944884,
                    "duration": 0.20000000000000284
                },
                {
                    "name": "C4",
                    "midi": 60,
                    "time": 115.90000000000006,
                    "velocity": 0.2755905511811024,
                    "duration": 0.20000000000000284
                },
                {
                    "name": "G#2",
                    "midi": 44,
                    "time": 116.50000000000007,
                    "velocity": 0.48031496062992124,
                    "duration": 0.4000000000000057
                },
                {
                    "name": "G#3",
                    "midi": 56,
                    "time": 116.70000000000007,
                    "velocity": 0.48031496062992124,
                    "duration": 0.20000000000000284
                },
                {
                    "name": "D3",
                    "midi": 50,
                    "time": 116.70000000000007,
                    "velocity": 0.3779527559055118,
                    "duration": 0.20000000000000284
                },
                {
                    "name": "E4",
                    "midi": 64,
                    "time": 116.90000000000008,
                    "velocity": 0.3858267716535433,
                    "duration": 0.20000000000000284
                },
                {
                    "name": "C#4",
                    "midi": 61,
                    "time": 116.90000000000008,
                    "velocity": 0.30708661417322836,
                    "duration": 0.20000000000000284
                },
                {
                    "name": "F4",
                    "midi": 65,
                    "time": 117.10000000000008,
                    "velocity": 0.4094488188976378,
                    "duration": 0.20000000000000284
                },
                {
                    "name": "D4",
                    "midi": 62,
                    "time": 117.10000000000008,
                    "velocity": 0.3228346456692913,
                    "duration": 0.20000000000000284
                },
                {
                    "name": "G#2",
                    "midi": 44,
                    "time": 117.70000000000009,
                    "velocity": 0.4881889763779528,
                    "duration": 0.4000000000000057
                },
                {
                    "name": "G#3",
                    "midi": 56,
                    "time": 117.90000000000009,
                    "velocity": 0.4881889763779528,
                    "duration": 0.20000000000000284
                },
                {
                    "name": "D3",
                    "midi": 50,
                    "time": 117.90000000000009,
                    "velocity": 0.4645669291338583,
                    "duration": 0.20000000000000284
                },
                {
                    "name": "C#4",
                    "midi": 61,
                    "time": 118.1000000000001,
                    "velocity": 0.31496062992125984,
                    "duration": 0.20000000000000284
                },
                {
                    "name": "E4",
                    "midi": 64,
                    "time": 118.1000000000001,
                    "velocity": 0.3937007874015748,
                    "duration": 0.20000000000000284
                },
                {
                    "name": "D4",
                    "midi": 62,
                    "time": 118.3000000000001,
                    "velocity": 0.3228346456692913,
                    "duration": 0.20000000000000284
                },
                {
                    "name": "F4",
                    "midi": 65,
                    "time": 118.3000000000001,
                    "velocity": 0.4094488188976378,
                    "duration": 0.20000000000000284
                },
                {
                    "name": "G#2",
                    "midi": 44,
                    "time": 118.9000000000001,
                    "velocity": 0.4881889763779528,
                    "duration": 0.4000000000000057
                },
                {
                    "name": "G#3",
                    "midi": 56,
                    "time": 119.10000000000011,
                    "velocity": 0.4881889763779528,
                    "duration": 0.20000000000000284
                },
                {
                    "name": "D#3",
                    "midi": 51,
                    "time": 119.10000000000011,
                    "velocity": 0.3858267716535433,
                    "duration": 0.20000000000000284
                },
                {
                    "name": "B3",
                    "midi": 59,
                    "time": 119.30000000000011,
                    "velocity": 0.31496062992125984,
                    "duration": 0.20000000000000284
                },
                {
                    "name": "D4",
                    "midi": 62,
                    "time": 119.30000000000011,
                    "velocity": 0.3937007874015748,
                    "duration": 0.20000000000000284
                },
                {
                    "name": "C4",
                    "midi": 60,
                    "time": 119.50000000000011,
                    "velocity": 0.3228346456692913,
                    "duration": 0.20000000000000284
                },
                {
                    "name": "D#4",
                    "midi": 63,
                    "time": 119.50000000000011,
                    "velocity": 0.4094488188976378,
                    "duration": 0.20000000000000284
                },
                {
                    "name": "G#2",
                    "midi": 44,
                    "time": 120.10000000000012,
                    "velocity": 0.49606299212598426,
                    "duration": 0.4000000000000057
                },
                {
                    "name": "G#3",
                    "midi": 56,
                    "time": 120.30000000000013,
                    "velocity": 0.49606299212598426,
                    "duration": 0.20000000000000284
                },
                {
                    "name": "C#4",
                    "midi": 61,
                    "time": 120.50000000000013,
                    "velocity": 0.3228346456692913,
                    "duration": 0.20000000000000284
                },
                {
                    "name": "E4",
                    "midi": 64,
                    "time": 120.50000000000013,
                    "velocity": 0.4015748031496063,
                    "duration": 0.20000000000000284
                },
                {
                    "name": "F4",
                    "midi": 65,
                    "time": 120.70000000000013,
                    "velocity": 0.41732283464566927,
                    "duration": 0.20000000000000284
                },
                {
                    "name": "D4",
                    "midi": 62,
                    "time": 120.70000000000013,
                    "velocity": 0.33070866141732286,
                    "duration": 0.20000000000000284
                },
                {
                    "name": "G#2",
                    "midi": 44,
                    "time": 121.35000000000014,
                    "velocity": 0.49606299212598426,
                    "duration": 0.15000000000000568
                },
                {
                    "name": "G#3",
                    "midi": 56,
                    "time": 121.35000000000014,
                    "velocity": 0.49606299212598426,
                    "duration": 0.15000000000000568
                },
                {
                    "name": "A3",
                    "midi": 57,
                    "time": 121.50000000000014,
                    "velocity": 0.49606299212598426,
                    "duration": 0.6000000000000085
                },
                {
                    "name": "A2",
                    "midi": 45,
                    "time": 121.50000000000014,
                    "velocity": 0.49606299212598426,
                    "duration": 0.6000000000000085
                },
                {
                    "name": "E4",
                    "midi": 64,
                    "time": 121.70000000000014,
                    "velocity": 0.3228346456692913,
                    "duration": 0.20000000000000284
                },
                {
                    "name": "G#4",
                    "midi": 68,
                    "time": 121.70000000000014,
                    "velocity": 0.4015748031496063,
                    "duration": 0.20000000000000284
                },
                {
                    "name": "F4",
                    "midi": 65,
                    "time": 121.90000000000015,
                    "velocity": 0.33070866141732286,
                    "duration": 0.20000000000000284
                },
                {
                    "name": "A4",
                    "midi": 69,
                    "time": 121.90000000000015,
                    "velocity": 0.41732283464566927,
                    "duration": 0.20000000000000284
                },
                {
                    "name": "F2",
                    "midi": 41,
                    "time": 122.50000000000016,
                    "velocity": 0.5039370078740157,
                    "duration": 0.4000000000000057
                },
                {
                    "name": "F3",
                    "midi": 53,
                    "time": 122.70000000000016,
                    "velocity": 0.5039370078740157,
                    "duration": 0.20000000000000284
                },
                {
                    "name": "C#4",
                    "midi": 61,
                    "time": 122.90000000000016,
                    "velocity": 0.3228346456692913,
                    "duration": 0.20000000000000284
                },
                {
                    "name": "E4",
                    "midi": 64,
                    "time": 122.90000000000016,
                    "velocity": 0.4015748031496063,
                    "duration": 0.20000000000000284
                },
                {
                    "name": "D4",
                    "midi": 62,
                    "time": 123.10000000000016,
                    "velocity": 0.33070866141732286,
                    "duration": 0.20000000000000284
                },
                {
                    "name": "F4",
                    "midi": 65,
                    "time": 123.10000000000016,
                    "velocity": 0.4251968503937008,
                    "duration": 0.20000000000000284
                },
                {
                    "name": "D2",
                    "midi": 38,
                    "time": 123.70000000000017,
                    "velocity": 0.5039370078740157,
                    "duration": 0.4000000000000057
                },
                {
                    "name": "D3",
                    "midi": 50,
                    "time": 123.90000000000018,
                    "velocity": 0.5039370078740157,
                    "duration": 0.20000000000000284
                },
                {
                    "name": "C#4",
                    "midi": 61,
                    "time": 124.10000000000018,
                    "velocity": 0.4094488188976378,
                    "duration": 0.20000000000000284
                },
                {
                    "name": "G#3",
                    "midi": 56,
                    "time": 124.10000000000018,
                    "velocity": 0.33070866141732286,
                    "duration": 0.20000000000000284
                },
                {
                    "name": "D4",
                    "midi": 62,
                    "time": 124.30000000000018,
                    "velocity": 0.4251968503937008,
                    "duration": 0.20000000000000284
                },
                {
                    "name": "A3",
                    "midi": 57,
                    "time": 124.30000000000018,
                    "velocity": 0.33858267716535434,
                    "duration": 0.20000000000000284
                },
                {
                    "name": "A1",
                    "midi": 33,
                    "time": 124.90000000000019,
                    "velocity": 0.5118110236220472,
                    "duration": 0.4000000000000057
                },
                {
                    "name": "A2",
                    "midi": 45,
                    "time": 125.1000000000002,
                    "velocity": 0.5118110236220472,
                    "duration": 0.20000000000000284
                },
                {
                    "name": "G#3",
                    "midi": 56,
                    "time": 125.3000000000002,
                    "velocity": 0.4094488188976378,
                    "duration": 0.20000000000000284
                },
                {
                    "name": "E3",
                    "midi": 52,
                    "time": 125.3000000000002,
                    "velocity": 0.33070866141732286,
                    "duration": 0.20000000000000284
                },
                {
                    "name": "F3",
                    "midi": 53,
                    "time": 125.5000000000002,
                    "velocity": 0.33858267716535434,
                    "duration": 0.20000000000000284
                },
                {
                    "name": "A3",
                    "midi": 57,
                    "time": 125.5000000000002,
                    "velocity": 0.4330708661417323,
                    "duration": 0.20000000000000284
                },
                {
                    "name": "A#1",
                    "midi": 34,
                    "time": 126.10000000000021,
                    "velocity": 0.5196850393700787,
                    "duration": 0.4000000000000057
                },
                {
                    "name": "A#2",
                    "midi": 46,
                    "time": 126.30000000000021,
                    "velocity": 0.5196850393700787,
                    "duration": 0.20000000000000284
                },
                {
                    "name": "A3",
                    "midi": 57,
                    "time": 126.50000000000021,
                    "velocity": 0.41732283464566927,
                    "duration": 0.20000000000000284
                },
                {
                    "name": "F#3",
                    "midi": 54,
                    "time": 126.50000000000021,
                    "velocity": 0.33070866141732286,
                    "duration": 0.20000000000000284
                },
                {
                    "name": "A#3",
                    "midi": 58,
                    "time": 126.70000000000022,
                    "velocity": 0.4330708661417323,
                    "duration": 0.20000000000000284
                },
                {
                    "name": "G3",
                    "midi": 55,
                    "time": 126.70000000000022,
                    "velocity": 0.3464566929133858,
                    "duration": 0.20000000000000284
                },
                {
                    "name": "G1",
                    "midi": 31,
                    "time": 127.30000000000022,
                    "velocity": 0.5196850393700787,
                    "duration": 0.4000000000000057
                },
                {
                    "name": "G2",
                    "midi": 43,
                    "time": 127.50000000000023,
                    "velocity": 0.5196850393700787,
                    "duration": 0.20000000000000284
                },
                {
                    "name": "D3",
                    "midi": 50,
                    "time": 127.70000000000023,
                    "velocity": 0.33858267716535434,
                    "duration": 0.20000000000000284
                },
                {
                    "name": "F#3",
                    "midi": 54,
                    "time": 127.70000000000023,
                    "velocity": 0.41732283464566927,
                    "duration": 0.20000000000000284
                },
                {
                    "name": "G3",
                    "midi": 55,
                    "time": 127.90000000000023,
                    "velocity": 0.4409448818897638,
                    "duration": 0.19999999999998863
                },
                {
                    "name": "D#3",
                    "midi": 51,
                    "time": 127.90000000000023,
                    "velocity": 0.3464566929133858,
                    "duration": 0.19999999999998863
                },
                {
                    "name": "E1",
                    "midi": 28,
                    "time": 128.50000000000023,
                    "velocity": 0.5196850393700787,
                    "duration": 0.39999999999997726
                },
                {
                    "name": "E2",
                    "midi": 40,
                    "time": 128.70000000000022,
                    "velocity": 0.5275590551181102,
                    "duration": 0.19999999999998863
                },
                {
                    "name": "A2",
                    "midi": 45,
                    "time": 128.9000000000002,
                    "velocity": 0.33858267716535434,
                    "duration": 0.19999999999998863
                },
                {
                    "name": "C#3",
                    "midi": 49,
                    "time": 128.9000000000002,
                    "velocity": 0.4251968503937008,
                    "duration": 0.19999999999998863
                },
                {
                    "name": "A#2",
                    "midi": 46,
                    "time": 129.1000000000002,
                    "velocity": 0.3464566929133858,
                    "duration": 0.19999999999998863
                },
                {
                    "name": "D3",
                    "midi": 50,
                    "time": 129.1000000000002,
                    "velocity": 0.4409448818897638,
                    "duration": 0.19999999999998863
                },
                {
                    "name": "A1",
                    "midi": 33,
                    "time": 129.7000000000002,
                    "velocity": 0.5275590551181102,
                    "duration": 0.39999999999997726
                },
                {
                    "name": "A2",
                    "midi": 45,
                    "time": 129.90000000000018,
                    "velocity": 0.5275590551181102,
                    "duration": 0.19999999999998863
                },
                {
                    "name": "F#3",
                    "midi": 54,
                    "time": 130.10000000000016,
                    "velocity": 0.4251968503937008,
                    "duration": 0.19999999999998863
                },
                {
                    "name": "D#3",
                    "midi": 51,
                    "time": 130.10000000000016,
                    "velocity": 0.3464566929133858,
                    "duration": 0.19999999999998863
                },
                {
                    "name": "E3",
                    "midi": 52,
                    "time": 130.30000000000015,
                    "velocity": 0.3543307086614173,
                    "duration": 0.19999999999998863
                },
                {
                    "name": "G3",
                    "midi": 55,
                    "time": 130.30000000000015,
                    "velocity": 0.44881889763779526,
                    "duration": 0.19999999999998863
                },
                {
                    "name": "A1",
                    "midi": 33,
                    "time": 130.95000000000013,
                    "velocity": 0.5039370078740157,
                    "duration": 0.15000000000000568
                },
                {
                    "name": "A2",
                    "midi": 45,
                    "time": 130.95000000000013,
                    "velocity": 0.5039370078740157,
                    "duration": 0.15000000000000568
                },
                {
                    "name": "D2",
                    "midi": 38,
                    "time": 131.10000000000014,
                    "velocity": 0.4881889763779528,
                    "duration": 0.5999999999999943
                },
                {
                    "name": "D3",
                    "midi": 50,
                    "time": 131.10000000000014,
                    "velocity": 0.5826771653543307,
                    "duration": 0.5999999999999943
                },
                {
                    "name": "G#3",
                    "midi": 56,
                    "time": 131.50000000000014,
                    "velocity": 0.4409448818897638,
                    "duration": 0.19999999999998863
                },
                {
                    "name": "E3",
                    "midi": 52,
                    "time": 131.50000000000014,
                    "velocity": 0.29133858267716534,
                    "duration": 0.19999999999998863
                },
                {
                    "name": "D3",
                    "midi": 50,
                    "time": 133.35000000000014,
                    "velocity": 0.5590551181102362,
                    "duration": 0.15000000000000568
                },
                {
                    "name": "D2",
                    "midi": 38,
                    "time": 133.35000000000014,
                    "velocity": 0.47244094488188976,
                    "duration": 0.15000000000000568
                },
                {
                    "name": "A2",
                    "midi": 45,
                    "time": 133.50000000000014,
                    "velocity": 0.4881889763779528,
                    "duration": 1.1999999999999886
                },
                {
                    "name": "D2",
                    "midi": 38,
                    "time": 133.50000000000014,
                    "velocity": 0.4881889763779528,
                    "duration": 1.1999999999999886
                },
                {
                    "name": "D3",
                    "midi": 50,
                    "time": 133.50000000000014,
                    "velocity": 0.5826771653543307,
                    "duration": 1.1999999999999886
                },
                {
                    "name": "G#3",
                    "midi": 56,
                    "time": 133.90000000000015,
                    "velocity": 0.29133858267716534,
                    "duration": 0.19999999999998863
                },
                {
                    "name": "B3",
                    "midi": 59,
                    "time": 133.90000000000015,
                    "velocity": 0.4409448818897638,
                    "duration": 0.19999999999998863
                },
                {
                    "name": "D2",
                    "midi": 38,
                    "time": 135.75000000000014,
                    "velocity": 0.47244094488188976,
                    "duration": 0.15000000000000568
                },
                {
                    "name": "D3",
                    "midi": 50,
                    "time": 135.75000000000014,
                    "velocity": 0.5590551181102362,
                    "duration": 0.15000000000000568
                },
                {
                    "name": "D2",
                    "midi": 38,
                    "time": 135.90000000000015,
                    "velocity": 0.4881889763779528,
                    "duration": 1.1999999999999886
                },
                {
                    "name": "D3",
                    "midi": 50,
                    "time": 135.90000000000015,
                    "velocity": 0.5826771653543307,
                    "duration": 1.1999999999999886
                },
                {
                    "name": "G#2",
                    "midi": 44,
                    "time": 135.90000000000015,
                    "velocity": 0.4881889763779528,
                    "duration": 1.1999999999999886
                },
                {
                    "name": "G3",
                    "midi": 55,
                    "time": 136.30000000000015,
                    "velocity": 0.29133858267716534,
                    "duration": 0.19999999999998863
                },
                {
                    "name": "A#3",
                    "midi": 58,
                    "time": 136.30000000000015,
                    "velocity": 0.4409448818897638,
                    "duration": 0.19999999999998863
                },
                {
                    "name": "D3",
                    "midi": 50,
                    "time": 138.15000000000015,
                    "velocity": 0.5590551181102362,
                    "duration": 0.15000000000000568
                },
                {
                    "name": "D2",
                    "midi": 38,
                    "time": 138.15000000000015,
                    "velocity": 0.47244094488188976,
                    "duration": 0.15000000000000568
                },
                {
                    "name": "A#1",
                    "midi": 34,
                    "time": 138.30000000000015,
                    "velocity": 0.5275590551181102,
                    "duration": 0.5999999999999659
                },
                {
                    "name": "A#2",
                    "midi": 46,
                    "time": 138.30000000000015,
                    "velocity": 0.5275590551181102,
                    "duration": 0.5999999999999659
                },
                {
                    "name": "D#3",
                    "midi": 51,
                    "time": 138.50000000000014,
                    "velocity": 0.33858267716535434,
                    "duration": 0.19999999999998863
                },
                {
                    "name": "F#3",
                    "midi": 54,
                    "time": 138.50000000000014,
                    "velocity": 0.4251968503937008,
                    "duration": 0.19999999999998863
                },
                {
                    "name": "G3",
                    "midi": 55,
                    "time": 138.70000000000013,
                    "velocity": 0.4409448818897638,
                    "duration": 0.19999999999998863
                },
                {
                    "name": "E3",
                    "midi": 52,
                    "time": 138.70000000000013,
                    "velocity": 0.3464566929133858,
                    "duration": 0.19999999999998863
                },
                {
                    "name": "A#1",
                    "midi": 34,
                    "time": 139.3500000000001,
                    "velocity": 0.5275590551181102,
                    "duration": 0.15000000000000568
                },
                {
                    "name": "A#2",
                    "midi": 46,
                    "time": 139.3500000000001,
                    "velocity": 0.5275590551181102,
                    "duration": 0.15000000000000568
                },
                {
                    "name": "A2",
                    "midi": 45,
                    "time": 139.5000000000001,
                    "velocity": 0.5275590551181102,
                    "duration": 0.5999999999999659
                },
                {
                    "name": "A1",
                    "midi": 33,
                    "time": 139.5000000000001,
                    "velocity": 0.5275590551181102,
                    "duration": 0.5999999999999659
                },
                {
                    "name": "F#3",
                    "midi": 54,
                    "time": 139.7000000000001,
                    "velocity": 0.4251968503937008,
                    "duration": 0.19999999999998863
                },
                {
                    "name": "D#3",
                    "midi": 51,
                    "time": 139.7000000000001,
                    "velocity": 0.3464566929133858,
                    "duration": 0.19999999999998863
                },
                {
                    "name": "G3",
                    "midi": 55,
                    "time": 139.9000000000001,
                    "velocity": 0.44881889763779526,
                    "duration": 0.19999999999998863
                },
                {
                    "name": "E3",
                    "midi": 52,
                    "time": 139.9000000000001,
                    "velocity": 0.3543307086614173,
                    "duration": 0.19999999999998863
                },
                {
                    "name": "G1",
                    "midi": 31,
                    "time": 140.55000000000007,
                    "velocity": 0.5039370078740157,
                    "duration": 0.15000000000000568
                },
                {
                    "name": "G2",
                    "midi": 43,
                    "time": 140.55000000000007,
                    "velocity": 0.5039370078740157,
                    "duration": 0.15000000000000568
                },
                {
                    "name": "A2",
                    "midi": 45,
                    "time": 140.70000000000007,
                    "velocity": 0.4881889763779528,
                    "duration": 0.5999999999999943
                },
                {
                    "name": "D2",
                    "midi": 38,
                    "time": 140.70000000000007,
                    "velocity": 0.4881889763779528,
                    "duration": 0.5999999999999943
                },
                {
                    "name": "D3",
                    "midi": 50,
                    "time": 140.70000000000007,
                    "velocity": 0.5826771653543307,
                    "duration": 0.5999999999999943
                },
                {
                    "name": "G#3",
                    "midi": 56,
                    "time": 141.10000000000008,
                    "velocity": 0.4409448818897638,
                    "duration": 0.19999999999998863
                },
                {
                    "name": "E3",
                    "midi": 52,
                    "time": 141.10000000000008,
                    "velocity": 0.29133858267716534,
                    "duration": 0.19999999999998863
                },
                {
                    "name": "D3",
                    "midi": 50,
                    "time": 142.95000000000007,
                    "velocity": 0.5590551181102362,
                    "duration": 0.15000000000000568
                },
                {
                    "name": "D2",
                    "midi": 38,
                    "time": 142.95000000000007,
                    "velocity": 0.47244094488188976,
                    "duration": 0.15000000000000568
                },
                {
                    "name": "A2",
                    "midi": 45,
                    "time": 143.10000000000008,
                    "velocity": 0.4881889763779528,
                    "duration": 1.1999999999999886
                },
                {
                    "name": "D#2",
                    "midi": 39,
                    "time": 143.10000000000008,
                    "velocity": 0.4881889763779528,
                    "duration": 1.1999999999999886
                },
                {
                    "name": "D#3",
                    "midi": 51,
                    "time": 143.10000000000008,
                    "velocity": 0.5826771653543307,
                    "duration": 1.1999999999999886
                },
                {
                    "name": "B3",
                    "midi": 59,
                    "time": 143.50000000000009,
                    "velocity": 0.4409448818897638,
                    "duration": 0.19999999999998863
                },
                {
                    "name": "G#3",
                    "midi": 56,
                    "time": 143.50000000000009,
                    "velocity": 0.29133858267716534,
                    "duration": 0.19999999999998863
                },
                {
                    "name": "D2",
                    "midi": 38,
                    "time": 145.35000000000008,
                    "velocity": 0.47244094488188976,
                    "duration": 0.15000000000000568
                },
                {
                    "name": "D3",
                    "midi": 50,
                    "time": 145.35000000000008,
                    "velocity": 0.5590551181102362,
                    "duration": 0.15000000000000568
                },
                {
                    "name": "G#2",
                    "midi": 44,
                    "time": 145.50000000000009,
                    "velocity": 0.4881889763779528,
                    "duration": 1.1999999999999886
                },
                {
                    "name": "D#2",
                    "midi": 39,
                    "time": 145.50000000000009,
                    "velocity": 0.4881889763779528,
                    "duration": 1.1999999999999886
                },
                {
                    "name": "D#3",
                    "midi": 51,
                    "time": 145.50000000000009,
                    "velocity": 0.5826771653543307,
                    "duration": 1.1999999999999886
                },
                {
                    "name": "A#3",
                    "midi": 58,
                    "time": 145.9000000000001,
                    "velocity": 0.4409448818897638,
                    "duration": 0.19999999999998863
                },
                {
                    "name": "G3",
                    "midi": 55,
                    "time": 145.9000000000001,
                    "velocity": 0.29133858267716534,
                    "duration": 0.19999999999998863
                },
                {
                    "name": "D2",
                    "midi": 38,
                    "time": 147.75000000000009,
                    "velocity": 0.47244094488188976,
                    "duration": 0.15000000000000568
                },
                {
                    "name": "D3",
                    "midi": 50,
                    "time": 147.75000000000009,
                    "velocity": 0.5590551181102362,
                    "duration": 0.15000000000000568
                },
                {
                    "name": "A#1",
                    "midi": 34,
                    "time": 147.9000000000001,
                    "velocity": 0.5275590551181102,
                    "duration": 0.5999999999999659
                },
                {
                    "name": "A#2",
                    "midi": 46,
                    "time": 147.9000000000001,
                    "velocity": 0.5275590551181102,
                    "duration": 0.5999999999999659
                },
                {
                    "name": "D#3",
                    "midi": 51,
                    "time": 148.10000000000008,
                    "velocity": 0.33858267716535434,
                    "duration": 0.19999999999998863
                },
                {
                    "name": "F#3",
                    "midi": 54,
                    "time": 148.10000000000008,
                    "velocity": 0.4251968503937008,
                    "duration": 0.19999999999998863
                },
                {
                    "name": "E3",
                    "midi": 52,
                    "time": 148.30000000000007,
                    "velocity": 0.3464566929133858,
                    "duration": 0.19999999999998863
                },
                {
                    "name": "G3",
                    "midi": 55,
                    "time": 148.30000000000007,
                    "velocity": 0.4409448818897638,
                    "duration": 0.19999999999998863
                },
                {
                    "name": "A#1",
                    "midi": 34,
                    "time": 148.95000000000005,
                    "velocity": 0.5275590551181102,
                    "duration": 0.15000000000000568
                },
                {
                    "name": "A#2",
                    "midi": 46,
                    "time": 148.95000000000005,
                    "velocity": 0.5275590551181102,
                    "duration": 0.15000000000000568
                },
                {
                    "name": "A1",
                    "midi": 33,
                    "time": 149.10000000000005,
                    "velocity": 0.5275590551181102,
                    "duration": 0.5999999999999659
                },
                {
                    "name": "A2",
                    "midi": 45,
                    "time": 149.10000000000005,
                    "velocity": 0.5275590551181102,
                    "duration": 0.5999999999999659
                },
                {
                    "name": "F#3",
                    "midi": 54,
                    "time": 149.30000000000004,
                    "velocity": 0.4251968503937008,
                    "duration": 0.19999999999998863
                },
                {
                    "name": "D#3",
                    "midi": 51,
                    "time": 149.30000000000004,
                    "velocity": 0.3464566929133858,
                    "duration": 0.19999999999998863
                },
                {
                    "name": "G3",
                    "midi": 55,
                    "time": 149.50000000000003,
                    "velocity": 0.44881889763779526,
                    "duration": 0.19999999999998863
                },
                {
                    "name": "E3",
                    "midi": 52,
                    "time": 149.50000000000003,
                    "velocity": 0.3543307086614173,
                    "duration": 0.19999999999998863
                },
                {
                    "name": "G1",
                    "midi": 31,
                    "time": 150.15,
                    "velocity": 0.5039370078740157,
                    "duration": 0.15000000000000568
                },
                {
                    "name": "G2",
                    "midi": 43,
                    "time": 150.15,
                    "velocity": 0.5039370078740157,
                    "duration": 0.15000000000000568
                },
                {
                    "name": "D2",
                    "midi": 38,
                    "time": 150.3,
                    "velocity": 0.4094488188976378,
                    "duration": 0.30000000000001137
                },
                {
                    "name": "A2",
                    "midi": 45,
                    "time": 150.3,
                    "velocity": 0.4094488188976378,
                    "duration": 0.30000000000001137
                },
                {
                    "name": "D3",
                    "midi": 50,
                    "time": 150.3,
                    "velocity": 0.5275590551181102,
                    "duration": 0.30000000000001137
                },
                {
                    "name": "E5",
                    "midi": 76,
                    "time": 150.90000000000003,
                    "velocity": 0.30708661417322836,
                    "duration": 0.19999999999998863
                },
                {
                    "name": "G4",
                    "midi": 67,
                    "time": 150.90000000000003,
                    "velocity": 0.4409448818897638,
                    "duration": 0.5999999999999659
                },
                {
                    "name": "D#5",
                    "midi": 75,
                    "time": 151.10000000000002,
                    "velocity": 0.30708661417322836,
                    "duration": 0.19999999999998863
                },
                {
                    "name": "D5",
                    "midi": 74,
                    "time": 151.3,
                    "velocity": 0.30708661417322836,
                    "duration": 0.19999999999998863
                },
                {
                    "name": "C#5",
                    "midi": 73,
                    "time": 151.5,
                    "velocity": 0.31496062992125984,
                    "duration": 0.19999999999998863
                },
                {
                    "name": "E4",
                    "midi": 64,
                    "time": 151.5,
                    "velocity": 0.4645669291338583,
                    "duration": 0.5999999999999659
                },
                {
                    "name": "C5",
                    "midi": 72,
                    "time": 151.7,
                    "velocity": 0.3228346456692913,
                    "duration": 0.19999999999998863
                },
                {
                    "name": "B4",
                    "midi": 71,
                    "time": 151.89999999999998,
                    "velocity": 0.3228346456692913,
                    "duration": 0.19999999999998863
                },
                {
                    "name": "C#4",
                    "midi": 61,
                    "time": 152.09999999999997,
                    "velocity": 0.4881889763779528,
                    "duration": 0.5999999999999659
                },
                {
                    "name": "A#4",
                    "midi": 70,
                    "time": 152.09999999999997,
                    "velocity": 0.3228346456692913,
                    "duration": 0.19999999999998863
                },
                {
                    "name": "A4",
                    "midi": 69,
                    "time": 152.29999999999995,
                    "velocity": 0.33070866141732286,
                    "duration": 0.19999999999998863
                },
                {
                    "name": "G#4",
                    "midi": 68,
                    "time": 152.49999999999994,
                    "velocity": 0.33858267716535434,
                    "duration": 0.19999999999998863
                },
                {
                    "name": "A#3",
                    "midi": 58,
                    "time": 152.69999999999993,
                    "velocity": 0.5118110236220472,
                    "duration": 0.30000000000001137
                },
                {
                    "name": "G4",
                    "midi": 67,
                    "time": 152.69999999999993,
                    "velocity": 0.33858267716535434,
                    "duration": 0.30000000000001137
                },
                {
                    "name": "C#3",
                    "midi": 49,
                    "time": 153.29999999999995,
                    "velocity": 0.4409448818897638,
                    "duration": 0.30000000000001137
                },
                {
                    "name": "G3",
                    "midi": 55,
                    "time": 153.29999999999995,
                    "velocity": 0.30708661417322836,
                    "duration": 0.30000000000001137
                },
                {
                    "name": "G2",
                    "midi": 43,
                    "time": 153.29999999999995,
                    "velocity": 0.2677165354330709,
                    "duration": 0.30000000000001137
                },
                {
                    "name": "E3",
                    "midi": 52,
                    "time": 153.29999999999995,
                    "velocity": 0.30708661417322836,
                    "duration": 0.30000000000001137
                },
                {
                    "name": "D4",
                    "midi": 62,
                    "time": 153.89999999999998,
                    "velocity": 0.5748031496062992,
                    "duration": 0.30000000000001137
                },
                {
                    "name": "F#3",
                    "midi": 54,
                    "time": 153.89999999999998,
                    "velocity": 0.44881889763779526,
                    "duration": 0.30000000000001137
                },
                {
                    "name": "D3",
                    "midi": 50,
                    "time": 153.89999999999998,
                    "velocity": 0.44881889763779526,
                    "duration": 0.30000000000001137
                },
                {
                    "name": "A3",
                    "midi": 57,
                    "time": 153.89999999999998,
                    "velocity": 0.44881889763779526,
                    "duration": 0.30000000000001137
                },
                {
                    "name": "E4",
                    "midi": 64,
                    "time": 154.5,
                    "velocity": 0.30708661417322836,
                    "duration": 0.19999999999998863
                },
                {
                    "name": "G3",
                    "midi": 55,
                    "time": 154.5,
                    "velocity": 0.4409448818897638,
                    "duration": 0.5999999999999659
                },
                {
                    "name": "D#4",
                    "midi": 63,
                    "time": 154.7,
                    "velocity": 0.30708661417322836,
                    "duration": 0.19999999999998863
                },
                {
                    "name": "D4",
                    "midi": 62,
                    "time": 154.89999999999998,
                    "velocity": 0.30708661417322836,
                    "duration": 0.19999999999998863
                },
                {
                    "name": "C#4",
                    "midi": 61,
                    "time": 155.09999999999997,
                    "velocity": 0.31496062992125984,
                    "duration": 0.19999999999998863
                },
                {
                    "name": "E3",
                    "midi": 52,
                    "time": 155.09999999999997,
                    "velocity": 0.4645669291338583,
                    "duration": 0.5999999999999659
                },
                {
                    "name": "C4",
                    "midi": 60,
                    "time": 155.29999999999995,
                    "velocity": 0.3228346456692913,
                    "duration": 0.19999999999998863
                },
                {
                    "name": "B3",
                    "midi": 59,
                    "time": 155.49999999999994,
                    "velocity": 0.3228346456692913,
                    "duration": 0.19999999999998863
                },
                {
                    "name": "A#3",
                    "midi": 58,
                    "time": 155.69999999999993,
                    "velocity": 0.3228346456692913,
                    "duration": 0.19999999999998863
                },
                {
                    "name": "C#3",
                    "midi": 49,
                    "time": 155.69999999999993,
                    "velocity": 0.4881889763779528,
                    "duration": 0.5999999999999659
                },
                {
                    "name": "A3",
                    "midi": 57,
                    "time": 155.89999999999992,
                    "velocity": 0.33070866141732286,
                    "duration": 0.19999999999998863
                },
                {
                    "name": "G#3",
                    "midi": 56,
                    "time": 156.0999999999999,
                    "velocity": 0.33858267716535434,
                    "duration": 0.19999999999998863
                },
                {
                    "name": "G3",
                    "midi": 55,
                    "time": 156.2999999999999,
                    "velocity": 0.33858267716535434,
                    "duration": 0.30000000000001137
                },
                {
                    "name": "A#2",
                    "midi": 46,
                    "time": 156.2999999999999,
                    "velocity": 0.5118110236220472,
                    "duration": 0.30000000000001137
                },
                {
                    "name": "C#3",
                    "midi": 49,
                    "time": 156.89999999999992,
                    "velocity": 0.4409448818897638,
                    "duration": 0.30000000000001137
                },
                {
                    "name": "E3",
                    "midi": 52,
                    "time": 156.89999999999992,
                    "velocity": 0.30708661417322836,
                    "duration": 0.30000000000001137
                },
                {
                    "name": "G3",
                    "midi": 55,
                    "time": 156.89999999999992,
                    "velocity": 0.30708661417322836,
                    "duration": 0.30000000000001137
                },
                {
                    "name": "G2",
                    "midi": 43,
                    "time": 156.89999999999992,
                    "velocity": 0.2677165354330709,
                    "duration": 0.30000000000001137
                },
                {
                    "name": "D3",
                    "midi": 50,
                    "time": 157.49999999999994,
                    "velocity": 0.5748031496062992,
                    "duration": 0.30000000000001137
                },
                {
                    "name": "F#2",
                    "midi": 42,
                    "time": 157.49999999999994,
                    "velocity": 0.44881889763779526,
                    "duration": 0.30000000000001137
                },
                {
                    "name": "D2",
                    "midi": 38,
                    "time": 157.49999999999994,
                    "velocity": 0.44881889763779526,
                    "duration": 0.30000000000001137
                },
                {
                    "name": "A2",
                    "midi": 45,
                    "time": 157.49999999999994,
                    "velocity": 0.44881889763779526,
                    "duration": 0.30000000000001137
                },
                {
                    "name": "A#2",
                    "midi": 46,
                    "time": 158.09999999999997,
                    "velocity": 0.41732283464566927,
                    "duration": 0.30000000000001137
                },
                {
                    "name": "C#3",
                    "midi": 49,
                    "time": 158.09999999999997,
                    "velocity": 0.41732283464566927,
                    "duration": 0.30000000000001137
                },
                {
                    "name": "G2",
                    "midi": 43,
                    "time": 158.09999999999997,
                    "velocity": 0.41732283464566927,
                    "duration": 0.30000000000001137
                },
                {
                    "name": "G3",
                    "midi": 55,
                    "time": 158.09999999999997,
                    "velocity": 0.41732283464566927,
                    "duration": 0.30000000000001137
                },
                {
                    "name": "D4",
                    "midi": 62,
                    "time": 158.7,
                    "velocity": 0.4251968503937008,
                    "duration": 0.30000000000001137
                },
                {
                    "name": "A3",
                    "midi": 57,
                    "time": 158.7,
                    "velocity": 0.4251968503937008,
                    "duration": 0.30000000000001137
                },
                {
                    "name": "F#3",
                    "midi": 54,
                    "time": 158.7,
                    "velocity": 0.4251968503937008,
                    "duration": 0.30000000000001137
                },
                {
                    "name": "D3",
                    "midi": 50,
                    "time": 158.7,
                    "velocity": 0.4251968503937008,
                    "duration": 0.30000000000001137
                },
                {
                    "name": "G2",
                    "midi": 43,
                    "time": 159.3,
                    "velocity": 0.4251968503937008,
                    "duration": 0.30000000000001137
                },
                {
                    "name": "C#3",
                    "midi": 49,
                    "time": 159.3,
                    "velocity": 0.4251968503937008,
                    "duration": 0.30000000000001137
                },
                {
                    "name": "A#2",
                    "midi": 46,
                    "time": 159.3,
                    "velocity": 0.4251968503937008,
                    "duration": 0.30000000000001137
                },
                {
                    "name": "G3",
                    "midi": 55,
                    "time": 159.3,
                    "velocity": 0.4251968503937008,
                    "duration": 0.30000000000001137
                },
                {
                    "name": "F#2",
                    "midi": 42,
                    "time": 159.90000000000003,
                    "velocity": 0.4330708661417323,
                    "duration": 0.30000000000001137
                },
                {
                    "name": "D2",
                    "midi": 38,
                    "time": 159.90000000000003,
                    "velocity": 0.4330708661417323,
                    "duration": 0.30000000000001137
                },
                {
                    "name": "A2",
                    "midi": 45,
                    "time": 159.90000000000003,
                    "velocity": 0.4330708661417323,
                    "duration": 0.30000000000001137
                },
                {
                    "name": "D3",
                    "midi": 50,
                    "time": 159.90000000000003,
                    "velocity": 0.4330708661417323,
                    "duration": 0.30000000000001137
                },
                {
                    "name": "A#1",
                    "midi": 34,
                    "time": 160.50000000000006,
                    "velocity": 0.4409448818897638,
                    "duration": 0.30000000000001137
                },
                {
                    "name": "G1",
                    "midi": 31,
                    "time": 160.50000000000006,
                    "velocity": 0.4409448818897638,
                    "duration": 0.30000000000001137
                },
                {
                    "name": "C#2",
                    "midi": 37,
                    "time": 160.50000000000006,
                    "velocity": 0.4409448818897638,
                    "duration": 0.30000000000001137
                },
                {
                    "name": "G2",
                    "midi": 43,
                    "time": 160.50000000000006,
                    "velocity": 0.4409448818897638,
                    "duration": 0.30000000000001137
                },
                {
                    "name": "D3",
                    "midi": 50,
                    "time": 161.10000000000008,
                    "velocity": 0.5826771653543307,
                    "duration": 0.30000000000001137
                },
                {
                    "name": "F#2",
                    "midi": 42,
                    "time": 161.10000000000008,
                    "velocity": 0.44881889763779526,
                    "duration": 0.30000000000001137
                },
                {
                    "name": "D2",
                    "midi": 38,
                    "time": 161.10000000000008,
                    "velocity": 0.44881889763779526,
                    "duration": 0.30000000000001137
                },
                {
                    "name": "A2",
                    "midi": 45,
                    "time": 161.10000000000008,
                    "velocity": 0.44881889763779526,
                    "duration": 0.30000000000001137
                },
                {
                    "name": "A#1",
                    "midi": 34,
                    "time": 161.7000000000001,
                    "velocity": 0.44881889763779526,
                    "duration": 0.30000000000001137
                },
                {
                    "name": "G2",
                    "midi": 43,
                    "time": 161.7000000000001,
                    "velocity": 0.44881889763779526,
                    "duration": 0.30000000000001137
                },
                {
                    "name": "G1",
                    "midi": 31,
                    "time": 161.7000000000001,
                    "velocity": 0.44881889763779526,
                    "duration": 0.30000000000001137
                },
                {
                    "name": "C#2",
                    "midi": 37,
                    "time": 161.7000000000001,
                    "velocity": 0.44881889763779526,
                    "duration": 0.30000000000001137
                },
                {
                    "name": "D2",
                    "midi": 38,
                    "time": 162.30000000000013,
                    "velocity": 0.44881889763779526,
                    "duration": 0.30000000000001137
                },
                {
                    "name": "A2",
                    "midi": 45,
                    "time": 162.30000000000013,
                    "velocity": 0.44881889763779526,
                    "duration": 0.30000000000001137
                },
                {
                    "name": "D3",
                    "midi": 50,
                    "time": 162.30000000000013,
                    "velocity": 0.44881889763779526,
                    "duration": 0.30000000000001137
                },
                {
                    "name": "F#2",
                    "midi": 42,
                    "time": 162.30000000000013,
                    "velocity": 0.44881889763779526,
                    "duration": 0.30000000000001137
                },
                {
                    "name": "C#2",
                    "midi": 37,
                    "time": 162.90000000000015,
                    "velocity": 0.4566929133858268,
                    "duration": 0.30000000000001137
                },
                {
                    "name": "A#1",
                    "midi": 34,
                    "time": 162.90000000000015,
                    "velocity": 0.4566929133858268,
                    "duration": 0.30000000000001137
                },
                {
                    "name": "G1",
                    "midi": 31,
                    "time": 162.90000000000015,
                    "velocity": 0.4566929133858268,
                    "duration": 0.30000000000001137
                },
                {
                    "name": "G2",
                    "midi": 43,
                    "time": 162.90000000000015,
                    "velocity": 0.4566929133858268,
                    "duration": 0.30000000000001137
                },
                {
                    "name": "D2",
                    "midi": 38,
                    "time": 163.50000000000017,
                    "velocity": 0.4645669291338583,
                    "duration": 0.30000000000001137
                },
                {
                    "name": "D3",
                    "midi": 50,
                    "time": 163.50000000000017,
                    "velocity": 0.4645669291338583,
                    "duration": 0.30000000000001137
                },
                {
                    "name": "F#2",
                    "midi": 42,
                    "time": 163.50000000000017,
                    "velocity": 0.4645669291338583,
                    "duration": 0.30000000000001137
                },
                {
                    "name": "A2",
                    "midi": 45,
                    "time": 163.50000000000017,
                    "velocity": 0.4645669291338583,
                    "duration": 0.30000000000001137
                },
                {
                    "name": "G2",
                    "midi": 43,
                    "time": 164.1000000000002,
                    "velocity": 0.4645669291338583,
                    "duration": 0.30000000000001137
                },
                {
                    "name": "G1",
                    "midi": 31,
                    "time": 164.1000000000002,
                    "velocity": 0.4645669291338583,
                    "duration": 0.30000000000001137
                },
                {
                    "name": "A#1",
                    "midi": 34,
                    "time": 164.1000000000002,
                    "velocity": 0.4645669291338583,
                    "duration": 0.30000000000001137
                },
                {
                    "name": "C#2",
                    "midi": 37,
                    "time": 164.1000000000002,
                    "velocity": 0.4645669291338583,
                    "duration": 0.30000000000001137
                },
                {
                    "name": "D2",
                    "midi": 38,
                    "time": 164.70000000000022,
                    "velocity": 0.4645669291338583,
                    "duration": 0.30000000000001137
                },
                {
                    "name": "F#2",
                    "midi": 42,
                    "time": 164.70000000000022,
                    "velocity": 0.4645669291338583,
                    "duration": 0.30000000000001137
                },
                {
                    "name": "A2",
                    "midi": 45,
                    "time": 164.70000000000022,
                    "velocity": 0.4645669291338583,
                    "duration": 0.30000000000001137
                },
                {
                    "name": "D3",
                    "midi": 50,
                    "time": 164.70000000000022,
                    "velocity": 0.4645669291338583,
                    "duration": 0.30000000000001137
                },
                {
                    "name": "A5",
                    "midi": 81,
                    "time": 165.30000000000024,
                    "velocity": 0.5196850393700787,
                    "duration": 0.30000000000001137
                },
                {
                    "name": "A4",
                    "midi": 69,
                    "time": 165.30000000000024,
                    "velocity": 0.4409448818897638,
                    "duration": 0.30000000000001137
                },
                {
                    "name": "F#4",
                    "midi": 66,
                    "time": 165.60000000000025,
                    "velocity": 0.4409448818897638,
                    "duration": 0.30000000000001137
                },
                {
                    "name": "F#5",
                    "midi": 78,
                    "time": 165.60000000000025,
                    "velocity": 0.5196850393700787,
                    "duration": 0.30000000000001137
                },
                {
                    "name": "A3",
                    "midi": 57,
                    "time": 166.50000000000026,
                    "velocity": 0.4015748031496063,
                    "duration": 0.30000000000001137
                },
                {
                    "name": "A4",
                    "midi": 69,
                    "time": 166.50000000000026,
                    "velocity": 0.48031496062992124,
                    "duration": 0.30000000000001137
                },
                {
                    "name": "F#4",
                    "midi": 66,
                    "time": 166.80000000000027,
                    "velocity": 0.48031496062992124,
                    "duration": 0.30000000000001137
                },
                {
                    "name": "F#3",
                    "midi": 54,
                    "time": 166.80000000000027,
                    "velocity": 0.4015748031496063,
                    "duration": 0.30000000000001137
                },
                {
                    "name": "A3",
                    "midi": 57,
                    "time": 167.70000000000027,
                    "velocity": 0.4881889763779528,
                    "duration": 0.30000000000001137
                },
                {
                    "name": "A2",
                    "midi": 45,
                    "time": 167.70000000000027,
                    "velocity": 0.4094488188976378,
                    "duration": 0.30000000000001137
                },
                {
                    "name": "F#3",
                    "midi": 54,
                    "time": 168.00000000000028,
                    "velocity": 0.4881889763779528,
                    "duration": 0.30000000000001137
                },
                {
                    "name": "F#2",
                    "midi": 42,
                    "time": 168.00000000000028,
                    "velocity": 0.4094488188976378,
                    "duration": 0.30000000000001137
                },
                {
                    "name": "C3",
                    "midi": 48,
                    "time": 168.6000000000003,
                    "velocity": 0.4409448818897638,
                    "duration": 0.30000000000001137
                },
                {
                    "name": "C2",
                    "midi": 36,
                    "time": 168.6000000000003,
                    "velocity": 0.3700787401574803,
                    "duration": 0.30000000000001137
                },
                {
                    "name": "B1",
                    "midi": 35,
                    "time": 169.20000000000033,
                    "velocity": 0.3543307086614173,
                    "duration": 0.30000000000001137
                },
                {
                    "name": "B2",
                    "midi": 47,
                    "time": 169.20000000000033,
                    "velocity": 0.4251968503937008,
                    "duration": 0.30000000000001137
                },
                {
                    "name": "A#1",
                    "midi": 34,
                    "time": 169.80000000000035,
                    "velocity": 0.3543307086614173,
                    "duration": 0.30000000000001137
                },
                {
                    "name": "A#2",
                    "midi": 46,
                    "time": 169.80000000000035,
                    "velocity": 0.41732283464566927,
                    "duration": 0.30000000000001137
                },
                {
                    "name": "G1",
                    "midi": 31,
                    "time": 170.40000000000038,
                    "velocity": 0.33858267716535434,
                    "duration": 0.30000000000001137
                },
                {
                    "name": "G2",
                    "midi": 43,
                    "time": 170.40000000000038,
                    "velocity": 0.4015748031496063,
                    "duration": 0.30000000000001137
                },
                {
                    "name": "G#2",
                    "midi": 44,
                    "time": 171.0000000000004,
                    "velocity": 0.3858267716535433,
                    "duration": 0.30000000000001137
                },
                {
                    "name": "G#1",
                    "midi": 32,
                    "time": 171.0000000000004,
                    "velocity": 0.3228346456692913,
                    "duration": 0.30000000000001137
                },
                {
                    "name": "A1",
                    "midi": 33,
                    "time": 171.60000000000042,
                    "velocity": 0.30708661417322836,
                    "duration": 0.30000000000001137
                },
                {
                    "name": "A2",
                    "midi": 45,
                    "time": 171.60000000000042,
                    "velocity": 0.3700787401574803,
                    "duration": 0.30000000000001137
                },
                {
                    "name": "D1",
                    "midi": 26,
                    "time": 171.90000000000043,
                    "velocity": 0.36220472440944884,
                    "duration": 0.15000000000000568
                },
                {
                    "name": "D2",
                    "midi": 38,
                    "time": 171.90000000000043,
                    "velocity": 0.4409448818897638,
                    "duration": 0.15000000000000568
                },
                {
                    "name": "E1",
                    "midi": 28,
                    "time": 172.20000000000044,
                    "velocity": 0.36220472440944884,
                    "duration": 0.15000000000000568
                },
                {
                    "name": "E2",
                    "midi": 40,
                    "time": 172.20000000000044,
                    "velocity": 0.4409448818897638,
                    "duration": 0.15000000000000568
                },
                {
                    "name": "F#2",
                    "midi": 42,
                    "time": 172.50000000000045,
                    "velocity": 0.4409448818897638,
                    "duration": 0.15000000000000568
                },
                {
                    "name": "F#1",
                    "midi": 30,
                    "time": 172.50000000000045,
                    "velocity": 0.36220472440944884,
                    "duration": 0.15000000000000568
                },
                {
                    "name": "G#2",
                    "midi": 44,
                    "time": 172.80000000000047,
                    "velocity": 0.4409448818897638,
                    "duration": 0.15000000000000568
                },
                {
                    "name": "G#1",
                    "midi": 32,
                    "time": 172.80000000000047,
                    "velocity": 0.36220472440944884,
                    "duration": 0.15000000000000568
                },
                {
                    "name": "A#2",
                    "midi": 46,
                    "time": 173.10000000000048,
                    "velocity": 0.4409448818897638,
                    "duration": 0.15000000000000568
                },
                {
                    "name": "A#1",
                    "midi": 34,
                    "time": 173.10000000000048,
                    "velocity": 0.36220472440944884,
                    "duration": 0.15000000000000568
                },
                {
                    "name": "C2",
                    "midi": 36,
                    "time": 173.4000000000005,
                    "velocity": 0.36220472440944884,
                    "duration": 0.15000000000000568
                },
                {
                    "name": "C3",
                    "midi": 48,
                    "time": 173.4000000000005,
                    "velocity": 0.4409448818897638,
                    "duration": 0.15000000000000568
                },
                {
                    "name": "D2",
                    "midi": 38,
                    "time": 173.7000000000005,
                    "velocity": 0.36220472440944884,
                    "duration": 0.15000000000000568
                },
                {
                    "name": "D3",
                    "midi": 50,
                    "time": 173.7000000000005,
                    "velocity": 0.4409448818897638,
                    "duration": 0.15000000000000568
                },
                {
                    "name": "E3",
                    "midi": 52,
                    "time": 174.0000000000005,
                    "velocity": 0.4409448818897638,
                    "duration": 0.15000000000000568
                },
                {
                    "name": "E2",
                    "midi": 40,
                    "time": 174.0000000000005,
                    "velocity": 0.36220472440944884,
                    "duration": 0.15000000000000568
                },
                {
                    "name": "F#3",
                    "midi": 54,
                    "time": 174.30000000000052,
                    "velocity": 0.4409448818897638,
                    "duration": 0.15000000000000568
                },
                {
                    "name": "F#2",
                    "midi": 42,
                    "time": 174.30000000000052,
                    "velocity": 0.36220472440944884,
                    "duration": 0.15000000000000568
                },
                {
                    "name": "G#3",
                    "midi": 56,
                    "time": 174.60000000000053,
                    "velocity": 0.44881889763779526,
                    "duration": 0.15000000000000568
                },
                {
                    "name": "G#2",
                    "midi": 44,
                    "time": 174.60000000000053,
                    "velocity": 0.3779527559055118,
                    "duration": 0.15000000000000568
                },
                {
                    "name": "A#3",
                    "midi": 58,
                    "time": 174.90000000000055,
                    "velocity": 0.4566929133858268,
                    "duration": 0.15000000000000568
                },
                {
                    "name": "A#2",
                    "midi": 46,
                    "time": 174.90000000000055,
                    "velocity": 0.3858267716535433,
                    "duration": 0.15000000000000568
                },
                {
                    "name": "C3",
                    "midi": 48,
                    "time": 175.20000000000056,
                    "velocity": 0.4015748031496063,
                    "duration": 0.15000000000000568
                },
                {
                    "name": "C4",
                    "midi": 60,
                    "time": 175.20000000000056,
                    "velocity": 0.48031496062992124,
                    "duration": 0.15000000000000568
                },
                {
                    "name": "D4",
                    "midi": 62,
                    "time": 175.50000000000057,
                    "velocity": 0.4881889763779528,
                    "duration": 0.15000000000000568
                },
                {
                    "name": "D3",
                    "midi": 50,
                    "time": 175.50000000000057,
                    "velocity": 0.4094488188976378,
                    "duration": 0.15000000000000568
                },
                {
                    "name": "E3",
                    "midi": 52,
                    "time": 175.80000000000058,
                    "velocity": 0.4251968503937008,
                    "duration": 0.15000000000000568
                },
                {
                    "name": "E4",
                    "midi": 64,
                    "time": 175.80000000000058,
                    "velocity": 0.49606299212598426,
                    "duration": 0.15000000000000568
                },
                {
                    "name": "F#3",
                    "midi": 54,
                    "time": 176.1000000000006,
                    "velocity": 0.4251968503937008,
                    "duration": 0.15000000000000568
                },
                {
                    "name": "F#4",
                    "midi": 66,
                    "time": 176.1000000000006,
                    "velocity": 0.5039370078740157,
                    "duration": 0.15000000000000568
                },
                {
                    "name": "G#3",
                    "midi": 56,
                    "time": 176.4000000000006,
                    "velocity": 0.4330708661417323,
                    "duration": 0.15000000000000568
                },
                {
                    "name": "G#4",
                    "midi": 68,
                    "time": 176.4000000000006,
                    "velocity": 0.5196850393700787,
                    "duration": 0.15000000000000568
                },
                {
                    "name": "A#4",
                    "midi": 70,
                    "time": 176.7000000000006,
                    "velocity": 0.5275590551181102,
                    "duration": 0.15000000000000568
                },
                {
                    "name": "A#3",
                    "midi": 58,
                    "time": 176.7000000000006,
                    "velocity": 0.4409448818897638,
                    "duration": 0.15000000000000568
                },
                {
                    "name": "C4",
                    "midi": 60,
                    "time": 177.00000000000063,
                    "velocity": 0.44881889763779526,
                    "duration": 0.15000000000000568
                },
                {
                    "name": "C5",
                    "midi": 72,
                    "time": 177.00000000000063,
                    "velocity": 0.5354330708661418,
                    "duration": 0.15000000000000568
                },
                {
                    "name": "D5",
                    "midi": 74,
                    "time": 177.30000000000064,
                    "velocity": 0.5433070866141733,
                    "duration": 0.15000000000000568
                },
                {
                    "name": "D4",
                    "midi": 62,
                    "time": 177.30000000000064,
                    "velocity": 0.4566929133858268,
                    "duration": 0.15000000000000568
                },
                {
                    "name": "C5",
                    "midi": 72,
                    "time": 177.60000000000065,
                    "velocity": 0.5354330708661418,
                    "duration": 0.15000000000000568
                },
                {
                    "name": "C4",
                    "midi": 60,
                    "time": 177.60000000000065,
                    "velocity": 0.44881889763779526,
                    "duration": 0.15000000000000568
                },
                {
                    "name": "A#3",
                    "midi": 58,
                    "time": 177.90000000000066,
                    "velocity": 0.4409448818897638,
                    "duration": 0.15000000000000568
                },
                {
                    "name": "A#4",
                    "midi": 70,
                    "time": 177.90000000000066,
                    "velocity": 0.5275590551181102,
                    "duration": 0.15000000000000568
                },
                {
                    "name": "G#3",
                    "midi": 56,
                    "time": 178.20000000000067,
                    "velocity": 0.4330708661417323,
                    "duration": 0.15000000000000568
                },
                {
                    "name": "G#4",
                    "midi": 68,
                    "time": 178.20000000000067,
                    "velocity": 0.5196850393700787,
                    "duration": 0.15000000000000568
                },
                {
                    "name": "F#3",
                    "midi": 54,
                    "time": 178.50000000000068,
                    "velocity": 0.4251968503937008,
                    "duration": 0.15000000000000568
                },
                {
                    "name": "F#4",
                    "midi": 66,
                    "time": 178.50000000000068,
                    "velocity": 0.5039370078740157,
                    "duration": 0.15000000000000568
                },
                {
                    "name": "E4",
                    "midi": 64,
                    "time": 178.8000000000007,
                    "velocity": 0.49606299212598426,
                    "duration": 0.15000000000000568
                },
                {
                    "name": "E3",
                    "midi": 52,
                    "time": 178.8000000000007,
                    "velocity": 0.4251968503937008,
                    "duration": 0.15000000000000568
                },
                {
                    "name": "D3",
                    "midi": 50,
                    "time": 179.1000000000007,
                    "velocity": 0.4094488188976378,
                    "duration": 0.15000000000000568
                },
                {
                    "name": "D4",
                    "midi": 62,
                    "time": 179.1000000000007,
                    "velocity": 0.4881889763779528,
                    "duration": 0.15000000000000568
                },
                {
                    "name": "C4",
                    "midi": 60,
                    "time": 179.40000000000072,
                    "velocity": 0.48031496062992124,
                    "duration": 0.15000000000000568
                },
                {
                    "name": "C3",
                    "midi": 48,
                    "time": 179.40000000000072,
                    "velocity": 0.4015748031496063,
                    "duration": 0.15000000000000568
                },
                {
                    "name": "A#2",
                    "midi": 46,
                    "time": 179.70000000000073,
                    "velocity": 0.3937007874015748,
                    "duration": 0.15000000000000568
                },
                {
                    "name": "A#3",
                    "midi": 58,
                    "time": 179.70000000000073,
                    "velocity": 0.47244094488188976,
                    "duration": 0.15000000000000568
                },
                {
                    "name": "G#3",
                    "midi": 56,
                    "time": 180.00000000000074,
                    "velocity": 0.4566929133858268,
                    "duration": 0.15000000000000568
                },
                {
                    "name": "G#2",
                    "midi": 44,
                    "time": 180.00000000000074,
                    "velocity": 0.3858267716535433,
                    "duration": 0.15000000000000568
                },
                {
                    "name": "F#2",
                    "midi": 42,
                    "time": 180.30000000000075,
                    "velocity": 0.3779527559055118,
                    "duration": 0.15000000000000568
                },
                {
                    "name": "F#3",
                    "midi": 54,
                    "time": 180.30000000000075,
                    "velocity": 0.44881889763779526,
                    "duration": 0.15000000000000568
                },
                {
                    "name": "E3",
                    "midi": 52,
                    "time": 180.60000000000076,
                    "velocity": 0.4409448818897638,
                    "duration": 0.15000000000000568
                },
                {
                    "name": "E2",
                    "midi": 40,
                    "time": 180.60000000000076,
                    "velocity": 0.36220472440944884,
                    "duration": 0.15000000000000568
                },
                {
                    "name": "D2",
                    "midi": 38,
                    "time": 180.90000000000077,
                    "velocity": 0.36220472440944884,
                    "duration": 0.15000000000000568
                },
                {
                    "name": "D3",
                    "midi": 50,
                    "time": 180.90000000000077,
                    "velocity": 0.4330708661417323,
                    "duration": 0.15000000000000568
                },
                {
                    "name": "C3",
                    "midi": 48,
                    "time": 181.20000000000078,
                    "velocity": 0.4251968503937008,
                    "duration": 0.15000000000000568
                },
                {
                    "name": "C2",
                    "midi": 36,
                    "time": 181.20000000000078,
                    "velocity": 0.3543307086614173,
                    "duration": 0.15000000000000568
                },
                {
                    "name": "A#1",
                    "midi": 34,
                    "time": 181.5000000000008,
                    "velocity": 0.3464566929133858,
                    "duration": 0.15000000000000568
                },
                {
                    "name": "A#2",
                    "midi": 46,
                    "time": 181.5000000000008,
                    "velocity": 0.4094488188976378,
                    "duration": 0.15000000000000568
                },
                {
                    "name": "G#1",
                    "midi": 32,
                    "time": 181.8000000000008,
                    "velocity": 0.33858267716535434,
                    "duration": 0.15000000000000568
                },
                {
                    "name": "G#2",
                    "midi": 44,
                    "time": 181.8000000000008,
                    "velocity": 0.4015748031496063,
                    "duration": 0.15000000000000568
                },
                {
                    "name": "F#1",
                    "midi": 30,
                    "time": 182.10000000000082,
                    "velocity": 0.33070866141732286,
                    "duration": 0.15000000000000568
                },
                {
                    "name": "F#2",
                    "midi": 42,
                    "time": 182.10000000000082,
                    "velocity": 0.3937007874015748,
                    "duration": 0.15000000000000568
                },
                {
                    "name": "E1",
                    "midi": 28,
                    "time": 182.40000000000083,
                    "velocity": 0.31496062992125984,
                    "duration": 0.15000000000000568
                },
                {
                    "name": "E2",
                    "midi": 40,
                    "time": 182.40000000000083,
                    "velocity": 0.3858267716535433,
                    "duration": 0.15000000000000568
                },
                {
                    "name": "D1",
                    "midi": 26,
                    "time": 182.70000000000084,
                    "velocity": 0.3858267716535433,
                    "duration": 0.5999999999999943
                },
                {
                    "name": "D2",
                    "midi": 38,
                    "time": 182.70000000000084,
                    "velocity": 0.3858267716535433,
                    "duration": 0.5999999999999943
                },
                {
                    "name": "D3",
                    "midi": 50,
                    "time": 183.30000000000084,
                    "velocity": 0.33070866141732286,
                    "duration": 0.5999999999999943
                },
                {
                    "name": "D2",
                    "midi": 38,
                    "time": 183.30000000000084,
                    "velocity": 0.33070866141732286,
                    "duration": 0.5999999999999943
                },
                {
                    "name": "D4",
                    "midi": 62,
                    "time": 183.90000000000083,
                    "velocity": 0.33858267716535434,
                    "duration": 0.30000000000001137
                },
                {
                    "name": "D3",
                    "midi": 50,
                    "time": 183.90000000000083,
                    "velocity": 0.33858267716535434,
                    "duration": 0.30000000000001137
                },
                {
                    "name": "A#2",
                    "midi": 46,
                    "time": 184.27500000000083,
                    "velocity": 0.18110236220472442,
                    "duration": 0.2999999999999545
                },
                {
                    "name": "F3",
                    "midi": 53,
                    "time": 184.35000000000082,
                    "velocity": 0.2204724409448819,
                    "duration": 0.2999999999999545
                },
                {
                    "name": "A#3",
                    "midi": 58,
                    "time": 184.4250000000008,
                    "velocity": 0.25196850393700787,
                    "duration": 0.2999999999999545
                },
                {
                    "name": "D4",
                    "midi": 62,
                    "time": 184.5000000000008,
                    "velocity": 0.3228346456692913,
                    "duration": 0.18749999999997158
                },
                {
                    "name": "A#1",
                    "midi": 34,
                    "time": 185.40000000000077,
                    "velocity": 0.18110236220472442,
                    "duration": 0.2999999999999545
                },
                {
                    "name": "A#2",
                    "midi": 46,
                    "time": 185.47500000000076,
                    "velocity": 0.1968503937007874,
                    "duration": 0.2999999999999545
                },
                {
                    "name": "F3",
                    "midi": 53,
                    "time": 185.55000000000075,
                    "velocity": 0.2204724409448819,
                    "duration": 0.2999999999999545
                },
                {
                    "name": "A#3",
                    "midi": 58,
                    "time": 185.62500000000074,
                    "velocity": 0.23622047244094488,
                    "duration": 0.2999999999999545
                },
                {
                    "name": "D4",
                    "midi": 62,
                    "time": 185.70000000000073,
                    "velocity": 0.30708661417322836,
                    "duration": 0.8999999999999773
                },
                {
                    "name": "C4",
                    "midi": 60,
                    "time": 186.6000000000007,
                    "velocity": 0.28346456692913385,
                    "duration": 0.1875
                },
                {
                    "name": "A#2",
                    "midi": 46,
                    "time": 186.7875000000007,
                    "velocity": 0.2204724409448819,
                    "duration": 0.29999999999998295
                },
                {
                    "name": "D3",
                    "midi": 50,
                    "time": 186.8250000000007,
                    "velocity": 0.23622047244094488,
                    "duration": 0.29999999999998295
                },
                {
                    "name": "F3",
                    "midi": 53,
                    "time": 186.8625000000007,
                    "velocity": 0.25984251968503935,
                    "duration": 0.29999999999998295
                },
                {
                    "name": "A#3",
                    "midi": 58,
                    "time": 186.9000000000007,
                    "velocity": 0.3228346456692913,
                    "duration": 0.1875
                },
                {
                    "name": "A#1",
                    "midi": 34,
                    "time": 187.80000000000067,
                    "velocity": 0.2047244094488189,
                    "duration": 0.2999999999999545
                },
                {
                    "name": "A#2",
                    "midi": 46,
                    "time": 187.87500000000065,
                    "velocity": 0.2204724409448819,
                    "duration": 0.2999999999999545
                },
                {
                    "name": "D3",
                    "midi": 50,
                    "time": 187.95000000000064,
                    "velocity": 0.25196850393700787,
                    "duration": 0.2999999999999545
                },
                {
                    "name": "F3",
                    "midi": 53,
                    "time": 188.02500000000063,
                    "velocity": 0.2755905511811024,
                    "duration": 0.2999999999999545
                },
                {
                    "name": "A#3",
                    "midi": 58,
                    "time": 188.10000000000062,
                    "velocity": 0.2992125984251969,
                    "duration": 0.8999999999999773
                },
                {
                    "name": "A#3",
                    "midi": 58,
                    "time": 189.0000000000006,
                    "velocity": 0.30708661417322836,
                    "duration": 0.1875
                },
                {
                    "name": "A#2",
                    "midi": 46,
                    "time": 189.1875000000006,
                    "velocity": 0.2204724409448819,
                    "duration": 0.29999999999998295
                },
                {
                    "name": "D#3",
                    "midi": 51,
                    "time": 189.2250000000006,
                    "velocity": 0.2440944881889764,
                    "duration": 0.29999999999998295
                },
                {
                    "name": "F#3",
                    "midi": 54,
                    "time": 189.26250000000059,
                    "velocity": 0.25984251968503935,
                    "duration": 0.29999999999998295
                },
                {
                    "name": "A3",
                    "midi": 57,
                    "time": 189.30000000000058,
                    "velocity": 0.3228346456692913,
                    "duration": 0.8999999999999773
                },
                {
                    "name": "A3",
                    "midi": 57,
                    "time": 190.20000000000056,
                    "velocity": 0.3464566929133858,
                    "duration": 0.1875
                },
                {
                    "name": "F#3",
                    "midi": 54,
                    "time": 190.42500000000055,
                    "velocity": 0.2755905511811024,
                    "duration": 0.29999999999998295
                },
                {
                    "name": "A3",
                    "midi": 57,
                    "time": 190.46250000000055,
                    "velocity": 0.33070866141732286,
                    "duration": 0.29999999999998295
                },
                {
                    "name": "F#4",
                    "midi": 66,
                    "time": 190.50000000000054,
                    "velocity": 0.4330708661417323,
                    "duration": 0.8999999999999773
                },
                {
                    "name": "A3",
                    "midi": 57,
                    "time": 191.40000000000052,
                    "velocity": 0.30708661417322836,
                    "duration": 0.22499999999999432
                },
                {
                    "name": "A#2",
                    "midi": 46,
                    "time": 191.6250000000005,
                    "velocity": 0.2283464566929134,
                    "duration": 0.29999999999998295
                },
                {
                    "name": "F3",
                    "midi": 53,
                    "time": 191.6625000000005,
                    "velocity": 0.2755905511811024,
                    "duration": 0.29999999999998295
                },
                {
                    "name": "C4",
                    "midi": 60,
                    "time": 191.7000000000005,
                    "velocity": 0.3464566929133858,
                    "duration": 1.1999999999999886
                },
                {
                    "name": "A#3",
                    "midi": 58,
                    "time": 192.9000000000005,
                    "velocity": 0.31496062992125984,
                    "duration": 0.30000000000001137
                },
                {
                    "name": "D3",
                    "midi": 50,
                    "time": 193.9875000000005,
                    "velocity": 0.18110236220472442,
                    "duration": 0.29999999999998295
                },
                {
                    "name": "G3",
                    "midi": 55,
                    "time": 194.0250000000005,
                    "velocity": 0.2204724409448819,
                    "duration": 0.29999999999998295
                },
                {
                    "name": "A#3",
                    "midi": 58,
                    "time": 194.06250000000048,
                    "velocity": 0.25196850393700787,
                    "duration": 0.29999999999998295
                },
                {
                    "name": "D4",
                    "midi": 62,
                    "time": 194.10000000000048,
                    "velocity": 0.3543307086614173,
                    "duration": 0.1875
                },
                {
                    "name": "G1",
                    "midi": 31,
                    "time": 195.00000000000045,
                    "velocity": 0.18110236220472442,
                    "duration": 0.2999999999999545
                },
                {
                    "name": "G2",
                    "midi": 43,
                    "time": 195.03750000000045,
                    "velocity": 0.18110236220472442,
                    "duration": 0.2999999999999545
                },
                {
                    "name": "D3",
                    "midi": 50,
                    "time": 195.07500000000044,
                    "velocity": 0.1968503937007874,
                    "duration": 0.2999999999999545
                },
                {
                    "name": "G3",
                    "midi": 55,
                    "time": 195.15000000000043,
                    "velocity": 0.2204724409448819,
                    "duration": 0.2999999999999545
                },
                {
                    "name": "A#3",
                    "midi": 58,
                    "time": 195.22500000000042,
                    "velocity": 0.23622047244094488,
                    "duration": 0.2999999999999545
                },
                {
                    "name": "D4",
                    "midi": 62,
                    "time": 195.3000000000004,
                    "velocity": 0.30708661417322836,
                    "duration": 0.8999999999999773
                },
                {
                    "name": "C4",
                    "midi": 60,
                    "time": 196.2000000000004,
                    "velocity": 0.28346456692913385,
                    "duration": 0.1875
                },
                {
                    "name": "G2",
                    "midi": 43,
                    "time": 196.42500000000038,
                    "velocity": 0.2204724409448819,
                    "duration": 0.29999999999998295
                },
                {
                    "name": "D3",
                    "midi": 50,
                    "time": 196.46250000000038,
                    "velocity": 0.23622047244094488,
                    "duration": 0.29999999999998295
                },
                {
                    "name": "A#3",
                    "midi": 58,
                    "time": 196.50000000000037,
                    "velocity": 0.3228346456692913,
                    "duration": 0.8999999999999773
                },
                {
                    "name": "G1",
                    "midi": 31,
                    "time": 197.40000000000035,
                    "velocity": 0.2047244094488189,
                    "duration": 0.2999999999999545
                },
                {
                    "name": "G2",
                    "midi": 43,
                    "time": 197.47500000000034,
                    "velocity": 0.2204724409448819,
                    "duration": 0.2999999999999545
                },
                {
                    "name": "D3",
                    "midi": 50,
                    "time": 197.55000000000032,
                    "velocity": 0.25196850393700787,
                    "duration": 0.2999999999999545
                },
                {
                    "name": "G3",
                    "midi": 55,
                    "time": 197.6250000000003,
                    "velocity": 0.2755905511811024,
                    "duration": 0.2999999999999545
                },
                {
                    "name": "A#3",
                    "midi": 58,
                    "time": 197.7000000000003,
                    "velocity": 0.2992125984251969,
                    "duration": 0.8999999999999773
                },
                {
                    "name": "A#3",
                    "midi": 58,
                    "time": 198.60000000000028,
                    "velocity": 0.30708661417322836,
                    "duration": 0.1875
                },
                {
                    "name": "C3",
                    "midi": 48,
                    "time": 198.78750000000028,
                    "velocity": 0.2204724409448819,
                    "duration": 0.29999999999998295
                },
                {
                    "name": "E3",
                    "midi": 52,
                    "time": 198.82500000000027,
                    "velocity": 0.2440944881889764,
                    "duration": 0.29999999999998295
                },
                {
                    "name": "A#3",
                    "midi": 58,
                    "time": 198.86250000000027,
                    "velocity": 0.25984251968503935,
                    "duration": 0.29999999999998295
                },
                {
                    "name": "C#4",
                    "midi": 61,
                    "time": 198.90000000000026,
                    "velocity": 0.3228346456692913,
                    "duration": 0.8999999999999773
                },
                {
                    "name": "C4",
                    "midi": 60,
                    "time": 199.80000000000024,
                    "velocity": 0.3464566929133858,
                    "duration": 0.1875
                },
                {
                    "name": "G3",
                    "midi": 55,
                    "time": 200.02500000000023,
                    "velocity": 0.25196850393700787,
                    "duration": 0.29999999999998295
                },
                {
                    "name": "C4",
                    "midi": 60,
                    "time": 200.06250000000023,
                    "velocity": 0.2677165354330709,
                    "duration": 0.29999999999998295
                },
                {
                    "name": "A#4",
                    "midi": 70,
                    "time": 200.10000000000022,
                    "velocity": 0.3779527559055118,
                    "duration": 0.8999999999999773
                },
                {
                    "name": "E4",
                    "midi": 64,
                    "time": 201.0000000000002,
                    "velocity": 0.30708661417322836,
                    "duration": 0.22499999999999432
                },
                {
                    "name": "F2",
                    "midi": 41,
                    "time": 201.1875000000002,
                    "velocity": 0.2283464566929134,
                    "duration": 0.29999999999998295
                },
                {
                    "name": "C3",
                    "midi": 48,
                    "time": 201.2250000000002,
                    "velocity": 0.2283464566929134,
                    "duration": 0.29999999999998295
                },
                {
                    "name": "A3",
                    "midi": 57,
                    "time": 201.2625000000002,
                    "velocity": 0.2755905511811024,
                    "duration": 0.29999999999998295
                },
                {
                    "name": "F4",
                    "midi": 65,
                    "time": 201.30000000000018,
                    "velocity": 0.3464566929133858,
                    "duration": 0.1875
                },
                {
                    "name": "C#3",
                    "midi": 49,
                    "time": 203.58750000000018,
                    "velocity": 0.18110236220472442,
                    "duration": 0.29999999999998295
                },
                {
                    "name": "G#3",
                    "midi": 56,
                    "time": 203.62500000000017,
                    "velocity": 0.2204724409448819,
                    "duration": 0.29999999999998295
                },
                {
                    "name": "C#4",
                    "midi": 61,
                    "time": 203.66250000000016,
                    "velocity": 0.25196850393700787,
                    "duration": 0.29999999999998295
                },
                {
                    "name": "F4",
                    "midi": 65,
                    "time": 203.70000000000016,
                    "velocity": 0.3228346456692913,
                    "duration": 0.1875
                },
                {
                    "name": "C#2",
                    "midi": 37,
                    "time": 204.60000000000014,
                    "velocity": 0.18110236220472442,
                    "duration": 0.2999999999999545
                },
                {
                    "name": "C#3",
                    "midi": 49,
                    "time": 204.67500000000013,
                    "velocity": 0.1968503937007874,
                    "duration": 0.2999999999999545
                },
                {
                    "name": "G#3",
                    "midi": 56,
                    "time": 204.7500000000001,
                    "velocity": 0.2204724409448819,
                    "duration": 0.2999999999999545
                },
                {
                    "name": "C#4",
                    "midi": 61,
                    "time": 204.8250000000001,
                    "velocity": 0.23622047244094488,
                    "duration": 0.2999999999999545
                },
                {
                    "name": "F4",
                    "midi": 65,
                    "time": 204.9000000000001,
                    "velocity": 0.30708661417322836,
                    "duration": 0.8999999999999773
                },
                {
                    "name": "F4",
                    "midi": 65,
                    "time": 205.80000000000007,
                    "velocity": 0.28346456692913385,
                    "duration": 0.1875
                },
                {
                    "name": "G#3",
                    "midi": 56,
                    "time": 205.98750000000007,
                    "velocity": 0.2204724409448819,
                    "duration": 0.29999999999998295
                },
                {
                    "name": "C#4",
                    "midi": 61,
                    "time": 206.02500000000006,
                    "velocity": 0.23622047244094488,
                    "duration": 0.29999999999998295
                },
                {
                    "name": "D#4",
                    "midi": 63,
                    "time": 206.06250000000006,
                    "velocity": 0.25984251968503935,
                    "duration": 0.22499999999999432
                },
                {
                    "name": "G#4",
                    "midi": 68,
                    "time": 206.10000000000005,
                    "velocity": 0.3779527559055118,
                    "duration": 0.1875
                },
                {
                    "name": "G#2",
                    "midi": 44,
                    "time": 207.00000000000006,
                    "velocity": 0.2047244094488189,
                    "duration": 0.2999999999999545
                },
                {
                    "name": "D#3",
                    "midi": 51,
                    "time": 207.07500000000005,
                    "velocity": 0.2204724409448819,
                    "duration": 0.2999999999999545
                },
                {
                    "name": "G#3",
                    "midi": 56,
                    "time": 207.15000000000003,
                    "velocity": 0.25196850393700787,
                    "duration": 0.2999999999999545
                },
                {
                    "name": "C4",
                    "midi": 60,
                    "time": 207.22500000000002,
                    "velocity": 0.2755905511811024,
                    "duration": 0.2999999999999545
                },
                {
                    "name": "D#4",
                    "midi": 63,
                    "time": 207.3,
                    "velocity": 0.2992125984251969,
                    "duration": 0.8999999999999773
                },
                {
                    "name": "C3",
                    "midi": 48,
                    "time": 208.3875,
                    "velocity": 0.18110236220472442,
                    "duration": 0.29999999999998295
                },
                {
                    "name": "G3",
                    "midi": 55,
                    "time": 208.42499999999998,
                    "velocity": 0.2204724409448819,
                    "duration": 0.29999999999998295
                },
                {
                    "name": "C4",
                    "midi": 60,
                    "time": 208.46249999999998,
                    "velocity": 0.25196850393700787,
                    "duration": 0.29999999999998295
                },
                {
                    "name": "D#4",
                    "midi": 63,
                    "time": 208.49999999999997,
                    "velocity": 0.3228346456692913,
                    "duration": 0.1875
                },
                {
                    "name": "C2",
                    "midi": 36,
                    "time": 209.39999999999995,
                    "velocity": 0.18110236220472442,
                    "duration": 0.2999999999999545
                },
                {
                    "name": "C3",
                    "midi": 48,
                    "time": 209.47499999999994,
                    "velocity": 0.1968503937007874,
                    "duration": 0.2999999999999545
                },
                {
                    "name": "G3",
                    "midi": 55,
                    "time": 209.54999999999993,
                    "velocity": 0.2204724409448819,
                    "duration": 0.2999999999999545
                },
                {
                    "name": "C4",
                    "midi": 60,
                    "time": 209.62499999999991,
                    "velocity": 0.23622047244094488,
                    "duration": 0.2999999999999545
                },
                {
                    "name": "D#4",
                    "midi": 63,
                    "time": 209.6999999999999,
                    "velocity": 0.30708661417322836,
                    "duration": 0.8999999999999773
                },
                {
                    "name": "D#4",
                    "midi": 63,
                    "time": 210.59999999999988,
                    "velocity": 0.28346456692913385,
                    "duration": 0.1875
                },
                {
                    "name": "G3",
                    "midi": 55,
                    "time": 210.78749999999988,
                    "velocity": 0.2204724409448819,
                    "duration": 0.29999999999998295
                },
                {
                    "name": "C4",
                    "midi": 60,
                    "time": 210.82499999999987,
                    "velocity": 0.23622047244094488,
                    "duration": 0.29999999999998295
                },
                {
                    "name": "D4",
                    "midi": 62,
                    "time": 210.86249999999987,
                    "velocity": 0.25984251968503935,
                    "duration": 0.22499999999999432
                },
                {
                    "name": "G4",
                    "midi": 67,
                    "time": 210.89999999999986,
                    "velocity": 0.3228346456692913,
                    "duration": 0.1875
                },
                {
                    "name": "G2",
                    "midi": 43,
                    "time": 211.79999999999987,
                    "velocity": 0.2047244094488189,
                    "duration": 0.2999999999999545
                },
                {
                    "name": "D3",
                    "midi": 50,
                    "time": 211.87499999999986,
                    "velocity": 0.2204724409448819,
                    "duration": 0.2999999999999545
                },
                {
                    "name": "G3",
                    "midi": 55,
                    "time": 211.94999999999985,
                    "velocity": 0.25196850393700787,
                    "duration": 0.2999999999999545
                },
                {
                    "name": "B3",
                    "midi": 59,
                    "time": 212.02499999999984,
                    "velocity": 0.2755905511811024,
                    "duration": 0.2999999999999545
                },
                {
                    "name": "D4",
                    "midi": 62,
                    "time": 212.09999999999982,
                    "velocity": 0.2992125984251969,
                    "duration": 0.8999999999999773
                },
                {
                    "name": "A#2",
                    "midi": 46,
                    "time": 213.1874999999998,
                    "velocity": 0.18110236220472442,
                    "duration": 0.29999999999998295
                },
                {
                    "name": "F3",
                    "midi": 53,
                    "time": 213.2249999999998,
                    "velocity": 0.2204724409448819,
                    "duration": 0.29999999999998295
                },
                {
                    "name": "A#3",
                    "midi": 58,
                    "time": 213.2624999999998,
                    "velocity": 0.25196850393700787,
                    "duration": 0.29999999999998295
                },
                {
                    "name": "D4",
                    "midi": 62,
                    "time": 213.29999999999978,
                    "velocity": 0.3228346456692913,
                    "duration": 0.1875
                },
                {
                    "name": "A#1",
                    "midi": 34,
                    "time": 214.19999999999976,
                    "velocity": 0.18110236220472442,
                    "duration": 0.2999999999999545
                },
                {
                    "name": "A#2",
                    "midi": 46,
                    "time": 214.27499999999975,
                    "velocity": 0.1968503937007874,
                    "duration": 0.2999999999999545
                },
                {
                    "name": "F3",
                    "midi": 53,
                    "time": 214.34999999999974,
                    "velocity": 0.2204724409448819,
                    "duration": 0.2999999999999545
                },
                {
                    "name": "A#3",
                    "midi": 58,
                    "time": 214.42499999999973,
                    "velocity": 0.23622047244094488,
                    "duration": 0.2999999999999545
                },
                {
                    "name": "D4",
                    "midi": 62,
                    "time": 214.49999999999972,
                    "velocity": 0.30708661417322836,
                    "duration": 0.8999999999999773
                },
                {
                    "name": "C4",
                    "midi": 60,
                    "time": 215.3999999999997,
                    "velocity": 0.28346456692913385,
                    "duration": 0.1875
                },
                {
                    "name": "G2",
                    "midi": 43,
                    "time": 215.6249999999997,
                    "velocity": 0.23622047244094488,
                    "duration": 0.29999999999998295
                },
                {
                    "name": "D3",
                    "midi": 50,
                    "time": 215.66249999999968,
                    "velocity": 0.25984251968503935,
                    "duration": 0.29999999999998295
                },
                {
                    "name": "A#3",
                    "midi": 58,
                    "time": 215.69999999999968,
                    "velocity": 0.3228346456692913,
                    "duration": 0.8999999999999773
                },
                {
                    "name": "G1",
                    "midi": 31,
                    "time": 216.59999999999965,
                    "velocity": 0.2047244094488189,
                    "duration": 0.2999999999999545
                },
                {
                    "name": "G2",
                    "midi": 43,
                    "time": 216.67499999999964,
                    "velocity": 0.2204724409448819,
                    "duration": 0.2999999999999545
                },
                {
                    "name": "D3",
                    "midi": 50,
                    "time": 216.74999999999963,
                    "velocity": 0.25196850393700787,
                    "duration": 0.2999999999999545
                },
                {
                    "name": "G3",
                    "midi": 55,
                    "time": 216.82499999999962,
                    "velocity": 0.2755905511811024,
                    "duration": 0.2999999999999545
                },
                {
                    "name": "A#3",
                    "midi": 58,
                    "time": 216.8999999999996,
                    "velocity": 0.2992125984251969,
                    "duration": 0.8999999999999773
                },
                {
                    "name": "A#3",
                    "midi": 58,
                    "time": 217.79999999999959,
                    "velocity": 0.28346456692913385,
                    "duration": 0.30000000000001137
                },
                {
                    "name": "D#3",
                    "midi": 51,
                    "time": 218.0999999999996,
                    "velocity": 0.25196850393700787,
                    "duration": 0.30000000000001137
                },
                {
                    "name": "D4",
                    "midi": 62,
                    "time": 218.0999999999996,
                    "velocity": 0.31496062992125984,
                    "duration": 0.6000000000000227
                },
                {
                    "name": "G3",
                    "midi": 55,
                    "time": 218.0999999999996,
                    "velocity": 0.25196850393700787,
                    "duration": 0.30000000000001137
                },
                {
                    "name": "C4",
                    "midi": 60,
                    "time": 218.69999999999962,
                    "velocity": 0.2992125984251969,
                    "duration": 0.6000000000000227
                },
                {
                    "name": "D#2",
                    "midi": 39,
                    "time": 218.69999999999962,
                    "velocity": 0.23622047244094488,
                    "duration": 0.30000000000001137
                },
                {
                    "name": "A#3",
                    "midi": 58,
                    "time": 219.29999999999964,
                    "velocity": 0.2992125984251969,
                    "duration": 0.6000000000000227
                },
                {
                    "name": "D#3",
                    "midi": 51,
                    "time": 219.29999999999964,
                    "velocity": 0.23622047244094488,
                    "duration": 0.30000000000001137
                },
                {
                    "name": "G3",
                    "midi": 55,
                    "time": 219.29999999999964,
                    "velocity": 0.23622047244094488,
                    "duration": 0.30000000000001137
                },
                {
                    "name": "D#2",
                    "midi": 39,
                    "time": 219.89999999999966,
                    "velocity": 0.2283464566929134,
                    "duration": 0.30000000000001137
                },
                {
                    "name": "C4",
                    "midi": 60,
                    "time": 219.89999999999966,
                    "velocity": 0.29133858267716534,
                    "duration": 0.5999999999999943
                },
                {
                    "name": "D2",
                    "midi": 38,
                    "time": 220.38749999999968,
                    "velocity": 0.2283464566929134,
                    "duration": 0.29999999999998295
                },
                {
                    "name": "A2",
                    "midi": 45,
                    "time": 220.42499999999967,
                    "velocity": 0.25196850393700787,
                    "duration": 0.29999999999998295
                },
                {
                    "name": "F#3",
                    "midi": 54,
                    "time": 220.46249999999966,
                    "velocity": 0.2755905511811024,
                    "duration": 0.29999999999998295
                },
                {
                    "name": "D4",
                    "midi": 62,
                    "time": 220.49999999999966,
                    "velocity": 0.29133858267716534,
                    "duration": 0.1875
                },
                {
                    "name": "F#4",
                    "midi": 66,
                    "time": 223.49999999999966,
                    "velocity": 0.1889763779527559,
                    "duration": 0.19999999999998863
                },
                {
                    "name": "D4",
                    "midi": 62,
                    "time": 223.49999999999966,
                    "velocity": 0.15748031496062992,
                    "duration": 0.19999999999998863
                },
                {
                    "name": "A3",
                    "midi": 57,
                    "time": 223.69999999999965,
                    "velocity": 0.1732283464566929,
                    "duration": 0.19999999999998863
                },
                {
                    "name": "D4",
                    "midi": 62,
                    "time": 223.69999999999965,
                    "velocity": 0.2125984251968504,
                    "duration": 0.19999999999998863
                },
                {
                    "name": "F#3",
                    "midi": 54,
                    "time": 223.89999999999964,
                    "velocity": 0.18110236220472442,
                    "duration": 0.19999999999998863
                },
                {
                    "name": "D3",
                    "midi": 50,
                    "time": 223.89999999999964,
                    "velocity": 0.14960629921259844,
                    "duration": 0.19999999999998863
                },
                {
                    "name": "A3",
                    "midi": 57,
                    "time": 224.09999999999962,
                    "velocity": 0.1732283464566929,
                    "duration": 0.19999999999998863
                },
                {
                    "name": "D4",
                    "midi": 62,
                    "time": 224.09999999999962,
                    "velocity": 0.2047244094488189,
                    "duration": 0.19999999999998863
                },
                {
                    "name": "D3",
                    "midi": 50,
                    "time": 224.2999999999996,
                    "velocity": 0.15748031496062992,
                    "duration": 0.19999999999998863
                },
                {
                    "name": "F#3",
                    "midi": 54,
                    "time": 224.2999999999996,
                    "velocity": 0.1889763779527559,
                    "duration": 0.19999999999998863
                },
                {
                    "name": "D1",
                    "midi": 26,
                    "time": 224.4999999999996,
                    "velocity": 0.2283464566929134,
                    "duration": 0.19999999999998863
                },
                {
                    "name": "D2",
                    "midi": 38,
                    "time": 224.6999999999996,
                    "velocity": 0.1889763779527559,
                    "duration": 0.30000000000001137
                },
                {
                    "name": "D3",
                    "midi": 50,
                    "time": 224.9999999999996,
                    "velocity": 0.2283464566929134,
                    "duration": 0.30000000000001137
                },
                {
                    "name": "D4",
                    "midi": 62,
                    "time": 225.2999999999996,
                    "velocity": 0.2204724409448819,
                    "duration": 0.30000000000001137
                },
                {
                    "name": "A#2",
                    "midi": 46,
                    "time": 227.69999999999962,
                    "velocity": 0.3228346456692913,
                    "duration": 0.19999999999998863
                },
                {
                    "name": "F3",
                    "midi": 53,
                    "time": 227.8999999999996,
                    "velocity": 0.14173228346456693,
                    "duration": 0.18000000000000682
                },
                {
                    "name": "D4",
                    "midi": 62,
                    "time": 227.8999999999996,
                    "velocity": 0.1732283464566929,
                    "duration": 0.18000000000000682
                },
                {
                    "name": "F4",
                    "midi": 65,
                    "time": 227.8999999999996,
                    "velocity": 0.1732283464566929,
                    "duration": 0.18000000000000682
                },
                {
                    "name": "A#5",
                    "midi": 82,
                    "time": 227.8999999999996,
                    "velocity": 0.2047244094488189,
                    "duration": 0.18000000000000682
                },
                {
                    "name": "F5",
                    "midi": 77,
                    "time": 227.8999999999996,
                    "velocity": 0.2047244094488189,
                    "duration": 0.18000000000000682
                },
                {
                    "name": "D4",
                    "midi": 62,
                    "time": 228.09999999999962,
                    "velocity": 0.18110236220472442,
                    "duration": 0.18000000000000682
                },
                {
                    "name": "F#3",
                    "midi": 54,
                    "time": 228.09999999999962,
                    "velocity": 0.14960629921259844,
                    "duration": 0.18000000000000682
                },
                {
                    "name": "F4",
                    "midi": 65,
                    "time": 228.09999999999962,
                    "velocity": 0.18110236220472442,
                    "duration": 0.18000000000000682
                },
                {
                    "name": "A#5",
                    "midi": 82,
                    "time": 228.09999999999962,
                    "velocity": 0.2204724409448819,
                    "duration": 0.18000000000000682
                },
                {
                    "name": "F5",
                    "midi": 77,
                    "time": 228.09999999999962,
                    "velocity": 0.2204724409448819,
                    "duration": 0.18000000000000682
                },
                {
                    "name": "F4",
                    "midi": 65,
                    "time": 228.29999999999964,
                    "velocity": 0.1889763779527559,
                    "duration": 0.18000000000000682
                },
                {
                    "name": "D4",
                    "midi": 62,
                    "time": 228.29999999999964,
                    "velocity": 0.1889763779527559,
                    "duration": 0.18000000000000682
                },
                {
                    "name": "A#5",
                    "midi": 82,
                    "time": 228.29999999999964,
                    "velocity": 0.2283464566929134,
                    "duration": 0.18000000000000682
                },
                {
                    "name": "F5",
                    "midi": 77,
                    "time": 228.29999999999964,
                    "velocity": 0.2283464566929134,
                    "duration": 0.18000000000000682
                },
                {
                    "name": "G3",
                    "midi": 55,
                    "time": 228.29999999999964,
                    "velocity": 0.15748031496062992,
                    "duration": 0.18000000000000682
                },
                {
                    "name": "F5",
                    "midi": 77,
                    "time": 228.49999999999966,
                    "velocity": 0.2440944881889764,
                    "duration": 0.18000000000000682
                },
                {
                    "name": "A#5",
                    "midi": 82,
                    "time": 228.49999999999966,
                    "velocity": 0.2440944881889764,
                    "duration": 0.18000000000000682
                },
                {
                    "name": "D4",
                    "midi": 62,
                    "time": 228.49999999999966,
                    "velocity": 0.2047244094488189,
                    "duration": 0.18000000000000682
                },
                {
                    "name": "F4",
                    "midi": 65,
                    "time": 228.49999999999966,
                    "velocity": 0.2047244094488189,
                    "duration": 0.18000000000000682
                },
                {
                    "name": "G#3",
                    "midi": 56,
                    "time": 228.49999999999966,
                    "velocity": 0.1732283464566929,
                    "duration": 0.18000000000000682
                },
                {
                    "name": "D4",
                    "midi": 62,
                    "time": 228.69999999999968,
                    "velocity": 0.2125984251968504,
                    "duration": 0.18000000000000682
                },
                {
                    "name": "F4",
                    "midi": 65,
                    "time": 228.69999999999968,
                    "velocity": 0.2125984251968504,
                    "duration": 0.18000000000000682
                },
                {
                    "name": "F5",
                    "midi": 77,
                    "time": 228.69999999999968,
                    "velocity": 0.25196850393700787,
                    "duration": 0.18000000000000682
                },
                {
                    "name": "A#5",
                    "midi": 82,
                    "time": 228.69999999999968,
                    "velocity": 0.25196850393700787,
                    "duration": 0.18000000000000682
                },
                {
                    "name": "A3",
                    "midi": 57,
                    "time": 228.69999999999968,
                    "velocity": 0.1732283464566929,
                    "duration": 0.18000000000000682
                },
                {
                    "name": "F4",
                    "midi": 65,
                    "time": 228.8999999999997,
                    "velocity": 0.2204724409448819,
                    "duration": 0.18000000000000682
                },
                {
                    "name": "D4",
                    "midi": 62,
                    "time": 228.8999999999997,
                    "velocity": 0.2204724409448819,
                    "duration": 0.18000000000000682
                },
                {
                    "name": "A#3",
                    "midi": 58,
                    "time": 228.8999999999997,
                    "velocity": 0.18110236220472442,
                    "duration": 0.18000000000000682
                },
                {
                    "name": "F5",
                    "midi": 77,
                    "time": 229.0999999999997,
                    "velocity": 0.2755905511811024,
                    "duration": 0.18000000000000682
                },
                {
                    "name": "A#5",
                    "midi": 82,
                    "time": 229.0999999999997,
                    "velocity": 0.2755905511811024,
                    "duration": 0.18000000000000682
                },
                {
                    "name": "B3",
                    "midi": 59,
                    "time": 229.0999999999997,
                    "velocity": 0.1889763779527559,
                    "duration": 0.18000000000000682
                },
                {
                    "name": "D4",
                    "midi": 62,
                    "time": 229.0999999999997,
                    "velocity": 0.2283464566929134,
                    "duration": 0.18000000000000682
                },
                {
                    "name": "F4",
                    "midi": 65,
                    "time": 229.0999999999997,
                    "velocity": 0.2283464566929134,
                    "duration": 0.18000000000000682
                },
                {
                    "name": "F5",
                    "midi": 77,
                    "time": 229.29999999999973,
                    "velocity": 0.28346456692913385,
                    "duration": 0.18000000000000682
                },
                {
                    "name": "D4",
                    "midi": 62,
                    "time": 229.29999999999973,
                    "velocity": 0.23622047244094488,
                    "duration": 0.18000000000000682
                },
                {
                    "name": "F4",
                    "midi": 65,
                    "time": 229.29999999999973,
                    "velocity": 0.23622047244094488,
                    "duration": 0.18000000000000682
                },
                {
                    "name": "A#5",
                    "midi": 82,
                    "time": 229.29999999999973,
                    "velocity": 0.28346456692913385,
                    "duration": 0.18000000000000682
                },
                {
                    "name": "C4",
                    "midi": 60,
                    "time": 229.29999999999973,
                    "velocity": 0.1968503937007874,
                    "duration": 0.18000000000000682
                },
                {
                    "name": "F5",
                    "midi": 77,
                    "time": 229.49999999999974,
                    "velocity": 0.2992125984251969,
                    "duration": 0.18000000000000682
                },
                {
                    "name": "F4",
                    "midi": 65,
                    "time": 229.49999999999974,
                    "velocity": 0.25196850393700787,
                    "duration": 0.18000000000000682
                },
                {
                    "name": "C#4",
                    "midi": 61,
                    "time": 229.49999999999974,
                    "velocity": 0.2125984251968504,
                    "duration": 0.18000000000000682
                },
                {
                    "name": "A#5",
                    "midi": 82,
                    "time": 229.49999999999974,
                    "velocity": 0.2992125984251969,
                    "duration": 0.18000000000000682
                },
                {
                    "name": "D4",
                    "midi": 62,
                    "time": 229.49999999999974,
                    "velocity": 0.25196850393700787,
                    "duration": 0.18000000000000682
                },
                {
                    "name": "A#5",
                    "midi": 82,
                    "time": 229.69999999999976,
                    "velocity": 0.30708661417322836,
                    "duration": 0.18000000000000682
                },
                {
                    "name": "D4",
                    "midi": 62,
                    "time": 229.69999999999976,
                    "velocity": 0.25984251968503935,
                    "duration": 0.18000000000000682
                },
                {
                    "name": "F4",
                    "midi": 65,
                    "time": 229.69999999999976,
                    "velocity": 0.25984251968503935,
                    "duration": 0.18000000000000682
                },
                {
                    "name": "F5",
                    "midi": 77,
                    "time": 229.69999999999976,
                    "velocity": 0.30708661417322836,
                    "duration": 0.18000000000000682
                },
                {
                    "name": "A#2",
                    "midi": 46,
                    "time": 230.09999999999977,
                    "velocity": 0.3228346456692913,
                    "duration": 0.19999999999998863
                },
                {
                    "name": "F3",
                    "midi": 53,
                    "time": 230.29999999999976,
                    "velocity": 0.14173228346456693,
                    "duration": 0.18000000000000682
                },
                {
                    "name": "D4",
                    "midi": 62,
                    "time": 230.29999999999976,
                    "velocity": 0.1732283464566929,
                    "duration": 0.18000000000000682
                },
                {
                    "name": "F4",
                    "midi": 65,
                    "time": 230.29999999999976,
                    "velocity": 0.1732283464566929,
                    "duration": 0.18000000000000682
                },
                {
                    "name": "F5",
                    "midi": 77,
                    "time": 230.29999999999976,
                    "velocity": 0.2047244094488189,
                    "duration": 0.18000000000000682
                },
                {
                    "name": "D5",
                    "midi": 74,
                    "time": 230.29999999999976,
                    "velocity": 0.2047244094488189,
                    "duration": 0.18000000000000682
                },
                {
                    "name": "F5",
                    "midi": 77,
                    "time": 230.49999999999977,
                    "velocity": 0.2204724409448819,
                    "duration": 0.18000000000000682
                },
                {
                    "name": "F4",
                    "midi": 65,
                    "time": 230.49999999999977,
                    "velocity": 0.18110236220472442,
                    "duration": 0.18000000000000682
                },
                {
                    "name": "D5",
                    "midi": 74,
                    "time": 230.49999999999977,
                    "velocity": 0.2204724409448819,
                    "duration": 0.18000000000000682
                },
                {
                    "name": "D4",
                    "midi": 62,
                    "time": 230.49999999999977,
                    "velocity": 0.18110236220472442,
                    "duration": 0.18000000000000682
                },
                {
                    "name": "F#3",
                    "midi": 54,
                    "time": 230.49999999999977,
                    "velocity": 0.14960629921259844,
                    "duration": 0.18000000000000682
                },
                {
                    "name": "F4",
                    "midi": 65,
                    "time": 230.6999999999998,
                    "velocity": 0.1889763779527559,
                    "duration": 0.18000000000000682
                },
                {
                    "name": "D4",
                    "midi": 62,
                    "time": 230.6999999999998,
                    "velocity": 0.1889763779527559,
                    "duration": 0.18000000000000682
                },
                {
                    "name": "F5",
                    "midi": 77,
                    "time": 230.6999999999998,
                    "velocity": 0.2283464566929134,
                    "duration": 0.18000000000000682
                },
                {
                    "name": "G3",
                    "midi": 55,
                    "time": 230.6999999999998,
                    "velocity": 0.15748031496062992,
                    "duration": 0.18000000000000682
                },
                {
                    "name": "D5",
                    "midi": 74,
                    "time": 230.6999999999998,
                    "velocity": 0.2283464566929134,
                    "duration": 0.18000000000000682
                },
                {
                    "name": "D4",
                    "midi": 62,
                    "time": 230.8999999999998,
                    "velocity": 0.2047244094488189,
                    "duration": 0.18000000000000682
                },
                {
                    "name": "G#3",
                    "midi": 56,
                    "time": 230.8999999999998,
                    "velocity": 0.1732283464566929,
                    "duration": 0.18000000000000682
                },
                {
                    "name": "F5",
                    "midi": 77,
                    "time": 230.8999999999998,
                    "velocity": 0.2440944881889764,
                    "duration": 0.18000000000000682
                },
                {
                    "name": "D5",
                    "midi": 74,
                    "time": 230.8999999999998,
                    "velocity": 0.2440944881889764,
                    "duration": 0.18000000000000682
                },
                {
                    "name": "F4",
                    "midi": 65,
                    "time": 230.8999999999998,
                    "velocity": 0.2047244094488189,
                    "duration": 0.18000000000000682
                },
                {
                    "name": "D5",
                    "midi": 74,
                    "time": 231.09999999999982,
                    "velocity": 0.25196850393700787,
                    "duration": 0.18000000000000682
                },
                {
                    "name": "F5",
                    "midi": 77,
                    "time": 231.09999999999982,
                    "velocity": 0.25196850393700787,
                    "duration": 0.18000000000000682
                },
                {
                    "name": "A3",
                    "midi": 57,
                    "time": 231.09999999999982,
                    "velocity": 0.1732283464566929,
                    "duration": 0.18000000000000682
                },
                {
                    "name": "F4",
                    "midi": 65,
                    "time": 231.09999999999982,
                    "velocity": 0.2125984251968504,
                    "duration": 0.18000000000000682
                },
                {
                    "name": "D4",
                    "midi": 62,
                    "time": 231.09999999999982,
                    "velocity": 0.2125984251968504,
                    "duration": 0.18000000000000682
                },
                {
                    "name": "A#3",
                    "midi": 58,
                    "time": 231.29999999999984,
                    "velocity": 0.18110236220472442,
                    "duration": 0.18000000000000682
                },
                {
                    "name": "D4",
                    "midi": 62,
                    "time": 231.29999999999984,
                    "velocity": 0.2204724409448819,
                    "duration": 0.18000000000000682
                },
                {
                    "name": "F4",
                    "midi": 65,
                    "time": 231.29999999999984,
                    "velocity": 0.2204724409448819,
                    "duration": 0.18000000000000682
                },
                {
                    "name": "F4",
                    "midi": 65,
                    "time": 231.49999999999986,
                    "velocity": 0.2283464566929134,
                    "duration": 0.18000000000000682
                },
                {
                    "name": "F5",
                    "midi": 77,
                    "time": 231.49999999999986,
                    "velocity": 0.2755905511811024,
                    "duration": 0.18000000000000682
                },
                {
                    "name": "D5",
                    "midi": 74,
                    "time": 231.49999999999986,
                    "velocity": 0.2755905511811024,
                    "duration": 0.18000000000000682
                },
                {
                    "name": "B3",
                    "midi": 59,
                    "time": 231.49999999999986,
                    "velocity": 0.1889763779527559,
                    "duration": 0.18000000000000682
                },
                {
                    "name": "D4",
                    "midi": 62,
                    "time": 231.49999999999986,
                    "velocity": 0.2283464566929134,
                    "duration": 0.18000000000000682
                },
                {
                    "name": "F5",
                    "midi": 77,
                    "time": 231.69999999999987,
                    "velocity": 0.28346456692913385,
                    "duration": 0.18000000000000682
                },
                {
                    "name": "C4",
                    "midi": 60,
                    "time": 231.69999999999987,
                    "velocity": 0.1968503937007874,
                    "duration": 0.18000000000000682
                },
                {
                    "name": "D5",
                    "midi": 74,
                    "time": 231.69999999999987,
                    "velocity": 0.28346456692913385,
                    "duration": 0.18000000000000682
                },
                {
                    "name": "D4",
                    "midi": 62,
                    "time": 231.69999999999987,
                    "velocity": 0.23622047244094488,
                    "duration": 0.18000000000000682
                },
                {
                    "name": "F4",
                    "midi": 65,
                    "time": 231.69999999999987,
                    "velocity": 0.23622047244094488,
                    "duration": 0.18000000000000682
                },
                {
                    "name": "D5",
                    "midi": 74,
                    "time": 231.8999999999999,
                    "velocity": 0.2992125984251969,
                    "duration": 0.18000000000000682
                },
                {
                    "name": "D4",
                    "midi": 62,
                    "time": 231.8999999999999,
                    "velocity": 0.25196850393700787,
                    "duration": 0.18000000000000682
                },
                {
                    "name": "C#4",
                    "midi": 61,
                    "time": 231.8999999999999,
                    "velocity": 0.2125984251968504,
                    "duration": 0.18000000000000682
                },
                {
                    "name": "F4",
                    "midi": 65,
                    "time": 231.8999999999999,
                    "velocity": 0.25196850393700787,
                    "duration": 0.18000000000000682
                },
                {
                    "name": "F5",
                    "midi": 77,
                    "time": 231.8999999999999,
                    "velocity": 0.2992125984251969,
                    "duration": 0.18000000000000682
                },
                {
                    "name": "F5",
                    "midi": 77,
                    "time": 232.0999999999999,
                    "velocity": 0.30708661417322836,
                    "duration": 0.18000000000000682
                },
                {
                    "name": "D5",
                    "midi": 74,
                    "time": 232.0999999999999,
                    "velocity": 0.30708661417322836,
                    "duration": 0.18000000000000682
                },
                {
                    "name": "D4",
                    "midi": 62,
                    "time": 232.0999999999999,
                    "velocity": 0.25984251968503935,
                    "duration": 0.18000000000000682
                },
                {
                    "name": "F4",
                    "midi": 65,
                    "time": 232.0999999999999,
                    "velocity": 0.25984251968503935,
                    "duration": 0.18000000000000682
                },
                {
                    "name": "A#2",
                    "midi": 46,
                    "time": 232.49999999999991,
                    "velocity": 0.3228346456692913,
                    "duration": 0.19999999999998863
                },
                {
                    "name": "C5",
                    "midi": 72,
                    "time": 232.6999999999999,
                    "velocity": 0.2204724409448819,
                    "duration": 0.18000000000000682
                },
                {
                    "name": "D#5",
                    "midi": 75,
                    "time": 232.6999999999999,
                    "velocity": 0.2204724409448819,
                    "duration": 0.18000000000000682
                },
                {
                    "name": "D#4",
                    "midi": 63,
                    "time": 232.6999999999999,
                    "velocity": 0.1889763779527559,
                    "duration": 0.18000000000000682
                },
                {
                    "name": "F#4",
                    "midi": 66,
                    "time": 232.6999999999999,
                    "velocity": 0.1889763779527559,
                    "duration": 0.18000000000000682
                },
                {
                    "name": "F#3",
                    "midi": 54,
                    "time": 232.6999999999999,
                    "velocity": 0.14960629921259844,
                    "duration": 0.18000000000000682
                },
                {
                    "name": "D#5",
                    "midi": 75,
                    "time": 232.89999999999992,
                    "velocity": 0.23622047244094488,
                    "duration": 0.18000000000000682
                },
                {
                    "name": "F#4",
                    "midi": 66,
                    "time": 232.89999999999992,
                    "velocity": 0.1968503937007874,
                    "duration": 0.18000000000000682
                },
                {
                    "name": "D#4",
                    "midi": 63,
                    "time": 232.89999999999992,
                    "velocity": 0.1968503937007874,
                    "duration": 0.18000000000000682
                },
                {
                    "name": "C5",
                    "midi": 72,
                    "time": 232.89999999999992,
                    "velocity": 0.23622047244094488,
                    "duration": 0.18000000000000682
                },
                {
                    "name": "G3",
                    "midi": 55,
                    "time": 232.89999999999992,
                    "velocity": 0.15748031496062992,
                    "duration": 0.18000000000000682
                },
                {
                    "name": "D#5",
                    "midi": 75,
                    "time": 233.09999999999994,
                    "velocity": 0.2440944881889764,
                    "duration": 0.18000000000000682
                },
                {
                    "name": "C5",
                    "midi": 72,
                    "time": 233.09999999999994,
                    "velocity": 0.2440944881889764,
                    "duration": 0.18000000000000682
                },
                {
                    "name": "F#4",
                    "midi": 66,
                    "time": 233.09999999999994,
                    "velocity": 0.2047244094488189,
                    "duration": 0.18000000000000682
                },
                {
                    "name": "D#4",
                    "midi": 63,
                    "time": 233.09999999999994,
                    "velocity": 0.2047244094488189,
                    "duration": 0.18000000000000682
                },
                {
                    "name": "G#3",
                    "midi": 56,
                    "time": 233.09999999999994,
                    "velocity": 0.1732283464566929,
                    "duration": 0.18000000000000682
                },
                {
                    "name": "C5",
                    "midi": 72,
                    "time": 233.29999999999995,
                    "velocity": 0.2677165354330709,
                    "duration": 0.18000000000000682
                },
                {
                    "name": "D#4",
                    "midi": 63,
                    "time": 233.29999999999995,
                    "velocity": 0.2204724409448819,
                    "duration": 0.18000000000000682
                },
                {
                    "name": "F#4",
                    "midi": 66,
                    "time": 233.29999999999995,
                    "velocity": 0.2204724409448819,
                    "duration": 0.18000000000000682
                },
                {
                    "name": "D#5",
                    "midi": 75,
                    "time": 233.29999999999995,
                    "velocity": 0.2677165354330709,
                    "duration": 0.18000000000000682
                },
                {
                    "name": "A3",
                    "midi": 57,
                    "time": 233.29999999999995,
                    "velocity": 0.1889763779527559,
                    "duration": 0.18000000000000682
                },
                {
                    "name": "D#4",
                    "midi": 63,
                    "time": 233.49999999999997,
                    "velocity": 0.2283464566929134,
                    "duration": 0.18000000000000682
                },
                {
                    "name": "A#3",
                    "midi": 58,
                    "time": 233.49999999999997,
                    "velocity": 0.1889763779527559,
                    "duration": 0.18000000000000682
                },
                {
                    "name": "F#4",
                    "midi": 66,
                    "time": 233.49999999999997,
                    "velocity": 0.2283464566929134,
                    "duration": 0.18000000000000682
                },
                {
                    "name": "D#4",
                    "midi": 63,
                    "time": 233.7,
                    "velocity": 0.23622047244094488,
                    "duration": 0.18000000000000682
                },
                {
                    "name": "B3",
                    "midi": 59,
                    "time": 233.7,
                    "velocity": 0.1968503937007874,
                    "duration": 0.18000000000000682
                },
                {
                    "name": "F#4",
                    "midi": 66,
                    "time": 233.7,
                    "velocity": 0.23622047244094488,
                    "duration": 0.18000000000000682
                },
                {
                    "name": "A5",
                    "midi": 81,
                    "time": 233.9,
                    "velocity": 0.2992125984251969,
                    "duration": 0.18000000000000682
                },
                {
                    "name": "F#4",
                    "midi": 66,
                    "time": 233.9,
                    "velocity": 0.2440944881889764,
                    "duration": 0.18000000000000682
                },
                {
                    "name": "C6",
                    "midi": 84,
                    "time": 233.9,
                    "velocity": 0.2992125984251969,
                    "duration": 0.18000000000000682
                },
                {
                    "name": "C4",
                    "midi": 60,
                    "time": 233.9,
                    "velocity": 0.2047244094488189,
                    "duration": 0.18000000000000682
                },
                {
                    "name": "D#4",
                    "midi": 63,
                    "time": 233.9,
                    "velocity": 0.2440944881889764,
                    "duration": 0.18000000000000682
                },
                {
                    "name": "C#4",
                    "midi": 61,
                    "time": 234.10000000000002,
                    "velocity": 0.2125984251968504,
                    "duration": 0.18000000000000682
                },
                {
                    "name": "D#4",
                    "midi": 63,
                    "time": 234.10000000000002,
                    "velocity": 0.25984251968503935,
                    "duration": 0.18000000000000682
                },
                {
                    "name": "F#4",
                    "midi": 66,
                    "time": 234.10000000000002,
                    "velocity": 0.25984251968503935,
                    "duration": 0.18000000000000682
                },
                {
                    "name": "A5",
                    "midi": 81,
                    "time": 234.10000000000002,
                    "velocity": 0.30708661417322836,
                    "duration": 0.18000000000000682
                },
                {
                    "name": "C6",
                    "midi": 84,
                    "time": 234.10000000000002,
                    "velocity": 0.30708661417322836,
                    "duration": 0.18000000000000682
                },
                {
                    "name": "D#4",
                    "midi": 63,
                    "time": 234.30000000000004,
                    "velocity": 0.2755905511811024,
                    "duration": 0.18000000000000682
                },
                {
                    "name": "F#4",
                    "midi": 66,
                    "time": 234.30000000000004,
                    "velocity": 0.2755905511811024,
                    "duration": 0.18000000000000682
                },
                {
                    "name": "C6",
                    "midi": 84,
                    "time": 234.30000000000004,
                    "velocity": 0.3228346456692913,
                    "duration": 0.18000000000000682
                },
                {
                    "name": "A5",
                    "midi": 81,
                    "time": 234.30000000000004,
                    "velocity": 0.3228346456692913,
                    "duration": 0.18000000000000682
                },
                {
                    "name": "D4",
                    "midi": 62,
                    "time": 234.30000000000004,
                    "velocity": 0.2283464566929134,
                    "duration": 0.18000000000000682
                },
                {
                    "name": "C6",
                    "midi": 84,
                    "time": 234.50000000000006,
                    "velocity": 0.33070866141732286,
                    "duration": 0.18000000000000682
                },
                {
                    "name": "F#4",
                    "midi": 66,
                    "time": 234.50000000000006,
                    "velocity": 0.28346456692913385,
                    "duration": 0.18000000000000682
                },
                {
                    "name": "A5",
                    "midi": 81,
                    "time": 234.50000000000006,
                    "velocity": 0.33070866141732286,
                    "duration": 0.18000000000000682
                },
                {
                    "name": "D#4",
                    "midi": 63,
                    "time": 234.50000000000006,
                    "velocity": 0.28346456692913385,
                    "duration": 0.18000000000000682
                },
                {
                    "name": "A#2",
                    "midi": 46,
                    "time": 234.90000000000006,
                    "velocity": 0.3228346456692913,
                    "duration": 0.19999999999998863
                },
                {
                    "name": "F5",
                    "midi": 77,
                    "time": 235.10000000000005,
                    "velocity": 0.2204724409448819,
                    "duration": 0.18000000000000682
                },
                {
                    "name": "F3",
                    "midi": 53,
                    "time": 235.10000000000005,
                    "velocity": 0.14960629921259844,
                    "duration": 0.18000000000000682
                },
                {
                    "name": "F4",
                    "midi": 65,
                    "time": 235.10000000000005,
                    "velocity": 0.1889763779527559,
                    "duration": 0.18000000000000682
                },
                {
                    "name": "D4",
                    "midi": 62,
                    "time": 235.10000000000005,
                    "velocity": 0.1889763779527559,
                    "duration": 0.18000000000000682
                },
                {
                    "name": "D5",
                    "midi": 74,
                    "time": 235.10000000000005,
                    "velocity": 0.2204724409448819,
                    "duration": 0.18000000000000682
                },
                {
                    "name": "D5",
                    "midi": 74,
                    "time": 235.30000000000007,
                    "velocity": 0.23622047244094488,
                    "duration": 0.18000000000000682
                },
                {
                    "name": "D4",
                    "midi": 62,
                    "time": 235.30000000000007,
                    "velocity": 0.1968503937007874,
                    "duration": 0.18000000000000682
                },
                {
                    "name": "F4",
                    "midi": 65,
                    "time": 235.30000000000007,
                    "velocity": 0.1968503937007874,
                    "duration": 0.18000000000000682
                },
                {
                    "name": "F5",
                    "midi": 77,
                    "time": 235.30000000000007,
                    "velocity": 0.23622047244094488,
                    "duration": 0.18000000000000682
                },
                {
                    "name": "F#3",
                    "midi": 54,
                    "time": 235.30000000000007,
                    "velocity": 0.15748031496062992,
                    "duration": 0.18000000000000682
                },
                {
                    "name": "D5",
                    "midi": 74,
                    "time": 235.50000000000009,
                    "velocity": 0.2440944881889764,
                    "duration": 0.18000000000000682
                },
                {
                    "name": "G3",
                    "midi": 55,
                    "time": 235.50000000000009,
                    "velocity": 0.1732283464566929,
                    "duration": 0.18000000000000682
                },
                {
                    "name": "F4",
                    "midi": 65,
                    "time": 235.50000000000009,
                    "velocity": 0.2047244094488189,
                    "duration": 0.18000000000000682
                },
                {
                    "name": "F5",
                    "midi": 77,
                    "time": 235.50000000000009,
                    "velocity": 0.2440944881889764,
                    "duration": 0.18000000000000682
                },
                {
                    "name": "D4",
                    "midi": 62,
                    "time": 235.50000000000009,
                    "velocity": 0.2047244094488189,
                    "duration": 0.18000000000000682
                },
                {
                    "name": "G#3",
                    "midi": 56,
                    "time": 235.7000000000001,
                    "velocity": 0.1889763779527559,
                    "duration": 0.18000000000000682
                },
                {
                    "name": "D5",
                    "midi": 74,
                    "time": 235.7000000000001,
                    "velocity": 0.2677165354330709,
                    "duration": 0.18000000000000682
                },
                {
                    "name": "D4",
                    "midi": 62,
                    "time": 235.7000000000001,
                    "velocity": 0.2204724409448819,
                    "duration": 0.18000000000000682
                },
                {
                    "name": "F5",
                    "midi": 77,
                    "time": 235.7000000000001,
                    "velocity": 0.2677165354330709,
                    "duration": 0.18000000000000682
                },
                {
                    "name": "F4",
                    "midi": 65,
                    "time": 235.7000000000001,
                    "velocity": 0.2204724409448819,
                    "duration": 0.18000000000000682
                },
                {
                    "name": "F4",
                    "midi": 65,
                    "time": 235.90000000000012,
                    "velocity": 0.2283464566929134,
                    "duration": 0.18000000000000682
                },
                {
                    "name": "D5",
                    "midi": 74,
                    "time": 235.90000000000012,
                    "velocity": 0.2755905511811024,
                    "duration": 0.18000000000000682
                },
                {
                    "name": "A3",
                    "midi": 57,
                    "time": 235.90000000000012,
                    "velocity": 0.1889763779527559,
                    "duration": 0.18000000000000682
                },
                {
                    "name": "D4",
                    "midi": 62,
                    "time": 235.90000000000012,
                    "velocity": 0.2283464566929134,
                    "duration": 0.18000000000000682
                },
                {
                    "name": "F5",
                    "midi": 77,
                    "time": 235.90000000000012,
                    "velocity": 0.2755905511811024,
                    "duration": 0.18000000000000682
                },
                {
                    "name": "D4",
                    "midi": 62,
                    "time": 236.10000000000014,
                    "velocity": 0.23622047244094488,
                    "duration": 0.18000000000000682
                },
                {
                    "name": "A#3",
                    "midi": 58,
                    "time": 236.10000000000014,
                    "velocity": 0.1968503937007874,
                    "duration": 0.18000000000000682
                },
                {
                    "name": "F4",
                    "midi": 65,
                    "time": 236.10000000000014,
                    "velocity": 0.23622047244094488,
                    "duration": 0.18000000000000682
                },
                {
                    "name": "B3",
                    "midi": 59,
                    "time": 236.30000000000015,
                    "velocity": 0.2047244094488189,
                    "duration": 0.18000000000000682
                },
                {
                    "name": "D5",
                    "midi": 74,
                    "time": 236.30000000000015,
                    "velocity": 0.2992125984251969,
                    "duration": 0.18000000000000682
                },
                {
                    "name": "D4",
                    "midi": 62,
                    "time": 236.30000000000015,
                    "velocity": 0.2440944881889764,
                    "duration": 0.18000000000000682
                },
                {
                    "name": "F4",
                    "midi": 65,
                    "time": 236.30000000000015,
                    "velocity": 0.2440944881889764,
                    "duration": 0.18000000000000682
                },
                {
                    "name": "F5",
                    "midi": 77,
                    "time": 236.30000000000015,
                    "velocity": 0.2992125984251969,
                    "duration": 0.18000000000000682
                },
                {
                    "name": "F4",
                    "midi": 65,
                    "time": 236.50000000000017,
                    "velocity": 0.25984251968503935,
                    "duration": 0.18000000000000682
                },
                {
                    "name": "C4",
                    "midi": 60,
                    "time": 236.50000000000017,
                    "velocity": 0.2125984251968504,
                    "duration": 0.18000000000000682
                },
                {
                    "name": "D5",
                    "midi": 74,
                    "time": 236.50000000000017,
                    "velocity": 0.30708661417322836,
                    "duration": 0.18000000000000682
                },
                {
                    "name": "F5",
                    "midi": 77,
                    "time": 236.50000000000017,
                    "velocity": 0.30708661417322836,
                    "duration": 0.18000000000000682
                },
                {
                    "name": "D4",
                    "midi": 62,
                    "time": 236.50000000000017,
                    "velocity": 0.25984251968503935,
                    "duration": 0.18000000000000682
                },
                {
                    "name": "C#4",
                    "midi": 61,
                    "time": 236.7000000000002,
                    "velocity": 0.2283464566929134,
                    "duration": 0.18000000000000682
                },
                {
                    "name": "F5",
                    "midi": 77,
                    "time": 236.7000000000002,
                    "velocity": 0.3228346456692913,
                    "duration": 0.18000000000000682
                },
                {
                    "name": "D5",
                    "midi": 74,
                    "time": 236.7000000000002,
                    "velocity": 0.3228346456692913,
                    "duration": 0.18000000000000682
                },
                {
                    "name": "F4",
                    "midi": 65,
                    "time": 236.7000000000002,
                    "velocity": 0.2755905511811024,
                    "duration": 0.18000000000000682
                },
                {
                    "name": "D4",
                    "midi": 62,
                    "time": 236.7000000000002,
                    "velocity": 0.2755905511811024,
                    "duration": 0.18000000000000682
                },
                {
                    "name": "D4",
                    "midi": 62,
                    "time": 236.9000000000002,
                    "velocity": 0.28346456692913385,
                    "duration": 0.18000000000000682
                },
                {
                    "name": "F4",
                    "midi": 65,
                    "time": 236.9000000000002,
                    "velocity": 0.28346456692913385,
                    "duration": 0.18000000000000682
                },
                {
                    "name": "D5",
                    "midi": 74,
                    "time": 236.9000000000002,
                    "velocity": 0.33858267716535434,
                    "duration": 0.18000000000000682
                },
                {
                    "name": "F5",
                    "midi": 77,
                    "time": 236.9000000000002,
                    "velocity": 0.33858267716535434,
                    "duration": 0.18000000000000682
                },
                {
                    "name": "D5",
                    "midi": 74,
                    "time": 237.10000000000022,
                    "velocity": 0.3464566929133858,
                    "duration": 0.18000000000000682
                },
                {
                    "name": "F5",
                    "midi": 77,
                    "time": 237.10000000000022,
                    "velocity": 0.3464566929133858,
                    "duration": 0.18000000000000682
                },
                {
                    "name": "G2",
                    "midi": 43,
                    "time": 237.30000000000024,
                    "velocity": 0.3543307086614173,
                    "duration": 0.19999999999998863
                },
                {
                    "name": "A#3",
                    "midi": 58,
                    "time": 237.50000000000023,
                    "velocity": 0.14960629921259844,
                    "duration": 0.18000000000000682
                },
                {
                    "name": "G4",
                    "midi": 67,
                    "time": 237.50000000000023,
                    "velocity": 0.1889763779527559,
                    "duration": 0.18000000000000682
                },
                {
                    "name": "G5",
                    "midi": 79,
                    "time": 237.50000000000023,
                    "velocity": 0.2204724409448819,
                    "duration": 0.18000000000000682
                },
                {
                    "name": "A#4",
                    "midi": 70,
                    "time": 237.50000000000023,
                    "velocity": 0.1889763779527559,
                    "duration": 0.18000000000000682
                },
                {
                    "name": "A#5",
                    "midi": 82,
                    "time": 237.50000000000023,
                    "velocity": 0.2204724409448819,
                    "duration": 0.18000000000000682
                },
                {
                    "name": "G4",
                    "midi": 67,
                    "time": 237.70000000000024,
                    "velocity": 0.1968503937007874,
                    "duration": 0.18000000000000682
                },
                {
                    "name": "G5",
                    "midi": 79,
                    "time": 237.70000000000024,
                    "velocity": 0.23622047244094488,
                    "duration": 0.18000000000000682
                },
                {
                    "name": "B3",
                    "midi": 59,
                    "time": 237.70000000000024,
                    "velocity": 0.15748031496062992,
                    "duration": 0.18000000000000682
                },
                {
                    "name": "A#5",
                    "midi": 82,
                    "time": 237.70000000000024,
                    "velocity": 0.23622047244094488,
                    "duration": 0.18000000000000682
                },
                {
                    "name": "A#4",
                    "midi": 70,
                    "time": 237.70000000000024,
                    "velocity": 0.1968503937007874,
                    "duration": 0.18000000000000682
                },
                {
                    "name": "C4",
                    "midi": 60,
                    "time": 237.90000000000026,
                    "velocity": 0.1732283464566929,
                    "duration": 0.18000000000000682
                },
                {
                    "name": "A#5",
                    "midi": 82,
                    "time": 237.90000000000026,
                    "velocity": 0.2440944881889764,
                    "duration": 0.18000000000000682
                },
                {
                    "name": "A#4",
                    "midi": 70,
                    "time": 237.90000000000026,
                    "velocity": 0.2047244094488189,
                    "duration": 0.18000000000000682
                },
                {
                    "name": "G4",
                    "midi": 67,
                    "time": 237.90000000000026,
                    "velocity": 0.2047244094488189,
                    "duration": 0.18000000000000682
                },
                {
                    "name": "G5",
                    "midi": 79,
                    "time": 237.90000000000026,
                    "velocity": 0.2440944881889764,
                    "duration": 0.18000000000000682
                },
                {
                    "name": "A#5",
                    "midi": 82,
                    "time": 238.10000000000028,
                    "velocity": 0.2677165354330709,
                    "duration": 0.18000000000000682
                },
                {
                    "name": "C#4",
                    "midi": 61,
                    "time": 238.10000000000028,
                    "velocity": 0.1889763779527559,
                    "duration": 0.18000000000000682
                },
                {
                    "name": "G5",
                    "midi": 79,
                    "time": 238.10000000000028,
                    "velocity": 0.2677165354330709,
                    "duration": 0.18000000000000682
                },
                {
                    "name": "G4",
                    "midi": 67,
                    "time": 238.10000000000028,
                    "velocity": 0.2204724409448819,
                    "duration": 0.18000000000000682
                },
                {
                    "name": "A#4",
                    "midi": 70,
                    "time": 238.10000000000028,
                    "velocity": 0.2204724409448819,
                    "duration": 0.18000000000000682
                },
                {
                    "name": "A#5",
                    "midi": 82,
                    "time": 238.3000000000003,
                    "velocity": 0.2755905511811024,
                    "duration": 0.18000000000000682
                },
                {
                    "name": "D4",
                    "midi": 62,
                    "time": 238.3000000000003,
                    "velocity": 0.1889763779527559,
                    "duration": 0.18000000000000682
                },
                {
                    "name": "G5",
                    "midi": 79,
                    "time": 238.3000000000003,
                    "velocity": 0.2755905511811024,
                    "duration": 0.18000000000000682
                },
                {
                    "name": "G4",
                    "midi": 67,
                    "time": 238.3000000000003,
                    "velocity": 0.2283464566929134,
                    "duration": 0.18000000000000682
                },
                {
                    "name": "A#4",
                    "midi": 70,
                    "time": 238.3000000000003,
                    "velocity": 0.2283464566929134,
                    "duration": 0.18000000000000682
                },
                {
                    "name": "G4",
                    "midi": 67,
                    "time": 238.5000000000003,
                    "velocity": 0.23622047244094488,
                    "duration": 0.18000000000000682
                },
                {
                    "name": "A#4",
                    "midi": 70,
                    "time": 238.5000000000003,
                    "velocity": 0.23622047244094488,
                    "duration": 0.18000000000000682
                },
                {
                    "name": "D#4",
                    "midi": 63,
                    "time": 238.5000000000003,
                    "velocity": 0.1968503937007874,
                    "duration": 0.18000000000000682
                },
                {
                    "name": "A#4",
                    "midi": 70,
                    "time": 238.70000000000033,
                    "velocity": 0.2440944881889764,
                    "duration": 0.18000000000000682
                },
                {
                    "name": "G4",
                    "midi": 67,
                    "time": 238.70000000000033,
                    "velocity": 0.2440944881889764,
                    "duration": 0.18000000000000682
                },
                {
                    "name": "E4",
                    "midi": 64,
                    "time": 238.70000000000033,
                    "velocity": 0.2047244094488189,
                    "duration": 0.18000000000000682
                },
                {
                    "name": "A#5",
                    "midi": 82,
                    "time": 238.70000000000033,
                    "velocity": 0.2992125984251969,
                    "duration": 0.18000000000000682
                },
                {
                    "name": "G5",
                    "midi": 79,
                    "time": 238.70000000000033,
                    "velocity": 0.2992125984251969,
                    "duration": 0.18000000000000682
                },
                {
                    "name": "A#5",
                    "midi": 82,
                    "time": 238.90000000000035,
                    "velocity": 0.30708661417322836,
                    "duration": 0.18000000000000682
                },
                {
                    "name": "G4",
                    "midi": 67,
                    "time": 238.90000000000035,
                    "velocity": 0.25984251968503935,
                    "duration": 0.18000000000000682
                },
                {
                    "name": "F4",
                    "midi": 65,
                    "time": 238.90000000000035,
                    "velocity": 0.2125984251968504,
                    "duration": 0.18000000000000682
                },
                {
                    "name": "A#4",
                    "midi": 70,
                    "time": 238.90000000000035,
                    "velocity": 0.25984251968503935,
                    "duration": 0.18000000000000682
                },
                {
                    "name": "G5",
                    "midi": 79,
                    "time": 238.90000000000035,
                    "velocity": 0.30708661417322836,
                    "duration": 0.18000000000000682
                },
                {
                    "name": "A#4",
                    "midi": 70,
                    "time": 239.10000000000036,
                    "velocity": 0.2755905511811024,
                    "duration": 0.18000000000000682
                },
                {
                    "name": "G4",
                    "midi": 67,
                    "time": 239.10000000000036,
                    "velocity": 0.2755905511811024,
                    "duration": 0.18000000000000682
                },
                {
                    "name": "F#4",
                    "midi": 66,
                    "time": 239.10000000000036,
                    "velocity": 0.2283464566929134,
                    "duration": 0.18000000000000682
                },
                {
                    "name": "A#5",
                    "midi": 82,
                    "time": 239.10000000000036,
                    "velocity": 0.3228346456692913,
                    "duration": 0.18000000000000682
                },
                {
                    "name": "G5",
                    "midi": 79,
                    "time": 239.10000000000036,
                    "velocity": 0.3228346456692913,
                    "duration": 0.18000000000000682
                },
                {
                    "name": "A#4",
                    "midi": 70,
                    "time": 239.30000000000038,
                    "velocity": 0.28346456692913385,
                    "duration": 0.18000000000000682
                },
                {
                    "name": "G4",
                    "midi": 67,
                    "time": 239.30000000000038,
                    "velocity": 0.28346456692913385,
                    "duration": 0.18000000000000682
                },
                {
                    "name": "G5",
                    "midi": 79,
                    "time": 239.30000000000038,
                    "velocity": 0.33070866141732286,
                    "duration": 0.18000000000000682
                },
                {
                    "name": "A#5",
                    "midi": 82,
                    "time": 239.30000000000038,
                    "velocity": 0.33070866141732286,
                    "duration": 0.18000000000000682
                },
                {
                    "name": "G2",
                    "midi": 43,
                    "time": 239.7000000000004,
                    "velocity": 0.3543307086614173,
                    "duration": 0.19999999999998863
                },
                {
                    "name": "D4",
                    "midi": 62,
                    "time": 239.90000000000038,
                    "velocity": 0.1889763779527559,
                    "duration": 0.18000000000000682
                },
                {
                    "name": "D5",
                    "midi": 74,
                    "time": 239.90000000000038,
                    "velocity": 0.2204724409448819,
                    "duration": 0.18000000000000682
                },
                {
                    "name": "G5",
                    "midi": 79,
                    "time": 239.90000000000038,
                    "velocity": 0.2204724409448819,
                    "duration": 0.18000000000000682
                },
                {
                    "name": "G3",
                    "midi": 55,
                    "time": 239.90000000000038,
                    "velocity": 0.14960629921259844,
                    "duration": 0.18000000000000682
                },
                {
                    "name": "G4",
                    "midi": 67,
                    "time": 239.90000000000038,
                    "velocity": 0.1889763779527559,
                    "duration": 0.18000000000000682
                },
                {
                    "name": "G5",
                    "midi": 79,
                    "time": 240.1000000000004,
                    "velocity": 0.23622047244094488,
                    "duration": 0.18000000000000682
                },
                {
                    "name": "G#3",
                    "midi": 56,
                    "time": 240.1000000000004,
                    "velocity": 0.15748031496062992,
                    "duration": 0.18000000000000682
                },
                {
                    "name": "D4",
                    "midi": 62,
                    "time": 240.1000000000004,
                    "velocity": 0.1968503937007874,
                    "duration": 0.18000000000000682
                },
                {
                    "name": "D5",
                    "midi": 74,
                    "time": 240.1000000000004,
                    "velocity": 0.23622047244094488,
                    "duration": 0.18000000000000682
                },
                {
                    "name": "G4",
                    "midi": 67,
                    "time": 240.1000000000004,
                    "velocity": 0.1968503937007874,
                    "duration": 0.18000000000000682
                },
                {
                    "name": "G5",
                    "midi": 79,
                    "time": 240.3000000000004,
                    "velocity": 0.2440944881889764,
                    "duration": 0.18000000000000682
                },
                {
                    "name": "D5",
                    "midi": 74,
                    "time": 240.3000000000004,
                    "velocity": 0.2440944881889764,
                    "duration": 0.18000000000000682
                },
                {
                    "name": "A3",
                    "midi": 57,
                    "time": 240.3000000000004,
                    "velocity": 0.1732283464566929,
                    "duration": 0.18000000000000682
                },
                {
                    "name": "G4",
                    "midi": 67,
                    "time": 240.3000000000004,
                    "velocity": 0.2047244094488189,
                    "duration": 0.18000000000000682
                },
                {
                    "name": "D4",
                    "midi": 62,
                    "time": 240.3000000000004,
                    "velocity": 0.2047244094488189,
                    "duration": 0.18000000000000682
                },
                {
                    "name": "G5",
                    "midi": 79,
                    "time": 240.50000000000043,
                    "velocity": 0.2677165354330709,
                    "duration": 0.18000000000000682
                },
                {
                    "name": "D5",
                    "midi": 74,
                    "time": 240.50000000000043,
                    "velocity": 0.2677165354330709,
                    "duration": 0.18000000000000682
                },
                {
                    "name": "D4",
                    "midi": 62,
                    "time": 240.50000000000043,
                    "velocity": 0.2204724409448819,
                    "duration": 0.18000000000000682
                },
                {
                    "name": "A#3",
                    "midi": 58,
                    "time": 240.50000000000043,
                    "velocity": 0.1889763779527559,
                    "duration": 0.18000000000000682
                },
                {
                    "name": "G4",
                    "midi": 67,
                    "time": 240.50000000000043,
                    "velocity": 0.2204724409448819,
                    "duration": 0.18000000000000682
                },
                {
                    "name": "B3",
                    "midi": 59,
                    "time": 240.70000000000044,
                    "velocity": 0.1889763779527559,
                    "duration": 0.18000000000000682
                },
                {
                    "name": "D5",
                    "midi": 74,
                    "time": 240.70000000000044,
                    "velocity": 0.2755905511811024,
                    "duration": 0.18000000000000682
                },
                {
                    "name": "G4",
                    "midi": 67,
                    "time": 240.70000000000044,
                    "velocity": 0.2283464566929134,
                    "duration": 0.18000000000000682
                },
                {
                    "name": "G5",
                    "midi": 79,
                    "time": 240.70000000000044,
                    "velocity": 0.2755905511811024,
                    "duration": 0.18000000000000682
                },
                {
                    "name": "D4",
                    "midi": 62,
                    "time": 240.70000000000044,
                    "velocity": 0.2283464566929134,
                    "duration": 0.18000000000000682
                },
                {
                    "name": "D5",
                    "midi": 74,
                    "time": 240.90000000000046,
                    "velocity": 0.2677165354330709,
                    "duration": 0.18000000000000682
                },
                {
                    "name": "G5",
                    "midi": 79,
                    "time": 240.90000000000046,
                    "velocity": 0.2677165354330709,
                    "duration": 0.18000000000000682
                },
                {
                    "name": "G4",
                    "midi": 67,
                    "time": 240.90000000000046,
                    "velocity": 0.23622047244094488,
                    "duration": 0.18000000000000682
                },
                {
                    "name": "D4",
                    "midi": 62,
                    "time": 240.90000000000046,
                    "velocity": 0.23622047244094488,
                    "duration": 0.18000000000000682
                },
                {
                    "name": "C4",
                    "midi": 60,
                    "time": 240.90000000000046,
                    "velocity": 0.1968503937007874,
                    "duration": 0.18000000000000682
                },
                {
                    "name": "G5",
                    "midi": 79,
                    "time": 241.10000000000048,
                    "velocity": 0.2992125984251969,
                    "duration": 0.18000000000000682
                },
                {
                    "name": "G4",
                    "midi": 67,
                    "time": 241.10000000000048,
                    "velocity": 0.2440944881889764,
                    "duration": 0.18000000000000682
                },
                {
                    "name": "D5",
                    "midi": 74,
                    "time": 241.10000000000048,
                    "velocity": 0.2992125984251969,
                    "duration": 0.18000000000000682
                },
                {
                    "name": "C#4",
                    "midi": 61,
                    "time": 241.10000000000048,
                    "velocity": 0.2440944881889764,
                    "duration": 0.18000000000000682
                },
                {
                    "name": "D4",
                    "midi": 62,
                    "time": 241.3000000000005,
                    "velocity": 0.25984251968503935,
                    "duration": 0.18000000000000682
                },
                {
                    "name": "G5",
                    "midi": 79,
                    "time": 241.3000000000005,
                    "velocity": 0.30708661417322836,
                    "duration": 0.18000000000000682
                },
                {
                    "name": "G4",
                    "midi": 67,
                    "time": 241.3000000000005,
                    "velocity": 0.25984251968503935,
                    "duration": 0.18000000000000682
                },
                {
                    "name": "D5",
                    "midi": 74,
                    "time": 241.3000000000005,
                    "velocity": 0.30708661417322836,
                    "duration": 0.18000000000000682
                },
                {
                    "name": "D5",
                    "midi": 74,
                    "time": 241.5000000000005,
                    "velocity": 0.3228346456692913,
                    "duration": 0.18000000000000682
                },
                {
                    "name": "G4",
                    "midi": 67,
                    "time": 241.5000000000005,
                    "velocity": 0.2755905511811024,
                    "duration": 0.18000000000000682
                },
                {
                    "name": "G5",
                    "midi": 79,
                    "time": 241.5000000000005,
                    "velocity": 0.3228346456692913,
                    "duration": 0.18000000000000682
                },
                {
                    "name": "A#3",
                    "midi": 58,
                    "time": 241.5000000000005,
                    "velocity": 0.2283464566929134,
                    "duration": 0.18000000000000682
                },
                {
                    "name": "D5",
                    "midi": 74,
                    "time": 241.70000000000053,
                    "velocity": 0.3228346456692913,
                    "duration": 0.18000000000000682
                },
                {
                    "name": "G5",
                    "midi": 79,
                    "time": 241.70000000000053,
                    "velocity": 0.3228346456692913,
                    "duration": 0.18000000000000682
                },
                {
                    "name": "C3",
                    "midi": 48,
                    "time": 242.10000000000053,
                    "velocity": 0.3543307086614173,
                    "duration": 0.19999999999998863
                },
                {
                    "name": "C2",
                    "midi": 36,
                    "time": 242.10000000000053,
                    "velocity": 0.3543307086614173,
                    "duration": 0.19999999999998863
                },
                {
                    "name": "E5",
                    "midi": 76,
                    "time": 242.30000000000052,
                    "velocity": 0.2204724409448819,
                    "duration": 0.18000000000000682
                },
                {
                    "name": "G4",
                    "midi": 67,
                    "time": 242.30000000000052,
                    "velocity": 0.1889763779527559,
                    "duration": 0.18000000000000682
                },
                {
                    "name": "A#5",
                    "midi": 82,
                    "time": 242.30000000000052,
                    "velocity": 0.2204724409448819,
                    "duration": 0.18000000000000682
                },
                {
                    "name": "A#4",
                    "midi": 70,
                    "time": 242.30000000000052,
                    "velocity": 0.1889763779527559,
                    "duration": 0.18000000000000682
                },
                {
                    "name": "A#3",
                    "midi": 58,
                    "time": 242.30000000000052,
                    "velocity": 0.14960629921259844,
                    "duration": 0.18000000000000682
                },
                {
                    "name": "G4",
                    "midi": 67,
                    "time": 242.50000000000054,
                    "velocity": 0.1968503937007874,
                    "duration": 0.18000000000000682
                },
                {
                    "name": "E5",
                    "midi": 76,
                    "time": 242.50000000000054,
                    "velocity": 0.23622047244094488,
                    "duration": 0.18000000000000682
                },
                {
                    "name": "A#4",
                    "midi": 70,
                    "time": 242.50000000000054,
                    "velocity": 0.1968503937007874,
                    "duration": 0.18000000000000682
                },
                {
                    "name": "B3",
                    "midi": 59,
                    "time": 242.50000000000054,
                    "velocity": 0.15748031496062992,
                    "duration": 0.18000000000000682
                },
                {
                    "name": "A#5",
                    "midi": 82,
                    "time": 242.50000000000054,
                    "velocity": 0.23622047244094488,
                    "duration": 0.18000000000000682
                },
                {
                    "name": "C4",
                    "midi": 60,
                    "time": 242.70000000000056,
                    "velocity": 0.1732283464566929,
                    "duration": 0.18000000000000682
                },
                {
                    "name": "A#4",
                    "midi": 70,
                    "time": 242.70000000000056,
                    "velocity": 0.2047244094488189,
                    "duration": 0.18000000000000682
                },
                {
                    "name": "A#5",
                    "midi": 82,
                    "time": 242.70000000000056,
                    "velocity": 0.2440944881889764,
                    "duration": 0.18000000000000682
                },
                {
                    "name": "G4",
                    "midi": 67,
                    "time": 242.70000000000056,
                    "velocity": 0.2047244094488189,
                    "duration": 0.18000000000000682
                },
                {
                    "name": "E5",
                    "midi": 76,
                    "time": 242.70000000000056,
                    "velocity": 0.2440944881889764,
                    "duration": 0.18000000000000682
                },
                {
                    "name": "C#4",
                    "midi": 61,
                    "time": 242.90000000000057,
                    "velocity": 0.1889763779527559,
                    "duration": 0.18000000000000682
                },
                {
                    "name": "E5",
                    "midi": 76,
                    "time": 242.90000000000057,
                    "velocity": 0.2677165354330709,
                    "duration": 0.18000000000000682
                },
                {
                    "name": "G4",
                    "midi": 67,
                    "time": 242.90000000000057,
                    "velocity": 0.2204724409448819,
                    "duration": 0.18000000000000682
                },
                {
                    "name": "A#5",
                    "midi": 82,
                    "time": 242.90000000000057,
                    "velocity": 0.2677165354330709,
                    "duration": 0.18000000000000682
                },
                {
                    "name": "A#4",
                    "midi": 70,
                    "time": 242.90000000000057,
                    "velocity": 0.2204724409448819,
                    "duration": 0.18000000000000682
                },
                {
                    "name": "A#4",
                    "midi": 70,
                    "time": 243.1000000000006,
                    "velocity": 0.2283464566929134,
                    "duration": 0.18000000000000682
                },
                {
                    "name": "D4",
                    "midi": 62,
                    "time": 243.1000000000006,
                    "velocity": 0.1889763779527559,
                    "duration": 0.18000000000000682
                },
                {
                    "name": "G4",
                    "midi": 67,
                    "time": 243.1000000000006,
                    "velocity": 0.2283464566929134,
                    "duration": 0.18000000000000682
                },
                {
                    "name": "A#4",
                    "midi": 70,
                    "time": 243.3000000000006,
                    "velocity": 0.23622047244094488,
                    "duration": 0.18000000000000682
                },
                {
                    "name": "G4",
                    "midi": 67,
                    "time": 243.3000000000006,
                    "velocity": 0.23622047244094488,
                    "duration": 0.18000000000000682
                },
                {
                    "name": "D#4",
                    "midi": 63,
                    "time": 243.3000000000006,
                    "velocity": 0.1968503937007874,
                    "duration": 0.18000000000000682
                },
                {
                    "name": "E4",
                    "midi": 64,
                    "time": 243.50000000000063,
                    "velocity": 0.2047244094488189,
                    "duration": 0.18000000000000682
                },
                {
                    "name": "E6",
                    "midi": 88,
                    "time": 243.50000000000063,
                    "velocity": 0.2992125984251969,
                    "duration": 0.18000000000000682
                },
                {
                    "name": "C#6",
                    "midi": 85,
                    "time": 243.50000000000063,
                    "velocity": 0.2992125984251969,
                    "duration": 0.18000000000000682
                },
                {
                    "name": "A#4",
                    "midi": 70,
                    "time": 243.50000000000063,
                    "velocity": 0.2440944881889764,
                    "duration": 0.18000000000000682
                },
                {
                    "name": "G4",
                    "midi": 67,
                    "time": 243.50000000000063,
                    "velocity": 0.2440944881889764,
                    "duration": 0.18000000000000682
                },
                {
                    "name": "C#6",
                    "midi": 85,
                    "time": 243.70000000000064,
                    "velocity": 0.30708661417322836,
                    "duration": 0.18000000000000682
                },
                {
                    "name": "G4",
                    "midi": 67,
                    "time": 243.70000000000064,
                    "velocity": 0.25984251968503935,
                    "duration": 0.18000000000000682
                },
                {
                    "name": "F4",
                    "midi": 65,
                    "time": 243.70000000000064,
                    "velocity": 0.2125984251968504,
                    "duration": 0.18000000000000682
                },
                {
                    "name": "E6",
                    "midi": 88,
                    "time": 243.70000000000064,
                    "velocity": 0.30708661417322836,
                    "duration": 0.18000000000000682
                },
                {
                    "name": "A#4",
                    "midi": 70,
                    "time": 243.70000000000064,
                    "velocity": 0.25984251968503935,
                    "duration": 0.18000000000000682
                },
                {
                    "name": "F#4",
                    "midi": 66,
                    "time": 243.90000000000066,
                    "velocity": 0.2283464566929134,
                    "duration": 0.18000000000000682
                },
                {
                    "name": "G4",
                    "midi": 67,
                    "time": 243.90000000000066,
                    "velocity": 0.2755905511811024,
                    "duration": 0.18000000000000682
                },
                {
                    "name": "A#4",
                    "midi": 70,
                    "time": 243.90000000000066,
                    "velocity": 0.2755905511811024,
                    "duration": 0.18000000000000682
                },
                {
                    "name": "E6",
                    "midi": 88,
                    "time": 243.90000000000066,
                    "velocity": 0.3228346456692913,
                    "duration": 0.18000000000000682
                },
                {
                    "name": "C#6",
                    "midi": 85,
                    "time": 243.90000000000066,
                    "velocity": 0.3228346456692913,
                    "duration": 0.18000000000000682
                },
                {
                    "name": "G4",
                    "midi": 67,
                    "time": 244.10000000000068,
                    "velocity": 0.28346456692913385,
                    "duration": 0.18000000000000682
                },
                {
                    "name": "E6",
                    "midi": 88,
                    "time": 244.10000000000068,
                    "velocity": 0.33070866141732286,
                    "duration": 0.18000000000000682
                },
                {
                    "name": "C#6",
                    "midi": 85,
                    "time": 244.10000000000068,
                    "velocity": 0.33070866141732286,
                    "duration": 0.18000000000000682
                },
                {
                    "name": "A#4",
                    "midi": 70,
                    "time": 244.10000000000068,
                    "velocity": 0.28346456692913385,
                    "duration": 0.18000000000000682
                },
                {
                    "name": "F2",
                    "midi": 41,
                    "time": 244.50000000000068,
                    "velocity": 0.3543307086614173,
                    "duration": 0.19999999999998863
                },
                {
                    "name": "A5",
                    "midi": 81,
                    "time": 244.70000000000067,
                    "velocity": 0.25196850393700787,
                    "duration": 0.18000000000000682
                },
                {
                    "name": "C6",
                    "midi": 84,
                    "time": 244.70000000000067,
                    "velocity": 0.25196850393700787,
                    "duration": 0.18000000000000682
                },
                {
                    "name": "F4",
                    "midi": 65,
                    "time": 244.70000000000067,
                    "velocity": 0.2125984251968504,
                    "duration": 0.18000000000000682
                },
                {
                    "name": "A3",
                    "midi": 57,
                    "time": 244.70000000000067,
                    "velocity": 0.16535433070866143,
                    "duration": 0.18000000000000682
                },
                {
                    "name": "A4",
                    "midi": 69,
                    "time": 244.70000000000067,
                    "velocity": 0.2125984251968504,
                    "duration": 0.18000000000000682
                },
                {
                    "name": "F4",
                    "midi": 65,
                    "time": 244.9000000000007,
                    "velocity": 0.2204724409448819,
                    "duration": 0.18000000000000682
                },
                {
                    "name": "A5",
                    "midi": 81,
                    "time": 244.9000000000007,
                    "velocity": 0.2677165354330709,
                    "duration": 0.18000000000000682
                },
                {
                    "name": "A#3",
                    "midi": 58,
                    "time": 244.9000000000007,
                    "velocity": 0.18110236220472442,
                    "duration": 0.18000000000000682
                },
                {
                    "name": "C6",
                    "midi": 84,
                    "time": 244.9000000000007,
                    "velocity": 0.2677165354330709,
                    "duration": 0.18000000000000682
                },
                {
                    "name": "A4",
                    "midi": 69,
                    "time": 244.9000000000007,
                    "velocity": 0.2204724409448819,
                    "duration": 0.18000000000000682
                },
                {
                    "name": "A4",
                    "midi": 69,
                    "time": 245.1000000000007,
                    "velocity": 0.2283464566929134,
                    "duration": 0.18000000000000682
                },
                {
                    "name": "A5",
                    "midi": 81,
                    "time": 245.1000000000007,
                    "velocity": 0.2755905511811024,
                    "duration": 0.18000000000000682
                },
                {
                    "name": "F4",
                    "midi": 65,
                    "time": 245.1000000000007,
                    "velocity": 0.2283464566929134,
                    "duration": 0.18000000000000682
                },
                {
                    "name": "B3",
                    "midi": 59,
                    "time": 245.1000000000007,
                    "velocity": 0.1968503937007874,
                    "duration": 0.18000000000000682
                },
                {
                    "name": "C6",
                    "midi": 84,
                    "time": 245.1000000000007,
                    "velocity": 0.2755905511811024,
                    "duration": 0.18000000000000682
                },
                {
                    "name": "F4",
                    "midi": 65,
                    "time": 245.30000000000072,
                    "velocity": 0.25196850393700787,
                    "duration": 0.18000000000000682
                },
                {
                    "name": "C4",
                    "midi": 60,
                    "time": 245.30000000000072,
                    "velocity": 0.2125984251968504,
                    "duration": 0.18000000000000682
                },
                {
                    "name": "C6",
                    "midi": 84,
                    "time": 245.30000000000072,
                    "velocity": 0.30708661417322836,
                    "duration": 0.18000000000000682
                },
                {
                    "name": "A5",
                    "midi": 81,
                    "time": 245.30000000000072,
                    "velocity": 0.30708661417322836,
                    "duration": 0.18000000000000682
                },
                {
                    "name": "A4",
                    "midi": 69,
                    "time": 245.30000000000072,
                    "velocity": 0.25196850393700787,
                    "duration": 0.18000000000000682
                },
                {
                    "name": "A5",
                    "midi": 81,
                    "time": 245.50000000000074,
                    "velocity": 0.3228346456692913,
                    "duration": 0.18000000000000682
                },
                {
                    "name": "F4",
                    "midi": 65,
                    "time": 245.50000000000074,
                    "velocity": 0.25984251968503935,
                    "duration": 0.18000000000000682
                },
                {
                    "name": "C6",
                    "midi": 84,
                    "time": 245.50000000000074,
                    "velocity": 0.3228346456692913,
                    "duration": 0.18000000000000682
                },
                {
                    "name": "C#4",
                    "midi": 61,
                    "time": 245.50000000000074,
                    "velocity": 0.2125984251968504,
                    "duration": 0.18000000000000682
                },
                {
                    "name": "A4",
                    "midi": 69,
                    "time": 245.50000000000074,
                    "velocity": 0.25984251968503935,
                    "duration": 0.18000000000000682
                },
                {
                    "name": "A5",
                    "midi": 81,
                    "time": 245.70000000000076,
                    "velocity": 0.28346456692913385,
                    "duration": 0.18000000000000682
                },
                {
                    "name": "D4",
                    "midi": 62,
                    "time": 245.70000000000076,
                    "velocity": 0.2283464566929134,
                    "duration": 0.18000000000000682
                },
                {
                    "name": "C6",
                    "midi": 84,
                    "time": 245.70000000000076,
                    "velocity": 0.28346456692913385,
                    "duration": 0.18000000000000682
                },
                {
                    "name": "A4",
                    "midi": 69,
                    "time": 245.70000000000076,
                    "velocity": 0.2755905511811024,
                    "duration": 0.18000000000000682
                },
                {
                    "name": "F4",
                    "midi": 65,
                    "time": 245.70000000000076,
                    "velocity": 0.2755905511811024,
                    "duration": 0.18000000000000682
                },
                {
                    "name": "C6",
                    "midi": 84,
                    "time": 245.90000000000077,
                    "velocity": 0.3543307086614173,
                    "duration": 0.18000000000000682
                },
                {
                    "name": "A5",
                    "midi": 81,
                    "time": 245.90000000000077,
                    "velocity": 0.3543307086614173,
                    "duration": 0.18000000000000682
                },
                {
                    "name": "A4",
                    "midi": 69,
                    "time": 245.90000000000077,
                    "velocity": 0.28346456692913385,
                    "duration": 0.18000000000000682
                },
                {
                    "name": "F4",
                    "midi": 65,
                    "time": 245.90000000000077,
                    "velocity": 0.28346456692913385,
                    "duration": 0.18000000000000682
                },
                {
                    "name": "D#4",
                    "midi": 63,
                    "time": 245.90000000000077,
                    "velocity": 0.2440944881889764,
                    "duration": 0.18000000000000682
                },
                {
                    "name": "E4",
                    "midi": 64,
                    "time": 246.1000000000008,
                    "velocity": 0.25196850393700787,
                    "duration": 0.18000000000000682
                },
                {
                    "name": "C6",
                    "midi": 84,
                    "time": 246.1000000000008,
                    "velocity": 0.3858267716535433,
                    "duration": 0.18000000000000682
                },
                {
                    "name": "A5",
                    "midi": 81,
                    "time": 246.1000000000008,
                    "velocity": 0.3858267716535433,
                    "duration": 0.18000000000000682
                },
                {
                    "name": "F4",
                    "midi": 65,
                    "time": 246.1000000000008,
                    "velocity": 0.30708661417322836,
                    "duration": 0.18000000000000682
                },
                {
                    "name": "A4",
                    "midi": 69,
                    "time": 246.1000000000008,
                    "velocity": 0.30708661417322836,
                    "duration": 0.18000000000000682
                },
                {
                    "name": "A4",
                    "midi": 69,
                    "time": 246.3000000000008,
                    "velocity": 0.33070866141732286,
                    "duration": 0.18000000000000682
                },
                {
                    "name": "F4",
                    "midi": 65,
                    "time": 246.3000000000008,
                    "velocity": 0.33070866141732286,
                    "duration": 0.18000000000000682
                },
                {
                    "name": "A5",
                    "midi": 81,
                    "time": 246.3000000000008,
                    "velocity": 0.41732283464566927,
                    "duration": 0.18000000000000682
                },
                {
                    "name": "C6",
                    "midi": 84,
                    "time": 246.3000000000008,
                    "velocity": 0.41732283464566927,
                    "duration": 0.18000000000000682
                },
                {
                    "name": "A5",
                    "midi": 81,
                    "time": 246.50000000000082,
                    "velocity": 0.44881889763779526,
                    "duration": 0.18000000000000682
                },
                {
                    "name": "C6",
                    "midi": 84,
                    "time": 246.50000000000082,
                    "velocity": 0.44881889763779526,
                    "duration": 0.18000000000000682
                },
                {
                    "name": "C6",
                    "midi": 84,
                    "time": 246.69375000000082,
                    "velocity": 0.4645669291338583,
                    "duration": 0.20250000000001478
                },
                {
                    "name": "A5",
                    "midi": 81,
                    "time": 246.69375000000082,
                    "velocity": 0.4645669291338583,
                    "duration": 0.18000000000000682
                },
                {
                    "name": "C#2",
                    "midi": 37,
                    "time": 246.90000000000083,
                    "velocity": 0.4015748031496063,
                    "duration": 0.19999999999998863
                },
                {
                    "name": "C#3",
                    "midi": 49,
                    "time": 246.90000000000083,
                    "velocity": 0.4015748031496063,
                    "duration": 0.19999999999998863
                },
                {
                    "name": "F3",
                    "midi": 53,
                    "time": 247.10000000000082,
                    "velocity": 0.18110236220472442,
                    "duration": 0.18000000000000682
                },
                {
                    "name": "G#5",
                    "midi": 80,
                    "time": 247.10000000000082,
                    "velocity": 0.28346456692913385,
                    "duration": 0.18000000000000682
                },
                {
                    "name": "F4",
                    "midi": 65,
                    "time": 247.10000000000082,
                    "velocity": 0.23622047244094488,
                    "duration": 0.18000000000000682
                },
                {
                    "name": "C#4",
                    "midi": 61,
                    "time": 247.10000000000082,
                    "velocity": 0.23622047244094488,
                    "duration": 0.18000000000000682
                },
                {
                    "name": "C#6",
                    "midi": 85,
                    "time": 247.10000000000082,
                    "velocity": 0.28346456692913385,
                    "duration": 0.18000000000000682
                },
                {
                    "name": "C#4",
                    "midi": 61,
                    "time": 247.30000000000084,
                    "velocity": 0.2440944881889764,
                    "duration": 0.18000000000000682
                },
                {
                    "name": "G#5",
                    "midi": 80,
                    "time": 247.30000000000084,
                    "velocity": 0.2992125984251969,
                    "duration": 0.18000000000000682
                },
                {
                    "name": "F4",
                    "midi": 65,
                    "time": 247.30000000000084,
                    "velocity": 0.2440944881889764,
                    "duration": 0.18000000000000682
                },
                {
                    "name": "F#3",
                    "midi": 54,
                    "time": 247.30000000000084,
                    "velocity": 0.2047244094488189,
                    "duration": 0.18000000000000682
                },
                {
                    "name": "C#6",
                    "midi": 85,
                    "time": 247.30000000000084,
                    "velocity": 0.2992125984251969,
                    "duration": 0.18000000000000682
                },
                {
                    "name": "G#5",
                    "midi": 80,
                    "time": 247.50000000000085,
                    "velocity": 0.30708661417322836,
                    "duration": 0.18000000000000682
                },
                {
                    "name": "C#6",
                    "midi": 85,
                    "time": 247.50000000000085,
                    "velocity": 0.30708661417322836,
                    "duration": 0.18000000000000682
                },
                {
                    "name": "F4",
                    "midi": 65,
                    "time": 247.50000000000085,
                    "velocity": 0.2677165354330709,
                    "duration": 0.18000000000000682
                },
                {
                    "name": "G3",
                    "midi": 55,
                    "time": 247.50000000000085,
                    "velocity": 0.2204724409448819,
                    "duration": 0.18000000000000682
                },
                {
                    "name": "C#4",
                    "midi": 61,
                    "time": 247.50000000000085,
                    "velocity": 0.2677165354330709,
                    "duration": 0.18000000000000682
                },
                {
                    "name": "F4",
                    "midi": 65,
                    "time": 247.70000000000087,
                    "velocity": 0.28346456692913385,
                    "duration": 0.18000000000000682
                },
                {
                    "name": "G#5",
                    "midi": 80,
                    "time": 247.70000000000087,
                    "velocity": 0.3543307086614173,
                    "duration": 0.18000000000000682
                },
                {
                    "name": "C#6",
                    "midi": 85,
                    "time": 247.70000000000087,
                    "velocity": 0.3543307086614173,
                    "duration": 0.18000000000000682
                },
                {
                    "name": "G#3",
                    "midi": 56,
                    "time": 247.70000000000087,
                    "velocity": 0.23622047244094488,
                    "duration": 0.18000000000000682
                },
                {
                    "name": "C#4",
                    "midi": 61,
                    "time": 247.70000000000087,
                    "velocity": 0.28346456692913385,
                    "duration": 0.18000000000000682
                },
                {
                    "name": "A3",
                    "midi": 57,
                    "time": 247.9000000000009,
                    "velocity": 0.23622047244094488,
                    "duration": 0.18000000000000682
                },
                {
                    "name": "G#5",
                    "midi": 80,
                    "time": 247.9000000000009,
                    "velocity": 0.36220472440944884,
                    "duration": 0.18000000000000682
                },
                {
                    "name": "C#6",
                    "midi": 85,
                    "time": 247.9000000000009,
                    "velocity": 0.36220472440944884,
                    "duration": 0.18000000000000682
                },
                {
                    "name": "C#4",
                    "midi": 61,
                    "time": 247.9000000000009,
                    "velocity": 0.2992125984251969,
                    "duration": 0.18000000000000682
                },
                {
                    "name": "F4",
                    "midi": 65,
                    "time": 247.9000000000009,
                    "velocity": 0.2992125984251969,
                    "duration": 0.18000000000000682
                },
                {
                    "name": "A#3",
                    "midi": 58,
                    "time": 248.1000000000009,
                    "velocity": 0.2677165354330709,
                    "duration": 0.18000000000000682
                },
                {
                    "name": "F4",
                    "midi": 65,
                    "time": 248.1000000000009,
                    "velocity": 0.30708661417322836,
                    "duration": 0.18000000000000682
                },
                {
                    "name": "C#4",
                    "midi": 61,
                    "time": 248.1000000000009,
                    "velocity": 0.30708661417322836,
                    "duration": 0.18000000000000682
                },
                {
                    "name": "G#5",
                    "midi": 80,
                    "time": 248.30000000000092,
                    "velocity": 0.4015748031496063,
                    "duration": 0.18000000000000682
                },
                {
                    "name": "C#4",
                    "midi": 61,
                    "time": 248.30000000000092,
                    "velocity": 0.31496062992125984,
                    "duration": 0.18000000000000682
                },
                {
                    "name": "B3",
                    "midi": 59,
                    "time": 248.30000000000092,
                    "velocity": 0.2755905511811024,
                    "duration": 0.18000000000000682
                },
                {
                    "name": "F4",
                    "midi": 65,
                    "time": 248.30000000000092,
                    "velocity": 0.31496062992125984,
                    "duration": 0.18000000000000682
                },
                {
                    "name": "C#6",
                    "midi": 85,
                    "time": 248.30000000000092,
                    "velocity": 0.4015748031496063,
                    "duration": 0.18000000000000682
                },
                {
                    "name": "C4",
                    "midi": 60,
                    "time": 248.50000000000094,
                    "velocity": 0.28346456692913385,
                    "duration": 0.18000000000000682
                },
                {
                    "name": "F4",
                    "midi": 65,
                    "time": 248.50000000000094,
                    "velocity": 0.3543307086614173,
                    "duration": 0.18000000000000682
                },
                {
                    "name": "G#5",
                    "midi": 80,
                    "time": 248.50000000000094,
                    "velocity": 0.4094488188976378,
                    "duration": 0.18000000000000682
                },
                {
                    "name": "C#6",
                    "midi": 85,
                    "time": 248.50000000000094,
                    "velocity": 0.4094488188976378,
                    "duration": 0.18000000000000682
                },
                {
                    "name": "C#4",
                    "midi": 61,
                    "time": 248.50000000000094,
                    "velocity": 0.3543307086614173,
                    "duration": 0.18000000000000682
                },
                {
                    "name": "C#4",
                    "midi": 61,
                    "time": 248.70000000000095,
                    "velocity": 0.3700787401574803,
                    "duration": 0.18000000000000682
                },
                {
                    "name": "F4",
                    "midi": 65,
                    "time": 248.70000000000095,
                    "velocity": 0.3700787401574803,
                    "duration": 0.18000000000000682
                },
                {
                    "name": "C#6",
                    "midi": 85,
                    "time": 248.70000000000095,
                    "velocity": 0.4409448818897638,
                    "duration": 0.18000000000000682
                },
                {
                    "name": "G#5",
                    "midi": 80,
                    "time": 248.70000000000095,
                    "velocity": 0.4409448818897638,
                    "duration": 0.18000000000000682
                },
                {
                    "name": "G#5",
                    "midi": 80,
                    "time": 248.90000000000097,
                    "velocity": 0.44881889763779526,
                    "duration": 0.18000000000000682
                },
                {
                    "name": "C#6",
                    "midi": 85,
                    "time": 248.90000000000097,
                    "velocity": 0.44881889763779526,
                    "duration": 0.18000000000000682
                },
                {
                    "name": "G#1",
                    "midi": 32,
                    "time": 249.30000000000098,
                    "velocity": 0.4330708661417323,
                    "duration": 0.19999999999998863
                },
                {
                    "name": "G#2",
                    "midi": 44,
                    "time": 249.30000000000098,
                    "velocity": 0.4330708661417323,
                    "duration": 0.19999999999998863
                },
                {
                    "name": "D#6",
                    "midi": 87,
                    "time": 249.50000000000097,
                    "velocity": 0.2992125984251969,
                    "duration": 0.18000000000000682
                },
                {
                    "name": "G#3",
                    "midi": 56,
                    "time": 249.50000000000097,
                    "velocity": 0.2047244094488189,
                    "duration": 0.18000000000000682
                },
                {
                    "name": "G#4",
                    "midi": 68,
                    "time": 249.50000000000097,
                    "velocity": 0.2677165354330709,
                    "duration": 0.18000000000000682
                },
                {
                    "name": "C#6",
                    "midi": 85,
                    "time": 249.50000000000097,
                    "velocity": 0.2992125984251969,
                    "duration": 0.18000000000000682
                },
                {
                    "name": "D#4",
                    "midi": 63,
                    "time": 249.50000000000097,
                    "velocity": 0.2677165354330709,
                    "duration": 0.18000000000000682
                },
                {
                    "name": "C#6",
                    "midi": 85,
                    "time": 249.70000000000098,
                    "velocity": 0.31496062992125984,
                    "duration": 0.18000000000000682
                },
                {
                    "name": "D#6",
                    "midi": 87,
                    "time": 249.70000000000098,
                    "velocity": 0.31496062992125984,
                    "duration": 0.18000000000000682
                },
                {
                    "name": "A3",
                    "midi": 57,
                    "time": 249.70000000000098,
                    "velocity": 0.2125984251968504,
                    "duration": 0.18000000000000682
                },
                {
                    "name": "G#4",
                    "midi": 68,
                    "time": 249.70000000000098,
                    "velocity": 0.2755905511811024,
                    "duration": 0.18000000000000682
                },
                {
                    "name": "D#4",
                    "midi": 63,
                    "time": 249.70000000000098,
                    "velocity": 0.2755905511811024,
                    "duration": 0.18000000000000682
                },
                {
                    "name": "C#6",
                    "midi": 85,
                    "time": 249.900000000001,
                    "velocity": 0.3464566929133858,
                    "duration": 0.18000000000000682
                },
                {
                    "name": "D#4",
                    "midi": 63,
                    "time": 249.900000000001,
                    "velocity": 0.28346456692913385,
                    "duration": 0.18000000000000682
                },
                {
                    "name": "A#3",
                    "midi": 58,
                    "time": 249.900000000001,
                    "velocity": 0.23622047244094488,
                    "duration": 0.18000000000000682
                },
                {
                    "name": "D#6",
                    "midi": 87,
                    "time": 249.900000000001,
                    "velocity": 0.3464566929133858,
                    "duration": 0.18000000000000682
                },
                {
                    "name": "G#4",
                    "midi": 68,
                    "time": 249.900000000001,
                    "velocity": 0.28346456692913385,
                    "duration": 0.18000000000000682
                },
                {
                    "name": "G#4",
                    "midi": 68,
                    "time": 250.10000000000102,
                    "velocity": 0.30708661417322836,
                    "duration": 0.18000000000000682
                },
                {
                    "name": "C#6",
                    "midi": 85,
                    "time": 250.10000000000102,
                    "velocity": 0.3779527559055118,
                    "duration": 0.18000000000000682
                },
                {
                    "name": "D#6",
                    "midi": 87,
                    "time": 250.10000000000102,
                    "velocity": 0.3779527559055118,
                    "duration": 0.18000000000000682
                },
                {
                    "name": "B3",
                    "midi": 59,
                    "time": 250.10000000000102,
                    "velocity": 0.2677165354330709,
                    "duration": 0.18000000000000682
                },
                {
                    "name": "D#4",
                    "midi": 63,
                    "time": 250.10000000000102,
                    "velocity": 0.30708661417322836,
                    "duration": 0.18000000000000682
                },
                {
                    "name": "D#6",
                    "midi": 87,
                    "time": 250.30000000000103,
                    "velocity": 0.3937007874015748,
                    "duration": 0.18000000000000682
                },
                {
                    "name": "C4",
                    "midi": 60,
                    "time": 250.30000000000103,
                    "velocity": 0.2677165354330709,
                    "duration": 0.18000000000000682
                },
                {
                    "name": "C#6",
                    "midi": 85,
                    "time": 250.30000000000103,
                    "velocity": 0.3937007874015748,
                    "duration": 0.18000000000000682
                },
                {
                    "name": "D#4",
                    "midi": 63,
                    "time": 250.30000000000103,
                    "velocity": 0.31496062992125984,
                    "duration": 0.18000000000000682
                },
                {
                    "name": "G#4",
                    "midi": 68,
                    "time": 250.30000000000103,
                    "velocity": 0.31496062992125984,
                    "duration": 0.18000000000000682
                },
                {
                    "name": "G#5",
                    "midi": 80,
                    "time": 250.70000000000104,
                    "velocity": 0.4330708661417323,
                    "duration": 0.18000000000000682
                },
                {
                    "name": "C6",
                    "midi": 84,
                    "time": 250.70000000000104,
                    "velocity": 0.4330708661417323,
                    "duration": 0.18000000000000682
                },
                {
                    "name": "B3",
                    "midi": 59,
                    "time": 250.70000000000104,
                    "velocity": 0.3464566929133858,
                    "duration": 0.18000000000000682
                },
                {
                    "name": "D#4",
                    "midi": 63,
                    "time": 250.70000000000104,
                    "velocity": 0.3464566929133858,
                    "duration": 0.18000000000000682
                },
                {
                    "name": "G#4",
                    "midi": 68,
                    "time": 250.70000000000104,
                    "velocity": 0.3464566929133858,
                    "duration": 0.18000000000000682
                },
                {
                    "name": "G#5",
                    "midi": 80,
                    "time": 250.90000000000106,
                    "velocity": 0.4409448818897638,
                    "duration": 0.18000000000000682
                },
                {
                    "name": "C4",
                    "midi": 60,
                    "time": 250.90000000000106,
                    "velocity": 0.3543307086614173,
                    "duration": 0.18000000000000682
                },
                {
                    "name": "G#4",
                    "midi": 68,
                    "time": 250.90000000000106,
                    "velocity": 0.3700787401574803,
                    "duration": 0.18000000000000682
                },
                {
                    "name": "C6",
                    "midi": 84,
                    "time": 250.90000000000106,
                    "velocity": 0.4409448818897638,
                    "duration": 0.18000000000000682
                },
                {
                    "name": "D#4",
                    "midi": 63,
                    "time": 250.90000000000106,
                    "velocity": 0.3700787401574803,
                    "duration": 0.18000000000000682
                },
                {
                    "name": "D#4",
                    "midi": 63,
                    "time": 251.10000000000107,
                    "velocity": 0.33070866141732286,
                    "duration": 0.18000000000000682
                },
                {
                    "name": "G#4",
                    "midi": 68,
                    "time": 251.10000000000107,
                    "velocity": 0.4015748031496063,
                    "duration": 0.18000000000000682
                },
                {
                    "name": "C6",
                    "midi": 84,
                    "time": 251.10000000000107,
                    "velocity": 0.47244094488188976,
                    "duration": 0.18000000000000682
                },
                {
                    "name": "C#4",
                    "midi": 61,
                    "time": 251.10000000000107,
                    "velocity": 0.3543307086614173,
                    "duration": 0.18000000000000682
                },
                {
                    "name": "G#5",
                    "midi": 80,
                    "time": 251.10000000000107,
                    "velocity": 0.47244094488188976,
                    "duration": 0.18000000000000682
                },
                {
                    "name": "G#4",
                    "midi": 68,
                    "time": 251.3000000000011,
                    "velocity": 0.4015748031496063,
                    "duration": 0.18000000000000682
                },
                {
                    "name": "D4",
                    "midi": 62,
                    "time": 251.3000000000011,
                    "velocity": 0.33070866141732286,
                    "duration": 0.18000000000000682
                },
                {
                    "name": "C6",
                    "midi": 84,
                    "time": 251.3000000000011,
                    "velocity": 0.47244094488188976,
                    "duration": 0.18000000000000682
                },
                {
                    "name": "G#5",
                    "midi": 80,
                    "time": 251.3000000000011,
                    "velocity": 0.47244094488188976,
                    "duration": 0.18000000000000682
                },
                {
                    "name": "D#4",
                    "midi": 63,
                    "time": 251.5000000000011,
                    "velocity": 0.33070866141732286,
                    "duration": 0.18000000000000682
                },
                {
                    "name": "G#4",
                    "midi": 68,
                    "time": 251.5000000000011,
                    "velocity": 0.4015748031496063,
                    "duration": 0.18000000000000682
                },
                {
                    "name": "G#5",
                    "midi": 80,
                    "time": 251.5000000000011,
                    "velocity": 0.47244094488188976,
                    "duration": 0.18000000000000682
                },
                {
                    "name": "C6",
                    "midi": 84,
                    "time": 251.5000000000011,
                    "velocity": 0.47244094488188976,
                    "duration": 0.18000000000000682
                },
                {
                    "name": "E3",
                    "midi": 52,
                    "time": 251.70000000000113,
                    "velocity": 0.4645669291338583,
                    "duration": 0.19999999999998863
                },
                {
                    "name": "E2",
                    "midi": 40,
                    "time": 251.70000000000113,
                    "velocity": 0.4645669291338583,
                    "duration": 0.19999999999998863
                },
                {
                    "name": "G#3",
                    "midi": 56,
                    "time": 251.9000000000011,
                    "velocity": 0.2125984251968504,
                    "duration": 0.18000000000000682
                },
                {
                    "name": "B5",
                    "midi": 83,
                    "time": 251.9000000000011,
                    "velocity": 0.31496062992125984,
                    "duration": 0.18000000000000682
                },
                {
                    "name": "E4",
                    "midi": 64,
                    "time": 251.9000000000011,
                    "velocity": 0.2755905511811024,
                    "duration": 0.18000000000000682
                },
                {
                    "name": "G#4",
                    "midi": 68,
                    "time": 251.9000000000011,
                    "velocity": 0.2755905511811024,
                    "duration": 0.18000000000000682
                },
                {
                    "name": "E6",
                    "midi": 88,
                    "time": 251.9000000000011,
                    "velocity": 0.31496062992125984,
                    "duration": 0.18000000000000682
                },
                {
                    "name": "B5",
                    "midi": 83,
                    "time": 252.10000000000113,
                    "velocity": 0.3543307086614173,
                    "duration": 0.18000000000000682
                },
                {
                    "name": "E6",
                    "midi": 88,
                    "time": 252.10000000000113,
                    "velocity": 0.3543307086614173,
                    "duration": 0.18000000000000682
                },
                {
                    "name": "G#4",
                    "midi": 68,
                    "time": 252.10000000000113,
                    "velocity": 0.29133858267716534,
                    "duration": 0.18000000000000682
                },
                {
                    "name": "A3",
                    "midi": 57,
                    "time": 252.10000000000113,
                    "velocity": 0.2283464566929134,
                    "duration": 0.18000000000000682
                },
                {
                    "name": "E4",
                    "midi": 64,
                    "time": 252.10000000000113,
                    "velocity": 0.29133858267716534,
                    "duration": 0.18000000000000682
                },
                {
                    "name": "B5",
                    "midi": 83,
                    "time": 252.30000000000115,
                    "velocity": 0.36220472440944884,
                    "duration": 0.18000000000000682
                },
                {
                    "name": "E4",
                    "midi": 64,
                    "time": 252.30000000000115,
                    "velocity": 0.2992125984251969,
                    "duration": 0.18000000000000682
                },
                {
                    "name": "E6",
                    "midi": 88,
                    "time": 252.30000000000115,
                    "velocity": 0.36220472440944884,
                    "duration": 0.18000000000000682
                },
                {
                    "name": "A#3",
                    "midi": 58,
                    "time": 252.30000000000115,
                    "velocity": 0.2440944881889764,
                    "duration": 0.18000000000000682
                },
                {
                    "name": "G#4",
                    "midi": 68,
                    "time": 252.30000000000115,
                    "velocity": 0.2992125984251969,
                    "duration": 0.18000000000000682
                },
                {
                    "name": "E6",
                    "midi": 88,
                    "time": 252.50000000000117,
                    "velocity": 0.4015748031496063,
                    "duration": 0.18000000000000682
                },
                {
                    "name": "G#4",
                    "midi": 68,
                    "time": 252.50000000000117,
                    "velocity": 0.33070866141732286,
                    "duration": 0.18000000000000682
                },
                {
                    "name": "B3",
                    "midi": 59,
                    "time": 252.50000000000117,
                    "velocity": 0.28346456692913385,
                    "duration": 0.18000000000000682
                },
                {
                    "name": "E4",
                    "midi": 64,
                    "time": 252.50000000000117,
                    "velocity": 0.33070866141732286,
                    "duration": 0.18000000000000682
                },
                {
                    "name": "B5",
                    "midi": 83,
                    "time": 252.50000000000117,
                    "velocity": 0.4015748031496063,
                    "duration": 0.18000000000000682
                },
                {
                    "name": "B5",
                    "midi": 83,
                    "time": 252.70000000000118,
                    "velocity": 0.41732283464566927,
                    "duration": 0.18000000000000682
                },
                {
                    "name": "C4",
                    "midi": 60,
                    "time": 252.70000000000118,
                    "velocity": 0.28346456692913385,
                    "duration": 0.18000000000000682
                },
                {
                    "name": "G#4",
                    "midi": 68,
                    "time": 252.70000000000118,
                    "velocity": 0.3464566929133858,
                    "duration": 0.18000000000000682
                },
                {
                    "name": "E6",
                    "midi": 88,
                    "time": 252.70000000000118,
                    "velocity": 0.41732283464566927,
                    "duration": 0.18000000000000682
                },
                {
                    "name": "E4",
                    "midi": 64,
                    "time": 252.70000000000118,
                    "velocity": 0.3464566929133858,
                    "duration": 0.18000000000000682
                },
                {
                    "name": "G#4",
                    "midi": 68,
                    "time": 252.9000000000012,
                    "velocity": 0.3543307086614173,
                    "duration": 0.18000000000000682
                },
                {
                    "name": "C#4",
                    "midi": 61,
                    "time": 252.9000000000012,
                    "velocity": 0.29133858267716534,
                    "duration": 0.18000000000000682
                },
                {
                    "name": "E4",
                    "midi": 64,
                    "time": 252.9000000000012,
                    "velocity": 0.3543307086614173,
                    "duration": 0.18000000000000682
                },
                {
                    "name": "D4",
                    "midi": 62,
                    "time": 253.10000000000122,
                    "velocity": 0.30708661417322836,
                    "duration": 0.18000000000000682
                },
                {
                    "name": "G#4",
                    "midi": 68,
                    "time": 253.10000000000122,
                    "velocity": 0.3700787401574803,
                    "duration": 0.18000000000000682
                },
                {
                    "name": "E6",
                    "midi": 88,
                    "time": 253.10000000000122,
                    "velocity": 0.4645669291338583,
                    "duration": 0.18000000000000682
                },
                {
                    "name": "B5",
                    "midi": 83,
                    "time": 253.10000000000122,
                    "velocity": 0.4645669291338583,
                    "duration": 0.18000000000000682
                },
                {
                    "name": "E4",
                    "midi": 64,
                    "time": 253.10000000000122,
                    "velocity": 0.3700787401574803,
                    "duration": 0.18000000000000682
                },
                {
                    "name": "E4",
                    "midi": 64,
                    "time": 253.30000000000123,
                    "velocity": 0.4015748031496063,
                    "duration": 0.18000000000000682
                },
                {
                    "name": "D#4",
                    "midi": 63,
                    "time": 253.30000000000123,
                    "velocity": 0.31496062992125984,
                    "duration": 0.18000000000000682
                },
                {
                    "name": "E6",
                    "midi": 88,
                    "time": 253.30000000000123,
                    "velocity": 0.47244094488188976,
                    "duration": 0.18000000000000682
                },
                {
                    "name": "B5",
                    "midi": 83,
                    "time": 253.30000000000123,
                    "velocity": 0.47244094488188976,
                    "duration": 0.18000000000000682
                },
                {
                    "name": "G#4",
                    "midi": 68,
                    "time": 253.30000000000123,
                    "velocity": 0.4015748031496063,
                    "duration": 0.18000000000000682
                },
                {
                    "name": "E4",
                    "midi": 64,
                    "time": 253.50000000000125,
                    "velocity": 0.41732283464566927,
                    "duration": 0.18000000000000682
                },
                {
                    "name": "E6",
                    "midi": 88,
                    "time": 253.50000000000125,
                    "velocity": 0.49606299212598426,
                    "duration": 0.18000000000000682
                },
                {
                    "name": "G#4",
                    "midi": 68,
                    "time": 253.50000000000125,
                    "velocity": 0.41732283464566927,
                    "duration": 0.18000000000000682
                },
                {
                    "name": "B5",
                    "midi": 83,
                    "time": 253.50000000000125,
                    "velocity": 0.49606299212598426,
                    "duration": 0.18000000000000682
                },
                {
                    "name": "E6",
                    "midi": 88,
                    "time": 253.70000000000127,
                    "velocity": 0.5039370078740157,
                    "duration": 0.18000000000000682
                },
                {
                    "name": "B5",
                    "midi": 83,
                    "time": 253.70000000000127,
                    "velocity": 0.5039370078740157,
                    "duration": 0.18000000000000682
                },
                {
                    "name": "B2",
                    "midi": 47,
                    "time": 254.10000000000127,
                    "velocity": 0.4881889763779528,
                    "duration": 0.19999999999998863
                },
                {
                    "name": "B1",
                    "midi": 35,
                    "time": 254.10000000000127,
                    "velocity": 0.4881889763779528,
                    "duration": 0.19999999999998863
                },
                {
                    "name": "F#6",
                    "midi": 90,
                    "time": 254.30000000000126,
                    "velocity": 0.3464566929133858,
                    "duration": 0.18000000000000682
                },
                {
                    "name": "E6",
                    "midi": 88,
                    "time": 254.30000000000126,
                    "velocity": 0.3464566929133858,
                    "duration": 0.18000000000000682
                },
                {
                    "name": "B3",
                    "midi": 59,
                    "time": 254.30000000000126,
                    "velocity": 0.2283464566929134,
                    "duration": 0.18000000000000682
                },
                {
                    "name": "B4",
                    "midi": 71,
                    "time": 254.30000000000126,
                    "velocity": 0.29133858267716534,
                    "duration": 0.18000000000000682
                },
                {
                    "name": "F#4",
                    "midi": 66,
                    "time": 254.30000000000126,
                    "velocity": 0.29133858267716534,
                    "duration": 0.18000000000000682
                },
                {
                    "name": "C4",
                    "midi": 60,
                    "time": 254.50000000000128,
                    "velocity": 0.23622047244094488,
                    "duration": 0.18000000000000682
                },
                {
                    "name": "B4",
                    "midi": 71,
                    "time": 254.50000000000128,
                    "velocity": 0.30708661417322836,
                    "duration": 0.18000000000000682
                },
                {
                    "name": "F#6",
                    "midi": 90,
                    "time": 254.50000000000128,
                    "velocity": 0.3700787401574803,
                    "duration": 0.18000000000000682
                },
                {
                    "name": "E6",
                    "midi": 88,
                    "time": 254.50000000000128,
                    "velocity": 0.3700787401574803,
                    "duration": 0.18000000000000682
                },
                {
                    "name": "F#4",
                    "midi": 66,
                    "time": 254.50000000000128,
                    "velocity": 0.30708661417322836,
                    "duration": 0.18000000000000682
                },
                {
                    "name": "F#6",
                    "midi": 90,
                    "time": 254.7000000000013,
                    "velocity": 0.3779527559055118,
                    "duration": 0.18000000000000682
                },
                {
                    "name": "C#4",
                    "midi": 61,
                    "time": 254.7000000000013,
                    "velocity": 0.2755905511811024,
                    "duration": 0.18000000000000682
                },
                {
                    "name": "F#4",
                    "midi": 66,
                    "time": 254.7000000000013,
                    "velocity": 0.31496062992125984,
                    "duration": 0.18000000000000682
                },
                {
                    "name": "B4",
                    "midi": 71,
                    "time": 254.7000000000013,
                    "velocity": 0.31496062992125984,
                    "duration": 0.18000000000000682
                },
                {
                    "name": "E6",
                    "midi": 88,
                    "time": 254.7000000000013,
                    "velocity": 0.3779527559055118,
                    "duration": 0.18000000000000682
                },
                {
                    "name": "D4",
                    "midi": 62,
                    "time": 254.9000000000013,
                    "velocity": 0.2992125984251969,
                    "duration": 0.18000000000000682
                },
                {
                    "name": "F#6",
                    "midi": 90,
                    "time": 254.9000000000013,
                    "velocity": 0.4330708661417323,
                    "duration": 0.18000000000000682
                },
                {
                    "name": "E6",
                    "midi": 88,
                    "time": 254.9000000000013,
                    "velocity": 0.4330708661417323,
                    "duration": 0.18000000000000682
                },
                {
                    "name": "B4",
                    "midi": 71,
                    "time": 254.9000000000013,
                    "velocity": 0.3543307086614173,
                    "duration": 0.18000000000000682
                },
                {
                    "name": "F#4",
                    "midi": 66,
                    "time": 254.9000000000013,
                    "velocity": 0.3543307086614173,
                    "duration": 0.18000000000000682
                },
                {
                    "name": "E6",
                    "midi": 88,
                    "time": 255.10000000000133,
                    "velocity": 0.4409448818897638,
                    "duration": 0.18000000000000682
                },
                {
                    "name": "D#4",
                    "midi": 63,
                    "time": 255.10000000000133,
                    "velocity": 0.2992125984251969,
                    "duration": 0.18000000000000682
                },
                {
                    "name": "F#6",
                    "midi": 90,
                    "time": 255.10000000000133,
                    "velocity": 0.4409448818897638,
                    "duration": 0.18000000000000682
                },
                {
                    "name": "F#4",
                    "midi": 66,
                    "time": 255.10000000000133,
                    "velocity": 0.36220472440944884,
                    "duration": 0.18000000000000682
                },
                {
                    "name": "B4",
                    "midi": 71,
                    "time": 255.10000000000133,
                    "velocity": 0.36220472440944884,
                    "duration": 0.18000000000000682
                },
                {
                    "name": "D4",
                    "midi": 62,
                    "time": 255.50000000000134,
                    "velocity": 0.3937007874015748,
                    "duration": 0.18000000000000682
                },
                {
                    "name": "F#4",
                    "midi": 66,
                    "time": 255.50000000000134,
                    "velocity": 0.3937007874015748,
                    "duration": 0.18000000000000682
                },
                {
                    "name": "D#6",
                    "midi": 87,
                    "time": 255.50000000000134,
                    "velocity": 0.48031496062992124,
                    "duration": 0.18000000000000682
                },
                {
                    "name": "B5",
                    "midi": 83,
                    "time": 255.50000000000134,
                    "velocity": 0.48031496062992124,
                    "duration": 0.18000000000000682
                },
                {
                    "name": "B4",
                    "midi": 71,
                    "time": 255.50000000000134,
                    "velocity": 0.3937007874015748,
                    "duration": 0.18000000000000682
                },
                {
                    "name": "F#4",
                    "midi": 66,
                    "time": 255.70000000000135,
                    "velocity": 0.41732283464566927,
                    "duration": 0.18000000000000682
                },
                {
                    "name": "B4",
                    "midi": 71,
                    "time": 255.70000000000135,
                    "velocity": 0.41732283464566927,
                    "duration": 0.18000000000000682
                },
                {
                    "name": "B5",
                    "midi": 83,
                    "time": 255.70000000000135,
                    "velocity": 0.49606299212598426,
                    "duration": 0.18000000000000682
                },
                {
                    "name": "D#6",
                    "midi": 87,
                    "time": 255.70000000000135,
                    "velocity": 0.49606299212598426,
                    "duration": 0.18000000000000682
                },
                {
                    "name": "D#4",
                    "midi": 63,
                    "time": 255.70000000000135,
                    "velocity": 0.3937007874015748,
                    "duration": 0.18000000000000682
                },
                {
                    "name": "E4",
                    "midi": 64,
                    "time": 255.90000000000137,
                    "velocity": 0.4015748031496063,
                    "duration": 0.1799999999999784
                },
                {
                    "name": "D#6",
                    "midi": 87,
                    "time": 255.90000000000137,
                    "velocity": 0.5354330708661418,
                    "duration": 0.1799999999999784
                },
                {
                    "name": "B4",
                    "midi": 71,
                    "time": 255.90000000000137,
                    "velocity": 0.44881889763779526,
                    "duration": 0.1799999999999784
                },
                {
                    "name": "B5",
                    "midi": 83,
                    "time": 255.90000000000137,
                    "velocity": 0.5354330708661418,
                    "duration": 0.1799999999999784
                },
                {
                    "name": "F#4",
                    "midi": 66,
                    "time": 255.90000000000137,
                    "velocity": 0.3700787401574803,
                    "duration": 0.1799999999999784
                },
                {
                    "name": "F4",
                    "midi": 65,
                    "time": 256.10000000000133,
                    "velocity": 0.3700787401574803,
                    "duration": 0.18000000000000682
                },
                {
                    "name": "D#6",
                    "midi": 87,
                    "time": 256.10000000000133,
                    "velocity": 0.5354330708661418,
                    "duration": 0.18000000000000682
                },
                {
                    "name": "B4",
                    "midi": 71,
                    "time": 256.10000000000133,
                    "velocity": 0.44881889763779526,
                    "duration": 0.18000000000000682
                },
                {
                    "name": "B5",
                    "midi": 83,
                    "time": 256.10000000000133,
                    "velocity": 0.5354330708661418,
                    "duration": 0.18000000000000682
                },
                {
                    "name": "D#6",
                    "midi": 87,
                    "time": 256.3000000000013,
                    "velocity": 0.5354330708661418,
                    "duration": 0.1349999999999909
                },
                {
                    "name": "B5",
                    "midi": 83,
                    "time": 256.3000000000013,
                    "velocity": 0.5354330708661418,
                    "duration": 0.1349999999999909
                },
                {
                    "name": "B4",
                    "midi": 71,
                    "time": 256.3000000000013,
                    "velocity": 0.44881889763779526,
                    "duration": 0.1349999999999909
                },
                {
                    "name": "F#4",
                    "midi": 66,
                    "time": 256.3000000000013,
                    "velocity": 0.3700787401574803,
                    "duration": 0.1349999999999909
                },
                {
                    "name": "G#3",
                    "midi": 56,
                    "time": 256.44375000000133,
                    "velocity": 0.36220472440944884,
                    "duration": 0.30000000000001137
                },
                {
                    "name": "D4",
                    "midi": 62,
                    "time": 256.46250000000134,
                    "velocity": 0.4094488188976378,
                    "duration": 0.30000000000001137
                },
                {
                    "name": "F4",
                    "midi": 65,
                    "time": 256.48125000000135,
                    "velocity": 0.4645669291338583,
                    "duration": 0.30000000000001137
                },
                {
                    "name": "B4",
                    "midi": 71,
                    "time": 256.50000000000136,
                    "velocity": 0.6220472440944882,
                    "duration": 1.2000000000000455
                },
                {
                    "name": "G#2",
                    "midi": 44,
                    "time": 257.58750000000134,
                    "velocity": 0.3543307086614173,
                    "duration": 0.3000000000000682
                },
                {
                    "name": "D3",
                    "midi": 50,
                    "time": 257.62500000000136,
                    "velocity": 0.3858267716535433,
                    "duration": 0.3000000000000682
                },
                {
                    "name": "F3",
                    "midi": 53,
                    "time": 257.6625000000014,
                    "velocity": 0.41732283464566927,
                    "duration": 0.3000000000000682
                },
                {
                    "name": "B3",
                    "midi": 59,
                    "time": 257.7000000000014,
                    "velocity": 0.5748031496062992,
                    "duration": 0.9000000000000341
                },
                {
                    "name": "B3",
                    "midi": 59,
                    "time": 258.60000000000144,
                    "velocity": 0.5590551181102362,
                    "duration": 0.3000000000000682
                },
                {
                    "name": "G#2",
                    "midi": 44,
                    "time": 258.82500000000147,
                    "velocity": 0.31496062992125984,
                    "duration": 0.3000000000000682
                },
                {
                    "name": "D#3",
                    "midi": 51,
                    "time": 258.8625000000015,
                    "velocity": 0.31496062992125984,
                    "duration": 0.3000000000000682
                },
                {
                    "name": "B3",
                    "midi": 59,
                    "time": 258.9000000000015,
                    "velocity": 0.5905511811023622,
                    "duration": 0.6000000000000227
                },
                {
                    "name": "G#1",
                    "midi": 32,
                    "time": 259.9500000000015,
                    "velocity": 0.4094488188976378,
                    "duration": 0.14999999999997726
                },
                {
                    "name": "D#2",
                    "midi": 39,
                    "time": 259.9500000000015,
                    "velocity": 0.4094488188976378,
                    "duration": 0.14999999999997726
                },
                {
                    "name": "D#2",
                    "midi": 39,
                    "time": 260.1000000000015,
                    "velocity": 0.48031496062992124,
                    "duration": 0.30000000000001137
                },
                {
                    "name": "G#1",
                    "midi": 32,
                    "time": 260.1000000000015,
                    "velocity": 0.48031496062992124,
                    "duration": 0.30000000000001137
                },
                {
                    "name": "G#3",
                    "midi": 56,
                    "time": 261.2437500000015,
                    "velocity": 0.36220472440944884,
                    "duration": 0.30000000000001137
                },
                {
                    "name": "D4",
                    "midi": 62,
                    "time": 261.2625000000015,
                    "velocity": 0.4094488188976378,
                    "duration": 0.30000000000001137
                },
                {
                    "name": "F4",
                    "midi": 65,
                    "time": 261.28125000000153,
                    "velocity": 0.4645669291338583,
                    "duration": 0.30000000000001137
                },
                {
                    "name": "B4",
                    "midi": 71,
                    "time": 261.30000000000155,
                    "velocity": 0.6220472440944882,
                    "duration": 1.2000000000000455
                },
                {
                    "name": "G#2",
                    "midi": 44,
                    "time": 262.3875000000015,
                    "velocity": 0.3543307086614173,
                    "duration": 0.3000000000000682
                },
                {
                    "name": "D3",
                    "midi": 50,
                    "time": 262.42500000000155,
                    "velocity": 0.3858267716535433,
                    "duration": 0.3000000000000682
                },
                {
                    "name": "F3",
                    "midi": 53,
                    "time": 262.46250000000157,
                    "velocity": 0.41732283464566927,
                    "duration": 0.3000000000000682
                },
                {
                    "name": "B3",
                    "midi": 59,
                    "time": 262.5000000000016,
                    "velocity": 0.5748031496062992,
                    "duration": 0.9000000000000341
                },
                {
                    "name": "B3",
                    "midi": 59,
                    "time": 263.4000000000016,
                    "velocity": 0.5590551181102362,
                    "duration": 0.3000000000000682
                },
                {
                    "name": "G#2",
                    "midi": 44,
                    "time": 263.62500000000165,
                    "velocity": 0.31496062992125984,
                    "duration": 0.3000000000000682
                },
                {
                    "name": "D#3",
                    "midi": 51,
                    "time": 263.66250000000167,
                    "velocity": 0.31496062992125984,
                    "duration": 0.3000000000000682
                },
                {
                    "name": "B3",
                    "midi": 59,
                    "time": 263.7000000000017,
                    "velocity": 0.5905511811023622,
                    "duration": 0.6000000000000227
                },
                {
                    "name": "D#2",
                    "midi": 39,
                    "time": 264.7500000000017,
                    "velocity": 0.4094488188976378,
                    "duration": 0.14999999999997726
                },
                {
                    "name": "G#1",
                    "midi": 32,
                    "time": 264.7500000000017,
                    "velocity": 0.4094488188976378,
                    "duration": 0.14999999999997726
                },
                {
                    "name": "D#2",
                    "midi": 39,
                    "time": 264.9000000000017,
                    "velocity": 0.4881889763779528,
                    "duration": 0.30000000000001137
                },
                {
                    "name": "G#1",
                    "midi": 32,
                    "time": 264.9000000000017,
                    "velocity": 0.4881889763779528,
                    "duration": 0.30000000000001137
                },
                {
                    "name": "G#3",
                    "midi": 56,
                    "time": 266.0437500000017,
                    "velocity": 0.3779527559055118,
                    "duration": 0.30000000000001137
                },
                {
                    "name": "D4",
                    "midi": 62,
                    "time": 266.0625000000017,
                    "velocity": 0.4330708661417323,
                    "duration": 0.30000000000001137
                },
                {
                    "name": "F4",
                    "midi": 65,
                    "time": 266.0812500000017,
                    "velocity": 0.4881889763779528,
                    "duration": 0.30000000000001137
                },
                {
                    "name": "B4",
                    "midi": 71,
                    "time": 266.1000000000017,
                    "velocity": 0.6614173228346457,
                    "duration": 1.2000000000000455
                },
                {
                    "name": "G#2",
                    "midi": 44,
                    "time": 267.1875000000017,
                    "velocity": 0.3858267716535433,
                    "duration": 0.3000000000000682
                },
                {
                    "name": "D3",
                    "midi": 50,
                    "time": 267.2250000000017,
                    "velocity": 0.41732283464566927,
                    "duration": 0.3000000000000682
                },
                {
                    "name": "F3",
                    "midi": 53,
                    "time": 267.26250000000175,
                    "velocity": 0.4566929133858268,
                    "duration": 0.3000000000000682
                },
                {
                    "name": "B3",
                    "midi": 59,
                    "time": 267.3000000000018,
                    "velocity": 0.6299212598425197,
                    "duration": 0.9000000000000341
                },
                {
                    "name": "B3",
                    "midi": 59,
                    "time": 268.2000000000018,
                    "velocity": 0.6299212598425197,
                    "duration": 0.30000000000001137
                },
                {
                    "name": "G2",
                    "midi": 43,
                    "time": 268.3500000000018,
                    "velocity": 0.4015748031496063,
                    "duration": 0.30000000000001137
                },
                {
                    "name": "E3",
                    "midi": 52,
                    "time": 268.4250000000018,
                    "velocity": 0.5039370078740157,
                    "duration": 0.30000000000001137
                },
                {
                    "name": "G3",
                    "midi": 55,
                    "time": 268.4625000000018,
                    "velocity": 0.5433070866141733,
                    "duration": 0.30000000000001137
                },
                {
                    "name": "C4",
                    "midi": 60,
                    "time": 268.5000000000018,
                    "velocity": 0.6692913385826772,
                    "duration": 1.1999999999999886
                },
                {
                    "name": "E4",
                    "midi": 64,
                    "time": 268.5000000000018,
                    "velocity": 0.6692913385826772,
                    "duration": 1.1999999999999886
                },
                {
                    "name": "G2",
                    "midi": 43,
                    "time": 269.7000000000018,
                    "velocity": 0.6141732283464567,
                    "duration": 0.30000000000001137
                },
                {
                    "name": "G1",
                    "midi": 31,
                    "time": 269.7000000000018,
                    "velocity": 0.6141732283464567,
                    "duration": 0.30000000000001137
                },
                {
                    "name": "C4",
                    "midi": 60,
                    "time": 270.30000000000183,
                    "velocity": 0.5433070866141733,
                    "duration": 0.6000000000000227
                },
                {
                    "name": "G3",
                    "midi": 55,
                    "time": 270.30000000000183,
                    "velocity": 0.5433070866141733,
                    "duration": 0.6000000000000227
                },
                {
                    "name": "E4",
                    "midi": 64,
                    "time": 270.30000000000183,
                    "velocity": 0.6456692913385826,
                    "duration": 0.6000000000000227
                },
                {
                    "name": "G#3",
                    "midi": 56,
                    "time": 270.90000000000185,
                    "velocity": 0.5669291338582677,
                    "duration": 1.0874999999999773
                },
                {
                    "name": "F4",
                    "midi": 65,
                    "time": 270.90000000000185,
                    "velocity": 0.6692913385826772,
                    "duration": 1.0874999999999773
                },
                {
                    "name": "C#4",
                    "midi": 61,
                    "time": 270.90000000000185,
                    "velocity": 0.5669291338582677,
                    "duration": 1.0874999999999773
                },
                {
                    "name": "G2",
                    "midi": 43,
                    "time": 271.98750000000183,
                    "velocity": 0.3858267716535433,
                    "duration": 0.3000000000000682
                },
                {
                    "name": "D3",
                    "midi": 50,
                    "time": 272.02500000000185,
                    "velocity": 0.41732283464566927,
                    "duration": 0.3000000000000682
                },
                {
                    "name": "F3",
                    "midi": 53,
                    "time": 272.0625000000019,
                    "velocity": 0.4566929133858268,
                    "duration": 0.3000000000000682
                },
                {
                    "name": "B3",
                    "midi": 59,
                    "time": 272.1000000000019,
                    "velocity": 0.6299212598425197,
                    "duration": 0.9000000000000341
                },
                {
                    "name": "F3",
                    "midi": 53,
                    "time": 273.00000000000193,
                    "velocity": 0.4881889763779528,
                    "duration": 0.30000000000001137
                },
                {
                    "name": "D3",
                    "midi": 50,
                    "time": 273.00000000000193,
                    "velocity": 0.4881889763779528,
                    "duration": 0.30000000000001137
                },
                {
                    "name": "B3",
                    "midi": 59,
                    "time": 273.00000000000193,
                    "velocity": 0.6299212598425197,
                    "duration": 0.30000000000001137
                },
                {
                    "name": "C4",
                    "midi": 60,
                    "time": 273.30000000000194,
                    "velocity": 0.5669291338582677,
                    "duration": 1.1999999999999886
                },
                {
                    "name": "G3",
                    "midi": 55,
                    "time": 273.30000000000194,
                    "velocity": 0.5669291338582677,
                    "duration": 1.1999999999999886
                },
                {
                    "name": "E4",
                    "midi": 64,
                    "time": 273.30000000000194,
                    "velocity": 0.6692913385826772,
                    "duration": 1.1999999999999886
                },
                {
                    "name": "G2",
                    "midi": 43,
                    "time": 274.50000000000193,
                    "velocity": 0.5984251968503937,
                    "duration": 0.30000000000001137
                },
                {
                    "name": "G1",
                    "midi": 31,
                    "time": 274.50000000000193,
                    "velocity": 0.5039370078740157,
                    "duration": 0.30000000000001137
                },
                {
                    "name": "G3",
                    "midi": 55,
                    "time": 275.10000000000196,
                    "velocity": 0.5275590551181102,
                    "duration": 0.6000000000000227
                },
                {
                    "name": "C4",
                    "midi": 60,
                    "time": 275.10000000000196,
                    "velocity": 0.5275590551181102,
                    "duration": 0.6000000000000227
                },
                {
                    "name": "E4",
                    "midi": 64,
                    "time": 275.10000000000196,
                    "velocity": 0.6299212598425197,
                    "duration": 0.6000000000000227
                },
                {
                    "name": "F4",
                    "midi": 65,
                    "time": 275.700000000002,
                    "velocity": 0.6377952755905512,
                    "duration": 1.8000000000000114
                },
                {
                    "name": "C#4",
                    "midi": 61,
                    "time": 275.700000000002,
                    "velocity": 0.5433070866141733,
                    "duration": 0.6000000000000227
                },
                {
                    "name": "G#3",
                    "midi": 56,
                    "time": 275.700000000002,
                    "velocity": 0.5433070866141733,
                    "duration": 0.6000000000000227
                },
                {
                    "name": "G#2",
                    "midi": 44,
                    "time": 280.500000000002,
                    "velocity": 0.2755905511811024,
                    "duration": 0.19999999999998863
                },
                {
                    "name": "F3",
                    "midi": 53,
                    "time": 280.500000000002,
                    "velocity": 0.3228346456692913,
                    "duration": 0.19999999999998863
                },
                {
                    "name": "C#3",
                    "midi": 49,
                    "time": 280.500000000002,
                    "velocity": 0.2755905511811024,
                    "duration": 0.19999999999998863
                },
                {
                    "name": "C3",
                    "midi": 48,
                    "time": 280.700000000002,
                    "velocity": 0.2755905511811024,
                    "duration": 0.19999999999998863
                },
                {
                    "name": "G2",
                    "midi": 43,
                    "time": 280.700000000002,
                    "velocity": 0.2755905511811024,
                    "duration": 0.19999999999998863
                },
                {
                    "name": "E3",
                    "midi": 52,
                    "time": 280.700000000002,
                    "velocity": 0.3228346456692913,
                    "duration": 0.19999999999998863
                },
                {
                    "name": "D#3",
                    "midi": 51,
                    "time": 280.90000000000197,
                    "velocity": 0.31496062992125984,
                    "duration": 0.19999999999998863
                },
                {
                    "name": "F#2",
                    "midi": 42,
                    "time": 280.90000000000197,
                    "velocity": 0.25984251968503935,
                    "duration": 0.19999999999998863
                },
                {
                    "name": "B2",
                    "midi": 47,
                    "time": 280.90000000000197,
                    "velocity": 0.25984251968503935,
                    "duration": 0.19999999999998863
                },
                {
                    "name": "F2",
                    "midi": 41,
                    "time": 281.10000000000196,
                    "velocity": 0.25196850393700787,
                    "duration": 0.19999999999998863
                },
                {
                    "name": "D3",
                    "midi": 50,
                    "time": 281.10000000000196,
                    "velocity": 0.2992125984251969,
                    "duration": 0.19999999999998863
                },
                {
                    "name": "A#2",
                    "midi": 46,
                    "time": 281.10000000000196,
                    "velocity": 0.2992125984251969,
                    "duration": 0.19999999999998863
                },
                {
                    "name": "A2",
                    "midi": 45,
                    "time": 281.30000000000194,
                    "velocity": 0.25196850393700787,
                    "duration": 0.19999999999998863
                },
                {
                    "name": "E2",
                    "midi": 40,
                    "time": 281.30000000000194,
                    "velocity": 0.25196850393700787,
                    "duration": 0.19999999999998863
                },
                {
                    "name": "C#3",
                    "midi": 49,
                    "time": 281.30000000000194,
                    "velocity": 0.2992125984251969,
                    "duration": 0.19999999999998863
                },
                {
                    "name": "C3",
                    "midi": 48,
                    "time": 281.50000000000193,
                    "velocity": 0.28346456692913385,
                    "duration": 0.19999999999998863
                },
                {
                    "name": "D#2",
                    "midi": 39,
                    "time": 281.50000000000193,
                    "velocity": 0.23622047244094488,
                    "duration": 0.19999999999998863
                },
                {
                    "name": "G#2",
                    "midi": 44,
                    "time": 281.50000000000193,
                    "velocity": 0.23622047244094488,
                    "duration": 0.19999999999998863
                },
                {
                    "name": "D2",
                    "midi": 38,
                    "time": 281.7000000000019,
                    "velocity": 0.23622047244094488,
                    "duration": 0.19999999999998863
                },
                {
                    "name": "B2",
                    "midi": 47,
                    "time": 281.7000000000019,
                    "velocity": 0.2755905511811024,
                    "duration": 0.19999999999998863
                },
                {
                    "name": "G2",
                    "midi": 43,
                    "time": 281.7000000000019,
                    "velocity": 0.23622047244094488,
                    "duration": 0.19999999999998863
                },
                {
                    "name": "A#2",
                    "midi": 46,
                    "time": 281.9000000000019,
                    "velocity": 0.2755905511811024,
                    "duration": 0.19999999999998863
                },
                {
                    "name": "C#2",
                    "midi": 37,
                    "time": 281.9000000000019,
                    "velocity": 0.2283464566929134,
                    "duration": 0.19999999999998863
                },
                {
                    "name": "F#2",
                    "midi": 42,
                    "time": 281.9000000000019,
                    "velocity": 0.2283464566929134,
                    "duration": 0.19999999999998863
                },
                {
                    "name": "C2",
                    "midi": 36,
                    "time": 282.1000000000019,
                    "velocity": 0.2204724409448819,
                    "duration": 0.19999999999998863
                },
                {
                    "name": "A2",
                    "midi": 45,
                    "time": 282.1000000000019,
                    "velocity": 0.2677165354330709,
                    "duration": 0.19999999999998863
                },
                {
                    "name": "F2",
                    "midi": 41,
                    "time": 282.1000000000019,
                    "velocity": 0.2204724409448819,
                    "duration": 0.19999999999998863
                },
                {
                    "name": "B1",
                    "midi": 35,
                    "time": 282.3000000000019,
                    "velocity": 0.2204724409448819,
                    "duration": 0.19999999999998863
                },
                {
                    "name": "E2",
                    "midi": 40,
                    "time": 282.3000000000019,
                    "velocity": 0.2204724409448819,
                    "duration": 0.19999999999998863
                },
                {
                    "name": "G#2",
                    "midi": 44,
                    "time": 282.3000000000019,
                    "velocity": 0.2677165354330709,
                    "duration": 0.19999999999998863
                },
                {
                    "name": "G2",
                    "midi": 43,
                    "time": 282.5000000000019,
                    "velocity": 0.25984251968503935,
                    "duration": 0.19999999999998863
                },
                {
                    "name": "D#2",
                    "midi": 39,
                    "time": 282.5000000000019,
                    "velocity": 0.2125984251968504,
                    "duration": 0.19999999999998863
                },
                {
                    "name": "A#1",
                    "midi": 34,
                    "time": 282.5000000000019,
                    "velocity": 0.2125984251968504,
                    "duration": 0.19999999999998863
                },
                {
                    "name": "F#2",
                    "midi": 42,
                    "time": 282.70000000000186,
                    "velocity": 0.2440944881889764,
                    "duration": 0.19999999999998863
                },
                {
                    "name": "A1",
                    "midi": 33,
                    "time": 282.70000000000186,
                    "velocity": 0.2047244094488189,
                    "duration": 0.19999999999998863
                },
                {
                    "name": "D2",
                    "midi": 38,
                    "time": 282.70000000000186,
                    "velocity": 0.2047244094488189,
                    "duration": 0.19999999999998863
                },
                {
                    "name": "C#2",
                    "midi": 37,
                    "time": 282.90000000000185,
                    "velocity": 0.1889763779527559,
                    "duration": 0.19999999999998863
                },
                {
                    "name": "F2",
                    "midi": 41,
                    "time": 282.90000000000185,
                    "velocity": 0.2204724409448819,
                    "duration": 0.19999999999998863
                },
                {
                    "name": "G#1",
                    "midi": 32,
                    "time": 282.90000000000185,
                    "velocity": 0.1889763779527559,
                    "duration": 0.19999999999998863
                },
                {
                    "name": "A1",
                    "midi": 33,
                    "time": 283.10000000000184,
                    "velocity": 0.1968503937007874,
                    "duration": 0.19999999999998863
                },
                {
                    "name": "F#2",
                    "midi": 42,
                    "time": 283.10000000000184,
                    "velocity": 0.23622047244094488,
                    "duration": 0.19999999999998863
                },
                {
                    "name": "D2",
                    "midi": 38,
                    "time": 283.10000000000184,
                    "velocity": 0.1968503937007874,
                    "duration": 0.19999999999998863
                },
                {
                    "name": "D#2",
                    "midi": 39,
                    "time": 283.30000000000183,
                    "velocity": 0.2204724409448819,
                    "duration": 0.19999999999998863
                },
                {
                    "name": "G2",
                    "midi": 43,
                    "time": 283.30000000000183,
                    "velocity": 0.2677165354330709,
                    "duration": 0.19999999999998863
                },
                {
                    "name": "A#1",
                    "midi": 34,
                    "time": 283.30000000000183,
                    "velocity": 0.2204724409448819,
                    "duration": 0.19999999999998863
                },
                {
                    "name": "E2",
                    "midi": 40,
                    "time": 283.5000000000018,
                    "velocity": 0.2283464566929134,
                    "duration": 0.19999999999998863
                },
                {
                    "name": "B1",
                    "midi": 35,
                    "time": 283.5000000000018,
                    "velocity": 0.2283464566929134,
                    "duration": 0.19999999999998863
                },
                {
                    "name": "G#2",
                    "midi": 44,
                    "time": 283.5000000000018,
                    "velocity": 0.2755905511811024,
                    "duration": 0.19999999999998863
                },
                {
                    "name": "D#2",
                    "midi": 39,
                    "time": 283.7000000000018,
                    "velocity": 0.2204724409448819,
                    "duration": 0.19999999999998863
                },
                {
                    "name": "G2",
                    "midi": 43,
                    "time": 283.7000000000018,
                    "velocity": 0.25984251968503935,
                    "duration": 0.19999999999998863
                },
                {
                    "name": "A#1",
                    "midi": 34,
                    "time": 283.7000000000018,
                    "velocity": 0.2204724409448819,
                    "duration": 0.19999999999998863
                },
                {
                    "name": "D2",
                    "midi": 38,
                    "time": 283.9000000000018,
                    "velocity": 0.2204724409448819,
                    "duration": 0.19999999999998863
                },
                {
                    "name": "A1",
                    "midi": 33,
                    "time": 283.9000000000018,
                    "velocity": 0.2204724409448819,
                    "duration": 0.19999999999998863
                },
                {
                    "name": "F#2",
                    "midi": 42,
                    "time": 283.9000000000018,
                    "velocity": 0.25196850393700787,
                    "duration": 0.19999999999998863
                },
                {
                    "name": "G#1",
                    "midi": 32,
                    "time": 284.1000000000018,
                    "velocity": 0.2047244094488189,
                    "duration": 0.19999999999998863
                },
                {
                    "name": "C#2",
                    "midi": 37,
                    "time": 284.1000000000018,
                    "velocity": 0.2047244094488189,
                    "duration": 0.19999999999998863
                },
                {
                    "name": "F2",
                    "midi": 41,
                    "time": 284.1000000000018,
                    "velocity": 0.25196850393700787,
                    "duration": 0.19999999999998863
                },
                {
                    "name": "F#2",
                    "midi": 42,
                    "time": 284.3000000000018,
                    "velocity": 0.25984251968503935,
                    "duration": 0.19999999999998863
                },
                {
                    "name": "D2",
                    "midi": 38,
                    "time": 284.3000000000018,
                    "velocity": 0.2204724409448819,
                    "duration": 0.19999999999998863
                },
                {
                    "name": "A1",
                    "midi": 33,
                    "time": 284.3000000000018,
                    "velocity": 0.2204724409448819,
                    "duration": 0.19999999999998863
                },
                {
                    "name": "D#2",
                    "midi": 39,
                    "time": 284.50000000000176,
                    "velocity": 0.2204724409448819,
                    "duration": 0.19999999999998863
                },
                {
                    "name": "G2",
                    "midi": 43,
                    "time": 284.50000000000176,
                    "velocity": 0.2755905511811024,
                    "duration": 0.19999999999998863
                },
                {
                    "name": "A#1",
                    "midi": 34,
                    "time": 284.50000000000176,
                    "velocity": 0.2204724409448819,
                    "duration": 0.19999999999998863
                },
                {
                    "name": "G#2",
                    "midi": 44,
                    "time": 284.70000000000175,
                    "velocity": 0.28346456692913385,
                    "duration": 0.19999999999998863
                },
                {
                    "name": "B1",
                    "midi": 35,
                    "time": 284.70000000000175,
                    "velocity": 0.2440944881889764,
                    "duration": 0.19999999999998863
                },
                {
                    "name": "E2",
                    "midi": 40,
                    "time": 284.70000000000175,
                    "velocity": 0.2440944881889764,
                    "duration": 0.19999999999998863
                },
                {
                    "name": "A#1",
                    "midi": 34,
                    "time": 284.90000000000174,
                    "velocity": 0.2283464566929134,
                    "duration": 0.19999999999998863
                },
                {
                    "name": "G2",
                    "midi": 43,
                    "time": 284.90000000000174,
                    "velocity": 0.2755905511811024,
                    "duration": 0.19999999999998863
                },
                {
                    "name": "D#2",
                    "midi": 39,
                    "time": 284.90000000000174,
                    "velocity": 0.2283464566929134,
                    "duration": 0.19999999999998863
                },
                {
                    "name": "A1",
                    "midi": 33,
                    "time": 285.1000000000017,
                    "velocity": 0.2204724409448819,
                    "duration": 0.19999999999998863
                },
                {
                    "name": "D2",
                    "midi": 38,
                    "time": 285.1000000000017,
                    "velocity": 0.2204724409448819,
                    "duration": 0.19999999999998863
                },
                {
                    "name": "F#2",
                    "midi": 42,
                    "time": 285.1000000000017,
                    "velocity": 0.2677165354330709,
                    "duration": 0.19999999999998863
                },
                {
                    "name": "F2",
                    "midi": 41,
                    "time": 285.3000000000017,
                    "velocity": 0.29133858267716534,
                    "duration": 0.19999999999998863
                },
                {
                    "name": "C#2",
                    "midi": 37,
                    "time": 285.3000000000017,
                    "velocity": 0.25196850393700787,
                    "duration": 0.19999999999998863
                },
                {
                    "name": "G#1",
                    "midi": 32,
                    "time": 285.3000000000017,
                    "velocity": 0.25196850393700787,
                    "duration": 0.19999999999998863
                },
                {
                    "name": "D2",
                    "midi": 38,
                    "time": 285.5000000000017,
                    "velocity": 0.23622047244094488,
                    "duration": 0.19999999999998863
                },
                {
                    "name": "A1",
                    "midi": 33,
                    "time": 285.5000000000017,
                    "velocity": 0.23622047244094488,
                    "duration": 0.19999999999998863
                },
                {
                    "name": "F#2",
                    "midi": 42,
                    "time": 285.5000000000017,
                    "velocity": 0.28346456692913385,
                    "duration": 0.19999999999998863
                },
                {
                    "name": "D#2",
                    "midi": 39,
                    "time": 285.7000000000017,
                    "velocity": 0.25196850393700787,
                    "duration": 0.19999999999998863
                },
                {
                    "name": "A#1",
                    "midi": 34,
                    "time": 285.7000000000017,
                    "velocity": 0.25196850393700787,
                    "duration": 0.19999999999998863
                },
                {
                    "name": "G2",
                    "midi": 43,
                    "time": 285.7000000000017,
                    "velocity": 0.29133858267716534,
                    "duration": 0.19999999999998863
                },
                {
                    "name": "E2",
                    "midi": 40,
                    "time": 285.9000000000017,
                    "velocity": 0.25196850393700787,
                    "duration": 0.19999999999998863
                },
                {
                    "name": "G#2",
                    "midi": 44,
                    "time": 285.9000000000017,
                    "velocity": 0.2992125984251969,
                    "duration": 0.19999999999998863
                },
                {
                    "name": "B1",
                    "midi": 35,
                    "time": 285.9000000000017,
                    "velocity": 0.25196850393700787,
                    "duration": 0.19999999999998863
                },
                {
                    "name": "A#1",
                    "midi": 34,
                    "time": 286.10000000000167,
                    "velocity": 0.25984251968503935,
                    "duration": 0.19999999999998863
                },
                {
                    "name": "D#2",
                    "midi": 39,
                    "time": 286.10000000000167,
                    "velocity": 0.25984251968503935,
                    "duration": 0.19999999999998863
                },
                {
                    "name": "G2",
                    "midi": 43,
                    "time": 286.10000000000167,
                    "velocity": 0.31496062992125984,
                    "duration": 0.19999999999998863
                },
                {
                    "name": "A1",
                    "midi": 33,
                    "time": 286.30000000000166,
                    "velocity": 0.2755905511811024,
                    "duration": 0.19999999999998863
                },
                {
                    "name": "D2",
                    "midi": 38,
                    "time": 286.30000000000166,
                    "velocity": 0.2755905511811024,
                    "duration": 0.19999999999998863
                },
                {
                    "name": "F#2",
                    "midi": 42,
                    "time": 286.30000000000166,
                    "velocity": 0.3228346456692913,
                    "duration": 0.19999999999998863
                },
                {
                    "name": "C#2",
                    "midi": 37,
                    "time": 286.50000000000165,
                    "velocity": 0.25196850393700787,
                    "duration": 0.19999999999998863
                },
                {
                    "name": "G#1",
                    "midi": 32,
                    "time": 286.50000000000165,
                    "velocity": 0.25196850393700787,
                    "duration": 0.19999999999998863
                },
                {
                    "name": "F2",
                    "midi": 41,
                    "time": 286.50000000000165,
                    "velocity": 0.2992125984251969,
                    "duration": 0.19999999999998863
                },
                {
                    "name": "F#2",
                    "midi": 42,
                    "time": 286.70000000000164,
                    "velocity": 0.2992125984251969,
                    "duration": 0.19999999999998863
                },
                {
                    "name": "D2",
                    "midi": 38,
                    "time": 286.70000000000164,
                    "velocity": 0.25196850393700787,
                    "duration": 0.19999999999998863
                },
                {
                    "name": "A1",
                    "midi": 33,
                    "time": 286.70000000000164,
                    "velocity": 0.25196850393700787,
                    "duration": 0.19999999999998863
                },
                {
                    "name": "A#1",
                    "midi": 34,
                    "time": 286.9000000000016,
                    "velocity": 0.2440944881889764,
                    "duration": 0.19999999999998863
                },
                {
                    "name": "G2",
                    "midi": 43,
                    "time": 286.9000000000016,
                    "velocity": 0.28346456692913385,
                    "duration": 0.19999999999998863
                },
                {
                    "name": "D#2",
                    "midi": 39,
                    "time": 286.9000000000016,
                    "velocity": 0.2440944881889764,
                    "duration": 0.19999999999998863
                },
                {
                    "name": "E2",
                    "midi": 40,
                    "time": 287.1000000000016,
                    "velocity": 0.2992125984251969,
                    "duration": 0.19999999999998863
                },
                {
                    "name": "B1",
                    "midi": 35,
                    "time": 287.1000000000016,
                    "velocity": 0.25196850393700787,
                    "duration": 0.39999999999997726
                },
                {
                    "name": "G#2",
                    "midi": 44,
                    "time": 287.1000000000016,
                    "velocity": 0.2992125984251969,
                    "duration": 0.39999999999997726
                },
                {
                    "name": "F2",
                    "midi": 41,
                    "time": 287.3000000000016,
                    "velocity": 0.29133858267716534,
                    "duration": 0.19999999999998863
                },
                {
                    "name": "C#1",
                    "midi": 25,
                    "time": 287.3000000000016,
                    "velocity": 0.2440944881889764,
                    "duration": 0.39999999999997726
                },
                {
                    "name": "G2",
                    "midi": 43,
                    "time": 287.5000000000016,
                    "velocity": 0.29133858267716534,
                    "duration": 0.8000000000000114
                },
                {
                    "name": "C2",
                    "midi": 36,
                    "time": 287.7000000000016,
                    "velocity": 0.2992125984251969,
                    "duration": 0.6000000000000227
                },
                {
                    "name": "C1",
                    "midi": 24,
                    "time": 287.7000000000016,
                    "velocity": 0.2992125984251969,
                    "duration": 0.6000000000000227
                },
                {
                    "name": "E2",
                    "midi": 40,
                    "time": 287.7000000000016,
                    "velocity": 0.2992125984251969,
                    "duration": 0.6000000000000227
                },
                {
                    "name": "C3",
                    "midi": 48,
                    "time": 288.3000000000016,
                    "velocity": 0.2992125984251969,
                    "duration": 0.375
                },
                {
                    "name": "G3",
                    "midi": 55,
                    "time": 288.5000000000016,
                    "velocity": 0.25196850393700787,
                    "duration": 0.19999999999998863
                },
                {
                    "name": "E3",
                    "midi": 52,
                    "time": 288.5000000000016,
                    "velocity": 0.2125984251968504,
                    "duration": 0.19999999999998863
                },
                {
                    "name": "C2",
                    "midi": 36,
                    "time": 288.7000000000016,
                    "velocity": 0.2125984251968504,
                    "duration": 0.19999999999998863
                },
                {
                    "name": "C3",
                    "midi": 48,
                    "time": 288.7000000000016,
                    "velocity": 0.25196850393700787,
                    "duration": 0.19999999999998863
                },
                {
                    "name": "C#3",
                    "midi": 49,
                    "time": 288.90000000000157,
                    "velocity": 0.31496062992125984,
                    "duration": 0.5999999999999659
                },
                {
                    "name": "F3",
                    "midi": 53,
                    "time": 289.10000000000156,
                    "velocity": 0.2283464566929134,
                    "duration": 0.19999999999998863
                },
                {
                    "name": "G#3",
                    "midi": 56,
                    "time": 289.10000000000156,
                    "velocity": 0.2755905511811024,
                    "duration": 0.19999999999998863
                },
                {
                    "name": "B1",
                    "midi": 35,
                    "time": 289.30000000000155,
                    "velocity": 0.2283464566929134,
                    "duration": 0.19999999999998863
                },
                {
                    "name": "B2",
                    "midi": 47,
                    "time": 289.30000000000155,
                    "velocity": 0.2755905511811024,
                    "duration": 0.19999999999998863
                },
                {
                    "name": "D3",
                    "midi": 50,
                    "time": 289.50000000000153,
                    "velocity": 0.3228346456692913,
                    "duration": 0.5999999999999659
                },
                {
                    "name": "G#3",
                    "midi": 56,
                    "time": 289.7000000000015,
                    "velocity": 0.2677165354330709,
                    "duration": 0.19999999999998863
                },
                {
                    "name": "F3",
                    "midi": 53,
                    "time": 289.7000000000015,
                    "velocity": 0.2283464566929134,
                    "duration": 0.19999999999998863
                },
                {
                    "name": "A#2",
                    "midi": 46,
                    "time": 289.9000000000015,
                    "velocity": 0.2677165354330709,
                    "duration": 0.19999999999998863
                },
                {
                    "name": "A#1",
                    "midi": 34,
                    "time": 289.9000000000015,
                    "velocity": 0.2283464566929134,
                    "duration": 0.19999999999998863
                },
                {
                    "name": "D#3",
                    "midi": 51,
                    "time": 290.1000000000015,
                    "velocity": 0.3543307086614173,
                    "duration": 0.5999999999999659
                },
                {
                    "name": "A#3",
                    "midi": 58,
                    "time": 290.3000000000015,
                    "velocity": 0.2992125984251969,
                    "duration": 0.19999999999998863
                },
                {
                    "name": "G3",
                    "midi": 55,
                    "time": 290.3000000000015,
                    "velocity": 0.25196850393700787,
                    "duration": 0.19999999999998863
                },
                {
                    "name": "D#2",
                    "midi": 39,
                    "time": 290.5000000000015,
                    "velocity": 0.30708661417322836,
                    "duration": 0.19999999999998863
                },
                {
                    "name": "D#1",
                    "midi": 27,
                    "time": 290.5000000000015,
                    "velocity": 0.25196850393700787,
                    "duration": 0.19999999999998863
                },
                {
                    "name": "E3",
                    "midi": 52,
                    "time": 290.70000000000147,
                    "velocity": 0.36220472440944884,
                    "duration": 0.5999999999999659
                },
                {
                    "name": "B3",
                    "midi": 59,
                    "time": 290.90000000000146,
                    "velocity": 0.30708661417322836,
                    "duration": 0.19999999999998863
                },
                {
                    "name": "G#3",
                    "midi": 56,
                    "time": 290.90000000000146,
                    "velocity": 0.25196850393700787,
                    "duration": 0.19999999999998863
                },
                {
                    "name": "D2",
                    "midi": 38,
                    "time": 291.10000000000144,
                    "velocity": 0.25196850393700787,
                    "duration": 0.19999999999998863
                },
                {
                    "name": "D3",
                    "midi": 50,
                    "time": 291.10000000000144,
                    "velocity": 0.30708661417322836,
                    "duration": 0.19999999999998863
                },
                {
                    "name": "F3",
                    "midi": 53,
                    "time": 291.30000000000143,
                    "velocity": 0.36220472440944884,
                    "duration": 0.5999999999999659
                },
                {
                    "name": "B3",
                    "midi": 59,
                    "time": 291.5000000000014,
                    "velocity": 0.3228346456692913,
                    "duration": 0.19999999999998863
                },
                {
                    "name": "G#3",
                    "midi": 56,
                    "time": 291.5000000000014,
                    "velocity": 0.2677165354330709,
                    "duration": 0.19999999999998863
                },
                {
                    "name": "C#3",
                    "midi": 49,
                    "time": 291.7000000000014,
                    "velocity": 0.33858267716535434,
                    "duration": 0.19999999999998863
                },
                {
                    "name": "C#2",
                    "midi": 37,
                    "time": 291.7000000000014,
                    "velocity": 0.28346456692913385,
                    "duration": 0.19999999999998863
                },
                {
                    "name": "F#3",
                    "midi": 54,
                    "time": 291.9000000000014,
                    "velocity": 0.3858267716535433,
                    "duration": 0.5999999999999659
                },
                {
                    "name": "C#4",
                    "midi": 61,
                    "time": 292.1000000000014,
                    "velocity": 0.33858267716535434,
                    "duration": 0.19999999999998863
                },
                {
                    "name": "A#3",
                    "midi": 58,
                    "time": 292.1000000000014,
                    "velocity": 0.28346456692913385,
                    "duration": 0.19999999999998863
                },
                {
                    "name": "F#1",
                    "midi": 30,
                    "time": 292.3000000000014,
                    "velocity": 0.28346456692913385,
                    "duration": 0.19999999999998863
                },
                {
                    "name": "F#2",
                    "midi": 42,
                    "time": 292.3000000000014,
                    "velocity": 0.3464566929133858,
                    "duration": 0.19999999999998863
                },
                {
                    "name": "G3",
                    "midi": 55,
                    "time": 292.50000000000136,
                    "velocity": 0.4094488188976378,
                    "duration": 0.5999999999999659
                },
                {
                    "name": "D4",
                    "midi": 62,
                    "time": 292.70000000000135,
                    "velocity": 0.36220472440944884,
                    "duration": 0.19999999999998863
                },
                {
                    "name": "B3",
                    "midi": 59,
                    "time": 292.70000000000135,
                    "velocity": 0.30708661417322836,
                    "duration": 0.19999999999998863
                },
                {
                    "name": "F1",
                    "midi": 29,
                    "time": 292.90000000000134,
                    "velocity": 0.30708661417322836,
                    "duration": 0.19999999999998863
                },
                {
                    "name": "F2",
                    "midi": 41,
                    "time": 292.90000000000134,
                    "velocity": 0.36220472440944884,
                    "duration": 0.19999999999998863
                },
                {
                    "name": "G#3",
                    "midi": 56,
                    "time": 293.10000000000133,
                    "velocity": 0.41732283464566927,
                    "duration": 0.5999999999999659
                },
                {
                    "name": "B3",
                    "midi": 59,
                    "time": 293.3000000000013,
                    "velocity": 0.2992125984251969,
                    "duration": 0.19999999999998863
                },
                {
                    "name": "D4",
                    "midi": 62,
                    "time": 293.3000000000013,
                    "velocity": 0.36220472440944884,
                    "duration": 0.19999999999998863
                },
                {
                    "name": "E1",
                    "midi": 28,
                    "time": 293.5000000000013,
                    "velocity": 0.30708661417322836,
                    "duration": 0.19999999999998863
                },
                {
                    "name": "E2",
                    "midi": 40,
                    "time": 293.5000000000013,
                    "velocity": 0.36220472440944884,
                    "duration": 0.19999999999998863
                },
                {
                    "name": "A3",
                    "midi": 57,
                    "time": 293.7000000000013,
                    "velocity": 0.4330708661417323,
                    "duration": 0.5999999999999659
                },
                {
                    "name": "C#4",
                    "midi": 61,
                    "time": 293.9000000000013,
                    "velocity": 0.30708661417322836,
                    "duration": 0.19999999999998863
                },
                {
                    "name": "E4",
                    "midi": 64,
                    "time": 293.9000000000013,
                    "velocity": 0.3700787401574803,
                    "duration": 0.19999999999998863
                },
                {
                    "name": "A1",
                    "midi": 33,
                    "time": 294.1000000000013,
                    "velocity": 0.31496062992125984,
                    "duration": 0.19999999999998863
                },
                {
                    "name": "A2",
                    "midi": 45,
                    "time": 294.1000000000013,
                    "velocity": 0.3779527559055118,
                    "duration": 0.19999999999998863
                },
                {
                    "name": "A#3",
                    "midi": 58,
                    "time": 294.30000000000126,
                    "velocity": 0.4409448818897638,
                    "duration": 0.5999999999999659
                },
                {
                    "name": "F4",
                    "midi": 65,
                    "time": 294.50000000000125,
                    "velocity": 0.4015748031496063,
                    "duration": 0.19999999999998863
                },
                {
                    "name": "D4",
                    "midi": 62,
                    "time": 294.50000000000125,
                    "velocity": 0.33858267716535434,
                    "duration": 0.19999999999998863
                },
                {
                    "name": "A1",
                    "midi": 33,
                    "time": 294.70000000000124,
                    "velocity": 0.3464566929133858,
                    "duration": 0.19999999999998863
                },
                {
                    "name": "A2",
                    "midi": 45,
                    "time": 294.70000000000124,
                    "velocity": 0.4094488188976378,
                    "duration": 0.19999999999998863
                },
                {
                    "name": "B3",
                    "midi": 59,
                    "time": 294.9000000000012,
                    "velocity": 0.4645669291338583,
                    "duration": 0.5999999999999659
                },
                {
                    "name": "D#4",
                    "midi": 63,
                    "time": 295.1000000000012,
                    "velocity": 0.3464566929133858,
                    "duration": 0.19999999999998863
                },
                {
                    "name": "F#4",
                    "midi": 66,
                    "time": 295.1000000000012,
                    "velocity": 0.41732283464566927,
                    "duration": 0.19999999999998863
                },
                {
                    "name": "A2",
                    "midi": 45,
                    "time": 295.3000000000012,
                    "velocity": 0.41732283464566927,
                    "duration": 0.19999999999998863
                },
                {
                    "name": "A1",
                    "midi": 33,
                    "time": 295.3000000000012,
                    "velocity": 0.3543307086614173,
                    "duration": 0.19999999999998863
                },
                {
                    "name": "C4",
                    "midi": 60,
                    "time": 295.5000000000012,
                    "velocity": 0.48031496062992124,
                    "duration": 0.5999999999999659
                },
                {
                    "name": "G4",
                    "midi": 67,
                    "time": 295.7000000000012,
                    "velocity": 0.4251968503937008,
                    "duration": 0.19999999999998863
                },
                {
                    "name": "E4",
                    "midi": 64,
                    "time": 295.7000000000012,
                    "velocity": 0.36220472440944884,
                    "duration": 0.19999999999998863
                },
                {
                    "name": "A2",
                    "midi": 45,
                    "time": 295.90000000000117,
                    "velocity": 0.4330708661417323,
                    "duration": 0.19999999999998863
                },
                {
                    "name": "A1",
                    "midi": 33,
                    "time": 295.90000000000117,
                    "velocity": 0.36220472440944884,
                    "duration": 0.19999999999998863
                },
                {
                    "name": "A2",
                    "midi": 45,
                    "time": 296.10000000000116,
                    "velocity": 0.4251968503937008,
                    "duration": 0.30000000000001137
                },
                {
                    "name": "G3",
                    "midi": 55,
                    "time": 296.10000000000116,
                    "velocity": 0.5039370078740157,
                    "duration": 0.30000000000001137
                },
                {
                    "name": "E3",
                    "midi": 52,
                    "time": 296.10000000000116,
                    "velocity": 0.4251968503937008,
                    "duration": 0.30000000000001137
                },
                {
                    "name": "A#3",
                    "midi": 58,
                    "time": 296.69625000000116,
                    "velocity": 0.5354330708661418,
                    "duration": 1.2000000000000455
                },
                {
                    "name": "A#2",
                    "midi": 46,
                    "time": 296.70125000000115,
                    "velocity": 0.44881889763779526,
                    "duration": 1.2000000000000455
                },
                {
                    "name": "A3",
                    "midi": 57,
                    "time": 297.70125000000115,
                    "velocity": 0.3937007874015748,
                    "duration": 0.20000000000004547
                },
                {
                    "name": "A2",
                    "midi": 45,
                    "time": 297.7025000000012,
                    "velocity": 0.31496062992125984,
                    "duration": 0.20000000000004547
                },
                {
                    "name": "G2",
                    "midi": 43,
                    "time": 297.8950000000012,
                    "velocity": 0.31496062992125984,
                    "duration": 0.20000000000004547
                },
                {
                    "name": "G3",
                    "midi": 55,
                    "time": 297.8950000000012,
                    "velocity": 0.3779527559055118,
                    "duration": 0.20000000000004547
                },
                {
                    "name": "F2",
                    "midi": 41,
                    "time": 298.0975000000012,
                    "velocity": 0.31496062992125984,
                    "duration": 0.20000000000004547
                },
                {
                    "name": "F3",
                    "midi": 53,
                    "time": 298.10625000000124,
                    "velocity": 0.3779527559055118,
                    "duration": 0.20000000000004547
                },
                {
                    "name": "E2",
                    "midi": 40,
                    "time": 298.29500000000127,
                    "velocity": 0.3464566929133858,
                    "duration": 0.20000000000004547
                },
                {
                    "name": "E3",
                    "midi": 52,
                    "time": 298.3062500000013,
                    "velocity": 0.4094488188976378,
                    "duration": 0.20000000000004547
                },
                {
                    "name": "D2",
                    "midi": 38,
                    "time": 298.5000000000013,
                    "velocity": 0.31496062992125984,
                    "duration": 0.20000000000004547
                },
                {
                    "name": "D3",
                    "midi": 50,
                    "time": 298.50125000000133,
                    "velocity": 0.3937007874015748,
                    "duration": 0.20000000000004547
                },
                {
                    "name": "C#2",
                    "midi": 37,
                    "time": 298.6962500000013,
                    "velocity": 0.36220472440944884,
                    "duration": 0.20000000000004547
                },
                {
                    "name": "C#3",
                    "midi": 49,
                    "time": 298.7037500000014,
                    "velocity": 0.4330708661417323,
                    "duration": 0.19999999999998863
                },
                {
                    "name": "E2",
                    "midi": 40,
                    "time": 298.90375000000137,
                    "velocity": 0.31496062992125984,
                    "duration": 0.19999999999998863
                },
                {
                    "name": "E3",
                    "midi": 52,
                    "time": 298.90375000000137,
                    "velocity": 0.3937007874015748,
                    "duration": 0.19999999999998863
                },
                {
                    "name": "C3",
                    "midi": 48,
                    "time": 299.09625000000136,
                    "velocity": 0.4094488188976378,
                    "duration": 0.19999999999998863
                },
                {
                    "name": "C2",
                    "midi": 36,
                    "time": 299.09875000000136,
                    "velocity": 0.3464566929133858,
                    "duration": 0.19999999999998863
                },
                {
                    "name": "E3",
                    "midi": 52,
                    "time": 299.3000000000014,
                    "velocity": 0.3937007874015748,
                    "duration": 0.20000000000004547
                },
                {
                    "name": "E2",
                    "midi": 40,
                    "time": 299.3012500000014,
                    "velocity": 0.31496062992125984,
                    "duration": 0.20000000000004547
                },
                {
                    "name": "B2",
                    "midi": 47,
                    "time": 299.4975000000014,
                    "velocity": 0.4094488188976378,
                    "duration": 0.20000000000004547
                },
                {
                    "name": "B1",
                    "midi": 35,
                    "time": 299.5000000000014,
                    "velocity": 0.3464566929133858,
                    "duration": 0.20000000000010232
                },
                {
                    "name": "E3",
                    "midi": 52,
                    "time": 299.6987500000015,
                    "velocity": 0.3937007874015748,
                    "duration": 0.20000000000004547
                },
                {
                    "name": "E2",
                    "midi": 40,
                    "time": 299.7025000000015,
                    "velocity": 0.31496062992125984,
                    "duration": 0.20000000000004547
                },
                {
                    "name": "A#1",
                    "midi": 34,
                    "time": 299.89875000000154,
                    "velocity": 0.3464566929133858,
                    "duration": 0.20000000000004547
                },
                {
                    "name": "A#2",
                    "midi": 46,
                    "time": 299.9062500000016,
                    "velocity": 0.4094488188976378,
                    "duration": 0.19999999999998863
                },
                {
                    "name": "E2",
                    "midi": 40,
                    "time": 300.1062500000016,
                    "velocity": 0.31496062992125984,
                    "duration": 0.20000000000004547
                },
                {
                    "name": "E3",
                    "midi": 52,
                    "time": 300.1062500000016,
                    "velocity": 0.3937007874015748,
                    "duration": 0.20000000000004547
                },
                {
                    "name": "A2",
                    "midi": 45,
                    "time": 300.2975000000016,
                    "velocity": 0.4094488188976378,
                    "duration": 0.30000000000001137
                },
                {
                    "name": "A1",
                    "midi": 33,
                    "time": 300.3037500000016,
                    "velocity": 0.3464566929133858,
                    "duration": 0.30000000000001137
                },
                {
                    "name": "C#3",
                    "midi": 49,
                    "time": 300.9025000000016,
                    "velocity": 0.44881889763779526,
                    "duration": 0.4000000000000341
                },
                {
                    "name": "C#4",
                    "midi": 61,
                    "time": 300.90625000000165,
                    "velocity": 0.5354330708661418,
                    "duration": 0.4000000000000341
                },
                {
                    "name": "A#2",
                    "midi": 46,
                    "time": 301.29625000000163,
                    "velocity": 0.31496062992125984,
                    "duration": 0.20000000000010232
                },
                {
                    "name": "A#3",
                    "midi": 58,
                    "time": 301.30250000000166,
                    "velocity": 0.3937007874015748,
                    "duration": 0.20000000000010232
                },
                {
                    "name": "A3",
                    "midi": 57,
                    "time": 301.4950000000017,
                    "velocity": 0.3779527559055118,
                    "duration": 0.20000000000004547
                },
                {
                    "name": "A2",
                    "midi": 45,
                    "time": 301.50000000000176,
                    "velocity": 0.31496062992125984,
                    "duration": 0.19999999999998863
                },
                {
                    "name": "G3",
                    "midi": 55,
                    "time": 301.69500000000176,
                    "velocity": 0.3779527559055118,
                    "duration": 0.20000000000004547
                },
                {
                    "name": "G2",
                    "midi": 43,
                    "time": 301.7062500000018,
                    "velocity": 0.31496062992125984,
                    "duration": 0.20000000000004547
                },
                {
                    "name": "F2",
                    "midi": 41,
                    "time": 301.9000000000018,
                    "velocity": 0.3464566929133858,
                    "duration": 0.20000000000004547
                },
                {
                    "name": "F3",
                    "midi": 53,
                    "time": 301.9050000000018,
                    "velocity": 0.4094488188976378,
                    "duration": 0.20000000000004547
                },
                {
                    "name": "E2",
                    "midi": 40,
                    "time": 302.10500000000184,
                    "velocity": 0.36220472440944884,
                    "duration": 0.20000000000004547
                },
                {
                    "name": "E3",
                    "midi": 52,
                    "time": 302.10500000000184,
                    "velocity": 0.4330708661417323,
                    "duration": 0.20000000000004547
                },
                {
                    "name": "G2",
                    "midi": 43,
                    "time": 302.29875000000186,
                    "velocity": 0.2992125984251969,
                    "duration": 0.20000000000004547
                },
                {
                    "name": "G3",
                    "midi": 55,
                    "time": 302.3000000000019,
                    "velocity": 0.36220472440944884,
                    "duration": 0.20000000000004547
                },
                {
                    "name": "D#2",
                    "midi": 39,
                    "time": 302.4950000000019,
                    "velocity": 0.3779527559055118,
                    "duration": 0.20000000000010232
                },
                {
                    "name": "D#3",
                    "midi": 51,
                    "time": 302.50625000000196,
                    "velocity": 0.44881889763779526,
                    "duration": 0.20000000000004547
                },
                {
                    "name": "G3",
                    "midi": 55,
                    "time": 302.69375000000196,
                    "velocity": 0.4094488188976378,
                    "duration": 0.20000000000004547
                },
                {
                    "name": "G2",
                    "midi": 43,
                    "time": 302.698750000002,
                    "velocity": 0.28346456692913385,
                    "duration": 0.19999999999998863
                },
                {
                    "name": "D3",
                    "midi": 50,
                    "time": 302.893750000002,
                    "velocity": 0.4566929133858268,
                    "duration": 0.20000000000004547
                },
                {
                    "name": "D2",
                    "midi": 38,
                    "time": 302.902500000002,
                    "velocity": 0.3937007874015748,
                    "duration": 0.20000000000010232
                },
                {
                    "name": "G2",
                    "midi": 43,
                    "time": 303.09750000000207,
                    "velocity": 0.2992125984251969,
                    "duration": 0.20000000000004547
                },
                {
                    "name": "G3",
                    "midi": 55,
                    "time": 303.0987500000021,
                    "velocity": 0.3779527559055118,
                    "duration": 0.20000000000004547
                },
                {
                    "name": "C#2",
                    "midi": 37,
                    "time": 303.30375000000214,
                    "velocity": 0.3937007874015748,
                    "duration": 0.20000000000004547
                },
                {
                    "name": "C#3",
                    "midi": 49,
                    "time": 303.30500000000217,
                    "velocity": 0.4566929133858268,
                    "duration": 0.20000000000004547
                },
                {
                    "name": "G3",
                    "midi": 55,
                    "time": 303.50250000000216,
                    "velocity": 0.3779527559055118,
                    "duration": 0.20000000000004547
                },
                {
                    "name": "G2",
                    "midi": 43,
                    "time": 303.5050000000022,
                    "velocity": 0.2992125984251969,
                    "duration": 0.19999999999998863
                },
                {
                    "name": "A#1",
                    "midi": 34,
                    "time": 303.6950000000022,
                    "velocity": 0.3937007874015748,
                    "duration": 0.20000000000004547
                },
                {
                    "name": "A#2",
                    "midi": 46,
                    "time": 303.7062500000022,
                    "velocity": 0.4566929133858268,
                    "duration": 0.20000000000004547
                },
                {
                    "name": "G2",
                    "midi": 43,
                    "time": 303.90250000000225,
                    "velocity": 0.28346456692913385,
                    "duration": 0.1500000000000341
                },
                {
                    "name": "G3",
                    "midi": 55,
                    "time": 303.90500000000225,
                    "velocity": 0.3543307086614173,
                    "duration": 0.1500000000000341
                },
                {
                    "name": "A2",
                    "midi": 45,
                    "time": 304.2012500000023,
                    "velocity": 0.4330708661417323,
                    "duration": 0.1500000000000341
                },
                {
                    "name": "A1",
                    "midi": 33,
                    "time": 304.2050000000023,
                    "velocity": 0.36220472440944884,
                    "duration": 0.1500000000000341
                },
                {
                    "name": "E3",
                    "midi": 52,
                    "time": 304.49625000000236,
                    "velocity": 0.44881889763779526,
                    "duration": 0.39999999999997726
                },
                {
                    "name": "E4",
                    "midi": 64,
                    "time": 304.50625000000235,
                    "velocity": 0.5354330708661418,
                    "duration": 0.4000000000000341
                },
                {
                    "name": "D3",
                    "midi": 50,
                    "time": 304.89375000000234,
                    "velocity": 0.31496062992125984,
                    "duration": 0.20000000000004547
                },
                {
                    "name": "D4",
                    "midi": 62,
                    "time": 304.90500000000236,
                    "velocity": 0.3937007874015748,
                    "duration": 0.20000000000004547
                },
                {
                    "name": "C#3",
                    "midi": 49,
                    "time": 305.1037500000024,
                    "velocity": 0.31496062992125984,
                    "duration": 0.20000000000010232
                },
                {
                    "name": "C#4",
                    "midi": 61,
                    "time": 305.10625000000243,
                    "velocity": 0.3779527559055118,
                    "duration": 0.20000000000004547
                },
                {
                    "name": "A#2",
                    "midi": 46,
                    "time": 305.29625000000243,
                    "velocity": 0.31496062992125984,
                    "duration": 0.20000000000004547
                },
                {
                    "name": "A#3",
                    "midi": 58,
                    "time": 305.29750000000246,
                    "velocity": 0.3779527559055118,
                    "duration": 0.20000000000004547
                },
                {
                    "name": "A2",
                    "midi": 45,
                    "time": 305.5000000000025,
                    "velocity": 0.3464566929133858,
                    "duration": 0.20000000000004547
                },
                {
                    "name": "A3",
                    "midi": 57,
                    "time": 305.5062500000025,
                    "velocity": 0.4094488188976378,
                    "duration": 0.20000000000004547
                },
                {
                    "name": "G3",
                    "midi": 55,
                    "time": 305.69500000000255,
                    "velocity": 0.3858267716535433,
                    "duration": 0.20000000000004547
                },
                {
                    "name": "G4",
                    "midi": 67,
                    "time": 305.69750000000255,
                    "velocity": 0.4566929133858268,
                    "duration": 0.20000000000004547
                },
                {
                    "name": "F4",
                    "midi": 65,
                    "time": 305.8987500000026,
                    "velocity": 0.41732283464566927,
                    "duration": 0.20000000000004547
                },
                {
                    "name": "F3",
                    "midi": 53,
                    "time": 305.90250000000265,
                    "velocity": 0.36220472440944884,
                    "duration": 0.20000000000004547
                },
                {
                    "name": "E4",
                    "midi": 64,
                    "time": 306.0937500000027,
                    "velocity": 0.41732283464566927,
                    "duration": 0.20000000000004547
                },
                {
                    "name": "E3",
                    "midi": 52,
                    "time": 306.1000000000027,
                    "velocity": 0.3543307086614173,
                    "duration": 0.20000000000004547
                },
                {
                    "name": "D3",
                    "midi": 50,
                    "time": 306.2962500000027,
                    "velocity": 0.3464566929133858,
                    "duration": 0.20000000000004547
                },
                {
                    "name": "D4",
                    "midi": 62,
                    "time": 306.2987500000027,
                    "velocity": 0.4015748031496063,
                    "duration": 0.20000000000004547
                },
                {
                    "name": "C#4",
                    "midi": 61,
                    "time": 306.49500000000273,
                    "velocity": 0.4015748031496063,
                    "duration": 0.20000000000004547
                },
                {
                    "name": "C#3",
                    "midi": 49,
                    "time": 306.49875000000276,
                    "velocity": 0.3464566929133858,
                    "duration": 0.20000000000004547
                },
                {
                    "name": "A#4",
                    "midi": 70,
                    "time": 306.6987500000028,
                    "velocity": 0.44881889763779526,
                    "duration": 0.19999999999998863
                },
                {
                    "name": "A#3",
                    "midi": 58,
                    "time": 306.7062500000028,
                    "velocity": 0.3779527559055118,
                    "duration": 0.20000000000004547
                },
                {
                    "name": "A4",
                    "midi": 69,
                    "time": 306.9025000000028,
                    "velocity": 0.4566929133858268,
                    "duration": 0.20000000000004547
                },
                {
                    "name": "A3",
                    "midi": 57,
                    "time": 306.90375000000284,
                    "velocity": 0.3858267716535433,
                    "duration": 0.20000000000004547
                },
                {
                    "name": "G4",
                    "midi": 67,
                    "time": 307.09500000000287,
                    "velocity": 0.44881889763779526,
                    "duration": 0.20000000000004547
                },
                {
                    "name": "G3",
                    "midi": 55,
                    "time": 307.1062500000029,
                    "velocity": 0.3779527559055118,
                    "duration": 0.20000000000004547
                },
                {
                    "name": "F4",
                    "midi": 65,
                    "time": 307.29875000000294,
                    "velocity": 0.4330708661417323,
                    "duration": 0.19999999999998863
                },
                {
                    "name": "F3",
                    "midi": 53,
                    "time": 307.30125000000294,
                    "velocity": 0.3700787401574803,
                    "duration": 0.20000000000004547
                },
                {
                    "name": "E4",
                    "midi": 64,
                    "time": 307.50000000000296,
                    "velocity": 0.41732283464566927,
                    "duration": 0.20000000000004547
                },
                {
                    "name": "E3",
                    "midi": 52,
                    "time": 307.50000000000296,
                    "velocity": 0.36220472440944884,
                    "duration": 0.20000000000004547
                },
                {
                    "name": "E4",
                    "midi": 64,
                    "time": 307.70125000000303,
                    "velocity": 0.41732283464566927,
                    "duration": 0.19999999999998863
                },
                {
                    "name": "E5",
                    "midi": 76,
                    "time": 307.70125000000303,
                    "velocity": 0.5039370078740157,
                    "duration": 0.19999999999998863
                },
                {
                    "name": "D5",
                    "midi": 74,
                    "time": 307.898750000003,
                    "velocity": 0.4881889763779528,
                    "duration": 0.19999999999998863
                },
                {
                    "name": "D4",
                    "midi": 62,
                    "time": 307.903750000003,
                    "velocity": 0.4015748031496063,
                    "duration": 0.20000000000004547
                },
                {
                    "name": "C#5",
                    "midi": 73,
                    "time": 308.096250000003,
                    "velocity": 0.4645669291338583,
                    "duration": 0.20000000000004547
                },
                {
                    "name": "C#4",
                    "midi": 61,
                    "time": 308.10000000000304,
                    "velocity": 0.3937007874015748,
                    "duration": 0.20000000000004547
                },
                {
                    "name": "A#4",
                    "midi": 70,
                    "time": 308.3050000000031,
                    "velocity": 0.47244094488188976,
                    "duration": 0.20000000000004547
                },
                {
                    "name": "A#3",
                    "midi": 58,
                    "time": 308.3062500000031,
                    "velocity": 0.4015748031496063,
                    "duration": 0.20000000000004547
                },
                {
                    "name": "A4",
                    "midi": 69,
                    "time": 308.49500000000313,
                    "velocity": 0.4645669291338583,
                    "duration": 0.20000000000004547
                },
                {
                    "name": "A3",
                    "midi": 57,
                    "time": 308.50625000000315,
                    "velocity": 0.3937007874015748,
                    "duration": 0.20000000000010232
                },
                {
                    "name": "A#4",
                    "midi": 70,
                    "time": 308.6987500000032,
                    "velocity": 0.41732283464566927,
                    "duration": 0.20000000000004547
                },
                {
                    "name": "A#3",
                    "midi": 58,
                    "time": 308.7050000000032,
                    "velocity": 0.36220472440944884,
                    "duration": 0.20000000000004547
                },
                {
                    "name": "G3",
                    "midi": 55,
                    "time": 308.90125000000324,
                    "velocity": 0.3779527559055118,
                    "duration": 0.20000000000004547
                },
                {
                    "name": "G4",
                    "midi": 67,
                    "time": 308.9025000000033,
                    "velocity": 0.44881889763779526,
                    "duration": 0.20000000000004547
                },
                {
                    "name": "A#4",
                    "midi": 70,
                    "time": 309.10000000000326,
                    "velocity": 0.4094488188976378,
                    "duration": 0.20000000000010232
                },
                {
                    "name": "A#3",
                    "midi": 58,
                    "time": 309.1012500000033,
                    "velocity": 0.3543307086614173,
                    "duration": 0.20000000000010232
                },
                {
                    "name": "F3",
                    "midi": 53,
                    "time": 309.29375000000334,
                    "velocity": 0.3779527559055118,
                    "duration": 0.20000000000010232
                },
                {
                    "name": "F4",
                    "midi": 65,
                    "time": 309.3025000000034,
                    "velocity": 0.44881889763779526,
                    "duration": 0.20000000000004547
                },
                {
                    "name": "G3",
                    "midi": 55,
                    "time": 309.5037500000035,
                    "velocity": 0.4094488188976378,
                    "duration": 0.20000000000004547
                },
                {
                    "name": "G4",
                    "midi": 67,
                    "time": 309.5050000000035,
                    "velocity": 0.4094488188976378,
                    "duration": 0.20000000000004547
                },
                {
                    "name": "E4",
                    "midi": 64,
                    "time": 309.6950000000035,
                    "velocity": 0.44881889763779526,
                    "duration": 0.20000000000004547
                },
                {
                    "name": "E3",
                    "midi": 52,
                    "time": 309.70500000000357,
                    "velocity": 0.3779527559055118,
                    "duration": 0.20000000000004547
                },
                {
                    "name": "G3",
                    "midi": 55,
                    "time": 309.8962500000036,
                    "velocity": 0.4094488188976378,
                    "duration": 0.20000000000004547
                },
                {
                    "name": "G4",
                    "midi": 67,
                    "time": 309.8975000000036,
                    "velocity": 0.4094488188976378,
                    "duration": 0.20000000000004547
                },
                {
                    "name": "D3",
                    "midi": 50,
                    "time": 310.0987500000037,
                    "velocity": 0.3779527559055118,
                    "duration": 0.19999999999998863
                },
                {
                    "name": "D4",
                    "midi": 62,
                    "time": 310.0987500000037,
                    "velocity": 0.44881889763779526,
                    "duration": 0.19999999999998863
                },
                {
                    "name": "E3",
                    "midi": 52,
                    "time": 310.2962500000037,
                    "velocity": 0.3543307086614173,
                    "duration": 0.20000000000004547
                },
                {
                    "name": "E4",
                    "midi": 64,
                    "time": 310.3050000000037,
                    "velocity": 0.4094488188976378,
                    "duration": 0.20000000000004547
                },
                {
                    "name": "C#3",
                    "midi": 49,
                    "time": 310.5012500000037,
                    "velocity": 0.3779527559055118,
                    "duration": 0.20000000000010232
                },
                {
                    "name": "C#4",
                    "midi": 61,
                    "time": 310.5062500000038,
                    "velocity": 0.4566929133858268,
                    "duration": 0.20000000000004547
                },
                {
                    "name": "E3",
                    "midi": 52,
                    "time": 310.6975000000038,
                    "velocity": 0.36220472440944884,
                    "duration": 0.20000000000004547
                },
                {
                    "name": "E4",
                    "midi": 64,
                    "time": 310.7000000000038,
                    "velocity": 0.4330708661417323,
                    "duration": 0.20000000000004547
                },
                {
                    "name": "A#2",
                    "midi": 46,
                    "time": 310.8962500000038,
                    "velocity": 0.3858267716535433,
                    "duration": 0.20000000000010232
                },
                {
                    "name": "A#3",
                    "midi": 58,
                    "time": 310.90625000000387,
                    "velocity": 0.4566929133858268,
                    "duration": 0.20000000000004547
                },
                {
                    "name": "C#4",
                    "midi": 61,
                    "time": 311.0950000000039,
                    "velocity": 0.4015748031496063,
                    "duration": 0.20000000000004547
                },
                {
                    "name": "C#3",
                    "midi": 49,
                    "time": 311.0962500000039,
                    "velocity": 0.33070866141732286,
                    "duration": 0.20000000000004547
                },
                {
                    "name": "A2",
                    "midi": 45,
                    "time": 311.29500000000394,
                    "velocity": 0.3858267716535433,
                    "duration": 0.20000000000004547
                },
                {
                    "name": "A3",
                    "midi": 57,
                    "time": 311.30375000000396,
                    "velocity": 0.47244094488188976,
                    "duration": 0.20000000000004547
                },
                {
                    "name": "A#2",
                    "midi": 46,
                    "time": 311.498750000004,
                    "velocity": 0.3543307086614173,
                    "duration": 0.19999999999998863
                },
                {
                    "name": "A#3",
                    "midi": 58,
                    "time": 311.498750000004,
                    "velocity": 0.4094488188976378,
                    "duration": 0.19999999999998863
                },
                {
                    "name": "G2",
                    "midi": 43,
                    "time": 311.702500000004,
                    "velocity": 0.3937007874015748,
                    "duration": 0.20000000000010232
                },
                {
                    "name": "G3",
                    "midi": 55,
                    "time": 311.70625000000405,
                    "velocity": 0.47244094488188976,
                    "duration": 0.20000000000010232
                },
                {
                    "name": "A#2",
                    "midi": 46,
                    "time": 311.8975000000041,
                    "velocity": 0.36220472440944884,
                    "duration": 0.20000000000010232
                },
                {
                    "name": "A#3",
                    "midi": 58,
                    "time": 311.8987500000041,
                    "velocity": 0.41732283464566927,
                    "duration": 0.20000000000010232
                },
                {
                    "name": "F2",
                    "midi": 41,
                    "time": 312.09375000000415,
                    "velocity": 0.4015748031496063,
                    "duration": 0.20000000000004547
                },
                {
                    "name": "F3",
                    "midi": 53,
                    "time": 312.0975000000042,
                    "velocity": 0.48031496062992124,
                    "duration": 0.20000000000004547
                },
                {
                    "name": "G2",
                    "midi": 43,
                    "time": 312.2950000000042,
                    "velocity": 0.3700787401574803,
                    "duration": 0.20000000000004547
                },
                {
                    "name": "G3",
                    "midi": 55,
                    "time": 312.30625000000424,
                    "velocity": 0.4330708661417323,
                    "duration": 0.20000000000004547
                },
                {
                    "name": "E3",
                    "midi": 52,
                    "time": 312.50000000000426,
                    "velocity": 0.48031496062992124,
                    "duration": 0.20000000000004547
                },
                {
                    "name": "E2",
                    "midi": 40,
                    "time": 312.5062500000043,
                    "velocity": 0.4094488188976378,
                    "duration": 0.20000000000004547
                },
                {
                    "name": "G3",
                    "midi": 55,
                    "time": 312.6987500000043,
                    "velocity": 0.4409448818897638,
                    "duration": 0.20000000000004547
                },
                {
                    "name": "G2",
                    "midi": 43,
                    "time": 312.6987500000043,
                    "velocity": 0.3700787401574803,
                    "duration": 0.20000000000004547
                },
                {
                    "name": "D3",
                    "midi": 50,
                    "time": 312.90250000000435,
                    "velocity": 0.49606299212598426,
                    "duration": 0.20000000000004547
                },
                {
                    "name": "D2",
                    "midi": 38,
                    "time": 312.9037500000044,
                    "velocity": 0.4094488188976378,
                    "duration": 0.20000000000004547
                },
                {
                    "name": "E2",
                    "midi": 40,
                    "time": 313.1000000000044,
                    "velocity": 0.3779527559055118,
                    "duration": 0.20000000000004547
                },
                {
                    "name": "E3",
                    "midi": 52,
                    "time": 313.10500000000445,
                    "velocity": 0.44881889763779526,
                    "duration": 0.20000000000004547
                },
                {
                    "name": "C#2",
                    "midi": 37,
                    "time": 313.3012500000045,
                    "velocity": 0.4015748031496063,
                    "duration": 0.20000000000004547
                },
                {
                    "name": "C#3",
                    "midi": 49,
                    "time": 313.30375000000447,
                    "velocity": 0.4881889763779528,
                    "duration": 0.20000000000004547
                },
                {
                    "name": "E3",
                    "midi": 52,
                    "time": 313.4937500000045,
                    "velocity": 0.44881889763779526,
                    "duration": 0.19999999999998863
                },
                {
                    "name": "E2",
                    "midi": 40,
                    "time": 313.4987500000045,
                    "velocity": 0.3700787401574803,
                    "duration": 0.19999999999998863
                },
                {
                    "name": "A#1",
                    "midi": 34,
                    "time": 313.6937500000045,
                    "velocity": 0.4015748031496063,
                    "duration": 0.20000000000004547
                },
                {
                    "name": "A#2",
                    "midi": 46,
                    "time": 313.70500000000453,
                    "velocity": 0.4881889763779528,
                    "duration": 0.20000000000004547
                },
                {
                    "name": "C#2",
                    "midi": 37,
                    "time": 313.8950000000046,
                    "velocity": 0.3779527559055118,
                    "duration": 0.19999999999998863
                },
                {
                    "name": "C#3",
                    "midi": 49,
                    "time": 313.9000000000046,
                    "velocity": 0.44881889763779526,
                    "duration": 0.19999999999998863
                },
                {
                    "name": "A1",
                    "midi": 33,
                    "time": 314.0975000000046,
                    "velocity": 0.41732283464566927,
                    "duration": 0.20000000000004547
                },
                {
                    "name": "A2",
                    "midi": 45,
                    "time": 314.10000000000457,
                    "velocity": 0.49606299212598426,
                    "duration": 0.20000000000010232
                },
                {
                    "name": "A#2",
                    "midi": 46,
                    "time": 314.2962500000046,
                    "velocity": 0.4566929133858268,
                    "duration": 0.20000000000010232
                },
                {
                    "name": "A#1",
                    "midi": 34,
                    "time": 314.29875000000465,
                    "velocity": 0.3858267716535433,
                    "duration": 0.20000000000010232
                },
                {
                    "name": "G#1",
                    "midi": 32,
                    "time": 314.4937500000047,
                    "velocity": 0.41732283464566927,
                    "duration": 0.20000000000004547
                },
                {
                    "name": "G#2",
                    "midi": 44,
                    "time": 314.4975000000047,
                    "velocity": 0.49606299212598426,
                    "duration": 0.20000000000004547
                },
                {
                    "name": "A2",
                    "midi": 45,
                    "time": 314.70500000000476,
                    "velocity": 0.47244094488188976,
                    "duration": 0.20000000000004547
                },
                {
                    "name": "A1",
                    "midi": 33,
                    "time": 314.7062500000048,
                    "velocity": 0.3858267716535433,
                    "duration": 0.20000000000004547
                },
                {
                    "name": "G1",
                    "midi": 31,
                    "time": 314.8937500000048,
                    "velocity": 0.4330708661417323,
                    "duration": 0.20000000000004547
                },
                {
                    "name": "G2",
                    "midi": 43,
                    "time": 314.8950000000048,
                    "velocity": 0.5196850393700787,
                    "duration": 0.20000000000004547
                },
                {
                    "name": "A2",
                    "midi": 45,
                    "time": 315.1012500000049,
                    "velocity": 0.47244094488188976,
                    "duration": 0.19999999999998863
                },
                {
                    "name": "A1",
                    "midi": 33,
                    "time": 315.1037500000049,
                    "velocity": 0.3858267716535433,
                    "duration": 0.19999999999998863
                },
                {
                    "name": "F#2",
                    "midi": 42,
                    "time": 315.2987500000049,
                    "velocity": 0.5039370078740157,
                    "duration": 0.19999999999998863
                },
                {
                    "name": "F#1",
                    "midi": 30,
                    "time": 315.30375000000487,
                    "velocity": 0.4330708661417323,
                    "duration": 0.20000000000004547
                },
                {
                    "name": "A2",
                    "midi": 45,
                    "time": 315.49875000000486,
                    "velocity": 0.4645669291338583,
                    "duration": 0.20000000000004547
                },
                {
                    "name": "A1",
                    "midi": 33,
                    "time": 315.5025000000049,
                    "velocity": 0.3779527559055118,
                    "duration": 0.20000000000004547
                },
                {
                    "name": "F1",
                    "midi": 29,
                    "time": 315.6987500000049,
                    "velocity": 0.44881889763779526,
                    "duration": 0.20000000000004547
                },
                {
                    "name": "F2",
                    "midi": 41,
                    "time": 315.70250000000493,
                    "velocity": 0.5196850393700787,
                    "duration": 0.20000000000004547
                },
                {
                    "name": "A2",
                    "midi": 45,
                    "time": 315.8950000000049,
                    "velocity": 0.47244094488188976,
                    "duration": 0.20000000000004547
                },
                {
                    "name": "A1",
                    "midi": 33,
                    "time": 315.902500000005,
                    "velocity": 0.4015748031496063,
                    "duration": 0.20000000000004547
                },
                {
                    "name": "E2",
                    "midi": 40,
                    "time": 316.096250000005,
                    "velocity": 0.5196850393700787,
                    "duration": 0.20000000000010232
                },
                {
                    "name": "E1",
                    "midi": 28,
                    "time": 316.10625000000505,
                    "velocity": 0.44881889763779526,
                    "duration": 0.20000000000010232
                },
                {
                    "name": "A1",
                    "midi": 33,
                    "time": 316.2950000000051,
                    "velocity": 0.4015748031496063,
                    "duration": 0.20000000000010232
                },
                {
                    "name": "A2",
                    "midi": 45,
                    "time": 316.3000000000051,
                    "velocity": 0.47244094488188976,
                    "duration": 0.20000000000004547
                },
                {
                    "name": "D#1",
                    "midi": 27,
                    "time": 316.5000000000052,
                    "velocity": 0.44881889763779526,
                    "duration": 0.30000000000001137
                },
                {
                    "name": "D#2",
                    "midi": 39,
                    "time": 316.5000000000052,
                    "velocity": 0.5354330708661418,
                    "duration": 0.30000000000001137
                },
                {
                    "name": "A2",
                    "midi": 45,
                    "time": 316.8000000000052,
                    "velocity": 0.49606299212598426,
                    "duration": 0.30000000000001137
                },
                {
                    "name": "A1",
                    "midi": 33,
                    "time": 316.8000000000052,
                    "velocity": 0.4094488188976378,
                    "duration": 0.30000000000001137
                },
                {
                    "name": "C2",
                    "midi": 36,
                    "time": 317.1000000000052,
                    "velocity": 0.5354330708661418,
                    "duration": 0.30000000000001137
                },
                {
                    "name": "C1",
                    "midi": 24,
                    "time": 317.1000000000052,
                    "velocity": 0.4645669291338583,
                    "duration": 0.30000000000001137
                },
                {
                    "name": "A1",
                    "midi": 33,
                    "time": 317.4000000000052,
                    "velocity": 0.4330708661417323,
                    "duration": 0.30000000000001137
                },
                {
                    "name": "A2",
                    "midi": 45,
                    "time": 317.4000000000052,
                    "velocity": 0.49606299212598426,
                    "duration": 0.30000000000001137
                },
                {
                    "name": "C#2",
                    "midi": 37,
                    "time": 317.7000000000052,
                    "velocity": 0.5354330708661418,
                    "duration": 0.30000000000001137
                },
                {
                    "name": "C#1",
                    "midi": 25,
                    "time": 317.7000000000052,
                    "velocity": 0.4566929133858268,
                    "duration": 0.30000000000001137
                },
                {
                    "name": "A1",
                    "midi": 33,
                    "time": 318.00000000000523,
                    "velocity": 0.41732283464566927,
                    "duration": 0.22500000000002274
                },
                {
                    "name": "A2",
                    "midi": 45,
                    "time": 318.00000000000523,
                    "velocity": 0.49606299212598426,
                    "duration": 0.22500000000002274
                },
                {
                    "name": "A2",
                    "midi": 45,
                    "time": 318.30000000000524,
                    "velocity": 0.2755905511811024,
                    "duration": 0.6000000000000227
                },
                {
                    "name": "D2",
                    "midi": 38,
                    "time": 318.30000000000524,
                    "velocity": 0.2755905511811024,
                    "duration": 0.6000000000000227
                },
                {
                    "name": "D3",
                    "midi": 50,
                    "time": 318.30000000000524,
                    "velocity": 0.33070866141732286,
                    "duration": 0.6000000000000227
                },
                {
                    "name": "E3",
                    "midi": 52,
                    "time": 318.52500000000526,
                    "velocity": 0.2125984251968504,
                    "duration": 0.07499999999998863
                },
                {
                    "name": "G#3",
                    "midi": 56,
                    "time": 318.52500000000526,
                    "velocity": 0.25196850393700787,
                    "duration": 0.07499999999998863
                },
                {
                    "name": "A3",
                    "midi": 57,
                    "time": 318.60000000000525,
                    "velocity": 0.31496062992125984,
                    "duration": 0.03750000000002274
                },
                {
                    "name": "F3",
                    "midi": 53,
                    "time": 318.60000000000525,
                    "velocity": 0.2677165354330709,
                    "duration": 0.03750000000002274
                },
                {
                    "name": "E4",
                    "midi": 64,
                    "time": 318.8250000000053,
                    "velocity": 0.2047244094488189,
                    "duration": 0.07499999999998863
                },
                {
                    "name": "C#4",
                    "midi": 61,
                    "time": 318.8250000000053,
                    "velocity": 0.2440944881889764,
                    "duration": 0.07499999999998863
                },
                {
                    "name": "D4",
                    "midi": 62,
                    "time": 318.90000000000526,
                    "velocity": 0.2755905511811024,
                    "duration": 0.03750000000002274
                },
                {
                    "name": "F4",
                    "midi": 65,
                    "time": 318.90000000000526,
                    "velocity": 0.2755905511811024,
                    "duration": 0.03750000000002274
                },
                {
                    "name": "D3",
                    "midi": 50,
                    "time": 319.2000000000053,
                    "velocity": 0.33070866141732286,
                    "duration": 0.6000000000000227
                },
                {
                    "name": "A2",
                    "midi": 45,
                    "time": 319.2000000000053,
                    "velocity": 0.2755905511811024,
                    "duration": 0.6000000000000227
                },
                {
                    "name": "D2",
                    "midi": 38,
                    "time": 319.2000000000053,
                    "velocity": 0.2755905511811024,
                    "duration": 0.6000000000000227
                },
                {
                    "name": "C#4",
                    "midi": 61,
                    "time": 319.4250000000053,
                    "velocity": 0.25196850393700787,
                    "duration": 0.07499999999998863
                },
                {
                    "name": "G#3",
                    "midi": 56,
                    "time": 319.4250000000053,
                    "velocity": 0.2125984251968504,
                    "duration": 0.07499999999998863
                },
                {
                    "name": "D4",
                    "midi": 62,
                    "time": 319.5000000000053,
                    "velocity": 0.31496062992125984,
                    "duration": 0.03750000000002274
                },
                {
                    "name": "A3",
                    "midi": 57,
                    "time": 319.5000000000053,
                    "velocity": 0.2677165354330709,
                    "duration": 0.03750000000002274
                },
                {
                    "name": "E4",
                    "midi": 64,
                    "time": 319.7250000000053,
                    "velocity": 0.2047244094488189,
                    "duration": 0.07499999999998863
                },
                {
                    "name": "G#4",
                    "midi": 68,
                    "time": 319.7250000000053,
                    "velocity": 0.2440944881889764,
                    "duration": 0.07499999999998863
                },
                {
                    "name": "F4",
                    "midi": 65,
                    "time": 319.8000000000053,
                    "velocity": 0.2283464566929134,
                    "duration": 0.03750000000002274
                },
                {
                    "name": "A4",
                    "midi": 69,
                    "time": 319.8000000000053,
                    "velocity": 0.2755905511811024,
                    "duration": 0.03750000000002274
                },
                {
                    "name": "G2",
                    "midi": 43,
                    "time": 320.1000000000053,
                    "velocity": 0.2755905511811024,
                    "duration": 0.6000000000000227
                },
                {
                    "name": "D3",
                    "midi": 50,
                    "time": 320.1000000000053,
                    "velocity": 0.33070866141732286,
                    "duration": 0.6000000000000227
                },
                {
                    "name": "D2",
                    "midi": 38,
                    "time": 320.1000000000053,
                    "velocity": 0.2755905511811024,
                    "duration": 0.6000000000000227
                },
                {
                    "name": "A3",
                    "midi": 57,
                    "time": 320.32500000000533,
                    "velocity": 0.25196850393700787,
                    "duration": 0.07499999999998863
                },
                {
                    "name": "F#3",
                    "midi": 54,
                    "time": 320.32500000000533,
                    "velocity": 0.2125984251968504,
                    "duration": 0.07499999999998863
                },
                {
                    "name": "A#3",
                    "midi": 58,
                    "time": 320.4000000000053,
                    "velocity": 0.33070866141732286,
                    "duration": 0.03750000000002274
                },
                {
                    "name": "G3",
                    "midi": 55,
                    "time": 320.4000000000053,
                    "velocity": 0.2755905511811024,
                    "duration": 0.03750000000002274
                },
                {
                    "name": "F#4",
                    "midi": 66,
                    "time": 320.62500000000534,
                    "velocity": 0.25196850393700787,
                    "duration": 0.07499999999998863
                },
                {
                    "name": "D#4",
                    "midi": 63,
                    "time": 320.62500000000534,
                    "velocity": 0.2125984251968504,
                    "duration": 0.07499999999998863
                },
                {
                    "name": "G4",
                    "midi": 67,
                    "time": 320.70000000000533,
                    "velocity": 0.2755905511811024,
                    "duration": 0.03750000000002274
                },
                {
                    "name": "E4",
                    "midi": 64,
                    "time": 320.70000000000533,
                    "velocity": 0.2283464566929134,
                    "duration": 0.03750000000002274
                },
                {
                    "name": "G2",
                    "midi": 43,
                    "time": 321.00000000000534,
                    "velocity": 0.2755905511811024,
                    "duration": 0.6000000000000227
                },
                {
                    "name": "D2",
                    "midi": 38,
                    "time": 321.00000000000534,
                    "velocity": 0.2755905511811024,
                    "duration": 0.6000000000000227
                },
                {
                    "name": "D3",
                    "midi": 50,
                    "time": 321.00000000000534,
                    "velocity": 0.33070866141732286,
                    "duration": 0.6000000000000227
                },
                {
                    "name": "A3",
                    "midi": 57,
                    "time": 321.22500000000537,
                    "velocity": 0.25196850393700787,
                    "duration": 0.07499999999998863
                },
                {
                    "name": "F#3",
                    "midi": 54,
                    "time": 321.22500000000537,
                    "velocity": 0.2125984251968504,
                    "duration": 0.07499999999998863
                },
                {
                    "name": "G3",
                    "midi": 55,
                    "time": 321.30000000000535,
                    "velocity": 0.2677165354330709,
                    "duration": 0.03750000000002274
                },
                {
                    "name": "A#3",
                    "midi": 58,
                    "time": 321.30000000000535,
                    "velocity": 0.3228346456692913,
                    "duration": 0.03750000000002274
                },
                {
                    "name": "F#4",
                    "midi": 66,
                    "time": 321.5250000000054,
                    "velocity": 0.2440944881889764,
                    "duration": 0.07499999999998863
                },
                {
                    "name": "D#4",
                    "midi": 63,
                    "time": 321.5250000000054,
                    "velocity": 0.2047244094488189,
                    "duration": 0.07499999999998863
                },
                {
                    "name": "E4",
                    "midi": 64,
                    "time": 321.60000000000537,
                    "velocity": 0.2283464566929134,
                    "duration": 0.03750000000002274
                },
                {
                    "name": "G4",
                    "midi": 67,
                    "time": 321.60000000000537,
                    "velocity": 0.2755905511811024,
                    "duration": 0.03750000000002274
                },
                {
                    "name": "C#2",
                    "midi": 37,
                    "time": 321.9000000000054,
                    "velocity": 0.2677165354330709,
                    "duration": 0.6000000000000227
                },
                {
                    "name": "C#3",
                    "midi": 49,
                    "time": 321.9000000000054,
                    "velocity": 0.3228346456692913,
                    "duration": 0.6000000000000227
                },
                {
                    "name": "D#3",
                    "midi": 51,
                    "time": 322.1250000000054,
                    "velocity": 0.2204724409448819,
                    "duration": 0.07499999999998863
                },
                {
                    "name": "F#3",
                    "midi": 54,
                    "time": 322.1250000000054,
                    "velocity": 0.25984251968503935,
                    "duration": 0.07499999999998863
                },
                {
                    "name": "G3",
                    "midi": 55,
                    "time": 322.2000000000054,
                    "velocity": 0.33070866141732286,
                    "duration": 0.03750000000002274
                },
                {
                    "name": "E3",
                    "midi": 52,
                    "time": 322.2000000000054,
                    "velocity": 0.2755905511811024,
                    "duration": 0.03750000000002274
                },
                {
                    "name": "D#4",
                    "midi": 63,
                    "time": 322.4250000000054,
                    "velocity": 0.25984251968503935,
                    "duration": 0.07499999999998863
                },
                {
                    "name": "C4",
                    "midi": 60,
                    "time": 322.4250000000054,
                    "velocity": 0.2204724409448819,
                    "duration": 0.07499999999998863
                },
                {
                    "name": "C#4",
                    "midi": 61,
                    "time": 322.5000000000054,
                    "velocity": 0.2755905511811024,
                    "duration": 0.03750000000002274
                },
                {
                    "name": "E4",
                    "midi": 64,
                    "time": 322.5000000000054,
                    "velocity": 0.33070866141732286,
                    "duration": 0.03750000000002274
                },
                {
                    "name": "A1",
                    "midi": 33,
                    "time": 322.8000000000054,
                    "velocity": 0.2677165354330709,
                    "duration": 0.6000000000000227
                },
                {
                    "name": "A2",
                    "midi": 45,
                    "time": 322.8000000000054,
                    "velocity": 0.3228346456692913,
                    "duration": 0.6000000000000227
                },
                {
                    "name": "F#3",
                    "midi": 54,
                    "time": 323.02500000000543,
                    "velocity": 0.25196850393700787,
                    "duration": 0.07499999999998863
                },
                {
                    "name": "D#3",
                    "midi": 51,
                    "time": 323.02500000000543,
                    "velocity": 0.2125984251968504,
                    "duration": 0.07499999999998863
                },
                {
                    "name": "G3",
                    "midi": 55,
                    "time": 323.1000000000054,
                    "velocity": 0.3228346456692913,
                    "duration": 0.03750000000002274
                },
                {
                    "name": "E3",
                    "midi": 52,
                    "time": 323.1000000000054,
                    "velocity": 0.2677165354330709,
                    "duration": 0.03750000000002274
                },
                {
                    "name": "C4",
                    "midi": 60,
                    "time": 323.32500000000545,
                    "velocity": 0.2125984251968504,
                    "duration": 0.07499999999998863
                },
                {
                    "name": "D#4",
                    "midi": 63,
                    "time": 323.32500000000545,
                    "velocity": 0.25196850393700787,
                    "duration": 0.07499999999998863
                },
                {
                    "name": "E4",
                    "midi": 64,
                    "time": 323.40000000000543,
                    "velocity": 0.2755905511811024,
                    "duration": 0.03750000000002274
                },
                {
                    "name": "C#4",
                    "midi": 61,
                    "time": 323.40000000000543,
                    "velocity": 0.33070866141732286,
                    "duration": 0.03750000000002274
                },
                {
                    "name": "D2",
                    "midi": 38,
                    "time": 323.70000000000545,
                    "velocity": 0.3228346456692913,
                    "duration": 0.6000000000000227
                },
                {
                    "name": "D3",
                    "midi": 50,
                    "time": 323.70000000000545,
                    "velocity": 0.3228346456692913,
                    "duration": 0.6000000000000227
                },
                {
                    "name": "G#3",
                    "midi": 56,
                    "time": 323.92500000000547,
                    "velocity": 0.2440944881889764,
                    "duration": 0.07499999999998863
                },
                {
                    "name": "E3",
                    "midi": 52,
                    "time": 323.92500000000547,
                    "velocity": 0.2047244094488189,
                    "duration": 0.07499999999998863
                },
                {
                    "name": "F3",
                    "midi": 53,
                    "time": 324.00000000000546,
                    "velocity": 0.2283464566929134,
                    "duration": 0.03750000000002274
                },
                {
                    "name": "A3",
                    "midi": 57,
                    "time": 324.00000000000546,
                    "velocity": 0.2755905511811024,
                    "duration": 0.03750000000002274
                },
                {
                    "name": "E4",
                    "midi": 64,
                    "time": 324.2250000000055,
                    "velocity": 0.25196850393700787,
                    "duration": 0.07499999999998863
                },
                {
                    "name": "C#4",
                    "midi": 61,
                    "time": 324.2250000000055,
                    "velocity": 0.2125984251968504,
                    "duration": 0.07499999999998863
                },
                {
                    "name": "D4",
                    "midi": 62,
                    "time": 324.30000000000547,
                    "velocity": 0.2283464566929134,
                    "duration": 0.03750000000002274
                },
                {
                    "name": "F4",
                    "midi": 65,
                    "time": 324.30000000000547,
                    "velocity": 0.2755905511811024,
                    "duration": 0.03750000000002274
                },
                {
                    "name": "D3",
                    "midi": 50,
                    "time": 324.6000000000055,
                    "velocity": 0.3228346456692913,
                    "duration": 0.6000000000000227
                },
                {
                    "name": "A2",
                    "midi": 45,
                    "time": 324.6000000000055,
                    "velocity": 0.2677165354330709,
                    "duration": 0.6000000000000227
                },
                {
                    "name": "D2",
                    "midi": 38,
                    "time": 324.6000000000055,
                    "velocity": 0.2677165354330709,
                    "duration": 0.6000000000000227
                },
                {
                    "name": "E3",
                    "midi": 52,
                    "time": 324.8250000000055,
                    "velocity": 0.2125984251968504,
                    "duration": 0.07499999999998863
                },
                {
                    "name": "G#3",
                    "midi": 56,
                    "time": 324.8250000000055,
                    "velocity": 0.25196850393700787,
                    "duration": 0.07499999999998863
                },
                {
                    "name": "F3",
                    "midi": 53,
                    "time": 324.9000000000055,
                    "velocity": 0.2283464566929134,
                    "duration": 0.03750000000002274
                },
                {
                    "name": "A3",
                    "midi": 57,
                    "time": 324.9000000000055,
                    "velocity": 0.2755905511811024,
                    "duration": 0.03750000000002274
                },
                {
                    "name": "E4",
                    "midi": 64,
                    "time": 325.1250000000055,
                    "velocity": 0.25984251968503935,
                    "duration": 0.07499999999998863
                },
                {
                    "name": "C#4",
                    "midi": 61,
                    "time": 325.1250000000055,
                    "velocity": 0.2204724409448819,
                    "duration": 0.07499999999998863
                },
                {
                    "name": "F4",
                    "midi": 65,
                    "time": 325.2000000000055,
                    "velocity": 0.2755905511811024,
                    "duration": 0.03750000000002274
                },
                {
                    "name": "D4",
                    "midi": 62,
                    "time": 325.2000000000055,
                    "velocity": 0.2283464566929134,
                    "duration": 0.03750000000002274
                },
                {
                    "name": "C3",
                    "midi": 48,
                    "time": 325.5000000000055,
                    "velocity": 0.33070866141732286,
                    "duration": 0.6000000000000227
                },
                {
                    "name": "C2",
                    "midi": 36,
                    "time": 325.5000000000055,
                    "velocity": 0.2755905511811024,
                    "duration": 0.6000000000000227
                },
                {
                    "name": "D#3",
                    "midi": 51,
                    "time": 325.72500000000554,
                    "velocity": 0.2125984251968504,
                    "duration": 0.07499999999998863
                },
                {
                    "name": "F#3",
                    "midi": 54,
                    "time": 325.72500000000554,
                    "velocity": 0.25196850393700787,
                    "duration": 0.07499999999998863
                },
                {
                    "name": "G3",
                    "midi": 55,
                    "time": 325.8000000000055,
                    "velocity": 0.31496062992125984,
                    "duration": 0.03750000000002274
                },
                {
                    "name": "E3",
                    "midi": 52,
                    "time": 325.8000000000055,
                    "velocity": 0.2677165354330709,
                    "duration": 0.03750000000002274
                },
                {
                    "name": "B3",
                    "midi": 59,
                    "time": 326.02500000000555,
                    "velocity": 0.2440944881889764,
                    "duration": 0.07499999999998863
                },
                {
                    "name": "D#4",
                    "midi": 63,
                    "time": 326.02500000000555,
                    "velocity": 0.2047244094488189,
                    "duration": 0.07499999999998863
                },
                {
                    "name": "C4",
                    "midi": 60,
                    "time": 326.10000000000554,
                    "velocity": 0.2755905511811024,
                    "duration": 0.03750000000002274
                },
                {
                    "name": "E4",
                    "midi": 64,
                    "time": 326.10000000000554,
                    "velocity": 0.2755905511811024,
                    "duration": 0.03750000000002274
                },
                {
                    "name": "E2",
                    "midi": 40,
                    "time": 326.40000000000555,
                    "velocity": 0.28346456692913385,
                    "duration": 0.6000000000000227
                },
                {
                    "name": "E3",
                    "midi": 52,
                    "time": 326.40000000000555,
                    "velocity": 0.33858267716535434,
                    "duration": 0.6000000000000227
                },
                {
                    "name": "F#3",
                    "midi": 54,
                    "time": 326.62500000000557,
                    "velocity": 0.2125984251968504,
                    "duration": 0.07499999999998863
                },
                {
                    "name": "B3",
                    "midi": 59,
                    "time": 326.62500000000557,
                    "velocity": 0.25196850393700787,
                    "duration": 0.07499999999998863
                },
                {
                    "name": "C4",
                    "midi": 60,
                    "time": 326.70000000000556,
                    "velocity": 0.3228346456692913,
                    "duration": 0.03750000000002274
                },
                {
                    "name": "G3",
                    "midi": 55,
                    "time": 326.70000000000556,
                    "velocity": 0.2755905511811024,
                    "duration": 0.03750000000002274
                },
                {
                    "name": "F#4",
                    "midi": 66,
                    "time": 326.9250000000056,
                    "velocity": 0.25196850393700787,
                    "duration": 0.07499999999998863
                },
                {
                    "name": "D#4",
                    "midi": 63,
                    "time": 326.9250000000056,
                    "velocity": 0.2125984251968504,
                    "duration": 0.07499999999998863
                },
                {
                    "name": "G4",
                    "midi": 67,
                    "time": 327.00000000000557,
                    "velocity": 0.28346456692913385,
                    "duration": 0.03750000000002274
                },
                {
                    "name": "E4",
                    "midi": 64,
                    "time": 327.00000000000557,
                    "velocity": 0.23622047244094488,
                    "duration": 0.03750000000002274
                },
                {
                    "name": "C3",
                    "midi": 48,
                    "time": 327.3000000000056,
                    "velocity": 0.29133858267716534,
                    "duration": 0.6000000000000227
                },
                {
                    "name": "F3",
                    "midi": 53,
                    "time": 327.3000000000056,
                    "velocity": 0.3464566929133858,
                    "duration": 0.6000000000000227
                },
                {
                    "name": "F2",
                    "midi": 41,
                    "time": 327.3000000000056,
                    "velocity": 0.29133858267716534,
                    "duration": 0.6000000000000227
                },
                {
                    "name": "B3",
                    "midi": 59,
                    "time": 327.5250000000056,
                    "velocity": 0.2677165354330709,
                    "duration": 0.07499999999998863
                },
                {
                    "name": "G#3",
                    "midi": 56,
                    "time": 327.5250000000056,
                    "velocity": 0.2204724409448819,
                    "duration": 0.07499999999998863
                },
                {
                    "name": "A3",
                    "midi": 57,
                    "time": 327.6000000000056,
                    "velocity": 0.29133858267716534,
                    "duration": 0.03750000000002274
                },
                {
                    "name": "C4",
                    "midi": 60,
                    "time": 327.6000000000056,
                    "velocity": 0.3464566929133858,
                    "duration": 0.03750000000002274
                },
                {
                    "name": "G#4",
                    "midi": 68,
                    "time": 327.8250000000056,
                    "velocity": 0.2677165354330709,
                    "duration": 0.07499999999998863
                },
                {
                    "name": "E4",
                    "midi": 64,
                    "time": 327.8250000000056,
                    "velocity": 0.2283464566929134,
                    "duration": 0.07499999999998863
                },
                {
                    "name": "F4",
                    "midi": 65,
                    "time": 327.9000000000056,
                    "velocity": 0.2440944881889764,
                    "duration": 0.03750000000002274
                },
                {
                    "name": "A4",
                    "midi": 69,
                    "time": 327.9000000000056,
                    "velocity": 0.29133858267716534,
                    "duration": 0.03750000000002274
                },
                {
                    "name": "F3",
                    "midi": 53,
                    "time": 328.2000000000056,
                    "velocity": 0.3543307086614173,
                    "duration": 0.6000000000000227
                },
                {
                    "name": "F2",
                    "midi": 41,
                    "time": 328.2000000000056,
                    "velocity": 0.2992125984251969,
                    "duration": 0.6000000000000227
                },
                {
                    "name": "G#3",
                    "midi": 56,
                    "time": 328.42500000000564,
                    "velocity": 0.2283464566929134,
                    "duration": 0.07499999999998863
                },
                {
                    "name": "B3",
                    "midi": 59,
                    "time": 328.42500000000564,
                    "velocity": 0.2755905511811024,
                    "duration": 0.07499999999998863
                },
                {
                    "name": "C4",
                    "midi": 60,
                    "time": 328.5000000000056,
                    "velocity": 0.3543307086614173,
                    "duration": 0.03750000000002274
                },
                {
                    "name": "A3",
                    "midi": 57,
                    "time": 328.5000000000056,
                    "velocity": 0.29133858267716534,
                    "duration": 0.03750000000002274
                },
                {
                    "name": "E4",
                    "midi": 64,
                    "time": 328.72500000000565,
                    "velocity": 0.2204724409448819,
                    "duration": 0.07499999999998863
                },
                {
                    "name": "G#4",
                    "midi": 68,
                    "time": 328.72500000000565,
                    "velocity": 0.2677165354330709,
                    "duration": 0.07499999999998863
                },
                {
                    "name": "F4",
                    "midi": 65,
                    "time": 328.80000000000564,
                    "velocity": 0.25196850393700787,
                    "duration": 0.03750000000002274
                },
                {
                    "name": "A4",
                    "midi": 69,
                    "time": 328.80000000000564,
                    "velocity": 0.2992125984251969,
                    "duration": 0.03750000000002274
                },
                {
                    "name": "E3",
                    "midi": 52,
                    "time": 329.10000000000565,
                    "velocity": 0.3700787401574803,
                    "duration": 0.6000000000000227
                },
                {
                    "name": "E2",
                    "midi": 40,
                    "time": 329.10000000000565,
                    "velocity": 0.30708661417322836,
                    "duration": 0.6000000000000227
                },
                {
                    "name": "G3",
                    "midi": 55,
                    "time": 329.3250000000057,
                    "velocity": 0.23622047244094488,
                    "duration": 0.07499999999998863
                },
                {
                    "name": "A#3",
                    "midi": 58,
                    "time": 329.3250000000057,
                    "velocity": 0.28346456692913385,
                    "duration": 0.07499999999998863
                },
                {
                    "name": "B3",
                    "midi": 59,
                    "time": 329.40000000000566,
                    "velocity": 0.3543307086614173,
                    "duration": 0.03750000000002274
                },
                {
                    "name": "G#3",
                    "midi": 56,
                    "time": 329.40000000000566,
                    "velocity": 0.2992125984251969,
                    "duration": 0.03750000000002274
                },
                {
                    "name": "G4",
                    "midi": 67,
                    "time": 329.6250000000057,
                    "velocity": 0.2283464566929134,
                    "duration": 0.07499999999998863
                },
                {
                    "name": "D#4",
                    "midi": 63,
                    "time": 329.6250000000057,
                    "velocity": 0.2755905511811024,
                    "duration": 0.07499999999998863
                },
                {
                    "name": "E4",
                    "midi": 64,
                    "time": 329.7000000000057,
                    "velocity": 0.30708661417322836,
                    "duration": 0.03750000000002274
                },
                {
                    "name": "G#4",
                    "midi": 68,
                    "time": 329.7000000000057,
                    "velocity": 0.30708661417322836,
                    "duration": 0.03750000000002274
                },
                {
                    "name": "G#2",
                    "midi": 44,
                    "time": 330.0000000000057,
                    "velocity": 0.31496062992125984,
                    "duration": 0.6000000000000227
                },
                {
                    "name": "G#3",
                    "midi": 56,
                    "time": 330.0000000000057,
                    "velocity": 0.3779527559055118,
                    "duration": 0.6000000000000227
                },
                {
                    "name": "A#3",
                    "midi": 58,
                    "time": 330.2250000000057,
                    "velocity": 0.2440944881889764,
                    "duration": 0.07499999999998863
                },
                {
                    "name": "D#4",
                    "midi": 63,
                    "time": 330.2250000000057,
                    "velocity": 0.29133858267716534,
                    "duration": 0.07499999999998863
                },
                {
                    "name": "B3",
                    "midi": 59,
                    "time": 330.3000000000057,
                    "velocity": 0.30708661417322836,
                    "duration": 0.03750000000002274
                },
                {
                    "name": "E4",
                    "midi": 64,
                    "time": 330.3000000000057,
                    "velocity": 0.36220472440944884,
                    "duration": 0.03750000000002274
                },
                {
                    "name": "G4",
                    "midi": 67,
                    "time": 330.5250000000057,
                    "velocity": 0.23622047244094488,
                    "duration": 0.07499999999998863
                },
                {
                    "name": "A#4",
                    "midi": 70,
                    "time": 330.5250000000057,
                    "velocity": 0.28346456692913385,
                    "duration": 0.07499999999998863
                },
                {
                    "name": "B4",
                    "midi": 71,
                    "time": 330.6000000000057,
                    "velocity": 0.31496062992125984,
                    "duration": 0.03750000000002274
                },
                {
                    "name": "G#4",
                    "midi": 68,
                    "time": 330.6000000000057,
                    "velocity": 0.25984251968503935,
                    "duration": 0.03750000000002274
                },
                {
                    "name": "A2",
                    "midi": 45,
                    "time": 330.9000000000057,
                    "velocity": 0.3228346456692913,
                    "duration": 0.6000000000000227
                },
                {
                    "name": "A3",
                    "midi": 57,
                    "time": 330.9000000000057,
                    "velocity": 0.3858267716535433,
                    "duration": 0.6000000000000227
                },
                {
                    "name": "E3",
                    "midi": 52,
                    "time": 330.9000000000057,
                    "velocity": 0.3228346456692913,
                    "duration": 0.6000000000000227
                },
                {
                    "name": "D#4",
                    "midi": 63,
                    "time": 331.12500000000574,
                    "velocity": 0.2992125984251969,
                    "duration": 0.07499999999998863
                },
                {
                    "name": "C4",
                    "midi": 60,
                    "time": 331.12500000000574,
                    "velocity": 0.25196850393700787,
                    "duration": 0.07499999999998863
                },
                {
                    "name": "E4",
                    "midi": 64,
                    "time": 331.20000000000573,
                    "velocity": 0.3858267716535433,
                    "duration": 0.03750000000002274
                },
                {
                    "name": "C#4",
                    "midi": 61,
                    "time": 331.20000000000573,
                    "velocity": 0.3228346456692913,
                    "duration": 0.03750000000002274
                },
                {
                    "name": "C5",
                    "midi": 72,
                    "time": 331.42500000000575,
                    "velocity": 0.2992125984251969,
                    "duration": 0.07499999999998863
                },
                {
                    "name": "G#4",
                    "midi": 68,
                    "time": 331.42500000000575,
                    "velocity": 0.25196850393700787,
                    "duration": 0.07499999999998863
                },
                {
                    "name": "C#5",
                    "midi": 73,
                    "time": 331.50000000000574,
                    "velocity": 0.33070866141732286,
                    "duration": 0.03750000000002274
                },
                {
                    "name": "A4",
                    "midi": 69,
                    "time": 331.50000000000574,
                    "velocity": 0.2677165354330709,
                    "duration": 0.03750000000002274
                },
                {
                    "name": "E3",
                    "midi": 52,
                    "time": 331.80000000000575,
                    "velocity": 0.33070866141732286,
                    "duration": 0.6000000000000227
                },
                {
                    "name": "A2",
                    "midi": 45,
                    "time": 331.80000000000575,
                    "velocity": 0.33070866141732286,
                    "duration": 0.6000000000000227
                },
                {
                    "name": "A3",
                    "midi": 57,
                    "time": 331.80000000000575,
                    "velocity": 0.3937007874015748,
                    "duration": 0.6000000000000227
                },
                {
                    "name": "D#4",
                    "midi": 63,
                    "time": 332.0250000000058,
                    "velocity": 0.30708661417322836,
                    "duration": 0.07499999999998863
                },
                {
                    "name": "C4",
                    "midi": 60,
                    "time": 332.0250000000058,
                    "velocity": 0.25196850393700787,
                    "duration": 0.07499999999998863
                },
                {
                    "name": "E4",
                    "midi": 64,
                    "time": 332.10000000000576,
                    "velocity": 0.3937007874015748,
                    "duration": 0.03750000000002274
                },
                {
                    "name": "C#4",
                    "midi": 61,
                    "time": 332.10000000000576,
                    "velocity": 0.3228346456692913,
                    "duration": 0.03750000000002274
                },
                {
                    "name": "C5",
                    "midi": 72,
                    "time": 332.3250000000058,
                    "velocity": 0.2992125984251969,
                    "duration": 0.07499999999998863
                },
                {
                    "name": "G#4",
                    "midi": 68,
                    "time": 332.3250000000058,
                    "velocity": 0.2440944881889764,
                    "duration": 0.07499999999998863
                },
                {
                    "name": "A4",
                    "midi": 69,
                    "time": 332.4000000000058,
                    "velocity": 0.2755905511811024,
                    "duration": 0.03750000000002274
                },
                {
                    "name": "C#5",
                    "midi": 73,
                    "time": 332.4000000000058,
                    "velocity": 0.33858267716535434,
                    "duration": 0.03750000000002274
                },
                {
                    "name": "A2",
                    "midi": 45,
                    "time": 332.5500000000058,
                    "velocity": 0.3700787401574803,
                    "duration": 0.14999999999997726
                },
                {
                    "name": "A3",
                    "midi": 57,
                    "time": 332.5500000000058,
                    "velocity": 0.4251968503937008,
                    "duration": 0.14999999999997726
                },
                {
                    "name": "A#3",
                    "midi": 58,
                    "time": 332.7000000000058,
                    "velocity": 0.4094488188976378,
                    "duration": 0.6000000000000227
                },
                {
                    "name": "E3",
                    "midi": 52,
                    "time": 332.7000000000058,
                    "velocity": 0.33858267716535434,
                    "duration": 0.6000000000000227
                },
                {
                    "name": "A#2",
                    "midi": 46,
                    "time": 332.7000000000058,
                    "velocity": 0.33858267716535434,
                    "duration": 0.6000000000000227
                },
                {
                    "name": "F#4",
                    "midi": 66,
                    "time": 332.9250000000058,
                    "velocity": 0.31496062992125984,
                    "duration": 0.07499999999998863
                },
                {
                    "name": "D#4",
                    "midi": 63,
                    "time": 332.9250000000058,
                    "velocity": 0.25984251968503935,
                    "duration": 0.07499999999998863
                },
                {
                    "name": "E4",
                    "midi": 64,
                    "time": 333.0000000000058,
                    "velocity": 0.33070866141732286,
                    "duration": 0.03750000000002274
                },
                {
                    "name": "G4",
                    "midi": 67,
                    "time": 333.0000000000058,
                    "velocity": 0.3937007874015748,
                    "duration": 0.03750000000002274
                },
                {
                    "name": "D#5",
                    "midi": 75,
                    "time": 333.2250000000058,
                    "velocity": 0.25196850393700787,
                    "duration": 0.07499999999998863
                },
                {
                    "name": "C5",
                    "midi": 72,
                    "time": 333.2250000000058,
                    "velocity": 0.2992125984251969,
                    "duration": 0.07499999999998863
                },
                {
                    "name": "C#5",
                    "midi": 73,
                    "time": 333.3000000000058,
                    "velocity": 0.33858267716535434,
                    "duration": 0.03750000000002274
                },
                {
                    "name": "E5",
                    "midi": 76,
                    "time": 333.3000000000058,
                    "velocity": 0.33858267716535434,
                    "duration": 0.03750000000002274
                },
                {
                    "name": "A3",
                    "midi": 57,
                    "time": 333.6000000000058,
                    "velocity": 0.4094488188976378,
                    "duration": 0.6000000000000227
                },
                {
                    "name": "A2",
                    "midi": 45,
                    "time": 333.6000000000058,
                    "velocity": 0.33858267716535434,
                    "duration": 0.6000000000000227
                },
                {
                    "name": "F#4",
                    "midi": 66,
                    "time": 333.82500000000584,
                    "velocity": 0.31496062992125984,
                    "duration": 0.07499999999998863
                },
                {
                    "name": "D#4",
                    "midi": 63,
                    "time": 333.82500000000584,
                    "velocity": 0.25984251968503935,
                    "duration": 0.07499999999998863
                },
                {
                    "name": "E4",
                    "midi": 64,
                    "time": 333.90000000000583,
                    "velocity": 0.33070866141732286,
                    "duration": 0.03750000000002274
                },
                {
                    "name": "G4",
                    "midi": 67,
                    "time": 333.90000000000583,
                    "velocity": 0.3937007874015748,
                    "duration": 0.03750000000002274
                },
                {
                    "name": "D#5",
                    "midi": 75,
                    "time": 334.12500000000585,
                    "velocity": 0.2992125984251969,
                    "duration": 0.07499999999998863
                },
                {
                    "name": "C5",
                    "midi": 72,
                    "time": 334.12500000000585,
                    "velocity": 0.25196850393700787,
                    "duration": 0.07499999999998863
                },
                {
                    "name": "E5",
                    "midi": 76,
                    "time": 334.20000000000584,
                    "velocity": 0.33858267716535434,
                    "duration": 0.03750000000002274
                },
                {
                    "name": "C#5",
                    "midi": 73,
                    "time": 334.20000000000584,
                    "velocity": 0.28346456692913385,
                    "duration": 0.03750000000002274
                },
                {
                    "name": "A2",
                    "midi": 45,
                    "time": 334.3500000000059,
                    "velocity": 0.2992125984251969,
                    "duration": 0.14999999999997726
                },
                {
                    "name": "A3",
                    "midi": 57,
                    "time": 334.3500000000059,
                    "velocity": 0.3700787401574803,
                    "duration": 0.14999999999997726
                },
                {
                    "name": "A#2",
                    "midi": 46,
                    "time": 334.50000000000585,
                    "velocity": 0.33858267716535434,
                    "duration": 0.6000000000000227
                },
                {
                    "name": "A#3",
                    "midi": 58,
                    "time": 334.50000000000585,
                    "velocity": 0.4094488188976378,
                    "duration": 0.6000000000000227
                },
                {
                    "name": "D#3",
                    "midi": 51,
                    "time": 334.50000000000585,
                    "velocity": 0.33858267716535434,
                    "duration": 0.6000000000000227
                },
                {
                    "name": "D4",
                    "midi": 62,
                    "time": 334.7250000000059,
                    "velocity": 0.25984251968503935,
                    "duration": 0.07499999999998863
                },
                {
                    "name": "F4",
                    "midi": 65,
                    "time": 334.7250000000059,
                    "velocity": 0.31496062992125984,
                    "duration": 0.07499999999998863
                },
                {
                    "name": "D#4",
                    "midi": 63,
                    "time": 334.80000000000587,
                    "velocity": 0.33858267716535434,
                    "duration": 0.03750000000002274
                },
                {
                    "name": "F#4",
                    "midi": 66,
                    "time": 334.80000000000587,
                    "velocity": 0.4094488188976378,
                    "duration": 0.03750000000002274
                },
                {
                    "name": "D5",
                    "midi": 74,
                    "time": 335.0250000000059,
                    "velocity": 0.31496062992125984,
                    "duration": 0.07499999999998863
                },
                {
                    "name": "B4",
                    "midi": 71,
                    "time": 335.0250000000059,
                    "velocity": 0.25984251968503935,
                    "duration": 0.07499999999998863
                },
                {
                    "name": "D#5",
                    "midi": 75,
                    "time": 335.1000000000059,
                    "velocity": 0.33858267716535434,
                    "duration": 0.03750000000002274
                },
                {
                    "name": "C5",
                    "midi": 72,
                    "time": 335.1000000000059,
                    "velocity": 0.28346456692913385,
                    "duration": 0.03750000000002274
                },
                {
                    "name": "A2",
                    "midi": 45,
                    "time": 335.4000000000059,
                    "velocity": 0.33858267716535434,
                    "duration": 0.6000000000000227
                },
                {
                    "name": "A3",
                    "midi": 57,
                    "time": 335.4000000000059,
                    "velocity": 0.4094488188976378,
                    "duration": 0.6000000000000227
                },
                {
                    "name": "F4",
                    "midi": 65,
                    "time": 335.6250000000059,
                    "velocity": 0.31496062992125984,
                    "duration": 0.07499999999998863
                },
                {
                    "name": "D4",
                    "midi": 62,
                    "time": 335.6250000000059,
                    "velocity": 0.25984251968503935,
                    "duration": 0.07499999999998863
                },
                {
                    "name": "D#4",
                    "midi": 63,
                    "time": 335.7000000000059,
                    "velocity": 0.33070866141732286,
                    "duration": 0.03750000000002274
                },
                {
                    "name": "F#4",
                    "midi": 66,
                    "time": 335.7000000000059,
                    "velocity": 0.4015748031496063,
                    "duration": 0.03750000000002274
                },
                {
                    "name": "D5",
                    "midi": 74,
                    "time": 335.9250000000059,
                    "velocity": 0.2992125984251969,
                    "duration": 0.07499999999998863
                },
                {
                    "name": "B4",
                    "midi": 71,
                    "time": 335.9250000000059,
                    "velocity": 0.25196850393700787,
                    "duration": 0.07499999999998863
                },
                {
                    "name": "D#5",
                    "midi": 75,
                    "time": 336.0000000000059,
                    "velocity": 0.33858267716535434,
                    "duration": 0.03750000000002274
                },
                {
                    "name": "C5",
                    "midi": 72,
                    "time": 336.0000000000059,
                    "velocity": 0.28346456692913385,
                    "duration": 0.03750000000002274
                },
                {
                    "name": "A2",
                    "midi": 45,
                    "time": 336.15000000000595,
                    "velocity": 0.25984251968503935,
                    "duration": 0.14999999999997726
                },
                {
                    "name": "A3",
                    "midi": 57,
                    "time": 336.15000000000595,
                    "velocity": 0.3700787401574803,
                    "duration": 0.14999999999997726
                },
                {
                    "name": "B3",
                    "midi": 59,
                    "time": 336.3000000000059,
                    "velocity": 0.4015748031496063,
                    "duration": 0.6000000000000227
                },
                {
                    "name": "D3",
                    "midi": 50,
                    "time": 336.3000000000059,
                    "velocity": 0.33070866141732286,
                    "duration": 0.6000000000000227
                },
                {
                    "name": "B2",
                    "midi": 47,
                    "time": 336.3000000000059,
                    "velocity": 0.33070866141732286,
                    "duration": 0.6000000000000227
                },
                {
                    "name": "E4",
                    "midi": 64,
                    "time": 336.52500000000595,
                    "velocity": 0.3228346456692913,
                    "duration": 0.07499999999998863
                },
                {
                    "name": "C#4",
                    "midi": 61,
                    "time": 336.52500000000595,
                    "velocity": 0.2755905511811024,
                    "duration": 0.07499999999998863
                },
                {
                    "name": "D4",
                    "midi": 62,
                    "time": 336.60000000000593,
                    "velocity": 0.33858267716535434,
                    "duration": 0.03750000000002274
                },
                {
                    "name": "F4",
                    "midi": 65,
                    "time": 336.60000000000593,
                    "velocity": 0.4094488188976378,
                    "duration": 0.03750000000002274
                },
                {
                    "name": "A#4",
                    "midi": 70,
                    "time": 336.82500000000596,
                    "velocity": 0.3228346456692913,
                    "duration": 0.07499999999998863
                },
                {
                    "name": "G4",
                    "midi": 67,
                    "time": 336.82500000000596,
                    "velocity": 0.2755905511811024,
                    "duration": 0.07499999999998863
                },
                {
                    "name": "G#4",
                    "midi": 68,
                    "time": 336.90000000000595,
                    "velocity": 0.33858267716535434,
                    "duration": 0.03750000000002274
                },
                {
                    "name": "B4",
                    "midi": 71,
                    "time": 336.90000000000595,
                    "velocity": 0.4094488188976378,
                    "duration": 0.03750000000002274
                },
                {
                    "name": "E2",
                    "midi": 40,
                    "time": 337.20000000000596,
                    "velocity": 0.33070866141732286,
                    "duration": 0.6000000000000227
                },
                {
                    "name": "E3",
                    "midi": 52,
                    "time": 337.20000000000596,
                    "velocity": 0.4015748031496063,
                    "duration": 0.6000000000000227
                },
                {
                    "name": "B2",
                    "midi": 47,
                    "time": 337.20000000000596,
                    "velocity": 0.33070866141732286,
                    "duration": 0.6000000000000227
                },
                {
                    "name": "A#3",
                    "midi": 58,
                    "time": 337.425000000006,
                    "velocity": 0.31496062992125984,
                    "duration": 0.07499999999998863
                },
                {
                    "name": "G3",
                    "midi": 55,
                    "time": 337.425000000006,
                    "velocity": 0.25984251968503935,
                    "duration": 0.07499999999998863
                },
                {
                    "name": "G#3",
                    "midi": 56,
                    "time": 337.50000000000597,
                    "velocity": 0.33070866141732286,
                    "duration": 0.03750000000002274
                },
                {
                    "name": "B3",
                    "midi": 59,
                    "time": 337.50000000000597,
                    "velocity": 0.4015748031496063,
                    "duration": 0.03750000000002274
                },
                {
                    "name": "G4",
                    "midi": 67,
                    "time": 337.725000000006,
                    "velocity": 0.31496062992125984,
                    "duration": 0.07499999999998863
                },
                {
                    "name": "D#4",
                    "midi": 63,
                    "time": 337.725000000006,
                    "velocity": 0.25984251968503935,
                    "duration": 0.07499999999998863
                },
                {
                    "name": "E4",
                    "midi": 64,
                    "time": 337.800000000006,
                    "velocity": 0.4094488188976378,
                    "duration": 0.03750000000002274
                },
                {
                    "name": "G#4",
                    "midi": 68,
                    "time": 337.800000000006,
                    "velocity": 0.33858267716535434,
                    "duration": 0.03750000000002274
                },
                {
                    "name": "A2",
                    "midi": 45,
                    "time": 338.100000000006,
                    "velocity": 0.4015748031496063,
                    "duration": 0.6000000000000227
                },
                {
                    "name": "E3",
                    "midi": 52,
                    "time": 338.100000000006,
                    "velocity": 0.4015748031496063,
                    "duration": 0.6000000000000227
                },
                {
                    "name": "A3",
                    "midi": 57,
                    "time": 338.100000000006,
                    "velocity": 0.4015748031496063,
                    "duration": 0.6000000000000227
                },
                {
                    "name": "D#4",
                    "midi": 63,
                    "time": 338.325000000006,
                    "velocity": 0.2992125984251969,
                    "duration": 0.07499999999998863
                },
                {
                    "name": "C4",
                    "midi": 60,
                    "time": 338.325000000006,
                    "velocity": 0.25196850393700787,
                    "duration": 0.07499999999998863
                },
                {
                    "name": "C#4",
                    "midi": 61,
                    "time": 338.400000000006,
                    "velocity": 0.28346456692913385,
                    "duration": 0.03750000000002274
                },
                {
                    "name": "E4",
                    "midi": 64,
                    "time": 338.400000000006,
                    "velocity": 0.33858267716535434,
                    "duration": 0.03750000000002274
                },
                {
                    "name": "C5",
                    "midi": 72,
                    "time": 338.625000000006,
                    "velocity": 0.31496062992125984,
                    "duration": 0.07499999999998863
                },
                {
                    "name": "G#4",
                    "midi": 68,
                    "time": 338.625000000006,
                    "velocity": 0.25984251968503935,
                    "duration": 0.07499999999998863
                },
                {
                    "name": "A4",
                    "midi": 69,
                    "time": 338.700000000006,
                    "velocity": 0.28346456692913385,
                    "duration": 0.03750000000002274
                },
                {
                    "name": "C#5",
                    "midi": 73,
                    "time": 338.700000000006,
                    "velocity": 0.33858267716535434,
                    "duration": 0.03750000000002274
                },
                {
                    "name": "A2",
                    "midi": 45,
                    "time": 339.000000000006,
                    "velocity": 0.33070866141732286,
                    "duration": 0.6000000000000227
                },
                {
                    "name": "A3",
                    "midi": 57,
                    "time": 339.000000000006,
                    "velocity": 0.4015748031496063,
                    "duration": 0.6000000000000227
                },
                {
                    "name": "E3",
                    "midi": 52,
                    "time": 339.000000000006,
                    "velocity": 0.33070866141732286,
                    "duration": 0.6000000000000227
                },
                {
                    "name": "D#4",
                    "midi": 63,
                    "time": 339.22500000000605,
                    "velocity": 0.31496062992125984,
                    "duration": 0.07499999999998863
                },
                {
                    "name": "C4",
                    "midi": 60,
                    "time": 339.22500000000605,
                    "velocity": 0.25984251968503935,
                    "duration": 0.07499999999998863
                },
                {
                    "name": "C#4",
                    "midi": 61,
                    "time": 339.30000000000604,
                    "velocity": 0.28346456692913385,
                    "duration": 0.03750000000002274
                },
                {
                    "name": "E4",
                    "midi": 64,
                    "time": 339.30000000000604,
                    "velocity": 0.33858267716535434,
                    "duration": 0.03750000000002274
                },
                {
                    "name": "G#4",
                    "midi": 68,
                    "time": 339.52500000000606,
                    "velocity": 0.2755905511811024,
                    "duration": 0.07499999999998863
                },
                {
                    "name": "C5",
                    "midi": 72,
                    "time": 339.52500000000606,
                    "velocity": 0.3228346456692913,
                    "duration": 0.07499999999998863
                },
                {
                    "name": "C#5",
                    "midi": 73,
                    "time": 339.60000000000605,
                    "velocity": 0.33858267716535434,
                    "duration": 0.03750000000002274
                },
                {
                    "name": "A4",
                    "midi": 69,
                    "time": 339.60000000000605,
                    "velocity": 0.28346456692913385,
                    "duration": 0.03750000000002274
                },
                {
                    "name": "A2",
                    "midi": 45,
                    "time": 339.7500000000061,
                    "velocity": 0.3700787401574803,
                    "duration": 0.14999999999997726
                },
                {
                    "name": "A1",
                    "midi": 33,
                    "time": 339.7500000000061,
                    "velocity": 0.3228346456692913,
                    "duration": 0.14999999999997726
                },
                {
                    "name": "A#2",
                    "midi": 46,
                    "time": 339.90000000000606,
                    "velocity": 0.3779527559055118,
                    "duration": 0.6000000000000227
                },
                {
                    "name": "A#1",
                    "midi": 34,
                    "time": 339.90000000000606,
                    "velocity": 0.31496062992125984,
                    "duration": 0.6000000000000227
                },
                {
                    "name": "E2",
                    "midi": 40,
                    "time": 339.90000000000606,
                    "velocity": 0.31496062992125984,
                    "duration": 0.6000000000000227
                },
                {
                    "name": "D#3",
                    "midi": 51,
                    "time": 340.1250000000061,
                    "velocity": 0.2440944881889764,
                    "duration": 0.07499999999998863
                },
                {
                    "name": "F#3",
                    "midi": 54,
                    "time": 340.1250000000061,
                    "velocity": 0.28346456692913385,
                    "duration": 0.07499999999998863
                },
                {
                    "name": "G3",
                    "midi": 55,
                    "time": 340.20000000000607,
                    "velocity": 0.36220472440944884,
                    "duration": 0.03750000000002274
                },
                {
                    "name": "E3",
                    "midi": 52,
                    "time": 340.20000000000607,
                    "velocity": 0.30708661417322836,
                    "duration": 0.03750000000002274
                },
                {
                    "name": "D#4",
                    "midi": 63,
                    "time": 340.4250000000061,
                    "velocity": 0.2283464566929134,
                    "duration": 0.07499999999998863
                },
                {
                    "name": "C4",
                    "midi": 60,
                    "time": 340.4250000000061,
                    "velocity": 0.2755905511811024,
                    "duration": 0.07499999999998863
                },
                {
                    "name": "E4",
                    "midi": 64,
                    "time": 340.5000000000061,
                    "velocity": 0.31496062992125984,
                    "duration": 0.03750000000002274
                },
                {
                    "name": "C#4",
                    "midi": 61,
                    "time": 340.5000000000061,
                    "velocity": 0.31496062992125984,
                    "duration": 0.03750000000002274
                },
                {
                    "name": "A2",
                    "midi": 45,
                    "time": 340.8000000000061,
                    "velocity": 0.3779527559055118,
                    "duration": 0.6000000000000227
                },
                {
                    "name": "A1",
                    "midi": 33,
                    "time": 340.8000000000061,
                    "velocity": 0.31496062992125984,
                    "duration": 0.6000000000000227
                },
                {
                    "name": "D#3",
                    "midi": 51,
                    "time": 341.0250000000061,
                    "velocity": 0.2440944881889764,
                    "duration": 0.07499999999998863
                },
                {
                    "name": "F#3",
                    "midi": 54,
                    "time": 341.0250000000061,
                    "velocity": 0.28346456692913385,
                    "duration": 0.07499999999998863
                },
                {
                    "name": "E3",
                    "midi": 52,
                    "time": 341.1000000000061,
                    "velocity": 0.30708661417322836,
                    "duration": 0.03750000000002274
                },
                {
                    "name": "G3",
                    "midi": 55,
                    "time": 341.1000000000061,
                    "velocity": 0.36220472440944884,
                    "duration": 0.03750000000002274
                },
                {
                    "name": "C4",
                    "midi": 60,
                    "time": 341.3250000000061,
                    "velocity": 0.2283464566929134,
                    "duration": 0.07499999999998863
                },
                {
                    "name": "D#4",
                    "midi": 63,
                    "time": 341.3250000000061,
                    "velocity": 0.2755905511811024,
                    "duration": 0.07499999999998863
                },
                {
                    "name": "C#4",
                    "midi": 61,
                    "time": 341.4000000000061,
                    "velocity": 0.25984251968503935,
                    "duration": 0.03750000000002274
                },
                {
                    "name": "E4",
                    "midi": 64,
                    "time": 341.4000000000061,
                    "velocity": 0.31496062992125984,
                    "duration": 0.03750000000002274
                },
                {
                    "name": "A1",
                    "midi": 33,
                    "time": 341.55000000000615,
                    "velocity": 0.2755905511811024,
                    "duration": 0.14999999999997726
                },
                {
                    "name": "A2",
                    "midi": 45,
                    "time": 341.55000000000615,
                    "velocity": 0.33858267716535434,
                    "duration": 0.14999999999997726
                },
                {
                    "name": "A#2",
                    "midi": 46,
                    "time": 341.7000000000061,
                    "velocity": 0.3779527559055118,
                    "duration": 0.6000000000000227
                },
                {
                    "name": "A#1",
                    "midi": 34,
                    "time": 341.7000000000061,
                    "velocity": 0.31496062992125984,
                    "duration": 0.6000000000000227
                },
                {
                    "name": "D#2",
                    "midi": 39,
                    "time": 341.7000000000061,
                    "velocity": 0.31496062992125984,
                    "duration": 0.6000000000000227
                },
                {
                    "name": "D3",
                    "midi": 50,
                    "time": 341.92500000000615,
                    "velocity": 0.2440944881889764,
                    "duration": 0.07499999999998863
                },
                {
                    "name": "F3",
                    "midi": 53,
                    "time": 341.92500000000615,
                    "velocity": 0.28346456692913385,
                    "duration": 0.07499999999998863
                },
                {
                    "name": "D#3",
                    "midi": 51,
                    "time": 342.00000000000614,
                    "velocity": 0.31496062992125984,
                    "duration": 0.03750000000002274
                },
                {
                    "name": "F#3",
                    "midi": 54,
                    "time": 342.00000000000614,
                    "velocity": 0.3779527559055118,
                    "duration": 0.03750000000002274
                },
                {
                    "name": "D4",
                    "midi": 62,
                    "time": 342.22500000000616,
                    "velocity": 0.28346456692913385,
                    "duration": 0.07499999999998863
                },
                {
                    "name": "B3",
                    "midi": 59,
                    "time": 342.22500000000616,
                    "velocity": 0.2440944881889764,
                    "duration": 0.07499999999998863
                },
                {
                    "name": "D#4",
                    "midi": 63,
                    "time": 342.30000000000615,
                    "velocity": 0.31496062992125984,
                    "duration": 0.03750000000002274
                },
                {
                    "name": "C4",
                    "midi": 60,
                    "time": 342.30000000000615,
                    "velocity": 0.25984251968503935,
                    "duration": 0.03750000000002274
                },
                {
                    "name": "A2",
                    "midi": 45,
                    "time": 342.60000000000616,
                    "velocity": 0.3779527559055118,
                    "duration": 0.6000000000000227
                },
                {
                    "name": "A1",
                    "midi": 33,
                    "time": 342.60000000000616,
                    "velocity": 0.31496062992125984,
                    "duration": 0.6000000000000227
                },
                {
                    "name": "F3",
                    "midi": 53,
                    "time": 342.8250000000062,
                    "velocity": 0.28346456692913385,
                    "duration": 0.07499999999998863
                },
                {
                    "name": "D3",
                    "midi": 50,
                    "time": 342.8250000000062,
                    "velocity": 0.2440944881889764,
                    "duration": 0.07499999999998863
                },
                {
                    "name": "F#3",
                    "midi": 54,
                    "time": 342.9000000000062,
                    "velocity": 0.3700787401574803,
                    "duration": 0.03750000000002274
                },
                {
                    "name": "D#3",
                    "midi": 51,
                    "time": 342.9000000000062,
                    "velocity": 0.30708661417322836,
                    "duration": 0.03750000000002274
                },
                {
                    "name": "D4",
                    "midi": 62,
                    "time": 343.1250000000062,
                    "velocity": 0.2755905511811024,
                    "duration": 0.07499999999998863
                },
                {
                    "name": "B3",
                    "midi": 59,
                    "time": 343.1250000000062,
                    "velocity": 0.2283464566929134,
                    "duration": 0.07499999999998863
                },
                {
                    "name": "C4",
                    "midi": 60,
                    "time": 343.2000000000062,
                    "velocity": 0.25984251968503935,
                    "duration": 0.03750000000002274
                },
                {
                    "name": "D#4",
                    "midi": 63,
                    "time": 343.2000000000062,
                    "velocity": 0.31496062992125984,
                    "duration": 0.03750000000002274
                },
                {
                    "name": "A1",
                    "midi": 33,
                    "time": 343.3500000000062,
                    "velocity": 0.2440944881889764,
                    "duration": 0.14999999999997726
                },
                {
                    "name": "A2",
                    "midi": 45,
                    "time": 343.3500000000062,
                    "velocity": 0.33858267716535434,
                    "duration": 0.14999999999997726
                },
                {
                    "name": "B2",
                    "midi": 47,
                    "time": 343.5000000000062,
                    "velocity": 0.3700787401574803,
                    "duration": 0.6000000000000227
                },
                {
                    "name": "B1",
                    "midi": 35,
                    "time": 343.5000000000062,
                    "velocity": 0.30708661417322836,
                    "duration": 0.6000000000000227
                },
                {
                    "name": "D2",
                    "midi": 38,
                    "time": 343.5000000000062,
                    "velocity": 0.30708661417322836,
                    "duration": 0.6000000000000227
                },
                {
                    "name": "G3",
                    "midi": 55,
                    "time": 343.7250000000062,
                    "velocity": 0.29133858267716534,
                    "duration": 0.07499999999998863
                },
                {
                    "name": "E3",
                    "midi": 52,
                    "time": 343.7250000000062,
                    "velocity": 0.25196850393700787,
                    "duration": 0.07499999999998863
                },
                {
                    "name": "G#3",
                    "midi": 56,
                    "time": 343.8000000000062,
                    "velocity": 0.3779527559055118,
                    "duration": 0.03750000000002274
                },
                {
                    "name": "F3",
                    "midi": 53,
                    "time": 343.8000000000062,
                    "velocity": 0.31496062992125984,
                    "duration": 0.03750000000002274
                },
                {
                    "name": "C#4",
                    "midi": 61,
                    "time": 344.02500000000623,
                    "velocity": 0.25196850393700787,
                    "duration": 0.07499999999998863
                },
                {
                    "name": "E4",
                    "midi": 64,
                    "time": 344.02500000000623,
                    "velocity": 0.29133858267716534,
                    "duration": 0.07499999999998863
                },
                {
                    "name": "F4",
                    "midi": 65,
                    "time": 344.1000000000062,
                    "velocity": 0.3779527559055118,
                    "duration": 0.03750000000002274
                },
                {
                    "name": "D4",
                    "midi": 62,
                    "time": 344.1000000000062,
                    "velocity": 0.31496062992125984,
                    "duration": 0.03750000000002274
                },
                {
                    "name": "A#1",
                    "midi": 34,
                    "time": 344.40000000000623,
                    "velocity": 0.30708661417322836,
                    "duration": 0.6000000000000227
                },
                {
                    "name": "D2",
                    "midi": 38,
                    "time": 344.40000000000623,
                    "velocity": 0.30708661417322836,
                    "duration": 0.6000000000000227
                },
                {
                    "name": "A#2",
                    "midi": 46,
                    "time": 344.40000000000623,
                    "velocity": 0.3700787401574803,
                    "duration": 0.6000000000000227
                },
                {
                    "name": "D#3",
                    "midi": 51,
                    "time": 344.62500000000625,
                    "velocity": 0.28346456692913385,
                    "duration": 0.07499999999998863
                },
                {
                    "name": "E3",
                    "midi": 52,
                    "time": 344.70000000000624,
                    "velocity": 0.3700787401574803,
                    "duration": 0.03750000000002274
                },
                {
                    "name": "G3",
                    "midi": 55,
                    "time": 344.92500000000626,
                    "velocity": 0.28346456692913385,
                    "duration": 0.07499999999998863
                },
                {
                    "name": "G#3",
                    "midi": 56,
                    "time": 345.00000000000625,
                    "velocity": 0.31496062992125984,
                    "duration": 0.03750000000002274
                },
                {
                    "name": "A1",
                    "midi": 33,
                    "time": 345.30000000000626,
                    "velocity": 0.3700787401574803,
                    "duration": 0.30000000000001137
                },
                {
                    "name": "A2",
                    "midi": 45,
                    "time": 345.30000000000626,
                    "velocity": 0.3700787401574803,
                    "duration": 0.30000000000001137
                },
                {
                    "name": "E2",
                    "midi": 40,
                    "time": 345.30000000000626,
                    "velocity": 0.3700787401574803,
                    "duration": 0.30000000000001137
                },
                {
                    "name": "A#2",
                    "midi": 46,
                    "time": 345.6000000000063,
                    "velocity": 0.33858267716535434,
                    "duration": 0.14999999999997726
                },
                {
                    "name": "G3",
                    "midi": 55,
                    "time": 345.6000000000063,
                    "velocity": 0.4015748031496063,
                    "duration": 0.14999999999997726
                },
                {
                    "name": "C#3",
                    "midi": 49,
                    "time": 345.90000000000623,
                    "velocity": 0.3464566929133858,
                    "duration": 0.14999999999997726
                },
                {
                    "name": "A#3",
                    "midi": 58,
                    "time": 345.90000000000623,
                    "velocity": 0.41732283464566927,
                    "duration": 0.14999999999997726
                },
                {
                    "name": "C#4",
                    "midi": 61,
                    "time": 346.2000000000062,
                    "velocity": 0.4330708661417323,
                    "duration": 0.14999999999997726
                },
                {
                    "name": "E3",
                    "midi": 52,
                    "time": 346.2000000000062,
                    "velocity": 0.3700787401574803,
                    "duration": 0.14999999999997726
                },
                {
                    "name": "E4",
                    "midi": 64,
                    "time": 346.50000000000614,
                    "velocity": 0.4566929133858268,
                    "duration": 0.14999999999997726
                },
                {
                    "name": "G3",
                    "midi": 55,
                    "time": 346.50000000000614,
                    "velocity": 0.3858267716535433,
                    "duration": 0.14999999999997726
                },
                {
                    "name": "D3",
                    "midi": 50,
                    "time": 346.8000000000061,
                    "velocity": 0.4645669291338583,
                    "duration": 0.14999999999997726
                },
                {
                    "name": "D4",
                    "midi": 62,
                    "time": 346.8000000000061,
                    "velocity": 0.5669291338582677,
                    "duration": 0.14999999999997726
                },
                {
                    "name": "A3",
                    "midi": 57,
                    "time": 347.10000000000605,
                    "velocity": 0.5905511811023622,
                    "duration": 0.14999999999997726
                },
                {
                    "name": "A2",
                    "midi": 45,
                    "time": 347.10000000000605,
                    "velocity": 0.49606299212598426,
                    "duration": 0.14999999999997726
                },
                {
                    "name": "G4",
                    "midi": 67,
                    "time": 347.400000000006,
                    "velocity": 0.5196850393700787,
                    "duration": 0.14999999999997726
                },
                {
                    "name": "A#3",
                    "midi": 58,
                    "time": 347.400000000006,
                    "velocity": 0.4330708661417323,
                    "duration": 0.14999999999997726
                },
                {
                    "name": "C#4",
                    "midi": 61,
                    "time": 347.70000000000596,
                    "velocity": 0.44881889763779526,
                    "duration": 0.14999999999997726
                },
                {
                    "name": "A#4",
                    "midi": 70,
                    "time": 347.70000000000596,
                    "velocity": 0.5433070866141733,
                    "duration": 0.14999999999997726
                },
                {
                    "name": "C#5",
                    "midi": 73,
                    "time": 348.0000000000059,
                    "velocity": 0.5433070866141733,
                    "duration": 0.14999999999997726
                },
                {
                    "name": "E4",
                    "midi": 64,
                    "time": 348.0000000000059,
                    "velocity": 0.47244094488188976,
                    "duration": 0.14999999999997726
                },
                {
                    "name": "G4",
                    "midi": 67,
                    "time": 348.30000000000587,
                    "velocity": 0.5039370078740157,
                    "duration": 0.14999999999997726
                },
                {
                    "name": "E5",
                    "midi": 76,
                    "time": 348.30000000000587,
                    "velocity": 0.5905511811023622,
                    "duration": 0.14999999999997726
                },
                {
                    "name": "D4",
                    "midi": 62,
                    "time": 348.6000000000058,
                    "velocity": 0.5669291338582677,
                    "duration": 0.14999999999997726
                },
                {
                    "name": "D5",
                    "midi": 74,
                    "time": 348.6000000000058,
                    "velocity": 0.6771653543307087,
                    "duration": 0.14999999999997726
                },
                {
                    "name": "A4",
                    "midi": 69,
                    "time": 348.9000000000058,
                    "velocity": 0.5590551181102362,
                    "duration": 0.14999999999997726
                },
                {
                    "name": "A3",
                    "midi": 57,
                    "time": 348.9000000000058,
                    "velocity": 0.4645669291338583,
                    "duration": 0.14999999999997726
                },
                {
                    "name": "D4",
                    "midi": 62,
                    "time": 349.35000000000576,
                    "velocity": 0.6771653543307087,
                    "duration": 0.14999999999997726
                },
                {
                    "name": "D3",
                    "midi": 50,
                    "time": 349.35000000000576,
                    "velocity": 0.5669291338582677,
                    "duration": 0.14999999999997726
                },
                {
                    "name": "A3",
                    "midi": 57,
                    "time": 349.50000000000574,
                    "velocity": 0.5039370078740157,
                    "duration": 0.14999999999997726
                },
                {
                    "name": "A2",
                    "midi": 45,
                    "time": 349.50000000000574,
                    "velocity": 0.41732283464566927,
                    "duration": 0.14999999999997726
                },
                {
                    "name": "D2",
                    "midi": 38,
                    "time": 349.8000000000057,
                    "velocity": 0.5669291338582677,
                    "duration": 0.14999999999997726
                },
                {
                    "name": "D3",
                    "midi": 50,
                    "time": 349.8000000000057,
                    "velocity": 0.6771653543307087,
                    "duration": 0.14999999999997726
                },
                {
                    "name": "A2",
                    "midi": 45,
                    "time": 350.10000000000565,
                    "velocity": 0.5118110236220472,
                    "duration": 0.14999999999997726
                },
                {
                    "name": "A1",
                    "midi": 33,
                    "time": 350.10000000000565,
                    "velocity": 0.4330708661417323,
                    "duration": 0.14999999999997726
                },
                {
                    "name": "D3",
                    "midi": 50,
                    "time": 350.4000000000056,
                    "velocity": 0.6771653543307087,
                    "duration": 0.14999999999997726
                },
                {
                    "name": "D2",
                    "midi": 38,
                    "time": 350.4000000000056,
                    "velocity": 0.5669291338582677,
                    "duration": 0.14999999999997726
                },
                {
                    "name": "A2",
                    "midi": 45,
                    "time": 350.70000000000556,
                    "velocity": 0.5196850393700787,
                    "duration": 0.14999999999997726
                },
                {
                    "name": "A1",
                    "midi": 33,
                    "time": 350.70000000000556,
                    "velocity": 0.4330708661417323,
                    "duration": 0.14999999999997726
                },
                {
                    "name": "D4",
                    "midi": 62,
                    "time": 351.15000000000555,
                    "velocity": 0.6771653543307087,
                    "duration": 0.14999999999997726
                },
                {
                    "name": "D3",
                    "midi": 50,
                    "time": 351.15000000000555,
                    "velocity": 0.5669291338582677,
                    "duration": 0.14999999999997726
                },
                {
                    "name": "A2",
                    "midi": 45,
                    "time": 351.3000000000055,
                    "velocity": 0.4409448818897638,
                    "duration": 0.14999999999997726
                },
                {
                    "name": "A3",
                    "midi": 57,
                    "time": 351.3000000000055,
                    "velocity": 0.5275590551181102,
                    "duration": 0.14999999999997726
                },
                {
                    "name": "D3",
                    "midi": 50,
                    "time": 351.6000000000055,
                    "velocity": 0.6771653543307087,
                    "duration": 0.14999999999997726
                },
                {
                    "name": "D2",
                    "midi": 38,
                    "time": 351.6000000000055,
                    "velocity": 0.5669291338582677,
                    "duration": 0.14999999999997726
                },
                {
                    "name": "A2",
                    "midi": 45,
                    "time": 351.90000000000543,
                    "velocity": 0.5354330708661418,
                    "duration": 0.14999999999997726
                },
                {
                    "name": "A1",
                    "midi": 33,
                    "time": 351.90000000000543,
                    "velocity": 0.44881889763779526,
                    "duration": 0.14999999999997726
                },
                {
                    "name": "D3",
                    "midi": 50,
                    "time": 352.2000000000054,
                    "velocity": 0.6771653543307087,
                    "duration": 0.14999999999997726
                },
                {
                    "name": "D2",
                    "midi": 38,
                    "time": 352.2000000000054,
                    "velocity": 0.5669291338582677,
                    "duration": 0.14999999999997726
                },
                {
                    "name": "A1",
                    "midi": 33,
                    "time": 352.50000000000534,
                    "velocity": 0.4566929133858268,
                    "duration": 0.14999999999997726
                },
                {
                    "name": "A2",
                    "midi": 45,
                    "time": 352.50000000000534,
                    "velocity": 0.5433070866141733,
                    "duration": 0.14999999999997726
                },
                {
                    "name": "G#3",
                    "midi": 56,
                    "time": 352.8000000000053,
                    "velocity": 0.31496062992125984,
                    "duration": 0.14999999999997726
                },
                {
                    "name": "G#2",
                    "midi": 44,
                    "time": 352.8000000000053,
                    "velocity": 0.2677165354330709,
                    "duration": 0.14999999999997726
                },
                {
                    "name": "A2",
                    "midi": 45,
                    "time": 352.9500000000053,
                    "velocity": 0.2677165354330709,
                    "duration": 0.14999999999997726
                },
                {
                    "name": "A3",
                    "midi": 57,
                    "time": 352.9500000000053,
                    "velocity": 0.31496062992125984,
                    "duration": 0.14999999999997726
                },
                {
                    "name": "A#2",
                    "midi": 46,
                    "time": 353.10000000000525,
                    "velocity": 0.28346456692913385,
                    "duration": 0.14999999999997726
                },
                {
                    "name": "A#3",
                    "midi": 58,
                    "time": 353.10000000000525,
                    "velocity": 0.3543307086614173,
                    "duration": 0.14999999999997726
                },
                {
                    "name": "A2",
                    "midi": 45,
                    "time": 353.4000000000052,
                    "velocity": 0.2755905511811024,
                    "duration": 0.14999999999997726
                },
                {
                    "name": "A3",
                    "midi": 57,
                    "time": 353.4000000000052,
                    "velocity": 0.33070866141732286,
                    "duration": 0.14999999999997726
                },
                {
                    "name": "A#2",
                    "midi": 46,
                    "time": 353.5500000000052,
                    "velocity": 0.2755905511811024,
                    "duration": 0.14999999999997726
                },
                {
                    "name": "A#3",
                    "midi": 58,
                    "time": 353.5500000000052,
                    "velocity": 0.3464566929133858,
                    "duration": 0.14999999999997726
                },
                {
                    "name": "B3",
                    "midi": 59,
                    "time": 353.70000000000516,
                    "velocity": 0.3700787401574803,
                    "duration": 0.14999999999997726
                },
                {
                    "name": "B2",
                    "midi": 47,
                    "time": 353.70000000000516,
                    "velocity": 0.2992125984251969,
                    "duration": 0.14999999999997726
                },
                {
                    "name": "A#2",
                    "midi": 46,
                    "time": 354.0000000000051,
                    "velocity": 0.29133858267716534,
                    "duration": 0.14999999999997726
                },
                {
                    "name": "A#3",
                    "midi": 58,
                    "time": 354.0000000000051,
                    "velocity": 0.36220472440944884,
                    "duration": 0.14999999999997726
                },
                {
                    "name": "B2",
                    "midi": 47,
                    "time": 354.1500000000051,
                    "velocity": 0.2992125984251969,
                    "duration": 0.14999999999997726
                },
                {
                    "name": "B3",
                    "midi": 59,
                    "time": 354.1500000000051,
                    "velocity": 0.36220472440944884,
                    "duration": 0.14999999999997726
                },
                {
                    "name": "C3",
                    "midi": 48,
                    "time": 354.30000000000507,
                    "velocity": 0.31496062992125984,
                    "duration": 0.14999999999997726
                },
                {
                    "name": "C4",
                    "midi": 60,
                    "time": 354.30000000000507,
                    "velocity": 0.3858267716535433,
                    "duration": 0.14999999999997726
                },
                {
                    "name": "A2",
                    "midi": 45,
                    "time": 354.600000000005,
                    "velocity": 0.29133858267716534,
                    "duration": 0.14999999999997726
                },
                {
                    "name": "A3",
                    "midi": 57,
                    "time": 354.600000000005,
                    "velocity": 0.36220472440944884,
                    "duration": 0.14999999999997726
                },
                {
                    "name": "A#3",
                    "midi": 58,
                    "time": 354.750000000005,
                    "velocity": 0.36220472440944884,
                    "duration": 0.14999999999997726
                },
                {
                    "name": "A#2",
                    "midi": 46,
                    "time": 354.750000000005,
                    "velocity": 0.29133858267716534,
                    "duration": 0.14999999999997726
                },
                {
                    "name": "B3",
                    "midi": 59,
                    "time": 354.900000000005,
                    "velocity": 0.3779527559055118,
                    "duration": 0.14999999999997726
                },
                {
                    "name": "B2",
                    "midi": 47,
                    "time": 354.900000000005,
                    "velocity": 0.30708661417322836,
                    "duration": 0.14999999999997726
                },
                {
                    "name": "A#2",
                    "midi": 46,
                    "time": 355.20000000000493,
                    "velocity": 0.2992125984251969,
                    "duration": 0.14999999999997726
                },
                {
                    "name": "A#3",
                    "midi": 58,
                    "time": 355.20000000000493,
                    "velocity": 0.36220472440944884,
                    "duration": 0.14999999999997726
                },
                {
                    "name": "B3",
                    "midi": 59,
                    "time": 355.3500000000049,
                    "velocity": 0.3700787401574803,
                    "duration": 0.14999999999997726
                },
                {
                    "name": "B2",
                    "midi": 47,
                    "time": 355.3500000000049,
                    "velocity": 0.2992125984251969,
                    "duration": 0.14999999999997726
                },
                {
                    "name": "C4",
                    "midi": 60,
                    "time": 355.5000000000049,
                    "velocity": 0.3937007874015748,
                    "duration": 0.14999999999997726
                },
                {
                    "name": "C3",
                    "midi": 48,
                    "time": 355.5000000000049,
                    "velocity": 0.33070866141732286,
                    "duration": 0.14999999999997726
                },
                {
                    "name": "B2",
                    "midi": 47,
                    "time": 355.80000000000484,
                    "velocity": 0.31496062992125984,
                    "duration": 0.14999999999997726
                },
                {
                    "name": "B3",
                    "midi": 59,
                    "time": 355.80000000000484,
                    "velocity": 0.3858267716535433,
                    "duration": 0.14999999999997726
                },
                {
                    "name": "C3",
                    "midi": 48,
                    "time": 355.9500000000048,
                    "velocity": 0.33070866141732286,
                    "duration": 0.14999999999997726
                },
                {
                    "name": "C4",
                    "midi": 60,
                    "time": 355.9500000000048,
                    "velocity": 0.3858267716535433,
                    "duration": 0.14999999999997726
                },
                {
                    "name": "C#3",
                    "midi": 49,
                    "time": 356.1000000000048,
                    "velocity": 0.36220472440944884,
                    "duration": 0.14999999999997726
                },
                {
                    "name": "C#4",
                    "midi": 61,
                    "time": 356.1000000000048,
                    "velocity": 0.41732283464566927,
                    "duration": 0.14999999999997726
                },
                {
                    "name": "A#3",
                    "midi": 58,
                    "time": 356.40000000000475,
                    "velocity": 0.4015748031496063,
                    "duration": 0.14999999999997726
                },
                {
                    "name": "A#2",
                    "midi": 46,
                    "time": 356.40000000000475,
                    "velocity": 0.33070866141732286,
                    "duration": 0.14999999999997726
                },
                {
                    "name": "B3",
                    "midi": 59,
                    "time": 356.55000000000473,
                    "velocity": 0.4015748031496063,
                    "duration": 0.14999999999997726
                },
                {
                    "name": "B2",
                    "midi": 47,
                    "time": 356.55000000000473,
                    "velocity": 0.33070866141732286,
                    "duration": 0.14999999999997726
                },
                {
                    "name": "C3",
                    "midi": 48,
                    "time": 356.7000000000047,
                    "velocity": 0.36220472440944884,
                    "duration": 0.14999999999997726
                },
                {
                    "name": "C4",
                    "midi": 60,
                    "time": 356.7000000000047,
                    "velocity": 0.4330708661417323,
                    "duration": 0.14999999999997726
                },
                {
                    "name": "B3",
                    "midi": 59,
                    "time": 357.00000000000466,
                    "velocity": 0.4094488188976378,
                    "duration": 0.14999999999997726
                },
                {
                    "name": "B2",
                    "midi": 47,
                    "time": 357.00000000000466,
                    "velocity": 0.3543307086614173,
                    "duration": 0.14999999999997726
                },
                {
                    "name": "C3",
                    "midi": 48,
                    "time": 357.15000000000464,
                    "velocity": 0.36220472440944884,
                    "duration": 0.14999999999997726
                },
                {
                    "name": "C4",
                    "midi": 60,
                    "time": 357.15000000000464,
                    "velocity": 0.41732283464566927,
                    "duration": 0.14999999999997726
                },
                {
                    "name": "C#4",
                    "midi": 61,
                    "time": 357.3000000000046,
                    "velocity": 0.44881889763779526,
                    "duration": 0.14999999999997726
                },
                {
                    "name": "C#3",
                    "midi": 49,
                    "time": 357.3000000000046,
                    "velocity": 0.3779527559055118,
                    "duration": 0.14999999999997726
                },
                {
                    "name": "C3",
                    "midi": 48,
                    "time": 357.60000000000457,
                    "velocity": 0.36220472440944884,
                    "duration": 0.14999999999997726
                },
                {
                    "name": "C4",
                    "midi": 60,
                    "time": 357.60000000000457,
                    "velocity": 0.4330708661417323,
                    "duration": 0.14999999999997726
                },
                {
                    "name": "C#3",
                    "midi": 49,
                    "time": 357.75000000000455,
                    "velocity": 0.36220472440944884,
                    "duration": 0.14999999999997726
                },
                {
                    "name": "C#4",
                    "midi": 61,
                    "time": 357.75000000000455,
                    "velocity": 0.4330708661417323,
                    "duration": 0.14999999999997726
                },
                {
                    "name": "D2",
                    "midi": 38,
                    "time": 357.9000000000045,
                    "velocity": 0.3858267716535433,
                    "duration": 0.22500000000002274
                },
                {
                    "name": "D3",
                    "midi": 50,
                    "time": 357.9000000000045,
                    "velocity": 0.4566929133858268,
                    "duration": 0.22500000000002274
                },
                {
                    "name": "D4",
                    "midi": 62,
                    "time": 358.12500000000455,
                    "velocity": 0.2283464566929134,
                    "duration": 0.07499999999998863
                },
                {
                    "name": "F3",
                    "midi": 53,
                    "time": 358.12500000000455,
                    "velocity": 0.2283464566929134,
                    "duration": 0.07499999999998863
                },
                {
                    "name": "G#3",
                    "midi": 56,
                    "time": 358.12500000000455,
                    "velocity": 0.2755905511811024,
                    "duration": 0.07499999999998863
                },
                {
                    "name": "A3",
                    "midi": 57,
                    "time": 358.20000000000454,
                    "velocity": 0.33070866141732286,
                    "duration": 0.22500000000002274
                },
                {
                    "name": "F#3",
                    "midi": 54,
                    "time": 358.20000000000454,
                    "velocity": 0.2755905511811024,
                    "duration": 0.22500000000002274
                },
                {
                    "name": "D3",
                    "midi": 50,
                    "time": 358.50000000000455,
                    "velocity": 0.3858267716535433,
                    "duration": 0.22500000000002274
                },
                {
                    "name": "D2",
                    "midi": 38,
                    "time": 358.50000000000455,
                    "velocity": 0.3858267716535433,
                    "duration": 0.22500000000002274
                },
                {
                    "name": "G#3",
                    "midi": 56,
                    "time": 358.72500000000457,
                    "velocity": 0.2755905511811024,
                    "duration": 0.07499999999998863
                },
                {
                    "name": "D4",
                    "midi": 62,
                    "time": 358.72500000000457,
                    "velocity": 0.2283464566929134,
                    "duration": 0.07499999999998863
                },
                {
                    "name": "F3",
                    "midi": 53,
                    "time": 358.72500000000457,
                    "velocity": 0.2283464566929134,
                    "duration": 0.07499999999998863
                },
                {
                    "name": "F#3",
                    "midi": 54,
                    "time": 358.80000000000456,
                    "velocity": 0.2755905511811024,
                    "duration": 0.22500000000002274
                },
                {
                    "name": "A3",
                    "midi": 57,
                    "time": 358.80000000000456,
                    "velocity": 0.33070866141732286,
                    "duration": 0.22500000000002274
                },
                {
                    "name": "D2",
                    "midi": 38,
                    "time": 359.10000000000457,
                    "velocity": 0.3858267716535433,
                    "duration": 0.22500000000002274
                },
                {
                    "name": "D3",
                    "midi": 50,
                    "time": 359.10000000000457,
                    "velocity": 0.4566929133858268,
                    "duration": 0.22500000000002274
                },
                {
                    "name": "A3",
                    "midi": 57,
                    "time": 359.3250000000046,
                    "velocity": 0.2755905511811024,
                    "duration": 0.07499999999998863
                },
                {
                    "name": "F#3",
                    "midi": 54,
                    "time": 359.3250000000046,
                    "velocity": 0.2283464566929134,
                    "duration": 0.07499999999998863
                },
                {
                    "name": "G3",
                    "midi": 55,
                    "time": 359.4000000000046,
                    "velocity": 0.2755905511811024,
                    "duration": 0.22500000000002274
                },
                {
                    "name": "A#3",
                    "midi": 58,
                    "time": 359.4000000000046,
                    "velocity": 0.33070866141732286,
                    "duration": 0.22500000000002274
                },
                {
                    "name": "D3",
                    "midi": 50,
                    "time": 359.7000000000046,
                    "velocity": 0.4566929133858268,
                    "duration": 0.22500000000002274
                },
                {
                    "name": "D2",
                    "midi": 38,
                    "time": 359.7000000000046,
                    "velocity": 0.3858267716535433,
                    "duration": 0.22500000000002274
                },
                {
                    "name": "A3",
                    "midi": 57,
                    "time": 359.9250000000046,
                    "velocity": 0.2755905511811024,
                    "duration": 0.07499999999998863
                },
                {
                    "name": "F#3",
                    "midi": 54,
                    "time": 359.9250000000046,
                    "velocity": 0.2283464566929134,
                    "duration": 0.07499999999998863
                },
                {
                    "name": "G3",
                    "midi": 55,
                    "time": 360.0000000000046,
                    "velocity": 0.2755905511811024,
                    "duration": 0.22500000000002274
                },
                {
                    "name": "A#3",
                    "midi": 58,
                    "time": 360.0000000000046,
                    "velocity": 0.33070866141732286,
                    "duration": 0.22500000000002274
                },
                {
                    "name": "C#3",
                    "midi": 49,
                    "time": 360.3000000000046,
                    "velocity": 0.44881889763779526,
                    "duration": 0.22500000000002274
                },
                {
                    "name": "C#2",
                    "midi": 37,
                    "time": 360.3000000000046,
                    "velocity": 0.3779527559055118,
                    "duration": 0.22500000000002274
                },
                {
                    "name": "D#3",
                    "midi": 51,
                    "time": 360.52500000000464,
                    "velocity": 0.2283464566929134,
                    "duration": 0.07499999999998863
                },
                {
                    "name": "F#3",
                    "midi": 54,
                    "time": 360.52500000000464,
                    "velocity": 0.2755905511811024,
                    "duration": 0.07499999999998863
                },
                {
                    "name": "G3",
                    "midi": 55,
                    "time": 360.6000000000046,
                    "velocity": 0.33070866141732286,
                    "duration": 0.22500000000002274
                },
                {
                    "name": "E3",
                    "midi": 52,
                    "time": 360.6000000000046,
                    "velocity": 0.2755905511811024,
                    "duration": 0.22500000000002274
                },
                {
                    "name": "A1",
                    "midi": 33,
                    "time": 360.90000000000464,
                    "velocity": 0.3700787401574803,
                    "duration": 0.22500000000002274
                },
                {
                    "name": "A2",
                    "midi": 45,
                    "time": 360.90000000000464,
                    "velocity": 0.4409448818897638,
                    "duration": 0.22500000000002274
                },
                {
                    "name": "F#3",
                    "midi": 54,
                    "time": 361.12500000000466,
                    "velocity": 0.2755905511811024,
                    "duration": 0.07499999999998863
                },
                {
                    "name": "D#3",
                    "midi": 51,
                    "time": 361.12500000000466,
                    "velocity": 0.2283464566929134,
                    "duration": 0.07499999999998863
                },
                {
                    "name": "E3",
                    "midi": 52,
                    "time": 361.20000000000465,
                    "velocity": 0.2755905511811024,
                    "duration": 0.22500000000002274
                },
                {
                    "name": "G3",
                    "midi": 55,
                    "time": 361.20000000000465,
                    "velocity": 0.33070866141732286,
                    "duration": 0.22500000000002274
                },
                {
                    "name": "D3",
                    "midi": 50,
                    "time": 361.50000000000466,
                    "velocity": 0.44881889763779526,
                    "duration": 0.22500000000002274
                },
                {
                    "name": "D2",
                    "midi": 38,
                    "time": 361.50000000000466,
                    "velocity": 0.3779527559055118,
                    "duration": 0.22500000000002274
                },
                {
                    "name": "F3",
                    "midi": 53,
                    "time": 361.7250000000047,
                    "velocity": 0.2283464566929134,
                    "duration": 0.07499999999998863
                },
                {
                    "name": "D4",
                    "midi": 62,
                    "time": 361.7250000000047,
                    "velocity": 0.2283464566929134,
                    "duration": 0.07499999999998863
                },
                {
                    "name": "G#3",
                    "midi": 56,
                    "time": 361.7250000000047,
                    "velocity": 0.2755905511811024,
                    "duration": 0.07499999999998863
                },
                {
                    "name": "A3",
                    "midi": 57,
                    "time": 361.8000000000047,
                    "velocity": 0.33070866141732286,
                    "duration": 0.22500000000002274
                },
                {
                    "name": "F#3",
                    "midi": 54,
                    "time": 361.8000000000047,
                    "velocity": 0.2755905511811024,
                    "duration": 0.22500000000002274
                },
                {
                    "name": "D2",
                    "midi": 38,
                    "time": 362.1000000000047,
                    "velocity": 0.36220472440944884,
                    "duration": 0.22500000000002274
                },
                {
                    "name": "D3",
                    "midi": 50,
                    "time": 362.1000000000047,
                    "velocity": 0.4330708661417323,
                    "duration": 0.22500000000002274
                },
                {
                    "name": "G#3",
                    "midi": 56,
                    "time": 362.3250000000047,
                    "velocity": 0.2755905511811024,
                    "duration": 0.07499999999998863
                },
                {
                    "name": "F3",
                    "midi": 53,
                    "time": 362.3250000000047,
                    "velocity": 0.2283464566929134,
                    "duration": 0.07499999999998863
                },
                {
                    "name": "A3",
                    "midi": 57,
                    "time": 362.4000000000047,
                    "velocity": 0.33070866141732286,
                    "duration": 0.22500000000002274
                },
                {
                    "name": "F#3",
                    "midi": 54,
                    "time": 362.4000000000047,
                    "velocity": 0.2755905511811024,
                    "duration": 0.22500000000002274
                },
                {
                    "name": "C#2",
                    "midi": 37,
                    "time": 362.7000000000047,
                    "velocity": 0.3858267716535433,
                    "duration": 0.22500000000002274
                },
                {
                    "name": "C#3",
                    "midi": 49,
                    "time": 362.7000000000047,
                    "velocity": 0.4566929133858268,
                    "duration": 0.22500000000002274
                },
                {
                    "name": "C#4",
                    "midi": 61,
                    "time": 362.92500000000473,
                    "velocity": 0.2283464566929134,
                    "duration": 0.07499999999998863
                },
                {
                    "name": "G3",
                    "midi": 55,
                    "time": 362.92500000000473,
                    "velocity": 0.2755905511811024,
                    "duration": 0.07499999999998863
                },
                {
                    "name": "E3",
                    "midi": 52,
                    "time": 362.92500000000473,
                    "velocity": 0.2283464566929134,
                    "duration": 0.07499999999998863
                },
                {
                    "name": "F3",
                    "midi": 53,
                    "time": 363.0000000000047,
                    "velocity": 0.2755905511811024,
                    "duration": 0.22500000000002274
                },
                {
                    "name": "G#3",
                    "midi": 56,
                    "time": 363.0000000000047,
                    "velocity": 0.33070866141732286,
                    "duration": 0.22500000000002274
                },
                {
                    "name": "F2",
                    "midi": 41,
                    "time": 363.30000000000473,
                    "velocity": 0.3858267716535433,
                    "duration": 0.22500000000002274
                },
                {
                    "name": "F3",
                    "midi": 53,
                    "time": 363.30000000000473,
                    "velocity": 0.3858267716535433,
                    "duration": 0.22500000000002274
                },
                {
                    "name": "C#4",
                    "midi": 61,
                    "time": 363.52500000000475,
                    "velocity": 0.2283464566929134,
                    "duration": 0.07499999999998863
                },
                {
                    "name": "G3",
                    "midi": 55,
                    "time": 363.52500000000475,
                    "velocity": 0.2755905511811024,
                    "duration": 0.07499999999998863
                },
                {
                    "name": "G#3",
                    "midi": 56,
                    "time": 363.60000000000474,
                    "velocity": 0.33070866141732286,
                    "duration": 0.22500000000002274
                },
                {
                    "name": "F#3",
                    "midi": 54,
                    "time": 363.90000000000475,
                    "velocity": 0.4566929133858268,
                    "duration": 0.22500000000002274
                },
                {
                    "name": "F#2",
                    "midi": 42,
                    "time": 363.90000000000475,
                    "velocity": 0.3858267716535433,
                    "duration": 0.22500000000002274
                },
                {
                    "name": "G#3",
                    "midi": 56,
                    "time": 364.1250000000048,
                    "velocity": 0.2283464566929134,
                    "duration": 0.07499999999998863
                },
                {
                    "name": "C#4",
                    "midi": 61,
                    "time": 364.1250000000048,
                    "velocity": 0.2755905511811024,
                    "duration": 0.07499999999998863
                },
                {
                    "name": "A3",
                    "midi": 57,
                    "time": 364.20000000000476,
                    "velocity": 0.33070866141732286,
                    "duration": 0.22500000000002274
                },
                {
                    "name": "A3",
                    "midi": 57,
                    "time": 364.5000000000048,
                    "velocity": 0.4566929133858268,
                    "duration": 0.22500000000002274
                },
                {
                    "name": "A2",
                    "midi": 45,
                    "time": 364.5000000000048,
                    "velocity": 0.3858267716535433,
                    "duration": 0.22500000000002274
                },
                {
                    "name": "C#4",
                    "midi": 61,
                    "time": 364.7250000000048,
                    "velocity": 0.2755905511811024,
                    "duration": 0.07499999999998863
                },
                {
                    "name": "G#3",
                    "midi": 56,
                    "time": 364.7250000000048,
                    "velocity": 0.2283464566929134,
                    "duration": 0.07499999999998863
                },
                {
                    "name": "A3",
                    "midi": 57,
                    "time": 364.8000000000048,
                    "velocity": 0.33070866141732286,
                    "duration": 0.22500000000002274
                },
                {
                    "name": "E2",
                    "midi": 40,
                    "time": 365.1000000000048,
                    "velocity": 0.3858267716535433,
                    "duration": 0.22500000000002274
                },
                {
                    "name": "E3",
                    "midi": 52,
                    "time": 365.1000000000048,
                    "velocity": 0.4566929133858268,
                    "duration": 0.22500000000002274
                },
                {
                    "name": "E4",
                    "midi": 64,
                    "time": 365.3250000000048,
                    "velocity": 0.2283464566929134,
                    "duration": 0.07499999999998863
                },
                {
                    "name": "G3",
                    "midi": 55,
                    "time": 365.3250000000048,
                    "velocity": 0.2283464566929134,
                    "duration": 0.07499999999998863
                },
                {
                    "name": "A#3",
                    "midi": 58,
                    "time": 365.3250000000048,
                    "velocity": 0.2755905511811024,
                    "duration": 0.07499999999998863
                },
                {
                    "name": "B3",
                    "midi": 59,
                    "time": 365.4000000000048,
                    "velocity": 0.33070866141732286,
                    "duration": 0.22500000000002274
                },
                {
                    "name": "G#3",
                    "midi": 56,
                    "time": 365.4000000000048,
                    "velocity": 0.2755905511811024,
                    "duration": 0.22500000000002274
                },
                {
                    "name": "G#2",
                    "midi": 44,
                    "time": 365.7000000000048,
                    "velocity": 0.3858267716535433,
                    "duration": 0.22500000000002274
                },
                {
                    "name": "G#3",
                    "midi": 56,
                    "time": 365.7000000000048,
                    "velocity": 0.3858267716535433,
                    "duration": 0.22500000000002274
                },
                {
                    "name": "A#3",
                    "midi": 58,
                    "time": 365.92500000000484,
                    "velocity": 0.2755905511811024,
                    "duration": 0.07499999999998863
                },
                {
                    "name": "E4",
                    "midi": 64,
                    "time": 365.92500000000484,
                    "velocity": 0.2283464566929134,
                    "duration": 0.07499999999998863
                },
                {
                    "name": "B3",
                    "midi": 59,
                    "time": 366.00000000000483,
                    "velocity": 0.33070866141732286,
                    "duration": 0.22500000000002274
                },
                {
                    "name": "A3",
                    "midi": 57,
                    "time": 366.30000000000484,
                    "velocity": 0.4566929133858268,
                    "duration": 0.22500000000002274
                },
                {
                    "name": "A2",
                    "midi": 45,
                    "time": 366.30000000000484,
                    "velocity": 0.3858267716535433,
                    "duration": 0.22500000000002274
                },
                {
                    "name": "E4",
                    "midi": 64,
                    "time": 366.52500000000487,
                    "velocity": 0.2755905511811024,
                    "duration": 0.07499999999998863
                },
                {
                    "name": "C4",
                    "midi": 60,
                    "time": 366.52500000000487,
                    "velocity": 0.2283464566929134,
                    "duration": 0.07499999999998863
                },
                {
                    "name": "C#4",
                    "midi": 61,
                    "time": 366.60000000000485,
                    "velocity": 0.33070866141732286,
                    "duration": 0.22500000000002274
                },
                {
                    "name": "C#4",
                    "midi": 61,
                    "time": 366.90000000000487,
                    "velocity": 0.4566929133858268,
                    "duration": 0.22500000000002274
                },
                {
                    "name": "C#3",
                    "midi": 49,
                    "time": 366.90000000000487,
                    "velocity": 0.3858267716535433,
                    "duration": 0.22500000000002274
                },
                {
                    "name": "E4",
                    "midi": 64,
                    "time": 367.1250000000049,
                    "velocity": 0.2755905511811024,
                    "duration": 0.07499999999998863
                },
                {
                    "name": "C4",
                    "midi": 60,
                    "time": 367.1250000000049,
                    "velocity": 0.2283464566929134,
                    "duration": 0.07499999999998863
                },
                {
                    "name": "C#4",
                    "midi": 61,
                    "time": 367.2000000000049,
                    "velocity": 0.33070866141732286,
                    "duration": 0.2249999999999659
                },
                {
                    "name": "A3",
                    "midi": 57,
                    "time": 367.35000000000485,
                    "velocity": 0.4251968503937008,
                    "duration": 0.14999999999997726
                },
                {
                    "name": "A2",
                    "midi": 45,
                    "time": 367.35000000000485,
                    "velocity": 0.33070866141732286,
                    "duration": 0.14999999999997726
                },
                {
                    "name": "A3",
                    "midi": 57,
                    "time": 367.50000000000483,
                    "velocity": 0.36220472440944884,
                    "duration": 0.22500000000002274
                },
                {
                    "name": "D#3",
                    "midi": 51,
                    "time": 367.50000000000483,
                    "velocity": 0.30708661417322836,
                    "duration": 0.22500000000002274
                },
                {
                    "name": "A2",
                    "midi": 45,
                    "time": 367.50000000000483,
                    "velocity": 0.30708661417322836,
                    "duration": 0.22500000000002274
                },
                {
                    "name": "F4",
                    "midi": 65,
                    "time": 367.72500000000485,
                    "velocity": 0.2204724409448819,
                    "duration": 0.07499999999998863
                },
                {
                    "name": "D4",
                    "midi": 62,
                    "time": 367.72500000000485,
                    "velocity": 0.18110236220472442,
                    "duration": 0.07499999999998863
                },
                {
                    "name": "F#4",
                    "midi": 66,
                    "time": 367.80000000000484,
                    "velocity": 0.25984251968503935,
                    "duration": 0.22500000000002274
                },
                {
                    "name": "D#4",
                    "midi": 63,
                    "time": 367.80000000000484,
                    "velocity": 0.2204724409448819,
                    "duration": 0.22500000000002274
                },
                {
                    "name": "D#3",
                    "midi": 51,
                    "time": 368.10000000000485,
                    "velocity": 0.30708661417322836,
                    "duration": 0.22500000000002274
                },
                {
                    "name": "A3",
                    "midi": 57,
                    "time": 368.10000000000485,
                    "velocity": 0.30708661417322836,
                    "duration": 0.22500000000002274
                },
                {
                    "name": "A2",
                    "midi": 45,
                    "time": 368.10000000000485,
                    "velocity": 0.30708661417322836,
                    "duration": 0.22500000000002274
                },
                {
                    "name": "F4",
                    "midi": 65,
                    "time": 368.3250000000049,
                    "velocity": 0.18110236220472442,
                    "duration": 0.07499999999998863
                },
                {
                    "name": "D4",
                    "midi": 62,
                    "time": 368.3250000000049,
                    "velocity": 0.2204724409448819,
                    "duration": 0.07499999999998863
                },
                {
                    "name": "F#4",
                    "midi": 66,
                    "time": 368.40000000000487,
                    "velocity": 0.25984251968503935,
                    "duration": 0.2249999999999659
                },
                {
                    "name": "D#4",
                    "midi": 63,
                    "time": 368.40000000000487,
                    "velocity": 0.2204724409448819,
                    "duration": 0.2249999999999659
                },
                {
                    "name": "A3",
                    "midi": 57,
                    "time": 368.55000000000484,
                    "velocity": 0.31496062992125984,
                    "duration": 0.14999999999997726
                },
                {
                    "name": "D#3",
                    "midi": 51,
                    "time": 368.55000000000484,
                    "velocity": 0.2755905511811024,
                    "duration": 0.14999999999997726
                },
                {
                    "name": "A2",
                    "midi": 45,
                    "time": 368.55000000000484,
                    "velocity": 0.2755905511811024,
                    "duration": 0.14999999999997726
                },
                {
                    "name": "A2",
                    "midi": 45,
                    "time": 368.7000000000048,
                    "velocity": 0.30708661417322836,
                    "duration": 0.22500000000002274
                },
                {
                    "name": "E3",
                    "midi": 52,
                    "time": 368.7000000000048,
                    "velocity": 0.30708661417322836,
                    "duration": 0.22500000000002274
                },
                {
                    "name": "A3",
                    "midi": 57,
                    "time": 368.7000000000048,
                    "velocity": 0.36220472440944884,
                    "duration": 0.22500000000002274
                },
                {
                    "name": "D#4",
                    "midi": 63,
                    "time": 368.92500000000484,
                    "velocity": 0.2204724409448819,
                    "duration": 0.07499999999998863
                },
                {
                    "name": "C4",
                    "midi": 60,
                    "time": 368.92500000000484,
                    "velocity": 0.18110236220472442,
                    "duration": 0.07499999999998863
                },
                {
                    "name": "E4",
                    "midi": 64,
                    "time": 369.00000000000483,
                    "velocity": 0.25984251968503935,
                    "duration": 0.22500000000002274
                },
                {
                    "name": "C#4",
                    "midi": 61,
                    "time": 369.00000000000483,
                    "velocity": 0.2204724409448819,
                    "duration": 0.22500000000002274
                },
                {
                    "name": "A2",
                    "midi": 45,
                    "time": 369.30000000000484,
                    "velocity": 0.30708661417322836,
                    "duration": 0.22500000000002274
                },
                {
                    "name": "C#3",
                    "midi": 49,
                    "time": 369.30000000000484,
                    "velocity": 0.30708661417322836,
                    "duration": 0.22500000000002274
                },
                {
                    "name": "A3",
                    "midi": 57,
                    "time": 369.30000000000484,
                    "velocity": 0.36220472440944884,
                    "duration": 0.22500000000002274
                },
                {
                    "name": "D#4",
                    "midi": 63,
                    "time": 369.52500000000487,
                    "velocity": 0.2204724409448819,
                    "duration": 0.07499999999998863
                },
                {
                    "name": "C4",
                    "midi": 60,
                    "time": 369.52500000000487,
                    "velocity": 0.18110236220472442,
                    "duration": 0.07499999999998863
                },
                {
                    "name": "E4",
                    "midi": 64,
                    "time": 369.60000000000485,
                    "velocity": 0.25984251968503935,
                    "duration": 0.22500000000002274
                },
                {
                    "name": "C#4",
                    "midi": 61,
                    "time": 369.60000000000485,
                    "velocity": 0.2204724409448819,
                    "duration": 0.22500000000002274
                },
                {
                    "name": "A2",
                    "midi": 45,
                    "time": 369.90000000000487,
                    "velocity": 0.31496062992125984,
                    "duration": 0.22500000000002274
                },
                {
                    "name": "D#3",
                    "midi": 51,
                    "time": 369.90000000000487,
                    "velocity": 0.31496062992125984,
                    "duration": 0.22500000000002274
                },
                {
                    "name": "A3",
                    "midi": 57,
                    "time": 369.90000000000487,
                    "velocity": 0.3779527559055118,
                    "duration": 0.22500000000002274
                },
                {
                    "name": "D4",
                    "midi": 62,
                    "time": 370.1250000000049,
                    "velocity": 0.1889763779527559,
                    "duration": 0.07499999999998863
                },
                {
                    "name": "F4",
                    "midi": 65,
                    "time": 370.1250000000049,
                    "velocity": 0.2283464566929134,
                    "duration": 0.07499999999998863
                },
                {
                    "name": "F#4",
                    "midi": 66,
                    "time": 370.2000000000049,
                    "velocity": 0.2677165354330709,
                    "duration": 0.22500000000002274
                },
                {
                    "name": "D#4",
                    "midi": 63,
                    "time": 370.2000000000049,
                    "velocity": 0.2283464566929134,
                    "duration": 0.22500000000002274
                },
                {
                    "name": "A2",
                    "midi": 45,
                    "time": 370.5000000000049,
                    "velocity": 0.31496062992125984,
                    "duration": 0.22500000000002274
                },
                {
                    "name": "D#3",
                    "midi": 51,
                    "time": 370.5000000000049,
                    "velocity": 0.31496062992125984,
                    "duration": 0.22500000000002274
                },
                {
                    "name": "A3",
                    "midi": 57,
                    "time": 370.5000000000049,
                    "velocity": 0.31496062992125984,
                    "duration": 0.22500000000002274
                },
                {
                    "name": "F4",
                    "midi": 65,
                    "time": 370.7250000000049,
                    "velocity": 0.1889763779527559,
                    "duration": 0.07499999999998863
                },
                {
                    "name": "D4",
                    "midi": 62,
                    "time": 370.7250000000049,
                    "velocity": 0.2283464566929134,
                    "duration": 0.07499999999998863
                },
                {
                    "name": "F#4",
                    "midi": 66,
                    "time": 370.8000000000049,
                    "velocity": 0.2677165354330709,
                    "duration": 0.2249999999999659
                },
                {
                    "name": "D#4",
                    "midi": 63,
                    "time": 370.8000000000049,
                    "velocity": 0.2283464566929134,
                    "duration": 0.2249999999999659
                },
                {
                    "name": "A2",
                    "midi": 45,
                    "time": 370.9500000000049,
                    "velocity": 0.28346456692913385,
                    "duration": 0.14999999999997726
                },
                {
                    "name": "D#3",
                    "midi": 51,
                    "time": 370.9500000000049,
                    "velocity": 0.28346456692913385,
                    "duration": 0.14999999999997726
                },
                {
                    "name": "A3",
                    "midi": 57,
                    "time": 370.9500000000049,
                    "velocity": 0.33070866141732286,
                    "duration": 0.14999999999997726
                },
                {
                    "name": "A#2",
                    "midi": 46,
                    "time": 371.10000000000485,
                    "velocity": 0.31496062992125984,
                    "duration": 0.22500000000002274
                },
                {
                    "name": "F3",
                    "midi": 53,
                    "time": 371.10000000000485,
                    "velocity": 0.31496062992125984,
                    "duration": 0.22500000000002274
                },
                {
                    "name": "A#3",
                    "midi": 58,
                    "time": 371.10000000000485,
                    "velocity": 0.3779527559055118,
                    "duration": 0.22500000000002274
                },
                {
                    "name": "C#4",
                    "midi": 61,
                    "time": 371.3250000000049,
                    "velocity": 0.1889763779527559,
                    "duration": 0.07499999999998863
                },
                {
                    "name": "E4",
                    "midi": 64,
                    "time": 371.3250000000049,
                    "velocity": 0.2283464566929134,
                    "duration": 0.07499999999998863
                },
                {
                    "name": "F4",
                    "midi": 65,
                    "time": 371.40000000000487,
                    "velocity": 0.2677165354330709,
                    "duration": 0.22500000000002274
                },
                {
                    "name": "D4",
                    "midi": 62,
                    "time": 371.40000000000487,
                    "velocity": 0.2283464566929134,
                    "duration": 0.22500000000002274
                },
                {
                    "name": "A#3",
                    "midi": 58,
                    "time": 371.7000000000049,
                    "velocity": 0.3779527559055118,
                    "duration": 0.22500000000002274
                },
                {
                    "name": "D3",
                    "midi": 50,
                    "time": 371.7000000000049,
                    "velocity": 0.31496062992125984,
                    "duration": 0.22500000000002274
                },
                {
                    "name": "A#2",
                    "midi": 46,
                    "time": 371.7000000000049,
                    "velocity": 0.31496062992125984,
                    "duration": 0.22500000000002274
                },
                {
                    "name": "C#4",
                    "midi": 61,
                    "time": 371.9250000000049,
                    "velocity": 0.1889763779527559,
                    "duration": 0.07499999999998863
                },
                {
                    "name": "E4",
                    "midi": 64,
                    "time": 371.9250000000049,
                    "velocity": 0.2283464566929134,
                    "duration": 0.07499999999998863
                },
                {
                    "name": "D4",
                    "midi": 62,
                    "time": 372.0000000000049,
                    "velocity": 0.2283464566929134,
                    "duration": 0.22500000000002274
                },
                {
                    "name": "F4",
                    "midi": 65,
                    "time": 372.0000000000049,
                    "velocity": 0.2677165354330709,
                    "duration": 0.22500000000002274
                },
                {
                    "name": "E3",
                    "midi": 52,
                    "time": 372.3000000000049,
                    "velocity": 0.33070866141732286,
                    "duration": 0.22500000000002274
                },
                {
                    "name": "A#3",
                    "midi": 58,
                    "time": 372.3000000000049,
                    "velocity": 0.3937007874015748,
                    "duration": 0.22500000000002274
                },
                {
                    "name": "A#2",
                    "midi": 46,
                    "time": 372.3000000000049,
                    "velocity": 0.33070866141732286,
                    "duration": 0.22500000000002274
                },
                {
                    "name": "D#4",
                    "midi": 63,
                    "time": 372.5250000000049,
                    "velocity": 0.1968503937007874,
                    "duration": 0.07499999999998863
                },
                {
                    "name": "F#4",
                    "midi": 66,
                    "time": 372.5250000000049,
                    "velocity": 0.23622047244094488,
                    "duration": 0.07499999999998863
                },
                {
                    "name": "G4",
                    "midi": 67,
                    "time": 372.6000000000049,
                    "velocity": 0.28346456692913385,
                    "duration": 0.22500000000002274
                },
                {
                    "name": "E4",
                    "midi": 64,
                    "time": 372.6000000000049,
                    "velocity": 0.23622047244094488,
                    "duration": 0.22500000000002274
                },
                {
                    "name": "E3",
                    "midi": 52,
                    "time": 372.9000000000049,
                    "velocity": 0.33858267716535434,
                    "duration": 0.22500000000002274
                },
                {
                    "name": "A#3",
                    "midi": 58,
                    "time": 372.9000000000049,
                    "velocity": 0.33858267716535434,
                    "duration": 0.22500000000002274
                },
                {
                    "name": "A#2",
                    "midi": 46,
                    "time": 372.9000000000049,
                    "velocity": 0.33858267716535434,
                    "duration": 0.22500000000002274
                },
                {
                    "name": "F#4",
                    "midi": 66,
                    "time": 373.12500000000495,
                    "velocity": 0.2047244094488189,
                    "duration": 0.07499999999998863
                },
                {
                    "name": "D#4",
                    "midi": 63,
                    "time": 373.12500000000495,
                    "velocity": 0.2440944881889764,
                    "duration": 0.07499999999998863
                },
                {
                    "name": "E4",
                    "midi": 64,
                    "time": 373.20000000000493,
                    "velocity": 0.2440944881889764,
                    "duration": 0.2249999999999659
                },
                {
                    "name": "G4",
                    "midi": 67,
                    "time": 373.20000000000493,
                    "velocity": 0.29133858267716534,
                    "duration": 0.2249999999999659
                },
                {
                    "name": "A#2",
                    "midi": 46,
                    "time": 373.3500000000049,
                    "velocity": 0.30708661417322836,
                    "duration": 0.14999999999997726
                },
                {
                    "name": "A#3",
                    "midi": 58,
                    "time": 373.3500000000049,
                    "velocity": 0.36220472440944884,
                    "duration": 0.14999999999997726
                },
                {
                    "name": "E3",
                    "midi": 52,
                    "time": 373.3500000000049,
                    "velocity": 0.30708661417322836,
                    "duration": 0.14999999999997726
                },
                {
                    "name": "B3",
                    "midi": 59,
                    "time": 373.5000000000049,
                    "velocity": 0.41732283464566927,
                    "duration": 0.22500000000002274
                },
                {
                    "name": "B2",
                    "midi": 47,
                    "time": 373.5000000000049,
                    "velocity": 0.3464566929133858,
                    "duration": 0.22500000000002274
                },
                {
                    "name": "F#3",
                    "midi": 54,
                    "time": 373.5000000000049,
                    "velocity": 0.3464566929133858,
                    "duration": 0.22500000000002274
                },
                {
                    "name": "D4",
                    "midi": 62,
                    "time": 373.7250000000049,
                    "velocity": 0.2047244094488189,
                    "duration": 0.07499999999998863
                },
                {
                    "name": "F4",
                    "midi": 65,
                    "time": 373.7250000000049,
                    "velocity": 0.25196850393700787,
                    "duration": 0.07499999999998863
                },
                {
                    "name": "D#4",
                    "midi": 63,
                    "time": 373.8000000000049,
                    "velocity": 0.25196850393700787,
                    "duration": 0.22500000000002274
                },
                {
                    "name": "F#4",
                    "midi": 66,
                    "time": 373.8000000000049,
                    "velocity": 0.2992125984251969,
                    "duration": 0.22500000000002274
                },
                {
                    "name": "B3",
                    "midi": 59,
                    "time": 374.1000000000049,
                    "velocity": 0.36220472440944884,
                    "duration": 0.22500000000002274
                },
                {
                    "name": "B2",
                    "midi": 47,
                    "time": 374.1000000000049,
                    "velocity": 0.36220472440944884,
                    "duration": 0.22500000000002274
                },
                {
                    "name": "E4",
                    "midi": 64,
                    "time": 374.32500000000493,
                    "velocity": 0.25984251968503935,
                    "duration": 0.07499999999998863
                },
                {
                    "name": "G4",
                    "midi": 67,
                    "time": 374.32500000000493,
                    "velocity": 0.2125984251968504,
                    "duration": 0.07499999999998863
                },
                {
                    "name": "F4",
                    "midi": 65,
                    "time": 374.4000000000049,
                    "velocity": 0.25984251968503935,
                    "duration": 0.2249999999999659
                },
                {
                    "name": "G#4",
                    "midi": 68,
                    "time": 374.4000000000049,
                    "velocity": 0.30708661417322836,
                    "duration": 0.2249999999999659
                },
                {
                    "name": "B3",
                    "midi": 59,
                    "time": 374.5500000000049,
                    "velocity": 0.3858267716535433,
                    "duration": 0.14999999999997726
                },
                {
                    "name": "B2",
                    "midi": 47,
                    "time": 374.5500000000049,
                    "velocity": 0.33070866141732286,
                    "duration": 0.14999999999997726
                },
                {
                    "name": "C3",
                    "midi": 48,
                    "time": 374.7000000000049,
                    "velocity": 0.3700787401574803,
                    "duration": 0.22500000000002274
                },
                {
                    "name": "C4",
                    "midi": 60,
                    "time": 374.7000000000049,
                    "velocity": 0.4409448818897638,
                    "duration": 0.22500000000002274
                },
                {
                    "name": "D#4",
                    "midi": 63,
                    "time": 374.9250000000049,
                    "velocity": 0.2204724409448819,
                    "duration": 0.07499999999998863
                },
                {
                    "name": "F#4",
                    "midi": 66,
                    "time": 374.9250000000049,
                    "velocity": 0.2677165354330709,
                    "duration": 0.07499999999998863
                },
                {
                    "name": "G4",
                    "midi": 67,
                    "time": 375.0000000000049,
                    "velocity": 0.31496062992125984,
                    "duration": 0.22500000000002274
                },
                {
                    "name": "E4",
                    "midi": 64,
                    "time": 375.0000000000049,
                    "velocity": 0.2677165354330709,
                    "duration": 0.22500000000002274
                },
                {
                    "name": "C#4",
                    "midi": 61,
                    "time": 375.3000000000049,
                    "velocity": 0.3779527559055118,
                    "duration": 0.22500000000002274
                },
                {
                    "name": "C#3",
                    "midi": 49,
                    "time": 375.3000000000049,
                    "velocity": 0.3779527559055118,
                    "duration": 0.22500000000002274
                },
                {
                    "name": "A4",
                    "midi": 69,
                    "time": 375.5250000000049,
                    "velocity": 0.2283464566929134,
                    "duration": 0.07499999999998863
                },
                {
                    "name": "F#4",
                    "midi": 66,
                    "time": 375.5250000000049,
                    "velocity": 0.2755905511811024,
                    "duration": 0.07499999999998863
                },
                {
                    "name": "A#4",
                    "midi": 70,
                    "time": 375.6000000000049,
                    "velocity": 0.3228346456692913,
                    "duration": 0.2249999999999659
                },
                {
                    "name": "G4",
                    "midi": 67,
                    "time": 375.6000000000049,
                    "velocity": 0.2755905511811024,
                    "duration": 0.2249999999999659
                },
                {
                    "name": "C#3",
                    "midi": 49,
                    "time": 375.7500000000049,
                    "velocity": 0.3464566929133858,
                    "duration": 0.14999999999997726
                },
                {
                    "name": "C#4",
                    "midi": 61,
                    "time": 375.7500000000049,
                    "velocity": 0.4094488188976378,
                    "duration": 0.14999999999997726
                },
                {
                    "name": "D4",
                    "midi": 62,
                    "time": 375.90000000000487,
                    "velocity": 0.4645669291338583,
                    "duration": 0.22500000000002274
                },
                {
                    "name": "D3",
                    "midi": 50,
                    "time": 375.90000000000487,
                    "velocity": 0.3937007874015748,
                    "duration": 0.22500000000002274
                },
                {
                    "name": "G#4",
                    "midi": 68,
                    "time": 376.1250000000049,
                    "velocity": 0.2992125984251969,
                    "duration": 0.07499999999998863
                },
                {
                    "name": "E4",
                    "midi": 64,
                    "time": 376.1250000000049,
                    "velocity": 0.25196850393700787,
                    "duration": 0.07499999999998863
                },
                {
                    "name": "A4",
                    "midi": 69,
                    "time": 376.2000000000049,
                    "velocity": 0.3543307086614173,
                    "duration": 0.22500000000002274
                },
                {
                    "name": "F4",
                    "midi": 65,
                    "time": 376.2000000000049,
                    "velocity": 0.2992125984251969,
                    "duration": 0.22500000000002274
                },
                {
                    "name": "A3",
                    "midi": 57,
                    "time": 376.5000000000049,
                    "velocity": 0.41732283464566927,
                    "duration": 0.22500000000002274
                },
                {
                    "name": "A2",
                    "midi": 45,
                    "time": 376.5000000000049,
                    "velocity": 0.3543307086614173,
                    "duration": 0.22500000000002274
                },
                {
                    "name": "C#4",
                    "midi": 61,
                    "time": 376.7250000000049,
                    "velocity": 0.25984251968503935,
                    "duration": 0.07499999999998863
                },
                {
                    "name": "E4",
                    "midi": 64,
                    "time": 376.7250000000049,
                    "velocity": 0.30708661417322836,
                    "duration": 0.07499999999998863
                },
                {
                    "name": "D4",
                    "midi": 62,
                    "time": 376.8000000000049,
                    "velocity": 0.30708661417322836,
                    "duration": 0.22500000000002274
                },
                {
                    "name": "F4",
                    "midi": 65,
                    "time": 376.8000000000049,
                    "velocity": 0.3700787401574803,
                    "duration": 0.22500000000002274
                },
                {
                    "name": "F3",
                    "midi": 53,
                    "time": 377.1000000000049,
                    "velocity": 0.4645669291338583,
                    "duration": 0.22500000000002274
                },
                {
                    "name": "F2",
                    "midi": 41,
                    "time": 377.1000000000049,
                    "velocity": 0.3937007874015748,
                    "duration": 0.22500000000002274
                },
                {
                    "name": "C#4",
                    "midi": 61,
                    "time": 377.32500000000493,
                    "velocity": 0.2992125984251969,
                    "duration": 0.07499999999998863
                },
                {
                    "name": "G#3",
                    "midi": 56,
                    "time": 377.32500000000493,
                    "velocity": 0.25196850393700787,
                    "duration": 0.07499999999998863
                },
                {
                    "name": "A3",
                    "midi": 57,
                    "time": 377.4000000000049,
                    "velocity": 0.2992125984251969,
                    "duration": 0.22500000000002274
                },
                {
                    "name": "D4",
                    "midi": 62,
                    "time": 377.4000000000049,
                    "velocity": 0.3543307086614173,
                    "duration": 0.22500000000002274
                },
                {
                    "name": "D2",
                    "midi": 38,
                    "time": 377.70000000000493,
                    "velocity": 0.3543307086614173,
                    "duration": 0.22500000000002274
                },
                {
                    "name": "D3",
                    "midi": 50,
                    "time": 377.70000000000493,
                    "velocity": 0.41732283464566927,
                    "duration": 0.22500000000002274
                },
                {
                    "name": "E3",
                    "midi": 52,
                    "time": 377.92500000000496,
                    "velocity": 0.25984251968503935,
                    "duration": 0.07499999999998863
                },
                {
                    "name": "G#3",
                    "midi": 56,
                    "time": 377.92500000000496,
                    "velocity": 0.30708661417322836,
                    "duration": 0.07499999999998863
                },
                {
                    "name": "F3",
                    "midi": 53,
                    "time": 378.00000000000495,
                    "velocity": 0.30708661417322836,
                    "duration": 0.22500000000002274
                },
                {
                    "name": "A3",
                    "midi": 57,
                    "time": 378.00000000000495,
                    "velocity": 0.3700787401574803,
                    "duration": 0.22500000000002274
                },
                {
                    "name": "A#2",
                    "midi": 46,
                    "time": 378.30000000000496,
                    "velocity": 0.3937007874015748,
                    "duration": 0.22500000000002274
                },
                {
                    "name": "A#3",
                    "midi": 58,
                    "time": 378.30000000000496,
                    "velocity": 0.4645669291338583,
                    "duration": 0.22500000000002274
                },
                {
                    "name": "E4",
                    "midi": 64,
                    "time": 378.525000000005,
                    "velocity": 0.2992125984251969,
                    "duration": 0.07499999999998863
                },
                {
                    "name": "C#4",
                    "midi": 61,
                    "time": 378.525000000005,
                    "velocity": 0.25196850393700787,
                    "duration": 0.07499999999998863
                },
                {
                    "name": "F4",
                    "midi": 65,
                    "time": 378.60000000000497,
                    "velocity": 0.3543307086614173,
                    "duration": 0.22500000000002274
                },
                {
                    "name": "D4",
                    "midi": 62,
                    "time": 378.60000000000497,
                    "velocity": 0.2992125984251969,
                    "duration": 0.22500000000002274
                },
                {
                    "name": "F3",
                    "midi": 53,
                    "time": 378.900000000005,
                    "velocity": 0.41732283464566927,
                    "duration": 0.22500000000002274
                },
                {
                    "name": "F2",
                    "midi": 41,
                    "time": 378.900000000005,
                    "velocity": 0.3543307086614173,
                    "duration": 0.22500000000002274
                },
                {
                    "name": "A3",
                    "midi": 57,
                    "time": 379.125000000005,
                    "velocity": 0.25984251968503935,
                    "duration": 0.07499999999998863
                },
                {
                    "name": "C#4",
                    "midi": 61,
                    "time": 379.125000000005,
                    "velocity": 0.30708661417322836,
                    "duration": 0.07499999999998863
                },
                {
                    "name": "D4",
                    "midi": 62,
                    "time": 379.200000000005,
                    "velocity": 0.3700787401574803,
                    "duration": 0.22500000000002274
                },
                {
                    "name": "A#3",
                    "midi": 58,
                    "time": 379.200000000005,
                    "velocity": 0.30708661417322836,
                    "duration": 0.22500000000002274
                },
                {
                    "name": "D3",
                    "midi": 50,
                    "time": 379.500000000005,
                    "velocity": 0.4645669291338583,
                    "duration": 0.22500000000002274
                },
                {
                    "name": "D2",
                    "midi": 38,
                    "time": 379.500000000005,
                    "velocity": 0.3937007874015748,
                    "duration": 0.22500000000002274
                },
                {
                    "name": "A3",
                    "midi": 57,
                    "time": 379.725000000005,
                    "velocity": 0.2992125984251969,
                    "duration": 0.07499999999998863
                },
                {
                    "name": "E3",
                    "midi": 52,
                    "time": 379.725000000005,
                    "velocity": 0.25196850393700787,
                    "duration": 0.07499999999998863
                },
                {
                    "name": "F3",
                    "midi": 53,
                    "time": 379.800000000005,
                    "velocity": 0.2992125984251969,
                    "duration": 0.22500000000002274
                },
                {
                    "name": "A#3",
                    "midi": 58,
                    "time": 379.800000000005,
                    "velocity": 0.3543307086614173,
                    "duration": 0.22500000000002274
                },
                {
                    "name": "A#1",
                    "midi": 34,
                    "time": 380.100000000005,
                    "velocity": 0.3543307086614173,
                    "duration": 0.22500000000002274
                },
                {
                    "name": "A#2",
                    "midi": 46,
                    "time": 380.100000000005,
                    "velocity": 0.41732283464566927,
                    "duration": 0.22500000000002274
                },
                {
                    "name": "C#3",
                    "midi": 49,
                    "time": 380.32500000000505,
                    "velocity": 0.25984251968503935,
                    "duration": 0.07499999999998863
                },
                {
                    "name": "E3",
                    "midi": 52,
                    "time": 380.32500000000505,
                    "velocity": 0.30708661417322836,
                    "duration": 0.07499999999998863
                },
                {
                    "name": "D3",
                    "midi": 50,
                    "time": 380.40000000000504,
                    "velocity": 0.30708661417322836,
                    "duration": 0.22500000000002274
                },
                {
                    "name": "F3",
                    "midi": 53,
                    "time": 380.40000000000504,
                    "velocity": 0.3700787401574803,
                    "duration": 0.22500000000002274
                },
                {
                    "name": "D#3",
                    "midi": 51,
                    "time": 380.70000000000505,
                    "velocity": 0.4645669291338583,
                    "duration": 0.22500000000002274
                },
                {
                    "name": "D#2",
                    "midi": 39,
                    "time": 380.70000000000505,
                    "velocity": 0.3937007874015748,
                    "duration": 0.22500000000002274
                },
                {
                    "name": "F#3",
                    "midi": 54,
                    "time": 380.92500000000507,
                    "velocity": 0.2204724409448819,
                    "duration": 0.07499999999998863
                },
                {
                    "name": "A3",
                    "midi": 57,
                    "time": 380.92500000000507,
                    "velocity": 0.2677165354330709,
                    "duration": 0.07499999999998863
                },
                {
                    "name": "G3",
                    "midi": 55,
                    "time": 381.00000000000506,
                    "velocity": 0.2677165354330709,
                    "duration": 0.22500000000002274
                },
                {
                    "name": "A#3",
                    "midi": 58,
                    "time": 381.00000000000506,
                    "velocity": 0.31496062992125984,
                    "duration": 0.22500000000002274
                },
                {
                    "name": "A#2",
                    "midi": 46,
                    "time": 381.30000000000507,
                    "velocity": 0.41732283464566927,
                    "duration": 0.22500000000002274
                },
                {
                    "name": "A#1",
                    "midi": 34,
                    "time": 381.30000000000507,
                    "velocity": 0.3543307086614173,
                    "duration": 0.22500000000002274
                },
                {
                    "name": "A3",
                    "midi": 57,
                    "time": 381.5250000000051,
                    "velocity": 0.2755905511811024,
                    "duration": 0.07499999999998863
                },
                {
                    "name": "F#3",
                    "midi": 54,
                    "time": 381.5250000000051,
                    "velocity": 0.2283464566929134,
                    "duration": 0.07499999999998863
                },
                {
                    "name": "A#3",
                    "midi": 58,
                    "time": 381.6000000000051,
                    "velocity": 0.33070866141732286,
                    "duration": 0.22500000000002274
                },
                {
                    "name": "G3",
                    "midi": 55,
                    "time": 381.6000000000051,
                    "velocity": 0.2755905511811024,
                    "duration": 0.22500000000002274
                },
                {
                    "name": "D#2",
                    "midi": 39,
                    "time": 381.9000000000051,
                    "velocity": 0.3937007874015748,
                    "duration": 0.22500000000002274
                },
                {
                    "name": "D#3",
                    "midi": 51,
                    "time": 381.9000000000051,
                    "velocity": 0.4645669291338583,
                    "duration": 0.22500000000002274
                },
                {
                    "name": "A3",
                    "midi": 57,
                    "time": 382.1250000000051,
                    "velocity": 0.2677165354330709,
                    "duration": 0.07499999999998863
                },
                {
                    "name": "F#3",
                    "midi": 54,
                    "time": 382.1250000000051,
                    "velocity": 0.2204724409448819,
                    "duration": 0.07499999999998863
                },
                {
                    "name": "A#3",
                    "midi": 58,
                    "time": 382.2000000000051,
                    "velocity": 0.31496062992125984,
                    "duration": 0.22500000000002274
                },
                {
                    "name": "G3",
                    "midi": 55,
                    "time": 382.2000000000051,
                    "velocity": 0.2677165354330709,
                    "duration": 0.22500000000002274
                },
                {
                    "name": "A#2",
                    "midi": 46,
                    "time": 382.5000000000051,
                    "velocity": 0.41732283464566927,
                    "duration": 0.22500000000002274
                },
                {
                    "name": "A#1",
                    "midi": 34,
                    "time": 382.5000000000051,
                    "velocity": 0.3543307086614173,
                    "duration": 0.22500000000002274
                },
                {
                    "name": "A3",
                    "midi": 57,
                    "time": 382.72500000000514,
                    "velocity": 0.2755905511811024,
                    "duration": 0.07499999999998863
                },
                {
                    "name": "F#3",
                    "midi": 54,
                    "time": 382.72500000000514,
                    "velocity": 0.2283464566929134,
                    "duration": 0.07499999999998863
                },
                {
                    "name": "A#3",
                    "midi": 58,
                    "time": 382.8000000000051,
                    "velocity": 0.33070866141732286,
                    "duration": 0.22500000000002274
                },
                {
                    "name": "G3",
                    "midi": 55,
                    "time": 382.8000000000051,
                    "velocity": 0.2755905511811024,
                    "duration": 0.22500000000002274
                },
                {
                    "name": "A2",
                    "midi": 45,
                    "time": 383.10000000000514,
                    "velocity": 0.4645669291338583,
                    "duration": 0.22500000000002274
                },
                {
                    "name": "A1",
                    "midi": 33,
                    "time": 383.10000000000514,
                    "velocity": 0.3937007874015748,
                    "duration": 0.22500000000002274
                },
                {
                    "name": "G#3",
                    "midi": 56,
                    "time": 383.32500000000516,
                    "velocity": 0.2992125984251969,
                    "duration": 0.07499999999998863
                },
                {
                    "name": "E3",
                    "midi": 52,
                    "time": 383.32500000000516,
                    "velocity": 0.25196850393700787,
                    "duration": 0.07499999999998863
                },
                {
                    "name": "F3",
                    "midi": 53,
                    "time": 383.40000000000515,
                    "velocity": 0.2992125984251969,
                    "duration": 0.22500000000002274
                },
                {
                    "name": "A3",
                    "midi": 57,
                    "time": 383.40000000000515,
                    "velocity": 0.3543307086614173,
                    "duration": 0.22500000000002274
                },
                {
                    "name": "F1",
                    "midi": 29,
                    "time": 383.70000000000516,
                    "velocity": 0.3543307086614173,
                    "duration": 0.22500000000002274
                },
                {
                    "name": "F2",
                    "midi": 41,
                    "time": 383.70000000000516,
                    "velocity": 0.41732283464566927,
                    "duration": 0.22500000000002274
                },
                {
                    "name": "E3",
                    "midi": 52,
                    "time": 383.9250000000052,
                    "velocity": 0.30708661417322836,
                    "duration": 0.07499999999998863
                },
                {
                    "name": "F3",
                    "midi": 53,
                    "time": 384.0000000000052,
                    "velocity": 0.3700787401574803,
                    "duration": 0.22500000000002274
                },
                {
                    "name": "E1",
                    "midi": 28,
                    "time": 384.3000000000052,
                    "velocity": 0.3937007874015748,
                    "duration": 0.22500000000002274
                },
                {
                    "name": "E2",
                    "midi": 40,
                    "time": 384.3000000000052,
                    "velocity": 0.4645669291338583,
                    "duration": 0.22500000000002274
                },
                {
                    "name": "E3",
                    "midi": 52,
                    "time": 384.6000000000052,
                    "velocity": 0.3543307086614173,
                    "duration": 0.22500000000002274
                },
                {
                    "name": "D3",
                    "midi": 50,
                    "time": 384.6000000000052,
                    "velocity": 0.2992125984251969,
                    "duration": 0.22500000000002274
                },
                {
                    "name": "A#2",
                    "midi": 46,
                    "time": 384.6000000000052,
                    "velocity": 0.2992125984251969,
                    "duration": 0.22500000000002274
                },
                {
                    "name": "A1",
                    "midi": 33,
                    "time": 384.9000000000052,
                    "velocity": 0.3543307086614173,
                    "duration": 0.22500000000002274
                },
                {
                    "name": "A2",
                    "midi": 45,
                    "time": 384.9000000000052,
                    "velocity": 0.41732283464566927,
                    "duration": 0.22500000000002274
                },
                {
                    "name": "G3",
                    "midi": 55,
                    "time": 385.2000000000052,
                    "velocity": 0.3700787401574803,
                    "duration": 0.22500000000002274
                },
                {
                    "name": "A2",
                    "midi": 45,
                    "time": 385.2000000000052,
                    "velocity": 0.2992125984251969,
                    "duration": 0.22500000000002274
                },
                {
                    "name": "C#3",
                    "midi": 49,
                    "time": 385.2000000000052,
                    "velocity": 0.2992125984251969,
                    "duration": 0.22500000000002274
                },
                {
                    "name": "E3",
                    "midi": 52,
                    "time": 385.2000000000052,
                    "velocity": 0.2992125984251969,
                    "duration": 0.22500000000002274
                },
                {
                    "name": "F3",
                    "midi": 53,
                    "time": 385.50000000000523,
                    "velocity": 0.5275590551181102,
                    "duration": 0.14999999999997726
                },
                {
                    "name": "D3",
                    "midi": 50,
                    "time": 385.50000000000523,
                    "velocity": 0.4409448818897638,
                    "duration": 0.2999999999999545
                },
                {
                    "name": "D2",
                    "midi": 38,
                    "time": 385.50000000000523,
                    "velocity": 0.4409448818897638,
                    "duration": 0.2999999999999545
                },
                {
                    "name": "A2",
                    "midi": 45,
                    "time": 385.50000000000523,
                    "velocity": 0.4409448818897638,
                    "duration": 0.2999999999999545
                },
                {
                    "name": "A3",
                    "midi": 57,
                    "time": 385.50000000000523,
                    "velocity": 0.5275590551181102,
                    "duration": 0.14999999999997726
                },
                {
                    "name": "D2",
                    "midi": 38,
                    "time": 386.5500000000052,
                    "velocity": 0.4566929133858268,
                    "duration": 0.11250000000001137
                },
                {
                    "name": "D3",
                    "midi": 50,
                    "time": 386.5500000000052,
                    "velocity": 0.5433070866141733,
                    "duration": 0.11250000000001137
                },
                {
                    "name": "D#2",
                    "midi": 39,
                    "time": 386.6625000000052,
                    "velocity": 0.5196850393700787,
                    "duration": 1.0499999999999545
                },
                {
                    "name": "F#2",
                    "midi": 42,
                    "time": 386.6750000000052,
                    "velocity": 0.5196850393700787,
                    "duration": 1.0499999999999545
                },
                {
                    "name": "A2",
                    "midi": 45,
                    "time": 386.6875000000052,
                    "velocity": 0.5196850393700787,
                    "duration": 1.0499999999999545
                },
                {
                    "name": "D#3",
                    "midi": 51,
                    "time": 386.70000000000516,
                    "velocity": 0.6141732283464567,
                    "duration": 1.0499999999999545
                },
                {
                    "name": "D3",
                    "midi": 50,
                    "time": 387.7500000000051,
                    "velocity": 0.5354330708661418,
                    "duration": 0.11250000000001137
                },
                {
                    "name": "D2",
                    "midi": 38,
                    "time": 387.7500000000051,
                    "velocity": 0.44881889763779526,
                    "duration": 0.11250000000001137
                },
                {
                    "name": "F2",
                    "midi": 41,
                    "time": 387.8625000000051,
                    "velocity": 0.5118110236220472,
                    "duration": 1.0499999999999545
                },
                {
                    "name": "G#2",
                    "midi": 44,
                    "time": 387.8750000000051,
                    "velocity": 0.5118110236220472,
                    "duration": 1.0499999999999545
                },
                {
                    "name": "B2",
                    "midi": 47,
                    "time": 387.8875000000051,
                    "velocity": 0.5118110236220472,
                    "duration": 1.0499999999999545
                },
                {
                    "name": "F3",
                    "midi": 53,
                    "time": 387.9000000000051,
                    "velocity": 0.6062992125984252,
                    "duration": 1.0499999999999545
                },
                {
                    "name": "D3",
                    "midi": 50,
                    "time": 388.95000000000505,
                    "velocity": 0.5275590551181102,
                    "duration": 0.11250000000001137
                },
                {
                    "name": "D2",
                    "midi": 38,
                    "time": 388.95000000000505,
                    "velocity": 0.4409448818897638,
                    "duration": 0.11250000000001137
                },
                {
                    "name": "A#2",
                    "midi": 46,
                    "time": 389.06250000000506,
                    "velocity": 0.5118110236220472,
                    "duration": 0.2999999999999545
                },
                {
                    "name": "D3",
                    "midi": 50,
                    "time": 389.07500000000505,
                    "velocity": 0.5118110236220472,
                    "duration": 0.2999999999999545
                },
                {
                    "name": "G3",
                    "midi": 55,
                    "time": 389.08750000000504,
                    "velocity": 0.5118110236220472,
                    "duration": 0.2999999999999545
                },
                {
                    "name": "A#3",
                    "midi": 58,
                    "time": 389.100000000005,
                    "velocity": 0.6062992125984252,
                    "duration": 0.2999999999999545
                },
                {
                    "name": "A#3",
                    "midi": 58,
                    "time": 389.55000000000496,
                    "velocity": 0.5275590551181102,
                    "duration": 0.14999999999997726
                },
                {
                    "name": "A#2",
                    "midi": 46,
                    "time": 389.55000000000496,
                    "velocity": 0.4409448818897638,
                    "duration": 0.14999999999997726
                },
                {
                    "name": "A3",
                    "midi": 57,
                    "time": 389.70000000000493,
                    "velocity": 0.6062992125984252,
                    "duration": 0.30000000000001137
                },
                {
                    "name": "A2",
                    "midi": 45,
                    "time": 389.70000000000493,
                    "velocity": 0.5118110236220472,
                    "duration": 0.30000000000001137
                },
                {
                    "name": "G3",
                    "midi": 55,
                    "time": 390.1500000000049,
                    "velocity": 0.5275590551181102,
                    "duration": 0.11250000000001137
                },
                {
                    "name": "G2",
                    "midi": 43,
                    "time": 390.1500000000049,
                    "velocity": 0.4409448818897638,
                    "duration": 0.11250000000001137
                },
                {
                    "name": "D2",
                    "midi": 38,
                    "time": 390.26250000000493,
                    "velocity": 0.5196850393700787,
                    "duration": 0.8999999999999773
                },
                {
                    "name": "F#2",
                    "midi": 42,
                    "time": 390.2750000000049,
                    "velocity": 0.5196850393700787,
                    "duration": 0.8999999999999773
                },
                {
                    "name": "A2",
                    "midi": 45,
                    "time": 390.2875000000049,
                    "velocity": 0.5196850393700787,
                    "duration": 0.8999999999999773
                },
                {
                    "name": "D3",
                    "midi": 50,
                    "time": 390.3000000000049,
                    "velocity": 0.6141732283464567,
                    "duration": 0.8999999999999773
                },
                {
                    "name": "D3",
                    "midi": 50,
                    "time": 391.35000000000485,
                    "velocity": 0.5354330708661418,
                    "duration": 0.11250000000001137
                },
                {
                    "name": "D2",
                    "midi": 38,
                    "time": 391.35000000000485,
                    "velocity": 0.44881889763779526,
                    "duration": 0.11250000000001137
                },
                {
                    "name": "D#2",
                    "midi": 39,
                    "time": 391.46250000000487,
                    "velocity": 0.5196850393700787,
                    "duration": 1.0499999999999545
                },
                {
                    "name": "F#2",
                    "midi": 42,
                    "time": 391.47500000000485,
                    "velocity": 0.5196850393700787,
                    "duration": 1.0499999999999545
                },
                {
                    "name": "A2",
                    "midi": 45,
                    "time": 391.48750000000484,
                    "velocity": 0.5196850393700787,
                    "duration": 1.0499999999999545
                },
                {
                    "name": "D#3",
                    "midi": 51,
                    "time": 391.50000000000483,
                    "velocity": 0.6141732283464567,
                    "duration": 1.0499999999999545
                },
                {
                    "name": "D3",
                    "midi": 50,
                    "time": 392.5500000000048,
                    "velocity": 0.5354330708661418,
                    "duration": 0.11250000000001137
                },
                {
                    "name": "D2",
                    "midi": 38,
                    "time": 392.5500000000048,
                    "velocity": 0.44881889763779526,
                    "duration": 0.11250000000001137
                },
                {
                    "name": "B1",
                    "midi": 35,
                    "time": 392.6625000000048,
                    "velocity": 0.5118110236220472,
                    "duration": 1.0499999999999545
                },
                {
                    "name": "F2",
                    "midi": 41,
                    "time": 392.6750000000048,
                    "velocity": 0.5118110236220472,
                    "duration": 1.0499999999999545
                },
                {
                    "name": "G#2",
                    "midi": 44,
                    "time": 392.6875000000048,
                    "velocity": 0.5118110236220472,
                    "duration": 1.0499999999999545
                },
                {
                    "name": "B2",
                    "midi": 47,
                    "time": 392.70000000000476,
                    "velocity": 0.6062992125984252,
                    "duration": 1.0499999999999545
                },
                {
                    "name": "D2",
                    "midi": 38,
                    "time": 393.7500000000047,
                    "velocity": 0.4409448818897638,
                    "duration": 0.14999999999997726
                },
                {
                    "name": "D3",
                    "midi": 50,
                    "time": 393.7500000000047,
                    "velocity": 0.5275590551181102,
                    "duration": 0.14999999999997726
                },
                {
                    "name": "E2",
                    "midi": 40,
                    "time": 393.9000000000047,
                    "velocity": 0.5118110236220472,
                    "duration": 0.30000000000001137
                },
                {
                    "name": "A#1",
                    "midi": 34,
                    "time": 393.9000000000047,
                    "velocity": 0.5118110236220472,
                    "duration": 0.30000000000001137
                },
                {
                    "name": "A#2",
                    "midi": 46,
                    "time": 393.9000000000047,
                    "velocity": 0.6062992125984252,
                    "duration": 0.30000000000001137
                },
                {
                    "name": "C#2",
                    "midi": 37,
                    "time": 393.9000000000047,
                    "velocity": 0.5118110236220472,
                    "duration": 0.30000000000001137
                },
                {
                    "name": "A#2",
                    "midi": 46,
                    "time": 394.3500000000047,
                    "velocity": 0.5275590551181102,
                    "duration": 0.14999999999997726
                },
                {
                    "name": "A#1",
                    "midi": 34,
                    "time": 394.3500000000047,
                    "velocity": 0.4409448818897638,
                    "duration": 0.14999999999997726
                },
                {
                    "name": "G1",
                    "midi": 31,
                    "time": 394.50000000000466,
                    "velocity": 0.5118110236220472,
                    "duration": 0.30000000000001137
                },
                {
                    "name": "G2",
                    "midi": 43,
                    "time": 394.50000000000466,
                    "velocity": 0.6062992125984252,
                    "duration": 0.30000000000001137
                },
                {
                    "name": "E2",
                    "midi": 40,
                    "time": 394.50000000000466,
                    "velocity": 0.5118110236220472,
                    "duration": 0.30000000000001137
                },
                {
                    "name": "C#2",
                    "midi": 37,
                    "time": 394.50000000000466,
                    "velocity": 0.5118110236220472,
                    "duration": 0.30000000000001137
                },
                {
                    "name": "G2",
                    "midi": 43,
                    "time": 394.95000000000465,
                    "velocity": 0.5275590551181102,
                    "duration": 0.14999999999997726
                },
                {
                    "name": "G1",
                    "midi": 31,
                    "time": 394.95000000000465,
                    "velocity": 0.4409448818897638,
                    "duration": 0.14999999999997726
                },
                {
                    "name": "A3",
                    "midi": 57,
                    "time": 395.1000000000046,
                    "velocity": 0.5275590551181102,
                    "duration": 0.14999999999997726
                },
                {
                    "name": "F3",
                    "midi": 53,
                    "time": 395.1000000000046,
                    "velocity": 0.5275590551181102,
                    "duration": 0.14999999999997726
                },
                {
                    "name": "D2",
                    "midi": 38,
                    "time": 395.1000000000046,
                    "velocity": 0.4409448818897638,
                    "duration": 0.14999999999997726
                },
                {
                    "name": "A2",
                    "midi": 45,
                    "time": 395.1000000000046,
                    "velocity": 0.4409448818897638,
                    "duration": 0.14999999999997726
                },
                {
                    "name": "D3",
                    "midi": 50,
                    "time": 395.1000000000046,
                    "velocity": 0.4409448818897638,
                    "duration": 0.14999999999997726
                },
                {
                    "name": "E5",
                    "midi": 76,
                    "time": 395.4000000000046,
                    "velocity": 0.47244094488188976,
                    "duration": 0.10000000000002274
                },
                {
                    "name": "G4",
                    "midi": 67,
                    "time": 395.4000000000046,
                    "velocity": 0.4645669291338583,
                    "duration": 0.3000000000000682
                },
                {
                    "name": "D#5",
                    "midi": 75,
                    "time": 395.5000000000046,
                    "velocity": 0.47244094488188976,
                    "duration": 0.10000000000002274
                },
                {
                    "name": "D5",
                    "midi": 74,
                    "time": 395.6000000000046,
                    "velocity": 0.47244094488188976,
                    "duration": 0.10000000000002274
                },
                {
                    "name": "C#5",
                    "midi": 73,
                    "time": 395.70000000000465,
                    "velocity": 0.47244094488188976,
                    "duration": 0.10000000000002274
                },
                {
                    "name": "E4",
                    "midi": 64,
                    "time": 395.70000000000465,
                    "velocity": 0.49606299212598426,
                    "duration": 0.3000000000000682
                },
                {
                    "name": "C5",
                    "midi": 72,
                    "time": 395.8000000000047,
                    "velocity": 0.47244094488188976,
                    "duration": 0.10000000000002274
                },
                {
                    "name": "B4",
                    "midi": 71,
                    "time": 395.9000000000047,
                    "velocity": 0.47244094488188976,
                    "duration": 0.10000000000002274
                },
                {
                    "name": "A#4",
                    "midi": 70,
                    "time": 396.0000000000047,
                    "velocity": 0.47244094488188976,
                    "duration": 0.10000000000002274
                },
                {
                    "name": "C#4",
                    "midi": 61,
                    "time": 396.0000000000047,
                    "velocity": 0.4566929133858268,
                    "duration": 0.3000000000000682
                },
                {
                    "name": "A4",
                    "midi": 69,
                    "time": 396.10000000000474,
                    "velocity": 0.47244094488188976,
                    "duration": 0.10000000000002274
                },
                {
                    "name": "G#4",
                    "midi": 68,
                    "time": 396.20000000000476,
                    "velocity": 0.47244094488188976,
                    "duration": 0.10000000000002274
                },
                {
                    "name": "G4",
                    "midi": 67,
                    "time": 396.3000000000048,
                    "velocity": 0.49606299212598426,
                    "duration": 0.14999999999997726
                },
                {
                    "name": "A#3",
                    "midi": 58,
                    "time": 396.3000000000048,
                    "velocity": 0.41732283464566927,
                    "duration": 0.14999999999997726
                },
                {
                    "name": "G3",
                    "midi": 55,
                    "time": 396.60000000000474,
                    "velocity": 0.49606299212598426,
                    "duration": 0.14999999999997726
                },
                {
                    "name": "G2",
                    "midi": 43,
                    "time": 396.60000000000474,
                    "velocity": 0.41732283464566927,
                    "duration": 0.14999999999997726
                },
                {
                    "name": "E3",
                    "midi": 52,
                    "time": 396.7500000000047,
                    "velocity": 0.44881889763779526,
                    "duration": 0.14999999999997726
                },
                {
                    "name": "C#3",
                    "midi": 49,
                    "time": 396.7500000000047,
                    "velocity": 0.3779527559055118,
                    "duration": 0.14999999999997726
                },
                {
                    "name": "A3",
                    "midi": 57,
                    "time": 396.9000000000047,
                    "velocity": 0.49606299212598426,
                    "duration": 0.14999999999997726
                },
                {
                    "name": "A2",
                    "midi": 45,
                    "time": 396.9000000000047,
                    "velocity": 0.41732283464566927,
                    "duration": 0.14999999999997726
                },
                {
                    "name": "C#3",
                    "midi": 49,
                    "time": 397.0500000000047,
                    "velocity": 0.3858267716535433,
                    "duration": 0.14999999999997726
                },
                {
                    "name": "E3",
                    "midi": 52,
                    "time": 397.0500000000047,
                    "velocity": 0.4566929133858268,
                    "duration": 0.14999999999997726
                },
                {
                    "name": "A#2",
                    "midi": 46,
                    "time": 397.20000000000465,
                    "velocity": 0.41732283464566927,
                    "duration": 0.14999999999997726
                },
                {
                    "name": "A#3",
                    "midi": 58,
                    "time": 397.20000000000465,
                    "velocity": 0.49606299212598426,
                    "duration": 0.14999999999997726
                },
                {
                    "name": "E3",
                    "midi": 52,
                    "time": 397.3500000000046,
                    "velocity": 0.3779527559055118,
                    "duration": 0.14999999999997726
                },
                {
                    "name": "G3",
                    "midi": 55,
                    "time": 397.3500000000046,
                    "velocity": 0.44881889763779526,
                    "duration": 0.14999999999997726
                },
                {
                    "name": "A3",
                    "midi": 57,
                    "time": 397.5000000000046,
                    "velocity": 0.5039370078740157,
                    "duration": 0.14999999999997726
                },
                {
                    "name": "F#3",
                    "midi": 54,
                    "time": 397.5000000000046,
                    "velocity": 0.5039370078740157,
                    "duration": 0.14999999999997726
                },
                {
                    "name": "D4",
                    "midi": 62,
                    "time": 397.5000000000046,
                    "velocity": 0.5039370078740157,
                    "duration": 0.14999999999997726
                },
                {
                    "name": "D3",
                    "midi": 50,
                    "time": 397.5000000000046,
                    "velocity": 0.5039370078740157,
                    "duration": 0.14999999999997726
                },
                {
                    "name": "E4",
                    "midi": 64,
                    "time": 397.80000000000456,
                    "velocity": 0.4251968503937008,
                    "duration": 0.10000000000002274
                },
                {
                    "name": "G3",
                    "midi": 55,
                    "time": 397.80000000000456,
                    "velocity": 0.41732283464566927,
                    "duration": 0.3000000000000682
                },
                {
                    "name": "D#4",
                    "midi": 63,
                    "time": 397.9000000000046,
                    "velocity": 0.4251968503937008,
                    "duration": 0.10000000000002274
                },
                {
                    "name": "D4",
                    "midi": 62,
                    "time": 398.0000000000046,
                    "velocity": 0.4251968503937008,
                    "duration": 0.10000000000002274
                },
                {
                    "name": "E3",
                    "midi": 52,
                    "time": 398.1000000000046,
                    "velocity": 0.4409448818897638,
                    "duration": 0.3000000000000682
                },
                {
                    "name": "C#4",
                    "midi": 61,
                    "time": 398.1000000000046,
                    "velocity": 0.4251968503937008,
                    "duration": 0.10000000000002274
                },
                {
                    "name": "C4",
                    "midi": 60,
                    "time": 398.20000000000465,
                    "velocity": 0.4251968503937008,
                    "duration": 0.10000000000002274
                },
                {
                    "name": "B3",
                    "midi": 59,
                    "time": 398.3000000000047,
                    "velocity": 0.4251968503937008,
                    "duration": 0.10000000000002274
                },
                {
                    "name": "C#3",
                    "midi": 49,
                    "time": 398.4000000000047,
                    "velocity": 0.4094488188976378,
                    "duration": 0.3000000000000682
                },
                {
                    "name": "A#3",
                    "midi": 58,
                    "time": 398.4000000000047,
                    "velocity": 0.4251968503937008,
                    "duration": 0.10000000000002274
                },
                {
                    "name": "A3",
                    "midi": 57,
                    "time": 398.5000000000047,
                    "velocity": 0.4251968503937008,
                    "duration": 0.10000000000002274
                },
                {
                    "name": "G#3",
                    "midi": 56,
                    "time": 398.60000000000474,
                    "velocity": 0.4251968503937008,
                    "duration": 0.10000000000002274
                },
                {
                    "name": "G3",
                    "midi": 55,
                    "time": 398.70000000000476,
                    "velocity": 0.4409448818897638,
                    "duration": 0.14999999999997726
                },
                {
                    "name": "A#2",
                    "midi": 46,
                    "time": 398.70000000000476,
                    "velocity": 0.3700787401574803,
                    "duration": 0.14999999999997726
                },
                {
                    "name": "G2",
                    "midi": 43,
                    "time": 399.0000000000047,
                    "velocity": 0.48031496062992124,
                    "duration": 0.14999999999997726
                },
                {
                    "name": "G1",
                    "midi": 31,
                    "time": 399.0000000000047,
                    "velocity": 0.4015748031496063,
                    "duration": 0.14999999999997726
                },
                {
                    "name": "E2",
                    "midi": 40,
                    "time": 399.1500000000047,
                    "velocity": 0.4409448818897638,
                    "duration": 0.14999999999997726
                },
                {
                    "name": "C#2",
                    "midi": 37,
                    "time": 399.1500000000047,
                    "velocity": 0.3700787401574803,
                    "duration": 0.14999999999997726
                },
                {
                    "name": "A1",
                    "midi": 33,
                    "time": 399.3000000000047,
                    "velocity": 0.4015748031496063,
                    "duration": 0.14999999999997726
                },
                {
                    "name": "A2",
                    "midi": 45,
                    "time": 399.3000000000047,
                    "velocity": 0.48031496062992124,
                    "duration": 0.14999999999997726
                },
                {
                    "name": "C#2",
                    "midi": 37,
                    "time": 399.45000000000465,
                    "velocity": 0.3779527559055118,
                    "duration": 0.14999999999997726
                },
                {
                    "name": "E2",
                    "midi": 40,
                    "time": 399.45000000000465,
                    "velocity": 0.44881889763779526,
                    "duration": 0.14999999999997726
                },
                {
                    "name": "A#2",
                    "midi": 46,
                    "time": 399.6000000000046,
                    "velocity": 0.48031496062992124,
                    "duration": 0.14999999999997726
                },
                {
                    "name": "A#1",
                    "midi": 34,
                    "time": 399.6000000000046,
                    "velocity": 0.4015748031496063,
                    "duration": 0.14999999999997726
                },
                {
                    "name": "E2",
                    "midi": 40,
                    "time": 399.7500000000046,
                    "velocity": 0.3700787401574803,
                    "duration": 0.14999999999997726
                },
                {
                    "name": "G2",
                    "midi": 43,
                    "time": 399.7500000000046,
                    "velocity": 0.4409448818897638,
                    "duration": 0.14999999999997726
                },
                {
                    "name": "D2",
                    "midi": 38,
                    "time": 399.9000000000046,
                    "velocity": 0.4881889763779528,
                    "duration": 0.14999999999997726
                },
                {
                    "name": "D3",
                    "midi": 50,
                    "time": 399.9000000000046,
                    "velocity": 0.4881889763779528,
                    "duration": 0.14999999999997726
                },
                {
                    "name": "F#2",
                    "midi": 42,
                    "time": 399.9000000000046,
                    "velocity": 0.4881889763779528,
                    "duration": 0.14999999999997726
                },
                {
                    "name": "A2",
                    "midi": 45,
                    "time": 399.9000000000046,
                    "velocity": 0.4881889763779528,
                    "duration": 0.14999999999997726
                },
                {
                    "name": "C#3",
                    "midi": 49,
                    "time": 400.20000000000454,
                    "velocity": 0.36220472440944884,
                    "duration": 0.11250000000001137
                },
                {
                    "name": "G3",
                    "midi": 55,
                    "time": 400.20000000000454,
                    "velocity": 0.4330708661417323,
                    "duration": 0.11250000000001137
                },
                {
                    "name": "A#2",
                    "midi": 46,
                    "time": 400.20000000000454,
                    "velocity": 0.36220472440944884,
                    "duration": 0.11250000000001137
                },
                {
                    "name": "G2",
                    "midi": 43,
                    "time": 400.20000000000454,
                    "velocity": 0.36220472440944884,
                    "duration": 0.11250000000001137
                },
                {
                    "name": "A#2",
                    "midi": 46,
                    "time": 400.35000000000457,
                    "velocity": 0.36220472440944884,
                    "duration": 0.11250000000001137
                },
                {
                    "name": "G2",
                    "midi": 43,
                    "time": 400.35000000000457,
                    "velocity": 0.36220472440944884,
                    "duration": 0.11250000000001137
                },
                {
                    "name": "C#3",
                    "midi": 49,
                    "time": 400.35000000000457,
                    "velocity": 0.36220472440944884,
                    "duration": 0.11250000000001137
                },
                {
                    "name": "G3",
                    "midi": 55,
                    "time": 400.35000000000457,
                    "velocity": 0.4330708661417323,
                    "duration": 0.11250000000001137
                },
                {
                    "name": "D3",
                    "midi": 50,
                    "time": 400.5000000000046,
                    "velocity": 0.4251968503937008,
                    "duration": 0.14999999999997726
                },
                {
                    "name": "D4",
                    "midi": 62,
                    "time": 400.5000000000046,
                    "velocity": 0.5039370078740157,
                    "duration": 0.14999999999997726
                },
                {
                    "name": "F#3",
                    "midi": 54,
                    "time": 400.5000000000046,
                    "velocity": 0.4251968503937008,
                    "duration": 0.14999999999997726
                },
                {
                    "name": "A3",
                    "midi": 57,
                    "time": 400.5000000000046,
                    "velocity": 0.4251968503937008,
                    "duration": 0.14999999999997726
                },
                {
                    "name": "C#3",
                    "midi": 49,
                    "time": 400.80000000000456,
                    "velocity": 0.3858267716535433,
                    "duration": 0.11250000000001137
                },
                {
                    "name": "G3",
                    "midi": 55,
                    "time": 400.80000000000456,
                    "velocity": 0.4566929133858268,
                    "duration": 0.11250000000001137
                },
                {
                    "name": "A#2",
                    "midi": 46,
                    "time": 400.80000000000456,
                    "velocity": 0.3858267716535433,
                    "duration": 0.11250000000001137
                },
                {
                    "name": "G2",
                    "midi": 43,
                    "time": 400.80000000000456,
                    "velocity": 0.3858267716535433,
                    "duration": 0.11250000000001137
                },
                {
                    "name": "A#2",
                    "midi": 46,
                    "time": 400.9500000000046,
                    "velocity": 0.3858267716535433,
                    "duration": 0.11250000000001137
                },
                {
                    "name": "G2",
                    "midi": 43,
                    "time": 400.9500000000046,
                    "velocity": 0.3858267716535433,
                    "duration": 0.11250000000001137
                },
                {
                    "name": "C#3",
                    "midi": 49,
                    "time": 400.9500000000046,
                    "velocity": 0.3858267716535433,
                    "duration": 0.11250000000001137
                },
                {
                    "name": "G3",
                    "midi": 55,
                    "time": 400.9500000000046,
                    "velocity": 0.4566929133858268,
                    "duration": 0.11250000000001137
                },
                {
                    "name": "D2",
                    "midi": 38,
                    "time": 401.1000000000046,
                    "velocity": 0.44881889763779526,
                    "duration": 0.14999999999997726
                },
                {
                    "name": "D3",
                    "midi": 50,
                    "time": 401.1000000000046,
                    "velocity": 0.5354330708661418,
                    "duration": 0.14999999999997726
                },
                {
                    "name": "F#2",
                    "midi": 42,
                    "time": 401.1000000000046,
                    "velocity": 0.44881889763779526,
                    "duration": 0.14999999999997726
                },
                {
                    "name": "A2",
                    "midi": 45,
                    "time": 401.1000000000046,
                    "velocity": 0.44881889763779526,
                    "duration": 0.14999999999997726
                },
                {
                    "name": "G3",
                    "midi": 55,
                    "time": 401.4000000000046,
                    "velocity": 0.47244094488188976,
                    "duration": 0.11250000000001137
                },
                {
                    "name": "G2",
                    "midi": 43,
                    "time": 401.4000000000046,
                    "velocity": 0.4015748031496063,
                    "duration": 0.11250000000001137
                },
                {
                    "name": "C#3",
                    "midi": 49,
                    "time": 401.4000000000046,
                    "velocity": 0.4015748031496063,
                    "duration": 0.11250000000001137
                },
                {
                    "name": "A#2",
                    "midi": 46,
                    "time": 401.4000000000046,
                    "velocity": 0.4015748031496063,
                    "duration": 0.11250000000001137
                },
                {
                    "name": "G2",
                    "midi": 43,
                    "time": 401.5500000000046,
                    "velocity": 0.3858267716535433,
                    "duration": 0.11250000000001137
                },
                {
                    "name": "G3",
                    "midi": 55,
                    "time": 401.5500000000046,
                    "velocity": 0.4566929133858268,
                    "duration": 0.11250000000001137
                },
                {
                    "name": "A#2",
                    "midi": 46,
                    "time": 401.5500000000046,
                    "velocity": 0.3858267716535433,
                    "duration": 0.11250000000001137
                },
                {
                    "name": "C#3",
                    "midi": 49,
                    "time": 401.5500000000046,
                    "velocity": 0.3858267716535433,
                    "duration": 0.11250000000001137
                },
                {
                    "name": "D3",
                    "midi": 50,
                    "time": 401.70000000000465,
                    "velocity": 0.4409448818897638,
                    "duration": 0.14999999999997726
                },
                {
                    "name": "F#3",
                    "midi": 54,
                    "time": 401.70000000000465,
                    "velocity": 0.4409448818897638,
                    "duration": 0.14999999999997726
                },
                {
                    "name": "D4",
                    "midi": 62,
                    "time": 401.70000000000465,
                    "velocity": 0.5196850393700787,
                    "duration": 0.14999999999997726
                },
                {
                    "name": "A3",
                    "midi": 57,
                    "time": 401.70000000000465,
                    "velocity": 0.4409448818897638,
                    "duration": 0.14999999999997726
                },
                {
                    "name": "A#2",
                    "midi": 46,
                    "time": 402.0000000000046,
                    "velocity": 0.3937007874015748,
                    "duration": 0.11250000000001137
                },
                {
                    "name": "C#3",
                    "midi": 49,
                    "time": 402.0000000000046,
                    "velocity": 0.3937007874015748,
                    "duration": 0.11250000000001137
                },
                {
                    "name": "G3",
                    "midi": 55,
                    "time": 402.0000000000046,
                    "velocity": 0.4645669291338583,
                    "duration": 0.11250000000001137
                },
                {
                    "name": "G2",
                    "midi": 43,
                    "time": 402.0000000000046,
                    "velocity": 0.3937007874015748,
                    "duration": 0.11250000000001137
                },
                {
                    "name": "C#3",
                    "midi": 49,
                    "time": 402.15000000000464,
                    "velocity": 0.3937007874015748,
                    "duration": 0.11250000000001137
                },
                {
                    "name": "G3",
                    "midi": 55,
                    "time": 402.15000000000464,
                    "velocity": 0.4645669291338583,
                    "duration": 0.11250000000001137
                },
                {
                    "name": "A#2",
                    "midi": 46,
                    "time": 402.15000000000464,
                    "velocity": 0.3937007874015748,
                    "duration": 0.11250000000001137
                },
                {
                    "name": "G2",
                    "midi": 43,
                    "time": 402.15000000000464,
                    "velocity": 0.3937007874015748,
                    "duration": 0.11250000000001137
                },
                {
                    "name": "D2",
                    "midi": 38,
                    "time": 402.3000000000047,
                    "velocity": 0.44881889763779526,
                    "duration": 0.14999999999997726
                },
                {
                    "name": "D3",
                    "midi": 50,
                    "time": 402.3000000000047,
                    "velocity": 0.5354330708661418,
                    "duration": 0.14999999999997726
                },
                {
                    "name": "F#2",
                    "midi": 42,
                    "time": 402.3000000000047,
                    "velocity": 0.44881889763779526,
                    "duration": 0.14999999999997726
                },
                {
                    "name": "A2",
                    "midi": 45,
                    "time": 402.3000000000047,
                    "velocity": 0.44881889763779526,
                    "duration": 0.14999999999997726
                },
                {
                    "name": "E2",
                    "midi": 40,
                    "time": 402.6000000000046,
                    "velocity": 0.47244094488188976,
                    "duration": 0.11250000000001137
                },
                {
                    "name": "G1",
                    "midi": 31,
                    "time": 402.6000000000046,
                    "velocity": 0.4015748031496063,
                    "duration": 0.11250000000001137
                },
                {
                    "name": "C#2",
                    "midi": 37,
                    "time": 402.6000000000046,
                    "velocity": 0.4015748031496063,
                    "duration": 0.11250000000001137
                },
                {
                    "name": "G2",
                    "midi": 43,
                    "time": 402.6000000000046,
                    "velocity": 0.47244094488188976,
                    "duration": 0.11250000000001137
                },
                {
                    "name": "E2",
                    "midi": 40,
                    "time": 402.75000000000466,
                    "velocity": 0.47244094488188976,
                    "duration": 0.11250000000001137
                },
                {
                    "name": "G2",
                    "midi": 43,
                    "time": 402.75000000000466,
                    "velocity": 0.47244094488188976,
                    "duration": 0.11250000000001137
                },
                {
                    "name": "C#2",
                    "midi": 37,
                    "time": 402.75000000000466,
                    "velocity": 0.4015748031496063,
                    "duration": 0.11250000000001137
                },
                {
                    "name": "G1",
                    "midi": 31,
                    "time": 402.75000000000466,
                    "velocity": 0.4015748031496063,
                    "duration": 0.11250000000001137
                },
                {
                    "name": "D2",
                    "midi": 38,
                    "time": 402.9000000000047,
                    "velocity": 0.4645669291338583,
                    "duration": 0.14999999999997726
                },
                {
                    "name": "F#2",
                    "midi": 42,
                    "time": 402.9000000000047,
                    "velocity": 0.4645669291338583,
                    "duration": 0.14999999999997726
                },
                {
                    "name": "A2",
                    "midi": 45,
                    "time": 402.9000000000047,
                    "velocity": 0.4645669291338583,
                    "duration": 0.14999999999997726
                },
                {
                    "name": "D3",
                    "midi": 50,
                    "time": 402.9000000000047,
                    "velocity": 0.5590551181102362,
                    "duration": 0.14999999999997726
                },
                {
                    "name": "G1",
                    "midi": 31,
                    "time": 403.20000000000465,
                    "velocity": 0.4094488188976378,
                    "duration": 0.11250000000001137
                },
                {
                    "name": "C#2",
                    "midi": 37,
                    "time": 403.20000000000465,
                    "velocity": 0.4094488188976378,
                    "duration": 0.11250000000001137
                },
                {
                    "name": "E2",
                    "midi": 40,
                    "time": 403.20000000000465,
                    "velocity": 0.4094488188976378,
                    "duration": 0.11250000000001137
                },
                {
                    "name": "G2",
                    "midi": 43,
                    "time": 403.20000000000465,
                    "velocity": 0.4881889763779528,
                    "duration": 0.11250000000001137
                },
                {
                    "name": "G1",
                    "midi": 31,
                    "time": 403.3500000000047,
                    "velocity": 0.4094488188976378,
                    "duration": 0.11250000000001137
                },
                {
                    "name": "G2",
                    "midi": 43,
                    "time": 403.3500000000047,
                    "velocity": 0.4881889763779528,
                    "duration": 0.11250000000001137
                },
                {
                    "name": "E2",
                    "midi": 40,
                    "time": 403.3500000000047,
                    "velocity": 0.4094488188976378,
                    "duration": 0.11250000000001137
                },
                {
                    "name": "C#2",
                    "midi": 37,
                    "time": 403.3500000000047,
                    "velocity": 0.4094488188976378,
                    "duration": 0.11250000000001137
                },
                {
                    "name": "A2",
                    "midi": 45,
                    "time": 403.5000000000047,
                    "velocity": 0.4881889763779528,
                    "duration": 0.30000000000001137
                },
                {
                    "name": "D2",
                    "midi": 38,
                    "time": 403.5000000000047,
                    "velocity": 0.4881889763779528,
                    "duration": 0.30000000000001137
                },
                {
                    "name": "D3",
                    "midi": 50,
                    "time": 403.5000000000047,
                    "velocity": 0.5826771653543307,
                    "duration": 0.30000000000001137
                },
                {
                    "name": "F#2",
                    "midi": 42,
                    "time": 403.5000000000047,
                    "velocity": 0.4881889763779528,
                    "duration": 0.30000000000001137
                },
                {
                    "name": "E2",
                    "midi": 40,
                    "time": 403.80000000000473,
                    "velocity": 0.41732283464566927,
                    "duration": 0.30000000000001137
                },
                {
                    "name": "C#2",
                    "midi": 37,
                    "time": 403.80000000000473,
                    "velocity": 0.41732283464566927,
                    "duration": 0.30000000000001137
                },
                {
                    "name": "G2",
                    "midi": 43,
                    "time": 403.80000000000473,
                    "velocity": 0.49606299212598426,
                    "duration": 0.30000000000001137
                },
                {
                    "name": "G1",
                    "midi": 31,
                    "time": 403.80000000000473,
                    "velocity": 0.41732283464566927,
                    "duration": 0.30000000000001137
                },
                {
                    "name": "G1",
                    "midi": 31,
                    "time": 404.40000000000475,
                    "velocity": 0.41732283464566927,
                    "duration": 0.30000000000001137
                },
                {
                    "name": "E2",
                    "midi": 40,
                    "time": 404.40000000000475,
                    "velocity": 0.41732283464566927,
                    "duration": 0.30000000000001137
                },
                {
                    "name": "C#2",
                    "midi": 37,
                    "time": 404.40000000000475,
                    "velocity": 0.41732283464566927,
                    "duration": 0.30000000000001137
                },
                {
                    "name": "G2",
                    "midi": 43,
                    "time": 404.40000000000475,
                    "velocity": 0.49606299212598426,
                    "duration": 0.30000000000001137
                },
                {
                    "name": "G1",
                    "midi": 31,
                    "time": 405.0000000000048,
                    "velocity": 0.41732283464566927,
                    "duration": 0.30000000000001137
                },
                {
                    "name": "G2",
                    "midi": 43,
                    "time": 405.0000000000048,
                    "velocity": 0.49606299212598426,
                    "duration": 0.30000000000001137
                },
                {
                    "name": "C#2",
                    "midi": 37,
                    "time": 405.0000000000048,
                    "velocity": 0.41732283464566927,
                    "duration": 0.30000000000001137
                },
                {
                    "name": "E2",
                    "midi": 40,
                    "time": 405.0000000000048,
                    "velocity": 0.41732283464566927,
                    "duration": 0.30000000000001137
                },
                {
                    "name": "F2",
                    "midi": 41,
                    "time": 405.3000000000048,
                    "velocity": 0.4094488188976378,
                    "duration": 0.30000000000001137
                },
                {
                    "name": "D2",
                    "midi": 38,
                    "time": 405.3000000000048,
                    "velocity": 0.4094488188976378,
                    "duration": 0.30000000000001137
                },
                {
                    "name": "D3",
                    "midi": 50,
                    "time": 405.3000000000048,
                    "velocity": 0.4881889763779528,
                    "duration": 0.30000000000001137
                },
                {
                    "name": "G#2",
                    "midi": 44,
                    "time": 405.3000000000048,
                    "velocity": 0.4094488188976378,
                    "duration": 0.30000000000001137
                },
                {
                    "name": "F#2",
                    "midi": 42,
                    "time": 405.6000000000048,
                    "velocity": 0.4094488188976378,
                    "duration": 0.30000000000001137
                },
                {
                    "name": "D2",
                    "midi": 38,
                    "time": 405.6000000000048,
                    "velocity": 0.4094488188976378,
                    "duration": 0.30000000000001137
                },
                {
                    "name": "D#3",
                    "midi": 51,
                    "time": 405.6000000000048,
                    "velocity": 0.4881889763779528,
                    "duration": 0.30000000000001137
                },
                {
                    "name": "A2",
                    "midi": 45,
                    "time": 405.6000000000048,
                    "velocity": 0.4094488188976378,
                    "duration": 0.30000000000001137
                },
                {
                    "name": "A#2",
                    "midi": 46,
                    "time": 405.9000000000048,
                    "velocity": 0.4015748031496063,
                    "duration": 0.30000000000001137
                },
                {
                    "name": "D2",
                    "midi": 38,
                    "time": 405.9000000000048,
                    "velocity": 0.4015748031496063,
                    "duration": 0.30000000000001137
                },
                {
                    "name": "E3",
                    "midi": 52,
                    "time": 405.9000000000048,
                    "velocity": 0.48031496062992124,
                    "duration": 0.30000000000001137
                },
                {
                    "name": "G2",
                    "midi": 43,
                    "time": 405.9000000000048,
                    "velocity": 0.4015748031496063,
                    "duration": 0.30000000000001137
                },
                {
                    "name": "B2",
                    "midi": 47,
                    "time": 406.2000000000048,
                    "velocity": 0.4015748031496063,
                    "duration": 0.30000000000001137
                },
                {
                    "name": "D2",
                    "midi": 38,
                    "time": 406.2000000000048,
                    "velocity": 0.4015748031496063,
                    "duration": 0.30000000000001137
                },
                {
                    "name": "G#2",
                    "midi": 44,
                    "time": 406.2000000000048,
                    "velocity": 0.4015748031496063,
                    "duration": 0.30000000000001137
                },
                {
                    "name": "F3",
                    "midi": 53,
                    "time": 406.2000000000048,
                    "velocity": 0.48031496062992124,
                    "duration": 0.30000000000001137
                },
                {
                    "name": "F#3",
                    "midi": 54,
                    "time": 406.50000000000483,
                    "velocity": 0.48031496062992124,
                    "duration": 0.30000000000001137
                },
                {
                    "name": "C3",
                    "midi": 48,
                    "time": 406.50000000000483,
                    "velocity": 0.4015748031496063,
                    "duration": 0.30000000000001137
                },
                {
                    "name": "D2",
                    "midi": 38,
                    "time": 406.50000000000483,
                    "velocity": 0.4015748031496063,
                    "duration": 0.30000000000001137
                },
                {
                    "name": "A2",
                    "midi": 45,
                    "time": 406.50000000000483,
                    "velocity": 0.4015748031496063,
                    "duration": 0.30000000000001137
                },
                {
                    "name": "D2",
                    "midi": 38,
                    "time": 406.80000000000484,
                    "velocity": 0.4015748031496063,
                    "duration": 0.30000000000001137
                },
                {
                    "name": "A#2",
                    "midi": 46,
                    "time": 406.80000000000484,
                    "velocity": 0.4015748031496063,
                    "duration": 0.30000000000001137
                },
                {
                    "name": "G3",
                    "midi": 55,
                    "time": 406.80000000000484,
                    "velocity": 0.48031496062992124,
                    "duration": 0.30000000000001137
                },
                {
                    "name": "C#3",
                    "midi": 49,
                    "time": 406.80000000000484,
                    "velocity": 0.4015748031496063,
                    "duration": 0.30000000000001137
                },
                {
                    "name": "D2",
                    "midi": 38,
                    "time": 407.7000000000049,
                    "velocity": 0.3700787401574803,
                    "duration": 0.6000000000000227
                },
                {
                    "name": "B2",
                    "midi": 47,
                    "time": 407.7000000000049,
                    "velocity": 0.3700787401574803,
                    "duration": 0.6000000000000227
                },
                {
                    "name": "G#3",
                    "midi": 56,
                    "time": 407.7000000000049,
                    "velocity": 0.4409448818897638,
                    "duration": 0.6000000000000227
                },
                {
                    "name": "D2",
                    "midi": 38,
                    "time": 412.7000000000049,
                    "velocity": 0.33070866141732286,
                    "duration": 0.39999999999997726
                },
                {
                    "name": "A#2",
                    "midi": 46,
                    "time": 412.7000000000049,
                    "velocity": 0.3779527559055118,
                    "duration": 0.39999999999997726
                },
                {
                    "name": "D#2",
                    "midi": 39,
                    "time": 413.10000000000485,
                    "velocity": 0.4251968503937008,
                    "duration": 1.1999999999999886
                },
                {
                    "name": "A#2",
                    "midi": 46,
                    "time": 413.10000000000485,
                    "velocity": 0.5039370078740157,
                    "duration": 1.1999999999999886
                },
                {
                    "name": "A#2",
                    "midi": 46,
                    "time": 414.30000000000484,
                    "velocity": 0.5039370078740157,
                    "duration": 1.0500000000000114
                },
                {
                    "name": "C#2",
                    "midi": 37,
                    "time": 414.30000000000484,
                    "velocity": 0.4251968503937008,
                    "duration": 1.1999999999999886
                },
                {
                    "name": "A#2",
                    "midi": 46,
                    "time": 415.35000000000485,
                    "velocity": 0.5275590551181102,
                    "duration": 0.14999999999997726
                },
                {
                    "name": "B1",
                    "midi": 35,
                    "time": 415.50000000000483,
                    "velocity": 0.4566929133858268,
                    "duration": 1.1999999999999886
                },
                {
                    "name": "A#2",
                    "midi": 46,
                    "time": 415.50000000000483,
                    "velocity": 0.5433070866141733,
                    "duration": 1.1999999999999886
                },
                {
                    "name": "G#2",
                    "midi": 44,
                    "time": 416.7000000000048,
                    "velocity": 0.5118110236220472,
                    "duration": 1.0500000000000114
                },
                {
                    "name": "B1",
                    "midi": 35,
                    "time": 416.7000000000048,
                    "velocity": 0.4330708661417323,
                    "duration": 1.0500000000000114
                },
                {
                    "name": "G#2",
                    "midi": 44,
                    "time": 417.75000000000483,
                    "velocity": 0.4645669291338583,
                    "duration": 0.11250000000001137
                },
                {
                    "name": "B1",
                    "midi": 35,
                    "time": 417.75000000000483,
                    "velocity": 0.3937007874015748,
                    "duration": 0.11250000000001137
                },
                {
                    "name": "B1",
                    "midi": 35,
                    "time": 417.90000000000487,
                    "velocity": 0.44881889763779526,
                    "duration": 0.30000000000001137
                },
                {
                    "name": "G#2",
                    "midi": 44,
                    "time": 417.90000000000487,
                    "velocity": 0.5354330708661418,
                    "duration": 0.30000000000001137
                },
                {
                    "name": "F3",
                    "midi": 53,
                    "time": 418.8000000000049,
                    "velocity": 0.3779527559055118,
                    "duration": 0.30000000000001137
                },
                {
                    "name": "D4",
                    "midi": 62,
                    "time": 419.1000000000049,
                    "velocity": 0.4251968503937008,
                    "duration": 0.8999999999999773
                },
                {
                    "name": "F3",
                    "midi": 53,
                    "time": 420.0000000000049,
                    "velocity": 0.4015748031496063,
                    "duration": 0.30000000000001137
                },
                {
                    "name": "F3",
                    "midi": 53,
                    "time": 421.5000000000049,
                    "velocity": 0.3464566929133858,
                    "duration": 0.30000000000001137
                },
                {
                    "name": "A#1",
                    "midi": 34,
                    "time": 421.5000000000049,
                    "velocity": 0.3464566929133858,
                    "duration": 0.30000000000001137
                },
                {
                    "name": "G#2",
                    "midi": 44,
                    "time": 421.5000000000049,
                    "velocity": 0.3464566929133858,
                    "duration": 0.30000000000001137
                },
                {
                    "name": "G#3",
                    "midi": 56,
                    "time": 421.5000000000049,
                    "velocity": 0.3464566929133858,
                    "duration": 0.30000000000001137
                },
                {
                    "name": "F3",
                    "midi": 53,
                    "time": 422.5500000000049,
                    "velocity": 0.30708661417322836,
                    "duration": 0.11250000000001137
                },
                {
                    "name": "G#2",
                    "midi": 44,
                    "time": 422.5500000000049,
                    "velocity": 0.30708661417322836,
                    "duration": 0.11250000000001137
                },
                {
                    "name": "G#3",
                    "midi": 56,
                    "time": 422.5500000000049,
                    "velocity": 0.30708661417322836,
                    "duration": 0.11250000000001137
                },
                {
                    "name": "B1",
                    "midi": 35,
                    "time": 422.5500000000049,
                    "velocity": 0.30708661417322836,
                    "duration": 0.11250000000001137
                },
                {
                    "name": "G#3",
                    "midi": 56,
                    "time": 422.70000000000493,
                    "velocity": 0.3464566929133858,
                    "duration": 0.14999999999997726
                },
                {
                    "name": "B1",
                    "midi": 35,
                    "time": 422.70000000000493,
                    "velocity": 0.3464566929133858,
                    "duration": 0.14999999999997726
                },
                {
                    "name": "G#2",
                    "midi": 44,
                    "time": 422.70000000000493,
                    "velocity": 0.3464566929133858,
                    "duration": 0.14999999999997726
                },
                {
                    "name": "F3",
                    "midi": 53,
                    "time": 422.70000000000493,
                    "velocity": 0.3464566929133858,
                    "duration": 0.14999999999997726
                },
                {
                    "name": "F3",
                    "midi": 53,
                    "time": 423.6000000000049,
                    "velocity": 0.3779527559055118,
                    "duration": 0.30000000000001137
                },
                {
                    "name": "D4",
                    "midi": 62,
                    "time": 423.9000000000049,
                    "velocity": 0.4251968503937008,
                    "duration": 0.8999999999999773
                },
                {
                    "name": "F3",
                    "midi": 53,
                    "time": 424.8000000000049,
                    "velocity": 0.4015748031496063,
                    "duration": 0.30000000000001137
                },
                {
                    "name": "A#1",
                    "midi": 34,
                    "time": 426.3000000000049,
                    "velocity": 0.3464566929133858,
                    "duration": 0.30000000000001137
                },
                {
                    "name": "G#3",
                    "midi": 56,
                    "time": 426.3000000000049,
                    "velocity": 0.3464566929133858,
                    "duration": 0.30000000000001137
                },
                {
                    "name": "F3",
                    "midi": 53,
                    "time": 426.3000000000049,
                    "velocity": 0.3464566929133858,
                    "duration": 0.30000000000001137
                },
                {
                    "name": "G#2",
                    "midi": 44,
                    "time": 426.3000000000049,
                    "velocity": 0.3464566929133858,
                    "duration": 0.30000000000001137
                },
                {
                    "name": "B1",
                    "midi": 35,
                    "time": 427.3500000000049,
                    "velocity": 0.30708661417322836,
                    "duration": 0.11250000000001137
                },
                {
                    "name": "G#2",
                    "midi": 44,
                    "time": 427.3500000000049,
                    "velocity": 0.30708661417322836,
                    "duration": 0.11250000000001137
                },
                {
                    "name": "G#3",
                    "midi": 56,
                    "time": 427.3500000000049,
                    "velocity": 0.30708661417322836,
                    "duration": 0.11250000000001137
                },
                {
                    "name": "F3",
                    "midi": 53,
                    "time": 427.3500000000049,
                    "velocity": 0.30708661417322836,
                    "duration": 0.11250000000001137
                },
                {
                    "name": "F3",
                    "midi": 53,
                    "time": 427.50000000000495,
                    "velocity": 0.3464566929133858,
                    "duration": 0.14999999999997726
                },
                {
                    "name": "G#2",
                    "midi": 44,
                    "time": 427.50000000000495,
                    "velocity": 0.3464566929133858,
                    "duration": 0.14999999999997726
                },
                {
                    "name": "G#3",
                    "midi": 56,
                    "time": 427.50000000000495,
                    "velocity": 0.3464566929133858,
                    "duration": 0.14999999999997726
                },
                {
                    "name": "B1",
                    "midi": 35,
                    "time": 427.50000000000495,
                    "velocity": 0.3464566929133858,
                    "duration": 0.14999999999997726
                },
                {
                    "name": "D3",
                    "midi": 50,
                    "time": 433.20000000000493,
                    "velocity": 0.2992125984251969,
                    "duration": 0.30000000000001137
                },
                {
                    "name": "B3",
                    "midi": 59,
                    "time": 433.50000000000495,
                    "velocity": 0.3464566929133858,
                    "duration": 0.8999999999999773
                },
                {
                    "name": "G#2",
                    "midi": 44,
                    "time": 434.4000000000049,
                    "velocity": 0.29133858267716534,
                    "duration": 0.30000000000001137
                },
                {
                    "name": "F3",
                    "midi": 53,
                    "time": 434.70000000000493,
                    "velocity": 0.29133858267716534,
                    "duration": 2.3999999999999773
                },
                {
                    "name": "F2",
                    "midi": 41,
                    "time": 438.45000000000493,
                    "velocity": 0.30708661417322836,
                    "duration": 0.16499999999996362
                },
                {
                    "name": "F3",
                    "midi": 53,
                    "time": 438.45000000000493,
                    "velocity": 0.36220472440944884,
                    "duration": 0.16499999999996362
                },
                {
                    "name": "E3",
                    "midi": 52,
                    "time": 438.6000000000049,
                    "velocity": 0.3858267716535433,
                    "duration": 0.16499999999996362
                },
                {
                    "name": "E2",
                    "midi": 40,
                    "time": 438.6000000000049,
                    "velocity": 0.3228346456692913,
                    "duration": 0.16499999999996362
                },
                {
                    "name": "D2",
                    "midi": 38,
                    "time": 438.7500000000049,
                    "velocity": 0.33858267716535434,
                    "duration": 0.16499999999996362
                },
                {
                    "name": "D3",
                    "midi": 50,
                    "time": 438.7500000000049,
                    "velocity": 0.4015748031496063,
                    "duration": 0.16499999999996362
                },
                {
                    "name": "C#2",
                    "midi": 37,
                    "time": 438.90000000000487,
                    "velocity": 0.3543307086614173,
                    "duration": 0.16499999999996362
                },
                {
                    "name": "C#3",
                    "midi": 49,
                    "time": 438.90000000000487,
                    "velocity": 0.4251968503937008,
                    "duration": 0.16499999999996362
                },
                {
                    "name": "C3",
                    "midi": 48,
                    "time": 439.05000000000484,
                    "velocity": 0.4409448818897638,
                    "duration": 0.16499999999996362
                },
                {
                    "name": "C2",
                    "midi": 36,
                    "time": 439.05000000000484,
                    "velocity": 0.3700787401574803,
                    "duration": 0.16499999999996362
                },
                {
                    "name": "B1",
                    "midi": 35,
                    "time": 439.2000000000048,
                    "velocity": 0.3937007874015748,
                    "duration": 0.16499999999996362
                },
                {
                    "name": "B2",
                    "midi": 47,
                    "time": 439.2000000000048,
                    "velocity": 0.4645669291338583,
                    "duration": 0.16499999999996362
                },
                {
                    "name": "A#1",
                    "midi": 34,
                    "time": 439.3500000000048,
                    "velocity": 0.4015748031496063,
                    "duration": 0.16499999999996362
                },
                {
                    "name": "A#2",
                    "midi": 46,
                    "time": 439.3500000000048,
                    "velocity": 0.48031496062992124,
                    "duration": 0.16499999999996362
                },
                {
                    "name": "A1",
                    "midi": 33,
                    "time": 439.5000000000048,
                    "velocity": 0.4409448818897638,
                    "duration": 1.8000000000000114
                },
                {
                    "name": "A2",
                    "midi": 45,
                    "time": 439.5000000000048,
                    "velocity": 0.5196850393700787,
                    "duration": 1.8000000000000114
                },
                {
                    "name": "F#4",
                    "midi": 66,
                    "time": 440.5500000000048,
                    "velocity": 0.4409448818897638,
                    "duration": 0.05624999999997726
                },
                {
                    "name": "D4",
                    "midi": 62,
                    "time": 440.5500000000048,
                    "velocity": 0.3700787401574803,
                    "duration": 0.05624999999997726
                },
                {
                    "name": "A3",
                    "midi": 57,
                    "time": 440.5500000000048,
                    "velocity": 0.3700787401574803,
                    "duration": 0.05624999999997726
                },
                {
                    "name": "F#4",
                    "midi": 66,
                    "time": 440.6250000000048,
                    "velocity": 0.4409448818897638,
                    "duration": 0.05624999999997726
                },
                {
                    "name": "D4",
                    "midi": 62,
                    "time": 440.6250000000048,
                    "velocity": 0.3700787401574803,
                    "duration": 0.05624999999997726
                },
                {
                    "name": "A3",
                    "midi": 57,
                    "time": 440.6250000000048,
                    "velocity": 0.3700787401574803,
                    "duration": 0.05624999999997726
                },
                {
                    "name": "F#4",
                    "midi": 66,
                    "time": 440.70000000000476,
                    "velocity": 0.49606299212598426,
                    "duration": 0.9000000000000341
                },
                {
                    "name": "D4",
                    "midi": 62,
                    "time": 440.70000000000476,
                    "velocity": 0.41732283464566927,
                    "duration": 0.9000000000000341
                },
                {
                    "name": "A3",
                    "midi": 57,
                    "time": 440.70000000000476,
                    "velocity": 0.41732283464566927,
                    "duration": 0.9000000000000341
                },
                {
                    "name": "A1",
                    "midi": 33,
                    "time": 441.7500000000048,
                    "velocity": 0.4645669291338583,
                    "duration": 0.14999999999997726
                },
                {
                    "name": "A2",
                    "midi": 45,
                    "time": 441.7500000000048,
                    "velocity": 0.4645669291338583,
                    "duration": 0.14999999999997726
                },
                {
                    "name": "B1",
                    "midi": 35,
                    "time": 441.90000000000475,
                    "velocity": 0.4251968503937008,
                    "duration": 1.8000000000000114
                },
                {
                    "name": "B2",
                    "midi": 47,
                    "time": 441.90000000000475,
                    "velocity": 0.5039370078740157,
                    "duration": 1.8000000000000114
                },
                {
                    "name": "F#4",
                    "midi": 66,
                    "time": 442.95000000000476,
                    "velocity": 0.4251968503937008,
                    "duration": 0.05624999999997726
                },
                {
                    "name": "D4",
                    "midi": 62,
                    "time": 442.95000000000476,
                    "velocity": 0.3543307086614173,
                    "duration": 0.05624999999997726
                },
                {
                    "name": "B3",
                    "midi": 59,
                    "time": 442.95000000000476,
                    "velocity": 0.3543307086614173,
                    "duration": 0.05624999999997726
                },
                {
                    "name": "F#3",
                    "midi": 54,
                    "time": 442.95000000000476,
                    "velocity": 0.3543307086614173,
                    "duration": 0.05624999999997726
                },
                {
                    "name": "F#4",
                    "midi": 66,
                    "time": 443.02500000000475,
                    "velocity": 0.4251968503937008,
                    "duration": 0.05624999999997726
                },
                {
                    "name": "D4",
                    "midi": 62,
                    "time": 443.02500000000475,
                    "velocity": 0.3543307086614173,
                    "duration": 0.05624999999997726
                },
                {
                    "name": "B3",
                    "midi": 59,
                    "time": 443.02500000000475,
                    "velocity": 0.3543307086614173,
                    "duration": 0.05624999999997726
                },
                {
                    "name": "F#3",
                    "midi": 54,
                    "time": 443.02500000000475,
                    "velocity": 0.3543307086614173,
                    "duration": 0.05624999999997726
                },
                {
                    "name": "F#4",
                    "midi": 66,
                    "time": 443.10000000000474,
                    "velocity": 0.48031496062992124,
                    "duration": 0.9000000000000341
                },
                {
                    "name": "D4",
                    "midi": 62,
                    "time": 443.10000000000474,
                    "velocity": 0.4015748031496063,
                    "duration": 0.9000000000000341
                },
                {
                    "name": "B3",
                    "midi": 59,
                    "time": 443.10000000000474,
                    "velocity": 0.4015748031496063,
                    "duration": 0.9000000000000341
                },
                {
                    "name": "F#3",
                    "midi": 54,
                    "time": 443.10000000000474,
                    "velocity": 0.4015748031496063,
                    "duration": 0.9000000000000341
                },
                {
                    "name": "B1",
                    "midi": 35,
                    "time": 444.15000000000475,
                    "velocity": 0.4881889763779528,
                    "duration": 0.14999999999997726
                },
                {
                    "name": "B2",
                    "midi": 47,
                    "time": 444.15000000000475,
                    "velocity": 0.4881889763779528,
                    "duration": 0.14999999999997726
                },
                {
                    "name": "F#1",
                    "midi": 30,
                    "time": 444.30000000000473,
                    "velocity": 0.4015748031496063,
                    "duration": 1.1999999999999886
                },
                {
                    "name": "F#2",
                    "midi": 42,
                    "time": 444.30000000000473,
                    "velocity": 0.47244094488188976,
                    "duration": 1.1999999999999886
                },
                {
                    "name": "F#4",
                    "midi": 66,
                    "time": 444.7500000000047,
                    "velocity": 0.4409448818897638,
                    "duration": 0.05624999999997726
                },
                {
                    "name": "C#4",
                    "midi": 61,
                    "time": 444.7500000000047,
                    "velocity": 0.3700787401574803,
                    "duration": 0.05624999999997726
                },
                {
                    "name": "A#3",
                    "midi": 58,
                    "time": 444.7500000000047,
                    "velocity": 0.3700787401574803,
                    "duration": 0.05624999999997726
                },
                {
                    "name": "F#3",
                    "midi": 54,
                    "time": 444.7500000000047,
                    "velocity": 0.3700787401574803,
                    "duration": 0.05624999999997726
                },
                {
                    "name": "F#4",
                    "midi": 66,
                    "time": 444.8250000000047,
                    "velocity": 0.44881889763779526,
                    "duration": 0.05624999999997726
                },
                {
                    "name": "C#4",
                    "midi": 61,
                    "time": 444.8250000000047,
                    "velocity": 0.3779527559055118,
                    "duration": 0.05624999999997726
                },
                {
                    "name": "A#3",
                    "midi": 58,
                    "time": 444.8250000000047,
                    "velocity": 0.3779527559055118,
                    "duration": 0.05624999999997726
                },
                {
                    "name": "F#3",
                    "midi": 54,
                    "time": 444.8250000000047,
                    "velocity": 0.3779527559055118,
                    "duration": 0.05624999999997726
                },
                {
                    "name": "F#4",
                    "midi": 66,
                    "time": 444.9000000000047,
                    "velocity": 0.49606299212598426,
                    "duration": 0.30000000000001137
                },
                {
                    "name": "C#4",
                    "midi": 61,
                    "time": 444.9000000000047,
                    "velocity": 0.41732283464566927,
                    "duration": 0.30000000000001137
                },
                {
                    "name": "A#3",
                    "midi": 58,
                    "time": 444.9000000000047,
                    "velocity": 0.41732283464566927,
                    "duration": 0.30000000000001137
                },
                {
                    "name": "F#3",
                    "midi": 54,
                    "time": 444.9000000000047,
                    "velocity": 0.41732283464566927,
                    "duration": 0.30000000000001137
                },
                {
                    "name": "A1",
                    "midi": 33,
                    "time": 445.5000000000047,
                    "velocity": 0.4330708661417323,
                    "duration": 0.8999999999999773
                },
                {
                    "name": "A2",
                    "midi": 45,
                    "time": 445.5000000000047,
                    "velocity": 0.5196850393700787,
                    "duration": 0.8999999999999773
                },
                {
                    "name": "A4",
                    "midi": 69,
                    "time": 445.9500000000047,
                    "velocity": 0.4645669291338583,
                    "duration": 0.05624999999997726
                },
                {
                    "name": "E4",
                    "midi": 64,
                    "time": 445.9500000000047,
                    "velocity": 0.3937007874015748,
                    "duration": 0.05624999999997726
                },
                {
                    "name": "C#4",
                    "midi": 61,
                    "time": 445.9500000000047,
                    "velocity": 0.3937007874015748,
                    "duration": 0.05624999999997726
                },
                {
                    "name": "A3",
                    "midi": 57,
                    "time": 445.9500000000047,
                    "velocity": 0.3937007874015748,
                    "duration": 0.05624999999997726
                },
                {
                    "name": "A4",
                    "midi": 69,
                    "time": 446.0250000000047,
                    "velocity": 0.4645669291338583,
                    "duration": 0.05624999999997726
                },
                {
                    "name": "E4",
                    "midi": 64,
                    "time": 446.0250000000047,
                    "velocity": 0.3937007874015748,
                    "duration": 0.05624999999997726
                },
                {
                    "name": "C#4",
                    "midi": 61,
                    "time": 446.0250000000047,
                    "velocity": 0.3937007874015748,
                    "duration": 0.05624999999997726
                },
                {
                    "name": "A3",
                    "midi": 57,
                    "time": 446.0250000000047,
                    "velocity": 0.3937007874015748,
                    "duration": 0.05624999999997726
                },
                {
                    "name": "A4",
                    "midi": 69,
                    "time": 446.1000000000047,
                    "velocity": 0.5118110236220472,
                    "duration": 0.30000000000001137
                },
                {
                    "name": "E4",
                    "midi": 64,
                    "time": 446.1000000000047,
                    "velocity": 0.4330708661417323,
                    "duration": 0.30000000000001137
                },
                {
                    "name": "C#4",
                    "midi": 61,
                    "time": 446.1000000000047,
                    "velocity": 0.4330708661417323,
                    "duration": 0.30000000000001137
                },
                {
                    "name": "A3",
                    "midi": 57,
                    "time": 446.1000000000047,
                    "velocity": 0.4330708661417323,
                    "duration": 0.30000000000001137
                },
                {
                    "name": "D1",
                    "midi": 26,
                    "time": 446.5500000000047,
                    "velocity": 0.4409448818897638,
                    "duration": 0.11250000000001137
                },
                {
                    "name": "A1",
                    "midi": 33,
                    "time": 446.5500000000047,
                    "velocity": 0.4409448818897638,
                    "duration": 0.11250000000001137
                },
                {
                    "name": "D2",
                    "midi": 38,
                    "time": 446.5500000000047,
                    "velocity": 0.5196850393700787,
                    "duration": 0.11250000000001137
                },
                {
                    "name": "D1",
                    "midi": 26,
                    "time": 446.7000000000047,
                    "velocity": 0.4015748031496063,
                    "duration": 2.400000000000091
                },
                {
                    "name": "A1",
                    "midi": 33,
                    "time": 446.7000000000047,
                    "velocity": 0.4015748031496063,
                    "duration": 2.400000000000091
                },
                {
                    "name": "D2",
                    "midi": 38,
                    "time": 446.7000000000047,
                    "velocity": 0.5748031496062992,
                    "duration": 2.400000000000091
                },
                {
                    "name": "A3",
                    "midi": 57,
                    "time": 447.7500000000047,
                    "velocity": 0.4409448818897638,
                    "duration": 0.11250000000001137
                },
                {
                    "name": "D4",
                    "midi": 62,
                    "time": 447.7500000000047,
                    "velocity": 0.4409448818897638,
                    "duration": 0.11250000000001137
                },
                {
                    "name": "F#4",
                    "midi": 66,
                    "time": 447.7500000000047,
                    "velocity": 0.4409448818897638,
                    "duration": 0.11250000000001137
                },
                {
                    "name": "A4",
                    "midi": 69,
                    "time": 447.7500000000047,
                    "velocity": 0.5275590551181102,
                    "duration": 0.11250000000001137
                },
                {
                    "name": "A3",
                    "midi": 57,
                    "time": 447.90000000000475,
                    "velocity": 0.5196850393700787,
                    "duration": 0.30000000000001137
                },
                {
                    "name": "D4",
                    "midi": 62,
                    "time": 447.90000000000475,
                    "velocity": 0.5196850393700787,
                    "duration": 0.30000000000001137
                },
                {
                    "name": "F#4",
                    "midi": 66,
                    "time": 447.90000000000475,
                    "velocity": 0.5196850393700787,
                    "duration": 0.30000000000001137
                },
                {
                    "name": "A4",
                    "midi": 69,
                    "time": 447.90000000000475,
                    "velocity": 0.6141732283464567,
                    "duration": 0.30000000000001137
                },
                {
                    "name": "D5",
                    "midi": 74,
                    "time": 448.35000000000474,
                    "velocity": 0.5511811023622047,
                    "duration": 0.11250000000001137
                },
                {
                    "name": "A4",
                    "midi": 69,
                    "time": 448.35000000000474,
                    "velocity": 0.4645669291338583,
                    "duration": 0.11250000000001137
                },
                {
                    "name": "F#4",
                    "midi": 66,
                    "time": 448.35000000000474,
                    "velocity": 0.4645669291338583,
                    "duration": 0.11250000000001137
                },
                {
                    "name": "D4",
                    "midi": 62,
                    "time": 448.35000000000474,
                    "velocity": 0.4645669291338583,
                    "duration": 0.11250000000001137
                },
                {
                    "name": "D5",
                    "midi": 74,
                    "time": 448.5000000000048,
                    "velocity": 0.6220472440944882,
                    "duration": 0.30000000000001137
                },
                {
                    "name": "A4",
                    "midi": 69,
                    "time": 448.5000000000048,
                    "velocity": 0.5275590551181102,
                    "duration": 0.30000000000001137
                },
                {
                    "name": "F#4",
                    "midi": 66,
                    "time": 448.5000000000048,
                    "velocity": 0.5275590551181102,
                    "duration": 0.30000000000001137
                },
                {
                    "name": "D4",
                    "midi": 62,
                    "time": 448.5000000000048,
                    "velocity": 0.5275590551181102,
                    "duration": 0.30000000000001137
                },
                {
                    "name": "F#4",
                    "midi": 66,
                    "time": 448.95000000000476,
                    "velocity": 0.5590551181102362,
                    "duration": 0.11250000000001137
                },
                {
                    "name": "D4",
                    "midi": 62,
                    "time": 448.95000000000476,
                    "velocity": 0.47244094488188976,
                    "duration": 0.11250000000001137
                },
                {
                    "name": "F#3",
                    "midi": 54,
                    "time": 448.95000000000476,
                    "velocity": 0.47244094488188976,
                    "duration": 0.11250000000001137
                },
                {
                    "name": "F#4",
                    "midi": 66,
                    "time": 449.1000000000048,
                    "velocity": 0.6299212598425197,
                    "duration": 0.30000000000001137
                },
                {
                    "name": "D4",
                    "midi": 62,
                    "time": 449.1000000000048,
                    "velocity": 0.5354330708661418,
                    "duration": 0.30000000000001137
                },
                {
                    "name": "F#3",
                    "midi": 54,
                    "time": 449.1000000000048,
                    "velocity": 0.5354330708661418,
                    "duration": 0.30000000000001137
                },
                {
                    "name": "A4",
                    "midi": 69,
                    "time": 449.5500000000048,
                    "velocity": 0.5511811023622047,
                    "duration": 0.11250000000001137
                },
                {
                    "name": "F#4",
                    "midi": 66,
                    "time": 449.5500000000048,
                    "velocity": 0.4645669291338583,
                    "duration": 0.11250000000001137
                },
                {
                    "name": "D4",
                    "midi": 62,
                    "time": 449.5500000000048,
                    "velocity": 0.4645669291338583,
                    "duration": 0.11250000000001137
                },
                {
                    "name": "A3",
                    "midi": 57,
                    "time": 449.5500000000048,
                    "velocity": 0.4645669291338583,
                    "duration": 0.11250000000001137
                },
                {
                    "name": "A4",
                    "midi": 69,
                    "time": 449.7000000000048,
                    "velocity": 0.6299212598425197,
                    "duration": 0.30000000000001137
                },
                {
                    "name": "F#4",
                    "midi": 66,
                    "time": 449.7000000000048,
                    "velocity": 0.5354330708661418,
                    "duration": 0.30000000000001137
                },
                {
                    "name": "D4",
                    "midi": 62,
                    "time": 449.7000000000048,
                    "velocity": 0.5354330708661418,
                    "duration": 0.30000000000001137
                },
                {
                    "name": "A3",
                    "midi": 57,
                    "time": 449.7000000000048,
                    "velocity": 0.5354330708661418,
                    "duration": 0.30000000000001137
                },
                {
                    "name": "D4",
                    "midi": 62,
                    "time": 450.1500000000048,
                    "velocity": 0.5669291338582677,
                    "duration": 0.11250000000001137
                },
                {
                    "name": "A3",
                    "midi": 57,
                    "time": 450.1500000000048,
                    "velocity": 0.48031496062992124,
                    "duration": 0.11250000000001137
                },
                {
                    "name": "F#3",
                    "midi": 54,
                    "time": 450.1500000000048,
                    "velocity": 0.48031496062992124,
                    "duration": 0.11250000000001137
                },
                {
                    "name": "D3",
                    "midi": 50,
                    "time": 450.1500000000048,
                    "velocity": 0.48031496062992124,
                    "duration": 0.11250000000001137
                },
                {
                    "name": "D4",
                    "midi": 62,
                    "time": 450.30000000000484,
                    "velocity": 0.6220472440944882,
                    "duration": 0.30000000000001137
                },
                {
                    "name": "A3",
                    "midi": 57,
                    "time": 450.30000000000484,
                    "velocity": 0.5275590551181102,
                    "duration": 0.30000000000001137
                },
                {
                    "name": "F#3",
                    "midi": 54,
                    "time": 450.30000000000484,
                    "velocity": 0.5275590551181102,
                    "duration": 0.30000000000001137
                },
                {
                    "name": "D3",
                    "midi": 50,
                    "time": 450.30000000000484,
                    "velocity": 0.5275590551181102,
                    "duration": 0.30000000000001137
                },
                {
                    "name": "F#4",
                    "midi": 66,
                    "time": 450.75000000000483,
                    "velocity": 0.4881889763779528,
                    "duration": 0.11250000000001137
                },
                {
                    "name": "D4",
                    "midi": 62,
                    "time": 450.75000000000483,
                    "velocity": 0.4881889763779528,
                    "duration": 0.11250000000001137
                },
                {
                    "name": "F#3",
                    "midi": 54,
                    "time": 450.75000000000483,
                    "velocity": 0.4881889763779528,
                    "duration": 0.11250000000001137
                },
                {
                    "name": "F#3",
                    "midi": 54,
                    "time": 450.90000000000487,
                    "velocity": 0.5354330708661418,
                    "duration": 0.30000000000001137
                },
                {
                    "name": "D4",
                    "midi": 62,
                    "time": 450.90000000000487,
                    "velocity": 0.5354330708661418,
                    "duration": 0.30000000000001137
                },
                {
                    "name": "F#4",
                    "midi": 66,
                    "time": 450.90000000000487,
                    "velocity": 0.5354330708661418,
                    "duration": 0.30000000000001137
                },
                {
                    "name": "A2",
                    "midi": 45,
                    "time": 451.35000000000485,
                    "velocity": 0.4409448818897638,
                    "duration": 0.11250000000001137
                },
                {
                    "name": "D3",
                    "midi": 50,
                    "time": 451.35000000000485,
                    "velocity": 0.4409448818897638,
                    "duration": 0.11250000000001137
                },
                {
                    "name": "F#3",
                    "midi": 54,
                    "time": 451.35000000000485,
                    "velocity": 0.4409448818897638,
                    "duration": 0.11250000000001137
                },
                {
                    "name": "A3",
                    "midi": 57,
                    "time": 451.35000000000485,
                    "velocity": 0.5275590551181102,
                    "duration": 0.11250000000001137
                },
                {
                    "name": "A2",
                    "midi": 45,
                    "time": 451.5000000000049,
                    "velocity": 0.5196850393700787,
                    "duration": 0.30000000000001137
                },
                {
                    "name": "D3",
                    "midi": 50,
                    "time": 451.5000000000049,
                    "velocity": 0.5196850393700787,
                    "duration": 0.30000000000001137
                },
                {
                    "name": "F#3",
                    "midi": 54,
                    "time": 451.5000000000049,
                    "velocity": 0.5196850393700787,
                    "duration": 0.30000000000001137
                },
                {
                    "name": "A3",
                    "midi": 57,
                    "time": 451.5000000000049,
                    "velocity": 0.6141732283464567,
                    "duration": 0.30000000000001137
                },
                {
                    "name": "D4",
                    "midi": 62,
                    "time": 451.9500000000049,
                    "velocity": 0.5511811023622047,
                    "duration": 0.11250000000001137
                },
                {
                    "name": "A3",
                    "midi": 57,
                    "time": 451.9500000000049,
                    "velocity": 0.4645669291338583,
                    "duration": 0.11250000000001137
                },
                {
                    "name": "F#3",
                    "midi": 54,
                    "time": 451.9500000000049,
                    "velocity": 0.4645669291338583,
                    "duration": 0.11250000000001137
                },
                {
                    "name": "D3",
                    "midi": 50,
                    "time": 451.9500000000049,
                    "velocity": 0.4645669291338583,
                    "duration": 0.11250000000001137
                },
                {
                    "name": "D4",
                    "midi": 62,
                    "time": 452.1000000000049,
                    "velocity": 0.6220472440944882,
                    "duration": 0.30000000000001137
                },
                {
                    "name": "A3",
                    "midi": 57,
                    "time": 452.1000000000049,
                    "velocity": 0.5275590551181102,
                    "duration": 0.30000000000001137
                },
                {
                    "name": "F#3",
                    "midi": 54,
                    "time": 452.1000000000049,
                    "velocity": 0.5275590551181102,
                    "duration": 0.30000000000001137
                },
                {
                    "name": "D3",
                    "midi": 50,
                    "time": 452.1000000000049,
                    "velocity": 0.5275590551181102,
                    "duration": 0.30000000000001137
                },
                {
                    "name": "F#3",
                    "midi": 54,
                    "time": 452.5500000000049,
                    "velocity": 0.5590551181102362,
                    "duration": 0.11250000000001137
                },
                {
                    "name": "D3",
                    "midi": 50,
                    "time": 452.5500000000049,
                    "velocity": 0.47244094488188976,
                    "duration": 0.11250000000001137
                },
                {
                    "name": "F#2",
                    "midi": 42,
                    "time": 452.5500000000049,
                    "velocity": 0.47244094488188976,
                    "duration": 0.11250000000001137
                },
                {
                    "name": "F#3",
                    "midi": 54,
                    "time": 452.70000000000493,
                    "velocity": 0.6299212598425197,
                    "duration": 0.30000000000001137
                },
                {
                    "name": "D3",
                    "midi": 50,
                    "time": 452.70000000000493,
                    "velocity": 0.5354330708661418,
                    "duration": 0.30000000000001137
                },
                {
                    "name": "F#2",
                    "midi": 42,
                    "time": 452.70000000000493,
                    "velocity": 0.5354330708661418,
                    "duration": 0.30000000000001137
                },
                {
                    "name": "A3",
                    "midi": 57,
                    "time": 453.1500000000049,
                    "velocity": 0.5511811023622047,
                    "duration": 0.11250000000001137
                },
                {
                    "name": "F#3",
                    "midi": 54,
                    "time": 453.1500000000049,
                    "velocity": 0.4645669291338583,
                    "duration": 0.11250000000001137
                },
                {
                    "name": "D3",
                    "midi": 50,
                    "time": 453.1500000000049,
                    "velocity": 0.4645669291338583,
                    "duration": 0.11250000000001137
                },
                {
                    "name": "A2",
                    "midi": 45,
                    "time": 453.1500000000049,
                    "velocity": 0.4645669291338583,
                    "duration": 0.11250000000001137
                },
                {
                    "name": "A3",
                    "midi": 57,
                    "time": 453.30000000000496,
                    "velocity": 0.6299212598425197,
                    "duration": 0.30000000000001137
                },
                {
                    "name": "F#3",
                    "midi": 54,
                    "time": 453.30000000000496,
                    "velocity": 0.5354330708661418,
                    "duration": 0.30000000000001137
                },
                {
                    "name": "D3",
                    "midi": 50,
                    "time": 453.30000000000496,
                    "velocity": 0.5354330708661418,
                    "duration": 0.30000000000001137
                },
                {
                    "name": "A2",
                    "midi": 45,
                    "time": 453.30000000000496,
                    "velocity": 0.5354330708661418,
                    "duration": 0.30000000000001137
                },
                {
                    "name": "D3",
                    "midi": 50,
                    "time": 453.75000000000495,
                    "velocity": 0.5669291338582677,
                    "duration": 0.11250000000001137
                },
                {
                    "name": "A2",
                    "midi": 45,
                    "time": 453.75000000000495,
                    "velocity": 0.48031496062992124,
                    "duration": 0.11250000000001137
                },
                {
                    "name": "F#2",
                    "midi": 42,
                    "time": 453.75000000000495,
                    "velocity": 0.48031496062992124,
                    "duration": 0.11250000000001137
                },
                {
                    "name": "D2",
                    "midi": 38,
                    "time": 453.75000000000495,
                    "velocity": 0.48031496062992124,
                    "duration": 0.11250000000001137
                },
                {
                    "name": "D3",
                    "midi": 50,
                    "time": 453.900000000005,
                    "velocity": 0.6220472440944882,
                    "duration": 0.30000000000001137
                },
                {
                    "name": "A2",
                    "midi": 45,
                    "time": 453.900000000005,
                    "velocity": 0.5275590551181102,
                    "duration": 0.30000000000001137
                },
                {
                    "name": "F#2",
                    "midi": 42,
                    "time": 453.900000000005,
                    "velocity": 0.5275590551181102,
                    "duration": 0.30000000000001137
                },
                {
                    "name": "D2",
                    "midi": 38,
                    "time": 453.900000000005,
                    "velocity": 0.5275590551181102,
                    "duration": 0.30000000000001137
                },
                {
                    "name": "F#3",
                    "midi": 54,
                    "time": 454.35000000000497,
                    "velocity": 0.5826771653543307,
                    "duration": 0.11250000000001137
                },
                {
                    "name": "D3",
                    "midi": 50,
                    "time": 454.35000000000497,
                    "velocity": 0.4881889763779528,
                    "duration": 0.11250000000001137
                },
                {
                    "name": "F#2",
                    "midi": 42,
                    "time": 454.35000000000497,
                    "velocity": 0.4881889763779528,
                    "duration": 0.11250000000001137
                },
                {
                    "name": "F#2",
                    "midi": 42,
                    "time": 454.500000000005,
                    "velocity": 0.5354330708661418,
                    "duration": 0.30000000000001137
                },
                {
                    "name": "D3",
                    "midi": 50,
                    "time": 454.500000000005,
                    "velocity": 0.5354330708661418,
                    "duration": 0.30000000000001137
                },
                {
                    "name": "F#3",
                    "midi": 54,
                    "time": 454.500000000005,
                    "velocity": 0.6377952755905512,
                    "duration": 0.30000000000001137
                },
                {
                    "name": "A1",
                    "midi": 33,
                    "time": 454.950000000005,
                    "velocity": 0.4409448818897638,
                    "duration": 0.11250000000001137
                },
                {
                    "name": "D2",
                    "midi": 38,
                    "time": 454.950000000005,
                    "velocity": 0.4409448818897638,
                    "duration": 0.11250000000001137
                },
                {
                    "name": "F#2",
                    "midi": 42,
                    "time": 454.950000000005,
                    "velocity": 0.4409448818897638,
                    "duration": 0.11250000000001137
                },
                {
                    "name": "A2",
                    "midi": 45,
                    "time": 454.950000000005,
                    "velocity": 0.5275590551181102,
                    "duration": 0.11250000000001137
                },
                {
                    "name": "A1",
                    "midi": 33,
                    "time": 455.100000000005,
                    "velocity": 0.5196850393700787,
                    "duration": 0.30000000000001137
                },
                {
                    "name": "D2",
                    "midi": 38,
                    "time": 455.100000000005,
                    "velocity": 0.5196850393700787,
                    "duration": 0.30000000000001137
                },
                {
                    "name": "F#2",
                    "midi": 42,
                    "time": 455.100000000005,
                    "velocity": 0.5196850393700787,
                    "duration": 0.30000000000001137
                },
                {
                    "name": "A2",
                    "midi": 45,
                    "time": 455.100000000005,
                    "velocity": 0.6141732283464567,
                    "duration": 0.30000000000001137
                },
                {
                    "name": "D3",
                    "midi": 50,
                    "time": 455.550000000005,
                    "velocity": 0.5511811023622047,
                    "duration": 0.11250000000001137
                },
                {
                    "name": "A2",
                    "midi": 45,
                    "time": 455.550000000005,
                    "velocity": 0.4645669291338583,
                    "duration": 0.11250000000001137
                },
                {
                    "name": "F#2",
                    "midi": 42,
                    "time": 455.550000000005,
                    "velocity": 0.4645669291338583,
                    "duration": 0.11250000000001137
                },
                {
                    "name": "D2",
                    "midi": 38,
                    "time": 455.550000000005,
                    "velocity": 0.4645669291338583,
                    "duration": 0.11250000000001137
                },
                {
                    "name": "D3",
                    "midi": 50,
                    "time": 455.70000000000505,
                    "velocity": 0.6220472440944882,
                    "duration": 0.30000000000001137
                },
                {
                    "name": "A2",
                    "midi": 45,
                    "time": 455.70000000000505,
                    "velocity": 0.5275590551181102,
                    "duration": 0.30000000000001137
                },
                {
                    "name": "F#2",
                    "midi": 42,
                    "time": 455.70000000000505,
                    "velocity": 0.5275590551181102,
                    "duration": 0.30000000000001137
                },
                {
                    "name": "D2",
                    "midi": 38,
                    "time": 455.70000000000505,
                    "velocity": 0.5275590551181102,
                    "duration": 0.30000000000001137
                },
                {
                    "name": "F#2",
                    "midi": 42,
                    "time": 456.15000000000504,
                    "velocity": 0.5590551181102362,
                    "duration": 0.11250000000001137
                },
                {
                    "name": "D2",
                    "midi": 38,
                    "time": 456.15000000000504,
                    "velocity": 0.47244094488188976,
                    "duration": 0.11250000000001137
                },
                {
                    "name": "F#1",
                    "midi": 30,
                    "time": 456.15000000000504,
                    "velocity": 0.47244094488188976,
                    "duration": 0.11250000000001137
                },
                {
                    "name": "F#2",
                    "midi": 42,
                    "time": 456.30000000000507,
                    "velocity": 0.6299212598425197,
                    "duration": 0.30000000000001137
                },
                {
                    "name": "D2",
                    "midi": 38,
                    "time": 456.30000000000507,
                    "velocity": 0.5354330708661418,
                    "duration": 0.30000000000001137
                },
                {
                    "name": "F#1",
                    "midi": 30,
                    "time": 456.30000000000507,
                    "velocity": 0.5354330708661418,
                    "duration": 0.30000000000001137
                },
                {
                    "name": "A2",
                    "midi": 45,
                    "time": 456.75000000000506,
                    "velocity": 0.5511811023622047,
                    "duration": 0.11250000000001137
                },
                {
                    "name": "F#2",
                    "midi": 42,
                    "time": 456.75000000000506,
                    "velocity": 0.4645669291338583,
                    "duration": 0.11250000000001137
                },
                {
                    "name": "D2",
                    "midi": 38,
                    "time": 456.75000000000506,
                    "velocity": 0.4645669291338583,
                    "duration": 0.11250000000001137
                },
                {
                    "name": "A1",
                    "midi": 33,
                    "time": 456.75000000000506,
                    "velocity": 0.4645669291338583,
                    "duration": 0.11250000000001137
                },
                {
                    "name": "A2",
                    "midi": 45,
                    "time": 456.9000000000051,
                    "velocity": 0.6299212598425197,
                    "duration": 0.30000000000001137
                },
                {
                    "name": "F#2",
                    "midi": 42,
                    "time": 456.9000000000051,
                    "velocity": 0.5354330708661418,
                    "duration": 0.30000000000001137
                },
                {
                    "name": "D2",
                    "midi": 38,
                    "time": 456.9000000000051,
                    "velocity": 0.5354330708661418,
                    "duration": 0.30000000000001137
                },
                {
                    "name": "A1",
                    "midi": 33,
                    "time": 456.9000000000051,
                    "velocity": 0.5354330708661418,
                    "duration": 0.30000000000001137
                },
                {
                    "name": "D1",
                    "midi": 26,
                    "time": 457.3500000000051,
                    "velocity": 0.4015748031496063,
                    "duration": 0.11250000000001137
                },
                {
                    "name": "A1",
                    "midi": 33,
                    "time": 457.3500000000051,
                    "velocity": 0.4015748031496063,
                    "duration": 0.11250000000001137
                },
                {
                    "name": "D2",
                    "midi": 38,
                    "time": 457.3500000000051,
                    "velocity": 0.48031496062992124,
                    "duration": 0.11250000000001137
                },
                {
                    "name": "D1",
                    "midi": 26,
                    "time": 457.5000000000051,
                    "velocity": 0.4409448818897638,
                    "duration": 0.2699999999999818
                },
                {
                    "name": "A1",
                    "midi": 33,
                    "time": 457.5000000000051,
                    "velocity": 0.4409448818897638,
                    "duration": 0.2699999999999818
                },
                {
                    "name": "D2",
                    "midi": 38,
                    "time": 457.5000000000051,
                    "velocity": 0.5275590551181102,
                    "duration": 0.2699999999999818
                },
                {
                    "name": "D1",
                    "midi": 26,
                    "time": 457.80000000000507,
                    "velocity": 0.4015748031496063,
                    "duration": 0.2699999999999818
                },
                {
                    "name": "A#1",
                    "midi": 34,
                    "time": 457.80000000000507,
                    "velocity": 0.4015748031496063,
                    "duration": 0.2699999999999818
                },
                {
                    "name": "D2",
                    "midi": 38,
                    "time": 457.80000000000507,
                    "velocity": 0.48031496062992124,
                    "duration": 0.2699999999999818
                },
                {
                    "name": "D1",
                    "midi": 26,
                    "time": 458.100000000005,
                    "velocity": 0.4409448818897638,
                    "duration": 0.2699999999999818
                },
                {
                    "name": "A1",
                    "midi": 33,
                    "time": 458.100000000005,
                    "velocity": 0.4409448818897638,
                    "duration": 0.2699999999999818
                },
                {
                    "name": "D2",
                    "midi": 38,
                    "time": 458.100000000005,
                    "velocity": 0.5275590551181102,
                    "duration": 0.2699999999999818
                },
                {
                    "name": "D1",
                    "midi": 26,
                    "time": 458.400000000005,
                    "velocity": 0.4015748031496063,
                    "duration": 0.2699999999999818
                },
                {
                    "name": "A#1",
                    "midi": 34,
                    "time": 458.400000000005,
                    "velocity": 0.4015748031496063,
                    "duration": 0.2699999999999818
                },
                {
                    "name": "D2",
                    "midi": 38,
                    "time": 458.400000000005,
                    "velocity": 0.48031496062992124,
                    "duration": 0.2699999999999818
                },
                {
                    "name": "D1",
                    "midi": 26,
                    "time": 458.70000000000493,
                    "velocity": 0.4409448818897638,
                    "duration": 0.2699999999999818
                },
                {
                    "name": "A1",
                    "midi": 33,
                    "time": 458.70000000000493,
                    "velocity": 0.4409448818897638,
                    "duration": 0.2699999999999818
                },
                {
                    "name": "D2",
                    "midi": 38,
                    "time": 458.70000000000493,
                    "velocity": 0.5275590551181102,
                    "duration": 0.2699999999999818
                },
                {
                    "name": "D1",
                    "midi": 26,
                    "time": 459.0000000000049,
                    "velocity": 0.4015748031496063,
                    "duration": 0.2699999999999818
                },
                {
                    "name": "A#1",
                    "midi": 34,
                    "time": 459.0000000000049,
                    "velocity": 0.4015748031496063,
                    "duration": 0.2699999999999818
                },
                {
                    "name": "D2",
                    "midi": 38,
                    "time": 459.0000000000049,
                    "velocity": 0.48031496062992124,
                    "duration": 0.2699999999999818
                },
                {
                    "name": "D1",
                    "midi": 26,
                    "time": 459.30000000000484,
                    "velocity": 0.4409448818897638,
                    "duration": 0.2699999999999818
                },
                {
                    "name": "A1",
                    "midi": 33,
                    "time": 459.30000000000484,
                    "velocity": 0.4409448818897638,
                    "duration": 0.2699999999999818
                },
                {
                    "name": "D2",
                    "midi": 38,
                    "time": 459.30000000000484,
                    "velocity": 0.5275590551181102,
                    "duration": 0.2699999999999818
                },
                {
                    "name": "D1",
                    "midi": 26,
                    "time": 459.6000000000048,
                    "velocity": 0.4015748031496063,
                    "duration": 0.2699999999999818
                },
                {
                    "name": "A#1",
                    "midi": 34,
                    "time": 459.6000000000048,
                    "velocity": 0.4015748031496063,
                    "duration": 0.2699999999999818
                },
                {
                    "name": "D2",
                    "midi": 38,
                    "time": 459.6000000000048,
                    "velocity": 0.48031496062992124,
                    "duration": 0.2699999999999818
                },
                {
                    "name": "D1",
                    "midi": 26,
                    "time": 459.90000000000475,
                    "velocity": 0.4409448818897638,
                    "duration": 0.22500000000002274
                },
                {
                    "name": "A1",
                    "midi": 33,
                    "time": 459.90000000000475,
                    "velocity": 0.4409448818897638,
                    "duration": 0.22500000000002274
                },
                {
                    "name": "D2",
                    "midi": 38,
                    "time": 459.90000000000475,
                    "velocity": 0.5275590551181102,
                    "duration": 0.22500000000002274
                },
                {
                    "name": "D1",
                    "midi": 26,
                    "time": 460.20000000000476,
                    "velocity": 0.4015748031496063,
                    "duration": 0.22500000000002274
                },
                {
                    "name": "A#1",
                    "midi": 34,
                    "time": 460.20000000000476,
                    "velocity": 0.4015748031496063,
                    "duration": 0.22500000000002274
                },
                {
                    "name": "D2",
                    "midi": 38,
                    "time": 460.20000000000476,
                    "velocity": 0.48031496062992124,
                    "duration": 0.22500000000002274
                },
                {
                    "name": "D1",
                    "midi": 26,
                    "time": 460.5000000000048,
                    "velocity": 0.4409448818897638,
                    "duration": 0.22500000000002274
                },
                {
                    "name": "A1",
                    "midi": 33,
                    "time": 460.5000000000048,
                    "velocity": 0.4409448818897638,
                    "duration": 0.22500000000002274
                },
                {
                    "name": "D2",
                    "midi": 38,
                    "time": 460.5000000000048,
                    "velocity": 0.5275590551181102,
                    "duration": 0.22500000000002274
                },
                {
                    "name": "D1",
                    "midi": 26,
                    "time": 460.8000000000048,
                    "velocity": 0.4015748031496063,
                    "duration": 0.22500000000002274
                },
                {
                    "name": "A#1",
                    "midi": 34,
                    "time": 460.8000000000048,
                    "velocity": 0.4015748031496063,
                    "duration": 0.22500000000002274
                },
                {
                    "name": "D2",
                    "midi": 38,
                    "time": 460.8000000000048,
                    "velocity": 0.48031496062992124,
                    "duration": 0.22500000000002274
                },
                {
                    "name": "D1",
                    "midi": 26,
                    "time": 461.1000000000048,
                    "velocity": 0.41732283464566927,
                    "duration": 0.6000000000000227
                },
                {
                    "name": "A1",
                    "midi": 33,
                    "time": 461.1000000000048,
                    "velocity": 0.41732283464566927,
                    "duration": 0.6000000000000227
                },
                {
                    "name": "D2",
                    "midi": 38,
                    "time": 461.1000000000048,
                    "velocity": 0.49606299212598426,
                    "duration": 0.6000000000000227
                },
                {
                    "name": "F#2",
                    "midi": 42,
                    "time": 461.7000000000048,
                    "velocity": 0.47244094488188976,
                    "duration": 0.6000000000000227
                },
                {
                    "name": "D2",
                    "midi": 38,
                    "time": 461.7000000000048,
                    "velocity": 0.47244094488188976,
                    "duration": 0.6000000000000227
                },
                {
                    "name": "A2",
                    "midi": 45,
                    "time": 461.7000000000048,
                    "velocity": 0.47244094488188976,
                    "duration": 0.6000000000000227
                },
                {
                    "name": "D3",
                    "midi": 50,
                    "time": 461.7000000000048,
                    "velocity": 0.5590551181102362,
                    "duration": 0.6000000000000227
                },
                {
                    "name": "F#3",
                    "midi": 54,
                    "time": 462.30000000000484,
                    "velocity": 0.4881889763779528,
                    "duration": 0.6000000000000227
                },
                {
                    "name": "D3",
                    "midi": 50,
                    "time": 462.30000000000484,
                    "velocity": 0.4881889763779528,
                    "duration": 0.6000000000000227
                },
                {
                    "name": "A3",
                    "midi": 57,
                    "time": 462.30000000000484,
                    "velocity": 0.4881889763779528,
                    "duration": 0.6000000000000227
                },
                {
                    "name": "D4",
                    "midi": 62,
                    "time": 462.30000000000484,
                    "velocity": 0.5826771653543307,
                    "duration": 0.6000000000000227
                },
                {
                    "name": "F#4",
                    "midi": 66,
                    "time": 462.90000000000487,
                    "velocity": 0.5039370078740157,
                    "duration": 0.6000000000000227
                },
                {
                    "name": "D4",
                    "midi": 62,
                    "time": 462.90000000000487,
                    "velocity": 0.5039370078740157,
                    "duration": 0.6000000000000227
                },
                {
                    "name": "A4",
                    "midi": 69,
                    "time": 462.90000000000487,
                    "velocity": 0.5039370078740157,
                    "duration": 0.6000000000000227
                },
                {
                    "name": "D5",
                    "midi": 74,
                    "time": 462.90000000000487,
                    "velocity": 0.6062992125984252,
                    "duration": 0.6000000000000227
                },
                {
                    "name": "D1",
                    "midi": 26,
                    "time": 463.5000000000049,
                    "velocity": 0.6377952755905512,
                    "duration": 2.3999999999999773
                },
                {
                    "name": "D2",
                    "midi": 38,
                    "time": 463.5000000000049,
                    "velocity": 0.6377952755905512,
                    "duration": 2.3999999999999773
                },
                {
                    "name": "D3",
                    "midi": 50,
                    "time": 463.5000000000049,
                    "velocity": 0.7559055118110236,
                    "duration": 2.3999999999999773
                }
            ],
            "controlChanges": {
                "91": [
                    {
                        "number": 91,
                        "time": 0,
                        "value": 1
                    }
                ]
            },
            "id": 2,
            "name": "Piano left",
            "instrumentNumber": 0,
            "instrument": "acoustic grand piano",
            "instrumentFamily": "piano",
            "channelNumber": 0,
            "isPercussion": false
        },
        {
            "startTime": 0,
            "duration": 0,
            "length": 0,
            "notes": [],
            "controlChanges": {
                "64": [
                    {
                        "number": 64,
                        "time": 0.33999999999999997,
                        "value": 1
                    },
                    {
                        "number": 64,
                        "time": 0.9687499999999999,
                        "value": 0
                    },
                    {
                        "number": 64,
                        "time": 1.565,
                        "value": 1
                    },
                    {
                        "number": 64,
                        "time": 2.13625,
                        "value": 0
                    },
                    {
                        "number": 64,
                        "time": 2.82875,
                        "value": 1
                    },
                    {
                        "number": 64,
                        "time": 3.315,
                        "value": 0
                    },
                    {
                        "number": 64,
                        "time": 3.44,
                        "value": 1
                    },
                    {
                        "number": 64,
                        "time": 3.88625,
                        "value": 0
                    },
                    {
                        "number": 64,
                        "time": 4.05,
                        "value": 1
                    },
                    {
                        "number": 64,
                        "time": 4.49,
                        "value": 0
                    },
                    {
                        "number": 64,
                        "time": 4.6325,
                        "value": 1
                    },
                    {
                        "number": 64,
                        "time": 5.0287500000000005,
                        "value": 0
                    },
                    {
                        "number": 64,
                        "time": 5.24375,
                        "value": 1
                    },
                    {
                        "number": 64,
                        "time": 5.715,
                        "value": 0
                    },
                    {
                        "number": 64,
                        "time": 5.935,
                        "value": 1
                    },
                    {
                        "number": 64,
                        "time": 6.2924999999999995,
                        "value": 0
                    },
                    {
                        "number": 64,
                        "time": 6.539999999999999,
                        "value": 1
                    },
                    {
                        "number": 64,
                        "time": 6.869999999999999,
                        "value": 0
                    },
                    {
                        "number": 64,
                        "time": 7.0562499999999995,
                        "value": 1
                    },
                    {
                        "number": 64,
                        "time": 7.614999999999999,
                        "value": 0
                    },
                    {
                        "number": 64,
                        "time": 8.417499999999999,
                        "value": 1
                    },
                    {
                        "number": 64,
                        "time": 8.951249999999998,
                        "value": 0
                    },
                    {
                        "number": 64,
                        "time": 9.631249999999998,
                        "value": 1
                    },
                    {
                        "number": 64,
                        "time": 10.344999999999997,
                        "value": 0
                    },
                    {
                        "number": 64,
                        "time": 21.599999999999994,
                        "value": 1
                    },
                    {
                        "number": 64,
                        "time": 23.412499999999994,
                        "value": 0
                    },
                    {
                        "number": 64,
                        "time": 23.453749999999996,
                        "value": 1
                    },
                    {
                        "number": 64,
                        "time": 24.299999999999997,
                        "value": 0
                    },
                    {
                        "number": 64,
                        "time": 24.366249999999997,
                        "value": 1
                    },
                    {
                        "number": 64,
                        "time": 25.523749999999996,
                        "value": 0
                    },
                    {
                        "number": 64,
                        "time": 25.646249999999995,
                        "value": 1
                    },
                    {
                        "number": 64,
                        "time": 26.709999999999994,
                        "value": 0
                    },
                    {
                        "number": 64,
                        "time": 26.894999999999992,
                        "value": 1
                    },
                    {
                        "number": 64,
                        "time": 27.928749999999994,
                        "value": 0
                    },
                    {
                        "number": 64,
                        "time": 28.138749999999995,
                        "value": 1
                    },
                    {
                        "number": 64,
                        "time": 29.108749999999993,
                        "value": 0
                    },
                    {
                        "number": 64,
                        "time": 29.229999999999993,
                        "value": 1
                    },
                    {
                        "number": 64,
                        "time": 30.324999999999992,
                        "value": 0
                    },
                    {
                        "number": 64,
                        "time": 30.417499999999993,
                        "value": 1
                    },
                    {
                        "number": 64,
                        "time": 31.509999999999994,
                        "value": 0
                    },
                    {
                        "number": 64,
                        "time": 31.676249999999996,
                        "value": 1
                    },
                    {
                        "number": 64,
                        "time": 32.716249999999995,
                        "value": 0
                    },
                    {
                        "number": 64,
                        "time": 32.925,
                        "value": 1
                    },
                    {
                        "number": 64,
                        "time": 33.912499999999994,
                        "value": 0
                    },
                    {
                        "number": 64,
                        "time": 34.01499999999999,
                        "value": 1
                    },
                    {
                        "number": 64,
                        "time": 35.122499999999995,
                        "value": 0
                    },
                    {
                        "number": 64,
                        "time": 35.214999999999996,
                        "value": 1
                    },
                    {
                        "number": 64,
                        "time": 36.3,
                        "value": 0
                    },
                    {
                        "number": 64,
                        "time": 36.481249999999996,
                        "value": 1
                    },
                    {
                        "number": 64,
                        "time": 37.5575,
                        "value": 0
                    },
                    {
                        "number": 64,
                        "time": 37.66375,
                        "value": 1
                    },
                    {
                        "number": 64,
                        "time": 38.70875,
                        "value": 0
                    },
                    {
                        "number": 64,
                        "time": 38.846250000000005,
                        "value": 1
                    },
                    {
                        "number": 64,
                        "time": 39.9125,
                        "value": 0
                    },
                    {
                        "number": 64,
                        "time": 39.97375,
                        "value": 1
                    },
                    {
                        "number": 64,
                        "time": 41.111250000000005,
                        "value": 0
                    },
                    {
                        "number": 64,
                        "time": 41.31250000000001,
                        "value": 1
                    },
                    {
                        "number": 64,
                        "time": 42.316250000000004,
                        "value": 0
                    },
                    {
                        "number": 64,
                        "time": 42.423750000000005,
                        "value": 1
                    },
                    {
                        "number": 64,
                        "time": 43.511250000000004,
                        "value": 0
                    },
                    {
                        "number": 64,
                        "time": 43.67625,
                        "value": 1
                    },
                    {
                        "number": 64,
                        "time": 44.720000000000006,
                        "value": 0
                    },
                    {
                        "number": 64,
                        "time": 44.85000000000001,
                        "value": 1
                    },
                    {
                        "number": 64,
                        "time": 45.91250000000001,
                        "value": 0
                    },
                    {
                        "number": 64,
                        "time": 45.98500000000001,
                        "value": 1
                    },
                    {
                        "number": 64,
                        "time": 47.112500000000004,
                        "value": 0
                    },
                    {
                        "number": 64,
                        "time": 47.19375,
                        "value": 1
                    },
                    {
                        "number": 64,
                        "time": 48.31,
                        "value": 0
                    },
                    {
                        "number": 64,
                        "time": 48.3975,
                        "value": 1
                    },
                    {
                        "number": 64,
                        "time": 49.51375,
                        "value": 0
                    },
                    {
                        "number": 64,
                        "time": 49.6175,
                        "value": 1
                    },
                    {
                        "number": 64,
                        "time": 50.71375,
                        "value": 0
                    },
                    {
                        "number": 64,
                        "time": 50.849999999999994,
                        "value": 1
                    },
                    {
                        "number": 64,
                        "time": 51.91624999999999,
                        "value": 0
                    },
                    {
                        "number": 64,
                        "time": 52.02874999999999,
                        "value": 1
                    },
                    {
                        "number": 64,
                        "time": 53.108749999999986,
                        "value": 0
                    },
                    {
                        "number": 64,
                        "time": 53.267499999999984,
                        "value": 1
                    },
                    {
                        "number": 64,
                        "time": 54.31749999999998,
                        "value": 0
                    },
                    {
                        "number": 64,
                        "time": 54.39749999999998,
                        "value": 1
                    },
                    {
                        "number": 64,
                        "time": 55.51124999999998,
                        "value": 0
                    },
                    {
                        "number": 64,
                        "time": 55.64624999999998,
                        "value": 1
                    },
                    {
                        "number": 64,
                        "time": 56.71624999999998,
                        "value": 0
                    },
                    {
                        "number": 64,
                        "time": 56.84999999999998,
                        "value": 1
                    },
                    {
                        "number": 64,
                        "time": 57.91124999999998,
                        "value": 0
                    },
                    {
                        "number": 64,
                        "time": 58.04999999999998,
                        "value": 1
                    },
                    {
                        "number": 64,
                        "time": 59.11249999999998,
                        "value": 0
                    },
                    {
                        "number": 64,
                        "time": 59.22499999999998,
                        "value": 1
                    },
                    {
                        "number": 64,
                        "time": 60.29999999999998,
                        "value": 0
                    },
                    {
                        "number": 64,
                        "time": 60.40999999999998,
                        "value": 1
                    },
                    {
                        "number": 64,
                        "time": 60.55124999999998,
                        "value": 0
                    },
                    {
                        "number": 64,
                        "time": 60.953749999999985,
                        "value": 1
                    },
                    {
                        "number": 64,
                        "time": 61.50249999999998,
                        "value": 0
                    },
                    {
                        "number": 64,
                        "time": 61.57499999999998,
                        "value": 1
                    },
                    {
                        "number": 64,
                        "time": 62.111249999999984,
                        "value": 0
                    },
                    {
                        "number": 64,
                        "time": 62.188749999999985,
                        "value": 1
                    },
                    {
                        "number": 64,
                        "time": 62.711249999999986,
                        "value": 0
                    },
                    {
                        "number": 64,
                        "time": 62.82374999999998,
                        "value": 1
                    },
                    {
                        "number": 64,
                        "time": 63.32374999999998,
                        "value": 0
                    },
                    {
                        "number": 64,
                        "time": 63.423749999999984,
                        "value": 1
                    },
                    {
                        "number": 64,
                        "time": 63.90874999999998,
                        "value": 0
                    },
                    {
                        "number": 64,
                        "time": 64.00749999999998,
                        "value": 1
                    },
                    {
                        "number": 64,
                        "time": 64.22874999999998,
                        "value": 0
                    },
                    {
                        "number": 64,
                        "time": 64.56499999999998,
                        "value": 1
                    },
                    {
                        "number": 64,
                        "time": 65.11124999999998,
                        "value": 0
                    },
                    {
                        "number": 64,
                        "time": 65.21499999999999,
                        "value": 1
                    },
                    {
                        "number": 64,
                        "time": 65.71249999999999,
                        "value": 0
                    },
                    {
                        "number": 64,
                        "time": 65.8,
                        "value": 1
                    },
                    {
                        "number": 64,
                        "time": 66.31125,
                        "value": 0
                    },
                    {
                        "number": 64,
                        "time": 66.42125,
                        "value": 1
                    },
                    {
                        "number": 64,
                        "time": 66.90875,
                        "value": 0
                    },
                    {
                        "number": 64,
                        "time": 67.03625,
                        "value": 1
                    },
                    {
                        "number": 64,
                        "time": 67.50999999999999,
                        "value": 0
                    },
                    {
                        "number": 64,
                        "time": 67.58624999999999,
                        "value": 1
                    },
                    {
                        "number": 64,
                        "time": 67.8,
                        "value": 0
                    },
                    {
                        "number": 64,
                        "time": 68.13625,
                        "value": 1
                    },
                    {
                        "number": 64,
                        "time": 68.71125,
                        "value": 0
                    },
                    {
                        "number": 64,
                        "time": 68.84375,
                        "value": 1
                    },
                    {
                        "number": 64,
                        "time": 68.9575,
                        "value": 0
                    },
                    {
                        "number": 64,
                        "time": 69.35,
                        "value": 1
                    },
                    {
                        "number": 64,
                        "time": 69.91499999999999,
                        "value": 0
                    },
                    {
                        "number": 64,
                        "time": 70.02874999999999,
                        "value": 1
                    },
                    {
                        "number": 64,
                        "time": 70.18624999999999,
                        "value": 0
                    },
                    {
                        "number": 64,
                        "time": 70.59999999999998,
                        "value": 1
                    },
                    {
                        "number": 64,
                        "time": 71.10999999999999,
                        "value": 0
                    },
                    {
                        "number": 64,
                        "time": 71.35749999999999,
                        "value": 1
                    },
                    {
                        "number": 64,
                        "time": 71.54124999999999,
                        "value": 0
                    },
                    {
                        "number": 64,
                        "time": 71.77499999999999,
                        "value": 1
                    },
                    {
                        "number": 64,
                        "time": 73.12499999999999,
                        "value": 0
                    },
                    {
                        "number": 64,
                        "time": 73.17374999999998,
                        "value": 1
                    },
                    {
                        "number": 64,
                        "time": 73.53124999999999,
                        "value": 0
                    },
                    {
                        "number": 64,
                        "time": 73.57124999999999,
                        "value": 1
                    },
                    {
                        "number": 64,
                        "time": 73.93624999999999,
                        "value": 0
                    },
                    {
                        "number": 64,
                        "time": 74.06499999999998,
                        "value": 1
                    },
                    {
                        "number": 64,
                        "time": 74.72124999999998,
                        "value": 0
                    },
                    {
                        "number": 64,
                        "time": 75.37499999999999,
                        "value": 1
                    },
                    {
                        "number": 64,
                        "time": 76.50374999999998,
                        "value": 0
                    },
                    {
                        "number": 64,
                        "time": 76.56624999999998,
                        "value": 1
                    },
                    {
                        "number": 64,
                        "time": 76.90999999999998,
                        "value": 0
                    },
                    {
                        "number": 64,
                        "time": 76.98124999999999,
                        "value": 1
                    },
                    {
                        "number": 64,
                        "time": 77.30749999999999,
                        "value": 0
                    },
                    {
                        "number": 64,
                        "time": 77.365,
                        "value": 1
                    },
                    {
                        "number": 64,
                        "time": 78.32124999999999,
                        "value": 0
                    },
                    {
                        "number": 64,
                        "time": 78.89999999999999,
                        "value": 1
                    },
                    {
                        "number": 64,
                        "time": 80.1125,
                        "value": 0
                    },
                    {
                        "number": 64,
                        "time": 80.1625,
                        "value": 1
                    },
                    {
                        "number": 64,
                        "time": 81.10624999999999,
                        "value": 0
                    },
                    {
                        "number": 64,
                        "time": 81.195,
                        "value": 1
                    },
                    {
                        "number": 64,
                        "time": 82.12374999999999,
                        "value": 0
                    },
                    {
                        "number": 64,
                        "time": 82.17875,
                        "value": 1
                    },
                    {
                        "number": 64,
                        "time": 83.30874999999999,
                        "value": 0
                    },
                    {
                        "number": 64,
                        "time": 83.42124999999999,
                        "value": 1
                    },
                    {
                        "number": 64,
                        "time": 85.50999999999999,
                        "value": 0
                    },
                    {
                        "number": 64,
                        "time": 85.59374999999999,
                        "value": 1
                    },
                    {
                        "number": 64,
                        "time": 90.91124999999998,
                        "value": 0
                    },
                    {
                        "number": 64,
                        "time": 90.98624999999998,
                        "value": 1
                    },
                    {
                        "number": 64,
                        "time": 92.70749999999998,
                        "value": 0
                    },
                    {
                        "number": 64,
                        "time": 92.80999999999999,
                        "value": 1
                    },
                    {
                        "number": 64,
                        "time": 93.92374999999998,
                        "value": 0
                    },
                    {
                        "number": 64,
                        "time": 94.04624999999999,
                        "value": 1
                    },
                    {
                        "number": 64,
                        "time": 95.11124999999998,
                        "value": 0
                    },
                    {
                        "number": 64,
                        "time": 95.29499999999999,
                        "value": 1
                    },
                    {
                        "number": 64,
                        "time": 96.32874999999999,
                        "value": 0
                    },
                    {
                        "number": 64,
                        "time": 96.53874999999998,
                        "value": 1
                    },
                    {
                        "number": 64,
                        "time": 97.50874999999998,
                        "value": 0
                    },
                    {
                        "number": 64,
                        "time": 97.62999999999998,
                        "value": 1
                    },
                    {
                        "number": 64,
                        "time": 98.72124999999998,
                        "value": 0
                    },
                    {
                        "number": 64,
                        "time": 98.81749999999998,
                        "value": 1
                    },
                    {
                        "number": 64,
                        "time": 99.91249999999998,
                        "value": 0
                    },
                    {
                        "number": 64,
                        "time": 100.07624999999997,
                        "value": 1
                    },
                    {
                        "number": 64,
                        "time": 101.11999999999998,
                        "value": 0
                    },
                    {
                        "number": 64,
                        "time": 101.32499999999997,
                        "value": 1
                    },
                    {
                        "number": 64,
                        "time": 102.29999999999997,
                        "value": 0
                    },
                    {
                        "number": 64,
                        "time": 102.31249999999997,
                        "value": 0
                    },
                    {
                        "number": 64,
                        "time": 102.41499999999998,
                        "value": 1
                    },
                    {
                        "number": 64,
                        "time": 103.52124999999998,
                        "value": 0
                    },
                    {
                        "number": 64,
                        "time": 103.61499999999998,
                        "value": 1
                    },
                    {
                        "number": 64,
                        "time": 103.61749999999998,
                        "value": 1
                    },
                    {
                        "number": 64,
                        "time": 104.69999999999997,
                        "value": 0
                    },
                    {
                        "number": 64,
                        "time": 104.70999999999998,
                        "value": 0
                    },
                    {
                        "number": 64,
                        "time": 104.87624999999998,
                        "value": 1
                    },
                    {
                        "number": 64,
                        "time": 104.88124999999998,
                        "value": 1
                    },
                    {
                        "number": 64,
                        "time": 105.91624999999998,
                        "value": 0
                    },
                    {
                        "number": 64,
                        "time": 106.06374999999997,
                        "value": 1
                    },
                    {
                        "number": 64,
                        "time": 107.09999999999997,
                        "value": 0
                    },
                    {
                        "number": 64,
                        "time": 107.09999999999997,
                        "value": 0
                    },
                    {
                        "number": 64,
                        "time": 107.11374999999997,
                        "value": 0
                    },
                    {
                        "number": 64,
                        "time": 107.21499999999996,
                        "value": 1
                    },
                    {
                        "number": 64,
                        "time": 108.32124999999996,
                        "value": 0
                    },
                    {
                        "number": 64,
                        "time": 108.37374999999996,
                        "value": 1
                    },
                    {
                        "number": 64,
                        "time": 109.49999999999996,
                        "value": 0
                    },
                    {
                        "number": 64,
                        "time": 109.49999999999996,
                        "value": 0
                    },
                    {
                        "number": 64,
                        "time": 109.50874999999996,
                        "value": 0
                    },
                    {
                        "number": 64,
                        "time": 109.68124999999996,
                        "value": 1
                    },
                    {
                        "number": 64,
                        "time": 110.71624999999996,
                        "value": 0
                    },
                    {
                        "number": 64,
                        "time": 110.71624999999996,
                        "value": 0
                    },
                    {
                        "number": 64,
                        "time": 110.82374999999996,
                        "value": 1
                    },
                    {
                        "number": 64,
                        "time": 111.89999999999996,
                        "value": 0
                    },
                    {
                        "number": 64,
                        "time": 111.90999999999997,
                        "value": 0
                    },
                    {
                        "number": 64,
                        "time": 112.01499999999997,
                        "value": 1
                    },
                    {
                        "number": 64,
                        "time": 113.12499999999997,
                        "value": 0
                    },
                    {
                        "number": 64,
                        "time": 113.21499999999997,
                        "value": 1
                    },
                    {
                        "number": 64,
                        "time": 113.21749999999997,
                        "value": 1
                    },
                    {
                        "number": 64,
                        "time": 114.29999999999997,
                        "value": 0
                    },
                    {
                        "number": 64,
                        "time": 114.31124999999997,
                        "value": 0
                    },
                    {
                        "number": 64,
                        "time": 114.47624999999998,
                        "value": 1
                    },
                    {
                        "number": 64,
                        "time": 114.48124999999997,
                        "value": 1
                    },
                    {
                        "number": 64,
                        "time": 115.51624999999997,
                        "value": 0
                    },
                    {
                        "number": 64,
                        "time": 115.66374999999996,
                        "value": 1
                    },
                    {
                        "number": 64,
                        "time": 116.69999999999996,
                        "value": 0
                    },
                    {
                        "number": 64,
                        "time": 116.71124999999996,
                        "value": 0
                    },
                    {
                        "number": 64,
                        "time": 116.81499999999997,
                        "value": 1
                    },
                    {
                        "number": 64,
                        "time": 117.92249999999997,
                        "value": 0
                    },
                    {
                        "number": 64,
                        "time": 118.01499999999997,
                        "value": 1
                    },
                    {
                        "number": 64,
                        "time": 118.01749999999997,
                        "value": 1
                    },
                    {
                        "number": 64,
                        "time": 119.09999999999997,
                        "value": 0
                    },
                    {
                        "number": 64,
                        "time": 119.11124999999997,
                        "value": 0
                    },
                    {
                        "number": 64,
                        "time": 119.21499999999997,
                        "value": 1
                    },
                    {
                        "number": 64,
                        "time": 120.32249999999998,
                        "value": 0
                    },
                    {
                        "number": 64,
                        "time": 120.41499999999998,
                        "value": 1
                    },
                    {
                        "number": 64,
                        "time": 120.41749999999998,
                        "value": 1
                    },
                    {
                        "number": 64,
                        "time": 121.49999999999997,
                        "value": 0
                    },
                    {
                        "number": 64,
                        "time": 121.51249999999997,
                        "value": 0
                    },
                    {
                        "number": 64,
                        "time": 121.61499999999998,
                        "value": 1
                    },
                    {
                        "number": 64,
                        "time": 122.72249999999998,
                        "value": 0
                    },
                    {
                        "number": 64,
                        "time": 122.81499999999998,
                        "value": 1
                    },
                    {
                        "number": 64,
                        "time": 122.81749999999998,
                        "value": 1
                    },
                    {
                        "number": 64,
                        "time": 123.89999999999998,
                        "value": 0
                    },
                    {
                        "number": 64,
                        "time": 123.91124999999998,
                        "value": 0
                    },
                    {
                        "number": 64,
                        "time": 124.01499999999999,
                        "value": 1
                    },
                    {
                        "number": 64,
                        "time": 125.12249999999999,
                        "value": 0
                    },
                    {
                        "number": 64,
                        "time": 125.21499999999999,
                        "value": 1
                    },
                    {
                        "number": 64,
                        "time": 125.21749999999999,
                        "value": 1
                    },
                    {
                        "number": 64,
                        "time": 126.29999999999998,
                        "value": 0
                    },
                    {
                        "number": 64,
                        "time": 126.30874999999999,
                        "value": 0
                    },
                    {
                        "number": 64,
                        "time": 126.41499999999999,
                        "value": 1
                    },
                    {
                        "number": 64,
                        "time": 127.52125,
                        "value": 0
                    },
                    {
                        "number": 64,
                        "time": 127.615,
                        "value": 1
                    },
                    {
                        "number": 64,
                        "time": 127.61749999999999,
                        "value": 1
                    },
                    {
                        "number": 64,
                        "time": 128.70874999999998,
                        "value": 0
                    },
                    {
                        "number": 64,
                        "time": 128.70999999999998,
                        "value": 0
                    },
                    {
                        "number": 64,
                        "time": 128.81499999999997,
                        "value": 1
                    },
                    {
                        "number": 64,
                        "time": 129.92249999999996,
                        "value": 0
                    },
                    {
                        "number": 64,
                        "time": 130.01749999999996,
                        "value": 1
                    },
                    {
                        "number": 64,
                        "time": 131.09999999999997,
                        "value": 0
                    },
                    {
                        "number": 64,
                        "time": 131.10624999999996,
                        "value": 0
                    },
                    {
                        "number": 64,
                        "time": 131.21499999999995,
                        "value": 1
                    },
                    {
                        "number": 64,
                        "time": 133.15124999999995,
                        "value": 0
                    },
                    {
                        "number": 64,
                        "time": 133.49999999999994,
                        "value": 0
                    },
                    {
                        "number": 64,
                        "time": 133.49999999999994,
                        "value": 0
                    },
                    {
                        "number": 64,
                        "time": 133.61499999999995,
                        "value": 1
                    },
                    {
                        "number": 64,
                        "time": 135.55124999999995,
                        "value": 0
                    },
                    {
                        "number": 64,
                        "time": 136.01499999999996,
                        "value": 1
                    },
                    {
                        "number": 64,
                        "time": 137.95124999999996,
                        "value": 0
                    },
                    {
                        "number": 64,
                        "time": 138.31374999999997,
                        "value": 0
                    },
                    {
                        "number": 64,
                        "time": 138.41499999999996,
                        "value": 1
                    },
                    {
                        "number": 64,
                        "time": 139.52249999999995,
                        "value": 0
                    },
                    {
                        "number": 64,
                        "time": 139.61749999999995,
                        "value": 1
                    },
                    {
                        "number": 64,
                        "time": 140.70249999999996,
                        "value": 0
                    },
                    {
                        "number": 64,
                        "time": 140.81499999999997,
                        "value": 1
                    },
                    {
                        "number": 64,
                        "time": 142.75124999999997,
                        "value": 0
                    },
                    {
                        "number": 64,
                        "time": 143.21499999999997,
                        "value": 1
                    },
                    {
                        "number": 64,
                        "time": 145.15124999999998,
                        "value": 0
                    },
                    {
                        "number": 64,
                        "time": 145.61499999999998,
                        "value": 1
                    },
                    {
                        "number": 64,
                        "time": 147.55124999999998,
                        "value": 0
                    },
                    {
                        "number": 64,
                        "time": 148.015,
                        "value": 1
                    },
                    {
                        "number": 64,
                        "time": 149.125,
                        "value": 0
                    },
                    {
                        "number": 64,
                        "time": 149.2175,
                        "value": 1
                    },
                    {
                        "number": 64,
                        "time": 150.305,
                        "value": 0
                    },
                    {
                        "number": 64,
                        "time": 150.41,
                        "value": 1
                    },
                    {
                        "number": 64,
                        "time": 150.55125,
                        "value": 0
                    },
                    {
                        "number": 64,
                        "time": 150.95375,
                        "value": 1
                    },
                    {
                        "number": 64,
                        "time": 151.51250000000002,
                        "value": 0
                    },
                    {
                        "number": 64,
                        "time": 151.57500000000002,
                        "value": 1
                    },
                    {
                        "number": 64,
                        "time": 152.11375,
                        "value": 0
                    },
                    {
                        "number": 64,
                        "time": 152.18875,
                        "value": 1
                    },
                    {
                        "number": 64,
                        "time": 152.715,
                        "value": 0
                    },
                    {
                        "number": 64,
                        "time": 152.82375,
                        "value": 1
                    },
                    {
                        "number": 64,
                        "time": 153.32625,
                        "value": 0
                    },
                    {
                        "number": 64,
                        "time": 153.42374999999998,
                        "value": 1
                    },
                    {
                        "number": 64,
                        "time": 153.90749999999997,
                        "value": 0
                    },
                    {
                        "number": 64,
                        "time": 154.00999999999996,
                        "value": 1
                    },
                    {
                        "number": 64,
                        "time": 154.15124999999998,
                        "value": 0
                    },
                    {
                        "number": 64,
                        "time": 154.55374999999998,
                        "value": 1
                    },
                    {
                        "number": 64,
                        "time": 155.11249999999998,
                        "value": 0
                    },
                    {
                        "number": 64,
                        "time": 155.17499999999998,
                        "value": 1
                    },
                    {
                        "number": 64,
                        "time": 155.70874999999998,
                        "value": 0
                    },
                    {
                        "number": 64,
                        "time": 155.78875,
                        "value": 1
                    },
                    {
                        "number": 64,
                        "time": 156.31125,
                        "value": 0
                    },
                    {
                        "number": 64,
                        "time": 156.42375,
                        "value": 1
                    },
                    {
                        "number": 64,
                        "time": 156.92625,
                        "value": 0
                    },
                    {
                        "number": 64,
                        "time": 157.02375,
                        "value": 1
                    },
                    {
                        "number": 64,
                        "time": 157.505,
                        "value": 0
                    },
                    {
                        "number": 64,
                        "time": 157.58625,
                        "value": 1
                    },
                    {
                        "number": 64,
                        "time": 157.8,
                        "value": 0
                    },
                    {
                        "number": 64,
                        "time": 158.13625000000002,
                        "value": 1
                    },
                    {
                        "number": 64,
                        "time": 158.7075,
                        "value": 0
                    },
                    {
                        "number": 64,
                        "time": 158.84375,
                        "value": 1
                    },
                    {
                        "number": 64,
                        "time": 158.9575,
                        "value": 0
                    },
                    {
                        "number": 64,
                        "time": 159.35000000000002,
                        "value": 1
                    },
                    {
                        "number": 64,
                        "time": 159.91250000000002,
                        "value": 0
                    },
                    {
                        "number": 64,
                        "time": 160.02875000000003,
                        "value": 1
                    },
                    {
                        "number": 64,
                        "time": 160.18625000000003,
                        "value": 0
                    },
                    {
                        "number": 64,
                        "time": 160.60000000000002,
                        "value": 1
                    },
                    {
                        "number": 64,
                        "time": 161.10500000000002,
                        "value": 0
                    },
                    {
                        "number": 64,
                        "time": 161.18625000000003,
                        "value": 1
                    },
                    {
                        "number": 64,
                        "time": 161.40000000000003,
                        "value": 0
                    },
                    {
                        "number": 64,
                        "time": 161.73625000000004,
                        "value": 1
                    },
                    {
                        "number": 64,
                        "time": 162.31000000000003,
                        "value": 0
                    },
                    {
                        "number": 64,
                        "time": 162.44375000000002,
                        "value": 1
                    },
                    {
                        "number": 64,
                        "time": 162.55750000000003,
                        "value": 0
                    },
                    {
                        "number": 64,
                        "time": 162.95000000000005,
                        "value": 1
                    },
                    {
                        "number": 64,
                        "time": 163.51250000000005,
                        "value": 0
                    },
                    {
                        "number": 64,
                        "time": 163.62875000000005,
                        "value": 1
                    },
                    {
                        "number": 64,
                        "time": 163.78625000000005,
                        "value": 0
                    },
                    {
                        "number": 64,
                        "time": 164.20000000000005,
                        "value": 1
                    },
                    {
                        "number": 64,
                        "time": 164.70875000000004,
                        "value": 0
                    },
                    {
                        "number": 64,
                        "time": 164.90000000000003,
                        "value": 1
                    },
                    {
                        "number": 64,
                        "time": 168.30500000000004,
                        "value": 0
                    },
                    {
                        "number": 64,
                        "time": 168.48625000000004,
                        "value": 1
                    },
                    {
                        "number": 64,
                        "time": 171.90000000000003,
                        "value": 0
                    },
                    {
                        "number": 64,
                        "time": 171.99375000000003,
                        "value": 1
                    },
                    {
                        "number": 64,
                        "time": 172.12875000000003,
                        "value": 0
                    },
                    {
                        "number": 64,
                        "time": 172.26500000000001,
                        "value": 1
                    },
                    {
                        "number": 64,
                        "time": 172.4,
                        "value": 0
                    },
                    {
                        "number": 64,
                        "time": 172.6,
                        "value": 1
                    },
                    {
                        "number": 64,
                        "time": 172.70749999999998,
                        "value": 0
                    },
                    {
                        "number": 64,
                        "time": 172.82874999999999,
                        "value": 1
                    },
                    {
                        "number": 64,
                        "time": 173.015,
                        "value": 0
                    },
                    {
                        "number": 64,
                        "time": 173.1575,
                        "value": 1
                    },
                    {
                        "number": 64,
                        "time": 173.315,
                        "value": 0
                    },
                    {
                        "number": 64,
                        "time": 173.515,
                        "value": 1
                    },
                    {
                        "number": 64,
                        "time": 173.62124999999997,
                        "value": 0
                    },
                    {
                        "number": 64,
                        "time": 173.77124999999998,
                        "value": 1
                    },
                    {
                        "number": 64,
                        "time": 173.90749999999997,
                        "value": 0
                    },
                    {
                        "number": 64,
                        "time": 174.04374999999996,
                        "value": 1
                    },
                    {
                        "number": 64,
                        "time": 174.24999999999997,
                        "value": 0
                    },
                    {
                        "number": 64,
                        "time": 174.40749999999997,
                        "value": 1
                    },
                    {
                        "number": 64,
                        "time": 174.54999999999998,
                        "value": 0
                    },
                    {
                        "number": 64,
                        "time": 174.7,
                        "value": 1
                    },
                    {
                        "number": 64,
                        "time": 174.82125,
                        "value": 0
                    },
                    {
                        "number": 64,
                        "time": 174.95,
                        "value": 1
                    },
                    {
                        "number": 64,
                        "time": 175.1,
                        "value": 0
                    },
                    {
                        "number": 64,
                        "time": 175.27124999999998,
                        "value": 1
                    },
                    {
                        "number": 64,
                        "time": 175.40749999999997,
                        "value": 0
                    },
                    {
                        "number": 64,
                        "time": 175.49999999999997,
                        "value": 1
                    },
                    {
                        "number": 64,
                        "time": 175.62874999999997,
                        "value": 0
                    },
                    {
                        "number": 64,
                        "time": 175.84374999999997,
                        "value": 1
                    },
                    {
                        "number": 64,
                        "time": 175.99999999999997,
                        "value": 0
                    },
                    {
                        "number": 64,
                        "time": 176.13624999999996,
                        "value": 1
                    },
                    {
                        "number": 64,
                        "time": 176.27874999999997,
                        "value": 0
                    },
                    {
                        "number": 64,
                        "time": 176.42874999999998,
                        "value": 1
                    },
                    {
                        "number": 64,
                        "time": 176.62124999999997,
                        "value": 0
                    },
                    {
                        "number": 64,
                        "time": 176.77124999999998,
                        "value": 1
                    },
                    {
                        "number": 64,
                        "time": 176.97124999999997,
                        "value": 0
                    },
                    {
                        "number": 64,
                        "time": 177.07124999999996,
                        "value": 1
                    },
                    {
                        "number": 64,
                        "time": 177.22874999999996,
                        "value": 0
                    },
                    {
                        "number": 64,
                        "time": 177.35749999999996,
                        "value": 1
                    },
                    {
                        "number": 64,
                        "time": 177.53624999999997,
                        "value": 0
                    },
                    {
                        "number": 64,
                        "time": 177.62124999999997,
                        "value": 1
                    },
                    {
                        "number": 64,
                        "time": 177.77124999999998,
                        "value": 0
                    },
                    {
                        "number": 64,
                        "time": 177.90749999999997,
                        "value": 1
                    },
                    {
                        "number": 64,
                        "time": 178.12874999999997,
                        "value": 0
                    },
                    {
                        "number": 64,
                        "time": 178.26499999999996,
                        "value": 1
                    },
                    {
                        "number": 64,
                        "time": 178.47124999999997,
                        "value": 0
                    },
                    {
                        "number": 64,
                        "time": 178.58624999999998,
                        "value": 1
                    },
                    {
                        "number": 64,
                        "time": 178.765,
                        "value": 0
                    },
                    {
                        "number": 64,
                        "time": 178.8575,
                        "value": 1
                    },
                    {
                        "number": 64,
                        "time": 179.0075,
                        "value": 0
                    },
                    {
                        "number": 64,
                        "time": 179.1,
                        "value": 1
                    },
                    {
                        "number": 64,
                        "time": 179.32125,
                        "value": 0
                    },
                    {
                        "number": 64,
                        "time": 179.44375,
                        "value": 1
                    },
                    {
                        "number": 64,
                        "time": 179.7,
                        "value": 0
                    },
                    {
                        "number": 64,
                        "time": 179.77124999999998,
                        "value": 1
                    },
                    {
                        "number": 64,
                        "time": 180.015,
                        "value": 0
                    },
                    {
                        "number": 64,
                        "time": 180.05749999999998,
                        "value": 1
                    },
                    {
                        "number": 64,
                        "time": 180.30749999999998,
                        "value": 0
                    },
                    {
                        "number": 64,
                        "time": 180.3575,
                        "value": 1
                    },
                    {
                        "number": 64,
                        "time": 180.6075,
                        "value": 0
                    },
                    {
                        "number": 64,
                        "time": 180.68625,
                        "value": 1
                    },
                    {
                        "number": 64,
                        "time": 180.9075,
                        "value": 0
                    },
                    {
                        "number": 64,
                        "time": 181.02125,
                        "value": 1
                    },
                    {
                        "number": 64,
                        "time": 181.19375000000002,
                        "value": 0
                    },
                    {
                        "number": 64,
                        "time": 181.27875000000003,
                        "value": 1
                    },
                    {
                        "number": 64,
                        "time": 181.51500000000004,
                        "value": 0
                    },
                    {
                        "number": 64,
                        "time": 181.57875000000004,
                        "value": 1
                    },
                    {
                        "number": 64,
                        "time": 181.81500000000005,
                        "value": 0
                    },
                    {
                        "number": 64,
                        "time": 181.90750000000006,
                        "value": 1
                    },
                    {
                        "number": 64,
                        "time": 182.13625000000005,
                        "value": 0
                    },
                    {
                        "number": 64,
                        "time": 182.22125000000005,
                        "value": 1
                    },
                    {
                        "number": 64,
                        "time": 182.41500000000005,
                        "value": 0
                    },
                    {
                        "number": 64,
                        "time": 182.49375000000006,
                        "value": 1
                    },
                    {
                        "number": 64,
                        "time": 182.70875000000007,
                        "value": 0
                    },
                    {
                        "number": 64,
                        "time": 182.84375000000006,
                        "value": 1
                    },
                    {
                        "number": 64,
                        "time": 184.15625000000006,
                        "value": 0
                    },
                    {
                        "number": 64,
                        "time": 184.28875000000005,
                        "value": 1
                    },
                    {
                        "number": 64,
                        "time": 186.79875000000004,
                        "value": 0
                    },
                    {
                        "number": 64,
                        "time": 186.90000000000003,
                        "value": 1
                    },
                    {
                        "number": 64,
                        "time": 189.22500000000002,
                        "value": 0
                    },
                    {
                        "number": 64,
                        "time": 189.3,
                        "value": 1
                    },
                    {
                        "number": 64,
                        "time": 191.61625,
                        "value": 0
                    },
                    {
                        "number": 64,
                        "time": 191.70000000000002,
                        "value": 1
                    },
                    {
                        "number": 64,
                        "time": 193.80875,
                        "value": 0
                    },
                    {
                        "number": 64,
                        "time": 193.88875000000002,
                        "value": 1
                    },
                    {
                        "number": 64,
                        "time": 196.39000000000001,
                        "value": 0
                    },
                    {
                        "number": 64,
                        "time": 196.50000000000003,
                        "value": 1
                    },
                    {
                        "number": 64,
                        "time": 198.81500000000003,
                        "value": 0
                    },
                    {
                        "number": 64,
                        "time": 198.94875000000002,
                        "value": 1
                    },
                    {
                        "number": 64,
                        "time": 201.2125,
                        "value": 0
                    },
                    {
                        "number": 64,
                        "time": 201.35750000000002,
                        "value": 1
                    },
                    {
                        "number": 64,
                        "time": 203.64000000000001,
                        "value": 0
                    },
                    {
                        "number": 64,
                        "time": 203.75375000000003,
                        "value": 1
                    },
                    {
                        "number": 64,
                        "time": 206.00750000000002,
                        "value": 0
                    },
                    {
                        "number": 64,
                        "time": 206.16500000000002,
                        "value": 1
                    },
                    {
                        "number": 64,
                        "time": 208.40375000000003,
                        "value": 0
                    },
                    {
                        "number": 64,
                        "time": 208.56250000000003,
                        "value": 1
                    },
                    {
                        "number": 64,
                        "time": 210.70625000000004,
                        "value": 0
                    },
                    {
                        "number": 64,
                        "time": 210.82125000000005,
                        "value": 1
                    },
                    {
                        "number": 64,
                        "time": 213.22875000000005,
                        "value": 0
                    },
                    {
                        "number": 64,
                        "time": 213.35375000000005,
                        "value": 1
                    },
                    {
                        "number": 64,
                        "time": 215.59000000000006,
                        "value": 0
                    },
                    {
                        "number": 64,
                        "time": 215.70000000000007,
                        "value": 1
                    },
                    {
                        "number": 64,
                        "time": 218.10875000000007,
                        "value": 0
                    },
                    {
                        "number": 64,
                        "time": 218.18375000000006,
                        "value": 1
                    },
                    {
                        "number": 64,
                        "time": 218.71625000000006,
                        "value": 0
                    },
                    {
                        "number": 64,
                        "time": 218.81500000000005,
                        "value": 1
                    },
                    {
                        "number": 64,
                        "time": 219.32625000000004,
                        "value": 0
                    },
                    {
                        "number": 64,
                        "time": 219.42875000000004,
                        "value": 1
                    },
                    {
                        "number": 64,
                        "time": 219.91750000000005,
                        "value": 0
                    },
                    {
                        "number": 64,
                        "time": 219.99250000000004,
                        "value": 1
                    },
                    {
                        "number": 64,
                        "time": 220.50000000000003,
                        "value": 0
                    },
                    {
                        "number": 64,
                        "time": 220.56625000000003,
                        "value": 1
                    },
                    {
                        "number": 64,
                        "time": 226.53500000000003,
                        "value": 0
                    },
                    {
                        "number": 64,
                        "time": 226.72125000000003,
                        "value": 1
                    },
                    {
                        "number": 64,
                        "time": 227.70875000000004,
                        "value": 0
                    },
                    {
                        "number": 64,
                        "time": 227.78000000000003,
                        "value": 1
                    },
                    {
                        "number": 64,
                        "time": 228.91500000000002,
                        "value": 0
                    },
                    {
                        "number": 64,
                        "time": 228.97375000000002,
                        "value": 1
                    },
                    {
                        "number": 64,
                        "time": 230.11625000000004,
                        "value": 0
                    },
                    {
                        "number": 64,
                        "time": 230.19750000000005,
                        "value": 1
                    },
                    {
                        "number": 64,
                        "time": 231.31875000000005,
                        "value": 0
                    },
                    {
                        "number": 64,
                        "time": 231.39750000000006,
                        "value": 1
                    },
                    {
                        "number": 64,
                        "time": 232.51250000000007,
                        "value": 0
                    },
                    {
                        "number": 64,
                        "time": 232.59375000000009,
                        "value": 1
                    },
                    {
                        "number": 64,
                        "time": 233.7150000000001,
                        "value": 0
                    },
                    {
                        "number": 64,
                        "time": 233.7775000000001,
                        "value": 1
                    },
                    {
                        "number": 64,
                        "time": 234.91375000000008,
                        "value": 0
                    },
                    {
                        "number": 64,
                        "time": 235.01000000000008,
                        "value": 1
                    },
                    {
                        "number": 64,
                        "time": 236.11875000000006,
                        "value": 0
                    },
                    {
                        "number": 64,
                        "time": 236.20375000000007,
                        "value": 1
                    },
                    {
                        "number": 64,
                        "time": 237.31000000000006,
                        "value": 0
                    },
                    {
                        "number": 64,
                        "time": 237.38000000000005,
                        "value": 1
                    },
                    {
                        "number": 64,
                        "time": 238.51125000000005,
                        "value": 0
                    },
                    {
                        "number": 64,
                        "time": 238.57375000000005,
                        "value": 1
                    },
                    {
                        "number": 64,
                        "time": 239.70875000000004,
                        "value": 0
                    },
                    {
                        "number": 64,
                        "time": 239.79750000000004,
                        "value": 1
                    },
                    {
                        "number": 64,
                        "time": 240.92125000000004,
                        "value": 0
                    },
                    {
                        "number": 64,
                        "time": 240.99750000000003,
                        "value": 1
                    },
                    {
                        "number": 64,
                        "time": 242.11000000000004,
                        "value": 0
                    },
                    {
                        "number": 64,
                        "time": 242.19375000000005,
                        "value": 1
                    },
                    {
                        "number": 64,
                        "time": 243.31625000000005,
                        "value": 0
                    },
                    {
                        "number": 64,
                        "time": 243.37750000000005,
                        "value": 1
                    },
                    {
                        "number": 64,
                        "time": 244.51125000000005,
                        "value": 0
                    },
                    {
                        "number": 64,
                        "time": 244.61000000000004,
                        "value": 1
                    },
                    {
                        "number": 64,
                        "time": 245.71875000000003,
                        "value": 0
                    },
                    {
                        "number": 64,
                        "time": 245.80375000000004,
                        "value": 1
                    },
                    {
                        "number": 64,
                        "time": 246.91250000000002,
                        "value": 0
                    },
                    {
                        "number": 64,
                        "time": 246.98000000000002,
                        "value": 1
                    },
                    {
                        "number": 64,
                        "time": 248.11,
                        "value": 0
                    },
                    {
                        "number": 64,
                        "time": 248.17375,
                        "value": 1
                    },
                    {
                        "number": 64,
                        "time": 249.30875,
                        "value": 0
                    },
                    {
                        "number": 64,
                        "time": 249.3975,
                        "value": 1
                    },
                    {
                        "number": 64,
                        "time": 250.5175,
                        "value": 0
                    },
                    {
                        "number": 64,
                        "time": 250.56500000000003,
                        "value": 1
                    },
                    {
                        "number": 64,
                        "time": 251.71125000000004,
                        "value": 0
                    },
                    {
                        "number": 64,
                        "time": 251.78000000000003,
                        "value": 1
                    },
                    {
                        "number": 64,
                        "time": 252.91000000000003,
                        "value": 0
                    },
                    {
                        "number": 64,
                        "time": 252.97375000000002,
                        "value": 1
                    },
                    {
                        "number": 64,
                        "time": 254.10875000000001,
                        "value": 0
                    },
                    {
                        "number": 64,
                        "time": 254.19750000000002,
                        "value": 1
                    },
                    {
                        "number": 64,
                        "time": 255.31875000000002,
                        "value": 0
                    },
                    {
                        "number": 64,
                        "time": 255.34625000000003,
                        "value": 1
                    },
                    {
                        "number": 64,
                        "time": 256.4325,
                        "value": 0
                    },
                    {
                        "number": 64,
                        "time": 256.5,
                        "value": 1
                    },
                    {
                        "number": 64,
                        "time": 257.705,
                        "value": 0
                    },
                    {
                        "number": 64,
                        "time": 257.74375,
                        "value": 1
                    },
                    {
                        "number": 64,
                        "time": 258.85749999999996,
                        "value": 0
                    },
                    {
                        "number": 64,
                        "time": 258.94874999999996,
                        "value": 1
                    },
                    {
                        "number": 64,
                        "time": 261.155,
                        "value": 0
                    },
                    {
                        "number": 64,
                        "time": 261.29999999999995,
                        "value": 1
                    },
                    {
                        "number": 64,
                        "time": 262.50749999999994,
                        "value": 0
                    },
                    {
                        "number": 64,
                        "time": 262.54374999999993,
                        "value": 1
                    },
                    {
                        "number": 64,
                        "time": 263.6574999999999,
                        "value": 0
                    },
                    {
                        "number": 64,
                        "time": 263.7487499999999,
                        "value": 1
                    },
                    {
                        "number": 64,
                        "time": 265.9549999999999,
                        "value": 0
                    },
                    {
                        "number": 64,
                        "time": 266.0999999999999,
                        "value": 1
                    },
                    {
                        "number": 64,
                        "time": 267.3099999999999,
                        "value": 0
                    },
                    {
                        "number": 64,
                        "time": 267.3437499999999,
                        "value": 1
                    },
                    {
                        "number": 64,
                        "time": 268.3574999999999,
                        "value": 0
                    },
                    {
                        "number": 64,
                        "time": 268.4187499999999,
                        "value": 1
                    },
                    {
                        "number": 64,
                        "time": 269.71499999999986,
                        "value": 0
                    },
                    {
                        "number": 64,
                        "time": 269.7887499999999,
                        "value": 1
                    },
                    {
                        "number": 64,
                        "time": 270.91249999999985,
                        "value": 0
                    },
                    {
                        "number": 64,
                        "time": 271.03749999999985,
                        "value": 1
                    },
                    {
                        "number": 64,
                        "time": 272.0387499999999,
                        "value": 0
                    },
                    {
                        "number": 64,
                        "time": 272.0912499999999,
                        "value": 1
                    },
                    {
                        "number": 64,
                        "time": 273.3099999999999,
                        "value": 0
                    },
                    {
                        "number": 64,
                        "time": 273.40249999999986,
                        "value": 1
                    },
                    {
                        "number": 64,
                        "time": 274.51749999999987,
                        "value": 0
                    },
                    {
                        "number": 64,
                        "time": 274.6149999999999,
                        "value": 1
                    },
                    {
                        "number": 64,
                        "time": 275.7137499999999,
                        "value": 0
                    },
                    {
                        "number": 64,
                        "time": 275.8287499999999,
                        "value": 1
                    },
                    {
                        "number": 64,
                        "time": 276.9262499999999,
                        "value": 0
                    },
                    {
                        "number": 64,
                        "time": 277.03624999999994,
                        "value": 1
                    },
                    {
                        "number": 64,
                        "time": 278.10874999999993,
                        "value": 0
                    },
                    {
                        "number": 64,
                        "time": 282.90874999999994,
                        "value": 0
                    },
                    {
                        "number": 64,
                        "time": 283.02124999999995,
                        "value": 1
                    },
                    {
                        "number": 64,
                        "time": 284.10999999999996,
                        "value": 0
                    },
                    {
                        "number": 64,
                        "time": 284.19124999999997,
                        "value": 1
                    },
                    {
                        "number": 64,
                        "time": 285.31125,
                        "value": 0
                    },
                    {
                        "number": 64,
                        "time": 285.37874999999997,
                        "value": 1
                    },
                    {
                        "number": 64,
                        "time": 286.5175,
                        "value": 0
                    },
                    {
                        "number": 64,
                        "time": 286.57124999999996,
                        "value": 1
                    },
                    {
                        "number": 64,
                        "time": 287.77124999999995,
                        "value": 0
                    },
                    {
                        "number": 64,
                        "time": 288.36499999999995,
                        "value": 1
                    },
                    {
                        "number": 64,
                        "time": 288.91249999999997,
                        "value": 0
                    },
                    {
                        "number": 64,
                        "time": 288.99375,
                        "value": 1
                    },
                    {
                        "number": 64,
                        "time": 289.51874999999995,
                        "value": 0
                    },
                    {
                        "number": 64,
                        "time": 289.58124999999995,
                        "value": 1
                    },
                    {
                        "number": 64,
                        "time": 290.10999999999996,
                        "value": 0
                    },
                    {
                        "number": 64,
                        "time": 290.2075,
                        "value": 1
                    },
                    {
                        "number": 64,
                        "time": 290.7125,
                        "value": 0
                    },
                    {
                        "number": 64,
                        "time": 290.79999999999995,
                        "value": 1
                    },
                    {
                        "number": 64,
                        "time": 291.31499999999994,
                        "value": 0
                    },
                    {
                        "number": 64,
                        "time": 291.44374999999997,
                        "value": 1
                    },
                    {
                        "number": 64,
                        "time": 291.91499999999996,
                        "value": 0
                    },
                    {
                        "number": 64,
                        "time": 292.04375,
                        "value": 1
                    },
                    {
                        "number": 64,
                        "time": 292.5075,
                        "value": 0
                    },
                    {
                        "number": 64,
                        "time": 292.57125,
                        "value": 1
                    },
                    {
                        "number": 64,
                        "time": 293.11,
                        "value": 0
                    },
                    {
                        "number": 64,
                        "time": 293.18875,
                        "value": 1
                    },
                    {
                        "number": 64,
                        "time": 293.71500000000003,
                        "value": 0
                    },
                    {
                        "number": 64,
                        "time": 293.81500000000005,
                        "value": 1
                    },
                    {
                        "number": 64,
                        "time": 294.32500000000005,
                        "value": 0
                    },
                    {
                        "number": 64,
                        "time": 294.4075,
                        "value": 1
                    },
                    {
                        "number": 64,
                        "time": 294.90875000000005,
                        "value": 0
                    },
                    {
                        "number": 64,
                        "time": 295.00000000000006,
                        "value": 1
                    },
                    {
                        "number": 64,
                        "time": 295.5137500000001,
                        "value": 0
                    },
                    {
                        "number": 64,
                        "time": 295.5737500000001,
                        "value": 1
                    },
                    {
                        "number": 64,
                        "time": 296.1062500000001,
                        "value": 0
                    },
                    {
                        "number": 64,
                        "time": 296.8287500000001,
                        "value": 1
                    },
                    {
                        "number": 64,
                        "time": 297.90500000000014,
                        "value": 0
                    },
                    {
                        "number": 64,
                        "time": 297.94500000000016,
                        "value": 1
                    },
                    {
                        "number": 64,
                        "time": 298.71500000000015,
                        "value": 0
                    },
                    {
                        "number": 64,
                        "time": 298.79625000000016,
                        "value": 1
                    },
                    {
                        "number": 64,
                        "time": 299.11625000000015,
                        "value": 0
                    },
                    {
                        "number": 64,
                        "time": 299.18375000000015,
                        "value": 1
                    },
                    {
                        "number": 64,
                        "time": 299.50750000000016,
                        "value": 0
                    },
                    {
                        "number": 64,
                        "time": 299.6075000000002,
                        "value": 1
                    },
                    {
                        "number": 64,
                        "time": 299.91125000000017,
                        "value": 0
                    },
                    {
                        "number": 64,
                        "time": 300.0287500000002,
                        "value": 1
                    },
                    {
                        "number": 64,
                        "time": 300.30625000000015,
                        "value": 0
                    },
                    {
                        "number": 64,
                        "time": 300.94875000000013,
                        "value": 1
                    },
                    {
                        "number": 64,
                        "time": 301.5050000000001,
                        "value": 0
                    },
                    {
                        "number": 64,
                        "time": 301.54500000000013,
                        "value": 1
                    },
                    {
                        "number": 64,
                        "time": 302.10500000000013,
                        "value": 0
                    },
                    {
                        "number": 64,
                        "time": 302.1637500000001,
                        "value": 1
                    },
                    {
                        "number": 64,
                        "time": 302.5150000000001,
                        "value": 0
                    },
                    {
                        "number": 64,
                        "time": 302.5962500000001,
                        "value": 1
                    },
                    {
                        "number": 64,
                        "time": 302.9162500000001,
                        "value": 0
                    },
                    {
                        "number": 64,
                        "time": 302.9837500000001,
                        "value": 1
                    },
                    {
                        "number": 64,
                        "time": 303.3075000000001,
                        "value": 0
                    },
                    {
                        "number": 64,
                        "time": 303.40750000000014,
                        "value": 1
                    },
                    {
                        "number": 64,
                        "time": 303.7112500000001,
                        "value": 0
                    },
                    {
                        "number": 64,
                        "time": 303.7787500000001,
                        "value": 1
                    },
                    {
                        "number": 64,
                        "time": 303.9575000000001,
                        "value": 0
                    },
                    {
                        "number": 64,
                        "time": 304.2287500000001,
                        "value": 1
                    },
                    {
                        "number": 64,
                        "time": 304.4287500000001,
                        "value": 0
                    },
                    {
                        "number": 64,
                        "time": 304.5662500000001,
                        "value": 1
                    },
                    {
                        "number": 64,
                        "time": 305.1050000000001,
                        "value": 0
                    },
                    {
                        "number": 64,
                        "time": 305.1450000000001,
                        "value": 1
                    },
                    {
                        "number": 64,
                        "time": 305.70625000000007,
                        "value": 0
                    },
                    {
                        "number": 64,
                        "time": 305.76250000000005,
                        "value": 1
                    },
                    {
                        "number": 64,
                        "time": 306.70250000000004,
                        "value": 0
                    },
                    {
                        "number": 64,
                        "time": 306.79,
                        "value": 1
                    },
                    {
                        "number": 64,
                        "time": 307.70875,
                        "value": 0
                    },
                    {
                        "number": 64,
                        "time": 307.77125,
                        "value": 1
                    },
                    {
                        "number": 64,
                        "time": 308.9125,
                        "value": 0
                    },
                    {
                        "number": 64,
                        "time": 309.00750000000005,
                        "value": 1
                    },
                    {
                        "number": 64,
                        "time": 309.30625000000003,
                        "value": 0
                    },
                    {
                        "number": 64,
                        "time": 309.37125000000003,
                        "value": 1
                    },
                    {
                        "number": 64,
                        "time": 309.70625,
                        "value": 0
                    },
                    {
                        "number": 64,
                        "time": 309.78625,
                        "value": 1
                    },
                    {
                        "number": 64,
                        "time": 310.1125,
                        "value": 0
                    },
                    {
                        "number": 64,
                        "time": 310.18625000000003,
                        "value": 1
                    },
                    {
                        "number": 64,
                        "time": 310.51250000000005,
                        "value": 0
                    },
                    {
                        "number": 64,
                        "time": 310.61500000000007,
                        "value": 1
                    },
                    {
                        "number": 64,
                        "time": 310.9050000000001,
                        "value": 0
                    },
                    {
                        "number": 64,
                        "time": 311.0000000000001,
                        "value": 1
                    },
                    {
                        "number": 64,
                        "time": 311.3062500000001,
                        "value": 0
                    },
                    {
                        "number": 64,
                        "time": 311.3862500000001,
                        "value": 1
                    },
                    {
                        "number": 64,
                        "time": 311.7050000000001,
                        "value": 0
                    },
                    {
                        "number": 64,
                        "time": 311.7862500000001,
                        "value": 1
                    },
                    {
                        "number": 64,
                        "time": 312.1087500000001,
                        "value": 0
                    },
                    {
                        "number": 64,
                        "time": 312.2000000000001,
                        "value": 1
                    },
                    {
                        "number": 64,
                        "time": 312.5125000000001,
                        "value": 0
                    },
                    {
                        "number": 64,
                        "time": 312.5937500000001,
                        "value": 1
                    },
                    {
                        "number": 64,
                        "time": 312.9062500000001,
                        "value": 0
                    },
                    {
                        "number": 64,
                        "time": 312.9787500000001,
                        "value": 1
                    },
                    {
                        "number": 64,
                        "time": 313.3137500000001,
                        "value": 0
                    },
                    {
                        "number": 64,
                        "time": 313.4287500000001,
                        "value": 1
                    },
                    {
                        "number": 64,
                        "time": 313.7212500000001,
                        "value": 0
                    },
                    {
                        "number": 64,
                        "time": 313.7937500000001,
                        "value": 1
                    },
                    {
                        "number": 64,
                        "time": 314.1100000000001,
                        "value": 0
                    },
                    {
                        "number": 64,
                        "time": 314.1712500000001,
                        "value": 1
                    },
                    {
                        "number": 64,
                        "time": 314.5137500000001,
                        "value": 0
                    },
                    {
                        "number": 64,
                        "time": 314.6075000000001,
                        "value": 1
                    },
                    {
                        "number": 64,
                        "time": 314.90625000000006,
                        "value": 0
                    },
                    {
                        "number": 64,
                        "time": 314.98625000000004,
                        "value": 1
                    },
                    {
                        "number": 64,
                        "time": 315.31125000000003,
                        "value": 0
                    },
                    {
                        "number": 64,
                        "time": 315.37875,
                        "value": 1
                    },
                    {
                        "number": 64,
                        "time": 315.71375,
                        "value": 0
                    },
                    {
                        "number": 64,
                        "time": 315.815,
                        "value": 1
                    },
                    {
                        "number": 64,
                        "time": 316.11375,
                        "value": 0
                    },
                    {
                        "number": 64,
                        "time": 316.18625,
                        "value": 1
                    },
                    {
                        "number": 64,
                        "time": 316.51374999999996,
                        "value": 0
                    },
                    {
                        "number": 64,
                        "time": 316.67125,
                        "value": 1
                    },
                    {
                        "number": 64,
                        "time": 317.11375,
                        "value": 0
                    },
                    {
                        "number": 64,
                        "time": 317.27125,
                        "value": 1
                    },
                    {
                        "number": 64,
                        "time": 317.71500000000003,
                        "value": 0
                    },
                    {
                        "number": 64,
                        "time": 317.88625,
                        "value": 1
                    },
                    {
                        "number": 64,
                        "time": 318.20625,
                        "value": 0
                    },
                    {
                        "number": 64,
                        "time": 318.41875,
                        "value": 1
                    },
                    {
                        "number": 64,
                        "time": 318.625,
                        "value": 0
                    },
                    {
                        "number": 64,
                        "time": 318.84375,
                        "value": 1
                    },
                    {
                        "number": 64,
                        "time": 318.95625,
                        "value": 0
                    },
                    {
                        "number": 64,
                        "time": 319.20375,
                        "value": 1
                    },
                    {
                        "number": 64,
                        "time": 319.5325,
                        "value": 0
                    },
                    {
                        "number": 64,
                        "time": 319.725,
                        "value": 1
                    },
                    {
                        "number": 64,
                        "time": 319.82500000000005,
                        "value": 0
                    },
                    {
                        "number": 64,
                        "time": 320.14375000000007,
                        "value": 1
                    },
                    {
                        "number": 64,
                        "time": 320.4075000000001,
                        "value": 0
                    },
                    {
                        "number": 64,
                        "time": 320.6362500000001,
                        "value": 1
                    },
                    {
                        "number": 64,
                        "time": 320.72125000000005,
                        "value": 0
                    },
                    {
                        "number": 64,
                        "time": 321.02125000000007,
                        "value": 1
                    },
                    {
                        "number": 64,
                        "time": 321.3112500000001,
                        "value": 0
                    },
                    {
                        "number": 64,
                        "time": 321.5712500000001,
                        "value": 1
                    },
                    {
                        "number": 64,
                        "time": 321.65375000000006,
                        "value": 0
                    },
                    {
                        "number": 64,
                        "time": 321.96125000000006,
                        "value": 1
                    },
                    {
                        "number": 64,
                        "time": 322.1962500000001,
                        "value": 0
                    },
                    {
                        "number": 64,
                        "time": 322.43250000000006,
                        "value": 1
                    },
                    {
                        "number": 64,
                        "time": 322.51875000000007,
                        "value": 0
                    },
                    {
                        "number": 64,
                        "time": 322.80000000000007,
                        "value": 1
                    },
                    {
                        "number": 64,
                        "time": 323.1187500000001,
                        "value": 0
                    },
                    {
                        "number": 64,
                        "time": 323.3575000000001,
                        "value": 1
                    },
                    {
                        "number": 64,
                        "time": 323.4362500000001,
                        "value": 0
                    },
                    {
                        "number": 64,
                        "time": 323.7575000000001,
                        "value": 1
                    },
                    {
                        "number": 64,
                        "time": 324.0037500000001,
                        "value": 0
                    },
                    {
                        "number": 64,
                        "time": 324.2325000000001,
                        "value": 1
                    },
                    {
                        "number": 64,
                        "time": 324.33625000000006,
                        "value": 0
                    },
                    {
                        "number": 64,
                        "time": 324.59625000000005,
                        "value": 1
                    },
                    {
                        "number": 64,
                        "time": 324.9075,
                        "value": 0
                    },
                    {
                        "number": 64,
                        "time": 325.1575,
                        "value": 1
                    },
                    {
                        "number": 64,
                        "time": 325.24625000000003,
                        "value": 0
                    },
                    {
                        "number": 64,
                        "time": 325.55,
                        "value": 1
                    },
                    {
                        "number": 64,
                        "time": 325.825,
                        "value": 0
                    },
                    {
                        "number": 64,
                        "time": 326.04375,
                        "value": 1
                    },
                    {
                        "number": 64,
                        "time": 326.15749999999997,
                        "value": 0
                    },
                    {
                        "number": 64,
                        "time": 326.40374999999995,
                        "value": 1
                    },
                    {
                        "number": 64,
                        "time": 326.73249999999996,
                        "value": 0
                    },
                    {
                        "number": 64,
                        "time": 326.92499999999995,
                        "value": 1
                    },
                    {
                        "number": 64,
                        "time": 327.025,
                        "value": 0
                    },
                    {
                        "number": 64,
                        "time": 327.38624999999996,
                        "value": 1
                    },
                    {
                        "number": 64,
                        "time": 327.60749999999996,
                        "value": 0
                    },
                    {
                        "number": 64,
                        "time": 327.83624999999995,
                        "value": 1
                    },
                    {
                        "number": 64,
                        "time": 327.92124999999993,
                        "value": 0
                    },
                    {
                        "number": 64,
                        "time": 328.22124999999994,
                        "value": 1
                    },
                    {
                        "number": 64,
                        "time": 328.51124999999996,
                        "value": 0
                    },
                    {
                        "number": 64,
                        "time": 328.77124999999995,
                        "value": 1
                    },
                    {
                        "number": 64,
                        "time": 328.85374999999993,
                        "value": 0
                    },
                    {
                        "number": 64,
                        "time": 329.1499999999999,
                        "value": 1
                    },
                    {
                        "number": 64,
                        "time": 329.4249999999999,
                        "value": 0
                    },
                    {
                        "number": 64,
                        "time": 329.6437499999999,
                        "value": 1
                    },
                    {
                        "number": 64,
                        "time": 329.7574999999999,
                        "value": 0
                    },
                    {
                        "number": 64,
                        "time": 330.00374999999985,
                        "value": 1
                    },
                    {
                        "number": 64,
                        "time": 330.33249999999987,
                        "value": 0
                    },
                    {
                        "number": 64,
                        "time": 330.52499999999986,
                        "value": 1
                    },
                    {
                        "number": 64,
                        "time": 330.6249999999999,
                        "value": 0
                    },
                    {
                        "number": 64,
                        "time": 330.98624999999987,
                        "value": 1
                    },
                    {
                        "number": 64,
                        "time": 331.20749999999987,
                        "value": 0
                    },
                    {
                        "number": 64,
                        "time": 331.43624999999986,
                        "value": 1
                    },
                    {
                        "number": 64,
                        "time": 331.52124999999984,
                        "value": 0
                    },
                    {
                        "number": 64,
                        "time": 331.82124999999985,
                        "value": 1
                    },
                    {
                        "number": 64,
                        "time": 332.11124999999987,
                        "value": 0
                    },
                    {
                        "number": 64,
                        "time": 332.37124999999986,
                        "value": 1
                    },
                    {
                        "number": 64,
                        "time": 332.45374999999984,
                        "value": 0
                    },
                    {
                        "number": 64,
                        "time": 332.76124999999985,
                        "value": 1
                    },
                    {
                        "number": 64,
                        "time": 333.02499999999986,
                        "value": 0
                    },
                    {
                        "number": 64,
                        "time": 333.24374999999986,
                        "value": 1
                    },
                    {
                        "number": 64,
                        "time": 333.35749999999985,
                        "value": 0
                    },
                    {
                        "number": 64,
                        "time": 333.65749999999986,
                        "value": 1
                    },
                    {
                        "number": 64,
                        "time": 333.93249999999983,
                        "value": 0
                    },
                    {
                        "number": 64,
                        "time": 334.12499999999983,
                        "value": 1
                    },
                    {
                        "number": 64,
                        "time": 334.22499999999985,
                        "value": 0
                    },
                    {
                        "number": 64,
                        "time": 334.5437499999999,
                        "value": 1
                    },
                    {
                        "number": 64,
                        "time": 334.8074999999999,
                        "value": 0
                    },
                    {
                        "number": 64,
                        "time": 335.0362499999999,
                        "value": 1
                    },
                    {
                        "number": 64,
                        "time": 335.12124999999986,
                        "value": 0
                    },
                    {
                        "number": 64,
                        "time": 335.4212499999999,
                        "value": 1
                    },
                    {
                        "number": 64,
                        "time": 335.7112499999999,
                        "value": 0
                    },
                    {
                        "number": 64,
                        "time": 335.9712499999999,
                        "value": 1
                    },
                    {
                        "number": 64,
                        "time": 336.05374999999987,
                        "value": 0
                    },
                    {
                        "number": 64,
                        "time": 336.36124999999987,
                        "value": 1
                    },
                    {
                        "number": 64,
                        "time": 336.5962499999999,
                        "value": 0
                    },
                    {
                        "number": 64,
                        "time": 336.83249999999987,
                        "value": 1
                    },
                    {
                        "number": 64,
                        "time": 336.9187499999999,
                        "value": 0
                    },
                    {
                        "number": 64,
                        "time": 337.1999999999999,
                        "value": 1
                    },
                    {
                        "number": 64,
                        "time": 337.5187499999999,
                        "value": 0
                    },
                    {
                        "number": 64,
                        "time": 337.7574999999999,
                        "value": 1
                    },
                    {
                        "number": 64,
                        "time": 337.8362499999999,
                        "value": 0
                    },
                    {
                        "number": 64,
                        "time": 338.1574999999999,
                        "value": 1
                    },
                    {
                        "number": 64,
                        "time": 338.4037499999999,
                        "value": 0
                    },
                    {
                        "number": 64,
                        "time": 338.6324999999999,
                        "value": 1
                    },
                    {
                        "number": 64,
                        "time": 338.73624999999987,
                        "value": 0
                    },
                    {
                        "number": 64,
                        "time": 339.03249999999986,
                        "value": 1
                    },
                    {
                        "number": 64,
                        "time": 339.30749999999983,
                        "value": 0
                    },
                    {
                        "number": 64,
                        "time": 339.55749999999983,
                        "value": 1
                    },
                    {
                        "number": 64,
                        "time": 339.64624999999984,
                        "value": 0
                    },
                    {
                        "number": 64,
                        "time": 339.9399999999998,
                        "value": 1
                    },
                    {
                        "number": 64,
                        "time": 340.22499999999985,
                        "value": 0
                    },
                    {
                        "number": 64,
                        "time": 340.44374999999985,
                        "value": 1
                    },
                    {
                        "number": 64,
                        "time": 340.55749999999983,
                        "value": 0
                    },
                    {
                        "number": 64,
                        "time": 340.8037499999998,
                        "value": 1
                    },
                    {
                        "number": 64,
                        "time": 341.1324999999998,
                        "value": 0
                    },
                    {
                        "number": 64,
                        "time": 341.3249999999998,
                        "value": 1
                    },
                    {
                        "number": 64,
                        "time": 341.42499999999984,
                        "value": 0
                    },
                    {
                        "number": 64,
                        "time": 341.77124999999984,
                        "value": 1
                    },
                    {
                        "number": 64,
                        "time": 342.0074999999998,
                        "value": 0
                    },
                    {
                        "number": 64,
                        "time": 342.2362499999998,
                        "value": 1
                    },
                    {
                        "number": 64,
                        "time": 342.3212499999998,
                        "value": 0
                    },
                    {
                        "number": 64,
                        "time": 342.6212499999998,
                        "value": 1
                    },
                    {
                        "number": 64,
                        "time": 342.9112499999998,
                        "value": 0
                    },
                    {
                        "number": 64,
                        "time": 343.1712499999998,
                        "value": 1
                    },
                    {
                        "number": 64,
                        "time": 343.2537499999998,
                        "value": 0
                    },
                    {
                        "number": 64,
                        "time": 343.5612499999998,
                        "value": 1
                    },
                    {
                        "number": 64,
                        "time": 343.7962499999998,
                        "value": 0
                    },
                    {
                        "number": 64,
                        "time": 344.0324999999998,
                        "value": 1
                    },
                    {
                        "number": 64,
                        "time": 344.1187499999998,
                        "value": 0
                    },
                    {
                        "number": 64,
                        "time": 344.3999999999998,
                        "value": 1
                    },
                    {
                        "number": 64,
                        "time": 344.71874999999983,
                        "value": 0
                    },
                    {
                        "number": 64,
                        "time": 344.9574999999998,
                        "value": 1
                    },
                    {
                        "number": 64,
                        "time": 345.0362499999998,
                        "value": 0
                    },
                    {
                        "number": 64,
                        "time": 345.35749999999985,
                        "value": 1
                    },
                    {
                        "number": 64,
                        "time": 346.80874999999986,
                        "value": 0
                    },
                    {
                        "number": 64,
                        "time": 347.46249999999986,
                        "value": 1
                    },
                    {
                        "number": 64,
                        "time": 348.66749999999985,
                        "value": 0
                    },
                    {
                        "number": 64,
                        "time": 349.33499999999987,
                        "value": 1
                    },
                    {
                        "number": 64,
                        "time": 349.64499999999987,
                        "value": 0
                    },
                    {
                        "number": 64,
                        "time": 349.8412499999999,
                        "value": 1
                    },
                    {
                        "number": 64,
                        "time": 350.2612499999999,
                        "value": 0
                    },
                    {
                        "number": 64,
                        "time": 350.4824999999999,
                        "value": 1
                    },
                    {
                        "number": 64,
                        "time": 350.6999999999999,
                        "value": 0
                    },
                    {
                        "number": 64,
                        "time": 351.1349999999999,
                        "value": 1
                    },
                    {
                        "number": 64,
                        "time": 351.4449999999999,
                        "value": 0
                    },
                    {
                        "number": 64,
                        "time": 351.6412499999999,
                        "value": 1
                    },
                    {
                        "number": 64,
                        "time": 352.0612499999999,
                        "value": 0
                    },
                    {
                        "number": 64,
                        "time": 352.2824999999999,
                        "value": 1
                    },
                    {
                        "number": 64,
                        "time": 352.4999999999999,
                        "value": 0
                    },
                    {
                        "number": 64,
                        "time": 352.8362499999999,
                        "value": 1
                    },
                    {
                        "number": 64,
                        "time": 353.1212499999999,
                        "value": 0
                    },
                    {
                        "number": 64,
                        "time": 353.4287499999999,
                        "value": 1
                    },
                    {
                        "number": 64,
                        "time": 353.7124999999999,
                        "value": 0
                    },
                    {
                        "number": 64,
                        "time": 354.03624999999994,
                        "value": 1
                    },
                    {
                        "number": 64,
                        "time": 354.3112499999999,
                        "value": 0
                    },
                    {
                        "number": 64,
                        "time": 354.6287499999999,
                        "value": 1
                    },
                    {
                        "number": 64,
                        "time": 354.9149999999999,
                        "value": 0
                    },
                    {
                        "number": 64,
                        "time": 355.2574999999999,
                        "value": 1
                    },
                    {
                        "number": 64,
                        "time": 355.5287499999999,
                        "value": 0
                    },
                    {
                        "number": 64,
                        "time": 355.8649999999999,
                        "value": 1
                    },
                    {
                        "number": 64,
                        "time": 356.1287499999999,
                        "value": 0
                    },
                    {
                        "number": 64,
                        "time": 356.47874999999993,
                        "value": 1
                    },
                    {
                        "number": 64,
                        "time": 356.7362499999999,
                        "value": 0
                    },
                    {
                        "number": 64,
                        "time": 357.0712499999999,
                        "value": 1
                    },
                    {
                        "number": 64,
                        "time": 357.3499999999999,
                        "value": 0
                    },
                    {
                        "number": 64,
                        "time": 357.67124999999993,
                        "value": 1
                    },
                    {
                        "number": 64,
                        "time": 357.91874999999993,
                        "value": 0
                    },
                    {
                        "number": 64,
                        "time": 358.06499999999994,
                        "value": 1
                    },
                    {
                        "number": 64,
                        "time": 358.4362499999999,
                        "value": 0
                    },
                    {
                        "number": 64,
                        "time": 358.5787499999999,
                        "value": 1
                    },
                    {
                        "number": 64,
                        "time": 359.1099999999999,
                        "value": 0
                    },
                    {
                        "number": 64,
                        "time": 359.1824999999999,
                        "value": 1
                    },
                    {
                        "number": 64,
                        "time": 359.6749999999999,
                        "value": 0
                    },
                    {
                        "number": 64,
                        "time": 359.7612499999999,
                        "value": 1
                    },
                    {
                        "number": 64,
                        "time": 360.2437499999999,
                        "value": 0
                    },
                    {
                        "number": 64,
                        "time": 360.34374999999994,
                        "value": 1
                    },
                    {
                        "number": 64,
                        "time": 360.9287499999999,
                        "value": 0
                    },
                    {
                        "number": 64,
                        "time": 360.96874999999994,
                        "value": 1
                    },
                    {
                        "number": 64,
                        "time": 361.44999999999993,
                        "value": 0
                    },
                    {
                        "number": 64,
                        "time": 361.54999999999995,
                        "value": 1
                    },
                    {
                        "number": 64,
                        "time": 362.11875,
                        "value": 0
                    },
                    {
                        "number": 64,
                        "time": 362.16499999999996,
                        "value": 1
                    },
                    {
                        "number": 64,
                        "time": 362.705,
                        "value": 0
                    },
                    {
                        "number": 64,
                        "time": 362.865,
                        "value": 1
                    },
                    {
                        "number": 64,
                        "time": 363.23625,
                        "value": 0
                    },
                    {
                        "number": 64,
                        "time": 363.37874999999997,
                        "value": 1
                    },
                    {
                        "number": 64,
                        "time": 363.91125,
                        "value": 0
                    },
                    {
                        "number": 64,
                        "time": 363.9825,
                        "value": 1
                    },
                    {
                        "number": 64,
                        "time": 364.50375,
                        "value": 0
                    },
                    {
                        "number": 64,
                        "time": 364.56125000000003,
                        "value": 1
                    },
                    {
                        "number": 64,
                        "time": 365.04375000000005,
                        "value": 0
                    },
                    {
                        "number": 64,
                        "time": 365.26500000000004,
                        "value": 1
                    },
                    {
                        "number": 64,
                        "time": 365.63625,
                        "value": 0
                    },
                    {
                        "number": 64,
                        "time": 365.77875,
                        "value": 1
                    },
                    {
                        "number": 64,
                        "time": 366.3075,
                        "value": 0
                    },
                    {
                        "number": 64,
                        "time": 366.3825,
                        "value": 1
                    },
                    {
                        "number": 64,
                        "time": 366.91875,
                        "value": 0
                    },
                    {
                        "number": 64,
                        "time": 366.96125,
                        "value": 1
                    },
                    {
                        "number": 64,
                        "time": 367.44375,
                        "value": 0
                    },
                    {
                        "number": 64,
                        "time": 367.665,
                        "value": 1
                    },
                    {
                        "number": 64,
                        "time": 367.845,
                        "value": 0
                    },
                    {
                        "number": 64,
                        "time": 368.17875000000004,
                        "value": 1
                    },
                    {
                        "number": 64,
                        "time": 368.42625000000004,
                        "value": 0
                    },
                    {
                        "number": 64,
                        "time": 368.7825,
                        "value": 1
                    },
                    {
                        "number": 64,
                        "time": 369.06125000000003,
                        "value": 0
                    },
                    {
                        "number": 64,
                        "time": 369.36125000000004,
                        "value": 1
                    },
                    {
                        "number": 64,
                        "time": 369.67500000000007,
                        "value": 0
                    },
                    {
                        "number": 64,
                        "time": 370.06500000000005,
                        "value": 1
                    },
                    {
                        "number": 64,
                        "time": 370.22125000000005,
                        "value": 0
                    },
                    {
                        "number": 64,
                        "time": 370.57875000000007,
                        "value": 1
                    },
                    {
                        "number": 64,
                        "time": 370.8037500000001,
                        "value": 0
                    },
                    {
                        "number": 64,
                        "time": 371.1825000000001,
                        "value": 1
                    },
                    {
                        "number": 64,
                        "time": 371.4250000000001,
                        "value": 0
                    },
                    {
                        "number": 64,
                        "time": 371.76125000000013,
                        "value": 1
                    },
                    {
                        "number": 64,
                        "time": 372.03250000000014,
                        "value": 0
                    },
                    {
                        "number": 64,
                        "time": 372.46500000000015,
                        "value": 1
                    },
                    {
                        "number": 64,
                        "time": 372.66500000000013,
                        "value": 0
                    },
                    {
                        "number": 64,
                        "time": 372.97875000000016,
                        "value": 1
                    },
                    {
                        "number": 64,
                        "time": 373.2787500000002,
                        "value": 0
                    },
                    {
                        "number": 64,
                        "time": 373.6650000000002,
                        "value": 1
                    },
                    {
                        "number": 64,
                        "time": 373.8362500000002,
                        "value": 0
                    },
                    {
                        "number": 64,
                        "time": 374.17875000000015,
                        "value": 1
                    },
                    {
                        "number": 64,
                        "time": 374.44000000000017,
                        "value": 0
                    },
                    {
                        "number": 64,
                        "time": 374.8650000000002,
                        "value": 1
                    },
                    {
                        "number": 64,
                        "time": 375.3075000000002,
                        "value": 0
                    },
                    {
                        "number": 64,
                        "time": 375.3787500000002,
                        "value": 1
                    },
                    {
                        "number": 64,
                        "time": 375.9112500000002,
                        "value": 0
                    },
                    {
                        "number": 64,
                        "time": 375.98250000000024,
                        "value": 1
                    },
                    {
                        "number": 64,
                        "time": 376.51125000000025,
                        "value": 0
                    },
                    {
                        "number": 64,
                        "time": 376.56125000000026,
                        "value": 1
                    },
                    {
                        "number": 64,
                        "time": 377.11000000000024,
                        "value": 0
                    },
                    {
                        "number": 64,
                        "time": 377.18250000000023,
                        "value": 1
                    },
                    {
                        "number": 64,
                        "time": 377.70875000000024,
                        "value": 0
                    },
                    {
                        "number": 64,
                        "time": 377.76125000000025,
                        "value": 1
                    },
                    {
                        "number": 64,
                        "time": 378.31125000000026,
                        "value": 0
                    },
                    {
                        "number": 64,
                        "time": 378.3825000000003,
                        "value": 1
                    },
                    {
                        "number": 64,
                        "time": 378.9087500000003,
                        "value": 0
                    },
                    {
                        "number": 64,
                        "time": 378.9612500000003,
                        "value": 1
                    },
                    {
                        "number": 64,
                        "time": 379.5100000000003,
                        "value": 0
                    },
                    {
                        "number": 64,
                        "time": 379.58250000000027,
                        "value": 1
                    },
                    {
                        "number": 64,
                        "time": 380.11125000000027,
                        "value": 0
                    },
                    {
                        "number": 64,
                        "time": 380.1612500000003,
                        "value": 1
                    },
                    {
                        "number": 64,
                        "time": 380.7087500000003,
                        "value": 0
                    },
                    {
                        "number": 64,
                        "time": 380.7825000000003,
                        "value": 1
                    },
                    {
                        "number": 64,
                        "time": 381.3137500000003,
                        "value": 0
                    },
                    {
                        "number": 64,
                        "time": 381.3612500000003,
                        "value": 1
                    },
                    {
                        "number": 64,
                        "time": 381.91125000000034,
                        "value": 0
                    },
                    {
                        "number": 64,
                        "time": 381.98250000000036,
                        "value": 1
                    },
                    {
                        "number": 64,
                        "time": 382.51250000000033,
                        "value": 0
                    },
                    {
                        "number": 64,
                        "time": 382.5612500000003,
                        "value": 1
                    },
                    {
                        "number": 64,
                        "time": 383.1137500000003,
                        "value": 0
                    },
                    {
                        "number": 64,
                        "time": 383.18250000000035,
                        "value": 1
                    },
                    {
                        "number": 64,
                        "time": 383.7125000000003,
                        "value": 0
                    },
                    {
                        "number": 64,
                        "time": 383.7612500000003,
                        "value": 1
                    },
                    {
                        "number": 64,
                        "time": 384.3100000000003,
                        "value": 0
                    },
                    {
                        "number": 64,
                        "time": 384.3825000000003,
                        "value": 1
                    },
                    {
                        "number": 64,
                        "time": 384.9112500000003,
                        "value": 0
                    },
                    {
                        "number": 64,
                        "time": 384.9612500000003,
                        "value": 1
                    },
                    {
                        "number": 64,
                        "time": 385.5112500000003,
                        "value": 0
                    },
                    {
                        "number": 64,
                        "time": 385.6150000000003,
                        "value": 1
                    },
                    {
                        "number": 64,
                        "time": 386.7100000000003,
                        "value": 0
                    },
                    {
                        "number": 64,
                        "time": 386.7537500000003,
                        "value": 1
                    },
                    {
                        "number": 64,
                        "time": 387.9250000000003,
                        "value": 0
                    },
                    {
                        "number": 64,
                        "time": 387.98625000000027,
                        "value": 1
                    },
                    {
                        "number": 64,
                        "time": 389.1250000000003,
                        "value": 0
                    },
                    {
                        "number": 64,
                        "time": 389.20750000000027,
                        "value": 1
                    },
                    {
                        "number": 64,
                        "time": 389.7162500000003,
                        "value": 0
                    },
                    {
                        "number": 64,
                        "time": 389.76750000000027,
                        "value": 1
                    },
                    {
                        "number": 64,
                        "time": 390.31125000000026,
                        "value": 0
                    },
                    {
                        "number": 64,
                        "time": 390.3537500000003,
                        "value": 1
                    },
                    {
                        "number": 64,
                        "time": 391.5100000000003,
                        "value": 0
                    },
                    {
                        "number": 64,
                        "time": 391.58250000000027,
                        "value": 1
                    },
                    {
                        "number": 64,
                        "time": 392.7087500000003,
                        "value": 0
                    },
                    {
                        "number": 64,
                        "time": 392.76500000000027,
                        "value": 1
                    },
                    {
                        "number": 64,
                        "time": 393.91000000000025,
                        "value": 0
                    },
                    {
                        "number": 64,
                        "time": 393.94375000000025,
                        "value": 1
                    },
                    {
                        "number": 64,
                        "time": 394.51125000000025,
                        "value": 0
                    },
                    {
                        "number": 64,
                        "time": 394.5625000000002,
                        "value": 1
                    },
                    {
                        "number": 64,
                        "time": 395.11750000000023,
                        "value": 0
                    },
                    {
                        "number": 64,
                        "time": 395.4212500000002,
                        "value": 1
                    },
                    {
                        "number": 64,
                        "time": 396.3062500000002,
                        "value": 0
                    },
                    {
                        "number": 64,
                        "time": 396.6150000000002,
                        "value": 1
                    },
                    {
                        "number": 64,
                        "time": 397.5062500000002,
                        "value": 0
                    },
                    {
                        "number": 64,
                        "time": 397.8212500000002,
                        "value": 1
                    },
                    {
                        "number": 64,
                        "time": 398.7075000000002,
                        "value": 0
                    },
                    {
                        "number": 64,
                        "time": 399.0150000000002,
                        "value": 1
                    },
                    {
                        "number": 64,
                        "time": 399.90375000000023,
                        "value": 0
                    },
                    {
                        "number": 64,
                        "time": 400.2262500000002,
                        "value": 1
                    },
                    {
                        "number": 64,
                        "time": 400.51375000000024,
                        "value": 0
                    },
                    {
                        "number": 64,
                        "time": 400.55875000000026,
                        "value": 1
                    },
                    {
                        "number": 64,
                        "time": 400.64500000000027,
                        "value": 0
                    },
                    {
                        "number": 64,
                        "time": 400.8725000000003,
                        "value": 1
                    },
                    {
                        "number": 64,
                        "time": 401.1050000000003,
                        "value": 0
                    },
                    {
                        "number": 64,
                        "time": 401.4262500000003,
                        "value": 1
                    },
                    {
                        "number": 64,
                        "time": 401.71375000000035,
                        "value": 0
                    },
                    {
                        "number": 64,
                        "time": 401.75875000000036,
                        "value": 1
                    },
                    {
                        "number": 64,
                        "time": 401.84500000000037,
                        "value": 0
                    },
                    {
                        "number": 64,
                        "time": 402.0725000000004,
                        "value": 1
                    },
                    {
                        "number": 64,
                        "time": 402.3087500000004,
                        "value": 0
                    },
                    {
                        "number": 64,
                        "time": 402.67250000000035,
                        "value": 1
                    },
                    {
                        "number": 64,
                        "time": 402.91250000000036,
                        "value": 0
                    },
                    {
                        "number": 64,
                        "time": 403.2725000000004,
                        "value": 1
                    },
                    {
                        "number": 64,
                        "time": 403.50375000000037,
                        "value": 0
                    },
                    {
                        "number": 64,
                        "time": 413.22500000000036,
                        "value": 1
                    },
                    {
                        "number": 64,
                        "time": 414.31375000000037,
                        "value": 0
                    },
                    {
                        "number": 64,
                        "time": 414.46750000000037,
                        "value": 1
                    },
                    {
                        "number": 64,
                        "time": 415.5100000000004,
                        "value": 0
                    },
                    {
                        "number": 64,
                        "time": 415.96750000000037,
                        "value": 1
                    },
                    {
                        "number": 64,
                        "time": 416.7100000000004,
                        "value": 0
                    },
                    {
                        "number": 64,
                        "time": 416.85000000000036,
                        "value": 1
                    },
                    {
                        "number": 64,
                        "time": 417.90875000000034,
                        "value": 0
                    },
                    {
                        "number": 64,
                        "time": 418.84375000000034,
                        "value": 1
                    },
                    {
                        "number": 64,
                        "time": 420.30000000000035,
                        "value": 0
                    },
                    {
                        "number": 64,
                        "time": 422.55750000000035,
                        "value": 1
                    },
                    {
                        "number": 64,
                        "time": 422.9000000000003,
                        "value": 0
                    },
                    {
                        "number": 64,
                        "time": 423.6437500000003,
                        "value": 1
                    },
                    {
                        "number": 64,
                        "time": 425.1000000000003,
                        "value": 0
                    },
                    {
                        "number": 64,
                        "time": 427.3575000000003,
                        "value": 1
                    },
                    {
                        "number": 64,
                        "time": 427.7000000000003,
                        "value": 0
                    },
                    {
                        "number": 64,
                        "time": 428.44375000000025,
                        "value": 1
                    },
                    {
                        "number": 64,
                        "time": 429.90000000000026,
                        "value": 0
                    },
                    {
                        "number": 64,
                        "time": 430.8437500000003,
                        "value": 1
                    },
                    {
                        "number": 64,
                        "time": 432.3000000000003,
                        "value": 0
                    },
                    {
                        "number": 64,
                        "time": 433.2437500000003,
                        "value": 1
                    },
                    {
                        "number": 64,
                        "time": 434.7112500000003,
                        "value": 0
                    },
                    {
                        "number": 64,
                        "time": 435.0750000000003,
                        "value": 1
                    },
                    {
                        "number": 64,
                        "time": 437.10000000000025,
                        "value": 0
                    },
                    {
                        "number": 64,
                        "time": 439.6637500000003,
                        "value": 1
                    },
                    {
                        "number": 64,
                        "time": 441.93375000000026,
                        "value": 0
                    },
                    {
                        "number": 64,
                        "time": 442.14750000000026,
                        "value": 1
                    },
                    {
                        "number": 64,
                        "time": 444.31875000000025,
                        "value": 0
                    },
                    {
                        "number": 64,
                        "time": 444.41500000000025,
                        "value": 1
                    },
                    {
                        "number": 64,
                        "time": 445.52125000000024,
                        "value": 0
                    },
                    {
                        "number": 64,
                        "time": 445.59000000000026,
                        "value": 1
                    },
                    {
                        "number": 64,
                        "time": 446.71000000000026,
                        "value": 0
                    },
                    {
                        "number": 64,
                        "time": 446.99125000000026,
                        "value": 1
                    },
                    {
                        "number": 64,
                        "time": 457.51125000000025,
                        "value": 0
                    },
                    {
                        "number": 64,
                        "time": 461.32875000000024,
                        "value": 1
                    },
                    {
                        "number": 64,
                        "time": 466.90000000000026,
                        "value": 0
                    }
                ]
            },
            "id": 3,
            "name": "Pedale",
            "instrumentNumber": 0,
            "instrument": "acoustic grand piano",
            "instrumentFamily": "piano",
            "channelNumber": 0,
            "isPercussion": false
        },
        {
            "startTime": 0,
            "duration": 0,
            "length": 0,
            "notes": [],
            "controlChanges": {},
            "id": 4,
            "name": "Liszt: Etudes d'execution transcendante No. 4"
        },
        {
            "startTime": 0,
            "duration": 0,
            "length": 0,
            "notes": [],
            "controlChanges": {},
            "id": 5,
            "name": "Copyright  2006 by Bernd Krueger"
        },
        {
            "startTime": 0,
            "duration": 0,
            "length": 0,
            "notes": [],
            "controlChanges": {},
            "id": 6,
            "name": "http://www.piano-midi.de/"
        },
        {
            "startTime": 0,
            "duration": 0,
            "length": 0,
            "notes": [],
            "controlChanges": {},
            "id": 7,
            "name": "Edition: 2014-03-05"
        },
        {
            "startTime": 0,
            "duration": 0,
            "length": 0,
            "notes": [],
            "controlChanges": {},
            "id": 8,
            "name": "Spur 8"
        },
        {
            "startTime": 0,
            "duration": 0,
            "length": 0,
            "notes": [],
            "controlChanges": {},
            "id": 9,
            "name": "Spur 9"
        },
        {
            "startTime": 0,
            "duration": 0,
            "length": 0,
            "notes": [],
            "controlChanges": {},
            "id": 10,
            "name": "Spur 10"
        },
        {
            "startTime": 0,
            "duration": 0,
            "length": 0,
            "notes": [],
            "controlChanges": {},
            "id": 11,
            "name": "Spur 11"
        },
        {
            "startTime": 0,
            "duration": 0,
            "length": 0,
            "notes": [],
            "controlChanges": {},
            "id": 12,
            "name": "Spur 12"
        },
        {
            "startTime": 0,
            "duration": 0,
            "length": 0,
            "notes": [],
            "controlChanges": {},
            "id": 13,
            "name": "Spur 13"
        },
        {
            "startTime": 0,
            "duration": 0,
            "length": 0,
            "notes": [],
            "controlChanges": {},
            "id": 14,
            "name": "Spur 14"
        },
        {
            "startTime": 0,
            "duration": 0,
            "length": 0,
            "notes": [],
            "controlChanges": {},
            "id": 15,
            "name": "Spur 15"
        },
        {
            "startTime": 0,
            "duration": 0,
            "length": 0,
            "notes": [],
            "controlChanges": {},
            "id": 16,
            "name": "Spur 16"
        }
    ]
}