{
    "header": {
        "PPQ": 480,
        "timeSignature": [
            4,
            4
        ],
        "bpm": 100,
        "name": "Etude No. 2 aus Grandes Etudes de Paganini"
    },
    "startTime": 0,
    "duration": 185.40000000000038,
    "tracks": [
        {
            "startTime": 0,
            "duration": 0,
            "length": 0,
            "notes": [],
            "controlChanges": {},
            "id": 0,
            "name": "Etude No. 2 aus Grandes Etudes de Paganini"
        },
        {
            "startTime": 2.3249999999999997,
            "duration": 185.40000000000038,
            "length": 1793,
            "notes": [
                {
                    "name": "D#4",
                    "midi": 63,
                    "time": 2.3249999999999997,
                    "velocity": 0.5590551181102362,
                    "duration": 0.0625
                },
                {
                    "name": "D#4",
                    "midi": 63,
                    "time": 2.4,
                    "velocity": 0.5826771653543307,
                    "duration": 2.3125000000000004
                },
                {
                    "name": "G#4",
                    "midi": 68,
                    "time": 4.7250000000000005,
                    "velocity": 0.5196850393700787,
                    "duration": 0.0625
                },
                {
                    "name": "F#4",
                    "midi": 66,
                    "time": 4.7250000000000005,
                    "velocity": 0.4409448818897638,
                    "duration": 0.0625
                },
                {
                    "name": "C4",
                    "midi": 60,
                    "time": 4.7250000000000005,
                    "velocity": 0.4409448818897638,
                    "duration": 0.0625
                },
                {
                    "name": "C4",
                    "midi": 60,
                    "time": 4.800000000000001,
                    "velocity": 0.4645669291338583,
                    "duration": 2.3125
                },
                {
                    "name": "F#4",
                    "midi": 66,
                    "time": 4.800000000000001,
                    "velocity": 0.4645669291338583,
                    "duration": 2.3125
                },
                {
                    "name": "G#4",
                    "midi": 68,
                    "time": 4.800000000000001,
                    "velocity": 0.5590551181102362,
                    "duration": 2.3125
                },
                {
                    "name": "A4",
                    "midi": 69,
                    "time": 7.125000000000001,
                    "velocity": 0.5196850393700787,
                    "duration": 0.0625
                },
                {
                    "name": "F#4",
                    "midi": 66,
                    "time": 7.125000000000001,
                    "velocity": 0.4409448818897638,
                    "duration": 0.0625
                },
                {
                    "name": "B3",
                    "midi": 59,
                    "time": 7.125000000000001,
                    "velocity": 0.4409448818897638,
                    "duration": 0.0625
                },
                {
                    "name": "A4",
                    "midi": 69,
                    "time": 7.200000000000001,
                    "velocity": 0.5511811023622047,
                    "duration": 0.5625
                },
                {
                    "name": "F#4",
                    "midi": 66,
                    "time": 7.200000000000001,
                    "velocity": 0.4566929133858268,
                    "duration": 0.5625
                },
                {
                    "name": "B3",
                    "midi": 59,
                    "time": 7.200000000000001,
                    "velocity": 0.4566929133858268,
                    "duration": 0.5625
                },
                {
                    "name": "B3",
                    "midi": 59,
                    "time": 7.800000000000001,
                    "velocity": 0.47244094488188976,
                    "duration": 0.5625
                },
                {
                    "name": "A4",
                    "midi": 69,
                    "time": 7.800000000000001,
                    "velocity": 0.5669291338582677,
                    "duration": 0.5625
                },
                {
                    "name": "F#4",
                    "midi": 66,
                    "time": 7.800000000000001,
                    "velocity": 0.47244094488188976,
                    "duration": 0.5625
                },
                {
                    "name": "F4",
                    "midi": 65,
                    "time": 8.4,
                    "velocity": 0.49606299212598426,
                    "duration": 0.5625
                },
                {
                    "name": "A4",
                    "midi": 69,
                    "time": 8.4,
                    "velocity": 0.5826771653543307,
                    "duration": 0.5625
                },
                {
                    "name": "D#4",
                    "midi": 63,
                    "time": 9,
                    "velocity": 0.49606299212598426,
                    "duration": 0.40000000000000036
                },
                {
                    "name": "A4",
                    "midi": 69,
                    "time": 9,
                    "velocity": 0.5826771653543307,
                    "duration": 0.40000000000000036
                },
                {
                    "name": "D4",
                    "midi": 62,
                    "time": 9.525,
                    "velocity": 0.49606299212598426,
                    "duration": 1.2749999999999986
                },
                {
                    "name": "F4",
                    "midi": 65,
                    "time": 9.5625,
                    "velocity": 0.49606299212598426,
                    "duration": 1.237499999999999
                },
                {
                    "name": "A#4",
                    "midi": 70,
                    "time": 9.6,
                    "velocity": 0.5669291338582677,
                    "duration": 1.1999999999999993
                },
                {
                    "name": "A#4",
                    "midi": 70,
                    "time": 10.799999999999999,
                    "velocity": 0.28346456692913385,
                    "duration": 0.03999999999999915
                },
                {
                    "name": "D5",
                    "midi": 74,
                    "time": 10.799999999999999,
                    "velocity": 0.3228346456692913,
                    "duration": 0.03999999999999915
                },
                {
                    "name": "D4",
                    "midi": 62,
                    "time": 10.842499999999998,
                    "velocity": 0.28346456692913385,
                    "duration": 0.03999999999999915
                },
                {
                    "name": "F4",
                    "midi": 65,
                    "time": 10.842499999999998,
                    "velocity": 0.28346456692913385,
                    "duration": 0.03999999999999915
                },
                {
                    "name": "A#4",
                    "midi": 70,
                    "time": 10.884999999999996,
                    "velocity": 0.28346456692913385,
                    "duration": 0.03999999999999915
                },
                {
                    "name": "D5",
                    "midi": 74,
                    "time": 10.884999999999996,
                    "velocity": 0.28346456692913385,
                    "duration": 0.03999999999999915
                },
                {
                    "name": "F5",
                    "midi": 77,
                    "time": 10.884999999999996,
                    "velocity": 0.3228346456692913,
                    "duration": 0.03999999999999915
                },
                {
                    "name": "A#4",
                    "midi": 70,
                    "time": 10.927499999999995,
                    "velocity": 0.28346456692913385,
                    "duration": 0.03999999999999915
                },
                {
                    "name": "F4",
                    "midi": 65,
                    "time": 10.927499999999995,
                    "velocity": 0.28346456692913385,
                    "duration": 0.03999999999999915
                },
                {
                    "name": "A#5",
                    "midi": 82,
                    "time": 10.969999999999994,
                    "velocity": 0.3228346456692913,
                    "duration": 0.03999999999999915
                },
                {
                    "name": "D5",
                    "midi": 74,
                    "time": 10.969999999999994,
                    "velocity": 0.28346456692913385,
                    "duration": 0.03999999999999915
                },
                {
                    "name": "F5",
                    "midi": 77,
                    "time": 10.969999999999994,
                    "velocity": 0.28346456692913385,
                    "duration": 0.03999999999999915
                },
                {
                    "name": "A#4",
                    "midi": 70,
                    "time": 11.012499999999992,
                    "velocity": 0.28346456692913385,
                    "duration": 0.037499999999999645
                },
                {
                    "name": "D5",
                    "midi": 74,
                    "time": 11.012499999999992,
                    "velocity": 0.28346456692913385,
                    "duration": 0.037499999999999645
                },
                {
                    "name": "F5",
                    "midi": 77,
                    "time": 11.054999999999993,
                    "velocity": 0.28346456692913385,
                    "duration": 0.037499999999999645
                },
                {
                    "name": "A#5",
                    "midi": 82,
                    "time": 11.054999999999993,
                    "velocity": 0.28346456692913385,
                    "duration": 0.037499999999999645
                },
                {
                    "name": "D6",
                    "midi": 86,
                    "time": 11.054999999999993,
                    "velocity": 0.3228346456692913,
                    "duration": 0.037499999999999645
                },
                {
                    "name": "D5",
                    "midi": 74,
                    "time": 11.097499999999993,
                    "velocity": 0.28346456692913385,
                    "duration": 0.037499999999999645
                },
                {
                    "name": "F5",
                    "midi": 77,
                    "time": 11.097499999999993,
                    "velocity": 0.28346456692913385,
                    "duration": 0.037499999999999645
                },
                {
                    "name": "A#5",
                    "midi": 82,
                    "time": 11.139999999999993,
                    "velocity": 0.28346456692913385,
                    "duration": 0.037499999999999645
                },
                {
                    "name": "D6",
                    "midi": 86,
                    "time": 11.139999999999993,
                    "velocity": 0.28346456692913385,
                    "duration": 0.037499999999999645
                },
                {
                    "name": "F6",
                    "midi": 89,
                    "time": 11.139999999999993,
                    "velocity": 0.3228346456692913,
                    "duration": 0.037499999999999645
                },
                {
                    "name": "F5",
                    "midi": 77,
                    "time": 11.182499999999994,
                    "velocity": 0.28346456692913385,
                    "duration": 0.037499999999999645
                },
                {
                    "name": "A#5",
                    "midi": 82,
                    "time": 11.182499999999994,
                    "velocity": 0.28346456692913385,
                    "duration": 0.037499999999999645
                },
                {
                    "name": "A#6",
                    "midi": 94,
                    "time": 11.224999999999994,
                    "velocity": 0.33858267716535434,
                    "duration": 0.037499999999999645
                },
                {
                    "name": "D6",
                    "midi": 86,
                    "time": 11.224999999999994,
                    "velocity": 0.29133858267716534,
                    "duration": 0.037499999999999645
                },
                {
                    "name": "F6",
                    "midi": 89,
                    "time": 11.224999999999994,
                    "velocity": 0.29133858267716534,
                    "duration": 0.037499999999999645
                },
                {
                    "name": "A#5",
                    "midi": 82,
                    "time": 11.267499999999995,
                    "velocity": 0.30708661417322836,
                    "duration": 0.037499999999999645
                },
                {
                    "name": "D6",
                    "midi": 86,
                    "time": 11.267499999999995,
                    "velocity": 0.30708661417322836,
                    "duration": 0.037499999999999645
                },
                {
                    "name": "D7",
                    "midi": 98,
                    "time": 11.309999999999995,
                    "velocity": 0.3543307086614173,
                    "duration": 0.037499999999999645
                },
                {
                    "name": "A#6",
                    "midi": 94,
                    "time": 11.309999999999995,
                    "velocity": 0.3228346456692913,
                    "duration": 0.037499999999999645
                },
                {
                    "name": "F6",
                    "midi": 89,
                    "time": 11.309999999999995,
                    "velocity": 0.3228346456692913,
                    "duration": 0.037499999999999645
                },
                {
                    "name": "D6",
                    "midi": 86,
                    "time": 11.352499999999996,
                    "velocity": 0.33858267716535434,
                    "duration": 0.037499999999999645
                },
                {
                    "name": "F6",
                    "midi": 89,
                    "time": 11.352499999999996,
                    "velocity": 0.3779527559055118,
                    "duration": 0.037499999999999645
                },
                {
                    "name": "A#6",
                    "midi": 94,
                    "time": 11.399999999999995,
                    "velocity": 0.3464566929133858,
                    "duration": 0.5999999999999996
                },
                {
                    "name": "D7",
                    "midi": 98,
                    "time": 11.399999999999995,
                    "velocity": 0.3858267716535433,
                    "duration": 0.5999999999999996
                },
                {
                    "name": "F7",
                    "midi": 101,
                    "time": 11.399999999999995,
                    "velocity": 0.3464566929133858,
                    "duration": 0.5999999999999996
                },
                {
                    "name": "A#6",
                    "midi": 94,
                    "time": 11.999999999999995,
                    "velocity": 0.28346456692913385,
                    "duration": 0.09999999999999964
                },
                {
                    "name": "C#7",
                    "midi": 97,
                    "time": 11.999999999999995,
                    "velocity": 0.3228346456692913,
                    "duration": 0.09999999999999964
                },
                {
                    "name": "E6",
                    "midi": 88,
                    "time": 11.999999999999995,
                    "velocity": 0.28346456692913385,
                    "duration": 0.09999999999999964
                },
                {
                    "name": "G6",
                    "midi": 91,
                    "time": 12.099999999999994,
                    "velocity": 0.25984251968503935,
                    "duration": 0.09999999999999964
                },
                {
                    "name": "D#7",
                    "midi": 99,
                    "time": 12.099999999999994,
                    "velocity": 0.29133858267716534,
                    "duration": 0.09999999999999964
                },
                {
                    "name": "F6",
                    "midi": 89,
                    "time": 12.199999999999994,
                    "velocity": 0.2755905511811024,
                    "duration": 0.08750000000000036
                },
                {
                    "name": "D7",
                    "midi": 98,
                    "time": 12.199999999999994,
                    "velocity": 0.2992125984251969,
                    "duration": 0.08750000000000036
                },
                {
                    "name": "A6",
                    "midi": 93,
                    "time": 12.299999999999994,
                    "velocity": 0.3228346456692913,
                    "duration": 0.09999999999999964
                },
                {
                    "name": "F6",
                    "midi": 89,
                    "time": 12.299999999999994,
                    "velocity": 0.28346456692913385,
                    "duration": 0.09999999999999964
                },
                {
                    "name": "C#6",
                    "midi": 85,
                    "time": 12.299999999999994,
                    "velocity": 0.28346456692913385,
                    "duration": 0.09999999999999964
                },
                {
                    "name": "D#6",
                    "midi": 87,
                    "time": 12.399999999999993,
                    "velocity": 0.25984251968503935,
                    "duration": 0.09999999999999964
                },
                {
                    "name": "C7",
                    "midi": 96,
                    "time": 12.399999999999993,
                    "velocity": 0.29133858267716534,
                    "duration": 0.09999999999999964
                },
                {
                    "name": "D6",
                    "midi": 86,
                    "time": 12.499999999999993,
                    "velocity": 0.25984251968503935,
                    "duration": 0.08750000000000036
                },
                {
                    "name": "A#6",
                    "midi": 94,
                    "time": 12.499999999999993,
                    "velocity": 0.29133858267716534,
                    "duration": 0.08750000000000036
                },
                {
                    "name": "E6",
                    "midi": 88,
                    "time": 12.599999999999993,
                    "velocity": 0.3228346456692913,
                    "duration": 0.09999999999999964
                },
                {
                    "name": "C#6",
                    "midi": 85,
                    "time": 12.599999999999993,
                    "velocity": 0.28346456692913385,
                    "duration": 0.09999999999999964
                },
                {
                    "name": "A#5",
                    "midi": 82,
                    "time": 12.599999999999993,
                    "velocity": 0.28346456692913385,
                    "duration": 0.09999999999999964
                },
                {
                    "name": "D6",
                    "midi": 86,
                    "time": 12.699999999999992,
                    "velocity": 0.2755905511811024,
                    "duration": 0.09999999999999964
                },
                {
                    "name": "G6",
                    "midi": 91,
                    "time": 12.699999999999992,
                    "velocity": 0.2992125984251969,
                    "duration": 0.09999999999999964
                },
                {
                    "name": "A#5",
                    "midi": 82,
                    "time": 12.799999999999992,
                    "velocity": 0.2755905511811024,
                    "duration": 0.08750000000000036
                },
                {
                    "name": "F6",
                    "midi": 89,
                    "time": 12.799999999999992,
                    "velocity": 0.2992125984251969,
                    "duration": 0.08750000000000036
                },
                {
                    "name": "E5",
                    "midi": 76,
                    "time": 12.899999999999991,
                    "velocity": 0.28346456692913385,
                    "duration": 0.09999999999999964
                },
                {
                    "name": "A#5",
                    "midi": 82,
                    "time": 12.899999999999991,
                    "velocity": 0.28346456692913385,
                    "duration": 0.09999999999999964
                },
                {
                    "name": "C#6",
                    "midi": 85,
                    "time": 12.899999999999991,
                    "velocity": 0.3228346456692913,
                    "duration": 0.09999999999999964
                },
                {
                    "name": "G5",
                    "midi": 79,
                    "time": 12.999999999999991,
                    "velocity": 0.25984251968503935,
                    "duration": 0.09999999999999964
                },
                {
                    "name": "D#6",
                    "midi": 87,
                    "time": 12.999999999999991,
                    "velocity": 0.29133858267716534,
                    "duration": 0.09999999999999964
                },
                {
                    "name": "F5",
                    "midi": 77,
                    "time": 13.09999999999999,
                    "velocity": 0.2755905511811024,
                    "duration": 0.08750000000000036
                },
                {
                    "name": "D6",
                    "midi": 86,
                    "time": 13.09999999999999,
                    "velocity": 0.2992125984251969,
                    "duration": 0.08750000000000036
                },
                {
                    "name": "A5",
                    "midi": 81,
                    "time": 13.19999999999999,
                    "velocity": 0.3228346456692913,
                    "duration": 0.09999999999999964
                },
                {
                    "name": "F5",
                    "midi": 77,
                    "time": 13.19999999999999,
                    "velocity": 0.28346456692913385,
                    "duration": 0.09999999999999964
                },
                {
                    "name": "C#5",
                    "midi": 73,
                    "time": 13.19999999999999,
                    "velocity": 0.28346456692913385,
                    "duration": 0.09999999999999964
                },
                {
                    "name": "D#5",
                    "midi": 75,
                    "time": 13.29999999999999,
                    "velocity": 0.25984251968503935,
                    "duration": 0.09999999999999964
                },
                {
                    "name": "C6",
                    "midi": 84,
                    "time": 13.29999999999999,
                    "velocity": 0.29133858267716534,
                    "duration": 0.09999999999999964
                },
                {
                    "name": "D5",
                    "midi": 74,
                    "time": 13.39999999999999,
                    "velocity": 0.2755905511811024,
                    "duration": 0.08750000000000036
                },
                {
                    "name": "A#5",
                    "midi": 82,
                    "time": 13.39999999999999,
                    "velocity": 0.2992125984251969,
                    "duration": 0.08750000000000036
                },
                {
                    "name": "E5",
                    "midi": 76,
                    "time": 13.49999999999999,
                    "velocity": 0.33858267716535434,
                    "duration": 0.09999999999999964
                },
                {
                    "name": "C#5",
                    "midi": 73,
                    "time": 13.49999999999999,
                    "velocity": 0.29133858267716534,
                    "duration": 0.09999999999999964
                },
                {
                    "name": "A#4",
                    "midi": 70,
                    "time": 13.49999999999999,
                    "velocity": 0.29133858267716534,
                    "duration": 0.09999999999999964
                },
                {
                    "name": "D5",
                    "midi": 74,
                    "time": 13.599999999999989,
                    "velocity": 0.28346456692913385,
                    "duration": 0.09999999999999964
                },
                {
                    "name": "G5",
                    "midi": 79,
                    "time": 13.599999999999989,
                    "velocity": 0.3228346456692913,
                    "duration": 0.09999999999999964
                },
                {
                    "name": "F5",
                    "midi": 77,
                    "time": 13.699999999999989,
                    "velocity": 0.33070866141732286,
                    "duration": 0.08750000000000036
                },
                {
                    "name": "A#4",
                    "midi": 70,
                    "time": 13.699999999999989,
                    "velocity": 0.28346456692913385,
                    "duration": 0.08750000000000036
                },
                {
                    "name": "E4",
                    "midi": 64,
                    "time": 13.799999999999988,
                    "velocity": 0.30708661417322836,
                    "duration": 0.09999999999999964
                },
                {
                    "name": "C#5",
                    "midi": 73,
                    "time": 13.799999999999988,
                    "velocity": 0.3543307086614173,
                    "duration": 0.09999999999999964
                },
                {
                    "name": "A#4",
                    "midi": 70,
                    "time": 13.799999999999988,
                    "velocity": 0.30708661417322836,
                    "duration": 0.09999999999999964
                },
                {
                    "name": "G4",
                    "midi": 67,
                    "time": 13.899999999999988,
                    "velocity": 0.28346456692913385,
                    "duration": 0.09999999999999964
                },
                {
                    "name": "D#5",
                    "midi": 75,
                    "time": 13.899999999999988,
                    "velocity": 0.33070866141732286,
                    "duration": 0.09999999999999964
                },
                {
                    "name": "F4",
                    "midi": 65,
                    "time": 13.999999999999988,
                    "velocity": 0.28346456692913385,
                    "duration": 0.08750000000000036
                },
                {
                    "name": "D5",
                    "midi": 74,
                    "time": 13.999999999999988,
                    "velocity": 0.3228346456692913,
                    "duration": 0.08750000000000036
                },
                {
                    "name": "A4",
                    "midi": 69,
                    "time": 14.099999999999987,
                    "velocity": 0.36220472440944884,
                    "duration": 0.09999999999999964
                },
                {
                    "name": "F4",
                    "midi": 65,
                    "time": 14.099999999999987,
                    "velocity": 0.33070866141732286,
                    "duration": 0.09999999999999964
                },
                {
                    "name": "C#4",
                    "midi": 61,
                    "time": 14.099999999999987,
                    "velocity": 0.33070866141732286,
                    "duration": 0.09999999999999964
                },
                {
                    "name": "D#4",
                    "midi": 63,
                    "time": 14.199999999999987,
                    "velocity": 0.2992125984251969,
                    "duration": 0.09999999999999964
                },
                {
                    "name": "C5",
                    "midi": 72,
                    "time": 14.199999999999987,
                    "velocity": 0.3464566929133858,
                    "duration": 0.09999999999999964
                },
                {
                    "name": "D4",
                    "midi": 62,
                    "time": 14.299999999999986,
                    "velocity": 0.30708661417322836,
                    "duration": 0.08750000000000036
                },
                {
                    "name": "A#4",
                    "midi": 70,
                    "time": 14.299999999999986,
                    "velocity": 0.3543307086614173,
                    "duration": 0.08750000000000036
                },
                {
                    "name": "E4",
                    "midi": 64,
                    "time": 14.399999999999986,
                    "velocity": 0.3858267716535433,
                    "duration": 0.09999999999999964
                },
                {
                    "name": "A#3",
                    "midi": 58,
                    "time": 14.399999999999986,
                    "velocity": 0.3464566929133858,
                    "duration": 0.09999999999999964
                },
                {
                    "name": "C#4",
                    "midi": 61,
                    "time": 14.399999999999986,
                    "velocity": 0.3464566929133858,
                    "duration": 0.09999999999999964
                },
                {
                    "name": "D4",
                    "midi": 62,
                    "time": 14.499999999999986,
                    "velocity": 0.3228346456692913,
                    "duration": 0.09999999999999964
                },
                {
                    "name": "G4",
                    "midi": 67,
                    "time": 14.499999999999986,
                    "velocity": 0.3543307086614173,
                    "duration": 0.09999999999999964
                },
                {
                    "name": "A#3",
                    "midi": 58,
                    "time": 14.599999999999985,
                    "velocity": 0.3228346456692913,
                    "duration": 0.08750000000000036
                },
                {
                    "name": "F4",
                    "midi": 65,
                    "time": 14.599999999999985,
                    "velocity": 0.3543307086614173,
                    "duration": 0.08750000000000036
                },
                {
                    "name": "E3",
                    "midi": 52,
                    "time": 14.699999999999985,
                    "velocity": 0.3858267716535433,
                    "duration": 0.09999999999999964
                },
                {
                    "name": "C#4",
                    "midi": 61,
                    "time": 14.699999999999985,
                    "velocity": 0.4330708661417323,
                    "duration": 0.09999999999999964
                },
                {
                    "name": "A#3",
                    "midi": 58,
                    "time": 14.699999999999985,
                    "velocity": 0.3858267716535433,
                    "duration": 0.09999999999999964
                },
                {
                    "name": "G3",
                    "midi": 55,
                    "time": 14.799999999999985,
                    "velocity": 0.3543307086614173,
                    "duration": 0.09999999999999964
                },
                {
                    "name": "D#4",
                    "midi": 63,
                    "time": 14.799999999999985,
                    "velocity": 0.4094488188976378,
                    "duration": 0.09999999999999964
                },
                {
                    "name": "F3",
                    "midi": 53,
                    "time": 14.899999999999984,
                    "velocity": 0.3543307086614173,
                    "duration": 0.08750000000000036
                },
                {
                    "name": "D4",
                    "midi": 62,
                    "time": 14.899999999999984,
                    "velocity": 0.4094488188976378,
                    "duration": 0.08750000000000036
                },
                {
                    "name": "A3",
                    "midi": 57,
                    "time": 14.999999999999984,
                    "velocity": 0.4566929133858268,
                    "duration": 0.09999999999999964
                },
                {
                    "name": "F3",
                    "midi": 53,
                    "time": 14.999999999999984,
                    "velocity": 0.4094488188976378,
                    "duration": 0.09999999999999964
                },
                {
                    "name": "C#3",
                    "midi": 49,
                    "time": 14.999999999999984,
                    "velocity": 0.4094488188976378,
                    "duration": 0.09999999999999964
                },
                {
                    "name": "C4",
                    "midi": 60,
                    "time": 15.099999999999984,
                    "velocity": 0.4251968503937008,
                    "duration": 0.09999999999999964
                },
                {
                    "name": "D#3",
                    "midi": 51,
                    "time": 15.099999999999984,
                    "velocity": 0.3779527559055118,
                    "duration": 0.09999999999999964
                },
                {
                    "name": "D3",
                    "midi": 50,
                    "time": 15.199999999999983,
                    "velocity": 0.3779527559055118,
                    "duration": 0.08750000000000036
                },
                {
                    "name": "A#3",
                    "midi": 58,
                    "time": 15.199999999999983,
                    "velocity": 0.4251968503937008,
                    "duration": 0.08750000000000036
                },
                {
                    "name": "E3",
                    "midi": 52,
                    "time": 15.299999999999983,
                    "velocity": 0.49606299212598426,
                    "duration": 0.09999999999999964
                },
                {
                    "name": "C#3",
                    "midi": 49,
                    "time": 15.299999999999983,
                    "velocity": 0.4330708661417323,
                    "duration": 0.09999999999999964
                },
                {
                    "name": "A#2",
                    "midi": 46,
                    "time": 15.299999999999983,
                    "velocity": 0.4330708661417323,
                    "duration": 0.09999999999999964
                },
                {
                    "name": "D3",
                    "midi": 50,
                    "time": 15.399999999999983,
                    "velocity": 0.41732283464566927,
                    "duration": 0.09999999999999964
                },
                {
                    "name": "G3",
                    "midi": 55,
                    "time": 15.399999999999983,
                    "velocity": 0.4645669291338583,
                    "duration": 0.09999999999999964
                },
                {
                    "name": "A#2",
                    "midi": 46,
                    "time": 15.499999999999982,
                    "velocity": 0.41732283464566927,
                    "duration": 0.08750000000000036
                },
                {
                    "name": "F3",
                    "midi": 53,
                    "time": 15.499999999999982,
                    "velocity": 0.4645669291338583,
                    "duration": 0.08750000000000036
                },
                {
                    "name": "C#3",
                    "midi": 49,
                    "time": 15.599999999999982,
                    "velocity": 0.5433070866141733,
                    "duration": 0.09999999999999964
                },
                {
                    "name": "A#2",
                    "midi": 46,
                    "time": 15.599999999999982,
                    "velocity": 0.4881889763779528,
                    "duration": 0.09999999999999964
                },
                {
                    "name": "E2",
                    "midi": 40,
                    "time": 15.599999999999982,
                    "velocity": 0.4881889763779528,
                    "duration": 0.09999999999999964
                },
                {
                    "name": "G2",
                    "midi": 43,
                    "time": 15.699999999999982,
                    "velocity": 0.4330708661417323,
                    "duration": 0.09999999999999964
                },
                {
                    "name": "D#3",
                    "midi": 51,
                    "time": 15.699999999999982,
                    "velocity": 0.49606299212598426,
                    "duration": 0.09999999999999964
                },
                {
                    "name": "F2",
                    "midi": 41,
                    "time": 15.799999999999981,
                    "velocity": 0.4330708661417323,
                    "duration": 0.08750000000000036
                },
                {
                    "name": "D3",
                    "midi": 50,
                    "time": 15.799999999999981,
                    "velocity": 0.49606299212598426,
                    "duration": 0.08750000000000036
                },
                {
                    "name": "G#5",
                    "midi": 80,
                    "time": 17.062499999999982,
                    "velocity": 0.41732283464566927,
                    "duration": 0.18749999999999645
                },
                {
                    "name": "D6",
                    "midi": 86,
                    "time": 17.07499999999998,
                    "velocity": 0.44881889763779526,
                    "duration": 0.17499999999999716
                },
                {
                    "name": "F6",
                    "midi": 89,
                    "time": 17.08749999999998,
                    "velocity": 0.47244094488188976,
                    "duration": 0.16249999999999787
                },
                {
                    "name": "A#6",
                    "midi": 94,
                    "time": 17.09999999999998,
                    "velocity": 0.5039370078740157,
                    "duration": 0.14999999999999858
                },
                {
                    "name": "A#3",
                    "midi": 58,
                    "time": 17.399999999999977,
                    "velocity": 0.5196850393700787,
                    "duration": 1.1999999999999993
                },
                {
                    "name": "A5",
                    "midi": 81,
                    "time": 18.599999999999977,
                    "velocity": 0.3228346456692913,
                    "duration": 0.048749999999998295
                },
                {
                    "name": "A#5",
                    "midi": 82,
                    "time": 18.654999999999976,
                    "velocity": 0.28346456692913385,
                    "duration": 0.048749999999998295
                },
                {
                    "name": "D#6",
                    "midi": 87,
                    "time": 18.709999999999976,
                    "velocity": 0.2992125984251969,
                    "duration": 0.048749999999998295
                },
                {
                    "name": "C6",
                    "midi": 84,
                    "time": 18.764999999999976,
                    "velocity": 0.28346456692913385,
                    "duration": 0.048749999999998295
                },
                {
                    "name": "A#5",
                    "midi": 82,
                    "time": 18.819999999999975,
                    "velocity": 0.28346456692913385,
                    "duration": 0.048749999999998295
                },
                {
                    "name": "G#5",
                    "midi": 80,
                    "time": 18.874999999999975,
                    "velocity": 0.28346456692913385,
                    "duration": 0.048749999999998295
                },
                {
                    "name": "G5",
                    "midi": 79,
                    "time": 18.929999999999975,
                    "velocity": 0.25984251968503935,
                    "duration": 0.048749999999998295
                },
                {
                    "name": "G3",
                    "midi": 55,
                    "time": 19.49999999999997,
                    "velocity": 0.2125984251968504,
                    "duration": 0.11250000000000071
                },
                {
                    "name": "A#3",
                    "midi": 58,
                    "time": 19.49999999999997,
                    "velocity": 0.2125984251968504,
                    "duration": 0.11250000000000071
                },
                {
                    "name": "D#4",
                    "midi": 63,
                    "time": 19.49999999999997,
                    "velocity": 0.23622047244094488,
                    "duration": 0.11250000000000071
                },
                {
                    "name": "F4",
                    "midi": 65,
                    "time": 19.799999999999972,
                    "velocity": 0.25196850393700787,
                    "duration": 0.11250000000000071
                },
                {
                    "name": "A#3",
                    "midi": 58,
                    "time": 19.799999999999972,
                    "velocity": 0.2204724409448819,
                    "duration": 0.11250000000000071
                },
                {
                    "name": "G#3",
                    "midi": 56,
                    "time": 19.799999999999972,
                    "velocity": 0.2204724409448819,
                    "duration": 0.11250000000000071
                },
                {
                    "name": "F#4",
                    "midi": 66,
                    "time": 20.099999999999973,
                    "velocity": 0.2440944881889764,
                    "duration": 0.11250000000000071
                },
                {
                    "name": "A3",
                    "midi": 57,
                    "time": 20.099999999999973,
                    "velocity": 0.2125984251968504,
                    "duration": 0.11250000000000071
                },
                {
                    "name": "A#3",
                    "midi": 58,
                    "time": 20.099999999999973,
                    "velocity": 0.2125984251968504,
                    "duration": 0.11250000000000071
                },
                {
                    "name": "A#3",
                    "midi": 58,
                    "time": 20.399999999999974,
                    "velocity": 0.2283464566929134,
                    "duration": 0.3000000000000007
                },
                {
                    "name": "G4",
                    "midi": 67,
                    "time": 20.399999999999974,
                    "velocity": 0.25984251968503935,
                    "duration": 0.3000000000000007
                },
                {
                    "name": "G3",
                    "midi": 55,
                    "time": 20.699999999999974,
                    "velocity": 0.2125984251968504,
                    "duration": 0.14999999999999858
                },
                {
                    "name": "D#4",
                    "midi": 63,
                    "time": 20.699999999999974,
                    "velocity": 0.23622047244094488,
                    "duration": 0.14999999999999858
                },
                {
                    "name": "A5",
                    "midi": 81,
                    "time": 20.99999999999997,
                    "velocity": 0.3228346456692913,
                    "duration": 0.036249999999999005
                },
                {
                    "name": "A#5",
                    "midi": 82,
                    "time": 21.042499999999972,
                    "velocity": 0.28346456692913385,
                    "duration": 0.036249999999999005
                },
                {
                    "name": "G6",
                    "midi": 91,
                    "time": 21.084999999999972,
                    "velocity": 0.28346456692913385,
                    "duration": 0.036249999999999005
                },
                {
                    "name": "F6",
                    "midi": 89,
                    "time": 21.127499999999973,
                    "velocity": 0.28346456692913385,
                    "duration": 0.036249999999999005
                },
                {
                    "name": "D#6",
                    "midi": 87,
                    "time": 21.169999999999973,
                    "velocity": 0.28346456692913385,
                    "duration": 0.036249999999999005
                },
                {
                    "name": "D6",
                    "midi": 86,
                    "time": 21.212499999999974,
                    "velocity": 0.28346456692913385,
                    "duration": 0.036249999999999005
                },
                {
                    "name": "C6",
                    "midi": 84,
                    "time": 21.254999999999974,
                    "velocity": 0.28346456692913385,
                    "duration": 0.036249999999999005
                },
                {
                    "name": "A#5",
                    "midi": 82,
                    "time": 21.297499999999975,
                    "velocity": 0.28346456692913385,
                    "duration": 0.036249999999999005
                },
                {
                    "name": "G#5",
                    "midi": 80,
                    "time": 21.339999999999975,
                    "velocity": 0.28346456692913385,
                    "duration": 0.036249999999999005
                },
                {
                    "name": "G5",
                    "midi": 79,
                    "time": 21.382499999999975,
                    "velocity": 0.25984251968503935,
                    "duration": 0.036249999999999005
                },
                {
                    "name": "D#4",
                    "midi": 63,
                    "time": 21.899999999999974,
                    "velocity": 0.2047244094488189,
                    "duration": 0.11250000000000071
                },
                {
                    "name": "G3",
                    "midi": 55,
                    "time": 21.899999999999974,
                    "velocity": 0.2047244094488189,
                    "duration": 0.11250000000000071
                },
                {
                    "name": "A#3",
                    "midi": 58,
                    "time": 21.899999999999974,
                    "velocity": 0.2047244094488189,
                    "duration": 0.11250000000000071
                },
                {
                    "name": "G#3",
                    "midi": 56,
                    "time": 22.199999999999974,
                    "velocity": 0.2204724409448819,
                    "duration": 0.11250000000000071
                },
                {
                    "name": "D4",
                    "midi": 62,
                    "time": 22.199999999999974,
                    "velocity": 0.2204724409448819,
                    "duration": 0.11250000000000071
                },
                {
                    "name": "F4",
                    "midi": 65,
                    "time": 22.199999999999974,
                    "velocity": 0.25196850393700787,
                    "duration": 0.11250000000000071
                },
                {
                    "name": "A#3",
                    "midi": 58,
                    "time": 22.499999999999975,
                    "velocity": 0.2125984251968504,
                    "duration": 0.11250000000000071
                },
                {
                    "name": "G4",
                    "midi": 67,
                    "time": 22.499999999999975,
                    "velocity": 0.23622047244094488,
                    "duration": 0.11250000000000071
                },
                {
                    "name": "G3",
                    "midi": 55,
                    "time": 22.799999999999976,
                    "velocity": 0.2125984251968504,
                    "duration": 0.5749999999999993
                },
                {
                    "name": "D#4",
                    "midi": 63,
                    "time": 22.799999999999976,
                    "velocity": 0.23622047244094488,
                    "duration": 0.5749999999999993
                },
                {
                    "name": "A6",
                    "midi": 93,
                    "time": 23.399999999999974,
                    "velocity": 0.3228346456692913,
                    "duration": 0.03750000000000142
                },
                {
                    "name": "A#6",
                    "midi": 94,
                    "time": 23.439999999999976,
                    "velocity": 0.28346456692913385,
                    "duration": 0.03750000000000142
                },
                {
                    "name": "D#7",
                    "midi": 99,
                    "time": 23.47999999999998,
                    "velocity": 0.2992125984251969,
                    "duration": 0.030000000000001137
                },
                {
                    "name": "C7",
                    "midi": 96,
                    "time": 23.51249999999998,
                    "velocity": 0.28346456692913385,
                    "duration": 0.030000000000001137
                },
                {
                    "name": "A#6",
                    "midi": 94,
                    "time": 23.544999999999984,
                    "velocity": 0.28346456692913385,
                    "duration": 0.030000000000001137
                },
                {
                    "name": "G#6",
                    "midi": 92,
                    "time": 23.577499999999986,
                    "velocity": 0.28346456692913385,
                    "duration": 0.030000000000001137
                },
                {
                    "name": "G6",
                    "midi": 91,
                    "time": 23.60999999999999,
                    "velocity": 0.25984251968503935,
                    "duration": 0.030000000000001137
                },
                {
                    "name": "D#4",
                    "midi": 63,
                    "time": 24.29999999999999,
                    "velocity": 0.25984251968503935,
                    "duration": 0.11250000000000071
                },
                {
                    "name": "A#3",
                    "midi": 58,
                    "time": 24.29999999999999,
                    "velocity": 0.2283464566929134,
                    "duration": 0.11250000000000071
                },
                {
                    "name": "G3",
                    "midi": 55,
                    "time": 24.29999999999999,
                    "velocity": 0.2283464566929134,
                    "duration": 0.11250000000000071
                },
                {
                    "name": "F4",
                    "midi": 65,
                    "time": 24.59999999999999,
                    "velocity": 0.28346456692913385,
                    "duration": 0.11250000000000071
                },
                {
                    "name": "A#3",
                    "midi": 58,
                    "time": 24.59999999999999,
                    "velocity": 0.2440944881889764,
                    "duration": 0.11250000000000071
                },
                {
                    "name": "G#3",
                    "midi": 56,
                    "time": 24.59999999999999,
                    "velocity": 0.2440944881889764,
                    "duration": 0.11250000000000071
                },
                {
                    "name": "F#4",
                    "midi": 66,
                    "time": 24.89999999999999,
                    "velocity": 0.2755905511811024,
                    "duration": 0.11250000000000071
                },
                {
                    "name": "A#3",
                    "midi": 58,
                    "time": 24.89999999999999,
                    "velocity": 0.23622047244094488,
                    "duration": 0.11250000000000071
                },
                {
                    "name": "A3",
                    "midi": 57,
                    "time": 24.89999999999999,
                    "velocity": 0.23622047244094488,
                    "duration": 0.11250000000000071
                },
                {
                    "name": "A#3",
                    "midi": 58,
                    "time": 25.199999999999992,
                    "velocity": 0.25196850393700787,
                    "duration": 0.3000000000000007
                },
                {
                    "name": "G4",
                    "midi": 67,
                    "time": 25.199999999999992,
                    "velocity": 0.28346456692913385,
                    "duration": 0.3000000000000007
                },
                {
                    "name": "G3",
                    "midi": 55,
                    "time": 25.499999999999993,
                    "velocity": 0.2283464566929134,
                    "duration": 0.14999999999999858
                },
                {
                    "name": "D#4",
                    "midi": 63,
                    "time": 25.499999999999993,
                    "velocity": 0.25984251968503935,
                    "duration": 0.14999999999999858
                },
                {
                    "name": "A6",
                    "midi": 93,
                    "time": 25.79999999999999,
                    "velocity": 0.3228346456692913,
                    "duration": 0.036249999999999005
                },
                {
                    "name": "A#6",
                    "midi": 94,
                    "time": 25.83874999999999,
                    "velocity": 0.28346456692913385,
                    "duration": 0.036249999999999005
                },
                {
                    "name": "G7",
                    "midi": 103,
                    "time": 25.87749999999999,
                    "velocity": 0.28346456692913385,
                    "duration": 0.02499999999999858
                },
                {
                    "name": "F7",
                    "midi": 101,
                    "time": 25.90499999999999,
                    "velocity": 0.28346456692913385,
                    "duration": 0.02499999999999858
                },
                {
                    "name": "D#7",
                    "midi": 99,
                    "time": 25.93249999999999,
                    "velocity": 0.28346456692913385,
                    "duration": 0.02499999999999858
                },
                {
                    "name": "D7",
                    "midi": 98,
                    "time": 25.95999999999999,
                    "velocity": 0.28346456692913385,
                    "duration": 0.02499999999999858
                },
                {
                    "name": "C7",
                    "midi": 96,
                    "time": 25.98749999999999,
                    "velocity": 0.28346456692913385,
                    "duration": 0.02499999999999858
                },
                {
                    "name": "A#6",
                    "midi": 94,
                    "time": 26.01499999999999,
                    "velocity": 0.28346456692913385,
                    "duration": 0.02499999999999858
                },
                {
                    "name": "G#6",
                    "midi": 92,
                    "time": 26.04249999999999,
                    "velocity": 0.28346456692913385,
                    "duration": 0.02499999999999858
                },
                {
                    "name": "G6",
                    "midi": 91,
                    "time": 26.06999999999999,
                    "velocity": 0.25984251968503935,
                    "duration": 0.02499999999999858
                },
                {
                    "name": "D#4",
                    "midi": 63,
                    "time": 26.69999999999999,
                    "velocity": 0.28346456692913385,
                    "duration": 0.11250000000000071
                },
                {
                    "name": "A#3",
                    "midi": 58,
                    "time": 26.69999999999999,
                    "velocity": 0.25196850393700787,
                    "duration": 0.11250000000000071
                },
                {
                    "name": "G3",
                    "midi": 55,
                    "time": 26.69999999999999,
                    "velocity": 0.25196850393700787,
                    "duration": 0.11250000000000071
                },
                {
                    "name": "G#3",
                    "midi": 56,
                    "time": 26.99999999999999,
                    "velocity": 0.25984251968503935,
                    "duration": 0.11250000000000071
                },
                {
                    "name": "D4",
                    "midi": 62,
                    "time": 26.99999999999999,
                    "velocity": 0.25984251968503935,
                    "duration": 0.11250000000000071
                },
                {
                    "name": "F4",
                    "midi": 65,
                    "time": 26.99999999999999,
                    "velocity": 0.29133858267716534,
                    "duration": 0.11250000000000071
                },
                {
                    "name": "D4",
                    "midi": 62,
                    "time": 27.29999999999999,
                    "velocity": 0.25196850393700787,
                    "duration": 0.11250000000000071
                },
                {
                    "name": "G#3",
                    "midi": 56,
                    "time": 27.29999999999999,
                    "velocity": 0.25196850393700787,
                    "duration": 0.11250000000000071
                },
                {
                    "name": "G4",
                    "midi": 67,
                    "time": 27.29999999999999,
                    "velocity": 0.28346456692913385,
                    "duration": 0.11250000000000071
                },
                {
                    "name": "G3",
                    "midi": 55,
                    "time": 27.59999999999999,
                    "velocity": 0.23622047244094488,
                    "duration": 0.5749999999999993
                },
                {
                    "name": "D#4",
                    "midi": 63,
                    "time": 27.59999999999999,
                    "velocity": 0.2755905511811024,
                    "duration": 0.5749999999999993
                },
                {
                    "name": "D4",
                    "midi": 62,
                    "time": 29.09999999999999,
                    "velocity": 0.3937007874015748,
                    "duration": 0.11250000000000071
                },
                {
                    "name": "A#3",
                    "midi": 58,
                    "time": 29.09999999999999,
                    "velocity": 0.3543307086614173,
                    "duration": 0.11250000000000071
                },
                {
                    "name": "C4",
                    "midi": 60,
                    "time": 29.39999999999999,
                    "velocity": 0.3937007874015748,
                    "duration": 0.11250000000000071
                },
                {
                    "name": "A#3",
                    "midi": 58,
                    "time": 29.39999999999999,
                    "velocity": 0.3937007874015748,
                    "duration": 0.11250000000000071
                },
                {
                    "name": "D#4",
                    "midi": 63,
                    "time": 29.39999999999999,
                    "velocity": 0.4409448818897638,
                    "duration": 0.11250000000000071
                },
                {
                    "name": "A#3",
                    "midi": 58,
                    "time": 29.699999999999992,
                    "velocity": 0.3543307086614173,
                    "duration": 0.11250000000000071
                },
                {
                    "name": "C#4",
                    "midi": 61,
                    "time": 29.699999999999992,
                    "velocity": 0.3543307086614173,
                    "duration": 0.11250000000000071
                },
                {
                    "name": "E4",
                    "midi": 64,
                    "time": 29.699999999999992,
                    "velocity": 0.4015748031496063,
                    "duration": 0.11250000000000071
                },
                {
                    "name": "D4",
                    "midi": 62,
                    "time": 29.999999999999993,
                    "velocity": 0.3543307086614173,
                    "duration": 0.3000000000000007
                },
                {
                    "name": "F4",
                    "midi": 65,
                    "time": 29.999999999999993,
                    "velocity": 0.4094488188976378,
                    "duration": 0.3000000000000007
                },
                {
                    "name": "A#3",
                    "midi": 58,
                    "time": 30.299999999999994,
                    "velocity": 0.3464566929133858,
                    "duration": 0.14999999999999858
                },
                {
                    "name": "D4",
                    "midi": 62,
                    "time": 30.299999999999994,
                    "velocity": 0.3858267716535433,
                    "duration": 0.14999999999999858
                },
                {
                    "name": "D4",
                    "midi": 62,
                    "time": 31.499999999999993,
                    "velocity": 0.3858267716535433,
                    "duration": 0.11250000000000071
                },
                {
                    "name": "A#3",
                    "midi": 58,
                    "time": 31.499999999999993,
                    "velocity": 0.3464566929133858,
                    "duration": 0.11250000000000071
                },
                {
                    "name": "A3",
                    "midi": 57,
                    "time": 31.799999999999994,
                    "velocity": 0.36220472440944884,
                    "duration": 0.11250000000000071
                },
                {
                    "name": "D#4",
                    "midi": 63,
                    "time": 31.799999999999994,
                    "velocity": 0.41732283464566927,
                    "duration": 0.11250000000000071
                },
                {
                    "name": "A3",
                    "midi": 57,
                    "time": 32.099999999999994,
                    "velocity": 0.3543307086614173,
                    "duration": 0.11249999999999716
                },
                {
                    "name": "F4",
                    "midi": 65,
                    "time": 32.099999999999994,
                    "velocity": 0.3937007874015748,
                    "duration": 0.11249999999999716
                },
                {
                    "name": "A#3",
                    "midi": 58,
                    "time": 32.39999999999999,
                    "velocity": 0.3543307086614173,
                    "duration": 0.5750000000000028
                },
                {
                    "name": "D4",
                    "midi": 62,
                    "time": 32.39999999999999,
                    "velocity": 0.4015748031496063,
                    "duration": 0.5750000000000028
                },
                {
                    "name": "A#4",
                    "midi": 70,
                    "time": 32.99999999999999,
                    "velocity": 0.4566929133858268,
                    "duration": 0.048749999999998295
                },
                {
                    "name": "A4",
                    "midi": 69,
                    "time": 33.04999999999999,
                    "velocity": 0.4566929133858268,
                    "duration": 0.048749999999998295
                },
                {
                    "name": "G#4",
                    "midi": 68,
                    "time": 33.09999999999999,
                    "velocity": 0.4566929133858268,
                    "duration": 0.048749999999998295
                },
                {
                    "name": "G4",
                    "midi": 67,
                    "time": 33.149999999999984,
                    "velocity": 0.4566929133858268,
                    "duration": 0.048749999999998295
                },
                {
                    "name": "D4",
                    "midi": 62,
                    "time": 33.399999999999984,
                    "velocity": 0.5039370078740157,
                    "duration": 0.048749999999998295
                },
                {
                    "name": "C#4",
                    "midi": 61,
                    "time": 33.44999999999998,
                    "velocity": 0.5275590551181102,
                    "duration": 0.048749999999998295
                },
                {
                    "name": "C4",
                    "midi": 60,
                    "time": 33.49999999999998,
                    "velocity": 0.5511811023622047,
                    "duration": 0.048749999999998295
                },
                {
                    "name": "B3",
                    "midi": 59,
                    "time": 33.549999999999976,
                    "velocity": 0.5669291338582677,
                    "duration": 0.048749999999998295
                },
                {
                    "name": "A#3",
                    "midi": 58,
                    "time": 33.59999999999997,
                    "velocity": 0.6850393700787402,
                    "duration": 0.07500000000000284
                },
                {
                    "name": "D5",
                    "midi": 74,
                    "time": 33.89999999999998,
                    "velocity": 0.41732283464566927,
                    "duration": 0.11249999999999716
                },
                {
                    "name": "D4",
                    "midi": 62,
                    "time": 33.89999999999998,
                    "velocity": 0.36220472440944884,
                    "duration": 0.11249999999999716
                },
                {
                    "name": "A#4",
                    "midi": 70,
                    "time": 33.89999999999998,
                    "velocity": 0.36220472440944884,
                    "duration": 0.11249999999999716
                },
                {
                    "name": "D#4",
                    "midi": 63,
                    "time": 34.199999999999974,
                    "velocity": 0.4015748031496063,
                    "duration": 0.11249999999999716
                },
                {
                    "name": "D#5",
                    "midi": 75,
                    "time": 34.199999999999974,
                    "velocity": 0.44881889763779526,
                    "duration": 0.11249999999999716
                },
                {
                    "name": "A#4",
                    "midi": 70,
                    "time": 34.199999999999974,
                    "velocity": 0.4015748031496063,
                    "duration": 0.11249999999999716
                },
                {
                    "name": "E5",
                    "midi": 76,
                    "time": 34.49999999999997,
                    "velocity": 0.4251968503937008,
                    "duration": 0.11249999999999716
                },
                {
                    "name": "A#4",
                    "midi": 70,
                    "time": 34.49999999999997,
                    "velocity": 0.3779527559055118,
                    "duration": 0.11249999999999716
                },
                {
                    "name": "E4",
                    "midi": 64,
                    "time": 34.49999999999997,
                    "velocity": 0.3779527559055118,
                    "duration": 0.11249999999999716
                },
                {
                    "name": "A#4",
                    "midi": 70,
                    "time": 34.79999999999997,
                    "velocity": 0.3543307086614173,
                    "duration": 0.5749999999999957
                },
                {
                    "name": "F4",
                    "midi": 65,
                    "time": 34.79999999999997,
                    "velocity": 0.3543307086614173,
                    "duration": 0.5749999999999957
                },
                {
                    "name": "F5",
                    "midi": 77,
                    "time": 34.79999999999997,
                    "velocity": 0.4330708661417323,
                    "duration": 0.29999999999999716
                },
                {
                    "name": "D5",
                    "midi": 74,
                    "time": 35.099999999999966,
                    "velocity": 0.4094488188976378,
                    "duration": 0.14999999999999858
                },
                {
                    "name": "C4",
                    "midi": 60,
                    "time": 35.76999999999997,
                    "velocity": 0.44881889763779526,
                    "duration": 0.045000000000001705
                },
                {
                    "name": "D4",
                    "midi": 62,
                    "time": 35.81624999999997,
                    "velocity": 0.4566929133858268,
                    "duration": 0.045000000000001705
                },
                {
                    "name": "D#4",
                    "midi": 63,
                    "time": 35.86249999999997,
                    "velocity": 0.47244094488188976,
                    "duration": 0.045000000000001705
                },
                {
                    "name": "E4",
                    "midi": 64,
                    "time": 35.90874999999997,
                    "velocity": 0.4881889763779528,
                    "duration": 0.045000000000001705
                },
                {
                    "name": "G4",
                    "midi": 67,
                    "time": 35.95499999999997,
                    "velocity": 0.49606299212598426,
                    "duration": 0.04375000000000284
                },
                {
                    "name": "F4",
                    "midi": 65,
                    "time": 35.99999999999997,
                    "velocity": 0.4330708661417323,
                    "duration": 0.6999999999999957
                },
                {
                    "name": "D5",
                    "midi": 74,
                    "time": 36.29999999999997,
                    "velocity": 0.33070866141732286,
                    "duration": 0.29999999999999716
                },
                {
                    "name": "G#4",
                    "midi": 68,
                    "time": 36.29999999999997,
                    "velocity": 0.28346456692913385,
                    "duration": 0.29999999999999716
                },
                {
                    "name": "A4",
                    "midi": 69,
                    "time": 36.599999999999966,
                    "velocity": 0.3228346456692913,
                    "duration": 0.30000000000000426
                },
                {
                    "name": "D#5",
                    "midi": 75,
                    "time": 36.599999999999966,
                    "velocity": 0.3543307086614173,
                    "duration": 0.30000000000000426
                },
                {
                    "name": "F4",
                    "midi": 65,
                    "time": 36.69999999999997,
                    "velocity": 0.33858267716535434,
                    "duration": 0.10000000000000142
                },
                {
                    "name": "G4",
                    "midi": 67,
                    "time": 36.79999999999997,
                    "velocity": 0.29133858267716534,
                    "duration": 0.10000000000000142
                },
                {
                    "name": "C5",
                    "midi": 72,
                    "time": 36.89999999999997,
                    "velocity": 0.28346456692913385,
                    "duration": 0.30000000000001137
                },
                {
                    "name": "D#4",
                    "midi": 63,
                    "time": 36.89999999999997,
                    "velocity": 0.33858267716535434,
                    "duration": 0.10000000000000142
                },
                {
                    "name": "F5",
                    "midi": 77,
                    "time": 36.89999999999997,
                    "velocity": 0.3228346456692913,
                    "duration": 0.30000000000001137
                },
                {
                    "name": "C4",
                    "midi": 60,
                    "time": 36.99999999999997,
                    "velocity": 0.30708661417322836,
                    "duration": 0.10000000000000142
                },
                {
                    "name": "D4",
                    "midi": 62,
                    "time": 37.09999999999997,
                    "velocity": 0.2992125984251969,
                    "duration": 0.02499999999999858
                },
                {
                    "name": "A#3",
                    "midi": 58,
                    "time": 37.16249999999997,
                    "velocity": 0.28346456692913385,
                    "duration": 0.6125000000000114
                },
                {
                    "name": "F4",
                    "midi": 65,
                    "time": 37.174999999999976,
                    "velocity": 0.28346456692913385,
                    "duration": 0.6000000000000085
                },
                {
                    "name": "A#4",
                    "midi": 70,
                    "time": 37.18749999999998,
                    "velocity": 0.28346456692913385,
                    "duration": 0.5875000000000057
                },
                {
                    "name": "D5",
                    "midi": 74,
                    "time": 37.19999999999998,
                    "velocity": 0.2992125984251969,
                    "duration": 0.5750000000000028
                },
                {
                    "name": "A#5",
                    "midi": 82,
                    "time": 37.79999999999998,
                    "velocity": 0.36220472440944884,
                    "duration": 0.11249999999999716
                },
                {
                    "name": "C#5",
                    "midi": 73,
                    "time": 37.79999999999998,
                    "velocity": 0.36220472440944884,
                    "duration": 0.11249999999999716
                },
                {
                    "name": "F5",
                    "midi": 77,
                    "time": 37.79999999999998,
                    "velocity": 0.36220472440944884,
                    "duration": 0.11249999999999716
                },
                {
                    "name": "A5",
                    "midi": 81,
                    "time": 37.91249999999998,
                    "velocity": 0.2992125984251969,
                    "duration": 0.03750000000000142
                },
                {
                    "name": "G#5",
                    "midi": 80,
                    "time": 37.94999999999998,
                    "velocity": 0.2992125984251969,
                    "duration": 0.05624999999999858
                },
                {
                    "name": "C5",
                    "midi": 72,
                    "time": 37.94999999999998,
                    "velocity": 0.2992125984251969,
                    "duration": 0.05624999999999858
                },
                {
                    "name": "G5",
                    "midi": 79,
                    "time": 38.00624999999998,
                    "velocity": 0.30708661417322836,
                    "duration": 0.05624999999999858
                },
                {
                    "name": "D5",
                    "midi": 74,
                    "time": 38.00624999999998,
                    "velocity": 0.30708661417322836,
                    "duration": 0.05624999999999858
                },
                {
                    "name": "B4",
                    "midi": 71,
                    "time": 38.00624999999998,
                    "velocity": 0.30708661417322836,
                    "duration": 0.05624999999999858
                },
                {
                    "name": "A#4",
                    "midi": 70,
                    "time": 38.06249999999998,
                    "velocity": 0.3228346456692913,
                    "duration": 0.05624999999999858
                },
                {
                    "name": "F#5",
                    "midi": 78,
                    "time": 38.06249999999998,
                    "velocity": 0.3228346456692913,
                    "duration": 0.05624999999999858
                },
                {
                    "name": "F5",
                    "midi": 77,
                    "time": 38.11874999999998,
                    "velocity": 0.33070866141732286,
                    "duration": 0.05624999999999858
                },
                {
                    "name": "C5",
                    "midi": 72,
                    "time": 38.11874999999998,
                    "velocity": 0.33070866141732286,
                    "duration": 0.05624999999999858
                },
                {
                    "name": "A4",
                    "midi": 69,
                    "time": 38.11874999999998,
                    "velocity": 0.33070866141732286,
                    "duration": 0.05624999999999858
                },
                {
                    "name": "E5",
                    "midi": 76,
                    "time": 38.174999999999976,
                    "velocity": 0.33858267716535434,
                    "duration": 0.05624999999999858
                },
                {
                    "name": "G#4",
                    "midi": 68,
                    "time": 38.174999999999976,
                    "velocity": 0.33858267716535434,
                    "duration": 0.05624999999999858
                },
                {
                    "name": "D#5",
                    "midi": 75,
                    "time": 38.231249999999974,
                    "velocity": 0.3464566929133858,
                    "duration": 0.05624999999999858
                },
                {
                    "name": "A#4",
                    "midi": 70,
                    "time": 38.231249999999974,
                    "velocity": 0.3464566929133858,
                    "duration": 0.05624999999999858
                },
                {
                    "name": "G4",
                    "midi": 67,
                    "time": 38.231249999999974,
                    "velocity": 0.3464566929133858,
                    "duration": 0.05624999999999858
                },
                {
                    "name": "D5",
                    "midi": 74,
                    "time": 38.28749999999997,
                    "velocity": 0.3543307086614173,
                    "duration": 0.05624999999999858
                },
                {
                    "name": "F#4",
                    "midi": 66,
                    "time": 38.28749999999997,
                    "velocity": 0.3543307086614173,
                    "duration": 0.05624999999999858
                },
                {
                    "name": "F4",
                    "midi": 65,
                    "time": 38.34374999999997,
                    "velocity": 0.36220472440944884,
                    "duration": 0.05624999999999858
                },
                {
                    "name": "G#4",
                    "midi": 68,
                    "time": 38.34374999999997,
                    "velocity": 0.36220472440944884,
                    "duration": 0.05624999999999858
                },
                {
                    "name": "C#5",
                    "midi": 73,
                    "time": 38.34374999999997,
                    "velocity": 0.36220472440944884,
                    "duration": 0.05624999999999858
                },
                {
                    "name": "E4",
                    "midi": 64,
                    "time": 38.39999999999997,
                    "velocity": 0.3779527559055118,
                    "duration": 0.07500000000000284
                },
                {
                    "name": "C5",
                    "midi": 72,
                    "time": 38.39999999999997,
                    "velocity": 0.3779527559055118,
                    "duration": 0.07500000000000284
                },
                {
                    "name": "G4",
                    "midi": 67,
                    "time": 38.39999999999997,
                    "velocity": 0.3779527559055118,
                    "duration": 0.07500000000000284
                },
                {
                    "name": "A#3",
                    "midi": 58,
                    "time": 38.699999999999974,
                    "velocity": 0.29133858267716534,
                    "duration": 0.11249999999999716
                },
                {
                    "name": "E4",
                    "midi": 64,
                    "time": 38.699999999999974,
                    "velocity": 0.33858267716535434,
                    "duration": 0.11249999999999716
                },
                {
                    "name": "G3",
                    "midi": 55,
                    "time": 38.699999999999974,
                    "velocity": 0.29133858267716534,
                    "duration": 0.11249999999999716
                },
                {
                    "name": "G#3",
                    "midi": 56,
                    "time": 38.99999999999997,
                    "velocity": 0.3228346456692913,
                    "duration": 0.11249999999999716
                },
                {
                    "name": "F4",
                    "midi": 65,
                    "time": 38.99999999999997,
                    "velocity": 0.3543307086614173,
                    "duration": 0.11249999999999716
                },
                {
                    "name": "C#4",
                    "midi": 61,
                    "time": 38.99999999999997,
                    "velocity": 0.3228346456692913,
                    "duration": 0.11249999999999716
                },
                {
                    "name": "B3",
                    "midi": 59,
                    "time": 39.29999999999997,
                    "velocity": 0.29133858267716534,
                    "duration": 0.11249999999999716
                },
                {
                    "name": "D4",
                    "midi": 62,
                    "time": 39.29999999999997,
                    "velocity": 0.29133858267716534,
                    "duration": 0.11249999999999716
                },
                {
                    "name": "G#4",
                    "midi": 68,
                    "time": 39.29999999999997,
                    "velocity": 0.33858267716535434,
                    "duration": 0.11249999999999716
                },
                {
                    "name": "G4",
                    "midi": 67,
                    "time": 39.599999999999966,
                    "velocity": 0.33858267716535434,
                    "duration": 0.29999999999999716
                },
                {
                    "name": "E4",
                    "midi": 64,
                    "time": 39.599999999999966,
                    "velocity": 0.29133858267716534,
                    "duration": 0.29999999999999716
                },
                {
                    "name": "G3",
                    "midi": 55,
                    "time": 39.89999999999996,
                    "velocity": 0.25196850393700787,
                    "duration": 0.11249999999999716
                },
                {
                    "name": "C4",
                    "midi": 60,
                    "time": 39.89999999999996,
                    "velocity": 0.28346456692913385,
                    "duration": 0.11249999999999716
                },
                {
                    "name": "F5",
                    "midi": 77,
                    "time": 40.19999999999996,
                    "velocity": 0.3937007874015748,
                    "duration": 0.11249999999999716
                },
                {
                    "name": "C#5",
                    "midi": 73,
                    "time": 40.19999999999996,
                    "velocity": 0.3937007874015748,
                    "duration": 0.11249999999999716
                },
                {
                    "name": "A#5",
                    "midi": 82,
                    "time": 40.19999999999996,
                    "velocity": 0.3937007874015748,
                    "duration": 0.11249999999999716
                },
                {
                    "name": "A5",
                    "midi": 81,
                    "time": 40.31249999999996,
                    "velocity": 0.3228346456692913,
                    "duration": 0.03750000000000142
                },
                {
                    "name": "C5",
                    "midi": 72,
                    "time": 40.34999999999996,
                    "velocity": 0.33070866141732286,
                    "duration": 0.05624999999999858
                },
                {
                    "name": "G#5",
                    "midi": 80,
                    "time": 40.34999999999996,
                    "velocity": 0.33070866141732286,
                    "duration": 0.05624999999999858
                },
                {
                    "name": "G5",
                    "midi": 79,
                    "time": 40.40624999999996,
                    "velocity": 0.33858267716535434,
                    "duration": 0.05624999999999858
                },
                {
                    "name": "D5",
                    "midi": 74,
                    "time": 40.40624999999996,
                    "velocity": 0.33858267716535434,
                    "duration": 0.05624999999999858
                },
                {
                    "name": "B4",
                    "midi": 71,
                    "time": 40.40624999999996,
                    "velocity": 0.33858267716535434,
                    "duration": 0.05624999999999858
                },
                {
                    "name": "F#5",
                    "midi": 78,
                    "time": 40.462499999999956,
                    "velocity": 0.3464566929133858,
                    "duration": 0.05624999999999858
                },
                {
                    "name": "A#4",
                    "midi": 70,
                    "time": 40.462499999999956,
                    "velocity": 0.3464566929133858,
                    "duration": 0.05624999999999858
                },
                {
                    "name": "F5",
                    "midi": 77,
                    "time": 40.518749999999955,
                    "velocity": 0.3543307086614173,
                    "duration": 0.05624999999999858
                },
                {
                    "name": "C5",
                    "midi": 72,
                    "time": 40.518749999999955,
                    "velocity": 0.3543307086614173,
                    "duration": 0.05624999999999858
                },
                {
                    "name": "A4",
                    "midi": 69,
                    "time": 40.518749999999955,
                    "velocity": 0.3543307086614173,
                    "duration": 0.05624999999999858
                },
                {
                    "name": "E5",
                    "midi": 76,
                    "time": 40.57499999999995,
                    "velocity": 0.3543307086614173,
                    "duration": 0.05624999999999858
                },
                {
                    "name": "G#4",
                    "midi": 68,
                    "time": 40.57499999999995,
                    "velocity": 0.3543307086614173,
                    "duration": 0.05624999999999858
                },
                {
                    "name": "G4",
                    "midi": 67,
                    "time": 40.63124999999995,
                    "velocity": 0.36220472440944884,
                    "duration": 0.05624999999999858
                },
                {
                    "name": "A#4",
                    "midi": 70,
                    "time": 40.63124999999995,
                    "velocity": 0.36220472440944884,
                    "duration": 0.05624999999999858
                },
                {
                    "name": "D#5",
                    "midi": 75,
                    "time": 40.63124999999995,
                    "velocity": 0.36220472440944884,
                    "duration": 0.05624999999999858
                },
                {
                    "name": "D5",
                    "midi": 74,
                    "time": 40.68749999999995,
                    "velocity": 0.3858267716535433,
                    "duration": 0.05624999999999858
                },
                {
                    "name": "F#4",
                    "midi": 66,
                    "time": 40.68749999999995,
                    "velocity": 0.3858267716535433,
                    "duration": 0.05624999999999858
                },
                {
                    "name": "G#4",
                    "midi": 68,
                    "time": 40.74374999999995,
                    "velocity": 0.3937007874015748,
                    "duration": 0.05624999999999858
                },
                {
                    "name": "C#5",
                    "midi": 73,
                    "time": 40.74374999999995,
                    "velocity": 0.3937007874015748,
                    "duration": 0.05624999999999858
                },
                {
                    "name": "F4",
                    "midi": 65,
                    "time": 40.74374999999995,
                    "velocity": 0.3937007874015748,
                    "duration": 0.05624999999999858
                },
                {
                    "name": "E4",
                    "midi": 64,
                    "time": 40.79999999999995,
                    "velocity": 0.4015748031496063,
                    "duration": 0.07500000000000284
                },
                {
                    "name": "G4",
                    "midi": 67,
                    "time": 40.79999999999995,
                    "velocity": 0.4015748031496063,
                    "duration": 0.07500000000000284
                },
                {
                    "name": "C5",
                    "midi": 72,
                    "time": 40.79999999999995,
                    "velocity": 0.4015748031496063,
                    "duration": 0.07500000000000284
                },
                {
                    "name": "E4",
                    "midi": 64,
                    "time": 41.09999999999995,
                    "velocity": 0.29133858267716534,
                    "duration": 0.11249999999999716
                },
                {
                    "name": "G4",
                    "midi": 67,
                    "time": 41.09999999999995,
                    "velocity": 0.29133858267716534,
                    "duration": 0.11249999999999716
                },
                {
                    "name": "E5",
                    "midi": 76,
                    "time": 41.09999999999995,
                    "velocity": 0.33858267716535434,
                    "duration": 0.11249999999999716
                },
                {
                    "name": "A#4",
                    "midi": 70,
                    "time": 41.09999999999995,
                    "velocity": 0.29133858267716534,
                    "duration": 0.11249999999999716
                },
                {
                    "name": "F4",
                    "midi": 65,
                    "time": 41.39999999999995,
                    "velocity": 0.33070866141732286,
                    "duration": 0.11249999999999716
                },
                {
                    "name": "C#5",
                    "midi": 73,
                    "time": 41.39999999999995,
                    "velocity": 0.33070866141732286,
                    "duration": 0.11249999999999716
                },
                {
                    "name": "F5",
                    "midi": 77,
                    "time": 41.39999999999995,
                    "velocity": 0.36220472440944884,
                    "duration": 0.11249999999999716
                },
                {
                    "name": "G#4",
                    "midi": 68,
                    "time": 41.39999999999995,
                    "velocity": 0.33070866141732286,
                    "duration": 0.11249999999999716
                },
                {
                    "name": "G#4",
                    "midi": 68,
                    "time": 41.699999999999946,
                    "velocity": 0.29133858267716534,
                    "duration": 0.11249999999999716
                },
                {
                    "name": "B4",
                    "midi": 71,
                    "time": 41.699999999999946,
                    "velocity": 0.29133858267716534,
                    "duration": 0.11249999999999716
                },
                {
                    "name": "G#5",
                    "midi": 80,
                    "time": 41.699999999999946,
                    "velocity": 0.33858267716535434,
                    "duration": 0.11249999999999716
                },
                {
                    "name": "D5",
                    "midi": 74,
                    "time": 41.699999999999946,
                    "velocity": 0.29133858267716534,
                    "duration": 0.11249999999999716
                },
                {
                    "name": "E5",
                    "midi": 76,
                    "time": 41.99999999999994,
                    "velocity": 0.29133858267716534,
                    "duration": 0.29999999999999716
                },
                {
                    "name": "G5",
                    "midi": 79,
                    "time": 41.99999999999994,
                    "velocity": 0.33858267716535434,
                    "duration": 0.29999999999999716
                },
                {
                    "name": "G4",
                    "midi": 67,
                    "time": 41.99999999999994,
                    "velocity": 0.29133858267716534,
                    "duration": 0.29999999999999716
                },
                {
                    "name": "C5",
                    "midi": 72,
                    "time": 42.29999999999994,
                    "velocity": 0.28346456692913385,
                    "duration": 0.11249999999999716
                },
                {
                    "name": "G#4",
                    "midi": 68,
                    "time": 42.59999999999994,
                    "velocity": 0.3937007874015748,
                    "duration": 0.6000000000000227
                },
                {
                    "name": "F4",
                    "midi": 65,
                    "time": 42.59999999999994,
                    "velocity": 0.3937007874015748,
                    "duration": 0.060000000000002274
                },
                {
                    "name": "E4",
                    "midi": 64,
                    "time": 42.65999999999994,
                    "velocity": 0.3543307086614173,
                    "duration": 0.060000000000002274
                },
                {
                    "name": "D#4",
                    "midi": 63,
                    "time": 42.71999999999994,
                    "velocity": 0.3543307086614173,
                    "duration": 0.060000000000002274
                },
                {
                    "name": "D4",
                    "midi": 62,
                    "time": 42.779999999999944,
                    "velocity": 0.36220472440944884,
                    "duration": 0.060000000000002274
                },
                {
                    "name": "C#4",
                    "midi": 61,
                    "time": 42.83999999999995,
                    "velocity": 0.3858267716535433,
                    "duration": 0.060000000000002274
                },
                {
                    "name": "C4",
                    "midi": 60,
                    "time": 42.89999999999995,
                    "velocity": 0.3937007874015748,
                    "duration": 0.060000000000002274
                },
                {
                    "name": "B3",
                    "midi": 59,
                    "time": 42.95999999999995,
                    "velocity": 0.4015748031496063,
                    "duration": 0.060000000000002274
                },
                {
                    "name": "A#3",
                    "midi": 58,
                    "time": 43.01999999999995,
                    "velocity": 0.41732283464566927,
                    "duration": 0.060000000000002274
                },
                {
                    "name": "A3",
                    "midi": 57,
                    "time": 43.079999999999956,
                    "velocity": 0.4251968503937008,
                    "duration": 0.060000000000002274
                },
                {
                    "name": "G#3",
                    "midi": 56,
                    "time": 43.13999999999996,
                    "velocity": 0.4330708661417323,
                    "duration": 0.060000000000002274
                },
                {
                    "name": "F4",
                    "midi": 65,
                    "time": 43.19999999999996,
                    "velocity": 0.44881889763779526,
                    "duration": 0.07500000000000284
                },
                {
                    "name": "D4",
                    "midi": 62,
                    "time": 43.19999999999996,
                    "velocity": 0.44881889763779526,
                    "duration": 0.07500000000000284
                },
                {
                    "name": "G#3",
                    "midi": 56,
                    "time": 43.499999999999964,
                    "velocity": 0.3228346456692913,
                    "duration": 0.11249999999999716
                },
                {
                    "name": "D4",
                    "midi": 62,
                    "time": 43.499999999999964,
                    "velocity": 0.3543307086614173,
                    "duration": 0.11249999999999716
                },
                {
                    "name": "F3",
                    "midi": 53,
                    "time": 43.499999999999964,
                    "velocity": 0.3228346456692913,
                    "duration": 0.11249999999999716
                },
                {
                    "name": "F#3",
                    "midi": 54,
                    "time": 43.79999999999996,
                    "velocity": 0.3543307086614173,
                    "duration": 0.11249999999999716
                },
                {
                    "name": "D#4",
                    "midi": 63,
                    "time": 43.79999999999996,
                    "velocity": 0.3543307086614173,
                    "duration": 0.11249999999999716
                },
                {
                    "name": "B3",
                    "midi": 59,
                    "time": 43.79999999999996,
                    "velocity": 0.3543307086614173,
                    "duration": 0.11249999999999716
                },
                {
                    "name": "A3",
                    "midi": 57,
                    "time": 44.09999999999996,
                    "velocity": 0.33070866141732286,
                    "duration": 0.11249999999999716
                },
                {
                    "name": "C4",
                    "midi": 60,
                    "time": 44.09999999999996,
                    "velocity": 0.33070866141732286,
                    "duration": 0.11249999999999716
                },
                {
                    "name": "F#4",
                    "midi": 66,
                    "time": 44.09999999999996,
                    "velocity": 0.36220472440944884,
                    "duration": 0.11249999999999716
                },
                {
                    "name": "F4",
                    "midi": 65,
                    "time": 44.399999999999956,
                    "velocity": 0.4015748031496063,
                    "duration": 0.29999999999999716
                },
                {
                    "name": "D4",
                    "midi": 62,
                    "time": 44.399999999999956,
                    "velocity": 0.3543307086614173,
                    "duration": 0.29999999999999716
                },
                {
                    "name": "F3",
                    "midi": 53,
                    "time": 44.69999999999995,
                    "velocity": 0.2992125984251969,
                    "duration": 0.11249999999999716
                },
                {
                    "name": "A#3",
                    "midi": 58,
                    "time": 44.69999999999995,
                    "velocity": 0.3464566929133858,
                    "duration": 0.11249999999999716
                },
                {
                    "name": "G#4",
                    "midi": 68,
                    "time": 44.99999999999995,
                    "velocity": 0.3937007874015748,
                    "duration": 0.6000000000000227
                },
                {
                    "name": "E4",
                    "midi": 64,
                    "time": 44.99999999999995,
                    "velocity": 0.3937007874015748,
                    "duration": 0.060000000000002274
                },
                {
                    "name": "D#4",
                    "midi": 63,
                    "time": 45.05999999999995,
                    "velocity": 0.3543307086614173,
                    "duration": 0.060000000000002274
                },
                {
                    "name": "D4",
                    "midi": 62,
                    "time": 45.119999999999955,
                    "velocity": 0.3543307086614173,
                    "duration": 0.060000000000002274
                },
                {
                    "name": "C#4",
                    "midi": 61,
                    "time": 45.17999999999996,
                    "velocity": 0.36220472440944884,
                    "duration": 0.060000000000002274
                },
                {
                    "name": "C4",
                    "midi": 60,
                    "time": 45.23999999999996,
                    "velocity": 0.3858267716535433,
                    "duration": 0.060000000000002274
                },
                {
                    "name": "B3",
                    "midi": 59,
                    "time": 45.29999999999996,
                    "velocity": 0.3937007874015748,
                    "duration": 0.060000000000002274
                },
                {
                    "name": "A#3",
                    "midi": 58,
                    "time": 45.359999999999964,
                    "velocity": 0.4015748031496063,
                    "duration": 0.060000000000002274
                },
                {
                    "name": "A3",
                    "midi": 57,
                    "time": 45.419999999999966,
                    "velocity": 0.41732283464566927,
                    "duration": 0.060000000000002274
                },
                {
                    "name": "G#3",
                    "midi": 56,
                    "time": 45.47999999999997,
                    "velocity": 0.4251968503937008,
                    "duration": 0.060000000000002274
                },
                {
                    "name": "B3",
                    "midi": 59,
                    "time": 45.53999999999997,
                    "velocity": 0.4330708661417323,
                    "duration": 0.060000000000002274
                },
                {
                    "name": "D4",
                    "midi": 62,
                    "time": 45.59999999999997,
                    "velocity": 0.44881889763779526,
                    "duration": 0.07500000000000284
                },
                {
                    "name": "F4",
                    "midi": 65,
                    "time": 45.59999999999997,
                    "velocity": 0.44881889763779526,
                    "duration": 0.07500000000000284
                },
                {
                    "name": "D5",
                    "midi": 74,
                    "time": 45.89999999999998,
                    "velocity": 0.4094488188976378,
                    "duration": 0.11249999999999716
                },
                {
                    "name": "G#4",
                    "midi": 68,
                    "time": 45.89999999999998,
                    "velocity": 0.3543307086614173,
                    "duration": 0.11249999999999716
                },
                {
                    "name": "D4",
                    "midi": 62,
                    "time": 45.89999999999998,
                    "velocity": 0.3543307086614173,
                    "duration": 0.11249999999999716
                },
                {
                    "name": "F4",
                    "midi": 65,
                    "time": 45.89999999999998,
                    "velocity": 0.3543307086614173,
                    "duration": 0.11249999999999716
                },
                {
                    "name": "D#5",
                    "midi": 75,
                    "time": 46.199999999999974,
                    "velocity": 0.5275590551181102,
                    "duration": 0.11249999999999716
                },
                {
                    "name": "F#4",
                    "midi": 66,
                    "time": 46.199999999999974,
                    "velocity": 0.47244094488188976,
                    "duration": 0.11249999999999716
                },
                {
                    "name": "D#4",
                    "midi": 63,
                    "time": 46.199999999999974,
                    "velocity": 0.47244094488188976,
                    "duration": 0.11249999999999716
                },
                {
                    "name": "B4",
                    "midi": 71,
                    "time": 46.199999999999974,
                    "velocity": 0.47244094488188976,
                    "duration": 0.11249999999999716
                },
                {
                    "name": "C5",
                    "midi": 72,
                    "time": 46.49999999999997,
                    "velocity": 0.47244094488188976,
                    "duration": 0.11249999999999716
                },
                {
                    "name": "F#5",
                    "midi": 78,
                    "time": 46.49999999999997,
                    "velocity": 0.5275590551181102,
                    "duration": 0.11249999999999716
                },
                {
                    "name": "A4",
                    "midi": 69,
                    "time": 46.49999999999997,
                    "velocity": 0.47244094488188976,
                    "duration": 0.11249999999999716
                },
                {
                    "name": "F#4",
                    "midi": 66,
                    "time": 46.49999999999997,
                    "velocity": 0.47244094488188976,
                    "duration": 0.11249999999999716
                },
                {
                    "name": "F4",
                    "midi": 65,
                    "time": 46.78124999999997,
                    "velocity": 0.49606299212598426,
                    "duration": 0.3187500000000014
                },
                {
                    "name": "A#4",
                    "midi": 70,
                    "time": 46.78749999999997,
                    "velocity": 0.49606299212598426,
                    "duration": 0.3125
                },
                {
                    "name": "D5",
                    "midi": 74,
                    "time": 46.793749999999974,
                    "velocity": 0.49606299212598426,
                    "duration": 0.3062499999999986
                },
                {
                    "name": "A#5",
                    "midi": 82,
                    "time": 46.799999999999976,
                    "velocity": 0.6220472440944882,
                    "duration": 0.29999999999999716
                },
                {
                    "name": "A#3",
                    "midi": 58,
                    "time": 47.09999999999997,
                    "velocity": 0.5118110236220472,
                    "duration": 0.11249999999999716
                },
                {
                    "name": "A5",
                    "midi": 81,
                    "time": 47.47499999999997,
                    "velocity": 0.49606299212598426,
                    "duration": 0.02499999999999858
                },
                {
                    "name": "A6",
                    "midi": 93,
                    "time": 47.47499999999997,
                    "velocity": 0.5511811023622047,
                    "duration": 0.02499999999999858
                },
                {
                    "name": "G6",
                    "midi": 91,
                    "time": 47.54999999999997,
                    "velocity": 0.5590551181102362,
                    "duration": 0.06499999999999773
                },
                {
                    "name": "G5",
                    "midi": 79,
                    "time": 47.54999999999997,
                    "velocity": 0.49606299212598426,
                    "duration": 0.06499999999999773
                },
                {
                    "name": "F6",
                    "midi": 89,
                    "time": 47.64999999999996,
                    "velocity": 0.5748031496062992,
                    "duration": 0.06750000000000256
                },
                {
                    "name": "F5",
                    "midi": 77,
                    "time": 47.64999999999996,
                    "velocity": 0.5118110236220472,
                    "duration": 0.06750000000000256
                },
                {
                    "name": "D#6",
                    "midi": 87,
                    "time": 47.749999999999964,
                    "velocity": 0.5984251968503937,
                    "duration": 0.07000000000000028
                },
                {
                    "name": "D#5",
                    "midi": 75,
                    "time": 47.749999999999964,
                    "velocity": 0.5275590551181102,
                    "duration": 0.07000000000000028
                },
                {
                    "name": "C#5",
                    "midi": 73,
                    "time": 47.849999999999966,
                    "velocity": 0.5511811023622047,
                    "duration": 0.07249999999999801
                },
                {
                    "name": "C#6",
                    "midi": 85,
                    "time": 47.849999999999966,
                    "velocity": 0.6141732283464567,
                    "duration": 0.07249999999999801
                },
                {
                    "name": "B5",
                    "midi": 83,
                    "time": 47.94999999999997,
                    "velocity": 0.6377952755905512,
                    "duration": 0.07500000000000284
                },
                {
                    "name": "B4",
                    "midi": 71,
                    "time": 47.94999999999997,
                    "velocity": 0.5669291338582677,
                    "duration": 0.07500000000000284
                },
                {
                    "name": "D3",
                    "midi": 50,
                    "time": 48.29999999999997,
                    "velocity": 0.49606299212598426,
                    "duration": 0.29999999999999716
                },
                {
                    "name": "D4",
                    "midi": 62,
                    "time": 48.29999999999997,
                    "velocity": 0.5511811023622047,
                    "duration": 0.29999999999999716
                },
                {
                    "name": "A#3",
                    "midi": 58,
                    "time": 48.29999999999997,
                    "velocity": 0.49606299212598426,
                    "duration": 0.29999999999999716
                },
                {
                    "name": "F3",
                    "midi": 53,
                    "time": 48.29999999999997,
                    "velocity": 0.49606299212598426,
                    "duration": 0.29999999999999716
                },
                {
                    "name": "C#6",
                    "midi": 85,
                    "time": 48.67499999999997,
                    "velocity": 0.49606299212598426,
                    "duration": 0.02499999999999858
                },
                {
                    "name": "C#7",
                    "midi": 97,
                    "time": 48.67499999999997,
                    "velocity": 0.5511811023622047,
                    "duration": 0.02499999999999858
                },
                {
                    "name": "B6",
                    "midi": 95,
                    "time": 48.749999999999964,
                    "velocity": 0.5590551181102362,
                    "duration": 0.06499999999999773
                },
                {
                    "name": "B5",
                    "midi": 83,
                    "time": 48.749999999999964,
                    "velocity": 0.49606299212598426,
                    "duration": 0.06499999999999773
                },
                {
                    "name": "A6",
                    "midi": 93,
                    "time": 48.84999999999996,
                    "velocity": 0.5748031496062992,
                    "duration": 0.06750000000000256
                },
                {
                    "name": "A5",
                    "midi": 81,
                    "time": 48.84999999999996,
                    "velocity": 0.5118110236220472,
                    "duration": 0.06750000000000256
                },
                {
                    "name": "G6",
                    "midi": 91,
                    "time": 48.94999999999996,
                    "velocity": 0.5984251968503937,
                    "duration": 0.07000000000000028
                },
                {
                    "name": "G5",
                    "midi": 79,
                    "time": 48.94999999999996,
                    "velocity": 0.5275590551181102,
                    "duration": 0.07000000000000028
                },
                {
                    "name": "F6",
                    "midi": 89,
                    "time": 49.04999999999996,
                    "velocity": 0.6141732283464567,
                    "duration": 0.07249999999999801
                },
                {
                    "name": "F5",
                    "midi": 77,
                    "time": 49.04999999999996,
                    "velocity": 0.5511811023622047,
                    "duration": 0.07249999999999801
                },
                {
                    "name": "D#5",
                    "midi": 75,
                    "time": 49.14999999999996,
                    "velocity": 0.5669291338582677,
                    "duration": 0.07500000000000284
                },
                {
                    "name": "D#6",
                    "midi": 87,
                    "time": 49.14999999999996,
                    "velocity": 0.6377952755905512,
                    "duration": 0.07500000000000284
                },
                {
                    "name": "F4",
                    "midi": 65,
                    "time": 49.499999999999964,
                    "velocity": 0.5511811023622047,
                    "duration": 0.29999999999999716
                },
                {
                    "name": "F3",
                    "midi": 53,
                    "time": 49.499999999999964,
                    "velocity": 0.49606299212598426,
                    "duration": 0.29999999999999716
                },
                {
                    "name": "A#3",
                    "midi": 58,
                    "time": 49.499999999999964,
                    "velocity": 0.49606299212598426,
                    "duration": 0.29999999999999716
                },
                {
                    "name": "D4",
                    "midi": 62,
                    "time": 49.499999999999964,
                    "velocity": 0.49606299212598426,
                    "duration": 0.29999999999999716
                },
                {
                    "name": "E6",
                    "midi": 88,
                    "time": 49.84999999999996,
                    "velocity": 0.4645669291338583,
                    "duration": 0.04999999999999716
                },
                {
                    "name": "E7",
                    "midi": 100,
                    "time": 49.84999999999996,
                    "velocity": 0.5196850393700787,
                    "duration": 0.04999999999999716
                },
                {
                    "name": "D7",
                    "midi": 98,
                    "time": 49.94999999999995,
                    "velocity": 0.5196850393700787,
                    "duration": 0.04999999999999716
                },
                {
                    "name": "D6",
                    "midi": 86,
                    "time": 49.94999999999995,
                    "velocity": 0.4645669291338583,
                    "duration": 0.04999999999999716
                },
                {
                    "name": "C7",
                    "midi": 96,
                    "time": 50.04999999999995,
                    "velocity": 0.5275590551181102,
                    "duration": 0.04999999999999716
                },
                {
                    "name": "C6",
                    "midi": 84,
                    "time": 50.04999999999995,
                    "velocity": 0.47244094488188976,
                    "duration": 0.04999999999999716
                },
                {
                    "name": "A#6",
                    "midi": 94,
                    "time": 50.14999999999994,
                    "velocity": 0.5275590551181102,
                    "duration": 0.04999999999999716
                },
                {
                    "name": "A#5",
                    "midi": 82,
                    "time": 50.14999999999994,
                    "velocity": 0.47244094488188976,
                    "duration": 0.04999999999999716
                },
                {
                    "name": "G#6",
                    "midi": 92,
                    "time": 50.249999999999936,
                    "velocity": 0.5433070866141733,
                    "duration": 0.04999999999999716
                },
                {
                    "name": "G#5",
                    "midi": 80,
                    "time": 50.249999999999936,
                    "velocity": 0.4881889763779528,
                    "duration": 0.04999999999999716
                },
                {
                    "name": "F#5",
                    "midi": 78,
                    "time": 50.34999999999993,
                    "velocity": 0.4881889763779528,
                    "duration": 0.04999999999999716
                },
                {
                    "name": "F#6",
                    "midi": 90,
                    "time": 50.34999999999993,
                    "velocity": 0.5433070866141733,
                    "duration": 0.04999999999999716
                },
                {
                    "name": "E6",
                    "midi": 88,
                    "time": 50.449999999999925,
                    "velocity": 0.5511811023622047,
                    "duration": 0.04999999999999716
                },
                {
                    "name": "E5",
                    "midi": 76,
                    "time": 50.449999999999925,
                    "velocity": 0.49606299212598426,
                    "duration": 0.04999999999999716
                },
                {
                    "name": "D6",
                    "midi": 86,
                    "time": 50.54999999999992,
                    "velocity": 0.5511811023622047,
                    "duration": 0.04999999999999716
                },
                {
                    "name": "D5",
                    "midi": 74,
                    "time": 50.54999999999992,
                    "velocity": 0.49606299212598426,
                    "duration": 0.04999999999999716
                },
                {
                    "name": "C6",
                    "midi": 84,
                    "time": 50.64999999999991,
                    "velocity": 0.5590551181102362,
                    "duration": 0.05624999999999858
                },
                {
                    "name": "C5",
                    "midi": 72,
                    "time": 50.64999999999991,
                    "velocity": 0.49606299212598426,
                    "duration": 0.05624999999999858
                },
                {
                    "name": "A#5",
                    "midi": 82,
                    "time": 50.749999999999915,
                    "velocity": 0.5590551181102362,
                    "duration": 0.0625
                },
                {
                    "name": "A#4",
                    "midi": 70,
                    "time": 50.749999999999915,
                    "velocity": 0.49606299212598426,
                    "duration": 0.0625
                },
                {
                    "name": "G#5",
                    "midi": 80,
                    "time": 50.849999999999916,
                    "velocity": 0.5669291338582677,
                    "duration": 0.0625
                },
                {
                    "name": "G#4",
                    "midi": 68,
                    "time": 50.849999999999916,
                    "velocity": 0.5039370078740157,
                    "duration": 0.0625
                },
                {
                    "name": "F#5",
                    "midi": 78,
                    "time": 50.94999999999992,
                    "velocity": 0.5669291338582677,
                    "duration": 0.0625
                },
                {
                    "name": "F#4",
                    "midi": 66,
                    "time": 50.94999999999992,
                    "velocity": 0.5039370078740157,
                    "duration": 0.0625
                },
                {
                    "name": "E4",
                    "midi": 64,
                    "time": 51.04999999999992,
                    "velocity": 0.5039370078740157,
                    "duration": 0.0625
                },
                {
                    "name": "E5",
                    "midi": 76,
                    "time": 51.04999999999992,
                    "velocity": 0.5669291338582677,
                    "duration": 0.0625
                },
                {
                    "name": "D5",
                    "midi": 74,
                    "time": 51.14999999999992,
                    "velocity": 0.5669291338582677,
                    "duration": 0.06499999999999773
                },
                {
                    "name": "D4",
                    "midi": 62,
                    "time": 51.14999999999992,
                    "velocity": 0.5039370078740157,
                    "duration": 0.06499999999999773
                },
                {
                    "name": "C4",
                    "midi": 60,
                    "time": 51.249999999999915,
                    "velocity": 0.5118110236220472,
                    "duration": 0.06750000000000256
                },
                {
                    "name": "C5",
                    "midi": 72,
                    "time": 51.249999999999915,
                    "velocity": 0.5748031496062992,
                    "duration": 0.06750000000000256
                },
                {
                    "name": "A#4",
                    "midi": 70,
                    "time": 51.349999999999916,
                    "velocity": 0.5748031496062992,
                    "duration": 0.07000000000000028
                },
                {
                    "name": "A#3",
                    "midi": 58,
                    "time": 51.349999999999916,
                    "velocity": 0.5118110236220472,
                    "duration": 0.07000000000000028
                },
                {
                    "name": "G#4",
                    "midi": 68,
                    "time": 51.44999999999992,
                    "velocity": 0.5748031496062992,
                    "duration": 0.07249999999999801
                },
                {
                    "name": "G#3",
                    "midi": 56,
                    "time": 51.44999999999992,
                    "velocity": 0.5118110236220472,
                    "duration": 0.07249999999999801
                },
                {
                    "name": "D4",
                    "midi": 62,
                    "time": 51.54999999999992,
                    "velocity": 0.5748031496062992,
                    "duration": 0.07500000000000284
                },
                {
                    "name": "D3",
                    "midi": 50,
                    "time": 51.54999999999992,
                    "velocity": 0.5118110236220472,
                    "duration": 0.07500000000000284
                },
                {
                    "name": "A2",
                    "midi": 45,
                    "time": 51.89999999999992,
                    "velocity": 0.5826771653543307,
                    "duration": 0.04999999999999716
                },
                {
                    "name": "A#2",
                    "midi": 46,
                    "time": 51.94999999999992,
                    "velocity": 0.5669291338582677,
                    "duration": 0.04999999999999716
                },
                {
                    "name": "D3",
                    "midi": 50,
                    "time": 51.999999999999915,
                    "velocity": 0.5669291338582677,
                    "duration": 0.05624999999999858
                },
                {
                    "name": "F3",
                    "midi": 53,
                    "time": 52.04999999999991,
                    "velocity": 0.5748031496062992,
                    "duration": 0.05750000000000455
                },
                {
                    "name": "G#3",
                    "midi": 56,
                    "time": 52.099999999999916,
                    "velocity": 0.5748031496062992,
                    "duration": 0.058749999999996305
                },
                {
                    "name": "A#3",
                    "midi": 58,
                    "time": 52.14999999999991,
                    "velocity": 0.5826771653543307,
                    "duration": 0.05999999999999517
                },
                {
                    "name": "D4",
                    "midi": 62,
                    "time": 52.19999999999991,
                    "velocity": 0.5826771653543307,
                    "duration": 0.06124999999999403
                },
                {
                    "name": "F4",
                    "midi": 65,
                    "time": 52.24999999999991,
                    "velocity": 0.5984251968503937,
                    "duration": 0.0625
                },
                {
                    "name": "G#4",
                    "midi": 68,
                    "time": 52.299999999999905,
                    "velocity": 0.5984251968503937,
                    "duration": 0.05000000000000426
                },
                {
                    "name": "A#4",
                    "midi": 70,
                    "time": 52.34999999999991,
                    "velocity": 0.6062992125984252,
                    "duration": 0.04999999999999716
                },
                {
                    "name": "D5",
                    "midi": 74,
                    "time": 52.399999999999906,
                    "velocity": 0.6062992125984252,
                    "duration": 0.04999999999999716
                },
                {
                    "name": "F5",
                    "midi": 77,
                    "time": 52.4499999999999,
                    "velocity": 0.6062992125984252,
                    "duration": 0.04999999999999716
                },
                {
                    "name": "G#5",
                    "midi": 80,
                    "time": 52.4999999999999,
                    "velocity": 0.6141732283464567,
                    "duration": 0.060000000000002274
                },
                {
                    "name": "A#5",
                    "midi": 82,
                    "time": 52.5599999999999,
                    "velocity": 0.6141732283464567,
                    "duration": 0.060000000000002274
                },
                {
                    "name": "D6",
                    "midi": 86,
                    "time": 52.619999999999905,
                    "velocity": 0.6220472440944882,
                    "duration": 0.060000000000002274
                },
                {
                    "name": "F6",
                    "midi": 89,
                    "time": 52.67999999999991,
                    "velocity": 0.6299212598425197,
                    "duration": 0.060000000000002274
                },
                {
                    "name": "G#6",
                    "midi": 92,
                    "time": 52.73999999999991,
                    "velocity": 0.6299212598425197,
                    "duration": 0.060000000000002274
                },
                {
                    "name": "A6",
                    "midi": 93,
                    "time": 52.79999999999991,
                    "velocity": 0.6377952755905512,
                    "duration": 0.03125
                },
                {
                    "name": "C7",
                    "midi": 96,
                    "time": 52.84249999999991,
                    "velocity": 0.6141732283464567,
                    "duration": 0.03750000000000142
                },
                {
                    "name": "A#6",
                    "midi": 94,
                    "time": 52.88499999999991,
                    "velocity": 0.6062992125984252,
                    "duration": 0.03750000000000142
                },
                {
                    "name": "G#6",
                    "midi": 92,
                    "time": 52.92749999999992,
                    "velocity": 0.6062992125984252,
                    "duration": 0.03750000000000142
                },
                {
                    "name": "F6",
                    "midi": 89,
                    "time": 52.96999999999992,
                    "velocity": 0.6062992125984252,
                    "duration": 0.03750000000000142
                },
                {
                    "name": "D6",
                    "midi": 86,
                    "time": 53.012499999999925,
                    "velocity": 0.6062992125984252,
                    "duration": 0.03750000000000142
                },
                {
                    "name": "A#5",
                    "midi": 82,
                    "time": 53.05499999999993,
                    "velocity": 0.6062992125984252,
                    "duration": 0.03750000000000142
                },
                {
                    "name": "A5",
                    "midi": 81,
                    "time": 53.09999999999993,
                    "velocity": 0.6377952755905512,
                    "duration": 0.03750000000000142
                },
                {
                    "name": "C6",
                    "midi": 84,
                    "time": 53.142499999999934,
                    "velocity": 0.6141732283464567,
                    "duration": 0.042499999999996874
                },
                {
                    "name": "A#5",
                    "midi": 82,
                    "time": 53.18499999999993,
                    "velocity": 0.6062992125984252,
                    "duration": 0.042499999999996874
                },
                {
                    "name": "G#5",
                    "midi": 80,
                    "time": 53.22749999999993,
                    "velocity": 0.6062992125984252,
                    "duration": 0.042499999999996874
                },
                {
                    "name": "F5",
                    "midi": 77,
                    "time": 53.269999999999925,
                    "velocity": 0.6062992125984252,
                    "duration": 0.042499999999996874
                },
                {
                    "name": "D5",
                    "midi": 74,
                    "time": 53.31249999999992,
                    "velocity": 0.6062992125984252,
                    "duration": 0.042499999999996874
                },
                {
                    "name": "A#4",
                    "midi": 70,
                    "time": 53.35499999999992,
                    "velocity": 0.6062992125984252,
                    "duration": 0.042499999999996874
                },
                {
                    "name": "A4",
                    "midi": 69,
                    "time": 53.39999999999991,
                    "velocity": 0.6377952755905512,
                    "duration": 0.03750000000000142
                },
                {
                    "name": "C5",
                    "midi": 72,
                    "time": 53.44249999999992,
                    "velocity": 0.6141732283464567,
                    "duration": 0.042499999999996874
                },
                {
                    "name": "A#4",
                    "midi": 70,
                    "time": 53.484999999999914,
                    "velocity": 0.6062992125984252,
                    "duration": 0.042499999999996874
                },
                {
                    "name": "G#4",
                    "midi": 68,
                    "time": 53.52749999999991,
                    "velocity": 0.6062992125984252,
                    "duration": 0.042499999999996874
                },
                {
                    "name": "F4",
                    "midi": 65,
                    "time": 53.56999999999991,
                    "velocity": 0.6062992125984252,
                    "duration": 0.042499999999996874
                },
                {
                    "name": "D4",
                    "midi": 62,
                    "time": 53.612499999999905,
                    "velocity": 0.6062992125984252,
                    "duration": 0.042499999999996874
                },
                {
                    "name": "A#3",
                    "midi": 58,
                    "time": 53.6549999999999,
                    "velocity": 0.5984251968503937,
                    "duration": 0.042499999999996874
                },
                {
                    "name": "A3",
                    "midi": 57,
                    "time": 53.699999999999896,
                    "velocity": 0.6141732283464567,
                    "duration": 0.0625
                },
                {
                    "name": "A#3",
                    "midi": 58,
                    "time": 53.7599999999999,
                    "velocity": 0.6299212598425197,
                    "duration": 0.062499999999992895
                },
                {
                    "name": "D4",
                    "midi": 62,
                    "time": 53.819999999999894,
                    "velocity": 0.6535433070866141,
                    "duration": 0.062499999999992895
                },
                {
                    "name": "F4",
                    "midi": 65,
                    "time": 53.87999999999989,
                    "velocity": 0.6692913385826772,
                    "duration": 0.06874999999999432
                },
                {
                    "name": "G#4",
                    "midi": 68,
                    "time": 53.939999999999884,
                    "velocity": 0.6929133858267716,
                    "duration": 0.060000000000002274
                },
                {
                    "name": "A#3",
                    "midi": 58,
                    "time": 54.04624999999989,
                    "velocity": 0.5039370078740157,
                    "duration": 0.01624999999999943
                },
                {
                    "name": "A#4",
                    "midi": 70,
                    "time": 54.04624999999989,
                    "velocity": 0.6377952755905512,
                    "duration": 0.01624999999999943
                },
                {
                    "name": "D5",
                    "midi": 74,
                    "time": 54.093749999999886,
                    "velocity": 0.5748031496062992,
                    "duration": 0.04625000000000057
                },
                {
                    "name": "D4",
                    "midi": 62,
                    "time": 54.093749999999886,
                    "velocity": 0.4566929133858268,
                    "duration": 0.04625000000000057
                },
                {
                    "name": "C5",
                    "midi": 72,
                    "time": 54.156249999999886,
                    "velocity": 0.5826771653543307,
                    "duration": 0.04625000000000057
                },
                {
                    "name": "C4",
                    "midi": 60,
                    "time": 54.156249999999886,
                    "velocity": 0.4645669291338583,
                    "duration": 0.04625000000000057
                },
                {
                    "name": "A#4",
                    "midi": 70,
                    "time": 54.218749999999886,
                    "velocity": 0.6062992125984252,
                    "duration": 0.04625000000000057
                },
                {
                    "name": "A#3",
                    "midi": 58,
                    "time": 54.218749999999886,
                    "velocity": 0.4881889763779528,
                    "duration": 0.04625000000000057
                },
                {
                    "name": "G#4",
                    "midi": 68,
                    "time": 54.281249999999886,
                    "velocity": 0.6220472440944882,
                    "duration": 0.04625000000000057
                },
                {
                    "name": "G#3",
                    "midi": 56,
                    "time": 54.281249999999886,
                    "velocity": 0.49606299212598426,
                    "duration": 0.04625000000000057
                },
                {
                    "name": "F#4",
                    "midi": 66,
                    "time": 54.343749999999886,
                    "velocity": 0.6377952755905512,
                    "duration": 0.04625000000000057
                },
                {
                    "name": "F#3",
                    "midi": 54,
                    "time": 54.343749999999886,
                    "velocity": 0.5039370078740157,
                    "duration": 0.04625000000000057
                },
                {
                    "name": "E4",
                    "midi": 64,
                    "time": 54.406249999999886,
                    "velocity": 0.6456692913385826,
                    "duration": 0.04625000000000057
                },
                {
                    "name": "E3",
                    "midi": 52,
                    "time": 54.406249999999886,
                    "velocity": 0.5118110236220472,
                    "duration": 0.04625000000000057
                },
                {
                    "name": "D4",
                    "midi": 62,
                    "time": 54.468749999999886,
                    "velocity": 0.6614173228346457,
                    "duration": 0.04625000000000057
                },
                {
                    "name": "D3",
                    "midi": 50,
                    "time": 54.468749999999886,
                    "velocity": 0.5196850393700787,
                    "duration": 0.04625000000000057
                },
                {
                    "name": "C3",
                    "midi": 48,
                    "time": 54.531249999999886,
                    "velocity": 0.5433070866141733,
                    "duration": 0.04625000000000057
                },
                {
                    "name": "C4",
                    "midi": 60,
                    "time": 54.531249999999886,
                    "velocity": 0.6771653543307087,
                    "duration": 0.04625000000000057
                },
                {
                    "name": "D#4",
                    "midi": 63,
                    "time": 54.899999999999885,
                    "velocity": 0.5039370078740157,
                    "duration": 0.125
                },
                {
                    "name": "G4",
                    "midi": 67,
                    "time": 54.899999999999885,
                    "velocity": 0.5039370078740157,
                    "duration": 0.125
                },
                {
                    "name": "D#5",
                    "midi": 75,
                    "time": 54.899999999999885,
                    "velocity": 0.6377952755905512,
                    "duration": 0.125
                },
                {
                    "name": "F4",
                    "midi": 65,
                    "time": 55.19999999999988,
                    "velocity": 0.5511811023622047,
                    "duration": 0.125
                },
                {
                    "name": "G#4",
                    "midi": 68,
                    "time": 55.19999999999988,
                    "velocity": 0.5511811023622047,
                    "duration": 0.125
                },
                {
                    "name": "F5",
                    "midi": 77,
                    "time": 55.19999999999988,
                    "velocity": 0.6850393700787402,
                    "duration": 0.125
                },
                {
                    "name": "F#4",
                    "midi": 66,
                    "time": 55.49999999999988,
                    "velocity": 0.5039370078740157,
                    "duration": 0.125
                },
                {
                    "name": "A4",
                    "midi": 69,
                    "time": 55.49999999999988,
                    "velocity": 0.5039370078740157,
                    "duration": 0.125
                },
                {
                    "name": "F#5",
                    "midi": 78,
                    "time": 55.49999999999988,
                    "velocity": 0.6377952755905512,
                    "duration": 0.125
                },
                {
                    "name": "A#4",
                    "midi": 70,
                    "time": 55.799999999999876,
                    "velocity": 0.5511811023622047,
                    "duration": 0.29999999999999716
                },
                {
                    "name": "G4",
                    "midi": 67,
                    "time": 55.799999999999876,
                    "velocity": 0.5511811023622047,
                    "duration": 0.29999999999999716
                },
                {
                    "name": "G5",
                    "midi": 79,
                    "time": 55.799999999999876,
                    "velocity": 0.6850393700787402,
                    "duration": 0.29999999999999716
                },
                {
                    "name": "D#4",
                    "midi": 63,
                    "time": 56.09999999999987,
                    "velocity": 0.5039370078740157,
                    "duration": 0.14999999999999858
                },
                {
                    "name": "D#5",
                    "midi": 75,
                    "time": 56.09999999999987,
                    "velocity": 0.6299212598425197,
                    "duration": 0.14999999999999858
                },
                {
                    "name": "A#3",
                    "midi": 58,
                    "time": 56.46374999999987,
                    "velocity": 0.6062992125984252,
                    "duration": 0.02125000000000199
                },
                {
                    "name": "A#4",
                    "midi": 70,
                    "time": 56.46374999999987,
                    "velocity": 0.6062992125984252,
                    "duration": 0.02125000000000199
                },
                {
                    "name": "F4",
                    "midi": 65,
                    "time": 56.52749999999987,
                    "velocity": 0.5511811023622047,
                    "duration": 0.06374999999999886
                },
                {
                    "name": "F5",
                    "midi": 77,
                    "time": 56.52749999999987,
                    "velocity": 0.5511811023622047,
                    "duration": 0.06374999999999886
                },
                {
                    "name": "D4",
                    "midi": 62,
                    "time": 56.61249999999987,
                    "velocity": 0.5669291338582677,
                    "duration": 0.06374999999999886
                },
                {
                    "name": "D5",
                    "midi": 74,
                    "time": 56.61249999999987,
                    "velocity": 0.5669291338582677,
                    "duration": 0.06374999999999886
                },
                {
                    "name": "A#3",
                    "midi": 58,
                    "time": 56.69749999999987,
                    "velocity": 0.5826771653543307,
                    "duration": 0.06374999999999886
                },
                {
                    "name": "A#4",
                    "midi": 70,
                    "time": 56.69749999999987,
                    "velocity": 0.5826771653543307,
                    "duration": 0.06374999999999886
                },
                {
                    "name": "G3",
                    "midi": 55,
                    "time": 56.78249999999987,
                    "velocity": 0.5984251968503937,
                    "duration": 0.06374999999999886
                },
                {
                    "name": "G4",
                    "midi": 67,
                    "time": 56.78249999999987,
                    "velocity": 0.5984251968503937,
                    "duration": 0.06374999999999886
                },
                {
                    "name": "D#3",
                    "midi": 51,
                    "time": 56.86749999999987,
                    "velocity": 0.6220472440944882,
                    "duration": 0.06374999999999886
                },
                {
                    "name": "D#4",
                    "midi": 63,
                    "time": 56.86749999999987,
                    "velocity": 0.6220472440944882,
                    "duration": 0.06374999999999886
                },
                {
                    "name": "C3",
                    "midi": 48,
                    "time": 56.95249999999987,
                    "velocity": 0.6377952755905512,
                    "duration": 0.07124999999999915
                },
                {
                    "name": "C4",
                    "midi": 60,
                    "time": 56.95249999999987,
                    "velocity": 0.6377952755905512,
                    "duration": 0.07124999999999915
                },
                {
                    "name": "D#4",
                    "midi": 63,
                    "time": 57.29999999999987,
                    "velocity": 0.5590551181102362,
                    "duration": 0.125
                },
                {
                    "name": "G4",
                    "midi": 67,
                    "time": 57.29999999999987,
                    "velocity": 0.5590551181102362,
                    "duration": 0.125
                },
                {
                    "name": "D#5",
                    "midi": 75,
                    "time": 57.29999999999987,
                    "velocity": 0.6220472440944882,
                    "duration": 0.125
                },
                {
                    "name": "F4",
                    "midi": 65,
                    "time": 57.599999999999866,
                    "velocity": 0.5984251968503937,
                    "duration": 0.125
                },
                {
                    "name": "G#4",
                    "midi": 68,
                    "time": 57.599999999999866,
                    "velocity": 0.5984251968503937,
                    "duration": 0.125
                },
                {
                    "name": "F5",
                    "midi": 77,
                    "time": 57.599999999999866,
                    "velocity": 0.6692913385826772,
                    "duration": 0.125
                },
                {
                    "name": "G4",
                    "midi": 67,
                    "time": 57.899999999999864,
                    "velocity": 0.5590551181102362,
                    "duration": 0.125
                },
                {
                    "name": "A#4",
                    "midi": 70,
                    "time": 57.899999999999864,
                    "velocity": 0.5590551181102362,
                    "duration": 0.125
                },
                {
                    "name": "G5",
                    "midi": 79,
                    "time": 57.899999999999864,
                    "velocity": 0.6220472440944882,
                    "duration": 0.125
                },
                {
                    "name": "D#4",
                    "midi": 63,
                    "time": 58.19999999999986,
                    "velocity": 0.5196850393700787,
                    "duration": 0.5750000000000028
                },
                {
                    "name": "G4",
                    "midi": 67,
                    "time": 58.19999999999986,
                    "velocity": 0.5196850393700787,
                    "duration": 0.5750000000000028
                },
                {
                    "name": "D#5",
                    "midi": 75,
                    "time": 58.19999999999986,
                    "velocity": 0.5826771653543307,
                    "duration": 0.5750000000000028
                },
                {
                    "name": "A6",
                    "midi": 93,
                    "time": 58.79999999999986,
                    "velocity": 0.3228346456692913,
                    "duration": 0.03750000000000142
                },
                {
                    "name": "A#6",
                    "midi": 94,
                    "time": 58.83999999999986,
                    "velocity": 0.28346456692913385,
                    "duration": 0.03750000000000142
                },
                {
                    "name": "D#7",
                    "midi": 99,
                    "time": 58.87999999999986,
                    "velocity": 0.2992125984251969,
                    "duration": 0.030000000000001137
                },
                {
                    "name": "C7",
                    "midi": 96,
                    "time": 58.91249999999986,
                    "velocity": 0.28346456692913385,
                    "duration": 0.030000000000001137
                },
                {
                    "name": "A#6",
                    "midi": 94,
                    "time": 58.94499999999986,
                    "velocity": 0.28346456692913385,
                    "duration": 0.030000000000001137
                },
                {
                    "name": "G#6",
                    "midi": 92,
                    "time": 58.97749999999986,
                    "velocity": 0.28346456692913385,
                    "duration": 0.030000000000001137
                },
                {
                    "name": "G6",
                    "midi": 91,
                    "time": 59.009999999999856,
                    "velocity": 0.25984251968503935,
                    "duration": 0.030000000000001137
                },
                {
                    "name": "G3",
                    "midi": 55,
                    "time": 59.699999999999854,
                    "velocity": 0.2283464566929134,
                    "duration": 0.11249999999999716
                },
                {
                    "name": "A#3",
                    "midi": 58,
                    "time": 59.699999999999854,
                    "velocity": 0.2283464566929134,
                    "duration": 0.11249999999999716
                },
                {
                    "name": "D#4",
                    "midi": 63,
                    "time": 59.699999999999854,
                    "velocity": 0.25984251968503935,
                    "duration": 0.11249999999999716
                },
                {
                    "name": "G#3",
                    "midi": 56,
                    "time": 59.99999999999985,
                    "velocity": 0.2440944881889764,
                    "duration": 0.11249999999999716
                },
                {
                    "name": "B3",
                    "midi": 59,
                    "time": 59.99999999999985,
                    "velocity": 0.2440944881889764,
                    "duration": 0.11249999999999716
                },
                {
                    "name": "F4",
                    "midi": 65,
                    "time": 59.99999999999985,
                    "velocity": 0.28346456692913385,
                    "duration": 0.11249999999999716
                },
                {
                    "name": "A3",
                    "midi": 57,
                    "time": 60.29999999999985,
                    "velocity": 0.23622047244094488,
                    "duration": 0.11249999999999716
                },
                {
                    "name": "C4",
                    "midi": 60,
                    "time": 60.29999999999985,
                    "velocity": 0.23622047244094488,
                    "duration": 0.11249999999999716
                },
                {
                    "name": "F#4",
                    "midi": 66,
                    "time": 60.29999999999985,
                    "velocity": 0.2755905511811024,
                    "duration": 0.11249999999999716
                },
                {
                    "name": "B3",
                    "midi": 59,
                    "time": 60.599999999999845,
                    "velocity": 0.23622047244094488,
                    "duration": 0.29999999999999716
                },
                {
                    "name": "G4",
                    "midi": 67,
                    "time": 60.599999999999845,
                    "velocity": 0.2755905511811024,
                    "duration": 0.29999999999999716
                },
                {
                    "name": "G3",
                    "midi": 55,
                    "time": 60.89999999999984,
                    "velocity": 0.2204724409448819,
                    "duration": 0.14999999999999858
                },
                {
                    "name": "D4",
                    "midi": 62,
                    "time": 60.89999999999984,
                    "velocity": 0.25196850393700787,
                    "duration": 0.14999999999999858
                },
                {
                    "name": "A#6",
                    "midi": 94,
                    "time": 61.19999999999984,
                    "velocity": 0.2125984251968504,
                    "duration": 0.03750000000000142
                },
                {
                    "name": "B6",
                    "midi": 95,
                    "time": 61.23749999999984,
                    "velocity": 0.2125984251968504,
                    "duration": 0.03750000000000142
                },
                {
                    "name": "G7",
                    "midi": 103,
                    "time": 61.27499999999984,
                    "velocity": 0.2283464566929134,
                    "duration": 0.03750000000000142
                },
                {
                    "name": "F#7",
                    "midi": 102,
                    "time": 61.312499999999844,
                    "velocity": 0.2283464566929134,
                    "duration": 0.03750000000000142
                },
                {
                    "name": "E7",
                    "midi": 100,
                    "time": 61.349999999999845,
                    "velocity": 0.2283464566929134,
                    "duration": 0.03750000000000142
                },
                {
                    "name": "D7",
                    "midi": 98,
                    "time": 61.38749999999985,
                    "velocity": 0.2283464566929134,
                    "duration": 0.03750000000000142
                },
                {
                    "name": "C7",
                    "midi": 96,
                    "time": 61.42499999999985,
                    "velocity": 0.2283464566929134,
                    "duration": 0.03750000000000142
                },
                {
                    "name": "B6",
                    "midi": 95,
                    "time": 61.46249999999985,
                    "velocity": 0.2204724409448819,
                    "duration": 0.03750000000000142
                },
                {
                    "name": "A6",
                    "midi": 93,
                    "time": 61.49999999999985,
                    "velocity": 0.2204724409448819,
                    "duration": 0.03750000000000142
                },
                {
                    "name": "G6",
                    "midi": 91,
                    "time": 61.53749999999985,
                    "velocity": 0.2204724409448819,
                    "duration": 0.03750000000000142
                },
                {
                    "name": "F#6",
                    "midi": 90,
                    "time": 61.574999999999854,
                    "velocity": 0.2204724409448819,
                    "duration": 0.03750000000000142
                },
                {
                    "name": "E6",
                    "midi": 88,
                    "time": 61.612499999999855,
                    "velocity": 0.2204724409448819,
                    "duration": 0.03750000000000142
                },
                {
                    "name": "D6",
                    "midi": 86,
                    "time": 61.64999999999986,
                    "velocity": 0.2125984251968504,
                    "duration": 0.03750000000000142
                },
                {
                    "name": "C6",
                    "midi": 84,
                    "time": 61.68749999999986,
                    "velocity": 0.2125984251968504,
                    "duration": 0.03750000000000142
                },
                {
                    "name": "B5",
                    "midi": 83,
                    "time": 61.72499999999986,
                    "velocity": 0.2125984251968504,
                    "duration": 0.03750000000000142
                },
                {
                    "name": "A5",
                    "midi": 81,
                    "time": 61.76249999999986,
                    "velocity": 0.2125984251968504,
                    "duration": 0.03750000000000142
                },
                {
                    "name": "G5",
                    "midi": 79,
                    "time": 61.79999999999986,
                    "velocity": 0.2125984251968504,
                    "duration": 0.11249999999999716
                },
                {
                    "name": "C4",
                    "midi": 60,
                    "time": 62.09999999999986,
                    "velocity": 0.25196850393700787,
                    "duration": 0.2749999999999986
                },
                {
                    "name": "E4",
                    "midi": 64,
                    "time": 62.09999999999986,
                    "velocity": 0.25196850393700787,
                    "duration": 0.2749999999999986
                },
                {
                    "name": "G4",
                    "midi": 67,
                    "time": 62.09999999999986,
                    "velocity": 0.28346456692913385,
                    "duration": 0.2749999999999986
                },
                {
                    "name": "C4",
                    "midi": 60,
                    "time": 62.39999999999986,
                    "velocity": 0.25196850393700787,
                    "duration": 0.25
                },
                {
                    "name": "G#4",
                    "midi": 68,
                    "time": 62.39999999999986,
                    "velocity": 0.28346456692913385,
                    "duration": 0.25
                },
                {
                    "name": "F4",
                    "midi": 65,
                    "time": 62.39999999999986,
                    "velocity": 0.25196850393700787,
                    "duration": 0.25
                },
                {
                    "name": "G#3",
                    "midi": 56,
                    "time": 62.699999999999854,
                    "velocity": 0.23622047244094488,
                    "duration": 0.2749999999999986
                },
                {
                    "name": "D4",
                    "midi": 62,
                    "time": 62.699999999999854,
                    "velocity": 0.23622047244094488,
                    "duration": 0.2749999999999986
                },
                {
                    "name": "A#4",
                    "midi": 70,
                    "time": 62.699999999999854,
                    "velocity": 0.2755905511811024,
                    "duration": 0.2749999999999986
                },
                {
                    "name": "G3",
                    "midi": 55,
                    "time": 62.99999999999985,
                    "velocity": 0.2283464566929134,
                    "duration": 0.5625
                },
                {
                    "name": "D#4",
                    "midi": 63,
                    "time": 62.99999999999985,
                    "velocity": 0.2283464566929134,
                    "duration": 0.5625
                },
                {
                    "name": "A#4",
                    "midi": 70,
                    "time": 62.99999999999985,
                    "velocity": 0.25984251968503935,
                    "duration": 0.5625
                },
                {
                    "name": "G3",
                    "midi": 55,
                    "time": 64.49999999999986,
                    "velocity": 0.6220472440944882,
                    "duration": 0.15000000000000568
                },
                {
                    "name": "C4",
                    "midi": 60,
                    "time": 64.79999999999987,
                    "velocity": 0.6456692913385826,
                    "duration": 0.8999999999999915
                },
                {
                    "name": "G4",
                    "midi": 67,
                    "time": 65.09999999999987,
                    "velocity": 0.6141732283464567,
                    "duration": 0.29999999999999716
                },
                {
                    "name": "D4",
                    "midi": 62,
                    "time": 65.39999999999986,
                    "velocity": 0.6456692913385826,
                    "duration": 0.8999999999999915
                },
                {
                    "name": "B3",
                    "midi": 59,
                    "time": 65.69999999999986,
                    "velocity": 0.6220472440944882,
                    "duration": 0.29625000000000057
                },
                {
                    "name": "D5",
                    "midi": 74,
                    "time": 65.99999999999986,
                    "velocity": 0.6456692913385826,
                    "duration": 0.9000000000000057
                },
                {
                    "name": "F4",
                    "midi": 65,
                    "time": 66.29999999999986,
                    "velocity": 0.6220472440944882,
                    "duration": 0.15000000000000568
                },
                {
                    "name": "D#4",
                    "midi": 63,
                    "time": 66.59999999999987,
                    "velocity": 0.6377952755905512,
                    "duration": 0.5974999999999966
                },
                {
                    "name": "G4",
                    "midi": 67,
                    "time": 66.89999999999986,
                    "velocity": 0.6535433070866141,
                    "duration": 0.15000000000000568
                },
                {
                    "name": "G5",
                    "midi": 79,
                    "time": 67.19999999999986,
                    "velocity": 0.6771653543307087,
                    "duration": 0.45000000000000284
                },
                {
                    "name": "C5",
                    "midi": 72,
                    "time": 67.49999999999986,
                    "velocity": 0.6062992125984252,
                    "duration": 0.15000000000000568
                },
                {
                    "name": "G#5",
                    "midi": 80,
                    "time": 67.64999999999986,
                    "velocity": 0.5669291338582677,
                    "duration": 0.15000000000000568
                },
                {
                    "name": "D5",
                    "midi": 74,
                    "time": 67.79999999999987,
                    "velocity": 0.6062992125984252,
                    "duration": 0.5999999999999943
                },
                {
                    "name": "C5",
                    "midi": 72,
                    "time": 67.79999999999987,
                    "velocity": 0.6062992125984252,
                    "duration": 0.29999999999999716
                },
                {
                    "name": "D4",
                    "midi": 62,
                    "time": 68.09999999999987,
                    "velocity": 0.5039370078740157,
                    "duration": 0.29999999999999716
                },
                {
                    "name": "B4",
                    "midi": 71,
                    "time": 68.09999999999987,
                    "velocity": 0.5669291338582677,
                    "duration": 0.29999999999999716
                },
                {
                    "name": "G6",
                    "midi": 91,
                    "time": 68.39999999999986,
                    "velocity": 0.6692913385826772,
                    "duration": 0.45000000000000284
                },
                {
                    "name": "D6",
                    "midi": 86,
                    "time": 68.39999999999986,
                    "velocity": 0.5984251968503937,
                    "duration": 0.45000000000000284
                },
                {
                    "name": "B5",
                    "midi": 83,
                    "time": 68.39999999999986,
                    "velocity": 0.5984251968503937,
                    "duration": 0.45000000000000284
                },
                {
                    "name": "G5",
                    "midi": 79,
                    "time": 68.39999999999986,
                    "velocity": 0.5984251968503937,
                    "duration": 0.45000000000000284
                },
                {
                    "name": "G6",
                    "midi": 91,
                    "time": 68.84999999999987,
                    "velocity": 0.5984251968503937,
                    "duration": 0.11249999999999716
                },
                {
                    "name": "G5",
                    "midi": 79,
                    "time": 68.84999999999987,
                    "velocity": 0.5275590551181102,
                    "duration": 0.11249999999999716
                },
                {
                    "name": "G#5",
                    "midi": 80,
                    "time": 68.99999999999986,
                    "velocity": 0.5590551181102362,
                    "duration": 0.11249999999999716
                },
                {
                    "name": "G#6",
                    "midi": 92,
                    "time": 68.99999999999986,
                    "velocity": 0.6220472440944882,
                    "duration": 0.11249999999999716
                },
                {
                    "name": "G5",
                    "midi": 79,
                    "time": 69.14999999999985,
                    "velocity": 0.5275590551181102,
                    "duration": 0.11249999999999716
                },
                {
                    "name": "G6",
                    "midi": 91,
                    "time": 69.14999999999985,
                    "velocity": 0.5984251968503937,
                    "duration": 0.11249999999999716
                },
                {
                    "name": "G#5",
                    "midi": 80,
                    "time": 69.29999999999984,
                    "velocity": 0.5275590551181102,
                    "duration": 0.11249999999999716
                },
                {
                    "name": "G#6",
                    "midi": 92,
                    "time": 69.29999999999984,
                    "velocity": 0.5984251968503937,
                    "duration": 0.11249999999999716
                },
                {
                    "name": "D5",
                    "midi": 74,
                    "time": 69.44999999999983,
                    "velocity": 0.5275590551181102,
                    "duration": 0.11249999999999716
                },
                {
                    "name": "D6",
                    "midi": 86,
                    "time": 69.44999999999983,
                    "velocity": 0.5984251968503937,
                    "duration": 0.11249999999999716
                },
                {
                    "name": "G6",
                    "midi": 91,
                    "time": 69.59999999999982,
                    "velocity": 0.6220472440944882,
                    "duration": 0.11249999999999716
                },
                {
                    "name": "G5",
                    "midi": 79,
                    "time": 69.59999999999982,
                    "velocity": 0.5590551181102362,
                    "duration": 0.11249999999999716
                },
                {
                    "name": "F#5",
                    "midi": 78,
                    "time": 69.74999999999982,
                    "velocity": 0.5275590551181102,
                    "duration": 0.11249999999999716
                },
                {
                    "name": "F#6",
                    "midi": 90,
                    "time": 69.74999999999982,
                    "velocity": 0.5984251968503937,
                    "duration": 0.11249999999999716
                },
                {
                    "name": "G5",
                    "midi": 79,
                    "time": 69.8999999999998,
                    "velocity": 0.5275590551181102,
                    "duration": 0.11249999999999716
                },
                {
                    "name": "G6",
                    "midi": 91,
                    "time": 69.8999999999998,
                    "velocity": 0.5984251968503937,
                    "duration": 0.11249999999999716
                },
                {
                    "name": "C6",
                    "midi": 84,
                    "time": 70.0499999999998,
                    "velocity": 0.5984251968503937,
                    "duration": 0.11249999999999716
                },
                {
                    "name": "C5",
                    "midi": 72,
                    "time": 70.0499999999998,
                    "velocity": 0.5275590551181102,
                    "duration": 0.11249999999999716
                },
                {
                    "name": "F6",
                    "midi": 89,
                    "time": 70.19999999999979,
                    "velocity": 0.6220472440944882,
                    "duration": 0.11249999999999716
                },
                {
                    "name": "F5",
                    "midi": 77,
                    "time": 70.19999999999979,
                    "velocity": 0.5590551181102362,
                    "duration": 0.11249999999999716
                },
                {
                    "name": "E5",
                    "midi": 76,
                    "time": 70.34999999999978,
                    "velocity": 0.5433070866141733,
                    "duration": 0.11249999999999716
                },
                {
                    "name": "E6",
                    "midi": 88,
                    "time": 70.34999999999978,
                    "velocity": 0.6062992125984252,
                    "duration": 0.11249999999999716
                },
                {
                    "name": "F5",
                    "midi": 77,
                    "time": 70.49999999999977,
                    "velocity": 0.5433070866141733,
                    "duration": 0.11249999999999716
                },
                {
                    "name": "F6",
                    "midi": 89,
                    "time": 70.49999999999977,
                    "velocity": 0.6062992125984252,
                    "duration": 0.11249999999999716
                },
                {
                    "name": "B4",
                    "midi": 71,
                    "time": 70.64999999999976,
                    "velocity": 0.5433070866141733,
                    "duration": 0.11249999999999716
                },
                {
                    "name": "B5",
                    "midi": 83,
                    "time": 70.64999999999976,
                    "velocity": 0.6062992125984252,
                    "duration": 0.11249999999999716
                },
                {
                    "name": "D#5",
                    "midi": 75,
                    "time": 70.79999999999976,
                    "velocity": 0.5590551181102362,
                    "duration": 0.11249999999999716
                },
                {
                    "name": "D#6",
                    "midi": 87,
                    "time": 70.79999999999976,
                    "velocity": 0.6220472440944882,
                    "duration": 0.11249999999999716
                },
                {
                    "name": "D5",
                    "midi": 74,
                    "time": 70.94999999999975,
                    "velocity": 0.5275590551181102,
                    "duration": 0.11249999999999716
                },
                {
                    "name": "D6",
                    "midi": 86,
                    "time": 70.94999999999975,
                    "velocity": 0.5984251968503937,
                    "duration": 0.11249999999999716
                },
                {
                    "name": "D#5",
                    "midi": 75,
                    "time": 71.09999999999974,
                    "velocity": 0.5275590551181102,
                    "duration": 0.11249999999999716
                },
                {
                    "name": "D#6",
                    "midi": 87,
                    "time": 71.09999999999974,
                    "velocity": 0.5984251968503937,
                    "duration": 0.11249999999999716
                },
                {
                    "name": "C5",
                    "midi": 72,
                    "time": 71.24999999999973,
                    "velocity": 0.5275590551181102,
                    "duration": 0.11249999999999716
                },
                {
                    "name": "C6",
                    "midi": 84,
                    "time": 71.24999999999973,
                    "velocity": 0.5984251968503937,
                    "duration": 0.11249999999999716
                },
                {
                    "name": "C5",
                    "midi": 72,
                    "time": 71.39999999999972,
                    "velocity": 0.5275590551181102,
                    "duration": 0.15000000000000568
                },
                {
                    "name": "C6",
                    "midi": 84,
                    "time": 71.39999999999972,
                    "velocity": 0.5984251968503937,
                    "duration": 0.15000000000000568
                },
                {
                    "name": "A#4",
                    "midi": 70,
                    "time": 71.54999999999973,
                    "velocity": 0.5039370078740157,
                    "duration": 0.125
                },
                {
                    "name": "A#5",
                    "midi": 82,
                    "time": 71.54999999999973,
                    "velocity": 0.5669291338582677,
                    "duration": 0.125
                },
                {
                    "name": "A#4",
                    "midi": 70,
                    "time": 71.69999999999973,
                    "velocity": 0.5039370078740157,
                    "duration": 0.15000000000000568
                },
                {
                    "name": "A#5",
                    "midi": 82,
                    "time": 71.69999999999973,
                    "velocity": 0.5669291338582677,
                    "duration": 0.15000000000000568
                },
                {
                    "name": "G#4",
                    "midi": 68,
                    "time": 71.84999999999974,
                    "velocity": 0.5039370078740157,
                    "duration": 0.125
                },
                {
                    "name": "G#5",
                    "midi": 80,
                    "time": 71.84999999999974,
                    "velocity": 0.5669291338582677,
                    "duration": 0.125
                },
                {
                    "name": "G#4",
                    "midi": 68,
                    "time": 71.99999999999974,
                    "velocity": 0.5433070866141733,
                    "duration": 0.15000000000000568
                },
                {
                    "name": "G#5",
                    "midi": 80,
                    "time": 71.99999999999974,
                    "velocity": 0.6062992125984252,
                    "duration": 0.15000000000000568
                },
                {
                    "name": "G4",
                    "midi": 67,
                    "time": 72.14999999999975,
                    "velocity": 0.5039370078740157,
                    "duration": 0.125
                },
                {
                    "name": "G5",
                    "midi": 79,
                    "time": 72.14999999999975,
                    "velocity": 0.5669291338582677,
                    "duration": 0.125
                },
                {
                    "name": "G4",
                    "midi": 67,
                    "time": 72.29999999999976,
                    "velocity": 0.5039370078740157,
                    "duration": 0.15000000000000568
                },
                {
                    "name": "G5",
                    "midi": 79,
                    "time": 72.29999999999976,
                    "velocity": 0.5669291338582677,
                    "duration": 0.15000000000000568
                },
                {
                    "name": "F#4",
                    "midi": 66,
                    "time": 72.44999999999976,
                    "velocity": 0.5039370078740157,
                    "duration": 0.125
                },
                {
                    "name": "F#5",
                    "midi": 78,
                    "time": 72.44999999999976,
                    "velocity": 0.5669291338582677,
                    "duration": 0.125
                },
                {
                    "name": "F#4",
                    "midi": 66,
                    "time": 72.59999999999977,
                    "velocity": 0.5275590551181102,
                    "duration": 0.15000000000000568
                },
                {
                    "name": "F#5",
                    "midi": 78,
                    "time": 72.59999999999977,
                    "velocity": 0.5984251968503937,
                    "duration": 0.15000000000000568
                },
                {
                    "name": "G4",
                    "midi": 67,
                    "time": 72.74999999999977,
                    "velocity": 0.5196850393700787,
                    "duration": 0.11249999999999716
                },
                {
                    "name": "G5",
                    "midi": 79,
                    "time": 72.74999999999977,
                    "velocity": 0.5826771653543307,
                    "duration": 0.11249999999999716
                },
                {
                    "name": "G6",
                    "midi": 91,
                    "time": 72.89999999999976,
                    "velocity": 0.7480314960629921,
                    "duration": 0.15000000000000568
                },
                {
                    "name": "G5",
                    "midi": 79,
                    "time": 72.89999999999976,
                    "velocity": 0.6692913385826772,
                    "duration": 0.15000000000000568
                },
                {
                    "name": "G3",
                    "midi": 55,
                    "time": 73.19999999999978,
                    "velocity": 0.5748031496062992,
                    "duration": 0.45000000000000284
                },
                {
                    "name": "G4",
                    "midi": 67,
                    "time": 73.19999999999978,
                    "velocity": 0.6456692913385826,
                    "duration": 0.45000000000000284
                },
                {
                    "name": "D#3",
                    "midi": 51,
                    "time": 73.64999999999978,
                    "velocity": 0.5590551181102362,
                    "duration": 0.15000000000000568
                },
                {
                    "name": "D#4",
                    "midi": 63,
                    "time": 73.64999999999978,
                    "velocity": 0.6220472440944882,
                    "duration": 0.15000000000000568
                },
                {
                    "name": "C3",
                    "midi": 48,
                    "time": 73.79999999999978,
                    "velocity": 0.5748031496062992,
                    "duration": 0.15000000000000568
                },
                {
                    "name": "C4",
                    "midi": 60,
                    "time": 73.79999999999978,
                    "velocity": 0.6456692913385826,
                    "duration": 0.15000000000000568
                },
                {
                    "name": "B2",
                    "midi": 47,
                    "time": 73.94999999999979,
                    "velocity": 0.5511811023622047,
                    "duration": 0.15000000000000568
                },
                {
                    "name": "B3",
                    "midi": 59,
                    "time": 73.94999999999979,
                    "velocity": 0.6141732283464567,
                    "duration": 0.15000000000000568
                },
                {
                    "name": "C3",
                    "midi": 48,
                    "time": 74.0999999999998,
                    "velocity": 0.5511811023622047,
                    "duration": 0.11249999999999716
                },
                {
                    "name": "C4",
                    "midi": 60,
                    "time": 74.0999999999998,
                    "velocity": 0.6141732283464567,
                    "duration": 0.11249999999999716
                },
                {
                    "name": "D3",
                    "midi": 50,
                    "time": 74.24999999999979,
                    "velocity": 0.5511811023622047,
                    "duration": 0.11249999999999716
                },
                {
                    "name": "D4",
                    "midi": 62,
                    "time": 74.24999999999979,
                    "velocity": 0.6141732283464567,
                    "duration": 0.11249999999999716
                },
                {
                    "name": "D#3",
                    "midi": 51,
                    "time": 74.39999999999978,
                    "velocity": 0.5748031496062992,
                    "duration": 0.15000000000000568
                },
                {
                    "name": "D#4",
                    "midi": 63,
                    "time": 74.39999999999978,
                    "velocity": 0.6456692913385826,
                    "duration": 0.15000000000000568
                },
                {
                    "name": "D3",
                    "midi": 50,
                    "time": 74.54999999999978,
                    "velocity": 0.5511811023622047,
                    "duration": 0.15000000000000568
                },
                {
                    "name": "D4",
                    "midi": 62,
                    "time": 74.54999999999978,
                    "velocity": 0.6141732283464567,
                    "duration": 0.15000000000000568
                },
                {
                    "name": "D#3",
                    "midi": 51,
                    "time": 74.69999999999979,
                    "velocity": 0.5511811023622047,
                    "duration": 0.11249999999999716
                },
                {
                    "name": "D#4",
                    "midi": 63,
                    "time": 74.69999999999979,
                    "velocity": 0.6141732283464567,
                    "duration": 0.11249999999999716
                },
                {
                    "name": "F3",
                    "midi": 53,
                    "time": 74.84999999999978,
                    "velocity": 0.5511811023622047,
                    "duration": 0.11249999999999716
                },
                {
                    "name": "F4",
                    "midi": 65,
                    "time": 74.84999999999978,
                    "velocity": 0.6141732283464567,
                    "duration": 0.11249999999999716
                },
                {
                    "name": "G3",
                    "midi": 55,
                    "time": 74.99999999999977,
                    "velocity": 0.5748031496062992,
                    "duration": 0.15000000000000568
                },
                {
                    "name": "G4",
                    "midi": 67,
                    "time": 74.99999999999977,
                    "velocity": 0.6456692913385826,
                    "duration": 0.15000000000000568
                },
                {
                    "name": "F#3",
                    "midi": 54,
                    "time": 75.14999999999978,
                    "velocity": 0.5590551181102362,
                    "duration": 0.15000000000000568
                },
                {
                    "name": "F#4",
                    "midi": 66,
                    "time": 75.14999999999978,
                    "velocity": 0.6220472440944882,
                    "duration": 0.15000000000000568
                },
                {
                    "name": "G3",
                    "midi": 55,
                    "time": 75.29999999999978,
                    "velocity": 0.5590551181102362,
                    "duration": 0.11249999999999716
                },
                {
                    "name": "G4",
                    "midi": 67,
                    "time": 75.29999999999978,
                    "velocity": 0.6220472440944882,
                    "duration": 0.11249999999999716
                },
                {
                    "name": "A3",
                    "midi": 57,
                    "time": 75.44999999999978,
                    "velocity": 0.5590551181102362,
                    "duration": 0.11249999999999716
                },
                {
                    "name": "A4",
                    "midi": 69,
                    "time": 75.44999999999978,
                    "velocity": 0.6220472440944882,
                    "duration": 0.11249999999999716
                },
                {
                    "name": "B3",
                    "midi": 59,
                    "time": 75.59999999999977,
                    "velocity": 0.5984251968503937,
                    "duration": 0.15000000000000568
                },
                {
                    "name": "B4",
                    "midi": 71,
                    "time": 75.59999999999977,
                    "velocity": 0.6692913385826772,
                    "duration": 0.15000000000000568
                },
                {
                    "name": "A3",
                    "midi": 57,
                    "time": 75.74999999999977,
                    "velocity": 0.5590551181102362,
                    "duration": 0.15000000000000568
                },
                {
                    "name": "A4",
                    "midi": 69,
                    "time": 75.74999999999977,
                    "velocity": 0.6220472440944882,
                    "duration": 0.15000000000000568
                },
                {
                    "name": "B3",
                    "midi": 59,
                    "time": 75.89999999999978,
                    "velocity": 0.5590551181102362,
                    "duration": 0.11249999999999716
                },
                {
                    "name": "B4",
                    "midi": 71,
                    "time": 75.89999999999978,
                    "velocity": 0.6220472440944882,
                    "duration": 0.11249999999999716
                },
                {
                    "name": "G3",
                    "midi": 55,
                    "time": 76.04999999999977,
                    "velocity": 0.5590551181102362,
                    "duration": 0.11249999999999716
                },
                {
                    "name": "G4",
                    "midi": 67,
                    "time": 76.04999999999977,
                    "velocity": 0.6220472440944882,
                    "duration": 0.11249999999999716
                },
                {
                    "name": "C4",
                    "midi": 60,
                    "time": 76.19999999999976,
                    "velocity": 0.6220472440944882,
                    "duration": 0.15000000000000568
                },
                {
                    "name": "C5",
                    "midi": 72,
                    "time": 76.19999999999976,
                    "velocity": 0.6929133858267716,
                    "duration": 0.15000000000000568
                },
                {
                    "name": "B3",
                    "midi": 59,
                    "time": 76.34999999999977,
                    "velocity": 0.5669291338582677,
                    "duration": 0.15000000000000568
                },
                {
                    "name": "B4",
                    "midi": 71,
                    "time": 76.34999999999977,
                    "velocity": 0.6299212598425197,
                    "duration": 0.15000000000000568
                },
                {
                    "name": "C4",
                    "midi": 60,
                    "time": 76.49999999999977,
                    "velocity": 0.5669291338582677,
                    "duration": 0.11249999999999716
                },
                {
                    "name": "C5",
                    "midi": 72,
                    "time": 76.49999999999977,
                    "velocity": 0.6299212598425197,
                    "duration": 0.11249999999999716
                },
                {
                    "name": "D4",
                    "midi": 62,
                    "time": 76.64999999999976,
                    "velocity": 0.5669291338582677,
                    "duration": 0.11249999999999716
                },
                {
                    "name": "D5",
                    "midi": 74,
                    "time": 76.64999999999976,
                    "velocity": 0.6299212598425197,
                    "duration": 0.11249999999999716
                },
                {
                    "name": "D#4",
                    "midi": 63,
                    "time": 76.79999999999976,
                    "velocity": 0.6535433070866141,
                    "duration": 0.15000000000000568
                },
                {
                    "name": "D#5",
                    "midi": 75,
                    "time": 76.79999999999976,
                    "velocity": 0.7244094488188977,
                    "duration": 0.15000000000000568
                },
                {
                    "name": "D4",
                    "midi": 62,
                    "time": 76.94999999999976,
                    "velocity": 0.5669291338582677,
                    "duration": 0.15000000000000568
                },
                {
                    "name": "D5",
                    "midi": 74,
                    "time": 76.94999999999976,
                    "velocity": 0.6377952755905512,
                    "duration": 0.15000000000000568
                },
                {
                    "name": "D#4",
                    "midi": 63,
                    "time": 77.09999999999977,
                    "velocity": 0.5669291338582677,
                    "duration": 0.11249999999999716
                },
                {
                    "name": "D#5",
                    "midi": 75,
                    "time": 77.09999999999977,
                    "velocity": 0.6377952755905512,
                    "duration": 0.11249999999999716
                },
                {
                    "name": "F4",
                    "midi": 65,
                    "time": 77.24999999999976,
                    "velocity": 0.5669291338582677,
                    "duration": 0.11249999999999716
                },
                {
                    "name": "F5",
                    "midi": 77,
                    "time": 77.24999999999976,
                    "velocity": 0.6377952755905512,
                    "duration": 0.11249999999999716
                },
                {
                    "name": "G4",
                    "midi": 67,
                    "time": 77.39999999999975,
                    "velocity": 0.6535433070866141,
                    "duration": 0.15000000000000568
                },
                {
                    "name": "G5",
                    "midi": 79,
                    "time": 77.39999999999975,
                    "velocity": 0.7244094488188977,
                    "duration": 0.15000000000000568
                },
                {
                    "name": "G3",
                    "midi": 55,
                    "time": 77.69999999999976,
                    "velocity": 0.7322834645669292,
                    "duration": 0.22499999999999432
                },
                {
                    "name": "B4",
                    "midi": 71,
                    "time": 78.89999999999975,
                    "velocity": 0.44881889763779526,
                    "duration": 0.29999999999999716
                },
                {
                    "name": "B5",
                    "midi": 83,
                    "time": 78.89999999999975,
                    "velocity": 0.5669291338582677,
                    "duration": 0.29999999999999716
                },
                {
                    "name": "F5",
                    "midi": 77,
                    "time": 78.89999999999975,
                    "velocity": 0.5669291338582677,
                    "duration": 0.29999999999999716
                },
                {
                    "name": "B5",
                    "midi": 83,
                    "time": 79.19999999999975,
                    "velocity": 0.5039370078740157,
                    "duration": 0.29999999999999716
                },
                {
                    "name": "D#6",
                    "midi": 87,
                    "time": 79.19999999999975,
                    "velocity": 0.6377952755905512,
                    "duration": 0.29999999999999716
                },
                {
                    "name": "D#5",
                    "midi": 75,
                    "time": 79.19999999999975,
                    "velocity": 0.5039370078740157,
                    "duration": 0.29999999999999716
                },
                {
                    "name": "C5",
                    "midi": 72,
                    "time": 79.49999999999974,
                    "velocity": 0.4409448818897638,
                    "duration": 0.29999999999999716
                },
                {
                    "name": "D#5",
                    "midi": 75,
                    "time": 79.49999999999974,
                    "velocity": 0.4409448818897638,
                    "duration": 0.29999999999999716
                },
                {
                    "name": "C6",
                    "midi": 84,
                    "time": 79.49999999999974,
                    "velocity": 0.5590551181102362,
                    "duration": 0.29999999999999716
                },
                {
                    "name": "D5",
                    "midi": 74,
                    "time": 80.09999999999974,
                    "velocity": 0.47244094488188976,
                    "duration": 0.29999999999999716
                },
                {
                    "name": "D6",
                    "midi": 86,
                    "time": 80.09999999999974,
                    "velocity": 0.5984251968503937,
                    "duration": 0.29999999999999716
                },
                {
                    "name": "G#5",
                    "midi": 80,
                    "time": 80.09999999999974,
                    "velocity": 0.47244094488188976,
                    "duration": 0.29999999999999716
                },
                {
                    "name": "G6",
                    "midi": 91,
                    "time": 80.39999999999974,
                    "velocity": 0.6456692913385826,
                    "duration": 0.29999999999999716
                },
                {
                    "name": "D6",
                    "midi": 86,
                    "time": 80.39999999999974,
                    "velocity": 0.5118110236220472,
                    "duration": 0.29999999999999716
                },
                {
                    "name": "G5",
                    "midi": 79,
                    "time": 80.39999999999974,
                    "velocity": 0.5118110236220472,
                    "duration": 0.29999999999999716
                },
                {
                    "name": "C5",
                    "midi": 72,
                    "time": 80.69999999999973,
                    "velocity": 0.4566929133858268,
                    "duration": 0.29999999999999716
                },
                {
                    "name": "G5",
                    "midi": 79,
                    "time": 80.69999999999973,
                    "velocity": 0.4566929133858268,
                    "duration": 0.29999999999999716
                },
                {
                    "name": "C6",
                    "midi": 84,
                    "time": 80.69999999999973,
                    "velocity": 0.5748031496062992,
                    "duration": 0.29999999999999716
                },
                {
                    "name": "G#5",
                    "midi": 80,
                    "time": 81.29999999999973,
                    "velocity": 0.5275590551181102,
                    "duration": 0.29999999999999716
                },
                {
                    "name": "C6",
                    "midi": 84,
                    "time": 81.29999999999973,
                    "velocity": 0.5275590551181102,
                    "duration": 0.29999999999999716
                },
                {
                    "name": "G#6",
                    "midi": 92,
                    "time": 81.29999999999973,
                    "velocity": 0.6692913385826772,
                    "duration": 0.29999999999999716
                },
                {
                    "name": "G5",
                    "midi": 79,
                    "time": 81.59999999999972,
                    "velocity": 0.5748031496062992,
                    "duration": 0.29999999999999716
                },
                {
                    "name": "C6",
                    "midi": 84,
                    "time": 81.59999999999972,
                    "velocity": 0.5748031496062992,
                    "duration": 0.29999999999999716
                },
                {
                    "name": "G6",
                    "midi": 91,
                    "time": 81.59999999999972,
                    "velocity": 0.7244094488188977,
                    "duration": 0.29999999999999716
                },
                {
                    "name": "B6",
                    "midi": 95,
                    "time": 81.89999999999972,
                    "velocity": 0.6771653543307087,
                    "duration": 0.22499999999999432
                },
                {
                    "name": "G6",
                    "midi": 91,
                    "time": 81.89999999999972,
                    "velocity": 0.5433070866141733,
                    "duration": 0.22499999999999432
                },
                {
                    "name": "B5",
                    "midi": 83,
                    "time": 81.89999999999972,
                    "velocity": 0.5433070866141733,
                    "duration": 0.22499999999999432
                },
                {
                    "name": "C6",
                    "midi": 84,
                    "time": 82.19999999999972,
                    "velocity": 0.6062992125984252,
                    "duration": 0.22499999999999432
                },
                {
                    "name": "D#6",
                    "midi": 87,
                    "time": 82.19999999999972,
                    "velocity": 0.6062992125984252,
                    "duration": 0.22499999999999432
                },
                {
                    "name": "C7",
                    "midi": 96,
                    "time": 82.19999999999972,
                    "velocity": 0.7637795275590551,
                    "duration": 0.22499999999999432
                },
                {
                    "name": "D#4",
                    "midi": 63,
                    "time": 82.49999999999972,
                    "velocity": 0.5118110236220472,
                    "duration": 0.22499999999999432
                },
                {
                    "name": "G4",
                    "midi": 67,
                    "time": 82.49999999999972,
                    "velocity": 0.5118110236220472,
                    "duration": 0.22499999999999432
                },
                {
                    "name": "C5",
                    "midi": 72,
                    "time": 82.49999999999972,
                    "velocity": 0.6456692913385826,
                    "duration": 0.22499999999999432
                },
                {
                    "name": "A#3",
                    "midi": 58,
                    "time": 82.79999999999971,
                    "velocity": 0.6377952755905512,
                    "duration": 0.45000000000000284
                },
                {
                    "name": "A#4",
                    "midi": 70,
                    "time": 82.79999999999971,
                    "velocity": 0.7086614173228346,
                    "duration": 0.45000000000000284
                },
                {
                    "name": "D4",
                    "midi": 62,
                    "time": 83.09999999999971,
                    "velocity": 0.5196850393700787,
                    "duration": 0.30000000000001137
                },
                {
                    "name": "F4",
                    "midi": 65,
                    "time": 83.09999999999971,
                    "velocity": 0.5196850393700787,
                    "duration": 0.30000000000001137
                },
                {
                    "name": "A#3",
                    "midi": 58,
                    "time": 83.24999999999972,
                    "velocity": 0.5511811023622047,
                    "duration": 0.15000000000000568
                },
                {
                    "name": "A#4",
                    "midi": 70,
                    "time": 83.24999999999972,
                    "velocity": 0.6141732283464567,
                    "duration": 0.15000000000000568
                },
                {
                    "name": "A#3",
                    "midi": 58,
                    "time": 83.39999999999972,
                    "velocity": 0.5748031496062992,
                    "duration": 0.15000000000000568
                },
                {
                    "name": "A#4",
                    "midi": 70,
                    "time": 83.39999999999972,
                    "velocity": 0.6456692913385826,
                    "duration": 0.15000000000000568
                },
                {
                    "name": "A3",
                    "midi": 57,
                    "time": 83.54999999999973,
                    "velocity": 0.5039370078740157,
                    "duration": 0.15000000000000568
                },
                {
                    "name": "A4",
                    "midi": 69,
                    "time": 83.54999999999973,
                    "velocity": 0.5669291338582677,
                    "duration": 0.15000000000000568
                },
                {
                    "name": "A#3",
                    "midi": 58,
                    "time": 83.69999999999973,
                    "velocity": 0.5196850393700787,
                    "duration": 0.15000000000000568
                },
                {
                    "name": "A#4",
                    "midi": 70,
                    "time": 83.69999999999973,
                    "velocity": 0.5826771653543307,
                    "duration": 0.15000000000000568
                },
                {
                    "name": "D4",
                    "midi": 62,
                    "time": 83.84999999999974,
                    "velocity": 0.5433070866141733,
                    "duration": 0.15000000000000568
                },
                {
                    "name": "D5",
                    "midi": 74,
                    "time": 83.84999999999974,
                    "velocity": 0.6062992125984252,
                    "duration": 0.15000000000000568
                },
                {
                    "name": "F4",
                    "midi": 65,
                    "time": 83.99999999999974,
                    "velocity": 0.5590551181102362,
                    "duration": 0.15000000000000568
                },
                {
                    "name": "F5",
                    "midi": 77,
                    "time": 83.99999999999974,
                    "velocity": 0.6220472440944882,
                    "duration": 0.15000000000000568
                },
                {
                    "name": "A#4",
                    "midi": 70,
                    "time": 84.14999999999975,
                    "velocity": 0.5669291338582677,
                    "duration": 0.15000000000000568
                },
                {
                    "name": "A#5",
                    "midi": 82,
                    "time": 84.14999999999975,
                    "velocity": 0.6377952755905512,
                    "duration": 0.15000000000000568
                },
                {
                    "name": "D5",
                    "midi": 74,
                    "time": 84.29999999999976,
                    "velocity": 0.5748031496062992,
                    "duration": 0.15000000000000568
                },
                {
                    "name": "D6",
                    "midi": 86,
                    "time": 84.29999999999976,
                    "velocity": 0.6535433070866141,
                    "duration": 0.15000000000000568
                },
                {
                    "name": "F5",
                    "midi": 77,
                    "time": 84.44999999999976,
                    "velocity": 0.5984251968503937,
                    "duration": 0.15000000000000568
                },
                {
                    "name": "F6",
                    "midi": 89,
                    "time": 84.44999999999976,
                    "velocity": 0.6692913385826772,
                    "duration": 0.15000000000000568
                },
                {
                    "name": "G#5",
                    "midi": 80,
                    "time": 84.59999999999977,
                    "velocity": 0.6141732283464567,
                    "duration": 0.15000000000000568
                },
                {
                    "name": "G#6",
                    "midi": 92,
                    "time": 84.59999999999977,
                    "velocity": 0.6850393700787402,
                    "duration": 0.15000000000000568
                },
                {
                    "name": "F5",
                    "midi": 77,
                    "time": 84.74999999999977,
                    "velocity": 0.5748031496062992,
                    "duration": 0.15000000000000568
                },
                {
                    "name": "F6",
                    "midi": 89,
                    "time": 84.74999999999977,
                    "velocity": 0.6456692913385826,
                    "duration": 0.15000000000000568
                },
                {
                    "name": "D6",
                    "midi": 86,
                    "time": 84.89999999999978,
                    "velocity": 0.5511811023622047,
                    "duration": 0.22499999999999432
                },
                {
                    "name": "D5",
                    "midi": 74,
                    "time": 84.89999999999978,
                    "velocity": 0.49606299212598426,
                    "duration": 0.22499999999999432
                },
                {
                    "name": "F5",
                    "midi": 77,
                    "time": 84.89999999999978,
                    "velocity": 0.49606299212598426,
                    "duration": 0.22499999999999432
                },
                {
                    "name": "A#3",
                    "midi": 58,
                    "time": 85.19999999999978,
                    "velocity": 0.6377952755905512,
                    "duration": 0.45000000000000284
                },
                {
                    "name": "A#4",
                    "midi": 70,
                    "time": 85.19999999999978,
                    "velocity": 0.7086614173228346,
                    "duration": 0.45000000000000284
                },
                {
                    "name": "D4",
                    "midi": 62,
                    "time": 85.49999999999977,
                    "velocity": 0.4645669291338583,
                    "duration": 0.30000000000001137
                },
                {
                    "name": "F4",
                    "midi": 65,
                    "time": 85.49999999999977,
                    "velocity": 0.5196850393700787,
                    "duration": 0.30000000000001137
                },
                {
                    "name": "A#3",
                    "midi": 58,
                    "time": 85.64999999999978,
                    "velocity": 0.5511811023622047,
                    "duration": 0.15000000000000568
                },
                {
                    "name": "A#4",
                    "midi": 70,
                    "time": 85.64999999999978,
                    "velocity": 0.6141732283464567,
                    "duration": 0.15000000000000568
                },
                {
                    "name": "A#3",
                    "midi": 58,
                    "time": 85.79999999999978,
                    "velocity": 0.5748031496062992,
                    "duration": 0.15000000000000568
                },
                {
                    "name": "A#4",
                    "midi": 70,
                    "time": 85.79999999999978,
                    "velocity": 0.6456692913385826,
                    "duration": 0.15000000000000568
                },
                {
                    "name": "A3",
                    "midi": 57,
                    "time": 85.94999999999979,
                    "velocity": 0.5039370078740157,
                    "duration": 0.15000000000000568
                },
                {
                    "name": "A4",
                    "midi": 69,
                    "time": 85.94999999999979,
                    "velocity": 0.5669291338582677,
                    "duration": 0.15000000000000568
                },
                {
                    "name": "A#3",
                    "midi": 58,
                    "time": 86.0999999999998,
                    "velocity": 0.5196850393700787,
                    "duration": 0.15000000000000568
                },
                {
                    "name": "A#4",
                    "midi": 70,
                    "time": 86.0999999999998,
                    "velocity": 0.5826771653543307,
                    "duration": 0.15000000000000568
                },
                {
                    "name": "D4",
                    "midi": 62,
                    "time": 86.2499999999998,
                    "velocity": 0.5433070866141733,
                    "duration": 0.15000000000000568
                },
                {
                    "name": "D5",
                    "midi": 74,
                    "time": 86.2499999999998,
                    "velocity": 0.6062992125984252,
                    "duration": 0.15000000000000568
                },
                {
                    "name": "F4",
                    "midi": 65,
                    "time": 86.3999999999998,
                    "velocity": 0.5590551181102362,
                    "duration": 0.15000000000000568
                },
                {
                    "name": "F5",
                    "midi": 77,
                    "time": 86.3999999999998,
                    "velocity": 0.6220472440944882,
                    "duration": 0.15000000000000568
                },
                {
                    "name": "A#4",
                    "midi": 70,
                    "time": 86.54999999999981,
                    "velocity": 0.5669291338582677,
                    "duration": 0.15000000000000568
                },
                {
                    "name": "A#5",
                    "midi": 82,
                    "time": 86.54999999999981,
                    "velocity": 0.6377952755905512,
                    "duration": 0.15000000000000568
                },
                {
                    "name": "D5",
                    "midi": 74,
                    "time": 86.69999999999982,
                    "velocity": 0.5748031496062992,
                    "duration": 0.15000000000000568
                },
                {
                    "name": "D6",
                    "midi": 86,
                    "time": 86.69999999999982,
                    "velocity": 0.6535433070866141,
                    "duration": 0.15000000000000568
                },
                {
                    "name": "F5",
                    "midi": 77,
                    "time": 86.84999999999982,
                    "velocity": 0.5984251968503937,
                    "duration": 0.15000000000000568
                },
                {
                    "name": "F6",
                    "midi": 89,
                    "time": 86.84999999999982,
                    "velocity": 0.6692913385826772,
                    "duration": 0.15000000000000568
                },
                {
                    "name": "G#5",
                    "midi": 80,
                    "time": 86.99999999999983,
                    "velocity": 0.6141732283464567,
                    "duration": 0.15000000000000568
                },
                {
                    "name": "G#6",
                    "midi": 92,
                    "time": 86.99999999999983,
                    "velocity": 0.6850393700787402,
                    "duration": 0.15000000000000568
                },
                {
                    "name": "F5",
                    "midi": 77,
                    "time": 87.14999999999984,
                    "velocity": 0.5748031496062992,
                    "duration": 0.11249999999999716
                },
                {
                    "name": "F6",
                    "midi": 89,
                    "time": 87.14999999999984,
                    "velocity": 0.6456692913385826,
                    "duration": 0.11249999999999716
                },
                {
                    "name": "B5",
                    "midi": 83,
                    "time": 87.29999999999983,
                    "velocity": 0.5511811023622047,
                    "duration": 0.22499999999999432
                },
                {
                    "name": "D5",
                    "midi": 74,
                    "time": 87.29999999999983,
                    "velocity": 0.49606299212598426,
                    "duration": 0.22499999999999432
                },
                {
                    "name": "B4",
                    "midi": 71,
                    "time": 87.29999999999983,
                    "velocity": 0.49606299212598426,
                    "duration": 0.22499999999999432
                },
                {
                    "name": "G4",
                    "midi": 67,
                    "time": 87.59999999999982,
                    "velocity": 0.6456692913385826,
                    "duration": 0.45000000000000284
                },
                {
                    "name": "G5",
                    "midi": 79,
                    "time": 87.59999999999982,
                    "velocity": 0.7165354330708661,
                    "duration": 0.45000000000000284
                },
                {
                    "name": "D#4",
                    "midi": 63,
                    "time": 88.04999999999983,
                    "velocity": 0.5511811023622047,
                    "duration": 0.15000000000000568
                },
                {
                    "name": "D#5",
                    "midi": 75,
                    "time": 88.04999999999983,
                    "velocity": 0.6141732283464567,
                    "duration": 0.15000000000000568
                },
                {
                    "name": "C4",
                    "midi": 60,
                    "time": 88.19999999999983,
                    "velocity": 0.5748031496062992,
                    "duration": 0.11249999999999716
                },
                {
                    "name": "C5",
                    "midi": 72,
                    "time": 88.19999999999983,
                    "velocity": 0.6535433070866141,
                    "duration": 0.11249999999999716
                },
                {
                    "name": "B3",
                    "midi": 59,
                    "time": 88.34999999999982,
                    "velocity": 0.5511811023622047,
                    "duration": 0.11249999999999716
                },
                {
                    "name": "B4",
                    "midi": 71,
                    "time": 88.34999999999982,
                    "velocity": 0.6141732283464567,
                    "duration": 0.11249999999999716
                },
                {
                    "name": "D#4",
                    "midi": 63,
                    "time": 88.49999999999982,
                    "velocity": 0.4015748031496063,
                    "duration": 0.22500000000000853
                },
                {
                    "name": "G4",
                    "midi": 67,
                    "time": 88.49999999999982,
                    "velocity": 0.4015748031496063,
                    "duration": 0.22500000000000853
                },
                {
                    "name": "C4",
                    "midi": 60,
                    "time": 88.49999999999982,
                    "velocity": 0.5511811023622047,
                    "duration": 0.15000000000000568
                },
                {
                    "name": "C5",
                    "midi": 72,
                    "time": 88.49999999999982,
                    "velocity": 0.6141732283464567,
                    "duration": 0.15000000000000568
                },
                {
                    "name": "D4",
                    "midi": 62,
                    "time": 88.64999999999982,
                    "velocity": 0.5511811023622047,
                    "duration": 0.15000000000000568
                },
                {
                    "name": "D5",
                    "midi": 74,
                    "time": 88.64999999999982,
                    "velocity": 0.6141732283464567,
                    "duration": 0.15000000000000568
                },
                {
                    "name": "G4",
                    "midi": 67,
                    "time": 88.79999999999983,
                    "velocity": 0.4251968503937008,
                    "duration": 0.5999999999999943
                },
                {
                    "name": "C5",
                    "midi": 72,
                    "time": 88.79999999999983,
                    "velocity": 0.4251968503937008,
                    "duration": 0.5999999999999943
                },
                {
                    "name": "D#4",
                    "midi": 63,
                    "time": 88.79999999999983,
                    "velocity": 0.5669291338582677,
                    "duration": 0.11249999999999716
                },
                {
                    "name": "D#5",
                    "midi": 75,
                    "time": 88.79999999999983,
                    "velocity": 0.6377952755905512,
                    "duration": 0.11249999999999716
                },
                {
                    "name": "D4",
                    "midi": 62,
                    "time": 88.94999999999982,
                    "velocity": 0.5511811023622047,
                    "duration": 0.11249999999999716
                },
                {
                    "name": "D5",
                    "midi": 74,
                    "time": 88.94999999999982,
                    "velocity": 0.6141732283464567,
                    "duration": 0.11249999999999716
                },
                {
                    "name": "D#4",
                    "midi": 63,
                    "time": 89.09999999999981,
                    "velocity": 0.5511811023622047,
                    "duration": 0.15000000000000568
                },
                {
                    "name": "D#5",
                    "midi": 75,
                    "time": 89.09999999999981,
                    "velocity": 0.6141732283464567,
                    "duration": 0.15000000000000568
                },
                {
                    "name": "F4",
                    "midi": 65,
                    "time": 89.24999999999982,
                    "velocity": 0.5511811023622047,
                    "duration": 0.15000000000000568
                },
                {
                    "name": "F5",
                    "midi": 77,
                    "time": 89.24999999999982,
                    "velocity": 0.6141732283464567,
                    "duration": 0.15000000000000568
                },
                {
                    "name": "D5",
                    "midi": 74,
                    "time": 89.39999999999982,
                    "velocity": 0.4251968503937008,
                    "duration": 0.22499999999999432
                },
                {
                    "name": "C5",
                    "midi": 72,
                    "time": 89.39999999999982,
                    "velocity": 0.4251968503937008,
                    "duration": 0.22499999999999432
                },
                {
                    "name": "G4",
                    "midi": 67,
                    "time": 89.39999999999982,
                    "velocity": 0.5669291338582677,
                    "duration": 0.11249999999999716
                },
                {
                    "name": "G5",
                    "midi": 79,
                    "time": 89.39999999999982,
                    "velocity": 0.6377952755905512,
                    "duration": 0.11249999999999716
                },
                {
                    "name": "F#4",
                    "midi": 66,
                    "time": 89.54999999999981,
                    "velocity": 0.5511811023622047,
                    "duration": 0.125
                },
                {
                    "name": "F#5",
                    "midi": 78,
                    "time": 89.54999999999981,
                    "velocity": 0.6141732283464567,
                    "duration": 0.125
                },
                {
                    "name": "B4",
                    "midi": 71,
                    "time": 89.69999999999982,
                    "velocity": 0.4251968503937008,
                    "duration": 0.22500000000000853
                },
                {
                    "name": "D5",
                    "midi": 74,
                    "time": 89.69999999999982,
                    "velocity": 0.4251968503937008,
                    "duration": 0.22500000000000853
                },
                {
                    "name": "G4",
                    "midi": 67,
                    "time": 89.69999999999982,
                    "velocity": 0.5511811023622047,
                    "duration": 0.15000000000000568
                },
                {
                    "name": "G5",
                    "midi": 79,
                    "time": 89.69999999999982,
                    "velocity": 0.6141732283464567,
                    "duration": 0.15000000000000568
                },
                {
                    "name": "A5",
                    "midi": 81,
                    "time": 89.84999999999982,
                    "velocity": 0.6141732283464567,
                    "duration": 0.15000000000000568
                },
                {
                    "name": "A4",
                    "midi": 69,
                    "time": 89.84999999999982,
                    "velocity": 0.5511811023622047,
                    "duration": 0.15000000000000568
                },
                {
                    "name": "B4",
                    "midi": 71,
                    "time": 89.99999999999983,
                    "velocity": 0.5826771653543307,
                    "duration": 0.11249999999999716
                },
                {
                    "name": "B5",
                    "midi": 83,
                    "time": 89.99999999999983,
                    "velocity": 0.6614173228346457,
                    "duration": 0.11249999999999716
                },
                {
                    "name": "A4",
                    "midi": 69,
                    "time": 90.14999999999982,
                    "velocity": 0.5511811023622047,
                    "duration": 0.13750000000000284
                },
                {
                    "name": "A5",
                    "midi": 81,
                    "time": 90.14999999999982,
                    "velocity": 0.6141732283464567,
                    "duration": 0.13750000000000284
                },
                {
                    "name": "D5",
                    "midi": 74,
                    "time": 90.29999999999983,
                    "velocity": 0.4251968503937008,
                    "duration": 0.22500000000000853
                },
                {
                    "name": "F5",
                    "midi": 77,
                    "time": 90.29999999999983,
                    "velocity": 0.4251968503937008,
                    "duration": 0.22500000000000853
                },
                {
                    "name": "B4",
                    "midi": 71,
                    "time": 90.29999999999983,
                    "velocity": 0.5511811023622047,
                    "duration": 0.15000000000000568
                },
                {
                    "name": "B5",
                    "midi": 83,
                    "time": 90.29999999999983,
                    "velocity": 0.6141732283464567,
                    "duration": 0.15000000000000568
                },
                {
                    "name": "G4",
                    "midi": 67,
                    "time": 90.44999999999983,
                    "velocity": 0.5511811023622047,
                    "duration": 0.15000000000000568
                },
                {
                    "name": "G5",
                    "midi": 79,
                    "time": 90.44999999999983,
                    "velocity": 0.6141732283464567,
                    "duration": 0.15000000000000568
                },
                {
                    "name": "D#5",
                    "midi": 75,
                    "time": 90.59999999999984,
                    "velocity": 0.47244094488188976,
                    "duration": 0.22500000000000853
                },
                {
                    "name": "C5",
                    "midi": 72,
                    "time": 90.59999999999984,
                    "velocity": 0.6220472440944882,
                    "duration": 0.125
                },
                {
                    "name": "C6",
                    "midi": 84,
                    "time": 90.59999999999984,
                    "velocity": 0.6929133858267716,
                    "duration": 0.125
                },
                {
                    "name": "B4",
                    "midi": 71,
                    "time": 90.74999999999984,
                    "velocity": 0.5433070866141733,
                    "duration": 0.15000000000000568
                },
                {
                    "name": "B5",
                    "midi": 83,
                    "time": 90.74999999999984,
                    "velocity": 0.6062992125984252,
                    "duration": 0.15000000000000568
                },
                {
                    "name": "G5",
                    "midi": 79,
                    "time": 90.89999999999985,
                    "velocity": 0.47244094488188976,
                    "duration": 0.22500000000000853
                },
                {
                    "name": "D#5",
                    "midi": 75,
                    "time": 90.89999999999985,
                    "velocity": 0.47244094488188976,
                    "duration": 0.22500000000000853
                },
                {
                    "name": "C5",
                    "midi": 72,
                    "time": 90.89999999999985,
                    "velocity": 0.5511811023622047,
                    "duration": 0.15000000000000568
                },
                {
                    "name": "C6",
                    "midi": 84,
                    "time": 90.89999999999985,
                    "velocity": 0.6141732283464567,
                    "duration": 0.15000000000000568
                },
                {
                    "name": "D5",
                    "midi": 74,
                    "time": 91.04999999999986,
                    "velocity": 0.5669291338582677,
                    "duration": 0.15000000000000568
                },
                {
                    "name": "D6",
                    "midi": 86,
                    "time": 91.04999999999986,
                    "velocity": 0.6299212598425197,
                    "duration": 0.15000000000000568
                },
                {
                    "name": "C6",
                    "midi": 84,
                    "time": 91.19999999999986,
                    "velocity": 0.49606299212598426,
                    "duration": 0.22500000000000853
                },
                {
                    "name": "G5",
                    "midi": 79,
                    "time": 91.19999999999986,
                    "velocity": 0.49606299212598426,
                    "duration": 0.22500000000000853
                },
                {
                    "name": "D#5",
                    "midi": 75,
                    "time": 91.19999999999986,
                    "velocity": 0.6377952755905512,
                    "duration": 0.125
                },
                {
                    "name": "D#6",
                    "midi": 87,
                    "time": 91.19999999999986,
                    "velocity": 0.7086614173228346,
                    "duration": 0.125
                },
                {
                    "name": "D5",
                    "midi": 74,
                    "time": 91.34999999999987,
                    "velocity": 0.5511811023622047,
                    "duration": 0.15000000000000568
                },
                {
                    "name": "D6",
                    "midi": 86,
                    "time": 91.34999999999987,
                    "velocity": 0.6141732283464567,
                    "duration": 0.15000000000000568
                },
                {
                    "name": "G#5",
                    "midi": 80,
                    "time": 91.49999999999987,
                    "velocity": 0.49606299212598426,
                    "duration": 0.22500000000000853
                },
                {
                    "name": "C6",
                    "midi": 84,
                    "time": 91.49999999999987,
                    "velocity": 0.49606299212598426,
                    "duration": 0.22500000000000853
                },
                {
                    "name": "D#5",
                    "midi": 75,
                    "time": 91.49999999999987,
                    "velocity": 0.5669291338582677,
                    "duration": 0.15000000000000568
                },
                {
                    "name": "D#6",
                    "midi": 87,
                    "time": 91.49999999999987,
                    "velocity": 0.6377952755905512,
                    "duration": 0.15000000000000568
                },
                {
                    "name": "F5",
                    "midi": 77,
                    "time": 91.64999999999988,
                    "velocity": 0.5748031496062992,
                    "duration": 0.15000000000000568
                },
                {
                    "name": "F6",
                    "midi": 89,
                    "time": 91.64999999999988,
                    "velocity": 0.6535433070866141,
                    "duration": 0.15000000000000568
                },
                {
                    "name": "B5",
                    "midi": 83,
                    "time": 91.79999999999988,
                    "velocity": 0.6377952755905512,
                    "duration": 0.15000000000000568
                },
                {
                    "name": "G5",
                    "midi": 79,
                    "time": 91.79999999999988,
                    "velocity": 0.6377952755905512,
                    "duration": 0.15000000000000568
                },
                {
                    "name": "G6",
                    "midi": 91,
                    "time": 91.79999999999988,
                    "velocity": 0.7007874015748031,
                    "duration": 0.15000000000000568
                },
                {
                    "name": "B3",
                    "midi": 59,
                    "time": 92.0999999999999,
                    "velocity": 0.5433070866141733,
                    "duration": 0.22499999999999432
                },
                {
                    "name": "D4",
                    "midi": 62,
                    "time": 92.0999999999999,
                    "velocity": 0.5433070866141733,
                    "duration": 0.22499999999999432
                },
                {
                    "name": "G4",
                    "midi": 67,
                    "time": 92.0999999999999,
                    "velocity": 0.6062992125984252,
                    "duration": 0.22499999999999432
                },
                {
                    "name": "G6",
                    "midi": 91,
                    "time": 92.39999999999989,
                    "velocity": 0.6692913385826772,
                    "duration": 0.45000000000000284
                },
                {
                    "name": "B5",
                    "midi": 83,
                    "time": 92.39999999999989,
                    "velocity": 0.5984251968503937,
                    "duration": 0.45000000000000284
                },
                {
                    "name": "D6",
                    "midi": 86,
                    "time": 92.39999999999989,
                    "velocity": 0.5984251968503937,
                    "duration": 0.45000000000000284
                },
                {
                    "name": "G5",
                    "midi": 79,
                    "time": 92.39999999999989,
                    "velocity": 0.5984251968503937,
                    "duration": 0.45000000000000284
                },
                {
                    "name": "G5",
                    "midi": 79,
                    "time": 92.8499999999999,
                    "velocity": 0.5748031496062992,
                    "duration": 0.15000000000000568
                },
                {
                    "name": "G6",
                    "midi": 91,
                    "time": 92.8499999999999,
                    "velocity": 0.6535433070866141,
                    "duration": 0.15000000000000568
                },
                {
                    "name": "D6",
                    "midi": 86,
                    "time": 92.9999999999999,
                    "velocity": 0.6062992125984252,
                    "duration": 0.15000000000000568
                },
                {
                    "name": "G#5",
                    "midi": 80,
                    "time": 92.9999999999999,
                    "velocity": 0.6062992125984252,
                    "duration": 0.15000000000000568
                },
                {
                    "name": "G#6",
                    "midi": 92,
                    "time": 92.9999999999999,
                    "velocity": 0.6771653543307087,
                    "duration": 0.15000000000000568
                },
                {
                    "name": "G6",
                    "midi": 91,
                    "time": 93.1499999999999,
                    "velocity": 0.6535433070866141,
                    "duration": 0.15000000000000568
                },
                {
                    "name": "G5",
                    "midi": 79,
                    "time": 93.1499999999999,
                    "velocity": 0.5748031496062992,
                    "duration": 0.15000000000000568
                },
                {
                    "name": "D6",
                    "midi": 86,
                    "time": 93.29999999999991,
                    "velocity": 0.6062992125984252,
                    "duration": 0.15000000000000568
                },
                {
                    "name": "G#6",
                    "midi": 92,
                    "time": 93.29999999999991,
                    "velocity": 0.6535433070866141,
                    "duration": 0.15000000000000568
                },
                {
                    "name": "G#5",
                    "midi": 80,
                    "time": 93.29999999999991,
                    "velocity": 0.5748031496062992,
                    "duration": 0.15000000000000568
                },
                {
                    "name": "D6",
                    "midi": 86,
                    "time": 93.44999999999992,
                    "velocity": 0.6535433070866141,
                    "duration": 0.15000000000000568
                },
                {
                    "name": "D5",
                    "midi": 74,
                    "time": 93.44999999999992,
                    "velocity": 0.5748031496062992,
                    "duration": 0.15000000000000568
                },
                {
                    "name": "G5",
                    "midi": 79,
                    "time": 93.59999999999992,
                    "velocity": 0.6062992125984252,
                    "duration": 0.15000000000000568
                },
                {
                    "name": "G6",
                    "midi": 91,
                    "time": 93.59999999999992,
                    "velocity": 0.6771653543307087,
                    "duration": 0.15000000000000568
                },
                {
                    "name": "F#5",
                    "midi": 78,
                    "time": 93.74999999999993,
                    "velocity": 0.5748031496062992,
                    "duration": 0.15000000000000568
                },
                {
                    "name": "F#6",
                    "midi": 90,
                    "time": 93.74999999999993,
                    "velocity": 0.6535433070866141,
                    "duration": 0.15000000000000568
                },
                {
                    "name": "C6",
                    "midi": 84,
                    "time": 93.89999999999993,
                    "velocity": 0.5748031496062992,
                    "duration": 0.15000000000000568
                },
                {
                    "name": "G5",
                    "midi": 79,
                    "time": 93.89999999999993,
                    "velocity": 0.5748031496062992,
                    "duration": 0.15000000000000568
                },
                {
                    "name": "G6",
                    "midi": 91,
                    "time": 93.89999999999993,
                    "velocity": 0.6535433070866141,
                    "duration": 0.15000000000000568
                },
                {
                    "name": "C6",
                    "midi": 84,
                    "time": 94.04999999999994,
                    "velocity": 0.6535433070866141,
                    "duration": 0.15000000000000568
                },
                {
                    "name": "C5",
                    "midi": 72,
                    "time": 94.04999999999994,
                    "velocity": 0.5748031496062992,
                    "duration": 0.15000000000000568
                },
                {
                    "name": "C6",
                    "midi": 84,
                    "time": 94.19999999999995,
                    "velocity": 0.6062992125984252,
                    "duration": 0.15000000000000568
                },
                {
                    "name": "F6",
                    "midi": 89,
                    "time": 94.19999999999995,
                    "velocity": 0.6771653543307087,
                    "duration": 0.15000000000000568
                },
                {
                    "name": "F5",
                    "midi": 77,
                    "time": 94.19999999999995,
                    "velocity": 0.6062992125984252,
                    "duration": 0.15000000000000568
                },
                {
                    "name": "E5",
                    "midi": 76,
                    "time": 94.34999999999995,
                    "velocity": 0.5826771653543307,
                    "duration": 0.15000000000000568
                },
                {
                    "name": "E6",
                    "midi": 88,
                    "time": 94.34999999999995,
                    "velocity": 0.6614173228346457,
                    "duration": 0.15000000000000568
                },
                {
                    "name": "B5",
                    "midi": 83,
                    "time": 94.49999999999996,
                    "velocity": 0.5826771653543307,
                    "duration": 0.11249999999999716
                },
                {
                    "name": "F6",
                    "midi": 89,
                    "time": 94.49999999999996,
                    "velocity": 0.6614173228346457,
                    "duration": 0.11249999999999716
                },
                {
                    "name": "F5",
                    "midi": 77,
                    "time": 94.49999999999996,
                    "velocity": 0.5826771653543307,
                    "duration": 0.11249999999999716
                },
                {
                    "name": "B4",
                    "midi": 71,
                    "time": 94.64999999999995,
                    "velocity": 0.5826771653543307,
                    "duration": 0.15000000000000568
                },
                {
                    "name": "B5",
                    "midi": 83,
                    "time": 94.64999999999995,
                    "velocity": 0.6614173228346457,
                    "duration": 0.15000000000000568
                },
                {
                    "name": "D#6",
                    "midi": 87,
                    "time": 94.79999999999995,
                    "velocity": 0.6771653543307087,
                    "duration": 0.15000000000000568
                },
                {
                    "name": "D#5",
                    "midi": 75,
                    "time": 94.79999999999995,
                    "velocity": 0.6062992125984252,
                    "duration": 0.15000000000000568
                },
                {
                    "name": "D6",
                    "midi": 86,
                    "time": 94.94999999999996,
                    "velocity": 0.6535433070866141,
                    "duration": 0.15000000000000568
                },
                {
                    "name": "D5",
                    "midi": 74,
                    "time": 94.94999999999996,
                    "velocity": 0.5748031496062992,
                    "duration": 0.15000000000000568
                },
                {
                    "name": "G5",
                    "midi": 79,
                    "time": 95.09999999999997,
                    "velocity": 0.5748031496062992,
                    "duration": 0.11249999999999716
                },
                {
                    "name": "D#6",
                    "midi": 87,
                    "time": 95.09999999999997,
                    "velocity": 0.6535433070866141,
                    "duration": 0.11249999999999716
                },
                {
                    "name": "D#5",
                    "midi": 75,
                    "time": 95.09999999999997,
                    "velocity": 0.5748031496062992,
                    "duration": 0.11249999999999716
                },
                {
                    "name": "C6",
                    "midi": 84,
                    "time": 95.24999999999996,
                    "velocity": 0.6535433070866141,
                    "duration": 0.15000000000000568
                },
                {
                    "name": "C5",
                    "midi": 72,
                    "time": 95.24999999999996,
                    "velocity": 0.5748031496062992,
                    "duration": 0.15000000000000568
                },
                {
                    "name": "D5",
                    "midi": 74,
                    "time": 95.39999999999996,
                    "velocity": 0.6062992125984252,
                    "duration": 0.11249999999999716
                },
                {
                    "name": "A#4",
                    "midi": 70,
                    "time": 95.39999999999996,
                    "velocity": 0.6062992125984252,
                    "duration": 0.11249999999999716
                },
                {
                    "name": "A#5",
                    "midi": 82,
                    "time": 95.39999999999996,
                    "velocity": 0.6771653543307087,
                    "duration": 0.11249999999999716
                },
                {
                    "name": "C5",
                    "midi": 72,
                    "time": 95.54999999999995,
                    "velocity": 0.5748031496062992,
                    "duration": 0.11249999999999716
                },
                {
                    "name": "G#4",
                    "midi": 68,
                    "time": 95.54999999999995,
                    "velocity": 0.5748031496062992,
                    "duration": 0.11249999999999716
                },
                {
                    "name": "G#5",
                    "midi": 80,
                    "time": 95.54999999999995,
                    "velocity": 0.6535433070866141,
                    "duration": 0.11249999999999716
                },
                {
                    "name": "G4",
                    "midi": 67,
                    "time": 95.69999999999995,
                    "velocity": 0.5748031496062992,
                    "duration": 0.11249999999999716
                },
                {
                    "name": "G5",
                    "midi": 79,
                    "time": 95.69999999999995,
                    "velocity": 0.6535433070866141,
                    "duration": 0.11249999999999716
                },
                {
                    "name": "F4",
                    "midi": 65,
                    "time": 95.84999999999994,
                    "velocity": 0.5748031496062992,
                    "duration": 0.11249999999999716
                },
                {
                    "name": "F5",
                    "midi": 77,
                    "time": 95.84999999999994,
                    "velocity": 0.6535433070866141,
                    "duration": 0.11249999999999716
                },
                {
                    "name": "D#4",
                    "midi": 63,
                    "time": 95.99999999999993,
                    "velocity": 0.6141732283464567,
                    "duration": 0.11249999999999716
                },
                {
                    "name": "D#5",
                    "midi": 75,
                    "time": 95.99999999999993,
                    "velocity": 0.6850393700787402,
                    "duration": 0.11249999999999716
                },
                {
                    "name": "G5",
                    "midi": 79,
                    "time": 96.14999999999992,
                    "velocity": 0.6535433070866141,
                    "duration": 0.11249999999999716
                },
                {
                    "name": "G4",
                    "midi": 67,
                    "time": 96.14999999999992,
                    "velocity": 0.5748031496062992,
                    "duration": 0.11249999999999716
                },
                {
                    "name": "B4",
                    "midi": 71,
                    "time": 96.29999999999991,
                    "velocity": 0.6535433070866141,
                    "duration": 0.11249999999999716
                },
                {
                    "name": "F4",
                    "midi": 65,
                    "time": 96.29999999999991,
                    "velocity": 0.5748031496062992,
                    "duration": 0.11249999999999716
                },
                {
                    "name": "F5",
                    "midi": 77,
                    "time": 96.29999999999991,
                    "velocity": 0.6535433070866141,
                    "duration": 0.11249999999999716
                },
                {
                    "name": "D5",
                    "midi": 74,
                    "time": 96.4499999999999,
                    "velocity": 0.6535433070866141,
                    "duration": 0.125
                },
                {
                    "name": "D4",
                    "midi": 62,
                    "time": 96.4499999999999,
                    "velocity": 0.5748031496062992,
                    "duration": 0.11249999999999716
                },
                {
                    "name": "B4",
                    "midi": 71,
                    "time": 96.59999999999991,
                    "velocity": 0.6535433070866141,
                    "duration": 0.15000000000000568
                },
                {
                    "name": "B3",
                    "midi": 59,
                    "time": 96.59999999999991,
                    "velocity": 0.5748031496062992,
                    "duration": 0.15000000000000568
                },
                {
                    "name": "C5",
                    "midi": 72,
                    "time": 96.74999999999991,
                    "velocity": 0.6456692913385826,
                    "duration": 0.11249999999999716
                },
                {
                    "name": "C4",
                    "midi": 60,
                    "time": 96.74999999999991,
                    "velocity": 0.5748031496062992,
                    "duration": 0.11249999999999716
                },
                {
                    "name": "C5",
                    "midi": 72,
                    "time": 96.8999999999999,
                    "velocity": 0.6377952755905512,
                    "duration": 0.22499999999999432
                },
                {
                    "name": "G5",
                    "midi": 79,
                    "time": 96.8999999999999,
                    "velocity": 0.6377952755905512,
                    "duration": 0.22499999999999432
                },
                {
                    "name": "D#5",
                    "midi": 75,
                    "time": 96.8999999999999,
                    "velocity": 0.6377952755905512,
                    "duration": 0.22499999999999432
                },
                {
                    "name": "C6",
                    "midi": 84,
                    "time": 96.8999999999999,
                    "velocity": 0.7086614173228346,
                    "duration": 0.22499999999999432
                },
                {
                    "name": "D#4",
                    "midi": 63,
                    "time": 97.7249999999999,
                    "velocity": 0.6141732283464567,
                    "duration": 0.07500000000000284
                },
                {
                    "name": "D#4",
                    "midi": 63,
                    "time": 97.7999999999999,
                    "velocity": 0.6456692913385826,
                    "duration": 1.2000000000000028
                },
                {
                    "name": "B4",
                    "midi": 71,
                    "time": 98.9999999999999,
                    "velocity": 0.6141732283464567,
                    "duration": 0.15000000000000568
                },
                {
                    "name": "B3",
                    "midi": 59,
                    "time": 98.9999999999999,
                    "velocity": 0.5511811023622047,
                    "duration": 0.15000000000000568
                },
                {
                    "name": "C5",
                    "midi": 72,
                    "time": 99.1499999999999,
                    "velocity": 0.5669291338582677,
                    "duration": 0.11249999999999716
                },
                {
                    "name": "C4",
                    "midi": 60,
                    "time": 99.1499999999999,
                    "velocity": 0.5039370078740157,
                    "duration": 0.11249999999999716
                },
                {
                    "name": "G#5",
                    "midi": 80,
                    "time": 99.2999999999999,
                    "velocity": 0.4330708661417323,
                    "duration": 0.22499999999999432
                },
                {
                    "name": "F#5",
                    "midi": 78,
                    "time": 99.2999999999999,
                    "velocity": 0.4330708661417323,
                    "duration": 0.22499999999999432
                },
                {
                    "name": "D#5",
                    "midi": 75,
                    "time": 99.2999999999999,
                    "velocity": 0.4330708661417323,
                    "duration": 0.22499999999999432
                },
                {
                    "name": "D#6",
                    "midi": 87,
                    "time": 99.2999999999999,
                    "velocity": 0.4881889763779528,
                    "duration": 0.22499999999999432
                },
                {
                    "name": "G#4",
                    "midi": 68,
                    "time": 100.12499999999989,
                    "velocity": 0.47244094488188976,
                    "duration": 0.07500000000000284
                },
                {
                    "name": "F#4",
                    "midi": 66,
                    "time": 100.12499999999989,
                    "velocity": 0.4251968503937008,
                    "duration": 0.07500000000000284
                },
                {
                    "name": "C4",
                    "midi": 60,
                    "time": 100.12499999999989,
                    "velocity": 0.4251968503937008,
                    "duration": 0.07500000000000284
                },
                {
                    "name": "G#4",
                    "midi": 68,
                    "time": 100.19999999999989,
                    "velocity": 0.5275590551181102,
                    "duration": 1.2000000000000028
                },
                {
                    "name": "C4",
                    "midi": 60,
                    "time": 100.19999999999989,
                    "velocity": 0.47244094488188976,
                    "duration": 1.2000000000000028
                },
                {
                    "name": "F#4",
                    "midi": 66,
                    "time": 100.19999999999989,
                    "velocity": 0.47244094488188976,
                    "duration": 1.2000000000000028
                },
                {
                    "name": "D#4",
                    "midi": 63,
                    "time": 101.39999999999989,
                    "velocity": 0.3543307086614173,
                    "duration": 0.5999999999999943
                },
                {
                    "name": "F#4",
                    "midi": 66,
                    "time": 101.39999999999989,
                    "velocity": 0.3543307086614173,
                    "duration": 0.5999999999999943
                },
                {
                    "name": "A4",
                    "midi": 69,
                    "time": 101.39999999999989,
                    "velocity": 0.3937007874015748,
                    "duration": 0.5999999999999943
                },
                {
                    "name": "B4",
                    "midi": 71,
                    "time": 101.99999999999989,
                    "velocity": 0.4015748031496063,
                    "duration": 0.07500000000000284
                },
                {
                    "name": "B5",
                    "midi": 83,
                    "time": 101.99999999999989,
                    "velocity": 0.44881889763779526,
                    "duration": 0.07500000000000284
                },
                {
                    "name": "C5",
                    "midi": 72,
                    "time": 102.14999999999989,
                    "velocity": 0.3779527559055118,
                    "duration": 0.07500000000000284
                },
                {
                    "name": "C6",
                    "midi": 84,
                    "time": 102.14999999999989,
                    "velocity": 0.4251968503937008,
                    "duration": 0.07500000000000284
                },
                {
                    "name": "F#5",
                    "midi": 78,
                    "time": 102.2999999999999,
                    "velocity": 0.36220472440944884,
                    "duration": 0.22499999999999432
                },
                {
                    "name": "F#6",
                    "midi": 90,
                    "time": 102.2999999999999,
                    "velocity": 0.41732283464566927,
                    "duration": 0.22499999999999432
                },
                {
                    "name": "E5",
                    "midi": 76,
                    "time": 102.5999999999999,
                    "velocity": 0.3779527559055118,
                    "duration": 0.07500000000000284
                },
                {
                    "name": "E6",
                    "midi": 88,
                    "time": 102.5999999999999,
                    "velocity": 0.4251968503937008,
                    "duration": 0.07500000000000284
                },
                {
                    "name": "F5",
                    "midi": 77,
                    "time": 102.7499999999999,
                    "velocity": 0.3543307086614173,
                    "duration": 0.07500000000000284
                },
                {
                    "name": "F6",
                    "midi": 89,
                    "time": 102.7499999999999,
                    "velocity": 0.3937007874015748,
                    "duration": 0.07500000000000284
                },
                {
                    "name": "F7",
                    "midi": 101,
                    "time": 102.8999999999999,
                    "velocity": 0.3858267716535433,
                    "duration": 0.22499999999999432
                },
                {
                    "name": "F6",
                    "midi": 89,
                    "time": 102.8999999999999,
                    "velocity": 0.3464566929133858,
                    "duration": 0.22499999999999432
                },
                {
                    "name": "C4",
                    "midi": 60,
                    "time": 103.1999999999999,
                    "velocity": 0.3228346456692913,
                    "duration": 0.5999999999999943
                },
                {
                    "name": "D#4",
                    "midi": 63,
                    "time": 103.1999999999999,
                    "velocity": 0.3228346456692913,
                    "duration": 0.5999999999999943
                },
                {
                    "name": "A4",
                    "midi": 69,
                    "time": 103.1999999999999,
                    "velocity": 0.4094488188976378,
                    "duration": 0.5999999999999943
                },
                {
                    "name": "A#3",
                    "midi": 58,
                    "time": 103.7999999999999,
                    "velocity": 0.33070866141732286,
                    "duration": 1.2000000000000028
                },
                {
                    "name": "D4",
                    "midi": 62,
                    "time": 103.7999999999999,
                    "velocity": 0.33070866141732286,
                    "duration": 1.2000000000000028
                },
                {
                    "name": "A#4",
                    "midi": 70,
                    "time": 103.7999999999999,
                    "velocity": 0.41732283464566927,
                    "duration": 1.2000000000000028
                },
                {
                    "name": "A#3",
                    "midi": 58,
                    "time": 106.7999999999999,
                    "velocity": 0.3543307086614173,
                    "duration": 0.45000000000000284
                },
                {
                    "name": "A#4",
                    "midi": 70,
                    "time": 106.7999999999999,
                    "velocity": 0.4094488188976378,
                    "duration": 0.45000000000000284
                },
                {
                    "name": "D4",
                    "midi": 62,
                    "time": 107.0999999999999,
                    "velocity": 0.3543307086614173,
                    "duration": 0.29999999999999716
                },
                {
                    "name": "F4",
                    "midi": 65,
                    "time": 107.0999999999999,
                    "velocity": 0.3543307086614173,
                    "duration": 0.29999999999999716
                },
                {
                    "name": "G#4",
                    "midi": 68,
                    "time": 107.0999999999999,
                    "velocity": 0.3543307086614173,
                    "duration": 0.29999999999999716
                },
                {
                    "name": "A#3",
                    "midi": 58,
                    "time": 107.2499999999999,
                    "velocity": 0.3228346456692913,
                    "duration": 0.11249999999999716
                },
                {
                    "name": "A#4",
                    "midi": 70,
                    "time": 107.2499999999999,
                    "velocity": 0.3543307086614173,
                    "duration": 0.11249999999999716
                },
                {
                    "name": "A#3",
                    "midi": 58,
                    "time": 107.39999999999989,
                    "velocity": 0.33858267716535434,
                    "duration": 0.07500000000000284
                },
                {
                    "name": "A#4",
                    "midi": 70,
                    "time": 107.39999999999989,
                    "velocity": 0.3779527559055118,
                    "duration": 0.07500000000000284
                },
                {
                    "name": "A3",
                    "midi": 57,
                    "time": 107.5499999999999,
                    "velocity": 0.3543307086614173,
                    "duration": 0.07500000000000284
                },
                {
                    "name": "A4",
                    "midi": 69,
                    "time": 107.5499999999999,
                    "velocity": 0.3937007874015748,
                    "duration": 0.07500000000000284
                },
                {
                    "name": "A#3",
                    "midi": 58,
                    "time": 107.6999999999999,
                    "velocity": 0.3543307086614173,
                    "duration": 0.07500000000000284
                },
                {
                    "name": "A#4",
                    "midi": 70,
                    "time": 107.6999999999999,
                    "velocity": 0.4015748031496063,
                    "duration": 0.07500000000000284
                },
                {
                    "name": "D4",
                    "midi": 62,
                    "time": 107.84999999999991,
                    "velocity": 0.3543307086614173,
                    "duration": 0.07500000000000284
                },
                {
                    "name": "D5",
                    "midi": 74,
                    "time": 107.84999999999991,
                    "velocity": 0.4015748031496063,
                    "duration": 0.07500000000000284
                },
                {
                    "name": "F4",
                    "midi": 65,
                    "time": 107.99999999999991,
                    "velocity": 0.36220472440944884,
                    "duration": 0.07500000000000284
                },
                {
                    "name": "F5",
                    "midi": 77,
                    "time": 107.99999999999991,
                    "velocity": 0.41732283464566927,
                    "duration": 0.07500000000000284
                },
                {
                    "name": "A#4",
                    "midi": 70,
                    "time": 108.14999999999992,
                    "velocity": 0.3858267716535433,
                    "duration": 0.07500000000000284
                },
                {
                    "name": "A#5",
                    "midi": 82,
                    "time": 108.14999999999992,
                    "velocity": 0.4330708661417323,
                    "duration": 0.07500000000000284
                },
                {
                    "name": "D5",
                    "midi": 74,
                    "time": 108.29999999999993,
                    "velocity": 0.3858267716535433,
                    "duration": 0.07500000000000284
                },
                {
                    "name": "D6",
                    "midi": 86,
                    "time": 108.29999999999993,
                    "velocity": 0.4330708661417323,
                    "duration": 0.07500000000000284
                },
                {
                    "name": "F5",
                    "midi": 77,
                    "time": 108.44999999999993,
                    "velocity": 0.3937007874015748,
                    "duration": 0.07500000000000284
                },
                {
                    "name": "F6",
                    "midi": 89,
                    "time": 108.44999999999993,
                    "velocity": 0.4409448818897638,
                    "duration": 0.07500000000000284
                },
                {
                    "name": "G#6",
                    "midi": 92,
                    "time": 108.59999999999994,
                    "velocity": 0.4566929133858268,
                    "duration": 0.07500000000000284
                },
                {
                    "name": "G#5",
                    "midi": 80,
                    "time": 108.59999999999994,
                    "velocity": 0.4094488188976378,
                    "duration": 0.07500000000000284
                },
                {
                    "name": "F5",
                    "midi": 77,
                    "time": 108.74999999999994,
                    "velocity": 0.3858267716535433,
                    "duration": 0.07500000000000284
                },
                {
                    "name": "F6",
                    "midi": 89,
                    "time": 108.74999999999994,
                    "velocity": 0.4330708661417323,
                    "duration": 0.07500000000000284
                },
                {
                    "name": "D5",
                    "midi": 74,
                    "time": 108.89999999999995,
                    "velocity": 0.33070866141732286,
                    "duration": 0.15000000000000568
                },
                {
                    "name": "D6",
                    "midi": 86,
                    "time": 108.89999999999995,
                    "velocity": 0.36220472440944884,
                    "duration": 0.15000000000000568
                },
                {
                    "name": "G#6",
                    "midi": 92,
                    "time": 109.79999999999995,
                    "velocity": 0.3779527559055118,
                    "duration": 0.07500000000000284
                },
                {
                    "name": "G#5",
                    "midi": 80,
                    "time": 109.79999999999995,
                    "velocity": 0.33858267716535434,
                    "duration": 0.07500000000000284
                },
                {
                    "name": "F5",
                    "midi": 77,
                    "time": 109.94999999999996,
                    "velocity": 0.2992125984251969,
                    "duration": 0.07500000000000284
                },
                {
                    "name": "F6",
                    "midi": 89,
                    "time": 109.94999999999996,
                    "velocity": 0.3464566929133858,
                    "duration": 0.07500000000000284
                },
                {
                    "name": "B4",
                    "midi": 71,
                    "time": 110.09999999999997,
                    "velocity": 0.2755905511811024,
                    "duration": 0.15000000000000568
                },
                {
                    "name": "B5",
                    "midi": 83,
                    "time": 110.09999999999997,
                    "velocity": 0.2992125984251969,
                    "duration": 0.15000000000000568
                },
                {
                    "name": "G#6",
                    "midi": 92,
                    "time": 110.99999999999997,
                    "velocity": 0.28346456692913385,
                    "duration": 0.07500000000000284
                },
                {
                    "name": "F6",
                    "midi": 89,
                    "time": 111.07499999999997,
                    "velocity": 0.28346456692913385,
                    "duration": 0.07500000000000284
                },
                {
                    "name": "B5",
                    "midi": 83,
                    "time": 111.14999999999998,
                    "velocity": 0.28346456692913385,
                    "duration": 0.07500000000000284
                },
                {
                    "name": "A#5",
                    "midi": 82,
                    "time": 111.22499999999998,
                    "velocity": 0.28346456692913385,
                    "duration": 0.07500000000000284
                },
                {
                    "name": "G#4",
                    "midi": 68,
                    "time": 111.59999999999998,
                    "velocity": 0.28346456692913385,
                    "duration": 0.07500000000000284
                },
                {
                    "name": "F4",
                    "midi": 65,
                    "time": 111.67499999999998,
                    "velocity": 0.28346456692913385,
                    "duration": 0.07500000000000284
                },
                {
                    "name": "B3",
                    "midi": 59,
                    "time": 111.74999999999999,
                    "velocity": 0.28346456692913385,
                    "duration": 0.07500000000000284
                },
                {
                    "name": "A#3",
                    "midi": 58,
                    "time": 111.82499999999999,
                    "velocity": 0.28346456692913385,
                    "duration": 0.07500000000000284
                },
                {
                    "name": "D2",
                    "midi": 38,
                    "time": 112.19999999999999,
                    "velocity": 0.28346456692913385,
                    "duration": 0.15000000000000568
                },
                {
                    "name": "A5",
                    "midi": 81,
                    "time": 112.76249999999999,
                    "velocity": 0.28346456692913385,
                    "duration": 0.3375000000000057
                },
                {
                    "name": "C6",
                    "midi": 84,
                    "time": 112.77499999999999,
                    "velocity": 0.28346456692913385,
                    "duration": 0.32500000000000284
                },
                {
                    "name": "F#6",
                    "midi": 90,
                    "time": 112.7875,
                    "velocity": 0.29133858267716534,
                    "duration": 0.3125
                },
                {
                    "name": "A6",
                    "midi": 93,
                    "time": 112.8,
                    "velocity": 0.2992125984251969,
                    "duration": 0.29999999999999716
                },
                {
                    "name": "G#5",
                    "midi": 80,
                    "time": 113.375,
                    "velocity": 0.28346456692913385,
                    "duration": 0.32500000000000284
                },
                {
                    "name": "D6",
                    "midi": 86,
                    "time": 113.3875,
                    "velocity": 0.29133858267716534,
                    "duration": 0.3125
                },
                {
                    "name": "A#6",
                    "midi": 94,
                    "time": 113.4,
                    "velocity": 0.2992125984251969,
                    "duration": 0.29999999999999716
                },
                {
                    "name": "A#3",
                    "midi": 58,
                    "time": 113.925,
                    "velocity": 0.23622047244094488,
                    "duration": 0.07500000000000284
                },
                {
                    "name": "A#3",
                    "midi": 58,
                    "time": 114,
                    "velocity": 0.25196850393700787,
                    "duration": 0.07500000000000284
                },
                {
                    "name": "B3",
                    "midi": 59,
                    "time": 114.05,
                    "velocity": 0.2440944881889764,
                    "duration": 0.07500000000001705
                },
                {
                    "name": "A#3",
                    "midi": 58,
                    "time": 114.10000000000001,
                    "velocity": 0.25984251968503935,
                    "duration": 0.07500000000001705
                },
                {
                    "name": "B3",
                    "midi": 59,
                    "time": 114.15000000000002,
                    "velocity": 0.2440944881889764,
                    "duration": 0.07500000000001705
                },
                {
                    "name": "A#3",
                    "midi": 58,
                    "time": 114.20000000000003,
                    "velocity": 0.25984251968503935,
                    "duration": 0.07500000000001705
                },
                {
                    "name": "B3",
                    "midi": 59,
                    "time": 114.25000000000004,
                    "velocity": 0.25196850393700787,
                    "duration": 0.07500000000001705
                },
                {
                    "name": "A#3",
                    "midi": 58,
                    "time": 114.30000000000005,
                    "velocity": 0.2755905511811024,
                    "duration": 0.07500000000001705
                },
                {
                    "name": "B3",
                    "midi": 59,
                    "time": 114.35000000000007,
                    "velocity": 0.25196850393700787,
                    "duration": 0.07500000000001705
                },
                {
                    "name": "A#3",
                    "midi": 58,
                    "time": 114.40000000000008,
                    "velocity": 0.2755905511811024,
                    "duration": 0.07500000000001705
                },
                {
                    "name": "B3",
                    "midi": 59,
                    "time": 114.45000000000009,
                    "velocity": 0.25196850393700787,
                    "duration": 0.07500000000001705
                },
                {
                    "name": "A#3",
                    "midi": 58,
                    "time": 114.5000000000001,
                    "velocity": 0.28346456692913385,
                    "duration": 0.07500000000001705
                },
                {
                    "name": "B3",
                    "midi": 59,
                    "time": 114.55000000000011,
                    "velocity": 0.25984251968503935,
                    "duration": 0.07500000000001705
                },
                {
                    "name": "A#3",
                    "midi": 58,
                    "time": 114.60000000000012,
                    "velocity": 0.28346456692913385,
                    "duration": 0.07500000000001705
                },
                {
                    "name": "B3",
                    "midi": 59,
                    "time": 114.65000000000013,
                    "velocity": 0.25984251968503935,
                    "duration": 0.07500000000001705
                },
                {
                    "name": "A#3",
                    "midi": 58,
                    "time": 114.70000000000014,
                    "velocity": 0.28346456692913385,
                    "duration": 0.07500000000001705
                },
                {
                    "name": "B3",
                    "midi": 59,
                    "time": 114.75000000000016,
                    "velocity": 0.25984251968503935,
                    "duration": 0.07500000000001705
                },
                {
                    "name": "A#3",
                    "midi": 58,
                    "time": 114.80000000000017,
                    "velocity": 0.28346456692913385,
                    "duration": 0.07500000000001705
                },
                {
                    "name": "B3",
                    "midi": 59,
                    "time": 114.85000000000018,
                    "velocity": 0.25196850393700787,
                    "duration": 0.07500000000001705
                },
                {
                    "name": "A#3",
                    "midi": 58,
                    "time": 114.90000000000019,
                    "velocity": 0.28346456692913385,
                    "duration": 0.056250000000005684
                },
                {
                    "name": "B3",
                    "midi": 59,
                    "time": 114.9375000000002,
                    "velocity": 0.25196850393700787,
                    "duration": 0.056249999999991473
                },
                {
                    "name": "A#3",
                    "midi": 58,
                    "time": 114.9750000000002,
                    "velocity": 0.2755905511811024,
                    "duration": 0.07500000000000284
                },
                {
                    "name": "A3",
                    "midi": 57,
                    "time": 115.0500000000002,
                    "velocity": 0.25196850393700787,
                    "duration": 0.10000000000000853
                },
                {
                    "name": "A#3",
                    "midi": 58,
                    "time": 115.1250000000002,
                    "velocity": 0.25196850393700787,
                    "duration": 0.07500000000000284
                },
                {
                    "name": "C4",
                    "midi": 60,
                    "time": 115.8000000000002,
                    "velocity": 0.30708661417322836,
                    "duration": 0.07500000000000284
                },
                {
                    "name": "C#4",
                    "midi": 61,
                    "time": 115.8500000000002,
                    "velocity": 0.28346456692913385,
                    "duration": 0.07500000000001705
                },
                {
                    "name": "C4",
                    "midi": 60,
                    "time": 115.9000000000002,
                    "velocity": 0.30708661417322836,
                    "duration": 0.07500000000001705
                },
                {
                    "name": "C#4",
                    "midi": 61,
                    "time": 115.95000000000022,
                    "velocity": 0.28346456692913385,
                    "duration": 0.07500000000001705
                },
                {
                    "name": "C4",
                    "midi": 60,
                    "time": 116.00000000000023,
                    "velocity": 0.30708661417322836,
                    "duration": 0.07500000000001705
                },
                {
                    "name": "C#4",
                    "midi": 61,
                    "time": 116.05000000000024,
                    "velocity": 0.28346456692913385,
                    "duration": 0.07500000000001705
                },
                {
                    "name": "C4",
                    "midi": 60,
                    "time": 116.10000000000025,
                    "velocity": 0.30708661417322836,
                    "duration": 0.056250000000005684
                },
                {
                    "name": "C#4",
                    "midi": 61,
                    "time": 116.13750000000026,
                    "velocity": 0.28346456692913385,
                    "duration": 0.056249999999991473
                },
                {
                    "name": "C4",
                    "midi": 60,
                    "time": 116.17500000000025,
                    "velocity": 0.3228346456692913,
                    "duration": 0.07500000000000284
                },
                {
                    "name": "B3",
                    "midi": 59,
                    "time": 116.25000000000026,
                    "velocity": 0.29133858267716534,
                    "duration": 0.10000000000000853
                },
                {
                    "name": "C4",
                    "midi": 60,
                    "time": 116.32500000000026,
                    "velocity": 0.29133858267716534,
                    "duration": 0.07500000000000284
                },
                {
                    "name": "D4",
                    "midi": 62,
                    "time": 118.20000000000026,
                    "velocity": 0.1889763779527559,
                    "duration": 0.15000000000000568
                },
                {
                    "name": "A5",
                    "midi": 81,
                    "time": 119.40000000000026,
                    "velocity": 0.3228346456692913,
                    "duration": 0.048749999999998295
                },
                {
                    "name": "A#5",
                    "midi": 82,
                    "time": 119.45500000000025,
                    "velocity": 0.28346456692913385,
                    "duration": 0.048749999999998295
                },
                {
                    "name": "D#6",
                    "midi": 87,
                    "time": 119.51000000000025,
                    "velocity": 0.2992125984251969,
                    "duration": 0.048749999999998295
                },
                {
                    "name": "C6",
                    "midi": 84,
                    "time": 119.56500000000024,
                    "velocity": 0.28346456692913385,
                    "duration": 0.048749999999998295
                },
                {
                    "name": "A#5",
                    "midi": 82,
                    "time": 119.62000000000023,
                    "velocity": 0.28346456692913385,
                    "duration": 0.048749999999998295
                },
                {
                    "name": "G#5",
                    "midi": 80,
                    "time": 119.67500000000022,
                    "velocity": 0.28346456692913385,
                    "duration": 0.048749999999998295
                },
                {
                    "name": "G5",
                    "midi": 79,
                    "time": 119.73000000000022,
                    "velocity": 0.25984251968503935,
                    "duration": 0.048749999999998295
                },
                {
                    "name": "G3",
                    "midi": 55,
                    "time": 120.30000000000021,
                    "velocity": 0.2125984251968504,
                    "duration": 0.11249999999999716
                },
                {
                    "name": "A#3",
                    "midi": 58,
                    "time": 120.30000000000021,
                    "velocity": 0.2125984251968504,
                    "duration": 0.11249999999999716
                },
                {
                    "name": "D#4",
                    "midi": 63,
                    "time": 120.30000000000021,
                    "velocity": 0.23622047244094488,
                    "duration": 0.11249999999999716
                },
                {
                    "name": "G#3",
                    "midi": 56,
                    "time": 120.60000000000021,
                    "velocity": 0.2204724409448819,
                    "duration": 0.11249999999999716
                },
                {
                    "name": "A#3",
                    "midi": 58,
                    "time": 120.60000000000021,
                    "velocity": 0.2204724409448819,
                    "duration": 0.11249999999999716
                },
                {
                    "name": "F4",
                    "midi": 65,
                    "time": 120.60000000000021,
                    "velocity": 0.25196850393700787,
                    "duration": 0.11249999999999716
                },
                {
                    "name": "A3",
                    "midi": 57,
                    "time": 120.9000000000002,
                    "velocity": 0.2125984251968504,
                    "duration": 0.11249999999999716
                },
                {
                    "name": "A#3",
                    "midi": 58,
                    "time": 120.9000000000002,
                    "velocity": 0.2125984251968504,
                    "duration": 0.11249999999999716
                },
                {
                    "name": "F#4",
                    "midi": 66,
                    "time": 120.9000000000002,
                    "velocity": 0.2440944881889764,
                    "duration": 0.11249999999999716
                },
                {
                    "name": "A#3",
                    "midi": 58,
                    "time": 121.2000000000002,
                    "velocity": 0.2283464566929134,
                    "duration": 0.29999999999999716
                },
                {
                    "name": "G4",
                    "midi": 67,
                    "time": 121.2000000000002,
                    "velocity": 0.25984251968503935,
                    "duration": 0.29999999999999716
                },
                {
                    "name": "G3",
                    "midi": 55,
                    "time": 121.5000000000002,
                    "velocity": 0.2125984251968504,
                    "duration": 0.15000000000000568
                },
                {
                    "name": "D#4",
                    "midi": 63,
                    "time": 121.5000000000002,
                    "velocity": 0.23622047244094488,
                    "duration": 0.15000000000000568
                },
                {
                    "name": "A5",
                    "midi": 81,
                    "time": 121.80000000000021,
                    "velocity": 0.3228346456692913,
                    "duration": 0.03624999999999545
                },
                {
                    "name": "A#5",
                    "midi": 82,
                    "time": 121.8425000000002,
                    "velocity": 0.28346456692913385,
                    "duration": 0.03624999999999545
                },
                {
                    "name": "G6",
                    "midi": 91,
                    "time": 121.88500000000019,
                    "velocity": 0.28346456692913385,
                    "duration": 0.03624999999999545
                },
                {
                    "name": "F6",
                    "midi": 89,
                    "time": 121.92750000000018,
                    "velocity": 0.28346456692913385,
                    "duration": 0.03624999999999545
                },
                {
                    "name": "D#6",
                    "midi": 87,
                    "time": 121.97000000000017,
                    "velocity": 0.28346456692913385,
                    "duration": 0.03624999999999545
                },
                {
                    "name": "D6",
                    "midi": 86,
                    "time": 122.01250000000016,
                    "velocity": 0.28346456692913385,
                    "duration": 0.03624999999999545
                },
                {
                    "name": "C6",
                    "midi": 84,
                    "time": 122.05500000000015,
                    "velocity": 0.28346456692913385,
                    "duration": 0.03624999999999545
                },
                {
                    "name": "A#5",
                    "midi": 82,
                    "time": 122.09750000000014,
                    "velocity": 0.28346456692913385,
                    "duration": 0.03624999999999545
                },
                {
                    "name": "G#5",
                    "midi": 80,
                    "time": 122.14000000000013,
                    "velocity": 0.28346456692913385,
                    "duration": 0.03624999999999545
                },
                {
                    "name": "G5",
                    "midi": 79,
                    "time": 122.18250000000012,
                    "velocity": 0.25984251968503935,
                    "duration": 0.03624999999999545
                },
                {
                    "name": "G3",
                    "midi": 55,
                    "time": 122.70000000000012,
                    "velocity": 0.2047244094488189,
                    "duration": 0.11249999999999716
                },
                {
                    "name": "A#3",
                    "midi": 58,
                    "time": 122.70000000000012,
                    "velocity": 0.2047244094488189,
                    "duration": 0.11249999999999716
                },
                {
                    "name": "D#4",
                    "midi": 63,
                    "time": 122.70000000000012,
                    "velocity": 0.2283464566929134,
                    "duration": 0.11249999999999716
                },
                {
                    "name": "G#3",
                    "midi": 56,
                    "time": 123.00000000000011,
                    "velocity": 0.2204724409448819,
                    "duration": 0.11249999999999716
                },
                {
                    "name": "D4",
                    "midi": 62,
                    "time": 123.00000000000011,
                    "velocity": 0.2204724409448819,
                    "duration": 0.11249999999999716
                },
                {
                    "name": "F4",
                    "midi": 65,
                    "time": 123.00000000000011,
                    "velocity": 0.25196850393700787,
                    "duration": 0.11249999999999716
                },
                {
                    "name": "A#3",
                    "midi": 58,
                    "time": 123.30000000000011,
                    "velocity": 0.2125984251968504,
                    "duration": 0.11249999999999716
                },
                {
                    "name": "G4",
                    "midi": 67,
                    "time": 123.30000000000011,
                    "velocity": 0.23622047244094488,
                    "duration": 0.11249999999999716
                },
                {
                    "name": "G3",
                    "midi": 55,
                    "time": 123.60000000000011,
                    "velocity": 0.2125984251968504,
                    "duration": 0.5750000000000028
                },
                {
                    "name": "D#4",
                    "midi": 63,
                    "time": 123.60000000000011,
                    "velocity": 0.23622047244094488,
                    "duration": 0.5750000000000028
                },
                {
                    "name": "A6",
                    "midi": 93,
                    "time": 124.20000000000012,
                    "velocity": 0.3228346456692913,
                    "duration": 0.037499999999994316
                },
                {
                    "name": "A#6",
                    "midi": 94,
                    "time": 124.24000000000011,
                    "velocity": 0.28346456692913385,
                    "duration": 0.037499999999994316
                },
                {
                    "name": "D#7",
                    "midi": 99,
                    "time": 124.2800000000001,
                    "velocity": 0.2992125984251969,
                    "duration": 0.030000000000001137
                },
                {
                    "name": "C7",
                    "midi": 96,
                    "time": 124.3125000000001,
                    "velocity": 0.28346456692913385,
                    "duration": 0.030000000000001137
                },
                {
                    "name": "A#6",
                    "midi": 94,
                    "time": 124.3450000000001,
                    "velocity": 0.28346456692913385,
                    "duration": 0.030000000000001137
                },
                {
                    "name": "G#6",
                    "midi": 92,
                    "time": 124.3775000000001,
                    "velocity": 0.28346456692913385,
                    "duration": 0.030000000000001137
                },
                {
                    "name": "G6",
                    "midi": 91,
                    "time": 124.4100000000001,
                    "velocity": 0.25984251968503935,
                    "duration": 0.030000000000001137
                },
                {
                    "name": "G3",
                    "midi": 55,
                    "time": 125.1000000000001,
                    "velocity": 0.2283464566929134,
                    "duration": 0.11249999999999716
                },
                {
                    "name": "A#3",
                    "midi": 58,
                    "time": 125.1000000000001,
                    "velocity": 0.2283464566929134,
                    "duration": 0.11249999999999716
                },
                {
                    "name": "D#4",
                    "midi": 63,
                    "time": 125.1000000000001,
                    "velocity": 0.25984251968503935,
                    "duration": 0.11249999999999716
                },
                {
                    "name": "G#3",
                    "midi": 56,
                    "time": 125.40000000000009,
                    "velocity": 0.2440944881889764,
                    "duration": 0.11249999999999716
                },
                {
                    "name": "A#3",
                    "midi": 58,
                    "time": 125.40000000000009,
                    "velocity": 0.2440944881889764,
                    "duration": 0.11249999999999716
                },
                {
                    "name": "F4",
                    "midi": 65,
                    "time": 125.40000000000009,
                    "velocity": 0.28346456692913385,
                    "duration": 0.11249999999999716
                },
                {
                    "name": "A3",
                    "midi": 57,
                    "time": 125.70000000000009,
                    "velocity": 0.23622047244094488,
                    "duration": 0.11249999999999716
                },
                {
                    "name": "A#3",
                    "midi": 58,
                    "time": 125.70000000000009,
                    "velocity": 0.23622047244094488,
                    "duration": 0.11249999999999716
                },
                {
                    "name": "F#4",
                    "midi": 66,
                    "time": 125.70000000000009,
                    "velocity": 0.2755905511811024,
                    "duration": 0.11249999999999716
                },
                {
                    "name": "A#3",
                    "midi": 58,
                    "time": 126.00000000000009,
                    "velocity": 0.25196850393700787,
                    "duration": 0.29999999999999716
                },
                {
                    "name": "G4",
                    "midi": 67,
                    "time": 126.00000000000009,
                    "velocity": 0.28346456692913385,
                    "duration": 0.29999999999999716
                },
                {
                    "name": "G3",
                    "midi": 55,
                    "time": 126.30000000000008,
                    "velocity": 0.2283464566929134,
                    "duration": 0.15000000000000568
                },
                {
                    "name": "D#4",
                    "midi": 63,
                    "time": 126.30000000000008,
                    "velocity": 0.25984251968503935,
                    "duration": 0.15000000000000568
                },
                {
                    "name": "A6",
                    "midi": 93,
                    "time": 126.6000000000001,
                    "velocity": 0.3228346456692913,
                    "duration": 0.03624999999999545
                },
                {
                    "name": "A#6",
                    "midi": 94,
                    "time": 126.63875000000009,
                    "velocity": 0.28346456692913385,
                    "duration": 0.03624999999999545
                },
                {
                    "name": "G7",
                    "midi": 103,
                    "time": 126.67750000000008,
                    "velocity": 0.28346456692913385,
                    "duration": 0.025000000000005684
                },
                {
                    "name": "F7",
                    "midi": 101,
                    "time": 126.70500000000008,
                    "velocity": 0.28346456692913385,
                    "duration": 0.025000000000005684
                },
                {
                    "name": "D#7",
                    "midi": 99,
                    "time": 126.73250000000009,
                    "velocity": 0.28346456692913385,
                    "duration": 0.025000000000005684
                },
                {
                    "name": "D7",
                    "midi": 98,
                    "time": 126.76000000000009,
                    "velocity": 0.28346456692913385,
                    "duration": 0.025000000000005684
                },
                {
                    "name": "C7",
                    "midi": 96,
                    "time": 126.7875000000001,
                    "velocity": 0.28346456692913385,
                    "duration": 0.025000000000005684
                },
                {
                    "name": "A#6",
                    "midi": 94,
                    "time": 126.8150000000001,
                    "velocity": 0.28346456692913385,
                    "duration": 0.025000000000005684
                },
                {
                    "name": "G#6",
                    "midi": 92,
                    "time": 126.8425000000001,
                    "velocity": 0.28346456692913385,
                    "duration": 0.025000000000005684
                },
                {
                    "name": "G6",
                    "midi": 91,
                    "time": 126.8700000000001,
                    "velocity": 0.25984251968503935,
                    "duration": 0.025000000000005684
                },
                {
                    "name": "G3",
                    "midi": 55,
                    "time": 127.50000000000011,
                    "velocity": 0.25196850393700787,
                    "duration": 0.11249999999999716
                },
                {
                    "name": "A#3",
                    "midi": 58,
                    "time": 127.50000000000011,
                    "velocity": 0.25196850393700787,
                    "duration": 0.11249999999999716
                },
                {
                    "name": "D#4",
                    "midi": 63,
                    "time": 127.50000000000011,
                    "velocity": 0.28346456692913385,
                    "duration": 0.11249999999999716
                },
                {
                    "name": "G#3",
                    "midi": 56,
                    "time": 127.80000000000011,
                    "velocity": 0.25984251968503935,
                    "duration": 0.11249999999999716
                },
                {
                    "name": "D4",
                    "midi": 62,
                    "time": 127.80000000000011,
                    "velocity": 0.25984251968503935,
                    "duration": 0.11249999999999716
                },
                {
                    "name": "F4",
                    "midi": 65,
                    "time": 127.80000000000011,
                    "velocity": 0.29133858267716534,
                    "duration": 0.11249999999999716
                },
                {
                    "name": "D4",
                    "midi": 62,
                    "time": 128.1000000000001,
                    "velocity": 0.25196850393700787,
                    "duration": 0.11250000000001137
                },
                {
                    "name": "G#3",
                    "midi": 56,
                    "time": 128.1000000000001,
                    "velocity": 0.25196850393700787,
                    "duration": 0.11250000000001137
                },
                {
                    "name": "G4",
                    "midi": 67,
                    "time": 128.1000000000001,
                    "velocity": 0.28346456692913385,
                    "duration": 0.11250000000001137
                },
                {
                    "name": "G3",
                    "midi": 55,
                    "time": 128.40000000000012,
                    "velocity": 0.23622047244094488,
                    "duration": 0.5749999999999886
                },
                {
                    "name": "D#4",
                    "midi": 63,
                    "time": 128.40000000000012,
                    "velocity": 0.2755905511811024,
                    "duration": 0.5749999999999886
                },
                {
                    "name": "D4",
                    "midi": 62,
                    "time": 129.90000000000012,
                    "velocity": 0.3937007874015748,
                    "duration": 0.11250000000001137
                },
                {
                    "name": "A#3",
                    "midi": 58,
                    "time": 129.90000000000012,
                    "velocity": 0.3543307086614173,
                    "duration": 0.11250000000001137
                },
                {
                    "name": "A#3",
                    "midi": 58,
                    "time": 130.20000000000013,
                    "velocity": 0.3937007874015748,
                    "duration": 0.11250000000001137
                },
                {
                    "name": "C4",
                    "midi": 60,
                    "time": 130.20000000000013,
                    "velocity": 0.3937007874015748,
                    "duration": 0.11250000000001137
                },
                {
                    "name": "D#4",
                    "midi": 63,
                    "time": 130.20000000000013,
                    "velocity": 0.4409448818897638,
                    "duration": 0.11250000000001137
                },
                {
                    "name": "A#3",
                    "midi": 58,
                    "time": 130.50000000000014,
                    "velocity": 0.3543307086614173,
                    "duration": 0.11250000000001137
                },
                {
                    "name": "C#4",
                    "midi": 61,
                    "time": 130.50000000000014,
                    "velocity": 0.3543307086614173,
                    "duration": 0.11250000000001137
                },
                {
                    "name": "E4",
                    "midi": 64,
                    "time": 130.50000000000014,
                    "velocity": 0.4015748031496063,
                    "duration": 0.11250000000001137
                },
                {
                    "name": "D4",
                    "midi": 62,
                    "time": 130.80000000000015,
                    "velocity": 0.3543307086614173,
                    "duration": 0.30000000000001137
                },
                {
                    "name": "F4",
                    "midi": 65,
                    "time": 130.80000000000015,
                    "velocity": 0.4094488188976378,
                    "duration": 0.30000000000001137
                },
                {
                    "name": "A#3",
                    "midi": 58,
                    "time": 131.10000000000016,
                    "velocity": 0.3464566929133858,
                    "duration": 0.15000000000000568
                },
                {
                    "name": "D4",
                    "midi": 62,
                    "time": 131.10000000000016,
                    "velocity": 0.3858267716535433,
                    "duration": 0.15000000000000568
                },
                {
                    "name": "D4",
                    "midi": 62,
                    "time": 132.30000000000018,
                    "velocity": 0.3858267716535433,
                    "duration": 0.11250000000001137
                },
                {
                    "name": "A#3",
                    "midi": 58,
                    "time": 132.30000000000018,
                    "velocity": 0.3464566929133858,
                    "duration": 0.11250000000001137
                },
                {
                    "name": "A3",
                    "midi": 57,
                    "time": 132.6000000000002,
                    "velocity": 0.36220472440944884,
                    "duration": 0.11250000000001137
                },
                {
                    "name": "D#4",
                    "midi": 63,
                    "time": 132.6000000000002,
                    "velocity": 0.41732283464566927,
                    "duration": 0.11250000000001137
                },
                {
                    "name": "A3",
                    "midi": 57,
                    "time": 132.9000000000002,
                    "velocity": 0.3543307086614173,
                    "duration": 0.11250000000001137
                },
                {
                    "name": "F4",
                    "midi": 65,
                    "time": 132.9000000000002,
                    "velocity": 0.3937007874015748,
                    "duration": 0.11250000000001137
                },
                {
                    "name": "D4",
                    "midi": 62,
                    "time": 133.20000000000022,
                    "velocity": 0.4015748031496063,
                    "duration": 0.5749999999999886
                },
                {
                    "name": "A#3",
                    "midi": 58,
                    "time": 133.20000000000022,
                    "velocity": 0.3543307086614173,
                    "duration": 0.5749999999999886
                },
                {
                    "name": "A#4",
                    "midi": 70,
                    "time": 133.8000000000002,
                    "velocity": 0.4566929133858268,
                    "duration": 0.048750000000012506
                },
                {
                    "name": "A4",
                    "midi": 69,
                    "time": 133.85000000000022,
                    "velocity": 0.4566929133858268,
                    "duration": 0.048750000000012506
                },
                {
                    "name": "G#4",
                    "midi": 68,
                    "time": 133.90000000000023,
                    "velocity": 0.4566929133858268,
                    "duration": 0.048750000000012506
                },
                {
                    "name": "G4",
                    "midi": 67,
                    "time": 133.95000000000024,
                    "velocity": 0.4566929133858268,
                    "duration": 0.048750000000012506
                },
                {
                    "name": "D4",
                    "midi": 62,
                    "time": 134.20000000000024,
                    "velocity": 0.5118110236220472,
                    "duration": 0.048750000000012506
                },
                {
                    "name": "C#4",
                    "midi": 61,
                    "time": 134.25000000000026,
                    "velocity": 0.5433070866141733,
                    "duration": 0.048750000000012506
                },
                {
                    "name": "C4",
                    "midi": 60,
                    "time": 134.30000000000027,
                    "velocity": 0.5669291338582677,
                    "duration": 0.048750000000012506
                },
                {
                    "name": "B3",
                    "midi": 59,
                    "time": 134.35000000000028,
                    "velocity": 0.5748031496062992,
                    "duration": 0.048750000000012506
                },
                {
                    "name": "A#3",
                    "midi": 58,
                    "time": 134.4000000000003,
                    "velocity": 0.6850393700787402,
                    "duration": 0.07499999999998863
                },
                {
                    "name": "D5",
                    "midi": 74,
                    "time": 134.70000000000027,
                    "velocity": 0.41732283464566927,
                    "duration": 0.11250000000001137
                },
                {
                    "name": "D4",
                    "midi": 62,
                    "time": 134.70000000000027,
                    "velocity": 0.33070866141732286,
                    "duration": 0.11250000000001137
                },
                {
                    "name": "A#4",
                    "midi": 70,
                    "time": 134.70000000000027,
                    "velocity": 0.33070866141732286,
                    "duration": 0.11250000000001137
                },
                {
                    "name": "A#4",
                    "midi": 70,
                    "time": 135.00000000000028,
                    "velocity": 0.3543307086614173,
                    "duration": 0.11250000000001137
                },
                {
                    "name": "D#5",
                    "midi": 75,
                    "time": 135.00000000000028,
                    "velocity": 0.44881889763779526,
                    "duration": 0.11250000000001137
                },
                {
                    "name": "D#4",
                    "midi": 63,
                    "time": 135.00000000000028,
                    "velocity": 0.3543307086614173,
                    "duration": 0.11250000000001137
                },
                {
                    "name": "E4",
                    "midi": 64,
                    "time": 135.3000000000003,
                    "velocity": 0.33858267716535434,
                    "duration": 0.11250000000001137
                },
                {
                    "name": "A#4",
                    "midi": 70,
                    "time": 135.3000000000003,
                    "velocity": 0.33858267716535434,
                    "duration": 0.11250000000001137
                },
                {
                    "name": "E5",
                    "midi": 76,
                    "time": 135.3000000000003,
                    "velocity": 0.4251968503937008,
                    "duration": 0.11250000000001137
                },
                {
                    "name": "F4",
                    "midi": 65,
                    "time": 135.6000000000003,
                    "velocity": 0.3228346456692913,
                    "duration": 0.575000000000017
                },
                {
                    "name": "A#4",
                    "midi": 70,
                    "time": 135.6000000000003,
                    "velocity": 0.3228346456692913,
                    "duration": 0.575000000000017
                },
                {
                    "name": "F5",
                    "midi": 77,
                    "time": 135.6000000000003,
                    "velocity": 0.4330708661417323,
                    "duration": 0.30000000000001137
                },
                {
                    "name": "D5",
                    "midi": 74,
                    "time": 135.90000000000032,
                    "velocity": 0.4094488188976378,
                    "duration": 0.15000000000000568
                },
                {
                    "name": "C4",
                    "midi": 60,
                    "time": 136.57000000000033,
                    "velocity": 0.44881889763779526,
                    "duration": 0.044999999999987494
                },
                {
                    "name": "D4",
                    "midi": 62,
                    "time": 136.61625000000032,
                    "velocity": 0.4566929133858268,
                    "duration": 0.044999999999987494
                },
                {
                    "name": "D#4",
                    "midi": 63,
                    "time": 136.6625000000003,
                    "velocity": 0.47244094488188976,
                    "duration": 0.044999999999987494
                },
                {
                    "name": "E4",
                    "midi": 64,
                    "time": 136.7087500000003,
                    "velocity": 0.4881889763779528,
                    "duration": 0.044999999999987494
                },
                {
                    "name": "G4",
                    "midi": 67,
                    "time": 136.75500000000028,
                    "velocity": 0.49606299212598426,
                    "duration": 0.04374999999998863
                },
                {
                    "name": "F4",
                    "midi": 65,
                    "time": 136.80000000000027,
                    "velocity": 0.4330708661417323,
                    "duration": 0.700000000000017
                },
                {
                    "name": "D5",
                    "midi": 74,
                    "time": 137.10000000000028,
                    "velocity": 0.33070866141732286,
                    "duration": 0.30000000000001137
                },
                {
                    "name": "G#4",
                    "midi": 68,
                    "time": 137.10000000000028,
                    "velocity": 0.28346456692913385,
                    "duration": 0.30000000000001137
                },
                {
                    "name": "A4",
                    "midi": 69,
                    "time": 137.4000000000003,
                    "velocity": 0.3228346456692913,
                    "duration": 0.29999999999998295
                },
                {
                    "name": "D#5",
                    "midi": 75,
                    "time": 137.4000000000003,
                    "velocity": 0.3543307086614173,
                    "duration": 0.29999999999998295
                },
                {
                    "name": "F4",
                    "midi": 65,
                    "time": 137.50000000000028,
                    "velocity": 0.33858267716535434,
                    "duration": 0.09999999999999432
                },
                {
                    "name": "G4",
                    "midi": 67,
                    "time": 137.60000000000028,
                    "velocity": 0.25984251968503935,
                    "duration": 0.09999999999999432
                },
                {
                    "name": "D#4",
                    "midi": 63,
                    "time": 137.70000000000027,
                    "velocity": 0.33858267716535434,
                    "duration": 0.09999999999999432
                },
                {
                    "name": "F5",
                    "midi": 77,
                    "time": 137.70000000000027,
                    "velocity": 0.3228346456692913,
                    "duration": 0.2999999999999545
                },
                {
                    "name": "C5",
                    "midi": 72,
                    "time": 137.70000000000027,
                    "velocity": 0.3228346456692913,
                    "duration": 0.2999999999999545
                },
                {
                    "name": "C4",
                    "midi": 60,
                    "time": 137.80000000000027,
                    "velocity": 0.30708661417322836,
                    "duration": 0.09999999999999432
                },
                {
                    "name": "D4",
                    "midi": 62,
                    "time": 137.90000000000026,
                    "velocity": 0.2992125984251969,
                    "duration": 0.025000000000005684
                },
                {
                    "name": "A#3",
                    "midi": 58,
                    "time": 137.96250000000026,
                    "velocity": 0.25196850393700787,
                    "duration": 0.6124999999999545
                },
                {
                    "name": "F4",
                    "midi": 65,
                    "time": 137.97500000000025,
                    "velocity": 0.25196850393700787,
                    "duration": 0.5999999999999659
                },
                {
                    "name": "A#4",
                    "midi": 70,
                    "time": 137.98750000000024,
                    "velocity": 0.25196850393700787,
                    "duration": 0.5874999999999773
                },
                {
                    "name": "D5",
                    "midi": 74,
                    "time": 138.00000000000023,
                    "velocity": 0.2992125984251969,
                    "duration": 0.5749999999999886
                },
                {
                    "name": "F5",
                    "midi": 77,
                    "time": 138.60000000000022,
                    "velocity": 0.36220472440944884,
                    "duration": 0.11250000000001137
                },
                {
                    "name": "C#5",
                    "midi": 73,
                    "time": 138.60000000000022,
                    "velocity": 0.36220472440944884,
                    "duration": 0.11250000000001137
                },
                {
                    "name": "A#5",
                    "midi": 82,
                    "time": 138.60000000000022,
                    "velocity": 0.36220472440944884,
                    "duration": 0.11250000000001137
                },
                {
                    "name": "A5",
                    "midi": 81,
                    "time": 138.71250000000023,
                    "velocity": 0.2992125984251969,
                    "duration": 0.037499999999994316
                },
                {
                    "name": "G#5",
                    "midi": 80,
                    "time": 138.75000000000023,
                    "velocity": 0.2992125984251969,
                    "duration": 0.056250000000005684
                },
                {
                    "name": "C5",
                    "midi": 72,
                    "time": 138.75000000000023,
                    "velocity": 0.2992125984251969,
                    "duration": 0.056250000000005684
                },
                {
                    "name": "G5",
                    "midi": 79,
                    "time": 138.80625000000023,
                    "velocity": 0.30708661417322836,
                    "duration": 0.056250000000005684
                },
                {
                    "name": "D5",
                    "midi": 74,
                    "time": 138.80625000000023,
                    "velocity": 0.30708661417322836,
                    "duration": 0.056250000000005684
                },
                {
                    "name": "B4",
                    "midi": 71,
                    "time": 138.80625000000023,
                    "velocity": 0.30708661417322836,
                    "duration": 0.056250000000005684
                },
                {
                    "name": "F#5",
                    "midi": 78,
                    "time": 138.86250000000024,
                    "velocity": 0.3228346456692913,
                    "duration": 0.056250000000005684
                },
                {
                    "name": "A#4",
                    "midi": 70,
                    "time": 138.86250000000024,
                    "velocity": 0.3228346456692913,
                    "duration": 0.056250000000005684
                },
                {
                    "name": "F5",
                    "midi": 77,
                    "time": 138.91875000000024,
                    "velocity": 0.33070866141732286,
                    "duration": 0.056250000000005684
                },
                {
                    "name": "C5",
                    "midi": 72,
                    "time": 138.91875000000024,
                    "velocity": 0.33070866141732286,
                    "duration": 0.056250000000005684
                },
                {
                    "name": "A4",
                    "midi": 69,
                    "time": 138.91875000000024,
                    "velocity": 0.33070866141732286,
                    "duration": 0.056250000000005684
                },
                {
                    "name": "E5",
                    "midi": 76,
                    "time": 138.97500000000025,
                    "velocity": 0.33858267716535434,
                    "duration": 0.056250000000005684
                },
                {
                    "name": "G#4",
                    "midi": 68,
                    "time": 138.97500000000025,
                    "velocity": 0.33858267716535434,
                    "duration": 0.056250000000005684
                },
                {
                    "name": "D#5",
                    "midi": 75,
                    "time": 139.03125000000026,
                    "velocity": 0.3464566929133858,
                    "duration": 0.056250000000005684
                },
                {
                    "name": "A#4",
                    "midi": 70,
                    "time": 139.03125000000026,
                    "velocity": 0.3464566929133858,
                    "duration": 0.056250000000005684
                },
                {
                    "name": "G4",
                    "midi": 67,
                    "time": 139.03125000000026,
                    "velocity": 0.3464566929133858,
                    "duration": 0.056250000000005684
                },
                {
                    "name": "D5",
                    "midi": 74,
                    "time": 139.08750000000026,
                    "velocity": 0.3543307086614173,
                    "duration": 0.056250000000005684
                },
                {
                    "name": "F#4",
                    "midi": 66,
                    "time": 139.08750000000026,
                    "velocity": 0.3543307086614173,
                    "duration": 0.056250000000005684
                },
                {
                    "name": "C#5",
                    "midi": 73,
                    "time": 139.14375000000027,
                    "velocity": 0.36220472440944884,
                    "duration": 0.056250000000005684
                },
                {
                    "name": "G#4",
                    "midi": 68,
                    "time": 139.14375000000027,
                    "velocity": 0.36220472440944884,
                    "duration": 0.056250000000005684
                },
                {
                    "name": "F4",
                    "midi": 65,
                    "time": 139.14375000000027,
                    "velocity": 0.36220472440944884,
                    "duration": 0.056250000000005684
                },
                {
                    "name": "E4",
                    "midi": 64,
                    "time": 139.20000000000027,
                    "velocity": 0.3779527559055118,
                    "duration": 0.07499999999998863
                },
                {
                    "name": "G4",
                    "midi": 67,
                    "time": 139.20000000000027,
                    "velocity": 0.3779527559055118,
                    "duration": 0.07499999999998863
                },
                {
                    "name": "C5",
                    "midi": 72,
                    "time": 139.20000000000027,
                    "velocity": 0.3779527559055118,
                    "duration": 0.07499999999998863
                },
                {
                    "name": "G3",
                    "midi": 55,
                    "time": 139.50000000000026,
                    "velocity": 0.29133858267716534,
                    "duration": 0.11250000000001137
                },
                {
                    "name": "E4",
                    "midi": 64,
                    "time": 139.50000000000026,
                    "velocity": 0.33858267716535434,
                    "duration": 0.11250000000001137
                },
                {
                    "name": "A#3",
                    "midi": 58,
                    "time": 139.50000000000026,
                    "velocity": 0.29133858267716534,
                    "duration": 0.11250000000001137
                },
                {
                    "name": "C#4",
                    "midi": 61,
                    "time": 139.80000000000027,
                    "velocity": 0.3228346456692913,
                    "duration": 0.11250000000001137
                },
                {
                    "name": "F4",
                    "midi": 65,
                    "time": 139.80000000000027,
                    "velocity": 0.3543307086614173,
                    "duration": 0.11250000000001137
                },
                {
                    "name": "G#3",
                    "midi": 56,
                    "time": 139.80000000000027,
                    "velocity": 0.3228346456692913,
                    "duration": 0.11250000000001137
                },
                {
                    "name": "B3",
                    "midi": 59,
                    "time": 140.10000000000028,
                    "velocity": 0.29133858267716534,
                    "duration": 0.11250000000001137
                },
                {
                    "name": "D4",
                    "midi": 62,
                    "time": 140.10000000000028,
                    "velocity": 0.29133858267716534,
                    "duration": 0.11250000000001137
                },
                {
                    "name": "G#4",
                    "midi": 68,
                    "time": 140.10000000000028,
                    "velocity": 0.33858267716535434,
                    "duration": 0.11250000000001137
                },
                {
                    "name": "G4",
                    "midi": 67,
                    "time": 140.4000000000003,
                    "velocity": 0.33858267716535434,
                    "duration": 0.30000000000001137
                },
                {
                    "name": "E4",
                    "midi": 64,
                    "time": 140.4000000000003,
                    "velocity": 0.29133858267716534,
                    "duration": 0.30000000000001137
                },
                {
                    "name": "G3",
                    "midi": 55,
                    "time": 140.7000000000003,
                    "velocity": 0.25196850393700787,
                    "duration": 0.11250000000001137
                },
                {
                    "name": "C4",
                    "midi": 60,
                    "time": 140.7000000000003,
                    "velocity": 0.28346456692913385,
                    "duration": 0.11250000000001137
                },
                {
                    "name": "F6",
                    "midi": 89,
                    "time": 141.0000000000003,
                    "velocity": 0.3937007874015748,
                    "duration": 0.11250000000001137
                },
                {
                    "name": "C#6",
                    "midi": 85,
                    "time": 141.0000000000003,
                    "velocity": 0.3937007874015748,
                    "duration": 0.11250000000001137
                },
                {
                    "name": "A#6",
                    "midi": 94,
                    "time": 141.0000000000003,
                    "velocity": 0.3937007874015748,
                    "duration": 0.11250000000001137
                },
                {
                    "name": "A6",
                    "midi": 93,
                    "time": 141.11250000000032,
                    "velocity": 0.3228346456692913,
                    "duration": 0.037499999999994316
                },
                {
                    "name": "G#6",
                    "midi": 92,
                    "time": 141.15000000000032,
                    "velocity": 0.33070866141732286,
                    "duration": 0.056250000000005684
                },
                {
                    "name": "C6",
                    "midi": 84,
                    "time": 141.15000000000032,
                    "velocity": 0.33070866141732286,
                    "duration": 0.056250000000005684
                },
                {
                    "name": "G6",
                    "midi": 91,
                    "time": 141.20625000000032,
                    "velocity": 0.33858267716535434,
                    "duration": 0.056250000000005684
                },
                {
                    "name": "D6",
                    "midi": 86,
                    "time": 141.20625000000032,
                    "velocity": 0.33858267716535434,
                    "duration": 0.056250000000005684
                },
                {
                    "name": "B5",
                    "midi": 83,
                    "time": 141.20625000000032,
                    "velocity": 0.33858267716535434,
                    "duration": 0.056250000000005684
                },
                {
                    "name": "F#6",
                    "midi": 90,
                    "time": 141.26250000000033,
                    "velocity": 0.3464566929133858,
                    "duration": 0.056250000000005684
                },
                {
                    "name": "A#5",
                    "midi": 82,
                    "time": 141.26250000000033,
                    "velocity": 0.3464566929133858,
                    "duration": 0.056250000000005684
                },
                {
                    "name": "F6",
                    "midi": 89,
                    "time": 141.31875000000034,
                    "velocity": 0.3543307086614173,
                    "duration": 0.056250000000005684
                },
                {
                    "name": "C6",
                    "midi": 84,
                    "time": 141.31875000000034,
                    "velocity": 0.3543307086614173,
                    "duration": 0.056250000000005684
                },
                {
                    "name": "A5",
                    "midi": 81,
                    "time": 141.31875000000034,
                    "velocity": 0.3543307086614173,
                    "duration": 0.056250000000005684
                },
                {
                    "name": "E6",
                    "midi": 88,
                    "time": 141.37500000000034,
                    "velocity": 0.3543307086614173,
                    "duration": 0.056250000000005684
                },
                {
                    "name": "G#5",
                    "midi": 80,
                    "time": 141.37500000000034,
                    "velocity": 0.3543307086614173,
                    "duration": 0.056250000000005684
                },
                {
                    "name": "D#6",
                    "midi": 87,
                    "time": 141.43125000000035,
                    "velocity": 0.36220472440944884,
                    "duration": 0.056250000000005684
                },
                {
                    "name": "A#5",
                    "midi": 82,
                    "time": 141.43125000000035,
                    "velocity": 0.36220472440944884,
                    "duration": 0.056250000000005684
                },
                {
                    "name": "G5",
                    "midi": 79,
                    "time": 141.43125000000035,
                    "velocity": 0.36220472440944884,
                    "duration": 0.056250000000005684
                },
                {
                    "name": "D6",
                    "midi": 86,
                    "time": 141.48750000000035,
                    "velocity": 0.3858267716535433,
                    "duration": 0.056250000000005684
                },
                {
                    "name": "F#5",
                    "midi": 78,
                    "time": 141.48750000000035,
                    "velocity": 0.3858267716535433,
                    "duration": 0.056250000000005684
                },
                {
                    "name": "C#6",
                    "midi": 85,
                    "time": 141.54375000000036,
                    "velocity": 0.3937007874015748,
                    "duration": 0.056250000000005684
                },
                {
                    "name": "G#5",
                    "midi": 80,
                    "time": 141.54375000000036,
                    "velocity": 0.3937007874015748,
                    "duration": 0.056250000000005684
                },
                {
                    "name": "F5",
                    "midi": 77,
                    "time": 141.54375000000036,
                    "velocity": 0.3937007874015748,
                    "duration": 0.056250000000005684
                },
                {
                    "name": "E5",
                    "midi": 76,
                    "time": 141.60000000000036,
                    "velocity": 0.4015748031496063,
                    "duration": 0.07499999999998863
                },
                {
                    "name": "G5",
                    "midi": 79,
                    "time": 141.60000000000036,
                    "velocity": 0.4015748031496063,
                    "duration": 0.07499999999998863
                },
                {
                    "name": "C6",
                    "midi": 84,
                    "time": 141.60000000000036,
                    "velocity": 0.4015748031496063,
                    "duration": 0.07499999999998863
                },
                {
                    "name": "E4",
                    "midi": 64,
                    "time": 141.90000000000035,
                    "velocity": 0.29133858267716534,
                    "duration": 0.11250000000001137
                },
                {
                    "name": "G4",
                    "midi": 67,
                    "time": 141.90000000000035,
                    "velocity": 0.29133858267716534,
                    "duration": 0.11250000000001137
                },
                {
                    "name": "E5",
                    "midi": 76,
                    "time": 141.90000000000035,
                    "velocity": 0.33858267716535434,
                    "duration": 0.11250000000001137
                },
                {
                    "name": "A#4",
                    "midi": 70,
                    "time": 141.90000000000035,
                    "velocity": 0.29133858267716534,
                    "duration": 0.11250000000001137
                },
                {
                    "name": "F4",
                    "midi": 65,
                    "time": 142.20000000000036,
                    "velocity": 0.33070866141732286,
                    "duration": 0.11250000000001137
                },
                {
                    "name": "C#5",
                    "midi": 73,
                    "time": 142.20000000000036,
                    "velocity": 0.33070866141732286,
                    "duration": 0.11250000000001137
                },
                {
                    "name": "F5",
                    "midi": 77,
                    "time": 142.20000000000036,
                    "velocity": 0.36220472440944884,
                    "duration": 0.11250000000001137
                },
                {
                    "name": "G#4",
                    "midi": 68,
                    "time": 142.20000000000036,
                    "velocity": 0.33070866141732286,
                    "duration": 0.11250000000001137
                },
                {
                    "name": "G#4",
                    "midi": 68,
                    "time": 142.50000000000037,
                    "velocity": 0.29133858267716534,
                    "duration": 0.11250000000001137
                },
                {
                    "name": "B4",
                    "midi": 71,
                    "time": 142.50000000000037,
                    "velocity": 0.29133858267716534,
                    "duration": 0.11250000000001137
                },
                {
                    "name": "D5",
                    "midi": 74,
                    "time": 142.50000000000037,
                    "velocity": 0.29133858267716534,
                    "duration": 0.11250000000001137
                },
                {
                    "name": "G#5",
                    "midi": 80,
                    "time": 142.50000000000037,
                    "velocity": 0.33858267716535434,
                    "duration": 0.11250000000001137
                },
                {
                    "name": "G4",
                    "midi": 67,
                    "time": 142.80000000000038,
                    "velocity": 0.29133858267716534,
                    "duration": 0.30000000000001137
                },
                {
                    "name": "G5",
                    "midi": 79,
                    "time": 142.80000000000038,
                    "velocity": 0.33858267716535434,
                    "duration": 0.30000000000001137
                },
                {
                    "name": "E5",
                    "midi": 76,
                    "time": 142.80000000000038,
                    "velocity": 0.29133858267716534,
                    "duration": 0.30000000000001137
                },
                {
                    "name": "C5",
                    "midi": 72,
                    "time": 143.1000000000004,
                    "velocity": 0.28346456692913385,
                    "duration": 0.11250000000001137
                },
                {
                    "name": "G#4",
                    "midi": 68,
                    "time": 143.4000000000004,
                    "velocity": 0.3937007874015748,
                    "duration": 0.6000000000000227
                },
                {
                    "name": "F4",
                    "midi": 65,
                    "time": 143.4000000000004,
                    "velocity": 0.3937007874015748,
                    "duration": 0.060000000000002274
                },
                {
                    "name": "E4",
                    "midi": 64,
                    "time": 143.4600000000004,
                    "velocity": 0.3543307086614173,
                    "duration": 0.060000000000002274
                },
                {
                    "name": "D#4",
                    "midi": 63,
                    "time": 143.5200000000004,
                    "velocity": 0.3543307086614173,
                    "duration": 0.060000000000002274
                },
                {
                    "name": "D4",
                    "midi": 62,
                    "time": 143.5800000000004,
                    "velocity": 0.36220472440944884,
                    "duration": 0.060000000000002274
                },
                {
                    "name": "C#4",
                    "midi": 61,
                    "time": 143.6400000000004,
                    "velocity": 0.3858267716535433,
                    "duration": 0.060000000000002274
                },
                {
                    "name": "C4",
                    "midi": 60,
                    "time": 143.70000000000041,
                    "velocity": 0.3937007874015748,
                    "duration": 0.060000000000002274
                },
                {
                    "name": "B3",
                    "midi": 59,
                    "time": 143.76000000000042,
                    "velocity": 0.4015748031496063,
                    "duration": 0.060000000000002274
                },
                {
                    "name": "A#3",
                    "midi": 58,
                    "time": 143.82000000000042,
                    "velocity": 0.41732283464566927,
                    "duration": 0.060000000000002274
                },
                {
                    "name": "A3",
                    "midi": 57,
                    "time": 143.88000000000042,
                    "velocity": 0.4251968503937008,
                    "duration": 0.060000000000002274
                },
                {
                    "name": "G#3",
                    "midi": 56,
                    "time": 143.94000000000042,
                    "velocity": 0.4330708661417323,
                    "duration": 0.060000000000002274
                },
                {
                    "name": "D4",
                    "midi": 62,
                    "time": 144.00000000000043,
                    "velocity": 0.44881889763779526,
                    "duration": 0.07499999999998863
                },
                {
                    "name": "F4",
                    "midi": 65,
                    "time": 144.00000000000043,
                    "velocity": 0.44881889763779526,
                    "duration": 0.07499999999998863
                },
                {
                    "name": "F3",
                    "midi": 53,
                    "time": 144.3000000000004,
                    "velocity": 0.3228346456692913,
                    "duration": 0.11250000000001137
                },
                {
                    "name": "D4",
                    "midi": 62,
                    "time": 144.3000000000004,
                    "velocity": 0.3543307086614173,
                    "duration": 0.11250000000001137
                },
                {
                    "name": "G#3",
                    "midi": 56,
                    "time": 144.3000000000004,
                    "velocity": 0.3228346456692913,
                    "duration": 0.11250000000001137
                },
                {
                    "name": "B3",
                    "midi": 59,
                    "time": 144.60000000000042,
                    "velocity": 0.3543307086614173,
                    "duration": 0.11250000000001137
                },
                {
                    "name": "D#4",
                    "midi": 63,
                    "time": 144.60000000000042,
                    "velocity": 0.4015748031496063,
                    "duration": 0.11250000000001137
                },
                {
                    "name": "F#3",
                    "midi": 54,
                    "time": 144.60000000000042,
                    "velocity": 0.3543307086614173,
                    "duration": 0.11250000000001137
                },
                {
                    "name": "A3",
                    "midi": 57,
                    "time": 144.90000000000043,
                    "velocity": 0.33070866141732286,
                    "duration": 0.11250000000001137
                },
                {
                    "name": "C4",
                    "midi": 60,
                    "time": 144.90000000000043,
                    "velocity": 0.33070866141732286,
                    "duration": 0.11250000000001137
                },
                {
                    "name": "F#4",
                    "midi": 66,
                    "time": 144.90000000000043,
                    "velocity": 0.36220472440944884,
                    "duration": 0.11250000000001137
                },
                {
                    "name": "F4",
                    "midi": 65,
                    "time": 145.20000000000044,
                    "velocity": 0.4015748031496063,
                    "duration": 0.30000000000001137
                },
                {
                    "name": "D4",
                    "midi": 62,
                    "time": 145.20000000000044,
                    "velocity": 0.3543307086614173,
                    "duration": 0.30000000000001137
                },
                {
                    "name": "F3",
                    "midi": 53,
                    "time": 145.50000000000045,
                    "velocity": 0.2992125984251969,
                    "duration": 0.11250000000001137
                },
                {
                    "name": "A#3",
                    "midi": 58,
                    "time": 145.50000000000045,
                    "velocity": 0.3464566929133858,
                    "duration": 0.11250000000001137
                },
                {
                    "name": "G#4",
                    "midi": 68,
                    "time": 145.80000000000047,
                    "velocity": 0.3937007874015748,
                    "duration": 0.6000000000000227
                },
                {
                    "name": "E4",
                    "midi": 64,
                    "time": 145.80000000000047,
                    "velocity": 0.3937007874015748,
                    "duration": 0.060000000000002274
                },
                {
                    "name": "D#4",
                    "midi": 63,
                    "time": 145.86000000000047,
                    "velocity": 0.3543307086614173,
                    "duration": 0.060000000000002274
                },
                {
                    "name": "D4",
                    "midi": 62,
                    "time": 145.92000000000047,
                    "velocity": 0.3543307086614173,
                    "duration": 0.060000000000002274
                },
                {
                    "name": "C#4",
                    "midi": 61,
                    "time": 145.98000000000047,
                    "velocity": 0.36220472440944884,
                    "duration": 0.060000000000002274
                },
                {
                    "name": "C4",
                    "midi": 60,
                    "time": 146.04000000000048,
                    "velocity": 0.3858267716535433,
                    "duration": 0.060000000000002274
                },
                {
                    "name": "B3",
                    "midi": 59,
                    "time": 146.10000000000048,
                    "velocity": 0.3937007874015748,
                    "duration": 0.060000000000002274
                },
                {
                    "name": "A#3",
                    "midi": 58,
                    "time": 146.16000000000048,
                    "velocity": 0.4015748031496063,
                    "duration": 0.060000000000002274
                },
                {
                    "name": "A3",
                    "midi": 57,
                    "time": 146.22000000000048,
                    "velocity": 0.41732283464566927,
                    "duration": 0.060000000000002274
                },
                {
                    "name": "G#3",
                    "midi": 56,
                    "time": 146.28000000000048,
                    "velocity": 0.4251968503937008,
                    "duration": 0.060000000000002274
                },
                {
                    "name": "B3",
                    "midi": 59,
                    "time": 146.3400000000005,
                    "velocity": 0.4330708661417323,
                    "duration": 0.060000000000002274
                },
                {
                    "name": "D4",
                    "midi": 62,
                    "time": 146.4000000000005,
                    "velocity": 0.44881889763779526,
                    "duration": 0.07499999999998863
                },
                {
                    "name": "F4",
                    "midi": 65,
                    "time": 146.4000000000005,
                    "velocity": 0.44881889763779526,
                    "duration": 0.07499999999998863
                },
                {
                    "name": "D4",
                    "midi": 62,
                    "time": 146.70000000000047,
                    "velocity": 0.3543307086614173,
                    "duration": 0.11250000000001137
                },
                {
                    "name": "F4",
                    "midi": 65,
                    "time": 146.70000000000047,
                    "velocity": 0.3543307086614173,
                    "duration": 0.11250000000001137
                },
                {
                    "name": "D5",
                    "midi": 74,
                    "time": 146.70000000000047,
                    "velocity": 0.4094488188976378,
                    "duration": 0.11250000000001137
                },
                {
                    "name": "G#4",
                    "midi": 68,
                    "time": 146.70000000000047,
                    "velocity": 0.3543307086614173,
                    "duration": 0.11250000000001137
                },
                {
                    "name": "D#4",
                    "midi": 63,
                    "time": 147.00000000000048,
                    "velocity": 0.47244094488188976,
                    "duration": 0.11250000000001137
                },
                {
                    "name": "B4",
                    "midi": 71,
                    "time": 147.00000000000048,
                    "velocity": 0.47244094488188976,
                    "duration": 0.11250000000001137
                },
                {
                    "name": "D#5",
                    "midi": 75,
                    "time": 147.00000000000048,
                    "velocity": 0.5275590551181102,
                    "duration": 0.11250000000001137
                },
                {
                    "name": "F#4",
                    "midi": 66,
                    "time": 147.00000000000048,
                    "velocity": 0.47244094488188976,
                    "duration": 0.11250000000001137
                },
                {
                    "name": "F#4",
                    "midi": 66,
                    "time": 147.3000000000005,
                    "velocity": 0.47244094488188976,
                    "duration": 0.11250000000001137
                },
                {
                    "name": "A4",
                    "midi": 69,
                    "time": 147.3000000000005,
                    "velocity": 0.47244094488188976,
                    "duration": 0.11250000000001137
                },
                {
                    "name": "C5",
                    "midi": 72,
                    "time": 147.3000000000005,
                    "velocity": 0.47244094488188976,
                    "duration": 0.11250000000001137
                },
                {
                    "name": "F#5",
                    "midi": 78,
                    "time": 147.3000000000005,
                    "velocity": 0.5275590551181102,
                    "duration": 0.11250000000001137
                },
                {
                    "name": "F4",
                    "midi": 65,
                    "time": 147.5812500000005,
                    "velocity": 0.49606299212598426,
                    "duration": 0.3187499999999943
                },
                {
                    "name": "A#4",
                    "midi": 70,
                    "time": 147.5875000000005,
                    "velocity": 0.49606299212598426,
                    "duration": 0.3125
                },
                {
                    "name": "D5",
                    "midi": 74,
                    "time": 147.59375000000048,
                    "velocity": 0.49606299212598426,
                    "duration": 0.3062500000000057
                },
                {
                    "name": "A#5",
                    "midi": 82,
                    "time": 147.60000000000048,
                    "velocity": 0.6220472440944882,
                    "duration": 0.30000000000001137
                },
                {
                    "name": "A#3",
                    "midi": 58,
                    "time": 147.9000000000005,
                    "velocity": 0.5118110236220472,
                    "duration": 0.11250000000001137
                },
                {
                    "name": "A5",
                    "midi": 81,
                    "time": 148.2750000000005,
                    "velocity": 0.49606299212598426,
                    "duration": 0.025000000000005684
                },
                {
                    "name": "A6",
                    "midi": 93,
                    "time": 148.2750000000005,
                    "velocity": 0.5511811023622047,
                    "duration": 0.025000000000005684
                },
                {
                    "name": "G6",
                    "midi": 91,
                    "time": 148.3500000000005,
                    "velocity": 0.5590551181102362,
                    "duration": 0.06499999999999773
                },
                {
                    "name": "G5",
                    "midi": 79,
                    "time": 148.3500000000005,
                    "velocity": 0.49606299212598426,
                    "duration": 0.06499999999999773
                },
                {
                    "name": "F6",
                    "midi": 89,
                    "time": 148.4500000000005,
                    "velocity": 0.5748031496062992,
                    "duration": 0.06749999999999545
                },
                {
                    "name": "F5",
                    "midi": 77,
                    "time": 148.4500000000005,
                    "velocity": 0.5118110236220472,
                    "duration": 0.06749999999999545
                },
                {
                    "name": "D#6",
                    "midi": 87,
                    "time": 148.5500000000005,
                    "velocity": 0.5984251968503937,
                    "duration": 0.06999999999999318
                },
                {
                    "name": "D#5",
                    "midi": 75,
                    "time": 148.5500000000005,
                    "velocity": 0.5275590551181102,
                    "duration": 0.06999999999999318
                },
                {
                    "name": "C#6",
                    "midi": 85,
                    "time": 148.6500000000005,
                    "velocity": 0.6220472440944882,
                    "duration": 0.0724999999999909
                },
                {
                    "name": "C#5",
                    "midi": 73,
                    "time": 148.6500000000005,
                    "velocity": 0.5590551181102362,
                    "duration": 0.0724999999999909
                },
                {
                    "name": "B5",
                    "midi": 83,
                    "time": 148.75000000000048,
                    "velocity": 0.6456692913385826,
                    "duration": 0.07499999999998863
                },
                {
                    "name": "B4",
                    "midi": 71,
                    "time": 148.75000000000048,
                    "velocity": 0.5748031496062992,
                    "duration": 0.07499999999998863
                },
                {
                    "name": "D3",
                    "midi": 50,
                    "time": 149.10000000000048,
                    "velocity": 0.5039370078740157,
                    "duration": 0.30000000000001137
                },
                {
                    "name": "F3",
                    "midi": 53,
                    "time": 149.10000000000048,
                    "velocity": 0.5039370078740157,
                    "duration": 0.30000000000001137
                },
                {
                    "name": "A#3",
                    "midi": 58,
                    "time": 149.10000000000048,
                    "velocity": 0.5039370078740157,
                    "duration": 0.30000000000001137
                },
                {
                    "name": "D4",
                    "midi": 62,
                    "time": 149.10000000000048,
                    "velocity": 0.5669291338582677,
                    "duration": 0.30000000000001137
                },
                {
                    "name": "C#6",
                    "midi": 85,
                    "time": 149.47500000000048,
                    "velocity": 0.49606299212598426,
                    "duration": 0.025000000000005684
                },
                {
                    "name": "C#7",
                    "midi": 97,
                    "time": 149.47500000000048,
                    "velocity": 0.5511811023622047,
                    "duration": 0.025000000000005684
                },
                {
                    "name": "B6",
                    "midi": 95,
                    "time": 149.5500000000005,
                    "velocity": 0.5590551181102362,
                    "duration": 0.06499999999999773
                },
                {
                    "name": "B5",
                    "midi": 83,
                    "time": 149.5500000000005,
                    "velocity": 0.49606299212598426,
                    "duration": 0.06499999999999773
                },
                {
                    "name": "A6",
                    "midi": 93,
                    "time": 149.6500000000005,
                    "velocity": 0.5748031496062992,
                    "duration": 0.06749999999999545
                },
                {
                    "name": "A5",
                    "midi": 81,
                    "time": 149.6500000000005,
                    "velocity": 0.5118110236220472,
                    "duration": 0.06749999999999545
                },
                {
                    "name": "G6",
                    "midi": 91,
                    "time": 149.75000000000048,
                    "velocity": 0.5984251968503937,
                    "duration": 0.06999999999999318
                },
                {
                    "name": "G5",
                    "midi": 79,
                    "time": 149.75000000000048,
                    "velocity": 0.5275590551181102,
                    "duration": 0.06999999999999318
                },
                {
                    "name": "F6",
                    "midi": 89,
                    "time": 149.85000000000048,
                    "velocity": 0.6220472440944882,
                    "duration": 0.0724999999999909
                },
                {
                    "name": "F5",
                    "midi": 77,
                    "time": 149.85000000000048,
                    "velocity": 0.5590551181102362,
                    "duration": 0.0724999999999909
                },
                {
                    "name": "D#6",
                    "midi": 87,
                    "time": 149.95000000000047,
                    "velocity": 0.6456692913385826,
                    "duration": 0.07499999999998863
                },
                {
                    "name": "D#5",
                    "midi": 75,
                    "time": 149.95000000000047,
                    "velocity": 0.5748031496062992,
                    "duration": 0.07499999999998863
                },
                {
                    "name": "F4",
                    "midi": 65,
                    "time": 150.30000000000047,
                    "velocity": 0.5669291338582677,
                    "duration": 0.30000000000001137
                },
                {
                    "name": "F3",
                    "midi": 53,
                    "time": 150.30000000000047,
                    "velocity": 0.5039370078740157,
                    "duration": 0.30000000000001137
                },
                {
                    "name": "A#3",
                    "midi": 58,
                    "time": 150.30000000000047,
                    "velocity": 0.5039370078740157,
                    "duration": 0.30000000000001137
                },
                {
                    "name": "D4",
                    "midi": 62,
                    "time": 150.30000000000047,
                    "velocity": 0.5039370078740157,
                    "duration": 0.30000000000001137
                },
                {
                    "name": "E6",
                    "midi": 88,
                    "time": 150.6500000000005,
                    "velocity": 0.4645669291338583,
                    "duration": 0.05000000000001137
                },
                {
                    "name": "E7",
                    "midi": 100,
                    "time": 150.6500000000005,
                    "velocity": 0.5196850393700787,
                    "duration": 0.05000000000001137
                },
                {
                    "name": "D7",
                    "midi": 98,
                    "time": 150.7500000000005,
                    "velocity": 0.5196850393700787,
                    "duration": 0.05000000000001137
                },
                {
                    "name": "D6",
                    "midi": 86,
                    "time": 150.7500000000005,
                    "velocity": 0.4645669291338583,
                    "duration": 0.05000000000001137
                },
                {
                    "name": "C7",
                    "midi": 96,
                    "time": 150.85000000000053,
                    "velocity": 0.5275590551181102,
                    "duration": 0.05000000000001137
                },
                {
                    "name": "C6",
                    "midi": 84,
                    "time": 150.85000000000053,
                    "velocity": 0.47244094488188976,
                    "duration": 0.05000000000001137
                },
                {
                    "name": "A#6",
                    "midi": 94,
                    "time": 150.95000000000056,
                    "velocity": 0.5275590551181102,
                    "duration": 0.05000000000001137
                },
                {
                    "name": "A#5",
                    "midi": 82,
                    "time": 150.95000000000056,
                    "velocity": 0.47244094488188976,
                    "duration": 0.05000000000001137
                },
                {
                    "name": "G#6",
                    "midi": 92,
                    "time": 151.05000000000058,
                    "velocity": 0.5433070866141733,
                    "duration": 0.05000000000001137
                },
                {
                    "name": "G#5",
                    "midi": 80,
                    "time": 151.05000000000058,
                    "velocity": 0.4881889763779528,
                    "duration": 0.05000000000001137
                },
                {
                    "name": "F#6",
                    "midi": 90,
                    "time": 151.1500000000006,
                    "velocity": 0.5433070866141733,
                    "duration": 0.05000000000001137
                },
                {
                    "name": "F#5",
                    "midi": 78,
                    "time": 151.1500000000006,
                    "velocity": 0.4881889763779528,
                    "duration": 0.05000000000001137
                },
                {
                    "name": "E5",
                    "midi": 76,
                    "time": 151.25000000000063,
                    "velocity": 0.49606299212598426,
                    "duration": 0.05000000000001137
                },
                {
                    "name": "E6",
                    "midi": 88,
                    "time": 151.25000000000063,
                    "velocity": 0.5511811023622047,
                    "duration": 0.05000000000001137
                },
                {
                    "name": "D6",
                    "midi": 86,
                    "time": 151.35000000000065,
                    "velocity": 0.5511811023622047,
                    "duration": 0.05000000000001137
                },
                {
                    "name": "D5",
                    "midi": 74,
                    "time": 151.35000000000065,
                    "velocity": 0.49606299212598426,
                    "duration": 0.05000000000001137
                },
                {
                    "name": "C6",
                    "midi": 84,
                    "time": 151.45000000000067,
                    "velocity": 0.5590551181102362,
                    "duration": 0.056250000000005684
                },
                {
                    "name": "C5",
                    "midi": 72,
                    "time": 151.45000000000067,
                    "velocity": 0.49606299212598426,
                    "duration": 0.056250000000005684
                },
                {
                    "name": "A#5",
                    "midi": 82,
                    "time": 151.55000000000067,
                    "velocity": 0.5590551181102362,
                    "duration": 0.0625
                },
                {
                    "name": "A#4",
                    "midi": 70,
                    "time": 151.55000000000067,
                    "velocity": 0.49606299212598426,
                    "duration": 0.0625
                },
                {
                    "name": "G#5",
                    "midi": 80,
                    "time": 151.65000000000066,
                    "velocity": 0.5669291338582677,
                    "duration": 0.0625
                },
                {
                    "name": "G#4",
                    "midi": 68,
                    "time": 151.65000000000066,
                    "velocity": 0.5039370078740157,
                    "duration": 0.0625
                },
                {
                    "name": "F#5",
                    "midi": 78,
                    "time": 151.75000000000065,
                    "velocity": 0.5669291338582677,
                    "duration": 0.0625
                },
                {
                    "name": "F#4",
                    "midi": 66,
                    "time": 151.75000000000065,
                    "velocity": 0.5039370078740157,
                    "duration": 0.0625
                },
                {
                    "name": "E4",
                    "midi": 64,
                    "time": 151.85000000000065,
                    "velocity": 0.5039370078740157,
                    "duration": 0.0625
                },
                {
                    "name": "E5",
                    "midi": 76,
                    "time": 151.85000000000065,
                    "velocity": 0.5669291338582677,
                    "duration": 0.0625
                },
                {
                    "name": "D5",
                    "midi": 74,
                    "time": 151.95000000000064,
                    "velocity": 0.5669291338582677,
                    "duration": 0.06499999999999773
                },
                {
                    "name": "D4",
                    "midi": 62,
                    "time": 151.95000000000064,
                    "velocity": 0.5039370078740157,
                    "duration": 0.06499999999999773
                },
                {
                    "name": "C5",
                    "midi": 72,
                    "time": 152.05000000000064,
                    "velocity": 0.5748031496062992,
                    "duration": 0.06749999999999545
                },
                {
                    "name": "C4",
                    "midi": 60,
                    "time": 152.05000000000064,
                    "velocity": 0.5118110236220472,
                    "duration": 0.06749999999999545
                },
                {
                    "name": "A#4",
                    "midi": 70,
                    "time": 152.15000000000063,
                    "velocity": 0.5748031496062992,
                    "duration": 0.06999999999999318
                },
                {
                    "name": "A#3",
                    "midi": 58,
                    "time": 152.15000000000063,
                    "velocity": 0.5118110236220472,
                    "duration": 0.06999999999999318
                },
                {
                    "name": "G#4",
                    "midi": 68,
                    "time": 152.25000000000063,
                    "velocity": 0.5748031496062992,
                    "duration": 0.0724999999999909
                },
                {
                    "name": "G#3",
                    "midi": 56,
                    "time": 152.25000000000063,
                    "velocity": 0.5118110236220472,
                    "duration": 0.0724999999999909
                },
                {
                    "name": "D4",
                    "midi": 62,
                    "time": 152.35000000000062,
                    "velocity": 0.5748031496062992,
                    "duration": 0.07499999999998863
                },
                {
                    "name": "D3",
                    "midi": 50,
                    "time": 152.35000000000062,
                    "velocity": 0.5118110236220472,
                    "duration": 0.07499999999998863
                },
                {
                    "name": "A2",
                    "midi": 45,
                    "time": 152.7000000000006,
                    "velocity": 0.5826771653543307,
                    "duration": 0.05000000000001137
                },
                {
                    "name": "A#2",
                    "midi": 46,
                    "time": 152.75000000000063,
                    "velocity": 0.5669291338582677,
                    "duration": 0.05000000000001137
                },
                {
                    "name": "D3",
                    "midi": 50,
                    "time": 152.80000000000064,
                    "velocity": 0.5669291338582677,
                    "duration": 0.056250000000005684
                },
                {
                    "name": "F3",
                    "midi": 53,
                    "time": 152.85000000000065,
                    "velocity": 0.5748031496062992,
                    "duration": 0.057499999999976126
                },
                {
                    "name": "G#3",
                    "midi": 56,
                    "time": 152.90000000000063,
                    "velocity": 0.5748031496062992,
                    "duration": 0.05874999999997499
                },
                {
                    "name": "A#3",
                    "midi": 58,
                    "time": 152.9500000000006,
                    "velocity": 0.5826771653543307,
                    "duration": 0.05999999999997385
                },
                {
                    "name": "D4",
                    "midi": 62,
                    "time": 153.0000000000006,
                    "velocity": 0.5826771653543307,
                    "duration": 0.061249999999972715
                },
                {
                    "name": "F4",
                    "midi": 65,
                    "time": 153.05000000000058,
                    "velocity": 0.5984251968503937,
                    "duration": 0.06249999999997158
                },
                {
                    "name": "G#4",
                    "midi": 68,
                    "time": 153.10000000000056,
                    "velocity": 0.5984251968503937,
                    "duration": 0.04999999999998295
                },
                {
                    "name": "A#4",
                    "midi": 70,
                    "time": 153.15000000000055,
                    "velocity": 0.6062992125984252,
                    "duration": 0.05000000000001137
                },
                {
                    "name": "D5",
                    "midi": 74,
                    "time": 153.20000000000056,
                    "velocity": 0.6062992125984252,
                    "duration": 0.05000000000001137
                },
                {
                    "name": "F5",
                    "midi": 77,
                    "time": 153.25000000000057,
                    "velocity": 0.6062992125984252,
                    "duration": 0.05000000000001137
                },
                {
                    "name": "G#5",
                    "midi": 80,
                    "time": 153.30000000000058,
                    "velocity": 0.6141732283464567,
                    "duration": 0.060000000000002274
                },
                {
                    "name": "A#5",
                    "midi": 82,
                    "time": 153.36000000000058,
                    "velocity": 0.6141732283464567,
                    "duration": 0.060000000000002274
                },
                {
                    "name": "D6",
                    "midi": 86,
                    "time": 153.42000000000058,
                    "velocity": 0.6220472440944882,
                    "duration": 0.060000000000002274
                },
                {
                    "name": "F6",
                    "midi": 89,
                    "time": 153.4800000000006,
                    "velocity": 0.6299212598425197,
                    "duration": 0.060000000000002274
                },
                {
                    "name": "G#6",
                    "midi": 92,
                    "time": 153.5400000000006,
                    "velocity": 0.6299212598425197,
                    "duration": 0.060000000000002274
                },
                {
                    "name": "A6",
                    "midi": 93,
                    "time": 153.6000000000006,
                    "velocity": 0.6377952755905512,
                    "duration": 0.03125
                },
                {
                    "name": "C7",
                    "midi": 96,
                    "time": 153.64250000000058,
                    "velocity": 0.6141732283464567,
                    "duration": 0.037499999999994316
                },
                {
                    "name": "A#6",
                    "midi": 94,
                    "time": 153.68500000000057,
                    "velocity": 0.6062992125984252,
                    "duration": 0.037499999999994316
                },
                {
                    "name": "G#6",
                    "midi": 92,
                    "time": 153.72750000000056,
                    "velocity": 0.6062992125984252,
                    "duration": 0.037499999999994316
                },
                {
                    "name": "F6",
                    "midi": 89,
                    "time": 153.77000000000055,
                    "velocity": 0.6062992125984252,
                    "duration": 0.037499999999994316
                },
                {
                    "name": "D6",
                    "midi": 86,
                    "time": 153.81250000000054,
                    "velocity": 0.6062992125984252,
                    "duration": 0.037499999999994316
                },
                {
                    "name": "A#5",
                    "midi": 82,
                    "time": 153.85500000000053,
                    "velocity": 0.6062992125984252,
                    "duration": 0.037499999999994316
                },
                {
                    "name": "A5",
                    "midi": 81,
                    "time": 153.90000000000052,
                    "velocity": 0.6377952755905512,
                    "duration": 0.037499999999994316
                },
                {
                    "name": "C6",
                    "midi": 84,
                    "time": 153.9425000000005,
                    "velocity": 0.6141732283464567,
                    "duration": 0.04249999999998977
                },
                {
                    "name": "A#5",
                    "midi": 82,
                    "time": 153.9850000000005,
                    "velocity": 0.6062992125984252,
                    "duration": 0.04249999999998977
                },
                {
                    "name": "G#5",
                    "midi": 80,
                    "time": 154.0275000000005,
                    "velocity": 0.6062992125984252,
                    "duration": 0.04249999999998977
                },
                {
                    "name": "F5",
                    "midi": 77,
                    "time": 154.07000000000048,
                    "velocity": 0.6062992125984252,
                    "duration": 0.04249999999998977
                },
                {
                    "name": "D5",
                    "midi": 74,
                    "time": 154.11250000000047,
                    "velocity": 0.6062992125984252,
                    "duration": 0.04249999999998977
                },
                {
                    "name": "A#4",
                    "midi": 70,
                    "time": 154.15500000000046,
                    "velocity": 0.6062992125984252,
                    "duration": 0.04249999999998977
                },
                {
                    "name": "A4",
                    "midi": 69,
                    "time": 154.20000000000044,
                    "velocity": 0.6377952755905512,
                    "duration": 0.037499999999994316
                },
                {
                    "name": "C5",
                    "midi": 72,
                    "time": 154.24250000000043,
                    "velocity": 0.6141732283464567,
                    "duration": 0.04249999999998977
                },
                {
                    "name": "A#4",
                    "midi": 70,
                    "time": 154.28500000000042,
                    "velocity": 0.6062992125984252,
                    "duration": 0.04249999999998977
                },
                {
                    "name": "G#4",
                    "midi": 68,
                    "time": 154.3275000000004,
                    "velocity": 0.6062992125984252,
                    "duration": 0.04249999999998977
                },
                {
                    "name": "F4",
                    "midi": 65,
                    "time": 154.3700000000004,
                    "velocity": 0.6062992125984252,
                    "duration": 0.04249999999998977
                },
                {
                    "name": "D4",
                    "midi": 62,
                    "time": 154.4125000000004,
                    "velocity": 0.6062992125984252,
                    "duration": 0.04249999999998977
                },
                {
                    "name": "A#3",
                    "midi": 58,
                    "time": 154.45500000000038,
                    "velocity": 0.5984251968503937,
                    "duration": 0.04249999999998977
                },
                {
                    "name": "A3",
                    "midi": 57,
                    "time": 154.50000000000037,
                    "velocity": 0.6141732283464567,
                    "duration": 0.0625
                },
                {
                    "name": "A#3",
                    "midi": 58,
                    "time": 154.56000000000037,
                    "velocity": 0.6299212598425197,
                    "duration": 0.0625
                },
                {
                    "name": "D4",
                    "midi": 62,
                    "time": 154.62000000000037,
                    "velocity": 0.6535433070866141,
                    "duration": 0.0625
                },
                {
                    "name": "F4",
                    "midi": 65,
                    "time": 154.68000000000038,
                    "velocity": 0.6692913385826772,
                    "duration": 0.06874999999999432
                },
                {
                    "name": "G#4",
                    "midi": 68,
                    "time": 154.74000000000038,
                    "velocity": 0.6929133858267716,
                    "duration": 0.060000000000002274
                },
                {
                    "name": "A#3",
                    "midi": 58,
                    "time": 154.84625000000037,
                    "velocity": 0.6062992125984252,
                    "duration": 0.016250000000013642
                },
                {
                    "name": "A#4",
                    "midi": 70,
                    "time": 154.84625000000037,
                    "velocity": 0.7165354330708661,
                    "duration": 0.016250000000013642
                },
                {
                    "name": "D5",
                    "midi": 74,
                    "time": 154.89375000000038,
                    "velocity": 0.5826771653543307,
                    "duration": 0.04624999999998636
                },
                {
                    "name": "D4",
                    "midi": 62,
                    "time": 154.89375000000038,
                    "velocity": 0.5826771653543307,
                    "duration": 0.04624999999998636
                },
                {
                    "name": "C5",
                    "midi": 72,
                    "time": 154.95625000000038,
                    "velocity": 0.6062992125984252,
                    "duration": 0.04624999999998636
                },
                {
                    "name": "C4",
                    "midi": 60,
                    "time": 154.95625000000038,
                    "velocity": 0.5039370078740157,
                    "duration": 0.04624999999998636
                },
                {
                    "name": "A#4",
                    "midi": 70,
                    "time": 155.01875000000038,
                    "velocity": 0.6141732283464567,
                    "duration": 0.04624999999998636
                },
                {
                    "name": "A#3",
                    "midi": 58,
                    "time": 155.01875000000038,
                    "velocity": 0.5118110236220472,
                    "duration": 0.04624999999998636
                },
                {
                    "name": "G#4",
                    "midi": 68,
                    "time": 155.08125000000038,
                    "velocity": 0.6377952755905512,
                    "duration": 0.04624999999998636
                },
                {
                    "name": "G#3",
                    "midi": 56,
                    "time": 155.08125000000038,
                    "velocity": 0.5354330708661418,
                    "duration": 0.04624999999998636
                },
                {
                    "name": "F#4",
                    "midi": 66,
                    "time": 155.14375000000038,
                    "velocity": 0.6377952755905512,
                    "duration": 0.04624999999998636
                },
                {
                    "name": "F#3",
                    "midi": 54,
                    "time": 155.14375000000038,
                    "velocity": 0.5433070866141733,
                    "duration": 0.04624999999998636
                },
                {
                    "name": "E4",
                    "midi": 64,
                    "time": 155.20625000000038,
                    "velocity": 0.6614173228346457,
                    "duration": 0.04624999999998636
                },
                {
                    "name": "E3",
                    "midi": 52,
                    "time": 155.20625000000038,
                    "velocity": 0.5669291338582677,
                    "duration": 0.04624999999998636
                },
                {
                    "name": "D4",
                    "midi": 62,
                    "time": 155.26875000000038,
                    "velocity": 0.6771653543307087,
                    "duration": 0.04624999999998636
                },
                {
                    "name": "D3",
                    "midi": 50,
                    "time": 155.26875000000038,
                    "velocity": 0.5669291338582677,
                    "duration": 0.04624999999998636
                },
                {
                    "name": "C3",
                    "midi": 48,
                    "time": 155.33125000000038,
                    "velocity": 0.5748031496062992,
                    "duration": 0.04624999999998636
                },
                {
                    "name": "C4",
                    "midi": 60,
                    "time": 155.33125000000038,
                    "velocity": 0.6929133858267716,
                    "duration": 0.04624999999998636
                },
                {
                    "name": "D#4",
                    "midi": 63,
                    "time": 155.70000000000036,
                    "velocity": 0.5669291338582677,
                    "duration": 0.125
                },
                {
                    "name": "G4",
                    "midi": 67,
                    "time": 155.70000000000036,
                    "velocity": 0.5669291338582677,
                    "duration": 0.125
                },
                {
                    "name": "D#5",
                    "midi": 75,
                    "time": 155.70000000000036,
                    "velocity": 0.6377952755905512,
                    "duration": 0.125
                },
                {
                    "name": "F4",
                    "midi": 65,
                    "time": 156.00000000000037,
                    "velocity": 0.6141732283464567,
                    "duration": 0.125
                },
                {
                    "name": "G#4",
                    "midi": 68,
                    "time": 156.00000000000037,
                    "velocity": 0.6141732283464567,
                    "duration": 0.125
                },
                {
                    "name": "F5",
                    "midi": 77,
                    "time": 156.00000000000037,
                    "velocity": 0.6850393700787402,
                    "duration": 0.125
                },
                {
                    "name": "F#4",
                    "midi": 66,
                    "time": 156.30000000000038,
                    "velocity": 0.5669291338582677,
                    "duration": 0.125
                },
                {
                    "name": "A4",
                    "midi": 69,
                    "time": 156.30000000000038,
                    "velocity": 0.5669291338582677,
                    "duration": 0.125
                },
                {
                    "name": "F#5",
                    "midi": 78,
                    "time": 156.30000000000038,
                    "velocity": 0.6377952755905512,
                    "duration": 0.125
                },
                {
                    "name": "A#4",
                    "midi": 70,
                    "time": 156.6000000000004,
                    "velocity": 0.6141732283464567,
                    "duration": 0.30000000000001137
                },
                {
                    "name": "G4",
                    "midi": 67,
                    "time": 156.6000000000004,
                    "velocity": 0.6141732283464567,
                    "duration": 0.30000000000001137
                },
                {
                    "name": "G5",
                    "midi": 79,
                    "time": 156.6000000000004,
                    "velocity": 0.6850393700787402,
                    "duration": 0.30000000000001137
                },
                {
                    "name": "D#4",
                    "midi": 63,
                    "time": 156.9000000000004,
                    "velocity": 0.5669291338582677,
                    "duration": 0.15000000000000568
                },
                {
                    "name": "D#5",
                    "midi": 75,
                    "time": 156.9000000000004,
                    "velocity": 0.6299212598425197,
                    "duration": 0.15000000000000568
                },
                {
                    "name": "A#3",
                    "midi": 58,
                    "time": 157.2637500000004,
                    "velocity": 0.5669291338582677,
                    "duration": 0.021250000000009095
                },
                {
                    "name": "A#4",
                    "midi": 70,
                    "time": 157.2637500000004,
                    "velocity": 0.6377952755905512,
                    "duration": 0.021250000000009095
                },
                {
                    "name": "F4",
                    "midi": 65,
                    "time": 157.3275000000004,
                    "velocity": 0.5118110236220472,
                    "duration": 0.06374999999999886
                },
                {
                    "name": "F5",
                    "midi": 77,
                    "time": 157.3275000000004,
                    "velocity": 0.5669291338582677,
                    "duration": 0.06374999999999886
                },
                {
                    "name": "D4",
                    "midi": 62,
                    "time": 157.41250000000042,
                    "velocity": 0.5275590551181102,
                    "duration": 0.06374999999999886
                },
                {
                    "name": "D5",
                    "midi": 74,
                    "time": 157.41250000000042,
                    "velocity": 0.5905511811023622,
                    "duration": 0.06374999999999886
                },
                {
                    "name": "A#3",
                    "midi": 58,
                    "time": 157.49750000000043,
                    "velocity": 0.5511811023622047,
                    "duration": 0.06374999999999886
                },
                {
                    "name": "A#4",
                    "midi": 70,
                    "time": 157.49750000000043,
                    "velocity": 0.6299212598425197,
                    "duration": 0.06374999999999886
                },
                {
                    "name": "G3",
                    "midi": 55,
                    "time": 157.58250000000044,
                    "velocity": 0.5669291338582677,
                    "duration": 0.06374999999999886
                },
                {
                    "name": "G4",
                    "midi": 67,
                    "time": 157.58250000000044,
                    "velocity": 0.6377952755905512,
                    "duration": 0.06374999999999886
                },
                {
                    "name": "D#3",
                    "midi": 51,
                    "time": 157.66750000000044,
                    "velocity": 0.6062992125984252,
                    "duration": 0.06374999999999886
                },
                {
                    "name": "D#4",
                    "midi": 63,
                    "time": 157.66750000000044,
                    "velocity": 0.6771653543307087,
                    "duration": 0.06374999999999886
                },
                {
                    "name": "C3",
                    "midi": 48,
                    "time": 157.75250000000045,
                    "velocity": 0.6141732283464567,
                    "duration": 0.07124999999999204
                },
                {
                    "name": "C4",
                    "midi": 60,
                    "time": 157.75250000000045,
                    "velocity": 0.6929133858267716,
                    "duration": 0.07124999999999204
                },
                {
                    "name": "D#4",
                    "midi": 63,
                    "time": 158.10000000000045,
                    "velocity": 0.5590551181102362,
                    "duration": 0.125
                },
                {
                    "name": "G4",
                    "midi": 67,
                    "time": 158.10000000000045,
                    "velocity": 0.5590551181102362,
                    "duration": 0.125
                },
                {
                    "name": "D#5",
                    "midi": 75,
                    "time": 158.10000000000045,
                    "velocity": 0.6220472440944882,
                    "duration": 0.125
                },
                {
                    "name": "F4",
                    "midi": 65,
                    "time": 158.40000000000046,
                    "velocity": 0.5984251968503937,
                    "duration": 0.125
                },
                {
                    "name": "G#4",
                    "midi": 68,
                    "time": 158.40000000000046,
                    "velocity": 0.5984251968503937,
                    "duration": 0.125
                },
                {
                    "name": "F5",
                    "midi": 77,
                    "time": 158.40000000000046,
                    "velocity": 0.6692913385826772,
                    "duration": 0.125
                },
                {
                    "name": "G4",
                    "midi": 67,
                    "time": 158.70000000000047,
                    "velocity": 0.5590551181102362,
                    "duration": 0.125
                },
                {
                    "name": "A#4",
                    "midi": 70,
                    "time": 158.70000000000047,
                    "velocity": 0.5590551181102362,
                    "duration": 0.125
                },
                {
                    "name": "G5",
                    "midi": 79,
                    "time": 158.70000000000047,
                    "velocity": 0.6220472440944882,
                    "duration": 0.125
                },
                {
                    "name": "G4",
                    "midi": 67,
                    "time": 159.00000000000048,
                    "velocity": 0.5196850393700787,
                    "duration": 0.5749999999999886
                },
                {
                    "name": "D#4",
                    "midi": 63,
                    "time": 159.00000000000048,
                    "velocity": 0.5196850393700787,
                    "duration": 0.5749999999999886
                },
                {
                    "name": "D#5",
                    "midi": 75,
                    "time": 159.00000000000048,
                    "velocity": 0.5826771653543307,
                    "duration": 0.5749999999999886
                },
                {
                    "name": "A6",
                    "midi": 93,
                    "time": 159.60000000000048,
                    "velocity": 0.3228346456692913,
                    "duration": 0.037499999999994316
                },
                {
                    "name": "A#6",
                    "midi": 94,
                    "time": 159.64000000000047,
                    "velocity": 0.28346456692913385,
                    "duration": 0.037499999999994316
                },
                {
                    "name": "D#7",
                    "midi": 99,
                    "time": 159.68000000000046,
                    "velocity": 0.2992125984251969,
                    "duration": 0.030000000000001137
                },
                {
                    "name": "C7",
                    "midi": 96,
                    "time": 159.71250000000046,
                    "velocity": 0.28346456692913385,
                    "duration": 0.030000000000001137
                },
                {
                    "name": "A#6",
                    "midi": 94,
                    "time": 159.74500000000046,
                    "velocity": 0.28346456692913385,
                    "duration": 0.030000000000001137
                },
                {
                    "name": "G#6",
                    "midi": 92,
                    "time": 159.77750000000046,
                    "velocity": 0.28346456692913385,
                    "duration": 0.030000000000001137
                },
                {
                    "name": "G6",
                    "midi": 91,
                    "time": 159.81000000000046,
                    "velocity": 0.25984251968503935,
                    "duration": 0.030000000000001137
                },
                {
                    "name": "G3",
                    "midi": 55,
                    "time": 160.50000000000045,
                    "velocity": 0.2283464566929134,
                    "duration": 0.11250000000001137
                },
                {
                    "name": "A#3",
                    "midi": 58,
                    "time": 160.50000000000045,
                    "velocity": 0.2283464566929134,
                    "duration": 0.11250000000001137
                },
                {
                    "name": "D#4",
                    "midi": 63,
                    "time": 160.50000000000045,
                    "velocity": 0.25984251968503935,
                    "duration": 0.11250000000001137
                },
                {
                    "name": "G#3",
                    "midi": 56,
                    "time": 160.80000000000047,
                    "velocity": 0.2440944881889764,
                    "duration": 0.11250000000001137
                },
                {
                    "name": "B3",
                    "midi": 59,
                    "time": 160.80000000000047,
                    "velocity": 0.2440944881889764,
                    "duration": 0.11250000000001137
                },
                {
                    "name": "F4",
                    "midi": 65,
                    "time": 160.80000000000047,
                    "velocity": 0.28346456692913385,
                    "duration": 0.11250000000001137
                },
                {
                    "name": "A3",
                    "midi": 57,
                    "time": 161.10000000000048,
                    "velocity": 0.23622047244094488,
                    "duration": 0.11250000000001137
                },
                {
                    "name": "C4",
                    "midi": 60,
                    "time": 161.10000000000048,
                    "velocity": 0.23622047244094488,
                    "duration": 0.11250000000001137
                },
                {
                    "name": "F#4",
                    "midi": 66,
                    "time": 161.10000000000048,
                    "velocity": 0.2755905511811024,
                    "duration": 0.11250000000001137
                },
                {
                    "name": "B3",
                    "midi": 59,
                    "time": 161.4000000000005,
                    "velocity": 0.23622047244094488,
                    "duration": 0.30000000000001137
                },
                {
                    "name": "G4",
                    "midi": 67,
                    "time": 161.4000000000005,
                    "velocity": 0.2755905511811024,
                    "duration": 0.30000000000001137
                },
                {
                    "name": "G3",
                    "midi": 55,
                    "time": 161.7000000000005,
                    "velocity": 0.2204724409448819,
                    "duration": 0.15000000000000568
                },
                {
                    "name": "D4",
                    "midi": 62,
                    "time": 161.7000000000005,
                    "velocity": 0.25196850393700787,
                    "duration": 0.15000000000000568
                },
                {
                    "name": "A#6",
                    "midi": 94,
                    "time": 162.0000000000005,
                    "velocity": 0.2125984251968504,
                    "duration": 0.037499999999994316
                },
                {
                    "name": "B6",
                    "midi": 95,
                    "time": 162.0375000000005,
                    "velocity": 0.2125984251968504,
                    "duration": 0.037499999999994316
                },
                {
                    "name": "G7",
                    "midi": 103,
                    "time": 162.0750000000005,
                    "velocity": 0.2283464566929134,
                    "duration": 0.037499999999994316
                },
                {
                    "name": "F#7",
                    "midi": 102,
                    "time": 162.1125000000005,
                    "velocity": 0.2283464566929134,
                    "duration": 0.037499999999994316
                },
                {
                    "name": "E7",
                    "midi": 100,
                    "time": 162.1500000000005,
                    "velocity": 0.2283464566929134,
                    "duration": 0.037499999999994316
                },
                {
                    "name": "D7",
                    "midi": 98,
                    "time": 162.18750000000048,
                    "velocity": 0.2283464566929134,
                    "duration": 0.037499999999994316
                },
                {
                    "name": "C7",
                    "midi": 96,
                    "time": 162.22500000000048,
                    "velocity": 0.2283464566929134,
                    "duration": 0.037499999999994316
                },
                {
                    "name": "B6",
                    "midi": 95,
                    "time": 162.26250000000047,
                    "velocity": 0.2204724409448819,
                    "duration": 0.037499999999994316
                },
                {
                    "name": "A6",
                    "midi": 93,
                    "time": 162.30000000000047,
                    "velocity": 0.2204724409448819,
                    "duration": 0.037499999999994316
                },
                {
                    "name": "G6",
                    "midi": 91,
                    "time": 162.33750000000046,
                    "velocity": 0.2204724409448819,
                    "duration": 0.037499999999994316
                },
                {
                    "name": "F#6",
                    "midi": 90,
                    "time": 162.37500000000045,
                    "velocity": 0.2204724409448819,
                    "duration": 0.037499999999994316
                },
                {
                    "name": "E6",
                    "midi": 88,
                    "time": 162.41250000000045,
                    "velocity": 0.2204724409448819,
                    "duration": 0.037499999999994316
                },
                {
                    "name": "D6",
                    "midi": 86,
                    "time": 162.45000000000044,
                    "velocity": 0.2125984251968504,
                    "duration": 0.037499999999994316
                },
                {
                    "name": "C6",
                    "midi": 84,
                    "time": 162.48750000000044,
                    "velocity": 0.2125984251968504,
                    "duration": 0.037499999999994316
                },
                {
                    "name": "B5",
                    "midi": 83,
                    "time": 162.52500000000043,
                    "velocity": 0.2125984251968504,
                    "duration": 0.037499999999994316
                },
                {
                    "name": "A5",
                    "midi": 81,
                    "time": 162.56250000000043,
                    "velocity": 0.2125984251968504,
                    "duration": 0.037499999999994316
                },
                {
                    "name": "G5",
                    "midi": 79,
                    "time": 162.60000000000042,
                    "velocity": 0.2125984251968504,
                    "duration": 0.11250000000001137
                },
                {
                    "name": "C4",
                    "midi": 60,
                    "time": 162.90000000000043,
                    "velocity": 0.25196850393700787,
                    "duration": 0.2750000000000057
                },
                {
                    "name": "E4",
                    "midi": 64,
                    "time": 162.90000000000043,
                    "velocity": 0.25196850393700787,
                    "duration": 0.2750000000000057
                },
                {
                    "name": "G4",
                    "midi": 67,
                    "time": 162.90000000000043,
                    "velocity": 0.28346456692913385,
                    "duration": 0.2750000000000057
                },
                {
                    "name": "C4",
                    "midi": 60,
                    "time": 163.20000000000044,
                    "velocity": 0.25196850393700787,
                    "duration": 0.25
                },
                {
                    "name": "G#4",
                    "midi": 68,
                    "time": 163.20000000000044,
                    "velocity": 0.28346456692913385,
                    "duration": 0.25
                },
                {
                    "name": "F4",
                    "midi": 65,
                    "time": 163.20000000000044,
                    "velocity": 0.25196850393700787,
                    "duration": 0.25
                },
                {
                    "name": "G#3",
                    "midi": 56,
                    "time": 163.50000000000045,
                    "velocity": 0.23622047244094488,
                    "duration": 0.2750000000000057
                },
                {
                    "name": "D4",
                    "midi": 62,
                    "time": 163.50000000000045,
                    "velocity": 0.23622047244094488,
                    "duration": 0.2750000000000057
                },
                {
                    "name": "A#4",
                    "midi": 70,
                    "time": 163.50000000000045,
                    "velocity": 0.2755905511811024,
                    "duration": 0.2750000000000057
                },
                {
                    "name": "G3",
                    "midi": 55,
                    "time": 163.80000000000047,
                    "velocity": 0.2283464566929134,
                    "duration": 0.5625
                },
                {
                    "name": "D#4",
                    "midi": 63,
                    "time": 163.80000000000047,
                    "velocity": 0.2283464566929134,
                    "duration": 0.5625
                },
                {
                    "name": "A#4",
                    "midi": 70,
                    "time": 163.80000000000047,
                    "velocity": 0.25984251968503935,
                    "duration": 0.5625
                },
                {
                    "name": "D#6",
                    "midi": 87,
                    "time": 165.30000000000047,
                    "velocity": 0.2992125984251969,
                    "duration": 0.25
                },
                {
                    "name": "B5",
                    "midi": 83,
                    "time": 165.30000000000047,
                    "velocity": 0.2755905511811024,
                    "duration": 0.25
                },
                {
                    "name": "D#5",
                    "midi": 75,
                    "time": 165.30000000000047,
                    "velocity": 0.2755905511811024,
                    "duration": 0.25
                },
                {
                    "name": "F6",
                    "midi": 89,
                    "time": 165.60000000000048,
                    "velocity": 0.3228346456692913,
                    "duration": 0.25
                },
                {
                    "name": "B5",
                    "midi": 83,
                    "time": 165.60000000000048,
                    "velocity": 0.28346456692913385,
                    "duration": 0.25
                },
                {
                    "name": "D#5",
                    "midi": 75,
                    "time": 165.60000000000048,
                    "velocity": 0.28346456692913385,
                    "duration": 0.25
                },
                {
                    "name": "F#6",
                    "midi": 90,
                    "time": 165.9000000000005,
                    "velocity": 0.33858267716535434,
                    "duration": 0.22499999999999432
                },
                {
                    "name": "B5",
                    "midi": 83,
                    "time": 165.9000000000005,
                    "velocity": 0.29133858267716534,
                    "duration": 0.22499999999999432
                },
                {
                    "name": "D#5",
                    "midi": 75,
                    "time": 165.9000000000005,
                    "velocity": 0.29133858267716534,
                    "duration": 0.22499999999999432
                },
                {
                    "name": "D#5",
                    "midi": 75,
                    "time": 166.18625000000048,
                    "velocity": 0.2755905511811024,
                    "duration": 0.625
                },
                {
                    "name": "A#5",
                    "midi": 82,
                    "time": 166.18750000000048,
                    "velocity": 0.2755905511811024,
                    "duration": 0.6125000000000114
                },
                {
                    "name": "G6",
                    "midi": 91,
                    "time": 166.20000000000047,
                    "velocity": 0.2992125984251969,
                    "duration": 0.30000000000001137
                },
                {
                    "name": "D#6",
                    "midi": 87,
                    "time": 166.50000000000048,
                    "velocity": 0.28346456692913385,
                    "duration": 0.15000000000000568
                },
                {
                    "name": "A#3",
                    "midi": 58,
                    "time": 167.70000000000047,
                    "velocity": 0.25984251968503935,
                    "duration": 0.30000000000001137
                },
                {
                    "name": "C#4",
                    "midi": 61,
                    "time": 167.70000000000047,
                    "velocity": 0.25984251968503935,
                    "duration": 0.30000000000001137
                },
                {
                    "name": "G4",
                    "midi": 67,
                    "time": 167.70000000000047,
                    "velocity": 0.29133858267716534,
                    "duration": 0.30000000000001137
                },
                {
                    "name": "A#3",
                    "midi": 58,
                    "time": 168.00000000000048,
                    "velocity": 0.28346456692913385,
                    "duration": 0.2750000000000057
                },
                {
                    "name": "C4",
                    "midi": 60,
                    "time": 168.00000000000048,
                    "velocity": 0.28346456692913385,
                    "duration": 0.2750000000000057
                },
                {
                    "name": "G#4",
                    "midi": 68,
                    "time": 168.00000000000048,
                    "velocity": 0.30708661417322836,
                    "duration": 0.2750000000000057
                },
                {
                    "name": "G#4",
                    "midi": 68,
                    "time": 168.3000000000005,
                    "velocity": 0.2755905511811024,
                    "duration": 0.22499999999999432
                },
                {
                    "name": "C5",
                    "midi": 72,
                    "time": 168.3000000000005,
                    "velocity": 0.30708661417322836,
                    "duration": 0.22499999999999432
                },
                {
                    "name": "A#3",
                    "midi": 58,
                    "time": 168.3000000000005,
                    "velocity": 0.2283464566929134,
                    "duration": 0.29999999999998295
                },
                {
                    "name": "D4",
                    "midi": 62,
                    "time": 168.3000000000005,
                    "velocity": 0.2283464566929134,
                    "duration": 0.29999999999998295
                },
                {
                    "name": "G4",
                    "midi": 67,
                    "time": 168.5250000000005,
                    "velocity": 0.23622047244094488,
                    "duration": 0.07499999999998863
                },
                {
                    "name": "A#4",
                    "midi": 70,
                    "time": 168.5250000000005,
                    "velocity": 0.2755905511811024,
                    "duration": 0.07499999999998863
                },
                {
                    "name": "D#4",
                    "midi": 63,
                    "time": 168.60000000000048,
                    "velocity": 0.2283464566929134,
                    "duration": 0.5999999999999943
                },
                {
                    "name": "G4",
                    "midi": 67,
                    "time": 168.60000000000048,
                    "velocity": 0.25984251968503935,
                    "duration": 0.5999999999999943
                },
                {
                    "name": "A6",
                    "midi": 93,
                    "time": 169.20000000000047,
                    "velocity": 0.28346456692913385,
                    "duration": 0.037499999999994316
                },
                {
                    "name": "A#6",
                    "midi": 94,
                    "time": 169.24000000000046,
                    "velocity": 0.25196850393700787,
                    "duration": 0.037499999999994316
                },
                {
                    "name": "D#7",
                    "midi": 99,
                    "time": 169.28000000000046,
                    "velocity": 0.2755905511811024,
                    "duration": 0.030000000000001137
                },
                {
                    "name": "C7",
                    "midi": 96,
                    "time": 169.31250000000045,
                    "velocity": 0.25196850393700787,
                    "duration": 0.030000000000001137
                },
                {
                    "name": "A#6",
                    "midi": 94,
                    "time": 169.34500000000045,
                    "velocity": 0.25196850393700787,
                    "duration": 0.030000000000001137
                },
                {
                    "name": "G#6",
                    "midi": 92,
                    "time": 169.37750000000045,
                    "velocity": 0.2440944881889764,
                    "duration": 0.030000000000001137
                },
                {
                    "name": "G6",
                    "midi": 91,
                    "time": 169.41000000000045,
                    "velocity": 0.2283464566929134,
                    "duration": 0.030000000000001137
                },
                {
                    "name": "A4",
                    "midi": 69,
                    "time": 170.10000000000045,
                    "velocity": 0.2755905511811024,
                    "duration": 0.25
                },
                {
                    "name": "D#5",
                    "midi": 75,
                    "time": 170.10000000000045,
                    "velocity": 0.2755905511811024,
                    "duration": 0.25
                },
                {
                    "name": "B5",
                    "midi": 83,
                    "time": 170.10000000000045,
                    "velocity": 0.2992125984251969,
                    "duration": 0.25
                },
                {
                    "name": "A4",
                    "midi": 69,
                    "time": 170.40000000000046,
                    "velocity": 0.2755905511811024,
                    "duration": 0.25
                },
                {
                    "name": "B5",
                    "midi": 83,
                    "time": 170.40000000000046,
                    "velocity": 0.3228346456692913,
                    "duration": 0.25
                },
                {
                    "name": "E5",
                    "midi": 76,
                    "time": 170.40000000000046,
                    "velocity": 0.28346456692913385,
                    "duration": 0.25
                },
                {
                    "name": "A4",
                    "midi": 69,
                    "time": 170.70000000000047,
                    "velocity": 0.29133858267716534,
                    "duration": 0.22499999999999432
                },
                {
                    "name": "F#5",
                    "midi": 78,
                    "time": 170.70000000000047,
                    "velocity": 0.29133858267716534,
                    "duration": 0.22499999999999432
                },
                {
                    "name": "B5",
                    "midi": 83,
                    "time": 170.70000000000047,
                    "velocity": 0.33858267716535434,
                    "duration": 0.22499999999999432
                },
                {
                    "name": "G#5",
                    "midi": 80,
                    "time": 171.00000000000045,
                    "velocity": 0.30708661417322836,
                    "duration": 0.30000000000001137
                },
                {
                    "name": "B5",
                    "midi": 83,
                    "time": 171.00000000000045,
                    "velocity": 0.3543307086614173,
                    "duration": 0.30000000000001137
                },
                {
                    "name": "G#6",
                    "midi": 92,
                    "time": 171.30000000000047,
                    "velocity": 0.3464566929133858,
                    "duration": 0.15000000000000568
                },
                {
                    "name": "E6",
                    "midi": 88,
                    "time": 171.30000000000047,
                    "velocity": 0.2992125984251969,
                    "duration": 0.15000000000000568
                },
                {
                    "name": "A#4",
                    "midi": 70,
                    "time": 171.60000000000048,
                    "velocity": 0.28346456692913385,
                    "duration": 0.03999999999999204
                },
                {
                    "name": "B4",
                    "midi": 71,
                    "time": 171.64000000000047,
                    "velocity": 0.25196850393700787,
                    "duration": 0.03999999999999204
                },
                {
                    "name": "G#5",
                    "midi": 80,
                    "time": 171.68000000000046,
                    "velocity": 0.28346456692913385,
                    "duration": 0.03999999999999204
                },
                {
                    "name": "F#5",
                    "midi": 78,
                    "time": 171.72000000000045,
                    "velocity": 0.2755905511811024,
                    "duration": 0.03999999999999204
                },
                {
                    "name": "E5",
                    "midi": 76,
                    "time": 171.76000000000045,
                    "velocity": 0.25984251968503935,
                    "duration": 0.03999999999999204
                },
                {
                    "name": "D#5",
                    "midi": 75,
                    "time": 171.80000000000044,
                    "velocity": 0.25984251968503935,
                    "duration": 0.03999999999999204
                },
                {
                    "name": "C#5",
                    "midi": 73,
                    "time": 171.84000000000043,
                    "velocity": 0.25196850393700787,
                    "duration": 0.03999999999999204
                },
                {
                    "name": "C#4",
                    "midi": 61,
                    "time": 172.50000000000043,
                    "velocity": 0.2440944881889764,
                    "duration": 0.30000000000001137
                },
                {
                    "name": "G4",
                    "midi": 67,
                    "time": 172.50000000000043,
                    "velocity": 0.2440944881889764,
                    "duration": 0.30000000000001137
                },
                {
                    "name": "A#4",
                    "midi": 70,
                    "time": 172.50000000000043,
                    "velocity": 0.28346456692913385,
                    "duration": 0.30000000000001137
                },
                {
                    "name": "D4",
                    "midi": 62,
                    "time": 172.80000000000044,
                    "velocity": 0.25984251968503935,
                    "duration": 0.27499999999997726
                },
                {
                    "name": "G#4",
                    "midi": 68,
                    "time": 172.80000000000044,
                    "velocity": 0.25984251968503935,
                    "duration": 0.27499999999997726
                },
                {
                    "name": "A#4",
                    "midi": 70,
                    "time": 172.80000000000044,
                    "velocity": 0.29133858267716534,
                    "duration": 0.27499999999997726
                },
                {
                    "name": "D4",
                    "midi": 62,
                    "time": 172.98750000000044,
                    "velocity": 0.23622047244094488,
                    "duration": 0.4124999999999659
                },
                {
                    "name": "G#4",
                    "midi": 68,
                    "time": 173.02500000000043,
                    "velocity": 0.2125984251968504,
                    "duration": 0.3749999999999716
                },
                {
                    "name": "D5",
                    "midi": 74,
                    "time": 173.06250000000043,
                    "velocity": 0.2440944881889764,
                    "duration": 0.037499999999994316
                },
                {
                    "name": "C5",
                    "midi": 72,
                    "time": 173.10000000000042,
                    "velocity": 0.28346456692913385,
                    "duration": 0.22499999999999432
                },
                {
                    "name": "A#4",
                    "midi": 70,
                    "time": 173.32500000000041,
                    "velocity": 0.25196850393700787,
                    "duration": 0.07499999999998863
                },
                {
                    "name": "A#4",
                    "midi": 70,
                    "time": 173.4000000000004,
                    "velocity": 0.2440944881889764,
                    "duration": 0.5749999999999886
                },
                {
                    "name": "D#4",
                    "midi": 63,
                    "time": 173.4000000000004,
                    "velocity": 0.2125984251968504,
                    "duration": 0.5749999999999886
                },
                {
                    "name": "G4",
                    "midi": 67,
                    "time": 173.4000000000004,
                    "velocity": 0.2125984251968504,
                    "duration": 0.5749999999999886
                },
                {
                    "name": "G3",
                    "midi": 55,
                    "time": 174.9000000000004,
                    "velocity": 0.25196850393700787,
                    "duration": 0.30000000000001137
                },
                {
                    "name": "A#3",
                    "midi": 58,
                    "time": 174.9000000000004,
                    "velocity": 0.25196850393700787,
                    "duration": 0.30000000000001137
                },
                {
                    "name": "C#4",
                    "midi": 61,
                    "time": 174.9000000000004,
                    "velocity": 0.28346456692913385,
                    "duration": 0.30000000000001137
                },
                {
                    "name": "G#3",
                    "midi": 56,
                    "time": 175.20000000000041,
                    "velocity": 0.25984251968503935,
                    "duration": 0.2750000000000057
                },
                {
                    "name": "A#3",
                    "midi": 58,
                    "time": 175.20000000000041,
                    "velocity": 0.25984251968503935,
                    "duration": 0.2750000000000057
                },
                {
                    "name": "D4",
                    "midi": 62,
                    "time": 175.20000000000041,
                    "velocity": 0.29133858267716534,
                    "duration": 0.2750000000000057
                },
                {
                    "name": "G#3",
                    "midi": 56,
                    "time": 175.50000000000043,
                    "velocity": 0.2440944881889764,
                    "duration": 0.22499999999999432
                },
                {
                    "name": "C4",
                    "midi": 60,
                    "time": 175.50000000000043,
                    "velocity": 0.28346456692913385,
                    "duration": 0.22499999999999432
                },
                {
                    "name": "D4",
                    "midi": 62,
                    "time": 175.50000000000043,
                    "velocity": 0.2440944881889764,
                    "duration": 0.29999999999998295
                },
                {
                    "name": "G3",
                    "midi": 55,
                    "time": 175.72500000000042,
                    "velocity": 0.2125984251968504,
                    "duration": 0.07499999999998863
                },
                {
                    "name": "A#3",
                    "midi": 58,
                    "time": 175.72500000000042,
                    "velocity": 0.2440944881889764,
                    "duration": 0.07499999999998863
                },
                {
                    "name": "G3",
                    "midi": 55,
                    "time": 175.8000000000004,
                    "velocity": 0.2125984251968504,
                    "duration": 0.5999999999999943
                },
                {
                    "name": "D#3",
                    "midi": 51,
                    "time": 175.8000000000004,
                    "velocity": 0.2125984251968504,
                    "duration": 0.5999999999999943
                },
                {
                    "name": "D#4",
                    "midi": 63,
                    "time": 175.8000000000004,
                    "velocity": 0.23622047244094488,
                    "duration": 0.5999999999999943
                },
                {
                    "name": "A6",
                    "midi": 93,
                    "time": 176.4000000000004,
                    "velocity": 0.28346456692913385,
                    "duration": 0.048750000000012506
                },
                {
                    "name": "A#6",
                    "midi": 94,
                    "time": 176.4550000000004,
                    "velocity": 0.2440944881889764,
                    "duration": 0.048750000000012506
                },
                {
                    "name": "D#7",
                    "midi": 99,
                    "time": 176.51000000000042,
                    "velocity": 0.28346456692913385,
                    "duration": 0.048750000000012506
                },
                {
                    "name": "C7",
                    "midi": 96,
                    "time": 176.56500000000042,
                    "velocity": 0.28346456692913385,
                    "duration": 0.048750000000012506
                },
                {
                    "name": "A#6",
                    "midi": 94,
                    "time": 176.62000000000043,
                    "velocity": 0.2755905511811024,
                    "duration": 0.048750000000012506
                },
                {
                    "name": "G#6",
                    "midi": 92,
                    "time": 176.67500000000044,
                    "velocity": 0.25984251968503935,
                    "duration": 0.048750000000012506
                },
                {
                    "name": "G6",
                    "midi": 91,
                    "time": 176.73000000000044,
                    "velocity": 0.25196850393700787,
                    "duration": 0.048750000000012506
                },
                {
                    "name": "A5",
                    "midi": 81,
                    "time": 177.00000000000045,
                    "velocity": 0.25984251968503935,
                    "duration": 0.03999999999999204
                },
                {
                    "name": "A#5",
                    "midi": 82,
                    "time": 177.04625000000044,
                    "velocity": 0.2755905511811024,
                    "duration": 0.03999999999999204
                },
                {
                    "name": "G6",
                    "midi": 91,
                    "time": 177.09250000000043,
                    "velocity": 0.28346456692913385,
                    "duration": 0.03999999999999204
                },
                {
                    "name": "D#6",
                    "midi": 87,
                    "time": 177.1387500000004,
                    "velocity": 0.28346456692913385,
                    "duration": 0.03999999999999204
                },
                {
                    "name": "D6",
                    "midi": 86,
                    "time": 177.1850000000004,
                    "velocity": 0.29133858267716534,
                    "duration": 0.03999999999999204
                },
                {
                    "name": "C6",
                    "midi": 84,
                    "time": 177.2312500000004,
                    "velocity": 0.2992125984251969,
                    "duration": 0.03999999999999204
                },
                {
                    "name": "A#5",
                    "midi": 82,
                    "time": 177.27750000000037,
                    "velocity": 0.30708661417322836,
                    "duration": 0.03999999999999204
                },
                {
                    "name": "A4",
                    "midi": 69,
                    "time": 177.60000000000036,
                    "velocity": 0.3464566929133858,
                    "duration": 0.048750000000012506
                },
                {
                    "name": "A#4",
                    "midi": 70,
                    "time": 177.65500000000037,
                    "velocity": 0.3543307086614173,
                    "duration": 0.048750000000012506
                },
                {
                    "name": "D#5",
                    "midi": 75,
                    "time": 177.71000000000038,
                    "velocity": 0.36220472440944884,
                    "duration": 0.048750000000012506
                },
                {
                    "name": "C5",
                    "midi": 72,
                    "time": 177.76500000000038,
                    "velocity": 0.3858267716535433,
                    "duration": 0.048750000000012506
                },
                {
                    "name": "A#4",
                    "midi": 70,
                    "time": 177.8200000000004,
                    "velocity": 0.4015748031496063,
                    "duration": 0.048750000000012506
                },
                {
                    "name": "G#4",
                    "midi": 68,
                    "time": 177.8750000000004,
                    "velocity": 0.41732283464566927,
                    "duration": 0.048750000000012506
                },
                {
                    "name": "G4",
                    "midi": 67,
                    "time": 177.9300000000004,
                    "velocity": 0.4330708661417323,
                    "duration": 0.048750000000012506
                },
                {
                    "name": "A3",
                    "midi": 57,
                    "time": 178.20000000000041,
                    "velocity": 0.41732283464566927,
                    "duration": 0.03999999999999204
                },
                {
                    "name": "A#3",
                    "midi": 58,
                    "time": 178.2462500000004,
                    "velocity": 0.4251968503937008,
                    "duration": 0.03999999999999204
                },
                {
                    "name": "G4",
                    "midi": 67,
                    "time": 178.2925000000004,
                    "velocity": 0.4409448818897638,
                    "duration": 0.03999999999999204
                },
                {
                    "name": "D#4",
                    "midi": 63,
                    "time": 178.33875000000037,
                    "velocity": 0.44881889763779526,
                    "duration": 0.03999999999999204
                },
                {
                    "name": "D4",
                    "midi": 62,
                    "time": 178.38500000000036,
                    "velocity": 0.4645669291338583,
                    "duration": 0.03999999999999204
                },
                {
                    "name": "C4",
                    "midi": 60,
                    "time": 178.43125000000035,
                    "velocity": 0.47244094488188976,
                    "duration": 0.03999999999999204
                },
                {
                    "name": "A#3",
                    "midi": 58,
                    "time": 178.47750000000033,
                    "velocity": 0.49606299212598426,
                    "duration": 0.03999999999999204
                },
                {
                    "name": "D#4",
                    "midi": 63,
                    "time": 179.10000000000034,
                    "velocity": 0.5433070866141733,
                    "duration": 0.30000000000001137
                },
                {
                    "name": "A#3",
                    "midi": 58,
                    "time": 179.10000000000034,
                    "velocity": 0.4881889763779528,
                    "duration": 0.30000000000001137
                },
                {
                    "name": "G3",
                    "midi": 55,
                    "time": 179.10000000000034,
                    "velocity": 0.4881889763779528,
                    "duration": 0.30000000000001137
                },
                {
                    "name": "D#3",
                    "midi": 51,
                    "time": 179.10000000000034,
                    "velocity": 0.4881889763779528,
                    "duration": 0.30000000000001137
                },
                {
                    "name": "D#4",
                    "midi": 63,
                    "time": 179.70000000000036,
                    "velocity": 0.5275590551181102,
                    "duration": 0.30000000000001137
                },
                {
                    "name": "B3",
                    "midi": 59,
                    "time": 179.70000000000036,
                    "velocity": 0.47244094488188976,
                    "duration": 0.30000000000001137
                },
                {
                    "name": "F#3",
                    "midi": 54,
                    "time": 179.70000000000036,
                    "velocity": 0.47244094488188976,
                    "duration": 0.30000000000001137
                },
                {
                    "name": "D#3",
                    "midi": 51,
                    "time": 179.70000000000036,
                    "velocity": 0.47244094488188976,
                    "duration": 0.30000000000001137
                },
                {
                    "name": "D#4",
                    "midi": 63,
                    "time": 180.00000000000037,
                    "velocity": 0.5275590551181102,
                    "duration": 0.30000000000001137
                },
                {
                    "name": "B3",
                    "midi": 59,
                    "time": 180.00000000000037,
                    "velocity": 0.48031496062992124,
                    "duration": 0.30000000000001137
                },
                {
                    "name": "G#3",
                    "midi": 56,
                    "time": 180.00000000000037,
                    "velocity": 0.48031496062992124,
                    "duration": 0.30000000000001137
                },
                {
                    "name": "D#3",
                    "midi": 51,
                    "time": 180.00000000000037,
                    "velocity": 0.48031496062992124,
                    "duration": 0.30000000000001137
                },
                {
                    "name": "F4",
                    "midi": 65,
                    "time": 180.30000000000038,
                    "velocity": 0.5275590551181102,
                    "duration": 0.30000000000001137
                },
                {
                    "name": "B3",
                    "midi": 59,
                    "time": 180.30000000000038,
                    "velocity": 0.48031496062992124,
                    "duration": 0.30000000000001137
                },
                {
                    "name": "G#3",
                    "midi": 56,
                    "time": 180.30000000000038,
                    "velocity": 0.48031496062992124,
                    "duration": 0.30000000000001137
                },
                {
                    "name": "F3",
                    "midi": 53,
                    "time": 180.30000000000038,
                    "velocity": 0.48031496062992124,
                    "duration": 0.30000000000001137
                },
                {
                    "name": "G3",
                    "midi": 55,
                    "time": 180.6000000000004,
                    "velocity": 0.5275590551181102,
                    "duration": 1.1999999999999886
                },
                {
                    "name": "A#3",
                    "midi": 58,
                    "time": 180.6000000000004,
                    "velocity": 0.5275590551181102,
                    "duration": 1.1999999999999886
                },
                {
                    "name": "D#4",
                    "midi": 63,
                    "time": 180.6000000000004,
                    "velocity": 0.5275590551181102,
                    "duration": 1.1999999999999886
                },
                {
                    "name": "G4",
                    "midi": 67,
                    "time": 180.6000000000004,
                    "velocity": 0.5905511811023622,
                    "duration": 1.1999999999999886
                },
                {
                    "name": "G3",
                    "midi": 55,
                    "time": 181.80000000000038,
                    "velocity": 0.5118110236220472,
                    "duration": 0.5999999999999943
                },
                {
                    "name": "A#3",
                    "midi": 58,
                    "time": 181.80000000000038,
                    "velocity": 0.5118110236220472,
                    "duration": 0.5999999999999943
                },
                {
                    "name": "D#4",
                    "midi": 63,
                    "time": 181.80000000000038,
                    "velocity": 0.5118110236220472,
                    "duration": 0.5999999999999943
                },
                {
                    "name": "G4",
                    "midi": 67,
                    "time": 181.80000000000038,
                    "velocity": 0.5748031496062992,
                    "duration": 0.5999999999999943
                },
                {
                    "name": "G3",
                    "midi": 55,
                    "time": 182.40000000000038,
                    "velocity": 0.5118110236220472,
                    "duration": 0.5999999999999943
                },
                {
                    "name": "A#3",
                    "midi": 58,
                    "time": 182.40000000000038,
                    "velocity": 0.5118110236220472,
                    "duration": 0.5999999999999943
                },
                {
                    "name": "D#4",
                    "midi": 63,
                    "time": 182.40000000000038,
                    "velocity": 0.5118110236220472,
                    "duration": 0.5999999999999943
                },
                {
                    "name": "G4",
                    "midi": 67,
                    "time": 182.40000000000038,
                    "velocity": 0.5748031496062992,
                    "duration": 0.5999999999999943
                },
                {
                    "name": "G3",
                    "midi": 55,
                    "time": 183.00000000000037,
                    "velocity": 0.5118110236220472,
                    "duration": 2.4000000000000057
                },
                {
                    "name": "A#3",
                    "midi": 58,
                    "time": 183.00000000000037,
                    "velocity": 0.5118110236220472,
                    "duration": 2.4000000000000057
                },
                {
                    "name": "D#4",
                    "midi": 63,
                    "time": 183.00000000000037,
                    "velocity": 0.5118110236220472,
                    "duration": 2.4000000000000057
                },
                {
                    "name": "G4",
                    "midi": 67,
                    "time": 183.00000000000037,
                    "velocity": 0.5748031496062992,
                    "duration": 2.4000000000000057
                }
            ],
            "controlChanges": {
                "7": [
                    {
                        "number": 7,
                        "time": 0,
                        "value": 0.7874015748031497
                    }
                ],
                "10": [
                    {
                        "number": 10,
                        "time": 0,
                        "value": 0.5039370078740157
                    }
                ],
                "91": [
                    {
                        "number": 91,
                        "time": 0,
                        "value": 1
                    },
                    {
                        "number": 91,
                        "time": 2.3,
                        "value": 1
                    }
                ]
            },
            "id": 1,
            "name": "Piano right",
            "instrumentNumber": 0,
            "instrument": "acoustic grand piano",
            "instrumentFamily": "piano",
            "channelNumber": 0,
            "isPercussion": false
        },
        {
            "startTime": 4.725,
            "duration": 185.39999999999972,
            "length": 1609,
            "notes": [
                {
                    "name": "D#4",
                    "midi": 63,
                    "time": 4.725,
                    "velocity": 0.44881889763779526,
                    "duration": 0.0625
                },
                {
                    "name": "D#4",
                    "midi": 63,
                    "time": 4.8,
                    "velocity": 0.4645669291338583,
                    "duration": 2.3125
                },
                {
                    "name": "D#4",
                    "midi": 63,
                    "time": 7.125,
                    "velocity": 0.4409448818897638,
                    "duration": 0.0625
                },
                {
                    "name": "D#4",
                    "midi": 63,
                    "time": 7.2,
                    "velocity": 0.4566929133858268,
                    "duration": 0.5625
                },
                {
                    "name": "D#4",
                    "midi": 63,
                    "time": 7.8,
                    "velocity": 0.4881889763779528,
                    "duration": 0.5625000000000009
                },
                {
                    "name": "D4",
                    "midi": 62,
                    "time": 8.4,
                    "velocity": 0.4251968503937008,
                    "duration": 0.5625
                },
                {
                    "name": "F3",
                    "midi": 53,
                    "time": 8.4,
                    "velocity": 0.4251968503937008,
                    "duration": 0.5625
                },
                {
                    "name": "F3",
                    "midi": 53,
                    "time": 9,
                    "velocity": 0.4251968503937008,
                    "duration": 0.40000000000000036
                },
                {
                    "name": "C4",
                    "midi": 60,
                    "time": 9,
                    "velocity": 0.5039370078740157,
                    "duration": 0.40000000000000036
                },
                {
                    "name": "A#2",
                    "midi": 46,
                    "time": 9.4125,
                    "velocity": 0.5118110236220472,
                    "duration": 1.3874999999999993
                },
                {
                    "name": "F3",
                    "midi": 53,
                    "time": 9.45,
                    "velocity": 0.4566929133858268,
                    "duration": 1.3499999999999996
                },
                {
                    "name": "A#3",
                    "midi": 58,
                    "time": 9.487499999999999,
                    "velocity": 0.4566929133858268,
                    "duration": 1.3125
                },
                {
                    "name": "A#1",
                    "midi": 34,
                    "time": 15.899999999999999,
                    "velocity": 0.6456692913385826,
                    "duration": 0.3000000000000007
                },
                {
                    "name": "A#1",
                    "midi": 34,
                    "time": 16.2,
                    "velocity": 0.36220472440944884,
                    "duration": 0.04499999999999815
                },
                {
                    "name": "C2",
                    "midi": 36,
                    "time": 16.244999999999997,
                    "velocity": 0.33858267716535434,
                    "duration": 0.045000000000001705
                },
                {
                    "name": "A#1",
                    "midi": 34,
                    "time": 16.29,
                    "velocity": 0.3779527559055118,
                    "duration": 0.045000000000001705
                },
                {
                    "name": "C2",
                    "midi": 36,
                    "time": 16.335,
                    "velocity": 0.3779527559055118,
                    "duration": 0.045000000000001705
                },
                {
                    "name": "A#1",
                    "midi": 34,
                    "time": 16.380000000000003,
                    "velocity": 0.4409448818897638,
                    "duration": 0.045000000000001705
                },
                {
                    "name": "C2",
                    "midi": 36,
                    "time": 16.425000000000004,
                    "velocity": 0.4094488188976378,
                    "duration": 0.045000000000001705
                },
                {
                    "name": "A#1",
                    "midi": 34,
                    "time": 16.470000000000006,
                    "velocity": 0.48031496062992124,
                    "duration": 0.045000000000001705
                },
                {
                    "name": "C2",
                    "midi": 36,
                    "time": 16.515000000000008,
                    "velocity": 0.4566929133858268,
                    "duration": 0.045000000000001705
                },
                {
                    "name": "A#1",
                    "midi": 34,
                    "time": 16.56000000000001,
                    "velocity": 0.5354330708661418,
                    "duration": 0.045000000000001705
                },
                {
                    "name": "C2",
                    "midi": 36,
                    "time": 16.60500000000001,
                    "velocity": 0.5196850393700787,
                    "duration": 0.045000000000001705
                },
                {
                    "name": "A#1",
                    "midi": 34,
                    "time": 16.650000000000013,
                    "velocity": 0.5748031496062992,
                    "duration": 0.05000000000000071
                },
                {
                    "name": "A1",
                    "midi": 33,
                    "time": 16.700000000000014,
                    "velocity": 0.6220472440944882,
                    "duration": 0.05000000000000071
                },
                {
                    "name": "A#1",
                    "midi": 34,
                    "time": 16.750000000000014,
                    "velocity": 0.5511811023622047,
                    "duration": 0.05000000000000071
                },
                {
                    "name": "A#2",
                    "midi": 46,
                    "time": 16.800000000000015,
                    "velocity": 0.6062992125984252,
                    "duration": 0.07499999999999929
                },
                {
                    "name": "D4",
                    "midi": 62,
                    "time": 17.025000000000013,
                    "velocity": 0.4251968503937008,
                    "duration": 0.22499999999999787
                },
                {
                    "name": "A#4",
                    "midi": 70,
                    "time": 17.037500000000012,
                    "velocity": 0.4251968503937008,
                    "duration": 0.21249999999999858
                },
                {
                    "name": "F5",
                    "midi": 77,
                    "time": 17.05000000000001,
                    "velocity": 0.4251968503937008,
                    "duration": 0.1999999999999993
                },
                {
                    "name": "F5",
                    "midi": 77,
                    "time": 18.98500000000001,
                    "velocity": 0.29133858267716534,
                    "duration": 0.048749999999998295
                },
                {
                    "name": "D#5",
                    "midi": 75,
                    "time": 19.04000000000001,
                    "velocity": 0.29133858267716534,
                    "duration": 0.048749999999998295
                },
                {
                    "name": "D5",
                    "midi": 74,
                    "time": 19.09500000000001,
                    "velocity": 0.28346456692913385,
                    "duration": 0.048749999999998295
                },
                {
                    "name": "C5",
                    "midi": 72,
                    "time": 19.15000000000001,
                    "velocity": 0.28346456692913385,
                    "duration": 0.04374999999999929
                },
                {
                    "name": "A#4",
                    "midi": 70,
                    "time": 19.20000000000001,
                    "velocity": 0.3228346456692913,
                    "duration": 0.11250000000000071
                },
                {
                    "name": "A#2",
                    "midi": 46,
                    "time": 19.50000000000001,
                    "velocity": 0.2125984251968504,
                    "duration": 0.11250000000000071
                },
                {
                    "name": "D#2",
                    "midi": 39,
                    "time": 19.50000000000001,
                    "velocity": 0.2125984251968504,
                    "duration": 0.11250000000000071
                },
                {
                    "name": "A#2",
                    "midi": 46,
                    "time": 19.80000000000001,
                    "velocity": 0.2125984251968504,
                    "duration": 0.11250000000000071
                },
                {
                    "name": "D#2",
                    "midi": 39,
                    "time": 19.80000000000001,
                    "velocity": 0.2125984251968504,
                    "duration": 0.11250000000000071
                },
                {
                    "name": "A#2",
                    "midi": 46,
                    "time": 20.100000000000012,
                    "velocity": 0.2125984251968504,
                    "duration": 0.11250000000000071
                },
                {
                    "name": "D#2",
                    "midi": 39,
                    "time": 20.100000000000012,
                    "velocity": 0.2125984251968504,
                    "duration": 0.11250000000000071
                },
                {
                    "name": "A#2",
                    "midi": 46,
                    "time": 20.400000000000013,
                    "velocity": 0.2283464566929134,
                    "duration": 0.5999999999999979
                },
                {
                    "name": "D#2",
                    "midi": 39,
                    "time": 20.400000000000013,
                    "velocity": 0.2283464566929134,
                    "duration": 0.5999999999999979
                },
                {
                    "name": "F5",
                    "midi": 77,
                    "time": 21.42500000000001,
                    "velocity": 0.29133858267716534,
                    "duration": 0.036249999999999005
                },
                {
                    "name": "D#5",
                    "midi": 75,
                    "time": 21.467500000000012,
                    "velocity": 0.29133858267716534,
                    "duration": 0.036249999999999005
                },
                {
                    "name": "D5",
                    "midi": 74,
                    "time": 21.510000000000012,
                    "velocity": 0.28346456692913385,
                    "duration": 0.036249999999999005
                },
                {
                    "name": "C5",
                    "midi": 72,
                    "time": 21.552500000000013,
                    "velocity": 0.28346456692913385,
                    "duration": 0.04125000000000156
                },
                {
                    "name": "A#4",
                    "midi": 70,
                    "time": 21.600000000000016,
                    "velocity": 0.3228346456692913,
                    "duration": 0.11250000000000071
                },
                {
                    "name": "A#2",
                    "midi": 46,
                    "time": 21.900000000000016,
                    "velocity": 0.2125984251968504,
                    "duration": 0.11250000000000071
                },
                {
                    "name": "D#2",
                    "midi": 39,
                    "time": 21.900000000000016,
                    "velocity": 0.2125984251968504,
                    "duration": 0.11250000000000071
                },
                {
                    "name": "D#2",
                    "midi": 39,
                    "time": 22.200000000000017,
                    "velocity": 0.2283464566929134,
                    "duration": 0.11250000000000071
                },
                {
                    "name": "A#2",
                    "midi": 46,
                    "time": 22.200000000000017,
                    "velocity": 0.2283464566929134,
                    "duration": 0.11250000000000071
                },
                {
                    "name": "D#2",
                    "midi": 39,
                    "time": 22.500000000000018,
                    "velocity": 0.2125984251968504,
                    "duration": 0.11250000000000071
                },
                {
                    "name": "A#2",
                    "midi": 46,
                    "time": 22.500000000000018,
                    "velocity": 0.2125984251968504,
                    "duration": 0.11250000000000071
                },
                {
                    "name": "D#2",
                    "midi": 39,
                    "time": 22.80000000000002,
                    "velocity": 0.2125984251968504,
                    "duration": 0.5749999999999993
                },
                {
                    "name": "A#2",
                    "midi": 46,
                    "time": 22.80000000000002,
                    "velocity": 0.2125984251968504,
                    "duration": 0.5749999999999993
                },
                {
                    "name": "F6",
                    "midi": 89,
                    "time": 23.642500000000016,
                    "velocity": 0.29133858267716534,
                    "duration": 0.030000000000001137
                },
                {
                    "name": "D#6",
                    "midi": 87,
                    "time": 23.67500000000002,
                    "velocity": 0.29133858267716534,
                    "duration": 0.030000000000001137
                },
                {
                    "name": "D6",
                    "midi": 86,
                    "time": 23.70750000000002,
                    "velocity": 0.28346456692913385,
                    "duration": 0.030000000000001137
                },
                {
                    "name": "C6",
                    "midi": 84,
                    "time": 23.740000000000023,
                    "velocity": 0.28346456692913385,
                    "duration": 0.030000000000001137
                },
                {
                    "name": "A#5",
                    "midi": 82,
                    "time": 23.772500000000026,
                    "velocity": 0.28346456692913385,
                    "duration": 0.030000000000001137
                },
                {
                    "name": "G#5",
                    "midi": 80,
                    "time": 23.805000000000028,
                    "velocity": 0.28346456692913385,
                    "duration": 0.030000000000001137
                },
                {
                    "name": "G5",
                    "midi": 79,
                    "time": 23.83750000000003,
                    "velocity": 0.28346456692913385,
                    "duration": 0.030000000000001137
                },
                {
                    "name": "F5",
                    "midi": 77,
                    "time": 23.870000000000033,
                    "velocity": 0.28346456692913385,
                    "duration": 0.030000000000001137
                },
                {
                    "name": "D#5",
                    "midi": 75,
                    "time": 23.902500000000035,
                    "velocity": 0.28346456692913385,
                    "duration": 0.030000000000001137
                },
                {
                    "name": "D5",
                    "midi": 74,
                    "time": 23.935000000000038,
                    "velocity": 0.28346456692913385,
                    "duration": 0.030000000000001137
                },
                {
                    "name": "C5",
                    "midi": 72,
                    "time": 23.970000000000038,
                    "velocity": 0.28346456692913385,
                    "duration": 0.030000000000001137
                },
                {
                    "name": "A#4",
                    "midi": 70,
                    "time": 24.00000000000004,
                    "velocity": 0.3228346456692913,
                    "duration": 0.11250000000000071
                },
                {
                    "name": "D#2",
                    "midi": 39,
                    "time": 24.30000000000004,
                    "velocity": 0.2283464566929134,
                    "duration": 0.11250000000000071
                },
                {
                    "name": "A#2",
                    "midi": 46,
                    "time": 24.30000000000004,
                    "velocity": 0.2283464566929134,
                    "duration": 0.11250000000000071
                },
                {
                    "name": "D#2",
                    "midi": 39,
                    "time": 24.60000000000004,
                    "velocity": 0.25196850393700787,
                    "duration": 0.11250000000000071
                },
                {
                    "name": "A#2",
                    "midi": 46,
                    "time": 24.60000000000004,
                    "velocity": 0.25196850393700787,
                    "duration": 0.11250000000000071
                },
                {
                    "name": "D#2",
                    "midi": 39,
                    "time": 24.90000000000004,
                    "velocity": 0.23622047244094488,
                    "duration": 0.11250000000000071
                },
                {
                    "name": "A#2",
                    "midi": 46,
                    "time": 24.90000000000004,
                    "velocity": 0.23622047244094488,
                    "duration": 0.11250000000000071
                },
                {
                    "name": "D#2",
                    "midi": 39,
                    "time": 25.200000000000042,
                    "velocity": 0.25196850393700787,
                    "duration": 0.5999999999999979
                },
                {
                    "name": "A#2",
                    "midi": 46,
                    "time": 25.200000000000042,
                    "velocity": 0.25196850393700787,
                    "duration": 0.5999999999999979
                },
                {
                    "name": "F6",
                    "midi": 89,
                    "time": 26.09750000000004,
                    "velocity": 0.29133858267716534,
                    "duration": 0.02499999999999858
                },
                {
                    "name": "D#6",
                    "midi": 87,
                    "time": 26.12500000000004,
                    "velocity": 0.29133858267716534,
                    "duration": 0.02499999999999858
                },
                {
                    "name": "D6",
                    "midi": 86,
                    "time": 26.15250000000004,
                    "velocity": 0.28346456692913385,
                    "duration": 0.02499999999999858
                },
                {
                    "name": "C6",
                    "midi": 84,
                    "time": 26.18000000000004,
                    "velocity": 0.28346456692913385,
                    "duration": 0.02499999999999858
                },
                {
                    "name": "A#5",
                    "midi": 82,
                    "time": 26.20750000000004,
                    "velocity": 0.28346456692913385,
                    "duration": 0.02499999999999858
                },
                {
                    "name": "G#5",
                    "midi": 80,
                    "time": 26.23500000000004,
                    "velocity": 0.28346456692913385,
                    "duration": 0.02499999999999858
                },
                {
                    "name": "G5",
                    "midi": 79,
                    "time": 26.26250000000004,
                    "velocity": 0.28346456692913385,
                    "duration": 0.02499999999999858
                },
                {
                    "name": "F5",
                    "midi": 77,
                    "time": 26.29000000000004,
                    "velocity": 0.28346456692913385,
                    "duration": 0.02499999999999858
                },
                {
                    "name": "D#5",
                    "midi": 75,
                    "time": 26.317500000000038,
                    "velocity": 0.28346456692913385,
                    "duration": 0.02499999999999858
                },
                {
                    "name": "D5",
                    "midi": 74,
                    "time": 26.345000000000038,
                    "velocity": 0.28346456692913385,
                    "duration": 0.02499999999999858
                },
                {
                    "name": "C5",
                    "midi": 72,
                    "time": 26.372500000000038,
                    "velocity": 0.28346456692913385,
                    "duration": 0.02499999999999858
                },
                {
                    "name": "A#4",
                    "midi": 70,
                    "time": 26.400000000000038,
                    "velocity": 0.3228346456692913,
                    "duration": 0.11250000000000071
                },
                {
                    "name": "D#2",
                    "midi": 39,
                    "time": 26.70000000000004,
                    "velocity": 0.2440944881889764,
                    "duration": 0.11250000000000071
                },
                {
                    "name": "A#2",
                    "midi": 46,
                    "time": 26.70000000000004,
                    "velocity": 0.2440944881889764,
                    "duration": 0.11250000000000071
                },
                {
                    "name": "D#2",
                    "midi": 39,
                    "time": 27.00000000000004,
                    "velocity": 0.25196850393700787,
                    "duration": 0.11250000000000071
                },
                {
                    "name": "B2",
                    "midi": 47,
                    "time": 27.00000000000004,
                    "velocity": 0.25196850393700787,
                    "duration": 0.11250000000000071
                },
                {
                    "name": "A#2",
                    "midi": 46,
                    "time": 27.30000000000004,
                    "velocity": 0.2440944881889764,
                    "duration": 0.11250000000000071
                },
                {
                    "name": "D#2",
                    "midi": 39,
                    "time": 27.30000000000004,
                    "velocity": 0.2440944881889764,
                    "duration": 0.11250000000000071
                },
                {
                    "name": "D#2",
                    "midi": 39,
                    "time": 27.60000000000004,
                    "velocity": 0.2283464566929134,
                    "duration": 0.5749999999999993
                },
                {
                    "name": "D#3",
                    "midi": 51,
                    "time": 27.60000000000004,
                    "velocity": 0.2283464566929134,
                    "duration": 0.5749999999999993
                },
                {
                    "name": "A#2",
                    "midi": 46,
                    "time": 27.60000000000004,
                    "velocity": 0.2283464566929134,
                    "duration": 0.5749999999999993
                },
                {
                    "name": "A#2",
                    "midi": 46,
                    "time": 28.20000000000004,
                    "velocity": 0.41732283464566927,
                    "duration": 0.04875000000000185
                },
                {
                    "name": "A2",
                    "midi": 45,
                    "time": 28.25000000000004,
                    "velocity": 0.41732283464566927,
                    "duration": 0.048749999999998295
                },
                {
                    "name": "G#2",
                    "midi": 44,
                    "time": 28.300000000000036,
                    "velocity": 0.41732283464566927,
                    "duration": 0.048749999999998295
                },
                {
                    "name": "G2",
                    "midi": 43,
                    "time": 28.350000000000033,
                    "velocity": 0.41732283464566927,
                    "duration": 0.048749999999998295
                },
                {
                    "name": "F#2",
                    "midi": 42,
                    "time": 28.40000000000003,
                    "velocity": 0.41732283464566927,
                    "duration": 0.048749999999998295
                },
                {
                    "name": "F2",
                    "midi": 41,
                    "time": 28.450000000000028,
                    "velocity": 0.41732283464566927,
                    "duration": 0.048749999999998295
                },
                {
                    "name": "E2",
                    "midi": 40,
                    "time": 28.500000000000025,
                    "velocity": 0.4330708661417323,
                    "duration": 0.048749999999998295
                },
                {
                    "name": "D#2",
                    "midi": 39,
                    "time": 28.550000000000022,
                    "velocity": 0.44881889763779526,
                    "duration": 0.048749999999998295
                },
                {
                    "name": "D2",
                    "midi": 38,
                    "time": 28.60000000000002,
                    "velocity": 0.4645669291338583,
                    "duration": 0.048749999999998295
                },
                {
                    "name": "C#2",
                    "midi": 37,
                    "time": 28.650000000000016,
                    "velocity": 0.4881889763779528,
                    "duration": 0.048749999999998295
                },
                {
                    "name": "C2",
                    "midi": 36,
                    "time": 28.700000000000014,
                    "velocity": 0.49606299212598426,
                    "duration": 0.048749999999998295
                },
                {
                    "name": "B1",
                    "midi": 35,
                    "time": 28.75000000000001,
                    "velocity": 0.5118110236220472,
                    "duration": 0.048749999999998295
                },
                {
                    "name": "A#1",
                    "midi": 34,
                    "time": 28.800000000000008,
                    "velocity": 0.6299212598425197,
                    "duration": 0.07500000000000284
                },
                {
                    "name": "A#2",
                    "midi": 46,
                    "time": 29.100000000000012,
                    "velocity": 0.3228346456692913,
                    "duration": 0.11250000000000071
                },
                {
                    "name": "F3",
                    "midi": 53,
                    "time": 29.100000000000012,
                    "velocity": 0.3228346456692913,
                    "duration": 0.11250000000000071
                },
                {
                    "name": "F#3",
                    "midi": 54,
                    "time": 29.400000000000013,
                    "velocity": 0.3543307086614173,
                    "duration": 0.11250000000000071
                },
                {
                    "name": "A#2",
                    "midi": 46,
                    "time": 29.400000000000013,
                    "velocity": 0.3543307086614173,
                    "duration": 0.11250000000000071
                },
                {
                    "name": "A#2",
                    "midi": 46,
                    "time": 29.700000000000014,
                    "velocity": 0.33858267716535434,
                    "duration": 0.11250000000000071
                },
                {
                    "name": "G3",
                    "midi": 55,
                    "time": 29.700000000000014,
                    "velocity": 0.33858267716535434,
                    "duration": 0.11250000000000071
                },
                {
                    "name": "A#2",
                    "midi": 46,
                    "time": 30.000000000000014,
                    "velocity": 0.3543307086614173,
                    "duration": 0.5999999999999979
                },
                {
                    "name": "A#3",
                    "midi": 58,
                    "time": 30.000000000000014,
                    "velocity": 0.3543307086614173,
                    "duration": 0.29749999999999943
                },
                {
                    "name": "F3",
                    "midi": 53,
                    "time": 30.300000000000015,
                    "velocity": 0.3464566929133858,
                    "duration": 0.14999999999999858
                },
                {
                    "name": "A#1",
                    "midi": 34,
                    "time": 30.600000000000012,
                    "velocity": 0.4330708661417323,
                    "duration": 0.045000000000001705
                },
                {
                    "name": "C2",
                    "midi": 36,
                    "time": 30.646250000000013,
                    "velocity": 0.4409448818897638,
                    "duration": 0.045000000000001705
                },
                {
                    "name": "D2",
                    "midi": 38,
                    "time": 30.692500000000013,
                    "velocity": 0.44881889763779526,
                    "duration": 0.045000000000001705
                },
                {
                    "name": "D#2",
                    "midi": 39,
                    "time": 30.738750000000014,
                    "velocity": 0.4645669291338583,
                    "duration": 0.045000000000001705
                },
                {
                    "name": "F2",
                    "midi": 41,
                    "time": 30.785000000000014,
                    "velocity": 0.47244094488188976,
                    "duration": 0.045000000000001705
                },
                {
                    "name": "G2",
                    "midi": 43,
                    "time": 30.831250000000015,
                    "velocity": 0.4881889763779528,
                    "duration": 0.045000000000001705
                },
                {
                    "name": "A2",
                    "midi": 45,
                    "time": 30.877500000000015,
                    "velocity": 0.49606299212598426,
                    "duration": 0.045000000000001705
                },
                {
                    "name": "A#2",
                    "midi": 46,
                    "time": 30.923750000000016,
                    "velocity": 0.49606299212598426,
                    "duration": 0.045000000000001705
                },
                {
                    "name": "C3",
                    "midi": 48,
                    "time": 30.970000000000017,
                    "velocity": 0.5039370078740157,
                    "duration": 0.045000000000001705
                },
                {
                    "name": "D3",
                    "midi": 50,
                    "time": 31.016250000000017,
                    "velocity": 0.5118110236220472,
                    "duration": 0.045000000000001705
                },
                {
                    "name": "D#3",
                    "midi": 51,
                    "time": 31.062500000000018,
                    "velocity": 0.5275590551181102,
                    "duration": 0.045000000000001705
                },
                {
                    "name": "E3",
                    "midi": 52,
                    "time": 31.10875000000002,
                    "velocity": 0.5433070866141733,
                    "duration": 0.045000000000001705
                },
                {
                    "name": "G3",
                    "midi": 55,
                    "time": 31.15500000000002,
                    "velocity": 0.5511811023622047,
                    "duration": 0.04374999999999929
                },
                {
                    "name": "F3",
                    "midi": 53,
                    "time": 31.200000000000017,
                    "velocity": 0.49606299212598426,
                    "duration": 1.5
                },
                {
                    "name": "F2",
                    "midi": 41,
                    "time": 31.500000000000018,
                    "velocity": 0.3228346456692913,
                    "duration": 0.11250000000000071
                },
                {
                    "name": "A#2",
                    "midi": 46,
                    "time": 31.500000000000018,
                    "velocity": 0.3228346456692913,
                    "duration": 0.11250000000000071
                },
                {
                    "name": "C3",
                    "midi": 48,
                    "time": 31.80000000000002,
                    "velocity": 0.3464566929133858,
                    "duration": 0.11250000000000071
                },
                {
                    "name": "F2",
                    "midi": 41,
                    "time": 31.80000000000002,
                    "velocity": 0.3464566929133858,
                    "duration": 0.11250000000000071
                },
                {
                    "name": "D3",
                    "midi": 50,
                    "time": 32.10000000000002,
                    "velocity": 0.33858267716535434,
                    "duration": 0.11249999999999716
                },
                {
                    "name": "F2",
                    "midi": 41,
                    "time": 32.10000000000002,
                    "velocity": 0.33858267716535434,
                    "duration": 0.11249999999999716
                },
                {
                    "name": "A#2",
                    "midi": 46,
                    "time": 32.40000000000002,
                    "velocity": 0.3464566929133858,
                    "duration": 0.5999999999999943
                },
                {
                    "name": "A#1",
                    "midi": 34,
                    "time": 32.70000000000002,
                    "velocity": 0.3779527559055118,
                    "duration": 0.14999999999999858
                },
                {
                    "name": "F#4",
                    "midi": 66,
                    "time": 33.20000000000002,
                    "velocity": 0.4566929133858268,
                    "duration": 0.048749999999998295
                },
                {
                    "name": "F4",
                    "midi": 65,
                    "time": 33.250000000000014,
                    "velocity": 0.4566929133858268,
                    "duration": 0.048749999999998295
                },
                {
                    "name": "E4",
                    "midi": 64,
                    "time": 33.30000000000001,
                    "velocity": 0.47244094488188976,
                    "duration": 0.048749999999998295
                },
                {
                    "name": "D#4",
                    "midi": 63,
                    "time": 33.35000000000001,
                    "velocity": 0.49606299212598426,
                    "duration": 0.048749999999998295
                },
                {
                    "name": "F3",
                    "midi": 53,
                    "time": 33.900000000000006,
                    "velocity": 0.3464566929133858,
                    "duration": 0.11249999999999716
                },
                {
                    "name": "A#3",
                    "midi": 58,
                    "time": 33.900000000000006,
                    "velocity": 0.3464566929133858,
                    "duration": 0.11249999999999716
                },
                {
                    "name": "A#2",
                    "midi": 46,
                    "time": 33.900000000000006,
                    "velocity": 0.3464566929133858,
                    "duration": 0.11249999999999716
                },
                {
                    "name": "C4",
                    "midi": 60,
                    "time": 34.2,
                    "velocity": 0.3779527559055118,
                    "duration": 0.11249999999999716
                },
                {
                    "name": "F#3",
                    "midi": 54,
                    "time": 34.2,
                    "velocity": 0.3779527559055118,
                    "duration": 0.11249999999999716
                },
                {
                    "name": "A#2",
                    "midi": 46,
                    "time": 34.2,
                    "velocity": 0.3779527559055118,
                    "duration": 0.11249999999999716
                },
                {
                    "name": "G3",
                    "midi": 55,
                    "time": 34.5,
                    "velocity": 0.3543307086614173,
                    "duration": 0.11249999999999716
                },
                {
                    "name": "A#2",
                    "midi": 46,
                    "time": 34.5,
                    "velocity": 0.3543307086614173,
                    "duration": 0.11249999999999716
                },
                {
                    "name": "C#4",
                    "midi": 61,
                    "time": 34.5,
                    "velocity": 0.3779527559055118,
                    "duration": 0.11249999999999716
                },
                {
                    "name": "F3",
                    "midi": 53,
                    "time": 34.8,
                    "velocity": 0.36220472440944884,
                    "duration": 0.6000000000000014
                },
                {
                    "name": "A#2",
                    "midi": 46,
                    "time": 34.8,
                    "velocity": 0.36220472440944884,
                    "duration": 0.6000000000000014
                },
                {
                    "name": "D4",
                    "midi": 62,
                    "time": 34.8,
                    "velocity": 0.41732283464566927,
                    "duration": 0.29999999999999716
                },
                {
                    "name": "A#3",
                    "midi": 58,
                    "time": 35.099999999999994,
                    "velocity": 0.4094488188976378,
                    "duration": 0.15000000000000568
                },
                {
                    "name": "A#2",
                    "midi": 46,
                    "time": 35.4,
                    "velocity": 0.3858267716535433,
                    "duration": 0.045000000000001705
                },
                {
                    "name": "C3",
                    "midi": 48,
                    "time": 35.44625,
                    "velocity": 0.3937007874015748,
                    "duration": 0.045000000000001705
                },
                {
                    "name": "D3",
                    "midi": 50,
                    "time": 35.4925,
                    "velocity": 0.4015748031496063,
                    "duration": 0.045000000000001705
                },
                {
                    "name": "D#3",
                    "midi": 51,
                    "time": 35.53875,
                    "velocity": 0.41732283464566927,
                    "duration": 0.045000000000001705
                },
                {
                    "name": "F3",
                    "midi": 53,
                    "time": 35.585,
                    "velocity": 0.4251968503937008,
                    "duration": 0.045000000000001705
                },
                {
                    "name": "G3",
                    "midi": 55,
                    "time": 35.63125,
                    "velocity": 0.4330708661417323,
                    "duration": 0.045000000000001705
                },
                {
                    "name": "A3",
                    "midi": 57,
                    "time": 35.6775,
                    "velocity": 0.4330708661417323,
                    "duration": 0.045000000000001705
                },
                {
                    "name": "A#3",
                    "midi": 58,
                    "time": 35.72375,
                    "velocity": 0.4409448818897638,
                    "duration": 0.045000000000001705
                },
                {
                    "name": "F3",
                    "midi": 53,
                    "time": 36.300000000000004,
                    "velocity": 0.2755905511811024,
                    "duration": 0.29999999999999716
                },
                {
                    "name": "B3",
                    "midi": 59,
                    "time": 36.300000000000004,
                    "velocity": 0.2755905511811024,
                    "duration": 0.29999999999999716
                },
                {
                    "name": "F3",
                    "midi": 53,
                    "time": 36.6,
                    "velocity": 0.28346456692913385,
                    "duration": 0.29999999999999716
                },
                {
                    "name": "C4",
                    "midi": 60,
                    "time": 36.6,
                    "velocity": 0.28346456692913385,
                    "duration": 0.29999999999999716
                },
                {
                    "name": "F3",
                    "midi": 53,
                    "time": 36.9,
                    "velocity": 0.25196850393700787,
                    "duration": 0.30000000000000426
                },
                {
                    "name": "F4",
                    "midi": 65,
                    "time": 36.9,
                    "velocity": 0.28346456692913385,
                    "duration": 0.22500000000000142
                },
                {
                    "name": "A3",
                    "midi": 57,
                    "time": 36.9,
                    "velocity": 0.25196850393700787,
                    "duration": 0.30000000000000426
                },
                {
                    "name": "A#2",
                    "midi": 46,
                    "time": 37.125,
                    "velocity": 0.25196850393700787,
                    "duration": 0.6500000000000057
                },
                {
                    "name": "F3",
                    "midi": 53,
                    "time": 37.1375,
                    "velocity": 0.25196850393700787,
                    "duration": 0.6375000000000028
                },
                {
                    "name": "D4",
                    "midi": 62,
                    "time": 37.150000000000006,
                    "velocity": 0.28346456692913385,
                    "duration": 0.625
                },
                {
                    "name": "C3",
                    "midi": 48,
                    "time": 38.7,
                    "velocity": 0.4015748031496063,
                    "duration": 0.04999999999999716
                },
                {
                    "name": "C#3",
                    "midi": 49,
                    "time": 38.75,
                    "velocity": 0.41732283464566927,
                    "duration": 0.04999999999999716
                },
                {
                    "name": "C3",
                    "midi": 48,
                    "time": 38.8,
                    "velocity": 0.4251968503937008,
                    "duration": 0.04999999999999716
                },
                {
                    "name": "B2",
                    "midi": 47,
                    "time": 38.849999999999994,
                    "velocity": 0.4409448818897638,
                    "duration": 0.04999999999999716
                },
                {
                    "name": "A#2",
                    "midi": 46,
                    "time": 38.89999999999999,
                    "velocity": 0.44881889763779526,
                    "duration": 0.04999999999999716
                },
                {
                    "name": "A2",
                    "midi": 45,
                    "time": 38.94999999999999,
                    "velocity": 0.4566929133858268,
                    "duration": 0.04999999999999716
                },
                {
                    "name": "G#2",
                    "midi": 44,
                    "time": 38.999999999999986,
                    "velocity": 0.47244094488188976,
                    "duration": 0.11249999999999716
                },
                {
                    "name": "F2",
                    "midi": 41,
                    "time": 39.29999999999998,
                    "velocity": 0.4094488188976378,
                    "duration": 0.042499999999996874
                },
                {
                    "name": "F#2",
                    "midi": 42,
                    "time": 39.34249999999998,
                    "velocity": 0.4015748031496063,
                    "duration": 0.042499999999996874
                },
                {
                    "name": "F2",
                    "midi": 41,
                    "time": 39.38499999999998,
                    "velocity": 0.3937007874015748,
                    "duration": 0.042499999999996874
                },
                {
                    "name": "E2",
                    "midi": 40,
                    "time": 39.427499999999974,
                    "velocity": 0.3937007874015748,
                    "duration": 0.042499999999996874
                },
                {
                    "name": "D#2",
                    "midi": 39,
                    "time": 39.46999999999997,
                    "velocity": 0.3858267716535433,
                    "duration": 0.042499999999996874
                },
                {
                    "name": "D2",
                    "midi": 38,
                    "time": 39.51249999999997,
                    "velocity": 0.3779527559055118,
                    "duration": 0.04375000000000284
                },
                {
                    "name": "C#2",
                    "midi": 37,
                    "time": 39.55624999999997,
                    "velocity": 0.36220472440944884,
                    "duration": 0.04375000000000284
                },
                {
                    "name": "C2",
                    "midi": 36,
                    "time": 39.59999999999997,
                    "velocity": 0.3228346456692913,
                    "duration": 0.29999999999999716
                },
                {
                    "name": "E3",
                    "midi": 52,
                    "time": 39.89999999999997,
                    "velocity": 0.28346456692913385,
                    "duration": 0.11250000000000426
                },
                {
                    "name": "C3",
                    "midi": 48,
                    "time": 41.09999999999997,
                    "velocity": 0.4015748031496063,
                    "duration": 0.29999999999998295
                },
                {
                    "name": "C4",
                    "midi": 60,
                    "time": 41.09999999999997,
                    "velocity": 0.4015748031496063,
                    "duration": 0.04999999999999716
                },
                {
                    "name": "C#4",
                    "midi": 61,
                    "time": 41.14999999999997,
                    "velocity": 0.41732283464566927,
                    "duration": 0.04999999999999716
                },
                {
                    "name": "C4",
                    "midi": 60,
                    "time": 41.19999999999997,
                    "velocity": 0.4251968503937008,
                    "duration": 0.04999999999999716
                },
                {
                    "name": "B3",
                    "midi": 59,
                    "time": 41.249999999999964,
                    "velocity": 0.4409448818897638,
                    "duration": 0.04999999999999716
                },
                {
                    "name": "A#3",
                    "midi": 58,
                    "time": 41.29999999999996,
                    "velocity": 0.44881889763779526,
                    "duration": 0.04999999999999716
                },
                {
                    "name": "A3",
                    "midi": 57,
                    "time": 41.34999999999996,
                    "velocity": 0.4566929133858268,
                    "duration": 0.04999999999999716
                },
                {
                    "name": "G#2",
                    "midi": 44,
                    "time": 41.399999999999956,
                    "velocity": 0.47244094488188976,
                    "duration": 0.11249999999999716
                },
                {
                    "name": "G#3",
                    "midi": 56,
                    "time": 41.399999999999956,
                    "velocity": 0.47244094488188976,
                    "duration": 0.11249999999999716
                },
                {
                    "name": "F2",
                    "midi": 41,
                    "time": 41.69999999999995,
                    "velocity": 0.4094488188976378,
                    "duration": 0.29999999999999005
                },
                {
                    "name": "F3",
                    "midi": 53,
                    "time": 41.69999999999995,
                    "velocity": 0.4094488188976378,
                    "duration": 0.042499999999996874
                },
                {
                    "name": "G3",
                    "midi": 55,
                    "time": 41.74249999999995,
                    "velocity": 0.4015748031496063,
                    "duration": 0.042499999999996874
                },
                {
                    "name": "F3",
                    "midi": 53,
                    "time": 41.78499999999995,
                    "velocity": 0.3937007874015748,
                    "duration": 0.042499999999996874
                },
                {
                    "name": "E3",
                    "midi": 52,
                    "time": 41.827499999999944,
                    "velocity": 0.3937007874015748,
                    "duration": 0.042499999999996874
                },
                {
                    "name": "D#3",
                    "midi": 51,
                    "time": 41.86999999999994,
                    "velocity": 0.3858267716535433,
                    "duration": 0.042499999999996874
                },
                {
                    "name": "D3",
                    "midi": 50,
                    "time": 41.91249999999994,
                    "velocity": 0.3779527559055118,
                    "duration": 0.04375000000000284
                },
                {
                    "name": "C#3",
                    "midi": 49,
                    "time": 41.95624999999994,
                    "velocity": 0.36220472440944884,
                    "duration": 0.04375000000000284
                },
                {
                    "name": "C3",
                    "midi": 48,
                    "time": 41.99999999999994,
                    "velocity": 0.3228346456692913,
                    "duration": 0.30000000000000426
                },
                {
                    "name": "C2",
                    "midi": 36,
                    "time": 41.99999999999994,
                    "velocity": 0.3228346456692913,
                    "duration": 0.30000000000000426
                },
                {
                    "name": "E4",
                    "midi": 64,
                    "time": 42.29999999999995,
                    "velocity": 0.28346456692913385,
                    "duration": 0.11249999999999716
                },
                {
                    "name": "G3",
                    "midi": 55,
                    "time": 42.29999999999995,
                    "velocity": 0.28346456692913385,
                    "duration": 0.11249999999999716
                },
                {
                    "name": "C5",
                    "midi": 72,
                    "time": 42.599999999999945,
                    "velocity": 0.3937007874015748,
                    "duration": 0.5400000000000205
                },
                {
                    "name": "G#5",
                    "midi": 80,
                    "time": 42.599999999999945,
                    "velocity": 0.3937007874015748,
                    "duration": 0.060000000000002274
                },
                {
                    "name": "G5",
                    "midi": 79,
                    "time": 42.65999999999995,
                    "velocity": 0.3779527559055118,
                    "duration": 0.060000000000002274
                },
                {
                    "name": "F#5",
                    "midi": 78,
                    "time": 42.71999999999995,
                    "velocity": 0.3858267716535433,
                    "duration": 0.060000000000002274
                },
                {
                    "name": "F5",
                    "midi": 77,
                    "time": 42.77999999999995,
                    "velocity": 0.3937007874015748,
                    "duration": 0.060000000000002274
                },
                {
                    "name": "E5",
                    "midi": 76,
                    "time": 42.839999999999954,
                    "velocity": 0.4094488188976378,
                    "duration": 0.060000000000002274
                },
                {
                    "name": "D#5",
                    "midi": 75,
                    "time": 42.899999999999956,
                    "velocity": 0.4251968503937008,
                    "duration": 0.060000000000002274
                },
                {
                    "name": "D5",
                    "midi": 74,
                    "time": 42.95999999999996,
                    "velocity": 0.4330708661417323,
                    "duration": 0.060000000000002274
                },
                {
                    "name": "C#5",
                    "midi": 73,
                    "time": 43.01999999999996,
                    "velocity": 0.4409448818897638,
                    "duration": 0.060000000000002274
                },
                {
                    "name": "C5",
                    "midi": 72,
                    "time": 43.07999999999996,
                    "velocity": 0.4566929133858268,
                    "duration": 0.12000000000000455
                },
                {
                    "name": "B4",
                    "midi": 71,
                    "time": 43.139999999999965,
                    "velocity": 0.4645669291338583,
                    "duration": 0.060000000000002274
                },
                {
                    "name": "G#4",
                    "midi": 68,
                    "time": 43.19999999999997,
                    "velocity": 0.4881889763779528,
                    "duration": 0.07500000000000284
                },
                {
                    "name": "A#4",
                    "midi": 70,
                    "time": 43.19999999999997,
                    "velocity": 0.4881889763779528,
                    "duration": 0.07500000000000284
                },
                {
                    "name": "A#2",
                    "midi": 46,
                    "time": 43.49999999999997,
                    "velocity": 0.4015748031496063,
                    "duration": 0.04999999999999716
                },
                {
                    "name": "B2",
                    "midi": 47,
                    "time": 43.54999999999997,
                    "velocity": 0.41732283464566927,
                    "duration": 0.04999999999999716
                },
                {
                    "name": "A#2",
                    "midi": 46,
                    "time": 43.599999999999966,
                    "velocity": 0.4251968503937008,
                    "duration": 0.04999999999999716
                },
                {
                    "name": "A2",
                    "midi": 45,
                    "time": 43.64999999999996,
                    "velocity": 0.4409448818897638,
                    "duration": 0.04999999999999716
                },
                {
                    "name": "G#2",
                    "midi": 44,
                    "time": 43.69999999999996,
                    "velocity": 0.44881889763779526,
                    "duration": 0.04999999999999716
                },
                {
                    "name": "G2",
                    "midi": 43,
                    "time": 43.74999999999996,
                    "velocity": 0.4566929133858268,
                    "duration": 0.04999999999999716
                },
                {
                    "name": "F#2",
                    "midi": 42,
                    "time": 43.799999999999955,
                    "velocity": 0.47244094488188976,
                    "duration": 0.11249999999999716
                },
                {
                    "name": "D#2",
                    "midi": 39,
                    "time": 44.09999999999995,
                    "velocity": 0.44881889763779526,
                    "duration": 0.042499999999996874
                },
                {
                    "name": "F2",
                    "midi": 41,
                    "time": 44.14249999999995,
                    "velocity": 0.44881889763779526,
                    "duration": 0.042499999999996874
                },
                {
                    "name": "D#2",
                    "midi": 39,
                    "time": 44.184999999999945,
                    "velocity": 0.4409448818897638,
                    "duration": 0.042499999999996874
                },
                {
                    "name": "D2",
                    "midi": 38,
                    "time": 44.22749999999994,
                    "velocity": 0.4330708661417323,
                    "duration": 0.042499999999996874
                },
                {
                    "name": "C#2",
                    "midi": 37,
                    "time": 44.26999999999994,
                    "velocity": 0.4330708661417323,
                    "duration": 0.042499999999996874
                },
                {
                    "name": "C2",
                    "midi": 36,
                    "time": 44.312499999999936,
                    "velocity": 0.4251968503937008,
                    "duration": 0.04375000000000284
                },
                {
                    "name": "B1",
                    "midi": 35,
                    "time": 44.35624999999994,
                    "velocity": 0.4251968503937008,
                    "duration": 0.04375000000000284
                },
                {
                    "name": "A#1",
                    "midi": 34,
                    "time": 44.39999999999994,
                    "velocity": 0.41732283464566927,
                    "duration": 0.29999999999999716
                },
                {
                    "name": "D3",
                    "midi": 50,
                    "time": 44.69999999999994,
                    "velocity": 0.3858267716535433,
                    "duration": 0.11249999999999716
                },
                {
                    "name": "G#5",
                    "midi": 80,
                    "time": 44.999999999999936,
                    "velocity": 0.3937007874015748,
                    "duration": 0.060000000000002274
                },
                {
                    "name": "B4",
                    "midi": 71,
                    "time": 44.999999999999936,
                    "velocity": 0.3937007874015748,
                    "duration": 0.6000000000000227
                },
                {
                    "name": "G5",
                    "midi": 79,
                    "time": 45.05999999999994,
                    "velocity": 0.3779527559055118,
                    "duration": 0.060000000000002274
                },
                {
                    "name": "F#5",
                    "midi": 78,
                    "time": 45.11999999999994,
                    "velocity": 0.3858267716535433,
                    "duration": 0.060000000000002274
                },
                {
                    "name": "F5",
                    "midi": 77,
                    "time": 45.17999999999994,
                    "velocity": 0.3937007874015748,
                    "duration": 0.060000000000002274
                },
                {
                    "name": "E5",
                    "midi": 76,
                    "time": 45.239999999999945,
                    "velocity": 0.4094488188976378,
                    "duration": 0.060000000000002274
                },
                {
                    "name": "D#5",
                    "midi": 75,
                    "time": 45.29999999999995,
                    "velocity": 0.4251968503937008,
                    "duration": 0.060000000000002274
                },
                {
                    "name": "D5",
                    "midi": 74,
                    "time": 45.35999999999995,
                    "velocity": 0.4330708661417323,
                    "duration": 0.060000000000002274
                },
                {
                    "name": "C#5",
                    "midi": 73,
                    "time": 45.41999999999995,
                    "velocity": 0.4409448818897638,
                    "duration": 0.060000000000002274
                },
                {
                    "name": "C5",
                    "midi": 72,
                    "time": 45.479999999999954,
                    "velocity": 0.4566929133858268,
                    "duration": 0.060000000000002274
                },
                {
                    "name": "B4",
                    "midi": 71,
                    "time": 45.53999999999996,
                    "velocity": 0.4645669291338583,
                    "duration": 0.060000000000002274
                },
                {
                    "name": "G#4",
                    "midi": 68,
                    "time": 45.59999999999996,
                    "velocity": 0.4881889763779528,
                    "duration": 0.07500000000000284
                },
                {
                    "name": "A#4",
                    "midi": 70,
                    "time": 45.59999999999996,
                    "velocity": 0.4881889763779528,
                    "duration": 0.07500000000000284
                },
                {
                    "name": "A#2",
                    "midi": 46,
                    "time": 45.86249999999996,
                    "velocity": 0.4645669291338583,
                    "duration": 0.33749999999998437
                },
                {
                    "name": "A#3",
                    "midi": 58,
                    "time": 45.89999999999996,
                    "velocity": 0.4645669291338583,
                    "duration": 0.04999999999999716
                },
                {
                    "name": "B3",
                    "midi": 59,
                    "time": 45.94999999999996,
                    "velocity": 0.47244094488188976,
                    "duration": 0.04999999999999716
                },
                {
                    "name": "A#3",
                    "midi": 58,
                    "time": 45.99999999999996,
                    "velocity": 0.4881889763779528,
                    "duration": 0.04999999999999716
                },
                {
                    "name": "A3",
                    "midi": 57,
                    "time": 46.049999999999955,
                    "velocity": 0.4881889763779528,
                    "duration": 0.04999999999999716
                },
                {
                    "name": "G#3",
                    "midi": 56,
                    "time": 46.09999999999995,
                    "velocity": 0.49606299212598426,
                    "duration": 0.04999999999999716
                },
                {
                    "name": "G3",
                    "midi": 55,
                    "time": 46.14999999999995,
                    "velocity": 0.49606299212598426,
                    "duration": 0.04999999999999716
                },
                {
                    "name": "F#2",
                    "midi": 42,
                    "time": 46.199999999999946,
                    "velocity": 0.49606299212598426,
                    "duration": 0.11249999999999716
                },
                {
                    "name": "F#3",
                    "midi": 54,
                    "time": 46.199999999999946,
                    "velocity": 0.49606299212598426,
                    "duration": 0.11249999999999716
                },
                {
                    "name": "D#2",
                    "midi": 39,
                    "time": 46.46249999999994,
                    "velocity": 0.5039370078740157,
                    "duration": 0.3374999999999915
                },
                {
                    "name": "D#3",
                    "midi": 51,
                    "time": 46.49999999999994,
                    "velocity": 0.5039370078740157,
                    "duration": 0.042499999999996874
                },
                {
                    "name": "F3",
                    "midi": 53,
                    "time": 46.54249999999994,
                    "velocity": 0.5039370078740157,
                    "duration": 0.042499999999996874
                },
                {
                    "name": "D#3",
                    "midi": 51,
                    "time": 46.58499999999994,
                    "velocity": 0.5039370078740157,
                    "duration": 0.042499999999996874
                },
                {
                    "name": "D3",
                    "midi": 50,
                    "time": 46.627499999999934,
                    "velocity": 0.5039370078740157,
                    "duration": 0.042499999999996874
                },
                {
                    "name": "C#3",
                    "midi": 49,
                    "time": 46.66999999999993,
                    "velocity": 0.5039370078740157,
                    "duration": 0.042499999999996874
                },
                {
                    "name": "C3",
                    "midi": 48,
                    "time": 46.71249999999993,
                    "velocity": 0.5039370078740157,
                    "duration": 0.04375000000000284
                },
                {
                    "name": "B2",
                    "midi": 47,
                    "time": 46.75624999999993,
                    "velocity": 0.5039370078740157,
                    "duration": 0.04375000000000284
                },
                {
                    "name": "A#1",
                    "midi": 34,
                    "time": 46.76874999999993,
                    "velocity": 0.4881889763779528,
                    "duration": 0.33125000000000426
                },
                {
                    "name": "A#2",
                    "midi": 46,
                    "time": 46.774999999999935,
                    "velocity": 0.6062992125984252,
                    "duration": 0.6000000000000014
                },
                {
                    "name": "D3",
                    "midi": 50,
                    "time": 47.09999999999994,
                    "velocity": 0.4094488188976378,
                    "duration": 0.11249999999999716
                },
                {
                    "name": "F3",
                    "midi": 53,
                    "time": 47.09999999999994,
                    "velocity": 0.4094488188976378,
                    "duration": 0.11249999999999716
                },
                {
                    "name": "A#4",
                    "midi": 70,
                    "time": 47.399999999999935,
                    "velocity": 0.5669291338582677,
                    "duration": 0.05000000000000426
                },
                {
                    "name": "A#5",
                    "midi": 82,
                    "time": 47.399999999999935,
                    "velocity": 0.6299212598425197,
                    "duration": 0.07500000000000284
                },
                {
                    "name": "G#5",
                    "midi": 80,
                    "time": 47.499999999999936,
                    "velocity": 0.5433070866141733,
                    "duration": 0.06374999999999886
                },
                {
                    "name": "G#4",
                    "midi": 68,
                    "time": 47.499999999999936,
                    "velocity": 0.4881889763779528,
                    "duration": 0.06374999999999886
                },
                {
                    "name": "F#5",
                    "midi": 78,
                    "time": 47.59999999999994,
                    "velocity": 0.5590551181102362,
                    "duration": 0.06624999999999659
                },
                {
                    "name": "F#4",
                    "midi": 66,
                    "time": 47.59999999999994,
                    "velocity": 0.49606299212598426,
                    "duration": 0.06624999999999659
                },
                {
                    "name": "E4",
                    "midi": 64,
                    "time": 47.69999999999993,
                    "velocity": 0.5118110236220472,
                    "duration": 0.06875000000000142
                },
                {
                    "name": "E5",
                    "midi": 76,
                    "time": 47.69999999999993,
                    "velocity": 0.5748031496062992,
                    "duration": 0.06875000000000142
                },
                {
                    "name": "D4",
                    "midi": 62,
                    "time": 47.79999999999993,
                    "velocity": 0.5275590551181102,
                    "duration": 0.07124999999999915
                },
                {
                    "name": "D5",
                    "midi": 74,
                    "time": 47.79999999999993,
                    "velocity": 0.5984251968503937,
                    "duration": 0.07124999999999915
                },
                {
                    "name": "C4",
                    "midi": 60,
                    "time": 47.899999999999935,
                    "velocity": 0.5511811023622047,
                    "duration": 0.07374999999999687
                },
                {
                    "name": "C5",
                    "midi": 72,
                    "time": 47.899999999999935,
                    "velocity": 0.6141732283464567,
                    "duration": 0.07374999999999687
                },
                {
                    "name": "A#4",
                    "midi": 70,
                    "time": 47.99999999999993,
                    "velocity": 0.6614173228346457,
                    "duration": 0.14999999999999858
                },
                {
                    "name": "A#3",
                    "midi": 58,
                    "time": 47.99999999999993,
                    "velocity": 0.5984251968503937,
                    "duration": 0.14999999999999858
                },
                {
                    "name": "A#1",
                    "midi": 34,
                    "time": 48.299999999999926,
                    "velocity": 0.49606299212598426,
                    "duration": 0.30000000000000426
                },
                {
                    "name": "A#2",
                    "midi": 46,
                    "time": 48.299999999999926,
                    "velocity": 0.49606299212598426,
                    "duration": 0.30000000000000426
                },
                {
                    "name": "F2",
                    "midi": 41,
                    "time": 48.299999999999926,
                    "velocity": 0.49606299212598426,
                    "duration": 0.30000000000000426
                },
                {
                    "name": "D6",
                    "midi": 86,
                    "time": 48.59999999999993,
                    "velocity": 0.6299212598425197,
                    "duration": 0.07499999999999574
                },
                {
                    "name": "D5",
                    "midi": 74,
                    "time": 48.59999999999993,
                    "velocity": 0.5669291338582677,
                    "duration": 0.04999999999999716
                },
                {
                    "name": "C6",
                    "midi": 84,
                    "time": 48.699999999999925,
                    "velocity": 0.5433070866141733,
                    "duration": 0.06374999999999886
                },
                {
                    "name": "C5",
                    "midi": 72,
                    "time": 48.699999999999925,
                    "velocity": 0.4881889763779528,
                    "duration": 0.06374999999999886
                },
                {
                    "name": "A#5",
                    "midi": 82,
                    "time": 48.799999999999926,
                    "velocity": 0.5590551181102362,
                    "duration": 0.06624999999999659
                },
                {
                    "name": "A#4",
                    "midi": 70,
                    "time": 48.799999999999926,
                    "velocity": 0.49606299212598426,
                    "duration": 0.06624999999999659
                },
                {
                    "name": "G#5",
                    "midi": 80,
                    "time": 48.89999999999992,
                    "velocity": 0.5748031496062992,
                    "duration": 0.06875000000000142
                },
                {
                    "name": "G#4",
                    "midi": 68,
                    "time": 48.89999999999992,
                    "velocity": 0.5118110236220472,
                    "duration": 0.06875000000000142
                },
                {
                    "name": "F#5",
                    "midi": 78,
                    "time": 48.99999999999992,
                    "velocity": 0.5984251968503937,
                    "duration": 0.07124999999999915
                },
                {
                    "name": "F#4",
                    "midi": 66,
                    "time": 48.99999999999992,
                    "velocity": 0.5275590551181102,
                    "duration": 0.07124999999999915
                },
                {
                    "name": "E4",
                    "midi": 64,
                    "time": 49.09999999999992,
                    "velocity": 0.5511811023622047,
                    "duration": 0.07374999999999687
                },
                {
                    "name": "E5",
                    "midi": 76,
                    "time": 49.09999999999992,
                    "velocity": 0.6141732283464567,
                    "duration": 0.07374999999999687
                },
                {
                    "name": "D5",
                    "midi": 74,
                    "time": 49.19999999999992,
                    "velocity": 0.6614173228346457,
                    "duration": 0.15000000000000568
                },
                {
                    "name": "D4",
                    "midi": 62,
                    "time": 49.19999999999992,
                    "velocity": 0.5984251968503937,
                    "duration": 0.15000000000000568
                },
                {
                    "name": "F2",
                    "midi": 41,
                    "time": 49.49999999999992,
                    "velocity": 0.49606299212598426,
                    "duration": 0.29999999999999716
                },
                {
                    "name": "A#1",
                    "midi": 34,
                    "time": 49.49999999999992,
                    "velocity": 0.49606299212598426,
                    "duration": 0.29999999999999716
                },
                {
                    "name": "D3",
                    "midi": 50,
                    "time": 49.49999999999992,
                    "velocity": 0.49606299212598426,
                    "duration": 0.29999999999999716
                },
                {
                    "name": "F6",
                    "midi": 89,
                    "time": 49.79999999999992,
                    "velocity": 0.5826771653543307,
                    "duration": 0.04999999999999716
                },
                {
                    "name": "F5",
                    "midi": 77,
                    "time": 49.79999999999992,
                    "velocity": 0.5196850393700787,
                    "duration": 0.04999999999999716
                },
                {
                    "name": "D#6",
                    "midi": 87,
                    "time": 49.89999999999991,
                    "velocity": 0.5826771653543307,
                    "duration": 0.04999999999999716
                },
                {
                    "name": "D#5",
                    "midi": 75,
                    "time": 49.89999999999991,
                    "velocity": 0.5196850393700787,
                    "duration": 0.04999999999999716
                },
                {
                    "name": "C#6",
                    "midi": 85,
                    "time": 49.99999999999991,
                    "velocity": 0.5984251968503937,
                    "duration": 0.04999999999999716
                },
                {
                    "name": "C#5",
                    "midi": 73,
                    "time": 49.99999999999991,
                    "velocity": 0.5275590551181102,
                    "duration": 0.04999999999999716
                },
                {
                    "name": "B5",
                    "midi": 83,
                    "time": 50.0999999999999,
                    "velocity": 0.6062992125984252,
                    "duration": 0.04999999999999716
                },
                {
                    "name": "B4",
                    "midi": 71,
                    "time": 50.0999999999999,
                    "velocity": 0.5433070866141733,
                    "duration": 0.04999999999999716
                },
                {
                    "name": "A5",
                    "midi": 81,
                    "time": 50.199999999999896,
                    "velocity": 0.6141732283464567,
                    "duration": 0.04999999999999716
                },
                {
                    "name": "A4",
                    "midi": 69,
                    "time": 50.199999999999896,
                    "velocity": 0.5511811023622047,
                    "duration": 0.04999999999999716
                },
                {
                    "name": "G4",
                    "midi": 67,
                    "time": 50.29999999999989,
                    "velocity": 0.5590551181102362,
                    "duration": 0.04999999999999716
                },
                {
                    "name": "G5",
                    "midi": 79,
                    "time": 50.29999999999989,
                    "velocity": 0.6220472440944882,
                    "duration": 0.04999999999999716
                },
                {
                    "name": "F4",
                    "midi": 65,
                    "time": 50.399999999999885,
                    "velocity": 0.5590551181102362,
                    "duration": 0.04999999999999716
                },
                {
                    "name": "F5",
                    "midi": 77,
                    "time": 50.399999999999885,
                    "velocity": 0.6220472440944882,
                    "duration": 0.04999999999999716
                },
                {
                    "name": "D#4",
                    "midi": 63,
                    "time": 50.49999999999988,
                    "velocity": 0.5669291338582677,
                    "duration": 0.04999999999999716
                },
                {
                    "name": "D#5",
                    "midi": 75,
                    "time": 50.49999999999988,
                    "velocity": 0.6299212598425197,
                    "duration": 0.04999999999999716
                },
                {
                    "name": "C#4",
                    "midi": 61,
                    "time": 50.59999999999987,
                    "velocity": 0.5669291338582677,
                    "duration": 0.04999999999999716
                },
                {
                    "name": "C#5",
                    "midi": 73,
                    "time": 50.59999999999987,
                    "velocity": 0.6377952755905512,
                    "duration": 0.05624999999999858
                },
                {
                    "name": "B4",
                    "midi": 71,
                    "time": 50.699999999999875,
                    "velocity": 0.6456692913385826,
                    "duration": 0.0625
                },
                {
                    "name": "B3",
                    "midi": 59,
                    "time": 50.699999999999875,
                    "velocity": 0.5748031496062992,
                    "duration": 0.05624999999999858
                },
                {
                    "name": "A4",
                    "midi": 69,
                    "time": 50.799999999999876,
                    "velocity": 0.6456692913385826,
                    "duration": 0.0625
                },
                {
                    "name": "A3",
                    "midi": 57,
                    "time": 50.799999999999876,
                    "velocity": 0.5748031496062992,
                    "duration": 0.0625
                },
                {
                    "name": "G4",
                    "midi": 67,
                    "time": 50.89999999999988,
                    "velocity": 0.6535433070866141,
                    "duration": 0.0625
                },
                {
                    "name": "G3",
                    "midi": 55,
                    "time": 50.89999999999988,
                    "velocity": 0.5748031496062992,
                    "duration": 0.0625
                },
                {
                    "name": "F4",
                    "midi": 65,
                    "time": 50.99999999999988,
                    "velocity": 0.6614173228346457,
                    "duration": 0.0625
                },
                {
                    "name": "F3",
                    "midi": 53,
                    "time": 50.99999999999988,
                    "velocity": 0.5826771653543307,
                    "duration": 0.0625
                },
                {
                    "name": "D#4",
                    "midi": 63,
                    "time": 51.09999999999988,
                    "velocity": 0.6692913385826772,
                    "duration": 0.06374999999999886
                },
                {
                    "name": "D#3",
                    "midi": 51,
                    "time": 51.09999999999988,
                    "velocity": 0.5984251968503937,
                    "duration": 0.06374999999999886
                },
                {
                    "name": "C#4",
                    "midi": 61,
                    "time": 51.19999999999988,
                    "velocity": 0.6771653543307087,
                    "duration": 0.06624999999999659
                },
                {
                    "name": "C#3",
                    "midi": 49,
                    "time": 51.19999999999988,
                    "velocity": 0.6062992125984252,
                    "duration": 0.06624999999999659
                },
                {
                    "name": "B2",
                    "midi": 47,
                    "time": 51.299999999999876,
                    "velocity": 0.6062992125984252,
                    "duration": 0.06875000000000142
                },
                {
                    "name": "B3",
                    "midi": 59,
                    "time": 51.299999999999876,
                    "velocity": 0.6771653543307087,
                    "duration": 0.06875000000000142
                },
                {
                    "name": "A3",
                    "midi": 57,
                    "time": 51.39999999999988,
                    "velocity": 0.6850393700787402,
                    "duration": 0.07124999999999915
                },
                {
                    "name": "A2",
                    "midi": 45,
                    "time": 51.39999999999988,
                    "velocity": 0.6141732283464567,
                    "duration": 0.07124999999999915
                },
                {
                    "name": "F2",
                    "midi": 41,
                    "time": 51.49999999999988,
                    "velocity": 0.6220472440944882,
                    "duration": 0.07374999999999687
                },
                {
                    "name": "F3",
                    "midi": 53,
                    "time": 51.49999999999988,
                    "velocity": 0.6929133858267716,
                    "duration": 0.07374999999999687
                },
                {
                    "name": "A#2",
                    "midi": 46,
                    "time": 51.59999999999987,
                    "velocity": 0.7401574803149606,
                    "duration": 0.30000000000000426
                },
                {
                    "name": "A#1",
                    "midi": 34,
                    "time": 51.59999999999987,
                    "velocity": 0.6614173228346457,
                    "duration": 0.30000000000000426
                },
                {
                    "name": "A1",
                    "midi": 33,
                    "time": 51.89999999999988,
                    "velocity": 0.5826771653543307,
                    "duration": 0.04999999999999716
                },
                {
                    "name": "A#1",
                    "midi": 34,
                    "time": 51.949999999999875,
                    "velocity": 0.5669291338582677,
                    "duration": 0.04999999999999716
                },
                {
                    "name": "D2",
                    "midi": 38,
                    "time": 51.99999999999987,
                    "velocity": 0.5669291338582677,
                    "duration": 0.05624999999999858
                },
                {
                    "name": "F2",
                    "midi": 41,
                    "time": 52.04999999999987,
                    "velocity": 0.5748031496062992,
                    "duration": 0.05750000000000455
                },
                {
                    "name": "G#2",
                    "midi": 44,
                    "time": 52.09999999999987,
                    "velocity": 0.5748031496062992,
                    "duration": 0.058749999999996305
                },
                {
                    "name": "A#2",
                    "midi": 46,
                    "time": 52.14999999999987,
                    "velocity": 0.5826771653543307,
                    "duration": 0.05999999999999517
                },
                {
                    "name": "D3",
                    "midi": 50,
                    "time": 52.19999999999987,
                    "velocity": 0.5826771653543307,
                    "duration": 0.06124999999999403
                },
                {
                    "name": "F3",
                    "midi": 53,
                    "time": 52.249999999999865,
                    "velocity": 0.5984251968503937,
                    "duration": 0.0625
                },
                {
                    "name": "G#3",
                    "midi": 56,
                    "time": 52.29999999999986,
                    "velocity": 0.5984251968503937,
                    "duration": 0.05000000000000426
                },
                {
                    "name": "A#3",
                    "midi": 58,
                    "time": 52.349999999999866,
                    "velocity": 0.6062992125984252,
                    "duration": 0.04999999999999716
                },
                {
                    "name": "D4",
                    "midi": 62,
                    "time": 52.399999999999864,
                    "velocity": 0.6062992125984252,
                    "duration": 0.04999999999999716
                },
                {
                    "name": "F4",
                    "midi": 65,
                    "time": 52.44999999999986,
                    "velocity": 0.6062992125984252,
                    "duration": 0.04999999999999716
                },
                {
                    "name": "G#4",
                    "midi": 68,
                    "time": 52.49999999999986,
                    "velocity": 0.6141732283464567,
                    "duration": 0.060000000000002274
                },
                {
                    "name": "A#4",
                    "midi": 70,
                    "time": 52.55999999999986,
                    "velocity": 0.6141732283464567,
                    "duration": 0.060000000000002274
                },
                {
                    "name": "D5",
                    "midi": 74,
                    "time": 52.61999999999986,
                    "velocity": 0.6220472440944882,
                    "duration": 0.060000000000002274
                },
                {
                    "name": "F5",
                    "midi": 77,
                    "time": 52.679999999999865,
                    "velocity": 0.6299212598425197,
                    "duration": 0.060000000000002274
                },
                {
                    "name": "G#5",
                    "midi": 80,
                    "time": 52.73999999999987,
                    "velocity": 0.6299212598425197,
                    "duration": 0.060000000000002274
                },
                {
                    "name": "A5",
                    "midi": 81,
                    "time": 52.79999999999987,
                    "velocity": 0.6377952755905512,
                    "duration": 0.03125
                },
                {
                    "name": "C6",
                    "midi": 84,
                    "time": 52.842499999999866,
                    "velocity": 0.6141732283464567,
                    "duration": 0.03750000000000142
                },
                {
                    "name": "A#5",
                    "midi": 82,
                    "time": 52.88499999999987,
                    "velocity": 0.6062992125984252,
                    "duration": 0.03750000000000142
                },
                {
                    "name": "G#5",
                    "midi": 80,
                    "time": 52.927499999999874,
                    "velocity": 0.6062992125984252,
                    "duration": 0.03750000000000142
                },
                {
                    "name": "F5",
                    "midi": 77,
                    "time": 52.96999999999988,
                    "velocity": 0.6062992125984252,
                    "duration": 0.03750000000000142
                },
                {
                    "name": "D5",
                    "midi": 74,
                    "time": 53.01249999999988,
                    "velocity": 0.6062992125984252,
                    "duration": 0.03750000000000142
                },
                {
                    "name": "A#4",
                    "midi": 70,
                    "time": 53.054999999999886,
                    "velocity": 0.6062992125984252,
                    "duration": 0.03750000000000142
                },
                {
                    "name": "A4",
                    "midi": 69,
                    "time": 53.09999999999989,
                    "velocity": 0.6377952755905512,
                    "duration": 0.03750000000000142
                },
                {
                    "name": "C5",
                    "midi": 72,
                    "time": 53.14249999999989,
                    "velocity": 0.6141732283464567,
                    "duration": 0.042499999999996874
                },
                {
                    "name": "A#4",
                    "midi": 70,
                    "time": 53.18499999999989,
                    "velocity": 0.6062992125984252,
                    "duration": 0.042499999999996874
                },
                {
                    "name": "G#4",
                    "midi": 68,
                    "time": 53.227499999999885,
                    "velocity": 0.6062992125984252,
                    "duration": 0.042499999999996874
                },
                {
                    "name": "F4",
                    "midi": 65,
                    "time": 53.26999999999988,
                    "velocity": 0.6062992125984252,
                    "duration": 0.042499999999996874
                },
                {
                    "name": "D4",
                    "midi": 62,
                    "time": 53.31249999999988,
                    "velocity": 0.6062992125984252,
                    "duration": 0.042499999999996874
                },
                {
                    "name": "A#3",
                    "midi": 58,
                    "time": 53.354999999999876,
                    "velocity": 0.6062992125984252,
                    "duration": 0.042499999999996874
                },
                {
                    "name": "A3",
                    "midi": 57,
                    "time": 53.39999999999987,
                    "velocity": 0.6377952755905512,
                    "duration": 0.03750000000000142
                },
                {
                    "name": "C4",
                    "midi": 60,
                    "time": 53.442499999999875,
                    "velocity": 0.6141732283464567,
                    "duration": 0.042499999999996874
                },
                {
                    "name": "A#3",
                    "midi": 58,
                    "time": 53.48499999999987,
                    "velocity": 0.6062992125984252,
                    "duration": 0.042499999999996874
                },
                {
                    "name": "G#3",
                    "midi": 56,
                    "time": 53.52749999999987,
                    "velocity": 0.6062992125984252,
                    "duration": 0.042499999999996874
                },
                {
                    "name": "F3",
                    "midi": 53,
                    "time": 53.569999999999865,
                    "velocity": 0.6062992125984252,
                    "duration": 0.042499999999996874
                },
                {
                    "name": "D3",
                    "midi": 50,
                    "time": 53.61249999999986,
                    "velocity": 0.6062992125984252,
                    "duration": 0.042499999999996874
                },
                {
                    "name": "A#2",
                    "midi": 46,
                    "time": 53.65499999999986,
                    "velocity": 0.5984251968503937,
                    "duration": 0.042499999999996874
                },
                {
                    "name": "A2",
                    "midi": 45,
                    "time": 53.699999999999854,
                    "velocity": 0.6141732283464567,
                    "duration": 0.0625
                },
                {
                    "name": "A#2",
                    "midi": 46,
                    "time": 53.759999999999856,
                    "velocity": 0.6299212598425197,
                    "duration": 0.062499999999992895
                },
                {
                    "name": "D3",
                    "midi": 50,
                    "time": 53.81999999999985,
                    "velocity": 0.6535433070866141,
                    "duration": 0.062499999999992895
                },
                {
                    "name": "F3",
                    "midi": 53,
                    "time": 53.879999999999846,
                    "velocity": 0.6692913385826772,
                    "duration": 0.06874999999999432
                },
                {
                    "name": "G#3",
                    "midi": 56,
                    "time": 53.93999999999984,
                    "velocity": 0.6929133858267716,
                    "duration": 0.060000000000002274
                },
                {
                    "name": "A3",
                    "midi": 57,
                    "time": 53.999999999999844,
                    "velocity": 0.7244094488188977,
                    "duration": 0.03750000000000142
                },
                {
                    "name": "A2",
                    "midi": 45,
                    "time": 53.999999999999844,
                    "velocity": 0.5748031496062992,
                    "duration": 0.03750000000000142
                },
                {
                    "name": "D#3",
                    "midi": 51,
                    "time": 54.062499999999844,
                    "velocity": 0.5196850393700787,
                    "duration": 0.04625000000000057
                },
                {
                    "name": "D#4",
                    "midi": 63,
                    "time": 54.062499999999844,
                    "velocity": 0.6614173228346457,
                    "duration": 0.04625000000000057
                },
                {
                    "name": "C#4",
                    "midi": 61,
                    "time": 54.124999999999844,
                    "velocity": 0.6692913385826772,
                    "duration": 0.04625000000000057
                },
                {
                    "name": "C#3",
                    "midi": 49,
                    "time": 54.124999999999844,
                    "velocity": 0.5275590551181102,
                    "duration": 0.04625000000000057
                },
                {
                    "name": "B3",
                    "midi": 59,
                    "time": 54.187499999999844,
                    "velocity": 0.6850393700787402,
                    "duration": 0.04625000000000057
                },
                {
                    "name": "B2",
                    "midi": 47,
                    "time": 54.187499999999844,
                    "velocity": 0.5511811023622047,
                    "duration": 0.04625000000000057
                },
                {
                    "name": "A3",
                    "midi": 57,
                    "time": 54.249999999999844,
                    "velocity": 0.7086614173228346,
                    "duration": 0.04625000000000057
                },
                {
                    "name": "A2",
                    "midi": 45,
                    "time": 54.249999999999844,
                    "velocity": 0.5669291338582677,
                    "duration": 0.04625000000000057
                },
                {
                    "name": "G2",
                    "midi": 43,
                    "time": 54.312499999999844,
                    "velocity": 0.5669291338582677,
                    "duration": 0.04625000000000057
                },
                {
                    "name": "G3",
                    "midi": 55,
                    "time": 54.312499999999844,
                    "velocity": 0.7086614173228346,
                    "duration": 0.04625000000000057
                },
                {
                    "name": "F2",
                    "midi": 41,
                    "time": 54.374999999999844,
                    "velocity": 0.5748031496062992,
                    "duration": 0.04625000000000057
                },
                {
                    "name": "F3",
                    "midi": 53,
                    "time": 54.374999999999844,
                    "velocity": 0.7244094488188977,
                    "duration": 0.04625000000000057
                },
                {
                    "name": "D#2",
                    "midi": 39,
                    "time": 54.437499999999844,
                    "velocity": 0.5748031496062992,
                    "duration": 0.04625000000000057
                },
                {
                    "name": "D#3",
                    "midi": 51,
                    "time": 54.437499999999844,
                    "velocity": 0.7322834645669292,
                    "duration": 0.04625000000000057
                },
                {
                    "name": "C#2",
                    "midi": 37,
                    "time": 54.499999999999844,
                    "velocity": 0.7480314960629921,
                    "duration": 0.04625000000000057
                },
                {
                    "name": "C#3",
                    "midi": 49,
                    "time": 54.499999999999844,
                    "velocity": 0.7480314960629921,
                    "duration": 0.04625000000000057
                },
                {
                    "name": "B2",
                    "midi": 47,
                    "time": 54.562499999999844,
                    "velocity": 0.7637795275590551,
                    "duration": 0.056250000000005684
                },
                {
                    "name": "B1",
                    "midi": 35,
                    "time": 54.562499999999844,
                    "velocity": 0.7637795275590551,
                    "duration": 0.056250000000005684
                },
                {
                    "name": "A#2",
                    "midi": 46,
                    "time": 54.599999999999845,
                    "velocity": 0.7244094488188977,
                    "duration": 0.11250000000000426
                },
                {
                    "name": "A#1",
                    "midi": 34,
                    "time": 54.599999999999845,
                    "velocity": 0.5826771653543307,
                    "duration": 0.11250000000000426
                },
                {
                    "name": "D#3",
                    "midi": 51,
                    "time": 54.89999999999985,
                    "velocity": 0.49606299212598426,
                    "duration": 0.125
                },
                {
                    "name": "A#2",
                    "midi": 46,
                    "time": 54.89999999999985,
                    "velocity": 0.49606299212598426,
                    "duration": 0.125
                },
                {
                    "name": "D#2",
                    "midi": 39,
                    "time": 54.89999999999985,
                    "velocity": 0.49606299212598426,
                    "duration": 0.125
                },
                {
                    "name": "F3",
                    "midi": 53,
                    "time": 55.19999999999985,
                    "velocity": 0.5118110236220472,
                    "duration": 0.125
                },
                {
                    "name": "A#2",
                    "midi": 46,
                    "time": 55.19999999999985,
                    "velocity": 0.5118110236220472,
                    "duration": 0.125
                },
                {
                    "name": "D#2",
                    "midi": 39,
                    "time": 55.19999999999985,
                    "velocity": 0.5118110236220472,
                    "duration": 0.125
                },
                {
                    "name": "D#2",
                    "midi": 39,
                    "time": 55.499999999999844,
                    "velocity": 0.49606299212598426,
                    "duration": 0.125
                },
                {
                    "name": "A#2",
                    "midi": 46,
                    "time": 55.499999999999844,
                    "velocity": 0.49606299212598426,
                    "duration": 0.125
                },
                {
                    "name": "F#3",
                    "midi": 54,
                    "time": 55.499999999999844,
                    "velocity": 0.49606299212598426,
                    "duration": 0.125
                },
                {
                    "name": "G3",
                    "midi": 55,
                    "time": 55.79999999999984,
                    "velocity": 0.6456692913385826,
                    "duration": 0.30000000000000426
                },
                {
                    "name": "A#2",
                    "midi": 46,
                    "time": 55.79999999999984,
                    "velocity": 0.5118110236220472,
                    "duration": 0.6000000000000014
                },
                {
                    "name": "D#2",
                    "midi": 39,
                    "time": 55.79999999999984,
                    "velocity": 0.5118110236220472,
                    "duration": 0.6000000000000014
                },
                {
                    "name": "D#3",
                    "midi": 51,
                    "time": 56.099999999999845,
                    "velocity": 0.6220472440944882,
                    "duration": 0.14999999999999858
                },
                {
                    "name": "A3",
                    "midi": 57,
                    "time": 56.39999999999984,
                    "velocity": 0.6692913385826772,
                    "duration": 0.05624999999999858
                },
                {
                    "name": "A2",
                    "midi": 45,
                    "time": 56.39999999999984,
                    "velocity": 0.6692913385826772,
                    "duration": 0.05624999999999858
                },
                {
                    "name": "G3",
                    "midi": 55,
                    "time": 56.48499999999984,
                    "velocity": 0.6377952755905512,
                    "duration": 0.06374999999999886
                },
                {
                    "name": "G4",
                    "midi": 67,
                    "time": 56.48499999999984,
                    "velocity": 0.6377952755905512,
                    "duration": 0.06374999999999886
                },
                {
                    "name": "D#4",
                    "midi": 63,
                    "time": 56.569999999999844,
                    "velocity": 0.6535433070866141,
                    "duration": 0.06374999999999886
                },
                {
                    "name": "D#3",
                    "midi": 51,
                    "time": 56.569999999999844,
                    "velocity": 0.6535433070866141,
                    "duration": 0.06374999999999886
                },
                {
                    "name": "C4",
                    "midi": 60,
                    "time": 56.654999999999845,
                    "velocity": 0.6692913385826772,
                    "duration": 0.06374999999999886
                },
                {
                    "name": "C3",
                    "midi": 48,
                    "time": 56.654999999999845,
                    "velocity": 0.6692913385826772,
                    "duration": 0.06374999999999886
                },
                {
                    "name": "G#3",
                    "midi": 56,
                    "time": 56.739999999999846,
                    "velocity": 0.6850393700787402,
                    "duration": 0.06374999999999886
                },
                {
                    "name": "G#2",
                    "midi": 44,
                    "time": 56.739999999999846,
                    "velocity": 0.6850393700787402,
                    "duration": 0.06374999999999886
                },
                {
                    "name": "F3",
                    "midi": 53,
                    "time": 56.82499999999985,
                    "velocity": 0.7086614173228346,
                    "duration": 0.06374999999999886
                },
                {
                    "name": "F2",
                    "midi": 41,
                    "time": 56.82499999999985,
                    "velocity": 0.7086614173228346,
                    "duration": 0.06374999999999886
                },
                {
                    "name": "D2",
                    "midi": 38,
                    "time": 56.90999999999985,
                    "velocity": 0.7244094488188977,
                    "duration": 0.06374999999999886
                },
                {
                    "name": "D3",
                    "midi": 50,
                    "time": 56.90999999999985,
                    "velocity": 0.7244094488188977,
                    "duration": 0.06374999999999886
                },
                {
                    "name": "A#1",
                    "midi": 34,
                    "time": 56.999999999999844,
                    "velocity": 0.7244094488188977,
                    "duration": 0.11249999999999716
                },
                {
                    "name": "A#2",
                    "midi": 46,
                    "time": 56.999999999999844,
                    "velocity": 0.7244094488188977,
                    "duration": 0.11249999999999716
                },
                {
                    "name": "D#2",
                    "midi": 39,
                    "time": 57.29999999999984,
                    "velocity": 0.5196850393700787,
                    "duration": 0.125
                },
                {
                    "name": "D#3",
                    "midi": 51,
                    "time": 57.29999999999984,
                    "velocity": 0.5196850393700787,
                    "duration": 0.125
                },
                {
                    "name": "A#2",
                    "midi": 46,
                    "time": 57.29999999999984,
                    "velocity": 0.5196850393700787,
                    "duration": 0.125
                },
                {
                    "name": "F3",
                    "midi": 53,
                    "time": 57.59999999999984,
                    "velocity": 0.5590551181102362,
                    "duration": 0.125
                },
                {
                    "name": "D#2",
                    "midi": 39,
                    "time": 57.59999999999984,
                    "velocity": 0.5590551181102362,
                    "duration": 0.125
                },
                {
                    "name": "B2",
                    "midi": 47,
                    "time": 57.59999999999984,
                    "velocity": 0.5590551181102362,
                    "duration": 0.125
                },
                {
                    "name": "D3",
                    "midi": 50,
                    "time": 57.59999999999984,
                    "velocity": 0.5590551181102362,
                    "duration": 0.125
                },
                {
                    "name": "D#2",
                    "midi": 39,
                    "time": 57.899999999999835,
                    "velocity": 0.5196850393700787,
                    "duration": 0.125
                },
                {
                    "name": "A#2",
                    "midi": 46,
                    "time": 57.899999999999835,
                    "velocity": 0.5196850393700787,
                    "duration": 0.125
                },
                {
                    "name": "G3",
                    "midi": 55,
                    "time": 57.899999999999835,
                    "velocity": 0.5196850393700787,
                    "duration": 0.125
                },
                {
                    "name": "D#3",
                    "midi": 51,
                    "time": 58.19999999999983,
                    "velocity": 0.5039370078740157,
                    "duration": 0.5750000000000028
                },
                {
                    "name": "A#2",
                    "midi": 46,
                    "time": 58.19999999999983,
                    "velocity": 0.5039370078740157,
                    "duration": 0.5750000000000028
                },
                {
                    "name": "D#2",
                    "midi": 39,
                    "time": 58.19999999999983,
                    "velocity": 0.5039370078740157,
                    "duration": 0.5750000000000028
                },
                {
                    "name": "F6",
                    "midi": 89,
                    "time": 59.04249999999983,
                    "velocity": 0.29133858267716534,
                    "duration": 0.030000000000001137
                },
                {
                    "name": "D#6",
                    "midi": 87,
                    "time": 59.07499999999983,
                    "velocity": 0.29133858267716534,
                    "duration": 0.030000000000001137
                },
                {
                    "name": "D6",
                    "midi": 86,
                    "time": 59.10749999999983,
                    "velocity": 0.28346456692913385,
                    "duration": 0.030000000000001137
                },
                {
                    "name": "C6",
                    "midi": 84,
                    "time": 59.13999999999983,
                    "velocity": 0.28346456692913385,
                    "duration": 0.030000000000001137
                },
                {
                    "name": "A#5",
                    "midi": 82,
                    "time": 59.17249999999983,
                    "velocity": 0.28346456692913385,
                    "duration": 0.030000000000001137
                },
                {
                    "name": "G#5",
                    "midi": 80,
                    "time": 59.20499999999983,
                    "velocity": 0.28346456692913385,
                    "duration": 0.030000000000001137
                },
                {
                    "name": "G5",
                    "midi": 79,
                    "time": 59.23749999999983,
                    "velocity": 0.28346456692913385,
                    "duration": 0.030000000000001137
                },
                {
                    "name": "F5",
                    "midi": 77,
                    "time": 59.269999999999825,
                    "velocity": 0.28346456692913385,
                    "duration": 0.030000000000001137
                },
                {
                    "name": "D#5",
                    "midi": 75,
                    "time": 59.302499999999824,
                    "velocity": 0.28346456692913385,
                    "duration": 0.030000000000001137
                },
                {
                    "name": "D5",
                    "midi": 74,
                    "time": 59.33499999999982,
                    "velocity": 0.28346456692913385,
                    "duration": 0.030000000000001137
                },
                {
                    "name": "C5",
                    "midi": 72,
                    "time": 59.36999999999983,
                    "velocity": 0.28346456692913385,
                    "duration": 0.030000000000001137
                },
                {
                    "name": "A#4",
                    "midi": 70,
                    "time": 59.39999999999983,
                    "velocity": 0.3228346456692913,
                    "duration": 0.11249999999999716
                },
                {
                    "name": "D#3",
                    "midi": 51,
                    "time": 59.699999999999825,
                    "velocity": 0.2283464566929134,
                    "duration": 0.11249999999999716
                },
                {
                    "name": "D3",
                    "midi": 50,
                    "time": 59.99999999999982,
                    "velocity": 0.25196850393700787,
                    "duration": 0.11249999999999716
                },
                {
                    "name": "D2",
                    "midi": 38,
                    "time": 60.29999999999982,
                    "velocity": 0.23622047244094488,
                    "duration": 0.11249999999999716
                },
                {
                    "name": "G2",
                    "midi": 43,
                    "time": 60.59999999999982,
                    "velocity": 0.2283464566929134,
                    "duration": 0.5999999999999943
                },
                {
                    "name": "D3",
                    "midi": 50,
                    "time": 60.59999999999982,
                    "velocity": 0.2283464566929134,
                    "duration": 0.29999999999999716
                },
                {
                    "name": "B2",
                    "midi": 47,
                    "time": 60.899999999999814,
                    "velocity": 0.2125984251968504,
                    "duration": 0.14999999999999858
                },
                {
                    "name": "F#6",
                    "midi": 90,
                    "time": 61.19999999999981,
                    "velocity": 0.2125984251968504,
                    "duration": 0.03750000000000142
                },
                {
                    "name": "G6",
                    "midi": 91,
                    "time": 61.23749999999981,
                    "velocity": 0.2125984251968504,
                    "duration": 0.03750000000000142
                },
                {
                    "name": "B6",
                    "midi": 95,
                    "time": 61.274999999999814,
                    "velocity": 0.2283464566929134,
                    "duration": 0.03750000000000142
                },
                {
                    "name": "A6",
                    "midi": 93,
                    "time": 61.312499999999815,
                    "velocity": 0.2283464566929134,
                    "duration": 0.03750000000000142
                },
                {
                    "name": "G6",
                    "midi": 91,
                    "time": 61.34999999999982,
                    "velocity": 0.2283464566929134,
                    "duration": 0.03750000000000142
                },
                {
                    "name": "F#6",
                    "midi": 90,
                    "time": 61.38749999999982,
                    "velocity": 0.2283464566929134,
                    "duration": 0.03750000000000142
                },
                {
                    "name": "E6",
                    "midi": 88,
                    "time": 61.42499999999982,
                    "velocity": 0.2283464566929134,
                    "duration": 0.03750000000000142
                },
                {
                    "name": "D6",
                    "midi": 86,
                    "time": 61.46249999999982,
                    "velocity": 0.2204724409448819,
                    "duration": 0.03750000000000142
                },
                {
                    "name": "C6",
                    "midi": 84,
                    "time": 61.49999999999982,
                    "velocity": 0.2204724409448819,
                    "duration": 0.03750000000000142
                },
                {
                    "name": "B5",
                    "midi": 83,
                    "time": 61.537499999999824,
                    "velocity": 0.2204724409448819,
                    "duration": 0.03750000000000142
                },
                {
                    "name": "A5",
                    "midi": 81,
                    "time": 61.574999999999825,
                    "velocity": 0.2204724409448819,
                    "duration": 0.03750000000000142
                },
                {
                    "name": "G5",
                    "midi": 79,
                    "time": 61.61249999999983,
                    "velocity": 0.2204724409448819,
                    "duration": 0.03750000000000142
                },
                {
                    "name": "F#5",
                    "midi": 78,
                    "time": 61.64999999999983,
                    "velocity": 0.2125984251968504,
                    "duration": 0.03750000000000142
                },
                {
                    "name": "E5",
                    "midi": 76,
                    "time": 61.68749999999983,
                    "velocity": 0.2125984251968504,
                    "duration": 0.03750000000000142
                },
                {
                    "name": "D5",
                    "midi": 74,
                    "time": 61.72499999999983,
                    "velocity": 0.2125984251968504,
                    "duration": 0.03750000000000142
                },
                {
                    "name": "C5",
                    "midi": 72,
                    "time": 61.76249999999983,
                    "velocity": 0.2125984251968504,
                    "duration": 0.03750000000000142
                },
                {
                    "name": "B4",
                    "midi": 71,
                    "time": 61.799999999999834,
                    "velocity": 0.2125984251968504,
                    "duration": 0.11249999999999716
                },
                {
                    "name": "C3",
                    "midi": 48,
                    "time": 62.09999999999983,
                    "velocity": 0.2204724409448819,
                    "duration": 0.2749999999999986
                },
                {
                    "name": "F2",
                    "midi": 41,
                    "time": 62.39999999999983,
                    "velocity": 0.2440944881889764,
                    "duration": 0.25
                },
                {
                    "name": "A#2",
                    "midi": 46,
                    "time": 62.699999999999825,
                    "velocity": 0.23622047244094488,
                    "duration": 0.2749999999999986
                },
                {
                    "name": "A#1",
                    "midi": 34,
                    "time": 62.699999999999825,
                    "velocity": 0.23622047244094488,
                    "duration": 0.2749999999999986
                },
                {
                    "name": "A#2",
                    "midi": 46,
                    "time": 62.99999999999982,
                    "velocity": 0.23622047244094488,
                    "duration": 0.5625
                },
                {
                    "name": "D#2",
                    "midi": 39,
                    "time": 62.99999999999982,
                    "velocity": 0.23622047244094488,
                    "duration": 0.5625
                },
                {
                    "name": "G2",
                    "midi": 43,
                    "time": 63.599999999999824,
                    "velocity": 0.5748031496062992,
                    "duration": 0.45000000000000284
                },
                {
                    "name": "G3",
                    "midi": 55,
                    "time": 63.599999999999824,
                    "velocity": 0.6456692913385826,
                    "duration": 0.45000000000000284
                },
                {
                    "name": "D#2",
                    "midi": 39,
                    "time": 64.04999999999983,
                    "velocity": 0.5590551181102362,
                    "duration": 0.15000000000000568
                },
                {
                    "name": "D#3",
                    "midi": 51,
                    "time": 64.04999999999983,
                    "velocity": 0.6220472440944882,
                    "duration": 0.15000000000000568
                },
                {
                    "name": "C2",
                    "midi": 36,
                    "time": 64.19999999999983,
                    "velocity": 0.5748031496062992,
                    "duration": 0.15000000000000568
                },
                {
                    "name": "C3",
                    "midi": 48,
                    "time": 64.19999999999983,
                    "velocity": 0.6456692913385826,
                    "duration": 0.15000000000000568
                },
                {
                    "name": "B1",
                    "midi": 35,
                    "time": 64.34999999999984,
                    "velocity": 0.5511811023622047,
                    "duration": 0.15000000000000568
                },
                {
                    "name": "B2",
                    "midi": 47,
                    "time": 64.34999999999984,
                    "velocity": 0.6141732283464567,
                    "duration": 0.15000000000000568
                },
                {
                    "name": "C2",
                    "midi": 36,
                    "time": 64.49999999999984,
                    "velocity": 0.5511811023622047,
                    "duration": 0.11249999999999716
                },
                {
                    "name": "C3",
                    "midi": 48,
                    "time": 64.49999999999984,
                    "velocity": 0.6141732283464567,
                    "duration": 0.11249999999999716
                },
                {
                    "name": "D2",
                    "midi": 38,
                    "time": 64.64999999999984,
                    "velocity": 0.5511811023622047,
                    "duration": 0.11249999999999716
                },
                {
                    "name": "D3",
                    "midi": 50,
                    "time": 64.64999999999984,
                    "velocity": 0.6141732283464567,
                    "duration": 0.11249999999999716
                },
                {
                    "name": "D#2",
                    "midi": 39,
                    "time": 64.79999999999983,
                    "velocity": 0.5748031496062992,
                    "duration": 0.15000000000000568
                },
                {
                    "name": "D#3",
                    "midi": 51,
                    "time": 64.79999999999983,
                    "velocity": 0.6456692913385826,
                    "duration": 0.15000000000000568
                },
                {
                    "name": "D2",
                    "midi": 38,
                    "time": 64.94999999999983,
                    "velocity": 0.5511811023622047,
                    "duration": 0.15000000000000568
                },
                {
                    "name": "D3",
                    "midi": 50,
                    "time": 64.94999999999983,
                    "velocity": 0.6141732283464567,
                    "duration": 0.15000000000000568
                },
                {
                    "name": "D#2",
                    "midi": 39,
                    "time": 65.09999999999984,
                    "velocity": 0.5511811023622047,
                    "duration": 0.11249999999999716
                },
                {
                    "name": "D#3",
                    "midi": 51,
                    "time": 65.09999999999984,
                    "velocity": 0.6141732283464567,
                    "duration": 0.11249999999999716
                },
                {
                    "name": "F2",
                    "midi": 41,
                    "time": 65.24999999999983,
                    "velocity": 0.5511811023622047,
                    "duration": 0.11249999999999716
                },
                {
                    "name": "F3",
                    "midi": 53,
                    "time": 65.24999999999983,
                    "velocity": 0.6141732283464567,
                    "duration": 0.11249999999999716
                },
                {
                    "name": "G2",
                    "midi": 43,
                    "time": 65.39999999999982,
                    "velocity": 0.5748031496062992,
                    "duration": 0.15000000000000568
                },
                {
                    "name": "G3",
                    "midi": 55,
                    "time": 65.39999999999982,
                    "velocity": 0.6456692913385826,
                    "duration": 0.15000000000000568
                },
                {
                    "name": "F#2",
                    "midi": 42,
                    "time": 65.54999999999983,
                    "velocity": 0.5590551181102362,
                    "duration": 0.15000000000000568
                },
                {
                    "name": "F#3",
                    "midi": 54,
                    "time": 65.54999999999983,
                    "velocity": 0.6220472440944882,
                    "duration": 0.15000000000000568
                },
                {
                    "name": "G2",
                    "midi": 43,
                    "time": 65.69999999999983,
                    "velocity": 0.5590551181102362,
                    "duration": 0.11249999999999716
                },
                {
                    "name": "G3",
                    "midi": 55,
                    "time": 65.69999999999983,
                    "velocity": 0.6220472440944882,
                    "duration": 0.11249999999999716
                },
                {
                    "name": "A2",
                    "midi": 45,
                    "time": 65.84999999999982,
                    "velocity": 0.5590551181102362,
                    "duration": 0.11249999999999716
                },
                {
                    "name": "A3",
                    "midi": 57,
                    "time": 65.84999999999982,
                    "velocity": 0.6220472440944882,
                    "duration": 0.11249999999999716
                },
                {
                    "name": "B2",
                    "midi": 47,
                    "time": 65.99999999999982,
                    "velocity": 0.5984251968503937,
                    "duration": 0.14999999999999147
                },
                {
                    "name": "B3",
                    "midi": 59,
                    "time": 65.99999999999982,
                    "velocity": 0.6692913385826772,
                    "duration": 0.14999999999999147
                },
                {
                    "name": "A2",
                    "midi": 45,
                    "time": 66.1499999999998,
                    "velocity": 0.5590551181102362,
                    "duration": 0.15000000000000568
                },
                {
                    "name": "A3",
                    "midi": 57,
                    "time": 66.1499999999998,
                    "velocity": 0.6220472440944882,
                    "duration": 0.15000000000000568
                },
                {
                    "name": "B2",
                    "midi": 47,
                    "time": 66.29999999999981,
                    "velocity": 0.5590551181102362,
                    "duration": 0.11249999999999716
                },
                {
                    "name": "B3",
                    "midi": 59,
                    "time": 66.29999999999981,
                    "velocity": 0.6220472440944882,
                    "duration": 0.11249999999999716
                },
                {
                    "name": "G2",
                    "midi": 43,
                    "time": 66.4499999999998,
                    "velocity": 0.5590551181102362,
                    "duration": 0.11249999999999716
                },
                {
                    "name": "G3",
                    "midi": 55,
                    "time": 66.4499999999998,
                    "velocity": 0.6220472440944882,
                    "duration": 0.11249999999999716
                },
                {
                    "name": "C3",
                    "midi": 48,
                    "time": 66.5999999999998,
                    "velocity": 0.6220472440944882,
                    "duration": 0.15000000000000568
                },
                {
                    "name": "C4",
                    "midi": 60,
                    "time": 66.5999999999998,
                    "velocity": 0.6929133858267716,
                    "duration": 0.15000000000000568
                },
                {
                    "name": "B2",
                    "midi": 47,
                    "time": 66.7499999999998,
                    "velocity": 0.5669291338582677,
                    "duration": 0.14999999999999147
                },
                {
                    "name": "B3",
                    "midi": 59,
                    "time": 66.7499999999998,
                    "velocity": 0.6299212598425197,
                    "duration": 0.14999999999999147
                },
                {
                    "name": "C3",
                    "midi": 48,
                    "time": 66.89999999999979,
                    "velocity": 0.5669291338582677,
                    "duration": 0.11249999999999716
                },
                {
                    "name": "C4",
                    "midi": 60,
                    "time": 66.89999999999979,
                    "velocity": 0.6299212598425197,
                    "duration": 0.11249999999999716
                },
                {
                    "name": "D3",
                    "midi": 50,
                    "time": 67.04999999999978,
                    "velocity": 0.5669291338582677,
                    "duration": 0.11249999999999716
                },
                {
                    "name": "D4",
                    "midi": 62,
                    "time": 67.04999999999978,
                    "velocity": 0.6299212598425197,
                    "duration": 0.11249999999999716
                },
                {
                    "name": "D#3",
                    "midi": 51,
                    "time": 67.19999999999978,
                    "velocity": 0.6535433070866141,
                    "duration": 0.14999999999999147
                },
                {
                    "name": "D#4",
                    "midi": 63,
                    "time": 67.19999999999978,
                    "velocity": 0.7244094488188977,
                    "duration": 0.14999999999999147
                },
                {
                    "name": "D3",
                    "midi": 50,
                    "time": 67.34999999999977,
                    "velocity": 0.5669291338582677,
                    "duration": 0.15000000000000568
                },
                {
                    "name": "D4",
                    "midi": 62,
                    "time": 67.34999999999977,
                    "velocity": 0.6377952755905512,
                    "duration": 0.15000000000000568
                },
                {
                    "name": "D#3",
                    "midi": 51,
                    "time": 67.49999999999977,
                    "velocity": 0.5669291338582677,
                    "duration": 0.11249999999999716
                },
                {
                    "name": "D#4",
                    "midi": 63,
                    "time": 67.49999999999977,
                    "velocity": 0.6377952755905512,
                    "duration": 0.11249999999999716
                },
                {
                    "name": "F3",
                    "midi": 53,
                    "time": 67.64999999999976,
                    "velocity": 0.5669291338582677,
                    "duration": 0.11249999999999716
                },
                {
                    "name": "F4",
                    "midi": 65,
                    "time": 67.64999999999976,
                    "velocity": 0.6377952755905512,
                    "duration": 0.11249999999999716
                },
                {
                    "name": "G3",
                    "midi": 55,
                    "time": 67.79999999999976,
                    "velocity": 0.6535433070866141,
                    "duration": 0.15000000000000568
                },
                {
                    "name": "G4",
                    "midi": 67,
                    "time": 67.79999999999976,
                    "velocity": 0.7244094488188977,
                    "duration": 0.15000000000000568
                },
                {
                    "name": "G2",
                    "midi": 43,
                    "time": 68.09999999999977,
                    "velocity": 0.5748031496062992,
                    "duration": 0.22499999999999432
                },
                {
                    "name": "D3",
                    "midi": 50,
                    "time": 68.09999999999977,
                    "velocity": 0.5748031496062992,
                    "duration": 0.22499999999999432
                },
                {
                    "name": "B3",
                    "midi": 59,
                    "time": 68.09999999999977,
                    "velocity": 0.6456692913385826,
                    "duration": 0.22499999999999432
                },
                {
                    "name": "G3",
                    "midi": 55,
                    "time": 68.39999999999976,
                    "velocity": 0.5984251968503937,
                    "duration": 0.45000000000000284
                },
                {
                    "name": "B3",
                    "midi": 59,
                    "time": 68.39999999999976,
                    "velocity": 0.5984251968503937,
                    "duration": 0.45000000000000284
                },
                {
                    "name": "D4",
                    "midi": 62,
                    "time": 68.39999999999976,
                    "velocity": 0.5984251968503937,
                    "duration": 0.45000000000000284
                },
                {
                    "name": "G4",
                    "midi": 67,
                    "time": 68.39999999999976,
                    "velocity": 0.6692913385826772,
                    "duration": 0.45000000000000284
                },
                {
                    "name": "F3",
                    "midi": 53,
                    "time": 69.29999999999977,
                    "velocity": 0.4330708661417323,
                    "duration": 0.29999999999999716
                },
                {
                    "name": "D4",
                    "midi": 62,
                    "time": 69.29999999999977,
                    "velocity": 0.4881889763779528,
                    "duration": 0.5999999999999943
                },
                {
                    "name": "B3",
                    "midi": 59,
                    "time": 69.29999999999977,
                    "velocity": 0.4881889763779528,
                    "duration": 0.5999999999999943
                },
                {
                    "name": "G4",
                    "midi": 67,
                    "time": 69.59999999999977,
                    "velocity": 0.5275590551181102,
                    "duration": 0.29999999999999716
                },
                {
                    "name": "D#3",
                    "midi": 51,
                    "time": 69.59999999999977,
                    "velocity": 0.47244094488188976,
                    "duration": 0.5999999999999943
                },
                {
                    "name": "C4",
                    "midi": 60,
                    "time": 69.89999999999976,
                    "velocity": 0.5433070866141733,
                    "duration": 0.29999999999999716
                },
                {
                    "name": "D3",
                    "midi": 50,
                    "time": 70.49999999999976,
                    "velocity": 0.4330708661417323,
                    "duration": 0.29999999999999716
                },
                {
                    "name": "B3",
                    "midi": 59,
                    "time": 70.49999999999976,
                    "velocity": 0.4330708661417323,
                    "duration": 0.29999999999999716
                },
                {
                    "name": "G#3",
                    "midi": 56,
                    "time": 70.49999999999976,
                    "velocity": 0.4881889763779528,
                    "duration": 0.5999999999999943
                },
                {
                    "name": "D#4",
                    "midi": 63,
                    "time": 70.79999999999976,
                    "velocity": 0.5275590551181102,
                    "duration": 0.29999999999999716
                },
                {
                    "name": "C3",
                    "midi": 48,
                    "time": 70.79999999999976,
                    "velocity": 0.47244094488188976,
                    "duration": 0.29999999999999716
                },
                {
                    "name": "D#3",
                    "midi": 51,
                    "time": 71.09999999999975,
                    "velocity": 0.4409448818897638,
                    "duration": 0.30000000000001137
                },
                {
                    "name": "G3",
                    "midi": 55,
                    "time": 71.09999999999975,
                    "velocity": 0.4409448818897638,
                    "duration": 0.30000000000001137
                },
                {
                    "name": "C4",
                    "midi": 60,
                    "time": 71.09999999999975,
                    "velocity": 0.49606299212598426,
                    "duration": 0.30000000000001137
                },
                {
                    "name": "G#2",
                    "midi": 44,
                    "time": 71.24999999999976,
                    "velocity": 0.4409448818897638,
                    "duration": 1.3500000000000512
                },
                {
                    "name": "D#4",
                    "midi": 63,
                    "time": 71.39999999999976,
                    "velocity": 0.47244094488188976,
                    "duration": 0.15000000000000568
                },
                {
                    "name": "G4",
                    "midi": 67,
                    "time": 71.39999999999976,
                    "velocity": 0.5275590551181102,
                    "duration": 0.15000000000000568
                },
                {
                    "name": "D4",
                    "midi": 62,
                    "time": 71.54999999999977,
                    "velocity": 0.44881889763779526,
                    "duration": 0.125
                },
                {
                    "name": "F4",
                    "midi": 65,
                    "time": 71.54999999999977,
                    "velocity": 0.5039370078740157,
                    "duration": 0.125
                },
                {
                    "name": "D4",
                    "midi": 62,
                    "time": 71.69999999999978,
                    "velocity": 0.44881889763779526,
                    "duration": 0.15000000000000568
                },
                {
                    "name": "F4",
                    "midi": 65,
                    "time": 71.69999999999978,
                    "velocity": 0.5039370078740157,
                    "duration": 0.15000000000000568
                },
                {
                    "name": "C4",
                    "midi": 60,
                    "time": 71.84999999999978,
                    "velocity": 0.44881889763779526,
                    "duration": 0.125
                },
                {
                    "name": "D#4",
                    "midi": 63,
                    "time": 71.84999999999978,
                    "velocity": 0.5039370078740157,
                    "duration": 0.125
                },
                {
                    "name": "C4",
                    "midi": 60,
                    "time": 71.99999999999979,
                    "velocity": 0.4881889763779528,
                    "duration": 0.15000000000000568
                },
                {
                    "name": "D#4",
                    "midi": 63,
                    "time": 71.99999999999979,
                    "velocity": 0.5433070866141733,
                    "duration": 0.15000000000000568
                },
                {
                    "name": "A#3",
                    "midi": 58,
                    "time": 72.14999999999979,
                    "velocity": 0.44881889763779526,
                    "duration": 0.125
                },
                {
                    "name": "D4",
                    "midi": 62,
                    "time": 72.14999999999979,
                    "velocity": 0.5039370078740157,
                    "duration": 0.125
                },
                {
                    "name": "A#3",
                    "midi": 58,
                    "time": 72.2999999999998,
                    "velocity": 0.44881889763779526,
                    "duration": 0.15000000000000568
                },
                {
                    "name": "D4",
                    "midi": 62,
                    "time": 72.2999999999998,
                    "velocity": 0.5039370078740157,
                    "duration": 0.15000000000000568
                },
                {
                    "name": "G#3",
                    "midi": 56,
                    "time": 72.4499999999998,
                    "velocity": 0.44881889763779526,
                    "duration": 0.125
                },
                {
                    "name": "C4",
                    "midi": 60,
                    "time": 72.4499999999998,
                    "velocity": 0.5039370078740157,
                    "duration": 0.125
                },
                {
                    "name": "C4",
                    "midi": 60,
                    "time": 72.59999999999981,
                    "velocity": 0.5275590551181102,
                    "duration": 0.15000000000000568
                },
                {
                    "name": "G#3",
                    "midi": 56,
                    "time": 72.59999999999981,
                    "velocity": 0.47244094488188976,
                    "duration": 0.15000000000000568
                },
                {
                    "name": "G3",
                    "midi": 55,
                    "time": 72.74999999999982,
                    "velocity": 0.4645669291338583,
                    "duration": 0.11249999999999716
                },
                {
                    "name": "B3",
                    "midi": 59,
                    "time": 72.74999999999982,
                    "velocity": 0.5196850393700787,
                    "duration": 0.11249999999999716
                },
                {
                    "name": "G2",
                    "midi": 43,
                    "time": 72.8999999999998,
                    "velocity": 0.5511811023622047,
                    "duration": 0.15000000000000568
                },
                {
                    "name": "G3",
                    "midi": 55,
                    "time": 72.8999999999998,
                    "velocity": 0.6141732283464567,
                    "duration": 0.15000000000000568
                },
                {
                    "name": "G1",
                    "midi": 31,
                    "time": 74.09999999999981,
                    "velocity": 0.5590551181102362,
                    "duration": 0.15000000000000568
                },
                {
                    "name": "C2",
                    "midi": 36,
                    "time": 74.39999999999982,
                    "velocity": 0.5748031496062992,
                    "duration": 0.8999999999999915
                },
                {
                    "name": "G2",
                    "midi": 43,
                    "time": 74.69999999999982,
                    "velocity": 0.5511811023622047,
                    "duration": 0.29999999999999716
                },
                {
                    "name": "D2",
                    "midi": 38,
                    "time": 74.99999999999982,
                    "velocity": 0.5748031496062992,
                    "duration": 0.8999999999999915
                },
                {
                    "name": "B1",
                    "midi": 35,
                    "time": 75.29999999999981,
                    "velocity": 0.5590551181102362,
                    "duration": 0.29999999999999716
                },
                {
                    "name": "D3",
                    "midi": 50,
                    "time": 75.59999999999981,
                    "velocity": 0.5748031496062992,
                    "duration": 0.9000000000000057
                },
                {
                    "name": "F2",
                    "midi": 41,
                    "time": 75.8999999999998,
                    "velocity": 0.5590551181102362,
                    "duration": 0.15000000000000568
                },
                {
                    "name": "D#2",
                    "midi": 39,
                    "time": 76.19999999999982,
                    "velocity": 0.5039370078740157,
                    "duration": 0.9000000000000057
                },
                {
                    "name": "G2",
                    "midi": 43,
                    "time": 76.49999999999982,
                    "velocity": 0.5748031496062992,
                    "duration": 0.15000000000000568
                },
                {
                    "name": "G3",
                    "midi": 55,
                    "time": 76.79999999999983,
                    "velocity": 0.6062992125984252,
                    "duration": 0.45000000000000284
                },
                {
                    "name": "C3",
                    "midi": 48,
                    "time": 77.09999999999982,
                    "velocity": 0.5433070866141733,
                    "duration": 0.15000000000000568
                },
                {
                    "name": "G#3",
                    "midi": 56,
                    "time": 77.24999999999983,
                    "velocity": 0.5039370078740157,
                    "duration": 0.15000000000000568
                },
                {
                    "name": "C3",
                    "midi": 48,
                    "time": 77.39999999999984,
                    "velocity": 0.5433070866141733,
                    "duration": 0.29999999999999716
                },
                {
                    "name": "D3",
                    "midi": 50,
                    "time": 77.39999999999984,
                    "velocity": 0.6062992125984252,
                    "duration": 0.5999999999999943
                },
                {
                    "name": "B2",
                    "midi": 47,
                    "time": 77.69999999999983,
                    "velocity": 0.5669291338582677,
                    "duration": 0.29999999999999716
                },
                {
                    "name": "G4",
                    "midi": 67,
                    "time": 77.99999999999983,
                    "velocity": 0.6692913385826772,
                    "duration": 0.45000000000000284
                },
                {
                    "name": "B3",
                    "midi": 59,
                    "time": 77.99999999999983,
                    "velocity": 0.5275590551181102,
                    "duration": 0.45000000000000284
                },
                {
                    "name": "D4",
                    "midi": 62,
                    "time": 77.99999999999983,
                    "velocity": 0.5275590551181102,
                    "duration": 0.45000000000000284
                },
                {
                    "name": "G3",
                    "midi": 55,
                    "time": 77.99999999999983,
                    "velocity": 0.5275590551181102,
                    "duration": 0.45000000000000284
                },
                {
                    "name": "G3",
                    "midi": 55,
                    "time": 78.44999999999983,
                    "velocity": 0.47244094488188976,
                    "duration": 0.11249999999999716
                },
                {
                    "name": "G4",
                    "midi": 67,
                    "time": 78.44999999999983,
                    "velocity": 0.5984251968503937,
                    "duration": 0.11249999999999716
                },
                {
                    "name": "G#3",
                    "midi": 56,
                    "time": 78.59999999999982,
                    "velocity": 0.49606299212598426,
                    "duration": 0.11249999999999716
                },
                {
                    "name": "G#4",
                    "midi": 68,
                    "time": 78.59999999999982,
                    "velocity": 0.6220472440944882,
                    "duration": 0.11249999999999716
                },
                {
                    "name": "G4",
                    "midi": 67,
                    "time": 78.74999999999982,
                    "velocity": 0.5984251968503937,
                    "duration": 0.11249999999999716
                },
                {
                    "name": "G3",
                    "midi": 55,
                    "time": 78.74999999999982,
                    "velocity": 0.47244094488188976,
                    "duration": 0.11249999999999716
                },
                {
                    "name": "G#4",
                    "midi": 68,
                    "time": 78.8999999999998,
                    "velocity": 0.5984251968503937,
                    "duration": 0.11249999999999716
                },
                {
                    "name": "G#3",
                    "midi": 56,
                    "time": 78.8999999999998,
                    "velocity": 0.47244094488188976,
                    "duration": 0.11249999999999716
                },
                {
                    "name": "D4",
                    "midi": 62,
                    "time": 79.0499999999998,
                    "velocity": 0.5984251968503937,
                    "duration": 0.11249999999999716
                },
                {
                    "name": "D3",
                    "midi": 50,
                    "time": 79.0499999999998,
                    "velocity": 0.47244094488188976,
                    "duration": 0.11249999999999716
                },
                {
                    "name": "G3",
                    "midi": 55,
                    "time": 79.19999999999979,
                    "velocity": 0.49606299212598426,
                    "duration": 0.11249999999999716
                },
                {
                    "name": "G4",
                    "midi": 67,
                    "time": 79.19999999999979,
                    "velocity": 0.6220472440944882,
                    "duration": 0.11249999999999716
                },
                {
                    "name": "F#3",
                    "midi": 54,
                    "time": 79.34999999999978,
                    "velocity": 0.47244094488188976,
                    "duration": 0.11249999999999716
                },
                {
                    "name": "F#4",
                    "midi": 66,
                    "time": 79.34999999999978,
                    "velocity": 0.5984251968503937,
                    "duration": 0.11249999999999716
                },
                {
                    "name": "G3",
                    "midi": 55,
                    "time": 79.49999999999977,
                    "velocity": 0.47244094488188976,
                    "duration": 0.11250000000001137
                },
                {
                    "name": "G4",
                    "midi": 67,
                    "time": 79.49999999999977,
                    "velocity": 0.5984251968503937,
                    "duration": 0.11250000000001137
                },
                {
                    "name": "C4",
                    "midi": 60,
                    "time": 79.64999999999978,
                    "velocity": 0.5984251968503937,
                    "duration": 0.11249999999999716
                },
                {
                    "name": "C3",
                    "midi": 48,
                    "time": 79.64999999999978,
                    "velocity": 0.47244094488188976,
                    "duration": 0.11249999999999716
                },
                {
                    "name": "F4",
                    "midi": 65,
                    "time": 79.79999999999978,
                    "velocity": 0.6220472440944882,
                    "duration": 0.11249999999999716
                },
                {
                    "name": "F3",
                    "midi": 53,
                    "time": 79.79999999999978,
                    "velocity": 0.49606299212598426,
                    "duration": 0.11249999999999716
                },
                {
                    "name": "E3",
                    "midi": 52,
                    "time": 79.94999999999978,
                    "velocity": 0.4881889763779528,
                    "duration": 0.11249999999999716
                },
                {
                    "name": "E4",
                    "midi": 64,
                    "time": 79.94999999999978,
                    "velocity": 0.6062992125984252,
                    "duration": 0.11249999999999716
                },
                {
                    "name": "F4",
                    "midi": 65,
                    "time": 80.09999999999977,
                    "velocity": 0.6062992125984252,
                    "duration": 0.11249999999999716
                },
                {
                    "name": "F3",
                    "midi": 53,
                    "time": 80.09999999999977,
                    "velocity": 0.4881889763779528,
                    "duration": 0.11249999999999716
                },
                {
                    "name": "B2",
                    "midi": 47,
                    "time": 80.24999999999976,
                    "velocity": 0.4881889763779528,
                    "duration": 0.11249999999999716
                },
                {
                    "name": "B3",
                    "midi": 59,
                    "time": 80.24999999999976,
                    "velocity": 0.6062992125984252,
                    "duration": 0.11249999999999716
                },
                {
                    "name": "D#4",
                    "midi": 63,
                    "time": 80.39999999999975,
                    "velocity": 0.6220472440944882,
                    "duration": 0.11250000000001137
                },
                {
                    "name": "D#3",
                    "midi": 51,
                    "time": 80.39999999999975,
                    "velocity": 0.49606299212598426,
                    "duration": 0.11250000000001137
                },
                {
                    "name": "D4",
                    "midi": 62,
                    "time": 80.54999999999976,
                    "velocity": 0.5984251968503937,
                    "duration": 0.11249999999999716
                },
                {
                    "name": "D3",
                    "midi": 50,
                    "time": 80.54999999999976,
                    "velocity": 0.47244094488188976,
                    "duration": 0.11249999999999716
                },
                {
                    "name": "D#4",
                    "midi": 63,
                    "time": 80.69999999999975,
                    "velocity": 0.5984251968503937,
                    "duration": 0.11250000000001137
                },
                {
                    "name": "D#3",
                    "midi": 51,
                    "time": 80.69999999999975,
                    "velocity": 0.47244094488188976,
                    "duration": 0.11250000000001137
                },
                {
                    "name": "C4",
                    "midi": 60,
                    "time": 80.84999999999975,
                    "velocity": 0.5984251968503937,
                    "duration": 0.11249999999999716
                },
                {
                    "name": "C3",
                    "midi": 48,
                    "time": 80.84999999999975,
                    "velocity": 0.47244094488188976,
                    "duration": 0.11249999999999716
                },
                {
                    "name": "A#2",
                    "midi": 46,
                    "time": 80.99999999999974,
                    "velocity": 0.47244094488188976,
                    "duration": 0.11249999999999716
                },
                {
                    "name": "A#3",
                    "midi": 58,
                    "time": 80.99999999999974,
                    "velocity": 0.5984251968503937,
                    "duration": 0.11249999999999716
                },
                {
                    "name": "G#2",
                    "midi": 44,
                    "time": 81.14999999999974,
                    "velocity": 0.44881889763779526,
                    "duration": 0.11249999999999716
                },
                {
                    "name": "G#3",
                    "midi": 56,
                    "time": 81.14999999999974,
                    "velocity": 0.5669291338582677,
                    "duration": 0.11249999999999716
                },
                {
                    "name": "G2",
                    "midi": 43,
                    "time": 81.29999999999973,
                    "velocity": 0.44881889763779526,
                    "duration": 0.11249999999999716
                },
                {
                    "name": "G3",
                    "midi": 55,
                    "time": 81.29999999999973,
                    "velocity": 0.5669291338582677,
                    "duration": 0.11249999999999716
                },
                {
                    "name": "F2",
                    "midi": 41,
                    "time": 81.44999999999972,
                    "velocity": 0.44881889763779526,
                    "duration": 0.11249999999999716
                },
                {
                    "name": "F3",
                    "midi": 53,
                    "time": 81.44999999999972,
                    "velocity": 0.5669291338582677,
                    "duration": 0.11249999999999716
                },
                {
                    "name": "D#2",
                    "midi": 39,
                    "time": 81.59999999999971,
                    "velocity": 0.4881889763779528,
                    "duration": 0.11249999999999716
                },
                {
                    "name": "D#3",
                    "midi": 51,
                    "time": 81.59999999999971,
                    "velocity": 0.6062992125984252,
                    "duration": 0.11249999999999716
                },
                {
                    "name": "G3",
                    "midi": 55,
                    "time": 81.7499999999997,
                    "velocity": 0.5669291338582677,
                    "duration": 0.11249999999999716
                },
                {
                    "name": "G2",
                    "midi": 43,
                    "time": 81.7499999999997,
                    "velocity": 0.44881889763779526,
                    "duration": 0.11249999999999716
                },
                {
                    "name": "F2",
                    "midi": 41,
                    "time": 81.8999999999997,
                    "velocity": 0.44881889763779526,
                    "duration": 0.11249999999999716
                },
                {
                    "name": "F3",
                    "midi": 53,
                    "time": 81.8999999999997,
                    "velocity": 0.5669291338582677,
                    "duration": 0.11249999999999716
                },
                {
                    "name": "D3",
                    "midi": 50,
                    "time": 82.04999999999968,
                    "velocity": 0.5669291338582677,
                    "duration": 0.125
                },
                {
                    "name": "D2",
                    "midi": 38,
                    "time": 82.04999999999968,
                    "velocity": 0.44881889763779526,
                    "duration": 0.11249999999999716
                },
                {
                    "name": "B2",
                    "midi": 47,
                    "time": 82.19999999999969,
                    "velocity": 0.5984251968503937,
                    "duration": 0.15000000000000568
                },
                {
                    "name": "B1",
                    "midi": 35,
                    "time": 82.19999999999969,
                    "velocity": 0.47244094488188976,
                    "duration": 0.15000000000000568
                },
                {
                    "name": "C3",
                    "midi": 48,
                    "time": 82.3499999999997,
                    "velocity": 0.5826771653543307,
                    "duration": 0.125
                },
                {
                    "name": "C2",
                    "midi": 36,
                    "time": 82.3499999999997,
                    "velocity": 0.4645669291338583,
                    "duration": 0.125
                },
                {
                    "name": "G3",
                    "midi": 55,
                    "time": 82.4999999999997,
                    "velocity": 0.5118110236220472,
                    "duration": 0.22499999999999432
                },
                {
                    "name": "D#3",
                    "midi": 51,
                    "time": 82.4999999999997,
                    "velocity": 0.5118110236220472,
                    "duration": 0.22499999999999432
                },
                {
                    "name": "C4",
                    "midi": 60,
                    "time": 82.4999999999997,
                    "velocity": 0.6456692913385826,
                    "duration": 0.22499999999999432
                },
                {
                    "name": "A#1",
                    "midi": 34,
                    "time": 82.7999999999997,
                    "velocity": 0.6141732283464567,
                    "duration": 0.45000000000000284
                },
                {
                    "name": "A#2",
                    "midi": 46,
                    "time": 82.7999999999997,
                    "velocity": 0.6850393700787402,
                    "duration": 0.45000000000000284
                },
                {
                    "name": "F2",
                    "midi": 41,
                    "time": 83.0999999999997,
                    "velocity": 0.4645669291338583,
                    "duration": 0.30000000000001137
                },
                {
                    "name": "G#2",
                    "midi": 44,
                    "time": 83.0999999999997,
                    "velocity": 0.5196850393700787,
                    "duration": 0.30000000000001137
                },
                {
                    "name": "A#1",
                    "midi": 34,
                    "time": 83.2499999999997,
                    "velocity": 0.5511811023622047,
                    "duration": 0.15000000000000568
                },
                {
                    "name": "A#2",
                    "midi": 46,
                    "time": 83.2499999999997,
                    "velocity": 0.6141732283464567,
                    "duration": 0.15000000000000568
                },
                {
                    "name": "A#1",
                    "midi": 34,
                    "time": 83.39999999999971,
                    "velocity": 0.5748031496062992,
                    "duration": 0.15000000000000568
                },
                {
                    "name": "A#2",
                    "midi": 46,
                    "time": 83.39999999999971,
                    "velocity": 0.6456692913385826,
                    "duration": 0.15000000000000568
                },
                {
                    "name": "A1",
                    "midi": 33,
                    "time": 83.54999999999971,
                    "velocity": 0.4881889763779528,
                    "duration": 0.15000000000000568
                },
                {
                    "name": "A2",
                    "midi": 45,
                    "time": 83.54999999999971,
                    "velocity": 0.5433070866141733,
                    "duration": 0.15000000000000568
                },
                {
                    "name": "A#1",
                    "midi": 34,
                    "time": 83.69999999999972,
                    "velocity": 0.5039370078740157,
                    "duration": 0.15000000000000568
                },
                {
                    "name": "A#2",
                    "midi": 46,
                    "time": 83.69999999999972,
                    "velocity": 0.5669291338582677,
                    "duration": 0.15000000000000568
                },
                {
                    "name": "D2",
                    "midi": 38,
                    "time": 83.84999999999972,
                    "velocity": 0.5275590551181102,
                    "duration": 0.15000000000000568
                },
                {
                    "name": "D3",
                    "midi": 50,
                    "time": 83.84999999999972,
                    "velocity": 0.5984251968503937,
                    "duration": 0.15000000000000568
                },
                {
                    "name": "F2",
                    "midi": 41,
                    "time": 83.99999999999973,
                    "velocity": 0.5511811023622047,
                    "duration": 0.15000000000000568
                },
                {
                    "name": "F3",
                    "midi": 53,
                    "time": 83.99999999999973,
                    "velocity": 0.6141732283464567,
                    "duration": 0.15000000000000568
                },
                {
                    "name": "A#2",
                    "midi": 46,
                    "time": 84.14999999999974,
                    "velocity": 0.5669291338582677,
                    "duration": 0.14999999999999147
                },
                {
                    "name": "A#3",
                    "midi": 58,
                    "time": 84.14999999999974,
                    "velocity": 0.6377952755905512,
                    "duration": 0.14999999999999147
                },
                {
                    "name": "D3",
                    "midi": 50,
                    "time": 84.29999999999973,
                    "velocity": 0.5826771653543307,
                    "duration": 0.15000000000000568
                },
                {
                    "name": "D4",
                    "midi": 62,
                    "time": 84.29999999999973,
                    "velocity": 0.6614173228346457,
                    "duration": 0.15000000000000568
                },
                {
                    "name": "F3",
                    "midi": 53,
                    "time": 84.44999999999973,
                    "velocity": 0.6062992125984252,
                    "duration": 0.15000000000000568
                },
                {
                    "name": "F4",
                    "midi": 65,
                    "time": 84.44999999999973,
                    "velocity": 0.6771653543307087,
                    "duration": 0.15000000000000568
                },
                {
                    "name": "G#4",
                    "midi": 68,
                    "time": 84.59999999999974,
                    "velocity": 0.7086614173228346,
                    "duration": 0.15000000000000568
                },
                {
                    "name": "G#3",
                    "midi": 56,
                    "time": 84.59999999999974,
                    "velocity": 0.6299212598425197,
                    "duration": 0.15000000000000568
                },
                {
                    "name": "F3",
                    "midi": 53,
                    "time": 84.74999999999974,
                    "velocity": 0.5748031496062992,
                    "duration": 0.15000000000000568
                },
                {
                    "name": "F4",
                    "midi": 65,
                    "time": 84.74999999999974,
                    "velocity": 0.6456692913385826,
                    "duration": 0.15000000000000568
                },
                {
                    "name": "D3",
                    "midi": 50,
                    "time": 84.89999999999975,
                    "velocity": 0.49606299212598426,
                    "duration": 0.22499999999999432
                },
                {
                    "name": "G#3",
                    "midi": 56,
                    "time": 84.89999999999975,
                    "velocity": 0.49606299212598426,
                    "duration": 0.22499999999999432
                },
                {
                    "name": "A#3",
                    "midi": 58,
                    "time": 84.89999999999975,
                    "velocity": 0.49606299212598426,
                    "duration": 0.22499999999999432
                },
                {
                    "name": "D4",
                    "midi": 62,
                    "time": 84.89999999999975,
                    "velocity": 0.5590551181102362,
                    "duration": 0.22499999999999432
                },
                {
                    "name": "A#1",
                    "midi": 34,
                    "time": 85.19999999999975,
                    "velocity": 0.6141732283464567,
                    "duration": 0.45000000000000284
                },
                {
                    "name": "A#2",
                    "midi": 46,
                    "time": 85.19999999999975,
                    "velocity": 0.6850393700787402,
                    "duration": 0.45000000000000284
                },
                {
                    "name": "F2",
                    "midi": 41,
                    "time": 85.49999999999974,
                    "velocity": 0.4645669291338583,
                    "duration": 0.30000000000001137
                },
                {
                    "name": "G#2",
                    "midi": 44,
                    "time": 85.49999999999974,
                    "velocity": 0.5196850393700787,
                    "duration": 0.30000000000001137
                },
                {
                    "name": "A#1",
                    "midi": 34,
                    "time": 85.64999999999975,
                    "velocity": 0.5511811023622047,
                    "duration": 0.15000000000000568
                },
                {
                    "name": "A#2",
                    "midi": 46,
                    "time": 85.64999999999975,
                    "velocity": 0.6141732283464567,
                    "duration": 0.15000000000000568
                },
                {
                    "name": "A#1",
                    "midi": 34,
                    "time": 85.79999999999976,
                    "velocity": 0.5748031496062992,
                    "duration": 0.15000000000000568
                },
                {
                    "name": "A#2",
                    "midi": 46,
                    "time": 85.79999999999976,
                    "velocity": 0.6456692913385826,
                    "duration": 0.15000000000000568
                },
                {
                    "name": "A1",
                    "midi": 33,
                    "time": 85.94999999999976,
                    "velocity": 0.4881889763779528,
                    "duration": 0.15000000000000568
                },
                {
                    "name": "A2",
                    "midi": 45,
                    "time": 85.94999999999976,
                    "velocity": 0.5433070866141733,
                    "duration": 0.15000000000000568
                },
                {
                    "name": "A#1",
                    "midi": 34,
                    "time": 86.09999999999977,
                    "velocity": 0.5039370078740157,
                    "duration": 0.15000000000000568
                },
                {
                    "name": "A#2",
                    "midi": 46,
                    "time": 86.09999999999977,
                    "velocity": 0.5669291338582677,
                    "duration": 0.15000000000000568
                },
                {
                    "name": "D2",
                    "midi": 38,
                    "time": 86.24999999999977,
                    "velocity": 0.5275590551181102,
                    "duration": 0.15000000000000568
                },
                {
                    "name": "D3",
                    "midi": 50,
                    "time": 86.24999999999977,
                    "velocity": 0.5984251968503937,
                    "duration": 0.15000000000000568
                },
                {
                    "name": "F2",
                    "midi": 41,
                    "time": 86.39999999999978,
                    "velocity": 0.5511811023622047,
                    "duration": 0.15000000000000568
                },
                {
                    "name": "F3",
                    "midi": 53,
                    "time": 86.39999999999978,
                    "velocity": 0.6141732283464567,
                    "duration": 0.15000000000000568
                },
                {
                    "name": "A#2",
                    "midi": 46,
                    "time": 86.54999999999978,
                    "velocity": 0.5669291338582677,
                    "duration": 0.15000000000000568
                },
                {
                    "name": "A#3",
                    "midi": 58,
                    "time": 86.54999999999978,
                    "velocity": 0.6377952755905512,
                    "duration": 0.15000000000000568
                },
                {
                    "name": "D3",
                    "midi": 50,
                    "time": 86.69999999999979,
                    "velocity": 0.5826771653543307,
                    "duration": 0.15000000000000568
                },
                {
                    "name": "D4",
                    "midi": 62,
                    "time": 86.69999999999979,
                    "velocity": 0.6614173228346457,
                    "duration": 0.15000000000000568
                },
                {
                    "name": "F3",
                    "midi": 53,
                    "time": 86.8499999999998,
                    "velocity": 0.6062992125984252,
                    "duration": 0.15000000000000568
                },
                {
                    "name": "F4",
                    "midi": 65,
                    "time": 86.8499999999998,
                    "velocity": 0.6771653543307087,
                    "duration": 0.15000000000000568
                },
                {
                    "name": "G#4",
                    "midi": 68,
                    "time": 86.9999999999998,
                    "velocity": 0.7086614173228346,
                    "duration": 0.15000000000000568
                },
                {
                    "name": "G#3",
                    "midi": 56,
                    "time": 86.9999999999998,
                    "velocity": 0.6299212598425197,
                    "duration": 0.15000000000000568
                },
                {
                    "name": "F3",
                    "midi": 53,
                    "time": 87.1499999999998,
                    "velocity": 0.5748031496062992,
                    "duration": 0.11249999999999716
                },
                {
                    "name": "F4",
                    "midi": 65,
                    "time": 87.1499999999998,
                    "velocity": 0.6456692913385826,
                    "duration": 0.11249999999999716
                },
                {
                    "name": "B2",
                    "midi": 47,
                    "time": 87.2999999999998,
                    "velocity": 0.49606299212598426,
                    "duration": 0.22500000000000853
                },
                {
                    "name": "F3",
                    "midi": 53,
                    "time": 87.2999999999998,
                    "velocity": 0.49606299212598426,
                    "duration": 0.22500000000000853
                },
                {
                    "name": "G#3",
                    "midi": 56,
                    "time": 87.2999999999998,
                    "velocity": 0.49606299212598426,
                    "duration": 0.22500000000000853
                },
                {
                    "name": "B3",
                    "midi": 59,
                    "time": 87.2999999999998,
                    "velocity": 0.5590551181102362,
                    "duration": 0.22500000000000853
                },
                {
                    "name": "G2",
                    "midi": 43,
                    "time": 87.59999999999981,
                    "velocity": 0.7086614173228346,
                    "duration": 0.45000000000000284
                },
                {
                    "name": "G3",
                    "midi": 55,
                    "time": 87.59999999999981,
                    "velocity": 0.7086614173228346,
                    "duration": 0.45000000000000284
                },
                {
                    "name": "D#2",
                    "midi": 39,
                    "time": 88.04999999999981,
                    "velocity": 0.5511811023622047,
                    "duration": 0.15000000000000568
                },
                {
                    "name": "D#3",
                    "midi": 51,
                    "time": 88.04999999999981,
                    "velocity": 0.5511811023622047,
                    "duration": 0.15000000000000568
                },
                {
                    "name": "C2",
                    "midi": 36,
                    "time": 88.19999999999982,
                    "velocity": 0.5748031496062992,
                    "duration": 0.11249999999999716
                },
                {
                    "name": "C3",
                    "midi": 48,
                    "time": 88.19999999999982,
                    "velocity": 0.5748031496062992,
                    "duration": 0.11249999999999716
                },
                {
                    "name": "B1",
                    "midi": 35,
                    "time": 88.34999999999981,
                    "velocity": 0.5511811023622047,
                    "duration": 0.11249999999999716
                },
                {
                    "name": "B2",
                    "midi": 47,
                    "time": 88.34999999999981,
                    "velocity": 0.5511811023622047,
                    "duration": 0.11249999999999716
                },
                {
                    "name": "D#2",
                    "midi": 39,
                    "time": 88.4999999999998,
                    "velocity": 0.4015748031496063,
                    "duration": 0.22500000000000853
                },
                {
                    "name": "G2",
                    "midi": 43,
                    "time": 88.4999999999998,
                    "velocity": 0.4015748031496063,
                    "duration": 0.22500000000000853
                },
                {
                    "name": "C2",
                    "midi": 36,
                    "time": 88.4999999999998,
                    "velocity": 0.5511811023622047,
                    "duration": 0.15000000000000568
                },
                {
                    "name": "C3",
                    "midi": 48,
                    "time": 88.4999999999998,
                    "velocity": 0.5511811023622047,
                    "duration": 0.15000000000000568
                },
                {
                    "name": "D2",
                    "midi": 38,
                    "time": 88.6499999999998,
                    "velocity": 0.5511811023622047,
                    "duration": 0.15000000000000568
                },
                {
                    "name": "D3",
                    "midi": 50,
                    "time": 88.6499999999998,
                    "velocity": 0.5511811023622047,
                    "duration": 0.15000000000000568
                },
                {
                    "name": "G2",
                    "midi": 43,
                    "time": 88.79999999999981,
                    "velocity": 0.4251968503937008,
                    "duration": 0.5999999999999943
                },
                {
                    "name": "C3",
                    "midi": 48,
                    "time": 88.79999999999981,
                    "velocity": 0.4251968503937008,
                    "duration": 0.5999999999999943
                },
                {
                    "name": "D#2",
                    "midi": 39,
                    "time": 88.79999999999981,
                    "velocity": 0.5669291338582677,
                    "duration": 0.11249999999999716
                },
                {
                    "name": "D#3",
                    "midi": 51,
                    "time": 88.79999999999981,
                    "velocity": 0.5669291338582677,
                    "duration": 0.11249999999999716
                },
                {
                    "name": "D2",
                    "midi": 38,
                    "time": 88.9499999999998,
                    "velocity": 0.5511811023622047,
                    "duration": 0.11249999999999716
                },
                {
                    "name": "D3",
                    "midi": 50,
                    "time": 88.9499999999998,
                    "velocity": 0.5511811023622047,
                    "duration": 0.11249999999999716
                },
                {
                    "name": "D#2",
                    "midi": 39,
                    "time": 89.0999999999998,
                    "velocity": 0.5511811023622047,
                    "duration": 0.15000000000000568
                },
                {
                    "name": "D#3",
                    "midi": 51,
                    "time": 89.0999999999998,
                    "velocity": 0.5511811023622047,
                    "duration": 0.15000000000000568
                },
                {
                    "name": "F2",
                    "midi": 41,
                    "time": 89.2499999999998,
                    "velocity": 0.5511811023622047,
                    "duration": 0.15000000000000568
                },
                {
                    "name": "F3",
                    "midi": 53,
                    "time": 89.2499999999998,
                    "velocity": 0.5511811023622047,
                    "duration": 0.15000000000000568
                },
                {
                    "name": "D3",
                    "midi": 50,
                    "time": 89.3999999999998,
                    "velocity": 0.4251968503937008,
                    "duration": 0.22499999999999432
                },
                {
                    "name": "C3",
                    "midi": 48,
                    "time": 89.3999999999998,
                    "velocity": 0.4251968503937008,
                    "duration": 0.22499999999999432
                },
                {
                    "name": "G2",
                    "midi": 43,
                    "time": 89.3999999999998,
                    "velocity": 0.5669291338582677,
                    "duration": 0.11249999999999716
                },
                {
                    "name": "G3",
                    "midi": 55,
                    "time": 89.3999999999998,
                    "velocity": 0.5669291338582677,
                    "duration": 0.11249999999999716
                },
                {
                    "name": "F#2",
                    "midi": 42,
                    "time": 89.5499999999998,
                    "velocity": 0.5511811023622047,
                    "duration": 0.125
                },
                {
                    "name": "F#3",
                    "midi": 54,
                    "time": 89.5499999999998,
                    "velocity": 0.5511811023622047,
                    "duration": 0.125
                },
                {
                    "name": "B2",
                    "midi": 47,
                    "time": 89.6999999999998,
                    "velocity": 0.4251968503937008,
                    "duration": 0.22500000000000853
                },
                {
                    "name": "D3",
                    "midi": 50,
                    "time": 89.6999999999998,
                    "velocity": 0.4251968503937008,
                    "duration": 0.22500000000000853
                },
                {
                    "name": "G2",
                    "midi": 43,
                    "time": 89.6999999999998,
                    "velocity": 0.5511811023622047,
                    "duration": 0.15000000000000568
                },
                {
                    "name": "G3",
                    "midi": 55,
                    "time": 89.6999999999998,
                    "velocity": 0.5511811023622047,
                    "duration": 0.15000000000000568
                },
                {
                    "name": "A3",
                    "midi": 57,
                    "time": 89.84999999999981,
                    "velocity": 0.5511811023622047,
                    "duration": 0.15000000000000568
                },
                {
                    "name": "A2",
                    "midi": 45,
                    "time": 89.84999999999981,
                    "velocity": 0.5511811023622047,
                    "duration": 0.15000000000000568
                },
                {
                    "name": "B2",
                    "midi": 47,
                    "time": 89.99999999999982,
                    "velocity": 0.5826771653543307,
                    "duration": 0.11249999999999716
                },
                {
                    "name": "B3",
                    "midi": 59,
                    "time": 89.99999999999982,
                    "velocity": 0.5826771653543307,
                    "duration": 0.11249999999999716
                },
                {
                    "name": "A2",
                    "midi": 45,
                    "time": 90.1499999999998,
                    "velocity": 0.5511811023622047,
                    "duration": 0.13750000000000284
                },
                {
                    "name": "A3",
                    "midi": 57,
                    "time": 90.1499999999998,
                    "velocity": 0.5511811023622047,
                    "duration": 0.13750000000000284
                },
                {
                    "name": "D3",
                    "midi": 50,
                    "time": 90.29999999999981,
                    "velocity": 0.4251968503937008,
                    "duration": 0.22500000000000853
                },
                {
                    "name": "F3",
                    "midi": 53,
                    "time": 90.29999999999981,
                    "velocity": 0.4251968503937008,
                    "duration": 0.22500000000000853
                },
                {
                    "name": "B2",
                    "midi": 47,
                    "time": 90.29999999999981,
                    "velocity": 0.5511811023622047,
                    "duration": 0.15000000000000568
                },
                {
                    "name": "B3",
                    "midi": 59,
                    "time": 90.29999999999981,
                    "velocity": 0.5511811023622047,
                    "duration": 0.15000000000000568
                },
                {
                    "name": "G2",
                    "midi": 43,
                    "time": 90.44999999999982,
                    "velocity": 0.5511811023622047,
                    "duration": 0.15000000000000568
                },
                {
                    "name": "G3",
                    "midi": 55,
                    "time": 90.44999999999982,
                    "velocity": 0.5511811023622047,
                    "duration": 0.15000000000000568
                },
                {
                    "name": "D#3",
                    "midi": 51,
                    "time": 90.59999999999982,
                    "velocity": 0.47244094488188976,
                    "duration": 0.22500000000000853
                },
                {
                    "name": "C3",
                    "midi": 48,
                    "time": 90.59999999999982,
                    "velocity": 0.6220472440944882,
                    "duration": 0.125
                },
                {
                    "name": "C4",
                    "midi": 60,
                    "time": 90.59999999999982,
                    "velocity": 0.6220472440944882,
                    "duration": 0.125
                },
                {
                    "name": "B2",
                    "midi": 47,
                    "time": 90.74999999999983,
                    "velocity": 0.5433070866141733,
                    "duration": 0.15000000000000568
                },
                {
                    "name": "B3",
                    "midi": 59,
                    "time": 90.74999999999983,
                    "velocity": 0.5433070866141733,
                    "duration": 0.15000000000000568
                },
                {
                    "name": "G3",
                    "midi": 55,
                    "time": 90.89999999999984,
                    "velocity": 0.47244094488188976,
                    "duration": 0.22500000000000853
                },
                {
                    "name": "D#3",
                    "midi": 51,
                    "time": 90.89999999999984,
                    "velocity": 0.47244094488188976,
                    "duration": 0.22500000000000853
                },
                {
                    "name": "C3",
                    "midi": 48,
                    "time": 90.89999999999984,
                    "velocity": 0.5511811023622047,
                    "duration": 0.15000000000000568
                },
                {
                    "name": "C4",
                    "midi": 60,
                    "time": 90.89999999999984,
                    "velocity": 0.5511811023622047,
                    "duration": 0.15000000000000568
                },
                {
                    "name": "D3",
                    "midi": 50,
                    "time": 91.04999999999984,
                    "velocity": 0.5669291338582677,
                    "duration": 0.15000000000000568
                },
                {
                    "name": "D4",
                    "midi": 62,
                    "time": 91.04999999999984,
                    "velocity": 0.5669291338582677,
                    "duration": 0.15000000000000568
                },
                {
                    "name": "C4",
                    "midi": 60,
                    "time": 91.19999999999985,
                    "velocity": 0.49606299212598426,
                    "duration": 0.22500000000000853
                },
                {
                    "name": "G3",
                    "midi": 55,
                    "time": 91.19999999999985,
                    "velocity": 0.49606299212598426,
                    "duration": 0.22500000000000853
                },
                {
                    "name": "D#3",
                    "midi": 51,
                    "time": 91.19999999999985,
                    "velocity": 0.6377952755905512,
                    "duration": 0.125
                },
                {
                    "name": "D#4",
                    "midi": 63,
                    "time": 91.19999999999985,
                    "velocity": 0.6377952755905512,
                    "duration": 0.125
                },
                {
                    "name": "D3",
                    "midi": 50,
                    "time": 91.34999999999985,
                    "velocity": 0.5511811023622047,
                    "duration": 0.15000000000000568
                },
                {
                    "name": "D4",
                    "midi": 62,
                    "time": 91.34999999999985,
                    "velocity": 0.5511811023622047,
                    "duration": 0.15000000000000568
                },
                {
                    "name": "G#3",
                    "midi": 56,
                    "time": 91.49999999999986,
                    "velocity": 0.49606299212598426,
                    "duration": 0.22500000000000853
                },
                {
                    "name": "C4",
                    "midi": 60,
                    "time": 91.49999999999986,
                    "velocity": 0.49606299212598426,
                    "duration": 0.22500000000000853
                },
                {
                    "name": "D#3",
                    "midi": 51,
                    "time": 91.49999999999986,
                    "velocity": 0.5669291338582677,
                    "duration": 0.15000000000000568
                },
                {
                    "name": "D#4",
                    "midi": 63,
                    "time": 91.49999999999986,
                    "velocity": 0.5669291338582677,
                    "duration": 0.15000000000000568
                },
                {
                    "name": "F3",
                    "midi": 53,
                    "time": 91.64999999999986,
                    "velocity": 0.5748031496062992,
                    "duration": 0.15000000000000568
                },
                {
                    "name": "F4",
                    "midi": 65,
                    "time": 91.64999999999986,
                    "velocity": 0.5748031496062992,
                    "duration": 0.15000000000000568
                },
                {
                    "name": "B3",
                    "midi": 59,
                    "time": 91.79999999999987,
                    "velocity": 0.6377952755905512,
                    "duration": 0.15000000000000568
                },
                {
                    "name": "G3",
                    "midi": 55,
                    "time": 91.79999999999987,
                    "velocity": 0.6377952755905512,
                    "duration": 0.15000000000000568
                },
                {
                    "name": "G4",
                    "midi": 67,
                    "time": 91.79999999999987,
                    "velocity": 0.6377952755905512,
                    "duration": 0.15000000000000568
                },
                {
                    "name": "G2",
                    "midi": 43,
                    "time": 92.09999999999988,
                    "velocity": 0.5433070866141733,
                    "duration": 0.22499999999999432
                },
                {
                    "name": "D3",
                    "midi": 50,
                    "time": 92.09999999999988,
                    "velocity": 0.5433070866141733,
                    "duration": 0.22499999999999432
                },
                {
                    "name": "G3",
                    "midi": 55,
                    "time": 92.09999999999988,
                    "velocity": 0.5433070866141733,
                    "duration": 0.22499999999999432
                },
                {
                    "name": "G4",
                    "midi": 67,
                    "time": 92.39999999999988,
                    "velocity": 0.6299212598425197,
                    "duration": 0.45000000000000284
                },
                {
                    "name": "D4",
                    "midi": 62,
                    "time": 92.39999999999988,
                    "velocity": 0.5669291338582677,
                    "duration": 0.45000000000000284
                },
                {
                    "name": "B3",
                    "midi": 59,
                    "time": 92.39999999999988,
                    "velocity": 0.5669291338582677,
                    "duration": 0.45000000000000284
                },
                {
                    "name": "G3",
                    "midi": 55,
                    "time": 92.39999999999988,
                    "velocity": 0.5669291338582677,
                    "duration": 0.45000000000000284
                },
                {
                    "name": "G2",
                    "midi": 43,
                    "time": 92.84999999999988,
                    "velocity": 0.5039370078740157,
                    "duration": 0.15000000000000568
                },
                {
                    "name": "G3",
                    "midi": 55,
                    "time": 92.84999999999988,
                    "velocity": 0.5669291338582677,
                    "duration": 0.15000000000000568
                },
                {
                    "name": "F2",
                    "midi": 41,
                    "time": 92.99999999999989,
                    "velocity": 0.5196850393700787,
                    "duration": 0.15000000000000568
                },
                {
                    "name": "B2",
                    "midi": 47,
                    "time": 92.99999999999989,
                    "velocity": 0.5196850393700787,
                    "duration": 0.15000000000000568
                },
                {
                    "name": "F3",
                    "midi": 53,
                    "time": 92.99999999999989,
                    "velocity": 0.5826771653543307,
                    "duration": 0.15000000000000568
                },
                {
                    "name": "E2",
                    "midi": 40,
                    "time": 93.14999999999989,
                    "velocity": 0.5039370078740157,
                    "duration": 0.15000000000000568
                },
                {
                    "name": "E3",
                    "midi": 52,
                    "time": 93.14999999999989,
                    "velocity": 0.5669291338582677,
                    "duration": 0.15000000000000568
                },
                {
                    "name": "F2",
                    "midi": 41,
                    "time": 93.2999999999999,
                    "velocity": 0.5039370078740157,
                    "duration": 0.15000000000000568
                },
                {
                    "name": "B2",
                    "midi": 47,
                    "time": 93.2999999999999,
                    "velocity": 0.5039370078740157,
                    "duration": 0.15000000000000568
                },
                {
                    "name": "F3",
                    "midi": 53,
                    "time": 93.2999999999999,
                    "velocity": 0.5669291338582677,
                    "duration": 0.15000000000000568
                },
                {
                    "name": "B2",
                    "midi": 47,
                    "time": 93.4499999999999,
                    "velocity": 0.5039370078740157,
                    "duration": 0.15000000000000568
                },
                {
                    "name": "B3",
                    "midi": 59,
                    "time": 93.4499999999999,
                    "velocity": 0.5669291338582677,
                    "duration": 0.15000000000000568
                },
                {
                    "name": "D#2",
                    "midi": 39,
                    "time": 93.59999999999991,
                    "velocity": 0.5196850393700787,
                    "duration": 0.15000000000000568
                },
                {
                    "name": "D#3",
                    "midi": 51,
                    "time": 93.59999999999991,
                    "velocity": 0.5826771653543307,
                    "duration": 0.15000000000000568
                },
                {
                    "name": "D2",
                    "midi": 38,
                    "time": 93.74999999999991,
                    "velocity": 0.5039370078740157,
                    "duration": 0.15000000000000568
                },
                {
                    "name": "D3",
                    "midi": 50,
                    "time": 93.74999999999991,
                    "velocity": 0.5669291338582677,
                    "duration": 0.15000000000000568
                },
                {
                    "name": "D#2",
                    "midi": 39,
                    "time": 93.89999999999992,
                    "velocity": 0.5039370078740157,
                    "duration": 0.15000000000000568
                },
                {
                    "name": "C3",
                    "midi": 48,
                    "time": 93.89999999999992,
                    "velocity": 0.5669291338582677,
                    "duration": 0.15000000000000568
                },
                {
                    "name": "D#3",
                    "midi": 51,
                    "time": 93.89999999999992,
                    "velocity": 0.5669291338582677,
                    "duration": 0.15000000000000568
                },
                {
                    "name": "G#2",
                    "midi": 44,
                    "time": 94.04999999999993,
                    "velocity": 0.5039370078740157,
                    "duration": 0.15000000000000568
                },
                {
                    "name": "G#3",
                    "midi": 56,
                    "time": 94.04999999999993,
                    "velocity": 0.5669291338582677,
                    "duration": 0.15000000000000568
                },
                {
                    "name": "D2",
                    "midi": 38,
                    "time": 94.19999999999993,
                    "velocity": 0.5196850393700787,
                    "duration": 0.15000000000000568
                },
                {
                    "name": "G#2",
                    "midi": 44,
                    "time": 94.19999999999993,
                    "velocity": 0.5196850393700787,
                    "duration": 0.15000000000000568
                },
                {
                    "name": "D3",
                    "midi": 50,
                    "time": 94.19999999999993,
                    "velocity": 0.5826771653543307,
                    "duration": 0.15000000000000568
                },
                {
                    "name": "C#2",
                    "midi": 37,
                    "time": 94.34999999999994,
                    "velocity": 0.5039370078740157,
                    "duration": 0.15000000000000568
                },
                {
                    "name": "C#3",
                    "midi": 49,
                    "time": 94.34999999999994,
                    "velocity": 0.5669291338582677,
                    "duration": 0.15000000000000568
                },
                {
                    "name": "D2",
                    "midi": 38,
                    "time": 94.49999999999994,
                    "velocity": 0.5039370078740157,
                    "duration": 0.11249999999999716
                },
                {
                    "name": "G2",
                    "midi": 43,
                    "time": 94.49999999999994,
                    "velocity": 0.5039370078740157,
                    "duration": 0.11249999999999716
                },
                {
                    "name": "D3",
                    "midi": 50,
                    "time": 94.49999999999994,
                    "velocity": 0.5669291338582677,
                    "duration": 0.11249999999999716
                },
                {
                    "name": "G2",
                    "midi": 43,
                    "time": 94.64999999999993,
                    "velocity": 0.5039370078740157,
                    "duration": 0.15000000000000568
                },
                {
                    "name": "G3",
                    "midi": 55,
                    "time": 94.64999999999993,
                    "velocity": 0.5669291338582677,
                    "duration": 0.15000000000000568
                },
                {
                    "name": "C2",
                    "midi": 36,
                    "time": 94.79999999999994,
                    "velocity": 0.5196850393700787,
                    "duration": 0.15000000000000568
                },
                {
                    "name": "C3",
                    "midi": 48,
                    "time": 94.79999999999994,
                    "velocity": 0.5826771653543307,
                    "duration": 0.15000000000000568
                },
                {
                    "name": "B1",
                    "midi": 35,
                    "time": 94.94999999999995,
                    "velocity": 0.5039370078740157,
                    "duration": 0.15000000000000568
                },
                {
                    "name": "B2",
                    "midi": 47,
                    "time": 94.94999999999995,
                    "velocity": 0.5669291338582677,
                    "duration": 0.15000000000000568
                },
                {
                    "name": "C2",
                    "midi": 36,
                    "time": 95.09999999999995,
                    "velocity": 0.5039370078740157,
                    "duration": 0.11249999999999716
                },
                {
                    "name": "G2",
                    "midi": 43,
                    "time": 95.09999999999995,
                    "velocity": 0.5039370078740157,
                    "duration": 0.11249999999999716
                },
                {
                    "name": "C3",
                    "midi": 48,
                    "time": 95.09999999999995,
                    "velocity": 0.5669291338582677,
                    "duration": 0.11249999999999716
                },
                {
                    "name": "D#2",
                    "midi": 39,
                    "time": 95.24999999999994,
                    "velocity": 0.5039370078740157,
                    "duration": 0.15000000000000568
                },
                {
                    "name": "D#3",
                    "midi": 51,
                    "time": 95.24999999999994,
                    "velocity": 0.5669291338582677,
                    "duration": 0.15000000000000568
                },
                {
                    "name": "F2",
                    "midi": 41,
                    "time": 95.39999999999995,
                    "velocity": 0.5196850393700787,
                    "duration": 0.29999999999999716
                },
                {
                    "name": "F3",
                    "midi": 53,
                    "time": 95.39999999999995,
                    "velocity": 0.5826771653543307,
                    "duration": 0.29999999999999716
                },
                {
                    "name": "D#3",
                    "midi": 51,
                    "time": 95.69999999999995,
                    "velocity": 0.5039370078740157,
                    "duration": 0.11249999999999716
                },
                {
                    "name": "D#4",
                    "midi": 63,
                    "time": 95.69999999999995,
                    "velocity": 0.5669291338582677,
                    "duration": 0.11249999999999716
                },
                {
                    "name": "D3",
                    "midi": 50,
                    "time": 95.84999999999994,
                    "velocity": 0.5039370078740157,
                    "duration": 0.11249999999999716
                },
                {
                    "name": "D4",
                    "midi": 62,
                    "time": 95.84999999999994,
                    "velocity": 0.5669291338582677,
                    "duration": 0.11249999999999716
                },
                {
                    "name": "C3",
                    "midi": 48,
                    "time": 95.99999999999993,
                    "velocity": 0.5275590551181102,
                    "duration": 0.11249999999999716
                },
                {
                    "name": "C4",
                    "midi": 60,
                    "time": 95.99999999999993,
                    "velocity": 0.5984251968503937,
                    "duration": 0.11249999999999716
                },
                {
                    "name": "G2",
                    "midi": 43,
                    "time": 96.14999999999992,
                    "velocity": 0.5039370078740157,
                    "duration": 0.11249999999999716
                },
                {
                    "name": "G3",
                    "midi": 55,
                    "time": 96.14999999999992,
                    "velocity": 0.5669291338582677,
                    "duration": 0.11249999999999716
                },
                {
                    "name": "G#2",
                    "midi": 44,
                    "time": 96.29999999999991,
                    "velocity": 0.5039370078740157,
                    "duration": 0.11249999999999716
                },
                {
                    "name": "G#3",
                    "midi": 56,
                    "time": 96.29999999999991,
                    "velocity": 0.5669291338582677,
                    "duration": 0.11249999999999716
                },
                {
                    "name": "G2",
                    "midi": 43,
                    "time": 96.4499999999999,
                    "velocity": 0.5039370078740157,
                    "duration": 0.125
                },
                {
                    "name": "G3",
                    "midi": 55,
                    "time": 96.4499999999999,
                    "velocity": 0.5669291338582677,
                    "duration": 0.125
                },
                {
                    "name": "B1",
                    "midi": 35,
                    "time": 96.59999999999991,
                    "velocity": 0.5039370078740157,
                    "duration": 0.15000000000000568
                },
                {
                    "name": "B2",
                    "midi": 47,
                    "time": 96.59999999999991,
                    "velocity": 0.5669291338582677,
                    "duration": 0.15000000000000568
                },
                {
                    "name": "C2",
                    "midi": 36,
                    "time": 96.74999999999991,
                    "velocity": 0.49606299212598426,
                    "duration": 0.11249999999999716
                },
                {
                    "name": "C3",
                    "midi": 48,
                    "time": 96.74999999999991,
                    "velocity": 0.5590551181102362,
                    "duration": 0.11249999999999716
                },
                {
                    "name": "C3",
                    "midi": 48,
                    "time": 96.8999999999999,
                    "velocity": 0.5511811023622047,
                    "duration": 0.22499999999999432
                },
                {
                    "name": "D#3",
                    "midi": 51,
                    "time": 96.8999999999999,
                    "velocity": 0.5511811023622047,
                    "duration": 0.22499999999999432
                },
                {
                    "name": "G3",
                    "midi": 55,
                    "time": 96.8999999999999,
                    "velocity": 0.5511811023622047,
                    "duration": 0.22499999999999432
                },
                {
                    "name": "C4",
                    "midi": 60,
                    "time": 96.8999999999999,
                    "velocity": 0.6141732283464567,
                    "duration": 0.22499999999999432
                },
                {
                    "name": "B1",
                    "midi": 35,
                    "time": 98.9999999999999,
                    "velocity": 0.5433070866141733,
                    "duration": 0.15000000000000568
                },
                {
                    "name": "B2",
                    "midi": 47,
                    "time": 98.9999999999999,
                    "velocity": 0.6062992125984252,
                    "duration": 0.15000000000000568
                },
                {
                    "name": "C2",
                    "midi": 36,
                    "time": 99.1499999999999,
                    "velocity": 0.49606299212598426,
                    "duration": 0.11249999999999716
                },
                {
                    "name": "C3",
                    "midi": 48,
                    "time": 99.1499999999999,
                    "velocity": 0.5590551181102362,
                    "duration": 0.11249999999999716
                },
                {
                    "name": "G#3",
                    "midi": 56,
                    "time": 99.2999999999999,
                    "velocity": 0.4330708661417323,
                    "duration": 0.22499999999999432
                },
                {
                    "name": "C3",
                    "midi": 48,
                    "time": 99.2999999999999,
                    "velocity": 0.4330708661417323,
                    "duration": 0.22499999999999432
                },
                {
                    "name": "F#3",
                    "midi": 54,
                    "time": 99.2999999999999,
                    "velocity": 0.4330708661417323,
                    "duration": 0.22499999999999432
                },
                {
                    "name": "D#4",
                    "midi": 63,
                    "time": 99.2999999999999,
                    "velocity": 0.49606299212598426,
                    "duration": 0.22499999999999432
                },
                {
                    "name": "D#4",
                    "midi": 63,
                    "time": 100.12499999999989,
                    "velocity": 0.4409448818897638,
                    "duration": 0.07500000000000284
                },
                {
                    "name": "D#4",
                    "midi": 63,
                    "time": 100.19999999999989,
                    "velocity": 0.4881889763779528,
                    "duration": 1.2000000000000028
                },
                {
                    "name": "B1",
                    "midi": 35,
                    "time": 101.39999999999989,
                    "velocity": 0.4251968503937008,
                    "duration": 0.07500000000000284
                },
                {
                    "name": "B2",
                    "midi": 47,
                    "time": 101.39999999999989,
                    "velocity": 0.47244094488188976,
                    "duration": 0.07500000000000284
                },
                {
                    "name": "C2",
                    "midi": 36,
                    "time": 101.5499999999999,
                    "velocity": 0.4015748031496063,
                    "duration": 0.07500000000000284
                },
                {
                    "name": "C3",
                    "midi": 48,
                    "time": 101.5499999999999,
                    "velocity": 0.44881889763779526,
                    "duration": 0.07500000000000284
                },
                {
                    "name": "F#2",
                    "midi": 42,
                    "time": 101.6999999999999,
                    "velocity": 0.36220472440944884,
                    "duration": 0.22499999999999432
                },
                {
                    "name": "F#3",
                    "midi": 54,
                    "time": 101.6999999999999,
                    "velocity": 0.41732283464566927,
                    "duration": 0.22499999999999432
                },
                {
                    "name": "A4",
                    "midi": 69,
                    "time": 101.9999999999999,
                    "velocity": 0.4015748031496063,
                    "duration": 0.5999999999999943
                },
                {
                    "name": "F#4",
                    "midi": 66,
                    "time": 101.9999999999999,
                    "velocity": 0.3543307086614173,
                    "duration": 0.5999999999999943
                },
                {
                    "name": "D#4",
                    "midi": 63,
                    "time": 101.9999999999999,
                    "velocity": 0.3543307086614173,
                    "duration": 0.5999999999999943
                },
                {
                    "name": "D4",
                    "midi": 62,
                    "time": 102.5999999999999,
                    "velocity": 0.3464566929133858,
                    "duration": 0.5999999999999943
                },
                {
                    "name": "F4",
                    "midi": 65,
                    "time": 102.5999999999999,
                    "velocity": 0.3464566929133858,
                    "duration": 0.5999999999999943
                },
                {
                    "name": "A4",
                    "midi": 69,
                    "time": 102.5999999999999,
                    "velocity": 0.3858267716535433,
                    "duration": 0.5999999999999943
                },
                {
                    "name": "E2",
                    "midi": 40,
                    "time": 103.19999999999989,
                    "velocity": 0.3543307086614173,
                    "duration": 0.07500000000000284
                },
                {
                    "name": "E3",
                    "midi": 52,
                    "time": 103.19999999999989,
                    "velocity": 0.4566929133858268,
                    "duration": 0.07500000000000284
                },
                {
                    "name": "F2",
                    "midi": 41,
                    "time": 103.3499999999999,
                    "velocity": 0.3543307086614173,
                    "duration": 0.11249999999999716
                },
                {
                    "name": "F3",
                    "midi": 53,
                    "time": 103.3499999999999,
                    "velocity": 0.44881889763779526,
                    "duration": 0.11249999999999716
                },
                {
                    "name": "F4",
                    "midi": 65,
                    "time": 103.49999999999989,
                    "velocity": 0.41732283464566927,
                    "duration": 0.29999999999999716
                },
                {
                    "name": "F3",
                    "midi": 53,
                    "time": 103.49999999999989,
                    "velocity": 0.33070866141732286,
                    "duration": 0.29999999999999716
                },
                {
                    "name": "A#1",
                    "midi": 34,
                    "time": 104.39999999999988,
                    "velocity": 0.3779527559055118,
                    "duration": 0.45000000000000284
                },
                {
                    "name": "A#2",
                    "midi": 46,
                    "time": 104.39999999999988,
                    "velocity": 0.4251968503937008,
                    "duration": 0.45000000000000284
                },
                {
                    "name": "F2",
                    "midi": 41,
                    "time": 104.69999999999987,
                    "velocity": 0.36220472440944884,
                    "duration": 0.29999999999999716
                },
                {
                    "name": "G#2",
                    "midi": 44,
                    "time": 104.69999999999987,
                    "velocity": 0.36220472440944884,
                    "duration": 0.29999999999999716
                },
                {
                    "name": "A#1",
                    "midi": 34,
                    "time": 104.84999999999988,
                    "velocity": 0.3779527559055118,
                    "duration": 0.11249999999999716
                },
                {
                    "name": "A#2",
                    "midi": 46,
                    "time": 104.84999999999988,
                    "velocity": 0.3779527559055118,
                    "duration": 0.11249999999999716
                },
                {
                    "name": "A#1",
                    "midi": 34,
                    "time": 104.99999999999987,
                    "velocity": 0.3543307086614173,
                    "duration": 0.07500000000000284
                },
                {
                    "name": "A#2",
                    "midi": 46,
                    "time": 104.99999999999987,
                    "velocity": 0.3937007874015748,
                    "duration": 0.07500000000000284
                },
                {
                    "name": "A1",
                    "midi": 33,
                    "time": 105.14999999999988,
                    "velocity": 0.3543307086614173,
                    "duration": 0.07500000000000284
                },
                {
                    "name": "A2",
                    "midi": 45,
                    "time": 105.14999999999988,
                    "velocity": 0.4094488188976378,
                    "duration": 0.07500000000000284
                },
                {
                    "name": "A#1",
                    "midi": 34,
                    "time": 105.29999999999988,
                    "velocity": 0.3543307086614173,
                    "duration": 0.07500000000000284
                },
                {
                    "name": "A#2",
                    "midi": 46,
                    "time": 105.29999999999988,
                    "velocity": 0.4094488188976378,
                    "duration": 0.07500000000000284
                },
                {
                    "name": "D2",
                    "midi": 38,
                    "time": 105.44999999999989,
                    "velocity": 0.36220472440944884,
                    "duration": 0.07500000000000284
                },
                {
                    "name": "D3",
                    "midi": 50,
                    "time": 105.44999999999989,
                    "velocity": 0.41732283464566927,
                    "duration": 0.07500000000000284
                },
                {
                    "name": "F2",
                    "midi": 41,
                    "time": 105.5999999999999,
                    "velocity": 0.3858267716535433,
                    "duration": 0.07500000000000284
                },
                {
                    "name": "F3",
                    "midi": 53,
                    "time": 105.5999999999999,
                    "velocity": 0.4330708661417323,
                    "duration": 0.07500000000000284
                },
                {
                    "name": "A#2",
                    "midi": 46,
                    "time": 105.7499999999999,
                    "velocity": 0.4015748031496063,
                    "duration": 0.07500000000000284
                },
                {
                    "name": "A#3",
                    "midi": 58,
                    "time": 105.7499999999999,
                    "velocity": 0.44881889763779526,
                    "duration": 0.07500000000000284
                },
                {
                    "name": "D3",
                    "midi": 50,
                    "time": 105.8999999999999,
                    "velocity": 0.4015748031496063,
                    "duration": 0.07500000000000284
                },
                {
                    "name": "D4",
                    "midi": 62,
                    "time": 105.8999999999999,
                    "velocity": 0.44881889763779526,
                    "duration": 0.07500000000000284
                },
                {
                    "name": "F3",
                    "midi": 53,
                    "time": 106.04999999999991,
                    "velocity": 0.4094488188976378,
                    "duration": 0.07500000000000284
                },
                {
                    "name": "F4",
                    "midi": 65,
                    "time": 106.04999999999991,
                    "velocity": 0.4566929133858268,
                    "duration": 0.07500000000000284
                },
                {
                    "name": "G#4",
                    "midi": 68,
                    "time": 106.19999999999992,
                    "velocity": 0.47244094488188976,
                    "duration": 0.07500000000000284
                },
                {
                    "name": "G#3",
                    "midi": 56,
                    "time": 106.19999999999992,
                    "velocity": 0.4251968503937008,
                    "duration": 0.07500000000000284
                },
                {
                    "name": "F3",
                    "midi": 53,
                    "time": 106.34999999999992,
                    "velocity": 0.4015748031496063,
                    "duration": 0.07500000000000284
                },
                {
                    "name": "F4",
                    "midi": 65,
                    "time": 106.34999999999992,
                    "velocity": 0.44881889763779526,
                    "duration": 0.07500000000000284
                },
                {
                    "name": "D3",
                    "midi": 50,
                    "time": 106.49999999999993,
                    "velocity": 0.3464566929133858,
                    "duration": 0.15000000000000568
                },
                {
                    "name": "D4",
                    "midi": 62,
                    "time": 106.49999999999993,
                    "velocity": 0.3858267716535433,
                    "duration": 0.15000000000000568
                },
                {
                    "name": "G#4",
                    "midi": 68,
                    "time": 108.97499999999994,
                    "velocity": 0.2992125984251969,
                    "duration": 0.07500000000000284
                },
                {
                    "name": "D4",
                    "midi": 62,
                    "time": 109.04999999999994,
                    "velocity": 0.30708661417322836,
                    "duration": 0.07500000000000284
                },
                {
                    "name": "F3",
                    "midi": 53,
                    "time": 109.12499999999994,
                    "velocity": 0.33070866141732286,
                    "duration": 0.07500000000000284
                },
                {
                    "name": "A#2",
                    "midi": 46,
                    "time": 109.19999999999995,
                    "velocity": 0.3464566929133858,
                    "duration": 0.29999999999999716
                },
                {
                    "name": "G#3",
                    "midi": 56,
                    "time": 110.17499999999994,
                    "velocity": 0.2755905511811024,
                    "duration": 0.07500000000000284
                },
                {
                    "name": "F3",
                    "midi": 53,
                    "time": 110.24999999999994,
                    "velocity": 0.28346456692913385,
                    "duration": 0.07500000000000284
                },
                {
                    "name": "B2",
                    "midi": 47,
                    "time": 110.32499999999995,
                    "velocity": 0.2992125984251969,
                    "duration": 0.07500000000000284
                },
                {
                    "name": "D#2",
                    "midi": 39,
                    "time": 110.39999999999995,
                    "velocity": 0.30708661417322836,
                    "duration": 0.29999999999999716
                },
                {
                    "name": "G#5",
                    "midi": 80,
                    "time": 111.29999999999994,
                    "velocity": 0.28346456692913385,
                    "duration": 0.07500000000000284
                },
                {
                    "name": "F5",
                    "midi": 77,
                    "time": 111.37499999999994,
                    "velocity": 0.28346456692913385,
                    "duration": 0.07500000000000284
                },
                {
                    "name": "B4",
                    "midi": 71,
                    "time": 111.44999999999995,
                    "velocity": 0.28346456692913385,
                    "duration": 0.07500000000000284
                },
                {
                    "name": "A#4",
                    "midi": 70,
                    "time": 111.52499999999995,
                    "velocity": 0.28346456692913385,
                    "duration": 0.07500000000000284
                },
                {
                    "name": "G#3",
                    "midi": 56,
                    "time": 111.89999999999995,
                    "velocity": 0.28346456692913385,
                    "duration": 0.07500000000000284
                },
                {
                    "name": "F3",
                    "midi": 53,
                    "time": 111.97499999999995,
                    "velocity": 0.28346456692913385,
                    "duration": 0.07500000000000284
                },
                {
                    "name": "B2",
                    "midi": 47,
                    "time": 112.04999999999995,
                    "velocity": 0.28346456692913385,
                    "duration": 0.07500000000000284
                },
                {
                    "name": "A#2",
                    "midi": 46,
                    "time": 112.12499999999996,
                    "velocity": 0.28346456692913385,
                    "duration": 0.07500000000000284
                },
                {
                    "name": "D4",
                    "midi": 62,
                    "time": 112.71249999999996,
                    "velocity": 0.2440944881889764,
                    "duration": 0.38750000000000284
                },
                {
                    "name": "A4",
                    "midi": 69,
                    "time": 112.72499999999997,
                    "velocity": 0.25196850393700787,
                    "duration": 0.375
                },
                {
                    "name": "C5",
                    "midi": 72,
                    "time": 112.73749999999997,
                    "velocity": 0.25984251968503935,
                    "duration": 0.36249999999999716
                },
                {
                    "name": "F#5",
                    "midi": 78,
                    "time": 112.74999999999997,
                    "velocity": 0.2755905511811024,
                    "duration": 0.3499999999999943
                },
                {
                    "name": "A#3",
                    "midi": 58,
                    "time": 113.32499999999996,
                    "velocity": 0.25196850393700787,
                    "duration": 0.375
                },
                {
                    "name": "F4",
                    "midi": 65,
                    "time": 113.33749999999996,
                    "velocity": 0.25984251968503935,
                    "duration": 0.36249999999999716
                },
                {
                    "name": "G#4",
                    "midi": 68,
                    "time": 113.34999999999997,
                    "velocity": 0.2755905511811024,
                    "duration": 0.3499999999999943
                },
                {
                    "name": "D5",
                    "midi": 74,
                    "time": 113.36249999999997,
                    "velocity": 0.28346456692913385,
                    "duration": 0.3374999999999915
                },
                {
                    "name": "B3",
                    "midi": 59,
                    "time": 115.19999999999996,
                    "velocity": 0.28346456692913385,
                    "duration": 0.07500000000001705
                },
                {
                    "name": "C4",
                    "midi": 60,
                    "time": 115.24999999999997,
                    "velocity": 0.2755905511811024,
                    "duration": 0.07500000000001705
                },
                {
                    "name": "B3",
                    "midi": 59,
                    "time": 115.29999999999998,
                    "velocity": 0.28346456692913385,
                    "duration": 0.07500000000001705
                },
                {
                    "name": "C4",
                    "midi": 60,
                    "time": 115.35,
                    "velocity": 0.2755905511811024,
                    "duration": 0.07500000000001705
                },
                {
                    "name": "B3",
                    "midi": 59,
                    "time": 115.4,
                    "velocity": 0.28346456692913385,
                    "duration": 0.07500000000001705
                },
                {
                    "name": "C4",
                    "midi": 60,
                    "time": 115.45000000000002,
                    "velocity": 0.2755905511811024,
                    "duration": 0.07500000000001705
                },
                {
                    "name": "B3",
                    "midi": 59,
                    "time": 115.50000000000003,
                    "velocity": 0.28346456692913385,
                    "duration": 0.056250000000005684
                },
                {
                    "name": "C4",
                    "midi": 60,
                    "time": 115.53750000000004,
                    "velocity": 0.2755905511811024,
                    "duration": 0.056249999999991473
                },
                {
                    "name": "B3",
                    "midi": 59,
                    "time": 115.57500000000003,
                    "velocity": 0.29133858267716534,
                    "duration": 0.07500000000000284
                },
                {
                    "name": "A#3",
                    "midi": 58,
                    "time": 115.65000000000003,
                    "velocity": 0.28346456692913385,
                    "duration": 0.10000000000000853
                },
                {
                    "name": "B3",
                    "midi": 59,
                    "time": 115.72500000000004,
                    "velocity": 0.28346456692913385,
                    "duration": 0.07500000000000284
                },
                {
                    "name": "C#4",
                    "midi": 61,
                    "time": 116.40000000000003,
                    "velocity": 0.3228346456692913,
                    "duration": 0.07500000000000284
                },
                {
                    "name": "D4",
                    "midi": 62,
                    "time": 116.45000000000003,
                    "velocity": 0.29133858267716534,
                    "duration": 0.07500000000001705
                },
                {
                    "name": "C#4",
                    "midi": 61,
                    "time": 116.50000000000004,
                    "velocity": 0.33070866141732286,
                    "duration": 0.07500000000001705
                },
                {
                    "name": "D4",
                    "midi": 62,
                    "time": 116.55000000000005,
                    "velocity": 0.29133858267716534,
                    "duration": 0.07500000000001705
                },
                {
                    "name": "C#4",
                    "midi": 61,
                    "time": 116.60000000000007,
                    "velocity": 0.33858267716535434,
                    "duration": 0.07500000000001705
                },
                {
                    "name": "D4",
                    "midi": 62,
                    "time": 116.65000000000008,
                    "velocity": 0.2992125984251969,
                    "duration": 0.07500000000001705
                },
                {
                    "name": "C#4",
                    "midi": 61,
                    "time": 116.70000000000009,
                    "velocity": 0.3464566929133858,
                    "duration": 0.056250000000005684
                },
                {
                    "name": "D4",
                    "midi": 62,
                    "time": 116.7375000000001,
                    "velocity": 0.30708661417322836,
                    "duration": 0.056249999999991473
                },
                {
                    "name": "C#4",
                    "midi": 61,
                    "time": 116.77500000000009,
                    "velocity": 0.3464566929133858,
                    "duration": 0.056249999999991473
                },
                {
                    "name": "D4",
                    "midi": 62,
                    "time": 116.81250000000009,
                    "velocity": 0.30708661417322836,
                    "duration": 0.056249999999991473
                },
                {
                    "name": "C#4",
                    "midi": 61,
                    "time": 116.85000000000008,
                    "velocity": 0.3464566929133858,
                    "duration": 0.056249999999991473
                },
                {
                    "name": "D4",
                    "midi": 62,
                    "time": 116.88750000000007,
                    "velocity": 0.3228346456692913,
                    "duration": 0.056249999999991473
                },
                {
                    "name": "C#4",
                    "midi": 61,
                    "time": 116.92500000000007,
                    "velocity": 0.3543307086614173,
                    "duration": 0.056249999999991473
                },
                {
                    "name": "D4",
                    "midi": 62,
                    "time": 116.96250000000006,
                    "velocity": 0.3228346456692913,
                    "duration": 0.056249999999991473
                },
                {
                    "name": "C#4",
                    "midi": 61,
                    "time": 117.00000000000006,
                    "velocity": 0.3543307086614173,
                    "duration": 0.07500000000000284
                },
                {
                    "name": "D4",
                    "midi": 62,
                    "time": 117.05000000000005,
                    "velocity": 0.3228346456692913,
                    "duration": 0.07500000000001705
                },
                {
                    "name": "C#4",
                    "midi": 61,
                    "time": 117.10000000000007,
                    "velocity": 0.3543307086614173,
                    "duration": 0.07500000000001705
                },
                {
                    "name": "D4",
                    "midi": 62,
                    "time": 117.15000000000008,
                    "velocity": 0.30708661417322836,
                    "duration": 0.07500000000001705
                },
                {
                    "name": "C#4",
                    "midi": 61,
                    "time": 117.20000000000009,
                    "velocity": 0.3543307086614173,
                    "duration": 0.07500000000001705
                },
                {
                    "name": "D4",
                    "midi": 62,
                    "time": 117.2500000000001,
                    "velocity": 0.30708661417322836,
                    "duration": 0.07500000000001705
                },
                {
                    "name": "C#4",
                    "midi": 61,
                    "time": 117.30000000000011,
                    "velocity": 0.3464566929133858,
                    "duration": 0.056250000000005684
                },
                {
                    "name": "D4",
                    "midi": 62,
                    "time": 117.33750000000012,
                    "velocity": 0.2992125984251969,
                    "duration": 0.056249999999991473
                },
                {
                    "name": "C#4",
                    "midi": 61,
                    "time": 117.37500000000011,
                    "velocity": 0.33858267716535434,
                    "duration": 0.056249999999991473
                },
                {
                    "name": "D4",
                    "midi": 62,
                    "time": 117.41250000000011,
                    "velocity": 0.29133858267716534,
                    "duration": 0.056249999999991473
                },
                {
                    "name": "C#4",
                    "midi": 61,
                    "time": 117.4500000000001,
                    "velocity": 0.3228346456692913,
                    "duration": 0.056249999999991473
                },
                {
                    "name": "D4",
                    "midi": 62,
                    "time": 117.4875000000001,
                    "velocity": 0.29133858267716534,
                    "duration": 0.056249999999991473
                },
                {
                    "name": "C#4",
                    "midi": 61,
                    "time": 117.52500000000009,
                    "velocity": 0.3228346456692913,
                    "duration": 0.056249999999991473
                },
                {
                    "name": "D4",
                    "midi": 62,
                    "time": 117.56250000000009,
                    "velocity": 0.28346456692913385,
                    "duration": 0.056249999999991473
                },
                {
                    "name": "C#4",
                    "midi": 61,
                    "time": 117.60000000000008,
                    "velocity": 0.3228346456692913,
                    "duration": 0.07500000000000284
                },
                {
                    "name": "D4",
                    "midi": 62,
                    "time": 117.65000000000008,
                    "velocity": 0.28346456692913385,
                    "duration": 0.07500000000001705
                },
                {
                    "name": "C#4",
                    "midi": 61,
                    "time": 117.70000000000009,
                    "velocity": 0.2992125984251969,
                    "duration": 0.07500000000001705
                },
                {
                    "name": "D4",
                    "midi": 62,
                    "time": 117.7500000000001,
                    "velocity": 0.2755905511811024,
                    "duration": 0.07500000000001705
                },
                {
                    "name": "C#4",
                    "midi": 61,
                    "time": 117.80000000000011,
                    "velocity": 0.28346456692913385,
                    "duration": 0.07500000000001705
                },
                {
                    "name": "D4",
                    "midi": 62,
                    "time": 117.85000000000012,
                    "velocity": 0.25984251968503935,
                    "duration": 0.07500000000001705
                },
                {
                    "name": "C#4",
                    "midi": 61,
                    "time": 117.90000000000013,
                    "velocity": 0.28346456692913385,
                    "duration": 0.056250000000005684
                },
                {
                    "name": "D4",
                    "midi": 62,
                    "time": 117.93750000000014,
                    "velocity": 0.25196850393700787,
                    "duration": 0.056249999999991473
                },
                {
                    "name": "C#4",
                    "midi": 61,
                    "time": 117.97500000000014,
                    "velocity": 0.25984251968503935,
                    "duration": 0.07500000000000284
                },
                {
                    "name": "C4",
                    "midi": 60,
                    "time": 118.05000000000014,
                    "velocity": 0.2283464566929134,
                    "duration": 0.07500000000000284
                },
                {
                    "name": "C#4",
                    "midi": 61,
                    "time": 118.12500000000014,
                    "velocity": 0.2047244094488189,
                    "duration": 0.07500000000000284
                },
                {
                    "name": "F5",
                    "midi": 77,
                    "time": 119.78500000000014,
                    "velocity": 0.29133858267716534,
                    "duration": 0.048749999999998295
                },
                {
                    "name": "D#5",
                    "midi": 75,
                    "time": 119.84000000000013,
                    "velocity": 0.29133858267716534,
                    "duration": 0.048749999999998295
                },
                {
                    "name": "D5",
                    "midi": 74,
                    "time": 119.89500000000012,
                    "velocity": 0.28346456692913385,
                    "duration": 0.048749999999998295
                },
                {
                    "name": "C5",
                    "midi": 72,
                    "time": 119.95000000000012,
                    "velocity": 0.28346456692913385,
                    "duration": 0.04375000000000284
                },
                {
                    "name": "A#4",
                    "midi": 70,
                    "time": 120.00000000000011,
                    "velocity": 0.3228346456692913,
                    "duration": 0.11249999999999716
                },
                {
                    "name": "D#2",
                    "midi": 39,
                    "time": 120.30000000000011,
                    "velocity": 0.2125984251968504,
                    "duration": 0.11249999999999716
                },
                {
                    "name": "A#2",
                    "midi": 46,
                    "time": 120.30000000000011,
                    "velocity": 0.2125984251968504,
                    "duration": 0.11249999999999716
                },
                {
                    "name": "D#2",
                    "midi": 39,
                    "time": 120.60000000000011,
                    "velocity": 0.2125984251968504,
                    "duration": 0.11249999999999716
                },
                {
                    "name": "A#2",
                    "midi": 46,
                    "time": 120.60000000000011,
                    "velocity": 0.2125984251968504,
                    "duration": 0.11249999999999716
                },
                {
                    "name": "D#2",
                    "midi": 39,
                    "time": 120.9000000000001,
                    "velocity": 0.2125984251968504,
                    "duration": 0.11249999999999716
                },
                {
                    "name": "A#2",
                    "midi": 46,
                    "time": 120.9000000000001,
                    "velocity": 0.2125984251968504,
                    "duration": 0.11249999999999716
                },
                {
                    "name": "D#2",
                    "midi": 39,
                    "time": 121.2000000000001,
                    "velocity": 0.2283464566929134,
                    "duration": 0.5999999999999943
                },
                {
                    "name": "A#2",
                    "midi": 46,
                    "time": 121.2000000000001,
                    "velocity": 0.2283464566929134,
                    "duration": 0.5999999999999943
                },
                {
                    "name": "F5",
                    "midi": 77,
                    "time": 122.2250000000001,
                    "velocity": 0.29133858267716534,
                    "duration": 0.03624999999999545
                },
                {
                    "name": "D#5",
                    "midi": 75,
                    "time": 122.26750000000008,
                    "velocity": 0.29133858267716534,
                    "duration": 0.03624999999999545
                },
                {
                    "name": "D5",
                    "midi": 74,
                    "time": 122.31000000000007,
                    "velocity": 0.28346456692913385,
                    "duration": 0.03624999999999545
                },
                {
                    "name": "C5",
                    "midi": 72,
                    "time": 122.35250000000006,
                    "velocity": 0.28346456692913385,
                    "duration": 0.041250000000005116
                },
                {
                    "name": "A#4",
                    "midi": 70,
                    "time": 122.40000000000006,
                    "velocity": 0.3228346456692913,
                    "duration": 0.11249999999999716
                },
                {
                    "name": "D#2",
                    "midi": 39,
                    "time": 122.70000000000006,
                    "velocity": 0.2125984251968504,
                    "duration": 0.11249999999999716
                },
                {
                    "name": "A#2",
                    "midi": 46,
                    "time": 122.70000000000006,
                    "velocity": 0.2125984251968504,
                    "duration": 0.11249999999999716
                },
                {
                    "name": "D#2",
                    "midi": 39,
                    "time": 123.00000000000006,
                    "velocity": 0.2283464566929134,
                    "duration": 0.11249999999999716
                },
                {
                    "name": "A#2",
                    "midi": 46,
                    "time": 123.00000000000006,
                    "velocity": 0.2283464566929134,
                    "duration": 0.11249999999999716
                },
                {
                    "name": "D#2",
                    "midi": 39,
                    "time": 123.30000000000005,
                    "velocity": 0.2125984251968504,
                    "duration": 0.11249999999999716
                },
                {
                    "name": "A#2",
                    "midi": 46,
                    "time": 123.30000000000005,
                    "velocity": 0.2125984251968504,
                    "duration": 0.11249999999999716
                },
                {
                    "name": "D#2",
                    "midi": 39,
                    "time": 123.60000000000005,
                    "velocity": 0.2125984251968504,
                    "duration": 0.5750000000000028
                },
                {
                    "name": "A#2",
                    "midi": 46,
                    "time": 123.60000000000005,
                    "velocity": 0.2125984251968504,
                    "duration": 0.5750000000000028
                },
                {
                    "name": "F6",
                    "midi": 89,
                    "time": 124.44250000000005,
                    "velocity": 0.29133858267716534,
                    "duration": 0.030000000000001137
                },
                {
                    "name": "D#6",
                    "midi": 87,
                    "time": 124.47500000000005,
                    "velocity": 0.29133858267716534,
                    "duration": 0.030000000000001137
                },
                {
                    "name": "D6",
                    "midi": 86,
                    "time": 124.50750000000005,
                    "velocity": 0.28346456692913385,
                    "duration": 0.030000000000001137
                },
                {
                    "name": "C6",
                    "midi": 84,
                    "time": 124.54000000000005,
                    "velocity": 0.28346456692913385,
                    "duration": 0.030000000000001137
                },
                {
                    "name": "A#5",
                    "midi": 82,
                    "time": 124.57250000000005,
                    "velocity": 0.28346456692913385,
                    "duration": 0.030000000000001137
                },
                {
                    "name": "G#5",
                    "midi": 80,
                    "time": 124.60500000000005,
                    "velocity": 0.28346456692913385,
                    "duration": 0.030000000000001137
                },
                {
                    "name": "G5",
                    "midi": 79,
                    "time": 124.63750000000005,
                    "velocity": 0.28346456692913385,
                    "duration": 0.030000000000001137
                },
                {
                    "name": "F5",
                    "midi": 77,
                    "time": 124.67000000000004,
                    "velocity": 0.28346456692913385,
                    "duration": 0.030000000000001137
                },
                {
                    "name": "D#5",
                    "midi": 75,
                    "time": 124.70250000000004,
                    "velocity": 0.28346456692913385,
                    "duration": 0.030000000000001137
                },
                {
                    "name": "D5",
                    "midi": 74,
                    "time": 124.73500000000004,
                    "velocity": 0.28346456692913385,
                    "duration": 0.030000000000001137
                },
                {
                    "name": "C5",
                    "midi": 72,
                    "time": 124.77000000000004,
                    "velocity": 0.28346456692913385,
                    "duration": 0.030000000000001137
                },
                {
                    "name": "A#4",
                    "midi": 70,
                    "time": 124.80000000000004,
                    "velocity": 0.3228346456692913,
                    "duration": 0.11249999999999716
                },
                {
                    "name": "D#2",
                    "midi": 39,
                    "time": 125.10000000000004,
                    "velocity": 0.2283464566929134,
                    "duration": 0.11249999999999716
                },
                {
                    "name": "A#2",
                    "midi": 46,
                    "time": 125.10000000000004,
                    "velocity": 0.2283464566929134,
                    "duration": 0.11249999999999716
                },
                {
                    "name": "D#2",
                    "midi": 39,
                    "time": 125.40000000000003,
                    "velocity": 0.25196850393700787,
                    "duration": 0.11249999999999716
                },
                {
                    "name": "A#2",
                    "midi": 46,
                    "time": 125.40000000000003,
                    "velocity": 0.25196850393700787,
                    "duration": 0.11249999999999716
                },
                {
                    "name": "D#2",
                    "midi": 39,
                    "time": 125.70000000000003,
                    "velocity": 0.23622047244094488,
                    "duration": 0.11249999999999716
                },
                {
                    "name": "A#2",
                    "midi": 46,
                    "time": 125.70000000000003,
                    "velocity": 0.23622047244094488,
                    "duration": 0.11249999999999716
                },
                {
                    "name": "D#2",
                    "midi": 39,
                    "time": 126.00000000000003,
                    "velocity": 0.25196850393700787,
                    "duration": 0.5999999999999943
                },
                {
                    "name": "A#2",
                    "midi": 46,
                    "time": 126.00000000000003,
                    "velocity": 0.25196850393700787,
                    "duration": 0.5999999999999943
                },
                {
                    "name": "F6",
                    "midi": 89,
                    "time": 126.89750000000002,
                    "velocity": 0.29133858267716534,
                    "duration": 0.025000000000005684
                },
                {
                    "name": "D#6",
                    "midi": 87,
                    "time": 126.92500000000003,
                    "velocity": 0.29133858267716534,
                    "duration": 0.025000000000005684
                },
                {
                    "name": "D6",
                    "midi": 86,
                    "time": 126.95250000000003,
                    "velocity": 0.28346456692913385,
                    "duration": 0.025000000000005684
                },
                {
                    "name": "C6",
                    "midi": 84,
                    "time": 126.98000000000003,
                    "velocity": 0.28346456692913385,
                    "duration": 0.025000000000005684
                },
                {
                    "name": "A#5",
                    "midi": 82,
                    "time": 127.00750000000004,
                    "velocity": 0.28346456692913385,
                    "duration": 0.025000000000005684
                },
                {
                    "name": "G#5",
                    "midi": 80,
                    "time": 127.03500000000004,
                    "velocity": 0.28346456692913385,
                    "duration": 0.025000000000005684
                },
                {
                    "name": "G5",
                    "midi": 79,
                    "time": 127.06250000000004,
                    "velocity": 0.28346456692913385,
                    "duration": 0.025000000000005684
                },
                {
                    "name": "F5",
                    "midi": 77,
                    "time": 127.09000000000005,
                    "velocity": 0.28346456692913385,
                    "duration": 0.025000000000005684
                },
                {
                    "name": "D#5",
                    "midi": 75,
                    "time": 127.11750000000005,
                    "velocity": 0.28346456692913385,
                    "duration": 0.025000000000005684
                },
                {
                    "name": "D5",
                    "midi": 74,
                    "time": 127.14500000000005,
                    "velocity": 0.28346456692913385,
                    "duration": 0.025000000000005684
                },
                {
                    "name": "C5",
                    "midi": 72,
                    "time": 127.17250000000006,
                    "velocity": 0.28346456692913385,
                    "duration": 0.025000000000005684
                },
                {
                    "name": "A#4",
                    "midi": 70,
                    "time": 127.20000000000006,
                    "velocity": 0.3228346456692913,
                    "duration": 0.11249999999999716
                },
                {
                    "name": "D#2",
                    "midi": 39,
                    "time": 127.50000000000006,
                    "velocity": 0.2440944881889764,
                    "duration": 0.11249999999999716
                },
                {
                    "name": "A#2",
                    "midi": 46,
                    "time": 127.50000000000006,
                    "velocity": 0.2440944881889764,
                    "duration": 0.11249999999999716
                },
                {
                    "name": "D#2",
                    "midi": 39,
                    "time": 127.80000000000005,
                    "velocity": 0.25196850393700787,
                    "duration": 0.11249999999999716
                },
                {
                    "name": "B2",
                    "midi": 47,
                    "time": 127.80000000000005,
                    "velocity": 0.25196850393700787,
                    "duration": 0.11249999999999716
                },
                {
                    "name": "D#2",
                    "midi": 39,
                    "time": 128.10000000000005,
                    "velocity": 0.2440944881889764,
                    "duration": 0.11250000000001137
                },
                {
                    "name": "A#2",
                    "midi": 46,
                    "time": 128.10000000000005,
                    "velocity": 0.2440944881889764,
                    "duration": 0.11250000000001137
                },
                {
                    "name": "D#3",
                    "midi": 51,
                    "time": 128.40000000000006,
                    "velocity": 0.2283464566929134,
                    "duration": 0.5749999999999886
                },
                {
                    "name": "D#2",
                    "midi": 39,
                    "time": 128.40000000000006,
                    "velocity": 0.2283464566929134,
                    "duration": 0.5749999999999886
                },
                {
                    "name": "A#2",
                    "midi": 46,
                    "time": 128.40000000000006,
                    "velocity": 0.2283464566929134,
                    "duration": 0.5749999999999886
                },
                {
                    "name": "A#2",
                    "midi": 46,
                    "time": 129.00000000000006,
                    "velocity": 0.41732283464566927,
                    "duration": 0.048749999999984084
                },
                {
                    "name": "A2",
                    "midi": 45,
                    "time": 129.05000000000004,
                    "velocity": 0.41732283464566927,
                    "duration": 0.048750000000012506
                },
                {
                    "name": "G#2",
                    "midi": 44,
                    "time": 129.10000000000005,
                    "velocity": 0.41732283464566927,
                    "duration": 0.048750000000012506
                },
                {
                    "name": "G2",
                    "midi": 43,
                    "time": 129.15000000000006,
                    "velocity": 0.41732283464566927,
                    "duration": 0.048750000000012506
                },
                {
                    "name": "F#2",
                    "midi": 42,
                    "time": 129.20000000000007,
                    "velocity": 0.41732283464566927,
                    "duration": 0.048750000000012506
                },
                {
                    "name": "F2",
                    "midi": 41,
                    "time": 129.25000000000009,
                    "velocity": 0.41732283464566927,
                    "duration": 0.048750000000012506
                },
                {
                    "name": "E2",
                    "midi": 40,
                    "time": 129.3000000000001,
                    "velocity": 0.4409448818897638,
                    "duration": 0.048750000000012506
                },
                {
                    "name": "D#2",
                    "midi": 39,
                    "time": 129.3500000000001,
                    "velocity": 0.4566929133858268,
                    "duration": 0.048750000000012506
                },
                {
                    "name": "D2",
                    "midi": 38,
                    "time": 129.40000000000012,
                    "velocity": 0.47244094488188976,
                    "duration": 0.048750000000012506
                },
                {
                    "name": "C#2",
                    "midi": 37,
                    "time": 129.45000000000013,
                    "velocity": 0.49606299212598426,
                    "duration": 0.048750000000012506
                },
                {
                    "name": "C2",
                    "midi": 36,
                    "time": 129.50000000000014,
                    "velocity": 0.5039370078740157,
                    "duration": 0.048750000000012506
                },
                {
                    "name": "B1",
                    "midi": 35,
                    "time": 129.55000000000015,
                    "velocity": 0.5196850393700787,
                    "duration": 0.048750000000012506
                },
                {
                    "name": "A#1",
                    "midi": 34,
                    "time": 129.60000000000016,
                    "velocity": 0.6535433070866141,
                    "duration": 0.07499999999998863
                },
                {
                    "name": "F3",
                    "midi": 53,
                    "time": 129.90000000000015,
                    "velocity": 0.3228346456692913,
                    "duration": 0.11250000000001137
                },
                {
                    "name": "A#2",
                    "midi": 46,
                    "time": 129.90000000000015,
                    "velocity": 0.3228346456692913,
                    "duration": 0.11250000000001137
                },
                {
                    "name": "A#2",
                    "midi": 46,
                    "time": 130.20000000000016,
                    "velocity": 0.3543307086614173,
                    "duration": 0.11250000000001137
                },
                {
                    "name": "F#3",
                    "midi": 54,
                    "time": 130.20000000000016,
                    "velocity": 0.3543307086614173,
                    "duration": 0.11250000000001137
                },
                {
                    "name": "G3",
                    "midi": 55,
                    "time": 130.50000000000017,
                    "velocity": 0.33858267716535434,
                    "duration": 0.11250000000001137
                },
                {
                    "name": "A#2",
                    "midi": 46,
                    "time": 130.50000000000017,
                    "velocity": 0.33858267716535434,
                    "duration": 0.11250000000001137
                },
                {
                    "name": "A#3",
                    "midi": 58,
                    "time": 130.80000000000018,
                    "velocity": 0.3543307086614173,
                    "duration": 0.29750000000001364
                },
                {
                    "name": "A#2",
                    "midi": 46,
                    "time": 130.80000000000018,
                    "velocity": 0.3543307086614173,
                    "duration": 0.6000000000000227
                },
                {
                    "name": "F3",
                    "midi": 53,
                    "time": 131.1000000000002,
                    "velocity": 0.3464566929133858,
                    "duration": 0.15000000000000568
                },
                {
                    "name": "A#1",
                    "midi": 34,
                    "time": 131.4000000000002,
                    "velocity": 0.4330708661417323,
                    "duration": 0.044999999999987494
                },
                {
                    "name": "C2",
                    "midi": 36,
                    "time": 131.4462500000002,
                    "velocity": 0.4409448818897638,
                    "duration": 0.044999999999987494
                },
                {
                    "name": "D2",
                    "midi": 38,
                    "time": 131.49250000000018,
                    "velocity": 0.44881889763779526,
                    "duration": 0.044999999999987494
                },
                {
                    "name": "D#2",
                    "midi": 39,
                    "time": 131.53875000000016,
                    "velocity": 0.4645669291338583,
                    "duration": 0.044999999999987494
                },
                {
                    "name": "F2",
                    "midi": 41,
                    "time": 131.58500000000015,
                    "velocity": 0.47244094488188976,
                    "duration": 0.044999999999987494
                },
                {
                    "name": "G2",
                    "midi": 43,
                    "time": 131.63125000000014,
                    "velocity": 0.4881889763779528,
                    "duration": 0.044999999999987494
                },
                {
                    "name": "A2",
                    "midi": 45,
                    "time": 131.67750000000012,
                    "velocity": 0.49606299212598426,
                    "duration": 0.044999999999987494
                },
                {
                    "name": "A#2",
                    "midi": 46,
                    "time": 131.7237500000001,
                    "velocity": 0.49606299212598426,
                    "duration": 0.044999999999987494
                },
                {
                    "name": "C3",
                    "midi": 48,
                    "time": 131.7700000000001,
                    "velocity": 0.5039370078740157,
                    "duration": 0.044999999999987494
                },
                {
                    "name": "D3",
                    "midi": 50,
                    "time": 131.81625000000008,
                    "velocity": 0.5118110236220472,
                    "duration": 0.044999999999987494
                },
                {
                    "name": "D#3",
                    "midi": 51,
                    "time": 131.86250000000007,
                    "velocity": 0.5275590551181102,
                    "duration": 0.044999999999987494
                },
                {
                    "name": "E3",
                    "midi": 52,
                    "time": 131.90875000000005,
                    "velocity": 0.5433070866141733,
                    "duration": 0.044999999999987494
                },
                {
                    "name": "G3",
                    "midi": 55,
                    "time": 131.95500000000004,
                    "velocity": 0.5511811023622047,
                    "duration": 0.04374999999998863
                },
                {
                    "name": "F3",
                    "midi": 53,
                    "time": 132.00000000000003,
                    "velocity": 0.49606299212598426,
                    "duration": 1.5000000000000568
                },
                {
                    "name": "A#2",
                    "midi": 46,
                    "time": 132.30000000000004,
                    "velocity": 0.3228346456692913,
                    "duration": 0.11250000000001137
                },
                {
                    "name": "F2",
                    "midi": 41,
                    "time": 132.30000000000004,
                    "velocity": 0.3228346456692913,
                    "duration": 0.11250000000001137
                },
                {
                    "name": "F2",
                    "midi": 41,
                    "time": 132.60000000000005,
                    "velocity": 0.3464566929133858,
                    "duration": 0.11250000000001137
                },
                {
                    "name": "C3",
                    "midi": 48,
                    "time": 132.60000000000005,
                    "velocity": 0.3464566929133858,
                    "duration": 0.11250000000001137
                },
                {
                    "name": "D3",
                    "midi": 50,
                    "time": 132.90000000000006,
                    "velocity": 0.33858267716535434,
                    "duration": 0.11250000000001137
                },
                {
                    "name": "F2",
                    "midi": 41,
                    "time": 132.90000000000006,
                    "velocity": 0.33858267716535434,
                    "duration": 0.11250000000001137
                },
                {
                    "name": "A#2",
                    "midi": 46,
                    "time": 133.20000000000007,
                    "velocity": 0.3464566929133858,
                    "duration": 0.6000000000000227
                },
                {
                    "name": "A#1",
                    "midi": 34,
                    "time": 133.50000000000009,
                    "velocity": 0.3779527559055118,
                    "duration": 0.15000000000000568
                },
                {
                    "name": "F#4",
                    "midi": 66,
                    "time": 134.0000000000001,
                    "velocity": 0.4566929133858268,
                    "duration": 0.048750000000012506
                },
                {
                    "name": "F4",
                    "midi": 65,
                    "time": 134.05000000000013,
                    "velocity": 0.4566929133858268,
                    "duration": 0.048750000000012506
                },
                {
                    "name": "E4",
                    "midi": 64,
                    "time": 134.10000000000014,
                    "velocity": 0.47244094488188976,
                    "duration": 0.048750000000012506
                },
                {
                    "name": "D#4",
                    "midi": 63,
                    "time": 134.15000000000015,
                    "velocity": 0.49606299212598426,
                    "duration": 0.048750000000012506
                },
                {
                    "name": "A#3",
                    "midi": 58,
                    "time": 134.70000000000016,
                    "velocity": 0.2992125984251969,
                    "duration": 0.11250000000001137
                },
                {
                    "name": "F3",
                    "midi": 53,
                    "time": 134.70000000000016,
                    "velocity": 0.2992125984251969,
                    "duration": 0.11250000000001137
                },
                {
                    "name": "A#2",
                    "midi": 46,
                    "time": 134.70000000000016,
                    "velocity": 0.2992125984251969,
                    "duration": 0.11250000000001137
                },
                {
                    "name": "C4",
                    "midi": 60,
                    "time": 135.00000000000017,
                    "velocity": 0.33858267716535434,
                    "duration": 0.11250000000001137
                },
                {
                    "name": "A#2",
                    "midi": 46,
                    "time": 135.00000000000017,
                    "velocity": 0.33858267716535434,
                    "duration": 0.11250000000001137
                },
                {
                    "name": "F#3",
                    "midi": 54,
                    "time": 135.00000000000017,
                    "velocity": 0.33858267716535434,
                    "duration": 0.11250000000001137
                },
                {
                    "name": "C#4",
                    "midi": 61,
                    "time": 135.30000000000018,
                    "velocity": 0.33858267716535434,
                    "duration": 0.11250000000001137
                },
                {
                    "name": "G3",
                    "midi": 55,
                    "time": 135.30000000000018,
                    "velocity": 0.3228346456692913,
                    "duration": 0.11250000000001137
                },
                {
                    "name": "A#2",
                    "midi": 46,
                    "time": 135.30000000000018,
                    "velocity": 0.3228346456692913,
                    "duration": 0.11250000000001137
                },
                {
                    "name": "F3",
                    "midi": 53,
                    "time": 135.6000000000002,
                    "velocity": 0.33070866141732286,
                    "duration": 0.6000000000000227
                },
                {
                    "name": "D4",
                    "midi": 62,
                    "time": 135.6000000000002,
                    "velocity": 0.33070866141732286,
                    "duration": 0.30000000000001137
                },
                {
                    "name": "A#2",
                    "midi": 46,
                    "time": 135.6000000000002,
                    "velocity": 0.33070866141732286,
                    "duration": 0.6000000000000227
                },
                {
                    "name": "A#3",
                    "midi": 58,
                    "time": 135.9000000000002,
                    "velocity": 0.3228346456692913,
                    "duration": 0.15000000000000568
                },
                {
                    "name": "A#2",
                    "midi": 46,
                    "time": 136.20000000000022,
                    "velocity": 0.3858267716535433,
                    "duration": 0.044999999999987494
                },
                {
                    "name": "C3",
                    "midi": 48,
                    "time": 136.2462500000002,
                    "velocity": 0.3937007874015748,
                    "duration": 0.044999999999987494
                },
                {
                    "name": "D3",
                    "midi": 50,
                    "time": 136.2925000000002,
                    "velocity": 0.4015748031496063,
                    "duration": 0.044999999999987494
                },
                {
                    "name": "D#3",
                    "midi": 51,
                    "time": 136.33875000000018,
                    "velocity": 0.41732283464566927,
                    "duration": 0.044999999999987494
                },
                {
                    "name": "F3",
                    "midi": 53,
                    "time": 136.38500000000016,
                    "velocity": 0.4251968503937008,
                    "duration": 0.044999999999987494
                },
                {
                    "name": "G3",
                    "midi": 55,
                    "time": 136.43125000000015,
                    "velocity": 0.4330708661417323,
                    "duration": 0.044999999999987494
                },
                {
                    "name": "A3",
                    "midi": 57,
                    "time": 136.47750000000013,
                    "velocity": 0.4330708661417323,
                    "duration": 0.044999999999987494
                },
                {
                    "name": "A#3",
                    "midi": 58,
                    "time": 136.52375000000012,
                    "velocity": 0.4409448818897638,
                    "duration": 0.044999999999987494
                },
                {
                    "name": "F3",
                    "midi": 53,
                    "time": 137.1000000000001,
                    "velocity": 0.2755905511811024,
                    "duration": 0.30000000000001137
                },
                {
                    "name": "B3",
                    "midi": 59,
                    "time": 137.1000000000001,
                    "velocity": 0.2755905511811024,
                    "duration": 0.30000000000001137
                },
                {
                    "name": "C4",
                    "midi": 60,
                    "time": 137.40000000000012,
                    "velocity": 0.28346456692913385,
                    "duration": 0.30000000000001137
                },
                {
                    "name": "F3",
                    "midi": 53,
                    "time": 137.40000000000012,
                    "velocity": 0.28346456692913385,
                    "duration": 0.30000000000001137
                },
                {
                    "name": "F4",
                    "midi": 65,
                    "time": 137.70000000000013,
                    "velocity": 0.28346456692913385,
                    "duration": 0.29999999999998295
                },
                {
                    "name": "F3",
                    "midi": 53,
                    "time": 137.70000000000013,
                    "velocity": 0.25196850393700787,
                    "duration": 0.29999999999998295
                },
                {
                    "name": "A3",
                    "midi": 57,
                    "time": 137.70000000000013,
                    "velocity": 0.25196850393700787,
                    "duration": 0.29999999999998295
                },
                {
                    "name": "A#2",
                    "midi": 46,
                    "time": 137.92500000000013,
                    "velocity": 0.25196850393700787,
                    "duration": 0.6499999999999773
                },
                {
                    "name": "F3",
                    "midi": 53,
                    "time": 137.9375000000001,
                    "velocity": 0.25196850393700787,
                    "duration": 0.6374999999999886
                },
                {
                    "name": "D4",
                    "midi": 62,
                    "time": 137.9500000000001,
                    "velocity": 0.28346456692913385,
                    "duration": 0.625
                },
                {
                    "name": "C3",
                    "midi": 48,
                    "time": 139.5000000000001,
                    "velocity": 0.4015748031496063,
                    "duration": 0.05000000000001137
                },
                {
                    "name": "C#3",
                    "midi": 49,
                    "time": 139.55000000000013,
                    "velocity": 0.41732283464566927,
                    "duration": 0.05000000000001137
                },
                {
                    "name": "C3",
                    "midi": 48,
                    "time": 139.60000000000014,
                    "velocity": 0.4251968503937008,
                    "duration": 0.05000000000001137
                },
                {
                    "name": "B2",
                    "midi": 47,
                    "time": 139.65000000000015,
                    "velocity": 0.4409448818897638,
                    "duration": 0.05000000000001137
                },
                {
                    "name": "A#2",
                    "midi": 46,
                    "time": 139.70000000000016,
                    "velocity": 0.44881889763779526,
                    "duration": 0.05000000000001137
                },
                {
                    "name": "A2",
                    "midi": 45,
                    "time": 139.75000000000017,
                    "velocity": 0.4566929133858268,
                    "duration": 0.05000000000001137
                },
                {
                    "name": "G#2",
                    "midi": 44,
                    "time": 139.80000000000018,
                    "velocity": 0.47244094488188976,
                    "duration": 0.11250000000001137
                },
                {
                    "name": "F2",
                    "midi": 41,
                    "time": 140.1000000000002,
                    "velocity": 0.4094488188976378,
                    "duration": 0.04249999999998977
                },
                {
                    "name": "G2",
                    "midi": 43,
                    "time": 140.14250000000018,
                    "velocity": 0.4015748031496063,
                    "duration": 0.04249999999998977
                },
                {
                    "name": "F2",
                    "midi": 41,
                    "time": 140.18500000000017,
                    "velocity": 0.3937007874015748,
                    "duration": 0.04249999999998977
                },
                {
                    "name": "E2",
                    "midi": 40,
                    "time": 140.22750000000016,
                    "velocity": 0.3937007874015748,
                    "duration": 0.04249999999998977
                },
                {
                    "name": "D#2",
                    "midi": 39,
                    "time": 140.27000000000015,
                    "velocity": 0.3858267716535433,
                    "duration": 0.04249999999998977
                },
                {
                    "name": "D2",
                    "midi": 38,
                    "time": 140.31250000000014,
                    "velocity": 0.3779527559055118,
                    "duration": 0.04374999999998863
                },
                {
                    "name": "C#2",
                    "midi": 37,
                    "time": 140.35625000000013,
                    "velocity": 0.36220472440944884,
                    "duration": 0.04374999999998863
                },
                {
                    "name": "C2",
                    "midi": 36,
                    "time": 140.40000000000012,
                    "velocity": 0.3543307086614173,
                    "duration": 0.30000000000001137
                },
                {
                    "name": "E3",
                    "midi": 52,
                    "time": 140.70000000000013,
                    "velocity": 0.30708661417322836,
                    "duration": 0.11250000000001137
                },
                {
                    "name": "C3",
                    "midi": 48,
                    "time": 141.90000000000015,
                    "velocity": 0.4015748031496063,
                    "duration": 0.3000000000000682
                },
                {
                    "name": "C4",
                    "midi": 60,
                    "time": 141.90000000000015,
                    "velocity": 0.4015748031496063,
                    "duration": 0.05000000000001137
                },
                {
                    "name": "C#4",
                    "midi": 61,
                    "time": 141.95000000000016,
                    "velocity": 0.41732283464566927,
                    "duration": 0.05000000000001137
                },
                {
                    "name": "C4",
                    "midi": 60,
                    "time": 142.00000000000017,
                    "velocity": 0.4251968503937008,
                    "duration": 0.05000000000001137
                },
                {
                    "name": "B3",
                    "midi": 59,
                    "time": 142.05000000000018,
                    "velocity": 0.4409448818897638,
                    "duration": 0.05000000000001137
                },
                {
                    "name": "A#3",
                    "midi": 58,
                    "time": 142.1000000000002,
                    "velocity": 0.44881889763779526,
                    "duration": 0.05000000000001137
                },
                {
                    "name": "A3",
                    "midi": 57,
                    "time": 142.1500000000002,
                    "velocity": 0.4566929133858268,
                    "duration": 0.05000000000001137
                },
                {
                    "name": "G#2",
                    "midi": 44,
                    "time": 142.20000000000022,
                    "velocity": 0.4251968503937008,
                    "duration": 0.11250000000001137
                },
                {
                    "name": "G#3",
                    "midi": 56,
                    "time": 142.20000000000022,
                    "velocity": 0.47244094488188976,
                    "duration": 0.11250000000001137
                },
                {
                    "name": "F2",
                    "midi": 41,
                    "time": 142.50000000000023,
                    "velocity": 0.4094488188976378,
                    "duration": 0.2999999999999261
                },
                {
                    "name": "F3",
                    "midi": 53,
                    "time": 142.50000000000023,
                    "velocity": 0.4094488188976378,
                    "duration": 0.04249999999998977
                },
                {
                    "name": "G3",
                    "midi": 55,
                    "time": 142.54250000000022,
                    "velocity": 0.4015748031496063,
                    "duration": 0.04249999999998977
                },
                {
                    "name": "F3",
                    "midi": 53,
                    "time": 142.5850000000002,
                    "velocity": 0.3937007874015748,
                    "duration": 0.04249999999998977
                },
                {
                    "name": "E3",
                    "midi": 52,
                    "time": 142.6275000000002,
                    "velocity": 0.3937007874015748,
                    "duration": 0.04249999999998977
                },
                {
                    "name": "D#3",
                    "midi": 51,
                    "time": 142.6700000000002,
                    "velocity": 0.3858267716535433,
                    "duration": 0.04249999999998977
                },
                {
                    "name": "D3",
                    "midi": 50,
                    "time": 142.71250000000018,
                    "velocity": 0.3779527559055118,
                    "duration": 0.04374999999998863
                },
                {
                    "name": "C#3",
                    "midi": 49,
                    "time": 142.75625000000016,
                    "velocity": 0.36220472440944884,
                    "duration": 0.04374999999998863
                },
                {
                    "name": "C2",
                    "midi": 36,
                    "time": 142.80000000000015,
                    "velocity": 0.3228346456692913,
                    "duration": 0.30000000000001137
                },
                {
                    "name": "C3",
                    "midi": 48,
                    "time": 142.80000000000015,
                    "velocity": 0.3543307086614173,
                    "duration": 0.30000000000001137
                },
                {
                    "name": "G3",
                    "midi": 55,
                    "time": 143.10000000000016,
                    "velocity": 0.28346456692913385,
                    "duration": 0.11250000000001137
                },
                {
                    "name": "E4",
                    "midi": 64,
                    "time": 143.10000000000016,
                    "velocity": 0.30708661417322836,
                    "duration": 0.11250000000001137
                },
                {
                    "name": "C5",
                    "midi": 72,
                    "time": 143.40000000000018,
                    "velocity": 0.3937007874015748,
                    "duration": 0.539999999999992
                },
                {
                    "name": "G#5",
                    "midi": 80,
                    "time": 143.40000000000018,
                    "velocity": 0.3937007874015748,
                    "duration": 0.05999999999997385
                },
                {
                    "name": "G5",
                    "midi": 79,
                    "time": 143.46000000000015,
                    "velocity": 0.3779527559055118,
                    "duration": 0.060000000000002274
                },
                {
                    "name": "F#5",
                    "midi": 78,
                    "time": 143.52000000000015,
                    "velocity": 0.3858267716535433,
                    "duration": 0.060000000000002274
                },
                {
                    "name": "F5",
                    "midi": 77,
                    "time": 143.58000000000015,
                    "velocity": 0.3937007874015748,
                    "duration": 0.060000000000002274
                },
                {
                    "name": "E5",
                    "midi": 76,
                    "time": 143.64000000000016,
                    "velocity": 0.4094488188976378,
                    "duration": 0.060000000000002274
                },
                {
                    "name": "D#5",
                    "midi": 75,
                    "time": 143.70000000000016,
                    "velocity": 0.4251968503937008,
                    "duration": 0.060000000000002274
                },
                {
                    "name": "D5",
                    "midi": 74,
                    "time": 143.76000000000016,
                    "velocity": 0.4330708661417323,
                    "duration": 0.060000000000002274
                },
                {
                    "name": "C#5",
                    "midi": 73,
                    "time": 143.82000000000016,
                    "velocity": 0.4409448818897638,
                    "duration": 0.060000000000002274
                },
                {
                    "name": "C5",
                    "midi": 72,
                    "time": 143.88000000000017,
                    "velocity": 0.4566929133858268,
                    "duration": 0.12000000000000455
                },
                {
                    "name": "B4",
                    "midi": 71,
                    "time": 143.94000000000017,
                    "velocity": 0.4645669291338583,
                    "duration": 0.060000000000002274
                },
                {
                    "name": "A#4",
                    "midi": 70,
                    "time": 144.00000000000017,
                    "velocity": 0.4881889763779528,
                    "duration": 0.07499999999998863
                },
                {
                    "name": "G#4",
                    "midi": 68,
                    "time": 144.00000000000017,
                    "velocity": 0.4881889763779528,
                    "duration": 0.07499999999998863
                },
                {
                    "name": "A#2",
                    "midi": 46,
                    "time": 144.30000000000015,
                    "velocity": 0.4015748031496063,
                    "duration": 0.05000000000001137
                },
                {
                    "name": "B2",
                    "midi": 47,
                    "time": 144.35000000000016,
                    "velocity": 0.41732283464566927,
                    "duration": 0.05000000000001137
                },
                {
                    "name": "A#2",
                    "midi": 46,
                    "time": 144.40000000000018,
                    "velocity": 0.4251968503937008,
                    "duration": 0.05000000000001137
                },
                {
                    "name": "A2",
                    "midi": 45,
                    "time": 144.4500000000002,
                    "velocity": 0.4409448818897638,
                    "duration": 0.05000000000001137
                },
                {
                    "name": "G#2",
                    "midi": 44,
                    "time": 144.5000000000002,
                    "velocity": 0.44881889763779526,
                    "duration": 0.05000000000001137
                },
                {
                    "name": "G2",
                    "midi": 43,
                    "time": 144.5500000000002,
                    "velocity": 0.4566929133858268,
                    "duration": 0.05000000000001137
                },
                {
                    "name": "F#2",
                    "midi": 42,
                    "time": 144.60000000000022,
                    "velocity": 0.47244094488188976,
                    "duration": 0.11250000000001137
                },
                {
                    "name": "D#2",
                    "midi": 39,
                    "time": 144.90000000000023,
                    "velocity": 0.44881889763779526,
                    "duration": 0.04249999999998977
                },
                {
                    "name": "F2",
                    "midi": 41,
                    "time": 144.94250000000022,
                    "velocity": 0.44881889763779526,
                    "duration": 0.04249999999998977
                },
                {
                    "name": "D#2",
                    "midi": 39,
                    "time": 144.9850000000002,
                    "velocity": 0.4409448818897638,
                    "duration": 0.04249999999998977
                },
                {
                    "name": "D2",
                    "midi": 38,
                    "time": 145.0275000000002,
                    "velocity": 0.4330708661417323,
                    "duration": 0.04249999999998977
                },
                {
                    "name": "C#2",
                    "midi": 37,
                    "time": 145.0700000000002,
                    "velocity": 0.4330708661417323,
                    "duration": 0.04249999999998977
                },
                {
                    "name": "C2",
                    "midi": 36,
                    "time": 145.11250000000018,
                    "velocity": 0.4251968503937008,
                    "duration": 0.04374999999998863
                },
                {
                    "name": "B1",
                    "midi": 35,
                    "time": 145.15625000000017,
                    "velocity": 0.4251968503937008,
                    "duration": 0.04374999999998863
                },
                {
                    "name": "A#1",
                    "midi": 34,
                    "time": 145.20000000000016,
                    "velocity": 0.41732283464566927,
                    "duration": 0.30000000000001137
                },
                {
                    "name": "D3",
                    "midi": 50,
                    "time": 145.50000000000017,
                    "velocity": 0.3858267716535433,
                    "duration": 0.11250000000001137
                },
                {
                    "name": "B4",
                    "midi": 71,
                    "time": 145.80000000000018,
                    "velocity": 0.3937007874015748,
                    "duration": 0.6000000000000227
                },
                {
                    "name": "G#5",
                    "midi": 80,
                    "time": 145.80000000000018,
                    "velocity": 0.3937007874015748,
                    "duration": 0.060000000000002274
                },
                {
                    "name": "G5",
                    "midi": 79,
                    "time": 145.86000000000018,
                    "velocity": 0.3779527559055118,
                    "duration": 0.060000000000002274
                },
                {
                    "name": "F#5",
                    "midi": 78,
                    "time": 145.9200000000002,
                    "velocity": 0.3858267716535433,
                    "duration": 0.060000000000002274
                },
                {
                    "name": "F5",
                    "midi": 77,
                    "time": 145.9800000000002,
                    "velocity": 0.3937007874015748,
                    "duration": 0.060000000000002274
                },
                {
                    "name": "E5",
                    "midi": 76,
                    "time": 146.0400000000002,
                    "velocity": 0.4094488188976378,
                    "duration": 0.060000000000002274
                },
                {
                    "name": "D#5",
                    "midi": 75,
                    "time": 146.1000000000002,
                    "velocity": 0.4251968503937008,
                    "duration": 0.060000000000002274
                },
                {
                    "name": "D5",
                    "midi": 74,
                    "time": 146.1600000000002,
                    "velocity": 0.4330708661417323,
                    "duration": 0.060000000000002274
                },
                {
                    "name": "C#5",
                    "midi": 73,
                    "time": 146.2200000000002,
                    "velocity": 0.4409448818897638,
                    "duration": 0.060000000000002274
                },
                {
                    "name": "C5",
                    "midi": 72,
                    "time": 146.2800000000002,
                    "velocity": 0.4566929133858268,
                    "duration": 0.060000000000002274
                },
                {
                    "name": "B4",
                    "midi": 71,
                    "time": 146.3400000000002,
                    "velocity": 0.4645669291338583,
                    "duration": 0.060000000000002274
                },
                {
                    "name": "A#4",
                    "midi": 70,
                    "time": 146.4000000000002,
                    "velocity": 0.4881889763779528,
                    "duration": 0.07499999999998863
                },
                {
                    "name": "G#4",
                    "midi": 68,
                    "time": 146.4000000000002,
                    "velocity": 0.4881889763779528,
                    "duration": 0.07499999999998863
                },
                {
                    "name": "A#2",
                    "midi": 46,
                    "time": 146.6625000000002,
                    "velocity": 0.41732283464566927,
                    "duration": 0.33750000000006253
                },
                {
                    "name": "A#3",
                    "midi": 58,
                    "time": 146.7000000000002,
                    "velocity": 0.4645669291338583,
                    "duration": 0.05000000000001137
                },
                {
                    "name": "B3",
                    "midi": 59,
                    "time": 146.7500000000002,
                    "velocity": 0.47244094488188976,
                    "duration": 0.05000000000001137
                },
                {
                    "name": "A#3",
                    "midi": 58,
                    "time": 146.8000000000002,
                    "velocity": 0.4881889763779528,
                    "duration": 0.05000000000001137
                },
                {
                    "name": "A3",
                    "midi": 57,
                    "time": 146.85000000000022,
                    "velocity": 0.4881889763779528,
                    "duration": 0.05000000000001137
                },
                {
                    "name": "G#3",
                    "midi": 56,
                    "time": 146.90000000000023,
                    "velocity": 0.49606299212598426,
                    "duration": 0.05000000000001137
                },
                {
                    "name": "G3",
                    "midi": 55,
                    "time": 146.95000000000024,
                    "velocity": 0.49606299212598426,
                    "duration": 0.05000000000001137
                },
                {
                    "name": "F#2",
                    "midi": 42,
                    "time": 147.00000000000026,
                    "velocity": 0.4409448818897638,
                    "duration": 0.11250000000001137
                },
                {
                    "name": "F#3",
                    "midi": 54,
                    "time": 147.00000000000026,
                    "velocity": 0.49606299212598426,
                    "duration": 0.11250000000001137
                },
                {
                    "name": "D#2",
                    "midi": 39,
                    "time": 147.26250000000027,
                    "velocity": 0.44881889763779526,
                    "duration": 0.3374999999999204
                },
                {
                    "name": "D#3",
                    "midi": 51,
                    "time": 147.30000000000027,
                    "velocity": 0.5039370078740157,
                    "duration": 0.04249999999998977
                },
                {
                    "name": "F3",
                    "midi": 53,
                    "time": 147.34250000000026,
                    "velocity": 0.5039370078740157,
                    "duration": 0.04249999999998977
                },
                {
                    "name": "D#3",
                    "midi": 51,
                    "time": 147.38500000000025,
                    "velocity": 0.5039370078740157,
                    "duration": 0.04249999999998977
                },
                {
                    "name": "D3",
                    "midi": 50,
                    "time": 147.42750000000024,
                    "velocity": 0.5039370078740157,
                    "duration": 0.04249999999998977
                },
                {
                    "name": "C#3",
                    "midi": 49,
                    "time": 147.47000000000023,
                    "velocity": 0.5039370078740157,
                    "duration": 0.04249999999998977
                },
                {
                    "name": "C3",
                    "midi": 48,
                    "time": 147.51250000000022,
                    "velocity": 0.5039370078740157,
                    "duration": 0.04374999999998863
                },
                {
                    "name": "B2",
                    "midi": 47,
                    "time": 147.5562500000002,
                    "velocity": 0.5039370078740157,
                    "duration": 0.04374999999998863
                },
                {
                    "name": "A#1",
                    "midi": 34,
                    "time": 147.5687500000002,
                    "velocity": 0.5433070866141733,
                    "duration": 0.33125000000001137
                },
                {
                    "name": "A#2",
                    "midi": 46,
                    "time": 147.5750000000002,
                    "velocity": 0.6062992125984252,
                    "duration": 0.6000000000000227
                },
                {
                    "name": "F3",
                    "midi": 53,
                    "time": 147.9000000000002,
                    "velocity": 0.5118110236220472,
                    "duration": 0.11250000000001137
                },
                {
                    "name": "D3",
                    "midi": 50,
                    "time": 147.9000000000002,
                    "velocity": 0.4566929133858268,
                    "duration": 0.11250000000001137
                },
                {
                    "name": "A#4",
                    "midi": 70,
                    "time": 148.20000000000022,
                    "velocity": 0.5669291338582677,
                    "duration": 0.04999999999998295
                },
                {
                    "name": "A#5",
                    "midi": 82,
                    "time": 148.20000000000022,
                    "velocity": 0.6299212598425197,
                    "duration": 0.07499999999998863
                },
                {
                    "name": "G#4",
                    "midi": 68,
                    "time": 148.3000000000002,
                    "velocity": 0.5433070866141733,
                    "duration": 0.06374999999999886
                },
                {
                    "name": "G#5",
                    "midi": 80,
                    "time": 148.3000000000002,
                    "velocity": 0.5433070866141733,
                    "duration": 0.06374999999999886
                },
                {
                    "name": "F#4",
                    "midi": 66,
                    "time": 148.4000000000002,
                    "velocity": 0.49606299212598426,
                    "duration": 0.06624999999999659
                },
                {
                    "name": "F#5",
                    "midi": 78,
                    "time": 148.4000000000002,
                    "velocity": 0.5590551181102362,
                    "duration": 0.06624999999999659
                },
                {
                    "name": "E4",
                    "midi": 64,
                    "time": 148.5000000000002,
                    "velocity": 0.5118110236220472,
                    "duration": 0.06874999999999432
                },
                {
                    "name": "E5",
                    "midi": 76,
                    "time": 148.5000000000002,
                    "velocity": 0.5748031496062992,
                    "duration": 0.06874999999999432
                },
                {
                    "name": "D4",
                    "midi": 62,
                    "time": 148.6000000000002,
                    "velocity": 0.5275590551181102,
                    "duration": 0.07124999999999204
                },
                {
                    "name": "D5",
                    "midi": 74,
                    "time": 148.6000000000002,
                    "velocity": 0.5984251968503937,
                    "duration": 0.07124999999999204
                },
                {
                    "name": "C4",
                    "midi": 60,
                    "time": 148.7000000000002,
                    "velocity": 0.5590551181102362,
                    "duration": 0.07374999999998977
                },
                {
                    "name": "C5",
                    "midi": 72,
                    "time": 148.7000000000002,
                    "velocity": 0.6220472440944882,
                    "duration": 0.07374999999998977
                },
                {
                    "name": "A#3",
                    "midi": 58,
                    "time": 148.80000000000018,
                    "velocity": 0.6377952755905512,
                    "duration": 0.14999999999997726
                },
                {
                    "name": "A#4",
                    "midi": 70,
                    "time": 148.80000000000018,
                    "velocity": 0.7086614173228346,
                    "duration": 0.14999999999997726
                },
                {
                    "name": "A#1",
                    "midi": 34,
                    "time": 149.10000000000016,
                    "velocity": 0.5039370078740157,
                    "duration": 0.30000000000001137
                },
                {
                    "name": "F2",
                    "midi": 41,
                    "time": 149.10000000000016,
                    "velocity": 0.5039370078740157,
                    "duration": 0.30000000000001137
                },
                {
                    "name": "A#2",
                    "midi": 46,
                    "time": 149.10000000000016,
                    "velocity": 0.5039370078740157,
                    "duration": 0.30000000000001137
                },
                {
                    "name": "D5",
                    "midi": 74,
                    "time": 149.40000000000018,
                    "velocity": 0.5669291338582677,
                    "duration": 0.07499999999998863
                },
                {
                    "name": "D6",
                    "midi": 86,
                    "time": 149.40000000000018,
                    "velocity": 0.6299212598425197,
                    "duration": 0.07499999999998863
                },
                {
                    "name": "C5",
                    "midi": 72,
                    "time": 149.50000000000017,
                    "velocity": 0.4881889763779528,
                    "duration": 0.06374999999999886
                },
                {
                    "name": "C6",
                    "midi": 84,
                    "time": 149.50000000000017,
                    "velocity": 0.5433070866141733,
                    "duration": 0.06374999999999886
                },
                {
                    "name": "A#4",
                    "midi": 70,
                    "time": 149.60000000000016,
                    "velocity": 0.49606299212598426,
                    "duration": 0.06624999999999659
                },
                {
                    "name": "A#5",
                    "midi": 82,
                    "time": 149.60000000000016,
                    "velocity": 0.5590551181102362,
                    "duration": 0.06624999999999659
                },
                {
                    "name": "G#4",
                    "midi": 68,
                    "time": 149.70000000000016,
                    "velocity": 0.5118110236220472,
                    "duration": 0.06874999999999432
                },
                {
                    "name": "G#5",
                    "midi": 80,
                    "time": 149.70000000000016,
                    "velocity": 0.5748031496062992,
                    "duration": 0.06874999999999432
                },
                {
                    "name": "F#4",
                    "midi": 66,
                    "time": 149.80000000000015,
                    "velocity": 0.5275590551181102,
                    "duration": 0.07124999999999204
                },
                {
                    "name": "F#5",
                    "midi": 78,
                    "time": 149.80000000000015,
                    "velocity": 0.5984251968503937,
                    "duration": 0.07124999999999204
                },
                {
                    "name": "E4",
                    "midi": 64,
                    "time": 149.90000000000015,
                    "velocity": 0.5590551181102362,
                    "duration": 0.07374999999998977
                },
                {
                    "name": "E5",
                    "midi": 76,
                    "time": 149.90000000000015,
                    "velocity": 0.6220472440944882,
                    "duration": 0.07374999999998977
                },
                {
                    "name": "D4",
                    "midi": 62,
                    "time": 150.00000000000014,
                    "velocity": 0.6377952755905512,
                    "duration": 0.14999999999997726
                },
                {
                    "name": "D5",
                    "midi": 74,
                    "time": 150.00000000000014,
                    "velocity": 0.7086614173228346,
                    "duration": 0.14999999999997726
                },
                {
                    "name": "A#1",
                    "midi": 34,
                    "time": 150.30000000000013,
                    "velocity": 0.5039370078740157,
                    "duration": 0.30000000000001137
                },
                {
                    "name": "F2",
                    "midi": 41,
                    "time": 150.30000000000013,
                    "velocity": 0.5039370078740157,
                    "duration": 0.30000000000001137
                },
                {
                    "name": "D3",
                    "midi": 50,
                    "time": 150.30000000000013,
                    "velocity": 0.5039370078740157,
                    "duration": 0.30000000000001137
                },
                {
                    "name": "F5",
                    "midi": 77,
                    "time": 150.60000000000014,
                    "velocity": 0.5196850393700787,
                    "duration": 0.04999999999998295
                },
                {
                    "name": "F6",
                    "midi": 89,
                    "time": 150.60000000000014,
                    "velocity": 0.5826771653543307,
                    "duration": 0.04999999999998295
                },
                {
                    "name": "D#5",
                    "midi": 75,
                    "time": 150.70000000000013,
                    "velocity": 0.5196850393700787,
                    "duration": 0.05000000000001137
                },
                {
                    "name": "D#6",
                    "midi": 87,
                    "time": 150.70000000000013,
                    "velocity": 0.5826771653543307,
                    "duration": 0.05000000000001137
                },
                {
                    "name": "C#5",
                    "midi": 73,
                    "time": 150.80000000000015,
                    "velocity": 0.5275590551181102,
                    "duration": 0.05000000000001137
                },
                {
                    "name": "C#6",
                    "midi": 85,
                    "time": 150.80000000000015,
                    "velocity": 0.5984251968503937,
                    "duration": 0.05000000000001137
                },
                {
                    "name": "B4",
                    "midi": 71,
                    "time": 150.90000000000018,
                    "velocity": 0.5433070866141733,
                    "duration": 0.05000000000001137
                },
                {
                    "name": "B5",
                    "midi": 83,
                    "time": 150.90000000000018,
                    "velocity": 0.6062992125984252,
                    "duration": 0.05000000000001137
                },
                {
                    "name": "A4",
                    "midi": 69,
                    "time": 151.0000000000002,
                    "velocity": 0.5511811023622047,
                    "duration": 0.05000000000001137
                },
                {
                    "name": "A5",
                    "midi": 81,
                    "time": 151.0000000000002,
                    "velocity": 0.6141732283464567,
                    "duration": 0.05000000000001137
                },
                {
                    "name": "G4",
                    "midi": 67,
                    "time": 151.10000000000022,
                    "velocity": 0.5590551181102362,
                    "duration": 0.05000000000001137
                },
                {
                    "name": "G5",
                    "midi": 79,
                    "time": 151.10000000000022,
                    "velocity": 0.6220472440944882,
                    "duration": 0.05000000000001137
                },
                {
                    "name": "F4",
                    "midi": 65,
                    "time": 151.20000000000024,
                    "velocity": 0.5590551181102362,
                    "duration": 0.05000000000001137
                },
                {
                    "name": "F5",
                    "midi": 77,
                    "time": 151.20000000000024,
                    "velocity": 0.6220472440944882,
                    "duration": 0.05000000000001137
                },
                {
                    "name": "D#4",
                    "midi": 63,
                    "time": 151.30000000000027,
                    "velocity": 0.5669291338582677,
                    "duration": 0.05000000000001137
                },
                {
                    "name": "D#5",
                    "midi": 75,
                    "time": 151.30000000000027,
                    "velocity": 0.6299212598425197,
                    "duration": 0.05000000000001137
                },
                {
                    "name": "C#4",
                    "midi": 61,
                    "time": 151.4000000000003,
                    "velocity": 0.5669291338582677,
                    "duration": 0.05000000000001137
                },
                {
                    "name": "C#5",
                    "midi": 73,
                    "time": 151.4000000000003,
                    "velocity": 0.6377952755905512,
                    "duration": 0.056250000000005684
                },
                {
                    "name": "B3",
                    "midi": 59,
                    "time": 151.50000000000028,
                    "velocity": 0.5748031496062992,
                    "duration": 0.056250000000005684
                },
                {
                    "name": "B4",
                    "midi": 71,
                    "time": 151.50000000000028,
                    "velocity": 0.6456692913385826,
                    "duration": 0.0625
                },
                {
                    "name": "A3",
                    "midi": 57,
                    "time": 151.60000000000028,
                    "velocity": 0.5748031496062992,
                    "duration": 0.0625
                },
                {
                    "name": "A4",
                    "midi": 69,
                    "time": 151.60000000000028,
                    "velocity": 0.6456692913385826,
                    "duration": 0.0625
                },
                {
                    "name": "G3",
                    "midi": 55,
                    "time": 151.70000000000027,
                    "velocity": 0.5748031496062992,
                    "duration": 0.0625
                },
                {
                    "name": "G4",
                    "midi": 67,
                    "time": 151.70000000000027,
                    "velocity": 0.6535433070866141,
                    "duration": 0.0625
                },
                {
                    "name": "F3",
                    "midi": 53,
                    "time": 151.80000000000027,
                    "velocity": 0.5826771653543307,
                    "duration": 0.0625
                },
                {
                    "name": "F4",
                    "midi": 65,
                    "time": 151.80000000000027,
                    "velocity": 0.6614173228346457,
                    "duration": 0.0625
                },
                {
                    "name": "D#3",
                    "midi": 51,
                    "time": 151.90000000000026,
                    "velocity": 0.5984251968503937,
                    "duration": 0.06374999999999886
                },
                {
                    "name": "D#4",
                    "midi": 63,
                    "time": 151.90000000000026,
                    "velocity": 0.6692913385826772,
                    "duration": 0.06374999999999886
                },
                {
                    "name": "C#3",
                    "midi": 49,
                    "time": 152.00000000000026,
                    "velocity": 0.6062992125984252,
                    "duration": 0.06624999999999659
                },
                {
                    "name": "C#4",
                    "midi": 61,
                    "time": 152.00000000000026,
                    "velocity": 0.6771653543307087,
                    "duration": 0.06624999999999659
                },
                {
                    "name": "B2",
                    "midi": 47,
                    "time": 152.10000000000025,
                    "velocity": 0.6062992125984252,
                    "duration": 0.06874999999999432
                },
                {
                    "name": "B3",
                    "midi": 59,
                    "time": 152.10000000000025,
                    "velocity": 0.6771653543307087,
                    "duration": 0.06874999999999432
                },
                {
                    "name": "A2",
                    "midi": 45,
                    "time": 152.20000000000024,
                    "velocity": 0.6141732283464567,
                    "duration": 0.07124999999999204
                },
                {
                    "name": "A3",
                    "midi": 57,
                    "time": 152.20000000000024,
                    "velocity": 0.6850393700787402,
                    "duration": 0.07124999999999204
                },
                {
                    "name": "F2",
                    "midi": 41,
                    "time": 152.30000000000024,
                    "velocity": 0.6220472440944882,
                    "duration": 0.07374999999998977
                },
                {
                    "name": "F3",
                    "midi": 53,
                    "time": 152.30000000000024,
                    "velocity": 0.6929133858267716,
                    "duration": 0.07374999999998977
                },
                {
                    "name": "A#1",
                    "midi": 34,
                    "time": 152.40000000000023,
                    "velocity": 0.6614173228346457,
                    "duration": 0.29999999999998295
                },
                {
                    "name": "A#2",
                    "midi": 46,
                    "time": 152.40000000000023,
                    "velocity": 0.7401574803149606,
                    "duration": 0.29999999999998295
                },
                {
                    "name": "A1",
                    "midi": 33,
                    "time": 152.70000000000022,
                    "velocity": 0.5826771653543307,
                    "duration": 0.04999999999998295
                },
                {
                    "name": "A#1",
                    "midi": 34,
                    "time": 152.7500000000002,
                    "velocity": 0.5669291338582677,
                    "duration": 0.05000000000001137
                },
                {
                    "name": "D2",
                    "midi": 38,
                    "time": 152.8000000000002,
                    "velocity": 0.5669291338582677,
                    "duration": 0.056250000000005684
                },
                {
                    "name": "F2",
                    "midi": 41,
                    "time": 152.85000000000022,
                    "velocity": 0.5748031496062992,
                    "duration": 0.057499999999976126
                },
                {
                    "name": "G#2",
                    "midi": 44,
                    "time": 152.9000000000002,
                    "velocity": 0.5748031496062992,
                    "duration": 0.05874999999997499
                },
                {
                    "name": "A#2",
                    "midi": 46,
                    "time": 152.9500000000002,
                    "velocity": 0.5826771653543307,
                    "duration": 0.05999999999997385
                },
                {
                    "name": "D3",
                    "midi": 50,
                    "time": 153.00000000000017,
                    "velocity": 0.5826771653543307,
                    "duration": 0.061249999999972715
                },
                {
                    "name": "F3",
                    "midi": 53,
                    "time": 153.05000000000015,
                    "velocity": 0.5984251968503937,
                    "duration": 0.06249999999997158
                },
                {
                    "name": "G#3",
                    "midi": 56,
                    "time": 153.10000000000014,
                    "velocity": 0.5984251968503937,
                    "duration": 0.04999999999998295
                },
                {
                    "name": "A#3",
                    "midi": 58,
                    "time": 153.15000000000012,
                    "velocity": 0.6062992125984252,
                    "duration": 0.05000000000001137
                },
                {
                    "name": "D4",
                    "midi": 62,
                    "time": 153.20000000000013,
                    "velocity": 0.6062992125984252,
                    "duration": 0.05000000000001137
                },
                {
                    "name": "F4",
                    "midi": 65,
                    "time": 153.25000000000014,
                    "velocity": 0.6062992125984252,
                    "duration": 0.05000000000001137
                },
                {
                    "name": "G#4",
                    "midi": 68,
                    "time": 153.30000000000015,
                    "velocity": 0.6141732283464567,
                    "duration": 0.060000000000002274
                },
                {
                    "name": "A#4",
                    "midi": 70,
                    "time": 153.36000000000016,
                    "velocity": 0.6141732283464567,
                    "duration": 0.060000000000002274
                },
                {
                    "name": "D5",
                    "midi": 74,
                    "time": 153.42000000000016,
                    "velocity": 0.6220472440944882,
                    "duration": 0.060000000000002274
                },
                {
                    "name": "F5",
                    "midi": 77,
                    "time": 153.48000000000016,
                    "velocity": 0.6299212598425197,
                    "duration": 0.060000000000002274
                },
                {
                    "name": "G#5",
                    "midi": 80,
                    "time": 153.54000000000016,
                    "velocity": 0.6299212598425197,
                    "duration": 0.060000000000002274
                },
                {
                    "name": "A5",
                    "midi": 81,
                    "time": 153.60000000000016,
                    "velocity": 0.6377952755905512,
                    "duration": 0.03125
                },
                {
                    "name": "C6",
                    "midi": 84,
                    "time": 153.64250000000015,
                    "velocity": 0.6141732283464567,
                    "duration": 0.037499999999994316
                },
                {
                    "name": "A#5",
                    "midi": 82,
                    "time": 153.68500000000014,
                    "velocity": 0.6062992125984252,
                    "duration": 0.037499999999994316
                },
                {
                    "name": "G#5",
                    "midi": 80,
                    "time": 153.72750000000013,
                    "velocity": 0.6062992125984252,
                    "duration": 0.037499999999994316
                },
                {
                    "name": "F5",
                    "midi": 77,
                    "time": 153.77000000000012,
                    "velocity": 0.6062992125984252,
                    "duration": 0.037499999999994316
                },
                {
                    "name": "D5",
                    "midi": 74,
                    "time": 153.8125000000001,
                    "velocity": 0.6062992125984252,
                    "duration": 0.037499999999994316
                },
                {
                    "name": "A#4",
                    "midi": 70,
                    "time": 153.8550000000001,
                    "velocity": 0.6062992125984252,
                    "duration": 0.037499999999994316
                },
                {
                    "name": "A4",
                    "midi": 69,
                    "time": 153.9000000000001,
                    "velocity": 0.6377952755905512,
                    "duration": 0.037499999999994316
                },
                {
                    "name": "C5",
                    "midi": 72,
                    "time": 153.94250000000008,
                    "velocity": 0.6141732283464567,
                    "duration": 0.04249999999998977
                },
                {
                    "name": "A#4",
                    "midi": 70,
                    "time": 153.98500000000007,
                    "velocity": 0.6062992125984252,
                    "duration": 0.04249999999998977
                },
                {
                    "name": "G#4",
                    "midi": 68,
                    "time": 154.02750000000006,
                    "velocity": 0.6062992125984252,
                    "duration": 0.04249999999998977
                },
                {
                    "name": "F4",
                    "midi": 65,
                    "time": 154.07000000000005,
                    "velocity": 0.6062992125984252,
                    "duration": 0.04249999999998977
                },
                {
                    "name": "D4",
                    "midi": 62,
                    "time": 154.11250000000004,
                    "velocity": 0.6062992125984252,
                    "duration": 0.04249999999998977
                },
                {
                    "name": "A#3",
                    "midi": 58,
                    "time": 154.15500000000003,
                    "velocity": 0.6062992125984252,
                    "duration": 0.04249999999998977
                },
                {
                    "name": "A3",
                    "midi": 57,
                    "time": 154.20000000000002,
                    "velocity": 0.6377952755905512,
                    "duration": 0.037499999999994316
                },
                {
                    "name": "C4",
                    "midi": 60,
                    "time": 154.2425,
                    "velocity": 0.6141732283464567,
                    "duration": 0.04249999999998977
                },
                {
                    "name": "A#3",
                    "midi": 58,
                    "time": 154.285,
                    "velocity": 0.6062992125984252,
                    "duration": 0.04249999999998977
                },
                {
                    "name": "G#3",
                    "midi": 56,
                    "time": 154.3275,
                    "velocity": 0.6062992125984252,
                    "duration": 0.04249999999998977
                },
                {
                    "name": "F3",
                    "midi": 53,
                    "time": 154.36999999999998,
                    "velocity": 0.6062992125984252,
                    "duration": 0.04249999999998977
                },
                {
                    "name": "D3",
                    "midi": 50,
                    "time": 154.41249999999997,
                    "velocity": 0.6062992125984252,
                    "duration": 0.04249999999998977
                },
                {
                    "name": "A#2",
                    "midi": 46,
                    "time": 154.45499999999996,
                    "velocity": 0.5984251968503937,
                    "duration": 0.04249999999998977
                },
                {
                    "name": "A2",
                    "midi": 45,
                    "time": 154.49999999999994,
                    "velocity": 0.6141732283464567,
                    "duration": 0.0625
                },
                {
                    "name": "A#2",
                    "midi": 46,
                    "time": 154.55999999999995,
                    "velocity": 0.6299212598425197,
                    "duration": 0.0625
                },
                {
                    "name": "D3",
                    "midi": 50,
                    "time": 154.61999999999995,
                    "velocity": 0.6535433070866141,
                    "duration": 0.0625
                },
                {
                    "name": "F3",
                    "midi": 53,
                    "time": 154.67999999999995,
                    "velocity": 0.6692913385826772,
                    "duration": 0.06874999999999432
                },
                {
                    "name": "G#3",
                    "midi": 56,
                    "time": 154.73999999999995,
                    "velocity": 0.6929133858267716,
                    "duration": 0.060000000000002274
                },
                {
                    "name": "A2",
                    "midi": 45,
                    "time": 154.79999999999995,
                    "velocity": 0.5748031496062992,
                    "duration": 0.037499999999994316
                },
                {
                    "name": "A3",
                    "midi": 57,
                    "time": 154.79999999999995,
                    "velocity": 0.7244094488188977,
                    "duration": 0.037499999999994316
                },
                {
                    "name": "D#3",
                    "midi": 51,
                    "time": 154.86249999999995,
                    "velocity": 0.4645669291338583,
                    "duration": 0.04624999999998636
                },
                {
                    "name": "D#4",
                    "midi": 63,
                    "time": 154.86249999999995,
                    "velocity": 0.5905511811023622,
                    "duration": 0.04624999999998636
                },
                {
                    "name": "C#3",
                    "midi": 49,
                    "time": 154.92499999999995,
                    "velocity": 0.47244094488188976,
                    "duration": 0.04624999999998636
                },
                {
                    "name": "C#4",
                    "midi": 61,
                    "time": 154.92499999999995,
                    "velocity": 0.5984251968503937,
                    "duration": 0.04624999999998636
                },
                {
                    "name": "B2",
                    "midi": 47,
                    "time": 154.98749999999995,
                    "velocity": 0.49606299212598426,
                    "duration": 0.04624999999998636
                },
                {
                    "name": "B3",
                    "midi": 59,
                    "time": 154.98749999999995,
                    "velocity": 0.6141732283464567,
                    "duration": 0.04624999999998636
                },
                {
                    "name": "A2",
                    "midi": 45,
                    "time": 155.04999999999995,
                    "velocity": 0.5039370078740157,
                    "duration": 0.04624999999998636
                },
                {
                    "name": "A3",
                    "midi": 57,
                    "time": 155.04999999999995,
                    "velocity": 0.6377952755905512,
                    "duration": 0.04624999999998636
                },
                {
                    "name": "G2",
                    "midi": 43,
                    "time": 155.11249999999995,
                    "velocity": 0.5118110236220472,
                    "duration": 0.04624999999998636
                },
                {
                    "name": "G3",
                    "midi": 55,
                    "time": 155.11249999999995,
                    "velocity": 0.6377952755905512,
                    "duration": 0.04624999999998636
                },
                {
                    "name": "F2",
                    "midi": 41,
                    "time": 155.17499999999995,
                    "velocity": 0.5196850393700787,
                    "duration": 0.04624999999998636
                },
                {
                    "name": "F3",
                    "midi": 53,
                    "time": 155.17499999999995,
                    "velocity": 0.6614173228346457,
                    "duration": 0.04624999999998636
                },
                {
                    "name": "D#2",
                    "midi": 39,
                    "time": 155.23749999999995,
                    "velocity": 0.5433070866141733,
                    "duration": 0.04624999999998636
                },
                {
                    "name": "D#3",
                    "midi": 51,
                    "time": 155.23749999999995,
                    "velocity": 0.6850393700787402,
                    "duration": 0.04624999999998636
                },
                {
                    "name": "C#3",
                    "midi": 49,
                    "time": 155.29999999999995,
                    "velocity": 0.7007874015748031,
                    "duration": 0.04624999999998636
                },
                {
                    "name": "C#2",
                    "midi": 37,
                    "time": 155.29999999999995,
                    "velocity": 0.7007874015748031,
                    "duration": 0.04624999999998636
                },
                {
                    "name": "B1",
                    "midi": 35,
                    "time": 155.36249999999995,
                    "velocity": 0.5669291338582677,
                    "duration": 0.05624999999997726
                },
                {
                    "name": "B2",
                    "midi": 47,
                    "time": 155.36249999999995,
                    "velocity": 0.7086614173228346,
                    "duration": 0.05624999999997726
                },
                {
                    "name": "A#1",
                    "midi": 34,
                    "time": 155.39999999999995,
                    "velocity": 0.5433070866141733,
                    "duration": 0.11249999999998295
                },
                {
                    "name": "A#2",
                    "midi": 46,
                    "time": 155.39999999999995,
                    "velocity": 0.6850393700787402,
                    "duration": 0.11249999999998295
                },
                {
                    "name": "D#3",
                    "midi": 51,
                    "time": 155.69999999999993,
                    "velocity": 0.5590551181102362,
                    "duration": 0.125
                },
                {
                    "name": "D#2",
                    "midi": 39,
                    "time": 155.69999999999993,
                    "velocity": 0.5590551181102362,
                    "duration": 0.125
                },
                {
                    "name": "A#2",
                    "midi": 46,
                    "time": 155.69999999999993,
                    "velocity": 0.5590551181102362,
                    "duration": 0.125
                },
                {
                    "name": "F3",
                    "midi": 53,
                    "time": 155.99999999999994,
                    "velocity": 0.5748031496062992,
                    "duration": 0.125
                },
                {
                    "name": "D#2",
                    "midi": 39,
                    "time": 155.99999999999994,
                    "velocity": 0.5748031496062992,
                    "duration": 0.125
                },
                {
                    "name": "A#2",
                    "midi": 46,
                    "time": 155.99999999999994,
                    "velocity": 0.5748031496062992,
                    "duration": 0.125
                },
                {
                    "name": "F#3",
                    "midi": 54,
                    "time": 156.29999999999995,
                    "velocity": 0.5590551181102362,
                    "duration": 0.125
                },
                {
                    "name": "D#2",
                    "midi": 39,
                    "time": 156.29999999999995,
                    "velocity": 0.5590551181102362,
                    "duration": 0.125
                },
                {
                    "name": "A#2",
                    "midi": 46,
                    "time": 156.29999999999995,
                    "velocity": 0.5590551181102362,
                    "duration": 0.125
                },
                {
                    "name": "G3",
                    "midi": 55,
                    "time": 156.59999999999997,
                    "velocity": 0.5748031496062992,
                    "duration": 0.30000000000001137
                },
                {
                    "name": "D#2",
                    "midi": 39,
                    "time": 156.59999999999997,
                    "velocity": 0.5748031496062992,
                    "duration": 0.6000000000000227
                },
                {
                    "name": "A#2",
                    "midi": 46,
                    "time": 156.59999999999997,
                    "velocity": 0.5748031496062992,
                    "duration": 0.6000000000000227
                },
                {
                    "name": "D#3",
                    "midi": 51,
                    "time": 156.89999999999998,
                    "velocity": 0.5590551181102362,
                    "duration": 0.15000000000000568
                },
                {
                    "name": "A2",
                    "midi": 45,
                    "time": 157.2,
                    "velocity": 0.5590551181102362,
                    "duration": 0.056250000000005684
                },
                {
                    "name": "A3",
                    "midi": 57,
                    "time": 157.2,
                    "velocity": 0.6299212598425197,
                    "duration": 0.056250000000005684
                },
                {
                    "name": "G3",
                    "midi": 55,
                    "time": 157.285,
                    "velocity": 0.5275590551181102,
                    "duration": 0.06374999999999886
                },
                {
                    "name": "G4",
                    "midi": 67,
                    "time": 157.285,
                    "velocity": 0.5984251968503937,
                    "duration": 0.06374999999999886
                },
                {
                    "name": "D#3",
                    "midi": 51,
                    "time": 157.37,
                    "velocity": 0.5354330708661418,
                    "duration": 0.06374999999999886
                },
                {
                    "name": "D#4",
                    "midi": 63,
                    "time": 157.37,
                    "velocity": 0.6141732283464567,
                    "duration": 0.06374999999999886
                },
                {
                    "name": "C3",
                    "midi": 48,
                    "time": 157.455,
                    "velocity": 0.5669291338582677,
                    "duration": 0.06374999999999886
                },
                {
                    "name": "C4",
                    "midi": 60,
                    "time": 157.455,
                    "velocity": 0.6377952755905512,
                    "duration": 0.06374999999999886
                },
                {
                    "name": "G#2",
                    "midi": 44,
                    "time": 157.54000000000002,
                    "velocity": 0.5905511811023622,
                    "duration": 0.06374999999999886
                },
                {
                    "name": "G#3",
                    "midi": 56,
                    "time": 157.54000000000002,
                    "velocity": 0.6614173228346457,
                    "duration": 0.06374999999999886
                },
                {
                    "name": "F2",
                    "midi": 41,
                    "time": 157.62500000000003,
                    "velocity": 0.6141732283464567,
                    "duration": 0.06374999999999886
                },
                {
                    "name": "F3",
                    "midi": 53,
                    "time": 157.62500000000003,
                    "velocity": 0.6771653543307087,
                    "duration": 0.06374999999999886
                },
                {
                    "name": "D2",
                    "midi": 38,
                    "time": 157.71000000000004,
                    "velocity": 0.6299212598425197,
                    "duration": 0.06374999999999886
                },
                {
                    "name": "D3",
                    "midi": 50,
                    "time": 157.71000000000004,
                    "velocity": 0.7007874015748031,
                    "duration": 0.06374999999999886
                },
                {
                    "name": "A#1",
                    "midi": 34,
                    "time": 157.80000000000004,
                    "velocity": 0.6377952755905512,
                    "duration": 0.11249999999998295
                },
                {
                    "name": "A#2",
                    "midi": 46,
                    "time": 157.80000000000004,
                    "velocity": 0.7086614173228346,
                    "duration": 0.11249999999998295
                },
                {
                    "name": "D#3",
                    "midi": 51,
                    "time": 158.10000000000002,
                    "velocity": 0.5826771653543307,
                    "duration": 0.125
                },
                {
                    "name": "D#2",
                    "midi": 39,
                    "time": 158.10000000000002,
                    "velocity": 0.5196850393700787,
                    "duration": 0.125
                },
                {
                    "name": "A#2",
                    "midi": 46,
                    "time": 158.10000000000002,
                    "velocity": 0.5196850393700787,
                    "duration": 0.125
                },
                {
                    "name": "D3",
                    "midi": 50,
                    "time": 158.40000000000003,
                    "velocity": 0.6220472440944882,
                    "duration": 0.125
                },
                {
                    "name": "F3",
                    "midi": 53,
                    "time": 158.40000000000003,
                    "velocity": 0.6220472440944882,
                    "duration": 0.125
                },
                {
                    "name": "D#2",
                    "midi": 39,
                    "time": 158.40000000000003,
                    "velocity": 0.5590551181102362,
                    "duration": 0.125
                },
                {
                    "name": "B2",
                    "midi": 47,
                    "time": 158.40000000000003,
                    "velocity": 0.5590551181102362,
                    "duration": 0.125
                },
                {
                    "name": "G3",
                    "midi": 55,
                    "time": 158.70000000000005,
                    "velocity": 0.5826771653543307,
                    "duration": 0.125
                },
                {
                    "name": "D#2",
                    "midi": 39,
                    "time": 158.70000000000005,
                    "velocity": 0.5196850393700787,
                    "duration": 0.125
                },
                {
                    "name": "A#2",
                    "midi": 46,
                    "time": 158.70000000000005,
                    "velocity": 0.5196850393700787,
                    "duration": 0.125
                },
                {
                    "name": "D#3",
                    "midi": 51,
                    "time": 159.00000000000006,
                    "velocity": 0.5669291338582677,
                    "duration": 0.5749999999999886
                },
                {
                    "name": "D#2",
                    "midi": 39,
                    "time": 159.00000000000006,
                    "velocity": 0.5039370078740157,
                    "duration": 0.5749999999999886
                },
                {
                    "name": "A#2",
                    "midi": 46,
                    "time": 159.00000000000006,
                    "velocity": 0.5039370078740157,
                    "duration": 0.5749999999999886
                },
                {
                    "name": "F6",
                    "midi": 89,
                    "time": 159.84250000000006,
                    "velocity": 0.29133858267716534,
                    "duration": 0.030000000000001137
                },
                {
                    "name": "D#6",
                    "midi": 87,
                    "time": 159.87500000000006,
                    "velocity": 0.29133858267716534,
                    "duration": 0.030000000000001137
                },
                {
                    "name": "D6",
                    "midi": 86,
                    "time": 159.90750000000006,
                    "velocity": 0.28346456692913385,
                    "duration": 0.030000000000001137
                },
                {
                    "name": "C6",
                    "midi": 84,
                    "time": 159.94000000000005,
                    "velocity": 0.28346456692913385,
                    "duration": 0.030000000000001137
                },
                {
                    "name": "A#5",
                    "midi": 82,
                    "time": 159.97250000000005,
                    "velocity": 0.28346456692913385,
                    "duration": 0.030000000000001137
                },
                {
                    "name": "G#5",
                    "midi": 80,
                    "time": 160.00500000000005,
                    "velocity": 0.28346456692913385,
                    "duration": 0.030000000000001137
                },
                {
                    "name": "G5",
                    "midi": 79,
                    "time": 160.03750000000005,
                    "velocity": 0.28346456692913385,
                    "duration": 0.030000000000001137
                },
                {
                    "name": "F5",
                    "midi": 77,
                    "time": 160.07000000000005,
                    "velocity": 0.28346456692913385,
                    "duration": 0.030000000000001137
                },
                {
                    "name": "D#5",
                    "midi": 75,
                    "time": 160.10250000000005,
                    "velocity": 0.28346456692913385,
                    "duration": 0.030000000000001137
                },
                {
                    "name": "D5",
                    "midi": 74,
                    "time": 160.13500000000005,
                    "velocity": 0.28346456692913385,
                    "duration": 0.030000000000001137
                },
                {
                    "name": "C5",
                    "midi": 72,
                    "time": 160.17000000000004,
                    "velocity": 0.28346456692913385,
                    "duration": 0.030000000000001137
                },
                {
                    "name": "A#4",
                    "midi": 70,
                    "time": 160.20000000000005,
                    "velocity": 0.3228346456692913,
                    "duration": 0.11250000000001137
                },
                {
                    "name": "D#3",
                    "midi": 51,
                    "time": 160.50000000000006,
                    "velocity": 0.2283464566929134,
                    "duration": 0.11250000000001137
                },
                {
                    "name": "D3",
                    "midi": 50,
                    "time": 160.80000000000007,
                    "velocity": 0.25196850393700787,
                    "duration": 0.11250000000001137
                },
                {
                    "name": "D2",
                    "midi": 38,
                    "time": 161.10000000000008,
                    "velocity": 0.23622047244094488,
                    "duration": 0.11250000000001137
                },
                {
                    "name": "G2",
                    "midi": 43,
                    "time": 161.4000000000001,
                    "velocity": 0.2283464566929134,
                    "duration": 0.5999999999999659
                },
                {
                    "name": "D3",
                    "midi": 50,
                    "time": 161.4000000000001,
                    "velocity": 0.2283464566929134,
                    "duration": 0.29999999999998295
                },
                {
                    "name": "B2",
                    "midi": 47,
                    "time": 161.70000000000007,
                    "velocity": 0.2125984251968504,
                    "duration": 0.14999999999997726
                },
                {
                    "name": "F#6",
                    "midi": 90,
                    "time": 162.00000000000006,
                    "velocity": 0.2125984251968504,
                    "duration": 0.037499999999994316
                },
                {
                    "name": "G6",
                    "midi": 91,
                    "time": 162.03750000000005,
                    "velocity": 0.2125984251968504,
                    "duration": 0.037499999999994316
                },
                {
                    "name": "B6",
                    "midi": 95,
                    "time": 162.07500000000005,
                    "velocity": 0.2283464566929134,
                    "duration": 0.037499999999994316
                },
                {
                    "name": "A6",
                    "midi": 93,
                    "time": 162.11250000000004,
                    "velocity": 0.2283464566929134,
                    "duration": 0.037499999999994316
                },
                {
                    "name": "G6",
                    "midi": 91,
                    "time": 162.15000000000003,
                    "velocity": 0.2283464566929134,
                    "duration": 0.037499999999994316
                },
                {
                    "name": "F#6",
                    "midi": 90,
                    "time": 162.18750000000003,
                    "velocity": 0.2283464566929134,
                    "duration": 0.037499999999994316
                },
                {
                    "name": "E6",
                    "midi": 88,
                    "time": 162.22500000000002,
                    "velocity": 0.2283464566929134,
                    "duration": 0.037499999999994316
                },
                {
                    "name": "D6",
                    "midi": 86,
                    "time": 162.26250000000002,
                    "velocity": 0.2204724409448819,
                    "duration": 0.037499999999994316
                },
                {
                    "name": "C6",
                    "midi": 84,
                    "time": 162.3,
                    "velocity": 0.2204724409448819,
                    "duration": 0.037499999999994316
                },
                {
                    "name": "B5",
                    "midi": 83,
                    "time": 162.3375,
                    "velocity": 0.2204724409448819,
                    "duration": 0.037499999999994316
                },
                {
                    "name": "A5",
                    "midi": 81,
                    "time": 162.375,
                    "velocity": 0.2204724409448819,
                    "duration": 0.037499999999994316
                },
                {
                    "name": "G5",
                    "midi": 79,
                    "time": 162.4125,
                    "velocity": 0.2204724409448819,
                    "duration": 0.037499999999994316
                },
                {
                    "name": "F#5",
                    "midi": 78,
                    "time": 162.45,
                    "velocity": 0.2125984251968504,
                    "duration": 0.037499999999994316
                },
                {
                    "name": "E5",
                    "midi": 76,
                    "time": 162.48749999999998,
                    "velocity": 0.2125984251968504,
                    "duration": 0.037499999999994316
                },
                {
                    "name": "D5",
                    "midi": 74,
                    "time": 162.52499999999998,
                    "velocity": 0.2125984251968504,
                    "duration": 0.037499999999994316
                },
                {
                    "name": "C5",
                    "midi": 72,
                    "time": 162.56249999999997,
                    "velocity": 0.2125984251968504,
                    "duration": 0.037499999999994316
                },
                {
                    "name": "B4",
                    "midi": 71,
                    "time": 162.59999999999997,
                    "velocity": 0.2125984251968504,
                    "duration": 0.11250000000001137
                },
                {
                    "name": "C3",
                    "midi": 48,
                    "time": 162.89999999999998,
                    "velocity": 0.25196850393700787,
                    "duration": 0.2750000000000057
                },
                {
                    "name": "F2",
                    "midi": 41,
                    "time": 163.2,
                    "velocity": 0.28346456692913385,
                    "duration": 0.25
                },
                {
                    "name": "A#1",
                    "midi": 34,
                    "time": 163.5,
                    "velocity": 0.2755905511811024,
                    "duration": 0.2750000000000057
                },
                {
                    "name": "A#2",
                    "midi": 46,
                    "time": 163.5,
                    "velocity": 0.2755905511811024,
                    "duration": 0.2750000000000057
                },
                {
                    "name": "D#2",
                    "midi": 39,
                    "time": 163.8,
                    "velocity": 0.2755905511811024,
                    "duration": 0.5625
                },
                {
                    "name": "A#2",
                    "midi": 46,
                    "time": 163.8,
                    "velocity": 0.2755905511811024,
                    "duration": 0.5625
                },
                {
                    "name": "A3",
                    "midi": 57,
                    "time": 164.4,
                    "velocity": 0.30708661417322836,
                    "duration": 0.048750000000012506
                },
                {
                    "name": "A#3",
                    "midi": 58,
                    "time": 164.45000000000002,
                    "velocity": 0.33858267716535434,
                    "duration": 0.048750000000012506
                },
                {
                    "name": "D#4",
                    "midi": 63,
                    "time": 164.50000000000003,
                    "velocity": 0.3464566929133858,
                    "duration": 0.048750000000012506
                },
                {
                    "name": "D4",
                    "midi": 62,
                    "time": 164.55000000000004,
                    "velocity": 0.33858267716535434,
                    "duration": 0.048750000000012506
                },
                {
                    "name": "C4",
                    "midi": 60,
                    "time": 164.60000000000005,
                    "velocity": 0.33858267716535434,
                    "duration": 0.048750000000012506
                },
                {
                    "name": "A#3",
                    "midi": 58,
                    "time": 164.65000000000006,
                    "velocity": 0.33070866141732286,
                    "duration": 0.048750000000012506
                },
                {
                    "name": "G#3",
                    "midi": 56,
                    "time": 164.70000000000007,
                    "velocity": 0.3228346456692913,
                    "duration": 0.048750000000012506
                },
                {
                    "name": "G3",
                    "midi": 55,
                    "time": 164.75000000000009,
                    "velocity": 0.3228346456692913,
                    "duration": 0.048750000000012506
                },
                {
                    "name": "F3",
                    "midi": 53,
                    "time": 164.8000000000001,
                    "velocity": 0.30708661417322836,
                    "duration": 0.048750000000012506
                },
                {
                    "name": "D#3",
                    "midi": 51,
                    "time": 164.8500000000001,
                    "velocity": 0.30708661417322836,
                    "duration": 0.048750000000012506
                },
                {
                    "name": "D3",
                    "midi": 50,
                    "time": 164.90000000000012,
                    "velocity": 0.30708661417322836,
                    "duration": 0.048750000000012506
                },
                {
                    "name": "C3",
                    "midi": 48,
                    "time": 164.95000000000013,
                    "velocity": 0.30708661417322836,
                    "duration": 0.048750000000012506
                },
                {
                    "name": "B2",
                    "midi": 47,
                    "time": 165.00000000000014,
                    "velocity": 0.33070866141732286,
                    "duration": 1.1999999999999886
                },
                {
                    "name": "D#2",
                    "midi": 39,
                    "time": 165.30000000000015,
                    "velocity": 0.1968503937007874,
                    "duration": 0.25
                },
                {
                    "name": "A2",
                    "midi": 45,
                    "time": 165.30000000000015,
                    "velocity": 0.1968503937007874,
                    "duration": 0.25
                },
                {
                    "name": "F#3",
                    "midi": 54,
                    "time": 165.30000000000015,
                    "velocity": 0.2204724409448819,
                    "duration": 0.25
                },
                {
                    "name": "D#2",
                    "midi": 39,
                    "time": 165.60000000000016,
                    "velocity": 0.2125984251968504,
                    "duration": 0.25
                },
                {
                    "name": "A2",
                    "midi": 45,
                    "time": 165.60000000000016,
                    "velocity": 0.2125984251968504,
                    "duration": 0.25
                },
                {
                    "name": "F#3",
                    "midi": 54,
                    "time": 165.60000000000016,
                    "velocity": 0.2440944881889764,
                    "duration": 0.25
                },
                {
                    "name": "D#2",
                    "midi": 39,
                    "time": 165.90000000000018,
                    "velocity": 0.2125984251968504,
                    "duration": 0.22499999999999432
                },
                {
                    "name": "A2",
                    "midi": 45,
                    "time": 165.90000000000018,
                    "velocity": 0.2125984251968504,
                    "duration": 0.22499999999999432
                },
                {
                    "name": "F#3",
                    "midi": 54,
                    "time": 165.90000000000018,
                    "velocity": 0.2440944881889764,
                    "duration": 0.22499999999999432
                },
                {
                    "name": "D#2",
                    "midi": 39,
                    "time": 166.13750000000016,
                    "velocity": 0.2283464566929134,
                    "duration": 0.36249999999998295
                },
                {
                    "name": "A#2",
                    "midi": 46,
                    "time": 166.15000000000015,
                    "velocity": 0.25984251968503935,
                    "duration": 0.3499999999999943
                },
                {
                    "name": "G3",
                    "midi": 55,
                    "time": 166.16250000000014,
                    "velocity": 0.25984251968503935,
                    "duration": 0.3375000000000057
                },
                {
                    "name": "A3",
                    "midi": 57,
                    "time": 166.80000000000015,
                    "velocity": 0.29133858267716534,
                    "duration": 0.03624999999999545
                },
                {
                    "name": "A#3",
                    "midi": 58,
                    "time": 166.84250000000014,
                    "velocity": 0.3228346456692913,
                    "duration": 0.03624999999999545
                },
                {
                    "name": "G4",
                    "midi": 67,
                    "time": 166.88500000000013,
                    "velocity": 0.33070866141732286,
                    "duration": 0.03624999999999545
                },
                {
                    "name": "F4",
                    "midi": 65,
                    "time": 166.92750000000012,
                    "velocity": 0.33070866141732286,
                    "duration": 0.03624999999999545
                },
                {
                    "name": "D#4",
                    "midi": 63,
                    "time": 166.9700000000001,
                    "velocity": 0.33070866141732286,
                    "duration": 0.03624999999999545
                },
                {
                    "name": "D4",
                    "midi": 62,
                    "time": 167.0125000000001,
                    "velocity": 0.33070866141732286,
                    "duration": 0.03624999999999545
                },
                {
                    "name": "C4",
                    "midi": 60,
                    "time": 167.0550000000001,
                    "velocity": 0.3228346456692913,
                    "duration": 0.03624999999999545
                },
                {
                    "name": "A#3",
                    "midi": 58,
                    "time": 167.09750000000008,
                    "velocity": 0.3228346456692913,
                    "duration": 0.03624999999999545
                },
                {
                    "name": "G#3",
                    "midi": 56,
                    "time": 167.14000000000007,
                    "velocity": 0.3228346456692913,
                    "duration": 0.03624999999999545
                },
                {
                    "name": "G3",
                    "midi": 55,
                    "time": 167.18250000000006,
                    "velocity": 0.3228346456692913,
                    "duration": 0.03624999999999545
                },
                {
                    "name": "F3",
                    "midi": 53,
                    "time": 167.22500000000005,
                    "velocity": 0.30708661417322836,
                    "duration": 0.03624999999999545
                },
                {
                    "name": "D#3",
                    "midi": 51,
                    "time": 167.26750000000004,
                    "velocity": 0.30708661417322836,
                    "duration": 0.03624999999999545
                },
                {
                    "name": "D3",
                    "midi": 50,
                    "time": 167.31000000000003,
                    "velocity": 0.30708661417322836,
                    "duration": 0.03624999999999545
                },
                {
                    "name": "C3",
                    "midi": 48,
                    "time": 167.35250000000002,
                    "velocity": 0.29133858267716534,
                    "duration": 0.041249999999990905
                },
                {
                    "name": "A#2",
                    "midi": 46,
                    "time": 167.4,
                    "velocity": 0.3228346456692913,
                    "duration": 1.8000000000000398
                },
                {
                    "name": "E2",
                    "midi": 40,
                    "time": 167.70000000000002,
                    "velocity": 0.2755905511811024,
                    "duration": 0.30000000000001137
                },
                {
                    "name": "F2",
                    "midi": 41,
                    "time": 168.00000000000003,
                    "velocity": 0.29133858267716534,
                    "duration": 0.2750000000000057
                },
                {
                    "name": "A#1",
                    "midi": 34,
                    "time": 168.30000000000004,
                    "velocity": 0.25984251968503935,
                    "duration": 0.30000000000001137
                },
                {
                    "name": "D#2",
                    "midi": 39,
                    "time": 168.60000000000005,
                    "velocity": 0.25196850393700787,
                    "duration": 0.5999999999999943
                },
                {
                    "name": "F6",
                    "midi": 89,
                    "time": 169.44250000000005,
                    "velocity": 0.25984251968503935,
                    "duration": 0.030000000000001137
                },
                {
                    "name": "D#6",
                    "midi": 87,
                    "time": 169.47500000000005,
                    "velocity": 0.25984251968503935,
                    "duration": 0.030000000000001137
                },
                {
                    "name": "D6",
                    "midi": 86,
                    "time": 169.50750000000005,
                    "velocity": 0.25196850393700787,
                    "duration": 0.030000000000001137
                },
                {
                    "name": "C6",
                    "midi": 84,
                    "time": 169.54000000000005,
                    "velocity": 0.25196850393700787,
                    "duration": 0.030000000000001137
                },
                {
                    "name": "A#5",
                    "midi": 82,
                    "time": 169.57250000000005,
                    "velocity": 0.25196850393700787,
                    "duration": 0.030000000000001137
                },
                {
                    "name": "G#5",
                    "midi": 80,
                    "time": 169.60500000000005,
                    "velocity": 0.25196850393700787,
                    "duration": 0.030000000000001137
                },
                {
                    "name": "G5",
                    "midi": 79,
                    "time": 169.63750000000005,
                    "velocity": 0.25196850393700787,
                    "duration": 0.030000000000001137
                },
                {
                    "name": "F5",
                    "midi": 77,
                    "time": 169.67000000000004,
                    "velocity": 0.25196850393700787,
                    "duration": 0.030000000000001137
                },
                {
                    "name": "D#5",
                    "midi": 75,
                    "time": 169.70250000000004,
                    "velocity": 0.25196850393700787,
                    "duration": 0.030000000000001137
                },
                {
                    "name": "D5",
                    "midi": 74,
                    "time": 169.73500000000004,
                    "velocity": 0.25196850393700787,
                    "duration": 0.030000000000001137
                },
                {
                    "name": "C5",
                    "midi": 72,
                    "time": 169.77000000000004,
                    "velocity": 0.25196850393700787,
                    "duration": 0.030000000000001137
                },
                {
                    "name": "B4",
                    "midi": 71,
                    "time": 169.80000000000004,
                    "velocity": 0.28346456692913385,
                    "duration": 1.2000000000000455
                },
                {
                    "name": "B3",
                    "midi": 59,
                    "time": 170.10000000000005,
                    "velocity": 0.2440944881889764,
                    "duration": 0.25
                },
                {
                    "name": "F#4",
                    "midi": 66,
                    "time": 170.10000000000005,
                    "velocity": 0.28346456692913385,
                    "duration": 0.25
                },
                {
                    "name": "B3",
                    "midi": 59,
                    "time": 170.40000000000006,
                    "velocity": 0.2440944881889764,
                    "duration": 0.25
                },
                {
                    "name": "E4",
                    "midi": 64,
                    "time": 170.40000000000006,
                    "velocity": 0.28346456692913385,
                    "duration": 0.25
                },
                {
                    "name": "B3",
                    "midi": 59,
                    "time": 170.70000000000007,
                    "velocity": 0.2440944881889764,
                    "duration": 0.25
                },
                {
                    "name": "D#4",
                    "midi": 63,
                    "time": 170.70000000000007,
                    "velocity": 0.28346456692913385,
                    "duration": 0.22499999999999432
                },
                {
                    "name": "E4",
                    "midi": 64,
                    "time": 171.00000000000009,
                    "velocity": 0.28346456692913385,
                    "duration": 0.30000000000001137
                },
                {
                    "name": "G#4",
                    "midi": 68,
                    "time": 171.00000000000009,
                    "velocity": 0.30708661417322836,
                    "duration": 0.30000000000001137
                },
                {
                    "name": "B4",
                    "midi": 71,
                    "time": 171.3000000000001,
                    "velocity": 0.2283464566929134,
                    "duration": 0.15000000000000568
                },
                {
                    "name": "E5",
                    "midi": 76,
                    "time": 171.3000000000001,
                    "velocity": 0.25984251968503935,
                    "duration": 0.15000000000000568
                },
                {
                    "name": "B4",
                    "midi": 71,
                    "time": 171.8800000000001,
                    "velocity": 0.25196850393700787,
                    "duration": 0.03999999999999204
                },
                {
                    "name": "A4",
                    "midi": 69,
                    "time": 171.9200000000001,
                    "velocity": 0.25196850393700787,
                    "duration": 0.03999999999999204
                },
                {
                    "name": "G#4",
                    "midi": 68,
                    "time": 171.9600000000001,
                    "velocity": 0.25196850393700787,
                    "duration": 0.03999999999999204
                },
                {
                    "name": "F#4",
                    "midi": 66,
                    "time": 172.00000000000009,
                    "velocity": 0.25196850393700787,
                    "duration": 0.03999999999999204
                },
                {
                    "name": "E4",
                    "midi": 64,
                    "time": 172.04000000000008,
                    "velocity": 0.25196850393700787,
                    "duration": 0.03999999999999204
                },
                {
                    "name": "D#4",
                    "midi": 63,
                    "time": 172.08000000000007,
                    "velocity": 0.25196850393700787,
                    "duration": 0.03999999999999204
                },
                {
                    "name": "C#4",
                    "midi": 61,
                    "time": 172.12000000000006,
                    "velocity": 0.25196850393700787,
                    "duration": 0.03999999999999204
                },
                {
                    "name": "B3",
                    "midi": 59,
                    "time": 172.16000000000005,
                    "velocity": 0.25196850393700787,
                    "duration": 0.03999999999999204
                },
                {
                    "name": "A#3",
                    "midi": 58,
                    "time": 172.20000000000005,
                    "velocity": 0.2755905511811024,
                    "duration": 1.2000000000000455
                },
                {
                    "name": "E3",
                    "midi": 52,
                    "time": 172.50000000000006,
                    "velocity": 0.25196850393700787,
                    "duration": 0.30000000000001137
                },
                {
                    "name": "F3",
                    "midi": 53,
                    "time": 172.80000000000007,
                    "velocity": 0.28346456692913385,
                    "duration": 0.2750000000000057
                },
                {
                    "name": "A#2",
                    "midi": 46,
                    "time": 173.10000000000008,
                    "velocity": 0.2440944881889764,
                    "duration": 0.30000000000001137
                },
                {
                    "name": "D#3",
                    "midi": 51,
                    "time": 173.4000000000001,
                    "velocity": 0.2125984251968504,
                    "duration": 0.5749999999999886
                },
                {
                    "name": "A3",
                    "midi": 57,
                    "time": 174.00000000000009,
                    "velocity": 0.28346456692913385,
                    "duration": 0.03624999999999545
                },
                {
                    "name": "A#3",
                    "midi": 58,
                    "time": 174.04250000000008,
                    "velocity": 0.2992125984251969,
                    "duration": 0.03624999999999545
                },
                {
                    "name": "G4",
                    "midi": 67,
                    "time": 174.08500000000006,
                    "velocity": 0.2992125984251969,
                    "duration": 0.03624999999999545
                },
                {
                    "name": "F4",
                    "midi": 65,
                    "time": 174.12750000000005,
                    "velocity": 0.2992125984251969,
                    "duration": 0.03624999999999545
                },
                {
                    "name": "D#4",
                    "midi": 63,
                    "time": 174.17000000000004,
                    "velocity": 0.2992125984251969,
                    "duration": 0.03624999999999545
                },
                {
                    "name": "D4",
                    "midi": 62,
                    "time": 174.21250000000003,
                    "velocity": 0.2992125984251969,
                    "duration": 0.03624999999999545
                },
                {
                    "name": "C4",
                    "midi": 60,
                    "time": 174.25500000000002,
                    "velocity": 0.2992125984251969,
                    "duration": 0.03624999999999545
                },
                {
                    "name": "A#3",
                    "midi": 58,
                    "time": 174.2975,
                    "velocity": 0.2992125984251969,
                    "duration": 0.03624999999999545
                },
                {
                    "name": "G#3",
                    "midi": 56,
                    "time": 174.34,
                    "velocity": 0.2992125984251969,
                    "duration": 0.03624999999999545
                },
                {
                    "name": "G3",
                    "midi": 55,
                    "time": 174.3825,
                    "velocity": 0.2992125984251969,
                    "duration": 0.03624999999999545
                },
                {
                    "name": "F3",
                    "midi": 53,
                    "time": 174.42499999999998,
                    "velocity": 0.29133858267716534,
                    "duration": 0.03624999999999545
                },
                {
                    "name": "D#3",
                    "midi": 51,
                    "time": 174.46749999999997,
                    "velocity": 0.29133858267716534,
                    "duration": 0.03624999999999545
                },
                {
                    "name": "D3",
                    "midi": 50,
                    "time": 174.50999999999996,
                    "velocity": 0.29133858267716534,
                    "duration": 0.03624999999999545
                },
                {
                    "name": "C3",
                    "midi": 48,
                    "time": 174.55249999999995,
                    "velocity": 0.28346456692913385,
                    "duration": 0.041249999999990905
                },
                {
                    "name": "A#2",
                    "midi": 46,
                    "time": 174.59999999999994,
                    "velocity": 0.2992125984251969,
                    "duration": 1.8000000000000398
                },
                {
                    "name": "E2",
                    "midi": 40,
                    "time": 174.89999999999995,
                    "velocity": 0.25984251968503935,
                    "duration": 0.30000000000001137
                },
                {
                    "name": "F2",
                    "midi": 41,
                    "time": 175.19999999999996,
                    "velocity": 0.28346456692913385,
                    "duration": 0.2750000000000057
                },
                {
                    "name": "A#1",
                    "midi": 34,
                    "time": 175.49999999999997,
                    "velocity": 0.2440944881889764,
                    "duration": 0.30000000000001137
                },
                {
                    "name": "D#2",
                    "midi": 39,
                    "time": 175.79999999999998,
                    "velocity": 0.2047244094488189,
                    "duration": 0.5999999999999943
                },
                {
                    "name": "F6",
                    "midi": 89,
                    "time": 176.78499999999997,
                    "velocity": 0.25984251968503935,
                    "duration": 0.048750000000012506
                },
                {
                    "name": "D#6",
                    "midi": 87,
                    "time": 176.83999999999997,
                    "velocity": 0.25984251968503935,
                    "duration": 0.048750000000012506
                },
                {
                    "name": "D6",
                    "midi": 86,
                    "time": 176.89499999999998,
                    "velocity": 0.25196850393700787,
                    "duration": 0.048750000000012506
                },
                {
                    "name": "C6",
                    "midi": 84,
                    "time": 176.95,
                    "velocity": 0.25196850393700787,
                    "duration": 0.04374999999998863
                },
                {
                    "name": "G#5",
                    "midi": 80,
                    "time": 177.32374999999988,
                    "velocity": 0.2992125984251969,
                    "duration": 0.03999999999999204
                },
                {
                    "name": "G5",
                    "midi": 79,
                    "time": 177.36999999999986,
                    "velocity": 0.30708661417322836,
                    "duration": 0.03999999999996362
                },
                {
                    "name": "F5",
                    "midi": 77,
                    "time": 177.41624999999982,
                    "velocity": 0.3228346456692913,
                    "duration": 0.03999999999996362
                },
                {
                    "name": "D#5",
                    "midi": 75,
                    "time": 177.46249999999978,
                    "velocity": 0.33070866141732286,
                    "duration": 0.03999999999996362
                },
                {
                    "name": "D5",
                    "midi": 74,
                    "time": 177.50874999999974,
                    "velocity": 0.33858267716535434,
                    "duration": 0.03999999999999204
                },
                {
                    "name": "C5",
                    "midi": 72,
                    "time": 177.55499999999972,
                    "velocity": 0.3543307086614173,
                    "duration": 0.040000000000020464
                },
                {
                    "name": "F4",
                    "midi": 65,
                    "time": 177.98499999999973,
                    "velocity": 0.4330708661417323,
                    "duration": 0.048750000000012506
                },
                {
                    "name": "D#4",
                    "midi": 63,
                    "time": 178.03999999999974,
                    "velocity": 0.44881889763779526,
                    "duration": 0.048750000000012506
                },
                {
                    "name": "D4",
                    "midi": 62,
                    "time": 178.09499999999974,
                    "velocity": 0.4645669291338583,
                    "duration": 0.048750000000012506
                },
                {
                    "name": "C4",
                    "midi": 60,
                    "time": 178.14999999999975,
                    "velocity": 0.4881889763779528,
                    "duration": 0.04374999999998863
                },
                {
                    "name": "G#3",
                    "midi": 56,
                    "time": 178.52374999999975,
                    "velocity": 0.4881889763779528,
                    "duration": 0.03999999999999204
                },
                {
                    "name": "G3",
                    "midi": 55,
                    "time": 178.56999999999974,
                    "velocity": 0.49606299212598426,
                    "duration": 0.03999999999999204
                },
                {
                    "name": "F3",
                    "midi": 53,
                    "time": 178.61624999999972,
                    "velocity": 0.5118110236220472,
                    "duration": 0.03999999999999204
                },
                {
                    "name": "D#3",
                    "midi": 51,
                    "time": 178.6624999999997,
                    "velocity": 0.5275590551181102,
                    "duration": 0.03999999999999204
                },
                {
                    "name": "D3",
                    "midi": 50,
                    "time": 178.7087499999997,
                    "velocity": 0.5433070866141733,
                    "duration": 0.03999999999999204
                },
                {
                    "name": "C3",
                    "midi": 48,
                    "time": 178.75499999999968,
                    "velocity": 0.5590551181102362,
                    "duration": 0.03999999999999204
                },
                {
                    "name": "A#2",
                    "midi": 46,
                    "time": 178.79999999999967,
                    "velocity": 0.6771653543307087,
                    "duration": 0.6000000000000227
                },
                {
                    "name": "C#2",
                    "midi": 37,
                    "time": 179.09999999999968,
                    "velocity": 0.4881889763779528,
                    "duration": 0.30000000000001137
                },
                {
                    "name": "D#2",
                    "midi": 39,
                    "time": 179.09999999999968,
                    "velocity": 0.4881889763779528,
                    "duration": 0.30000000000001137
                },
                {
                    "name": "B2",
                    "midi": 47,
                    "time": 179.3999999999997,
                    "velocity": 0.6377952755905512,
                    "duration": 0.6000000000000227
                },
                {
                    "name": "B1",
                    "midi": 35,
                    "time": 179.6999999999997,
                    "velocity": 0.47244094488188976,
                    "duration": 0.30000000000001137
                },
                {
                    "name": "D#2",
                    "midi": 39,
                    "time": 179.6999999999997,
                    "velocity": 0.47244094488188976,
                    "duration": 0.30000000000001137
                },
                {
                    "name": "G#1",
                    "midi": 32,
                    "time": 179.99999999999972,
                    "velocity": 0.48031496062992124,
                    "duration": 0.30000000000001137
                },
                {
                    "name": "D#2",
                    "midi": 39,
                    "time": 179.99999999999972,
                    "velocity": 0.48031496062992124,
                    "duration": 0.30000000000001137
                },
                {
                    "name": "B2",
                    "midi": 47,
                    "time": 179.99999999999972,
                    "velocity": 0.5669291338582677,
                    "duration": 0.30000000000001137
                },
                {
                    "name": "G#1",
                    "midi": 32,
                    "time": 180.29999999999973,
                    "velocity": 0.48031496062992124,
                    "duration": 0.30000000000001137
                },
                {
                    "name": "D#2",
                    "midi": 39,
                    "time": 180.29999999999973,
                    "velocity": 0.48031496062992124,
                    "duration": 0.30000000000001137
                },
                {
                    "name": "G#2",
                    "midi": 44,
                    "time": 180.29999999999973,
                    "velocity": 0.5669291338582677,
                    "duration": 0.30000000000001137
                },
                {
                    "name": "D#1",
                    "midi": 27,
                    "time": 180.59999999999974,
                    "velocity": 0.48031496062992124,
                    "duration": 1.1999999999999886
                },
                {
                    "name": "A#1",
                    "midi": 34,
                    "time": 180.59999999999974,
                    "velocity": 0.48031496062992124,
                    "duration": 1.1999999999999886
                },
                {
                    "name": "D#2",
                    "midi": 39,
                    "time": 180.59999999999974,
                    "velocity": 0.5433070866141733,
                    "duration": 1.1999999999999886
                },
                {
                    "name": "D#1",
                    "midi": 27,
                    "time": 181.79999999999973,
                    "velocity": 0.48031496062992124,
                    "duration": 0.5999999999999943
                },
                {
                    "name": "A#1",
                    "midi": 34,
                    "time": 181.79999999999973,
                    "velocity": 0.48031496062992124,
                    "duration": 0.5999999999999943
                },
                {
                    "name": "D#2",
                    "midi": 39,
                    "time": 181.79999999999973,
                    "velocity": 0.5433070866141733,
                    "duration": 0.5999999999999943
                },
                {
                    "name": "D#1",
                    "midi": 27,
                    "time": 182.39999999999972,
                    "velocity": 0.48031496062992124,
                    "duration": 0.5999999999999943
                },
                {
                    "name": "A#1",
                    "midi": 34,
                    "time": 182.39999999999972,
                    "velocity": 0.48031496062992124,
                    "duration": 0.5999999999999943
                },
                {
                    "name": "D#2",
                    "midi": 39,
                    "time": 182.39999999999972,
                    "velocity": 0.5433070866141733,
                    "duration": 0.5999999999999943
                },
                {
                    "name": "D#1",
                    "midi": 27,
                    "time": 182.99999999999972,
                    "velocity": 0.48031496062992124,
                    "duration": 2.4000000000000057
                },
                {
                    "name": "A#1",
                    "midi": 34,
                    "time": 182.99999999999972,
                    "velocity": 0.48031496062992124,
                    "duration": 2.4000000000000057
                },
                {
                    "name": "D#2",
                    "midi": 39,
                    "time": 182.99999999999972,
                    "velocity": 0.5433070866141733,
                    "duration": 2.4000000000000057
                }
            ],
            "controlChanges": {
                "7": [
                    {
                        "number": 7,
                        "time": 0,
                        "value": 0.7874015748031497
                    }
                ],
                "10": [
                    {
                        "number": 10,
                        "time": 0,
                        "value": 0.5039370078740157
                    }
                ],
                "64": [
                    {
                        "number": 64,
                        "time": 0,
                        "value": 0
                    },
                    {
                        "number": 64,
                        "time": 2.3,
                        "value": 0
                    },
                    {
                        "number": 64,
                        "time": 9.53375,
                        "value": 1
                    },
                    {
                        "number": 64,
                        "time": 11.85,
                        "value": 0
                    },
                    {
                        "number": 64,
                        "time": 15.032499999999999,
                        "value": 1
                    },
                    {
                        "number": 64,
                        "time": 15.924999999999999,
                        "value": 0
                    },
                    {
                        "number": 64,
                        "time": 16.23625,
                        "value": 1
                    },
                    {
                        "number": 64,
                        "time": 16.800000000000015,
                        "value": 0
                    },
                    {
                        "number": 64,
                        "time": 17.016250000000014,
                        "value": 1
                    },
                    {
                        "number": 64,
                        "time": 17.170000000000012,
                        "value": 0
                    },
                    {
                        "number": 64,
                        "time": 20.45250000000001,
                        "value": 1
                    },
                    {
                        "number": 64,
                        "time": 20.72000000000001,
                        "value": 0
                    },
                    {
                        "number": 64,
                        "time": 25.24875000000004,
                        "value": 1
                    },
                    {
                        "number": 64,
                        "time": 25.51625000000004,
                        "value": 0
                    },
                    {
                        "number": 64,
                        "time": 28.23875000000004,
                        "value": 1
                    },
                    {
                        "number": 64,
                        "time": 28.80250000000001,
                        "value": 0
                    },
                    {
                        "number": 64,
                        "time": 30.000000000000014,
                        "value": 1
                    },
                    {
                        "number": 64,
                        "time": 30.316250000000014,
                        "value": 0
                    },
                    {
                        "number": 64,
                        "time": 30.626250000000013,
                        "value": 1
                    },
                    {
                        "number": 64,
                        "time": 31.212500000000016,
                        "value": 0
                    },
                    {
                        "number": 64,
                        "time": 32.44750000000002,
                        "value": 1
                    },
                    {
                        "number": 64,
                        "time": 32.71375000000002,
                        "value": 0
                    },
                    {
                        "number": 64,
                        "time": 34.841249999999995,
                        "value": 1
                    },
                    {
                        "number": 64,
                        "time": 35.12875,
                        "value": 0
                    },
                    {
                        "number": 64,
                        "time": 37.82625000000001,
                        "value": 1
                    },
                    {
                        "number": 64,
                        "time": 38.407500000000006,
                        "value": 0
                    },
                    {
                        "number": 64,
                        "time": 39.70999999999997,
                        "value": 1
                    },
                    {
                        "number": 64,
                        "time": 39.91249999999997,
                        "value": 0
                    },
                    {
                        "number": 64,
                        "time": 40.238749999999975,
                        "value": 1
                    },
                    {
                        "number": 64,
                        "time": 40.809999999999974,
                        "value": 0
                    },
                    {
                        "number": 64,
                        "time": 42.084999999999944,
                        "value": 1
                    },
                    {
                        "number": 64,
                        "time": 42.303749999999944,
                        "value": 0
                    },
                    {
                        "number": 64,
                        "time": 42.622499999999945,
                        "value": 1
                    },
                    {
                        "number": 64,
                        "time": 43.21249999999997,
                        "value": 0
                    },
                    {
                        "number": 64,
                        "time": 45.01249999999994,
                        "value": 1
                    },
                    {
                        "number": 64,
                        "time": 45.60624999999996,
                        "value": 0
                    },
                    {
                        "number": 64,
                        "time": 46.868749999999935,
                        "value": 1
                    },
                    {
                        "number": 64,
                        "time": 47.117499999999936,
                        "value": 0
                    },
                    {
                        "number": 64,
                        "time": 47.43624999999994,
                        "value": 1
                    },
                    {
                        "number": 64,
                        "time": 48.01749999999993,
                        "value": 0
                    },
                    {
                        "number": 64,
                        "time": 48.36874999999993,
                        "value": 1
                    },
                    {
                        "number": 64,
                        "time": 48.61499999999993,
                        "value": 0
                    },
                    {
                        "number": 64,
                        "time": 48.65749999999993,
                        "value": 1
                    },
                    {
                        "number": 64,
                        "time": 49.21249999999992,
                        "value": 0
                    },
                    {
                        "number": 64,
                        "time": 49.53999999999992,
                        "value": 1
                    },
                    {
                        "number": 64,
                        "time": 49.80749999999992,
                        "value": 0
                    },
                    {
                        "number": 64,
                        "time": 51.03999999999988,
                        "value": 1
                    },
                    {
                        "number": 64,
                        "time": 51.59999999999987,
                        "value": 0
                    },
                    {
                        "number": 64,
                        "time": 51.691249999999876,
                        "value": 1
                    },
                    {
                        "number": 64,
                        "time": 51.91499999999988,
                        "value": 0
                    },
                    {
                        "number": 64,
                        "time": 52.26249999999986,
                        "value": 1
                    },
                    {
                        "number": 64,
                        "time": 52.80999999999987,
                        "value": 0
                    },
                    {
                        "number": 64,
                        "time": 54.077499999999844,
                        "value": 1
                    },
                    {
                        "number": 64,
                        "time": 54.60624999999985,
                        "value": 0
                    },
                    {
                        "number": 64,
                        "time": 55.882499999999844,
                        "value": 1
                    },
                    {
                        "number": 64,
                        "time": 56.11374999999985,
                        "value": 0
                    },
                    {
                        "number": 64,
                        "time": 56.413749999999844,
                        "value": 1
                    },
                    {
                        "number": 64,
                        "time": 57.01124999999984,
                        "value": 0
                    },
                    {
                        "number": 64,
                        "time": 60.664999999999814,
                        "value": 1
                    },
                    {
                        "number": 64,
                        "time": 60.90374999999981,
                        "value": 0
                    },
                    {
                        "number": 64,
                        "time": 64.24374999999984,
                        "value": 1
                    },
                    {
                        "number": 64,
                        "time": 64.39249999999984,
                        "value": 0
                    },
                    {
                        "number": 64,
                        "time": 64.81374999999983,
                        "value": 1
                    },
                    {
                        "number": 64,
                        "time": 64.97499999999984,
                        "value": 0
                    },
                    {
                        "number": 64,
                        "time": 65.47124999999983,
                        "value": 1
                    },
                    {
                        "number": 64,
                        "time": 65.57874999999983,
                        "value": 0
                    },
                    {
                        "number": 64,
                        "time": 66.03624999999981,
                        "value": 1
                    },
                    {
                        "number": 64,
                        "time": 66.16499999999981,
                        "value": 0
                    },
                    {
                        "number": 64,
                        "time": 66.6437499999998,
                        "value": 1
                    },
                    {
                        "number": 64,
                        "time": 66.7712499999998,
                        "value": 0
                    },
                    {
                        "number": 64,
                        "time": 67.22124999999977,
                        "value": 1
                    },
                    {
                        "number": 64,
                        "time": 67.36374999999977,
                        "value": 0
                    },
                    {
                        "number": 64,
                        "time": 67.89249999999976,
                        "value": 1
                    },
                    {
                        "number": 64,
                        "time": 68.88499999999976,
                        "value": 0
                    },
                    {
                        "number": 64,
                        "time": 78.9624999999998,
                        "value": 1
                    },
                    {
                        "number": 64,
                        "time": 79.22249999999978,
                        "value": 0
                    },
                    {
                        "number": 64,
                        "time": 79.28374999999978,
                        "value": 1
                    },
                    {
                        "number": 64,
                        "time": 79.51374999999977,
                        "value": 0
                    },
                    {
                        "number": 64,
                        "time": 79.58874999999978,
                        "value": 1
                    },
                    {
                        "number": 64,
                        "time": 79.77374999999978,
                        "value": 0
                    },
                    {
                        "number": 64,
                        "time": 80.12249999999976,
                        "value": 1
                    },
                    {
                        "number": 64,
                        "time": 80.41249999999975,
                        "value": 0
                    },
                    {
                        "number": 64,
                        "time": 80.47124999999976,
                        "value": 1
                    },
                    {
                        "number": 64,
                        "time": 80.70999999999975,
                        "value": 0
                    },
                    {
                        "number": 64,
                        "time": 80.76624999999976,
                        "value": 1
                    },
                    {
                        "number": 64,
                        "time": 81.01499999999974,
                        "value": 0
                    },
                    {
                        "number": 64,
                        "time": 84.15499999999973,
                        "value": 1
                    },
                    {
                        "number": 64,
                        "time": 84.60999999999974,
                        "value": 0
                    },
                    {
                        "number": 64,
                        "time": 84.67499999999974,
                        "value": 1
                    },
                    {
                        "number": 64,
                        "time": 85.05749999999975,
                        "value": 0
                    },
                    {
                        "number": 64,
                        "time": 86.58999999999979,
                        "value": 1
                    },
                    {
                        "number": 64,
                        "time": 87.02374999999981,
                        "value": 0
                    },
                    {
                        "number": 64,
                        "time": 87.0749999999998,
                        "value": 1
                    },
                    {
                        "number": 64,
                        "time": 87.3137499999998,
                        "value": 0
                    },
                    {
                        "number": 64,
                        "time": 112.70374999999996,
                        "value": 1
                    },
                    {
                        "number": 64,
                        "time": 112.81124999999997,
                        "value": 0
                    },
                    {
                        "number": 64,
                        "time": 113.32874999999996,
                        "value": 1
                    },
                    {
                        "number": 64,
                        "time": 113.45874999999997,
                        "value": 0
                    },
                    {
                        "number": 64,
                        "time": 113.95374999999996,
                        "value": 1
                    },
                    {
                        "number": 64,
                        "time": 115.05999999999996,
                        "value": 0
                    },
                    {
                        "number": 64,
                        "time": 115.24124999999997,
                        "value": 1
                    },
                    {
                        "number": 64,
                        "time": 115.80000000000004,
                        "value": 0
                    },
                    {
                        "number": 64,
                        "time": 115.84625000000004,
                        "value": 1
                    },
                    {
                        "number": 64,
                        "time": 116.39625000000004,
                        "value": 0
                    },
                    {
                        "number": 64,
                        "time": 116.43000000000004,
                        "value": 1
                    },
                    {
                        "number": 64,
                        "time": 118.10000000000014,
                        "value": 0
                    },
                    {
                        "number": 64,
                        "time": 121.2612500000001,
                        "value": 1
                    },
                    {
                        "number": 64,
                        "time": 121.5025000000001,
                        "value": 0
                    },
                    {
                        "number": 64,
                        "time": 126.06375000000003,
                        "value": 1
                    },
                    {
                        "number": 64,
                        "time": 126.32000000000002,
                        "value": 0
                    },
                    {
                        "number": 64,
                        "time": 129.03625000000005,
                        "value": 1
                    },
                    {
                        "number": 64,
                        "time": 129.60875000000016,
                        "value": 0
                    },
                    {
                        "number": 64,
                        "time": 130.8475000000002,
                        "value": 1
                    },
                    {
                        "number": 64,
                        "time": 131.1075000000002,
                        "value": 0
                    },
                    {
                        "number": 64,
                        "time": 131.4312500000002,
                        "value": 1
                    },
                    {
                        "number": 64,
                        "time": 132.01625000000004,
                        "value": 0
                    },
                    {
                        "number": 64,
                        "time": 133.25125000000008,
                        "value": 1
                    },
                    {
                        "number": 64,
                        "time": 133.5175000000001,
                        "value": 0
                    },
                    {
                        "number": 64,
                        "time": 133.8200000000001,
                        "value": 1
                    },
                    {
                        "number": 64,
                        "time": 134.42250000000016,
                        "value": 0
                    },
                    {
                        "number": 64,
                        "time": 138.6312500000001,
                        "value": 1
                    },
                    {
                        "number": 64,
                        "time": 139.21000000000012,
                        "value": 0
                    },
                    {
                        "number": 64,
                        "time": 141.02500000000015,
                        "value": 1
                    },
                    {
                        "number": 64,
                        "time": 141.61375000000015,
                        "value": 0
                    },
                    {
                        "number": 64,
                        "time": 143.41375000000016,
                        "value": 1
                    },
                    {
                        "number": 64,
                        "time": 144.01500000000016,
                        "value": 0
                    },
                    {
                        "number": 64,
                        "time": 145.8225000000002,
                        "value": 1
                    },
                    {
                        "number": 64,
                        "time": 146.4137500000002,
                        "value": 0
                    },
                    {
                        "number": 64,
                        "time": 148.2437500000002,
                        "value": 1
                    },
                    {
                        "number": 64,
                        "time": 148.81500000000017,
                        "value": 0
                    },
                    {
                        "number": 64,
                        "time": 149.13250000000016,
                        "value": 1
                    },
                    {
                        "number": 64,
                        "time": 149.41375000000016,
                        "value": 0
                    },
                    {
                        "number": 64,
                        "time": 149.45375000000016,
                        "value": 1
                    },
                    {
                        "number": 64,
                        "time": 150.01000000000013,
                        "value": 0
                    },
                    {
                        "number": 64,
                        "time": 150.36500000000012,
                        "value": 1
                    },
                    {
                        "number": 64,
                        "time": 150.61500000000012,
                        "value": 0
                    },
                    {
                        "number": 64,
                        "time": 151.81750000000028,
                        "value": 1
                    },
                    {
                        "number": 64,
                        "time": 152.41125000000022,
                        "value": 0
                    },
                    {
                        "number": 64,
                        "time": 152.48125000000022,
                        "value": 1
                    },
                    {
                        "number": 64,
                        "time": 152.7125000000002,
                        "value": 0
                    },
                    {
                        "number": 64,
                        "time": 153.03875000000016,
                        "value": 1
                    },
                    {
                        "number": 64,
                        "time": 153.61125000000015,
                        "value": 0
                    },
                    {
                        "number": 64,
                        "time": 154.83874999999995,
                        "value": 1
                    },
                    {
                        "number": 64,
                        "time": 155.41499999999994,
                        "value": 0
                    },
                    {
                        "number": 64,
                        "time": 157.20749999999998,
                        "value": 1
                    },
                    {
                        "number": 64,
                        "time": 157.81000000000003,
                        "value": 0
                    },
                    {
                        "number": 64,
                        "time": 161.44125000000008,
                        "value": 1
                    },
                    {
                        "number": 64,
                        "time": 161.71500000000006,
                        "value": 0
                    },
                    {
                        "number": 64,
                        "time": 176.98999999999998,
                        "value": 0
                    },
                    {
                        "number": 64,
                        "time": 177.02499999999998,
                        "value": 0.007874015748031496
                    },
                    {
                        "number": 64,
                        "time": 177.03999999999996,
                        "value": 0.015748031496062992
                    },
                    {
                        "number": 64,
                        "time": 177.05499999999995,
                        "value": 0.023622047244094488
                    },
                    {
                        "number": 64,
                        "time": 177.07499999999996,
                        "value": 0.031496062992125984
                    },
                    {
                        "number": 64,
                        "time": 177.08999999999995,
                        "value": 0.03937007874015748
                    },
                    {
                        "number": 64,
                        "time": 177.10499999999993,
                        "value": 0.047244094488188976
                    },
                    {
                        "number": 64,
                        "time": 177.12499999999994,
                        "value": 0.05511811023622047
                    },
                    {
                        "number": 64,
                        "time": 177.13999999999993,
                        "value": 0.06299212598425197
                    },
                    {
                        "number": 64,
                        "time": 177.15499999999992,
                        "value": 0.07086614173228346
                    },
                    {
                        "number": 64,
                        "time": 177.1899999999999,
                        "value": 0.07874015748031496
                    },
                    {
                        "number": 64,
                        "time": 177.2049999999999,
                        "value": 0.08661417322834646
                    },
                    {
                        "number": 64,
                        "time": 177.2249999999999,
                        "value": 0.09448818897637795
                    },
                    {
                        "number": 64,
                        "time": 177.2399999999999,
                        "value": 0.10236220472440945
                    },
                    {
                        "number": 64,
                        "time": 177.25499999999988,
                        "value": 0.11023622047244094
                    },
                    {
                        "number": 64,
                        "time": 177.2749999999999,
                        "value": 0.11811023622047244
                    },
                    {
                        "number": 64,
                        "time": 177.28999999999988,
                        "value": 0.12598425196850394
                    },
                    {
                        "number": 64,
                        "time": 177.30499999999986,
                        "value": 0.13385826771653545
                    },
                    {
                        "number": 64,
                        "time": 177.32499999999987,
                        "value": 0.14173228346456693
                    },
                    {
                        "number": 64,
                        "time": 177.33999999999986,
                        "value": 0.14960629921259844
                    },
                    {
                        "number": 64,
                        "time": 177.37499999999986,
                        "value": 0.15748031496062992
                    },
                    {
                        "number": 64,
                        "time": 177.38999999999984,
                        "value": 0.16535433070866143
                    },
                    {
                        "number": 64,
                        "time": 177.40499999999983,
                        "value": 0.1732283464566929
                    },
                    {
                        "number": 64,
                        "time": 177.4249999999998,
                        "value": 0.18110236220472442
                    },
                    {
                        "number": 64,
                        "time": 177.4399999999998,
                        "value": 0.1889763779527559
                    },
                    {
                        "number": 64,
                        "time": 177.45499999999979,
                        "value": 0.1968503937007874
                    },
                    {
                        "number": 64,
                        "time": 177.47499999999977,
                        "value": 0.2047244094488189
                    },
                    {
                        "number": 64,
                        "time": 177.48999999999975,
                        "value": 0.2125984251968504
                    },
                    {
                        "number": 64,
                        "time": 177.50499999999974,
                        "value": 0.2204724409448819
                    },
                    {
                        "number": 64,
                        "time": 177.53999999999974,
                        "value": 0.2283464566929134
                    },
                    {
                        "number": 64,
                        "time": 177.55499999999972,
                        "value": 0.23622047244094488
                    },
                    {
                        "number": 64,
                        "time": 177.57499999999973,
                        "value": 0.2440944881889764
                    },
                    {
                        "number": 64,
                        "time": 178.24249999999975,
                        "value": 1
                    },
                    {
                        "number": 64,
                        "time": 178.82374999999968,
                        "value": 0
                    },
                    {
                        "number": 64,
                        "time": 181.13374999999974,
                        "value": 1
                    },
                    {
                        "number": 64,
                        "time": 185.66749999999973,
                        "value": 0
                    }
                ],
                "91": [
                    {
                        "number": 91,
                        "time": 2.3,
                        "value": 1
                    }
                ]
            },
            "id": 2,
            "name": "Piano left",
            "instrumentNumber": 0,
            "instrument": "acoustic grand piano",
            "instrumentFamily": "piano",
            "channelNumber": 0,
            "isPercussion": false
        },
        {
            "startTime": 0,
            "duration": 0,
            "length": 0,
            "notes": [],
            "controlChanges": {},
            "id": 3,
            "name": "Liszt: Etude No. 2 from Grandes Etudes de Paganini"
        },
        {
            "startTime": 0,
            "duration": 0,
            "length": 0,
            "notes": [],
            "controlChanges": {},
            "id": 4,
            "name": "Copyright  1998 by Bernd Krger"
        },
        {
            "startTime": 0,
            "duration": 0,
            "length": 0,
            "notes": [],
            "controlChanges": {},
            "id": 5,
            "name": "http://www.piano-midi.de"
        },
        {
            "startTime": 0,
            "duration": 0,
            "length": 0,
            "notes": [],
            "controlChanges": {},
            "id": 6,
            "name": "Edition: 2014-03-03"
        }
    ]
}