{
    "header": {
        "PPQ": 480,
        "timeSignature": [
            6,
            16
        ],
        "bpm": 98.69005401635623,
        "name": "Mendelssohn: Lieder ohne Worte Opus 30 Nr. 2"
    },
    "startTime": 0,
    "duration": 114.29723200000085,
    "tracks": [
        {
            "startTime": 0,
            "duration": 0,
            "length": 0,
            "notes": [],
            "controlChanges": {},
            "id": 0,
            "name": "Mendelssohn: Lieder ohne Worte Opus 30 Nr. 2"
        },
        {
            "startTime": 0.759955,
            "duration": 114.29723200000035,
            "length": 1075,
            "notes": [
                {
                    "name": "C#5",
                    "midi": 73,
                    "time": 0.759955,
                    "velocity": 0.33858267716535434,
                    "duration": 0.0759955
                },
                {
                    "name": "F5",
                    "midi": 77,
                    "time": 0.759955,
                    "velocity": 0.33858267716535434,
                    "duration": 0.0759955
                },
                {
                    "name": "F4",
                    "midi": 65,
                    "time": 0.911946,
                    "velocity": 0.31496062992125984,
                    "duration": 0.3039820000000001
                },
                {
                    "name": "C#5",
                    "midi": 73,
                    "time": 0.911946,
                    "velocity": 0.3937007874015748,
                    "duration": 0.1519910000000001
                },
                {
                    "name": "F5",
                    "midi": 77,
                    "time": 0.911946,
                    "velocity": 0.3937007874015748,
                    "duration": 0.1519910000000001
                },
                {
                    "name": "C#5",
                    "midi": 73,
                    "time": 1.0639370000000001,
                    "velocity": 0.3543307086614173,
                    "duration": 0.151991
                },
                {
                    "name": "A#4",
                    "midi": 70,
                    "time": 1.0639370000000001,
                    "velocity": 0.3543307086614173,
                    "duration": 0.151991
                },
                {
                    "name": "F5",
                    "midi": 77,
                    "time": 1.2159280000000001,
                    "velocity": 0.3543307086614173,
                    "duration": 0.0759955000000001
                },
                {
                    "name": "C#5",
                    "midi": 73,
                    "time": 1.2159280000000001,
                    "velocity": 0.3543307086614173,
                    "duration": 0.0759955000000001
                },
                {
                    "name": "F4",
                    "midi": 65,
                    "time": 1.3679190000000003,
                    "velocity": 0.31496062992125984,
                    "duration": 0.303982
                },
                {
                    "name": "C#5",
                    "midi": 73,
                    "time": 1.3679190000000003,
                    "velocity": 0.3937007874015748,
                    "duration": 0.151991
                },
                {
                    "name": "F5",
                    "midi": 77,
                    "time": 1.3679190000000003,
                    "velocity": 0.3937007874015748,
                    "duration": 0.151991
                },
                {
                    "name": "C#5",
                    "midi": 73,
                    "time": 1.5199100000000003,
                    "velocity": 0.36220472440944884,
                    "duration": 0.151991
                },
                {
                    "name": "A#4",
                    "midi": 70,
                    "time": 1.5199100000000003,
                    "velocity": 0.36220472440944884,
                    "duration": 0.151991
                },
                {
                    "name": "F5",
                    "midi": 77,
                    "time": 1.6719010000000003,
                    "velocity": 0.36220472440944884,
                    "duration": 0.0759955000000001
                },
                {
                    "name": "C#5",
                    "midi": 73,
                    "time": 1.6719010000000003,
                    "velocity": 0.36220472440944884,
                    "duration": 0.0759955000000001
                },
                {
                    "name": "F4",
                    "midi": 65,
                    "time": 1.8238920000000005,
                    "velocity": 0.31496062992125984,
                    "duration": 0.3039820000000002
                },
                {
                    "name": "C#5",
                    "midi": 73,
                    "time": 1.8238920000000005,
                    "velocity": 0.3937007874015748,
                    "duration": 0.151991
                },
                {
                    "name": "F5",
                    "midi": 77,
                    "time": 1.8238920000000005,
                    "velocity": 0.3937007874015748,
                    "duration": 0.151991
                },
                {
                    "name": "C#5",
                    "midi": 73,
                    "time": 1.9758830000000005,
                    "velocity": 0.3543307086614173,
                    "duration": 0.1519910000000002
                },
                {
                    "name": "A#4",
                    "midi": 70,
                    "time": 1.9758830000000005,
                    "velocity": 0.3543307086614173,
                    "duration": 0.1519910000000002
                },
                {
                    "name": "F5",
                    "midi": 77,
                    "time": 2.1278740000000007,
                    "velocity": 0.3543307086614173,
                    "duration": 0.07599549999999988
                },
                {
                    "name": "C#5",
                    "midi": 73,
                    "time": 2.1278740000000007,
                    "velocity": 0.3543307086614173,
                    "duration": 0.07599549999999988
                },
                {
                    "name": "F4",
                    "midi": 65,
                    "time": 2.2798650000000005,
                    "velocity": 0.31496062992125984,
                    "duration": 0.3039820000000004
                },
                {
                    "name": "C#5",
                    "midi": 73,
                    "time": 2.2798650000000005,
                    "velocity": 0.3937007874015748,
                    "duration": 0.1519910000000002
                },
                {
                    "name": "F5",
                    "midi": 77,
                    "time": 2.2798650000000005,
                    "velocity": 0.3937007874015748,
                    "duration": 0.1519910000000002
                },
                {
                    "name": "C#5",
                    "midi": 73,
                    "time": 2.4318560000000007,
                    "velocity": 0.36220472440944884,
                    "duration": 0.1519910000000002
                },
                {
                    "name": "A#4",
                    "midi": 70,
                    "time": 2.4318560000000007,
                    "velocity": 0.36220472440944884,
                    "duration": 0.1519910000000002
                },
                {
                    "name": "F5",
                    "midi": 77,
                    "time": 2.583847000000001,
                    "velocity": 0.36220472440944884,
                    "duration": 0.07599549999999988
                },
                {
                    "name": "C#5",
                    "midi": 73,
                    "time": 2.583847000000001,
                    "velocity": 0.36220472440944884,
                    "duration": 0.07599549999999988
                },
                {
                    "name": "F#4",
                    "midi": 66,
                    "time": 2.7358380000000007,
                    "velocity": 0.5590551181102362,
                    "duration": 0.7599550000000006
                },
                {
                    "name": "C#5",
                    "midi": 73,
                    "time": 2.7358380000000007,
                    "velocity": 0.3937007874015748,
                    "duration": 0.1519910000000002
                },
                {
                    "name": "A#4",
                    "midi": 70,
                    "time": 2.887829000000001,
                    "velocity": 0.3543307086614173,
                    "duration": 0.1519910000000002
                },
                {
                    "name": "C#5",
                    "midi": 73,
                    "time": 3.039820000000001,
                    "velocity": 0.3543307086614173,
                    "duration": 0.07599549999999988
                },
                {
                    "name": "C#5",
                    "midi": 73,
                    "time": 3.191811000000001,
                    "velocity": 0.3937007874015748,
                    "duration": 0.1519910000000002
                },
                {
                    "name": "A#4",
                    "midi": 70,
                    "time": 3.343802000000001,
                    "velocity": 0.36220472440944884,
                    "duration": 0.1519910000000002
                },
                {
                    "name": "F4",
                    "midi": 65,
                    "time": 3.4957930000000013,
                    "velocity": 0.47244094488188976,
                    "duration": 0.15199099999999977
                },
                {
                    "name": "C#5",
                    "midi": 73,
                    "time": 3.4957930000000013,
                    "velocity": 0.36220472440944884,
                    "duration": 0.07599549999999988
                },
                {
                    "name": "E4",
                    "midi": 64,
                    "time": 3.647784000000001,
                    "velocity": 0.5669291338582677,
                    "duration": 0.6839595000000007
                },
                {
                    "name": "C#5",
                    "midi": 73,
                    "time": 3.647784000000001,
                    "velocity": 0.3937007874015748,
                    "duration": 0.1519910000000002
                },
                {
                    "name": "A#4",
                    "midi": 70,
                    "time": 3.7997750000000012,
                    "velocity": 0.3543307086614173,
                    "duration": 0.1519910000000002
                },
                {
                    "name": "C#5",
                    "midi": 73,
                    "time": 3.9517660000000014,
                    "velocity": 0.3543307086614173,
                    "duration": 0.07599549999999988
                },
                {
                    "name": "C#5",
                    "midi": 73,
                    "time": 4.103757000000002,
                    "velocity": 0.3937007874015748,
                    "duration": 0.15199099999999977
                },
                {
                    "name": "A#4",
                    "midi": 70,
                    "time": 4.255748000000001,
                    "velocity": 0.36220472440944884,
                    "duration": 0.15199100000000065
                },
                {
                    "name": "C#5",
                    "midi": 73,
                    "time": 4.407739000000002,
                    "velocity": 0.48031496062992124,
                    "duration": 0.07599550000000033
                },
                {
                    "name": "E4",
                    "midi": 64,
                    "time": 4.407739000000002,
                    "velocity": 0.47244094488188976,
                    "duration": 0.15199100000000065
                },
                {
                    "name": "F4",
                    "midi": 65,
                    "time": 4.559730000000003,
                    "velocity": 0.5905511811023622,
                    "duration": 0.6079640000000017
                },
                {
                    "name": "C4",
                    "midi": 60,
                    "time": 4.7117210000000025,
                    "velocity": 0.4251968503937008,
                    "duration": 0.07599550000000033
                },
                {
                    "name": "D#4",
                    "midi": 63,
                    "time": 4.7117210000000025,
                    "velocity": 0.4251968503937008,
                    "duration": 0.07599550000000033
                },
                {
                    "name": "C4",
                    "midi": 60,
                    "time": 4.863712000000003,
                    "velocity": 0.4251968503937008,
                    "duration": 0.07599550000000033
                },
                {
                    "name": "D#4",
                    "midi": 63,
                    "time": 4.863712000000003,
                    "velocity": 0.4251968503937008,
                    "duration": 0.07599550000000033
                },
                {
                    "name": "C4",
                    "midi": 60,
                    "time": 5.015703000000004,
                    "velocity": 0.4251968503937008,
                    "duration": 0.07599550000000033
                },
                {
                    "name": "D#4",
                    "midi": 63,
                    "time": 5.015703000000004,
                    "velocity": 0.4251968503937008,
                    "duration": 0.07599550000000033
                },
                {
                    "name": "A#3",
                    "midi": 58,
                    "time": 5.1676940000000045,
                    "velocity": 0.4251968503937008,
                    "duration": 0.07599550000000033
                },
                {
                    "name": "G4",
                    "midi": 67,
                    "time": 5.1676940000000045,
                    "velocity": 0.4409448818897638,
                    "duration": 0.07599550000000033
                },
                {
                    "name": "C4",
                    "midi": 60,
                    "time": 5.319685000000005,
                    "velocity": 0.4251968503937008,
                    "duration": 0.07599550000000033
                },
                {
                    "name": "A4",
                    "midi": 69,
                    "time": 5.319685000000005,
                    "velocity": 0.48031496062992124,
                    "duration": 0.07599550000000033
                },
                {
                    "name": "C5",
                    "midi": 72,
                    "time": 5.395680500000005,
                    "velocity": 0.5039370078740157,
                    "duration": 0.07599550000000033
                },
                {
                    "name": "C#4",
                    "midi": 61,
                    "time": 5.471676000000006,
                    "velocity": 0.48031496062992124,
                    "duration": 0.07599550000000033
                },
                {
                    "name": "A#4",
                    "midi": 70,
                    "time": 5.471676000000006,
                    "velocity": 0.5748031496062992,
                    "duration": 0.07599550000000033
                },
                {
                    "name": "C4",
                    "midi": 60,
                    "time": 5.623667000000006,
                    "velocity": 0.4251968503937008,
                    "duration": 0.07599550000000033
                },
                {
                    "name": "A4",
                    "midi": 69,
                    "time": 5.623667000000006,
                    "velocity": 0.49606299212598426,
                    "duration": 0.07599550000000033
                },
                {
                    "name": "C#4",
                    "midi": 61,
                    "time": 5.775658000000007,
                    "velocity": 0.41732283464566927,
                    "duration": 0.07599550000000033
                },
                {
                    "name": "A#4",
                    "midi": 70,
                    "time": 5.775658000000007,
                    "velocity": 0.49606299212598426,
                    "duration": 0.07599550000000033
                },
                {
                    "name": "F4",
                    "midi": 65,
                    "time": 5.927649000000008,
                    "velocity": 0.47244094488188976,
                    "duration": 0.07599550000000033
                },
                {
                    "name": "C#5",
                    "midi": 73,
                    "time": 5.927649000000008,
                    "velocity": 0.5590551181102362,
                    "duration": 0.07599550000000033
                },
                {
                    "name": "D#4",
                    "midi": 63,
                    "time": 6.079640000000008,
                    "velocity": 0.41732283464566927,
                    "duration": 0.07599550000000033
                },
                {
                    "name": "C5",
                    "midi": 72,
                    "time": 6.079640000000008,
                    "velocity": 0.49606299212598426,
                    "duration": 0.07599550000000033
                },
                {
                    "name": "C#4",
                    "midi": 61,
                    "time": 6.231631000000009,
                    "velocity": 0.4566929133858268,
                    "duration": 0.07599550000000033
                },
                {
                    "name": "A#4",
                    "midi": 70,
                    "time": 6.231631000000009,
                    "velocity": 0.5511811023622047,
                    "duration": 0.07599550000000033
                },
                {
                    "name": "C#4",
                    "midi": 61,
                    "time": 6.38362200000001,
                    "velocity": 0.5511811023622047,
                    "duration": 0.9119460000000004
                },
                {
                    "name": "A#4",
                    "midi": 70,
                    "time": 6.38362200000001,
                    "velocity": 0.6456692913385826,
                    "duration": 0.9119460000000004
                },
                {
                    "name": "E4",
                    "midi": 64,
                    "time": 6.83959500000001,
                    "velocity": 0.5196850393700787,
                    "duration": 0.4559730000000002
                },
                {
                    "name": "C4",
                    "midi": 60,
                    "time": 7.29556800000001,
                    "velocity": 0.5275590551181102,
                    "duration": 0.4559730000000002
                },
                {
                    "name": "F4",
                    "midi": 65,
                    "time": 7.29556800000001,
                    "velocity": 0.5275590551181102,
                    "duration": 0.4559730000000002
                },
                {
                    "name": "A4",
                    "midi": 69,
                    "time": 7.29556800000001,
                    "velocity": 0.6299212598425197,
                    "duration": 0.4559730000000002
                },
                {
                    "name": "C#5",
                    "midi": 73,
                    "time": 8.05552300000001,
                    "velocity": 0.33858267716535434,
                    "duration": 0.07599549999999944
                },
                {
                    "name": "F5",
                    "midi": 77,
                    "time": 8.05552300000001,
                    "velocity": 0.33858267716535434,
                    "duration": 0.07599549999999944
                },
                {
                    "name": "F4",
                    "midi": 65,
                    "time": 8.207514000000009,
                    "velocity": 0.31496062992125984,
                    "duration": 0.3039820000000013
                },
                {
                    "name": "C#5",
                    "midi": 73,
                    "time": 8.207514000000009,
                    "velocity": 0.3937007874015748,
                    "duration": 0.15199100000000065
                },
                {
                    "name": "F5",
                    "midi": 77,
                    "time": 8.207514000000009,
                    "velocity": 0.3937007874015748,
                    "duration": 0.15199100000000065
                },
                {
                    "name": "C#5",
                    "midi": 73,
                    "time": 8.35950500000001,
                    "velocity": 0.3543307086614173,
                    "duration": 0.15199100000000065
                },
                {
                    "name": "A#4",
                    "midi": 70,
                    "time": 8.35950500000001,
                    "velocity": 0.3543307086614173,
                    "duration": 0.15199100000000065
                },
                {
                    "name": "F5",
                    "midi": 77,
                    "time": 8.51149600000001,
                    "velocity": 0.3543307086614173,
                    "duration": 0.07599549999999944
                },
                {
                    "name": "C#5",
                    "midi": 73,
                    "time": 8.51149600000001,
                    "velocity": 0.3543307086614173,
                    "duration": 0.07599549999999944
                },
                {
                    "name": "F4",
                    "midi": 65,
                    "time": 8.663487000000009,
                    "velocity": 0.3228346456692913,
                    "duration": 0.3039820000000013
                },
                {
                    "name": "C#5",
                    "midi": 73,
                    "time": 8.663487000000009,
                    "velocity": 0.4015748031496063,
                    "duration": 0.15199100000000065
                },
                {
                    "name": "F5",
                    "midi": 77,
                    "time": 8.663487000000009,
                    "velocity": 0.4015748031496063,
                    "duration": 0.15199100000000065
                },
                {
                    "name": "C#5",
                    "midi": 73,
                    "time": 8.81547800000001,
                    "velocity": 0.3779527559055118,
                    "duration": 0.15199100000000065
                },
                {
                    "name": "A#4",
                    "midi": 70,
                    "time": 8.81547800000001,
                    "velocity": 0.3779527559055118,
                    "duration": 0.15199100000000065
                },
                {
                    "name": "F5",
                    "midi": 77,
                    "time": 8.96746900000001,
                    "velocity": 0.3779527559055118,
                    "duration": 0.07599549999999944
                },
                {
                    "name": "C#5",
                    "midi": 73,
                    "time": 8.96746900000001,
                    "velocity": 0.3779527559055118,
                    "duration": 0.07599549999999944
                },
                {
                    "name": "F4",
                    "midi": 65,
                    "time": 9.119460000000009,
                    "velocity": 0.33070866141732286,
                    "duration": 0.3039820000000013
                },
                {
                    "name": "C#5",
                    "midi": 73,
                    "time": 9.119460000000009,
                    "velocity": 0.41732283464566927,
                    "duration": 0.15199100000000065
                },
                {
                    "name": "F5",
                    "midi": 77,
                    "time": 9.119460000000009,
                    "velocity": 0.41732283464566927,
                    "duration": 0.15199100000000065
                },
                {
                    "name": "C#5",
                    "midi": 73,
                    "time": 9.27145100000001,
                    "velocity": 0.3937007874015748,
                    "duration": 0.15199100000000065
                },
                {
                    "name": "A#4",
                    "midi": 70,
                    "time": 9.27145100000001,
                    "velocity": 0.3937007874015748,
                    "duration": 0.15199100000000065
                },
                {
                    "name": "F5",
                    "midi": 77,
                    "time": 9.42344200000001,
                    "velocity": 0.4330708661417323,
                    "duration": 0.07599549999999944
                },
                {
                    "name": "C#5",
                    "midi": 73,
                    "time": 9.42344200000001,
                    "velocity": 0.4330708661417323,
                    "duration": 0.07599549999999944
                },
                {
                    "name": "F4",
                    "midi": 65,
                    "time": 9.57543300000001,
                    "velocity": 0.41732283464566927,
                    "duration": 0.3039820000000013
                },
                {
                    "name": "C#5",
                    "midi": 73,
                    "time": 9.57543300000001,
                    "velocity": 0.5196850393700787,
                    "duration": 0.15199100000000065
                },
                {
                    "name": "F5",
                    "midi": 77,
                    "time": 9.57543300000001,
                    "velocity": 0.5196850393700787,
                    "duration": 0.15199100000000065
                },
                {
                    "name": "C#5",
                    "midi": 73,
                    "time": 9.72742400000001,
                    "velocity": 0.49606299212598426,
                    "duration": 0.15199100000000065
                },
                {
                    "name": "A#4",
                    "midi": 70,
                    "time": 9.72742400000001,
                    "velocity": 0.49606299212598426,
                    "duration": 0.15199100000000065
                },
                {
                    "name": "F5",
                    "midi": 77,
                    "time": 9.87941500000001,
                    "velocity": 0.5354330708661418,
                    "duration": 0.07599549999999944
                },
                {
                    "name": "C#5",
                    "midi": 73,
                    "time": 9.87941500000001,
                    "velocity": 0.5354330708661418,
                    "duration": 0.07599549999999944
                },
                {
                    "name": "G#4",
                    "midi": 68,
                    "time": 10.03140600000001,
                    "velocity": 0.4566929133858268,
                    "duration": 0.4559730000000002
                },
                {
                    "name": "F5",
                    "midi": 77,
                    "time": 10.03140600000001,
                    "velocity": 0.5196850393700787,
                    "duration": 0.4559730000000002
                },
                {
                    "name": "G#5",
                    "midi": 80,
                    "time": 10.03140600000001,
                    "velocity": 0.6456692913385826,
                    "duration": 0.4559730000000002
                },
                {
                    "name": "F#4",
                    "midi": 66,
                    "time": 10.48737900000001,
                    "velocity": 0.4409448818897638,
                    "duration": 0.30398199999999953
                },
                {
                    "name": "D#5",
                    "midi": 75,
                    "time": 10.48737900000001,
                    "velocity": 0.4409448818897638,
                    "duration": 0.30398199999999953
                },
                {
                    "name": "F#5",
                    "midi": 78,
                    "time": 10.48737900000001,
                    "velocity": 0.5196850393700787,
                    "duration": 0.30398199999999953
                },
                {
                    "name": "F4",
                    "midi": 65,
                    "time": 10.791361000000009,
                    "velocity": 0.4409448818897638,
                    "duration": 0.07599549999999944
                },
                {
                    "name": "C#5",
                    "midi": 73,
                    "time": 10.791361000000009,
                    "velocity": 0.4409448818897638,
                    "duration": 0.07599549999999944
                },
                {
                    "name": "F5",
                    "midi": 77,
                    "time": 10.791361000000009,
                    "velocity": 0.5196850393700787,
                    "duration": 0.07599549999999944
                },
                {
                    "name": "F4",
                    "midi": 65,
                    "time": 10.943352000000008,
                    "velocity": 0.4566929133858268,
                    "duration": 0.4559730000000002
                },
                {
                    "name": "C#5",
                    "midi": 73,
                    "time": 10.943352000000008,
                    "velocity": 0.5275590551181102,
                    "duration": 0.4559730000000002
                },
                {
                    "name": "F5",
                    "midi": 77,
                    "time": 10.943352000000008,
                    "velocity": 0.6456692913385826,
                    "duration": 0.4559730000000002
                },
                {
                    "name": "D#4",
                    "midi": 63,
                    "time": 11.399325000000008,
                    "velocity": 0.4409448818897638,
                    "duration": 0.30398199999999953
                },
                {
                    "name": "C5",
                    "midi": 72,
                    "time": 11.399325000000008,
                    "velocity": 0.4409448818897638,
                    "duration": 0.30398199999999953
                },
                {
                    "name": "D#5",
                    "midi": 75,
                    "time": 11.399325000000008,
                    "velocity": 0.5196850393700787,
                    "duration": 0.30398199999999953
                },
                {
                    "name": "F4",
                    "midi": 65,
                    "time": 11.855298000000008,
                    "velocity": 0.4566929133858268,
                    "duration": 0.4559730000000002
                },
                {
                    "name": "G#4",
                    "midi": 68,
                    "time": 11.855298000000008,
                    "velocity": 0.5196850393700787,
                    "duration": 0.9119460000000004
                },
                {
                    "name": "F5",
                    "midi": 77,
                    "time": 11.855298000000008,
                    "velocity": 0.6456692913385826,
                    "duration": 0.4559730000000002
                },
                {
                    "name": "C#5",
                    "midi": 73,
                    "time": 12.311271000000009,
                    "velocity": 0.5433070866141733,
                    "duration": 0.30398199999999953
                },
                {
                    "name": "C5",
                    "midi": 72,
                    "time": 12.615253000000008,
                    "velocity": 0.5118110236220472,
                    "duration": 0.11399325000000005
                },
                {
                    "name": "G#4",
                    "midi": 68,
                    "time": 12.767244000000009,
                    "velocity": 0.5433070866141733,
                    "duration": 0.30398199999999953
                },
                {
                    "name": "C5",
                    "midi": 72,
                    "time": 12.767244000000009,
                    "velocity": 0.5433070866141733,
                    "duration": 0.30398199999999953
                },
                {
                    "name": "F#4",
                    "midi": 66,
                    "time": 13.071226000000008,
                    "velocity": 0.5118110236220472,
                    "duration": 0.11399325000000005
                },
                {
                    "name": "A#4",
                    "midi": 70,
                    "time": 13.071226000000008,
                    "velocity": 0.5118110236220472,
                    "duration": 0.11399325000000005
                },
                {
                    "name": "C#5",
                    "midi": 73,
                    "time": 13.223217000000009,
                    "velocity": 0.5433070866141733,
                    "duration": 0.30398199999999953
                },
                {
                    "name": "F#4",
                    "midi": 66,
                    "time": 13.527199000000008,
                    "velocity": 0.5118110236220472,
                    "duration": 0.11399325000000005
                },
                {
                    "name": "A#4",
                    "midi": 70,
                    "time": 13.527199000000008,
                    "velocity": 0.5118110236220472,
                    "duration": 0.11399325000000005
                },
                {
                    "name": "F#4",
                    "midi": 66,
                    "time": 13.679190000000009,
                    "velocity": 0.5433070866141733,
                    "duration": 0.30398199999999953
                },
                {
                    "name": "A#4",
                    "midi": 70,
                    "time": 13.679190000000009,
                    "velocity": 0.5433070866141733,
                    "duration": 0.30398199999999953
                },
                {
                    "name": "F4",
                    "midi": 65,
                    "time": 13.983172000000009,
                    "velocity": 0.5118110236220472,
                    "duration": 0.11399325000000005
                },
                {
                    "name": "G#4",
                    "midi": 68,
                    "time": 13.983172000000009,
                    "velocity": 0.5118110236220472,
                    "duration": 0.11399325000000005
                },
                {
                    "name": "C#5",
                    "midi": 73,
                    "time": 14.13516300000001,
                    "velocity": 0.5433070866141733,
                    "duration": 0.30398199999999953
                },
                {
                    "name": "F4",
                    "midi": 65,
                    "time": 14.439145000000009,
                    "velocity": 0.5118110236220472,
                    "duration": 0.11399325000000005
                },
                {
                    "name": "G#4",
                    "midi": 68,
                    "time": 14.439145000000009,
                    "velocity": 0.5118110236220472,
                    "duration": 0.11399325000000005
                },
                {
                    "name": "F4",
                    "midi": 65,
                    "time": 14.59113600000001,
                    "velocity": 0.5433070866141733,
                    "duration": 0.30398199999999953
                },
                {
                    "name": "G#4",
                    "midi": 68,
                    "time": 14.59113600000001,
                    "velocity": 0.5433070866141733,
                    "duration": 0.30398199999999953
                },
                {
                    "name": "A4",
                    "midi": 69,
                    "time": 14.895118000000009,
                    "velocity": 0.48031496062992124,
                    "duration": 0.15199100000000065
                },
                {
                    "name": "C4",
                    "midi": 60,
                    "time": 15.04710900000001,
                    "velocity": 0.3858267716535433,
                    "duration": 0.30398199999999953
                },
                {
                    "name": "F#4",
                    "midi": 66,
                    "time": 15.04710900000001,
                    "velocity": 0.3858267716535433,
                    "duration": 0.30398199999999953
                },
                {
                    "name": "A#4",
                    "midi": 70,
                    "time": 15.04710900000001,
                    "velocity": 0.4881889763779528,
                    "duration": 0.30398199999999953
                },
                {
                    "name": "D#4",
                    "midi": 63,
                    "time": 15.35109100000001,
                    "velocity": 0.4251968503937008,
                    "duration": 0.11399325000000005
                },
                {
                    "name": "F#4",
                    "midi": 66,
                    "time": 15.35109100000001,
                    "velocity": 0.4251968503937008,
                    "duration": 0.11399325000000005
                },
                {
                    "name": "F#4",
                    "midi": 66,
                    "time": 15.50308200000001,
                    "velocity": 0.4566929133858268,
                    "duration": 0.4559730000000002
                },
                {
                    "name": "D#4",
                    "midi": 63,
                    "time": 15.50308200000001,
                    "velocity": 0.3858267716535433,
                    "duration": 0.4559730000000002
                },
                {
                    "name": "C4",
                    "midi": 60,
                    "time": 15.50308200000001,
                    "velocity": 0.3858267716535433,
                    "duration": 0.4559730000000002
                },
                {
                    "name": "C#4",
                    "midi": 61,
                    "time": 15.95905500000001,
                    "velocity": 0.3228346456692913,
                    "duration": 0.4559730000000002
                },
                {
                    "name": "F4",
                    "midi": 65,
                    "time": 15.95905500000001,
                    "velocity": 0.3858267716535433,
                    "duration": 0.4559730000000002
                },
                {
                    "name": "C#5",
                    "midi": 73,
                    "time": 17.17498300000001,
                    "velocity": 0.33858267716535434,
                    "duration": 0.07599550000000121
                },
                {
                    "name": "F5",
                    "midi": 77,
                    "time": 17.17498300000001,
                    "velocity": 0.33858267716535434,
                    "duration": 0.07599550000000121
                },
                {
                    "name": "F4",
                    "midi": 65,
                    "time": 17.326974000000014,
                    "velocity": 0.31496062992125984,
                    "duration": 0.30398199999999775
                },
                {
                    "name": "C#5",
                    "midi": 73,
                    "time": 17.326974000000014,
                    "velocity": 0.3937007874015748,
                    "duration": 0.15199099999999888
                },
                {
                    "name": "F5",
                    "midi": 77,
                    "time": 17.326974000000014,
                    "velocity": 0.3937007874015748,
                    "duration": 0.15199099999999888
                },
                {
                    "name": "C#5",
                    "midi": 73,
                    "time": 17.478965000000013,
                    "velocity": 0.3543307086614173,
                    "duration": 0.15199099999999888
                },
                {
                    "name": "A#4",
                    "midi": 70,
                    "time": 17.478965000000013,
                    "velocity": 0.3543307086614173,
                    "duration": 0.15199099999999888
                },
                {
                    "name": "F5",
                    "midi": 77,
                    "time": 17.630956000000012,
                    "velocity": 0.3543307086614173,
                    "duration": 0.07599550000000121
                },
                {
                    "name": "C#5",
                    "midi": 73,
                    "time": 17.630956000000012,
                    "velocity": 0.3543307086614173,
                    "duration": 0.07599550000000121
                },
                {
                    "name": "F4",
                    "midi": 65,
                    "time": 17.782947000000014,
                    "velocity": 0.31496062992125984,
                    "duration": 0.30398199999999775
                },
                {
                    "name": "C#5",
                    "midi": 73,
                    "time": 17.782947000000014,
                    "velocity": 0.3937007874015748,
                    "duration": 0.15199099999999888
                },
                {
                    "name": "F5",
                    "midi": 77,
                    "time": 17.782947000000014,
                    "velocity": 0.3937007874015748,
                    "duration": 0.15199099999999888
                },
                {
                    "name": "C#5",
                    "midi": 73,
                    "time": 17.934938000000013,
                    "velocity": 0.36220472440944884,
                    "duration": 0.15199099999999888
                },
                {
                    "name": "A#4",
                    "midi": 70,
                    "time": 17.934938000000013,
                    "velocity": 0.36220472440944884,
                    "duration": 0.15199099999999888
                },
                {
                    "name": "F5",
                    "midi": 77,
                    "time": 18.086929000000012,
                    "velocity": 0.36220472440944884,
                    "duration": 0.07599550000000121
                },
                {
                    "name": "C#5",
                    "midi": 73,
                    "time": 18.086929000000012,
                    "velocity": 0.36220472440944884,
                    "duration": 0.07599550000000121
                },
                {
                    "name": "F4",
                    "midi": 65,
                    "time": 18.238920000000014,
                    "velocity": 0.31496062992125984,
                    "duration": 0.30398199999999775
                },
                {
                    "name": "C#5",
                    "midi": 73,
                    "time": 18.238920000000014,
                    "velocity": 0.3937007874015748,
                    "duration": 0.15199099999999888
                },
                {
                    "name": "F5",
                    "midi": 77,
                    "time": 18.238920000000014,
                    "velocity": 0.3937007874015748,
                    "duration": 0.15199099999999888
                },
                {
                    "name": "C#5",
                    "midi": 73,
                    "time": 18.390911000000013,
                    "velocity": 0.3543307086614173,
                    "duration": 0.15199099999999888
                },
                {
                    "name": "A#4",
                    "midi": 70,
                    "time": 18.390911000000013,
                    "velocity": 0.3543307086614173,
                    "duration": 0.15199099999999888
                },
                {
                    "name": "F5",
                    "midi": 77,
                    "time": 18.542902000000012,
                    "velocity": 0.3543307086614173,
                    "duration": 0.07599550000000121
                },
                {
                    "name": "C#5",
                    "midi": 73,
                    "time": 18.542902000000012,
                    "velocity": 0.3543307086614173,
                    "duration": 0.07599550000000121
                },
                {
                    "name": "F4",
                    "midi": 65,
                    "time": 18.694893000000015,
                    "velocity": 0.31496062992125984,
                    "duration": 0.30398199999999775
                },
                {
                    "name": "C#5",
                    "midi": 73,
                    "time": 18.694893000000015,
                    "velocity": 0.3937007874015748,
                    "duration": 0.15199099999999888
                },
                {
                    "name": "F5",
                    "midi": 77,
                    "time": 18.694893000000015,
                    "velocity": 0.3937007874015748,
                    "duration": 0.15199099999999888
                },
                {
                    "name": "C#5",
                    "midi": 73,
                    "time": 18.846884000000014,
                    "velocity": 0.36220472440944884,
                    "duration": 0.15199099999999888
                },
                {
                    "name": "A#4",
                    "midi": 70,
                    "time": 18.846884000000014,
                    "velocity": 0.36220472440944884,
                    "duration": 0.15199099999999888
                },
                {
                    "name": "F5",
                    "midi": 77,
                    "time": 18.998875000000012,
                    "velocity": 0.36220472440944884,
                    "duration": 0.07599550000000121
                },
                {
                    "name": "C#5",
                    "midi": 73,
                    "time": 18.998875000000012,
                    "velocity": 0.36220472440944884,
                    "duration": 0.07599550000000121
                },
                {
                    "name": "F#4",
                    "midi": 66,
                    "time": 19.150866000000015,
                    "velocity": 0.5590551181102362,
                    "duration": 0.7599549999999979
                },
                {
                    "name": "C#5",
                    "midi": 73,
                    "time": 19.150866000000015,
                    "velocity": 0.3937007874015748,
                    "duration": 0.15199099999999888
                },
                {
                    "name": "A#4",
                    "midi": 70,
                    "time": 19.302857000000014,
                    "velocity": 0.3543307086614173,
                    "duration": 0.15199099999999888
                },
                {
                    "name": "C#5",
                    "midi": 73,
                    "time": 19.454848000000013,
                    "velocity": 0.3543307086614173,
                    "duration": 0.07599550000000121
                },
                {
                    "name": "C#5",
                    "midi": 73,
                    "time": 19.606839000000015,
                    "velocity": 0.3937007874015748,
                    "duration": 0.15199099999999888
                },
                {
                    "name": "A#4",
                    "midi": 70,
                    "time": 19.758830000000014,
                    "velocity": 0.36220472440944884,
                    "duration": 0.15199099999999888
                },
                {
                    "name": "F4",
                    "midi": 65,
                    "time": 19.910821000000013,
                    "velocity": 0.47244094488188976,
                    "duration": 0.15199100000000243
                },
                {
                    "name": "C#5",
                    "midi": 73,
                    "time": 19.910821000000013,
                    "velocity": 0.36220472440944884,
                    "duration": 0.07599550000000121
                },
                {
                    "name": "E4",
                    "midi": 64,
                    "time": 20.062812000000015,
                    "velocity": 0.5669291338582677,
                    "duration": 0.6839595000000003
                },
                {
                    "name": "C#5",
                    "midi": 73,
                    "time": 20.062812000000015,
                    "velocity": 0.3937007874015748,
                    "duration": 0.15199099999999888
                },
                {
                    "name": "A#4",
                    "midi": 70,
                    "time": 20.214803000000014,
                    "velocity": 0.3543307086614173,
                    "duration": 0.15199099999999888
                },
                {
                    "name": "C#5",
                    "midi": 73,
                    "time": 20.366794000000013,
                    "velocity": 0.3543307086614173,
                    "duration": 0.07599550000000121
                },
                {
                    "name": "C#5",
                    "midi": 73,
                    "time": 20.518785000000015,
                    "velocity": 0.3937007874015748,
                    "duration": 0.15199099999999888
                },
                {
                    "name": "A#4",
                    "midi": 70,
                    "time": 20.670776000000014,
                    "velocity": 0.36220472440944884,
                    "duration": 0.15199100000000243
                },
                {
                    "name": "C#5",
                    "midi": 73,
                    "time": 20.822767000000017,
                    "velocity": 0.48031496062992124,
                    "duration": 0.07599550000000121
                },
                {
                    "name": "E4",
                    "midi": 64,
                    "time": 20.822767000000017,
                    "velocity": 0.47244094488188976,
                    "duration": 0.15199100000000243
                },
                {
                    "name": "F4",
                    "midi": 65,
                    "time": 20.97475800000002,
                    "velocity": 0.5905511811023622,
                    "duration": 0.6079640000000062
                },
                {
                    "name": "C4",
                    "midi": 60,
                    "time": 21.126749000000018,
                    "velocity": 0.4251968503937008,
                    "duration": 0.07599550000000121
                },
                {
                    "name": "D#4",
                    "midi": 63,
                    "time": 21.126749000000018,
                    "velocity": 0.4251968503937008,
                    "duration": 0.07599550000000121
                },
                {
                    "name": "C4",
                    "midi": 60,
                    "time": 21.27874000000002,
                    "velocity": 0.4251968503937008,
                    "duration": 0.07599550000000121
                },
                {
                    "name": "D#4",
                    "midi": 63,
                    "time": 21.27874000000002,
                    "velocity": 0.4251968503937008,
                    "duration": 0.07599550000000121
                },
                {
                    "name": "C4",
                    "midi": 60,
                    "time": 21.430731000000023,
                    "velocity": 0.4251968503937008,
                    "duration": 0.07599550000000121
                },
                {
                    "name": "D#4",
                    "midi": 63,
                    "time": 21.430731000000023,
                    "velocity": 0.4251968503937008,
                    "duration": 0.07599550000000121
                },
                {
                    "name": "A#3",
                    "midi": 58,
                    "time": 21.582722000000025,
                    "velocity": 0.4251968503937008,
                    "duration": 0.07599550000000121
                },
                {
                    "name": "G4",
                    "midi": 67,
                    "time": 21.582722000000025,
                    "velocity": 0.4409448818897638,
                    "duration": 0.07599550000000121
                },
                {
                    "name": "C4",
                    "midi": 60,
                    "time": 21.734713000000028,
                    "velocity": 0.4251968503937008,
                    "duration": 0.07599550000000121
                },
                {
                    "name": "A4",
                    "midi": 69,
                    "time": 21.734713000000028,
                    "velocity": 0.48031496062992124,
                    "duration": 0.07599550000000121
                },
                {
                    "name": "C5",
                    "midi": 72,
                    "time": 21.81070850000003,
                    "velocity": 0.5039370078740157,
                    "duration": 0.07599550000000121
                },
                {
                    "name": "C#4",
                    "midi": 61,
                    "time": 21.88670400000003,
                    "velocity": 0.48031496062992124,
                    "duration": 0.07599550000000121
                },
                {
                    "name": "A#4",
                    "midi": 70,
                    "time": 21.88670400000003,
                    "velocity": 0.5748031496062992,
                    "duration": 0.07599550000000121
                },
                {
                    "name": "C4",
                    "midi": 60,
                    "time": 22.038695000000033,
                    "velocity": 0.4251968503937008,
                    "duration": 0.07599550000000121
                },
                {
                    "name": "A4",
                    "midi": 69,
                    "time": 22.038695000000033,
                    "velocity": 0.49606299212598426,
                    "duration": 0.07599550000000121
                },
                {
                    "name": "C#4",
                    "midi": 61,
                    "time": 22.190686000000035,
                    "velocity": 0.41732283464566927,
                    "duration": 0.07599550000000121
                },
                {
                    "name": "A#4",
                    "midi": 70,
                    "time": 22.190686000000035,
                    "velocity": 0.49606299212598426,
                    "duration": 0.07599550000000121
                },
                {
                    "name": "F4",
                    "midi": 65,
                    "time": 22.342677000000037,
                    "velocity": 0.47244094488188976,
                    "duration": 0.07599550000000121
                },
                {
                    "name": "C#5",
                    "midi": 73,
                    "time": 22.342677000000037,
                    "velocity": 0.5590551181102362,
                    "duration": 0.07599550000000121
                },
                {
                    "name": "D#4",
                    "midi": 63,
                    "time": 22.49466800000004,
                    "velocity": 0.41732283464566927,
                    "duration": 0.07599550000000121
                },
                {
                    "name": "C5",
                    "midi": 72,
                    "time": 22.49466800000004,
                    "velocity": 0.49606299212598426,
                    "duration": 0.07599550000000121
                },
                {
                    "name": "C#4",
                    "midi": 61,
                    "time": 22.646659000000042,
                    "velocity": 0.4566929133858268,
                    "duration": 0.07599550000000121
                },
                {
                    "name": "A#4",
                    "midi": 70,
                    "time": 22.646659000000042,
                    "velocity": 0.5511811023622047,
                    "duration": 0.07599550000000121
                },
                {
                    "name": "C#4",
                    "midi": 61,
                    "time": 22.798650000000045,
                    "velocity": 0.5511811023622047,
                    "duration": 0.9119460000000004
                },
                {
                    "name": "A#4",
                    "midi": 70,
                    "time": 22.798650000000045,
                    "velocity": 0.6456692913385826,
                    "duration": 0.9119460000000004
                },
                {
                    "name": "E4",
                    "midi": 64,
                    "time": 23.254623000000045,
                    "velocity": 0.5196850393700787,
                    "duration": 0.4559730000000002
                },
                {
                    "name": "C4",
                    "midi": 60,
                    "time": 23.710596000000045,
                    "velocity": 0.5275590551181102,
                    "duration": 0.4559730000000002
                },
                {
                    "name": "F4",
                    "midi": 65,
                    "time": 23.710596000000045,
                    "velocity": 0.5275590551181102,
                    "duration": 0.4559730000000002
                },
                {
                    "name": "A4",
                    "midi": 69,
                    "time": 23.710596000000045,
                    "velocity": 0.6299212598425197,
                    "duration": 0.4559730000000002
                },
                {
                    "name": "C#5",
                    "midi": 73,
                    "time": 24.470551000000047,
                    "velocity": 0.33858267716535434,
                    "duration": 0.07599550000000121
                },
                {
                    "name": "F5",
                    "midi": 77,
                    "time": 24.470551000000047,
                    "velocity": 0.33858267716535434,
                    "duration": 0.07599550000000121
                },
                {
                    "name": "F4",
                    "midi": 65,
                    "time": 24.62254200000005,
                    "velocity": 0.31496062992125984,
                    "duration": 0.30398199999999775
                },
                {
                    "name": "C#5",
                    "midi": 73,
                    "time": 24.62254200000005,
                    "velocity": 0.3937007874015748,
                    "duration": 0.15199099999999888
                },
                {
                    "name": "F5",
                    "midi": 77,
                    "time": 24.62254200000005,
                    "velocity": 0.3937007874015748,
                    "duration": 0.15199099999999888
                },
                {
                    "name": "C#5",
                    "midi": 73,
                    "time": 24.774533000000048,
                    "velocity": 0.3543307086614173,
                    "duration": 0.15199099999999888
                },
                {
                    "name": "A#4",
                    "midi": 70,
                    "time": 24.774533000000048,
                    "velocity": 0.3543307086614173,
                    "duration": 0.15199099999999888
                },
                {
                    "name": "F5",
                    "midi": 77,
                    "time": 24.926524000000047,
                    "velocity": 0.3543307086614173,
                    "duration": 0.07599550000000121
                },
                {
                    "name": "C#5",
                    "midi": 73,
                    "time": 24.926524000000047,
                    "velocity": 0.3543307086614173,
                    "duration": 0.07599550000000121
                },
                {
                    "name": "F4",
                    "midi": 65,
                    "time": 25.07851500000005,
                    "velocity": 0.3228346456692913,
                    "duration": 0.30398199999999775
                },
                {
                    "name": "C#5",
                    "midi": 73,
                    "time": 25.07851500000005,
                    "velocity": 0.4015748031496063,
                    "duration": 0.15199099999999888
                },
                {
                    "name": "F5",
                    "midi": 77,
                    "time": 25.07851500000005,
                    "velocity": 0.4015748031496063,
                    "duration": 0.15199099999999888
                },
                {
                    "name": "C#5",
                    "midi": 73,
                    "time": 25.230506000000048,
                    "velocity": 0.3779527559055118,
                    "duration": 0.15199099999999888
                },
                {
                    "name": "A#4",
                    "midi": 70,
                    "time": 25.230506000000048,
                    "velocity": 0.3779527559055118,
                    "duration": 0.15199099999999888
                },
                {
                    "name": "F5",
                    "midi": 77,
                    "time": 25.382497000000047,
                    "velocity": 0.3779527559055118,
                    "duration": 0.07599550000000121
                },
                {
                    "name": "C#5",
                    "midi": 73,
                    "time": 25.382497000000047,
                    "velocity": 0.3779527559055118,
                    "duration": 0.07599550000000121
                },
                {
                    "name": "F4",
                    "midi": 65,
                    "time": 25.53448800000005,
                    "velocity": 0.33070866141732286,
                    "duration": 0.30398199999999775
                },
                {
                    "name": "C#5",
                    "midi": 73,
                    "time": 25.53448800000005,
                    "velocity": 0.41732283464566927,
                    "duration": 0.15199099999999888
                },
                {
                    "name": "F5",
                    "midi": 77,
                    "time": 25.53448800000005,
                    "velocity": 0.41732283464566927,
                    "duration": 0.15199099999999888
                },
                {
                    "name": "C#5",
                    "midi": 73,
                    "time": 25.68647900000005,
                    "velocity": 0.3937007874015748,
                    "duration": 0.15199099999999888
                },
                {
                    "name": "A#4",
                    "midi": 70,
                    "time": 25.68647900000005,
                    "velocity": 0.3937007874015748,
                    "duration": 0.15199099999999888
                },
                {
                    "name": "F5",
                    "midi": 77,
                    "time": 25.838470000000047,
                    "velocity": 0.4330708661417323,
                    "duration": 0.07599550000000121
                },
                {
                    "name": "C#5",
                    "midi": 73,
                    "time": 25.838470000000047,
                    "velocity": 0.4330708661417323,
                    "duration": 0.07599550000000121
                },
                {
                    "name": "F4",
                    "midi": 65,
                    "time": 25.99046100000005,
                    "velocity": 0.41732283464566927,
                    "duration": 0.30398199999999775
                },
                {
                    "name": "C#5",
                    "midi": 73,
                    "time": 25.99046100000005,
                    "velocity": 0.5196850393700787,
                    "duration": 0.15199099999999888
                },
                {
                    "name": "F5",
                    "midi": 77,
                    "time": 25.99046100000005,
                    "velocity": 0.5196850393700787,
                    "duration": 0.15199099999999888
                },
                {
                    "name": "C#5",
                    "midi": 73,
                    "time": 26.14245200000005,
                    "velocity": 0.49606299212598426,
                    "duration": 0.15199099999999888
                },
                {
                    "name": "A#4",
                    "midi": 70,
                    "time": 26.14245200000005,
                    "velocity": 0.49606299212598426,
                    "duration": 0.15199099999999888
                },
                {
                    "name": "F5",
                    "midi": 77,
                    "time": 26.294443000000047,
                    "velocity": 0.5354330708661418,
                    "duration": 0.07599550000000121
                },
                {
                    "name": "C#5",
                    "midi": 73,
                    "time": 26.294443000000047,
                    "velocity": 0.5354330708661418,
                    "duration": 0.07599550000000121
                },
                {
                    "name": "G#4",
                    "midi": 68,
                    "time": 26.44643400000005,
                    "velocity": 0.4566929133858268,
                    "duration": 0.4559730000000002
                },
                {
                    "name": "F5",
                    "midi": 77,
                    "time": 26.44643400000005,
                    "velocity": 0.5196850393700787,
                    "duration": 0.4559730000000002
                },
                {
                    "name": "G#5",
                    "midi": 80,
                    "time": 26.44643400000005,
                    "velocity": 0.6456692913385826,
                    "duration": 0.4559730000000002
                },
                {
                    "name": "F#4",
                    "midi": 66,
                    "time": 26.90240700000005,
                    "velocity": 0.4409448818897638,
                    "duration": 0.3039820000000013
                },
                {
                    "name": "D#5",
                    "midi": 75,
                    "time": 26.90240700000005,
                    "velocity": 0.4409448818897638,
                    "duration": 0.3039820000000013
                },
                {
                    "name": "F#5",
                    "midi": 78,
                    "time": 26.90240700000005,
                    "velocity": 0.5196850393700787,
                    "duration": 0.3039820000000013
                },
                {
                    "name": "F4",
                    "midi": 65,
                    "time": 27.20638900000005,
                    "velocity": 0.4409448818897638,
                    "duration": 0.07599550000000121
                },
                {
                    "name": "C#5",
                    "midi": 73,
                    "time": 27.20638900000005,
                    "velocity": 0.4409448818897638,
                    "duration": 0.07599550000000121
                },
                {
                    "name": "F5",
                    "midi": 77,
                    "time": 27.20638900000005,
                    "velocity": 0.5196850393700787,
                    "duration": 0.07599550000000121
                },
                {
                    "name": "F4",
                    "midi": 65,
                    "time": 27.358380000000054,
                    "velocity": 0.4566929133858268,
                    "duration": 0.4559730000000002
                },
                {
                    "name": "C#5",
                    "midi": 73,
                    "time": 27.358380000000054,
                    "velocity": 0.5275590551181102,
                    "duration": 0.4559730000000002
                },
                {
                    "name": "F5",
                    "midi": 77,
                    "time": 27.358380000000054,
                    "velocity": 0.6456692913385826,
                    "duration": 0.4559730000000002
                },
                {
                    "name": "D#4",
                    "midi": 63,
                    "time": 27.814353000000054,
                    "velocity": 0.4409448818897638,
                    "duration": 0.3039820000000013
                },
                {
                    "name": "C5",
                    "midi": 72,
                    "time": 27.814353000000054,
                    "velocity": 0.4409448818897638,
                    "duration": 0.3039820000000013
                },
                {
                    "name": "D#5",
                    "midi": 75,
                    "time": 27.814353000000054,
                    "velocity": 0.5196850393700787,
                    "duration": 0.3039820000000013
                },
                {
                    "name": "F4",
                    "midi": 65,
                    "time": 28.270326000000054,
                    "velocity": 0.4566929133858268,
                    "duration": 0.4559730000000002
                },
                {
                    "name": "G#4",
                    "midi": 68,
                    "time": 28.270326000000054,
                    "velocity": 0.5196850393700787,
                    "duration": 0.9119460000000004
                },
                {
                    "name": "F5",
                    "midi": 77,
                    "time": 28.270326000000054,
                    "velocity": 0.6456692913385826,
                    "duration": 0.4559730000000002
                },
                {
                    "name": "C#5",
                    "midi": 73,
                    "time": 28.726299000000054,
                    "velocity": 0.5433070866141733,
                    "duration": 0.3039820000000013
                },
                {
                    "name": "C5",
                    "midi": 72,
                    "time": 29.030281000000056,
                    "velocity": 0.5118110236220472,
                    "duration": 0.11399325000000005
                },
                {
                    "name": "G#4",
                    "midi": 68,
                    "time": 29.182272000000054,
                    "velocity": 0.5433070866141733,
                    "duration": 0.3039820000000013
                },
                {
                    "name": "C5",
                    "midi": 72,
                    "time": 29.182272000000054,
                    "velocity": 0.5433070866141733,
                    "duration": 0.3039820000000013
                },
                {
                    "name": "F#4",
                    "midi": 66,
                    "time": 29.486254000000056,
                    "velocity": 0.5118110236220472,
                    "duration": 0.11399325000000005
                },
                {
                    "name": "A#4",
                    "midi": 70,
                    "time": 29.486254000000056,
                    "velocity": 0.5118110236220472,
                    "duration": 0.11399325000000005
                },
                {
                    "name": "C#5",
                    "midi": 73,
                    "time": 29.638245000000055,
                    "velocity": 0.5433070866141733,
                    "duration": 0.3039820000000013
                },
                {
                    "name": "F#4",
                    "midi": 66,
                    "time": 29.942227000000056,
                    "velocity": 0.5118110236220472,
                    "duration": 0.11399325000000005
                },
                {
                    "name": "A#4",
                    "midi": 70,
                    "time": 29.942227000000056,
                    "velocity": 0.5118110236220472,
                    "duration": 0.11399325000000005
                },
                {
                    "name": "F#4",
                    "midi": 66,
                    "time": 30.094218000000055,
                    "velocity": 0.5433070866141733,
                    "duration": 0.3039820000000013
                },
                {
                    "name": "A#4",
                    "midi": 70,
                    "time": 30.094218000000055,
                    "velocity": 0.5433070866141733,
                    "duration": 0.3039820000000013
                },
                {
                    "name": "F4",
                    "midi": 65,
                    "time": 30.398200000000056,
                    "velocity": 0.5118110236220472,
                    "duration": 0.11399325000000005
                },
                {
                    "name": "G#4",
                    "midi": 68,
                    "time": 30.398200000000056,
                    "velocity": 0.5118110236220472,
                    "duration": 0.11399325000000005
                },
                {
                    "name": "C#5",
                    "midi": 73,
                    "time": 30.550191000000055,
                    "velocity": 0.5433070866141733,
                    "duration": 0.3039820000000013
                },
                {
                    "name": "F4",
                    "midi": 65,
                    "time": 30.854173000000056,
                    "velocity": 0.5118110236220472,
                    "duration": 0.11399325000000005
                },
                {
                    "name": "G#4",
                    "midi": 68,
                    "time": 30.854173000000056,
                    "velocity": 0.5118110236220472,
                    "duration": 0.11399325000000005
                },
                {
                    "name": "F4",
                    "midi": 65,
                    "time": 31.006164000000055,
                    "velocity": 0.5433070866141733,
                    "duration": 0.3039820000000013
                },
                {
                    "name": "G#4",
                    "midi": 68,
                    "time": 31.006164000000055,
                    "velocity": 0.5433070866141733,
                    "duration": 0.3039820000000013
                },
                {
                    "name": "A4",
                    "midi": 69,
                    "time": 31.310146000000056,
                    "velocity": 0.48031496062992124,
                    "duration": 0.15199099999999888
                },
                {
                    "name": "C4",
                    "midi": 60,
                    "time": 31.462137000000055,
                    "velocity": 0.3858267716535433,
                    "duration": 0.3039820000000013
                },
                {
                    "name": "F#4",
                    "midi": 66,
                    "time": 31.462137000000055,
                    "velocity": 0.3858267716535433,
                    "duration": 0.3039820000000013
                },
                {
                    "name": "A#4",
                    "midi": 70,
                    "time": 31.462137000000055,
                    "velocity": 0.4881889763779528,
                    "duration": 0.3039820000000013
                },
                {
                    "name": "D#4",
                    "midi": 63,
                    "time": 31.766119000000057,
                    "velocity": 0.4251968503937008,
                    "duration": 0.11399325000000005
                },
                {
                    "name": "F#4",
                    "midi": 66,
                    "time": 31.766119000000057,
                    "velocity": 0.4251968503937008,
                    "duration": 0.11399325000000005
                },
                {
                    "name": "F#4",
                    "midi": 66,
                    "time": 31.918110000000055,
                    "velocity": 0.4566929133858268,
                    "duration": 0.4559730000000002
                },
                {
                    "name": "D#4",
                    "midi": 63,
                    "time": 31.918110000000055,
                    "velocity": 0.3858267716535433,
                    "duration": 0.4559730000000002
                },
                {
                    "name": "C4",
                    "midi": 60,
                    "time": 31.918110000000055,
                    "velocity": 0.3858267716535433,
                    "duration": 0.4559730000000002
                },
                {
                    "name": "C#4",
                    "midi": 61,
                    "time": 32.374083000000056,
                    "velocity": 0.3228346456692913,
                    "duration": 0.4559730000000002
                },
                {
                    "name": "F4",
                    "midi": 65,
                    "time": 32.374083000000056,
                    "velocity": 0.3858267716535433,
                    "duration": 0.4559730000000002
                },
                {
                    "name": "D#4",
                    "midi": 63,
                    "time": 33.590011000000054,
                    "velocity": 0.33858267716535434,
                    "duration": 0.07599549999999766
                },
                {
                    "name": "F4",
                    "midi": 65,
                    "time": 33.590011000000054,
                    "velocity": 0.33858267716535434,
                    "duration": 0.07599549999999766
                },
                {
                    "name": "D4",
                    "midi": 62,
                    "time": 33.74200200000005,
                    "velocity": 0.3937007874015748,
                    "duration": 0.15199100000000243
                },
                {
                    "name": "F4",
                    "midi": 65,
                    "time": 33.74200200000005,
                    "velocity": 0.3937007874015748,
                    "duration": 0.15199100000000243
                },
                {
                    "name": "A#4",
                    "midi": 70,
                    "time": 33.89399300000005,
                    "velocity": 0.3543307086614173,
                    "duration": 0.15199100000000243
                },
                {
                    "name": "A#3",
                    "midi": 58,
                    "time": 33.89399300000005,
                    "velocity": 0.3543307086614173,
                    "duration": 0.15199100000000243
                },
                {
                    "name": "F4",
                    "midi": 65,
                    "time": 34.045984000000054,
                    "velocity": 0.3543307086614173,
                    "duration": 0.07599549999999766
                },
                {
                    "name": "D4",
                    "midi": 62,
                    "time": 34.045984000000054,
                    "velocity": 0.3543307086614173,
                    "duration": 0.07599549999999766
                },
                {
                    "name": "D4",
                    "midi": 62,
                    "time": 34.19797500000005,
                    "velocity": 0.3937007874015748,
                    "duration": 0.15199100000000243
                },
                {
                    "name": "F4",
                    "midi": 65,
                    "time": 34.19797500000005,
                    "velocity": 0.3937007874015748,
                    "duration": 0.15199100000000243
                },
                {
                    "name": "A#4",
                    "midi": 70,
                    "time": 34.34996600000005,
                    "velocity": 0.36220472440944884,
                    "duration": 0.15199100000000243
                },
                {
                    "name": "A#3",
                    "midi": 58,
                    "time": 34.34996600000005,
                    "velocity": 0.36220472440944884,
                    "duration": 0.15199100000000243
                },
                {
                    "name": "F4",
                    "midi": 65,
                    "time": 34.501957000000054,
                    "velocity": 0.36220472440944884,
                    "duration": 0.07599549999999766
                },
                {
                    "name": "D4",
                    "midi": 62,
                    "time": 34.501957000000054,
                    "velocity": 0.36220472440944884,
                    "duration": 0.07599549999999766
                },
                {
                    "name": "A#3",
                    "midi": 58,
                    "time": 34.65394800000005,
                    "velocity": 0.36220472440944884,
                    "duration": 0.4559730000000002
                },
                {
                    "name": "F4",
                    "midi": 65,
                    "time": 34.65394800000005,
                    "velocity": 0.36220472440944884,
                    "duration": 0.4559730000000002
                },
                {
                    "name": "G#4",
                    "midi": 68,
                    "time": 34.65394800000005,
                    "velocity": 0.36220472440944884,
                    "duration": 0.4559730000000002
                },
                {
                    "name": "D#4",
                    "midi": 63,
                    "time": 35.10992100000005,
                    "velocity": 0.36220472440944884,
                    "duration": 0.15199100000000243
                },
                {
                    "name": "F#4",
                    "midi": 66,
                    "time": 35.10992100000005,
                    "velocity": 0.36220472440944884,
                    "duration": 0.15199100000000243
                },
                {
                    "name": "D#4",
                    "midi": 63,
                    "time": 35.413903000000055,
                    "velocity": 0.33858267716535434,
                    "duration": 0.07599549999999766
                },
                {
                    "name": "F#4",
                    "midi": 66,
                    "time": 35.413903000000055,
                    "velocity": 0.33858267716535434,
                    "duration": 0.07599549999999766
                },
                {
                    "name": "D4",
                    "midi": 62,
                    "time": 35.56589400000005,
                    "velocity": 0.3937007874015748,
                    "duration": 0.15199100000000243
                },
                {
                    "name": "F4",
                    "midi": 65,
                    "time": 35.56589400000005,
                    "velocity": 0.3937007874015748,
                    "duration": 0.15199100000000243
                },
                {
                    "name": "A#4",
                    "midi": 70,
                    "time": 35.71788500000005,
                    "velocity": 0.3543307086614173,
                    "duration": 0.15199100000000243
                },
                {
                    "name": "A#3",
                    "midi": 58,
                    "time": 35.71788500000005,
                    "velocity": 0.3543307086614173,
                    "duration": 0.15199100000000243
                },
                {
                    "name": "F4",
                    "midi": 65,
                    "time": 35.869876000000055,
                    "velocity": 0.3543307086614173,
                    "duration": 0.07599549999999766
                },
                {
                    "name": "D4",
                    "midi": 62,
                    "time": 35.869876000000055,
                    "velocity": 0.3543307086614173,
                    "duration": 0.07599549999999766
                },
                {
                    "name": "D4",
                    "midi": 62,
                    "time": 36.02186700000005,
                    "velocity": 0.3937007874015748,
                    "duration": 0.15199100000000243
                },
                {
                    "name": "F4",
                    "midi": 65,
                    "time": 36.02186700000005,
                    "velocity": 0.3937007874015748,
                    "duration": 0.15199100000000243
                },
                {
                    "name": "A#4",
                    "midi": 70,
                    "time": 36.17385800000005,
                    "velocity": 0.36220472440944884,
                    "duration": 0.15199100000000243
                },
                {
                    "name": "A#3",
                    "midi": 58,
                    "time": 36.17385800000005,
                    "velocity": 0.36220472440944884,
                    "duration": 0.15199100000000243
                },
                {
                    "name": "F4",
                    "midi": 65,
                    "time": 36.325849000000055,
                    "velocity": 0.36220472440944884,
                    "duration": 0.07599549999999766
                },
                {
                    "name": "D4",
                    "midi": 62,
                    "time": 36.325849000000055,
                    "velocity": 0.36220472440944884,
                    "duration": 0.07599549999999766
                },
                {
                    "name": "A#3",
                    "midi": 58,
                    "time": 36.47784000000005,
                    "velocity": 0.36220472440944884,
                    "duration": 0.4559730000000002
                },
                {
                    "name": "F4",
                    "midi": 65,
                    "time": 36.47784000000005,
                    "velocity": 0.36220472440944884,
                    "duration": 0.4559730000000002
                },
                {
                    "name": "G#4",
                    "midi": 68,
                    "time": 36.47784000000005,
                    "velocity": 0.36220472440944884,
                    "duration": 0.4559730000000002
                },
                {
                    "name": "D#4",
                    "midi": 63,
                    "time": 36.93381300000005,
                    "velocity": 0.36220472440944884,
                    "duration": 0.15199100000000243
                },
                {
                    "name": "F#4",
                    "midi": 66,
                    "time": 36.93381300000005,
                    "velocity": 0.36220472440944884,
                    "duration": 0.15199100000000243
                },
                {
                    "name": "F#4",
                    "midi": 66,
                    "time": 37.237795000000055,
                    "velocity": 0.3858267716535433,
                    "duration": 0.07599549999999766
                },
                {
                    "name": "D#4",
                    "midi": 63,
                    "time": 37.237795000000055,
                    "velocity": 0.3858267716535433,
                    "duration": 0.07599549999999766
                },
                {
                    "name": "A#4",
                    "midi": 70,
                    "time": 37.237795000000055,
                    "velocity": 0.3858267716535433,
                    "duration": 0.07599549999999766
                },
                {
                    "name": "F4",
                    "midi": 65,
                    "time": 37.38978600000005,
                    "velocity": 0.44881889763779526,
                    "duration": 0.15199100000000243
                },
                {
                    "name": "G#4",
                    "midi": 68,
                    "time": 37.38978600000005,
                    "velocity": 0.44881889763779526,
                    "duration": 0.15199100000000243
                },
                {
                    "name": "C#5",
                    "midi": 73,
                    "time": 37.54177700000005,
                    "velocity": 0.4015748031496063,
                    "duration": 0.15199100000000243
                },
                {
                    "name": "C#4",
                    "midi": 61,
                    "time": 37.54177700000005,
                    "velocity": 0.4015748031496063,
                    "duration": 0.15199100000000243
                },
                {
                    "name": "G#4",
                    "midi": 68,
                    "time": 37.693768000000055,
                    "velocity": 0.4015748031496063,
                    "duration": 0.07599549999999766
                },
                {
                    "name": "F4",
                    "midi": 65,
                    "time": 37.693768000000055,
                    "velocity": 0.4015748031496063,
                    "duration": 0.07599549999999766
                },
                {
                    "name": "F4",
                    "midi": 65,
                    "time": 37.84575900000005,
                    "velocity": 0.4566929133858268,
                    "duration": 0.15199100000000243
                },
                {
                    "name": "G#4",
                    "midi": 68,
                    "time": 37.84575900000005,
                    "velocity": 0.4566929133858268,
                    "duration": 0.15199100000000243
                },
                {
                    "name": "C#5",
                    "midi": 73,
                    "time": 37.99775000000005,
                    "velocity": 0.41732283464566927,
                    "duration": 0.15199100000000243
                },
                {
                    "name": "C#4",
                    "midi": 61,
                    "time": 37.99775000000005,
                    "velocity": 0.41732283464566927,
                    "duration": 0.15199100000000243
                },
                {
                    "name": "G#4",
                    "midi": 68,
                    "time": 38.149741000000056,
                    "velocity": 0.41732283464566927,
                    "duration": 0.07599549999999766
                },
                {
                    "name": "F4",
                    "midi": 65,
                    "time": 38.149741000000056,
                    "velocity": 0.41732283464566927,
                    "duration": 0.07599549999999766
                },
                {
                    "name": "F4",
                    "midi": 65,
                    "time": 38.30173200000005,
                    "velocity": 0.4251968503937008,
                    "duration": 0.4559730000000002
                },
                {
                    "name": "C#4",
                    "midi": 61,
                    "time": 38.30173200000005,
                    "velocity": 0.4251968503937008,
                    "duration": 0.4559730000000002
                },
                {
                    "name": "G#4",
                    "midi": 68,
                    "time": 38.30173200000005,
                    "velocity": 0.4251968503937008,
                    "duration": 0.4559730000000002
                },
                {
                    "name": "B4",
                    "midi": 71,
                    "time": 38.30173200000005,
                    "velocity": 0.4251968503937008,
                    "duration": 0.4559730000000002
                },
                {
                    "name": "F#4",
                    "midi": 66,
                    "time": 38.75770500000005,
                    "velocity": 0.4251968503937008,
                    "duration": 0.15199100000000243
                },
                {
                    "name": "A#4",
                    "midi": 70,
                    "time": 38.75770500000005,
                    "velocity": 0.4251968503937008,
                    "duration": 0.15199100000000243
                },
                {
                    "name": "F#4",
                    "midi": 66,
                    "time": 39.061687000000056,
                    "velocity": 0.4645669291338583,
                    "duration": 0.07599549999999766
                },
                {
                    "name": "A#4",
                    "midi": 70,
                    "time": 39.061687000000056,
                    "velocity": 0.4645669291338583,
                    "duration": 0.07599549999999766
                },
                {
                    "name": "F4",
                    "midi": 65,
                    "time": 39.21367800000005,
                    "velocity": 0.5433070866141733,
                    "duration": 0.15199100000000243
                },
                {
                    "name": "G#4",
                    "midi": 68,
                    "time": 39.21367800000005,
                    "velocity": 0.5433070866141733,
                    "duration": 0.15199100000000243
                },
                {
                    "name": "C#5",
                    "midi": 73,
                    "time": 39.365669000000054,
                    "velocity": 0.4881889763779528,
                    "duration": 0.15199100000000243
                },
                {
                    "name": "C#4",
                    "midi": 61,
                    "time": 39.365669000000054,
                    "velocity": 0.4881889763779528,
                    "duration": 0.15199100000000243
                },
                {
                    "name": "G#4",
                    "midi": 68,
                    "time": 39.517660000000056,
                    "velocity": 0.49606299212598426,
                    "duration": 0.07599549999999766
                },
                {
                    "name": "F4",
                    "midi": 65,
                    "time": 39.517660000000056,
                    "velocity": 0.49606299212598426,
                    "duration": 0.07599549999999766
                },
                {
                    "name": "F4",
                    "midi": 65,
                    "time": 39.66965100000005,
                    "velocity": 0.5826771653543307,
                    "duration": 0.15199100000000243
                },
                {
                    "name": "G#4",
                    "midi": 68,
                    "time": 39.66965100000005,
                    "velocity": 0.5826771653543307,
                    "duration": 0.15199100000000243
                },
                {
                    "name": "C#5",
                    "midi": 73,
                    "time": 39.821642000000054,
                    "velocity": 0.5354330708661418,
                    "duration": 0.15199100000000243
                },
                {
                    "name": "C#4",
                    "midi": 61,
                    "time": 39.821642000000054,
                    "velocity": 0.5354330708661418,
                    "duration": 0.15199100000000243
                },
                {
                    "name": "G#4",
                    "midi": 68,
                    "time": 39.973633000000056,
                    "velocity": 0.5433070866141733,
                    "duration": 0.07599549999999766
                },
                {
                    "name": "F4",
                    "midi": 65,
                    "time": 39.973633000000056,
                    "velocity": 0.5433070866141733,
                    "duration": 0.07599549999999766
                },
                {
                    "name": "F4",
                    "midi": 65,
                    "time": 40.12562400000005,
                    "velocity": 0.5590551181102362,
                    "duration": 0.4559730000000002
                },
                {
                    "name": "D4",
                    "midi": 62,
                    "time": 40.12562400000005,
                    "velocity": 0.5590551181102362,
                    "duration": 0.4559730000000002
                },
                {
                    "name": "G#4",
                    "midi": 68,
                    "time": 40.12562400000005,
                    "velocity": 0.5590551181102362,
                    "duration": 0.4559730000000002
                },
                {
                    "name": "B4",
                    "midi": 71,
                    "time": 40.12562400000005,
                    "velocity": 0.5590551181102362,
                    "duration": 0.4559730000000002
                },
                {
                    "name": "D#4",
                    "midi": 63,
                    "time": 40.58159700000005,
                    "velocity": 0.5905511811023622,
                    "duration": 0.15199100000000243
                },
                {
                    "name": "F#4",
                    "midi": 66,
                    "time": 40.58159700000005,
                    "velocity": 0.5905511811023622,
                    "duration": 0.15199100000000243
                },
                {
                    "name": "A#4",
                    "midi": 70,
                    "time": 40.58159700000005,
                    "velocity": 0.5905511811023622,
                    "duration": 0.15199100000000243
                },
                {
                    "name": "F4",
                    "midi": 65,
                    "time": 41.03757000000005,
                    "velocity": 0.6141732283464567,
                    "duration": 0.4521732250000028
                },
                {
                    "name": "C5",
                    "midi": 72,
                    "time": 41.03757000000005,
                    "velocity": 0.6141732283464567,
                    "duration": 0.4521732250000028
                },
                {
                    "name": "F5",
                    "midi": 77,
                    "time": 41.03757000000005,
                    "velocity": 0.7244094488188977,
                    "duration": 0.4521732250000028
                },
                {
                    "name": "C5",
                    "midi": 72,
                    "time": 41.49354300000005,
                    "velocity": 0.6377952755905512,
                    "duration": 0.30398199999999775
                },
                {
                    "name": "A4",
                    "midi": 69,
                    "time": 41.49354300000005,
                    "velocity": 0.5433070866141733,
                    "duration": 0.30398199999999775
                },
                {
                    "name": "C5",
                    "midi": 72,
                    "time": 41.79752500000005,
                    "velocity": 0.6062992125984252,
                    "duration": 0.07599549999999766
                },
                {
                    "name": "A4",
                    "midi": 69,
                    "time": 41.79752500000005,
                    "velocity": 0.5039370078740157,
                    "duration": 0.07599549999999766
                },
                {
                    "name": "F4",
                    "midi": 65,
                    "time": 41.79752500000005,
                    "velocity": 0.5039370078740157,
                    "duration": 0.07599549999999766
                },
                {
                    "name": "F#4",
                    "midi": 66,
                    "time": 41.949516000000045,
                    "velocity": 0.6141732283464567,
                    "duration": 0.30398199999999775
                },
                {
                    "name": "C5",
                    "midi": 72,
                    "time": 41.949516000000045,
                    "velocity": 0.6141732283464567,
                    "duration": 0.30398199999999775
                },
                {
                    "name": "D#5",
                    "midi": 75,
                    "time": 41.949516000000045,
                    "velocity": 0.7244094488188977,
                    "duration": 0.30398199999999775
                },
                {
                    "name": "C#5",
                    "midi": 73,
                    "time": 42.25349800000004,
                    "velocity": 0.6299212598425197,
                    "duration": 0.15199100000000243
                },
                {
                    "name": "A#4",
                    "midi": 70,
                    "time": 42.25349800000004,
                    "velocity": 0.5275590551181102,
                    "duration": 0.15199100000000243
                },
                {
                    "name": "E4",
                    "midi": 64,
                    "time": 42.25349800000004,
                    "velocity": 0.5275590551181102,
                    "duration": 0.15199100000000243
                },
                {
                    "name": "C5",
                    "midi": 72,
                    "time": 42.405489000000046,
                    "velocity": 0.6220472440944882,
                    "duration": 0.4559730000000002
                },
                {
                    "name": "A4",
                    "midi": 69,
                    "time": 42.405489000000046,
                    "velocity": 0.5196850393700787,
                    "duration": 0.4559730000000002
                },
                {
                    "name": "F4",
                    "midi": 65,
                    "time": 42.405489000000046,
                    "velocity": 0.5196850393700787,
                    "duration": 0.4559730000000002
                },
                {
                    "name": "F4",
                    "midi": 65,
                    "time": 42.861462000000046,
                    "velocity": 0.6141732283464567,
                    "duration": 0.4521732250000028
                },
                {
                    "name": "C5",
                    "midi": 72,
                    "time": 42.861462000000046,
                    "velocity": 0.6141732283464567,
                    "duration": 0.4521732250000028
                },
                {
                    "name": "F5",
                    "midi": 77,
                    "time": 42.861462000000046,
                    "velocity": 0.7244094488188977,
                    "duration": 0.4521732250000028
                },
                {
                    "name": "C5",
                    "midi": 72,
                    "time": 43.317435000000046,
                    "velocity": 0.6377952755905512,
                    "duration": 0.30398199999999775
                },
                {
                    "name": "A4",
                    "midi": 69,
                    "time": 43.317435000000046,
                    "velocity": 0.5433070866141733,
                    "duration": 0.30398199999999775
                },
                {
                    "name": "C5",
                    "midi": 72,
                    "time": 43.621417000000044,
                    "velocity": 0.6062992125984252,
                    "duration": 0.07599549999999766
                },
                {
                    "name": "A4",
                    "midi": 69,
                    "time": 43.621417000000044,
                    "velocity": 0.5039370078740157,
                    "duration": 0.07599549999999766
                },
                {
                    "name": "F4",
                    "midi": 65,
                    "time": 43.621417000000044,
                    "velocity": 0.5039370078740157,
                    "duration": 0.07599549999999766
                },
                {
                    "name": "F#4",
                    "midi": 66,
                    "time": 43.77340800000004,
                    "velocity": 0.6141732283464567,
                    "duration": 0.30398199999999775
                },
                {
                    "name": "C5",
                    "midi": 72,
                    "time": 43.77340800000004,
                    "velocity": 0.6141732283464567,
                    "duration": 0.30398199999999775
                },
                {
                    "name": "D#5",
                    "midi": 75,
                    "time": 43.77340800000004,
                    "velocity": 0.7244094488188977,
                    "duration": 0.30398199999999775
                },
                {
                    "name": "C#5",
                    "midi": 73,
                    "time": 44.07739000000004,
                    "velocity": 0.6299212598425197,
                    "duration": 0.15199100000000243
                },
                {
                    "name": "A#4",
                    "midi": 70,
                    "time": 44.07739000000004,
                    "velocity": 0.5275590551181102,
                    "duration": 0.15199100000000243
                },
                {
                    "name": "E4",
                    "midi": 64,
                    "time": 44.07739000000004,
                    "velocity": 0.5275590551181102,
                    "duration": 0.15199100000000243
                },
                {
                    "name": "C5",
                    "midi": 72,
                    "time": 44.22938100000004,
                    "velocity": 0.6220472440944882,
                    "duration": 0.4559730000000002
                },
                {
                    "name": "A4",
                    "midi": 69,
                    "time": 44.22938100000004,
                    "velocity": 0.5196850393700787,
                    "duration": 0.4559730000000002
                },
                {
                    "name": "F4",
                    "midi": 65,
                    "time": 44.22938100000004,
                    "velocity": 0.5196850393700787,
                    "duration": 0.4559730000000002
                },
                {
                    "name": "F4",
                    "midi": 65,
                    "time": 44.68535400000004,
                    "velocity": 0.6141732283464567,
                    "duration": 0.4521732250000028
                },
                {
                    "name": "C5",
                    "midi": 72,
                    "time": 44.68535400000004,
                    "velocity": 0.6141732283464567,
                    "duration": 0.4521732250000028
                },
                {
                    "name": "F5",
                    "midi": 77,
                    "time": 44.68535400000004,
                    "velocity": 0.7244094488188977,
                    "duration": 0.4521732250000028
                },
                {
                    "name": "C5",
                    "midi": 72,
                    "time": 45.14132700000004,
                    "velocity": 0.5984251968503937,
                    "duration": 0.30398199999999775
                },
                {
                    "name": "A4",
                    "midi": 69,
                    "time": 45.14132700000004,
                    "velocity": 0.5039370078740157,
                    "duration": 0.30398199999999775
                },
                {
                    "name": "C5",
                    "midi": 72,
                    "time": 45.44530900000004,
                    "velocity": 0.5433070866141733,
                    "duration": 0.07599549999999766
                },
                {
                    "name": "A4",
                    "midi": 69,
                    "time": 45.44530900000004,
                    "velocity": 0.44881889763779526,
                    "duration": 0.07599549999999766
                },
                {
                    "name": "F4",
                    "midi": 65,
                    "time": 45.44530900000004,
                    "velocity": 0.44881889763779526,
                    "duration": 0.07599549999999766
                },
                {
                    "name": "F#4",
                    "midi": 66,
                    "time": 45.59730000000003,
                    "velocity": 0.5354330708661418,
                    "duration": 0.30398199999999775
                },
                {
                    "name": "D#5",
                    "midi": 75,
                    "time": 45.59730000000003,
                    "velocity": 0.6299212598425197,
                    "duration": 0.30398199999999775
                },
                {
                    "name": "C#5",
                    "midi": 73,
                    "time": 45.90128200000003,
                    "velocity": 0.49606299212598426,
                    "duration": 0.15199100000000243
                },
                {
                    "name": "F4",
                    "midi": 65,
                    "time": 45.90128200000003,
                    "velocity": 0.41732283464566927,
                    "duration": 0.15199100000000243
                },
                {
                    "name": "F#4",
                    "midi": 66,
                    "time": 46.05327300000003,
                    "velocity": 0.4015748031496063,
                    "duration": 0.30398199999999775
                },
                {
                    "name": "C5",
                    "midi": 72,
                    "time": 46.05327300000003,
                    "velocity": 0.47244094488188976,
                    "duration": 0.30398199999999775
                },
                {
                    "name": "D#4",
                    "midi": 63,
                    "time": 46.05327300000003,
                    "velocity": 0.4015748031496063,
                    "duration": 0.30398199999999775
                },
                {
                    "name": "C#4",
                    "midi": 61,
                    "time": 46.35725500000003,
                    "velocity": 0.3858267716535433,
                    "duration": 0.15199100000000243
                },
                {
                    "name": "F4",
                    "midi": 65,
                    "time": 46.35725500000003,
                    "velocity": 0.3858267716535433,
                    "duration": 0.15199100000000243
                },
                {
                    "name": "A#4",
                    "midi": 70,
                    "time": 46.35725500000003,
                    "velocity": 0.4566929133858268,
                    "duration": 0.15199100000000243
                },
                {
                    "name": "D#4",
                    "midi": 63,
                    "time": 46.50924600000003,
                    "velocity": 0.4330708661417323,
                    "duration": 0.30398199999999775
                },
                {
                    "name": "C4",
                    "midi": 60,
                    "time": 46.50924600000003,
                    "velocity": 0.4330708661417323,
                    "duration": 0.30398199999999775
                },
                {
                    "name": "G#4",
                    "midi": 68,
                    "time": 46.50924600000003,
                    "velocity": 0.5118110236220472,
                    "duration": 0.30398199999999775
                },
                {
                    "name": "A#3",
                    "midi": 58,
                    "time": 46.81322800000003,
                    "velocity": 0.36220472440944884,
                    "duration": 0.15199100000000243
                },
                {
                    "name": "F#4",
                    "midi": 66,
                    "time": 46.81322800000003,
                    "velocity": 0.4251968503937008,
                    "duration": 0.15199100000000243
                },
                {
                    "name": "C#4",
                    "midi": 61,
                    "time": 46.81322800000003,
                    "velocity": 0.36220472440944884,
                    "duration": 0.15199100000000243
                },
                {
                    "name": "C4",
                    "midi": 60,
                    "time": 46.96521900000003,
                    "velocity": 0.3464566929133858,
                    "duration": 0.30398199999999775
                },
                {
                    "name": "F4",
                    "midi": 65,
                    "time": 46.96521900000003,
                    "velocity": 0.4094488188976378,
                    "duration": 0.30398199999999775
                },
                {
                    "name": "A3",
                    "midi": 57,
                    "time": 46.96521900000003,
                    "velocity": 0.3464566929133858,
                    "duration": 0.30398199999999775
                },
                {
                    "name": "A#3",
                    "midi": 58,
                    "time": 47.26920100000003,
                    "velocity": 0.33070866141732286,
                    "duration": 0.11399325000000005
                },
                {
                    "name": "G3",
                    "midi": 55,
                    "time": 47.26920100000003,
                    "velocity": 0.33070866141732286,
                    "duration": 0.11399325000000005
                },
                {
                    "name": "E4",
                    "midi": 64,
                    "time": 47.26920100000003,
                    "velocity": 0.3937007874015748,
                    "duration": 0.11399325000000005
                },
                {
                    "name": "G3",
                    "midi": 55,
                    "time": 47.42119200000003,
                    "velocity": 0.29133858267716534,
                    "duration": 0.4559730000000002
                },
                {
                    "name": "A#3",
                    "midi": 58,
                    "time": 47.42119200000003,
                    "velocity": 0.29133858267716534,
                    "duration": 0.4559730000000002
                },
                {
                    "name": "E4",
                    "midi": 64,
                    "time": 47.42119200000003,
                    "velocity": 0.3543307086614173,
                    "duration": 0.4559730000000002
                },
                {
                    "name": "A3",
                    "midi": 57,
                    "time": 47.87716500000003,
                    "velocity": 0.29133858267716534,
                    "duration": 0.4559730000000002
                },
                {
                    "name": "F4",
                    "midi": 65,
                    "time": 47.87716500000003,
                    "velocity": 0.3543307086614173,
                    "duration": 0.4559730000000002
                },
                {
                    "name": "C#5",
                    "midi": 73,
                    "time": 49.09309300000003,
                    "velocity": 0.33858267716535434,
                    "duration": 0.07599549999999766
                },
                {
                    "name": "F5",
                    "midi": 77,
                    "time": 49.09309300000003,
                    "velocity": 0.33858267716535434,
                    "duration": 0.07599549999999766
                },
                {
                    "name": "F4",
                    "midi": 65,
                    "time": 49.24508400000003,
                    "velocity": 0.31496062992125984,
                    "duration": 0.30398200000000486
                },
                {
                    "name": "C#5",
                    "midi": 73,
                    "time": 49.24508400000003,
                    "velocity": 0.3937007874015748,
                    "duration": 0.15199100000000243
                },
                {
                    "name": "F5",
                    "midi": 77,
                    "time": 49.24508400000003,
                    "velocity": 0.3937007874015748,
                    "duration": 0.15199100000000243
                },
                {
                    "name": "C#5",
                    "midi": 73,
                    "time": 49.39707500000003,
                    "velocity": 0.3543307086614173,
                    "duration": 0.15199100000000243
                },
                {
                    "name": "A#4",
                    "midi": 70,
                    "time": 49.39707500000003,
                    "velocity": 0.3543307086614173,
                    "duration": 0.15199100000000243
                },
                {
                    "name": "F5",
                    "midi": 77,
                    "time": 49.54906600000003,
                    "velocity": 0.3543307086614173,
                    "duration": 0.07599549999999766
                },
                {
                    "name": "C#5",
                    "midi": 73,
                    "time": 49.54906600000003,
                    "velocity": 0.3543307086614173,
                    "duration": 0.07599549999999766
                },
                {
                    "name": "F4",
                    "midi": 65,
                    "time": 49.70105700000003,
                    "velocity": 0.31496062992125984,
                    "duration": 0.30398200000000486
                },
                {
                    "name": "C#5",
                    "midi": 73,
                    "time": 49.70105700000003,
                    "velocity": 0.3937007874015748,
                    "duration": 0.15199100000000243
                },
                {
                    "name": "F5",
                    "midi": 77,
                    "time": 49.70105700000003,
                    "velocity": 0.3937007874015748,
                    "duration": 0.15199100000000243
                },
                {
                    "name": "C#5",
                    "midi": 73,
                    "time": 49.85304800000003,
                    "velocity": 0.36220472440944884,
                    "duration": 0.15199100000000243
                },
                {
                    "name": "A#4",
                    "midi": 70,
                    "time": 49.85304800000003,
                    "velocity": 0.36220472440944884,
                    "duration": 0.15199100000000243
                },
                {
                    "name": "F5",
                    "midi": 77,
                    "time": 50.00503900000003,
                    "velocity": 0.36220472440944884,
                    "duration": 0.07599549999999766
                },
                {
                    "name": "C#5",
                    "midi": 73,
                    "time": 50.00503900000003,
                    "velocity": 0.36220472440944884,
                    "duration": 0.07599549999999766
                },
                {
                    "name": "F4",
                    "midi": 65,
                    "time": 50.15703000000003,
                    "velocity": 0.31496062992125984,
                    "duration": 0.30398200000000486
                },
                {
                    "name": "C#5",
                    "midi": 73,
                    "time": 50.15703000000003,
                    "velocity": 0.3937007874015748,
                    "duration": 0.15199100000000243
                },
                {
                    "name": "F5",
                    "midi": 77,
                    "time": 50.15703000000003,
                    "velocity": 0.3937007874015748,
                    "duration": 0.15199100000000243
                },
                {
                    "name": "C#5",
                    "midi": 73,
                    "time": 50.30902100000003,
                    "velocity": 0.3543307086614173,
                    "duration": 0.15199100000000243
                },
                {
                    "name": "A#4",
                    "midi": 70,
                    "time": 50.30902100000003,
                    "velocity": 0.3543307086614173,
                    "duration": 0.15199100000000243
                },
                {
                    "name": "F5",
                    "midi": 77,
                    "time": 50.46101200000003,
                    "velocity": 0.3543307086614173,
                    "duration": 0.07599549999999766
                },
                {
                    "name": "C#5",
                    "midi": 73,
                    "time": 50.46101200000003,
                    "velocity": 0.3543307086614173,
                    "duration": 0.07599549999999766
                },
                {
                    "name": "F4",
                    "midi": 65,
                    "time": 50.61300300000003,
                    "velocity": 0.31496062992125984,
                    "duration": 0.30398200000000486
                },
                {
                    "name": "C#5",
                    "midi": 73,
                    "time": 50.61300300000003,
                    "velocity": 0.3937007874015748,
                    "duration": 0.15199100000000243
                },
                {
                    "name": "F5",
                    "midi": 77,
                    "time": 50.61300300000003,
                    "velocity": 0.3937007874015748,
                    "duration": 0.15199100000000243
                },
                {
                    "name": "C#5",
                    "midi": 73,
                    "time": 50.76499400000003,
                    "velocity": 0.36220472440944884,
                    "duration": 0.15199100000000243
                },
                {
                    "name": "A#4",
                    "midi": 70,
                    "time": 50.76499400000003,
                    "velocity": 0.36220472440944884,
                    "duration": 0.15199100000000243
                },
                {
                    "name": "F5",
                    "midi": 77,
                    "time": 50.91698500000003,
                    "velocity": 0.36220472440944884,
                    "duration": 0.07599549999999766
                },
                {
                    "name": "C#5",
                    "midi": 73,
                    "time": 50.91698500000003,
                    "velocity": 0.36220472440944884,
                    "duration": 0.07599549999999766
                },
                {
                    "name": "F#4",
                    "midi": 66,
                    "time": 51.06897600000003,
                    "velocity": 0.5590551181102362,
                    "duration": 0.759955000000005
                },
                {
                    "name": "C#5",
                    "midi": 73,
                    "time": 51.06897600000003,
                    "velocity": 0.3937007874015748,
                    "duration": 0.15199100000000243
                },
                {
                    "name": "A#4",
                    "midi": 70,
                    "time": 51.22096700000003,
                    "velocity": 0.3543307086614173,
                    "duration": 0.15199100000000243
                },
                {
                    "name": "C#5",
                    "midi": 73,
                    "time": 51.37295800000003,
                    "velocity": 0.3543307086614173,
                    "duration": 0.07599549999999766
                },
                {
                    "name": "C#5",
                    "midi": 73,
                    "time": 51.52494900000003,
                    "velocity": 0.3937007874015748,
                    "duration": 0.15199100000000243
                },
                {
                    "name": "A#4",
                    "midi": 70,
                    "time": 51.67694000000003,
                    "velocity": 0.36220472440944884,
                    "duration": 0.15199100000000243
                },
                {
                    "name": "F4",
                    "midi": 65,
                    "time": 51.82893100000003,
                    "velocity": 0.47244094488188976,
                    "duration": 0.15199099999999532
                },
                {
                    "name": "C#5",
                    "midi": 73,
                    "time": 51.82893100000003,
                    "velocity": 0.36220472440944884,
                    "duration": 0.07599549999999766
                },
                {
                    "name": "E4",
                    "midi": 64,
                    "time": 51.98092200000003,
                    "velocity": 0.5669291338582677,
                    "duration": 0.6839595000000003
                },
                {
                    "name": "C#5",
                    "midi": 73,
                    "time": 51.98092200000003,
                    "velocity": 0.3937007874015748,
                    "duration": 0.15199100000000243
                },
                {
                    "name": "A#4",
                    "midi": 70,
                    "time": 52.13291300000003,
                    "velocity": 0.3543307086614173,
                    "duration": 0.15199100000000243
                },
                {
                    "name": "C#5",
                    "midi": 73,
                    "time": 52.28490400000003,
                    "velocity": 0.3543307086614173,
                    "duration": 0.07599549999999766
                },
                {
                    "name": "C#5",
                    "midi": 73,
                    "time": 52.43689500000003,
                    "velocity": 0.3937007874015748,
                    "duration": 0.15199100000000243
                },
                {
                    "name": "A#4",
                    "midi": 70,
                    "time": 52.58888600000003,
                    "velocity": 0.36220472440944884,
                    "duration": 0.15199099999999532
                },
                {
                    "name": "C#5",
                    "midi": 73,
                    "time": 52.740877000000026,
                    "velocity": 0.48031496062992124,
                    "duration": 0.07599549999999766
                },
                {
                    "name": "E4",
                    "midi": 64,
                    "time": 52.740877000000026,
                    "velocity": 0.47244094488188976,
                    "duration": 0.15199099999999532
                },
                {
                    "name": "F4",
                    "midi": 65,
                    "time": 52.89286800000002,
                    "velocity": 0.5905511811023622,
                    "duration": 0.6079639999999884
                },
                {
                    "name": "C4",
                    "midi": 60,
                    "time": 53.044859000000024,
                    "velocity": 0.4251968503937008,
                    "duration": 0.07599549999999766
                },
                {
                    "name": "D#4",
                    "midi": 63,
                    "time": 53.044859000000024,
                    "velocity": 0.4251968503937008,
                    "duration": 0.07599549999999766
                },
                {
                    "name": "C4",
                    "midi": 60,
                    "time": 53.19685000000002,
                    "velocity": 0.4251968503937008,
                    "duration": 0.07599549999999766
                },
                {
                    "name": "D#4",
                    "midi": 63,
                    "time": 53.19685000000002,
                    "velocity": 0.4251968503937008,
                    "duration": 0.07599549999999766
                },
                {
                    "name": "C4",
                    "midi": 60,
                    "time": 53.348841000000014,
                    "velocity": 0.4251968503937008,
                    "duration": 0.07599549999999766
                },
                {
                    "name": "D#4",
                    "midi": 63,
                    "time": 53.348841000000014,
                    "velocity": 0.4251968503937008,
                    "duration": 0.07599549999999766
                },
                {
                    "name": "A#3",
                    "midi": 58,
                    "time": 53.50083200000001,
                    "velocity": 0.4251968503937008,
                    "duration": 0.07599549999999766
                },
                {
                    "name": "G4",
                    "midi": 67,
                    "time": 53.50083200000001,
                    "velocity": 0.4409448818897638,
                    "duration": 0.07599549999999766
                },
                {
                    "name": "C4",
                    "midi": 60,
                    "time": 53.652823000000005,
                    "velocity": 0.4251968503937008,
                    "duration": 0.07599549999999766
                },
                {
                    "name": "A4",
                    "midi": 69,
                    "time": 53.652823000000005,
                    "velocity": 0.48031496062992124,
                    "duration": 0.07599549999999766
                },
                {
                    "name": "C5",
                    "midi": 72,
                    "time": 53.7288185,
                    "velocity": 0.5039370078740157,
                    "duration": 0.07599549999999766
                },
                {
                    "name": "C#4",
                    "midi": 61,
                    "time": 53.804814,
                    "velocity": 0.48031496062992124,
                    "duration": 0.07599549999999766
                },
                {
                    "name": "A#4",
                    "midi": 70,
                    "time": 53.804814,
                    "velocity": 0.5748031496062992,
                    "duration": 0.07599549999999766
                },
                {
                    "name": "C4",
                    "midi": 60,
                    "time": 53.956804999999996,
                    "velocity": 0.4251968503937008,
                    "duration": 0.07599549999999766
                },
                {
                    "name": "A4",
                    "midi": 69,
                    "time": 53.956804999999996,
                    "velocity": 0.49606299212598426,
                    "duration": 0.07599549999999766
                },
                {
                    "name": "C#4",
                    "midi": 61,
                    "time": 54.10879599999999,
                    "velocity": 0.41732283464566927,
                    "duration": 0.07599549999999766
                },
                {
                    "name": "A#4",
                    "midi": 70,
                    "time": 54.10879599999999,
                    "velocity": 0.49606299212598426,
                    "duration": 0.07599549999999766
                },
                {
                    "name": "F4",
                    "midi": 65,
                    "time": 54.260786999999986,
                    "velocity": 0.47244094488188976,
                    "duration": 0.07599549999999766
                },
                {
                    "name": "C#5",
                    "midi": 73,
                    "time": 54.260786999999986,
                    "velocity": 0.5590551181102362,
                    "duration": 0.07599549999999766
                },
                {
                    "name": "D#4",
                    "midi": 63,
                    "time": 54.41277799999998,
                    "velocity": 0.41732283464566927,
                    "duration": 0.07599549999999766
                },
                {
                    "name": "C5",
                    "midi": 72,
                    "time": 54.41277799999998,
                    "velocity": 0.49606299212598426,
                    "duration": 0.07599549999999766
                },
                {
                    "name": "C#4",
                    "midi": 61,
                    "time": 54.56476899999998,
                    "velocity": 0.4566929133858268,
                    "duration": 0.07599549999999766
                },
                {
                    "name": "A#4",
                    "midi": 70,
                    "time": 54.56476899999998,
                    "velocity": 0.5511811023622047,
                    "duration": 0.07599549999999766
                },
                {
                    "name": "C#4",
                    "midi": 61,
                    "time": 54.71675999999997,
                    "velocity": 0.5511811023622047,
                    "duration": 0.9119460000000004
                },
                {
                    "name": "A#4",
                    "midi": 70,
                    "time": 54.71675999999997,
                    "velocity": 0.6456692913385826,
                    "duration": 0.9119460000000004
                },
                {
                    "name": "E4",
                    "midi": 64,
                    "time": 55.17273299999997,
                    "velocity": 0.5196850393700787,
                    "duration": 0.4559730000000002
                },
                {
                    "name": "C4",
                    "midi": 60,
                    "time": 55.62870599999997,
                    "velocity": 0.5275590551181102,
                    "duration": 0.4559730000000002
                },
                {
                    "name": "F4",
                    "midi": 65,
                    "time": 55.62870599999997,
                    "velocity": 0.5275590551181102,
                    "duration": 0.4559730000000002
                },
                {
                    "name": "A4",
                    "midi": 69,
                    "time": 55.62870599999997,
                    "velocity": 0.6299212598425197,
                    "duration": 0.4559730000000002
                },
                {
                    "name": "C#5",
                    "midi": 73,
                    "time": 56.38866099999997,
                    "velocity": 0.33858267716535434,
                    "duration": 0.07599549999999766
                },
                {
                    "name": "F5",
                    "midi": 77,
                    "time": 56.38866099999997,
                    "velocity": 0.33858267716535434,
                    "duration": 0.07599549999999766
                },
                {
                    "name": "F4",
                    "midi": 65,
                    "time": 56.540651999999966,
                    "velocity": 0.31496062992125984,
                    "duration": 0.30398200000000486
                },
                {
                    "name": "C#5",
                    "midi": 73,
                    "time": 56.540651999999966,
                    "velocity": 0.3937007874015748,
                    "duration": 0.15199100000000243
                },
                {
                    "name": "F5",
                    "midi": 77,
                    "time": 56.540651999999966,
                    "velocity": 0.3937007874015748,
                    "duration": 0.15199100000000243
                },
                {
                    "name": "C#5",
                    "midi": 73,
                    "time": 56.69264299999997,
                    "velocity": 0.3543307086614173,
                    "duration": 0.15199100000000243
                },
                {
                    "name": "A#4",
                    "midi": 70,
                    "time": 56.69264299999997,
                    "velocity": 0.3543307086614173,
                    "duration": 0.15199100000000243
                },
                {
                    "name": "F5",
                    "midi": 77,
                    "time": 56.84463399999997,
                    "velocity": 0.3543307086614173,
                    "duration": 0.07599549999999766
                },
                {
                    "name": "C#5",
                    "midi": 73,
                    "time": 56.84463399999997,
                    "velocity": 0.3543307086614173,
                    "duration": 0.07599549999999766
                },
                {
                    "name": "F4",
                    "midi": 65,
                    "time": 56.996624999999966,
                    "velocity": 0.3228346456692913,
                    "duration": 0.30398200000000486
                },
                {
                    "name": "C#5",
                    "midi": 73,
                    "time": 56.996624999999966,
                    "velocity": 0.4015748031496063,
                    "duration": 0.15199100000000243
                },
                {
                    "name": "F5",
                    "midi": 77,
                    "time": 56.996624999999966,
                    "velocity": 0.4015748031496063,
                    "duration": 0.15199100000000243
                },
                {
                    "name": "C#5",
                    "midi": 73,
                    "time": 57.14861599999997,
                    "velocity": 0.3779527559055118,
                    "duration": 0.15199100000000243
                },
                {
                    "name": "A#4",
                    "midi": 70,
                    "time": 57.14861599999997,
                    "velocity": 0.3779527559055118,
                    "duration": 0.15199100000000243
                },
                {
                    "name": "F5",
                    "midi": 77,
                    "time": 57.30060699999997,
                    "velocity": 0.3779527559055118,
                    "duration": 0.07599549999999766
                },
                {
                    "name": "C#5",
                    "midi": 73,
                    "time": 57.30060699999997,
                    "velocity": 0.3779527559055118,
                    "duration": 0.07599549999999766
                },
                {
                    "name": "F4",
                    "midi": 65,
                    "time": 57.452597999999966,
                    "velocity": 0.33070866141732286,
                    "duration": 0.30398200000000486
                },
                {
                    "name": "C#5",
                    "midi": 73,
                    "time": 57.452597999999966,
                    "velocity": 0.41732283464566927,
                    "duration": 0.15199100000000243
                },
                {
                    "name": "F5",
                    "midi": 77,
                    "time": 57.452597999999966,
                    "velocity": 0.41732283464566927,
                    "duration": 0.15199100000000243
                },
                {
                    "name": "C#5",
                    "midi": 73,
                    "time": 57.60458899999997,
                    "velocity": 0.3937007874015748,
                    "duration": 0.15199100000000243
                },
                {
                    "name": "A#4",
                    "midi": 70,
                    "time": 57.60458899999997,
                    "velocity": 0.3937007874015748,
                    "duration": 0.15199100000000243
                },
                {
                    "name": "F5",
                    "midi": 77,
                    "time": 57.75657999999997,
                    "velocity": 0.4330708661417323,
                    "duration": 0.07599549999999766
                },
                {
                    "name": "C#5",
                    "midi": 73,
                    "time": 57.75657999999997,
                    "velocity": 0.4330708661417323,
                    "duration": 0.07599549999999766
                },
                {
                    "name": "F4",
                    "midi": 65,
                    "time": 57.90857099999997,
                    "velocity": 0.41732283464566927,
                    "duration": 0.30398200000000486
                },
                {
                    "name": "C#5",
                    "midi": 73,
                    "time": 57.90857099999997,
                    "velocity": 0.5196850393700787,
                    "duration": 0.15199100000000243
                },
                {
                    "name": "F5",
                    "midi": 77,
                    "time": 57.90857099999997,
                    "velocity": 0.5196850393700787,
                    "duration": 0.15199100000000243
                },
                {
                    "name": "C#5",
                    "midi": 73,
                    "time": 58.06056199999997,
                    "velocity": 0.49606299212598426,
                    "duration": 0.15199100000000243
                },
                {
                    "name": "A#4",
                    "midi": 70,
                    "time": 58.06056199999997,
                    "velocity": 0.49606299212598426,
                    "duration": 0.15199100000000243
                },
                {
                    "name": "F5",
                    "midi": 77,
                    "time": 58.21255299999997,
                    "velocity": 0.5354330708661418,
                    "duration": 0.07599549999999766
                },
                {
                    "name": "C#5",
                    "midi": 73,
                    "time": 58.21255299999997,
                    "velocity": 0.5354330708661418,
                    "duration": 0.07599549999999766
                },
                {
                    "name": "G#4",
                    "midi": 68,
                    "time": 58.36454399999997,
                    "velocity": 0.4566929133858268,
                    "duration": 0.4559730000000002
                },
                {
                    "name": "F5",
                    "midi": 77,
                    "time": 58.36454399999997,
                    "velocity": 0.5196850393700787,
                    "duration": 0.4559730000000002
                },
                {
                    "name": "G#5",
                    "midi": 80,
                    "time": 58.36454399999997,
                    "velocity": 0.6456692913385826,
                    "duration": 0.4559730000000002
                },
                {
                    "name": "F#4",
                    "midi": 66,
                    "time": 58.82051699999997,
                    "velocity": 0.4409448818897638,
                    "duration": 0.30398199999999775
                },
                {
                    "name": "D#5",
                    "midi": 75,
                    "time": 58.82051699999997,
                    "velocity": 0.4409448818897638,
                    "duration": 0.30398199999999775
                },
                {
                    "name": "F#5",
                    "midi": 78,
                    "time": 58.82051699999997,
                    "velocity": 0.5196850393700787,
                    "duration": 0.30398199999999775
                },
                {
                    "name": "F4",
                    "midi": 65,
                    "time": 59.124498999999965,
                    "velocity": 0.4409448818897638,
                    "duration": 0.07599549999999766
                },
                {
                    "name": "C#5",
                    "midi": 73,
                    "time": 59.124498999999965,
                    "velocity": 0.4409448818897638,
                    "duration": 0.07599549999999766
                },
                {
                    "name": "F5",
                    "midi": 77,
                    "time": 59.124498999999965,
                    "velocity": 0.5196850393700787,
                    "duration": 0.07599549999999766
                },
                {
                    "name": "F4",
                    "midi": 65,
                    "time": 59.27648999999996,
                    "velocity": 0.4566929133858268,
                    "duration": 0.4559730000000002
                },
                {
                    "name": "G#4",
                    "midi": 68,
                    "time": 59.27648999999996,
                    "velocity": 0.5275590551181102,
                    "duration": 0.4559730000000002
                },
                {
                    "name": "F5",
                    "midi": 77,
                    "time": 59.27648999999996,
                    "velocity": 0.6456692913385826,
                    "duration": 0.4559730000000002
                },
                {
                    "name": "D#4",
                    "midi": 63,
                    "time": 59.73246299999996,
                    "velocity": 0.4409448818897638,
                    "duration": 0.30398199999999775
                },
                {
                    "name": "D#5",
                    "midi": 75,
                    "time": 59.73246299999996,
                    "velocity": 0.5196850393700787,
                    "duration": 0.30398199999999775
                },
                {
                    "name": "F#4",
                    "midi": 66,
                    "time": 60.18843599999996,
                    "velocity": 0.4566929133858268,
                    "duration": 0.4559730000000002
                },
                {
                    "name": "A#4",
                    "midi": 70,
                    "time": 60.18843599999996,
                    "velocity": 0.5196850393700787,
                    "duration": 0.9119460000000004
                },
                {
                    "name": "F#5",
                    "midi": 78,
                    "time": 60.18843599999996,
                    "velocity": 0.6456692913385826,
                    "duration": 0.4559730000000002
                },
                {
                    "name": "D#5",
                    "midi": 75,
                    "time": 60.64440899999996,
                    "velocity": 0.5433070866141733,
                    "duration": 0.30398199999999775
                },
                {
                    "name": "C#5",
                    "midi": 73,
                    "time": 60.94839099999996,
                    "velocity": 0.5118110236220472,
                    "duration": 0.11399325000000005
                },
                {
                    "name": "A#4",
                    "midi": 70,
                    "time": 61.10038199999996,
                    "velocity": 0.5433070866141733,
                    "duration": 0.30398199999999775
                },
                {
                    "name": "C#5",
                    "midi": 73,
                    "time": 61.10038199999996,
                    "velocity": 0.5433070866141733,
                    "duration": 0.30398199999999775
                },
                {
                    "name": "C5",
                    "midi": 72,
                    "time": 61.40436399999996,
                    "velocity": 0.5118110236220472,
                    "duration": 0.11399325000000005
                },
                {
                    "name": "D#5",
                    "midi": 75,
                    "time": 61.55635499999996,
                    "velocity": 0.5433070866141733,
                    "duration": 0.30398199999999775
                },
                {
                    "name": "C5",
                    "midi": 72,
                    "time": 61.86033699999996,
                    "velocity": 0.5118110236220472,
                    "duration": 0.11399325000000005
                },
                {
                    "name": "F4",
                    "midi": 65,
                    "time": 62.01232799999996,
                    "velocity": 0.5433070866141733,
                    "duration": 0.9119460000000004
                },
                {
                    "name": "C5",
                    "midi": 72,
                    "time": 62.01232799999996,
                    "velocity": 0.5433070866141733,
                    "duration": 0.30398199999999775
                },
                {
                    "name": "A#4",
                    "midi": 70,
                    "time": 62.31630999999996,
                    "velocity": 0.5118110236220472,
                    "duration": 0.11399325000000005
                },
                {
                    "name": "C#5",
                    "midi": 73,
                    "time": 62.46830099999996,
                    "velocity": 0.5433070866141733,
                    "duration": 0.30398199999999775
                },
                {
                    "name": "A#4",
                    "midi": 70,
                    "time": 62.77228299999996,
                    "velocity": 0.5118110236220472,
                    "duration": 0.11399325000000005
                },
                {
                    "name": "F4",
                    "midi": 65,
                    "time": 62.92427399999996,
                    "velocity": 0.5433070866141733,
                    "duration": 0.30398199999999775
                },
                {
                    "name": "A#4",
                    "midi": 70,
                    "time": 62.92427399999996,
                    "velocity": 0.5433070866141733,
                    "duration": 0.30398199999999775
                },
                {
                    "name": "A4",
                    "midi": 69,
                    "time": 63.22825599999996,
                    "velocity": 0.48031496062992124,
                    "duration": 0.1393250833333326
                },
                {
                    "name": "A4",
                    "midi": 69,
                    "time": 63.38024699999996,
                    "velocity": 0.5433070866141733,
                    "duration": 0.4559730000000002
                },
                {
                    "name": "F4",
                    "midi": 65,
                    "time": 63.38024699999996,
                    "velocity": 0.3858267716535433,
                    "duration": 0.30398199999999775
                },
                {
                    "name": "C#5",
                    "midi": 73,
                    "time": 63.38024699999996,
                    "velocity": 0.4881889763779528,
                    "duration": 0.30398199999999775
                },
                {
                    "name": "D#4",
                    "midi": 63,
                    "time": 63.68422899999996,
                    "velocity": 0.4251968503937008,
                    "duration": 0.11399325000000005
                },
                {
                    "name": "C5",
                    "midi": 72,
                    "time": 63.68422899999996,
                    "velocity": 0.4251968503937008,
                    "duration": 0.11399325000000005
                },
                {
                    "name": "C5",
                    "midi": 72,
                    "time": 63.83621999999996,
                    "velocity": 0.4566929133858268,
                    "duration": 0.4559729999999931
                },
                {
                    "name": "A4",
                    "midi": 69,
                    "time": 63.83621999999996,
                    "velocity": 0.3858267716535433,
                    "duration": 0.4559729999999931
                },
                {
                    "name": "D#4",
                    "midi": 63,
                    "time": 63.83621999999996,
                    "velocity": 0.3858267716535433,
                    "duration": 0.4559729999999931
                },
                {
                    "name": "C#4",
                    "midi": 61,
                    "time": 64.29219299999995,
                    "velocity": 0.3228346456692913,
                    "duration": 0.4559730000000002
                },
                {
                    "name": "A#4",
                    "midi": 70,
                    "time": 64.29219299999995,
                    "velocity": 0.3858267716535433,
                    "duration": 0.4559730000000002
                },
                {
                    "name": "D#4",
                    "midi": 63,
                    "time": 65.50812099999996,
                    "velocity": 0.33858267716535434,
                    "duration": 0.07599550000000477
                },
                {
                    "name": "F4",
                    "midi": 65,
                    "time": 65.50812099999996,
                    "velocity": 0.33858267716535434,
                    "duration": 0.07599550000000477
                },
                {
                    "name": "D4",
                    "midi": 62,
                    "time": 65.66011199999997,
                    "velocity": 0.3937007874015748,
                    "duration": 0.15199099999999532
                },
                {
                    "name": "F4",
                    "midi": 65,
                    "time": 65.66011199999997,
                    "velocity": 0.3937007874015748,
                    "duration": 0.15199099999999532
                },
                {
                    "name": "A#4",
                    "midi": 70,
                    "time": 65.81210299999996,
                    "velocity": 0.3543307086614173,
                    "duration": 0.15199099999999532
                },
                {
                    "name": "A#3",
                    "midi": 58,
                    "time": 65.81210299999996,
                    "velocity": 0.3543307086614173,
                    "duration": 0.15199099999999532
                },
                {
                    "name": "F4",
                    "midi": 65,
                    "time": 65.96409399999996,
                    "velocity": 0.3543307086614173,
                    "duration": 0.07599550000000477
                },
                {
                    "name": "D4",
                    "midi": 62,
                    "time": 65.96409399999996,
                    "velocity": 0.3543307086614173,
                    "duration": 0.07599550000000477
                },
                {
                    "name": "D4",
                    "midi": 62,
                    "time": 66.11608499999997,
                    "velocity": 0.3937007874015748,
                    "duration": 0.15199099999999532
                },
                {
                    "name": "F4",
                    "midi": 65,
                    "time": 66.11608499999997,
                    "velocity": 0.3937007874015748,
                    "duration": 0.15199099999999532
                },
                {
                    "name": "A#4",
                    "midi": 70,
                    "time": 66.26807599999997,
                    "velocity": 0.36220472440944884,
                    "duration": 0.15199099999999532
                },
                {
                    "name": "A#3",
                    "midi": 58,
                    "time": 66.26807599999997,
                    "velocity": 0.36220472440944884,
                    "duration": 0.15199099999999532
                },
                {
                    "name": "F4",
                    "midi": 65,
                    "time": 66.42006699999996,
                    "velocity": 0.36220472440944884,
                    "duration": 0.07599550000000477
                },
                {
                    "name": "D4",
                    "midi": 62,
                    "time": 66.42006699999996,
                    "velocity": 0.36220472440944884,
                    "duration": 0.07599550000000477
                },
                {
                    "name": "A#3",
                    "midi": 58,
                    "time": 66.57205799999997,
                    "velocity": 0.36220472440944884,
                    "duration": 0.4559730000000002
                },
                {
                    "name": "F4",
                    "midi": 65,
                    "time": 66.57205799999997,
                    "velocity": 0.36220472440944884,
                    "duration": 0.4559730000000002
                },
                {
                    "name": "G#4",
                    "midi": 68,
                    "time": 66.57205799999997,
                    "velocity": 0.36220472440944884,
                    "duration": 0.4559730000000002
                },
                {
                    "name": "D#4",
                    "midi": 63,
                    "time": 67.02803099999997,
                    "velocity": 0.36220472440944884,
                    "duration": 0.15199099999999532
                },
                {
                    "name": "F#4",
                    "midi": 66,
                    "time": 67.02803099999997,
                    "velocity": 0.36220472440944884,
                    "duration": 0.15199099999999532
                },
                {
                    "name": "D#4",
                    "midi": 63,
                    "time": 67.33201299999996,
                    "velocity": 0.33858267716535434,
                    "duration": 0.07599550000000477
                },
                {
                    "name": "F#4",
                    "midi": 66,
                    "time": 67.33201299999996,
                    "velocity": 0.33858267716535434,
                    "duration": 0.07599550000000477
                },
                {
                    "name": "D4",
                    "midi": 62,
                    "time": 67.48400399999997,
                    "velocity": 0.3937007874015748,
                    "duration": 0.15199099999999532
                },
                {
                    "name": "F4",
                    "midi": 65,
                    "time": 67.48400399999997,
                    "velocity": 0.3937007874015748,
                    "duration": 0.15199099999999532
                },
                {
                    "name": "A#4",
                    "midi": 70,
                    "time": 67.63599499999997,
                    "velocity": 0.3543307086614173,
                    "duration": 0.15199099999999532
                },
                {
                    "name": "A#3",
                    "midi": 58,
                    "time": 67.63599499999997,
                    "velocity": 0.3543307086614173,
                    "duration": 0.15199099999999532
                },
                {
                    "name": "F4",
                    "midi": 65,
                    "time": 67.78798599999996,
                    "velocity": 0.3543307086614173,
                    "duration": 0.07599550000000477
                },
                {
                    "name": "D4",
                    "midi": 62,
                    "time": 67.78798599999996,
                    "velocity": 0.3543307086614173,
                    "duration": 0.07599550000000477
                },
                {
                    "name": "D4",
                    "midi": 62,
                    "time": 67.93997699999997,
                    "velocity": 0.3937007874015748,
                    "duration": 0.15199099999999532
                },
                {
                    "name": "F4",
                    "midi": 65,
                    "time": 67.93997699999997,
                    "velocity": 0.3937007874015748,
                    "duration": 0.15199099999999532
                },
                {
                    "name": "A#4",
                    "midi": 70,
                    "time": 68.09196799999997,
                    "velocity": 0.36220472440944884,
                    "duration": 0.15199099999999532
                },
                {
                    "name": "A#3",
                    "midi": 58,
                    "time": 68.09196799999997,
                    "velocity": 0.36220472440944884,
                    "duration": 0.15199099999999532
                },
                {
                    "name": "F4",
                    "midi": 65,
                    "time": 68.24395899999996,
                    "velocity": 0.36220472440944884,
                    "duration": 0.07599550000000477
                },
                {
                    "name": "D4",
                    "midi": 62,
                    "time": 68.24395899999996,
                    "velocity": 0.36220472440944884,
                    "duration": 0.07599550000000477
                },
                {
                    "name": "A#3",
                    "midi": 58,
                    "time": 68.39594999999997,
                    "velocity": 0.36220472440944884,
                    "duration": 0.4559730000000002
                },
                {
                    "name": "F4",
                    "midi": 65,
                    "time": 68.39594999999997,
                    "velocity": 0.36220472440944884,
                    "duration": 0.4559730000000002
                },
                {
                    "name": "G#4",
                    "midi": 68,
                    "time": 68.39594999999997,
                    "velocity": 0.36220472440944884,
                    "duration": 0.4559730000000002
                },
                {
                    "name": "D#4",
                    "midi": 63,
                    "time": 68.85192299999997,
                    "velocity": 0.36220472440944884,
                    "duration": 0.15199099999999532
                },
                {
                    "name": "F#4",
                    "midi": 66,
                    "time": 68.85192299999997,
                    "velocity": 0.36220472440944884,
                    "duration": 0.15199099999999532
                },
                {
                    "name": "F#4",
                    "midi": 66,
                    "time": 69.15590499999996,
                    "velocity": 0.3858267716535433,
                    "duration": 0.07599550000000477
                },
                {
                    "name": "D#4",
                    "midi": 63,
                    "time": 69.15590499999996,
                    "velocity": 0.3858267716535433,
                    "duration": 0.07599550000000477
                },
                {
                    "name": "A#4",
                    "midi": 70,
                    "time": 69.15590499999996,
                    "velocity": 0.3858267716535433,
                    "duration": 0.07599550000000477
                },
                {
                    "name": "F4",
                    "midi": 65,
                    "time": 69.30789599999997,
                    "velocity": 0.44881889763779526,
                    "duration": 0.15199099999999532
                },
                {
                    "name": "G#4",
                    "midi": 68,
                    "time": 69.30789599999997,
                    "velocity": 0.44881889763779526,
                    "duration": 0.15199099999999532
                },
                {
                    "name": "C#5",
                    "midi": 73,
                    "time": 69.45988699999997,
                    "velocity": 0.4015748031496063,
                    "duration": 0.15199099999999532
                },
                {
                    "name": "C#4",
                    "midi": 61,
                    "time": 69.45988699999997,
                    "velocity": 0.4015748031496063,
                    "duration": 0.15199099999999532
                },
                {
                    "name": "G#4",
                    "midi": 68,
                    "time": 69.61187799999996,
                    "velocity": 0.4015748031496063,
                    "duration": 0.07599550000000477
                },
                {
                    "name": "F4",
                    "midi": 65,
                    "time": 69.61187799999996,
                    "velocity": 0.4015748031496063,
                    "duration": 0.07599550000000477
                },
                {
                    "name": "F4",
                    "midi": 65,
                    "time": 69.76386899999997,
                    "velocity": 0.4566929133858268,
                    "duration": 0.15199099999999532
                },
                {
                    "name": "G#4",
                    "midi": 68,
                    "time": 69.76386899999997,
                    "velocity": 0.4566929133858268,
                    "duration": 0.15199099999999532
                },
                {
                    "name": "C#5",
                    "midi": 73,
                    "time": 69.91585999999997,
                    "velocity": 0.41732283464566927,
                    "duration": 0.15199099999999532
                },
                {
                    "name": "C#4",
                    "midi": 61,
                    "time": 69.91585999999997,
                    "velocity": 0.41732283464566927,
                    "duration": 0.15199099999999532
                },
                {
                    "name": "G#4",
                    "midi": 68,
                    "time": 70.06785099999996,
                    "velocity": 0.41732283464566927,
                    "duration": 0.07599550000000477
                },
                {
                    "name": "F4",
                    "midi": 65,
                    "time": 70.06785099999996,
                    "velocity": 0.41732283464566927,
                    "duration": 0.07599550000000477
                },
                {
                    "name": "F4",
                    "midi": 65,
                    "time": 70.21984199999997,
                    "velocity": 0.4251968503937008,
                    "duration": 0.4559730000000002
                },
                {
                    "name": "C#4",
                    "midi": 61,
                    "time": 70.21984199999997,
                    "velocity": 0.4251968503937008,
                    "duration": 0.4559730000000002
                },
                {
                    "name": "G#4",
                    "midi": 68,
                    "time": 70.21984199999997,
                    "velocity": 0.4251968503937008,
                    "duration": 0.4559730000000002
                },
                {
                    "name": "B4",
                    "midi": 71,
                    "time": 70.21984199999997,
                    "velocity": 0.4251968503937008,
                    "duration": 0.4559730000000002
                },
                {
                    "name": "F#4",
                    "midi": 66,
                    "time": 70.67581499999997,
                    "velocity": 0.4330708661417323,
                    "duration": 0.15199099999999532
                },
                {
                    "name": "A#4",
                    "midi": 70,
                    "time": 70.67581499999997,
                    "velocity": 0.4330708661417323,
                    "duration": 0.15199099999999532
                },
                {
                    "name": "F#4",
                    "midi": 66,
                    "time": 70.97979699999996,
                    "velocity": 0.4645669291338583,
                    "duration": 0.07599550000000477
                },
                {
                    "name": "A#4",
                    "midi": 70,
                    "time": 70.97979699999996,
                    "velocity": 0.4645669291338583,
                    "duration": 0.07599550000000477
                },
                {
                    "name": "F4",
                    "midi": 65,
                    "time": 71.13178799999997,
                    "velocity": 0.5433070866141733,
                    "duration": 0.15199099999999532
                },
                {
                    "name": "G#4",
                    "midi": 68,
                    "time": 71.13178799999997,
                    "velocity": 0.5433070866141733,
                    "duration": 0.15199099999999532
                },
                {
                    "name": "C#5",
                    "midi": 73,
                    "time": 71.28377899999997,
                    "velocity": 0.4881889763779528,
                    "duration": 0.15199099999999532
                },
                {
                    "name": "C#4",
                    "midi": 61,
                    "time": 71.28377899999997,
                    "velocity": 0.4881889763779528,
                    "duration": 0.15199099999999532
                },
                {
                    "name": "G#4",
                    "midi": 68,
                    "time": 71.43576999999996,
                    "velocity": 0.5039370078740157,
                    "duration": 0.07599550000000477
                },
                {
                    "name": "F4",
                    "midi": 65,
                    "time": 71.43576999999996,
                    "velocity": 0.5039370078740157,
                    "duration": 0.07599550000000477
                },
                {
                    "name": "F4",
                    "midi": 65,
                    "time": 71.58776099999997,
                    "velocity": 0.5826771653543307,
                    "duration": 0.15199099999999532
                },
                {
                    "name": "G#4",
                    "midi": 68,
                    "time": 71.58776099999997,
                    "velocity": 0.5826771653543307,
                    "duration": 0.15199099999999532
                },
                {
                    "name": "C#5",
                    "midi": 73,
                    "time": 71.73975199999997,
                    "velocity": 0.5354330708661418,
                    "duration": 0.15199099999999532
                },
                {
                    "name": "C#4",
                    "midi": 61,
                    "time": 71.73975199999997,
                    "velocity": 0.5354330708661418,
                    "duration": 0.15199099999999532
                },
                {
                    "name": "G#4",
                    "midi": 68,
                    "time": 71.89174299999996,
                    "velocity": 0.5433070866141733,
                    "duration": 0.07599550000000477
                },
                {
                    "name": "F4",
                    "midi": 65,
                    "time": 71.89174299999996,
                    "velocity": 0.5433070866141733,
                    "duration": 0.07599550000000477
                },
                {
                    "name": "F4",
                    "midi": 65,
                    "time": 72.04373399999997,
                    "velocity": 0.5590551181102362,
                    "duration": 0.4559730000000002
                },
                {
                    "name": "D4",
                    "midi": 62,
                    "time": 72.04373399999997,
                    "velocity": 0.5590551181102362,
                    "duration": 0.4559730000000002
                },
                {
                    "name": "G#4",
                    "midi": 68,
                    "time": 72.04373399999997,
                    "velocity": 0.5590551181102362,
                    "duration": 0.4559730000000002
                },
                {
                    "name": "B4",
                    "midi": 71,
                    "time": 72.04373399999997,
                    "velocity": 0.5590551181102362,
                    "duration": 0.4559730000000002
                },
                {
                    "name": "F#4",
                    "midi": 66,
                    "time": 72.49970699999997,
                    "velocity": 0.5905511811023622,
                    "duration": 0.15199099999999532
                },
                {
                    "name": "A#4",
                    "midi": 70,
                    "time": 72.49970699999997,
                    "velocity": 0.5905511811023622,
                    "duration": 0.15199099999999532
                },
                {
                    "name": "F4",
                    "midi": 65,
                    "time": 72.95567999999997,
                    "velocity": 0.6141732283464567,
                    "duration": 0.4521732249999957
                },
                {
                    "name": "C5",
                    "midi": 72,
                    "time": 72.95567999999997,
                    "velocity": 0.6141732283464567,
                    "duration": 0.4521732249999957
                },
                {
                    "name": "F5",
                    "midi": 77,
                    "time": 72.95567999999997,
                    "velocity": 0.7244094488188977,
                    "duration": 0.4521732249999957
                },
                {
                    "name": "C5",
                    "midi": 72,
                    "time": 73.41165299999997,
                    "velocity": 0.6377952755905512,
                    "duration": 0.30398200000000486
                },
                {
                    "name": "A4",
                    "midi": 69,
                    "time": 73.41165299999997,
                    "velocity": 0.5433070866141733,
                    "duration": 0.30398200000000486
                },
                {
                    "name": "C5",
                    "midi": 72,
                    "time": 73.71563499999998,
                    "velocity": 0.6062992125984252,
                    "duration": 0.07599550000000477
                },
                {
                    "name": "A4",
                    "midi": 69,
                    "time": 73.71563499999998,
                    "velocity": 0.5039370078740157,
                    "duration": 0.07599550000000477
                },
                {
                    "name": "F4",
                    "midi": 65,
                    "time": 73.71563499999998,
                    "velocity": 0.5039370078740157,
                    "duration": 0.07599550000000477
                },
                {
                    "name": "F#4",
                    "midi": 66,
                    "time": 73.86762599999999,
                    "velocity": 0.6141732283464567,
                    "duration": 0.30398200000000486
                },
                {
                    "name": "C5",
                    "midi": 72,
                    "time": 73.86762599999999,
                    "velocity": 0.6141732283464567,
                    "duration": 0.30398200000000486
                },
                {
                    "name": "D#5",
                    "midi": 75,
                    "time": 73.86762599999999,
                    "velocity": 0.7244094488188977,
                    "duration": 0.30398200000000486
                },
                {
                    "name": "C#5",
                    "midi": 73,
                    "time": 74.17160799999999,
                    "velocity": 0.6299212598425197,
                    "duration": 0.15199099999999532
                },
                {
                    "name": "A#4",
                    "midi": 70,
                    "time": 74.17160799999999,
                    "velocity": 0.5275590551181102,
                    "duration": 0.15199099999999532
                },
                {
                    "name": "E4",
                    "midi": 64,
                    "time": 74.17160799999999,
                    "velocity": 0.5275590551181102,
                    "duration": 0.15199099999999532
                },
                {
                    "name": "C5",
                    "midi": 72,
                    "time": 74.32359899999999,
                    "velocity": 0.6220472440944882,
                    "duration": 0.4559730000000002
                },
                {
                    "name": "A4",
                    "midi": 69,
                    "time": 74.32359899999999,
                    "velocity": 0.5196850393700787,
                    "duration": 0.4559730000000002
                },
                {
                    "name": "F4",
                    "midi": 65,
                    "time": 74.32359899999999,
                    "velocity": 0.5196850393700787,
                    "duration": 0.4559730000000002
                },
                {
                    "name": "F4",
                    "midi": 65,
                    "time": 74.77957199999999,
                    "velocity": 0.6141732283464567,
                    "duration": 0.4521732249999957
                },
                {
                    "name": "C5",
                    "midi": 72,
                    "time": 74.77957199999999,
                    "velocity": 0.6141732283464567,
                    "duration": 0.4521732249999957
                },
                {
                    "name": "F5",
                    "midi": 77,
                    "time": 74.77957199999999,
                    "velocity": 0.7244094488188977,
                    "duration": 0.4521732249999957
                },
                {
                    "name": "C5",
                    "midi": 72,
                    "time": 75.23554499999999,
                    "velocity": 0.6377952755905512,
                    "duration": 0.30398200000000486
                },
                {
                    "name": "A4",
                    "midi": 69,
                    "time": 75.23554499999999,
                    "velocity": 0.5433070866141733,
                    "duration": 0.30398200000000486
                },
                {
                    "name": "C5",
                    "midi": 72,
                    "time": 75.53952699999999,
                    "velocity": 0.6062992125984252,
                    "duration": 0.07599550000000477
                },
                {
                    "name": "A4",
                    "midi": 69,
                    "time": 75.53952699999999,
                    "velocity": 0.5039370078740157,
                    "duration": 0.07599550000000477
                },
                {
                    "name": "F4",
                    "midi": 65,
                    "time": 75.53952699999999,
                    "velocity": 0.5039370078740157,
                    "duration": 0.07599550000000477
                },
                {
                    "name": "F#4",
                    "midi": 66,
                    "time": 75.691518,
                    "velocity": 0.6141732283464567,
                    "duration": 0.30398200000000486
                },
                {
                    "name": "C5",
                    "midi": 72,
                    "time": 75.691518,
                    "velocity": 0.6141732283464567,
                    "duration": 0.30398200000000486
                },
                {
                    "name": "D#5",
                    "midi": 75,
                    "time": 75.691518,
                    "velocity": 0.7244094488188977,
                    "duration": 0.30398200000000486
                },
                {
                    "name": "C#5",
                    "midi": 73,
                    "time": 75.9955,
                    "velocity": 0.6299212598425197,
                    "duration": 0.15199099999999532
                },
                {
                    "name": "A#4",
                    "midi": 70,
                    "time": 75.9955,
                    "velocity": 0.5275590551181102,
                    "duration": 0.15199099999999532
                },
                {
                    "name": "E4",
                    "midi": 64,
                    "time": 75.9955,
                    "velocity": 0.5275590551181102,
                    "duration": 0.15199099999999532
                },
                {
                    "name": "C5",
                    "midi": 72,
                    "time": 76.147491,
                    "velocity": 0.6220472440944882,
                    "duration": 0.4559730000000002
                },
                {
                    "name": "A4",
                    "midi": 69,
                    "time": 76.147491,
                    "velocity": 0.5196850393700787,
                    "duration": 0.4559730000000002
                },
                {
                    "name": "F4",
                    "midi": 65,
                    "time": 76.147491,
                    "velocity": 0.5196850393700787,
                    "duration": 0.4559730000000002
                },
                {
                    "name": "F4",
                    "midi": 65,
                    "time": 76.603464,
                    "velocity": 0.6141732283464567,
                    "duration": 0.4521732249999957
                },
                {
                    "name": "C5",
                    "midi": 72,
                    "time": 76.603464,
                    "velocity": 0.6141732283464567,
                    "duration": 0.4521732249999957
                },
                {
                    "name": "F5",
                    "midi": 77,
                    "time": 76.603464,
                    "velocity": 0.7244094488188977,
                    "duration": 0.4521732249999957
                },
                {
                    "name": "C5",
                    "midi": 72,
                    "time": 77.059437,
                    "velocity": 0.5984251968503937,
                    "duration": 0.30398200000000486
                },
                {
                    "name": "A4",
                    "midi": 69,
                    "time": 77.059437,
                    "velocity": 0.5039370078740157,
                    "duration": 0.30398200000000486
                },
                {
                    "name": "C5",
                    "midi": 72,
                    "time": 77.36341900000001,
                    "velocity": 0.5433070866141733,
                    "duration": 0.07599550000000477
                },
                {
                    "name": "A4",
                    "midi": 69,
                    "time": 77.36341900000001,
                    "velocity": 0.44881889763779526,
                    "duration": 0.07599550000000477
                },
                {
                    "name": "F4",
                    "midi": 65,
                    "time": 77.36341900000001,
                    "velocity": 0.44881889763779526,
                    "duration": 0.07599550000000477
                },
                {
                    "name": "F#4",
                    "midi": 66,
                    "time": 77.51541000000002,
                    "velocity": 0.5354330708661418,
                    "duration": 0.30398200000000486
                },
                {
                    "name": "D#5",
                    "midi": 75,
                    "time": 77.51541000000002,
                    "velocity": 0.6299212598425197,
                    "duration": 0.30398200000000486
                },
                {
                    "name": "C#5",
                    "midi": 73,
                    "time": 77.81939200000002,
                    "velocity": 0.49606299212598426,
                    "duration": 0.15199099999999532
                },
                {
                    "name": "F4",
                    "midi": 65,
                    "time": 77.81939200000002,
                    "velocity": 0.41732283464566927,
                    "duration": 0.15199099999999532
                },
                {
                    "name": "F#4",
                    "midi": 66,
                    "time": 77.97138300000002,
                    "velocity": 0.4015748031496063,
                    "duration": 0.30398200000000486
                },
                {
                    "name": "C5",
                    "midi": 72,
                    "time": 77.97138300000002,
                    "velocity": 0.47244094488188976,
                    "duration": 0.30398200000000486
                },
                {
                    "name": "D#4",
                    "midi": 63,
                    "time": 77.97138300000002,
                    "velocity": 0.4015748031496063,
                    "duration": 0.30398200000000486
                },
                {
                    "name": "C#4",
                    "midi": 61,
                    "time": 78.27536500000002,
                    "velocity": 0.3858267716535433,
                    "duration": 0.15199099999999532
                },
                {
                    "name": "F4",
                    "midi": 65,
                    "time": 78.27536500000002,
                    "velocity": 0.3858267716535433,
                    "duration": 0.15199099999999532
                },
                {
                    "name": "A#4",
                    "midi": 70,
                    "time": 78.27536500000002,
                    "velocity": 0.4566929133858268,
                    "duration": 0.15199099999999532
                },
                {
                    "name": "D#4",
                    "midi": 63,
                    "time": 78.42735600000002,
                    "velocity": 0.4330708661417323,
                    "duration": 0.30398200000000486
                },
                {
                    "name": "C4",
                    "midi": 60,
                    "time": 78.42735600000002,
                    "velocity": 0.4330708661417323,
                    "duration": 0.30398200000000486
                },
                {
                    "name": "G#4",
                    "midi": 68,
                    "time": 78.42735600000002,
                    "velocity": 0.5118110236220472,
                    "duration": 0.30398200000000486
                },
                {
                    "name": "A#3",
                    "midi": 58,
                    "time": 78.73133800000002,
                    "velocity": 0.36220472440944884,
                    "duration": 0.15199099999999532
                },
                {
                    "name": "F#4",
                    "midi": 66,
                    "time": 78.73133800000002,
                    "velocity": 0.4251968503937008,
                    "duration": 0.15199099999999532
                },
                {
                    "name": "C#4",
                    "midi": 61,
                    "time": 78.73133800000002,
                    "velocity": 0.36220472440944884,
                    "duration": 0.15199099999999532
                },
                {
                    "name": "C4",
                    "midi": 60,
                    "time": 78.88332900000002,
                    "velocity": 0.3464566929133858,
                    "duration": 0.30398200000000486
                },
                {
                    "name": "F4",
                    "midi": 65,
                    "time": 78.88332900000002,
                    "velocity": 0.4094488188976378,
                    "duration": 0.30398200000000486
                },
                {
                    "name": "A3",
                    "midi": 57,
                    "time": 78.88332900000002,
                    "velocity": 0.3464566929133858,
                    "duration": 0.30398200000000486
                },
                {
                    "name": "A#3",
                    "midi": 58,
                    "time": 79.18731100000002,
                    "velocity": 0.33070866141732286,
                    "duration": 0.11399324999999294
                },
                {
                    "name": "G3",
                    "midi": 55,
                    "time": 79.18731100000002,
                    "velocity": 0.33070866141732286,
                    "duration": 0.11399324999999294
                },
                {
                    "name": "E4",
                    "midi": 64,
                    "time": 79.18731100000002,
                    "velocity": 0.3937007874015748,
                    "duration": 0.11399324999999294
                },
                {
                    "name": "G3",
                    "midi": 55,
                    "time": 79.33930200000002,
                    "velocity": 0.29133858267716534,
                    "duration": 0.4559730000000002
                },
                {
                    "name": "A#3",
                    "midi": 58,
                    "time": 79.33930200000002,
                    "velocity": 0.29133858267716534,
                    "duration": 0.4559730000000002
                },
                {
                    "name": "E4",
                    "midi": 64,
                    "time": 79.33930200000002,
                    "velocity": 0.3543307086614173,
                    "duration": 0.4559730000000002
                },
                {
                    "name": "A3",
                    "midi": 57,
                    "time": 79.79527500000002,
                    "velocity": 0.29133858267716534,
                    "duration": 0.4559730000000002
                },
                {
                    "name": "F4",
                    "midi": 65,
                    "time": 79.79527500000002,
                    "velocity": 0.3543307086614173,
                    "duration": 0.4559730000000002
                },
                {
                    "name": "C#5",
                    "midi": 73,
                    "time": 81.01120300000002,
                    "velocity": 0.33858267716535434,
                    "duration": 0.07599550000000477
                },
                {
                    "name": "F5",
                    "midi": 77,
                    "time": 81.01120300000002,
                    "velocity": 0.33858267716535434,
                    "duration": 0.07599550000000477
                },
                {
                    "name": "F4",
                    "midi": 65,
                    "time": 81.16319400000003,
                    "velocity": 0.31496062992125984,
                    "duration": 0.30398199999999065
                },
                {
                    "name": "C#5",
                    "midi": 73,
                    "time": 81.16319400000003,
                    "velocity": 0.3937007874015748,
                    "duration": 0.15199099999999532
                },
                {
                    "name": "F5",
                    "midi": 77,
                    "time": 81.16319400000003,
                    "velocity": 0.3937007874015748,
                    "duration": 0.15199099999999532
                },
                {
                    "name": "C#5",
                    "midi": 73,
                    "time": 81.31518500000003,
                    "velocity": 0.3543307086614173,
                    "duration": 0.15199099999999532
                },
                {
                    "name": "A#4",
                    "midi": 70,
                    "time": 81.31518500000003,
                    "velocity": 0.3543307086614173,
                    "duration": 0.15199099999999532
                },
                {
                    "name": "F5",
                    "midi": 77,
                    "time": 81.46717600000002,
                    "velocity": 0.3543307086614173,
                    "duration": 0.07599550000000477
                },
                {
                    "name": "C#5",
                    "midi": 73,
                    "time": 81.46717600000002,
                    "velocity": 0.3543307086614173,
                    "duration": 0.07599550000000477
                },
                {
                    "name": "F4",
                    "midi": 65,
                    "time": 81.61916700000003,
                    "velocity": 0.31496062992125984,
                    "duration": 0.30398199999999065
                },
                {
                    "name": "C#5",
                    "midi": 73,
                    "time": 81.61916700000003,
                    "velocity": 0.3937007874015748,
                    "duration": 0.15199099999999532
                },
                {
                    "name": "F5",
                    "midi": 77,
                    "time": 81.61916700000003,
                    "velocity": 0.3937007874015748,
                    "duration": 0.15199099999999532
                },
                {
                    "name": "C#5",
                    "midi": 73,
                    "time": 81.77115800000003,
                    "velocity": 0.36220472440944884,
                    "duration": 0.15199099999999532
                },
                {
                    "name": "A#4",
                    "midi": 70,
                    "time": 81.77115800000003,
                    "velocity": 0.36220472440944884,
                    "duration": 0.15199099999999532
                },
                {
                    "name": "F5",
                    "midi": 77,
                    "time": 81.92314900000002,
                    "velocity": 0.36220472440944884,
                    "duration": 0.07599550000000477
                },
                {
                    "name": "C#5",
                    "midi": 73,
                    "time": 81.92314900000002,
                    "velocity": 0.36220472440944884,
                    "duration": 0.07599550000000477
                },
                {
                    "name": "F4",
                    "midi": 65,
                    "time": 82.07514000000003,
                    "velocity": 0.31496062992125984,
                    "duration": 0.30398199999999065
                },
                {
                    "name": "C#5",
                    "midi": 73,
                    "time": 82.07514000000003,
                    "velocity": 0.3937007874015748,
                    "duration": 0.15199099999999532
                },
                {
                    "name": "F5",
                    "midi": 77,
                    "time": 82.07514000000003,
                    "velocity": 0.3937007874015748,
                    "duration": 0.15199099999999532
                },
                {
                    "name": "C#5",
                    "midi": 73,
                    "time": 82.22713100000003,
                    "velocity": 0.3543307086614173,
                    "duration": 0.15199099999999532
                },
                {
                    "name": "A#4",
                    "midi": 70,
                    "time": 82.22713100000003,
                    "velocity": 0.3543307086614173,
                    "duration": 0.15199099999999532
                },
                {
                    "name": "F5",
                    "midi": 77,
                    "time": 82.37912200000002,
                    "velocity": 0.3543307086614173,
                    "duration": 0.07599550000000477
                },
                {
                    "name": "C#5",
                    "midi": 73,
                    "time": 82.37912200000002,
                    "velocity": 0.3543307086614173,
                    "duration": 0.07599550000000477
                },
                {
                    "name": "F4",
                    "midi": 65,
                    "time": 82.53111300000003,
                    "velocity": 0.31496062992125984,
                    "duration": 0.30398199999999065
                },
                {
                    "name": "C#5",
                    "midi": 73,
                    "time": 82.53111300000003,
                    "velocity": 0.3937007874015748,
                    "duration": 0.15199099999999532
                },
                {
                    "name": "F5",
                    "midi": 77,
                    "time": 82.53111300000003,
                    "velocity": 0.3937007874015748,
                    "duration": 0.15199099999999532
                },
                {
                    "name": "C#5",
                    "midi": 73,
                    "time": 82.68310400000003,
                    "velocity": 0.36220472440944884,
                    "duration": 0.15199099999999532
                },
                {
                    "name": "A#4",
                    "midi": 70,
                    "time": 82.68310400000003,
                    "velocity": 0.36220472440944884,
                    "duration": 0.15199099999999532
                },
                {
                    "name": "F5",
                    "midi": 77,
                    "time": 82.83509500000002,
                    "velocity": 0.36220472440944884,
                    "duration": 0.07599550000000477
                },
                {
                    "name": "C#5",
                    "midi": 73,
                    "time": 82.83509500000002,
                    "velocity": 0.36220472440944884,
                    "duration": 0.07599550000000477
                },
                {
                    "name": "F#4",
                    "midi": 66,
                    "time": 82.98708600000003,
                    "velocity": 0.5590551181102362,
                    "duration": 0.7599549999999908
                },
                {
                    "name": "C#5",
                    "midi": 73,
                    "time": 82.98708600000003,
                    "velocity": 0.3937007874015748,
                    "duration": 0.15199099999999532
                },
                {
                    "name": "A#4",
                    "midi": 70,
                    "time": 83.13907700000003,
                    "velocity": 0.3543307086614173,
                    "duration": 0.15199099999999532
                },
                {
                    "name": "C#5",
                    "midi": 73,
                    "time": 83.29106800000002,
                    "velocity": 0.3543307086614173,
                    "duration": 0.07599550000000477
                },
                {
                    "name": "C#5",
                    "midi": 73,
                    "time": 83.44305900000003,
                    "velocity": 0.3937007874015748,
                    "duration": 0.15199099999999532
                },
                {
                    "name": "A#4",
                    "midi": 70,
                    "time": 83.59505000000003,
                    "velocity": 0.36220472440944884,
                    "duration": 0.15199099999999532
                },
                {
                    "name": "F4",
                    "midi": 65,
                    "time": 83.74704100000002,
                    "velocity": 0.47244094488188976,
                    "duration": 0.15199100000000954
                },
                {
                    "name": "C#5",
                    "midi": 73,
                    "time": 83.74704100000002,
                    "velocity": 0.36220472440944884,
                    "duration": 0.07599550000000477
                },
                {
                    "name": "E4",
                    "midi": 64,
                    "time": 83.89903200000003,
                    "velocity": 0.5669291338582677,
                    "duration": 0.6839595000000003
                },
                {
                    "name": "C#5",
                    "midi": 73,
                    "time": 83.89903200000003,
                    "velocity": 0.3937007874015748,
                    "duration": 0.15199099999999532
                },
                {
                    "name": "A#4",
                    "midi": 70,
                    "time": 84.05102300000003,
                    "velocity": 0.3543307086614173,
                    "duration": 0.15199099999999532
                },
                {
                    "name": "C#5",
                    "midi": 73,
                    "time": 84.20301400000002,
                    "velocity": 0.3543307086614173,
                    "duration": 0.07599550000000477
                },
                {
                    "name": "C#5",
                    "midi": 73,
                    "time": 84.35500500000003,
                    "velocity": 0.3937007874015748,
                    "duration": 0.15199099999999532
                },
                {
                    "name": "A#4",
                    "midi": 70,
                    "time": 84.50699600000003,
                    "velocity": 0.36220472440944884,
                    "duration": 0.15199100000000954
                },
                {
                    "name": "C#5",
                    "midi": 73,
                    "time": 84.65898700000004,
                    "velocity": 0.48031496062992124,
                    "duration": 0.07599550000000477
                },
                {
                    "name": "E4",
                    "midi": 64,
                    "time": 84.65898700000004,
                    "velocity": 0.47244094488188976,
                    "duration": 0.15199100000000954
                },
                {
                    "name": "F4",
                    "midi": 65,
                    "time": 84.81097800000005,
                    "velocity": 0.5905511811023622,
                    "duration": 0.6079640000000239
                },
                {
                    "name": "C4",
                    "midi": 60,
                    "time": 84.96296900000004,
                    "velocity": 0.4251968503937008,
                    "duration": 0.07599550000000477
                },
                {
                    "name": "D#4",
                    "midi": 63,
                    "time": 84.96296900000004,
                    "velocity": 0.4251968503937008,
                    "duration": 0.07599550000000477
                },
                {
                    "name": "C4",
                    "midi": 60,
                    "time": 85.11496000000005,
                    "velocity": 0.4251968503937008,
                    "duration": 0.07599550000000477
                },
                {
                    "name": "D#4",
                    "midi": 63,
                    "time": 85.11496000000005,
                    "velocity": 0.4251968503937008,
                    "duration": 0.07599550000000477
                },
                {
                    "name": "C4",
                    "midi": 60,
                    "time": 85.26695100000006,
                    "velocity": 0.4251968503937008,
                    "duration": 0.07599550000000477
                },
                {
                    "name": "D#4",
                    "midi": 63,
                    "time": 85.26695100000006,
                    "velocity": 0.4251968503937008,
                    "duration": 0.07599550000000477
                },
                {
                    "name": "A#3",
                    "midi": 58,
                    "time": 85.41894200000007,
                    "velocity": 0.4251968503937008,
                    "duration": 0.07599550000000477
                },
                {
                    "name": "G4",
                    "midi": 67,
                    "time": 85.41894200000007,
                    "velocity": 0.4409448818897638,
                    "duration": 0.07599550000000477
                },
                {
                    "name": "C4",
                    "midi": 60,
                    "time": 85.57093300000008,
                    "velocity": 0.4251968503937008,
                    "duration": 0.07599550000000477
                },
                {
                    "name": "A4",
                    "midi": 69,
                    "time": 85.57093300000008,
                    "velocity": 0.48031496062992124,
                    "duration": 0.07599550000000477
                },
                {
                    "name": "C5",
                    "midi": 72,
                    "time": 85.64692850000009,
                    "velocity": 0.5039370078740157,
                    "duration": 0.07599550000000477
                },
                {
                    "name": "C#4",
                    "midi": 61,
                    "time": 85.72292400000009,
                    "velocity": 0.48031496062992124,
                    "duration": 0.07599550000000477
                },
                {
                    "name": "A#4",
                    "midi": 70,
                    "time": 85.72292400000009,
                    "velocity": 0.5748031496062992,
                    "duration": 0.07599550000000477
                },
                {
                    "name": "C4",
                    "midi": 60,
                    "time": 85.8749150000001,
                    "velocity": 0.4251968503937008,
                    "duration": 0.07599550000000477
                },
                {
                    "name": "A4",
                    "midi": 69,
                    "time": 85.8749150000001,
                    "velocity": 0.49606299212598426,
                    "duration": 0.07599550000000477
                },
                {
                    "name": "C#4",
                    "midi": 61,
                    "time": 86.02690600000011,
                    "velocity": 0.41732283464566927,
                    "duration": 0.07599550000000477
                },
                {
                    "name": "A#4",
                    "midi": 70,
                    "time": 86.02690600000011,
                    "velocity": 0.49606299212598426,
                    "duration": 0.07599550000000477
                },
                {
                    "name": "F4",
                    "midi": 65,
                    "time": 86.17889700000012,
                    "velocity": 0.47244094488188976,
                    "duration": 0.07599550000000477
                },
                {
                    "name": "C#5",
                    "midi": 73,
                    "time": 86.17889700000012,
                    "velocity": 0.5590551181102362,
                    "duration": 0.07599550000000477
                },
                {
                    "name": "D#4",
                    "midi": 63,
                    "time": 86.33088800000013,
                    "velocity": 0.41732283464566927,
                    "duration": 0.07599550000000477
                },
                {
                    "name": "C5",
                    "midi": 72,
                    "time": 86.33088800000013,
                    "velocity": 0.49606299212598426,
                    "duration": 0.07599550000000477
                },
                {
                    "name": "C#4",
                    "midi": 61,
                    "time": 86.48287900000014,
                    "velocity": 0.4566929133858268,
                    "duration": 0.07599550000000477
                },
                {
                    "name": "A#4",
                    "midi": 70,
                    "time": 86.48287900000014,
                    "velocity": 0.5511811023622047,
                    "duration": 0.07599550000000477
                },
                {
                    "name": "C#4",
                    "midi": 61,
                    "time": 86.63487000000015,
                    "velocity": 0.5511811023622047,
                    "duration": 0.9119460000000004
                },
                {
                    "name": "A#4",
                    "midi": 70,
                    "time": 86.63487000000015,
                    "velocity": 0.6456692913385826,
                    "duration": 0.9119460000000004
                },
                {
                    "name": "E4",
                    "midi": 64,
                    "time": 87.09084300000015,
                    "velocity": 0.5196850393700787,
                    "duration": 0.4559730000000002
                },
                {
                    "name": "C4",
                    "midi": 60,
                    "time": 87.54681600000015,
                    "velocity": 0.5275590551181102,
                    "duration": 0.4559730000000002
                },
                {
                    "name": "F4",
                    "midi": 65,
                    "time": 87.54681600000015,
                    "velocity": 0.5275590551181102,
                    "duration": 0.4559730000000002
                },
                {
                    "name": "A4",
                    "midi": 69,
                    "time": 87.54681600000015,
                    "velocity": 0.6299212598425197,
                    "duration": 0.4559730000000002
                },
                {
                    "name": "A#4",
                    "midi": 70,
                    "time": 88.45876200000015,
                    "velocity": 0.4881889763779528,
                    "duration": 0.4559730000000002
                },
                {
                    "name": "F4",
                    "midi": 65,
                    "time": 88.45876200000015,
                    "velocity": 0.4094488188976378,
                    "duration": 0.9119459999999862
                },
                {
                    "name": "G#4",
                    "midi": 68,
                    "time": 88.91473500000015,
                    "velocity": 0.4330708661417323,
                    "duration": 0.2913160833333279
                },
                {
                    "name": "G#4",
                    "midi": 68,
                    "time": 89.21871700000014,
                    "velocity": 0.4330708661417323,
                    "duration": 0.15199099999999532
                },
                {
                    "name": "F#4",
                    "midi": 66,
                    "time": 89.37070800000014,
                    "velocity": 0.4881889763779528,
                    "duration": 0.4559730000000002
                },
                {
                    "name": "D#4",
                    "midi": 63,
                    "time": 89.37070800000014,
                    "velocity": 0.4094488188976378,
                    "duration": 0.9119460000000004
                },
                {
                    "name": "G4",
                    "midi": 67,
                    "time": 89.82668100000014,
                    "velocity": 0.4330708661417323,
                    "duration": 0.4559730000000002
                },
                {
                    "name": "A#4",
                    "midi": 70,
                    "time": 90.28265400000014,
                    "velocity": 0.5354330708661418,
                    "duration": 0.4559730000000002
                },
                {
                    "name": "A#5",
                    "midi": 82,
                    "time": 90.28265400000014,
                    "velocity": 0.6299212598425197,
                    "duration": 0.4559730000000002
                },
                {
                    "name": "F5",
                    "midi": 77,
                    "time": 90.28265400000014,
                    "velocity": 0.5354330708661418,
                    "duration": 0.9119459999999862
                },
                {
                    "name": "G#4",
                    "midi": 68,
                    "time": 90.73862700000014,
                    "velocity": 0.47244094488188976,
                    "duration": 0.2913160833333279
                },
                {
                    "name": "G#5",
                    "midi": 80,
                    "time": 90.73862700000014,
                    "velocity": 0.5590551181102362,
                    "duration": 0.2913160833333279
                },
                {
                    "name": "G#4",
                    "midi": 68,
                    "time": 91.04260900000013,
                    "velocity": 0.47244094488188976,
                    "duration": 0.15199099999999532
                },
                {
                    "name": "G#5",
                    "midi": 80,
                    "time": 91.04260900000013,
                    "velocity": 0.5590551181102362,
                    "duration": 0.15199099999999532
                },
                {
                    "name": "G4",
                    "midi": 67,
                    "time": 91.19460000000012,
                    "velocity": 0.5354330708661418,
                    "duration": 0.4559730000000002
                },
                {
                    "name": "G5",
                    "midi": 79,
                    "time": 91.19460000000012,
                    "velocity": 0.6299212598425197,
                    "duration": 0.4559730000000002
                },
                {
                    "name": "D#5",
                    "midi": 75,
                    "time": 91.19460000000012,
                    "velocity": 0.5354330708661418,
                    "duration": 0.9119460000000004
                },
                {
                    "name": "F#4",
                    "midi": 66,
                    "time": 91.65057300000012,
                    "velocity": 0.47244094488188976,
                    "duration": 0.30398200000000486
                },
                {
                    "name": "F#5",
                    "midi": 78,
                    "time": 91.65057300000012,
                    "velocity": 0.5590551181102362,
                    "duration": 0.30398200000000486
                },
                {
                    "name": "G4",
                    "midi": 67,
                    "time": 91.95455500000013,
                    "velocity": 0.47244094488188976,
                    "duration": 0.11399324999999294
                },
                {
                    "name": "G5",
                    "midi": 79,
                    "time": 91.95455500000013,
                    "velocity": 0.5590551181102362,
                    "duration": 0.11399324999999294
                },
                {
                    "name": "G4",
                    "midi": 67,
                    "time": 92.10654600000012,
                    "velocity": 0.5669291338582677,
                    "duration": 0.07599550000000477
                },
                {
                    "name": "A#4",
                    "midi": 70,
                    "time": 92.10654600000012,
                    "velocity": 0.5669291338582677,
                    "duration": 0.07599550000000477
                },
                {
                    "name": "G5",
                    "midi": 79,
                    "time": 92.10654600000012,
                    "velocity": 0.6692913385826772,
                    "duration": 0.07599550000000477
                },
                {
                    "name": "G4",
                    "midi": 67,
                    "time": 92.25853700000013,
                    "velocity": 0.48031496062992124,
                    "duration": 0.07599550000000477
                },
                {
                    "name": "A#4",
                    "midi": 70,
                    "time": 92.25853700000013,
                    "velocity": 0.48031496062992124,
                    "duration": 0.07599550000000477
                },
                {
                    "name": "F5",
                    "midi": 77,
                    "time": 92.25853700000013,
                    "velocity": 0.5669291338582677,
                    "duration": 0.07599550000000477
                },
                {
                    "name": "E5",
                    "midi": 76,
                    "time": 92.41052800000014,
                    "velocity": 0.5433070866141733,
                    "duration": 0.07599550000000477
                },
                {
                    "name": "A#4",
                    "midi": 70,
                    "time": 92.41052800000014,
                    "velocity": 0.4566929133858268,
                    "duration": 0.07599550000000477
                },
                {
                    "name": "G4",
                    "midi": 67,
                    "time": 92.41052800000014,
                    "velocity": 0.4566929133858268,
                    "duration": 0.07599550000000477
                },
                {
                    "name": "E5",
                    "midi": 76,
                    "time": 92.56251900000015,
                    "velocity": 0.6141732283464567,
                    "duration": 0.07599550000000477
                },
                {
                    "name": "A#4",
                    "midi": 70,
                    "time": 92.56251900000015,
                    "velocity": 0.5196850393700787,
                    "duration": 0.07599550000000477
                },
                {
                    "name": "G4",
                    "midi": 67,
                    "time": 92.56251900000015,
                    "velocity": 0.5196850393700787,
                    "duration": 0.07599550000000477
                },
                {
                    "name": "G4",
                    "midi": 67,
                    "time": 92.71451000000016,
                    "velocity": 0.47244094488188976,
                    "duration": 0.07599550000000477
                },
                {
                    "name": "A#4",
                    "midi": 70,
                    "time": 92.71451000000016,
                    "velocity": 0.47244094488188976,
                    "duration": 0.07599550000000477
                },
                {
                    "name": "D5",
                    "midi": 74,
                    "time": 92.71451000000016,
                    "velocity": 0.5590551181102362,
                    "duration": 0.07599550000000477
                },
                {
                    "name": "G4",
                    "midi": 67,
                    "time": 92.86650100000017,
                    "velocity": 0.47244094488188976,
                    "duration": 0.07599550000000477
                },
                {
                    "name": "A#4",
                    "midi": 70,
                    "time": 92.86650100000017,
                    "velocity": 0.47244094488188976,
                    "duration": 0.07599550000000477
                },
                {
                    "name": "C5",
                    "midi": 72,
                    "time": 92.86650100000017,
                    "velocity": 0.5590551181102362,
                    "duration": 0.07599550000000477
                },
                {
                    "name": "C5",
                    "midi": 72,
                    "time": 93.01849200000018,
                    "velocity": 0.6220472440944882,
                    "duration": 0.4559730000000002
                },
                {
                    "name": "A4",
                    "midi": 69,
                    "time": 93.01849200000018,
                    "velocity": 0.5275590551181102,
                    "duration": 0.4559730000000002
                },
                {
                    "name": "F4",
                    "midi": 65,
                    "time": 93.01849200000018,
                    "velocity": 0.5275590551181102,
                    "duration": 0.4534398166666733
                },
                {
                    "name": "D5",
                    "midi": 74,
                    "time": 93.47446500000018,
                    "velocity": 0.5275590551181102,
                    "duration": 0.3014488166666638
                },
                {
                    "name": "A#4",
                    "midi": 70,
                    "time": 93.47446500000018,
                    "velocity": 0.4409448818897638,
                    "duration": 0.3014488166666638
                },
                {
                    "name": "F4",
                    "midi": 65,
                    "time": 93.47446500000018,
                    "velocity": 0.4409448818897638,
                    "duration": 0.3014488166666638
                },
                {
                    "name": "F4",
                    "midi": 65,
                    "time": 93.77844700000017,
                    "velocity": 0.4094488188976378,
                    "duration": 0.15199099999999532
                },
                {
                    "name": "A#4",
                    "midi": 70,
                    "time": 93.77844700000017,
                    "velocity": 0.4094488188976378,
                    "duration": 0.15199099999999532
                },
                {
                    "name": "D5",
                    "midi": 74,
                    "time": 93.77844700000017,
                    "velocity": 0.4881889763779528,
                    "duration": 0.15199099999999532
                },
                {
                    "name": "D#5",
                    "midi": 75,
                    "time": 93.93043800000017,
                    "velocity": 0.6220472440944882,
                    "duration": 0.4559730000000002
                },
                {
                    "name": "A#4",
                    "midi": 70,
                    "time": 93.93043800000017,
                    "velocity": 0.5275590551181102,
                    "duration": 0.4559730000000002
                },
                {
                    "name": "G4",
                    "midi": 67,
                    "time": 93.93043800000017,
                    "velocity": 0.5275590551181102,
                    "duration": 0.4559730000000002
                },
                {
                    "name": "C5",
                    "midi": 72,
                    "time": 94.38641100000017,
                    "velocity": 0.5275590551181102,
                    "duration": 0.3014488166666638
                },
                {
                    "name": "A4",
                    "midi": 69,
                    "time": 94.38641100000017,
                    "velocity": 0.4409448818897638,
                    "duration": 0.3014488166666638
                },
                {
                    "name": "F4",
                    "midi": 65,
                    "time": 94.69039300000016,
                    "velocity": 0.4094488188976378,
                    "duration": 0.15199099999999532
                },
                {
                    "name": "A4",
                    "midi": 69,
                    "time": 94.69039300000016,
                    "velocity": 0.4094488188976378,
                    "duration": 0.15199099999999532
                },
                {
                    "name": "C5",
                    "midi": 72,
                    "time": 94.69039300000016,
                    "velocity": 0.4881889763779528,
                    "duration": 0.15199099999999532
                },
                {
                    "name": "F5",
                    "midi": 77,
                    "time": 94.84238400000015,
                    "velocity": 0.6456692913385826,
                    "duration": 0.911946000000043
                },
                {
                    "name": "F4",
                    "midi": 65,
                    "time": 94.99437500000015,
                    "velocity": 0.4330708661417323,
                    "duration": 0.07599550000000477
                },
                {
                    "name": "A#4",
                    "midi": 70,
                    "time": 94.99437500000015,
                    "velocity": 0.4330708661417323,
                    "duration": 0.07599550000000477
                },
                {
                    "name": "F4",
                    "midi": 65,
                    "time": 95.14636600000016,
                    "velocity": 0.4409448818897638,
                    "duration": 0.07599550000000477
                },
                {
                    "name": "A#4",
                    "midi": 70,
                    "time": 95.14636600000016,
                    "velocity": 0.4409448818897638,
                    "duration": 0.07599550000000477
                },
                {
                    "name": "A#4",
                    "midi": 70,
                    "time": 95.29835700000017,
                    "velocity": 0.5039370078740157,
                    "duration": 0.07599550000000477
                },
                {
                    "name": "F4",
                    "midi": 65,
                    "time": 95.29835700000017,
                    "velocity": 0.5039370078740157,
                    "duration": 0.07599550000000477
                },
                {
                    "name": "F4",
                    "midi": 65,
                    "time": 95.45034800000018,
                    "velocity": 0.44881889763779526,
                    "duration": 0.07599550000000477
                },
                {
                    "name": "A#4",
                    "midi": 70,
                    "time": 95.45034800000018,
                    "velocity": 0.44881889763779526,
                    "duration": 0.07599550000000477
                },
                {
                    "name": "F4",
                    "midi": 65,
                    "time": 95.60233900000019,
                    "velocity": 0.4566929133858268,
                    "duration": 0.07599550000000477
                },
                {
                    "name": "A#4",
                    "midi": 70,
                    "time": 95.60233900000019,
                    "velocity": 0.4566929133858268,
                    "duration": 0.07599550000000477
                },
                {
                    "name": "G#4",
                    "midi": 68,
                    "time": 95.7543300000002,
                    "velocity": 0.47244094488188976,
                    "duration": 0.07599550000000477
                },
                {
                    "name": "A#4",
                    "midi": 70,
                    "time": 95.7543300000002,
                    "velocity": 0.47244094488188976,
                    "duration": 0.07599550000000477
                },
                {
                    "name": "F#5",
                    "midi": 78,
                    "time": 95.7543300000002,
                    "velocity": 0.7086614173228346,
                    "duration": 0.9119460000000572
                },
                {
                    "name": "G#4",
                    "midi": 68,
                    "time": 95.9063210000002,
                    "velocity": 0.47244094488188976,
                    "duration": 0.07599550000000477
                },
                {
                    "name": "A#4",
                    "midi": 70,
                    "time": 95.9063210000002,
                    "velocity": 0.47244094488188976,
                    "duration": 0.07599550000000477
                },
                {
                    "name": "G#4",
                    "midi": 68,
                    "time": 96.05831200000021,
                    "velocity": 0.48031496062992124,
                    "duration": 0.07599550000000477
                },
                {
                    "name": "A#4",
                    "midi": 70,
                    "time": 96.05831200000021,
                    "velocity": 0.48031496062992124,
                    "duration": 0.07599550000000477
                },
                {
                    "name": "A#4",
                    "midi": 70,
                    "time": 96.21030300000022,
                    "velocity": 0.5511811023622047,
                    "duration": 0.07599550000000477
                },
                {
                    "name": "G#4",
                    "midi": 68,
                    "time": 96.21030300000022,
                    "velocity": 0.5511811023622047,
                    "duration": 0.07599550000000477
                },
                {
                    "name": "G#4",
                    "midi": 68,
                    "time": 96.36229400000023,
                    "velocity": 0.4881889763779528,
                    "duration": 0.07599550000000477
                },
                {
                    "name": "A#4",
                    "midi": 70,
                    "time": 96.36229400000023,
                    "velocity": 0.4881889763779528,
                    "duration": 0.07599550000000477
                },
                {
                    "name": "G#4",
                    "midi": 68,
                    "time": 96.51428500000024,
                    "velocity": 0.49606299212598426,
                    "duration": 0.07599550000000477
                },
                {
                    "name": "A#4",
                    "midi": 70,
                    "time": 96.51428500000024,
                    "velocity": 0.49606299212598426,
                    "duration": 0.07599550000000477
                },
                {
                    "name": "G4",
                    "midi": 67,
                    "time": 96.66627600000025,
                    "velocity": 0.5118110236220472,
                    "duration": 0.07599550000000477
                },
                {
                    "name": "A#4",
                    "midi": 70,
                    "time": 96.66627600000025,
                    "velocity": 0.5118110236220472,
                    "duration": 0.07599550000000477
                },
                {
                    "name": "G5",
                    "midi": 79,
                    "time": 96.66627600000025,
                    "velocity": 0.7716535433070866,
                    "duration": 0.9119460000000572
                },
                {
                    "name": "G4",
                    "midi": 67,
                    "time": 96.81826700000026,
                    "velocity": 0.5118110236220472,
                    "duration": 0.07599550000000477
                },
                {
                    "name": "A#4",
                    "midi": 70,
                    "time": 96.81826700000026,
                    "velocity": 0.5118110236220472,
                    "duration": 0.07599550000000477
                },
                {
                    "name": "G4",
                    "midi": 67,
                    "time": 96.97025800000027,
                    "velocity": 0.5118110236220472,
                    "duration": 0.07599550000000477
                },
                {
                    "name": "A#4",
                    "midi": 70,
                    "time": 96.97025800000027,
                    "velocity": 0.5118110236220472,
                    "duration": 0.07599550000000477
                },
                {
                    "name": "A#4",
                    "midi": 70,
                    "time": 97.12224900000028,
                    "velocity": 0.5748031496062992,
                    "duration": 0.07599550000000477
                },
                {
                    "name": "G4",
                    "midi": 67,
                    "time": 97.12224900000028,
                    "velocity": 0.5748031496062992,
                    "duration": 0.07599550000000477
                },
                {
                    "name": "G4",
                    "midi": 67,
                    "time": 97.27424000000029,
                    "velocity": 0.5118110236220472,
                    "duration": 0.07599550000000477
                },
                {
                    "name": "A#4",
                    "midi": 70,
                    "time": 97.27424000000029,
                    "velocity": 0.5118110236220472,
                    "duration": 0.07599550000000477
                },
                {
                    "name": "G4",
                    "midi": 67,
                    "time": 97.4262310000003,
                    "velocity": 0.5118110236220472,
                    "duration": 0.07599550000000477
                },
                {
                    "name": "A#4",
                    "midi": 70,
                    "time": 97.4262310000003,
                    "velocity": 0.5118110236220472,
                    "duration": 0.07599550000000477
                },
                {
                    "name": "G4",
                    "midi": 67,
                    "time": 97.57822200000031,
                    "velocity": 0.5669291338582677,
                    "duration": 0.07599550000000477
                },
                {
                    "name": "A#4",
                    "midi": 70,
                    "time": 97.57822200000031,
                    "velocity": 0.5669291338582677,
                    "duration": 0.07599550000000477
                },
                {
                    "name": "G5",
                    "midi": 79,
                    "time": 97.57822200000031,
                    "velocity": 0.6692913385826772,
                    "duration": 0.07599550000000477
                },
                {
                    "name": "G4",
                    "midi": 67,
                    "time": 97.73021300000032,
                    "velocity": 0.48031496062992124,
                    "duration": 0.07599550000000477
                },
                {
                    "name": "A#4",
                    "midi": 70,
                    "time": 97.73021300000032,
                    "velocity": 0.48031496062992124,
                    "duration": 0.07599550000000477
                },
                {
                    "name": "F5",
                    "midi": 77,
                    "time": 97.73021300000032,
                    "velocity": 0.5669291338582677,
                    "duration": 0.07599550000000477
                },
                {
                    "name": "E5",
                    "midi": 76,
                    "time": 97.88220400000033,
                    "velocity": 0.5433070866141733,
                    "duration": 0.07599550000000477
                },
                {
                    "name": "A#4",
                    "midi": 70,
                    "time": 97.88220400000033,
                    "velocity": 0.4566929133858268,
                    "duration": 0.07599550000000477
                },
                {
                    "name": "G4",
                    "midi": 67,
                    "time": 97.88220400000033,
                    "velocity": 0.4566929133858268,
                    "duration": 0.07599550000000477
                },
                {
                    "name": "E5",
                    "midi": 76,
                    "time": 98.03419500000034,
                    "velocity": 0.6141732283464567,
                    "duration": 0.07599550000000477
                },
                {
                    "name": "A#4",
                    "midi": 70,
                    "time": 98.03419500000034,
                    "velocity": 0.5196850393700787,
                    "duration": 0.07599550000000477
                },
                {
                    "name": "G4",
                    "midi": 67,
                    "time": 98.03419500000034,
                    "velocity": 0.5196850393700787,
                    "duration": 0.07599550000000477
                },
                {
                    "name": "G4",
                    "midi": 67,
                    "time": 98.18618600000035,
                    "velocity": 0.47244094488188976,
                    "duration": 0.07599550000000477
                },
                {
                    "name": "A#4",
                    "midi": 70,
                    "time": 98.18618600000035,
                    "velocity": 0.47244094488188976,
                    "duration": 0.07599550000000477
                },
                {
                    "name": "D5",
                    "midi": 74,
                    "time": 98.18618600000035,
                    "velocity": 0.5590551181102362,
                    "duration": 0.07599550000000477
                },
                {
                    "name": "G4",
                    "midi": 67,
                    "time": 98.33817700000036,
                    "velocity": 0.47244094488188976,
                    "duration": 0.07599550000000477
                },
                {
                    "name": "A#4",
                    "midi": 70,
                    "time": 98.33817700000036,
                    "velocity": 0.47244094488188976,
                    "duration": 0.07599550000000477
                },
                {
                    "name": "C5",
                    "midi": 72,
                    "time": 98.33817700000036,
                    "velocity": 0.5590551181102362,
                    "duration": 0.07599550000000477
                },
                {
                    "name": "C5",
                    "midi": 72,
                    "time": 98.49016800000037,
                    "velocity": 0.6220472440944882,
                    "duration": 0.4559730000000144
                },
                {
                    "name": "F4",
                    "midi": 65,
                    "time": 98.64215900000036,
                    "velocity": 0.4409448818897638,
                    "duration": 0.07599550000000477
                },
                {
                    "name": "A4",
                    "midi": 69,
                    "time": 98.64215900000036,
                    "velocity": 0.4409448818897638,
                    "duration": 0.07599550000000477
                },
                {
                    "name": "F4",
                    "midi": 65,
                    "time": 98.79415000000037,
                    "velocity": 0.4409448818897638,
                    "duration": 0.07599550000000477
                },
                {
                    "name": "A4",
                    "midi": 69,
                    "time": 98.79415000000037,
                    "velocity": 0.4409448818897638,
                    "duration": 0.07599550000000477
                },
                {
                    "name": "D5",
                    "midi": 74,
                    "time": 98.94614100000038,
                    "velocity": 0.5275590551181102,
                    "duration": 0.30398200000000486
                },
                {
                    "name": "F4",
                    "midi": 65,
                    "time": 99.09813200000038,
                    "velocity": 0.3700787401574803,
                    "duration": 0.07599550000000477
                },
                {
                    "name": "A#4",
                    "midi": 70,
                    "time": 99.09813200000038,
                    "velocity": 0.3700787401574803,
                    "duration": 0.07599550000000477
                },
                {
                    "name": "F4",
                    "midi": 65,
                    "time": 99.25012300000039,
                    "velocity": 0.4094488188976378,
                    "duration": 0.15199099999999532
                },
                {
                    "name": "A#4",
                    "midi": 70,
                    "time": 99.25012300000039,
                    "velocity": 0.4094488188976378,
                    "duration": 0.15199099999999532
                },
                {
                    "name": "D5",
                    "midi": 74,
                    "time": 99.25012300000039,
                    "velocity": 0.4881889763779528,
                    "duration": 0.15199099999999532
                },
                {
                    "name": "F5",
                    "midi": 77,
                    "time": 99.40211400000038,
                    "velocity": 0.6220472440944882,
                    "duration": 0.4559730000000144
                },
                {
                    "name": "G4",
                    "midi": 67,
                    "time": 99.55410500000038,
                    "velocity": 0.4409448818897638,
                    "duration": 0.07599550000000477
                },
                {
                    "name": "A#4",
                    "midi": 70,
                    "time": 99.55410500000038,
                    "velocity": 0.4409448818897638,
                    "duration": 0.07599550000000477
                },
                {
                    "name": "G4",
                    "midi": 67,
                    "time": 99.70609600000039,
                    "velocity": 0.4409448818897638,
                    "duration": 0.07599550000000477
                },
                {
                    "name": "A#4",
                    "midi": 70,
                    "time": 99.70609600000039,
                    "velocity": 0.4409448818897638,
                    "duration": 0.07599550000000477
                },
                {
                    "name": "D#5",
                    "midi": 75,
                    "time": 99.8580870000004,
                    "velocity": 0.5275590551181102,
                    "duration": 0.30398200000000486
                },
                {
                    "name": "F4",
                    "midi": 65,
                    "time": 100.01007800000039,
                    "velocity": 0.3700787401574803,
                    "duration": 0.07599550000000477
                },
                {
                    "name": "A4",
                    "midi": 69,
                    "time": 100.01007800000039,
                    "velocity": 0.3700787401574803,
                    "duration": 0.07599550000000477
                },
                {
                    "name": "C5",
                    "midi": 72,
                    "time": 100.1620690000004,
                    "velocity": 0.3858267716535433,
                    "duration": 0.15199099999999532
                },
                {
                    "name": "A4",
                    "midi": 69,
                    "time": 100.1620690000004,
                    "velocity": 0.3228346456692913,
                    "duration": 0.15199099999999532
                },
                {
                    "name": "F4",
                    "midi": 65,
                    "time": 100.1620690000004,
                    "velocity": 0.3228346456692913,
                    "duration": 0.15199099999999532
                },
                {
                    "name": "A#4",
                    "midi": 70,
                    "time": 100.3140600000004,
                    "velocity": 0.48031496062992124,
                    "duration": 0.4559730000000144
                },
                {
                    "name": "F4",
                    "midi": 65,
                    "time": 100.46605100000039,
                    "velocity": 0.3858267716535433,
                    "duration": 0.07599550000000477
                },
                {
                    "name": "F4",
                    "midi": 65,
                    "time": 100.6180420000004,
                    "velocity": 0.3858267716535433,
                    "duration": 0.07599550000000477
                },
                {
                    "name": "F4",
                    "midi": 65,
                    "time": 101.07401500000041,
                    "velocity": 0.3700787401574803,
                    "duration": 0.07599550000000477
                },
                {
                    "name": "C4",
                    "midi": 60,
                    "time": 101.22600600000042,
                    "velocity": 0.4330708661417323,
                    "duration": 0.15199099999999532
                },
                {
                    "name": "F4",
                    "midi": 65,
                    "time": 101.22600600000042,
                    "velocity": 0.4330708661417323,
                    "duration": 0.15199099999999532
                },
                {
                    "name": "D#4",
                    "midi": 63,
                    "time": 101.37799700000042,
                    "velocity": 0.3937007874015748,
                    "duration": 0.15199099999999532
                },
                {
                    "name": "F3",
                    "midi": 53,
                    "time": 101.37799700000042,
                    "velocity": 0.3937007874015748,
                    "duration": 0.15199099999999532
                },
                {
                    "name": "F4",
                    "midi": 65,
                    "time": 101.52998800000042,
                    "velocity": 0.3937007874015748,
                    "duration": 0.07599550000000477
                },
                {
                    "name": "C4",
                    "midi": 60,
                    "time": 101.52998800000042,
                    "velocity": 0.3937007874015748,
                    "duration": 0.07599550000000477
                },
                {
                    "name": "C4",
                    "midi": 60,
                    "time": 101.68197900000042,
                    "velocity": 0.44881889763779526,
                    "duration": 0.15199099999999532
                },
                {
                    "name": "F4",
                    "midi": 65,
                    "time": 101.68197900000042,
                    "velocity": 0.44881889763779526,
                    "duration": 0.15199099999999532
                },
                {
                    "name": "D#4",
                    "midi": 63,
                    "time": 101.83397000000042,
                    "velocity": 0.4251968503937008,
                    "duration": 0.15199099999999532
                },
                {
                    "name": "F3",
                    "midi": 53,
                    "time": 101.83397000000042,
                    "velocity": 0.4251968503937008,
                    "duration": 0.15199099999999532
                },
                {
                    "name": "F4",
                    "midi": 65,
                    "time": 101.98596100000042,
                    "velocity": 0.4251968503937008,
                    "duration": 0.07599550000000477
                },
                {
                    "name": "C4",
                    "midi": 60,
                    "time": 101.98596100000042,
                    "velocity": 0.4251968503937008,
                    "duration": 0.07599550000000477
                },
                {
                    "name": "A#3",
                    "midi": 58,
                    "time": 102.13795200000042,
                    "velocity": 0.47244094488188976,
                    "duration": 0.15199099999999532
                },
                {
                    "name": "F4",
                    "midi": 65,
                    "time": 102.13795200000042,
                    "velocity": 0.47244094488188976,
                    "duration": 0.15199099999999532
                },
                {
                    "name": "D4",
                    "midi": 62,
                    "time": 102.28994300000042,
                    "velocity": 0.4330708661417323,
                    "duration": 0.15199099999999532
                },
                {
                    "name": "F3",
                    "midi": 53,
                    "time": 102.28994300000042,
                    "velocity": 0.4330708661417323,
                    "duration": 0.15199099999999532
                },
                {
                    "name": "F4",
                    "midi": 65,
                    "time": 102.44193400000042,
                    "velocity": 0.4409448818897638,
                    "duration": 0.07599550000000477
                },
                {
                    "name": "A#3",
                    "midi": 58,
                    "time": 102.44193400000042,
                    "velocity": 0.4409448818897638,
                    "duration": 0.07599550000000477
                },
                {
                    "name": "A#3",
                    "midi": 58,
                    "time": 102.59392500000043,
                    "velocity": 0.5039370078740157,
                    "duration": 0.15199099999999532
                },
                {
                    "name": "F4",
                    "midi": 65,
                    "time": 102.59392500000043,
                    "velocity": 0.5039370078740157,
                    "duration": 0.15199099999999532
                },
                {
                    "name": "D4",
                    "midi": 62,
                    "time": 102.74591600000042,
                    "velocity": 0.4645669291338583,
                    "duration": 0.15199099999999532
                },
                {
                    "name": "F3",
                    "midi": 53,
                    "time": 102.74591600000042,
                    "velocity": 0.4645669291338583,
                    "duration": 0.15199099999999532
                },
                {
                    "name": "F4",
                    "midi": 65,
                    "time": 102.89790700000042,
                    "velocity": 0.47244094488188976,
                    "duration": 0.07599550000000477
                },
                {
                    "name": "A#3",
                    "midi": 58,
                    "time": 102.89790700000042,
                    "velocity": 0.47244094488188976,
                    "duration": 0.07599550000000477
                },
                {
                    "name": "C4",
                    "midi": 60,
                    "time": 103.04989800000043,
                    "velocity": 0.5196850393700787,
                    "duration": 0.15199099999999532
                },
                {
                    "name": "F4",
                    "midi": 65,
                    "time": 103.04989800000043,
                    "velocity": 0.5196850393700787,
                    "duration": 0.15199099999999532
                },
                {
                    "name": "D#4",
                    "midi": 63,
                    "time": 103.20188900000042,
                    "velocity": 0.48031496062992124,
                    "duration": 0.15199099999999532
                },
                {
                    "name": "F3",
                    "midi": 53,
                    "time": 103.20188900000042,
                    "velocity": 0.48031496062992124,
                    "duration": 0.15199099999999532
                },
                {
                    "name": "F4",
                    "midi": 65,
                    "time": 103.35388000000042,
                    "velocity": 0.48031496062992124,
                    "duration": 0.07599550000000477
                },
                {
                    "name": "C4",
                    "midi": 60,
                    "time": 103.35388000000042,
                    "velocity": 0.48031496062992124,
                    "duration": 0.07599550000000477
                },
                {
                    "name": "C4",
                    "midi": 60,
                    "time": 103.50587100000043,
                    "velocity": 0.5433070866141733,
                    "duration": 0.15199099999999532
                },
                {
                    "name": "F4",
                    "midi": 65,
                    "time": 103.50587100000043,
                    "velocity": 0.5433070866141733,
                    "duration": 0.15199099999999532
                },
                {
                    "name": "D#4",
                    "midi": 63,
                    "time": 103.65786200000042,
                    "velocity": 0.5039370078740157,
                    "duration": 0.15199099999999532
                },
                {
                    "name": "F3",
                    "midi": 53,
                    "time": 103.65786200000042,
                    "velocity": 0.5039370078740157,
                    "duration": 0.15199099999999532
                },
                {
                    "name": "F4",
                    "midi": 65,
                    "time": 103.80985300000042,
                    "velocity": 0.5196850393700787,
                    "duration": 0.07599550000000477
                },
                {
                    "name": "C4",
                    "midi": 60,
                    "time": 103.80985300000042,
                    "velocity": 0.5196850393700787,
                    "duration": 0.07599550000000477
                },
                {
                    "name": "A#3",
                    "midi": 58,
                    "time": 103.96184400000043,
                    "velocity": 0.5748031496062992,
                    "duration": 0.15199099999999532
                },
                {
                    "name": "F4",
                    "midi": 65,
                    "time": 103.96184400000043,
                    "velocity": 0.5748031496062992,
                    "duration": 0.15199099999999532
                },
                {
                    "name": "D4",
                    "midi": 62,
                    "time": 104.11383500000042,
                    "velocity": 0.5196850393700787,
                    "duration": 0.15199099999999532
                },
                {
                    "name": "F3",
                    "midi": 53,
                    "time": 104.11383500000042,
                    "velocity": 0.5196850393700787,
                    "duration": 0.15199099999999532
                },
                {
                    "name": "F4",
                    "midi": 65,
                    "time": 104.26582600000042,
                    "velocity": 0.5275590551181102,
                    "duration": 0.07599550000000477
                },
                {
                    "name": "A#3",
                    "midi": 58,
                    "time": 104.26582600000042,
                    "velocity": 0.5275590551181102,
                    "duration": 0.07599550000000477
                },
                {
                    "name": "A#3",
                    "midi": 58,
                    "time": 104.41781700000043,
                    "velocity": 0.5984251968503937,
                    "duration": 0.15199099999999532
                },
                {
                    "name": "F4",
                    "midi": 65,
                    "time": 104.41781700000043,
                    "velocity": 0.5984251968503937,
                    "duration": 0.15199099999999532
                },
                {
                    "name": "D4",
                    "midi": 62,
                    "time": 104.56980800000042,
                    "velocity": 0.5590551181102362,
                    "duration": 0.15199099999999532
                },
                {
                    "name": "F3",
                    "midi": 53,
                    "time": 104.56980800000042,
                    "velocity": 0.5590551181102362,
                    "duration": 0.15199099999999532
                },
                {
                    "name": "F4",
                    "midi": 65,
                    "time": 104.72179900000042,
                    "velocity": 0.5590551181102362,
                    "duration": 0.07599550000000477
                },
                {
                    "name": "A#3",
                    "midi": 58,
                    "time": 104.72179900000042,
                    "velocity": 0.5590551181102362,
                    "duration": 0.07599550000000477
                },
                {
                    "name": "F4",
                    "midi": 65,
                    "time": 104.87379000000043,
                    "velocity": 0.6929133858267716,
                    "duration": 0.4559730000000002
                },
                {
                    "name": "C4",
                    "midi": 60,
                    "time": 104.87379000000043,
                    "velocity": 0.5826771653543307,
                    "duration": 0.4559730000000002
                },
                {
                    "name": "A#4",
                    "midi": 70,
                    "time": 105.32976300000043,
                    "velocity": 0.7165354330708661,
                    "duration": 0.4559730000000002
                },
                {
                    "name": "A#3",
                    "midi": 58,
                    "time": 105.32976300000043,
                    "velocity": 0.6062992125984252,
                    "duration": 0.4559730000000002
                },
                {
                    "name": "A4",
                    "midi": 69,
                    "time": 105.78573600000043,
                    "velocity": 0.7401574803149606,
                    "duration": 0.4559730000000002
                },
                {
                    "name": "A3",
                    "midi": 57,
                    "time": 105.78573600000043,
                    "velocity": 0.6220472440944882,
                    "duration": 0.4559730000000002
                },
                {
                    "name": "D5",
                    "midi": 74,
                    "time": 106.24170900000043,
                    "velocity": 0.7637795275590551,
                    "duration": 0.4559730000000002
                },
                {
                    "name": "D4",
                    "midi": 62,
                    "time": 106.24170900000043,
                    "velocity": 0.6456692913385826,
                    "duration": 0.4559730000000002
                },
                {
                    "name": "C5",
                    "midi": 72,
                    "time": 106.69768200000043,
                    "velocity": 0.7874015748031497,
                    "duration": 0.4559730000000002
                },
                {
                    "name": "C4",
                    "midi": 60,
                    "time": 106.69768200000043,
                    "velocity": 0.6692913385826772,
                    "duration": 0.4559730000000002
                },
                {
                    "name": "D#5",
                    "midi": 75,
                    "time": 107.15365500000043,
                    "velocity": 0.8110236220472441,
                    "duration": 0.6079639999999955
                },
                {
                    "name": "D#4",
                    "midi": 63,
                    "time": 107.15365500000043,
                    "velocity": 0.6850393700787402,
                    "duration": 0.6079639999999955
                },
                {
                    "name": "D5",
                    "midi": 74,
                    "time": 107.76161900000042,
                    "velocity": 0.6771653543307087,
                    "duration": 0.11399324999999294
                },
                {
                    "name": "D#4",
                    "midi": 63,
                    "time": 107.76161900000042,
                    "velocity": 0.5748031496062992,
                    "duration": 0.11399324999999294
                },
                {
                    "name": "C5",
                    "midi": 72,
                    "time": 107.91361000000042,
                    "velocity": 0.6771653543307087,
                    "duration": 0.11399324999999294
                },
                {
                    "name": "D#4",
                    "midi": 63,
                    "time": 107.91361000000042,
                    "velocity": 0.5748031496062992,
                    "duration": 0.11399324999999294
                },
                {
                    "name": "D#4",
                    "midi": 63,
                    "time": 108.06560100000041,
                    "velocity": 0.6220472440944882,
                    "duration": 0.11399324999999294
                },
                {
                    "name": "C5",
                    "midi": 72,
                    "time": 108.06560100000041,
                    "velocity": 0.7322834645669292,
                    "duration": 0.11399324999999294
                },
                {
                    "name": "A#4",
                    "midi": 70,
                    "time": 108.21759200000041,
                    "velocity": 0.6929133858267716,
                    "duration": 0.11399324999999294
                },
                {
                    "name": "D#4",
                    "midi": 63,
                    "time": 108.21759200000041,
                    "velocity": 0.5826771653543307,
                    "duration": 0.11399324999999294
                },
                {
                    "name": "A4",
                    "midi": 69,
                    "time": 108.3695830000004,
                    "velocity": 0.6929133858267716,
                    "duration": 0.11399324999999294
                },
                {
                    "name": "D#4",
                    "midi": 63,
                    "time": 108.3695830000004,
                    "velocity": 0.5826771653543307,
                    "duration": 0.11399324999999294
                },
                {
                    "name": "D#4",
                    "midi": 63,
                    "time": 108.5215740000004,
                    "velocity": 0.6220472440944882,
                    "duration": 0.11399324999999294
                },
                {
                    "name": "A4",
                    "midi": 69,
                    "time": 108.5215740000004,
                    "velocity": 0.7322834645669292,
                    "duration": 0.11399324999999294
                },
                {
                    "name": "G4",
                    "midi": 67,
                    "time": 108.6735650000004,
                    "velocity": 0.6771653543307087,
                    "duration": 0.11399324999999294
                },
                {
                    "name": "D#4",
                    "midi": 63,
                    "time": 108.6735650000004,
                    "velocity": 0.5748031496062992,
                    "duration": 0.11399324999999294
                },
                {
                    "name": "F4",
                    "midi": 65,
                    "time": 108.82555600000039,
                    "velocity": 0.6771653543307087,
                    "duration": 0.11399324999999294
                },
                {
                    "name": "D#4",
                    "midi": 63,
                    "time": 108.82555600000039,
                    "velocity": 0.5748031496062992,
                    "duration": 0.11399324999999294
                },
                {
                    "name": "C4",
                    "midi": 60,
                    "time": 108.97754700000038,
                    "velocity": 0.6220472440944882,
                    "duration": 0.11399324999999294
                },
                {
                    "name": "F4",
                    "midi": 65,
                    "time": 108.97754700000038,
                    "velocity": 0.7322834645669292,
                    "duration": 0.11399324999999294
                },
                {
                    "name": "E4",
                    "midi": 64,
                    "time": 109.12953800000038,
                    "velocity": 0.6771653543307087,
                    "duration": 0.11399324999999294
                },
                {
                    "name": "C4",
                    "midi": 60,
                    "time": 109.12953800000038,
                    "velocity": 0.5748031496062992,
                    "duration": 0.11399324999999294
                },
                {
                    "name": "D#4",
                    "midi": 63,
                    "time": 109.28152900000038,
                    "velocity": 0.6771653543307087,
                    "duration": 0.11399324999999294
                },
                {
                    "name": "C4",
                    "midi": 60,
                    "time": 109.28152900000038,
                    "velocity": 0.5748031496062992,
                    "duration": 0.11399324999999294
                },
                {
                    "name": "A3",
                    "midi": 57,
                    "time": 109.43352000000037,
                    "velocity": 0.6220472440944882,
                    "duration": 0.11399324999999294
                },
                {
                    "name": "D#4",
                    "midi": 63,
                    "time": 109.43352000000037,
                    "velocity": 0.7322834645669292,
                    "duration": 0.11399324999999294
                },
                {
                    "name": "D4",
                    "midi": 62,
                    "time": 109.58551100000037,
                    "velocity": 0.6929133858267716,
                    "duration": 0.11399324999999294
                },
                {
                    "name": "A3",
                    "midi": 57,
                    "time": 109.58551100000037,
                    "velocity": 0.5826771653543307,
                    "duration": 0.11399324999999294
                },
                {
                    "name": "C4",
                    "midi": 60,
                    "time": 109.73750200000036,
                    "velocity": 0.6771653543307087,
                    "duration": 0.11399324999999294
                },
                {
                    "name": "A3",
                    "midi": 57,
                    "time": 109.73750200000036,
                    "velocity": 0.5748031496062992,
                    "duration": 0.11399324999999294
                },
                {
                    "name": "A3",
                    "midi": 57,
                    "time": 109.88949300000036,
                    "velocity": 0.6220472440944882,
                    "duration": 0.11399324999999294
                },
                {
                    "name": "C4",
                    "midi": 60,
                    "time": 109.88949300000036,
                    "velocity": 0.7322834645669292,
                    "duration": 0.11399324999999294
                },
                {
                    "name": "A#3",
                    "midi": 58,
                    "time": 110.04148400000035,
                    "velocity": 0.6692913385826772,
                    "duration": 0.11399324999999294
                },
                {
                    "name": "A3",
                    "midi": 57,
                    "time": 110.19347500000035,
                    "velocity": 0.6692913385826772,
                    "duration": 0.11399324999999294
                },
                {
                    "name": "A#3",
                    "midi": 58,
                    "time": 110.34546600000034,
                    "velocity": 0.7322834645669292,
                    "duration": 0.2279865000000001
                },
                {
                    "name": "F3",
                    "midi": 53,
                    "time": 110.80143900000034,
                    "velocity": 0.6220472440944882,
                    "duration": 0.2279865000000001
                },
                {
                    "name": "A#3",
                    "midi": 58,
                    "time": 110.80143900000034,
                    "velocity": 0.6220472440944882,
                    "duration": 0.2279865000000001
                },
                {
                    "name": "D4",
                    "midi": 62,
                    "time": 110.80143900000034,
                    "velocity": 0.7322834645669292,
                    "duration": 0.2279865000000001
                },
                {
                    "name": "A#3",
                    "midi": 58,
                    "time": 111.25741200000034,
                    "velocity": 0.6220472440944882,
                    "duration": 0.2279865000000001
                },
                {
                    "name": "D4",
                    "midi": 62,
                    "time": 111.25741200000034,
                    "velocity": 0.6220472440944882,
                    "duration": 0.2279865000000001
                },
                {
                    "name": "F4",
                    "midi": 65,
                    "time": 111.25741200000034,
                    "velocity": 0.7322834645669292,
                    "duration": 0.2279865000000001
                },
                {
                    "name": "D4",
                    "midi": 62,
                    "time": 111.71338500000034,
                    "velocity": 0.6220472440944882,
                    "duration": 0.2279865000000001
                },
                {
                    "name": "F4",
                    "midi": 65,
                    "time": 111.71338500000034,
                    "velocity": 0.6220472440944882,
                    "duration": 0.2279865000000001
                },
                {
                    "name": "A#4",
                    "midi": 70,
                    "time": 111.71338500000034,
                    "velocity": 0.7322834645669292,
                    "duration": 0.2279865000000001
                },
                {
                    "name": "D4",
                    "midi": 62,
                    "time": 112.16935800000034,
                    "velocity": 0.6220472440944882,
                    "duration": 0.30398200000000486
                },
                {
                    "name": "F4",
                    "midi": 65,
                    "time": 112.16935800000034,
                    "velocity": 0.6220472440944882,
                    "duration": 0.30398200000000486
                },
                {
                    "name": "A#4",
                    "midi": 70,
                    "time": 112.16935800000034,
                    "velocity": 0.6220472440944882,
                    "duration": 0.30398200000000486
                },
                {
                    "name": "D5",
                    "midi": 74,
                    "time": 112.16935800000034,
                    "velocity": 0.7322834645669292,
                    "duration": 0.30398200000000486
                },
                {
                    "name": "F4",
                    "midi": 65,
                    "time": 113.08130400000034,
                    "velocity": 0.6220472440944882,
                    "duration": 0.30398200000000486
                },
                {
                    "name": "A#4",
                    "midi": 70,
                    "time": 113.08130400000034,
                    "velocity": 0.6220472440944882,
                    "duration": 0.30398200000000486
                },
                {
                    "name": "F5",
                    "midi": 77,
                    "time": 113.08130400000034,
                    "velocity": 0.7322834645669292,
                    "duration": 0.30398200000000486
                },
                {
                    "name": "D5",
                    "midi": 74,
                    "time": 113.99325000000034,
                    "velocity": 0.7795275590551181,
                    "duration": 0.30398200000000486
                },
                {
                    "name": "A#5",
                    "midi": 82,
                    "time": 113.99325000000034,
                    "velocity": 0.9133858267716536,
                    "duration": 0.30398200000000486
                }
            ],
            "controlChanges": {},
            "id": 1,
            "name": "Piano right",
            "instrumentNumber": 0,
            "instrument": "acoustic grand piano",
            "instrumentFamily": "piano",
            "channelNumber": 0,
            "isPercussion": false
        },
        {
            "startTime": 0.8359505,
            "duration": 114.29723200000085,
            "length": 714,
            "notes": [
                {
                    "name": "A#2",
                    "midi": 46,
                    "time": 0.8359505,
                    "velocity": 0.2755905511811024,
                    "duration": 0.3799775000000001
                },
                {
                    "name": "C#4",
                    "midi": 61,
                    "time": 0.911946,
                    "velocity": 0.31496062992125984,
                    "duration": 0.3039820000000001
                },
                {
                    "name": "A#2",
                    "midi": 46,
                    "time": 1.2919235000000002,
                    "velocity": 0.2755905511811024,
                    "duration": 0.3799775000000001
                },
                {
                    "name": "C#4",
                    "midi": 61,
                    "time": 1.3679190000000003,
                    "velocity": 0.31496062992125984,
                    "duration": 0.303982
                },
                {
                    "name": "A#2",
                    "midi": 46,
                    "time": 1.7478965000000004,
                    "velocity": 0.2755905511811024,
                    "duration": 0.3799775000000003
                },
                {
                    "name": "C#4",
                    "midi": 61,
                    "time": 1.8238920000000005,
                    "velocity": 0.31496062992125984,
                    "duration": 0.3039820000000002
                },
                {
                    "name": "A#2",
                    "midi": 46,
                    "time": 2.2038695000000006,
                    "velocity": 0.2755905511811024,
                    "duration": 0.37997749999999986
                },
                {
                    "name": "C#4",
                    "midi": 61,
                    "time": 2.2798650000000005,
                    "velocity": 0.31496062992125984,
                    "duration": 0.303982
                },
                {
                    "name": "A#2",
                    "midi": 46,
                    "time": 2.6598425000000003,
                    "velocity": 0.2755905511811024,
                    "duration": 0.37997749999999986
                },
                {
                    "name": "C#4",
                    "midi": 61,
                    "time": 2.735838,
                    "velocity": 0.31496062992125984,
                    "duration": 0.303982
                },
                {
                    "name": "A#2",
                    "midi": 46,
                    "time": 3.1158155,
                    "velocity": 0.2755905511811024,
                    "duration": 0.37997749999999986
                },
                {
                    "name": "C#4",
                    "midi": 61,
                    "time": 3.191811,
                    "velocity": 0.31496062992125984,
                    "duration": 0.303982
                },
                {
                    "name": "A#2",
                    "midi": 46,
                    "time": 3.5717885,
                    "velocity": 0.2755905511811024,
                    "duration": 0.37997749999999986
                },
                {
                    "name": "C#4",
                    "midi": 61,
                    "time": 3.6477839999999997,
                    "velocity": 0.31496062992125984,
                    "duration": 0.303982
                },
                {
                    "name": "A#2",
                    "midi": 46,
                    "time": 4.0277614999999996,
                    "velocity": 0.2755905511811024,
                    "duration": 0.37997750000000075
                },
                {
                    "name": "C#4",
                    "midi": 61,
                    "time": 4.103757,
                    "velocity": 0.31496062992125984,
                    "duration": 0.3039820000000004
                },
                {
                    "name": "A2",
                    "midi": 45,
                    "time": 4.55973,
                    "velocity": 0.3858267716535433,
                    "duration": 0.15199099999999977
                },
                {
                    "name": "F3",
                    "midi": 53,
                    "time": 4.711721,
                    "velocity": 0.31496062992125984,
                    "duration": 0.07599550000000033
                },
                {
                    "name": "F3",
                    "midi": 53,
                    "time": 4.8637120000000005,
                    "velocity": 0.33070866141732286,
                    "duration": 0.07599550000000033
                },
                {
                    "name": "F2",
                    "midi": 41,
                    "time": 5.015703000000001,
                    "velocity": 0.33070866141732286,
                    "duration": 0.15199099999999977
                },
                {
                    "name": "F3",
                    "midi": 53,
                    "time": 5.167694000000001,
                    "velocity": 0.3700787401574803,
                    "duration": 0.07599550000000033
                },
                {
                    "name": "F3",
                    "midi": 53,
                    "time": 5.3196850000000016,
                    "velocity": 0.3937007874015748,
                    "duration": 0.07599550000000033
                },
                {
                    "name": "A#2",
                    "midi": 46,
                    "time": 5.471676000000002,
                    "velocity": 0.4251968503937008,
                    "duration": 0.15199099999999977
                },
                {
                    "name": "F3",
                    "midi": 53,
                    "time": 5.623667000000002,
                    "velocity": 0.33858267716535434,
                    "duration": 0.07599550000000033
                },
                {
                    "name": "F3",
                    "midi": 53,
                    "time": 5.775658000000003,
                    "velocity": 0.36220472440944884,
                    "duration": 0.07599550000000033
                },
                {
                    "name": "D#2",
                    "midi": 39,
                    "time": 5.927649000000003,
                    "velocity": 0.4566929133858268,
                    "duration": 0.15199099999999977
                },
                {
                    "name": "F#3",
                    "midi": 54,
                    "time": 6.079640000000003,
                    "velocity": 0.3779527559055118,
                    "duration": 0.07599550000000033
                },
                {
                    "name": "F#3",
                    "midi": 54,
                    "time": 6.231631000000004,
                    "velocity": 0.3779527559055118,
                    "duration": 0.07599550000000033
                },
                {
                    "name": "F2",
                    "midi": 41,
                    "time": 6.383622000000004,
                    "velocity": 0.47244094488188976,
                    "duration": 0.15199099999999977
                },
                {
                    "name": "F3",
                    "midi": 53,
                    "time": 6.535613000000004,
                    "velocity": 0.3858267716535433,
                    "duration": 0.07599550000000033
                },
                {
                    "name": "F3",
                    "midi": 53,
                    "time": 6.687604000000005,
                    "velocity": 0.36220472440944884,
                    "duration": 0.07599550000000033
                },
                {
                    "name": "F3",
                    "midi": 53,
                    "time": 6.839595000000005,
                    "velocity": 0.4330708661417323,
                    "duration": 0.07599550000000033
                },
                {
                    "name": "F3",
                    "midi": 53,
                    "time": 6.991586000000006,
                    "velocity": 0.36220472440944884,
                    "duration": 0.07599550000000033
                },
                {
                    "name": "F3",
                    "midi": 53,
                    "time": 7.143577000000007,
                    "velocity": 0.36220472440944884,
                    "duration": 0.07599550000000033
                },
                {
                    "name": "F3",
                    "midi": 53,
                    "time": 7.295568000000007,
                    "velocity": 0.4409448818897638,
                    "duration": 0.15199099999999977
                },
                {
                    "name": "F#3",
                    "midi": 54,
                    "time": 7.447559000000007,
                    "velocity": 0.36220472440944884,
                    "duration": 0.15199099999999977
                },
                {
                    "name": "F3",
                    "midi": 53,
                    "time": 7.599550000000007,
                    "velocity": 0.3779527559055118,
                    "duration": 0.07599550000000033
                },
                {
                    "name": "F3",
                    "midi": 53,
                    "time": 7.751541000000008,
                    "velocity": 0.4094488188976378,
                    "duration": 0.07599550000000033
                },
                {
                    "name": "F3",
                    "midi": 53,
                    "time": 7.903532000000008,
                    "velocity": 0.36220472440944884,
                    "duration": 0.07599550000000033
                },
                {
                    "name": "F3",
                    "midi": 53,
                    "time": 8.055523000000008,
                    "velocity": 0.31496062992125984,
                    "duration": 0.07599549999999944
                },
                {
                    "name": "A#2",
                    "midi": 46,
                    "time": 8.131518500000007,
                    "velocity": 0.2755905511811024,
                    "duration": 0.37997749999999897
                },
                {
                    "name": "C#4",
                    "midi": 61,
                    "time": 8.207514000000007,
                    "velocity": 0.31496062992125984,
                    "duration": 0.30398199999999953
                },
                {
                    "name": "A#2",
                    "midi": 46,
                    "time": 8.587491500000006,
                    "velocity": 0.28346456692913385,
                    "duration": 0.37997749999999897
                },
                {
                    "name": "C#4",
                    "midi": 61,
                    "time": 8.663487000000005,
                    "velocity": 0.3228346456692913,
                    "duration": 0.30398199999999953
                },
                {
                    "name": "A#2",
                    "midi": 46,
                    "time": 9.043464500000004,
                    "velocity": 0.29133858267716534,
                    "duration": 0.37997749999999897
                },
                {
                    "name": "C#4",
                    "midi": 61,
                    "time": 9.119460000000004,
                    "velocity": 0.33070866141732286,
                    "duration": 0.30398199999999953
                },
                {
                    "name": "A#2",
                    "midi": 46,
                    "time": 9.499437500000003,
                    "velocity": 0.3464566929133858,
                    "duration": 0.37997749999999897
                },
                {
                    "name": "C#4",
                    "midi": 61,
                    "time": 9.575433000000002,
                    "velocity": 0.41732283464566927,
                    "duration": 0.30398199999999953
                },
                {
                    "name": "D#3",
                    "midi": 51,
                    "time": 10.031406000000002,
                    "velocity": 0.5433070866141733,
                    "duration": 0.4559729999999984
                },
                {
                    "name": "A#3",
                    "midi": 58,
                    "time": 10.183397000000003,
                    "velocity": 0.3858267716535433,
                    "duration": 0.07599549999999944
                },
                {
                    "name": "A#3",
                    "midi": 58,
                    "time": 10.335388000000002,
                    "velocity": 0.36220472440944884,
                    "duration": 0.07599549999999944
                },
                {
                    "name": "F3",
                    "midi": 53,
                    "time": 10.487379,
                    "velocity": 0.47244094488188976,
                    "duration": 0.30398199999999775
                },
                {
                    "name": "A#3",
                    "midi": 58,
                    "time": 10.487379,
                    "velocity": 0.4330708661417323,
                    "duration": 0.07599549999999944
                },
                {
                    "name": "A#3",
                    "midi": 58,
                    "time": 10.63937,
                    "velocity": 0.36220472440944884,
                    "duration": 0.07599549999999944
                },
                {
                    "name": "F#3",
                    "midi": 54,
                    "time": 10.791360999999998,
                    "velocity": 0.47244094488188976,
                    "duration": 0.15199099999999888
                },
                {
                    "name": "A#3",
                    "midi": 58,
                    "time": 10.791360999999998,
                    "velocity": 0.36220472440944884,
                    "duration": 0.07599549999999944
                },
                {
                    "name": "G#3",
                    "midi": 56,
                    "time": 10.943351999999997,
                    "velocity": 0.47244094488188976,
                    "duration": 0.2279865000000001
                },
                {
                    "name": "G#3",
                    "midi": 56,
                    "time": 11.095342999999998,
                    "velocity": 0.3858267716535433,
                    "duration": 0.1393250833333326
                },
                {
                    "name": "G#3",
                    "midi": 56,
                    "time": 11.247333999999997,
                    "velocity": 0.36220472440944884,
                    "duration": 0.07599549999999944
                },
                {
                    "name": "F#3",
                    "midi": 54,
                    "time": 11.399324999999996,
                    "velocity": 0.47244094488188976,
                    "duration": 0.3293138333333303
                },
                {
                    "name": "G#3",
                    "midi": 56,
                    "time": 11.399324999999996,
                    "velocity": 0.4330708661417323,
                    "duration": 0.07599549999999944
                },
                {
                    "name": "G#3",
                    "midi": 56,
                    "time": 11.551315999999995,
                    "velocity": 0.36220472440944884,
                    "duration": 0.07599549999999944
                },
                {
                    "name": "G#3",
                    "midi": 56,
                    "time": 11.703306999999993,
                    "velocity": 0.36220472440944884,
                    "duration": 0.07599549999999944
                },
                {
                    "name": "F3",
                    "midi": 53,
                    "time": 11.855297999999992,
                    "velocity": 0.3858267716535433,
                    "duration": 0.9119460000000004
                },
                {
                    "name": "G#3",
                    "midi": 56,
                    "time": 11.855297999999992,
                    "velocity": 0.4409448818897638,
                    "duration": 0.9119460000000004
                },
                {
                    "name": "C#4",
                    "midi": 61,
                    "time": 12.311270999999993,
                    "velocity": 0.4330708661417323,
                    "duration": 0.30398199999999953
                },
                {
                    "name": "C4",
                    "midi": 60,
                    "time": 12.615252999999992,
                    "velocity": 0.4094488188976378,
                    "duration": 0.11399325000000005
                },
                {
                    "name": "F#3",
                    "midi": 54,
                    "time": 12.767243999999993,
                    "velocity": 0.3858267716535433,
                    "duration": 0.9119460000000004
                },
                {
                    "name": "C4",
                    "midi": 60,
                    "time": 12.767243999999993,
                    "velocity": 0.4330708661417323,
                    "duration": 0.30398199999999953
                },
                {
                    "name": "A#3",
                    "midi": 58,
                    "time": 13.071225999999992,
                    "velocity": 0.4094488188976378,
                    "duration": 0.11399325000000005
                },
                {
                    "name": "C#4",
                    "midi": 61,
                    "time": 13.223216999999993,
                    "velocity": 0.4330708661417323,
                    "duration": 0.30398199999999953
                },
                {
                    "name": "A#3",
                    "midi": 58,
                    "time": 13.527198999999992,
                    "velocity": 0.4094488188976378,
                    "duration": 0.11399325000000005
                },
                {
                    "name": "C#3",
                    "midi": 49,
                    "time": 13.679189999999993,
                    "velocity": 0.3858267716535433,
                    "duration": 0.9119460000000004
                },
                {
                    "name": "A#3",
                    "midi": 58,
                    "time": 13.679189999999993,
                    "velocity": 0.4330708661417323,
                    "duration": 0.30398199999999953
                },
                {
                    "name": "G#3",
                    "midi": 56,
                    "time": 13.983171999999993,
                    "velocity": 0.4094488188976378,
                    "duration": 0.11399325000000005
                },
                {
                    "name": "C#4",
                    "midi": 61,
                    "time": 14.135162999999993,
                    "velocity": 0.4330708661417323,
                    "duration": 0.30398199999999953
                },
                {
                    "name": "G#3",
                    "midi": 56,
                    "time": 14.439144999999993,
                    "velocity": 0.4094488188976378,
                    "duration": 0.11399325000000005
                },
                {
                    "name": "G#2",
                    "midi": 44,
                    "time": 14.591135999999993,
                    "velocity": 0.3228346456692913,
                    "duration": 0.9119460000000004
                },
                {
                    "name": "G#3",
                    "midi": 56,
                    "time": 14.591135999999993,
                    "velocity": 0.3858267716535433,
                    "duration": 0.9119460000000004
                },
                {
                    "name": "C#2",
                    "midi": 37,
                    "time": 15.503081999999994,
                    "velocity": 0.3228346456692913,
                    "duration": 0.9119459999999986
                },
                {
                    "name": "F3",
                    "midi": 53,
                    "time": 16.415027999999992,
                    "velocity": 0.33858267716535434,
                    "duration": 0.15199099999999888
                },
                {
                    "name": "F#3",
                    "midi": 54,
                    "time": 16.56701899999999,
                    "velocity": 0.3228346456692913,
                    "duration": 0.15199099999999888
                },
                {
                    "name": "F3",
                    "midi": 53,
                    "time": 16.71900999999999,
                    "velocity": 0.2992125984251969,
                    "duration": 0.15199099999999888
                },
                {
                    "name": "D#3",
                    "midi": 51,
                    "time": 16.87100099999999,
                    "velocity": 0.3228346456692913,
                    "duration": 0.15199099999999888
                },
                {
                    "name": "C#3",
                    "midi": 49,
                    "time": 17.022991999999988,
                    "velocity": 0.2992125984251969,
                    "duration": 0.15199099999999888
                },
                {
                    "name": "C3",
                    "midi": 48,
                    "time": 17.174982999999987,
                    "velocity": 0.2992125984251969,
                    "duration": 0.07599550000000121
                },
                {
                    "name": "A#2",
                    "midi": 46,
                    "time": 17.250978499999988,
                    "velocity": 0.2755905511811024,
                    "duration": 0.3799775000000025
                },
                {
                    "name": "C#4",
                    "midi": 61,
                    "time": 17.32697399999999,
                    "velocity": 0.31496062992125984,
                    "duration": 0.3039820000000013
                },
                {
                    "name": "A#2",
                    "midi": 46,
                    "time": 17.70695149999999,
                    "velocity": 0.2755905511811024,
                    "duration": 0.3799775000000025
                },
                {
                    "name": "C#4",
                    "midi": 61,
                    "time": 17.782946999999993,
                    "velocity": 0.31496062992125984,
                    "duration": 0.3039820000000013
                },
                {
                    "name": "A#2",
                    "midi": 46,
                    "time": 18.162924499999995,
                    "velocity": 0.2755905511811024,
                    "duration": 0.3799775000000025
                },
                {
                    "name": "C#4",
                    "midi": 61,
                    "time": 18.238919999999997,
                    "velocity": 0.31496062992125984,
                    "duration": 0.3039820000000013
                },
                {
                    "name": "A#2",
                    "midi": 46,
                    "time": 18.6188975,
                    "velocity": 0.2755905511811024,
                    "duration": 0.3799775000000025
                },
                {
                    "name": "C#4",
                    "midi": 61,
                    "time": 18.694893,
                    "velocity": 0.31496062992125984,
                    "duration": 0.3039820000000013
                },
                {
                    "name": "A#2",
                    "midi": 46,
                    "time": 19.074870500000003,
                    "velocity": 0.2755905511811024,
                    "duration": 0.3799775000000025
                },
                {
                    "name": "C#4",
                    "midi": 61,
                    "time": 19.150866000000004,
                    "velocity": 0.31496062992125984,
                    "duration": 0.3039820000000013
                },
                {
                    "name": "A#2",
                    "midi": 46,
                    "time": 19.530843500000007,
                    "velocity": 0.2755905511811024,
                    "duration": 0.3799775000000025
                },
                {
                    "name": "C#4",
                    "midi": 61,
                    "time": 19.606839000000008,
                    "velocity": 0.31496062992125984,
                    "duration": 0.3039820000000013
                },
                {
                    "name": "A#2",
                    "midi": 46,
                    "time": 19.98681650000001,
                    "velocity": 0.2755905511811024,
                    "duration": 0.3799775000000025
                },
                {
                    "name": "C#4",
                    "midi": 61,
                    "time": 20.06281200000001,
                    "velocity": 0.31496062992125984,
                    "duration": 0.3039820000000013
                },
                {
                    "name": "A#2",
                    "midi": 46,
                    "time": 20.442789500000014,
                    "velocity": 0.2755905511811024,
                    "duration": 0.3799775000000025
                },
                {
                    "name": "C#4",
                    "midi": 61,
                    "time": 20.518785000000015,
                    "velocity": 0.31496062992125984,
                    "duration": 0.3039820000000013
                },
                {
                    "name": "A2",
                    "midi": 45,
                    "time": 20.974758000000016,
                    "velocity": 0.3858267716535433,
                    "duration": 0.15199099999999888
                },
                {
                    "name": "F3",
                    "midi": 53,
                    "time": 21.126749000000014,
                    "velocity": 0.31496062992125984,
                    "duration": 0.07599550000000121
                },
                {
                    "name": "F3",
                    "midi": 53,
                    "time": 21.278740000000017,
                    "velocity": 0.33070866141732286,
                    "duration": 0.07599550000000121
                },
                {
                    "name": "F2",
                    "midi": 41,
                    "time": 21.43073100000002,
                    "velocity": 0.33070866141732286,
                    "duration": 0.15199099999999888
                },
                {
                    "name": "F3",
                    "midi": 53,
                    "time": 21.582722000000018,
                    "velocity": 0.3700787401574803,
                    "duration": 0.07599550000000121
                },
                {
                    "name": "F3",
                    "midi": 53,
                    "time": 21.73471300000002,
                    "velocity": 0.3937007874015748,
                    "duration": 0.07599550000000121
                },
                {
                    "name": "A#2",
                    "midi": 46,
                    "time": 21.886704000000023,
                    "velocity": 0.4251968503937008,
                    "duration": 0.15199099999999888
                },
                {
                    "name": "F3",
                    "midi": 53,
                    "time": 22.038695000000022,
                    "velocity": 0.33858267716535434,
                    "duration": 0.07599550000000121
                },
                {
                    "name": "F3",
                    "midi": 53,
                    "time": 22.190686000000024,
                    "velocity": 0.36220472440944884,
                    "duration": 0.07599550000000121
                },
                {
                    "name": "D#2",
                    "midi": 39,
                    "time": 22.342677000000027,
                    "velocity": 0.4566929133858268,
                    "duration": 0.15199099999999888
                },
                {
                    "name": "F#3",
                    "midi": 54,
                    "time": 22.494668000000026,
                    "velocity": 0.3779527559055118,
                    "duration": 0.07599550000000121
                },
                {
                    "name": "F#3",
                    "midi": 54,
                    "time": 22.646659000000028,
                    "velocity": 0.3779527559055118,
                    "duration": 0.07599550000000121
                },
                {
                    "name": "F2",
                    "midi": 41,
                    "time": 22.79865000000003,
                    "velocity": 0.47244094488188976,
                    "duration": 0.15199099999999888
                },
                {
                    "name": "F3",
                    "midi": 53,
                    "time": 22.95064100000003,
                    "velocity": 0.3858267716535433,
                    "duration": 0.07599550000000121
                },
                {
                    "name": "F3",
                    "midi": 53,
                    "time": 23.102632000000032,
                    "velocity": 0.36220472440944884,
                    "duration": 0.07599550000000121
                },
                {
                    "name": "F3",
                    "midi": 53,
                    "time": 23.254623000000034,
                    "velocity": 0.4330708661417323,
                    "duration": 0.07599550000000121
                },
                {
                    "name": "F3",
                    "midi": 53,
                    "time": 23.406614000000037,
                    "velocity": 0.36220472440944884,
                    "duration": 0.07599550000000121
                },
                {
                    "name": "F3",
                    "midi": 53,
                    "time": 23.55860500000004,
                    "velocity": 0.36220472440944884,
                    "duration": 0.07599550000000121
                },
                {
                    "name": "F3",
                    "midi": 53,
                    "time": 23.71059600000004,
                    "velocity": 0.4409448818897638,
                    "duration": 0.15199099999999888
                },
                {
                    "name": "F#3",
                    "midi": 54,
                    "time": 23.86258700000004,
                    "velocity": 0.36220472440944884,
                    "duration": 0.15199099999999888
                },
                {
                    "name": "F3",
                    "midi": 53,
                    "time": 24.01457800000004,
                    "velocity": 0.3779527559055118,
                    "duration": 0.07599550000000121
                },
                {
                    "name": "F3",
                    "midi": 53,
                    "time": 24.16656900000004,
                    "velocity": 0.4094488188976378,
                    "duration": 0.07599550000000121
                },
                {
                    "name": "F3",
                    "midi": 53,
                    "time": 24.318560000000044,
                    "velocity": 0.36220472440944884,
                    "duration": 0.07599550000000121
                },
                {
                    "name": "F3",
                    "midi": 53,
                    "time": 24.470551000000047,
                    "velocity": 0.31496062992125984,
                    "duration": 0.07599550000000121
                },
                {
                    "name": "A#2",
                    "midi": 46,
                    "time": 24.546546500000048,
                    "velocity": 0.2755905511811024,
                    "duration": 0.3799775000000025
                },
                {
                    "name": "C#4",
                    "midi": 61,
                    "time": 24.62254200000005,
                    "velocity": 0.31496062992125984,
                    "duration": 0.3039820000000013
                },
                {
                    "name": "A#2",
                    "midi": 46,
                    "time": 25.00251950000005,
                    "velocity": 0.28346456692913385,
                    "duration": 0.3799775000000025
                },
                {
                    "name": "C#4",
                    "midi": 61,
                    "time": 25.078515000000053,
                    "velocity": 0.3228346456692913,
                    "duration": 0.3039820000000013
                },
                {
                    "name": "A#2",
                    "midi": 46,
                    "time": 25.458492500000055,
                    "velocity": 0.29133858267716534,
                    "duration": 0.3799775000000025
                },
                {
                    "name": "C#4",
                    "midi": 61,
                    "time": 25.534488000000056,
                    "velocity": 0.33070866141732286,
                    "duration": 0.3039820000000013
                },
                {
                    "name": "A#2",
                    "midi": 46,
                    "time": 25.91446550000006,
                    "velocity": 0.3464566929133858,
                    "duration": 0.3799775000000025
                },
                {
                    "name": "C#4",
                    "midi": 61,
                    "time": 25.99046100000006,
                    "velocity": 0.41732283464566927,
                    "duration": 0.3039820000000013
                },
                {
                    "name": "D#3",
                    "midi": 51,
                    "time": 26.44643400000006,
                    "velocity": 0.5433070866141733,
                    "duration": 0.45597300000000374
                },
                {
                    "name": "A#3",
                    "midi": 58,
                    "time": 26.59842500000006,
                    "velocity": 0.3858267716535433,
                    "duration": 0.07599550000000121
                },
                {
                    "name": "A#3",
                    "midi": 58,
                    "time": 26.75041600000006,
                    "velocity": 0.36220472440944884,
                    "duration": 0.07599550000000121
                },
                {
                    "name": "F3",
                    "midi": 53,
                    "time": 26.902407000000064,
                    "velocity": 0.47244094488188976,
                    "duration": 0.30398200000000486
                },
                {
                    "name": "A#3",
                    "midi": 58,
                    "time": 26.902407000000064,
                    "velocity": 0.4330708661417323,
                    "duration": 0.07599550000000121
                },
                {
                    "name": "A#3",
                    "midi": 58,
                    "time": 27.054398000000067,
                    "velocity": 0.36220472440944884,
                    "duration": 0.07599550000000121
                },
                {
                    "name": "F#3",
                    "midi": 54,
                    "time": 27.20638900000007,
                    "velocity": 0.47244094488188976,
                    "duration": 0.15199100000000243
                },
                {
                    "name": "A#3",
                    "midi": 58,
                    "time": 27.20638900000007,
                    "velocity": 0.36220472440944884,
                    "duration": 0.07599550000000121
                },
                {
                    "name": "G#3",
                    "midi": 56,
                    "time": 27.35838000000007,
                    "velocity": 0.47244094488188976,
                    "duration": 0.2279865000000001
                },
                {
                    "name": "G#3",
                    "midi": 56,
                    "time": 27.51037100000007,
                    "velocity": 0.3858267716535433,
                    "duration": 0.13932508333333615
                },
                {
                    "name": "G#3",
                    "midi": 56,
                    "time": 27.662362000000073,
                    "velocity": 0.36220472440944884,
                    "duration": 0.07599550000000121
                },
                {
                    "name": "F#3",
                    "midi": 54,
                    "time": 27.814353000000075,
                    "velocity": 0.47244094488188976,
                    "duration": 0.3293138333333374
                },
                {
                    "name": "G#3",
                    "midi": 56,
                    "time": 27.814353000000075,
                    "velocity": 0.4330708661417323,
                    "duration": 0.07599550000000121
                },
                {
                    "name": "G#3",
                    "midi": 56,
                    "time": 27.966344000000078,
                    "velocity": 0.36220472440944884,
                    "duration": 0.07599550000000121
                },
                {
                    "name": "G#3",
                    "midi": 56,
                    "time": 28.11833500000008,
                    "velocity": 0.36220472440944884,
                    "duration": 0.07599549999999766
                },
                {
                    "name": "F3",
                    "midi": 53,
                    "time": 28.27032600000008,
                    "velocity": 0.3858267716535433,
                    "duration": 0.9119460000000004
                },
                {
                    "name": "G#3",
                    "midi": 56,
                    "time": 28.27032600000008,
                    "velocity": 0.4409448818897638,
                    "duration": 0.9119460000000004
                },
                {
                    "name": "C#4",
                    "midi": 61,
                    "time": 28.72629900000008,
                    "velocity": 0.4330708661417323,
                    "duration": 0.3039820000000013
                },
                {
                    "name": "C4",
                    "midi": 60,
                    "time": 29.03028100000008,
                    "velocity": 0.4094488188976378,
                    "duration": 0.11399325000000005
                },
                {
                    "name": "F#3",
                    "midi": 54,
                    "time": 29.18227200000008,
                    "velocity": 0.3858267716535433,
                    "duration": 0.9119460000000004
                },
                {
                    "name": "C4",
                    "midi": 60,
                    "time": 29.18227200000008,
                    "velocity": 0.4330708661417323,
                    "duration": 0.3039820000000013
                },
                {
                    "name": "A#3",
                    "midi": 58,
                    "time": 29.48625400000008,
                    "velocity": 0.4094488188976378,
                    "duration": 0.11399325000000005
                },
                {
                    "name": "C#4",
                    "midi": 61,
                    "time": 29.63824500000008,
                    "velocity": 0.4330708661417323,
                    "duration": 0.3039820000000013
                },
                {
                    "name": "A#3",
                    "midi": 58,
                    "time": 29.94222700000008,
                    "velocity": 0.4094488188976378,
                    "duration": 0.11399325000000005
                },
                {
                    "name": "C#3",
                    "midi": 49,
                    "time": 30.09421800000008,
                    "velocity": 0.3858267716535433,
                    "duration": 0.9119460000000004
                },
                {
                    "name": "A#3",
                    "midi": 58,
                    "time": 30.09421800000008,
                    "velocity": 0.4330708661417323,
                    "duration": 0.3039820000000013
                },
                {
                    "name": "G#3",
                    "midi": 56,
                    "time": 30.39820000000008,
                    "velocity": 0.4094488188976378,
                    "duration": 0.11399325000000005
                },
                {
                    "name": "C#4",
                    "midi": 61,
                    "time": 30.55019100000008,
                    "velocity": 0.4330708661417323,
                    "duration": 0.3039820000000013
                },
                {
                    "name": "G#3",
                    "midi": 56,
                    "time": 30.85417300000008,
                    "velocity": 0.4094488188976378,
                    "duration": 0.11399325000000005
                },
                {
                    "name": "G#2",
                    "midi": 44,
                    "time": 31.00616400000008,
                    "velocity": 0.3228346456692913,
                    "duration": 0.9119460000000004
                },
                {
                    "name": "G#3",
                    "midi": 56,
                    "time": 31.00616400000008,
                    "velocity": 0.3858267716535433,
                    "duration": 0.9119460000000004
                },
                {
                    "name": "C#2",
                    "midi": 37,
                    "time": 31.91811000000008,
                    "velocity": 0.3228346456692913,
                    "duration": 0.9119459999999968
                },
                {
                    "name": "F3",
                    "midi": 53,
                    "time": 32.83005600000008,
                    "velocity": 0.33858267716535434,
                    "duration": 0.15199100000000243
                },
                {
                    "name": "F#3",
                    "midi": 54,
                    "time": 32.98204700000008,
                    "velocity": 0.3228346456692913,
                    "duration": 0.15199100000000243
                },
                {
                    "name": "F3",
                    "midi": 53,
                    "time": 33.13403800000008,
                    "velocity": 0.2992125984251969,
                    "duration": 0.15199100000000243
                },
                {
                    "name": "D#3",
                    "midi": 51,
                    "time": 33.286029000000084,
                    "velocity": 0.3228346456692913,
                    "duration": 0.15199100000000243
                },
                {
                    "name": "C#3",
                    "midi": 49,
                    "time": 33.43802000000009,
                    "velocity": 0.2992125984251969,
                    "duration": 0.15199100000000243
                },
                {
                    "name": "B2",
                    "midi": 47,
                    "time": 33.59001100000009,
                    "velocity": 0.2992125984251969,
                    "duration": 0.15199100000000243
                },
                {
                    "name": "A#2",
                    "midi": 46,
                    "time": 33.74200200000009,
                    "velocity": 0.31496062992125984,
                    "duration": 0.30398199999999775
                },
                {
                    "name": "A#2",
                    "midi": 46,
                    "time": 34.19797500000009,
                    "velocity": 0.31496062992125984,
                    "duration": 0.30398199999999775
                },
                {
                    "name": "D#2",
                    "midi": 39,
                    "time": 34.65394800000009,
                    "velocity": 0.3858267716535433,
                    "duration": 0.30398199999999775
                },
                {
                    "name": "A#2",
                    "midi": 46,
                    "time": 34.805939000000095,
                    "velocity": 0.30708661417322836,
                    "duration": 0.07599549999999766
                },
                {
                    "name": "A#2",
                    "midi": 46,
                    "time": 34.95793000000009,
                    "velocity": 0.2992125984251969,
                    "duration": 0.07599549999999766
                },
                {
                    "name": "F#2",
                    "midi": 42,
                    "time": 35.109921000000085,
                    "velocity": 0.3543307086614173,
                    "duration": 0.30398199999999065
                },
                {
                    "name": "A#2",
                    "midi": 46,
                    "time": 35.109921000000085,
                    "velocity": 0.3543307086614173,
                    "duration": 0.07599549999999766
                },
                {
                    "name": "A#2",
                    "midi": 46,
                    "time": 35.26191200000008,
                    "velocity": 0.33070866141732286,
                    "duration": 0.07599549999999766
                },
                {
                    "name": "A#2",
                    "midi": 46,
                    "time": 35.413903000000076,
                    "velocity": 0.33070866141732286,
                    "duration": 0.07599549999999766
                },
                {
                    "name": "A#2",
                    "midi": 46,
                    "time": 35.56589400000007,
                    "velocity": 0.31496062992125984,
                    "duration": 0.30398199999999775
                },
                {
                    "name": "A#2",
                    "midi": 46,
                    "time": 36.02186700000007,
                    "velocity": 0.31496062992125984,
                    "duration": 0.30398199999999775
                },
                {
                    "name": "D#2",
                    "midi": 39,
                    "time": 36.47784000000007,
                    "velocity": 0.3858267716535433,
                    "duration": 0.30398199999999775
                },
                {
                    "name": "A#2",
                    "midi": 46,
                    "time": 36.629831000000074,
                    "velocity": 0.30708661417322836,
                    "duration": 0.07599549999999766
                },
                {
                    "name": "A#2",
                    "midi": 46,
                    "time": 36.78182200000007,
                    "velocity": 0.2992125984251969,
                    "duration": 0.07599549999999766
                },
                {
                    "name": "C3",
                    "midi": 48,
                    "time": 36.933813000000065,
                    "velocity": 0.3543307086614173,
                    "duration": 0.07599549999999766
                },
                {
                    "name": "C3",
                    "midi": 48,
                    "time": 37.08580400000006,
                    "velocity": 0.33070866141732286,
                    "duration": 0.07599549999999766
                },
                {
                    "name": "C3",
                    "midi": 48,
                    "time": 37.237795000000055,
                    "velocity": 0.3779527559055118,
                    "duration": 0.07599549999999766
                },
                {
                    "name": "F2",
                    "midi": 41,
                    "time": 37.38978600000005,
                    "velocity": 0.30708661417322836,
                    "duration": 0.30398199999999775
                },
                {
                    "name": "C#3",
                    "midi": 49,
                    "time": 37.38978600000005,
                    "velocity": 0.36220472440944884,
                    "duration": 0.30398199999999775
                },
                {
                    "name": "C#2",
                    "midi": 37,
                    "time": 37.84575900000005,
                    "velocity": 0.30708661417322836,
                    "duration": 0.30398199999999775
                },
                {
                    "name": "C#3",
                    "midi": 49,
                    "time": 37.84575900000005,
                    "velocity": 0.36220472440944884,
                    "duration": 0.30398199999999775
                },
                {
                    "name": "F#2",
                    "midi": 42,
                    "time": 38.30173200000005,
                    "velocity": 0.4566929133858268,
                    "duration": 0.30398199999999775
                },
                {
                    "name": "C#3",
                    "midi": 49,
                    "time": 38.45372300000005,
                    "velocity": 0.3543307086614173,
                    "duration": 0.07599549999999766
                },
                {
                    "name": "C#3",
                    "midi": 49,
                    "time": 38.60571400000005,
                    "velocity": 0.3543307086614173,
                    "duration": 0.07599549999999766
                },
                {
                    "name": "A#2",
                    "midi": 46,
                    "time": 38.757705000000044,
                    "velocity": 0.4566929133858268,
                    "duration": 0.30398199999999065
                },
                {
                    "name": "C#3",
                    "midi": 49,
                    "time": 38.757705000000044,
                    "velocity": 0.41732283464566927,
                    "duration": 0.07599549999999766
                },
                {
                    "name": "C#3",
                    "midi": 49,
                    "time": 38.90969600000004,
                    "velocity": 0.3937007874015748,
                    "duration": 0.07599549999999766
                },
                {
                    "name": "C#3",
                    "midi": 49,
                    "time": 39.061687000000035,
                    "velocity": 0.4566929133858268,
                    "duration": 0.07599549999999766
                },
                {
                    "name": "F2",
                    "midi": 41,
                    "time": 39.21367800000003,
                    "velocity": 0.3700787401574803,
                    "duration": 0.30398199999999775
                },
                {
                    "name": "C#3",
                    "midi": 49,
                    "time": 39.21367800000003,
                    "velocity": 0.4330708661417323,
                    "duration": 0.30398199999999775
                },
                {
                    "name": "C#2",
                    "midi": 37,
                    "time": 39.66965100000003,
                    "velocity": 0.3937007874015748,
                    "duration": 0.30398199999999775
                },
                {
                    "name": "C#3",
                    "midi": 49,
                    "time": 39.66965100000003,
                    "velocity": 0.4566929133858268,
                    "duration": 0.30398199999999775
                },
                {
                    "name": "F#2",
                    "midi": 42,
                    "time": 40.12562400000003,
                    "velocity": 0.6062992125984252,
                    "duration": 0.30398199999999775
                },
                {
                    "name": "D3",
                    "midi": 50,
                    "time": 40.27761500000003,
                    "velocity": 0.48031496062992124,
                    "duration": 0.07599549999999766
                },
                {
                    "name": "D3",
                    "midi": 50,
                    "time": 40.42960600000003,
                    "velocity": 0.48031496062992124,
                    "duration": 0.07599549999999766
                },
                {
                    "name": "D#3",
                    "midi": 51,
                    "time": 40.58159700000002,
                    "velocity": 0.5826771653543307,
                    "duration": 0.07599549999999766
                },
                {
                    "name": "D#3",
                    "midi": 51,
                    "time": 40.73358800000002,
                    "velocity": 0.5590551181102362,
                    "duration": 0.07599549999999766
                },
                {
                    "name": "D#3",
                    "midi": 51,
                    "time": 40.885579000000014,
                    "velocity": 0.5590551181102362,
                    "duration": 0.07599549999999766
                },
                {
                    "name": "A2",
                    "midi": 45,
                    "time": 41.03757000000001,
                    "velocity": 0.7007874015748031,
                    "duration": 0.15199100000000243
                },
                {
                    "name": "F3",
                    "midi": 53,
                    "time": 41.18956100000001,
                    "velocity": 0.5511811023622047,
                    "duration": 0.07599549999999766
                },
                {
                    "name": "F3",
                    "midi": 53,
                    "time": 41.34155200000001,
                    "velocity": 0.5275590551181102,
                    "duration": 0.07599549999999766
                },
                {
                    "name": "F2",
                    "midi": 41,
                    "time": 41.493543,
                    "velocity": 0.6299212598425197,
                    "duration": 0.15199100000000243
                },
                {
                    "name": "F3",
                    "midi": 53,
                    "time": 41.645534000000005,
                    "velocity": 0.5511811023622047,
                    "duration": 0.07599549999999766
                },
                {
                    "name": "F3",
                    "midi": 53,
                    "time": 41.797525,
                    "velocity": 0.5590551181102362,
                    "duration": 0.07599549999999766
                },
                {
                    "name": "A#2",
                    "midi": 46,
                    "time": 41.949515999999996,
                    "velocity": 0.6929133858267716,
                    "duration": 0.15199100000000243
                },
                {
                    "name": "F3",
                    "midi": 53,
                    "time": 42.101507,
                    "velocity": 0.5748031496062992,
                    "duration": 0.07599549999999766
                },
                {
                    "name": "F3",
                    "midi": 53,
                    "time": 42.25349799999999,
                    "velocity": 0.5669291338582677,
                    "duration": 0.07599549999999766
                },
                {
                    "name": "F2",
                    "midi": 41,
                    "time": 42.40548899999999,
                    "velocity": 0.6456692913385826,
                    "duration": 0.15199100000000243
                },
                {
                    "name": "F3",
                    "midi": 53,
                    "time": 42.55747999999999,
                    "velocity": 0.5590551181102362,
                    "duration": 0.07599549999999766
                },
                {
                    "name": "F3",
                    "midi": 53,
                    "time": 42.709470999999986,
                    "velocity": 0.5590551181102362,
                    "duration": 0.07599549999999766
                },
                {
                    "name": "A2",
                    "midi": 45,
                    "time": 42.86146199999998,
                    "velocity": 0.7007874015748031,
                    "duration": 0.15199100000000243
                },
                {
                    "name": "F3",
                    "midi": 53,
                    "time": 43.013452999999984,
                    "velocity": 0.5511811023622047,
                    "duration": 0.07599549999999766
                },
                {
                    "name": "F3",
                    "midi": 53,
                    "time": 43.16544399999998,
                    "velocity": 0.5275590551181102,
                    "duration": 0.07599549999999766
                },
                {
                    "name": "F2",
                    "midi": 41,
                    "time": 43.317434999999975,
                    "velocity": 0.6299212598425197,
                    "duration": 0.15199100000000243
                },
                {
                    "name": "F3",
                    "midi": 53,
                    "time": 43.46942599999998,
                    "velocity": 0.5511811023622047,
                    "duration": 0.07599549999999766
                },
                {
                    "name": "F3",
                    "midi": 53,
                    "time": 43.62141699999997,
                    "velocity": 0.5590551181102362,
                    "duration": 0.07599549999999766
                },
                {
                    "name": "A#2",
                    "midi": 46,
                    "time": 43.77340799999997,
                    "velocity": 0.6929133858267716,
                    "duration": 0.15199100000000243
                },
                {
                    "name": "F3",
                    "midi": 53,
                    "time": 43.92539899999997,
                    "velocity": 0.5748031496062992,
                    "duration": 0.07599549999999766
                },
                {
                    "name": "F3",
                    "midi": 53,
                    "time": 44.077389999999966,
                    "velocity": 0.5669291338582677,
                    "duration": 0.07599549999999766
                },
                {
                    "name": "F2",
                    "midi": 41,
                    "time": 44.22938099999996,
                    "velocity": 0.6456692913385826,
                    "duration": 0.15199100000000243
                },
                {
                    "name": "F3",
                    "midi": 53,
                    "time": 44.38137199999996,
                    "velocity": 0.5590551181102362,
                    "duration": 0.07599549999999766
                },
                {
                    "name": "F3",
                    "midi": 53,
                    "time": 44.53336299999996,
                    "velocity": 0.5590551181102362,
                    "duration": 0.07599549999999766
                },
                {
                    "name": "A2",
                    "midi": 45,
                    "time": 44.685353999999954,
                    "velocity": 0.7007874015748031,
                    "duration": 0.15199100000000243
                },
                {
                    "name": "F3",
                    "midi": 53,
                    "time": 44.83734499999996,
                    "velocity": 0.5354330708661418,
                    "duration": 0.07599549999999766
                },
                {
                    "name": "F3",
                    "midi": 53,
                    "time": 44.98933599999995,
                    "velocity": 0.5039370078740157,
                    "duration": 0.07599549999999766
                },
                {
                    "name": "F2",
                    "midi": 41,
                    "time": 45.14132699999995,
                    "velocity": 0.5905511811023622,
                    "duration": 0.15199100000000243
                },
                {
                    "name": "F3",
                    "midi": 53,
                    "time": 45.29331799999995,
                    "velocity": 0.5039370078740157,
                    "duration": 0.07599549999999766
                },
                {
                    "name": "F3",
                    "midi": 53,
                    "time": 45.445308999999945,
                    "velocity": 0.49606299212598426,
                    "duration": 0.07599549999999766
                },
                {
                    "name": "A#2",
                    "midi": 46,
                    "time": 45.59729999999994,
                    "velocity": 0.6062992125984252,
                    "duration": 1.3679190000000006
                },
                {
                    "name": "C3",
                    "midi": 48,
                    "time": 46.96521899999994,
                    "velocity": 0.4566929133858268,
                    "duration": 0.4559730000000002
                },
                {
                    "name": "F2",
                    "midi": 41,
                    "time": 47.42119199999994,
                    "velocity": 0.4094488188976378,
                    "duration": 0.9119460000000004
                },
                {
                    "name": "F3",
                    "midi": 53,
                    "time": 48.33313799999994,
                    "velocity": 0.33858267716535434,
                    "duration": 0.15199100000000243
                },
                {
                    "name": "F#3",
                    "midi": 54,
                    "time": 48.485128999999944,
                    "velocity": 0.3228346456692913,
                    "duration": 0.15199100000000243
                },
                {
                    "name": "F3",
                    "midi": 53,
                    "time": 48.637119999999946,
                    "velocity": 0.2992125984251969,
                    "duration": 0.15199100000000243
                },
                {
                    "name": "D#3",
                    "midi": 51,
                    "time": 48.78911099999995,
                    "velocity": 0.3228346456692913,
                    "duration": 0.15199100000000243
                },
                {
                    "name": "C#3",
                    "midi": 49,
                    "time": 48.94110199999995,
                    "velocity": 0.2992125984251969,
                    "duration": 0.15199100000000243
                },
                {
                    "name": "C3",
                    "midi": 48,
                    "time": 49.09309299999995,
                    "velocity": 0.2992125984251969,
                    "duration": 0.15199100000000243
                },
                {
                    "name": "C#4",
                    "midi": 61,
                    "time": 49.245083999999956,
                    "velocity": 0.31496062992125984,
                    "duration": 0.30398199999999775
                },
                {
                    "name": "A#2",
                    "midi": 46,
                    "time": 49.62506149999995,
                    "velocity": 0.2755905511811024,
                    "duration": 0.3799774999999954
                },
                {
                    "name": "C#4",
                    "midi": 61,
                    "time": 49.70105699999995,
                    "velocity": 0.31496062992125984,
                    "duration": 0.30398199999999775
                },
                {
                    "name": "A#2",
                    "midi": 46,
                    "time": 50.081034499999944,
                    "velocity": 0.2755905511811024,
                    "duration": 0.3799774999999954
                },
                {
                    "name": "C#4",
                    "midi": 61,
                    "time": 50.15702999999994,
                    "velocity": 0.31496062992125984,
                    "duration": 0.30398199999999775
                },
                {
                    "name": "A#2",
                    "midi": 46,
                    "time": 50.53700749999994,
                    "velocity": 0.2755905511811024,
                    "duration": 0.3799774999999954
                },
                {
                    "name": "C#4",
                    "midi": 61,
                    "time": 50.613002999999935,
                    "velocity": 0.31496062992125984,
                    "duration": 0.30398199999999775
                },
                {
                    "name": "A#2",
                    "midi": 46,
                    "time": 50.99298049999993,
                    "velocity": 0.2755905511811024,
                    "duration": 0.3799774999999954
                },
                {
                    "name": "C#4",
                    "midi": 61,
                    "time": 51.06897599999993,
                    "velocity": 0.31496062992125984,
                    "duration": 0.30398199999999775
                },
                {
                    "name": "A#2",
                    "midi": 46,
                    "time": 51.448953499999924,
                    "velocity": 0.2755905511811024,
                    "duration": 0.3799774999999954
                },
                {
                    "name": "C#4",
                    "midi": 61,
                    "time": 51.52494899999992,
                    "velocity": 0.31496062992125984,
                    "duration": 0.30398199999999775
                },
                {
                    "name": "A#2",
                    "midi": 46,
                    "time": 51.90492649999992,
                    "velocity": 0.2755905511811024,
                    "duration": 0.3799774999999954
                },
                {
                    "name": "C#4",
                    "midi": 61,
                    "time": 51.980921999999914,
                    "velocity": 0.31496062992125984,
                    "duration": 0.30398199999999775
                },
                {
                    "name": "A#2",
                    "midi": 46,
                    "time": 52.36089949999991,
                    "velocity": 0.2755905511811024,
                    "duration": 0.3799774999999954
                },
                {
                    "name": "C#4",
                    "midi": 61,
                    "time": 52.43689499999991,
                    "velocity": 0.31496062992125984,
                    "duration": 0.30398199999999775
                },
                {
                    "name": "A2",
                    "midi": 45,
                    "time": 52.89286799999991,
                    "velocity": 0.3858267716535433,
                    "duration": 0.15199100000000243
                },
                {
                    "name": "F3",
                    "midi": 53,
                    "time": 53.04485899999991,
                    "velocity": 0.31496062992125984,
                    "duration": 0.07599549999999766
                },
                {
                    "name": "F3",
                    "midi": 53,
                    "time": 53.196849999999905,
                    "velocity": 0.33070866141732286,
                    "duration": 0.07599549999999766
                },
                {
                    "name": "F2",
                    "midi": 41,
                    "time": 53.3488409999999,
                    "velocity": 0.33070866141732286,
                    "duration": 0.15199100000000243
                },
                {
                    "name": "F3",
                    "midi": 53,
                    "time": 53.5008319999999,
                    "velocity": 0.3700787401574803,
                    "duration": 0.07599549999999766
                },
                {
                    "name": "F3",
                    "midi": 53,
                    "time": 53.6528229999999,
                    "velocity": 0.3937007874015748,
                    "duration": 0.07599549999999766
                },
                {
                    "name": "A#2",
                    "midi": 46,
                    "time": 53.804813999999894,
                    "velocity": 0.4251968503937008,
                    "duration": 0.15199100000000243
                },
                {
                    "name": "F3",
                    "midi": 53,
                    "time": 53.956804999999896,
                    "velocity": 0.33858267716535434,
                    "duration": 0.07599549999999766
                },
                {
                    "name": "F3",
                    "midi": 53,
                    "time": 54.10879599999989,
                    "velocity": 0.36220472440944884,
                    "duration": 0.07599549999999766
                },
                {
                    "name": "D#2",
                    "midi": 39,
                    "time": 54.26078699999989,
                    "velocity": 0.4566929133858268,
                    "duration": 0.15199100000000243
                },
                {
                    "name": "F#3",
                    "midi": 54,
                    "time": 54.41277799999989,
                    "velocity": 0.3779527559055118,
                    "duration": 0.07599549999999766
                },
                {
                    "name": "F#3",
                    "midi": 54,
                    "time": 54.564768999999885,
                    "velocity": 0.3779527559055118,
                    "duration": 0.07599549999999766
                },
                {
                    "name": "F2",
                    "midi": 41,
                    "time": 54.71675999999988,
                    "velocity": 0.47244094488188976,
                    "duration": 0.15199100000000243
                },
                {
                    "name": "F3",
                    "midi": 53,
                    "time": 54.86875099999988,
                    "velocity": 0.3858267716535433,
                    "duration": 0.07599549999999766
                },
                {
                    "name": "F3",
                    "midi": 53,
                    "time": 55.02074199999988,
                    "velocity": 0.36220472440944884,
                    "duration": 0.07599549999999766
                },
                {
                    "name": "F3",
                    "midi": 53,
                    "time": 55.17273299999987,
                    "velocity": 0.4330708661417323,
                    "duration": 0.07599549999999766
                },
                {
                    "name": "F3",
                    "midi": 53,
                    "time": 55.32472399999987,
                    "velocity": 0.36220472440944884,
                    "duration": 0.07599549999999766
                },
                {
                    "name": "F3",
                    "midi": 53,
                    "time": 55.476714999999864,
                    "velocity": 0.36220472440944884,
                    "duration": 0.07599549999999766
                },
                {
                    "name": "F3",
                    "midi": 53,
                    "time": 55.62870599999986,
                    "velocity": 0.4409448818897638,
                    "duration": 0.15199100000000243
                },
                {
                    "name": "F#3",
                    "midi": 54,
                    "time": 55.78069699999986,
                    "velocity": 0.36220472440944884,
                    "duration": 0.15199100000000243
                },
                {
                    "name": "F3",
                    "midi": 53,
                    "time": 55.932687999999864,
                    "velocity": 0.3779527559055118,
                    "duration": 0.07599549999999766
                },
                {
                    "name": "F3",
                    "midi": 53,
                    "time": 56.08467899999986,
                    "velocity": 0.4094488188976378,
                    "duration": 0.07599549999999766
                },
                {
                    "name": "F3",
                    "midi": 53,
                    "time": 56.236669999999854,
                    "velocity": 0.36220472440944884,
                    "duration": 0.07599549999999766
                },
                {
                    "name": "F3",
                    "midi": 53,
                    "time": 56.38866099999985,
                    "velocity": 0.31496062992125984,
                    "duration": 0.07599549999999766
                },
                {
                    "name": "A#2",
                    "midi": 46,
                    "time": 56.46465649999985,
                    "velocity": 0.2755905511811024,
                    "duration": 0.3799774999999954
                },
                {
                    "name": "C#4",
                    "midi": 61,
                    "time": 56.540651999999845,
                    "velocity": 0.31496062992125984,
                    "duration": 0.30398199999999775
                },
                {
                    "name": "A#2",
                    "midi": 46,
                    "time": 56.92062949999984,
                    "velocity": 0.28346456692913385,
                    "duration": 0.3799774999999954
                },
                {
                    "name": "C#4",
                    "midi": 61,
                    "time": 56.99662499999984,
                    "velocity": 0.3228346456692913,
                    "duration": 0.30398199999999775
                },
                {
                    "name": "A#2",
                    "midi": 46,
                    "time": 57.376602499999834,
                    "velocity": 0.29133858267716534,
                    "duration": 0.3799774999999954
                },
                {
                    "name": "C#4",
                    "midi": 61,
                    "time": 57.45259799999983,
                    "velocity": 0.33070866141732286,
                    "duration": 0.30398199999999775
                },
                {
                    "name": "A#2",
                    "midi": 46,
                    "time": 57.83257549999983,
                    "velocity": 0.3464566929133858,
                    "duration": 0.3799774999999954
                },
                {
                    "name": "C#4",
                    "midi": 61,
                    "time": 57.908570999999824,
                    "velocity": 0.41732283464566927,
                    "duration": 0.30398199999999775
                },
                {
                    "name": "D4",
                    "midi": 62,
                    "time": 58.364543999999825,
                    "velocity": 0.5433070866141733,
                    "duration": 0.4559729999999931
                },
                {
                    "name": "D#3",
                    "midi": 51,
                    "time": 58.364543999999825,
                    "velocity": 0.5433070866141733,
                    "duration": 1.823891999999958
                },
                {
                    "name": "B3",
                    "midi": 59,
                    "time": 58.51653499999983,
                    "velocity": 0.3858267716535433,
                    "duration": 0.07599549999999766
                },
                {
                    "name": "B3",
                    "midi": 59,
                    "time": 58.66852599999982,
                    "velocity": 0.36220472440944884,
                    "duration": 0.07599549999999766
                },
                {
                    "name": "B3",
                    "midi": 59,
                    "time": 58.82051699999982,
                    "velocity": 0.4330708661417323,
                    "duration": 0.07599549999999766
                },
                {
                    "name": "B3",
                    "midi": 59,
                    "time": 58.97250799999981,
                    "velocity": 0.36220472440944884,
                    "duration": 0.07599549999999766
                },
                {
                    "name": "B3",
                    "midi": 59,
                    "time": 59.12449899999981,
                    "velocity": 0.36220472440944884,
                    "duration": 0.07599549999999766
                },
                {
                    "name": "D4",
                    "midi": 62,
                    "time": 59.276489999999804,
                    "velocity": 0.47244094488188976,
                    "duration": 0.4559729999999931
                },
                {
                    "name": "A#3",
                    "midi": 58,
                    "time": 59.428480999999806,
                    "velocity": 0.3858267716535433,
                    "duration": 0.07599549999999766
                },
                {
                    "name": "A#3",
                    "midi": 58,
                    "time": 59.5804719999998,
                    "velocity": 0.36220472440944884,
                    "duration": 0.07599549999999766
                },
                {
                    "name": "D#4",
                    "midi": 63,
                    "time": 59.7324629999998,
                    "velocity": 0.47244094488188976,
                    "duration": 0.455972999999986
                },
                {
                    "name": "A#3",
                    "midi": 58,
                    "time": 59.7324629999998,
                    "velocity": 0.4330708661417323,
                    "duration": 0.07599549999999766
                },
                {
                    "name": "A#3",
                    "midi": 58,
                    "time": 59.88445399999979,
                    "velocity": 0.36220472440944884,
                    "duration": 0.07599549999999766
                },
                {
                    "name": "A#3",
                    "midi": 58,
                    "time": 60.03644499999979,
                    "velocity": 0.36220472440944884,
                    "duration": 0.07599549999999766
                },
                {
                    "name": "F#3",
                    "midi": 54,
                    "time": 60.18843599999978,
                    "velocity": 0.3858267716535433,
                    "duration": 1.8238920000000007
                },
                {
                    "name": "A#3",
                    "midi": 58,
                    "time": 60.18843599999978,
                    "velocity": 0.4409448818897638,
                    "duration": 0.9119460000000004
                },
                {
                    "name": "D#4",
                    "midi": 63,
                    "time": 60.64440899999978,
                    "velocity": 0.4330708661417323,
                    "duration": 0.30398199999999775
                },
                {
                    "name": "C#4",
                    "midi": 61,
                    "time": 60.94839099999978,
                    "velocity": 0.4094488188976378,
                    "duration": 0.11399325000000005
                },
                {
                    "name": "C#4",
                    "midi": 61,
                    "time": 61.10038199999978,
                    "velocity": 0.4330708661417323,
                    "duration": 0.30398199999999775
                },
                {
                    "name": "C4",
                    "midi": 60,
                    "time": 61.40436399999978,
                    "velocity": 0.4094488188976378,
                    "duration": 0.11399325000000005
                },
                {
                    "name": "D#4",
                    "midi": 63,
                    "time": 61.55635499999978,
                    "velocity": 0.4330708661417323,
                    "duration": 0.30398199999999775
                },
                {
                    "name": "C4",
                    "midi": 60,
                    "time": 61.86033699999978,
                    "velocity": 0.4094488188976378,
                    "duration": 0.11399325000000005
                },
                {
                    "name": "F3",
                    "midi": 53,
                    "time": 62.01232799999978,
                    "velocity": 0.3858267716535433,
                    "duration": 0.9119460000000004
                },
                {
                    "name": "C4",
                    "midi": 60,
                    "time": 62.01232799999978,
                    "velocity": 0.4330708661417323,
                    "duration": 0.30398199999999775
                },
                {
                    "name": "A#3",
                    "midi": 58,
                    "time": 62.31630999999978,
                    "velocity": 0.4094488188976378,
                    "duration": 0.11399325000000005
                },
                {
                    "name": "C#4",
                    "midi": 61,
                    "time": 62.468300999999784,
                    "velocity": 0.4330708661417323,
                    "duration": 0.7599549999999979
                },
                {
                    "name": "F2",
                    "midi": 41,
                    "time": 62.924273999999784,
                    "velocity": 0.3228346456692913,
                    "duration": 0.9119459999999933
                },
                {
                    "name": "C4",
                    "midi": 60,
                    "time": 63.22825599999978,
                    "velocity": 0.4094488188976378,
                    "duration": 0.07599549999999766
                },
                {
                    "name": "A#2",
                    "midi": 46,
                    "time": 63.83621999999978,
                    "velocity": 0.3228346456692913,
                    "duration": 0.9119459999999933
                },
                {
                    "name": "F3",
                    "midi": 53,
                    "time": 64.74816599999977,
                    "velocity": 0.33858267716535434,
                    "duration": 0.15199099999999532
                },
                {
                    "name": "F#3",
                    "midi": 54,
                    "time": 64.90015699999977,
                    "velocity": 0.3228346456692913,
                    "duration": 0.15199099999999532
                },
                {
                    "name": "F3",
                    "midi": 53,
                    "time": 65.05214799999976,
                    "velocity": 0.2992125984251969,
                    "duration": 0.15199099999999532
                },
                {
                    "name": "D#3",
                    "midi": 51,
                    "time": 65.20413899999976,
                    "velocity": 0.3228346456692913,
                    "duration": 0.15199099999999532
                },
                {
                    "name": "C#3",
                    "midi": 49,
                    "time": 65.35612999999975,
                    "velocity": 0.2992125984251969,
                    "duration": 0.15199099999999532
                },
                {
                    "name": "C3",
                    "midi": 48,
                    "time": 65.50812099999975,
                    "velocity": 0.2992125984251969,
                    "duration": 0.15199099999999532
                },
                {
                    "name": "A#2",
                    "midi": 46,
                    "time": 65.66011199999974,
                    "velocity": 0.31496062992125984,
                    "duration": 0.30398200000000486
                },
                {
                    "name": "A#2",
                    "midi": 46,
                    "time": 66.11608499999974,
                    "velocity": 0.31496062992125984,
                    "duration": 0.30398200000000486
                },
                {
                    "name": "D#2",
                    "midi": 39,
                    "time": 66.57205799999974,
                    "velocity": 0.3858267716535433,
                    "duration": 0.30398200000000486
                },
                {
                    "name": "A#2",
                    "midi": 46,
                    "time": 66.72404899999974,
                    "velocity": 0.30708661417322836,
                    "duration": 0.07599550000000477
                },
                {
                    "name": "A#2",
                    "midi": 46,
                    "time": 66.87603999999975,
                    "velocity": 0.2992125984251969,
                    "duration": 0.07599550000000477
                },
                {
                    "name": "F#2",
                    "midi": 42,
                    "time": 67.02803099999976,
                    "velocity": 0.3543307086614173,
                    "duration": 0.30398200000001907
                },
                {
                    "name": "A#2",
                    "midi": 46,
                    "time": 67.02803099999976,
                    "velocity": 0.3543307086614173,
                    "duration": 0.07599550000000477
                },
                {
                    "name": "A#2",
                    "midi": 46,
                    "time": 67.18002199999977,
                    "velocity": 0.33070866141732286,
                    "duration": 0.07599550000000477
                },
                {
                    "name": "A#2",
                    "midi": 46,
                    "time": 67.33201299999978,
                    "velocity": 0.33070866141732286,
                    "duration": 0.07599550000000477
                },
                {
                    "name": "A#2",
                    "midi": 46,
                    "time": 67.48400399999979,
                    "velocity": 0.31496062992125984,
                    "duration": 0.30398200000000486
                },
                {
                    "name": "A#2",
                    "midi": 46,
                    "time": 67.93997699999979,
                    "velocity": 0.31496062992125984,
                    "duration": 0.30398200000000486
                },
                {
                    "name": "D#2",
                    "midi": 39,
                    "time": 68.39594999999979,
                    "velocity": 0.3858267716535433,
                    "duration": 0.30398200000000486
                },
                {
                    "name": "A#2",
                    "midi": 46,
                    "time": 68.54794099999978,
                    "velocity": 0.30708661417322836,
                    "duration": 0.07599550000000477
                },
                {
                    "name": "A#2",
                    "midi": 46,
                    "time": 68.69993199999979,
                    "velocity": 0.2992125984251969,
                    "duration": 0.07599550000000477
                },
                {
                    "name": "C3",
                    "midi": 48,
                    "time": 68.8519229999998,
                    "velocity": 0.3543307086614173,
                    "duration": 0.07599550000000477
                },
                {
                    "name": "C3",
                    "midi": 48,
                    "time": 69.00391399999981,
                    "velocity": 0.33070866141732286,
                    "duration": 0.07599550000000477
                },
                {
                    "name": "C3",
                    "midi": 48,
                    "time": 69.15590499999982,
                    "velocity": 0.3779527559055118,
                    "duration": 0.07599550000000477
                },
                {
                    "name": "F2",
                    "midi": 41,
                    "time": 69.30789599999983,
                    "velocity": 0.30708661417322836,
                    "duration": 0.30398200000000486
                },
                {
                    "name": "C#3",
                    "midi": 49,
                    "time": 69.30789599999983,
                    "velocity": 0.36220472440944884,
                    "duration": 0.30398200000000486
                },
                {
                    "name": "C#2",
                    "midi": 37,
                    "time": 69.76386899999983,
                    "velocity": 0.30708661417322836,
                    "duration": 0.30398200000000486
                },
                {
                    "name": "C#3",
                    "midi": 49,
                    "time": 69.76386899999983,
                    "velocity": 0.36220472440944884,
                    "duration": 0.30398200000000486
                },
                {
                    "name": "F#2",
                    "midi": 42,
                    "time": 70.21984199999983,
                    "velocity": 0.4566929133858268,
                    "duration": 0.30398200000000486
                },
                {
                    "name": "C#3",
                    "midi": 49,
                    "time": 70.37183299999982,
                    "velocity": 0.3543307086614173,
                    "duration": 0.07599550000000477
                },
                {
                    "name": "C#3",
                    "midi": 49,
                    "time": 70.52382399999983,
                    "velocity": 0.3543307086614173,
                    "duration": 0.07599550000000477
                },
                {
                    "name": "A#2",
                    "midi": 46,
                    "time": 70.67581499999984,
                    "velocity": 0.4645669291338583,
                    "duration": 0.30398200000001907
                },
                {
                    "name": "C#3",
                    "midi": 49,
                    "time": 70.67581499999984,
                    "velocity": 0.4251968503937008,
                    "duration": 0.07599550000000477
                },
                {
                    "name": "C#3",
                    "midi": 49,
                    "time": 70.82780599999985,
                    "velocity": 0.3937007874015748,
                    "duration": 0.07599550000000477
                },
                {
                    "name": "C#3",
                    "midi": 49,
                    "time": 70.97979699999986,
                    "velocity": 0.4566929133858268,
                    "duration": 0.07599550000000477
                },
                {
                    "name": "F2",
                    "midi": 41,
                    "time": 71.13178799999987,
                    "velocity": 0.3700787401574803,
                    "duration": 0.30398200000000486
                },
                {
                    "name": "C#3",
                    "midi": 49,
                    "time": 71.13178799999987,
                    "velocity": 0.4330708661417323,
                    "duration": 0.30398200000000486
                },
                {
                    "name": "C#2",
                    "midi": 37,
                    "time": 71.58776099999987,
                    "velocity": 0.3937007874015748,
                    "duration": 0.30398200000000486
                },
                {
                    "name": "C#3",
                    "midi": 49,
                    "time": 71.58776099999987,
                    "velocity": 0.4566929133858268,
                    "duration": 0.30398200000000486
                },
                {
                    "name": "F#2",
                    "midi": 42,
                    "time": 72.04373399999987,
                    "velocity": 0.6062992125984252,
                    "duration": 0.30398200000000486
                },
                {
                    "name": "D3",
                    "midi": 50,
                    "time": 72.19572499999987,
                    "velocity": 0.48031496062992124,
                    "duration": 0.07599550000000477
                },
                {
                    "name": "D3",
                    "midi": 50,
                    "time": 72.34771599999988,
                    "velocity": 0.48031496062992124,
                    "duration": 0.07599550000000477
                },
                {
                    "name": "D#3",
                    "midi": 51,
                    "time": 72.49970699999989,
                    "velocity": 0.5826771653543307,
                    "duration": 0.07599550000000477
                },
                {
                    "name": "D#3",
                    "midi": 51,
                    "time": 72.6516979999999,
                    "velocity": 0.5590551181102362,
                    "duration": 0.07599550000000477
                },
                {
                    "name": "D#3",
                    "midi": 51,
                    "time": 72.8036889999999,
                    "velocity": 0.5590551181102362,
                    "duration": 0.07599550000000477
                },
                {
                    "name": "A2",
                    "midi": 45,
                    "time": 72.95567999999992,
                    "velocity": 0.7007874015748031,
                    "duration": 0.15199099999999532
                },
                {
                    "name": "F3",
                    "midi": 53,
                    "time": 73.10767099999991,
                    "velocity": 0.5511811023622047,
                    "duration": 0.07599550000000477
                },
                {
                    "name": "F3",
                    "midi": 53,
                    "time": 73.25966199999992,
                    "velocity": 0.5275590551181102,
                    "duration": 0.07599550000000477
                },
                {
                    "name": "F2",
                    "midi": 41,
                    "time": 73.41165299999993,
                    "velocity": 0.6299212598425197,
                    "duration": 0.15199099999999532
                },
                {
                    "name": "F3",
                    "midi": 53,
                    "time": 73.56364399999993,
                    "velocity": 0.5511811023622047,
                    "duration": 0.07599550000000477
                },
                {
                    "name": "F3",
                    "midi": 53,
                    "time": 73.71563499999993,
                    "velocity": 0.5590551181102362,
                    "duration": 0.07599550000000477
                },
                {
                    "name": "A#2",
                    "midi": 46,
                    "time": 73.86762599999994,
                    "velocity": 0.6929133858267716,
                    "duration": 0.15199099999999532
                },
                {
                    "name": "F3",
                    "midi": 53,
                    "time": 74.01961699999994,
                    "velocity": 0.5748031496062992,
                    "duration": 0.07599550000000477
                },
                {
                    "name": "F3",
                    "midi": 53,
                    "time": 74.17160799999995,
                    "velocity": 0.5669291338582677,
                    "duration": 0.07599550000000477
                },
                {
                    "name": "F2",
                    "midi": 41,
                    "time": 74.32359899999996,
                    "velocity": 0.6456692913385826,
                    "duration": 0.15199099999999532
                },
                {
                    "name": "F3",
                    "midi": 53,
                    "time": 74.47558999999995,
                    "velocity": 0.5590551181102362,
                    "duration": 0.07599550000000477
                },
                {
                    "name": "F3",
                    "midi": 53,
                    "time": 74.62758099999996,
                    "velocity": 0.5590551181102362,
                    "duration": 0.07599550000000477
                },
                {
                    "name": "A2",
                    "midi": 45,
                    "time": 74.77957199999997,
                    "velocity": 0.7007874015748031,
                    "duration": 0.15199099999999532
                },
                {
                    "name": "F3",
                    "midi": 53,
                    "time": 74.93156299999997,
                    "velocity": 0.5511811023622047,
                    "duration": 0.07599550000000477
                },
                {
                    "name": "F3",
                    "midi": 53,
                    "time": 75.08355399999998,
                    "velocity": 0.5275590551181102,
                    "duration": 0.07599550000000477
                },
                {
                    "name": "F2",
                    "midi": 41,
                    "time": 75.23554499999999,
                    "velocity": 0.6299212598425197,
                    "duration": 0.15199099999999532
                },
                {
                    "name": "F3",
                    "midi": 53,
                    "time": 75.38753599999998,
                    "velocity": 0.5511811023622047,
                    "duration": 0.07599550000000477
                },
                {
                    "name": "F3",
                    "midi": 53,
                    "time": 75.53952699999999,
                    "velocity": 0.5590551181102362,
                    "duration": 0.07599550000000477
                },
                {
                    "name": "A#2",
                    "midi": 46,
                    "time": 75.691518,
                    "velocity": 0.6929133858267716,
                    "duration": 0.15199099999999532
                },
                {
                    "name": "F3",
                    "midi": 53,
                    "time": 75.843509,
                    "velocity": 0.5748031496062992,
                    "duration": 0.07599550000000477
                },
                {
                    "name": "F3",
                    "midi": 53,
                    "time": 75.9955,
                    "velocity": 0.5669291338582677,
                    "duration": 0.07599550000000477
                },
                {
                    "name": "F2",
                    "midi": 41,
                    "time": 76.14749100000002,
                    "velocity": 0.6456692913385826,
                    "duration": 0.15199099999999532
                },
                {
                    "name": "F3",
                    "midi": 53,
                    "time": 76.29948200000001,
                    "velocity": 0.5590551181102362,
                    "duration": 0.07599550000000477
                },
                {
                    "name": "F3",
                    "midi": 53,
                    "time": 76.45147300000002,
                    "velocity": 0.5590551181102362,
                    "duration": 0.07599550000000477
                },
                {
                    "name": "A2",
                    "midi": 45,
                    "time": 76.60346400000003,
                    "velocity": 0.7007874015748031,
                    "duration": 0.15199099999999532
                },
                {
                    "name": "F3",
                    "midi": 53,
                    "time": 76.75545500000003,
                    "velocity": 0.5354330708661418,
                    "duration": 0.07599550000000477
                },
                {
                    "name": "F3",
                    "midi": 53,
                    "time": 76.90744600000004,
                    "velocity": 0.5039370078740157,
                    "duration": 0.07599550000000477
                },
                {
                    "name": "F2",
                    "midi": 41,
                    "time": 77.05943700000005,
                    "velocity": 0.5905511811023622,
                    "duration": 0.15199099999999532
                },
                {
                    "name": "F3",
                    "midi": 53,
                    "time": 77.21142800000004,
                    "velocity": 0.5039370078740157,
                    "duration": 0.07599550000000477
                },
                {
                    "name": "F3",
                    "midi": 53,
                    "time": 77.36341900000005,
                    "velocity": 0.49606299212598426,
                    "duration": 0.07599550000000477
                },
                {
                    "name": "A#2",
                    "midi": 46,
                    "time": 77.51541000000006,
                    "velocity": 0.6062992125984252,
                    "duration": 1.3679190000000006
                },
                {
                    "name": "C3",
                    "midi": 48,
                    "time": 78.88332900000006,
                    "velocity": 0.4566929133858268,
                    "duration": 0.4559730000000002
                },
                {
                    "name": "F2",
                    "midi": 41,
                    "time": 79.33930200000006,
                    "velocity": 0.4094488188976378,
                    "duration": 0.9119460000000004
                },
                {
                    "name": "F3",
                    "midi": 53,
                    "time": 80.25124800000006,
                    "velocity": 0.33858267716535434,
                    "duration": 0.15199099999999532
                },
                {
                    "name": "F#3",
                    "midi": 54,
                    "time": 80.40323900000006,
                    "velocity": 0.3228346456692913,
                    "duration": 0.15199099999999532
                },
                {
                    "name": "F3",
                    "midi": 53,
                    "time": 80.55523000000005,
                    "velocity": 0.2992125984251969,
                    "duration": 0.15199099999999532
                },
                {
                    "name": "D#3",
                    "midi": 51,
                    "time": 80.70722100000005,
                    "velocity": 0.3228346456692913,
                    "duration": 0.15199099999999532
                },
                {
                    "name": "C#3",
                    "midi": 49,
                    "time": 80.85921200000004,
                    "velocity": 0.2992125984251969,
                    "duration": 0.15199099999999532
                },
                {
                    "name": "C3",
                    "midi": 48,
                    "time": 81.01120300000004,
                    "velocity": 0.2992125984251969,
                    "duration": 0.07599550000000477
                },
                {
                    "name": "A#2",
                    "midi": 46,
                    "time": 81.08719850000004,
                    "velocity": 0.2755905511811024,
                    "duration": 0.3799775000000096
                },
                {
                    "name": "C#4",
                    "midi": 61,
                    "time": 81.16319400000005,
                    "velocity": 0.31496062992125984,
                    "duration": 0.30398200000000486
                },
                {
                    "name": "A#2",
                    "midi": 46,
                    "time": 81.54317150000006,
                    "velocity": 0.2755905511811024,
                    "duration": 0.3799775000000096
                },
                {
                    "name": "C#4",
                    "midi": 61,
                    "time": 81.61916700000006,
                    "velocity": 0.31496062992125984,
                    "duration": 0.30398200000000486
                },
                {
                    "name": "A#2",
                    "midi": 46,
                    "time": 81.99914450000007,
                    "velocity": 0.2755905511811024,
                    "duration": 0.3799775000000096
                },
                {
                    "name": "C#4",
                    "midi": 61,
                    "time": 82.07514000000008,
                    "velocity": 0.31496062992125984,
                    "duration": 0.30398200000000486
                },
                {
                    "name": "A#2",
                    "midi": 46,
                    "time": 82.45511750000009,
                    "velocity": 0.2755905511811024,
                    "duration": 0.3799775000000096
                },
                {
                    "name": "C#4",
                    "midi": 61,
                    "time": 82.53111300000009,
                    "velocity": 0.31496062992125984,
                    "duration": 0.30398200000000486
                },
                {
                    "name": "A#2",
                    "midi": 46,
                    "time": 82.9110905000001,
                    "velocity": 0.2755905511811024,
                    "duration": 0.3799775000000096
                },
                {
                    "name": "C#4",
                    "midi": 61,
                    "time": 82.9870860000001,
                    "velocity": 0.31496062992125984,
                    "duration": 0.30398200000000486
                },
                {
                    "name": "A#2",
                    "midi": 46,
                    "time": 83.36706350000011,
                    "velocity": 0.2755905511811024,
                    "duration": 0.3799775000000096
                },
                {
                    "name": "C#4",
                    "midi": 61,
                    "time": 83.44305900000012,
                    "velocity": 0.31496062992125984,
                    "duration": 0.30398200000000486
                },
                {
                    "name": "A#2",
                    "midi": 46,
                    "time": 83.82303650000013,
                    "velocity": 0.2755905511811024,
                    "duration": 0.3799775000000096
                },
                {
                    "name": "C#4",
                    "midi": 61,
                    "time": 83.89903200000013,
                    "velocity": 0.31496062992125984,
                    "duration": 0.30398200000000486
                },
                {
                    "name": "A#2",
                    "midi": 46,
                    "time": 84.27900950000014,
                    "velocity": 0.2755905511811024,
                    "duration": 0.3799775000000096
                },
                {
                    "name": "C#4",
                    "midi": 61,
                    "time": 84.35500500000015,
                    "velocity": 0.31496062992125984,
                    "duration": 0.30398200000000486
                },
                {
                    "name": "A2",
                    "midi": 45,
                    "time": 84.81097800000015,
                    "velocity": 0.3858267716535433,
                    "duration": 0.15199099999999532
                },
                {
                    "name": "F3",
                    "midi": 53,
                    "time": 84.96296900000014,
                    "velocity": 0.31496062992125984,
                    "duration": 0.07599550000000477
                },
                {
                    "name": "F3",
                    "midi": 53,
                    "time": 85.11496000000015,
                    "velocity": 0.33070866141732286,
                    "duration": 0.07599550000000477
                },
                {
                    "name": "F2",
                    "midi": 41,
                    "time": 85.26695100000016,
                    "velocity": 0.33070866141732286,
                    "duration": 0.15199099999999532
                },
                {
                    "name": "F3",
                    "midi": 53,
                    "time": 85.41894200000016,
                    "velocity": 0.3700787401574803,
                    "duration": 0.07599550000000477
                },
                {
                    "name": "F3",
                    "midi": 53,
                    "time": 85.57093300000017,
                    "velocity": 0.3937007874015748,
                    "duration": 0.07599550000000477
                },
                {
                    "name": "A#2",
                    "midi": 46,
                    "time": 85.72292400000018,
                    "velocity": 0.4251968503937008,
                    "duration": 0.15199099999999532
                },
                {
                    "name": "F3",
                    "midi": 53,
                    "time": 85.87491500000017,
                    "velocity": 0.33858267716535434,
                    "duration": 0.07599550000000477
                },
                {
                    "name": "F3",
                    "midi": 53,
                    "time": 86.02690600000018,
                    "velocity": 0.36220472440944884,
                    "duration": 0.07599550000000477
                },
                {
                    "name": "D#2",
                    "midi": 39,
                    "time": 86.17889700000019,
                    "velocity": 0.4566929133858268,
                    "duration": 0.15199099999999532
                },
                {
                    "name": "F#3",
                    "midi": 54,
                    "time": 86.33088800000019,
                    "velocity": 0.3779527559055118,
                    "duration": 0.07599550000000477
                },
                {
                    "name": "F#3",
                    "midi": 54,
                    "time": 86.4828790000002,
                    "velocity": 0.3779527559055118,
                    "duration": 0.07599550000000477
                },
                {
                    "name": "F2",
                    "midi": 41,
                    "time": 86.6348700000002,
                    "velocity": 0.47244094488188976,
                    "duration": 0.15199099999999532
                },
                {
                    "name": "F3",
                    "midi": 53,
                    "time": 86.7868610000002,
                    "velocity": 0.3858267716535433,
                    "duration": 0.07599550000000477
                },
                {
                    "name": "F3",
                    "midi": 53,
                    "time": 86.93885200000021,
                    "velocity": 0.36220472440944884,
                    "duration": 0.07599550000000477
                },
                {
                    "name": "F3",
                    "midi": 53,
                    "time": 87.09084300000022,
                    "velocity": 0.4330708661417323,
                    "duration": 0.07599550000000477
                },
                {
                    "name": "F3",
                    "midi": 53,
                    "time": 87.24283400000023,
                    "velocity": 0.36220472440944884,
                    "duration": 0.07599550000000477
                },
                {
                    "name": "F3",
                    "midi": 53,
                    "time": 87.39482500000024,
                    "velocity": 0.36220472440944884,
                    "duration": 0.07599550000000477
                },
                {
                    "name": "F3",
                    "midi": 53,
                    "time": 87.54681600000025,
                    "velocity": 0.4409448818897638,
                    "duration": 0.15199099999999532
                },
                {
                    "name": "F#3",
                    "midi": 54,
                    "time": 87.69880700000024,
                    "velocity": 0.36220472440944884,
                    "duration": 0.15199099999999532
                },
                {
                    "name": "F3",
                    "midi": 53,
                    "time": 87.85079800000024,
                    "velocity": 0.3779527559055118,
                    "duration": 0.07599550000000477
                },
                {
                    "name": "F3",
                    "midi": 53,
                    "time": 88.00278900000025,
                    "velocity": 0.4094488188976378,
                    "duration": 0.07599550000000477
                },
                {
                    "name": "F3",
                    "midi": 53,
                    "time": 88.15478000000026,
                    "velocity": 0.36220472440944884,
                    "duration": 0.07599550000000477
                },
                {
                    "name": "F3",
                    "midi": 53,
                    "time": 88.30677100000027,
                    "velocity": 0.31496062992125984,
                    "duration": 0.07599550000000477
                },
                {
                    "name": "D3",
                    "midi": 50,
                    "time": 88.45876200000028,
                    "velocity": 0.3858267716535433,
                    "duration": 0.15199099999999532
                },
                {
                    "name": "A#3",
                    "midi": 58,
                    "time": 88.61075300000027,
                    "velocity": 0.30708661417322836,
                    "duration": 0.07599550000000477
                },
                {
                    "name": "A#3",
                    "midi": 58,
                    "time": 88.76274400000028,
                    "velocity": 0.30708661417322836,
                    "duration": 0.07599550000000477
                },
                {
                    "name": "A#2",
                    "midi": 46,
                    "time": 88.91473500000029,
                    "velocity": 0.3779527559055118,
                    "duration": 0.07599550000000477
                },
                {
                    "name": "A#3",
                    "midi": 58,
                    "time": 89.0667260000003,
                    "velocity": 0.31496062992125984,
                    "duration": 0.07599550000000477
                },
                {
                    "name": "A#3",
                    "midi": 58,
                    "time": 89.21871700000031,
                    "velocity": 0.31496062992125984,
                    "duration": 0.07599550000000477
                },
                {
                    "name": "D#3",
                    "midi": 51,
                    "time": 89.37070800000032,
                    "velocity": 0.3858267716535433,
                    "duration": 0.15199099999999532
                },
                {
                    "name": "A#3",
                    "midi": 58,
                    "time": 89.52269900000032,
                    "velocity": 0.30708661417322836,
                    "duration": 0.07599550000000477
                },
                {
                    "name": "A#3",
                    "midi": 58,
                    "time": 89.67469000000033,
                    "velocity": 0.30708661417322836,
                    "duration": 0.07599550000000477
                },
                {
                    "name": "A#2",
                    "midi": 46,
                    "time": 89.82668100000033,
                    "velocity": 0.3779527559055118,
                    "duration": 0.07599550000000477
                },
                {
                    "name": "A#3",
                    "midi": 58,
                    "time": 89.97867200000034,
                    "velocity": 0.31496062992125984,
                    "duration": 0.07599550000000477
                },
                {
                    "name": "A#3",
                    "midi": 58,
                    "time": 90.13066300000035,
                    "velocity": 0.31496062992125984,
                    "duration": 0.07599550000000477
                },
                {
                    "name": "D3",
                    "midi": 50,
                    "time": 90.28265400000036,
                    "velocity": 0.49606299212598426,
                    "duration": 0.15199099999999532
                },
                {
                    "name": "A#3",
                    "midi": 58,
                    "time": 90.43464500000036,
                    "velocity": 0.3937007874015748,
                    "duration": 0.07599550000000477
                },
                {
                    "name": "A#3",
                    "midi": 58,
                    "time": 90.58663600000037,
                    "velocity": 0.3937007874015748,
                    "duration": 0.07599550000000477
                },
                {
                    "name": "A#2",
                    "midi": 46,
                    "time": 90.73862700000038,
                    "velocity": 0.4881889763779528,
                    "duration": 0.07599550000000477
                },
                {
                    "name": "A#3",
                    "midi": 58,
                    "time": 90.89061800000039,
                    "velocity": 0.4094488188976378,
                    "duration": 0.07599550000000477
                },
                {
                    "name": "A#3",
                    "midi": 58,
                    "time": 91.0426090000004,
                    "velocity": 0.4094488188976378,
                    "duration": 0.07599550000000477
                },
                {
                    "name": "D#3",
                    "midi": 51,
                    "time": 91.1946000000004,
                    "velocity": 0.49606299212598426,
                    "duration": 0.15199099999999532
                },
                {
                    "name": "A#3",
                    "midi": 58,
                    "time": 91.3465910000004,
                    "velocity": 0.3937007874015748,
                    "duration": 0.07599550000000477
                },
                {
                    "name": "A#3",
                    "midi": 58,
                    "time": 91.49858200000041,
                    "velocity": 0.3937007874015748,
                    "duration": 0.07599550000000477
                },
                {
                    "name": "A#3",
                    "midi": 58,
                    "time": 91.65057300000042,
                    "velocity": 0.4881889763779528,
                    "duration": 0.07599550000000477
                },
                {
                    "name": "A#3",
                    "midi": 58,
                    "time": 91.80256400000043,
                    "velocity": 0.4094488188976378,
                    "duration": 0.07599550000000477
                },
                {
                    "name": "A#3",
                    "midi": 58,
                    "time": 91.95455500000044,
                    "velocity": 0.4094488188976378,
                    "duration": 0.07599550000000477
                },
                {
                    "name": "C4",
                    "midi": 60,
                    "time": 92.10654600000045,
                    "velocity": 0.5118110236220472,
                    "duration": 0.07599550000000477
                },
                {
                    "name": "A#3",
                    "midi": 58,
                    "time": 92.10654600000045,
                    "velocity": 0.4330708661417323,
                    "duration": 0.07599550000000477
                },
                {
                    "name": "E3",
                    "midi": 52,
                    "time": 92.10654600000045,
                    "velocity": 0.4330708661417323,
                    "duration": 0.07599550000000477
                },
                {
                    "name": "E3",
                    "midi": 52,
                    "time": 92.25853700000046,
                    "velocity": 0.3464566929133858,
                    "duration": 0.07599550000000477
                },
                {
                    "name": "A#3",
                    "midi": 58,
                    "time": 92.25853700000046,
                    "velocity": 0.3464566929133858,
                    "duration": 0.07599550000000477
                },
                {
                    "name": "C4",
                    "midi": 60,
                    "time": 92.25853700000046,
                    "velocity": 0.4094488188976378,
                    "duration": 0.07599550000000477
                },
                {
                    "name": "E3",
                    "midi": 52,
                    "time": 92.41052800000047,
                    "velocity": 0.3464566929133858,
                    "duration": 0.07599550000000477
                },
                {
                    "name": "A#3",
                    "midi": 58,
                    "time": 92.41052800000047,
                    "velocity": 0.3464566929133858,
                    "duration": 0.07599550000000477
                },
                {
                    "name": "C4",
                    "midi": 60,
                    "time": 92.41052800000047,
                    "velocity": 0.4094488188976378,
                    "duration": 0.07599550000000477
                },
                {
                    "name": "C4",
                    "midi": 60,
                    "time": 92.56251900000048,
                    "velocity": 0.4645669291338583,
                    "duration": 0.07599550000000477
                },
                {
                    "name": "A#3",
                    "midi": 58,
                    "time": 92.56251900000048,
                    "velocity": 0.3937007874015748,
                    "duration": 0.07599550000000477
                },
                {
                    "name": "E3",
                    "midi": 52,
                    "time": 92.56251900000048,
                    "velocity": 0.3937007874015748,
                    "duration": 0.07599550000000477
                },
                {
                    "name": "E3",
                    "midi": 52,
                    "time": 92.71451000000049,
                    "velocity": 0.3464566929133858,
                    "duration": 0.07599550000000477
                },
                {
                    "name": "A#3",
                    "midi": 58,
                    "time": 92.71451000000049,
                    "velocity": 0.3464566929133858,
                    "duration": 0.07599550000000477
                },
                {
                    "name": "C4",
                    "midi": 60,
                    "time": 92.71451000000049,
                    "velocity": 0.4094488188976378,
                    "duration": 0.07599550000000477
                },
                {
                    "name": "E3",
                    "midi": 52,
                    "time": 92.8665010000005,
                    "velocity": 0.3464566929133858,
                    "duration": 0.07599550000000477
                },
                {
                    "name": "A#3",
                    "midi": 58,
                    "time": 92.8665010000005,
                    "velocity": 0.3464566929133858,
                    "duration": 0.07599550000000477
                },
                {
                    "name": "C4",
                    "midi": 60,
                    "time": 92.8665010000005,
                    "velocity": 0.4094488188976378,
                    "duration": 0.07599550000000477
                },
                {
                    "name": "D#3",
                    "midi": 51,
                    "time": 93.0184920000005,
                    "velocity": 0.5118110236220472,
                    "duration": 0.15199099999999532
                },
                {
                    "name": "F3",
                    "midi": 53,
                    "time": 93.1704830000005,
                    "velocity": 0.29133858267716534,
                    "duration": 0.07599550000000477
                },
                {
                    "name": "A3",
                    "midi": 57,
                    "time": 93.1704830000005,
                    "velocity": 0.29133858267716534,
                    "duration": 0.07599550000000477
                },
                {
                    "name": "C4",
                    "midi": 60,
                    "time": 93.1704830000005,
                    "velocity": 0.4094488188976378,
                    "duration": 0.07599550000000477
                },
                {
                    "name": "F3",
                    "midi": 53,
                    "time": 93.32247400000051,
                    "velocity": 0.29133858267716534,
                    "duration": 0.07599550000000477
                },
                {
                    "name": "A3",
                    "midi": 57,
                    "time": 93.32247400000051,
                    "velocity": 0.29133858267716534,
                    "duration": 0.07599550000000477
                },
                {
                    "name": "C4",
                    "midi": 60,
                    "time": 93.32247400000051,
                    "velocity": 0.4094488188976378,
                    "duration": 0.07599550000000477
                },
                {
                    "name": "D3",
                    "midi": 50,
                    "time": 93.47446500000052,
                    "velocity": 0.4645669291338583,
                    "duration": 0.15199099999999532
                },
                {
                    "name": "F3",
                    "midi": 53,
                    "time": 93.62645600000052,
                    "velocity": 0.29133858267716534,
                    "duration": 0.07599550000000477
                },
                {
                    "name": "A#3",
                    "midi": 58,
                    "time": 93.62645600000052,
                    "velocity": 0.4094488188976378,
                    "duration": 0.07599550000000477
                },
                {
                    "name": "F3",
                    "midi": 53,
                    "time": 93.77844700000053,
                    "velocity": 0.29133858267716534,
                    "duration": 0.07599550000000477
                },
                {
                    "name": "A#3",
                    "midi": 58,
                    "time": 93.77844700000053,
                    "velocity": 0.4094488188976378,
                    "duration": 0.07599550000000477
                },
                {
                    "name": "C3",
                    "midi": 48,
                    "time": 93.93043800000054,
                    "velocity": 0.5118110236220472,
                    "duration": 0.15199099999999532
                },
                {
                    "name": "G3",
                    "midi": 55,
                    "time": 94.08242900000053,
                    "velocity": 0.29133858267716534,
                    "duration": 0.07599550000000477
                },
                {
                    "name": "A#3",
                    "midi": 58,
                    "time": 94.08242900000053,
                    "velocity": 0.29133858267716534,
                    "duration": 0.07599550000000477
                },
                {
                    "name": "C4",
                    "midi": 60,
                    "time": 94.08242900000053,
                    "velocity": 0.4094488188976378,
                    "duration": 0.07599550000000477
                },
                {
                    "name": "G3",
                    "midi": 55,
                    "time": 94.23442000000054,
                    "velocity": 0.29133858267716534,
                    "duration": 0.07599550000000477
                },
                {
                    "name": "A#3",
                    "midi": 58,
                    "time": 94.23442000000054,
                    "velocity": 0.29133858267716534,
                    "duration": 0.07599550000000477
                },
                {
                    "name": "C4",
                    "midi": 60,
                    "time": 94.23442000000054,
                    "velocity": 0.4094488188976378,
                    "duration": 0.07599550000000477
                },
                {
                    "name": "D#3",
                    "midi": 51,
                    "time": 94.38641100000055,
                    "velocity": 0.4645669291338583,
                    "duration": 0.15199099999999532
                },
                {
                    "name": "A3",
                    "midi": 57,
                    "time": 94.53840200000054,
                    "velocity": 0.29133858267716534,
                    "duration": 0.07599550000000477
                },
                {
                    "name": "F3",
                    "midi": 53,
                    "time": 94.53840200000054,
                    "velocity": 0.29133858267716534,
                    "duration": 0.07599550000000477
                },
                {
                    "name": "C4",
                    "midi": 60,
                    "time": 94.53840200000054,
                    "velocity": 0.4094488188976378,
                    "duration": 0.07599550000000477
                },
                {
                    "name": "A3",
                    "midi": 57,
                    "time": 94.69039300000055,
                    "velocity": 0.29133858267716534,
                    "duration": 0.07599550000000477
                },
                {
                    "name": "F3",
                    "midi": 53,
                    "time": 94.69039300000055,
                    "velocity": 0.29133858267716534,
                    "duration": 0.07599550000000477
                },
                {
                    "name": "C4",
                    "midi": 60,
                    "time": 94.69039300000055,
                    "velocity": 0.4094488188976378,
                    "duration": 0.07599550000000477
                },
                {
                    "name": "D3",
                    "midi": 50,
                    "time": 94.84238400000056,
                    "velocity": 0.48031496062992124,
                    "duration": 0.15199099999999532
                },
                {
                    "name": "A#3",
                    "midi": 58,
                    "time": 94.99437500000056,
                    "velocity": 0.41732283464566927,
                    "duration": 0.07599550000000477
                },
                {
                    "name": "D4",
                    "midi": 62,
                    "time": 94.99437500000056,
                    "velocity": 0.41732283464566927,
                    "duration": 0.07599550000000477
                },
                {
                    "name": "D4",
                    "midi": 62,
                    "time": 95.14636600000057,
                    "velocity": 0.4094488188976378,
                    "duration": 0.07599550000000477
                },
                {
                    "name": "A#3",
                    "midi": 58,
                    "time": 95.14636600000057,
                    "velocity": 0.4094488188976378,
                    "duration": 0.07599550000000477
                },
                {
                    "name": "A#3",
                    "midi": 58,
                    "time": 95.29835700000058,
                    "velocity": 0.47244094488188976,
                    "duration": 0.07599550000000477
                },
                {
                    "name": "D4",
                    "midi": 62,
                    "time": 95.29835700000058,
                    "velocity": 0.47244094488188976,
                    "duration": 0.07599550000000477
                },
                {
                    "name": "D4",
                    "midi": 62,
                    "time": 95.45034800000059,
                    "velocity": 0.4330708661417323,
                    "duration": 0.07599550000000477
                },
                {
                    "name": "A#3",
                    "midi": 58,
                    "time": 95.45034800000059,
                    "velocity": 0.4330708661417323,
                    "duration": 0.07599550000000477
                },
                {
                    "name": "D4",
                    "midi": 62,
                    "time": 95.6023390000006,
                    "velocity": 0.4409448818897638,
                    "duration": 0.07599550000000477
                },
                {
                    "name": "A#3",
                    "midi": 58,
                    "time": 95.6023390000006,
                    "velocity": 0.4409448818897638,
                    "duration": 0.07599550000000477
                },
                {
                    "name": "D4",
                    "midi": 62,
                    "time": 95.7543300000006,
                    "velocity": 0.5275590551181102,
                    "duration": 0.15199099999999532
                },
                {
                    "name": "A#3",
                    "midi": 58,
                    "time": 95.7543300000006,
                    "velocity": 0.5039370078740157,
                    "duration": 0.15199099999999532
                },
                {
                    "name": "A#3",
                    "midi": 58,
                    "time": 95.9063210000006,
                    "velocity": 0.4566929133858268,
                    "duration": 0.07599550000000477
                },
                {
                    "name": "D4",
                    "midi": 62,
                    "time": 95.9063210000006,
                    "velocity": 0.4566929133858268,
                    "duration": 0.07599550000000477
                },
                {
                    "name": "D4",
                    "midi": 62,
                    "time": 96.05831200000061,
                    "velocity": 0.44881889763779526,
                    "duration": 0.07599550000000477
                },
                {
                    "name": "A#3",
                    "midi": 58,
                    "time": 96.05831200000061,
                    "velocity": 0.44881889763779526,
                    "duration": 0.07599550000000477
                },
                {
                    "name": "A#3",
                    "midi": 58,
                    "time": 96.21030300000062,
                    "velocity": 0.5196850393700787,
                    "duration": 0.07599550000000477
                },
                {
                    "name": "D4",
                    "midi": 62,
                    "time": 96.21030300000062,
                    "velocity": 0.5196850393700787,
                    "duration": 0.07599550000000477
                },
                {
                    "name": "D4",
                    "midi": 62,
                    "time": 96.36229400000063,
                    "velocity": 0.47244094488188976,
                    "duration": 0.07599550000000477
                },
                {
                    "name": "A#3",
                    "midi": 58,
                    "time": 96.36229400000063,
                    "velocity": 0.47244094488188976,
                    "duration": 0.07599550000000477
                },
                {
                    "name": "D4",
                    "midi": 62,
                    "time": 96.51428500000064,
                    "velocity": 0.48031496062992124,
                    "duration": 0.07599550000000477
                },
                {
                    "name": "A#3",
                    "midi": 58,
                    "time": 96.51428500000064,
                    "velocity": 0.48031496062992124,
                    "duration": 0.07599550000000477
                },
                {
                    "name": "D#3",
                    "midi": 51,
                    "time": 96.66627600000065,
                    "velocity": 0.5511811023622047,
                    "duration": 0.15199099999999532
                },
                {
                    "name": "C#4",
                    "midi": 61,
                    "time": 96.66627600000065,
                    "velocity": 0.5748031496062992,
                    "duration": 0.15199099999999532
                },
                {
                    "name": "A#3",
                    "midi": 58,
                    "time": 96.66627600000065,
                    "velocity": 0.5511811023622047,
                    "duration": 0.15199099999999532
                },
                {
                    "name": "D#3",
                    "midi": 51,
                    "time": 96.81826700000065,
                    "velocity": 0.4881889763779528,
                    "duration": 0.07599550000000477
                },
                {
                    "name": "A#3",
                    "midi": 58,
                    "time": 96.81826700000065,
                    "velocity": 0.4881889763779528,
                    "duration": 0.07599550000000477
                },
                {
                    "name": "C#4",
                    "midi": 61,
                    "time": 96.81826700000065,
                    "velocity": 0.4881889763779528,
                    "duration": 0.07599550000000477
                },
                {
                    "name": "D#3",
                    "midi": 51,
                    "time": 96.97025800000065,
                    "velocity": 0.48031496062992124,
                    "duration": 0.07599550000000477
                },
                {
                    "name": "C#4",
                    "midi": 61,
                    "time": 96.97025800000065,
                    "velocity": 0.48031496062992124,
                    "duration": 0.07599550000000477
                },
                {
                    "name": "A#3",
                    "midi": 58,
                    "time": 96.97025800000065,
                    "velocity": 0.48031496062992124,
                    "duration": 0.07599550000000477
                },
                {
                    "name": "D#3",
                    "midi": 51,
                    "time": 97.12224900000066,
                    "velocity": 0.5354330708661418,
                    "duration": 0.07599550000000477
                },
                {
                    "name": "A#3",
                    "midi": 58,
                    "time": 97.12224900000066,
                    "velocity": 0.5354330708661418,
                    "duration": 0.07599550000000477
                },
                {
                    "name": "C#4",
                    "midi": 61,
                    "time": 97.12224900000066,
                    "velocity": 0.5354330708661418,
                    "duration": 0.07599550000000477
                },
                {
                    "name": "D#3",
                    "midi": 51,
                    "time": 97.27424000000067,
                    "velocity": 0.4881889763779528,
                    "duration": 0.07599550000000477
                },
                {
                    "name": "C#4",
                    "midi": 61,
                    "time": 97.27424000000067,
                    "velocity": 0.4881889763779528,
                    "duration": 0.07599550000000477
                },
                {
                    "name": "A#3",
                    "midi": 58,
                    "time": 97.27424000000067,
                    "velocity": 0.4881889763779528,
                    "duration": 0.07599550000000477
                },
                {
                    "name": "D#3",
                    "midi": 51,
                    "time": 97.42623100000068,
                    "velocity": 0.4881889763779528,
                    "duration": 0.07599550000000477
                },
                {
                    "name": "C#4",
                    "midi": 61,
                    "time": 97.42623100000068,
                    "velocity": 0.4881889763779528,
                    "duration": 0.07599550000000477
                },
                {
                    "name": "A#3",
                    "midi": 58,
                    "time": 97.42623100000068,
                    "velocity": 0.4881889763779528,
                    "duration": 0.07599550000000477
                },
                {
                    "name": "C4",
                    "midi": 60,
                    "time": 97.5782220000007,
                    "velocity": 0.5118110236220472,
                    "duration": 0.07599550000000477
                },
                {
                    "name": "A#3",
                    "midi": 58,
                    "time": 97.5782220000007,
                    "velocity": 0.4330708661417323,
                    "duration": 0.07599550000000477
                },
                {
                    "name": "E3",
                    "midi": 52,
                    "time": 97.5782220000007,
                    "velocity": 0.4330708661417323,
                    "duration": 0.07599550000000477
                },
                {
                    "name": "E3",
                    "midi": 52,
                    "time": 97.7302130000007,
                    "velocity": 0.3464566929133858,
                    "duration": 0.07599550000000477
                },
                {
                    "name": "A#3",
                    "midi": 58,
                    "time": 97.7302130000007,
                    "velocity": 0.3464566929133858,
                    "duration": 0.07599550000000477
                },
                {
                    "name": "C4",
                    "midi": 60,
                    "time": 97.7302130000007,
                    "velocity": 0.4094488188976378,
                    "duration": 0.07599550000000477
                },
                {
                    "name": "E3",
                    "midi": 52,
                    "time": 97.88220400000071,
                    "velocity": 0.3464566929133858,
                    "duration": 0.07599550000000477
                },
                {
                    "name": "A#3",
                    "midi": 58,
                    "time": 97.88220400000071,
                    "velocity": 0.3464566929133858,
                    "duration": 0.07599550000000477
                },
                {
                    "name": "C4",
                    "midi": 60,
                    "time": 97.88220400000071,
                    "velocity": 0.4094488188976378,
                    "duration": 0.07599550000000477
                },
                {
                    "name": "C4",
                    "midi": 60,
                    "time": 98.03419500000072,
                    "velocity": 0.4645669291338583,
                    "duration": 0.07599550000000477
                },
                {
                    "name": "A#3",
                    "midi": 58,
                    "time": 98.03419500000072,
                    "velocity": 0.3937007874015748,
                    "duration": 0.07599550000000477
                },
                {
                    "name": "E3",
                    "midi": 52,
                    "time": 98.03419500000072,
                    "velocity": 0.3937007874015748,
                    "duration": 0.07599550000000477
                },
                {
                    "name": "E3",
                    "midi": 52,
                    "time": 98.18618600000073,
                    "velocity": 0.3464566929133858,
                    "duration": 0.07599550000000477
                },
                {
                    "name": "A#3",
                    "midi": 58,
                    "time": 98.18618600000073,
                    "velocity": 0.3464566929133858,
                    "duration": 0.07599550000000477
                },
                {
                    "name": "C4",
                    "midi": 60,
                    "time": 98.18618600000073,
                    "velocity": 0.4094488188976378,
                    "duration": 0.07599550000000477
                },
                {
                    "name": "E3",
                    "midi": 52,
                    "time": 98.33817700000074,
                    "velocity": 0.3464566929133858,
                    "duration": 0.07599550000000477
                },
                {
                    "name": "A#3",
                    "midi": 58,
                    "time": 98.33817700000074,
                    "velocity": 0.3464566929133858,
                    "duration": 0.07599550000000477
                },
                {
                    "name": "C4",
                    "midi": 60,
                    "time": 98.33817700000074,
                    "velocity": 0.4094488188976378,
                    "duration": 0.07599550000000477
                },
                {
                    "name": "D#3",
                    "midi": 51,
                    "time": 98.49016800000075,
                    "velocity": 0.5118110236220472,
                    "duration": 0.15199099999999532
                },
                {
                    "name": "F3",
                    "midi": 53,
                    "time": 98.64215900000075,
                    "velocity": 0.2440944881889764,
                    "duration": 0.07599550000000477
                },
                {
                    "name": "A3",
                    "midi": 57,
                    "time": 98.64215900000075,
                    "velocity": 0.2440944881889764,
                    "duration": 0.07599550000000477
                },
                {
                    "name": "C4",
                    "midi": 60,
                    "time": 98.64215900000075,
                    "velocity": 0.3464566929133858,
                    "duration": 0.07599550000000477
                },
                {
                    "name": "F3",
                    "midi": 53,
                    "time": 98.79415000000076,
                    "velocity": 0.2440944881889764,
                    "duration": 0.07599550000000477
                },
                {
                    "name": "A3",
                    "midi": 57,
                    "time": 98.79415000000076,
                    "velocity": 0.2440944881889764,
                    "duration": 0.07599550000000477
                },
                {
                    "name": "C4",
                    "midi": 60,
                    "time": 98.79415000000076,
                    "velocity": 0.3464566929133858,
                    "duration": 0.07599550000000477
                },
                {
                    "name": "D3",
                    "midi": 50,
                    "time": 98.94614100000076,
                    "velocity": 0.4645669291338583,
                    "duration": 0.15199099999999532
                },
                {
                    "name": "F3",
                    "midi": 53,
                    "time": 99.09813200000076,
                    "velocity": 0.29133858267716534,
                    "duration": 0.07599550000000477
                },
                {
                    "name": "A#3",
                    "midi": 58,
                    "time": 99.09813200000076,
                    "velocity": 0.4094488188976378,
                    "duration": 0.07599550000000477
                },
                {
                    "name": "F3",
                    "midi": 53,
                    "time": 99.25012300000077,
                    "velocity": 0.29133858267716534,
                    "duration": 0.07599550000000477
                },
                {
                    "name": "A#3",
                    "midi": 58,
                    "time": 99.25012300000077,
                    "velocity": 0.4094488188976378,
                    "duration": 0.07599550000000477
                },
                {
                    "name": "C3",
                    "midi": 48,
                    "time": 99.40211400000078,
                    "velocity": 0.5118110236220472,
                    "duration": 0.15199099999999532
                },
                {
                    "name": "G3",
                    "midi": 55,
                    "time": 99.55410500000077,
                    "velocity": 0.2440944881889764,
                    "duration": 0.07599550000000477
                },
                {
                    "name": "A#3",
                    "midi": 58,
                    "time": 99.55410500000077,
                    "velocity": 0.2440944881889764,
                    "duration": 0.07599550000000477
                },
                {
                    "name": "C4",
                    "midi": 60,
                    "time": 99.55410500000077,
                    "velocity": 0.3464566929133858,
                    "duration": 0.07599550000000477
                },
                {
                    "name": "G3",
                    "midi": 55,
                    "time": 99.70609600000078,
                    "velocity": 0.2440944881889764,
                    "duration": 0.07599550000000477
                },
                {
                    "name": "A#3",
                    "midi": 58,
                    "time": 99.70609600000078,
                    "velocity": 0.2440944881889764,
                    "duration": 0.07599550000000477
                },
                {
                    "name": "C4",
                    "midi": 60,
                    "time": 99.70609600000078,
                    "velocity": 0.3464566929133858,
                    "duration": 0.07599550000000477
                },
                {
                    "name": "F3",
                    "midi": 53,
                    "time": 99.8580870000008,
                    "velocity": 0.4645669291338583,
                    "duration": 0.15199099999999532
                },
                {
                    "name": "C4",
                    "midi": 60,
                    "time": 100.01007800000079,
                    "velocity": 0.2440944881889764,
                    "duration": 0.07599550000000477
                },
                {
                    "name": "A3",
                    "midi": 57,
                    "time": 100.01007800000079,
                    "velocity": 0.2440944881889764,
                    "duration": 0.07599550000000477
                },
                {
                    "name": "D#4",
                    "midi": 63,
                    "time": 100.01007800000079,
                    "velocity": 0.3464566929133858,
                    "duration": 0.07599550000000477
                },
                {
                    "name": "D#4",
                    "midi": 63,
                    "time": 100.1620690000008,
                    "velocity": 0.33070866141732286,
                    "duration": 0.07599550000000477
                },
                {
                    "name": "A3",
                    "midi": 57,
                    "time": 100.1620690000008,
                    "velocity": 0.2755905511811024,
                    "duration": 0.07599550000000477
                },
                {
                    "name": "C4",
                    "midi": 60,
                    "time": 100.1620690000008,
                    "velocity": 0.2755905511811024,
                    "duration": 0.07599550000000477
                },
                {
                    "name": "A#3",
                    "midi": 58,
                    "time": 100.31406000000081,
                    "velocity": 0.41732283464566927,
                    "duration": 0.15199099999999532
                },
                {
                    "name": "D4",
                    "midi": 62,
                    "time": 100.4660510000008,
                    "velocity": 0.3543307086614173,
                    "duration": 0.07599550000000477
                },
                {
                    "name": "D4",
                    "midi": 62,
                    "time": 100.61804200000081,
                    "velocity": 0.3543307086614173,
                    "duration": 0.07599550000000477
                },
                {
                    "name": "D3",
                    "midi": 50,
                    "time": 100.77003300000082,
                    "velocity": 0.41732283464566927,
                    "duration": 0.15199099999999532
                },
                {
                    "name": "F3",
                    "midi": 53,
                    "time": 100.92202400000082,
                    "velocity": 0.3543307086614173,
                    "duration": 0.07599550000000477
                },
                {
                    "name": "F3",
                    "midi": 53,
                    "time": 101.07401500000083,
                    "velocity": 0.3858267716535433,
                    "duration": 0.07599550000000477
                },
                {
                    "name": "A2",
                    "midi": 45,
                    "time": 101.22600600000084,
                    "velocity": 0.4330708661417323,
                    "duration": 0.30398200000000486
                },
                {
                    "name": "F1",
                    "midi": 29,
                    "time": 101.68197900000084,
                    "velocity": 0.3543307086614173,
                    "duration": 0.30398200000000486
                },
                {
                    "name": "F2",
                    "midi": 41,
                    "time": 101.68197900000084,
                    "velocity": 0.3543307086614173,
                    "duration": 0.30398200000000486
                },
                {
                    "name": "A#1",
                    "midi": 34,
                    "time": 102.13795200000084,
                    "velocity": 0.4645669291338583,
                    "duration": 0.30398200000000486
                },
                {
                    "name": "A#2",
                    "midi": 46,
                    "time": 102.13795200000084,
                    "velocity": 0.4645669291338583,
                    "duration": 0.30398200000000486
                },
                {
                    "name": "D2",
                    "midi": 38,
                    "time": 102.59392500000084,
                    "velocity": 0.3937007874015748,
                    "duration": 0.30398200000000486
                },
                {
                    "name": "D3",
                    "midi": 50,
                    "time": 102.59392500000084,
                    "velocity": 0.3937007874015748,
                    "duration": 0.30398200000000486
                },
                {
                    "name": "A1",
                    "midi": 33,
                    "time": 103.04989800000084,
                    "velocity": 0.5196850393700787,
                    "duration": 0.30398200000000486
                },
                {
                    "name": "A2",
                    "midi": 45,
                    "time": 103.04989800000084,
                    "velocity": 0.5196850393700787,
                    "duration": 0.30398200000000486
                },
                {
                    "name": "F1",
                    "midi": 29,
                    "time": 103.50587100000084,
                    "velocity": 0.4330708661417323,
                    "duration": 0.30398200000000486
                },
                {
                    "name": "F2",
                    "midi": 41,
                    "time": 103.50587100000084,
                    "velocity": 0.4330708661417323,
                    "duration": 0.30398200000000486
                },
                {
                    "name": "A#1",
                    "midi": 34,
                    "time": 103.96184400000084,
                    "velocity": 0.5748031496062992,
                    "duration": 0.30398200000000486
                },
                {
                    "name": "A#2",
                    "midi": 46,
                    "time": 103.96184400000084,
                    "velocity": 0.5748031496062992,
                    "duration": 0.30398200000000486
                },
                {
                    "name": "D2",
                    "midi": 38,
                    "time": 104.41781700000084,
                    "velocity": 0.48031496062992124,
                    "duration": 0.30398200000000486
                },
                {
                    "name": "D3",
                    "midi": 50,
                    "time": 104.41781700000084,
                    "velocity": 0.48031496062992124,
                    "duration": 0.30398200000000486
                },
                {
                    "name": "A2",
                    "midi": 45,
                    "time": 104.87379000000084,
                    "velocity": 0.5511811023622047,
                    "duration": 0.15199099999999532
                },
                {
                    "name": "D#3",
                    "midi": 51,
                    "time": 105.02578100000083,
                    "velocity": 0.47244094488188976,
                    "duration": 0.07599550000000477
                },
                {
                    "name": "F3",
                    "midi": 53,
                    "time": 105.02578100000083,
                    "velocity": 0.47244094488188976,
                    "duration": 0.07599550000000477
                },
                {
                    "name": "F3",
                    "midi": 53,
                    "time": 105.17777200000084,
                    "velocity": 0.4645669291338583,
                    "duration": 0.07599550000000477
                },
                {
                    "name": "D#3",
                    "midi": 51,
                    "time": 105.17777200000084,
                    "velocity": 0.4645669291338583,
                    "duration": 0.07599550000000477
                },
                {
                    "name": "D3",
                    "midi": 50,
                    "time": 105.32976300000085,
                    "velocity": 0.5905511811023622,
                    "duration": 0.15199099999999532
                },
                {
                    "name": "F3",
                    "midi": 53,
                    "time": 105.48175400000085,
                    "velocity": 0.49606299212598426,
                    "duration": 0.07599550000000477
                },
                {
                    "name": "D#3",
                    "midi": 51,
                    "time": 105.48175400000085,
                    "velocity": 0.49606299212598426,
                    "duration": 0.07599550000000477
                },
                {
                    "name": "F3",
                    "midi": 53,
                    "time": 105.63374500000086,
                    "velocity": 0.5275590551181102,
                    "duration": 0.07599550000000477
                },
                {
                    "name": "D#3",
                    "midi": 51,
                    "time": 105.63374500000086,
                    "velocity": 0.5275590551181102,
                    "duration": 0.07599550000000477
                },
                {
                    "name": "C3",
                    "midi": 48,
                    "time": 105.78573600000087,
                    "velocity": 0.5905511811023622,
                    "duration": 0.15199099999999532
                },
                {
                    "name": "D#3",
                    "midi": 51,
                    "time": 105.93772700000086,
                    "velocity": 0.5039370078740157,
                    "duration": 0.07599550000000477
                },
                {
                    "name": "F3",
                    "midi": 53,
                    "time": 105.93772700000086,
                    "velocity": 0.5039370078740157,
                    "duration": 0.07599550000000477
                },
                {
                    "name": "F3",
                    "midi": 53,
                    "time": 106.08971800000087,
                    "velocity": 0.5039370078740157,
                    "duration": 0.07599550000000477
                },
                {
                    "name": "D#3",
                    "midi": 51,
                    "time": 106.08971800000087,
                    "velocity": 0.5039370078740157,
                    "duration": 0.07599550000000477
                },
                {
                    "name": "D3",
                    "midi": 50,
                    "time": 106.24170900000088,
                    "velocity": 0.6377952755905512,
                    "duration": 0.15199099999999532
                },
                {
                    "name": "F3",
                    "midi": 53,
                    "time": 106.39370000000088,
                    "velocity": 0.5354330708661418,
                    "duration": 0.07599550000000477
                },
                {
                    "name": "D#3",
                    "midi": 51,
                    "time": 106.39370000000088,
                    "velocity": 0.5354330708661418,
                    "duration": 0.07599550000000477
                },
                {
                    "name": "F3",
                    "midi": 53,
                    "time": 106.54569100000089,
                    "velocity": 0.5669291338582677,
                    "duration": 0.07599550000000477
                },
                {
                    "name": "D#3",
                    "midi": 51,
                    "time": 106.54569100000089,
                    "velocity": 0.5669291338582677,
                    "duration": 0.07599550000000477
                },
                {
                    "name": "A2",
                    "midi": 45,
                    "time": 106.6976820000009,
                    "velocity": 0.6377952755905512,
                    "duration": 0.15199099999999532
                },
                {
                    "name": "D#3",
                    "midi": 51,
                    "time": 106.84967300000089,
                    "velocity": 0.5433070866141733,
                    "duration": 0.07599550000000477
                },
                {
                    "name": "F3",
                    "midi": 53,
                    "time": 106.84967300000089,
                    "velocity": 0.5433070866141733,
                    "duration": 0.07599550000000477
                },
                {
                    "name": "F3",
                    "midi": 53,
                    "time": 107.0016640000009,
                    "velocity": 0.5433070866141733,
                    "duration": 0.07599550000000477
                },
                {
                    "name": "D#3",
                    "midi": 51,
                    "time": 107.0016640000009,
                    "velocity": 0.5433070866141733,
                    "duration": 0.07599550000000477
                },
                {
                    "name": "G2",
                    "midi": 43,
                    "time": 107.15365500000091,
                    "velocity": 0.6771653543307087,
                    "duration": 0.15199099999999532
                },
                {
                    "name": "G3",
                    "midi": 55,
                    "time": 107.3056460000009,
                    "velocity": 0.5669291338582677,
                    "duration": 0.07599550000000477
                },
                {
                    "name": "D#3",
                    "midi": 51,
                    "time": 107.3056460000009,
                    "velocity": 0.5669291338582677,
                    "duration": 0.07599550000000477
                },
                {
                    "name": "G3",
                    "midi": 55,
                    "time": 107.45763700000091,
                    "velocity": 0.5826771653543307,
                    "duration": 0.07599550000000477
                },
                {
                    "name": "D#3",
                    "midi": 51,
                    "time": 107.45763700000091,
                    "velocity": 0.5826771653543307,
                    "duration": 0.07599550000000477
                },
                {
                    "name": "F2",
                    "midi": 41,
                    "time": 107.60962800000092,
                    "velocity": 0.6220472440944882,
                    "duration": 0.15199099999999532
                },
                {
                    "name": "A3",
                    "midi": 57,
                    "time": 107.76161900000092,
                    "velocity": 0.6141732283464567,
                    "duration": 0.11399324999999294
                },
                {
                    "name": "D#3",
                    "midi": 51,
                    "time": 107.76161900000092,
                    "velocity": 0.5196850393700787,
                    "duration": 0.11399324999999294
                },
                {
                    "name": "C3",
                    "midi": 48,
                    "time": 107.76161900000092,
                    "velocity": 0.5196850393700787,
                    "duration": 0.11399324999999294
                },
                {
                    "name": "A3",
                    "midi": 57,
                    "time": 107.91361000000092,
                    "velocity": 0.6141732283464567,
                    "duration": 0.11399324999999294
                },
                {
                    "name": "D#3",
                    "midi": 51,
                    "time": 107.91361000000092,
                    "velocity": 0.5196850393700787,
                    "duration": 0.11399324999999294
                },
                {
                    "name": "C3",
                    "midi": 48,
                    "time": 107.91361000000092,
                    "velocity": 0.5196850393700787,
                    "duration": 0.11399324999999294
                },
                {
                    "name": "C3",
                    "midi": 48,
                    "time": 108.06560100000091,
                    "velocity": 0.5748031496062992,
                    "duration": 0.11399324999999294
                },
                {
                    "name": "D#3",
                    "midi": 51,
                    "time": 108.06560100000091,
                    "velocity": 0.5748031496062992,
                    "duration": 0.11399324999999294
                },
                {
                    "name": "A3",
                    "midi": 57,
                    "time": 108.06560100000091,
                    "velocity": 0.6771653543307087,
                    "duration": 0.11399324999999294
                },
                {
                    "name": "A3",
                    "midi": 57,
                    "time": 108.2175920000009,
                    "velocity": 0.6220472440944882,
                    "duration": 0.11399324999999294
                },
                {
                    "name": "D#3",
                    "midi": 51,
                    "time": 108.2175920000009,
                    "velocity": 0.5275590551181102,
                    "duration": 0.11399324999999294
                },
                {
                    "name": "C3",
                    "midi": 48,
                    "time": 108.2175920000009,
                    "velocity": 0.5275590551181102,
                    "duration": 0.11399324999999294
                },
                {
                    "name": "A3",
                    "midi": 57,
                    "time": 108.3695830000009,
                    "velocity": 0.6220472440944882,
                    "duration": 0.11399324999999294
                },
                {
                    "name": "D#3",
                    "midi": 51,
                    "time": 108.3695830000009,
                    "velocity": 0.5275590551181102,
                    "duration": 0.11399324999999294
                },
                {
                    "name": "C3",
                    "midi": 48,
                    "time": 108.3695830000009,
                    "velocity": 0.5275590551181102,
                    "duration": 0.11399324999999294
                },
                {
                    "name": "C3",
                    "midi": 48,
                    "time": 108.5215740000009,
                    "velocity": 0.5748031496062992,
                    "duration": 0.11399324999999294
                },
                {
                    "name": "D#3",
                    "midi": 51,
                    "time": 108.5215740000009,
                    "velocity": 0.5748031496062992,
                    "duration": 0.11399324999999294
                },
                {
                    "name": "A3",
                    "midi": 57,
                    "time": 108.5215740000009,
                    "velocity": 0.6771653543307087,
                    "duration": 0.11399324999999294
                },
                {
                    "name": "A3",
                    "midi": 57,
                    "time": 108.67356500000089,
                    "velocity": 0.6299212598425197,
                    "duration": 0.11399324999999294
                },
                {
                    "name": "D#3",
                    "midi": 51,
                    "time": 108.67356500000089,
                    "velocity": 0.5354330708661418,
                    "duration": 0.11399324999999294
                },
                {
                    "name": "C3",
                    "midi": 48,
                    "time": 108.67356500000089,
                    "velocity": 0.5354330708661418,
                    "duration": 0.11399324999999294
                },
                {
                    "name": "A3",
                    "midi": 57,
                    "time": 108.82555600000089,
                    "velocity": 0.6299212598425197,
                    "duration": 0.11399324999999294
                },
                {
                    "name": "D#3",
                    "midi": 51,
                    "time": 108.82555600000089,
                    "velocity": 0.5354330708661418,
                    "duration": 0.11399324999999294
                },
                {
                    "name": "C3",
                    "midi": 48,
                    "time": 108.82555600000089,
                    "velocity": 0.5354330708661418,
                    "duration": 0.11399324999999294
                },
                {
                    "name": "C3",
                    "midi": 48,
                    "time": 108.97754700000088,
                    "velocity": 0.5748031496062992,
                    "duration": 0.11399324999999294
                },
                {
                    "name": "D#3",
                    "midi": 51,
                    "time": 108.97754700000088,
                    "velocity": 0.5748031496062992,
                    "duration": 0.11399324999999294
                },
                {
                    "name": "A3",
                    "midi": 57,
                    "time": 108.97754700000088,
                    "velocity": 0.6771653543307087,
                    "duration": 0.11399324999999294
                },
                {
                    "name": "A3",
                    "midi": 57,
                    "time": 109.12953800000088,
                    "velocity": 0.6377952755905512,
                    "duration": 0.11399324999999294
                },
                {
                    "name": "D#3",
                    "midi": 51,
                    "time": 109.12953800000088,
                    "velocity": 0.5354330708661418,
                    "duration": 0.11399324999999294
                },
                {
                    "name": "C3",
                    "midi": 48,
                    "time": 109.12953800000088,
                    "velocity": 0.5354330708661418,
                    "duration": 0.11399324999999294
                },
                {
                    "name": "A3",
                    "midi": 57,
                    "time": 109.28152900000087,
                    "velocity": 0.6377952755905512,
                    "duration": 0.11399324999999294
                },
                {
                    "name": "D#3",
                    "midi": 51,
                    "time": 109.28152900000087,
                    "velocity": 0.5354330708661418,
                    "duration": 0.11399324999999294
                },
                {
                    "name": "C3",
                    "midi": 48,
                    "time": 109.28152900000087,
                    "velocity": 0.5354330708661418,
                    "duration": 0.11399324999999294
                },
                {
                    "name": "F2",
                    "midi": 41,
                    "time": 109.43352000000087,
                    "velocity": 0.5748031496062992,
                    "duration": 0.11399324999999294
                },
                {
                    "name": "D#3",
                    "midi": 51,
                    "time": 109.43352000000087,
                    "velocity": 0.6771653543307087,
                    "duration": 0.11399324999999294
                },
                {
                    "name": "D#3",
                    "midi": 51,
                    "time": 109.58551100000086,
                    "velocity": 0.6377952755905512,
                    "duration": 0.11399324999999294
                },
                {
                    "name": "F2",
                    "midi": 41,
                    "time": 109.58551100000086,
                    "velocity": 0.5354330708661418,
                    "duration": 0.11399324999999294
                },
                {
                    "name": "D#3",
                    "midi": 51,
                    "time": 109.73750200000086,
                    "velocity": 0.6456692913385826,
                    "duration": 0.11399324999999294
                },
                {
                    "name": "F2",
                    "midi": 41,
                    "time": 109.73750200000086,
                    "velocity": 0.5433070866141733,
                    "duration": 0.11399324999999294
                },
                {
                    "name": "F2",
                    "midi": 41,
                    "time": 109.88949300000085,
                    "velocity": 0.5748031496062992,
                    "duration": 0.11399324999999294
                },
                {
                    "name": "D#3",
                    "midi": 51,
                    "time": 109.88949300000085,
                    "velocity": 0.6771653543307087,
                    "duration": 0.11399324999999294
                },
                {
                    "name": "D#3",
                    "midi": 51,
                    "time": 110.04148400000085,
                    "velocity": 0.6377952755905512,
                    "duration": 0.11399324999999294
                },
                {
                    "name": "F2",
                    "midi": 41,
                    "time": 110.04148400000085,
                    "velocity": 0.5354330708661418,
                    "duration": 0.11399324999999294
                },
                {
                    "name": "D#3",
                    "midi": 51,
                    "time": 110.19347500000084,
                    "velocity": 0.6377952755905512,
                    "duration": 0.11399324999999294
                },
                {
                    "name": "F2",
                    "midi": 41,
                    "time": 110.19347500000084,
                    "velocity": 0.5354330708661418,
                    "duration": 0.11399324999999294
                },
                {
                    "name": "A#2",
                    "midi": 46,
                    "time": 110.34546600000084,
                    "velocity": 0.5748031496062992,
                    "duration": 0.2279865000000001
                },
                {
                    "name": "D3",
                    "midi": 50,
                    "time": 110.34546600000084,
                    "velocity": 0.6771653543307087,
                    "duration": 0.2279865000000001
                },
                {
                    "name": "A#2",
                    "midi": 46,
                    "time": 110.80143900000084,
                    "velocity": 0.5748031496062992,
                    "duration": 0.2279865000000001
                },
                {
                    "name": "D3",
                    "midi": 50,
                    "time": 110.80143900000084,
                    "velocity": 0.6771653543307087,
                    "duration": 0.2279865000000001
                },
                {
                    "name": "A#2",
                    "midi": 46,
                    "time": 111.25741200000084,
                    "velocity": 0.5748031496062992,
                    "duration": 0.2279865000000001
                },
                {
                    "name": "D3",
                    "midi": 50,
                    "time": 111.25741200000084,
                    "velocity": 0.6771653543307087,
                    "duration": 0.2279865000000001
                },
                {
                    "name": "A#2",
                    "midi": 46,
                    "time": 111.71338500000084,
                    "velocity": 0.5748031496062992,
                    "duration": 0.2279865000000001
                },
                {
                    "name": "F3",
                    "midi": 53,
                    "time": 111.71338500000084,
                    "velocity": 0.5748031496062992,
                    "duration": 0.2279865000000001
                },
                {
                    "name": "A#3",
                    "midi": 58,
                    "time": 111.71338500000084,
                    "velocity": 0.6771653543307087,
                    "duration": 0.2279865000000001
                },
                {
                    "name": "A#2",
                    "midi": 46,
                    "time": 112.16935800000084,
                    "velocity": 0.5748031496062992,
                    "duration": 0.30398200000000486
                },
                {
                    "name": "F3",
                    "midi": 53,
                    "time": 112.16935800000084,
                    "velocity": 0.5748031496062992,
                    "duration": 0.30398200000000486
                },
                {
                    "name": "A#3",
                    "midi": 58,
                    "time": 112.16935800000084,
                    "velocity": 0.6771653543307087,
                    "duration": 0.30398200000000486
                },
                {
                    "name": "F3",
                    "midi": 53,
                    "time": 113.08130400000084,
                    "velocity": 0.5748031496062992,
                    "duration": 0.30398200000000486
                },
                {
                    "name": "A#3",
                    "midi": 58,
                    "time": 113.08130400000084,
                    "velocity": 0.5748031496062992,
                    "duration": 0.30398200000000486
                },
                {
                    "name": "D4",
                    "midi": 62,
                    "time": 113.08130400000084,
                    "velocity": 0.6771653543307087,
                    "duration": 0.30398200000000486
                },
                {
                    "name": "A#1",
                    "midi": 34,
                    "time": 113.99325000000084,
                    "velocity": 0.84251968503937,
                    "duration": 0.30398200000000486
                }
            ],
            "controlChanges": {},
            "id": 2,
            "name": "Piano left",
            "instrumentNumber": 0,
            "instrument": "acoustic grand piano",
            "instrumentFamily": "piano",
            "channelNumber": 0,
            "isPercussion": false
        },
        {
            "startTime": 0,
            "duration": 0,
            "length": 0,
            "notes": [],
            "controlChanges": {
                "64": [
                    {
                        "number": 64,
                        "time": 0.9930078666666667,
                        "value": 1
                    },
                    {
                        "number": 64,
                        "time": 1.2336602833333334,
                        "value": 0
                    },
                    {
                        "number": 64,
                        "time": 1.4439145000000002,
                        "value": 1
                    },
                    {
                        "number": 64,
                        "time": 1.6896332833333336,
                        "value": 0
                    },
                    {
                        "number": 64,
                        "time": 1.8821552166666669,
                        "value": 1
                    },
                    {
                        "number": 64,
                        "time": 2.1519392416666667,
                        "value": 0
                    },
                    {
                        "number": 64,
                        "time": 2.3558605,
                        "value": 1
                    },
                    {
                        "number": 64,
                        "time": 2.610445425,
                        "value": 0
                    },
                    {
                        "number": 64,
                        "time": 2.7814353,
                        "value": 1
                    },
                    {
                        "number": 64,
                        "time": 3.0714847916666668,
                        "value": 0
                    },
                    {
                        "number": 64,
                        "time": 3.29060515,
                        "value": 1
                    },
                    {
                        "number": 64,
                        "time": 3.5135252833333337,
                        "value": 0
                    },
                    {
                        "number": 64,
                        "time": 3.7111135833333337,
                        "value": 1
                    },
                    {
                        "number": 64,
                        "time": 3.965698508333334,
                        "value": 0
                    },
                    {
                        "number": 64,
                        "time": 4.604060708333334,
                        "value": 1
                    },
                    {
                        "number": 64,
                        "time": 5.052434158333334,
                        "value": 0
                    },
                    {
                        "number": 64,
                        "time": 5.106897600000001,
                        "value": 1
                    },
                    {
                        "number": 64,
                        "time": 5.329817733333334,
                        "value": 0
                    },
                    {
                        "number": 64,
                        "time": 5.516006708333334,
                        "value": 1
                    },
                    {
                        "number": 64,
                        "time": 5.635066325000001,
                        "value": 0
                    },
                    {
                        "number": 64,
                        "time": 5.997311541666668,
                        "value": 1
                    },
                    {
                        "number": 64,
                        "time": 6.112571383333335,
                        "value": 0
                    },
                    {
                        "number": 64,
                        "time": 6.415286791666668,
                        "value": 1
                    },
                    {
                        "number": 64,
                        "time": 6.862393650000001,
                        "value": 0
                    },
                    {
                        "number": 64,
                        "time": 6.911790725000001,
                        "value": 1
                    },
                    {
                        "number": 64,
                        "time": 7.295568000000001,
                        "value": 0
                    },
                    {
                        "number": 64,
                        "time": 7.3715635000000015,
                        "value": 1
                    },
                    {
                        "number": 64,
                        "time": 7.792071933333335,
                        "value": 0
                    },
                    {
                        "number": 64,
                        "time": 8.230312650000002,
                        "value": 1
                    },
                    {
                        "number": 64,
                        "time": 8.534294650000001,
                        "value": 0
                    },
                    {
                        "number": 64,
                        "time": 8.721750216666669,
                        "value": 1
                    },
                    {
                        "number": 64,
                        "time": 8.985201283333335,
                        "value": 0
                    },
                    {
                        "number": 64,
                        "time": 9.177723216666669,
                        "value": 1
                    },
                    {
                        "number": 64,
                        "time": 9.460173158333335,
                        "value": 0
                    },
                    {
                        "number": 64,
                        "time": 9.610897566666669,
                        "value": 1
                    },
                    {
                        "number": 64,
                        "time": 9.903480241666669,
                        "value": 0
                    },
                    {
                        "number": 64,
                        "time": 10.121334008333335,
                        "value": 1
                    },
                    {
                        "number": 64,
                        "time": 10.510177650000001,
                        "value": 0
                    },
                    {
                        "number": 64,
                        "time": 10.577307008333335,
                        "value": 1
                    },
                    {
                        "number": 64,
                        "time": 10.801493733333334,
                        "value": 0
                    },
                    {
                        "number": 64,
                        "time": 10.992749075,
                        "value": 1
                    },
                    {
                        "number": 64,
                        "time": 11.429723200000002,
                        "value": 0
                    },
                    {
                        "number": 64,
                        "time": 11.480386866666668,
                        "value": 1
                    },
                    {
                        "number": 64,
                        "time": 11.866697325000002,
                        "value": 0
                    },
                    {
                        "number": 64,
                        "time": 11.97435761666667,
                        "value": 1
                    },
                    {
                        "number": 64,
                        "time": 12.342935791666669,
                        "value": 0
                    },
                    {
                        "number": 64,
                        "time": 12.47212814166667,
                        "value": 1
                    },
                    {
                        "number": 64,
                        "time": 12.784976283333336,
                        "value": 0
                    },
                    {
                        "number": 64,
                        "time": 12.868571333333335,
                        "value": 1
                    },
                    {
                        "number": 64,
                        "time": 13.249815425000001,
                        "value": 0
                    },
                    {
                        "number": 64,
                        "time": 13.333410475,
                        "value": 1
                    },
                    {
                        "number": 64,
                        "time": 13.703255241666668,
                        "value": 0
                    },
                    {
                        "number": 64,
                        "time": 13.798249616666668,
                        "value": 1
                    },
                    {
                        "number": 64,
                        "time": 14.155428466666669,
                        "value": 0
                    },
                    {
                        "number": 64,
                        "time": 14.245356475000001,
                        "value": 1
                    },
                    {
                        "number": 64,
                        "time": 14.612668058333334,
                        "value": 0
                    },
                    {
                        "number": 64,
                        "time": 14.670931275000001,
                        "value": 1
                    },
                    {
                        "number": 64,
                        "time": 15.071174241666668,
                        "value": 0
                    },
                    {
                        "number": 64,
                        "time": 15.142103375000001,
                        "value": 1
                    },
                    {
                        "number": 64,
                        "time": 15.519547691666668,
                        "value": 0
                    },
                    {
                        "number": 64,
                        "time": 15.638607308333334,
                        "value": 1
                    },
                    {
                        "number": 64,
                        "time": 15.980587058333334,
                        "value": 0
                    },
                    {
                        "number": 64,
                        "time": 16.069248475000002,
                        "value": 1
                    },
                    {
                        "number": 64,
                        "time": 16.42262755,
                        "value": 0
                    },
                    {
                        "number": 64,
                        "time": 17.40803586666667,
                        "value": 1
                    },
                    {
                        "number": 64,
                        "time": 17.648688283333335,
                        "value": 0
                    },
                    {
                        "number": 64,
                        "time": 17.8589425,
                        "value": 1
                    },
                    {
                        "number": 64,
                        "time": 18.104661283333336,
                        "value": 0
                    },
                    {
                        "number": 64,
                        "time": 18.297183216666667,
                        "value": 1
                    },
                    {
                        "number": 64,
                        "time": 18.566967241666667,
                        "value": 0
                    },
                    {
                        "number": 64,
                        "time": 18.7708885,
                        "value": 1
                    },
                    {
                        "number": 64,
                        "time": 19.025473425,
                        "value": 0
                    },
                    {
                        "number": 64,
                        "time": 19.1964633,
                        "value": 1
                    },
                    {
                        "number": 64,
                        "time": 19.48651279166667,
                        "value": 0
                    },
                    {
                        "number": 64,
                        "time": 19.705633150000004,
                        "value": 1
                    },
                    {
                        "number": 64,
                        "time": 19.928553283333336,
                        "value": 0
                    },
                    {
                        "number": 64,
                        "time": 20.126141583333336,
                        "value": 1
                    },
                    {
                        "number": 64,
                        "time": 20.380726508333336,
                        "value": 0
                    },
                    {
                        "number": 64,
                        "time": 21.019088708333335,
                        "value": 1
                    },
                    {
                        "number": 64,
                        "time": 21.467462158333333,
                        "value": 0
                    },
                    {
                        "number": 64,
                        "time": 21.5219256,
                        "value": 1
                    },
                    {
                        "number": 64,
                        "time": 21.74484573333333,
                        "value": 0
                    },
                    {
                        "number": 64,
                        "time": 21.931034708333332,
                        "value": 1
                    },
                    {
                        "number": 64,
                        "time": 22.050094325,
                        "value": 0
                    },
                    {
                        "number": 64,
                        "time": 22.412339541666668,
                        "value": 1
                    },
                    {
                        "number": 64,
                        "time": 22.527599383333335,
                        "value": 0
                    },
                    {
                        "number": 64,
                        "time": 22.83031479166667,
                        "value": 1
                    },
                    {
                        "number": 64,
                        "time": 23.277421650000004,
                        "value": 0
                    },
                    {
                        "number": 64,
                        "time": 23.326818725000006,
                        "value": 1
                    },
                    {
                        "number": 64,
                        "time": 23.710596000000006,
                        "value": 0
                    },
                    {
                        "number": 64,
                        "time": 23.786591500000007,
                        "value": 1
                    },
                    {
                        "number": 64,
                        "time": 24.20709993333334,
                        "value": 0
                    },
                    {
                        "number": 64,
                        "time": 24.645340650000005,
                        "value": 1
                    },
                    {
                        "number": 64,
                        "time": 24.949322650000006,
                        "value": 0
                    },
                    {
                        "number": 64,
                        "time": 25.136778216666674,
                        "value": 1
                    },
                    {
                        "number": 64,
                        "time": 25.40022928333334,
                        "value": 0
                    },
                    {
                        "number": 64,
                        "time": 25.59275121666667,
                        "value": 1
                    },
                    {
                        "number": 64,
                        "time": 25.875201158333336,
                        "value": 0
                    },
                    {
                        "number": 64,
                        "time": 26.02592556666667,
                        "value": 1
                    },
                    {
                        "number": 64,
                        "time": 26.318508241666667,
                        "value": 0
                    },
                    {
                        "number": 64,
                        "time": 26.536362008333334,
                        "value": 1
                    },
                    {
                        "number": 64,
                        "time": 26.925205650000002,
                        "value": 0
                    },
                    {
                        "number": 64,
                        "time": 26.992335008333335,
                        "value": 1
                    },
                    {
                        "number": 64,
                        "time": 27.216521733333334,
                        "value": 0
                    },
                    {
                        "number": 64,
                        "time": 27.407777075000002,
                        "value": 1
                    },
                    {
                        "number": 64,
                        "time": 27.8447512,
                        "value": 0
                    },
                    {
                        "number": 64,
                        "time": 27.895414866666666,
                        "value": 1
                    },
                    {
                        "number": 64,
                        "time": 28.281725325,
                        "value": 0
                    },
                    {
                        "number": 64,
                        "time": 28.389385616666665,
                        "value": 1
                    },
                    {
                        "number": 64,
                        "time": 28.757963791666665,
                        "value": 0
                    },
                    {
                        "number": 64,
                        "time": 28.887156141666665,
                        "value": 1
                    },
                    {
                        "number": 64,
                        "time": 29.20000428333333,
                        "value": 0
                    },
                    {
                        "number": 64,
                        "time": 29.28359933333333,
                        "value": 1
                    },
                    {
                        "number": 64,
                        "time": 29.664843424999997,
                        "value": 0
                    },
                    {
                        "number": 64,
                        "time": 29.748438474999997,
                        "value": 1
                    },
                    {
                        "number": 64,
                        "time": 30.118283241666663,
                        "value": 0
                    },
                    {
                        "number": 64,
                        "time": 30.213277616666662,
                        "value": 1
                    },
                    {
                        "number": 64,
                        "time": 30.570456466666663,
                        "value": 0
                    },
                    {
                        "number": 64,
                        "time": 30.660384474999997,
                        "value": 1
                    },
                    {
                        "number": 64,
                        "time": 31.02769605833333,
                        "value": 0
                    },
                    {
                        "number": 64,
                        "time": 31.085959274999997,
                        "value": 1
                    },
                    {
                        "number": 64,
                        "time": 31.486202241666664,
                        "value": 0
                    },
                    {
                        "number": 64,
                        "time": 31.557131374999997,
                        "value": 1
                    },
                    {
                        "number": 64,
                        "time": 31.934575691666662,
                        "value": 0
                    },
                    {
                        "number": 64,
                        "time": 32.05363530833333,
                        "value": 1
                    },
                    {
                        "number": 64,
                        "time": 32.39561505833333,
                        "value": 0
                    },
                    {
                        "number": 64,
                        "time": 32.484276474999994,
                        "value": 1
                    },
                    {
                        "number": 64,
                        "time": 32.837655549999994,
                        "value": 0
                    },
                    {
                        "number": 64,
                        "time": 33.82306386666666,
                        "value": 1
                    },
                    {
                        "number": 64,
                        "time": 33.92565779166666,
                        "value": 0
                    },
                    {
                        "number": 64,
                        "time": 34.27397049999999,
                        "value": 1
                    },
                    {
                        "number": 64,
                        "time": 34.390496933333324,
                        "value": 0
                    },
                    {
                        "number": 64,
                        "time": 34.703345074999994,
                        "value": 1
                    },
                    {
                        "number": 64,
                        "time": 34.855336075,
                        "value": 0
                    },
                    {
                        "number": 64,
                        "time": 35.1859165,
                        "value": 1
                    },
                    {
                        "number": 64,
                        "time": 35.3075093,
                        "value": 0
                    },
                    {
                        "number": 64,
                        "time": 35.646955866666666,
                        "value": 1
                    },
                    {
                        "number": 64,
                        "time": 35.74954979166667,
                        "value": 0
                    },
                    {
                        "number": 64,
                        "time": 36.0978625,
                        "value": 1
                    },
                    {
                        "number": 64,
                        "time": 36.21438893333333,
                        "value": 0
                    },
                    {
                        "number": 64,
                        "time": 36.527237075,
                        "value": 1
                    },
                    {
                        "number": 64,
                        "time": 36.679228075000005,
                        "value": 0
                    },
                    {
                        "number": 64,
                        "time": 37.009808500000005,
                        "value": 1
                    },
                    {
                        "number": 64,
                        "time": 37.13140130000001,
                        "value": 0
                    },
                    {
                        "number": 64,
                        "time": 37.470847866666674,
                        "value": 1
                    },
                    {
                        "number": 64,
                        "time": 37.573441791666674,
                        "value": 0
                    },
                    {
                        "number": 64,
                        "time": 37.921754500000006,
                        "value": 1
                    },
                    {
                        "number": 64,
                        "time": 38.03828093333334,
                        "value": 0
                    },
                    {
                        "number": 64,
                        "time": 38.35112907500001,
                        "value": 1
                    },
                    {
                        "number": 64,
                        "time": 38.50312007500001,
                        "value": 0
                    },
                    {
                        "number": 64,
                        "time": 38.83370050000001,
                        "value": 1
                    },
                    {
                        "number": 64,
                        "time": 38.955293300000015,
                        "value": 0
                    },
                    {
                        "number": 64,
                        "time": 39.29473986666668,
                        "value": 1
                    },
                    {
                        "number": 64,
                        "time": 39.39733379166668,
                        "value": 0
                    },
                    {
                        "number": 64,
                        "time": 39.745646500000014,
                        "value": 1
                    },
                    {
                        "number": 64,
                        "time": 39.86217293333335,
                        "value": 0
                    },
                    {
                        "number": 64,
                        "time": 40.17502107500002,
                        "value": 1
                    },
                    {
                        "number": 64,
                        "time": 40.32701207500002,
                        "value": 0
                    },
                    {
                        "number": 64,
                        "time": 40.65759250000002,
                        "value": 1
                    },
                    {
                        "number": 64,
                        "time": 40.77918530000002,
                        "value": 0
                    },
                    {
                        "number": 64,
                        "time": 41.086967075000025,
                        "value": 1
                    },
                    {
                        "number": 64,
                        "time": 41.23895807500003,
                        "value": 0
                    },
                    {
                        "number": 64,
                        "time": 41.56953850000003,
                        "value": 1
                    },
                    {
                        "number": 64,
                        "time": 41.69113130000003,
                        "value": 0
                    },
                    {
                        "number": 64,
                        "time": 41.99891307500003,
                        "value": 1
                    },
                    {
                        "number": 64,
                        "time": 42.150904075000035,
                        "value": 0
                    },
                    {
                        "number": 64,
                        "time": 42.481484500000036,
                        "value": 1
                    },
                    {
                        "number": 64,
                        "time": 42.60307730000004,
                        "value": 0
                    },
                    {
                        "number": 64,
                        "time": 42.91085907500004,
                        "value": 1
                    },
                    {
                        "number": 64,
                        "time": 43.06285007500004,
                        "value": 0
                    },
                    {
                        "number": 64,
                        "time": 43.39343050000004,
                        "value": 1
                    },
                    {
                        "number": 64,
                        "time": 43.515023300000045,
                        "value": 0
                    },
                    {
                        "number": 64,
                        "time": 43.82280507500005,
                        "value": 1
                    },
                    {
                        "number": 64,
                        "time": 43.97479607500005,
                        "value": 0
                    },
                    {
                        "number": 64,
                        "time": 44.30537650000005,
                        "value": 1
                    },
                    {
                        "number": 64,
                        "time": 44.42696930000005,
                        "value": 0
                    },
                    {
                        "number": 64,
                        "time": 44.734751075000055,
                        "value": 1
                    },
                    {
                        "number": 64,
                        "time": 44.88674207500006,
                        "value": 0
                    },
                    {
                        "number": 64,
                        "time": 45.21732250000006,
                        "value": 1
                    },
                    {
                        "number": 64,
                        "time": 45.33891530000006,
                        "value": 0
                    },
                    {
                        "number": 64,
                        "time": 45.64669707500006,
                        "value": 1
                    },
                    {
                        "number": 64,
                        "time": 45.798688075000065,
                        "value": 0
                    },
                    {
                        "number": 64,
                        "time": 46.129268500000066,
                        "value": 1
                    },
                    {
                        "number": 64,
                        "time": 46.3673877333334,
                        "value": 0
                    },
                    {
                        "number": 64,
                        "time": 46.6181728833334,
                        "value": 1
                    },
                    {
                        "number": 64,
                        "time": 46.825893916666736,
                        "value": 0
                    },
                    {
                        "number": 64,
                        "time": 47.041214500000066,
                        "value": 1
                    },
                    {
                        "number": 64,
                        "time": 47.2793337333334,
                        "value": 0
                    },
                    {
                        "number": 64,
                        "time": 47.533918658333405,
                        "value": 1
                    },
                    {
                        "number": 64,
                        "time": 47.91516275000007,
                        "value": 0
                    },
                    {
                        "number": 64,
                        "time": 48.054487833333404,
                        "value": 1
                    },
                    {
                        "number": 64,
                        "time": 48.34073755000007,
                        "value": 0
                    },
                    {
                        "number": 64,
                        "time": 48.343270733333405,
                        "value": 0
                    },
                    {
                        "number": 64,
                        "time": 49.326145866666735,
                        "value": 1
                    },
                    {
                        "number": 64,
                        "time": 49.566798283333405,
                        "value": 0
                    },
                    {
                        "number": 64,
                        "time": 49.777052500000075,
                        "value": 1
                    },
                    {
                        "number": 64,
                        "time": 50.022771283333405,
                        "value": 0
                    },
                    {
                        "number": 64,
                        "time": 50.21529321666674,
                        "value": 1
                    },
                    {
                        "number": 64,
                        "time": 50.48507724166674,
                        "value": 0
                    },
                    {
                        "number": 64,
                        "time": 50.68899850000007,
                        "value": 1
                    },
                    {
                        "number": 64,
                        "time": 50.94358342500007,
                        "value": 0
                    },
                    {
                        "number": 64,
                        "time": 51.11457330000007,
                        "value": 1
                    },
                    {
                        "number": 64,
                        "time": 51.40462279166673,
                        "value": 0
                    },
                    {
                        "number": 64,
                        "time": 51.62374315000007,
                        "value": 1
                    },
                    {
                        "number": 64,
                        "time": 51.8466632833334,
                        "value": 0
                    },
                    {
                        "number": 64,
                        "time": 52.0442515833334,
                        "value": 1
                    },
                    {
                        "number": 64,
                        "time": 52.2988365083334,
                        "value": 0
                    },
                    {
                        "number": 64,
                        "time": 52.937198708333405,
                        "value": 1
                    },
                    {
                        "number": 64,
                        "time": 53.3855721583334,
                        "value": 0
                    },
                    {
                        "number": 64,
                        "time": 53.44003560000007,
                        "value": 1
                    },
                    {
                        "number": 64,
                        "time": 53.662955733333405,
                        "value": 0
                    },
                    {
                        "number": 64,
                        "time": 53.849144708333405,
                        "value": 1
                    },
                    {
                        "number": 64,
                        "time": 53.96820432500007,
                        "value": 0
                    },
                    {
                        "number": 64,
                        "time": 54.33044954166674,
                        "value": 1
                    },
                    {
                        "number": 64,
                        "time": 54.4457093833334,
                        "value": 0
                    },
                    {
                        "number": 64,
                        "time": 54.748424791666736,
                        "value": 1
                    },
                    {
                        "number": 64,
                        "time": 55.19553165000007,
                        "value": 0
                    },
                    {
                        "number": 64,
                        "time": 55.24492872500007,
                        "value": 1
                    },
                    {
                        "number": 64,
                        "time": 55.62870600000007,
                        "value": 0
                    },
                    {
                        "number": 64,
                        "time": 55.70470150000007,
                        "value": 1
                    },
                    {
                        "number": 64,
                        "time": 56.1252099333334,
                        "value": 0
                    },
                    {
                        "number": 64,
                        "time": 56.56345065000007,
                        "value": 1
                    },
                    {
                        "number": 64,
                        "time": 56.86743265000007,
                        "value": 0
                    },
                    {
                        "number": 64,
                        "time": 57.05488821666673,
                        "value": 1
                    },
                    {
                        "number": 64,
                        "time": 57.3183392833334,
                        "value": 0
                    },
                    {
                        "number": 64,
                        "time": 57.51086121666673,
                        "value": 1
                    },
                    {
                        "number": 64,
                        "time": 57.7933111583334,
                        "value": 0
                    },
                    {
                        "number": 64,
                        "time": 57.944035566666734,
                        "value": 1
                    },
                    {
                        "number": 64,
                        "time": 58.23661824166673,
                        "value": 0
                    },
                    {
                        "number": 64,
                        "time": 58.4544720083334,
                        "value": 1
                    },
                    {
                        "number": 64,
                        "time": 58.843315650000065,
                        "value": 0
                    },
                    {
                        "number": 64,
                        "time": 58.9104450083334,
                        "value": 1
                    },
                    {
                        "number": 64,
                        "time": 59.1346317333334,
                        "value": 0
                    },
                    {
                        "number": 64,
                        "time": 59.32588707500007,
                        "value": 1
                    },
                    {
                        "number": 64,
                        "time": 59.76286120000007,
                        "value": 0
                    },
                    {
                        "number": 64,
                        "time": 59.81352486666673,
                        "value": 1
                    },
                    {
                        "number": 64,
                        "time": 60.199835325000066,
                        "value": 0
                    },
                    {
                        "number": 64,
                        "time": 60.307495616666735,
                        "value": 1
                    },
                    {
                        "number": 64,
                        "time": 60.67607379166674,
                        "value": 0
                    },
                    {
                        "number": 64,
                        "time": 60.805266141666735,
                        "value": 1
                    },
                    {
                        "number": 64,
                        "time": 61.118114283333405,
                        "value": 0
                    },
                    {
                        "number": 64,
                        "time": 61.201709333333405,
                        "value": 1
                    },
                    {
                        "number": 64,
                        "time": 61.58295342500007,
                        "value": 0
                    },
                    {
                        "number": 64,
                        "time": 61.66654847500007,
                        "value": 1
                    },
                    {
                        "number": 64,
                        "time": 62.03639324166674,
                        "value": 0
                    },
                    {
                        "number": 64,
                        "time": 62.131387616666736,
                        "value": 1
                    },
                    {
                        "number": 64,
                        "time": 62.48856646666673,
                        "value": 0
                    },
                    {
                        "number": 64,
                        "time": 62.57849447500006,
                        "value": 1
                    },
                    {
                        "number": 64,
                        "time": 62.945806058333396,
                        "value": 0
                    },
                    {
                        "number": 64,
                        "time": 63.00406927500006,
                        "value": 1
                    },
                    {
                        "number": 64,
                        "time": 63.40431224166673,
                        "value": 0
                    },
                    {
                        "number": 64,
                        "time": 63.47524137500007,
                        "value": 1
                    },
                    {
                        "number": 64,
                        "time": 63.852685691666736,
                        "value": 0
                    },
                    {
                        "number": 64,
                        "time": 63.971745308333404,
                        "value": 1
                    },
                    {
                        "number": 64,
                        "time": 64.3137250583334,
                        "value": 0
                    },
                    {
                        "number": 64,
                        "time": 64.40238647500007,
                        "value": 1
                    },
                    {
                        "number": 64,
                        "time": 64.75576555000008,
                        "value": 0
                    },
                    {
                        "number": 64,
                        "time": 65.74117386666674,
                        "value": 1
                    },
                    {
                        "number": 64,
                        "time": 65.84376779166674,
                        "value": 0
                    },
                    {
                        "number": 64,
                        "time": 66.19208050000007,
                        "value": 1
                    },
                    {
                        "number": 64,
                        "time": 66.30860693333341,
                        "value": 0
                    },
                    {
                        "number": 64,
                        "time": 66.62145507500007,
                        "value": 1
                    },
                    {
                        "number": 64,
                        "time": 66.77344607500007,
                        "value": 0
                    },
                    {
                        "number": 64,
                        "time": 67.10402650000006,
                        "value": 1
                    },
                    {
                        "number": 64,
                        "time": 67.22561930000006,
                        "value": 0
                    },
                    {
                        "number": 64,
                        "time": 67.56506586666673,
                        "value": 1
                    },
                    {
                        "number": 64,
                        "time": 67.66765979166672,
                        "value": 0
                    },
                    {
                        "number": 64,
                        "time": 68.01597250000006,
                        "value": 1
                    },
                    {
                        "number": 64,
                        "time": 68.1324989333334,
                        "value": 0
                    },
                    {
                        "number": 64,
                        "time": 68.44534707500006,
                        "value": 1
                    },
                    {
                        "number": 64,
                        "time": 68.59733807500005,
                        "value": 0
                    },
                    {
                        "number": 64,
                        "time": 68.92791850000005,
                        "value": 1
                    },
                    {
                        "number": 64,
                        "time": 69.04951130000005,
                        "value": 0
                    },
                    {
                        "number": 64,
                        "time": 69.38895786666671,
                        "value": 1
                    },
                    {
                        "number": 64,
                        "time": 69.49155179166671,
                        "value": 0
                    },
                    {
                        "number": 64,
                        "time": 69.83986450000005,
                        "value": 1
                    },
                    {
                        "number": 64,
                        "time": 69.95639093333338,
                        "value": 0
                    },
                    {
                        "number": 64,
                        "time": 70.26923907500004,
                        "value": 1
                    },
                    {
                        "number": 64,
                        "time": 70.42123007500004,
                        "value": 0
                    },
                    {
                        "number": 64,
                        "time": 70.75181050000003,
                        "value": 1
                    },
                    {
                        "number": 64,
                        "time": 70.87340330000004,
                        "value": 0
                    },
                    {
                        "number": 64,
                        "time": 71.2128498666667,
                        "value": 1
                    },
                    {
                        "number": 64,
                        "time": 71.3154437916667,
                        "value": 0
                    },
                    {
                        "number": 64,
                        "time": 71.66375650000003,
                        "value": 1
                    },
                    {
                        "number": 64,
                        "time": 71.78028293333337,
                        "value": 0
                    },
                    {
                        "number": 64,
                        "time": 72.09313107500003,
                        "value": 1
                    },
                    {
                        "number": 64,
                        "time": 72.24512207500003,
                        "value": 0
                    },
                    {
                        "number": 64,
                        "time": 72.57570250000002,
                        "value": 1
                    },
                    {
                        "number": 64,
                        "time": 72.69729530000002,
                        "value": 0
                    },
                    {
                        "number": 64,
                        "time": 73.00507707500002,
                        "value": 1
                    },
                    {
                        "number": 64,
                        "time": 73.15706807500001,
                        "value": 0
                    },
                    {
                        "number": 64,
                        "time": 73.4876485,
                        "value": 1
                    },
                    {
                        "number": 64,
                        "time": 73.60924130000001,
                        "value": 0
                    },
                    {
                        "number": 64,
                        "time": 73.917023075,
                        "value": 1
                    },
                    {
                        "number": 64,
                        "time": 74.069014075,
                        "value": 0
                    },
                    {
                        "number": 64,
                        "time": 74.39959449999999,
                        "value": 1
                    },
                    {
                        "number": 64,
                        "time": 74.5211873,
                        "value": 0
                    },
                    {
                        "number": 64,
                        "time": 74.82896907499999,
                        "value": 1
                    },
                    {
                        "number": 64,
                        "time": 74.98096007499998,
                        "value": 0
                    },
                    {
                        "number": 64,
                        "time": 75.31154049999998,
                        "value": 1
                    },
                    {
                        "number": 64,
                        "time": 75.43313329999998,
                        "value": 0
                    },
                    {
                        "number": 64,
                        "time": 75.74091507499998,
                        "value": 1
                    },
                    {
                        "number": 64,
                        "time": 75.89290607499997,
                        "value": 0
                    },
                    {
                        "number": 64,
                        "time": 76.22348649999996,
                        "value": 1
                    },
                    {
                        "number": 64,
                        "time": 76.34507929999997,
                        "value": 0
                    },
                    {
                        "number": 64,
                        "time": 76.65286107499996,
                        "value": 1
                    },
                    {
                        "number": 64,
                        "time": 76.80485207499996,
                        "value": 0
                    },
                    {
                        "number": 64,
                        "time": 77.13543249999995,
                        "value": 1
                    },
                    {
                        "number": 64,
                        "time": 77.25702529999995,
                        "value": 0
                    },
                    {
                        "number": 64,
                        "time": 77.56480707499995,
                        "value": 1
                    },
                    {
                        "number": 64,
                        "time": 77.71679807499994,
                        "value": 0
                    },
                    {
                        "number": 64,
                        "time": 78.04737849999994,
                        "value": 1
                    },
                    {
                        "number": 64,
                        "time": 78.28549773333327,
                        "value": 0
                    },
                    {
                        "number": 64,
                        "time": 78.53628288333327,
                        "value": 1
                    },
                    {
                        "number": 64,
                        "time": 78.7440039166666,
                        "value": 0
                    },
                    {
                        "number": 64,
                        "time": 78.95932449999994,
                        "value": 1
                    },
                    {
                        "number": 64,
                        "time": 79.19744373333327,
                        "value": 0
                    },
                    {
                        "number": 64,
                        "time": 79.45202865833328,
                        "value": 1
                    },
                    {
                        "number": 64,
                        "time": 79.83327274999995,
                        "value": 0
                    },
                    {
                        "number": 64,
                        "time": 79.97259783333328,
                        "value": 1
                    },
                    {
                        "number": 64,
                        "time": 80.25884754999994,
                        "value": 0
                    },
                    {
                        "number": 64,
                        "time": 80.26138073333327,
                        "value": 0
                    },
                    {
                        "number": 64,
                        "time": 81.2442558666666,
                        "value": 1
                    },
                    {
                        "number": 64,
                        "time": 81.48490828333327,
                        "value": 0
                    },
                    {
                        "number": 64,
                        "time": 81.69516249999994,
                        "value": 1
                    },
                    {
                        "number": 64,
                        "time": 81.94088128333327,
                        "value": 0
                    },
                    {
                        "number": 64,
                        "time": 82.13340321666661,
                        "value": 1
                    },
                    {
                        "number": 64,
                        "time": 82.40318724166661,
                        "value": 0
                    },
                    {
                        "number": 64,
                        "time": 82.60710849999995,
                        "value": 1
                    },
                    {
                        "number": 64,
                        "time": 82.86169342499996,
                        "value": 0
                    },
                    {
                        "number": 64,
                        "time": 83.03268329999996,
                        "value": 1
                    },
                    {
                        "number": 64,
                        "time": 83.32273279166662,
                        "value": 0
                    },
                    {
                        "number": 64,
                        "time": 83.54185314999995,
                        "value": 1
                    },
                    {
                        "number": 64,
                        "time": 83.76477328333328,
                        "value": 0
                    },
                    {
                        "number": 64,
                        "time": 83.96236158333329,
                        "value": 1
                    },
                    {
                        "number": 64,
                        "time": 84.2169465083333,
                        "value": 0
                    },
                    {
                        "number": 64,
                        "time": 84.8553087083333,
                        "value": 1
                    },
                    {
                        "number": 64,
                        "time": 85.3036821583333,
                        "value": 0
                    },
                    {
                        "number": 64,
                        "time": 85.35814559999997,
                        "value": 1
                    },
                    {
                        "number": 64,
                        "time": 85.5810657333333,
                        "value": 0
                    },
                    {
                        "number": 64,
                        "time": 85.7672547083333,
                        "value": 1
                    },
                    {
                        "number": 64,
                        "time": 85.88631432499996,
                        "value": 0
                    },
                    {
                        "number": 64,
                        "time": 86.24855954166662,
                        "value": 1
                    },
                    {
                        "number": 64,
                        "time": 86.3638193833333,
                        "value": 0
                    },
                    {
                        "number": 64,
                        "time": 86.66653479166662,
                        "value": 1
                    },
                    {
                        "number": 64,
                        "time": 87.11364164999995,
                        "value": 0
                    },
                    {
                        "number": 64,
                        "time": 87.16303872499995,
                        "value": 1
                    },
                    {
                        "number": 64,
                        "time": 87.54681599999995,
                        "value": 0
                    },
                    {
                        "number": 64,
                        "time": 87.62281149999995,
                        "value": 1
                    },
                    {
                        "number": 64,
                        "time": 88.0433199333333,
                        "value": 0
                    },
                    {
                        "number": 64,
                        "time": 88.49042679166662,
                        "value": 1
                    },
                    {
                        "number": 64,
                        "time": 88.93753364999995,
                        "value": 0
                    },
                    {
                        "number": 64,
                        "time": 88.98693072499995,
                        "value": 1
                    },
                    {
                        "number": 64,
                        "time": 89.38084073333329,
                        "value": 0
                    },
                    {
                        "number": 64,
                        "time": 89.44670349999996,
                        "value": 1
                    },
                    {
                        "number": 64,
                        "time": 89.84947964999995,
                        "value": 0
                    },
                    {
                        "number": 64,
                        "time": 89.89887672499995,
                        "value": 1
                    },
                    {
                        "number": 64,
                        "time": 90.31431879166662,
                        "value": 1
                    },
                    {
                        "number": 64,
                        "time": 90.76142564999995,
                        "value": 0
                    },
                    {
                        "number": 64,
                        "time": 90.81082272499995,
                        "value": 1
                    },
                    {
                        "number": 64,
                        "time": 91.20473273333329,
                        "value": 0
                    },
                    {
                        "number": 64,
                        "time": 91.27059549999996,
                        "value": 1
                    },
                    {
                        "number": 64,
                        "time": 91.67337164999995,
                        "value": 0
                    },
                    {
                        "number": 64,
                        "time": 91.72276872499995,
                        "value": 1
                    },
                    {
                        "number": 64,
                        "time": 92.10654599999995,
                        "value": 0
                    },
                    {
                        "number": 64,
                        "time": 93.07295544166662,
                        "value": 1
                    },
                    {
                        "number": 64,
                        "time": 93.49853024166663,
                        "value": 0
                    },
                    {
                        "number": 64,
                        "time": 93.55552686666663,
                        "value": 1
                    },
                    {
                        "number": 64,
                        "time": 93.95197005833329,
                        "value": 0
                    },
                    {
                        "number": 64,
                        "time": 94.01529964166662,
                        "value": 1
                    },
                    {
                        "number": 64,
                        "time": 94.41047624166661,
                        "value": 0
                    },
                    {
                        "number": 64,
                        "time": 94.46747286666661,
                        "value": 1
                    },
                    {
                        "number": 64,
                        "time": 94.84238399999994,
                        "value": 0
                    },
                    {
                        "number": 64,
                        "time": 94.91331313333328,
                        "value": 1
                    },
                    {
                        "number": 64,
                        "time": 95.75432999999994,
                        "value": 0
                    },
                    {
                        "number": 64,
                        "time": 95.82525913333328,
                        "value": 1
                    },
                    {
                        "number": 64,
                        "time": 96.66627599999994,
                        "value": 0
                    },
                    {
                        "number": 64,
                        "time": 96.73720513333328,
                        "value": 1
                    },
                    {
                        "number": 64,
                        "time": 97.57822199999994,
                        "value": 0
                    },
                    {
                        "number": 64,
                        "time": 97.60355383333328,
                        "value": 0
                    },
                    {
                        "number": 64,
                        "time": 98.54463144166661,
                        "value": 1
                    },
                    {
                        "number": 64,
                        "time": 98.97020624166662,
                        "value": 0
                    },
                    {
                        "number": 64,
                        "time": 99.02720286666661,
                        "value": 1
                    },
                    {
                        "number": 64,
                        "time": 99.42364605833328,
                        "value": 0
                    },
                    {
                        "number": 64,
                        "time": 99.4869756416666,
                        "value": 1
                    },
                    {
                        "number": 64,
                        "time": 99.8821522416666,
                        "value": 0
                    },
                    {
                        "number": 64,
                        "time": 99.9391488666666,
                        "value": 1
                    },
                    {
                        "number": 64,
                        "time": 100.33559205833326,
                        "value": 0
                    },
                    {
                        "number": 64,
                        "time": 100.39892164166659,
                        "value": 1
                    },
                    {
                        "number": 64,
                        "time": 100.75736708333325,
                        "value": 0
                    },
                    {
                        "number": 64,
                        "time": 101.30706786666659,
                        "value": 1
                    },
                    {
                        "number": 64,
                        "time": 101.54772028333325,
                        "value": 0
                    },
                    {
                        "number": 64,
                        "time": 101.75797449999992,
                        "value": 1
                    },
                    {
                        "number": 64,
                        "time": 102.00369328333325,
                        "value": 0
                    },
                    {
                        "number": 64,
                        "time": 102.21901386666659,
                        "value": 1
                    },
                    {
                        "number": 64,
                        "time": 102.45966628333325,
                        "value": 0
                    },
                    {
                        "number": 64,
                        "time": 102.66992049999992,
                        "value": 1
                    },
                    {
                        "number": 64,
                        "time": 102.91563928333325,
                        "value": 0
                    },
                    {
                        "number": 64,
                        "time": 103.13095986666659,
                        "value": 1
                    },
                    {
                        "number": 64,
                        "time": 103.37161228333325,
                        "value": 0
                    },
                    {
                        "number": 64,
                        "time": 103.58186649999992,
                        "value": 1
                    },
                    {
                        "number": 64,
                        "time": 103.82758528333325,
                        "value": 0
                    },
                    {
                        "number": 64,
                        "time": 104.04290586666659,
                        "value": 1
                    },
                    {
                        "number": 64,
                        "time": 104.28355828333325,
                        "value": 0
                    },
                    {
                        "number": 64,
                        "time": 104.49381249999992,
                        "value": 1
                    },
                    {
                        "number": 64,
                        "time": 104.73953128333325,
                        "value": 0
                    },
                    {
                        "number": 64,
                        "time": 104.91432093333324,
                        "value": 1
                    },
                    {
                        "number": 64,
                        "time": 105.3335627749999,
                        "value": 0
                    },
                    {
                        "number": 64,
                        "time": 105.41209145833324,
                        "value": 1
                    },
                    {
                        "number": 64,
                        "time": 105.81486760833323,
                        "value": 0
                    },
                    {
                        "number": 64,
                        "time": 105.87946378333324,
                        "value": 1
                    },
                    {
                        "number": 64,
                        "time": 106.2455087749999,
                        "value": 0
                    },
                    {
                        "number": 64,
                        "time": 106.3291038249999,
                        "value": 1
                    },
                    {
                        "number": 64,
                        "time": 106.72681360833325,
                        "value": 0
                    },
                    {
                        "number": 64,
                        "time": 106.79140978333325,
                        "value": 1
                    },
                    {
                        "number": 64,
                        "time": 107.15745477499992,
                        "value": 0
                    },
                    {
                        "number": 64,
                        "time": 107.24104982499992,
                        "value": 1
                    },
                    {
                        "number": 64,
                        "time": 107.60962799999992,
                        "value": 0
                    },
                    {
                        "number": 64,
                        "time": 112.22002166666658,
                        "value": 1
                    },
                    {
                        "number": 64,
                        "time": 114.54295078333325,
                        "value": 0
                    }
                ]
            },
            "id": 3,
            "name": "Pedale",
            "instrumentNumber": 0,
            "instrument": "acoustic grand piano",
            "instrumentFamily": "piano",
            "channelNumber": 0,
            "isPercussion": false
        },
        {
            "startTime": 0,
            "duration": 0,
            "length": 0,
            "notes": [],
            "controlChanges": {},
            "id": 4,
            "name": "Mendelssohn: Songs without words Opus 19 No. 6"
        },
        {
            "startTime": 0,
            "duration": 0,
            "length": 0,
            "notes": [],
            "controlChanges": {},
            "id": 5,
            "name": "Copyright  2010 by Bernd Krueger"
        },
        {
            "startTime": 0,
            "duration": 0,
            "length": 0,
            "notes": [],
            "controlChanges": {},
            "id": 6,
            "name": "http://www.piano-midi.de/"
        },
        {
            "startTime": 0,
            "duration": 0,
            "length": 0,
            "notes": [],
            "controlChanges": {},
            "id": 7,
            "name": "Edition: 2014-12-29"
        },
        {
            "startTime": 0,
            "duration": 0,
            "length": 0,
            "notes": [],
            "controlChanges": {},
            "id": 8,
            "name": "Spur 8"
        },
        {
            "startTime": 0,
            "duration": 0,
            "length": 0,
            "notes": [],
            "controlChanges": {},
            "id": 9,
            "name": "Spur 9"
        },
        {
            "startTime": 0,
            "duration": 0,
            "length": 0,
            "notes": [],
            "controlChanges": {},
            "id": 10,
            "name": "Spur 10"
        },
        {
            "startTime": 0,
            "duration": 0,
            "length": 0,
            "notes": [],
            "controlChanges": {},
            "id": 11,
            "name": "Spur 11"
        },
        {
            "startTime": 0,
            "duration": 0,
            "length": 0,
            "notes": [],
            "controlChanges": {},
            "id": 12,
            "name": "Spur 12"
        },
        {
            "startTime": 0,
            "duration": 0,
            "length": 0,
            "notes": [],
            "controlChanges": {},
            "id": 13,
            "name": "Spur 13"
        },
        {
            "startTime": 0,
            "duration": 0,
            "length": 0,
            "notes": [],
            "controlChanges": {},
            "id": 14,
            "name": "Spur 14"
        },
        {
            "startTime": 0,
            "duration": 0,
            "length": 0,
            "notes": [],
            "controlChanges": {},
            "id": 15,
            "name": "Spur 15"
        },
        {
            "startTime": 0,
            "duration": 0,
            "length": 0,
            "notes": [],
            "controlChanges": {},
            "id": 16,
            "name": "Spur 16"
        }
    ]
}