{
    "header": {
        "PPQ": 480,
        "timeSignature": [
            4,
            4
        ],
        "bpm": 167.4999790625026,
        "name": "Baba-Yaga  - Das große Tor von Kiew"
    },
    "startTime": 0,
    "duration": 382.5672119999926,
    "tracks": [
        {
            "startTime": 0,
            "duration": 0,
            "length": 0,
            "notes": [],
            "controlChanges": {},
            "id": 0,
            "name": "Baba-Yaga  - Das große Tor von Kiew"
        },
        {
            "startTime": 0.0007462687500000001,
            "duration": 382.56721199999134,
            "length": 3028,
            "notes": [
                {
                    "name": "F#3",
                    "midi": 54,
                    "time": 0.0007462687500000001,
                    "velocity": 0.5984251968503937,
                    "duration": 0.17835823125000003
                },
                {
                    "name": "F#4",
                    "midi": 66,
                    "time": 0.0007462687500000001,
                    "velocity": 0.7086614173228346,
                    "duration": 0.17835823125000003
                },
                {
                    "name": "G3",
                    "midi": 55,
                    "time": 0.35820900000000006,
                    "velocity": 0.7559055118110236,
                    "duration": 0.35820900000000006
                },
                {
                    "name": "F#4",
                    "midi": 66,
                    "time": 1.4328360000000002,
                    "velocity": 0.6771653543307087,
                    "duration": 0.08955225000000011
                },
                {
                    "name": "F#3",
                    "midi": 54,
                    "time": 1.4328360000000002,
                    "velocity": 0.5748031496062992,
                    "duration": 0.08955225000000011
                },
                {
                    "name": "F#3",
                    "midi": 54,
                    "time": 1.6119405000000004,
                    "velocity": 0.5433070866141733,
                    "duration": 0.08955225000000011
                },
                {
                    "name": "F#4",
                    "midi": 66,
                    "time": 1.6119405000000004,
                    "velocity": 0.6456692913385826,
                    "duration": 0.08955225000000011
                },
                {
                    "name": "G3",
                    "midi": 55,
                    "time": 1.7910450000000007,
                    "velocity": 0.7165354330708661,
                    "duration": 0.3582090000000002
                },
                {
                    "name": "F3",
                    "midi": 53,
                    "time": 2.865672000000001,
                    "velocity": 0.5984251968503937,
                    "duration": 0.17910450000000022
                },
                {
                    "name": "F4",
                    "midi": 65,
                    "time": 2.865672000000001,
                    "velocity": 0.7086614173228346,
                    "duration": 0.17910450000000022
                },
                {
                    "name": "G#3",
                    "midi": 56,
                    "time": 3.2238810000000013,
                    "velocity": 0.7322834645669292,
                    "duration": 0.17910450000000022
                },
                {
                    "name": "G3",
                    "midi": 55,
                    "time": 3.4029855000000016,
                    "velocity": 0.6850393700787402,
                    "duration": 0.17910450000000022
                },
                {
                    "name": "F4",
                    "midi": 65,
                    "time": 4.298508000000002,
                    "velocity": 0.6771653543307087,
                    "duration": 0.08955224999999967
                },
                {
                    "name": "F3",
                    "midi": 53,
                    "time": 4.298508000000002,
                    "velocity": 0.5748031496062992,
                    "duration": 0.08955224999999967
                },
                {
                    "name": "F3",
                    "midi": 53,
                    "time": 4.477612500000001,
                    "velocity": 0.5433070866141733,
                    "duration": 0.08955224999999967
                },
                {
                    "name": "F4",
                    "midi": 65,
                    "time": 4.477612500000001,
                    "velocity": 0.6456692913385826,
                    "duration": 0.08955224999999967
                },
                {
                    "name": "G#3",
                    "midi": 56,
                    "time": 4.656717,
                    "velocity": 0.7086614173228346,
                    "duration": 0.17910450000000022
                },
                {
                    "name": "G3",
                    "midi": 55,
                    "time": 4.835821500000001,
                    "velocity": 0.6692913385826772,
                    "duration": 0.13432837499999994
                },
                {
                    "name": "G#3",
                    "midi": 56,
                    "time": 5.014926000000001,
                    "velocity": 0.7086614173228346,
                    "duration": 0.17910450000000022
                },
                {
                    "name": "G3",
                    "midi": 55,
                    "time": 5.194030500000001,
                    "velocity": 0.6850393700787402,
                    "duration": 0.13432837499999994
                },
                {
                    "name": "G3",
                    "midi": 55,
                    "time": 5.731344000000001,
                    "velocity": 0.6771653543307087,
                    "duration": 0.35820900000000044
                },
                {
                    "name": "G3",
                    "midi": 55,
                    "time": 6.089553000000001,
                    "velocity": 0.6456692913385826,
                    "duration": 0.35820900000000044
                },
                {
                    "name": "G3",
                    "midi": 55,
                    "time": 6.447762000000002,
                    "velocity": 0.7480314960629921,
                    "duration": 0.35820899999999956
                },
                {
                    "name": "G#3",
                    "midi": 56,
                    "time": 6.626866500000002,
                    "velocity": 0.6692913385826772,
                    "duration": 0.08955224999999967
                },
                {
                    "name": "G3",
                    "midi": 55,
                    "time": 6.805971000000001,
                    "velocity": 0.6535433070866141,
                    "duration": 0.35820899999999956
                },
                {
                    "name": "F4",
                    "midi": 65,
                    "time": 6.9850755000000015,
                    "velocity": 0.6062992125984252,
                    "duration": 0.08955224999999967
                },
                {
                    "name": "G3",
                    "midi": 55,
                    "time": 7.164180000000001,
                    "velocity": 0.6692913385826772,
                    "duration": 0.35820900000000044
                },
                {
                    "name": "G3",
                    "midi": 55,
                    "time": 7.522389000000001,
                    "velocity": 0.6535433070866141,
                    "duration": 0.35820900000000044
                },
                {
                    "name": "G3",
                    "midi": 55,
                    "time": 7.880598000000002,
                    "velocity": 0.7401574803149606,
                    "duration": 0.35820899999999956
                },
                {
                    "name": "G#3",
                    "midi": 56,
                    "time": 8.059702500000002,
                    "velocity": 0.6614173228346457,
                    "duration": 0.17910449999999933
                },
                {
                    "name": "G3",
                    "midi": 55,
                    "time": 8.238807000000001,
                    "velocity": 0.6535433070866141,
                    "duration": 0.35820900000000044
                },
                {
                    "name": "C#4",
                    "midi": 61,
                    "time": 8.4179115,
                    "velocity": 0.6062992125984252,
                    "duration": 0.08955225000000056
                },
                {
                    "name": "G3",
                    "midi": 55,
                    "time": 8.597016000000002,
                    "velocity": 0.6929133858267716,
                    "duration": 0.35820899999999867
                },
                {
                    "name": "G#3",
                    "midi": 56,
                    "time": 8.776120500000001,
                    "velocity": 0.6456692913385826,
                    "duration": 0.17910449999999933
                },
                {
                    "name": "G3",
                    "midi": 55,
                    "time": 8.955225,
                    "velocity": 0.6614173228346457,
                    "duration": 0.35820900000000044
                },
                {
                    "name": "F4",
                    "midi": 65,
                    "time": 9.1343295,
                    "velocity": 0.5905511811023622,
                    "duration": 0.08955225000000056
                },
                {
                    "name": "G3",
                    "midi": 55,
                    "time": 9.313434,
                    "velocity": 0.6535433070866141,
                    "duration": 0.35820899999999867
                },
                {
                    "name": "G#3",
                    "midi": 56,
                    "time": 9.4925385,
                    "velocity": 0.5984251968503937,
                    "duration": 0.17910449999999933
                },
                {
                    "name": "G3",
                    "midi": 55,
                    "time": 9.671643,
                    "velocity": 0.6456692913385826,
                    "duration": 0.35820899999999867
                },
                {
                    "name": "C#4",
                    "midi": 61,
                    "time": 9.850747499999999,
                    "velocity": 0.6062992125984252,
                    "duration": 0.17910449999999933
                },
                {
                    "name": "G3",
                    "midi": 55,
                    "time": 10.029851999999998,
                    "velocity": 0.6614173228346457,
                    "duration": 0.35820900000000044
                },
                {
                    "name": "G3",
                    "midi": 55,
                    "time": 10.388060999999999,
                    "velocity": 0.6456692913385826,
                    "duration": 0.35820900000000044
                },
                {
                    "name": "G3",
                    "midi": 55,
                    "time": 10.746269999999999,
                    "velocity": 0.6692913385826772,
                    "duration": 0.35820900000000044
                },
                {
                    "name": "G3",
                    "midi": 55,
                    "time": 11.104479,
                    "velocity": 0.6614173228346457,
                    "duration": 0.35820900000000044
                },
                {
                    "name": "G3",
                    "midi": 55,
                    "time": 11.462688,
                    "velocity": 0.5590551181102362,
                    "duration": 0.08955225000000056
                },
                {
                    "name": "C4",
                    "midi": 60,
                    "time": 11.641792500000001,
                    "velocity": 0.5118110236220472,
                    "duration": 0.08955225000000056
                },
                {
                    "name": "G#3",
                    "midi": 56,
                    "time": 11.820897000000002,
                    "velocity": 0.6614173228346457,
                    "duration": 0.08955225000000056
                },
                {
                    "name": "C#4",
                    "midi": 61,
                    "time": 12.000001500000003,
                    "velocity": 0.5748031496062992,
                    "duration": 0.08955225000000056
                },
                {
                    "name": "A3",
                    "midi": 57,
                    "time": 12.179106000000004,
                    "velocity": 0.5669291338582677,
                    "duration": 0.08955225000000056
                },
                {
                    "name": "D4",
                    "midi": 62,
                    "time": 12.358210500000006,
                    "velocity": 0.5590551181102362,
                    "duration": 0.08955225000000056
                },
                {
                    "name": "A#3",
                    "midi": 58,
                    "time": 12.537315000000007,
                    "velocity": 0.6377952755905512,
                    "duration": 0.08955225000000056
                },
                {
                    "name": "D#4",
                    "midi": 63,
                    "time": 12.716419500000008,
                    "velocity": 0.5511811023622047,
                    "duration": 0.08955225000000056
                },
                {
                    "name": "G3",
                    "midi": 55,
                    "time": 12.895524000000009,
                    "velocity": 0.5748031496062992,
                    "duration": 0.08955225000000056
                },
                {
                    "name": "C4",
                    "midi": 60,
                    "time": 13.07462850000001,
                    "velocity": 0.5354330708661418,
                    "duration": 0.08955225000000056
                },
                {
                    "name": "G#3",
                    "midi": 56,
                    "time": 13.253733000000011,
                    "velocity": 0.6929133858267716,
                    "duration": 0.08955225000000056
                },
                {
                    "name": "C#4",
                    "midi": 61,
                    "time": 13.432837500000012,
                    "velocity": 0.6062992125984252,
                    "duration": 0.08955225000000056
                },
                {
                    "name": "A3",
                    "midi": 57,
                    "time": 13.611942000000013,
                    "velocity": 0.5905511811023622,
                    "duration": 0.08955225000000056
                },
                {
                    "name": "D4",
                    "midi": 62,
                    "time": 13.791046500000014,
                    "velocity": 0.5826771653543307,
                    "duration": 0.08955225000000056
                },
                {
                    "name": "A#3",
                    "midi": 58,
                    "time": 13.970151000000016,
                    "velocity": 0.6850393700787402,
                    "duration": 0.08955225000000056
                },
                {
                    "name": "D#4",
                    "midi": 63,
                    "time": 14.149255500000017,
                    "velocity": 0.5826771653543307,
                    "duration": 0.08955225000000056
                },
                {
                    "name": "G3",
                    "midi": 55,
                    "time": 14.328360000000018,
                    "velocity": 0.5984251968503937,
                    "duration": 0.08955225000000056
                },
                {
                    "name": "C4",
                    "midi": 60,
                    "time": 14.507464500000019,
                    "velocity": 0.5511811023622047,
                    "duration": 0.08955225000000056
                },
                {
                    "name": "G#3",
                    "midi": 56,
                    "time": 14.68656900000002,
                    "velocity": 0.7086614173228346,
                    "duration": 0.08955225000000056
                },
                {
                    "name": "C#4",
                    "midi": 61,
                    "time": 14.865673500000021,
                    "velocity": 0.6299212598425197,
                    "duration": 0.08955225000000056
                },
                {
                    "name": "A3",
                    "midi": 57,
                    "time": 15.044778000000022,
                    "velocity": 0.6141732283464567,
                    "duration": 0.08955225000000056
                },
                {
                    "name": "D4",
                    "midi": 62,
                    "time": 15.223882500000023,
                    "velocity": 0.6062992125984252,
                    "duration": 0.08955225000000056
                },
                {
                    "name": "A#3",
                    "midi": 58,
                    "time": 15.402987000000024,
                    "velocity": 0.7007874015748031,
                    "duration": 0.08955225000000056
                },
                {
                    "name": "D#4",
                    "midi": 63,
                    "time": 15.582091500000026,
                    "velocity": 0.5984251968503937,
                    "duration": 0.08955225000000056
                },
                {
                    "name": "G3",
                    "midi": 55,
                    "time": 15.761196000000027,
                    "velocity": 0.6377952755905512,
                    "duration": 0.08955225000000056
                },
                {
                    "name": "C4",
                    "midi": 60,
                    "time": 15.940300500000028,
                    "velocity": 0.5905511811023622,
                    "duration": 0.08955225000000056
                },
                {
                    "name": "G#3",
                    "midi": 56,
                    "time": 16.11940500000003,
                    "velocity": 0.7795275590551181,
                    "duration": 0.08955225000000056
                },
                {
                    "name": "C#4",
                    "midi": 61,
                    "time": 16.29850950000003,
                    "velocity": 0.6771653543307087,
                    "duration": 0.08955225000000056
                },
                {
                    "name": "A3",
                    "midi": 57,
                    "time": 16.47761400000003,
                    "velocity": 0.6929133858267716,
                    "duration": 0.08955225000000056
                },
                {
                    "name": "D4",
                    "midi": 62,
                    "time": 16.656718500000032,
                    "velocity": 0.6535433070866141,
                    "duration": 0.08955225000000056
                },
                {
                    "name": "A#3",
                    "midi": 58,
                    "time": 16.835823000000033,
                    "velocity": 0.7795275590551181,
                    "duration": 0.08955225000000056
                },
                {
                    "name": "D#4",
                    "midi": 63,
                    "time": 17.014927500000034,
                    "velocity": 0.6614173228346457,
                    "duration": 0.08955225000000056
                },
                {
                    "name": "F6",
                    "midi": 89,
                    "time": 17.149255875000033,
                    "velocity": 0.4881889763779528,
                    "duration": 0.0447761249999985
                },
                {
                    "name": "E5",
                    "midi": 76,
                    "time": 17.194032000000032,
                    "velocity": 0.5039370078740157,
                    "duration": 0.08955225000000056
                },
                {
                    "name": "C6",
                    "midi": 84,
                    "time": 17.194032000000032,
                    "velocity": 0.5984251968503937,
                    "duration": 0.08955225000000056
                },
                {
                    "name": "E6",
                    "midi": 88,
                    "time": 17.194032000000032,
                    "velocity": 0.5984251968503937,
                    "duration": 0.08955225000000056
                },
                {
                    "name": "D#6",
                    "midi": 87,
                    "time": 17.507464875000032,
                    "velocity": 0.47244094488188976,
                    "duration": 0.0447761249999985
                },
                {
                    "name": "G#5",
                    "midi": 80,
                    "time": 17.55224100000003,
                    "velocity": 0.5669291338582677,
                    "duration": 0.08955225000000056
                },
                {
                    "name": "C#6",
                    "midi": 85,
                    "time": 17.55224100000003,
                    "velocity": 0.5669291338582677,
                    "duration": 0.08955225000000056
                },
                {
                    "name": "F5",
                    "midi": 77,
                    "time": 17.55224100000003,
                    "velocity": 0.48031496062992124,
                    "duration": 0.08955225000000056
                },
                {
                    "name": "D6",
                    "midi": 86,
                    "time": 17.86567387500003,
                    "velocity": 0.4566929133858268,
                    "duration": 0.0447761249999985
                },
                {
                    "name": "D5",
                    "midi": 74,
                    "time": 17.91045000000003,
                    "velocity": 0.48031496062992124,
                    "duration": 0.08955225000000056
                },
                {
                    "name": "F#5",
                    "midi": 78,
                    "time": 17.91045000000003,
                    "velocity": 0.5669291338582677,
                    "duration": 0.08955225000000056
                },
                {
                    "name": "C6",
                    "midi": 84,
                    "time": 17.91045000000003,
                    "velocity": 0.5669291338582677,
                    "duration": 0.08955225000000056
                },
                {
                    "name": "C6",
                    "midi": 84,
                    "time": 18.22388287500003,
                    "velocity": 0.4330708661417323,
                    "duration": 0.0447761249999985
                },
                {
                    "name": "A#4",
                    "midi": 70,
                    "time": 18.268659000000028,
                    "velocity": 0.4566929133858268,
                    "duration": 0.08955225000000056
                },
                {
                    "name": "A#5",
                    "midi": 82,
                    "time": 18.268659000000028,
                    "velocity": 0.5433070866141733,
                    "duration": 0.08955225000000056
                },
                {
                    "name": "G5",
                    "midi": 79,
                    "time": 18.268659000000028,
                    "velocity": 0.5433070866141733,
                    "duration": 0.08955225000000056
                },
                {
                    "name": "F5",
                    "midi": 77,
                    "time": 18.582091875000028,
                    "velocity": 0.4566929133858268,
                    "duration": 0.0447761249999985
                },
                {
                    "name": "E5",
                    "midi": 76,
                    "time": 18.626868000000027,
                    "velocity": 0.5669291338582677,
                    "duration": 0.08955225000000056
                },
                {
                    "name": "C5",
                    "midi": 72,
                    "time": 18.626868000000027,
                    "velocity": 0.5669291338582677,
                    "duration": 0.08955225000000056
                },
                {
                    "name": "E4",
                    "midi": 64,
                    "time": 18.626868000000027,
                    "velocity": 0.48031496062992124,
                    "duration": 0.08955225000000056
                },
                {
                    "name": "D#5",
                    "midi": 75,
                    "time": 18.940300875000027,
                    "velocity": 0.4409448818897638,
                    "duration": 0.0447761249999985
                },
                {
                    "name": "C#5",
                    "midi": 73,
                    "time": 18.985077000000025,
                    "velocity": 0.5354330708661418,
                    "duration": 0.08955225000000056
                },
                {
                    "name": "F4",
                    "midi": 65,
                    "time": 18.985077000000025,
                    "velocity": 0.44881889763779526,
                    "duration": 0.08955225000000056
                },
                {
                    "name": "G#4",
                    "midi": 68,
                    "time": 18.985077000000025,
                    "velocity": 0.5354330708661418,
                    "duration": 0.08955225000000056
                },
                {
                    "name": "D5",
                    "midi": 74,
                    "time": 19.298509875000025,
                    "velocity": 0.4251968503937008,
                    "duration": 0.0447761249999985
                },
                {
                    "name": "F#4",
                    "midi": 66,
                    "time": 19.343286000000024,
                    "velocity": 0.5354330708661418,
                    "duration": 0.08955225000000056
                },
                {
                    "name": "D4",
                    "midi": 62,
                    "time": 19.343286000000024,
                    "velocity": 0.44881889763779526,
                    "duration": 0.08955225000000056
                },
                {
                    "name": "C5",
                    "midi": 72,
                    "time": 19.343286000000024,
                    "velocity": 0.5354330708661418,
                    "duration": 0.08955225000000056
                },
                {
                    "name": "C5",
                    "midi": 72,
                    "time": 19.656718875000024,
                    "velocity": 0.4094488188976378,
                    "duration": 0.0447761249999985
                },
                {
                    "name": "A#4",
                    "midi": 70,
                    "time": 19.701495000000023,
                    "velocity": 0.5118110236220472,
                    "duration": 0.08955225000000056
                },
                {
                    "name": "G4",
                    "midi": 67,
                    "time": 19.701495000000023,
                    "velocity": 0.5118110236220472,
                    "duration": 0.08955225000000056
                },
                {
                    "name": "A#3",
                    "midi": 58,
                    "time": 19.701495000000023,
                    "velocity": 0.4330708661417323,
                    "duration": 0.08955225000000056
                },
                {
                    "name": "F4",
                    "midi": 65,
                    "time": 20.014927875000023,
                    "velocity": 0.4330708661417323,
                    "duration": 0.0447761249999985
                },
                {
                    "name": "G3",
                    "midi": 55,
                    "time": 20.05970400000002,
                    "velocity": 0.44881889763779526,
                    "duration": 0.08955225000000056
                },
                {
                    "name": "C4",
                    "midi": 60,
                    "time": 20.05970400000002,
                    "velocity": 0.5354330708661418,
                    "duration": 0.08955225000000056
                },
                {
                    "name": "E4",
                    "midi": 64,
                    "time": 20.05970400000002,
                    "velocity": 0.5354330708661418,
                    "duration": 0.08955225000000056
                },
                {
                    "name": "D#4",
                    "midi": 63,
                    "time": 20.37313687500002,
                    "velocity": 0.4251968503937008,
                    "duration": 0.0447761249999985
                },
                {
                    "name": "G#3",
                    "midi": 56,
                    "time": 20.41791300000002,
                    "velocity": 0.5039370078740157,
                    "duration": 0.08955225000000056
                },
                {
                    "name": "C#4",
                    "midi": 61,
                    "time": 20.41791300000002,
                    "velocity": 0.5039370078740157,
                    "duration": 0.08955225000000056
                },
                {
                    "name": "F3",
                    "midi": 53,
                    "time": 20.41791300000002,
                    "velocity": 0.4251968503937008,
                    "duration": 0.08955225000000056
                },
                {
                    "name": "D4",
                    "midi": 62,
                    "time": 20.73134587500002,
                    "velocity": 0.4094488188976378,
                    "duration": 0.0447761249999985
                },
                {
                    "name": "D3",
                    "midi": 50,
                    "time": 20.77612200000002,
                    "velocity": 0.4251968503937008,
                    "duration": 0.08955225000000056
                },
                {
                    "name": "F#3",
                    "midi": 54,
                    "time": 20.77612200000002,
                    "velocity": 0.5039370078740157,
                    "duration": 0.08955225000000056
                },
                {
                    "name": "C4",
                    "midi": 60,
                    "time": 20.77612200000002,
                    "velocity": 0.5039370078740157,
                    "duration": 0.08955225000000056
                },
                {
                    "name": "C4",
                    "midi": 60,
                    "time": 21.08955487500002,
                    "velocity": 0.3858267716535433,
                    "duration": 0.0447761249999985
                },
                {
                    "name": "D#3",
                    "midi": 51,
                    "time": 21.134331000000017,
                    "velocity": 0.4094488188976378,
                    "duration": 0.08955225000000056
                },
                {
                    "name": "A#3",
                    "midi": 58,
                    "time": 21.134331000000017,
                    "velocity": 0.4881889763779528,
                    "duration": 0.08955225000000056
                },
                {
                    "name": "G3",
                    "midi": 55,
                    "time": 21.134331000000017,
                    "velocity": 0.4881889763779528,
                    "duration": 0.08955225000000056
                },
                {
                    "name": "G3",
                    "midi": 55,
                    "time": 21.49254000000002,
                    "velocity": 0.6929133858267716,
                    "duration": 0.08955225000000056
                },
                {
                    "name": "C4",
                    "midi": 60,
                    "time": 21.67164450000002,
                    "velocity": 0.5748031496062992,
                    "duration": 0.08955225000000056
                },
                {
                    "name": "G#3",
                    "midi": 56,
                    "time": 21.85074900000002,
                    "velocity": 0.6692913385826772,
                    "duration": 0.08955225000000056
                },
                {
                    "name": "C#4",
                    "midi": 61,
                    "time": 22.029853500000023,
                    "velocity": 0.5590551181102362,
                    "duration": 0.08955225000000056
                },
                {
                    "name": "A3",
                    "midi": 57,
                    "time": 22.208958000000024,
                    "velocity": 0.6850393700787402,
                    "duration": 0.08955225000000056
                },
                {
                    "name": "D4",
                    "midi": 62,
                    "time": 22.388062500000025,
                    "velocity": 0.5669291338582677,
                    "duration": 0.08955225000000056
                },
                {
                    "name": "A#3",
                    "midi": 58,
                    "time": 22.567167000000026,
                    "velocity": 0.6850393700787402,
                    "duration": 0.08955225000000056
                },
                {
                    "name": "D#4",
                    "midi": 63,
                    "time": 22.746271500000027,
                    "velocity": 0.5669291338582677,
                    "duration": 0.08955225000000056
                },
                {
                    "name": "E4",
                    "midi": 64,
                    "time": 22.92537600000003,
                    "velocity": 0.5275590551181102,
                    "duration": 0.1791045000000011
                },
                {
                    "name": "C5",
                    "midi": 72,
                    "time": 22.92537600000003,
                    "velocity": 0.6220472440944882,
                    "duration": 0.1791045000000011
                },
                {
                    "name": "G4",
                    "midi": 67,
                    "time": 22.92537600000003,
                    "velocity": 0.5275590551181102,
                    "duration": 0.1791045000000011
                },
                {
                    "name": "C4",
                    "midi": 60,
                    "time": 22.92537600000003,
                    "velocity": 0.5275590551181102,
                    "duration": 0.1791045000000011
                },
                {
                    "name": "G4",
                    "midi": 67,
                    "time": 23.28358500000003,
                    "velocity": 0.48031496062992124,
                    "duration": 0.35820899999999867
                },
                {
                    "name": "G5",
                    "midi": 79,
                    "time": 23.28358500000003,
                    "velocity": 0.5669291338582677,
                    "duration": 0.35820899999999867
                },
                {
                    "name": "C5",
                    "midi": 72,
                    "time": 23.28358500000003,
                    "velocity": 0.48031496062992124,
                    "duration": 0.35820899999999867
                },
                {
                    "name": "E5",
                    "midi": 76,
                    "time": 23.28358500000003,
                    "velocity": 0.48031496062992124,
                    "duration": 0.35820899999999867
                },
                {
                    "name": "E5",
                    "midi": 76,
                    "time": 23.64179400000003,
                    "velocity": 0.49606299212598426,
                    "duration": 0.35820899999999867
                },
                {
                    "name": "G4",
                    "midi": 67,
                    "time": 23.64179400000003,
                    "velocity": 0.49606299212598426,
                    "duration": 0.35820899999999867
                },
                {
                    "name": "C5",
                    "midi": 72,
                    "time": 23.64179400000003,
                    "velocity": 0.49606299212598426,
                    "duration": 0.35820899999999867
                },
                {
                    "name": "G5",
                    "midi": 79,
                    "time": 23.64179400000003,
                    "velocity": 0.5905511811023622,
                    "duration": 0.35820899999999867
                },
                {
                    "name": "C5",
                    "midi": 72,
                    "time": 24.000003000000028,
                    "velocity": 0.48031496062992124,
                    "duration": 0.31343287500000017
                },
                {
                    "name": "G5",
                    "midi": 79,
                    "time": 24.000003000000028,
                    "velocity": 0.5669291338582677,
                    "duration": 0.31343287500000017
                },
                {
                    "name": "E5",
                    "midi": 76,
                    "time": 24.000003000000028,
                    "velocity": 0.48031496062992124,
                    "duration": 0.31343287500000017
                },
                {
                    "name": "G4",
                    "midi": 67,
                    "time": 24.000003000000028,
                    "velocity": 0.48031496062992124,
                    "duration": 0.31343287500000017
                },
                {
                    "name": "G#4",
                    "midi": 68,
                    "time": 24.313435875000028,
                    "velocity": 0.4251968503937008,
                    "duration": 0.0447761249999985
                },
                {
                    "name": "G#5",
                    "midi": 80,
                    "time": 24.313435875000028,
                    "velocity": 0.5039370078740157,
                    "duration": 0.0447761249999985
                },
                {
                    "name": "G5",
                    "midi": 79,
                    "time": 24.358212000000027,
                    "velocity": 0.5669291338582677,
                    "duration": 0.1791045000000011
                },
                {
                    "name": "G4",
                    "midi": 67,
                    "time": 24.358212000000027,
                    "velocity": 0.48031496062992124,
                    "duration": 0.1791045000000011
                },
                {
                    "name": "C4",
                    "midi": 60,
                    "time": 24.71642100000003,
                    "velocity": 0.4566929133858268,
                    "duration": 0.35820899999999867
                },
                {
                    "name": "C5",
                    "midi": 72,
                    "time": 24.71642100000003,
                    "velocity": 0.5433070866141733,
                    "duration": 0.35820899999999867
                },
                {
                    "name": "E4",
                    "midi": 64,
                    "time": 24.71642100000003,
                    "velocity": 0.4566929133858268,
                    "duration": 0.35820899999999867
                },
                {
                    "name": "G4",
                    "midi": 67,
                    "time": 24.71642100000003,
                    "velocity": 0.4566929133858268,
                    "duration": 0.35820899999999867
                },
                {
                    "name": "G#4",
                    "midi": 68,
                    "time": 25.074630000000028,
                    "velocity": 0.4881889763779528,
                    "duration": 0.5373134999999998
                },
                {
                    "name": "D5",
                    "midi": 74,
                    "time": 25.074630000000028,
                    "velocity": 0.5748031496062992,
                    "duration": 0.5373134999999998
                },
                {
                    "name": "F4",
                    "midi": 65,
                    "time": 25.074630000000028,
                    "velocity": 0.4881889763779528,
                    "duration": 0.5373134999999998
                },
                {
                    "name": "D4",
                    "midi": 62,
                    "time": 25.074630000000028,
                    "velocity": 0.4881889763779528,
                    "duration": 0.5373134999999998
                },
                {
                    "name": "E4",
                    "midi": 64,
                    "time": 25.79104800000003,
                    "velocity": 0.5275590551181102,
                    "duration": 0.1791045000000011
                },
                {
                    "name": "C4",
                    "midi": 60,
                    "time": 25.79104800000003,
                    "velocity": 0.5275590551181102,
                    "duration": 0.1791045000000011
                },
                {
                    "name": "G4",
                    "midi": 67,
                    "time": 25.79104800000003,
                    "velocity": 0.5275590551181102,
                    "duration": 0.1791045000000011
                },
                {
                    "name": "C5",
                    "midi": 72,
                    "time": 25.79104800000003,
                    "velocity": 0.6220472440944882,
                    "duration": 0.1791045000000011
                },
                {
                    "name": "G4",
                    "midi": 67,
                    "time": 26.14925700000003,
                    "velocity": 0.48031496062992124,
                    "duration": 0.35820899999999867
                },
                {
                    "name": "G5",
                    "midi": 79,
                    "time": 26.14925700000003,
                    "velocity": 0.5669291338582677,
                    "duration": 0.35820899999999867
                },
                {
                    "name": "C5",
                    "midi": 72,
                    "time": 26.14925700000003,
                    "velocity": 0.48031496062992124,
                    "duration": 0.35820899999999867
                },
                {
                    "name": "E5",
                    "midi": 76,
                    "time": 26.14925700000003,
                    "velocity": 0.48031496062992124,
                    "duration": 0.35820899999999867
                },
                {
                    "name": "E5",
                    "midi": 76,
                    "time": 26.50746600000003,
                    "velocity": 0.49606299212598426,
                    "duration": 0.35820899999999867
                },
                {
                    "name": "G5",
                    "midi": 79,
                    "time": 26.50746600000003,
                    "velocity": 0.5905511811023622,
                    "duration": 0.35820899999999867
                },
                {
                    "name": "C5",
                    "midi": 72,
                    "time": 26.50746600000003,
                    "velocity": 0.49606299212598426,
                    "duration": 0.35820899999999867
                },
                {
                    "name": "G4",
                    "midi": 67,
                    "time": 26.50746600000003,
                    "velocity": 0.49606299212598426,
                    "duration": 0.35820899999999867
                },
                {
                    "name": "C5",
                    "midi": 72,
                    "time": 26.865675000000028,
                    "velocity": 0.48031496062992124,
                    "duration": 0.31343287500000017
                },
                {
                    "name": "G4",
                    "midi": 67,
                    "time": 26.865675000000028,
                    "velocity": 0.48031496062992124,
                    "duration": 0.31343287500000017
                },
                {
                    "name": "G5",
                    "midi": 79,
                    "time": 26.865675000000028,
                    "velocity": 0.5669291338582677,
                    "duration": 0.31343287500000017
                },
                {
                    "name": "E5",
                    "midi": 76,
                    "time": 26.865675000000028,
                    "velocity": 0.48031496062992124,
                    "duration": 0.31343287500000017
                },
                {
                    "name": "A5",
                    "midi": 81,
                    "time": 27.179107875000028,
                    "velocity": 0.5039370078740157,
                    "duration": 0.0447761249999985
                },
                {
                    "name": "A4",
                    "midi": 69,
                    "time": 27.179107875000028,
                    "velocity": 0.4251968503937008,
                    "duration": 0.0447761249999985
                },
                {
                    "name": "G4",
                    "midi": 67,
                    "time": 27.223884000000027,
                    "velocity": 0.48031496062992124,
                    "duration": 0.1791045000000011
                },
                {
                    "name": "G5",
                    "midi": 79,
                    "time": 27.223884000000027,
                    "velocity": 0.5669291338582677,
                    "duration": 0.1791045000000011
                },
                {
                    "name": "C4",
                    "midi": 60,
                    "time": 27.58209300000003,
                    "velocity": 0.4566929133858268,
                    "duration": 0.35820899999999867
                },
                {
                    "name": "C5",
                    "midi": 72,
                    "time": 27.58209300000003,
                    "velocity": 0.5433070866141733,
                    "duration": 0.35820899999999867
                },
                {
                    "name": "E4",
                    "midi": 64,
                    "time": 27.58209300000003,
                    "velocity": 0.4566929133858268,
                    "duration": 0.35820899999999867
                },
                {
                    "name": "G4",
                    "midi": 67,
                    "time": 27.58209300000003,
                    "velocity": 0.4566929133858268,
                    "duration": 0.35820899999999867
                },
                {
                    "name": "A4",
                    "midi": 69,
                    "time": 27.940302000000028,
                    "velocity": 0.4881889763779528,
                    "duration": 0.5373134999999998
                },
                {
                    "name": "D4",
                    "midi": 62,
                    "time": 27.940302000000028,
                    "velocity": 0.4881889763779528,
                    "duration": 0.5373134999999998
                },
                {
                    "name": "F#4",
                    "midi": 66,
                    "time": 27.940302000000028,
                    "velocity": 0.4881889763779528,
                    "duration": 0.5373134999999998
                },
                {
                    "name": "D5",
                    "midi": 74,
                    "time": 27.940302000000028,
                    "velocity": 0.5748031496062992,
                    "duration": 0.5373134999999998
                },
                {
                    "name": "D#5",
                    "midi": 75,
                    "time": 28.65672000000003,
                    "velocity": 0.6535433070866141,
                    "duration": 0.1791045000000011
                },
                {
                    "name": "A4",
                    "midi": 69,
                    "time": 28.65672000000003,
                    "velocity": 0.5511811023622047,
                    "duration": 0.1791045000000011
                },
                {
                    "name": "F#5",
                    "midi": 78,
                    "time": 28.65672000000003,
                    "velocity": 0.6535433070866141,
                    "duration": 0.1791045000000011
                },
                {
                    "name": "D#5",
                    "midi": 75,
                    "time": 29.01492900000003,
                    "velocity": 0.48031496062992124,
                    "duration": 0.35820899999999867
                },
                {
                    "name": "A4",
                    "midi": 69,
                    "time": 29.01492900000003,
                    "velocity": 0.48031496062992124,
                    "duration": 0.35820899999999867
                },
                {
                    "name": "F#5",
                    "midi": 78,
                    "time": 29.01492900000003,
                    "velocity": 0.5669291338582677,
                    "duration": 0.35820899999999867
                },
                {
                    "name": "A5",
                    "midi": 81,
                    "time": 29.01492900000003,
                    "velocity": 0.5669291338582677,
                    "duration": 0.35820899999999867
                },
                {
                    "name": "A4",
                    "midi": 69,
                    "time": 29.37313800000003,
                    "velocity": 0.49606299212598426,
                    "duration": 0.35820899999999867
                },
                {
                    "name": "A5",
                    "midi": 81,
                    "time": 29.37313800000003,
                    "velocity": 0.5905511811023622,
                    "duration": 0.35820899999999867
                },
                {
                    "name": "D#5",
                    "midi": 75,
                    "time": 29.37313800000003,
                    "velocity": 0.49606299212598426,
                    "duration": 0.35820899999999867
                },
                {
                    "name": "F#5",
                    "midi": 78,
                    "time": 29.37313800000003,
                    "velocity": 0.5905511811023622,
                    "duration": 0.35820899999999867
                },
                {
                    "name": "F#5",
                    "midi": 78,
                    "time": 29.731347000000028,
                    "velocity": 0.5669291338582677,
                    "duration": 0.35820899999999867
                },
                {
                    "name": "A5",
                    "midi": 81,
                    "time": 29.731347000000028,
                    "velocity": 0.5669291338582677,
                    "duration": 0.35820899999999867
                },
                {
                    "name": "D#5",
                    "midi": 75,
                    "time": 29.731347000000028,
                    "velocity": 0.48031496062992124,
                    "duration": 0.35820899999999867
                },
                {
                    "name": "A4",
                    "midi": 69,
                    "time": 29.731347000000028,
                    "velocity": 0.48031496062992124,
                    "duration": 0.35820899999999867
                },
                {
                    "name": "D#6",
                    "midi": 87,
                    "time": 30.089556000000027,
                    "velocity": 0.6456692913385826,
                    "duration": 0.1791045000000011
                },
                {
                    "name": "G5",
                    "midi": 79,
                    "time": 30.089556000000027,
                    "velocity": 0.5433070866141733,
                    "duration": 0.1791045000000011
                },
                {
                    "name": "A#5",
                    "midi": 82,
                    "time": 30.089556000000027,
                    "velocity": 0.5433070866141733,
                    "duration": 0.1791045000000011
                },
                {
                    "name": "G6",
                    "midi": 91,
                    "time": 30.089556000000027,
                    "velocity": 0.6456692913385826,
                    "duration": 0.1791045000000011
                },
                {
                    "name": "D5",
                    "midi": 74,
                    "time": 30.268660500000028,
                    "velocity": 0.48031496062992124,
                    "duration": 0.1791045000000011
                },
                {
                    "name": "D6",
                    "midi": 86,
                    "time": 30.268660500000028,
                    "velocity": 0.5669291338582677,
                    "duration": 0.1791045000000011
                },
                {
                    "name": "D#5",
                    "midi": 75,
                    "time": 30.44776500000003,
                    "velocity": 0.5118110236220472,
                    "duration": 0.1791045000000011
                },
                {
                    "name": "D#6",
                    "midi": 87,
                    "time": 30.44776500000003,
                    "velocity": 0.6062992125984252,
                    "duration": 0.1791045000000011
                },
                {
                    "name": "A#4",
                    "midi": 70,
                    "time": 30.62686950000003,
                    "velocity": 0.48031496062992124,
                    "duration": 0.1791045000000011
                },
                {
                    "name": "A#5",
                    "midi": 82,
                    "time": 30.62686950000003,
                    "velocity": 0.5669291338582677,
                    "duration": 0.1791045000000011
                },
                {
                    "name": "G6",
                    "midi": 91,
                    "time": 30.80597400000003,
                    "velocity": 0.6299212598425197,
                    "duration": 0.1791045000000011
                },
                {
                    "name": "G5",
                    "midi": 79,
                    "time": 30.80597400000003,
                    "velocity": 0.5354330708661418,
                    "duration": 0.1791045000000011
                },
                {
                    "name": "D#6",
                    "midi": 87,
                    "time": 30.80597400000003,
                    "velocity": 0.6299212598425197,
                    "duration": 0.1791045000000011
                },
                {
                    "name": "A#5",
                    "midi": 82,
                    "time": 30.80597400000003,
                    "velocity": 0.5354330708661418,
                    "duration": 0.1791045000000011
                },
                {
                    "name": "D5",
                    "midi": 74,
                    "time": 30.985078500000032,
                    "velocity": 0.48031496062992124,
                    "duration": 0.1791045000000011
                },
                {
                    "name": "D6",
                    "midi": 86,
                    "time": 30.985078500000032,
                    "velocity": 0.5669291338582677,
                    "duration": 0.1791045000000011
                },
                {
                    "name": "D#6",
                    "midi": 87,
                    "time": 31.164183000000033,
                    "velocity": 0.6062992125984252,
                    "duration": 0.1791045000000011
                },
                {
                    "name": "D#5",
                    "midi": 75,
                    "time": 31.164183000000033,
                    "velocity": 0.5118110236220472,
                    "duration": 0.1791045000000011
                },
                {
                    "name": "A#5",
                    "midi": 82,
                    "time": 31.343287500000034,
                    "velocity": 0.5669291338582677,
                    "duration": 0.1791045000000011
                },
                {
                    "name": "A#4",
                    "midi": 70,
                    "time": 31.343287500000034,
                    "velocity": 0.48031496062992124,
                    "duration": 0.1791045000000011
                },
                {
                    "name": "F#5",
                    "midi": 78,
                    "time": 31.522392000000035,
                    "velocity": 0.6535433070866141,
                    "duration": 0.1791045000000011
                },
                {
                    "name": "A4",
                    "midi": 69,
                    "time": 31.522392000000035,
                    "velocity": 0.5511811023622047,
                    "duration": 0.1791045000000011
                },
                {
                    "name": "D#5",
                    "midi": 75,
                    "time": 31.522392000000035,
                    "velocity": 0.6535433070866141,
                    "duration": 0.1791045000000011
                },
                {
                    "name": "F#5",
                    "midi": 78,
                    "time": 31.880601000000038,
                    "velocity": 0.5669291338582677,
                    "duration": 0.35820899999999867
                },
                {
                    "name": "A5",
                    "midi": 81,
                    "time": 31.880601000000038,
                    "velocity": 0.5669291338582677,
                    "duration": 0.35820899999999867
                },
                {
                    "name": "A4",
                    "midi": 69,
                    "time": 31.880601000000038,
                    "velocity": 0.48031496062992124,
                    "duration": 0.35820899999999867
                },
                {
                    "name": "D#5",
                    "midi": 75,
                    "time": 31.880601000000038,
                    "velocity": 0.48031496062992124,
                    "duration": 0.35820899999999867
                },
                {
                    "name": "F#5",
                    "midi": 78,
                    "time": 32.238810000000036,
                    "velocity": 0.5905511811023622,
                    "duration": 0.3582090000000022
                },
                {
                    "name": "A4",
                    "midi": 69,
                    "time": 32.238810000000036,
                    "velocity": 0.49606299212598426,
                    "duration": 0.3582090000000022
                },
                {
                    "name": "D#5",
                    "midi": 75,
                    "time": 32.238810000000036,
                    "velocity": 0.49606299212598426,
                    "duration": 0.3582090000000022
                },
                {
                    "name": "A5",
                    "midi": 81,
                    "time": 32.238810000000036,
                    "velocity": 0.5905511811023622,
                    "duration": 0.3582090000000022
                },
                {
                    "name": "D#5",
                    "midi": 75,
                    "time": 32.59701900000004,
                    "velocity": 0.48031496062992124,
                    "duration": 0.3582090000000022
                },
                {
                    "name": "A5",
                    "midi": 81,
                    "time": 32.59701900000004,
                    "velocity": 0.5669291338582677,
                    "duration": 0.3582090000000022
                },
                {
                    "name": "F#5",
                    "midi": 78,
                    "time": 32.59701900000004,
                    "velocity": 0.5669291338582677,
                    "duration": 0.3582090000000022
                },
                {
                    "name": "A4",
                    "midi": 69,
                    "time": 32.59701900000004,
                    "velocity": 0.48031496062992124,
                    "duration": 0.3582090000000022
                },
                {
                    "name": "G6",
                    "midi": 91,
                    "time": 32.95522800000004,
                    "velocity": 0.6456692913385826,
                    "duration": 0.1791045000000011
                },
                {
                    "name": "A#6",
                    "midi": 94,
                    "time": 32.95522800000004,
                    "velocity": 0.6456692913385826,
                    "duration": 0.1791045000000011
                },
                {
                    "name": "D#6",
                    "midi": 87,
                    "time": 32.95522800000004,
                    "velocity": 0.5433070866141733,
                    "duration": 0.1791045000000011
                },
                {
                    "name": "A#5",
                    "midi": 82,
                    "time": 32.95522800000004,
                    "velocity": 0.5433070866141733,
                    "duration": 0.1791045000000011
                },
                {
                    "name": "A#6",
                    "midi": 94,
                    "time": 33.31343700000004,
                    "velocity": 0.6299212598425197,
                    "duration": 0.1791045000000011
                },
                {
                    "name": "A#5",
                    "midi": 82,
                    "time": 33.31343700000004,
                    "velocity": 0.5354330708661418,
                    "duration": 0.1791045000000011
                },
                {
                    "name": "F5",
                    "midi": 77,
                    "time": 33.492541500000044,
                    "velocity": 0.48031496062992124,
                    "duration": 0.1791045000000011
                },
                {
                    "name": "F6",
                    "midi": 89,
                    "time": 33.492541500000044,
                    "velocity": 0.5669291338582677,
                    "duration": 0.1791045000000011
                },
                {
                    "name": "D#6",
                    "midi": 87,
                    "time": 33.671646000000045,
                    "velocity": 0.5748031496062992,
                    "duration": 0.1791045000000011
                },
                {
                    "name": "G5",
                    "midi": 79,
                    "time": 33.671646000000045,
                    "velocity": 0.4881889763779528,
                    "duration": 0.1791045000000011
                },
                {
                    "name": "A#5",
                    "midi": 82,
                    "time": 33.671646000000045,
                    "velocity": 0.4881889763779528,
                    "duration": 0.1791045000000011
                },
                {
                    "name": "G6",
                    "midi": 91,
                    "time": 33.671646000000045,
                    "velocity": 0.5748031496062992,
                    "duration": 0.1791045000000011
                },
                {
                    "name": "D#5",
                    "midi": 75,
                    "time": 33.850750500000046,
                    "velocity": 0.4566929133858268,
                    "duration": 0.1791045000000011
                },
                {
                    "name": "D#6",
                    "midi": 87,
                    "time": 33.850750500000046,
                    "velocity": 0.5433070866141733,
                    "duration": 0.1791045000000011
                },
                {
                    "name": "D5",
                    "midi": 74,
                    "time": 34.02985500000005,
                    "velocity": 0.5118110236220472,
                    "duration": 0.1791045000000011
                },
                {
                    "name": "D6",
                    "midi": 86,
                    "time": 34.02985500000005,
                    "velocity": 0.6062992125984252,
                    "duration": 0.1791045000000011
                },
                {
                    "name": "A#4",
                    "midi": 70,
                    "time": 34.20895950000005,
                    "velocity": 0.48031496062992124,
                    "duration": 0.1791045000000011
                },
                {
                    "name": "A#5",
                    "midi": 82,
                    "time": 34.20895950000005,
                    "velocity": 0.5669291338582677,
                    "duration": 0.1791045000000011
                },
                {
                    "name": "D#5",
                    "midi": 75,
                    "time": 34.38806400000005,
                    "velocity": 0.5511811023622047,
                    "duration": 0.1791045000000011
                },
                {
                    "name": "B4",
                    "midi": 71,
                    "time": 34.38806400000005,
                    "velocity": 0.5511811023622047,
                    "duration": 0.1791045000000011
                },
                {
                    "name": "A5",
                    "midi": 81,
                    "time": 34.38806400000005,
                    "velocity": 0.6535433070866141,
                    "duration": 0.1791045000000011
                },
                {
                    "name": "B5",
                    "midi": 83,
                    "time": 34.38806400000005,
                    "velocity": 0.6535433070866141,
                    "duration": 0.1791045000000011
                },
                {
                    "name": "D#5",
                    "midi": 75,
                    "time": 34.74627300000005,
                    "velocity": 0.48031496062992124,
                    "duration": 0.3582090000000022
                },
                {
                    "name": "D#6",
                    "midi": 87,
                    "time": 34.74627300000005,
                    "velocity": 0.5669291338582677,
                    "duration": 0.3582090000000022
                },
                {
                    "name": "F#5",
                    "midi": 78,
                    "time": 34.74627300000005,
                    "velocity": 0.5669291338582677,
                    "duration": 0.3582090000000022
                },
                {
                    "name": "B5",
                    "midi": 83,
                    "time": 34.74627300000005,
                    "velocity": 0.5669291338582677,
                    "duration": 0.3582090000000022
                },
                {
                    "name": "B5",
                    "midi": 83,
                    "time": 35.104482000000054,
                    "velocity": 0.5905511811023622,
                    "duration": 0.3582090000000022
                },
                {
                    "name": "D#6",
                    "midi": 87,
                    "time": 35.104482000000054,
                    "velocity": 0.5905511811023622,
                    "duration": 0.3582090000000022
                },
                {
                    "name": "F#5",
                    "midi": 78,
                    "time": 35.104482000000054,
                    "velocity": 0.5905511811023622,
                    "duration": 0.3582090000000022
                },
                {
                    "name": "D#5",
                    "midi": 75,
                    "time": 35.104482000000054,
                    "velocity": 0.49606299212598426,
                    "duration": 0.3582090000000022
                },
                {
                    "name": "F#5",
                    "midi": 78,
                    "time": 35.462691000000056,
                    "velocity": 0.5669291338582677,
                    "duration": 0.3582090000000022
                },
                {
                    "name": "D#5",
                    "midi": 75,
                    "time": 35.462691000000056,
                    "velocity": 0.48031496062992124,
                    "duration": 0.3582090000000022
                },
                {
                    "name": "B5",
                    "midi": 83,
                    "time": 35.462691000000056,
                    "velocity": 0.5669291338582677,
                    "duration": 0.3582090000000022
                },
                {
                    "name": "D#6",
                    "midi": 87,
                    "time": 35.462691000000056,
                    "velocity": 0.5669291338582677,
                    "duration": 0.3582090000000022
                },
                {
                    "name": "G6",
                    "midi": 91,
                    "time": 35.82090000000006,
                    "velocity": 0.6141732283464567,
                    "duration": 0.1791045000000011
                },
                {
                    "name": "G5",
                    "midi": 79,
                    "time": 35.82090000000006,
                    "velocity": 0.5196850393700787,
                    "duration": 0.1791045000000011
                },
                {
                    "name": "E6",
                    "midi": 88,
                    "time": 35.82090000000006,
                    "velocity": 0.6141732283464567,
                    "duration": 0.1791045000000011
                },
                {
                    "name": "C6",
                    "midi": 84,
                    "time": 35.82090000000006,
                    "velocity": 0.5196850393700787,
                    "duration": 0.1791045000000011
                },
                {
                    "name": "D6",
                    "midi": 86,
                    "time": 36.00000450000006,
                    "velocity": 0.5669291338582677,
                    "duration": 0.1791045000000011
                },
                {
                    "name": "D5",
                    "midi": 74,
                    "time": 36.00000450000006,
                    "velocity": 0.48031496062992124,
                    "duration": 0.1791045000000011
                },
                {
                    "name": "E5",
                    "midi": 76,
                    "time": 36.17910900000006,
                    "velocity": 0.5039370078740157,
                    "duration": 0.1791045000000011
                },
                {
                    "name": "E6",
                    "midi": 88,
                    "time": 36.17910900000006,
                    "velocity": 0.5984251968503937,
                    "duration": 0.1791045000000011
                },
                {
                    "name": "C5",
                    "midi": 72,
                    "time": 36.35821350000006,
                    "velocity": 0.4409448818897638,
                    "duration": 0.1791045000000011
                },
                {
                    "name": "C6",
                    "midi": 84,
                    "time": 36.35821350000006,
                    "velocity": 0.5275590551181102,
                    "duration": 0.1791045000000011
                },
                {
                    "name": "G6",
                    "midi": 91,
                    "time": 36.53731800000006,
                    "velocity": 0.6141732283464567,
                    "duration": 0.1791045000000011
                },
                {
                    "name": "G5",
                    "midi": 79,
                    "time": 36.53731800000006,
                    "velocity": 0.5196850393700787,
                    "duration": 0.1791045000000011
                },
                {
                    "name": "E6",
                    "midi": 88,
                    "time": 36.53731800000006,
                    "velocity": 0.6141732283464567,
                    "duration": 0.1791045000000011
                },
                {
                    "name": "C6",
                    "midi": 84,
                    "time": 36.53731800000006,
                    "velocity": 0.5196850393700787,
                    "duration": 0.1791045000000011
                },
                {
                    "name": "D5",
                    "midi": 74,
                    "time": 36.716422500000064,
                    "velocity": 0.44881889763779526,
                    "duration": 0.1791045000000011
                },
                {
                    "name": "D6",
                    "midi": 86,
                    "time": 36.716422500000064,
                    "velocity": 0.5354330708661418,
                    "duration": 0.1791045000000011
                },
                {
                    "name": "E6",
                    "midi": 88,
                    "time": 36.895527000000065,
                    "velocity": 0.5748031496062992,
                    "duration": 0.1791045000000011
                },
                {
                    "name": "E5",
                    "midi": 76,
                    "time": 36.895527000000065,
                    "velocity": 0.4881889763779528,
                    "duration": 0.1791045000000011
                },
                {
                    "name": "C6",
                    "midi": 84,
                    "time": 37.074631500000066,
                    "velocity": 0.5196850393700787,
                    "duration": 0.1791045000000011
                },
                {
                    "name": "C5",
                    "midi": 72,
                    "time": 37.074631500000066,
                    "velocity": 0.4409448818897638,
                    "duration": 0.1791045000000011
                },
                {
                    "name": "A5",
                    "midi": 81,
                    "time": 37.25373600000007,
                    "velocity": 0.6535433070866141,
                    "duration": 0.1791045000000011
                },
                {
                    "name": "B4",
                    "midi": 71,
                    "time": 37.25373600000007,
                    "velocity": 0.5511811023622047,
                    "duration": 0.1791045000000011
                },
                {
                    "name": "D#5",
                    "midi": 75,
                    "time": 37.25373600000007,
                    "velocity": 0.5511811023622047,
                    "duration": 0.1791045000000011
                },
                {
                    "name": "B5",
                    "midi": 83,
                    "time": 37.25373600000007,
                    "velocity": 0.6535433070866141,
                    "duration": 0.1791045000000011
                },
                {
                    "name": "F#5",
                    "midi": 78,
                    "time": 37.61194500000007,
                    "velocity": 0.48031496062992124,
                    "duration": 0.3582090000000022
                },
                {
                    "name": "D#6",
                    "midi": 87,
                    "time": 37.61194500000007,
                    "velocity": 0.5669291338582677,
                    "duration": 0.3582090000000022
                },
                {
                    "name": "B5",
                    "midi": 83,
                    "time": 37.61194500000007,
                    "velocity": 0.5669291338582677,
                    "duration": 0.3582090000000022
                },
                {
                    "name": "D#5",
                    "midi": 75,
                    "time": 37.61194500000007,
                    "velocity": 0.48031496062992124,
                    "duration": 0.3582090000000022
                },
                {
                    "name": "D#5",
                    "midi": 75,
                    "time": 37.97015400000007,
                    "velocity": 0.49606299212598426,
                    "duration": 0.3582090000000022
                },
                {
                    "name": "D#6",
                    "midi": 87,
                    "time": 37.97015400000007,
                    "velocity": 0.5905511811023622,
                    "duration": 0.3582090000000022
                },
                {
                    "name": "B5",
                    "midi": 83,
                    "time": 37.97015400000007,
                    "velocity": 0.5905511811023622,
                    "duration": 0.3582090000000022
                },
                {
                    "name": "F#5",
                    "midi": 78,
                    "time": 37.97015400000007,
                    "velocity": 0.49606299212598426,
                    "duration": 0.3582090000000022
                },
                {
                    "name": "F#5",
                    "midi": 78,
                    "time": 38.328363000000074,
                    "velocity": 0.48031496062992124,
                    "duration": 0.3582090000000022
                },
                {
                    "name": "D#6",
                    "midi": 87,
                    "time": 38.328363000000074,
                    "velocity": 0.5669291338582677,
                    "duration": 0.3582090000000022
                },
                {
                    "name": "B5",
                    "midi": 83,
                    "time": 38.328363000000074,
                    "velocity": 0.5669291338582677,
                    "duration": 0.3582090000000022
                },
                {
                    "name": "D#5",
                    "midi": 75,
                    "time": 38.328363000000074,
                    "velocity": 0.48031496062992124,
                    "duration": 0.3582090000000022
                },
                {
                    "name": "G6",
                    "midi": 91,
                    "time": 38.686572000000076,
                    "velocity": 0.6141732283464567,
                    "duration": 0.1791045000000011
                },
                {
                    "name": "C7",
                    "midi": 96,
                    "time": 38.686572000000076,
                    "velocity": 0.6141732283464567,
                    "duration": 0.1791045000000011
                },
                {
                    "name": "E6",
                    "midi": 88,
                    "time": 38.686572000000076,
                    "velocity": 0.5196850393700787,
                    "duration": 0.1791045000000011
                },
                {
                    "name": "C6",
                    "midi": 84,
                    "time": 38.686572000000076,
                    "velocity": 0.5196850393700787,
                    "duration": 0.1791045000000011
                },
                {
                    "name": "C7",
                    "midi": 96,
                    "time": 39.04478100000008,
                    "velocity": 0.5984251968503937,
                    "duration": 0.1791045000000011
                },
                {
                    "name": "C6",
                    "midi": 84,
                    "time": 39.04478100000008,
                    "velocity": 0.5039370078740157,
                    "duration": 0.1791045000000011
                },
                {
                    "name": "G5",
                    "midi": 79,
                    "time": 39.22388550000008,
                    "velocity": 0.4409448818897638,
                    "duration": 0.1791045000000011
                },
                {
                    "name": "G6",
                    "midi": 91,
                    "time": 39.22388550000008,
                    "velocity": 0.5275590551181102,
                    "duration": 0.1791045000000011
                },
                {
                    "name": "E6",
                    "midi": 88,
                    "time": 39.40299000000008,
                    "velocity": 0.5354330708661418,
                    "duration": 0.1791045000000011
                },
                {
                    "name": "A5",
                    "midi": 81,
                    "time": 39.40299000000008,
                    "velocity": 0.44881889763779526,
                    "duration": 0.1791045000000011
                },
                {
                    "name": "C6",
                    "midi": 84,
                    "time": 39.40299000000008,
                    "velocity": 0.44881889763779526,
                    "duration": 0.1791045000000011
                },
                {
                    "name": "A6",
                    "midi": 93,
                    "time": 39.40299000000008,
                    "velocity": 0.5354330708661418,
                    "duration": 0.1791045000000011
                },
                {
                    "name": "F5",
                    "midi": 77,
                    "time": 39.58209450000008,
                    "velocity": 0.4251968503937008,
                    "duration": 0.1791045000000011
                },
                {
                    "name": "F6",
                    "midi": 89,
                    "time": 39.58209450000008,
                    "velocity": 0.5039370078740157,
                    "duration": 0.1791045000000011
                },
                {
                    "name": "E5",
                    "midi": 76,
                    "time": 39.76119900000008,
                    "velocity": 0.4881889763779528,
                    "duration": 0.1791045000000011
                },
                {
                    "name": "E6",
                    "midi": 88,
                    "time": 39.76119900000008,
                    "velocity": 0.5748031496062992,
                    "duration": 0.1791045000000011
                },
                {
                    "name": "C5",
                    "midi": 72,
                    "time": 39.940303500000084,
                    "velocity": 0.4409448818897638,
                    "duration": 0.1791045000000011
                },
                {
                    "name": "C6",
                    "midi": 84,
                    "time": 39.940303500000084,
                    "velocity": 0.5196850393700787,
                    "duration": 0.1791045000000011
                },
                {
                    "name": "G3",
                    "midi": 55,
                    "time": 40.119408000000085,
                    "velocity": 0.5196850393700787,
                    "duration": 0.1791045000000011
                },
                {
                    "name": "G4",
                    "midi": 67,
                    "time": 40.119408000000085,
                    "velocity": 0.6141732283464567,
                    "duration": 0.1791045000000011
                },
                {
                    "name": "G6",
                    "midi": 91,
                    "time": 40.47761700000009,
                    "velocity": 0.4881889763779528,
                    "duration": 0.1791045000000011
                },
                {
                    "name": "G7",
                    "midi": 103,
                    "time": 40.47761700000009,
                    "velocity": 0.5748031496062992,
                    "duration": 0.1791045000000011
                },
                {
                    "name": "D7",
                    "midi": 98,
                    "time": 40.65672150000009,
                    "velocity": 0.5275590551181102,
                    "duration": 0.1791045000000011
                },
                {
                    "name": "D6",
                    "midi": 86,
                    "time": 40.65672150000009,
                    "velocity": 0.4409448818897638,
                    "duration": 0.1791045000000011
                },
                {
                    "name": "D#6",
                    "midi": 87,
                    "time": 40.83582600000009,
                    "velocity": 0.4645669291338583,
                    "duration": 0.1791045000000011
                },
                {
                    "name": "D#7",
                    "midi": 99,
                    "time": 40.83582600000009,
                    "velocity": 0.5511811023622047,
                    "duration": 0.1791045000000011
                },
                {
                    "name": "D7",
                    "midi": 98,
                    "time": 41.01493050000009,
                    "velocity": 0.5118110236220472,
                    "duration": 0.1791045000000011
                },
                {
                    "name": "D6",
                    "midi": 86,
                    "time": 41.01493050000009,
                    "velocity": 0.4330708661417323,
                    "duration": 0.1791045000000011
                },
                {
                    "name": "A#5",
                    "midi": 82,
                    "time": 41.19403500000009,
                    "velocity": 0.4645669291338583,
                    "duration": 0.1791045000000011
                },
                {
                    "name": "A#6",
                    "midi": 94,
                    "time": 41.19403500000009,
                    "velocity": 0.5511811023622047,
                    "duration": 0.1791045000000011
                },
                {
                    "name": "G6",
                    "midi": 91,
                    "time": 41.37313950000009,
                    "velocity": 0.5275590551181102,
                    "duration": 0.1791045000000011
                },
                {
                    "name": "G5",
                    "midi": 79,
                    "time": 41.37313950000009,
                    "velocity": 0.4409448818897638,
                    "duration": 0.1791045000000011
                },
                {
                    "name": "G#5",
                    "midi": 80,
                    "time": 41.552244000000094,
                    "velocity": 0.4645669291338583,
                    "duration": 0.1791045000000011
                },
                {
                    "name": "G#6",
                    "midi": 92,
                    "time": 41.552244000000094,
                    "velocity": 0.5511811023622047,
                    "duration": 0.1791045000000011
                },
                {
                    "name": "D#7",
                    "midi": 99,
                    "time": 41.731348500000095,
                    "velocity": 0.5039370078740157,
                    "duration": 0.1791045000000011
                },
                {
                    "name": "D#6",
                    "midi": 87,
                    "time": 41.731348500000095,
                    "velocity": 0.4251968503937008,
                    "duration": 0.1791045000000011
                },
                {
                    "name": "B5",
                    "midi": 83,
                    "time": 41.910453000000096,
                    "velocity": 0.4409448818897638,
                    "duration": 0.1791045000000011
                },
                {
                    "name": "B6",
                    "midi": 95,
                    "time": 41.910453000000096,
                    "velocity": 0.5275590551181102,
                    "duration": 0.1791045000000011
                },
                {
                    "name": "D#7",
                    "midi": 99,
                    "time": 42.0895575000001,
                    "velocity": 0.4645669291338583,
                    "duration": 0.1791045000000011
                },
                {
                    "name": "D#6",
                    "midi": 87,
                    "time": 42.0895575000001,
                    "velocity": 0.3937007874015748,
                    "duration": 0.1791045000000011
                },
                {
                    "name": "D6",
                    "midi": 86,
                    "time": 42.2686620000001,
                    "velocity": 0.4881889763779528,
                    "duration": 0.1791045000000011
                },
                {
                    "name": "D7",
                    "midi": 98,
                    "time": 42.2686620000001,
                    "velocity": 0.5826771653543307,
                    "duration": 0.1791045000000011
                },
                {
                    "name": "G6",
                    "midi": 91,
                    "time": 42.6268710000001,
                    "velocity": 0.5354330708661418,
                    "duration": 0.1791045000000011
                },
                {
                    "name": "G5",
                    "midi": 79,
                    "time": 42.6268710000001,
                    "velocity": 0.44881889763779526,
                    "duration": 0.1791045000000011
                },
                {
                    "name": "G6",
                    "midi": 91,
                    "time": 42.9850800000001,
                    "velocity": 0.6141732283464567,
                    "duration": 0.3582090000000022
                },
                {
                    "name": "G5",
                    "midi": 79,
                    "time": 42.9850800000001,
                    "velocity": 0.5196850393700787,
                    "duration": 0.3582090000000022
                },
                {
                    "name": "G5",
                    "midi": 79,
                    "time": 43.343289000000105,
                    "velocity": 0.4881889763779528,
                    "duration": 0.1791045000000011
                },
                {
                    "name": "G6",
                    "midi": 91,
                    "time": 43.343289000000105,
                    "velocity": 0.5748031496062992,
                    "duration": 0.1791045000000011
                },
                {
                    "name": "D6",
                    "midi": 86,
                    "time": 43.522393500000106,
                    "velocity": 0.5275590551181102,
                    "duration": 0.1791045000000011
                },
                {
                    "name": "D5",
                    "midi": 74,
                    "time": 43.522393500000106,
                    "velocity": 0.4409448818897638,
                    "duration": 0.1791045000000011
                },
                {
                    "name": "D#6",
                    "midi": 87,
                    "time": 43.70149800000011,
                    "velocity": 0.5511811023622047,
                    "duration": 0.1791045000000011
                },
                {
                    "name": "D#5",
                    "midi": 75,
                    "time": 43.70149800000011,
                    "velocity": 0.4645669291338583,
                    "duration": 0.1791045000000011
                },
                {
                    "name": "D5",
                    "midi": 74,
                    "time": 43.88060250000011,
                    "velocity": 0.4330708661417323,
                    "duration": 0.1791045000000011
                },
                {
                    "name": "D6",
                    "midi": 86,
                    "time": 43.88060250000011,
                    "velocity": 0.5118110236220472,
                    "duration": 0.1791045000000011
                },
                {
                    "name": "A#4",
                    "midi": 70,
                    "time": 44.05970700000011,
                    "velocity": 0.4645669291338583,
                    "duration": 0.1791045000000011
                },
                {
                    "name": "A#5",
                    "midi": 82,
                    "time": 44.05970700000011,
                    "velocity": 0.5511811023622047,
                    "duration": 0.1791045000000011
                },
                {
                    "name": "G4",
                    "midi": 67,
                    "time": 44.23881150000011,
                    "velocity": 0.4409448818897638,
                    "duration": 0.1791045000000011
                },
                {
                    "name": "G5",
                    "midi": 79,
                    "time": 44.23881150000011,
                    "velocity": 0.5275590551181102,
                    "duration": 0.1791045000000011
                },
                {
                    "name": "G#5",
                    "midi": 80,
                    "time": 44.41791600000011,
                    "velocity": 0.5511811023622047,
                    "duration": 0.1791045000000011
                },
                {
                    "name": "G#4",
                    "midi": 68,
                    "time": 44.41791600000011,
                    "velocity": 0.4645669291338583,
                    "duration": 0.1791045000000011
                },
                {
                    "name": "D#6",
                    "midi": 87,
                    "time": 44.59702050000011,
                    "velocity": 0.5039370078740157,
                    "duration": 0.1791045000000011
                },
                {
                    "name": "D#5",
                    "midi": 75,
                    "time": 44.59702050000011,
                    "velocity": 0.4251968503937008,
                    "duration": 0.1791045000000011
                },
                {
                    "name": "B5",
                    "midi": 83,
                    "time": 44.776125000000114,
                    "velocity": 0.5275590551181102,
                    "duration": 0.1791045000000011
                },
                {
                    "name": "B4",
                    "midi": 71,
                    "time": 44.776125000000114,
                    "velocity": 0.4409448818897638,
                    "duration": 0.1791045000000011
                },
                {
                    "name": "D#5",
                    "midi": 75,
                    "time": 44.955229500000115,
                    "velocity": 0.3937007874015748,
                    "duration": 0.1791045000000011
                },
                {
                    "name": "D#6",
                    "midi": 87,
                    "time": 44.955229500000115,
                    "velocity": 0.4645669291338583,
                    "duration": 0.1791045000000011
                },
                {
                    "name": "D5",
                    "midi": 74,
                    "time": 45.134334000000116,
                    "velocity": 0.5275590551181102,
                    "duration": 0.1791045000000011
                },
                {
                    "name": "D6",
                    "midi": 86,
                    "time": 45.134334000000116,
                    "velocity": 0.6220472440944882,
                    "duration": 0.1791045000000011
                },
                {
                    "name": "G4",
                    "midi": 67,
                    "time": 45.49254300000012,
                    "velocity": 0.4409448818897638,
                    "duration": 0.1791045000000011
                },
                {
                    "name": "G5",
                    "midi": 79,
                    "time": 45.49254300000012,
                    "velocity": 0.5275590551181102,
                    "duration": 0.1791045000000011
                },
                {
                    "name": "G5",
                    "midi": 79,
                    "time": 45.85075200000012,
                    "velocity": 0.6141732283464567,
                    "duration": 0.3582090000000022
                },
                {
                    "name": "G4",
                    "midi": 67,
                    "time": 45.85075200000012,
                    "velocity": 0.5196850393700787,
                    "duration": 0.3582090000000022
                },
                {
                    "name": "G5",
                    "midi": 79,
                    "time": 46.20896100000012,
                    "velocity": 0.5748031496062992,
                    "duration": 0.1791045000000011
                },
                {
                    "name": "G4",
                    "midi": 67,
                    "time": 46.20896100000012,
                    "velocity": 0.4881889763779528,
                    "duration": 0.1791045000000011
                },
                {
                    "name": "D4",
                    "midi": 62,
                    "time": 46.388065500000124,
                    "velocity": 0.4409448818897638,
                    "duration": 0.1791045000000011
                },
                {
                    "name": "D5",
                    "midi": 74,
                    "time": 46.388065500000124,
                    "velocity": 0.5275590551181102,
                    "duration": 0.1791045000000011
                },
                {
                    "name": "D#5",
                    "midi": 75,
                    "time": 46.567170000000125,
                    "velocity": 0.5511811023622047,
                    "duration": 0.1791045000000011
                },
                {
                    "name": "D#4",
                    "midi": 63,
                    "time": 46.567170000000125,
                    "velocity": 0.4645669291338583,
                    "duration": 0.1791045000000011
                },
                {
                    "name": "D5",
                    "midi": 74,
                    "time": 46.746274500000126,
                    "velocity": 0.5118110236220472,
                    "duration": 0.1791045000000011
                },
                {
                    "name": "D4",
                    "midi": 62,
                    "time": 46.746274500000126,
                    "velocity": 0.4330708661417323,
                    "duration": 0.1791045000000011
                },
                {
                    "name": "A#4",
                    "midi": 70,
                    "time": 46.92537900000013,
                    "velocity": 0.5511811023622047,
                    "duration": 0.1791045000000011
                },
                {
                    "name": "A#3",
                    "midi": 58,
                    "time": 46.92537900000013,
                    "velocity": 0.4645669291338583,
                    "duration": 0.1791045000000011
                },
                {
                    "name": "G3",
                    "midi": 55,
                    "time": 47.10448350000013,
                    "velocity": 0.4409448818897638,
                    "duration": 0.1791045000000011
                },
                {
                    "name": "G4",
                    "midi": 67,
                    "time": 47.10448350000013,
                    "velocity": 0.5275590551181102,
                    "duration": 0.1791045000000011
                },
                {
                    "name": "F#3",
                    "midi": 54,
                    "time": 47.28358800000013,
                    "velocity": 0.6850393700787402,
                    "duration": 0.5373135000000033
                },
                {
                    "name": "G5",
                    "midi": 79,
                    "time": 47.64179700000013,
                    "velocity": 0.5748031496062992,
                    "duration": 0.1791045000000011
                },
                {
                    "name": "G4",
                    "midi": 67,
                    "time": 47.64179700000013,
                    "velocity": 0.4881889763779528,
                    "duration": 0.1791045000000011
                },
                {
                    "name": "D5",
                    "midi": 74,
                    "time": 47.82090150000013,
                    "velocity": 0.5275590551181102,
                    "duration": 0.1791045000000011
                },
                {
                    "name": "D4",
                    "midi": 62,
                    "time": 47.82090150000013,
                    "velocity": 0.4409448818897638,
                    "duration": 0.1791045000000011
                },
                {
                    "name": "D#4",
                    "midi": 63,
                    "time": 48.000006000000134,
                    "velocity": 0.4645669291338583,
                    "duration": 0.1791045000000011
                },
                {
                    "name": "D#5",
                    "midi": 75,
                    "time": 48.000006000000134,
                    "velocity": 0.5511811023622047,
                    "duration": 0.1791045000000011
                },
                {
                    "name": "D5",
                    "midi": 74,
                    "time": 48.179110500000135,
                    "velocity": 0.5118110236220472,
                    "duration": 0.1791045000000011
                },
                {
                    "name": "D4",
                    "midi": 62,
                    "time": 48.179110500000135,
                    "velocity": 0.4330708661417323,
                    "duration": 0.1791045000000011
                },
                {
                    "name": "A#3",
                    "midi": 58,
                    "time": 48.358215000000136,
                    "velocity": 0.4645669291338583,
                    "duration": 0.1791045000000011
                },
                {
                    "name": "A#4",
                    "midi": 70,
                    "time": 48.358215000000136,
                    "velocity": 0.5511811023622047,
                    "duration": 0.1791045000000011
                },
                {
                    "name": "G3",
                    "midi": 55,
                    "time": 48.53731950000014,
                    "velocity": 0.4409448818897638,
                    "duration": 0.1791045000000011
                },
                {
                    "name": "G4",
                    "midi": 67,
                    "time": 48.53731950000014,
                    "velocity": 0.5275590551181102,
                    "duration": 0.1791045000000011
                },
                {
                    "name": "F3",
                    "midi": 53,
                    "time": 48.71642400000014,
                    "velocity": 0.6850393700787402,
                    "duration": 0.5373135000000033
                },
                {
                    "name": "G4",
                    "midi": 67,
                    "time": 49.07463300000014,
                    "velocity": 0.4881889763779528,
                    "duration": 0.1791045000000011
                },
                {
                    "name": "G5",
                    "midi": 79,
                    "time": 49.07463300000014,
                    "velocity": 0.5748031496062992,
                    "duration": 0.1791045000000011
                },
                {
                    "name": "D5",
                    "midi": 74,
                    "time": 49.25373750000014,
                    "velocity": 0.5275590551181102,
                    "duration": 0.1791045000000011
                },
                {
                    "name": "D4",
                    "midi": 62,
                    "time": 49.25373750000014,
                    "velocity": 0.4409448818897638,
                    "duration": 0.1791045000000011
                },
                {
                    "name": "D#5",
                    "midi": 75,
                    "time": 49.43284200000014,
                    "velocity": 0.5511811023622047,
                    "duration": 0.1791045000000011
                },
                {
                    "name": "D#4",
                    "midi": 63,
                    "time": 49.43284200000014,
                    "velocity": 0.4645669291338583,
                    "duration": 0.1791045000000011
                },
                {
                    "name": "D4",
                    "midi": 62,
                    "time": 49.611946500000144,
                    "velocity": 0.4330708661417323,
                    "duration": 0.1791045000000011
                },
                {
                    "name": "D5",
                    "midi": 74,
                    "time": 49.611946500000144,
                    "velocity": 0.5118110236220472,
                    "duration": 0.1791045000000011
                },
                {
                    "name": "A#3",
                    "midi": 58,
                    "time": 49.791051000000145,
                    "velocity": 0.4645669291338583,
                    "duration": 0.1791045000000011
                },
                {
                    "name": "A#4",
                    "midi": 70,
                    "time": 49.791051000000145,
                    "velocity": 0.5511811023622047,
                    "duration": 0.1791045000000011
                },
                {
                    "name": "G3",
                    "midi": 55,
                    "time": 49.970155500000146,
                    "velocity": 0.4409448818897638,
                    "duration": 0.1791045000000011
                },
                {
                    "name": "G4",
                    "midi": 67,
                    "time": 49.970155500000146,
                    "velocity": 0.5275590551181102,
                    "duration": 0.1791045000000011
                },
                {
                    "name": "E3",
                    "midi": 52,
                    "time": 50.14926000000015,
                    "velocity": 0.6850393700787402,
                    "duration": 0.5373135000000033
                },
                {
                    "name": "G5",
                    "midi": 79,
                    "time": 50.50746900000015,
                    "velocity": 0.5748031496062992,
                    "duration": 0.1791045000000011
                },
                {
                    "name": "G4",
                    "midi": 67,
                    "time": 50.50746900000015,
                    "velocity": 0.4881889763779528,
                    "duration": 0.1791045000000011
                },
                {
                    "name": "D4",
                    "midi": 62,
                    "time": 50.68657350000015,
                    "velocity": 0.4409448818897638,
                    "duration": 0.1791045000000011
                },
                {
                    "name": "D5",
                    "midi": 74,
                    "time": 50.68657350000015,
                    "velocity": 0.5275590551181102,
                    "duration": 0.1791045000000011
                },
                {
                    "name": "D#5",
                    "midi": 75,
                    "time": 50.86567800000015,
                    "velocity": 0.5511811023622047,
                    "duration": 0.1791045000000011
                },
                {
                    "name": "D#4",
                    "midi": 63,
                    "time": 50.86567800000015,
                    "velocity": 0.4645669291338583,
                    "duration": 0.1791045000000011
                },
                {
                    "name": "D5",
                    "midi": 74,
                    "time": 51.04478250000015,
                    "velocity": 0.5118110236220472,
                    "duration": 0.1791045000000011
                },
                {
                    "name": "D4",
                    "midi": 62,
                    "time": 51.04478250000015,
                    "velocity": 0.4330708661417323,
                    "duration": 0.1791045000000011
                },
                {
                    "name": "A#4",
                    "midi": 70,
                    "time": 51.223887000000154,
                    "velocity": 0.5511811023622047,
                    "duration": 0.1791045000000011
                },
                {
                    "name": "A#3",
                    "midi": 58,
                    "time": 51.223887000000154,
                    "velocity": 0.4645669291338583,
                    "duration": 0.1791045000000011
                },
                {
                    "name": "G4",
                    "midi": 67,
                    "time": 51.402991500000155,
                    "velocity": 0.5275590551181102,
                    "duration": 0.1791045000000011
                },
                {
                    "name": "G3",
                    "midi": 55,
                    "time": 51.402991500000155,
                    "velocity": 0.4409448818897638,
                    "duration": 0.1791045000000011
                },
                {
                    "name": "D#3",
                    "midi": 51,
                    "time": 51.582096000000156,
                    "velocity": 0.6850393700787402,
                    "duration": 0.3582090000000022
                },
                {
                    "name": "D3",
                    "midi": 50,
                    "time": 51.94030500000016,
                    "velocity": 0.6850393700787402,
                    "duration": 0.1791045000000011
                },
                {
                    "name": "B3",
                    "midi": 59,
                    "time": 52.29851400000016,
                    "velocity": 0.5748031496062992,
                    "duration": 0.5373135000000033
                },
                {
                    "name": "B4",
                    "midi": 71,
                    "time": 52.29851400000016,
                    "velocity": 0.6850393700787402,
                    "duration": 0.5373135000000033
                },
                {
                    "name": "G#6",
                    "midi": 92,
                    "time": 52.65672300000016,
                    "velocity": 0.6535433070866141,
                    "duration": 0.1791045000000011
                },
                {
                    "name": "G#5",
                    "midi": 80,
                    "time": 52.65672300000016,
                    "velocity": 0.5511811023622047,
                    "duration": 0.1791045000000011
                },
                {
                    "name": "G7",
                    "midi": 103,
                    "time": 53.10448425000016,
                    "velocity": 0.5669291338582677,
                    "duration": 0.089552249999997
                },
                {
                    "name": "D7",
                    "midi": 98,
                    "time": 53.283588750000156,
                    "velocity": 0.5118110236220472,
                    "duration": 0.089552249999997
                },
                {
                    "name": "D#7",
                    "midi": 99,
                    "time": 53.46269325000015,
                    "velocity": 0.5433070866141733,
                    "duration": 0.089552249999997
                },
                {
                    "name": "B6",
                    "midi": 95,
                    "time": 53.641797750000144,
                    "velocity": 0.5196850393700787,
                    "duration": 0.089552249999997
                },
                {
                    "name": "C7",
                    "midi": 96,
                    "time": 53.82090225000014,
                    "velocity": 0.5433070866141733,
                    "duration": 0.089552249999997
                },
                {
                    "name": "G6",
                    "midi": 91,
                    "time": 54.00000675000013,
                    "velocity": 0.5118110236220472,
                    "duration": 0.089552249999997
                },
                {
                    "name": "G#6",
                    "midi": 92,
                    "time": 54.179111250000126,
                    "velocity": 0.5433070866141733,
                    "duration": 0.089552249999997
                },
                {
                    "name": "D6",
                    "midi": 86,
                    "time": 54.35821575000012,
                    "velocity": 0.5118110236220472,
                    "duration": 0.089552249999997
                },
                {
                    "name": "D#6",
                    "midi": 87,
                    "time": 54.537320250000114,
                    "velocity": 0.5669291338582677,
                    "duration": 0.089552249999997
                },
                {
                    "name": "B5",
                    "midi": 83,
                    "time": 54.71642475000011,
                    "velocity": 0.5118110236220472,
                    "duration": 0.089552249999997
                },
                {
                    "name": "C6",
                    "midi": 84,
                    "time": 54.8955292500001,
                    "velocity": 0.5433070866141733,
                    "duration": 0.089552249999997
                },
                {
                    "name": "G5",
                    "midi": 79,
                    "time": 55.074633750000096,
                    "velocity": 0.5118110236220472,
                    "duration": 0.089552249999997
                },
                {
                    "name": "G#5",
                    "midi": 80,
                    "time": 55.25373825000009,
                    "velocity": 0.5354330708661418,
                    "duration": 0.089552249999997
                },
                {
                    "name": "D5",
                    "midi": 74,
                    "time": 55.432842750000084,
                    "velocity": 0.49606299212598426,
                    "duration": 0.089552249999997
                },
                {
                    "name": "D#5",
                    "midi": 75,
                    "time": 55.61194725000008,
                    "velocity": 0.5433070866141733,
                    "duration": 0.089552249999997
                },
                {
                    "name": "B4",
                    "midi": 71,
                    "time": 55.79105175000007,
                    "velocity": 0.5196850393700787,
                    "duration": 0.089552249999997
                },
                {
                    "name": "C5",
                    "midi": 72,
                    "time": 55.970156250000066,
                    "velocity": 0.5669291338582677,
                    "duration": 0.089552249999997
                },
                {
                    "name": "G4",
                    "midi": 67,
                    "time": 56.14926075000006,
                    "velocity": 0.49606299212598426,
                    "duration": 0.089552249999997
                },
                {
                    "name": "G#4",
                    "midi": 68,
                    "time": 56.328365250000054,
                    "velocity": 0.5433070866141733,
                    "duration": 0.089552249999997
                },
                {
                    "name": "D4",
                    "midi": 62,
                    "time": 56.50746975000005,
                    "velocity": 0.5196850393700787,
                    "duration": 0.089552249999997
                },
                {
                    "name": "D#4",
                    "midi": 63,
                    "time": 56.68657425000004,
                    "velocity": 0.5433070866141733,
                    "duration": 0.089552249999997
                },
                {
                    "name": "B3",
                    "midi": 59,
                    "time": 56.865678750000036,
                    "velocity": 0.5196850393700787,
                    "duration": 0.089552249999997
                },
                {
                    "name": "C4",
                    "midi": 60,
                    "time": 57.04478325000003,
                    "velocity": 0.5905511811023622,
                    "duration": 0.089552249999997
                },
                {
                    "name": "G3",
                    "midi": 55,
                    "time": 57.223887750000024,
                    "velocity": 0.5433070866141733,
                    "duration": 0.089552249999997
                },
                {
                    "name": "G#3",
                    "midi": 56,
                    "time": 57.40299225000002,
                    "velocity": 0.6141732283464567,
                    "duration": 0.089552249999997
                },
                {
                    "name": "D3",
                    "midi": 50,
                    "time": 57.58209675000001,
                    "velocity": 0.5590551181102362,
                    "duration": 0.089552249999997
                },
                {
                    "name": "D#3",
                    "midi": 51,
                    "time": 57.761201250000006,
                    "velocity": 0.6377952755905512,
                    "duration": 0.089552249999997
                },
                {
                    "name": "B2",
                    "midi": 47,
                    "time": 57.94030575,
                    "velocity": 0.5826771653543307,
                    "duration": 0.089552249999997
                },
                {
                    "name": "C3",
                    "midi": 48,
                    "time": 58.119410249999994,
                    "velocity": 0.6456692913385826,
                    "duration": 0.089552249999997
                },
                {
                    "name": "G2",
                    "midi": 43,
                    "time": 58.29851474999999,
                    "velocity": 0.6062992125984252,
                    "duration": 0.089552249999997
                },
                {
                    "name": "G#2",
                    "midi": 44,
                    "time": 58.47761924999998,
                    "velocity": 0.6456692913385826,
                    "duration": 0.089552249999997
                },
                {
                    "name": "G2",
                    "midi": 43,
                    "time": 58.656723749999976,
                    "velocity": 0.6062992125984252,
                    "duration": 0.089552249999997
                },
                {
                    "name": "G#2",
                    "midi": 44,
                    "time": 58.83582824999997,
                    "velocity": 0.6456692913385826,
                    "duration": 0.089552249999997
                },
                {
                    "name": "G2",
                    "midi": 43,
                    "time": 59.014932749999964,
                    "velocity": 0.5984251968503937,
                    "duration": 0.089552249999997
                },
                {
                    "name": "B2",
                    "midi": 47,
                    "time": 59.19403724999996,
                    "velocity": 0.6456692913385826,
                    "duration": 0.089552249999997
                },
                {
                    "name": "G2",
                    "midi": 43,
                    "time": 59.37314174999995,
                    "velocity": 0.6220472440944882,
                    "duration": 0.089552249999997
                },
                {
                    "name": "G#3",
                    "midi": 56,
                    "time": 59.552246249999946,
                    "velocity": 0.6456692913385826,
                    "duration": 0.089552249999997
                },
                {
                    "name": "G3",
                    "midi": 55,
                    "time": 59.73135074999994,
                    "velocity": 0.5984251968503937,
                    "duration": 0.089552249999997
                },
                {
                    "name": "B3",
                    "midi": 59,
                    "time": 59.910455249999934,
                    "velocity": 0.6456692913385826,
                    "duration": 0.089552249999997
                },
                {
                    "name": "G3",
                    "midi": 55,
                    "time": 60.08955974999993,
                    "velocity": 0.6220472440944882,
                    "duration": 0.089552249999997
                },
                {
                    "name": "G#3",
                    "midi": 56,
                    "time": 60.179111999999925,
                    "velocity": 0.6692913385826772,
                    "duration": 0.1791045000000011
                },
                {
                    "name": "G#3",
                    "midi": 56,
                    "time": 60.53732099999993,
                    "velocity": 0.6614173228346457,
                    "duration": 0.1791045000000011
                },
                {
                    "name": "G4",
                    "midi": 67,
                    "time": 60.89552999999993,
                    "velocity": 0.5748031496062992,
                    "duration": 0.1791045000000011
                },
                {
                    "name": "G5",
                    "midi": 79,
                    "time": 60.89552999999993,
                    "velocity": 0.6771653543307087,
                    "duration": 0.1791045000000011
                },
                {
                    "name": "G5",
                    "midi": 79,
                    "time": 61.25373899999993,
                    "velocity": 0.6535433070866141,
                    "duration": 0.1791045000000011
                },
                {
                    "name": "G4",
                    "midi": 67,
                    "time": 61.25373899999993,
                    "velocity": 0.5511811023622047,
                    "duration": 0.1791045000000011
                },
                {
                    "name": "G#3",
                    "midi": 56,
                    "time": 61.611947999999934,
                    "velocity": 0.6692913385826772,
                    "duration": 0.1791045000000011
                },
                {
                    "name": "G#3",
                    "midi": 56,
                    "time": 61.970156999999936,
                    "velocity": 0.6614173228346457,
                    "duration": 0.1791045000000011
                },
                {
                    "name": "G5",
                    "midi": 79,
                    "time": 62.32836599999994,
                    "velocity": 0.6771653543307087,
                    "duration": 0.1791045000000011
                },
                {
                    "name": "G4",
                    "midi": 67,
                    "time": 62.32836599999994,
                    "velocity": 0.5748031496062992,
                    "duration": 0.1791045000000011
                },
                {
                    "name": "G5",
                    "midi": 79,
                    "time": 62.68657499999994,
                    "velocity": 0.6535433070866141,
                    "duration": 0.1791045000000011
                },
                {
                    "name": "G4",
                    "midi": 67,
                    "time": 62.68657499999994,
                    "velocity": 0.5511811023622047,
                    "duration": 0.1791045000000011
                },
                {
                    "name": "G#3",
                    "midi": 56,
                    "time": 63.04478399999994,
                    "velocity": 0.6692913385826772,
                    "duration": 0.7164179999999973
                },
                {
                    "name": "G5",
                    "midi": 79,
                    "time": 63.76120199999994,
                    "velocity": 0.6614173228346457,
                    "duration": 0.7164180000000044
                },
                {
                    "name": "G4",
                    "midi": 67,
                    "time": 63.76120199999994,
                    "velocity": 0.5590551181102362,
                    "duration": 0.7164180000000044
                },
                {
                    "name": "G#3",
                    "midi": 56,
                    "time": 64.47761999999994,
                    "velocity": 0.6692913385826772,
                    "duration": 0.7164180000000044
                },
                {
                    "name": "G5",
                    "midi": 79,
                    "time": 65.19403799999995,
                    "velocity": 0.6535433070866141,
                    "duration": 0.7164180000000044
                },
                {
                    "name": "G4",
                    "midi": 67,
                    "time": 65.19403799999995,
                    "velocity": 0.5511811023622047,
                    "duration": 0.7164180000000044
                },
                {
                    "name": "G4",
                    "midi": 67,
                    "time": 65.91045599999995,
                    "velocity": 0.48031496062992124,
                    "duration": 0.3582090000000022
                },
                {
                    "name": "G4",
                    "midi": 67,
                    "time": 66.26866499999996,
                    "velocity": 0.4251968503937008,
                    "duration": 0.3582090000000022
                },
                {
                    "name": "G4",
                    "midi": 67,
                    "time": 66.62687399999996,
                    "velocity": 0.4015748031496063,
                    "duration": 0.3582090000000022
                },
                {
                    "name": "G4",
                    "midi": 67,
                    "time": 66.98508299999996,
                    "velocity": 0.3700787401574803,
                    "duration": 0.3582090000000022
                },
                {
                    "name": "G4",
                    "midi": 67,
                    "time": 67.34329199999996,
                    "velocity": 0.28346456692913385,
                    "duration": 0.06716418749999775
                },
                {
                    "name": "E4",
                    "midi": 64,
                    "time": 67.40299349999997,
                    "velocity": 0.2440944881889764,
                    "duration": 0.06716418749998354
                },
                {
                    "name": "G4",
                    "midi": 67,
                    "time": 67.46269499999995,
                    "velocity": 0.28346456692913385,
                    "duration": 0.06716418749998354
                },
                {
                    "name": "E4",
                    "midi": 64,
                    "time": 67.52239649999994,
                    "velocity": 0.2440944881889764,
                    "duration": 0.06716418749998354
                },
                {
                    "name": "G4",
                    "midi": 67,
                    "time": 67.58209799999993,
                    "velocity": 0.28346456692913385,
                    "duration": 0.06716418749998354
                },
                {
                    "name": "E4",
                    "midi": 64,
                    "time": 67.64179949999992,
                    "velocity": 0.2440944881889764,
                    "duration": 0.06716418749998354
                },
                {
                    "name": "G4",
                    "midi": 67,
                    "time": 67.70150099999991,
                    "velocity": 0.28346456692913385,
                    "duration": 0.06716418749998354
                },
                {
                    "name": "E4",
                    "midi": 64,
                    "time": 67.7612024999999,
                    "velocity": 0.2440944881889764,
                    "duration": 0.06716418749998354
                },
                {
                    "name": "G4",
                    "midi": 67,
                    "time": 67.82090399999989,
                    "velocity": 0.28346456692913385,
                    "duration": 0.06716418749998354
                },
                {
                    "name": "E4",
                    "midi": 64,
                    "time": 67.88060549999987,
                    "velocity": 0.25196850393700787,
                    "duration": 0.06716418749998354
                },
                {
                    "name": "G4",
                    "midi": 67,
                    "time": 67.94030699999986,
                    "velocity": 0.28346456692913385,
                    "duration": 0.06716418749998354
                },
                {
                    "name": "E4",
                    "midi": 64,
                    "time": 68.00000849999985,
                    "velocity": 0.2440944881889764,
                    "duration": 0.06716418749998354
                },
                {
                    "name": "G4",
                    "midi": 67,
                    "time": 68.05970999999984,
                    "velocity": 0.28346456692913385,
                    "duration": 0.06716418749998354
                },
                {
                    "name": "E4",
                    "midi": 64,
                    "time": 68.11941149999983,
                    "velocity": 0.2440944881889764,
                    "duration": 0.06716418749998354
                },
                {
                    "name": "G4",
                    "midi": 67,
                    "time": 68.17911299999982,
                    "velocity": 0.28346456692913385,
                    "duration": 0.06716418749998354
                },
                {
                    "name": "E4",
                    "midi": 64,
                    "time": 68.2388144999998,
                    "velocity": 0.2440944881889764,
                    "duration": 0.06716418749998354
                },
                {
                    "name": "G4",
                    "midi": 67,
                    "time": 68.2985159999998,
                    "velocity": 0.28346456692913385,
                    "duration": 0.06716418749998354
                },
                {
                    "name": "E4",
                    "midi": 64,
                    "time": 68.35821749999978,
                    "velocity": 0.23622047244094488,
                    "duration": 0.06716418749998354
                },
                {
                    "name": "G4",
                    "midi": 67,
                    "time": 68.41791899999977,
                    "velocity": 0.28346456692913385,
                    "duration": 0.06716418749998354
                },
                {
                    "name": "E4",
                    "midi": 64,
                    "time": 68.47762049999976,
                    "velocity": 0.23622047244094488,
                    "duration": 0.06716418749998354
                },
                {
                    "name": "G4",
                    "midi": 67,
                    "time": 68.53732199999975,
                    "velocity": 0.28346456692913385,
                    "duration": 0.06716418749998354
                },
                {
                    "name": "E4",
                    "midi": 64,
                    "time": 68.59702349999974,
                    "velocity": 0.25196850393700787,
                    "duration": 0.06716418749998354
                },
                {
                    "name": "G4",
                    "midi": 67,
                    "time": 68.65672499999972,
                    "velocity": 0.28346456692913385,
                    "duration": 0.06716418749998354
                },
                {
                    "name": "E4",
                    "midi": 64,
                    "time": 68.71642649999971,
                    "velocity": 0.2440944881889764,
                    "duration": 0.05970149999998853
                },
                {
                    "name": "G4",
                    "midi": 67,
                    "time": 68.7761279999997,
                    "velocity": 0.29133858267716534,
                    "duration": 0.0873134437500056
                },
                {
                    "name": "E4",
                    "midi": 64,
                    "time": 68.8358294999997,
                    "velocity": 0.25196850393700787,
                    "duration": 0.0873134437500056
                },
                {
                    "name": "G4",
                    "midi": 67,
                    "time": 68.8955309999997,
                    "velocity": 0.28346456692913385,
                    "duration": 0.0873134437500056
                },
                {
                    "name": "E4",
                    "midi": 64,
                    "time": 68.95523249999971,
                    "velocity": 0.25196850393700787,
                    "duration": 0.0873134437500056
                },
                {
                    "name": "G4",
                    "midi": 67,
                    "time": 69.01493399999971,
                    "velocity": 0.29133858267716534,
                    "duration": 0.0873134437500056
                },
                {
                    "name": "E4",
                    "midi": 64,
                    "time": 69.07463549999972,
                    "velocity": 0.2440944881889764,
                    "duration": 0.06716418749999775
                },
                {
                    "name": "G4",
                    "midi": 67,
                    "time": 69.13433699999972,
                    "velocity": 0.28346456692913385,
                    "duration": 0.06716418749998354
                },
                {
                    "name": "E4",
                    "midi": 64,
                    "time": 69.1940384999997,
                    "velocity": 0.2440944881889764,
                    "duration": 0.06716418749998354
                },
                {
                    "name": "G4",
                    "midi": 67,
                    "time": 69.2537399999997,
                    "velocity": 0.28346456692913385,
                    "duration": 0.06716418749998354
                },
                {
                    "name": "E4",
                    "midi": 64,
                    "time": 69.31344149999968,
                    "velocity": 0.25196850393700787,
                    "duration": 0.06716418749998354
                },
                {
                    "name": "G4",
                    "midi": 67,
                    "time": 69.37314299999967,
                    "velocity": 0.28346456692913385,
                    "duration": 0.06716418749998354
                },
                {
                    "name": "E4",
                    "midi": 64,
                    "time": 69.43284449999966,
                    "velocity": 0.2440944881889764,
                    "duration": 0.06716418749998354
                },
                {
                    "name": "G4",
                    "midi": 67,
                    "time": 69.49254599999965,
                    "velocity": 0.28346456692913385,
                    "duration": 0.06716418749998354
                },
                {
                    "name": "E4",
                    "midi": 64,
                    "time": 69.55224749999964,
                    "velocity": 0.2440944881889764,
                    "duration": 0.06716418749998354
                },
                {
                    "name": "G4",
                    "midi": 67,
                    "time": 69.61194899999963,
                    "velocity": 0.28346456692913385,
                    "duration": 0.06716418749998354
                },
                {
                    "name": "E4",
                    "midi": 64,
                    "time": 69.67165049999961,
                    "velocity": 0.2440944881889764,
                    "duration": 0.06716418749998354
                },
                {
                    "name": "G4",
                    "midi": 67,
                    "time": 69.7313519999996,
                    "velocity": 0.28346456692913385,
                    "duration": 0.06716418749998354
                },
                {
                    "name": "E4",
                    "midi": 64,
                    "time": 69.79105349999959,
                    "velocity": 0.23622047244094488,
                    "duration": 0.06716418749998354
                },
                {
                    "name": "G4",
                    "midi": 67,
                    "time": 69.85075499999958,
                    "velocity": 0.28346456692913385,
                    "duration": 0.06716418749998354
                },
                {
                    "name": "E4",
                    "midi": 64,
                    "time": 69.91045649999957,
                    "velocity": 0.23622047244094488,
                    "duration": 0.06716418749998354
                },
                {
                    "name": "G4",
                    "midi": 67,
                    "time": 69.97015799999956,
                    "velocity": 0.28346456692913385,
                    "duration": 0.06716418749998354
                },
                {
                    "name": "E4",
                    "midi": 64,
                    "time": 70.02985949999955,
                    "velocity": 0.25196850393700787,
                    "duration": 0.06716418749998354
                },
                {
                    "name": "G4",
                    "midi": 67,
                    "time": 70.08956099999953,
                    "velocity": 0.28346456692913385,
                    "duration": 0.06716418749998354
                },
                {
                    "name": "E4",
                    "midi": 64,
                    "time": 70.14926249999952,
                    "velocity": 0.2440944881889764,
                    "duration": 0.05970149999998853
                },
                {
                    "name": "G4",
                    "midi": 67,
                    "time": 70.20896399999951,
                    "velocity": 0.30708661417322836,
                    "duration": 0.06716418749999775
                },
                {
                    "name": "E4",
                    "midi": 64,
                    "time": 70.26866549999951,
                    "velocity": 0.25984251968503935,
                    "duration": 0.06716418749998354
                },
                {
                    "name": "G4",
                    "midi": 67,
                    "time": 70.3283669999995,
                    "velocity": 0.2992125984251969,
                    "duration": 0.06716418749998354
                },
                {
                    "name": "E4",
                    "midi": 64,
                    "time": 70.38806849999949,
                    "velocity": 0.25984251968503935,
                    "duration": 0.06716418749998354
                },
                {
                    "name": "G4",
                    "midi": 67,
                    "time": 70.44776999999948,
                    "velocity": 0.2992125984251969,
                    "duration": 0.06716418749998354
                },
                {
                    "name": "E4",
                    "midi": 64,
                    "time": 70.50747149999947,
                    "velocity": 0.2677165354330709,
                    "duration": 0.06716418749998354
                },
                {
                    "name": "G4",
                    "midi": 67,
                    "time": 70.56717299999946,
                    "velocity": 0.28346456692913385,
                    "duration": 0.06716418749998354
                },
                {
                    "name": "E4",
                    "midi": 64,
                    "time": 70.62687449999945,
                    "velocity": 0.2440944881889764,
                    "duration": 0.06716418749998354
                },
                {
                    "name": "G4",
                    "midi": 67,
                    "time": 70.68657599999943,
                    "velocity": 0.28346456692913385,
                    "duration": 0.06716418749998354
                },
                {
                    "name": "E4",
                    "midi": 64,
                    "time": 70.74627749999942,
                    "velocity": 0.25196850393700787,
                    "duration": 0.06716418749998354
                },
                {
                    "name": "G4",
                    "midi": 67,
                    "time": 70.80597899999941,
                    "velocity": 0.28346456692913385,
                    "duration": 0.06716418749998354
                },
                {
                    "name": "E4",
                    "midi": 64,
                    "time": 70.8656804999994,
                    "velocity": 0.2440944881889764,
                    "duration": 0.06716418749998354
                },
                {
                    "name": "G4",
                    "midi": 67,
                    "time": 70.92538199999939,
                    "velocity": 0.28346456692913385,
                    "duration": 0.06716418749998354
                },
                {
                    "name": "E4",
                    "midi": 64,
                    "time": 70.98508349999938,
                    "velocity": 0.2440944881889764,
                    "duration": 0.06716418749998354
                },
                {
                    "name": "G4",
                    "midi": 67,
                    "time": 71.04478499999937,
                    "velocity": 0.28346456692913385,
                    "duration": 0.06716418749998354
                },
                {
                    "name": "E4",
                    "midi": 64,
                    "time": 71.10448649999935,
                    "velocity": 0.2440944881889764,
                    "duration": 0.06716418749998354
                },
                {
                    "name": "G4",
                    "midi": 67,
                    "time": 71.16418799999934,
                    "velocity": 0.28346456692913385,
                    "duration": 0.06716418749998354
                },
                {
                    "name": "E4",
                    "midi": 64,
                    "time": 71.22388949999933,
                    "velocity": 0.23622047244094488,
                    "duration": 0.06716418749998354
                },
                {
                    "name": "G4",
                    "midi": 67,
                    "time": 71.28359099999932,
                    "velocity": 0.28346456692913385,
                    "duration": 0.06716418749998354
                },
                {
                    "name": "E4",
                    "midi": 64,
                    "time": 71.34329249999931,
                    "velocity": 0.23622047244094488,
                    "duration": 0.06716418749998354
                },
                {
                    "name": "G4",
                    "midi": 67,
                    "time": 71.4029939999993,
                    "velocity": 0.28346456692913385,
                    "duration": 0.06716418749998354
                },
                {
                    "name": "E4",
                    "midi": 64,
                    "time": 71.46269549999928,
                    "velocity": 0.25196850393700787,
                    "duration": 0.06716418749998354
                },
                {
                    "name": "G4",
                    "midi": 67,
                    "time": 71.52239699999927,
                    "velocity": 0.28346456692913385,
                    "duration": 0.06716418749998354
                },
                {
                    "name": "E4",
                    "midi": 64,
                    "time": 71.58209849999926,
                    "velocity": 0.2440944881889764,
                    "duration": 0.05970149999998853
                },
                {
                    "name": "G4",
                    "midi": 67,
                    "time": 71.64179999999925,
                    "velocity": 0.28346456692913385,
                    "duration": 0.06716418749999775
                },
                {
                    "name": "E4",
                    "midi": 64,
                    "time": 71.70150149999925,
                    "velocity": 0.2440944881889764,
                    "duration": 0.06716418749998354
                },
                {
                    "name": "G4",
                    "midi": 67,
                    "time": 71.76120299999924,
                    "velocity": 0.28346456692913385,
                    "duration": 0.06716418749998354
                },
                {
                    "name": "E4",
                    "midi": 64,
                    "time": 71.82090449999923,
                    "velocity": 0.2440944881889764,
                    "duration": 0.06716418749998354
                },
                {
                    "name": "G4",
                    "midi": 67,
                    "time": 71.88060599999922,
                    "velocity": 0.28346456692913385,
                    "duration": 0.06716418749998354
                },
                {
                    "name": "E4",
                    "midi": 64,
                    "time": 71.94030749999921,
                    "velocity": 0.2440944881889764,
                    "duration": 0.06716418749998354
                },
                {
                    "name": "G4",
                    "midi": 67,
                    "time": 72.0000089999992,
                    "velocity": 0.28346456692913385,
                    "duration": 0.06716418749998354
                },
                {
                    "name": "E4",
                    "midi": 64,
                    "time": 72.05971049999918,
                    "velocity": 0.2440944881889764,
                    "duration": 0.06716418749998354
                },
                {
                    "name": "G4",
                    "midi": 67,
                    "time": 72.11941199999917,
                    "velocity": 0.28346456692913385,
                    "duration": 0.06716418749998354
                },
                {
                    "name": "E4",
                    "midi": 64,
                    "time": 72.17911349999916,
                    "velocity": 0.25196850393700787,
                    "duration": 0.06716418749998354
                },
                {
                    "name": "G4",
                    "midi": 67,
                    "time": 72.23881499999915,
                    "velocity": 0.28346456692913385,
                    "duration": 0.06716418749998354
                },
                {
                    "name": "E4",
                    "midi": 64,
                    "time": 72.29851649999914,
                    "velocity": 0.2440944881889764,
                    "duration": 0.06716418749998354
                },
                {
                    "name": "G4",
                    "midi": 67,
                    "time": 72.35821799999913,
                    "velocity": 0.28346456692913385,
                    "duration": 0.06716418749998354
                },
                {
                    "name": "E4",
                    "midi": 64,
                    "time": 72.41791949999912,
                    "velocity": 0.2440944881889764,
                    "duration": 0.06716418749998354
                },
                {
                    "name": "G4",
                    "midi": 67,
                    "time": 72.4776209999991,
                    "velocity": 0.28346456692913385,
                    "duration": 0.06716418749998354
                },
                {
                    "name": "E4",
                    "midi": 64,
                    "time": 72.53732249999909,
                    "velocity": 0.2440944881889764,
                    "duration": 0.06716418749998354
                },
                {
                    "name": "G4",
                    "midi": 67,
                    "time": 72.59702399999908,
                    "velocity": 0.28346456692913385,
                    "duration": 0.06716418749998354
                },
                {
                    "name": "E4",
                    "midi": 64,
                    "time": 72.65672549999907,
                    "velocity": 0.23622047244094488,
                    "duration": 0.05970149999998853
                },
                {
                    "name": "G4",
                    "midi": 67,
                    "time": 72.71642699999906,
                    "velocity": 0.2992125984251969,
                    "duration": 0.0873134437500056
                },
                {
                    "name": "E4",
                    "midi": 64,
                    "time": 72.77612849999906,
                    "velocity": 0.2755905511811024,
                    "duration": 0.0873134437500056
                },
                {
                    "name": "G4",
                    "midi": 67,
                    "time": 72.83582999999906,
                    "velocity": 0.2992125984251969,
                    "duration": 0.0873134437500056
                },
                {
                    "name": "E4",
                    "midi": 64,
                    "time": 72.89553149999907,
                    "velocity": 0.25196850393700787,
                    "duration": 0.0873134437500056
                },
                {
                    "name": "G4",
                    "midi": 67,
                    "time": 72.95523299999907,
                    "velocity": 0.28346456692913385,
                    "duration": 0.0873134437500056
                },
                {
                    "name": "E4",
                    "midi": 64,
                    "time": 73.01493449999907,
                    "velocity": 0.2440944881889764,
                    "duration": 0.089552249999997
                },
                {
                    "name": "G4",
                    "midi": 67,
                    "time": 73.07463599999907,
                    "velocity": 0.31496062992125984,
                    "duration": 0.06716418749998354
                },
                {
                    "name": "E4",
                    "midi": 64,
                    "time": 73.13433749999906,
                    "velocity": 0.28346456692913385,
                    "duration": 0.06716418749998354
                },
                {
                    "name": "G4",
                    "midi": 67,
                    "time": 73.19403899999905,
                    "velocity": 0.30708661417322836,
                    "duration": 0.06716418749998354
                },
                {
                    "name": "E4",
                    "midi": 64,
                    "time": 73.25374049999904,
                    "velocity": 0.2677165354330709,
                    "duration": 0.06716418749998354
                },
                {
                    "name": "G4",
                    "midi": 67,
                    "time": 73.31344199999903,
                    "velocity": 0.30708661417322836,
                    "duration": 0.06716418749998354
                },
                {
                    "name": "E4",
                    "midi": 64,
                    "time": 73.37314349999902,
                    "velocity": 0.25984251968503935,
                    "duration": 0.06716418749998354
                },
                {
                    "name": "G4",
                    "midi": 67,
                    "time": 73.432844999999,
                    "velocity": 0.2992125984251969,
                    "duration": 0.08731344374999139
                },
                {
                    "name": "E4",
                    "midi": 64,
                    "time": 73.492546499999,
                    "velocity": 0.25196850393700787,
                    "duration": 0.0873134437500056
                },
                {
                    "name": "G4",
                    "midi": 67,
                    "time": 73.552247999999,
                    "velocity": 0.28346456692913385,
                    "duration": 0.0873134437500056
                },
                {
                    "name": "E4",
                    "midi": 64,
                    "time": 73.611949499999,
                    "velocity": 0.25196850393700787,
                    "duration": 0.0873134437500056
                },
                {
                    "name": "G4",
                    "midi": 67,
                    "time": 73.671650999999,
                    "velocity": 0.28346456692913385,
                    "duration": 0.0873134437500056
                },
                {
                    "name": "E4",
                    "midi": 64,
                    "time": 73.731352499999,
                    "velocity": 0.2440944881889764,
                    "duration": 0.07761195000000498
                },
                {
                    "name": "F#4",
                    "midi": 66,
                    "time": 73.79105399999901,
                    "velocity": 0.29133858267716534,
                    "duration": 0.0873134437500056
                },
                {
                    "name": "D#4",
                    "midi": 63,
                    "time": 73.85075549999901,
                    "velocity": 0.25196850393700787,
                    "duration": 0.0873134437500056
                },
                {
                    "name": "F#4",
                    "midi": 66,
                    "time": 73.91045699999901,
                    "velocity": 0.28346456692913385,
                    "duration": 0.0873134437500056
                },
                {
                    "name": "D#4",
                    "midi": 63,
                    "time": 73.97015849999902,
                    "velocity": 0.25196850393700787,
                    "duration": 0.0873134437500056
                },
                {
                    "name": "F#4",
                    "midi": 66,
                    "time": 74.02985999999902,
                    "velocity": 0.29133858267716534,
                    "duration": 0.0873134437500056
                },
                {
                    "name": "D#4",
                    "midi": 63,
                    "time": 74.08956149999902,
                    "velocity": 0.2440944881889764,
                    "duration": 0.06716418749999775
                },
                {
                    "name": "F#4",
                    "midi": 66,
                    "time": 74.14926299999902,
                    "velocity": 0.2677165354330709,
                    "duration": 0.06716418749998354
                },
                {
                    "name": "D#4",
                    "midi": 63,
                    "time": 74.20896449999901,
                    "velocity": 0.2283464566929134,
                    "duration": 0.06716418749998354
                },
                {
                    "name": "F#4",
                    "midi": 66,
                    "time": 74.268665999999,
                    "velocity": 0.2677165354330709,
                    "duration": 0.06716418749998354
                },
                {
                    "name": "D#4",
                    "midi": 63,
                    "time": 74.32836749999899,
                    "velocity": 0.23622047244094488,
                    "duration": 0.06716418749998354
                },
                {
                    "name": "F#4",
                    "midi": 66,
                    "time": 74.38806899999898,
                    "velocity": 0.25984251968503935,
                    "duration": 0.06716418749998354
                },
                {
                    "name": "D#4",
                    "midi": 63,
                    "time": 74.44777049999897,
                    "velocity": 0.2204724409448819,
                    "duration": 0.06716418749998354
                },
                {
                    "name": "F#4",
                    "midi": 66,
                    "time": 74.50747199999896,
                    "velocity": 0.25984251968503935,
                    "duration": 0.06716418749998354
                },
                {
                    "name": "D#4",
                    "midi": 63,
                    "time": 74.56717349999894,
                    "velocity": 0.2204724409448819,
                    "duration": 0.06716418749998354
                },
                {
                    "name": "F#4",
                    "midi": 66,
                    "time": 74.62687499999893,
                    "velocity": 0.25984251968503935,
                    "duration": 0.06716418749998354
                },
                {
                    "name": "D#4",
                    "midi": 63,
                    "time": 74.68657649999892,
                    "velocity": 0.2204724409448819,
                    "duration": 0.06716418749998354
                },
                {
                    "name": "F#4",
                    "midi": 66,
                    "time": 74.74627799999891,
                    "velocity": 0.25984251968503935,
                    "duration": 0.06716418749998354
                },
                {
                    "name": "D#4",
                    "midi": 63,
                    "time": 74.8059794999989,
                    "velocity": 0.2125984251968504,
                    "duration": 0.06716418749998354
                },
                {
                    "name": "F#4",
                    "midi": 66,
                    "time": 74.86568099999889,
                    "velocity": 0.25196850393700787,
                    "duration": 0.06716418749998354
                },
                {
                    "name": "D#4",
                    "midi": 63,
                    "time": 74.92538249999888,
                    "velocity": 0.2125984251968504,
                    "duration": 0.06716418749998354
                },
                {
                    "name": "F#4",
                    "midi": 66,
                    "time": 74.98508399999886,
                    "velocity": 0.25196850393700787,
                    "duration": 0.06716418749998354
                },
                {
                    "name": "D#4",
                    "midi": 63,
                    "time": 75.04478549999885,
                    "velocity": 0.2204724409448819,
                    "duration": 0.06716418749998354
                },
                {
                    "name": "F#4",
                    "midi": 66,
                    "time": 75.10448699999884,
                    "velocity": 0.25196850393700787,
                    "duration": 0.06716418749998354
                },
                {
                    "name": "D#4",
                    "midi": 63,
                    "time": 75.16418849999883,
                    "velocity": 0.2125984251968504,
                    "duration": 0.05970149999998853
                },
                {
                    "name": "F#4",
                    "midi": 66,
                    "time": 75.22388999999882,
                    "velocity": 0.30708661417322836,
                    "duration": 0.0873134437500056
                },
                {
                    "name": "D#4",
                    "midi": 63,
                    "time": 75.28359149999882,
                    "velocity": 0.25984251968503935,
                    "duration": 0.0873134437500056
                },
                {
                    "name": "F#4",
                    "midi": 66,
                    "time": 75.34329299999882,
                    "velocity": 0.2992125984251969,
                    "duration": 0.0873134437500056
                },
                {
                    "name": "D#4",
                    "midi": 63,
                    "time": 75.40299449999883,
                    "velocity": 0.25984251968503935,
                    "duration": 0.0873134437500056
                },
                {
                    "name": "F#4",
                    "midi": 66,
                    "time": 75.46269599999883,
                    "velocity": 0.2992125984251969,
                    "duration": 0.0873134437500056
                },
                {
                    "name": "D#4",
                    "midi": 63,
                    "time": 75.52239749999883,
                    "velocity": 0.2677165354330709,
                    "duration": 0.06716418749999775
                },
                {
                    "name": "F#4",
                    "midi": 66,
                    "time": 75.58209899999883,
                    "velocity": 0.2677165354330709,
                    "duration": 0.06716418749998354
                },
                {
                    "name": "D#4",
                    "midi": 63,
                    "time": 75.64180049999882,
                    "velocity": 0.2283464566929134,
                    "duration": 0.06716418749998354
                },
                {
                    "name": "F#4",
                    "midi": 66,
                    "time": 75.70150199999881,
                    "velocity": 0.2677165354330709,
                    "duration": 0.06716418749998354
                },
                {
                    "name": "D#4",
                    "midi": 63,
                    "time": 75.7612034999988,
                    "velocity": 0.23622047244094488,
                    "duration": 0.06716418749998354
                },
                {
                    "name": "F#4",
                    "midi": 66,
                    "time": 75.82090499999879,
                    "velocity": 0.25984251968503935,
                    "duration": 0.06716418749998354
                },
                {
                    "name": "D#4",
                    "midi": 63,
                    "time": 75.88060649999878,
                    "velocity": 0.2204724409448819,
                    "duration": 0.06716418749998354
                },
                {
                    "name": "F#4",
                    "midi": 66,
                    "time": 75.94030799999877,
                    "velocity": 0.25984251968503935,
                    "duration": 0.06716418749998354
                },
                {
                    "name": "D#4",
                    "midi": 63,
                    "time": 76.00000949999875,
                    "velocity": 0.2204724409448819,
                    "duration": 0.06716418749998354
                },
                {
                    "name": "F#4",
                    "midi": 66,
                    "time": 76.05971099999874,
                    "velocity": 0.25984251968503935,
                    "duration": 0.06716418749998354
                },
                {
                    "name": "D#4",
                    "midi": 63,
                    "time": 76.11941249999873,
                    "velocity": 0.2204724409448819,
                    "duration": 0.06716418749998354
                },
                {
                    "name": "F#4",
                    "midi": 66,
                    "time": 76.17911399999872,
                    "velocity": 0.25984251968503935,
                    "duration": 0.06716418749998354
                },
                {
                    "name": "D#4",
                    "midi": 63,
                    "time": 76.23881549999871,
                    "velocity": 0.2125984251968504,
                    "duration": 0.06716418749998354
                },
                {
                    "name": "F#4",
                    "midi": 66,
                    "time": 76.2985169999987,
                    "velocity": 0.25196850393700787,
                    "duration": 0.06716418749998354
                },
                {
                    "name": "D#4",
                    "midi": 63,
                    "time": 76.35821849999869,
                    "velocity": 0.2125984251968504,
                    "duration": 0.06716418749998354
                },
                {
                    "name": "F#4",
                    "midi": 66,
                    "time": 76.41791999999867,
                    "velocity": 0.25196850393700787,
                    "duration": 0.06716418749998354
                },
                {
                    "name": "D#4",
                    "midi": 63,
                    "time": 76.47762149999866,
                    "velocity": 0.2204724409448819,
                    "duration": 0.06716418749998354
                },
                {
                    "name": "F#4",
                    "midi": 66,
                    "time": 76.53732299999865,
                    "velocity": 0.25196850393700787,
                    "duration": 0.06716418749998354
                },
                {
                    "name": "D#4",
                    "midi": 63,
                    "time": 76.59702449999864,
                    "velocity": 0.2125984251968504,
                    "duration": 0.05970149999998853
                },
                {
                    "name": "F4",
                    "midi": 65,
                    "time": 76.65672599999863,
                    "velocity": 0.28346456692913385,
                    "duration": 0.0873134437500056
                },
                {
                    "name": "D4",
                    "midi": 62,
                    "time": 76.71642749999863,
                    "velocity": 0.2440944881889764,
                    "duration": 0.0873134437500056
                },
                {
                    "name": "F4",
                    "midi": 65,
                    "time": 76.77612899999863,
                    "velocity": 0.28346456692913385,
                    "duration": 0.0873134437500056
                },
                {
                    "name": "D4",
                    "midi": 62,
                    "time": 76.83583049999864,
                    "velocity": 0.2440944881889764,
                    "duration": 0.0873134437500056
                },
                {
                    "name": "F4",
                    "midi": 65,
                    "time": 76.89553199999864,
                    "velocity": 0.28346456692913385,
                    "duration": 0.0873134437500056
                },
                {
                    "name": "D4",
                    "midi": 62,
                    "time": 76.95523349999864,
                    "velocity": 0.2440944881889764,
                    "duration": 0.0873134437500056
                },
                {
                    "name": "F4",
                    "midi": 65,
                    "time": 77.01493499999864,
                    "velocity": 0.28346456692913385,
                    "duration": 0.0873134437500056
                },
                {
                    "name": "D4",
                    "midi": 62,
                    "time": 77.07463649999865,
                    "velocity": 0.2440944881889764,
                    "duration": 0.0873134437500056
                },
                {
                    "name": "F4",
                    "midi": 65,
                    "time": 77.13433799999865,
                    "velocity": 0.28346456692913385,
                    "duration": 0.0873134437500056
                },
                {
                    "name": "D4",
                    "midi": 62,
                    "time": 77.19403949999865,
                    "velocity": 0.25196850393700787,
                    "duration": 0.0873134437500056
                },
                {
                    "name": "F4",
                    "midi": 65,
                    "time": 77.25374099999866,
                    "velocity": 0.28346456692913385,
                    "duration": 0.0873134437500056
                },
                {
                    "name": "D4",
                    "midi": 62,
                    "time": 77.31344249999866,
                    "velocity": 0.2440944881889764,
                    "duration": 0.06716418749999775
                },
                {
                    "name": "F4",
                    "midi": 65,
                    "time": 77.37314399999866,
                    "velocity": 0.28346456692913385,
                    "duration": 0.06716418749998354
                },
                {
                    "name": "D4",
                    "midi": 62,
                    "time": 77.43284549999865,
                    "velocity": 0.2440944881889764,
                    "duration": 0.06716418749998354
                },
                {
                    "name": "F4",
                    "midi": 65,
                    "time": 77.49254699999864,
                    "velocity": 0.28346456692913385,
                    "duration": 0.06716418749998354
                },
                {
                    "name": "D4",
                    "midi": 62,
                    "time": 77.55224849999863,
                    "velocity": 0.2440944881889764,
                    "duration": 0.06716418749998354
                },
                {
                    "name": "F4",
                    "midi": 65,
                    "time": 77.61194999999861,
                    "velocity": 0.28346456692913385,
                    "duration": 0.06716418749998354
                },
                {
                    "name": "D4",
                    "midi": 62,
                    "time": 77.6716514999986,
                    "velocity": 0.23622047244094488,
                    "duration": 0.05970149999998853
                },
                {
                    "name": "F4",
                    "midi": 65,
                    "time": 77.73135299999859,
                    "velocity": 0.2992125984251969,
                    "duration": 0.0873134437500056
                },
                {
                    "name": "D4",
                    "midi": 62,
                    "time": 77.7910544999986,
                    "velocity": 0.2755905511811024,
                    "duration": 0.0873134437500056
                },
                {
                    "name": "F4",
                    "midi": 65,
                    "time": 77.8507559999986,
                    "velocity": 0.2992125984251969,
                    "duration": 0.0873134437500056
                },
                {
                    "name": "D4",
                    "midi": 62,
                    "time": 77.9104574999986,
                    "velocity": 0.25196850393700787,
                    "duration": 0.0873134437500056
                },
                {
                    "name": "F4",
                    "midi": 65,
                    "time": 77.9701589999986,
                    "velocity": 0.28346456692913385,
                    "duration": 0.0873134437500056
                },
                {
                    "name": "D4",
                    "midi": 62,
                    "time": 78.0298604999986,
                    "velocity": 0.2440944881889764,
                    "duration": 0.06716418749999775
                },
                {
                    "name": "F4",
                    "midi": 65,
                    "time": 78.08956199999861,
                    "velocity": 0.31496062992125984,
                    "duration": 0.06716418749998354
                },
                {
                    "name": "D4",
                    "midi": 62,
                    "time": 78.1492634999986,
                    "velocity": 0.28346456692913385,
                    "duration": 0.06716418749998354
                },
                {
                    "name": "F4",
                    "midi": 65,
                    "time": 78.20896499999859,
                    "velocity": 0.30708661417322836,
                    "duration": 0.06716418749998354
                },
                {
                    "name": "D4",
                    "midi": 62,
                    "time": 78.26866649999857,
                    "velocity": 0.2677165354330709,
                    "duration": 0.06716418749998354
                },
                {
                    "name": "F4",
                    "midi": 65,
                    "time": 78.32836799999856,
                    "velocity": 0.30708661417322836,
                    "duration": 0.06716418749998354
                },
                {
                    "name": "D4",
                    "midi": 62,
                    "time": 78.38806949999855,
                    "velocity": 0.25984251968503935,
                    "duration": 0.05970149999998853
                },
                {
                    "name": "F4",
                    "midi": 65,
                    "time": 78.44777099999854,
                    "velocity": 0.2992125984251969,
                    "duration": 0.0873134437500056
                },
                {
                    "name": "D4",
                    "midi": 62,
                    "time": 78.50747249999854,
                    "velocity": 0.25196850393700787,
                    "duration": 0.0873134437500056
                },
                {
                    "name": "F4",
                    "midi": 65,
                    "time": 78.56717399999854,
                    "velocity": 0.28346456692913385,
                    "duration": 0.0873134437500056
                },
                {
                    "name": "D4",
                    "midi": 62,
                    "time": 78.62687549999855,
                    "velocity": 0.25196850393700787,
                    "duration": 0.0873134437500056
                },
                {
                    "name": "F4",
                    "midi": 65,
                    "time": 78.68657699999855,
                    "velocity": 0.28346456692913385,
                    "duration": 0.0873134437500056
                },
                {
                    "name": "D4",
                    "midi": 62,
                    "time": 78.74627849999855,
                    "velocity": 0.2440944881889764,
                    "duration": 0.06716418749999775
                },
                {
                    "name": "E4",
                    "midi": 64,
                    "time": 78.80597999999856,
                    "velocity": 0.29133858267716534,
                    "duration": 0.06716418749998354
                },
                {
                    "name": "C#4",
                    "midi": 61,
                    "time": 78.86568149999854,
                    "velocity": 0.25196850393700787,
                    "duration": 0.06716418749998354
                },
                {
                    "name": "E4",
                    "midi": 64,
                    "time": 78.92538299999853,
                    "velocity": 0.28346456692913385,
                    "duration": 0.06716418749998354
                },
                {
                    "name": "C#4",
                    "midi": 61,
                    "time": 78.98508449999852,
                    "velocity": 0.25196850393700787,
                    "duration": 0.06716418749998354
                },
                {
                    "name": "E4",
                    "midi": 64,
                    "time": 79.04478599999851,
                    "velocity": 0.29133858267716534,
                    "duration": 0.06716418749998354
                },
                {
                    "name": "C#4",
                    "midi": 61,
                    "time": 79.1044874999985,
                    "velocity": 0.2440944881889764,
                    "duration": 0.05970149999998853
                },
                {
                    "name": "D#4",
                    "midi": 63,
                    "time": 79.16418899999849,
                    "velocity": 0.28346456692913385,
                    "duration": 0.06716418749999775
                },
                {
                    "name": "B3",
                    "midi": 59,
                    "time": 79.22389049999849,
                    "velocity": 0.2440944881889764,
                    "duration": 0.06716418749998354
                },
                {
                    "name": "D#4",
                    "midi": 63,
                    "time": 79.28359199999848,
                    "velocity": 0.28346456692913385,
                    "duration": 0.06716418749998354
                },
                {
                    "name": "B3",
                    "midi": 59,
                    "time": 79.34329349999847,
                    "velocity": 0.25196850393700787,
                    "duration": 0.06716418749998354
                },
                {
                    "name": "D#4",
                    "midi": 63,
                    "time": 79.40299499999846,
                    "velocity": 0.28346456692913385,
                    "duration": 0.06716418749998354
                },
                {
                    "name": "B3",
                    "midi": 59,
                    "time": 79.46269649999844,
                    "velocity": 0.2440944881889764,
                    "duration": 0.05970149999998853
                },
                {
                    "name": "A5",
                    "midi": 81,
                    "time": 79.52239799999843,
                    "velocity": 0.4251968503937008,
                    "duration": 0.3582090000000022
                },
                {
                    "name": "A4",
                    "midi": 69,
                    "time": 79.52239799999843,
                    "velocity": 0.3858267716535433,
                    "duration": 0.3582090000000022
                },
                {
                    "name": "E5",
                    "midi": 76,
                    "time": 79.88060699999843,
                    "velocity": 0.41732283464566927,
                    "duration": 0.179104499999994
                },
                {
                    "name": "E6",
                    "midi": 88,
                    "time": 79.88060699999843,
                    "velocity": 0.44881889763779526,
                    "duration": 0.179104499999994
                },
                {
                    "name": "B3",
                    "midi": 59,
                    "time": 80.23881599999842,
                    "velocity": 0.29133858267716534,
                    "duration": 0.06716418749999775
                },
                {
                    "name": "G#3",
                    "midi": 56,
                    "time": 80.29851749999843,
                    "velocity": 0.25196850393700787,
                    "duration": 0.06716418749998354
                },
                {
                    "name": "B3",
                    "midi": 59,
                    "time": 80.35821899999841,
                    "velocity": 0.28346456692913385,
                    "duration": 0.06716418749998354
                },
                {
                    "name": "G#3",
                    "midi": 56,
                    "time": 80.4179204999984,
                    "velocity": 0.25196850393700787,
                    "duration": 0.06716418749998354
                },
                {
                    "name": "B3",
                    "midi": 59,
                    "time": 80.47762199999839,
                    "velocity": 0.29133858267716534,
                    "duration": 0.06716418749998354
                },
                {
                    "name": "G#3",
                    "midi": 56,
                    "time": 80.53732349999838,
                    "velocity": 0.2440944881889764,
                    "duration": 0.05970149999998853
                },
                {
                    "name": "A#3",
                    "midi": 58,
                    "time": 80.59702499999837,
                    "velocity": 0.28346456692913385,
                    "duration": 0.06716418749999775
                },
                {
                    "name": "G3",
                    "midi": 55,
                    "time": 80.65672649999837,
                    "velocity": 0.2440944881889764,
                    "duration": 0.06716418749998354
                },
                {
                    "name": "A#3",
                    "midi": 58,
                    "time": 80.71642799999836,
                    "velocity": 0.28346456692913385,
                    "duration": 0.06716418749998354
                },
                {
                    "name": "G3",
                    "midi": 55,
                    "time": 80.77612949999835,
                    "velocity": 0.25196850393700787,
                    "duration": 0.06716418749998354
                },
                {
                    "name": "A#3",
                    "midi": 58,
                    "time": 80.83583099999834,
                    "velocity": 0.28346456692913385,
                    "duration": 0.06716418749998354
                },
                {
                    "name": "G3",
                    "midi": 55,
                    "time": 80.89553249999832,
                    "velocity": 0.2440944881889764,
                    "duration": 0.05970149999998853
                },
                {
                    "name": "A4",
                    "midi": 69,
                    "time": 80.95523399999831,
                    "velocity": 0.3858267716535433,
                    "duration": 0.3582090000000022
                },
                {
                    "name": "A5",
                    "midi": 81,
                    "time": 80.95523399999831,
                    "velocity": 0.4251968503937008,
                    "duration": 0.3582090000000022
                },
                {
                    "name": "E6",
                    "midi": 88,
                    "time": 81.31344299999832,
                    "velocity": 0.44881889763779526,
                    "duration": 0.179104499999994
                },
                {
                    "name": "E5",
                    "midi": 76,
                    "time": 81.31344299999832,
                    "velocity": 0.41732283464566927,
                    "duration": 0.179104499999994
                },
                {
                    "name": "G3",
                    "midi": 55,
                    "time": 81.6716519999983,
                    "velocity": 0.29133858267716534,
                    "duration": 0.06716418749999775
                },
                {
                    "name": "D#3",
                    "midi": 51,
                    "time": 81.7313534999983,
                    "velocity": 0.25196850393700787,
                    "duration": 0.06716418749998354
                },
                {
                    "name": "G3",
                    "midi": 55,
                    "time": 81.7910549999983,
                    "velocity": 0.28346456692913385,
                    "duration": 0.06716418749998354
                },
                {
                    "name": "D#3",
                    "midi": 51,
                    "time": 81.85075649999828,
                    "velocity": 0.25196850393700787,
                    "duration": 0.06716418749998354
                },
                {
                    "name": "G3",
                    "midi": 55,
                    "time": 81.91045799999827,
                    "velocity": 0.29133858267716534,
                    "duration": 0.06716418749998354
                },
                {
                    "name": "D#3",
                    "midi": 51,
                    "time": 81.97015949999826,
                    "velocity": 0.2440944881889764,
                    "duration": 0.05970149999998853
                },
                {
                    "name": "F#3",
                    "midi": 54,
                    "time": 82.02986099999825,
                    "velocity": 0.28346456692913385,
                    "duration": 0.06716418749999775
                },
                {
                    "name": "D3",
                    "midi": 50,
                    "time": 82.08956249999825,
                    "velocity": 0.2440944881889764,
                    "duration": 0.06716418749998354
                },
                {
                    "name": "F#3",
                    "midi": 54,
                    "time": 82.14926399999824,
                    "velocity": 0.28346456692913385,
                    "duration": 0.06716418749998354
                },
                {
                    "name": "D3",
                    "midi": 50,
                    "time": 82.20896549999823,
                    "velocity": 0.25196850393700787,
                    "duration": 0.06716418749998354
                },
                {
                    "name": "F#3",
                    "midi": 54,
                    "time": 82.26866699999822,
                    "velocity": 0.28346456692913385,
                    "duration": 0.06716418749998354
                },
                {
                    "name": "D3",
                    "midi": 50,
                    "time": 82.3283684999982,
                    "velocity": 0.2440944881889764,
                    "duration": 0.05970149999998853
                },
                {
                    "name": "A4",
                    "midi": 69,
                    "time": 82.3880699999982,
                    "velocity": 0.3858267716535433,
                    "duration": 0.3582090000000022
                },
                {
                    "name": "A5",
                    "midi": 81,
                    "time": 82.3880699999982,
                    "velocity": 0.4251968503937008,
                    "duration": 0.3582090000000022
                },
                {
                    "name": "E6",
                    "midi": 88,
                    "time": 82.7462789999982,
                    "velocity": 0.44881889763779526,
                    "duration": 0.179104499999994
                },
                {
                    "name": "E5",
                    "midi": 76,
                    "time": 82.7462789999982,
                    "velocity": 0.41732283464566927,
                    "duration": 0.179104499999994
                },
                {
                    "name": "G4",
                    "midi": 67,
                    "time": 83.46269699999819,
                    "velocity": 0.25196850393700787,
                    "duration": 0.06716418749999775
                },
                {
                    "name": "D#4",
                    "midi": 63,
                    "time": 83.52239849999819,
                    "velocity": 0.2125984251968504,
                    "duration": 0.06716418749998354
                },
                {
                    "name": "G4",
                    "midi": 67,
                    "time": 83.58209999999818,
                    "velocity": 0.25196850393700787,
                    "duration": 0.06716418749998354
                },
                {
                    "name": "D#4",
                    "midi": 63,
                    "time": 83.64180149999817,
                    "velocity": 0.2125984251968504,
                    "duration": 0.06716418749998354
                },
                {
                    "name": "G4",
                    "midi": 67,
                    "time": 83.70150299999816,
                    "velocity": 0.25984251968503935,
                    "duration": 0.06716418749998354
                },
                {
                    "name": "D#4",
                    "midi": 63,
                    "time": 83.76120449999814,
                    "velocity": 0.2125984251968504,
                    "duration": 0.05970149999998853
                },
                {
                    "name": "G4",
                    "midi": 67,
                    "time": 83.82090599999813,
                    "velocity": 0.28346456692913385,
                    "duration": 0.05970150000000274
                },
                {
                    "name": "E4",
                    "midi": 64,
                    "time": 83.86568212499813,
                    "velocity": 0.2440944881889764,
                    "duration": 0.05970150000000274
                },
                {
                    "name": "G4",
                    "midi": 67,
                    "time": 83.91045824999813,
                    "velocity": 0.28346456692913385,
                    "duration": 0.05970150000000274
                },
                {
                    "name": "E4",
                    "midi": 64,
                    "time": 83.95523437499813,
                    "velocity": 0.25196850393700787,
                    "duration": 0.05970150000000274
                },
                {
                    "name": "G4",
                    "midi": 67,
                    "time": 84.00001049999813,
                    "velocity": 0.28346456692913385,
                    "duration": 0.05970150000000274
                },
                {
                    "name": "E4",
                    "midi": 64,
                    "time": 84.04478662499812,
                    "velocity": 0.2440944881889764,
                    "duration": 0.05970150000000274
                },
                {
                    "name": "G4",
                    "midi": 67,
                    "time": 84.08956274999812,
                    "velocity": 0.28346456692913385,
                    "duration": 0.05970150000000274
                },
                {
                    "name": "E4",
                    "midi": 64,
                    "time": 84.13433887499812,
                    "velocity": 0.2440944881889764,
                    "duration": 0.0447761249999985
                },
                {
                    "name": "G4",
                    "midi": 67,
                    "time": 84.17911499999812,
                    "velocity": 0.2677165354330709,
                    "duration": 0.05970150000000274
                },
                {
                    "name": "E4",
                    "midi": 64,
                    "time": 84.22389112499812,
                    "velocity": 0.2283464566929134,
                    "duration": 0.05970150000000274
                },
                {
                    "name": "G4",
                    "midi": 67,
                    "time": 84.26866724999812,
                    "velocity": 0.2677165354330709,
                    "duration": 0.05970150000000274
                },
                {
                    "name": "E4",
                    "midi": 64,
                    "time": 84.31344337499812,
                    "velocity": 0.2283464566929134,
                    "duration": 0.05970150000000274
                },
                {
                    "name": "G4",
                    "midi": 67,
                    "time": 84.35821949999811,
                    "velocity": 0.25984251968503935,
                    "duration": 0.05970150000000274
                },
                {
                    "name": "E4",
                    "midi": 64,
                    "time": 84.40299562499811,
                    "velocity": 0.2283464566929134,
                    "duration": 0.05970150000000274
                },
                {
                    "name": "G4",
                    "midi": 67,
                    "time": 84.44777174999811,
                    "velocity": 0.2677165354330709,
                    "duration": 0.05970150000000274
                },
                {
                    "name": "E4",
                    "midi": 64,
                    "time": 84.49254787499811,
                    "velocity": 0.2283464566929134,
                    "duration": 0.0447761249999985
                },
                {
                    "name": "G4",
                    "midi": 67,
                    "time": 84.53732399999811,
                    "velocity": 0.25984251968503935,
                    "duration": 0.05970150000000274
                },
                {
                    "name": "E4",
                    "midi": 64,
                    "time": 84.5821001249981,
                    "velocity": 0.2204724409448819,
                    "duration": 0.05970150000000274
                },
                {
                    "name": "G4",
                    "midi": 67,
                    "time": 84.6268762499981,
                    "velocity": 0.25984251968503935,
                    "duration": 0.05970150000000274
                },
                {
                    "name": "E4",
                    "midi": 64,
                    "time": 84.6716523749981,
                    "velocity": 0.2283464566929134,
                    "duration": 0.05970150000000274
                },
                {
                    "name": "G5",
                    "midi": 79,
                    "time": 84.7164284999981,
                    "velocity": 0.47244094488188976,
                    "duration": 0.179104499999994
                },
                {
                    "name": "G4",
                    "midi": 67,
                    "time": 84.7164284999981,
                    "velocity": 0.25984251968503935,
                    "duration": 0.05970150000000274
                },
                {
                    "name": "E5",
                    "midi": 76,
                    "time": 84.7164284999981,
                    "velocity": 0.47244094488188976,
                    "duration": 0.179104499999994
                },
                {
                    "name": "A#4",
                    "midi": 70,
                    "time": 84.7164284999981,
                    "velocity": 0.3937007874015748,
                    "duration": 0.179104499999994
                },
                {
                    "name": "E4",
                    "midi": 64,
                    "time": 84.7612046249981,
                    "velocity": 0.2440944881889764,
                    "duration": 0.05970150000000274
                },
                {
                    "name": "G4",
                    "midi": 67,
                    "time": 84.8059807499981,
                    "velocity": 0.2677165354330709,
                    "duration": 0.05970150000000274
                },
                {
                    "name": "E4",
                    "midi": 64,
                    "time": 84.8507568749981,
                    "velocity": 0.23622047244094488,
                    "duration": 0.0447761249999985
                },
                {
                    "name": "E6",
                    "midi": 88,
                    "time": 84.8955329999981,
                    "velocity": 0.5118110236220472,
                    "duration": 0.179104499999994
                },
                {
                    "name": "G4",
                    "midi": 67,
                    "time": 84.8955329999981,
                    "velocity": 0.5118110236220472,
                    "duration": 0.05970150000000274
                },
                {
                    "name": "A#5",
                    "midi": 82,
                    "time": 84.8955329999981,
                    "velocity": 0.4330708661417323,
                    "duration": 0.179104499999994
                },
                {
                    "name": "G6",
                    "midi": 91,
                    "time": 84.8955329999981,
                    "velocity": 0.5118110236220472,
                    "duration": 0.179104499999994
                },
                {
                    "name": "E4",
                    "midi": 64,
                    "time": 84.9403091249981,
                    "velocity": 0.2440944881889764,
                    "duration": 0.05970150000000274
                },
                {
                    "name": "G4",
                    "midi": 67,
                    "time": 84.9850852499981,
                    "velocity": 0.2677165354330709,
                    "duration": 0.05970150000000274
                },
                {
                    "name": "E4",
                    "midi": 64,
                    "time": 85.02986137499809,
                    "velocity": 0.25196850393700787,
                    "duration": 0.05970150000000274
                },
                {
                    "name": "G4",
                    "midi": 67,
                    "time": 85.07463749999809,
                    "velocity": 0.2755905511811024,
                    "duration": 0.05970150000000274
                },
                {
                    "name": "E4",
                    "midi": 64,
                    "time": 85.11941362499809,
                    "velocity": 0.2440944881889764,
                    "duration": 0.05970150000000274
                },
                {
                    "name": "G4",
                    "midi": 67,
                    "time": 85.16418974999809,
                    "velocity": 0.2677165354330709,
                    "duration": 0.05970150000000274
                },
                {
                    "name": "E4",
                    "midi": 64,
                    "time": 85.20896587499809,
                    "velocity": 0.23622047244094488,
                    "duration": 0.0447761249999985
                },
                {
                    "name": "G4",
                    "midi": 67,
                    "time": 85.25374199999808,
                    "velocity": 0.28346456692913385,
                    "duration": 0.05970150000000274
                },
                {
                    "name": "E4",
                    "midi": 64,
                    "time": 85.29851812499808,
                    "velocity": 0.2440944881889764,
                    "duration": 0.05970150000000274
                },
                {
                    "name": "G4",
                    "midi": 67,
                    "time": 85.34329424999808,
                    "velocity": 0.28346456692913385,
                    "duration": 0.05970150000000274
                },
                {
                    "name": "E4",
                    "midi": 64,
                    "time": 85.38807037499808,
                    "velocity": 0.25196850393700787,
                    "duration": 0.05970150000000274
                },
                {
                    "name": "G4",
                    "midi": 67,
                    "time": 85.43284649999808,
                    "velocity": 0.28346456692913385,
                    "duration": 0.05970150000000274
                },
                {
                    "name": "E4",
                    "midi": 64,
                    "time": 85.47762262499808,
                    "velocity": 0.2440944881889764,
                    "duration": 0.05970150000000274
                },
                {
                    "name": "G4",
                    "midi": 67,
                    "time": 85.52239874999808,
                    "velocity": 0.28346456692913385,
                    "duration": 0.05970150000000274
                },
                {
                    "name": "E4",
                    "midi": 64,
                    "time": 85.56717487499807,
                    "velocity": 0.2440944881889764,
                    "duration": 0.05970150000000274
                },
                {
                    "name": "G4",
                    "midi": 67,
                    "time": 85.61195099999807,
                    "velocity": 0.2677165354330709,
                    "duration": 0.05970150000000274
                },
                {
                    "name": "E4",
                    "midi": 64,
                    "time": 85.65672712499807,
                    "velocity": 0.2283464566929134,
                    "duration": 0.05970150000000274
                },
                {
                    "name": "G4",
                    "midi": 67,
                    "time": 85.70150324999807,
                    "velocity": 0.2677165354330709,
                    "duration": 0.05970150000000274
                },
                {
                    "name": "E4",
                    "midi": 64,
                    "time": 85.74627937499807,
                    "velocity": 0.2283464566929134,
                    "duration": 0.05970150000000274
                },
                {
                    "name": "G4",
                    "midi": 67,
                    "time": 85.79105549999807,
                    "velocity": 0.25984251968503935,
                    "duration": 0.05970150000000274
                },
                {
                    "name": "E4",
                    "midi": 64,
                    "time": 85.83583162499806,
                    "velocity": 0.2283464566929134,
                    "duration": 0.05970150000000274
                },
                {
                    "name": "G4",
                    "midi": 67,
                    "time": 85.88060774999806,
                    "velocity": 0.2677165354330709,
                    "duration": 0.05970150000000274
                },
                {
                    "name": "E4",
                    "midi": 64,
                    "time": 85.92538387499806,
                    "velocity": 0.2283464566929134,
                    "duration": 0.0447761249999985
                },
                {
                    "name": "G4",
                    "midi": 67,
                    "time": 85.97015999999806,
                    "velocity": 0.25984251968503935,
                    "duration": 0.05970150000000274
                },
                {
                    "name": "E4",
                    "midi": 64,
                    "time": 86.01493612499806,
                    "velocity": 0.2204724409448819,
                    "duration": 0.05970150000000274
                },
                {
                    "name": "G4",
                    "midi": 67,
                    "time": 86.05971224999806,
                    "velocity": 0.25984251968503935,
                    "duration": 0.05970150000000274
                },
                {
                    "name": "E4",
                    "midi": 64,
                    "time": 86.10448837499806,
                    "velocity": 0.2283464566929134,
                    "duration": 0.05970150000000274
                },
                {
                    "name": "E5",
                    "midi": 76,
                    "time": 86.14926449999805,
                    "velocity": 0.4881889763779528,
                    "duration": 0.179104499999994
                },
                {
                    "name": "G4",
                    "midi": 67,
                    "time": 86.14926449999805,
                    "velocity": 0.25984251968503935,
                    "duration": 0.05970150000000274
                },
                {
                    "name": "G5",
                    "midi": 79,
                    "time": 86.14926449999805,
                    "velocity": 0.4881889763779528,
                    "duration": 0.179104499999994
                },
                {
                    "name": "A#4",
                    "midi": 70,
                    "time": 86.14926449999805,
                    "velocity": 0.4094488188976378,
                    "duration": 0.179104499999994
                },
                {
                    "name": "E4",
                    "midi": 64,
                    "time": 86.19404062499805,
                    "velocity": 0.2440944881889764,
                    "duration": 0.05970150000000274
                },
                {
                    "name": "G4",
                    "midi": 67,
                    "time": 86.23881674999805,
                    "velocity": 0.2677165354330709,
                    "duration": 0.05970150000000274
                },
                {
                    "name": "E4",
                    "midi": 64,
                    "time": 86.28359287499805,
                    "velocity": 0.23622047244094488,
                    "duration": 0.0447761249999985
                },
                {
                    "name": "G6",
                    "midi": 91,
                    "time": 86.32836899999805,
                    "velocity": 0.5196850393700787,
                    "duration": 0.179104499999994
                },
                {
                    "name": "E6",
                    "midi": 88,
                    "time": 86.32836899999805,
                    "velocity": 0.5196850393700787,
                    "duration": 0.179104499999994
                },
                {
                    "name": "A#5",
                    "midi": 82,
                    "time": 86.32836899999805,
                    "velocity": 0.4330708661417323,
                    "duration": 0.179104499999994
                },
                {
                    "name": "G4",
                    "midi": 67,
                    "time": 86.32836899999805,
                    "velocity": 0.5196850393700787,
                    "duration": 0.05970150000000274
                },
                {
                    "name": "E4",
                    "midi": 64,
                    "time": 86.37314512499805,
                    "velocity": 0.2440944881889764,
                    "duration": 0.05970150000000274
                },
                {
                    "name": "G4",
                    "midi": 67,
                    "time": 86.41792124999805,
                    "velocity": 0.28346456692913385,
                    "duration": 0.05970150000000274
                },
                {
                    "name": "E4",
                    "midi": 64,
                    "time": 86.46269737499804,
                    "velocity": 0.25196850393700787,
                    "duration": 0.05970150000000274
                },
                {
                    "name": "G4",
                    "midi": 67,
                    "time": 86.50747349999804,
                    "velocity": 0.2992125984251969,
                    "duration": 0.05970150000000274
                },
                {
                    "name": "E4",
                    "midi": 64,
                    "time": 86.55224962499804,
                    "velocity": 0.2440944881889764,
                    "duration": 0.05970150000000274
                },
                {
                    "name": "G4",
                    "midi": 67,
                    "time": 86.59702574999804,
                    "velocity": 0.2992125984251969,
                    "duration": 0.05970150000000274
                },
                {
                    "name": "E4",
                    "midi": 64,
                    "time": 86.64180187499804,
                    "velocity": 0.25984251968503935,
                    "duration": 0.0447761249999985
                },
                {
                    "name": "G4",
                    "midi": 67,
                    "time": 86.68657799999804,
                    "velocity": 0.31496062992125984,
                    "duration": 0.05970150000000274
                },
                {
                    "name": "E4",
                    "midi": 64,
                    "time": 86.73135412499803,
                    "velocity": 0.2440944881889764,
                    "duration": 0.05970150000000274
                },
                {
                    "name": "G4",
                    "midi": 67,
                    "time": 86.77613024999803,
                    "velocity": 0.28346456692913385,
                    "duration": 0.05970150000000274
                },
                {
                    "name": "E4",
                    "midi": 64,
                    "time": 86.82090637499803,
                    "velocity": 0.25196850393700787,
                    "duration": 0.05970150000000274
                },
                {
                    "name": "G4",
                    "midi": 67,
                    "time": 86.86568249999803,
                    "velocity": 0.2992125984251969,
                    "duration": 0.05970150000000274
                },
                {
                    "name": "E4",
                    "midi": 64,
                    "time": 86.91045862499803,
                    "velocity": 0.2440944881889764,
                    "duration": 0.05970150000000274
                },
                {
                    "name": "G4",
                    "midi": 67,
                    "time": 86.95523474999803,
                    "velocity": 0.28346456692913385,
                    "duration": 0.05970150000000274
                },
                {
                    "name": "E4",
                    "midi": 64,
                    "time": 87.00001087499803,
                    "velocity": 0.23622047244094488,
                    "duration": 0.05970150000000274
                },
                {
                    "name": "G4",
                    "midi": 67,
                    "time": 87.04478699999802,
                    "velocity": 0.2677165354330709,
                    "duration": 0.05970150000000274
                },
                {
                    "name": "E4",
                    "midi": 64,
                    "time": 87.08956312499802,
                    "velocity": 0.2283464566929134,
                    "duration": 0.05970150000000274
                },
                {
                    "name": "G4",
                    "midi": 67,
                    "time": 87.13433924999802,
                    "velocity": 0.2677165354330709,
                    "duration": 0.05970150000000274
                },
                {
                    "name": "E4",
                    "midi": 64,
                    "time": 87.17911537499802,
                    "velocity": 0.2283464566929134,
                    "duration": 0.05970150000000274
                },
                {
                    "name": "G4",
                    "midi": 67,
                    "time": 87.22389149999802,
                    "velocity": 0.25984251968503935,
                    "duration": 0.05970150000000274
                },
                {
                    "name": "E4",
                    "midi": 64,
                    "time": 87.26866762499802,
                    "velocity": 0.2283464566929134,
                    "duration": 0.05970150000000274
                },
                {
                    "name": "G4",
                    "midi": 67,
                    "time": 87.31344374999802,
                    "velocity": 0.2677165354330709,
                    "duration": 0.05970150000000274
                },
                {
                    "name": "E4",
                    "midi": 64,
                    "time": 87.35821987499801,
                    "velocity": 0.2283464566929134,
                    "duration": 0.05970150000000274
                },
                {
                    "name": "G4",
                    "midi": 67,
                    "time": 87.40299599999801,
                    "velocity": 0.28346456692913385,
                    "duration": 0.05970150000000274
                },
                {
                    "name": "E4",
                    "midi": 64,
                    "time": 87.44777212499801,
                    "velocity": 0.2440944881889764,
                    "duration": 0.05970150000000274
                },
                {
                    "name": "G4",
                    "midi": 67,
                    "time": 87.49254824999801,
                    "velocity": 0.28346456692913385,
                    "duration": 0.05970150000000274
                },
                {
                    "name": "E4",
                    "midi": 64,
                    "time": 87.53732437499801,
                    "velocity": 0.25196850393700787,
                    "duration": 0.05970150000000274
                },
                {
                    "name": "G4",
                    "midi": 67,
                    "time": 87.582100499998,
                    "velocity": 0.28346456692913385,
                    "duration": 0.05970150000000274
                },
                {
                    "name": "E4",
                    "midi": 64,
                    "time": 87.626876624998,
                    "velocity": 0.2440944881889764,
                    "duration": 0.05970150000000274
                },
                {
                    "name": "G4",
                    "midi": 67,
                    "time": 87.671652749998,
                    "velocity": 0.28346456692913385,
                    "duration": 0.05970150000000274
                },
                {
                    "name": "E4",
                    "midi": 64,
                    "time": 87.716428874998,
                    "velocity": 0.2440944881889764,
                    "duration": 0.0447761249999985
                },
                {
                    "name": "G4",
                    "midi": 67,
                    "time": 87.761204999998,
                    "velocity": 0.2677165354330709,
                    "duration": 0.05970150000000274
                },
                {
                    "name": "E4",
                    "midi": 64,
                    "time": 87.805981124998,
                    "velocity": 0.2283464566929134,
                    "duration": 0.05970150000000274
                },
                {
                    "name": "G4",
                    "midi": 67,
                    "time": 87.850757249998,
                    "velocity": 0.2677165354330709,
                    "duration": 0.05970150000000274
                },
                {
                    "name": "E4",
                    "midi": 64,
                    "time": 87.895533374998,
                    "velocity": 0.2283464566929134,
                    "duration": 0.05970150000000274
                },
                {
                    "name": "G4",
                    "midi": 67,
                    "time": 87.940309499998,
                    "velocity": 0.25984251968503935,
                    "duration": 0.05970150000000274
                },
                {
                    "name": "E4",
                    "midi": 64,
                    "time": 87.98508562499799,
                    "velocity": 0.2283464566929134,
                    "duration": 0.05970150000000274
                },
                {
                    "name": "G4",
                    "midi": 67,
                    "time": 88.02986174999799,
                    "velocity": 0.2677165354330709,
                    "duration": 0.05970150000000274
                },
                {
                    "name": "E4",
                    "midi": 64,
                    "time": 88.07463787499799,
                    "velocity": 0.2283464566929134,
                    "duration": 0.05970150000000274
                },
                {
                    "name": "G4",
                    "midi": 67,
                    "time": 88.11941399999799,
                    "velocity": 0.29133858267716534,
                    "duration": 0.05970150000000274
                },
                {
                    "name": "E4",
                    "midi": 64,
                    "time": 88.16419012499799,
                    "velocity": 0.25196850393700787,
                    "duration": 0.05970150000000274
                },
                {
                    "name": "G4",
                    "midi": 67,
                    "time": 88.20896624999799,
                    "velocity": 0.29133858267716534,
                    "duration": 0.05970150000000274
                },
                {
                    "name": "E4",
                    "midi": 64,
                    "time": 88.25374237499798,
                    "velocity": 0.25196850393700787,
                    "duration": 0.05970150000000274
                },
                {
                    "name": "G4",
                    "midi": 67,
                    "time": 88.29851849999798,
                    "velocity": 0.29133858267716534,
                    "duration": 0.05970150000000274
                },
                {
                    "name": "E4",
                    "midi": 64,
                    "time": 88.34329462499798,
                    "velocity": 0.2440944881889764,
                    "duration": 0.05970150000000274
                },
                {
                    "name": "G4",
                    "midi": 67,
                    "time": 88.38807074999798,
                    "velocity": 0.2992125984251969,
                    "duration": 0.05970150000000274
                },
                {
                    "name": "E4",
                    "midi": 64,
                    "time": 88.43284687499798,
                    "velocity": 0.2440944881889764,
                    "duration": 0.0447761249999985
                },
                {
                    "name": "G4",
                    "midi": 67,
                    "time": 88.47762299999798,
                    "velocity": 0.30708661417322836,
                    "duration": 0.05970150000000274
                },
                {
                    "name": "E4",
                    "midi": 64,
                    "time": 88.52239912499797,
                    "velocity": 0.2440944881889764,
                    "duration": 0.05970150000000274
                },
                {
                    "name": "G4",
                    "midi": 67,
                    "time": 88.56717524999797,
                    "velocity": 0.29133858267716534,
                    "duration": 0.05970150000000274
                },
                {
                    "name": "E4",
                    "midi": 64,
                    "time": 88.61195137499797,
                    "velocity": 0.25196850393700787,
                    "duration": 0.05970150000000274
                },
                {
                    "name": "G4",
                    "midi": 67,
                    "time": 88.65672749999797,
                    "velocity": 0.28346456692913385,
                    "duration": 0.05970150000000274
                },
                {
                    "name": "E4",
                    "midi": 64,
                    "time": 88.70150362499797,
                    "velocity": 0.2440944881889764,
                    "duration": 0.05970150000000274
                },
                {
                    "name": "G4",
                    "midi": 67,
                    "time": 88.74627974999797,
                    "velocity": 0.2677165354330709,
                    "duration": 0.05970150000000274
                },
                {
                    "name": "E4",
                    "midi": 64,
                    "time": 88.79105587499797,
                    "velocity": 0.2283464566929134,
                    "duration": 0.05970150000000274
                },
                {
                    "name": "F#4",
                    "midi": 66,
                    "time": 88.83583199999796,
                    "velocity": 0.2992125984251969,
                    "duration": 0.05970150000000274
                },
                {
                    "name": "D#4",
                    "midi": 63,
                    "time": 88.88060812499796,
                    "velocity": 0.2440944881889764,
                    "duration": 0.05970150000000274
                },
                {
                    "name": "F#4",
                    "midi": 66,
                    "time": 88.92538424999796,
                    "velocity": 0.2992125984251969,
                    "duration": 0.05970150000000274
                },
                {
                    "name": "D#4",
                    "midi": 63,
                    "time": 88.97016037499796,
                    "velocity": 0.25196850393700787,
                    "duration": 0.05970150000000274
                },
                {
                    "name": "F#4",
                    "midi": 66,
                    "time": 89.01493649999796,
                    "velocity": 0.2992125984251969,
                    "duration": 0.05970150000000274
                },
                {
                    "name": "D#4",
                    "midi": 63,
                    "time": 89.05971262499796,
                    "velocity": 0.2440944881889764,
                    "duration": 0.05970150000000274
                },
                {
                    "name": "F#4",
                    "midi": 66,
                    "time": 89.10448874999796,
                    "velocity": 0.2992125984251969,
                    "duration": 0.05970150000000274
                },
                {
                    "name": "D#4",
                    "midi": 63,
                    "time": 89.14926487499795,
                    "velocity": 0.2440944881889764,
                    "duration": 0.0447761249999985
                },
                {
                    "name": "F#4",
                    "midi": 66,
                    "time": 89.19404099999795,
                    "velocity": 0.2677165354330709,
                    "duration": 0.05970150000000274
                },
                {
                    "name": "D#4",
                    "midi": 63,
                    "time": 89.23881712499795,
                    "velocity": 0.2283464566929134,
                    "duration": 0.05970150000000274
                },
                {
                    "name": "F#4",
                    "midi": 66,
                    "time": 89.28359324999795,
                    "velocity": 0.2677165354330709,
                    "duration": 0.05970150000000274
                },
                {
                    "name": "D#4",
                    "midi": 63,
                    "time": 89.32836937499795,
                    "velocity": 0.2283464566929134,
                    "duration": 0.05970150000000274
                },
                {
                    "name": "F#4",
                    "midi": 66,
                    "time": 89.37314549999795,
                    "velocity": 0.25984251968503935,
                    "duration": 0.05970150000000274
                },
                {
                    "name": "D#4",
                    "midi": 63,
                    "time": 89.41792162499794,
                    "velocity": 0.2283464566929134,
                    "duration": 0.05970150000000274
                },
                {
                    "name": "F#4",
                    "midi": 66,
                    "time": 89.46269774999794,
                    "velocity": 0.2677165354330709,
                    "duration": 0.05970150000000274
                },
                {
                    "name": "D#4",
                    "midi": 63,
                    "time": 89.50747387499794,
                    "velocity": 0.2283464566929134,
                    "duration": 0.05970150000000274
                },
                {
                    "name": "F#4",
                    "midi": 66,
                    "time": 89.55224999999794,
                    "velocity": 0.25984251968503935,
                    "duration": 0.05970150000000274
                },
                {
                    "name": "D#4",
                    "midi": 63,
                    "time": 89.59702612499794,
                    "velocity": 0.2204724409448819,
                    "duration": 0.05970150000000274
                },
                {
                    "name": "F#4",
                    "midi": 66,
                    "time": 89.64180224999794,
                    "velocity": 0.25984251968503935,
                    "duration": 0.05970150000000274
                },
                {
                    "name": "D#4",
                    "midi": 63,
                    "time": 89.68657837499794,
                    "velocity": 0.2283464566929134,
                    "duration": 0.0447761249999985
                },
                {
                    "name": "G5",
                    "midi": 79,
                    "time": 89.73135449999793,
                    "velocity": 0.49606299212598426,
                    "duration": 0.179104499999994
                },
                {
                    "name": "A#4",
                    "midi": 70,
                    "time": 89.73135449999793,
                    "velocity": 0.41732283464566927,
                    "duration": 0.179104499999994
                },
                {
                    "name": "E5",
                    "midi": 76,
                    "time": 89.73135449999793,
                    "velocity": 0.49606299212598426,
                    "duration": 0.179104499999994
                },
                {
                    "name": "G4",
                    "midi": 67,
                    "time": 89.73135449999793,
                    "velocity": 0.25984251968503935,
                    "duration": 0.05970150000000274
                },
                {
                    "name": "E4",
                    "midi": 64,
                    "time": 89.77613062499793,
                    "velocity": 0.2440944881889764,
                    "duration": 0.05970150000000274
                },
                {
                    "name": "G4",
                    "midi": 67,
                    "time": 89.82090674999793,
                    "velocity": 0.2677165354330709,
                    "duration": 0.05970150000000274
                },
                {
                    "name": "E4",
                    "midi": 64,
                    "time": 89.86568287499793,
                    "velocity": 0.23622047244094488,
                    "duration": 0.0447761249999985
                },
                {
                    "name": "E6",
                    "midi": 88,
                    "time": 89.91045899999793,
                    "velocity": 0.5196850393700787,
                    "duration": 0.179104499999994
                },
                {
                    "name": "G6",
                    "midi": 91,
                    "time": 89.91045899999793,
                    "velocity": 0.5196850393700787,
                    "duration": 0.179104499999994
                },
                {
                    "name": "G4",
                    "midi": 67,
                    "time": 89.91045899999793,
                    "velocity": 0.5196850393700787,
                    "duration": 0.05970150000000274
                },
                {
                    "name": "A#5",
                    "midi": 82,
                    "time": 89.91045899999793,
                    "velocity": 0.4330708661417323,
                    "duration": 0.179104499999994
                },
                {
                    "name": "E4",
                    "midi": 64,
                    "time": 89.95523512499793,
                    "velocity": 0.2440944881889764,
                    "duration": 0.05970150000000274
                },
                {
                    "name": "G4",
                    "midi": 67,
                    "time": 90.00001124999793,
                    "velocity": 0.2677165354330709,
                    "duration": 0.05970150000000274
                },
                {
                    "name": "E4",
                    "midi": 64,
                    "time": 90.04478737499792,
                    "velocity": 0.25196850393700787,
                    "duration": 0.05970150000000274
                },
                {
                    "name": "G4",
                    "midi": 67,
                    "time": 90.08956349999792,
                    "velocity": 0.2755905511811024,
                    "duration": 0.05970150000000274
                },
                {
                    "name": "E4",
                    "midi": 64,
                    "time": 90.13433962499792,
                    "velocity": 0.2440944881889764,
                    "duration": 0.05970150000000274
                },
                {
                    "name": "G4",
                    "midi": 67,
                    "time": 90.17911574999792,
                    "velocity": 0.2677165354330709,
                    "duration": 0.05970150000000274
                },
                {
                    "name": "E4",
                    "midi": 64,
                    "time": 90.22389187499792,
                    "velocity": 0.23622047244094488,
                    "duration": 0.05970150000000274
                },
                {
                    "name": "F#4",
                    "midi": 66,
                    "time": 90.26866799999792,
                    "velocity": 0.28346456692913385,
                    "duration": 0.05970150000000274
                },
                {
                    "name": "D#4",
                    "midi": 63,
                    "time": 90.31344412499791,
                    "velocity": 0.2440944881889764,
                    "duration": 0.05970150000000274
                },
                {
                    "name": "F#4",
                    "midi": 66,
                    "time": 90.35822024999791,
                    "velocity": 0.28346456692913385,
                    "duration": 0.05970150000000274
                },
                {
                    "name": "D#4",
                    "midi": 63,
                    "time": 90.40299637499791,
                    "velocity": 0.25196850393700787,
                    "duration": 0.05970150000000274
                },
                {
                    "name": "F#4",
                    "midi": 66,
                    "time": 90.44777249999791,
                    "velocity": 0.28346456692913385,
                    "duration": 0.05970150000000274
                },
                {
                    "name": "D#4",
                    "midi": 63,
                    "time": 90.49254862499791,
                    "velocity": 0.2440944881889764,
                    "duration": 0.05970150000000274
                },
                {
                    "name": "F#4",
                    "midi": 66,
                    "time": 90.53732474999791,
                    "velocity": 0.28346456692913385,
                    "duration": 0.05970150000000274
                },
                {
                    "name": "D#4",
                    "midi": 63,
                    "time": 90.5821008749979,
                    "velocity": 0.2440944881889764,
                    "duration": 0.05970150000000274
                },
                {
                    "name": "F#4",
                    "midi": 66,
                    "time": 90.6268769999979,
                    "velocity": 0.2677165354330709,
                    "duration": 0.05970150000000274
                },
                {
                    "name": "D#4",
                    "midi": 63,
                    "time": 90.6716531249979,
                    "velocity": 0.2283464566929134,
                    "duration": 0.05970150000000274
                },
                {
                    "name": "F#4",
                    "midi": 66,
                    "time": 90.7164292499979,
                    "velocity": 0.2677165354330709,
                    "duration": 0.05970150000000274
                },
                {
                    "name": "D#4",
                    "midi": 63,
                    "time": 90.7612053749979,
                    "velocity": 0.2283464566929134,
                    "duration": 0.05970150000000274
                },
                {
                    "name": "F#4",
                    "midi": 66,
                    "time": 90.8059814999979,
                    "velocity": 0.25984251968503935,
                    "duration": 0.05970150000000274
                },
                {
                    "name": "D#4",
                    "midi": 63,
                    "time": 90.8507576249979,
                    "velocity": 0.2283464566929134,
                    "duration": 0.05970150000000274
                },
                {
                    "name": "F#4",
                    "midi": 66,
                    "time": 90.8955337499979,
                    "velocity": 0.2677165354330709,
                    "duration": 0.05970150000000274
                },
                {
                    "name": "D#4",
                    "midi": 63,
                    "time": 90.9403098749979,
                    "velocity": 0.2283464566929134,
                    "duration": 0.05970150000000274
                },
                {
                    "name": "F#4",
                    "midi": 66,
                    "time": 90.98508599999789,
                    "velocity": 0.25984251968503935,
                    "duration": 0.05970150000000274
                },
                {
                    "name": "D#4",
                    "midi": 63,
                    "time": 91.02986212499789,
                    "velocity": 0.2204724409448819,
                    "duration": 0.05970150000000274
                },
                {
                    "name": "F#4",
                    "midi": 66,
                    "time": 91.07463824999789,
                    "velocity": 0.25984251968503935,
                    "duration": 0.05970150000000274
                },
                {
                    "name": "D#4",
                    "midi": 63,
                    "time": 91.11941437499789,
                    "velocity": 0.2283464566929134,
                    "duration": 0.0447761249999985
                },
                {
                    "name": "G5",
                    "midi": 79,
                    "time": 91.16419049999789,
                    "velocity": 0.5039370078740157,
                    "duration": 0.179104499999994
                },
                {
                    "name": "A#4",
                    "midi": 70,
                    "time": 91.16419049999789,
                    "velocity": 0.4251968503937008,
                    "duration": 0.179104499999994
                },
                {
                    "name": "E5",
                    "midi": 76,
                    "time": 91.16419049999789,
                    "velocity": 0.5039370078740157,
                    "duration": 0.179104499999994
                },
                {
                    "name": "G4",
                    "midi": 67,
                    "time": 91.16419049999789,
                    "velocity": 0.25984251968503935,
                    "duration": 0.05970150000000274
                },
                {
                    "name": "E4",
                    "midi": 64,
                    "time": 91.20896662499788,
                    "velocity": 0.2440944881889764,
                    "duration": 0.05970150000000274
                },
                {
                    "name": "G4",
                    "midi": 67,
                    "time": 91.25374274999788,
                    "velocity": 0.2677165354330709,
                    "duration": 0.05970150000000274
                },
                {
                    "name": "E4",
                    "midi": 64,
                    "time": 91.29851887499788,
                    "velocity": 0.23622047244094488,
                    "duration": 0.0447761249999985
                },
                {
                    "name": "G4",
                    "midi": 67,
                    "time": 91.34329499999788,
                    "velocity": 0.5275590551181102,
                    "duration": 0.05970150000000274
                },
                {
                    "name": "E6",
                    "midi": 88,
                    "time": 91.34329499999788,
                    "velocity": 0.5275590551181102,
                    "duration": 0.179104499999994
                },
                {
                    "name": "G6",
                    "midi": 91,
                    "time": 91.34329499999788,
                    "velocity": 0.5275590551181102,
                    "duration": 0.179104499999994
                },
                {
                    "name": "A#5",
                    "midi": 82,
                    "time": 91.34329499999788,
                    "velocity": 0.4409448818897638,
                    "duration": 0.179104499999994
                },
                {
                    "name": "E4",
                    "midi": 64,
                    "time": 91.38807112499788,
                    "velocity": 0.2440944881889764,
                    "duration": 0.05970150000000274
                },
                {
                    "name": "G4",
                    "midi": 67,
                    "time": 91.43284724999788,
                    "velocity": 0.2677165354330709,
                    "duration": 0.05970150000000274
                },
                {
                    "name": "E4",
                    "midi": 64,
                    "time": 91.47762337499788,
                    "velocity": 0.25196850393700787,
                    "duration": 0.05970150000000274
                },
                {
                    "name": "G4",
                    "midi": 67,
                    "time": 91.52239949999787,
                    "velocity": 0.2755905511811024,
                    "duration": 0.05970150000000274
                },
                {
                    "name": "E4",
                    "midi": 64,
                    "time": 91.56717562499787,
                    "velocity": 0.2440944881889764,
                    "duration": 0.05970150000000274
                },
                {
                    "name": "G4",
                    "midi": 67,
                    "time": 91.61195174999787,
                    "velocity": 0.2677165354330709,
                    "duration": 0.05970150000000274
                },
                {
                    "name": "E4",
                    "midi": 64,
                    "time": 91.65672787499787,
                    "velocity": 0.23622047244094488,
                    "duration": 0.0447761249999985
                },
                {
                    "name": "F4",
                    "midi": 65,
                    "time": 91.70150399999787,
                    "velocity": 0.31496062992125984,
                    "duration": 0.05970150000000274
                },
                {
                    "name": "D4",
                    "midi": 62,
                    "time": 91.74628012499787,
                    "velocity": 0.2440944881889764,
                    "duration": 0.05970150000000274
                },
                {
                    "name": "F4",
                    "midi": 65,
                    "time": 91.79105624999787,
                    "velocity": 0.28346456692913385,
                    "duration": 0.05970150000000274
                },
                {
                    "name": "D4",
                    "midi": 62,
                    "time": 91.83583237499786,
                    "velocity": 0.25196850393700787,
                    "duration": 0.05970150000000274
                },
                {
                    "name": "F4",
                    "midi": 65,
                    "time": 91.88060849999786,
                    "velocity": 0.2992125984251969,
                    "duration": 0.05970150000000274
                },
                {
                    "name": "D4",
                    "midi": 62,
                    "time": 91.92538462499786,
                    "velocity": 0.2440944881889764,
                    "duration": 0.05970150000000274
                },
                {
                    "name": "F4",
                    "midi": 65,
                    "time": 91.97016074999786,
                    "velocity": 0.28346456692913385,
                    "duration": 0.05970150000000274
                },
                {
                    "name": "D4",
                    "midi": 62,
                    "time": 92.01493687499786,
                    "velocity": 0.23622047244094488,
                    "duration": 0.05970150000000274
                },
                {
                    "name": "F4",
                    "midi": 65,
                    "time": 92.05971299999786,
                    "velocity": 0.2677165354330709,
                    "duration": 0.05970150000000274
                },
                {
                    "name": "D4",
                    "midi": 62,
                    "time": 92.10448912499785,
                    "velocity": 0.2283464566929134,
                    "duration": 0.05970150000000274
                },
                {
                    "name": "F4",
                    "midi": 65,
                    "time": 92.14926524999785,
                    "velocity": 0.2677165354330709,
                    "duration": 0.05970150000000274
                },
                {
                    "name": "D4",
                    "midi": 62,
                    "time": 92.19404137499785,
                    "velocity": 0.2283464566929134,
                    "duration": 0.05970150000000274
                },
                {
                    "name": "F4",
                    "midi": 65,
                    "time": 92.23881749999785,
                    "velocity": 0.25984251968503935,
                    "duration": 0.05970150000000274
                },
                {
                    "name": "D4",
                    "midi": 62,
                    "time": 92.28359362499785,
                    "velocity": 0.2283464566929134,
                    "duration": 0.05970150000000274
                },
                {
                    "name": "F4",
                    "midi": 65,
                    "time": 92.32836974999785,
                    "velocity": 0.2677165354330709,
                    "duration": 0.05970150000000274
                },
                {
                    "name": "D4",
                    "midi": 62,
                    "time": 92.37314587499785,
                    "velocity": 0.2283464566929134,
                    "duration": 0.05970150000000274
                },
                {
                    "name": "F4",
                    "midi": 65,
                    "time": 92.41792199999784,
                    "velocity": 0.28346456692913385,
                    "duration": 0.05970150000000274
                },
                {
                    "name": "D4",
                    "midi": 62,
                    "time": 92.46269812499784,
                    "velocity": 0.2440944881889764,
                    "duration": 0.05970150000000274
                },
                {
                    "name": "F4",
                    "midi": 65,
                    "time": 92.50747424999784,
                    "velocity": 0.28346456692913385,
                    "duration": 0.05970150000000274
                },
                {
                    "name": "D4",
                    "midi": 62,
                    "time": 92.55225037499784,
                    "velocity": 0.25196850393700787,
                    "duration": 0.05970150000000274
                },
                {
                    "name": "F4",
                    "midi": 65,
                    "time": 92.59702649999784,
                    "velocity": 0.28346456692913385,
                    "duration": 0.05970150000000274
                },
                {
                    "name": "D4",
                    "midi": 62,
                    "time": 92.64180262499784,
                    "velocity": 0.2440944881889764,
                    "duration": 0.05970150000000274
                },
                {
                    "name": "F4",
                    "midi": 65,
                    "time": 92.68657874999784,
                    "velocity": 0.28346456692913385,
                    "duration": 0.05970150000000274
                },
                {
                    "name": "D4",
                    "midi": 62,
                    "time": 92.73135487499783,
                    "velocity": 0.2440944881889764,
                    "duration": 0.0447761249999985
                },
                {
                    "name": "F4",
                    "midi": 65,
                    "time": 92.77613099999783,
                    "velocity": 0.2677165354330709,
                    "duration": 0.05970150000000274
                },
                {
                    "name": "D4",
                    "midi": 62,
                    "time": 92.82090712499783,
                    "velocity": 0.2283464566929134,
                    "duration": 0.05970150000000274
                },
                {
                    "name": "F4",
                    "midi": 65,
                    "time": 92.86568324999783,
                    "velocity": 0.2677165354330709,
                    "duration": 0.05970150000000274
                },
                {
                    "name": "D4",
                    "midi": 62,
                    "time": 92.91045937499783,
                    "velocity": 0.2283464566929134,
                    "duration": 0.05970150000000274
                },
                {
                    "name": "F4",
                    "midi": 65,
                    "time": 92.95523549999783,
                    "velocity": 0.25984251968503935,
                    "duration": 0.05970150000000274
                },
                {
                    "name": "D4",
                    "midi": 62,
                    "time": 93.00001162499782,
                    "velocity": 0.2283464566929134,
                    "duration": 0.05970150000000274
                },
                {
                    "name": "F4",
                    "midi": 65,
                    "time": 93.04478774999782,
                    "velocity": 0.2677165354330709,
                    "duration": 0.05970150000000274
                },
                {
                    "name": "D4",
                    "midi": 62,
                    "time": 93.08956387499782,
                    "velocity": 0.2283464566929134,
                    "duration": 0.05970150000000274
                },
                {
                    "name": "F4",
                    "midi": 65,
                    "time": 93.13433999999782,
                    "velocity": 0.28346456692913385,
                    "duration": 0.05970150000000274
                },
                {
                    "name": "D4",
                    "midi": 62,
                    "time": 93.17911612499782,
                    "velocity": 0.2440944881889764,
                    "duration": 0.05970150000000274
                },
                {
                    "name": "F4",
                    "midi": 65,
                    "time": 93.22389224999782,
                    "velocity": 0.28346456692913385,
                    "duration": 0.05970150000000274
                },
                {
                    "name": "D4",
                    "midi": 62,
                    "time": 93.26866837499782,
                    "velocity": 0.25196850393700787,
                    "duration": 0.05970150000000274
                },
                {
                    "name": "F4",
                    "midi": 65,
                    "time": 93.31344449999781,
                    "velocity": 0.28346456692913385,
                    "duration": 0.05970150000000274
                },
                {
                    "name": "D4",
                    "midi": 62,
                    "time": 93.35822062499781,
                    "velocity": 0.2440944881889764,
                    "duration": 0.05970150000000274
                },
                {
                    "name": "F4",
                    "midi": 65,
                    "time": 93.40299674999781,
                    "velocity": 0.28346456692913385,
                    "duration": 0.05970150000000274
                },
                {
                    "name": "D4",
                    "midi": 62,
                    "time": 93.44777287499781,
                    "velocity": 0.2440944881889764,
                    "duration": 0.0447761249999985
                },
                {
                    "name": "F4",
                    "midi": 65,
                    "time": 93.49254899999781,
                    "velocity": 0.2677165354330709,
                    "duration": 0.05970150000000274
                },
                {
                    "name": "D4",
                    "midi": 62,
                    "time": 93.5373251249978,
                    "velocity": 0.2283464566929134,
                    "duration": 0.05970150000000274
                },
                {
                    "name": "F4",
                    "midi": 65,
                    "time": 93.5821012499978,
                    "velocity": 0.2677165354330709,
                    "duration": 0.05970150000000274
                },
                {
                    "name": "D4",
                    "midi": 62,
                    "time": 93.6268773749978,
                    "velocity": 0.2283464566929134,
                    "duration": 0.05970150000000274
                },
                {
                    "name": "F4",
                    "midi": 65,
                    "time": 93.6716534999978,
                    "velocity": 0.25984251968503935,
                    "duration": 0.05970150000000274
                },
                {
                    "name": "D4",
                    "midi": 62,
                    "time": 93.7164296249978,
                    "velocity": 0.2283464566929134,
                    "duration": 0.05970150000000274
                },
                {
                    "name": "F4",
                    "midi": 65,
                    "time": 93.7612057499978,
                    "velocity": 0.2677165354330709,
                    "duration": 0.05970150000000274
                },
                {
                    "name": "D4",
                    "midi": 62,
                    "time": 93.8059818749978,
                    "velocity": 0.2283464566929134,
                    "duration": 0.05970150000000274
                },
                {
                    "name": "E4",
                    "midi": 64,
                    "time": 93.8507579999978,
                    "velocity": 0.28346456692913385,
                    "duration": 0.05970150000000274
                },
                {
                    "name": "C#4",
                    "midi": 61,
                    "time": 93.8955341249978,
                    "velocity": 0.25196850393700787,
                    "duration": 0.05970150000000274
                },
                {
                    "name": "E4",
                    "midi": 64,
                    "time": 93.9403102499978,
                    "velocity": 0.29133858267716534,
                    "duration": 0.05970150000000274
                },
                {
                    "name": "C#4",
                    "midi": 61,
                    "time": 93.98508637499779,
                    "velocity": 0.25196850393700787,
                    "duration": 0.05970150000000274
                },
                {
                    "name": "E4",
                    "midi": 64,
                    "time": 94.02986249999779,
                    "velocity": 0.28346456692913385,
                    "duration": 0.05970150000000274
                },
                {
                    "name": "C#4",
                    "midi": 61,
                    "time": 94.07463862499779,
                    "velocity": 0.25984251968503935,
                    "duration": 0.05970150000000274
                },
                {
                    "name": "E4",
                    "midi": 64,
                    "time": 94.11941474999779,
                    "velocity": 0.2992125984251969,
                    "duration": 0.05970150000000274
                },
                {
                    "name": "C#4",
                    "midi": 61,
                    "time": 94.16419087499779,
                    "velocity": 0.25984251968503935,
                    "duration": 0.0447761249999985
                },
                {
                    "name": "D#4",
                    "midi": 63,
                    "time": 94.20896699999778,
                    "velocity": 0.30708661417322836,
                    "duration": 0.05970150000000274
                },
                {
                    "name": "B3",
                    "midi": 59,
                    "time": 94.25374312499778,
                    "velocity": 0.2677165354330709,
                    "duration": 0.05970150000000274
                },
                {
                    "name": "D#4",
                    "midi": 63,
                    "time": 94.29851924999778,
                    "velocity": 0.30708661417322836,
                    "duration": 0.05970150000000274
                },
                {
                    "name": "B3",
                    "midi": 59,
                    "time": 94.34329537499778,
                    "velocity": 0.2677165354330709,
                    "duration": 0.05970150000000274
                },
                {
                    "name": "D#4",
                    "midi": 63,
                    "time": 94.38807149999778,
                    "velocity": 0.30708661417322836,
                    "duration": 0.05970150000000274
                },
                {
                    "name": "B3",
                    "midi": 59,
                    "time": 94.43284762499778,
                    "velocity": 0.2755905511811024,
                    "duration": 0.05970150000000274
                },
                {
                    "name": "D#4",
                    "midi": 63,
                    "time": 94.47762374999778,
                    "velocity": 0.31496062992125984,
                    "duration": 0.05970150000000274
                },
                {
                    "name": "B3",
                    "midi": 59,
                    "time": 94.52239987499777,
                    "velocity": 0.2755905511811024,
                    "duration": 0.0447761249999985
                },
                {
                    "name": "D4",
                    "midi": 62,
                    "time": 94.56717599999777,
                    "velocity": 0.3228346456692913,
                    "duration": 0.05970150000000274
                },
                {
                    "name": "A#3",
                    "midi": 58,
                    "time": 94.61195212499777,
                    "velocity": 0.28346456692913385,
                    "duration": 0.05970150000000274
                },
                {
                    "name": "D4",
                    "midi": 62,
                    "time": 94.65672824999777,
                    "velocity": 0.3228346456692913,
                    "duration": 0.05970150000000274
                },
                {
                    "name": "A#3",
                    "midi": 58,
                    "time": 94.70150437499777,
                    "velocity": 0.28346456692913385,
                    "duration": 0.05970150000000274
                },
                {
                    "name": "D4",
                    "midi": 62,
                    "time": 94.74628049999777,
                    "velocity": 0.3228346456692913,
                    "duration": 0.05970150000000274
                },
                {
                    "name": "A#3",
                    "midi": 58,
                    "time": 94.79105662499776,
                    "velocity": 0.28346456692913385,
                    "duration": 0.05970150000000274
                },
                {
                    "name": "D4",
                    "midi": 62,
                    "time": 94.83583274999776,
                    "velocity": 0.33070866141732286,
                    "duration": 0.05970150000000274
                },
                {
                    "name": "A#3",
                    "midi": 58,
                    "time": 94.88060887499776,
                    "velocity": 0.28346456692913385,
                    "duration": 0.0447761249999985
                },
                {
                    "name": "C4",
                    "midi": 60,
                    "time": 94.92538499999776,
                    "velocity": 0.33858267716535434,
                    "duration": 0.05970150000000274
                },
                {
                    "name": "A3",
                    "midi": 57,
                    "time": 94.97016112499776,
                    "velocity": 0.29133858267716534,
                    "duration": 0.05970150000000274
                },
                {
                    "name": "C4",
                    "midi": 60,
                    "time": 95.01493724999776,
                    "velocity": 0.3464566929133858,
                    "duration": 0.05970150000000274
                },
                {
                    "name": "A3",
                    "midi": 57,
                    "time": 95.05971337499776,
                    "velocity": 0.29133858267716534,
                    "duration": 0.05970150000000274
                },
                {
                    "name": "C4",
                    "midi": 60,
                    "time": 95.10448949999775,
                    "velocity": 0.33858267716535434,
                    "duration": 0.05970150000000274
                },
                {
                    "name": "A3",
                    "midi": 57,
                    "time": 95.14926562499775,
                    "velocity": 0.2992125984251969,
                    "duration": 0.05970150000000274
                },
                {
                    "name": "C4",
                    "midi": 60,
                    "time": 95.19404174999775,
                    "velocity": 0.3543307086614173,
                    "duration": 0.05970150000000274
                },
                {
                    "name": "A3",
                    "midi": 57,
                    "time": 95.23881787499775,
                    "velocity": 0.2992125984251969,
                    "duration": 0.0447761249999985
                },
                {
                    "name": "B3",
                    "midi": 59,
                    "time": 95.28359399999775,
                    "velocity": 0.3543307086614173,
                    "duration": 0.05970150000000274
                },
                {
                    "name": "G#3",
                    "midi": 56,
                    "time": 95.32837012499775,
                    "velocity": 0.30708661417322836,
                    "duration": 0.05970150000000274
                },
                {
                    "name": "B3",
                    "midi": 59,
                    "time": 95.37314624999775,
                    "velocity": 0.3543307086614173,
                    "duration": 0.05970150000000274
                },
                {
                    "name": "G#3",
                    "midi": 56,
                    "time": 95.41792237499774,
                    "velocity": 0.30708661417322836,
                    "duration": 0.05970150000000274
                },
                {
                    "name": "B3",
                    "midi": 59,
                    "time": 95.46269849999774,
                    "velocity": 0.3543307086614173,
                    "duration": 0.05970150000000274
                },
                {
                    "name": "G#3",
                    "midi": 56,
                    "time": 95.50747462499774,
                    "velocity": 0.31496062992125984,
                    "duration": 0.05970150000000274
                },
                {
                    "name": "B3",
                    "midi": 59,
                    "time": 95.55225074999774,
                    "velocity": 0.36220472440944884,
                    "duration": 0.05970150000000274
                },
                {
                    "name": "G#3",
                    "midi": 56,
                    "time": 95.59702687499774,
                    "velocity": 0.3228346456692913,
                    "duration": 0.0447761249999985
                },
                {
                    "name": "A#3",
                    "midi": 58,
                    "time": 95.64180299999774,
                    "velocity": 0.3700787401574803,
                    "duration": 0.05970150000000274
                },
                {
                    "name": "G3",
                    "midi": 55,
                    "time": 95.68657912499773,
                    "velocity": 0.3228346456692913,
                    "duration": 0.05970150000000274
                },
                {
                    "name": "A#3",
                    "midi": 58,
                    "time": 95.73135524999773,
                    "velocity": 0.3700787401574803,
                    "duration": 0.05970150000000274
                },
                {
                    "name": "G3",
                    "midi": 55,
                    "time": 95.77613137499773,
                    "velocity": 0.33070866141732286,
                    "duration": 0.05970150000000274
                },
                {
                    "name": "A#3",
                    "midi": 58,
                    "time": 95.82090749999773,
                    "velocity": 0.36220472440944884,
                    "duration": 0.05970150000000274
                },
                {
                    "name": "G3",
                    "midi": 55,
                    "time": 95.86568362499773,
                    "velocity": 0.33070866141732286,
                    "duration": 0.05970150000000274
                },
                {
                    "name": "A#3",
                    "midi": 58,
                    "time": 95.91045974999773,
                    "velocity": 0.3858267716535433,
                    "duration": 0.05970150000000274
                },
                {
                    "name": "G3",
                    "midi": 55,
                    "time": 95.95523587499773,
                    "velocity": 0.33858267716535434,
                    "duration": 0.0447761249999985
                },
                {
                    "name": "A3",
                    "midi": 57,
                    "time": 96.00001199999772,
                    "velocity": 0.3858267716535433,
                    "duration": 0.05970150000000274
                },
                {
                    "name": "F3",
                    "midi": 53,
                    "time": 96.04478812499772,
                    "velocity": 0.33858267716535434,
                    "duration": 0.05970150000000274
                },
                {
                    "name": "A3",
                    "midi": 57,
                    "time": 96.08956424999772,
                    "velocity": 0.3937007874015748,
                    "duration": 0.05970150000000274
                },
                {
                    "name": "F3",
                    "midi": 53,
                    "time": 96.13434037499772,
                    "velocity": 0.3464566929133858,
                    "duration": 0.05970150000000274
                },
                {
                    "name": "A3",
                    "midi": 57,
                    "time": 96.17911649999772,
                    "velocity": 0.3858267716535433,
                    "duration": 0.05970150000000274
                },
                {
                    "name": "F3",
                    "midi": 53,
                    "time": 96.22389262499772,
                    "velocity": 0.3464566929133858,
                    "duration": 0.05970150000000274
                },
                {
                    "name": "A3",
                    "midi": 57,
                    "time": 96.26866874999772,
                    "velocity": 0.4015748031496063,
                    "duration": 0.05970150000000274
                },
                {
                    "name": "F3",
                    "midi": 53,
                    "time": 96.31344487499771,
                    "velocity": 0.3543307086614173,
                    "duration": 0.0447761249999985
                },
                {
                    "name": "G#3",
                    "midi": 56,
                    "time": 96.35822099999771,
                    "velocity": 0.4094488188976378,
                    "duration": 0.05970150000000274
                },
                {
                    "name": "E3",
                    "midi": 52,
                    "time": 96.40299712499771,
                    "velocity": 0.3543307086614173,
                    "duration": 0.05970150000000274
                },
                {
                    "name": "G#3",
                    "midi": 56,
                    "time": 96.44777324999771,
                    "velocity": 0.4094488188976378,
                    "duration": 0.05970150000000274
                },
                {
                    "name": "E3",
                    "midi": 52,
                    "time": 96.49254937499771,
                    "velocity": 0.3543307086614173,
                    "duration": 0.05970150000000274
                },
                {
                    "name": "G#3",
                    "midi": 56,
                    "time": 96.5373254999977,
                    "velocity": 0.4015748031496063,
                    "duration": 0.05970150000000274
                },
                {
                    "name": "E3",
                    "midi": 52,
                    "time": 96.5821016249977,
                    "velocity": 0.3543307086614173,
                    "duration": 0.05970150000000274
                },
                {
                    "name": "G#3",
                    "midi": 56,
                    "time": 96.6268777499977,
                    "velocity": 0.41732283464566927,
                    "duration": 0.05970150000000274
                },
                {
                    "name": "E3",
                    "midi": 52,
                    "time": 96.6716538749977,
                    "velocity": 0.36220472440944884,
                    "duration": 0.0447761249999985
                },
                {
                    "name": "G3",
                    "midi": 55,
                    "time": 96.7164299999977,
                    "velocity": 0.4015748031496063,
                    "duration": 0.05970150000000274
                },
                {
                    "name": "D#3",
                    "midi": 51,
                    "time": 96.7612061249977,
                    "velocity": 0.3543307086614173,
                    "duration": 0.05970150000000274
                },
                {
                    "name": "G3",
                    "midi": 55,
                    "time": 96.8059822499977,
                    "velocity": 0.3858267716535433,
                    "duration": 0.05970150000000274
                },
                {
                    "name": "D#3",
                    "midi": 51,
                    "time": 96.8507583749977,
                    "velocity": 0.3464566929133858,
                    "duration": 0.05970150000000274
                },
                {
                    "name": "G3",
                    "midi": 55,
                    "time": 96.8955344999977,
                    "velocity": 0.3700787401574803,
                    "duration": 0.05970150000000274
                },
                {
                    "name": "D#3",
                    "midi": 51,
                    "time": 96.9403106249977,
                    "velocity": 0.33858267716535434,
                    "duration": 0.05970150000000274
                },
                {
                    "name": "G3",
                    "midi": 55,
                    "time": 96.98508674999769,
                    "velocity": 0.36220472440944884,
                    "duration": 0.05970150000000274
                },
                {
                    "name": "D#3",
                    "midi": 51,
                    "time": 97.02986287499769,
                    "velocity": 0.33070866141732286,
                    "duration": 0.0447761249999985
                },
                {
                    "name": "F#3",
                    "midi": 54,
                    "time": 97.07463899999769,
                    "velocity": 0.3700787401574803,
                    "duration": 0.05970150000000274
                },
                {
                    "name": "D3",
                    "midi": 50,
                    "time": 97.11941512499769,
                    "velocity": 0.3228346456692913,
                    "duration": 0.05970150000000274
                },
                {
                    "name": "F#3",
                    "midi": 54,
                    "time": 97.16419124999769,
                    "velocity": 0.3543307086614173,
                    "duration": 0.05970150000000274
                },
                {
                    "name": "D3",
                    "midi": 50,
                    "time": 97.20896737499768,
                    "velocity": 0.31496062992125984,
                    "duration": 0.05970150000000274
                },
                {
                    "name": "F#3",
                    "midi": 54,
                    "time": 97.25374349999768,
                    "velocity": 0.33858267716535434,
                    "duration": 0.05970150000000274
                },
                {
                    "name": "D3",
                    "midi": 50,
                    "time": 97.29851962499768,
                    "velocity": 0.30708661417322836,
                    "duration": 0.05970150000000274
                },
                {
                    "name": "F#3",
                    "midi": 54,
                    "time": 97.34329574999768,
                    "velocity": 0.33070866141732286,
                    "duration": 0.05970150000000274
                },
                {
                    "name": "D3",
                    "midi": 50,
                    "time": 97.38807187499768,
                    "velocity": 0.2992125984251969,
                    "duration": 0.0447761249999985
                },
                {
                    "name": "F3",
                    "midi": 53,
                    "time": 97.43284799999768,
                    "velocity": 0.33858267716535434,
                    "duration": 0.05970150000000274
                },
                {
                    "name": "C#3",
                    "midi": 49,
                    "time": 97.47762412499767,
                    "velocity": 0.29133858267716534,
                    "duration": 0.05970150000000274
                },
                {
                    "name": "F3",
                    "midi": 53,
                    "time": 97.52240024999767,
                    "velocity": 0.3228346456692913,
                    "duration": 0.05970150000000274
                },
                {
                    "name": "C#3",
                    "midi": 49,
                    "time": 97.56717637499767,
                    "velocity": 0.28346456692913385,
                    "duration": 0.05970150000000274
                },
                {
                    "name": "F3",
                    "midi": 53,
                    "time": 97.61195249999767,
                    "velocity": 0.30708661417322836,
                    "duration": 0.05970150000000274
                },
                {
                    "name": "C#3",
                    "midi": 49,
                    "time": 97.65672862499767,
                    "velocity": 0.28346456692913385,
                    "duration": 0.05970150000000274
                },
                {
                    "name": "F3",
                    "midi": 53,
                    "time": 97.70150474999767,
                    "velocity": 0.2992125984251969,
                    "duration": 0.05970150000000274
                },
                {
                    "name": "C#3",
                    "midi": 49,
                    "time": 97.74628087499767,
                    "velocity": 0.2755905511811024,
                    "duration": 0.0447761249999985
                },
                {
                    "name": "E3",
                    "midi": 52,
                    "time": 97.79105699999766,
                    "velocity": 0.2992125984251969,
                    "duration": 0.05970150000000274
                },
                {
                    "name": "C3",
                    "midi": 48,
                    "time": 97.83583312499766,
                    "velocity": 0.2677165354330709,
                    "duration": 0.05970150000000274
                },
                {
                    "name": "E3",
                    "midi": 52,
                    "time": 97.88060924999766,
                    "velocity": 0.29133858267716534,
                    "duration": 0.05970150000000274
                },
                {
                    "name": "C3",
                    "midi": 48,
                    "time": 97.92538537499766,
                    "velocity": 0.25984251968503935,
                    "duration": 0.05970150000000274
                },
                {
                    "name": "E3",
                    "midi": 52,
                    "time": 97.97016149999766,
                    "velocity": 0.28346456692913385,
                    "duration": 0.05970150000000274
                },
                {
                    "name": "C3",
                    "midi": 48,
                    "time": 98.01493762499766,
                    "velocity": 0.25196850393700787,
                    "duration": 0.05970150000000274
                },
                {
                    "name": "E3",
                    "midi": 52,
                    "time": 98.05971374999766,
                    "velocity": 0.2755905511811024,
                    "duration": 0.05970150000000274
                },
                {
                    "name": "C3",
                    "midi": 48,
                    "time": 98.10448987499765,
                    "velocity": 0.2440944881889764,
                    "duration": 0.0447761249999985
                },
                {
                    "name": "E5",
                    "midi": 76,
                    "time": 99.49254974999765,
                    "velocity": 0.5118110236220472,
                    "duration": 0.089552249999997
                },
                {
                    "name": "E4",
                    "midi": 64,
                    "time": 99.49254974999765,
                    "velocity": 0.5118110236220472,
                    "duration": 0.089552249999997
                },
                {
                    "name": "E6",
                    "midi": 88,
                    "time": 99.58210199999765,
                    "velocity": 0.5669291338582677,
                    "duration": 0.5373134999999962
                },
                {
                    "name": "E5",
                    "midi": 76,
                    "time": 99.58210199999765,
                    "velocity": 0.5669291338582677,
                    "duration": 0.5373134999999962
                },
                {
                    "name": "E5",
                    "midi": 76,
                    "time": 100.92538574999764,
                    "velocity": 0.5118110236220472,
                    "duration": 0.089552249999997
                },
                {
                    "name": "E4",
                    "midi": 64,
                    "time": 100.92538574999764,
                    "velocity": 0.5118110236220472,
                    "duration": 0.089552249999997
                },
                {
                    "name": "E6",
                    "midi": 88,
                    "time": 101.01493799999764,
                    "velocity": 0.5669291338582677,
                    "duration": 0.5373134999999962
                },
                {
                    "name": "E5",
                    "midi": 76,
                    "time": 101.01493799999764,
                    "velocity": 0.5669291338582677,
                    "duration": 0.5373134999999962
                },
                {
                    "name": "G3",
                    "midi": 55,
                    "time": 103.88060999999763,
                    "velocity": 0.6771653543307087,
                    "duration": 0.3582090000000022
                },
                {
                    "name": "G3",
                    "midi": 55,
                    "time": 105.31344599999764,
                    "velocity": 0.6771653543307087,
                    "duration": 0.3582090000000022
                },
                {
                    "name": "G3",
                    "midi": 55,
                    "time": 105.67165499999764,
                    "velocity": 0.6456692913385826,
                    "duration": 0.3582090000000022
                },
                {
                    "name": "G3",
                    "midi": 55,
                    "time": 106.74628199999765,
                    "velocity": 0.6771653543307087,
                    "duration": 0.3582090000000022
                },
                {
                    "name": "G3",
                    "midi": 55,
                    "time": 107.10449099999765,
                    "velocity": 0.6456692913385826,
                    "duration": 0.3582090000000022
                },
                {
                    "name": "G3",
                    "midi": 55,
                    "time": 107.46269999999765,
                    "velocity": 0.7480314960629921,
                    "duration": 0.358208999999988
                },
                {
                    "name": "G#3",
                    "midi": 56,
                    "time": 107.64180449999765,
                    "velocity": 0.6692913385826772,
                    "duration": 0.089552249999997
                },
                {
                    "name": "G3",
                    "midi": 55,
                    "time": 107.82090899999764,
                    "velocity": 0.6535433070866141,
                    "duration": 0.358208999999988
                },
                {
                    "name": "F4",
                    "midi": 65,
                    "time": 108.00001349999764,
                    "velocity": 0.6062992125984252,
                    "duration": 0.089552249999997
                },
                {
                    "name": "G3",
                    "midi": 55,
                    "time": 108.17911799999763,
                    "velocity": 0.6692913385826772,
                    "duration": 0.3582090000000022
                },
                {
                    "name": "G3",
                    "midi": 55,
                    "time": 108.53732699999763,
                    "velocity": 0.6535433070866141,
                    "duration": 0.3582090000000022
                },
                {
                    "name": "G3",
                    "midi": 55,
                    "time": 108.89553599999763,
                    "velocity": 0.7401574803149606,
                    "duration": 0.358208999999988
                },
                {
                    "name": "G#3",
                    "midi": 56,
                    "time": 109.07464049999763,
                    "velocity": 0.6614173228346457,
                    "duration": 0.179104499999994
                },
                {
                    "name": "G3",
                    "midi": 55,
                    "time": 109.25374499999762,
                    "velocity": 0.6535433070866141,
                    "duration": 0.358208999999988
                },
                {
                    "name": "C#4",
                    "midi": 61,
                    "time": 109.43284949999762,
                    "velocity": 0.6062992125984252,
                    "duration": 0.089552249999997
                },
                {
                    "name": "G3",
                    "midi": 55,
                    "time": 109.61195399999761,
                    "velocity": 0.6299212598425197,
                    "duration": 0.3582090000000022
                },
                {
                    "name": "G3",
                    "midi": 55,
                    "time": 109.97016299999761,
                    "velocity": 0.6141732283464567,
                    "duration": 0.3582090000000022
                },
                {
                    "name": "G3",
                    "midi": 55,
                    "time": 110.32837199999761,
                    "velocity": 0.6377952755905512,
                    "duration": 0.3582090000000022
                },
                {
                    "name": "G3",
                    "midi": 55,
                    "time": 110.68658099999762,
                    "velocity": 0.6692913385826772,
                    "duration": 0.3582090000000022
                },
                {
                    "name": "G3",
                    "midi": 55,
                    "time": 111.04478999999762,
                    "velocity": 0.5590551181102362,
                    "duration": 0.089552249999997
                },
                {
                    "name": "C4",
                    "midi": 60,
                    "time": 111.22389449999761,
                    "velocity": 0.5118110236220472,
                    "duration": 0.089552249999997
                },
                {
                    "name": "G#3",
                    "midi": 56,
                    "time": 111.4029989999976,
                    "velocity": 0.6614173228346457,
                    "duration": 0.089552249999997
                },
                {
                    "name": "C#4",
                    "midi": 61,
                    "time": 111.5821034999976,
                    "velocity": 0.5748031496062992,
                    "duration": 0.089552249999997
                },
                {
                    "name": "A3",
                    "midi": 57,
                    "time": 111.7612079999976,
                    "velocity": 0.5669291338582677,
                    "duration": 0.089552249999997
                },
                {
                    "name": "D4",
                    "midi": 62,
                    "time": 111.94031249999759,
                    "velocity": 0.5590551181102362,
                    "duration": 0.089552249999997
                },
                {
                    "name": "A#3",
                    "midi": 58,
                    "time": 112.11941699999758,
                    "velocity": 0.6377952755905512,
                    "duration": 0.089552249999997
                },
                {
                    "name": "D#4",
                    "midi": 63,
                    "time": 112.29852149999758,
                    "velocity": 0.5511811023622047,
                    "duration": 0.089552249999997
                },
                {
                    "name": "G3",
                    "midi": 55,
                    "time": 112.47762599999757,
                    "velocity": 0.5748031496062992,
                    "duration": 0.089552249999997
                },
                {
                    "name": "C4",
                    "midi": 60,
                    "time": 112.65673049999756,
                    "velocity": 0.5354330708661418,
                    "duration": 0.089552249999997
                },
                {
                    "name": "G#3",
                    "midi": 56,
                    "time": 112.83583499999756,
                    "velocity": 0.6929133858267716,
                    "duration": 0.089552249999997
                },
                {
                    "name": "C#4",
                    "midi": 61,
                    "time": 113.01493949999755,
                    "velocity": 0.6062992125984252,
                    "duration": 0.089552249999997
                },
                {
                    "name": "A3",
                    "midi": 57,
                    "time": 113.19404399999755,
                    "velocity": 0.6220472440944882,
                    "duration": 0.089552249999997
                },
                {
                    "name": "D4",
                    "midi": 62,
                    "time": 113.37314849999754,
                    "velocity": 0.5826771653543307,
                    "duration": 0.089552249999997
                },
                {
                    "name": "A#3",
                    "midi": 58,
                    "time": 113.55225299999753,
                    "velocity": 0.6850393700787402,
                    "duration": 0.089552249999997
                },
                {
                    "name": "D#4",
                    "midi": 63,
                    "time": 113.73135749999753,
                    "velocity": 0.5826771653543307,
                    "duration": 0.089552249999997
                },
                {
                    "name": "F6",
                    "midi": 89,
                    "time": 113.86568587499752,
                    "velocity": 0.4881889763779528,
                    "duration": 0.0447761249999985
                },
                {
                    "name": "E5",
                    "midi": 76,
                    "time": 113.91046199999752,
                    "velocity": 0.5039370078740157,
                    "duration": 0.089552249999997
                },
                {
                    "name": "C6",
                    "midi": 84,
                    "time": 113.91046199999752,
                    "velocity": 0.5984251968503937,
                    "duration": 0.089552249999997
                },
                {
                    "name": "E6",
                    "midi": 88,
                    "time": 113.91046199999752,
                    "velocity": 0.5984251968503937,
                    "duration": 0.089552249999997
                },
                {
                    "name": "D#6",
                    "midi": 87,
                    "time": 114.22389487499753,
                    "velocity": 0.47244094488188976,
                    "duration": 0.0447761249999985
                },
                {
                    "name": "G#5",
                    "midi": 80,
                    "time": 114.26867099999752,
                    "velocity": 0.5669291338582677,
                    "duration": 0.089552249999997
                },
                {
                    "name": "C#6",
                    "midi": 85,
                    "time": 114.26867099999752,
                    "velocity": 0.5669291338582677,
                    "duration": 0.089552249999997
                },
                {
                    "name": "F5",
                    "midi": 77,
                    "time": 114.26867099999752,
                    "velocity": 0.48031496062992124,
                    "duration": 0.089552249999997
                },
                {
                    "name": "D6",
                    "midi": 86,
                    "time": 114.58210387499753,
                    "velocity": 0.4566929133858268,
                    "duration": 0.0447761249999985
                },
                {
                    "name": "F#5",
                    "midi": 78,
                    "time": 114.62687999999753,
                    "velocity": 0.5669291338582677,
                    "duration": 0.089552249999997
                },
                {
                    "name": "D5",
                    "midi": 74,
                    "time": 114.62687999999753,
                    "velocity": 0.48031496062992124,
                    "duration": 0.089552249999997
                },
                {
                    "name": "C6",
                    "midi": 84,
                    "time": 114.62687999999753,
                    "velocity": 0.5669291338582677,
                    "duration": 0.089552249999997
                },
                {
                    "name": "C6",
                    "midi": 84,
                    "time": 114.94031287499753,
                    "velocity": 0.4330708661417323,
                    "duration": 0.0447761249999985
                },
                {
                    "name": "A#5",
                    "midi": 82,
                    "time": 114.98508899999753,
                    "velocity": 0.5433070866141733,
                    "duration": 0.089552249999997
                },
                {
                    "name": "G5",
                    "midi": 79,
                    "time": 114.98508899999753,
                    "velocity": 0.5433070866141733,
                    "duration": 0.089552249999997
                },
                {
                    "name": "A#4",
                    "midi": 70,
                    "time": 114.98508899999753,
                    "velocity": 0.4566929133858268,
                    "duration": 0.089552249999997
                },
                {
                    "name": "F5",
                    "midi": 77,
                    "time": 115.29852187499753,
                    "velocity": 0.4566929133858268,
                    "duration": 0.0447761249999985
                },
                {
                    "name": "E4",
                    "midi": 64,
                    "time": 115.34329799999753,
                    "velocity": 0.48031496062992124,
                    "duration": 0.089552249999997
                },
                {
                    "name": "C5",
                    "midi": 72,
                    "time": 115.34329799999753,
                    "velocity": 0.5669291338582677,
                    "duration": 0.089552249999997
                },
                {
                    "name": "E5",
                    "midi": 76,
                    "time": 115.34329799999753,
                    "velocity": 0.5669291338582677,
                    "duration": 0.089552249999997
                },
                {
                    "name": "D#5",
                    "midi": 75,
                    "time": 115.65673087499754,
                    "velocity": 0.4409448818897638,
                    "duration": 0.0447761249999985
                },
                {
                    "name": "G#4",
                    "midi": 68,
                    "time": 115.70150699999753,
                    "velocity": 0.5354330708661418,
                    "duration": 0.089552249999997
                },
                {
                    "name": "C#5",
                    "midi": 73,
                    "time": 115.70150699999753,
                    "velocity": 0.5354330708661418,
                    "duration": 0.089552249999997
                },
                {
                    "name": "F4",
                    "midi": 65,
                    "time": 115.70150699999753,
                    "velocity": 0.44881889763779526,
                    "duration": 0.089552249999997
                },
                {
                    "name": "D5",
                    "midi": 74,
                    "time": 116.01493987499754,
                    "velocity": 0.4251968503937008,
                    "duration": 0.0447761249999985
                },
                {
                    "name": "D4",
                    "midi": 62,
                    "time": 116.05971599999754,
                    "velocity": 0.44881889763779526,
                    "duration": 0.089552249999997
                },
                {
                    "name": "F#4",
                    "midi": 66,
                    "time": 116.05971599999754,
                    "velocity": 0.5354330708661418,
                    "duration": 0.089552249999997
                },
                {
                    "name": "C5",
                    "midi": 72,
                    "time": 116.05971599999754,
                    "velocity": 0.5354330708661418,
                    "duration": 0.089552249999997
                },
                {
                    "name": "C5",
                    "midi": 72,
                    "time": 116.37314887499754,
                    "velocity": 0.4094488188976378,
                    "duration": 0.0447761249999985
                },
                {
                    "name": "A#3",
                    "midi": 58,
                    "time": 116.41792499999754,
                    "velocity": 0.4330708661417323,
                    "duration": 0.089552249999997
                },
                {
                    "name": "A#4",
                    "midi": 70,
                    "time": 116.41792499999754,
                    "velocity": 0.5118110236220472,
                    "duration": 0.089552249999997
                },
                {
                    "name": "G4",
                    "midi": 67,
                    "time": 116.41792499999754,
                    "velocity": 0.5118110236220472,
                    "duration": 0.089552249999997
                },
                {
                    "name": "G3",
                    "midi": 55,
                    "time": 116.77613399999754,
                    "velocity": 0.5984251968503937,
                    "duration": 0.089552249999997
                },
                {
                    "name": "C4",
                    "midi": 60,
                    "time": 116.95523849999753,
                    "velocity": 0.5511811023622047,
                    "duration": 0.089552249999997
                },
                {
                    "name": "G#3",
                    "midi": 56,
                    "time": 117.13434299999753,
                    "velocity": 0.7086614173228346,
                    "duration": 0.089552249999997
                },
                {
                    "name": "C#4",
                    "midi": 61,
                    "time": 117.31344749999752,
                    "velocity": 0.6299212598425197,
                    "duration": 0.089552249999997
                },
                {
                    "name": "A3",
                    "midi": 57,
                    "time": 117.49255199999752,
                    "velocity": 0.6141732283464567,
                    "duration": 0.089552249999997
                },
                {
                    "name": "D4",
                    "midi": 62,
                    "time": 117.67165649999751,
                    "velocity": 0.6062992125984252,
                    "duration": 0.089552249999997
                },
                {
                    "name": "A#3",
                    "midi": 58,
                    "time": 117.8507609999975,
                    "velocity": 0.7007874015748031,
                    "duration": 0.089552249999997
                },
                {
                    "name": "D#4",
                    "midi": 63,
                    "time": 118.0298654999975,
                    "velocity": 0.5984251968503937,
                    "duration": 0.089552249999997
                },
                {
                    "name": "G3",
                    "midi": 55,
                    "time": 118.20896999999749,
                    "velocity": 0.6377952755905512,
                    "duration": 0.089552249999997
                },
                {
                    "name": "C4",
                    "midi": 60,
                    "time": 118.38807449999749,
                    "velocity": 0.5905511811023622,
                    "duration": 0.089552249999997
                },
                {
                    "name": "G#3",
                    "midi": 56,
                    "time": 118.56717899999748,
                    "velocity": 0.7795275590551181,
                    "duration": 0.089552249999997
                },
                {
                    "name": "C#4",
                    "midi": 61,
                    "time": 118.74628349999747,
                    "velocity": 0.6771653543307087,
                    "duration": 0.089552249999997
                },
                {
                    "name": "A3",
                    "midi": 57,
                    "time": 118.92538799999747,
                    "velocity": 0.6929133858267716,
                    "duration": 0.089552249999997
                },
                {
                    "name": "D4",
                    "midi": 62,
                    "time": 119.10449249999746,
                    "velocity": 0.6535433070866141,
                    "duration": 0.089552249999997
                },
                {
                    "name": "A#3",
                    "midi": 58,
                    "time": 119.28359699999746,
                    "velocity": 0.7795275590551181,
                    "duration": 0.089552249999997
                },
                {
                    "name": "D#4",
                    "midi": 63,
                    "time": 119.46270149999745,
                    "velocity": 0.6614173228346457,
                    "duration": 0.089552249999997
                },
                {
                    "name": "G4",
                    "midi": 67,
                    "time": 119.64180599999744,
                    "velocity": 0.6220472440944882,
                    "duration": 0.179104499999994
                },
                {
                    "name": "C4",
                    "midi": 60,
                    "time": 119.64180599999744,
                    "velocity": 0.5275590551181102,
                    "duration": 0.179104499999994
                },
                {
                    "name": "E4",
                    "midi": 64,
                    "time": 119.64180599999744,
                    "velocity": 0.5275590551181102,
                    "duration": 0.179104499999994
                },
                {
                    "name": "C5",
                    "midi": 72,
                    "time": 119.64180599999744,
                    "velocity": 0.6220472440944882,
                    "duration": 0.179104499999994
                },
                {
                    "name": "C5",
                    "midi": 72,
                    "time": 120.00001499999743,
                    "velocity": 0.48031496062992124,
                    "duration": 0.3582090000000022
                },
                {
                    "name": "G5",
                    "midi": 79,
                    "time": 120.00001499999743,
                    "velocity": 0.5669291338582677,
                    "duration": 0.3582090000000022
                },
                {
                    "name": "E5",
                    "midi": 76,
                    "time": 120.00001499999743,
                    "velocity": 0.5669291338582677,
                    "duration": 0.3582090000000022
                },
                {
                    "name": "G4",
                    "midi": 67,
                    "time": 120.00001499999743,
                    "velocity": 0.48031496062992124,
                    "duration": 0.3582090000000022
                },
                {
                    "name": "G4",
                    "midi": 67,
                    "time": 120.35822399999743,
                    "velocity": 0.49606299212598426,
                    "duration": 0.3582090000000022
                },
                {
                    "name": "G5",
                    "midi": 79,
                    "time": 120.35822399999743,
                    "velocity": 0.5905511811023622,
                    "duration": 0.3582090000000022
                },
                {
                    "name": "C5",
                    "midi": 72,
                    "time": 120.35822399999743,
                    "velocity": 0.49606299212598426,
                    "duration": 0.3582090000000022
                },
                {
                    "name": "E5",
                    "midi": 76,
                    "time": 120.35822399999743,
                    "velocity": 0.5905511811023622,
                    "duration": 0.3582090000000022
                },
                {
                    "name": "G4",
                    "midi": 67,
                    "time": 120.71643299999744,
                    "velocity": 0.48031496062992124,
                    "duration": 0.3134328750000037
                },
                {
                    "name": "G5",
                    "midi": 79,
                    "time": 120.71643299999744,
                    "velocity": 0.5669291338582677,
                    "duration": 0.3134328750000037
                },
                {
                    "name": "C5",
                    "midi": 72,
                    "time": 120.71643299999744,
                    "velocity": 0.48031496062992124,
                    "duration": 0.3134328750000037
                },
                {
                    "name": "E5",
                    "midi": 76,
                    "time": 120.71643299999744,
                    "velocity": 0.5669291338582677,
                    "duration": 0.3134328750000037
                },
                {
                    "name": "G#4",
                    "midi": 68,
                    "time": 121.02986587499744,
                    "velocity": 0.4251968503937008,
                    "duration": 0.0447761249999985
                },
                {
                    "name": "G#5",
                    "midi": 80,
                    "time": 121.02986587499744,
                    "velocity": 0.5039370078740157,
                    "duration": 0.0447761249999985
                },
                {
                    "name": "G4",
                    "midi": 67,
                    "time": 121.07464199999744,
                    "velocity": 0.48031496062992124,
                    "duration": 0.179104499999994
                },
                {
                    "name": "G5",
                    "midi": 79,
                    "time": 121.07464199999744,
                    "velocity": 0.5669291338582677,
                    "duration": 0.179104499999994
                },
                {
                    "name": "E4",
                    "midi": 64,
                    "time": 121.43285099999743,
                    "velocity": 0.4566929133858268,
                    "duration": 0.3582090000000022
                },
                {
                    "name": "C4",
                    "midi": 60,
                    "time": 121.43285099999743,
                    "velocity": 0.4566929133858268,
                    "duration": 0.3582090000000022
                },
                {
                    "name": "G4",
                    "midi": 67,
                    "time": 121.43285099999743,
                    "velocity": 0.5433070866141733,
                    "duration": 0.3582090000000022
                },
                {
                    "name": "C5",
                    "midi": 72,
                    "time": 121.43285099999743,
                    "velocity": 0.5433070866141733,
                    "duration": 0.3582090000000022
                },
                {
                    "name": "D4",
                    "midi": 62,
                    "time": 121.79105999999743,
                    "velocity": 0.4881889763779528,
                    "duration": 0.5373134999999962
                },
                {
                    "name": "D5",
                    "midi": 74,
                    "time": 121.79105999999743,
                    "velocity": 0.5748031496062992,
                    "duration": 0.5373134999999962
                },
                {
                    "name": "F4",
                    "midi": 65,
                    "time": 121.79105999999743,
                    "velocity": 0.4881889763779528,
                    "duration": 0.5373134999999962
                },
                {
                    "name": "G#4",
                    "midi": 68,
                    "time": 121.79105999999743,
                    "velocity": 0.5748031496062992,
                    "duration": 0.5373134999999962
                },
                {
                    "name": "G4",
                    "midi": 67,
                    "time": 122.50747799999742,
                    "velocity": 0.6220472440944882,
                    "duration": 0.179104499999994
                },
                {
                    "name": "C5",
                    "midi": 72,
                    "time": 122.50747799999742,
                    "velocity": 0.6220472440944882,
                    "duration": 0.179104499999994
                },
                {
                    "name": "E4",
                    "midi": 64,
                    "time": 122.50747799999742,
                    "velocity": 0.5275590551181102,
                    "duration": 0.179104499999994
                },
                {
                    "name": "C4",
                    "midi": 60,
                    "time": 122.50747799999742,
                    "velocity": 0.5275590551181102,
                    "duration": 0.179104499999994
                },
                {
                    "name": "C5",
                    "midi": 72,
                    "time": 122.86568699999741,
                    "velocity": 0.48031496062992124,
                    "duration": 0.3582090000000022
                },
                {
                    "name": "G4",
                    "midi": 67,
                    "time": 122.86568699999741,
                    "velocity": 0.48031496062992124,
                    "duration": 0.3582090000000022
                },
                {
                    "name": "G5",
                    "midi": 79,
                    "time": 122.86568699999741,
                    "velocity": 0.5669291338582677,
                    "duration": 0.3582090000000022
                },
                {
                    "name": "E5",
                    "midi": 76,
                    "time": 122.86568699999741,
                    "velocity": 0.5669291338582677,
                    "duration": 0.3582090000000022
                },
                {
                    "name": "E5",
                    "midi": 76,
                    "time": 123.22389599999741,
                    "velocity": 0.5905511811023622,
                    "duration": 0.3582090000000022
                },
                {
                    "name": "G5",
                    "midi": 79,
                    "time": 123.22389599999741,
                    "velocity": 0.5905511811023622,
                    "duration": 0.3582090000000022
                },
                {
                    "name": "C5",
                    "midi": 72,
                    "time": 123.22389599999741,
                    "velocity": 0.49606299212598426,
                    "duration": 0.3582090000000022
                },
                {
                    "name": "G4",
                    "midi": 67,
                    "time": 123.22389599999741,
                    "velocity": 0.49606299212598426,
                    "duration": 0.3582090000000022
                },
                {
                    "name": "E5",
                    "midi": 76,
                    "time": 123.58210499999741,
                    "velocity": 0.5669291338582677,
                    "duration": 0.3134328750000037
                },
                {
                    "name": "G4",
                    "midi": 67,
                    "time": 123.58210499999741,
                    "velocity": 0.48031496062992124,
                    "duration": 0.3134328750000037
                },
                {
                    "name": "C5",
                    "midi": 72,
                    "time": 123.58210499999741,
                    "velocity": 0.48031496062992124,
                    "duration": 0.3134328750000037
                },
                {
                    "name": "G5",
                    "midi": 79,
                    "time": 123.58210499999741,
                    "velocity": 0.5669291338582677,
                    "duration": 0.3134328750000037
                },
                {
                    "name": "A5",
                    "midi": 81,
                    "time": 123.89553787499742,
                    "velocity": 0.5039370078740157,
                    "duration": 0.0447761249999985
                },
                {
                    "name": "A4",
                    "midi": 69,
                    "time": 123.89553787499742,
                    "velocity": 0.4251968503937008,
                    "duration": 0.0447761249999985
                },
                {
                    "name": "G4",
                    "midi": 67,
                    "time": 123.94031399999741,
                    "velocity": 0.48031496062992124,
                    "duration": 0.179104499999994
                },
                {
                    "name": "G5",
                    "midi": 79,
                    "time": 123.94031399999741,
                    "velocity": 0.5669291338582677,
                    "duration": 0.179104499999994
                },
                {
                    "name": "C4",
                    "midi": 60,
                    "time": 124.2985229999974,
                    "velocity": 0.4566929133858268,
                    "duration": 0.3582090000000022
                },
                {
                    "name": "C5",
                    "midi": 72,
                    "time": 124.2985229999974,
                    "velocity": 0.5433070866141733,
                    "duration": 0.3582090000000022
                },
                {
                    "name": "E4",
                    "midi": 64,
                    "time": 124.2985229999974,
                    "velocity": 0.4566929133858268,
                    "duration": 0.3582090000000022
                },
                {
                    "name": "G4",
                    "midi": 67,
                    "time": 124.2985229999974,
                    "velocity": 0.5433070866141733,
                    "duration": 0.3582090000000022
                },
                {
                    "name": "A4",
                    "midi": 69,
                    "time": 124.6567319999974,
                    "velocity": 0.5748031496062992,
                    "duration": 0.5373134999999962
                },
                {
                    "name": "D4",
                    "midi": 62,
                    "time": 124.6567319999974,
                    "velocity": 0.4881889763779528,
                    "duration": 0.5373134999999962
                },
                {
                    "name": "F#4",
                    "midi": 66,
                    "time": 124.6567319999974,
                    "velocity": 0.4881889763779528,
                    "duration": 0.5373134999999962
                },
                {
                    "name": "D5",
                    "midi": 74,
                    "time": 124.6567319999974,
                    "velocity": 0.5748031496062992,
                    "duration": 0.5373134999999962
                },
                {
                    "name": "D#5",
                    "midi": 75,
                    "time": 125.3731499999974,
                    "velocity": 0.6535433070866141,
                    "duration": 0.179104499999994
                },
                {
                    "name": "A4",
                    "midi": 69,
                    "time": 125.3731499999974,
                    "velocity": 0.5511811023622047,
                    "duration": 0.179104499999994
                },
                {
                    "name": "F#5",
                    "midi": 78,
                    "time": 125.3731499999974,
                    "velocity": 0.6535433070866141,
                    "duration": 0.179104499999994
                },
                {
                    "name": "D#5",
                    "midi": 75,
                    "time": 125.73135899999738,
                    "velocity": 0.48031496062992124,
                    "duration": 0.3582090000000022
                },
                {
                    "name": "A4",
                    "midi": 69,
                    "time": 125.73135899999738,
                    "velocity": 0.48031496062992124,
                    "duration": 0.3582090000000022
                },
                {
                    "name": "A5",
                    "midi": 81,
                    "time": 125.73135899999738,
                    "velocity": 0.5669291338582677,
                    "duration": 0.3582090000000022
                },
                {
                    "name": "F#5",
                    "midi": 78,
                    "time": 125.73135899999738,
                    "velocity": 0.5669291338582677,
                    "duration": 0.3582090000000022
                },
                {
                    "name": "D#5",
                    "midi": 75,
                    "time": 126.08956799999739,
                    "velocity": 0.49606299212598426,
                    "duration": 0.3582090000000022
                },
                {
                    "name": "A5",
                    "midi": 81,
                    "time": 126.08956799999739,
                    "velocity": 0.5905511811023622,
                    "duration": 0.3582090000000022
                },
                {
                    "name": "F#5",
                    "midi": 78,
                    "time": 126.08956799999739,
                    "velocity": 0.5905511811023622,
                    "duration": 0.3582090000000022
                },
                {
                    "name": "A4",
                    "midi": 69,
                    "time": 126.08956799999739,
                    "velocity": 0.49606299212598426,
                    "duration": 0.3582090000000022
                },
                {
                    "name": "A4",
                    "midi": 69,
                    "time": 126.44777699999739,
                    "velocity": 0.48031496062992124,
                    "duration": 0.3582090000000022
                },
                {
                    "name": "A5",
                    "midi": 81,
                    "time": 126.44777699999739,
                    "velocity": 0.5669291338582677,
                    "duration": 0.3582090000000022
                },
                {
                    "name": "D#5",
                    "midi": 75,
                    "time": 126.44777699999739,
                    "velocity": 0.48031496062992124,
                    "duration": 0.3582090000000022
                },
                {
                    "name": "F#5",
                    "midi": 78,
                    "time": 126.44777699999739,
                    "velocity": 0.5669291338582677,
                    "duration": 0.3582090000000022
                },
                {
                    "name": "A#5",
                    "midi": 82,
                    "time": 126.80598599999739,
                    "velocity": 0.5433070866141733,
                    "duration": 0.179104499999994
                },
                {
                    "name": "G6",
                    "midi": 91,
                    "time": 126.80598599999739,
                    "velocity": 0.6456692913385826,
                    "duration": 0.179104499999994
                },
                {
                    "name": "D#6",
                    "midi": 87,
                    "time": 126.80598599999739,
                    "velocity": 0.6456692913385826,
                    "duration": 0.179104499999994
                },
                {
                    "name": "G5",
                    "midi": 79,
                    "time": 126.80598599999739,
                    "velocity": 0.5433070866141733,
                    "duration": 0.179104499999994
                },
                {
                    "name": "D6",
                    "midi": 86,
                    "time": 126.98509049999738,
                    "velocity": 0.5669291338582677,
                    "duration": 0.179104499999994
                },
                {
                    "name": "D5",
                    "midi": 74,
                    "time": 126.98509049999738,
                    "velocity": 0.48031496062992124,
                    "duration": 0.179104499999994
                },
                {
                    "name": "D#6",
                    "midi": 87,
                    "time": 127.16419499999738,
                    "velocity": 0.6062992125984252,
                    "duration": 0.179104499999994
                },
                {
                    "name": "D#5",
                    "midi": 75,
                    "time": 127.16419499999738,
                    "velocity": 0.5118110236220472,
                    "duration": 0.179104499999994
                },
                {
                    "name": "A#4",
                    "midi": 70,
                    "time": 127.34329949999737,
                    "velocity": 0.48031496062992124,
                    "duration": 0.179104499999994
                },
                {
                    "name": "A#5",
                    "midi": 82,
                    "time": 127.34329949999737,
                    "velocity": 0.5669291338582677,
                    "duration": 0.179104499999994
                },
                {
                    "name": "D#6",
                    "midi": 87,
                    "time": 127.52240399999737,
                    "velocity": 0.6299212598425197,
                    "duration": 0.179104499999994
                },
                {
                    "name": "G5",
                    "midi": 79,
                    "time": 127.52240399999737,
                    "velocity": 0.5354330708661418,
                    "duration": 0.179104499999994
                },
                {
                    "name": "A#5",
                    "midi": 82,
                    "time": 127.52240399999737,
                    "velocity": 0.5354330708661418,
                    "duration": 0.179104499999994
                },
                {
                    "name": "G6",
                    "midi": 91,
                    "time": 127.52240399999737,
                    "velocity": 0.6299212598425197,
                    "duration": 0.179104499999994
                },
                {
                    "name": "D5",
                    "midi": 74,
                    "time": 127.70150849999736,
                    "velocity": 0.48031496062992124,
                    "duration": 0.179104499999994
                },
                {
                    "name": "D6",
                    "midi": 86,
                    "time": 127.70150849999736,
                    "velocity": 0.5669291338582677,
                    "duration": 0.179104499999994
                },
                {
                    "name": "D#5",
                    "midi": 75,
                    "time": 127.88061299999735,
                    "velocity": 0.5118110236220472,
                    "duration": 0.17910450000000822
                },
                {
                    "name": "D#6",
                    "midi": 87,
                    "time": 127.88061299999735,
                    "velocity": 0.6062992125984252,
                    "duration": 0.17910450000000822
                },
                {
                    "name": "A#4",
                    "midi": 70,
                    "time": 128.05971749999736,
                    "velocity": 0.48031496062992124,
                    "duration": 0.179104499999994
                },
                {
                    "name": "A#5",
                    "midi": 82,
                    "time": 128.05971749999736,
                    "velocity": 0.5669291338582677,
                    "duration": 0.179104499999994
                },
                {
                    "name": "D#5",
                    "midi": 75,
                    "time": 128.23882199999736,
                    "velocity": 0.6535433070866141,
                    "duration": 0.179104499999994
                },
                {
                    "name": "A4",
                    "midi": 69,
                    "time": 128.23882199999736,
                    "velocity": 0.5511811023622047,
                    "duration": 0.179104499999994
                },
                {
                    "name": "F#5",
                    "midi": 78,
                    "time": 128.23882199999736,
                    "velocity": 0.6535433070866141,
                    "duration": 0.179104499999994
                },
                {
                    "name": "D#5",
                    "midi": 75,
                    "time": 128.59703099999734,
                    "velocity": 0.48031496062992124,
                    "duration": 0.358208999999988
                },
                {
                    "name": "A5",
                    "midi": 81,
                    "time": 128.59703099999734,
                    "velocity": 0.5669291338582677,
                    "duration": 0.358208999999988
                },
                {
                    "name": "F#5",
                    "midi": 78,
                    "time": 128.59703099999734,
                    "velocity": 0.5669291338582677,
                    "duration": 0.358208999999988
                },
                {
                    "name": "A4",
                    "midi": 69,
                    "time": 128.59703099999734,
                    "velocity": 0.48031496062992124,
                    "duration": 0.358208999999988
                },
                {
                    "name": "A4",
                    "midi": 69,
                    "time": 128.95523999999733,
                    "velocity": 0.49606299212598426,
                    "duration": 0.358208999999988
                },
                {
                    "name": "A5",
                    "midi": 81,
                    "time": 128.95523999999733,
                    "velocity": 0.5905511811023622,
                    "duration": 0.358208999999988
                },
                {
                    "name": "D#5",
                    "midi": 75,
                    "time": 128.95523999999733,
                    "velocity": 0.49606299212598426,
                    "duration": 0.358208999999988
                },
                {
                    "name": "F#5",
                    "midi": 78,
                    "time": 128.95523999999733,
                    "velocity": 0.5905511811023622,
                    "duration": 0.358208999999988
                },
                {
                    "name": "F#5",
                    "midi": 78,
                    "time": 129.31344899999732,
                    "velocity": 0.5669291338582677,
                    "duration": 0.358208999999988
                },
                {
                    "name": "A4",
                    "midi": 69,
                    "time": 129.31344899999732,
                    "velocity": 0.48031496062992124,
                    "duration": 0.358208999999988
                },
                {
                    "name": "D#5",
                    "midi": 75,
                    "time": 129.31344899999732,
                    "velocity": 0.48031496062992124,
                    "duration": 0.358208999999988
                },
                {
                    "name": "A5",
                    "midi": 81,
                    "time": 129.31344899999732,
                    "velocity": 0.5669291338582677,
                    "duration": 0.358208999999988
                },
                {
                    "name": "D#6",
                    "midi": 87,
                    "time": 129.6716579999973,
                    "velocity": 0.5433070866141733,
                    "duration": 0.179104499999994
                },
                {
                    "name": "A#6",
                    "midi": 94,
                    "time": 129.6716579999973,
                    "velocity": 0.6456692913385826,
                    "duration": 0.179104499999994
                },
                {
                    "name": "A#5",
                    "midi": 82,
                    "time": 129.6716579999973,
                    "velocity": 0.5433070866141733,
                    "duration": 0.179104499999994
                },
                {
                    "name": "G6",
                    "midi": 91,
                    "time": 129.6716579999973,
                    "velocity": 0.6456692913385826,
                    "duration": 0.179104499999994
                },
                {
                    "name": "A#6",
                    "midi": 94,
                    "time": 130.0298669999973,
                    "velocity": 0.6299212598425197,
                    "duration": 0.179104499999994
                },
                {
                    "name": "A#5",
                    "midi": 82,
                    "time": 130.0298669999973,
                    "velocity": 0.5354330708661418,
                    "duration": 0.179104499999994
                },
                {
                    "name": "F6",
                    "midi": 89,
                    "time": 130.2089714999973,
                    "velocity": 0.5669291338582677,
                    "duration": 0.179104499999994
                },
                {
                    "name": "F5",
                    "midi": 77,
                    "time": 130.2089714999973,
                    "velocity": 0.48031496062992124,
                    "duration": 0.179104499999994
                },
                {
                    "name": "G6",
                    "midi": 91,
                    "time": 130.38807599999728,
                    "velocity": 0.5748031496062992,
                    "duration": 0.179104499999994
                },
                {
                    "name": "G5",
                    "midi": 79,
                    "time": 130.38807599999728,
                    "velocity": 0.4881889763779528,
                    "duration": 0.179104499999994
                },
                {
                    "name": "D#6",
                    "midi": 87,
                    "time": 130.38807599999728,
                    "velocity": 0.5748031496062992,
                    "duration": 0.179104499999994
                },
                {
                    "name": "A#5",
                    "midi": 82,
                    "time": 130.38807599999728,
                    "velocity": 0.4881889763779528,
                    "duration": 0.179104499999994
                },
                {
                    "name": "D#5",
                    "midi": 75,
                    "time": 130.56718049999728,
                    "velocity": 0.4566929133858268,
                    "duration": 0.179104499999994
                },
                {
                    "name": "D#6",
                    "midi": 87,
                    "time": 130.56718049999728,
                    "velocity": 0.5433070866141733,
                    "duration": 0.179104499999994
                },
                {
                    "name": "D6",
                    "midi": 86,
                    "time": 130.74628499999727,
                    "velocity": 0.6062992125984252,
                    "duration": 0.179104499999994
                },
                {
                    "name": "D5",
                    "midi": 74,
                    "time": 130.74628499999727,
                    "velocity": 0.5118110236220472,
                    "duration": 0.179104499999994
                },
                {
                    "name": "A#5",
                    "midi": 82,
                    "time": 130.92538949999727,
                    "velocity": 0.5669291338582677,
                    "duration": 0.179104499999994
                },
                {
                    "name": "A#4",
                    "midi": 70,
                    "time": 130.92538949999727,
                    "velocity": 0.48031496062992124,
                    "duration": 0.179104499999994
                },
                {
                    "name": "A5",
                    "midi": 81,
                    "time": 131.10449399999726,
                    "velocity": 0.6535433070866141,
                    "duration": 0.179104499999994
                },
                {
                    "name": "B5",
                    "midi": 83,
                    "time": 131.10449399999726,
                    "velocity": 0.6535433070866141,
                    "duration": 0.179104499999994
                },
                {
                    "name": "D#5",
                    "midi": 75,
                    "time": 131.10449399999726,
                    "velocity": 0.5511811023622047,
                    "duration": 0.179104499999994
                },
                {
                    "name": "B4",
                    "midi": 71,
                    "time": 131.10449399999726,
                    "velocity": 0.5511811023622047,
                    "duration": 0.179104499999994
                },
                {
                    "name": "F#5",
                    "midi": 78,
                    "time": 131.46270299999725,
                    "velocity": 0.5669291338582677,
                    "duration": 0.358208999999988
                },
                {
                    "name": "D#5",
                    "midi": 75,
                    "time": 131.46270299999725,
                    "velocity": 0.48031496062992124,
                    "duration": 0.358208999999988
                },
                {
                    "name": "B5",
                    "midi": 83,
                    "time": 131.46270299999725,
                    "velocity": 0.5669291338582677,
                    "duration": 0.358208999999988
                },
                {
                    "name": "D#6",
                    "midi": 87,
                    "time": 131.46270299999725,
                    "velocity": 0.5669291338582677,
                    "duration": 0.358208999999988
                },
                {
                    "name": "D#5",
                    "midi": 75,
                    "time": 131.82091199999724,
                    "velocity": 0.49606299212598426,
                    "duration": 0.358208999999988
                },
                {
                    "name": "D#6",
                    "midi": 87,
                    "time": 131.82091199999724,
                    "velocity": 0.5905511811023622,
                    "duration": 0.358208999999988
                },
                {
                    "name": "F#5",
                    "midi": 78,
                    "time": 131.82091199999724,
                    "velocity": 0.5905511811023622,
                    "duration": 0.358208999999988
                },
                {
                    "name": "B5",
                    "midi": 83,
                    "time": 131.82091199999724,
                    "velocity": 0.5905511811023622,
                    "duration": 0.358208999999988
                },
                {
                    "name": "B5",
                    "midi": 83,
                    "time": 132.17912099999722,
                    "velocity": 0.5669291338582677,
                    "duration": 0.358208999999988
                },
                {
                    "name": "D#6",
                    "midi": 87,
                    "time": 132.17912099999722,
                    "velocity": 0.5669291338582677,
                    "duration": 0.358208999999988
                },
                {
                    "name": "D#5",
                    "midi": 75,
                    "time": 132.17912099999722,
                    "velocity": 0.48031496062992124,
                    "duration": 0.358208999999988
                },
                {
                    "name": "F#5",
                    "midi": 78,
                    "time": 132.17912099999722,
                    "velocity": 0.5669291338582677,
                    "duration": 0.358208999999988
                },
                {
                    "name": "G6",
                    "midi": 91,
                    "time": 132.5373299999972,
                    "velocity": 0.6141732283464567,
                    "duration": 0.179104499999994
                },
                {
                    "name": "G5",
                    "midi": 79,
                    "time": 132.5373299999972,
                    "velocity": 0.5196850393700787,
                    "duration": 0.179104499999994
                },
                {
                    "name": "E6",
                    "midi": 88,
                    "time": 132.5373299999972,
                    "velocity": 0.6141732283464567,
                    "duration": 0.179104499999994
                },
                {
                    "name": "C6",
                    "midi": 84,
                    "time": 132.5373299999972,
                    "velocity": 0.5196850393700787,
                    "duration": 0.179104499999994
                },
                {
                    "name": "D5",
                    "midi": 74,
                    "time": 132.7164344999972,
                    "velocity": 0.48031496062992124,
                    "duration": 0.179104499999994
                },
                {
                    "name": "D6",
                    "midi": 86,
                    "time": 132.7164344999972,
                    "velocity": 0.5669291338582677,
                    "duration": 0.179104499999994
                },
                {
                    "name": "E6",
                    "midi": 88,
                    "time": 132.8955389999972,
                    "velocity": 0.5984251968503937,
                    "duration": 0.179104499999994
                },
                {
                    "name": "E5",
                    "midi": 76,
                    "time": 132.8955389999972,
                    "velocity": 0.5039370078740157,
                    "duration": 0.179104499999994
                },
                {
                    "name": "C6",
                    "midi": 84,
                    "time": 133.0746434999972,
                    "velocity": 0.5275590551181102,
                    "duration": 0.179104499999994
                },
                {
                    "name": "C5",
                    "midi": 72,
                    "time": 133.0746434999972,
                    "velocity": 0.4409448818897638,
                    "duration": 0.179104499999994
                },
                {
                    "name": "C6",
                    "midi": 84,
                    "time": 133.2537479999972,
                    "velocity": 0.6141732283464567,
                    "duration": 0.179104499999994
                },
                {
                    "name": "G5",
                    "midi": 79,
                    "time": 133.2537479999972,
                    "velocity": 0.5196850393700787,
                    "duration": 0.179104499999994
                },
                {
                    "name": "E6",
                    "midi": 88,
                    "time": 133.2537479999972,
                    "velocity": 0.6141732283464567,
                    "duration": 0.179104499999994
                },
                {
                    "name": "G6",
                    "midi": 91,
                    "time": 133.2537479999972,
                    "velocity": 0.6141732283464567,
                    "duration": 0.179104499999994
                },
                {
                    "name": "D6",
                    "midi": 86,
                    "time": 133.43285249999718,
                    "velocity": 0.5354330708661418,
                    "duration": 0.179104499999994
                },
                {
                    "name": "D5",
                    "midi": 74,
                    "time": 133.43285249999718,
                    "velocity": 0.44881889763779526,
                    "duration": 0.179104499999994
                },
                {
                    "name": "E6",
                    "midi": 88,
                    "time": 133.61195699999718,
                    "velocity": 0.5748031496062992,
                    "duration": 0.179104499999994
                },
                {
                    "name": "E5",
                    "midi": 76,
                    "time": 133.61195699999718,
                    "velocity": 0.4881889763779528,
                    "duration": 0.179104499999994
                },
                {
                    "name": "C5",
                    "midi": 72,
                    "time": 133.79106149999717,
                    "velocity": 0.4409448818897638,
                    "duration": 0.179104499999994
                },
                {
                    "name": "C6",
                    "midi": 84,
                    "time": 133.79106149999717,
                    "velocity": 0.5196850393700787,
                    "duration": 0.179104499999994
                },
                {
                    "name": "D#5",
                    "midi": 75,
                    "time": 133.97016599999716,
                    "velocity": 0.5511811023622047,
                    "duration": 0.179104499999994
                },
                {
                    "name": "B4",
                    "midi": 71,
                    "time": 133.97016599999716,
                    "velocity": 0.5511811023622047,
                    "duration": 0.179104499999994
                },
                {
                    "name": "B5",
                    "midi": 83,
                    "time": 133.97016599999716,
                    "velocity": 0.6535433070866141,
                    "duration": 0.179104499999994
                },
                {
                    "name": "A5",
                    "midi": 81,
                    "time": 133.97016599999716,
                    "velocity": 0.6535433070866141,
                    "duration": 0.179104499999994
                },
                {
                    "name": "F#5",
                    "midi": 78,
                    "time": 134.32837499999715,
                    "velocity": 0.48031496062992124,
                    "duration": 0.358208999999988
                },
                {
                    "name": "D#6",
                    "midi": 87,
                    "time": 134.32837499999715,
                    "velocity": 0.5669291338582677,
                    "duration": 0.358208999999988
                },
                {
                    "name": "B5",
                    "midi": 83,
                    "time": 134.32837499999715,
                    "velocity": 0.5669291338582677,
                    "duration": 0.358208999999988
                },
                {
                    "name": "D#5",
                    "midi": 75,
                    "time": 134.32837499999715,
                    "velocity": 0.48031496062992124,
                    "duration": 0.358208999999988
                },
                {
                    "name": "D#5",
                    "midi": 75,
                    "time": 134.68658399999714,
                    "velocity": 0.49606299212598426,
                    "duration": 0.358208999999988
                },
                {
                    "name": "D#6",
                    "midi": 87,
                    "time": 134.68658399999714,
                    "velocity": 0.5905511811023622,
                    "duration": 0.358208999999988
                },
                {
                    "name": "F#5",
                    "midi": 78,
                    "time": 134.68658399999714,
                    "velocity": 0.49606299212598426,
                    "duration": 0.358208999999988
                },
                {
                    "name": "B5",
                    "midi": 83,
                    "time": 134.68658399999714,
                    "velocity": 0.5905511811023622,
                    "duration": 0.358208999999988
                },
                {
                    "name": "B5",
                    "midi": 83,
                    "time": 135.04479299999713,
                    "velocity": 0.5669291338582677,
                    "duration": 0.358208999999988
                },
                {
                    "name": "D#5",
                    "midi": 75,
                    "time": 135.04479299999713,
                    "velocity": 0.48031496062992124,
                    "duration": 0.358208999999988
                },
                {
                    "name": "F#5",
                    "midi": 78,
                    "time": 135.04479299999713,
                    "velocity": 0.48031496062992124,
                    "duration": 0.358208999999988
                },
                {
                    "name": "D#6",
                    "midi": 87,
                    "time": 135.04479299999713,
                    "velocity": 0.5669291338582677,
                    "duration": 0.358208999999988
                },
                {
                    "name": "E6",
                    "midi": 88,
                    "time": 135.40300199999712,
                    "velocity": 0.5196850393700787,
                    "duration": 0.179104499999994
                },
                {
                    "name": "C7",
                    "midi": 96,
                    "time": 135.40300199999712,
                    "velocity": 0.6141732283464567,
                    "duration": 0.179104499999994
                },
                {
                    "name": "C6",
                    "midi": 84,
                    "time": 135.40300199999712,
                    "velocity": 0.5196850393700787,
                    "duration": 0.179104499999994
                },
                {
                    "name": "G6",
                    "midi": 91,
                    "time": 135.40300199999712,
                    "velocity": 0.6141732283464567,
                    "duration": 0.179104499999994
                },
                {
                    "name": "C7",
                    "midi": 96,
                    "time": 135.7612109999971,
                    "velocity": 0.5984251968503937,
                    "duration": 0.179104499999994
                },
                {
                    "name": "C6",
                    "midi": 84,
                    "time": 135.7612109999971,
                    "velocity": 0.5039370078740157,
                    "duration": 0.179104499999994
                },
                {
                    "name": "G6",
                    "midi": 91,
                    "time": 135.9403154999971,
                    "velocity": 0.5275590551181102,
                    "duration": 0.179104499999994
                },
                {
                    "name": "G5",
                    "midi": 79,
                    "time": 135.9403154999971,
                    "velocity": 0.4409448818897638,
                    "duration": 0.179104499999994
                },
                {
                    "name": "C6",
                    "midi": 84,
                    "time": 136.1194199999971,
                    "velocity": 0.44881889763779526,
                    "duration": 0.179104499999994
                },
                {
                    "name": "A6",
                    "midi": 93,
                    "time": 136.1194199999971,
                    "velocity": 0.5354330708661418,
                    "duration": 0.179104499999994
                },
                {
                    "name": "E6",
                    "midi": 88,
                    "time": 136.1194199999971,
                    "velocity": 0.5354330708661418,
                    "duration": 0.179104499999994
                },
                {
                    "name": "A5",
                    "midi": 81,
                    "time": 136.1194199999971,
                    "velocity": 0.44881889763779526,
                    "duration": 0.179104499999994
                },
                {
                    "name": "F6",
                    "midi": 89,
                    "time": 136.2985244999971,
                    "velocity": 0.5039370078740157,
                    "duration": 0.179104499999994
                },
                {
                    "name": "F5",
                    "midi": 77,
                    "time": 136.2985244999971,
                    "velocity": 0.4251968503937008,
                    "duration": 0.179104499999994
                },
                {
                    "name": "E6",
                    "midi": 88,
                    "time": 136.47762899999708,
                    "velocity": 0.5748031496062992,
                    "duration": 0.179104499999994
                },
                {
                    "name": "E5",
                    "midi": 76,
                    "time": 136.47762899999708,
                    "velocity": 0.4881889763779528,
                    "duration": 0.179104499999994
                },
                {
                    "name": "C6",
                    "midi": 84,
                    "time": 136.65673349999707,
                    "velocity": 0.5196850393700787,
                    "duration": 0.179104499999994
                },
                {
                    "name": "C5",
                    "midi": 72,
                    "time": 136.65673349999707,
                    "velocity": 0.4409448818897638,
                    "duration": 0.179104499999994
                },
                {
                    "name": "G3",
                    "midi": 55,
                    "time": 136.83583799999707,
                    "velocity": 0.5196850393700787,
                    "duration": 0.179104499999994
                },
                {
                    "name": "G4",
                    "midi": 67,
                    "time": 136.83583799999707,
                    "velocity": 0.6141732283464567,
                    "duration": 0.179104499999994
                },
                {
                    "name": "G7",
                    "midi": 103,
                    "time": 137.19404699999706,
                    "velocity": 0.5748031496062992,
                    "duration": 0.179104499999994
                },
                {
                    "name": "G6",
                    "midi": 91,
                    "time": 137.19404699999706,
                    "velocity": 0.5748031496062992,
                    "duration": 0.179104499999994
                },
                {
                    "name": "D6",
                    "midi": 86,
                    "time": 137.37315149999705,
                    "velocity": 0.4409448818897638,
                    "duration": 0.179104499999994
                },
                {
                    "name": "D7",
                    "midi": 98,
                    "time": 137.37315149999705,
                    "velocity": 0.5275590551181102,
                    "duration": 0.179104499999994
                },
                {
                    "name": "D#7",
                    "midi": 99,
                    "time": 137.55225599999704,
                    "velocity": 0.5511811023622047,
                    "duration": 0.179104499999994
                },
                {
                    "name": "D#6",
                    "midi": 87,
                    "time": 137.55225599999704,
                    "velocity": 0.4645669291338583,
                    "duration": 0.179104499999994
                },
                {
                    "name": "D7",
                    "midi": 98,
                    "time": 137.73136049999704,
                    "velocity": 0.5118110236220472,
                    "duration": 0.179104499999994
                },
                {
                    "name": "D6",
                    "midi": 86,
                    "time": 137.73136049999704,
                    "velocity": 0.4330708661417323,
                    "duration": 0.179104499999994
                },
                {
                    "name": "A#6",
                    "midi": 94,
                    "time": 137.91046499999703,
                    "velocity": 0.5511811023622047,
                    "duration": 0.179104499999994
                },
                {
                    "name": "A#5",
                    "midi": 82,
                    "time": 137.91046499999703,
                    "velocity": 0.4645669291338583,
                    "duration": 0.179104499999994
                },
                {
                    "name": "G5",
                    "midi": 79,
                    "time": 138.08956949999703,
                    "velocity": 0.4409448818897638,
                    "duration": 0.179104499999994
                },
                {
                    "name": "G6",
                    "midi": 91,
                    "time": 138.08956949999703,
                    "velocity": 0.5275590551181102,
                    "duration": 0.179104499999994
                },
                {
                    "name": "G#5",
                    "midi": 80,
                    "time": 138.26867399999702,
                    "velocity": 0.4645669291338583,
                    "duration": 0.179104499999994
                },
                {
                    "name": "G#6",
                    "midi": 92,
                    "time": 138.26867399999702,
                    "velocity": 0.5511811023622047,
                    "duration": 0.179104499999994
                },
                {
                    "name": "D#6",
                    "midi": 87,
                    "time": 138.447778499997,
                    "velocity": 0.4251968503937008,
                    "duration": 0.179104499999994
                },
                {
                    "name": "D#7",
                    "midi": 99,
                    "time": 138.447778499997,
                    "velocity": 0.5039370078740157,
                    "duration": 0.179104499999994
                },
                {
                    "name": "B5",
                    "midi": 83,
                    "time": 138.626882999997,
                    "velocity": 0.4409448818897638,
                    "duration": 0.179104499999994
                },
                {
                    "name": "B6",
                    "midi": 95,
                    "time": 138.626882999997,
                    "velocity": 0.5275590551181102,
                    "duration": 0.179104499999994
                },
                {
                    "name": "D#6",
                    "midi": 87,
                    "time": 138.805987499997,
                    "velocity": 0.3937007874015748,
                    "duration": 0.179104499999994
                },
                {
                    "name": "D#7",
                    "midi": 99,
                    "time": 138.805987499997,
                    "velocity": 0.4645669291338583,
                    "duration": 0.179104499999994
                },
                {
                    "name": "D6",
                    "midi": 86,
                    "time": 138.985091999997,
                    "velocity": 0.5826771653543307,
                    "duration": 0.179104499999994
                },
                {
                    "name": "D7",
                    "midi": 98,
                    "time": 138.985091999997,
                    "velocity": 0.5826771653543307,
                    "duration": 0.179104499999994
                },
                {
                    "name": "G5",
                    "midi": 79,
                    "time": 139.34330099999698,
                    "velocity": 0.44881889763779526,
                    "duration": 0.179104499999994
                },
                {
                    "name": "G6",
                    "midi": 91,
                    "time": 139.34330099999698,
                    "velocity": 0.5354330708661418,
                    "duration": 0.179104499999994
                },
                {
                    "name": "G6",
                    "midi": 91,
                    "time": 139.70150999999697,
                    "velocity": 0.6141732283464567,
                    "duration": 0.358208999999988
                },
                {
                    "name": "G5",
                    "midi": 79,
                    "time": 139.70150999999697,
                    "velocity": 0.5196850393700787,
                    "duration": 0.358208999999988
                },
                {
                    "name": "G6",
                    "midi": 91,
                    "time": 140.05971899999696,
                    "velocity": 0.5748031496062992,
                    "duration": 0.179104499999994
                },
                {
                    "name": "G5",
                    "midi": 79,
                    "time": 140.05971899999696,
                    "velocity": 0.4881889763779528,
                    "duration": 0.179104499999994
                },
                {
                    "name": "D6",
                    "midi": 86,
                    "time": 140.23882349999695,
                    "velocity": 0.5275590551181102,
                    "duration": 0.179104499999994
                },
                {
                    "name": "D5",
                    "midi": 74,
                    "time": 140.23882349999695,
                    "velocity": 0.4409448818897638,
                    "duration": 0.179104499999994
                },
                {
                    "name": "D#5",
                    "midi": 75,
                    "time": 140.41792799999695,
                    "velocity": 0.4645669291338583,
                    "duration": 0.179104499999994
                },
                {
                    "name": "D#6",
                    "midi": 87,
                    "time": 140.41792799999695,
                    "velocity": 0.5511811023622047,
                    "duration": 0.179104499999994
                },
                {
                    "name": "D6",
                    "midi": 86,
                    "time": 140.59703249999694,
                    "velocity": 0.5118110236220472,
                    "duration": 0.179104499999994
                },
                {
                    "name": "D5",
                    "midi": 74,
                    "time": 140.59703249999694,
                    "velocity": 0.4330708661417323,
                    "duration": 0.179104499999994
                },
                {
                    "name": "A#4",
                    "midi": 70,
                    "time": 140.77613699999694,
                    "velocity": 0.4645669291338583,
                    "duration": 0.179104499999994
                },
                {
                    "name": "A#5",
                    "midi": 82,
                    "time": 140.77613699999694,
                    "velocity": 0.5511811023622047,
                    "duration": 0.179104499999994
                },
                {
                    "name": "G5",
                    "midi": 79,
                    "time": 140.95524149999693,
                    "velocity": 0.5275590551181102,
                    "duration": 0.179104499999994
                },
                {
                    "name": "G4",
                    "midi": 67,
                    "time": 140.95524149999693,
                    "velocity": 0.4409448818897638,
                    "duration": 0.179104499999994
                },
                {
                    "name": "G#4",
                    "midi": 68,
                    "time": 141.13434599999692,
                    "velocity": 0.4645669291338583,
                    "duration": 0.179104499999994
                },
                {
                    "name": "G#5",
                    "midi": 80,
                    "time": 141.13434599999692,
                    "velocity": 0.5511811023622047,
                    "duration": 0.179104499999994
                },
                {
                    "name": "D#6",
                    "midi": 87,
                    "time": 141.31345049999692,
                    "velocity": 0.5039370078740157,
                    "duration": 0.179104499999994
                },
                {
                    "name": "D#5",
                    "midi": 75,
                    "time": 141.31345049999692,
                    "velocity": 0.4251968503937008,
                    "duration": 0.179104499999994
                },
                {
                    "name": "B5",
                    "midi": 83,
                    "time": 141.4925549999969,
                    "velocity": 0.5275590551181102,
                    "duration": 0.179104499999994
                },
                {
                    "name": "B4",
                    "midi": 71,
                    "time": 141.4925549999969,
                    "velocity": 0.4409448818897638,
                    "duration": 0.179104499999994
                },
                {
                    "name": "D#5",
                    "midi": 75,
                    "time": 141.6716594999969,
                    "velocity": 0.3937007874015748,
                    "duration": 0.179104499999994
                },
                {
                    "name": "D#6",
                    "midi": 87,
                    "time": 141.6716594999969,
                    "velocity": 0.4645669291338583,
                    "duration": 0.179104499999994
                },
                {
                    "name": "D5",
                    "midi": 74,
                    "time": 141.8507639999969,
                    "velocity": 0.5275590551181102,
                    "duration": 0.179104499999994
                },
                {
                    "name": "D6",
                    "midi": 86,
                    "time": 141.8507639999969,
                    "velocity": 0.6220472440944882,
                    "duration": 0.179104499999994
                },
                {
                    "name": "G5",
                    "midi": 79,
                    "time": 142.2089729999969,
                    "velocity": 0.5275590551181102,
                    "duration": 0.179104499999994
                },
                {
                    "name": "G4",
                    "midi": 67,
                    "time": 142.2089729999969,
                    "velocity": 0.4409448818897638,
                    "duration": 0.179104499999994
                },
                {
                    "name": "G4",
                    "midi": 67,
                    "time": 142.56718199999688,
                    "velocity": 0.5196850393700787,
                    "duration": 0.358208999999988
                },
                {
                    "name": "G5",
                    "midi": 79,
                    "time": 142.56718199999688,
                    "velocity": 0.6141732283464567,
                    "duration": 0.358208999999988
                },
                {
                    "name": "G5",
                    "midi": 79,
                    "time": 142.92539099999686,
                    "velocity": 0.5748031496062992,
                    "duration": 0.179104499999994
                },
                {
                    "name": "G4",
                    "midi": 67,
                    "time": 142.92539099999686,
                    "velocity": 0.4881889763779528,
                    "duration": 0.179104499999994
                },
                {
                    "name": "D4",
                    "midi": 62,
                    "time": 143.10449549999686,
                    "velocity": 0.4409448818897638,
                    "duration": 0.179104499999994
                },
                {
                    "name": "D5",
                    "midi": 74,
                    "time": 143.10449549999686,
                    "velocity": 0.5275590551181102,
                    "duration": 0.179104499999994
                },
                {
                    "name": "D#5",
                    "midi": 75,
                    "time": 143.28359999999685,
                    "velocity": 0.5511811023622047,
                    "duration": 0.179104499999994
                },
                {
                    "name": "D#4",
                    "midi": 63,
                    "time": 143.28359999999685,
                    "velocity": 0.4645669291338583,
                    "duration": 0.179104499999994
                },
                {
                    "name": "D5",
                    "midi": 74,
                    "time": 143.46270449999685,
                    "velocity": 0.5118110236220472,
                    "duration": 0.179104499999994
                },
                {
                    "name": "D4",
                    "midi": 62,
                    "time": 143.46270449999685,
                    "velocity": 0.4330708661417323,
                    "duration": 0.179104499999994
                },
                {
                    "name": "A#4",
                    "midi": 70,
                    "time": 143.64180899999684,
                    "velocity": 0.5511811023622047,
                    "duration": 0.179104499999994
                },
                {
                    "name": "A#3",
                    "midi": 58,
                    "time": 143.64180899999684,
                    "velocity": 0.4645669291338583,
                    "duration": 0.179104499999994
                },
                {
                    "name": "G3",
                    "midi": 55,
                    "time": 143.82091349999683,
                    "velocity": 0.4409448818897638,
                    "duration": 0.179104499999994
                },
                {
                    "name": "G4",
                    "midi": 67,
                    "time": 143.82091349999683,
                    "velocity": 0.5275590551181102,
                    "duration": 0.179104499999994
                },
                {
                    "name": "F#3",
                    "midi": 54,
                    "time": 144.00001799999683,
                    "velocity": 0.6850393700787402,
                    "duration": 0.537313499999982
                },
                {
                    "name": "G5",
                    "midi": 79,
                    "time": 144.35822699999682,
                    "velocity": 0.5748031496062992,
                    "duration": 0.179104499999994
                },
                {
                    "name": "G4",
                    "midi": 67,
                    "time": 144.35822699999682,
                    "velocity": 0.4881889763779528,
                    "duration": 0.179104499999994
                },
                {
                    "name": "D5",
                    "midi": 74,
                    "time": 144.5373314999968,
                    "velocity": 0.5275590551181102,
                    "duration": 0.179104499999994
                },
                {
                    "name": "D4",
                    "midi": 62,
                    "time": 144.5373314999968,
                    "velocity": 0.4409448818897638,
                    "duration": 0.179104499999994
                },
                {
                    "name": "D#4",
                    "midi": 63,
                    "time": 144.7164359999968,
                    "velocity": 0.4645669291338583,
                    "duration": 0.179104499999994
                },
                {
                    "name": "D#5",
                    "midi": 75,
                    "time": 144.7164359999968,
                    "velocity": 0.5511811023622047,
                    "duration": 0.179104499999994
                },
                {
                    "name": "D5",
                    "midi": 74,
                    "time": 144.8955404999968,
                    "velocity": 0.5118110236220472,
                    "duration": 0.179104499999994
                },
                {
                    "name": "D4",
                    "midi": 62,
                    "time": 144.8955404999968,
                    "velocity": 0.4330708661417323,
                    "duration": 0.179104499999994
                },
                {
                    "name": "A#4",
                    "midi": 70,
                    "time": 145.0746449999968,
                    "velocity": 0.5511811023622047,
                    "duration": 0.179104499999994
                },
                {
                    "name": "A#3",
                    "midi": 58,
                    "time": 145.0746449999968,
                    "velocity": 0.4645669291338583,
                    "duration": 0.179104499999994
                },
                {
                    "name": "G3",
                    "midi": 55,
                    "time": 145.2537494999968,
                    "velocity": 0.4409448818897638,
                    "duration": 0.179104499999994
                },
                {
                    "name": "G4",
                    "midi": 67,
                    "time": 145.2537494999968,
                    "velocity": 0.5275590551181102,
                    "duration": 0.179104499999994
                },
                {
                    "name": "F3",
                    "midi": 53,
                    "time": 145.43285399999678,
                    "velocity": 0.6850393700787402,
                    "duration": 0.537313499999982
                },
                {
                    "name": "G5",
                    "midi": 79,
                    "time": 145.79106299999677,
                    "velocity": 0.5748031496062992,
                    "duration": 0.179104499999994
                },
                {
                    "name": "G4",
                    "midi": 67,
                    "time": 145.79106299999677,
                    "velocity": 0.4881889763779528,
                    "duration": 0.179104499999994
                },
                {
                    "name": "D5",
                    "midi": 74,
                    "time": 145.97016749999676,
                    "velocity": 0.5275590551181102,
                    "duration": 0.179104499999994
                },
                {
                    "name": "D4",
                    "midi": 62,
                    "time": 145.97016749999676,
                    "velocity": 0.4409448818897638,
                    "duration": 0.179104499999994
                },
                {
                    "name": "D#4",
                    "midi": 63,
                    "time": 146.14927199999676,
                    "velocity": 0.4645669291338583,
                    "duration": 0.179104499999994
                },
                {
                    "name": "D#5",
                    "midi": 75,
                    "time": 146.14927199999676,
                    "velocity": 0.5511811023622047,
                    "duration": 0.179104499999994
                },
                {
                    "name": "D5",
                    "midi": 74,
                    "time": 146.32837649999675,
                    "velocity": 0.5118110236220472,
                    "duration": 0.179104499999994
                },
                {
                    "name": "D4",
                    "midi": 62,
                    "time": 146.32837649999675,
                    "velocity": 0.4330708661417323,
                    "duration": 0.179104499999994
                },
                {
                    "name": "A#3",
                    "midi": 58,
                    "time": 146.50748099999674,
                    "velocity": 0.4645669291338583,
                    "duration": 0.179104499999994
                },
                {
                    "name": "A#4",
                    "midi": 70,
                    "time": 146.50748099999674,
                    "velocity": 0.5511811023622047,
                    "duration": 0.179104499999994
                },
                {
                    "name": "G4",
                    "midi": 67,
                    "time": 146.68658549999674,
                    "velocity": 0.5275590551181102,
                    "duration": 0.179104499999994
                },
                {
                    "name": "G3",
                    "midi": 55,
                    "time": 146.68658549999674,
                    "velocity": 0.4409448818897638,
                    "duration": 0.179104499999994
                },
                {
                    "name": "E3",
                    "midi": 52,
                    "time": 146.86568999999673,
                    "velocity": 0.6850393700787402,
                    "duration": 0.537313499999982
                },
                {
                    "name": "G4",
                    "midi": 67,
                    "time": 147.22389899999672,
                    "velocity": 0.4881889763779528,
                    "duration": 0.179104499999994
                },
                {
                    "name": "G5",
                    "midi": 79,
                    "time": 147.22389899999672,
                    "velocity": 0.5748031496062992,
                    "duration": 0.179104499999994
                },
                {
                    "name": "D4",
                    "midi": 62,
                    "time": 147.40300349999671,
                    "velocity": 0.4409448818897638,
                    "duration": 0.179104499999994
                },
                {
                    "name": "D5",
                    "midi": 74,
                    "time": 147.40300349999671,
                    "velocity": 0.5275590551181102,
                    "duration": 0.179104499999994
                },
                {
                    "name": "D#4",
                    "midi": 63,
                    "time": 147.5821079999967,
                    "velocity": 0.4645669291338583,
                    "duration": 0.179104499999994
                },
                {
                    "name": "D#5",
                    "midi": 75,
                    "time": 147.5821079999967,
                    "velocity": 0.5511811023622047,
                    "duration": 0.179104499999994
                },
                {
                    "name": "D5",
                    "midi": 74,
                    "time": 147.7612124999967,
                    "velocity": 0.5118110236220472,
                    "duration": 0.179104499999994
                },
                {
                    "name": "D4",
                    "midi": 62,
                    "time": 147.7612124999967,
                    "velocity": 0.4330708661417323,
                    "duration": 0.179104499999994
                },
                {
                    "name": "A#3",
                    "midi": 58,
                    "time": 147.9403169999967,
                    "velocity": 0.4645669291338583,
                    "duration": 0.179104499999994
                },
                {
                    "name": "A#4",
                    "midi": 70,
                    "time": 147.9403169999967,
                    "velocity": 0.5511811023622047,
                    "duration": 0.179104499999994
                },
                {
                    "name": "G4",
                    "midi": 67,
                    "time": 148.1194214999967,
                    "velocity": 0.5275590551181102,
                    "duration": 0.179104499999994
                },
                {
                    "name": "G3",
                    "midi": 55,
                    "time": 148.1194214999967,
                    "velocity": 0.4409448818897638,
                    "duration": 0.179104499999994
                },
                {
                    "name": "D#3",
                    "midi": 51,
                    "time": 148.29852599999668,
                    "velocity": 0.6850393700787402,
                    "duration": 0.358208999999988
                },
                {
                    "name": "D3",
                    "midi": 50,
                    "time": 148.65673499999667,
                    "velocity": 0.6850393700787402,
                    "duration": 0.179104499999994
                },
                {
                    "name": "B3",
                    "midi": 59,
                    "time": 149.01494399999666,
                    "velocity": 0.5748031496062992,
                    "duration": 0.537313499999982
                },
                {
                    "name": "B4",
                    "midi": 71,
                    "time": 149.01494399999666,
                    "velocity": 0.6850393700787402,
                    "duration": 0.537313499999982
                },
                {
                    "name": "G#5",
                    "midi": 80,
                    "time": 149.37315299999665,
                    "velocity": 0.5511811023622047,
                    "duration": 0.179104499999994
                },
                {
                    "name": "G#6",
                    "midi": 92,
                    "time": 149.37315299999665,
                    "velocity": 0.6535433070866141,
                    "duration": 0.179104499999994
                },
                {
                    "name": "G7",
                    "midi": 103,
                    "time": 149.82091424999663,
                    "velocity": 0.5669291338582677,
                    "duration": 0.089552249999997
                },
                {
                    "name": "D7",
                    "midi": 98,
                    "time": 150.00001874999663,
                    "velocity": 0.5118110236220472,
                    "duration": 0.089552249999997
                },
                {
                    "name": "D#7",
                    "midi": 99,
                    "time": 150.17912324999662,
                    "velocity": 0.5433070866141733,
                    "duration": 0.089552249999997
                },
                {
                    "name": "B6",
                    "midi": 95,
                    "time": 150.35822774999662,
                    "velocity": 0.5196850393700787,
                    "duration": 0.089552249999997
                },
                {
                    "name": "C7",
                    "midi": 96,
                    "time": 150.5373322499966,
                    "velocity": 0.5433070866141733,
                    "duration": 0.089552249999997
                },
                {
                    "name": "G6",
                    "midi": 91,
                    "time": 150.7164367499966,
                    "velocity": 0.5118110236220472,
                    "duration": 0.089552249999997
                },
                {
                    "name": "G#6",
                    "midi": 92,
                    "time": 150.8955412499966,
                    "velocity": 0.5433070866141733,
                    "duration": 0.089552249999997
                },
                {
                    "name": "D6",
                    "midi": 86,
                    "time": 151.0746457499966,
                    "velocity": 0.5118110236220472,
                    "duration": 0.089552249999997
                },
                {
                    "name": "D#6",
                    "midi": 87,
                    "time": 151.25375024999659,
                    "velocity": 0.5669291338582677,
                    "duration": 0.089552249999997
                },
                {
                    "name": "B5",
                    "midi": 83,
                    "time": 151.43285474999658,
                    "velocity": 0.5118110236220472,
                    "duration": 0.089552249999997
                },
                {
                    "name": "C6",
                    "midi": 84,
                    "time": 151.61195924999657,
                    "velocity": 0.5433070866141733,
                    "duration": 0.089552249999997
                },
                {
                    "name": "G5",
                    "midi": 79,
                    "time": 151.79106374999657,
                    "velocity": 0.5118110236220472,
                    "duration": 0.089552249999997
                },
                {
                    "name": "G#5",
                    "midi": 80,
                    "time": 151.97016824999656,
                    "velocity": 0.5354330708661418,
                    "duration": 0.089552249999997
                },
                {
                    "name": "D5",
                    "midi": 74,
                    "time": 152.14927274999656,
                    "velocity": 0.49606299212598426,
                    "duration": 0.089552249999997
                },
                {
                    "name": "D#5",
                    "midi": 75,
                    "time": 152.32837724999655,
                    "velocity": 0.5433070866141733,
                    "duration": 0.089552249999997
                },
                {
                    "name": "B4",
                    "midi": 71,
                    "time": 152.50748174999654,
                    "velocity": 0.5196850393700787,
                    "duration": 0.089552249999997
                },
                {
                    "name": "C5",
                    "midi": 72,
                    "time": 152.68658624999654,
                    "velocity": 0.5669291338582677,
                    "duration": 0.089552249999997
                },
                {
                    "name": "G4",
                    "midi": 67,
                    "time": 152.86569074999653,
                    "velocity": 0.49606299212598426,
                    "duration": 0.089552249999997
                },
                {
                    "name": "G#4",
                    "midi": 68,
                    "time": 153.04479524999653,
                    "velocity": 0.5433070866141733,
                    "duration": 0.089552249999997
                },
                {
                    "name": "D4",
                    "midi": 62,
                    "time": 153.22389974999652,
                    "velocity": 0.5196850393700787,
                    "duration": 0.089552249999997
                },
                {
                    "name": "D#4",
                    "midi": 63,
                    "time": 153.4030042499965,
                    "velocity": 0.5433070866141733,
                    "duration": 0.089552249999997
                },
                {
                    "name": "B3",
                    "midi": 59,
                    "time": 153.5821087499965,
                    "velocity": 0.5196850393700787,
                    "duration": 0.089552249999997
                },
                {
                    "name": "C4",
                    "midi": 60,
                    "time": 153.7612132499965,
                    "velocity": 0.5905511811023622,
                    "duration": 0.089552249999997
                },
                {
                    "name": "G3",
                    "midi": 55,
                    "time": 153.9403177499965,
                    "velocity": 0.5433070866141733,
                    "duration": 0.089552249999997
                },
                {
                    "name": "G#3",
                    "midi": 56,
                    "time": 154.1194222499965,
                    "velocity": 0.6062992125984252,
                    "duration": 0.089552249999997
                },
                {
                    "name": "D3",
                    "midi": 50,
                    "time": 154.29852674999648,
                    "velocity": 0.5590551181102362,
                    "duration": 0.089552249999997
                },
                {
                    "name": "D#3",
                    "midi": 51,
                    "time": 154.47763124999648,
                    "velocity": 0.5984251968503937,
                    "duration": 0.089552249999997
                },
                {
                    "name": "B2",
                    "midi": 47,
                    "time": 154.65673574999647,
                    "velocity": 0.5354330708661418,
                    "duration": 0.089552249999997
                },
                {
                    "name": "C3",
                    "midi": 48,
                    "time": 154.83584024999647,
                    "velocity": 0.5669291338582677,
                    "duration": 0.089552249999997
                },
                {
                    "name": "G2",
                    "midi": 43,
                    "time": 155.01494474999646,
                    "velocity": 0.49606299212598426,
                    "duration": 0.089552249999997
                },
                {
                    "name": "G#2",
                    "midi": 44,
                    "time": 155.19404924999645,
                    "velocity": 0.5669291338582677,
                    "duration": 0.089552249999997
                },
                {
                    "name": "G2",
                    "midi": 43,
                    "time": 155.37315374999645,
                    "velocity": 0.49606299212598426,
                    "duration": 0.089552249999997
                },
                {
                    "name": "G#2",
                    "midi": 44,
                    "time": 155.55225824999644,
                    "velocity": 0.5511811023622047,
                    "duration": 0.089552249999997
                },
                {
                    "name": "G2",
                    "midi": 43,
                    "time": 155.73136274999644,
                    "velocity": 0.49606299212598426,
                    "duration": 0.089552249999997
                },
                {
                    "name": "B2",
                    "midi": 47,
                    "time": 155.91046724999643,
                    "velocity": 0.5905511811023622,
                    "duration": 0.089552249999997
                },
                {
                    "name": "G2",
                    "midi": 43,
                    "time": 156.08957174999642,
                    "velocity": 0.49606299212598426,
                    "duration": 0.089552249999997
                },
                {
                    "name": "G#2",
                    "midi": 44,
                    "time": 156.26867624999642,
                    "velocity": 0.5433070866141733,
                    "duration": 0.089552249999997
                },
                {
                    "name": "G2",
                    "midi": 43,
                    "time": 156.4477807499964,
                    "velocity": 0.49606299212598426,
                    "duration": 0.089552249999997
                },
                {
                    "name": "B2",
                    "midi": 47,
                    "time": 156.6268852499964,
                    "velocity": 0.5748031496062992,
                    "duration": 0.089552249999997
                },
                {
                    "name": "G2",
                    "midi": 43,
                    "time": 156.8059897499964,
                    "velocity": 0.48031496062992124,
                    "duration": 0.089552249999997
                },
                {
                    "name": "G#2",
                    "midi": 44,
                    "time": 156.9850942499964,
                    "velocity": 0.5354330708661418,
                    "duration": 0.089552249999997
                },
                {
                    "name": "G2",
                    "midi": 43,
                    "time": 157.1641987499964,
                    "velocity": 0.4881889763779528,
                    "duration": 0.089552249999997
                },
                {
                    "name": "G#2",
                    "midi": 44,
                    "time": 157.34330324999638,
                    "velocity": 0.5275590551181102,
                    "duration": 0.089552249999997
                },
                {
                    "name": "A#2",
                    "midi": 46,
                    "time": 157.52240774999638,
                    "velocity": 0.49606299212598426,
                    "duration": 0.089552249999997
                },
                {
                    "name": "B2",
                    "midi": 47,
                    "time": 157.70151224999637,
                    "velocity": 0.5039370078740157,
                    "duration": 0.089552249999997
                },
                {
                    "name": "D3",
                    "midi": 50,
                    "time": 157.88061674999636,
                    "velocity": 0.4881889763779528,
                    "duration": 0.089552249999997
                },
                {
                    "name": "D#3",
                    "midi": 51,
                    "time": 158.05972124999636,
                    "velocity": 0.5039370078740157,
                    "duration": 0.089552249999997
                },
                {
                    "name": "F3",
                    "midi": 53,
                    "time": 158.23882574999635,
                    "velocity": 0.5354330708661418,
                    "duration": 0.089552249999997
                },
                {
                    "name": "G3",
                    "midi": 55,
                    "time": 158.41793024999635,
                    "velocity": 0.5354330708661418,
                    "duration": 0.089552249999997
                },
                {
                    "name": "G#3",
                    "midi": 56,
                    "time": 158.59703474999634,
                    "velocity": 0.5039370078740157,
                    "duration": 0.089552249999997
                },
                {
                    "name": "A#3",
                    "midi": 58,
                    "time": 158.77613924999633,
                    "velocity": 0.5118110236220472,
                    "duration": 0.089552249999997
                },
                {
                    "name": "B3",
                    "midi": 59,
                    "time": 158.95524374999633,
                    "velocity": 0.5118110236220472,
                    "duration": 0.089552249999997
                },
                {
                    "name": "D4",
                    "midi": 62,
                    "time": 159.13434824999632,
                    "velocity": 0.5984251968503937,
                    "duration": 0.089552249999997
                },
                {
                    "name": "D#4",
                    "midi": 63,
                    "time": 159.31345274999632,
                    "velocity": 0.5433070866141733,
                    "duration": 0.089552249999997
                },
                {
                    "name": "F4",
                    "midi": 65,
                    "time": 159.4925572499963,
                    "velocity": 0.5433070866141733,
                    "duration": 0.089552249999997
                },
                {
                    "name": "G4",
                    "midi": 67,
                    "time": 159.6716617499963,
                    "velocity": 0.5433070866141733,
                    "duration": 0.089552249999997
                },
                {
                    "name": "G#4",
                    "midi": 68,
                    "time": 159.8507662499963,
                    "velocity": 0.5984251968503937,
                    "duration": 0.089552249999997
                },
                {
                    "name": "A#4",
                    "midi": 70,
                    "time": 160.0298707499963,
                    "velocity": 0.5511811023622047,
                    "duration": 0.089552249999997
                },
                {
                    "name": "B4",
                    "midi": 71,
                    "time": 160.20897524999629,
                    "velocity": 0.5511811023622047,
                    "duration": 0.089552249999997
                },
                {
                    "name": "D5",
                    "midi": 74,
                    "time": 160.38807974999628,
                    "velocity": 0.5669291338582677,
                    "duration": 0.089552249999997
                },
                {
                    "name": "D#5",
                    "midi": 75,
                    "time": 160.56718424999627,
                    "velocity": 0.6141732283464567,
                    "duration": 0.089552249999997
                },
                {
                    "name": "F5",
                    "midi": 77,
                    "time": 160.74628874999627,
                    "velocity": 0.5669291338582677,
                    "duration": 0.089552249999997
                },
                {
                    "name": "G5",
                    "midi": 79,
                    "time": 160.92539324999626,
                    "velocity": 0.5669291338582677,
                    "duration": 0.089552249999997
                },
                {
                    "name": "G#5",
                    "midi": 80,
                    "time": 161.10449774999626,
                    "velocity": 0.5669291338582677,
                    "duration": 0.089552249999997
                },
                {
                    "name": "B5",
                    "midi": 83,
                    "time": 161.28360224999625,
                    "velocity": 0.6299212598425197,
                    "duration": 0.089552249999997
                },
                {
                    "name": "D5",
                    "midi": 74,
                    "time": 161.46270674999624,
                    "velocity": 0.49606299212598426,
                    "duration": 0.089552249999997
                },
                {
                    "name": "D6",
                    "midi": 86,
                    "time": 161.46270674999624,
                    "velocity": 0.5590551181102362,
                    "duration": 0.089552249999997
                },
                {
                    "name": "D#6",
                    "midi": 87,
                    "time": 161.64181124999624,
                    "velocity": 0.5590551181102362,
                    "duration": 0.089552249999997
                },
                {
                    "name": "D#5",
                    "midi": 75,
                    "time": 161.64181124999624,
                    "velocity": 0.49606299212598426,
                    "duration": 0.089552249999997
                },
                {
                    "name": "F6",
                    "midi": 89,
                    "time": 161.82091574999623,
                    "velocity": 0.5669291338582677,
                    "duration": 0.089552249999997
                },
                {
                    "name": "F5",
                    "midi": 77,
                    "time": 161.82091574999623,
                    "velocity": 0.5039370078740157,
                    "duration": 0.089552249999997
                },
                {
                    "name": "G5",
                    "midi": 79,
                    "time": 162.00002024999623,
                    "velocity": 0.5039370078740157,
                    "duration": 0.089552249999997
                },
                {
                    "name": "G6",
                    "midi": 91,
                    "time": 162.00002024999623,
                    "velocity": 0.5669291338582677,
                    "duration": 0.089552249999997
                },
                {
                    "name": "G#6",
                    "midi": 92,
                    "time": 162.17912474999622,
                    "velocity": 0.5511811023622047,
                    "duration": 0.089552249999997
                },
                {
                    "name": "G#5",
                    "midi": 80,
                    "time": 162.17912474999622,
                    "velocity": 0.49606299212598426,
                    "duration": 0.089552249999997
                },
                {
                    "name": "A#6",
                    "midi": 94,
                    "time": 162.3582292499962,
                    "velocity": 0.5511811023622047,
                    "duration": 0.089552249999997
                },
                {
                    "name": "A#5",
                    "midi": 82,
                    "time": 162.3582292499962,
                    "velocity": 0.49606299212598426,
                    "duration": 0.089552249999997
                },
                {
                    "name": "B5",
                    "midi": 83,
                    "time": 162.5373337499962,
                    "velocity": 0.49606299212598426,
                    "duration": 0.089552249999997
                },
                {
                    "name": "B6",
                    "midi": 95,
                    "time": 162.5373337499962,
                    "velocity": 0.5590551181102362,
                    "duration": 0.089552249999997
                },
                {
                    "name": "D7",
                    "midi": 98,
                    "time": 162.7164382499962,
                    "velocity": 0.6062992125984252,
                    "duration": 0.089552249999997
                },
                {
                    "name": "D6",
                    "midi": 86,
                    "time": 162.7164382499962,
                    "velocity": 0.5433070866141733,
                    "duration": 0.089552249999997
                },
                {
                    "name": "D#7",
                    "midi": 99,
                    "time": 162.8955427499962,
                    "velocity": 0.5590551181102362,
                    "duration": 0.089552249999997
                },
                {
                    "name": "D#6",
                    "midi": 87,
                    "time": 162.8955427499962,
                    "velocity": 0.49606299212598426,
                    "duration": 0.089552249999997
                },
                {
                    "name": "F6",
                    "midi": 89,
                    "time": 163.0746472499962,
                    "velocity": 0.5039370078740157,
                    "duration": 0.089552249999997
                },
                {
                    "name": "F7",
                    "midi": 101,
                    "time": 163.0746472499962,
                    "velocity": 0.5669291338582677,
                    "duration": 0.089552249999997
                },
                {
                    "name": "G6",
                    "midi": 91,
                    "time": 163.25375174999618,
                    "velocity": 0.5039370078740157,
                    "duration": 0.089552249999997
                },
                {
                    "name": "G7",
                    "midi": 103,
                    "time": 163.25375174999618,
                    "velocity": 0.5669291338582677,
                    "duration": 0.089552249999997
                },
                {
                    "name": "D#7",
                    "midi": 99,
                    "time": 163.43285624999618,
                    "velocity": 0.5826771653543307,
                    "duration": 0.089552249999997
                },
                {
                    "name": "D#6",
                    "midi": 87,
                    "time": 163.43285624999618,
                    "velocity": 0.5196850393700787,
                    "duration": 0.089552249999997
                },
                {
                    "name": "F7",
                    "midi": 101,
                    "time": 163.61196074999617,
                    "velocity": 0.5275590551181102,
                    "duration": 0.089552249999997
                },
                {
                    "name": "F6",
                    "midi": 89,
                    "time": 163.61196074999617,
                    "velocity": 0.47244094488188976,
                    "duration": 0.089552249999997
                },
                {
                    "name": "B6",
                    "midi": 95,
                    "time": 163.79106524999617,
                    "velocity": 0.5669291338582677,
                    "duration": 0.089552249999997
                },
                {
                    "name": "B5",
                    "midi": 83,
                    "time": 163.79106524999617,
                    "velocity": 0.5039370078740157,
                    "duration": 0.089552249999997
                },
                {
                    "name": "D6",
                    "midi": 86,
                    "time": 163.97016974999616,
                    "velocity": 0.48031496062992124,
                    "duration": 0.089552249999997
                },
                {
                    "name": "D7",
                    "midi": 98,
                    "time": 163.97016974999616,
                    "velocity": 0.5354330708661418,
                    "duration": 0.089552249999997
                },
                {
                    "name": "D#6",
                    "midi": 87,
                    "time": 164.14927424999615,
                    "velocity": 0.5275590551181102,
                    "duration": 0.089552249999997
                },
                {
                    "name": "D#7",
                    "midi": 99,
                    "time": 164.14927424999615,
                    "velocity": 0.5905511811023622,
                    "duration": 0.089552249999997
                },
                {
                    "name": "F7",
                    "midi": 101,
                    "time": 164.32837874999615,
                    "velocity": 0.5354330708661418,
                    "duration": 0.089552249999997
                },
                {
                    "name": "F6",
                    "midi": 89,
                    "time": 164.32837874999615,
                    "velocity": 0.48031496062992124,
                    "duration": 0.089552249999997
                },
                {
                    "name": "B5",
                    "midi": 83,
                    "time": 164.50748324999614,
                    "velocity": 0.5039370078740157,
                    "duration": 0.089552249999997
                },
                {
                    "name": "B6",
                    "midi": 95,
                    "time": 164.50748324999614,
                    "velocity": 0.5669291338582677,
                    "duration": 0.089552249999997
                },
                {
                    "name": "D7",
                    "midi": 98,
                    "time": 164.68658774999614,
                    "velocity": 0.5354330708661418,
                    "duration": 0.089552249999997
                },
                {
                    "name": "D6",
                    "midi": 86,
                    "time": 164.68658774999614,
                    "velocity": 0.48031496062992124,
                    "duration": 0.089552249999997
                },
                {
                    "name": "D#7",
                    "midi": 99,
                    "time": 164.86569224999613,
                    "velocity": 0.5669291338582677,
                    "duration": 0.089552249999997
                },
                {
                    "name": "D#6",
                    "midi": 87,
                    "time": 164.86569224999613,
                    "velocity": 0.5039370078740157,
                    "duration": 0.089552249999997
                },
                {
                    "name": "F6",
                    "midi": 89,
                    "time": 165.04479674999612,
                    "velocity": 0.4881889763779528,
                    "duration": 0.089552249999997
                },
                {
                    "name": "F7",
                    "midi": 101,
                    "time": 165.04479674999612,
                    "velocity": 0.5433070866141733,
                    "duration": 0.089552249999997
                },
                {
                    "name": "F6",
                    "midi": 89,
                    "time": 165.22390124999612,
                    "velocity": 0.49606299212598426,
                    "duration": 0.089552249999997
                },
                {
                    "name": "F5",
                    "midi": 77,
                    "time": 165.22390124999612,
                    "velocity": 0.4409448818897638,
                    "duration": 0.089552249999997
                },
                {
                    "name": "F#6",
                    "midi": 90,
                    "time": 165.4030057499961,
                    "velocity": 0.4881889763779528,
                    "duration": 0.089552249999997
                },
                {
                    "name": "F#5",
                    "midi": 78,
                    "time": 165.4030057499961,
                    "velocity": 0.4330708661417323,
                    "duration": 0.089552249999997
                },
                {
                    "name": "G5",
                    "midi": 79,
                    "time": 165.5821102499961,
                    "velocity": 0.4409448818897638,
                    "duration": 0.089552249999997
                },
                {
                    "name": "G6",
                    "midi": 91,
                    "time": 165.5821102499961,
                    "velocity": 0.49606299212598426,
                    "duration": 0.089552249999997
                },
                {
                    "name": "G#6",
                    "midi": 92,
                    "time": 165.7612147499961,
                    "velocity": 0.5039370078740157,
                    "duration": 0.089552249999997
                },
                {
                    "name": "G#5",
                    "midi": 80,
                    "time": 165.7612147499961,
                    "velocity": 0.44881889763779526,
                    "duration": 0.089552249999997
                },
                {
                    "name": "A5",
                    "midi": 81,
                    "time": 165.9403192499961,
                    "velocity": 0.4566929133858268,
                    "duration": 0.089552249999997
                },
                {
                    "name": "A6",
                    "midi": 93,
                    "time": 165.9403192499961,
                    "velocity": 0.5118110236220472,
                    "duration": 0.089552249999997
                },
                {
                    "name": "A#6",
                    "midi": 94,
                    "time": 166.1194237499961,
                    "velocity": 0.5196850393700787,
                    "duration": 0.089552249999997
                },
                {
                    "name": "A#5",
                    "midi": 82,
                    "time": 166.1194237499961,
                    "velocity": 0.4645669291338583,
                    "duration": 0.089552249999997
                },
                {
                    "name": "B6",
                    "midi": 95,
                    "time": 166.29852824999608,
                    "velocity": 0.5275590551181102,
                    "duration": 0.089552249999997
                },
                {
                    "name": "B5",
                    "midi": 83,
                    "time": 166.29852824999608,
                    "velocity": 0.47244094488188976,
                    "duration": 0.089552249999997
                },
                {
                    "name": "C6",
                    "midi": 84,
                    "time": 166.47763274999608,
                    "velocity": 0.48031496062992124,
                    "duration": 0.089552249999997
                },
                {
                    "name": "C7",
                    "midi": 96,
                    "time": 166.47763274999608,
                    "velocity": 0.5354330708661418,
                    "duration": 0.089552249999997
                },
                {
                    "name": "C#7",
                    "midi": 97,
                    "time": 166.65673724999607,
                    "velocity": 0.5354330708661418,
                    "duration": 0.089552249999997
                },
                {
                    "name": "C#6",
                    "midi": 85,
                    "time": 166.65673724999607,
                    "velocity": 0.48031496062992124,
                    "duration": 0.089552249999997
                },
                {
                    "name": "D7",
                    "midi": 98,
                    "time": 166.83584174999606,
                    "velocity": 0.5433070866141733,
                    "duration": 0.089552249999997
                },
                {
                    "name": "D6",
                    "midi": 86,
                    "time": 166.83584174999606,
                    "velocity": 0.4881889763779528,
                    "duration": 0.089552249999997
                },
                {
                    "name": "D#6",
                    "midi": 87,
                    "time": 167.01494624999606,
                    "velocity": 0.49606299212598426,
                    "duration": 0.089552249999997
                },
                {
                    "name": "D#7",
                    "midi": 99,
                    "time": 167.01494624999606,
                    "velocity": 0.5511811023622047,
                    "duration": 0.089552249999997
                },
                {
                    "name": "F7",
                    "midi": 101,
                    "time": 167.19405074999605,
                    "velocity": 0.5590551181102362,
                    "duration": 0.089552249999997
                },
                {
                    "name": "F6",
                    "midi": 89,
                    "time": 167.19405074999605,
                    "velocity": 0.49606299212598426,
                    "duration": 0.089552249999997
                },
                {
                    "name": "F#7",
                    "midi": 102,
                    "time": 167.37315524999605,
                    "velocity": 0.5669291338582677,
                    "duration": 0.089552249999997
                },
                {
                    "name": "F#6",
                    "midi": 90,
                    "time": 167.37315524999605,
                    "velocity": 0.5039370078740157,
                    "duration": 0.089552249999997
                },
                {
                    "name": "G6",
                    "midi": 91,
                    "time": 167.55225974999604,
                    "velocity": 0.5118110236220472,
                    "duration": 0.089552249999997
                },
                {
                    "name": "G7",
                    "midi": 103,
                    "time": 167.55225974999604,
                    "velocity": 0.5748031496062992,
                    "duration": 0.089552249999997
                },
                {
                    "name": "D#4",
                    "midi": 63,
                    "time": 167.73136424999603,
                    "velocity": 0.5905511811023622,
                    "duration": 1.2537314999999865
                },
                {
                    "name": "G4",
                    "midi": 67,
                    "time": 167.73136424999603,
                    "velocity": 0.5905511811023622,
                    "duration": 1.2537314999999865
                },
                {
                    "name": "A#4",
                    "midi": 70,
                    "time": 167.73136424999603,
                    "velocity": 0.7086614173228346,
                    "duration": 1.2537314999999865
                },
                {
                    "name": "D#5",
                    "midi": 75,
                    "time": 167.73136424999603,
                    "velocity": 0.7086614173228346,
                    "duration": 1.2537314999999865
                },
                {
                    "name": "F4",
                    "midi": 65,
                    "time": 169.07464799999602,
                    "velocity": 0.5590551181102362,
                    "duration": 1.3432837500000119
                },
                {
                    "name": "A#4",
                    "midi": 70,
                    "time": 169.07464799999602,
                    "velocity": 0.5590551181102362,
                    "duration": 1.3432837500000119
                },
                {
                    "name": "D5",
                    "midi": 74,
                    "time": 169.07464799999602,
                    "velocity": 0.6692913385826772,
                    "duration": 1.3432837500000119
                },
                {
                    "name": "F5",
                    "midi": 77,
                    "time": 169.07464799999602,
                    "velocity": 0.6692913385826772,
                    "duration": 1.3432837500000119
                },
                {
                    "name": "G4",
                    "midi": 67,
                    "time": 170.50748399999603,
                    "velocity": 0.5905511811023622,
                    "duration": 0.6268657500000074
                },
                {
                    "name": "A#4",
                    "midi": 70,
                    "time": 170.50748399999603,
                    "velocity": 0.5905511811023622,
                    "duration": 0.6268657500000074
                },
                {
                    "name": "D#5",
                    "midi": 75,
                    "time": 170.50748399999603,
                    "velocity": 0.7086614173228346,
                    "duration": 0.6268657500000074
                },
                {
                    "name": "G5",
                    "midi": 79,
                    "time": 170.50748399999603,
                    "velocity": 0.7086614173228346,
                    "duration": 0.6268657500000074
                },
                {
                    "name": "D#4",
                    "midi": 63,
                    "time": 171.22390199999603,
                    "velocity": 0.5669291338582677,
                    "duration": 0.358208999999988
                },
                {
                    "name": "G4",
                    "midi": 67,
                    "time": 171.22390199999603,
                    "velocity": 0.5669291338582677,
                    "duration": 0.358208999999988
                },
                {
                    "name": "C5",
                    "midi": 72,
                    "time": 171.22390199999603,
                    "velocity": 0.6771653543307087,
                    "duration": 0.358208999999988
                },
                {
                    "name": "D#5",
                    "midi": 75,
                    "time": 171.22390199999603,
                    "velocity": 0.6771653543307087,
                    "duration": 0.358208999999988
                },
                {
                    "name": "G4",
                    "midi": 67,
                    "time": 171.58211099999602,
                    "velocity": 0.6220472440944882,
                    "duration": 0.268656749999991
                },
                {
                    "name": "G5",
                    "midi": 79,
                    "time": 171.58211099999602,
                    "velocity": 0.6220472440944882,
                    "duration": 0.268656749999991
                },
                {
                    "name": "F4",
                    "midi": 65,
                    "time": 171.940319999996,
                    "velocity": 0.5433070866141733,
                    "duration": 0.7164180000000044
                },
                {
                    "name": "A#4",
                    "midi": 70,
                    "time": 171.940319999996,
                    "velocity": 0.5433070866141733,
                    "duration": 0.7164180000000044
                },
                {
                    "name": "D5",
                    "midi": 74,
                    "time": 171.940319999996,
                    "velocity": 0.6456692913385826,
                    "duration": 0.7164180000000044
                },
                {
                    "name": "F5",
                    "midi": 77,
                    "time": 171.940319999996,
                    "velocity": 0.6456692913385826,
                    "duration": 0.7164180000000044
                },
                {
                    "name": "A#3",
                    "midi": 58,
                    "time": 172.656737999996,
                    "velocity": 0.5590551181102362,
                    "duration": 0.6268657500000074
                },
                {
                    "name": "A#4",
                    "midi": 70,
                    "time": 172.656737999996,
                    "velocity": 0.5590551181102362,
                    "duration": 0.6268657500000074
                },
                {
                    "name": "G4",
                    "midi": 67,
                    "time": 173.37315599999602,
                    "velocity": 0.5669291338582677,
                    "duration": 0.358208999999988
                },
                {
                    "name": "A#4",
                    "midi": 70,
                    "time": 173.37315599999602,
                    "velocity": 0.5669291338582677,
                    "duration": 0.358208999999988
                },
                {
                    "name": "G5",
                    "midi": 79,
                    "time": 173.37315599999602,
                    "velocity": 0.6771653543307087,
                    "duration": 0.358208999999988
                },
                {
                    "name": "D#5",
                    "midi": 75,
                    "time": 173.37315599999602,
                    "velocity": 0.6771653543307087,
                    "duration": 0.358208999999988
                },
                {
                    "name": "A#4",
                    "midi": 70,
                    "time": 173.731364999996,
                    "velocity": 0.6299212598425197,
                    "duration": 0.358208999999988
                },
                {
                    "name": "A#5",
                    "midi": 82,
                    "time": 173.731364999996,
                    "velocity": 0.6299212598425197,
                    "duration": 0.358208999999988
                },
                {
                    "name": "A#4",
                    "midi": 70,
                    "time": 174.089573999996,
                    "velocity": 0.6692913385826772,
                    "duration": 0.716417999999976
                },
                {
                    "name": "F4",
                    "midi": 65,
                    "time": 174.089573999996,
                    "velocity": 0.5590551181102362,
                    "duration": 0.358208999999988
                },
                {
                    "name": "F5",
                    "midi": 77,
                    "time": 174.089573999996,
                    "velocity": 0.6692913385826772,
                    "duration": 0.358208999999988
                },
                {
                    "name": "D#4",
                    "midi": 63,
                    "time": 174.44778299999598,
                    "velocity": 0.5433070866141733,
                    "duration": 0.358208999999988
                },
                {
                    "name": "D#5",
                    "midi": 75,
                    "time": 174.44778299999598,
                    "velocity": 0.6535433070866141,
                    "duration": 0.358208999999988
                },
                {
                    "name": "D4",
                    "midi": 62,
                    "time": 174.80599199999597,
                    "velocity": 0.5433070866141733,
                    "duration": 0.7164180000000044
                },
                {
                    "name": "A#4",
                    "midi": 70,
                    "time": 174.80599199999597,
                    "velocity": 0.6456692913385826,
                    "duration": 0.7164180000000044
                },
                {
                    "name": "D5",
                    "midi": 74,
                    "time": 174.80599199999597,
                    "velocity": 0.6456692913385826,
                    "duration": 0.7164180000000044
                },
                {
                    "name": "A#3",
                    "midi": 58,
                    "time": 175.52240999999597,
                    "velocity": 0.44881889763779526,
                    "duration": 0.6268657500000074
                },
                {
                    "name": "G4",
                    "midi": 67,
                    "time": 175.52240999999597,
                    "velocity": 0.5354330708661418,
                    "duration": 0.6268657500000074
                },
                {
                    "name": "A#4",
                    "midi": 70,
                    "time": 175.52240999999597,
                    "velocity": 0.5354330708661418,
                    "duration": 0.6268657500000074
                },
                {
                    "name": "G4",
                    "midi": 67,
                    "time": 176.23882799999598,
                    "velocity": 0.5669291338582677,
                    "duration": 0.358208999999988
                },
                {
                    "name": "A#4",
                    "midi": 70,
                    "time": 176.23882799999598,
                    "velocity": 0.5669291338582677,
                    "duration": 0.358208999999988
                },
                {
                    "name": "G5",
                    "midi": 79,
                    "time": 176.23882799999598,
                    "velocity": 0.6771653543307087,
                    "duration": 0.358208999999988
                },
                {
                    "name": "D#5",
                    "midi": 75,
                    "time": 176.23882799999598,
                    "velocity": 0.6771653543307087,
                    "duration": 0.358208999999988
                },
                {
                    "name": "A#4",
                    "midi": 70,
                    "time": 176.59703699999596,
                    "velocity": 0.5275590551181102,
                    "duration": 0.358208999999988
                },
                {
                    "name": "A#5",
                    "midi": 82,
                    "time": 176.59703699999596,
                    "velocity": 0.6299212598425197,
                    "duration": 0.358208999999988
                },
                {
                    "name": "A#4",
                    "midi": 70,
                    "time": 176.95524599999595,
                    "velocity": 0.5433070866141733,
                    "duration": 0.716417999999976
                },
                {
                    "name": "F4",
                    "midi": 65,
                    "time": 176.95524599999595,
                    "velocity": 0.6535433070866141,
                    "duration": 0.358208999999988
                },
                {
                    "name": "F5",
                    "midi": 77,
                    "time": 176.95524599999595,
                    "velocity": 0.6535433070866141,
                    "duration": 0.358208999999988
                },
                {
                    "name": "D#4",
                    "midi": 63,
                    "time": 177.31345499999594,
                    "velocity": 0.6377952755905512,
                    "duration": 0.358208999999988
                },
                {
                    "name": "D#5",
                    "midi": 75,
                    "time": 177.31345499999594,
                    "velocity": 0.6377952755905512,
                    "duration": 0.358208999999988
                },
                {
                    "name": "D4",
                    "midi": 62,
                    "time": 177.67166399999593,
                    "velocity": 0.5039370078740157,
                    "duration": 0.7164180000000044
                },
                {
                    "name": "A#4",
                    "midi": 70,
                    "time": 177.67166399999593,
                    "velocity": 0.5984251968503937,
                    "duration": 0.7164180000000044
                },
                {
                    "name": "D5",
                    "midi": 74,
                    "time": 177.67166399999593,
                    "velocity": 0.5984251968503937,
                    "duration": 0.7164180000000044
                },
                {
                    "name": "A#3",
                    "midi": 58,
                    "time": 178.38808199999593,
                    "velocity": 0.44881889763779526,
                    "duration": 0.7164180000000044
                },
                {
                    "name": "G4",
                    "midi": 67,
                    "time": 178.38808199999593,
                    "velocity": 0.5433070866141733,
                    "duration": 0.7164180000000044
                },
                {
                    "name": "A#4",
                    "midi": 70,
                    "time": 178.38808199999593,
                    "velocity": 0.5433070866141733,
                    "duration": 0.7164180000000044
                },
                {
                    "name": "D#4",
                    "midi": 63,
                    "time": 179.19405224999593,
                    "velocity": 0.5905511811023622,
                    "duration": 1.2537314999999865
                },
                {
                    "name": "G4",
                    "midi": 67,
                    "time": 179.19405224999593,
                    "velocity": 0.5905511811023622,
                    "duration": 1.2537314999999865
                },
                {
                    "name": "A#4",
                    "midi": 70,
                    "time": 179.19405224999593,
                    "velocity": 0.7086614173228346,
                    "duration": 1.2537314999999865
                },
                {
                    "name": "D#5",
                    "midi": 75,
                    "time": 179.19405224999593,
                    "velocity": 0.7086614173228346,
                    "duration": 1.2537314999999865
                },
                {
                    "name": "F4",
                    "midi": 65,
                    "time": 180.53733599999592,
                    "velocity": 0.5590551181102362,
                    "duration": 1.3432837500000119
                },
                {
                    "name": "A#4",
                    "midi": 70,
                    "time": 180.53733599999592,
                    "velocity": 0.6692913385826772,
                    "duration": 1.3432837500000119
                },
                {
                    "name": "D5",
                    "midi": 74,
                    "time": 180.53733599999592,
                    "velocity": 0.6692913385826772,
                    "duration": 1.3432837500000119
                },
                {
                    "name": "F5",
                    "midi": 77,
                    "time": 180.53733599999592,
                    "velocity": 0.6692913385826772,
                    "duration": 1.3432837500000119
                },
                {
                    "name": "G4",
                    "midi": 67,
                    "time": 181.97017199999593,
                    "velocity": 0.5905511811023622,
                    "duration": 0.6268657500000074
                },
                {
                    "name": "A#4",
                    "midi": 70,
                    "time": 181.97017199999593,
                    "velocity": 0.5905511811023622,
                    "duration": 0.6268657500000074
                },
                {
                    "name": "D#5",
                    "midi": 75,
                    "time": 181.97017199999593,
                    "velocity": 0.7086614173228346,
                    "duration": 0.6268657500000074
                },
                {
                    "name": "G5",
                    "midi": 79,
                    "time": 181.97017199999593,
                    "velocity": 0.7086614173228346,
                    "duration": 0.6268657500000074
                },
                {
                    "name": "D#4",
                    "midi": 63,
                    "time": 182.68658999999593,
                    "velocity": 0.5669291338582677,
                    "duration": 0.358208999999988
                },
                {
                    "name": "G4",
                    "midi": 67,
                    "time": 182.68658999999593,
                    "velocity": 0.5669291338582677,
                    "duration": 0.358208999999988
                },
                {
                    "name": "C5",
                    "midi": 72,
                    "time": 182.68658999999593,
                    "velocity": 0.6771653543307087,
                    "duration": 0.358208999999988
                },
                {
                    "name": "D#5",
                    "midi": 75,
                    "time": 182.68658999999593,
                    "velocity": 0.6771653543307087,
                    "duration": 0.358208999999988
                },
                {
                    "name": "G4",
                    "midi": 67,
                    "time": 183.04479899999592,
                    "velocity": 0.5196850393700787,
                    "duration": 0.268656749999991
                },
                {
                    "name": "G5",
                    "midi": 79,
                    "time": 183.04479899999592,
                    "velocity": 0.6220472440944882,
                    "duration": 0.268656749999991
                },
                {
                    "name": "F4",
                    "midi": 65,
                    "time": 183.4030079999959,
                    "velocity": 0.5433070866141733,
                    "duration": 0.7164180000000044
                },
                {
                    "name": "A#4",
                    "midi": 70,
                    "time": 183.4030079999959,
                    "velocity": 0.5433070866141733,
                    "duration": 0.7164180000000044
                },
                {
                    "name": "D5",
                    "midi": 74,
                    "time": 183.4030079999959,
                    "velocity": 0.6456692913385826,
                    "duration": 0.7164180000000044
                },
                {
                    "name": "F5",
                    "midi": 77,
                    "time": 183.4030079999959,
                    "velocity": 0.6456692913385826,
                    "duration": 0.7164180000000044
                },
                {
                    "name": "A#3",
                    "midi": 58,
                    "time": 184.1194259999959,
                    "velocity": 0.49606299212598426,
                    "duration": 0.7164180000000044
                },
                {
                    "name": "A#4",
                    "midi": 70,
                    "time": 184.1194259999959,
                    "velocity": 0.5905511811023622,
                    "duration": 0.7164180000000044
                },
                {
                    "name": "G#5",
                    "midi": 80,
                    "time": 184.83584399999592,
                    "velocity": 0.5748031496062992,
                    "duration": 0.716417999999976
                },
                {
                    "name": "D#6",
                    "midi": 87,
                    "time": 184.83584399999592,
                    "velocity": 0.5748031496062992,
                    "duration": 0.358208999999988
                },
                {
                    "name": "D#5",
                    "midi": 75,
                    "time": 184.83584399999592,
                    "velocity": 0.49606299212598426,
                    "duration": 0.358208999999988
                },
                {
                    "name": "D#6",
                    "midi": 87,
                    "time": 185.1940529999959,
                    "velocity": 0.5511811023622047,
                    "duration": 0.358208999999988
                },
                {
                    "name": "D#5",
                    "midi": 75,
                    "time": 185.1940529999959,
                    "velocity": 0.4645669291338583,
                    "duration": 0.358208999999988
                },
                {
                    "name": "G#5",
                    "midi": 80,
                    "time": 185.5522619999959,
                    "velocity": 0.5748031496062992,
                    "duration": 0.716417999999976
                },
                {
                    "name": "D6",
                    "midi": 86,
                    "time": 185.5522619999959,
                    "velocity": 0.5118110236220472,
                    "duration": 0.358208999999988
                },
                {
                    "name": "D5",
                    "midi": 74,
                    "time": 185.5522619999959,
                    "velocity": 0.4251968503937008,
                    "duration": 0.358208999999988
                },
                {
                    "name": "A#5",
                    "midi": 82,
                    "time": 185.91047099999588,
                    "velocity": 0.49606299212598426,
                    "duration": 0.358208999999988
                },
                {
                    "name": "A#4",
                    "midi": 70,
                    "time": 185.91047099999588,
                    "velocity": 0.4094488188976378,
                    "duration": 0.358208999999988
                },
                {
                    "name": "D#5",
                    "midi": 75,
                    "time": 186.26867999999587,
                    "velocity": 0.5354330708661418,
                    "duration": 1.432835999999952
                },
                {
                    "name": "C5",
                    "midi": 72,
                    "time": 186.26867999999587,
                    "velocity": 0.4409448818897638,
                    "duration": 0.358208999999988
                },
                {
                    "name": "C6",
                    "midi": 84,
                    "time": 186.26867999999587,
                    "velocity": 0.5354330708661418,
                    "duration": 0.358208999999988
                },
                {
                    "name": "C6",
                    "midi": 84,
                    "time": 186.62688899999586,
                    "velocity": 0.4881889763779528,
                    "duration": 0.358208999999988
                },
                {
                    "name": "C5",
                    "midi": 72,
                    "time": 186.62688899999586,
                    "velocity": 0.4015748031496063,
                    "duration": 0.358208999999988
                },
                {
                    "name": "G#5",
                    "midi": 80,
                    "time": 186.98509799999584,
                    "velocity": 0.5118110236220472,
                    "duration": 0.358208999999988
                },
                {
                    "name": "G#4",
                    "midi": 68,
                    "time": 186.98509799999584,
                    "velocity": 0.41732283464566927,
                    "duration": 0.358208999999988
                },
                {
                    "name": "C5",
                    "midi": 72,
                    "time": 187.34330699999583,
                    "velocity": 0.4094488188976378,
                    "duration": 0.358208999999988
                },
                {
                    "name": "C6",
                    "midi": 84,
                    "time": 187.34330699999583,
                    "velocity": 0.49606299212598426,
                    "duration": 0.358208999999988
                },
                {
                    "name": "D#5",
                    "midi": 75,
                    "time": 187.70151599999582,
                    "velocity": 0.5196850393700787,
                    "duration": 1.0746269999999924
                },
                {
                    "name": "A#4",
                    "midi": 70,
                    "time": 187.70151599999582,
                    "velocity": 0.5039370078740157,
                    "duration": 0.7164180000000044
                },
                {
                    "name": "A#5",
                    "midi": 82,
                    "time": 187.70151599999582,
                    "velocity": 0.5984251968503937,
                    "duration": 0.7164180000000044
                },
                {
                    "name": "G#4",
                    "midi": 68,
                    "time": 188.41793399999582,
                    "velocity": 0.49606299212598426,
                    "duration": 0.358208999999988
                },
                {
                    "name": "G#5",
                    "midi": 80,
                    "time": 188.41793399999582,
                    "velocity": 0.5669291338582677,
                    "duration": 0.358208999999988
                },
                {
                    "name": "G4",
                    "midi": 67,
                    "time": 188.7761429999958,
                    "velocity": 0.5275590551181102,
                    "duration": 0.358208999999988
                },
                {
                    "name": "G5",
                    "midi": 79,
                    "time": 188.7761429999958,
                    "velocity": 0.6299212598425197,
                    "duration": 0.358208999999988
                },
                {
                    "name": "F4",
                    "midi": 65,
                    "time": 189.1343519999958,
                    "velocity": 0.5433070866141733,
                    "duration": 1.4328360000000089
                },
                {
                    "name": "G#4",
                    "midi": 68,
                    "time": 189.1343519999958,
                    "velocity": 0.5433070866141733,
                    "duration": 1.4328360000000089
                },
                {
                    "name": "C5",
                    "midi": 72,
                    "time": 189.1343519999958,
                    "velocity": 0.6535433070866141,
                    "duration": 1.4328360000000089
                },
                {
                    "name": "F5",
                    "midi": 77,
                    "time": 189.1343519999958,
                    "velocity": 0.6535433070866141,
                    "duration": 1.4328360000000089
                },
                {
                    "name": "A#4",
                    "midi": 70,
                    "time": 190.5671879999958,
                    "velocity": 0.5511811023622047,
                    "duration": 0.7164180000000044
                },
                {
                    "name": "D5",
                    "midi": 74,
                    "time": 190.5671879999958,
                    "velocity": 0.5511811023622047,
                    "duration": 0.7164180000000044
                },
                {
                    "name": "F5",
                    "midi": 77,
                    "time": 190.5671879999958,
                    "velocity": 0.6535433070866141,
                    "duration": 0.7164180000000044
                },
                {
                    "name": "A#5",
                    "midi": 82,
                    "time": 190.5671879999958,
                    "velocity": 0.6535433070866141,
                    "duration": 0.7164180000000044
                },
                {
                    "name": "C6",
                    "midi": 84,
                    "time": 191.2836059999958,
                    "velocity": 0.6377952755905512,
                    "duration": 0.7164180000000044
                },
                {
                    "name": "G5",
                    "midi": 79,
                    "time": 191.2836059999958,
                    "velocity": 0.6377952755905512,
                    "duration": 0.7164180000000044
                },
                {
                    "name": "D#5",
                    "midi": 75,
                    "time": 191.2836059999958,
                    "velocity": 0.5275590551181102,
                    "duration": 0.7164180000000044
                },
                {
                    "name": "C5",
                    "midi": 72,
                    "time": 191.2836059999958,
                    "velocity": 0.5275590551181102,
                    "duration": 0.7164180000000044
                },
                {
                    "name": "D#5",
                    "midi": 75,
                    "time": 192.00002399999582,
                    "velocity": 0.6535433070866141,
                    "duration": 0.358208999999988
                },
                {
                    "name": "D#4",
                    "midi": 63,
                    "time": 192.00002399999582,
                    "velocity": 0.5433070866141733,
                    "duration": 0.358208999999988
                },
                {
                    "name": "D#5",
                    "midi": 75,
                    "time": 192.3582329999958,
                    "velocity": 0.5984251968503937,
                    "duration": 0.358208999999988
                },
                {
                    "name": "D#4",
                    "midi": 63,
                    "time": 192.3582329999958,
                    "velocity": 0.5039370078740157,
                    "duration": 0.358208999999988
                },
                {
                    "name": "G#4",
                    "midi": 68,
                    "time": 192.7164419999958,
                    "velocity": 0.5196850393700787,
                    "duration": 0.716417999999976
                },
                {
                    "name": "D5",
                    "midi": 74,
                    "time": 192.7164419999958,
                    "velocity": 0.5984251968503937,
                    "duration": 0.358208999999988
                },
                {
                    "name": "D4",
                    "midi": 62,
                    "time": 192.7164419999958,
                    "velocity": 0.5039370078740157,
                    "duration": 0.358208999999988
                },
                {
                    "name": "C5",
                    "midi": 72,
                    "time": 193.07465099999578,
                    "velocity": 0.5905511811023622,
                    "duration": 0.358208999999988
                },
                {
                    "name": "C4",
                    "midi": 60,
                    "time": 193.07465099999578,
                    "velocity": 0.49606299212598426,
                    "duration": 0.358208999999988
                },
                {
                    "name": "D#4",
                    "midi": 63,
                    "time": 193.43285999999577,
                    "velocity": 0.5433070866141733,
                    "duration": 1.0746269999999924
                },
                {
                    "name": "A#3",
                    "midi": 58,
                    "time": 193.43285999999577,
                    "velocity": 0.5433070866141733,
                    "duration": 0.7164180000000044
                },
                {
                    "name": "A#4",
                    "midi": 70,
                    "time": 193.43285999999577,
                    "velocity": 0.6456692913385826,
                    "duration": 0.7164180000000044
                },
                {
                    "name": "G#3",
                    "midi": 56,
                    "time": 194.14927799999577,
                    "velocity": 0.5433070866141733,
                    "duration": 0.358208999999988
                },
                {
                    "name": "G#4",
                    "midi": 68,
                    "time": 194.14927799999577,
                    "velocity": 0.6535433070866141,
                    "duration": 0.358208999999988
                },
                {
                    "name": "G3",
                    "midi": 55,
                    "time": 194.50748699999576,
                    "velocity": 0.5275590551181102,
                    "duration": 0.358208999999988
                },
                {
                    "name": "G4",
                    "midi": 67,
                    "time": 194.50748699999576,
                    "velocity": 0.6299212598425197,
                    "duration": 0.358208999999988
                },
                {
                    "name": "F3",
                    "midi": 53,
                    "time": 194.86569599999575,
                    "velocity": 0.5511811023622047,
                    "duration": 1.4328360000000089
                },
                {
                    "name": "C4",
                    "midi": 60,
                    "time": 194.86569599999575,
                    "velocity": 0.5511811023622047,
                    "duration": 1.4328360000000089
                },
                {
                    "name": "F4",
                    "midi": 65,
                    "time": 194.86569599999575,
                    "velocity": 0.6614173228346457,
                    "duration": 1.4328360000000089
                },
                {
                    "name": "D#4",
                    "midi": 63,
                    "time": 194.86569599999575,
                    "velocity": 0.6614173228346457,
                    "duration": 1.4328360000000089
                },
                {
                    "name": "A#3",
                    "midi": 58,
                    "time": 196.29853199999576,
                    "velocity": 0.5669291338582677,
                    "duration": 1.4328360000000089
                },
                {
                    "name": "D4",
                    "midi": 62,
                    "time": 196.29853199999576,
                    "velocity": 0.5669291338582677,
                    "duration": 1.4328360000000089
                },
                {
                    "name": "G4",
                    "midi": 67,
                    "time": 196.29853199999576,
                    "velocity": 0.6850393700787402,
                    "duration": 1.4328360000000089
                },
                {
                    "name": "A#4",
                    "midi": 70,
                    "time": 196.29853199999576,
                    "velocity": 0.6850393700787402,
                    "duration": 1.4328360000000089
                },
                {
                    "name": "D#3",
                    "midi": 51,
                    "time": 197.73136799999577,
                    "velocity": 0.7874015748031497,
                    "duration": 1.3432837499999835
                },
                {
                    "name": "D#4",
                    "midi": 63,
                    "time": 197.82092024999577,
                    "velocity": 0.6299212598425197,
                    "duration": 1.2537314999999865
                },
                {
                    "name": "G4",
                    "midi": 67,
                    "time": 197.82092024999577,
                    "velocity": 0.6299212598425197,
                    "duration": 1.2537314999999865
                },
                {
                    "name": "A#4",
                    "midi": 70,
                    "time": 197.82092024999577,
                    "velocity": 0.7401574803149606,
                    "duration": 1.2537314999999865
                },
                {
                    "name": "D#5",
                    "midi": 75,
                    "time": 197.82092024999577,
                    "velocity": 0.7401574803149606,
                    "duration": 1.2537314999999865
                },
                {
                    "name": "D#3",
                    "midi": 51,
                    "time": 199.07465174999575,
                    "velocity": 0.7086614173228346,
                    "duration": 1.4328360000000089
                },
                {
                    "name": "F4",
                    "midi": 65,
                    "time": 199.16420399999575,
                    "velocity": 0.5748031496062992,
                    "duration": 1.3432837500000119
                },
                {
                    "name": "A#4",
                    "midi": 70,
                    "time": 199.16420399999575,
                    "velocity": 0.5748031496062992,
                    "duration": 1.3432837500000119
                },
                {
                    "name": "D5",
                    "midi": 74,
                    "time": 199.16420399999575,
                    "velocity": 0.7007874015748031,
                    "duration": 1.3432837500000119
                },
                {
                    "name": "F5",
                    "midi": 77,
                    "time": 199.16420399999575,
                    "velocity": 0.7007874015748031,
                    "duration": 1.3432837500000119
                },
                {
                    "name": "D#3",
                    "midi": 51,
                    "time": 200.50748774999576,
                    "velocity": 0.7086614173228346,
                    "duration": 1.5223882499999775
                },
                {
                    "name": "G4",
                    "midi": 67,
                    "time": 200.59703999999576,
                    "velocity": 0.6299212598425197,
                    "duration": 0.7164180000000044
                },
                {
                    "name": "A#4",
                    "midi": 70,
                    "time": 200.59703999999576,
                    "velocity": 0.6299212598425197,
                    "duration": 0.7164180000000044
                },
                {
                    "name": "D#5",
                    "midi": 75,
                    "time": 200.59703999999576,
                    "velocity": 0.7401574803149606,
                    "duration": 0.7164180000000044
                },
                {
                    "name": "G5",
                    "midi": 79,
                    "time": 200.59703999999576,
                    "velocity": 0.7401574803149606,
                    "duration": 0.7164180000000044
                },
                {
                    "name": "D#4",
                    "midi": 63,
                    "time": 201.31345799999576,
                    "velocity": 0.5905511811023622,
                    "duration": 0.358208999999988
                },
                {
                    "name": "G4",
                    "midi": 67,
                    "time": 201.31345799999576,
                    "velocity": 0.5905511811023622,
                    "duration": 0.358208999999988
                },
                {
                    "name": "C5",
                    "midi": 72,
                    "time": 201.31345799999576,
                    "velocity": 0.7086614173228346,
                    "duration": 0.358208999999988
                },
                {
                    "name": "D#5",
                    "midi": 75,
                    "time": 201.31345799999576,
                    "velocity": 0.7086614173228346,
                    "duration": 0.358208999999988
                },
                {
                    "name": "G4",
                    "midi": 67,
                    "time": 201.67166699999575,
                    "velocity": 0.5433070866141733,
                    "duration": 0.358208999999988
                },
                {
                    "name": "G5",
                    "midi": 79,
                    "time": 201.67166699999575,
                    "velocity": 0.6456692913385826,
                    "duration": 0.358208999999988
                },
                {
                    "name": "F4",
                    "midi": 65,
                    "time": 202.02987599999574,
                    "velocity": 0.5590551181102362,
                    "duration": 0.7164180000000044
                },
                {
                    "name": "A#4",
                    "midi": 70,
                    "time": 202.02987599999574,
                    "velocity": 0.5590551181102362,
                    "duration": 0.7164180000000044
                },
                {
                    "name": "D5",
                    "midi": 74,
                    "time": 202.02987599999574,
                    "velocity": 0.6692913385826772,
                    "duration": 0.7164180000000044
                },
                {
                    "name": "F5",
                    "midi": 77,
                    "time": 202.02987599999574,
                    "velocity": 0.6692913385826772,
                    "duration": 0.7164180000000044
                },
                {
                    "name": "A#3",
                    "midi": 58,
                    "time": 202.74629399999574,
                    "velocity": 0.5275590551181102,
                    "duration": 0.6268657500000074
                },
                {
                    "name": "A#4",
                    "midi": 70,
                    "time": 202.74629399999574,
                    "velocity": 0.6299212598425197,
                    "duration": 0.6268657500000074
                },
                {
                    "name": "D#3",
                    "midi": 51,
                    "time": 203.37315974999575,
                    "velocity": 0.7086614173228346,
                    "duration": 2.865671999999961
                },
                {
                    "name": "G4",
                    "midi": 67,
                    "time": 203.46271199999575,
                    "velocity": 0.5905511811023622,
                    "duration": 0.358208999999988
                },
                {
                    "name": "A#4",
                    "midi": 70,
                    "time": 203.46271199999575,
                    "velocity": 0.5905511811023622,
                    "duration": 0.358208999999988
                },
                {
                    "name": "G5",
                    "midi": 79,
                    "time": 203.46271199999575,
                    "velocity": 0.7086614173228346,
                    "duration": 0.358208999999988
                },
                {
                    "name": "D#5",
                    "midi": 75,
                    "time": 203.46271199999575,
                    "velocity": 0.7086614173228346,
                    "duration": 0.358208999999988
                },
                {
                    "name": "A#4",
                    "midi": 70,
                    "time": 203.82092099999574,
                    "velocity": 0.5433070866141733,
                    "duration": 0.358208999999988
                },
                {
                    "name": "A#5",
                    "midi": 82,
                    "time": 203.82092099999574,
                    "velocity": 0.6535433070866141,
                    "duration": 0.358208999999988
                },
                {
                    "name": "A#4",
                    "midi": 70,
                    "time": 204.17912999999572,
                    "velocity": 0.7007874015748031,
                    "duration": 0.716417999999976
                },
                {
                    "name": "F4",
                    "midi": 65,
                    "time": 204.17912999999572,
                    "velocity": 0.5748031496062992,
                    "duration": 0.358208999999988
                },
                {
                    "name": "F5",
                    "midi": 77,
                    "time": 204.17912999999572,
                    "velocity": 0.7007874015748031,
                    "duration": 0.358208999999988
                },
                {
                    "name": "D#4",
                    "midi": 63,
                    "time": 204.5373389999957,
                    "velocity": 0.5669291338582677,
                    "duration": 0.358208999999988
                },
                {
                    "name": "D#5",
                    "midi": 75,
                    "time": 204.5373389999957,
                    "velocity": 0.6850393700787402,
                    "duration": 0.358208999999988
                },
                {
                    "name": "D4",
                    "midi": 62,
                    "time": 204.8955479999957,
                    "velocity": 0.5590551181102362,
                    "duration": 0.7164180000000044
                },
                {
                    "name": "A#4",
                    "midi": 70,
                    "time": 204.8955479999957,
                    "velocity": 0.6692913385826772,
                    "duration": 0.7164180000000044
                },
                {
                    "name": "D5",
                    "midi": 74,
                    "time": 204.8955479999957,
                    "velocity": 0.6692913385826772,
                    "duration": 0.7164180000000044
                },
                {
                    "name": "A#3",
                    "midi": 58,
                    "time": 205.6119659999957,
                    "velocity": 0.49606299212598426,
                    "duration": 0.6268657500000074
                },
                {
                    "name": "G4",
                    "midi": 67,
                    "time": 205.6119659999957,
                    "velocity": 0.5905511811023622,
                    "duration": 0.6268657500000074
                },
                {
                    "name": "A#4",
                    "midi": 70,
                    "time": 205.6119659999957,
                    "velocity": 0.5905511811023622,
                    "duration": 0.6268657500000074
                },
                {
                    "name": "D#3",
                    "midi": 51,
                    "time": 206.2388317499957,
                    "velocity": 0.7086614173228346,
                    "duration": 2.955224249999958
                },
                {
                    "name": "G4",
                    "midi": 67,
                    "time": 206.3283839999957,
                    "velocity": 0.5905511811023622,
                    "duration": 0.358208999999988
                },
                {
                    "name": "A#4",
                    "midi": 70,
                    "time": 206.3283839999957,
                    "velocity": 0.7086614173228346,
                    "duration": 0.358208999999988
                },
                {
                    "name": "G5",
                    "midi": 79,
                    "time": 206.3283839999957,
                    "velocity": 0.7086614173228346,
                    "duration": 0.358208999999988
                },
                {
                    "name": "D#5",
                    "midi": 75,
                    "time": 206.3283839999957,
                    "velocity": 0.7086614173228346,
                    "duration": 0.358208999999988
                },
                {
                    "name": "A#4",
                    "midi": 70,
                    "time": 206.6865929999957,
                    "velocity": 0.5433070866141733,
                    "duration": 0.358208999999988
                },
                {
                    "name": "A#5",
                    "midi": 82,
                    "time": 206.6865929999957,
                    "velocity": 0.6535433070866141,
                    "duration": 0.358208999999988
                },
                {
                    "name": "A#4",
                    "midi": 70,
                    "time": 207.04480199999568,
                    "velocity": 0.6850393700787402,
                    "duration": 0.716417999999976
                },
                {
                    "name": "F4",
                    "midi": 65,
                    "time": 207.04480199999568,
                    "velocity": 0.5669291338582677,
                    "duration": 0.358208999999988
                },
                {
                    "name": "F5",
                    "midi": 77,
                    "time": 207.04480199999568,
                    "velocity": 0.6850393700787402,
                    "duration": 0.358208999999988
                },
                {
                    "name": "D#4",
                    "midi": 63,
                    "time": 207.40301099999567,
                    "velocity": 0.5511811023622047,
                    "duration": 0.358208999999988
                },
                {
                    "name": "D#5",
                    "midi": 75,
                    "time": 207.40301099999567,
                    "velocity": 0.6614173228346457,
                    "duration": 0.358208999999988
                },
                {
                    "name": "D4",
                    "midi": 62,
                    "time": 207.76121999999566,
                    "velocity": 0.6377952755905512,
                    "duration": 0.7164180000000044
                },
                {
                    "name": "A#4",
                    "midi": 70,
                    "time": 207.76121999999566,
                    "velocity": 0.6377952755905512,
                    "duration": 0.7164180000000044
                },
                {
                    "name": "D5",
                    "midi": 74,
                    "time": 207.76121999999566,
                    "velocity": 0.6377952755905512,
                    "duration": 0.7164180000000044
                },
                {
                    "name": "A#3",
                    "midi": 58,
                    "time": 208.47763799999566,
                    "velocity": 0.49606299212598426,
                    "duration": 0.7164180000000044
                },
                {
                    "name": "G4",
                    "midi": 67,
                    "time": 208.47763799999566,
                    "velocity": 0.5748031496062992,
                    "duration": 0.7164180000000044
                },
                {
                    "name": "A#4",
                    "midi": 70,
                    "time": 208.47763799999566,
                    "velocity": 0.5748031496062992,
                    "duration": 0.7164180000000044
                },
                {
                    "name": "B3",
                    "midi": 59,
                    "time": 209.19405599999567,
                    "velocity": 0.3937007874015748,
                    "duration": 1.4328360000000089
                },
                {
                    "name": "D#4",
                    "midi": 63,
                    "time": 209.19405599999567,
                    "velocity": 0.3937007874015748,
                    "duration": 1.4328360000000089
                },
                {
                    "name": "G#4",
                    "midi": 68,
                    "time": 209.19405599999567,
                    "velocity": 0.3937007874015748,
                    "duration": 1.4328360000000089
                },
                {
                    "name": "B3",
                    "midi": 59,
                    "time": 210.62689199999568,
                    "velocity": 0.3858267716535433,
                    "duration": 0.7164180000000044
                },
                {
                    "name": "D#4",
                    "midi": 63,
                    "time": 210.62689199999568,
                    "velocity": 0.3858267716535433,
                    "duration": 0.7164180000000044
                },
                {
                    "name": "B3",
                    "midi": 59,
                    "time": 211.34330999999568,
                    "velocity": 0.3700787401574803,
                    "duration": 0.7164180000000044
                },
                {
                    "name": "D#4",
                    "midi": 63,
                    "time": 211.34330999999568,
                    "velocity": 0.3700787401574803,
                    "duration": 0.7164180000000044
                },
                {
                    "name": "C#4",
                    "midi": 61,
                    "time": 212.0597279999957,
                    "velocity": 0.3937007874015748,
                    "duration": 0.7164180000000044
                },
                {
                    "name": "E4",
                    "midi": 64,
                    "time": 212.0597279999957,
                    "velocity": 0.3937007874015748,
                    "duration": 0.7164180000000044
                },
                {
                    "name": "D#4",
                    "midi": 63,
                    "time": 212.7761459999957,
                    "velocity": 0.3937007874015748,
                    "duration": 0.7164180000000044
                },
                {
                    "name": "F#4",
                    "midi": 66,
                    "time": 212.7761459999957,
                    "velocity": 0.3937007874015748,
                    "duration": 0.7164180000000044
                },
                {
                    "name": "E4",
                    "midi": 64,
                    "time": 213.4925639999957,
                    "velocity": 0.41732283464566927,
                    "duration": 1.4328360000000089
                },
                {
                    "name": "G#4",
                    "midi": 68,
                    "time": 213.4925639999957,
                    "velocity": 0.41732283464566927,
                    "duration": 1.4328360000000089
                },
                {
                    "name": "D#4",
                    "midi": 63,
                    "time": 214.9253999999957,
                    "velocity": 0.3937007874015748,
                    "duration": 1.4328360000000089
                },
                {
                    "name": "F#4",
                    "midi": 66,
                    "time": 214.9253999999957,
                    "velocity": 0.3937007874015748,
                    "duration": 1.4328360000000089
                },
                {
                    "name": "E4",
                    "midi": 64,
                    "time": 216.3582359999957,
                    "velocity": 0.4015748031496063,
                    "duration": 0.7164180000000044
                },
                {
                    "name": "G#4",
                    "midi": 68,
                    "time": 216.3582359999957,
                    "velocity": 0.4015748031496063,
                    "duration": 0.7164180000000044
                },
                {
                    "name": "F#4",
                    "midi": 66,
                    "time": 217.07465399999572,
                    "velocity": 0.4094488188976378,
                    "duration": 0.7164180000000044
                },
                {
                    "name": "A4",
                    "midi": 69,
                    "time": 217.07465399999572,
                    "velocity": 0.4094488188976378,
                    "duration": 0.7164180000000044
                },
                {
                    "name": "G#4",
                    "midi": 68,
                    "time": 217.79107199999572,
                    "velocity": 0.41732283464566927,
                    "duration": 0.7164180000000044
                },
                {
                    "name": "B4",
                    "midi": 71,
                    "time": 217.79107199999572,
                    "velocity": 0.41732283464566927,
                    "duration": 0.7164180000000044
                },
                {
                    "name": "G#4",
                    "midi": 68,
                    "time": 218.50748999999573,
                    "velocity": 0.3937007874015748,
                    "duration": 0.7164180000000044
                },
                {
                    "name": "B4",
                    "midi": 71,
                    "time": 218.50748999999573,
                    "velocity": 0.3937007874015748,
                    "duration": 0.7164180000000044
                },
                {
                    "name": "F#4",
                    "midi": 66,
                    "time": 219.22390799999573,
                    "velocity": 0.41732283464566927,
                    "duration": 0.7164180000000044
                },
                {
                    "name": "A4",
                    "midi": 69,
                    "time": 219.22390799999573,
                    "velocity": 0.41732283464566927,
                    "duration": 0.7164180000000044
                },
                {
                    "name": "G#4",
                    "midi": 68,
                    "time": 219.94032599999574,
                    "velocity": 0.4251968503937008,
                    "duration": 0.7164180000000044
                },
                {
                    "name": "B4",
                    "midi": 71,
                    "time": 219.94032599999574,
                    "velocity": 0.4251968503937008,
                    "duration": 0.7164180000000044
                },
                {
                    "name": "A4",
                    "midi": 69,
                    "time": 220.65674399999574,
                    "velocity": 0.4409448818897638,
                    "duration": 1.4328360000000089
                },
                {
                    "name": "C#5",
                    "midi": 73,
                    "time": 220.65674399999574,
                    "velocity": 0.4409448818897638,
                    "duration": 1.4328360000000089
                },
                {
                    "name": "F#4",
                    "midi": 66,
                    "time": 222.08957999999575,
                    "velocity": 0.49606299212598426,
                    "duration": 0.7164180000000044
                },
                {
                    "name": "D5",
                    "midi": 74,
                    "time": 222.08957999999575,
                    "velocity": 0.49606299212598426,
                    "duration": 0.7164180000000044
                },
                {
                    "name": "A4",
                    "midi": 69,
                    "time": 222.80599799999575,
                    "velocity": 0.4409448818897638,
                    "duration": 0.7164180000000044
                },
                {
                    "name": "C#5",
                    "midi": 73,
                    "time": 222.80599799999575,
                    "velocity": 0.4409448818897638,
                    "duration": 0.7164180000000044
                },
                {
                    "name": "G#4",
                    "midi": 68,
                    "time": 223.52241599999576,
                    "velocity": 0.41732283464566927,
                    "duration": 1.4328360000000089
                },
                {
                    "name": "B4",
                    "midi": 71,
                    "time": 223.52241599999576,
                    "velocity": 0.41732283464566927,
                    "duration": 1.4328360000000089
                },
                {
                    "name": "E4",
                    "midi": 64,
                    "time": 224.95525199999577,
                    "velocity": 0.4251968503937008,
                    "duration": 0.7164180000000044
                },
                {
                    "name": "C#5",
                    "midi": 73,
                    "time": 224.95525199999577,
                    "velocity": 0.4251968503937008,
                    "duration": 0.7164180000000044
                },
                {
                    "name": "B4",
                    "midi": 71,
                    "time": 225.67166999999577,
                    "velocity": 0.4094488188976378,
                    "duration": 0.7164180000000044
                },
                {
                    "name": "G#4",
                    "midi": 68,
                    "time": 225.67166999999577,
                    "velocity": 0.4094488188976378,
                    "duration": 0.7164180000000044
                },
                {
                    "name": "C#4",
                    "midi": 61,
                    "time": 226.38808799999578,
                    "velocity": 0.4015748031496063,
                    "duration": 0.7164180000000044
                },
                {
                    "name": "A4",
                    "midi": 69,
                    "time": 226.38808799999578,
                    "velocity": 0.4015748031496063,
                    "duration": 0.7164180000000044
                },
                {
                    "name": "E4",
                    "midi": 64,
                    "time": 227.10450599999578,
                    "velocity": 0.3858267716535433,
                    "duration": 0.7164180000000044
                },
                {
                    "name": "G#4",
                    "midi": 68,
                    "time": 227.10450599999578,
                    "velocity": 0.3858267716535433,
                    "duration": 0.7164180000000044
                },
                {
                    "name": "D#4",
                    "midi": 63,
                    "time": 227.82092399999578,
                    "velocity": 0.4094488188976378,
                    "duration": 1.4328360000000089
                },
                {
                    "name": "F#4",
                    "midi": 66,
                    "time": 227.82092399999578,
                    "velocity": 0.4094488188976378,
                    "duration": 1.4328360000000089
                },
                {
                    "name": "C#4",
                    "midi": 61,
                    "time": 229.2537599999958,
                    "velocity": 0.3937007874015748,
                    "duration": 1.4328360000000089
                },
                {
                    "name": "E4",
                    "midi": 64,
                    "time": 229.2537599999958,
                    "velocity": 0.3937007874015748,
                    "duration": 1.4328360000000089
                },
                {
                    "name": "G#3",
                    "midi": 56,
                    "time": 230.6865959999958,
                    "velocity": 0.36220472440944884,
                    "duration": 1.4328360000000089
                },
                {
                    "name": "D#4",
                    "midi": 63,
                    "time": 230.6865959999958,
                    "velocity": 0.36220472440944884,
                    "duration": 1.4328360000000089
                },
                {
                    "name": "G#3",
                    "midi": 56,
                    "time": 232.1194319999958,
                    "velocity": 0.29133858267716534,
                    "duration": 0.7164180000000044
                },
                {
                    "name": "D#4",
                    "midi": 63,
                    "time": 232.1194319999958,
                    "velocity": 0.29133858267716534,
                    "duration": 0.7164180000000044
                },
                {
                    "name": "G#3",
                    "midi": 56,
                    "time": 232.83584999999582,
                    "velocity": 0.2755905511811024,
                    "duration": 0.6268657500000074
                },
                {
                    "name": "D#4",
                    "midi": 63,
                    "time": 232.83584999999582,
                    "velocity": 0.2755905511811024,
                    "duration": 0.6268657500000074
                },
                {
                    "name": "G6",
                    "midi": 91,
                    "time": 233.55077546249584,
                    "velocity": 0.5590551181102362,
                    "duration": 0.17910450000002243
                },
                {
                    "name": "G7",
                    "midi": 103,
                    "time": 233.55226799999585,
                    "velocity": 0.7086614173228346,
                    "duration": 0.17910450000002243
                },
                {
                    "name": "F7",
                    "midi": 101,
                    "time": 233.73137249999587,
                    "velocity": 0.6535433070866141,
                    "duration": 0.179104499999994
                },
                {
                    "name": "F6",
                    "midi": 89,
                    "time": 233.73211876874586,
                    "velocity": 0.5118110236220472,
                    "duration": 0.179104499999994
                },
                {
                    "name": "D#6",
                    "midi": 87,
                    "time": 233.90973073124587,
                    "velocity": 0.5590551181102362,
                    "duration": 0.179104499999994
                },
                {
                    "name": "D#7",
                    "midi": 99,
                    "time": 233.91047699999586,
                    "velocity": 0.7086614173228346,
                    "duration": 0.179104499999994
                },
                {
                    "name": "D7",
                    "midi": 98,
                    "time": 234.08958149999586,
                    "velocity": 0.6456692913385826,
                    "duration": 0.17910450000002243
                },
                {
                    "name": "D6",
                    "midi": 86,
                    "time": 234.09107403749587,
                    "velocity": 0.5039370078740157,
                    "duration": 0.179104499999994
                },
                {
                    "name": "C7",
                    "midi": 96,
                    "time": 234.26868599999588,
                    "velocity": 0.6929133858267716,
                    "duration": 0.179104499999994
                },
                {
                    "name": "C6",
                    "midi": 84,
                    "time": 234.26943226874587,
                    "velocity": 0.5511811023622047,
                    "duration": 0.179104499999994
                },
                {
                    "name": "A#5",
                    "midi": 82,
                    "time": 234.44779049999588,
                    "velocity": 0.5039370078740157,
                    "duration": 0.179104499999994
                },
                {
                    "name": "A#6",
                    "midi": 94,
                    "time": 234.44779049999588,
                    "velocity": 0.6456692913385826,
                    "duration": 0.179104499999994
                },
                {
                    "name": "G#6",
                    "midi": 92,
                    "time": 234.62689499999587,
                    "velocity": 0.6929133858267716,
                    "duration": 0.179104499999994
                },
                {
                    "name": "G#5",
                    "midi": 80,
                    "time": 234.62689499999587,
                    "velocity": 0.5511811023622047,
                    "duration": 0.179104499999994
                },
                {
                    "name": "G6",
                    "midi": 91,
                    "time": 234.80599949999586,
                    "velocity": 0.6456692913385826,
                    "duration": 0.179104499999994
                },
                {
                    "name": "G5",
                    "midi": 79,
                    "time": 234.80823830624587,
                    "velocity": 0.5039370078740157,
                    "duration": 0.179104499999994
                },
                {
                    "name": "F6",
                    "midi": 89,
                    "time": 234.98510399999586,
                    "velocity": 0.6850393700787402,
                    "duration": 0.179104499999994
                },
                {
                    "name": "F5",
                    "midi": 77,
                    "time": 234.98659653749587,
                    "velocity": 0.5511811023622047,
                    "duration": 0.179104499999994
                },
                {
                    "name": "D#6",
                    "midi": 87,
                    "time": 235.16420849999585,
                    "velocity": 0.6377952755905512,
                    "duration": 0.179104499999994
                },
                {
                    "name": "D#5",
                    "midi": 75,
                    "time": 235.16570103749586,
                    "velocity": 0.49606299212598426,
                    "duration": 0.179104499999994
                },
                {
                    "name": "D5",
                    "midi": 74,
                    "time": 235.34256673124585,
                    "velocity": 0.5354330708661418,
                    "duration": 0.179104499999994
                },
                {
                    "name": "D6",
                    "midi": 86,
                    "time": 235.34331299999585,
                    "velocity": 0.6771653543307087,
                    "duration": 0.179104499999994
                },
                {
                    "name": "C6",
                    "midi": 84,
                    "time": 235.52241749999584,
                    "velocity": 0.6299212598425197,
                    "duration": 0.179104499999994
                },
                {
                    "name": "C5",
                    "midi": 72,
                    "time": 235.52465630624584,
                    "velocity": 0.49606299212598426,
                    "duration": 0.179104499999994
                },
                {
                    "name": "A#5",
                    "midi": 82,
                    "time": 235.70152199999583,
                    "velocity": 0.6771653543307087,
                    "duration": 0.179104499999994
                },
                {
                    "name": "A#4",
                    "midi": 70,
                    "time": 235.70301453749585,
                    "velocity": 0.5354330708661418,
                    "duration": 0.17910449999996558
                },
                {
                    "name": "G#5",
                    "midi": 80,
                    "time": 235.88062649999583,
                    "velocity": 0.6299212598425197,
                    "duration": 0.17910449999996558
                },
                {
                    "name": "G#4",
                    "midi": 68,
                    "time": 235.88137276874582,
                    "velocity": 0.49606299212598426,
                    "duration": 0.17910449999996558
                },
                {
                    "name": "G4",
                    "midi": 67,
                    "time": 236.0589847312458,
                    "velocity": 0.5354330708661418,
                    "duration": 0.17910449999996558
                },
                {
                    "name": "G5",
                    "midi": 79,
                    "time": 236.0597309999958,
                    "velocity": 0.6771653543307087,
                    "duration": 0.17910449999996558
                },
                {
                    "name": "F4",
                    "midi": 65,
                    "time": 236.23734296249577,
                    "velocity": 0.49606299212598426,
                    "duration": 0.179104499999994
                },
                {
                    "name": "F5",
                    "midi": 77,
                    "time": 236.23883549999576,
                    "velocity": 0.6299212598425197,
                    "duration": 0.17910450000002243
                },
                {
                    "name": "D#4",
                    "midi": 63,
                    "time": 236.41644746249577,
                    "velocity": 0.5196850393700787,
                    "duration": 0.17910450000002243
                },
                {
                    "name": "D#5",
                    "midi": 75,
                    "time": 236.41793999999578,
                    "velocity": 0.6614173228346457,
                    "duration": 0.17910450000002243
                },
                {
                    "name": "D4",
                    "midi": 62,
                    "time": 236.5970444999958,
                    "velocity": 0.49606299212598426,
                    "duration": 0.17910450000002243
                },
                {
                    "name": "D5",
                    "midi": 74,
                    "time": 236.5970444999958,
                    "velocity": 0.6220472440944882,
                    "duration": 0.17910450000002243
                },
                {
                    "name": "C4",
                    "midi": 60,
                    "time": 236.7746564624958,
                    "velocity": 0.5196850393700787,
                    "duration": 0.17910450000002243
                },
                {
                    "name": "C5",
                    "midi": 72,
                    "time": 236.77614899999583,
                    "velocity": 0.6614173228346457,
                    "duration": 0.17910450000002243
                },
                {
                    "name": "A#3",
                    "midi": 58,
                    "time": 236.95376096249583,
                    "velocity": 0.4881889763779528,
                    "duration": 0.17910450000002243
                },
                {
                    "name": "A#4",
                    "midi": 70,
                    "time": 236.95525349999585,
                    "velocity": 0.5984251968503937,
                    "duration": 0.17910450000002243
                },
                {
                    "name": "G#4",
                    "midi": 68,
                    "time": 237.13435799999587,
                    "velocity": 0.6535433070866141,
                    "duration": 0.179104499999994
                },
                {
                    "name": "G#3",
                    "midi": 56,
                    "time": 237.13659680624588,
                    "velocity": 0.5118110236220472,
                    "duration": 0.179104499999994
                },
                {
                    "name": "G3",
                    "midi": 55,
                    "time": 237.31346249999586,
                    "velocity": 0.48031496062992124,
                    "duration": 0.17910450000002243
                },
                {
                    "name": "G4",
                    "midi": 67,
                    "time": 237.31346249999586,
                    "velocity": 0.5748031496062992,
                    "duration": 0.17910450000002243
                },
                {
                    "name": "F3",
                    "midi": 53,
                    "time": 237.49107446249587,
                    "velocity": 0.5039370078740157,
                    "duration": 0.17910450000002243
                },
                {
                    "name": "F4",
                    "midi": 65,
                    "time": 237.4925669999959,
                    "velocity": 0.6456692913385826,
                    "duration": 0.17910450000002243
                },
                {
                    "name": "D#3",
                    "midi": 51,
                    "time": 237.6701789624959,
                    "velocity": 0.48031496062992124,
                    "duration": 0.17910450000002243
                },
                {
                    "name": "D#4",
                    "midi": 63,
                    "time": 237.6716714999959,
                    "velocity": 0.5748031496062992,
                    "duration": 0.17910450000002243
                },
                {
                    "name": "D3",
                    "midi": 50,
                    "time": 237.84928346249592,
                    "velocity": 0.49606299212598426,
                    "duration": 0.17910450000002243
                },
                {
                    "name": "D4",
                    "midi": 62,
                    "time": 237.85077599999593,
                    "velocity": 0.6299212598425197,
                    "duration": 0.17910450000002243
                },
                {
                    "name": "C3",
                    "midi": 48,
                    "time": 238.02988049999595,
                    "velocity": 0.4645669291338583,
                    "duration": 0.179104499999994
                },
                {
                    "name": "C4",
                    "midi": 60,
                    "time": 238.02988049999595,
                    "velocity": 0.5669291338582677,
                    "duration": 0.179104499999994
                },
                {
                    "name": "A#3",
                    "midi": 58,
                    "time": 238.20898499999595,
                    "velocity": 0.6299212598425197,
                    "duration": 0.179104499999994
                },
                {
                    "name": "A#2",
                    "midi": 46,
                    "time": 238.20973126874594,
                    "velocity": 0.49606299212598426,
                    "duration": 0.179104499999994
                },
                {
                    "name": "G#3",
                    "midi": 56,
                    "time": 238.38808949999594,
                    "velocity": 0.5590551181102362,
                    "duration": 0.179104499999994
                },
                {
                    "name": "G#2",
                    "midi": 44,
                    "time": 238.38883576874593,
                    "velocity": 0.44881889763779526,
                    "duration": 0.179104499999994
                },
                {
                    "name": "G3",
                    "midi": 55,
                    "time": 238.56719399999594,
                    "velocity": 0.6220472440944882,
                    "duration": 0.179104499999994
                },
                {
                    "name": "G2",
                    "midi": 43,
                    "time": 238.56794026874593,
                    "velocity": 0.4881889763779528,
                    "duration": 0.179104499999994
                },
                {
                    "name": "F3",
                    "midi": 53,
                    "time": 238.74629849999593,
                    "velocity": 0.5433070866141733,
                    "duration": 0.179104499999994
                },
                {
                    "name": "F2",
                    "midi": 41,
                    "time": 238.74704476874592,
                    "velocity": 0.4251968503937008,
                    "duration": 0.179104499999994
                },
                {
                    "name": "D#2",
                    "midi": 39,
                    "time": 238.9239104624959,
                    "velocity": 0.4881889763779528,
                    "duration": 0.179104499999994
                },
                {
                    "name": "D#3",
                    "midi": 51,
                    "time": 238.92540299999592,
                    "velocity": 0.6220472440944882,
                    "duration": 0.179104499999994
                },
                {
                    "name": "D3",
                    "midi": 50,
                    "time": 239.10450749999592,
                    "velocity": 0.5354330708661418,
                    "duration": 0.179104499999994
                },
                {
                    "name": "D2",
                    "midi": 38,
                    "time": 239.1052537687459,
                    "velocity": 0.4251968503937008,
                    "duration": 0.179104499999994
                },
                {
                    "name": "D#3",
                    "midi": 51,
                    "time": 239.2836119999959,
                    "velocity": 0.5984251968503937,
                    "duration": 0.179104499999994
                },
                {
                    "name": "F3",
                    "midi": 53,
                    "time": 239.4627164999959,
                    "velocity": 0.5275590551181102,
                    "duration": 0.179104499999994
                },
                {
                    "name": "G3",
                    "midi": 55,
                    "time": 239.6418209999959,
                    "velocity": 0.5984251968503937,
                    "duration": 0.179104499999994
                },
                {
                    "name": "G#3",
                    "midi": 56,
                    "time": 239.8209254999959,
                    "velocity": 0.5354330708661418,
                    "duration": 0.179104499999994
                },
                {
                    "name": "A#3",
                    "midi": 58,
                    "time": 240.0000299999959,
                    "velocity": 0.6220472440944882,
                    "duration": 0.179104499999994
                },
                {
                    "name": "C4",
                    "midi": 60,
                    "time": 240.17913449999588,
                    "velocity": 0.5354330708661418,
                    "duration": 0.179104499999994
                },
                {
                    "name": "D4",
                    "midi": 62,
                    "time": 240.35823899999588,
                    "velocity": 0.6299212598425197,
                    "duration": 0.179104499999994
                },
                {
                    "name": "D#4",
                    "midi": 63,
                    "time": 240.53734349999587,
                    "velocity": 0.5433070866141733,
                    "duration": 0.179104499999994
                },
                {
                    "name": "F3",
                    "midi": 53,
                    "time": 240.71644799999586,
                    "velocity": 0.5118110236220472,
                    "duration": 0.179104499999994
                },
                {
                    "name": "F4",
                    "midi": 65,
                    "time": 240.71644799999586,
                    "velocity": 0.5669291338582677,
                    "duration": 0.179104499999994
                },
                {
                    "name": "G3",
                    "midi": 55,
                    "time": 240.89555249999586,
                    "velocity": 0.47244094488188976,
                    "duration": 0.17910450000002243
                },
                {
                    "name": "G4",
                    "midi": 67,
                    "time": 240.89555249999586,
                    "velocity": 0.5275590551181102,
                    "duration": 0.17910450000002243
                },
                {
                    "name": "G#3",
                    "midi": 56,
                    "time": 241.07316446249587,
                    "velocity": 0.5511811023622047,
                    "duration": 0.17910450000002243
                },
                {
                    "name": "G#4",
                    "midi": 68,
                    "time": 241.07465699999588,
                    "velocity": 0.6220472440944882,
                    "duration": 0.17910450000002243
                },
                {
                    "name": "A#4",
                    "midi": 70,
                    "time": 241.2537614999959,
                    "velocity": 0.5511811023622047,
                    "duration": 0.179104499999994
                },
                {
                    "name": "A#3",
                    "midi": 58,
                    "time": 241.2545077687459,
                    "velocity": 0.49606299212598426,
                    "duration": 0.179104499999994
                },
                {
                    "name": "C5",
                    "midi": 72,
                    "time": 241.4328659999959,
                    "velocity": 0.6535433070866141,
                    "duration": 0.179104499999994
                },
                {
                    "name": "C4",
                    "midi": 60,
                    "time": 241.43435853749588,
                    "velocity": 0.5669291338582677,
                    "duration": 0.17910450000002243
                },
                {
                    "name": "D5",
                    "midi": 74,
                    "time": 241.6119704999959,
                    "velocity": 0.5748031496062992,
                    "duration": 0.17910450000002243
                },
                {
                    "name": "D4",
                    "midi": 62,
                    "time": 241.6134630374959,
                    "velocity": 0.5275590551181102,
                    "duration": 0.179104499999994
                },
                {
                    "name": "D#5",
                    "midi": 75,
                    "time": 241.7910749999959,
                    "velocity": 0.6692913385826772,
                    "duration": 0.17910449999996558
                },
                {
                    "name": "D#4",
                    "midi": 63,
                    "time": 241.7918212687459,
                    "velocity": 0.5905511811023622,
                    "duration": 0.17910449999996558
                },
                {
                    "name": "F4",
                    "midi": 65,
                    "time": 241.9694332312459,
                    "velocity": 0.5354330708661418,
                    "duration": 0.179104499999994
                },
                {
                    "name": "F5",
                    "midi": 77,
                    "time": 241.97017949999588,
                    "velocity": 0.5905511811023622,
                    "duration": 0.179104499999994
                },
                {
                    "name": "G5",
                    "midi": 79,
                    "time": 242.14928399999587,
                    "velocity": 0.6929133858267716,
                    "duration": 0.179104499999994
                },
                {
                    "name": "G4",
                    "midi": 67,
                    "time": 242.15152280624588,
                    "velocity": 0.6299212598425197,
                    "duration": 0.179104499999994
                },
                {
                    "name": "G#5",
                    "midi": 80,
                    "time": 242.32838849999587,
                    "velocity": 0.6299212598425197,
                    "duration": 0.179104499999994
                },
                {
                    "name": "G#4",
                    "midi": 68,
                    "time": 242.32988103749588,
                    "velocity": 0.5511811023622047,
                    "duration": 0.179104499999994
                },
                {
                    "name": "A#5",
                    "midi": 82,
                    "time": 242.50749299999586,
                    "velocity": 0.7086614173228346,
                    "duration": 0.179104499999994
                },
                {
                    "name": "A#4",
                    "midi": 70,
                    "time": 242.50973180624587,
                    "velocity": 0.6377952755905512,
                    "duration": 0.179104499999994
                },
                {
                    "name": "C6",
                    "midi": 84,
                    "time": 242.68659749999586,
                    "velocity": 0.6377952755905512,
                    "duration": 0.179104499999994
                },
                {
                    "name": "C5",
                    "midi": 72,
                    "time": 242.68883630624586,
                    "velocity": 0.5590551181102362,
                    "duration": 0.179104499999994
                },
                {
                    "name": "D6",
                    "midi": 86,
                    "time": 242.86570199999585,
                    "velocity": 0.7165354330708661,
                    "duration": 0.17910450000002243
                },
                {
                    "name": "D5",
                    "midi": 74,
                    "time": 242.86644826874584,
                    "velocity": 0.6456692913385826,
                    "duration": 0.17910450000002243
                },
                {
                    "name": "D#5",
                    "midi": 75,
                    "time": 243.04331396249586,
                    "velocity": 0.5511811023622047,
                    "duration": 0.179104499999994
                },
                {
                    "name": "D#6",
                    "midi": 87,
                    "time": 243.04480649999587,
                    "velocity": 0.6299212598425197,
                    "duration": 0.179104499999994
                },
                {
                    "name": "F6",
                    "midi": 89,
                    "time": 243.22391099999587,
                    "velocity": 0.7244094488188977,
                    "duration": 0.179104499999994
                },
                {
                    "name": "F5",
                    "midi": 77,
                    "time": 243.22391099999587,
                    "velocity": 0.6535433070866141,
                    "duration": 0.179104499999994
                },
                {
                    "name": "G5",
                    "midi": 79,
                    "time": 243.40226923124587,
                    "velocity": 0.5748031496062992,
                    "duration": 0.179104499999994
                },
                {
                    "name": "G6",
                    "midi": 91,
                    "time": 243.40301549999586,
                    "velocity": 0.6614173228346457,
                    "duration": 0.179104499999994
                },
                {
                    "name": "F6",
                    "midi": 89,
                    "time": 243.58211999999585,
                    "velocity": 0.7244094488188977,
                    "duration": 0.179104499999994
                },
                {
                    "name": "F5",
                    "midi": 77,
                    "time": 243.58435880624586,
                    "velocity": 0.6535433070866141,
                    "duration": 0.179104499999994
                },
                {
                    "name": "D#5",
                    "midi": 75,
                    "time": 243.76047823124586,
                    "velocity": 0.6299212598425197,
                    "duration": 0.179104499999994
                },
                {
                    "name": "D#6",
                    "midi": 87,
                    "time": 243.76122449999585,
                    "velocity": 0.6929133858267716,
                    "duration": 0.179104499999994
                },
                {
                    "name": "D6",
                    "midi": 86,
                    "time": 243.94032899999584,
                    "velocity": 0.7244094488188977,
                    "duration": 0.17910450000002243
                },
                {
                    "name": "D5",
                    "midi": 74,
                    "time": 243.94182153749585,
                    "velocity": 0.6535433070866141,
                    "duration": 0.17910450000002243
                },
                {
                    "name": "C6",
                    "midi": 84,
                    "time": 244.11943349999586,
                    "velocity": 0.6850393700787402,
                    "duration": 0.179104499999994
                },
                {
                    "name": "C5",
                    "midi": 72,
                    "time": 244.12167230624587,
                    "velocity": 0.6220472440944882,
                    "duration": 0.179104499999994
                },
                {
                    "name": "A#5",
                    "midi": 82,
                    "time": 244.29853799999586,
                    "velocity": 0.7165354330708661,
                    "duration": 0.179104499999994
                },
                {
                    "name": "A#4",
                    "midi": 70,
                    "time": 244.30077680624586,
                    "velocity": 0.6456692913385826,
                    "duration": 0.179104499999994
                },
                {
                    "name": "G#5",
                    "midi": 80,
                    "time": 244.47764249999585,
                    "velocity": 0.6614173228346457,
                    "duration": 0.179104499999994
                },
                {
                    "name": "G#4",
                    "midi": 68,
                    "time": 244.47988130624586,
                    "velocity": 0.5748031496062992,
                    "duration": 0.179104499999994
                },
                {
                    "name": "G5",
                    "midi": 79,
                    "time": 244.65674699999585,
                    "velocity": 0.7086614173228346,
                    "duration": 0.179104499999994
                },
                {
                    "name": "G4",
                    "midi": 67,
                    "time": 244.65749326874584,
                    "velocity": 0.6377952755905512,
                    "duration": 0.179104499999994
                },
                {
                    "name": "F5",
                    "midi": 77,
                    "time": 244.83585149999584,
                    "velocity": 0.6614173228346457,
                    "duration": 0.179104499999994
                },
                {
                    "name": "F4",
                    "midi": 65,
                    "time": 244.83585149999584,
                    "velocity": 0.5748031496062992,
                    "duration": 0.179104499999994
                },
                {
                    "name": "D#4",
                    "midi": 63,
                    "time": 245.01495599999583,
                    "velocity": 0.6692913385826772,
                    "duration": 1.4328360000000089
                },
                {
                    "name": "G4",
                    "midi": 67,
                    "time": 245.01495599999583,
                    "velocity": 0.6692913385826772,
                    "duration": 1.4328360000000089
                },
                {
                    "name": "A#4",
                    "midi": 70,
                    "time": 245.01495599999583,
                    "velocity": 0.6692913385826772,
                    "duration": 1.4328360000000089
                },
                {
                    "name": "D#5",
                    "midi": 75,
                    "time": 245.01495599999583,
                    "velocity": 0.7559055118110236,
                    "duration": 1.4328360000000089
                },
                {
                    "name": "F4",
                    "midi": 65,
                    "time": 246.44779199999584,
                    "velocity": 0.6377952755905512,
                    "duration": 1.4328360000000089
                },
                {
                    "name": "A#4",
                    "midi": 70,
                    "time": 246.44779199999584,
                    "velocity": 0.7086614173228346,
                    "duration": 1.4328360000000089
                },
                {
                    "name": "D5",
                    "midi": 74,
                    "time": 246.44779199999584,
                    "velocity": 0.7086614173228346,
                    "duration": 1.4328360000000089
                },
                {
                    "name": "F5",
                    "midi": 77,
                    "time": 246.44779199999584,
                    "velocity": 0.7086614173228346,
                    "duration": 1.4328360000000089
                },
                {
                    "name": "G4",
                    "midi": 67,
                    "time": 247.88062799999585,
                    "velocity": 0.6692913385826772,
                    "duration": 0.7164180000000044
                },
                {
                    "name": "A#4",
                    "midi": 70,
                    "time": 247.88062799999585,
                    "velocity": 0.6692913385826772,
                    "duration": 0.7164180000000044
                },
                {
                    "name": "D#5",
                    "midi": 75,
                    "time": 247.88062799999585,
                    "velocity": 0.6692913385826772,
                    "duration": 0.7164180000000044
                },
                {
                    "name": "G5",
                    "midi": 79,
                    "time": 247.88062799999585,
                    "velocity": 0.7559055118110236,
                    "duration": 0.7164180000000044
                },
                {
                    "name": "D#4",
                    "midi": 63,
                    "time": 248.59704599999586,
                    "velocity": 0.6456692913385826,
                    "duration": 0.358208999999988
                },
                {
                    "name": "G4",
                    "midi": 67,
                    "time": 248.59704599999586,
                    "velocity": 0.6456692913385826,
                    "duration": 0.358208999999988
                },
                {
                    "name": "C5",
                    "midi": 72,
                    "time": 248.59704599999586,
                    "velocity": 0.6456692913385826,
                    "duration": 0.358208999999988
                },
                {
                    "name": "D#5",
                    "midi": 75,
                    "time": 248.59704599999586,
                    "velocity": 0.7165354330708661,
                    "duration": 0.358208999999988
                },
                {
                    "name": "A#4",
                    "midi": 70,
                    "time": 248.95525499999584,
                    "velocity": 0.5748031496062992,
                    "duration": 0.358208999999988
                },
                {
                    "name": "D#5",
                    "midi": 75,
                    "time": 248.95525499999584,
                    "velocity": 0.5748031496062992,
                    "duration": 0.358208999999988
                },
                {
                    "name": "G4",
                    "midi": 67,
                    "time": 248.95525499999584,
                    "velocity": 0.5748031496062992,
                    "duration": 0.358208999999988
                },
                {
                    "name": "G5",
                    "midi": 79,
                    "time": 248.95525499999584,
                    "velocity": 0.6614173228346457,
                    "duration": 0.358208999999988
                },
                {
                    "name": "F4",
                    "midi": 65,
                    "time": 249.31346399999583,
                    "velocity": 0.6220472440944882,
                    "duration": 0.7164180000000044
                },
                {
                    "name": "A#4",
                    "midi": 70,
                    "time": 249.31346399999583,
                    "velocity": 0.6220472440944882,
                    "duration": 0.7164180000000044
                },
                {
                    "name": "D5",
                    "midi": 74,
                    "time": 249.31346399999583,
                    "velocity": 0.6220472440944882,
                    "duration": 0.7164180000000044
                },
                {
                    "name": "F5",
                    "midi": 77,
                    "time": 249.31346399999583,
                    "velocity": 0.6929133858267716,
                    "duration": 0.7164180000000044
                },
                {
                    "name": "A#3",
                    "midi": 58,
                    "time": 250.02988199999584,
                    "velocity": 0.5669291338582677,
                    "duration": 0.7164180000000044
                },
                {
                    "name": "A#4",
                    "midi": 70,
                    "time": 250.02988199999584,
                    "velocity": 0.6377952755905512,
                    "duration": 0.7164180000000044
                },
                {
                    "name": "C6",
                    "midi": 84,
                    "time": 250.74629999999584,
                    "velocity": 0.5669291338582677,
                    "duration": 0.716417999999976
                },
                {
                    "name": "G#5",
                    "midi": 80,
                    "time": 250.74629999999584,
                    "velocity": 0.5669291338582677,
                    "duration": 0.716417999999976
                },
                {
                    "name": "D#6",
                    "midi": 87,
                    "time": 250.74629999999584,
                    "velocity": 0.6377952755905512,
                    "duration": 0.358208999999988
                },
                {
                    "name": "D#5",
                    "midi": 75,
                    "time": 250.74629999999584,
                    "velocity": 0.5669291338582677,
                    "duration": 0.358208999999988
                },
                {
                    "name": "D#6",
                    "midi": 87,
                    "time": 251.10450899999583,
                    "velocity": 0.6377952755905512,
                    "duration": 0.358208999999988
                },
                {
                    "name": "D#5",
                    "midi": 75,
                    "time": 251.10450899999583,
                    "velocity": 0.5669291338582677,
                    "duration": 0.358208999999988
                },
                {
                    "name": "G5",
                    "midi": 79,
                    "time": 251.46271799999582,
                    "velocity": 0.5669291338582677,
                    "duration": 0.716417999999976
                },
                {
                    "name": "A#5",
                    "midi": 82,
                    "time": 251.46271799999582,
                    "velocity": 0.5669291338582677,
                    "duration": 0.716417999999976
                },
                {
                    "name": "D6",
                    "midi": 86,
                    "time": 251.46271799999582,
                    "velocity": 0.6377952755905512,
                    "duration": 0.358208999999988
                },
                {
                    "name": "D5",
                    "midi": 74,
                    "time": 251.46271799999582,
                    "velocity": 0.5669291338582677,
                    "duration": 0.358208999999988
                },
                {
                    "name": "A#5",
                    "midi": 82,
                    "time": 251.8209269999958,
                    "velocity": 0.5984251968503937,
                    "duration": 0.358208999999988
                },
                {
                    "name": "A#4",
                    "midi": 70,
                    "time": 251.8209269999958,
                    "velocity": 0.5354330708661418,
                    "duration": 0.358208999999988
                },
                {
                    "name": "G#5",
                    "midi": 80,
                    "time": 252.1791359999958,
                    "velocity": 0.6220472440944882,
                    "duration": 1.074626999999964
                },
                {
                    "name": "F5",
                    "midi": 77,
                    "time": 252.1791359999958,
                    "velocity": 0.5511811023622047,
                    "duration": 1.432835999999952
                },
                {
                    "name": "C5",
                    "midi": 72,
                    "time": 252.1791359999958,
                    "velocity": 0.5511811023622047,
                    "duration": 0.358208999999988
                },
                {
                    "name": "C6",
                    "midi": 84,
                    "time": 252.1791359999958,
                    "velocity": 0.6220472440944882,
                    "duration": 0.358208999999988
                },
                {
                    "name": "C6",
                    "midi": 84,
                    "time": 252.53734499999578,
                    "velocity": 0.5905511811023622,
                    "duration": 0.358208999999988
                },
                {
                    "name": "C5",
                    "midi": 72,
                    "time": 252.53734499999578,
                    "velocity": 0.5354330708661418,
                    "duration": 0.358208999999988
                },
                {
                    "name": "G#5",
                    "midi": 80,
                    "time": 252.89555399999577,
                    "velocity": 0.5748031496062992,
                    "duration": 0.716417999999976
                },
                {
                    "name": "G#4",
                    "midi": 68,
                    "time": 252.89555399999577,
                    "velocity": 0.5275590551181102,
                    "duration": 0.358208999999988
                },
                {
                    "name": "C5",
                    "midi": 72,
                    "time": 253.25376299999576,
                    "velocity": 0.49606299212598426,
                    "duration": 0.358208999999988
                },
                {
                    "name": "C6",
                    "midi": 84,
                    "time": 253.25376299999576,
                    "velocity": 0.5590551181102362,
                    "duration": 0.358208999999988
                },
                {
                    "name": "D5",
                    "midi": 74,
                    "time": 253.61197199999575,
                    "velocity": 0.6456692913385826,
                    "duration": 0.7164180000000044
                },
                {
                    "name": "G5",
                    "midi": 79,
                    "time": 253.61197199999575,
                    "velocity": 0.6456692913385826,
                    "duration": 0.7164180000000044
                },
                {
                    "name": "A#4",
                    "midi": 70,
                    "time": 253.61197199999575,
                    "velocity": 0.5669291338582677,
                    "duration": 0.7164180000000044
                },
                {
                    "name": "A#5",
                    "midi": 82,
                    "time": 253.61197199999575,
                    "velocity": 0.6456692913385826,
                    "duration": 0.7164180000000044
                },
                {
                    "name": "C5",
                    "midi": 72,
                    "time": 254.32838999999575,
                    "velocity": 0.5511811023622047,
                    "duration": 0.716417999999976
                },
                {
                    "name": "G#4",
                    "midi": 68,
                    "time": 254.32838999999575,
                    "velocity": 0.5511811023622047,
                    "duration": 0.358208999999988
                },
                {
                    "name": "G#5",
                    "midi": 80,
                    "time": 254.32838999999575,
                    "velocity": 0.6220472440944882,
                    "duration": 0.358208999999988
                },
                {
                    "name": "G4",
                    "midi": 67,
                    "time": 254.68659899999574,
                    "velocity": 0.5905511811023622,
                    "duration": 0.358208999999988
                },
                {
                    "name": "G5",
                    "midi": 79,
                    "time": 254.68659899999574,
                    "velocity": 0.6614173228346457,
                    "duration": 0.358208999999988
                },
                {
                    "name": "F4",
                    "midi": 65,
                    "time": 255.04480799999573,
                    "velocity": 0.6220472440944882,
                    "duration": 1.4328360000000089
                },
                {
                    "name": "D#5",
                    "midi": 75,
                    "time": 255.04480799999573,
                    "velocity": 0.6220472440944882,
                    "duration": 1.4328360000000089
                },
                {
                    "name": "C5",
                    "midi": 72,
                    "time": 255.04480799999573,
                    "velocity": 0.6220472440944882,
                    "duration": 1.4328360000000089
                },
                {
                    "name": "F5",
                    "midi": 77,
                    "time": 255.04480799999573,
                    "velocity": 0.7007874015748031,
                    "duration": 1.4328360000000089
                },
                {
                    "name": "A#4",
                    "midi": 70,
                    "time": 256.47764399999573,
                    "velocity": 0.6614173228346457,
                    "duration": 0.537313499999982
                },
                {
                    "name": "D5",
                    "midi": 74,
                    "time": 256.47764399999573,
                    "velocity": 0.6614173228346457,
                    "duration": 0.537313499999982
                },
                {
                    "name": "F5",
                    "midi": 77,
                    "time": 256.47764399999573,
                    "velocity": 0.6614173228346457,
                    "duration": 0.537313499999982
                },
                {
                    "name": "A#5",
                    "midi": 82,
                    "time": 256.47764399999573,
                    "velocity": 0.7480314960629921,
                    "duration": 0.537313499999982
                },
                {
                    "name": "F#4",
                    "midi": 66,
                    "time": 257.91047999999574,
                    "velocity": 0.5275590551181102,
                    "duration": 1.4328360000000089
                },
                {
                    "name": "A#4",
                    "midi": 70,
                    "time": 257.91047999999574,
                    "velocity": 0.5275590551181102,
                    "duration": 1.4328360000000089
                },
                {
                    "name": "F#4",
                    "midi": 66,
                    "time": 259.34331599999575,
                    "velocity": 0.5118110236220472,
                    "duration": 0.716417999999976
                },
                {
                    "name": "A#4",
                    "midi": 70,
                    "time": 259.34331599999575,
                    "velocity": 0.5118110236220472,
                    "duration": 0.716417999999976
                },
                {
                    "name": "F#4",
                    "midi": 66,
                    "time": 260.05973399999573,
                    "velocity": 0.49606299212598426,
                    "duration": 0.716417999999976
                },
                {
                    "name": "A#4",
                    "midi": 70,
                    "time": 260.05973399999573,
                    "velocity": 0.49606299212598426,
                    "duration": 0.716417999999976
                },
                {
                    "name": "G#4",
                    "midi": 68,
                    "time": 260.7761519999957,
                    "velocity": 0.5196850393700787,
                    "duration": 0.716417999999976
                },
                {
                    "name": "B4",
                    "midi": 71,
                    "time": 260.7761519999957,
                    "velocity": 0.5196850393700787,
                    "duration": 0.716417999999976
                },
                {
                    "name": "A#4",
                    "midi": 70,
                    "time": 261.4925699999957,
                    "velocity": 0.5196850393700787,
                    "duration": 0.716417999999976
                },
                {
                    "name": "C#5",
                    "midi": 73,
                    "time": 261.4925699999957,
                    "velocity": 0.5196850393700787,
                    "duration": 0.716417999999976
                },
                {
                    "name": "B4",
                    "midi": 71,
                    "time": 262.20898799999566,
                    "velocity": 0.5196850393700787,
                    "duration": 1.4328360000000089
                },
                {
                    "name": "D#5",
                    "midi": 75,
                    "time": 262.20898799999566,
                    "velocity": 0.5196850393700787,
                    "duration": 1.4328360000000089
                },
                {
                    "name": "A#4",
                    "midi": 70,
                    "time": 263.64182399999567,
                    "velocity": 0.5196850393700787,
                    "duration": 1.4328360000000089
                },
                {
                    "name": "C#5",
                    "midi": 73,
                    "time": 263.64182399999567,
                    "velocity": 0.5196850393700787,
                    "duration": 1.4328360000000089
                },
                {
                    "name": "B4",
                    "midi": 71,
                    "time": 265.0746599999957,
                    "velocity": 0.5118110236220472,
                    "duration": 0.716417999999976
                },
                {
                    "name": "D#5",
                    "midi": 75,
                    "time": 265.0746599999957,
                    "velocity": 0.5118110236220472,
                    "duration": 0.716417999999976
                },
                {
                    "name": "C#5",
                    "midi": 73,
                    "time": 265.79107799999565,
                    "velocity": 0.5196850393700787,
                    "duration": 0.716417999999976
                },
                {
                    "name": "E5",
                    "midi": 76,
                    "time": 265.79107799999565,
                    "velocity": 0.5196850393700787,
                    "duration": 0.716417999999976
                },
                {
                    "name": "D#5",
                    "midi": 75,
                    "time": 266.5074959999956,
                    "velocity": 0.5275590551181102,
                    "duration": 0.716417999999976
                },
                {
                    "name": "F#5",
                    "midi": 78,
                    "time": 266.5074959999956,
                    "velocity": 0.5275590551181102,
                    "duration": 0.716417999999976
                },
                {
                    "name": "D#5",
                    "midi": 75,
                    "time": 267.2239139999956,
                    "velocity": 0.5039370078740157,
                    "duration": 0.716417999999976
                },
                {
                    "name": "F#5",
                    "midi": 78,
                    "time": 267.2239139999956,
                    "velocity": 0.5039370078740157,
                    "duration": 0.716417999999976
                },
                {
                    "name": "C#5",
                    "midi": 73,
                    "time": 267.9403319999956,
                    "velocity": 0.5275590551181102,
                    "duration": 0.716417999999976
                },
                {
                    "name": "E5",
                    "midi": 76,
                    "time": 267.9403319999956,
                    "velocity": 0.5275590551181102,
                    "duration": 0.716417999999976
                },
                {
                    "name": "D#5",
                    "midi": 75,
                    "time": 268.65674999999555,
                    "velocity": 0.5354330708661418,
                    "duration": 0.716417999999976
                },
                {
                    "name": "F#5",
                    "midi": 78,
                    "time": 268.65674999999555,
                    "velocity": 0.5354330708661418,
                    "duration": 0.716417999999976
                },
                {
                    "name": "E5",
                    "midi": 76,
                    "time": 269.37316799999553,
                    "velocity": 0.5590551181102362,
                    "duration": 1.4328360000000089
                },
                {
                    "name": "G#5",
                    "midi": 80,
                    "time": 269.37316799999553,
                    "velocity": 0.5590551181102362,
                    "duration": 1.4328360000000089
                },
                {
                    "name": "C#5",
                    "midi": 73,
                    "time": 270.80600399999554,
                    "velocity": 0.5905511811023622,
                    "duration": 0.716417999999976
                },
                {
                    "name": "A5",
                    "midi": 81,
                    "time": 270.80600399999554,
                    "velocity": 0.5905511811023622,
                    "duration": 0.716417999999976
                },
                {
                    "name": "E5",
                    "midi": 76,
                    "time": 271.5224219999955,
                    "velocity": 0.5275590551181102,
                    "duration": 0.716417999999976
                },
                {
                    "name": "G#5",
                    "midi": 80,
                    "time": 271.5224219999955,
                    "velocity": 0.5275590551181102,
                    "duration": 0.716417999999976
                },
                {
                    "name": "D#5",
                    "midi": 75,
                    "time": 272.2388399999955,
                    "velocity": 0.5039370078740157,
                    "duration": 1.4328360000000089
                },
                {
                    "name": "F#5",
                    "midi": 78,
                    "time": 272.2388399999955,
                    "velocity": 0.5039370078740157,
                    "duration": 1.4328360000000089
                },
                {
                    "name": "B4",
                    "midi": 71,
                    "time": 273.6716759999955,
                    "velocity": 0.5039370078740157,
                    "duration": 0.716417999999976
                },
                {
                    "name": "G#5",
                    "midi": 80,
                    "time": 273.6716759999955,
                    "velocity": 0.5039370078740157,
                    "duration": 0.716417999999976
                },
                {
                    "name": "F#5",
                    "midi": 78,
                    "time": 274.3880939999955,
                    "velocity": 0.47244094488188976,
                    "duration": 0.716417999999976
                },
                {
                    "name": "D#5",
                    "midi": 75,
                    "time": 274.3880939999955,
                    "velocity": 0.47244094488188976,
                    "duration": 0.716417999999976
                },
                {
                    "name": "G#4",
                    "midi": 68,
                    "time": 275.10451199999545,
                    "velocity": 0.44881889763779526,
                    "duration": 0.716417999999976
                },
                {
                    "name": "E5",
                    "midi": 76,
                    "time": 275.10451199999545,
                    "velocity": 0.44881889763779526,
                    "duration": 0.716417999999976
                },
                {
                    "name": "B4",
                    "midi": 71,
                    "time": 275.8209299999954,
                    "velocity": 0.4251968503937008,
                    "duration": 0.716417999999976
                },
                {
                    "name": "D#5",
                    "midi": 75,
                    "time": 275.8209299999954,
                    "velocity": 0.4251968503937008,
                    "duration": 0.716417999999976
                },
                {
                    "name": "A#4",
                    "midi": 70,
                    "time": 276.5373479999954,
                    "velocity": 0.44881889763779526,
                    "duration": 1.4328360000000089
                },
                {
                    "name": "C#5",
                    "midi": 73,
                    "time": 276.5373479999954,
                    "velocity": 0.44881889763779526,
                    "duration": 1.4328360000000089
                },
                {
                    "name": "G#4",
                    "midi": 68,
                    "time": 277.9701839999954,
                    "velocity": 0.4251968503937008,
                    "duration": 1.4328360000000089
                },
                {
                    "name": "B4",
                    "midi": 71,
                    "time": 277.9701839999954,
                    "velocity": 0.4251968503937008,
                    "duration": 1.4328360000000089
                },
                {
                    "name": "D#4",
                    "midi": 63,
                    "time": 279.4030199999954,
                    "velocity": 0.3779527559055118,
                    "duration": 1.4328360000000089
                },
                {
                    "name": "A#4",
                    "midi": 70,
                    "time": 279.4030199999954,
                    "velocity": 0.3779527559055118,
                    "duration": 1.4328360000000089
                },
                {
                    "name": "D#4",
                    "midi": 63,
                    "time": 280.83585599999543,
                    "velocity": 0.30708661417322836,
                    "duration": 0.716417999999976
                },
                {
                    "name": "A#4",
                    "midi": 70,
                    "time": 280.83585599999543,
                    "velocity": 0.30708661417322836,
                    "duration": 0.716417999999976
                },
                {
                    "name": "D#4",
                    "midi": 63,
                    "time": 281.5522739999954,
                    "velocity": 0.2755905511811024,
                    "duration": 0.716417999999976
                },
                {
                    "name": "A#4",
                    "midi": 70,
                    "time": 281.5522739999954,
                    "velocity": 0.2755905511811024,
                    "duration": 0.716417999999976
                },
                {
                    "name": "F3",
                    "midi": 53,
                    "time": 282.2686919999954,
                    "velocity": 0.6692913385826772,
                    "duration": 1.4328360000000089
                },
                {
                    "name": "D#4",
                    "midi": 63,
                    "time": 282.2686919999954,
                    "velocity": 0.6692913385826772,
                    "duration": 1.4328360000000089
                },
                {
                    "name": "E3",
                    "midi": 52,
                    "time": 283.7015279999954,
                    "velocity": 0.6614173228346457,
                    "duration": 1.4328360000000089
                },
                {
                    "name": "D#4",
                    "midi": 63,
                    "time": 283.7015279999954,
                    "velocity": 0.6614173228346457,
                    "duration": 1.4328360000000089
                },
                {
                    "name": "F3",
                    "midi": 53,
                    "time": 285.1343639999954,
                    "velocity": 0.6692913385826772,
                    "duration": 1.4328360000000089
                },
                {
                    "name": "D#4",
                    "midi": 63,
                    "time": 285.1343639999954,
                    "velocity": 0.6692913385826772,
                    "duration": 1.4328360000000089
                },
                {
                    "name": "E3",
                    "midi": 52,
                    "time": 286.5671999999954,
                    "velocity": 0.6614173228346457,
                    "duration": 1.4328360000000089
                },
                {
                    "name": "D#4",
                    "midi": 63,
                    "time": 286.5671999999954,
                    "velocity": 0.6614173228346457,
                    "duration": 1.4328360000000089
                },
                {
                    "name": "G#4",
                    "midi": 68,
                    "time": 288.0000359999954,
                    "velocity": 0.6614173228346457,
                    "duration": 0.23880600000001095
                },
                {
                    "name": "D#5",
                    "midi": 75,
                    "time": 288.0000359999954,
                    "velocity": 0.6614173228346457,
                    "duration": 0.23880600000001095
                },
                {
                    "name": "F5",
                    "midi": 77,
                    "time": 288.0000359999954,
                    "velocity": 0.6614173228346457,
                    "duration": 0.23880600000001095
                },
                {
                    "name": "F4",
                    "midi": 65,
                    "time": 288.23884199999543,
                    "velocity": 0.47244094488188976,
                    "duration": 0.23880600000001095
                },
                {
                    "name": "G#4",
                    "midi": 68,
                    "time": 288.47764799999544,
                    "velocity": 0.3937007874015748,
                    "duration": 0.23880600000001095
                },
                {
                    "name": "D#5",
                    "midi": 75,
                    "time": 288.47764799999544,
                    "velocity": 0.3937007874015748,
                    "duration": 0.23880600000001095
                },
                {
                    "name": "F5",
                    "midi": 77,
                    "time": 288.47764799999544,
                    "velocity": 0.3937007874015748,
                    "duration": 0.23880600000001095
                },
                {
                    "name": "F4",
                    "midi": 65,
                    "time": 288.71645399999545,
                    "velocity": 0.4881889763779528,
                    "duration": 0.23880600000001095
                },
                {
                    "name": "G#4",
                    "midi": 68,
                    "time": 288.95525999999546,
                    "velocity": 0.3779527559055118,
                    "duration": 0.23880600000001095
                },
                {
                    "name": "D#5",
                    "midi": 75,
                    "time": 288.95525999999546,
                    "velocity": 0.3779527559055118,
                    "duration": 0.23880600000001095
                },
                {
                    "name": "F5",
                    "midi": 77,
                    "time": 288.95525999999546,
                    "velocity": 0.3779527559055118,
                    "duration": 0.23880600000001095
                },
                {
                    "name": "F4",
                    "midi": 65,
                    "time": 289.1940659999955,
                    "velocity": 0.4251968503937008,
                    "duration": 0.23880600000001095
                },
                {
                    "name": "G#4",
                    "midi": 68,
                    "time": 289.4328719999955,
                    "velocity": 0.6062992125984252,
                    "duration": 0.23880600000001095
                },
                {
                    "name": "D#5",
                    "midi": 75,
                    "time": 289.4328719999955,
                    "velocity": 0.6062992125984252,
                    "duration": 0.23880600000001095
                },
                {
                    "name": "B4",
                    "midi": 71,
                    "time": 289.4328719999955,
                    "velocity": 0.6062992125984252,
                    "duration": 0.23880600000001095
                },
                {
                    "name": "E4",
                    "midi": 64,
                    "time": 289.6716779999955,
                    "velocity": 0.47244094488188976,
                    "duration": 0.23880600000001095
                },
                {
                    "name": "G#4",
                    "midi": 68,
                    "time": 289.9104839999955,
                    "velocity": 0.3779527559055118,
                    "duration": 0.23880600000001095
                },
                {
                    "name": "D#5",
                    "midi": 75,
                    "time": 289.9104839999955,
                    "velocity": 0.3779527559055118,
                    "duration": 0.23880600000001095
                },
                {
                    "name": "B4",
                    "midi": 71,
                    "time": 289.9104839999955,
                    "velocity": 0.3779527559055118,
                    "duration": 0.23880600000001095
                },
                {
                    "name": "E4",
                    "midi": 64,
                    "time": 290.1492899999955,
                    "velocity": 0.4881889763779528,
                    "duration": 0.23880600000001095
                },
                {
                    "name": "G#4",
                    "midi": 68,
                    "time": 290.3880959999955,
                    "velocity": 0.3543307086614173,
                    "duration": 0.23880600000001095
                },
                {
                    "name": "D#5",
                    "midi": 75,
                    "time": 290.3880959999955,
                    "velocity": 0.3543307086614173,
                    "duration": 0.23880600000001095
                },
                {
                    "name": "B4",
                    "midi": 71,
                    "time": 290.3880959999955,
                    "velocity": 0.3543307086614173,
                    "duration": 0.23880600000001095
                },
                {
                    "name": "E4",
                    "midi": 64,
                    "time": 290.62690199999554,
                    "velocity": 0.3937007874015748,
                    "duration": 0.23880600000001095
                },
                {
                    "name": "G#4",
                    "midi": 68,
                    "time": 290.86570799999555,
                    "velocity": 0.6220472440944882,
                    "duration": 0.23880600000001095
                },
                {
                    "name": "D#5",
                    "midi": 75,
                    "time": 290.86570799999555,
                    "velocity": 0.6220472440944882,
                    "duration": 0.23880600000001095
                },
                {
                    "name": "F5",
                    "midi": 77,
                    "time": 290.86570799999555,
                    "velocity": 0.6220472440944882,
                    "duration": 0.23880600000001095
                },
                {
                    "name": "F4",
                    "midi": 65,
                    "time": 291.10451399999556,
                    "velocity": 0.47244094488188976,
                    "duration": 0.23880600000001095
                },
                {
                    "name": "G#4",
                    "midi": 68,
                    "time": 291.3433199999956,
                    "velocity": 0.3779527559055118,
                    "duration": 0.23880600000001095
                },
                {
                    "name": "D#5",
                    "midi": 75,
                    "time": 291.3433199999956,
                    "velocity": 0.3779527559055118,
                    "duration": 0.23880600000001095
                },
                {
                    "name": "F5",
                    "midi": 77,
                    "time": 291.3433199999956,
                    "velocity": 0.3779527559055118,
                    "duration": 0.23880600000001095
                },
                {
                    "name": "F4",
                    "midi": 65,
                    "time": 291.5821259999956,
                    "velocity": 0.49606299212598426,
                    "duration": 0.23880600000001095
                },
                {
                    "name": "G#4",
                    "midi": 68,
                    "time": 291.8209319999956,
                    "velocity": 0.3700787401574803,
                    "duration": 0.23880600000001095
                },
                {
                    "name": "D#5",
                    "midi": 75,
                    "time": 291.8209319999956,
                    "velocity": 0.3700787401574803,
                    "duration": 0.23880600000001095
                },
                {
                    "name": "F5",
                    "midi": 77,
                    "time": 291.8209319999956,
                    "velocity": 0.3700787401574803,
                    "duration": 0.23880600000001095
                },
                {
                    "name": "F4",
                    "midi": 65,
                    "time": 292.0597379999956,
                    "velocity": 0.4251968503937008,
                    "duration": 0.23880600000001095
                },
                {
                    "name": "G#4",
                    "midi": 68,
                    "time": 292.2985439999956,
                    "velocity": 0.6062992125984252,
                    "duration": 0.23880600000001095
                },
                {
                    "name": "D#5",
                    "midi": 75,
                    "time": 292.2985439999956,
                    "velocity": 0.6062992125984252,
                    "duration": 0.23880600000001095
                },
                {
                    "name": "B4",
                    "midi": 71,
                    "time": 292.2985439999956,
                    "velocity": 0.6062992125984252,
                    "duration": 0.23880600000001095
                },
                {
                    "name": "E4",
                    "midi": 64,
                    "time": 292.5373499999956,
                    "velocity": 0.47244094488188976,
                    "duration": 0.23880600000001095
                },
                {
                    "name": "G#4",
                    "midi": 68,
                    "time": 292.77615599999564,
                    "velocity": 0.3700787401574803,
                    "duration": 0.23880600000001095
                },
                {
                    "name": "D#5",
                    "midi": 75,
                    "time": 292.77615599999564,
                    "velocity": 0.3700787401574803,
                    "duration": 0.23880600000001095
                },
                {
                    "name": "B4",
                    "midi": 71,
                    "time": 292.77615599999564,
                    "velocity": 0.3700787401574803,
                    "duration": 0.23880600000001095
                },
                {
                    "name": "E4",
                    "midi": 64,
                    "time": 293.01496199999565,
                    "velocity": 0.4881889763779528,
                    "duration": 0.23880600000001095
                },
                {
                    "name": "G#4",
                    "midi": 68,
                    "time": 293.25376799999566,
                    "velocity": 0.3543307086614173,
                    "duration": 0.23880600000001095
                },
                {
                    "name": "D#5",
                    "midi": 75,
                    "time": 293.25376799999566,
                    "velocity": 0.3543307086614173,
                    "duration": 0.23880600000001095
                },
                {
                    "name": "B4",
                    "midi": 71,
                    "time": 293.25376799999566,
                    "velocity": 0.3543307086614173,
                    "duration": 0.23880600000001095
                },
                {
                    "name": "E4",
                    "midi": 64,
                    "time": 293.49257399999567,
                    "velocity": 0.4015748031496063,
                    "duration": 0.23880600000001095
                },
                {
                    "name": "F7",
                    "midi": 101,
                    "time": 293.7313799999957,
                    "velocity": 0.6062992125984252,
                    "duration": 0.179104499999994
                },
                {
                    "name": "D#7",
                    "midi": 99,
                    "time": 293.7313799999957,
                    "velocity": 0.6062992125984252,
                    "duration": 0.179104499999994
                },
                {
                    "name": "F6",
                    "midi": 89,
                    "time": 293.9104844999957,
                    "velocity": 0.4645669291338583,
                    "duration": 0.179104499999994
                },
                {
                    "name": "D#6",
                    "midi": 87,
                    "time": 294.08958899999567,
                    "velocity": 0.49606299212598426,
                    "duration": 0.179104499999994
                },
                {
                    "name": "F6",
                    "midi": 89,
                    "time": 294.08958899999567,
                    "velocity": 0.49606299212598426,
                    "duration": 0.179104499999994
                },
                {
                    "name": "F5",
                    "midi": 77,
                    "time": 294.26869349999566,
                    "velocity": 0.44881889763779526,
                    "duration": 0.179104499999994
                },
                {
                    "name": "F6",
                    "midi": 89,
                    "time": 294.44779799999566,
                    "velocity": 0.5039370078740157,
                    "duration": 0.179104499999994
                },
                {
                    "name": "D#6",
                    "midi": 87,
                    "time": 294.44779799999566,
                    "velocity": 0.5039370078740157,
                    "duration": 0.179104499999994
                },
                {
                    "name": "F6",
                    "midi": 89,
                    "time": 294.62690249999565,
                    "velocity": 0.4251968503937008,
                    "duration": 0.179104499999994
                },
                {
                    "name": "D#7",
                    "midi": 99,
                    "time": 294.80600699999565,
                    "velocity": 0.5433070866141733,
                    "duration": 0.179104499999994
                },
                {
                    "name": "F7",
                    "midi": 101,
                    "time": 294.80600699999565,
                    "velocity": 0.5433070866141733,
                    "duration": 0.179104499999994
                },
                {
                    "name": "F6",
                    "midi": 89,
                    "time": 294.98511149999564,
                    "velocity": 0.5039370078740157,
                    "duration": 0.179104499999994
                },
                {
                    "name": "B6",
                    "midi": 95,
                    "time": 295.16421599999563,
                    "velocity": 0.6062992125984252,
                    "duration": 0.179104499999994
                },
                {
                    "name": "D#7",
                    "midi": 99,
                    "time": 295.16421599999563,
                    "velocity": 0.6062992125984252,
                    "duration": 0.179104499999994
                },
                {
                    "name": "E6",
                    "midi": 88,
                    "time": 295.3433204999956,
                    "velocity": 0.44881889763779526,
                    "duration": 0.179104499999994
                },
                {
                    "name": "D#6",
                    "midi": 87,
                    "time": 295.5224249999956,
                    "velocity": 0.49606299212598426,
                    "duration": 0.179104499999994
                },
                {
                    "name": "B5",
                    "midi": 83,
                    "time": 295.5224249999956,
                    "velocity": 0.49606299212598426,
                    "duration": 0.179104499999994
                },
                {
                    "name": "E5",
                    "midi": 76,
                    "time": 295.7015294999956,
                    "velocity": 0.44881889763779526,
                    "duration": 0.179104499999994
                },
                {
                    "name": "B5",
                    "midi": 83,
                    "time": 295.8806339999956,
                    "velocity": 0.5118110236220472,
                    "duration": 0.179104499999994
                },
                {
                    "name": "D#6",
                    "midi": 87,
                    "time": 295.8806339999956,
                    "velocity": 0.5118110236220472,
                    "duration": 0.179104499999994
                },
                {
                    "name": "E6",
                    "midi": 88,
                    "time": 296.0597384999956,
                    "velocity": 0.4645669291338583,
                    "duration": 0.179104499999994
                },
                {
                    "name": "D#7",
                    "midi": 99,
                    "time": 296.2388429999956,
                    "velocity": 0.5590551181102362,
                    "duration": 0.179104499999994
                },
                {
                    "name": "B6",
                    "midi": 95,
                    "time": 296.2388429999956,
                    "velocity": 0.5590551181102362,
                    "duration": 0.179104499999994
                },
                {
                    "name": "E6",
                    "midi": 88,
                    "time": 296.4179474999956,
                    "velocity": 0.49606299212598426,
                    "duration": 0.179104499999994
                },
                {
                    "name": "F7",
                    "midi": 101,
                    "time": 296.5970519999956,
                    "velocity": 0.6299212598425197,
                    "duration": 0.179104499999994
                },
                {
                    "name": "D#7",
                    "midi": 99,
                    "time": 296.5970519999956,
                    "velocity": 0.6299212598425197,
                    "duration": 0.179104499999994
                },
                {
                    "name": "F6",
                    "midi": 89,
                    "time": 296.7761564999956,
                    "velocity": 0.4645669291338583,
                    "duration": 0.179104499999994
                },
                {
                    "name": "D#6",
                    "midi": 87,
                    "time": 296.9552609999956,
                    "velocity": 0.5196850393700787,
                    "duration": 0.179104499999994
                },
                {
                    "name": "F6",
                    "midi": 89,
                    "time": 296.9552609999956,
                    "velocity": 0.5196850393700787,
                    "duration": 0.179104499999994
                },
                {
                    "name": "F5",
                    "midi": 77,
                    "time": 297.13436549999557,
                    "velocity": 0.4645669291338583,
                    "duration": 0.179104499999994
                },
                {
                    "name": "F6",
                    "midi": 89,
                    "time": 297.31346999999556,
                    "velocity": 0.5118110236220472,
                    "duration": 0.179104499999994
                },
                {
                    "name": "D#6",
                    "midi": 87,
                    "time": 297.31346999999556,
                    "velocity": 0.5118110236220472,
                    "duration": 0.179104499999994
                },
                {
                    "name": "F6",
                    "midi": 89,
                    "time": 297.49257449999556,
                    "velocity": 0.44881889763779526,
                    "duration": 0.179104499999994
                },
                {
                    "name": "D#7",
                    "midi": 99,
                    "time": 297.67167899999555,
                    "velocity": 0.5511811023622047,
                    "duration": 0.179104499999994
                },
                {
                    "name": "F7",
                    "midi": 101,
                    "time": 297.67167899999555,
                    "velocity": 0.5511811023622047,
                    "duration": 0.179104499999994
                },
                {
                    "name": "F6",
                    "midi": 89,
                    "time": 297.85078349999554,
                    "velocity": 0.49606299212598426,
                    "duration": 0.179104499999994
                },
                {
                    "name": "B6",
                    "midi": 95,
                    "time": 298.02988799999554,
                    "velocity": 0.6377952755905512,
                    "duration": 0.179104499999994
                },
                {
                    "name": "D#7",
                    "midi": 99,
                    "time": 298.02988799999554,
                    "velocity": 0.6377952755905512,
                    "duration": 0.179104499999994
                },
                {
                    "name": "E6",
                    "midi": 88,
                    "time": 298.20899249999553,
                    "velocity": 0.47244094488188976,
                    "duration": 0.179104499999994
                },
                {
                    "name": "D#6",
                    "midi": 87,
                    "time": 298.3880969999955,
                    "velocity": 0.5118110236220472,
                    "duration": 0.179104499999994
                },
                {
                    "name": "B5",
                    "midi": 83,
                    "time": 298.3880969999955,
                    "velocity": 0.5118110236220472,
                    "duration": 0.179104499999994
                },
                {
                    "name": "E5",
                    "midi": 76,
                    "time": 298.5672014999955,
                    "velocity": 0.4645669291338583,
                    "duration": 0.179104499999994
                },
                {
                    "name": "B5",
                    "midi": 83,
                    "time": 298.7463059999955,
                    "velocity": 0.5118110236220472,
                    "duration": 0.179104499999994
                },
                {
                    "name": "D#6",
                    "midi": 87,
                    "time": 298.7463059999955,
                    "velocity": 0.5118110236220472,
                    "duration": 0.179104499999994
                },
                {
                    "name": "E6",
                    "midi": 88,
                    "time": 298.9254104999955,
                    "velocity": 0.4645669291338583,
                    "duration": 0.179104499999994
                },
                {
                    "name": "D#7",
                    "midi": 99,
                    "time": 299.1045149999955,
                    "velocity": 0.5669291338582677,
                    "duration": 0.179104499999994
                },
                {
                    "name": "B6",
                    "midi": 95,
                    "time": 299.1045149999955,
                    "velocity": 0.5669291338582677,
                    "duration": 0.179104499999994
                },
                {
                    "name": "E6",
                    "midi": 88,
                    "time": 299.2836194999955,
                    "velocity": 0.5039370078740157,
                    "duration": 0.179104499999994
                },
                {
                    "name": "G#6",
                    "midi": 92,
                    "time": 299.4627239999955,
                    "velocity": 0.6535433070866141,
                    "duration": 0.179104499999994
                },
                {
                    "name": "C7",
                    "midi": 96,
                    "time": 299.4627239999955,
                    "velocity": 0.6535433070866141,
                    "duration": 0.179104499999994
                },
                {
                    "name": "D#7",
                    "midi": 99,
                    "time": 299.4627239999955,
                    "velocity": 0.6535433070866141,
                    "duration": 0.179104499999994
                },
                {
                    "name": "F6",
                    "midi": 89,
                    "time": 299.6418284999955,
                    "velocity": 0.49606299212598426,
                    "duration": 0.179104499999994
                },
                {
                    "name": "G#5",
                    "midi": 80,
                    "time": 299.8209329999955,
                    "velocity": 0.47244094488188976,
                    "duration": 0.179104499999994
                },
                {
                    "name": "D#6",
                    "midi": 87,
                    "time": 299.8209329999955,
                    "velocity": 0.47244094488188976,
                    "duration": 0.179104499999994
                },
                {
                    "name": "C6",
                    "midi": 84,
                    "time": 299.8209329999955,
                    "velocity": 0.47244094488188976,
                    "duration": 0.179104499999994
                },
                {
                    "name": "F5",
                    "midi": 77,
                    "time": 300.00003749999547,
                    "velocity": 0.4881889763779528,
                    "duration": 0.179104499999994
                },
                {
                    "name": "G#5",
                    "midi": 80,
                    "time": 300.17914199999547,
                    "velocity": 0.44881889763779526,
                    "duration": 0.179104499999994
                },
                {
                    "name": "C6",
                    "midi": 84,
                    "time": 300.17914199999547,
                    "velocity": 0.44881889763779526,
                    "duration": 0.179104499999994
                },
                {
                    "name": "D#6",
                    "midi": 87,
                    "time": 300.17914199999547,
                    "velocity": 0.44881889763779526,
                    "duration": 0.179104499999994
                },
                {
                    "name": "F6",
                    "midi": 89,
                    "time": 300.35824649999546,
                    "velocity": 0.47244094488188976,
                    "duration": 0.179104499999994
                },
                {
                    "name": "G#6",
                    "midi": 92,
                    "time": 300.53735099999545,
                    "velocity": 0.5275590551181102,
                    "duration": 0.179104499999994
                },
                {
                    "name": "D#7",
                    "midi": 99,
                    "time": 300.53735099999545,
                    "velocity": 0.5275590551181102,
                    "duration": 0.179104499999994
                },
                {
                    "name": "C7",
                    "midi": 96,
                    "time": 300.53735099999545,
                    "velocity": 0.5275590551181102,
                    "duration": 0.179104499999994
                },
                {
                    "name": "F6",
                    "midi": 89,
                    "time": 300.71645549999545,
                    "velocity": 0.5039370078740157,
                    "duration": 0.179104499999994
                },
                {
                    "name": "G6",
                    "midi": 91,
                    "time": 300.89555999999544,
                    "velocity": 0.6614173228346457,
                    "duration": 0.179104499999994
                },
                {
                    "name": "A#6",
                    "midi": 94,
                    "time": 300.89555999999544,
                    "velocity": 0.6614173228346457,
                    "duration": 0.179104499999994
                },
                {
                    "name": "D7",
                    "midi": 98,
                    "time": 300.89555999999544,
                    "velocity": 0.6614173228346457,
                    "duration": 0.179104499999994
                },
                {
                    "name": "D#6",
                    "midi": 87,
                    "time": 301.07466449999544,
                    "velocity": 0.49606299212598426,
                    "duration": 0.179104499999994
                },
                {
                    "name": "G5",
                    "midi": 79,
                    "time": 301.25376899999543,
                    "velocity": 0.4251968503937008,
                    "duration": 0.179104499999994
                },
                {
                    "name": "D6",
                    "midi": 86,
                    "time": 301.25376899999543,
                    "velocity": 0.4251968503937008,
                    "duration": 0.179104499999994
                },
                {
                    "name": "A#5",
                    "midi": 82,
                    "time": 301.25376899999543,
                    "velocity": 0.4251968503937008,
                    "duration": 0.179104499999994
                },
                {
                    "name": "D#5",
                    "midi": 75,
                    "time": 301.4328734999954,
                    "velocity": 0.4881889763779528,
                    "duration": 0.179104499999994
                },
                {
                    "name": "G5",
                    "midi": 79,
                    "time": 301.6119779999954,
                    "velocity": 0.4409448818897638,
                    "duration": 0.179104499999994
                },
                {
                    "name": "A#5",
                    "midi": 82,
                    "time": 301.6119779999954,
                    "velocity": 0.4409448818897638,
                    "duration": 0.179104499999994
                },
                {
                    "name": "D6",
                    "midi": 86,
                    "time": 301.6119779999954,
                    "velocity": 0.4409448818897638,
                    "duration": 0.179104499999994
                },
                {
                    "name": "D#6",
                    "midi": 87,
                    "time": 301.7910824999954,
                    "velocity": 0.4881889763779528,
                    "duration": 0.179104499999994
                },
                {
                    "name": "G6",
                    "midi": 91,
                    "time": 301.9701869999954,
                    "velocity": 0.5590551181102362,
                    "duration": 0.179104499999994
                },
                {
                    "name": "D7",
                    "midi": 98,
                    "time": 301.9701869999954,
                    "velocity": 0.5590551181102362,
                    "duration": 0.179104499999994
                },
                {
                    "name": "A#6",
                    "midi": 94,
                    "time": 301.9701869999954,
                    "velocity": 0.5590551181102362,
                    "duration": 0.179104499999994
                },
                {
                    "name": "D#6",
                    "midi": 87,
                    "time": 302.1492914999954,
                    "velocity": 0.5118110236220472,
                    "duration": 0.179104499999994
                },
                {
                    "name": "D#6",
                    "midi": 87,
                    "time": 302.3283959999954,
                    "velocity": 0.6377952755905512,
                    "duration": 0.179104499999994
                },
                {
                    "name": "A#6",
                    "midi": 94,
                    "time": 302.3283959999954,
                    "velocity": 0.6377952755905512,
                    "duration": 0.179104499999994
                },
                {
                    "name": "G#6",
                    "midi": 92,
                    "time": 302.3283959999954,
                    "velocity": 0.6377952755905512,
                    "duration": 0.179104499999994
                },
                {
                    "name": "B5",
                    "midi": 83,
                    "time": 302.5075004999954,
                    "velocity": 0.5039370078740157,
                    "duration": 0.179104499999994
                },
                {
                    "name": "D#5",
                    "midi": 75,
                    "time": 302.6866049999954,
                    "velocity": 0.5354330708661418,
                    "duration": 0.179104499999994
                },
                {
                    "name": "G#5",
                    "midi": 80,
                    "time": 302.6866049999954,
                    "velocity": 0.5354330708661418,
                    "duration": 0.179104499999994
                },
                {
                    "name": "A#5",
                    "midi": 82,
                    "time": 302.6866049999954,
                    "velocity": 0.5354330708661418,
                    "duration": 0.179104499999994
                },
                {
                    "name": "B4",
                    "midi": 71,
                    "time": 302.8657094999954,
                    "velocity": 0.49606299212598426,
                    "duration": 0.179104499999994
                },
                {
                    "name": "D#5",
                    "midi": 75,
                    "time": 303.04481399999537,
                    "velocity": 0.5354330708661418,
                    "duration": 0.179104499999994
                },
                {
                    "name": "A#5",
                    "midi": 82,
                    "time": 303.04481399999537,
                    "velocity": 0.5354330708661418,
                    "duration": 0.179104499999994
                },
                {
                    "name": "G#5",
                    "midi": 80,
                    "time": 303.04481399999537,
                    "velocity": 0.5354330708661418,
                    "duration": 0.179104499999994
                },
                {
                    "name": "B5",
                    "midi": 83,
                    "time": 303.22391849999536,
                    "velocity": 0.48031496062992124,
                    "duration": 0.179104499999994
                },
                {
                    "name": "D#6",
                    "midi": 87,
                    "time": 303.40302299999536,
                    "velocity": 0.5748031496062992,
                    "duration": 0.179104499999994
                },
                {
                    "name": "G#6",
                    "midi": 92,
                    "time": 303.40302299999536,
                    "velocity": 0.5748031496062992,
                    "duration": 0.179104499999994
                },
                {
                    "name": "A#6",
                    "midi": 94,
                    "time": 303.40302299999536,
                    "velocity": 0.5748031496062992,
                    "duration": 0.179104499999994
                },
                {
                    "name": "B5",
                    "midi": 83,
                    "time": 303.58212749999535,
                    "velocity": 0.5039370078740157,
                    "duration": 0.179104499999994
                },
                {
                    "name": "D6",
                    "midi": 86,
                    "time": 303.76123199999535,
                    "velocity": 0.6614173228346457,
                    "duration": 0.179104499999994
                },
                {
                    "name": "G6",
                    "midi": 91,
                    "time": 303.76123199999535,
                    "velocity": 0.6614173228346457,
                    "duration": 0.179104499999994
                },
                {
                    "name": "A#5",
                    "midi": 82,
                    "time": 303.94033649999534,
                    "velocity": 0.5118110236220472,
                    "duration": 0.179104499999994
                },
                {
                    "name": "D5",
                    "midi": 74,
                    "time": 304.11944099999533,
                    "velocity": 0.5433070866141733,
                    "duration": 0.179104499999994
                },
                {
                    "name": "G5",
                    "midi": 79,
                    "time": 304.11944099999533,
                    "velocity": 0.5433070866141733,
                    "duration": 0.179104499999994
                },
                {
                    "name": "A#4",
                    "midi": 70,
                    "time": 304.2985454999953,
                    "velocity": 0.49606299212598426,
                    "duration": 0.179104499999994
                },
                {
                    "name": "D5",
                    "midi": 74,
                    "time": 304.4776499999953,
                    "velocity": 0.5669291338582677,
                    "duration": 0.179104499999994
                },
                {
                    "name": "G5",
                    "midi": 79,
                    "time": 304.4776499999953,
                    "velocity": 0.5669291338582677,
                    "duration": 0.179104499999994
                },
                {
                    "name": "A#5",
                    "midi": 82,
                    "time": 304.6567544999953,
                    "velocity": 0.5118110236220472,
                    "duration": 0.179104499999994
                },
                {
                    "name": "D6",
                    "midi": 86,
                    "time": 304.8358589999953,
                    "velocity": 0.6299212598425197,
                    "duration": 0.179104499999994
                },
                {
                    "name": "G6",
                    "midi": 91,
                    "time": 304.8358589999953,
                    "velocity": 0.6299212598425197,
                    "duration": 0.179104499999994
                },
                {
                    "name": "A#5",
                    "midi": 82,
                    "time": 305.0149634999953,
                    "velocity": 0.5433070866141733,
                    "duration": 0.179104499999994
                },
                {
                    "name": "G5",
                    "midi": 79,
                    "time": 305.1940679999953,
                    "velocity": 0.6692913385826772,
                    "duration": 0.179104499999994
                },
                {
                    "name": "C6",
                    "midi": 84,
                    "time": 305.1940679999953,
                    "velocity": 0.7244094488188977,
                    "duration": 0.179104499999994
                },
                {
                    "name": "D#5",
                    "midi": 75,
                    "time": 305.3731724999953,
                    "velocity": 0.5196850393700787,
                    "duration": 0.179104499999994
                },
                {
                    "name": "G4",
                    "midi": 67,
                    "time": 305.5522769999953,
                    "velocity": 0.5039370078740157,
                    "duration": 0.179104499999994
                },
                {
                    "name": "C5",
                    "midi": 72,
                    "time": 305.5522769999953,
                    "velocity": 0.5590551181102362,
                    "duration": 0.179104499999994
                },
                {
                    "name": "D#4",
                    "midi": 63,
                    "time": 305.7313814999953,
                    "velocity": 0.5039370078740157,
                    "duration": 0.179104499999994
                },
                {
                    "name": "F5",
                    "midi": 77,
                    "time": 305.9104859999953,
                    "velocity": 0.5748031496062992,
                    "duration": 0.179104499999994
                },
                {
                    "name": "A#5",
                    "midi": 82,
                    "time": 305.9104859999953,
                    "velocity": 0.5748031496062992,
                    "duration": 0.179104499999994
                },
                {
                    "name": "D5",
                    "midi": 74,
                    "time": 306.08959049999527,
                    "velocity": 0.5196850393700787,
                    "duration": 0.179104499999994
                },
                {
                    "name": "F4",
                    "midi": 65,
                    "time": 306.26869499999526,
                    "velocity": 0.49606299212598426,
                    "duration": 0.179104499999994
                },
                {
                    "name": "A#4",
                    "midi": 70,
                    "time": 306.26869499999526,
                    "velocity": 0.5590551181102362,
                    "duration": 0.179104499999994
                },
                {
                    "name": "D4",
                    "midi": 62,
                    "time": 306.44779949999526,
                    "velocity": 0.5511811023622047,
                    "duration": 0.179104499999994
                },
                {
                    "name": "G5",
                    "midi": 79,
                    "time": 306.62690399999525,
                    "velocity": 0.6614173228346457,
                    "duration": 0.179104499999994
                },
                {
                    "name": "C6",
                    "midi": 84,
                    "time": 306.62690399999525,
                    "velocity": 0.7165354330708661,
                    "duration": 0.179104499999994
                },
                {
                    "name": "D#5",
                    "midi": 75,
                    "time": 306.80600849999524,
                    "velocity": 0.5196850393700787,
                    "duration": 0.179104499999994
                },
                {
                    "name": "G4",
                    "midi": 67,
                    "time": 306.98511299999524,
                    "velocity": 0.5590551181102362,
                    "duration": 0.179104499999994
                },
                {
                    "name": "C5",
                    "midi": 72,
                    "time": 306.98511299999524,
                    "velocity": 0.5590551181102362,
                    "duration": 0.179104499999994
                },
                {
                    "name": "D#4",
                    "midi": 63,
                    "time": 307.16421749999523,
                    "velocity": 0.5039370078740157,
                    "duration": 0.179104499999994
                },
                {
                    "name": "F6",
                    "midi": 89,
                    "time": 307.3433219999952,
                    "velocity": 0.6614173228346457,
                    "duration": 0.179104499999994
                },
                {
                    "name": "A#5",
                    "midi": 82,
                    "time": 307.3433219999952,
                    "velocity": 0.4881889763779528,
                    "duration": 0.179104499999994
                },
                {
                    "name": "D6",
                    "midi": 86,
                    "time": 307.3433219999952,
                    "velocity": 0.4881889763779528,
                    "duration": 0.179104499999994
                },
                {
                    "name": "F5",
                    "midi": 77,
                    "time": 307.5224264999952,
                    "velocity": 0.5196850393700787,
                    "duration": 0.179104499999994
                },
                {
                    "name": "D6",
                    "midi": 86,
                    "time": 307.7015309999952,
                    "velocity": 0.49606299212598426,
                    "duration": 0.179104499999994
                },
                {
                    "name": "F6",
                    "midi": 89,
                    "time": 307.7015309999952,
                    "velocity": 0.49606299212598426,
                    "duration": 0.179104499999994
                },
                {
                    "name": "A#6",
                    "midi": 94,
                    "time": 307.7015309999952,
                    "velocity": 0.6850393700787402,
                    "duration": 0.179104499999994
                },
                {
                    "name": "A#5",
                    "midi": 82,
                    "time": 307.8806354999952,
                    "velocity": 0.5511811023622047,
                    "duration": 0.179104499999994
                },
                {
                    "name": "G6",
                    "midi": 91,
                    "time": 308.0597399999952,
                    "velocity": 0.7559055118110236,
                    "duration": 0.179104499999994
                },
                {
                    "name": "D#6",
                    "midi": 87,
                    "time": 308.0597399999952,
                    "velocity": 0.5196850393700787,
                    "duration": 0.179104499999994
                },
                {
                    "name": "C6",
                    "midi": 84,
                    "time": 308.0597399999952,
                    "velocity": 0.5196850393700787,
                    "duration": 0.179104499999994
                },
                {
                    "name": "A#5",
                    "midi": 82,
                    "time": 308.2388444999952,
                    "velocity": 0.5196850393700787,
                    "duration": 0.179104499999994
                },
                {
                    "name": "C5",
                    "midi": 72,
                    "time": 308.4179489999952,
                    "velocity": 0.48031496062992124,
                    "duration": 0.179104499999994
                },
                {
                    "name": "D#5",
                    "midi": 75,
                    "time": 308.4179489999952,
                    "velocity": 0.49606299212598426,
                    "duration": 0.179104499999994
                },
                {
                    "name": "G5",
                    "midi": 79,
                    "time": 308.4179489999952,
                    "velocity": 0.5590551181102362,
                    "duration": 0.179104499999994
                },
                {
                    "name": "A#4",
                    "midi": 70,
                    "time": 308.5970534999952,
                    "velocity": 0.5039370078740157,
                    "duration": 0.179104499999994
                },
                {
                    "name": "F6",
                    "midi": 89,
                    "time": 308.7761579999952,
                    "velocity": 0.6456692913385826,
                    "duration": 0.179104499999994
                },
                {
                    "name": "A#5",
                    "midi": 82,
                    "time": 308.7761579999952,
                    "velocity": 0.4645669291338583,
                    "duration": 0.179104499999994
                },
                {
                    "name": "D6",
                    "midi": 86,
                    "time": 308.7761579999952,
                    "velocity": 0.4645669291338583,
                    "duration": 0.179104499999994
                },
                {
                    "name": "F5",
                    "midi": 77,
                    "time": 308.9552624999952,
                    "velocity": 0.5196850393700787,
                    "duration": 0.179104499999994
                },
                {
                    "name": "D6",
                    "midi": 86,
                    "time": 309.13436699999517,
                    "velocity": 0.5039370078740157,
                    "duration": 0.179104499999994
                },
                {
                    "name": "F6",
                    "midi": 89,
                    "time": 309.13436699999517,
                    "velocity": 0.5039370078740157,
                    "duration": 0.179104499999994
                },
                {
                    "name": "A#6",
                    "midi": 94,
                    "time": 309.13436699999517,
                    "velocity": 0.6929133858267716,
                    "duration": 0.179104499999994
                },
                {
                    "name": "A#5",
                    "midi": 82,
                    "time": 309.31347149999516,
                    "velocity": 0.5511811023622047,
                    "duration": 0.179104499999994
                },
                {
                    "name": "G6",
                    "midi": 91,
                    "time": 309.49257599999515,
                    "velocity": 0.7480314960629921,
                    "duration": 0.179104499999994
                },
                {
                    "name": "D#6",
                    "midi": 87,
                    "time": 309.49257599999515,
                    "velocity": 0.3543307086614173,
                    "duration": 0.179104499999994
                },
                {
                    "name": "D6",
                    "midi": 86,
                    "time": 309.49257599999515,
                    "velocity": 0.3543307086614173,
                    "duration": 0.179104499999994
                },
                {
                    "name": "C6",
                    "midi": 84,
                    "time": 309.67168049999515,
                    "velocity": 0.5196850393700787,
                    "duration": 0.179104499999994
                },
                {
                    "name": "D5",
                    "midi": 74,
                    "time": 309.85078499999514,
                    "velocity": 0.48031496062992124,
                    "duration": 0.179104499999994
                },
                {
                    "name": "D#5",
                    "midi": 75,
                    "time": 309.85078499999514,
                    "velocity": 0.48031496062992124,
                    "duration": 0.179104499999994
                },
                {
                    "name": "G5",
                    "midi": 79,
                    "time": 309.85078499999514,
                    "velocity": 0.5590551181102362,
                    "duration": 0.179104499999994
                },
                {
                    "name": "C5",
                    "midi": 72,
                    "time": 310.02988949999514,
                    "velocity": 0.5039370078740157,
                    "duration": 0.179104499999994
                },
                {
                    "name": "D#6",
                    "midi": 87,
                    "time": 310.20899399999513,
                    "velocity": 0.7244094488188977,
                    "duration": 0.179104499999994
                },
                {
                    "name": "C6",
                    "midi": 84,
                    "time": 310.20899399999513,
                    "velocity": 0.3464566929133858,
                    "duration": 0.179104499999994
                },
                {
                    "name": "A#5",
                    "midi": 82,
                    "time": 310.20899399999513,
                    "velocity": 0.3464566929133858,
                    "duration": 0.179104499999994
                },
                {
                    "name": "G5",
                    "midi": 79,
                    "time": 310.3880984999951,
                    "velocity": 0.4881889763779528,
                    "duration": 0.179104499999994
                },
                {
                    "name": "A#4",
                    "midi": 70,
                    "time": 310.5672029999951,
                    "velocity": 0.4409448818897638,
                    "duration": 0.179104499999994
                },
                {
                    "name": "C5",
                    "midi": 72,
                    "time": 310.5672029999951,
                    "velocity": 0.4409448818897638,
                    "duration": 0.179104499999994
                },
                {
                    "name": "D#5",
                    "midi": 75,
                    "time": 310.5672029999951,
                    "velocity": 0.5275590551181102,
                    "duration": 0.179104499999994
                },
                {
                    "name": "G4",
                    "midi": 67,
                    "time": 310.7463074999951,
                    "velocity": 0.5039370078740157,
                    "duration": 0.179104499999994
                },
                {
                    "name": "F6",
                    "midi": 89,
                    "time": 310.9254119999951,
                    "velocity": 0.7086614173228346,
                    "duration": 0.179104499999994
                },
                {
                    "name": "D#6",
                    "midi": 87,
                    "time": 310.9254119999951,
                    "velocity": 0.5118110236220472,
                    "duration": 0.179104499999994
                },
                {
                    "name": "C6",
                    "midi": 84,
                    "time": 310.9254119999951,
                    "velocity": 0.5118110236220472,
                    "duration": 0.179104499999994
                },
                {
                    "name": "G#5",
                    "midi": 80,
                    "time": 311.1045164999951,
                    "velocity": 0.5196850393700787,
                    "duration": 0.179104499999994
                },
                {
                    "name": "C5",
                    "midi": 72,
                    "time": 311.2836209999951,
                    "velocity": 0.48031496062992124,
                    "duration": 0.179104499999994
                },
                {
                    "name": "D#5",
                    "midi": 75,
                    "time": 311.2836209999951,
                    "velocity": 0.48031496062992124,
                    "duration": 0.179104499999994
                },
                {
                    "name": "F5",
                    "midi": 77,
                    "time": 311.2836209999951,
                    "velocity": 0.5590551181102362,
                    "duration": 0.179104499999994
                },
                {
                    "name": "G#4",
                    "midi": 68,
                    "time": 311.4627254999951,
                    "velocity": 0.5039370078740157,
                    "duration": 0.179104499999994
                },
                {
                    "name": "C6",
                    "midi": 84,
                    "time": 311.6418299999951,
                    "velocity": 0.7086614173228346,
                    "duration": 0.179104499999994
                },
                {
                    "name": "G#5",
                    "midi": 80,
                    "time": 311.6418299999951,
                    "velocity": 0.5039370078740157,
                    "duration": 0.179104499999994
                },
                {
                    "name": "F5",
                    "midi": 77,
                    "time": 311.6418299999951,
                    "velocity": 0.5039370078740157,
                    "duration": 0.179104499999994
                },
                {
                    "name": "D#5",
                    "midi": 75,
                    "time": 311.8209344999951,
                    "velocity": 0.5196850393700787,
                    "duration": 0.179104499999994
                },
                {
                    "name": "F4",
                    "midi": 65,
                    "time": 312.00003899999507,
                    "velocity": 0.48031496062992124,
                    "duration": 0.179104499999994
                },
                {
                    "name": "G#4",
                    "midi": 68,
                    "time": 312.00003899999507,
                    "velocity": 0.48031496062992124,
                    "duration": 0.179104499999994
                },
                {
                    "name": "C5",
                    "midi": 72,
                    "time": 312.00003899999507,
                    "velocity": 0.5590551181102362,
                    "duration": 0.179104499999994
                },
                {
                    "name": "D#4",
                    "midi": 63,
                    "time": 312.17914349999506,
                    "velocity": 0.5039370078740157,
                    "duration": 0.179104499999994
                },
                {
                    "name": "A#4",
                    "midi": 70,
                    "time": 312.35824799999506,
                    "velocity": 0.6850393700787402,
                    "duration": 0.179104499999994
                },
                {
                    "name": "G#4",
                    "midi": 68,
                    "time": 312.35824799999506,
                    "velocity": 0.3858267716535433,
                    "duration": 0.179104499999994
                },
                {
                    "name": "F4",
                    "midi": 65,
                    "time": 312.35824799999506,
                    "velocity": 0.3858267716535433,
                    "duration": 0.179104499999994
                },
                {
                    "name": "D4",
                    "midi": 62,
                    "time": 312.53735249999505,
                    "velocity": 0.5196850393700787,
                    "duration": 0.179104499999994
                },
                {
                    "name": "G#4",
                    "midi": 68,
                    "time": 312.71645699999505,
                    "velocity": 0.3543307086614173,
                    "duration": 0.179104499999994
                },
                {
                    "name": "A#4",
                    "midi": 70,
                    "time": 312.71645699999505,
                    "velocity": 0.3543307086614173,
                    "duration": 0.179104499999994
                },
                {
                    "name": "D5",
                    "midi": 74,
                    "time": 312.71645699999505,
                    "velocity": 0.6220472440944882,
                    "duration": 0.179104499999994
                },
                {
                    "name": "F4",
                    "midi": 65,
                    "time": 312.89556149999504,
                    "velocity": 0.5039370078740157,
                    "duration": 0.179104499999994
                },
                {
                    "name": "F5",
                    "midi": 77,
                    "time": 313.07466599999503,
                    "velocity": 0.6771653543307087,
                    "duration": 0.179104499999994
                },
                {
                    "name": "D5",
                    "midi": 74,
                    "time": 313.07466599999503,
                    "velocity": 0.3779527559055118,
                    "duration": 0.179104499999994
                },
                {
                    "name": "A#4",
                    "midi": 70,
                    "time": 313.07466599999503,
                    "velocity": 0.3779527559055118,
                    "duration": 0.179104499999994
                },
                {
                    "name": "G#4",
                    "midi": 68,
                    "time": 313.253770499995,
                    "velocity": 0.5196850393700787,
                    "duration": 0.179104499999994
                },
                {
                    "name": "D5",
                    "midi": 74,
                    "time": 313.432874999995,
                    "velocity": 0.4015748031496063,
                    "duration": 0.179104499999994
                },
                {
                    "name": "F5",
                    "midi": 77,
                    "time": 313.432874999995,
                    "velocity": 0.4015748031496063,
                    "duration": 0.179104499999994
                },
                {
                    "name": "A#5",
                    "midi": 82,
                    "time": 313.432874999995,
                    "velocity": 0.7086614173228346,
                    "duration": 0.179104499999994
                },
                {
                    "name": "A#4",
                    "midi": 70,
                    "time": 313.611979499995,
                    "velocity": 0.5669291338582677,
                    "duration": 0.179104499999994
                },
                {
                    "name": "G5",
                    "midi": 79,
                    "time": 313.791083999995,
                    "velocity": 0.4251968503937008,
                    "duration": 0.179104499999994
                },
                {
                    "name": "C6",
                    "midi": 84,
                    "time": 313.791083999995,
                    "velocity": 0.7480314960629921,
                    "duration": 0.179104499999994
                },
                {
                    "name": "D#5",
                    "midi": 75,
                    "time": 313.970188499995,
                    "velocity": 0.5196850393700787,
                    "duration": 0.179104499999994
                },
                {
                    "name": "G4",
                    "midi": 67,
                    "time": 314.149292999995,
                    "velocity": 0.4881889763779528,
                    "duration": 0.179104499999994
                },
                {
                    "name": "C5",
                    "midi": 72,
                    "time": 314.149292999995,
                    "velocity": 0.5590551181102362,
                    "duration": 0.179104499999994
                },
                {
                    "name": "D#4",
                    "midi": 63,
                    "time": 314.328397499995,
                    "velocity": 0.5039370078740157,
                    "duration": 0.179104499999994
                },
                {
                    "name": "F6",
                    "midi": 89,
                    "time": 314.507501999995,
                    "velocity": 0.6456692913385826,
                    "duration": 0.179104499999994
                },
                {
                    "name": "A#5",
                    "midi": 82,
                    "time": 314.507501999995,
                    "velocity": 0.36220472440944884,
                    "duration": 0.179104499999994
                },
                {
                    "name": "D6",
                    "midi": 86,
                    "time": 314.507501999995,
                    "velocity": 0.36220472440944884,
                    "duration": 0.179104499999994
                },
                {
                    "name": "F5",
                    "midi": 77,
                    "time": 314.686606499995,
                    "velocity": 0.5196850393700787,
                    "duration": 0.179104499999994
                },
                {
                    "name": "D6",
                    "midi": 86,
                    "time": 314.865710999995,
                    "velocity": 0.3937007874015748,
                    "duration": 0.179104499999994
                },
                {
                    "name": "F6",
                    "midi": 89,
                    "time": 314.865710999995,
                    "velocity": 0.3937007874015748,
                    "duration": 0.179104499999994
                },
                {
                    "name": "A#6",
                    "midi": 94,
                    "time": 314.865710999995,
                    "velocity": 0.6929133858267716,
                    "duration": 0.179104499999994
                },
                {
                    "name": "A#5",
                    "midi": 82,
                    "time": 315.04481549999497,
                    "velocity": 0.5511811023622047,
                    "duration": 0.179104499999994
                },
                {
                    "name": "G6",
                    "midi": 91,
                    "time": 315.22391999999496,
                    "velocity": 0.7637795275590551,
                    "duration": 0.179104499999994
                },
                {
                    "name": "D#6",
                    "midi": 87,
                    "time": 315.22391999999496,
                    "velocity": 0.4251968503937008,
                    "duration": 0.179104499999994
                },
                {
                    "name": "C6",
                    "midi": 84,
                    "time": 315.22391999999496,
                    "velocity": 0.4251968503937008,
                    "duration": 0.179104499999994
                },
                {
                    "name": "A#5",
                    "midi": 82,
                    "time": 315.40302449999496,
                    "velocity": 0.5196850393700787,
                    "duration": 0.179104499999994
                },
                {
                    "name": "C5",
                    "midi": 72,
                    "time": 315.58212899999495,
                    "velocity": 0.47244094488188976,
                    "duration": 0.179104499999994
                },
                {
                    "name": "D#5",
                    "midi": 75,
                    "time": 315.58212899999495,
                    "velocity": 0.5039370078740157,
                    "duration": 0.179104499999994
                },
                {
                    "name": "G5",
                    "midi": 79,
                    "time": 315.58212899999495,
                    "velocity": 0.5590551181102362,
                    "duration": 0.179104499999994
                },
                {
                    "name": "A#4",
                    "midi": 70,
                    "time": 315.76123349999494,
                    "velocity": 0.5039370078740157,
                    "duration": 0.179104499999994
                },
                {
                    "name": "F6",
                    "midi": 89,
                    "time": 315.94033799999494,
                    "velocity": 0.6456692913385826,
                    "duration": 0.179104499999994
                },
                {
                    "name": "A#5",
                    "midi": 82,
                    "time": 315.94033799999494,
                    "velocity": 0.36220472440944884,
                    "duration": 0.179104499999994
                },
                {
                    "name": "D6",
                    "midi": 86,
                    "time": 315.94033799999494,
                    "velocity": 0.36220472440944884,
                    "duration": 0.179104499999994
                },
                {
                    "name": "F5",
                    "midi": 77,
                    "time": 316.11944249999493,
                    "velocity": 0.5196850393700787,
                    "duration": 0.179104499999994
                },
                {
                    "name": "D6",
                    "midi": 86,
                    "time": 316.2985469999949,
                    "velocity": 0.3937007874015748,
                    "duration": 0.179104499999994
                },
                {
                    "name": "F6",
                    "midi": 89,
                    "time": 316.2985469999949,
                    "velocity": 0.3937007874015748,
                    "duration": 0.179104499999994
                },
                {
                    "name": "A#6",
                    "midi": 94,
                    "time": 316.2985469999949,
                    "velocity": 0.6929133858267716,
                    "duration": 0.179104499999994
                },
                {
                    "name": "A#5",
                    "midi": 82,
                    "time": 316.4776514999949,
                    "velocity": 0.5511811023622047,
                    "duration": 0.179104499999994
                },
                {
                    "name": "G#4",
                    "midi": 68,
                    "time": 316.6567559999949,
                    "velocity": 0.47244094488188976,
                    "duration": 0.179104499999994
                },
                {
                    "name": "C5",
                    "midi": 72,
                    "time": 316.6567559999949,
                    "velocity": 0.6535433070866141,
                    "duration": 0.179104499999994
                },
                {
                    "name": "G4",
                    "midi": 67,
                    "time": 316.6567559999949,
                    "velocity": 0.47244094488188976,
                    "duration": 0.179104499999994
                },
                {
                    "name": "F4",
                    "midi": 65,
                    "time": 316.8358604999949,
                    "velocity": 0.5118110236220472,
                    "duration": 0.179104499999994
                },
                {
                    "name": "A#4",
                    "midi": 70,
                    "time": 317.0149649999949,
                    "velocity": 0.44881889763779526,
                    "duration": 0.179104499999994
                },
                {
                    "name": "D5",
                    "midi": 74,
                    "time": 317.0149649999949,
                    "velocity": 0.44881889763779526,
                    "duration": 0.179104499999994
                },
                {
                    "name": "D#5",
                    "midi": 75,
                    "time": 317.0149649999949,
                    "velocity": 0.6377952755905512,
                    "duration": 0.179104499999994
                },
                {
                    "name": "G4",
                    "midi": 67,
                    "time": 317.1940694999949,
                    "velocity": 0.5039370078740157,
                    "duration": 0.179104499999994
                },
                {
                    "name": "F5",
                    "midi": 77,
                    "time": 317.3731739999949,
                    "velocity": 0.6535433070866141,
                    "duration": 0.179104499999994
                },
                {
                    "name": "D#5",
                    "midi": 75,
                    "time": 317.3731739999949,
                    "velocity": 0.47244094488188976,
                    "duration": 0.179104499999994
                },
                {
                    "name": "C5",
                    "midi": 72,
                    "time": 317.3731739999949,
                    "velocity": 0.47244094488188976,
                    "duration": 0.179104499999994
                },
                {
                    "name": "G#4",
                    "midi": 68,
                    "time": 317.5522784999949,
                    "velocity": 0.5196850393700787,
                    "duration": 0.179104499999994
                },
                {
                    "name": "D5",
                    "midi": 74,
                    "time": 317.7313829999949,
                    "velocity": 0.49606299212598426,
                    "duration": 0.179104499999994
                },
                {
                    "name": "F5",
                    "midi": 77,
                    "time": 317.7313829999949,
                    "velocity": 0.49606299212598426,
                    "duration": 0.179104499999994
                },
                {
                    "name": "G#5",
                    "midi": 80,
                    "time": 317.7313829999949,
                    "velocity": 0.6850393700787402,
                    "duration": 0.179104499999994
                },
                {
                    "name": "C5",
                    "midi": 72,
                    "time": 317.9104874999949,
                    "velocity": 0.5590551181102362,
                    "duration": 0.179104499999994
                },
                {
                    "name": "D#5",
                    "midi": 75,
                    "time": 318.08959199999487,
                    "velocity": 0.6377952755905512,
                    "duration": 0.179104499999994
                },
                {
                    "name": "G5",
                    "midi": 79,
                    "time": 318.08959199999487,
                    "velocity": 0.6929133858267716,
                    "duration": 0.179104499999994
                },
                {
                    "name": "D5",
                    "midi": 74,
                    "time": 318.08959199999487,
                    "velocity": 0.5039370078740157,
                    "duration": 0.179104499999994
                },
                {
                    "name": "B4",
                    "midi": 71,
                    "time": 318.26869649999486,
                    "velocity": 0.5196850393700787,
                    "duration": 0.179104499999994
                },
                {
                    "name": "D#5",
                    "midi": 75,
                    "time": 318.44780099999485,
                    "velocity": 0.47244094488188976,
                    "duration": 0.179104499999994
                },
                {
                    "name": "G5",
                    "midi": 79,
                    "time": 318.44780099999485,
                    "velocity": 0.47244094488188976,
                    "duration": 0.179104499999994
                },
                {
                    "name": "G#5",
                    "midi": 80,
                    "time": 318.44780099999485,
                    "velocity": 0.6535433070866141,
                    "duration": 0.179104499999994
                },
                {
                    "name": "C5",
                    "midi": 72,
                    "time": 318.62690549999485,
                    "velocity": 0.5039370078740157,
                    "duration": 0.179104499999994
                },
                {
                    "name": "C6",
                    "midi": 84,
                    "time": 318.80600999999484,
                    "velocity": 0.6850393700787402,
                    "duration": 0.179104499999994
                },
                {
                    "name": "G#5",
                    "midi": 80,
                    "time": 318.80600999999484,
                    "velocity": 0.49606299212598426,
                    "duration": 0.179104499999994
                },
                {
                    "name": "G5",
                    "midi": 79,
                    "time": 318.80600999999484,
                    "velocity": 0.49606299212598426,
                    "duration": 0.179104499999994
                },
                {
                    "name": "F5",
                    "midi": 77,
                    "time": 318.98511449999484,
                    "velocity": 0.5196850393700787,
                    "duration": 0.179104499999994
                },
                {
                    "name": "C6",
                    "midi": 84,
                    "time": 319.16421899999483,
                    "velocity": 0.49606299212598426,
                    "duration": 0.179104499999994
                },
                {
                    "name": "D6",
                    "midi": 86,
                    "time": 319.16421899999483,
                    "velocity": 0.49606299212598426,
                    "duration": 0.179104499999994
                },
                {
                    "name": "F6",
                    "midi": 89,
                    "time": 319.16421899999483,
                    "velocity": 0.6850393700787402,
                    "duration": 0.179104499999994
                },
                {
                    "name": "G#5",
                    "midi": 80,
                    "time": 319.3433234999948,
                    "velocity": 0.5669291338582677,
                    "duration": 0.179104499999994
                },
                {
                    "name": "G#6",
                    "midi": 92,
                    "time": 319.5224279999948,
                    "velocity": 0.7086614173228346,
                    "duration": 0.179104499999994
                },
                {
                    "name": "D#6",
                    "midi": 87,
                    "time": 319.5224279999948,
                    "velocity": 0.4645669291338583,
                    "duration": 0.179104499999994
                },
                {
                    "name": "G#5",
                    "midi": 80,
                    "time": 319.7015324999948,
                    "velocity": 0.2755905511811024,
                    "duration": 0.179104499999994
                },
                {
                    "name": "A#6",
                    "midi": 94,
                    "time": 319.7015324999948,
                    "velocity": 0.5196850393700787,
                    "duration": 0.179104499999994
                },
                {
                    "name": "D#6",
                    "midi": 87,
                    "time": 319.8806369999948,
                    "velocity": 0.44881889763779526,
                    "duration": 0.179104499999994
                },
                {
                    "name": "G#6",
                    "midi": 92,
                    "time": 319.8806369999948,
                    "velocity": 0.7007874015748031,
                    "duration": 0.179104499999994
                },
                {
                    "name": "G#5",
                    "midi": 80,
                    "time": 320.0597414999948,
                    "velocity": 0.2755905511811024,
                    "duration": 0.179104499999994
                },
                {
                    "name": "A#6",
                    "midi": 94,
                    "time": 320.0597414999948,
                    "velocity": 0.5196850393700787,
                    "duration": 0.179104499999994
                },
                {
                    "name": "G#6",
                    "midi": 92,
                    "time": 320.2388459999948,
                    "velocity": 0.7086614173228346,
                    "duration": 0.179104499999994
                },
                {
                    "name": "D#6",
                    "midi": 87,
                    "time": 320.2388459999948,
                    "velocity": 0.4645669291338583,
                    "duration": 0.179104499999994
                },
                {
                    "name": "G#5",
                    "midi": 80,
                    "time": 320.4179504999948,
                    "velocity": 0.2755905511811024,
                    "duration": 0.179104499999994
                },
                {
                    "name": "A#6",
                    "midi": 94,
                    "time": 320.4179504999948,
                    "velocity": 0.5196850393700787,
                    "duration": 0.179104499999994
                },
                {
                    "name": "D#6",
                    "midi": 87,
                    "time": 320.5970549999948,
                    "velocity": 0.4409448818897638,
                    "duration": 0.179104499999994
                },
                {
                    "name": "G#6",
                    "midi": 92,
                    "time": 320.5970549999948,
                    "velocity": 0.6850393700787402,
                    "duration": 0.179104499999994
                },
                {
                    "name": "G#5",
                    "midi": 80,
                    "time": 320.7761594999948,
                    "velocity": 0.2755905511811024,
                    "duration": 0.179104499999994
                },
                {
                    "name": "A#6",
                    "midi": 94,
                    "time": 320.7761594999948,
                    "velocity": 0.5196850393700787,
                    "duration": 0.179104499999994
                },
                {
                    "name": "G#6",
                    "midi": 92,
                    "time": 320.95526399999477,
                    "velocity": 0.7244094488188977,
                    "duration": 0.179104499999994
                },
                {
                    "name": "D#6",
                    "midi": 87,
                    "time": 320.95526399999477,
                    "velocity": 0.47244094488188976,
                    "duration": 0.179104499999994
                },
                {
                    "name": "G#5",
                    "midi": 80,
                    "time": 321.13436849999476,
                    "velocity": 0.29133858267716534,
                    "duration": 0.179104499999994
                },
                {
                    "name": "A#6",
                    "midi": 94,
                    "time": 321.13436849999476,
                    "velocity": 0.5511811023622047,
                    "duration": 0.179104499999994
                },
                {
                    "name": "D#6",
                    "midi": 87,
                    "time": 321.31347299999476,
                    "velocity": 0.47244094488188976,
                    "duration": 0.179104499999994
                },
                {
                    "name": "G#6",
                    "midi": 92,
                    "time": 321.31347299999476,
                    "velocity": 0.7165354330708661,
                    "duration": 0.179104499999994
                },
                {
                    "name": "G#5",
                    "midi": 80,
                    "time": 321.49257749999475,
                    "velocity": 0.28346456692913385,
                    "duration": 0.179104499999994
                },
                {
                    "name": "A#6",
                    "midi": 94,
                    "time": 321.49257749999475,
                    "velocity": 0.5433070866141733,
                    "duration": 0.179104499999994
                },
                {
                    "name": "G#6",
                    "midi": 92,
                    "time": 321.67168199999475,
                    "velocity": 0.7480314960629921,
                    "duration": 0.179104499999994
                },
                {
                    "name": "D#6",
                    "midi": 87,
                    "time": 321.67168199999475,
                    "velocity": 0.49606299212598426,
                    "duration": 0.179104499999994
                },
                {
                    "name": "G#5",
                    "midi": 80,
                    "time": 321.85078649999474,
                    "velocity": 0.29133858267716534,
                    "duration": 0.179104499999994
                },
                {
                    "name": "A#6",
                    "midi": 94,
                    "time": 321.85078649999474,
                    "velocity": 0.5511811023622047,
                    "duration": 0.179104499999994
                },
                {
                    "name": "D#6",
                    "midi": 87,
                    "time": 322.02989099999473,
                    "velocity": 0.4645669291338583,
                    "duration": 0.179104499999994
                },
                {
                    "name": "G#6",
                    "midi": 92,
                    "time": 322.02989099999473,
                    "velocity": 0.7086614173228346,
                    "duration": 0.179104499999994
                },
                {
                    "name": "G#5",
                    "midi": 80,
                    "time": 322.2089954999947,
                    "velocity": 0.28346456692913385,
                    "duration": 0.179104499999994
                },
                {
                    "name": "A#6",
                    "midi": 94,
                    "time": 322.2089954999947,
                    "velocity": 0.5433070866141733,
                    "duration": 0.179104499999994
                },
                {
                    "name": "F6",
                    "midi": 89,
                    "time": 322.3880999999947,
                    "velocity": 0.7559055118110236,
                    "duration": 0.179104499999994
                },
                {
                    "name": "D#6",
                    "midi": 87,
                    "time": 322.3880999999947,
                    "velocity": 0.5039370078740157,
                    "duration": 0.179104499999994
                },
                {
                    "name": "G#5",
                    "midi": 80,
                    "time": 322.5672044999947,
                    "velocity": 0.29133858267716534,
                    "duration": 0.179104499999994
                },
                {
                    "name": "A#6",
                    "midi": 94,
                    "time": 322.5672044999947,
                    "velocity": 0.5669291338582677,
                    "duration": 0.179104499999994
                },
                {
                    "name": "D#6",
                    "midi": 87,
                    "time": 322.7463089999947,
                    "velocity": 0.49606299212598426,
                    "duration": 0.179104499999994
                },
                {
                    "name": "F6",
                    "midi": 89,
                    "time": 322.7463089999947,
                    "velocity": 0.7480314960629921,
                    "duration": 0.179104499999994
                },
                {
                    "name": "G#5",
                    "midi": 80,
                    "time": 322.9254134999947,
                    "velocity": 0.29133858267716534,
                    "duration": 0.179104499999994
                },
                {
                    "name": "A#6",
                    "midi": 94,
                    "time": 322.9254134999947,
                    "velocity": 0.5590551181102362,
                    "duration": 0.179104499999994
                },
                {
                    "name": "F6",
                    "midi": 89,
                    "time": 323.1045179999947,
                    "velocity": 0.7795275590551181,
                    "duration": 0.179104499999994
                },
                {
                    "name": "D#6",
                    "midi": 87,
                    "time": 323.1045179999947,
                    "velocity": 0.5118110236220472,
                    "duration": 0.179104499999994
                },
                {
                    "name": "G#5",
                    "midi": 80,
                    "time": 323.2836224999947,
                    "velocity": 0.29133858267716534,
                    "duration": 0.179104499999994
                },
                {
                    "name": "A#6",
                    "midi": 94,
                    "time": 323.2836224999947,
                    "velocity": 0.5669291338582677,
                    "duration": 0.179104499999994
                },
                {
                    "name": "D#6",
                    "midi": 87,
                    "time": 323.4627269999947,
                    "velocity": 0.6614173228346457,
                    "duration": 0.179104499999994
                },
                {
                    "name": "F6",
                    "midi": 89,
                    "time": 323.4627269999947,
                    "velocity": 0.7401574803149606,
                    "duration": 0.179104499999994
                },
                {
                    "name": "G#5",
                    "midi": 80,
                    "time": 323.6418314999947,
                    "velocity": 0.29133858267716534,
                    "duration": 0.179104499999994
                },
                {
                    "name": "A#6",
                    "midi": 94,
                    "time": 323.6418314999947,
                    "velocity": 0.5590551181102362,
                    "duration": 0.179104499999994
                },
                {
                    "name": "F6",
                    "midi": 89,
                    "time": 323.8209359999947,
                    "velocity": 0.7874015748031497,
                    "duration": 0.179104499999994
                },
                {
                    "name": "D#6",
                    "midi": 87,
                    "time": 323.8209359999947,
                    "velocity": 0.5196850393700787,
                    "duration": 0.179104499999994
                },
                {
                    "name": "G#5",
                    "midi": 80,
                    "time": 324.00004049999467,
                    "velocity": 0.31496062992125984,
                    "duration": 0.179104499999994
                },
                {
                    "name": "A#6",
                    "midi": 94,
                    "time": 324.00004049999467,
                    "velocity": 0.5905511811023622,
                    "duration": 0.179104499999994
                },
                {
                    "name": "D#6",
                    "midi": 87,
                    "time": 324.17914499999466,
                    "velocity": 0.5196850393700787,
                    "duration": 0.179104499999994
                },
                {
                    "name": "F6",
                    "midi": 89,
                    "time": 324.17914499999466,
                    "velocity": 0.7795275590551181,
                    "duration": 0.179104499999994
                },
                {
                    "name": "G#5",
                    "midi": 80,
                    "time": 324.35824949999466,
                    "velocity": 0.30708661417322836,
                    "duration": 0.179104499999994
                },
                {
                    "name": "A#6",
                    "midi": 94,
                    "time": 324.35824949999466,
                    "velocity": 0.5748031496062992,
                    "duration": 0.179104499999994
                },
                {
                    "name": "F6",
                    "midi": 89,
                    "time": 324.53735399999465,
                    "velocity": 0.8110236220472441,
                    "duration": 0.179104499999994
                },
                {
                    "name": "D#6",
                    "midi": 87,
                    "time": 324.53735399999465,
                    "velocity": 0.5275590551181102,
                    "duration": 0.179104499999994
                },
                {
                    "name": "G#5",
                    "midi": 80,
                    "time": 324.71645849999464,
                    "velocity": 0.31496062992125984,
                    "duration": 0.179104499999994
                },
                {
                    "name": "A#6",
                    "midi": 94,
                    "time": 324.71645849999464,
                    "velocity": 0.5905511811023622,
                    "duration": 0.179104499999994
                },
                {
                    "name": "D#6",
                    "midi": 87,
                    "time": 324.89556299999464,
                    "velocity": 0.5118110236220472,
                    "duration": 0.179104499999994
                },
                {
                    "name": "F6",
                    "midi": 89,
                    "time": 324.89556299999464,
                    "velocity": 0.7637795275590551,
                    "duration": 0.179104499999994
                },
                {
                    "name": "G#5",
                    "midi": 80,
                    "time": 325.07466749999463,
                    "velocity": 0.30708661417322836,
                    "duration": 0.179104499999994
                },
                {
                    "name": "A#6",
                    "midi": 94,
                    "time": 325.07466749999463,
                    "velocity": 0.5748031496062992,
                    "duration": 0.179104499999994
                },
                {
                    "name": "G#7",
                    "midi": 104,
                    "time": 325.2537719999946,
                    "velocity": 0.6692913385826772,
                    "duration": 0.089552249999997
                },
                {
                    "name": "G7",
                    "midi": 103,
                    "time": 325.3433242499946,
                    "velocity": 0.6299212598425197,
                    "duration": 0.089552249999997
                },
                {
                    "name": "F7",
                    "midi": 101,
                    "time": 325.4328764999946,
                    "velocity": 0.6692913385826772,
                    "duration": 0.089552249999997
                },
                {
                    "name": "D#7",
                    "midi": 99,
                    "time": 325.5224287499946,
                    "velocity": 0.6141732283464567,
                    "duration": 0.089552249999997
                },
                {
                    "name": "D7",
                    "midi": 98,
                    "time": 325.6119809999946,
                    "velocity": 0.6535433070866141,
                    "duration": 0.089552249999997
                },
                {
                    "name": "C7",
                    "midi": 96,
                    "time": 325.7015332499946,
                    "velocity": 0.6062992125984252,
                    "duration": 0.089552249999997
                },
                {
                    "name": "A#6",
                    "midi": 94,
                    "time": 325.7910854999946,
                    "velocity": 0.6535433070866141,
                    "duration": 0.089552249999997
                },
                {
                    "name": "G#6",
                    "midi": 92,
                    "time": 325.8806377499946,
                    "velocity": 0.5984251968503937,
                    "duration": 0.089552249999997
                },
                {
                    "name": "G6",
                    "midi": 91,
                    "time": 325.9701899999946,
                    "velocity": 0.6456692913385826,
                    "duration": 0.089552249999997
                },
                {
                    "name": "F6",
                    "midi": 89,
                    "time": 326.0597422499946,
                    "velocity": 0.6220472440944882,
                    "duration": 0.089552249999997
                },
                {
                    "name": "D#6",
                    "midi": 87,
                    "time": 326.1492944999946,
                    "velocity": 0.6377952755905512,
                    "duration": 0.089552249999997
                },
                {
                    "name": "D6",
                    "midi": 86,
                    "time": 326.2388467499946,
                    "velocity": 0.5984251968503937,
                    "duration": 0.089552249999997
                },
                {
                    "name": "C6",
                    "midi": 84,
                    "time": 326.3283989999946,
                    "velocity": 0.6377952755905512,
                    "duration": 0.089552249999997
                },
                {
                    "name": "A#5",
                    "midi": 82,
                    "time": 326.4179512499946,
                    "velocity": 0.5984251968503937,
                    "duration": 0.089552249999997
                },
                {
                    "name": "G#5",
                    "midi": 80,
                    "time": 326.5075034999946,
                    "velocity": 0.6299212598425197,
                    "duration": 0.089552249999997
                },
                {
                    "name": "G5",
                    "midi": 79,
                    "time": 326.5970557499946,
                    "velocity": 0.5905511811023622,
                    "duration": 0.089552249999997
                },
                {
                    "name": "F5",
                    "midi": 77,
                    "time": 326.6866079999946,
                    "velocity": 0.6220472440944882,
                    "duration": 0.089552249999997
                },
                {
                    "name": "D#5",
                    "midi": 75,
                    "time": 326.7761602499946,
                    "velocity": 0.5748031496062992,
                    "duration": 0.089552249999997
                },
                {
                    "name": "D5",
                    "midi": 74,
                    "time": 326.8657124999946,
                    "velocity": 0.6220472440944882,
                    "duration": 0.089552249999997
                },
                {
                    "name": "C5",
                    "midi": 72,
                    "time": 326.95526474999457,
                    "velocity": 0.5905511811023622,
                    "duration": 0.089552249999997
                },
                {
                    "name": "A#4",
                    "midi": 70,
                    "time": 327.04481699999457,
                    "velocity": 0.6220472440944882,
                    "duration": 0.089552249999997
                },
                {
                    "name": "G#4",
                    "midi": 68,
                    "time": 327.13436924999456,
                    "velocity": 0.5748031496062992,
                    "duration": 0.089552249999997
                },
                {
                    "name": "G4",
                    "midi": 67,
                    "time": 327.22392149999456,
                    "velocity": 0.6220472440944882,
                    "duration": 0.089552249999997
                },
                {
                    "name": "F4",
                    "midi": 65,
                    "time": 327.31347374999456,
                    "velocity": 0.5669291338582677,
                    "duration": 0.089552249999997
                },
                {
                    "name": "D#4",
                    "midi": 63,
                    "time": 327.40302599999455,
                    "velocity": 0.6220472440944882,
                    "duration": 0.089552249999997
                },
                {
                    "name": "D4",
                    "midi": 62,
                    "time": 327.49257824999455,
                    "velocity": 0.5748031496062992,
                    "duration": 0.089552249999997
                },
                {
                    "name": "C4",
                    "midi": 60,
                    "time": 327.58213049999455,
                    "velocity": 0.6141732283464567,
                    "duration": 0.089552249999997
                },
                {
                    "name": "A#3",
                    "midi": 58,
                    "time": 327.67168274999455,
                    "velocity": 0.5748031496062992,
                    "duration": 0.089552249999997
                },
                {
                    "name": "G#3",
                    "midi": 56,
                    "time": 327.76123499999454,
                    "velocity": 0.6062992125984252,
                    "duration": 0.089552249999997
                },
                {
                    "name": "G3",
                    "midi": 55,
                    "time": 327.85078724999454,
                    "velocity": 0.5669291338582677,
                    "duration": 0.089552249999997
                },
                {
                    "name": "F3",
                    "midi": 53,
                    "time": 327.94033949999454,
                    "velocity": 0.6220472440944882,
                    "duration": 0.089552249999997
                },
                {
                    "name": "D#3",
                    "midi": 51,
                    "time": 328.02989174999453,
                    "velocity": 0.5748031496062992,
                    "duration": 0.089552249999997
                },
                {
                    "name": "D3",
                    "midi": 50,
                    "time": 328.11944399999453,
                    "velocity": 0.6141732283464567,
                    "duration": 0.089552249999997
                },
                {
                    "name": "C3",
                    "midi": 48,
                    "time": 328.2089962499945,
                    "velocity": 0.5748031496062992,
                    "duration": 0.089552249999997
                },
                {
                    "name": "A#2",
                    "midi": 46,
                    "time": 328.2985484999945,
                    "velocity": 0.6220472440944882,
                    "duration": 0.089552249999997
                },
                {
                    "name": "G#2",
                    "midi": 44,
                    "time": 328.3881007499945,
                    "velocity": 0.5905511811023622,
                    "duration": 0.089552249999997
                },
                {
                    "name": "G2",
                    "midi": 43,
                    "time": 328.4776529999945,
                    "velocity": 0.6299212598425197,
                    "duration": 0.089552249999997
                },
                {
                    "name": "F2",
                    "midi": 41,
                    "time": 328.5672052499945,
                    "velocity": 0.5984251968503937,
                    "duration": 0.089552249999997
                },
                {
                    "name": "D#2",
                    "midi": 39,
                    "time": 328.6567574999945,
                    "velocity": 0.6456692913385826,
                    "duration": 0.089552249999997
                },
                {
                    "name": "D2",
                    "midi": 38,
                    "time": 328.7463097499945,
                    "velocity": 0.5984251968503937,
                    "duration": 0.089552249999997
                },
                {
                    "name": "C2",
                    "midi": 36,
                    "time": 328.8358619999945,
                    "velocity": 0.6535433070866141,
                    "duration": 0.089552249999997
                },
                {
                    "name": "A#1",
                    "midi": 34,
                    "time": 328.9254142499945,
                    "velocity": 0.6141732283464567,
                    "duration": 0.089552249999997
                },
                {
                    "name": "G#1",
                    "midi": 32,
                    "time": 329.0149664999945,
                    "velocity": 0.6692913385826772,
                    "duration": 0.089552249999997
                },
                {
                    "name": "G1",
                    "midi": 31,
                    "time": 329.1045187499945,
                    "velocity": 0.6141732283464567,
                    "duration": 0.089552249999997
                },
                {
                    "name": "F1",
                    "midi": 29,
                    "time": 329.1940709999945,
                    "velocity": 0.6771653543307087,
                    "duration": 0.089552249999997
                },
                {
                    "name": "D#1",
                    "midi": 27,
                    "time": 329.2836232499945,
                    "velocity": 0.6377952755905512,
                    "duration": 0.089552249999997
                },
                {
                    "name": "D1",
                    "midi": 26,
                    "time": 329.3731754999945,
                    "velocity": 0.6850393700787402,
                    "duration": 0.089552249999997
                },
                {
                    "name": "C1",
                    "midi": 24,
                    "time": 329.4627277499945,
                    "velocity": 0.6535433070866141,
                    "duration": 0.268656749999991
                },
                {
                    "name": "D#6",
                    "midi": 87,
                    "time": 329.91048899999447,
                    "velocity": 0.8031496062992126,
                    "duration": 0.23656719374997692
                },
                {
                    "name": "A#5",
                    "midi": 82,
                    "time": 329.91048899999447,
                    "velocity": 0.7874015748031497,
                    "duration": 0.23656719374997692
                },
                {
                    "name": "G5",
                    "midi": 79,
                    "time": 329.91048899999447,
                    "velocity": 0.6692913385826772,
                    "duration": 0.23656719374997692
                },
                {
                    "name": "D#5",
                    "midi": 75,
                    "time": 329.91048899999447,
                    "velocity": 0.6692913385826772,
                    "duration": 0.23656719374997692
                },
                {
                    "name": "D#4",
                    "midi": 63,
                    "time": 330.1492949999944,
                    "velocity": 0.6220472440944882,
                    "duration": 0.23656719374997692
                },
                {
                    "name": "A#3",
                    "midi": 58,
                    "time": 330.1492949999944,
                    "velocity": 0.5196850393700787,
                    "duration": 0.23656719374997692
                },
                {
                    "name": "D#6",
                    "midi": 87,
                    "time": 330.3881009999944,
                    "velocity": 0.7007874015748031,
                    "duration": 0.23656719374997692
                },
                {
                    "name": "A#5",
                    "midi": 82,
                    "time": 330.3881009999944,
                    "velocity": 0.7007874015748031,
                    "duration": 0.23656719374997692
                },
                {
                    "name": "G5",
                    "midi": 79,
                    "time": 330.3881009999944,
                    "velocity": 0.5748031496062992,
                    "duration": 0.23656719374997692
                },
                {
                    "name": "D#5",
                    "midi": 75,
                    "time": 330.3881009999944,
                    "velocity": 0.5748031496062992,
                    "duration": 0.23656719374997692
                },
                {
                    "name": "D#4",
                    "midi": 63,
                    "time": 330.62690699999433,
                    "velocity": 0.5590551181102362,
                    "duration": 0.23656719374997692
                },
                {
                    "name": "A#3",
                    "midi": 58,
                    "time": 330.62690699999433,
                    "velocity": 0.4645669291338583,
                    "duration": 0.23656719374997692
                },
                {
                    "name": "D#6",
                    "midi": 87,
                    "time": 330.8657129999943,
                    "velocity": 0.7086614173228346,
                    "duration": 0.23656719374997692
                },
                {
                    "name": "A#5",
                    "midi": 82,
                    "time": 330.8657129999943,
                    "velocity": 0.7086614173228346,
                    "duration": 0.23656719374997692
                },
                {
                    "name": "G5",
                    "midi": 79,
                    "time": 330.8657129999943,
                    "velocity": 0.5748031496062992,
                    "duration": 0.23656719374997692
                },
                {
                    "name": "D#5",
                    "midi": 75,
                    "time": 330.8657129999943,
                    "velocity": 0.5748031496062992,
                    "duration": 0.23656719374997692
                },
                {
                    "name": "D#4",
                    "midi": 63,
                    "time": 331.10451899999424,
                    "velocity": 0.5511811023622047,
                    "duration": 0.23656719374997692
                },
                {
                    "name": "A#3",
                    "midi": 58,
                    "time": 331.10451899999424,
                    "velocity": 0.44881889763779526,
                    "duration": 0.23656719374997692
                },
                {
                    "name": "F6",
                    "midi": 89,
                    "time": 331.3433249999942,
                    "velocity": 0.7716535433070866,
                    "duration": 0.23656719374997692
                },
                {
                    "name": "D6",
                    "midi": 86,
                    "time": 331.3433249999942,
                    "velocity": 0.7716535433070866,
                    "duration": 0.23656719374997692
                },
                {
                    "name": "A#5",
                    "midi": 82,
                    "time": 331.3433249999942,
                    "velocity": 0.6614173228346457,
                    "duration": 0.23656719374997692
                },
                {
                    "name": "F5",
                    "midi": 77,
                    "time": 331.3433249999942,
                    "velocity": 0.6614173228346457,
                    "duration": 0.23656719374997692
                },
                {
                    "name": "F4",
                    "midi": 65,
                    "time": 331.58213099999415,
                    "velocity": 0.5669291338582677,
                    "duration": 0.23656719374997692
                },
                {
                    "name": "D4",
                    "midi": 62,
                    "time": 331.58213099999415,
                    "velocity": 0.4881889763779528,
                    "duration": 0.23656719374997692
                },
                {
                    "name": "F6",
                    "midi": 89,
                    "time": 331.8209369999941,
                    "velocity": 0.7007874015748031,
                    "duration": 0.23656719374997692
                },
                {
                    "name": "D6",
                    "midi": 86,
                    "time": 331.8209369999941,
                    "velocity": 0.7007874015748031,
                    "duration": 0.23656719374997692
                },
                {
                    "name": "A#5",
                    "midi": 82,
                    "time": 331.8209369999941,
                    "velocity": 0.5669291338582677,
                    "duration": 0.23656719374997692
                },
                {
                    "name": "F5",
                    "midi": 77,
                    "time": 331.8209369999941,
                    "velocity": 0.5669291338582677,
                    "duration": 0.23656719374997692
                },
                {
                    "name": "F4",
                    "midi": 65,
                    "time": 332.05974299999406,
                    "velocity": 0.5590551181102362,
                    "duration": 0.23656719374997692
                },
                {
                    "name": "D4",
                    "midi": 62,
                    "time": 332.05974299999406,
                    "velocity": 0.4645669291338583,
                    "duration": 0.23656719374997692
                },
                {
                    "name": "F6",
                    "midi": 89,
                    "time": 332.298548999994,
                    "velocity": 0.6929133858267716,
                    "duration": 0.23656719374997692
                },
                {
                    "name": "D6",
                    "midi": 86,
                    "time": 332.298548999994,
                    "velocity": 0.6929133858267716,
                    "duration": 0.23656719374997692
                },
                {
                    "name": "A#5",
                    "midi": 82,
                    "time": 332.298548999994,
                    "velocity": 0.5669291338582677,
                    "duration": 0.23656719374997692
                },
                {
                    "name": "F5",
                    "midi": 77,
                    "time": 332.298548999994,
                    "velocity": 0.5669291338582677,
                    "duration": 0.23656719374997692
                },
                {
                    "name": "F4",
                    "midi": 65,
                    "time": 332.53735499999397,
                    "velocity": 0.5511811023622047,
                    "duration": 0.23656719374997692
                },
                {
                    "name": "D4",
                    "midi": 62,
                    "time": 332.53735499999397,
                    "velocity": 0.4566929133858268,
                    "duration": 0.23656719374997692
                },
                {
                    "name": "G6",
                    "midi": 91,
                    "time": 332.7761609999939,
                    "velocity": 0.7795275590551181,
                    "duration": 0.23656719374997692
                },
                {
                    "name": "D#6",
                    "midi": 87,
                    "time": 332.7761609999939,
                    "velocity": 0.7795275590551181,
                    "duration": 0.23656719374997692
                },
                {
                    "name": "A#5",
                    "midi": 82,
                    "time": 332.7761609999939,
                    "velocity": 0.6614173228346457,
                    "duration": 0.23656719374997692
                },
                {
                    "name": "G5",
                    "midi": 79,
                    "time": 332.7761609999939,
                    "velocity": 0.6614173228346457,
                    "duration": 0.23656719374997692
                },
                {
                    "name": "G4",
                    "midi": 67,
                    "time": 333.0149669999939,
                    "velocity": 0.5354330708661418,
                    "duration": 0.23656719374997692
                },
                {
                    "name": "D#5",
                    "midi": 75,
                    "time": 333.0149669999939,
                    "velocity": 0.6299212598425197,
                    "duration": 0.23656719374997692
                },
                {
                    "name": "A#4",
                    "midi": 70,
                    "time": 333.0149669999939,
                    "velocity": 0.6299212598425197,
                    "duration": 0.23656719374997692
                },
                {
                    "name": "G6",
                    "midi": 91,
                    "time": 333.2537729999938,
                    "velocity": 0.7244094488188977,
                    "duration": 0.23656719374997692
                },
                {
                    "name": "D#6",
                    "midi": 87,
                    "time": 333.2537729999938,
                    "velocity": 0.7244094488188977,
                    "duration": 0.23656719374997692
                },
                {
                    "name": "A#5",
                    "midi": 82,
                    "time": 333.2537729999938,
                    "velocity": 0.6062992125984252,
                    "duration": 0.23656719374997692
                },
                {
                    "name": "G5",
                    "midi": 79,
                    "time": 333.2537729999938,
                    "velocity": 0.6062992125984252,
                    "duration": 0.23656719374997692
                },
                {
                    "name": "D#6",
                    "midi": 87,
                    "time": 333.4925789999938,
                    "velocity": 0.7165354330708661,
                    "duration": 0.23656719374997692
                },
                {
                    "name": "C6",
                    "midi": 84,
                    "time": 333.4925789999938,
                    "velocity": 0.7165354330708661,
                    "duration": 0.23656719374997692
                },
                {
                    "name": "G5",
                    "midi": 79,
                    "time": 333.4925789999938,
                    "velocity": 0.5984251968503937,
                    "duration": 0.23656719374997692
                },
                {
                    "name": "D#5",
                    "midi": 75,
                    "time": 333.4925789999938,
                    "velocity": 0.5984251968503937,
                    "duration": 0.23656719374997692
                },
                {
                    "name": "C5",
                    "midi": 72,
                    "time": 333.73138499999374,
                    "velocity": 0.6299212598425197,
                    "duration": 0.23656719374997692
                },
                {
                    "name": "G4",
                    "midi": 67,
                    "time": 333.73138499999374,
                    "velocity": 0.5354330708661418,
                    "duration": 0.23656719374997692
                },
                {
                    "name": "D#4",
                    "midi": 63,
                    "time": 333.73138499999374,
                    "velocity": 0.5354330708661418,
                    "duration": 0.23656719374997692
                },
                {
                    "name": "D#6",
                    "midi": 87,
                    "time": 333.9701909999937,
                    "velocity": 0.6850393700787402,
                    "duration": 0.23656719374997692
                },
                {
                    "name": "C6",
                    "midi": 84,
                    "time": 333.9701909999937,
                    "velocity": 0.5669291338582677,
                    "duration": 0.23656719374997692
                },
                {
                    "name": "G6",
                    "midi": 91,
                    "time": 333.9701909999937,
                    "velocity": 0.6850393700787402,
                    "duration": 0.23656719374997692
                },
                {
                    "name": "G5",
                    "midi": 79,
                    "time": 333.9701909999937,
                    "velocity": 0.5669291338582677,
                    "duration": 0.23656719374997692
                },
                {
                    "name": "F6",
                    "midi": 89,
                    "time": 334.20899699999364,
                    "velocity": 0.6850393700787402,
                    "duration": 0.23656719374997692
                },
                {
                    "name": "D6",
                    "midi": 86,
                    "time": 334.20899699999364,
                    "velocity": 0.6850393700787402,
                    "duration": 0.23656719374997692
                },
                {
                    "name": "A#5",
                    "midi": 82,
                    "time": 334.20899699999364,
                    "velocity": 0.5669291338582677,
                    "duration": 0.23656719374997692
                },
                {
                    "name": "F5",
                    "midi": 77,
                    "time": 334.20899699999364,
                    "velocity": 0.5669291338582677,
                    "duration": 0.23656719374997692
                },
                {
                    "name": "A#3",
                    "midi": 58,
                    "time": 334.4478029999936,
                    "velocity": 0.6220472440944882,
                    "duration": 0.23432838749999974
                },
                {
                    "name": "D4",
                    "midi": 62,
                    "time": 334.4478029999936,
                    "velocity": 0.6220472440944882,
                    "duration": 0.23432838749999974
                },
                {
                    "name": "F4",
                    "midi": 65,
                    "time": 334.6866089999936,
                    "velocity": 0.6377952755905512,
                    "duration": 0.23432838749999974
                },
                {
                    "name": "D4",
                    "midi": 62,
                    "time": 334.6866089999936,
                    "velocity": 0.6377952755905512,
                    "duration": 0.23432838749999974
                },
                {
                    "name": "F4",
                    "midi": 65,
                    "time": 334.9254149999936,
                    "velocity": 0.6535433070866141,
                    "duration": 0.23432838749999974
                },
                {
                    "name": "A#4",
                    "midi": 70,
                    "time": 334.9254149999936,
                    "velocity": 0.6535433070866141,
                    "duration": 0.23432838749999974
                },
                {
                    "name": "D5",
                    "midi": 74,
                    "time": 335.16422099999363,
                    "velocity": 0.6850393700787402,
                    "duration": 0.23432838749999974
                },
                {
                    "name": "A#4",
                    "midi": 70,
                    "time": 335.16422099999363,
                    "velocity": 0.6850393700787402,
                    "duration": 0.23432838749999974
                },
                {
                    "name": "D5",
                    "midi": 74,
                    "time": 335.40302699999364,
                    "velocity": 0.7086614173228346,
                    "duration": 0.23432838749999974
                },
                {
                    "name": "F5",
                    "midi": 77,
                    "time": 335.40302699999364,
                    "velocity": 0.7086614173228346,
                    "duration": 0.23432838749999974
                },
                {
                    "name": "G4",
                    "midi": 67,
                    "time": 335.64183299999365,
                    "velocity": 0.6299212598425197,
                    "duration": 0.35447765625002603
                },
                {
                    "name": "D#5",
                    "midi": 75,
                    "time": 335.64183299999365,
                    "velocity": 0.7480314960629921,
                    "duration": 0.35447765625002603
                },
                {
                    "name": "G5",
                    "midi": 79,
                    "time": 335.64183299999365,
                    "velocity": 0.7480314960629921,
                    "duration": 0.35447765625002603
                },
                {
                    "name": "A#4",
                    "midi": 70,
                    "time": 336.0000419999937,
                    "velocity": 0.5905511811023622,
                    "duration": 0.35447765625002603
                },
                {
                    "name": "D#5",
                    "midi": 75,
                    "time": 336.0000419999937,
                    "velocity": 0.7086614173228346,
                    "duration": 0.35447765625002603
                },
                {
                    "name": "A#5",
                    "midi": 82,
                    "time": 336.0000419999937,
                    "velocity": 0.7086614173228346,
                    "duration": 0.35447765625002603
                },
                {
                    "name": "F4",
                    "midi": 65,
                    "time": 336.35825099999374,
                    "velocity": 0.5748031496062992,
                    "duration": 0.35447765625002603
                },
                {
                    "name": "A#4",
                    "midi": 70,
                    "time": 336.35825099999374,
                    "velocity": 0.7007874015748031,
                    "duration": 0.35447765625002603
                },
                {
                    "name": "F5",
                    "midi": 77,
                    "time": 336.35825099999374,
                    "velocity": 0.7007874015748031,
                    "duration": 0.35447765625002603
                },
                {
                    "name": "D#4",
                    "midi": 63,
                    "time": 336.7164599999938,
                    "velocity": 0.5669291338582677,
                    "duration": 0.35447765625002603
                },
                {
                    "name": "A#4",
                    "midi": 70,
                    "time": 336.7164599999938,
                    "velocity": 0.6692913385826772,
                    "duration": 0.35447765625002603
                },
                {
                    "name": "D#5",
                    "midi": 75,
                    "time": 336.7164599999938,
                    "velocity": 0.6692913385826772,
                    "duration": 0.35447765625002603
                },
                {
                    "name": "D5",
                    "midi": 74,
                    "time": 337.07466899999383,
                    "velocity": 0.6850393700787402,
                    "duration": 0.23656719374997692
                },
                {
                    "name": "A#4",
                    "midi": 70,
                    "time": 337.07466899999383,
                    "velocity": 0.6850393700787402,
                    "duration": 0.23656719374997692
                },
                {
                    "name": "D4",
                    "midi": 62,
                    "time": 337.07466899999383,
                    "velocity": 0.5669291338582677,
                    "duration": 0.23656719374997692
                },
                {
                    "name": "A#3",
                    "midi": 58,
                    "time": 337.3134749999938,
                    "velocity": 0.6220472440944882,
                    "duration": 0.23656719374997692
                },
                {
                    "name": "D4",
                    "midi": 62,
                    "time": 337.3134749999938,
                    "velocity": 0.6220472440944882,
                    "duration": 0.23656719374997692
                },
                {
                    "name": "F4",
                    "midi": 65,
                    "time": 337.55228099999374,
                    "velocity": 0.6377952755905512,
                    "duration": 0.23432838749999974
                },
                {
                    "name": "D4",
                    "midi": 62,
                    "time": 337.55228099999374,
                    "velocity": 0.6377952755905512,
                    "duration": 0.23432838749999974
                },
                {
                    "name": "F4",
                    "midi": 65,
                    "time": 337.79108699999375,
                    "velocity": 0.6535433070866141,
                    "duration": 0.23432838749999974
                },
                {
                    "name": "A#4",
                    "midi": 70,
                    "time": 337.79108699999375,
                    "velocity": 0.6535433070866141,
                    "duration": 0.23432838749999974
                },
                {
                    "name": "D5",
                    "midi": 74,
                    "time": 338.02989299999376,
                    "velocity": 0.6850393700787402,
                    "duration": 0.23432838749999974
                },
                {
                    "name": "A#4",
                    "midi": 70,
                    "time": 338.02989299999376,
                    "velocity": 0.6850393700787402,
                    "duration": 0.23432838749999974
                },
                {
                    "name": "D5",
                    "midi": 74,
                    "time": 338.2686989999938,
                    "velocity": 0.7086614173228346,
                    "duration": 0.23432838749999974
                },
                {
                    "name": "F5",
                    "midi": 77,
                    "time": 338.2686989999938,
                    "velocity": 0.7086614173228346,
                    "duration": 0.23432838749999974
                },
                {
                    "name": "G4",
                    "midi": 67,
                    "time": 338.5075049999938,
                    "velocity": 0.6299212598425197,
                    "duration": 0.35447765625002603
                },
                {
                    "name": "D#5",
                    "midi": 75,
                    "time": 338.5075049999938,
                    "velocity": 0.7480314960629921,
                    "duration": 0.35447765625002603
                },
                {
                    "name": "G5",
                    "midi": 79,
                    "time": 338.5075049999938,
                    "velocity": 0.7480314960629921,
                    "duration": 0.35447765625002603
                },
                {
                    "name": "A#4",
                    "midi": 70,
                    "time": 338.86571399999383,
                    "velocity": 0.5905511811023622,
                    "duration": 0.35447765625002603
                },
                {
                    "name": "D#5",
                    "midi": 75,
                    "time": 338.86571399999383,
                    "velocity": 0.7086614173228346,
                    "duration": 0.35447765625002603
                },
                {
                    "name": "A#5",
                    "midi": 82,
                    "time": 338.86571399999383,
                    "velocity": 0.7086614173228346,
                    "duration": 0.35447765625002603
                },
                {
                    "name": "F4",
                    "midi": 65,
                    "time": 339.2239229999939,
                    "velocity": 0.5748031496062992,
                    "duration": 0.35447765625002603
                },
                {
                    "name": "A#4",
                    "midi": 70,
                    "time": 339.2239229999939,
                    "velocity": 0.7007874015748031,
                    "duration": 0.35447765625002603
                },
                {
                    "name": "F5",
                    "midi": 77,
                    "time": 339.2239229999939,
                    "velocity": 0.7007874015748031,
                    "duration": 0.35447765625002603
                },
                {
                    "name": "D#4",
                    "midi": 63,
                    "time": 339.5821319999939,
                    "velocity": 0.48031496062992124,
                    "duration": 0.35447765625002603
                },
                {
                    "name": "A#4",
                    "midi": 70,
                    "time": 339.5821319999939,
                    "velocity": 0.6692913385826772,
                    "duration": 0.35447765625002603
                },
                {
                    "name": "D#5",
                    "midi": 75,
                    "time": 339.5821319999939,
                    "velocity": 0.6692913385826772,
                    "duration": 0.35447765625002603
                },
                {
                    "name": "D5",
                    "midi": 74,
                    "time": 339.94034099999396,
                    "velocity": 0.6850393700787402,
                    "duration": 0.23656719374997692
                },
                {
                    "name": "A#4",
                    "midi": 70,
                    "time": 339.94034099999396,
                    "velocity": 0.6850393700787402,
                    "duration": 0.23656719374997692
                },
                {
                    "name": "D4",
                    "midi": 62,
                    "time": 339.94034099999396,
                    "velocity": 0.5669291338582677,
                    "duration": 0.23656719374997692
                },
                {
                    "name": "A#3",
                    "midi": 58,
                    "time": 340.1791469999939,
                    "velocity": 0.6220472440944882,
                    "duration": 0.23432838749999974
                },
                {
                    "name": "D4",
                    "midi": 62,
                    "time": 340.1791469999939,
                    "velocity": 0.6220472440944882,
                    "duration": 0.23432838749999974
                },
                {
                    "name": "G4",
                    "midi": 67,
                    "time": 340.41795299999393,
                    "velocity": 0.6377952755905512,
                    "duration": 0.23432838749999974
                },
                {
                    "name": "D4",
                    "midi": 62,
                    "time": 340.41795299999393,
                    "velocity": 0.6377952755905512,
                    "duration": 0.23432838749999974
                },
                {
                    "name": "G#4",
                    "midi": 68,
                    "time": 340.65675899999394,
                    "velocity": 0.6535433070866141,
                    "duration": 0.23432838749999974
                },
                {
                    "name": "F4",
                    "midi": 65,
                    "time": 340.65675899999394,
                    "velocity": 0.5511811023622047,
                    "duration": 0.23432838749999974
                },
                {
                    "name": "A#4",
                    "midi": 70,
                    "time": 340.65675899999394,
                    "velocity": 0.6535433070866141,
                    "duration": 0.23432838749999974
                },
                {
                    "name": "G#4",
                    "midi": 68,
                    "time": 340.89556499999395,
                    "velocity": 0.6535433070866141,
                    "duration": 0.23432838749999974
                },
                {
                    "name": "D5",
                    "midi": 74,
                    "time": 340.89556499999395,
                    "velocity": 0.6850393700787402,
                    "duration": 0.23432838749999974
                },
                {
                    "name": "A#4",
                    "midi": 70,
                    "time": 340.89556499999395,
                    "velocity": 0.6850393700787402,
                    "duration": 0.23432838749999974
                },
                {
                    "name": "A#4",
                    "midi": 70,
                    "time": 341.13437099999396,
                    "velocity": 0.6535433070866141,
                    "duration": 0.23432838749999974
                },
                {
                    "name": "D5",
                    "midi": 74,
                    "time": 341.13437099999396,
                    "velocity": 0.7086614173228346,
                    "duration": 0.23432838749999974
                },
                {
                    "name": "F5",
                    "midi": 77,
                    "time": 341.13437099999396,
                    "velocity": 0.7086614173228346,
                    "duration": 0.23432838749999974
                },
                {
                    "name": "D#6",
                    "midi": 87,
                    "time": 341.373176999994,
                    "velocity": 0.7165354330708661,
                    "duration": 0.23656719374997692
                },
                {
                    "name": "G#5",
                    "midi": 80,
                    "time": 341.373176999994,
                    "velocity": 0.7165354330708661,
                    "duration": 0.23656719374997692
                },
                {
                    "name": "D#5",
                    "midi": 75,
                    "time": 341.373176999994,
                    "velocity": 0.5984251968503937,
                    "duration": 0.23656719374997692
                },
                {
                    "name": "D#4",
                    "midi": 63,
                    "time": 341.6119829999939,
                    "velocity": 0.5669291338582677,
                    "duration": 0.23656719374997692
                },
                {
                    "name": "G#3",
                    "midi": 56,
                    "time": 341.6119829999939,
                    "velocity": 0.5669291338582677,
                    "duration": 0.23656719374997692
                },
                {
                    "name": "D#3",
                    "midi": 51,
                    "time": 341.6119829999939,
                    "velocity": 0.4881889763779528,
                    "duration": 0.23656719374997692
                },
                {
                    "name": "D#6",
                    "midi": 87,
                    "time": 341.8507889999939,
                    "velocity": 0.6771653543307087,
                    "duration": 0.23656719374997692
                },
                {
                    "name": "G#5",
                    "midi": 80,
                    "time": 341.8507889999939,
                    "velocity": 0.6771653543307087,
                    "duration": 0.23656719374997692
                },
                {
                    "name": "D#5",
                    "midi": 75,
                    "time": 341.8507889999939,
                    "velocity": 0.5669291338582677,
                    "duration": 0.23656719374997692
                },
                {
                    "name": "D6",
                    "midi": 86,
                    "time": 342.08959499999384,
                    "velocity": 0.7165354330708661,
                    "duration": 0.35447765625002603
                },
                {
                    "name": "G#5",
                    "midi": 80,
                    "time": 342.08959499999384,
                    "velocity": 0.7165354330708661,
                    "duration": 0.35447765625002603
                },
                {
                    "name": "D5",
                    "midi": 74,
                    "time": 342.08959499999384,
                    "velocity": 0.5984251968503937,
                    "duration": 0.35447765625002603
                },
                {
                    "name": "A#4",
                    "midi": 70,
                    "time": 342.4478039999939,
                    "velocity": 0.5669291338582677,
                    "duration": 0.35447765625002603
                },
                {
                    "name": "D#5",
                    "midi": 75,
                    "time": 342.4478039999939,
                    "velocity": 0.6771653543307087,
                    "duration": 0.35447765625002603
                },
                {
                    "name": "A#5",
                    "midi": 82,
                    "time": 342.4478039999939,
                    "velocity": 0.6771653543307087,
                    "duration": 0.35447765625002603
                },
                {
                    "name": "C6",
                    "midi": 84,
                    "time": 342.8060129999939,
                    "velocity": 0.7086614173228346,
                    "duration": 0.23656719374997692
                },
                {
                    "name": "D#5",
                    "midi": 75,
                    "time": 342.8060129999939,
                    "velocity": 0.7086614173228346,
                    "duration": 0.23656719374997692
                },
                {
                    "name": "C5",
                    "midi": 72,
                    "time": 342.8060129999939,
                    "velocity": 0.5905511811023622,
                    "duration": 0.23656719374997692
                },
                {
                    "name": "D#4",
                    "midi": 63,
                    "time": 343.0448189999939,
                    "velocity": 0.5669291338582677,
                    "duration": 0.23656719374997692
                },
                {
                    "name": "G#3",
                    "midi": 56,
                    "time": 343.0448189999939,
                    "velocity": 0.5669291338582677,
                    "duration": 0.23656719374997692
                },
                {
                    "name": "D#3",
                    "midi": 51,
                    "time": 343.0448189999939,
                    "velocity": 0.4881889763779528,
                    "duration": 0.23656719374997692
                },
                {
                    "name": "C6",
                    "midi": 84,
                    "time": 343.28362499999383,
                    "velocity": 0.6771653543307087,
                    "duration": 0.23656719374997692
                },
                {
                    "name": "D#5",
                    "midi": 75,
                    "time": 343.28362499999383,
                    "velocity": 0.6771653543307087,
                    "duration": 0.23656719374997692
                },
                {
                    "name": "C5",
                    "midi": 72,
                    "time": 343.28362499999383,
                    "velocity": 0.5669291338582677,
                    "duration": 0.23656719374997692
                },
                {
                    "name": "G#5",
                    "midi": 80,
                    "time": 343.5224309999938,
                    "velocity": 0.7086614173228346,
                    "duration": 0.35447765625002603
                },
                {
                    "name": "D#5",
                    "midi": 75,
                    "time": 343.5224309999938,
                    "velocity": 0.7086614173228346,
                    "duration": 0.35447765625002603
                },
                {
                    "name": "G#4",
                    "midi": 68,
                    "time": 343.5224309999938,
                    "velocity": 0.5905511811023622,
                    "duration": 0.35447765625002603
                },
                {
                    "name": "C5",
                    "midi": 72,
                    "time": 343.88063999999383,
                    "velocity": 0.5433070866141733,
                    "duration": 0.35447765625002603
                },
                {
                    "name": "D#5",
                    "midi": 75,
                    "time": 343.88063999999383,
                    "velocity": 0.6456692913385826,
                    "duration": 0.35447765625002603
                },
                {
                    "name": "C6",
                    "midi": 84,
                    "time": 343.88063999999383,
                    "velocity": 0.6456692913385826,
                    "duration": 0.35447765625002603
                },
                {
                    "name": "A#4",
                    "midi": 70,
                    "time": 344.2388489999939,
                    "velocity": 0.5905511811023622,
                    "duration": 0.35447765625002603
                },
                {
                    "name": "D#5",
                    "midi": 75,
                    "time": 344.2388489999939,
                    "velocity": 0.7086614173228346,
                    "duration": 0.35447765625002603
                },
                {
                    "name": "A#5",
                    "midi": 82,
                    "time": 344.2388489999939,
                    "velocity": 0.7086614173228346,
                    "duration": 0.35447765625002603
                },
                {
                    "name": "A#3",
                    "midi": 58,
                    "time": 344.5970579999939,
                    "velocity": 0.5039370078740157,
                    "duration": 0.35447765625002603
                },
                {
                    "name": "D#4",
                    "midi": 63,
                    "time": 344.5970579999939,
                    "velocity": 0.5984251968503937,
                    "duration": 0.35447765625002603
                },
                {
                    "name": "A#4",
                    "midi": 70,
                    "time": 344.5970579999939,
                    "velocity": 0.5984251968503937,
                    "duration": 0.35447765625002603
                },
                {
                    "name": "G#4",
                    "midi": 68,
                    "time": 344.95526699999397,
                    "velocity": 0.5748031496062992,
                    "duration": 0.35447765625002603
                },
                {
                    "name": "A#4",
                    "midi": 70,
                    "time": 344.95526699999397,
                    "velocity": 0.6929133858267716,
                    "duration": 0.35447765625002603
                },
                {
                    "name": "G#5",
                    "midi": 80,
                    "time": 344.95526699999397,
                    "velocity": 0.6929133858267716,
                    "duration": 0.35447765625002603
                },
                {
                    "name": "G4",
                    "midi": 67,
                    "time": 345.313475999994,
                    "velocity": 0.5511811023622047,
                    "duration": 0.35447765625002603
                },
                {
                    "name": "A#4",
                    "midi": 70,
                    "time": 345.313475999994,
                    "velocity": 0.5511811023622047,
                    "duration": 0.35447765625002603
                },
                {
                    "name": "G5",
                    "midi": 79,
                    "time": 345.313475999994,
                    "velocity": 0.6535433070866141,
                    "duration": 0.35447765625002603
                },
                {
                    "name": "F4",
                    "midi": 65,
                    "time": 345.67168499999406,
                    "velocity": 0.3700787401574803,
                    "duration": 0.23656719374997692
                },
                {
                    "name": "C5",
                    "midi": 72,
                    "time": 345.67168499999406,
                    "velocity": 0.3700787401574803,
                    "duration": 0.23656719374997692
                },
                {
                    "name": "D#5",
                    "midi": 75,
                    "time": 345.67168499999406,
                    "velocity": 0.41732283464566927,
                    "duration": 0.23656719374997692
                },
                {
                    "name": "F5",
                    "midi": 77,
                    "time": 345.67168499999406,
                    "velocity": 0.41732283464566927,
                    "duration": 0.23656719374997692
                },
                {
                    "name": "F4",
                    "midi": 65,
                    "time": 345.910490999994,
                    "velocity": 0.3464566929133858,
                    "duration": 0.23656719374997692
                },
                {
                    "name": "C5",
                    "midi": 72,
                    "time": 345.910490999994,
                    "velocity": 0.3464566929133858,
                    "duration": 0.23656719374997692
                },
                {
                    "name": "D#5",
                    "midi": 75,
                    "time": 345.910490999994,
                    "velocity": 0.3858267716535433,
                    "duration": 0.23656719374997692
                },
                {
                    "name": "F5",
                    "midi": 77,
                    "time": 345.910490999994,
                    "velocity": 0.3858267716535433,
                    "duration": 0.23656719374997692
                },
                {
                    "name": "F4",
                    "midi": 65,
                    "time": 346.14929699999396,
                    "velocity": 0.3464566929133858,
                    "duration": 0.23656719374997692
                },
                {
                    "name": "C5",
                    "midi": 72,
                    "time": 346.14929699999396,
                    "velocity": 0.3464566929133858,
                    "duration": 0.23656719374997692
                },
                {
                    "name": "D#5",
                    "midi": 75,
                    "time": 346.14929699999396,
                    "velocity": 0.3858267716535433,
                    "duration": 0.23656719374997692
                },
                {
                    "name": "F5",
                    "midi": 77,
                    "time": 346.14929699999396,
                    "velocity": 0.3858267716535433,
                    "duration": 0.23656719374997692
                },
                {
                    "name": "F4",
                    "midi": 65,
                    "time": 346.3881029999939,
                    "velocity": 0.33858267716535434,
                    "duration": 0.23656719374997692
                },
                {
                    "name": "C5",
                    "midi": 72,
                    "time": 346.3881029999939,
                    "velocity": 0.33858267716535434,
                    "duration": 0.23656719374997692
                },
                {
                    "name": "D#5",
                    "midi": 75,
                    "time": 346.3881029999939,
                    "velocity": 0.3779527559055118,
                    "duration": 0.23656719374997692
                },
                {
                    "name": "F5",
                    "midi": 77,
                    "time": 346.3881029999939,
                    "velocity": 0.3779527559055118,
                    "duration": 0.23656719374997692
                },
                {
                    "name": "F4",
                    "midi": 65,
                    "time": 346.6269089999939,
                    "velocity": 0.33858267716535434,
                    "duration": 0.23656719374997692
                },
                {
                    "name": "C5",
                    "midi": 72,
                    "time": 346.6269089999939,
                    "velocity": 0.33858267716535434,
                    "duration": 0.23656719374997692
                },
                {
                    "name": "D#5",
                    "midi": 75,
                    "time": 346.6269089999939,
                    "velocity": 0.3779527559055118,
                    "duration": 0.23656719374997692
                },
                {
                    "name": "F5",
                    "midi": 77,
                    "time": 346.6269089999939,
                    "velocity": 0.3779527559055118,
                    "duration": 0.23656719374997692
                },
                {
                    "name": "F4",
                    "midi": 65,
                    "time": 346.8657149999938,
                    "velocity": 0.33858267716535434,
                    "duration": 0.23656719374997692
                },
                {
                    "name": "C5",
                    "midi": 72,
                    "time": 346.8657149999938,
                    "velocity": 0.33858267716535434,
                    "duration": 0.23656719374997692
                },
                {
                    "name": "D#5",
                    "midi": 75,
                    "time": 346.8657149999938,
                    "velocity": 0.3779527559055118,
                    "duration": 0.23656719374997692
                },
                {
                    "name": "F5",
                    "midi": 77,
                    "time": 346.8657149999938,
                    "velocity": 0.3779527559055118,
                    "duration": 0.23656719374997692
                },
                {
                    "name": "G4",
                    "midi": 67,
                    "time": 347.1045209999938,
                    "velocity": 0.41732283464566927,
                    "duration": 0.23656719374997692
                },
                {
                    "name": "A#4",
                    "midi": 70,
                    "time": 347.1045209999938,
                    "velocity": 0.41732283464566927,
                    "duration": 0.23656719374997692
                },
                {
                    "name": "D5",
                    "midi": 74,
                    "time": 347.1045209999938,
                    "velocity": 0.41732283464566927,
                    "duration": 0.23656719374997692
                },
                {
                    "name": "G5",
                    "midi": 79,
                    "time": 347.1045209999938,
                    "velocity": 0.47244094488188976,
                    "duration": 0.23656719374997692
                },
                {
                    "name": "G4",
                    "midi": 67,
                    "time": 347.34332699999374,
                    "velocity": 0.3779527559055118,
                    "duration": 0.23656719374997692
                },
                {
                    "name": "A#4",
                    "midi": 70,
                    "time": 347.34332699999374,
                    "velocity": 0.3779527559055118,
                    "duration": 0.23656719374997692
                },
                {
                    "name": "D5",
                    "midi": 74,
                    "time": 347.34332699999374,
                    "velocity": 0.3779527559055118,
                    "duration": 0.23656719374997692
                },
                {
                    "name": "G5",
                    "midi": 79,
                    "time": 347.34332699999374,
                    "velocity": 0.4251968503937008,
                    "duration": 0.23656719374997692
                },
                {
                    "name": "G4",
                    "midi": 67,
                    "time": 347.5821329999937,
                    "velocity": 0.3858267716535433,
                    "duration": 0.23656719374997692
                },
                {
                    "name": "A#4",
                    "midi": 70,
                    "time": 347.5821329999937,
                    "velocity": 0.3858267716535433,
                    "duration": 0.23656719374997692
                },
                {
                    "name": "D5",
                    "midi": 74,
                    "time": 347.5821329999937,
                    "velocity": 0.3858267716535433,
                    "duration": 0.23656719374997692
                },
                {
                    "name": "G5",
                    "midi": 79,
                    "time": 347.5821329999937,
                    "velocity": 0.4251968503937008,
                    "duration": 0.23656719374997692
                },
                {
                    "name": "G4",
                    "midi": 67,
                    "time": 347.82093899999364,
                    "velocity": 0.3858267716535433,
                    "duration": 0.23656719374997692
                },
                {
                    "name": "A#4",
                    "midi": 70,
                    "time": 347.82093899999364,
                    "velocity": 0.3858267716535433,
                    "duration": 0.23656719374997692
                },
                {
                    "name": "D#5",
                    "midi": 75,
                    "time": 347.82093899999364,
                    "velocity": 0.4251968503937008,
                    "duration": 0.23656719374997692
                },
                {
                    "name": "G5",
                    "midi": 79,
                    "time": 347.82093899999364,
                    "velocity": 0.4251968503937008,
                    "duration": 0.23656719374997692
                },
                {
                    "name": "G4",
                    "midi": 67,
                    "time": 348.0597449999936,
                    "velocity": 0.3858267716535433,
                    "duration": 0.23656719374997692
                },
                {
                    "name": "A#4",
                    "midi": 70,
                    "time": 348.0597449999936,
                    "velocity": 0.3858267716535433,
                    "duration": 0.23656719374997692
                },
                {
                    "name": "D#5",
                    "midi": 75,
                    "time": 348.0597449999936,
                    "velocity": 0.4330708661417323,
                    "duration": 0.23656719374997692
                },
                {
                    "name": "G5",
                    "midi": 79,
                    "time": 348.0597449999936,
                    "velocity": 0.4330708661417323,
                    "duration": 0.23656719374997692
                },
                {
                    "name": "G4",
                    "midi": 67,
                    "time": 348.29855099999355,
                    "velocity": 0.3858267716535433,
                    "duration": 0.23656719374997692
                },
                {
                    "name": "A#4",
                    "midi": 70,
                    "time": 348.29855099999355,
                    "velocity": 0.3858267716535433,
                    "duration": 0.23656719374997692
                },
                {
                    "name": "D#5",
                    "midi": 75,
                    "time": 348.29855099999355,
                    "velocity": 0.4330708661417323,
                    "duration": 0.23656719374997692
                },
                {
                    "name": "G5",
                    "midi": 79,
                    "time": 348.29855099999355,
                    "velocity": 0.4330708661417323,
                    "duration": 0.23656719374997692
                },
                {
                    "name": "A#5",
                    "midi": 82,
                    "time": 348.5373569999935,
                    "velocity": 0.48031496062992124,
                    "duration": 0.23656719374997692
                },
                {
                    "name": "A#4",
                    "midi": 70,
                    "time": 348.5373569999935,
                    "velocity": 0.4330708661417323,
                    "duration": 0.23656719374997692
                },
                {
                    "name": "C#5",
                    "midi": 73,
                    "time": 348.5373569999935,
                    "velocity": 0.4330708661417323,
                    "duration": 0.23656719374997692
                },
                {
                    "name": "G5",
                    "midi": 79,
                    "time": 348.5373569999935,
                    "velocity": 0.48031496062992124,
                    "duration": 0.23656719374997692
                },
                {
                    "name": "A#5",
                    "midi": 82,
                    "time": 348.77616299999346,
                    "velocity": 0.4409448818897638,
                    "duration": 0.23656719374997692
                },
                {
                    "name": "A#4",
                    "midi": 70,
                    "time": 348.77616299999346,
                    "velocity": 0.4015748031496063,
                    "duration": 0.23656719374997692
                },
                {
                    "name": "C#5",
                    "midi": 73,
                    "time": 348.77616299999346,
                    "velocity": 0.4015748031496063,
                    "duration": 0.23656719374997692
                },
                {
                    "name": "G5",
                    "midi": 79,
                    "time": 348.77616299999346,
                    "velocity": 0.4409448818897638,
                    "duration": 0.23656719374997692
                },
                {
                    "name": "A#5",
                    "midi": 82,
                    "time": 349.0149689999934,
                    "velocity": 0.44881889763779526,
                    "duration": 0.23656719374997692
                },
                {
                    "name": "A#4",
                    "midi": 70,
                    "time": 349.0149689999934,
                    "velocity": 0.4015748031496063,
                    "duration": 0.23656719374997692
                },
                {
                    "name": "C#5",
                    "midi": 73,
                    "time": 349.0149689999934,
                    "velocity": 0.4015748031496063,
                    "duration": 0.23656719374997692
                },
                {
                    "name": "G5",
                    "midi": 79,
                    "time": 349.0149689999934,
                    "velocity": 0.44881889763779526,
                    "duration": 0.23656719374997692
                },
                {
                    "name": "G#4",
                    "midi": 68,
                    "time": 349.25377499999337,
                    "velocity": 0.4409448818897638,
                    "duration": 0.23656719374997692
                },
                {
                    "name": "B4",
                    "midi": 71,
                    "time": 349.25377499999337,
                    "velocity": 0.4409448818897638,
                    "duration": 0.23656719374997692
                },
                {
                    "name": "D#5",
                    "midi": 75,
                    "time": 349.25377499999337,
                    "velocity": 0.4409448818897638,
                    "duration": 0.23656719374997692
                },
                {
                    "name": "G#5",
                    "midi": 80,
                    "time": 349.25377499999337,
                    "velocity": 0.49606299212598426,
                    "duration": 0.23656719374997692
                },
                {
                    "name": "G#4",
                    "midi": 68,
                    "time": 349.4925809999933,
                    "velocity": 0.4094488188976378,
                    "duration": 0.23656719374997692
                },
                {
                    "name": "B4",
                    "midi": 71,
                    "time": 349.4925809999933,
                    "velocity": 0.4094488188976378,
                    "duration": 0.23656719374997692
                },
                {
                    "name": "D#5",
                    "midi": 75,
                    "time": 349.4925809999933,
                    "velocity": 0.4094488188976378,
                    "duration": 0.23656719374997692
                },
                {
                    "name": "G#5",
                    "midi": 80,
                    "time": 349.4925809999933,
                    "velocity": 0.4566929133858268,
                    "duration": 0.23656719374997692
                },
                {
                    "name": "G#4",
                    "midi": 68,
                    "time": 349.7313869999933,
                    "velocity": 0.4094488188976378,
                    "duration": 0.23656719374997692
                },
                {
                    "name": "B4",
                    "midi": 71,
                    "time": 349.7313869999933,
                    "velocity": 0.4094488188976378,
                    "duration": 0.23656719374997692
                },
                {
                    "name": "D#5",
                    "midi": 75,
                    "time": 349.7313869999933,
                    "velocity": 0.4094488188976378,
                    "duration": 0.23656719374997692
                },
                {
                    "name": "G#5",
                    "midi": 80,
                    "time": 349.7313869999933,
                    "velocity": 0.4645669291338583,
                    "duration": 0.23656719374997692
                },
                {
                    "name": "G#4",
                    "midi": 68,
                    "time": 349.97019299999323,
                    "velocity": 0.4566929133858268,
                    "duration": 0.23656719374997692
                },
                {
                    "name": "D#5",
                    "midi": 75,
                    "time": 349.97019299999323,
                    "velocity": 0.4566929133858268,
                    "duration": 0.23656719374997692
                },
                {
                    "name": "G#5",
                    "midi": 80,
                    "time": 349.97019299999323,
                    "velocity": 0.5275590551181102,
                    "duration": 0.23656719374997692
                },
                {
                    "name": "G#4",
                    "midi": 68,
                    "time": 350.2089989999932,
                    "velocity": 0.4566929133858268,
                    "duration": 0.23656719374997692
                },
                {
                    "name": "D#5",
                    "midi": 75,
                    "time": 350.2089989999932,
                    "velocity": 0.4566929133858268,
                    "duration": 0.23656719374997692
                },
                {
                    "name": "G#5",
                    "midi": 80,
                    "time": 350.2089989999932,
                    "velocity": 0.5275590551181102,
                    "duration": 0.23656719374997692
                },
                {
                    "name": "G#4",
                    "midi": 68,
                    "time": 350.44780499999314,
                    "velocity": 0.4645669291338583,
                    "duration": 0.23656719374997692
                },
                {
                    "name": "D#5",
                    "midi": 75,
                    "time": 350.44780499999314,
                    "velocity": 0.4645669291338583,
                    "duration": 0.23656719374997692
                },
                {
                    "name": "G#5",
                    "midi": 80,
                    "time": 350.44780499999314,
                    "velocity": 0.5275590551181102,
                    "duration": 0.23656719374997692
                },
                {
                    "name": "G#4",
                    "midi": 68,
                    "time": 350.6866109999931,
                    "velocity": 0.4566929133858268,
                    "duration": 0.23656719374997692
                },
                {
                    "name": "D5",
                    "midi": 74,
                    "time": 350.6866109999931,
                    "velocity": 0.4566929133858268,
                    "duration": 0.23656719374997692
                },
                {
                    "name": "G#5",
                    "midi": 80,
                    "time": 350.6866109999931,
                    "velocity": 0.49606299212598426,
                    "duration": 0.23656719374997692
                },
                {
                    "name": "G#4",
                    "midi": 68,
                    "time": 350.92541699999305,
                    "velocity": 0.4566929133858268,
                    "duration": 0.23656719374997692
                },
                {
                    "name": "D5",
                    "midi": 74,
                    "time": 350.92541699999305,
                    "velocity": 0.4566929133858268,
                    "duration": 0.23656719374997692
                },
                {
                    "name": "G#5",
                    "midi": 80,
                    "time": 350.92541699999305,
                    "velocity": 0.5039370078740157,
                    "duration": 0.23656719374997692
                },
                {
                    "name": "G#4",
                    "midi": 68,
                    "time": 351.164222999993,
                    "velocity": 0.4645669291338583,
                    "duration": 0.23656719374997692
                },
                {
                    "name": "D5",
                    "midi": 74,
                    "time": 351.164222999993,
                    "velocity": 0.4645669291338583,
                    "duration": 0.23656719374997692
                },
                {
                    "name": "G#5",
                    "midi": 80,
                    "time": 351.164222999993,
                    "velocity": 0.5039370078740157,
                    "duration": 0.23656719374997692
                },
                {
                    "name": "G#4",
                    "midi": 68,
                    "time": 351.40302899999296,
                    "velocity": 0.5039370078740157,
                    "duration": 0.23656719374997692
                },
                {
                    "name": "C#5",
                    "midi": 73,
                    "time": 351.40302899999296,
                    "velocity": 0.5039370078740157,
                    "duration": 0.23656719374997692
                },
                {
                    "name": "G#5",
                    "midi": 80,
                    "time": 351.40302899999296,
                    "velocity": 0.5039370078740157,
                    "duration": 0.23656719374997692
                },
                {
                    "name": "G#4",
                    "midi": 68,
                    "time": 351.6418349999929,
                    "velocity": 0.5039370078740157,
                    "duration": 0.23656719374997692
                },
                {
                    "name": "C#5",
                    "midi": 73,
                    "time": 351.6418349999929,
                    "velocity": 0.5039370078740157,
                    "duration": 0.23656719374997692
                },
                {
                    "name": "G#5",
                    "midi": 80,
                    "time": 351.6418349999929,
                    "velocity": 0.5039370078740157,
                    "duration": 0.23656719374997692
                },
                {
                    "name": "G#4",
                    "midi": 68,
                    "time": 351.88064099999286,
                    "velocity": 0.48031496062992124,
                    "duration": 0.23656719374997692
                },
                {
                    "name": "C#5",
                    "midi": 73,
                    "time": 351.88064099999286,
                    "velocity": 0.48031496062992124,
                    "duration": 0.23656719374997692
                },
                {
                    "name": "G#5",
                    "midi": 80,
                    "time": 351.88064099999286,
                    "velocity": 0.48031496062992124,
                    "duration": 0.23656719374997692
                },
                {
                    "name": "G4",
                    "midi": 67,
                    "time": 352.1194469999928,
                    "velocity": 0.5433070866141733,
                    "duration": 0.23656719374997692
                },
                {
                    "name": "C#5",
                    "midi": 73,
                    "time": 352.1194469999928,
                    "velocity": 0.5433070866141733,
                    "duration": 0.23656719374997692
                },
                {
                    "name": "G5",
                    "midi": 79,
                    "time": 352.1194469999928,
                    "velocity": 0.5433070866141733,
                    "duration": 0.23656719374997692
                },
                {
                    "name": "G4",
                    "midi": 67,
                    "time": 352.35825299999277,
                    "velocity": 0.5118110236220472,
                    "duration": 0.23656719374997692
                },
                {
                    "name": "C#5",
                    "midi": 73,
                    "time": 352.35825299999277,
                    "velocity": 0.5118110236220472,
                    "duration": 0.23656719374997692
                },
                {
                    "name": "G5",
                    "midi": 79,
                    "time": 352.35825299999277,
                    "velocity": 0.5118110236220472,
                    "duration": 0.23656719374997692
                },
                {
                    "name": "G4",
                    "midi": 67,
                    "time": 352.5970589999927,
                    "velocity": 0.5039370078740157,
                    "duration": 0.23656719374997692
                },
                {
                    "name": "C#5",
                    "midi": 73,
                    "time": 352.5970589999927,
                    "velocity": 0.5039370078740157,
                    "duration": 0.23656719374997692
                },
                {
                    "name": "G5",
                    "midi": 79,
                    "time": 352.5970589999927,
                    "velocity": 0.5039370078740157,
                    "duration": 0.23656719374997692
                },
                {
                    "name": "F#4",
                    "midi": 66,
                    "time": 352.8358649999927,
                    "velocity": 0.5354330708661418,
                    "duration": 0.23656719374997692
                },
                {
                    "name": "C#5",
                    "midi": 73,
                    "time": 352.8358649999927,
                    "velocity": 0.5354330708661418,
                    "duration": 0.23656719374997692
                },
                {
                    "name": "F#5",
                    "midi": 78,
                    "time": 352.8358649999927,
                    "velocity": 0.5984251968503937,
                    "duration": 0.23656719374997692
                },
                {
                    "name": "F#4",
                    "midi": 66,
                    "time": 353.07467099999263,
                    "velocity": 0.48031496062992124,
                    "duration": 0.23656719374997692
                },
                {
                    "name": "C#5",
                    "midi": 73,
                    "time": 353.07467099999263,
                    "velocity": 0.48031496062992124,
                    "duration": 0.23656719374997692
                },
                {
                    "name": "F#5",
                    "midi": 78,
                    "time": 353.07467099999263,
                    "velocity": 0.5354330708661418,
                    "duration": 0.23656719374997692
                },
                {
                    "name": "F#4",
                    "midi": 66,
                    "time": 353.3134769999926,
                    "velocity": 0.4881889763779528,
                    "duration": 0.23656719374997692
                },
                {
                    "name": "C#5",
                    "midi": 73,
                    "time": 353.3134769999926,
                    "velocity": 0.4881889763779528,
                    "duration": 0.23656719374997692
                },
                {
                    "name": "F#5",
                    "midi": 78,
                    "time": 353.3134769999926,
                    "velocity": 0.5433070866141733,
                    "duration": 0.23656719374997692
                },
                {
                    "name": "F4",
                    "midi": 65,
                    "time": 353.55228299999254,
                    "velocity": 0.5511811023622047,
                    "duration": 0.23656719374997692
                },
                {
                    "name": "C5",
                    "midi": 72,
                    "time": 353.55228299999254,
                    "velocity": 0.6299212598425197,
                    "duration": 0.23656719374997692
                },
                {
                    "name": "F5",
                    "midi": 77,
                    "time": 353.55228299999254,
                    "velocity": 0.6299212598425197,
                    "duration": 0.23656719374997692
                },
                {
                    "name": "F4",
                    "midi": 65,
                    "time": 353.7910889999925,
                    "velocity": 0.5118110236220472,
                    "duration": 0.23656719374997692
                },
                {
                    "name": "C5",
                    "midi": 72,
                    "time": 353.7910889999925,
                    "velocity": 0.5748031496062992,
                    "duration": 0.23656719374997692
                },
                {
                    "name": "F5",
                    "midi": 77,
                    "time": 353.7910889999925,
                    "velocity": 0.5748031496062992,
                    "duration": 0.23656719374997692
                },
                {
                    "name": "F4",
                    "midi": 65,
                    "time": 354.02989499999245,
                    "velocity": 0.5196850393700787,
                    "duration": 0.23656719374997692
                },
                {
                    "name": "D#5",
                    "midi": 75,
                    "time": 354.02989499999245,
                    "velocity": 0.5826771653543307,
                    "duration": 0.23656719374997692
                },
                {
                    "name": "F5",
                    "midi": 77,
                    "time": 354.02989499999245,
                    "velocity": 0.5826771653543307,
                    "duration": 0.23656719374997692
                },
                {
                    "name": "F6",
                    "midi": 89,
                    "time": 354.2687009999924,
                    "velocity": 0.6535433070866141,
                    "duration": 0.23656719374997692
                },
                {
                    "name": "D#6",
                    "midi": 87,
                    "time": 354.2687009999924,
                    "velocity": 0.6535433070866141,
                    "duration": 0.23656719374997692
                },
                {
                    "name": "A#5",
                    "midi": 82,
                    "time": 354.2687009999924,
                    "velocity": 0.5748031496062992,
                    "duration": 0.23656719374997692
                },
                {
                    "name": "F5",
                    "midi": 77,
                    "time": 354.2687009999924,
                    "velocity": 0.5748031496062992,
                    "duration": 0.23656719374997692
                },
                {
                    "name": "F5",
                    "midi": 77,
                    "time": 354.50750699999236,
                    "velocity": 0.5669291338582677,
                    "duration": 0.23656719374997692
                },
                {
                    "name": "D#5",
                    "midi": 75,
                    "time": 354.50750699999236,
                    "velocity": 0.5669291338582677,
                    "duration": 0.23656719374997692
                },
                {
                    "name": "A#4",
                    "midi": 70,
                    "time": 354.50750699999236,
                    "velocity": 0.5118110236220472,
                    "duration": 0.23656719374997692
                },
                {
                    "name": "F4",
                    "midi": 65,
                    "time": 354.50750699999236,
                    "velocity": 0.5118110236220472,
                    "duration": 0.23656719374997692
                },
                {
                    "name": "F6",
                    "midi": 89,
                    "time": 354.7463129999923,
                    "velocity": 0.6062992125984252,
                    "duration": 0.23656719374997692
                },
                {
                    "name": "D#6",
                    "midi": 87,
                    "time": 354.7463129999923,
                    "velocity": 0.6062992125984252,
                    "duration": 0.23656719374997692
                },
                {
                    "name": "A#5",
                    "midi": 82,
                    "time": 354.7463129999923,
                    "velocity": 0.5433070866141733,
                    "duration": 0.23656719374997692
                },
                {
                    "name": "F5",
                    "midi": 77,
                    "time": 354.7463129999923,
                    "velocity": 0.5433070866141733,
                    "duration": 0.23656719374997692
                },
                {
                    "name": "F4",
                    "midi": 65,
                    "time": 354.98511899999227,
                    "velocity": 0.5118110236220472,
                    "duration": 0.23656719374997692
                },
                {
                    "name": "G#4",
                    "midi": 68,
                    "time": 354.98511899999227,
                    "velocity": 0.5118110236220472,
                    "duration": 0.23656719374997692
                },
                {
                    "name": "D#5",
                    "midi": 75,
                    "time": 354.98511899999227,
                    "velocity": 0.5669291338582677,
                    "duration": 0.23656719374997692
                },
                {
                    "name": "F5",
                    "midi": 77,
                    "time": 354.98511899999227,
                    "velocity": 0.5669291338582677,
                    "duration": 0.23656719374997692
                },
                {
                    "name": "F5",
                    "midi": 77,
                    "time": 355.2239249999922,
                    "velocity": 0.5433070866141733,
                    "duration": 0.23656719374997692
                },
                {
                    "name": "G#5",
                    "midi": 80,
                    "time": 355.2239249999922,
                    "velocity": 0.5433070866141733,
                    "duration": 0.23656719374997692
                },
                {
                    "name": "D#6",
                    "midi": 87,
                    "time": 355.2239249999922,
                    "velocity": 0.6062992125984252,
                    "duration": 0.23656719374997692
                },
                {
                    "name": "F6",
                    "midi": 89,
                    "time": 355.2239249999922,
                    "velocity": 0.6062992125984252,
                    "duration": 0.23656719374997692
                },
                {
                    "name": "F4",
                    "midi": 65,
                    "time": 355.4627309999922,
                    "velocity": 0.5118110236220472,
                    "duration": 0.23656719374997692
                },
                {
                    "name": "G#4",
                    "midi": 68,
                    "time": 355.4627309999922,
                    "velocity": 0.5118110236220472,
                    "duration": 0.23656719374997692
                },
                {
                    "name": "D#5",
                    "midi": 75,
                    "time": 355.4627309999922,
                    "velocity": 0.5669291338582677,
                    "duration": 0.23656719374997692
                },
                {
                    "name": "F5",
                    "midi": 77,
                    "time": 355.4627309999922,
                    "velocity": 0.5669291338582677,
                    "duration": 0.23656719374997692
                },
                {
                    "name": "F6",
                    "midi": 89,
                    "time": 355.70153699999213,
                    "velocity": 0.6535433070866141,
                    "duration": 0.23656719374997692
                },
                {
                    "name": "D#6",
                    "midi": 87,
                    "time": 355.70153699999213,
                    "velocity": 0.6535433070866141,
                    "duration": 0.23656719374997692
                },
                {
                    "name": "A#5",
                    "midi": 82,
                    "time": 355.70153699999213,
                    "velocity": 0.5748031496062992,
                    "duration": 0.23656719374997692
                },
                {
                    "name": "F5",
                    "midi": 77,
                    "time": 355.70153699999213,
                    "velocity": 0.5748031496062992,
                    "duration": 0.23656719374997692
                },
                {
                    "name": "F5",
                    "midi": 77,
                    "time": 355.9403429999921,
                    "velocity": 0.5669291338582677,
                    "duration": 0.23656719374997692
                },
                {
                    "name": "D#5",
                    "midi": 75,
                    "time": 355.9403429999921,
                    "velocity": 0.5669291338582677,
                    "duration": 0.23656719374997692
                },
                {
                    "name": "A#4",
                    "midi": 70,
                    "time": 355.9403429999921,
                    "velocity": 0.5118110236220472,
                    "duration": 0.23656719374997692
                },
                {
                    "name": "F4",
                    "midi": 65,
                    "time": 355.9403429999921,
                    "velocity": 0.5118110236220472,
                    "duration": 0.23656719374997692
                },
                {
                    "name": "F6",
                    "midi": 89,
                    "time": 356.17914899999204,
                    "velocity": 0.6062992125984252,
                    "duration": 0.23656719374997692
                },
                {
                    "name": "D#6",
                    "midi": 87,
                    "time": 356.17914899999204,
                    "velocity": 0.6062992125984252,
                    "duration": 0.23656719374997692
                },
                {
                    "name": "A#5",
                    "midi": 82,
                    "time": 356.17914899999204,
                    "velocity": 0.5433070866141733,
                    "duration": 0.23656719374997692
                },
                {
                    "name": "F5",
                    "midi": 77,
                    "time": 356.17914899999204,
                    "velocity": 0.5433070866141733,
                    "duration": 0.23656719374997692
                },
                {
                    "name": "F4",
                    "midi": 65,
                    "time": 356.417954999992,
                    "velocity": 0.5118110236220472,
                    "duration": 0.23656719374997692
                },
                {
                    "name": "B4",
                    "midi": 71,
                    "time": 356.417954999992,
                    "velocity": 0.5118110236220472,
                    "duration": 0.23656719374997692
                },
                {
                    "name": "D#5",
                    "midi": 75,
                    "time": 356.417954999992,
                    "velocity": 0.5669291338582677,
                    "duration": 0.23656719374997692
                },
                {
                    "name": "F5",
                    "midi": 77,
                    "time": 356.417954999992,
                    "velocity": 0.5669291338582677,
                    "duration": 0.23656719374997692
                },
                {
                    "name": "F5",
                    "midi": 77,
                    "time": 356.65676099999195,
                    "velocity": 0.5433070866141733,
                    "duration": 0.23656719374997692
                },
                {
                    "name": "B5",
                    "midi": 83,
                    "time": 356.65676099999195,
                    "velocity": 0.5433070866141733,
                    "duration": 0.23656719374997692
                },
                {
                    "name": "D#6",
                    "midi": 87,
                    "time": 356.65676099999195,
                    "velocity": 0.6062992125984252,
                    "duration": 0.23656719374997692
                },
                {
                    "name": "F6",
                    "midi": 89,
                    "time": 356.65676099999195,
                    "velocity": 0.6062992125984252,
                    "duration": 0.23656719374997692
                },
                {
                    "name": "F4",
                    "midi": 65,
                    "time": 356.8955669999919,
                    "velocity": 0.5118110236220472,
                    "duration": 0.23656719374997692
                },
                {
                    "name": "B4",
                    "midi": 71,
                    "time": 356.8955669999919,
                    "velocity": 0.5118110236220472,
                    "duration": 0.23656719374997692
                },
                {
                    "name": "D#5",
                    "midi": 75,
                    "time": 356.8955669999919,
                    "velocity": 0.5669291338582677,
                    "duration": 0.23656719374997692
                },
                {
                    "name": "F5",
                    "midi": 77,
                    "time": 356.8955669999919,
                    "velocity": 0.5669291338582677,
                    "duration": 0.23656719374997692
                },
                {
                    "name": "F6",
                    "midi": 89,
                    "time": 357.13437299999185,
                    "velocity": 0.6535433070866141,
                    "duration": 0.23656719374997692
                },
                {
                    "name": "D#6",
                    "midi": 87,
                    "time": 357.13437299999185,
                    "velocity": 0.6535433070866141,
                    "duration": 0.23656719374997692
                },
                {
                    "name": "A#5",
                    "midi": 82,
                    "time": 357.13437299999185,
                    "velocity": 0.5748031496062992,
                    "duration": 0.23656719374997692
                },
                {
                    "name": "F5",
                    "midi": 77,
                    "time": 357.13437299999185,
                    "velocity": 0.5748031496062992,
                    "duration": 0.23656719374997692
                },
                {
                    "name": "F5",
                    "midi": 77,
                    "time": 357.3731789999918,
                    "velocity": 0.5669291338582677,
                    "duration": 0.23656719374997692
                },
                {
                    "name": "D#5",
                    "midi": 75,
                    "time": 357.3731789999918,
                    "velocity": 0.5669291338582677,
                    "duration": 0.23656719374997692
                },
                {
                    "name": "A#4",
                    "midi": 70,
                    "time": 357.3731789999918,
                    "velocity": 0.5118110236220472,
                    "duration": 0.23656719374997692
                },
                {
                    "name": "F4",
                    "midi": 65,
                    "time": 357.3731789999918,
                    "velocity": 0.5118110236220472,
                    "duration": 0.23656719374997692
                },
                {
                    "name": "F6",
                    "midi": 89,
                    "time": 357.61198499999176,
                    "velocity": 0.6062992125984252,
                    "duration": 0.23656719374997692
                },
                {
                    "name": "D#6",
                    "midi": 87,
                    "time": 357.61198499999176,
                    "velocity": 0.6062992125984252,
                    "duration": 0.23656719374997692
                },
                {
                    "name": "A#5",
                    "midi": 82,
                    "time": 357.61198499999176,
                    "velocity": 0.5433070866141733,
                    "duration": 0.23656719374997692
                },
                {
                    "name": "F5",
                    "midi": 77,
                    "time": 357.61198499999176,
                    "velocity": 0.5433070866141733,
                    "duration": 0.23656719374997692
                },
                {
                    "name": "F4",
                    "midi": 65,
                    "time": 357.8507909999917,
                    "velocity": 0.5275590551181102,
                    "duration": 0.23656719374997692
                },
                {
                    "name": "A4",
                    "midi": 69,
                    "time": 357.8507909999917,
                    "velocity": 0.5275590551181102,
                    "duration": 0.23656719374997692
                },
                {
                    "name": "D#5",
                    "midi": 75,
                    "time": 357.8507909999917,
                    "velocity": 0.5748031496062992,
                    "duration": 0.23656719374997692
                },
                {
                    "name": "F5",
                    "midi": 77,
                    "time": 357.8507909999917,
                    "velocity": 0.5748031496062992,
                    "duration": 0.23656719374997692
                },
                {
                    "name": "F5",
                    "midi": 77,
                    "time": 358.08959699999167,
                    "velocity": 0.5669291338582677,
                    "duration": 0.23656719374997692
                },
                {
                    "name": "A5",
                    "midi": 81,
                    "time": 358.08959699999167,
                    "velocity": 0.5669291338582677,
                    "duration": 0.23656719374997692
                },
                {
                    "name": "D#6",
                    "midi": 87,
                    "time": 358.08959699999167,
                    "velocity": 0.6456692913385826,
                    "duration": 0.23656719374997692
                },
                {
                    "name": "F6",
                    "midi": 89,
                    "time": 358.08959699999167,
                    "velocity": 0.6456692913385826,
                    "duration": 0.23656719374997692
                },
                {
                    "name": "F4",
                    "midi": 65,
                    "time": 358.3284029999916,
                    "velocity": 0.5433070866141733,
                    "duration": 0.23656719374997692
                },
                {
                    "name": "A4",
                    "midi": 69,
                    "time": 358.3284029999916,
                    "velocity": 0.5433070866141733,
                    "duration": 0.23656719374997692
                },
                {
                    "name": "D#5",
                    "midi": 75,
                    "time": 358.3284029999916,
                    "velocity": 0.5984251968503937,
                    "duration": 0.23656719374997692
                },
                {
                    "name": "F5",
                    "midi": 77,
                    "time": 358.3284029999916,
                    "velocity": 0.5984251968503937,
                    "duration": 0.23656719374997692
                },
                {
                    "name": "F6",
                    "midi": 89,
                    "time": 358.5672089999916,
                    "velocity": 0.7086614173228346,
                    "duration": 0.23656719374997692
                },
                {
                    "name": "D#6",
                    "midi": 87,
                    "time": 358.5672089999916,
                    "velocity": 0.7086614173228346,
                    "duration": 0.23656719374997692
                },
                {
                    "name": "A#5",
                    "midi": 82,
                    "time": 358.5672089999916,
                    "velocity": 0.6299212598425197,
                    "duration": 0.23656719374997692
                },
                {
                    "name": "F5",
                    "midi": 77,
                    "time": 358.5672089999916,
                    "velocity": 0.6299212598425197,
                    "duration": 0.23656719374997692
                },
                {
                    "name": "F5",
                    "midi": 77,
                    "time": 358.80601499999153,
                    "velocity": 0.6299212598425197,
                    "duration": 0.23656719374997692
                },
                {
                    "name": "D#5",
                    "midi": 75,
                    "time": 358.80601499999153,
                    "velocity": 0.6299212598425197,
                    "duration": 0.23656719374997692
                },
                {
                    "name": "A#4",
                    "midi": 70,
                    "time": 358.80601499999153,
                    "velocity": 0.5511811023622047,
                    "duration": 0.23656719374997692
                },
                {
                    "name": "F4",
                    "midi": 65,
                    "time": 358.80601499999153,
                    "velocity": 0.5511811023622047,
                    "duration": 0.23656719374997692
                },
                {
                    "name": "F6",
                    "midi": 89,
                    "time": 359.0448209999915,
                    "velocity": 0.6771653543307087,
                    "duration": 0.23656719374997692
                },
                {
                    "name": "D#6",
                    "midi": 87,
                    "time": 359.0448209999915,
                    "velocity": 0.6771653543307087,
                    "duration": 0.23656719374997692
                },
                {
                    "name": "A#5",
                    "midi": 82,
                    "time": 359.0448209999915,
                    "velocity": 0.6062992125984252,
                    "duration": 0.23656719374997692
                },
                {
                    "name": "F5",
                    "midi": 77,
                    "time": 359.0448209999915,
                    "velocity": 0.6062992125984252,
                    "duration": 0.23656719374997692
                },
                {
                    "name": "F4",
                    "midi": 65,
                    "time": 359.28362699999144,
                    "velocity": 0.5669291338582677,
                    "duration": 0.23656719374997692
                },
                {
                    "name": "C5",
                    "midi": 72,
                    "time": 359.28362699999144,
                    "velocity": 0.5669291338582677,
                    "duration": 0.23656719374997692
                },
                {
                    "name": "D#5",
                    "midi": 75,
                    "time": 359.28362699999144,
                    "velocity": 0.6456692913385826,
                    "duration": 0.23656719374997692
                },
                {
                    "name": "F5",
                    "midi": 77,
                    "time": 359.28362699999144,
                    "velocity": 0.6456692913385826,
                    "duration": 0.23656719374997692
                },
                {
                    "name": "F5",
                    "midi": 77,
                    "time": 359.5224329999914,
                    "velocity": 0.6299212598425197,
                    "duration": 0.23656719374997692
                },
                {
                    "name": "C6",
                    "midi": 84,
                    "time": 359.5224329999914,
                    "velocity": 0.6299212598425197,
                    "duration": 0.23656719374997692
                },
                {
                    "name": "D#6",
                    "midi": 87,
                    "time": 359.5224329999914,
                    "velocity": 0.7007874015748031,
                    "duration": 0.23656719374997692
                },
                {
                    "name": "F6",
                    "midi": 89,
                    "time": 359.5224329999914,
                    "velocity": 0.7007874015748031,
                    "duration": 0.23656719374997692
                },
                {
                    "name": "F4",
                    "midi": 65,
                    "time": 359.76123899999135,
                    "velocity": 0.5905511811023622,
                    "duration": 0.23656719374997692
                },
                {
                    "name": "C5",
                    "midi": 72,
                    "time": 359.76123899999135,
                    "velocity": 0.5905511811023622,
                    "duration": 0.23656719374997692
                },
                {
                    "name": "D#5",
                    "midi": 75,
                    "time": 359.76123899999135,
                    "velocity": 0.6614173228346457,
                    "duration": 0.23656719374997692
                },
                {
                    "name": "F5",
                    "midi": 77,
                    "time": 359.76123899999135,
                    "velocity": 0.6614173228346457,
                    "duration": 0.23656719374997692
                },
                {
                    "name": "G6",
                    "midi": 91,
                    "time": 360.0000449999913,
                    "velocity": 0.8346456692913385,
                    "duration": 0.4776120000000219
                },
                {
                    "name": "D#6",
                    "midi": 87,
                    "time": 360.0000449999913,
                    "velocity": 0.8346456692913385,
                    "duration": 0.4776120000000219
                },
                {
                    "name": "G5",
                    "midi": 79,
                    "time": 360.0000449999913,
                    "velocity": 0.7480314960629921,
                    "duration": 0.4776120000000219
                },
                {
                    "name": "G5",
                    "midi": 79,
                    "time": 360.4776569999913,
                    "velocity": 0.7637795275590551,
                    "duration": 0.4776120000000219
                },
                {
                    "name": "D#5",
                    "midi": 75,
                    "time": 360.4776569999913,
                    "velocity": 0.7637795275590551,
                    "duration": 0.4776120000000219
                },
                {
                    "name": "G4",
                    "midi": 67,
                    "time": 360.4776569999913,
                    "velocity": 0.6850393700787402,
                    "duration": 0.4776120000000219
                },
                {
                    "name": "G3",
                    "midi": 55,
                    "time": 360.95526899999135,
                    "velocity": 0.6299212598425197,
                    "duration": 0.4776120000000219
                },
                {
                    "name": "D#4",
                    "midi": 63,
                    "time": 360.95526899999135,
                    "velocity": 0.7086614173228346,
                    "duration": 0.4776120000000219
                },
                {
                    "name": "G4",
                    "midi": 67,
                    "time": 360.95526899999135,
                    "velocity": 0.7086614173228346,
                    "duration": 0.4776120000000219
                },
                {
                    "name": "B3",
                    "midi": 59,
                    "time": 361.43288099999137,
                    "velocity": 0.6377952755905512,
                    "duration": 0.358208999999988
                },
                {
                    "name": "D#4",
                    "midi": 63,
                    "time": 361.43288099999137,
                    "velocity": 0.6377952755905512,
                    "duration": 0.358208999999988
                },
                {
                    "name": "F#4",
                    "midi": 66,
                    "time": 361.43288099999137,
                    "velocity": 0.6929133858267716,
                    "duration": 0.358208999999988
                },
                {
                    "name": "B4",
                    "midi": 71,
                    "time": 361.43288099999137,
                    "velocity": 0.6929133858267716,
                    "duration": 0.358208999999988
                },
                {
                    "name": "C#4",
                    "midi": 61,
                    "time": 361.79108999999136,
                    "velocity": 0.5905511811023622,
                    "duration": 0.358208999999988
                },
                {
                    "name": "F#4",
                    "midi": 66,
                    "time": 361.79108999999136,
                    "velocity": 0.5905511811023622,
                    "duration": 0.358208999999988
                },
                {
                    "name": "A#4",
                    "midi": 70,
                    "time": 361.79108999999136,
                    "velocity": 0.6692913385826772,
                    "duration": 0.358208999999988
                },
                {
                    "name": "C#5",
                    "midi": 73,
                    "time": 361.79108999999136,
                    "velocity": 0.6692913385826772,
                    "duration": 0.358208999999988
                },
                {
                    "name": "G6",
                    "midi": 91,
                    "time": 362.14929899999134,
                    "velocity": 0.8346456692913385,
                    "duration": 0.4776120000000219
                },
                {
                    "name": "D#6",
                    "midi": 87,
                    "time": 362.14929899999134,
                    "velocity": 0.8346456692913385,
                    "duration": 0.4776120000000219
                },
                {
                    "name": "G5",
                    "midi": 79,
                    "time": 362.14929899999134,
                    "velocity": 0.7480314960629921,
                    "duration": 0.4776120000000219
                },
                {
                    "name": "G5",
                    "midi": 79,
                    "time": 362.62691099999137,
                    "velocity": 0.7637795275590551,
                    "duration": 0.4776120000000219
                },
                {
                    "name": "D#5",
                    "midi": 75,
                    "time": 362.62691099999137,
                    "velocity": 0.7637795275590551,
                    "duration": 0.4776120000000219
                },
                {
                    "name": "G4",
                    "midi": 67,
                    "time": 362.62691099999137,
                    "velocity": 0.6850393700787402,
                    "duration": 0.4776120000000219
                },
                {
                    "name": "G3",
                    "midi": 55,
                    "time": 363.1045229999914,
                    "velocity": 0.6299212598425197,
                    "duration": 0.4776120000000219
                },
                {
                    "name": "D#4",
                    "midi": 63,
                    "time": 363.1045229999914,
                    "velocity": 0.7086614173228346,
                    "duration": 0.4776120000000219
                },
                {
                    "name": "G4",
                    "midi": 67,
                    "time": 363.1045229999914,
                    "velocity": 0.7086614173228346,
                    "duration": 0.4776120000000219
                },
                {
                    "name": "C4",
                    "midi": 60,
                    "time": 363.5821349999914,
                    "velocity": 0.6377952755905512,
                    "duration": 0.358208999999988
                },
                {
                    "name": "D#4",
                    "midi": 63,
                    "time": 363.5821349999914,
                    "velocity": 0.6377952755905512,
                    "duration": 0.358208999999988
                },
                {
                    "name": "G4",
                    "midi": 67,
                    "time": 363.5821349999914,
                    "velocity": 0.6929133858267716,
                    "duration": 0.358208999999988
                },
                {
                    "name": "C5",
                    "midi": 72,
                    "time": 363.5821349999914,
                    "velocity": 0.6929133858267716,
                    "duration": 0.358208999999988
                },
                {
                    "name": "D4",
                    "midi": 62,
                    "time": 363.9403439999914,
                    "velocity": 0.5905511811023622,
                    "duration": 0.358208999999988
                },
                {
                    "name": "F4",
                    "midi": 65,
                    "time": 363.9403439999914,
                    "velocity": 0.5905511811023622,
                    "duration": 0.358208999999988
                },
                {
                    "name": "A#4",
                    "midi": 70,
                    "time": 363.9403439999914,
                    "velocity": 0.6692913385826772,
                    "duration": 0.358208999999988
                },
                {
                    "name": "D5",
                    "midi": 74,
                    "time": 363.9403439999914,
                    "velocity": 0.6692913385826772,
                    "duration": 0.358208999999988
                },
                {
                    "name": "D#3",
                    "midi": 51,
                    "time": 364.2985529999914,
                    "velocity": 0.8267716535433071,
                    "duration": 1.3432837500000119
                },
                {
                    "name": "D#4",
                    "midi": 63,
                    "time": 364.3881052499914,
                    "velocity": 0.6535433070866141,
                    "duration": 1.2537315000000149
                },
                {
                    "name": "G4",
                    "midi": 67,
                    "time": 364.3881052499914,
                    "velocity": 0.6535433070866141,
                    "duration": 1.2537315000000149
                },
                {
                    "name": "A#4",
                    "midi": 70,
                    "time": 364.3881052499914,
                    "velocity": 0.7795275590551181,
                    "duration": 1.2537315000000149
                },
                {
                    "name": "D#5",
                    "midi": 75,
                    "time": 364.3881052499914,
                    "velocity": 0.7795275590551181,
                    "duration": 1.2537315000000149
                },
                {
                    "name": "D#3",
                    "midi": 51,
                    "time": 365.6418367499914,
                    "velocity": 0.7480314960629921,
                    "duration": 1.4328360000000089
                },
                {
                    "name": "F4",
                    "midi": 65,
                    "time": 365.7313889999914,
                    "velocity": 0.6062992125984252,
                    "duration": 1.3432837500000119
                },
                {
                    "name": "A#4",
                    "midi": 70,
                    "time": 365.7313889999914,
                    "velocity": 0.6062992125984252,
                    "duration": 1.3432837500000119
                },
                {
                    "name": "D5",
                    "midi": 74,
                    "time": 365.7313889999914,
                    "velocity": 0.7244094488188977,
                    "duration": 1.3432837500000119
                },
                {
                    "name": "F5",
                    "midi": 77,
                    "time": 365.7313889999914,
                    "velocity": 0.7244094488188977,
                    "duration": 1.3432837500000119
                },
                {
                    "name": "D#3",
                    "midi": 51,
                    "time": 367.0746727499914,
                    "velocity": 0.7480314960629921,
                    "duration": 1.5223882500000059
                },
                {
                    "name": "G4",
                    "midi": 67,
                    "time": 367.1642249999914,
                    "velocity": 0.6535433070866141,
                    "duration": 1.4328360000000089
                },
                {
                    "name": "A#4",
                    "midi": 70,
                    "time": 367.1642249999914,
                    "velocity": 0.6535433070866141,
                    "duration": 1.4328360000000089
                },
                {
                    "name": "D#5",
                    "midi": 75,
                    "time": 367.1642249999914,
                    "velocity": 0.7795275590551181,
                    "duration": 1.4328360000000089
                },
                {
                    "name": "G5",
                    "midi": 79,
                    "time": 367.1642249999914,
                    "velocity": 0.7795275590551181,
                    "duration": 1.4328360000000089
                },
                {
                    "name": "D#4",
                    "midi": 63,
                    "time": 368.5970609999914,
                    "velocity": 0.6220472440944882,
                    "duration": 0.716417999999976
                },
                {
                    "name": "G4",
                    "midi": 67,
                    "time": 368.5970609999914,
                    "velocity": 0.6220472440944882,
                    "duration": 0.716417999999976
                },
                {
                    "name": "C5",
                    "midi": 72,
                    "time": 368.5970609999914,
                    "velocity": 0.7401574803149606,
                    "duration": 0.716417999999976
                },
                {
                    "name": "D#5",
                    "midi": 75,
                    "time": 368.5970609999914,
                    "velocity": 0.7401574803149606,
                    "duration": 0.716417999999976
                },
                {
                    "name": "C5",
                    "midi": 72,
                    "time": 369.3134789999914,
                    "velocity": 0.5669291338582677,
                    "duration": 0.716417999999976
                },
                {
                    "name": "D#5",
                    "midi": 75,
                    "time": 369.3134789999914,
                    "velocity": 0.6771653543307087,
                    "duration": 0.716417999999976
                },
                {
                    "name": "G4",
                    "midi": 67,
                    "time": 369.3134789999914,
                    "velocity": 0.5669291338582677,
                    "duration": 0.716417999999976
                },
                {
                    "name": "G5",
                    "midi": 79,
                    "time": 369.3134789999914,
                    "velocity": 0.6771653543307087,
                    "duration": 0.716417999999976
                },
                {
                    "name": "F4",
                    "midi": 65,
                    "time": 370.02989699999137,
                    "velocity": 0.5748031496062992,
                    "duration": 1.4328360000000089
                },
                {
                    "name": "A#4",
                    "midi": 70,
                    "time": 370.02989699999137,
                    "velocity": 0.5748031496062992,
                    "duration": 1.4328360000000089
                },
                {
                    "name": "D5",
                    "midi": 74,
                    "time": 370.02989699999137,
                    "velocity": 0.7007874015748031,
                    "duration": 1.4328360000000089
                },
                {
                    "name": "F5",
                    "midi": 77,
                    "time": 370.02989699999137,
                    "velocity": 0.7007874015748031,
                    "duration": 1.4328360000000089
                },
                {
                    "name": "A#3",
                    "midi": 58,
                    "time": 371.4627329999914,
                    "velocity": 0.6377952755905512,
                    "duration": 1.3432837500000119
                },
                {
                    "name": "A#4",
                    "midi": 70,
                    "time": 371.4627329999914,
                    "velocity": 0.7480314960629921,
                    "duration": 1.3432837500000119
                },
                {
                    "name": "D#4",
                    "midi": 63,
                    "time": 372.8060167499914,
                    "velocity": 0.7795275590551181,
                    "duration": 0.089552249999997
                },
                {
                    "name": "C4",
                    "midi": 60,
                    "time": 372.8060167499914,
                    "velocity": 0.7795275590551181,
                    "duration": 0.089552249999997
                },
                {
                    "name": "G#4",
                    "midi": 68,
                    "time": 372.8955689999914,
                    "velocity": 0.6377952755905512,
                    "duration": 1.3432837500000119
                },
                {
                    "name": "C5",
                    "midi": 72,
                    "time": 372.8955689999914,
                    "velocity": 0.6377952755905512,
                    "duration": 1.3432837500000119
                },
                {
                    "name": "D#5",
                    "midi": 75,
                    "time": 372.8955689999914,
                    "velocity": 0.7637795275590551,
                    "duration": 1.3432837500000119
                },
                {
                    "name": "G#5",
                    "midi": 80,
                    "time": 372.8955689999914,
                    "velocity": 0.7637795275590551,
                    "duration": 1.3432837500000119
                },
                {
                    "name": "G4",
                    "midi": 67,
                    "time": 374.2388527499914,
                    "velocity": 0.7244094488188977,
                    "duration": 0.089552249999997
                },
                {
                    "name": "D4",
                    "midi": 62,
                    "time": 374.2388527499914,
                    "velocity": 0.7244094488188977,
                    "duration": 0.089552249999997
                },
                {
                    "name": "A#4",
                    "midi": 70,
                    "time": 374.3284049999914,
                    "velocity": 0.6377952755905512,
                    "duration": 1.3432837500000119
                },
                {
                    "name": "D5",
                    "midi": 74,
                    "time": 374.3284049999914,
                    "velocity": 0.6377952755905512,
                    "duration": 1.3432837500000119
                },
                {
                    "name": "G5",
                    "midi": 79,
                    "time": 374.3284049999914,
                    "velocity": 0.7637795275590551,
                    "duration": 1.3432837500000119
                },
                {
                    "name": "A#5",
                    "midi": 82,
                    "time": 374.3284049999914,
                    "velocity": 0.7637795275590551,
                    "duration": 1.3432837500000119
                },
                {
                    "name": "D#4",
                    "midi": 63,
                    "time": 375.6716887499914,
                    "velocity": 0.7244094488188977,
                    "duration": 0.089552249999997
                },
                {
                    "name": "G4",
                    "midi": 67,
                    "time": 375.6716887499914,
                    "velocity": 0.7244094488188977,
                    "duration": 0.089552249999997
                },
                {
                    "name": "G5",
                    "midi": 79,
                    "time": 375.7612409999914,
                    "velocity": 0.7007874015748031,
                    "duration": 0.716417999999976
                },
                {
                    "name": "A#5",
                    "midi": 82,
                    "time": 375.7612409999914,
                    "velocity": 0.7007874015748031,
                    "duration": 0.716417999999976
                },
                {
                    "name": "D#6",
                    "midi": 87,
                    "time": 375.7612409999914,
                    "velocity": 0.8503937007874016,
                    "duration": 0.716417999999976
                },
                {
                    "name": "G6",
                    "midi": 91,
                    "time": 375.7612409999914,
                    "velocity": 0.8503937007874016,
                    "duration": 0.716417999999976
                },
                {
                    "name": "D#4",
                    "midi": 63,
                    "time": 376.4776589999914,
                    "velocity": 0.6614173228346457,
                    "duration": 0.716417999999976
                },
                {
                    "name": "G4",
                    "midi": 67,
                    "time": 376.4776589999914,
                    "velocity": 0.6614173228346457,
                    "duration": 0.716417999999976
                },
                {
                    "name": "A#4",
                    "midi": 70,
                    "time": 376.4776589999914,
                    "velocity": 0.7795275590551181,
                    "duration": 0.716417999999976
                },
                {
                    "name": "G5",
                    "midi": 79,
                    "time": 377.19407699999135,
                    "velocity": 0.7007874015748031,
                    "duration": 0.716417999999976
                },
                {
                    "name": "A#5",
                    "midi": 82,
                    "time": 377.19407699999135,
                    "velocity": 0.7007874015748031,
                    "duration": 0.716417999999976
                },
                {
                    "name": "D#6",
                    "midi": 87,
                    "time": 377.19407699999135,
                    "velocity": 0.8503937007874016,
                    "duration": 0.716417999999976
                },
                {
                    "name": "G6",
                    "midi": 91,
                    "time": 377.19407699999135,
                    "velocity": 0.8503937007874016,
                    "duration": 0.716417999999976
                },
                {
                    "name": "D#4",
                    "midi": 63,
                    "time": 377.91049499999133,
                    "velocity": 0.6614173228346457,
                    "duration": 0.716417999999976
                },
                {
                    "name": "G4",
                    "midi": 67,
                    "time": 377.91049499999133,
                    "velocity": 0.6692913385826772,
                    "duration": 0.716417999999976
                },
                {
                    "name": "A#4",
                    "midi": 70,
                    "time": 377.91049499999133,
                    "velocity": 0.7795275590551181,
                    "duration": 0.716417999999976
                },
                {
                    "name": "D#3",
                    "midi": 51,
                    "time": 378.6269129999913,
                    "velocity": 0.7480314960629921,
                    "duration": 2.8656720000000178
                },
                {
                    "name": "D#4",
                    "midi": 63,
                    "time": 378.6269129999913,
                    "velocity": 0.8503937007874016,
                    "duration": 2.8656720000000178
                },
                {
                    "name": "D#3",
                    "midi": 51,
                    "time": 381.4925849999913,
                    "velocity": 0.8661417322834646,
                    "duration": 1.0746270000000209
                }
            ],
            "controlChanges": {
                "7": [
                    {
                        "number": 7,
                        "time": 0,
                        "value": 1
                    }
                ],
                "10": [
                    {
                        "number": 10,
                        "time": 0,
                        "value": 0.5039370078740157
                    }
                ],
                "91": [
                    {
                        "number": 91,
                        "time": 0,
                        "value": 1
                    },
                    {
                        "number": 91,
                        "time": 0,
                        "value": 1
                    }
                ]
            },
            "id": 1,
            "name": "Piano right",
            "instrumentNumber": 0,
            "instrument": "acoustic grand piano",
            "instrumentFamily": "piano",
            "channelNumber": 0,
            "isPercussion": false
        },
        {
            "startTime": 0.0007462687500000001,
            "duration": 382.5672119999926,
            "length": 2311,
            "notes": [
                {
                    "name": "F#2",
                    "midi": 42,
                    "time": 0.0007462687500000001,
                    "velocity": 0.5826771653543307,
                    "duration": 0.17835823125000003
                },
                {
                    "name": "G2",
                    "midi": 43,
                    "time": 0.35820900000000006,
                    "velocity": 0.6062992125984252,
                    "duration": 0.35820900000000006
                },
                {
                    "name": "G1",
                    "midi": 31,
                    "time": 0.35820900000000006,
                    "velocity": 0.5118110236220472,
                    "duration": 0.35820900000000006
                },
                {
                    "name": "F#2",
                    "midi": 42,
                    "time": 1.4328360000000002,
                    "velocity": 0.5433070866141733,
                    "duration": 0.08955225000000011
                },
                {
                    "name": "F#2",
                    "midi": 42,
                    "time": 1.6119405000000004,
                    "velocity": 0.5196850393700787,
                    "duration": 0.08955225000000011
                },
                {
                    "name": "G1",
                    "midi": 31,
                    "time": 1.7910450000000007,
                    "velocity": 0.49606299212598426,
                    "duration": 0.3582090000000002
                },
                {
                    "name": "G2",
                    "midi": 43,
                    "time": 1.7910450000000007,
                    "velocity": 0.5826771653543307,
                    "duration": 0.3582090000000002
                },
                {
                    "name": "F2",
                    "midi": 41,
                    "time": 2.865672000000001,
                    "velocity": 0.5669291338582677,
                    "duration": 0.17910450000000022
                },
                {
                    "name": "G#1",
                    "midi": 32,
                    "time": 3.2238810000000013,
                    "velocity": 0.49606299212598426,
                    "duration": 0.17910450000000022
                },
                {
                    "name": "G#2",
                    "midi": 44,
                    "time": 3.2238810000000013,
                    "velocity": 0.5905511811023622,
                    "duration": 0.17910450000000022
                },
                {
                    "name": "G2",
                    "midi": 43,
                    "time": 3.4029855000000016,
                    "velocity": 0.5511811023622047,
                    "duration": 0.17910450000000022
                },
                {
                    "name": "G1",
                    "midi": 31,
                    "time": 3.4029855000000016,
                    "velocity": 0.4645669291338583,
                    "duration": 0.17910450000000022
                },
                {
                    "name": "F2",
                    "midi": 41,
                    "time": 4.298508000000002,
                    "velocity": 0.5354330708661418,
                    "duration": 0.08955224999999967
                },
                {
                    "name": "F2",
                    "midi": 41,
                    "time": 4.477612500000001,
                    "velocity": 0.5118110236220472,
                    "duration": 0.08955224999999967
                },
                {
                    "name": "G#1",
                    "midi": 32,
                    "time": 4.656717,
                    "velocity": 0.47244094488188976,
                    "duration": 0.17910450000000022
                },
                {
                    "name": "G#2",
                    "midi": 44,
                    "time": 4.656717,
                    "velocity": 0.5590551181102362,
                    "duration": 0.17910450000000022
                },
                {
                    "name": "G2",
                    "midi": 43,
                    "time": 4.835821500000001,
                    "velocity": 0.5354330708661418,
                    "duration": 0.13432837499999994
                },
                {
                    "name": "G1",
                    "midi": 31,
                    "time": 4.835821500000001,
                    "velocity": 0.44881889763779526,
                    "duration": 0.13432837499999994
                },
                {
                    "name": "G#2",
                    "midi": 44,
                    "time": 5.014926000000001,
                    "velocity": 0.5669291338582677,
                    "duration": 0.17910450000000022
                },
                {
                    "name": "G#1",
                    "midi": 32,
                    "time": 5.014926000000001,
                    "velocity": 0.48031496062992124,
                    "duration": 0.17910450000000022
                },
                {
                    "name": "G1",
                    "midi": 31,
                    "time": 5.194030500000001,
                    "velocity": 0.4409448818897638,
                    "duration": 0.13432837499999994
                },
                {
                    "name": "G2",
                    "midi": 43,
                    "time": 5.194030500000001,
                    "velocity": 0.5275590551181102,
                    "duration": 0.13432837499999994
                },
                {
                    "name": "G1",
                    "midi": 31,
                    "time": 5.731344000000001,
                    "velocity": 0.5354330708661418,
                    "duration": 0.35820900000000044
                },
                {
                    "name": "G2",
                    "midi": 43,
                    "time": 5.731344000000001,
                    "velocity": 0.5354330708661418,
                    "duration": 0.35820900000000044
                },
                {
                    "name": "G2",
                    "midi": 43,
                    "time": 6.089553000000001,
                    "velocity": 0.5118110236220472,
                    "duration": 0.35820900000000044
                },
                {
                    "name": "G1",
                    "midi": 31,
                    "time": 6.089553000000001,
                    "velocity": 0.5118110236220472,
                    "duration": 0.35820900000000044
                },
                {
                    "name": "G1",
                    "midi": 31,
                    "time": 6.447762000000002,
                    "velocity": 0.5905511811023622,
                    "duration": 0.08955224999999967
                },
                {
                    "name": "G2",
                    "midi": 43,
                    "time": 6.447762000000002,
                    "velocity": 0.5905511811023622,
                    "duration": 0.08955224999999967
                },
                {
                    "name": "G#2",
                    "midi": 44,
                    "time": 6.626866500000001,
                    "velocity": 0.5354330708661418,
                    "duration": 0.08955224999999967
                },
                {
                    "name": "G2",
                    "midi": 43,
                    "time": 6.805971,
                    "velocity": 0.5196850393700787,
                    "duration": 0.35820899999999956
                },
                {
                    "name": "F3",
                    "midi": 53,
                    "time": 6.985075500000001,
                    "velocity": 0.48031496062992124,
                    "duration": 0.08955224999999967
                },
                {
                    "name": "G2",
                    "midi": 43,
                    "time": 7.16418,
                    "velocity": 0.5354330708661418,
                    "duration": 0.35820900000000044
                },
                {
                    "name": "G1",
                    "midi": 31,
                    "time": 7.16418,
                    "velocity": 0.44881889763779526,
                    "duration": 0.35820900000000044
                },
                {
                    "name": "G2",
                    "midi": 43,
                    "time": 7.522389,
                    "velocity": 0.5196850393700787,
                    "duration": 0.35820900000000044
                },
                {
                    "name": "G1",
                    "midi": 31,
                    "time": 7.522389,
                    "velocity": 0.4330708661417323,
                    "duration": 0.35820900000000044
                },
                {
                    "name": "G1",
                    "midi": 31,
                    "time": 7.880598000000001,
                    "velocity": 0.49606299212598426,
                    "duration": 0.17910449999999933
                },
                {
                    "name": "G2",
                    "midi": 43,
                    "time": 7.880598000000001,
                    "velocity": 0.5905511811023622,
                    "duration": 0.17910449999999933
                },
                {
                    "name": "G#2",
                    "midi": 44,
                    "time": 8.0597025,
                    "velocity": 0.5196850393700787,
                    "duration": 0.17910449999999933
                },
                {
                    "name": "G2",
                    "midi": 43,
                    "time": 8.238807,
                    "velocity": 0.5196850393700787,
                    "duration": 0.35820900000000044
                },
                {
                    "name": "C#3",
                    "midi": 49,
                    "time": 8.417911499999999,
                    "velocity": 0.48031496062992124,
                    "duration": 0.08955225000000056
                },
                {
                    "name": "G2",
                    "midi": 43,
                    "time": 8.597016,
                    "velocity": 0.5590551181102362,
                    "duration": 0.17910449999999933
                },
                {
                    "name": "G1",
                    "midi": 31,
                    "time": 8.597016,
                    "velocity": 0.47244094488188976,
                    "duration": 0.17910449999999933
                },
                {
                    "name": "G#2",
                    "midi": 44,
                    "time": 8.7761205,
                    "velocity": 0.5039370078740157,
                    "duration": 0.17910449999999933
                },
                {
                    "name": "G2",
                    "midi": 43,
                    "time": 8.955224999999999,
                    "velocity": 0.5275590551181102,
                    "duration": 0.35820900000000044
                },
                {
                    "name": "F3",
                    "midi": 53,
                    "time": 9.134329499999998,
                    "velocity": 0.47244094488188976,
                    "duration": 0.08955225000000056
                },
                {
                    "name": "G1",
                    "midi": 31,
                    "time": 9.313433999999999,
                    "velocity": 0.4330708661417323,
                    "duration": 0.17910449999999933
                },
                {
                    "name": "G2",
                    "midi": 43,
                    "time": 9.313433999999999,
                    "velocity": 0.5196850393700787,
                    "duration": 0.17910449999999933
                },
                {
                    "name": "G#2",
                    "midi": 44,
                    "time": 9.492538499999998,
                    "velocity": 0.48031496062992124,
                    "duration": 0.17910449999999933
                },
                {
                    "name": "G2",
                    "midi": 43,
                    "time": 9.671642999999998,
                    "velocity": 0.5196850393700787,
                    "duration": 0.35820899999999867
                },
                {
                    "name": "C#3",
                    "midi": 49,
                    "time": 9.850747499999997,
                    "velocity": 0.48031496062992124,
                    "duration": 0.17910449999999933
                },
                {
                    "name": "G1",
                    "midi": 31,
                    "time": 10.029851999999996,
                    "velocity": 0.4409448818897638,
                    "duration": 0.35820900000000044
                },
                {
                    "name": "G2",
                    "midi": 43,
                    "time": 10.029851999999996,
                    "velocity": 0.5275590551181102,
                    "duration": 0.35820900000000044
                },
                {
                    "name": "G2",
                    "midi": 43,
                    "time": 10.388060999999997,
                    "velocity": 0.5118110236220472,
                    "duration": 0.35820900000000044
                },
                {
                    "name": "G1",
                    "midi": 31,
                    "time": 10.388060999999997,
                    "velocity": 0.4330708661417323,
                    "duration": 0.35820900000000044
                },
                {
                    "name": "G1",
                    "midi": 31,
                    "time": 10.746269999999997,
                    "velocity": 0.4409448818897638,
                    "duration": 0.35820900000000044
                },
                {
                    "name": "G2",
                    "midi": 43,
                    "time": 10.746269999999997,
                    "velocity": 0.5275590551181102,
                    "duration": 0.35820900000000044
                },
                {
                    "name": "G2",
                    "midi": 43,
                    "time": 11.104478999999998,
                    "velocity": 0.49606299212598426,
                    "duration": 0.35820900000000044
                },
                {
                    "name": "G1",
                    "midi": 31,
                    "time": 11.104478999999998,
                    "velocity": 0.4251968503937008,
                    "duration": 0.35820900000000044
                },
                {
                    "name": "G1",
                    "midi": 31,
                    "time": 11.462687999999998,
                    "velocity": 0.3700787401574803,
                    "duration": 0.08955225000000056
                },
                {
                    "name": "G2",
                    "midi": 43,
                    "time": 11.462687999999998,
                    "velocity": 0.4409448818897638,
                    "duration": 0.08955225000000056
                },
                {
                    "name": "C2",
                    "midi": 36,
                    "time": 11.6417925,
                    "velocity": 0.3464566929133858,
                    "duration": 0.08955225000000056
                },
                {
                    "name": "C3",
                    "midi": 48,
                    "time": 11.6417925,
                    "velocity": 0.4094488188976378,
                    "duration": 0.08955225000000056
                },
                {
                    "name": "G#2",
                    "midi": 44,
                    "time": 11.820897,
                    "velocity": 0.5275590551181102,
                    "duration": 0.08955225000000056
                },
                {
                    "name": "G#1",
                    "midi": 32,
                    "time": 11.820897,
                    "velocity": 0.4409448818897638,
                    "duration": 0.08955225000000056
                },
                {
                    "name": "C#3",
                    "midi": 49,
                    "time": 12.000001500000002,
                    "velocity": 0.4566929133858268,
                    "duration": 0.08955225000000056
                },
                {
                    "name": "C#2",
                    "midi": 37,
                    "time": 12.000001500000002,
                    "velocity": 0.3858267716535433,
                    "duration": 0.08955225000000056
                },
                {
                    "name": "A1",
                    "midi": 33,
                    "time": 12.179106000000003,
                    "velocity": 0.3779527559055118,
                    "duration": 0.08955225000000056
                },
                {
                    "name": "A2",
                    "midi": 45,
                    "time": 12.179106000000003,
                    "velocity": 0.44881889763779526,
                    "duration": 0.08955225000000056
                },
                {
                    "name": "D3",
                    "midi": 50,
                    "time": 12.358210500000004,
                    "velocity": 0.4409448818897638,
                    "duration": 0.08955225000000056
                },
                {
                    "name": "D2",
                    "midi": 38,
                    "time": 12.358210500000004,
                    "velocity": 0.3700787401574803,
                    "duration": 0.08955225000000056
                },
                {
                    "name": "A#1",
                    "midi": 34,
                    "time": 12.537315000000005,
                    "velocity": 0.41732283464566927,
                    "duration": 0.08955225000000056
                },
                {
                    "name": "A#2",
                    "midi": 46,
                    "time": 12.537315000000005,
                    "velocity": 0.49606299212598426,
                    "duration": 0.08955225000000056
                },
                {
                    "name": "D#3",
                    "midi": 51,
                    "time": 12.716419500000006,
                    "velocity": 0.4330708661417323,
                    "duration": 0.08955225000000056
                },
                {
                    "name": "D#2",
                    "midi": 39,
                    "time": 12.716419500000006,
                    "velocity": 0.36220472440944884,
                    "duration": 0.08955225000000056
                },
                {
                    "name": "G1",
                    "midi": 31,
                    "time": 12.895524000000007,
                    "velocity": 0.3937007874015748,
                    "duration": 0.08955225000000056
                },
                {
                    "name": "G2",
                    "midi": 43,
                    "time": 12.895524000000007,
                    "velocity": 0.4645669291338583,
                    "duration": 0.08955225000000056
                },
                {
                    "name": "C2",
                    "midi": 36,
                    "time": 13.074628500000008,
                    "velocity": 0.3543307086614173,
                    "duration": 0.08955225000000056
                },
                {
                    "name": "C3",
                    "midi": 48,
                    "time": 13.074628500000008,
                    "velocity": 0.4251968503937008,
                    "duration": 0.08955225000000056
                },
                {
                    "name": "G#2",
                    "midi": 44,
                    "time": 13.25373300000001,
                    "velocity": 0.5511811023622047,
                    "duration": 0.08955225000000056
                },
                {
                    "name": "G#1",
                    "midi": 32,
                    "time": 13.25373300000001,
                    "velocity": 0.4645669291338583,
                    "duration": 0.08955225000000056
                },
                {
                    "name": "C#3",
                    "midi": 49,
                    "time": 13.43283750000001,
                    "velocity": 0.48031496062992124,
                    "duration": 0.08955225000000056
                },
                {
                    "name": "C#2",
                    "midi": 37,
                    "time": 13.43283750000001,
                    "velocity": 0.4015748031496063,
                    "duration": 0.08955225000000056
                },
                {
                    "name": "A1",
                    "midi": 33,
                    "time": 13.611942000000012,
                    "velocity": 0.3937007874015748,
                    "duration": 0.08955225000000056
                },
                {
                    "name": "A2",
                    "midi": 45,
                    "time": 13.611942000000012,
                    "velocity": 0.47244094488188976,
                    "duration": 0.08955225000000056
                },
                {
                    "name": "D2",
                    "midi": 38,
                    "time": 13.791046500000013,
                    "velocity": 0.3937007874015748,
                    "duration": 0.08955225000000056
                },
                {
                    "name": "D3",
                    "midi": 50,
                    "time": 13.791046500000013,
                    "velocity": 0.4645669291338583,
                    "duration": 0.08955225000000056
                },
                {
                    "name": "A#2",
                    "midi": 46,
                    "time": 13.970151000000014,
                    "velocity": 0.5354330708661418,
                    "duration": 0.08955225000000056
                },
                {
                    "name": "A#1",
                    "midi": 34,
                    "time": 13.970151000000014,
                    "velocity": 0.4566929133858268,
                    "duration": 0.08955225000000056
                },
                {
                    "name": "D#2",
                    "midi": 39,
                    "time": 14.149255500000015,
                    "velocity": 0.4645669291338583,
                    "duration": 0.08955225000000056
                },
                {
                    "name": "D#3",
                    "midi": 51,
                    "time": 14.149255500000015,
                    "velocity": 0.4645669291338583,
                    "duration": 0.08955225000000056
                },
                {
                    "name": "G2",
                    "midi": 43,
                    "time": 14.328360000000016,
                    "velocity": 0.48031496062992124,
                    "duration": 0.08955225000000056
                },
                {
                    "name": "G1",
                    "midi": 31,
                    "time": 14.328360000000016,
                    "velocity": 0.4015748031496063,
                    "duration": 0.08955225000000056
                },
                {
                    "name": "C2",
                    "midi": 36,
                    "time": 14.507464500000017,
                    "velocity": 0.36220472440944884,
                    "duration": 0.08955225000000056
                },
                {
                    "name": "C3",
                    "midi": 48,
                    "time": 14.507464500000017,
                    "velocity": 0.4330708661417323,
                    "duration": 0.08955225000000056
                },
                {
                    "name": "G#2",
                    "midi": 44,
                    "time": 14.686569000000018,
                    "velocity": 0.5669291338582677,
                    "duration": 0.08955225000000056
                },
                {
                    "name": "G#1",
                    "midi": 32,
                    "time": 14.686569000000018,
                    "velocity": 0.48031496062992124,
                    "duration": 0.08955225000000056
                },
                {
                    "name": "C#3",
                    "midi": 49,
                    "time": 14.86567350000002,
                    "velocity": 0.49606299212598426,
                    "duration": 0.08955225000000056
                },
                {
                    "name": "C#2",
                    "midi": 37,
                    "time": 14.86567350000002,
                    "velocity": 0.41732283464566927,
                    "duration": 0.08955225000000056
                },
                {
                    "name": "A1",
                    "midi": 33,
                    "time": 15.04477800000002,
                    "velocity": 0.4094488188976378,
                    "duration": 0.08955225000000056
                },
                {
                    "name": "A2",
                    "midi": 45,
                    "time": 15.04477800000002,
                    "velocity": 0.4881889763779528,
                    "duration": 0.08955225000000056
                },
                {
                    "name": "D2",
                    "midi": 38,
                    "time": 15.223882500000022,
                    "velocity": 0.4094488188976378,
                    "duration": 0.08955225000000056
                },
                {
                    "name": "D3",
                    "midi": 50,
                    "time": 15.223882500000022,
                    "velocity": 0.4881889763779528,
                    "duration": 0.08955225000000056
                },
                {
                    "name": "A#2",
                    "midi": 46,
                    "time": 15.402987000000023,
                    "velocity": 0.5511811023622047,
                    "duration": 0.08955225000000056
                },
                {
                    "name": "A#1",
                    "midi": 34,
                    "time": 15.402987000000023,
                    "velocity": 0.4645669291338583,
                    "duration": 0.08955225000000056
                },
                {
                    "name": "D#2",
                    "midi": 39,
                    "time": 15.582091500000024,
                    "velocity": 0.48031496062992124,
                    "duration": 0.08955225000000056
                },
                {
                    "name": "D#3",
                    "midi": 51,
                    "time": 15.582091500000024,
                    "velocity": 0.48031496062992124,
                    "duration": 0.08955225000000056
                },
                {
                    "name": "G2",
                    "midi": 43,
                    "time": 15.761196000000025,
                    "velocity": 0.5118110236220472,
                    "duration": 0.08955225000000056
                },
                {
                    "name": "G1",
                    "midi": 31,
                    "time": 15.761196000000025,
                    "velocity": 0.4330708661417323,
                    "duration": 0.08955225000000056
                },
                {
                    "name": "C2",
                    "midi": 36,
                    "time": 15.940300500000026,
                    "velocity": 0.3937007874015748,
                    "duration": 0.08955224999999878
                },
                {
                    "name": "C3",
                    "midi": 48,
                    "time": 15.940300500000026,
                    "velocity": 0.4645669291338583,
                    "duration": 0.08955224999999878
                },
                {
                    "name": "G#2",
                    "midi": 44,
                    "time": 16.119405000000025,
                    "velocity": 0.6220472440944882,
                    "duration": 0.08955225000000056
                },
                {
                    "name": "G#1",
                    "midi": 32,
                    "time": 16.119405000000025,
                    "velocity": 0.5196850393700787,
                    "duration": 0.08955225000000056
                },
                {
                    "name": "C#2",
                    "midi": 37,
                    "time": 16.298509500000026,
                    "velocity": 0.44881889763779526,
                    "duration": 0.08955225000000056
                },
                {
                    "name": "C#3",
                    "midi": 49,
                    "time": 16.298509500000026,
                    "velocity": 0.5354330708661418,
                    "duration": 0.08955225000000056
                },
                {
                    "name": "A2",
                    "midi": 45,
                    "time": 16.477614000000028,
                    "velocity": 0.5511811023622047,
                    "duration": 0.08955225000000056
                },
                {
                    "name": "A1",
                    "midi": 33,
                    "time": 16.477614000000028,
                    "velocity": 0.4645669291338583,
                    "duration": 0.08955225000000056
                },
                {
                    "name": "D2",
                    "midi": 38,
                    "time": 16.65671850000003,
                    "velocity": 0.4330708661417323,
                    "duration": 0.08955225000000056
                },
                {
                    "name": "D3",
                    "midi": 50,
                    "time": 16.65671850000003,
                    "velocity": 0.5196850393700787,
                    "duration": 0.08955225000000056
                },
                {
                    "name": "A#2",
                    "midi": 46,
                    "time": 16.83582300000003,
                    "velocity": 0.6062992125984252,
                    "duration": 0.08955225000000056
                },
                {
                    "name": "A#1",
                    "midi": 34,
                    "time": 16.83582300000003,
                    "velocity": 0.5039370078740157,
                    "duration": 0.08955225000000056
                },
                {
                    "name": "D#2",
                    "midi": 39,
                    "time": 17.01492750000003,
                    "velocity": 0.4409448818897638,
                    "duration": 0.08955225000000056
                },
                {
                    "name": "D#3",
                    "midi": 51,
                    "time": 17.01492750000003,
                    "velocity": 0.5275590551181102,
                    "duration": 0.08955225000000056
                },
                {
                    "name": "G1",
                    "midi": 31,
                    "time": 17.194032000000032,
                    "velocity": 0.48031496062992124,
                    "duration": 0.08955225000000056
                },
                {
                    "name": "G2",
                    "midi": 43,
                    "time": 17.194032000000032,
                    "velocity": 0.5669291338582677,
                    "duration": 0.08955225000000056
                },
                {
                    "name": "C3",
                    "midi": 48,
                    "time": 17.373136500000033,
                    "velocity": 0.5196850393700787,
                    "duration": 0.08955225000000056
                },
                {
                    "name": "C2",
                    "midi": 36,
                    "time": 17.373136500000033,
                    "velocity": 0.4330708661417323,
                    "duration": 0.08955225000000056
                },
                {
                    "name": "G#2",
                    "midi": 44,
                    "time": 17.552241000000034,
                    "velocity": 0.5433070866141733,
                    "duration": 0.08955225000000056
                },
                {
                    "name": "G#1",
                    "midi": 32,
                    "time": 17.552241000000034,
                    "velocity": 0.4566929133858268,
                    "duration": 0.08955225000000056
                },
                {
                    "name": "C#3",
                    "midi": 49,
                    "time": 17.731345500000035,
                    "velocity": 0.49606299212598426,
                    "duration": 0.08955225000000056
                },
                {
                    "name": "C#2",
                    "midi": 37,
                    "time": 17.731345500000035,
                    "velocity": 0.4251968503937008,
                    "duration": 0.08955225000000056
                },
                {
                    "name": "A1",
                    "midi": 33,
                    "time": 17.910450000000036,
                    "velocity": 0.48031496062992124,
                    "duration": 0.08955225000000056
                },
                {
                    "name": "A2",
                    "midi": 45,
                    "time": 17.910450000000036,
                    "velocity": 0.5669291338582677,
                    "duration": 0.08955225000000056
                },
                {
                    "name": "D2",
                    "midi": 38,
                    "time": 18.089554500000038,
                    "velocity": 0.4330708661417323,
                    "duration": 0.08955225000000056
                },
                {
                    "name": "D3",
                    "midi": 50,
                    "time": 18.089554500000038,
                    "velocity": 0.5118110236220472,
                    "duration": 0.08955225000000056
                },
                {
                    "name": "A#2",
                    "midi": 46,
                    "time": 18.26865900000004,
                    "velocity": 0.5511811023622047,
                    "duration": 0.08955225000000056
                },
                {
                    "name": "A#1",
                    "midi": 34,
                    "time": 18.26865900000004,
                    "velocity": 0.4645669291338583,
                    "duration": 0.08955225000000056
                },
                {
                    "name": "D#2",
                    "midi": 39,
                    "time": 18.44776350000004,
                    "velocity": 0.4251968503937008,
                    "duration": 0.08955225000000056
                },
                {
                    "name": "D#3",
                    "midi": 51,
                    "time": 18.44776350000004,
                    "velocity": 0.49606299212598426,
                    "duration": 0.08955225000000056
                },
                {
                    "name": "G2",
                    "midi": 43,
                    "time": 18.62686800000004,
                    "velocity": 0.48031496062992124,
                    "duration": 0.08955225000000056
                },
                {
                    "name": "G1",
                    "midi": 31,
                    "time": 18.62686800000004,
                    "velocity": 0.48031496062992124,
                    "duration": 0.08955225000000056
                },
                {
                    "name": "C2",
                    "midi": 36,
                    "time": 18.805972500000042,
                    "velocity": 0.4330708661417323,
                    "duration": 0.08955225000000056
                },
                {
                    "name": "C3",
                    "midi": 48,
                    "time": 18.805972500000042,
                    "velocity": 0.5196850393700787,
                    "duration": 0.08955225000000056
                },
                {
                    "name": "G#2",
                    "midi": 44,
                    "time": 18.985077000000043,
                    "velocity": 0.5433070866141733,
                    "duration": 0.08955225000000056
                },
                {
                    "name": "G#1",
                    "midi": 32,
                    "time": 18.985077000000043,
                    "velocity": 0.4566929133858268,
                    "duration": 0.08955225000000056
                },
                {
                    "name": "C#2",
                    "midi": 37,
                    "time": 19.164181500000044,
                    "velocity": 0.4251968503937008,
                    "duration": 0.08955225000000056
                },
                {
                    "name": "C#3",
                    "midi": 49,
                    "time": 19.164181500000044,
                    "velocity": 0.49606299212598426,
                    "duration": 0.08955225000000056
                },
                {
                    "name": "A2",
                    "midi": 45,
                    "time": 19.343286000000045,
                    "velocity": 0.5669291338582677,
                    "duration": 0.08955225000000056
                },
                {
                    "name": "A1",
                    "midi": 33,
                    "time": 19.343286000000045,
                    "velocity": 0.48031496062992124,
                    "duration": 0.08955225000000056
                },
                {
                    "name": "D2",
                    "midi": 38,
                    "time": 19.522390500000046,
                    "velocity": 0.4330708661417323,
                    "duration": 0.08955225000000056
                },
                {
                    "name": "D3",
                    "midi": 50,
                    "time": 19.522390500000046,
                    "velocity": 0.5118110236220472,
                    "duration": 0.08955225000000056
                },
                {
                    "name": "A#2",
                    "midi": 46,
                    "time": 19.701495000000047,
                    "velocity": 0.5511811023622047,
                    "duration": 0.08955225000000056
                },
                {
                    "name": "A#1",
                    "midi": 34,
                    "time": 19.701495000000047,
                    "velocity": 0.4645669291338583,
                    "duration": 0.08955225000000056
                },
                {
                    "name": "D#2",
                    "midi": 39,
                    "time": 19.88059950000005,
                    "velocity": 0.4251968503937008,
                    "duration": 0.08955225000000056
                },
                {
                    "name": "D#3",
                    "midi": 51,
                    "time": 19.88059950000005,
                    "velocity": 0.49606299212598426,
                    "duration": 0.08955225000000056
                },
                {
                    "name": "G1",
                    "midi": 31,
                    "time": 20.05970400000005,
                    "velocity": 0.48031496062992124,
                    "duration": 0.08955225000000056
                },
                {
                    "name": "G2",
                    "midi": 43,
                    "time": 20.05970400000005,
                    "velocity": 0.5669291338582677,
                    "duration": 0.08955225000000056
                },
                {
                    "name": "C3",
                    "midi": 48,
                    "time": 20.23880850000005,
                    "velocity": 0.5196850393700787,
                    "duration": 0.08955225000000056
                },
                {
                    "name": "C2",
                    "midi": 36,
                    "time": 20.23880850000005,
                    "velocity": 0.4330708661417323,
                    "duration": 0.08955225000000056
                },
                {
                    "name": "G#2",
                    "midi": 44,
                    "time": 20.417913000000052,
                    "velocity": 0.5433070866141733,
                    "duration": 0.08955225000000056
                },
                {
                    "name": "G#1",
                    "midi": 32,
                    "time": 20.417913000000052,
                    "velocity": 0.4566929133858268,
                    "duration": 0.08955225000000056
                },
                {
                    "name": "C#2",
                    "midi": 37,
                    "time": 20.597017500000053,
                    "velocity": 0.4251968503937008,
                    "duration": 0.08955225000000056
                },
                {
                    "name": "C#3",
                    "midi": 49,
                    "time": 20.597017500000053,
                    "velocity": 0.49606299212598426,
                    "duration": 0.08955225000000056
                },
                {
                    "name": "A2",
                    "midi": 45,
                    "time": 20.776122000000054,
                    "velocity": 0.5669291338582677,
                    "duration": 0.08955225000000056
                },
                {
                    "name": "A1",
                    "midi": 33,
                    "time": 20.776122000000054,
                    "velocity": 0.48031496062992124,
                    "duration": 0.08955225000000056
                },
                {
                    "name": "D2",
                    "midi": 38,
                    "time": 20.955226500000055,
                    "velocity": 0.4330708661417323,
                    "duration": 0.08955225000000056
                },
                {
                    "name": "D3",
                    "midi": 50,
                    "time": 20.955226500000055,
                    "velocity": 0.5118110236220472,
                    "duration": 0.08955225000000056
                },
                {
                    "name": "A#2",
                    "midi": 46,
                    "time": 21.134331000000056,
                    "velocity": 0.5511811023622047,
                    "duration": 0.08955225000000056
                },
                {
                    "name": "A#1",
                    "midi": 34,
                    "time": 21.134331000000056,
                    "velocity": 0.4645669291338583,
                    "duration": 0.08955225000000056
                },
                {
                    "name": "D#2",
                    "midi": 39,
                    "time": 21.313435500000057,
                    "velocity": 0.4251968503937008,
                    "duration": 0.08955225000000056
                },
                {
                    "name": "D#3",
                    "midi": 51,
                    "time": 21.313435500000057,
                    "velocity": 0.49606299212598426,
                    "duration": 0.08955225000000056
                },
                {
                    "name": "G1",
                    "midi": 31,
                    "time": 21.49254000000006,
                    "velocity": 0.49606299212598426,
                    "duration": 0.08955225000000056
                },
                {
                    "name": "G2",
                    "midi": 43,
                    "time": 21.49254000000006,
                    "velocity": 0.5984251968503937,
                    "duration": 0.08955225000000056
                },
                {
                    "name": "C3",
                    "midi": 48,
                    "time": 21.67164450000006,
                    "velocity": 0.5196850393700787,
                    "duration": 0.08955225000000056
                },
                {
                    "name": "C2",
                    "midi": 36,
                    "time": 21.67164450000006,
                    "velocity": 0.4330708661417323,
                    "duration": 0.08955225000000056
                },
                {
                    "name": "G#2",
                    "midi": 44,
                    "time": 21.85074900000006,
                    "velocity": 0.5669291338582677,
                    "duration": 0.08955225000000056
                },
                {
                    "name": "G#1",
                    "midi": 32,
                    "time": 21.85074900000006,
                    "velocity": 0.48031496062992124,
                    "duration": 0.08955225000000056
                },
                {
                    "name": "C#2",
                    "midi": 37,
                    "time": 22.029853500000062,
                    "velocity": 0.4251968503937008,
                    "duration": 0.08955225000000056
                },
                {
                    "name": "C#3",
                    "midi": 49,
                    "time": 22.029853500000062,
                    "velocity": 0.49606299212598426,
                    "duration": 0.08955225000000056
                },
                {
                    "name": "A1",
                    "midi": 33,
                    "time": 22.208958000000063,
                    "velocity": 0.49606299212598426,
                    "duration": 0.08955225000000056
                },
                {
                    "name": "A2",
                    "midi": 45,
                    "time": 22.208958000000063,
                    "velocity": 0.5905511811023622,
                    "duration": 0.08955225000000056
                },
                {
                    "name": "D3",
                    "midi": 50,
                    "time": 22.388062500000064,
                    "velocity": 0.5118110236220472,
                    "duration": 0.08955225000000056
                },
                {
                    "name": "D2",
                    "midi": 38,
                    "time": 22.388062500000064,
                    "velocity": 0.4330708661417323,
                    "duration": 0.08955225000000056
                },
                {
                    "name": "A#1",
                    "midi": 34,
                    "time": 22.567167000000065,
                    "velocity": 0.4881889763779528,
                    "duration": 0.08955225000000056
                },
                {
                    "name": "A#2",
                    "midi": 46,
                    "time": 22.567167000000065,
                    "velocity": 0.5669291338582677,
                    "duration": 0.08955225000000056
                },
                {
                    "name": "D#3",
                    "midi": 51,
                    "time": 22.746271500000066,
                    "velocity": 0.49606299212598426,
                    "duration": 0.08955225000000056
                },
                {
                    "name": "D#2",
                    "midi": 39,
                    "time": 22.746271500000066,
                    "velocity": 0.4251968503937008,
                    "duration": 0.08955225000000056
                },
                {
                    "name": "G1",
                    "midi": 31,
                    "time": 22.925376000000067,
                    "velocity": 0.4645669291338583,
                    "duration": 0.1791045000000011
                },
                {
                    "name": "G2",
                    "midi": 43,
                    "time": 22.925376000000067,
                    "velocity": 0.5511811023622047,
                    "duration": 0.1791045000000011
                },
                {
                    "name": "F#2",
                    "midi": 42,
                    "time": 23.10448050000007,
                    "velocity": 0.5118110236220472,
                    "duration": 0.1791045000000011
                },
                {
                    "name": "G1",
                    "midi": 31,
                    "time": 23.28358500000007,
                    "velocity": 0.4645669291338583,
                    "duration": 0.1791045000000011
                },
                {
                    "name": "G2",
                    "midi": 43,
                    "time": 23.28358500000007,
                    "velocity": 0.5511811023622047,
                    "duration": 0.1791045000000011
                },
                {
                    "name": "F#2",
                    "midi": 42,
                    "time": 23.46268950000007,
                    "velocity": 0.5118110236220472,
                    "duration": 0.1791045000000011
                },
                {
                    "name": "G2",
                    "midi": 43,
                    "time": 23.641794000000072,
                    "velocity": 0.5511811023622047,
                    "duration": 0.1791045000000011
                },
                {
                    "name": "G1",
                    "midi": 31,
                    "time": 23.641794000000072,
                    "velocity": 0.4645669291338583,
                    "duration": 0.1791045000000011
                },
                {
                    "name": "F#2",
                    "midi": 42,
                    "time": 23.820898500000073,
                    "velocity": 0.5118110236220472,
                    "duration": 0.1791045000000011
                },
                {
                    "name": "G1",
                    "midi": 31,
                    "time": 24.000003000000074,
                    "velocity": 0.4645669291338583,
                    "duration": 0.1791045000000011
                },
                {
                    "name": "G2",
                    "midi": 43,
                    "time": 24.000003000000074,
                    "velocity": 0.5511811023622047,
                    "duration": 0.1791045000000011
                },
                {
                    "name": "F#2",
                    "midi": 42,
                    "time": 24.179107500000075,
                    "velocity": 0.5118110236220472,
                    "duration": 0.1791045000000011
                },
                {
                    "name": "G1",
                    "midi": 31,
                    "time": 24.358212000000076,
                    "velocity": 0.4645669291338583,
                    "duration": 0.1791045000000011
                },
                {
                    "name": "G2",
                    "midi": 43,
                    "time": 24.358212000000076,
                    "velocity": 0.5511811023622047,
                    "duration": 0.1791045000000011
                },
                {
                    "name": "F#2",
                    "midi": 42,
                    "time": 24.537316500000077,
                    "velocity": 0.5275590551181102,
                    "duration": 0.1791045000000011
                },
                {
                    "name": "G2",
                    "midi": 43,
                    "time": 24.71642100000008,
                    "velocity": 0.5511811023622047,
                    "duration": 0.1791045000000011
                },
                {
                    "name": "G1",
                    "midi": 31,
                    "time": 24.71642100000008,
                    "velocity": 0.4645669291338583,
                    "duration": 0.1791045000000011
                },
                {
                    "name": "F#2",
                    "midi": 42,
                    "time": 24.89552550000008,
                    "velocity": 0.5275590551181102,
                    "duration": 0.1791045000000011
                },
                {
                    "name": "C2",
                    "midi": 36,
                    "time": 25.07463000000008,
                    "velocity": 0.48031496062992124,
                    "duration": 0.1791045000000011
                },
                {
                    "name": "C3",
                    "midi": 48,
                    "time": 25.07463000000008,
                    "velocity": 0.5669291338582677,
                    "duration": 0.1791045000000011
                },
                {
                    "name": "A#2",
                    "midi": 46,
                    "time": 25.253734500000082,
                    "velocity": 0.5590551181102362,
                    "duration": 0.1791045000000011
                },
                {
                    "name": "A#1",
                    "midi": 34,
                    "time": 25.253734500000082,
                    "velocity": 0.47244094488188976,
                    "duration": 0.1791045000000011
                },
                {
                    "name": "A1",
                    "midi": 33,
                    "time": 25.432839000000083,
                    "velocity": 0.4645669291338583,
                    "duration": 0.1791045000000011
                },
                {
                    "name": "A2",
                    "midi": 45,
                    "time": 25.432839000000083,
                    "velocity": 0.5511811023622047,
                    "duration": 0.1791045000000011
                },
                {
                    "name": "G#1",
                    "midi": 32,
                    "time": 25.611943500000084,
                    "velocity": 0.4566929133858268,
                    "duration": 0.1791045000000011
                },
                {
                    "name": "G#2",
                    "midi": 44,
                    "time": 25.611943500000084,
                    "velocity": 0.5433070866141733,
                    "duration": 0.1791045000000011
                },
                {
                    "name": "G2",
                    "midi": 43,
                    "time": 25.791048000000085,
                    "velocity": 0.5511811023622047,
                    "duration": 0.1791045000000011
                },
                {
                    "name": "G1",
                    "midi": 31,
                    "time": 25.791048000000085,
                    "velocity": 0.4645669291338583,
                    "duration": 0.1791045000000011
                },
                {
                    "name": "F#2",
                    "midi": 42,
                    "time": 25.970152500000086,
                    "velocity": 0.5118110236220472,
                    "duration": 0.1791045000000011
                },
                {
                    "name": "G1",
                    "midi": 31,
                    "time": 26.149257000000087,
                    "velocity": 0.4645669291338583,
                    "duration": 0.1791045000000011
                },
                {
                    "name": "G2",
                    "midi": 43,
                    "time": 26.149257000000087,
                    "velocity": 0.5511811023622047,
                    "duration": 0.1791045000000011
                },
                {
                    "name": "F#2",
                    "midi": 42,
                    "time": 26.32836150000009,
                    "velocity": 0.5118110236220472,
                    "duration": 0.1791045000000011
                },
                {
                    "name": "G1",
                    "midi": 31,
                    "time": 26.50746600000009,
                    "velocity": 0.4645669291338583,
                    "duration": 0.1791045000000011
                },
                {
                    "name": "G2",
                    "midi": 43,
                    "time": 26.50746600000009,
                    "velocity": 0.5511811023622047,
                    "duration": 0.1791045000000011
                },
                {
                    "name": "F#2",
                    "midi": 42,
                    "time": 26.68657050000009,
                    "velocity": 0.5118110236220472,
                    "duration": 0.1791045000000011
                },
                {
                    "name": "G2",
                    "midi": 43,
                    "time": 26.865675000000092,
                    "velocity": 0.5511811023622047,
                    "duration": 0.1791045000000011
                },
                {
                    "name": "G1",
                    "midi": 31,
                    "time": 26.865675000000092,
                    "velocity": 0.4645669291338583,
                    "duration": 0.1791045000000011
                },
                {
                    "name": "F#2",
                    "midi": 42,
                    "time": 27.044779500000093,
                    "velocity": 0.5118110236220472,
                    "duration": 0.1791045000000011
                },
                {
                    "name": "G2",
                    "midi": 43,
                    "time": 27.223884000000094,
                    "velocity": 0.5511811023622047,
                    "duration": 0.1791045000000011
                },
                {
                    "name": "G1",
                    "midi": 31,
                    "time": 27.223884000000094,
                    "velocity": 0.4645669291338583,
                    "duration": 0.1791045000000011
                },
                {
                    "name": "F#2",
                    "midi": 42,
                    "time": 27.402988500000095,
                    "velocity": 0.5275590551181102,
                    "duration": 0.1791045000000011
                },
                {
                    "name": "G2",
                    "midi": 43,
                    "time": 27.582093000000096,
                    "velocity": 0.5511811023622047,
                    "duration": 0.1791045000000011
                },
                {
                    "name": "G1",
                    "midi": 31,
                    "time": 27.582093000000096,
                    "velocity": 0.4645669291338583,
                    "duration": 0.1791045000000011
                },
                {
                    "name": "F#2",
                    "midi": 42,
                    "time": 27.761197500000097,
                    "velocity": 0.5275590551181102,
                    "duration": 0.1791045000000011
                },
                {
                    "name": "C2",
                    "midi": 36,
                    "time": 27.9403020000001,
                    "velocity": 0.48031496062992124,
                    "duration": 0.1791045000000011
                },
                {
                    "name": "C3",
                    "midi": 48,
                    "time": 27.9403020000001,
                    "velocity": 0.5669291338582677,
                    "duration": 0.1791045000000011
                },
                {
                    "name": "B2",
                    "midi": 47,
                    "time": 28.1194065000001,
                    "velocity": 0.5590551181102362,
                    "duration": 0.1791045000000011
                },
                {
                    "name": "B1",
                    "midi": 35,
                    "time": 28.1194065000001,
                    "velocity": 0.47244094488188976,
                    "duration": 0.1791045000000011
                },
                {
                    "name": "A#2",
                    "midi": 46,
                    "time": 28.2985110000001,
                    "velocity": 0.5511811023622047,
                    "duration": 0.1791045000000011
                },
                {
                    "name": "A#1",
                    "midi": 34,
                    "time": 28.2985110000001,
                    "velocity": 0.4645669291338583,
                    "duration": 0.1791045000000011
                },
                {
                    "name": "A2",
                    "midi": 45,
                    "time": 28.477615500000102,
                    "velocity": 0.5433070866141733,
                    "duration": 0.1791045000000011
                },
                {
                    "name": "A1",
                    "midi": 33,
                    "time": 28.477615500000102,
                    "velocity": 0.4566929133858268,
                    "duration": 0.1791045000000011
                },
                {
                    "name": "F#4",
                    "midi": 66,
                    "time": 28.656720000000103,
                    "velocity": 0.5511811023622047,
                    "duration": 1.4328359999999947
                },
                {
                    "name": "C3",
                    "midi": 48,
                    "time": 29.0149290000001,
                    "velocity": 0.3937007874015748,
                    "duration": 0.35820899999999867
                },
                {
                    "name": "C4",
                    "midi": 60,
                    "time": 29.0149290000001,
                    "velocity": 0.4645669291338583,
                    "duration": 0.35820899999999867
                },
                {
                    "name": "C3",
                    "midi": 48,
                    "time": 29.3731380000001,
                    "velocity": 0.49606299212598426,
                    "duration": 0.35820899999999867
                },
                {
                    "name": "C2",
                    "midi": 36,
                    "time": 29.3731380000001,
                    "velocity": 0.4251968503937008,
                    "duration": 0.35820899999999867
                },
                {
                    "name": "C4",
                    "midi": 60,
                    "time": 29.7313470000001,
                    "velocity": 0.47244094488188976,
                    "duration": 0.35820899999999867
                },
                {
                    "name": "C3",
                    "midi": 48,
                    "time": 29.7313470000001,
                    "velocity": 0.3937007874015748,
                    "duration": 0.35820899999999867
                },
                {
                    "name": "A#4",
                    "midi": 70,
                    "time": 30.089556000000098,
                    "velocity": 0.5511811023622047,
                    "duration": 1.4328359999999947
                },
                {
                    "name": "G3",
                    "midi": 55,
                    "time": 30.447765000000096,
                    "velocity": 0.4645669291338583,
                    "duration": 0.35820899999999867
                },
                {
                    "name": "G2",
                    "midi": 43,
                    "time": 30.447765000000096,
                    "velocity": 0.3937007874015748,
                    "duration": 0.35820899999999867
                },
                {
                    "name": "G2",
                    "midi": 43,
                    "time": 30.805974000000095,
                    "velocity": 0.4251968503937008,
                    "duration": 0.35820899999999867
                },
                {
                    "name": "G1",
                    "midi": 31,
                    "time": 30.805974000000095,
                    "velocity": 0.4251968503937008,
                    "duration": 0.35820899999999867
                },
                {
                    "name": "G3",
                    "midi": 55,
                    "time": 31.164183000000094,
                    "velocity": 0.47244094488188976,
                    "duration": 0.35820899999999867
                },
                {
                    "name": "G2",
                    "midi": 43,
                    "time": 31.164183000000094,
                    "velocity": 0.3937007874015748,
                    "duration": 0.35820899999999867
                },
                {
                    "name": "F#4",
                    "midi": 66,
                    "time": 31.522392000000092,
                    "velocity": 0.5511811023622047,
                    "duration": 1.4328360000000053
                },
                {
                    "name": "C4",
                    "midi": 60,
                    "time": 31.88060100000009,
                    "velocity": 0.4645669291338583,
                    "duration": 0.3582090000000022
                },
                {
                    "name": "C3",
                    "midi": 48,
                    "time": 31.88060100000009,
                    "velocity": 0.3937007874015748,
                    "duration": 0.3582090000000022
                },
                {
                    "name": "C2",
                    "midi": 36,
                    "time": 32.23881000000009,
                    "velocity": 0.4251968503937008,
                    "duration": 0.3582090000000022
                },
                {
                    "name": "C3",
                    "midi": 48,
                    "time": 32.23881000000009,
                    "velocity": 0.49606299212598426,
                    "duration": 0.3582090000000022
                },
                {
                    "name": "C4",
                    "midi": 60,
                    "time": 32.597019000000095,
                    "velocity": 0.47244094488188976,
                    "duration": 0.3582090000000022
                },
                {
                    "name": "C3",
                    "midi": 48,
                    "time": 32.597019000000095,
                    "velocity": 0.3937007874015748,
                    "duration": 0.3582090000000022
                },
                {
                    "name": "A#4",
                    "midi": 70,
                    "time": 32.9552280000001,
                    "velocity": 0.5511811023622047,
                    "duration": 1.4328360000000089
                },
                {
                    "name": "G3",
                    "midi": 55,
                    "time": 33.3134370000001,
                    "velocity": 0.4645669291338583,
                    "duration": 0.3582090000000022
                },
                {
                    "name": "G2",
                    "midi": 43,
                    "time": 33.3134370000001,
                    "velocity": 0.3937007874015748,
                    "duration": 0.3582090000000022
                },
                {
                    "name": "G2",
                    "midi": 43,
                    "time": 33.6716460000001,
                    "velocity": 0.49606299212598426,
                    "duration": 0.3582090000000022
                },
                {
                    "name": "G1",
                    "midi": 31,
                    "time": 33.6716460000001,
                    "velocity": 0.4251968503937008,
                    "duration": 0.3582090000000022
                },
                {
                    "name": "G2",
                    "midi": 43,
                    "time": 34.029855000000104,
                    "velocity": 0.3937007874015748,
                    "duration": 0.3582090000000022
                },
                {
                    "name": "G3",
                    "midi": 55,
                    "time": 34.029855000000104,
                    "velocity": 0.47244094488188976,
                    "duration": 0.3582090000000022
                },
                {
                    "name": "F#4",
                    "midi": 66,
                    "time": 34.38806400000011,
                    "velocity": 0.5511811023622047,
                    "duration": 1.4328360000000089
                },
                {
                    "name": "A2",
                    "midi": 45,
                    "time": 34.74627300000011,
                    "velocity": 0.3937007874015748,
                    "duration": 0.3582090000000022
                },
                {
                    "name": "A3",
                    "midi": 57,
                    "time": 34.74627300000011,
                    "velocity": 0.4645669291338583,
                    "duration": 0.3582090000000022
                },
                {
                    "name": "A1",
                    "midi": 33,
                    "time": 35.10448200000011,
                    "velocity": 0.4251968503937008,
                    "duration": 0.3582090000000022
                },
                {
                    "name": "A2",
                    "midi": 45,
                    "time": 35.10448200000011,
                    "velocity": 0.49606299212598426,
                    "duration": 0.3582090000000022
                },
                {
                    "name": "A2",
                    "midi": 45,
                    "time": 35.46269100000011,
                    "velocity": 0.3937007874015748,
                    "duration": 0.3582090000000022
                },
                {
                    "name": "A3",
                    "midi": 57,
                    "time": 35.46269100000011,
                    "velocity": 0.47244094488188976,
                    "duration": 0.3582090000000022
                },
                {
                    "name": "A#4",
                    "midi": 70,
                    "time": 35.820900000000115,
                    "velocity": 0.5511811023622047,
                    "duration": 1.4328360000000089
                },
                {
                    "name": "E2",
                    "midi": 40,
                    "time": 36.17910900000012,
                    "velocity": 0.3937007874015748,
                    "duration": 0.3582090000000022
                },
                {
                    "name": "E3",
                    "midi": 52,
                    "time": 36.17910900000012,
                    "velocity": 0.4645669291338583,
                    "duration": 0.3582090000000022
                },
                {
                    "name": "E1",
                    "midi": 28,
                    "time": 36.53731800000012,
                    "velocity": 0.4251968503937008,
                    "duration": 0.3582090000000022
                },
                {
                    "name": "E2",
                    "midi": 40,
                    "time": 36.53731800000012,
                    "velocity": 0.49606299212598426,
                    "duration": 0.3582090000000022
                },
                {
                    "name": "E3",
                    "midi": 52,
                    "time": 36.89552700000012,
                    "velocity": 0.47244094488188976,
                    "duration": 0.3582090000000022
                },
                {
                    "name": "E2",
                    "midi": 40,
                    "time": 36.89552700000012,
                    "velocity": 0.3937007874015748,
                    "duration": 0.3582090000000022
                },
                {
                    "name": "F#4",
                    "midi": 66,
                    "time": 37.253736000000124,
                    "velocity": 0.5511811023622047,
                    "duration": 1.4328360000000089
                },
                {
                    "name": "A2",
                    "midi": 45,
                    "time": 37.61194500000013,
                    "velocity": 0.3937007874015748,
                    "duration": 0.3582090000000022
                },
                {
                    "name": "A3",
                    "midi": 57,
                    "time": 37.61194500000013,
                    "velocity": 0.4645669291338583,
                    "duration": 0.3582090000000022
                },
                {
                    "name": "A2",
                    "midi": 45,
                    "time": 37.97015400000013,
                    "velocity": 0.49606299212598426,
                    "duration": 0.3582090000000022
                },
                {
                    "name": "A1",
                    "midi": 33,
                    "time": 37.97015400000013,
                    "velocity": 0.4251968503937008,
                    "duration": 0.3582090000000022
                },
                {
                    "name": "A3",
                    "midi": 57,
                    "time": 38.32836300000013,
                    "velocity": 0.47244094488188976,
                    "duration": 0.3582090000000022
                },
                {
                    "name": "A2",
                    "midi": 45,
                    "time": 38.32836300000013,
                    "velocity": 0.3937007874015748,
                    "duration": 0.3582090000000022
                },
                {
                    "name": "C5",
                    "midi": 72,
                    "time": 38.68657200000013,
                    "velocity": 0.5511811023622047,
                    "duration": 1.4328360000000089
                },
                {
                    "name": "E3",
                    "midi": 52,
                    "time": 39.044781000000135,
                    "velocity": 0.4645669291338583,
                    "duration": 0.3582090000000022
                },
                {
                    "name": "E2",
                    "midi": 40,
                    "time": 39.044781000000135,
                    "velocity": 0.3937007874015748,
                    "duration": 0.3582090000000022
                },
                {
                    "name": "E1",
                    "midi": 28,
                    "time": 39.40299000000014,
                    "velocity": 0.4251968503937008,
                    "duration": 0.3582090000000022
                },
                {
                    "name": "E2",
                    "midi": 40,
                    "time": 39.40299000000014,
                    "velocity": 0.49606299212598426,
                    "duration": 0.3582090000000022
                },
                {
                    "name": "E2",
                    "midi": 40,
                    "time": 39.76119900000014,
                    "velocity": 0.3937007874015748,
                    "duration": 0.3582090000000022
                },
                {
                    "name": "E3",
                    "midi": 52,
                    "time": 39.76119900000014,
                    "velocity": 0.47244094488188976,
                    "duration": 0.3582090000000022
                },
                {
                    "name": "G1",
                    "midi": 31,
                    "time": 40.11940800000014,
                    "velocity": 0.44881889763779526,
                    "duration": 0.1791045000000011
                },
                {
                    "name": "G2",
                    "midi": 43,
                    "time": 40.11940800000014,
                    "velocity": 0.5354330708661418,
                    "duration": 0.1791045000000011
                },
                {
                    "name": "G5",
                    "midi": 79,
                    "time": 40.477617000000144,
                    "velocity": 0.5196850393700787,
                    "duration": 0.1791045000000011
                },
                {
                    "name": "D5",
                    "midi": 74,
                    "time": 40.656721500000145,
                    "velocity": 0.47244094488188976,
                    "duration": 0.1791045000000011
                },
                {
                    "name": "D#5",
                    "midi": 75,
                    "time": 40.83582600000015,
                    "velocity": 0.5118110236220472,
                    "duration": 0.1791045000000011
                },
                {
                    "name": "D5",
                    "midi": 74,
                    "time": 41.01493050000015,
                    "velocity": 0.47244094488188976,
                    "duration": 0.1791045000000011
                },
                {
                    "name": "A#4",
                    "midi": 70,
                    "time": 41.19403500000015,
                    "velocity": 0.5118110236220472,
                    "duration": 0.1791045000000011
                },
                {
                    "name": "G4",
                    "midi": 67,
                    "time": 41.37313950000015,
                    "velocity": 0.47244094488188976,
                    "duration": 0.1791045000000011
                },
                {
                    "name": "G#4",
                    "midi": 68,
                    "time": 41.55224400000015,
                    "velocity": 0.5039370078740157,
                    "duration": 0.1791045000000011
                },
                {
                    "name": "D#5",
                    "midi": 75,
                    "time": 41.73134850000015,
                    "velocity": 0.4566929133858268,
                    "duration": 0.1791045000000011
                },
                {
                    "name": "B4",
                    "midi": 71,
                    "time": 41.91045300000015,
                    "velocity": 0.4881889763779528,
                    "duration": 0.1791045000000011
                },
                {
                    "name": "D#5",
                    "midi": 75,
                    "time": 42.089557500000154,
                    "velocity": 0.4566929133858268,
                    "duration": 0.1791045000000011
                },
                {
                    "name": "D5",
                    "midi": 74,
                    "time": 42.268662000000155,
                    "velocity": 0.49606299212598426,
                    "duration": 0.1791045000000011
                },
                {
                    "name": "G4",
                    "midi": 67,
                    "time": 42.62687100000016,
                    "velocity": 0.48031496062992124,
                    "duration": 0.1791045000000011
                },
                {
                    "name": "G4",
                    "midi": 67,
                    "time": 42.98508000000016,
                    "velocity": 0.5354330708661418,
                    "duration": 0.3582090000000022
                },
                {
                    "name": "G3",
                    "midi": 55,
                    "time": 42.98508000000016,
                    "velocity": 0.44881889763779526,
                    "duration": 0.3582090000000022
                },
                {
                    "name": "G3",
                    "midi": 55,
                    "time": 43.34328900000016,
                    "velocity": 0.4330708661417323,
                    "duration": 0.1791045000000011
                },
                {
                    "name": "G4",
                    "midi": 67,
                    "time": 43.34328900000016,
                    "velocity": 0.5196850393700787,
                    "duration": 0.1791045000000011
                },
                {
                    "name": "D3",
                    "midi": 50,
                    "time": 43.52239350000016,
                    "velocity": 0.3937007874015748,
                    "duration": 0.1791045000000011
                },
                {
                    "name": "D4",
                    "midi": 62,
                    "time": 43.52239350000016,
                    "velocity": 0.47244094488188976,
                    "duration": 0.1791045000000011
                },
                {
                    "name": "D#4",
                    "midi": 63,
                    "time": 43.701498000000164,
                    "velocity": 0.5118110236220472,
                    "duration": 0.1791045000000011
                },
                {
                    "name": "D#3",
                    "midi": 51,
                    "time": 43.701498000000164,
                    "velocity": 0.4330708661417323,
                    "duration": 0.1791045000000011
                },
                {
                    "name": "D3",
                    "midi": 50,
                    "time": 43.880602500000165,
                    "velocity": 0.3937007874015748,
                    "duration": 0.1791045000000011
                },
                {
                    "name": "D4",
                    "midi": 62,
                    "time": 43.880602500000165,
                    "velocity": 0.47244094488188976,
                    "duration": 0.1791045000000011
                },
                {
                    "name": "A#2",
                    "midi": 46,
                    "time": 44.05970700000017,
                    "velocity": 0.4330708661417323,
                    "duration": 0.1791045000000011
                },
                {
                    "name": "A#3",
                    "midi": 58,
                    "time": 44.05970700000017,
                    "velocity": 0.5118110236220472,
                    "duration": 0.1791045000000011
                },
                {
                    "name": "G3",
                    "midi": 55,
                    "time": 44.23881150000017,
                    "velocity": 0.47244094488188976,
                    "duration": 0.1791045000000011
                },
                {
                    "name": "G2",
                    "midi": 43,
                    "time": 44.23881150000017,
                    "velocity": 0.3937007874015748,
                    "duration": 0.1791045000000011
                },
                {
                    "name": "G#3",
                    "midi": 56,
                    "time": 44.41791600000017,
                    "velocity": 0.5039370078740157,
                    "duration": 0.1791045000000011
                },
                {
                    "name": "G#2",
                    "midi": 44,
                    "time": 44.41791600000017,
                    "velocity": 0.4251968503937008,
                    "duration": 0.1791045000000011
                },
                {
                    "name": "D#4",
                    "midi": 63,
                    "time": 44.59702050000017,
                    "velocity": 0.4566929133858268,
                    "duration": 0.1791045000000011
                },
                {
                    "name": "D#3",
                    "midi": 51,
                    "time": 44.59702050000017,
                    "velocity": 0.3858267716535433,
                    "duration": 0.1791045000000011
                },
                {
                    "name": "B2",
                    "midi": 47,
                    "time": 44.77612500000017,
                    "velocity": 0.4094488188976378,
                    "duration": 0.1791045000000011
                },
                {
                    "name": "B3",
                    "midi": 59,
                    "time": 44.77612500000017,
                    "velocity": 0.4881889763779528,
                    "duration": 0.1791045000000011
                },
                {
                    "name": "D#3",
                    "midi": 51,
                    "time": 44.95522950000017,
                    "velocity": 0.3858267716535433,
                    "duration": 0.1791045000000011
                },
                {
                    "name": "D#4",
                    "midi": 63,
                    "time": 44.95522950000017,
                    "velocity": 0.4566929133858268,
                    "duration": 0.1791045000000011
                },
                {
                    "name": "D4",
                    "midi": 62,
                    "time": 45.13433400000017,
                    "velocity": 0.49606299212598426,
                    "duration": 0.1791045000000011
                },
                {
                    "name": "D3",
                    "midi": 50,
                    "time": 45.13433400000017,
                    "velocity": 0.4251968503937008,
                    "duration": 0.1791045000000011
                },
                {
                    "name": "G2",
                    "midi": 43,
                    "time": 45.492543000000175,
                    "velocity": 0.4015748031496063,
                    "duration": 0.1791045000000011
                },
                {
                    "name": "G3",
                    "midi": 55,
                    "time": 45.492543000000175,
                    "velocity": 0.48031496062992124,
                    "duration": 0.1791045000000011
                },
                {
                    "name": "G3",
                    "midi": 55,
                    "time": 45.85075200000018,
                    "velocity": 0.5354330708661418,
                    "duration": 0.3582090000000022
                },
                {
                    "name": "G2",
                    "midi": 43,
                    "time": 45.85075200000018,
                    "velocity": 0.44881889763779526,
                    "duration": 0.3582090000000022
                },
                {
                    "name": "G3",
                    "midi": 55,
                    "time": 46.20896100000018,
                    "velocity": 0.5196850393700787,
                    "duration": 0.1791045000000011
                },
                {
                    "name": "G2",
                    "midi": 43,
                    "time": 46.20896100000018,
                    "velocity": 0.4330708661417323,
                    "duration": 0.1791045000000011
                },
                {
                    "name": "D2",
                    "midi": 38,
                    "time": 46.38806550000018,
                    "velocity": 0.3937007874015748,
                    "duration": 0.1791045000000011
                },
                {
                    "name": "D3",
                    "midi": 50,
                    "time": 46.38806550000018,
                    "velocity": 0.47244094488188976,
                    "duration": 0.1791045000000011
                },
                {
                    "name": "D#2",
                    "midi": 39,
                    "time": 46.56717000000018,
                    "velocity": 0.4330708661417323,
                    "duration": 0.1791045000000011
                },
                {
                    "name": "D#3",
                    "midi": 51,
                    "time": 46.56717000000018,
                    "velocity": 0.5118110236220472,
                    "duration": 0.1791045000000011
                },
                {
                    "name": "D2",
                    "midi": 38,
                    "time": 46.74627450000018,
                    "velocity": 0.3937007874015748,
                    "duration": 0.1791045000000011
                },
                {
                    "name": "D3",
                    "midi": 50,
                    "time": 46.74627450000018,
                    "velocity": 0.47244094488188976,
                    "duration": 0.1791045000000011
                },
                {
                    "name": "A#1",
                    "midi": 34,
                    "time": 46.925379000000184,
                    "velocity": 0.4330708661417323,
                    "duration": 0.1791045000000011
                },
                {
                    "name": "A#2",
                    "midi": 46,
                    "time": 46.925379000000184,
                    "velocity": 0.5118110236220472,
                    "duration": 0.1791045000000011
                },
                {
                    "name": "G2",
                    "midi": 43,
                    "time": 47.104483500000185,
                    "velocity": 0.47244094488188976,
                    "duration": 0.1791045000000011
                },
                {
                    "name": "G1",
                    "midi": 31,
                    "time": 47.104483500000185,
                    "velocity": 0.3937007874015748,
                    "duration": 0.1791045000000011
                },
                {
                    "name": "F#1",
                    "midi": 30,
                    "time": 47.28358800000019,
                    "velocity": 0.4645669291338583,
                    "duration": 0.5373135000000033
                },
                {
                    "name": "F#2",
                    "midi": 42,
                    "time": 47.28358800000019,
                    "velocity": 0.5511811023622047,
                    "duration": 0.5373135000000033
                },
                {
                    "name": "G3",
                    "midi": 55,
                    "time": 47.64179700000019,
                    "velocity": 0.5196850393700787,
                    "duration": 0.1791045000000011
                },
                {
                    "name": "G2",
                    "midi": 43,
                    "time": 47.64179700000019,
                    "velocity": 0.4330708661417323,
                    "duration": 0.1791045000000011
                },
                {
                    "name": "D2",
                    "midi": 38,
                    "time": 47.82090150000019,
                    "velocity": 0.3937007874015748,
                    "duration": 0.1791045000000011
                },
                {
                    "name": "D3",
                    "midi": 50,
                    "time": 47.82090150000019,
                    "velocity": 0.47244094488188976,
                    "duration": 0.1791045000000011
                },
                {
                    "name": "D#2",
                    "midi": 39,
                    "time": 48.00000600000019,
                    "velocity": 0.4330708661417323,
                    "duration": 0.1791045000000011
                },
                {
                    "name": "D#3",
                    "midi": 51,
                    "time": 48.00000600000019,
                    "velocity": 0.5118110236220472,
                    "duration": 0.1791045000000011
                },
                {
                    "name": "D3",
                    "midi": 50,
                    "time": 48.17911050000019,
                    "velocity": 0.47244094488188976,
                    "duration": 0.1791045000000011
                },
                {
                    "name": "D2",
                    "midi": 38,
                    "time": 48.17911050000019,
                    "velocity": 0.3937007874015748,
                    "duration": 0.1791045000000011
                },
                {
                    "name": "A#1",
                    "midi": 34,
                    "time": 48.35821500000019,
                    "velocity": 0.4330708661417323,
                    "duration": 0.1791045000000011
                },
                {
                    "name": "A#2",
                    "midi": 46,
                    "time": 48.35821500000019,
                    "velocity": 0.5118110236220472,
                    "duration": 0.1791045000000011
                },
                {
                    "name": "G1",
                    "midi": 31,
                    "time": 48.537319500000194,
                    "velocity": 0.3937007874015748,
                    "duration": 0.1791045000000011
                },
                {
                    "name": "G2",
                    "midi": 43,
                    "time": 48.537319500000194,
                    "velocity": 0.47244094488188976,
                    "duration": 0.1791045000000011
                },
                {
                    "name": "F1",
                    "midi": 29,
                    "time": 48.716424000000195,
                    "velocity": 0.4645669291338583,
                    "duration": 0.5373135000000033
                },
                {
                    "name": "F2",
                    "midi": 41,
                    "time": 48.716424000000195,
                    "velocity": 0.5511811023622047,
                    "duration": 0.5373135000000033
                },
                {
                    "name": "G2",
                    "midi": 43,
                    "time": 49.0746330000002,
                    "velocity": 0.4330708661417323,
                    "duration": 0.1791045000000011
                },
                {
                    "name": "G3",
                    "midi": 55,
                    "time": 49.0746330000002,
                    "velocity": 0.5196850393700787,
                    "duration": 0.1791045000000011
                },
                {
                    "name": "D3",
                    "midi": 50,
                    "time": 49.2537375000002,
                    "velocity": 0.47244094488188976,
                    "duration": 0.1791045000000011
                },
                {
                    "name": "D2",
                    "midi": 38,
                    "time": 49.2537375000002,
                    "velocity": 0.3937007874015748,
                    "duration": 0.1791045000000011
                },
                {
                    "name": "D#3",
                    "midi": 51,
                    "time": 49.4328420000002,
                    "velocity": 0.5118110236220472,
                    "duration": 0.1791045000000011
                },
                {
                    "name": "D#2",
                    "midi": 39,
                    "time": 49.4328420000002,
                    "velocity": 0.4330708661417323,
                    "duration": 0.1791045000000011
                },
                {
                    "name": "D3",
                    "midi": 50,
                    "time": 49.6119465000002,
                    "velocity": 0.47244094488188976,
                    "duration": 0.1791045000000011
                },
                {
                    "name": "D2",
                    "midi": 38,
                    "time": 49.6119465000002,
                    "velocity": 0.3937007874015748,
                    "duration": 0.1791045000000011
                },
                {
                    "name": "A#1",
                    "midi": 34,
                    "time": 49.7910510000002,
                    "velocity": 0.4330708661417323,
                    "duration": 0.1791045000000011
                },
                {
                    "name": "A#2",
                    "midi": 46,
                    "time": 49.7910510000002,
                    "velocity": 0.5118110236220472,
                    "duration": 0.1791045000000011
                },
                {
                    "name": "G1",
                    "midi": 31,
                    "time": 49.9701555000002,
                    "velocity": 0.3937007874015748,
                    "duration": 0.1791045000000011
                },
                {
                    "name": "G2",
                    "midi": 43,
                    "time": 49.9701555000002,
                    "velocity": 0.47244094488188976,
                    "duration": 0.1791045000000011
                },
                {
                    "name": "E2",
                    "midi": 40,
                    "time": 50.149260000000204,
                    "velocity": 0.5511811023622047,
                    "duration": 0.5373135000000033
                },
                {
                    "name": "E1",
                    "midi": 28,
                    "time": 50.149260000000204,
                    "velocity": 0.4645669291338583,
                    "duration": 0.5373135000000033
                },
                {
                    "name": "G2",
                    "midi": 43,
                    "time": 50.50746900000021,
                    "velocity": 0.4330708661417323,
                    "duration": 0.1791045000000011
                },
                {
                    "name": "G3",
                    "midi": 55,
                    "time": 50.50746900000021,
                    "velocity": 0.5196850393700787,
                    "duration": 0.1791045000000011
                },
                {
                    "name": "D2",
                    "midi": 38,
                    "time": 50.68657350000021,
                    "velocity": 0.3937007874015748,
                    "duration": 0.1791045000000011
                },
                {
                    "name": "D3",
                    "midi": 50,
                    "time": 50.68657350000021,
                    "velocity": 0.47244094488188976,
                    "duration": 0.1791045000000011
                },
                {
                    "name": "D#3",
                    "midi": 51,
                    "time": 50.86567800000021,
                    "velocity": 0.5118110236220472,
                    "duration": 0.1791045000000011
                },
                {
                    "name": "D#2",
                    "midi": 39,
                    "time": 50.86567800000021,
                    "velocity": 0.4330708661417323,
                    "duration": 0.1791045000000011
                },
                {
                    "name": "D3",
                    "midi": 50,
                    "time": 51.04478250000021,
                    "velocity": 0.47244094488188976,
                    "duration": 0.1791045000000011
                },
                {
                    "name": "D2",
                    "midi": 38,
                    "time": 51.04478250000021,
                    "velocity": 0.3937007874015748,
                    "duration": 0.1791045000000011
                },
                {
                    "name": "A#2",
                    "midi": 46,
                    "time": 51.22388700000021,
                    "velocity": 0.5118110236220472,
                    "duration": 0.1791045000000011
                },
                {
                    "name": "A#1",
                    "midi": 34,
                    "time": 51.22388700000021,
                    "velocity": 0.4330708661417323,
                    "duration": 0.1791045000000011
                },
                {
                    "name": "G1",
                    "midi": 31,
                    "time": 51.40299150000021,
                    "velocity": 0.3937007874015748,
                    "duration": 0.1791045000000011
                },
                {
                    "name": "G2",
                    "midi": 43,
                    "time": 51.40299150000021,
                    "velocity": 0.47244094488188976,
                    "duration": 0.1791045000000011
                },
                {
                    "name": "D#1",
                    "midi": 27,
                    "time": 51.58209600000021,
                    "velocity": 0.4645669291338583,
                    "duration": 0.3582090000000022
                },
                {
                    "name": "D#2",
                    "midi": 39,
                    "time": 51.58209600000021,
                    "velocity": 0.5511811023622047,
                    "duration": 0.3582090000000022
                },
                {
                    "name": "D1",
                    "midi": 26,
                    "time": 51.940305000000215,
                    "velocity": 0.4645669291338583,
                    "duration": 0.3582090000000022
                },
                {
                    "name": "D2",
                    "midi": 38,
                    "time": 51.940305000000215,
                    "velocity": 0.5511811023622047,
                    "duration": 0.3582090000000022
                },
                {
                    "name": "B2",
                    "midi": 47,
                    "time": 52.29851400000022,
                    "velocity": 0.5511811023622047,
                    "duration": 0.5373135000000033
                },
                {
                    "name": "B1",
                    "midi": 35,
                    "time": 52.29851400000022,
                    "velocity": 0.4645669291338583,
                    "duration": 0.5373135000000033
                },
                {
                    "name": "G#4",
                    "midi": 68,
                    "time": 52.65672300000022,
                    "velocity": 0.5669291338582677,
                    "duration": 0.1791045000000011
                },
                {
                    "name": "G#3",
                    "midi": 56,
                    "time": 52.65672300000022,
                    "velocity": 0.5669291338582677,
                    "duration": 0.1791045000000011
                },
                {
                    "name": "G6",
                    "midi": 91,
                    "time": 53.01493200000022,
                    "velocity": 0.5984251968503937,
                    "duration": 0.089552249999997
                },
                {
                    "name": "D6",
                    "midi": 86,
                    "time": 53.194036500000216,
                    "velocity": 0.5433070866141733,
                    "duration": 0.089552249999997
                },
                {
                    "name": "D#6",
                    "midi": 87,
                    "time": 53.37314100000021,
                    "velocity": 0.5748031496062992,
                    "duration": 0.089552249999997
                },
                {
                    "name": "B5",
                    "midi": 83,
                    "time": 53.552245500000204,
                    "velocity": 0.5511811023622047,
                    "duration": 0.089552249999997
                },
                {
                    "name": "C6",
                    "midi": 84,
                    "time": 53.7313500000002,
                    "velocity": 0.5748031496062992,
                    "duration": 0.089552249999997
                },
                {
                    "name": "G5",
                    "midi": 79,
                    "time": 53.91045450000019,
                    "velocity": 0.5433070866141733,
                    "duration": 0.089552249999997
                },
                {
                    "name": "G#5",
                    "midi": 80,
                    "time": 54.089559000000186,
                    "velocity": 0.5669291338582677,
                    "duration": 0.089552249999997
                },
                {
                    "name": "D5",
                    "midi": 74,
                    "time": 54.26866350000018,
                    "velocity": 0.5511811023622047,
                    "duration": 0.089552249999997
                },
                {
                    "name": "D#5",
                    "midi": 75,
                    "time": 54.447768000000174,
                    "velocity": 0.5984251968503937,
                    "duration": 0.089552249999997
                },
                {
                    "name": "B4",
                    "midi": 71,
                    "time": 54.62687250000017,
                    "velocity": 0.5196850393700787,
                    "duration": 0.089552249999997
                },
                {
                    "name": "C5",
                    "midi": 72,
                    "time": 54.80597700000016,
                    "velocity": 0.5669291338582677,
                    "duration": 0.089552249999997
                },
                {
                    "name": "G4",
                    "midi": 67,
                    "time": 54.985081500000156,
                    "velocity": 0.5196850393700787,
                    "duration": 0.089552249999997
                },
                {
                    "name": "G#4",
                    "midi": 68,
                    "time": 55.16418600000015,
                    "velocity": 0.5669291338582677,
                    "duration": 0.089552249999997
                },
                {
                    "name": "D4",
                    "midi": 62,
                    "time": 55.343290500000144,
                    "velocity": 0.5275590551181102,
                    "duration": 0.089552249999997
                },
                {
                    "name": "D#4",
                    "midi": 63,
                    "time": 55.52239500000014,
                    "velocity": 0.5669291338582677,
                    "duration": 0.089552249999997
                },
                {
                    "name": "B3",
                    "midi": 59,
                    "time": 55.70149950000013,
                    "velocity": 0.5275590551181102,
                    "duration": 0.089552249999997
                },
                {
                    "name": "C4",
                    "midi": 60,
                    "time": 55.880604000000126,
                    "velocity": 0.5984251968503937,
                    "duration": 0.089552249999997
                },
                {
                    "name": "G3",
                    "midi": 55,
                    "time": 56.05970850000012,
                    "velocity": 0.5275590551181102,
                    "duration": 0.089552249999997
                },
                {
                    "name": "G#3",
                    "midi": 56,
                    "time": 56.238813000000114,
                    "velocity": 0.5748031496062992,
                    "duration": 0.089552249999997
                },
                {
                    "name": "D3",
                    "midi": 50,
                    "time": 56.41791750000011,
                    "velocity": 0.5275590551181102,
                    "duration": 0.089552249999997
                },
                {
                    "name": "D#3",
                    "midi": 51,
                    "time": 56.5970220000001,
                    "velocity": 0.5748031496062992,
                    "duration": 0.089552249999997
                },
                {
                    "name": "B2",
                    "midi": 47,
                    "time": 56.776126500000096,
                    "velocity": 0.5511811023622047,
                    "duration": 0.089552249999997
                },
                {
                    "name": "C3",
                    "midi": 48,
                    "time": 56.95523100000009,
                    "velocity": 0.5826771653543307,
                    "duration": 0.089552249999997
                },
                {
                    "name": "G2",
                    "midi": 43,
                    "time": 57.134335500000084,
                    "velocity": 0.5669291338582677,
                    "duration": 0.089552249999997
                },
                {
                    "name": "G#2",
                    "midi": 44,
                    "time": 57.31344000000008,
                    "velocity": 0.5984251968503937,
                    "duration": 0.089552249999997
                },
                {
                    "name": "D2",
                    "midi": 38,
                    "time": 57.49254450000007,
                    "velocity": 0.5590551181102362,
                    "duration": 0.089552249999997
                },
                {
                    "name": "D#2",
                    "midi": 39,
                    "time": 57.671649000000066,
                    "velocity": 0.5984251968503937,
                    "duration": 0.089552249999997
                },
                {
                    "name": "B1",
                    "midi": 35,
                    "time": 57.85075350000006,
                    "velocity": 0.5669291338582677,
                    "duration": 0.089552249999997
                },
                {
                    "name": "C2",
                    "midi": 36,
                    "time": 58.029858000000054,
                    "velocity": 0.5984251968503937,
                    "duration": 0.089552249999997
                },
                {
                    "name": "G1",
                    "midi": 31,
                    "time": 58.20896250000005,
                    "velocity": 0.5590551181102362,
                    "duration": 0.089552249999997
                },
                {
                    "name": "G#1",
                    "midi": 32,
                    "time": 58.38806700000004,
                    "velocity": 0.6062992125984252,
                    "duration": 0.089552249999997
                },
                {
                    "name": "G1",
                    "midi": 31,
                    "time": 58.567171500000036,
                    "velocity": 0.5669291338582677,
                    "duration": 0.089552249999997
                },
                {
                    "name": "G#1",
                    "midi": 32,
                    "time": 58.74627600000003,
                    "velocity": 0.5984251968503937,
                    "duration": 0.089552249999997
                },
                {
                    "name": "G1",
                    "midi": 31,
                    "time": 58.925380500000024,
                    "velocity": 0.5590551181102362,
                    "duration": 0.089552249999997
                },
                {
                    "name": "B1",
                    "midi": 35,
                    "time": 59.10448500000002,
                    "velocity": 0.5984251968503937,
                    "duration": 0.089552249999997
                },
                {
                    "name": "G1",
                    "midi": 31,
                    "time": 59.28358950000001,
                    "velocity": 0.5433070866141733,
                    "duration": 0.089552249999997
                },
                {
                    "name": "G#2",
                    "midi": 44,
                    "time": 59.462694000000006,
                    "velocity": 0.5826771653543307,
                    "duration": 0.089552249999997
                },
                {
                    "name": "G#1",
                    "midi": 32,
                    "time": 59.462694000000006,
                    "velocity": 0.49606299212598426,
                    "duration": 0.089552249999997
                },
                {
                    "name": "G1",
                    "midi": 31,
                    "time": 59.6417985,
                    "velocity": 0.47244094488188976,
                    "duration": 0.089552249999997
                },
                {
                    "name": "G2",
                    "midi": 43,
                    "time": 59.6417985,
                    "velocity": 0.5590551181102362,
                    "duration": 0.089552249999997
                },
                {
                    "name": "B2",
                    "midi": 47,
                    "time": 59.820902999999994,
                    "velocity": 0.5748031496062992,
                    "duration": 0.089552249999997
                },
                {
                    "name": "B1",
                    "midi": 35,
                    "time": 59.820902999999994,
                    "velocity": 0.4881889763779528,
                    "duration": 0.089552249999997
                },
                {
                    "name": "G1",
                    "midi": 31,
                    "time": 60.00000749999999,
                    "velocity": 0.47244094488188976,
                    "duration": 0.089552249999997
                },
                {
                    "name": "G2",
                    "midi": 43,
                    "time": 60.00000749999999,
                    "velocity": 0.5590551181102362,
                    "duration": 0.089552249999997
                },
                {
                    "name": "G#2",
                    "midi": 44,
                    "time": 60.17911199999998,
                    "velocity": 0.5984251968503937,
                    "duration": 0.1791045000000011
                },
                {
                    "name": "G#1",
                    "midi": 32,
                    "time": 60.17911199999998,
                    "velocity": 0.5039370078740157,
                    "duration": 0.1791045000000011
                },
                {
                    "name": "G#1",
                    "midi": 32,
                    "time": 60.537320999999984,
                    "velocity": 0.48031496062992124,
                    "duration": 0.1791045000000011
                },
                {
                    "name": "G#2",
                    "midi": 44,
                    "time": 60.537320999999984,
                    "velocity": 0.5669291338582677,
                    "duration": 0.1791045000000011
                },
                {
                    "name": "G3",
                    "midi": 55,
                    "time": 60.89552999999999,
                    "velocity": 0.5984251968503937,
                    "duration": 0.1791045000000011
                },
                {
                    "name": "G2",
                    "midi": 43,
                    "time": 60.89552999999999,
                    "velocity": 0.5039370078740157,
                    "duration": 0.1791045000000011
                },
                {
                    "name": "G2",
                    "midi": 43,
                    "time": 61.25373899999999,
                    "velocity": 0.48031496062992124,
                    "duration": 0.1791045000000011
                },
                {
                    "name": "G3",
                    "midi": 55,
                    "time": 61.25373899999999,
                    "velocity": 0.5669291338582677,
                    "duration": 0.1791045000000011
                },
                {
                    "name": "G#2",
                    "midi": 44,
                    "time": 61.61194799999999,
                    "velocity": 0.5984251968503937,
                    "duration": 0.1791045000000011
                },
                {
                    "name": "G#1",
                    "midi": 32,
                    "time": 61.61194799999999,
                    "velocity": 0.5039370078740157,
                    "duration": 0.1791045000000011
                },
                {
                    "name": "G#1",
                    "midi": 32,
                    "time": 61.97015699999999,
                    "velocity": 0.48031496062992124,
                    "duration": 0.1791045000000011
                },
                {
                    "name": "G#2",
                    "midi": 44,
                    "time": 61.97015699999999,
                    "velocity": 0.5669291338582677,
                    "duration": 0.1791045000000011
                },
                {
                    "name": "G2",
                    "midi": 43,
                    "time": 62.328365999999995,
                    "velocity": 0.5039370078740157,
                    "duration": 0.1791045000000011
                },
                {
                    "name": "G3",
                    "midi": 55,
                    "time": 62.328365999999995,
                    "velocity": 0.5984251968503937,
                    "duration": 0.1791045000000011
                },
                {
                    "name": "G3",
                    "midi": 55,
                    "time": 62.686575,
                    "velocity": 0.5669291338582677,
                    "duration": 0.1791045000000011
                },
                {
                    "name": "G2",
                    "midi": 43,
                    "time": 62.686575,
                    "velocity": 0.48031496062992124,
                    "duration": 0.1791045000000011
                },
                {
                    "name": "G#2",
                    "midi": 44,
                    "time": 63.044784,
                    "velocity": 0.5984251968503937,
                    "duration": 0.7164179999999973
                },
                {
                    "name": "G3",
                    "midi": 55,
                    "time": 63.761202,
                    "velocity": 0.5511811023622047,
                    "duration": 0.7164180000000044
                },
                {
                    "name": "G#2",
                    "midi": 44,
                    "time": 64.47762,
                    "velocity": 0.5984251968503937,
                    "duration": 0.7164180000000044
                },
                {
                    "name": "G3",
                    "midi": 55,
                    "time": 65.194038,
                    "velocity": 0.5590551181102362,
                    "duration": 0.7164180000000044
                },
                {
                    "name": "A#3",
                    "midi": 58,
                    "time": 68.77612800000001,
                    "velocity": 0.3779527559055118,
                    "duration": 0.179104499999994
                },
                {
                    "name": "A#2",
                    "midi": 46,
                    "time": 68.77612800000001,
                    "velocity": 0.31496062992125984,
                    "duration": 0.179104499999994
                },
                {
                    "name": "E2",
                    "midi": 40,
                    "time": 69.134337,
                    "velocity": 0.2755905511811024,
                    "duration": 0.7164180000000044
                },
                {
                    "name": "E3",
                    "midi": 52,
                    "time": 69.134337,
                    "velocity": 0.33070866141732286,
                    "duration": 0.7164180000000044
                },
                {
                    "name": "A#3",
                    "midi": 58,
                    "time": 70.20896400000001,
                    "velocity": 0.3700787401574803,
                    "duration": 0.089552249999997
                },
                {
                    "name": "A#2",
                    "midi": 46,
                    "time": 70.20896400000001,
                    "velocity": 0.31496062992125984,
                    "duration": 0.089552249999997
                },
                {
                    "name": "A#2",
                    "midi": 46,
                    "time": 70.3880685,
                    "velocity": 0.2992125984251969,
                    "duration": 0.089552249999997
                },
                {
                    "name": "A#3",
                    "midi": 58,
                    "time": 70.3880685,
                    "velocity": 0.3543307086614173,
                    "duration": 0.089552249999997
                },
                {
                    "name": "E3",
                    "midi": 52,
                    "time": 70.567173,
                    "velocity": 0.31496062992125984,
                    "duration": 0.7164180000000044
                },
                {
                    "name": "E2",
                    "midi": 40,
                    "time": 70.567173,
                    "velocity": 0.2677165354330709,
                    "duration": 0.7164180000000044
                },
                {
                    "name": "A#2",
                    "midi": 46,
                    "time": 71.6418,
                    "velocity": 0.3228346456692913,
                    "duration": 0.089552249999997
                },
                {
                    "name": "A#3",
                    "midi": 58,
                    "time": 71.6418,
                    "velocity": 0.3858267716535433,
                    "duration": 0.089552249999997
                },
                {
                    "name": "D3",
                    "midi": 50,
                    "time": 71.8209045,
                    "velocity": 0.3543307086614173,
                    "duration": 0.089552249999997
                },
                {
                    "name": "D4",
                    "midi": 62,
                    "time": 71.8209045,
                    "velocity": 0.3543307086614173,
                    "duration": 0.089552249999997
                },
                {
                    "name": "C4",
                    "midi": 60,
                    "time": 72.00000899999999,
                    "velocity": 0.3543307086614173,
                    "duration": 0.089552249999997
                },
                {
                    "name": "C3",
                    "midi": 48,
                    "time": 72.00000899999999,
                    "velocity": 0.2992125984251969,
                    "duration": 0.089552249999997
                },
                {
                    "name": "D4",
                    "midi": 62,
                    "time": 72.17911349999999,
                    "velocity": 0.3543307086614173,
                    "duration": 0.089552249999997
                },
                {
                    "name": "D3",
                    "midi": 50,
                    "time": 72.17911349999999,
                    "velocity": 0.3543307086614173,
                    "duration": 0.089552249999997
                },
                {
                    "name": "A#2",
                    "midi": 46,
                    "time": 72.35821799999998,
                    "velocity": 0.30708661417322836,
                    "duration": 0.3582090000000022
                },
                {
                    "name": "A#3",
                    "midi": 58,
                    "time": 72.35821799999998,
                    "velocity": 0.36220472440944884,
                    "duration": 0.3582090000000022
                },
                {
                    "name": "C3",
                    "midi": 48,
                    "time": 72.71642699999998,
                    "velocity": 0.30708661417322836,
                    "duration": 0.089552249999997
                },
                {
                    "name": "C4",
                    "midi": 60,
                    "time": 72.71642699999998,
                    "velocity": 0.36220472440944884,
                    "duration": 0.089552249999997
                },
                {
                    "name": "A#3",
                    "midi": 58,
                    "time": 72.89553149999998,
                    "velocity": 0.3464566929133858,
                    "duration": 0.089552249999997
                },
                {
                    "name": "A#2",
                    "midi": 46,
                    "time": 72.89553149999998,
                    "velocity": 0.28346456692913385,
                    "duration": 0.089552249999997
                },
                {
                    "name": "D3",
                    "midi": 50,
                    "time": 73.07463599999997,
                    "velocity": 0.3228346456692913,
                    "duration": 0.3582090000000022
                },
                {
                    "name": "D4",
                    "midi": 62,
                    "time": 73.07463599999997,
                    "velocity": 0.3858267716535433,
                    "duration": 0.3582090000000022
                },
                {
                    "name": "C4",
                    "midi": 60,
                    "time": 73.43284499999997,
                    "velocity": 0.3543307086614173,
                    "duration": 0.089552249999997
                },
                {
                    "name": "C3",
                    "midi": 48,
                    "time": 73.43284499999997,
                    "velocity": 0.29133858267716534,
                    "duration": 0.089552249999997
                },
                {
                    "name": "A#3",
                    "midi": 58,
                    "time": 73.61194949999997,
                    "velocity": 0.33858267716535434,
                    "duration": 0.089552249999997
                },
                {
                    "name": "A#2",
                    "midi": 46,
                    "time": 73.61194949999997,
                    "velocity": 0.28346456692913385,
                    "duration": 0.089552249999997
                },
                {
                    "name": "B2",
                    "midi": 47,
                    "time": 73.79105399999996,
                    "velocity": 0.29133858267716534,
                    "duration": 0.179104499999994
                },
                {
                    "name": "B3",
                    "midi": 59,
                    "time": 73.79105399999996,
                    "velocity": 0.3543307086614173,
                    "duration": 0.179104499999994
                },
                {
                    "name": "E2",
                    "midi": 40,
                    "time": 74.14926299999995,
                    "velocity": 0.2755905511811024,
                    "duration": 0.7164180000000044
                },
                {
                    "name": "E3",
                    "midi": 52,
                    "time": 74.14926299999995,
                    "velocity": 0.33070866141732286,
                    "duration": 0.7164180000000044
                },
                {
                    "name": "B3",
                    "midi": 59,
                    "time": 75.22388999999995,
                    "velocity": 0.3543307086614173,
                    "duration": 0.089552249999997
                },
                {
                    "name": "B2",
                    "midi": 47,
                    "time": 75.22388999999995,
                    "velocity": 0.29133858267716534,
                    "duration": 0.089552249999997
                },
                {
                    "name": "B2",
                    "midi": 47,
                    "time": 75.40299449999995,
                    "velocity": 0.28346456692913385,
                    "duration": 0.089552249999997
                },
                {
                    "name": "B3",
                    "midi": 59,
                    "time": 75.40299449999995,
                    "velocity": 0.33858267716535434,
                    "duration": 0.089552249999997
                },
                {
                    "name": "E3",
                    "midi": 52,
                    "time": 75.58209899999994,
                    "velocity": 0.31496062992125984,
                    "duration": 0.7164180000000044
                },
                {
                    "name": "E2",
                    "midi": 40,
                    "time": 75.58209899999994,
                    "velocity": 0.2677165354330709,
                    "duration": 0.7164180000000044
                },
                {
                    "name": "G#2",
                    "midi": 44,
                    "time": 76.65672599999995,
                    "velocity": 0.29133858267716534,
                    "duration": 0.089552249999997
                },
                {
                    "name": "G#3",
                    "midi": 56,
                    "time": 76.65672599999995,
                    "velocity": 0.3543307086614173,
                    "duration": 0.089552249999997
                },
                {
                    "name": "C3",
                    "midi": 48,
                    "time": 76.83583049999994,
                    "velocity": 0.2755905511811024,
                    "duration": 0.089552249999997
                },
                {
                    "name": "C4",
                    "midi": 60,
                    "time": 76.83583049999994,
                    "velocity": 0.33070866141732286,
                    "duration": 0.089552249999997
                },
                {
                    "name": "B3",
                    "midi": 59,
                    "time": 77.01493499999994,
                    "velocity": 0.3543307086614173,
                    "duration": 0.089552249999997
                },
                {
                    "name": "B2",
                    "midi": 47,
                    "time": 77.01493499999994,
                    "velocity": 0.2992125984251969,
                    "duration": 0.089552249999997
                },
                {
                    "name": "C3",
                    "midi": 48,
                    "time": 77.19403949999993,
                    "velocity": 0.29133858267716534,
                    "duration": 0.089552249999997
                },
                {
                    "name": "C4",
                    "midi": 60,
                    "time": 77.19403949999993,
                    "velocity": 0.3543307086614173,
                    "duration": 0.089552249999997
                },
                {
                    "name": "G#3",
                    "midi": 56,
                    "time": 77.37314399999993,
                    "velocity": 0.36220472440944884,
                    "duration": 0.3582090000000022
                },
                {
                    "name": "G#2",
                    "midi": 44,
                    "time": 77.37314399999993,
                    "velocity": 0.30708661417322836,
                    "duration": 0.3582090000000022
                },
                {
                    "name": "A3",
                    "midi": 57,
                    "time": 77.73135299999993,
                    "velocity": 0.36220472440944884,
                    "duration": 0.089552249999997
                },
                {
                    "name": "A2",
                    "midi": 45,
                    "time": 77.73135299999993,
                    "velocity": 0.30708661417322836,
                    "duration": 0.089552249999997
                },
                {
                    "name": "G#2",
                    "midi": 44,
                    "time": 77.91045749999992,
                    "velocity": 0.28346456692913385,
                    "duration": 0.089552249999997
                },
                {
                    "name": "G#3",
                    "midi": 56,
                    "time": 77.91045749999992,
                    "velocity": 0.33858267716535434,
                    "duration": 0.089552249999997
                },
                {
                    "name": "C4",
                    "midi": 60,
                    "time": 78.08956199999992,
                    "velocity": 0.3700787401574803,
                    "duration": 0.3582090000000022
                },
                {
                    "name": "C3",
                    "midi": 48,
                    "time": 78.08956199999992,
                    "velocity": 0.31496062992125984,
                    "duration": 0.3582090000000022
                },
                {
                    "name": "B2",
                    "midi": 47,
                    "time": 78.44777099999992,
                    "velocity": 0.29133858267716534,
                    "duration": 0.089552249999997
                },
                {
                    "name": "B3",
                    "midi": 59,
                    "time": 78.44777099999992,
                    "velocity": 0.3543307086614173,
                    "duration": 0.089552249999997
                },
                {
                    "name": "G#3",
                    "midi": 56,
                    "time": 78.62687549999991,
                    "velocity": 0.33858267716535434,
                    "duration": 0.089552249999997
                },
                {
                    "name": "G#2",
                    "midi": 44,
                    "time": 78.62687549999991,
                    "velocity": 0.28346456692913385,
                    "duration": 0.089552249999997
                },
                {
                    "name": "A2",
                    "midi": 45,
                    "time": 78.8059799999999,
                    "velocity": 0.29133858267716534,
                    "duration": 0.179104499999994
                },
                {
                    "name": "A3",
                    "midi": 57,
                    "time": 78.8059799999999,
                    "velocity": 0.3543307086614173,
                    "duration": 0.179104499999994
                },
                {
                    "name": "E3",
                    "midi": 52,
                    "time": 79.1641889999999,
                    "velocity": 0.33070866141732286,
                    "duration": 0.179104499999994
                },
                {
                    "name": "E2",
                    "midi": 40,
                    "time": 79.1641889999999,
                    "velocity": 0.2755905511811024,
                    "duration": 0.179104499999994
                },
                {
                    "name": "D4",
                    "midi": 62,
                    "time": 79.52239799999988,
                    "velocity": 0.31496062992125984,
                    "duration": 0.06716418749999775
                },
                {
                    "name": "A#3",
                    "midi": 58,
                    "time": 79.58209949999988,
                    "velocity": 0.25196850393700787,
                    "duration": 0.06716418749998354
                },
                {
                    "name": "D4",
                    "midi": 62,
                    "time": 79.64180099999987,
                    "velocity": 0.2992125984251969,
                    "duration": 0.06716418749998354
                },
                {
                    "name": "A#3",
                    "midi": 58,
                    "time": 79.70150249999986,
                    "velocity": 0.2440944881889764,
                    "duration": 0.06716418749998354
                },
                {
                    "name": "D4",
                    "midi": 62,
                    "time": 79.76120399999985,
                    "velocity": 0.29133858267716534,
                    "duration": 0.06716418749998354
                },
                {
                    "name": "A#3",
                    "midi": 58,
                    "time": 79.82090549999984,
                    "velocity": 0.25196850393700787,
                    "duration": 0.05970149999998853
                },
                {
                    "name": "C4",
                    "midi": 60,
                    "time": 79.88060699999983,
                    "velocity": 0.28346456692913385,
                    "duration": 0.06716418749999775
                },
                {
                    "name": "A3",
                    "midi": 57,
                    "time": 79.94030849999983,
                    "velocity": 0.23622047244094488,
                    "duration": 0.06716418749998354
                },
                {
                    "name": "C4",
                    "midi": 60,
                    "time": 80.00000999999982,
                    "velocity": 0.28346456692913385,
                    "duration": 0.06716418749998354
                },
                {
                    "name": "A3",
                    "midi": 57,
                    "time": 80.0597114999998,
                    "velocity": 0.2440944881889764,
                    "duration": 0.06716418749998354
                },
                {
                    "name": "C4",
                    "midi": 60,
                    "time": 80.1194129999998,
                    "velocity": 0.28346456692913385,
                    "duration": 0.06716418749998354
                },
                {
                    "name": "A3",
                    "midi": 57,
                    "time": 80.17911449999978,
                    "velocity": 0.2440944881889764,
                    "duration": 0.06716418749998354
                },
                {
                    "name": "A2",
                    "midi": 45,
                    "time": 80.23881599999977,
                    "velocity": 0.3858267716535433,
                    "duration": 0.179104499999994
                },
                {
                    "name": "E2",
                    "midi": 40,
                    "time": 80.59702499999976,
                    "velocity": 0.3543307086614173,
                    "duration": 0.179104499999994
                },
                {
                    "name": "A3",
                    "midi": 57,
                    "time": 80.95523399999975,
                    "velocity": 0.31496062992125984,
                    "duration": 0.06716418749999775
                },
                {
                    "name": "F3",
                    "midi": 53,
                    "time": 81.01493549999975,
                    "velocity": 0.25196850393700787,
                    "duration": 0.06716418749998354
                },
                {
                    "name": "A3",
                    "midi": 57,
                    "time": 81.07463699999974,
                    "velocity": 0.2992125984251969,
                    "duration": 0.06716418749998354
                },
                {
                    "name": "F3",
                    "midi": 53,
                    "time": 81.13433849999973,
                    "velocity": 0.2440944881889764,
                    "duration": 0.06716418749998354
                },
                {
                    "name": "A3",
                    "midi": 57,
                    "time": 81.19403999999972,
                    "velocity": 0.29133858267716534,
                    "duration": 0.06716418749998354
                },
                {
                    "name": "F3",
                    "midi": 53,
                    "time": 81.2537414999997,
                    "velocity": 0.25196850393700787,
                    "duration": 0.05970149999998853
                },
                {
                    "name": "G#3",
                    "midi": 56,
                    "time": 81.3134429999997,
                    "velocity": 0.28346456692913385,
                    "duration": 0.06716418749999775
                },
                {
                    "name": "E3",
                    "midi": 52,
                    "time": 81.3731444999997,
                    "velocity": 0.23622047244094488,
                    "duration": 0.06716418749998354
                },
                {
                    "name": "G#3",
                    "midi": 56,
                    "time": 81.43284599999969,
                    "velocity": 0.28346456692913385,
                    "duration": 0.06716418749998354
                },
                {
                    "name": "E3",
                    "midi": 52,
                    "time": 81.49254749999967,
                    "velocity": 0.2440944881889764,
                    "duration": 0.06716418749998354
                },
                {
                    "name": "G#3",
                    "midi": 56,
                    "time": 81.55224899999966,
                    "velocity": 0.28346456692913385,
                    "duration": 0.06716418749998354
                },
                {
                    "name": "E3",
                    "midi": 52,
                    "time": 81.61195049999965,
                    "velocity": 0.2440944881889764,
                    "duration": 0.06716418749998354
                },
                {
                    "name": "A2",
                    "midi": 45,
                    "time": 81.67165199999964,
                    "velocity": 0.3858267716535433,
                    "duration": 0.179104499999994
                },
                {
                    "name": "E2",
                    "midi": 40,
                    "time": 82.02986099999963,
                    "velocity": 0.33070866141732286,
                    "duration": 0.179104499999994
                },
                {
                    "name": "F3",
                    "midi": 53,
                    "time": 82.38806999999962,
                    "velocity": 0.25984251968503935,
                    "duration": 0.06716418749999775
                },
                {
                    "name": "C#3",
                    "midi": 49,
                    "time": 82.44777149999962,
                    "velocity": 0.2047244094488189,
                    "duration": 0.06716418749998354
                },
                {
                    "name": "F3",
                    "midi": 53,
                    "time": 82.5074729999996,
                    "velocity": 0.25196850393700787,
                    "duration": 0.06716418749998354
                },
                {
                    "name": "C#3",
                    "midi": 49,
                    "time": 82.5671744999996,
                    "velocity": 0.2125984251968504,
                    "duration": 0.06716418749998354
                },
                {
                    "name": "F3",
                    "midi": 53,
                    "time": 82.62687599999958,
                    "velocity": 0.25196850393700787,
                    "duration": 0.06716418749998354
                },
                {
                    "name": "C#3",
                    "midi": 49,
                    "time": 82.68657749999957,
                    "velocity": 0.2047244094488189,
                    "duration": 0.05970149999998853
                },
                {
                    "name": "E3",
                    "midi": 52,
                    "time": 82.74627899999956,
                    "velocity": 0.25196850393700787,
                    "duration": 0.06716418749999775
                },
                {
                    "name": "C3",
                    "midi": 48,
                    "time": 82.80598049999956,
                    "velocity": 0.2125984251968504,
                    "duration": 0.06716418749998354
                },
                {
                    "name": "E3",
                    "midi": 52,
                    "time": 82.86568199999955,
                    "velocity": 0.25196850393700787,
                    "duration": 0.06716418749998354
                },
                {
                    "name": "C3",
                    "midi": 48,
                    "time": 82.92538349999954,
                    "velocity": 0.2125984251968504,
                    "duration": 0.06716418749998354
                },
                {
                    "name": "E3",
                    "midi": 52,
                    "time": 82.98508499999953,
                    "velocity": 0.25984251968503935,
                    "duration": 0.06716418749998354
                },
                {
                    "name": "C3",
                    "midi": 48,
                    "time": 83.04478649999952,
                    "velocity": 0.2125984251968504,
                    "duration": 0.05970149999998853
                },
                {
                    "name": "D#3",
                    "midi": 51,
                    "time": 83.1044879999995,
                    "velocity": 0.25196850393700787,
                    "duration": 0.06716418749999775
                },
                {
                    "name": "B2",
                    "midi": 47,
                    "time": 83.16418949999951,
                    "velocity": 0.2047244094488189,
                    "duration": 0.06716418749998354
                },
                {
                    "name": "D#3",
                    "midi": 51,
                    "time": 83.2238909999995,
                    "velocity": 0.2440944881889764,
                    "duration": 0.06716418749998354
                },
                {
                    "name": "B2",
                    "midi": 47,
                    "time": 83.28359249999949,
                    "velocity": 0.2125984251968504,
                    "duration": 0.06716418749998354
                },
                {
                    "name": "D#3",
                    "midi": 51,
                    "time": 83.34329399999947,
                    "velocity": 0.23622047244094488,
                    "duration": 0.06716418749998354
                },
                {
                    "name": "B2",
                    "midi": 47,
                    "time": 83.40299549999946,
                    "velocity": 0.2047244094488189,
                    "duration": 0.05970149999998853
                },
                {
                    "name": "A#2",
                    "midi": 46,
                    "time": 83.82090599999945,
                    "velocity": 0.31496062992125984,
                    "duration": 0.179104499999994
                },
                {
                    "name": "A#3",
                    "midi": 58,
                    "time": 83.82090599999945,
                    "velocity": 0.3700787401574803,
                    "duration": 0.179104499999994
                },
                {
                    "name": "E3",
                    "midi": 52,
                    "time": 84.17911499999944,
                    "velocity": 0.33070866141732286,
                    "duration": 0.7164180000000044
                },
                {
                    "name": "E2",
                    "midi": 40,
                    "time": 84.17911499999944,
                    "velocity": 0.2755905511811024,
                    "duration": 0.7164180000000044
                },
                {
                    "name": "A#2",
                    "midi": 46,
                    "time": 85.25374199999945,
                    "velocity": 0.31496062992125984,
                    "duration": 0.089552249999997
                },
                {
                    "name": "A#3",
                    "midi": 58,
                    "time": 85.25374199999945,
                    "velocity": 0.3779527559055118,
                    "duration": 0.089552249999997
                },
                {
                    "name": "A#3",
                    "midi": 58,
                    "time": 85.43284649999944,
                    "velocity": 0.3543307086614173,
                    "duration": 0.089552249999997
                },
                {
                    "name": "A#2",
                    "midi": 46,
                    "time": 85.43284649999944,
                    "velocity": 0.2992125984251969,
                    "duration": 0.089552249999997
                },
                {
                    "name": "E3",
                    "midi": 52,
                    "time": 85.61195099999944,
                    "velocity": 0.31496062992125984,
                    "duration": 0.7164180000000044
                },
                {
                    "name": "E2",
                    "midi": 40,
                    "time": 85.61195099999944,
                    "velocity": 0.2677165354330709,
                    "duration": 0.7164180000000044
                },
                {
                    "name": "A#2",
                    "midi": 46,
                    "time": 86.68657799999944,
                    "velocity": 0.31496062992125984,
                    "duration": 0.089552249999997
                },
                {
                    "name": "A#3",
                    "midi": 58,
                    "time": 86.68657799999944,
                    "velocity": 0.3779527559055118,
                    "duration": 0.089552249999997
                },
                {
                    "name": "D3",
                    "midi": 50,
                    "time": 86.86568249999944,
                    "velocity": 0.28346456692913385,
                    "duration": 0.089552249999997
                },
                {
                    "name": "D4",
                    "midi": 62,
                    "time": 86.86568249999944,
                    "velocity": 0.3464566929133858,
                    "duration": 0.089552249999997
                },
                {
                    "name": "C3",
                    "midi": 48,
                    "time": 87.04478699999943,
                    "velocity": 0.2992125984251969,
                    "duration": 0.089552249999997
                },
                {
                    "name": "C4",
                    "midi": 60,
                    "time": 87.04478699999943,
                    "velocity": 0.3543307086614173,
                    "duration": 0.089552249999997
                },
                {
                    "name": "D3",
                    "midi": 50,
                    "time": 87.22389149999943,
                    "velocity": 0.29133858267716534,
                    "duration": 0.089552249999997
                },
                {
                    "name": "D4",
                    "midi": 62,
                    "time": 87.22389149999943,
                    "velocity": 0.3543307086614173,
                    "duration": 0.089552249999997
                },
                {
                    "name": "A#2",
                    "midi": 46,
                    "time": 87.40299599999942,
                    "velocity": 0.30708661417322836,
                    "duration": 0.3582090000000022
                },
                {
                    "name": "A#3",
                    "midi": 58,
                    "time": 87.40299599999942,
                    "velocity": 0.36220472440944884,
                    "duration": 0.3582090000000022
                },
                {
                    "name": "C4",
                    "midi": 60,
                    "time": 87.76120499999942,
                    "velocity": 0.36220472440944884,
                    "duration": 0.089552249999997
                },
                {
                    "name": "C3",
                    "midi": 48,
                    "time": 87.76120499999942,
                    "velocity": 0.30708661417322836,
                    "duration": 0.089552249999997
                },
                {
                    "name": "A#3",
                    "midi": 58,
                    "time": 87.94030949999942,
                    "velocity": 0.33858267716535434,
                    "duration": 0.089552249999997
                },
                {
                    "name": "A#2",
                    "midi": 46,
                    "time": 87.94030949999942,
                    "velocity": 0.28346456692913385,
                    "duration": 0.089552249999997
                },
                {
                    "name": "D3",
                    "midi": 50,
                    "time": 88.11941399999941,
                    "velocity": 0.31496062992125984,
                    "duration": 0.3582090000000022
                },
                {
                    "name": "D4",
                    "midi": 62,
                    "time": 88.11941399999941,
                    "velocity": 0.3700787401574803,
                    "duration": 0.3582090000000022
                },
                {
                    "name": "C3",
                    "midi": 48,
                    "time": 88.47762299999941,
                    "velocity": 0.29133858267716534,
                    "duration": 0.089552249999997
                },
                {
                    "name": "C4",
                    "midi": 60,
                    "time": 88.47762299999941,
                    "velocity": 0.3543307086614173,
                    "duration": 0.089552249999997
                },
                {
                    "name": "A#2",
                    "midi": 46,
                    "time": 88.6567274999994,
                    "velocity": 0.28346456692913385,
                    "duration": 0.089552249999997
                },
                {
                    "name": "A#3",
                    "midi": 58,
                    "time": 88.6567274999994,
                    "velocity": 0.33858267716535434,
                    "duration": 0.089552249999997
                },
                {
                    "name": "B3",
                    "midi": 59,
                    "time": 88.8358319999994,
                    "velocity": 0.3543307086614173,
                    "duration": 0.179104499999994
                },
                {
                    "name": "B2",
                    "midi": 47,
                    "time": 88.8358319999994,
                    "velocity": 0.29133858267716534,
                    "duration": 0.179104499999994
                },
                {
                    "name": "E2",
                    "midi": 40,
                    "time": 89.19404099999939,
                    "velocity": 0.2755905511811024,
                    "duration": 0.7164180000000044
                },
                {
                    "name": "E3",
                    "midi": 52,
                    "time": 89.19404099999939,
                    "velocity": 0.33070866141732286,
                    "duration": 0.7164180000000044
                },
                {
                    "name": "B2",
                    "midi": 47,
                    "time": 90.2686679999994,
                    "velocity": 0.29133858267716534,
                    "duration": 0.089552249999997
                },
                {
                    "name": "B3",
                    "midi": 59,
                    "time": 90.2686679999994,
                    "velocity": 0.3543307086614173,
                    "duration": 0.089552249999997
                },
                {
                    "name": "B2",
                    "midi": 47,
                    "time": 90.44777249999939,
                    "velocity": 0.28346456692913385,
                    "duration": 0.089552249999997
                },
                {
                    "name": "B3",
                    "midi": 59,
                    "time": 90.44777249999939,
                    "velocity": 0.33858267716535434,
                    "duration": 0.089552249999997
                },
                {
                    "name": "E3",
                    "midi": 52,
                    "time": 90.62687699999938,
                    "velocity": 0.31496062992125984,
                    "duration": 0.7164180000000044
                },
                {
                    "name": "E2",
                    "midi": 40,
                    "time": 90.62687699999938,
                    "velocity": 0.2677165354330709,
                    "duration": 0.7164180000000044
                },
                {
                    "name": "G#3",
                    "midi": 56,
                    "time": 91.70150399999939,
                    "velocity": 0.3543307086614173,
                    "duration": 0.089552249999997
                },
                {
                    "name": "G#2",
                    "midi": 44,
                    "time": 91.70150399999939,
                    "velocity": 0.29133858267716534,
                    "duration": 0.089552249999997
                },
                {
                    "name": "C4",
                    "midi": 60,
                    "time": 91.88060849999938,
                    "velocity": 0.33070866141732286,
                    "duration": 0.089552249999997
                },
                {
                    "name": "C3",
                    "midi": 48,
                    "time": 91.88060849999938,
                    "velocity": 0.2755905511811024,
                    "duration": 0.089552249999997
                },
                {
                    "name": "B2",
                    "midi": 47,
                    "time": 92.05971299999938,
                    "velocity": 0.2992125984251969,
                    "duration": 0.089552249999997
                },
                {
                    "name": "B3",
                    "midi": 59,
                    "time": 92.05971299999938,
                    "velocity": 0.3543307086614173,
                    "duration": 0.089552249999997
                },
                {
                    "name": "C3",
                    "midi": 48,
                    "time": 92.23881749999937,
                    "velocity": 0.29133858267716534,
                    "duration": 0.089552249999997
                },
                {
                    "name": "C4",
                    "midi": 60,
                    "time": 92.23881749999937,
                    "velocity": 0.3543307086614173,
                    "duration": 0.089552249999997
                },
                {
                    "name": "G#2",
                    "midi": 44,
                    "time": 92.41792199999936,
                    "velocity": 0.30708661417322836,
                    "duration": 0.3582090000000022
                },
                {
                    "name": "G#3",
                    "midi": 56,
                    "time": 92.41792199999936,
                    "velocity": 0.36220472440944884,
                    "duration": 0.3582090000000022
                },
                {
                    "name": "A2",
                    "midi": 45,
                    "time": 92.77613099999937,
                    "velocity": 0.30708661417322836,
                    "duration": 0.089552249999997
                },
                {
                    "name": "A3",
                    "midi": 57,
                    "time": 92.77613099999937,
                    "velocity": 0.36220472440944884,
                    "duration": 0.089552249999997
                },
                {
                    "name": "G#2",
                    "midi": 44,
                    "time": 92.95523549999936,
                    "velocity": 0.28346456692913385,
                    "duration": 0.089552249999997
                },
                {
                    "name": "G#3",
                    "midi": 56,
                    "time": 92.95523549999936,
                    "velocity": 0.33858267716535434,
                    "duration": 0.089552249999997
                },
                {
                    "name": "C3",
                    "midi": 48,
                    "time": 93.13433999999936,
                    "velocity": 0.31496062992125984,
                    "duration": 0.3582090000000022
                },
                {
                    "name": "C4",
                    "midi": 60,
                    "time": 93.13433999999936,
                    "velocity": 0.3700787401574803,
                    "duration": 0.3582090000000022
                },
                {
                    "name": "B3",
                    "midi": 59,
                    "time": 93.49254899999936,
                    "velocity": 0.3543307086614173,
                    "duration": 0.089552249999997
                },
                {
                    "name": "B2",
                    "midi": 47,
                    "time": 93.49254899999936,
                    "velocity": 0.29133858267716534,
                    "duration": 0.089552249999997
                },
                {
                    "name": "G#2",
                    "midi": 44,
                    "time": 93.67165349999935,
                    "velocity": 0.28346456692913385,
                    "duration": 0.089552249999997
                },
                {
                    "name": "G#3",
                    "midi": 56,
                    "time": 93.67165349999935,
                    "velocity": 0.33858267716535434,
                    "duration": 0.089552249999997
                },
                {
                    "name": "A2",
                    "midi": 45,
                    "time": 93.85075799999935,
                    "velocity": 0.4094488188976378,
                    "duration": 0.7164180000000044
                },
                {
                    "name": "E2",
                    "midi": 40,
                    "time": 94.56717599999935,
                    "velocity": 0.48031496062992124,
                    "duration": 0.7164180000000044
                },
                {
                    "name": "A1",
                    "midi": 33,
                    "time": 95.28359399999935,
                    "velocity": 0.5433070866141733,
                    "duration": 1.4328359999999947
                },
                {
                    "name": "G1",
                    "midi": 31,
                    "time": 96.71642999999935,
                    "velocity": 0.5590551181102362,
                    "duration": 1.4328359999999947
                },
                {
                    "name": "G#3",
                    "midi": 56,
                    "time": 98.14926599999934,
                    "velocity": 0.25196850393700787,
                    "duration": 0.05970150000000274
                },
                {
                    "name": "E3",
                    "midi": 52,
                    "time": 98.14926599999934,
                    "velocity": 0.2125984251968504,
                    "duration": 0.05970150000000274
                },
                {
                    "name": "C4",
                    "midi": 60,
                    "time": 98.19404212499934,
                    "velocity": 0.2204724409448819,
                    "duration": 0.05970150000000274
                },
                {
                    "name": "E3",
                    "midi": 52,
                    "time": 98.23881824999934,
                    "velocity": 0.2125984251968504,
                    "duration": 0.05970150000000274
                },
                {
                    "name": "G#3",
                    "midi": 56,
                    "time": 98.23881824999934,
                    "velocity": 0.25196850393700787,
                    "duration": 0.05970150000000274
                },
                {
                    "name": "C4",
                    "midi": 60,
                    "time": 98.28359437499934,
                    "velocity": 0.2204724409448819,
                    "duration": 0.05970150000000274
                },
                {
                    "name": "G#3",
                    "midi": 56,
                    "time": 98.32837049999934,
                    "velocity": 0.25984251968503935,
                    "duration": 0.05970150000000274
                },
                {
                    "name": "E3",
                    "midi": 52,
                    "time": 98.32837049999934,
                    "velocity": 0.2125984251968504,
                    "duration": 0.05970150000000274
                },
                {
                    "name": "C4",
                    "midi": 60,
                    "time": 98.37314662499934,
                    "velocity": 0.2204724409448819,
                    "duration": 0.05970150000000274
                },
                {
                    "name": "G#3",
                    "midi": 56,
                    "time": 98.41792274999933,
                    "velocity": 0.2677165354330709,
                    "duration": 0.05970150000000274
                },
                {
                    "name": "E3",
                    "midi": 52,
                    "time": 98.41792274999933,
                    "velocity": 0.2204724409448819,
                    "duration": 0.05970150000000274
                },
                {
                    "name": "C4",
                    "midi": 60,
                    "time": 98.46269887499933,
                    "velocity": 0.2283464566929134,
                    "duration": 0.0447761249999985
                },
                {
                    "name": "G3",
                    "midi": 55,
                    "time": 98.50747499999933,
                    "velocity": 0.28346456692913385,
                    "duration": 0.05970150000000274
                },
                {
                    "name": "D#3",
                    "midi": 51,
                    "time": 98.50747499999933,
                    "velocity": 0.23622047244094488,
                    "duration": 0.05970150000000274
                },
                {
                    "name": "B3",
                    "midi": 59,
                    "time": 98.55225112499933,
                    "velocity": 0.25196850393700787,
                    "duration": 0.05970150000000274
                },
                {
                    "name": "D#3",
                    "midi": 51,
                    "time": 98.59702724999933,
                    "velocity": 0.23622047244094488,
                    "duration": 0.05970150000000274
                },
                {
                    "name": "G3",
                    "midi": 55,
                    "time": 98.59702724999933,
                    "velocity": 0.28346456692913385,
                    "duration": 0.05970150000000274
                },
                {
                    "name": "B3",
                    "midi": 59,
                    "time": 98.64180337499933,
                    "velocity": 0.25196850393700787,
                    "duration": 0.05970150000000274
                },
                {
                    "name": "D#3",
                    "midi": 51,
                    "time": 98.68657949999933,
                    "velocity": 0.25984251968503935,
                    "duration": 0.05970150000000274
                },
                {
                    "name": "G3",
                    "midi": 55,
                    "time": 98.68657949999933,
                    "velocity": 0.30708661417322836,
                    "duration": 0.05970150000000274
                },
                {
                    "name": "B3",
                    "midi": 59,
                    "time": 98.73135562499932,
                    "velocity": 0.2677165354330709,
                    "duration": 0.05970150000000274
                },
                {
                    "name": "G3",
                    "midi": 55,
                    "time": 98.77613174999932,
                    "velocity": 0.31496062992125984,
                    "duration": 0.05970150000000274
                },
                {
                    "name": "D#3",
                    "midi": 51,
                    "time": 98.77613174999932,
                    "velocity": 0.2677165354330709,
                    "duration": 0.05970150000000274
                },
                {
                    "name": "B3",
                    "midi": 59,
                    "time": 98.82090787499932,
                    "velocity": 0.2677165354330709,
                    "duration": 0.0447761249999985
                },
                {
                    "name": "D3",
                    "midi": 50,
                    "time": 98.86568399999932,
                    "velocity": 0.2677165354330709,
                    "duration": 0.05970150000000274
                },
                {
                    "name": "F3",
                    "midi": 53,
                    "time": 98.86568399999932,
                    "velocity": 0.31496062992125984,
                    "duration": 0.05970150000000274
                },
                {
                    "name": "A#3",
                    "midi": 58,
                    "time": 98.91046012499932,
                    "velocity": 0.28346456692913385,
                    "duration": 0.05970150000000274
                },
                {
                    "name": "F3",
                    "midi": 53,
                    "time": 98.95523624999932,
                    "velocity": 0.30708661417322836,
                    "duration": 0.05970150000000274
                },
                {
                    "name": "D3",
                    "midi": 50,
                    "time": 98.95523624999932,
                    "velocity": 0.25984251968503935,
                    "duration": 0.05970150000000274
                },
                {
                    "name": "A#3",
                    "midi": 58,
                    "time": 99.00001237499932,
                    "velocity": 0.2677165354330709,
                    "duration": 0.05970150000000274
                },
                {
                    "name": "D3",
                    "midi": 50,
                    "time": 99.04478849999931,
                    "velocity": 0.25984251968503935,
                    "duration": 0.05970150000000274
                },
                {
                    "name": "F3",
                    "midi": 53,
                    "time": 99.04478849999931,
                    "velocity": 0.30708661417322836,
                    "duration": 0.05970150000000274
                },
                {
                    "name": "A#3",
                    "midi": 58,
                    "time": 99.08956462499931,
                    "velocity": 0.25984251968503935,
                    "duration": 0.05970150000000274
                },
                {
                    "name": "D3",
                    "midi": 50,
                    "time": 99.13434074999931,
                    "velocity": 0.23622047244094488,
                    "duration": 0.05970150000000274
                },
                {
                    "name": "F3",
                    "midi": 53,
                    "time": 99.13434074999931,
                    "velocity": 0.28346456692913385,
                    "duration": 0.05970150000000274
                },
                {
                    "name": "A#3",
                    "midi": 58,
                    "time": 99.17911687499931,
                    "velocity": 0.25196850393700787,
                    "duration": 0.0447761249999985
                },
                {
                    "name": "E3",
                    "midi": 52,
                    "time": 99.22389299999931,
                    "velocity": 0.28346456692913385,
                    "duration": 0.05970150000000274
                },
                {
                    "name": "C3",
                    "midi": 48,
                    "time": 99.22389299999931,
                    "velocity": 0.23622047244094488,
                    "duration": 0.05970150000000274
                },
                {
                    "name": "A3",
                    "midi": 57,
                    "time": 99.2686691249993,
                    "velocity": 0.2440944881889764,
                    "duration": 0.05970150000000274
                },
                {
                    "name": "E3",
                    "midi": 52,
                    "time": 99.3134452499993,
                    "velocity": 0.28346456692913385,
                    "duration": 0.05970150000000274
                },
                {
                    "name": "C3",
                    "midi": 48,
                    "time": 99.3134452499993,
                    "velocity": 0.23622047244094488,
                    "duration": 0.05970150000000274
                },
                {
                    "name": "A3",
                    "midi": 57,
                    "time": 99.3582213749993,
                    "velocity": 0.2440944881889764,
                    "duration": 0.05970150000000274
                },
                {
                    "name": "C3",
                    "midi": 48,
                    "time": 99.4029974999993,
                    "velocity": 0.2204724409448819,
                    "duration": 0.05970150000000274
                },
                {
                    "name": "E3",
                    "midi": 52,
                    "time": 99.4029974999993,
                    "velocity": 0.2677165354330709,
                    "duration": 0.05970150000000274
                },
                {
                    "name": "A3",
                    "midi": 57,
                    "time": 99.4477736249993,
                    "velocity": 0.23622047244094488,
                    "duration": 0.05970150000000274
                },
                {
                    "name": "C3",
                    "midi": 48,
                    "time": 99.4925497499993,
                    "velocity": 0.2125984251968504,
                    "duration": 0.05970150000000274
                },
                {
                    "name": "E3",
                    "midi": 52,
                    "time": 99.4925497499993,
                    "velocity": 0.25984251968503935,
                    "duration": 0.05970150000000274
                },
                {
                    "name": "A3",
                    "midi": 57,
                    "time": 99.5373258749993,
                    "velocity": 0.2204724409448819,
                    "duration": 0.0447761249999985
                },
                {
                    "name": "E3",
                    "midi": 52,
                    "time": 99.5821019999993,
                    "velocity": 0.2125984251968504,
                    "duration": 0.05970150000000274
                },
                {
                    "name": "G#3",
                    "midi": 56,
                    "time": 99.5821019999993,
                    "velocity": 0.25196850393700787,
                    "duration": 0.05970150000000274
                },
                {
                    "name": "C4",
                    "midi": 60,
                    "time": 99.6268781249993,
                    "velocity": 0.2204724409448819,
                    "duration": 0.05970150000000274
                },
                {
                    "name": "E3",
                    "midi": 52,
                    "time": 99.67165424999929,
                    "velocity": 0.2125984251968504,
                    "duration": 0.05970150000000274
                },
                {
                    "name": "G#3",
                    "midi": 56,
                    "time": 99.67165424999929,
                    "velocity": 0.25196850393700787,
                    "duration": 0.05970150000000274
                },
                {
                    "name": "C4",
                    "midi": 60,
                    "time": 99.71643037499929,
                    "velocity": 0.2204724409448819,
                    "duration": 0.05970150000000274
                },
                {
                    "name": "G#3",
                    "midi": 56,
                    "time": 99.76120649999929,
                    "velocity": 0.25984251968503935,
                    "duration": 0.05970150000000274
                },
                {
                    "name": "E3",
                    "midi": 52,
                    "time": 99.76120649999929,
                    "velocity": 0.2125984251968504,
                    "duration": 0.05970150000000274
                },
                {
                    "name": "C4",
                    "midi": 60,
                    "time": 99.80598262499929,
                    "velocity": 0.2204724409448819,
                    "duration": 0.05970150000000274
                },
                {
                    "name": "E3",
                    "midi": 52,
                    "time": 99.85075874999929,
                    "velocity": 0.2204724409448819,
                    "duration": 0.05970150000000274
                },
                {
                    "name": "G#3",
                    "midi": 56,
                    "time": 99.85075874999929,
                    "velocity": 0.2677165354330709,
                    "duration": 0.05970150000000274
                },
                {
                    "name": "C4",
                    "midi": 60,
                    "time": 99.89553487499929,
                    "velocity": 0.2283464566929134,
                    "duration": 0.0447761249999985
                },
                {
                    "name": "D#3",
                    "midi": 51,
                    "time": 99.94031099999928,
                    "velocity": 0.23622047244094488,
                    "duration": 0.05970150000000274
                },
                {
                    "name": "G3",
                    "midi": 55,
                    "time": 99.94031099999928,
                    "velocity": 0.28346456692913385,
                    "duration": 0.05970150000000274
                },
                {
                    "name": "B3",
                    "midi": 59,
                    "time": 99.98508712499928,
                    "velocity": 0.25196850393700787,
                    "duration": 0.05970150000000274
                },
                {
                    "name": "D#3",
                    "midi": 51,
                    "time": 100.02986324999928,
                    "velocity": 0.23622047244094488,
                    "duration": 0.05970150000000274
                },
                {
                    "name": "G3",
                    "midi": 55,
                    "time": 100.02986324999928,
                    "velocity": 0.28346456692913385,
                    "duration": 0.05970150000000274
                },
                {
                    "name": "B3",
                    "midi": 59,
                    "time": 100.07463937499928,
                    "velocity": 0.25196850393700787,
                    "duration": 0.05970150000000274
                },
                {
                    "name": "G3",
                    "midi": 55,
                    "time": 100.11941549999928,
                    "velocity": 0.30708661417322836,
                    "duration": 0.05970150000000274
                },
                {
                    "name": "D#3",
                    "midi": 51,
                    "time": 100.11941549999928,
                    "velocity": 0.25984251968503935,
                    "duration": 0.05970150000000274
                },
                {
                    "name": "B3",
                    "midi": 59,
                    "time": 100.16419162499928,
                    "velocity": 0.2677165354330709,
                    "duration": 0.05970150000000274
                },
                {
                    "name": "D#3",
                    "midi": 51,
                    "time": 100.20896774999927,
                    "velocity": 0.2677165354330709,
                    "duration": 0.05970150000000274
                },
                {
                    "name": "G3",
                    "midi": 55,
                    "time": 100.20896774999927,
                    "velocity": 0.31496062992125984,
                    "duration": 0.05970150000000274
                },
                {
                    "name": "B3",
                    "midi": 59,
                    "time": 100.25374387499927,
                    "velocity": 0.2677165354330709,
                    "duration": 0.0447761249999985
                },
                {
                    "name": "D3",
                    "midi": 50,
                    "time": 100.29851999999927,
                    "velocity": 0.2677165354330709,
                    "duration": 0.05970150000000274
                },
                {
                    "name": "F3",
                    "midi": 53,
                    "time": 100.29851999999927,
                    "velocity": 0.31496062992125984,
                    "duration": 0.05970150000000274
                },
                {
                    "name": "A#3",
                    "midi": 58,
                    "time": 100.34329612499927,
                    "velocity": 0.28346456692913385,
                    "duration": 0.05970150000000274
                },
                {
                    "name": "F3",
                    "midi": 53,
                    "time": 100.38807224999927,
                    "velocity": 0.30708661417322836,
                    "duration": 0.05970150000000274
                },
                {
                    "name": "D3",
                    "midi": 50,
                    "time": 100.38807224999927,
                    "velocity": 0.25984251968503935,
                    "duration": 0.05970150000000274
                },
                {
                    "name": "A#3",
                    "midi": 58,
                    "time": 100.43284837499927,
                    "velocity": 0.2677165354330709,
                    "duration": 0.05970150000000274
                },
                {
                    "name": "D3",
                    "midi": 50,
                    "time": 100.47762449999927,
                    "velocity": 0.25984251968503935,
                    "duration": 0.05970150000000274
                },
                {
                    "name": "F3",
                    "midi": 53,
                    "time": 100.47762449999927,
                    "velocity": 0.30708661417322836,
                    "duration": 0.05970150000000274
                },
                {
                    "name": "A#3",
                    "midi": 58,
                    "time": 100.52240062499926,
                    "velocity": 0.25984251968503935,
                    "duration": 0.05970150000000274
                },
                {
                    "name": "F3",
                    "midi": 53,
                    "time": 100.56717674999926,
                    "velocity": 0.28346456692913385,
                    "duration": 0.05970150000000274
                },
                {
                    "name": "D3",
                    "midi": 50,
                    "time": 100.56717674999926,
                    "velocity": 0.23622047244094488,
                    "duration": 0.05970150000000274
                },
                {
                    "name": "A#3",
                    "midi": 58,
                    "time": 100.61195287499926,
                    "velocity": 0.25196850393700787,
                    "duration": 0.0447761249999985
                },
                {
                    "name": "C3",
                    "midi": 48,
                    "time": 100.65672899999926,
                    "velocity": 0.23622047244094488,
                    "duration": 0.05970150000000274
                },
                {
                    "name": "E3",
                    "midi": 52,
                    "time": 100.65672899999926,
                    "velocity": 0.28346456692913385,
                    "duration": 0.05970150000000274
                },
                {
                    "name": "A3",
                    "midi": 57,
                    "time": 100.70150512499926,
                    "velocity": 0.2440944881889764,
                    "duration": 0.05970150000000274
                },
                {
                    "name": "C3",
                    "midi": 48,
                    "time": 100.74628124999926,
                    "velocity": 0.23622047244094488,
                    "duration": 0.05970150000000274
                },
                {
                    "name": "E3",
                    "midi": 52,
                    "time": 100.74628124999926,
                    "velocity": 0.28346456692913385,
                    "duration": 0.05970150000000274
                },
                {
                    "name": "A3",
                    "midi": 57,
                    "time": 100.79105737499926,
                    "velocity": 0.2440944881889764,
                    "duration": 0.05970150000000274
                },
                {
                    "name": "C3",
                    "midi": 48,
                    "time": 100.83583349999925,
                    "velocity": 0.2677165354330709,
                    "duration": 0.05970150000000274
                },
                {
                    "name": "E3",
                    "midi": 52,
                    "time": 100.83583349999925,
                    "velocity": 0.2677165354330709,
                    "duration": 0.05970150000000274
                },
                {
                    "name": "A3",
                    "midi": 57,
                    "time": 100.88060962499925,
                    "velocity": 0.23622047244094488,
                    "duration": 0.05970150000000274
                },
                {
                    "name": "E3",
                    "midi": 52,
                    "time": 100.92538574999925,
                    "velocity": 0.25984251968503935,
                    "duration": 0.05970150000000274
                },
                {
                    "name": "C3",
                    "midi": 48,
                    "time": 100.92538574999925,
                    "velocity": 0.2125984251968504,
                    "duration": 0.05970150000000274
                },
                {
                    "name": "A3",
                    "midi": 57,
                    "time": 100.97016187499925,
                    "velocity": 0.2204724409448819,
                    "duration": 0.0447761249999985
                },
                {
                    "name": "E2",
                    "midi": 40,
                    "time": 101.01493799999925,
                    "velocity": 0.23622047244094488,
                    "duration": 0.05970150000000274
                },
                {
                    "name": "G#2",
                    "midi": 44,
                    "time": 101.01493799999925,
                    "velocity": 0.28346456692913385,
                    "duration": 0.05970150000000274
                },
                {
                    "name": "C3",
                    "midi": 48,
                    "time": 101.05971412499925,
                    "velocity": 0.2283464566929134,
                    "duration": 0.05970150000000274
                },
                {
                    "name": "E2",
                    "midi": 40,
                    "time": 101.10449024999924,
                    "velocity": 0.23622047244094488,
                    "duration": 0.05970150000000274
                },
                {
                    "name": "G#2",
                    "midi": 44,
                    "time": 101.10449024999924,
                    "velocity": 0.28346456692913385,
                    "duration": 0.05970150000000274
                },
                {
                    "name": "C3",
                    "midi": 48,
                    "time": 101.14926637499924,
                    "velocity": 0.23622047244094488,
                    "duration": 0.05970150000000274
                },
                {
                    "name": "G#2",
                    "midi": 44,
                    "time": 101.19404249999924,
                    "velocity": 0.28346456692913385,
                    "duration": 0.05970150000000274
                },
                {
                    "name": "E2",
                    "midi": 40,
                    "time": 101.19404249999924,
                    "velocity": 0.23622047244094488,
                    "duration": 0.05970150000000274
                },
                {
                    "name": "C3",
                    "midi": 48,
                    "time": 101.23881862499924,
                    "velocity": 0.23622047244094488,
                    "duration": 0.05970150000000274
                },
                {
                    "name": "E2",
                    "midi": 40,
                    "time": 101.28359474999924,
                    "velocity": 0.23622047244094488,
                    "duration": 0.05970150000000274
                },
                {
                    "name": "G#2",
                    "midi": 44,
                    "time": 101.28359474999924,
                    "velocity": 0.28346456692913385,
                    "duration": 0.05970150000000274
                },
                {
                    "name": "C3",
                    "midi": 48,
                    "time": 101.32837087499924,
                    "velocity": 0.23622047244094488,
                    "duration": 0.0447761249999985
                },
                {
                    "name": "G2",
                    "midi": 43,
                    "time": 101.37314699999924,
                    "velocity": 0.2677165354330709,
                    "duration": 0.05970150000000274
                },
                {
                    "name": "D#2",
                    "midi": 39,
                    "time": 101.37314699999924,
                    "velocity": 0.2204724409448819,
                    "duration": 0.05970150000000274
                },
                {
                    "name": "B2",
                    "midi": 47,
                    "time": 101.41792312499923,
                    "velocity": 0.2204724409448819,
                    "duration": 0.05970150000000274
                },
                {
                    "name": "D#2",
                    "midi": 39,
                    "time": 101.46269924999923,
                    "velocity": 0.2204724409448819,
                    "duration": 0.05970150000000274
                },
                {
                    "name": "G2",
                    "midi": 43,
                    "time": 101.46269924999923,
                    "velocity": 0.2677165354330709,
                    "duration": 0.05970150000000274
                },
                {
                    "name": "B2",
                    "midi": 47,
                    "time": 101.50747537499923,
                    "velocity": 0.2204724409448819,
                    "duration": 0.05970150000000274
                },
                {
                    "name": "D#2",
                    "midi": 39,
                    "time": 101.55225149999923,
                    "velocity": 0.2204724409448819,
                    "duration": 0.05970150000000274
                },
                {
                    "name": "G2",
                    "midi": 43,
                    "time": 101.55225149999923,
                    "velocity": 0.2677165354330709,
                    "duration": 0.05970150000000274
                },
                {
                    "name": "B2",
                    "midi": 47,
                    "time": 101.59702762499923,
                    "velocity": 0.2125984251968504,
                    "duration": 0.05970150000000274
                },
                {
                    "name": "D#2",
                    "midi": 39,
                    "time": 101.64180374999923,
                    "velocity": 0.2204724409448819,
                    "duration": 0.05970150000000274
                },
                {
                    "name": "G2",
                    "midi": 43,
                    "time": 101.64180374999923,
                    "velocity": 0.2677165354330709,
                    "duration": 0.05970150000000274
                },
                {
                    "name": "B2",
                    "midi": 47,
                    "time": 101.68657987499923,
                    "velocity": 0.2125984251968504,
                    "duration": 0.0447761249999985
                },
                {
                    "name": "F2",
                    "midi": 41,
                    "time": 101.73135599999922,
                    "velocity": 0.23622047244094488,
                    "duration": 0.05970150000000274
                },
                {
                    "name": "D2",
                    "midi": 38,
                    "time": 101.73135599999922,
                    "velocity": 0.1968503937007874,
                    "duration": 0.05970150000000274
                },
                {
                    "name": "A#2",
                    "midi": 46,
                    "time": 101.77613212499922,
                    "velocity": 0.16535433070866143,
                    "duration": 0.05970150000000274
                },
                {
                    "name": "F2",
                    "midi": 41,
                    "time": 101.82090824999922,
                    "velocity": 0.23622047244094488,
                    "duration": 0.05970150000000274
                },
                {
                    "name": "D2",
                    "midi": 38,
                    "time": 101.82090824999922,
                    "velocity": 0.1968503937007874,
                    "duration": 0.05970150000000274
                },
                {
                    "name": "A#2",
                    "midi": 46,
                    "time": 101.86568437499922,
                    "velocity": 0.14960629921259844,
                    "duration": 0.05970150000000274
                },
                {
                    "name": "D2",
                    "midi": 38,
                    "time": 101.91046049999922,
                    "velocity": 0.1968503937007874,
                    "duration": 0.05970150000000274
                },
                {
                    "name": "F2",
                    "midi": 41,
                    "time": 101.91046049999922,
                    "velocity": 0.2283464566929134,
                    "duration": 0.05970150000000274
                },
                {
                    "name": "A#2",
                    "midi": 46,
                    "time": 101.95523662499922,
                    "velocity": 0.14173228346456693,
                    "duration": 0.05970150000000274
                },
                {
                    "name": "F2",
                    "midi": 41,
                    "time": 102.00001274999921,
                    "velocity": 0.2283464566929134,
                    "duration": 0.05970150000000274
                },
                {
                    "name": "D2",
                    "midi": 38,
                    "time": 102.00001274999921,
                    "velocity": 0.1968503937007874,
                    "duration": 0.05970150000000274
                },
                {
                    "name": "A#2",
                    "midi": 46,
                    "time": 102.04478887499921,
                    "velocity": 0.13385826771653545,
                    "duration": 0.0447761249999985
                },
                {
                    "name": "C2",
                    "midi": 36,
                    "time": 102.08956499999921,
                    "velocity": 0.1889763779527559,
                    "duration": 0.05970150000000274
                },
                {
                    "name": "E2",
                    "midi": 40,
                    "time": 102.08956499999921,
                    "velocity": 0.2204724409448819,
                    "duration": 0.05970150000000274
                },
                {
                    "name": "A2",
                    "midi": 45,
                    "time": 102.13434112499921,
                    "velocity": 0.12598425196850394,
                    "duration": 0.05970150000000274
                },
                {
                    "name": "E2",
                    "midi": 40,
                    "time": 102.17911724999921,
                    "velocity": 0.2125984251968504,
                    "duration": 0.05970150000000274
                },
                {
                    "name": "C2",
                    "midi": 36,
                    "time": 102.17911724999921,
                    "velocity": 0.18110236220472442,
                    "duration": 0.05970150000000274
                },
                {
                    "name": "A2",
                    "midi": 45,
                    "time": 102.22389337499921,
                    "velocity": 0.12598425196850394,
                    "duration": 0.05970150000000274
                },
                {
                    "name": "E2",
                    "midi": 40,
                    "time": 102.2686694999992,
                    "velocity": 0.2125984251968504,
                    "duration": 0.05970150000000274
                },
                {
                    "name": "C2",
                    "midi": 36,
                    "time": 102.2686694999992,
                    "velocity": 0.18110236220472442,
                    "duration": 0.05970150000000274
                },
                {
                    "name": "A2",
                    "midi": 45,
                    "time": 102.3134456249992,
                    "velocity": 0.12598425196850394,
                    "duration": 0.05970150000000274
                },
                {
                    "name": "C2",
                    "midi": 36,
                    "time": 102.3582217499992,
                    "velocity": 0.1732283464566929,
                    "duration": 0.05970150000000274
                },
                {
                    "name": "E2",
                    "midi": 40,
                    "time": 102.3582217499992,
                    "velocity": 0.2125984251968504,
                    "duration": 0.05970150000000274
                },
                {
                    "name": "A2",
                    "midi": 45,
                    "time": 102.4029978749992,
                    "velocity": 0.12598425196850394,
                    "duration": 0.0447761249999985
                },
                {
                    "name": "B1",
                    "midi": 35,
                    "time": 102.4477739999992,
                    "velocity": 0.18110236220472442,
                    "duration": 0.05970150000000274
                },
                {
                    "name": "D#2",
                    "midi": 39,
                    "time": 102.4477739999992,
                    "velocity": 0.2125984251968504,
                    "duration": 0.05970150000000274
                },
                {
                    "name": "G2",
                    "midi": 43,
                    "time": 102.4925501249992,
                    "velocity": 0.11811023622047244,
                    "duration": 0.05970150000000274
                },
                {
                    "name": "B1",
                    "midi": 35,
                    "time": 102.5373262499992,
                    "velocity": 0.1732283464566929,
                    "duration": 0.05970150000000274
                },
                {
                    "name": "D#2",
                    "midi": 39,
                    "time": 102.5373262499992,
                    "velocity": 0.2125984251968504,
                    "duration": 0.05970150000000274
                },
                {
                    "name": "G2",
                    "midi": 43,
                    "time": 102.5821023749992,
                    "velocity": 0.11811023622047244,
                    "duration": 0.0447761249999985
                },
                {
                    "name": "B1",
                    "midi": 35,
                    "time": 102.6268784999992,
                    "velocity": 0.1732283464566929,
                    "duration": 0.05970150000000274
                },
                {
                    "name": "D#2",
                    "midi": 39,
                    "time": 102.6268784999992,
                    "velocity": 0.2125984251968504,
                    "duration": 0.05970150000000274
                },
                {
                    "name": "G2",
                    "midi": 43,
                    "time": 102.67165462499919,
                    "velocity": 0.11811023622047244,
                    "duration": 0.05970150000000274
                },
                {
                    "name": "D#2",
                    "midi": 39,
                    "time": 102.71643074999919,
                    "velocity": 0.2125984251968504,
                    "duration": 0.05970150000000274
                },
                {
                    "name": "B1",
                    "midi": 35,
                    "time": 102.71643074999919,
                    "velocity": 0.1732283464566929,
                    "duration": 0.05970150000000274
                },
                {
                    "name": "G2",
                    "midi": 43,
                    "time": 102.76120687499919,
                    "velocity": 0.11023622047244094,
                    "duration": 0.0447761249999985
                },
                {
                    "name": "D#2",
                    "midi": 39,
                    "time": 102.80598299999919,
                    "velocity": 0.2047244094488189,
                    "duration": 0.05970150000000274
                },
                {
                    "name": "B1",
                    "midi": 35,
                    "time": 102.80598299999919,
                    "velocity": 0.16535433070866143,
                    "duration": 0.05970150000000274
                },
                {
                    "name": "G2",
                    "midi": 43,
                    "time": 102.85075912499919,
                    "velocity": 0.11811023622047244,
                    "duration": 0.05970150000000274
                },
                {
                    "name": "B1",
                    "midi": 35,
                    "time": 102.89553524999918,
                    "velocity": 0.16535433070866143,
                    "duration": 0.05970150000000274
                },
                {
                    "name": "D#2",
                    "midi": 39,
                    "time": 102.89553524999918,
                    "velocity": 0.2047244094488189,
                    "duration": 0.05970150000000274
                },
                {
                    "name": "G2",
                    "midi": 43,
                    "time": 102.94031137499918,
                    "velocity": 0.11811023622047244,
                    "duration": 0.05970150000000274
                },
                {
                    "name": "D#2",
                    "midi": 39,
                    "time": 102.98508749999918,
                    "velocity": 0.2047244094488189,
                    "duration": 0.05970150000000274
                },
                {
                    "name": "B1",
                    "midi": 35,
                    "time": 102.98508749999918,
                    "velocity": 0.16535433070866143,
                    "duration": 0.05970150000000274
                },
                {
                    "name": "G2",
                    "midi": 43,
                    "time": 103.02986362499918,
                    "velocity": 0.11811023622047244,
                    "duration": 0.05970150000000274
                },
                {
                    "name": "D#2",
                    "midi": 39,
                    "time": 103.07463974999918,
                    "velocity": 0.2047244094488189,
                    "duration": 0.05970150000000274
                },
                {
                    "name": "B1",
                    "midi": 35,
                    "time": 103.07463974999918,
                    "velocity": 0.16535433070866143,
                    "duration": 0.05970150000000274
                },
                {
                    "name": "G2",
                    "midi": 43,
                    "time": 103.11941587499918,
                    "velocity": 0.11023622047244094,
                    "duration": 0.0447761249999985
                },
                {
                    "name": "D#2",
                    "midi": 39,
                    "time": 103.16419199999918,
                    "velocity": 0.2047244094488189,
                    "duration": 0.05970150000000274
                },
                {
                    "name": "B1",
                    "midi": 35,
                    "time": 103.16419199999918,
                    "velocity": 0.16535433070866143,
                    "duration": 0.05970150000000274
                },
                {
                    "name": "G2",
                    "midi": 43,
                    "time": 103.20896812499917,
                    "velocity": 0.11811023622047244,
                    "duration": 0.05970150000000274
                },
                {
                    "name": "B1",
                    "midi": 35,
                    "time": 103.25374424999917,
                    "velocity": 0.15748031496062992,
                    "duration": 0.05970150000000274
                },
                {
                    "name": "D#2",
                    "midi": 39,
                    "time": 103.25374424999917,
                    "velocity": 0.1968503937007874,
                    "duration": 0.05970150000000274
                },
                {
                    "name": "G2",
                    "midi": 43,
                    "time": 103.29852037499917,
                    "velocity": 0.11811023622047244,
                    "duration": 0.05970150000000274
                },
                {
                    "name": "B1",
                    "midi": 35,
                    "time": 103.34329649999917,
                    "velocity": 0.15748031496062992,
                    "duration": 0.05970150000000274
                },
                {
                    "name": "D#2",
                    "midi": 39,
                    "time": 103.34329649999917,
                    "velocity": 0.1968503937007874,
                    "duration": 0.05970150000000274
                },
                {
                    "name": "G2",
                    "midi": 43,
                    "time": 103.38807262499917,
                    "velocity": 0.11811023622047244,
                    "duration": 0.05970150000000274
                },
                {
                    "name": "B1",
                    "midi": 35,
                    "time": 103.43284874999917,
                    "velocity": 0.14960629921259844,
                    "duration": 0.05970150000000274
                },
                {
                    "name": "D#2",
                    "midi": 39,
                    "time": 103.43284874999917,
                    "velocity": 0.1889763779527559,
                    "duration": 0.05970150000000274
                },
                {
                    "name": "G2",
                    "midi": 43,
                    "time": 103.47762487499917,
                    "velocity": 0.11023622047244094,
                    "duration": 0.0447761249999985
                },
                {
                    "name": "B1",
                    "midi": 35,
                    "time": 103.52240099999916,
                    "velocity": 0.16535433070866143,
                    "duration": 0.3582090000000022
                },
                {
                    "name": "D#2",
                    "midi": 39,
                    "time": 103.52240099999916,
                    "velocity": 0.2047244094488189,
                    "duration": 0.3582090000000022
                },
                {
                    "name": "G2",
                    "midi": 43,
                    "time": 103.88060999999917,
                    "velocity": 0.5354330708661418,
                    "duration": 0.3582090000000022
                },
                {
                    "name": "G1",
                    "midi": 31,
                    "time": 103.88060999999917,
                    "velocity": 0.44881889763779526,
                    "duration": 0.3582090000000022
                },
                {
                    "name": "G1",
                    "midi": 31,
                    "time": 105.31344599999917,
                    "velocity": 0.44881889763779526,
                    "duration": 0.3582090000000022
                },
                {
                    "name": "G2",
                    "midi": 43,
                    "time": 105.31344599999917,
                    "velocity": 0.5354330708661418,
                    "duration": 0.3582090000000022
                },
                {
                    "name": "G2",
                    "midi": 43,
                    "time": 105.67165499999918,
                    "velocity": 0.5118110236220472,
                    "duration": 0.3582090000000022
                },
                {
                    "name": "G1",
                    "midi": 31,
                    "time": 105.67165499999918,
                    "velocity": 0.4330708661417323,
                    "duration": 0.3582090000000022
                },
                {
                    "name": "G2",
                    "midi": 43,
                    "time": 106.74628199999918,
                    "velocity": 0.5354330708661418,
                    "duration": 0.3582090000000022
                },
                {
                    "name": "G1",
                    "midi": 31,
                    "time": 106.74628199999918,
                    "velocity": 0.44881889763779526,
                    "duration": 0.3582090000000022
                },
                {
                    "name": "G1",
                    "midi": 31,
                    "time": 107.10449099999919,
                    "velocity": 0.4330708661417323,
                    "duration": 0.3582090000000022
                },
                {
                    "name": "G2",
                    "midi": 43,
                    "time": 107.10449099999919,
                    "velocity": 0.5118110236220472,
                    "duration": 0.3582090000000022
                },
                {
                    "name": "G1",
                    "midi": 31,
                    "time": 107.46269999999919,
                    "velocity": 0.49606299212598426,
                    "duration": 0.358208999999988
                },
                {
                    "name": "G2",
                    "midi": 43,
                    "time": 107.46269999999919,
                    "velocity": 0.5905511811023622,
                    "duration": 0.089552249999997
                },
                {
                    "name": "G#2",
                    "midi": 44,
                    "time": 107.64180449999918,
                    "velocity": 0.5354330708661418,
                    "duration": 0.089552249999997
                },
                {
                    "name": "G2",
                    "midi": 43,
                    "time": 107.82090899999918,
                    "velocity": 0.5196850393700787,
                    "duration": 0.358208999999988
                },
                {
                    "name": "F3",
                    "midi": 53,
                    "time": 108.00001349999917,
                    "velocity": 0.48031496062992124,
                    "duration": 0.089552249999997
                },
                {
                    "name": "G1",
                    "midi": 31,
                    "time": 108.17911799999916,
                    "velocity": 0.44881889763779526,
                    "duration": 0.3582090000000022
                },
                {
                    "name": "G2",
                    "midi": 43,
                    "time": 108.17911799999916,
                    "velocity": 0.5354330708661418,
                    "duration": 0.3582090000000022
                },
                {
                    "name": "G1",
                    "midi": 31,
                    "time": 108.53732699999917,
                    "velocity": 0.4330708661417323,
                    "duration": 0.3582090000000022
                },
                {
                    "name": "G2",
                    "midi": 43,
                    "time": 108.53732699999917,
                    "velocity": 0.5196850393700787,
                    "duration": 0.3582090000000022
                },
                {
                    "name": "G1",
                    "midi": 31,
                    "time": 108.89553599999917,
                    "velocity": 0.49606299212598426,
                    "duration": 0.358208999999988
                },
                {
                    "name": "G2",
                    "midi": 43,
                    "time": 108.89553599999917,
                    "velocity": 0.5905511811023622,
                    "duration": 0.179104499999994
                },
                {
                    "name": "G#2",
                    "midi": 44,
                    "time": 109.07464049999916,
                    "velocity": 0.5196850393700787,
                    "duration": 0.179104499999994
                },
                {
                    "name": "G2",
                    "midi": 43,
                    "time": 109.25374499999916,
                    "velocity": 0.5196850393700787,
                    "duration": 0.358208999999988
                },
                {
                    "name": "C#3",
                    "midi": 49,
                    "time": 109.43284949999915,
                    "velocity": 0.48031496062992124,
                    "duration": 0.089552249999997
                },
                {
                    "name": "G2",
                    "midi": 43,
                    "time": 109.61195399999914,
                    "velocity": 0.44881889763779526,
                    "duration": 0.3582090000000022
                },
                {
                    "name": "G1",
                    "midi": 31,
                    "time": 109.61195399999914,
                    "velocity": 0.3779527559055118,
                    "duration": 0.3582090000000022
                },
                {
                    "name": "G2",
                    "midi": 43,
                    "time": 109.97016299999915,
                    "velocity": 0.4251968503937008,
                    "duration": 0.3582090000000022
                },
                {
                    "name": "G1",
                    "midi": 31,
                    "time": 109.97016299999915,
                    "velocity": 0.3543307086614173,
                    "duration": 0.3582090000000022
                },
                {
                    "name": "G2",
                    "midi": 43,
                    "time": 110.32837199999915,
                    "velocity": 0.4566929133858268,
                    "duration": 0.3582090000000022
                },
                {
                    "name": "G1",
                    "midi": 31,
                    "time": 110.32837199999915,
                    "velocity": 0.3858267716535433,
                    "duration": 0.3582090000000022
                },
                {
                    "name": "G2",
                    "midi": 43,
                    "time": 110.68658099999915,
                    "velocity": 0.5039370078740157,
                    "duration": 0.3582090000000022
                },
                {
                    "name": "G1",
                    "midi": 31,
                    "time": 110.68658099999915,
                    "velocity": 0.4251968503937008,
                    "duration": 0.3582090000000022
                },
                {
                    "name": "G2",
                    "midi": 43,
                    "time": 111.04478999999915,
                    "velocity": 0.4409448818897638,
                    "duration": 0.089552249999997
                },
                {
                    "name": "G1",
                    "midi": 31,
                    "time": 111.04478999999915,
                    "velocity": 0.3700787401574803,
                    "duration": 0.089552249999997
                },
                {
                    "name": "C2",
                    "midi": 36,
                    "time": 111.22389449999915,
                    "velocity": 0.3464566929133858,
                    "duration": 0.089552249999997
                },
                {
                    "name": "C3",
                    "midi": 48,
                    "time": 111.22389449999915,
                    "velocity": 0.4094488188976378,
                    "duration": 0.089552249999997
                },
                {
                    "name": "G#1",
                    "midi": 32,
                    "time": 111.40299899999914,
                    "velocity": 0.44881889763779526,
                    "duration": 0.089552249999997
                },
                {
                    "name": "G#2",
                    "midi": 44,
                    "time": 111.40299899999914,
                    "velocity": 0.5275590551181102,
                    "duration": 0.089552249999997
                },
                {
                    "name": "C#2",
                    "midi": 37,
                    "time": 111.58210349999914,
                    "velocity": 0.3858267716535433,
                    "duration": 0.089552249999997
                },
                {
                    "name": "C#3",
                    "midi": 49,
                    "time": 111.58210349999914,
                    "velocity": 0.4566929133858268,
                    "duration": 0.089552249999997
                },
                {
                    "name": "A2",
                    "midi": 45,
                    "time": 111.76120799999913,
                    "velocity": 0.44881889763779526,
                    "duration": 0.089552249999997
                },
                {
                    "name": "A1",
                    "midi": 33,
                    "time": 111.76120799999913,
                    "velocity": 0.3779527559055118,
                    "duration": 0.089552249999997
                },
                {
                    "name": "D3",
                    "midi": 50,
                    "time": 111.94031249999912,
                    "velocity": 0.4409448818897638,
                    "duration": 0.089552249999997
                },
                {
                    "name": "D2",
                    "midi": 38,
                    "time": 111.94031249999912,
                    "velocity": 0.3700787401574803,
                    "duration": 0.089552249999997
                },
                {
                    "name": "A#2",
                    "midi": 46,
                    "time": 112.11941699999912,
                    "velocity": 0.5039370078740157,
                    "duration": 0.089552249999997
                },
                {
                    "name": "A#1",
                    "midi": 34,
                    "time": 112.11941699999912,
                    "velocity": 0.4251968503937008,
                    "duration": 0.089552249999997
                },
                {
                    "name": "D#2",
                    "midi": 39,
                    "time": 112.29852149999911,
                    "velocity": 0.36220472440944884,
                    "duration": 0.089552249999997
                },
                {
                    "name": "D#3",
                    "midi": 51,
                    "time": 112.29852149999911,
                    "velocity": 0.4330708661417323,
                    "duration": 0.089552249999997
                },
                {
                    "name": "G1",
                    "midi": 31,
                    "time": 112.4776259999991,
                    "velocity": 0.3937007874015748,
                    "duration": 0.089552249999997
                },
                {
                    "name": "G2",
                    "midi": 43,
                    "time": 112.4776259999991,
                    "velocity": 0.4645669291338583,
                    "duration": 0.089552249999997
                },
                {
                    "name": "C2",
                    "midi": 36,
                    "time": 112.6567304999991,
                    "velocity": 0.3543307086614173,
                    "duration": 0.089552249999997
                },
                {
                    "name": "C3",
                    "midi": 48,
                    "time": 112.6567304999991,
                    "velocity": 0.4251968503937008,
                    "duration": 0.089552249999997
                },
                {
                    "name": "G#2",
                    "midi": 44,
                    "time": 112.8358349999991,
                    "velocity": 0.5511811023622047,
                    "duration": 0.089552249999997
                },
                {
                    "name": "G#1",
                    "midi": 32,
                    "time": 112.8358349999991,
                    "velocity": 0.4645669291338583,
                    "duration": 0.089552249999997
                },
                {
                    "name": "C#2",
                    "midi": 37,
                    "time": 113.01493949999909,
                    "velocity": 0.4015748031496063,
                    "duration": 0.089552249999997
                },
                {
                    "name": "C#3",
                    "midi": 49,
                    "time": 113.01493949999909,
                    "velocity": 0.48031496062992124,
                    "duration": 0.089552249999997
                },
                {
                    "name": "A1",
                    "midi": 33,
                    "time": 113.19404399999908,
                    "velocity": 0.4094488188976378,
                    "duration": 0.089552249999997
                },
                {
                    "name": "A2",
                    "midi": 45,
                    "time": 113.19404399999908,
                    "velocity": 0.49606299212598426,
                    "duration": 0.089552249999997
                },
                {
                    "name": "D2",
                    "midi": 38,
                    "time": 113.37314849999908,
                    "velocity": 0.3937007874015748,
                    "duration": 0.089552249999997
                },
                {
                    "name": "D3",
                    "midi": 50,
                    "time": 113.37314849999908,
                    "velocity": 0.4645669291338583,
                    "duration": 0.089552249999997
                },
                {
                    "name": "A#2",
                    "midi": 46,
                    "time": 113.55225299999907,
                    "velocity": 0.5354330708661418,
                    "duration": 0.089552249999997
                },
                {
                    "name": "A#1",
                    "midi": 34,
                    "time": 113.55225299999907,
                    "velocity": 0.4566929133858268,
                    "duration": 0.089552249999997
                },
                {
                    "name": "D#3",
                    "midi": 51,
                    "time": 113.73135749999906,
                    "velocity": 0.4645669291338583,
                    "duration": 0.089552249999997
                },
                {
                    "name": "D#2",
                    "midi": 39,
                    "time": 113.73135749999906,
                    "velocity": 0.3937007874015748,
                    "duration": 0.089552249999997
                },
                {
                    "name": "G1",
                    "midi": 31,
                    "time": 113.91046199999906,
                    "velocity": 0.48031496062992124,
                    "duration": 0.089552249999997
                },
                {
                    "name": "G2",
                    "midi": 43,
                    "time": 113.91046199999906,
                    "velocity": 0.5669291338582677,
                    "duration": 0.089552249999997
                },
                {
                    "name": "C3",
                    "midi": 48,
                    "time": 114.08956649999905,
                    "velocity": 0.5196850393700787,
                    "duration": 0.089552249999997
                },
                {
                    "name": "C2",
                    "midi": 36,
                    "time": 114.08956649999905,
                    "velocity": 0.4330708661417323,
                    "duration": 0.089552249999997
                },
                {
                    "name": "G#2",
                    "midi": 44,
                    "time": 114.26867099999905,
                    "velocity": 0.5433070866141733,
                    "duration": 0.089552249999997
                },
                {
                    "name": "G#1",
                    "midi": 32,
                    "time": 114.26867099999905,
                    "velocity": 0.4566929133858268,
                    "duration": 0.089552249999997
                },
                {
                    "name": "C#3",
                    "midi": 49,
                    "time": 114.44777549999904,
                    "velocity": 0.49606299212598426,
                    "duration": 0.089552249999997
                },
                {
                    "name": "C#2",
                    "midi": 37,
                    "time": 114.44777549999904,
                    "velocity": 0.4251968503937008,
                    "duration": 0.089552249999997
                },
                {
                    "name": "A1",
                    "midi": 33,
                    "time": 114.62687999999903,
                    "velocity": 0.48031496062992124,
                    "duration": 0.089552249999997
                },
                {
                    "name": "A2",
                    "midi": 45,
                    "time": 114.62687999999903,
                    "velocity": 0.5669291338582677,
                    "duration": 0.089552249999997
                },
                {
                    "name": "D3",
                    "midi": 50,
                    "time": 114.80598449999903,
                    "velocity": 0.5118110236220472,
                    "duration": 0.089552249999997
                },
                {
                    "name": "D2",
                    "midi": 38,
                    "time": 114.80598449999903,
                    "velocity": 0.4330708661417323,
                    "duration": 0.089552249999997
                },
                {
                    "name": "A#2",
                    "midi": 46,
                    "time": 114.98508899999902,
                    "velocity": 0.5511811023622047,
                    "duration": 0.089552249999997
                },
                {
                    "name": "A#1",
                    "midi": 34,
                    "time": 114.98508899999902,
                    "velocity": 0.4645669291338583,
                    "duration": 0.089552249999997
                },
                {
                    "name": "D#3",
                    "midi": 51,
                    "time": 115.16419349999902,
                    "velocity": 0.49606299212598426,
                    "duration": 0.089552249999997
                },
                {
                    "name": "D#2",
                    "midi": 39,
                    "time": 115.16419349999902,
                    "velocity": 0.4251968503937008,
                    "duration": 0.089552249999997
                },
                {
                    "name": "G2",
                    "midi": 43,
                    "time": 115.34329799999901,
                    "velocity": 0.5669291338582677,
                    "duration": 0.089552249999997
                },
                {
                    "name": "G1",
                    "midi": 31,
                    "time": 115.34329799999901,
                    "velocity": 0.48031496062992124,
                    "duration": 0.089552249999997
                },
                {
                    "name": "C2",
                    "midi": 36,
                    "time": 115.522402499999,
                    "velocity": 0.4330708661417323,
                    "duration": 0.089552249999997
                },
                {
                    "name": "C3",
                    "midi": 48,
                    "time": 115.522402499999,
                    "velocity": 0.5196850393700787,
                    "duration": 0.089552249999997
                },
                {
                    "name": "G#2",
                    "midi": 44,
                    "time": 115.701506999999,
                    "velocity": 0.5433070866141733,
                    "duration": 0.089552249999997
                },
                {
                    "name": "G#1",
                    "midi": 32,
                    "time": 115.701506999999,
                    "velocity": 0.4566929133858268,
                    "duration": 0.089552249999997
                },
                {
                    "name": "C#2",
                    "midi": 37,
                    "time": 115.88061149999899,
                    "velocity": 0.4251968503937008,
                    "duration": 0.089552249999997
                },
                {
                    "name": "C#3",
                    "midi": 49,
                    "time": 115.88061149999899,
                    "velocity": 0.49606299212598426,
                    "duration": 0.089552249999997
                },
                {
                    "name": "A2",
                    "midi": 45,
                    "time": 116.05971599999899,
                    "velocity": 0.5669291338582677,
                    "duration": 0.089552249999997
                },
                {
                    "name": "A1",
                    "midi": 33,
                    "time": 116.05971599999899,
                    "velocity": 0.48031496062992124,
                    "duration": 0.089552249999997
                },
                {
                    "name": "D3",
                    "midi": 50,
                    "time": 116.23882049999898,
                    "velocity": 0.5118110236220472,
                    "duration": 0.089552249999997
                },
                {
                    "name": "D2",
                    "midi": 38,
                    "time": 116.23882049999898,
                    "velocity": 0.4330708661417323,
                    "duration": 0.089552249999997
                },
                {
                    "name": "A#2",
                    "midi": 46,
                    "time": 116.41792499999897,
                    "velocity": 0.5511811023622047,
                    "duration": 0.089552249999997
                },
                {
                    "name": "A#1",
                    "midi": 34,
                    "time": 116.41792499999897,
                    "velocity": 0.4645669291338583,
                    "duration": 0.089552249999997
                },
                {
                    "name": "D#3",
                    "midi": 51,
                    "time": 116.59702949999897,
                    "velocity": 0.49606299212598426,
                    "duration": 0.089552249999997
                },
                {
                    "name": "D#2",
                    "midi": 39,
                    "time": 116.59702949999897,
                    "velocity": 0.4251968503937008,
                    "duration": 0.089552249999997
                },
                {
                    "name": "G1",
                    "midi": 31,
                    "time": 116.77613399999896,
                    "velocity": 0.4015748031496063,
                    "duration": 0.089552249999997
                },
                {
                    "name": "G2",
                    "midi": 43,
                    "time": 116.77613399999896,
                    "velocity": 0.48031496062992124,
                    "duration": 0.089552249999997
                },
                {
                    "name": "C2",
                    "midi": 36,
                    "time": 116.95523849999896,
                    "velocity": 0.36220472440944884,
                    "duration": 0.089552249999997
                },
                {
                    "name": "C3",
                    "midi": 48,
                    "time": 116.95523849999896,
                    "velocity": 0.4330708661417323,
                    "duration": 0.089552249999997
                },
                {
                    "name": "G#2",
                    "midi": 44,
                    "time": 117.13434299999895,
                    "velocity": 0.5669291338582677,
                    "duration": 0.089552249999997
                },
                {
                    "name": "G#1",
                    "midi": 32,
                    "time": 117.13434299999895,
                    "velocity": 0.48031496062992124,
                    "duration": 0.089552249999997
                },
                {
                    "name": "C#2",
                    "midi": 37,
                    "time": 117.31344749999894,
                    "velocity": 0.41732283464566927,
                    "duration": 0.089552249999997
                },
                {
                    "name": "C#3",
                    "midi": 49,
                    "time": 117.31344749999894,
                    "velocity": 0.49606299212598426,
                    "duration": 0.089552249999997
                },
                {
                    "name": "A2",
                    "midi": 45,
                    "time": 117.49255199999894,
                    "velocity": 0.4881889763779528,
                    "duration": 0.089552249999997
                },
                {
                    "name": "A1",
                    "midi": 33,
                    "time": 117.49255199999894,
                    "velocity": 0.4094488188976378,
                    "duration": 0.089552249999997
                },
                {
                    "name": "D3",
                    "midi": 50,
                    "time": 117.67165649999893,
                    "velocity": 0.4881889763779528,
                    "duration": 0.089552249999997
                },
                {
                    "name": "D2",
                    "midi": 38,
                    "time": 117.67165649999893,
                    "velocity": 0.4094488188976378,
                    "duration": 0.089552249999997
                },
                {
                    "name": "A#2",
                    "midi": 46,
                    "time": 117.85076099999893,
                    "velocity": 0.5511811023622047,
                    "duration": 0.089552249999997
                },
                {
                    "name": "A#1",
                    "midi": 34,
                    "time": 117.85076099999893,
                    "velocity": 0.4645669291338583,
                    "duration": 0.089552249999997
                },
                {
                    "name": "D#2",
                    "midi": 39,
                    "time": 118.02986549999892,
                    "velocity": 0.4015748031496063,
                    "duration": 0.089552249999997
                },
                {
                    "name": "D#3",
                    "midi": 51,
                    "time": 118.02986549999892,
                    "velocity": 0.48031496062992124,
                    "duration": 0.089552249999997
                },
                {
                    "name": "G1",
                    "midi": 31,
                    "time": 118.20896999999891,
                    "velocity": 0.4330708661417323,
                    "duration": 0.089552249999997
                },
                {
                    "name": "G2",
                    "midi": 43,
                    "time": 118.20896999999891,
                    "velocity": 0.5118110236220472,
                    "duration": 0.089552249999997
                },
                {
                    "name": "C3",
                    "midi": 48,
                    "time": 118.38807449999891,
                    "velocity": 0.4645669291338583,
                    "duration": 0.089552249999997
                },
                {
                    "name": "C2",
                    "midi": 36,
                    "time": 118.38807449999891,
                    "velocity": 0.3937007874015748,
                    "duration": 0.089552249999997
                },
                {
                    "name": "G#2",
                    "midi": 44,
                    "time": 118.5671789999989,
                    "velocity": 0.6220472440944882,
                    "duration": 0.089552249999997
                },
                {
                    "name": "G#1",
                    "midi": 32,
                    "time": 118.5671789999989,
                    "velocity": 0.5196850393700787,
                    "duration": 0.089552249999997
                },
                {
                    "name": "C#2",
                    "midi": 37,
                    "time": 118.7462834999989,
                    "velocity": 0.44881889763779526,
                    "duration": 0.089552249999997
                },
                {
                    "name": "C#3",
                    "midi": 49,
                    "time": 118.7462834999989,
                    "velocity": 0.5354330708661418,
                    "duration": 0.089552249999997
                },
                {
                    "name": "A2",
                    "midi": 45,
                    "time": 118.92538799999889,
                    "velocity": 0.5511811023622047,
                    "duration": 0.089552249999997
                },
                {
                    "name": "A1",
                    "midi": 33,
                    "time": 118.92538799999889,
                    "velocity": 0.4645669291338583,
                    "duration": 0.089552249999997
                },
                {
                    "name": "D3",
                    "midi": 50,
                    "time": 119.10449249999888,
                    "velocity": 0.5196850393700787,
                    "duration": 0.089552249999997
                },
                {
                    "name": "D2",
                    "midi": 38,
                    "time": 119.10449249999888,
                    "velocity": 0.4330708661417323,
                    "duration": 0.089552249999997
                },
                {
                    "name": "A#2",
                    "midi": 46,
                    "time": 119.28359699999888,
                    "velocity": 0.6062992125984252,
                    "duration": 0.089552249999997
                },
                {
                    "name": "A#1",
                    "midi": 34,
                    "time": 119.28359699999888,
                    "velocity": 0.5039370078740157,
                    "duration": 0.089552249999997
                },
                {
                    "name": "D#3",
                    "midi": 51,
                    "time": 119.46270149999887,
                    "velocity": 0.5275590551181102,
                    "duration": 0.089552249999997
                },
                {
                    "name": "D#2",
                    "midi": 39,
                    "time": 119.46270149999887,
                    "velocity": 0.4409448818897638,
                    "duration": 0.089552249999997
                },
                {
                    "name": "G2",
                    "midi": 43,
                    "time": 119.64180599999887,
                    "velocity": 0.5511811023622047,
                    "duration": 0.179104499999994
                },
                {
                    "name": "G1",
                    "midi": 31,
                    "time": 119.64180599999887,
                    "velocity": 0.4645669291338583,
                    "duration": 0.179104499999994
                },
                {
                    "name": "F#2",
                    "midi": 42,
                    "time": 119.82091049999886,
                    "velocity": 0.5118110236220472,
                    "duration": 0.179104499999994
                },
                {
                    "name": "G1",
                    "midi": 31,
                    "time": 120.00001499999885,
                    "velocity": 0.4645669291338583,
                    "duration": 0.179104499999994
                },
                {
                    "name": "G2",
                    "midi": 43,
                    "time": 120.00001499999885,
                    "velocity": 0.5511811023622047,
                    "duration": 0.179104499999994
                },
                {
                    "name": "F#2",
                    "midi": 42,
                    "time": 120.17911949999885,
                    "velocity": 0.5118110236220472,
                    "duration": 0.179104499999994
                },
                {
                    "name": "G2",
                    "midi": 43,
                    "time": 120.35822399999884,
                    "velocity": 0.5511811023622047,
                    "duration": 0.179104499999994
                },
                {
                    "name": "G1",
                    "midi": 31,
                    "time": 120.35822399999884,
                    "velocity": 0.4645669291338583,
                    "duration": 0.179104499999994
                },
                {
                    "name": "F#2",
                    "midi": 42,
                    "time": 120.53732849999884,
                    "velocity": 0.5118110236220472,
                    "duration": 0.179104499999994
                },
                {
                    "name": "G1",
                    "midi": 31,
                    "time": 120.71643299999883,
                    "velocity": 0.4645669291338583,
                    "duration": 0.179104499999994
                },
                {
                    "name": "G2",
                    "midi": 43,
                    "time": 120.71643299999883,
                    "velocity": 0.5511811023622047,
                    "duration": 0.179104499999994
                },
                {
                    "name": "F#2",
                    "midi": 42,
                    "time": 120.89553749999882,
                    "velocity": 0.5118110236220472,
                    "duration": 0.179104499999994
                },
                {
                    "name": "G1",
                    "midi": 31,
                    "time": 121.07464199999882,
                    "velocity": 0.4645669291338583,
                    "duration": 0.179104499999994
                },
                {
                    "name": "G2",
                    "midi": 43,
                    "time": 121.07464199999882,
                    "velocity": 0.5511811023622047,
                    "duration": 0.179104499999994
                },
                {
                    "name": "F#2",
                    "midi": 42,
                    "time": 121.25374649999881,
                    "velocity": 0.5275590551181102,
                    "duration": 0.179104499999994
                },
                {
                    "name": "G2",
                    "midi": 43,
                    "time": 121.4328509999988,
                    "velocity": 0.5511811023622047,
                    "duration": 0.179104499999994
                },
                {
                    "name": "G1",
                    "midi": 31,
                    "time": 121.4328509999988,
                    "velocity": 0.4645669291338583,
                    "duration": 0.179104499999994
                },
                {
                    "name": "F#2",
                    "midi": 42,
                    "time": 121.6119554999988,
                    "velocity": 0.5275590551181102,
                    "duration": 0.179104499999994
                },
                {
                    "name": "C2",
                    "midi": 36,
                    "time": 121.7910599999988,
                    "velocity": 0.48031496062992124,
                    "duration": 0.179104499999994
                },
                {
                    "name": "C3",
                    "midi": 48,
                    "time": 121.7910599999988,
                    "velocity": 0.5669291338582677,
                    "duration": 0.179104499999994
                },
                {
                    "name": "A#2",
                    "midi": 46,
                    "time": 121.97016449999879,
                    "velocity": 0.5590551181102362,
                    "duration": 0.179104499999994
                },
                {
                    "name": "A#1",
                    "midi": 34,
                    "time": 121.97016449999879,
                    "velocity": 0.47244094488188976,
                    "duration": 0.179104499999994
                },
                {
                    "name": "A1",
                    "midi": 33,
                    "time": 122.14926899999878,
                    "velocity": 0.4645669291338583,
                    "duration": 0.179104499999994
                },
                {
                    "name": "A2",
                    "midi": 45,
                    "time": 122.14926899999878,
                    "velocity": 0.5511811023622047,
                    "duration": 0.179104499999994
                },
                {
                    "name": "G#2",
                    "midi": 44,
                    "time": 122.32837349999878,
                    "velocity": 0.5433070866141733,
                    "duration": 0.179104499999994
                },
                {
                    "name": "G#1",
                    "midi": 32,
                    "time": 122.32837349999878,
                    "velocity": 0.4566929133858268,
                    "duration": 0.179104499999994
                },
                {
                    "name": "G2",
                    "midi": 43,
                    "time": 122.50747799999877,
                    "velocity": 0.5511811023622047,
                    "duration": 0.179104499999994
                },
                {
                    "name": "G1",
                    "midi": 31,
                    "time": 122.50747799999877,
                    "velocity": 0.4645669291338583,
                    "duration": 0.179104499999994
                },
                {
                    "name": "F#2",
                    "midi": 42,
                    "time": 122.68658249999876,
                    "velocity": 0.5118110236220472,
                    "duration": 0.179104499999994
                },
                {
                    "name": "G1",
                    "midi": 31,
                    "time": 122.86568699999876,
                    "velocity": 0.4645669291338583,
                    "duration": 0.179104499999994
                },
                {
                    "name": "G2",
                    "midi": 43,
                    "time": 122.86568699999876,
                    "velocity": 0.5511811023622047,
                    "duration": 0.179104499999994
                },
                {
                    "name": "F#2",
                    "midi": 42,
                    "time": 123.04479149999875,
                    "velocity": 0.5118110236220472,
                    "duration": 0.179104499999994
                },
                {
                    "name": "G1",
                    "midi": 31,
                    "time": 123.22389599999875,
                    "velocity": 0.4645669291338583,
                    "duration": 0.179104499999994
                },
                {
                    "name": "G2",
                    "midi": 43,
                    "time": 123.22389599999875,
                    "velocity": 0.5511811023622047,
                    "duration": 0.179104499999994
                },
                {
                    "name": "F#2",
                    "midi": 42,
                    "time": 123.40300049999874,
                    "velocity": 0.5118110236220472,
                    "duration": 0.179104499999994
                },
                {
                    "name": "G2",
                    "midi": 43,
                    "time": 123.58210499999873,
                    "velocity": 0.5511811023622047,
                    "duration": 0.179104499999994
                },
                {
                    "name": "G1",
                    "midi": 31,
                    "time": 123.58210499999873,
                    "velocity": 0.4645669291338583,
                    "duration": 0.179104499999994
                },
                {
                    "name": "F#2",
                    "midi": 42,
                    "time": 123.76120949999873,
                    "velocity": 0.5118110236220472,
                    "duration": 0.179104499999994
                },
                {
                    "name": "G2",
                    "midi": 43,
                    "time": 123.94031399999872,
                    "velocity": 0.5511811023622047,
                    "duration": 0.179104499999994
                },
                {
                    "name": "G1",
                    "midi": 31,
                    "time": 123.94031399999872,
                    "velocity": 0.4645669291338583,
                    "duration": 0.179104499999994
                },
                {
                    "name": "F#2",
                    "midi": 42,
                    "time": 124.11941849999872,
                    "velocity": 0.5275590551181102,
                    "duration": 0.179104499999994
                },
                {
                    "name": "G2",
                    "midi": 43,
                    "time": 124.29852299999871,
                    "velocity": 0.5511811023622047,
                    "duration": 0.179104499999994
                },
                {
                    "name": "G1",
                    "midi": 31,
                    "time": 124.29852299999871,
                    "velocity": 0.4645669291338583,
                    "duration": 0.179104499999994
                },
                {
                    "name": "F#2",
                    "midi": 42,
                    "time": 124.4776274999987,
                    "velocity": 0.5275590551181102,
                    "duration": 0.179104499999994
                },
                {
                    "name": "C2",
                    "midi": 36,
                    "time": 124.6567319999987,
                    "velocity": 0.48031496062992124,
                    "duration": 0.179104499999994
                },
                {
                    "name": "C3",
                    "midi": 48,
                    "time": 124.6567319999987,
                    "velocity": 0.5669291338582677,
                    "duration": 0.179104499999994
                },
                {
                    "name": "B2",
                    "midi": 47,
                    "time": 124.83583649999869,
                    "velocity": 0.5590551181102362,
                    "duration": 0.179104499999994
                },
                {
                    "name": "B1",
                    "midi": 35,
                    "time": 124.83583649999869,
                    "velocity": 0.47244094488188976,
                    "duration": 0.179104499999994
                },
                {
                    "name": "A#2",
                    "midi": 46,
                    "time": 125.01494099999869,
                    "velocity": 0.5511811023622047,
                    "duration": 0.179104499999994
                },
                {
                    "name": "A#1",
                    "midi": 34,
                    "time": 125.01494099999869,
                    "velocity": 0.4645669291338583,
                    "duration": 0.179104499999994
                },
                {
                    "name": "A2",
                    "midi": 45,
                    "time": 125.19404549999868,
                    "velocity": 0.5433070866141733,
                    "duration": 0.179104499999994
                },
                {
                    "name": "A1",
                    "midi": 33,
                    "time": 125.19404549999868,
                    "velocity": 0.4566929133858268,
                    "duration": 0.179104499999994
                },
                {
                    "name": "F#4",
                    "midi": 66,
                    "time": 125.37314999999867,
                    "velocity": 0.5511811023622047,
                    "duration": 1.4328360000000089
                },
                {
                    "name": "C3",
                    "midi": 48,
                    "time": 125.73135899999868,
                    "velocity": 0.3937007874015748,
                    "duration": 0.3582090000000022
                },
                {
                    "name": "C4",
                    "midi": 60,
                    "time": 125.73135899999868,
                    "velocity": 0.4645669291338583,
                    "duration": 0.3582090000000022
                },
                {
                    "name": "C3",
                    "midi": 48,
                    "time": 126.08956799999868,
                    "velocity": 0.49606299212598426,
                    "duration": 0.3582090000000022
                },
                {
                    "name": "C2",
                    "midi": 36,
                    "time": 126.08956799999868,
                    "velocity": 0.4251968503937008,
                    "duration": 0.3582090000000022
                },
                {
                    "name": "C4",
                    "midi": 60,
                    "time": 126.44777699999868,
                    "velocity": 0.47244094488188976,
                    "duration": 0.3582090000000022
                },
                {
                    "name": "C3",
                    "midi": 48,
                    "time": 126.44777699999868,
                    "velocity": 0.3937007874015748,
                    "duration": 0.3582090000000022
                },
                {
                    "name": "A#4",
                    "midi": 70,
                    "time": 126.80598599999868,
                    "velocity": 0.5511811023622047,
                    "duration": 1.4328360000000089
                },
                {
                    "name": "G3",
                    "midi": 55,
                    "time": 127.16419499999868,
                    "velocity": 0.4645669291338583,
                    "duration": 0.3582090000000022
                },
                {
                    "name": "G2",
                    "midi": 43,
                    "time": 127.16419499999868,
                    "velocity": 0.3937007874015748,
                    "duration": 0.3582090000000022
                },
                {
                    "name": "G2",
                    "midi": 43,
                    "time": 127.52240399999869,
                    "velocity": 0.49606299212598426,
                    "duration": 0.3582090000000022
                },
                {
                    "name": "G1",
                    "midi": 31,
                    "time": 127.52240399999869,
                    "velocity": 0.4251968503937008,
                    "duration": 0.3582090000000022
                },
                {
                    "name": "G3",
                    "midi": 55,
                    "time": 127.88061299999869,
                    "velocity": 0.47244094488188976,
                    "duration": 0.3582090000000022
                },
                {
                    "name": "G2",
                    "midi": 43,
                    "time": 127.88061299999869,
                    "velocity": 0.3937007874015748,
                    "duration": 0.3582090000000022
                },
                {
                    "name": "F#4",
                    "midi": 66,
                    "time": 128.2388219999987,
                    "velocity": 0.5511811023622047,
                    "duration": 1.432835999999952
                },
                {
                    "name": "C4",
                    "midi": 60,
                    "time": 128.59703099999868,
                    "velocity": 0.4645669291338583,
                    "duration": 0.358208999999988
                },
                {
                    "name": "C3",
                    "midi": 48,
                    "time": 128.59703099999868,
                    "velocity": 0.3937007874015748,
                    "duration": 0.358208999999988
                },
                {
                    "name": "C2",
                    "midi": 36,
                    "time": 128.95523999999867,
                    "velocity": 0.4251968503937008,
                    "duration": 0.358208999999988
                },
                {
                    "name": "C3",
                    "midi": 48,
                    "time": 128.95523999999867,
                    "velocity": 0.49606299212598426,
                    "duration": 0.358208999999988
                },
                {
                    "name": "C4",
                    "midi": 60,
                    "time": 129.31344899999866,
                    "velocity": 0.47244094488188976,
                    "duration": 0.358208999999988
                },
                {
                    "name": "C3",
                    "midi": 48,
                    "time": 129.31344899999866,
                    "velocity": 0.3937007874015748,
                    "duration": 0.358208999999988
                },
                {
                    "name": "A#4",
                    "midi": 70,
                    "time": 129.67165799999864,
                    "velocity": 0.5511811023622047,
                    "duration": 1.432835999999952
                },
                {
                    "name": "G2",
                    "midi": 43,
                    "time": 130.02986699999863,
                    "velocity": 0.3937007874015748,
                    "duration": 0.358208999999988
                },
                {
                    "name": "G3",
                    "midi": 55,
                    "time": 130.02986699999863,
                    "velocity": 0.4645669291338583,
                    "duration": 0.358208999999988
                },
                {
                    "name": "G2",
                    "midi": 43,
                    "time": 130.38807599999862,
                    "velocity": 0.49606299212598426,
                    "duration": 0.358208999999988
                },
                {
                    "name": "G1",
                    "midi": 31,
                    "time": 130.38807599999862,
                    "velocity": 0.4251968503937008,
                    "duration": 0.358208999999988
                },
                {
                    "name": "G2",
                    "midi": 43,
                    "time": 130.7462849999986,
                    "velocity": 0.3937007874015748,
                    "duration": 0.358208999999988
                },
                {
                    "name": "G3",
                    "midi": 55,
                    "time": 130.7462849999986,
                    "velocity": 0.47244094488188976,
                    "duration": 0.358208999999988
                },
                {
                    "name": "F#4",
                    "midi": 66,
                    "time": 131.1044939999986,
                    "velocity": 0.5511811023622047,
                    "duration": 1.432835999999952
                },
                {
                    "name": "A3",
                    "midi": 57,
                    "time": 131.46270299999858,
                    "velocity": 0.4645669291338583,
                    "duration": 0.358208999999988
                },
                {
                    "name": "A2",
                    "midi": 45,
                    "time": 131.46270299999858,
                    "velocity": 0.3937007874015748,
                    "duration": 0.358208999999988
                },
                {
                    "name": "A1",
                    "midi": 33,
                    "time": 131.82091199999857,
                    "velocity": 0.4251968503937008,
                    "duration": 0.358208999999988
                },
                {
                    "name": "A2",
                    "midi": 45,
                    "time": 131.82091199999857,
                    "velocity": 0.49606299212598426,
                    "duration": 0.358208999999988
                },
                {
                    "name": "A2",
                    "midi": 45,
                    "time": 132.17912099999856,
                    "velocity": 0.3937007874015748,
                    "duration": 0.358208999999988
                },
                {
                    "name": "A3",
                    "midi": 57,
                    "time": 132.17912099999856,
                    "velocity": 0.47244094488188976,
                    "duration": 0.358208999999988
                },
                {
                    "name": "A#4",
                    "midi": 70,
                    "time": 132.53732999999855,
                    "velocity": 0.5511811023622047,
                    "duration": 1.432835999999952
                },
                {
                    "name": "E3",
                    "midi": 52,
                    "time": 132.89553899999854,
                    "velocity": 0.4645669291338583,
                    "duration": 0.358208999999988
                },
                {
                    "name": "E2",
                    "midi": 40,
                    "time": 132.89553899999854,
                    "velocity": 0.3937007874015748,
                    "duration": 0.358208999999988
                },
                {
                    "name": "E1",
                    "midi": 28,
                    "time": 133.25374799999852,
                    "velocity": 0.4251968503937008,
                    "duration": 0.358208999999988
                },
                {
                    "name": "E2",
                    "midi": 40,
                    "time": 133.25374799999852,
                    "velocity": 0.49606299212598426,
                    "duration": 0.358208999999988
                },
                {
                    "name": "E2",
                    "midi": 40,
                    "time": 133.6119569999985,
                    "velocity": 0.3937007874015748,
                    "duration": 0.358208999999988
                },
                {
                    "name": "E3",
                    "midi": 52,
                    "time": 133.6119569999985,
                    "velocity": 0.47244094488188976,
                    "duration": 0.358208999999988
                },
                {
                    "name": "F#4",
                    "midi": 66,
                    "time": 133.9701659999985,
                    "velocity": 0.5511811023622047,
                    "duration": 1.432835999999952
                },
                {
                    "name": "A2",
                    "midi": 45,
                    "time": 134.3283749999985,
                    "velocity": 0.3937007874015748,
                    "duration": 0.358208999999988
                },
                {
                    "name": "A3",
                    "midi": 57,
                    "time": 134.3283749999985,
                    "velocity": 0.4645669291338583,
                    "duration": 0.358208999999988
                },
                {
                    "name": "A2",
                    "midi": 45,
                    "time": 134.68658399999848,
                    "velocity": 0.49606299212598426,
                    "duration": 0.358208999999988
                },
                {
                    "name": "A1",
                    "midi": 33,
                    "time": 134.68658399999848,
                    "velocity": 0.4251968503937008,
                    "duration": 0.358208999999988
                },
                {
                    "name": "A2",
                    "midi": 45,
                    "time": 135.04479299999846,
                    "velocity": 0.3937007874015748,
                    "duration": 0.358208999999988
                },
                {
                    "name": "A3",
                    "midi": 57,
                    "time": 135.04479299999846,
                    "velocity": 0.47244094488188976,
                    "duration": 0.358208999999988
                },
                {
                    "name": "C5",
                    "midi": 72,
                    "time": 135.40300199999845,
                    "velocity": 0.5511811023622047,
                    "duration": 1.432835999999952
                },
                {
                    "name": "E2",
                    "midi": 40,
                    "time": 135.76121099999844,
                    "velocity": 0.3937007874015748,
                    "duration": 0.358208999999988
                },
                {
                    "name": "E3",
                    "midi": 52,
                    "time": 135.76121099999844,
                    "velocity": 0.4645669291338583,
                    "duration": 0.358208999999988
                },
                {
                    "name": "E1",
                    "midi": 28,
                    "time": 136.11941999999843,
                    "velocity": 0.4251968503937008,
                    "duration": 0.358208999999988
                },
                {
                    "name": "E2",
                    "midi": 40,
                    "time": 136.11941999999843,
                    "velocity": 0.49606299212598426,
                    "duration": 0.358208999999988
                },
                {
                    "name": "E2",
                    "midi": 40,
                    "time": 136.47762899999842,
                    "velocity": 0.3937007874015748,
                    "duration": 0.358208999999988
                },
                {
                    "name": "E3",
                    "midi": 52,
                    "time": 136.47762899999842,
                    "velocity": 0.47244094488188976,
                    "duration": 0.358208999999988
                },
                {
                    "name": "G1",
                    "midi": 31,
                    "time": 136.8358379999984,
                    "velocity": 0.44881889763779526,
                    "duration": 0.179104499999994
                },
                {
                    "name": "G2",
                    "midi": 43,
                    "time": 136.8358379999984,
                    "velocity": 0.5354330708661418,
                    "duration": 0.179104499999994
                },
                {
                    "name": "G5",
                    "midi": 79,
                    "time": 137.1940469999984,
                    "velocity": 0.5196850393700787,
                    "duration": 0.179104499999994
                },
                {
                    "name": "D5",
                    "midi": 74,
                    "time": 137.3731514999984,
                    "velocity": 0.47244094488188976,
                    "duration": 0.179104499999994
                },
                {
                    "name": "D#5",
                    "midi": 75,
                    "time": 137.55225599999838,
                    "velocity": 0.5118110236220472,
                    "duration": 0.179104499999994
                },
                {
                    "name": "D5",
                    "midi": 74,
                    "time": 137.73136049999837,
                    "velocity": 0.47244094488188976,
                    "duration": 0.179104499999994
                },
                {
                    "name": "A#4",
                    "midi": 70,
                    "time": 137.91046499999837,
                    "velocity": 0.5118110236220472,
                    "duration": 0.179104499999994
                },
                {
                    "name": "G4",
                    "midi": 67,
                    "time": 138.08956949999836,
                    "velocity": 0.47244094488188976,
                    "duration": 0.179104499999994
                },
                {
                    "name": "G#4",
                    "midi": 68,
                    "time": 138.26867399999836,
                    "velocity": 0.5039370078740157,
                    "duration": 0.179104499999994
                },
                {
                    "name": "D#5",
                    "midi": 75,
                    "time": 138.44777849999835,
                    "velocity": 0.4566929133858268,
                    "duration": 0.179104499999994
                },
                {
                    "name": "B4",
                    "midi": 71,
                    "time": 138.62688299999834,
                    "velocity": 0.4881889763779528,
                    "duration": 0.179104499999994
                },
                {
                    "name": "D#5",
                    "midi": 75,
                    "time": 138.80598749999834,
                    "velocity": 0.4566929133858268,
                    "duration": 0.179104499999994
                },
                {
                    "name": "D5",
                    "midi": 74,
                    "time": 138.98509199999833,
                    "velocity": 0.49606299212598426,
                    "duration": 0.179104499999994
                },
                {
                    "name": "G4",
                    "midi": 67,
                    "time": 139.34330099999832,
                    "velocity": 0.48031496062992124,
                    "duration": 0.179104499999994
                },
                {
                    "name": "G4",
                    "midi": 67,
                    "time": 139.7015099999983,
                    "velocity": 0.5354330708661418,
                    "duration": 0.358208999999988
                },
                {
                    "name": "G3",
                    "midi": 55,
                    "time": 139.7015099999983,
                    "velocity": 0.44881889763779526,
                    "duration": 0.358208999999988
                },
                {
                    "name": "G4",
                    "midi": 67,
                    "time": 140.0597189999983,
                    "velocity": 0.5196850393700787,
                    "duration": 0.179104499999994
                },
                {
                    "name": "G3",
                    "midi": 55,
                    "time": 140.0597189999983,
                    "velocity": 0.4330708661417323,
                    "duration": 0.179104499999994
                },
                {
                    "name": "D3",
                    "midi": 50,
                    "time": 140.2388234999983,
                    "velocity": 0.3937007874015748,
                    "duration": 0.179104499999994
                },
                {
                    "name": "D4",
                    "midi": 62,
                    "time": 140.2388234999983,
                    "velocity": 0.47244094488188976,
                    "duration": 0.179104499999994
                },
                {
                    "name": "D#3",
                    "midi": 51,
                    "time": 140.41792799999828,
                    "velocity": 0.4330708661417323,
                    "duration": 0.179104499999994
                },
                {
                    "name": "D#4",
                    "midi": 63,
                    "time": 140.41792799999828,
                    "velocity": 0.5118110236220472,
                    "duration": 0.179104499999994
                },
                {
                    "name": "D3",
                    "midi": 50,
                    "time": 140.59703249999828,
                    "velocity": 0.3937007874015748,
                    "duration": 0.179104499999994
                },
                {
                    "name": "D4",
                    "midi": 62,
                    "time": 140.59703249999828,
                    "velocity": 0.47244094488188976,
                    "duration": 0.179104499999994
                },
                {
                    "name": "A#3",
                    "midi": 58,
                    "time": 140.77613699999827,
                    "velocity": 0.5118110236220472,
                    "duration": 0.179104499999994
                },
                {
                    "name": "A#2",
                    "midi": 46,
                    "time": 140.77613699999827,
                    "velocity": 0.4330708661417323,
                    "duration": 0.179104499999994
                },
                {
                    "name": "G3",
                    "midi": 55,
                    "time": 140.95524149999827,
                    "velocity": 0.47244094488188976,
                    "duration": 0.179104499999994
                },
                {
                    "name": "G2",
                    "midi": 43,
                    "time": 140.95524149999827,
                    "velocity": 0.3937007874015748,
                    "duration": 0.179104499999994
                },
                {
                    "name": "G#3",
                    "midi": 56,
                    "time": 141.13434599999826,
                    "velocity": 0.5039370078740157,
                    "duration": 0.179104499999994
                },
                {
                    "name": "G#2",
                    "midi": 44,
                    "time": 141.13434599999826,
                    "velocity": 0.4251968503937008,
                    "duration": 0.179104499999994
                },
                {
                    "name": "D#3",
                    "midi": 51,
                    "time": 141.31345049999825,
                    "velocity": 0.3858267716535433,
                    "duration": 0.179104499999994
                },
                {
                    "name": "D#4",
                    "midi": 63,
                    "time": 141.31345049999825,
                    "velocity": 0.4566929133858268,
                    "duration": 0.179104499999994
                },
                {
                    "name": "B2",
                    "midi": 47,
                    "time": 141.49255499999825,
                    "velocity": 0.4094488188976378,
                    "duration": 0.179104499999994
                },
                {
                    "name": "B3",
                    "midi": 59,
                    "time": 141.49255499999825,
                    "velocity": 0.4881889763779528,
                    "duration": 0.179104499999994
                },
                {
                    "name": "D#4",
                    "midi": 63,
                    "time": 141.67165949999824,
                    "velocity": 0.4566929133858268,
                    "duration": 0.179104499999994
                },
                {
                    "name": "D#3",
                    "midi": 51,
                    "time": 141.67165949999824,
                    "velocity": 0.4566929133858268,
                    "duration": 0.179104499999994
                },
                {
                    "name": "D4",
                    "midi": 62,
                    "time": 141.85076399999824,
                    "velocity": 0.49606299212598426,
                    "duration": 0.179104499999994
                },
                {
                    "name": "D3",
                    "midi": 50,
                    "time": 141.85076399999824,
                    "velocity": 0.4251968503937008,
                    "duration": 0.179104499999994
                },
                {
                    "name": "G2",
                    "midi": 43,
                    "time": 142.20897299999822,
                    "velocity": 0.4015748031496063,
                    "duration": 0.179104499999994
                },
                {
                    "name": "G3",
                    "midi": 55,
                    "time": 142.20897299999822,
                    "velocity": 0.48031496062992124,
                    "duration": 0.179104499999994
                },
                {
                    "name": "G3",
                    "midi": 55,
                    "time": 142.5671819999982,
                    "velocity": 0.5354330708661418,
                    "duration": 0.358208999999988
                },
                {
                    "name": "G2",
                    "midi": 43,
                    "time": 142.5671819999982,
                    "velocity": 0.44881889763779526,
                    "duration": 0.358208999999988
                },
                {
                    "name": "G3",
                    "midi": 55,
                    "time": 142.9253909999982,
                    "velocity": 0.5196850393700787,
                    "duration": 0.179104499999994
                },
                {
                    "name": "G2",
                    "midi": 43,
                    "time": 142.9253909999982,
                    "velocity": 0.4330708661417323,
                    "duration": 0.179104499999994
                },
                {
                    "name": "D2",
                    "midi": 38,
                    "time": 143.1044954999982,
                    "velocity": 0.3937007874015748,
                    "duration": 0.179104499999994
                },
                {
                    "name": "D3",
                    "midi": 50,
                    "time": 143.1044954999982,
                    "velocity": 0.47244094488188976,
                    "duration": 0.179104499999994
                },
                {
                    "name": "D#2",
                    "midi": 39,
                    "time": 143.2835999999982,
                    "velocity": 0.4330708661417323,
                    "duration": 0.179104499999994
                },
                {
                    "name": "D#3",
                    "midi": 51,
                    "time": 143.2835999999982,
                    "velocity": 0.5118110236220472,
                    "duration": 0.179104499999994
                },
                {
                    "name": "D3",
                    "midi": 50,
                    "time": 143.46270449999818,
                    "velocity": 0.47244094488188976,
                    "duration": 0.179104499999994
                },
                {
                    "name": "D2",
                    "midi": 38,
                    "time": 143.46270449999818,
                    "velocity": 0.3937007874015748,
                    "duration": 0.179104499999994
                },
                {
                    "name": "A#2",
                    "midi": 46,
                    "time": 143.64180899999818,
                    "velocity": 0.5118110236220472,
                    "duration": 0.179104499999994
                },
                {
                    "name": "A#1",
                    "midi": 34,
                    "time": 143.64180899999818,
                    "velocity": 0.4330708661417323,
                    "duration": 0.179104499999994
                },
                {
                    "name": "G2",
                    "midi": 43,
                    "time": 143.82091349999817,
                    "velocity": 0.47244094488188976,
                    "duration": 0.179104499999994
                },
                {
                    "name": "G1",
                    "midi": 31,
                    "time": 143.82091349999817,
                    "velocity": 0.3937007874015748,
                    "duration": 0.179104499999994
                },
                {
                    "name": "F#1",
                    "midi": 30,
                    "time": 144.00001799999816,
                    "velocity": 0.4645669291338583,
                    "duration": 0.537313499999982
                },
                {
                    "name": "F#2",
                    "midi": 42,
                    "time": 144.00001799999816,
                    "velocity": 0.5511811023622047,
                    "duration": 0.537313499999982
                },
                {
                    "name": "G3",
                    "midi": 55,
                    "time": 144.35822699999815,
                    "velocity": 0.5196850393700787,
                    "duration": 0.179104499999994
                },
                {
                    "name": "G2",
                    "midi": 43,
                    "time": 144.35822699999815,
                    "velocity": 0.4330708661417323,
                    "duration": 0.179104499999994
                },
                {
                    "name": "D2",
                    "midi": 38,
                    "time": 144.53733149999815,
                    "velocity": 0.3937007874015748,
                    "duration": 0.179104499999994
                },
                {
                    "name": "D3",
                    "midi": 50,
                    "time": 144.53733149999815,
                    "velocity": 0.47244094488188976,
                    "duration": 0.179104499999994
                },
                {
                    "name": "D#3",
                    "midi": 51,
                    "time": 144.71643599999814,
                    "velocity": 0.5118110236220472,
                    "duration": 0.179104499999994
                },
                {
                    "name": "D#2",
                    "midi": 39,
                    "time": 144.71643599999814,
                    "velocity": 0.4330708661417323,
                    "duration": 0.179104499999994
                },
                {
                    "name": "D3",
                    "midi": 50,
                    "time": 144.89554049999813,
                    "velocity": 0.47244094488188976,
                    "duration": 0.179104499999994
                },
                {
                    "name": "D2",
                    "midi": 38,
                    "time": 144.89554049999813,
                    "velocity": 0.3937007874015748,
                    "duration": 0.179104499999994
                },
                {
                    "name": "A#1",
                    "midi": 34,
                    "time": 145.07464499999813,
                    "velocity": 0.4330708661417323,
                    "duration": 0.179104499999994
                },
                {
                    "name": "A#2",
                    "midi": 46,
                    "time": 145.07464499999813,
                    "velocity": 0.5118110236220472,
                    "duration": 0.179104499999994
                },
                {
                    "name": "G1",
                    "midi": 31,
                    "time": 145.25374949999812,
                    "velocity": 0.3937007874015748,
                    "duration": 0.179104499999994
                },
                {
                    "name": "G2",
                    "midi": 43,
                    "time": 145.25374949999812,
                    "velocity": 0.47244094488188976,
                    "duration": 0.179104499999994
                },
                {
                    "name": "F2",
                    "midi": 41,
                    "time": 145.43285399999812,
                    "velocity": 0.5511811023622047,
                    "duration": 0.537313499999982
                },
                {
                    "name": "F1",
                    "midi": 29,
                    "time": 145.43285399999812,
                    "velocity": 0.4645669291338583,
                    "duration": 0.537313499999982
                },
                {
                    "name": "G3",
                    "midi": 55,
                    "time": 145.7910629999981,
                    "velocity": 0.5196850393700787,
                    "duration": 0.179104499999994
                },
                {
                    "name": "G2",
                    "midi": 43,
                    "time": 145.7910629999981,
                    "velocity": 0.4330708661417323,
                    "duration": 0.179104499999994
                },
                {
                    "name": "D3",
                    "midi": 50,
                    "time": 145.9701674999981,
                    "velocity": 0.47244094488188976,
                    "duration": 0.179104499999994
                },
                {
                    "name": "D2",
                    "midi": 38,
                    "time": 145.9701674999981,
                    "velocity": 0.3937007874015748,
                    "duration": 0.179104499999994
                },
                {
                    "name": "D#2",
                    "midi": 39,
                    "time": 146.1492719999981,
                    "velocity": 0.4330708661417323,
                    "duration": 0.179104499999994
                },
                {
                    "name": "D#3",
                    "midi": 51,
                    "time": 146.1492719999981,
                    "velocity": 0.5118110236220472,
                    "duration": 0.179104499999994
                },
                {
                    "name": "D3",
                    "midi": 50,
                    "time": 146.3283764999981,
                    "velocity": 0.47244094488188976,
                    "duration": 0.179104499999994
                },
                {
                    "name": "D2",
                    "midi": 38,
                    "time": 146.3283764999981,
                    "velocity": 0.3937007874015748,
                    "duration": 0.179104499999994
                },
                {
                    "name": "A#1",
                    "midi": 34,
                    "time": 146.50748099999808,
                    "velocity": 0.4330708661417323,
                    "duration": 0.179104499999994
                },
                {
                    "name": "A#2",
                    "midi": 46,
                    "time": 146.50748099999808,
                    "velocity": 0.5118110236220472,
                    "duration": 0.179104499999994
                },
                {
                    "name": "G1",
                    "midi": 31,
                    "time": 146.68658549999807,
                    "velocity": 0.3937007874015748,
                    "duration": 0.179104499999994
                },
                {
                    "name": "G2",
                    "midi": 43,
                    "time": 146.68658549999807,
                    "velocity": 0.47244094488188976,
                    "duration": 0.179104499999994
                },
                {
                    "name": "E1",
                    "midi": 28,
                    "time": 146.86568999999807,
                    "velocity": 0.4645669291338583,
                    "duration": 0.537313499999982
                },
                {
                    "name": "E2",
                    "midi": 40,
                    "time": 146.86568999999807,
                    "velocity": 0.5511811023622047,
                    "duration": 0.537313499999982
                },
                {
                    "name": "G3",
                    "midi": 55,
                    "time": 147.22389899999806,
                    "velocity": 0.5196850393700787,
                    "duration": 0.179104499999994
                },
                {
                    "name": "G2",
                    "midi": 43,
                    "time": 147.22389899999806,
                    "velocity": 0.4330708661417323,
                    "duration": 0.179104499999994
                },
                {
                    "name": "D2",
                    "midi": 38,
                    "time": 147.40300349999805,
                    "velocity": 0.3937007874015748,
                    "duration": 0.179104499999994
                },
                {
                    "name": "D3",
                    "midi": 50,
                    "time": 147.40300349999805,
                    "velocity": 0.47244094488188976,
                    "duration": 0.179104499999994
                },
                {
                    "name": "D#2",
                    "midi": 39,
                    "time": 147.58210799999804,
                    "velocity": 0.4330708661417323,
                    "duration": 0.179104499999994
                },
                {
                    "name": "D#3",
                    "midi": 51,
                    "time": 147.58210799999804,
                    "velocity": 0.5118110236220472,
                    "duration": 0.179104499999994
                },
                {
                    "name": "D2",
                    "midi": 38,
                    "time": 147.76121249999804,
                    "velocity": 0.3937007874015748,
                    "duration": 0.179104499999994
                },
                {
                    "name": "D3",
                    "midi": 50,
                    "time": 147.76121249999804,
                    "velocity": 0.47244094488188976,
                    "duration": 0.179104499999994
                },
                {
                    "name": "A#2",
                    "midi": 46,
                    "time": 147.94031699999803,
                    "velocity": 0.5118110236220472,
                    "duration": 0.179104499999994
                },
                {
                    "name": "A#1",
                    "midi": 34,
                    "time": 147.94031699999803,
                    "velocity": 0.4330708661417323,
                    "duration": 0.179104499999994
                },
                {
                    "name": "G2",
                    "midi": 43,
                    "time": 148.11942149999803,
                    "velocity": 0.47244094488188976,
                    "duration": 0.179104499999994
                },
                {
                    "name": "G1",
                    "midi": 31,
                    "time": 148.11942149999803,
                    "velocity": 0.3937007874015748,
                    "duration": 0.179104499999994
                },
                {
                    "name": "D#1",
                    "midi": 27,
                    "time": 148.29852599999802,
                    "velocity": 0.4645669291338583,
                    "duration": 0.358208999999988
                },
                {
                    "name": "D#2",
                    "midi": 39,
                    "time": 148.29852599999802,
                    "velocity": 0.5511811023622047,
                    "duration": 0.358208999999988
                },
                {
                    "name": "D2",
                    "midi": 38,
                    "time": 148.656734999998,
                    "velocity": 0.5511811023622047,
                    "duration": 0.179104499999994
                },
                {
                    "name": "D1",
                    "midi": 26,
                    "time": 148.656734999998,
                    "velocity": 0.4645669291338583,
                    "duration": 0.179104499999994
                },
                {
                    "name": "B1",
                    "midi": 35,
                    "time": 149.014943999998,
                    "velocity": 0.4645669291338583,
                    "duration": 0.537313499999982
                },
                {
                    "name": "B2",
                    "midi": 47,
                    "time": 149.014943999998,
                    "velocity": 0.5511811023622047,
                    "duration": 0.537313499999982
                },
                {
                    "name": "G#4",
                    "midi": 68,
                    "time": 149.37315299999798,
                    "velocity": 0.5669291338582677,
                    "duration": 0.179104499999994
                },
                {
                    "name": "G#3",
                    "midi": 56,
                    "time": 149.37315299999798,
                    "velocity": 0.48031496062992124,
                    "duration": 0.179104499999994
                },
                {
                    "name": "G6",
                    "midi": 91,
                    "time": 149.73136199999797,
                    "velocity": 0.5984251968503937,
                    "duration": 0.089552249999997
                },
                {
                    "name": "D6",
                    "midi": 86,
                    "time": 149.91046649999797,
                    "velocity": 0.5433070866141733,
                    "duration": 0.089552249999997
                },
                {
                    "name": "D#6",
                    "midi": 87,
                    "time": 150.08957099999796,
                    "velocity": 0.5748031496062992,
                    "duration": 0.089552249999997
                },
                {
                    "name": "B5",
                    "midi": 83,
                    "time": 150.26867549999795,
                    "velocity": 0.5511811023622047,
                    "duration": 0.089552249999997
                },
                {
                    "name": "C6",
                    "midi": 84,
                    "time": 150.44777999999795,
                    "velocity": 0.5748031496062992,
                    "duration": 0.089552249999997
                },
                {
                    "name": "G5",
                    "midi": 79,
                    "time": 150.62688449999794,
                    "velocity": 0.5433070866141733,
                    "duration": 0.089552249999997
                },
                {
                    "name": "G#5",
                    "midi": 80,
                    "time": 150.80598899999794,
                    "velocity": 0.5669291338582677,
                    "duration": 0.089552249999997
                },
                {
                    "name": "D5",
                    "midi": 74,
                    "time": 150.98509349999793,
                    "velocity": 0.5511811023622047,
                    "duration": 0.089552249999997
                },
                {
                    "name": "D#5",
                    "midi": 75,
                    "time": 151.16419799999792,
                    "velocity": 0.5984251968503937,
                    "duration": 0.089552249999997
                },
                {
                    "name": "B4",
                    "midi": 71,
                    "time": 151.34330249999792,
                    "velocity": 0.5196850393700787,
                    "duration": 0.089552249999997
                },
                {
                    "name": "C5",
                    "midi": 72,
                    "time": 151.5224069999979,
                    "velocity": 0.5669291338582677,
                    "duration": 0.089552249999997
                },
                {
                    "name": "G4",
                    "midi": 67,
                    "time": 151.7015114999979,
                    "velocity": 0.5196850393700787,
                    "duration": 0.089552249999997
                },
                {
                    "name": "G#4",
                    "midi": 68,
                    "time": 151.8806159999979,
                    "velocity": 0.5669291338582677,
                    "duration": 0.089552249999997
                },
                {
                    "name": "D4",
                    "midi": 62,
                    "time": 152.0597204999979,
                    "velocity": 0.5275590551181102,
                    "duration": 0.089552249999997
                },
                {
                    "name": "D#4",
                    "midi": 63,
                    "time": 152.2388249999979,
                    "velocity": 0.5669291338582677,
                    "duration": 0.089552249999997
                },
                {
                    "name": "B3",
                    "midi": 59,
                    "time": 152.41792949999788,
                    "velocity": 0.5275590551181102,
                    "duration": 0.089552249999997
                },
                {
                    "name": "C4",
                    "midi": 60,
                    "time": 152.59703399999788,
                    "velocity": 0.5984251968503937,
                    "duration": 0.089552249999997
                },
                {
                    "name": "G3",
                    "midi": 55,
                    "time": 152.77613849999787,
                    "velocity": 0.5275590551181102,
                    "duration": 0.089552249999997
                },
                {
                    "name": "G#3",
                    "midi": 56,
                    "time": 152.95524299999786,
                    "velocity": 0.5748031496062992,
                    "duration": 0.089552249999997
                },
                {
                    "name": "D3",
                    "midi": 50,
                    "time": 153.13434749999786,
                    "velocity": 0.5275590551181102,
                    "duration": 0.089552249999997
                },
                {
                    "name": "D#3",
                    "midi": 51,
                    "time": 153.31345199999785,
                    "velocity": 0.5748031496062992,
                    "duration": 0.089552249999997
                },
                {
                    "name": "B2",
                    "midi": 47,
                    "time": 153.49255649999785,
                    "velocity": 0.5511811023622047,
                    "duration": 0.089552249999997
                },
                {
                    "name": "C3",
                    "midi": 48,
                    "time": 153.67166099999784,
                    "velocity": 0.5826771653543307,
                    "duration": 0.089552249999997
                },
                {
                    "name": "G2",
                    "midi": 43,
                    "time": 153.85076549999783,
                    "velocity": 0.5354330708661418,
                    "duration": 0.089552249999997
                },
                {
                    "name": "G#2",
                    "midi": 44,
                    "time": 154.02986999999783,
                    "velocity": 0.5669291338582677,
                    "duration": 0.089552249999997
                },
                {
                    "name": "D2",
                    "midi": 38,
                    "time": 154.20897449999782,
                    "velocity": 0.5196850393700787,
                    "duration": 0.089552249999997
                },
                {
                    "name": "D#2",
                    "midi": 39,
                    "time": 154.38807899999782,
                    "velocity": 0.5590551181102362,
                    "duration": 0.089552249999997
                },
                {
                    "name": "B1",
                    "midi": 35,
                    "time": 154.5671834999978,
                    "velocity": 0.5039370078740157,
                    "duration": 0.089552249999997
                },
                {
                    "name": "C2",
                    "midi": 36,
                    "time": 154.7462879999978,
                    "velocity": 0.5196850393700787,
                    "duration": 0.089552249999997
                },
                {
                    "name": "G1",
                    "midi": 31,
                    "time": 154.9253924999978,
                    "velocity": 0.47244094488188976,
                    "duration": 0.089552249999997
                },
                {
                    "name": "G#1",
                    "midi": 32,
                    "time": 155.1044969999978,
                    "velocity": 0.5275590551181102,
                    "duration": 0.089552249999997
                },
                {
                    "name": "G1",
                    "midi": 31,
                    "time": 155.2836014999978,
                    "velocity": 0.48031496062992124,
                    "duration": 0.089552249999997
                },
                {
                    "name": "G#1",
                    "midi": 32,
                    "time": 155.46270599999778,
                    "velocity": 0.5196850393700787,
                    "duration": 0.089552249999997
                },
                {
                    "name": "G1",
                    "midi": 31,
                    "time": 155.64181049999777,
                    "velocity": 0.49606299212598426,
                    "duration": 0.089552249999997
                },
                {
                    "name": "B1",
                    "midi": 35,
                    "time": 155.82091499999777,
                    "velocity": 0.5590551181102362,
                    "duration": 0.089552249999997
                },
                {
                    "name": "G1",
                    "midi": 31,
                    "time": 156.00001949999776,
                    "velocity": 0.47244094488188976,
                    "duration": 0.089552249999997
                },
                {
                    "name": "G#1",
                    "midi": 32,
                    "time": 156.17912399999776,
                    "velocity": 0.5275590551181102,
                    "duration": 0.089552249999997
                },
                {
                    "name": "G1",
                    "midi": 31,
                    "time": 156.35822849999775,
                    "velocity": 0.48031496062992124,
                    "duration": 0.089552249999997
                },
                {
                    "name": "B1",
                    "midi": 35,
                    "time": 156.53733299999774,
                    "velocity": 0.5748031496062992,
                    "duration": 0.089552249999997
                },
                {
                    "name": "G1",
                    "midi": 31,
                    "time": 156.71643749999774,
                    "velocity": 0.49606299212598426,
                    "duration": 0.089552249999997
                },
                {
                    "name": "G#1",
                    "midi": 32,
                    "time": 156.89554199999773,
                    "velocity": 0.5669291338582677,
                    "duration": 0.089552249999997
                },
                {
                    "name": "G1",
                    "midi": 31,
                    "time": 157.07464649999773,
                    "velocity": 0.5275590551181102,
                    "duration": 0.089552249999997
                },
                {
                    "name": "G#1",
                    "midi": 32,
                    "time": 157.25375099999772,
                    "velocity": 0.5511811023622047,
                    "duration": 0.089552249999997
                },
                {
                    "name": "A#1",
                    "midi": 34,
                    "time": 157.43285549999771,
                    "velocity": 0.5196850393700787,
                    "duration": 0.089552249999997
                },
                {
                    "name": "B1",
                    "midi": 35,
                    "time": 157.6119599999977,
                    "velocity": 0.5669291338582677,
                    "duration": 0.089552249999997
                },
                {
                    "name": "D2",
                    "midi": 38,
                    "time": 157.7910644999977,
                    "velocity": 0.5196850393700787,
                    "duration": 0.089552249999997
                },
                {
                    "name": "D#2",
                    "midi": 39,
                    "time": 157.9701689999977,
                    "velocity": 0.5433070866141733,
                    "duration": 0.089552249999997
                },
                {
                    "name": "F2",
                    "midi": 41,
                    "time": 158.1492734999977,
                    "velocity": 0.5748031496062992,
                    "duration": 0.089552249999997
                },
                {
                    "name": "G1",
                    "midi": 31,
                    "time": 158.32837799999768,
                    "velocity": 0.48031496062992124,
                    "duration": 0.089552249999997
                },
                {
                    "name": "G2",
                    "midi": 43,
                    "time": 158.32837799999768,
                    "velocity": 0.5669291338582677,
                    "duration": 0.089552249999997
                },
                {
                    "name": "G#2",
                    "midi": 44,
                    "time": 158.50748249999768,
                    "velocity": 0.5354330708661418,
                    "duration": 0.089552249999997
                },
                {
                    "name": "G#1",
                    "midi": 32,
                    "time": 158.50748249999768,
                    "velocity": 0.44881889763779526,
                    "duration": 0.089552249999997
                },
                {
                    "name": "A#2",
                    "midi": 46,
                    "time": 158.68658699999767,
                    "velocity": 0.5433070866141733,
                    "duration": 0.089552249999997
                },
                {
                    "name": "A#1",
                    "midi": 34,
                    "time": 158.68658699999767,
                    "velocity": 0.4566929133858268,
                    "duration": 0.089552249999997
                },
                {
                    "name": "B2",
                    "midi": 47,
                    "time": 158.86569149999767,
                    "velocity": 0.5511811023622047,
                    "duration": 0.089552249999997
                },
                {
                    "name": "B1",
                    "midi": 35,
                    "time": 158.86569149999767,
                    "velocity": 0.4645669291338583,
                    "duration": 0.089552249999997
                },
                {
                    "name": "D2",
                    "midi": 38,
                    "time": 159.04479599999766,
                    "velocity": 0.5039370078740157,
                    "duration": 0.089552249999997
                },
                {
                    "name": "D3",
                    "midi": 50,
                    "time": 159.04479599999766,
                    "velocity": 0.5984251968503937,
                    "duration": 0.089552249999997
                },
                {
                    "name": "D#2",
                    "midi": 39,
                    "time": 159.22390049999765,
                    "velocity": 0.4645669291338583,
                    "duration": 0.089552249999997
                },
                {
                    "name": "D#3",
                    "midi": 51,
                    "time": 159.22390049999765,
                    "velocity": 0.5511811023622047,
                    "duration": 0.089552249999997
                },
                {
                    "name": "F2",
                    "midi": 41,
                    "time": 159.40300499999765,
                    "velocity": 0.4645669291338583,
                    "duration": 0.089552249999997
                },
                {
                    "name": "F3",
                    "midi": 53,
                    "time": 159.40300499999765,
                    "velocity": 0.5511811023622047,
                    "duration": 0.089552249999997
                },
                {
                    "name": "G3",
                    "midi": 55,
                    "time": 159.58210949999764,
                    "velocity": 0.5511811023622047,
                    "duration": 0.089552249999997
                },
                {
                    "name": "G2",
                    "midi": 43,
                    "time": 159.58210949999764,
                    "velocity": 0.4645669291338583,
                    "duration": 0.089552249999997
                },
                {
                    "name": "G#2",
                    "midi": 44,
                    "time": 159.76121399999764,
                    "velocity": 0.5039370078740157,
                    "duration": 0.089552249999997
                },
                {
                    "name": "G#3",
                    "midi": 56,
                    "time": 159.76121399999764,
                    "velocity": 0.5984251968503937,
                    "duration": 0.089552249999997
                },
                {
                    "name": "A#3",
                    "midi": 58,
                    "time": 159.94031849999763,
                    "velocity": 0.5511811023622047,
                    "duration": 0.089552249999997
                },
                {
                    "name": "A#2",
                    "midi": 46,
                    "time": 159.94031849999763,
                    "velocity": 0.4645669291338583,
                    "duration": 0.089552249999997
                },
                {
                    "name": "B2",
                    "midi": 47,
                    "time": 160.11942299999762,
                    "velocity": 0.4645669291338583,
                    "duration": 0.089552249999997
                },
                {
                    "name": "B3",
                    "midi": 59,
                    "time": 160.11942299999762,
                    "velocity": 0.5511811023622047,
                    "duration": 0.089552249999997
                },
                {
                    "name": "D4",
                    "midi": 62,
                    "time": 160.29852749999762,
                    "velocity": 0.5511811023622047,
                    "duration": 0.089552249999997
                },
                {
                    "name": "D3",
                    "midi": 50,
                    "time": 160.29852749999762,
                    "velocity": 0.4645669291338583,
                    "duration": 0.089552249999997
                },
                {
                    "name": "D#3",
                    "midi": 51,
                    "time": 160.4776319999976,
                    "velocity": 0.5118110236220472,
                    "duration": 0.089552249999997
                },
                {
                    "name": "D#4",
                    "midi": 63,
                    "time": 160.4776319999976,
                    "velocity": 0.6141732283464567,
                    "duration": 0.089552249999997
                },
                {
                    "name": "F3",
                    "midi": 53,
                    "time": 160.6567364999976,
                    "velocity": 0.47244094488188976,
                    "duration": 0.089552249999997
                },
                {
                    "name": "F4",
                    "midi": 65,
                    "time": 160.6567364999976,
                    "velocity": 0.5590551181102362,
                    "duration": 0.089552249999997
                },
                {
                    "name": "G3",
                    "midi": 55,
                    "time": 160.8358409999976,
                    "velocity": 0.48031496062992124,
                    "duration": 0.089552249999997
                },
                {
                    "name": "G4",
                    "midi": 67,
                    "time": 160.8358409999976,
                    "velocity": 0.5669291338582677,
                    "duration": 0.089552249999997
                },
                {
                    "name": "G#4",
                    "midi": 68,
                    "time": 161.0149454999976,
                    "velocity": 0.5669291338582677,
                    "duration": 0.089552249999997
                },
                {
                    "name": "G#3",
                    "midi": 56,
                    "time": 161.0149454999976,
                    "velocity": 0.48031496062992124,
                    "duration": 0.089552249999997
                },
                {
                    "name": "B4",
                    "midi": 71,
                    "time": 161.1940499999976,
                    "velocity": 0.6299212598425197,
                    "duration": 0.089552249999997
                },
                {
                    "name": "B3",
                    "midi": 59,
                    "time": 161.1940499999976,
                    "velocity": 0.5275590551181102,
                    "duration": 0.089552249999997
                },
                {
                    "name": "D4",
                    "midi": 62,
                    "time": 161.37315449999758,
                    "velocity": 0.5669291338582677,
                    "duration": 0.089552249999997
                },
                {
                    "name": "D#4",
                    "midi": 63,
                    "time": 161.55225899999758,
                    "velocity": 0.5669291338582677,
                    "duration": 0.089552249999997
                },
                {
                    "name": "F4",
                    "midi": 65,
                    "time": 161.73136349999757,
                    "velocity": 0.5669291338582677,
                    "duration": 0.089552249999997
                },
                {
                    "name": "G4",
                    "midi": 67,
                    "time": 161.91046799999756,
                    "velocity": 0.6377952755905512,
                    "duration": 0.089552249999997
                },
                {
                    "name": "G#4",
                    "midi": 68,
                    "time": 162.08957249999756,
                    "velocity": 0.5826771653543307,
                    "duration": 0.089552249999997
                },
                {
                    "name": "A#4",
                    "midi": 70,
                    "time": 162.26867699999755,
                    "velocity": 0.5826771653543307,
                    "duration": 0.089552249999997
                },
                {
                    "name": "B4",
                    "midi": 71,
                    "time": 162.44778149999755,
                    "velocity": 0.5826771653543307,
                    "duration": 0.089552249999997
                },
                {
                    "name": "D5",
                    "midi": 74,
                    "time": 162.62688599999754,
                    "velocity": 0.6377952755905512,
                    "duration": 0.089552249999997
                },
                {
                    "name": "D#5",
                    "midi": 75,
                    "time": 162.80599049999753,
                    "velocity": 0.5905511811023622,
                    "duration": 0.089552249999997
                },
                {
                    "name": "F5",
                    "midi": 77,
                    "time": 162.98509499999753,
                    "velocity": 0.5984251968503937,
                    "duration": 0.089552249999997
                },
                {
                    "name": "G5",
                    "midi": 79,
                    "time": 163.16419949999752,
                    "velocity": 0.6062992125984252,
                    "duration": 0.089552249999997
                },
                {
                    "name": "D#5",
                    "midi": 75,
                    "time": 163.34330399999752,
                    "velocity": 0.6692913385826772,
                    "duration": 0.089552249999997
                },
                {
                    "name": "F5",
                    "midi": 77,
                    "time": 163.5224084999975,
                    "velocity": 0.5905511811023622,
                    "duration": 0.089552249999997
                },
                {
                    "name": "B4",
                    "midi": 71,
                    "time": 163.7015129999975,
                    "velocity": 0.6377952755905512,
                    "duration": 0.089552249999997
                },
                {
                    "name": "D5",
                    "midi": 74,
                    "time": 163.8806174999975,
                    "velocity": 0.5826771653543307,
                    "duration": 0.089552249999997
                },
                {
                    "name": "D#5",
                    "midi": 75,
                    "time": 164.0597219999975,
                    "velocity": 0.6535433070866141,
                    "duration": 0.089552249999997
                },
                {
                    "name": "F5",
                    "midi": 77,
                    "time": 164.2388264999975,
                    "velocity": 0.5826771653543307,
                    "duration": 0.089552249999997
                },
                {
                    "name": "B4",
                    "midi": 71,
                    "time": 164.41793099999748,
                    "velocity": 0.6220472440944882,
                    "duration": 0.089552249999997
                },
                {
                    "name": "D5",
                    "midi": 74,
                    "time": 164.59703549999747,
                    "velocity": 0.5905511811023622,
                    "duration": 0.089552249999997
                },
                {
                    "name": "D#4",
                    "midi": 63,
                    "time": 164.77613999999747,
                    "velocity": 0.5826771653543307,
                    "duration": 0.089552249999997
                },
                {
                    "name": "D#5",
                    "midi": 75,
                    "time": 164.77613999999747,
                    "velocity": 0.6220472440944882,
                    "duration": 0.089552249999997
                },
                {
                    "name": "F5",
                    "midi": 77,
                    "time": 164.95524449999746,
                    "velocity": 0.5748031496062992,
                    "duration": 0.089552249999997
                },
                {
                    "name": "F4",
                    "midi": 65,
                    "time": 164.95524449999746,
                    "velocity": 0.5433070866141733,
                    "duration": 0.089552249999997
                },
                {
                    "name": "F4",
                    "midi": 65,
                    "time": 165.13434899999746,
                    "velocity": 0.5275590551181102,
                    "duration": 0.089552249999997
                },
                {
                    "name": "F3",
                    "midi": 53,
                    "time": 165.13434899999746,
                    "velocity": 0.41732283464566927,
                    "duration": 0.089552249999997
                },
                {
                    "name": "F#3",
                    "midi": 54,
                    "time": 165.31345349999745,
                    "velocity": 0.4094488188976378,
                    "duration": 0.089552249999997
                },
                {
                    "name": "F#4",
                    "midi": 66,
                    "time": 165.31345349999745,
                    "velocity": 0.5118110236220472,
                    "duration": 0.089552249999997
                },
                {
                    "name": "G3",
                    "midi": 55,
                    "time": 165.49255799999744,
                    "velocity": 0.4251968503937008,
                    "duration": 0.089552249999997
                },
                {
                    "name": "G4",
                    "midi": 67,
                    "time": 165.49255799999744,
                    "velocity": 0.5433070866141733,
                    "duration": 0.089552249999997
                },
                {
                    "name": "G#3",
                    "midi": 56,
                    "time": 165.67166249999744,
                    "velocity": 0.49606299212598426,
                    "duration": 0.089552249999997
                },
                {
                    "name": "G#4",
                    "midi": 68,
                    "time": 165.67166249999744,
                    "velocity": 0.5275590551181102,
                    "duration": 0.089552249999997
                },
                {
                    "name": "A3",
                    "midi": 57,
                    "time": 165.85076699999743,
                    "velocity": 0.5039370078740157,
                    "duration": 0.089552249999997
                },
                {
                    "name": "A4",
                    "midi": 69,
                    "time": 165.85076699999743,
                    "velocity": 0.5354330708661418,
                    "duration": 0.089552249999997
                },
                {
                    "name": "A#4",
                    "midi": 70,
                    "time": 166.02987149999743,
                    "velocity": 0.5433070866141733,
                    "duration": 0.089552249999997
                },
                {
                    "name": "A#3",
                    "midi": 58,
                    "time": 166.02987149999743,
                    "velocity": 0.5118110236220472,
                    "duration": 0.089552249999997
                },
                {
                    "name": "B3",
                    "midi": 59,
                    "time": 166.20897599999742,
                    "velocity": 0.5118110236220472,
                    "duration": 0.089552249999997
                },
                {
                    "name": "B4",
                    "midi": 71,
                    "time": 166.20897599999742,
                    "velocity": 0.5433070866141733,
                    "duration": 0.089552249999997
                },
                {
                    "name": "C4",
                    "midi": 60,
                    "time": 166.38808049999741,
                    "velocity": 0.5196850393700787,
                    "duration": 0.089552249999997
                },
                {
                    "name": "C5",
                    "midi": 72,
                    "time": 166.38808049999741,
                    "velocity": 0.5511811023622047,
                    "duration": 0.089552249999997
                },
                {
                    "name": "C#5",
                    "midi": 73,
                    "time": 166.5671849999974,
                    "velocity": 0.5590551181102362,
                    "duration": 0.089552249999997
                },
                {
                    "name": "C#4",
                    "midi": 61,
                    "time": 166.5671849999974,
                    "velocity": 0.5275590551181102,
                    "duration": 0.089552249999997
                },
                {
                    "name": "D5",
                    "midi": 74,
                    "time": 166.7462894999974,
                    "velocity": 0.5590551181102362,
                    "duration": 0.089552249999997
                },
                {
                    "name": "D4",
                    "midi": 62,
                    "time": 166.7462894999974,
                    "velocity": 0.5275590551181102,
                    "duration": 0.089552249999997
                },
                {
                    "name": "D#4",
                    "midi": 63,
                    "time": 166.9253939999974,
                    "velocity": 0.5354330708661418,
                    "duration": 0.089552249999997
                },
                {
                    "name": "D#5",
                    "midi": 75,
                    "time": 166.9253939999974,
                    "velocity": 0.5669291338582677,
                    "duration": 0.089552249999997
                },
                {
                    "name": "F5",
                    "midi": 77,
                    "time": 167.1044984999974,
                    "velocity": 0.5669291338582677,
                    "duration": 0.089552249999997
                },
                {
                    "name": "F4",
                    "midi": 65,
                    "time": 167.1044984999974,
                    "velocity": 0.5354330708661418,
                    "duration": 0.089552249999997
                },
                {
                    "name": "F#4",
                    "midi": 66,
                    "time": 167.28360299999738,
                    "velocity": 0.5433070866141733,
                    "duration": 0.089552249999997
                },
                {
                    "name": "F#5",
                    "midi": 78,
                    "time": 167.28360299999738,
                    "velocity": 0.5748031496062992,
                    "duration": 0.089552249999997
                },
                {
                    "name": "G4",
                    "midi": 67,
                    "time": 167.46270749999738,
                    "velocity": 0.5433070866141733,
                    "duration": 0.089552249999997
                },
                {
                    "name": "G5",
                    "midi": 79,
                    "time": 167.46270749999738,
                    "velocity": 0.5748031496062992,
                    "duration": 0.089552249999997
                },
                {
                    "name": "G2",
                    "midi": 43,
                    "time": 167.64181199999737,
                    "velocity": 0.7559055118110236,
                    "duration": 1.3432837499999835
                },
                {
                    "name": "A#2",
                    "midi": 46,
                    "time": 167.73136424999737,
                    "velocity": 0.4881889763779528,
                    "duration": 1.2537314999999865
                },
                {
                    "name": "D#3",
                    "midi": 51,
                    "time": 167.73136424999737,
                    "velocity": 0.4881889763779528,
                    "duration": 1.2537314999999865
                },
                {
                    "name": "G3",
                    "midi": 55,
                    "time": 167.73136424999737,
                    "velocity": 0.5669291338582677,
                    "duration": 1.2537314999999865
                },
                {
                    "name": "F2",
                    "midi": 41,
                    "time": 168.98509574999736,
                    "velocity": 0.6850393700787402,
                    "duration": 1.4328360000000089
                },
                {
                    "name": "A#2",
                    "midi": 46,
                    "time": 169.07464799999735,
                    "velocity": 0.44881889763779526,
                    "duration": 1.3432837500000119
                },
                {
                    "name": "D3",
                    "midi": 50,
                    "time": 169.07464799999735,
                    "velocity": 0.44881889763779526,
                    "duration": 1.3432837500000119
                },
                {
                    "name": "F3",
                    "midi": 53,
                    "time": 169.07464799999735,
                    "velocity": 0.5354330708661418,
                    "duration": 1.3432837500000119
                },
                {
                    "name": "D#2",
                    "midi": 39,
                    "time": 170.41793174999736,
                    "velocity": 0.6850393700787402,
                    "duration": 0.8059702500000014
                },
                {
                    "name": "G2",
                    "midi": 43,
                    "time": 170.50748399999736,
                    "velocity": 0.4881889763779528,
                    "duration": 0.7164180000000044
                },
                {
                    "name": "A#2",
                    "midi": 46,
                    "time": 170.50748399999736,
                    "velocity": 0.4881889763779528,
                    "duration": 0.7164180000000044
                },
                {
                    "name": "D#3",
                    "midi": 51,
                    "time": 170.50748399999736,
                    "velocity": 0.5669291338582677,
                    "duration": 0.7164180000000044
                },
                {
                    "name": "C2",
                    "midi": 36,
                    "time": 171.13434974999737,
                    "velocity": 0.6377952755905512,
                    "duration": 0.7164180000000044
                },
                {
                    "name": "D#2",
                    "midi": 39,
                    "time": 171.22390199999737,
                    "velocity": 0.44881889763779526,
                    "duration": 0.6268657500000074
                },
                {
                    "name": "G2",
                    "midi": 43,
                    "time": 171.22390199999737,
                    "velocity": 0.44881889763779526,
                    "duration": 0.6268657500000074
                },
                {
                    "name": "C3",
                    "midi": 48,
                    "time": 171.22390199999737,
                    "velocity": 0.5354330708661418,
                    "duration": 0.6268657500000074
                },
                {
                    "name": "D2",
                    "midi": 38,
                    "time": 171.85076774999737,
                    "velocity": 0.6456692913385826,
                    "duration": 0.8059702500000014
                },
                {
                    "name": "F2",
                    "midi": 41,
                    "time": 171.94031999999737,
                    "velocity": 0.4251968503937008,
                    "duration": 0.7164180000000044
                },
                {
                    "name": "A#2",
                    "midi": 46,
                    "time": 171.94031999999737,
                    "velocity": 0.4251968503937008,
                    "duration": 0.7164180000000044
                },
                {
                    "name": "D3",
                    "midi": 50,
                    "time": 171.94031999999737,
                    "velocity": 0.5118110236220472,
                    "duration": 0.7164180000000044
                },
                {
                    "name": "A#2",
                    "midi": 46,
                    "time": 172.65673799999738,
                    "velocity": 0.5196850393700787,
                    "duration": 0.6268657500000074
                },
                {
                    "name": "D#2",
                    "midi": 39,
                    "time": 173.28360374999738,
                    "velocity": 0.6850393700787402,
                    "duration": 0.8059702500000014
                },
                {
                    "name": "A#2",
                    "midi": 46,
                    "time": 173.37315599999738,
                    "velocity": 0.44881889763779526,
                    "duration": 0.7164180000000044
                },
                {
                    "name": "D#3",
                    "midi": 51,
                    "time": 173.37315599999738,
                    "velocity": 0.5354330708661418,
                    "duration": 0.7164180000000044
                },
                {
                    "name": "D2",
                    "midi": 38,
                    "time": 174.08957399999738,
                    "velocity": 0.4881889763779528,
                    "duration": 0.358208999999988
                },
                {
                    "name": "D3",
                    "midi": 50,
                    "time": 174.08957399999738,
                    "velocity": 0.5669291338582677,
                    "duration": 0.358208999999988
                },
                {
                    "name": "A#2",
                    "midi": 46,
                    "time": 174.08957399999738,
                    "velocity": 0.5669291338582677,
                    "duration": 0.716417999999976
                },
                {
                    "name": "C2",
                    "midi": 36,
                    "time": 174.44778299999737,
                    "velocity": 0.4881889763779528,
                    "duration": 0.358208999999988
                },
                {
                    "name": "C3",
                    "midi": 48,
                    "time": 174.44778299999737,
                    "velocity": 0.5669291338582677,
                    "duration": 0.358208999999988
                },
                {
                    "name": "A#1",
                    "midi": 34,
                    "time": 174.80599199999736,
                    "velocity": 0.4251968503937008,
                    "duration": 0.7164180000000044
                },
                {
                    "name": "F2",
                    "midi": 41,
                    "time": 174.80599199999736,
                    "velocity": 0.4251968503937008,
                    "duration": 0.7164180000000044
                },
                {
                    "name": "A#2",
                    "midi": 46,
                    "time": 174.80599199999736,
                    "velocity": 0.5118110236220472,
                    "duration": 0.7164180000000044
                },
                {
                    "name": "G1",
                    "midi": 31,
                    "time": 175.52240999999736,
                    "velocity": 0.3228346456692913,
                    "duration": 0.6268657500000074
                },
                {
                    "name": "D#2",
                    "midi": 39,
                    "time": 175.52240999999736,
                    "velocity": 0.3779527559055118,
                    "duration": 0.6268657500000074
                },
                {
                    "name": "G2",
                    "midi": 43,
                    "time": 175.52240999999736,
                    "velocity": 0.3779527559055118,
                    "duration": 0.6268657500000074
                },
                {
                    "name": "D#2",
                    "midi": 39,
                    "time": 176.14927574999737,
                    "velocity": 0.6850393700787402,
                    "duration": 0.8059702500000014
                },
                {
                    "name": "A#2",
                    "midi": 46,
                    "time": 176.23882799999737,
                    "velocity": 0.44881889763779526,
                    "duration": 0.7164180000000044
                },
                {
                    "name": "D#3",
                    "midi": 51,
                    "time": 176.23882799999737,
                    "velocity": 0.5354330708661418,
                    "duration": 0.7164180000000044
                },
                {
                    "name": "D2",
                    "midi": 38,
                    "time": 176.95524599999737,
                    "velocity": 0.4881889763779528,
                    "duration": 0.358208999999988
                },
                {
                    "name": "D3",
                    "midi": 50,
                    "time": 176.95524599999737,
                    "velocity": 0.5669291338582677,
                    "duration": 0.358208999999988
                },
                {
                    "name": "A#2",
                    "midi": 46,
                    "time": 176.95524599999737,
                    "velocity": 0.5669291338582677,
                    "duration": 0.716417999999976
                },
                {
                    "name": "C2",
                    "midi": 36,
                    "time": 177.31345499999736,
                    "velocity": 0.4881889763779528,
                    "duration": 0.358208999999988
                },
                {
                    "name": "C3",
                    "midi": 48,
                    "time": 177.31345499999736,
                    "velocity": 0.5669291338582677,
                    "duration": 0.358208999999988
                },
                {
                    "name": "A#1",
                    "midi": 34,
                    "time": 177.67166399999735,
                    "velocity": 0.4251968503937008,
                    "duration": 0.7164180000000044
                },
                {
                    "name": "F2",
                    "midi": 41,
                    "time": 177.67166399999735,
                    "velocity": 0.4251968503937008,
                    "duration": 0.7164180000000044
                },
                {
                    "name": "A#2",
                    "midi": 46,
                    "time": 177.67166399999735,
                    "velocity": 0.5118110236220472,
                    "duration": 0.7164180000000044
                },
                {
                    "name": "G1",
                    "midi": 31,
                    "time": 178.38808199999735,
                    "velocity": 0.33070866141732286,
                    "duration": 0.7164180000000044
                },
                {
                    "name": "D#2",
                    "midi": 39,
                    "time": 178.38808199999735,
                    "velocity": 0.3779527559055118,
                    "duration": 0.7164180000000044
                },
                {
                    "name": "G2",
                    "midi": 43,
                    "time": 178.38808199999735,
                    "velocity": 0.3779527559055118,
                    "duration": 0.7164180000000044
                },
                {
                    "name": "G2",
                    "midi": 43,
                    "time": 179.10449999999736,
                    "velocity": 0.6771653543307087,
                    "duration": 1.3432837499999835
                },
                {
                    "name": "A#2",
                    "midi": 46,
                    "time": 179.19405224999736,
                    "velocity": 0.4881889763779528,
                    "duration": 1.2537314999999865
                },
                {
                    "name": "D#3",
                    "midi": 51,
                    "time": 179.19405224999736,
                    "velocity": 0.4881889763779528,
                    "duration": 1.2537314999999865
                },
                {
                    "name": "G3",
                    "midi": 55,
                    "time": 179.19405224999736,
                    "velocity": 0.5669291338582677,
                    "duration": 1.2537314999999865
                },
                {
                    "name": "F2",
                    "midi": 41,
                    "time": 180.44778374999734,
                    "velocity": 0.6850393700787402,
                    "duration": 1.4328360000000089
                },
                {
                    "name": "A#2",
                    "midi": 46,
                    "time": 180.53733599999734,
                    "velocity": 0.44881889763779526,
                    "duration": 1.3432837500000119
                },
                {
                    "name": "D3",
                    "midi": 50,
                    "time": 180.53733599999734,
                    "velocity": 0.44881889763779526,
                    "duration": 1.3432837500000119
                },
                {
                    "name": "F3",
                    "midi": 53,
                    "time": 180.53733599999734,
                    "velocity": 0.5354330708661418,
                    "duration": 1.3432837500000119
                },
                {
                    "name": "D#2",
                    "midi": 39,
                    "time": 181.88061974999735,
                    "velocity": 0.6850393700787402,
                    "duration": 0.8059702500000014
                },
                {
                    "name": "G2",
                    "midi": 43,
                    "time": 181.97017199999735,
                    "velocity": 0.4881889763779528,
                    "duration": 0.7164180000000044
                },
                {
                    "name": "A#2",
                    "midi": 46,
                    "time": 181.97017199999735,
                    "velocity": 0.4881889763779528,
                    "duration": 0.7164180000000044
                },
                {
                    "name": "D#3",
                    "midi": 51,
                    "time": 181.97017199999735,
                    "velocity": 0.5669291338582677,
                    "duration": 0.7164180000000044
                },
                {
                    "name": "C2",
                    "midi": 36,
                    "time": 182.59703774999736,
                    "velocity": 0.6377952755905512,
                    "duration": 0.7164180000000044
                },
                {
                    "name": "D#2",
                    "midi": 39,
                    "time": 182.68658999999735,
                    "velocity": 0.44881889763779526,
                    "duration": 0.6268657500000074
                },
                {
                    "name": "G2",
                    "midi": 43,
                    "time": 182.68658999999735,
                    "velocity": 0.44881889763779526,
                    "duration": 0.6268657500000074
                },
                {
                    "name": "C3",
                    "midi": 48,
                    "time": 182.68658999999735,
                    "velocity": 0.5354330708661418,
                    "duration": 0.6268657500000074
                },
                {
                    "name": "D2",
                    "midi": 38,
                    "time": 183.31345574999736,
                    "velocity": 0.6456692913385826,
                    "duration": 0.8059702500000014
                },
                {
                    "name": "F2",
                    "midi": 41,
                    "time": 183.40300799999736,
                    "velocity": 0.4251968503937008,
                    "duration": 0.7164180000000044
                },
                {
                    "name": "A#2",
                    "midi": 46,
                    "time": 183.40300799999736,
                    "velocity": 0.4251968503937008,
                    "duration": 0.7164180000000044
                },
                {
                    "name": "D3",
                    "midi": 50,
                    "time": 183.40300799999736,
                    "velocity": 0.4251968503937008,
                    "duration": 0.7164180000000044
                },
                {
                    "name": "A#2",
                    "midi": 46,
                    "time": 184.11942599999736,
                    "velocity": 0.5511811023622047,
                    "duration": 0.7164180000000044
                },
                {
                    "name": "G#3",
                    "midi": 56,
                    "time": 184.83584399999737,
                    "velocity": 0.49606299212598426,
                    "duration": 0.716417999999976
                },
                {
                    "name": "C4",
                    "midi": 60,
                    "time": 184.83584399999737,
                    "velocity": 0.49606299212598426,
                    "duration": 0.358208999999988
                },
                {
                    "name": "C3",
                    "midi": 48,
                    "time": 184.83584399999737,
                    "velocity": 0.4015748031496063,
                    "duration": 0.358208999999988
                },
                {
                    "name": "C4",
                    "midi": 60,
                    "time": 185.19405299999735,
                    "velocity": 0.4645669291338583,
                    "duration": 0.358208999999988
                },
                {
                    "name": "C3",
                    "midi": 48,
                    "time": 185.19405299999735,
                    "velocity": 0.3858267716535433,
                    "duration": 0.358208999999988
                },
                {
                    "name": "D#3",
                    "midi": 51,
                    "time": 185.55226199999734,
                    "velocity": 0.49606299212598426,
                    "duration": 0.716417999999976
                },
                {
                    "name": "A#3",
                    "midi": 58,
                    "time": 185.55226199999734,
                    "velocity": 0.4251968503937008,
                    "duration": 0.358208999999988
                },
                {
                    "name": "A#2",
                    "midi": 46,
                    "time": 185.55226199999734,
                    "velocity": 0.36220472440944884,
                    "duration": 0.358208999999988
                },
                {
                    "name": "G3",
                    "midi": 55,
                    "time": 185.91047099999733,
                    "velocity": 0.4015748031496063,
                    "duration": 0.358208999999988
                },
                {
                    "name": "G2",
                    "midi": 43,
                    "time": 185.91047099999733,
                    "velocity": 0.3464566929133858,
                    "duration": 0.358208999999988
                },
                {
                    "name": "D#3",
                    "midi": 51,
                    "time": 186.26867999999732,
                    "velocity": 0.4015748031496063,
                    "duration": 1.432835999999952
                },
                {
                    "name": "G#2",
                    "midi": 44,
                    "time": 186.26867999999732,
                    "velocity": 0.4094488188976378,
                    "duration": 0.358208999999988
                },
                {
                    "name": "G#3",
                    "midi": 56,
                    "time": 186.26867999999732,
                    "velocity": 0.4645669291338583,
                    "duration": 0.358208999999988
                },
                {
                    "name": "G#3",
                    "midi": 56,
                    "time": 186.6268889999973,
                    "velocity": 0.4015748031496063,
                    "duration": 0.358208999999988
                },
                {
                    "name": "G#2",
                    "midi": 44,
                    "time": 186.6268889999973,
                    "velocity": 0.30708661417322836,
                    "duration": 0.358208999999988
                },
                {
                    "name": "F3",
                    "midi": 53,
                    "time": 186.9850979999973,
                    "velocity": 0.41732283464566927,
                    "duration": 0.358208999999988
                },
                {
                    "name": "F2",
                    "midi": 41,
                    "time": 186.9850979999973,
                    "velocity": 0.3228346456692913,
                    "duration": 0.358208999999988
                },
                {
                    "name": "G#2",
                    "midi": 44,
                    "time": 187.34330699999728,
                    "velocity": 0.30708661417322836,
                    "duration": 0.358208999999988
                },
                {
                    "name": "G#3",
                    "midi": 56,
                    "time": 187.34330699999728,
                    "velocity": 0.4015748031496063,
                    "duration": 0.358208999999988
                },
                {
                    "name": "D#3",
                    "midi": 51,
                    "time": 187.70151599999727,
                    "velocity": 0.4409448818897638,
                    "duration": 1.0746269999999924
                },
                {
                    "name": "G2",
                    "midi": 43,
                    "time": 187.70151599999727,
                    "velocity": 0.4251968503937008,
                    "duration": 0.7164180000000044
                },
                {
                    "name": "G3",
                    "midi": 55,
                    "time": 187.70151599999727,
                    "velocity": 0.5118110236220472,
                    "duration": 0.7164180000000044
                },
                {
                    "name": "F2",
                    "midi": 41,
                    "time": 188.41793399999727,
                    "velocity": 0.3937007874015748,
                    "duration": 0.358208999999988
                },
                {
                    "name": "F3",
                    "midi": 53,
                    "time": 188.41793399999727,
                    "velocity": 0.47244094488188976,
                    "duration": 0.358208999999988
                },
                {
                    "name": "D#2",
                    "midi": 39,
                    "time": 188.77614299999726,
                    "velocity": 0.4015748031496063,
                    "duration": 0.358208999999988
                },
                {
                    "name": "D#3",
                    "midi": 51,
                    "time": 188.77614299999726,
                    "velocity": 0.4881889763779528,
                    "duration": 0.358208999999988
                },
                {
                    "name": "F3",
                    "midi": 53,
                    "time": 189.13435199999725,
                    "velocity": 0.4015748031496063,
                    "duration": 1.4328360000000089
                },
                {
                    "name": "G#3",
                    "midi": 56,
                    "time": 189.13435199999725,
                    "velocity": 0.4015748031496063,
                    "duration": 1.4328360000000089
                },
                {
                    "name": "C4",
                    "midi": 60,
                    "time": 189.13435199999725,
                    "velocity": 0.4881889763779528,
                    "duration": 1.4328360000000089
                },
                {
                    "name": "D3",
                    "midi": 50,
                    "time": 190.56718799999726,
                    "velocity": 0.41732283464566927,
                    "duration": 0.7164180000000044
                },
                {
                    "name": "F3",
                    "midi": 53,
                    "time": 190.56718799999726,
                    "velocity": 0.41732283464566927,
                    "duration": 0.7164180000000044
                },
                {
                    "name": "D4",
                    "midi": 62,
                    "time": 190.56718799999726,
                    "velocity": 0.5039370078740157,
                    "duration": 0.7164180000000044
                },
                {
                    "name": "A#3",
                    "midi": 58,
                    "time": 190.56718799999726,
                    "velocity": 0.5039370078740157,
                    "duration": 0.7164180000000044
                },
                {
                    "name": "D#4",
                    "midi": 63,
                    "time": 191.28360599999726,
                    "velocity": 0.4645669291338583,
                    "duration": 0.6268657500000074
                },
                {
                    "name": "G3",
                    "midi": 55,
                    "time": 191.28360599999726,
                    "velocity": 0.3858267716535433,
                    "duration": 0.6268657500000074
                },
                {
                    "name": "C3",
                    "midi": 48,
                    "time": 191.28360599999726,
                    "velocity": 0.3858267716535433,
                    "duration": 0.6268657500000074
                },
                {
                    "name": "G#1",
                    "midi": 32,
                    "time": 191.91047174999727,
                    "velocity": 0.5669291338582677,
                    "duration": 0.089552249999997
                },
                {
                    "name": "C4",
                    "midi": 60,
                    "time": 192.00002399999727,
                    "velocity": 0.5275590551181102,
                    "duration": 0.358208999999988
                },
                {
                    "name": "C3",
                    "midi": 48,
                    "time": 192.00002399999727,
                    "velocity": 0.4409448818897638,
                    "duration": 0.358208999999988
                },
                {
                    "name": "C4",
                    "midi": 60,
                    "time": 192.35823299999726,
                    "velocity": 0.49606299212598426,
                    "duration": 0.358208999999988
                },
                {
                    "name": "C3",
                    "midi": 48,
                    "time": 192.35823299999726,
                    "velocity": 0.4015748031496063,
                    "duration": 0.358208999999988
                },
                {
                    "name": "D#3",
                    "midi": 51,
                    "time": 192.71644199999724,
                    "velocity": 0.3543307086614173,
                    "duration": 0.716417999999976
                },
                {
                    "name": "A#3",
                    "midi": 58,
                    "time": 192.71644199999724,
                    "velocity": 0.47244094488188976,
                    "duration": 0.358208999999988
                },
                {
                    "name": "A#2",
                    "midi": 46,
                    "time": 192.71644199999724,
                    "velocity": 0.3937007874015748,
                    "duration": 0.358208999999988
                },
                {
                    "name": "G#3",
                    "midi": 56,
                    "time": 193.07465099999723,
                    "velocity": 0.44881889763779526,
                    "duration": 0.358208999999988
                },
                {
                    "name": "G#2",
                    "midi": 44,
                    "time": 193.07465099999723,
                    "velocity": 0.3779527559055118,
                    "duration": 0.358208999999988
                },
                {
                    "name": "D#3",
                    "midi": 51,
                    "time": 193.43285999999722,
                    "velocity": 0.4251968503937008,
                    "duration": 1.0746269999999924
                },
                {
                    "name": "G2",
                    "midi": 43,
                    "time": 193.43285999999722,
                    "velocity": 0.4094488188976378,
                    "duration": 0.7164180000000044
                },
                {
                    "name": "G3",
                    "midi": 55,
                    "time": 193.43285999999722,
                    "velocity": 0.49606299212598426,
                    "duration": 0.7164180000000044
                },
                {
                    "name": "F2",
                    "midi": 41,
                    "time": 194.14927799999722,
                    "velocity": 0.4094488188976378,
                    "duration": 0.358208999999988
                },
                {
                    "name": "F3",
                    "midi": 53,
                    "time": 194.14927799999722,
                    "velocity": 0.49606299212598426,
                    "duration": 0.358208999999988
                },
                {
                    "name": "D#2",
                    "midi": 39,
                    "time": 194.5074869999972,
                    "velocity": 0.4251968503937008,
                    "duration": 0.358208999999988
                },
                {
                    "name": "D#3",
                    "midi": 51,
                    "time": 194.5074869999972,
                    "velocity": 0.5118110236220472,
                    "duration": 0.358208999999988
                },
                {
                    "name": "G#2",
                    "midi": 44,
                    "time": 194.8656959999972,
                    "velocity": 0.4409448818897638,
                    "duration": 1.4328360000000089
                },
                {
                    "name": "G#3",
                    "midi": 56,
                    "time": 194.8656959999972,
                    "velocity": 0.5354330708661418,
                    "duration": 1.4328360000000089
                },
                {
                    "name": "G2",
                    "midi": 43,
                    "time": 196.2985319999972,
                    "velocity": 0.47244094488188976,
                    "duration": 1.4328360000000089
                },
                {
                    "name": "G3",
                    "midi": 55,
                    "time": 196.2985319999972,
                    "velocity": 0.5590551181102362,
                    "duration": 1.4328360000000089
                },
                {
                    "name": "D#1",
                    "midi": 27,
                    "time": 197.73136799999722,
                    "velocity": 0.6692913385826772,
                    "duration": 1.3432837499999835
                },
                {
                    "name": "D#2",
                    "midi": 39,
                    "time": 197.73136799999722,
                    "velocity": 0.7086614173228346,
                    "duration": 1.3432837499999835
                },
                {
                    "name": "G2",
                    "midi": 43,
                    "time": 197.82092024999722,
                    "velocity": 0.49606299212598426,
                    "duration": 1.2537314999999865
                },
                {
                    "name": "A#2",
                    "midi": 46,
                    "time": 197.82092024999722,
                    "velocity": 0.49606299212598426,
                    "duration": 1.2537314999999865
                },
                {
                    "name": "D#3",
                    "midi": 51,
                    "time": 197.82092024999722,
                    "velocity": 0.5984251968503937,
                    "duration": 1.2537314999999865
                },
                {
                    "name": "G3",
                    "midi": 55,
                    "time": 197.82092024999722,
                    "velocity": 0.5984251968503937,
                    "duration": 1.2537314999999865
                },
                {
                    "name": "D#1",
                    "midi": 27,
                    "time": 199.0746517499972,
                    "velocity": 0.5984251968503937,
                    "duration": 1.4328360000000089
                },
                {
                    "name": "D#2",
                    "midi": 39,
                    "time": 199.0746517499972,
                    "velocity": 0.7086614173228346,
                    "duration": 1.4328360000000089
                },
                {
                    "name": "F2",
                    "midi": 41,
                    "time": 199.1642039999972,
                    "velocity": 0.4881889763779528,
                    "duration": 1.3432837500000119
                },
                {
                    "name": "A#2",
                    "midi": 46,
                    "time": 199.1642039999972,
                    "velocity": 0.4881889763779528,
                    "duration": 1.3432837500000119
                },
                {
                    "name": "D3",
                    "midi": 50,
                    "time": 199.1642039999972,
                    "velocity": 0.4881889763779528,
                    "duration": 1.3432837500000119
                },
                {
                    "name": "F3",
                    "midi": 53,
                    "time": 199.1642039999972,
                    "velocity": 0.5590551181102362,
                    "duration": 1.3432837500000119
                },
                {
                    "name": "F1",
                    "midi": 29,
                    "time": 200.5074877499972,
                    "velocity": 0.6614173228346457,
                    "duration": 0.8059702500000014
                },
                {
                    "name": "D#2",
                    "midi": 39,
                    "time": 200.5970399999972,
                    "velocity": 0.49606299212598426,
                    "duration": 0.7164180000000044
                },
                {
                    "name": "G2",
                    "midi": 43,
                    "time": 200.5970399999972,
                    "velocity": 0.49606299212598426,
                    "duration": 0.7164180000000044
                },
                {
                    "name": "A#2",
                    "midi": 46,
                    "time": 200.5970399999972,
                    "velocity": 0.5984251968503937,
                    "duration": 0.7164180000000044
                },
                {
                    "name": "D#3",
                    "midi": 51,
                    "time": 200.5970399999972,
                    "velocity": 0.5984251968503937,
                    "duration": 0.7164180000000044
                },
                {
                    "name": "C2",
                    "midi": 36,
                    "time": 201.3134579999972,
                    "velocity": 0.4881889763779528,
                    "duration": 0.7164180000000044
                },
                {
                    "name": "D#2",
                    "midi": 39,
                    "time": 201.3134579999972,
                    "velocity": 0.4881889763779528,
                    "duration": 0.7164180000000044
                },
                {
                    "name": "G2",
                    "midi": 43,
                    "time": 201.3134579999972,
                    "velocity": 0.5590551181102362,
                    "duration": 0.7164180000000044
                },
                {
                    "name": "C3",
                    "midi": 48,
                    "time": 201.3134579999972,
                    "velocity": 0.5590551181102362,
                    "duration": 0.7164180000000044
                },
                {
                    "name": "D2",
                    "midi": 38,
                    "time": 202.02987599999722,
                    "velocity": 0.44881889763779526,
                    "duration": 0.7164180000000044
                },
                {
                    "name": "F2",
                    "midi": 41,
                    "time": 202.02987599999722,
                    "velocity": 0.44881889763779526,
                    "duration": 0.7164180000000044
                },
                {
                    "name": "A#2",
                    "midi": 46,
                    "time": 202.02987599999722,
                    "velocity": 0.5354330708661418,
                    "duration": 0.7164180000000044
                },
                {
                    "name": "D3",
                    "midi": 50,
                    "time": 202.02987599999722,
                    "velocity": 0.5354330708661418,
                    "duration": 0.7164180000000044
                },
                {
                    "name": "A#1",
                    "midi": 34,
                    "time": 202.74629399999722,
                    "velocity": 0.49606299212598426,
                    "duration": 0.6268657500000074
                },
                {
                    "name": "A#2",
                    "midi": 46,
                    "time": 202.74629399999722,
                    "velocity": 0.5669291338582677,
                    "duration": 0.6268657500000074
                },
                {
                    "name": "D#1",
                    "midi": 27,
                    "time": 203.37315974999723,
                    "velocity": 0.5984251968503937,
                    "duration": 2.8656719999999893
                },
                {
                    "name": "D#2",
                    "midi": 39,
                    "time": 203.37315974999723,
                    "velocity": 0.7086614173228346,
                    "duration": 2.8656719999999893
                },
                {
                    "name": "G2",
                    "midi": 43,
                    "time": 203.46271199999723,
                    "velocity": 0.5590551181102362,
                    "duration": 0.7164180000000044
                },
                {
                    "name": "G3",
                    "midi": 55,
                    "time": 203.46271199999723,
                    "velocity": 0.5590551181102362,
                    "duration": 0.7164180000000044
                },
                {
                    "name": "A#2",
                    "midi": 46,
                    "time": 203.46271199999723,
                    "velocity": 0.5590551181102362,
                    "duration": 0.7164180000000044
                },
                {
                    "name": "D2",
                    "midi": 38,
                    "time": 204.17912999999723,
                    "velocity": 0.49606299212598426,
                    "duration": 0.358208999999988
                },
                {
                    "name": "D3",
                    "midi": 50,
                    "time": 204.17912999999723,
                    "velocity": 0.5905511811023622,
                    "duration": 0.358208999999988
                },
                {
                    "name": "A#2",
                    "midi": 46,
                    "time": 204.17912999999723,
                    "velocity": 0.5905511811023622,
                    "duration": 0.716417999999976
                },
                {
                    "name": "C2",
                    "midi": 36,
                    "time": 204.53733899999722,
                    "velocity": 0.49606299212598426,
                    "duration": 0.358208999999988
                },
                {
                    "name": "C3",
                    "midi": 48,
                    "time": 204.53733899999722,
                    "velocity": 0.5905511811023622,
                    "duration": 0.358208999999988
                },
                {
                    "name": "A#1",
                    "midi": 34,
                    "time": 204.8955479999972,
                    "velocity": 0.3937007874015748,
                    "duration": 0.7164180000000044
                },
                {
                    "name": "G2",
                    "midi": 43,
                    "time": 204.8955479999972,
                    "velocity": 0.4881889763779528,
                    "duration": 0.7164180000000044
                },
                {
                    "name": "A#2",
                    "midi": 46,
                    "time": 204.8955479999972,
                    "velocity": 0.4881889763779528,
                    "duration": 0.7164180000000044
                },
                {
                    "name": "D2",
                    "midi": 38,
                    "time": 205.6119659999972,
                    "velocity": 0.3543307086614173,
                    "duration": 0.6268657500000074
                },
                {
                    "name": "A#2",
                    "midi": 46,
                    "time": 205.6119659999972,
                    "velocity": 0.4251968503937008,
                    "duration": 0.6268657500000074
                },
                {
                    "name": "D3",
                    "midi": 50,
                    "time": 205.6119659999972,
                    "velocity": 0.4251968503937008,
                    "duration": 0.6268657500000074
                },
                {
                    "name": "D#1",
                    "midi": 27,
                    "time": 206.23883174999722,
                    "velocity": 0.5984251968503937,
                    "duration": 2.9552242499999863
                },
                {
                    "name": "D#2",
                    "midi": 39,
                    "time": 206.23883174999722,
                    "velocity": 0.6377952755905512,
                    "duration": 2.9552242499999863
                },
                {
                    "name": "A#2",
                    "midi": 46,
                    "time": 206.32838399999721,
                    "velocity": 0.5590551181102362,
                    "duration": 0.7164180000000044
                },
                {
                    "name": "D#3",
                    "midi": 51,
                    "time": 206.32838399999721,
                    "velocity": 0.5590551181102362,
                    "duration": 0.7164180000000044
                },
                {
                    "name": "D2",
                    "midi": 38,
                    "time": 207.04480199999722,
                    "velocity": 0.49606299212598426,
                    "duration": 0.358208999999988
                },
                {
                    "name": "D3",
                    "midi": 50,
                    "time": 207.04480199999722,
                    "velocity": 0.5905511811023622,
                    "duration": 0.358208999999988
                },
                {
                    "name": "A#2",
                    "midi": 46,
                    "time": 207.04480199999722,
                    "velocity": 0.5905511811023622,
                    "duration": 0.716417999999976
                },
                {
                    "name": "C2",
                    "midi": 36,
                    "time": 207.4030109999972,
                    "velocity": 0.49606299212598426,
                    "duration": 0.358208999999988
                },
                {
                    "name": "C3",
                    "midi": 48,
                    "time": 207.4030109999972,
                    "velocity": 0.5905511811023622,
                    "duration": 0.358208999999988
                },
                {
                    "name": "A#1",
                    "midi": 34,
                    "time": 207.7612199999972,
                    "velocity": 0.4409448818897638,
                    "duration": 0.7164180000000044
                },
                {
                    "name": "G2",
                    "midi": 43,
                    "time": 207.7612199999972,
                    "velocity": 0.5354330708661418,
                    "duration": 0.7164180000000044
                },
                {
                    "name": "A#2",
                    "midi": 46,
                    "time": 207.7612199999972,
                    "velocity": 0.5354330708661418,
                    "duration": 0.7164180000000044
                },
                {
                    "name": "D2",
                    "midi": 38,
                    "time": 208.4776379999972,
                    "velocity": 0.3543307086614173,
                    "duration": 0.7164180000000044
                },
                {
                    "name": "A#2",
                    "midi": 46,
                    "time": 208.4776379999972,
                    "velocity": 0.4094488188976378,
                    "duration": 0.7164180000000044
                },
                {
                    "name": "D3",
                    "midi": 50,
                    "time": 208.4776379999972,
                    "velocity": 0.4094488188976378,
                    "duration": 0.7164180000000044
                },
                {
                    "name": "D#3",
                    "midi": 51,
                    "time": 209.1940559999972,
                    "velocity": 0.3937007874015748,
                    "duration": 1.4328360000000089
                },
                {
                    "name": "G#2",
                    "midi": 44,
                    "time": 209.1940559999972,
                    "velocity": 0.3937007874015748,
                    "duration": 1.4328360000000089
                },
                {
                    "name": "G#2",
                    "midi": 44,
                    "time": 210.6268919999972,
                    "velocity": 0.33070866141732286,
                    "duration": 0.7164180000000044
                },
                {
                    "name": "D#3",
                    "midi": 51,
                    "time": 210.6268919999972,
                    "velocity": 0.33070866141732286,
                    "duration": 0.7164180000000044
                },
                {
                    "name": "B2",
                    "midi": 47,
                    "time": 211.34330999999722,
                    "velocity": 0.3228346456692913,
                    "duration": 0.7164180000000044
                },
                {
                    "name": "G#3",
                    "midi": 56,
                    "time": 211.34330999999722,
                    "velocity": 0.3228346456692913,
                    "duration": 0.7164180000000044
                },
                {
                    "name": "C#3",
                    "midi": 49,
                    "time": 212.05972799999722,
                    "velocity": 0.33858267716535434,
                    "duration": 0.7164180000000044
                },
                {
                    "name": "G#3",
                    "midi": 56,
                    "time": 212.05972799999722,
                    "velocity": 0.33858267716535434,
                    "duration": 0.7164180000000044
                },
                {
                    "name": "B2",
                    "midi": 47,
                    "time": 212.77614599999723,
                    "velocity": 0.33858267716535434,
                    "duration": 0.7164180000000044
                },
                {
                    "name": "B3",
                    "midi": 59,
                    "time": 212.77614599999723,
                    "velocity": 0.33858267716535434,
                    "duration": 0.7164180000000044
                },
                {
                    "name": "E3",
                    "midi": 52,
                    "time": 213.49256399999723,
                    "velocity": 0.3543307086614173,
                    "duration": 1.4328360000000089
                },
                {
                    "name": "B3",
                    "midi": 59,
                    "time": 213.49256399999723,
                    "velocity": 0.3543307086614173,
                    "duration": 1.4328360000000089
                },
                {
                    "name": "B3",
                    "midi": 59,
                    "time": 214.92539999999724,
                    "velocity": 0.33858267716535434,
                    "duration": 1.4328360000000089
                },
                {
                    "name": "B3",
                    "midi": 59,
                    "time": 216.35823599999725,
                    "velocity": 0.33858267716535434,
                    "duration": 0.7164180000000044
                },
                {
                    "name": "G#3",
                    "midi": 56,
                    "time": 216.35823599999725,
                    "velocity": 0.33858267716535434,
                    "duration": 0.7164180000000044
                },
                {
                    "name": "C#4",
                    "midi": 61,
                    "time": 217.07465399999725,
                    "velocity": 0.3464566929133858,
                    "duration": 0.7164180000000044
                },
                {
                    "name": "F#3",
                    "midi": 54,
                    "time": 217.07465399999725,
                    "velocity": 0.3464566929133858,
                    "duration": 0.7164180000000044
                },
                {
                    "name": "E3",
                    "midi": 52,
                    "time": 217.79107199999726,
                    "velocity": 0.36220472440944884,
                    "duration": 0.7164180000000044
                },
                {
                    "name": "E4",
                    "midi": 64,
                    "time": 217.79107199999726,
                    "velocity": 0.36220472440944884,
                    "duration": 0.7164180000000044
                },
                {
                    "name": "E3",
                    "midi": 52,
                    "time": 218.50748999999726,
                    "velocity": 0.33858267716535434,
                    "duration": 0.7164180000000044
                },
                {
                    "name": "E4",
                    "midi": 64,
                    "time": 218.50748999999726,
                    "velocity": 0.33858267716535434,
                    "duration": 0.7164180000000044
                },
                {
                    "name": "A3",
                    "midi": 57,
                    "time": 219.22390799999727,
                    "velocity": 0.3543307086614173,
                    "duration": 0.7164180000000044
                },
                {
                    "name": "E4",
                    "midi": 64,
                    "time": 219.22390799999727,
                    "velocity": 0.3543307086614173,
                    "duration": 0.7164180000000044
                },
                {
                    "name": "E3",
                    "midi": 52,
                    "time": 219.94032599999727,
                    "velocity": 0.36220472440944884,
                    "duration": 0.7164180000000044
                },
                {
                    "name": "E4",
                    "midi": 64,
                    "time": 219.94032599999727,
                    "velocity": 0.36220472440944884,
                    "duration": 0.7164180000000044
                },
                {
                    "name": "E4",
                    "midi": 64,
                    "time": 220.65674399999727,
                    "velocity": 0.3700787401574803,
                    "duration": 1.4328360000000089
                },
                {
                    "name": "A3",
                    "midi": 57,
                    "time": 220.65674399999727,
                    "velocity": 0.3700787401574803,
                    "duration": 1.4328360000000089
                },
                {
                    "name": "D4",
                    "midi": 62,
                    "time": 222.08957999999728,
                    "velocity": 0.4094488188976378,
                    "duration": 0.7164180000000044
                },
                {
                    "name": "B3",
                    "midi": 59,
                    "time": 222.08957999999728,
                    "velocity": 0.4094488188976378,
                    "duration": 0.7164180000000044
                },
                {
                    "name": "E4",
                    "midi": 64,
                    "time": 222.8059979999973,
                    "velocity": 0.3858267716535433,
                    "duration": 0.7164180000000044
                },
                {
                    "name": "A3",
                    "midi": 57,
                    "time": 222.8059979999973,
                    "velocity": 0.3858267716535433,
                    "duration": 0.7164180000000044
                },
                {
                    "name": "E3",
                    "midi": 52,
                    "time": 223.5224159999973,
                    "velocity": 0.3700787401574803,
                    "duration": 1.4328360000000089
                },
                {
                    "name": "E4",
                    "midi": 64,
                    "time": 223.5224159999973,
                    "velocity": 0.3700787401574803,
                    "duration": 1.4328360000000089
                },
                {
                    "name": "A3",
                    "midi": 57,
                    "time": 224.9552519999973,
                    "velocity": 0.3779527559055118,
                    "duration": 0.7164180000000044
                },
                {
                    "name": "C#4",
                    "midi": 61,
                    "time": 224.9552519999973,
                    "velocity": 0.3779527559055118,
                    "duration": 0.7164180000000044
                },
                {
                    "name": "E3",
                    "midi": 52,
                    "time": 225.6716699999973,
                    "velocity": 0.3700787401574803,
                    "duration": 0.7164180000000044
                },
                {
                    "name": "B3",
                    "midi": 59,
                    "time": 225.6716699999973,
                    "velocity": 0.3700787401574803,
                    "duration": 0.7164180000000044
                },
                {
                    "name": "A3",
                    "midi": 57,
                    "time": 226.3880879999973,
                    "velocity": 0.3543307086614173,
                    "duration": 0.7164180000000044
                },
                {
                    "name": "F#3",
                    "midi": 54,
                    "time": 226.3880879999973,
                    "velocity": 0.3543307086614173,
                    "duration": 0.7164180000000044
                },
                {
                    "name": "C#3",
                    "midi": 49,
                    "time": 227.10450599999731,
                    "velocity": 0.3228346456692913,
                    "duration": 0.7164180000000044
                },
                {
                    "name": "G#3",
                    "midi": 56,
                    "time": 227.10450599999731,
                    "velocity": 0.3228346456692913,
                    "duration": 0.7164180000000044
                },
                {
                    "name": "D#3",
                    "midi": 51,
                    "time": 227.82092399999732,
                    "velocity": 0.3700787401574803,
                    "duration": 1.4328360000000089
                },
                {
                    "name": "F#3",
                    "midi": 54,
                    "time": 227.82092399999732,
                    "velocity": 0.3700787401574803,
                    "duration": 1.4328360000000089
                },
                {
                    "name": "E3",
                    "midi": 52,
                    "time": 229.25375999999733,
                    "velocity": 0.33858267716535434,
                    "duration": 1.4328360000000089
                },
                {
                    "name": "G#3",
                    "midi": 56,
                    "time": 229.25375999999733,
                    "velocity": 0.33858267716535434,
                    "duration": 1.4328360000000089
                },
                {
                    "name": "D#3",
                    "midi": 51,
                    "time": 230.68659599999734,
                    "velocity": 0.30708661417322836,
                    "duration": 1.4328360000000089
                },
                {
                    "name": "G#2",
                    "midi": 44,
                    "time": 230.68659599999734,
                    "velocity": 0.30708661417322836,
                    "duration": 1.4328360000000089
                },
                {
                    "name": "G#2",
                    "midi": 44,
                    "time": 232.11943199999735,
                    "velocity": 0.28346456692913385,
                    "duration": 0.7164180000000044
                },
                {
                    "name": "D#3",
                    "midi": 51,
                    "time": 232.11943199999735,
                    "velocity": 0.28346456692913385,
                    "duration": 0.7164180000000044
                },
                {
                    "name": "G#2",
                    "midi": 44,
                    "time": 232.83584999999735,
                    "velocity": 0.2677165354330709,
                    "duration": 0.6268657500000074
                },
                {
                    "name": "D#3",
                    "midi": 51,
                    "time": 232.83584999999735,
                    "velocity": 0.2677165354330709,
                    "duration": 0.6268657500000074
                },
                {
                    "name": "D#2",
                    "midi": 39,
                    "time": 233.46271574999736,
                    "velocity": 0.6377952755905512,
                    "duration": 1.4328360000000089
                },
                {
                    "name": "G2",
                    "midi": 43,
                    "time": 233.55226799999735,
                    "velocity": 0.5669291338582677,
                    "duration": 1.3432837500000119
                },
                {
                    "name": "A#2",
                    "midi": 46,
                    "time": 233.55226799999735,
                    "velocity": 0.5669291338582677,
                    "duration": 1.3432837500000119
                },
                {
                    "name": "D#3",
                    "midi": 51,
                    "time": 233.55226799999735,
                    "velocity": 0.6929133858267716,
                    "duration": 1.3432837500000119
                },
                {
                    "name": "F2",
                    "midi": 41,
                    "time": 234.89555174999737,
                    "velocity": 0.5905511811023622,
                    "duration": 1.4328360000000089
                },
                {
                    "name": "A#2",
                    "midi": 46,
                    "time": 234.98510399999736,
                    "velocity": 0.5511811023622047,
                    "duration": 1.3432837500000119
                },
                {
                    "name": "D3",
                    "midi": 50,
                    "time": 234.98510399999736,
                    "velocity": 0.5511811023622047,
                    "duration": 1.3432837500000119
                },
                {
                    "name": "F3",
                    "midi": 53,
                    "time": 234.98510399999736,
                    "velocity": 0.6771653543307087,
                    "duration": 1.3432837500000119
                },
                {
                    "name": "G2",
                    "midi": 43,
                    "time": 236.32838774999738,
                    "velocity": 0.6299212598425197,
                    "duration": 0.7164180000000044
                },
                {
                    "name": "A#2",
                    "midi": 46,
                    "time": 236.41793999999737,
                    "velocity": 0.5511811023622047,
                    "duration": 0.6268657500000074
                },
                {
                    "name": "D#3",
                    "midi": 51,
                    "time": 236.41793999999737,
                    "velocity": 0.5511811023622047,
                    "duration": 0.6268657500000074
                },
                {
                    "name": "G3",
                    "midi": 55,
                    "time": 236.41793999999737,
                    "velocity": 0.6850393700787402,
                    "duration": 0.6268657500000074
                },
                {
                    "name": "D#2",
                    "midi": 39,
                    "time": 237.04480574999738,
                    "velocity": 0.5196850393700787,
                    "duration": 0.358208999999988
                },
                {
                    "name": "A#2",
                    "midi": 46,
                    "time": 237.13435799999738,
                    "velocity": 0.5275590551181102,
                    "duration": 0.268656749999991
                },
                {
                    "name": "D#3",
                    "midi": 51,
                    "time": 237.13435799999738,
                    "velocity": 0.6456692913385826,
                    "duration": 0.268656749999991
                },
                {
                    "name": "G2",
                    "midi": 43,
                    "time": 237.40301474999737,
                    "velocity": 0.49606299212598426,
                    "duration": 0.358208999999988
                },
                {
                    "name": "A#2",
                    "midi": 46,
                    "time": 237.49256699999736,
                    "velocity": 0.5039370078740157,
                    "duration": 0.268656749999991
                },
                {
                    "name": "G3",
                    "midi": 55,
                    "time": 237.49256699999736,
                    "velocity": 0.6299212598425197,
                    "duration": 0.268656749999991
                },
                {
                    "name": "F2",
                    "midi": 41,
                    "time": 237.76122374999736,
                    "velocity": 0.49606299212598426,
                    "duration": 0.7164180000000044
                },
                {
                    "name": "A#2",
                    "midi": 46,
                    "time": 237.85077599999735,
                    "velocity": 0.49606299212598426,
                    "duration": 0.6268657500000074
                },
                {
                    "name": "F3",
                    "midi": 53,
                    "time": 237.85077599999735,
                    "velocity": 0.6220472440944882,
                    "duration": 0.6268657500000074
                },
                {
                    "name": "A#1",
                    "midi": 34,
                    "time": 238.47764174999736,
                    "velocity": 0.4251968503937008,
                    "duration": 0.8059702500000014
                },
                {
                    "name": "D2",
                    "midi": 38,
                    "time": 238.56719399999736,
                    "velocity": 0.4645669291338583,
                    "duration": 0.7164180000000044
                },
                {
                    "name": "A#2",
                    "midi": 46,
                    "time": 238.56719399999736,
                    "velocity": 0.5590551181102362,
                    "duration": 0.7164180000000044
                },
                {
                    "name": "G2",
                    "midi": 43,
                    "time": 239.28361199999736,
                    "velocity": 0.5275590551181102,
                    "duration": 0.358208999999988
                },
                {
                    "name": "A#2",
                    "midi": 46,
                    "time": 239.28361199999736,
                    "velocity": 0.5275590551181102,
                    "duration": 0.358208999999988
                },
                {
                    "name": "G3",
                    "midi": 55,
                    "time": 239.28361199999736,
                    "velocity": 0.6456692913385826,
                    "duration": 0.358208999999988
                },
                {
                    "name": "D#3",
                    "midi": 51,
                    "time": 239.64182099999735,
                    "velocity": 0.49606299212598426,
                    "duration": 0.358208999999988
                },
                {
                    "name": "A#2",
                    "midi": 46,
                    "time": 239.64182099999735,
                    "velocity": 0.49606299212598426,
                    "duration": 0.358208999999988
                },
                {
                    "name": "A#3",
                    "midi": 58,
                    "time": 239.64182099999735,
                    "velocity": 0.5984251968503937,
                    "duration": 0.358208999999988
                },
                {
                    "name": "A#2",
                    "midi": 46,
                    "time": 240.00002999999734,
                    "velocity": 0.5118110236220472,
                    "duration": 0.626865749999979
                },
                {
                    "name": "F2",
                    "midi": 41,
                    "time": 240.00002999999734,
                    "velocity": 0.5118110236220472,
                    "duration": 0.358208999999988
                },
                {
                    "name": "F3",
                    "midi": 53,
                    "time": 240.00002999999734,
                    "velocity": 0.6377952755905512,
                    "duration": 0.358208999999988
                },
                {
                    "name": "D#2",
                    "midi": 39,
                    "time": 240.35823899999733,
                    "velocity": 0.49606299212598426,
                    "duration": 0.268656749999991
                },
                {
                    "name": "D#3",
                    "midi": 51,
                    "time": 240.35823899999733,
                    "velocity": 0.6220472440944882,
                    "duration": 0.268656749999991
                },
                {
                    "name": "D2",
                    "midi": 38,
                    "time": 240.62689574999732,
                    "velocity": 0.49606299212598426,
                    "duration": 0.7164180000000044
                },
                {
                    "name": "A#2",
                    "midi": 46,
                    "time": 240.7164479999973,
                    "velocity": 0.49606299212598426,
                    "duration": 0.6268657500000074
                },
                {
                    "name": "D3",
                    "midi": 50,
                    "time": 240.7164479999973,
                    "velocity": 0.6220472440944882,
                    "duration": 0.6268657500000074
                },
                {
                    "name": "A#1",
                    "midi": 34,
                    "time": 241.34331374999732,
                    "velocity": 0.4251968503937008,
                    "duration": 0.8059702500000014
                },
                {
                    "name": "G2",
                    "midi": 43,
                    "time": 241.43286599999732,
                    "velocity": 0.4251968503937008,
                    "duration": 0.7164180000000044
                },
                {
                    "name": "A#2",
                    "midi": 46,
                    "time": 241.43286599999732,
                    "velocity": 0.5354330708661418,
                    "duration": 0.7164180000000044
                },
                {
                    "name": "G2",
                    "midi": 43,
                    "time": 242.14928399999732,
                    "velocity": 0.5275590551181102,
                    "duration": 0.358208999999988
                },
                {
                    "name": "G3",
                    "midi": 55,
                    "time": 242.14928399999732,
                    "velocity": 0.6456692913385826,
                    "duration": 0.358208999999988
                },
                {
                    "name": "D#3",
                    "midi": 51,
                    "time": 242.14928399999732,
                    "velocity": 0.5275590551181102,
                    "duration": 0.716417999999976
                },
                {
                    "name": "A#2",
                    "midi": 46,
                    "time": 242.5074929999973,
                    "velocity": 0.49606299212598426,
                    "duration": 0.358208999999988
                },
                {
                    "name": "A#3",
                    "midi": 58,
                    "time": 242.5074929999973,
                    "velocity": 0.5984251968503937,
                    "duration": 0.358208999999988
                },
                {
                    "name": "A#2",
                    "midi": 46,
                    "time": 242.8657019999973,
                    "velocity": 0.5118110236220472,
                    "duration": 0.626865749999979
                },
                {
                    "name": "F2",
                    "midi": 41,
                    "time": 242.8657019999973,
                    "velocity": 0.5118110236220472,
                    "duration": 0.358208999999988
                },
                {
                    "name": "F3",
                    "midi": 53,
                    "time": 242.8657019999973,
                    "velocity": 0.6377952755905512,
                    "duration": 0.358208999999988
                },
                {
                    "name": "D#2",
                    "midi": 39,
                    "time": 243.2239109999973,
                    "velocity": 0.49606299212598426,
                    "duration": 0.268656749999991
                },
                {
                    "name": "D#3",
                    "midi": 51,
                    "time": 243.2239109999973,
                    "velocity": 0.6220472440944882,
                    "duration": 0.268656749999991
                },
                {
                    "name": "D2",
                    "midi": 38,
                    "time": 243.49256774999728,
                    "velocity": 0.5039370078740157,
                    "duration": 0.7164180000000044
                },
                {
                    "name": "A#2",
                    "midi": 46,
                    "time": 243.58211999999727,
                    "velocity": 0.49606299212598426,
                    "duration": 0.6268657500000074
                },
                {
                    "name": "D3",
                    "midi": 50,
                    "time": 243.58211999999727,
                    "velocity": 0.6220472440944882,
                    "duration": 0.6268657500000074
                },
                {
                    "name": "A#1",
                    "midi": 34,
                    "time": 244.20898574999728,
                    "velocity": 0.4251968503937008,
                    "duration": 0.8059702500000014
                },
                {
                    "name": "G2",
                    "midi": 43,
                    "time": 244.29853799999728,
                    "velocity": 0.4251968503937008,
                    "duration": 0.7164180000000044
                },
                {
                    "name": "A#2",
                    "midi": 46,
                    "time": 244.29853799999728,
                    "velocity": 0.5354330708661418,
                    "duration": 0.7164180000000044
                },
                {
                    "name": "D#4",
                    "midi": 63,
                    "time": 245.0142097312473,
                    "velocity": 0.5669291338582677,
                    "duration": 0.179104499999994
                },
                {
                    "name": "D#5",
                    "midi": 75,
                    "time": 245.01495599999728,
                    "velocity": 0.6456692913385826,
                    "duration": 0.179104499999994
                },
                {
                    "name": "D4",
                    "midi": 62,
                    "time": 245.19331423124729,
                    "velocity": 0.5354330708661418,
                    "duration": 0.179104499999994
                },
                {
                    "name": "D5",
                    "midi": 74,
                    "time": 245.19406049999728,
                    "velocity": 0.5905511811023622,
                    "duration": 0.179104499999994
                },
                {
                    "name": "C5",
                    "midi": 72,
                    "time": 245.37316499999727,
                    "velocity": 0.6456692913385826,
                    "duration": 0.17910450000002243
                },
                {
                    "name": "C4",
                    "midi": 60,
                    "time": 245.37540380624728,
                    "velocity": 0.5669291338582677,
                    "duration": 0.17910450000002243
                },
                {
                    "name": "A#3",
                    "midi": 58,
                    "time": 245.55077696249728,
                    "velocity": 0.5275590551181102,
                    "duration": 0.17910450000002243
                },
                {
                    "name": "A#4",
                    "midi": 70,
                    "time": 245.5522694999973,
                    "velocity": 0.5748031496062992,
                    "duration": 0.17910450000002243
                },
                {
                    "name": "G#3",
                    "midi": 56,
                    "time": 245.73137399999732,
                    "velocity": 0.5669291338582677,
                    "duration": 0.17910450000002243
                },
                {
                    "name": "G#4",
                    "midi": 68,
                    "time": 245.73137399999732,
                    "velocity": 0.6456692913385826,
                    "duration": 0.17910450000002243
                },
                {
                    "name": "G3",
                    "midi": 55,
                    "time": 245.90898596249733,
                    "velocity": 0.5275590551181102,
                    "duration": 0.17910450000002243
                },
                {
                    "name": "G4",
                    "midi": 67,
                    "time": 245.91047849999734,
                    "velocity": 0.5748031496062992,
                    "duration": 0.17910450000002243
                },
                {
                    "name": "F4",
                    "midi": 65,
                    "time": 246.08958299999736,
                    "velocity": 0.6456692913385826,
                    "duration": 0.17910450000002243
                },
                {
                    "name": "F3",
                    "midi": 53,
                    "time": 246.09107553749737,
                    "velocity": 0.6456692913385826,
                    "duration": 0.17910450000002243
                },
                {
                    "name": "D#3",
                    "midi": 51,
                    "time": 246.26719496249737,
                    "velocity": 0.5196850393700787,
                    "duration": 0.17910450000002243
                },
                {
                    "name": "D#4",
                    "midi": 63,
                    "time": 246.26868749999738,
                    "velocity": 0.5669291338582677,
                    "duration": 0.17910450000002243
                },
                {
                    "name": "D3",
                    "midi": 50,
                    "time": 246.4462994624974,
                    "velocity": 0.5669291338582677,
                    "duration": 0.17910450000002243
                },
                {
                    "name": "D4",
                    "midi": 62,
                    "time": 246.4477919999974,
                    "velocity": 0.6456692913385826,
                    "duration": 0.17910450000002243
                },
                {
                    "name": "C4",
                    "midi": 60,
                    "time": 246.62689649999743,
                    "velocity": 0.5669291338582677,
                    "duration": 0.179104499999994
                },
                {
                    "name": "C3",
                    "midi": 48,
                    "time": 246.62913530624743,
                    "velocity": 0.5118110236220472,
                    "duration": 0.179104499999994
                },
                {
                    "name": "A#2",
                    "midi": 46,
                    "time": 246.80525473124743,
                    "velocity": 0.5669291338582677,
                    "duration": 0.179104499999994
                },
                {
                    "name": "A#3",
                    "midi": 58,
                    "time": 246.80600099999742,
                    "velocity": 0.6456692913385826,
                    "duration": 0.179104499999994
                },
                {
                    "name": "G#2",
                    "midi": 44,
                    "time": 246.98435923124742,
                    "velocity": 0.5354330708661418,
                    "duration": 0.179104499999994
                },
                {
                    "name": "G#3",
                    "midi": 56,
                    "time": 246.98510549999742,
                    "velocity": 0.5905511811023622,
                    "duration": 0.179104499999994
                },
                {
                    "name": "G3",
                    "midi": 55,
                    "time": 247.1642099999974,
                    "velocity": 0.6456692913385826,
                    "duration": 0.179104499999994
                },
                {
                    "name": "G2",
                    "midi": 43,
                    "time": 247.1649562687474,
                    "velocity": 0.5669291338582677,
                    "duration": 0.179104499999994
                },
                {
                    "name": "F3",
                    "midi": 53,
                    "time": 247.3433144999974,
                    "velocity": 0.5748031496062992,
                    "duration": 0.179104499999994
                },
                {
                    "name": "F2",
                    "midi": 41,
                    "time": 247.3448070374974,
                    "velocity": 0.5275590551181102,
                    "duration": 0.17910450000002243
                },
                {
                    "name": "D#3",
                    "midi": 51,
                    "time": 247.5224189999974,
                    "velocity": 0.6456692913385826,
                    "duration": 0.179104499999994
                },
                {
                    "name": "D#2",
                    "midi": 39,
                    "time": 247.5246578062474,
                    "velocity": 0.5669291338582677,
                    "duration": 0.179104499999994
                },
                {
                    "name": "D3",
                    "midi": 50,
                    "time": 247.7015234999974,
                    "velocity": 0.5669291338582677,
                    "duration": 0.179104499999994
                },
                {
                    "name": "D2",
                    "midi": 38,
                    "time": 247.7030160374974,
                    "velocity": 0.5196850393700787,
                    "duration": 0.179104499999994
                },
                {
                    "name": "C2",
                    "midi": 36,
                    "time": 247.8806279999974,
                    "velocity": 0.6456692913385826,
                    "duration": 0.179104499999994
                },
                {
                    "name": "C3",
                    "midi": 48,
                    "time": 247.8806279999974,
                    "velocity": 0.6456692913385826,
                    "duration": 0.179104499999994
                },
                {
                    "name": "A#1",
                    "midi": 34,
                    "time": 248.0589862312474,
                    "velocity": 0.5118110236220472,
                    "duration": 0.179104499999994
                },
                {
                    "name": "A#2",
                    "midi": 46,
                    "time": 248.05973249999738,
                    "velocity": 0.5669291338582677,
                    "duration": 0.179104499999994
                },
                {
                    "name": "G#2",
                    "midi": 44,
                    "time": 248.23883699999737,
                    "velocity": 0.5984251968503937,
                    "duration": 0.17910450000002243
                },
                {
                    "name": "G#1",
                    "midi": 32,
                    "time": 248.2403295374974,
                    "velocity": 0.5354330708661418,
                    "duration": 0.17910450000002243
                },
                {
                    "name": "G1",
                    "midi": 31,
                    "time": 248.4179414999974,
                    "velocity": 0.47244094488188976,
                    "duration": 0.17910450000002243
                },
                {
                    "name": "G2",
                    "midi": 43,
                    "time": 248.4179414999974,
                    "velocity": 0.5354330708661418,
                    "duration": 0.17910450000002243
                },
                {
                    "name": "F1",
                    "midi": 29,
                    "time": 248.59704599999742,
                    "velocity": 0.5275590551181102,
                    "duration": 0.179104499999994
                },
                {
                    "name": "F2",
                    "midi": 41,
                    "time": 248.59704599999742,
                    "velocity": 0.5748031496062992,
                    "duration": 0.179104499999994
                },
                {
                    "name": "D#2",
                    "midi": 39,
                    "time": 248.7761504999974,
                    "velocity": 0.5118110236220472,
                    "duration": 0.179104499999994
                },
                {
                    "name": "D#1",
                    "midi": 27,
                    "time": 248.77838930624742,
                    "velocity": 0.44881889763779526,
                    "duration": 0.179104499999994
                },
                {
                    "name": "D2",
                    "midi": 38,
                    "time": 248.9552549999974,
                    "velocity": 0.5669291338582677,
                    "duration": 0.17910450000002243
                },
                {
                    "name": "D1",
                    "midi": 26,
                    "time": 248.95674753749742,
                    "velocity": 0.5196850393700787,
                    "duration": 0.17910450000002243
                },
                {
                    "name": "C1",
                    "midi": 24,
                    "time": 249.13286696249742,
                    "velocity": 0.4409448818897638,
                    "duration": 0.17910450000002243
                },
                {
                    "name": "C2",
                    "midi": 36,
                    "time": 249.13435949999743,
                    "velocity": 0.49606299212598426,
                    "duration": 0.17910450000002243
                },
                {
                    "name": "D2",
                    "midi": 38,
                    "time": 249.31346399999745,
                    "velocity": 0.5196850393700787,
                    "duration": 0.179104499999994
                },
                {
                    "name": "D1",
                    "midi": 26,
                    "time": 249.31421026874744,
                    "velocity": 0.44881889763779526,
                    "duration": 0.179104499999994
                },
                {
                    "name": "D#1",
                    "midi": 27,
                    "time": 249.49256849999745,
                    "velocity": 0.4015748031496063,
                    "duration": 0.179104499999994
                },
                {
                    "name": "D#2",
                    "midi": 39,
                    "time": 249.49256849999745,
                    "velocity": 0.4645669291338583,
                    "duration": 0.179104499999994
                },
                {
                    "name": "F2",
                    "midi": 41,
                    "time": 249.67167299999744,
                    "velocity": 0.5275590551181102,
                    "duration": 0.17910450000002243
                },
                {
                    "name": "F1",
                    "midi": 29,
                    "time": 249.67316553749745,
                    "velocity": 0.4645669291338583,
                    "duration": 0.179104499999994
                },
                {
                    "name": "G2",
                    "midi": 43,
                    "time": 249.85077749999746,
                    "velocity": 0.4881889763779528,
                    "duration": 0.179104499999994
                },
                {
                    "name": "G1",
                    "midi": 31,
                    "time": 249.85152376874746,
                    "velocity": 0.4251968503937008,
                    "duration": 0.179104499999994
                },
                {
                    "name": "A2",
                    "midi": 45,
                    "time": 250.02988199999746,
                    "velocity": 0.5354330708661418,
                    "duration": 0.179104499999994
                },
                {
                    "name": "A1",
                    "midi": 33,
                    "time": 250.03062826874745,
                    "velocity": 0.47244094488188976,
                    "duration": 0.179104499999994
                },
                {
                    "name": "A#1",
                    "midi": 34,
                    "time": 250.20898649999745,
                    "velocity": 0.4409448818897638,
                    "duration": 0.179104499999994
                },
                {
                    "name": "A#2",
                    "midi": 46,
                    "time": 250.20898649999745,
                    "velocity": 0.49606299212598426,
                    "duration": 0.179104499999994
                },
                {
                    "name": "C2",
                    "midi": 36,
                    "time": 250.38659846249743,
                    "velocity": 0.4881889763779528,
                    "duration": 0.17910450000002243
                },
                {
                    "name": "C3",
                    "midi": 48,
                    "time": 250.38809099999744,
                    "velocity": 0.5511811023622047,
                    "duration": 0.179104499999994
                },
                {
                    "name": "D2",
                    "midi": 38,
                    "time": 250.56644923124745,
                    "velocity": 0.44881889763779526,
                    "duration": 0.179104499999994
                },
                {
                    "name": "D3",
                    "midi": 50,
                    "time": 250.56719549999744,
                    "velocity": 0.5196850393700787,
                    "duration": 0.179104499999994
                },
                {
                    "name": "D#2",
                    "midi": 39,
                    "time": 250.74629999999743,
                    "velocity": 0.4881889763779528,
                    "duration": 0.179104499999994
                },
                {
                    "name": "D#3",
                    "midi": 51,
                    "time": 250.74629999999743,
                    "velocity": 0.5511811023622047,
                    "duration": 0.179104499999994
                },
                {
                    "name": "F3",
                    "midi": 53,
                    "time": 250.92540449999743,
                    "velocity": 0.5275590551181102,
                    "duration": 0.17910450000002243
                },
                {
                    "name": "F2",
                    "midi": 41,
                    "time": 250.92689703749744,
                    "velocity": 0.4645669291338583,
                    "duration": 0.179104499999994
                },
                {
                    "name": "G3",
                    "midi": 55,
                    "time": 251.10450899999745,
                    "velocity": 0.5669291338582677,
                    "duration": 0.179104499999994
                },
                {
                    "name": "G2",
                    "midi": 43,
                    "time": 251.10525526874744,
                    "velocity": 0.5196850393700787,
                    "duration": 0.179104499999994
                },
                {
                    "name": "G#3",
                    "midi": 56,
                    "time": 251.28361349999744,
                    "velocity": 0.5275590551181102,
                    "duration": 0.179104499999994
                },
                {
                    "name": "G#2",
                    "midi": 44,
                    "time": 251.28585230624745,
                    "velocity": 0.4645669291338583,
                    "duration": 0.179104499999994
                },
                {
                    "name": "A#3",
                    "midi": 58,
                    "time": 251.46271799999744,
                    "velocity": 0.5984251968503937,
                    "duration": 0.179104499999994
                },
                {
                    "name": "A#2",
                    "midi": 46,
                    "time": 251.46421053749745,
                    "velocity": 0.5354330708661418,
                    "duration": 0.179104499999994
                },
                {
                    "name": "C3",
                    "midi": 48,
                    "time": 251.64182249999743,
                    "velocity": 0.5511811023622047,
                    "duration": 0.179104499999994
                },
                {
                    "name": "C4",
                    "midi": 60,
                    "time": 251.64182249999743,
                    "velocity": 0.5511811023622047,
                    "duration": 0.179104499999994
                },
                {
                    "name": "D3",
                    "midi": 50,
                    "time": 251.82018073124743,
                    "velocity": 0.5669291338582677,
                    "duration": 0.179104499999994
                },
                {
                    "name": "D4",
                    "midi": 62,
                    "time": 251.82092699999743,
                    "velocity": 0.6377952755905512,
                    "duration": 0.179104499999994
                },
                {
                    "name": "A#3",
                    "midi": 58,
                    "time": 252.00003149999742,
                    "velocity": 0.5984251968503937,
                    "duration": 0.179104499999994
                },
                {
                    "name": "A#2",
                    "midi": 46,
                    "time": 252.0007777687474,
                    "velocity": 0.5354330708661418,
                    "duration": 0.179104499999994
                },
                {
                    "name": "G#2",
                    "midi": 44,
                    "time": 252.1791359999974,
                    "velocity": 0.5590551181102362,
                    "duration": 0.179104499999994
                },
                {
                    "name": "G#3",
                    "midi": 56,
                    "time": 252.1791359999974,
                    "velocity": 0.6299212598425197,
                    "duration": 0.179104499999994
                },
                {
                    "name": "G2",
                    "midi": 43,
                    "time": 252.3567479624974,
                    "velocity": 0.5354330708661418,
                    "duration": 0.17910450000002243
                },
                {
                    "name": "G3",
                    "midi": 55,
                    "time": 252.3582404999974,
                    "velocity": 0.5905511811023622,
                    "duration": 0.17910450000002243
                },
                {
                    "name": "F3",
                    "midi": 53,
                    "time": 252.53734499999743,
                    "velocity": 0.5905511811023622,
                    "duration": 0.17910450000002243
                },
                {
                    "name": "F2",
                    "midi": 41,
                    "time": 252.53883753749744,
                    "velocity": 0.5354330708661418,
                    "duration": 0.179104499999994
                },
                {
                    "name": "D#3",
                    "midi": 51,
                    "time": 252.71644949999745,
                    "velocity": 0.5669291338582677,
                    "duration": 0.179104499999994
                },
                {
                    "name": "D#2",
                    "midi": 39,
                    "time": 252.71719576874744,
                    "velocity": 0.49606299212598426,
                    "duration": 0.179104499999994
                },
                {
                    "name": "D2",
                    "midi": 38,
                    "time": 252.89406146249743,
                    "velocity": 0.5275590551181102,
                    "duration": 0.179104499999994
                },
                {
                    "name": "D3",
                    "midi": 50,
                    "time": 252.89555399999745,
                    "velocity": 0.5748031496062992,
                    "duration": 0.179104499999994
                },
                {
                    "name": "C3",
                    "midi": 48,
                    "time": 253.07465849999744,
                    "velocity": 0.5354330708661418,
                    "duration": 0.17910450000002243
                },
                {
                    "name": "C2",
                    "midi": 36,
                    "time": 253.07689730624745,
                    "velocity": 0.47244094488188976,
                    "duration": 0.17910450000002243
                },
                {
                    "name": "A#1",
                    "midi": 34,
                    "time": 253.25227046249745,
                    "velocity": 0.5196850393700787,
                    "duration": 0.17910450000002243
                },
                {
                    "name": "A#2",
                    "midi": 46,
                    "time": 253.25376299999746,
                    "velocity": 0.5669291338582677,
                    "duration": 0.17910450000002243
                },
                {
                    "name": "G#2",
                    "midi": 44,
                    "time": 253.43286749999749,
                    "velocity": 0.4645669291338583,
                    "duration": 0.179104499999994
                },
                {
                    "name": "G#1",
                    "midi": 32,
                    "time": 253.4351063062475,
                    "velocity": 0.4645669291338583,
                    "duration": 0.179104499999994
                },
                {
                    "name": "G2",
                    "midi": 43,
                    "time": 253.61197199999748,
                    "velocity": 0.5669291338582677,
                    "duration": 0.179104499999994
                },
                {
                    "name": "G1",
                    "midi": 31,
                    "time": 253.6134645374975,
                    "velocity": 0.5118110236220472,
                    "duration": 0.179104499999994
                },
                {
                    "name": "F1",
                    "midi": 29,
                    "time": 253.79033023124748,
                    "velocity": 0.44881889763779526,
                    "duration": 0.179104499999994
                },
                {
                    "name": "F2",
                    "midi": 41,
                    "time": 253.79107649999747,
                    "velocity": 0.5118110236220472,
                    "duration": 0.179104499999994
                },
                {
                    "name": "D#1",
                    "midi": 27,
                    "time": 253.97018099999747,
                    "velocity": 0.5118110236220472,
                    "duration": 0.17910450000002243
                },
                {
                    "name": "D#2",
                    "midi": 39,
                    "time": 253.97018099999747,
                    "velocity": 0.5669291338582677,
                    "duration": 0.17910450000002243
                },
                {
                    "name": "D1",
                    "midi": 26,
                    "time": 254.14779296249748,
                    "velocity": 0.44881889763779526,
                    "duration": 0.17910450000002243
                },
                {
                    "name": "D2",
                    "midi": 38,
                    "time": 254.1492854999975,
                    "velocity": 0.5196850393700787,
                    "duration": 0.17910450000002243
                },
                {
                    "name": "D#2",
                    "midi": 39,
                    "time": 254.3283899999975,
                    "velocity": 0.5669291338582677,
                    "duration": 0.179104499999994
                },
                {
                    "name": "D#1",
                    "midi": 27,
                    "time": 254.33062880624752,
                    "velocity": 0.49606299212598426,
                    "duration": 0.179104499999994
                },
                {
                    "name": "E2",
                    "midi": 40,
                    "time": 254.5074944999975,
                    "velocity": 0.5196850393700787,
                    "duration": 0.17910450000002243
                },
                {
                    "name": "E1",
                    "midi": 28,
                    "time": 254.50898703749752,
                    "velocity": 0.44881889763779526,
                    "duration": 0.17910450000002243
                },
                {
                    "name": "F1",
                    "midi": 29,
                    "time": 254.68510646249752,
                    "velocity": 0.4881889763779528,
                    "duration": 0.17910450000002243
                },
                {
                    "name": "F2",
                    "midi": 41,
                    "time": 254.68659899999753,
                    "velocity": 0.5511811023622047,
                    "duration": 0.17910450000002243
                },
                {
                    "name": "G2",
                    "midi": 43,
                    "time": 254.86570349999755,
                    "velocity": 0.5118110236220472,
                    "duration": 0.179104499999994
                },
                {
                    "name": "G1",
                    "midi": 31,
                    "time": 254.86794230624756,
                    "velocity": 0.44881889763779526,
                    "duration": 0.179104499999994
                },
                {
                    "name": "G#2",
                    "midi": 44,
                    "time": 255.04480799999754,
                    "velocity": 0.5275590551181102,
                    "duration": 0.179104499999994
                },
                {
                    "name": "G#1",
                    "midi": 32,
                    "time": 255.04630053749756,
                    "velocity": 0.4645669291338583,
                    "duration": 0.17910449999996558
                },
                {
                    "name": "A#2",
                    "midi": 46,
                    "time": 255.22391249999754,
                    "velocity": 0.49606299212598426,
                    "duration": 0.17910449999996558
                },
                {
                    "name": "A#1",
                    "midi": 34,
                    "time": 255.22465876874753,
                    "velocity": 0.4409448818897638,
                    "duration": 0.17910449999996558
                },
                {
                    "name": "C2",
                    "midi": 36,
                    "time": 255.4022707312475,
                    "velocity": 0.5511811023622047,
                    "duration": 0.179104499999994
                },
                {
                    "name": "C3",
                    "midi": 48,
                    "time": 255.4030169999975,
                    "velocity": 0.5511811023622047,
                    "duration": 0.179104499999994
                },
                {
                    "name": "D2",
                    "midi": 38,
                    "time": 255.5813752312475,
                    "velocity": 0.5118110236220472,
                    "duration": 0.179104499999994
                },
                {
                    "name": "D3",
                    "midi": 50,
                    "time": 255.5821214999975,
                    "velocity": 0.5118110236220472,
                    "duration": 0.179104499999994
                },
                {
                    "name": "D#3",
                    "midi": 51,
                    "time": 255.7612259999975,
                    "velocity": 0.5669291338582677,
                    "duration": 0.17910450000002243
                },
                {
                    "name": "D#2",
                    "midi": 39,
                    "time": 255.7627185374975,
                    "velocity": 0.5118110236220472,
                    "duration": 0.17910450000002243
                },
                {
                    "name": "F2",
                    "midi": 41,
                    "time": 255.94033049999751,
                    "velocity": 0.44881889763779526,
                    "duration": 0.179104499999994
                },
                {
                    "name": "F3",
                    "midi": 53,
                    "time": 255.94033049999751,
                    "velocity": 0.5196850393700787,
                    "duration": 0.179104499999994
                },
                {
                    "name": "G2",
                    "midi": 43,
                    "time": 256.1179424624975,
                    "velocity": 0.5354330708661418,
                    "duration": 0.179104499999994
                },
                {
                    "name": "G3",
                    "midi": 55,
                    "time": 256.1194349999975,
                    "velocity": 0.5905511811023622,
                    "duration": 0.179104499999994
                },
                {
                    "name": "G#3",
                    "midi": 56,
                    "time": 256.2985394999975,
                    "velocity": 0.5354330708661418,
                    "duration": 0.179104499999994
                },
                {
                    "name": "G#2",
                    "midi": 44,
                    "time": 256.2992857687475,
                    "velocity": 0.47244094488188976,
                    "duration": 0.179104499999994
                },
                {
                    "name": "A#3",
                    "midi": 58,
                    "time": 256.4776439999975,
                    "velocity": 0.6220472440944882,
                    "duration": 0.179104499999994
                },
                {
                    "name": "A#2",
                    "midi": 46,
                    "time": 256.4791365374975,
                    "velocity": 0.5511811023622047,
                    "duration": 0.179104499999994
                },
                {
                    "name": "C3",
                    "midi": 48,
                    "time": 256.6567484999975,
                    "velocity": 0.49606299212598426,
                    "duration": 0.179104499999994
                },
                {
                    "name": "C4",
                    "midi": 60,
                    "time": 256.6567484999975,
                    "velocity": 0.5669291338582677,
                    "duration": 0.179104499999994
                },
                {
                    "name": "D3",
                    "midi": 50,
                    "time": 256.8351067312475,
                    "velocity": 0.5669291338582677,
                    "duration": 0.179104499999994
                },
                {
                    "name": "D4",
                    "midi": 62,
                    "time": 256.8358529999975,
                    "velocity": 0.6377952755905512,
                    "duration": 0.179104499999994
                },
                {
                    "name": "D#4",
                    "midi": 63,
                    "time": 257.0149574999975,
                    "velocity": 0.5669291338582677,
                    "duration": 0.179104499999994
                },
                {
                    "name": "D#3",
                    "midi": 51,
                    "time": 257.01570376874747,
                    "velocity": 0.5196850393700787,
                    "duration": 0.179104499999994
                },
                {
                    "name": "F4",
                    "midi": 65,
                    "time": 257.1940619999975,
                    "velocity": 0.6614173228346457,
                    "duration": 0.179104499999994
                },
                {
                    "name": "F3",
                    "midi": 53,
                    "time": 257.19555453749746,
                    "velocity": 0.5748031496062992,
                    "duration": 0.179104499999994
                },
                {
                    "name": "G4",
                    "midi": 67,
                    "time": 257.37316649999747,
                    "velocity": 0.5905511811023622,
                    "duration": 0.179104499999994
                },
                {
                    "name": "G3",
                    "midi": 55,
                    "time": 257.37465903749745,
                    "velocity": 0.5354330708661418,
                    "duration": 0.179104499999994
                },
                {
                    "name": "G#4",
                    "midi": 68,
                    "time": 257.55227099999746,
                    "velocity": 0.6929133858267716,
                    "duration": 0.179104499999994
                },
                {
                    "name": "G#3",
                    "midi": 56,
                    "time": 257.55376353749745,
                    "velocity": 0.6220472440944882,
                    "duration": 0.179104499999994
                },
                {
                    "name": "A#3",
                    "midi": 58,
                    "time": 257.73137549999745,
                    "velocity": 0.5669291338582677,
                    "duration": 0.179104499999994
                },
                {
                    "name": "A#4",
                    "midi": 70,
                    "time": 257.73137549999745,
                    "velocity": 0.6377952755905512,
                    "duration": 0.179104499999994
                },
                {
                    "name": "A#3",
                    "midi": 58,
                    "time": 257.91047999999745,
                    "velocity": 0.4645669291338583,
                    "duration": 1.4328360000000089
                },
                {
                    "name": "D#3",
                    "midi": 51,
                    "time": 257.91047999999745,
                    "velocity": 0.4645669291338583,
                    "duration": 1.4328360000000089
                },
                {
                    "name": "D#3",
                    "midi": 51,
                    "time": 259.34331599999746,
                    "velocity": 0.4251968503937008,
                    "duration": 0.716417999999976
                },
                {
                    "name": "A#3",
                    "midi": 58,
                    "time": 259.34331599999746,
                    "velocity": 0.4251968503937008,
                    "duration": 0.716417999999976
                },
                {
                    "name": "F#3",
                    "midi": 54,
                    "time": 260.05973399999743,
                    "velocity": 0.4094488188976378,
                    "duration": 0.716417999999976
                },
                {
                    "name": "D#4",
                    "midi": 63,
                    "time": 260.05973399999743,
                    "velocity": 0.4094488188976378,
                    "duration": 0.716417999999976
                },
                {
                    "name": "G#3",
                    "midi": 56,
                    "time": 260.7761519999974,
                    "velocity": 0.4251968503937008,
                    "duration": 0.716417999999976
                },
                {
                    "name": "D#4",
                    "midi": 63,
                    "time": 260.7761519999974,
                    "velocity": 0.4251968503937008,
                    "duration": 0.716417999999976
                },
                {
                    "name": "F#3",
                    "midi": 54,
                    "time": 261.4925699999974,
                    "velocity": 0.4251968503937008,
                    "duration": 0.716417999999976
                },
                {
                    "name": "F#4",
                    "midi": 66,
                    "time": 261.4925699999974,
                    "velocity": 0.4251968503937008,
                    "duration": 0.716417999999976
                },
                {
                    "name": "B3",
                    "midi": 59,
                    "time": 262.20898799999736,
                    "velocity": 0.4251968503937008,
                    "duration": 1.4328360000000089
                },
                {
                    "name": "F#4",
                    "midi": 66,
                    "time": 262.20898799999736,
                    "velocity": 0.4251968503937008,
                    "duration": 1.4328360000000089
                },
                {
                    "name": "F#4",
                    "midi": 66,
                    "time": 263.64182399999737,
                    "velocity": 0.4251968503937008,
                    "duration": 1.4328360000000089
                },
                {
                    "name": "F#4",
                    "midi": 66,
                    "time": 265.0746599999974,
                    "velocity": 0.4094488188976378,
                    "duration": 0.716417999999976
                },
                {
                    "name": "D#4",
                    "midi": 63,
                    "time": 265.0746599999974,
                    "velocity": 0.4094488188976378,
                    "duration": 0.716417999999976
                },
                {
                    "name": "G#4",
                    "midi": 68,
                    "time": 265.79107799999736,
                    "velocity": 0.4251968503937008,
                    "duration": 0.716417999999976
                },
                {
                    "name": "C#4",
                    "midi": 61,
                    "time": 265.79107799999736,
                    "velocity": 0.4251968503937008,
                    "duration": 0.716417999999976
                },
                {
                    "name": "B3",
                    "midi": 59,
                    "time": 266.50749599999733,
                    "velocity": 0.44881889763779526,
                    "duration": 0.716417999999976
                },
                {
                    "name": "B4",
                    "midi": 71,
                    "time": 266.50749599999733,
                    "velocity": 0.44881889763779526,
                    "duration": 0.716417999999976
                },
                {
                    "name": "B3",
                    "midi": 59,
                    "time": 267.2239139999973,
                    "velocity": 0.4094488188976378,
                    "duration": 0.716417999999976
                },
                {
                    "name": "B4",
                    "midi": 71,
                    "time": 267.2239139999973,
                    "velocity": 0.4094488188976378,
                    "duration": 0.716417999999976
                },
                {
                    "name": "E4",
                    "midi": 64,
                    "time": 267.9403319999973,
                    "velocity": 0.4251968503937008,
                    "duration": 0.716417999999976
                },
                {
                    "name": "B4",
                    "midi": 71,
                    "time": 267.9403319999973,
                    "velocity": 0.4251968503937008,
                    "duration": 0.716417999999976
                },
                {
                    "name": "B3",
                    "midi": 59,
                    "time": 268.65674999999726,
                    "velocity": 0.44881889763779526,
                    "duration": 0.716417999999976
                },
                {
                    "name": "B4",
                    "midi": 71,
                    "time": 268.65674999999726,
                    "velocity": 0.44881889763779526,
                    "duration": 0.716417999999976
                },
                {
                    "name": "B4",
                    "midi": 71,
                    "time": 269.37316799999724,
                    "velocity": 0.4645669291338583,
                    "duration": 1.4328360000000089
                },
                {
                    "name": "E4",
                    "midi": 64,
                    "time": 269.37316799999724,
                    "velocity": 0.4645669291338583,
                    "duration": 1.4328360000000089
                },
                {
                    "name": "A4",
                    "midi": 69,
                    "time": 270.80600399999724,
                    "velocity": 0.49606299212598426,
                    "duration": 0.716417999999976
                },
                {
                    "name": "F#4",
                    "midi": 66,
                    "time": 270.80600399999724,
                    "velocity": 0.49606299212598426,
                    "duration": 0.716417999999976
                },
                {
                    "name": "B4",
                    "midi": 71,
                    "time": 271.5224219999972,
                    "velocity": 0.4645669291338583,
                    "duration": 0.716417999999976
                },
                {
                    "name": "E4",
                    "midi": 64,
                    "time": 271.5224219999972,
                    "velocity": 0.4645669291338583,
                    "duration": 0.716417999999976
                },
                {
                    "name": "B3",
                    "midi": 59,
                    "time": 272.2388399999972,
                    "velocity": 0.4409448818897638,
                    "duration": 1.4328360000000089
                },
                {
                    "name": "B4",
                    "midi": 71,
                    "time": 272.2388399999972,
                    "velocity": 0.4409448818897638,
                    "duration": 1.4328360000000089
                },
                {
                    "name": "E4",
                    "midi": 64,
                    "time": 273.6716759999972,
                    "velocity": 0.4251968503937008,
                    "duration": 0.716417999999976
                },
                {
                    "name": "G#4",
                    "midi": 68,
                    "time": 273.6716759999972,
                    "velocity": 0.4251968503937008,
                    "duration": 0.716417999999976
                },
                {
                    "name": "B3",
                    "midi": 59,
                    "time": 274.3880939999972,
                    "velocity": 0.41732283464566927,
                    "duration": 0.716417999999976
                },
                {
                    "name": "F#4",
                    "midi": 66,
                    "time": 274.3880939999972,
                    "velocity": 0.41732283464566927,
                    "duration": 0.716417999999976
                },
                {
                    "name": "E4",
                    "midi": 64,
                    "time": 275.10451199999716,
                    "velocity": 0.3937007874015748,
                    "duration": 0.716417999999976
                },
                {
                    "name": "C#4",
                    "midi": 61,
                    "time": 275.10451199999716,
                    "velocity": 0.3937007874015748,
                    "duration": 0.716417999999976
                },
                {
                    "name": "G#3",
                    "midi": 56,
                    "time": 275.82092999999713,
                    "velocity": 0.3543307086614173,
                    "duration": 0.716417999999976
                },
                {
                    "name": "D#4",
                    "midi": 63,
                    "time": 275.82092999999713,
                    "velocity": 0.3543307086614173,
                    "duration": 0.716417999999976
                },
                {
                    "name": "A#3",
                    "midi": 58,
                    "time": 276.5373479999971,
                    "velocity": 0.4015748031496063,
                    "duration": 1.4328360000000089
                },
                {
                    "name": "C#4",
                    "midi": 61,
                    "time": 276.5373479999971,
                    "velocity": 0.4015748031496063,
                    "duration": 1.4328360000000089
                },
                {
                    "name": "B3",
                    "midi": 59,
                    "time": 277.9701839999971,
                    "velocity": 0.3543307086614173,
                    "duration": 1.4328360000000089
                },
                {
                    "name": "D#4",
                    "midi": 63,
                    "time": 277.9701839999971,
                    "velocity": 0.3543307086614173,
                    "duration": 1.4328360000000089
                },
                {
                    "name": "A#3",
                    "midi": 58,
                    "time": 279.4030199999971,
                    "velocity": 0.3228346456692913,
                    "duration": 1.4328360000000089
                },
                {
                    "name": "D#3",
                    "midi": 51,
                    "time": 279.4030199999971,
                    "velocity": 0.3228346456692913,
                    "duration": 1.4328360000000089
                },
                {
                    "name": "D#3",
                    "midi": 51,
                    "time": 280.83585599999714,
                    "velocity": 0.29133858267716534,
                    "duration": 0.716417999999976
                },
                {
                    "name": "A#3",
                    "midi": 58,
                    "time": 280.83585599999714,
                    "velocity": 0.29133858267716534,
                    "duration": 0.716417999999976
                },
                {
                    "name": "D#3",
                    "midi": 51,
                    "time": 281.5522739999971,
                    "velocity": 0.2677165354330709,
                    "duration": 0.716417999999976
                },
                {
                    "name": "A#3",
                    "midi": 58,
                    "time": 281.5522739999971,
                    "velocity": 0.2677165354330709,
                    "duration": 0.716417999999976
                },
                {
                    "name": "B3",
                    "midi": 59,
                    "time": 282.2686919999971,
                    "velocity": 0.5590551181102362,
                    "duration": 1.432835999999952
                },
                {
                    "name": "G#2",
                    "midi": 44,
                    "time": 282.98510999999706,
                    "velocity": 0.6220472440944882,
                    "duration": 0.716417999999976
                },
                {
                    "name": "G#3",
                    "midi": 56,
                    "time": 283.70152799999704,
                    "velocity": 0.5590551181102362,
                    "duration": 1.432835999999952
                },
                {
                    "name": "B1",
                    "midi": 35,
                    "time": 284.417945999997,
                    "velocity": 0.6220472440944882,
                    "duration": 0.716417999999976
                },
                {
                    "name": "B3",
                    "midi": 59,
                    "time": 285.134363999997,
                    "velocity": 0.5590551181102362,
                    "duration": 1.432835999999952
                },
                {
                    "name": "G#2",
                    "midi": 44,
                    "time": 285.85078199999697,
                    "velocity": 0.6062992125984252,
                    "duration": 0.716417999999976
                },
                {
                    "name": "G#3",
                    "midi": 56,
                    "time": 286.56719999999694,
                    "velocity": 0.5590551181102362,
                    "duration": 1.432835999999952
                },
                {
                    "name": "B1",
                    "midi": 35,
                    "time": 287.2836179999969,
                    "velocity": 0.6220472440944882,
                    "duration": 0.716417999999976
                },
                {
                    "name": "D#4",
                    "midi": 63,
                    "time": 288.0000359999969,
                    "velocity": 0.5590551181102362,
                    "duration": 1.432835999999952
                },
                {
                    "name": "B3",
                    "midi": 59,
                    "time": 288.0000359999969,
                    "velocity": 0.5590551181102362,
                    "duration": 1.432835999999952
                },
                {
                    "name": "F3",
                    "midi": 53,
                    "time": 288.0000359999969,
                    "velocity": 0.5590551181102362,
                    "duration": 1.432835999999952
                },
                {
                    "name": "G#2",
                    "midi": 44,
                    "time": 288.7164539999969,
                    "velocity": 0.6299212598425197,
                    "duration": 0.716417999999976
                },
                {
                    "name": "E3",
                    "midi": 52,
                    "time": 289.43287199999685,
                    "velocity": 0.5590551181102362,
                    "duration": 1.432835999999952
                },
                {
                    "name": "D#4",
                    "midi": 63,
                    "time": 289.43287199999685,
                    "velocity": 0.5590551181102362,
                    "duration": 1.432835999999952
                },
                {
                    "name": "G#3",
                    "midi": 56,
                    "time": 289.43287199999685,
                    "velocity": 0.5590551181102362,
                    "duration": 1.432835999999952
                },
                {
                    "name": "B1",
                    "midi": 35,
                    "time": 290.1492899999968,
                    "velocity": 0.5590551181102362,
                    "duration": 0.716417999999976
                },
                {
                    "name": "F3",
                    "midi": 53,
                    "time": 290.8657079999968,
                    "velocity": 0.5590551181102362,
                    "duration": 1.432835999999952
                },
                {
                    "name": "B3",
                    "midi": 59,
                    "time": 290.8657079999968,
                    "velocity": 0.5590551181102362,
                    "duration": 1.432835999999952
                },
                {
                    "name": "D#4",
                    "midi": 63,
                    "time": 290.8657079999968,
                    "velocity": 0.5590551181102362,
                    "duration": 1.432835999999952
                },
                {
                    "name": "G#2",
                    "midi": 44,
                    "time": 291.5821259999968,
                    "velocity": 0.6614173228346457,
                    "duration": 0.716417999999976
                },
                {
                    "name": "E3",
                    "midi": 52,
                    "time": 292.29854399999675,
                    "velocity": 0.5590551181102362,
                    "duration": 1.432835999999952
                },
                {
                    "name": "D#4",
                    "midi": 63,
                    "time": 292.29854399999675,
                    "velocity": 0.5590551181102362,
                    "duration": 1.432835999999952
                },
                {
                    "name": "G#3",
                    "midi": 56,
                    "time": 292.29854399999675,
                    "velocity": 0.5590551181102362,
                    "duration": 1.432835999999952
                },
                {
                    "name": "B1",
                    "midi": 35,
                    "time": 293.01496199999673,
                    "velocity": 0.5748031496062992,
                    "duration": 0.716417999999976
                },
                {
                    "name": "F3",
                    "midi": 53,
                    "time": 293.7313799999967,
                    "velocity": 0.5590551181102362,
                    "duration": 1.432835999999952
                },
                {
                    "name": "B3",
                    "midi": 59,
                    "time": 293.7313799999967,
                    "velocity": 0.5590551181102362,
                    "duration": 1.432835999999952
                },
                {
                    "name": "D#4",
                    "midi": 63,
                    "time": 293.7313799999967,
                    "velocity": 0.5590551181102362,
                    "duration": 1.432835999999952
                },
                {
                    "name": "G#2",
                    "midi": 44,
                    "time": 294.4477979999967,
                    "velocity": 0.6456692913385826,
                    "duration": 0.716417999999976
                },
                {
                    "name": "E3",
                    "midi": 52,
                    "time": 295.16421599999666,
                    "velocity": 0.5590551181102362,
                    "duration": 1.432835999999952
                },
                {
                    "name": "D#4",
                    "midi": 63,
                    "time": 295.16421599999666,
                    "velocity": 0.5590551181102362,
                    "duration": 1.432835999999952
                },
                {
                    "name": "G#3",
                    "midi": 56,
                    "time": 295.16421599999666,
                    "velocity": 0.5590551181102362,
                    "duration": 1.432835999999952
                },
                {
                    "name": "B1",
                    "midi": 35,
                    "time": 295.88063399999663,
                    "velocity": 0.5905511811023622,
                    "duration": 0.716417999999976
                },
                {
                    "name": "F3",
                    "midi": 53,
                    "time": 296.5970519999966,
                    "velocity": 0.5669291338582677,
                    "duration": 1.432835999999952
                },
                {
                    "name": "B3",
                    "midi": 59,
                    "time": 296.5970519999966,
                    "velocity": 0.5669291338582677,
                    "duration": 1.432835999999952
                },
                {
                    "name": "D#4",
                    "midi": 63,
                    "time": 296.5970519999966,
                    "velocity": 0.5669291338582677,
                    "duration": 1.432835999999952
                },
                {
                    "name": "G#2",
                    "midi": 44,
                    "time": 297.3134699999966,
                    "velocity": 0.6456692913385826,
                    "duration": 0.716417999999976
                },
                {
                    "name": "E3",
                    "midi": 52,
                    "time": 298.02988799999656,
                    "velocity": 0.5748031496062992,
                    "duration": 1.432835999999952
                },
                {
                    "name": "D#4",
                    "midi": 63,
                    "time": 298.02988799999656,
                    "velocity": 0.5748031496062992,
                    "duration": 1.432835999999952
                },
                {
                    "name": "G#3",
                    "midi": 56,
                    "time": 298.02988799999656,
                    "velocity": 0.5748031496062992,
                    "duration": 1.432835999999952
                },
                {
                    "name": "B1",
                    "midi": 35,
                    "time": 298.74630599999654,
                    "velocity": 0.5905511811023622,
                    "duration": 0.716417999999976
                },
                {
                    "name": "D#4",
                    "midi": 63,
                    "time": 299.4627239999965,
                    "velocity": 0.6299212598425197,
                    "duration": 1.432835999999952
                },
                {
                    "name": "A#1",
                    "midi": 34,
                    "time": 300.1791419999965,
                    "velocity": 0.6062992125984252,
                    "duration": 0.716417999999976
                },
                {
                    "name": "D#4",
                    "midi": 63,
                    "time": 300.89555999999646,
                    "velocity": 0.6062992125984252,
                    "duration": 1.432835999999952
                },
                {
                    "name": "A#1",
                    "midi": 34,
                    "time": 301.61197799999644,
                    "velocity": 0.5984251968503937,
                    "duration": 0.716417999999976
                },
                {
                    "name": "D#4",
                    "midi": 63,
                    "time": 302.3283959999964,
                    "velocity": 0.6220472440944882,
                    "duration": 1.432835999999952
                },
                {
                    "name": "A#1",
                    "midi": 34,
                    "time": 303.0448139999964,
                    "velocity": 0.6062992125984252,
                    "duration": 0.716417999999976
                },
                {
                    "name": "D#4",
                    "midi": 63,
                    "time": 303.76123199999637,
                    "velocity": 0.6377952755905512,
                    "duration": 1.432835999999952
                },
                {
                    "name": "A#1",
                    "midi": 34,
                    "time": 304.47764999999634,
                    "velocity": 0.6062992125984252,
                    "duration": 0.716417999999976
                },
                {
                    "name": "D#4",
                    "midi": 63,
                    "time": 305.1940679999963,
                    "velocity": 0.6456692913385826,
                    "duration": 1.432835999999952
                },
                {
                    "name": "A#1",
                    "midi": 34,
                    "time": 305.9104859999963,
                    "velocity": 0.6299212598425197,
                    "duration": 0.716417999999976
                },
                {
                    "name": "D#4",
                    "midi": 63,
                    "time": 306.6269039999963,
                    "velocity": 0.6456692913385826,
                    "duration": 1.432835999999952
                },
                {
                    "name": "A#1",
                    "midi": 34,
                    "time": 307.34332199999625,
                    "velocity": 0.6220472440944882,
                    "duration": 0.716417999999976
                },
                {
                    "name": "D#4",
                    "midi": 63,
                    "time": 308.0597399999962,
                    "velocity": 0.6456692913385826,
                    "duration": 1.432835999999952
                },
                {
                    "name": "A#1",
                    "midi": 34,
                    "time": 308.7761579999962,
                    "velocity": 0.6299212598425197,
                    "duration": 0.716417999999976
                },
                {
                    "name": "D#4",
                    "midi": 63,
                    "time": 309.4925759999962,
                    "velocity": 0.6456692913385826,
                    "duration": 1.432835999999952
                },
                {
                    "name": "A#1",
                    "midi": 34,
                    "time": 310.20899399999615,
                    "velocity": 0.6299212598425197,
                    "duration": 0.716417999999976
                },
                {
                    "name": "D#4",
                    "midi": 63,
                    "time": 310.92541199999613,
                    "velocity": 0.6456692913385826,
                    "duration": 1.4328360000000089
                },
                {
                    "name": "A#1",
                    "midi": 34,
                    "time": 312.35824799999614,
                    "velocity": 0.6692913385826772,
                    "duration": 1.4328360000000089
                },
                {
                    "name": "D#4",
                    "midi": 63,
                    "time": 313.79108399999615,
                    "velocity": 0.7007874015748031,
                    "duration": 1.432835999999952
                },
                {
                    "name": "A#1",
                    "midi": 34,
                    "time": 314.5075019999961,
                    "velocity": 0.6535433070866141,
                    "duration": 0.716417999999976
                },
                {
                    "name": "D#4",
                    "midi": 63,
                    "time": 315.2239199999961,
                    "velocity": 0.7007874015748031,
                    "duration": 1.432835999999952
                },
                {
                    "name": "A#1",
                    "midi": 34,
                    "time": 315.9403379999961,
                    "velocity": 0.6535433070866141,
                    "duration": 0.716417999999976
                },
                {
                    "name": "D#4",
                    "midi": 63,
                    "time": 316.65675599999605,
                    "velocity": 0.6850393700787402,
                    "duration": 0.716417999999976
                },
                {
                    "name": "A#1",
                    "midi": 34,
                    "time": 317.373173999996,
                    "velocity": 0.6535433070866141,
                    "duration": 0.716417999999976
                },
                {
                    "name": "D#4",
                    "midi": 63,
                    "time": 318.089591999996,
                    "velocity": 0.7086614173228346,
                    "duration": 0.716417999999976
                },
                {
                    "name": "A#1",
                    "midi": 34,
                    "time": 318.806009999996,
                    "velocity": 0.6535433070866141,
                    "duration": 0.716417999999976
                },
                {
                    "name": "A#3",
                    "midi": 58,
                    "time": 319.52242799999595,
                    "velocity": 0.4645669291338583,
                    "duration": 1.253731499999958
                },
                {
                    "name": "F4",
                    "midi": 65,
                    "time": 319.52242799999595,
                    "velocity": 0.4645669291338583,
                    "duration": 1.253731499999958
                },
                {
                    "name": "D#4",
                    "midi": 63,
                    "time": 319.52242799999595,
                    "velocity": 0.4645669291338583,
                    "duration": 1.253731499999958
                },
                {
                    "name": "A#4",
                    "midi": 70,
                    "time": 319.52242799999595,
                    "velocity": 0.6456692913385826,
                    "duration": 1.253731499999958
                },
                {
                    "name": "D#1",
                    "midi": 27,
                    "time": 320.23884599999593,
                    "velocity": 0.5118110236220472,
                    "duration": 0.716417999999976
                },
                {
                    "name": "D#2",
                    "midi": 39,
                    "time": 320.23884599999593,
                    "velocity": 0.6456692913385826,
                    "duration": 0.716417999999976
                },
                {
                    "name": "A#3",
                    "midi": 58,
                    "time": 320.9552639999959,
                    "velocity": 0.47244094488188976,
                    "duration": 1.253731499999958
                },
                {
                    "name": "D#4",
                    "midi": 63,
                    "time": 320.9552639999959,
                    "velocity": 0.47244094488188976,
                    "duration": 1.253731499999958
                },
                {
                    "name": "F4",
                    "midi": 65,
                    "time": 320.9552639999959,
                    "velocity": 0.47244094488188976,
                    "duration": 1.253731499999958
                },
                {
                    "name": "A#4",
                    "midi": 70,
                    "time": 320.9552639999959,
                    "velocity": 0.6614173228346457,
                    "duration": 1.253731499999958
                },
                {
                    "name": "D#1",
                    "midi": 27,
                    "time": 321.6716819999959,
                    "velocity": 0.5354330708661418,
                    "duration": 0.716417999999976
                },
                {
                    "name": "D#2",
                    "midi": 39,
                    "time": 321.6716819999959,
                    "velocity": 0.6771653543307087,
                    "duration": 0.716417999999976
                },
                {
                    "name": "A#3",
                    "midi": 58,
                    "time": 322.38809999999586,
                    "velocity": 0.4881889763779528,
                    "duration": 1.253731499999958
                },
                {
                    "name": "D#4",
                    "midi": 63,
                    "time": 322.38809999999586,
                    "velocity": 0.4881889763779528,
                    "duration": 1.253731499999958
                },
                {
                    "name": "F4",
                    "midi": 65,
                    "time": 322.38809999999586,
                    "velocity": 0.4881889763779528,
                    "duration": 1.253731499999958
                },
                {
                    "name": "A#4",
                    "midi": 70,
                    "time": 322.38809999999586,
                    "velocity": 0.6850393700787402,
                    "duration": 1.253731499999958
                },
                {
                    "name": "D#1",
                    "midi": 27,
                    "time": 323.10451799999583,
                    "velocity": 0.5511811023622047,
                    "duration": 0.716417999999976
                },
                {
                    "name": "D#2",
                    "midi": 39,
                    "time": 323.10451799999583,
                    "velocity": 0.7007874015748031,
                    "duration": 0.716417999999976
                },
                {
                    "name": "A#3",
                    "midi": 58,
                    "time": 323.8209359999958,
                    "velocity": 0.5039370078740157,
                    "duration": 1.253731499999958
                },
                {
                    "name": "D#4",
                    "midi": 63,
                    "time": 323.8209359999958,
                    "velocity": 0.5039370078740157,
                    "duration": 1.253731499999958
                },
                {
                    "name": "F4",
                    "midi": 65,
                    "time": 323.8209359999958,
                    "velocity": 0.5039370078740157,
                    "duration": 1.253731499999958
                },
                {
                    "name": "A#4",
                    "midi": 70,
                    "time": 323.8209359999958,
                    "velocity": 0.7086614173228346,
                    "duration": 1.253731499999958
                },
                {
                    "name": "D#1",
                    "midi": 27,
                    "time": 324.5373539999958,
                    "velocity": 0.5669291338582677,
                    "duration": 0.716417999999976
                },
                {
                    "name": "D#2",
                    "midi": 39,
                    "time": 324.5373539999958,
                    "velocity": 0.7165354330708661,
                    "duration": 0.716417999999976
                },
                {
                    "name": "G#6",
                    "midi": 92,
                    "time": 325.2522794624958,
                    "velocity": 0.5354330708661418,
                    "duration": 0.089552249999997
                },
                {
                    "name": "G6",
                    "midi": 91,
                    "time": 325.34332424999576,
                    "velocity": 0.47244094488188976,
                    "duration": 0.089552249999997
                },
                {
                    "name": "F6",
                    "midi": 89,
                    "time": 325.43511530624573,
                    "velocity": 0.5039370078740157,
                    "duration": 0.089552249999997
                },
                {
                    "name": "D#6",
                    "midi": 87,
                    "time": 325.5209362124957,
                    "velocity": 0.4645669291338583,
                    "duration": 0.089552249999997
                },
                {
                    "name": "D6",
                    "midi": 86,
                    "time": 325.6127272687457,
                    "velocity": 0.49606299212598426,
                    "duration": 0.089552249999997
                },
                {
                    "name": "C6",
                    "midi": 84,
                    "time": 325.7022795187457,
                    "velocity": 0.44881889763779526,
                    "duration": 0.089552249999997
                },
                {
                    "name": "A#5",
                    "midi": 82,
                    "time": 325.7910854999957,
                    "velocity": 0.49606299212598426,
                    "duration": 0.089552249999997
                },
                {
                    "name": "G#5",
                    "midi": 80,
                    "time": 325.8791452124957,
                    "velocity": 0.44881889763779526,
                    "duration": 0.089552249999997
                },
                {
                    "name": "G5",
                    "midi": 79,
                    "time": 325.9724288062457,
                    "velocity": 0.49606299212598426,
                    "duration": 0.089552249999997
                },
                {
                    "name": "F5",
                    "midi": 77,
                    "time": 326.0619810562457,
                    "velocity": 0.44881889763779526,
                    "duration": 0.089552249999997
                },
                {
                    "name": "D#5",
                    "midi": 75,
                    "time": 326.1500407687457,
                    "velocity": 0.49606299212598426,
                    "duration": 0.089552249999997
                },
                {
                    "name": "D5",
                    "midi": 74,
                    "time": 326.23884674999573,
                    "velocity": 0.4409448818897638,
                    "duration": 0.089552249999997
                },
                {
                    "name": "C5",
                    "midi": 72,
                    "time": 326.3283989999957,
                    "velocity": 0.4881889763779528,
                    "duration": 0.089552249999997
                },
                {
                    "name": "A#4",
                    "midi": 70,
                    "time": 326.4179512499957,
                    "velocity": 0.4251968503937008,
                    "duration": 0.089552249999997
                },
                {
                    "name": "G#4",
                    "midi": 68,
                    "time": 326.5097423062457,
                    "velocity": 0.4881889763779528,
                    "duration": 0.08955225000005385
                },
                {
                    "name": "G4",
                    "midi": 67,
                    "time": 326.5963094812457,
                    "velocity": 0.4251968503937008,
                    "duration": 0.08955225000005385
                },
                {
                    "name": "F4",
                    "midi": 65,
                    "time": 326.6866079999958,
                    "velocity": 0.48031496062992124,
                    "duration": 0.089552249999997
                },
                {
                    "name": "D#4",
                    "midi": 63,
                    "time": 326.7754139812458,
                    "velocity": 0.4251968503937008,
                    "duration": 0.089552249999997
                },
                {
                    "name": "D4",
                    "midi": 62,
                    "time": 326.8679513062458,
                    "velocity": 0.48031496062992124,
                    "duration": 0.08955225000005385
                },
                {
                    "name": "C4",
                    "midi": 60,
                    "time": 326.9545184812458,
                    "velocity": 0.4251968503937008,
                    "duration": 0.08955225000005385
                },
                {
                    "name": "A#3",
                    "midi": 58,
                    "time": 327.04630953749586,
                    "velocity": 0.48031496062992124,
                    "duration": 0.089552249999997
                },
                {
                    "name": "G#3",
                    "midi": 56,
                    "time": 327.13511551874586,
                    "velocity": 0.4251968503937008,
                    "duration": 0.089552249999997
                },
                {
                    "name": "G3",
                    "midi": 55,
                    "time": 327.2231752312459,
                    "velocity": 0.48031496062992124,
                    "duration": 0.089552249999997
                },
                {
                    "name": "F3",
                    "midi": 53,
                    "time": 327.31496628749585,
                    "velocity": 0.4251968503937008,
                    "duration": 0.089552249999997
                },
                {
                    "name": "D#3",
                    "midi": 51,
                    "time": 327.40526480624584,
                    "velocity": 0.48031496062992124,
                    "duration": 0.089552249999997
                },
                {
                    "name": "D3",
                    "midi": 50,
                    "time": 327.49257824999586,
                    "velocity": 0.4251968503937008,
                    "duration": 0.089552249999997
                },
                {
                    "name": "C3",
                    "midi": 48,
                    "time": 327.58287676874585,
                    "velocity": 0.48031496062992124,
                    "duration": 0.089552249999997
                },
                {
                    "name": "A#2",
                    "midi": 46,
                    "time": 327.67392155624583,
                    "velocity": 0.4251968503937008,
                    "duration": 0.089552249999997
                },
                {
                    "name": "G#2",
                    "midi": 44,
                    "time": 327.7597424624958,
                    "velocity": 0.44881889763779526,
                    "duration": 0.089552249999997
                },
                {
                    "name": "G2",
                    "midi": 43,
                    "time": 327.8530260562458,
                    "velocity": 0.41732283464566927,
                    "duration": 0.089552249999997
                },
                {
                    "name": "F2",
                    "midi": 41,
                    "time": 327.94108576874584,
                    "velocity": 0.4645669291338583,
                    "duration": 0.08955224999994016
                },
                {
                    "name": "D#2",
                    "midi": 39,
                    "time": 328.0283992124958,
                    "velocity": 0.4645669291338583,
                    "duration": 0.089552249999997
                },
                {
                    "name": "D2",
                    "midi": 38,
                    "time": 328.1201902687458,
                    "velocity": 0.48031496062992124,
                    "duration": 0.089552249999997
                },
                {
                    "name": "C2",
                    "midi": 36,
                    "time": 328.20974251874577,
                    "velocity": 0.4251968503937008,
                    "duration": 0.089552249999997
                },
                {
                    "name": "A#1",
                    "midi": 34,
                    "time": 328.29929476874577,
                    "velocity": 0.4881889763779528,
                    "duration": 0.089552249999997
                },
                {
                    "name": "G#1",
                    "midi": 32,
                    "time": 328.3873544812458,
                    "velocity": 0.44881889763779526,
                    "duration": 0.089552249999997
                },
                {
                    "name": "G1",
                    "midi": 31,
                    "time": 328.4798918062458,
                    "velocity": 0.49606299212598426,
                    "duration": 0.089552249999997
                },
                {
                    "name": "F1",
                    "midi": 29,
                    "time": 328.5657127124958,
                    "velocity": 0.4251968503937008,
                    "duration": 0.089552249999997
                },
                {
                    "name": "D#1",
                    "midi": 27,
                    "time": 328.6552649624958,
                    "velocity": 0.49606299212598426,
                    "duration": 0.089552249999997
                },
                {
                    "name": "D1",
                    "midi": 26,
                    "time": 328.7478022874958,
                    "velocity": 0.49606299212598426,
                    "duration": 0.089552249999997
                },
                {
                    "name": "C1",
                    "midi": 24,
                    "time": 328.8351157312458,
                    "velocity": 0.44881889763779526,
                    "duration": 0.089552249999997
                },
                {
                    "name": "G1",
                    "midi": 31,
                    "time": 329.91048899999583,
                    "velocity": 0.5118110236220472,
                    "duration": 0.23656719374997692
                },
                {
                    "name": "A#1",
                    "midi": 34,
                    "time": 329.91048899999583,
                    "velocity": 0.5118110236220472,
                    "duration": 0.23656719374997692
                },
                {
                    "name": "D#2",
                    "midi": 39,
                    "time": 329.91048899999583,
                    "velocity": 0.6299212598425197,
                    "duration": 0.23656719374997692
                },
                {
                    "name": "G2",
                    "midi": 43,
                    "time": 329.91048899999583,
                    "velocity": 0.6299212598425197,
                    "duration": 0.23656719374997692
                },
                {
                    "name": "D#3",
                    "midi": 51,
                    "time": 330.1492949999958,
                    "velocity": 0.5039370078740157,
                    "duration": 0.23656719374997692
                },
                {
                    "name": "G3",
                    "midi": 55,
                    "time": 330.1492949999958,
                    "velocity": 0.5748031496062992,
                    "duration": 0.23656719374997692
                },
                {
                    "name": "G1",
                    "midi": 31,
                    "time": 330.38810099999574,
                    "velocity": 0.5433070866141733,
                    "duration": 0.23656719374997692
                },
                {
                    "name": "G2",
                    "midi": 43,
                    "time": 330.38810099999574,
                    "velocity": 0.6456692913385826,
                    "duration": 0.23656719374997692
                },
                {
                    "name": "D#3",
                    "midi": 51,
                    "time": 330.6269069999957,
                    "velocity": 0.41732283464566927,
                    "duration": 0.23656719374997692
                },
                {
                    "name": "G3",
                    "midi": 55,
                    "time": 330.6269069999957,
                    "velocity": 0.5118110236220472,
                    "duration": 0.23656719374997692
                },
                {
                    "name": "G1",
                    "midi": 31,
                    "time": 330.86571299999565,
                    "velocity": 0.5196850393700787,
                    "duration": 0.23656719374997692
                },
                {
                    "name": "A#1",
                    "midi": 34,
                    "time": 330.86571299999565,
                    "velocity": 0.5196850393700787,
                    "duration": 0.23656719374997692
                },
                {
                    "name": "D#2",
                    "midi": 39,
                    "time": 330.86571299999565,
                    "velocity": 0.6220472440944882,
                    "duration": 0.23656719374997692
                },
                {
                    "name": "G2",
                    "midi": 43,
                    "time": 330.86571299999565,
                    "velocity": 0.6220472440944882,
                    "duration": 0.23656719374997692
                },
                {
                    "name": "D#3",
                    "midi": 51,
                    "time": 331.1045189999956,
                    "velocity": 0.4251968503937008,
                    "duration": 0.23656719374997692
                },
                {
                    "name": "G3",
                    "midi": 55,
                    "time": 331.1045189999956,
                    "velocity": 0.5275590551181102,
                    "duration": 0.23656719374997692
                },
                {
                    "name": "F1",
                    "midi": 29,
                    "time": 331.34332499999556,
                    "velocity": 0.49606299212598426,
                    "duration": 0.23656719374997692
                },
                {
                    "name": "A#1",
                    "midi": 34,
                    "time": 331.34332499999556,
                    "velocity": 0.49606299212598426,
                    "duration": 0.23656719374997692
                },
                {
                    "name": "D2",
                    "midi": 38,
                    "time": 331.34332499999556,
                    "velocity": 0.49606299212598426,
                    "duration": 0.23656719374997692
                },
                {
                    "name": "F2",
                    "midi": 41,
                    "time": 331.34332499999556,
                    "velocity": 0.6141732283464567,
                    "duration": 0.23656719374997692
                },
                {
                    "name": "A#3",
                    "midi": 58,
                    "time": 331.5821309999955,
                    "velocity": 0.49606299212598426,
                    "duration": 0.23656719374997692
                },
                {
                    "name": "D3",
                    "midi": 50,
                    "time": 331.5821309999955,
                    "velocity": 0.3937007874015748,
                    "duration": 0.23656719374997692
                },
                {
                    "name": "F3",
                    "midi": 53,
                    "time": 331.5821309999955,
                    "velocity": 0.3937007874015748,
                    "duration": 0.23656719374997692
                },
                {
                    "name": "F1",
                    "midi": 29,
                    "time": 331.82093699999547,
                    "velocity": 0.48031496062992124,
                    "duration": 0.23656719374997692
                },
                {
                    "name": "F2",
                    "midi": 41,
                    "time": 331.82093699999547,
                    "velocity": 0.5669291338582677,
                    "duration": 0.23656719374997692
                },
                {
                    "name": "A#3",
                    "midi": 58,
                    "time": 332.0597429999954,
                    "velocity": 0.5118110236220472,
                    "duration": 0.23656719374997692
                },
                {
                    "name": "D3",
                    "midi": 50,
                    "time": 332.0597429999954,
                    "velocity": 0.4094488188976378,
                    "duration": 0.23656719374997692
                },
                {
                    "name": "F3",
                    "midi": 53,
                    "time": 332.0597429999954,
                    "velocity": 0.5118110236220472,
                    "duration": 0.23656719374997692
                },
                {
                    "name": "F1",
                    "midi": 29,
                    "time": 332.2985489999954,
                    "velocity": 0.4645669291338583,
                    "duration": 0.23656719374997692
                },
                {
                    "name": "A#1",
                    "midi": 34,
                    "time": 332.2985489999954,
                    "velocity": 0.4645669291338583,
                    "duration": 0.23656719374997692
                },
                {
                    "name": "D2",
                    "midi": 38,
                    "time": 332.2985489999954,
                    "velocity": 0.5511811023622047,
                    "duration": 0.23656719374997692
                },
                {
                    "name": "F2",
                    "midi": 41,
                    "time": 332.2985489999954,
                    "velocity": 0.5511811023622047,
                    "duration": 0.23656719374997692
                },
                {
                    "name": "A#3",
                    "midi": 58,
                    "time": 332.53735499999533,
                    "velocity": 0.5118110236220472,
                    "duration": 0.23656719374997692
                },
                {
                    "name": "D3",
                    "midi": 50,
                    "time": 332.53735499999533,
                    "velocity": 0.4251968503937008,
                    "duration": 0.23656719374997692
                },
                {
                    "name": "F3",
                    "midi": 53,
                    "time": 332.53735499999533,
                    "velocity": 0.4251968503937008,
                    "duration": 0.23656719374997692
                },
                {
                    "name": "D#1",
                    "midi": 27,
                    "time": 332.7761609999953,
                    "velocity": 0.49606299212598426,
                    "duration": 0.23656719374997692
                },
                {
                    "name": "G1",
                    "midi": 31,
                    "time": 332.7761609999953,
                    "velocity": 0.49606299212598426,
                    "duration": 0.23656719374997692
                },
                {
                    "name": "A#1",
                    "midi": 34,
                    "time": 332.7761609999953,
                    "velocity": 0.6062992125984252,
                    "duration": 0.23656719374997692
                },
                {
                    "name": "D#2",
                    "midi": 39,
                    "time": 332.7761609999953,
                    "velocity": 0.6062992125984252,
                    "duration": 0.23656719374997692
                },
                {
                    "name": "D#4",
                    "midi": 63,
                    "time": 333.01496699999524,
                    "velocity": 0.5433070866141733,
                    "duration": 0.23656719374997692
                },
                {
                    "name": "G3",
                    "midi": 55,
                    "time": 333.01496699999524,
                    "velocity": 0.4409448818897638,
                    "duration": 0.23656719374997692
                },
                {
                    "name": "A#3",
                    "midi": 58,
                    "time": 333.01496699999524,
                    "velocity": 0.4409448818897638,
                    "duration": 0.23656719374997692
                },
                {
                    "name": "D#1",
                    "midi": 27,
                    "time": 333.2537729999952,
                    "velocity": 0.5669291338582677,
                    "duration": 0.23656719374997692
                },
                {
                    "name": "D#2",
                    "midi": 39,
                    "time": 333.2537729999952,
                    "velocity": 0.6771653543307087,
                    "duration": 0.23656719374997692
                },
                {
                    "name": "C3",
                    "midi": 48,
                    "time": 333.49257899999515,
                    "velocity": 0.6377952755905512,
                    "duration": 0.23656719374997692
                },
                {
                    "name": "G2",
                    "midi": 43,
                    "time": 333.49257899999515,
                    "velocity": 0.6377952755905512,
                    "duration": 0.23656719374997692
                },
                {
                    "name": "C2",
                    "midi": 36,
                    "time": 333.49257899999515,
                    "velocity": 0.5433070866141733,
                    "duration": 0.23656719374997692
                },
                {
                    "name": "D#2",
                    "midi": 39,
                    "time": 333.49257899999515,
                    "velocity": 0.5433070866141733,
                    "duration": 0.23656719374997692
                },
                {
                    "name": "C4",
                    "midi": 60,
                    "time": 333.7313849999951,
                    "velocity": 0.5433070866141733,
                    "duration": 0.23656719374997692
                },
                {
                    "name": "D#3",
                    "midi": 51,
                    "time": 333.7313849999951,
                    "velocity": 0.4409448818897638,
                    "duration": 0.23656719374997692
                },
                {
                    "name": "G3",
                    "midi": 55,
                    "time": 333.7313849999951,
                    "velocity": 0.4409448818897638,
                    "duration": 0.23656719374997692
                },
                {
                    "name": "D#2",
                    "midi": 39,
                    "time": 333.97019099999505,
                    "velocity": 0.4409448818897638,
                    "duration": 0.23656719374997692
                },
                {
                    "name": "D#3",
                    "midi": 51,
                    "time": 333.97019099999505,
                    "velocity": 0.5590551181102362,
                    "duration": 0.23656719374997692
                },
                {
                    "name": "D3",
                    "midi": 50,
                    "time": 334.208996999995,
                    "velocity": 0.5984251968503937,
                    "duration": 0.23656719374997692
                },
                {
                    "name": "A#2",
                    "midi": 46,
                    "time": 334.208996999995,
                    "velocity": 0.5984251968503937,
                    "duration": 0.23656719374997692
                },
                {
                    "name": "D2",
                    "midi": 38,
                    "time": 334.208996999995,
                    "velocity": 0.5118110236220472,
                    "duration": 0.23656719374997692
                },
                {
                    "name": "F2",
                    "midi": 41,
                    "time": 334.208996999995,
                    "velocity": 0.5118110236220472,
                    "duration": 0.23656719374997692
                },
                {
                    "name": "D3",
                    "midi": 50,
                    "time": 334.44780299999496,
                    "velocity": 0.49606299212598426,
                    "duration": 0.23432838749999974
                },
                {
                    "name": "F3",
                    "midi": 53,
                    "time": 334.44780299999496,
                    "velocity": 0.49606299212598426,
                    "duration": 0.23432838749999974
                },
                {
                    "name": "F3",
                    "midi": 53,
                    "time": 334.686608999995,
                    "velocity": 0.5039370078740157,
                    "duration": 0.23432838749999974
                },
                {
                    "name": "A#3",
                    "midi": 58,
                    "time": 334.686608999995,
                    "velocity": 0.5039370078740157,
                    "duration": 0.23432838749999974
                },
                {
                    "name": "A#3",
                    "midi": 58,
                    "time": 334.925414999995,
                    "velocity": 0.5275590551181102,
                    "duration": 0.23432838749999974
                },
                {
                    "name": "D4",
                    "midi": 62,
                    "time": 334.925414999995,
                    "velocity": 0.5275590551181102,
                    "duration": 0.23432838749999974
                },
                {
                    "name": "F4",
                    "midi": 65,
                    "time": 335.164220999995,
                    "velocity": 0.5354330708661418,
                    "duration": 0.23432838749999974
                },
                {
                    "name": "D4",
                    "midi": 62,
                    "time": 335.164220999995,
                    "velocity": 0.5354330708661418,
                    "duration": 0.23432838749999974
                },
                {
                    "name": "F4",
                    "midi": 65,
                    "time": 335.403026999995,
                    "velocity": 0.5511811023622047,
                    "duration": 0.23432838749999974
                },
                {
                    "name": "A#4",
                    "midi": 70,
                    "time": 335.403026999995,
                    "velocity": 0.5511811023622047,
                    "duration": 0.23432838749999974
                },
                {
                    "name": "D#2",
                    "midi": 39,
                    "time": 335.641832999995,
                    "velocity": 0.5118110236220472,
                    "duration": 0.35447765625002603
                },
                {
                    "name": "A#2",
                    "midi": 46,
                    "time": 335.641832999995,
                    "velocity": 0.6062992125984252,
                    "duration": 0.35447765625002603
                },
                {
                    "name": "D#3",
                    "midi": 51,
                    "time": 335.641832999995,
                    "velocity": 0.6062992125984252,
                    "duration": 0.35447765625002603
                },
                {
                    "name": "G2",
                    "midi": 43,
                    "time": 336.00004199999506,
                    "velocity": 0.44881889763779526,
                    "duration": 0.35447765625002603
                },
                {
                    "name": "D#3",
                    "midi": 51,
                    "time": 336.00004199999506,
                    "velocity": 0.5511811023622047,
                    "duration": 0.35447765625002603
                },
                {
                    "name": "G3",
                    "midi": 55,
                    "time": 336.00004199999506,
                    "velocity": 0.5511811023622047,
                    "duration": 0.35447765625002603
                },
                {
                    "name": "D2",
                    "midi": 38,
                    "time": 336.3582509999951,
                    "velocity": 0.4251968503937008,
                    "duration": 0.35447765625002603
                },
                {
                    "name": "D3",
                    "midi": 50,
                    "time": 336.3582509999951,
                    "velocity": 0.5196850393700787,
                    "duration": 0.35447765625002603
                },
                {
                    "name": "G2",
                    "midi": 43,
                    "time": 336.3582509999951,
                    "velocity": 0.5196850393700787,
                    "duration": 0.35447765625002603
                },
                {
                    "name": "C2",
                    "midi": 36,
                    "time": 336.71645999999515,
                    "velocity": 0.4015748031496063,
                    "duration": 0.35447765625002603
                },
                {
                    "name": "G2",
                    "midi": 43,
                    "time": 336.71645999999515,
                    "velocity": 0.5669291338582677,
                    "duration": 0.35447765625002603
                },
                {
                    "name": "C3",
                    "midi": 48,
                    "time": 336.71645999999515,
                    "velocity": 0.5669291338582677,
                    "duration": 0.35447765625002603
                },
                {
                    "name": "A#2",
                    "midi": 46,
                    "time": 337.0746689999952,
                    "velocity": 0.5905511811023622,
                    "duration": 0.23656719374997692
                },
                {
                    "name": "A#1",
                    "midi": 34,
                    "time": 337.0746689999952,
                    "velocity": 0.5118110236220472,
                    "duration": 0.23656719374997692
                },
                {
                    "name": "G2",
                    "midi": 43,
                    "time": 337.0746689999952,
                    "velocity": 0.5905511811023622,
                    "duration": 0.23656719374997692
                },
                {
                    "name": "D3",
                    "midi": 50,
                    "time": 337.31347499999515,
                    "velocity": 0.49606299212598426,
                    "duration": 0.23656719374997692
                },
                {
                    "name": "F3",
                    "midi": 53,
                    "time": 337.31347499999515,
                    "velocity": 0.49606299212598426,
                    "duration": 0.23656719374997692
                },
                {
                    "name": "F3",
                    "midi": 53,
                    "time": 337.5522809999951,
                    "velocity": 0.5039370078740157,
                    "duration": 0.23432838749999974
                },
                {
                    "name": "A#3",
                    "midi": 58,
                    "time": 337.5522809999951,
                    "velocity": 0.5039370078740157,
                    "duration": 0.23432838749999974
                },
                {
                    "name": "A#3",
                    "midi": 58,
                    "time": 337.7910869999951,
                    "velocity": 0.5275590551181102,
                    "duration": 0.23432838749999974
                },
                {
                    "name": "D4",
                    "midi": 62,
                    "time": 337.7910869999951,
                    "velocity": 0.5275590551181102,
                    "duration": 0.23432838749999974
                },
                {
                    "name": "F4",
                    "midi": 65,
                    "time": 338.0298929999951,
                    "velocity": 0.5354330708661418,
                    "duration": 0.23432838749999974
                },
                {
                    "name": "D4",
                    "midi": 62,
                    "time": 338.0298929999951,
                    "velocity": 0.5354330708661418,
                    "duration": 0.23432838749999974
                },
                {
                    "name": "F4",
                    "midi": 65,
                    "time": 338.26869899999514,
                    "velocity": 0.5511811023622047,
                    "duration": 0.23432838749999974
                },
                {
                    "name": "A#4",
                    "midi": 70,
                    "time": 338.26869899999514,
                    "velocity": 0.5511811023622047,
                    "duration": 0.23432838749999974
                },
                {
                    "name": "D#2",
                    "midi": 39,
                    "time": 338.50750499999515,
                    "velocity": 0.5118110236220472,
                    "duration": 0.35447765625002603
                },
                {
                    "name": "A#2",
                    "midi": 46,
                    "time": 338.50750499999515,
                    "velocity": 0.6062992125984252,
                    "duration": 0.35447765625002603
                },
                {
                    "name": "D#3",
                    "midi": 51,
                    "time": 338.50750499999515,
                    "velocity": 0.6062992125984252,
                    "duration": 0.35447765625002603
                },
                {
                    "name": "G2",
                    "midi": 43,
                    "time": 338.8657139999952,
                    "velocity": 0.44881889763779526,
                    "duration": 0.35447765625002603
                },
                {
                    "name": "D#3",
                    "midi": 51,
                    "time": 338.8657139999952,
                    "velocity": 0.5511811023622047,
                    "duration": 0.35447765625002603
                },
                {
                    "name": "G3",
                    "midi": 55,
                    "time": 338.8657139999952,
                    "velocity": 0.5511811023622047,
                    "duration": 0.35447765625002603
                },
                {
                    "name": "D2",
                    "midi": 38,
                    "time": 339.22392299999524,
                    "velocity": 0.4251968503937008,
                    "duration": 0.35447765625002603
                },
                {
                    "name": "D3",
                    "midi": 50,
                    "time": 339.22392299999524,
                    "velocity": 0.5196850393700787,
                    "duration": 0.35447765625002603
                },
                {
                    "name": "G2",
                    "midi": 43,
                    "time": 339.22392299999524,
                    "velocity": 0.5196850393700787,
                    "duration": 0.35447765625002603
                },
                {
                    "name": "C2",
                    "midi": 36,
                    "time": 339.5821319999953,
                    "velocity": 0.4015748031496063,
                    "duration": 0.35447765625002603
                },
                {
                    "name": "G2",
                    "midi": 43,
                    "time": 339.5821319999953,
                    "velocity": 0.5669291338582677,
                    "duration": 0.35447765625002603
                },
                {
                    "name": "C3",
                    "midi": 48,
                    "time": 339.5821319999953,
                    "velocity": 0.5669291338582677,
                    "duration": 0.35447765625002603
                },
                {
                    "name": "A#2",
                    "midi": 46,
                    "time": 339.9403409999953,
                    "velocity": 0.5905511811023622,
                    "duration": 0.23656719374997692
                },
                {
                    "name": "A#1",
                    "midi": 34,
                    "time": 339.9403409999953,
                    "velocity": 0.5118110236220472,
                    "duration": 0.23656719374997692
                },
                {
                    "name": "G2",
                    "midi": 43,
                    "time": 339.9403409999953,
                    "velocity": 0.5905511811023622,
                    "duration": 0.23656719374997692
                },
                {
                    "name": "D3",
                    "midi": 50,
                    "time": 340.1791469999953,
                    "velocity": 0.49606299212598426,
                    "duration": 0.23432838749999974
                },
                {
                    "name": "G3",
                    "midi": 55,
                    "time": 340.1791469999953,
                    "velocity": 0.49606299212598426,
                    "duration": 0.23432838749999974
                },
                {
                    "name": "G3",
                    "midi": 55,
                    "time": 340.4179529999953,
                    "velocity": 0.5039370078740157,
                    "duration": 0.23432838749999974
                },
                {
                    "name": "A#3",
                    "midi": 58,
                    "time": 340.4179529999953,
                    "velocity": 0.5039370078740157,
                    "duration": 0.23432838749999974
                },
                {
                    "name": "G#3",
                    "midi": 56,
                    "time": 340.6567589999953,
                    "velocity": 0.4251968503937008,
                    "duration": 0.23432838749999974
                },
                {
                    "name": "A#3",
                    "midi": 58,
                    "time": 340.6567589999953,
                    "velocity": 0.5275590551181102,
                    "duration": 0.23432838749999974
                },
                {
                    "name": "D4",
                    "midi": 62,
                    "time": 340.6567589999953,
                    "velocity": 0.5275590551181102,
                    "duration": 0.23432838749999974
                },
                {
                    "name": "A#3",
                    "midi": 58,
                    "time": 340.8955649999953,
                    "velocity": 0.4251968503937008,
                    "duration": 0.23432838749999974
                },
                {
                    "name": "F4",
                    "midi": 65,
                    "time": 340.8955649999953,
                    "velocity": 0.5354330708661418,
                    "duration": 0.23432838749999974
                },
                {
                    "name": "D4",
                    "midi": 62,
                    "time": 340.8955649999953,
                    "velocity": 0.5354330708661418,
                    "duration": 0.23432838749999974
                },
                {
                    "name": "D4",
                    "midi": 62,
                    "time": 341.1343709999953,
                    "velocity": 0.4251968503937008,
                    "duration": 0.23432838749999974
                },
                {
                    "name": "F4",
                    "midi": 65,
                    "time": 341.1343709999953,
                    "velocity": 0.5511811023622047,
                    "duration": 0.23432838749999974
                },
                {
                    "name": "G#4",
                    "midi": 68,
                    "time": 341.1343709999953,
                    "velocity": 0.5511811023622047,
                    "duration": 0.23432838749999974
                },
                {
                    "name": "C5",
                    "midi": 72,
                    "time": 341.37317699999534,
                    "velocity": 0.6377952755905512,
                    "duration": 0.23656719374997692
                },
                {
                    "name": "G#4",
                    "midi": 68,
                    "time": 341.37317699999534,
                    "velocity": 0.6377952755905512,
                    "duration": 0.23656719374997692
                },
                {
                    "name": "C4",
                    "midi": 60,
                    "time": 341.37317699999534,
                    "velocity": 0.5433070866141733,
                    "duration": 0.23656719374997692
                },
                {
                    "name": "C3",
                    "midi": 48,
                    "time": 341.6119829999953,
                    "velocity": 0.44881889763779526,
                    "duration": 0.23656719374997692
                },
                {
                    "name": "C2",
                    "midi": 36,
                    "time": 341.6119829999953,
                    "velocity": 0.3779527559055118,
                    "duration": 0.23656719374997692
                },
                {
                    "name": "G#2",
                    "midi": 44,
                    "time": 341.6119829999953,
                    "velocity": 0.44881889763779526,
                    "duration": 0.23656719374997692
                },
                {
                    "name": "G#3",
                    "midi": 56,
                    "time": 341.85078899999525,
                    "velocity": 0.5511811023622047,
                    "duration": 0.23656719374997692
                },
                {
                    "name": "C3",
                    "midi": 48,
                    "time": 341.85078899999525,
                    "velocity": 0.44881889763779526,
                    "duration": 0.23656719374997692
                },
                {
                    "name": "C4",
                    "midi": 60,
                    "time": 341.85078899999525,
                    "velocity": 0.5511811023622047,
                    "duration": 0.23656719374997692
                },
                {
                    "name": "A#2",
                    "midi": 46,
                    "time": 342.0895949999952,
                    "velocity": 0.5118110236220472,
                    "duration": 0.35447765625002603
                },
                {
                    "name": "D#3",
                    "midi": 51,
                    "time": 342.0895949999952,
                    "velocity": 0.6062992125984252,
                    "duration": 0.35447765625002603
                },
                {
                    "name": "A#3",
                    "midi": 58,
                    "time": 342.0895949999952,
                    "velocity": 0.6062992125984252,
                    "duration": 0.35447765625002603
                },
                {
                    "name": "G2",
                    "midi": 43,
                    "time": 342.44780399999524,
                    "velocity": 0.44881889763779526,
                    "duration": 0.35447765625002603
                },
                {
                    "name": "D#3",
                    "midi": 51,
                    "time": 342.44780399999524,
                    "velocity": 0.5511811023622047,
                    "duration": 0.35447765625002603
                },
                {
                    "name": "G3",
                    "midi": 55,
                    "time": 342.44780399999524,
                    "velocity": 0.5511811023622047,
                    "duration": 0.35447765625002603
                },
                {
                    "name": "G#3",
                    "midi": 56,
                    "time": 342.8060129999953,
                    "velocity": 0.5669291338582677,
                    "duration": 0.23656719374997692
                },
                {
                    "name": "D#3",
                    "midi": 51,
                    "time": 342.8060129999953,
                    "velocity": 0.5669291338582677,
                    "duration": 0.23656719374997692
                },
                {
                    "name": "G#2",
                    "midi": 44,
                    "time": 342.8060129999953,
                    "velocity": 0.4881889763779528,
                    "duration": 0.23656719374997692
                },
                {
                    "name": "C3",
                    "midi": 48,
                    "time": 343.04481899999524,
                    "velocity": 0.44881889763779526,
                    "duration": 0.23656719374997692
                },
                {
                    "name": "C2",
                    "midi": 36,
                    "time": 343.04481899999524,
                    "velocity": 0.3779527559055118,
                    "duration": 0.23656719374997692
                },
                {
                    "name": "G#2",
                    "midi": 44,
                    "time": 343.04481899999524,
                    "velocity": 0.44881889763779526,
                    "duration": 0.23656719374997692
                },
                {
                    "name": "D#3",
                    "midi": 51,
                    "time": 343.2836249999952,
                    "velocity": 0.5511811023622047,
                    "duration": 0.23656719374997692
                },
                {
                    "name": "G#2",
                    "midi": 44,
                    "time": 343.2836249999952,
                    "velocity": 0.44881889763779526,
                    "duration": 0.23656719374997692
                },
                {
                    "name": "G#3",
                    "midi": 56,
                    "time": 343.2836249999952,
                    "velocity": 0.5511811023622047,
                    "duration": 0.23656719374997692
                },
                {
                    "name": "F2",
                    "midi": 41,
                    "time": 343.52243099999515,
                    "velocity": 0.44881889763779526,
                    "duration": 0.35447765625002603
                },
                {
                    "name": "C3",
                    "midi": 48,
                    "time": 343.52243099999515,
                    "velocity": 0.5511811023622047,
                    "duration": 0.35447765625002603
                },
                {
                    "name": "F3",
                    "midi": 53,
                    "time": 343.52243099999515,
                    "velocity": 0.5511811023622047,
                    "duration": 0.35447765625002603
                },
                {
                    "name": "G#2",
                    "midi": 44,
                    "time": 343.8806399999952,
                    "velocity": 0.4251968503937008,
                    "duration": 0.35447765625002603
                },
                {
                    "name": "C3",
                    "midi": 48,
                    "time": 343.8806399999952,
                    "velocity": 0.5275590551181102,
                    "duration": 0.35447765625002603
                },
                {
                    "name": "G#3",
                    "midi": 56,
                    "time": 343.8806399999952,
                    "velocity": 0.5275590551181102,
                    "duration": 0.35447765625002603
                },
                {
                    "name": "G2",
                    "midi": 43,
                    "time": 344.23884899999524,
                    "velocity": 0.44881889763779526,
                    "duration": 0.35447765625002603
                },
                {
                    "name": "D#3",
                    "midi": 51,
                    "time": 344.23884899999524,
                    "velocity": 0.5511811023622047,
                    "duration": 0.35447765625002603
                },
                {
                    "name": "G3",
                    "midi": 55,
                    "time": 344.23884899999524,
                    "velocity": 0.5511811023622047,
                    "duration": 0.35447765625002603
                },
                {
                    "name": "G1",
                    "midi": 31,
                    "time": 344.5970579999953,
                    "velocity": 0.36220472440944884,
                    "duration": 0.35447765625002603
                },
                {
                    "name": "D#2",
                    "midi": 39,
                    "time": 344.5970579999953,
                    "velocity": 0.4251968503937008,
                    "duration": 0.35447765625002603
                },
                {
                    "name": "G2",
                    "midi": 43,
                    "time": 344.5970579999953,
                    "velocity": 0.4251968503937008,
                    "duration": 0.35447765625002603
                },
                {
                    "name": "F2",
                    "midi": 41,
                    "time": 344.95526699999533,
                    "velocity": 0.4251968503937008,
                    "duration": 0.35447765625002603
                },
                {
                    "name": "A#2",
                    "midi": 46,
                    "time": 344.95526699999533,
                    "velocity": 0.5354330708661418,
                    "duration": 0.35447765625002603
                },
                {
                    "name": "F3",
                    "midi": 53,
                    "time": 344.95526699999533,
                    "velocity": 0.5354330708661418,
                    "duration": 0.35447765625002603
                },
                {
                    "name": "D#2",
                    "midi": 39,
                    "time": 345.3134759999954,
                    "velocity": 0.41732283464566927,
                    "duration": 0.35447765625002603
                },
                {
                    "name": "A#2",
                    "midi": 46,
                    "time": 345.3134759999954,
                    "velocity": 0.5039370078740157,
                    "duration": 0.35447765625002603
                },
                {
                    "name": "D#3",
                    "midi": 51,
                    "time": 345.3134759999954,
                    "velocity": 0.5039370078740157,
                    "duration": 0.35447765625002603
                },
                {
                    "name": "G#1",
                    "midi": 32,
                    "time": 345.6716849999954,
                    "velocity": 0.2755905511811024,
                    "duration": 0.23656719374997692
                },
                {
                    "name": "G#2",
                    "midi": 44,
                    "time": 345.6716849999954,
                    "velocity": 0.30708661417322836,
                    "duration": 0.23656719374997692
                },
                {
                    "name": "G#3",
                    "midi": 56,
                    "time": 345.9104909999954,
                    "velocity": 0.2755905511811024,
                    "duration": 0.23656719374997692
                },
                {
                    "name": "G#2",
                    "midi": 44,
                    "time": 345.9104909999954,
                    "velocity": 0.25196850393700787,
                    "duration": 0.23656719374997692
                },
                {
                    "name": "G#1",
                    "midi": 32,
                    "time": 346.14929699999533,
                    "velocity": 0.25196850393700787,
                    "duration": 0.23656719374997692
                },
                {
                    "name": "G#2",
                    "midi": 44,
                    "time": 346.14929699999533,
                    "velocity": 0.28346456692913385,
                    "duration": 0.23656719374997692
                },
                {
                    "name": "G#2",
                    "midi": 44,
                    "time": 346.3881029999953,
                    "velocity": 0.23622047244094488,
                    "duration": 0.23656719374997692
                },
                {
                    "name": "G#3",
                    "midi": 56,
                    "time": 346.3881029999953,
                    "velocity": 0.2677165354330709,
                    "duration": 0.23656719374997692
                },
                {
                    "name": "G#2",
                    "midi": 44,
                    "time": 346.62690899999524,
                    "velocity": 0.2755905511811024,
                    "duration": 0.23656719374997692
                },
                {
                    "name": "G#1",
                    "midi": 32,
                    "time": 346.62690899999524,
                    "velocity": 0.23622047244094488,
                    "duration": 0.23656719374997692
                },
                {
                    "name": "G#2",
                    "midi": 44,
                    "time": 346.8657149999952,
                    "velocity": 0.2125984251968504,
                    "duration": 0.23656719374997692
                },
                {
                    "name": "G#3",
                    "midi": 56,
                    "time": 346.8657149999952,
                    "velocity": 0.25984251968503935,
                    "duration": 0.23656719374997692
                },
                {
                    "name": "A#1",
                    "midi": 34,
                    "time": 347.10452099999515,
                    "velocity": 0.31496062992125984,
                    "duration": 0.23656719374997692
                },
                {
                    "name": "A#2",
                    "midi": 46,
                    "time": 347.10452099999515,
                    "velocity": 0.36220472440944884,
                    "duration": 0.23656719374997692
                },
                {
                    "name": "A#3",
                    "midi": 58,
                    "time": 347.3433269999951,
                    "velocity": 0.28346456692913385,
                    "duration": 0.23656719374997692
                },
                {
                    "name": "A#2",
                    "midi": 46,
                    "time": 347.3433269999951,
                    "velocity": 0.25984251968503935,
                    "duration": 0.23656719374997692
                },
                {
                    "name": "A#1",
                    "midi": 34,
                    "time": 347.58213299999505,
                    "velocity": 0.2677165354330709,
                    "duration": 0.23656719374997692
                },
                {
                    "name": "A#2",
                    "midi": 46,
                    "time": 347.58213299999505,
                    "velocity": 0.2992125984251969,
                    "duration": 0.23656719374997692
                },
                {
                    "name": "A#2",
                    "midi": 46,
                    "time": 347.820938999995,
                    "velocity": 0.2677165354330709,
                    "duration": 0.23656719374997692
                },
                {
                    "name": "A#3",
                    "midi": 58,
                    "time": 347.820938999995,
                    "velocity": 0.2992125984251969,
                    "duration": 0.23656719374997692
                },
                {
                    "name": "A#2",
                    "midi": 46,
                    "time": 348.05974499999496,
                    "velocity": 0.30708661417322836,
                    "duration": 0.23656719374997692
                },
                {
                    "name": "A#1",
                    "midi": 34,
                    "time": 348.05974499999496,
                    "velocity": 0.2755905511811024,
                    "duration": 0.23656719374997692
                },
                {
                    "name": "A#2",
                    "midi": 46,
                    "time": 348.2985509999949,
                    "velocity": 0.2755905511811024,
                    "duration": 0.23656719374997692
                },
                {
                    "name": "A#3",
                    "midi": 58,
                    "time": 348.2985509999949,
                    "velocity": 0.30708661417322836,
                    "duration": 0.23656719374997692
                },
                {
                    "name": "A#1",
                    "midi": 34,
                    "time": 348.53735699999487,
                    "velocity": 0.3228346456692913,
                    "duration": 0.23656719374997692
                },
                {
                    "name": "A#2",
                    "midi": 46,
                    "time": 348.53735699999487,
                    "velocity": 0.3700787401574803,
                    "duration": 0.23656719374997692
                },
                {
                    "name": "A#3",
                    "midi": 58,
                    "time": 348.7761629999948,
                    "velocity": 0.33070866141732286,
                    "duration": 0.23656719374997692
                },
                {
                    "name": "A#2",
                    "midi": 46,
                    "time": 348.7761629999948,
                    "velocity": 0.29133858267716534,
                    "duration": 0.23656719374997692
                },
                {
                    "name": "A#1",
                    "midi": 34,
                    "time": 349.0149689999948,
                    "velocity": 0.2992125984251969,
                    "duration": 0.23656719374997692
                },
                {
                    "name": "A#2",
                    "midi": 46,
                    "time": 349.0149689999948,
                    "velocity": 0.33070866141732286,
                    "duration": 0.23656719374997692
                },
                {
                    "name": "B2",
                    "midi": 47,
                    "time": 349.25377499999473,
                    "velocity": 0.3228346456692913,
                    "duration": 0.23656719374997692
                },
                {
                    "name": "B3",
                    "midi": 59,
                    "time": 349.25377499999473,
                    "velocity": 0.36220472440944884,
                    "duration": 0.23656719374997692
                },
                {
                    "name": "B2",
                    "midi": 47,
                    "time": 349.4925809999947,
                    "velocity": 0.2992125984251969,
                    "duration": 0.23656719374997692
                },
                {
                    "name": "B1",
                    "midi": 35,
                    "time": 349.4925809999947,
                    "velocity": 0.2677165354330709,
                    "duration": 0.23656719374997692
                },
                {
                    "name": "B2",
                    "midi": 47,
                    "time": 349.73138699999464,
                    "velocity": 0.2677165354330709,
                    "duration": 0.23656719374997692
                },
                {
                    "name": "B3",
                    "midi": 59,
                    "time": 349.73138699999464,
                    "velocity": 0.2992125984251969,
                    "duration": 0.23656719374997692
                },
                {
                    "name": "B1",
                    "midi": 35,
                    "time": 349.9701929999946,
                    "velocity": 0.2992125984251969,
                    "duration": 0.23656719374997692
                },
                {
                    "name": "B2",
                    "midi": 47,
                    "time": 349.9701929999946,
                    "velocity": 0.2992125984251969,
                    "duration": 0.23656719374997692
                },
                {
                    "name": "B3",
                    "midi": 59,
                    "time": 350.20899899999455,
                    "velocity": 0.2992125984251969,
                    "duration": 0.23656719374997692
                },
                {
                    "name": "B2",
                    "midi": 47,
                    "time": 350.20899899999455,
                    "velocity": 0.2992125984251969,
                    "duration": 0.23656719374997692
                },
                {
                    "name": "B1",
                    "midi": 35,
                    "time": 350.4478049999945,
                    "velocity": 0.2992125984251969,
                    "duration": 0.23656719374997692
                },
                {
                    "name": "B2",
                    "midi": 47,
                    "time": 350.4478049999945,
                    "velocity": 0.2992125984251969,
                    "duration": 0.23656719374997692
                },
                {
                    "name": "A#2",
                    "midi": 46,
                    "time": 350.68661099999446,
                    "velocity": 0.2992125984251969,
                    "duration": 0.23656719374997692
                },
                {
                    "name": "A#3",
                    "midi": 58,
                    "time": 350.68661099999446,
                    "velocity": 0.3228346456692913,
                    "duration": 0.23656719374997692
                },
                {
                    "name": "A#2",
                    "midi": 46,
                    "time": 350.9254169999944,
                    "velocity": 0.33070866141732286,
                    "duration": 0.23656719374997692
                },
                {
                    "name": "A#1",
                    "midi": 34,
                    "time": 350.9254169999944,
                    "velocity": 0.2992125984251969,
                    "duration": 0.23656719374997692
                },
                {
                    "name": "A#2",
                    "midi": 46,
                    "time": 351.16422299999437,
                    "velocity": 0.30708661417322836,
                    "duration": 0.23656719374997692
                },
                {
                    "name": "A#3",
                    "midi": 58,
                    "time": 351.16422299999437,
                    "velocity": 0.33070866141732286,
                    "duration": 0.23656719374997692
                },
                {
                    "name": "A1",
                    "midi": 33,
                    "time": 351.4030289999943,
                    "velocity": 0.2992125984251969,
                    "duration": 0.23656719374997692
                },
                {
                    "name": "A2",
                    "midi": 45,
                    "time": 351.4030289999943,
                    "velocity": 0.33070866141732286,
                    "duration": 0.23656719374997692
                },
                {
                    "name": "A3",
                    "midi": 57,
                    "time": 351.6418349999943,
                    "velocity": 0.33858267716535434,
                    "duration": 0.23656719374997692
                },
                {
                    "name": "A2",
                    "midi": 45,
                    "time": 351.6418349999943,
                    "velocity": 0.30708661417322836,
                    "duration": 0.23656719374997692
                },
                {
                    "name": "A1",
                    "midi": 33,
                    "time": 351.8806409999942,
                    "velocity": 0.33070866141732286,
                    "duration": 0.23656719374997692
                },
                {
                    "name": "A2",
                    "midi": 45,
                    "time": 351.8806409999942,
                    "velocity": 0.33070866141732286,
                    "duration": 0.23656719374997692
                },
                {
                    "name": "A2",
                    "midi": 45,
                    "time": 352.1194469999942,
                    "velocity": 0.3779527559055118,
                    "duration": 0.23656719374997692
                },
                {
                    "name": "A3",
                    "midi": 57,
                    "time": 352.1194469999942,
                    "velocity": 0.3779527559055118,
                    "duration": 0.23656719374997692
                },
                {
                    "name": "A2",
                    "midi": 45,
                    "time": 352.35825299999414,
                    "velocity": 0.33858267716535434,
                    "duration": 0.23656719374997692
                },
                {
                    "name": "A1",
                    "midi": 33,
                    "time": 352.35825299999414,
                    "velocity": 0.33858267716535434,
                    "duration": 0.23656719374997692
                },
                {
                    "name": "A2",
                    "midi": 45,
                    "time": 352.5970589999941,
                    "velocity": 0.33070866141732286,
                    "duration": 0.23656719374997692
                },
                {
                    "name": "A3",
                    "midi": 57,
                    "time": 352.5970589999941,
                    "velocity": 0.33070866141732286,
                    "duration": 0.23656719374997692
                },
                {
                    "name": "A1",
                    "midi": 33,
                    "time": 352.83586499999404,
                    "velocity": 0.3858267716535433,
                    "duration": 0.23656719374997692
                },
                {
                    "name": "A2",
                    "midi": 45,
                    "time": 352.83586499999404,
                    "velocity": 0.4409448818897638,
                    "duration": 0.23656719374997692
                },
                {
                    "name": "A3",
                    "midi": 57,
                    "time": 353.074670999994,
                    "velocity": 0.3700787401574803,
                    "duration": 0.23656719374997692
                },
                {
                    "name": "A2",
                    "midi": 45,
                    "time": 353.074670999994,
                    "velocity": 0.33070866141732286,
                    "duration": 0.23656719374997692
                },
                {
                    "name": "A1",
                    "midi": 33,
                    "time": 353.31347699999395,
                    "velocity": 0.33858267716535434,
                    "duration": 0.23656719374997692
                },
                {
                    "name": "A2",
                    "midi": 45,
                    "time": 353.31347699999395,
                    "velocity": 0.3779527559055118,
                    "duration": 0.23656719374997692
                },
                {
                    "name": "A2",
                    "midi": 45,
                    "time": 353.5522829999939,
                    "velocity": 0.4094488188976378,
                    "duration": 0.23656719374997692
                },
                {
                    "name": "A3",
                    "midi": 57,
                    "time": 353.5522829999939,
                    "velocity": 0.47244094488188976,
                    "duration": 0.23656719374997692
                },
                {
                    "name": "A2",
                    "midi": 45,
                    "time": 353.79108899999386,
                    "velocity": 0.3937007874015748,
                    "duration": 0.23656719374997692
                },
                {
                    "name": "A1",
                    "midi": 33,
                    "time": 353.79108899999386,
                    "velocity": 0.36220472440944884,
                    "duration": 0.23656719374997692
                },
                {
                    "name": "A3",
                    "midi": 57,
                    "time": 354.0298949999938,
                    "velocity": 0.4015748031496063,
                    "duration": 0.23656719374997692
                },
                {
                    "name": "A2",
                    "midi": 45,
                    "time": 354.0298949999938,
                    "velocity": 0.36220472440944884,
                    "duration": 0.23656719374997692
                },
                {
                    "name": "A#1",
                    "midi": 34,
                    "time": 354.26870099999377,
                    "velocity": 0.47244094488188976,
                    "duration": 0.23656719374997692
                },
                {
                    "name": "A#2",
                    "midi": 46,
                    "time": 354.26870099999377,
                    "velocity": 0.5354330708661418,
                    "duration": 0.23656719374997692
                },
                {
                    "name": "A#3",
                    "midi": 58,
                    "time": 354.5075069999937,
                    "velocity": 0.4094488188976378,
                    "duration": 0.23656719374997692
                },
                {
                    "name": "A#2",
                    "midi": 46,
                    "time": 354.5075069999937,
                    "velocity": 0.3700787401574803,
                    "duration": 0.23656719374997692
                },
                {
                    "name": "A#1",
                    "midi": 34,
                    "time": 354.7463129999937,
                    "velocity": 0.4015748031496063,
                    "duration": 0.23656719374997692
                },
                {
                    "name": "A#2",
                    "midi": 46,
                    "time": 354.7463129999937,
                    "velocity": 0.44881889763779526,
                    "duration": 0.23656719374997692
                },
                {
                    "name": "B2",
                    "midi": 47,
                    "time": 354.98511899999363,
                    "velocity": 0.5039370078740157,
                    "duration": 0.23656719374997692
                },
                {
                    "name": "B3",
                    "midi": 59,
                    "time": 354.98511899999363,
                    "velocity": 0.5590551181102362,
                    "duration": 0.23656719374997692
                },
                {
                    "name": "B2",
                    "midi": 47,
                    "time": 355.2239249999936,
                    "velocity": 0.4251968503937008,
                    "duration": 0.23656719374997692
                },
                {
                    "name": "B1",
                    "midi": 35,
                    "time": 355.2239249999936,
                    "velocity": 0.3779527559055118,
                    "duration": 0.23656719374997692
                },
                {
                    "name": "B2",
                    "midi": 47,
                    "time": 355.46273099999354,
                    "velocity": 0.3543307086614173,
                    "duration": 0.23656719374997692
                },
                {
                    "name": "B3",
                    "midi": 59,
                    "time": 355.46273099999354,
                    "velocity": 0.3937007874015748,
                    "duration": 0.23656719374997692
                },
                {
                    "name": "A#1",
                    "midi": 34,
                    "time": 355.7015369999935,
                    "velocity": 0.4251968503937008,
                    "duration": 0.23656719374997692
                },
                {
                    "name": "A#2",
                    "midi": 46,
                    "time": 355.7015369999935,
                    "velocity": 0.4881889763779528,
                    "duration": 0.23656719374997692
                },
                {
                    "name": "A#3",
                    "midi": 58,
                    "time": 355.94034299999345,
                    "velocity": 0.4094488188976378,
                    "duration": 0.23656719374997692
                },
                {
                    "name": "A#2",
                    "midi": 46,
                    "time": 355.94034299999345,
                    "velocity": 0.3700787401574803,
                    "duration": 0.23656719374997692
                },
                {
                    "name": "A#1",
                    "midi": 34,
                    "time": 356.1791489999934,
                    "velocity": 0.4015748031496063,
                    "duration": 0.23656719374997692
                },
                {
                    "name": "A#2",
                    "midi": 46,
                    "time": 356.1791489999934,
                    "velocity": 0.44881889763779526,
                    "duration": 0.23656719374997692
                },
                {
                    "name": "G#2",
                    "midi": 44,
                    "time": 356.41795499999336,
                    "velocity": 0.5118110236220472,
                    "duration": 0.23656719374997692
                },
                {
                    "name": "G#3",
                    "midi": 56,
                    "time": 356.41795499999336,
                    "velocity": 0.5669291338582677,
                    "duration": 0.23656719374997692
                },
                {
                    "name": "G#2",
                    "midi": 44,
                    "time": 356.6567609999933,
                    "velocity": 0.4251968503937008,
                    "duration": 0.23656719374997692
                },
                {
                    "name": "G#1",
                    "midi": 32,
                    "time": 356.6567609999933,
                    "velocity": 0.3779527559055118,
                    "duration": 0.23656719374997692
                },
                {
                    "name": "G#2",
                    "midi": 44,
                    "time": 356.89556699999326,
                    "velocity": 0.3543307086614173,
                    "duration": 0.23656719374997692
                },
                {
                    "name": "G#3",
                    "midi": 56,
                    "time": 356.89556699999326,
                    "velocity": 0.3937007874015748,
                    "duration": 0.23656719374997692
                },
                {
                    "name": "A#1",
                    "midi": 34,
                    "time": 357.1343729999932,
                    "velocity": 0.4251968503937008,
                    "duration": 0.23656719374997692
                },
                {
                    "name": "A#2",
                    "midi": 46,
                    "time": 357.1343729999932,
                    "velocity": 0.4881889763779528,
                    "duration": 0.23656719374997692
                },
                {
                    "name": "A#3",
                    "midi": 58,
                    "time": 357.3731789999932,
                    "velocity": 0.4094488188976378,
                    "duration": 0.23656719374997692
                },
                {
                    "name": "A#2",
                    "midi": 46,
                    "time": 357.3731789999932,
                    "velocity": 0.3700787401574803,
                    "duration": 0.23656719374997692
                },
                {
                    "name": "A#1",
                    "midi": 34,
                    "time": 357.6119849999931,
                    "velocity": 0.4015748031496063,
                    "duration": 0.23656719374997692
                },
                {
                    "name": "A#2",
                    "midi": 46,
                    "time": 357.6119849999931,
                    "velocity": 0.44881889763779526,
                    "duration": 0.23656719374997692
                },
                {
                    "name": "C3",
                    "midi": 48,
                    "time": 357.8507909999931,
                    "velocity": 0.5118110236220472,
                    "duration": 0.23656719374997692
                },
                {
                    "name": "C4",
                    "midi": 60,
                    "time": 357.8507909999931,
                    "velocity": 0.5669291338582677,
                    "duration": 0.23656719374997692
                },
                {
                    "name": "C3",
                    "midi": 48,
                    "time": 358.08959699999303,
                    "velocity": 0.4409448818897638,
                    "duration": 0.23656719374997692
                },
                {
                    "name": "C2",
                    "midi": 36,
                    "time": 358.08959699999303,
                    "velocity": 0.3937007874015748,
                    "duration": 0.23656719374997692
                },
                {
                    "name": "C3",
                    "midi": 48,
                    "time": 358.328402999993,
                    "velocity": 0.3700787401574803,
                    "duration": 0.23656719374997692
                },
                {
                    "name": "C4",
                    "midi": 60,
                    "time": 358.328402999993,
                    "velocity": 0.41732283464566927,
                    "duration": 0.23656719374997692
                },
                {
                    "name": "A#1",
                    "midi": 34,
                    "time": 358.56720899999294,
                    "velocity": 0.4645669291338583,
                    "duration": 0.23656719374997692
                },
                {
                    "name": "A#2",
                    "midi": 46,
                    "time": 358.56720899999294,
                    "velocity": 0.5275590551181102,
                    "duration": 0.23656719374997692
                },
                {
                    "name": "A#3",
                    "midi": 58,
                    "time": 358.8060149999929,
                    "velocity": 0.44881889763779526,
                    "duration": 0.23656719374997692
                },
                {
                    "name": "A#2",
                    "midi": 46,
                    "time": 358.8060149999929,
                    "velocity": 0.3937007874015748,
                    "duration": 0.23656719374997692
                },
                {
                    "name": "A#1",
                    "midi": 34,
                    "time": 359.04482099999285,
                    "velocity": 0.44881889763779526,
                    "duration": 0.23656719374997692
                },
                {
                    "name": "A#2",
                    "midi": 46,
                    "time": 359.04482099999285,
                    "velocity": 0.5039370078740157,
                    "duration": 0.23656719374997692
                },
                {
                    "name": "A2",
                    "midi": 45,
                    "time": 359.2836269999928,
                    "velocity": 0.5669291338582677,
                    "duration": 0.23656719374997692
                },
                {
                    "name": "A3",
                    "midi": 57,
                    "time": 359.2836269999928,
                    "velocity": 0.6456692913385826,
                    "duration": 0.23656719374997692
                },
                {
                    "name": "A2",
                    "midi": 45,
                    "time": 359.52243299999276,
                    "velocity": 0.49606299212598426,
                    "duration": 0.23656719374997692
                },
                {
                    "name": "A1",
                    "midi": 33,
                    "time": 359.52243299999276,
                    "velocity": 0.4409448818897638,
                    "duration": 0.23656719374997692
                },
                {
                    "name": "A2",
                    "midi": 45,
                    "time": 359.7612389999927,
                    "velocity": 0.4094488188976378,
                    "duration": 0.23656719374997692
                },
                {
                    "name": "A3",
                    "midi": 57,
                    "time": 359.7612389999927,
                    "velocity": 0.4645669291338583,
                    "duration": 0.23656719374997692
                },
                {
                    "name": "A#1",
                    "midi": 34,
                    "time": 360.00004499999267,
                    "velocity": 0.5984251968503937,
                    "duration": 0.23880600000001095
                },
                {
                    "name": "A#2",
                    "midi": 46,
                    "time": 360.00004499999267,
                    "velocity": 0.6771653543307087,
                    "duration": 0.23880600000001095
                },
                {
                    "name": "D3",
                    "midi": 50,
                    "time": 360.2388509999927,
                    "velocity": 0.5039370078740157,
                    "duration": 0.23880600000001095
                },
                {
                    "name": "D4",
                    "midi": 62,
                    "time": 360.2388509999927,
                    "velocity": 0.5669291338582677,
                    "duration": 0.23880600000001095
                },
                {
                    "name": "D#3",
                    "midi": 51,
                    "time": 360.4776569999927,
                    "velocity": 0.5590551181102362,
                    "duration": 0.23880600000001095
                },
                {
                    "name": "D#4",
                    "midi": 63,
                    "time": 360.4776569999927,
                    "velocity": 0.6299212598425197,
                    "duration": 0.23880600000001095
                },
                {
                    "name": "D2",
                    "midi": 38,
                    "time": 360.7164629999927,
                    "velocity": 0.5275590551181102,
                    "duration": 0.23880600000001095
                },
                {
                    "name": "D3",
                    "midi": 50,
                    "time": 360.7164629999927,
                    "velocity": 0.5748031496062992,
                    "duration": 0.23880600000001095
                },
                {
                    "name": "D#2",
                    "midi": 39,
                    "time": 360.9552689999927,
                    "velocity": 0.5511811023622047,
                    "duration": 0.23880600000001095
                },
                {
                    "name": "D#3",
                    "midi": 51,
                    "time": 360.9552689999927,
                    "velocity": 0.6220472440944882,
                    "duration": 0.23880600000001095
                },
                {
                    "name": "A#1",
                    "midi": 34,
                    "time": 361.1940749999927,
                    "velocity": 0.5118110236220472,
                    "duration": 0.23880600000001095
                },
                {
                    "name": "A#2",
                    "midi": 46,
                    "time": 361.1940749999927,
                    "velocity": 0.5669291338582677,
                    "duration": 0.23880600000001095
                },
                {
                    "name": "B2",
                    "midi": 47,
                    "time": 361.43288099999273,
                    "velocity": 0.4881889763779528,
                    "duration": 0.358208999999988
                },
                {
                    "name": "D#3",
                    "midi": 51,
                    "time": 361.43288099999273,
                    "velocity": 0.5275590551181102,
                    "duration": 0.358208999999988
                },
                {
                    "name": "F#3",
                    "midi": 54,
                    "time": 361.43288099999273,
                    "velocity": 0.5275590551181102,
                    "duration": 0.358208999999988
                },
                {
                    "name": "F#2",
                    "midi": 42,
                    "time": 361.7910899999927,
                    "velocity": 0.4251968503937008,
                    "duration": 0.358208999999988
                },
                {
                    "name": "C#3",
                    "midi": 49,
                    "time": 361.7910899999927,
                    "velocity": 0.4251968503937008,
                    "duration": 0.358208999999988
                },
                {
                    "name": "F#3",
                    "midi": 54,
                    "time": 361.7910899999927,
                    "velocity": 0.49606299212598426,
                    "duration": 0.358208999999988
                },
                {
                    "name": "A#1",
                    "midi": 34,
                    "time": 362.1492989999927,
                    "velocity": 0.5984251968503937,
                    "duration": 0.23880600000001095
                },
                {
                    "name": "A#2",
                    "midi": 46,
                    "time": 362.1492989999927,
                    "velocity": 0.6771653543307087,
                    "duration": 0.23880600000001095
                },
                {
                    "name": "D3",
                    "midi": 50,
                    "time": 362.3881049999927,
                    "velocity": 0.5039370078740157,
                    "duration": 0.23880600000001095
                },
                {
                    "name": "D4",
                    "midi": 62,
                    "time": 362.3881049999927,
                    "velocity": 0.5669291338582677,
                    "duration": 0.23880600000001095
                },
                {
                    "name": "D#3",
                    "midi": 51,
                    "time": 362.62691099999273,
                    "velocity": 0.5590551181102362,
                    "duration": 0.23880600000001095
                },
                {
                    "name": "D#4",
                    "midi": 63,
                    "time": 362.62691099999273,
                    "velocity": 0.6299212598425197,
                    "duration": 0.23880600000001095
                },
                {
                    "name": "D2",
                    "midi": 38,
                    "time": 362.86571699999274,
                    "velocity": 0.5275590551181102,
                    "duration": 0.23880600000001095
                },
                {
                    "name": "D3",
                    "midi": 50,
                    "time": 362.86571699999274,
                    "velocity": 0.5748031496062992,
                    "duration": 0.23880600000001095
                },
                {
                    "name": "D#2",
                    "midi": 39,
                    "time": 363.10452299999275,
                    "velocity": 0.5511811023622047,
                    "duration": 0.23880600000001095
                },
                {
                    "name": "D#3",
                    "midi": 51,
                    "time": 363.10452299999275,
                    "velocity": 0.6220472440944882,
                    "duration": 0.23880600000001095
                },
                {
                    "name": "A#1",
                    "midi": 34,
                    "time": 363.34332899999276,
                    "velocity": 0.5118110236220472,
                    "duration": 0.23880600000001095
                },
                {
                    "name": "A#2",
                    "midi": 46,
                    "time": 363.34332899999276,
                    "velocity": 0.5669291338582677,
                    "duration": 0.23880600000001095
                },
                {
                    "name": "C3",
                    "midi": 48,
                    "time": 363.5821349999928,
                    "velocity": 0.4881889763779528,
                    "duration": 0.358208999999988
                },
                {
                    "name": "D#3",
                    "midi": 51,
                    "time": 363.5821349999928,
                    "velocity": 0.5275590551181102,
                    "duration": 0.358208999999988
                },
                {
                    "name": "G3",
                    "midi": 55,
                    "time": 363.5821349999928,
                    "velocity": 0.5275590551181102,
                    "duration": 0.358208999999988
                },
                {
                    "name": "A#2",
                    "midi": 46,
                    "time": 363.94034399999276,
                    "velocity": 0.4251968503937008,
                    "duration": 0.358208999999988
                },
                {
                    "name": "F3",
                    "midi": 53,
                    "time": 363.94034399999276,
                    "velocity": 0.49606299212598426,
                    "duration": 0.358208999999988
                },
                {
                    "name": "A#3",
                    "midi": 58,
                    "time": 363.94034399999276,
                    "velocity": 0.49606299212598426,
                    "duration": 0.358208999999988
                },
                {
                    "name": "D#1",
                    "midi": 27,
                    "time": 364.29855299999275,
                    "velocity": 0.7007874015748031,
                    "duration": 1.3432837500000119
                },
                {
                    "name": "D#2",
                    "midi": 39,
                    "time": 364.29855299999275,
                    "velocity": 0.7244094488188977,
                    "duration": 1.3432837500000119
                },
                {
                    "name": "G2",
                    "midi": 43,
                    "time": 364.38810524999275,
                    "velocity": 0.5196850393700787,
                    "duration": 1.2537315000000149
                },
                {
                    "name": "A#2",
                    "midi": 46,
                    "time": 364.38810524999275,
                    "velocity": 0.5196850393700787,
                    "duration": 1.2537315000000149
                },
                {
                    "name": "D#3",
                    "midi": 51,
                    "time": 364.38810524999275,
                    "velocity": 0.6299212598425197,
                    "duration": 1.2537315000000149
                },
                {
                    "name": "G3",
                    "midi": 55,
                    "time": 364.38810524999275,
                    "velocity": 0.6299212598425197,
                    "duration": 1.2537315000000149
                },
                {
                    "name": "D#1",
                    "midi": 27,
                    "time": 365.64183674999276,
                    "velocity": 0.6299212598425197,
                    "duration": 1.4328360000000089
                },
                {
                    "name": "D#2",
                    "midi": 39,
                    "time": 365.64183674999276,
                    "velocity": 0.7165354330708661,
                    "duration": 1.4328360000000089
                },
                {
                    "name": "F2",
                    "midi": 41,
                    "time": 365.73138899999276,
                    "velocity": 0.49606299212598426,
                    "duration": 1.3432837500000119
                },
                {
                    "name": "A#2",
                    "midi": 46,
                    "time": 365.73138899999276,
                    "velocity": 0.49606299212598426,
                    "duration": 1.3432837500000119
                },
                {
                    "name": "D3",
                    "midi": 50,
                    "time": 365.73138899999276,
                    "velocity": 0.49606299212598426,
                    "duration": 1.3432837500000119
                },
                {
                    "name": "F3",
                    "midi": 53,
                    "time": 365.73138899999276,
                    "velocity": 0.5905511811023622,
                    "duration": 1.3432837500000119
                },
                {
                    "name": "D#2",
                    "midi": 39,
                    "time": 367.07467274999277,
                    "velocity": 0.7086614173228346,
                    "duration": 1.5223882500000059
                },
                {
                    "name": "D#1",
                    "midi": 27,
                    "time": 367.07467274999277,
                    "velocity": 0.7007874015748031,
                    "duration": 1.5223882500000059
                },
                {
                    "name": "G2",
                    "midi": 43,
                    "time": 367.16422499999277,
                    "velocity": 0.5196850393700787,
                    "duration": 1.4328360000000089
                },
                {
                    "name": "A#2",
                    "midi": 46,
                    "time": 367.16422499999277,
                    "velocity": 0.6299212598425197,
                    "duration": 1.4328360000000089
                },
                {
                    "name": "D#3",
                    "midi": 51,
                    "time": 367.16422499999277,
                    "velocity": 0.6299212598425197,
                    "duration": 1.4328360000000089
                },
                {
                    "name": "C2",
                    "midi": 36,
                    "time": 368.5970609999928,
                    "velocity": 0.49606299212598426,
                    "duration": 0.716417999999976
                },
                {
                    "name": "D#2",
                    "midi": 39,
                    "time": 368.5970609999928,
                    "velocity": 0.49606299212598426,
                    "duration": 0.716417999999976
                },
                {
                    "name": "G2",
                    "midi": 43,
                    "time": 368.5970609999928,
                    "velocity": 0.5905511811023622,
                    "duration": 0.716417999999976
                },
                {
                    "name": "C3",
                    "midi": 48,
                    "time": 368.5970609999928,
                    "velocity": 0.5905511811023622,
                    "duration": 0.716417999999976
                },
                {
                    "name": "D#2",
                    "midi": 39,
                    "time": 369.31347899999275,
                    "velocity": 0.48031496062992124,
                    "duration": 0.716417999999976
                },
                {
                    "name": "G2",
                    "midi": 43,
                    "time": 369.31347899999275,
                    "velocity": 0.48031496062992124,
                    "duration": 0.716417999999976
                },
                {
                    "name": "C3",
                    "midi": 48,
                    "time": 369.31347899999275,
                    "velocity": 0.5511811023622047,
                    "duration": 0.716417999999976
                },
                {
                    "name": "D#3",
                    "midi": 51,
                    "time": 369.31347899999275,
                    "velocity": 0.5511811023622047,
                    "duration": 0.716417999999976
                },
                {
                    "name": "D2",
                    "midi": 38,
                    "time": 370.02989699999273,
                    "velocity": 0.48031496062992124,
                    "duration": 1.4328360000000089
                },
                {
                    "name": "F2",
                    "midi": 41,
                    "time": 370.02989699999273,
                    "velocity": 0.48031496062992124,
                    "duration": 1.4328360000000089
                },
                {
                    "name": "A#2",
                    "midi": 46,
                    "time": 370.02989699999273,
                    "velocity": 0.5511811023622047,
                    "duration": 1.4328360000000089
                },
                {
                    "name": "D3",
                    "midi": 50,
                    "time": 370.02989699999273,
                    "velocity": 0.5511811023622047,
                    "duration": 1.4328360000000089
                },
                {
                    "name": "A#1",
                    "midi": 34,
                    "time": 371.46273299999274,
                    "velocity": 0.6299212598425197,
                    "duration": 1.3432837500000119
                },
                {
                    "name": "A#2",
                    "midi": 46,
                    "time": 371.46273299999274,
                    "velocity": 0.6299212598425197,
                    "duration": 1.3432837500000119
                },
                {
                    "name": "F3",
                    "midi": 53,
                    "time": 372.80601674999275,
                    "velocity": 0.6456692913385826,
                    "duration": 0.089552249999997
                },
                {
                    "name": "G#3",
                    "midi": 56,
                    "time": 372.80601674999275,
                    "velocity": 0.6456692913385826,
                    "duration": 0.089552249999997
                },
                {
                    "name": "F1",
                    "midi": 29,
                    "time": 372.89556899999275,
                    "velocity": 0.6062992125984252,
                    "duration": 1.3432837500000119
                },
                {
                    "name": "F2",
                    "midi": 41,
                    "time": 372.89556899999275,
                    "velocity": 0.6062992125984252,
                    "duration": 1.3432837500000119
                },
                {
                    "name": "G3",
                    "midi": 55,
                    "time": 374.23885274999276,
                    "velocity": 0.5748031496062992,
                    "duration": 0.089552249999997
                },
                {
                    "name": "A#3",
                    "midi": 58,
                    "time": 374.23885274999276,
                    "velocity": 0.5748031496062992,
                    "duration": 0.089552249999997
                },
                {
                    "name": "G1",
                    "midi": 31,
                    "time": 374.32840499999276,
                    "velocity": 0.6062992125984252,
                    "duration": 1.3432837500000119
                },
                {
                    "name": "G2",
                    "midi": 43,
                    "time": 374.32840499999276,
                    "velocity": 0.6062992125984252,
                    "duration": 1.3432837500000119
                },
                {
                    "name": "D#3",
                    "midi": 51,
                    "time": 375.67168874999277,
                    "velocity": 0.5748031496062992,
                    "duration": 0.089552249999997
                },
                {
                    "name": "A#3",
                    "midi": 58,
                    "time": 375.67168874999277,
                    "velocity": 0.5748031496062992,
                    "duration": 0.089552249999997
                },
                {
                    "name": "D#1",
                    "midi": 27,
                    "time": 375.76124099999276,
                    "velocity": 0.6062992125984252,
                    "duration": 0.716417999999976
                },
                {
                    "name": "D#2",
                    "midi": 39,
                    "time": 375.76124099999276,
                    "velocity": 0.6771653543307087,
                    "duration": 0.716417999999976
                },
                {
                    "name": "G3",
                    "midi": 55,
                    "time": 376.47765899999274,
                    "velocity": 0.5275590551181102,
                    "duration": 0.716417999999976
                },
                {
                    "name": "A#3",
                    "midi": 58,
                    "time": 376.47765899999274,
                    "velocity": 0.5275590551181102,
                    "duration": 0.716417999999976
                },
                {
                    "name": "D#1",
                    "midi": 27,
                    "time": 377.1940769999927,
                    "velocity": 0.6062992125984252,
                    "duration": 0.716417999999976
                },
                {
                    "name": "D#2",
                    "midi": 39,
                    "time": 377.1940769999927,
                    "velocity": 0.6771653543307087,
                    "duration": 0.716417999999976
                },
                {
                    "name": "G3",
                    "midi": 55,
                    "time": 377.9104949999927,
                    "velocity": 0.5275590551181102,
                    "duration": 0.716417999999976
                },
                {
                    "name": "A#3",
                    "midi": 58,
                    "time": 377.9104949999927,
                    "velocity": 0.5275590551181102,
                    "duration": 0.716417999999976
                },
                {
                    "name": "D#1",
                    "midi": 27,
                    "time": 378.62691299999267,
                    "velocity": 0.5511811023622047,
                    "duration": 0.089552249999997
                },
                {
                    "name": "D#2",
                    "midi": 39,
                    "time": 378.71646524999267,
                    "velocity": 0.4881889763779528,
                    "duration": 0.089552249999997
                },
                {
                    "name": "D#1",
                    "midi": 27,
                    "time": 378.80601749999266,
                    "velocity": 0.5511811023622047,
                    "duration": 0.089552249999997
                },
                {
                    "name": "D#2",
                    "midi": 39,
                    "time": 378.89556974999266,
                    "velocity": 0.4645669291338583,
                    "duration": 0.089552249999997
                },
                {
                    "name": "D#1",
                    "midi": 27,
                    "time": 378.98512199999266,
                    "velocity": 0.5511811023622047,
                    "duration": 0.089552249999997
                },
                {
                    "name": "D#2",
                    "midi": 39,
                    "time": 379.07467424999265,
                    "velocity": 0.49606299212598426,
                    "duration": 0.089552249999997
                },
                {
                    "name": "D#1",
                    "midi": 27,
                    "time": 379.16422649999265,
                    "velocity": 0.5590551181102362,
                    "duration": 0.089552249999997
                },
                {
                    "name": "D#2",
                    "midi": 39,
                    "time": 379.25377874999265,
                    "velocity": 0.4881889763779528,
                    "duration": 0.089552249999997
                },
                {
                    "name": "D#1",
                    "midi": 27,
                    "time": 379.34333099999265,
                    "velocity": 0.5511811023622047,
                    "duration": 0.089552249999997
                },
                {
                    "name": "D#2",
                    "midi": 39,
                    "time": 379.43288324999264,
                    "velocity": 0.4881889763779528,
                    "duration": 0.089552249999997
                },
                {
                    "name": "D#1",
                    "midi": 27,
                    "time": 379.52243549999264,
                    "velocity": 0.5590551181102362,
                    "duration": 0.089552249999997
                },
                {
                    "name": "D#2",
                    "midi": 39,
                    "time": 379.61198774999264,
                    "velocity": 0.5039370078740157,
                    "duration": 0.089552249999997
                },
                {
                    "name": "D#1",
                    "midi": 27,
                    "time": 379.70153999999263,
                    "velocity": 0.5748031496062992,
                    "duration": 0.089552249999997
                },
                {
                    "name": "D#2",
                    "midi": 39,
                    "time": 379.79109224999263,
                    "velocity": 0.5118110236220472,
                    "duration": 0.089552249999997
                },
                {
                    "name": "D#1",
                    "midi": 27,
                    "time": 379.8806444999926,
                    "velocity": 0.5984251968503937,
                    "duration": 0.089552249999997
                },
                {
                    "name": "D#2",
                    "midi": 39,
                    "time": 379.9701967499926,
                    "velocity": 0.5196850393700787,
                    "duration": 0.089552249999997
                },
                {
                    "name": "D#1",
                    "midi": 27,
                    "time": 380.0597489999926,
                    "velocity": 0.6220472440944882,
                    "duration": 0.089552249999997
                },
                {
                    "name": "D#2",
                    "midi": 39,
                    "time": 380.1493012499926,
                    "velocity": 0.5511811023622047,
                    "duration": 0.089552249999997
                },
                {
                    "name": "D#1",
                    "midi": 27,
                    "time": 380.2388534999926,
                    "velocity": 0.6377952755905512,
                    "duration": 0.089552249999997
                },
                {
                    "name": "D#2",
                    "midi": 39,
                    "time": 380.3284057499926,
                    "velocity": 0.5669291338582677,
                    "duration": 0.089552249999997
                },
                {
                    "name": "D#1",
                    "midi": 27,
                    "time": 380.4179579999926,
                    "velocity": 0.6535433070866141,
                    "duration": 0.089552249999997
                },
                {
                    "name": "D#2",
                    "midi": 39,
                    "time": 380.5075102499926,
                    "velocity": 0.6062992125984252,
                    "duration": 0.089552249999997
                },
                {
                    "name": "D#1",
                    "midi": 27,
                    "time": 380.5970624999926,
                    "velocity": 0.6771653543307087,
                    "duration": 0.089552249999997
                },
                {
                    "name": "D#2",
                    "midi": 39,
                    "time": 380.6866147499926,
                    "velocity": 0.6299212598425197,
                    "duration": 0.089552249999997
                },
                {
                    "name": "D#1",
                    "midi": 27,
                    "time": 380.7761669999926,
                    "velocity": 0.6929133858267716,
                    "duration": 0.089552249999997
                },
                {
                    "name": "D#2",
                    "midi": 39,
                    "time": 380.8657192499926,
                    "velocity": 0.6299212598425197,
                    "duration": 0.089552249999997
                },
                {
                    "name": "D#1",
                    "midi": 27,
                    "time": 380.9552714999926,
                    "velocity": 0.7165354330708661,
                    "duration": 0.089552249999997
                },
                {
                    "name": "D#2",
                    "midi": 39,
                    "time": 381.0448237499926,
                    "velocity": 0.6614173228346457,
                    "duration": 0.089552249999997
                },
                {
                    "name": "D#1",
                    "midi": 27,
                    "time": 381.1343759999926,
                    "velocity": 0.7795275590551181,
                    "duration": 0.089552249999997
                },
                {
                    "name": "D#2",
                    "midi": 39,
                    "time": 381.2239282499926,
                    "velocity": 0.7007874015748031,
                    "duration": 0.089552249999997
                },
                {
                    "name": "D#1",
                    "midi": 27,
                    "time": 381.3134804999926,
                    "velocity": 0.8110236220472441,
                    "duration": 0.089552249999997
                },
                {
                    "name": "D#2",
                    "midi": 39,
                    "time": 381.4030327499926,
                    "velocity": 0.7244094488188977,
                    "duration": 0.089552249999997
                },
                {
                    "name": "D#1",
                    "midi": 27,
                    "time": 381.4925849999926,
                    "velocity": 0.7559055118110236,
                    "duration": 1.0746270000000209
                },
                {
                    "name": "D#2",
                    "midi": 39,
                    "time": 381.4925849999926,
                    "velocity": 0.8188976377952756,
                    "duration": 1.0746270000000209
                }
            ],
            "controlChanges": {
                "7": [
                    {
                        "number": 7,
                        "time": 0,
                        "value": 1
                    }
                ],
                "10": [
                    {
                        "number": 10,
                        "time": 0,
                        "value": 0.5039370078740157
                    }
                ],
                "91": [
                    {
                        "number": 91,
                        "time": 0,
                        "value": 1
                    }
                ]
            },
            "id": 2,
            "name": "Piano left",
            "instrumentNumber": 0,
            "instrument": "acoustic grand piano",
            "instrumentFamily": "piano",
            "channelNumber": 0,
            "isPercussion": false
        },
        {
            "startTime": 0,
            "duration": 0,
            "length": 0,
            "notes": [],
            "controlChanges": {
                "64": [
                    {
                        "number": 64,
                        "time": 0,
                        "value": 0
                    },
                    {
                        "number": 64,
                        "time": 22.985077500000006,
                        "value": 1
                    },
                    {
                        "number": 64,
                        "time": 23.288062612500006,
                        "value": 0
                    },
                    {
                        "number": 64,
                        "time": 23.369405906250005,
                        "value": 1
                    },
                    {
                        "number": 64,
                        "time": 23.648510418750007,
                        "value": 0
                    },
                    {
                        "number": 64,
                        "time": 23.691047737500007,
                        "value": 1
                    },
                    {
                        "number": 64,
                        "time": 24.00821195625001,
                        "value": 0
                    },
                    {
                        "number": 64,
                        "time": 24.04925673750001,
                        "value": 1
                    },
                    {
                        "number": 64,
                        "time": 24.364928418750008,
                        "value": 0
                    },
                    {
                        "number": 64,
                        "time": 24.452241862500006,
                        "value": 1
                    },
                    {
                        "number": 64,
                        "time": 24.723883687500006,
                        "value": 0
                    },
                    {
                        "number": 64,
                        "time": 24.802241906250007,
                        "value": 1
                    },
                    {
                        "number": 64,
                        "time": 25.085824031250006,
                        "value": 0
                    },
                    {
                        "number": 64,
                        "time": 25.168659862500007,
                        "value": 1
                    },
                    {
                        "number": 64,
                        "time": 25.444779300000008,
                        "value": 0
                    },
                    {
                        "number": 64,
                        "time": 25.50149572500001,
                        "value": 1
                    },
                    {
                        "number": 64,
                        "time": 25.800003225000008,
                        "value": 0
                    },
                    {
                        "number": 64,
                        "time": 25.86791368125001,
                        "value": 1
                    },
                    {
                        "number": 64,
                        "time": 26.15821222500001,
                        "value": 0
                    },
                    {
                        "number": 64,
                        "time": 26.23507790625001,
                        "value": 1
                    },
                    {
                        "number": 64,
                        "time": 26.51418241875001,
                        "value": 0
                    },
                    {
                        "number": 64,
                        "time": 26.55522720000001,
                        "value": 1
                    },
                    {
                        "number": 64,
                        "time": 26.87612276250001,
                        "value": 0
                    },
                    {
                        "number": 64,
                        "time": 26.91045112500001,
                        "value": 1
                    },
                    {
                        "number": 64,
                        "time": 27.23283922500001,
                        "value": 0
                    },
                    {
                        "number": 64,
                        "time": 27.29254072500001,
                        "value": 1
                    },
                    {
                        "number": 64,
                        "time": 27.59328703125001,
                        "value": 0
                    },
                    {
                        "number": 64,
                        "time": 27.676122862500012,
                        "value": 1
                    },
                    {
                        "number": 64,
                        "time": 27.947018418750012,
                        "value": 0
                    },
                    {
                        "number": 64,
                        "time": 28.008958725000014,
                        "value": 1
                    },
                    {
                        "number": 64,
                        "time": 28.307466225000013,
                        "value": 0
                    },
                    {
                        "number": 64,
                        "time": 28.375376681250014,
                        "value": 1
                    },
                    {
                        "number": 64,
                        "time": 28.669406568750013,
                        "value": 0
                    },
                    {
                        "number": 64,
                        "time": 28.72463045625001,
                        "value": 1
                    },
                    {
                        "number": 64,
                        "time": 29.020899150000012,
                        "value": 0
                    },
                    {
                        "number": 64,
                        "time": 29.078361843750013,
                        "value": 1
                    },
                    {
                        "number": 64,
                        "time": 30.098511225000014,
                        "value": 0
                    },
                    {
                        "number": 64,
                        "time": 30.191794818750015,
                        "value": 1
                    },
                    {
                        "number": 64,
                        "time": 30.456720225000016,
                        "value": 0
                    },
                    {
                        "number": 64,
                        "time": 30.541794862500016,
                        "value": 1
                    },
                    {
                        "number": 64,
                        "time": 30.816421762500017,
                        "value": 0
                    },
                    {
                        "number": 64,
                        "time": 30.900003862500018,
                        "value": 1
                    },
                    {
                        "number": 64,
                        "time": 31.171645687500018,
                        "value": 0
                    },
                    {
                        "number": 64,
                        "time": 31.258212862500017,
                        "value": 1
                    },
                    {
                        "number": 64,
                        "time": 31.529854687500016,
                        "value": 0
                    },
                    {
                        "number": 64,
                        "time": 31.589556187500015,
                        "value": 1
                    },
                    {
                        "number": 64,
                        "time": 31.890302493750017,
                        "value": 0
                    },
                    {
                        "number": 64,
                        "time": 31.982093550000016,
                        "value": 1
                    },
                    {
                        "number": 64,
                        "time": 32.961198150000016,
                        "value": 0
                    },
                    {
                        "number": 64,
                        "time": 33.04925786250001,
                        "value": 1
                    },
                    {
                        "number": 64,
                        "time": 33.323138493750015,
                        "value": 0
                    },
                    {
                        "number": 64,
                        "time": 33.41567581875002,
                        "value": 1
                    },
                    {
                        "number": 64,
                        "time": 33.683586300000016,
                        "value": 0
                    },
                    {
                        "number": 64,
                        "time": 33.748511681250015,
                        "value": 1
                    },
                    {
                        "number": 64,
                        "time": 34.03881022500001,
                        "value": 0
                    },
                    {
                        "number": 64,
                        "time": 34.098511725000016,
                        "value": 1
                    },
                    {
                        "number": 64,
                        "time": 34.395526687500016,
                        "value": 0
                    },
                    {
                        "number": 64,
                        "time": 34.462690875000014,
                        "value": 1
                    },
                    {
                        "number": 64,
                        "time": 34.757467031250016,
                        "value": 0
                    },
                    {
                        "number": 64,
                        "time": 34.876123762500015,
                        "value": 1
                    },
                    {
                        "number": 64,
                        "time": 35.82761641875001,
                        "value": 0
                    },
                    {
                        "number": 64,
                        "time": 35.90522836875001,
                        "value": 1
                    },
                    {
                        "number": 64,
                        "time": 36.186571687500006,
                        "value": 0
                    },
                    {
                        "number": 64,
                        "time": 36.252989606250004,
                        "value": 1
                    },
                    {
                        "number": 64,
                        "time": 36.551497106250004,
                        "value": 0
                    },
                    {
                        "number": 64,
                        "time": 36.65373592500001,
                        "value": 1
                    },
                    {
                        "number": 64,
                        "time": 36.90821356875001,
                        "value": 0
                    },
                    {
                        "number": 64,
                        "time": 37.00075089375001,
                        "value": 1
                    },
                    {
                        "number": 64,
                        "time": 37.26194495625001,
                        "value": 0
                    },
                    {
                        "number": 64,
                        "time": 37.334333025000014,
                        "value": 1
                    },
                    {
                        "number": 64,
                        "time": 37.619407687500015,
                        "value": 0
                    },
                    {
                        "number": 64,
                        "time": 37.72313904375002,
                        "value": 1
                    },
                    {
                        "number": 64,
                        "time": 38.693288418750015,
                        "value": 0
                    },
                    {
                        "number": 64,
                        "time": 38.78134813125001,
                        "value": 1
                    },
                    {
                        "number": 64,
                        "time": 39.05149741875001,
                        "value": 0
                    },
                    {
                        "number": 64,
                        "time": 39.16119892500001,
                        "value": 1
                    },
                    {
                        "number": 64,
                        "time": 39.41119895625001,
                        "value": 0
                    },
                    {
                        "number": 64,
                        "time": 39.49776613125001,
                        "value": 1
                    },
                    {
                        "number": 64,
                        "time": 39.77388556875001,
                        "value": 0
                    },
                    {
                        "number": 64,
                        "time": 39.87761692500001,
                        "value": 1
                    },
                    {
                        "number": 64,
                        "time": 40.13284083750001,
                        "value": 0
                    },
                    {
                        "number": 64,
                        "time": 40.54104984375001,
                        "value": 1
                    },
                    {
                        "number": 64,
                        "time": 40.84627376250001,
                        "value": 0
                    },
                    {
                        "number": 64,
                        "time": 40.92985586250001,
                        "value": 1
                    },
                    {
                        "number": 64,
                        "time": 41.20522903125001,
                        "value": 0
                    },
                    {
                        "number": 64,
                        "time": 41.27985590625001,
                        "value": 1
                    },
                    {
                        "number": 64,
                        "time": 41.564184300000015,
                        "value": 0
                    },
                    {
                        "number": 64,
                        "time": 41.64627386250002,
                        "value": 1
                    },
                    {
                        "number": 64,
                        "time": 41.92313956875002,
                        "value": 0
                    },
                    {
                        "number": 64,
                        "time": 42.04702018125002,
                        "value": 1
                    },
                    {
                        "number": 64,
                        "time": 42.27910976250002,
                        "value": 0
                    },
                    {
                        "number": 64,
                        "time": 42.98508000000002,
                        "value": 1
                    },
                    {
                        "number": 64,
                        "time": 43.35373676250002,
                        "value": 0
                    },
                    {
                        "number": 64,
                        "time": 43.42761736875002,
                        "value": 1
                    },
                    {
                        "number": 64,
                        "time": 43.71045322500002,
                        "value": 0
                    },
                    {
                        "number": 64,
                        "time": 43.79552786250002,
                        "value": 1
                    },
                    {
                        "number": 64,
                        "time": 44.07313983750002,
                        "value": 0
                    },
                    {
                        "number": 64,
                        "time": 44.153736862500025,
                        "value": 1
                    },
                    {
                        "number": 64,
                        "time": 44.42687122500003,
                        "value": 0
                    },
                    {
                        "number": 64,
                        "time": 44.494781681250025,
                        "value": 1
                    },
                    {
                        "number": 64,
                        "time": 44.78508022500002,
                        "value": 0
                    },
                    {
                        "number": 64,
                        "time": 44.85299068125002,
                        "value": 1
                    },
                    {
                        "number": 64,
                        "time": 45.14627430000002,
                        "value": 0
                    },
                    {
                        "number": 64,
                        "time": 45.85075200000002,
                        "value": 1
                    },
                    {
                        "number": 64,
                        "time": 46.21567741875002,
                        "value": 0
                    },
                    {
                        "number": 64,
                        "time": 46.32537892500002,
                        "value": 1
                    },
                    {
                        "number": 64,
                        "time": 46.573886418750014,
                        "value": 0
                    },
                    {
                        "number": 64,
                        "time": 46.69552822500001,
                        "value": 1
                    },
                    {
                        "number": 64,
                        "time": 46.93731930000001,
                        "value": 0
                    },
                    {
                        "number": 64,
                        "time": 47.00224468125001,
                        "value": 1
                    },
                    {
                        "number": 64,
                        "time": 47.29105068750001,
                        "value": 0
                    },
                    {
                        "number": 64,
                        "time": 47.37836413125001,
                        "value": 1
                    },
                    {
                        "number": 64,
                        "time": 47.65448356875001,
                        "value": 0
                    },
                    {
                        "number": 64,
                        "time": 47.74702089375001,
                        "value": 1
                    },
                    {
                        "number": 64,
                        "time": 48.008214956250015,
                        "value": 0
                    },
                    {
                        "number": 64,
                        "time": 48.08582690625001,
                        "value": 1
                    },
                    {
                        "number": 64,
                        "time": 48.370155300000015,
                        "value": 0
                    },
                    {
                        "number": 64,
                        "time": 48.45224486250002,
                        "value": 1
                    },
                    {
                        "number": 64,
                        "time": 48.72687176250002,
                        "value": 0
                    },
                    {
                        "number": 64,
                        "time": 48.79030460625002,
                        "value": 1
                    },
                    {
                        "number": 64,
                        "time": 49.08508076250002,
                        "value": 0
                    },
                    {
                        "number": 64,
                        "time": 49.15896136875002,
                        "value": 1
                    },
                    {
                        "number": 64,
                        "time": 49.43955841875002,
                        "value": 0
                    },
                    {
                        "number": 64,
                        "time": 49.518662906250015,
                        "value": 1
                    },
                    {
                        "number": 64,
                        "time": 49.80000622500001,
                        "value": 0
                    },
                    {
                        "number": 64,
                        "time": 49.86791668125001,
                        "value": 1
                    },
                    {
                        "number": 64,
                        "time": 50.16343910625001,
                        "value": 0
                    },
                    {
                        "number": 64,
                        "time": 50.24403613125001,
                        "value": 1
                    },
                    {
                        "number": 64,
                        "time": 50.518663031250014,
                        "value": 0
                    },
                    {
                        "number": 64,
                        "time": 50.602245131250015,
                        "value": 1
                    },
                    {
                        "number": 64,
                        "time": 50.87463322500002,
                        "value": 0
                    },
                    {
                        "number": 64,
                        "time": 50.93433472500002,
                        "value": 1
                    },
                    {
                        "number": 64,
                        "time": 51.23209595625002,
                        "value": 0
                    },
                    {
                        "number": 64,
                        "time": 51.30075268125002,
                        "value": 1
                    },
                    {
                        "number": 64,
                        "time": 51.592543762500014,
                        "value": 0
                    },
                    {
                        "number": 64,
                        "time": 51.687319893750015,
                        "value": 1
                    },
                    {
                        "number": 64,
                        "time": 51.952991568750015,
                        "value": 0
                    },
                    {
                        "number": 64,
                        "time": 52.37537968125002,
                        "value": 1
                    },
                    {
                        "number": 64,
                        "time": 52.67164837500002,
                        "value": 0
                    },
                    {
                        "number": 64,
                        "time": 53.04030513750002,
                        "value": 1
                    },
                    {
                        "number": 64,
                        "time": 53.20075291875002,
                        "value": 0
                    },
                    {
                        "number": 64,
                        "time": 53.24105143125002,
                        "value": 1
                    },
                    {
                        "number": 64,
                        "time": 53.37761861250002,
                        "value": 0
                    },
                    {
                        "number": 64,
                        "time": 53.42463354375002,
                        "value": 1
                    },
                    {
                        "number": 64,
                        "time": 53.55896191875002,
                        "value": 0
                    },
                    {
                        "number": 64,
                        "time": 53.59105147500002,
                        "value": 1
                    },
                    {
                        "number": 64,
                        "time": 53.73135000000002,
                        "value": 0
                    },
                    {
                        "number": 64,
                        "time": 53.77836493125002,
                        "value": 1
                    },
                    {
                        "number": 64,
                        "time": 53.918663456250016,
                        "value": 0
                    },
                    {
                        "number": 64,
                        "time": 53.97911122500002,
                        "value": 1
                    },
                    {
                        "number": 64,
                        "time": 54.09403661250002,
                        "value": 0
                    },
                    {
                        "number": 64,
                        "time": 54.14552915625002,
                        "value": 1
                    },
                    {
                        "number": 64,
                        "time": 54.27836499375002,
                        "value": 0
                    },
                    {
                        "number": 64,
                        "time": 54.32836500000002,
                        "value": 1
                    },
                    {
                        "number": 64,
                        "time": 54.45075307500002,
                        "value": 0
                    },
                    {
                        "number": 64,
                        "time": 54.51642472500002,
                        "value": 1
                    },
                    {
                        "number": 64,
                        "time": 54.63135011250002,
                        "value": 0
                    },
                    {
                        "number": 64,
                        "time": 54.68657400000002,
                        "value": 1
                    },
                    {
                        "number": 64,
                        "time": 54.81120088125002,
                        "value": 0
                    },
                    {
                        "number": 64,
                        "time": 54.86567850000002,
                        "value": 1
                    },
                    {
                        "number": 64,
                        "time": 54.99254418750002,
                        "value": 0
                    },
                    {
                        "number": 64,
                        "time": 55.05746956875002,
                        "value": 1
                    },
                    {
                        "number": 64,
                        "time": 55.171648687500024,
                        "value": 0
                    },
                    {
                        "number": 64,
                        "time": 55.21567854375002,
                        "value": 1
                    },
                    {
                        "number": 64,
                        "time": 55.35373826250002,
                        "value": 0
                    },
                    {
                        "number": 64,
                        "time": 55.41194722500002,
                        "value": 1
                    },
                    {
                        "number": 64,
                        "time": 55.53508156875002,
                        "value": 0
                    },
                    {
                        "number": 64,
                        "time": 55.594783068750026,
                        "value": 1
                    },
                    {
                        "number": 64,
                        "time": 55.70970845625003,
                        "value": 0
                    },
                    {
                        "number": 64,
                        "time": 55.77015622500003,
                        "value": 1
                    },
                    {
                        "number": 64,
                        "time": 55.88508161250003,
                        "value": 0
                    },
                    {
                        "number": 64,
                        "time": 55.96194729375003,
                        "value": 1
                    },
                    {
                        "number": 64,
                        "time": 56.06940999375003,
                        "value": 0
                    },
                    {
                        "number": 64,
                        "time": 56.13209656875003,
                        "value": 1
                    },
                    {
                        "number": 64,
                        "time": 56.243290612500026,
                        "value": 0
                    },
                    {
                        "number": 64,
                        "time": 56.28135031875003,
                        "value": 1
                    },
                    {
                        "number": 64,
                        "time": 56.42612645625003,
                        "value": 0
                    },
                    {
                        "number": 64,
                        "time": 56.47388765625003,
                        "value": 1
                    },
                    {
                        "number": 64,
                        "time": 56.60075334375003,
                        "value": 0
                    },
                    {
                        "number": 64,
                        "time": 56.66120111250003,
                        "value": 1
                    },
                    {
                        "number": 64,
                        "time": 56.784335456250034,
                        "value": 0
                    },
                    {
                        "number": 64,
                        "time": 56.857469793750035,
                        "value": 1
                    },
                    {
                        "number": 64,
                        "time": 56.95970861250004,
                        "value": 0
                    },
                    {
                        "number": 64,
                        "time": 57.02388772500004,
                        "value": 1
                    },
                    {
                        "number": 64,
                        "time": 57.142544456250036,
                        "value": 0
                    },
                    {
                        "number": 64,
                        "time": 57.206723568750036,
                        "value": 1
                    },
                    {
                        "number": 64,
                        "time": 57.31642507500003,
                        "value": 0
                    },
                    {
                        "number": 64,
                        "time": 57.36493254375004,
                        "value": 1
                    },
                    {
                        "number": 64,
                        "time": 57.496275843750034,
                        "value": 0
                    },
                    {
                        "number": 64,
                        "time": 57.539559431250034,
                        "value": 1
                    },
                    {
                        "number": 64,
                        "time": 57.674634075000036,
                        "value": 0
                    },
                    {
                        "number": 64,
                        "time": 57.718663931250035,
                        "value": 1
                    },
                    {
                        "number": 64,
                        "time": 57.85896245625003,
                        "value": 0
                    },
                    {
                        "number": 64,
                        "time": 57.910455000000034,
                        "value": 1
                    },
                    {
                        "number": 64,
                        "time": 58.03284307500004,
                        "value": 0
                    },
                    {
                        "number": 64,
                        "time": 58.089559500000036,
                        "value": 1
                    },
                    {
                        "number": 64,
                        "time": 58.21493265000004,
                        "value": 0
                    },
                    {
                        "number": 64,
                        "time": 58.273141612500034,
                        "value": 1
                    },
                    {
                        "number": 64,
                        "time": 58.39254461250003,
                        "value": 0
                    },
                    {
                        "number": 64,
                        "time": 58.452246112500035,
                        "value": 1
                    },
                    {
                        "number": 64,
                        "time": 58.570902843750034,
                        "value": 0
                    },
                    {
                        "number": 64,
                        "time": 58.63582822500003,
                        "value": 1
                    },
                    {
                        "number": 64,
                        "time": 58.748514806250036,
                        "value": 0
                    },
                    {
                        "number": 64,
                        "time": 58.78508197500003,
                        "value": 1
                    },
                    {
                        "number": 64,
                        "time": 58.931350650000034,
                        "value": 0
                    },
                    {
                        "number": 64,
                        "time": 58.994037225000035,
                        "value": 1
                    },
                    {
                        "number": 64,
                        "time": 59.112693956250034,
                        "value": 0
                    },
                    {
                        "number": 64,
                        "time": 59.16866411250003,
                        "value": 1
                    },
                    {
                        "number": 64,
                        "time": 59.291798456250035,
                        "value": 0
                    },
                    {
                        "number": 64,
                        "time": 59.34776861250003,
                        "value": 1
                    },
                    {
                        "number": 64,
                        "time": 59.46717161250003,
                        "value": 0
                    },
                    {
                        "number": 64,
                        "time": 59.51866415625003,
                        "value": 1
                    },
                    {
                        "number": 64,
                        "time": 59.65000745625003,
                        "value": 0
                    },
                    {
                        "number": 64,
                        "time": 59.68881343125003,
                        "value": 1
                    },
                    {
                        "number": 64,
                        "time": 59.83209703125003,
                        "value": 0
                    },
                    {
                        "number": 64,
                        "time": 59.88060450000003,
                        "value": 1
                    },
                    {
                        "number": 64,
                        "time": 60.01045526250003,
                        "value": 0
                    },
                    {
                        "number": 64,
                        "time": 60.06866422500003,
                        "value": 1
                    },
                    {
                        "number": 64,
                        "time": 60.179112000000025,
                        "value": 0
                    },
                    {
                        "number": 64,
                        "time": 63.06493325625003,
                        "value": 1
                    },
                    {
                        "number": 64,
                        "time": 63.77538110625003,
                        "value": 0
                    },
                    {
                        "number": 64,
                        "time": 63.96045575625003,
                        "value": 1
                    },
                    {
                        "number": 64,
                        "time": 64.48508268750003,
                        "value": 0
                    },
                    {
                        "number": 64,
                        "time": 64.63732151250002,
                        "value": 1
                    },
                    {
                        "number": 64,
                        "time": 65.20075441875002,
                        "value": 0
                    },
                    {
                        "number": 64,
                        "time": 65.37314250000003,
                        "value": 1
                    },
                    {
                        "number": 64,
                        "time": 65.91791868750003,
                        "value": 0
                    },
                    {
                        "number": 64,
                        "time": 66.14926200000004,
                        "value": 1
                    },
                    {
                        "number": 64,
                        "time": 67.14403824375003,
                        "value": 0
                    },
                    {
                        "number": 64,
                        "time": 67.36194871875003,
                        "value": 1
                    },
                    {
                        "number": 64,
                        "time": 68.78284441875003,
                        "value": 0
                    },
                    {
                        "number": 64,
                        "time": 69.17911312500003,
                        "value": 1
                    },
                    {
                        "number": 64,
                        "time": 70.21568041875003,
                        "value": 0
                    },
                    {
                        "number": 64,
                        "time": 70.61194912500002,
                        "value": 1
                    },
                    {
                        "number": 64,
                        "time": 71.65000895625002,
                        "value": 0
                    },
                    {
                        "number": 64,
                        "time": 72.36866576250002,
                        "value": 1
                    },
                    {
                        "number": 64,
                        "time": 72.72239715000002,
                        "value": 0
                    },
                    {
                        "number": 64,
                        "time": 73.08508376250002,
                        "value": 1
                    },
                    {
                        "number": 64,
                        "time": 73.44329276250002,
                        "value": 0
                    },
                    {
                        "number": 64,
                        "time": 74.16642718125003,
                        "value": 1
                    },
                    {
                        "number": 64,
                        "time": 75.23060641875003,
                        "value": 0
                    },
                    {
                        "number": 64,
                        "time": 75.59926318125002,
                        "value": 1
                    },
                    {
                        "number": 64,
                        "time": 76.66418868750003,
                        "value": 0
                    },
                    {
                        "number": 64,
                        "time": 77.39702460000002,
                        "value": 1
                    },
                    {
                        "number": 64,
                        "time": 77.73806941875003,
                        "value": 0
                    },
                    {
                        "number": 64,
                        "time": 78.12389036250003,
                        "value": 1
                    },
                    {
                        "number": 64,
                        "time": 78.45971130000004,
                        "value": 0
                    },
                    {
                        "number": 64,
                        "time": 78.83583075000004,
                        "value": 1
                    },
                    {
                        "number": 64,
                        "time": 79.17239795625004,
                        "value": 0
                    },
                    {
                        "number": 64,
                        "time": 79.19851736250004,
                        "value": 1
                    },
                    {
                        "number": 64,
                        "time": 79.53433830000004,
                        "value": 0
                    },
                    {
                        "number": 64,
                        "time": 79.57389054375004,
                        "value": 1
                    },
                    {
                        "number": 64,
                        "time": 79.88806968750004,
                        "value": 0
                    },
                    {
                        "number": 64,
                        "time": 79.91717416875004,
                        "value": 1
                    },
                    {
                        "number": 64,
                        "time": 80.24478615000004,
                        "value": 0
                    },
                    {
                        "number": 64,
                        "time": 80.26493540625003,
                        "value": 1
                    },
                    {
                        "number": 64,
                        "time": 80.60672649375003,
                        "value": 0
                    },
                    {
                        "number": 64,
                        "time": 80.64403993125003,
                        "value": 1
                    },
                    {
                        "number": 64,
                        "time": 80.95971161250003,
                        "value": 0
                    },
                    {
                        "number": 64,
                        "time": 80.98732355625003,
                        "value": 1
                    },
                    {
                        "number": 64,
                        "time": 81.32090568750003,
                        "value": 0
                    },
                    {
                        "number": 64,
                        "time": 81.35001016875003,
                        "value": 1
                    },
                    {
                        "number": 64,
                        "time": 81.67165200000004,
                        "value": 0
                    },
                    {
                        "number": 64,
                        "time": 81.70598036250004,
                        "value": 1
                    },
                    {
                        "number": 64,
                        "time": 82.03956249375004,
                        "value": 0
                    },
                    {
                        "number": 64,
                        "time": 82.07463712500004,
                        "value": 1
                    },
                    {
                        "number": 64,
                        "time": 82.37762223750003,
                        "value": 0
                    },
                    {
                        "number": 64,
                        "time": 82.42015955625004,
                        "value": 1
                    },
                    {
                        "number": 64,
                        "time": 82.75299541875005,
                        "value": 0
                    },
                    {
                        "number": 64,
                        "time": 82.78881631875005,
                        "value": 1
                    },
                    {
                        "number": 64,
                        "time": 83.11344322500005,
                        "value": 0
                    },
                    {
                        "number": 64,
                        "time": 83.13881636250005,
                        "value": 1
                    },
                    {
                        "number": 64,
                        "time": 83.47911491250005,
                        "value": 0
                    },
                    {
                        "number": 64,
                        "time": 83.50747312500005,
                        "value": 1
                    },
                    {
                        "number": 64,
                        "time": 83.82911495625005,
                        "value": 0
                    },
                    {
                        "number": 64,
                        "time": 83.85523436250006,
                        "value": 1
                    },
                    {
                        "number": 64,
                        "time": 84.18657768750006,
                        "value": 0
                    },
                    {
                        "number": 64,
                        "time": 84.21120455625007,
                        "value": 1
                    },
                    {
                        "number": 64,
                        "time": 84.54777176250006,
                        "value": 0
                    },
                    {
                        "number": 64,
                        "time": 84.59254788750006,
                        "value": 1
                    },
                    {
                        "number": 64,
                        "time": 84.90672703125006,
                        "value": 0
                    },
                    {
                        "number": 64,
                        "time": 84.94030912500006,
                        "value": 1
                    },
                    {
                        "number": 64,
                        "time": 85.25896588125005,
                        "value": 0
                    },
                    {
                        "number": 64,
                        "time": 85.63881667500004,
                        "value": 1
                    },
                    {
                        "number": 64,
                        "time": 85.97836895625004,
                        "value": 0
                    },
                    {
                        "number": 64,
                        "time": 86.01269731875004,
                        "value": 1
                    },
                    {
                        "number": 64,
                        "time": 86.34030930000004,
                        "value": 0
                    },
                    {
                        "number": 64,
                        "time": 86.37090631875004,
                        "value": 1
                    },
                    {
                        "number": 64,
                        "time": 86.69404068750005,
                        "value": 0
                    },
                    {
                        "number": 64,
                        "time": 87.41866764375006,
                        "value": 1
                    },
                    {
                        "number": 64,
                        "time": 87.77016022500005,
                        "value": 0
                    },
                    {
                        "number": 64,
                        "time": 88.15374236250005,
                        "value": 1
                    },
                    {
                        "number": 64,
                        "time": 88.49030956875005,
                        "value": 0
                    },
                    {
                        "number": 64,
                        "time": 88.86568275000005,
                        "value": 1
                    },
                    {
                        "number": 64,
                        "time": 89.20224995625004,
                        "value": 0
                    },
                    {
                        "number": 64,
                        "time": 89.24329473750004,
                        "value": 1
                    },
                    {
                        "number": 64,
                        "time": 89.73583211250003,
                        "value": 0
                    },
                    {
                        "number": 64,
                        "time": 89.77016047500004,
                        "value": 1
                    },
                    {
                        "number": 64,
                        "time": 89.91941422500004,
                        "value": 0
                    },
                    {
                        "number": 64,
                        "time": 89.94030975000004,
                        "value": 1
                    },
                    {
                        "number": 64,
                        "time": 90.27314561250004,
                        "value": 0
                    },
                    {
                        "number": 64,
                        "time": 90.64627998750005,
                        "value": 1
                    },
                    {
                        "number": 64,
                        "time": 91.17538453125005,
                        "value": 0
                    },
                    {
                        "number": 64,
                        "time": 91.20075766875004,
                        "value": 1
                    },
                    {
                        "number": 64,
                        "time": 91.35225022500005,
                        "value": 0
                    },
                    {
                        "number": 64,
                        "time": 91.38433978125005,
                        "value": 1
                    },
                    {
                        "number": 64,
                        "time": 91.70822041875005,
                        "value": 0
                    },
                    {
                        "number": 64,
                        "time": 92.43359364375004,
                        "value": 1
                    },
                    {
                        "number": 64,
                        "time": 92.78284741875004,
                        "value": 0
                    },
                    {
                        "number": 64,
                        "time": 93.15822060000004,
                        "value": 1
                    },
                    {
                        "number": 64,
                        "time": 93.49926541875004,
                        "value": 0
                    },
                    {
                        "number": 64,
                        "time": 93.87239979375005,
                        "value": 1
                    },
                    {
                        "number": 64,
                        "time": 94.21717595625005,
                        "value": 0
                    },
                    {
                        "number": 64,
                        "time": 94.25374312500004,
                        "value": 1
                    },
                    {
                        "number": 64,
                        "time": 94.57389241875005,
                        "value": 0
                    },
                    {
                        "number": 64,
                        "time": 94.59926555625005,
                        "value": 1
                    },
                    {
                        "number": 64,
                        "time": 94.93732530000004,
                        "value": 0
                    },
                    {
                        "number": 64,
                        "time": 94.96419097500004,
                        "value": 1
                    },
                    {
                        "number": 64,
                        "time": 95.29404176250004,
                        "value": 0
                    },
                    {
                        "number": 64,
                        "time": 95.31568355625005,
                        "value": 1
                    },
                    {
                        "number": 64,
                        "time": 95.65075822500005,
                        "value": 0
                    },
                    {
                        "number": 64,
                        "time": 95.67165375000005,
                        "value": 1
                    },
                    {
                        "number": 64,
                        "time": 96.00896722500005,
                        "value": 0
                    },
                    {
                        "number": 64,
                        "time": 96.04105678125005,
                        "value": 1
                    },
                    {
                        "number": 64,
                        "time": 96.37240010625005,
                        "value": 0
                    },
                    {
                        "number": 64,
                        "time": 96.39702697500006,
                        "value": 1
                    },
                    {
                        "number": 64,
                        "time": 96.72389268750005,
                        "value": 0
                    },
                    {
                        "number": 64,
                        "time": 96.74628075000005,
                        "value": 1
                    },
                    {
                        "number": 64,
                        "time": 97.08508676250005,
                        "value": 0
                    },
                    {
                        "number": 64,
                        "time": 97.10896736250005,
                        "value": 1
                    },
                    {
                        "number": 64,
                        "time": 97.44553456875005,
                        "value": 0
                    },
                    {
                        "number": 64,
                        "time": 97.47986293125005,
                        "value": 1
                    },
                    {
                        "number": 64,
                        "time": 97.80225103125005,
                        "value": 0
                    },
                    {
                        "number": 64,
                        "time": 97.82762416875005,
                        "value": 1
                    },
                    {
                        "number": 64,
                        "time": 98.15822122500005,
                        "value": 0
                    },
                    {
                        "number": 64,
                        "time": 98.18359436250005,
                        "value": 1
                    },
                    {
                        "number": 64,
                        "time": 98.51643022500005,
                        "value": 0
                    },
                    {
                        "number": 64,
                        "time": 98.53508694375004,
                        "value": 1
                    },
                    {
                        "number": 64,
                        "time": 98.87240041875005,
                        "value": 0
                    },
                    {
                        "number": 64,
                        "time": 98.90225116875004,
                        "value": 1
                    },
                    {
                        "number": 64,
                        "time": 99.22837061250004,
                        "value": 0
                    },
                    {
                        "number": 64,
                        "time": 99.25598255625005,
                        "value": 1
                    },
                    {
                        "number": 64,
                        "time": 99.58881841875005,
                        "value": 0
                    },
                    {
                        "number": 64,
                        "time": 99.60971394375005,
                        "value": 1
                    },
                    {
                        "number": 64,
                        "time": 99.95001249375005,
                        "value": 0
                    },
                    {
                        "number": 64,
                        "time": 99.98135578125004,
                        "value": 1
                    },
                    {
                        "number": 64,
                        "time": 100.30523641875004,
                        "value": 0
                    },
                    {
                        "number": 64,
                        "time": 100.33508716875004,
                        "value": 1
                    },
                    {
                        "number": 64,
                        "time": 100.66568422500004,
                        "value": 0
                    },
                    {
                        "number": 64,
                        "time": 100.68881855625004,
                        "value": 1
                    },
                    {
                        "number": 64,
                        "time": 101.02240068750004,
                        "value": 0
                    },
                    {
                        "number": 64,
                        "time": 101.04254994375003,
                        "value": 1
                    },
                    {
                        "number": 64,
                        "time": 101.37986341875003,
                        "value": 0
                    },
                    {
                        "number": 64,
                        "time": 101.40523655625003,
                        "value": 1
                    },
                    {
                        "number": 64,
                        "time": 101.74031122500003,
                        "value": 0
                    },
                    {
                        "number": 64,
                        "time": 101.76568436250002,
                        "value": 1
                    },
                    {
                        "number": 64,
                        "time": 102.09628141875002,
                        "value": 0
                    },
                    {
                        "number": 64,
                        "time": 102.11717694375002,
                        "value": 1
                    },
                    {
                        "number": 64,
                        "time": 102.45672922500002,
                        "value": 0
                    },
                    {
                        "number": 64,
                        "time": 102.47538594375001,
                        "value": 1
                    },
                    {
                        "number": 64,
                        "time": 103.88061000000002,
                        "value": 0
                    },
                    {
                        "number": 64,
                        "time": 119.64180600000002,
                        "value": 1
                    },
                    {
                        "number": 64,
                        "time": 120.01344783750001,
                        "value": 0
                    },
                    {
                        "number": 64,
                        "time": 120.09404486250001,
                        "value": 1
                    },
                    {
                        "number": 64,
                        "time": 120.37091056875002,
                        "value": 0
                    },
                    {
                        "number": 64,
                        "time": 120.39479116875002,
                        "value": 1
                    },
                    {
                        "number": 64,
                        "time": 120.72464195625003,
                        "value": 0
                    },
                    {
                        "number": 64,
                        "time": 120.74852255625002,
                        "value": 1
                    },
                    {
                        "number": 64,
                        "time": 121.08658230000002,
                        "value": 0
                    },
                    {
                        "number": 64,
                        "time": 121.16046290625002,
                        "value": 1
                    },
                    {
                        "number": 64,
                        "time": 121.44703010625001,
                        "value": 0
                    },
                    {
                        "number": 64,
                        "time": 121.50150772500001,
                        "value": 1
                    },
                    {
                        "number": 64,
                        "time": 121.80225403125002,
                        "value": 0
                    },
                    {
                        "number": 64,
                        "time": 121.87688090625002,
                        "value": 1
                    },
                    {
                        "number": 64,
                        "time": 122.15822422500003,
                        "value": 0
                    },
                    {
                        "number": 64,
                        "time": 122.21792572500003,
                        "value": 1
                    },
                    {
                        "number": 64,
                        "time": 122.51494068750003,
                        "value": 0
                    },
                    {
                        "number": 64,
                        "time": 122.56717950000002,
                        "value": 1
                    },
                    {
                        "number": 64,
                        "time": 122.87240341875003,
                        "value": 0
                    },
                    {
                        "number": 64,
                        "time": 122.97688104375003,
                        "value": 1
                    },
                    {
                        "number": 64,
                        "time": 123.23061241875003,
                        "value": 0
                    },
                    {
                        "number": 64,
                        "time": 123.25822436250003,
                        "value": 1
                    },
                    {
                        "number": 64,
                        "time": 123.58882141875003,
                        "value": 0
                    },
                    {
                        "number": 64,
                        "time": 123.65374680000004,
                        "value": 1
                    },
                    {
                        "number": 64,
                        "time": 123.94777668750004,
                        "value": 0
                    },
                    {
                        "number": 64,
                        "time": 124.03434386250004,
                        "value": 1
                    },
                    {
                        "number": 64,
                        "time": 124.31046330000004,
                        "value": 0
                    },
                    {
                        "number": 64,
                        "time": 124.37538868125004,
                        "value": 1
                    },
                    {
                        "number": 64,
                        "time": 124.66941856875005,
                        "value": 0
                    },
                    {
                        "number": 64,
                        "time": 124.73359768125005,
                        "value": 1
                    },
                    {
                        "number": 64,
                        "time": 125.02688130000004,
                        "value": 0
                    },
                    {
                        "number": 64,
                        "time": 125.10897086250004,
                        "value": 1
                    },
                    {
                        "number": 64,
                        "time": 125.38135895625004,
                        "value": 0
                    },
                    {
                        "number": 64,
                        "time": 125.42688135000004,
                        "value": 1
                    },
                    {
                        "number": 64,
                        "time": 125.74106049375004,
                        "value": 0
                    },
                    {
                        "number": 64,
                        "time": 125.78509035000005,
                        "value": 1
                    },
                    {
                        "number": 64,
                        "time": 126.81344868750004,
                        "value": 0
                    },
                    {
                        "number": 64,
                        "time": 126.87464272500004,
                        "value": 1
                    },
                    {
                        "number": 64,
                        "time": 127.17315022500004,
                        "value": 0
                    },
                    {
                        "number": 64,
                        "time": 127.24106068125005,
                        "value": 1
                    },
                    {
                        "number": 64,
                        "time": 127.52912041875005,
                        "value": 0
                    },
                    {
                        "number": 64,
                        "time": 127.58210550000005,
                        "value": 1
                    },
                    {
                        "number": 64,
                        "time": 127.88732941875006,
                        "value": 0
                    },
                    {
                        "number": 64,
                        "time": 127.95747868125005,
                        "value": 1
                    },
                    {
                        "number": 64,
                        "time": 128.24479215000005,
                        "value": 0
                    },
                    {
                        "number": 64,
                        "time": 128.29255335000005,
                        "value": 1
                    },
                    {
                        "number": 64,
                        "time": 128.60225488125005,
                        "value": 0
                    },
                    {
                        "number": 64,
                        "time": 128.65523996250005,
                        "value": 1
                    },
                    {
                        "number": 64,
                        "time": 129.67613561250005,
                        "value": 0
                    },
                    {
                        "number": 64,
                        "time": 129.76568786250004,
                        "value": 1
                    },
                    {
                        "number": 64,
                        "time": 130.03434461250004,
                        "value": 0
                    },
                    {
                        "number": 64,
                        "time": 130.14927000000003,
                        "value": 1
                    },
                    {
                        "number": 64,
                        "time": 130.39703122500003,
                        "value": 0
                    },
                    {
                        "number": 64,
                        "time": 130.46494168125002,
                        "value": 1
                    },
                    {
                        "number": 64,
                        "time": 130.75524022500002,
                        "value": 0
                    },
                    {
                        "number": 64,
                        "time": 130.83210590625004,
                        "value": 1
                    },
                    {
                        "number": 64,
                        "time": 131.10897161250003,
                        "value": 0
                    },
                    {
                        "number": 64,
                        "time": 131.17912087500002,
                        "value": 1
                    },
                    {
                        "number": 64,
                        "time": 131.47688210625003,
                        "value": 0
                    },
                    {
                        "number": 64,
                        "time": 131.53061345625002,
                        "value": 1
                    },
                    {
                        "number": 64,
                        "time": 132.54479268750003,
                        "value": 0
                    },
                    {
                        "number": 64,
                        "time": 132.64255389375003,
                        "value": 1
                    },
                    {
                        "number": 64,
                        "time": 132.90897183750005,
                        "value": 0
                    },
                    {
                        "number": 64,
                        "time": 132.97986736875004,
                        "value": 1
                    },
                    {
                        "number": 64,
                        "time": 133.26344949375004,
                        "value": 0
                    },
                    {
                        "number": 64,
                        "time": 133.34852413125006,
                        "value": 1
                    },
                    {
                        "number": 64,
                        "time": 133.62315103125005,
                        "value": 0
                    },
                    {
                        "number": 64,
                        "time": 133.70673313125005,
                        "value": 1
                    },
                    {
                        "number": 64,
                        "time": 133.98359883750004,
                        "value": 0
                    },
                    {
                        "number": 64,
                        "time": 134.03210630625003,
                        "value": 1
                    },
                    {
                        "number": 64,
                        "time": 134.34255410625002,
                        "value": 0
                    },
                    {
                        "number": 64,
                        "time": 134.37762873750003,
                        "value": 1
                    },
                    {
                        "number": 64,
                        "time": 135.40897215000004,
                        "value": 0
                    },
                    {
                        "number": 64,
                        "time": 135.48733036875004,
                        "value": 1
                    },
                    {
                        "number": 64,
                        "time": 135.77091249375005,
                        "value": 0
                    },
                    {
                        "number": 64,
                        "time": 135.85598713125006,
                        "value": 1
                    },
                    {
                        "number": 64,
                        "time": 136.13210656875006,
                        "value": 0
                    },
                    {
                        "number": 64,
                        "time": 136.18285284375006,
                        "value": 1
                    },
                    {
                        "number": 64,
                        "time": 136.48285288125007,
                        "value": 0
                    },
                    {
                        "number": 64,
                        "time": 136.56195736875006,
                        "value": 1
                    },
                    {
                        "number": 64,
                        "time": 136.84255441875007,
                        "value": 0
                    },
                    {
                        "number": 64,
                        "time": 137.22613655625008,
                        "value": 1
                    },
                    {
                        "number": 64,
                        "time": 137.56195749375007,
                        "value": 0
                    },
                    {
                        "number": 64,
                        "time": 137.62912168125007,
                        "value": 1
                    },
                    {
                        "number": 64,
                        "time": 137.92464410625007,
                        "value": 0
                    },
                    {
                        "number": 64,
                        "time": 137.98733068125006,
                        "value": 1
                    },
                    {
                        "number": 64,
                        "time": 138.28285310625006,
                        "value": 0
                    },
                    {
                        "number": 64,
                        "time": 138.35449490625007,
                        "value": 1
                    },
                    {
                        "number": 64,
                        "time": 138.63583822500007,
                        "value": 0
                    },
                    {
                        "number": 64,
                        "time": 138.70374868125006,
                        "value": 1
                    },
                    {
                        "number": 64,
                        "time": 138.99330095625007,
                        "value": 0
                    },
                    {
                        "number": 64,
                        "time": 139.71195776250008,
                        "value": 1
                    },
                    {
                        "number": 64,
                        "time": 140.06718168750007,
                        "value": 0
                    },
                    {
                        "number": 64,
                        "time": 140.14404736875008,
                        "value": 1
                    },
                    {
                        "number": 64,
                        "time": 140.43210710625007,
                        "value": 0
                    },
                    {
                        "number": 64,
                        "time": 140.52016681875008,
                        "value": 1
                    },
                    {
                        "number": 64,
                        "time": 140.7873310312501,
                        "value": 0
                    },
                    {
                        "number": 64,
                        "time": 140.8783758187501,
                        "value": 1
                    },
                    {
                        "number": 64,
                        "time": 141.1418086875001,
                        "value": 0
                    },
                    {
                        "number": 64,
                        "time": 141.22016690625009,
                        "value": 1
                    },
                    {
                        "number": 64,
                        "time": 141.5037490312501,
                        "value": 0
                    },
                    {
                        "number": 64,
                        "time": 141.5694206812501,
                        "value": 1
                    },
                    {
                        "number": 64,
                        "time": 141.8634505687501,
                        "value": 0
                    },
                    {
                        "number": 64,
                        "time": 142.6515103687501,
                        "value": 1
                    },
                    {
                        "number": 64,
                        "time": 142.9388238375001,
                        "value": 0
                    },
                    {
                        "number": 64,
                        "time": 143.0418089250001,
                        "value": 1
                    },
                    {
                        "number": 64,
                        "time": 143.2903164187501,
                        "value": 0
                    },
                    {
                        "number": 64,
                        "time": 143.3522567250001,
                        "value": 1
                    },
                    {
                        "number": 64,
                        "time": 143.6530030312501,
                        "value": 0
                    },
                    {
                        "number": 64,
                        "time": 143.71867468125012,
                        "value": 1
                    },
                    {
                        "number": 64,
                        "time": 144.00822695625013,
                        "value": 0
                    },
                    {
                        "number": 64,
                        "time": 144.09479413125013,
                        "value": 1
                    },
                    {
                        "number": 64,
                        "time": 144.37165983750012,
                        "value": 0
                    },
                    {
                        "number": 64,
                        "time": 144.43210760625013,
                        "value": 1
                    },
                    {
                        "number": 64,
                        "time": 144.72315241875012,
                        "value": 0
                    },
                    {
                        "number": 64,
                        "time": 144.7933016812501,
                        "value": 1
                    },
                    {
                        "number": 64,
                        "time": 145.08807783750012,
                        "value": 0
                    },
                    {
                        "number": 64,
                        "time": 145.15151068125013,
                        "value": 1
                    },
                    {
                        "number": 64,
                        "time": 145.44330176250014,
                        "value": 0
                    },
                    {
                        "number": 64,
                        "time": 145.52763013125013,
                        "value": 1
                    },
                    {
                        "number": 64,
                        "time": 145.80374956875013,
                        "value": 0
                    },
                    {
                        "number": 64,
                        "time": 145.88583913125012,
                        "value": 1
                    },
                    {
                        "number": 64,
                        "time": 146.15524215000013,
                        "value": 0
                    },
                    {
                        "number": 64,
                        "time": 146.21792872500012,
                        "value": 1
                    },
                    {
                        "number": 64,
                        "time": 146.51867503125013,
                        "value": 0
                    },
                    {
                        "number": 64,
                        "time": 146.57613772500014,
                        "value": 1
                    },
                    {
                        "number": 64,
                        "time": 146.87837656875013,
                        "value": 0
                    },
                    {
                        "number": 64,
                        "time": 146.96046613125012,
                        "value": 1
                    },
                    {
                        "number": 64,
                        "time": 147.23583930000012,
                        "value": 0
                    },
                    {
                        "number": 64,
                        "time": 147.31867513125013,
                        "value": 1
                    },
                    {
                        "number": 64,
                        "time": 147.58807815000014,
                        "value": 0
                    },
                    {
                        "number": 64,
                        "time": 147.65076472500013,
                        "value": 1
                    },
                    {
                        "number": 64,
                        "time": 147.95225730000013,
                        "value": 0
                    },
                    {
                        "number": 64,
                        "time": 148.00897372500012,
                        "value": 1
                    },
                    {
                        "number": 64,
                        "time": 148.3052424187501,
                        "value": 0
                    },
                    {
                        "number": 64,
                        "time": 148.39330213125012,
                        "value": 1
                    },
                    {
                        "number": 64,
                        "time": 148.66942156875012,
                        "value": 0
                    },
                    {
                        "number": 64,
                        "time": 149.01494400000013,
                        "value": 1
                    },
                    {
                        "number": 64,
                        "time": 149.38210822500014,
                        "value": 0
                    },
                    {
                        "number": 64,
                        "time": 149.73136200000013,
                        "value": 1
                    },
                    {
                        "number": 64,
                        "time": 149.91867545625013,
                        "value": 0
                    },
                    {
                        "number": 64,
                        "time": 149.96643665625012,
                        "value": 1
                    },
                    {
                        "number": 64,
                        "time": 150.09554115000012,
                        "value": 0
                    },
                    {
                        "number": 64,
                        "time": 150.14554115625012,
                        "value": 1
                    },
                    {
                        "number": 64,
                        "time": 150.2716605750001,
                        "value": 0
                    },
                    {
                        "number": 64,
                        "time": 150.3246456562501,
                        "value": 1
                    },
                    {
                        "number": 64,
                        "time": 150.44927253750012,
                        "value": 0
                    },
                    {
                        "number": 64,
                        "time": 150.4947949312501,
                        "value": 1
                    },
                    {
                        "number": 64,
                        "time": 150.6298695750001,
                        "value": 0
                    },
                    {
                        "number": 64,
                        "time": 150.6865860000001,
                        "value": 1
                    },
                    {
                        "number": 64,
                        "time": 150.81046661250008,
                        "value": 0
                    },
                    {
                        "number": 64,
                        "time": 150.86195915625007,
                        "value": 1
                    },
                    {
                        "number": 64,
                        "time": 150.99330245625006,
                        "value": 0
                    },
                    {
                        "number": 64,
                        "time": 151.06195918125007,
                        "value": 1
                    },
                    {
                        "number": 64,
                        "time": 151.16718307500008,
                        "value": 0
                    },
                    {
                        "number": 64,
                        "time": 151.20673531875008,
                        "value": 1
                    },
                    {
                        "number": 64,
                        "time": 151.35225772500007,
                        "value": 0
                    },
                    {
                        "number": 64,
                        "time": 151.40748161250008,
                        "value": 1
                    },
                    {
                        "number": 64,
                        "time": 151.53061595625007,
                        "value": 0
                    },
                    {
                        "number": 64,
                        "time": 151.59479506875007,
                        "value": 1
                    },
                    {
                        "number": 64,
                        "time": 151.70897418750008,
                        "value": 0
                    },
                    {
                        "number": 64,
                        "time": 151.79554136250007,
                        "value": 1
                    },
                    {
                        "number": 64,
                        "time": 151.8836010750001,
                        "value": 0
                    },
                    {
                        "number": 64,
                        "time": 151.94031750000008,
                        "value": 1
                    },
                    {
                        "number": 64,
                        "time": 152.0649443812501,
                        "value": 0
                    },
                    {
                        "number": 64,
                        "time": 152.11569065625008,
                        "value": 1
                    },
                    {
                        "number": 64,
                        "time": 152.2433026125001,
                        "value": 0
                    },
                    {
                        "number": 64,
                        "time": 152.30300411250008,
                        "value": 1
                    },
                    {
                        "number": 64,
                        "time": 152.42763099375009,
                        "value": 0
                    },
                    {
                        "number": 64,
                        "time": 152.4694220437501,
                        "value": 1
                    },
                    {
                        "number": 64,
                        "time": 152.5970340000001,
                        "value": 0
                    },
                    {
                        "number": 64,
                        "time": 152.64852654375008,
                        "value": 1
                    },
                    {
                        "number": 64,
                        "time": 152.78658626250007,
                        "value": 0
                    },
                    {
                        "number": 64,
                        "time": 152.84852656875006,
                        "value": 1
                    },
                    {
                        "number": 64,
                        "time": 152.96494449375007,
                        "value": 0
                    },
                    {
                        "number": 64,
                        "time": 153.01121315625008,
                        "value": 1
                    },
                    {
                        "number": 64,
                        "time": 153.13807884375007,
                        "value": 0
                    },
                    {
                        "number": 64,
                        "time": 153.22016840625005,
                        "value": 1
                    },
                    {
                        "number": 64,
                        "time": 153.31345200000004,
                        "value": 0
                    },
                    {
                        "number": 64,
                        "time": 153.36046693125004,
                        "value": 1
                    },
                    {
                        "number": 64,
                        "time": 153.49778038125004,
                        "value": 0
                    },
                    {
                        "number": 64,
                        "time": 153.56494456875004,
                        "value": 1
                    },
                    {
                        "number": 64,
                        "time": 153.67613861250004,
                        "value": 0
                    },
                    {
                        "number": 64,
                        "time": 153.74031772500004,
                        "value": 1
                    },
                    {
                        "number": 64,
                        "time": 153.85897445625005,
                        "value": 0
                    },
                    {
                        "number": 64,
                        "time": 153.91942222500006,
                        "value": 1
                    },
                    {
                        "number": 64,
                        "time": 154.03509388125005,
                        "value": 0
                    },
                    {
                        "number": 64,
                        "time": 154.08584015625004,
                        "value": 1
                    },
                    {
                        "number": 64,
                        "time": 154.21718345625004,
                        "value": 0
                    },
                    {
                        "number": 64,
                        "time": 154.28136256875004,
                        "value": 1
                    },
                    {
                        "number": 64,
                        "time": 154.39927303125003,
                        "value": 0
                    },
                    {
                        "number": 64,
                        "time": 154.44404915625003,
                        "value": 1
                    },
                    {
                        "number": 64,
                        "time": 154.57688499375004,
                        "value": 0
                    },
                    {
                        "number": 64,
                        "time": 154.62688500000004,
                        "value": 1
                    },
                    {
                        "number": 64,
                        "time": 154.74927307500005,
                        "value": 0
                    },
                    {
                        "number": 64,
                        "time": 154.81867606875005,
                        "value": 1
                    },
                    {
                        "number": 64,
                        "time": 154.93360145625005,
                        "value": 0
                    },
                    {
                        "number": 64,
                        "time": 155.00225818125006,
                        "value": 1
                    },
                    {
                        "number": 64,
                        "time": 155.10897461250005,
                        "value": 0
                    },
                    {
                        "number": 64,
                        "time": 155.16046715625004,
                        "value": 1
                    },
                    {
                        "number": 64,
                        "time": 155.28733284375002,
                        "value": 0
                    },
                    {
                        "number": 64,
                        "time": 155.34778061250003,
                        "value": 1
                    },
                    {
                        "number": 64,
                        "time": 155.46569107500002,
                        "value": 0
                    },
                    {
                        "number": 64,
                        "time": 155.53136272500004,
                        "value": 1
                    },
                    {
                        "number": 64,
                        "time": 155.64628811250003,
                        "value": 0
                    },
                    {
                        "number": 64,
                        "time": 155.71046722500003,
                        "value": 1
                    },
                    {
                        "number": 64,
                        "time": 155.83360156875003,
                        "value": 0
                    },
                    {
                        "number": 64,
                        "time": 155.88957172500002,
                        "value": 1
                    },
                    {
                        "number": 64,
                        "time": 156.00225830625,
                        "value": 0
                    },
                    {
                        "number": 64,
                        "time": 156.06867622500002,
                        "value": 1
                    },
                    {
                        "number": 64,
                        "time": 156.18285534375002,
                        "value": 0
                    },
                    {
                        "number": 64,
                        "time": 156.22166131875002,
                        "value": 1
                    },
                    {
                        "number": 64,
                        "time": 156.36270611250004,
                        "value": 0
                    },
                    {
                        "number": 64,
                        "time": 156.41793000000004,
                        "value": 1
                    },
                    {
                        "number": 64,
                        "time": 156.54703449375003,
                        "value": 0
                    },
                    {
                        "number": 64,
                        "time": 156.59330315625004,
                        "value": 1
                    },
                    {
                        "number": 64,
                        "time": 156.72240765000004,
                        "value": 0
                    },
                    {
                        "number": 64,
                        "time": 156.78509422500002,
                        "value": 1
                    },
                    {
                        "number": 64,
                        "time": 156.89554200000003,
                        "value": 0
                    },
                    {
                        "number": 64,
                        "time": 156.93807931875003,
                        "value": 1
                    },
                    {
                        "number": 64,
                        "time": 157.08285545625003,
                        "value": 0
                    },
                    {
                        "number": 64,
                        "time": 157.12613904375004,
                        "value": 1
                    },
                    {
                        "number": 64,
                        "time": 157.26195995625005,
                        "value": 0
                    },
                    {
                        "number": 64,
                        "time": 157.33509429375005,
                        "value": 1
                    },
                    {
                        "number": 64,
                        "time": 157.44106445625005,
                        "value": 0
                    },
                    {
                        "number": 64,
                        "time": 157.49255700000003,
                        "value": 1
                    },
                    {
                        "number": 64,
                        "time": 157.61718388125004,
                        "value": 0
                    },
                    {
                        "number": 64,
                        "time": 157.64628836250003,
                        "value": 1
                    },
                    {
                        "number": 64,
                        "time": 157.79852718750004,
                        "value": 0
                    },
                    {
                        "number": 64,
                        "time": 157.85076600000005,
                        "value": 1
                    },
                    {
                        "number": 64,
                        "time": 157.98136303125005,
                        "value": 0
                    },
                    {
                        "number": 64,
                        "time": 158.02613915625005,
                        "value": 1
                    },
                    {
                        "number": 64,
                        "time": 158.15748245625005,
                        "value": 0
                    },
                    {
                        "number": 64,
                        "time": 158.21793022500006,
                        "value": 1
                    },
                    {
                        "number": 64,
                        "time": 158.33285561250005,
                        "value": 0
                    },
                    {
                        "number": 64,
                        "time": 158.38434815625004,
                        "value": 1
                    },
                    {
                        "number": 64,
                        "time": 158.51046757500004,
                        "value": 0
                    },
                    {
                        "number": 64,
                        "time": 158.56345265625004,
                        "value": 1
                    },
                    {
                        "number": 64,
                        "time": 158.69479595625003,
                        "value": 0
                    },
                    {
                        "number": 64,
                        "time": 158.75076611250003,
                        "value": 1
                    },
                    {
                        "number": 64,
                        "time": 158.86942284375004,
                        "value": 0
                    },
                    {
                        "number": 64,
                        "time": 158.91270643125006,
                        "value": 1
                    },
                    {
                        "number": 64,
                        "time": 159.05001988125005,
                        "value": 0
                    },
                    {
                        "number": 64,
                        "time": 159.09181093125005,
                        "value": 1
                    },
                    {
                        "number": 64,
                        "time": 159.23210945625004,
                        "value": 0
                    },
                    {
                        "number": 64,
                        "time": 159.29255722500005,
                        "value": 1
                    },
                    {
                        "number": 64,
                        "time": 159.41419903125006,
                        "value": 0
                    },
                    {
                        "number": 64,
                        "time": 159.47539306875007,
                        "value": 1
                    },
                    {
                        "number": 64,
                        "time": 159.59031845625006,
                        "value": 0
                    },
                    {
                        "number": 64,
                        "time": 159.65076622500007,
                        "value": 1
                    },
                    {
                        "number": 64,
                        "time": 159.76345280625006,
                        "value": 0
                    },
                    {
                        "number": 64,
                        "time": 159.80375131875005,
                        "value": 1
                    },
                    {
                        "number": 64,
                        "time": 159.94404984375004,
                        "value": 0
                    },
                    {
                        "number": 64,
                        "time": 159.99554238750002,
                        "value": 1
                    },
                    {
                        "number": 64,
                        "time": 160.12688568750002,
                        "value": 0
                    },
                    {
                        "number": 64,
                        "time": 160.1836021125,
                        "value": 1
                    },
                    {
                        "number": 64,
                        "time": 160.30673645625,
                        "value": 0
                    },
                    {
                        "number": 64,
                        "time": 160.38434840625,
                        "value": 1
                    },
                    {
                        "number": 64,
                        "time": 160.48584095625,
                        "value": 0
                    },
                    {
                        "number": 64,
                        "time": 160.52912454375002,
                        "value": 1
                    },
                    {
                        "number": 64,
                        "time": 160.66196038125003,
                        "value": 0
                    },
                    {
                        "number": 64,
                        "time": 160.71643800000004,
                        "value": 1
                    },
                    {
                        "number": 64,
                        "time": 160.84404995625005,
                        "value": 0
                    },
                    {
                        "number": 64,
                        "time": 160.91270668125006,
                        "value": 1
                    },
                    {
                        "number": 64,
                        "time": 161.02016938125007,
                        "value": 0
                    },
                    {
                        "number": 64,
                        "time": 161.07912461250007,
                        "value": 1
                    },
                    {
                        "number": 64,
                        "time": 161.19405000000006,
                        "value": 0
                    },
                    {
                        "number": 64,
                        "time": 161.24554254375005,
                        "value": 1
                    },
                    {
                        "number": 64,
                        "time": 161.38136345625006,
                        "value": 0
                    },
                    {
                        "number": 64,
                        "time": 161.45449779375005,
                        "value": 1
                    },
                    {
                        "number": 64,
                        "time": 161.56046795625005,
                        "value": 0
                    },
                    {
                        "number": 64,
                        "time": 161.62091572500006,
                        "value": 1
                    },
                    {
                        "number": 64,
                        "time": 161.74106499375006,
                        "value": 0
                    },
                    {
                        "number": 64,
                        "time": 161.82987097500006,
                        "value": 1
                    },
                    {
                        "number": 64,
                        "time": 161.91046800000007,
                        "value": 0
                    },
                    {
                        "number": 64,
                        "time": 161.98733368125008,
                        "value": 1
                    },
                    {
                        "number": 64,
                        "time": 162.09852772500008,
                        "value": 0
                    },
                    {
                        "number": 64,
                        "time": 162.16643818125007,
                        "value": 1
                    },
                    {
                        "number": 64,
                        "time": 162.27613968750006,
                        "value": 0
                    },
                    {
                        "number": 64,
                        "time": 162.32837850000007,
                        "value": 1
                    },
                    {
                        "number": 64,
                        "time": 162.45225911250006,
                        "value": 0
                    },
                    {
                        "number": 64,
                        "time": 162.51643822500006,
                        "value": 1
                    },
                    {
                        "number": 64,
                        "time": 162.60524420625006,
                        "value": 0
                    },
                    {
                        "number": 64,
                        "time": 162.69927406875007,
                        "value": 1
                    },
                    {
                        "number": 64,
                        "time": 162.81345318750007,
                        "value": 0
                    },
                    {
                        "number": 64,
                        "time": 162.86569200000008,
                        "value": 1
                    },
                    {
                        "number": 64,
                        "time": 162.99778156875007,
                        "value": 0
                    },
                    {
                        "number": 64,
                        "time": 163.07091590625006,
                        "value": 1
                    },
                    {
                        "number": 64,
                        "time": 163.16793084375007,
                        "value": 0
                    },
                    {
                        "number": 64,
                        "time": 163.22837861250008,
                        "value": 1
                    },
                    {
                        "number": 64,
                        "time": 163.3500204187501,
                        "value": 0
                    },
                    {
                        "number": 64,
                        "time": 163.4030055000001,
                        "value": 1
                    },
                    {
                        "number": 64,
                        "time": 163.5306174562501,
                        "value": 0
                    },
                    {
                        "number": 64,
                        "time": 163.5865876125001,
                        "value": 1
                    },
                    {
                        "number": 64,
                        "time": 163.7052443437501,
                        "value": 0
                    },
                    {
                        "number": 64,
                        "time": 163.76569211250012,
                        "value": 1
                    },
                    {
                        "number": 64,
                        "time": 163.8918115312501,
                        "value": 0
                    },
                    {
                        "number": 64,
                        "time": 163.95300556875011,
                        "value": 1
                    },
                    {
                        "number": 64,
                        "time": 164.0597220000001,
                        "value": 0
                    },
                    {
                        "number": 64,
                        "time": 164.1112145437501,
                        "value": 1
                    },
                    {
                        "number": 64,
                        "time": 164.2455429187501,
                        "value": 0
                    },
                    {
                        "number": 64,
                        "time": 164.2985280000001,
                        "value": 1
                    },
                    {
                        "number": 64,
                        "time": 164.4239011500001,
                        "value": 0
                    },
                    {
                        "number": 64,
                        "time": 164.4821101125001,
                        "value": 1
                    },
                    {
                        "number": 64,
                        "time": 164.6067369937501,
                        "value": 0
                    },
                    {
                        "number": 64,
                        "time": 164.65300565625012,
                        "value": 1
                    },
                    {
                        "number": 64,
                        "time": 164.7798713437501,
                        "value": 0
                    },
                    {
                        "number": 64,
                        "time": 164.8321101562501,
                        "value": 1
                    },
                    {
                        "number": 64,
                        "time": 164.96270718750011,
                        "value": 0
                    },
                    {
                        "number": 64,
                        "time": 165.0112146562501,
                        "value": 1
                    },
                    {
                        "number": 64,
                        "time": 165.1425579562501,
                        "value": 0
                    },
                    {
                        "number": 64,
                        "time": 165.1940505000001,
                        "value": 1
                    },
                    {
                        "number": 64,
                        "time": 165.3216624562501,
                        "value": 0
                    },
                    {
                        "number": 64,
                        "time": 165.3776326125001,
                        "value": 1
                    },
                    {
                        "number": 64,
                        "time": 165.49554307500009,
                        "value": 0
                    },
                    {
                        "number": 64,
                        "time": 165.55225950000008,
                        "value": 1
                    },
                    {
                        "number": 64,
                        "time": 165.67614011250006,
                        "value": 0
                    },
                    {
                        "number": 64,
                        "time": 165.70972220625006,
                        "value": 1
                    },
                    {
                        "number": 64,
                        "time": 165.85449834375007,
                        "value": 0
                    },
                    {
                        "number": 64,
                        "time": 165.90673715625007,
                        "value": 1
                    },
                    {
                        "number": 64,
                        "time": 166.03733418750008,
                        "value": 0
                    },
                    {
                        "number": 64,
                        "time": 166.0895730000001,
                        "value": 1
                    },
                    {
                        "number": 64,
                        "time": 166.2089760000001,
                        "value": 0
                    },
                    {
                        "number": 64,
                        "time": 166.2559909312501,
                        "value": 1
                    },
                    {
                        "number": 64,
                        "time": 166.3918118437501,
                        "value": 0
                    },
                    {
                        "number": 64,
                        "time": 166.4477820000001,
                        "value": 1
                    },
                    {
                        "number": 64,
                        "time": 166.5753939562501,
                        "value": 0
                    },
                    {
                        "number": 64,
                        "time": 166.63584172500012,
                        "value": 1
                    },
                    {
                        "number": 64,
                        "time": 166.75449845625013,
                        "value": 0
                    },
                    {
                        "number": 64,
                        "time": 166.81046861250013,
                        "value": 1
                    },
                    {
                        "number": 64,
                        "time": 166.92763280625013,
                        "value": 0
                    },
                    {
                        "number": 64,
                        "time": 166.98509550000014,
                        "value": 1
                    },
                    {
                        "number": 64,
                        "time": 167.10822984375014,
                        "value": 0
                    },
                    {
                        "number": 64,
                        "time": 167.17688656875015,
                        "value": 1
                    },
                    {
                        "number": 64,
                        "time": 167.28733434375016,
                        "value": 0
                    },
                    {
                        "number": 64,
                        "time": 167.33957315625017,
                        "value": 1
                    },
                    {
                        "number": 64,
                        "time": 167.47464780000016,
                        "value": 0
                    },
                    {
                        "number": 64,
                        "time": 167.53136422500015,
                        "value": 1
                    },
                    {
                        "number": 64,
                        "time": 167.64181200000016,
                        "value": 0
                    },
                    {
                        "number": 64,
                        "time": 167.70002096250016,
                        "value": 1
                    },
                    {
                        "number": 64,
                        "time": 168.99479724375016,
                        "value": 0
                    },
                    {
                        "number": 64,
                        "time": 169.07987188125017,
                        "value": 1
                    },
                    {
                        "number": 64,
                        "time": 170.42315563125018,
                        "value": 0
                    },
                    {
                        "number": 64,
                        "time": 170.51270788125018,
                        "value": 1
                    },
                    {
                        "number": 64,
                        "time": 171.1395736312502,
                        "value": 0
                    },
                    {
                        "number": 64,
                        "time": 171.2447975250002,
                        "value": 1
                    },
                    {
                        "number": 64,
                        "time": 171.8612155125002,
                        "value": 0
                    },
                    {
                        "number": 64,
                        "time": 171.94032000000018,
                        "value": 1
                    },
                    {
                        "number": 64,
                        "time": 172.6701708375002,
                        "value": 0
                    },
                    {
                        "number": 64,
                        "time": 172.8410663812502,
                        "value": 1
                    },
                    {
                        "number": 64,
                        "time": 173.29629031875018,
                        "value": 0
                    },
                    {
                        "number": 64,
                        "time": 173.3731560000002,
                        "value": 1
                    },
                    {
                        "number": 64,
                        "time": 174.0977829562502,
                        "value": 0
                    },
                    {
                        "number": 64,
                        "time": 174.2492755125002,
                        "value": 1
                    },
                    {
                        "number": 64,
                        "time": 174.4612158375002,
                        "value": 0
                    },
                    {
                        "number": 64,
                        "time": 174.6470367562502,
                        "value": 1
                    },
                    {
                        "number": 64,
                        "time": 174.8164397625002,
                        "value": 0
                    },
                    {
                        "number": 64,
                        "time": 174.9537532125002,
                        "value": 1
                    },
                    {
                        "number": 64,
                        "time": 175.5291264187502,
                        "value": 0
                    },
                    {
                        "number": 64,
                        "time": 175.6492756875002,
                        "value": 1
                    },
                    {
                        "number": 64,
                        "time": 176.1544996312502,
                        "value": 0
                    },
                    {
                        "number": 64,
                        "time": 176.23882800000018,
                        "value": 1
                    },
                    {
                        "number": 64,
                        "time": 176.96494749375017,
                        "value": 0
                    },
                    {
                        "number": 64,
                        "time": 177.11494751250018,
                        "value": 1
                    },
                    {
                        "number": 64,
                        "time": 177.32464903125017,
                        "value": 0
                    },
                    {
                        "number": 64,
                        "time": 177.45300725625017,
                        "value": 1
                    },
                    {
                        "number": 64,
                        "time": 177.68211176250017,
                        "value": 0
                    },
                    {
                        "number": 64,
                        "time": 177.93061925625017,
                        "value": 1
                    },
                    {
                        "number": 64,
                        "time": 178.39852976250017,
                        "value": 0
                    },
                    {
                        "number": 64,
                        "time": 178.5477835125002,
                        "value": 1
                    },
                    {
                        "number": 64,
                        "time": 179.10972388125018,
                        "value": 0
                    },
                    {
                        "number": 64,
                        "time": 179.18360448750016,
                        "value": 1
                    },
                    {
                        "number": 64,
                        "time": 180.45972405000018,
                        "value": 0
                    },
                    {
                        "number": 64,
                        "time": 180.54255988125018,
                        "value": 1
                    },
                    {
                        "number": 64,
                        "time": 181.8858436312502,
                        "value": 0
                    },
                    {
                        "number": 64,
                        "time": 181.9701720000002,
                        "value": 1
                    },
                    {
                        "number": 64,
                        "time": 182.6089780500002,
                        "value": 0
                    },
                    {
                        "number": 64,
                        "time": 182.72390343750018,
                        "value": 1
                    },
                    {
                        "number": 64,
                        "time": 183.3171870937502,
                        "value": 0
                    },
                    {
                        "number": 64,
                        "time": 183.4231572562502,
                        "value": 1
                    },
                    {
                        "number": 64,
                        "time": 184.12688868750018,
                        "value": 0
                    },
                    {
                        "number": 64,
                        "time": 184.37838125625018,
                        "value": 1
                    },
                    {
                        "number": 64,
                        "time": 184.8403216125002,
                        "value": 0
                    },
                    {
                        "number": 64,
                        "time": 185.0350977562502,
                        "value": 1
                    },
                    {
                        "number": 64,
                        "time": 185.56047095625019,
                        "value": 0
                    },
                    {
                        "number": 64,
                        "time": 185.75151575625017,
                        "value": 1
                    },
                    {
                        "number": 64,
                        "time": 186.27465015000018,
                        "value": 0
                    },
                    {
                        "number": 64,
                        "time": 186.42838151250018,
                        "value": 1
                    },
                    {
                        "number": 64,
                        "time": 186.99256068750017,
                        "value": 0
                    },
                    {
                        "number": 64,
                        "time": 187.14479951250019,
                        "value": 1
                    },
                    {
                        "number": 64,
                        "time": 187.71196376250018,
                        "value": 0
                    },
                    {
                        "number": 64,
                        "time": 187.92091901250018,
                        "value": 1
                    },
                    {
                        "number": 64,
                        "time": 188.43211310625017,
                        "value": 0
                    },
                    {
                        "number": 64,
                        "time": 188.63733701250018,
                        "value": 1
                    },
                    {
                        "number": 64,
                        "time": 189.1410684187502,
                        "value": 0
                    },
                    {
                        "number": 64,
                        "time": 189.4134565125002,
                        "value": 1
                    },
                    {
                        "number": 64,
                        "time": 190.57539695625022,
                        "value": 0
                    },
                    {
                        "number": 64,
                        "time": 190.69405368750023,
                        "value": 1
                    },
                    {
                        "number": 64,
                        "time": 191.29330749375023,
                        "value": 0
                    },
                    {
                        "number": 64,
                        "time": 191.41047168750023,
                        "value": 1
                    },
                    {
                        "number": 64,
                        "time": 191.92091951250023,
                        "value": 0
                    },
                    {
                        "number": 64,
                        "time": 192.00002400000022,
                        "value": 1
                    },
                    {
                        "number": 64,
                        "time": 192.72987483750023,
                        "value": 0
                    },
                    {
                        "number": 64,
                        "time": 192.87614351250022,
                        "value": 1
                    },
                    {
                        "number": 64,
                        "time": 193.44703910625023,
                        "value": 0
                    },
                    {
                        "number": 64,
                        "time": 193.57241225625023,
                        "value": 1
                    },
                    {
                        "number": 64,
                        "time": 194.15972576250024,
                        "value": 0
                    },
                    {
                        "number": 64,
                        "time": 194.32838250000023,
                        "value": 1
                    },
                    {
                        "number": 64,
                        "time": 194.87166615000024,
                        "value": 0
                    },
                    {
                        "number": 64,
                        "time": 195.14480051250024,
                        "value": 1
                    },
                    {
                        "number": 64,
                        "time": 196.30674095625025,
                        "value": 0
                    },
                    {
                        "number": 64,
                        "time": 196.61718875625024,
                        "value": 1
                    },
                    {
                        "number": 64,
                        "time": 197.74106949375025,
                        "value": 0
                    },
                    {
                        "number": 64,
                        "time": 197.85300980625024,
                        "value": 1
                    },
                    {
                        "number": 64,
                        "time": 199.08509951250025,
                        "value": 0
                    },
                    {
                        "number": 64,
                        "time": 199.22763684375025,
                        "value": 1
                    },
                    {
                        "number": 64,
                        "time": 200.51345790000025,
                        "value": 0
                    },
                    {
                        "number": 64,
                        "time": 200.61718925625024,
                        "value": 1
                    },
                    {
                        "number": 64,
                        "time": 201.32763710625025,
                        "value": 0
                    },
                    {
                        "number": 64,
                        "time": 201.51271175625024,
                        "value": 1
                    },
                    {
                        "number": 64,
                        "time": 202.04405510625023,
                        "value": 0
                    },
                    {
                        "number": 64,
                        "time": 202.10898048750022,
                        "value": 1
                    },
                    {
                        "number": 64,
                        "time": 202.75898056875022,
                        "value": 0
                    },
                    {
                        "number": 64,
                        "time": 202.8462940125002,
                        "value": 1
                    },
                    {
                        "number": 64,
                        "time": 203.3851000500002,
                        "value": 0
                    },
                    {
                        "number": 64,
                        "time": 203.4828612562502,
                        "value": 1
                    },
                    {
                        "number": 64,
                        "time": 204.1895777625002,
                        "value": 0
                    },
                    {
                        "number": 64,
                        "time": 204.3783837562502,
                        "value": 1
                    },
                    {
                        "number": 64,
                        "time": 204.5522643750002,
                        "value": 0
                    },
                    {
                        "number": 64,
                        "time": 204.6970405125002,
                        "value": 1
                    },
                    {
                        "number": 64,
                        "time": 204.9037569562502,
                        "value": 0
                    },
                    {
                        "number": 64,
                        "time": 205.1067420562502,
                        "value": 1
                    },
                    {
                        "number": 64,
                        "time": 205.6253988375002,
                        "value": 0
                    },
                    {
                        "number": 64,
                        "time": 205.7336078062502,
                        "value": 1
                    },
                    {
                        "number": 64,
                        "time": 206.2462944375002,
                        "value": 0
                    },
                    {
                        "number": 64,
                        "time": 206.3283840000002,
                        "value": 1
                    },
                    {
                        "number": 64,
                        "time": 207.0574885687502,
                        "value": 0
                    },
                    {
                        "number": 64,
                        "time": 207.2045035125002,
                        "value": 1
                    },
                    {
                        "number": 64,
                        "time": 207.4179363750002,
                        "value": 0
                    },
                    {
                        "number": 64,
                        "time": 207.5627125125002,
                        "value": 1
                    },
                    {
                        "number": 64,
                        "time": 207.76868268750022,
                        "value": 0
                    },
                    {
                        "number": 64,
                        "time": 207.98062301250022,
                        "value": 1
                    },
                    {
                        "number": 64,
                        "time": 208.49107083750022,
                        "value": 0
                    },
                    {
                        "number": 64,
                        "time": 208.67689175625023,
                        "value": 1
                    },
                    {
                        "number": 64,
                        "time": 209.20151868750023,
                        "value": 0
                    },
                    {
                        "number": 64,
                        "time": 209.47316051250021,
                        "value": 1
                    },
                    {
                        "number": 64,
                        "time": 210.63510095625023,
                        "value": 0
                    },
                    {
                        "number": 64,
                        "time": 210.88584725625023,
                        "value": 1
                    },
                    {
                        "number": 64,
                        "time": 211.35301149375022,
                        "value": 0
                    },
                    {
                        "number": 64,
                        "time": 211.48286225625023,
                        "value": 1
                    },
                    {
                        "number": 64,
                        "time": 212.07241456875022,
                        "value": 0
                    },
                    {
                        "number": 64,
                        "time": 212.1992802562502,
                        "value": 1
                    },
                    {
                        "number": 64,
                        "time": 212.7933101812502,
                        "value": 0
                    },
                    {
                        "number": 64,
                        "time": 212.9753997562502,
                        "value": 1
                    },
                    {
                        "number": 64,
                        "time": 213.5022654937502,
                        "value": 0
                    },
                    {
                        "number": 64,
                        "time": 213.7313700000002,
                        "value": 1
                    },
                    {
                        "number": 64,
                        "time": 214.9343552250002,
                        "value": 0
                    },
                    {
                        "number": 64,
                        "time": 215.12465375625018,
                        "value": 1
                    },
                    {
                        "number": 64,
                        "time": 216.36569868750018,
                        "value": 0
                    },
                    {
                        "number": 64,
                        "time": 216.5574897562502,
                        "value": 1
                    },
                    {
                        "number": 64,
                        "time": 217.0821166875002,
                        "value": 0
                    },
                    {
                        "number": 64,
                        "time": 217.2537585000002,
                        "value": 1
                    },
                    {
                        "number": 64,
                        "time": 217.8052511062502,
                        "value": 0
                    },
                    {
                        "number": 64,
                        "time": 218.05002725625022,
                        "value": 1
                    },
                    {
                        "number": 64,
                        "time": 219.23137068750023,
                        "value": 0
                    },
                    {
                        "number": 64,
                        "time": 219.42316175625024,
                        "value": 1
                    },
                    {
                        "number": 64,
                        "time": 219.95450510625022,
                        "value": 0
                    },
                    {
                        "number": 64,
                        "time": 220.17913200000024,
                        "value": 1
                    },
                    {
                        "number": 64,
                        "time": 220.66346041875025,
                        "value": 0
                    },
                    {
                        "number": 64,
                        "time": 220.85599775625025,
                        "value": 1
                    },
                    {
                        "number": 64,
                        "time": 222.09778895625024,
                        "value": 0
                    },
                    {
                        "number": 64,
                        "time": 222.28883375625023,
                        "value": 1
                    },
                    {
                        "number": 64,
                        "time": 222.81719203125022,
                        "value": 0
                    },
                    {
                        "number": 64,
                        "time": 223.04480400000023,
                        "value": 1
                    },
                    {
                        "number": 64,
                        "time": 223.5313712250002,
                        "value": 0
                    },
                    {
                        "number": 64,
                        "time": 223.7216697562502,
                        "value": 1
                    },
                    {
                        "number": 64,
                        "time": 224.9642072250002,
                        "value": 0
                    },
                    {
                        "number": 64,
                        "time": 225.1343565000002,
                        "value": 1
                    },
                    {
                        "number": 64,
                        "time": 225.68211776250018,
                        "value": 0
                    },
                    {
                        "number": 64,
                        "time": 225.8313715125002,
                        "value": 1
                    },
                    {
                        "number": 64,
                        "time": 226.3948044187502,
                        "value": 0
                    },
                    {
                        "number": 64,
                        "time": 226.5873417562502,
                        "value": 1
                    },
                    {
                        "number": 64,
                        "time": 227.1112224187502,
                        "value": 0
                    },
                    {
                        "number": 64,
                        "time": 227.2836105000002,
                        "value": 1
                    },
                    {
                        "number": 64,
                        "time": 227.8313717625002,
                        "value": 0
                    },
                    {
                        "number": 64,
                        "time": 228.0403270125002,
                        "value": 1
                    },
                    {
                        "number": 64,
                        "time": 229.2671928375002,
                        "value": 0
                    },
                    {
                        "number": 64,
                        "time": 229.5127152562502,
                        "value": 1
                    },
                    {
                        "number": 64,
                        "time": 230.6962974937502,
                        "value": 0
                    },
                    {
                        "number": 64,
                        "time": 230.8858497562502,
                        "value": 1
                    },
                    {
                        "number": 64,
                        "time": 233.1940590000002,
                        "value": 0
                    },
                    {
                        "number": 64,
                        "time": 233.6104769625002,
                        "value": 1
                    },
                    {
                        "number": 64,
                        "time": 234.2768949562502,
                        "value": 0
                    },
                    {
                        "number": 64,
                        "time": 234.3373427250002,
                        "value": 1
                    },
                    {
                        "number": 64,
                        "time": 234.99256668750022,
                        "value": 0
                    },
                    {
                        "number": 64,
                        "time": 235.0485368437502,
                        "value": 1
                    },
                    {
                        "number": 64,
                        "time": 235.71420856875022,
                        "value": 0
                    },
                    {
                        "number": 64,
                        "time": 235.77017872500022,
                        "value": 1
                    },
                    {
                        "number": 64,
                        "time": 236.42465641875023,
                        "value": 0
                    },
                    {
                        "number": 64,
                        "time": 236.47614896250022,
                        "value": 1
                    },
                    {
                        "number": 64,
                        "time": 237.1462983000002,
                        "value": 0
                    },
                    {
                        "number": 64,
                        "time": 237.18734308125022,
                        "value": 1
                    },
                    {
                        "number": 64,
                        "time": 237.50525356875022,
                        "value": 0
                    },
                    {
                        "number": 64,
                        "time": 237.55599984375021,
                        "value": 1
                    },
                    {
                        "number": 64,
                        "time": 237.8612237625002,
                        "value": 0
                    },
                    {
                        "number": 64,
                        "time": 237.9089849625002,
                        "value": 1
                    },
                    {
                        "number": 64,
                        "time": 238.5761492250002,
                        "value": 0
                    },
                    {
                        "number": 64,
                        "time": 238.64107460625019,
                        "value": 1
                    },
                    {
                        "number": 64,
                        "time": 239.29405976250018,
                        "value": 0
                    },
                    {
                        "number": 64,
                        "time": 239.33659708125018,
                        "value": 1
                    },
                    {
                        "number": 64,
                        "time": 239.65226876250017,
                        "value": 0
                    },
                    {
                        "number": 64,
                        "time": 239.68435831875018,
                        "value": 1
                    },
                    {
                        "number": 64,
                        "time": 240.0104777625002,
                        "value": 0
                    },
                    {
                        "number": 64,
                        "time": 240.05823896250018,
                        "value": 1
                    },
                    {
                        "number": 64,
                        "time": 240.37391064375018,
                        "value": 0
                    },
                    {
                        "number": 64,
                        "time": 240.42167184375018,
                        "value": 1
                    },
                    {
                        "number": 64,
                        "time": 240.72391068750017,
                        "value": 0
                    },
                    {
                        "number": 64,
                        "time": 240.77465696250016,
                        "value": 1
                    },
                    {
                        "number": 64,
                        "time": 241.44629883750017,
                        "value": 0
                    },
                    {
                        "number": 64,
                        "time": 241.50674660625018,
                        "value": 1
                    },
                    {
                        "number": 64,
                        "time": 242.16868698750017,
                        "value": 0
                    },
                    {
                        "number": 64,
                        "time": 242.21794072500018,
                        "value": 1
                    },
                    {
                        "number": 64,
                        "time": 242.5179407625002,
                        "value": 0
                    },
                    {
                        "number": 64,
                        "time": 242.5709258437502,
                        "value": 1
                    },
                    {
                        "number": 64,
                        "time": 242.87614976250018,
                        "value": 0
                    },
                    {
                        "number": 64,
                        "time": 242.93435872500018,
                        "value": 1
                    },
                    {
                        "number": 64,
                        "time": 243.23659756875017,
                        "value": 0
                    },
                    {
                        "number": 64,
                        "time": 243.29256772500017,
                        "value": 1
                    },
                    {
                        "number": 64,
                        "time": 243.59555283750018,
                        "value": 0
                    },
                    {
                        "number": 64,
                        "time": 243.6612244875002,
                        "value": 1
                    },
                    {
                        "number": 64,
                        "time": 244.30898576250019,
                        "value": 0
                    },
                    {
                        "number": 64,
                        "time": 244.36197084375019,
                        "value": 1
                    },
                    {
                        "number": 64,
                        "time": 245.0246574937502,
                        "value": 0
                    },
                    {
                        "number": 64,
                        "time": 245.1201798937502,
                        "value": 1
                    },
                    {
                        "number": 64,
                        "time": 246.4612248375002,
                        "value": 0
                    },
                    {
                        "number": 64,
                        "time": 246.5425681312502,
                        "value": 1
                    },
                    {
                        "number": 64,
                        "time": 247.8940608375002,
                        "value": 0
                    },
                    {
                        "number": 64,
                        "time": 247.9858518937502,
                        "value": 1
                    },
                    {
                        "number": 64,
                        "time": 248.6104788375002,
                        "value": 0
                    },
                    {
                        "number": 64,
                        "time": 248.7022698937502,
                        "value": 1
                    },
                    {
                        "number": 64,
                        "time": 249.32018041875023,
                        "value": 0
                    },
                    {
                        "number": 64,
                        "time": 249.4246580437502,
                        "value": 1
                    },
                    {
                        "number": 64,
                        "time": 250.0418223000002,
                        "value": 0
                    },
                    {
                        "number": 64,
                        "time": 250.0985387250002,
                        "value": 1
                    },
                    {
                        "number": 64,
                        "time": 250.7560014937502,
                        "value": 0
                    },
                    {
                        "number": 64,
                        "time": 250.9045089750002,
                        "value": 1
                    },
                    {
                        "number": 64,
                        "time": 251.47764337500018,
                        "value": 0
                    },
                    {
                        "number": 64,
                        "time": 251.6000314500002,
                        "value": 1
                    },
                    {
                        "number": 64,
                        "time": 252.18958376250018,
                        "value": 0
                    },
                    {
                        "number": 64,
                        "time": 252.28435989375018,
                        "value": 1
                    },
                    {
                        "number": 64,
                        "time": 252.9082405687502,
                        "value": 0
                    },
                    {
                        "number": 64,
                        "time": 252.9694346062502,
                        "value": 1
                    },
                    {
                        "number": 64,
                        "time": 253.6209272250002,
                        "value": 0
                    },
                    {
                        "number": 64,
                        "time": 253.7231660437502,
                        "value": 1
                    },
                    {
                        "number": 64,
                        "time": 254.3403303000002,
                        "value": 0
                    },
                    {
                        "number": 64,
                        "time": 254.43958404375022,
                        "value": 1
                    },
                    {
                        "number": 64,
                        "time": 255.05525576250022,
                        "value": 0
                    },
                    {
                        "number": 64,
                        "time": 255.15003189375022,
                        "value": 1
                    },
                    {
                        "number": 64,
                        "time": 256.4910768375002,
                        "value": 0
                    },
                    {
                        "number": 64,
                        "time": 256.5619723687502,
                        "value": 1
                    },
                    {
                        "number": 64,
                        "time": 257.92092776250024,
                        "value": 0
                    },
                    {
                        "number": 64,
                        "time": 258.18958451250023,
                        "value": 1
                    },
                    {
                        "number": 64,
                        "time": 259.3522712250002,
                        "value": 0
                    },
                    {
                        "number": 64,
                        "time": 259.5030175125002,
                        "value": 1
                    },
                    {
                        "number": 64,
                        "time": 260.0701817625002,
                        "value": 0
                    },
                    {
                        "number": 64,
                        "time": 260.2388385000002,
                        "value": 1
                    },
                    {
                        "number": 64,
                        "time": 260.7821221500002,
                        "value": 0
                    },
                    {
                        "number": 64,
                        "time": 260.9552565000002,
                        "value": 1
                    },
                    {
                        "number": 64,
                        "time": 261.5007789562502,
                        "value": 0
                    },
                    {
                        "number": 64,
                        "time": 261.7313760000002,
                        "value": 1
                    },
                    {
                        "number": 64,
                        "time": 262.2171969562502,
                        "value": 0
                    },
                    {
                        "number": 64,
                        "time": 262.4283910125002,
                        "value": 1
                    },
                    {
                        "number": 64,
                        "time": 263.6507792250002,
                        "value": 0
                    },
                    {
                        "number": 64,
                        "time": 263.8410777562502,
                        "value": 1
                    },
                    {
                        "number": 64,
                        "time": 265.08212268750015,
                        "value": 0
                    },
                    {
                        "number": 64,
                        "time": 265.25376450000016,
                        "value": 1
                    },
                    {
                        "number": 64,
                        "time": 265.80077949375016,
                        "value": 0
                    },
                    {
                        "number": 64,
                        "time": 265.97018250000013,
                        "value": 1
                    },
                    {
                        "number": 64,
                        "time": 266.51645122500014,
                        "value": 0
                    },
                    {
                        "number": 64,
                        "time": 266.68660050000017,
                        "value": 1
                    },
                    {
                        "number": 64,
                        "time": 267.95376483750016,
                        "value": 0
                    },
                    {
                        "number": 64,
                        "time": 268.13958575625014,
                        "value": 1
                    },
                    {
                        "number": 64,
                        "time": 268.66719776250017,
                        "value": 0
                    },
                    {
                        "number": 64,
                        "time": 268.79630225625016,
                        "value": 1
                    },
                    {
                        "number": 64,
                        "time": 269.3851083000002,
                        "value": 0
                    },
                    {
                        "number": 64,
                        "time": 269.5724217562502,
                        "value": 1
                    },
                    {
                        "number": 64,
                        "time": 270.8149592250002,
                        "value": 0
                    },
                    {
                        "number": 64,
                        "time": 271.0052577562502,
                        "value": 1
                    },
                    {
                        "number": 64,
                        "time": 271.5306309562502,
                        "value": 0
                    },
                    {
                        "number": 64,
                        "time": 271.7216757562502,
                        "value": 1
                    },
                    {
                        "number": 64,
                        "time": 272.2477952250002,
                        "value": 0
                    },
                    {
                        "number": 64,
                        "time": 272.4179445000002,
                        "value": 1
                    },
                    {
                        "number": 64,
                        "time": 273.6791386875002,
                        "value": 0
                    },
                    {
                        "number": 64,
                        "time": 273.8507805000002,
                        "value": 1
                    },
                    {
                        "number": 64,
                        "time": 274.4037656437502,
                        "value": 0
                    },
                    {
                        "number": 64,
                        "time": 274.5477955125002,
                        "value": 1
                    },
                    {
                        "number": 64,
                        "time": 275.1127209562502,
                        "value": 0
                    },
                    {
                        "number": 64,
                        "time": 275.2440642562502,
                        "value": 1
                    },
                    {
                        "number": 64,
                        "time": 275.8321240312502,
                        "value": 0
                    },
                    {
                        "number": 64,
                        "time": 276.0597360000002,
                        "value": 1
                    },
                    {
                        "number": 64,
                        "time": 276.5492883000002,
                        "value": 0
                    },
                    {
                        "number": 64,
                        "time": 276.73660175625025,
                        "value": 1
                    },
                    {
                        "number": 64,
                        "time": 277.97988549375026,
                        "value": 0
                    },
                    {
                        "number": 64,
                        "time": 278.12988551250027,
                        "value": 1
                    },
                    {
                        "number": 64,
                        "time": 279.41570656875024,
                        "value": 0
                    },
                    {
                        "number": 64,
                        "time": 279.62242301250024,
                        "value": 1
                    },
                    {
                        "number": 64,
                        "time": 282.27540841875026,
                        "value": 0
                    },
                    {
                        "number": 64,
                        "time": 282.4679457562503,
                        "value": 1
                    },
                    {
                        "number": 64,
                        "time": 283.7134683000003,
                        "value": 0
                    },
                    {
                        "number": 64,
                        "time": 283.9007817562503,
                        "value": 1
                    },
                    {
                        "number": 64,
                        "time": 285.1433192250003,
                        "value": 0
                    },
                    {
                        "number": 64,
                        "time": 285.31346850000034,
                        "value": 1
                    },
                    {
                        "number": 64,
                        "time": 286.5813791062503,
                        "value": 0
                    },
                    {
                        "number": 64,
                        "time": 286.7664537562503,
                        "value": 1
                    },
                    {
                        "number": 64,
                        "time": 288.00899122500033,
                        "value": 0
                    },
                    {
                        "number": 64,
                        "time": 288.1507822875003,
                        "value": 1
                    },
                    {
                        "number": 64,
                        "time": 289.4410809562503,
                        "value": 0
                    },
                    {
                        "number": 64,
                        "time": 289.5351108187503,
                        "value": 1
                    },
                    {
                        "number": 64,
                        "time": 290.8754094937503,
                        "value": 0
                    },
                    {
                        "number": 64,
                        "time": 290.96048413125027,
                        "value": 1
                    },
                    {
                        "number": 64,
                        "time": 292.3082454937503,
                        "value": 0
                    },
                    {
                        "number": 64,
                        "time": 292.4179470000003,
                        "value": 1
                    },
                    {
                        "number": 64,
                        "time": 293.7403352250003,
                        "value": 0
                    },
                    {
                        "number": 64,
                        "time": 293.8537680750003,
                        "value": 1
                    },
                    {
                        "number": 64,
                        "time": 295.1731712250003,
                        "value": 0
                    },
                    {
                        "number": 64,
                        "time": 295.2582458625003,
                        "value": 1
                    },
                    {
                        "number": 64,
                        "time": 296.6074997625003,
                        "value": 0
                    },
                    {
                        "number": 64,
                        "time": 296.6821266375003,
                        "value": 1
                    },
                    {
                        "number": 64,
                        "time": 298.0388432250003,
                        "value": 0
                    },
                    {
                        "number": 64,
                        "time": 298.1321268187503,
                        "value": 1
                    },
                    {
                        "number": 64,
                        "time": 299.4709329562503,
                        "value": 0
                    },
                    {
                        "number": 64,
                        "time": 299.5791419250003,
                        "value": 1
                    },
                    {
                        "number": 64,
                        "time": 300.90899283750025,
                        "value": 0
                    },
                    {
                        "number": 64,
                        "time": 300.97988836875027,
                        "value": 1
                    },
                    {
                        "number": 64,
                        "time": 302.33735122500025,
                        "value": 0
                    },
                    {
                        "number": 64,
                        "time": 302.41421690625026,
                        "value": 1
                    },
                    {
                        "number": 64,
                        "time": 303.7686946875003,
                        "value": 0
                    },
                    {
                        "number": 64,
                        "time": 303.8664558937503,
                        "value": 1
                    },
                    {
                        "number": 64,
                        "time": 305.2030232250003,
                        "value": 0
                    },
                    {
                        "number": 64,
                        "time": 305.3313814500003,
                        "value": 1
                    },
                    {
                        "number": 64,
                        "time": 306.63436668750035,
                        "value": 0
                    },
                    {
                        "number": 64,
                        "time": 306.72168013125037,
                        "value": 1
                    },
                    {
                        "number": 64,
                        "time": 308.0709340312504,
                        "value": 0
                    },
                    {
                        "number": 64,
                        "time": 308.21794897500035,
                        "value": 1
                    },
                    {
                        "number": 64,
                        "time": 309.50153122500035,
                        "value": 0
                    },
                    {
                        "number": 64,
                        "time": 309.5873521312503,
                        "value": 1
                    },
                    {
                        "number": 64,
                        "time": 310.9328746875003,
                        "value": 0
                    },
                    {
                        "number": 64,
                        "time": 311.0291433562503,
                        "value": 1
                    },
                    {
                        "number": 64,
                        "time": 312.3672032250003,
                        "value": 0
                    },
                    {
                        "number": 64,
                        "time": 312.4716808500003,
                        "value": 1
                    },
                    {
                        "number": 64,
                        "time": 313.08436749375034,
                        "value": 0
                    },
                    {
                        "number": 64,
                        "time": 313.1694421312503,
                        "value": 1
                    },
                    {
                        "number": 64,
                        "time": 313.7955616125003,
                        "value": 0
                    },
                    {
                        "number": 64,
                        "time": 313.9075019250003,
                        "value": 1
                    },
                    {
                        "number": 64,
                        "time": 314.5239199125003,
                        "value": 0
                    },
                    {
                        "number": 64,
                        "time": 314.6448154500003,
                        "value": 1
                    },
                    {
                        "number": 64,
                        "time": 315.2313826875003,
                        "value": 0
                    },
                    {
                        "number": 64,
                        "time": 315.3403379250003,
                        "value": 1
                    },
                    {
                        "number": 64,
                        "time": 315.9507857625003,
                        "value": 0
                    },
                    {
                        "number": 64,
                        "time": 316.0351141312503,
                        "value": 1
                    },
                    {
                        "number": 64,
                        "time": 316.6701888375003,
                        "value": 0
                    },
                    {
                        "number": 64,
                        "time": 316.7515321312503,
                        "value": 1
                    },
                    {
                        "number": 64,
                        "time": 317.3828754937503,
                        "value": 0
                    },
                    {
                        "number": 64,
                        "time": 317.4866068500003,
                        "value": 1
                    },
                    {
                        "number": 64,
                        "time": 318.09929349375034,
                        "value": 0
                    },
                    {
                        "number": 64,
                        "time": 318.19183081875036,
                        "value": 1
                    },
                    {
                        "number": 64,
                        "time": 318.8201891062504,
                        "value": 0
                    },
                    {
                        "number": 64,
                        "time": 318.90003986250036,
                        "value": 1
                    },
                    {
                        "number": 64,
                        "time": 319.52690561250034,
                        "value": 0
                    },
                    {
                        "number": 64,
                        "time": 319.66421906250036,
                        "value": 1
                    },
                    {
                        "number": 64,
                        "time": 320.78063711250036,
                        "value": 0
                    },
                    {
                        "number": 64,
                        "time": 321.08735356875036,
                        "value": 1
                    },
                    {
                        "number": 64,
                        "time": 322.2172044562504,
                        "value": 0
                    },
                    {
                        "number": 64,
                        "time": 322.4164582125004,
                        "value": 1
                    },
                    {
                        "number": 64,
                        "time": 323.6575031437504,
                        "value": 0
                    },
                    {
                        "number": 64,
                        "time": 323.87765242500035,
                        "value": 1
                    },
                    {
                        "number": 64,
                        "time": 325.08959287500033,
                        "value": 0
                    },
                    {
                        "number": 64,
                        "time": 325.2806376750003,
                        "value": 1
                    },
                    {
                        "number": 64,
                        "time": 329.74705614375034,
                        "value": 0
                    },
                    {
                        "number": 64,
                        "time": 329.96347408125035,
                        "value": 1
                    },
                    {
                        "number": 64,
                        "time": 331.35153395625036,
                        "value": 0
                    },
                    {
                        "number": 64,
                        "time": 331.44854889375034,
                        "value": 1
                    },
                    {
                        "number": 64,
                        "time": 332.7836236875003,
                        "value": 0
                    },
                    {
                        "number": 64,
                        "time": 332.9239222125003,
                        "value": 1
                    },
                    {
                        "number": 64,
                        "time": 334.2194447625003,
                        "value": 0
                    },
                    {
                        "number": 64,
                        "time": 334.3037731312503,
                        "value": 1
                    },
                    {
                        "number": 64,
                        "time": 334.4672059875003,
                        "value": 0
                    },
                    {
                        "number": 64,
                        "time": 334.5776537625003,
                        "value": 1
                    },
                    {
                        "number": 64,
                        "time": 335.6492956875003,
                        "value": 0
                    },
                    {
                        "number": 64,
                        "time": 335.80153451250027,
                        "value": 1
                    },
                    {
                        "number": 64,
                        "time": 336.3679524937503,
                        "value": 0
                    },
                    {
                        "number": 64,
                        "time": 336.4978032562503,
                        "value": 1
                    },
                    {
                        "number": 64,
                        "time": 336.7269077625003,
                        "value": 0
                    },
                    {
                        "number": 64,
                        "time": 336.89556450000026,
                        "value": 1
                    },
                    {
                        "number": 64,
                        "time": 337.08138541875024,
                        "value": 0
                    },
                    {
                        "number": 64,
                        "time": 337.15899736875025,
                        "value": 1
                    },
                    {
                        "number": 64,
                        "time": 337.31720634375023,
                        "value": 0
                    },
                    {
                        "number": 64,
                        "time": 337.41198247500023,
                        "value": 1
                    },
                    {
                        "number": 64,
                        "time": 338.5172064937502,
                        "value": 0
                    },
                    {
                        "number": 64,
                        "time": 338.6470572562502,
                        "value": 1
                    },
                    {
                        "number": 64,
                        "time": 339.2328782250002,
                        "value": 0
                    },
                    {
                        "number": 64,
                        "time": 339.3433260000002,
                        "value": 1
                    },
                    {
                        "number": 64,
                        "time": 339.59257976250024,
                        "value": 0
                    },
                    {
                        "number": 64,
                        "time": 339.7612365000002,
                        "value": 1
                    },
                    {
                        "number": 64,
                        "time": 339.94929622500024,
                        "value": 0
                    },
                    {
                        "number": 64,
                        "time": 340.0351171312502,
                        "value": 1
                    },
                    {
                        "number": 64,
                        "time": 340.1978037187502,
                        "value": 0
                    },
                    {
                        "number": 64,
                        "time": 340.2672067125002,
                        "value": 1
                    },
                    {
                        "number": 64,
                        "time": 341.37989341875016,
                        "value": 0
                    },
                    {
                        "number": 64,
                        "time": 341.4784008937502,
                        "value": 1
                    },
                    {
                        "number": 64,
                        "time": 342.0978039562502,
                        "value": 0
                    },
                    {
                        "number": 64,
                        "time": 342.2291472562502,
                        "value": 1
                    },
                    {
                        "number": 64,
                        "time": 342.4612368375002,
                        "value": 0
                    },
                    {
                        "number": 64,
                        "time": 342.62690850000024,
                        "value": 1
                    },
                    {
                        "number": 64,
                        "time": 342.81198315000023,
                        "value": 0
                    },
                    {
                        "number": 64,
                        "time": 342.8903413687502,
                        "value": 1
                    },
                    {
                        "number": 64,
                        "time": 343.53735637500023,
                        "value": 0
                    },
                    {
                        "number": 64,
                        "time": 343.68213251250023,
                        "value": 1
                    },
                    {
                        "number": 64,
                        "time": 344.2470579562502,
                        "value": 0
                    },
                    {
                        "number": 64,
                        "time": 344.37840125625024,
                        "value": 1
                    },
                    {
                        "number": 64,
                        "time": 344.96198341875026,
                        "value": 0
                    },
                    {
                        "number": 64,
                        "time": 345.1060132875003,
                        "value": 1
                    },
                    {
                        "number": 64,
                        "time": 345.32616256875025,
                        "value": 0
                    },
                    {
                        "number": 64,
                        "time": 345.52093871250025,
                        "value": 1
                    },
                    {
                        "number": 64,
                        "time": 345.68511783750023,
                        "value": 0
                    },
                    {
                        "number": 64,
                        "time": 345.7470581437502,
                        "value": 1
                    },
                    {
                        "number": 64,
                        "time": 347.11795383750024,
                        "value": 0
                    },
                    {
                        "number": 64,
                        "time": 347.2209389250002,
                        "value": 1
                    },
                    {
                        "number": 64,
                        "time": 347.8336255687502,
                        "value": 0
                    },
                    {
                        "number": 64,
                        "time": 347.9895957375002,
                        "value": 1
                    },
                    {
                        "number": 64,
                        "time": 348.5470584937502,
                        "value": 0
                    },
                    {
                        "number": 64,
                        "time": 348.63959581875025,
                        "value": 1
                    },
                    {
                        "number": 64,
                        "time": 349.25974515000024,
                        "value": 0
                    },
                    {
                        "number": 64,
                        "time": 349.36496904375025,
                        "value": 1
                    },
                    {
                        "number": 64,
                        "time": 350.6955662250003,
                        "value": 0
                    },
                    {
                        "number": 64,
                        "time": 350.7657154875003,
                        "value": 1
                    },
                    {
                        "number": 64,
                        "time": 351.4172081062503,
                        "value": 0
                    },
                    {
                        "number": 64,
                        "time": 351.4888499062503,
                        "value": 1
                    },
                    {
                        "number": 64,
                        "time": 352.12840222500034,
                        "value": 0
                    },
                    {
                        "number": 64,
                        "time": 352.19855148750037,
                        "value": 1
                    },
                    {
                        "number": 64,
                        "time": 352.84183515000035,
                        "value": 0
                    },
                    {
                        "number": 64,
                        "time": 352.9724321812503,
                        "value": 1
                    },
                    {
                        "number": 64,
                        "time": 353.5589994187503,
                        "value": 0
                    },
                    {
                        "number": 64,
                        "time": 353.62914868125034,
                        "value": 1
                    },
                    {
                        "number": 64,
                        "time": 354.2784024937503,
                        "value": 0
                    },
                    {
                        "number": 64,
                        "time": 354.34407414375033,
                        "value": 1
                    },
                    {
                        "number": 64,
                        "time": 354.9985518375003,
                        "value": 0
                    },
                    {
                        "number": 64,
                        "time": 355.0619846812503,
                        "value": 1
                    },
                    {
                        "number": 64,
                        "time": 355.7089996875003,
                        "value": 0
                    },
                    {
                        "number": 64,
                        "time": 355.8336265687503,
                        "value": 1
                    },
                    {
                        "number": 64,
                        "time": 356.4306415687503,
                        "value": 0
                    },
                    {
                        "number": 64,
                        "time": 356.4858654562503,
                        "value": 1
                    },
                    {
                        "number": 64,
                        "time": 357.1478058375003,
                        "value": 0
                    },
                    {
                        "number": 64,
                        "time": 357.2381043562503,
                        "value": 1
                    },
                    {
                        "number": 64,
                        "time": 357.8612387625003,
                        "value": 0
                    },
                    {
                        "number": 64,
                        "time": 357.8940745875003,
                        "value": 1
                    },
                    {
                        "number": 64,
                        "time": 358.5754179562503,
                        "value": 0
                    },
                    {
                        "number": 64,
                        "time": 358.66198513125033,
                        "value": 1
                    },
                    {
                        "number": 64,
                        "time": 359.29258222500033,
                        "value": 0
                    },
                    {
                        "number": 64,
                        "time": 359.3776568625003,
                        "value": 1
                    },
                    {
                        "number": 64,
                        "time": 360.0127315687503,
                        "value": 0
                    },
                    {
                        "number": 64,
                        "time": 360.0687017250003,
                        "value": 1
                    },
                    {
                        "number": 64,
                        "time": 360.4873584937503,
                        "value": 0
                    },
                    {
                        "number": 64,
                        "time": 360.5321346187503,
                        "value": 1
                    },
                    {
                        "number": 64,
                        "time": 360.9627316875003,
                        "value": 0
                    },
                    {
                        "number": 64,
                        "time": 360.9985525875003,
                        "value": 1
                    },
                    {
                        "number": 64,
                        "time": 361.4425824937503,
                        "value": 0
                    },
                    {
                        "number": 64,
                        "time": 361.5522840000003,
                        "value": 1
                    },
                    {
                        "number": 64,
                        "time": 361.8000452250003,
                        "value": 0
                    },
                    {
                        "number": 64,
                        "time": 361.9791497250003,
                        "value": 1
                    },
                    {
                        "number": 64,
                        "time": 362.1560154187503,
                        "value": 0
                    },
                    {
                        "number": 64,
                        "time": 362.1918363187503,
                        "value": 1
                    },
                    {
                        "number": 64,
                        "time": 362.6395975687503,
                        "value": 0
                    },
                    {
                        "number": 64,
                        "time": 362.6761647375003,
                        "value": 1
                    },
                    {
                        "number": 64,
                        "time": 363.1172095687503,
                        "value": 0
                    },
                    {
                        "number": 64,
                        "time": 363.1716871875003,
                        "value": 1
                    },
                    {
                        "number": 64,
                        "time": 363.5903439562503,
                        "value": 0
                    },
                    {
                        "number": 64,
                        "time": 363.72168725625033,
                        "value": 1
                    },
                    {
                        "number": 64,
                        "time": 363.95079176250033,
                        "value": 0
                    },
                    {
                        "number": 64,
                        "time": 364.13959775625034,
                        "value": 1
                    },
                    {
                        "number": 64,
                        "time": 364.30676195625034,
                        "value": 0
                    },
                    {
                        "number": 64,
                        "time": 364.35676196250034,
                        "value": 1
                    },
                    {
                        "number": 64,
                        "time": 365.64631436250033,
                        "value": 0
                    },
                    {
                        "number": 64,
                        "time": 365.7313890000003,
                        "value": 1
                    },
                    {
                        "number": 64,
                        "time": 367.08512051250034,
                        "value": 0
                    },
                    {
                        "number": 64,
                        "time": 367.16422500000033,
                        "value": 1
                    },
                    {
                        "number": 64,
                        "time": 368.6060162250003,
                        "value": 0
                    },
                    {
                        "number": 64,
                        "time": 368.77616550000033,
                        "value": 1
                    },
                    {
                        "number": 64,
                        "time": 369.32019541875036,
                        "value": 0
                    },
                    {
                        "number": 64,
                        "time": 369.47318051250033,
                        "value": 1
                    },
                    {
                        "number": 64,
                        "time": 370.03661341875033,
                        "value": 0
                    },
                    {
                        "number": 64,
                        "time": 370.20900150000034,
                        "value": 1
                    },
                    {
                        "number": 64,
                        "time": 371.47019568750034,
                        "value": 0
                    },
                    {
                        "number": 64,
                        "time": 371.6104942125003,
                        "value": 1
                    },
                    {
                        "number": 64,
                        "time": 372.8179570500003,
                        "value": 0
                    },
                    {
                        "number": 64,
                        "time": 372.8828824312503,
                        "value": 1
                    },
                    {
                        "number": 64,
                        "time": 374.2493005125003,
                        "value": 0
                    },
                    {
                        "number": 64,
                        "time": 374.3007930562503,
                        "value": 1
                    },
                    {
                        "number": 64,
                        "time": 375.67691263125033,
                        "value": 0
                    },
                    {
                        "number": 64,
                        "time": 375.74333055000034,
                        "value": 1
                    },
                    {
                        "number": 64,
                        "time": 378.63288315000034,
                        "value": 0
                    },
                    {
                        "number": 64,
                        "time": 378.66945031875036,
                        "value": 1
                    },
                    {
                        "number": 64,
                        "time": 385.31348100000037,
                        "value": 0
                    }
                ]
            },
            "id": 3,
            "name": "Pedal"
        },
        {
            "startTime": 0,
            "duration": 0,
            "length": 0,
            "notes": [],
            "controlChanges": {},
            "id": 4,
            "name": "Modest Mussorgski: Bilder einer Ausstellung (8)"
        },
        {
            "startTime": 0,
            "duration": 0,
            "length": 0,
            "notes": [],
            "controlChanges": {},
            "id": 5,
            "name": "Copyright © 2000 by Bernd Krüger"
        },
        {
            "startTime": 0,
            "duration": 0,
            "length": 0,
            "notes": [],
            "controlChanges": {},
            "id": 6,
            "name": "http://www.piano-midi.de"
        },
        {
            "startTime": 0,
            "duration": 0,
            "length": 0,
            "notes": [],
            "controlChanges": {},
            "id": 7,
            "name": "Edition: 2013-12-28"
        },
        {
            "startTime": 0,
            "duration": 0,
            "length": 0,
            "notes": [],
            "controlChanges": {},
            "id": 8,
            "name": "Spur 8"
        }
    ]
}